<?xml version="1.0" encoding="UTF-8"?>
<!DOCTYPE svg  PUBLIC '-//W3C//DTD SVG 1.1//EN'  'http://www.w3.org/Graphics/SVG/1.1/DTD/svg11.dtd'>
<svg width="1013.3pt" height="533.33pt" version="1.1" viewBox="0 0 1013.3 533.33" xmlns="http://www.w3.org/2000/svg" xmlns:xlink="http://www.w3.org/1999/xlink">
<defs>
<style type="text/css">*{stroke-linecap:butt;stroke-linejoin:round;white-space:pre;}</style>
</defs>
<path d="m0 533.33h1013.3v-533.33h-1013.3z" fill="#fff"/>
<g fill="none" stroke="#000">
<path d="m710.93 24.912-132.54 65.621" clip-path="url(#a)"/>
<path d="m710.93 24.912 134.91 369.05" clip-path="url(#a)"/>
<path d="m710.93 24.912-2.3722 369.05" clip-path="url(#a)"/>
<path d="m578.39 90.532-341.09 63.743" clip-path="url(#a)"/>
<path d="m578.39 90.532 194.77 360.66" clip-path="url(#a)"/>
<path d="m578.39 90.532 146.32 360.66" clip-path="url(#a)"/>
<path d="m845.84 393.96-24.227 57.229" clip-path="url(#a)"/>
<path d="m845.84 393.96 24.227 57.229" clip-path="url(#a)"/>
<path d="m708.56 393.96 209.97 57.229" clip-path="url(#a)"/>
<path d="m708.56 393.96-468.38 57.229" clip-path="url(#a)" stroke-dasharray="3.7,1.6"/>
<path d="m708.56 393.96 258.42 57.229" clip-path="url(#a)"/>
<path d="m918.52 451.19v57.229" clip-path="url(#a)"/>
<path d="m821.61 451.19v57.229" clip-path="url(#a)"/>
<path d="m870.07 451.19v57.229" clip-path="url(#a)"/>
<path d="m237.3 154.28-142.48 239.69" clip-path="url(#a)"/>
<path d="m237.3 154.28 2.8769 296.92" clip-path="url(#a)"/>
<path d="m237.3 154.28 133.85 62.03" clip-path="url(#a)"/>
<path d="m237.3 154.28-45.577 296.92" clip-path="url(#a)"/>
<path d="m237.3 154.28 51.33 296.92" clip-path="url(#a)"/>
<path d="m773.16 451.19v57.229" clip-path="url(#a)"/>
<path d="m94.812 393.96-48.453 57.229" clip-path="url(#a)"/>
<path d="m94.812 393.96v57.229" clip-path="url(#a)"/>
<path d="m94.812 393.96 48.453 57.229" clip-path="url(#a)"/>
<path d="m240.17 451.19v57.229" clip-path="url(#a)"/>
<path d="m371.15 216.31-130.98 234.89" clip-path="url(#a)" stroke-dasharray="3.7,1.6"/>
<path d="m371.15 216.31-34.069 234.89" clip-path="url(#a)"/>
<path d="m371.15 216.31 14.385 234.89" clip-path="url(#a)"/>
<path d="m371.15 216.31 150.66 60.49" clip-path="url(#a)"/>
<path d="m337.08 451.19v57.229" clip-path="url(#a)"/>
<path d="m385.53 451.19v57.229" clip-path="url(#a)"/>
<path d="m521.81 276.8-87.822 174.4" clip-path="url(#a)"/>
<path d="m521.81 276.8-39.368 174.4" clip-path="url(#a)"/>
<path d="m521.81 276.8 9.085 174.4" clip-path="url(#a)"/>
<path d="m521.81 276.8 118.11 59.143" clip-path="url(#a)"/>
<path d="m433.99 451.19v57.229" clip-path="url(#a)"/>
<path d="m482.44 451.19v57.229" clip-path="url(#a)"/>
<path d="m530.89 451.19v57.229" clip-path="url(#a)"/>
<path d="m639.91 335.94-36.34 58.025" clip-path="url(#a)"/>
<path d="m639.91 335.94 36.34 115.25" clip-path="url(#a)"/>
<path d="m603.57 393.96-24.227 57.229" clip-path="url(#a)"/>
<path d="m603.57 393.96 24.227 57.229" clip-path="url(#a)"/>
<path d="m676.25 451.19v57.229" clip-path="url(#a)"/>
<path d="m579.35 451.19v57.229" clip-path="url(#a)"/>
<path d="m627.8 451.19v57.229" clip-path="url(#a)"/>
<path d="m46.359 451.19v57.229" clip-path="url(#a)"/>
<path d="m94.812 451.19v57.229" clip-path="url(#a)"/>
<path d="m143.27 451.19v57.229" clip-path="url(#a)"/>
<path d="m710.93 24.912-132.54 65.621" clip-path="url(#a)"/>
<path d="m710.93 24.912 134.91 369.05" clip-path="url(#a)"/>
<path d="m710.93 24.912-2.3722 369.05" clip-path="url(#a)"/>
<path d="m191.72 451.19v57.229" clip-path="url(#a)"/>
<path d="m288.63 451.19v57.229" clip-path="url(#a)"/>
<path d="m724.71 451.19v57.229" clip-path="url(#a)"/>
<path d="m966.97 451.19v57.229" clip-path="url(#a)"/>
</g>
<path d="m644.74 64.677 5.3916-2.6694q2.1508-1.0649 1.086-3.2157l-3.4353-6.9387q-1.0649-2.1508-3.2157-1.086l-5.3916 2.6694q-2.1508 1.0649-1.086 3.2157l3.4353 6.9387q1.0649 2.1508 3.2157 1.086z" clip-path="url(#a)" fill="#fff" stroke="#fff"/>
<g clip-path="url(#a)">
<defs>
<path id="ai" d="m9.8125 72.906h9.8594v-29.891h35.844v29.891h9.8594v-72.906h-9.8594v34.719h-35.844v-34.719h-9.8594z"/>
</defs>
<g transform="translate(642.94 61.035) rotate(-26.34) scale(.08 -.08)">
<use xlink:href="#ai"/>
</g>
</g>
<path d="m771.73 209.5 1.5304 4.1865q0.82402 2.2541 3.0781 1.4301l7.2718-2.6583q2.2541-0.82402 1.4301-3.0781l-1.5304-4.1865q-0.82402-2.2541-3.0781-1.4301l-7.2718 2.6583q-2.2541 0.82402-1.4301 3.0781z" clip-path="url(#a)" fill="#fff" stroke="#fff"/>
<g clip-path="url(#a)">
<defs>
<path id="v" d="m9.8125 72.906h9.8594v-64.609h35.5v-8.2969h-45.359z"/>
</defs>
<g transform="translate(775.55 208.1) rotate(69.919) scale(.08 -.08)">
<use xlink:href="#v"/>
</g>
</g>
<path d="m715.99 212.49 0.038671-6.0161q0.015427-2.4-2.3845-2.4154l-7.7423-0.049766q-2.4-0.015426-2.4154 2.3845l-0.03867 6.0161q-0.015427 2.4 2.3845 2.4154l7.7423 0.049766q2.4 0.015426 2.4154-2.3845z" clip-path="url(#a)" fill="#fff" stroke="#fff"/>
<g clip-path="url(#a)">
<g transform="translate(711.93 212.46) rotate(-89.632) scale(.08 -.08)">
<use xlink:href="#ai"/>
</g>
</g>
<path d="m406.3 129.07 5.3794-1.0053q2.3592-0.44088 1.9183-2.8l-1.4223-7.6107q-0.44088-2.3592-2.8-1.9183l-5.3794 1.0053q-2.3592 0.44088-1.9183 2.8l1.4223 7.6107q0.44088 2.3592 2.8 1.9183z" clip-path="url(#a)" fill="#fff" stroke="#fff"/>
<g clip-path="url(#a)">
<defs>
<path id="q" d="m34.188 63.188-13.391-36.281h26.812zm-5.5781 9.7188h11.188l27.781-72.906h-10.25l-6.6406 18.703h-32.859l-6.6406-18.703h-10.406z"/>
</defs>
<g transform="translate(405.56 125.08) rotate(-10.585) scale(.08 -.08)">
<use xlink:href="#q"/>
</g>
</g>
<path d="m669.11 271.72 2.2921 4.2444q1.1404 2.1117 3.2522 0.9713l6.8125-3.6791q2.1117-1.1404 0.9713-3.2522l-2.2921-4.2444q-1.1404-2.1117-3.2522-0.9713l-6.8125 3.6791q-2.1117 1.1404-0.9713 3.2522z" clip-path="url(#a)" fill="#fff" stroke="#fff"/>
<g clip-path="url(#a)">
<defs>
<path id="am" d="m19.672 64.797v-27.391h12.406q6.8906 0 10.641 3.5625 3.7656 3.5625 3.7656 10.156 0 6.5469-3.7656 10.109-3.75 3.5625-10.641 3.5625zm-9.8594 8.1094h22.266q12.266 0 18.531-5.5469 6.2812-5.5469 6.2812-16.234 0-10.797-6.2812-16.312-6.2656-5.5156-18.531-5.5156h-12.406v-29.297h-9.8594z"/>
</defs>
<g transform="translate(672.69 269.79) rotate(61.629) scale(.08 -.08)">
<use xlink:href="#am"/>
</g>
</g>
<path d="m644.64 270.51 2.2011 5.4255q0.90225 2.2239 3.1262 1.3217l7.1745-2.9107q2.2239-0.90225 1.3217-3.1262l-2.2011-5.4255q-0.90225-2.2239-3.1262-1.3217l-7.1745 2.9107q-2.2239 0.90225-1.3217 3.1262z" clip-path="url(#a)" fill="#fff" stroke="#fff"/>
<g clip-path="url(#a)">
<defs>
<path id="u" d="m8.6875 72.906h9.9219v-44.297q0-11.719 4.2344-16.875 4.25-5.1406 13.781-5.1406 9.4688 0 13.719 5.1406 4.25 5.1562 4.25 16.875v44.297h9.9062v-45.516q0-14.25-7.0625-21.531-7.0469-7.2812-20.812-7.2812-13.828 0-20.891 7.2812-7.0469 7.2812-7.0469 21.531z"/>
</defs>
<g transform="translate(648.4 268.98) rotate(67.918) scale(.08 -.08)">
<use xlink:href="#u"/>
</g>
</g>
<path d="m838.52 427.35 1.9706-4.6551q0.93561-2.2101-1.2745-3.1457l-7.1299-3.0183q-2.2101-0.93561-3.1457 1.2745l-1.9706 4.6551q-0.93561 2.2101 1.2745 3.1457l7.1299 3.0183q2.2101 0.93561 3.1457-1.2745z" clip-path="url(#a)" fill="#fff" stroke="#fff"/>
<g clip-path="url(#a)">
<defs>
<path id="o" d="m9.8125 72.906h46.094v-8.3125h-36.234v-21.578h34.719v-8.2969h-34.719v-26.422h37.109v-8.2969h-46.969z"/>
</defs>
<g transform="translate(834.78 425.77) rotate(-67.056) scale(.08 -.08)">
<use xlink:href="#o"/>
</g>
</g>
<path d="m851.09 422.45 2.1777 5.1443q0.93561 2.2101 3.1457 1.2745l7.1299-3.0183q2.2101-0.93561 1.2745-3.1457l-2.1777-5.1443q-0.93561-2.2101-3.1457-1.2745l-7.1299 3.0183q-2.2101 0.93561-1.2745 3.1457z" clip-path="url(#a)" fill="#fff" stroke="#fff"/>
<g clip-path="url(#a)">
<defs>
<path id="s" d="m64.406 67.281v-10.391q-4.9844 4.6406-10.625 6.9219-5.6406 2.2969-11.984 2.2969-12.5 0-19.141-7.6406t-6.6406-22.094q0-14.406 6.6406-22.047t19.141-7.6406q6.3438 0 11.984 2.2969t10.625 6.9375v-10.312q-5.1719-3.5156-10.969-5.2812-5.7812-1.75-12.219-1.75-16.562 0-26.094 10.125-9.5156 10.141-9.5156 27.672 0 17.578 9.5156 27.703 9.5312 10.141 26.094 10.141 6.5312 0 12.312-1.7344 5.7969-1.7344 10.875-5.2031z"/>
</defs>
<g transform="translate(854.83 420.87) rotate(67.056) scale(.08 -.08)">
<use xlink:href="#s"/>
</g>
</g>
<path d="m809.44 427.96 4.9 1.3356q2.3155 0.63113 2.9467-1.6844l2.0361-7.47q0.63113-2.3155-1.6844-2.9467l-4.9-1.3356q-2.3155-0.63113-2.9467 1.6844l-2.0361 7.47q-0.63113 2.3155 1.6844 2.9467z" clip-path="url(#a)" fill="#fff" stroke="#fff"/>
<g clip-path="url(#a)">
<defs>
<path id="ag" d="m53.516 70.516v-9.625q-5.6094 2.6875-10.594 4-4.9844 1.3281-9.625 1.3281-8.0469 0-12.422-3.125t-4.375-8.8906q0-4.8438 2.9062-7.3125 2.9062-2.4531 11.016-3.9688l5.9531-1.2188q11.031-2.1094 16.281-7.4062t5.25-14.172q0-10.609-7.1094-16.078-7.0938-5.4688-20.812-5.4688-5.1719 0-11.016 1.1719-5.8281 1.1719-12.078 3.4688v10.156q6-3.3594 11.766-5.0781 5.7656-1.7031 11.328-1.7031 8.4375 0 13.031 3.3125 4.5938 3.3281 4.5938 9.4844 0 5.3594-3.2969 8.3906t-10.812 4.5469l-6.0156 1.1719q-11.031 2.1875-15.969 6.875-4.9219 4.6875-4.9219 13.047 0 9.6719 6.8125 15.234t18.766 5.5625q5.1406 0 10.453-0.9375 5.3281-0.92188 10.891-2.7656z"/>
</defs>
<g transform="translate(810.51 424.04) rotate(15.246) scale(.08 -.08)">
<use xlink:href="#ag"/>
</g>
</g>
<path d="m472.41 429.13 5.4321-0.66372q2.3823-0.29108 2.0912-2.6734l-0.93903-7.6853q-0.29108-2.3823-2.6734-2.0912l-5.4321 0.66372q-2.3823 0.29108-2.0912 2.6734l0.93903 7.6853q0.29108 2.3823 2.6734 2.0912z" clip-path="url(#a)" fill="#fff" stroke="#fff"/>
<g clip-path="url(#a)">
<g transform="translate(471.92 425.1) rotate(-6.9661) scale(.08 -.08)">
<use xlink:href="#q"/>
</g>
</g>
<path d="m833.55 428.07 5.7165 1.266q2.3432 0.51893 2.8622-1.8243l1.6741-7.5593q0.51893-2.3432-1.8243-2.8622l-5.7165-1.266q-2.3432-0.51893-2.8622 1.8243l-1.6741 7.5593q-0.51893 2.3432 1.8243 2.8622z" clip-path="url(#a)" fill="#fff" stroke="#fff"/>
<g clip-path="url(#a)">
<g transform="translate(834.43 424.1) rotate(12.487) scale(.08 -.08)">
<use xlink:href="#u"/>
</g>
</g>
<path d="m912.25 462.16v35.285q0 2.4 2.4 2.4h7.7425q2.4 0 2.4-2.4v-35.285q0-2.4-2.4-2.4h-7.7425q-2.4 0-2.4 2.4z" clip-path="url(#a)" fill="#fff" stroke="#fff"/>
<g clip-path="url(#a)">
<defs>
<path id="k" d="m-0.29688 72.906h61.672v-8.3125h-25.875v-64.594h-9.9062v64.594h-25.891z"/>
<path id="g" d="m56.203 29.594v-4.3906h-41.312q0.59375-9.2812 5.5938-14.141t13.938-4.8594q5.1719 0 10.031 1.2656t9.6562 3.8125v-8.5q-4.8438-2.0469-9.9219-3.125t-10.297-1.0781q-13.094 0-20.734 7.6094-7.6406 7.625-7.6406 20.625 0 13.422 7.25 21.297 7.25 7.8906 19.562 7.8906 11.031 0 17.453-7.1094 6.4219-7.0938 6.4219-19.297zm-8.9844 2.6406q-0.09375 7.3594-4.125 11.75-4.0312 4.4062-10.672 4.4062-7.5156 0-12.031-4.25t-5.2031-11.969z"/>
<path id="e" d="m41.109 46.297q-1.5156 0.875-3.2969 1.2812-1.7812 0.42188-3.9219 0.42188-7.625 0-11.703-4.9531t-4.0781-14.234v-28.812h-9.0312v54.688h9.0312v-8.5q2.8438 4.9844 7.375 7.3906 4.5469 2.4219 11.047 2.4219 0.92188 0 2.0469-0.125 1.125-0.10938 2.4844-0.35938z"/>
<path id="l" d="m52 44.188q3.375 6.0625 8.0625 8.9375t11.031 2.875q8.5469 0 13.188-5.9844 4.6406-5.9688 4.6406-17v-33.016h-9.0312v32.719q0 7.8594-2.7969 11.656-2.7812 3.8125-8.4844 3.8125-6.9844 0-11.047-4.6406-4.0469-4.625-4.0469-12.641v-30.906h-9.0312v32.719q0 7.9062-2.7812 11.688t-8.5938 3.7812q-6.8906 0-10.953-4.6562-4.0469-4.6562-4.0469-12.625v-30.906h-9.0312v54.688h9.0312v-8.5q3.0781 5.0312 7.375 7.4219t10.203 2.3906q5.9688 0 10.141-3.0312 4.1719-3.0156 6.1719-8.7812z"/>
<path id="i" d="m9.4219 54.688h8.9844v-54.688h-8.9844zm0 21.297h8.9844v-11.391h-8.9844z"/>
<path id="h" d="m54.891 33.016v-33.016h-8.9844v32.719q0 7.7656-3.0312 11.609-3.0312 3.8594-9.0781 3.8594-7.2812 0-11.484-4.6406-4.2031-4.625-4.2031-12.641v-30.906h-9.0312v54.688h9.0312v-8.5q3.2344 4.9375 7.5938 7.375 4.375 2.4375 10.094 2.4375 9.4219 0 14.25-5.8281 4.8438-5.8281 4.8438-17.156z"/>
<path id="f" d="m34.281 27.484q-10.891 0-15.094-2.4844t-4.2031-8.5q0-4.7812 3.1562-7.5938 3.1562-2.7969 8.5625-2.7969 7.4844 0 12 5.2969t4.5156 14.078v2zm17.922 3.7188v-31.203h-8.9844v8.2969q-3.0781-4.9688-7.6719-7.3438t-11.234-2.375q-8.3906 0-13.359 4.7188-4.9531 4.7188-4.9531 12.625 0 9.2188 6.1719 13.906 6.1875 4.6875 18.438 4.6875h12.609v0.89062q0 6.2031-4.0781 9.5938t-11.453 3.3906q-4.6875 0-9.1406-1.125-4.4375-1.125-8.5312-3.375v8.3125q4.9219 1.9062 9.5625 2.8438 4.6406 0.95312 9.0312 0.95312 11.875 0 17.734-6.1562 5.8594-6.1406 5.8594-18.641z"/>
<path id="j" d="m9.4219 75.984h8.9844v-75.984h-8.9844z"/>
</defs>
<g transform="translate(916.31 462.16) rotate(90) scale(.08 -.08)">
<use xlink:href="#k"/>
<use x="60.818359" xlink:href="#g"/>
<use x="122.341797" xlink:href="#e"/>
<use x="163.439453" xlink:href="#l"/>
<use x="260.851562" xlink:href="#i"/>
<use x="288.634766" xlink:href="#h"/>
<use x="352.013672" xlink:href="#f"/>
<use x="413.292969" xlink:href="#j"/>
</g>
</g>
<path d="m815.34 462.16v35.285q0 2.4 2.4 2.4h7.7425q2.4 0 2.4-2.4v-35.285q0-2.4-2.4-2.4h-7.7425q-2.4 0-2.4 2.4z" clip-path="url(#a)" fill="#fff" stroke="#fff"/>
<g clip-path="url(#a)">
<g transform="translate(819.41 462.16) rotate(90) scale(.08 -.08)">
<use xlink:href="#k"/>
<use x="60.818359" xlink:href="#g"/>
<use x="122.341797" xlink:href="#e"/>
<use x="163.439453" xlink:href="#l"/>
<use x="260.851562" xlink:href="#i"/>
<use x="288.634766" xlink:href="#h"/>
<use x="352.013672" xlink:href="#f"/>
<use x="413.292969" xlink:href="#j"/>
</g>
</g>
<path d="m863.8 462.16v35.285q0 2.4 2.4 2.4h7.7425q2.4 0 2.4-2.4v-35.285q0-2.4-2.4-2.4h-7.7425q-2.4 0-2.4 2.4z" clip-path="url(#a)" fill="#fff" stroke="#fff"/>
<g clip-path="url(#a)">
<g transform="translate(867.86 462.16) rotate(90) scale(.08 -.08)">
<use xlink:href="#k"/>
<use x="60.818359" xlink:href="#g"/>
<use x="122.341797" xlink:href="#e"/>
<use x="163.439453" xlink:href="#l"/>
<use x="260.851562" xlink:href="#i"/>
<use x="288.634766" xlink:href="#h"/>
<use x="352.013672" xlink:href="#f"/>
<use x="413.292969" xlink:href="#j"/>
</g>
</g>
<path d="m170.15 279.5 2.583-4.3452q1.2264-2.063-0.83665-3.2894l-6.6554-3.9563q-2.063-1.2264-3.2894 0.83665l-2.583 4.3452q-1.2264 2.063 0.83665 3.2894l6.6554 3.9563q2.063 1.2264 3.2894-0.83665z" clip-path="url(#a)" fill="#fff" stroke="#fff"/>
<g clip-path="url(#a)">
<g transform="translate(166.66 277.42) rotate(-59.27) scale(.08 -.08)">
<use xlink:href="#o"/>
</g>
</g>
<path d="m232.44 300 0.054125 5.586q0.023253 2.3999 2.4231 2.3766l7.7421-0.075016q2.3999-0.023253 2.3766-2.4231l-0.054124-5.586q-0.023254-2.3999-2.4231-2.3766l-7.7421 0.075016q-2.3999 0.023253-2.3766 2.4231z" clip-path="url(#a)" fill="#fff" stroke="#fff"/>
<g clip-path="url(#a)">
<g transform="translate(236.5 299.96) rotate(89.445) scale(.08 -.08)">
<use xlink:href="#s"/>
</g>
</g>
<path d="m299.29 189.92 4.5864 2.1254q2.1775 1.0091 3.1867-1.1684l3.2554-7.0248q1.0091-2.1775-1.1684-3.1867l-4.5864-2.1254q-2.1775-1.0091-3.1867 1.1684l-3.2554 7.0248q-1.0091 2.1775 1.1684 3.1867z" clip-path="url(#a)" fill="#fff" stroke="#fff"/>
<g clip-path="url(#a)">
<g transform="translate(301 186.23) rotate(24.864) scale(.08 -.08)">
<use xlink:href="#o"/>
</g>
</g>
<path d="m220.26 306.58 0.88833-5.7872q0.36413-2.3722-2.0081-2.7363l-7.6529-1.1747q-2.3722-0.36413-2.7363 2.0081l-0.88833 5.7872q-0.36413 2.3722 2.0081 2.7363l7.6529 1.1747q2.3722 0.36413 2.7363-2.0081z" clip-path="url(#a)" fill="#fff" stroke="#fff"/>
<g clip-path="url(#a)">
<g transform="translate(216.25 305.96) rotate(-81.273) scale(.08 -.08)">
<use xlink:href="#u"/>
</g>
</g>
<path d="m256.28 300.92 0.9974 5.7694q0.40884 2.3649 2.7738 1.9561l7.6293-1.3189q2.3649-0.40884 1.9561-2.7738l-0.9974-5.7694q-0.40884-2.3649-2.7738-1.9561l-7.6293 1.3189q-2.3649 0.40884-1.9561 2.7738z" clip-path="url(#a)" fill="#fff" stroke="#fff"/>
<g clip-path="url(#a)">
<g transform="translate(260.29 300.23) rotate(80.192) scale(.08 -.08)">
<use xlink:href="#u"/>
</g>
</g>
<path d="m766.89 462.16v35.285q0 2.4 2.4 2.4h7.7425q2.4 0 2.4-2.4v-35.285q0-2.4-2.4-2.4h-7.7425q-2.4 0-2.4 2.4z" clip-path="url(#a)" fill="#fff" stroke="#fff"/>
<g clip-path="url(#a)">
<g transform="translate(770.95 462.16) rotate(90) scale(.08 -.08)">
<use xlink:href="#k"/>
<use x="60.818359" xlink:href="#g"/>
<use x="122.341797" xlink:href="#e"/>
<use x="163.439453" xlink:href="#l"/>
<use x="260.851562" xlink:href="#i"/>
<use x="288.634766" xlink:href="#h"/>
<use x="352.013672" xlink:href="#f"/>
<use x="413.292969" xlink:href="#j"/>
</g>
</g>
<path d="m73.739 428.56 3.2664-3.858q1.5508-1.8317-0.28088-3.3825l-5.9091-5.0029q-1.8317-1.5508-3.3825 0.28088l-3.2664 3.858q-1.5508 1.8317 0.28088 3.3825l5.9091 5.0029q1.8317 1.5508 3.3825-0.28088z" clip-path="url(#a)" fill="#fff" stroke="#fff"/>
<g clip-path="url(#a)">
<g transform="translate(70.637 425.93) rotate(-49.747) scale(.08 -.08)">
<use xlink:href="#o"/>
</g>
</g>
<path d="m88.541 420.05v5.055q0 2.4 2.4 2.4h7.7425q2.4 0 2.4-2.4v-5.055q0-2.4-2.4-2.4h-7.7425q-2.4 0-2.4 2.4z" clip-path="url(#a)" fill="#fff" stroke="#fff"/>
<g clip-path="url(#a)">
<g transform="translate(92.605 420.05) rotate(90) scale(.08 -.08)">
<use xlink:href="#o"/>
</g>
</g>
<path d="m112.45 424.5 3.6096 4.2634q1.5508 1.8317 3.3825 0.28088l5.9091-5.0029q1.8317-1.5508 0.28088-3.3825l-3.6096-4.2634q-1.5508-1.8317-3.3825-0.28088l-5.9091 5.0029q-1.8317 1.5508-0.28088 3.3825z" clip-path="url(#a)" fill="#fff" stroke="#fff"/>
<g clip-path="url(#a)">
<g transform="translate(115.55 421.87) rotate(49.747) scale(.08 -.08)">
<use xlink:href="#s"/>
</g>
</g>
<path d="m233.9 462.16v35.285q0 2.4 2.4 2.4h7.7425q2.4 0 2.4-2.4v-35.285q0-2.4-2.4-2.4h-7.7425q-2.4 0-2.4 2.4z" clip-path="url(#a)" fill="#fff" stroke="#fff"/>
<g clip-path="url(#a)">
<g transform="translate(237.97 462.16) rotate(90) scale(.08 -.08)">
<use xlink:href="#k"/>
<use x="60.818359" xlink:href="#g"/>
<use x="122.341797" xlink:href="#e"/>
<use x="163.439453" xlink:href="#l"/>
<use x="260.851562" xlink:href="#i"/>
<use x="288.634766" xlink:href="#h"/>
<use x="352.013672" xlink:href="#f"/>
<use x="413.292969" xlink:href="#j"/>
</g>
</g>
<path d="m309.81 339.19 2.6652-4.7796q1.1688-2.0961-0.92731-3.265l-6.7623-3.7707q-2.0961-1.1688-3.265 0.92731l-2.6652 4.7796q-1.1688 2.0961 0.92731 3.265l6.7623 3.7707q2.0961 1.1688 3.265-0.92731z" clip-path="url(#a)" fill="#fff" stroke="#fff"/>
<g clip-path="url(#a)">
<g transform="translate(306.26 337.21) rotate(-60.855) scale(.08 -.08)">
<use xlink:href="#q"/>
</g>
</g>
<path d="m359.99 336.93 0.66047-4.5536q0.3445-2.3751-2.0306-2.7196l-7.6623-1.1114q-2.3751-0.3445-2.7196 2.0306l-0.66047 4.5536q-0.3445 2.3751 2.0306 2.7196l7.6623 1.1114q2.3751 0.3445 2.7196-2.0306z" clip-path="url(#a)" fill="#fff" stroke="#fff"/>
<g clip-path="url(#a)">
<defs>
<path id="ao" d="m9.8125 72.906h41.891v-8.3125h-32.031v-21.484h28.906v-8.2969h-28.906v-34.812h-9.8594z"/>
</defs>
<g transform="translate(355.97 336.34) rotate(-81.747) scale(.08 -.08)">
<use xlink:href="#ao"/>
</g>
</g>
<path d="m371.93 331.6 0.31044 5.0693q0.1467 2.3955 2.5422 2.2488l7.728-0.47327q2.3955-0.1467 2.2488-2.5422l-0.31044-5.0693q-0.1467-2.3955-2.5422-2.2488l-7.728 0.47327q-2.3955 0.1467-2.2488 2.5422z" clip-path="url(#a)" fill="#fff" stroke="#fff"/>
<g clip-path="url(#a)">
<g transform="translate(375.98 331.35) rotate(86.496) scale(.08 -.08)">
<use xlink:href="#ag"/>
</g>
</g>
<path d="m441.6 251.35 5.0785 2.039q2.2272 0.89422 3.1214-1.333l2.8848-7.185q0.89422-2.2272-1.333-3.1214l-5.0785-2.039q-2.2272-0.89422-3.1214 1.333l-2.8848 7.185q-0.89422 2.2272 1.333 3.1214z" clip-path="url(#a)" fill="#fff" stroke="#fff"/>
<g clip-path="url(#a)">
<g transform="translate(443.12 247.58) rotate(21.876) scale(.08 -.08)">
<use xlink:href="#q"/>
</g>
</g>
<path d="m330.81 462.16v35.285q0 2.4 2.4 2.4h7.7425q2.4 0 2.4-2.4v-35.285q0-2.4-2.4-2.4h-7.7425q-2.4 0-2.4 2.4z" clip-path="url(#a)" fill="#fff" stroke="#fff"/>
<g clip-path="url(#a)">
<g transform="translate(334.87 462.16) rotate(90) scale(.08 -.08)">
<use xlink:href="#k"/>
<use x="60.818359" xlink:href="#g"/>
<use x="122.341797" xlink:href="#e"/>
<use x="163.439453" xlink:href="#l"/>
<use x="260.851562" xlink:href="#i"/>
<use x="288.634766" xlink:href="#h"/>
<use x="352.013672" xlink:href="#f"/>
<use x="413.292969" xlink:href="#j"/>
</g>
</g>
<path d="m379.26 462.16v35.285q0 2.4 2.4 2.4h7.7425q2.4 0 2.4-2.4v-35.285q0-2.4-2.4-2.4h-7.7425q-2.4 0-2.4 2.4z" clip-path="url(#a)" fill="#fff" stroke="#fff"/>
<g clip-path="url(#a)">
<g transform="translate(383.33 462.16) rotate(90) scale(.08 -.08)">
<use xlink:href="#k"/>
<use x="60.818359" xlink:href="#g"/>
<use x="122.341797" xlink:href="#e"/>
<use x="163.439453" xlink:href="#l"/>
<use x="260.851562" xlink:href="#i"/>
<use x="288.634766" xlink:href="#h"/>
<use x="352.013672" xlink:href="#f"/>
<use x="413.292969" xlink:href="#j"/>
</g>
</g>
<path d="m482.36 369.07 2.2736-4.5149q1.0794-2.1436-1.0641-3.223l-6.9152-3.4823q-2.1436-1.0794-3.223 1.0641l-2.2736 4.5149q-1.0794 2.1436 1.0641 3.223l6.9152 3.4823q2.1436 1.0794 3.223-1.0641z" clip-path="url(#a)" fill="#fff" stroke="#fff"/>
<g clip-path="url(#a)">
<g transform="translate(478.73 367.24) rotate(-63.271) scale(.08 -.08)">
<use xlink:href="#o"/>
</g>
</g>
<path d="m507.63 368.1 1.2301-5.4491q0.52848-2.3411-1.8126-2.8696l-7.5525-1.7049q-2.3411-0.52848-2.8696 1.8126l-1.2301 5.4491q-0.52848 2.3411 1.8126 2.8696l7.5525 1.7049q2.3411 0.52848 2.8696-1.8126z" clip-path="url(#a)" fill="#fff" stroke="#fff"/>
<g clip-path="url(#a)">
<g transform="translate(503.66 367.2) rotate(-77.279) scale(.08 -.08)">
<use xlink:href="#s"/>
</g>
</g>
<path d="m519.94 361.54 0.28918 5.5512q0.12486 2.3968 2.5216 2.2719l7.732-0.40279q2.3968-0.12486 2.2719-2.5216l-0.28918-5.5512q-0.12486-2.3968-2.5216-2.2719l-7.732 0.40279q-2.3968 0.12486-2.2719 2.5216z" clip-path="url(#a)" fill="#fff" stroke="#fff"/>
<g clip-path="url(#a)">
<defs>
<path id="ah" d="m44.391 34.188q3.1719-1.0781 6.1719-4.5938t6.0312-9.6719l10.016-19.922h-10.609l-9.3125 18.703q-3.625 7.3281-7.0156 9.7188t-9.25 2.3906h-10.75v-30.812h-9.8594v72.906h22.266q12.5 0 18.656-5.2344 6.1562-5.2188 6.1562-15.766 0-6.8906-3.2031-11.438-3.2031-4.5312-9.2969-6.2812zm-24.719 30.609v-25.875h12.406q7.125 0 10.766 3.2969t3.6406 9.6875-3.6406 9.6406-10.766 3.25z"/>
</defs>
<g transform="translate(524 361.33) rotate(87.018) scale(.08 -.08)">
<use xlink:href="#ah"/>
</g>
</g>
<path d="m575.79 310.84 4.52 2.2634q2.146 1.0746 3.2206-1.0714l3.4668-6.923q1.0746-2.146-1.0714-3.2206l-4.52-2.2634q-2.146-1.0746-3.2206 1.0714l-3.4668 6.923q-1.0746 2.146 1.0714 3.2206z" clip-path="url(#a)" fill="#fff" stroke="#fff"/>
<g clip-path="url(#a)">
<g transform="translate(577.61 307.21) rotate(26.6) scale(.08 -.08)">
<use xlink:href="#o"/>
</g>
</g>
<path d="m427.72 462.16v35.285q0 2.4 2.4 2.4h7.7425q2.4 0 2.4-2.4v-35.285q0-2.4-2.4-2.4h-7.7425q-2.4 0-2.4 2.4z" clip-path="url(#a)" fill="#fff" stroke="#fff"/>
<g clip-path="url(#a)">
<g transform="translate(431.78 462.16) rotate(90) scale(.08 -.08)">
<use xlink:href="#k"/>
<use x="60.818359" xlink:href="#g"/>
<use x="122.341797" xlink:href="#e"/>
<use x="163.439453" xlink:href="#l"/>
<use x="260.851562" xlink:href="#i"/>
<use x="288.634766" xlink:href="#h"/>
<use x="352.013672" xlink:href="#f"/>
<use x="413.292969" xlink:href="#j"/>
</g>
</g>
<path d="m476.17 462.16v35.285q0 2.4 2.4 2.4h7.7425q2.4 0 2.4-2.4v-35.285q0-2.4-2.4-2.4h-7.7425q-2.4 0-2.4 2.4z" clip-path="url(#a)" fill="#fff" stroke="#fff"/>
<g clip-path="url(#a)">
<g transform="translate(480.23 462.16) rotate(90) scale(.08 -.08)">
<use xlink:href="#k"/>
<use x="60.818359" xlink:href="#g"/>
<use x="122.341797" xlink:href="#e"/>
<use x="163.439453" xlink:href="#l"/>
<use x="260.851562" xlink:href="#i"/>
<use x="288.634766" xlink:href="#h"/>
<use x="352.013672" xlink:href="#f"/>
<use x="413.292969" xlink:href="#j"/>
</g>
</g>
<path d="m524.62 462.16v35.285q0 2.4 2.4 2.4h7.7425q2.4 0 2.4-2.4v-35.285q0-2.4-2.4-2.4h-7.7425q-2.4 0-2.4 2.4z" clip-path="url(#a)" fill="#fff" stroke="#fff"/>
<g clip-path="url(#a)">
<g transform="translate(528.69 462.16) rotate(90) scale(.08 -.08)">
<use xlink:href="#k"/>
<use x="60.818359" xlink:href="#g"/>
<use x="122.341797" xlink:href="#e"/>
<use x="163.439453" xlink:href="#l"/>
<use x="260.851562" xlink:href="#i"/>
<use x="288.634766" xlink:href="#h"/>
<use x="352.013672" xlink:href="#f"/>
<use x="413.292969" xlink:href="#j"/>
</g>
</g>
<path d="m625.72 370.42 2.6831-4.2842q1.2739-2.034-0.76016-3.3079l-6.5618-4.1096q-2.034-1.2739-3.3079 0.76016l-2.6831 4.2842q-1.2739 2.034 0.76016 3.3079l6.5618 4.1096q2.034 1.2739 3.3079-0.76016z" clip-path="url(#a)" fill="#fff" stroke="#fff"/>
<g clip-path="url(#a)">
<g transform="translate(622.27 368.26) rotate(-57.942) scale(.08 -.08)">
<use xlink:href="#o"/>
</g>
</g>
<path d="m651.26 392.79 1.6798 5.3277q0.7217 2.2889 3.0106 1.5672l7.3841-2.3282q2.2889-0.7217 1.5672-3.0106l-1.6798-5.3277q-0.7217-2.2889-3.0106-1.5672l-7.3841 2.3282q-2.2889 0.7217-1.5672 3.0106z" clip-path="url(#a)" fill="#fff" stroke="#fff"/>
<g clip-path="url(#a)">
<g transform="translate(655.14 391.57) rotate(72.5) scale(.08 -.08)">
<use xlink:href="#s"/>
</g>
</g>
<path d="m596.25 427.35 1.9706-4.6551q0.93561-2.2101-1.2745-3.1457l-7.1299-3.0183q-2.2101-0.93561-3.1457 1.2745l-1.9706 4.6551q-0.93561 2.2101 1.2745 3.1457l7.1299 3.0183q2.2101 0.93561 3.1457-1.2745z" clip-path="url(#a)" fill="#fff" stroke="#fff"/>
<g clip-path="url(#a)">
<g transform="translate(592.51 425.77) rotate(-67.056) scale(.08 -.08)">
<use xlink:href="#o"/>
</g>
</g>
<path d="m608.82 422.45 2.1777 5.1443q0.93561 2.2101 3.1457 1.2745l7.1299-3.0183q2.2101-0.93561 1.2745-3.1457l-2.1777-5.1443q-0.93561-2.2101-3.1457-1.2745l-7.1299 3.0183q-2.2101 0.93561-1.2745 3.1457z" clip-path="url(#a)" fill="#fff" stroke="#fff"/>
<g clip-path="url(#a)">
<g transform="translate(612.57 420.87) rotate(67.056) scale(.08 -.08)">
<use xlink:href="#s"/>
</g>
</g>
<path d="m669.98 462.16v35.285q0 2.4 2.4 2.4h7.7425q2.4 0 2.4-2.4v-35.285q0-2.4-2.4-2.4h-7.7425q-2.4 0-2.4 2.4z" clip-path="url(#a)" fill="#fff" stroke="#fff"/>
<g clip-path="url(#a)">
<g transform="translate(674.05 462.16) rotate(90) scale(.08 -.08)">
<use xlink:href="#k"/>
<use x="60.818359" xlink:href="#g"/>
<use x="122.341797" xlink:href="#e"/>
<use x="163.439453" xlink:href="#l"/>
<use x="260.851562" xlink:href="#i"/>
<use x="288.634766" xlink:href="#h"/>
<use x="352.013672" xlink:href="#f"/>
<use x="413.292969" xlink:href="#j"/>
</g>
</g>
<path d="m573.08 462.16v35.285q0 2.4 2.4 2.4h7.7425q2.4 0 2.4-2.4v-35.285q0-2.4-2.4-2.4h-7.7425q-2.4 0-2.4 2.4z" clip-path="url(#a)" fill="#fff" stroke="#fff"/>
<g clip-path="url(#a)">
<g transform="translate(577.14 462.16) rotate(90) scale(.08 -.08)">
<use xlink:href="#k"/>
<use x="60.818359" xlink:href="#g"/>
<use x="122.341797" xlink:href="#e"/>
<use x="163.439453" xlink:href="#l"/>
<use x="260.851562" xlink:href="#i"/>
<use x="288.634766" xlink:href="#h"/>
<use x="352.013672" xlink:href="#f"/>
<use x="413.292969" xlink:href="#j"/>
</g>
</g>
<path d="m621.53 462.16v35.285q0 2.4 2.4 2.4h7.7425q2.4 0 2.4-2.4v-35.285q0-2.4-2.4-2.4h-7.7425q-2.4 0-2.4 2.4z" clip-path="url(#a)" fill="#fff" stroke="#fff"/>
<g clip-path="url(#a)">
<g transform="translate(625.59 462.16) rotate(90) scale(.08 -.08)">
<use xlink:href="#k"/>
<use x="60.818359" xlink:href="#g"/>
<use x="122.341797" xlink:href="#e"/>
<use x="163.439453" xlink:href="#l"/>
<use x="260.851562" xlink:href="#i"/>
<use x="288.634766" xlink:href="#h"/>
<use x="352.013672" xlink:href="#f"/>
<use x="413.292969" xlink:href="#j"/>
</g>
</g>
<path d="m40.088 462.16v35.285q0 2.4 2.4 2.4h7.7425q2.4 0 2.4-2.4v-35.285q0-2.4-2.4-2.4h-7.7425q-2.4 0-2.4 2.4z" clip-path="url(#a)" fill="#fff" stroke="#fff"/>
<g clip-path="url(#a)">
<g transform="translate(44.151 462.16) rotate(90) scale(.08 -.08)">
<use xlink:href="#k"/>
<use x="60.818359" xlink:href="#g"/>
<use x="122.341797" xlink:href="#e"/>
<use x="163.439453" xlink:href="#l"/>
<use x="260.851562" xlink:href="#i"/>
<use x="288.634766" xlink:href="#h"/>
<use x="352.013672" xlink:href="#f"/>
<use x="413.292969" xlink:href="#j"/>
</g>
</g>
<path d="m88.541 462.16v35.285q0 2.4 2.4 2.4h7.7425q2.4 0 2.4-2.4v-35.285q0-2.4-2.4-2.4h-7.7425q-2.4 0-2.4 2.4z" clip-path="url(#a)" fill="#fff" stroke="#fff"/>
<g clip-path="url(#a)">
<g transform="translate(92.605 462.16) rotate(90) scale(.08 -.08)">
<use xlink:href="#k"/>
<use x="60.818359" xlink:href="#g"/>
<use x="122.341797" xlink:href="#e"/>
<use x="163.439453" xlink:href="#l"/>
<use x="260.851562" xlink:href="#i"/>
<use x="288.634766" xlink:href="#h"/>
<use x="352.013672" xlink:href="#f"/>
<use x="413.292969" xlink:href="#j"/>
</g>
</g>
<path d="m136.99 462.16v35.285q0 2.4 2.4 2.4h7.7425q2.4 0 2.4-2.4v-35.285q0-2.4-2.4-2.4h-7.7425q-2.4 0-2.4 2.4z" clip-path="url(#a)" fill="#fff" stroke="#fff"/>
<g clip-path="url(#a)">
<g transform="translate(141.06 462.16) rotate(90) scale(.08 -.08)">
<use xlink:href="#k"/>
<use x="60.818359" xlink:href="#g"/>
<use x="122.341797" xlink:href="#e"/>
<use x="163.439453" xlink:href="#l"/>
<use x="260.851562" xlink:href="#i"/>
<use x="288.634766" xlink:href="#h"/>
<use x="352.013672" xlink:href="#f"/>
<use x="413.292969" xlink:href="#j"/>
</g>
</g>
<path d="m642.99 65.545 8.9013-4.407q2.1508-1.0649 1.086-3.2157l-3.4353-6.9387q-1.0649-2.1508-3.2157-1.086l-8.9013 4.407q-2.1508 1.0649-1.086 3.2157l3.4353 6.9387q1.0649 2.1508 3.2157 1.086z" clip-path="url(#a)" fill="#fff" stroke="#fff"/>
<g clip-path="url(#a)">
<g transform="translate(641.19 61.904) rotate(-26.34) scale(.08 -.08)">
<use xlink:href="#v"/>
<use x="55.744141" xlink:href="#q"/>
</g>
</g>
<path d="m770.78 206.89 3.439 9.4074q0.82402 2.2541 3.0781 1.4301l7.2718-2.6583q2.2541-0.82402 1.4301-3.0781l-3.439-9.4074q-0.82402-2.2541-3.0781-1.4301l-7.2718 2.6583q-2.2541 0.82402-1.4301 3.0781z" clip-path="url(#a)" fill="#fff" stroke="#fff"/>
<g clip-path="url(#a)">
<g transform="translate(774.59 205.49) rotate(69.919) scale(.08 -.08)">
<use xlink:href="#v"/>
<use x="55.712891" xlink:href="#ah"/>
</g>
</g>
<path d="m715.98 214.44 0.063843-9.9323q0.015427-2.4-2.3845-2.4154l-7.7423-0.049766q-2.4-0.015427-2.4154 2.3845l-0.063843 9.9323q-0.015426 2.4 2.3845 2.4154l7.7423 0.049767q2.4 0.015426 2.4154-2.3845z" clip-path="url(#a)" fill="#fff" stroke="#fff"/>
<g clip-path="url(#a)">
<g transform="translate(711.92 214.42) rotate(-89.632) scale(.08 -.08)">
<use xlink:href="#v"/>
<use x="55.744141" xlink:href="#q"/>
</g>
</g>
<path d="m185.45 462.16v35.285q0 2.4 2.4 2.4h7.7425q2.4 0 2.4-2.4v-35.285q0-2.4-2.4-2.4h-7.7425q-2.4 0-2.4 2.4z" clip-path="url(#a)" fill="#fff" stroke="#fff"/>
<g clip-path="url(#a)">
<g transform="translate(189.51 462.16) rotate(90) scale(.08 -.08)">
<use xlink:href="#k"/>
<use x="60.818359" xlink:href="#g"/>
<use x="122.341797" xlink:href="#e"/>
<use x="163.439453" xlink:href="#l"/>
<use x="260.851562" xlink:href="#i"/>
<use x="288.634766" xlink:href="#h"/>
<use x="352.013672" xlink:href="#f"/>
<use x="413.292969" xlink:href="#j"/>
</g>
</g>
<path d="m282.35 462.16v35.285q0 2.4 2.4 2.4h7.7425q2.4 0 2.4-2.4v-35.285q0-2.4-2.4-2.4h-7.7425q-2.4 0-2.4 2.4z" clip-path="url(#a)" fill="#fff" stroke="#fff"/>
<g clip-path="url(#a)">
<g transform="translate(286.42 462.16) rotate(90) scale(.08 -.08)">
<use xlink:href="#k"/>
<use x="60.818359" xlink:href="#g"/>
<use x="122.341797" xlink:href="#e"/>
<use x="163.439453" xlink:href="#l"/>
<use x="260.851562" xlink:href="#i"/>
<use x="288.634766" xlink:href="#h"/>
<use x="352.013672" xlink:href="#f"/>
<use x="413.292969" xlink:href="#j"/>
</g>
</g>
<path d="m718.44 462.16v35.285q0 2.4 2.4 2.4h7.7425q2.4 0 2.4-2.4v-35.285q0-2.4-2.4-2.4h-7.7425q-2.4 0-2.4 2.4z" clip-path="url(#a)" fill="#fff" stroke="#fff"/>
<g clip-path="url(#a)">
<g transform="translate(722.5 462.16) rotate(90) scale(.08 -.08)">
<use xlink:href="#k"/>
<use x="60.818359" xlink:href="#g"/>
<use x="122.341797" xlink:href="#e"/>
<use x="163.439453" xlink:href="#l"/>
<use x="260.851562" xlink:href="#i"/>
<use x="288.634766" xlink:href="#h"/>
<use x="352.013672" xlink:href="#f"/>
<use x="413.292969" xlink:href="#j"/>
</g>
</g>
<path d="m960.7 462.16v35.285q0 2.4 2.4 2.4h7.7425q2.4 0 2.4-2.4v-35.285q0-2.4-2.4-2.4h-7.7425q-2.4 0-2.4 2.4z" clip-path="url(#a)" fill="#fff" stroke="#fff"/>
<g clip-path="url(#a)">
<g transform="translate(964.77 462.16) rotate(90) scale(.08 -.08)">
<use xlink:href="#k"/>
<use x="60.818359" xlink:href="#g"/>
<use x="122.341797" xlink:href="#e"/>
<use x="163.439453" xlink:href="#l"/>
<use x="260.851562" xlink:href="#i"/>
<use x="288.634766" xlink:href="#h"/>
<use x="352.013672" xlink:href="#f"/>
<use x="413.292969" xlink:href="#j"/>
</g>
</g>
<defs>
<path id="b" d="m0 8.6603c2.2967 0 4.4997-0.9125 6.1237-2.5365 1.624-1.624 2.5365-3.827 2.5365-6.1237s-0.9125-4.4997-2.5365-6.1237c-1.624-1.624-3.827-2.5365-6.1237-2.5365s-4.4997 0.9125-6.1237 2.5365c-1.624 1.624-2.5365 3.827-2.5365 6.1237s0.9125 4.4997 2.5365 6.1237c1.624 1.624 3.827 2.5365 6.1237 2.5365z"/>
</defs>
<g clip-path="url(#a)">
<use x="46.358757" y="508.421823" fill="#ffffff" stroke="#ffffff" xlink:href="#b"/>
</g>
<g clip-path="url(#a)">
<use x="94.812221" y="508.421823" fill="#ffffff" stroke="#ffffff" xlink:href="#b"/>
</g>
<g clip-path="url(#a)">
<use x="143.265685" y="508.421823" fill="#ffffff" stroke="#ffffff" xlink:href="#b"/>
</g>
<g clip-path="url(#a)">
<use x="191.719149" y="508.421823" fill="#ffffff" stroke="#ffffff" xlink:href="#b"/>
</g>
<g clip-path="url(#a)">
<use x="240.172613" y="508.421823" fill="#ffffff" stroke="#ffffff" xlink:href="#b"/>
</g>
<g clip-path="url(#a)">
<use x="288.626078" y="508.421823" fill="#ffffff" stroke="#ffffff" xlink:href="#b"/>
</g>
<g clip-path="url(#a)">
<use x="337.079542" y="508.421823" fill="#ffffff" stroke="#ffffff" xlink:href="#b"/>
</g>
<g clip-path="url(#a)">
<use x="385.533006" y="508.421823" fill="#ffffff" stroke="#ffffff" xlink:href="#b"/>
</g>
<g clip-path="url(#a)">
<use x="433.98647" y="508.421823" fill="#ffffff" stroke="#ffffff" xlink:href="#b"/>
</g>
<g clip-path="url(#a)">
<use x="482.439935" y="508.421823" fill="#ffffff" stroke="#ffffff" xlink:href="#b"/>
</g>
<g clip-path="url(#a)">
<use x="530.893399" y="508.421823" fill="#ffffff" stroke="#ffffff" xlink:href="#b"/>
</g>
<g clip-path="url(#a)">
<use x="579.346863" y="508.421823" fill="#ffffff" stroke="#ffffff" xlink:href="#b"/>
</g>
<g clip-path="url(#a)">
<use x="627.800327" y="508.421823" fill="#ffffff" stroke="#ffffff" xlink:href="#b"/>
</g>
<g clip-path="url(#a)">
<use x="676.253791" y="508.421823" fill="#ffffff" stroke="#ffffff" xlink:href="#b"/>
</g>
<g clip-path="url(#a)">
<use x="724.707256" y="508.421823" fill="#ffffff" stroke="#ffffff" xlink:href="#b"/>
</g>
<g clip-path="url(#a)">
<use x="773.16072" y="508.421823" fill="#ffffff" stroke="#ffffff" xlink:href="#b"/>
</g>
<g clip-path="url(#a)">
<use x="821.614184" y="508.421823" fill="#ffffff" stroke="#ffffff" xlink:href="#b"/>
</g>
<g clip-path="url(#a)">
<use x="870.067648" y="508.421823" fill="#ffffff" stroke="#ffffff" xlink:href="#b"/>
</g>
<g clip-path="url(#a)">
<use x="918.521112" y="508.421823" fill="#ffffff" stroke="#ffffff" xlink:href="#b"/>
</g>
<g clip-path="url(#a)">
<use x="966.974577" y="508.421823" fill="#ffffff" stroke="#ffffff" xlink:href="#b"/>
</g>
<g clip-path="url(#a)">
<use x="710.928302" y="24.91151" fill="#ffffff" stroke="#ffffff" xlink:href="#b"/>
</g>
<g clip-path="url(#a)">
<use x="578.387888" y="90.532127" fill="#ffffff" stroke="#ffffff" xlink:href="#b"/>
</g>
<g clip-path="url(#a)">
<use x="845.840916" y="393.963449" fill="#ffffff" stroke="#ffffff" xlink:href="#b"/>
</g>
<g clip-path="url(#a)">
<use x="708.556101" y="393.963449" fill="#ffffff" stroke="#ffffff" xlink:href="#b"/>
</g>
<g clip-path="url(#a)">
<use x="918.521112" y="451.192636" fill="#ffffff" stroke="#ffffff" xlink:href="#b"/>
</g>
<g clip-path="url(#a)">
<use x="821.614184" y="451.192636" fill="#ffffff" stroke="#ffffff" xlink:href="#b"/>
</g>
<g clip-path="url(#a)">
<use x="870.067648" y="451.192636" fill="#ffffff" stroke="#ffffff" xlink:href="#b"/>
</g>
<g clip-path="url(#a)">
<use x="237.295689" y="154.275336" fill="#ffffff" stroke="#ffffff" xlink:href="#b"/>
</g>
<g clip-path="url(#a)">
<use x="773.16072" y="451.192636" fill="#ffffff" stroke="#ffffff" xlink:href="#b"/>
</g>
<g clip-path="url(#a)">
<use x="94.812221" y="393.963449" fill="#ffffff" stroke="#ffffff" xlink:href="#b"/>
</g>
<g clip-path="url(#a)">
<use x="240.172613" y="451.192636" fill="#ffffff" stroke="#ffffff" xlink:href="#b"/>
</g>
<g clip-path="url(#a)">
<use x="371.148384" y="216.305304" fill="#ffffff" stroke="#ffffff" xlink:href="#b"/>
</g>
<g clip-path="url(#a)">
<use x="337.079542" y="451.192636" fill="#ffffff" stroke="#ffffff" xlink:href="#b"/>
</g>
<g clip-path="url(#a)">
<use x="385.533006" y="451.192636" fill="#ffffff" stroke="#ffffff" xlink:href="#b"/>
</g>
<g clip-path="url(#a)">
<use x="521.808374" y="276.795511" fill="#ffffff" stroke="#ffffff" xlink:href="#b"/>
</g>
<g clip-path="url(#a)">
<use x="433.98647" y="451.192636" fill="#ffffff" stroke="#ffffff" xlink:href="#b"/>
</g>
<g clip-path="url(#a)">
<use x="482.439935" y="451.192636" fill="#ffffff" stroke="#ffffff" xlink:href="#b"/>
</g>
<g clip-path="url(#a)">
<use x="530.893399" y="451.192636" fill="#ffffff" stroke="#ffffff" xlink:href="#b"/>
</g>
<g clip-path="url(#a)">
<use x="639.913693" y="335.938141" fill="#ffffff" stroke="#ffffff" xlink:href="#b"/>
</g>
<g clip-path="url(#a)">
<use x="603.573595" y="393.963449" fill="#ffffff" stroke="#ffffff" xlink:href="#b"/>
</g>
<g clip-path="url(#a)">
<use x="676.253791" y="451.192636" fill="#ffffff" stroke="#ffffff" xlink:href="#b"/>
</g>
<g clip-path="url(#a)">
<use x="579.346863" y="451.192636" fill="#ffffff" stroke="#ffffff" xlink:href="#b"/>
</g>
<g clip-path="url(#a)">
<use x="627.800327" y="451.192636" fill="#ffffff" stroke="#ffffff" xlink:href="#b"/>
</g>
<g clip-path="url(#a)">
<use x="46.358757" y="451.192636" fill="#ffffff" stroke="#ffffff" xlink:href="#b"/>
</g>
<g clip-path="url(#a)">
<use x="94.812221" y="451.192636" fill="#ffffff" stroke="#ffffff" xlink:href="#b"/>
</g>
<g clip-path="url(#a)">
<use x="143.265685" y="451.192636" fill="#ffffff" stroke="#ffffff" xlink:href="#b"/>
</g>
<g clip-path="url(#a)">
<use x="710.928302" y="24.91151" fill="#808080" stroke="#808080" xlink:href="#b"/>
</g>
<g clip-path="url(#a)">
<use x="191.719149" y="451.192636" fill="#ffffff" stroke="#ffffff" xlink:href="#b"/>
</g>
<g clip-path="url(#a)">
<use x="288.626078" y="451.192636" fill="#ffffff" stroke="#ffffff" xlink:href="#b"/>
</g>
<g clip-path="url(#a)">
<use x="724.707256" y="451.192636" fill="#ffffff" stroke="#ffffff" xlink:href="#b"/>
</g>
<g clip-path="url(#a)">
<use x="966.974577" y="451.192636" fill="#ffffff" stroke="#ffffff" xlink:href="#b"/>
</g>
<g clip-path="url(#a)">
<g transform="translate(42.938 511.18) scale(.1 -.1)">
<use xlink:href="#q"/>
</g>
</g>
<g clip-path="url(#a)">
<defs>
<path id="af" d="m44.281 53.078v-8.5q-3.7969 1.9531-7.9062 2.9219-4.0938 0.98438-8.5 0.98438-6.6875 0-10.031-2.0469t-3.3438-6.1562q0-3.125 2.3906-4.9062t9.625-3.3906l3.0781-0.6875q9.5625-2.0469 13.594-5.7812t4.0312-10.422q0-7.625-6.0312-12.078-6.0312-4.4375-16.578-4.4375-4.3906 0-9.1562 0.85938t-10.031 2.5625v9.2812q4.9844-2.5938 9.8125-3.8906 4.8281-1.2812 9.5781-1.2812 6.3438 0 9.75 2.1719 3.4219 2.1719 3.4219 6.125 0 3.6562-2.4688 5.6094-2.4531 1.9531-10.812 3.7656l-3.125 0.73438q-8.3438 1.75-12.062 5.3906-3.7031 3.6406-3.7031 9.9844 0 7.7188 5.4688 11.906 5.4688 4.2031 15.531 4.2031 4.9688 0 9.3594-0.73438 4.4062-0.71875 8.1094-2.1875z"/>
<path id="ar" d="m54.891 54.688-19.781-26.609 20.797-28.078h-10.594l-15.922 21.484-15.906-21.484h-10.609l21.25 28.609-19.438 26.078h10.594l14.5-19.484 14.5 19.484z"/>
<path id="r" d="m18.312 70.219v-15.531h18.5v-6.9844h-18.5v-29.688q0-6.6875 1.8281-8.5938t7.4531-1.9062h9.2188v-7.5156h-9.2188q-10.406 0-14.359 3.875-3.9531 3.8906-3.9531 14.141v29.688h-6.5938v6.9844h6.5938v15.531z"/>
<path id="t" d="m54.891 33.016v-33.016h-8.9844v32.719q0 7.7656-3.0312 11.609-3.0312 3.8594-9.0781 3.8594-7.2812 0-11.484-4.6406-4.2031-4.625-4.2031-12.641v-30.906h-9.0312v75.984h9.0312v-29.797q3.2344 4.9375 7.5938 7.375 4.375 2.4375 10.094 2.4375 9.4219 0 14.25-5.8281 4.8438-5.8281 4.8438-17.156z"/>
</defs>
<g transform="translate(82.73 511.18) scale(.1 -.1)">
<use xlink:href="#af"/>
<use x="52.099609" xlink:href="#i"/>
<use x="79.882812" xlink:href="#ar"/>
<use x="139.0625" xlink:href="#r"/>
<use x="178.271484" xlink:href="#t"/>
</g>
</g>
<g clip-path="url(#a)">
<defs>
<path id="y" d="m48.688 27.297q0 9.9062-4.0781 15.547t-11.203 5.6406q-7.1406 0-11.219-5.6406t-4.0781-15.547 4.0781-15.547 11.219-5.6406q7.125 0 11.203 5.6406t4.0781 15.547zm-30.578 19.094q2.8438 4.875 7.1562 7.2344 4.3281 2.375 10.328 2.375 9.9688 0 16.188-7.9062 6.2344-7.9062 6.2344-20.797t-6.2344-20.812q-6.2188-7.9062-16.188-7.9062-6 0-10.328 2.375-4.3125 2.375-7.1562 7.25v-8.2031h-9.0312v75.984h9.0312z"/>
<path id="p" d="m30.609 48.391q-7.2188 0-11.422-5.6406t-4.2031-15.453 4.1719-15.453q4.1875-5.6406 11.453-5.6406 7.1875 0 11.375 5.6562 4.2031 5.6719 4.2031 15.438 0 9.7188-4.2031 15.406-4.1875 5.6875-11.375 5.6875zm0 7.6094q11.719 0 18.406-7.625 6.7031-7.6094 6.7031-21.078 0-13.422-6.7031-21.078-6.6875-7.6406-18.406-7.6406-11.766 0-18.438 7.6406-6.6562 7.6562-6.6562 21.078 0 13.469 6.6562 21.078 6.6719 7.625 18.438 7.625z"/>
</defs>
<g transform="translate(124.72 511.18) scale(.1 -.1)">
<use xlink:href="#y"/>
<use x="63.476562" xlink:href="#e"/>
<use x="104.558594" xlink:href="#p"/>
<use x="165.740234" xlink:href="#r"/>
<use x="204.949219" xlink:href="#t"/>
<use x="268.328125" xlink:href="#g"/>
<use x="329.851562" xlink:href="#e"/>
</g>
</g>
<g clip-path="url(#a)">
<defs>
<path id="ad" d="m11.719 12.406h10.297v-8.4062l-8-15.625h-6.2969l4 15.625z"/>
</defs>
<g transform="translate(190.13 511.18) scale(.1 -.1)">
<use xlink:href="#ad"/>
</g>
</g>
<g clip-path="url(#a)">
<defs>
<path id="ap" d="m19.672 34.812v-26.703h15.828q7.9531 0 11.781 3.2969 3.8438 3.2969 3.8438 10.078 0 6.8438-3.8438 10.078-3.8281 3.25-11.781 3.25zm0 29.984v-21.969h14.609q7.2188 0 10.75 2.7031 3.5469 2.7188 3.5469 8.2812 0 5.5156-3.5469 8.25-3.5312 2.7344-10.75 2.7344zm-9.8594 8.1094h25.203q11.281 0 17.375-4.6875 6.1094-4.6875 6.1094-13.328 0-6.7031-3.125-10.656t-9.1875-4.9219q7.2812-1.5625 11.312-6.5312 4.0312-4.9531 4.0312-12.375 0-9.7656-6.6406-15.094-6.6406-5.3125-18.906-5.3125h-26.172z"/>
<path id="x" d="m45.406 46.391v29.594h8.9844v-75.984h-8.9844v8.2031q-2.8281-4.875-7.1562-7.25-4.3125-2.375-10.375-2.375-9.9062 0-16.141 7.9062-6.2188 7.9219-6.2188 20.812t6.2188 20.797q6.2344 7.9062 16.141 7.9062 6.0625 0 10.375-2.375 4.3281-2.3594 7.1562-7.2344zm-30.609-19.094q0-9.9062 4.0781-15.547t11.203-5.6406 11.219 5.6406q4.1094 5.6406 4.1094 15.547t-4.1094 15.547q-4.0938 5.6406-11.219 5.6406t-11.203-5.6406-4.0781-15.547z"/>
</defs>
<g transform="translate(219.05 511.18) scale(.1 -.1)">
<use xlink:href="#ap"/>
<use x="68.603516" xlink:href="#e"/>
<use x="109.716797" xlink:href="#f"/>
<use x="170.996094" xlink:href="#h"/>
<use x="234.375" xlink:href="#x"/>
<use x="297.851562" xlink:href="#p"/>
<use x="359.033203" xlink:href="#h"/>
</g>
</g>
<g clip-path="url(#a)">
<g transform="translate(287.04 511.18) scale(.1 -.1)">
<use xlink:href="#ad"/>
</g>
</g>
<g clip-path="url(#a)">
<defs>
<path id="ae" d="m4.2031 54.688h8.9844l11.234-42.672 11.172 42.672h10.594l11.234-42.672 11.188 42.672h8.9844l-14.312-54.688h-10.594l-11.766 44.828-11.812-44.828h-10.609z"/>
</defs>
<g transform="translate(326.76 511.18) scale(.1 -.1)">
<use xlink:href="#ae"/>
<use x="81.787109" xlink:href="#t"/>
<use x="145.166016" xlink:href="#p"/>
</g>
</g>
<g clip-path="url(#a)">
<g transform="translate(375.78 511.18) scale(.1 -.1)">
<use xlink:href="#ae"/>
<use x="81.787109" xlink:href="#f"/>
<use x="143.066406" xlink:href="#af"/>
</g>
</g>
<g clip-path="url(#a)">
<g transform="translate(430.92 511.18) scale(.1 -.1)">
<use xlink:href="#f"/>
</g>
</g>
<g clip-path="url(#a)">
<g transform="translate(471.83 511.18) scale(.1 -.1)">
<use xlink:href="#r"/>
<use x="39.208984" xlink:href="#ae"/>
<use x="120.996094" xlink:href="#i"/>
<use x="148.779297" xlink:href="#h"/>
</g>
</g>
<g clip-path="url(#a)">
<defs>
<path id="al" d="m37.109 75.984v-7.4844h-8.5938q-4.8281 0-6.7188-1.9531-1.875-1.9531-1.875-7.0312v-4.8281h14.797v-6.9844h-14.797v-47.703h-9.0312v47.703h-8.5938v6.9844h8.5938v3.8125q0 9.125 4.25 13.297 4.25 4.1875 13.469 4.1875z"/>
</defs>
<g transform="translate(526.07 511.18) scale(.1 -.1)">
<use xlink:href="#p"/>
<use x="61.181641" xlink:href="#al"/>
</g>
</g>
<g clip-path="url(#a)">
<g transform="translate(566.59 511.18) scale(.1 -.1)">
<use xlink:href="#p"/>
<use x="61.181641" xlink:href="#j"/>
<use x="88.964844" xlink:href="#x"/>
<use x="152.441406" xlink:href="#g"/>
<use x="213.964844" xlink:href="#e"/>
</g>
</g>
<g clip-path="url(#a)">
<g transform="translate(609.25 511.18) scale(.1 -.1)">
<use xlink:href="#y"/>
<use x="63.476562" xlink:href="#e"/>
<use x="104.558594" xlink:href="#p"/>
<use x="165.740234" xlink:href="#r"/>
<use x="204.949219" xlink:href="#t"/>
<use x="268.328125" xlink:href="#g"/>
<use x="329.851562" xlink:href="#e"/>
</g>
</g>
<g clip-path="url(#a)">
<defs>
<path id="an" d="m9.8125 72.906h14.703l18.594-49.609 18.703 49.609h14.703v-72.906h-9.625v64.016l-18.797-50h-9.9062l-18.797 50v-64.016h-9.5781z"/>
</defs>
<g transform="translate(659.2 511.18) scale(.1 -.1)">
<use xlink:href="#an"/>
<use x="86.279297" xlink:href="#f"/>
<use x="147.558594" xlink:href="#e"/>
<use x="188.671875" xlink:href="#j"/>
<use x="216.455078" xlink:href="#p"/>
<use x="277.636719" xlink:href="#h"/>
</g>
</g>
<g clip-path="url(#a)">
<g transform="translate(723.12 511.18) scale(.1 -.1)">
<use xlink:href="#ad"/>
</g>
</g>
<g clip-path="url(#a)">
<g transform="translate(762.35 511.18) scale(.1 -.1)">
<use xlink:href="#x"/>
<use x="63.476562" xlink:href="#i"/>
<use x="91.259766" xlink:href="#g"/>
<use x="152.783203" xlink:href="#x"/>
</g>
</g>
<g clip-path="url(#a)">
<defs>
<path id="aq" d="m32.172-5.0781q-3.7969-9.7656-7.4219-12.734-3.6094-2.9844-9.6562-2.9844h-7.1875v7.5156h5.2812q3.7031 0 5.75 1.7656 2.0625 1.75 4.5469 8.2969l1.6094 4.0938-22.109 53.812h9.5156l17.094-42.766 17.094 42.766h9.5156z"/>
</defs>
<g transform="translate(804.42 511.18) scale(.1 -.1)">
<use xlink:href="#af"/>
<use x="52.099609" xlink:href="#t"/>
<use x="115.478516" xlink:href="#p"/>
<use x="176.660156" xlink:href="#e"/>
<use x="217.773438" xlink:href="#r"/>
<use x="256.982422" xlink:href="#j"/>
<use x="284.765625" xlink:href="#aq"/>
</g>
</g>
<g clip-path="url(#a)">
<g transform="translate(858.15 511.18) scale(.1 -.1)">
<use xlink:href="#f"/>
<use x="61.279297" xlink:href="#al"/>
<use x="96.46875" xlink:href="#r"/>
<use x="135.677734" xlink:href="#g"/>
<use x="197.201172" xlink:href="#e"/>
</g>
</g>
<g clip-path="url(#a)">
<g transform="translate(906.77 511.18) scale(.1 -.1)">
<use xlink:href="#y"/>
<use x="63.476562" xlink:href="#i"/>
<use x="91.259766" xlink:href="#e"/>
<use x="132.373047" xlink:href="#r"/>
<use x="171.582031" xlink:href="#t"/>
</g>
</g>
<g clip-path="url(#a)">
<defs>
<path id="d" d="m10.688 12.406h10.312v-12.406h-10.312z"/>
</defs>
<g transform="translate(965.39 511.18) scale(.1 -.1)">
<use xlink:href="#d"/>
</g>
</g>
<g clip-path="url(#a)">
<defs>
<path id="c" d="m12.406 8.2969h16.109v55.625l-17.531-3.5156v8.9844l17.438 3.5156h9.8594v-64.609h16.109v-8.2969h-41.984z"/>
</defs>
<g transform="translate(702.98 27.671) scale(.1 -.1)">
<use xlink:href="#c"/>
<use x="63.623047" xlink:href="#d"/>
<use x="95.410156" xlink:href="#c"/>
</g>
</g>
<g clip-path="url(#a)">
<defs>
<path id="m" d="m19.188 8.2969h34.422v-8.2969h-46.281v8.2969q5.6094 5.8125 15.297 15.594 9.7031 9.7969 12.188 12.641 4.7344 5.3125 6.6094 9 1.8906 3.6875 1.8906 7.25 0 5.8125-4.0781 9.4688-4.0781 3.6719-10.625 3.6719-4.6406 0-9.7969-1.6094-5.1406-1.6094-11-4.8906v9.9688q5.9531 2.3906 11.125 3.6094 5.1875 1.2188 9.4844 1.2188 11.328 0 18.062-5.6719 6.7344-5.6562 6.7344-15.125 0-4.5-1.6875-8.5312-1.6719-4.0156-6.125-9.4844-1.2188-1.4219-7.7656-8.1875-6.5312-6.7656-18.453-18.922z"/>
</defs>
<g transform="translate(570.44 93.292) scale(.1 -.1)">
<use xlink:href="#c"/>
<use x="63.623047" xlink:href="#d"/>
<use x="95.410156" xlink:href="#m"/>
</g>
</g>
<g clip-path="url(#a)">
<defs>
<path id="n" d="m40.578 39.312q7.0781-1.5156 11.047-6.3125 3.9844-4.7812 3.9844-11.812 0-10.781-7.4219-16.703-7.4219-5.9062-21.094-5.9062-4.5781 0-9.4375 0.90625t-10.031 2.7188v9.5156q4.0938-2.3906 8.9688-3.6094 4.8906-1.2188 10.219-1.2188 9.2656 0 14.125 3.6562t4.8594 10.641q0 6.4531-4.5156 10.078-4.5156 3.6406-12.562 3.6406h-8.5v8.1094h8.8906q7.2656 0 11.125 2.9062t3.8594 8.375q0 5.6094-3.9844 8.6094-3.9688 3.0156-11.391 3.0156-4.0625 0-8.7031-0.89062-4.6406-0.875-10.203-2.7188v8.7812q5.625 1.5625 10.531 2.3438t9.25 0.78125q11.234 0 17.766-5.1094 6.5469-5.0938 6.5469-13.781 0-6.0625-3.4688-10.234t-9.8594-5.7812z"/>
</defs>
<g transform="translate(837.89 396.72) scale(.1 -.1)">
<use xlink:href="#c"/>
<use x="63.623047" xlink:href="#d"/>
<use x="95.410156" xlink:href="#n"/>
</g>
</g>
<g clip-path="url(#a)">
<defs>
<path id="w" d="m37.797 64.312-24.906-38.922h24.906zm-2.5938 8.5938h12.406v-47.516h10.406v-8.2031h-10.406v-17.188h-9.8125v17.188h-32.906v9.5156z"/>
</defs>
<g transform="translate(700.6 396.72) scale(.1 -.1)">
<use xlink:href="#c"/>
<use x="63.623047" xlink:href="#d"/>
<use x="95.410156" xlink:href="#w"/>
</g>
</g>
<g clip-path="url(#a)">
<defs>
<path id="aj" d="m33.016 40.375q-6.6406 0-10.531-4.5469-3.875-4.5312-3.875-12.438 0-7.8594 3.875-12.438 3.8906-4.5625 10.531-4.5625t10.516 4.5625q3.875 4.5781 3.875 12.438 0 7.9062-3.875 12.438-3.875 4.5469-10.516 4.5469zm19.578 30.922v-8.9844q-3.7188 1.75-7.5 2.6719-3.7812 0.9375-7.5 0.9375-9.7656 0-14.922-6.5938-5.1406-6.5938-5.875-19.922 2.875 4.25 7.2188 6.5156 4.3594 2.2656 9.5781 2.2656 10.984 0 17.359-6.6719 6.375-6.6562 6.375-18.125 0-11.234-6.6406-18.031-6.6406-6.7812-17.672-6.7812-12.656 0-19.344 9.6875-6.6875 9.7031-6.6875 28.109 0 17.281 8.2031 27.562t22.016 10.281q3.7188 0 7.5-0.73438t7.8906-2.1875z"/>
</defs>
<g transform="translate(910.57 453.95) scale(.1 -.1)">
<use xlink:href="#c"/>
<use x="63.623047" xlink:href="#d"/>
<use x="95.410156" xlink:href="#aj"/>
</g>
</g>
<g clip-path="url(#a)">
<defs>
<path id="ab" d="m8.2031 72.906h46.875v-4.2031l-26.469-68.703h-10.297l24.906 64.594h-35.016z"/>
</defs>
<g transform="translate(813.66 453.95) scale(.1 -.1)">
<use xlink:href="#c"/>
<use x="63.623047" xlink:href="#d"/>
<use x="95.410156" xlink:href="#ab"/>
</g>
</g>
<g clip-path="url(#a)">
<defs>
<path id="aa" d="m31.781 34.625q-7.0312 0-11.062-3.7656-4.0156-3.7656-4.0156-10.344 0-6.5938 4.0156-10.359 4.0312-3.7656 11.062-3.7656t11.078 3.7812q4.0625 3.7969 4.0625 10.344 0 6.5781-4.0312 10.344-4.0156 3.7656-11.109 3.7656zm-9.8594 4.1875q-6.3438 1.5625-9.8906 5.9062-3.5312 4.3594-3.5312 10.609 0 8.7344 6.2188 13.812 6.2344 5.0781 17.062 5.0781 10.891 0 17.094-5.0781t6.2031-13.812q0-6.25-3.5469-10.609-3.5312-4.3438-9.8281-5.9062 7.125-1.6562 11.094-6.5 3.9844-4.8281 3.9844-11.797 0-10.609-6.4688-16.281-6.4688-5.6562-18.531-5.6562-12.047 0-18.531 5.6562-6.4688 5.6719-6.4688 16.281 0 6.9688 4 11.797 4.0156 4.8438 11.141 6.5zm-3.6094 15.578q0-5.6562 3.5312-8.8281 3.5469-3.1719 9.9375-3.1719 6.3594 0 9.9375 3.1719 3.5938 3.1719 3.5938 8.8281 0 5.6719-3.5938 8.8438-3.5781 3.1719-9.9375 3.1719-6.3906 0-9.9375-3.1719-3.5312-3.1719-3.5312-8.8438z"/>
</defs>
<g transform="translate(862.12 453.95) scale(.1 -.1)">
<use xlink:href="#c"/>
<use x="63.623047" xlink:href="#d"/>
<use x="95.410156" xlink:href="#aa"/>
</g>
</g>
<g clip-path="url(#a)">
<defs>
<path id="z" d="m10.984 1.5156v8.9844q3.7188-1.7656 7.5156-2.6875 3.8125-0.92188 7.4844-0.92188 9.7656 0 14.906 6.5625 5.1562 6.5625 5.8906 19.953-2.8281-4.2031-7.1875-6.4531-4.3438-2.25-9.6094-2.25-10.938 0-17.312 6.6094-6.375 6.625-6.375 18.109 0 11.219 6.6406 18 6.6406 6.7969 17.672 6.7969 12.656 0 19.312-9.7031 6.6719-9.6875 6.6719-28.141 0-17.234-8.1875-27.516-8.1719-10.281-21.984-10.281-3.7188 0-7.5312 0.73438-3.7969 0.73438-7.9062 2.2031zm19.625 30.906q6.6406 0 10.516 4.5312 3.8906 4.5469 3.8906 12.469 0 7.8594-3.8906 12.422-3.875 4.5625-10.516 4.5625t-10.516-4.5625-3.875-12.422q0-7.9219 3.875-12.469 3.875-4.5312 10.516-4.5312z"/>
</defs>
<g transform="translate(229.34 157.03) scale(.1 -.1)">
<use xlink:href="#c"/>
<use x="63.623047" xlink:href="#d"/>
<use x="95.410156" xlink:href="#z"/>
</g>
</g>
<g clip-path="url(#a)">
<defs>
<path id="ac" d="m31.781 66.406q-7.6094 0-11.453-7.5-3.8281-7.4844-3.8281-22.531 0-14.984 3.8281-22.484 3.8438-7.5 11.453-7.5 7.6719 0 11.5 7.5 3.8438 7.5 3.8438 22.484 0 15.047-3.8438 22.531-3.8281 7.5-11.5 7.5zm0 7.8125q12.266 0 18.734-9.7031 6.4688-9.6875 6.4688-28.141 0-18.406-6.4688-28.109-6.4688-9.6875-18.734-9.6875-12.25 0-18.719 9.6875-6.4688 9.7031-6.4688 28.109 0 18.453 6.4688 28.141 6.4688 9.7031 18.719 9.7031z"/>
</defs>
<g transform="translate(762.03 453.95) scale(.1 -.1)">
<use xlink:href="#c"/>
<use x="63.623047" xlink:href="#d"/>
<use x="95.410156" xlink:href="#c"/>
<use x="159.033203" xlink:href="#ac"/>
</g>
</g>
<g clip-path="url(#a)">
<g transform="translate(83.679 396.72) scale(.1 -.1)">
<use xlink:href="#c"/>
<use x="63.623047" xlink:href="#d"/>
<use x="95.410156" xlink:href="#c"/>
<use x="159.033203" xlink:href="#m"/>
</g>
</g>
<g clip-path="url(#a)">
<g transform="translate(229.04 453.95) scale(.1 -.1)">
<use xlink:href="#c"/>
<use x="63.623047" xlink:href="#d"/>
<use x="95.410156" xlink:href="#c"/>
<use x="159.033203" xlink:href="#n"/>
</g>
</g>
<g clip-path="url(#a)">
<g transform="translate(360.02 219.06) scale(.1 -.1)">
<use xlink:href="#c"/>
<use x="63.623047" xlink:href="#d"/>
<use x="95.410156" xlink:href="#c"/>
<use x="159.033203" xlink:href="#w"/>
</g>
</g>
<g clip-path="url(#a)">
<g transform="translate(325.95 453.95) scale(.1 -.1)">
<use xlink:href="#c"/>
<use x="63.623047" xlink:href="#d"/>
<use x="95.410156" xlink:href="#c"/>
<use x="159.033203" xlink:href="#ab"/>
</g>
</g>
<g clip-path="url(#a)">
<g transform="translate(374.4 453.95) scale(.1 -.1)">
<use xlink:href="#c"/>
<use x="63.623047" xlink:href="#d"/>
<use x="95.410156" xlink:href="#c"/>
<use x="159.033203" xlink:href="#aa"/>
</g>
</g>
<g clip-path="url(#a)">
<g transform="translate(510.68 279.55) scale(.1 -.1)">
<use xlink:href="#c"/>
<use x="63.623047" xlink:href="#d"/>
<use x="95.410156" xlink:href="#c"/>
<use x="159.033203" xlink:href="#z"/>
</g>
</g>
<g clip-path="url(#a)">
<g transform="translate(422.85 453.95) scale(.1 -.1)">
<use xlink:href="#c"/>
<use x="63.623047" xlink:href="#d"/>
<use x="95.410156" xlink:href="#m"/>
<use x="159.033203" xlink:href="#ac"/>
</g>
</g>
<g clip-path="url(#a)">
<g transform="translate(471.31 453.95) scale(.1 -.1)">
<use xlink:href="#c"/>
<use x="63.623047" xlink:href="#d"/>
<use x="95.410156" xlink:href="#m"/>
<use x="159.033203" xlink:href="#c"/>
</g>
</g>
<g clip-path="url(#a)">
<g transform="translate(519.76 453.95) scale(.1 -.1)">
<use xlink:href="#c"/>
<use x="63.623047" xlink:href="#d"/>
<use x="95.410156" xlink:href="#m"/>
<use x="159.033203" xlink:href="#m"/>
</g>
</g>
<g clip-path="url(#a)">
<g transform="translate(628.78 338.7) scale(.1 -.1)">
<use xlink:href="#c"/>
<use x="63.623047" xlink:href="#d"/>
<use x="95.410156" xlink:href="#m"/>
<use x="159.033203" xlink:href="#n"/>
</g>
</g>
<g clip-path="url(#a)">
<g transform="translate(592.44 396.72) scale(.1 -.1)">
<use xlink:href="#c"/>
<use x="63.623047" xlink:href="#d"/>
<use x="95.410156" xlink:href="#m"/>
<use x="159.033203" xlink:href="#w"/>
</g>
</g>
<g clip-path="url(#a)">
<defs>
<path id="ak" d="m10.797 72.906h38.719v-8.3125h-29.688v-17.859q2.1406 0.73438 4.2812 1.0938 2.1562 0.35938 4.3125 0.35938 12.203 0 19.328-6.6875 7.1406-6.6875 7.1406-18.109 0-11.766-7.3281-18.297-7.3281-6.5156-20.656-6.5156-4.5938 0-9.3594 0.78125-4.75 0.78125-9.8281 2.3438v9.9219q4.3906-2.3906 9.0781-3.5625t9.9062-1.1719q8.4531 0 13.375 4.4375 4.9375 4.4375 4.9375 12.062 0 7.6094-4.9375 12.047-4.9219 4.4531-13.375 4.4531-3.9531 0-7.8906-0.875-3.9219-0.875-8.0156-2.7344z"/>
</defs>
<g transform="translate(665.12 453.95) scale(.1 -.1)">
<use xlink:href="#c"/>
<use x="63.623047" xlink:href="#d"/>
<use x="95.410156" xlink:href="#m"/>
<use x="159.033203" xlink:href="#ak"/>
</g>
</g>
<g clip-path="url(#a)">
<g transform="translate(568.21 453.95) scale(.1 -.1)">
<use xlink:href="#c"/>
<use x="63.623047" xlink:href="#d"/>
<use x="95.410156" xlink:href="#m"/>
<use x="159.033203" xlink:href="#aj"/>
</g>
</g>
<g clip-path="url(#a)">
<g transform="translate(616.67 453.95) scale(.1 -.1)">
<use xlink:href="#c"/>
<use x="63.623047" xlink:href="#d"/>
<use x="95.410156" xlink:href="#m"/>
<use x="159.033203" xlink:href="#ab"/>
</g>
</g>
<g clip-path="url(#a)">
<g transform="translate(35.226 453.95) scale(.1 -.1)">
<use xlink:href="#c"/>
<use x="63.623047" xlink:href="#d"/>
<use x="95.410156" xlink:href="#m"/>
<use x="159.033203" xlink:href="#aa"/>
</g>
</g>
<g clip-path="url(#a)">
<g transform="translate(83.679 453.95) scale(.1 -.1)">
<use xlink:href="#c"/>
<use x="63.623047" xlink:href="#d"/>
<use x="95.410156" xlink:href="#m"/>
<use x="159.033203" xlink:href="#z"/>
</g>
</g>
<g clip-path="url(#a)">
<g transform="translate(132.13 453.95) scale(.1 -.1)">
<use xlink:href="#c"/>
<use x="63.623047" xlink:href="#d"/>
<use x="95.410156" xlink:href="#n"/>
<use x="159.033203" xlink:href="#ac"/>
</g>
</g>
<g clip-path="url(#a)">
<g transform="translate(699.8 27.671) scale(.1 -.1)">
<use xlink:href="#c"/>
<use x="63.623047" xlink:href="#d"/>
<use x="95.410156" xlink:href="#n"/>
<use x="159.033203" xlink:href="#c"/>
</g>
</g>
<g clip-path="url(#a)">
<g transform="translate(180.59 453.95) scale(.1 -.1)">
<use xlink:href="#c"/>
<use x="63.623047" xlink:href="#d"/>
<use x="95.410156" xlink:href="#n"/>
<use x="159.033203" xlink:href="#m"/>
</g>
</g>
<g clip-path="url(#a)">
<g transform="translate(277.49 453.95) scale(.1 -.1)">
<use xlink:href="#c"/>
<use x="63.623047" xlink:href="#d"/>
<use x="95.410156" xlink:href="#n"/>
<use x="159.033203" xlink:href="#n"/>
</g>
</g>
<g clip-path="url(#a)">
<g transform="translate(713.57 453.95) scale(.1 -.1)">
<use xlink:href="#c"/>
<use x="63.623047" xlink:href="#d"/>
<use x="95.410156" xlink:href="#n"/>
<use x="159.033203" xlink:href="#w"/>
</g>
</g>
<g clip-path="url(#a)">
<g transform="translate(955.84 453.95) scale(.1 -.1)">
<use xlink:href="#c"/>
<use x="63.623047" xlink:href="#d"/>
<use x="95.410156" xlink:href="#n"/>
<use x="159.033203" xlink:href="#ak"/>
</g>
</g>
<defs>
<clipPath id="a">
<rect width="1013.3" height="533.33"/>
</clipPath>
</defs>
</svg>
