<?xml version="1.0" encoding="UTF-8"?>
<!DOCTYPE svg  PUBLIC '-//W3C//DTD SVG 1.1//EN'  'http://www.w3.org/Graphics/SVG/1.1/DTD/svg11.dtd'>
<svg width="1064pt" height="560pt" version="1.1" viewBox="0 0 1064 560" xmlns="http://www.w3.org/2000/svg" xmlns:xlink="http://www.w3.org/1999/xlink">
<defs>
<style type="text/css">*{stroke-linecap:butt;stroke-linejoin:round;}</style>
</defs>
<path d="m0 560h1064v-560h-1064z" fill="#fff"/>
<g fill="none" stroke="#000">
<path d="m383.1 26.228-231.74 298.06" clip-path="url(#a)"/>
<path d="m383.1 26.228 52.233 438.04" clip-path="url(#a)"/>
<path d="m383.1 26.228 175.61 77.419" clip-path="url(#a)"/>
<path d="m383.1 26.228 3.8974 438.04" clip-path="url(#a)"/>
<path d="m151.36 324.28-102.71 139.98" clip-path="url(#a)"/>
<path d="m151.36 324.28-54.377 139.98" clip-path="url(#a)"/>
<path d="m151.36 324.28 18.126 70.474" clip-path="url(#a)"/>
<path d="m151.36 324.28 138.96 70.474" clip-path="url(#a)"/>
<path d="m435.33 464.26v69.507" clip-path="url(#a)"/>
<path d="m558.7 103.65-75.039 360.62" clip-path="url(#a)"/>
<path d="m558.7 103.65-26.704 360.62" clip-path="url(#a)"/>
<path d="m558.7 103.65 101.74 75.338" clip-path="url(#a)"/>
<path d="m483.66 464.26v69.507" clip-path="url(#a)"/>
<path d="m532 464.26v69.507" clip-path="url(#a)"/>
<path d="m660.45 178.98-80.111 285.28" clip-path="url(#a)"/>
<path d="m660.45 178.98-31.776 285.28" clip-path="url(#a)"/>
<path d="m660.45 178.98 111.89 73.468" clip-path="url(#a)"/>
<path d="m580.34 464.26v69.507" clip-path="url(#a)"/>
<path d="m628.67 464.26v69.507" clip-path="url(#a)"/>
<path d="m772.33 252.45-83.244 142.3" clip-path="url(#a)"/>
<path d="m772.33 252.45 49.678 211.81" clip-path="url(#a)"/>
<path d="m772.33 252.45 33.566 71.831" clip-path="url(#a)"/>
<path d="m689.09 394.76-108.75 69.507" clip-path="url(#a)" stroke-dasharray="3.7,1.6"/>
<path d="m689.09 394.76-12.084 69.507" clip-path="url(#a)"/>
<path d="m689.09 394.76 36.251 69.507" clip-path="url(#a)"/>
<path d="m689.09 394.76 84.587 69.507" clip-path="url(#a)"/>
<path d="m822.01 464.26v69.507" clip-path="url(#a)"/>
<path d="m805.9 324.28-225.56 139.98" clip-path="url(#a)" stroke-dasharray="3.7,1.6"/>
<path d="m805.9 324.28 64.447 139.98" clip-path="url(#a)"/>
<path d="m805.9 324.28 161.12 70.474" clip-path="url(#a)"/>
<path d="m870.35 464.26v69.507" clip-path="url(#a)"/>
<path d="m967.02 394.76-48.335 69.507" clip-path="url(#a)"/>
<path d="m967.02 394.76v69.507" clip-path="url(#a)"/>
<path d="m967.02 394.76 48.335 69.507" clip-path="url(#a)"/>
<path d="m918.68 464.26v69.507" clip-path="url(#a)"/>
<path d="m967.02 464.26v69.507" clip-path="url(#a)"/>
<path d="m677.01 464.26v69.507" clip-path="url(#a)"/>
<path d="m725.34 464.26v69.507" clip-path="url(#a)"/>
<path d="m773.68 464.26v69.507" clip-path="url(#a)"/>
<path d="m48.647 464.26v69.507" clip-path="url(#a)"/>
<path d="m96.982 464.26v69.507" clip-path="url(#a)"/>
<path d="m169.49 394.76-24.168 69.507" clip-path="url(#a)"/>
<path d="m169.49 394.76 24.168 69.507" clip-path="url(#a)"/>
<path d="m290.32 394.76-48.335 69.507" clip-path="url(#a)"/>
<path d="m290.32 394.76v69.507" clip-path="url(#a)"/>
<path d="m290.32 394.76 48.335 69.507" clip-path="url(#a)"/>
<path d="m241.99 464.26v69.507" clip-path="url(#a)"/>
<path d="m290.32 464.26v69.507" clip-path="url(#a)"/>
<path d="m338.66 464.26v69.507" clip-path="url(#a)"/>
<path d="m145.32 464.26v69.507" clip-path="url(#a)"/>
<path d="m193.65 464.26v69.507" clip-path="url(#a)"/>
<path d="m772.33 252.45-83.244 142.3" clip-path="url(#a)"/>
<path d="m772.33 252.45 49.678 211.81" clip-path="url(#a)"/>
<path d="m772.33 252.45 33.566 71.831" clip-path="url(#a)"/>
<path d="m381.8 26.228-230.44 298.06" clip-path="url(#a)"/>
<path d="m381.8 26.228 53.532 438.04" clip-path="url(#a)"/>
<path d="m381.8 26.228 176.91 77.419" clip-path="url(#a)"/>
<path d="m386.99 464.26v69.507" clip-path="url(#a)"/>
<path d="m1015.4 464.26v69.507" clip-path="url(#a)"/>
</g>
<path d="m270.33 181.48 3.6928-4.7496q1.4731-1.8947-0.42158-3.3678l-6.1124-4.7524q-1.8947-1.4731-3.3678 0.42157l-3.6928 4.7496q-1.4731 1.8947 0.42158 3.3678l6.1124 4.7524q1.8947 1.4731 3.3678-0.42158z" clip-path="url(#a)" fill="#fff" stroke="#fff"/>
<g clip-path="url(#a)">
<defs>
<path id="v" d="m9.8125 72.906h9.8594v-29.891h35.844v29.891h9.8594v-72.906h-9.8594v34.719h-35.844v-34.719h-9.8594z"/>
</defs>
<g transform="translate(267.12 178.99) rotate(-52.135) scale(.08 -.08)">
<use xlink:href="#v"/>
</g>
</g>
<path d="m402.72 243.78 0.52779 4.4261q0.28417 2.3831 2.6673 2.0989l7.688-0.91674q2.3831-0.28417 2.0989-2.6673l-0.52779-4.4261q-0.28417-2.3831-2.6673-2.0989l-7.688 0.91674q-2.3831 0.28417-2.0989 2.6673z" clip-path="url(#a)" fill="#fff" stroke="#fff"/>
<g clip-path="url(#a)">
<defs>
<path id="q" d="m9.8125 72.906h9.8594v-64.609h35.5v-8.2969h-45.359z"/>
</defs>
<g transform="translate(406.76 243.29) rotate(83.2) scale(.08 -.08)">
<use xlink:href="#q"/>
</g>
</g>
<path d="m465.62 69.463 5.505 2.427q2.1961 0.96816 3.1642-1.2279l3.1233-7.0846q0.96816-2.1961-1.2279-3.1642l-5.505-2.427q-2.1961-0.96816-3.1642 1.2279l-3.1233 7.0846q-0.96816 2.1961 1.2279 3.1642z" clip-path="url(#a)" fill="#fff" stroke="#fff"/>
<g clip-path="url(#a)">
<g transform="translate(467.26 65.744) rotate(23.791) scale(.08 -.08)">
<use xlink:href="#v"/>
</g>
</g>
<path d="m378.75 242.37 0.052093 5.8548q0.021353 2.3999 2.4213 2.3786l7.7422-0.068886q2.3999-0.021353 2.3786-2.4213l-0.052092-5.8548q-0.021353-2.3999-2.4213-2.3786l-7.7422 0.068886q-2.3999 0.021353-2.3786 2.4213z" clip-path="url(#a)" fill="#fff" stroke="#fff"/>
<g clip-path="url(#a)">
<defs>
<path id="ah" d="m8.6875 72.906h9.9219v-44.297q0-11.719 4.2344-16.875 4.25-5.1406 13.781-5.1406 9.4688 0 13.719 5.1406 4.25 5.1562 4.25 16.875v44.297h9.9062v-45.516q0-14.25-7.0625-21.531-7.0469-7.2812-20.812-7.2812-13.828 0-20.891 7.2812-7.0469 7.2812-7.0469 21.531z"/>
</defs>
<g transform="translate(382.81 242.34) rotate(89.49) scale(.08 -.08)">
<use xlink:href="#ah"/>
</g>
</g>
<path d="m103.44 400.19 3.2375-4.4122q1.4198-1.935-0.51517-3.3548l-6.2423-4.5804q-1.935-1.4198-3.3548 0.51517l-3.2375 4.4122q-1.4198 1.935 0.51517 3.3548l6.2423 4.5804q1.935 1.4198 3.3548-0.51517z" clip-path="url(#a)" fill="#fff" stroke="#fff"/>
<g clip-path="url(#a)">
<defs>
<path id="n" d="m34.188 63.188-13.391-36.281h26.812zm-5.5781 9.7188h11.188l27.781-72.906h-10.25l-6.6406 18.703h-32.859l-6.6406-18.703h-10.406z"/>
</defs>
<g transform="translate(100.16 397.79) rotate(-53.73) scale(.08 -.08)">
<use xlink:href="#n"/>
</g>
</g>
<path d="m128.9 399.42 2.2305-5.742q0.86904-2.2371-1.3681-3.1062l-7.2171-2.8036q-2.2371-0.86904-3.1062 1.3681l-2.2305 5.742q-0.86904 2.2371 1.3681 3.1062l7.2171 2.8036q2.2371 0.86904 3.1062-1.3681z" clip-path="url(#a)" fill="#fff" stroke="#fff"/>
<g clip-path="url(#a)">
<defs>
<path id="ap" d="m19.672 64.797v-56.688h11.922q15.094 0 22.094 6.8281 7 6.8438 7 21.594 0 14.641-7 21.453t-22.094 6.8125zm-9.8594 8.1094h20.266q21.188 0 31.094-8.8125 9.9219-8.8125 9.9219-27.562 0-18.859-9.9688-27.703-9.9531-8.8281-31.047-8.8281h-20.266z"/>
</defs>
<g transform="translate(125.11 397.94) rotate(-68.771) scale(.08 -.08)">
<use xlink:href="#ap"/>
</g>
</g>
<path d="m153.75 358.75 1.2016 4.6717q0.59782 2.3244 2.9222 1.7265l7.4985-1.9286q2.3244-0.59782 1.7265-2.9222l-1.2016-4.6717q-0.59782-2.3244-2.9222-1.7265l-7.4985 1.9286q-2.3244 0.59782-1.7265 2.9222z" clip-path="url(#a)" fill="#fff" stroke="#fff"/>
<g clip-path="url(#a)">
<defs>
<path id="u" d="m19.672 64.797v-27.391h12.406q6.8906 0 10.641 3.5625 3.7656 3.5625 3.7656 10.156 0 6.5469-3.7656 10.109-3.75 3.5625-10.641 3.5625zm-9.8594 8.1094h22.266q12.266 0 18.531-5.5469 6.2812-5.5469 6.2812-16.234 0-10.797-6.2812-16.312-6.2656-5.5156-18.531-5.5156h-12.406v-29.297h-9.8594z"/>
</defs>
<g transform="translate(157.68 357.73) rotate(75.576) scale(.08 -.08)">
<use xlink:href="#u"/>
</g>
</g>
<path d="m215.56 363.88 4.8807 2.4752q2.1405 1.0855 3.226-1.055l3.5019-6.9053q1.0855-2.1405-1.055-3.226l-4.8807-2.4752q-2.1405-1.0855-3.226 1.055l-3.5019 6.9053q-1.0855 2.1405 1.055 3.226z" clip-path="url(#a)" fill="#fff" stroke="#fff"/>
<g clip-path="url(#a)">
<g transform="translate(217.4 360.25) rotate(26.891) scale(.08 -.08)">
<use xlink:href="#n"/>
</g>
</g>
<path d="m429.06 481.38v35.285q0 2.4 2.4 2.4h7.7425q2.4 0 2.4-2.4v-35.285q0-2.4-2.4-2.4h-7.7425q-2.4 0-2.4 2.4z" clip-path="url(#a)" fill="#fff" stroke="#fff"/>
<g clip-path="url(#a)">
<defs>
<path id="l" d="m-0.29688 72.906h61.672v-8.3125h-25.875v-64.594h-9.9062v64.594h-25.891z"/>
<path id="d" d="m56.203 29.594v-4.3906h-41.312q0.59375-9.2812 5.5938-14.141t13.938-4.8594q5.1719 0 10.031 1.2656t9.6562 3.8125v-8.5q-4.8438-2.0469-9.9219-3.125t-10.297-1.0781q-13.094 0-20.734 7.6094-7.6406 7.625-7.6406 20.625 0 13.422 7.25 21.297 7.25 7.8906 19.562 7.8906 11.031 0 17.453-7.1094 6.4219-7.0938 6.4219-19.297zm-8.9844 2.6406q-0.09375 7.3594-4.125 11.75-4.0312 4.4062-10.672 4.4062-7.5156 0-12.031-4.25t-5.2031-11.969z"/>
<path id="f" d="m41.109 46.297q-1.5156 0.875-3.2969 1.2812-1.7812 0.42188-3.9219 0.42188-7.625 0-11.703-4.9531t-4.0781-14.234v-28.812h-9.0312v54.688h9.0312v-8.5q2.8438 4.9844 7.375 7.3906 4.5469 2.4219 11.047 2.4219 0.92188 0 2.0469-0.125 1.125-0.10938 2.4844-0.35938z"/>
<path id="i" d="m52 44.188q3.375 6.0625 8.0625 8.9375t11.031 2.875q8.5469 0 13.188-5.9844 4.6406-5.9688 4.6406-17v-33.016h-9.0312v32.719q0 7.8594-2.7969 11.656-2.7812 3.8125-8.4844 3.8125-6.9844 0-11.047-4.6406-4.0469-4.625-4.0469-12.641v-30.906h-9.0312v32.719q0 7.9062-2.7812 11.688t-8.5938 3.7812q-6.8906 0-10.953-4.6562-4.0469-4.6562-4.0469-12.625v-30.906h-9.0312v54.688h9.0312v-8.5q3.0781 5.0312 7.375 7.4219t10.203 2.3906q5.9688 0 10.141-3.0312 4.1719-3.0156 6.1719-8.7812z"/>
<path id="j" d="m9.4219 54.688h8.9844v-54.688h-8.9844zm0 21.297h8.9844v-11.391h-8.9844z"/>
<path id="h" d="m54.891 33.016v-33.016h-8.9844v32.719q0 7.7656-3.0312 11.609-3.0312 3.8594-9.0781 3.8594-7.2812 0-11.484-4.6406-4.2031-4.625-4.2031-12.641v-30.906h-9.0312v54.688h9.0312v-8.5q3.2344 4.9375 7.5938 7.375 4.375 2.4375 10.094 2.4375 9.4219 0 14.25-5.8281 4.8438-5.8281 4.8438-17.156z"/>
<path id="g" d="m34.281 27.484q-10.891 0-15.094-2.4844t-4.2031-8.5q0-4.7812 3.1562-7.5938 3.1562-2.7969 8.5625-2.7969 7.4844 0 12 5.2969t4.5156 14.078v2zm17.922 3.7188v-31.203h-8.9844v8.2969q-3.0781-4.9688-7.6719-7.3438t-11.234-2.375q-8.3906 0-13.359 4.7188-4.9531 4.7188-4.9531 12.625 0 9.2188 6.1719 13.906 6.1875 4.6875 18.438 4.6875h12.609v0.89062q0 6.2031-4.0781 9.5938t-11.453 3.3906q-4.6875 0-9.1406-1.125-4.4375-1.125-8.5312-3.375v8.3125q4.9219 1.9062 9.5625 2.8438 4.6406 0.95312 9.0312 0.95312 11.875 0 17.734-6.1562 5.8594-6.1406 5.8594-18.641z"/>
<path id="k" d="m9.4219 75.984h8.9844v-75.984h-8.9844z"/>
</defs>
<g transform="translate(433.12 481.38) rotate(90) scale(.08 -.08)">
<use xlink:href="#l"/>
<use x="60.818359" xlink:href="#d"/>
<use x="122.341797" xlink:href="#f"/>
<use x="163.439453" xlink:href="#i"/>
<use x="260.851562" xlink:href="#j"/>
<use x="288.634766" xlink:href="#h"/>
<use x="352.013672" xlink:href="#g"/>
<use x="413.292969" xlink:href="#k"/>
</g>
</g>
<path d="m526.77 287.91 1.1149-5.3577q0.48893-2.3497-1.8607-2.8386l-7.5801-1.5773q-2.3497-0.48893-2.8386 1.8607l-1.1149 5.3577q-0.48893 2.3497 1.8607 2.8386l7.5801 1.5773q2.3497 0.48893 2.8386-1.8607z" clip-path="url(#a)" fill="#fff" stroke="#fff"/>
<g clip-path="url(#a)">
<g transform="translate(522.79 287.08) rotate(-78.245) scale(.08 -.08)">
<use xlink:href="#n"/>
</g>
</g>
<path d="m551.43 286.82 0.35622-4.8106q0.17724-2.3934-2.2162-2.5707l-7.7214-0.57177q-2.3934-0.17724-2.5707 2.2162l-0.35622 4.8106q-0.17724 2.3934 2.2162 2.5707l7.7214 0.57177q2.3934 0.17724 2.5707-2.2162z" clip-path="url(#a)" fill="#fff" stroke="#fff"/>
<g clip-path="url(#a)">
<g transform="translate(547.38 286.52) rotate(-85.765) scale(.08 -.08)">
<use xlink:href="#u"/>
</g>
</g>
<path d="m603.64 144.73 4.398 3.2566q1.9288 1.4282 3.357-0.50057l4.6075-6.2223q1.4282-1.9288-0.50057-3.357l-4.398-3.2566q-1.9288-1.4282-3.357 0.50057l-4.6075 6.2223q-1.4282 1.9288 0.50057 3.357z" clip-path="url(#a)" fill="#fff" stroke="#fff"/>
<g clip-path="url(#a)">
<g transform="translate(606.06 141.46) rotate(36.519) scale(.08 -.08)">
<use xlink:href="#n"/>
</g>
</g>
<path d="m477.39 481.38v35.285q0 2.4 2.4 2.4h7.7425q2.4 0 2.4-2.4v-35.285q0-2.4-2.4-2.4h-7.7425q-2.4 0-2.4 2.4z" clip-path="url(#a)" fill="#fff" stroke="#fff"/>
<g clip-path="url(#a)">
<g transform="translate(481.46 481.38) rotate(90) scale(.08 -.08)">
<use xlink:href="#l"/>
<use x="60.818359" xlink:href="#d"/>
<use x="122.341797" xlink:href="#f"/>
<use x="163.439453" xlink:href="#i"/>
<use x="260.851562" xlink:href="#j"/>
<use x="288.634766" xlink:href="#h"/>
<use x="352.013672" xlink:href="#g"/>
<use x="413.292969" xlink:href="#k"/>
</g>
</g>
<path d="m525.73 481.38v35.285q0 2.4 2.4 2.4h7.7425q2.4 0 2.4-2.4v-35.285q0-2.4-2.4-2.4h-7.7425q-2.4 0-2.4 2.4z" clip-path="url(#a)" fill="#fff" stroke="#fff"/>
<g clip-path="url(#a)">
<g transform="translate(529.79 481.38) rotate(90) scale(.08 -.08)">
<use xlink:href="#l"/>
<use x="60.818359" xlink:href="#d"/>
<use x="122.341797" xlink:href="#f"/>
<use x="163.439453" xlink:href="#i"/>
<use x="260.851562" xlink:href="#j"/>
<use x="288.634766" xlink:href="#h"/>
<use x="352.013672" xlink:href="#g"/>
<use x="413.292969" xlink:href="#k"/>
</g>
</g>
<path d="m625.75 325.75 1.3667-4.8667q0.64886-2.3106-1.6618-2.9595l-7.4542-2.0933q-2.3106-0.64886-2.9595 1.6618l-1.3667 4.8668q-0.64886 2.3106 1.6618 2.9595l7.4542 2.0933q2.3106 0.64886 2.9595-1.6618z" clip-path="url(#a)" fill="#fff" stroke="#fff"/>
<g clip-path="url(#a)">
<defs>
<path id="w" d="m9.8125 72.906h46.094v-8.3125h-36.234v-21.578h34.719v-8.2969h-34.719v-26.422h37.109v-8.2969h-46.969z"/>
</defs>
<g transform="translate(621.83 324.65) rotate(-74.314) scale(.08 -.08)">
<use xlink:href="#w"/>
</g>
</g>
<path d="m650.48 325.09 0.6184-5.5519q0.26568-2.3852-2.1196-2.6509l-7.6949-0.8571q-2.3852-0.26568-2.6509 2.1196l-0.6184 5.5519q-0.26568 2.3852 2.1196 2.6509l7.6949 0.8571q2.3852 0.26568 2.6509-2.1196z" clip-path="url(#a)" fill="#fff" stroke="#fff"/>
<g clip-path="url(#a)">
<defs>
<path id="x" d="m64.406 67.281v-10.391q-4.9844 4.6406-10.625 6.9219-5.6406 2.2969-11.984 2.2969-12.5 0-19.141-7.6406t-6.6406-22.094q0-14.406 6.6406-22.047t19.141-7.6406q6.3438 0 11.984 2.2969t10.625 6.9375v-10.312q-5.1719-3.5156-10.969-5.2812-5.7812-1.75-12.219-1.75-16.562 0-26.094 10.125-9.5156 10.141-9.5156 27.672 0 17.578 9.5156 27.703 9.5312 10.141 26.094 10.141 6.5312 0 12.312-1.7344 5.7969-1.7344 10.875-5.2031z"/>
</defs>
<g transform="translate(646.44 324.64) rotate(-83.644) scale(.08 -.08)">
<use xlink:href="#x"/>
</g>
</g>
<path d="m710.84 219.57 4.2255 2.7746q2.0062 1.3173 3.3235-0.68888l4.2497-6.472q1.3173-2.0062-0.68888-3.3235l-4.2255-2.7746q-2.0062-1.3173-3.3235 0.68888l-4.2497 6.472q-1.3173 2.0062 0.68888 3.3235z" clip-path="url(#a)" fill="#fff" stroke="#fff"/>
<g clip-path="url(#a)">
<g transform="translate(713.07 216.18) rotate(33.29) scale(.08 -.08)">
<use xlink:href="#w"/>
</g>
</g>
<path d="m574.06 481.38v35.285q0 2.4 2.4 2.4h7.7425q2.4 0 2.4-2.4v-35.285q0-2.4-2.4-2.4h-7.7425q-2.4 0-2.4 2.4z" clip-path="url(#a)" fill="#fff" stroke="#fff"/>
<g clip-path="url(#a)">
<g transform="translate(578.13 481.38) rotate(90) scale(.08 -.08)">
<use xlink:href="#l"/>
<use x="60.818359" xlink:href="#d"/>
<use x="122.341797" xlink:href="#f"/>
<use x="163.439453" xlink:href="#i"/>
<use x="260.851562" xlink:href="#j"/>
<use x="288.634766" xlink:href="#h"/>
<use x="352.013672" xlink:href="#g"/>
<use x="413.292969" xlink:href="#k"/>
</g>
</g>
<path d="m622.4 481.38v35.285q0 2.4 2.4 2.4h7.7425q2.4 0 2.4-2.4v-35.285q0-2.4-2.4-2.4h-7.7425q-2.4 0-2.4 2.4z" clip-path="url(#a)" fill="#fff" stroke="#fff"/>
<g clip-path="url(#a)">
<g transform="translate(626.46 481.38) rotate(90) scale(.08 -.08)">
<use xlink:href="#l"/>
<use x="60.818359" xlink:href="#d"/>
<use x="122.341797" xlink:href="#f"/>
<use x="163.439453" xlink:href="#i"/>
<use x="260.851562" xlink:href="#j"/>
<use x="288.634766" xlink:href="#h"/>
<use x="352.013672" xlink:href="#g"/>
<use x="413.292969" xlink:href="#k"/>
</g>
</g>
<path d="m734.61 329.37 3.0378-5.193q1.2118-2.0716-0.85977-3.2834l-6.683-3.9094q-2.0716-1.2118-3.2834 0.85977l-3.0378 5.193q-1.2118 2.0716 0.85977 3.2834l6.683 3.9094q2.0716 1.2118 3.2834-0.85977z" clip-path="url(#a)" fill="#fff" stroke="#fff"/>
<g clip-path="url(#a)">
<g transform="translate(731.1 327.32) rotate(-59.674) scale(.08 -.08)">
<use xlink:href="#v"/>
</g>
</g>
<path d="m790.56 357.62 1.0178 4.3397q0.54802 2.3366 2.8846 1.7886l7.538-1.7679q2.3366-0.54802 1.7886-2.8846l-1.0178-4.3397q-0.54802-2.3366-2.8846-1.7886l-7.538 1.7679q-2.3366 0.54802-1.7886 2.8846z" clip-path="url(#a)" fill="#fff" stroke="#fff"/>
<g clip-path="url(#a)">
<g transform="translate(794.51 356.69) rotate(76.801) scale(.08 -.08)">
<use xlink:href="#q"/>
</g>
</g>
<path d="m782.16 288.3 2.547 5.4505q1.016 2.1743 3.1904 1.1583l7.0144-3.2778q2.1743-1.016 1.1583-3.1904l-2.547-5.4505q-1.016-2.1743-3.1904-1.1583l-7.0144 3.2778q-2.1743 1.016-1.1583 3.1904z" clip-path="url(#a)" fill="#fff" stroke="#fff"/>
<g clip-path="url(#a)">
<g transform="translate(785.84 286.58) rotate(64.954) scale(.08 -.08)">
<use xlink:href="#v"/>
</g>
</g>
<path d="m635.78 436.27 4.6112-2.9471q2.0223-1.2925 0.7298-3.3147l-4.1695-6.5239q-1.2925-2.0223-3.3147-0.7298l-4.6112 2.9471q-2.0223 1.2925-0.7298 3.3147l4.1695 6.5239q1.2925 2.0223 3.3147 0.7298z" clip-path="url(#a)" fill="#fff" stroke="#fff"/>
<g clip-path="url(#a)">
<g transform="translate(633.6 432.84) rotate(-32.583) scale(.08 -.08)">
<use xlink:href="#n"/>
</g>
</g>
<path d="m688.75 433.32 0.95211-5.4766q0.41108-2.3645-1.9535-2.7756l-7.6281-1.3261q-2.3645-0.41108-2.7756 1.9535l-0.95211 5.4766q-0.41108 2.3645 1.9535 2.7756l7.6281 1.3261q2.3645 0.41108 2.7756-1.9535z" clip-path="url(#a)" fill="#fff" stroke="#fff"/>
<g clip-path="url(#a)">
<defs>
<path id="t" d="m44.391 34.188q3.1719-1.0781 6.1719-4.5938t6.0312-9.6719l10.016-19.922h-10.609l-9.3125 18.703q-3.625 7.3281-7.0156 9.7188t-9.25 2.3906h-10.75v-30.812h-9.8594v72.906h22.266q12.5 0 18.656-5.2344 6.1562-5.2188 6.1562-15.766 0-6.8906-3.2031-11.438-3.2031-4.5312-9.2969-6.2812zm-24.719 30.609v-25.875h12.406q7.125 0 10.766 3.2969t3.6406 9.6875-3.6406 9.6406-10.766 3.25z"/>
</defs>
<g transform="translate(684.75 432.63) rotate(-80.138) scale(.08 -.08)">
<use xlink:href="#t"/>
</g>
</g>
<path d="m700.54 430.27 2.2307 4.277q1.1098 2.128 3.2378 1.0181l6.8649-3.5804q2.128-1.1098 1.0181-3.2378l-2.2307-4.277q-1.1098-2.128-3.2378-1.0181l-6.8649 3.5804q-2.128 1.1098-1.0181 3.2378z" clip-path="url(#a)" fill="#fff" stroke="#fff"/>
<g clip-path="url(#a)">
<g transform="translate(704.14 428.39) rotate(62.456) scale(.08 -.08)">
<use xlink:href="#u"/>
</g>
</g>
<path d="m725.29 432.62 4.2281 3.4744q1.8543 1.5237 3.378-0.33057l4.9155-5.982q1.5237-1.8543-0.33057-3.378l-4.2281-3.4744q-1.8543-1.5237-3.378 0.33057l-4.9155 5.982q-1.5237 1.8543 0.33057 3.378z" clip-path="url(#a)" fill="#fff" stroke="#fff"/>
<g clip-path="url(#a)">
<g transform="translate(727.87 429.48) rotate(39.411) scale(.08 -.08)">
<use xlink:href="#n"/>
</g>
</g>
<path d="m815.74 481.38v35.285q0 2.4 2.4 2.4h7.7425q2.4 0 2.4-2.4v-35.285q0-2.4-2.4-2.4h-7.7425q-2.4 0-2.4 2.4z" clip-path="url(#a)" fill="#fff" stroke="#fff"/>
<g clip-path="url(#a)">
<g transform="translate(819.8 481.38) rotate(90) scale(.08 -.08)">
<use xlink:href="#l"/>
<use x="60.818359" xlink:href="#d"/>
<use x="122.341797" xlink:href="#f"/>
<use x="163.439453" xlink:href="#i"/>
<use x="260.851562" xlink:href="#j"/>
<use x="288.634766" xlink:href="#h"/>
<use x="352.013672" xlink:href="#g"/>
<use x="413.292969" xlink:href="#k"/>
</g>
</g>
<path d="m694.1 401.05 4.6499-2.8856q2.0392-1.2655 0.77373-3.3047l-4.0826-6.5787q-1.2655-2.0392-3.3047-0.77373l-4.6499 2.8856q-2.0392 1.2655-0.77373 3.3047l4.0826 6.5787q1.2655 2.0392 3.3047 0.77373z" clip-path="url(#a)" fill="#fff" stroke="#fff"/>
<g clip-path="url(#a)">
<g transform="translate(691.96 397.59) rotate(-31.823) scale(.08 -.08)">
<use xlink:href="#n"/>
</g>
</g>
<path d="m831.42 394.71 2.0173 4.3817q1.0037 2.18 3.1837 1.1764l7.0329-3.2379q2.18-1.0037 1.1764-3.1837l-2.0173-4.3817q-1.0037-2.18-3.1837-1.1764l-7.0329 3.2379q-2.18 1.0037-1.1764 3.1837z" clip-path="url(#a)" fill="#fff" stroke="#fff"/>
<g clip-path="url(#a)">
<g transform="translate(835.11 393.01) rotate(65.279) scale(.08 -.08)">
<use xlink:href="#u"/>
</g>
</g>
<path d="m881.44 364.17 5.0138 2.1931q2.1989 0.96179 3.1606-1.2371l3.1028-7.0936q0.96179-2.1989-1.2371-3.1606l-5.0138-2.1931q-2.1989-0.96179-3.1606 1.2371l-3.1028 7.0936q-0.96179 2.1989 1.2371 3.1606z" clip-path="url(#a)" fill="#fff" stroke="#fff"/>
<g clip-path="url(#a)">
<g transform="translate(883.07 360.45) rotate(23.625) scale(.08 -.08)">
<use xlink:href="#n"/>
</g>
</g>
<path d="m864.08 481.38v35.285q0 2.4 2.4 2.4h7.7425q2.4 0 2.4-2.4v-35.285q0-2.4-2.4-2.4h-7.7425q-2.4 0-2.4 2.4z" clip-path="url(#a)" fill="#fff" stroke="#fff"/>
<g clip-path="url(#a)">
<g transform="translate(868.14 481.38) rotate(90) scale(.08 -.08)">
<use xlink:href="#l"/>
<use x="60.818359" xlink:href="#d"/>
<use x="122.341797" xlink:href="#f"/>
<use x="163.439453" xlink:href="#i"/>
<use x="260.851562" xlink:href="#j"/>
<use x="288.634766" xlink:href="#h"/>
<use x="352.013672" xlink:href="#g"/>
<use x="413.292969" xlink:href="#k"/>
</g>
</g>
<path d="m946.4 435.38 3.1893-4.5863q1.3702-1.9704-0.60018-3.3406l-6.3566-4.4204q-1.9704-1.3702-3.3406 0.60018l-3.1893 4.5863q-1.3702 1.9704 0.60018 3.3406l6.3566 4.4204q1.9704 1.3702 3.3406-0.60018z" clip-path="url(#a)" fill="#fff" stroke="#fff"/>
<g clip-path="url(#a)">
<g transform="translate(943.07 433.06) rotate(-55.185) scale(.08 -.08)">
<use xlink:href="#x"/>
</g>
</g>
<path d="m960.75 426.98v5.055q0 2.4 2.4 2.4h7.7425q2.4 0 2.4-2.4v-5.055q0-2.4-2.4-2.4h-7.7425q-2.4 0-2.4 2.4z" clip-path="url(#a)" fill="#fff" stroke="#fff"/>
<g clip-path="url(#a)">
<g transform="translate(964.81 426.98) rotate(90) scale(.08 -.08)">
<use xlink:href="#w"/>
</g>
</g>
<path d="m984.37 430.69 3.3428 4.807q1.3702 1.9704 3.3406 0.60018l6.3566-4.4204q1.9704-1.3702 0.60018-3.3406l-3.3428-4.807q-1.3702-1.9704-3.3406-0.60018l-6.3566 4.4204q-1.9704 1.3702-0.60018 3.3406z" clip-path="url(#a)" fill="#fff" stroke="#fff"/>
<g clip-path="url(#a)">
<g transform="translate(987.7 428.37) rotate(55.185) scale(.08 -.08)">
<use xlink:href="#ah"/>
</g>
</g>
<path d="m912.41 481.38v35.285q0 2.4 2.4 2.4h7.7425q2.4 0 2.4-2.4v-35.285q0-2.4-2.4-2.4h-7.7425q-2.4 0-2.4 2.4z" clip-path="url(#a)" fill="#fff" stroke="#fff"/>
<g clip-path="url(#a)">
<g transform="translate(916.47 481.38) rotate(90) scale(.08 -.08)">
<use xlink:href="#l"/>
<use x="60.818359" xlink:href="#d"/>
<use x="122.341797" xlink:href="#f"/>
<use x="163.439453" xlink:href="#i"/>
<use x="260.851562" xlink:href="#j"/>
<use x="288.634766" xlink:href="#h"/>
<use x="352.013672" xlink:href="#g"/>
<use x="413.292969" xlink:href="#k"/>
</g>
</g>
<path d="m960.75 481.38v35.285q0 2.4 2.4 2.4h7.7425q2.4 0 2.4-2.4v-35.285q0-2.4-2.4-2.4h-7.7425q-2.4 0-2.4 2.4z" clip-path="url(#a)" fill="#fff" stroke="#fff"/>
<g clip-path="url(#a)">
<g transform="translate(964.81 481.38) rotate(90) scale(.08 -.08)">
<use xlink:href="#l"/>
<use x="60.818359" xlink:href="#d"/>
<use x="122.341797" xlink:href="#f"/>
<use x="163.439453" xlink:href="#i"/>
<use x="260.851562" xlink:href="#j"/>
<use x="288.634766" xlink:href="#h"/>
<use x="352.013672" xlink:href="#g"/>
<use x="413.292969" xlink:href="#k"/>
</g>
</g>
<path d="m670.73 481.38v35.285q0 2.4 2.4 2.4h7.7425q2.4 0 2.4-2.4v-35.285q0-2.4-2.4-2.4h-7.7425q-2.4 0-2.4 2.4z" clip-path="url(#a)" fill="#fff" stroke="#fff"/>
<g clip-path="url(#a)">
<g transform="translate(674.8 481.38) rotate(90) scale(.08 -.08)">
<use xlink:href="#l"/>
<use x="60.818359" xlink:href="#d"/>
<use x="122.341797" xlink:href="#f"/>
<use x="163.439453" xlink:href="#i"/>
<use x="260.851562" xlink:href="#j"/>
<use x="288.634766" xlink:href="#h"/>
<use x="352.013672" xlink:href="#g"/>
<use x="413.292969" xlink:href="#k"/>
</g>
</g>
<path d="m719.07 481.38v35.285q0 2.4 2.4 2.4h7.7425q2.4 0 2.4-2.4v-35.285q0-2.4-2.4-2.4h-7.7425q-2.4 0-2.4 2.4z" clip-path="url(#a)" fill="#fff" stroke="#fff"/>
<g clip-path="url(#a)">
<g transform="translate(723.13 481.38) rotate(90) scale(.08 -.08)">
<use xlink:href="#l"/>
<use x="60.818359" xlink:href="#d"/>
<use x="122.341797" xlink:href="#f"/>
<use x="163.439453" xlink:href="#i"/>
<use x="260.851562" xlink:href="#j"/>
<use x="288.634766" xlink:href="#h"/>
<use x="352.013672" xlink:href="#g"/>
<use x="413.292969" xlink:href="#k"/>
</g>
</g>
<path d="m767.41 481.38v35.285q0 2.4 2.4 2.4h7.7425q2.4 0 2.4-2.4v-35.285q0-2.4-2.4-2.4h-7.7425q-2.4 0-2.4 2.4z" clip-path="url(#a)" fill="#fff" stroke="#fff"/>
<g clip-path="url(#a)">
<g transform="translate(771.47 481.38) rotate(90) scale(.08 -.08)">
<use xlink:href="#l"/>
<use x="60.818359" xlink:href="#d"/>
<use x="122.341797" xlink:href="#f"/>
<use x="163.439453" xlink:href="#i"/>
<use x="260.851562" xlink:href="#j"/>
<use x="288.634766" xlink:href="#h"/>
<use x="352.013672" xlink:href="#g"/>
<use x="413.292969" xlink:href="#k"/>
</g>
</g>
<path d="m42.376 481.38v35.285q0 2.4 2.4 2.4h7.7425q2.4 0 2.4-2.4v-35.285q0-2.4-2.4-2.4h-7.7425q-2.4 0-2.4 2.4z" clip-path="url(#a)" fill="#fff" stroke="#fff"/>
<g clip-path="url(#a)">
<g transform="translate(46.439 481.38) rotate(90) scale(.08 -.08)">
<use xlink:href="#l"/>
<use x="60.818359" xlink:href="#d"/>
<use x="122.341797" xlink:href="#f"/>
<use x="163.439453" xlink:href="#i"/>
<use x="260.851562" xlink:href="#j"/>
<use x="288.634766" xlink:href="#h"/>
<use x="352.013672" xlink:href="#g"/>
<use x="413.292969" xlink:href="#k"/>
</g>
</g>
<path d="m90.711 481.38v35.285q0 2.4 2.4 2.4h7.7425q2.4 0 2.4-2.4v-35.285q0-2.4-2.4-2.4h-7.7425q-2.4 0-2.4 2.4z" clip-path="url(#a)" fill="#fff" stroke="#fff"/>
<g clip-path="url(#a)">
<g transform="translate(94.775 481.38) rotate(90) scale(.08 -.08)">
<use xlink:href="#l"/>
<use x="60.818359" xlink:href="#d"/>
<use x="122.341797" xlink:href="#f"/>
<use x="163.439453" xlink:href="#i"/>
<use x="260.851562" xlink:href="#j"/>
<use x="288.634766" xlink:href="#h"/>
<use x="352.013672" xlink:href="#g"/>
<use x="413.292969" xlink:href="#k"/>
</g>
</g>
<path d="m162.57 433.74 1.5111-4.346q0.7882-2.2669-1.4787-3.0551l-7.3131-2.5428q-2.2669-0.7882-3.0551 1.4787l-1.5111 4.346q-0.7882 2.2669 1.4787 3.0551l7.313 2.5428q2.2669 0.7882 3.0551-1.4787z" clip-path="url(#a)" fill="#fff" stroke="#fff"/>
<g clip-path="url(#a)">
<defs>
<path id="ao" d="m9.8125 72.906h41.891v-8.3125h-32.031v-21.484h28.906v-8.2969h-28.906v-34.812h-9.8594z"/>
</defs>
<g transform="translate(158.73 432.41) rotate(-70.827) scale(.08 -.08)">
<use xlink:href="#ao"/>
</g>
</g>
<path d="m174.73 428.93 1.8346 5.2764q0.7882 2.2669 3.0551 1.4787l7.3131-2.5428q2.2669-0.7882 1.4787-3.0551l-1.8346-5.2764q-0.7882-2.2669-3.0551-1.4787l-7.3131 2.5428q-2.2669 0.7882-1.4787 3.0551z" clip-path="url(#a)" fill="#fff" stroke="#fff"/>
<g clip-path="url(#a)">
<g transform="translate(178.57 427.6) rotate(70.827) scale(.08 -.08)">
<use xlink:href="#x"/>
</g>
</g>
<path d="m269.72 435.37 3.1736-4.5637q1.3702-1.9704-0.60018-3.3406l-6.3566-4.4204q-1.9704-1.3702-3.3406 0.60018l-3.1736 4.5637q-1.3702 1.9704 0.60018 3.3406l6.3566 4.4204q1.9704 1.3702 3.3406-0.60018z" clip-path="url(#a)" fill="#fff" stroke="#fff"/>
<g clip-path="url(#a)">
<g transform="translate(266.38 433.05) rotate(-55.185) scale(.08 -.08)">
<use xlink:href="#t"/>
</g>
</g>
<path d="m284.05 426.98v5.055q0 2.4 2.4 2.4h7.7425q2.4 0 2.4-2.4v-5.055q0-2.4-2.4-2.4h-7.7425q-2.4 0-2.4 2.4z" clip-path="url(#a)" fill="#fff" stroke="#fff"/>
<g clip-path="url(#a)">
<g transform="translate(288.12 426.98) rotate(90) scale(.08 -.08)">
<use xlink:href="#w"/>
</g>
</g>
<path d="m307.75 430.8 3.1893 4.5863q1.3702 1.9704 3.3406 0.60018l6.3566-4.4204q1.9704-1.3702 0.60018-3.3406l-3.1893-4.5863q-1.3702-1.9704-3.3406-0.60018l-6.3566 4.4204q-1.9704 1.3702-0.60018 3.3406z" clip-path="url(#a)" fill="#fff" stroke="#fff"/>
<g clip-path="url(#a)">
<g transform="translate(311.08 428.48) rotate(55.185) scale(.08 -.08)">
<use xlink:href="#x"/>
</g>
</g>
<path d="m235.72 481.38v35.285q0 2.4 2.4 2.4h7.7425q2.4 0 2.4-2.4v-35.285q0-2.4-2.4-2.4h-7.7425q-2.4 0-2.4 2.4z" clip-path="url(#a)" fill="#fff" stroke="#fff"/>
<g clip-path="url(#a)">
<g transform="translate(239.78 481.38) rotate(90) scale(.08 -.08)">
<use xlink:href="#l"/>
<use x="60.818359" xlink:href="#d"/>
<use x="122.341797" xlink:href="#f"/>
<use x="163.439453" xlink:href="#i"/>
<use x="260.851562" xlink:href="#j"/>
<use x="288.634766" xlink:href="#h"/>
<use x="352.013672" xlink:href="#g"/>
<use x="413.292969" xlink:href="#k"/>
</g>
</g>
<path d="m284.05 481.38v35.285q0 2.4 2.4 2.4h7.7425q2.4 0 2.4-2.4v-35.285q0-2.4-2.4-2.4h-7.7425q-2.4 0-2.4 2.4z" clip-path="url(#a)" fill="#fff" stroke="#fff"/>
<g clip-path="url(#a)">
<g transform="translate(288.12 481.38) rotate(90) scale(.08 -.08)">
<use xlink:href="#l"/>
<use x="60.818359" xlink:href="#d"/>
<use x="122.341797" xlink:href="#f"/>
<use x="163.439453" xlink:href="#i"/>
<use x="260.851562" xlink:href="#j"/>
<use x="288.634766" xlink:href="#h"/>
<use x="352.013672" xlink:href="#g"/>
<use x="413.292969" xlink:href="#k"/>
</g>
</g>
<path d="m332.39 481.38v35.285q0 2.4 2.4 2.4h7.7425q2.4 0 2.4-2.4v-35.285q0-2.4-2.4-2.4h-7.7425q-2.4 0-2.4 2.4z" clip-path="url(#a)" fill="#fff" stroke="#fff"/>
<g clip-path="url(#a)">
<g transform="translate(336.45 481.38) rotate(90) scale(.08 -.08)">
<use xlink:href="#l"/>
<use x="60.818359" xlink:href="#d"/>
<use x="122.341797" xlink:href="#f"/>
<use x="163.439453" xlink:href="#i"/>
<use x="260.851562" xlink:href="#j"/>
<use x="288.634766" xlink:href="#h"/>
<use x="352.013672" xlink:href="#g"/>
<use x="413.292969" xlink:href="#k"/>
</g>
</g>
<path d="m139.05 481.38v35.285q0 2.4 2.4 2.4h7.7425q2.4 0 2.4-2.4v-35.285q0-2.4-2.4-2.4h-7.7425q-2.4 0-2.4 2.4z" clip-path="url(#a)" fill="#fff" stroke="#fff"/>
<g clip-path="url(#a)">
<g transform="translate(143.11 481.38) rotate(90) scale(.08 -.08)">
<use xlink:href="#l"/>
<use x="60.818359" xlink:href="#d"/>
<use x="122.341797" xlink:href="#f"/>
<use x="163.439453" xlink:href="#i"/>
<use x="260.851562" xlink:href="#j"/>
<use x="288.634766" xlink:href="#h"/>
<use x="352.013672" xlink:href="#g"/>
<use x="413.292969" xlink:href="#k"/>
</g>
</g>
<path d="m187.38 481.38v35.285q0 2.4 2.4 2.4h7.7425q2.4 0 2.4-2.4v-35.285q0-2.4-2.4-2.4h-7.7425q-2.4 0-2.4 2.4z" clip-path="url(#a)" fill="#fff" stroke="#fff"/>
<g clip-path="url(#a)">
<g transform="translate(191.45 481.38) rotate(90) scale(.08 -.08)">
<use xlink:href="#l"/>
<use x="60.818359" xlink:href="#d"/>
<use x="122.341797" xlink:href="#f"/>
<use x="163.439453" xlink:href="#i"/>
<use x="260.851562" xlink:href="#j"/>
<use x="288.634766" xlink:href="#h"/>
<use x="352.013672" xlink:href="#g"/>
<use x="413.292969" xlink:href="#k"/>
</g>
</g>
<path d="m733.62 331.06 5.0152-8.5734q1.2118-2.0716-0.85977-3.2834l-6.683-3.9094q-2.0716-1.2118-3.2834 0.85977l-5.0152 8.5734q-1.2118 2.0716 0.85977 3.2834l6.683 3.9094q2.0716 1.2118 3.2834-0.85977z" clip-path="url(#a)" fill="#fff" stroke="#fff"/>
<g clip-path="url(#a)">
<g transform="translate(730.11 329.01) rotate(-59.674) scale(.08 -.08)">
<use xlink:href="#q"/>
<use x="55.744141" xlink:href="#n"/>
</g>
</g>
<path d="m789.92 354.91 2.2871 9.7516q0.54802 2.3366 2.8846 1.7886l7.538-1.7679q2.3366-0.54802 1.7886-2.8846l-2.2871-9.7516q-0.54802-2.3366-2.8846-1.7886l-7.538 1.7679q-2.3366 0.54802-1.7886 2.8846z" clip-path="url(#a)" fill="#fff" stroke="#fff"/>
<g clip-path="url(#a)">
<g transform="translate(793.88 353.99) rotate(76.801) scale(.08 -.08)">
<use xlink:href="#q"/>
<use x="55.712891" xlink:href="#t"/>
</g>
</g>
<path d="m781.33 286.52 4.2049 8.9985q1.016 2.1743 3.1904 1.1583l7.0144-3.2778q2.1743-1.016 1.1583-3.1904l-4.2049-8.9985q-1.016-2.1743-3.1904-1.1583l-7.0144 3.2778q-2.1743 1.016-1.1583 3.1904z" clip-path="url(#a)" fill="#fff" stroke="#fff"/>
<g clip-path="url(#a)">
<g transform="translate(785.01 284.8) rotate(64.954) scale(.08 -.08)">
<use xlink:href="#q"/>
<use x="55.744141" xlink:href="#n"/>
</g>
</g>
<path d="m268.5 183.02 6.0752-7.8579q1.468-1.8987-0.43074-3.3667l-6.1253-4.7357q-1.8987-1.468-3.3667 0.43074l-6.0752 7.8579q-1.468 1.8987 0.43074 3.3667l6.1253 4.7357q1.8987 1.468 3.3667-0.43074z" clip-path="url(#a)" fill="#fff" stroke="#fff"/>
<g clip-path="url(#a)">
<g transform="translate(265.29 180.54) rotate(-52.291) scale(.08 -.08)">
<use xlink:href="#q"/>
<use x="55.744141" xlink:href="#n"/>
</g>
</g>
<path d="m401.73 241.04 1.215 9.9423q0.29114 2.3823 2.6734 2.0911l7.6853-0.93921q2.3823-0.29114 2.0911-2.6734l-1.215-9.9423q-0.29114-2.3823-2.6734-2.0911l-7.6853 0.93921q-2.3823 0.29114-2.0911 2.6734z" clip-path="url(#a)" fill="#fff" stroke="#fff"/>
<g clip-path="url(#a)">
<g transform="translate(405.76 240.54) rotate(83.033) scale(.08 -.08)">
<use xlink:href="#q"/>
<use x="55.712891" xlink:href="#t"/>
</g>
</g>
<path d="m463.19 68.692 9.0993 3.9821q2.1987 0.9622 3.1609-1.2365l3.1041-7.093q0.9622-2.1987-1.2365-3.1609l-9.0993-3.9821q-2.1987-0.9622-3.1609 1.2365l-3.1041 7.093q-0.9622 2.1987 1.2365 3.1609z" clip-path="url(#a)" fill="#fff" stroke="#fff"/>
<g clip-path="url(#a)">
<g transform="translate(464.82 64.969) rotate(23.635) scale(.08 -.08)">
<use xlink:href="#q"/>
<use x="55.744141" xlink:href="#n"/>
</g>
</g>
<path d="m380.72 481.38v35.285q0 2.4 2.4 2.4h7.7425q2.4 0 2.4-2.4v-35.285q0-2.4-2.4-2.4h-7.7425q-2.4 0-2.4 2.4z" clip-path="url(#a)" fill="#fff" stroke="#fff"/>
<g clip-path="url(#a)">
<g transform="translate(384.79 481.38) rotate(90) scale(.08 -.08)">
<use xlink:href="#l"/>
<use x="60.818359" xlink:href="#d"/>
<use x="122.341797" xlink:href="#f"/>
<use x="163.439453" xlink:href="#i"/>
<use x="260.851562" xlink:href="#j"/>
<use x="288.634766" xlink:href="#h"/>
<use x="352.013672" xlink:href="#g"/>
<use x="413.292969" xlink:href="#k"/>
</g>
</g>
<path d="m1009.1 481.38v35.285q0 2.4 2.4 2.4h7.7425q2.4 0 2.4-2.4v-35.285q0-2.4-2.4-2.4h-7.7425q-2.4 0-2.4 2.4z" clip-path="url(#a)" fill="#fff" stroke="#fff"/>
<g clip-path="url(#a)">
<g transform="translate(1013.1 481.38) rotate(90) scale(.08 -.08)">
<use xlink:href="#l"/>
<use x="60.818359" xlink:href="#d"/>
<use x="122.341797" xlink:href="#f"/>
<use x="163.439453" xlink:href="#i"/>
<use x="260.851562" xlink:href="#j"/>
<use x="288.634766" xlink:href="#h"/>
<use x="352.013672" xlink:href="#g"/>
<use x="413.292969" xlink:href="#k"/>
</g>
</g>
<defs>
<path id="b" d="m0 8.6603c2.2967 0 4.4997-0.9125 6.1237-2.5365 1.624-1.624 2.5365-3.827 2.5365-6.1237s-0.9125-4.4997-2.5365-6.1237c-1.624-1.624-3.827-2.5365-6.1237-2.5365s-4.4997 0.9125-6.1237 2.5365c-1.624 1.624-2.5365 3.827-2.5365 6.1237s0.9125 4.4997 2.5365 6.1237c1.624 1.624 3.827 2.5365 6.1237 2.5365z"/>
</defs>
<g clip-path="url(#a)">
<use x="48.646897" y="533.771521" fill="#ffffff" stroke="#ffffff" xlink:href="#b"/>
</g>
<g clip-path="url(#a)">
<use x="96.982207" y="533.771521" fill="#ffffff" stroke="#ffffff" xlink:href="#b"/>
</g>
<g clip-path="url(#a)">
<use x="145.317517" y="533.771521" fill="#ffffff" stroke="#ffffff" xlink:href="#b"/>
</g>
<g clip-path="url(#a)">
<use x="193.652828" y="533.771521" fill="#ffffff" stroke="#ffffff" xlink:href="#b"/>
</g>
<g clip-path="url(#a)">
<use x="241.988138" y="533.771521" fill="#ffffff" stroke="#ffffff" xlink:href="#b"/>
</g>
<g clip-path="url(#a)">
<use x="290.323448" y="533.771521" fill="#ffffff" stroke="#ffffff" xlink:href="#b"/>
</g>
<g clip-path="url(#a)">
<use x="338.658759" y="533.771521" fill="#ffffff" stroke="#ffffff" xlink:href="#b"/>
</g>
<g clip-path="url(#a)">
<use x="386.994069" y="533.771521" fill="#ffffff" stroke="#ffffff" xlink:href="#b"/>
</g>
<g clip-path="url(#a)">
<use x="435.329379" y="533.771521" fill="#ffffff" stroke="#ffffff" xlink:href="#b"/>
</g>
<g clip-path="url(#a)">
<use x="483.66469" y="533.771521" fill="#ffffff" stroke="#ffffff" xlink:href="#b"/>
</g>
<g clip-path="url(#a)">
<use x="532" y="533.771521" fill="#ffffff" stroke="#ffffff" xlink:href="#b"/>
</g>
<g clip-path="url(#a)">
<use x="580.33531" y="533.771521" fill="#ffffff" stroke="#ffffff" xlink:href="#b"/>
</g>
<g clip-path="url(#a)">
<use x="628.670621" y="533.771521" fill="#ffffff" stroke="#ffffff" xlink:href="#b"/>
</g>
<g clip-path="url(#a)">
<use x="677.005931" y="533.771521" fill="#ffffff" stroke="#ffffff" xlink:href="#b"/>
</g>
<g clip-path="url(#a)">
<use x="725.341241" y="533.771521" fill="#ffffff" stroke="#ffffff" xlink:href="#b"/>
</g>
<g clip-path="url(#a)">
<use x="773.676552" y="533.771521" fill="#ffffff" stroke="#ffffff" xlink:href="#b"/>
</g>
<g clip-path="url(#a)">
<use x="822.011862" y="533.771521" fill="#ffffff" stroke="#ffffff" xlink:href="#b"/>
</g>
<g clip-path="url(#a)">
<use x="870.347172" y="533.771521" fill="#ffffff" stroke="#ffffff" xlink:href="#b"/>
</g>
<g clip-path="url(#a)">
<use x="918.682483" y="533.771521" fill="#ffffff" stroke="#ffffff" xlink:href="#b"/>
</g>
<g clip-path="url(#a)">
<use x="967.017793" y="533.771521" fill="#ffffff" stroke="#ffffff" xlink:href="#b"/>
</g>
<g clip-path="url(#a)">
<use x="1015.353103" y="533.771521" fill="#ffffff" stroke="#ffffff" xlink:href="#b"/>
</g>
<g clip-path="url(#a)">
<use x="383.096662" y="26.228479" fill="#ffffff" stroke="#ffffff" xlink:href="#b"/>
</g>
<g clip-path="url(#a)">
<use x="151.359431" y="324.283482" fill="#ffffff" stroke="#ffffff" xlink:href="#b"/>
</g>
<g clip-path="url(#a)">
<use x="435.329379" y="464.264481" fill="#ffffff" stroke="#ffffff" xlink:href="#b"/>
</g>
<g clip-path="url(#a)">
<use x="558.703767" y="103.647049" fill="#ffffff" stroke="#ffffff" xlink:href="#b"/>
</g>
<g clip-path="url(#a)">
<use x="483.66469" y="464.264481" fill="#ffffff" stroke="#ffffff" xlink:href="#b"/>
</g>
<g clip-path="url(#a)">
<use x="532" y="464.264481" fill="#ffffff" stroke="#ffffff" xlink:href="#b"/>
</g>
<g clip-path="url(#a)">
<use x="660.446612" y="178.98482" fill="#ffffff" stroke="#ffffff" xlink:href="#b"/>
</g>
<g clip-path="url(#a)">
<use x="580.33531" y="464.264481" fill="#ffffff" stroke="#ffffff" xlink:href="#b"/>
</g>
<g clip-path="url(#a)">
<use x="628.670621" y="464.264481" fill="#ffffff" stroke="#ffffff" xlink:href="#b"/>
</g>
<g clip-path="url(#a)">
<use x="772.333904" y="252.452494" fill="#ffffff" stroke="#ffffff" xlink:href="#b"/>
</g>
<g clip-path="url(#a)">
<use x="689.089759" y="394.757441" fill="#ffffff" stroke="#ffffff" xlink:href="#b"/>
</g>
<g clip-path="url(#a)">
<use x="822.011862" y="464.264481" fill="#ffffff" stroke="#ffffff" xlink:href="#b"/>
</g>
<g clip-path="url(#a)">
<use x="805.900092" y="324.283482" fill="#ffffff" stroke="#ffffff" xlink:href="#b"/>
</g>
<g clip-path="url(#a)">
<use x="870.347172" y="464.264481" fill="#ffffff" stroke="#ffffff" xlink:href="#b"/>
</g>
<g clip-path="url(#a)">
<use x="967.017793" y="394.757441" fill="#ffffff" stroke="#ffffff" xlink:href="#b"/>
</g>
<g clip-path="url(#a)">
<use x="918.682483" y="464.264481" fill="#ffffff" stroke="#ffffff" xlink:href="#b"/>
</g>
<g clip-path="url(#a)">
<use x="967.017793" y="464.264481" fill="#ffffff" stroke="#ffffff" xlink:href="#b"/>
</g>
<g clip-path="url(#a)">
<use x="677.005931" y="464.264481" fill="#ffffff" stroke="#ffffff" xlink:href="#b"/>
</g>
<g clip-path="url(#a)">
<use x="725.341241" y="464.264481" fill="#ffffff" stroke="#ffffff" xlink:href="#b"/>
</g>
<g clip-path="url(#a)">
<use x="773.676552" y="464.264481" fill="#ffffff" stroke="#ffffff" xlink:href="#b"/>
</g>
<g clip-path="url(#a)">
<use x="48.646897" y="464.264481" fill="#ffffff" stroke="#ffffff" xlink:href="#b"/>
</g>
<g clip-path="url(#a)">
<use x="96.982207" y="464.264481" fill="#ffffff" stroke="#ffffff" xlink:href="#b"/>
</g>
<g clip-path="url(#a)">
<use x="169.485173" y="394.757441" fill="#ffffff" stroke="#ffffff" xlink:href="#b"/>
</g>
<g clip-path="url(#a)">
<use x="290.323448" y="394.757441" fill="#ffffff" stroke="#ffffff" xlink:href="#b"/>
</g>
<g clip-path="url(#a)">
<use x="241.988138" y="464.264481" fill="#ffffff" stroke="#ffffff" xlink:href="#b"/>
</g>
<g clip-path="url(#a)">
<use x="290.323448" y="464.264481" fill="#ffffff" stroke="#ffffff" xlink:href="#b"/>
</g>
<g clip-path="url(#a)">
<use x="338.658759" y="464.264481" fill="#ffffff" stroke="#ffffff" xlink:href="#b"/>
</g>
<g clip-path="url(#a)">
<use x="145.317517" y="464.264481" fill="#ffffff" stroke="#ffffff" xlink:href="#b"/>
</g>
<g clip-path="url(#a)">
<use x="193.652828" y="464.264481" fill="#ffffff" stroke="#ffffff" xlink:href="#b"/>
</g>
<g clip-path="url(#a)">
<use x="772.333904" y="252.452494" fill="#808080" stroke="#808080" xlink:href="#b"/>
</g>
<g clip-path="url(#a)">
<use x="381.797526" y="26.228479" fill="#808080" stroke="#808080" xlink:href="#b"/>
</g>
<g clip-path="url(#a)">
<use x="386.994069" y="464.264481" fill="#ffffff" stroke="#ffffff" xlink:href="#b"/>
</g>
<g clip-path="url(#a)">
<use x="1015.353103" y="464.264481" fill="#ffffff" stroke="#ffffff" xlink:href="#b"/>
</g>
<g clip-path="url(#a)">
<defs>
<path id="an" d="m53.516 70.516v-9.625q-5.6094 2.6875-10.594 4-4.9844 1.3281-9.625 1.3281-8.0469 0-12.422-3.125t-4.375-8.8906q0-4.8438 2.9062-7.3125 2.9062-2.4531 11.016-3.9688l5.9531-1.2188q11.031-2.1094 16.281-7.4062t5.25-14.172q0-10.609-7.1094-16.078-7.0938-5.4688-20.812-5.4688-5.1719 0-11.016 1.1719-5.8281 1.1719-12.078 3.4688v10.156q6-3.3594 11.766-5.0781 5.7656-1.7031 11.328-1.7031 8.4375 0 13.031 3.3125 4.5938 3.3281 4.5938 9.4844 0 5.3594-3.2969 8.3906t-10.812 4.5469l-6.0156 1.1719q-11.031 2.1875-15.969 6.875-4.9219 4.6875-4.9219 13.047 0 9.6719 6.8125 15.234t18.766 5.5625q5.1406 0 10.453-0.9375 5.3281-0.92188 10.891-2.7656z"/>
<path id="r" d="m54.891 33.016v-33.016h-8.9844v32.719q0 7.7656-3.0312 11.609-3.0312 3.8594-9.0781 3.8594-7.2812 0-11.484-4.6406-4.2031-4.625-4.2031-12.641v-30.906h-9.0312v75.984h9.0312v-29.797q3.2344 4.9375 7.5938 7.375 4.375 2.4375 10.094 2.4375 9.4219 0 14.25-5.8281 4.8438-5.8281 4.8438-17.156z"/>
</defs>
<g transform="translate(39.227 536.53) scale(.1 -.1)">
<use xlink:href="#an"/>
<use x="63.476562" xlink:href="#r"/>
<use x="126.855469" xlink:href="#d"/>
</g>
</g>
<g clip-path="url(#a)">
<defs>
<path id="ab" d="m48.688 27.297q0 9.9062-4.0781 15.547t-11.203 5.6406q-7.1406 0-11.219-5.6406t-4.0781-15.547 4.0781-15.547 11.219-5.6406q7.125 0 11.203 5.6406t4.0781 15.547zm-30.578 19.094q2.8438 4.875 7.1562 7.2344 4.3281 2.375 10.328 2.375 9.9688 0 16.188-7.9062 6.2344-7.9062 6.2344-20.797t-6.2344-20.812q-6.2188-7.9062-16.188-7.9062-6 0-10.328 2.375-4.3125 2.375-7.1562 7.25v-8.2031h-9.0312v75.984h9.0312z"/>
<path id="al" d="m45.406 27.984q0 9.7656-4.0312 15.125-4.0156 5.375-11.297 5.375-7.2188 0-11.25-5.375-4.0312-5.3594-4.0312-15.125 0-9.7188 4.0312-15.094t11.25-5.375q7.2812 0 11.297 5.375 4.0312 5.375 4.0312 15.094zm8.9844-21.203q0-13.953-6.2031-20.766-6.1875-6.8125-18.984-6.8125-4.7344 0-8.9375 0.70312t-8.1562 2.1719v8.7344q3.9531-2.1406 7.8125-3.1562 3.8594-1.0312 7.8594-1.0312 8.8438 0 13.234 4.6094t4.3906 13.938v4.4531q-2.7812-4.8438-7.125-7.2344t-10.406-2.3906q-10.047 0-16.203 7.6562-6.1562 7.6719-6.1562 20.328 0 12.688 6.1562 20.344 6.1562 7.6719 16.203 7.6719 6.0625 0 10.406-2.3906t7.125-7.2188v8.2969h8.9844z"/>
</defs>
<g transform="translate(81.324 536.53) scale(.1 -.1)">
<use xlink:href="#ab"/>
<use x="63.476562" xlink:href="#d"/>
<use x="125" xlink:href="#al"/>
<use x="188.476562" xlink:href="#g"/>
<use x="249.755859" xlink:href="#h"/>
</g>
</g>
<g clip-path="url(#a)">
<defs>
<path id="s" d="m18.312 70.219v-15.531h18.5v-6.9844h-18.5v-29.688q0-6.6875 1.8281-8.5938t7.4531-1.9062h9.2188v-7.5156h-9.2188q-10.406 0-14.359 3.875-3.9531 3.8906-3.9531 14.141v29.688h-6.5938v6.9844h6.5938v15.531z"/>
<path id="p" d="m30.609 48.391q-7.2188 0-11.422-5.6406t-4.2031-15.453 4.1719-15.453q4.1875-5.6406 11.453-5.6406 7.1875 0 11.375 5.6562 4.2031 5.6719 4.2031 15.438 0 9.7188-4.2031 15.406-4.1875 5.6875-11.375 5.6875zm0 7.6094q11.719 0 18.406-7.625 6.7031-7.6094 6.7031-21.078 0-13.422-6.7031-21.078-6.6875-7.6406-18.406-7.6406-11.766 0-18.438 7.6406-6.6562 7.6562-6.6562 21.078 0 13.469 6.6562 21.078 6.6719 7.625 18.438 7.625z"/>
</defs>
<g transform="translate(140.3 536.53) scale(.1 -.1)">
<use xlink:href="#s"/>
<use x="39.208984" xlink:href="#p"/>
</g>
</g>
<g clip-path="url(#a)">
<g transform="translate(180.9 536.53) scale(.1 -.1)">
<use xlink:href="#k"/>
<use x="27.783203" xlink:href="#d"/>
<use x="89.306641" xlink:href="#g"/>
<use x="150.585938" xlink:href="#f"/>
<use x="191.683594" xlink:href="#h"/>
</g>
</g>
<g clip-path="url(#a)">
<defs>
<path id="af" d="m37.109 75.984v-7.4844h-8.5938q-4.8281 0-6.7188-1.9531-1.875-1.9531-1.875-7.0312v-4.8281h14.797v-6.9844h-14.797v-47.703h-9.0312v47.703h-8.5938v6.9844h8.5938v3.8125q0 9.125 4.25 13.297 4.25 4.1875 13.469 4.1875z"/>
</defs>
<g transform="translate(230.24 536.53) scale(.1 -.1)">
<use xlink:href="#af"/>
<use x="35.205078" xlink:href="#f"/>
<use x="76.287109" xlink:href="#p"/>
<use x="137.46875" xlink:href="#i"/>
</g>
</g>
<g clip-path="url(#a)">
<g transform="translate(282.02 536.53) scale(.1 -.1)">
<use xlink:href="#r"/>
<use x="63.378906" xlink:href="#d"/>
<use x="124.902344" xlink:href="#f"/>
</g>
</g>
<g clip-path="url(#a)">
<g transform="translate(323.57 536.53) scale(.1 -.1)">
<use xlink:href="#af"/>
<use x="35.205078" xlink:href="#g"/>
<use x="96.484375" xlink:href="#s"/>
<use x="135.693359" xlink:href="#r"/>
<use x="199.072266" xlink:href="#d"/>
<use x="260.595703" xlink:href="#f"/>
</g>
</g>
<g clip-path="url(#a)">
<defs>
<path id="aq" d="m11.719 12.406h10.297v-8.4062l-8-15.625h-6.2969l4 15.625z"/>
</defs>
<g transform="translate(385.41 536.53) scale(.1 -.1)">
<use xlink:href="#aq"/>
</g>
</g>
<g clip-path="url(#a)">
<defs>
<path id="aa" d="m44.281 53.078v-8.5q-3.7969 1.9531-7.9062 2.9219-4.0938 0.98438-8.5 0.98438-6.6875 0-10.031-2.0469t-3.3438-6.1562q0-3.125 2.3906-4.9062t9.625-3.3906l3.0781-0.6875q9.5625-2.0469 13.594-5.7812t4.0312-10.422q0-7.625-6.0312-12.078-6.0312-4.4375-16.578-4.4375-4.3906 0-9.1562 0.85938t-10.031 2.5625v9.2812q4.9844-2.5938 9.8125-3.8906 4.8281-1.2812 9.5781-1.2812 6.3438 0 9.75 2.1719 3.4219 2.1719 3.4219 6.125 0 3.6562-2.4688 5.6094-2.4531 1.9531-10.812 3.7656l-3.125 0.73438q-8.3438 1.75-12.062 5.3906-3.7031 3.6406-3.7031 9.9844 0 7.7188 5.4688 11.906 5.4688 4.2031 15.531 4.2031 4.9688 0 9.3594-0.73438 4.4062-0.71875 8.1094-2.1875z"/>
</defs>
<g transform="translate(429.66 536.53) scale(.1 -.1)">
<use xlink:href="#g"/>
<use x="61.279297" xlink:href="#aa"/>
</g>
</g>
<g clip-path="url(#a)">
<g transform="translate(474.81 536.53) scale(.1 -.1)">
<use xlink:href="#aa"/>
<use x="52.099609" xlink:href="#r"/>
<use x="115.478516" xlink:href="#d"/>
</g>
</g>
<g clip-path="url(#a)">
<defs>
<path id="ag" d="m48.781 52.594v-8.4062q-3.8125 2.1094-7.6406 3.1562t-7.7344 1.0469q-8.75 0-13.594-5.5469-4.8281-5.5312-4.8281-15.547t4.8281-15.562q4.8438-5.5312 13.594-5.5312 3.9062 0 7.7344 1.0469t7.6406 3.1562v-8.3125q-3.7656-1.75-7.7969-2.625-4.0156-0.89062-8.5625-0.89062-12.359 0-19.641 7.7656-7.2656 7.7656-7.2656 20.953 0 13.375 7.3438 21.031 7.3594 7.6719 20.156 7.6719 4.1406 0 8.0938-0.85938 3.9531-0.84375 7.6719-2.5469z"/>
<path id="am" d="m45.406 46.391v29.594h8.9844v-75.984h-8.9844v8.2031q-2.8281-4.875-7.1562-7.25-4.3125-2.375-10.375-2.375-9.9062 0-16.141 7.9062-6.2188 7.9219-6.2188 20.812t6.2188 20.797q6.2344 7.9062 16.141 7.9062 6.0625 0 10.375-2.375 4.3281-2.3594 7.1562-7.2344zm-30.609-19.094q0-9.9062 4.0781-15.547t11.203-5.6406 11.219 5.6406q4.1094 5.6406 4.1094 15.547t-4.1094 15.547q-4.0938 5.6406-11.219 5.6406t-11.203-5.6406-4.0781-15.547z"/>
</defs>
<g transform="translate(513.42 536.53) scale(.1 -.1)">
<use xlink:href="#h"/>
<use x="63.378906" xlink:href="#p"/>
<use x="124.560547" xlink:href="#s"/>
<use x="163.769531" xlink:href="#j"/>
<use x="191.552734" xlink:href="#ag"/>
<use x="246.533203" xlink:href="#d"/>
<use x="308.056641" xlink:href="#am"/>
</g>
</g>
<g clip-path="url(#a)">
<g transform="translate(573.17 536.53) scale(.1 -.1)">
<use xlink:href="#r"/>
<use x="63.378906" xlink:href="#j"/>
<use x="91.162109" xlink:href="#aa"/>
</g>
</g>
<g clip-path="url(#a)">
<g transform="translate(609.36 536.53) scale(.1 -.1)">
<use xlink:href="#i"/>
<use x="97.412109" xlink:href="#d"/>
<use x="158.935547" xlink:href="#s"/>
<use x="198.144531" xlink:href="#r"/>
<use x="261.523438" xlink:href="#p"/>
<use x="322.705078" xlink:href="#am"/>
</g>
</g>
<g clip-path="url(#a)">
<g transform="translate(672.19 536.53) scale(.1 -.1)">
<use xlink:href="#p"/>
<use x="61.181641" xlink:href="#af"/>
</g>
</g>
<g clip-path="url(#a)">
<defs>
<path id="ar" d="m2.9844 54.688h9.5156l17.094-45.891 17.094 45.891h9.5156l-20.516-54.688h-12.203z"/>
</defs>
<g transform="translate(700.68 536.53) scale(.1 -.1)">
<use xlink:href="#p"/>
<use x="61.181641" xlink:href="#ab"/>
<use x="124.658203" xlink:href="#aa"/>
<use x="176.757812" xlink:href="#d"/>
<use x="238.28125" xlink:href="#f"/>
<use x="279.394531" xlink:href="#ar"/>
<use x="338.574219" xlink:href="#j"/>
<use x="366.357422" xlink:href="#h"/>
<use x="429.736328" xlink:href="#al"/>
</g>
</g>
<g clip-path="url(#a)">
<defs>
<path id="ak" d="m18.109 8.2031v-29h-9.0312v75.484h9.0312v-8.2969q2.8438 4.875 7.1562 7.2344 4.3281 2.375 10.328 2.375 9.9688 0 16.188-7.9062 6.2344-7.9062 6.2344-20.797t-6.2344-20.812q-6.2188-7.9062-16.188-7.9062-6 0-10.328 2.375-4.3125 2.375-7.1562 7.25zm30.578 19.094q0 9.9062-4.0781 15.547t-11.203 5.6406q-7.1406 0-11.219-5.6406t-4.0781-15.547 4.0781-15.547 11.219-5.6406q7.125 0 11.203 5.6406t4.0781 15.547z"/>
</defs>
<g transform="translate(756.73 536.53) scale(.1 -.1)">
<use xlink:href="#ak"/>
<use x="63.476562" xlink:href="#d"/>
<use x="125" xlink:href="#p"/>
<use x="186.181641" xlink:href="#ak"/>
<use x="249.658203" xlink:href="#k"/>
<use x="277.441406" xlink:href="#d"/>
</g>
</g>
<g clip-path="url(#a)">
<g transform="translate(816.99 536.53) scale(.1 -.1)">
<use xlink:href="#s"/>
<use x="39.208984" xlink:href="#p"/>
</g>
</g>
<g clip-path="url(#a)">
<g transform="translate(850.34 536.53) scale(.1 -.1)">
<use xlink:href="#ab"/>
<use x="63.476562" xlink:href="#d"/>
<use x="125" xlink:href="#ag"/>
<use x="179.980469" xlink:href="#p"/>
<use x="241.162109" xlink:href="#i"/>
<use x="338.574219" xlink:href="#d"/>
</g>
</g>
<g clip-path="url(#a)">
<defs>
<path id="as" d="m9.0781 75.984h9.0312v-44.875l26.812 23.578h11.469l-29-25.578 30.234-29.109h-11.719l-27.797 26.703v-26.703h-9.0312z"/>
</defs>
<g transform="translate(909.93 536.53) scale(.1 -.1)">
<use xlink:href="#k"/>
<use x="27.783203" xlink:href="#j"/>
<use x="55.566406" xlink:href="#as"/>
<use x="113.429688" xlink:href="#d"/>
</g>
</g>
<g clip-path="url(#a)">
<g transform="translate(953.94 536.53) scale(.1 -.1)">
<use xlink:href="#s"/>
<use x="39.208984" xlink:href="#r"/>
<use x="102.587891" xlink:href="#d"/>
<use x="164.111328" xlink:href="#i"/>
</g>
</g>
<g clip-path="url(#a)">
<defs>
<path id="e" d="m10.688 12.406h10.312v-12.406h-10.312z"/>
</defs>
<g transform="translate(1013.8 536.53) scale(.1 -.1)">
<use xlink:href="#e"/>
</g>
</g>
<g clip-path="url(#a)">
<defs>
<path id="c" d="m12.406 8.2969h16.109v55.625l-17.531-3.5156v8.9844l17.438 3.5156h9.8594v-64.609h16.109v-8.2969h-41.984z"/>
</defs>
<g transform="translate(375.15 28.988) scale(.1 -.1)">
<use xlink:href="#c"/>
<use x="63.623047" xlink:href="#e"/>
<use x="95.410156" xlink:href="#c"/>
</g>
</g>
<g clip-path="url(#a)">
<defs>
<path id="m" d="m19.188 8.2969h34.422v-8.2969h-46.281v8.2969q5.6094 5.8125 15.297 15.594 9.7031 9.7969 12.188 12.641 4.7344 5.3125 6.6094 9 1.8906 3.6875 1.8906 7.25 0 5.8125-4.0781 9.4688-4.0781 3.6719-10.625 3.6719-4.6406 0-9.7969-1.6094-5.1406-1.6094-11-4.8906v9.9688q5.9531 2.3906 11.125 3.6094 5.1875 1.2188 9.4844 1.2188 11.328 0 18.062-5.6719 6.7344-5.6562 6.7344-15.125 0-4.5-1.6875-8.5312-1.6719-4.0156-6.125-9.4844-1.2188-1.4219-7.7656-8.1875-6.5312-6.7656-18.453-18.922z"/>
</defs>
<g transform="translate(143.41 327.04) scale(.1 -.1)">
<use xlink:href="#c"/>
<use x="63.623047" xlink:href="#e"/>
<use x="95.410156" xlink:href="#m"/>
</g>
</g>
<g clip-path="url(#a)">
<defs>
<path id="o" d="m40.578 39.312q7.0781-1.5156 11.047-6.3125 3.9844-4.7812 3.9844-11.812 0-10.781-7.4219-16.703-7.4219-5.9062-21.094-5.9062-4.5781 0-9.4375 0.90625t-10.031 2.7188v9.5156q4.0938-2.3906 8.9688-3.6094 4.8906-1.2188 10.219-1.2188 9.2656 0 14.125 3.6562t4.8594 10.641q0 6.4531-4.5156 10.078-4.5156 3.6406-12.562 3.6406h-8.5v8.1094h8.8906q7.2656 0 11.125 2.9062t3.8594 8.375q0 5.6094-3.9844 8.6094-3.9688 3.0156-11.391 3.0156-4.0625 0-8.7031-0.89062-4.6406-0.875-10.203-2.7188v8.7812q5.625 1.5625 10.531 2.3438t9.25 0.78125q11.234 0 17.766-5.1094 6.5469-5.0938 6.5469-13.781 0-6.0625-3.4688-10.234t-9.8594-5.7812z"/>
</defs>
<g transform="translate(427.38 467.02) scale(.1 -.1)">
<use xlink:href="#c"/>
<use x="63.623047" xlink:href="#e"/>
<use x="95.410156" xlink:href="#o"/>
</g>
</g>
<g clip-path="url(#a)">
<defs>
<path id="z" d="m37.797 64.312-24.906-38.922h24.906zm-2.5938 8.5938h12.406v-47.516h10.406v-8.2031h-10.406v-17.188h-9.8125v17.188h-32.906v9.5156z"/>
</defs>
<g transform="translate(550.75 106.41) scale(.1 -.1)">
<use xlink:href="#c"/>
<use x="63.623047" xlink:href="#e"/>
<use x="95.410156" xlink:href="#z"/>
</g>
</g>
<g clip-path="url(#a)">
<defs>
<path id="y" d="m10.797 72.906h38.719v-8.3125h-29.688v-17.859q2.1406 0.73438 4.2812 1.0938 2.1562 0.35938 4.3125 0.35938 12.203 0 19.328-6.6875 7.1406-6.6875 7.1406-18.109 0-11.766-7.3281-18.297-7.3281-6.5156-20.656-6.5156-4.5938 0-9.3594 0.78125-4.75 0.78125-9.8281 2.3438v9.9219q4.3906-2.3906 9.0781-3.5625t9.9062-1.1719q8.4531 0 13.375 4.4375 4.9375 4.4375 4.9375 12.062 0 7.6094-4.9375 12.047-4.9219 4.4531-13.375 4.4531-3.9531 0-7.8906-0.875-3.9219-0.875-8.0156-2.7344z"/>
</defs>
<g transform="translate(475.71 467.02) scale(.1 -.1)">
<use xlink:href="#c"/>
<use x="63.623047" xlink:href="#e"/>
<use x="95.410156" xlink:href="#y"/>
</g>
</g>
<g clip-path="url(#a)">
<defs>
<path id="ad" d="m33.016 40.375q-6.6406 0-10.531-4.5469-3.875-4.5312-3.875-12.438 0-7.8594 3.875-12.438 3.8906-4.5625 10.531-4.5625t10.516 4.5625q3.875 4.5781 3.875 12.438 0 7.9062-3.875 12.438-3.875 4.5469-10.516 4.5469zm19.578 30.922v-8.9844q-3.7188 1.75-7.5 2.6719-3.7812 0.9375-7.5 0.9375-9.7656 0-14.922-6.5938-5.1406-6.5938-5.875-19.922 2.875 4.25 7.2188 6.5156 4.3594 2.2656 9.5781 2.2656 10.984 0 17.359-6.6719 6.375-6.6562 6.375-18.125 0-11.234-6.6406-18.031-6.6406-6.7812-17.672-6.7812-12.656 0-19.344 9.6875-6.6875 9.7031-6.6875 28.109 0 17.281 8.2031 27.562t22.016 10.281q3.7188 0 7.5-0.73438t7.8906-2.1875z"/>
</defs>
<g transform="translate(524.05 467.02) scale(.1 -.1)">
<use xlink:href="#c"/>
<use x="63.623047" xlink:href="#e"/>
<use x="95.410156" xlink:href="#ad"/>
</g>
</g>
<g clip-path="url(#a)">
<defs>
<path id="ac" d="m8.2031 72.906h46.875v-4.2031l-26.469-68.703h-10.297l24.906 64.594h-35.016z"/>
</defs>
<g transform="translate(652.5 181.74) scale(.1 -.1)">
<use xlink:href="#c"/>
<use x="63.623047" xlink:href="#e"/>
<use x="95.410156" xlink:href="#ac"/>
</g>
</g>
<g clip-path="url(#a)">
<defs>
<path id="aj" d="m31.781 34.625q-7.0312 0-11.062-3.7656-4.0156-3.7656-4.0156-10.344 0-6.5938 4.0156-10.359 4.0312-3.7656 11.062-3.7656t11.078 3.7812q4.0625 3.7969 4.0625 10.344 0 6.5781-4.0312 10.344-4.0156 3.7656-11.109 3.7656zm-9.8594 4.1875q-6.3438 1.5625-9.8906 5.9062-3.5312 4.3594-3.5312 10.609 0 8.7344 6.2188 13.812 6.2344 5.0781 17.062 5.0781 10.891 0 17.094-5.0781t6.2031-13.812q0-6.25-3.5469-10.609-3.5312-4.3438-9.8281-5.9062 7.125-1.6562 11.094-6.5 3.9844-4.8281 3.9844-11.797 0-10.609-6.4688-16.281-6.4688-5.6562-18.531-5.6562-12.047 0-18.531 5.6562-6.4688 5.6719-6.4688 16.281 0 6.9688 4 11.797 4.0156 4.8438 11.141 6.5zm-3.6094 15.578q0-5.6562 3.5312-8.8281 3.5469-3.1719 9.9375-3.1719 6.3594 0 9.9375 3.1719 3.5938 3.1719 3.5938 8.8281 0 5.6719-3.5938 8.8438-3.5781 3.1719-9.9375 3.1719-6.3906 0-9.9375-3.1719-3.5312-3.1719-3.5312-8.8438z"/>
</defs>
<g transform="translate(572.38 467.02) scale(.1 -.1)">
<use xlink:href="#c"/>
<use x="63.623047" xlink:href="#e"/>
<use x="95.410156" xlink:href="#aj"/>
</g>
</g>
<g clip-path="url(#a)">
<defs>
<path id="ai" d="m10.984 1.5156v8.9844q3.7188-1.7656 7.5156-2.6875 3.8125-0.92188 7.4844-0.92188 9.7656 0 14.906 6.5625 5.1562 6.5625 5.8906 19.953-2.8281-4.2031-7.1875-6.4531-4.3438-2.25-9.6094-2.25-10.938 0-17.312 6.6094-6.375 6.625-6.375 18.109 0 11.219 6.6406 18 6.6406 6.7969 17.672 6.7969 12.656 0 19.312-9.7031 6.6719-9.6875 6.6719-28.141 0-17.234-8.1875-27.516-8.1719-10.281-21.984-10.281-3.7188 0-7.5312 0.73438-3.7969 0.73438-7.9062 2.2031zm19.625 30.906q6.6406 0 10.516 4.5312 3.8906 4.5469 3.8906 12.469 0 7.8594-3.8906 12.422-3.875 4.5625-10.516 4.5625t-10.516-4.5625-3.875-12.422q0-7.9219 3.875-12.469 3.875-4.5312 10.516-4.5312z"/>
</defs>
<g transform="translate(620.72 467.02) scale(.1 -.1)">
<use xlink:href="#c"/>
<use x="63.623047" xlink:href="#e"/>
<use x="95.410156" xlink:href="#ai"/>
</g>
</g>
<g clip-path="url(#a)">
<defs>
<path id="ae" d="m31.781 66.406q-7.6094 0-11.453-7.5-3.8281-7.4844-3.8281-22.531 0-14.984 3.8281-22.484 3.8438-7.5 11.453-7.5 7.6719 0 11.5 7.5 3.8438 7.5 3.8438 22.484 0 15.047-3.8438 22.531-3.8281 7.5-11.5 7.5zm0 7.8125q12.266 0 18.734-9.7031 6.4688-9.6875 6.4688-28.141 0-18.406-6.4688-28.109-6.4688-9.6875-18.734-9.6875-12.25 0-18.719 9.6875-6.4688 9.7031-6.4688 28.109 0 18.453 6.4688 28.141 6.4688 9.7031 18.719 9.7031z"/>
</defs>
<g transform="translate(761.2 255.21) scale(.1 -.1)">
<use xlink:href="#c"/>
<use x="63.623047" xlink:href="#e"/>
<use x="95.410156" xlink:href="#c"/>
<use x="159.033203" xlink:href="#ae"/>
</g>
</g>
<g clip-path="url(#a)">
<g transform="translate(677.96 397.52) scale(.1 -.1)">
<use xlink:href="#c"/>
<use x="63.623047" xlink:href="#e"/>
<use x="95.410156" xlink:href="#c"/>
<use x="159.033203" xlink:href="#c"/>
</g>
</g>
<g clip-path="url(#a)">
<g transform="translate(810.88 467.02) scale(.1 -.1)">
<use xlink:href="#c"/>
<use x="63.623047" xlink:href="#e"/>
<use x="95.410156" xlink:href="#c"/>
<use x="159.033203" xlink:href="#m"/>
</g>
</g>
<g clip-path="url(#a)">
<g transform="translate(794.77 327.04) scale(.1 -.1)">
<use xlink:href="#c"/>
<use x="63.623047" xlink:href="#e"/>
<use x="95.410156" xlink:href="#c"/>
<use x="159.033203" xlink:href="#o"/>
</g>
</g>
<g clip-path="url(#a)">
<g transform="translate(859.21 467.02) scale(.1 -.1)">
<use xlink:href="#c"/>
<use x="63.623047" xlink:href="#e"/>
<use x="95.410156" xlink:href="#c"/>
<use x="159.033203" xlink:href="#z"/>
</g>
</g>
<g clip-path="url(#a)">
<g transform="translate(955.88 397.52) scale(.1 -.1)">
<use xlink:href="#c"/>
<use x="63.623047" xlink:href="#e"/>
<use x="95.410156" xlink:href="#c"/>
<use x="159.033203" xlink:href="#y"/>
</g>
</g>
<g clip-path="url(#a)">
<g transform="translate(907.55 467.02) scale(.1 -.1)">
<use xlink:href="#c"/>
<use x="63.623047" xlink:href="#e"/>
<use x="95.410156" xlink:href="#c"/>
<use x="159.033203" xlink:href="#ad"/>
</g>
</g>
<g clip-path="url(#a)">
<g transform="translate(955.88 467.02) scale(.1 -.1)">
<use xlink:href="#c"/>
<use x="63.623047" xlink:href="#e"/>
<use x="95.410156" xlink:href="#c"/>
<use x="159.033203" xlink:href="#ac"/>
</g>
</g>
<g clip-path="url(#a)">
<g transform="translate(665.87 467.02) scale(.1 -.1)">
<use xlink:href="#c"/>
<use x="63.623047" xlink:href="#e"/>
<use x="95.410156" xlink:href="#c"/>
<use x="159.033203" xlink:href="#ai"/>
</g>
</g>
<g clip-path="url(#a)">
<g transform="translate(714.21 467.02) scale(.1 -.1)">
<use xlink:href="#c"/>
<use x="63.623047" xlink:href="#e"/>
<use x="95.410156" xlink:href="#m"/>
<use x="159.033203" xlink:href="#ae"/>
</g>
</g>
<g clip-path="url(#a)">
<g transform="translate(762.54 467.02) scale(.1 -.1)">
<use xlink:href="#c"/>
<use x="63.623047" xlink:href="#e"/>
<use x="95.410156" xlink:href="#m"/>
<use x="159.033203" xlink:href="#c"/>
</g>
</g>
<g clip-path="url(#a)">
<g transform="translate(37.514 467.02) scale(.1 -.1)">
<use xlink:href="#c"/>
<use x="63.623047" xlink:href="#e"/>
<use x="95.410156" xlink:href="#m"/>
<use x="159.033203" xlink:href="#m"/>
</g>
</g>
<g clip-path="url(#a)">
<g transform="translate(85.849 467.02) scale(.1 -.1)">
<use xlink:href="#c"/>
<use x="63.623047" xlink:href="#e"/>
<use x="95.410156" xlink:href="#m"/>
<use x="159.033203" xlink:href="#o"/>
</g>
</g>
<g clip-path="url(#a)">
<g transform="translate(158.35 397.52) scale(.1 -.1)">
<use xlink:href="#c"/>
<use x="63.623047" xlink:href="#e"/>
<use x="95.410156" xlink:href="#m"/>
<use x="159.033203" xlink:href="#z"/>
</g>
</g>
<g clip-path="url(#a)">
<g transform="translate(279.19 397.52) scale(.1 -.1)">
<use xlink:href="#c"/>
<use x="63.623047" xlink:href="#e"/>
<use x="95.410156" xlink:href="#m"/>
<use x="159.033203" xlink:href="#y"/>
</g>
</g>
<g clip-path="url(#a)">
<g transform="translate(230.86 467.02) scale(.1 -.1)">
<use xlink:href="#c"/>
<use x="63.623047" xlink:href="#e"/>
<use x="95.410156" xlink:href="#m"/>
<use x="159.033203" xlink:href="#ad"/>
</g>
</g>
<g clip-path="url(#a)">
<g transform="translate(279.19 467.02) scale(.1 -.1)">
<use xlink:href="#c"/>
<use x="63.623047" xlink:href="#e"/>
<use x="95.410156" xlink:href="#m"/>
<use x="159.033203" xlink:href="#ac"/>
</g>
</g>
<g clip-path="url(#a)">
<g transform="translate(327.53 467.02) scale(.1 -.1)">
<use xlink:href="#c"/>
<use x="63.623047" xlink:href="#e"/>
<use x="95.410156" xlink:href="#m"/>
<use x="159.033203" xlink:href="#aj"/>
</g>
</g>
<g clip-path="url(#a)">
<g transform="translate(134.18 467.02) scale(.1 -.1)">
<use xlink:href="#c"/>
<use x="63.623047" xlink:href="#e"/>
<use x="95.410156" xlink:href="#o"/>
<use x="159.033203" xlink:href="#ae"/>
</g>
</g>
<g clip-path="url(#a)">
<g transform="translate(182.52 467.02) scale(.1 -.1)">
<use xlink:href="#c"/>
<use x="63.623047" xlink:href="#e"/>
<use x="95.410156" xlink:href="#o"/>
<use x="159.033203" xlink:href="#c"/>
</g>
</g>
<g clip-path="url(#a)">
<g transform="translate(761.2 255.21) scale(.1 -.1)">
<use xlink:href="#c"/>
<use x="63.623047" xlink:href="#e"/>
<use x="95.410156" xlink:href="#o"/>
<use x="159.033203" xlink:href="#m"/>
</g>
</g>
<g clip-path="url(#a)">
<g transform="translate(370.66 28.988) scale(.1 -.1)">
<use xlink:href="#c"/>
<use x="63.623047" xlink:href="#e"/>
<use x="95.410156" xlink:href="#o"/>
<use x="159.033203" xlink:href="#o"/>
</g>
</g>
<g clip-path="url(#a)">
<g transform="translate(375.86 467.02) scale(.1 -.1)">
<use xlink:href="#c"/>
<use x="63.623047" xlink:href="#e"/>
<use x="95.410156" xlink:href="#o"/>
<use x="159.033203" xlink:href="#z"/>
</g>
</g>
<g clip-path="url(#a)">
<g transform="translate(1004.2 467.02) scale(.1 -.1)">
<use xlink:href="#c"/>
<use x="63.623047" xlink:href="#e"/>
<use x="95.410156" xlink:href="#o"/>
<use x="159.033203" xlink:href="#y"/>
</g>
</g>
<defs>
<clipPath id="a">
<rect width="1064" height="560"/>
</clipPath>
</defs>
</svg>
