<?xml version="1.0" encoding="UTF-8"?>
<!DOCTYPE svg  PUBLIC '-//W3C//DTD SVG 1.1//EN'  'http://www.w3.org/Graphics/SVG/1.1/DTD/svg11.dtd'>
<svg width="1773.3pt" height="933.33pt" version="1.1" viewBox="0 0 1773.3 933.33" xmlns="http://www.w3.org/2000/svg" xmlns:xlink="http://www.w3.org/1999/xlink">
<defs>
<style type="text/css">*{stroke-linecap:butt;stroke-linejoin:round;}</style>
</defs>
<path d="m0 933.33h1773.3v-933.33h-1773.3z" fill="#fff"/>
<g fill="none" stroke="#000">
<path d="m393.96 43.012-246.82 491.23" clip-path="url(#a)"/>
<path d="m393.96 43.012 180.76 104.01" clip-path="url(#a)"/>
<path d="m393.96 43.012 66.056 759.33" clip-path="url(#a)"/>
<path d="m147.14 534.24-66.368 268.1" clip-path="url(#a)"/>
<path d="m147.14 534.24-18.962 268.1" clip-path="url(#a)"/>
<path d="m147.14 534.24 85.33 90.92" clip-path="url(#a)"/>
<path d="m574.72 147.02-67.302 655.32" clip-path="url(#a)"/>
<path d="m574.72 147.02 3.8066 567.34" clip-path="url(#a)"/>
<path d="m574.72 147.02 360.21 100.88" clip-path="url(#a)"/>
<path d="m574.72 147.02-493.95 655.32" clip-path="url(#a)" stroke-dasharray="3.7,1.6"/>
<path d="m574.72 147.02 74.915 655.32" clip-path="url(#a)"/>
<path d="m574.72 147.02 122.32 655.32" clip-path="url(#a)"/>
<path d="m507.42 802.34v87.978" clip-path="url(#a)"/>
<path d="m578.53 714.36-23.703 87.978" clip-path="url(#a)"/>
<path d="m578.53 714.36 23.703 87.978" clip-path="url(#a)"/>
<path d="m934.94 247.9-166.78 554.44" clip-path="url(#a)"/>
<path d="m934.94 247.9 262.46 97.992" clip-path="url(#a)"/>
<path d="m934.94 247.9-95.674 554.44" clip-path="url(#a)"/>
<path d="m768.15 802.34-23.703 87.978" clip-path="url(#a)"/>
<path d="m768.15 802.34 23.703 87.978" clip-path="url(#a)"/>
<path d="m1197.4 345.89-173.25 279.27" clip-path="url(#a)"/>
<path d="m1197.4 345.89 21.113 456.45" clip-path="url(#a)"/>
<path d="m1197.4 345.89 152.14 95.358" clip-path="url(#a)"/>
<path d="m1024.1 625.16-90.07 89.202" clip-path="url(#a)"/>
<path d="m1024.1 625.16-90.07 177.18" clip-path="url(#a)"/>
<path d="m1024.1 625.16 4.7406 177.18" clip-path="url(#a)"/>
<path d="m1024.1 625.16 52.146 177.18" clip-path="url(#a)"/>
<path d="m1024.1 625.16 123.25 89.202" clip-path="url(#a)"/>
<path d="m1218.5 802.34v87.978" clip-path="url(#a)"/>
<path d="m1349.5 441.25-83.618 361.09" clip-path="url(#a)"/>
<path d="m1349.5 441.25-36.213 361.09" clip-path="url(#a)"/>
<path d="m1349.5 441.25 119.83 92.991" clip-path="url(#a)"/>
<path d="m1265.9 802.34v87.978" clip-path="url(#a)"/>
<path d="m1313.3 802.34v87.978" clip-path="url(#a)"/>
<path d="m1469.4 534.24-108.64 268.1" clip-path="url(#a)"/>
<path d="m1469.4 534.24-37.529 180.12" clip-path="url(#a)"/>
<path d="m1469.4 534.24 146.17 90.92" clip-path="url(#a)"/>
<path d="m1360.7 802.34v87.978" clip-path="url(#a)"/>
<path d="m1431.8 714.36-23.703 87.978" clip-path="url(#a)"/>
<path d="m1431.8 714.36 23.703 87.978" clip-path="url(#a)"/>
<path d="m1615.5 625.16-88.885 89.202" clip-path="url(#a)"/>
<path d="m1615.5 625.16-17.777 177.18" clip-path="url(#a)"/>
<path d="m1615.5 625.16 29.628 177.18" clip-path="url(#a)"/>
<path d="m1615.5 625.16 77.034 177.18" clip-path="url(#a)"/>
<path d="m1526.6 714.36-23.703 87.978" clip-path="url(#a)"/>
<path d="m1526.6 714.36 23.703 87.978" clip-path="url(#a)"/>
<path d="m1597.7 802.34v87.978" clip-path="url(#a)"/>
<path d="m1502.9 802.34v87.978" clip-path="url(#a)"/>
<path d="m1550.3 802.34v87.978" clip-path="url(#a)"/>
<path d="m1408.1 802.34v87.978" clip-path="url(#a)"/>
<path d="m1455.5 802.34v87.978" clip-path="url(#a)"/>
<path d="m934.07 714.36-47.406 87.978" clip-path="url(#a)"/>
<path d="m934.07 714.36 47.406 87.978" clip-path="url(#a)"/>
<path d="m934.07 802.34v87.978" clip-path="url(#a)"/>
<path d="m1028.9 802.34v87.978" clip-path="url(#a)"/>
<path d="m1076.3 802.34v87.978" clip-path="url(#a)"/>
<path d="m1147.4 714.36-23.703 87.978" clip-path="url(#a)"/>
<path d="m1147.4 714.36 23.703 87.978" clip-path="url(#a)"/>
<path d="m1123.7 802.34v87.978" clip-path="url(#a)"/>
<path d="m1171.1 802.34v87.978" clip-path="url(#a)"/>
<path d="m886.67 802.34v87.978" clip-path="url(#a)"/>
<path d="m981.48 802.34v87.978" clip-path="url(#a)"/>
<path d="m554.83 802.34v87.978" clip-path="url(#a)"/>
<path d="m602.23 802.34v87.978" clip-path="url(#a)"/>
<path d="m80.773 802.34v87.978" clip-path="url(#a)"/>
<path d="m128.18 802.34v87.978" clip-path="url(#a)"/>
<path d="m232.47 625.16-151.7 177.18" clip-path="url(#a)" stroke-dasharray="3.7,1.6"/>
<path d="m232.47 625.16-56.887 177.18" clip-path="url(#a)"/>
<path d="m232.47 625.16-9.4811 177.18" clip-path="url(#a)"/>
<path d="m232.47 625.16 61.627 89.202" clip-path="url(#a)"/>
<path d="m232.47 625.16 156.44 89.202" clip-path="url(#a)"/>
<path d="m175.58 802.34v87.978" clip-path="url(#a)"/>
<path d="m222.99 802.34v87.978" clip-path="url(#a)"/>
<path d="m294.1 714.36-23.703 87.978" clip-path="url(#a)"/>
<path d="m294.1 714.36 23.703 87.978" clip-path="url(#a)"/>
<path d="m388.91 714.36-23.703 87.978" clip-path="url(#a)"/>
<path d="m388.91 714.36 23.703 87.978" clip-path="url(#a)"/>
<path d="m365.21 802.34v87.978" clip-path="url(#a)"/>
<path d="m412.61 802.34v87.978" clip-path="url(#a)"/>
<path d="m270.39 802.34v87.978" clip-path="url(#a)"/>
<path d="m317.8 802.34v87.978" clip-path="url(#a)"/>
<path d="m460.02 802.34v87.978" clip-path="url(#a)"/>
<path d="m649.64 802.34v87.978" clip-path="url(#a)"/>
<path d="m697.04 802.34v87.978" clip-path="url(#a)"/>
<path d="m839.26 802.34v87.978" clip-path="url(#a)"/>
<path d="m1645.2 802.34v87.978" clip-path="url(#a)"/>
<path d="m1692.6 802.34v87.978" clip-path="url(#a)"/>
</g>
<path d="m274.8 294.13 2.7011-5.3758q1.0775-2.1445-1.067-3.222l-6.9183-3.4761q-2.1445-1.0775-3.222 1.067l-2.7011 5.3758q-1.0775 2.1445 1.067 3.222l6.9183 3.4761q2.1445 1.0775 3.222-1.067z" clip-path="url(#a)" fill="#fff" stroke="#fff"/>
<g clip-path="url(#a)">
<defs>
<path id="v" d="m9.8125 72.906h9.8594v-29.891h35.844v29.891h9.8594v-72.906h-9.8594v34.719h-35.844v-34.719h-9.8594z"/>
</defs>
<g transform="translate(271.17 292.31) rotate(-63.323) scale(.08 -.08)">
<use xlink:href="#v"/>
</g>
</g>
<path d="m478.61 98.953 5.2146 3.0005q2.0802 1.197 3.2772-0.88327l3.8614-6.7109q1.197-2.0802-0.88327-3.2772l-5.2146-3.0005q-2.0802-1.197-3.2772 0.88327l-3.8614 6.7109q-1.197 2.0802 0.88327 3.2772z" clip-path="url(#a)" fill="#fff" stroke="#fff"/>
<g clip-path="url(#a)">
<g transform="translate(480.63 95.43) rotate(29.916) scale(.08 -.08)">
<use xlink:href="#v"/>
</g>
</g>
<path d="m420.49 420.3 0.50743 5.833q0.208 2.391 2.599 2.183l7.7134-0.67101q2.391-0.208 2.183-2.599l-0.50743-5.833q-0.208-2.391-2.599-2.183l-7.7134 0.67101q-2.391 0.208-2.183 2.599z" clip-path="url(#a)" fill="#fff" stroke="#fff"/>
<g clip-path="url(#a)">
<defs>
<path id="u" d="m8.6875 72.906h9.9219v-44.297q0-11.719 4.2344-16.875 4.25-5.1406 13.781-5.1406 9.4688 0 13.719 5.1406 4.25 5.1562 4.25 16.875v44.297h9.9062v-45.516q0-14.25-7.0625-21.531-7.0469-7.2812-20.812-7.2812-13.828 0-20.891 7.2812-7.0469 7.2812-7.0469 21.531z"/>
</defs>
<g transform="translate(424.54 419.95) rotate(85.028) scale(.08 -.08)">
<use xlink:href="#u"/>
</g>
</g>
<path d="m119.39 672.46 1.315-5.3122q0.57671-2.3297-1.753-2.9064l-7.5156-1.8605q-2.3297-0.57671-2.9064 1.753l-1.315 5.3122q-0.57671 2.3297 1.753 2.9064l7.5156 1.8605q2.3297 0.57671 2.9064-1.753z" clip-path="url(#a)" fill="#fff" stroke="#fff"/>
<g clip-path="url(#a)">
<defs>
<path id="o" d="m34.188 63.188-13.391-36.281h26.812zm-5.5781 9.7188h11.188l27.781-72.906h-10.25l-6.6406 18.703h-32.859l-6.6406-18.703h-10.406z"/>
</defs>
<g transform="translate(115.44 671.48) rotate(-76.096) scale(.08 -.08)">
<use xlink:href="#o"/>
</g>
</g>
<path d="m143.74 671.14 0.34032-4.8117q0.16932-2.394-2.2247-2.5633l-7.7232-0.54625q-2.394-0.16932-2.5633 2.2247l-0.34032 4.8117q-0.16932 2.394 2.2247 2.5633l7.7232 0.54625q2.394 0.16932 2.5633-2.2247z" clip-path="url(#a)" fill="#fff" stroke="#fff"/>
<g clip-path="url(#a)">
<defs>
<path id="aa" d="m19.672 64.797v-27.391h12.406q6.8906 0 10.641 3.5625 3.7656 3.5625 3.7656 10.156 0 6.5469-3.7656 10.109-3.75 3.5625-10.641 3.5625zm-9.8594 8.1094h22.266q12.266 0 18.531-5.5469 6.2812-5.5469 6.2812-16.234 0-10.797-6.2812-16.312-6.2656-5.5156-18.531-5.5156h-12.406v-29.297h-9.8594z"/>
</defs>
<g transform="translate(139.69 670.85) rotate(-85.954) scale(.08 -.08)">
<use xlink:href="#aa"/>
</g>
</g>
<path d="m183.36 582 3.745 3.9904q1.6424 1.75 3.3924 0.10759l5.6456-5.2985q1.75-1.6424 0.10759-3.3924l-3.745-3.9904q-1.6424-1.75-3.3924-0.10759l-5.6456 5.2985q-1.75 1.6424-0.10759 3.3924z" clip-path="url(#a)" fill="#fff" stroke="#fff"/>
<g clip-path="url(#a)">
<g transform="translate(186.32 579.22) rotate(46.817) scale(.08 -.08)">
<use xlink:href="#o"/>
</g>
</g>
<path d="m547.07 477.72 0.49281-4.7985q0.24519-2.3874-2.1423-2.6326l-7.702-0.791q-2.3874-0.24519-2.6326 2.1423l-0.49281 4.7985q-0.24519 2.3874 2.1423 2.6326l7.702 0.791q2.3874 0.24519 2.6326-2.1423z" clip-path="url(#a)" fill="#fff" stroke="#fff"/>
<g clip-path="url(#a)">
<g transform="translate(543.02 477.31) rotate(-84.136) scale(.08 -.08)">
<use xlink:href="#aa"/>
</g>
</g>
<path d="m570.34 428 0.036717 5.4724q0.016103 2.3999 2.416 2.3838l7.7423-0.051948q2.3999-0.016102 2.3838-2.416l-0.036717-5.4724q-0.016102-2.3999-2.416-2.3838l-7.7423 0.051947q-2.3999 0.016102-2.3838 2.416z" clip-path="url(#a)" fill="#fff" stroke="#fff"/>
<g clip-path="url(#a)">
<g transform="translate(574.4 427.97) rotate(89.616) scale(.08 -.08)">
<use xlink:href="#o"/>
</g>
</g>
<path d="m750.5 202.76 5.2697 1.4758q2.3111 0.64723 2.9583-1.6639l2.088-7.4556q0.64723-2.3111-1.6639-2.9583l-5.2697-1.4758q-2.3111-0.64723-2.9583 1.6639l-2.088 7.4556q-0.64723 2.3111 1.6639 2.9583z" clip-path="url(#a)" fill="#fff" stroke="#fff"/>
<g clip-path="url(#a)">
<g transform="translate(751.6 198.85) rotate(15.645) scale(.08 -.08)">
<use xlink:href="#o"/>
</g>
</g>
<path d="m331.11 480.64 3.294-4.3701q1.4446-1.9165-0.47194-3.3611l-6.1828-4.6603q-1.9165-1.4446-3.3611 0.47194l-3.294 4.3701q-1.4446 1.9165 0.47194 3.3611l6.1828 4.6603q1.9165 1.4446 3.3611-0.47194z" clip-path="url(#a)" fill="#fff" stroke="#fff"/>
<g clip-path="url(#a)">
<g transform="translate(327.86 478.2) rotate(-52.993) scale(.08 -.08)">
<use xlink:href="#o"/>
</g>
</g>
<path d="m605.62 472.49 0.665 5.8171q0.27259 2.3845 2.6571 2.1119l7.6924-0.87938q2.3845-0.27259 2.1119-2.6571l-0.665-5.8171q-0.27259-2.3845-2.6571-2.1119l-7.6924 0.87938q-2.3845 0.27259-2.1119 2.6571z" clip-path="url(#a)" fill="#fff" stroke="#fff"/>
<g clip-path="url(#a)">
<g transform="translate(609.66 472.03) rotate(83.478) scale(.08 -.08)">
<use xlink:href="#u"/>
</g>
</g>
<path d="m629.18 472.96 1.0743 5.7556q0.44037 2.3593 2.7996 1.9189l7.611-1.4207q2.3593-0.44037 1.9189-2.7996l-1.0743-5.7556q-0.44037-2.3593-2.7996-1.9189l-7.611 1.4207q-2.3593 0.44037-1.9189 2.7996z" clip-path="url(#a)" fill="#fff" stroke="#fff"/>
<g clip-path="url(#a)">
<g transform="translate(633.18 472.21) rotate(79.427) scale(.08 -.08)">
<use xlink:href="#u"/>
</g>
</g>
<path d="m501.15 828.69v35.285q0 2.4 2.4 2.4h7.7425q2.4 0 2.4-2.4v-35.285q0-2.4-2.4-2.4h-7.7425q-2.4 0-2.4 2.4z" clip-path="url(#a)" fill="#fff" stroke="#fff"/>
<g clip-path="url(#a)">
<defs>
<path id="l" d="m-0.29688 72.906h61.672v-8.3125h-25.875v-64.594h-9.9062v64.594h-25.891z"/>
<path id="e" d="m56.203 29.594v-4.3906h-41.312q0.59375-9.2812 5.5938-14.141t13.938-4.8594q5.1719 0 10.031 1.2656t9.6562 3.8125v-8.5q-4.8438-2.0469-9.9219-3.125t-10.297-1.0781q-13.094 0-20.734 7.6094-7.6406 7.625-7.6406 20.625 0 13.422 7.25 21.297 7.25 7.8906 19.562 7.8906 11.031 0 17.453-7.1094 6.4219-7.0938 6.4219-19.297zm-8.9844 2.6406q-0.09375 7.3594-4.125 11.75-4.0312 4.4062-10.672 4.4062-7.5156 0-12.031-4.25t-5.2031-11.969z"/>
<path id="i" d="m41.109 46.297q-1.5156 0.875-3.2969 1.2812-1.7812 0.42188-3.9219 0.42188-7.625 0-11.703-4.9531t-4.0781-14.234v-28.812h-9.0312v54.688h9.0312v-8.5q2.8438 4.9844 7.375 7.3906 4.5469 2.4219 11.047 2.4219 0.92188 0 2.0469-0.125 1.125-0.10938 2.4844-0.35938z"/>
<path id="j" d="m52 44.188q3.375 6.0625 8.0625 8.9375t11.031 2.875q8.5469 0 13.188-5.9844 4.6406-5.9688 4.6406-17v-33.016h-9.0312v32.719q0 7.8594-2.7969 11.656-2.7812 3.8125-8.4844 3.8125-6.9844 0-11.047-4.6406-4.0469-4.625-4.0469-12.641v-30.906h-9.0312v32.719q0 7.9062-2.7812 11.688t-8.5938 3.7812q-6.8906 0-10.953-4.6562-4.0469-4.6562-4.0469-12.625v-30.906h-9.0312v54.688h9.0312v-8.5q3.0781 5.0312 7.375 7.4219t10.203 2.3906q5.9688 0 10.141-3.0312 4.1719-3.0156 6.1719-8.7812z"/>
<path id="h" d="m9.4219 54.688h8.9844v-54.688h-8.9844zm0 21.297h8.9844v-11.391h-8.9844z"/>
<path id="g" d="m54.891 33.016v-33.016h-8.9844v32.719q0 7.7656-3.0312 11.609-3.0312 3.8594-9.0781 3.8594-7.2812 0-11.484-4.6406-4.2031-4.625-4.2031-12.641v-30.906h-9.0312v54.688h9.0312v-8.5q3.2344 4.9375 7.5938 7.375 4.375 2.4375 10.094 2.4375 9.4219 0 14.25-5.8281 4.8438-5.8281 4.8438-17.156z"/>
<path id="f" d="m34.281 27.484q-10.891 0-15.094-2.4844t-4.2031-8.5q0-4.7812 3.1562-7.5938 3.1562-2.7969 8.5625-2.7969 7.4844 0 12 5.2969t4.5156 14.078v2zm17.922 3.7188v-31.203h-8.9844v8.2969q-3.0781-4.9688-7.6719-7.3438t-11.234-2.375q-8.3906 0-13.359 4.7188-4.9531 4.7188-4.9531 12.625 0 9.2188 6.1719 13.906 6.1875 4.6875 18.438 4.6875h12.609v0.89062q0 6.2031-4.0781 9.5938t-11.453 3.3906q-4.6875 0-9.1406-1.125-4.4375-1.125-8.5312-3.375v8.3125q4.9219 1.9062 9.5625 2.8438 4.6406 0.95312 9.0312 0.95312 11.875 0 17.734-6.1562 5.8594-6.1406 5.8594-18.641z"/>
<path id="k" d="m9.4219 75.984h8.9844v-75.984h-8.9844z"/>
</defs>
<g transform="translate(505.21 828.69) rotate(90) scale(.08 -.08)">
<use xlink:href="#l"/>
<use x="60.818359" xlink:href="#e"/>
<use x="122.341797" xlink:href="#i"/>
<use x="163.439453" xlink:href="#j"/>
<use x="260.851562" xlink:href="#h"/>
<use x="288.634766" xlink:href="#g"/>
<use x="352.013672" xlink:href="#f"/>
<use x="413.292969" xlink:href="#k"/>
</g>
</g>
<path d="m572.01 762.67 1.4461-5.3674q0.62434-2.3174-1.693-2.9417l-7.4759-2.0141q-2.3174-0.62434-2.9417 1.693l-1.4461 5.3674q-0.62434 2.3174 1.693 2.9417l7.4759 2.0141q2.3174 0.62434 2.9417-1.693z" clip-path="url(#a)" fill="#fff" stroke="#fff"/>
<g clip-path="url(#a)">
<defs>
<path id="z" d="m44.391 34.188q3.1719-1.0781 6.1719-4.5938t6.0312-9.6719l10.016-19.922h-10.609l-9.3125 18.703q-3.625 7.3281-7.0156 9.7188t-9.25 2.3906h-10.75v-30.812h-9.8594v72.906h22.266q12.5 0 18.656-5.2344 6.1562-5.2188 6.1562-15.766 0-6.8906-3.2031-11.438-3.2031-4.5312-9.2969-6.2812zm-24.719 30.609v-25.875h12.406q7.125 0 10.766 3.2969t3.6406 9.6875-3.6406 9.6406-10.766 3.25z"/>
</defs>
<g transform="translate(568.09 761.61) rotate(-74.922) scale(.08 -.08)">
<use xlink:href="#z"/>
</g>
</g>
<path d="m583.6 757.29 1.4532 5.3939q0.62434 2.3174 2.9417 1.693l7.4759-2.0141q2.3174-0.62434 1.693-2.9417l-1.4532-5.3939q-0.62434-2.3174-2.9417-1.693l-7.4759 2.0141q-2.3174 0.62434-1.693 2.9417z" clip-path="url(#a)" fill="#fff" stroke="#fff"/>
<g clip-path="url(#a)">
<defs>
<path id="s" d="m64.406 67.281v-10.391q-4.9844 4.6406-10.625 6.9219-5.6406 2.2969-11.984 2.2969-12.5 0-19.141-7.6406t-6.6406-22.094q0-14.406 6.6406-22.047t19.141-7.6406q6.3438 0 11.984 2.2969t10.625 6.9375v-10.312q-5.1719-3.5156-10.969-5.2812-5.7812-1.75-12.219-1.75-16.562 0-26.094 10.125-9.5156 10.141-9.5156 27.672 0 17.578 9.5156 27.703 9.5312 10.141 26.094 10.141 6.5312 0 12.312-1.7344 5.7969-1.7344 10.875-5.2031z"/>
</defs>
<g transform="translate(587.52 756.23) rotate(74.922) scale(.08 -.08)">
<use xlink:href="#s"/>
</g>
</g>
<path d="m856.68 529.81 1.733-5.7612q0.69135-2.2983-1.6069-2.9896l-7.4143-2.2303q-2.2983-0.69135-2.9896 1.6069l-1.733 5.7612q-0.69135 2.2983 1.6069 2.9896l7.4143 2.2303q2.2983 0.69135 2.9896-1.6069z" clip-path="url(#a)" fill="#fff" stroke="#fff"/>
<g clip-path="url(#a)">
<g transform="translate(852.79 528.64) rotate(-73.258) scale(.08 -.08)">
<use xlink:href="#v"/>
</g>
</g>
<path d="m1061.2 301.72 5.6362 2.1044q2.2484 0.83947 3.0879-1.4089l2.7082-7.2534q0.83947-2.2484-1.4089-3.0879l-5.6362-2.1044q-2.2484-0.83947-3.0879 1.4089l-2.7082 7.2534q-0.83947 2.2484 1.4089 3.0879z" clip-path="url(#a)" fill="#fff" stroke="#fff"/>
<g clip-path="url(#a)">
<g transform="translate(1062.6 297.91) rotate(20.474) scale(.08 -.08)">
<use xlink:href="#v"/>
</g>
</g>
<path d="m892.78 529.07 0.99562-5.7697q0.40811-2.365-1.9569-2.7732l-7.6297-1.3166q-2.365-0.40811-2.7732 1.9569l-0.99562 5.7697q-0.40811 2.365 1.9569 2.7732l7.6297 1.3166q2.365 0.40811 2.7732-1.9569z" clip-path="url(#a)" fill="#fff" stroke="#fff"/>
<g clip-path="url(#a)">
<g transform="translate(888.78 528.38) rotate(-80.209) scale(.08 -.08)">
<use xlink:href="#u"/>
</g>
</g>
<path d="m757.77 865 9.1791-34.07q0.62434-2.3174-1.693-2.9417l-7.4759-2.0141q-2.3174-0.62434-2.9417 1.693l-9.1791 34.07q-0.62434 2.3174 1.693 2.9417l7.4759 2.0141q2.3174 0.62434 2.9417-1.693z" clip-path="url(#a)" fill="#fff" stroke="#fff"/>
<g clip-path="url(#a)">
<g transform="translate(753.84 863.94) rotate(-74.922) scale(.08 -.08)">
<use xlink:href="#l"/>
<use x="60.818359" xlink:href="#e"/>
<use x="122.341797" xlink:href="#i"/>
<use x="163.439453" xlink:href="#j"/>
<use x="260.851562" xlink:href="#h"/>
<use x="288.634766" xlink:href="#g"/>
<use x="352.013672" xlink:href="#f"/>
<use x="413.292969" xlink:href="#k"/>
</g>
</g>
<path d="m769.36 830.93 9.1791 34.07q0.62434 2.3174 2.9417 1.693l7.4759-2.0141q2.3174-0.62434 1.693-2.9417l-9.1791-34.07q-0.62434-2.3174-2.9417-1.693l-7.4759 2.0141q-2.3174 0.62434-1.693 2.9417z" clip-path="url(#a)" fill="#fff" stroke="#fff"/>
<g clip-path="url(#a)">
<g transform="translate(773.28 829.87) rotate(74.922) scale(.08 -.08)">
<use xlink:href="#l"/>
<use x="60.818359" xlink:href="#e"/>
<use x="122.341797" xlink:href="#i"/>
<use x="163.439453" xlink:href="#j"/>
<use x="260.851562" xlink:href="#h"/>
<use x="288.634766" xlink:href="#g"/>
<use x="352.013672" xlink:href="#f"/>
<use x="413.292969" xlink:href="#k"/>
</g>
</g>
<path d="m1114.7 491.16 2.8849-4.6503q1.2652-2.0394-0.77424-3.3046l-6.5793-4.0816q-2.0394-1.2652-3.3046 0.77424l-2.8849 4.6503q-1.2652 2.0394 0.77424 3.3046l6.5793 4.0816q2.0394 1.2652 3.3046-0.77424z" clip-path="url(#a)" fill="#fff" stroke="#fff"/>
<g clip-path="url(#a)">
<g transform="translate(1111.2 489.02) rotate(-58.186) scale(.08 -.08)">
<use xlink:href="#o"/>
</g>
</g>
<path d="m1201.6 571.87 0.23467 5.0733q0.11089 2.3974 2.5083 2.2865l7.7342-0.35774q2.3974-0.11089 2.2865-2.5083l-0.23467-5.0733q-0.11089-2.3974-2.5083-2.2865l-7.7342 0.35774q-2.3974 0.11089-2.2865 2.5083z" clip-path="url(#a)" fill="#fff" stroke="#fff"/>
<g clip-path="url(#a)">
<defs>
<path id="ar" d="m53.516 70.516v-9.625q-5.6094 2.6875-10.594 4-4.9844 1.3281-9.625 1.3281-8.0469 0-12.422-3.125t-4.375-8.8906q0-4.8438 2.9062-7.3125 2.9062-2.4531 11.016-3.9688l5.9531-1.2188q11.031-2.1094 16.281-7.4062t5.25-14.172q0-10.609-7.1094-16.078-7.0938-5.4688-20.812-5.4688-5.1719 0-11.016 1.1719-5.8281 1.1719-12.078 3.4688v10.156q6-3.3594 11.766-5.0781 5.7656-1.7031 11.328-1.7031 8.4375 0 13.031 3.3125 4.5938 3.3281 4.5938 9.4844 0 5.3594-3.2969 8.3906t-10.812 4.5469l-6.0156 1.1719q-11.031 2.1875-15.969 6.875-4.9219 4.6875-4.9219 13.047 0 9.6719 6.8125 15.234t18.766 5.5625q5.1406 0 10.453-0.9375 5.3281-0.92188 10.891-2.7656z"/>
</defs>
<g transform="translate(1205.6 571.68) rotate(87.352) scale(.08 -.08)">
<use xlink:href="#ar"/>
</g>
</g>
<path d="m1267.8 397.43 4.6369 2.9064q2.0336 1.2746 3.3082-0.75893l4.112-6.5603q1.2746-2.0336-0.75893-3.3082l-4.6369-2.9064q-2.0336-1.2746-3.3082 0.75893l-4.112 6.5603q-1.2746 2.0336 0.75893 3.3082z" clip-path="url(#a)" fill="#fff" stroke="#fff"/>
<g clip-path="url(#a)">
<g transform="translate(1270 393.99) rotate(32.079) scale(.08 -.08)">
<use xlink:href="#o"/>
</g>
</g>
<path d="m981.58 676.15 3.8883-3.8509q1.7053-1.6888 0.016441-3.3941l-5.4482-5.5012q-1.6888-1.7053-3.3941-0.016441l-3.8883 3.8509q-1.7053 1.6888-0.016441 3.3941l5.4482 5.5012q1.6888 1.7053 3.3941 0.016441z" clip-path="url(#a)" fill="#fff" stroke="#fff"/>
<g clip-path="url(#a)">
<g transform="translate(978.72 673.26) rotate(-44.722) scale(.08 -.08)">
<use xlink:href="#o"/>
</g>
</g>
<path d="m983.3 719.34 2.7915-5.4912q1.0876-2.1394-1.0518-3.227l-6.9019-3.5086q-2.1394-1.0876-3.227 1.0518l-2.7915 5.4912q-1.0876 2.1394 1.0518 3.227l6.9019 3.5086q2.1394 1.0876 3.227-1.0518z" clip-path="url(#a)" fill="#fff" stroke="#fff"/>
<g clip-path="url(#a)">
<defs>
<path id="at" d="m19.672 64.797v-56.688h11.922q15.094 0 22.094 6.8281 7 6.8438 7 21.594 0 14.641-7 21.453t-22.094 6.8125zm-9.8594 8.1094h20.266q21.188 0 31.094-8.8125 9.9219-8.8125 9.9219-27.562 0-18.859-9.9688-27.703-9.9531-8.8281-31.047-8.8281h-20.266z"/>
</defs>
<g transform="translate(979.68 717.5) rotate(-63.053) scale(.08 -.08)">
<use xlink:href="#at"/>
</g>
</g>
<path d="m1020.2 711.19 0.14637 5.4705q0.064191 2.3991 2.4633 2.335l7.7397-0.20708q2.3991-0.06419 2.335-2.4633l-0.14637-5.4705q-0.06419-2.3991-2.4633-2.335l-7.7397 0.20708q-2.3991 0.064191-2.335 2.4633z" clip-path="url(#a)" fill="#fff" stroke="#fff"/>
<g clip-path="url(#a)">
<g transform="translate(1024.2 711.08) rotate(88.467) scale(.08 -.08)">
<use xlink:href="#o"/>
</g>
</g>
<path d="m1043.5 713.21 1.3619 4.6275q0.67761 2.3024 2.98 1.6247l7.4275-2.186q2.3024-0.67761 1.6247-2.98l-1.3619-4.6275q-0.67761-2.3024-2.98-1.6247l-7.4275 2.186q-2.3024 0.67761-1.6247 2.98z" clip-path="url(#a)" fill="#fff" stroke="#fff"/>
<g clip-path="url(#a)">
<g transform="translate(1047.4 712.06) rotate(73.6) scale(.08 -.08)">
<use xlink:href="#aa"/>
</g>
</g>
<path d="m1079.9 673.24 4.4333 3.2085q1.9442 1.4071 3.3513-0.53715l4.5393-6.2722q1.4071-1.9442-0.53715-3.3513l-4.4333-3.2085q-1.9442-1.4071-3.3513 0.53715l-4.5393 6.2722q-1.4071 1.9442 0.53715 3.3513z" clip-path="url(#a)" fill="#fff" stroke="#fff"/>
<g clip-path="url(#a)">
<g transform="translate(1082.3 669.95) rotate(35.894) scale(.08 -.08)">
<use xlink:href="#o"/>
</g>
</g>
<path d="m1212.2 828.69v35.285q0 2.4 2.4 2.4h7.7425q2.4 0 2.4-2.4v-35.285q0-2.4-2.4-2.4h-7.7425q-2.4 0-2.4 2.4z" clip-path="url(#a)" fill="#fff" stroke="#fff"/>
<g clip-path="url(#a)">
<g transform="translate(1216.3 828.69) rotate(90) scale(.08 -.08)">
<use xlink:href="#l"/>
<use x="60.818359" xlink:href="#e"/>
<use x="122.341797" xlink:href="#i"/>
<use x="163.439453" xlink:href="#j"/>
<use x="260.851562" xlink:href="#h"/>
<use x="288.634766" xlink:href="#g"/>
<use x="352.013672" xlink:href="#f"/>
<use x="413.292969" xlink:href="#k"/>
</g>
</g>
<path d="m1313.3 625.67 1.1404-4.9247q0.54144-2.3381-1.7967-2.8796l-7.5429-1.7467q-2.3381-0.54144-2.8796 1.7967l-1.1404 4.9247q-0.54144 2.3381 1.7967 2.8796l7.5429 1.7467q2.3381 0.54144 2.8796-1.7967z" clip-path="url(#a)" fill="#fff" stroke="#fff"/>
<g clip-path="url(#a)">
<defs>
<path id="af" d="m9.8125 72.906h46.094v-8.3125h-36.234v-21.578h34.719v-8.2969h-34.719v-26.422h37.109v-8.2969h-46.969z"/>
</defs>
<g transform="translate(1309.3 624.76) rotate(-76.962) scale(.08 -.08)">
<use xlink:href="#af"/>
</g>
</g>
<path d="m1337.4 625.2 0.55743-5.5584q0.23949-2.388-2.1485-2.6275l-7.7039-0.77259q-2.388-0.23949-2.6275 2.1485l-0.55743 5.5584q-0.23949 2.388 2.1485 2.6275l7.7039 0.77259q2.388 0.23949 2.6275-2.1485z" clip-path="url(#a)" fill="#fff" stroke="#fff"/>
<g clip-path="url(#a)">
<g transform="translate(1333.3 624.8) rotate(-84.273) scale(.08 -.08)">
<use xlink:href="#s"/>
</g>
</g>
<path d="m1403.6 491.15 3.9936 3.0991q1.8961 1.4714 3.3674-0.42467l4.7467-6.1168q1.4714-1.8961-0.42467-3.3674l-3.9936-3.0991q-1.8961-1.4714-3.3674 0.42467l-4.7467 6.1168q-1.4714 1.8961 0.42467 3.3674z" clip-path="url(#a)" fill="#fff" stroke="#fff"/>
<g clip-path="url(#a)">
<g transform="translate(1406.1 487.94) rotate(37.812) scale(.08 -.08)">
<use xlink:href="#af"/>
</g>
</g>
<path d="m1259.6 828.69v35.285q0 2.4 2.4 2.4h7.7425q2.4 0 2.4-2.4v-35.285q0-2.4-2.4-2.4h-7.7425q-2.4 0-2.4 2.4z" clip-path="url(#a)" fill="#fff" stroke="#fff"/>
<g clip-path="url(#a)">
<g transform="translate(1263.7 828.69) rotate(90) scale(.08 -.08)">
<use xlink:href="#l"/>
<use x="60.818359" xlink:href="#e"/>
<use x="122.341797" xlink:href="#i"/>
<use x="163.439453" xlink:href="#j"/>
<use x="260.851562" xlink:href="#h"/>
<use x="288.634766" xlink:href="#g"/>
<use x="352.013672" xlink:href="#f"/>
<use x="413.292969" xlink:href="#k"/>
</g>
</g>
<path d="m1307 828.69v35.285q0 2.4 2.4 2.4h7.7425q2.4 0 2.4-2.4v-35.285q0-2.4-2.4-2.4h-7.7425q-2.4 0-2.4 2.4z" clip-path="url(#a)" fill="#fff" stroke="#fff"/>
<g clip-path="url(#a)">
<g transform="translate(1311.1 828.69) rotate(90) scale(.08 -.08)">
<use xlink:href="#l"/>
<use x="60.818359" xlink:href="#e"/>
<use x="122.341797" xlink:href="#i"/>
<use x="163.439453" xlink:href="#j"/>
<use x="260.851562" xlink:href="#h"/>
<use x="288.634766" xlink:href="#g"/>
<use x="352.013672" xlink:href="#f"/>
<use x="413.292969" xlink:href="#k"/>
</g>
</g>
<path d="m1419.8 673.18 2.0552-5.0719q0.90132-2.2243-1.323-3.1256l-7.1758-2.9077q-2.2243-0.90132-3.1256 1.323l-2.0552 5.0719q-0.90132 2.2243 1.323 3.1256l7.1758 2.9077q2.2243 0.90132 3.1256-1.323z" clip-path="url(#a)" fill="#fff" stroke="#fff"/>
<g clip-path="url(#a)">
<g transform="translate(1416.1 671.66) rotate(-67.942) scale(.08 -.08)">
<use xlink:href="#o"/>
</g>
</g>
<path d="m1456.2 627.94 0.98392-4.7223q0.48954-2.3495-1.86-2.8391l-7.5797-1.5793q-2.3495-0.48954-2.8391 1.86l-0.98392 4.7223q-0.48954 2.3495 1.86 2.8391l7.5797 1.5793q2.3495 0.48954 2.8391-1.86z" clip-path="url(#a)" fill="#fff" stroke="#fff"/>
<g clip-path="url(#a)">
<g transform="translate(1452.3 627.12) rotate(-78.23) scale(.08 -.08)">
<use xlink:href="#aa"/>
</g>
</g>
<path d="m1536.8 583.58 4.6469 2.8905q2.0379 1.2676 3.3056-0.77028l4.0894-6.5744q1.2676-2.0379-0.77028-3.3056l-4.6469-2.8905q-2.0379-1.2676-3.3056 0.77028l-4.0894 6.5744q-1.2676 2.0379 0.77028 3.3056z" clip-path="url(#a)" fill="#fff" stroke="#fff"/>
<g clip-path="url(#a)">
<g transform="translate(1539 580.13) rotate(31.883) scale(.08 -.08)">
<use xlink:href="#o"/>
</g>
</g>
<path d="m1354.5 828.69v35.285q0 2.4 2.4 2.4h7.7425q2.4 0 2.4-2.4v-35.285q0-2.4-2.4-2.4h-7.7425q-2.4 0-2.4 2.4z" clip-path="url(#a)" fill="#fff" stroke="#fff"/>
<g clip-path="url(#a)">
<g transform="translate(1358.5 828.69) rotate(90) scale(.08 -.08)">
<use xlink:href="#l"/>
<use x="60.818359" xlink:href="#e"/>
<use x="122.341797" xlink:href="#i"/>
<use x="163.439453" xlink:href="#j"/>
<use x="260.851562" xlink:href="#h"/>
<use x="288.634766" xlink:href="#g"/>
<use x="352.013672" xlink:href="#f"/>
<use x="413.292969" xlink:href="#k"/>
</g>
</g>
<path d="m1425.4 762.21 1.197-4.4428q0.62434-2.3174-1.693-2.9417l-7.4759-2.0141q-2.3174-0.62434-2.9417 1.693l-1.197 4.4428q-0.62434 2.3174 1.693 2.9417l7.4759 2.0141q2.3174 0.62434 2.9417-1.693z" clip-path="url(#a)" fill="#fff" stroke="#fff"/>
<g clip-path="url(#a)">
<defs>
<path id="am" d="m9.8125 72.906h41.891v-8.3125h-32.031v-21.484h28.906v-8.2969h-28.906v-34.812h-9.8594z"/>
</defs>
<g transform="translate(1421.5 761.15) rotate(-74.922) scale(.08 -.08)">
<use xlink:href="#am"/>
</g>
</g>
<path d="m1436.9 757.29 1.4532 5.3939q0.62434 2.3174 2.9417 1.693l7.4759-2.0141q2.3174-0.62434 1.693-2.9417l-1.4532-5.3939q-0.62434-2.3174-2.9417-1.693l-7.4759 2.0141q-2.3174 0.62434-1.693 2.9417z" clip-path="url(#a)" fill="#fff" stroke="#fff"/>
<g clip-path="url(#a)">
<g transform="translate(1440.8 756.23) rotate(74.922) scale(.08 -.08)">
<use xlink:href="#s"/>
</g>
</g>
<path d="m1573.6 676.16 3.9236-3.9376q1.694-1.7001-0.006036-3.3941l-5.4845-5.465q-1.7001-1.694-3.3941 0.006036l-3.9236 3.9376q-1.694 1.7001 0.006037 3.3941l5.4845 5.465q1.7001 1.694 3.3941-0.006036z" clip-path="url(#a)" fill="#fff" stroke="#fff"/>
<g clip-path="url(#a)">
<g transform="translate(1570.7 673.29) rotate(-45.102) scale(.08 -.08)">
<use xlink:href="#z"/>
</g>
</g>
<path d="m1612.6 717.16 0.55769-5.5583q0.2396-2.388-2.1484-2.6276l-7.7038-0.77295q-2.388-0.2396-2.6276 2.1484l-0.55769 5.5583q-0.2396 2.388 2.1484 2.6276l7.7038 0.77295q2.388 0.2396 2.6276-2.1484z" clip-path="url(#a)" fill="#fff" stroke="#fff"/>
<g clip-path="url(#a)">
<g transform="translate(1608.6 716.75) rotate(-84.271) scale(.08 -.08)">
<use xlink:href="#s"/>
</g>
</g>
<path d="m1623.7 711.9 0.96568 5.7748q0.39584 2.3671 2.763 1.9713l7.6365-1.277q2.3671-0.39584 1.9713-2.763l-0.96568-5.7748q-0.39584-2.3671-2.763-1.9713l-7.6365 1.277q-2.3671 0.39584-1.9713 2.763z" clip-path="url(#a)" fill="#fff" stroke="#fff"/>
<g clip-path="url(#a)">
<g transform="translate(1627.7 711.23) rotate(80.507) scale(.08 -.08)">
<use xlink:href="#u"/>
</g>
</g>
<path d="m1647.1 713.57 2.3345 5.3695q0.95693 2.201 3.1579 1.244l7.1004-3.0871q2.201-0.95693 1.244-3.1579l-2.3345-5.3695q-0.95693-2.201-3.1579-1.244l-7.1004 3.0871q-2.201 0.95693-1.244 3.1579z" clip-path="url(#a)" fill="#fff" stroke="#fff"/>
<g clip-path="url(#a)">
<g transform="translate(1650.9 711.95) rotate(66.502) scale(.08 -.08)">
<use xlink:href="#u"/>
</g>
</g>
<path d="m1520.1 762.68 1.4532-5.3939q0.62434-2.3174-1.693-2.9417l-7.4759-2.0141q-2.3174-0.62434-2.9417 1.693l-1.4532 5.3939q-0.62434 2.3174 1.693 2.9417l7.4759 2.0141q2.3174 0.62434 2.9417-1.693z" clip-path="url(#a)" fill="#fff" stroke="#fff"/>
<g clip-path="url(#a)">
<g transform="translate(1516.2 761.63) rotate(-74.922) scale(.08 -.08)">
<use xlink:href="#s"/>
</g>
</g>
<path d="m1531.8 757.76 1.197 4.4428q0.62434 2.3174 2.9417 1.693l7.4759-2.0141q2.3174-0.62434 1.693-2.9417l-1.197-4.4428q-0.62434-2.3174-2.9417-1.693l-7.4759 2.0141q-2.3174 0.62434-1.693 2.9417z" clip-path="url(#a)" fill="#fff" stroke="#fff"/>
<g clip-path="url(#a)">
<g transform="translate(1535.8 756.71) rotate(74.922) scale(.08 -.08)">
<use xlink:href="#am"/>
</g>
</g>
<path d="m1591.5 828.69v35.285q0 2.4 2.4 2.4h7.7425q2.4 0 2.4-2.4v-35.285q0-2.4-2.4-2.4h-7.7425q-2.4 0-2.4 2.4z" clip-path="url(#a)" fill="#fff" stroke="#fff"/>
<g clip-path="url(#a)">
<g transform="translate(1595.5 828.69) rotate(90) scale(.08 -.08)">
<use xlink:href="#l"/>
<use x="60.818359" xlink:href="#e"/>
<use x="122.341797" xlink:href="#i"/>
<use x="163.439453" xlink:href="#j"/>
<use x="260.851562" xlink:href="#h"/>
<use x="288.634766" xlink:href="#g"/>
<use x="352.013672" xlink:href="#f"/>
<use x="413.292969" xlink:href="#k"/>
</g>
</g>
<path d="m1496.7 828.69v35.285q0 2.4 2.4 2.4h7.7425q2.4 0 2.4-2.4v-35.285q0-2.4-2.4-2.4h-7.7425q-2.4 0-2.4 2.4z" clip-path="url(#a)" fill="#fff" stroke="#fff"/>
<g clip-path="url(#a)">
<g transform="translate(1500.7 828.69) rotate(90) scale(.08 -.08)">
<use xlink:href="#l"/>
<use x="60.818359" xlink:href="#e"/>
<use x="122.341797" xlink:href="#i"/>
<use x="163.439453" xlink:href="#j"/>
<use x="260.851562" xlink:href="#h"/>
<use x="288.634766" xlink:href="#g"/>
<use x="352.013672" xlink:href="#f"/>
<use x="413.292969" xlink:href="#k"/>
</g>
</g>
<path d="m1544.1 828.69v35.285q0 2.4 2.4 2.4h7.7425q2.4 0 2.4-2.4v-35.285q0-2.4-2.4-2.4h-7.7425q-2.4 0-2.4 2.4z" clip-path="url(#a)" fill="#fff" stroke="#fff"/>
<g clip-path="url(#a)">
<g transform="translate(1548.1 828.69) rotate(90) scale(.08 -.08)">
<use xlink:href="#l"/>
<use x="60.818359" xlink:href="#e"/>
<use x="122.341797" xlink:href="#i"/>
<use x="163.439453" xlink:href="#j"/>
<use x="260.851562" xlink:href="#h"/>
<use x="288.634766" xlink:href="#g"/>
<use x="352.013672" xlink:href="#f"/>
<use x="413.292969" xlink:href="#k"/>
</g>
</g>
<path d="m1401.9 828.69v35.285q0 2.4 2.4 2.4h7.7425q2.4 0 2.4-2.4v-35.285q0-2.4-2.4-2.4h-7.7425q-2.4 0-2.4 2.4z" clip-path="url(#a)" fill="#fff" stroke="#fff"/>
<g clip-path="url(#a)">
<g transform="translate(1405.9 828.69) rotate(90) scale(.08 -.08)">
<use xlink:href="#l"/>
<use x="60.818359" xlink:href="#e"/>
<use x="122.341797" xlink:href="#i"/>
<use x="163.439453" xlink:href="#j"/>
<use x="260.851562" xlink:href="#h"/>
<use x="288.634766" xlink:href="#g"/>
<use x="352.013672" xlink:href="#f"/>
<use x="413.292969" xlink:href="#k"/>
</g>
</g>
<path d="m1449.3 828.69v35.285q0 2.4 2.4 2.4h7.7425q2.4 0 2.4-2.4v-35.285q0-2.4-2.4-2.4h-7.7425q-2.4 0-2.4 2.4z" clip-path="url(#a)" fill="#fff" stroke="#fff"/>
<g clip-path="url(#a)">
<g transform="translate(1453.3 828.69) rotate(90) scale(.08 -.08)">
<use xlink:href="#l"/>
<use x="60.818359" xlink:href="#e"/>
<use x="122.341797" xlink:href="#i"/>
<use x="163.439453" xlink:href="#j"/>
<use x="260.851562" xlink:href="#h"/>
<use x="288.634766" xlink:href="#g"/>
<use x="352.013672" xlink:href="#f"/>
<use x="413.292969" xlink:href="#k"/>
</g>
</g>
<path d="m914.69 763.55 2.3979-4.4501q1.1384-2.1128-0.97436-3.2512l-6.816-3.6727q-2.1128-1.1384-3.2513 0.97436l-2.3979 4.4501q-1.1384 2.1128 0.97436 3.2512l6.816 3.6727q2.1128 1.1384 3.2513-0.97436z" clip-path="url(#a)" fill="#fff" stroke="#fff"/>
<g clip-path="url(#a)">
<g transform="translate(911.11 761.63) rotate(-61.683) scale(.08 -.08)">
<use xlink:href="#af"/>
</g>
</g>
<path d="m950.93 758.87 2.6499 4.9178q1.1384 2.1128 3.2512 0.97436l6.816-3.6727q2.1128-1.1384 0.97436-3.2512l-2.6499-4.9178q-1.1384-2.1128-3.2513-0.97436l-6.816 3.6727q-2.1128 1.1384-0.97436 3.2512z" clip-path="url(#a)" fill="#fff" stroke="#fff"/>
<g clip-path="url(#a)">
<g transform="translate(954.51 756.94) rotate(61.683) scale(.08 -.08)">
<use xlink:href="#s"/>
</g>
</g>
<path d="m927.8 828.69v35.285q0 2.4 2.4 2.4h7.7425q2.4 0 2.4-2.4v-35.285q0-2.4-2.4-2.4h-7.7425q-2.4 0-2.4 2.4z" clip-path="url(#a)" fill="#fff" stroke="#fff"/>
<g clip-path="url(#a)">
<g transform="translate(931.86 828.69) rotate(90) scale(.08 -.08)">
<use xlink:href="#l"/>
<use x="60.818359" xlink:href="#e"/>
<use x="122.341797" xlink:href="#i"/>
<use x="163.439453" xlink:href="#j"/>
<use x="260.851562" xlink:href="#h"/>
<use x="288.634766" xlink:href="#g"/>
<use x="352.013672" xlink:href="#f"/>
<use x="413.292969" xlink:href="#k"/>
</g>
</g>
<path d="m1022.6 828.69v35.285q0 2.4 2.4 2.4h7.7425q2.4 0 2.4-2.4v-35.285q0-2.4-2.4-2.4h-7.7425q-2.4 0-2.4 2.4z" clip-path="url(#a)" fill="#fff" stroke="#fff"/>
<g clip-path="url(#a)">
<g transform="translate(1026.7 828.69) rotate(90) scale(.08 -.08)">
<use xlink:href="#l"/>
<use x="60.818359" xlink:href="#e"/>
<use x="122.341797" xlink:href="#i"/>
<use x="163.439453" xlink:href="#j"/>
<use x="260.851562" xlink:href="#h"/>
<use x="288.634766" xlink:href="#g"/>
<use x="352.013672" xlink:href="#f"/>
<use x="413.292969" xlink:href="#k"/>
</g>
</g>
<path d="m1070 828.69v35.285q0 2.4 2.4 2.4h7.7425q2.4 0 2.4-2.4v-35.285q0-2.4-2.4-2.4h-7.7425q-2.4 0-2.4 2.4z" clip-path="url(#a)" fill="#fff" stroke="#fff"/>
<g clip-path="url(#a)">
<g transform="translate(1074.1 828.69) rotate(90) scale(.08 -.08)">
<use xlink:href="#l"/>
<use x="60.818359" xlink:href="#e"/>
<use x="122.341797" xlink:href="#i"/>
<use x="163.439453" xlink:href="#j"/>
<use x="260.851562" xlink:href="#h"/>
<use x="288.634766" xlink:href="#g"/>
<use x="352.013672" xlink:href="#f"/>
<use x="413.292969" xlink:href="#k"/>
</g>
</g>
<path d="m1140.9 762.67 1.4461-5.3674q0.62434-2.3174-1.693-2.9417l-7.4759-2.0141q-2.3174-0.62434-2.9417 1.693l-1.4461 5.3674q-0.62434 2.3174 1.693 2.9417l7.4759 2.0141q2.3174 0.62434 2.9417-1.693z" clip-path="url(#a)" fill="#fff" stroke="#fff"/>
<g clip-path="url(#a)">
<g transform="translate(1137 761.61) rotate(-74.922) scale(.08 -.08)">
<use xlink:href="#z"/>
</g>
</g>
<path d="m1152.5 757.29 1.4532 5.3939q0.62434 2.3174 2.9417 1.693l7.4759-2.0141q2.3174-0.62434 1.693-2.9417l-1.4532-5.3939q-0.62434-2.3174-2.9417-1.693l-7.4759 2.0141q-2.3174 0.62434-1.693 2.9417z" clip-path="url(#a)" fill="#fff" stroke="#fff"/>
<g clip-path="url(#a)">
<g transform="translate(1156.4 756.23) rotate(74.922) scale(.08 -.08)">
<use xlink:href="#s"/>
</g>
</g>
<path d="m1117.4 828.69v35.285q0 2.4 2.4 2.4h7.7425q2.4 0 2.4-2.4v-35.285q0-2.4-2.4-2.4h-7.7425q-2.4 0-2.4 2.4z" clip-path="url(#a)" fill="#fff" stroke="#fff"/>
<g clip-path="url(#a)">
<g transform="translate(1121.5 828.69) rotate(90) scale(.08 -.08)">
<use xlink:href="#l"/>
<use x="60.818359" xlink:href="#e"/>
<use x="122.341797" xlink:href="#i"/>
<use x="163.439453" xlink:href="#j"/>
<use x="260.851562" xlink:href="#h"/>
<use x="288.634766" xlink:href="#g"/>
<use x="352.013672" xlink:href="#f"/>
<use x="413.292969" xlink:href="#k"/>
</g>
</g>
<path d="m1164.8 828.69v35.285q0 2.4 2.4 2.4h7.7425q2.4 0 2.4-2.4v-35.285q0-2.4-2.4-2.4h-7.7425q-2.4 0-2.4 2.4z" clip-path="url(#a)" fill="#fff" stroke="#fff"/>
<g clip-path="url(#a)">
<g transform="translate(1168.9 828.69) rotate(90) scale(.08 -.08)">
<use xlink:href="#l"/>
<use x="60.818359" xlink:href="#e"/>
<use x="122.341797" xlink:href="#i"/>
<use x="163.439453" xlink:href="#j"/>
<use x="260.851562" xlink:href="#h"/>
<use x="288.634766" xlink:href="#g"/>
<use x="352.013672" xlink:href="#f"/>
<use x="413.292969" xlink:href="#k"/>
</g>
</g>
<path d="m880.4 828.69v35.285q0 2.4 2.4 2.4h7.7425q2.4 0 2.4-2.4v-35.285q0-2.4-2.4-2.4h-7.7425q-2.4 0-2.4 2.4z" clip-path="url(#a)" fill="#fff" stroke="#fff"/>
<g clip-path="url(#a)">
<g transform="translate(884.46 828.69) rotate(90) scale(.08 -.08)">
<use xlink:href="#l"/>
<use x="60.818359" xlink:href="#e"/>
<use x="122.341797" xlink:href="#i"/>
<use x="163.439453" xlink:href="#j"/>
<use x="260.851562" xlink:href="#h"/>
<use x="288.634766" xlink:href="#g"/>
<use x="352.013672" xlink:href="#f"/>
<use x="413.292969" xlink:href="#k"/>
</g>
</g>
<path d="m975.21 828.69v35.285q0 2.4 2.4 2.4h7.7425q2.4 0 2.4-2.4v-35.285q0-2.4-2.4-2.4h-7.7425q-2.4 0-2.4 2.4z" clip-path="url(#a)" fill="#fff" stroke="#fff"/>
<g clip-path="url(#a)">
<g transform="translate(979.27 828.69) rotate(90) scale(.08 -.08)">
<use xlink:href="#l"/>
<use x="60.818359" xlink:href="#e"/>
<use x="122.341797" xlink:href="#i"/>
<use x="163.439453" xlink:href="#j"/>
<use x="260.851562" xlink:href="#h"/>
<use x="288.634766" xlink:href="#g"/>
<use x="352.013672" xlink:href="#f"/>
<use x="413.292969" xlink:href="#k"/>
</g>
</g>
<path d="m548.56 828.69v35.285q0 2.4 2.4 2.4h7.7425q2.4 0 2.4-2.4v-35.285q0-2.4-2.4-2.4h-7.7425q-2.4 0-2.4 2.4z" clip-path="url(#a)" fill="#fff" stroke="#fff"/>
<g clip-path="url(#a)">
<g transform="translate(552.62 828.69) rotate(90) scale(.08 -.08)">
<use xlink:href="#l"/>
<use x="60.818359" xlink:href="#e"/>
<use x="122.341797" xlink:href="#i"/>
<use x="163.439453" xlink:href="#j"/>
<use x="260.851562" xlink:href="#h"/>
<use x="288.634766" xlink:href="#g"/>
<use x="352.013672" xlink:href="#f"/>
<use x="413.292969" xlink:href="#k"/>
</g>
</g>
<path d="m595.96 828.69v35.285q0 2.4 2.4 2.4h7.7425q2.4 0 2.4-2.4v-35.285q0-2.4-2.4-2.4h-7.7425q-2.4 0-2.4 2.4z" clip-path="url(#a)" fill="#fff" stroke="#fff"/>
<g clip-path="url(#a)">
<g transform="translate(600.03 828.69) rotate(90) scale(.08 -.08)">
<use xlink:href="#l"/>
<use x="60.818359" xlink:href="#e"/>
<use x="122.341797" xlink:href="#i"/>
<use x="163.439453" xlink:href="#j"/>
<use x="260.851562" xlink:href="#h"/>
<use x="288.634766" xlink:href="#g"/>
<use x="352.013672" xlink:href="#f"/>
<use x="413.292969" xlink:href="#k"/>
</g>
</g>
<path d="m74.501 828.69v35.285q0 2.4 2.4 2.4h7.7425q2.4 0 2.4-2.4v-35.285q0-2.4-2.4-2.4h-7.7425q-2.4 0-2.4 2.4z" clip-path="url(#a)" fill="#fff" stroke="#fff"/>
<g clip-path="url(#a)">
<g transform="translate(78.565 828.69) rotate(90) scale(.08 -.08)">
<use xlink:href="#l"/>
<use x="60.818359" xlink:href="#e"/>
<use x="122.341797" xlink:href="#i"/>
<use x="163.439453" xlink:href="#j"/>
<use x="260.851562" xlink:href="#h"/>
<use x="288.634766" xlink:href="#g"/>
<use x="352.013672" xlink:href="#f"/>
<use x="413.292969" xlink:href="#k"/>
</g>
</g>
<path d="m121.91 828.69v35.285q0 2.4 2.4 2.4h7.7425q2.4 0 2.4-2.4v-35.285q0-2.4-2.4-2.4h-7.7425q-2.4 0-2.4 2.4z" clip-path="url(#a)" fill="#fff" stroke="#fff"/>
<g clip-path="url(#a)">
<g transform="translate(125.97 828.69) rotate(90) scale(.08 -.08)">
<use xlink:href="#l"/>
<use x="60.818359" xlink:href="#e"/>
<use x="122.341797" xlink:href="#i"/>
<use x="163.439453" xlink:href="#j"/>
<use x="260.851562" xlink:href="#h"/>
<use x="288.634766" xlink:href="#g"/>
<use x="352.013672" xlink:href="#f"/>
<use x="413.292969" xlink:href="#k"/>
</g>
</g>
<path d="m159.61 719.91 3.5591-4.157q1.5609-1.8231-0.2622-3.384l-5.8814-5.0355q-1.8231-1.5609-3.384 0.2622l-3.5591 4.157q-1.5609 1.8231 0.2622 3.384l5.8814 5.0355q1.8231 1.5609 3.384-0.2622z" clip-path="url(#a)" fill="#fff" stroke="#fff"/>
<g clip-path="url(#a)">
<g transform="translate(156.52 717.27) rotate(-49.431) scale(.08 -.08)">
<use xlink:href="#o"/>
</g>
</g>
<path d="m209.15 718.32 1.6993-5.2926q0.73367-2.2851-1.5514-3.0188l-7.3719-2.3669q-2.2851-0.73367-3.0188 1.5514l-1.6993 5.2926q-0.73367 2.2851 1.5514 3.0188l7.3719 2.3669q2.2851 0.73367 3.0188-1.5514z" clip-path="url(#a)" fill="#fff" stroke="#fff"/>
<g clip-path="url(#a)">
<g transform="translate(205.28 717.07) rotate(-72.2) scale(.08 -.08)">
<use xlink:href="#z"/>
</g>
</g>
<path d="m233.86 716.5 0.25776-4.8169q0.12824-2.3966-2.2683-2.5248l-7.7314-0.41372q-2.3966-0.12824-2.5248 2.2683l-0.25776 4.8169q-0.12824 2.3966 2.2683 2.5248l7.7314 0.41372q2.3966 0.12824 2.5248-2.2683z" clip-path="url(#a)" fill="#fff" stroke="#fff"/>
<g clip-path="url(#a)">
<g transform="translate(229.81 716.28) rotate(-86.937) scale(.08 -.08)">
<use xlink:href="#aa"/>
</g>
</g>
<path d="m256.57 671.08 3.1106 4.5025q1.3642 1.9746 3.3388 0.6104l6.3701-4.4009q1.9746-1.3642 0.6104-3.3388l-3.1106-4.5025q-1.3642-1.9746-3.3388-0.6104l-6.3701 4.4009q-1.9746 1.3642-0.6104 3.3388z" clip-path="url(#a)" fill="#fff" stroke="#fff"/>
<g clip-path="url(#a)">
<g transform="translate(259.91 668.77) rotate(55.361) scale(.08 -.08)">
<use xlink:href="#o"/>
</g>
</g>
<path d="m305.21 673.86 4.754 2.7107q2.0849 1.1888 3.2737-0.89607l3.8352-6.7259q1.1888-2.0849-0.89607-3.2737l-4.754-2.7107q-2.0849-1.1888-3.2737 0.89607l-3.8352 6.7259q-1.1888 2.0849 0.89607 3.2737z" clip-path="url(#a)" fill="#fff" stroke="#fff"/>
<g clip-path="url(#a)">
<g transform="translate(307.22 670.33) rotate(29.692) scale(.08 -.08)">
<use xlink:href="#o"/>
</g>
</g>
<path d="m169.31 828.69v35.285q0 2.4 2.4 2.4h7.7425q2.4 0 2.4-2.4v-35.285q0-2.4-2.4-2.4h-7.7425q-2.4 0-2.4 2.4z" clip-path="url(#a)" fill="#fff" stroke="#fff"/>
<g clip-path="url(#a)">
<g transform="translate(173.38 828.69) rotate(90) scale(.08 -.08)">
<use xlink:href="#l"/>
<use x="60.818359" xlink:href="#e"/>
<use x="122.341797" xlink:href="#i"/>
<use x="163.439453" xlink:href="#j"/>
<use x="260.851562" xlink:href="#h"/>
<use x="288.634766" xlink:href="#g"/>
<use x="352.013672" xlink:href="#f"/>
<use x="413.292969" xlink:href="#k"/>
</g>
</g>
<path d="m216.72 828.69v35.285q0 2.4 2.4 2.4h7.7425q2.4 0 2.4-2.4v-35.285q0-2.4-2.4-2.4h-7.7425q-2.4 0-2.4 2.4z" clip-path="url(#a)" fill="#fff" stroke="#fff"/>
<g clip-path="url(#a)">
<g transform="translate(220.78 828.69) rotate(90) scale(.08 -.08)">
<use xlink:href="#l"/>
<use x="60.818359" xlink:href="#e"/>
<use x="122.341797" xlink:href="#i"/>
<use x="163.439453" xlink:href="#j"/>
<use x="260.851562" xlink:href="#h"/>
<use x="288.634766" xlink:href="#g"/>
<use x="352.013672" xlink:href="#f"/>
<use x="413.292969" xlink:href="#k"/>
</g>
</g>
<path d="m287.64 762.43 1.315-4.881q0.62434-2.3174-1.693-2.9417l-7.4759-2.0141q-2.3174-0.62434-2.9417 1.693l-1.315 4.881q-0.62434 2.3174 1.693 2.9417l7.4759 2.0141q2.3174 0.62434 2.9417-1.693z" clip-path="url(#a)" fill="#fff" stroke="#fff"/>
<g clip-path="url(#a)">
<g transform="translate(283.72 761.37) rotate(-74.922) scale(.08 -.08)">
<use xlink:href="#af"/>
</g>
</g>
<path d="m299.17 757.29 1.4532 5.3939q0.62434 2.3174 2.9417 1.693l7.4759-2.0141q2.3174-0.62434 1.693-2.9417l-1.4532-5.3939q-0.62434-2.3174-2.9417-1.693l-7.4759 2.0141q-2.3174 0.62434-1.693 2.9417z" clip-path="url(#a)" fill="#fff" stroke="#fff"/>
<g clip-path="url(#a)">
<g transform="translate(303.09 756.23) rotate(74.922) scale(.08 -.08)">
<use xlink:href="#s"/>
</g>
</g>
<path d="m382.39 762.67 1.4461-5.3674q0.62434-2.3174-1.693-2.9417l-7.4759-2.0141q-2.3174-0.62434-2.9417 1.693l-1.4461 5.3674q-0.62434 2.3174 1.693 2.9417l7.4759 2.0141q2.3174 0.62434 2.9417-1.693z" clip-path="url(#a)" fill="#fff" stroke="#fff"/>
<g clip-path="url(#a)">
<g transform="translate(378.47 761.61) rotate(-74.922) scale(.08 -.08)">
<use xlink:href="#z"/>
</g>
</g>
<path d="m393.98 757.29 1.4532 5.3939q0.62434 2.3174 2.9417 1.693l7.4759-2.0141q2.3174-0.62434 1.693-2.9417l-1.4532-5.3939q-0.62434-2.3174-2.9417-1.693l-7.4759 2.0141q-2.3174 0.62434-1.693 2.9417z" clip-path="url(#a)" fill="#fff" stroke="#fff"/>
<g clip-path="url(#a)">
<g transform="translate(397.9 756.23) rotate(74.922) scale(.08 -.08)">
<use xlink:href="#s"/>
</g>
</g>
<path d="m358.93 828.69v35.285q0 2.4 2.4 2.4h7.7425q2.4 0 2.4-2.4v-35.285q0-2.4-2.4-2.4h-7.7425q-2.4 0-2.4 2.4z" clip-path="url(#a)" fill="#fff" stroke="#fff"/>
<g clip-path="url(#a)">
<g transform="translate(363 828.69) rotate(90) scale(.08 -.08)">
<use xlink:href="#l"/>
<use x="60.818359" xlink:href="#e"/>
<use x="122.341797" xlink:href="#i"/>
<use x="163.439453" xlink:href="#j"/>
<use x="260.851562" xlink:href="#h"/>
<use x="288.634766" xlink:href="#g"/>
<use x="352.013672" xlink:href="#f"/>
<use x="413.292969" xlink:href="#k"/>
</g>
</g>
<path d="m406.34 828.69v35.285q0 2.4 2.4 2.4h7.7425q2.4 0 2.4-2.4v-35.285q0-2.4-2.4-2.4h-7.7425q-2.4 0-2.4 2.4z" clip-path="url(#a)" fill="#fff" stroke="#fff"/>
<g clip-path="url(#a)">
<g transform="translate(410.4 828.69) rotate(90) scale(.08 -.08)">
<use xlink:href="#l"/>
<use x="60.818359" xlink:href="#e"/>
<use x="122.341797" xlink:href="#i"/>
<use x="163.439453" xlink:href="#j"/>
<use x="260.851562" xlink:href="#h"/>
<use x="288.634766" xlink:href="#g"/>
<use x="352.013672" xlink:href="#f"/>
<use x="413.292969" xlink:href="#k"/>
</g>
</g>
<path d="m264.12 828.69v35.285q0 2.4 2.4 2.4h7.7425q2.4 0 2.4-2.4v-35.285q0-2.4-2.4-2.4h-7.7425q-2.4 0-2.4 2.4z" clip-path="url(#a)" fill="#fff" stroke="#fff"/>
<g clip-path="url(#a)">
<g transform="translate(268.19 828.69) rotate(90) scale(.08 -.08)">
<use xlink:href="#l"/>
<use x="60.818359" xlink:href="#e"/>
<use x="122.341797" xlink:href="#i"/>
<use x="163.439453" xlink:href="#j"/>
<use x="260.851562" xlink:href="#h"/>
<use x="288.634766" xlink:href="#g"/>
<use x="352.013672" xlink:href="#f"/>
<use x="413.292969" xlink:href="#k"/>
</g>
</g>
<path d="m311.53 828.69v35.285q0 2.4 2.4 2.4h7.7425q2.4 0 2.4-2.4v-35.285q0-2.4-2.4-2.4h-7.7425q-2.4 0-2.4 2.4z" clip-path="url(#a)" fill="#fff" stroke="#fff"/>
<g clip-path="url(#a)">
<g transform="translate(315.59 828.69) rotate(90) scale(.08 -.08)">
<use xlink:href="#l"/>
<use x="60.818359" xlink:href="#e"/>
<use x="122.341797" xlink:href="#i"/>
<use x="163.439453" xlink:href="#j"/>
<use x="260.851562" xlink:href="#h"/>
<use x="288.634766" xlink:href="#g"/>
<use x="352.013672" xlink:href="#f"/>
<use x="413.292969" xlink:href="#k"/>
</g>
</g>
<path d="m453.75 828.69v35.285q0 2.4 2.4 2.4h7.7425q2.4 0 2.4-2.4v-35.285q0-2.4-2.4-2.4h-7.7425q-2.4 0-2.4 2.4z" clip-path="url(#a)" fill="#fff" stroke="#fff"/>
<g clip-path="url(#a)">
<g transform="translate(457.81 828.69) rotate(90) scale(.08 -.08)">
<use xlink:href="#l"/>
<use x="60.818359" xlink:href="#e"/>
<use x="122.341797" xlink:href="#i"/>
<use x="163.439453" xlink:href="#j"/>
<use x="260.851562" xlink:href="#h"/>
<use x="288.634766" xlink:href="#g"/>
<use x="352.013672" xlink:href="#f"/>
<use x="413.292969" xlink:href="#k"/>
</g>
</g>
<path d="m643.37 828.69v35.285q0 2.4 2.4 2.4h7.7425q2.4 0 2.4-2.4v-35.285q0-2.4-2.4-2.4h-7.7425q-2.4 0-2.4 2.4z" clip-path="url(#a)" fill="#fff" stroke="#fff"/>
<g clip-path="url(#a)">
<g transform="translate(647.43 828.69) rotate(90) scale(.08 -.08)">
<use xlink:href="#l"/>
<use x="60.818359" xlink:href="#e"/>
<use x="122.341797" xlink:href="#i"/>
<use x="163.439453" xlink:href="#j"/>
<use x="260.851562" xlink:href="#h"/>
<use x="288.634766" xlink:href="#g"/>
<use x="352.013672" xlink:href="#f"/>
<use x="413.292969" xlink:href="#k"/>
</g>
</g>
<path d="m690.77 828.69v35.285q0 2.4 2.4 2.4h7.7425q2.4 0 2.4-2.4v-35.285q0-2.4-2.4-2.4h-7.7425q-2.4 0-2.4 2.4z" clip-path="url(#a)" fill="#fff" stroke="#fff"/>
<g clip-path="url(#a)">
<g transform="translate(694.84 828.69) rotate(90) scale(.08 -.08)">
<use xlink:href="#l"/>
<use x="60.818359" xlink:href="#e"/>
<use x="122.341797" xlink:href="#i"/>
<use x="163.439453" xlink:href="#j"/>
<use x="260.851562" xlink:href="#h"/>
<use x="288.634766" xlink:href="#g"/>
<use x="352.013672" xlink:href="#f"/>
<use x="413.292969" xlink:href="#k"/>
</g>
</g>
<path d="m832.99 828.69v35.285q0 2.4 2.4 2.4h7.7425q2.4 0 2.4-2.4v-35.285q0-2.4-2.4-2.4h-7.7425q-2.4 0-2.4 2.4z" clip-path="url(#a)" fill="#fff" stroke="#fff"/>
<g clip-path="url(#a)">
<g transform="translate(837.05 828.69) rotate(90) scale(.08 -.08)">
<use xlink:href="#l"/>
<use x="60.818359" xlink:href="#e"/>
<use x="122.341797" xlink:href="#i"/>
<use x="163.439453" xlink:href="#j"/>
<use x="260.851562" xlink:href="#h"/>
<use x="288.634766" xlink:href="#g"/>
<use x="352.013672" xlink:href="#f"/>
<use x="413.292969" xlink:href="#k"/>
</g>
</g>
<path d="m1638.9 828.69v35.285q0 2.4 2.4 2.4h7.7425q2.4 0 2.4-2.4v-35.285q0-2.4-2.4-2.4h-7.7425q-2.4 0-2.4 2.4z" clip-path="url(#a)" fill="#fff" stroke="#fff"/>
<g clip-path="url(#a)">
<g transform="translate(1642.9 828.69) rotate(90) scale(.08 -.08)">
<use xlink:href="#l"/>
<use x="60.818359" xlink:href="#e"/>
<use x="122.341797" xlink:href="#i"/>
<use x="163.439453" xlink:href="#j"/>
<use x="260.851562" xlink:href="#h"/>
<use x="288.634766" xlink:href="#g"/>
<use x="352.013672" xlink:href="#f"/>
<use x="413.292969" xlink:href="#k"/>
</g>
</g>
<path d="m1686.3 828.69v35.285q0 2.4 2.4 2.4h7.7425q2.4 0 2.4-2.4v-35.285q0-2.4-2.4-2.4h-7.7425q-2.4 0-2.4 2.4z" clip-path="url(#a)" fill="#fff" stroke="#fff"/>
<g clip-path="url(#a)">
<g transform="translate(1690.4 828.69) rotate(90) scale(.08 -.08)">
<use xlink:href="#l"/>
<use x="60.818359" xlink:href="#e"/>
<use x="122.341797" xlink:href="#i"/>
<use x="163.439453" xlink:href="#j"/>
<use x="260.851562" xlink:href="#h"/>
<use x="288.634766" xlink:href="#g"/>
<use x="352.013672" xlink:href="#f"/>
<use x="413.292969" xlink:href="#k"/>
</g>
</g>
<defs>
<path id="b" d="m0 8.6603c2.2967 0 4.4997-0.9125 6.1237-2.5365 1.624-1.624 2.5365-3.827 2.5365-6.1237s-0.9125-4.4997-2.5365-6.1237c-1.624-1.624-3.827-2.5365-6.1237-2.5365s-4.4997 0.9125-6.1237 2.5365c-1.624 1.624-2.5365 3.827-2.5365 6.1237s0.9125 4.4997 2.5365 6.1237c1.624 1.624 3.827 2.5365 6.1237 2.5365z"/>
</defs>
<g clip-path="url(#a)">
<use x="80.772748" y="890.321329" fill="#ffffff" stroke="#ffffff" xlink:href="#b"/>
</g>
<g clip-path="url(#a)">
<use x="128.178272" y="890.321329" fill="#ffffff" stroke="#ffffff" xlink:href="#b"/>
</g>
<g clip-path="url(#a)">
<use x="175.583797" y="890.321329" fill="#ffffff" stroke="#ffffff" xlink:href="#b"/>
</g>
<g clip-path="url(#a)">
<use x="222.989322" y="890.321329" fill="#ffffff" stroke="#ffffff" xlink:href="#b"/>
</g>
<g clip-path="url(#a)">
<use x="270.394846" y="890.321329" fill="#ffffff" stroke="#ffffff" xlink:href="#b"/>
</g>
<g clip-path="url(#a)">
<use x="317.800371" y="890.321329" fill="#ffffff" stroke="#ffffff" xlink:href="#b"/>
</g>
<g clip-path="url(#a)">
<use x="365.205896" y="890.321329" fill="#ffffff" stroke="#ffffff" xlink:href="#b"/>
</g>
<g clip-path="url(#a)">
<use x="412.61142" y="890.321329" fill="#ffffff" stroke="#ffffff" xlink:href="#b"/>
</g>
<g clip-path="url(#a)">
<use x="460.016945" y="890.321329" fill="#ffffff" stroke="#ffffff" xlink:href="#b"/>
</g>
<g clip-path="url(#a)">
<use x="507.422469" y="890.321329" fill="#ffffff" stroke="#ffffff" xlink:href="#b"/>
</g>
<g clip-path="url(#a)">
<use x="554.827994" y="890.321329" fill="#ffffff" stroke="#ffffff" xlink:href="#b"/>
</g>
<g clip-path="url(#a)">
<use x="602.233519" y="890.321329" fill="#ffffff" stroke="#ffffff" xlink:href="#b"/>
</g>
<g clip-path="url(#a)">
<use x="649.639043" y="890.321329" fill="#ffffff" stroke="#ffffff" xlink:href="#b"/>
</g>
<g clip-path="url(#a)">
<use x="697.044568" y="890.321329" fill="#ffffff" stroke="#ffffff" xlink:href="#b"/>
</g>
<g clip-path="url(#a)">
<use x="744.450093" y="890.321329" fill="#ffffff" stroke="#ffffff" xlink:href="#b"/>
</g>
<g clip-path="url(#a)">
<use x="791.855617" y="890.321329" fill="#ffffff" stroke="#ffffff" xlink:href="#b"/>
</g>
<g clip-path="url(#a)">
<use x="839.261142" y="890.321329" fill="#ffffff" stroke="#ffffff" xlink:href="#b"/>
</g>
<g clip-path="url(#a)">
<use x="886.666667" y="890.321329" fill="#ffffff" stroke="#ffffff" xlink:href="#b"/>
</g>
<g clip-path="url(#a)">
<use x="934.072191" y="890.321329" fill="#ffffff" stroke="#ffffff" xlink:href="#b"/>
</g>
<g clip-path="url(#a)">
<use x="981.477716" y="890.321329" fill="#ffffff" stroke="#ffffff" xlink:href="#b"/>
</g>
<g clip-path="url(#a)">
<use x="1028.883241" y="890.321329" fill="#ffffff" stroke="#ffffff" xlink:href="#b"/>
</g>
<g clip-path="url(#a)">
<use x="1076.288765" y="890.321329" fill="#ffffff" stroke="#ffffff" xlink:href="#b"/>
</g>
<g clip-path="url(#a)">
<use x="1123.69429" y="890.321329" fill="#ffffff" stroke="#ffffff" xlink:href="#b"/>
</g>
<g clip-path="url(#a)">
<use x="1171.099815" y="890.321329" fill="#ffffff" stroke="#ffffff" xlink:href="#b"/>
</g>
<g clip-path="url(#a)">
<use x="1218.505339" y="890.321329" fill="#ffffff" stroke="#ffffff" xlink:href="#b"/>
</g>
<g clip-path="url(#a)">
<use x="1265.910864" y="890.321329" fill="#ffffff" stroke="#ffffff" xlink:href="#b"/>
</g>
<g clip-path="url(#a)">
<use x="1313.316389" y="890.321329" fill="#ffffff" stroke="#ffffff" xlink:href="#b"/>
</g>
<g clip-path="url(#a)">
<use x="1360.721913" y="890.321329" fill="#ffffff" stroke="#ffffff" xlink:href="#b"/>
</g>
<g clip-path="url(#a)">
<use x="1408.127438" y="890.321329" fill="#ffffff" stroke="#ffffff" xlink:href="#b"/>
</g>
<g clip-path="url(#a)">
<use x="1455.532962" y="890.321329" fill="#ffffff" stroke="#ffffff" xlink:href="#b"/>
</g>
<g clip-path="url(#a)">
<use x="1502.938487" y="890.321329" fill="#ffffff" stroke="#ffffff" xlink:href="#b"/>
</g>
<g clip-path="url(#a)">
<use x="1550.344012" y="890.321329" fill="#ffffff" stroke="#ffffff" xlink:href="#b"/>
</g>
<g clip-path="url(#a)">
<use x="1597.749536" y="890.321329" fill="#ffffff" stroke="#ffffff" xlink:href="#b"/>
</g>
<g clip-path="url(#a)">
<use x="1645.155061" y="890.321329" fill="#ffffff" stroke="#ffffff" xlink:href="#b"/>
</g>
<g clip-path="url(#a)">
<use x="1692.560586" y="890.321329" fill="#ffffff" stroke="#ffffff" xlink:href="#b"/>
</g>
<g clip-path="url(#a)">
<use x="393.960533" y="43.012004" fill="#ffffff" stroke="#ffffff" xlink:href="#b"/>
</g>
<g clip-path="url(#a)">
<use x="147.140482" y="534.243067" fill="#ffffff" stroke="#ffffff" xlink:href="#b"/>
</g>
<g clip-path="url(#a)">
<use x="574.724171" y="147.022735" fill="#ffffff" stroke="#ffffff" xlink:href="#b"/>
</g>
<g clip-path="url(#a)">
<use x="507.422469" y="802.343114" fill="#ffffff" stroke="#ffffff" xlink:href="#b"/>
</g>
<g clip-path="url(#a)">
<use x="578.530756" y="714.364899" fill="#ffffff" stroke="#ffffff" xlink:href="#b"/>
</g>
<g clip-path="url(#a)">
<use x="934.93544" y="247.901063" fill="#ffffff" stroke="#ffffff" xlink:href="#b"/>
</g>
<g clip-path="url(#a)">
<use x="768.152855" y="802.343114" fill="#ffffff" stroke="#ffffff" xlink:href="#b"/>
</g>
<g clip-path="url(#a)">
<use x="1197.392323" y="345.89326" fill="#ffffff" stroke="#ffffff" xlink:href="#b"/>
</g>
<g clip-path="url(#a)">
<use x="1024.142688" y="625.16281" fill="#ffffff" stroke="#ffffff" xlink:href="#b"/>
</g>
<g clip-path="url(#a)">
<use x="1218.505339" y="802.343114" fill="#ffffff" stroke="#ffffff" xlink:href="#b"/>
</g>
<g clip-path="url(#a)">
<use x="1349.528942" y="441.251698" fill="#ffffff" stroke="#ffffff" xlink:href="#b"/>
</g>
<g clip-path="url(#a)">
<use x="1265.910864" y="802.343114" fill="#ffffff" stroke="#ffffff" xlink:href="#b"/>
</g>
<g clip-path="url(#a)">
<use x="1313.316389" y="802.343114" fill="#ffffff" stroke="#ffffff" xlink:href="#b"/>
</g>
<g clip-path="url(#a)">
<use x="1469.359574" y="534.243067" fill="#ffffff" stroke="#ffffff" xlink:href="#b"/>
</g>
<g clip-path="url(#a)">
<use x="1360.721913" y="802.343114" fill="#ffffff" stroke="#ffffff" xlink:href="#b"/>
</g>
<g clip-path="url(#a)">
<use x="1431.8302" y="714.364899" fill="#ffffff" stroke="#ffffff" xlink:href="#b"/>
</g>
<g clip-path="url(#a)">
<use x="1615.526608" y="625.16281" fill="#ffffff" stroke="#ffffff" xlink:href="#b"/>
</g>
<g clip-path="url(#a)">
<use x="1526.641249" y="714.364899" fill="#ffffff" stroke="#ffffff" xlink:href="#b"/>
</g>
<g clip-path="url(#a)">
<use x="1597.749536" y="802.343114" fill="#ffffff" stroke="#ffffff" xlink:href="#b"/>
</g>
<g clip-path="url(#a)">
<use x="1502.938487" y="802.343114" fill="#ffffff" stroke="#ffffff" xlink:href="#b"/>
</g>
<g clip-path="url(#a)">
<use x="1550.344012" y="802.343114" fill="#ffffff" stroke="#ffffff" xlink:href="#b"/>
</g>
<g clip-path="url(#a)">
<use x="1408.127438" y="802.343114" fill="#ffffff" stroke="#ffffff" xlink:href="#b"/>
</g>
<g clip-path="url(#a)">
<use x="1455.532962" y="802.343114" fill="#ffffff" stroke="#ffffff" xlink:href="#b"/>
</g>
<g clip-path="url(#a)">
<use x="934.072191" y="714.364899" fill="#ffffff" stroke="#ffffff" xlink:href="#b"/>
</g>
<g clip-path="url(#a)">
<use x="934.072191" y="802.343114" fill="#ffffff" stroke="#ffffff" xlink:href="#b"/>
</g>
<g clip-path="url(#a)">
<use x="1028.883241" y="802.343114" fill="#ffffff" stroke="#ffffff" xlink:href="#b"/>
</g>
<g clip-path="url(#a)">
<use x="1076.288765" y="802.343114" fill="#ffffff" stroke="#ffffff" xlink:href="#b"/>
</g>
<g clip-path="url(#a)">
<use x="1147.397052" y="714.364899" fill="#ffffff" stroke="#ffffff" xlink:href="#b"/>
</g>
<g clip-path="url(#a)">
<use x="1123.69429" y="802.343114" fill="#ffffff" stroke="#ffffff" xlink:href="#b"/>
</g>
<g clip-path="url(#a)">
<use x="1171.099815" y="802.343114" fill="#ffffff" stroke="#ffffff" xlink:href="#b"/>
</g>
<g clip-path="url(#a)">
<use x="886.666667" y="802.343114" fill="#ffffff" stroke="#ffffff" xlink:href="#b"/>
</g>
<g clip-path="url(#a)">
<use x="981.477716" y="802.343114" fill="#ffffff" stroke="#ffffff" xlink:href="#b"/>
</g>
<g clip-path="url(#a)">
<use x="554.827994" y="802.343114" fill="#ffffff" stroke="#ffffff" xlink:href="#b"/>
</g>
<g clip-path="url(#a)">
<use x="602.233519" y="802.343114" fill="#ffffff" stroke="#ffffff" xlink:href="#b"/>
</g>
<g clip-path="url(#a)">
<use x="80.772748" y="802.343114" fill="#ffffff" stroke="#ffffff" xlink:href="#b"/>
</g>
<g clip-path="url(#a)">
<use x="128.178272" y="802.343114" fill="#ffffff" stroke="#ffffff" xlink:href="#b"/>
</g>
<g clip-path="url(#a)">
<use x="232.470426" y="625.16281" fill="#ffffff" stroke="#ffffff" xlink:href="#b"/>
</g>
<g clip-path="url(#a)">
<use x="175.583797" y="802.343114" fill="#ffffff" stroke="#ffffff" xlink:href="#b"/>
</g>
<g clip-path="url(#a)">
<use x="222.989322" y="802.343114" fill="#ffffff" stroke="#ffffff" xlink:href="#b"/>
</g>
<g clip-path="url(#a)">
<use x="294.097609" y="714.364899" fill="#ffffff" stroke="#ffffff" xlink:href="#b"/>
</g>
<g clip-path="url(#a)">
<use x="388.908658" y="714.364899" fill="#ffffff" stroke="#ffffff" xlink:href="#b"/>
</g>
<g clip-path="url(#a)">
<use x="365.205896" y="802.343114" fill="#ffffff" stroke="#ffffff" xlink:href="#b"/>
</g>
<g clip-path="url(#a)">
<use x="412.61142" y="802.343114" fill="#ffffff" stroke="#ffffff" xlink:href="#b"/>
</g>
<g clip-path="url(#a)">
<use x="270.394846" y="802.343114" fill="#ffffff" stroke="#ffffff" xlink:href="#b"/>
</g>
<g clip-path="url(#a)">
<use x="317.800371" y="802.343114" fill="#ffffff" stroke="#ffffff" xlink:href="#b"/>
</g>
<g clip-path="url(#a)">
<use x="460.016945" y="802.343114" fill="#ffffff" stroke="#ffffff" xlink:href="#b"/>
</g>
<g clip-path="url(#a)">
<use x="649.639043" y="802.343114" fill="#ffffff" stroke="#ffffff" xlink:href="#b"/>
</g>
<g clip-path="url(#a)">
<use x="697.044568" y="802.343114" fill="#ffffff" stroke="#ffffff" xlink:href="#b"/>
</g>
<g clip-path="url(#a)">
<use x="839.261142" y="802.343114" fill="#ffffff" stroke="#ffffff" xlink:href="#b"/>
</g>
<g clip-path="url(#a)">
<use x="1645.155061" y="802.343114" fill="#ffffff" stroke="#ffffff" xlink:href="#b"/>
</g>
<g clip-path="url(#a)">
<use x="1692.560586" y="802.343114" fill="#ffffff" stroke="#ffffff" xlink:href="#b"/>
</g>
<g clip-path="url(#a)">
<defs>
<path id="ae" d="m44.281 53.078v-8.5q-3.7969 1.9531-7.9062 2.9219-4.0938 0.98438-8.5 0.98438-6.6875 0-10.031-2.0469t-3.3438-6.1562q0-3.125 2.3906-4.9062t9.625-3.3906l3.0781-0.6875q9.5625-2.0469 13.594-5.7812t4.0312-10.422q0-7.625-6.0312-12.078-6.0312-4.4375-16.578-4.4375-4.3906 0-9.1562 0.85938t-10.031 2.5625v9.2812q4.9844-2.5938 9.8125-3.8906 4.8281-1.2812 9.5781-1.2812 6.3438 0 9.75 2.1719 3.4219 2.1719 3.4219 6.125 0 3.6562-2.4688 5.6094-2.4531 1.9531-10.812 3.7656l-3.125 0.73438q-8.3438 1.75-12.062 5.3906-3.7031 3.6406-3.7031 9.9844 0 7.7188 5.4688 11.906 5.4688 4.2031 15.531 4.2031 4.9688 0 9.3594-0.73438 4.4062-0.71875 8.1094-2.1875z"/>
</defs>
<g transform="translate(65.845 893.08) scale(.1 -.1)">
<use xlink:href="#v"/>
<use x="75.195312" xlink:href="#f"/>
<use x="136.474609" xlink:href="#i"/>
<use x="177.572266" xlink:href="#i"/>
<use x="218.685547" xlink:href="#h"/>
<use x="246.46875" xlink:href="#ae"/>
</g>
</g>
<g clip-path="url(#a)">
<defs>
<path id="ai" d="m45.406 46.391v29.594h8.9844v-75.984h-8.9844v8.2031q-2.8281-4.875-7.1562-7.25-4.3125-2.375-10.375-2.375-9.9062 0-16.141 7.9062-6.2188 7.9219-6.2188 20.812t6.2188 20.797q6.2344 7.9062 16.141 7.9062 6.0625 0 10.375-2.375 4.3281-2.3594 7.1562-7.2344zm-30.609-19.094q0-9.9062 4.0781-15.547t11.203-5.6406 11.219 5.6406q4.1094 5.6406 4.1094 15.547t-4.1094 15.547q-4.0938 5.6406-11.219 5.6406t-11.203-5.6406-4.0781-15.547z"/>
<path id="aj" d="m48.781 52.594v-8.4062q-3.8125 2.1094-7.6406 3.1562t-7.7344 1.0469q-8.75 0-13.594-5.5469-4.8281-5.5312-4.8281-15.547t4.8281-15.562q4.8438-5.5312 13.594-5.5312 3.9062 0 7.7344 1.0469t7.6406 3.1562v-8.3125q-3.7656-1.75-7.7969-2.625-4.0156-0.89062-8.5625-0.89062-12.359 0-19.641 7.7656-7.2656 7.7656-7.2656 20.953 0 13.375 7.3438 21.031 7.3594 7.6719 20.156 7.6719 4.1406 0 8.0938-0.85938 3.9531-0.84375 7.6719-2.5469z"/>
</defs>
<g transform="translate(108.36 893.08) scale(.1 -.1)">
<use xlink:href="#ai"/>
<use x="63.476562" xlink:href="#e"/>
<use x="125" xlink:href="#aj"/>
<use x="179.980469" xlink:href="#h"/>
<use x="207.763672" xlink:href="#ai"/>
<use x="271.240234" xlink:href="#e"/>
<use x="332.763672" xlink:href="#ai"/>
</g>
</g>
<g clip-path="url(#a)">
<defs>
<path id="t" d="m18.312 70.219v-15.531h18.5v-6.9844h-18.5v-29.688q0-6.6875 1.8281-8.5938t7.4531-1.9062h9.2188v-7.5156h-9.2188q-10.406 0-14.359 3.875-3.9531 3.8906-3.9531 14.141v29.688h-6.5938v6.9844h6.5938v15.531z"/>
<path id="r" d="m30.609 48.391q-7.2188 0-11.422-5.6406t-4.2031-15.453 4.1719-15.453q4.1875-5.6406 11.453-5.6406 7.1875 0 11.375 5.6562 4.2031 5.6719 4.2031 15.438 0 9.7188-4.2031 15.406-4.1875 5.6875-11.375 5.6875zm0 7.6094q11.719 0 18.406-7.625 6.7031-7.6094 6.7031-21.078 0-13.422-6.7031-21.078-6.6875-7.6406-18.406-7.6406-11.766 0-18.438 7.6406-6.6562 7.6562-6.6562 21.078 0 13.469 6.6562 21.078 6.6719 7.625 18.438 7.625z"/>
</defs>
<g transform="translate(170.56 893.08) scale(.1 -.1)">
<use xlink:href="#t"/>
<use x="39.208984" xlink:href="#r"/>
</g>
</g>
<g clip-path="url(#a)">
<defs>
<path id="ao" d="m9.0781 75.984h9.0312v-44.875l26.812 23.578h11.469l-29-25.578 30.234-29.109h-11.719l-27.797 26.703v-26.703h-9.0312z"/>
</defs>
<g transform="translate(212 893.08) scale(.1 -.1)">
<use xlink:href="#t"/>
<use x="39.208984" xlink:href="#f"/>
<use x="100.488281" xlink:href="#ao"/>
<use x="158.351562" xlink:href="#e"/>
</g>
</g>
<g clip-path="url(#a)">
<defs>
<path id="y" d="m54.891 33.016v-33.016h-8.9844v32.719q0 7.7656-3.0312 11.609-3.0312 3.8594-9.0781 3.8594-7.2812 0-11.484-4.6406-4.2031-4.625-4.2031-12.641v-30.906h-9.0312v75.984h9.0312v-29.797q3.2344 4.9375 7.5938 7.375 4.375 2.4375 10.094 2.4375 9.4219 0 14.25-5.8281 4.8438-5.8281 4.8438-17.156z"/>
</defs>
<g transform="translate(262.19 893.08) scale(.1 -.1)">
<use xlink:href="#t"/>
<use x="39.208984" xlink:href="#y"/>
<use x="102.587891" xlink:href="#e"/>
</g>
</g>
<g clip-path="url(#a)">
<defs>
<path id="au" d="m4.2031 54.688h8.9844l11.234-42.672 11.172 42.672h10.594l11.234-42.672 11.188 42.672h8.9844l-14.312-54.688h-10.594l-11.766 44.828-11.812-44.828h-10.609z"/>
</defs>
<g transform="translate(304.88 893.08) scale(.1 -.1)">
<use xlink:href="#ae"/>
<use x="52.099609" xlink:href="#y"/>
<use x="115.478516" xlink:href="#r"/>
<use x="176.660156" xlink:href="#au"/>
</g>
</g>
<g clip-path="url(#a)">
<g transform="translate(360.19 893.08) scale(.1 -.1)">
<use xlink:href="#t"/>
<use x="39.208984" xlink:href="#r"/>
</g>
</g>
<g clip-path="url(#a)">
<defs>
<path id="ap" d="m45.406 27.984q0 9.7656-4.0312 15.125-4.0156 5.375-11.297 5.375-7.2188 0-11.25-5.375-4.0312-5.3594-4.0312-15.125 0-9.7188 4.0312-15.094t11.25-5.375q7.2812 0 11.297 5.375 4.0312 5.375 4.0312 15.094zm8.9844-21.203q0-13.953-6.2031-20.766-6.1875-6.8125-18.984-6.8125-4.7344 0-8.9375 0.70312t-8.1562 2.1719v8.7344q3.9531-2.1406 7.8125-3.1562 3.8594-1.0312 7.8594-1.0312 8.8438 0 13.234 4.6094t4.3906 13.938v4.4531q-2.7812-4.8438-7.125-7.2344t-10.406-2.3906q-10.047 0-16.203 7.6562-6.1562 7.6719-6.1562 20.328 0 12.688 6.1562 20.344 6.1562 7.6719 16.203 7.6719 6.0625 0 10.406-2.3906t7.125-7.2188v8.2969h8.9844z"/>
</defs>
<g transform="translate(392.52 893.08) scale(.1 -.1)">
<use xlink:href="#s"/>
<use x="69.824219" xlink:href="#y"/>
<use x="133.203125" xlink:href="#h"/>
<use x="160.986328" xlink:href="#aj"/>
<use x="215.966797" xlink:href="#f"/>
<use x="277.246094" xlink:href="#ap"/>
<use x="340.722656" xlink:href="#r"/>
</g>
</g>
<g clip-path="url(#a)">
<defs>
<path id="ak" d="m11.719 12.406h10.297v-8.4062l-8-15.625h-6.2969l4 15.625z"/>
</defs>
<g transform="translate(458.43 893.08) scale(.1 -.1)">
<use xlink:href="#ak"/>
</g>
</g>
<g clip-path="url(#a)">
<defs>
<path id="x" d="m32.172-5.0781q-3.7969-9.7656-7.4219-12.734-3.6094-2.9844-9.6562-2.9844h-7.1875v7.5156h5.2812q3.7031 0 5.75 1.7656 2.0625 1.75 4.5469 8.2969l1.6094 4.0938-22.109 53.812h9.5156l17.094-42.766 17.094 42.766h9.5156z"/>
</defs>
<g transform="translate(491.06 893.08) scale(.1 -.1)">
<use xlink:href="#ae"/>
<use x="52.099609" xlink:href="#f"/>
<use x="113.378906" xlink:href="#x"/>
<use x="172.558594" xlink:href="#h"/>
<use x="200.341797" xlink:href="#g"/>
<use x="263.720703" xlink:href="#ap"/>
</g>
</g>
<g clip-path="url(#a)">
<g transform="translate(549.81 893.08) scale(.1 -.1)">
<use xlink:href="#t"/>
<use x="39.208984" xlink:href="#r"/>
</g>
</g>
<g clip-path="url(#a)">
<defs>
<path id="aw" d="m18.109 8.2031v-29h-9.0312v75.484h9.0312v-8.2969q2.8438 4.875 7.1562 7.2344 4.3281 2.375 10.328 2.375 9.9688 0 16.188-7.9062 6.2344-7.9062 6.2344-20.797t-6.2344-20.812q-6.2188-7.9062-16.188-7.9062-6 0-10.328 2.375-4.3125 2.375-7.1562 7.25zm30.578 19.094q0 9.9062-4.0781 15.547t-11.203 5.6406q-7.1406 0-11.219-5.6406t-4.0781-15.547 4.0781-15.547 11.219-5.6406q7.125 0 11.203 5.6406t4.0781 15.547z"/>
<path id="aq" d="m48.688 27.297q0 9.9062-4.0781 15.547t-11.203 5.6406q-7.1406 0-11.219-5.6406t-4.0781-15.547 4.0781-15.547 11.219-5.6406q7.125 0 11.203 5.6406t4.0781 15.547zm-30.578 19.094q2.8438 4.875 7.1562 7.2344 4.3281 2.375 10.328 2.375 9.9688 0 16.188-7.9062 6.2344-7.9062 6.2344-20.797t-6.2344-20.812q-6.2188-7.9062-16.188-7.9062-6 0-10.328 2.375-4.3125 2.375-7.1562 7.25v-8.2031h-9.0312v75.984h9.0312z"/>
<path id="ah" d="m8.5 21.578v33.109h8.9844v-32.766q0-7.7656 3.0156-11.656 3.0312-3.875 9.0938-3.875 7.2656 0 11.484 4.6406 4.2344 4.6406 4.2344 12.656v31h8.9844v-54.688h-8.9844v8.4062q-3.2656-4.9844-7.5938-7.4062-4.3125-2.4219-10.031-2.4219-9.4219 0-14.312 5.8594-4.875 5.8594-4.875 17.141z"/>
</defs>
<g transform="translate(580.66 893.08) scale(.1 -.1)">
<use xlink:href="#v"/>
<use x="75.195312" xlink:href="#e"/>
<use x="136.71875" xlink:href="#aw"/>
<use x="200.195312" xlink:href="#aq"/>
<use x="263.671875" xlink:href="#ah"/>
<use x="327.050781" xlink:href="#i"/>
<use x="368.148438" xlink:href="#g"/>
</g>
</g>
<g clip-path="url(#a)">
<g transform="translate(648.05 893.08) scale(.1 -.1)">
<use xlink:href="#ak"/>
</g>
</g>
<g clip-path="url(#a)">
<defs>
<path id="an" d="m17.922 72.906v-27.109h-8.2969v27.109zm18.453 0v-27.109h-8.2969v27.109z"/>
</defs>
<g transform="translate(694.74 893.08) scale(.1 -.1)">
<use xlink:href="#an"/>
</g>
</g>
<g clip-path="url(#a)">
<defs>
<path id="as" d="m9.8125 72.906h14.703l18.594-49.609 18.703 49.609h14.703v-72.906h-9.625v64.016l-18.797-50h-9.9062l-18.797 50v-64.016h-9.5781z"/>
</defs>
<g transform="translate(737.18 893.08) scale(.1 -.1)">
<use xlink:href="#as"/>
<use x="86.279297" xlink:href="#x"/>
</g>
</g>
<g clip-path="url(#a)">
<g transform="translate(780.49 893.08) scale(.1 -.1)">
<use xlink:href="#ai"/>
<use x="63.476562" xlink:href="#e"/>
<use x="125" xlink:href="#f"/>
<use x="186.279297" xlink:href="#i"/>
</g>
</g>
<g clip-path="url(#a)">
<g transform="translate(837.67 893.08) scale(.1 -.1)">
<use xlink:href="#ak"/>
</g>
</g>
<g clip-path="url(#a)">
<g transform="translate(878.46 893.08) scale(.1 -.1)">
<use xlink:href="#t"/>
<use x="39.208984" xlink:href="#y"/>
<use x="102.587891" xlink:href="#e"/>
</g>
</g>
<g clip-path="url(#a)">
<g transform="translate(923.5 893.08) scale(.1 -.1)">
<use xlink:href="#r"/>
<use x="61.181641" xlink:href="#g"/>
<use x="124.560547" xlink:href="#k"/>
<use x="152.34375" xlink:href="#x"/>
</g>
</g>
<g clip-path="url(#a)">
<g transform="translate(962.19 893.08) scale(.1 -.1)">
<use xlink:href="#h"/>
<use x="27.783203" xlink:href="#g"/>
<use x="91.162109" xlink:href="#t"/>
<use x="130.371094" xlink:href="#e"/>
<use x="191.894531" xlink:href="#i"/>
<use x="232.976562" xlink:href="#e"/>
<use x="294.5" xlink:href="#ae"/>
<use x="346.599609" xlink:href="#t"/>
</g>
</g>
<g clip-path="url(#a)">
<defs>
<path id="al" d="m9.8125 72.906h9.8594v-72.906h-9.8594z"/>
</defs>
<g transform="translate(1027.4 893.08) scale(.1 -.1)">
<use xlink:href="#al"/>
</g>
</g>
<g clip-path="url(#a)">
<defs>
<path id="av" d="m2.9844 54.688h9.5156l17.094-45.891 17.094 45.891h9.5156l-20.516-54.688h-12.203z"/>
</defs>
<g transform="translate(1064 893.08) scale(.1 -.1)">
<use xlink:href="#y"/>
<use x="63.378906" xlink:href="#f"/>
<use x="124.658203" xlink:href="#av"/>
<use x="183.837891" xlink:href="#e"/>
</g>
</g>
<g clip-path="url(#a)">
<g transform="translate(1119.1 893.08) scale(.1 -.1)">
<use xlink:href="#h"/>
<use x="27.783203" xlink:href="#g"/>
</g>
</g>
<g clip-path="url(#a)">
<g transform="translate(1161.9 893.08) scale(.1 -.1)">
<use xlink:href="#x"/>
<use x="59.179688" xlink:href="#r"/>
<use x="120.361328" xlink:href="#ah"/>
</g>
</g>
<g clip-path="url(#a)">
<g transform="translate(1214.5 893.08) scale(.1 -.1)">
<use xlink:href="#h"/>
<use x="27.783203" xlink:href="#ae"/>
</g>
</g>
<g clip-path="url(#a)">
<g transform="translate(1257.7 893.08) scale(.1 -.1)">
<use xlink:href="#t"/>
<use x="39.208984" xlink:href="#y"/>
<use x="102.587891" xlink:href="#e"/>
</g>
</g>
<g clip-path="url(#a)">
<g transform="translate(1296.2 893.08) scale(.1 -.1)">
<use xlink:href="#j"/>
<use x="97.412109" xlink:href="#r"/>
<use x="158.59375" xlink:href="#g"/>
<use x="221.972656" xlink:href="#e"/>
<use x="283.496094" xlink:href="#x"/>
</g>
</g>
<g clip-path="url(#a)">
<g transform="translate(1359.2 893.08) scale(.1 -.1)">
<use xlink:href="#al"/>
</g>
</g>
<g clip-path="url(#a)">
<g transform="translate(1399.1 893.08) scale(.1 -.1)">
<use xlink:href="#aj"/>
<use x="54.980469" xlink:href="#f"/>
<use x="116.259766" xlink:href="#g"/>
</g>
</g>
<g clip-path="url(#a)">
<g transform="translate(1441.6 893.08) scale(.1 -.1)">
<use xlink:href="#j"/>
<use x="97.412109" xlink:href="#f"/>
<use x="158.691406" xlink:href="#ao"/>
<use x="216.554688" xlink:href="#e"/>
</g>
</g>
<g clip-path="url(#a)">
<g transform="translate(1494.8 893.08) scale(.1 -.1)">
<use xlink:href="#r"/>
<use x="61.181641" xlink:href="#ah"/>
<use x="124.560547" xlink:href="#t"/>
</g>
</g>
<g clip-path="url(#a)">
<defs>
<path id="ax" d="m37.109 75.984v-7.4844h-8.5938q-4.8281 0-6.7188-1.9531-1.875-1.9531-1.875-7.0312v-4.8281h14.797v-6.9844h-14.797v-47.703h-9.0312v47.703h-8.5938v6.9844h8.5938v3.8125q0 9.125 4.25 13.297 4.25 4.1875 13.469 4.1875z"/>
</defs>
<g transform="translate(1545.5 893.08) scale(.1 -.1)">
<use xlink:href="#r"/>
<use x="61.181641" xlink:href="#ax"/>
</g>
</g>
<g clip-path="url(#a)">
<g transform="translate(1588.6 893.08) scale(.1 -.1)">
<use xlink:href="#x"/>
<use x="59.179688" xlink:href="#r"/>
<use x="120.361328" xlink:href="#ah"/>
</g>
</g>
<g clip-path="url(#a)">
<defs>
<path id="d" d="m10.688 12.406h10.312v-12.406h-10.312z"/>
</defs>
<g transform="translate(1643.6 893.08) scale(.1 -.1)">
<use xlink:href="#d"/>
</g>
</g>
<g clip-path="url(#a)">
<g transform="translate(1690.3 893.08) scale(.1 -.1)">
<use xlink:href="#an"/>
</g>
</g>
<g clip-path="url(#a)">
<defs>
<path id="c" d="m12.406 8.2969h16.109v55.625l-17.531-3.5156v8.9844l17.438 3.5156h9.8594v-64.609h16.109v-8.2969h-41.984z"/>
</defs>
<g transform="translate(386.01 45.771) scale(.1 -.1)">
<use xlink:href="#c"/>
<use x="63.623047" xlink:href="#d"/>
<use x="95.410156" xlink:href="#c"/>
</g>
</g>
<g clip-path="url(#a)">
<defs>
<path id="n" d="m19.188 8.2969h34.422v-8.2969h-46.281v8.2969q5.6094 5.8125 15.297 15.594 9.7031 9.7969 12.188 12.641 4.7344 5.3125 6.6094 9 1.8906 3.6875 1.8906 7.25 0 5.8125-4.0781 9.4688-4.0781 3.6719-10.625 3.6719-4.6406 0-9.7969-1.6094-5.1406-1.6094-11-4.8906v9.9688q5.9531 2.3906 11.125 3.6094 5.1875 1.2188 9.4844 1.2188 11.328 0 18.062-5.6719 6.7344-5.6562 6.7344-15.125 0-4.5-1.6875-8.5312-1.6719-4.0156-6.125-9.4844-1.2188-1.4219-7.7656-8.1875-6.5312-6.7656-18.453-18.922z"/>
</defs>
<g transform="translate(139.19 537) scale(.1 -.1)">
<use xlink:href="#c"/>
<use x="63.623047" xlink:href="#d"/>
<use x="95.410156" xlink:href="#n"/>
</g>
</g>
<g clip-path="url(#a)">
<defs>
<path id="m" d="m40.578 39.312q7.0781-1.5156 11.047-6.3125 3.9844-4.7812 3.9844-11.812 0-10.781-7.4219-16.703-7.4219-5.9062-21.094-5.9062-4.5781 0-9.4375 0.90625t-10.031 2.7188v9.5156q4.0938-2.3906 8.9688-3.6094 4.8906-1.2188 10.219-1.2188 9.2656 0 14.125 3.6562t4.8594 10.641q0 6.4531-4.5156 10.078-4.5156 3.6406-12.562 3.6406h-8.5v8.1094h8.8906q7.2656 0 11.125 2.9062t3.8594 8.375q0 5.6094-3.9844 8.6094-3.9688 3.0156-11.391 3.0156-4.0625 0-8.7031-0.89062-4.6406-0.875-10.203-2.7188v8.7812q5.625 1.5625 10.531 2.3438t9.25 0.78125q11.234 0 17.766-5.1094 6.5469-5.0938 6.5469-13.781 0-6.0625-3.4688-10.234t-9.8594-5.7812z"/>
</defs>
<g transform="translate(566.77 149.78) scale(.1 -.1)">
<use xlink:href="#c"/>
<use x="63.623047" xlink:href="#d"/>
<use x="95.410156" xlink:href="#m"/>
</g>
</g>
<g clip-path="url(#a)">
<defs>
<path id="w" d="m8.2031 72.906h46.875v-4.2031l-26.469-68.703h-10.297l24.906 64.594h-35.016z"/>
</defs>
<g transform="translate(499.47 805.1) scale(.1 -.1)">
<use xlink:href="#c"/>
<use x="63.623047" xlink:href="#d"/>
<use x="95.410156" xlink:href="#w"/>
</g>
</g>
<g clip-path="url(#a)">
<defs>
<path id="ac" d="m31.781 34.625q-7.0312 0-11.062-3.7656-4.0156-3.7656-4.0156-10.344 0-6.5938 4.0156-10.359 4.0312-3.7656 11.062-3.7656t11.078 3.7812q4.0625 3.7969 4.0625 10.344 0 6.5781-4.0312 10.344-4.0156 3.7656-11.109 3.7656zm-9.8594 4.1875q-6.3438 1.5625-9.8906 5.9062-3.5312 4.3594-3.5312 10.609 0 8.7344 6.2188 13.812 6.2344 5.0781 17.062 5.0781 10.891 0 17.094-5.0781t6.2031-13.812q0-6.25-3.5469-10.609-3.5312-4.3438-9.8281-5.9062 7.125-1.6562 11.094-6.5 3.9844-4.8281 3.9844-11.797 0-10.609-6.4688-16.281-6.4688-5.6562-18.531-5.6562-12.047 0-18.531 5.6562-6.4688 5.6719-6.4688 16.281 0 6.9688 4 11.797 4.0156 4.8438 11.141 6.5zm-3.6094 15.578q0-5.6562 3.5312-8.8281 3.5469-3.1719 9.9375-3.1719 6.3594 0 9.9375 3.1719 3.5938 3.1719 3.5938 8.8281 0 5.6719-3.5938 8.8438-3.5781 3.1719-9.9375 3.1719-6.3906 0-9.9375-3.1719-3.5312-3.1719-3.5312-8.8438z"/>
</defs>
<g transform="translate(570.58 717.12) scale(.1 -.1)">
<use xlink:href="#c"/>
<use x="63.623047" xlink:href="#d"/>
<use x="95.410156" xlink:href="#ac"/>
</g>
</g>
<g clip-path="url(#a)">
<defs>
<path id="ab" d="m10.984 1.5156v8.9844q3.7188-1.7656 7.5156-2.6875 3.8125-0.92188 7.4844-0.92188 9.7656 0 14.906 6.5625 5.1562 6.5625 5.8906 19.953-2.8281-4.2031-7.1875-6.4531-4.3438-2.25-9.6094-2.25-10.938 0-17.312 6.6094-6.375 6.625-6.375 18.109 0 11.219 6.6406 18 6.6406 6.7969 17.672 6.7969 12.656 0 19.312-9.7031 6.6719-9.6875 6.6719-28.141 0-17.234-8.1875-27.516-8.1719-10.281-21.984-10.281-3.7188 0-7.5312 0.73438-3.7969 0.73438-7.9062 2.2031zm19.625 30.906q6.6406 0 10.516 4.5312 3.8906 4.5469 3.8906 12.469 0 7.8594-3.8906 12.422-3.875 4.5625-10.516 4.5625t-10.516-4.5625-3.875-12.422q0-7.9219 3.875-12.469 3.875-4.5312 10.516-4.5312z"/>
</defs>
<g transform="translate(926.98 250.66) scale(.1 -.1)">
<use xlink:href="#c"/>
<use x="63.623047" xlink:href="#d"/>
<use x="95.410156" xlink:href="#ab"/>
</g>
</g>
<g clip-path="url(#a)">
<g transform="translate(757.02 805.1) scale(.1 -.1)">
<use xlink:href="#c"/>
<use x="63.623047" xlink:href="#d"/>
<use x="95.410156" xlink:href="#c"/>
<use x="159.033203" xlink:href="#n"/>
</g>
</g>
<g clip-path="url(#a)">
<g transform="translate(1186.3 348.65) scale(.1 -.1)">
<use xlink:href="#c"/>
<use x="63.623047" xlink:href="#d"/>
<use x="95.410156" xlink:href="#c"/>
<use x="159.033203" xlink:href="#m"/>
</g>
</g>
<g clip-path="url(#a)">
<defs>
<path id="q" d="m10.797 72.906h38.719v-8.3125h-29.688v-17.859q2.1406 0.73438 4.2812 1.0938 2.1562 0.35938 4.3125 0.35938 12.203 0 19.328-6.6875 7.1406-6.6875 7.1406-18.109 0-11.766-7.3281-18.297-7.3281-6.5156-20.656-6.5156-4.5938 0-9.3594 0.78125-4.75 0.78125-9.8281 2.3438v9.9219q4.3906-2.3906 9.0781-3.5625t9.9062-1.1719q8.4531 0 13.375 4.4375 4.9375 4.4375 4.9375 12.062 0 7.6094-4.9375 12.047-4.9219 4.4531-13.375 4.4531-3.9531 0-7.8906-0.875-3.9219-0.875-8.0156-2.7344z"/>
</defs>
<g transform="translate(1013 627.92) scale(.1 -.1)">
<use xlink:href="#c"/>
<use x="63.623047" xlink:href="#d"/>
<use x="95.410156" xlink:href="#c"/>
<use x="159.033203" xlink:href="#q"/>
</g>
</g>
<g clip-path="url(#a)">
<defs>
<path id="ad" d="m33.016 40.375q-6.6406 0-10.531-4.5469-3.875-4.5312-3.875-12.438 0-7.8594 3.875-12.438 3.8906-4.5625 10.531-4.5625t10.516 4.5625q3.875 4.5781 3.875 12.438 0 7.9062-3.875 12.438-3.875 4.5469-10.516 4.5469zm19.578 30.922v-8.9844q-3.7188 1.75-7.5 2.6719-3.7812 0.9375-7.5 0.9375-9.7656 0-14.922-6.5938-5.1406-6.5938-5.875-19.922 2.875 4.25 7.2188 6.5156 4.3594 2.2656 9.5781 2.2656 10.984 0 17.359-6.6719 6.375-6.6562 6.375-18.125 0-11.234-6.6406-18.031-6.6406-6.7812-17.672-6.7812-12.656 0-19.344 9.6875-6.6875 9.7031-6.6875 28.109 0 17.281 8.2031 27.562t22.016 10.281q3.7188 0 7.5-0.73438t7.8906-2.1875z"/>
</defs>
<g transform="translate(1207.4 805.1) scale(.1 -.1)">
<use xlink:href="#c"/>
<use x="63.623047" xlink:href="#d"/>
<use x="95.410156" xlink:href="#c"/>
<use x="159.033203" xlink:href="#ad"/>
</g>
</g>
<g clip-path="url(#a)">
<g transform="translate(1338.4 444.01) scale(.1 -.1)">
<use xlink:href="#c"/>
<use x="63.623047" xlink:href="#d"/>
<use x="95.410156" xlink:href="#c"/>
<use x="159.033203" xlink:href="#w"/>
</g>
</g>
<g clip-path="url(#a)">
<g transform="translate(1254.8 805.1) scale(.1 -.1)">
<use xlink:href="#c"/>
<use x="63.623047" xlink:href="#d"/>
<use x="95.410156" xlink:href="#c"/>
<use x="159.033203" xlink:href="#ac"/>
</g>
</g>
<g clip-path="url(#a)">
<g transform="translate(1302.2 805.1) scale(.1 -.1)">
<use xlink:href="#c"/>
<use x="63.623047" xlink:href="#d"/>
<use x="95.410156" xlink:href="#c"/>
<use x="159.033203" xlink:href="#ab"/>
</g>
</g>
<g clip-path="url(#a)">
<defs>
<path id="ag" d="m31.781 66.406q-7.6094 0-11.453-7.5-3.8281-7.4844-3.8281-22.531 0-14.984 3.8281-22.484 3.8438-7.5 11.453-7.5 7.6719 0 11.5 7.5 3.8438 7.5 3.8438 22.484 0 15.047-3.8438 22.531-3.8281 7.5-11.5 7.5zm0 7.8125q12.266 0 18.734-9.7031 6.4688-9.6875 6.4688-28.141 0-18.406-6.4688-28.109-6.4688-9.6875-18.734-9.6875-12.25 0-18.719 9.6875-6.4688 9.7031-6.4688 28.109 0 18.453 6.4688 28.141 6.4688 9.7031 18.719 9.7031z"/>
</defs>
<g transform="translate(1458.2 537) scale(.1 -.1)">
<use xlink:href="#c"/>
<use x="63.623047" xlink:href="#d"/>
<use x="95.410156" xlink:href="#n"/>
<use x="159.033203" xlink:href="#ag"/>
</g>
</g>
<g clip-path="url(#a)">
<g transform="translate(1349.6 805.1) scale(.1 -.1)">
<use xlink:href="#c"/>
<use x="63.623047" xlink:href="#d"/>
<use x="95.410156" xlink:href="#n"/>
<use x="159.033203" xlink:href="#c"/>
</g>
</g>
<g clip-path="url(#a)">
<g transform="translate(1420.7 717.12) scale(.1 -.1)">
<use xlink:href="#c"/>
<use x="63.623047" xlink:href="#d"/>
<use x="95.410156" xlink:href="#n"/>
<use x="159.033203" xlink:href="#n"/>
</g>
</g>
<g clip-path="url(#a)">
<g transform="translate(1604.4 627.92) scale(.1 -.1)">
<use xlink:href="#c"/>
<use x="63.623047" xlink:href="#d"/>
<use x="95.410156" xlink:href="#n"/>
<use x="159.033203" xlink:href="#m"/>
</g>
</g>
<g clip-path="url(#a)">
<defs>
<path id="p" d="m37.797 64.312-24.906-38.922h24.906zm-2.5938 8.5938h12.406v-47.516h10.406v-8.2031h-10.406v-17.188h-9.8125v17.188h-32.906v9.5156z"/>
</defs>
<g transform="translate(1515.5 717.12) scale(.1 -.1)">
<use xlink:href="#c"/>
<use x="63.623047" xlink:href="#d"/>
<use x="95.410156" xlink:href="#n"/>
<use x="159.033203" xlink:href="#p"/>
</g>
</g>
<g clip-path="url(#a)">
<g transform="translate(1586.6 805.1) scale(.1 -.1)">
<use xlink:href="#c"/>
<use x="63.623047" xlink:href="#d"/>
<use x="95.410156" xlink:href="#n"/>
<use x="159.033203" xlink:href="#q"/>
</g>
</g>
<g clip-path="url(#a)">
<g transform="translate(1491.8 805.1) scale(.1 -.1)">
<use xlink:href="#c"/>
<use x="63.623047" xlink:href="#d"/>
<use x="95.410156" xlink:href="#n"/>
<use x="159.033203" xlink:href="#ad"/>
</g>
</g>
<g clip-path="url(#a)">
<g transform="translate(1539.2 805.1) scale(.1 -.1)">
<use xlink:href="#c"/>
<use x="63.623047" xlink:href="#d"/>
<use x="95.410156" xlink:href="#n"/>
<use x="159.033203" xlink:href="#w"/>
</g>
</g>
<g clip-path="url(#a)">
<g transform="translate(1397 805.1) scale(.1 -.1)">
<use xlink:href="#c"/>
<use x="63.623047" xlink:href="#d"/>
<use x="95.410156" xlink:href="#n"/>
<use x="159.033203" xlink:href="#ac"/>
</g>
</g>
<g clip-path="url(#a)">
<g transform="translate(1444.4 805.1) scale(.1 -.1)">
<use xlink:href="#c"/>
<use x="63.623047" xlink:href="#d"/>
<use x="95.410156" xlink:href="#n"/>
<use x="159.033203" xlink:href="#ab"/>
</g>
</g>
<g clip-path="url(#a)">
<g transform="translate(922.94 717.12) scale(.1 -.1)">
<use xlink:href="#c"/>
<use x="63.623047" xlink:href="#d"/>
<use x="95.410156" xlink:href="#m"/>
<use x="159.033203" xlink:href="#ag"/>
</g>
</g>
<g clip-path="url(#a)">
<g transform="translate(922.94 805.1) scale(.1 -.1)">
<use xlink:href="#c"/>
<use x="63.623047" xlink:href="#d"/>
<use x="95.410156" xlink:href="#m"/>
<use x="159.033203" xlink:href="#c"/>
</g>
</g>
<g clip-path="url(#a)">
<g transform="translate(1017.8 805.1) scale(.1 -.1)">
<use xlink:href="#c"/>
<use x="63.623047" xlink:href="#d"/>
<use x="95.410156" xlink:href="#m"/>
<use x="159.033203" xlink:href="#n"/>
</g>
</g>
<g clip-path="url(#a)">
<g transform="translate(1065.2 805.1) scale(.1 -.1)">
<use xlink:href="#c"/>
<use x="63.623047" xlink:href="#d"/>
<use x="95.410156" xlink:href="#m"/>
<use x="159.033203" xlink:href="#m"/>
</g>
</g>
<g clip-path="url(#a)">
<g transform="translate(1136.3 717.12) scale(.1 -.1)">
<use xlink:href="#c"/>
<use x="63.623047" xlink:href="#d"/>
<use x="95.410156" xlink:href="#m"/>
<use x="159.033203" xlink:href="#p"/>
</g>
</g>
<g clip-path="url(#a)">
<g transform="translate(1112.6 805.1) scale(.1 -.1)">
<use xlink:href="#c"/>
<use x="63.623047" xlink:href="#d"/>
<use x="95.410156" xlink:href="#m"/>
<use x="159.033203" xlink:href="#q"/>
</g>
</g>
<g clip-path="url(#a)">
<g transform="translate(1160 805.1) scale(.1 -.1)">
<use xlink:href="#c"/>
<use x="63.623047" xlink:href="#d"/>
<use x="95.410156" xlink:href="#m"/>
<use x="159.033203" xlink:href="#ad"/>
</g>
</g>
<g clip-path="url(#a)">
<g transform="translate(875.53 805.1) scale(.1 -.1)">
<use xlink:href="#c"/>
<use x="63.623047" xlink:href="#d"/>
<use x="95.410156" xlink:href="#m"/>
<use x="159.033203" xlink:href="#w"/>
</g>
</g>
<g clip-path="url(#a)">
<g transform="translate(970.34 805.1) scale(.1 -.1)">
<use xlink:href="#c"/>
<use x="63.623047" xlink:href="#d"/>
<use x="95.410156" xlink:href="#m"/>
<use x="159.033203" xlink:href="#ac"/>
</g>
</g>
<g clip-path="url(#a)">
<g transform="translate(543.7 805.1) scale(.1 -.1)">
<use xlink:href="#c"/>
<use x="63.623047" xlink:href="#d"/>
<use x="95.410156" xlink:href="#m"/>
<use x="159.033203" xlink:href="#ab"/>
</g>
</g>
<g clip-path="url(#a)">
<g transform="translate(591.1 805.1) scale(.1 -.1)">
<use xlink:href="#c"/>
<use x="63.623047" xlink:href="#d"/>
<use x="95.410156" xlink:href="#p"/>
<use x="159.033203" xlink:href="#ag"/>
</g>
</g>
<g clip-path="url(#a)">
<g transform="translate(69.64 805.1) scale(.1 -.1)">
<use xlink:href="#c"/>
<use x="63.623047" xlink:href="#d"/>
<use x="95.410156" xlink:href="#p"/>
<use x="159.033203" xlink:href="#c"/>
</g>
</g>
<g clip-path="url(#a)">
<g transform="translate(117.05 805.1) scale(.1 -.1)">
<use xlink:href="#c"/>
<use x="63.623047" xlink:href="#d"/>
<use x="95.410156" xlink:href="#p"/>
<use x="159.033203" xlink:href="#n"/>
</g>
</g>
<g clip-path="url(#a)">
<g transform="translate(221.34 627.92) scale(.1 -.1)">
<use xlink:href="#c"/>
<use x="63.623047" xlink:href="#d"/>
<use x="95.410156" xlink:href="#p"/>
<use x="159.033203" xlink:href="#m"/>
</g>
</g>
<g clip-path="url(#a)">
<g transform="translate(164.45 805.1) scale(.1 -.1)">
<use xlink:href="#c"/>
<use x="63.623047" xlink:href="#d"/>
<use x="95.410156" xlink:href="#p"/>
<use x="159.033203" xlink:href="#p"/>
</g>
</g>
<g clip-path="url(#a)">
<g transform="translate(211.86 805.1) scale(.1 -.1)">
<use xlink:href="#c"/>
<use x="63.623047" xlink:href="#d"/>
<use x="95.410156" xlink:href="#p"/>
<use x="159.033203" xlink:href="#q"/>
</g>
</g>
<g clip-path="url(#a)">
<g transform="translate(282.96 717.12) scale(.1 -.1)">
<use xlink:href="#c"/>
<use x="63.623047" xlink:href="#d"/>
<use x="95.410156" xlink:href="#p"/>
<use x="159.033203" xlink:href="#ad"/>
</g>
</g>
<g clip-path="url(#a)">
<g transform="translate(377.78 717.12) scale(.1 -.1)">
<use xlink:href="#c"/>
<use x="63.623047" xlink:href="#d"/>
<use x="95.410156" xlink:href="#p"/>
<use x="159.033203" xlink:href="#w"/>
</g>
</g>
<g clip-path="url(#a)">
<g transform="translate(354.07 805.1) scale(.1 -.1)">
<use xlink:href="#c"/>
<use x="63.623047" xlink:href="#d"/>
<use x="95.410156" xlink:href="#p"/>
<use x="159.033203" xlink:href="#ac"/>
</g>
</g>
<g clip-path="url(#a)">
<g transform="translate(401.48 805.1) scale(.1 -.1)">
<use xlink:href="#c"/>
<use x="63.623047" xlink:href="#d"/>
<use x="95.410156" xlink:href="#p"/>
<use x="159.033203" xlink:href="#ab"/>
</g>
</g>
<g clip-path="url(#a)">
<g transform="translate(259.26 805.1) scale(.1 -.1)">
<use xlink:href="#c"/>
<use x="63.623047" xlink:href="#d"/>
<use x="95.410156" xlink:href="#q"/>
<use x="159.033203" xlink:href="#ag"/>
</g>
</g>
<g clip-path="url(#a)">
<g transform="translate(306.67 805.1) scale(.1 -.1)">
<use xlink:href="#c"/>
<use x="63.623047" xlink:href="#d"/>
<use x="95.410156" xlink:href="#q"/>
<use x="159.033203" xlink:href="#c"/>
</g>
</g>
<g clip-path="url(#a)">
<g transform="translate(448.88 805.1) scale(.1 -.1)">
<use xlink:href="#c"/>
<use x="63.623047" xlink:href="#d"/>
<use x="95.410156" xlink:href="#q"/>
<use x="159.033203" xlink:href="#n"/>
</g>
</g>
<g clip-path="url(#a)">
<g transform="translate(638.51 805.1) scale(.1 -.1)">
<use xlink:href="#c"/>
<use x="63.623047" xlink:href="#d"/>
<use x="95.410156" xlink:href="#q"/>
<use x="159.033203" xlink:href="#m"/>
</g>
</g>
<g clip-path="url(#a)">
<g transform="translate(685.91 805.1) scale(.1 -.1)">
<use xlink:href="#c"/>
<use x="63.623047" xlink:href="#d"/>
<use x="95.410156" xlink:href="#q"/>
<use x="159.033203" xlink:href="#p"/>
</g>
</g>
<g clip-path="url(#a)">
<g transform="translate(828.13 805.1) scale(.1 -.1)">
<use xlink:href="#c"/>
<use x="63.623047" xlink:href="#d"/>
<use x="95.410156" xlink:href="#q"/>
<use x="159.033203" xlink:href="#q"/>
</g>
</g>
<g clip-path="url(#a)">
<g transform="translate(1634 805.1) scale(.1 -.1)">
<use xlink:href="#c"/>
<use x="63.623047" xlink:href="#d"/>
<use x="95.410156" xlink:href="#q"/>
<use x="159.033203" xlink:href="#ad"/>
</g>
</g>
<g clip-path="url(#a)">
<g transform="translate(1681.4 805.1) scale(.1 -.1)">
<use xlink:href="#c"/>
<use x="63.623047" xlink:href="#d"/>
<use x="95.410156" xlink:href="#q"/>
<use x="159.033203" xlink:href="#w"/>
</g>
</g>
<defs>
<clipPath id="a">
<rect width="1773.3" height="933.33"/>
</clipPath>
</defs>
</svg>
