<?xml version="1.0" encoding="UTF-8"?>
<!DOCTYPE svg  PUBLIC '-//W3C//DTD SVG 1.1//EN'  'http://www.w3.org/Graphics/SVG/1.1/DTD/svg11.dtd'>
<svg width="1418.7pt" height="746.67pt" version="1.1" viewBox="0 0 1418.7 746.67" xmlns="http://www.w3.org/2000/svg" xmlns:xlink="http://www.w3.org/1999/xlink">
<defs>
<style type="text/css">*{stroke-linecap:butt;stroke-linejoin:round;}</style>
</defs>
<path d="m0 746.67h1418.7v-746.67h-1418.7z" fill="#fff"/>
<g fill="none" stroke="#000">
<path d="m436.67 34.853-298.85 118.57" clip-path="url(#a)"/>
<path d="m436.67 34.853 10.036 567.57" clip-path="url(#a)"/>
<path d="m436.67 34.853 326.53 118.57" clip-path="url(#a)"/>
<path d="m436.67 34.853-37.715 567.57" clip-path="url(#a)"/>
<path d="m137.81 153.42-73.119 448.99" clip-path="url(#a)"/>
<path d="m137.81 153.42-25.368 448.99" clip-path="url(#a)"/>
<path d="m137.81 153.42 22.383 448.99" clip-path="url(#a)"/>
<path d="m137.81 153.42 76.103 115.63" clip-path="url(#a)"/>
<path d="m446.7 602.42v109.4" clip-path="url(#a)"/>
<path d="m763.2 153.42-198.45 115.63" clip-path="url(#a)"/>
<path d="m763.2 153.42 17.759 448.99" clip-path="url(#a)"/>
<path d="m763.2 153.42 180.69 115.63" clip-path="url(#a)"/>
<path d="m564.75 269.05-70.3 333.36" clip-path="url(#a)"/>
<path d="m564.75 269.05-22.549 333.36" clip-path="url(#a)"/>
<path d="m564.75 269.05 92.849 113.05" clip-path="url(#a)"/>
<path d="m780.96 602.42v109.4" clip-path="url(#a)"/>
<path d="m943.89 269.05-91.302 223.97" clip-path="url(#a)"/>
<path d="m943.89 269.05 91.302 113.05" clip-path="url(#a)"/>
<path d="m852.59 493.02-23.876 109.4" clip-path="url(#a)"/>
<path d="m852.59 493.02 23.876 109.4" clip-path="url(#a)"/>
<path d="m1035.2 382.11-110.98 220.31" clip-path="url(#a)"/>
<path d="m1035.2 382.11-194.54 110.92" clip-path="url(#a)"/>
<path d="m1035.2 382.11-146.79 110.92" clip-path="url(#a)"/>
<path d="m1035.2 382.11-99.039 110.92" clip-path="url(#a)"/>
<path d="m1035.2 382.11 223.28 220.31" clip-path="url(#a)"/>
<path d="m1035.2 382.11 87.986 110.92" clip-path="url(#a)"/>
<path d="m1035.2 382.11-15.475 220.31" clip-path="url(#a)"/>
<path d="m1035.2 382.11 80.027 220.31" clip-path="url(#a)"/>
<path d="m1035.2 382.11 175.53 220.31" clip-path="url(#a)"/>
<path d="m924.21 602.42v109.4" clip-path="url(#a)"/>
<path d="m840.65 493.02 131.32 109.4" clip-path="url(#a)"/>
<path d="m840.65 493.02-131.32 109.4" clip-path="url(#a)" stroke-dasharray="3.7,1.6"/>
<path d="m888.4 493.02 179.07 109.4" clip-path="url(#a)"/>
<path d="m888.4 493.02-179.07 109.4" clip-path="url(#a)" stroke-dasharray="3.7,1.6"/>
<path d="m936.15 493.02 226.82 109.4" clip-path="url(#a)"/>
<path d="m936.15 493.02-226.82 109.4" clip-path="url(#a)" stroke-dasharray="3.7,1.6"/>
<path d="m1258.5 602.42v109.4" clip-path="url(#a)"/>
<path d="m1123.2 493.02 183.05 109.4" clip-path="url(#a)"/>
<path d="m1123.2 493.02-413.84 109.4" clip-path="url(#a)" stroke-dasharray="3.7,1.6"/>
<path d="m1123.2 493.02 230.8 109.4" clip-path="url(#a)"/>
<path d="m1306.2 602.42v109.4" clip-path="url(#a)"/>
<path d="m1163 602.42v109.4" clip-path="url(#a)"/>
<path d="m1067.5 602.42v109.4" clip-path="url(#a)"/>
<path d="m971.96 602.42v109.4" clip-path="url(#a)"/>
<path d="m828.71 602.42v109.4" clip-path="url(#a)"/>
<path d="m876.46 602.42v109.4" clip-path="url(#a)"/>
<path d="m494.45 602.42v109.4" clip-path="url(#a)"/>
<path d="m542.2 602.42v109.4" clip-path="url(#a)"/>
<path d="m657.6 382.11-67.647 220.31" clip-path="url(#a)"/>
<path d="m657.6 382.11 15.917 110.92" clip-path="url(#a)"/>
<path d="m657.6 382.11 51.73 220.31" clip-path="url(#a)"/>
<path d="m589.96 602.42v109.4" clip-path="url(#a)"/>
<path d="m673.52 493.02 35.813 109.4" clip-path="url(#a)" stroke-dasharray="3.7,1.6"/>
<path d="m673.52 493.02-35.813 109.4" clip-path="url(#a)"/>
<path d="m709.33 602.42-23.876 109.4" clip-path="url(#a)"/>
<path d="m709.33 602.42 23.876 109.4" clip-path="url(#a)"/>
<path d="m637.71 602.42v109.4" clip-path="url(#a)"/>
<path d="m64.695 602.42v109.4" clip-path="url(#a)"/>
<path d="m112.45 602.42v109.4" clip-path="url(#a)"/>
<path d="m160.2 602.42v109.4" clip-path="url(#a)"/>
<path d="m213.92 269.05-149.22 333.36" clip-path="url(#a)" stroke-dasharray="3.7,1.6"/>
<path d="m213.92 269.05-5.9689 333.36" clip-path="url(#a)"/>
<path d="m213.92 269.05 41.782 333.36" clip-path="url(#a)"/>
<path d="m213.92 269.05 113.41 113.05" clip-path="url(#a)"/>
<path d="m207.95 602.42v109.4" clip-path="url(#a)"/>
<path d="m255.7 602.42v109.4" clip-path="url(#a)"/>
<path d="m327.33 382.11v110.92" clip-path="url(#a)"/>
<path d="m327.33 493.02-23.876 109.4" clip-path="url(#a)"/>
<path d="m327.33 493.02 23.876 109.4" clip-path="url(#a)"/>
<path d="m303.45 602.42v109.4" clip-path="url(#a)"/>
<path d="m351.2 602.42v109.4" clip-path="url(#a)"/>
<path d="m398.95 602.42v109.4" clip-path="url(#a)"/>
<path d="m1019.7 602.42v109.4" clip-path="url(#a)"/>
<path d="m1115.2 602.42v109.4" clip-path="url(#a)"/>
<path d="m1210.7 602.42v109.4" clip-path="url(#a)"/>
<path d="m1354 602.42v109.4" clip-path="url(#a)"/>
</g>
<path d="m286.76 101.08 5.5922-2.2187q2.2308-0.8851 1.3457-3.1159l-2.8554-7.1968q-0.8851-2.2308-3.1159-1.3457l-5.5922 2.2187q-2.2308 0.8851-1.3457 3.1159l2.8554 7.1968q0.8851 2.2308 3.1159 1.3457z" clip-path="url(#a)" fill="#fff" stroke="#fff"/>
<g clip-path="url(#a)">
<defs>
<path id="an" d="m9.8125 72.906h9.8594v-29.891h35.844v29.891h9.8594v-72.906h-9.8594v34.719h-35.844v-34.719h-9.8594z"/>
</defs>
<g transform="translate(285.26 97.3) rotate(-21.641) scale(.08 -.08)">
<use xlink:href="#an"/>
</g>
</g>
<path d="m435.38 316.52 0.078804 4.4568q0.04243 2.3996 2.4421 2.3572l7.7413-0.13688q2.3996-0.04243 2.3572-2.4421l-0.078805-4.4568q-0.04243-2.3996-2.4421-2.3572l-7.7413 0.13688q-2.3996 0.04243-2.3572 2.4421z" clip-path="url(#a)" fill="#fff" stroke="#fff"/>
<g clip-path="url(#a)">
<defs>
<path id="am" d="m9.8125 72.906h9.8594v-64.609h35.5v-8.2969h-45.359z"/>
</defs>
<g transform="translate(439.44 316.45) rotate(88.987) scale(.08 -.08)">
<use xlink:href="#am"/>
</g>
</g>
<path d="m594.97 99.007 5.655 2.0535q2.2559 0.81916 3.075-1.4367l2.6426-7.2775q0.81916-2.2559-1.4367-3.075l-5.655-2.0535q-2.2559-0.81916-3.075 1.4367l-2.6426 7.2775q-0.81916 2.2559 1.4367 3.075z" clip-path="url(#a)" fill="#fff" stroke="#fff"/>
<g clip-path="url(#a)">
<g transform="translate(596.35 95.187) rotate(19.957) scale(.08 -.08)">
<use xlink:href="#an"/>
</g>
</g>
<path d="m423.87 321.97 0.38822-5.8421q0.15913-2.3947-2.2356-2.5538l-7.7255-0.51337q-2.3947-0.15913-2.5538 2.2356l-0.38822 5.8421q-0.15913 2.3947 2.2356 2.5539l7.7255 0.51336q2.3947 0.15913 2.5539-2.2356z" clip-path="url(#a)" fill="#fff" stroke="#fff"/>
<g clip-path="url(#a)">
<defs>
<path id="x" d="m8.6875 72.906h9.9219v-44.297q0-11.719 4.2344-16.875 4.25-5.1406 13.781-5.1406 9.4688 0 13.719 5.1406 4.25 5.1562 4.25 16.875v44.297h9.9062v-45.516q0-14.25-7.0625-21.531-7.0469-7.2812-20.812-7.2812-13.828 0-20.891 7.2812-7.0469 7.2812-7.0469 21.531z"/>
</defs>
<g transform="translate(419.82 321.7) rotate(-86.198) scale(.08 -.08)">
<use xlink:href="#x"/>
</g>
</g>
<path d="m107 381.63 0.87961-5.4013q0.38576-2.3688-1.983-2.7546l-7.6418-1.2445q-2.3688-0.38576-2.7546 1.983l-0.87961 5.4013q-0.38576 2.3688 1.983 2.7546l7.6418 1.2445q2.3688 0.38576 2.7546-1.983z" clip-path="url(#a)" fill="#fff" stroke="#fff"/>
<g clip-path="url(#a)">
<defs>
<path id="p" d="m34.188 63.188-13.391-36.281h26.812zm-5.5781 9.7188h11.188l27.781-72.906h-10.25l-6.6406 18.703h-32.859l-6.6406-18.703h-10.406z"/>
</defs>
<g transform="translate(102.99 380.98) rotate(-80.751) scale(.08 -.08)">
<use xlink:href="#p"/>
</g>
</g>
<path d="m131.26 380.57 0.25955-4.5939q0.13538-2.3962-2.2608-2.5316l-7.7302-0.43675q-2.3962-0.13538-2.5316 2.2608l-0.25955 4.5939q-0.13538 2.3962 2.2608 2.5316l7.7302 0.43675q2.3962 0.13538 2.5316-2.2608z" clip-path="url(#a)" fill="#fff" stroke="#fff"/>
<g clip-path="url(#a)">
<defs>
<path id="ao" d="m9.8125 72.906h41.891v-8.3125h-32.031v-21.484h28.906v-8.2969h-28.906v-34.812h-9.8594z"/>
</defs>
<g transform="translate(127.2 380.34) rotate(-86.766) scale(.08 -.08)">
<use xlink:href="#ao"/>
</g>
</g>
<path d="m142.62 375.83 0.24018 4.8178q0.1195 2.397 2.5165 2.2775l7.7329-0.3855q2.397-0.1195 2.2775-2.5165l-0.24018-4.8178q-0.1195-2.397-2.5165-2.2775l-7.7329 0.3855q-2.397 0.1195-2.2775 2.5165z" clip-path="url(#a)" fill="#fff" stroke="#fff"/>
<g clip-path="url(#a)">
<defs>
<path id="aa" d="m19.672 64.797v-27.391h12.406q6.8906 0 10.641 3.5625 3.7656 3.5625 3.7656 10.156 0 6.5469-3.7656 10.109-3.75 3.5625-10.641 3.5625zm-9.8594 8.1094h22.266q12.266 0 18.531-5.5469 6.2812-5.5469 6.2812-16.234 0-10.797-6.2812-16.312-6.2656-5.5156-18.531-5.5156h-12.406v-29.297h-9.8594z"/>
</defs>
<g transform="translate(146.68 375.62) rotate(87.146) scale(.08 -.08)">
<use xlink:href="#aa"/>
</g>
</g>
<path d="m169.12 212.4 3.0086 4.5712q1.3195 2.0047 3.3242 0.68529l6.4674-4.2566q2.0047-1.3195 0.68529-3.3242l-3.0086-4.5712q-1.3195-2.0047-3.3242-0.68529l-6.4674 4.2566q-2.0047 1.3195-0.68529 3.3242z" clip-path="url(#a)" fill="#fff" stroke="#fff"/>
<g clip-path="url(#a)">
<g transform="translate(172.52 210.17) rotate(56.648) scale(.08 -.08)">
<use xlink:href="#p"/>
</g>
</g>
<path d="m440.43 639.47v35.285q0 2.4 2.4 2.4h7.7425q2.4 0 2.4-2.4v-35.285q0-2.4-2.4-2.4h-7.7425q-2.4 0-2.4 2.4z" clip-path="url(#a)" fill="#fff" stroke="#fff"/>
<g clip-path="url(#a)">
<defs>
<path id="l" d="m-0.29688 72.906h61.672v-8.3125h-25.875v-64.594h-9.9062v64.594h-25.891z"/>
<path id="g" d="m56.203 29.594v-4.3906h-41.312q0.59375-9.2812 5.5938-14.141t13.938-4.8594q5.1719 0 10.031 1.2656t9.6562 3.8125v-8.5q-4.8438-2.0469-9.9219-3.125t-10.297-1.0781q-13.094 0-20.734 7.6094-7.6406 7.625-7.6406 20.625 0 13.422 7.25 21.297 7.25 7.8906 19.562 7.8906 11.031 0 17.453-7.1094 6.4219-7.0938 6.4219-19.297zm-8.9844 2.6406q-0.09375 7.3594-4.125 11.75-4.0312 4.4062-10.672 4.4062-7.5156 0-12.031-4.25t-5.2031-11.969z"/>
<path id="f" d="m41.109 46.297q-1.5156 0.875-3.2969 1.2812-1.7812 0.42188-3.9219 0.42188-7.625 0-11.703-4.9531t-4.0781-14.234v-28.812h-9.0312v54.688h9.0312v-8.5q2.8438 4.9844 7.375 7.3906 4.5469 2.4219 11.047 2.4219 0.92188 0 2.0469-0.125 1.125-0.10938 2.4844-0.35938z"/>
<path id="k" d="m52 44.188q3.375 6.0625 8.0625 8.9375t11.031 2.875q8.5469 0 13.188-5.9844 4.6406-5.9688 4.6406-17v-33.016h-9.0312v32.719q0 7.8594-2.7969 11.656-2.7812 3.8125-8.4844 3.8125-6.9844 0-11.047-4.6406-4.0469-4.625-4.0469-12.641v-30.906h-9.0312v32.719q0 7.9062-2.7812 11.688t-8.5938 3.7812q-6.8906 0-10.953-4.6562-4.0469-4.6562-4.0469-12.625v-30.906h-9.0312v54.688h9.0312v-8.5q3.0781 5.0312 7.375 7.4219t10.203 2.3906q5.9688 0 10.141-3.0312 4.1719-3.0156 6.1719-8.7812z"/>
<path id="h" d="m9.4219 54.688h8.9844v-54.688h-8.9844zm0 21.297h8.9844v-11.391h-8.9844z"/>
<path id="i" d="m54.891 33.016v-33.016h-8.9844v32.719q0 7.7656-3.0312 11.609-3.0312 3.8594-9.0781 3.8594-7.2812 0-11.484-4.6406-4.2031-4.625-4.2031-12.641v-30.906h-9.0312v54.688h9.0312v-8.5q3.2344 4.9375 7.5938 7.375 4.375 2.4375 10.094 2.4375 9.4219 0 14.25-5.8281 4.8438-5.8281 4.8438-17.156z"/>
<path id="e" d="m34.281 27.484q-10.891 0-15.094-2.4844t-4.2031-8.5q0-4.7812 3.1562-7.5938 3.1562-2.7969 8.5625-2.7969 7.4844 0 12 5.2969t4.5156 14.078v2zm17.922 3.7188v-31.203h-8.9844v8.2969q-3.0781-4.9688-7.6719-7.3438t-11.234-2.375q-8.3906 0-13.359 4.7188-4.9531 4.7188-4.9531 12.625 0 9.2188 6.1719 13.906 6.1875 4.6875 18.438 4.6875h12.609v0.89062q0 6.2031-4.0781 9.5938t-11.453 3.3906q-4.6875 0-9.1406-1.125-4.4375-1.125-8.5312-3.375v8.3125q4.9219 1.9062 9.5625 2.8438 4.6406 0.95312 9.0312 0.95312 11.875 0 17.734-6.1562 5.8594-6.1406 5.8594-18.641z"/>
<path id="j" d="m9.4219 75.984h8.9844v-75.984h-8.9844z"/>
</defs>
<g transform="translate(444.5 639.47) rotate(90) scale(.08 -.08)">
<use xlink:href="#l"/>
<use x="60.818359" xlink:href="#g"/>
<use x="122.341797" xlink:href="#f"/>
<use x="163.439453" xlink:href="#k"/>
<use x="260.851562" xlink:href="#h"/>
<use x="288.634766" xlink:href="#i"/>
<use x="352.013672" xlink:href="#e"/>
<use x="413.292969" xlink:href="#j"/>
</g>
</g>
<path d="m664.77 218.04 4.7284-2.7551q2.0737-1.2083 0.86541-3.2819l-3.8979-6.6897q-1.2083-2.0737-3.2819-0.86541l-4.7284 2.7551q-2.0737 1.2083-0.86541 3.2819l3.8979 6.6897q1.2083 2.0737 3.2819 0.86541z" clip-path="url(#a)" fill="#fff" stroke="#fff"/>
<g clip-path="url(#a)">
<g transform="translate(662.72 214.52) rotate(-30.228) scale(.08 -.08)">
<use xlink:href="#p"/>
</g>
</g>
<path d="m765.72 375.76 0.19065 4.82q0.094855 2.3981 2.493 2.3033l7.7365-0.306q2.3981-0.094854 2.3033-2.493l-0.19065-4.82q-0.094854-2.3981-2.493-2.3033l-7.7365 0.306q-2.3981 0.094854-2.3033 2.493z" clip-path="url(#a)" fill="#fff" stroke="#fff"/>
<g clip-path="url(#a)">
<g transform="translate(769.78 375.6) rotate(87.735) scale(.08 -.08)">
<use xlink:href="#aa"/>
</g>
</g>
<path d="m847.86 215.05 4.6095 2.9498q2.0215 1.2936 3.3151-0.72787l4.1733-6.5215q1.2936-2.0215-0.72787-3.3151l-4.6095-2.9498q-2.0215-1.2936-3.3151 0.72787l-4.1733 6.5215q-1.2936 2.0215 0.72787 3.3151z" clip-path="url(#a)" fill="#fff" stroke="#fff"/>
<g clip-path="url(#a)">
<g transform="translate(850.05 211.62) rotate(32.617) scale(.08 -.08)">
<use xlink:href="#p"/>
</g>
</g>
<path d="m535.22 439.5 1.0431-4.9462q0.49522-2.3484-1.8531-2.8436l-7.5759-1.5976q-2.3484-0.49522-2.8436 1.8531l-1.0431 4.9462q-0.49522 2.3484 1.8531 2.8436l7.5759 1.5976q2.3484 0.49522 2.8436-1.8531z" clip-path="url(#a)" fill="#fff" stroke="#fff"/>
<g clip-path="url(#a)">
<defs>
<path id="v" d="m9.8125 72.906h46.094v-8.3125h-36.234v-21.578h34.719v-8.2969h-34.719v-26.422h37.109v-8.2969h-46.969z"/>
</defs>
<g transform="translate(531.24 438.66) rotate(-78.092) scale(.08 -.08)">
<use xlink:href="#v"/>
</g>
</g>
<path d="m559.55 438.95 0.377-5.5735q0.16197-2.3945-2.2326-2.5565l-7.7248-0.52252q-2.3945-0.16197-2.5565 2.2326l-0.377 5.5735q-0.16197 2.3945 2.2326 2.5565l7.7248 0.52252q2.3945 0.16197 2.5565-2.2326z" clip-path="url(#a)" fill="#fff" stroke="#fff"/>
<g clip-path="url(#a)">
<defs>
<path id="t" d="m64.406 67.281v-10.391q-4.9844 4.6406-10.625 6.9219-5.6406 2.2969-11.984 2.2969-12.5 0-19.141-7.6406t-6.6406-22.094q0-14.406 6.6406-22.047t19.141-7.6406q6.3438 0 11.984 2.2969t10.625 6.9375v-10.312q-5.1719-3.5156-10.969-5.2812-5.7812-1.75-12.219-1.75-16.562 0-26.094 10.125-9.5156 10.141-9.5156 27.672 0 17.578 9.5156 27.703 9.5312 10.141 26.094 10.141 6.5312 0 12.312-1.7344 5.7969-1.7344 10.875-5.2031z"/>
</defs>
<g transform="translate(555.49 438.67) rotate(-86.13) scale(.08 -.08)">
<use xlink:href="#t"/>
</g>
</g>
<path d="m604.73 327.61 3.2083 3.9064q1.5232 1.8547 3.3779 0.33145l5.9832-4.914q1.8547-1.5232 0.33145-3.3779l-3.2083-3.9064q-1.5232-1.8547-3.3779-0.33145l-5.9832 4.914q-1.8547 1.5232-0.33145 3.3779z" clip-path="url(#a)" fill="#fff" stroke="#fff"/>
<g clip-path="url(#a)">
<g transform="translate(607.87 325.03) rotate(50.604) scale(.08 -.08)">
<use xlink:href="#v"/>
</g>
</g>
<path d="m774.69 639.47v35.285q0 2.4 2.4 2.4h7.7425q2.4 0 2.4-2.4v-35.285q0-2.4-2.4-2.4h-7.7425q-2.4 0-2.4 2.4z" clip-path="url(#a)" fill="#fff" stroke="#fff"/>
<g clip-path="url(#a)">
<g transform="translate(778.75 639.47) rotate(90) scale(.08 -.08)">
<use xlink:href="#l"/>
<use x="60.818359" xlink:href="#g"/>
<use x="122.341797" xlink:href="#f"/>
<use x="163.439453" xlink:href="#k"/>
<use x="260.851562" xlink:href="#h"/>
<use x="288.634766" xlink:href="#i"/>
<use x="352.013672" xlink:href="#e"/>
<use x="413.292969" xlink:href="#j"/>
</g>
</g>
<path d="m903.09 385.75 1.9082-4.681q0.90598-2.2224-1.3165-3.1284l-7.1697-2.9227q-2.2224-0.90598-3.1284 1.3165l-1.9082 4.681q-0.90598 2.2224 1.3165 3.1284l7.1697 2.9227q2.2224 0.90598 3.1284-1.3165z" clip-path="url(#a)" fill="#fff" stroke="#fff"/>
<g clip-path="url(#a)">
<g transform="translate(899.33 384.21) rotate(-67.822) scale(.08 -.08)">
<use xlink:href="#v"/>
</g>
</g>
<path d="m982.91 327.35 3.5098 4.346q1.5079 1.8671 3.375 0.35923l6.0235-4.8646q1.8671-1.5079 0.35923-3.375l-3.5098-4.346q-1.5079-1.8671-3.375-0.35923l-6.0235 4.8646q-1.8671 1.5079-0.35923 3.375z" clip-path="url(#a)" fill="#fff" stroke="#fff"/>
<g clip-path="url(#a)">
<g transform="translate(986.07 324.79) rotate(51.076) scale(.08 -.08)">
<use xlink:href="#t"/>
</g>
</g>
<path d="m846.24 551.53 1.0779-4.9387q0.51175-2.3448-1.8331-2.8566l-7.5644-1.6509q-2.3448-0.51175-2.8566 1.8331l-1.0779 4.9387q-0.51175 2.3448 1.833 2.8566l7.5644 1.6509q2.3448 0.51175 2.8566-1.8331z" clip-path="url(#a)" fill="#fff" stroke="#fff"/>
<g clip-path="url(#a)">
<g transform="translate(842.27 550.66) rotate(-77.688) scale(.08 -.08)">
<use xlink:href="#v"/>
</g>
</g>
<path d="m857.8 546.33 1.1912 5.4578q0.51175 2.3448 2.8566 1.8331l7.5644-1.6509q2.3448-0.51175 1.833-2.8566l-1.1912-5.4578q-0.51175-2.3448-2.8566-1.8331l-7.5644 1.6509q-2.3448 0.51175-1.8331 2.8566z" clip-path="url(#a)" fill="#fff" stroke="#fff"/>
<g clip-path="url(#a)">
<g transform="translate(861.77 545.46) rotate(77.688) scale(.08 -.08)">
<use xlink:href="#t"/>
</g>
</g>
<path d="m984.05 497.57 2.5007-4.9645q1.0797-2.1434-1.0637-3.2231l-6.9148-3.4831q-2.1434-1.0797-3.2231 1.0637l-2.5007 4.9645q-1.0797 2.1434 1.0637 3.2231l6.9148 3.4831q2.1434 1.0797 3.2231-1.0637z" clip-path="url(#a)" fill="#fff" stroke="#fff"/>
<g clip-path="url(#a)">
<defs>
<path id="al" d="m44.391 34.188q3.1719-1.0781 6.1719-4.5938t6.0312-9.6719l10.016-19.922h-10.609l-9.3125 18.703q-3.625 7.3281-7.0156 9.7188t-9.25 2.3906h-10.75v-30.812h-9.8594v72.906h22.266q12.5 0 18.656-5.2344 6.1562-5.2188 6.1562-15.766 0-6.8906-3.2031-11.438-3.2031-4.5312-9.2969-6.2812zm-24.719 30.609v-25.875h12.406q7.125 0 10.766 3.2969t3.6406 9.6875-3.6406 9.6406-10.766 3.25z"/>
</defs>
<g transform="translate(980.42 495.74) rotate(-63.264) scale(.08 -.08)">
<use xlink:href="#al"/>
</g>
</g>
<path d="m938.6 444.4 4.8529-2.7669q2.0849-1.1887 0.89622-3.2737l-3.8349-6.7261q-1.1887-2.0849-3.2737-0.89622l-4.8529 2.7669q-2.0849 1.1887-0.89622 3.2737l3.8349 6.7261q1.1887 2.0849 3.2737 0.89622z" clip-path="url(#a)" fill="#fff" stroke="#fff"/>
<g clip-path="url(#a)">
<g transform="translate(936.59 440.87) rotate(-29.689) scale(.08 -.08)">
<use xlink:href="#t"/>
</g>
</g>
<path d="m963.35 444.25 4.457-3.3677q1.9148-1.4469 0.46795-3.3617l-4.6677-6.1773q-1.4469-1.9148-3.3617-0.46795l-4.457 3.3677q-1.9148 1.4469-0.46795 3.3617l4.6677 6.1773q1.4469 1.9148 3.3617 0.46795z" clip-path="url(#a)" fill="#fff" stroke="#fff"/>
<g clip-path="url(#a)">
<g transform="translate(960.9 441.01) rotate(-37.075) scale(.08 -.08)">
<use xlink:href="#t"/>
</g>
</g>
<path d="m988.49 443.83 3.7207-4.1669q1.5985-1.7902-0.19171-3.3887l-5.7753-5.1568q-1.7902-1.5985-3.3887 0.19171l-3.7207 4.1669q-1.5985 1.7902 0.19171 3.3887l5.7753 5.1568q1.7902 1.5985 3.3887-0.19171z" clip-path="url(#a)" fill="#fff" stroke="#fff"/>
<g clip-path="url(#a)">
<g transform="translate(985.46 441.12) rotate(-48.238) scale(.08 -.08)">
<use xlink:href="#t"/>
</g>
</g>
<path d="m1140.3 494.62 4.2603 4.2036q1.7084 1.6857 3.394-0.02271l5.438-5.5113q1.6857-1.7084-0.022709-3.394l-4.2603-4.2036q-1.7084-1.6857-3.394 0.022709l-5.438 5.5113q-1.6857 1.7084 0.022709 3.394z" clip-path="url(#a)" fill="#fff" stroke="#fff"/>
<g clip-path="url(#a)">
<defs>
<path id="at" d="m9.8125 72.906h13.281l32.328-60.984v60.984h9.5625v-72.906h-13.281l-32.312 60.984v-60.984h-9.5781z"/>
</defs>
<g transform="translate(1143.1 491.73) rotate(44.617) scale(.08 -.08)">
<use xlink:href="#at"/>
</g>
</g>
<path d="m1072.5 439.27 3.4717 4.3765q1.4915 1.8803 3.3718 0.38873l6.0658-4.8117q1.8803-1.4915 0.38873-3.3718l-3.4717-4.3765q-1.4915-1.8803-3.3718-0.38873l-6.0658 4.8117q-1.8803 1.4915-0.38873 3.3718z" clip-path="url(#a)" fill="#fff" stroke="#fff"/>
<g clip-path="url(#a)">
<g transform="translate(1075.7 436.75) rotate(51.577) scale(.08 -.08)">
<use xlink:href="#t"/>
</g>
</g>
<path d="m1033.5 495.62 0.41025-5.8406q0.16816-2.3941-2.2259-2.5623l-7.7235-0.5425q-2.3941-0.16816-2.5623 2.2259l-0.41025 5.8406q-0.16816 2.3941 2.2259 2.5623l7.7235 0.5425q2.3941 0.16816 2.5623-2.2259z" clip-path="url(#a)" fill="#fff" stroke="#fff"/>
<g clip-path="url(#a)">
<g transform="translate(1029.4 495.34) rotate(-85.982) scale(.08 -.08)">
<use xlink:href="#x"/>
</g>
</g>
<path d="m1068.3 491.65 1.999 5.5032q0.8194 2.2558 3.0752 1.4364l7.2773-2.6434q2.2558-0.8194 1.4364-3.0752l-1.999-5.5032q-0.8194-2.2558-3.0752-1.4364l-7.2773 2.6434q-2.2558 0.8194-1.4364 3.0752z" clip-path="url(#a)" fill="#fff" stroke="#fff"/>
<g clip-path="url(#a)">
<g transform="translate(1072.1 490.26) rotate(70.037) scale(.08 -.08)">
<use xlink:href="#x"/>
</g>
</g>
<path d="m1116.2 493.88 3.6484 4.5793q1.4955 1.8771 3.3726 0.38155l6.0555-4.8246q1.8771-1.4955 0.38155-3.3726l-3.6484-4.5793q-1.4955-1.8771-3.3726-0.38155l-6.0555 4.8246q-1.8771 1.4955-0.38155 3.3726z" clip-path="url(#a)" fill="#fff" stroke="#fff"/>
<g clip-path="url(#a)">
<g transform="translate(1119.4 491.35) rotate(51.455) scale(.08 -.08)">
<use xlink:href="#x"/>
</g>
</g>
<path d="m917.94 639.47v35.285q0 2.4 2.4 2.4h7.7425q2.4 0 2.4-2.4v-35.285q0-2.4-2.4-2.4h-7.7425q-2.4 0-2.4 2.4z" clip-path="url(#a)" fill="#fff" stroke="#fff"/>
<g clip-path="url(#a)">
<g transform="translate(922.01 639.47) rotate(90) scale(.08 -.08)">
<use xlink:href="#l"/>
<use x="60.818359" xlink:href="#g"/>
<use x="122.341797" xlink:href="#f"/>
<use x="163.439453" xlink:href="#k"/>
<use x="260.851562" xlink:href="#h"/>
<use x="288.634766" xlink:href="#i"/>
<use x="352.013672" xlink:href="#e"/>
<use x="413.292969" xlink:href="#j"/>
</g>
</g>
<path d="m900.34 550.91 3.9021 3.2507q1.844 1.5362 3.3801-0.30781l4.9557-5.9487q1.5362-1.844-0.30781-3.3801l-3.9021-3.2507q-1.844-1.5362-3.3801 0.30781l-4.9557 5.9487q-1.5362 1.844 0.30781 3.3801z" clip-path="url(#a)" fill="#fff" stroke="#fff"/>
<g clip-path="url(#a)">
<defs>
<path id="y" d="m53.516 70.516v-9.625q-5.6094 2.6875-10.594 4-4.9844 1.3281-9.625 1.3281-8.0469 0-12.422-3.125t-4.375-8.8906q0-4.8438 2.9062-7.3125 2.9062-2.4531 11.016-3.9688l5.9531-1.2188q11.031-2.1094 16.281-7.4062t5.25-14.172q0-10.609-7.1094-16.078-7.0938-5.4688-20.812-5.4688-5.1719 0-11.016 1.1719-5.8281 1.1719-12.078 3.4688v10.156q6-3.3594 11.766-5.0781 5.7656-1.7031 11.328-1.7031 8.4375 0 13.031 3.3125 4.5938 3.3281 4.5938 9.4844 0 5.3594-3.2969 8.3906t-10.812 4.5469l-6.0156 1.1719q-11.031 2.1875-15.969 6.875-4.9219 4.6875-4.9219 13.047 0 9.6719 6.8125 15.234t18.766 5.5625q5.1406 0 10.453-0.9375 5.3281-0.92188 10.891-2.7656z"/>
</defs>
<g transform="translate(902.94 547.79) rotate(39.797) scale(.08 -.08)">
<use xlink:href="#y"/>
</g>
</g>
<path d="m776.9 554.29 4.2046-3.5028q1.844-1.5362 0.30781-3.3801l-4.9557-5.9487q-1.5362-1.844-3.3801-0.30781l-4.2046 3.5028q-1.844 1.5362-0.30781 3.3801l4.9557 5.9487q1.5362 1.844 3.3801 0.30781z" clip-path="url(#a)" fill="#fff" stroke="#fff"/>
<g clip-path="url(#a)">
<g transform="translate(774.3 551.17) rotate(-39.797) scale(.08 -.08)">
<use xlink:href="#p"/>
</g>
</g>
<path d="m972.5 551.75 4.334 2.6477q2.0481 1.2512 3.2992-0.79686l4.0364-6.6071q1.2512-2.0481-0.79686-3.2992l-4.334-2.6477q-2.0481-1.2512-3.2992 0.79686l-4.0364 6.6071q-1.2512 2.0481 0.79686 3.2992z" clip-path="url(#a)" fill="#fff" stroke="#fff"/>
<g clip-path="url(#a)">
<g transform="translate(974.61 548.28) rotate(31.422) scale(.08 -.08)">
<use xlink:href="#y"/>
</g>
</g>
<path d="m799.8 554.5 4.67-2.853q2.048-1.2512 0.79686-3.2992l-4.0364-6.6071q-1.2512-2.0481-3.2992-0.79686l-4.67 2.853q-2.0481 1.2512-0.79686 3.2992l4.0364 6.6071q1.2512 2.0481 3.2992 0.79686z" clip-path="url(#a)" fill="#fff" stroke="#fff"/>
<g clip-path="url(#a)">
<g transform="translate(797.68 551.03) rotate(-31.422) scale(.08 -.08)">
<use xlink:href="#p"/>
</g>
</g>
<path d="m1044.5 552.27 4.5745 2.2063q2.1617 1.0426 3.2043-1.1191l3.3635-6.9738q1.0426-2.1617-1.1191-3.2043l-4.5745-2.2063q-2.1617-1.0426-3.2043 1.1191l-3.3635 6.9738q-1.0426 2.1617 1.1191 3.2043z" clip-path="url(#a)" fill="#fff" stroke="#fff"/>
<g clip-path="url(#a)">
<g transform="translate(1046.3 548.61) rotate(25.748) scale(.08 -.08)">
<use xlink:href="#y"/>
</g>
</g>
<path d="m823 554.56 4.9291-2.3774q2.1617-1.0426 1.1191-3.2043l-3.3635-6.9738q-1.0426-2.1617-3.2043-1.1191l-4.9291 2.3774q-2.1617 1.0426-1.1191 3.2043l3.3635 6.9738q1.0426 2.1617 3.2043 1.1191z" clip-path="url(#a)" fill="#fff" stroke="#fff"/>
<g clip-path="url(#a)">
<g transform="translate(821.24 550.9) rotate(-25.748) scale(.08 -.08)">
<use xlink:href="#p"/>
</g>
</g>
<path d="m1252.2 639.47v35.285q0 2.4 2.4 2.4h7.7425q2.4 0 2.4-2.4v-35.285q0-2.4-2.4-2.4h-7.7425q-2.4 0-2.4 2.4z" clip-path="url(#a)" fill="#fff" stroke="#fff"/>
<g clip-path="url(#a)">
<g transform="translate(1256.3 639.47) rotate(90) scale(.08 -.08)">
<use xlink:href="#l"/>
<use x="60.818359" xlink:href="#g"/>
<use x="122.341797" xlink:href="#f"/>
<use x="163.439453" xlink:href="#k"/>
<use x="260.851562" xlink:href="#h"/>
<use x="288.634766" xlink:href="#i"/>
<use x="352.013672" xlink:href="#e"/>
<use x="413.292969" xlink:href="#j"/>
</g>
</g>
<path d="m1209.3 551.8 4.3595 2.6054q2.0601 1.2312 3.2913-0.82891l3.9719-6.6461q1.2312-2.0601-0.82891-3.2913l-4.3595-2.6054q-2.0601-1.2312-3.2913 0.82891l-3.9719 6.6461q-1.2312 2.0601 0.82891 3.2913z" clip-path="url(#a)" fill="#fff" stroke="#fff"/>
<g clip-path="url(#a)">
<g transform="translate(1211.4 548.31) rotate(30.864) scale(.08 -.08)">
<use xlink:href="#y"/>
</g>
</g>
<path d="m915.21 554.48 5.2908-1.3986q2.3203-0.61335 1.707-2.9337l-1.9787-7.4854q-0.61335-2.3203-2.9337-1.707l-5.2908 1.3986q-2.3203 0.61335-1.707 2.9337l1.9787 7.4854q0.61335 2.3203 2.9337 1.707z" clip-path="url(#a)" fill="#fff" stroke="#fff"/>
<g clip-path="url(#a)">
<g transform="translate(914.17 550.55) rotate(-14.807) scale(.08 -.08)">
<use xlink:href="#p"/>
</g>
</g>
<path d="m1233.2 552.13 5.2908 2.5078q2.1687 1.0279 3.1967-1.1408l3.3162-6.9964q1.0279-2.1687-1.1408-3.1967l-5.2908-2.5078q-2.1687-1.0279-3.1967 1.1408l-3.3162 6.9964q-1.0279 2.1687 1.1408 3.1967z" clip-path="url(#a)" fill="#fff" stroke="#fff"/>
<g clip-path="url(#a)">
<g transform="translate(1235 548.46) rotate(25.36) scale(.08 -.08)">
<use xlink:href="#x"/>
</g>
</g>
<path d="m1299.9 639.47v35.285q0 2.4 2.4 2.4h7.7425q2.4 0 2.4-2.4v-35.285q0-2.4-2.4-2.4h-7.7425q-2.4 0-2.4 2.4z" clip-path="url(#a)" fill="#fff" stroke="#fff"/>
<g clip-path="url(#a)">
<g transform="translate(1304 639.47) rotate(90) scale(.08 -.08)">
<use xlink:href="#l"/>
<use x="60.818359" xlink:href="#g"/>
<use x="122.341797" xlink:href="#f"/>
<use x="163.439453" xlink:href="#k"/>
<use x="260.851562" xlink:href="#h"/>
<use x="288.634766" xlink:href="#i"/>
<use x="352.013672" xlink:href="#e"/>
<use x="413.292969" xlink:href="#j"/>
</g>
</g>
<path d="m1156.7 639.47v35.285q0 2.4 2.4 2.4h7.7425q2.4 0 2.4-2.4v-35.285q0-2.4-2.4-2.4h-7.7425q-2.4 0-2.4 2.4z" clip-path="url(#a)" fill="#fff" stroke="#fff"/>
<g clip-path="url(#a)">
<g transform="translate(1160.8 639.47) rotate(90) scale(.08 -.08)">
<use xlink:href="#l"/>
<use x="60.818359" xlink:href="#g"/>
<use x="122.341797" xlink:href="#f"/>
<use x="163.439453" xlink:href="#k"/>
<use x="260.851562" xlink:href="#h"/>
<use x="288.634766" xlink:href="#i"/>
<use x="352.013672" xlink:href="#e"/>
<use x="413.292969" xlink:href="#j"/>
</g>
</g>
<path d="m1061.2 639.47v35.285q0 2.4 2.4 2.4h7.7425q2.4 0 2.4-2.4v-35.285q0-2.4-2.4-2.4h-7.7425q-2.4 0-2.4 2.4z" clip-path="url(#a)" fill="#fff" stroke="#fff"/>
<g clip-path="url(#a)">
<g transform="translate(1065.3 639.47) rotate(90) scale(.08 -.08)">
<use xlink:href="#l"/>
<use x="60.818359" xlink:href="#g"/>
<use x="122.341797" xlink:href="#f"/>
<use x="163.439453" xlink:href="#k"/>
<use x="260.851562" xlink:href="#h"/>
<use x="288.634766" xlink:href="#i"/>
<use x="352.013672" xlink:href="#e"/>
<use x="413.292969" xlink:href="#j"/>
</g>
</g>
<path d="m965.69 639.47v35.285q0 2.4 2.4 2.4h7.7425q2.4 0 2.4-2.4v-35.285q0-2.4-2.4-2.4h-7.7425q-2.4 0-2.4 2.4z" clip-path="url(#a)" fill="#fff" stroke="#fff"/>
<g clip-path="url(#a)">
<g transform="translate(969.76 639.47) rotate(90) scale(.08 -.08)">
<use xlink:href="#l"/>
<use x="60.818359" xlink:href="#g"/>
<use x="122.341797" xlink:href="#f"/>
<use x="163.439453" xlink:href="#k"/>
<use x="260.851562" xlink:href="#h"/>
<use x="288.634766" xlink:href="#i"/>
<use x="352.013672" xlink:href="#e"/>
<use x="413.292969" xlink:href="#j"/>
</g>
</g>
<path d="m822.44 639.47v35.285q0 2.4 2.4 2.4h7.7425q2.4 0 2.4-2.4v-35.285q0-2.4-2.4-2.4h-7.7425q-2.4 0-2.4 2.4z" clip-path="url(#a)" fill="#fff" stroke="#fff"/>
<g clip-path="url(#a)">
<g transform="translate(826.5 639.47) rotate(90) scale(.08 -.08)">
<use xlink:href="#l"/>
<use x="60.818359" xlink:href="#g"/>
<use x="122.341797" xlink:href="#f"/>
<use x="163.439453" xlink:href="#k"/>
<use x="260.851562" xlink:href="#h"/>
<use x="288.634766" xlink:href="#i"/>
<use x="352.013672" xlink:href="#e"/>
<use x="413.292969" xlink:href="#j"/>
</g>
</g>
<path d="m870.19 639.47v35.285q0 2.4 2.4 2.4h7.7425q2.4 0 2.4-2.4v-35.285q0-2.4-2.4-2.4h-7.7425q-2.4 0-2.4 2.4z" clip-path="url(#a)" fill="#fff" stroke="#fff"/>
<g clip-path="url(#a)">
<g transform="translate(874.25 639.47) rotate(90) scale(.08 -.08)">
<use xlink:href="#l"/>
<use x="60.818359" xlink:href="#g"/>
<use x="122.341797" xlink:href="#f"/>
<use x="163.439453" xlink:href="#k"/>
<use x="260.851562" xlink:href="#h"/>
<use x="288.634766" xlink:href="#i"/>
<use x="352.013672" xlink:href="#e"/>
<use x="413.292969" xlink:href="#j"/>
</g>
</g>
<path d="m488.18 639.47v35.285q0 2.4 2.4 2.4h7.7425q2.4 0 2.4-2.4v-35.285q0-2.4-2.4-2.4h-7.7425q-2.4 0-2.4 2.4z" clip-path="url(#a)" fill="#fff" stroke="#fff"/>
<g clip-path="url(#a)">
<g transform="translate(492.25 639.47) rotate(90) scale(.08 -.08)">
<use xlink:href="#l"/>
<use x="60.818359" xlink:href="#g"/>
<use x="122.341797" xlink:href="#f"/>
<use x="163.439453" xlink:href="#k"/>
<use x="260.851562" xlink:href="#h"/>
<use x="288.634766" xlink:href="#i"/>
<use x="352.013672" xlink:href="#e"/>
<use x="413.292969" xlink:href="#j"/>
</g>
</g>
<path d="m535.93 639.47v35.285q0 2.4 2.4 2.4h7.7425q2.4 0 2.4-2.4v-35.285q0-2.4-2.4-2.4h-7.7425q-2.4 0-2.4 2.4z" clip-path="url(#a)" fill="#fff" stroke="#fff"/>
<g clip-path="url(#a)">
<g transform="translate(540 639.47) rotate(90) scale(.08 -.08)">
<use xlink:href="#l"/>
<use x="60.818359" xlink:href="#g"/>
<use x="122.341797" xlink:href="#f"/>
<use x="163.439453" xlink:href="#k"/>
<use x="260.851562" xlink:href="#h"/>
<use x="288.634766" xlink:href="#i"/>
<use x="352.013672" xlink:href="#e"/>
<use x="413.292969" xlink:href="#j"/>
</g>
</g>
<path d="m628.96 496.76 1.6316-5.3139q0.70446-2.2943-1.5898-2.9987l-7.4014-2.2726q-2.2943-0.70446-2.9987 1.5898l-1.6316 5.3139q-0.70446 2.2943 1.5898 2.9987l7.4014 2.2726q2.2943 0.70446 2.9987-1.5898z" clip-path="url(#a)" fill="#fff" stroke="#fff"/>
<g clip-path="url(#a)">
<g transform="translate(625.07 495.57) rotate(-72.931) scale(.08 -.08)">
<use xlink:href="#al"/>
</g>
</g>
<path d="m658.99 435.95 0.71806 5.0037q0.34092 2.3757 2.7166 2.0347l7.664-1.0998q2.3757-0.34092 2.0347-2.7166l-0.71806-5.0037q-0.34092-2.3757-2.7166-2.0347l-7.664 1.0998q-2.3757 0.34092-2.0347 2.7166z" clip-path="url(#a)" fill="#fff" stroke="#fff"/>
<g clip-path="url(#a)">
<g transform="translate(663.02 435.38) rotate(81.834) scale(.08 -.08)">
<use xlink:href="#v"/>
</g>
</g>
<path d="m676.72 490.98 1.2769 5.4383q0.54861 2.3365 2.8851 1.7878l7.5375-1.7698q2.3365-0.54861 1.7878-2.8851l-1.2769-5.4383q-0.54861-2.3365-2.8851-1.7878l-7.5375 1.7698q-2.3365 0.54861-1.7878 2.8851z" clip-path="url(#a)" fill="#fff" stroke="#fff"/>
<g clip-path="url(#a)">
<g transform="translate(680.68 490.05) rotate(76.786) scale(.08 -.08)">
<use xlink:href="#t"/>
</g>
</g>
<path d="m583.68 639.47v35.285q0 2.4 2.4 2.4h7.7425q2.4 0 2.4-2.4v-35.285q0-2.4-2.4-2.4h-7.7425q-2.4 0-2.4 2.4z" clip-path="url(#a)" fill="#fff" stroke="#fff"/>
<g clip-path="url(#a)">
<g transform="translate(587.75 639.47) rotate(90) scale(.08 -.08)">
<use xlink:href="#l"/>
<use x="60.818359" xlink:href="#g"/>
<use x="122.341797" xlink:href="#f"/>
<use x="163.439453" xlink:href="#k"/>
<use x="260.851562" xlink:href="#h"/>
<use x="288.634766" xlink:href="#i"/>
<use x="352.013672" xlink:href="#e"/>
<use x="413.292969" xlink:href="#j"/>
</g>
</g>
<path d="m684.62 547.07 1.7026 5.2009q0.7467 2.2809 3.0276 1.5342l7.3582-2.4089q2.2809-0.7467 1.5342-3.0276l-1.7026-5.2009q-0.7467-2.2809-3.0276-1.5342l-7.3582 2.4089q-2.2809 0.7467-1.5342 3.0276z" clip-path="url(#a)" fill="#fff" stroke="#fff"/>
<g clip-path="url(#a)">
<g transform="translate(688.48 545.81) rotate(71.873) scale(.08 -.08)">
<use xlink:href="#p"/>
</g>
</g>
<path d="m660.78 552.09 1.5801-4.8267q0.7467-2.2809-1.5342-3.0276l-7.3582-2.4089q-2.2809-0.7467-3.0276 1.5342l-1.5801 4.8267q-0.7467 2.2809 1.5342 3.0276l7.3582 2.4089q2.2809 0.7467 3.0276-1.5342z" clip-path="url(#a)" fill="#fff" stroke="#fff"/>
<g clip-path="url(#a)">
<g transform="translate(656.92 550.82) rotate(-71.873) scale(.08 -.08)">
<use xlink:href="#y"/>
</g>
</g>
<path d="m699.76 675.69 7.5238-34.474q0.51175-2.3448-1.8331-2.8566l-7.5644-1.6509q-2.3448-0.51175-2.8566 1.8331l-7.5238 34.474q-0.51175 2.3448 1.8331 2.8566l7.5644 1.6509q2.3448 0.51175 2.8566-1.833z" clip-path="url(#a)" fill="#fff" stroke="#fff"/>
<g clip-path="url(#a)">
<g transform="translate(695.79 674.82) rotate(-77.688) scale(.08 -.08)">
<use xlink:href="#l"/>
<use x="60.818359" xlink:href="#g"/>
<use x="122.341797" xlink:href="#f"/>
<use x="163.439453" xlink:href="#k"/>
<use x="260.851562" xlink:href="#h"/>
<use x="288.634766" xlink:href="#i"/>
<use x="352.013672" xlink:href="#e"/>
<use x="413.292969" xlink:href="#j"/>
</g>
</g>
<path d="m711.38 641.22 7.5238 34.474q0.51175 2.3448 2.8566 1.833l7.5644-1.6509q2.3448-0.51175 1.8331-2.8566l-7.5238-34.474q-0.51175-2.3448-2.8566-1.8331l-7.5644 1.6509q-2.3448 0.51175-1.8331 2.8566z" clip-path="url(#a)" fill="#fff" stroke="#fff"/>
<g clip-path="url(#a)">
<g transform="translate(715.35 640.35) rotate(77.688) scale(.08 -.08)">
<use xlink:href="#l"/>
<use x="60.818359" xlink:href="#g"/>
<use x="122.341797" xlink:href="#f"/>
<use x="163.439453" xlink:href="#k"/>
<use x="260.851562" xlink:href="#h"/>
<use x="288.634766" xlink:href="#i"/>
<use x="352.013672" xlink:href="#e"/>
<use x="413.292969" xlink:href="#j"/>
</g>
</g>
<path d="m631.44 639.47v35.285q0 2.4 2.4 2.4h7.7425q2.4 0 2.4-2.4v-35.285q0-2.4-2.4-2.4h-7.7425q-2.4 0-2.4 2.4z" clip-path="url(#a)" fill="#fff" stroke="#fff"/>
<g clip-path="url(#a)">
<g transform="translate(635.5 639.47) rotate(90) scale(.08 -.08)">
<use xlink:href="#l"/>
<use x="60.818359" xlink:href="#g"/>
<use x="122.341797" xlink:href="#f"/>
<use x="163.439453" xlink:href="#k"/>
<use x="260.851562" xlink:href="#h"/>
<use x="288.634766" xlink:href="#i"/>
<use x="352.013672" xlink:href="#e"/>
<use x="413.292969" xlink:href="#j"/>
</g>
</g>
<path d="m58.423 639.47v35.285q0 2.4 2.4 2.4h7.7425q2.4 0 2.4-2.4v-35.285q0-2.4-2.4-2.4h-7.7425q-2.4 0-2.4 2.4z" clip-path="url(#a)" fill="#fff" stroke="#fff"/>
<g clip-path="url(#a)">
<g transform="translate(62.487 639.47) rotate(90) scale(.08 -.08)">
<use xlink:href="#l"/>
<use x="60.818359" xlink:href="#g"/>
<use x="122.341797" xlink:href="#f"/>
<use x="163.439453" xlink:href="#k"/>
<use x="260.851562" xlink:href="#h"/>
<use x="288.634766" xlink:href="#i"/>
<use x="352.013672" xlink:href="#e"/>
<use x="413.292969" xlink:href="#j"/>
</g>
</g>
<path d="m106.17 639.47v35.285q0 2.4 2.4 2.4h7.7425q2.4 0 2.4-2.4v-35.285q0-2.4-2.4-2.4h-7.7425q-2.4 0-2.4 2.4z" clip-path="url(#a)" fill="#fff" stroke="#fff"/>
<g clip-path="url(#a)">
<g transform="translate(110.24 639.47) rotate(90) scale(.08 -.08)">
<use xlink:href="#l"/>
<use x="60.818359" xlink:href="#g"/>
<use x="122.341797" xlink:href="#f"/>
<use x="163.439453" xlink:href="#k"/>
<use x="260.851562" xlink:href="#h"/>
<use x="288.634766" xlink:href="#i"/>
<use x="352.013672" xlink:href="#e"/>
<use x="413.292969" xlink:href="#j"/>
</g>
</g>
<path d="m153.93 639.47v35.285q0 2.4 2.4 2.4h7.7425q2.4 0 2.4-2.4v-35.285q0-2.4-2.4-2.4h-7.7425q-2.4 0-2.4 2.4z" clip-path="url(#a)" fill="#fff" stroke="#fff"/>
<g clip-path="url(#a)">
<g transform="translate(157.99 639.47) rotate(90) scale(.08 -.08)">
<use xlink:href="#l"/>
<use x="60.818359" xlink:href="#g"/>
<use x="122.341797" xlink:href="#f"/>
<use x="163.439453" xlink:href="#k"/>
<use x="260.851562" xlink:href="#h"/>
<use x="288.634766" xlink:href="#i"/>
<use x="352.013672" xlink:href="#e"/>
<use x="413.292969" xlink:href="#j"/>
</g>
</g>
<path d="m143.91 440.8 2.2358-4.9949q0.98054-2.1906-1.21-3.1711l-7.0668-3.1633q-2.1906-0.98054-3.1711 1.21l-2.2358 4.9949q-0.98054 2.1906 1.21 3.1711l7.0668 3.1633q2.1906 0.98054 3.1711-1.21z" clip-path="url(#a)" fill="#fff" stroke="#fff"/>
<g clip-path="url(#a)">
<g transform="translate(140.2 439.14) rotate(-65.886) scale(.08 -.08)">
<use xlink:href="#p"/>
</g>
</g>
<path d="m217.16 438.15 0.082372-4.6005q0.042965-2.3996-2.3567-2.4426l-7.7413-0.13861q-2.3996-0.042965-2.4426 2.3566l-0.082372 4.6005q-0.042965 2.3996 2.3566 2.4426l7.7413 0.13861q2.3996 0.042965 2.4426-2.3567z" clip-path="url(#a)" fill="#fff" stroke="#fff"/>
<g clip-path="url(#a)">
<g transform="translate(213.1 438.08) rotate(-88.974) scale(.08 -.08)">
<use xlink:href="#ao"/>
</g>
</g>
<path d="m228.29 434.12 0.59989 4.7863q0.29847 2.3814 2.6798 2.0829l7.6824-0.96287q2.3814-0.29847 2.0829-2.6798l-0.59989-4.7863q-0.29847-2.3814-2.6798-2.0829l-7.6824 0.96287q-2.3814 0.29847-2.0829 2.6798z" clip-path="url(#a)" fill="#fff" stroke="#fff"/>
<g clip-path="url(#a)">
<g transform="translate(232.32 433.62) rotate(82.856) scale(.08 -.08)">
<use xlink:href="#aa"/>
</g>
</g>
<path d="m264.26 328.09 3.8757 3.8636q1.6997 1.6944 3.3941-0.005333l5.4662-5.4834q1.6944-1.6997-0.005334-3.3941l-3.8757-3.8636q-1.6997-1.6944-3.3941 0.005334l-5.4662 5.4834q-1.6944 1.6997 0.005334 3.3941z" clip-path="url(#a)" fill="#fff" stroke="#fff"/>
<g clip-path="url(#a)">
<g transform="translate(267.12 325.21) rotate(44.91) scale(.08 -.08)">
<use xlink:href="#p"/>
</g>
</g>
<path d="m201.68 639.47v35.285q0 2.4 2.4 2.4h7.7425q2.4 0 2.4-2.4v-35.285q0-2.4-2.4-2.4h-7.7425q-2.4 0-2.4 2.4z" clip-path="url(#a)" fill="#fff" stroke="#fff"/>
<g clip-path="url(#a)">
<g transform="translate(205.74 639.47) rotate(90) scale(.08 -.08)">
<use xlink:href="#l"/>
<use x="60.818359" xlink:href="#g"/>
<use x="122.341797" xlink:href="#f"/>
<use x="163.439453" xlink:href="#k"/>
<use x="260.851562" xlink:href="#h"/>
<use x="288.634766" xlink:href="#i"/>
<use x="352.013672" xlink:href="#e"/>
<use x="413.292969" xlink:href="#j"/>
</g>
</g>
<path d="m249.43 639.47v35.285q0 2.4 2.4 2.4h7.7425q2.4 0 2.4-2.4v-35.285q0-2.4-2.4-2.4h-7.7425q-2.4 0-2.4 2.4z" clip-path="url(#a)" fill="#fff" stroke="#fff"/>
<g clip-path="url(#a)">
<g transform="translate(253.49 639.47) rotate(90) scale(.08 -.08)">
<use xlink:href="#l"/>
<use x="60.818359" xlink:href="#g"/>
<use x="122.341797" xlink:href="#f"/>
<use x="163.439453" xlink:href="#k"/>
<use x="260.851562" xlink:href="#h"/>
<use x="288.634766" xlink:href="#i"/>
<use x="352.013672" xlink:href="#e"/>
<use x="413.292969" xlink:href="#j"/>
</g>
</g>
<path d="m320.93 431.07v12.991q0 2.4 2.4 2.4h8q2.4 0 2.4-2.4v-12.991q0-2.4-2.4-2.4h-8q-2.4 0-2.4 2.4z" clip-path="url(#a)" fill="#fff" stroke="#fff"/>
<g clip-path="url(#a)">
<defs>
<path id="av" d="m21 76.422v-100h-8.2969v100z"/>
</defs>
<g transform="translate(325.21 431.07) rotate(90) scale(.08 -.08)">
<use xlink:href="#p"/>
<use x="68.408203" xlink:href="#av"/>
<use x="102.099609" xlink:href="#aa"/>
</g>
</g>
<path d="m320.98 551.53 1.0779-4.9387q0.51175-2.3448-1.8331-2.8566l-7.5644-1.6509q-2.3448-0.51175-2.8566 1.8331l-1.0779 4.9387q-0.51175 2.3448 1.8331 2.8566l7.5644 1.6509q2.3448 0.51175 2.8566-1.8331z" clip-path="url(#a)" fill="#fff" stroke="#fff"/>
<g clip-path="url(#a)">
<g transform="translate(317.01 550.66) rotate(-77.688) scale(.08 -.08)">
<use xlink:href="#v"/>
</g>
</g>
<path d="m332.54 546.33 1.1912 5.4578q0.51175 2.3448 2.8566 1.8331l7.5644-1.6509q2.3448-0.51175 1.8331-2.8566l-1.1912-5.4578q-0.51175-2.3448-2.8566-1.8331l-7.5644 1.6509q-2.3448 0.51175-1.8331 2.8566z" clip-path="url(#a)" fill="#fff" stroke="#fff"/>
<g clip-path="url(#a)">
<g transform="translate(336.51 545.46) rotate(77.688) scale(.08 -.08)">
<use xlink:href="#t"/>
</g>
</g>
<path d="m297.18 639.47v35.285q0 2.4 2.4 2.4h7.7425q2.4 0 2.4-2.4v-35.285q0-2.4-2.4-2.4h-7.7425q-2.4 0-2.4 2.4z" clip-path="url(#a)" fill="#fff" stroke="#fff"/>
<g clip-path="url(#a)">
<g transform="translate(301.24 639.47) rotate(90) scale(.08 -.08)">
<use xlink:href="#l"/>
<use x="60.818359" xlink:href="#g"/>
<use x="122.341797" xlink:href="#f"/>
<use x="163.439453" xlink:href="#k"/>
<use x="260.851562" xlink:href="#h"/>
<use x="288.634766" xlink:href="#i"/>
<use x="352.013672" xlink:href="#e"/>
<use x="413.292969" xlink:href="#j"/>
</g>
</g>
<path d="m344.93 639.47v35.285q0 2.4 2.4 2.4h7.7425q2.4 0 2.4-2.4v-35.285q0-2.4-2.4-2.4h-7.7425q-2.4 0-2.4 2.4z" clip-path="url(#a)" fill="#fff" stroke="#fff"/>
<g clip-path="url(#a)">
<g transform="translate(348.99 639.47) rotate(90) scale(.08 -.08)">
<use xlink:href="#l"/>
<use x="60.818359" xlink:href="#g"/>
<use x="122.341797" xlink:href="#f"/>
<use x="163.439453" xlink:href="#k"/>
<use x="260.851562" xlink:href="#h"/>
<use x="288.634766" xlink:href="#i"/>
<use x="352.013672" xlink:href="#e"/>
<use x="413.292969" xlink:href="#j"/>
</g>
</g>
<path d="m392.68 639.47v35.285q0 2.4 2.4 2.4h7.7425q2.4 0 2.4-2.4v-35.285q0-2.4-2.4-2.4h-7.7425q-2.4 0-2.4 2.4z" clip-path="url(#a)" fill="#fff" stroke="#fff"/>
<g clip-path="url(#a)">
<g transform="translate(396.74 639.47) rotate(90) scale(.08 -.08)">
<use xlink:href="#l"/>
<use x="60.818359" xlink:href="#g"/>
<use x="122.341797" xlink:href="#f"/>
<use x="163.439453" xlink:href="#k"/>
<use x="260.851562" xlink:href="#h"/>
<use x="288.634766" xlink:href="#i"/>
<use x="352.013672" xlink:href="#e"/>
<use x="413.292969" xlink:href="#j"/>
</g>
</g>
<path d="m1013.4 639.47v35.285q0 2.4 2.4 2.4h7.7425q2.4 0 2.4-2.4v-35.285q0-2.4-2.4-2.4h-7.7425q-2.4 0-2.4 2.4z" clip-path="url(#a)" fill="#fff" stroke="#fff"/>
<g clip-path="url(#a)">
<g transform="translate(1017.5 639.47) rotate(90) scale(.08 -.08)">
<use xlink:href="#l"/>
<use x="60.818359" xlink:href="#g"/>
<use x="122.341797" xlink:href="#f"/>
<use x="163.439453" xlink:href="#k"/>
<use x="260.851562" xlink:href="#h"/>
<use x="288.634766" xlink:href="#i"/>
<use x="352.013672" xlink:href="#e"/>
<use x="413.292969" xlink:href="#j"/>
</g>
</g>
<path d="m1108.9 639.47v35.285q0 2.4 2.4 2.4h7.7425q2.4 0 2.4-2.4v-35.285q0-2.4-2.4-2.4h-7.7425q-2.4 0-2.4 2.4z" clip-path="url(#a)" fill="#fff" stroke="#fff"/>
<g clip-path="url(#a)">
<g transform="translate(1113 639.47) rotate(90) scale(.08 -.08)">
<use xlink:href="#l"/>
<use x="60.818359" xlink:href="#g"/>
<use x="122.341797" xlink:href="#f"/>
<use x="163.439453" xlink:href="#k"/>
<use x="260.851562" xlink:href="#h"/>
<use x="288.634766" xlink:href="#i"/>
<use x="352.013672" xlink:href="#e"/>
<use x="413.292969" xlink:href="#j"/>
</g>
</g>
<path d="m1204.4 639.47v35.285q0 2.4 2.4 2.4h7.7425q2.4 0 2.4-2.4v-35.285q0-2.4-2.4-2.4h-7.7425q-2.4 0-2.4 2.4z" clip-path="url(#a)" fill="#fff" stroke="#fff"/>
<g clip-path="url(#a)">
<g transform="translate(1208.5 639.47) rotate(90) scale(.08 -.08)">
<use xlink:href="#l"/>
<use x="60.818359" xlink:href="#g"/>
<use x="122.341797" xlink:href="#f"/>
<use x="163.439453" xlink:href="#k"/>
<use x="260.851562" xlink:href="#h"/>
<use x="288.634766" xlink:href="#i"/>
<use x="352.013672" xlink:href="#e"/>
<use x="413.292969" xlink:href="#j"/>
</g>
</g>
<path d="m1347.7 639.47v35.285q0 2.4 2.4 2.4h7.7425q2.4 0 2.4-2.4v-35.285q0-2.4-2.4-2.4h-7.7425q-2.4 0-2.4 2.4z" clip-path="url(#a)" fill="#fff" stroke="#fff"/>
<g clip-path="url(#a)">
<g transform="translate(1351.8 639.47) rotate(90) scale(.08 -.08)">
<use xlink:href="#l"/>
<use x="60.818359" xlink:href="#g"/>
<use x="122.341797" xlink:href="#f"/>
<use x="163.439453" xlink:href="#k"/>
<use x="260.851562" xlink:href="#h"/>
<use x="288.634766" xlink:href="#i"/>
<use x="352.013672" xlink:href="#e"/>
<use x="413.292969" xlink:href="#j"/>
</g>
</g>
<defs>
<path id="b" d="m0 8.6603c2.2967 0 4.4997-0.9125 6.1237-2.5365 1.624-1.624 2.5365-3.827 2.5365-6.1237s-0.9125-4.4997-2.5365-6.1237c-1.624-1.624-3.827-2.5365-6.1237-2.5365s-4.4997 0.9125-6.1237 2.5365c-1.624 1.624-2.5365 3.827-2.5365 6.1237s0.9125 4.4997 2.5365 6.1237c1.624 1.624 3.827 2.5365 6.1237 2.5365z"/>
</defs>
<g clip-path="url(#a)">
<use x="64.694726" y="711.813718" fill="#ffffff" stroke="#ffffff" xlink:href="#b"/>
</g>
<g clip-path="url(#a)">
<use x="112.445734" y="711.813718" fill="#ffffff" stroke="#ffffff" xlink:href="#b"/>
</g>
<g clip-path="url(#a)">
<use x="160.196742" y="711.813718" fill="#ffffff" stroke="#ffffff" xlink:href="#b"/>
</g>
<g clip-path="url(#a)">
<use x="207.94775" y="711.813718" fill="#ffffff" stroke="#ffffff" xlink:href="#b"/>
</g>
<g clip-path="url(#a)">
<use x="255.698758" y="711.813718" fill="#ffffff" stroke="#ffffff" xlink:href="#b"/>
</g>
<g clip-path="url(#a)">
<use x="303.449766" y="711.813718" fill="#ffffff" stroke="#ffffff" xlink:href="#b"/>
</g>
<g clip-path="url(#a)">
<use x="351.200774" y="711.813718" fill="#ffffff" stroke="#ffffff" xlink:href="#b"/>
</g>
<g clip-path="url(#a)">
<use x="398.951782" y="711.813718" fill="#ffffff" stroke="#ffffff" xlink:href="#b"/>
</g>
<g clip-path="url(#a)">
<use x="446.702789" y="711.813718" fill="#ffffff" stroke="#ffffff" xlink:href="#b"/>
</g>
<g clip-path="url(#a)">
<use x="494.453797" y="711.813718" fill="#ffffff" stroke="#ffffff" xlink:href="#b"/>
</g>
<g clip-path="url(#a)">
<use x="542.204805" y="711.813718" fill="#ffffff" stroke="#ffffff" xlink:href="#b"/>
</g>
<g clip-path="url(#a)">
<use x="589.955813" y="711.813718" fill="#ffffff" stroke="#ffffff" xlink:href="#b"/>
</g>
<g clip-path="url(#a)">
<use x="637.706821" y="711.813718" fill="#ffffff" stroke="#ffffff" xlink:href="#b"/>
</g>
<g clip-path="url(#a)">
<use x="685.457829" y="711.813718" fill="#ffffff" stroke="#ffffff" xlink:href="#b"/>
</g>
<g clip-path="url(#a)">
<use x="733.208837" y="711.813718" fill="#ffffff" stroke="#ffffff" xlink:href="#b"/>
</g>
<g clip-path="url(#a)">
<use x="780.959845" y="711.813718" fill="#ffffff" stroke="#ffffff" xlink:href="#b"/>
</g>
<g clip-path="url(#a)">
<use x="828.710853" y="711.813718" fill="#ffffff" stroke="#ffffff" xlink:href="#b"/>
</g>
<g clip-path="url(#a)">
<use x="876.461861" y="711.813718" fill="#ffffff" stroke="#ffffff" xlink:href="#b"/>
</g>
<g clip-path="url(#a)">
<use x="924.212869" y="711.813718" fill="#ffffff" stroke="#ffffff" xlink:href="#b"/>
</g>
<g clip-path="url(#a)">
<use x="971.963877" y="711.813718" fill="#ffffff" stroke="#ffffff" xlink:href="#b"/>
</g>
<g clip-path="url(#a)">
<use x="1019.714885" y="711.813718" fill="#ffffff" stroke="#ffffff" xlink:href="#b"/>
</g>
<g clip-path="url(#a)">
<use x="1067.465893" y="711.813718" fill="#ffffff" stroke="#ffffff" xlink:href="#b"/>
</g>
<g clip-path="url(#a)">
<use x="1115.216901" y="711.813718" fill="#ffffff" stroke="#ffffff" xlink:href="#b"/>
</g>
<g clip-path="url(#a)">
<use x="1162.967909" y="711.813718" fill="#ffffff" stroke="#ffffff" xlink:href="#b"/>
</g>
<g clip-path="url(#a)">
<use x="1210.718917" y="711.813718" fill="#ffffff" stroke="#ffffff" xlink:href="#b"/>
</g>
<g clip-path="url(#a)">
<use x="1258.469925" y="711.813718" fill="#ffffff" stroke="#ffffff" xlink:href="#b"/>
</g>
<g clip-path="url(#a)">
<use x="1306.220933" y="711.813718" fill="#ffffff" stroke="#ffffff" xlink:href="#b"/>
</g>
<g clip-path="url(#a)">
<use x="1353.971941" y="711.813718" fill="#ffffff" stroke="#ffffff" xlink:href="#b"/>
</g>
<g clip-path="url(#a)">
<use x="436.667156" y="34.852949" fill="#ffffff" stroke="#ffffff" xlink:href="#b"/>
</g>
<g clip-path="url(#a)">
<use x="137.813457" y="153.424941" fill="#ffffff" stroke="#ffffff" xlink:href="#b"/>
</g>
<g clip-path="url(#a)">
<use x="446.702789" y="602.41855" fill="#ffffff" stroke="#ffffff" xlink:href="#b"/>
</g>
<g clip-path="url(#a)">
<use x="763.200597" y="153.424941" fill="#ffffff" stroke="#ffffff" xlink:href="#b"/>
</g>
<g clip-path="url(#a)">
<use x="564.753893" y="269.05364" fill="#ffffff" stroke="#ffffff" xlink:href="#b"/>
</g>
<g clip-path="url(#a)">
<use x="780.959845" y="602.41855" fill="#ffffff" stroke="#ffffff" xlink:href="#b"/>
</g>
<g clip-path="url(#a)">
<use x="943.888053" y="269.05364" fill="#ffffff" stroke="#ffffff" xlink:href="#b"/>
</g>
<g clip-path="url(#a)">
<use x="852.586357" y="493.023381" fill="#ffffff" stroke="#ffffff" xlink:href="#b"/>
</g>
<g clip-path="url(#a)">
<use x="1035.189749" y="382.106406" fill="#ffffff" stroke="#ffffff" xlink:href="#b"/>
</g>
<g clip-path="url(#a)">
<use x="924.212869" y="602.41855" fill="#ffffff" stroke="#ffffff" xlink:href="#b"/>
</g>
<g clip-path="url(#a)">
<use x="840.648605" y="493.023381" fill="#ffffff" stroke="#ffffff" xlink:href="#b"/>
</g>
<g clip-path="url(#a)">
<use x="888.399613" y="493.023381" fill="#ffffff" stroke="#ffffff" xlink:href="#b"/>
</g>
<g clip-path="url(#a)">
<use x="936.150621" y="493.023381" fill="#ffffff" stroke="#ffffff" xlink:href="#b"/>
</g>
<g clip-path="url(#a)">
<use x="1258.469925" y="602.41855" fill="#ffffff" stroke="#ffffff" xlink:href="#b"/>
</g>
<g clip-path="url(#a)">
<use x="1123.175402" y="493.023381" fill="#ffffff" stroke="#ffffff" xlink:href="#b"/>
</g>
<g clip-path="url(#a)">
<use x="1306.220933" y="602.41855" fill="#ffffff" stroke="#ffffff" xlink:href="#b"/>
</g>
<g clip-path="url(#a)">
<use x="1162.967909" y="602.41855" fill="#ffffff" stroke="#ffffff" xlink:href="#b"/>
</g>
<g clip-path="url(#a)">
<use x="1067.465893" y="602.41855" fill="#ffffff" stroke="#ffffff" xlink:href="#b"/>
</g>
<g clip-path="url(#a)">
<use x="971.963877" y="602.41855" fill="#ffffff" stroke="#ffffff" xlink:href="#b"/>
</g>
<g clip-path="url(#a)">
<use x="828.710853" y="602.41855" fill="#ffffff" stroke="#ffffff" xlink:href="#b"/>
</g>
<g clip-path="url(#a)">
<use x="876.461861" y="602.41855" fill="#ffffff" stroke="#ffffff" xlink:href="#b"/>
</g>
<g clip-path="url(#a)">
<use x="494.453797" y="602.41855" fill="#ffffff" stroke="#ffffff" xlink:href="#b"/>
</g>
<g clip-path="url(#a)">
<use x="542.204805" y="602.41855" fill="#ffffff" stroke="#ffffff" xlink:href="#b"/>
</g>
<g clip-path="url(#a)">
<use x="657.603075" y="382.106406" fill="#ffffff" stroke="#ffffff" xlink:href="#b"/>
</g>
<g clip-path="url(#a)">
<use x="589.955813" y="602.41855" fill="#ffffff" stroke="#ffffff" xlink:href="#b"/>
</g>
<g clip-path="url(#a)">
<use x="673.520077" y="493.023381" fill="#ffffff" stroke="#ffffff" xlink:href="#b"/>
</g>
<g clip-path="url(#a)">
<use x="709.333333" y="602.41855" fill="#ffffff" stroke="#ffffff" xlink:href="#b"/>
</g>
<g clip-path="url(#a)">
<use x="637.706821" y="602.41855" fill="#ffffff" stroke="#ffffff" xlink:href="#b"/>
</g>
<g clip-path="url(#a)">
<use x="64.694726" y="602.41855" fill="#ffffff" stroke="#ffffff" xlink:href="#b"/>
</g>
<g clip-path="url(#a)">
<use x="112.445734" y="602.41855" fill="#ffffff" stroke="#ffffff" xlink:href="#b"/>
</g>
<g clip-path="url(#a)">
<use x="160.196742" y="602.41855" fill="#ffffff" stroke="#ffffff" xlink:href="#b"/>
</g>
<g clip-path="url(#a)">
<use x="213.916626" y="269.05364" fill="#ffffff" stroke="#ffffff" xlink:href="#b"/>
</g>
<g clip-path="url(#a)">
<use x="207.94775" y="602.41855" fill="#ffffff" stroke="#ffffff" xlink:href="#b"/>
</g>
<g clip-path="url(#a)">
<use x="255.698758" y="602.41855" fill="#ffffff" stroke="#ffffff" xlink:href="#b"/>
</g>
<g clip-path="url(#a)">
<use x="327.32527" y="382.106406" fill="#ffffff" stroke="#ffffff" xlink:href="#b"/>
</g>
<g clip-path="url(#a)">
<use x="327.32527" y="493.023381" fill="#ffffff" stroke="#ffffff" xlink:href="#b"/>
</g>
<g clip-path="url(#a)">
<use x="303.449766" y="602.41855" fill="#ffffff" stroke="#ffffff" xlink:href="#b"/>
</g>
<g clip-path="url(#a)">
<use x="351.200774" y="602.41855" fill="#ffffff" stroke="#ffffff" xlink:href="#b"/>
</g>
<g clip-path="url(#a)">
<use x="398.951782" y="602.41855" fill="#ffffff" stroke="#ffffff" xlink:href="#b"/>
</g>
<g clip-path="url(#a)">
<use x="1019.714885" y="602.41855" fill="#ffffff" stroke="#ffffff" xlink:href="#b"/>
</g>
<g clip-path="url(#a)">
<use x="1115.216901" y="602.41855" fill="#ffffff" stroke="#ffffff" xlink:href="#b"/>
</g>
<g clip-path="url(#a)">
<use x="1210.718917" y="602.41855" fill="#ffffff" stroke="#ffffff" xlink:href="#b"/>
</g>
<g clip-path="url(#a)">
<use x="1353.971941" y="602.41855" fill="#ffffff" stroke="#ffffff" xlink:href="#b"/>
</g>
<g clip-path="url(#a)">
<defs>
<path id="au" d="m9.8125 72.906h9.8594v-72.906h-9.8594z"/>
<path id="q" d="m18.312 70.219v-15.531h18.5v-6.9844h-18.5v-29.688q0-6.6875 1.8281-8.5938t7.4531-1.9062h9.2188v-7.5156h-9.2188q-10.406 0-14.359 3.875-3.9531 3.8906-3.9531 14.141v29.688h-6.5938v6.9844h6.5938v15.531z"/>
</defs>
<g transform="translate(61.26 714.57) scale(.1 -.1)">
<use xlink:href="#au"/>
<use x="29.492188" xlink:href="#q"/>
</g>
</g>
<g clip-path="url(#a)">
<defs>
<path id="ai" d="m4.2031 54.688h8.9844l11.234-42.672 11.172 42.672h10.594l11.234-42.672 11.188 42.672h8.9844l-14.312-54.688h-10.594l-11.766 44.828-11.812-44.828h-10.609z"/>
<path id="s" d="m44.281 53.078v-8.5q-3.7969 1.9531-7.9062 2.9219-4.0938 0.98438-8.5 0.98438-6.6875 0-10.031-2.0469t-3.3438-6.1562q0-3.125 2.3906-4.9062t9.625-3.3906l3.0781-0.6875q9.5625-2.0469 13.594-5.7812t4.0312-10.422q0-7.625-6.0312-12.078-6.0312-4.4375-16.578-4.4375-4.3906 0-9.1562 0.85938t-10.031 2.5625v9.2812q4.9844-2.5938 9.8125-3.8906 4.8281-1.2812 9.5781-1.2812 6.3438 0 9.75 2.1719 3.4219 2.1719 3.4219 6.125 0 3.6562-2.4688 5.6094-2.4531 1.9531-10.812 3.7656l-3.125 0.73438q-8.3438 1.75-12.062 5.3906-3.7031 3.6406-3.7031 9.9844 0 7.7188 5.4688 11.906 5.4688 4.2031 15.531 4.2031 4.9688 0 9.3594-0.73438 4.4062-0.71875 8.1094-2.1875z"/>
</defs>
<g transform="translate(102.69 714.57) scale(.1 -.1)">
<use xlink:href="#ai"/>
<use x="81.787109" xlink:href="#e"/>
<use x="143.066406" xlink:href="#s"/>
</g>
</g>
<g clip-path="url(#a)">
<defs>
<path id="r" d="m30.609 48.391q-7.2188 0-11.422-5.6406t-4.2031-15.453 4.1719-15.453q4.1875-5.6406 11.453-5.6406 7.1875 0 11.375 5.6562 4.2031 5.6719 4.2031 15.438 0 9.7188-4.2031 15.406-4.1875 5.6875-11.375 5.6875zm0 7.6094q11.719 0 18.406-7.625 6.7031-7.6094 6.7031-21.078 0-13.422-6.7031-21.078-6.6875-7.6406-18.406-7.6406-11.766 0-18.438 7.6406-6.6562 7.6562-6.6562 21.078 0 13.469 6.6562 21.078 6.6719 7.625 18.438 7.625z"/>
<path id="ak" d="m45.406 46.391v29.594h8.9844v-75.984h-8.9844v8.2031q-2.8281-4.875-7.1562-7.25-4.3125-2.375-10.375-2.375-9.9062 0-16.141 7.9062-6.2188 7.9219-6.2188 20.812t6.2188 20.797q6.2344 7.9062 16.141 7.9062 6.0625 0 10.375-2.375 4.3281-2.3594 7.1562-7.2344zm-30.609-19.094q0-9.9062 4.0781-15.547t11.203-5.6406 11.219 5.6406q4.1094 5.6406 4.1094 15.547t-4.1094 15.547q-4.0938 5.6406-11.219 5.6406t-11.203-5.6406-4.0781-15.547z"/>
</defs>
<g transform="translate(141.03 714.57) scale(.1 -.1)">
<use xlink:href="#q"/>
<use x="39.208984" xlink:href="#e"/>
<use x="100.488281" xlink:href="#h"/>
<use x="128.271484" xlink:href="#j"/>
<use x="156.054688" xlink:href="#r"/>
<use x="217.236328" xlink:href="#f"/>
<use x="258.318359" xlink:href="#g"/>
<use x="319.841797" xlink:href="#ak"/>
</g>
</g>
<g clip-path="url(#a)">
<g transform="translate(202.93 714.57) scale(.1 -.1)">
<use xlink:href="#q"/>
<use x="39.208984" xlink:href="#r"/>
</g>
</g>
<g clip-path="url(#a)">
<defs>
<path id="w" d="m54.891 33.016v-33.016h-8.9844v32.719q0 7.7656-3.0312 11.609-3.0312 3.8594-9.0781 3.8594-7.2812 0-11.484-4.6406-4.2031-4.625-4.2031-12.641v-30.906h-9.0312v75.984h9.0312v-29.797q3.2344 4.9375 7.5938 7.375 4.375 2.4375 10.094 2.4375 9.4219 0 14.25-5.8281 4.8438-5.8281 4.8438-17.156z"/>
<path id="u" d="m48.781 52.594v-8.4062q-3.8125 2.1094-7.6406 3.1562t-7.7344 1.0469q-8.75 0-13.594-5.5469-4.8281-5.5312-4.8281-15.547t4.8281-15.562q4.8438-5.5312 13.594-5.5312 3.9062 0 7.7344 1.0469t7.6406 3.1562v-8.3125q-3.7656-1.75-7.7969-2.625-4.0156-0.89062-8.5625-0.89062-12.359 0-19.641 7.7656-7.2656 7.7656-7.2656 20.953 0 13.375 7.3438 21.031 7.3594 7.6719 20.156 7.6719 4.1406 0 8.0938-0.85938 3.9531-0.84375 7.6719-2.5469z"/>
</defs>
<g transform="translate(231.28 714.57) scale(.1 -.1)">
<use xlink:href="#s"/>
<use x="52.099609" xlink:href="#w"/>
<use x="115.478516" xlink:href="#r"/>
<use x="176.660156" xlink:href="#ai"/>
<use x="258.447266" xlink:href="#u"/>
<use x="313.427734" xlink:href="#e"/>
<use x="374.707031" xlink:href="#s"/>
<use x="426.806641" xlink:href="#g"/>
</g>
</g>
<g clip-path="url(#a)">
<g transform="translate(295.24 714.57) scale(.1 -.1)">
<use xlink:href="#q"/>
<use x="39.208984" xlink:href="#w"/>
<use x="102.587891" xlink:href="#g"/>
</g>
</g>
<g clip-path="url(#a)">
<g transform="translate(333.09 714.57) scale(.1 -.1)">
<use xlink:href="#e"/>
<use x="61.279297" xlink:href="#u"/>
<use x="116.259766" xlink:href="#q"/>
<use x="155.46875" xlink:href="#f"/>
<use x="196.550781" xlink:href="#g"/>
<use x="258.074219" xlink:href="#s"/>
<use x="310.173828" xlink:href="#s"/>
</g>
</g>
<g clip-path="url(#a)">
<defs>
<path id="ae" d="m11.719 12.406h10.297v-8.4062l-8-15.625h-6.2969l4 15.625z"/>
</defs>
<g transform="translate(397.36 714.57) scale(.1 -.1)">
<use xlink:href="#ae"/>
</g>
</g>
<g clip-path="url(#a)">
<g transform="translate(436.1 714.57) scale(.1 -.1)">
<use xlink:href="#ai"/>
<use x="81.787109" xlink:href="#h"/>
<use x="109.570312" xlink:href="#q"/>
<use x="148.779297" xlink:href="#w"/>
</g>
</g>
<g clip-path="url(#a)">
<g transform="translate(486.25 714.57) scale(.1 -.1)">
<use xlink:href="#q"/>
<use x="39.208984" xlink:href="#w"/>
<use x="102.587891" xlink:href="#g"/>
</g>
</g>
<g clip-path="url(#a)">
<g transform="translate(518.26 714.57) scale(.1 -.1)">
<use xlink:href="#u"/>
<use x="54.980469" xlink:href="#w"/>
<use x="118.359375" xlink:href="#e"/>
<use x="179.638672" xlink:href="#f"/>
<use x="220.751953" xlink:href="#e"/>
<use x="282.03125" xlink:href="#u"/>
<use x="337.011719" xlink:href="#q"/>
<use x="376.220703" xlink:href="#g"/>
<use x="437.744141" xlink:href="#f"/>
</g>
</g>
<g clip-path="url(#a)">
<defs>
<path id="ar" d="m37.109 75.984v-7.4844h-8.5938q-4.8281 0-6.7188-1.9531-1.875-1.9531-1.875-7.0312v-4.8281h14.797v-6.9844h-14.797v-47.703h-9.0312v47.703h-8.5938v6.9844h8.5938v3.8125q0 9.125 4.25 13.297 4.25 4.1875 13.469 4.1875z"/>
</defs>
<g transform="translate(585.14 714.57) scale(.1 -.1)">
<use xlink:href="#r"/>
<use x="61.181641" xlink:href="#ar"/>
</g>
</g>
<g clip-path="url(#a)">
<g transform="translate(617.03 714.57) scale(.1 -.1)">
<use xlink:href="#s"/>
<use x="52.099609" xlink:href="#r"/>
<use x="113.28125" xlink:href="#u"/>
<use x="168.261719" xlink:href="#h"/>
<use x="196.044922" xlink:href="#e"/>
<use x="257.324219" xlink:href="#j"/>
<use x="285.107422" xlink:href="#h"/>
<use x="312.890625" xlink:href="#q"/>
<use x="352.099609" xlink:href="#g"/>
</g>
</g>
<g clip-path="url(#a)">
<defs>
<path id="ap" d="m32.172-5.0781q-3.7969-9.7656-7.4219-12.734-3.6094-2.9844-9.6562-2.9844h-7.1875v7.5156h5.2812q3.7031 0 5.75 1.7656 2.0625 1.75 4.5469 8.2969l1.6094 4.0938-22.109 53.812h9.5156l17.094-42.766 17.094 42.766h9.5156z"/>
</defs>
<g transform="translate(671.59 714.57) scale(.1 -.1)">
<use xlink:href="#l"/>
<use x="60.865234" xlink:href="#f"/>
<use x="101.978516" xlink:href="#e"/>
<use x="163.257812" xlink:href="#u"/>
<use x="218.238281" xlink:href="#ap"/>
</g>
</g>
<g clip-path="url(#a)">
<g transform="translate(722.14 714.57) scale(.1 -.1)">
<use xlink:href="#am"/>
<use x="55.697266" xlink:href="#r"/>
<use x="116.878906" xlink:href="#f"/>
<use x="157.976562" xlink:href="#ak"/>
</g>
</g>
<g clip-path="url(#a)">
<defs>
<path id="ax" d="m18.109 8.2031v-29h-9.0312v75.484h9.0312v-8.2969q2.8438 4.875 7.1562 7.2344 4.3281 2.375 10.328 2.375 9.9688 0 16.188-7.9062 6.2344-7.9062 6.2344-20.797t-6.2344-20.812q-6.2188-7.9062-16.188-7.9062-6 0-10.328 2.375-4.3125 2.375-7.1562 7.25zm30.578 19.094q0 9.9062-4.0781 15.547t-11.203 5.6406q-7.1406 0-11.219-5.6406t-4.0781-15.547 4.0781-15.547 11.219-5.6406q7.125 0 11.203 5.6406t4.0781 15.547z"/>
<path id="aj" d="m45.406 27.984q0 9.7656-4.0312 15.125-4.0156 5.375-11.297 5.375-7.2188 0-11.25-5.375-4.0312-5.3594-4.0312-15.125 0-9.7188 4.0312-15.094t11.25-5.375q7.2812 0 11.297 5.375 4.0312 5.375 4.0312 15.094zm8.9844-21.203q0-13.953-6.2031-20.766-6.1875-6.8125-18.984-6.8125-4.7344 0-8.9375 0.70312t-8.1562 2.1719v8.7344q3.9531-2.1406 7.8125-3.1562 3.8594-1.0312 7.8594-1.0312 8.8438 0 13.234 4.6094t4.3906 13.938v4.4531q-2.7812-4.8438-7.125-7.2344t-10.406-2.3906q-10.047 0-16.203 7.6562-6.1562 7.6719-6.1562 20.328 0 12.688 6.1562 20.344 6.1562 7.6719 16.203 7.6719 6.0625 0 10.406-2.3906t7.125-7.2188v8.2969h8.9844z"/>
</defs>
<g transform="translate(747.49 714.57) scale(.1 -.1)">
<use xlink:href="#h"/>
<use x="27.783203" xlink:href="#i"/>
<use x="91.162109" xlink:href="#u"/>
<use x="146.142578" xlink:href="#r"/>
<use x="207.324219" xlink:href="#f"/>
<use x="248.4375" xlink:href="#ax"/>
<use x="311.914062" xlink:href="#r"/>
<use x="373.095703" xlink:href="#f"/>
<use x="414.208984" xlink:href="#e"/>
<use x="475.488281" xlink:href="#q"/>
<use x="514.697266" xlink:href="#h"/>
<use x="542.480469" xlink:href="#i"/>
<use x="605.859375" xlink:href="#aj"/>
</g>
</g>
<g clip-path="url(#a)">
<g transform="translate(825.65 714.57) scale(.1 -.1)">
<use xlink:href="#e"/>
</g>
</g>
<g clip-path="url(#a)">
<defs>
<path id="aw" d="m54.891 54.688-19.781-26.609 20.797-28.078h-10.594l-15.922 21.484-15.906-21.484h-10.609l21.25 28.609-19.438 26.078h10.594l14.5-19.484 14.5 19.484z"/>
<path id="af" d="m8.5 21.578v33.109h8.9844v-32.766q0-7.7656 3.0156-11.656 3.0312-3.875 9.0938-3.875 7.2656 0 11.484 4.6406 4.2344 4.6406 4.2344 12.656v31h8.9844v-54.688h-8.9844v8.4062q-3.2656-4.9844-7.5938-7.4062-4.3125-2.4219-10.031-2.4219-9.4219 0-14.312 5.8594-4.875 5.8594-4.875 17.141z"/>
</defs>
<g transform="translate(856.98 714.57) scale(.1 -.1)">
<use xlink:href="#k"/>
<use x="97.412109" xlink:href="#h"/>
<use x="125.195312" xlink:href="#aw"/>
<use x="184.375" xlink:href="#q"/>
<use x="223.583984" xlink:href="#af"/>
<use x="286.962891" xlink:href="#f"/>
<use x="328.044922" xlink:href="#g"/>
</g>
</g>
<g clip-path="url(#a)">
<g transform="translate(919.39 714.57) scale(.1 -.1)">
<use xlink:href="#r"/>
<use x="61.181641" xlink:href="#ar"/>
</g>
</g>
<g clip-path="url(#a)">
<g transform="translate(955.64 714.57) scale(.1 -.1)">
<use xlink:href="#w"/>
<use x="63.378906" xlink:href="#af"/>
<use x="126.757812" xlink:href="#k"/>
<use x="224.169922" xlink:href="#r"/>
<use x="285.351562" xlink:href="#f"/>
</g>
</g>
<g clip-path="url(#a)">
<g transform="translate(1018.1 714.57) scale(.1 -.1)">
<use xlink:href="#ae"/>
</g>
</g>
<g clip-path="url(#a)">
<g transform="translate(1040.1 714.57) scale(.1 -.1)">
<use xlink:href="#e"/>
<use x="61.279297" xlink:href="#aj"/>
<use x="124.755859" xlink:href="#aj"/>
<use x="188.232422" xlink:href="#f"/>
<use x="229.314453" xlink:href="#g"/>
<use x="290.837891" xlink:href="#s"/>
<use x="342.9375" xlink:href="#s"/>
<use x="395.037109" xlink:href="#h"/>
<use x="422.820312" xlink:href="#r"/>
<use x="484.001953" xlink:href="#i"/>
</g>
</g>
<g clip-path="url(#a)">
<g transform="translate(1113.6 714.57) scale(.1 -.1)">
<use xlink:href="#ae"/>
</g>
</g>
<g clip-path="url(#a)">
<defs>
<path id="aq" d="m2.9844 54.688h9.5156l17.094-45.891 17.094 45.891h9.5156l-20.516-54.688h-12.203z"/>
</defs>
<g transform="translate(1131.4 714.57) scale(.1 -.1)">
<use xlink:href="#i"/>
<use x="63.378906" xlink:href="#g"/>
<use x="124.902344" xlink:href="#f"/>
<use x="166.015625" xlink:href="#aq"/>
<use x="225.195312" xlink:href="#r"/>
<use x="286.376953" xlink:href="#af"/>
<use x="349.755859" xlink:href="#s"/>
<use x="401.855469" xlink:href="#i"/>
<use x="465.234375" xlink:href="#g"/>
<use x="526.757812" xlink:href="#s"/>
<use x="578.857422" xlink:href="#s"/>
</g>
</g>
<g clip-path="url(#a)">
<g transform="translate(1209.1 714.57) scale(.1 -.1)">
<use xlink:href="#ae"/>
</g>
</g>
<g clip-path="url(#a)">
<g transform="translate(1249.1 714.57) scale(.1 -.1)">
<use xlink:href="#e"/>
<use x="61.279297" xlink:href="#i"/>
<use x="124.658203" xlink:href="#ak"/>
</g>
</g>
<g clip-path="url(#a)">
<defs>
<path id="as" d="m48.688 27.297q0 9.9062-4.0781 15.547t-11.203 5.6406q-7.1406 0-11.219-5.6406t-4.0781-15.547 4.0781-15.547 11.219-5.6406q7.125 0 11.203 5.6406t4.0781 15.547zm-30.578 19.094q2.8438 4.875 7.1562 7.2344 4.3281 2.375 10.328 2.375 9.9688 0 16.188-7.9062 6.2344-7.9062 6.2344-20.797t-6.2344-20.812q-6.2188-7.9062-16.188-7.9062-6 0-10.328 2.375-4.3125 2.375-7.1562 7.25v-8.2031h-9.0312v75.984h9.0312z"/>
</defs>
<g transform="translate(1275.1 714.57) scale(.1 -.1)">
<use xlink:href="#aq"/>
<use x="59.179688" xlink:href="#af"/>
<use x="122.558594" xlink:href="#j"/>
<use x="150.341797" xlink:href="#i"/>
<use x="213.720703" xlink:href="#g"/>
<use x="275.244141" xlink:href="#f"/>
<use x="316.357422" xlink:href="#e"/>
<use x="377.636719" xlink:href="#as"/>
<use x="441.113281" xlink:href="#h"/>
<use x="468.896484" xlink:href="#j"/>
<use x="496.679688" xlink:href="#h"/>
<use x="524.462891" xlink:href="#q"/>
<use x="563.671875" xlink:href="#ap"/>
</g>
</g>
<g clip-path="url(#a)">
<defs>
<path id="d" d="m10.688 12.406h10.312v-12.406h-10.312z"/>
</defs>
<g transform="translate(1352.4 714.57) scale(.1 -.1)">
<use xlink:href="#d"/>
</g>
</g>
<g clip-path="url(#a)">
<defs>
<path id="c" d="m12.406 8.2969h16.109v55.625l-17.531-3.5156v8.9844l17.438 3.5156h9.8594v-64.609h16.109v-8.2969h-41.984z"/>
</defs>
<g transform="translate(428.72 37.612) scale(.1 -.1)">
<use xlink:href="#c"/>
<use x="63.623047" xlink:href="#d"/>
<use x="95.410156" xlink:href="#c"/>
</g>
</g>
<g clip-path="url(#a)">
<defs>
<path id="o" d="m19.188 8.2969h34.422v-8.2969h-46.281v8.2969q5.6094 5.8125 15.297 15.594 9.7031 9.7969 12.188 12.641 4.7344 5.3125 6.6094 9 1.8906 3.6875 1.8906 7.25 0 5.8125-4.0781 9.4688-4.0781 3.6719-10.625 3.6719-4.6406 0-9.7969-1.6094-5.1406-1.6094-11-4.8906v9.9688q5.9531 2.3906 11.125 3.6094 5.1875 1.2188 9.4844 1.2188 11.328 0 18.062-5.6719 6.7344-5.6562 6.7344-15.125 0-4.5-1.6875-8.5312-1.6719-4.0156-6.125-9.4844-1.2188-1.4219-7.7656-8.1875-6.5312-6.7656-18.453-18.922z"/>
</defs>
<g transform="translate(129.86 156.18) scale(.1 -.1)">
<use xlink:href="#c"/>
<use x="63.623047" xlink:href="#d"/>
<use x="95.410156" xlink:href="#o"/>
</g>
</g>
<g clip-path="url(#a)">
<defs>
<path id="m" d="m40.578 39.312q7.0781-1.5156 11.047-6.3125 3.9844-4.7812 3.9844-11.812 0-10.781-7.4219-16.703-7.4219-5.9062-21.094-5.9062-4.5781 0-9.4375 0.90625t-10.031 2.7188v9.5156q4.0938-2.3906 8.9688-3.6094 4.8906-1.2188 10.219-1.2188 9.2656 0 14.125 3.6562t4.8594 10.641q0 6.4531-4.5156 10.078-4.5156 3.6406-12.562 3.6406h-8.5v8.1094h8.8906q7.2656 0 11.125 2.9062t3.8594 8.375q0 5.6094-3.9844 8.6094-3.9688 3.0156-11.391 3.0156-4.0625 0-8.7031-0.89062-4.6406-0.875-10.203-2.7188v8.7812q5.625 1.5625 10.531 2.3438t9.25 0.78125q11.234 0 17.766-5.1094 6.5469-5.0938 6.5469-13.781 0-6.0625-3.4688-10.234t-9.8594-5.7812z"/>
</defs>
<g transform="translate(438.75 605.18) scale(.1 -.1)">
<use xlink:href="#c"/>
<use x="63.623047" xlink:href="#d"/>
<use x="95.410156" xlink:href="#m"/>
</g>
</g>
<g clip-path="url(#a)">
<defs>
<path id="n" d="m37.797 64.312-24.906-38.922h24.906zm-2.5938 8.5938h12.406v-47.516h10.406v-8.2031h-10.406v-17.188h-9.8125v17.188h-32.906v9.5156z"/>
</defs>
<g transform="translate(755.25 156.18) scale(.1 -.1)">
<use xlink:href="#c"/>
<use x="63.623047" xlink:href="#d"/>
<use x="95.410156" xlink:href="#n"/>
</g>
</g>
<g clip-path="url(#a)">
<defs>
<path id="z" d="m8.2031 72.906h46.875v-4.2031l-26.469-68.703h-10.297l24.906 64.594h-35.016z"/>
</defs>
<g transform="translate(556.8 271.81) scale(.1 -.1)">
<use xlink:href="#c"/>
<use x="63.623047" xlink:href="#d"/>
<use x="95.410156" xlink:href="#z"/>
</g>
</g>
<g clip-path="url(#a)">
<defs>
<path id="ab" d="m31.781 34.625q-7.0312 0-11.062-3.7656-4.0156-3.7656-4.0156-10.344 0-6.5938 4.0156-10.359 4.0312-3.7656 11.062-3.7656t11.078 3.7812q4.0625 3.7969 4.0625 10.344 0 6.5781-4.0312 10.344-4.0156 3.7656-11.109 3.7656zm-9.8594 4.1875q-6.3438 1.5625-9.8906 5.9062-3.5312 4.3594-3.5312 10.609 0 8.7344 6.2188 13.812 6.2344 5.0781 17.062 5.0781 10.891 0 17.094-5.0781t6.2031-13.812q0-6.25-3.5469-10.609-3.5312-4.3438-9.8281-5.9062 7.125-1.6562 11.094-6.5 3.9844-4.8281 3.9844-11.797 0-10.609-6.4688-16.281-6.4688-5.6562-18.531-5.6562-12.047 0-18.531 5.6562-6.4688 5.6719-6.4688 16.281 0 6.9688 4 11.797 4.0156 4.8438 11.141 6.5zm-3.6094 15.578q0-5.6562 3.5312-8.8281 3.5469-3.1719 9.9375-3.1719 6.3594 0 9.9375 3.1719 3.5938 3.1719 3.5938 8.8281 0 5.6719-3.5938 8.8438-3.5781 3.1719-9.9375 3.1719-6.3906 0-9.9375-3.1719-3.5312-3.1719-3.5312-8.8438z"/>
</defs>
<g transform="translate(773.01 605.18) scale(.1 -.1)">
<use xlink:href="#c"/>
<use x="63.623047" xlink:href="#d"/>
<use x="95.410156" xlink:href="#ab"/>
</g>
</g>
<g clip-path="url(#a)">
<defs>
<path id="ag" d="m10.984 1.5156v8.9844q3.7188-1.7656 7.5156-2.6875 3.8125-0.92188 7.4844-0.92188 9.7656 0 14.906 6.5625 5.1562 6.5625 5.8906 19.953-2.8281-4.2031-7.1875-6.4531-4.3438-2.25-9.6094-2.25-10.938 0-17.312 6.6094-6.375 6.625-6.375 18.109 0 11.219 6.6406 18 6.6406 6.7969 17.672 6.7969 12.656 0 19.312-9.7031 6.6719-9.6875 6.6719-28.141 0-17.234-8.1875-27.516-8.1719-10.281-21.984-10.281-3.7188 0-7.5312 0.73438-3.7969 0.73438-7.9062 2.2031zm19.625 30.906q6.6406 0 10.516 4.5312 3.8906 4.5469 3.8906 12.469 0 7.8594-3.8906 12.422-3.875 4.5625-10.516 4.5625t-10.516-4.5625-3.875-12.422q0-7.9219 3.875-12.469 3.875-4.5312 10.516-4.5312z"/>
</defs>
<g transform="translate(935.94 271.81) scale(.1 -.1)">
<use xlink:href="#c"/>
<use x="63.623047" xlink:href="#d"/>
<use x="95.410156" xlink:href="#ag"/>
</g>
</g>
<g clip-path="url(#a)">
<defs>
<path id="ah" d="m31.781 66.406q-7.6094 0-11.453-7.5-3.8281-7.4844-3.8281-22.531 0-14.984 3.8281-22.484 3.8438-7.5 11.453-7.5 7.6719 0 11.5 7.5 3.8438 7.5 3.8438 22.484 0 15.047-3.8438 22.531-3.8281 7.5-11.5 7.5zm0 7.8125q12.266 0 18.734-9.7031 6.4688-9.6875 6.4688-28.141 0-18.406-6.4688-28.109-6.4688-9.6875-18.734-9.6875-12.25 0-18.719 9.6875-6.4688 9.7031-6.4688 28.109 0 18.453 6.4688 28.141 6.4688 9.7031 18.719 9.7031z"/>
</defs>
<g transform="translate(841.45 495.78) scale(.1 -.1)">
<use xlink:href="#c"/>
<use x="63.623047" xlink:href="#d"/>
<use x="95.410156" xlink:href="#c"/>
<use x="159.033203" xlink:href="#ah"/>
</g>
</g>
<g clip-path="url(#a)">
<g transform="translate(1024.1 384.87) scale(.1 -.1)">
<use xlink:href="#c"/>
<use x="63.623047" xlink:href="#d"/>
<use x="95.410156" xlink:href="#c"/>
<use x="159.033203" xlink:href="#c"/>
</g>
</g>
<g clip-path="url(#a)">
<g transform="translate(913.08 605.18) scale(.1 -.1)">
<use xlink:href="#c"/>
<use x="63.623047" xlink:href="#d"/>
<use x="95.410156" xlink:href="#c"/>
<use x="159.033203" xlink:href="#o"/>
</g>
</g>
<g clip-path="url(#a)">
<g transform="translate(829.52 495.78) scale(.1 -.1)">
<use xlink:href="#c"/>
<use x="63.623047" xlink:href="#d"/>
<use x="95.410156" xlink:href="#c"/>
<use x="159.033203" xlink:href="#m"/>
</g>
</g>
<g clip-path="url(#a)">
<g transform="translate(877.27 495.78) scale(.1 -.1)">
<use xlink:href="#c"/>
<use x="63.623047" xlink:href="#d"/>
<use x="95.410156" xlink:href="#c"/>
<use x="159.033203" xlink:href="#n"/>
</g>
</g>
<g clip-path="url(#a)">
<defs>
<path id="ad" d="m10.797 72.906h38.719v-8.3125h-29.688v-17.859q2.1406 0.73438 4.2812 1.0938 2.1562 0.35938 4.3125 0.35938 12.203 0 19.328-6.6875 7.1406-6.6875 7.1406-18.109 0-11.766-7.3281-18.297-7.3281-6.5156-20.656-6.5156-4.5938 0-9.3594 0.78125-4.75 0.78125-9.8281 2.3438v9.9219q4.3906-2.3906 9.0781-3.5625t9.9062-1.1719q8.4531 0 13.375 4.4375 4.9375 4.4375 4.9375 12.062 0 7.6094-4.9375 12.047-4.9219 4.4531-13.375 4.4531-3.9531 0-7.8906-0.875-3.9219-0.875-8.0156-2.7344z"/>
</defs>
<g transform="translate(925.02 495.78) scale(.1 -.1)">
<use xlink:href="#c"/>
<use x="63.623047" xlink:href="#d"/>
<use x="95.410156" xlink:href="#c"/>
<use x="159.033203" xlink:href="#ad"/>
</g>
</g>
<g clip-path="url(#a)">
<defs>
<path id="ac" d="m33.016 40.375q-6.6406 0-10.531-4.5469-3.875-4.5312-3.875-12.438 0-7.8594 3.875-12.438 3.8906-4.5625 10.531-4.5625t10.516 4.5625q3.875 4.5781 3.875 12.438 0 7.9062-3.875 12.438-3.875 4.5469-10.516 4.5469zm19.578 30.922v-8.9844q-3.7188 1.75-7.5 2.6719-3.7812 0.9375-7.5 0.9375-9.7656 0-14.922-6.5938-5.1406-6.5938-5.875-19.922 2.875 4.25 7.2188 6.5156 4.3594 2.2656 9.5781 2.2656 10.984 0 17.359-6.6719 6.375-6.6562 6.375-18.125 0-11.234-6.6406-18.031-6.6406-6.7812-17.672-6.7812-12.656 0-19.344 9.6875-6.6875 9.7031-6.6875 28.109 0 17.281 8.2031 27.562t22.016 10.281q3.7188 0 7.5-0.73438t7.8906-2.1875z"/>
</defs>
<g transform="translate(1247.3 605.18) scale(.1 -.1)">
<use xlink:href="#c"/>
<use x="63.623047" xlink:href="#d"/>
<use x="95.410156" xlink:href="#c"/>
<use x="159.033203" xlink:href="#ac"/>
</g>
</g>
<g clip-path="url(#a)">
<g transform="translate(1112 495.78) scale(.1 -.1)">
<use xlink:href="#c"/>
<use x="63.623047" xlink:href="#d"/>
<use x="95.410156" xlink:href="#c"/>
<use x="159.033203" xlink:href="#z"/>
</g>
</g>
<g clip-path="url(#a)">
<g transform="translate(1295.1 605.18) scale(.1 -.1)">
<use xlink:href="#c"/>
<use x="63.623047" xlink:href="#d"/>
<use x="95.410156" xlink:href="#o"/>
<use x="159.033203" xlink:href="#c"/>
</g>
</g>
<g clip-path="url(#a)">
<g transform="translate(1151.8 605.18) scale(.1 -.1)">
<use xlink:href="#c"/>
<use x="63.623047" xlink:href="#d"/>
<use x="95.410156" xlink:href="#o"/>
<use x="159.033203" xlink:href="#o"/>
</g>
</g>
<g clip-path="url(#a)">
<g transform="translate(1056.3 605.18) scale(.1 -.1)">
<use xlink:href="#c"/>
<use x="63.623047" xlink:href="#d"/>
<use x="95.410156" xlink:href="#o"/>
<use x="159.033203" xlink:href="#m"/>
</g>
</g>
<g clip-path="url(#a)">
<g transform="translate(960.83 605.18) scale(.1 -.1)">
<use xlink:href="#c"/>
<use x="63.623047" xlink:href="#d"/>
<use x="95.410156" xlink:href="#o"/>
<use x="159.033203" xlink:href="#n"/>
</g>
</g>
<g clip-path="url(#a)">
<g transform="translate(817.58 605.18) scale(.1 -.1)">
<use xlink:href="#c"/>
<use x="63.623047" xlink:href="#d"/>
<use x="95.410156" xlink:href="#o"/>
<use x="159.033203" xlink:href="#ad"/>
</g>
</g>
<g clip-path="url(#a)">
<g transform="translate(865.33 605.18) scale(.1 -.1)">
<use xlink:href="#c"/>
<use x="63.623047" xlink:href="#d"/>
<use x="95.410156" xlink:href="#o"/>
<use x="159.033203" xlink:href="#ac"/>
</g>
</g>
<g clip-path="url(#a)">
<g transform="translate(483.32 605.18) scale(.1 -.1)">
<use xlink:href="#c"/>
<use x="63.623047" xlink:href="#d"/>
<use x="95.410156" xlink:href="#o"/>
<use x="159.033203" xlink:href="#z"/>
</g>
</g>
<g clip-path="url(#a)">
<g transform="translate(531.07 605.18) scale(.1 -.1)">
<use xlink:href="#c"/>
<use x="63.623047" xlink:href="#d"/>
<use x="95.410156" xlink:href="#o"/>
<use x="159.033203" xlink:href="#ab"/>
</g>
</g>
<g clip-path="url(#a)">
<g transform="translate(646.47 384.87) scale(.1 -.1)">
<use xlink:href="#c"/>
<use x="63.623047" xlink:href="#d"/>
<use x="95.410156" xlink:href="#o"/>
<use x="159.033203" xlink:href="#ag"/>
</g>
</g>
<g clip-path="url(#a)">
<g transform="translate(578.82 605.18) scale(.1 -.1)">
<use xlink:href="#c"/>
<use x="63.623047" xlink:href="#d"/>
<use x="95.410156" xlink:href="#m"/>
<use x="159.033203" xlink:href="#ah"/>
</g>
</g>
<g clip-path="url(#a)">
<g transform="translate(662.39 495.78) scale(.1 -.1)">
<use xlink:href="#c"/>
<use x="63.623047" xlink:href="#d"/>
<use x="95.410156" xlink:href="#m"/>
<use x="159.033203" xlink:href="#c"/>
</g>
</g>
<g clip-path="url(#a)">
<g transform="translate(698.2 605.18) scale(.1 -.1)">
<use xlink:href="#c"/>
<use x="63.623047" xlink:href="#d"/>
<use x="95.410156" xlink:href="#m"/>
<use x="159.033203" xlink:href="#o"/>
</g>
</g>
<g clip-path="url(#a)">
<g transform="translate(626.57 605.18) scale(.1 -.1)">
<use xlink:href="#c"/>
<use x="63.623047" xlink:href="#d"/>
<use x="95.410156" xlink:href="#m"/>
<use x="159.033203" xlink:href="#m"/>
</g>
</g>
<g clip-path="url(#a)">
<g transform="translate(53.562 605.18) scale(.1 -.1)">
<use xlink:href="#c"/>
<use x="63.623047" xlink:href="#d"/>
<use x="95.410156" xlink:href="#m"/>
<use x="159.033203" xlink:href="#n"/>
</g>
</g>
<g clip-path="url(#a)">
<g transform="translate(101.31 605.18) scale(.1 -.1)">
<use xlink:href="#c"/>
<use x="63.623047" xlink:href="#d"/>
<use x="95.410156" xlink:href="#m"/>
<use x="159.033203" xlink:href="#ad"/>
</g>
</g>
<g clip-path="url(#a)">
<g transform="translate(149.06 605.18) scale(.1 -.1)">
<use xlink:href="#c"/>
<use x="63.623047" xlink:href="#d"/>
<use x="95.410156" xlink:href="#m"/>
<use x="159.033203" xlink:href="#ac"/>
</g>
</g>
<g clip-path="url(#a)">
<g transform="translate(202.78 271.81) scale(.1 -.1)">
<use xlink:href="#c"/>
<use x="63.623047" xlink:href="#d"/>
<use x="95.410156" xlink:href="#m"/>
<use x="159.033203" xlink:href="#z"/>
</g>
</g>
<g clip-path="url(#a)">
<g transform="translate(196.81 605.18) scale(.1 -.1)">
<use xlink:href="#c"/>
<use x="63.623047" xlink:href="#d"/>
<use x="95.410156" xlink:href="#m"/>
<use x="159.033203" xlink:href="#ab"/>
</g>
</g>
<g clip-path="url(#a)">
<g transform="translate(244.57 605.18) scale(.1 -.1)">
<use xlink:href="#c"/>
<use x="63.623047" xlink:href="#d"/>
<use x="95.410156" xlink:href="#m"/>
<use x="159.033203" xlink:href="#ag"/>
</g>
</g>
<g clip-path="url(#a)">
<g transform="translate(316.19 384.87) scale(.1 -.1)">
<use xlink:href="#c"/>
<use x="63.623047" xlink:href="#d"/>
<use x="95.410156" xlink:href="#n"/>
<use x="159.033203" xlink:href="#ah"/>
</g>
</g>
<g clip-path="url(#a)">
<g transform="translate(316.19 495.78) scale(.1 -.1)">
<use xlink:href="#c"/>
<use x="63.623047" xlink:href="#d"/>
<use x="95.410156" xlink:href="#n"/>
<use x="159.033203" xlink:href="#c"/>
</g>
</g>
<g clip-path="url(#a)">
<g transform="translate(292.32 605.18) scale(.1 -.1)">
<use xlink:href="#c"/>
<use x="63.623047" xlink:href="#d"/>
<use x="95.410156" xlink:href="#n"/>
<use x="159.033203" xlink:href="#o"/>
</g>
</g>
<g clip-path="url(#a)">
<g transform="translate(340.07 605.18) scale(.1 -.1)">
<use xlink:href="#c"/>
<use x="63.623047" xlink:href="#d"/>
<use x="95.410156" xlink:href="#n"/>
<use x="159.033203" xlink:href="#m"/>
</g>
</g>
<g clip-path="url(#a)">
<g transform="translate(387.82 605.18) scale(.1 -.1)">
<use xlink:href="#c"/>
<use x="63.623047" xlink:href="#d"/>
<use x="95.410156" xlink:href="#n"/>
<use x="159.033203" xlink:href="#n"/>
</g>
</g>
<g clip-path="url(#a)">
<g transform="translate(1008.6 605.18) scale(.1 -.1)">
<use xlink:href="#c"/>
<use x="63.623047" xlink:href="#d"/>
<use x="95.410156" xlink:href="#n"/>
<use x="159.033203" xlink:href="#ad"/>
</g>
</g>
<g clip-path="url(#a)">
<g transform="translate(1104.1 605.18) scale(.1 -.1)">
<use xlink:href="#c"/>
<use x="63.623047" xlink:href="#d"/>
<use x="95.410156" xlink:href="#n"/>
<use x="159.033203" xlink:href="#ac"/>
</g>
</g>
<g clip-path="url(#a)">
<g transform="translate(1199.6 605.18) scale(.1 -.1)">
<use xlink:href="#c"/>
<use x="63.623047" xlink:href="#d"/>
<use x="95.410156" xlink:href="#n"/>
<use x="159.033203" xlink:href="#z"/>
</g>
</g>
<g clip-path="url(#a)">
<g transform="translate(1342.8 605.18) scale(.1 -.1)">
<use xlink:href="#c"/>
<use x="63.623047" xlink:href="#d"/>
<use x="95.410156" xlink:href="#n"/>
<use x="159.033203" xlink:href="#ab"/>
</g>
</g>
<defs>
<clipPath id="a">
<rect width="1418.7" height="746.67"/>
</clipPath>
</defs>
</svg>
