<?xml version="1.0" encoding="UTF-8"?>
<!DOCTYPE svg  PUBLIC '-//W3C//DTD SVG 1.1//EN'  'http://www.w3.org/Graphics/SVG/1.1/DTD/svg11.dtd'>
<svg width="1317.3pt" height="693.33pt" version="1.1" viewBox="0 0 1317.3 693.33" xmlns="http://www.w3.org/2000/svg" xmlns:xlink="http://www.w3.org/1999/xlink">
<defs>
<style type="text/css">*{stroke-linecap:butt;stroke-linejoin:round;}</style>
</defs>
<path d="m0 693.33h1317.3v-693.33h-1317.3z" fill="#fff"/>
<g fill="none" stroke="#000">
<path d="m333.47 32.429-225.48 425.36" clip-path="url(#a)"/>
<path d="m333.47 32.429-129.71 526.92" clip-path="url(#a)"/>
<path d="m333.47 32.429-105.77 322.38" clip-path="url(#a)"/>
<path d="m333.47 32.429 205.48 526.92" clip-path="url(#a)"/>
<path d="m333.47 32.429 97.884 110.08" clip-path="url(#a)"/>
<path d="m333.47 32.429 157.6 526.92" clip-path="url(#a)"/>
<path d="m107.99 457.78-47.885 101.56" clip-path="url(#a)"/>
<path d="m107.99 457.78v101.56" clip-path="url(#a)"/>
<path d="m107.99 457.78 47.885 101.56" clip-path="url(#a)"/>
<path d="m203.76 559.34v101.56" clip-path="url(#a)"/>
<path d="m227.7 354.81 23.942 204.53" clip-path="url(#a)"/>
<path d="m227.7 354.81 143.65 102.97" clip-path="url(#a)"/>
<path d="m227.7 354.81-167.6 204.53" clip-path="url(#a)" stroke-dasharray="3.7,1.6"/>
<path d="m538.95 559.34v101.56" clip-path="url(#a)"/>
<path d="m431.36 142.51 179.43 315.28" clip-path="url(#a)"/>
<path d="m431.36 142.51 191.82 107.35" clip-path="url(#a)"/>
<path d="m431.36 142.51-371.25 416.84" clip-path="url(#a)" stroke-dasharray="3.7,1.6"/>
<path d="m610.78 457.78-23.942 101.56" clip-path="url(#a)"/>
<path d="m610.78 457.78 23.942 101.56" clip-path="url(#a)"/>
<path d="m623.18 249.86 59.429 309.49" clip-path="url(#a)"/>
<path d="m623.18 249.86 107.31 309.49" clip-path="url(#a)"/>
<path d="m623.18 249.86 396.33 104.96" clip-path="url(#a)"/>
<path d="m623.18 249.86-563.08 309.49" clip-path="url(#a)" stroke-dasharray="3.7,1.6"/>
<path d="m682.61 559.34v101.56" clip-path="url(#a)"/>
<path d="m730.49 559.34v101.56" clip-path="url(#a)"/>
<path d="m1019.5 354.81-241.13 204.53" clip-path="url(#a)"/>
<path d="m1019.5 354.81-133.39 102.97" clip-path="url(#a)"/>
<path d="m1019.5 354.81-49.595 204.53" clip-path="url(#a)"/>
<path d="m1019.5 354.81-1.7102 204.53" clip-path="url(#a)"/>
<path d="m1019.5 354.81 141.94 204.53" clip-path="url(#a)"/>
<path d="m1019.5 354.81 46.175 204.53" clip-path="url(#a)"/>
<path d="m1019.5 354.81 237.71 204.53" clip-path="url(#a)"/>
<path d="m778.38 559.34v101.56" clip-path="url(#a)"/>
<path d="m886.12 457.78-35.914 101.56" clip-path="url(#a)"/>
<path d="m886.12 457.78 35.914 101.56" clip-path="url(#a)"/>
<path d="m969.92 559.34v101.56" clip-path="url(#a)"/>
<path d="m1017.8 559.34v101.56" clip-path="url(#a)"/>
<path d="m1161.5 559.34-47.885 101.56" clip-path="url(#a)"/>
<path d="m1161.5 559.34v101.56" clip-path="url(#a)"/>
<path d="m1161.5 559.34 47.885 101.56" clip-path="url(#a)"/>
<path d="m850.21 559.34-23.942 101.56" clip-path="url(#a)"/>
<path d="m850.21 559.34 23.942 101.56" clip-path="url(#a)"/>
<path d="m922.03 559.34v101.56" clip-path="url(#a)"/>
<path d="m586.84 559.34v101.56" clip-path="url(#a)"/>
<path d="m634.72 559.34v101.56" clip-path="url(#a)"/>
<path d="m251.65 559.34v101.56" clip-path="url(#a)"/>
<path d="m371.36 457.78-71.827 101.56" clip-path="url(#a)"/>
<path d="m371.36 457.78-23.942 101.56" clip-path="url(#a)"/>
<path d="m371.36 457.78 23.942 101.56" clip-path="url(#a)"/>
<path d="m371.36 457.78 71.827 101.56" clip-path="url(#a)"/>
<path d="m299.53 559.34v101.56" clip-path="url(#a)"/>
<path d="m347.41 559.34v101.56" clip-path="url(#a)"/>
<path d="m395.3 559.34v101.56" clip-path="url(#a)"/>
<path d="m443.18 559.34v101.56" clip-path="url(#a)"/>
<path d="m60.105 559.34v101.56" clip-path="url(#a)"/>
<path d="m107.99 559.34v101.56" clip-path="url(#a)"/>
<path d="m155.88 559.34v101.56" clip-path="url(#a)"/>
<path d="m326.5 32.429-218.51 425.36" clip-path="url(#a)"/>
<path d="m326.5 32.429-98.798 322.38" clip-path="url(#a)"/>
<path d="m326.5 32.429 212.45 526.92" clip-path="url(#a)"/>
<path d="m326.5 32.429 104.86 110.08" clip-path="url(#a)"/>
<path d="m179.82 249.86-71.827 207.93" clip-path="url(#a)"/>
<path d="m179.82 249.86 23.942 309.49" clip-path="url(#a)"/>
<path d="m179.82 249.86 47.885 104.96" clip-path="url(#a)"/>
<path d="m491.07 559.34v101.56" clip-path="url(#a)"/>
<path d="m1065.7 559.34v101.56" clip-path="url(#a)"/>
<path d="m1257.2 559.34v101.56" clip-path="url(#a)"/>
</g>
<path d="m224.86 250.7 2.8178-5.3156q1.1241-2.1205-0.99641-3.2446l-6.8408-3.6263q-2.1205-1.1241-3.2446 0.99641l-2.8178 5.3156q-1.1241 2.1205 0.99641 3.2446l6.8408 3.6263q2.1205 1.1241 3.2446-0.99641z" clip-path="url(#a)" fill="#fff" stroke="#fff"/>
<g clip-path="url(#a)">
<defs>
<path id="w" d="m9.8125 72.906h9.8594v-29.891h35.844v29.891h9.8594v-72.906h-9.8594v34.719h-35.844v-34.719h-9.8594z"/>
</defs>
<g transform="translate(221.27 248.8) rotate(-62.072) scale(.08 -.08)">
<use xlink:href="#w"/>
</g>
</g>
<path d="m274.17 299.55 1.0655-4.3283q0.57369-2.3304-1.7567-2.9041l-7.5181-1.8507q-2.3304-0.57369-2.9041 1.7567l-1.0655 4.3283q-0.57368 2.3304 1.7567 2.9041l7.5181 1.8507q2.3304 0.57369 2.9041-1.7567z" clip-path="url(#a)" fill="#fff" stroke="#fff"/>
<g clip-path="url(#a)">
<defs>
<path id="q" d="m9.8125 72.906h9.8594v-64.609h35.5v-8.2969h-45.359z"/>
</defs>
<g transform="translate(270.23 298.58) rotate(-76.17) scale(.08 -.08)">
<use xlink:href="#q"/>
</g>
</g>
<path d="m285.61 198.43 1.8755-5.7164q0.74817-2.2804-1.5322-3.0286l-7.3567-2.4136q-2.2804-0.74817-3.0286 1.5322l-1.8755 5.7164q-0.74817 2.2804 1.5322 3.0286l7.3567 2.4136q2.2804 0.74817 3.0286-1.5322z" clip-path="url(#a)" fill="#fff" stroke="#fff"/>
<g clip-path="url(#a)">
<g transform="translate(281.75 197.17) rotate(-71.836) scale(.08 -.08)">
<use xlink:href="#w"/>
</g>
</g>
<path d="m429.56 296.09 1.6195 4.1529q0.87197 2.236 3.108 1.364l7.2134-2.813q2.236-0.87197 1.364-3.108l-1.6195-4.1529q-0.87197-2.236-3.108-1.364l-7.2134 2.813q-2.236 0.87197-1.364 3.108z" clip-path="url(#a)" fill="#fff" stroke="#fff"/>
<g clip-path="url(#a)">
<g transform="translate(433.35 294.61) rotate(68.696) scale(.08 -.08)">
<use xlink:href="#q"/>
</g>
</g>
<path d="m375.73 89.388 3.9978 4.4959q1.5948 1.7935 3.3883 0.19871l5.7859-5.1449q1.7935-1.5948 0.19871-3.3883l-3.9978-4.4959q-1.5948-1.7935-3.3883-0.19871l-5.7859 5.1449q-1.7935 1.5948-0.19871 3.3883z" clip-path="url(#a)" fill="#fff" stroke="#fff"/>
<g clip-path="url(#a)">
<g transform="translate(378.77 86.687) rotate(48.356) scale(.08 -.08)">
<use xlink:href="#w"/>
</g>
</g>
<path d="m405.42 294.88 1.6778 5.6095q0.68772 2.2994 2.9871 1.6116l7.4178-2.2186q2.2994-0.68772 1.6116-2.9871l-1.6778-5.6095q-0.68772-2.2994-2.9871-1.6116l-7.4178 2.2186q-2.2994 0.68772-1.6116 2.9871z" clip-path="url(#a)" fill="#fff" stroke="#fff"/>
<g clip-path="url(#a)">
<defs>
<path id="af" d="m8.6875 72.906h9.9219v-44.297q0-11.719 4.2344-16.875 4.25-5.1406 13.781-5.1406 9.4688 0 13.719 5.1406 4.25 5.1562 4.25 16.875v44.297h9.9062v-45.516q0-14.25-7.0625-21.531-7.0469-7.2812-20.812-7.2812-13.828 0-20.891 7.2812-7.0469 7.2812-7.0469 21.531z"/>
</defs>
<g transform="translate(409.32 293.71) rotate(73.348) scale(.08 -.08)">
<use xlink:href="#af"/>
</g>
</g>
<path d="m88.553 513.71 2.3338-4.9499q1.0235-2.1708-1.1473-3.1943l-7.0031-3.3019q-2.1708-1.0235-3.1943 1.1473l-2.3338 4.9499q-1.0235 2.1708 1.1473 3.1943l7.0031 3.3019q2.1708 1.0235 3.1943-1.1473z" clip-path="url(#a)" fill="#fff" stroke="#fff"/>
<g clip-path="url(#a)">
<defs>
<path id="m" d="m34.188 63.188-13.391-36.281h26.812zm-5.5781 9.7188h11.188l27.781-72.906h-10.25l-6.6406 18.703h-32.859l-6.6406-18.703h-10.406z"/>
</defs>
<g transform="translate(84.878 511.98) rotate(-64.756) scale(.08 -.08)">
<use xlink:href="#m"/>
</g>
</g>
<path d="m101.72 506.15v4.8238q0 2.4 2.4 2.4h7.7425q2.4 0 2.4-2.4v-4.8238q0-2.4-2.4-2.4h-7.7425q-2.4 0-2.4 2.4z" clip-path="url(#a)" fill="#fff" stroke="#fff"/>
<g clip-path="url(#a)">
<defs>
<path id="t" d="m19.672 64.797v-27.391h12.406q6.8906 0 10.641 3.5625 3.7656 3.5625 3.7656 10.156 0 6.5469-3.7656 10.109-3.75 3.5625-10.641 3.5625zm-9.8594 8.1094h22.266q12.266 0 18.531-5.5469 6.2812-5.5469 6.2812-16.234 0-10.797-6.2812-16.312-6.2656-5.5156-18.531-5.5156h-12.406v-29.297h-9.8594z"/>
</defs>
<g transform="translate(105.78 506.15) rotate(90) scale(.08 -.08)">
<use xlink:href="#t"/>
</g>
</g>
<path d="m125.09 508.76 2.3338 4.9499q1.0235 2.1708 3.1943 1.1473l7.0031-3.3019q2.1708-1.0235 1.1473-3.1943l-2.3338-4.9499q-1.0235-2.1708-3.1943-1.1473l-7.0031 3.3019q-2.1708 1.0235-1.1473 3.1943z" clip-path="url(#a)" fill="#fff" stroke="#fff"/>
<g clip-path="url(#a)">
<g transform="translate(128.77 507.03) rotate(64.756) scale(.08 -.08)">
<use xlink:href="#m"/>
</g>
</g>
<path d="m197.49 592.48v35.285q0 2.4 2.4 2.4h7.7425q2.4 0 2.4-2.4v-35.285q0-2.4-2.4-2.4h-7.7425q-2.4 0-2.4 2.4z" clip-path="url(#a)" fill="#fff" stroke="#fff"/>
<g clip-path="url(#a)">
<defs>
<path id="k" d="m-0.29688 72.906h61.672v-8.3125h-25.875v-64.594h-9.9062v64.594h-25.891z"/>
<path id="g" d="m56.203 29.594v-4.3906h-41.312q0.59375-9.2812 5.5938-14.141t13.938-4.8594q5.1719 0 10.031 1.2656t9.6562 3.8125v-8.5q-4.8438-2.0469-9.9219-3.125t-10.297-1.0781q-13.094 0-20.734 7.6094-7.6406 7.625-7.6406 20.625 0 13.422 7.25 21.297 7.25 7.8906 19.562 7.8906 11.031 0 17.453-7.1094 6.4219-7.0938 6.4219-19.297zm-8.9844 2.6406q-0.09375 7.3594-4.125 11.75-4.0312 4.4062-10.672 4.4062-7.5156 0-12.031-4.25t-5.2031-11.969z"/>
<path id="h" d="m41.109 46.297q-1.5156 0.875-3.2969 1.2812-1.7812 0.42188-3.9219 0.42188-7.625 0-11.703-4.9531t-4.0781-14.234v-28.812h-9.0312v54.688h9.0312v-8.5q2.8438 4.9844 7.375 7.3906 4.5469 2.4219 11.047 2.4219 0.92188 0 2.0469-0.125 1.125-0.10938 2.4844-0.35938z"/>
<path id="l" d="m52 44.188q3.375 6.0625 8.0625 8.9375t11.031 2.875q8.5469 0 13.188-5.9844 4.6406-5.9688 4.6406-17v-33.016h-9.0312v32.719q0 7.8594-2.7969 11.656-2.7812 3.8125-8.4844 3.8125-6.9844 0-11.047-4.6406-4.0469-4.625-4.0469-12.641v-30.906h-9.0312v32.719q0 7.9062-2.7812 11.688t-8.5938 3.7812q-6.8906 0-10.953-4.6562-4.0469-4.6562-4.0469-12.625v-30.906h-9.0312v54.688h9.0312v-8.5q3.0781 5.0312 7.375 7.4219t10.203 2.3906q5.9688 0 10.141-3.0312 4.1719-3.0156 6.1719-8.7812z"/>
<path id="i" d="m9.4219 54.688h8.9844v-54.688h-8.9844zm0 21.297h8.9844v-11.391h-8.9844z"/>
<path id="j" d="m54.891 33.016v-33.016h-8.9844v32.719q0 7.7656-3.0312 11.609-3.0312 3.8594-9.0781 3.8594-7.2812 0-11.484-4.6406-4.2031-4.625-4.2031-12.641v-30.906h-9.0312v54.688h9.0312v-8.5q3.2344 4.9375 7.5938 7.375 4.375 2.4375 10.094 2.4375 9.4219 0 14.25-5.8281 4.8438-5.8281 4.8438-17.156z"/>
<path id="e" d="m34.281 27.484q-10.891 0-15.094-2.4844t-4.2031-8.5q0-4.7812 3.1562-7.5938 3.1562-2.7969 8.5625-2.7969 7.4844 0 12 5.2969t4.5156 14.078v2zm17.922 3.7188v-31.203h-8.9844v8.2969q-3.0781-4.9688-7.6719-7.3438t-11.234-2.375q-8.3906 0-13.359 4.7188-4.9531 4.7188-4.9531 12.625 0 9.2188 6.1719 13.906 6.1875 4.6875 18.438 4.6875h12.609v0.89062q0 6.2031-4.0781 9.5938t-11.453 3.3906q-4.6875 0-9.1406-1.125-4.4375-1.125-8.5312-3.375v8.3125q4.9219 1.9062 9.5625 2.8438 4.6406 0.95312 9.0312 0.95312 11.875 0 17.734-6.1562 5.8594-6.1406 5.8594-18.641z"/>
<path id="f" d="m9.4219 75.984h8.9844v-75.984h-8.9844z"/>
</defs>
<g transform="translate(201.55 592.48) rotate(90) scale(.08 -.08)">
<use xlink:href="#k"/>
<use x="60.818359" xlink:href="#g"/>
<use x="122.341797" xlink:href="#h"/>
<use x="163.439453" xlink:href="#l"/>
<use x="260.851562" xlink:href="#i"/>
<use x="288.634766" xlink:href="#j"/>
<use x="352.013672" xlink:href="#e"/>
<use x="413.292969" xlink:href="#f"/>
</g>
</g>
<path d="m233.16 455.41 0.56083 4.791q0.27904 2.3837 2.6628 2.1047l7.69-0.90018q2.3837-0.27904 2.1047-2.6628l-0.56083-4.791q-0.27904-2.3837-2.6628-2.1047l-7.69 0.90018q-2.3837 0.27904-2.1047 2.6628z" clip-path="url(#a)" fill="#fff" stroke="#fff"/>
<g clip-path="url(#a)">
<g transform="translate(237.2 454.94) rotate(83.323) scale(.08 -.08)">
<use xlink:href="#t"/>
</g>
</g>
<path d="m293.65 409.8 4.4478 3.1883q1.9506 1.3982 3.3489-0.5524l4.5107-6.2928q1.3982-1.9506-0.5524-3.3489l-4.4478-3.1883q-1.9506-1.3982-3.3489 0.5524l-4.5107 6.2928q-1.3982 1.9506 0.5524 3.3489z" clip-path="url(#a)" fill="#fff" stroke="#fff"/>
<g clip-path="url(#a)">
<g transform="translate(296.02 406.5) rotate(35.633) scale(.08 -.08)">
<use xlink:href="#m"/>
</g>
</g>
<path d="m147.02 463.17 3.4685-4.2329q1.5211-1.8564-0.33524-3.3775l-5.9888-4.9073q-1.8564-1.5211-3.3775 0.33524l-3.4685 4.2329q-1.5211 1.8564 0.33524 3.3775l5.9888 4.9073q1.8564 1.5211 3.3775-0.33524z" clip-path="url(#a)" fill="#fff" stroke="#fff"/>
<g clip-path="url(#a)">
<g transform="translate(143.88 460.59) rotate(-50.668) scale(.08 -.08)">
<use xlink:href="#m"/>
</g>
</g>
<path d="m532.68 592.48v35.285q0 2.4 2.4 2.4h7.7425q2.4 0 2.4-2.4v-35.285q0-2.4-2.4-2.4h-7.7425q-2.4 0-2.4 2.4z" clip-path="url(#a)" fill="#fff" stroke="#fff"/>
<g clip-path="url(#a)">
<g transform="translate(536.75 592.48) rotate(90) scale(.08 -.08)">
<use xlink:href="#k"/>
<use x="60.818359" xlink:href="#g"/>
<use x="122.341797" xlink:href="#h"/>
<use x="163.439453" xlink:href="#l"/>
<use x="260.851562" xlink:href="#i"/>
<use x="288.634766" xlink:href="#j"/>
<use x="352.013672" xlink:href="#e"/>
<use x="413.292969" xlink:href="#f"/>
</g>
</g>
<path d="m514.43 301.15 2.3859 4.1924q1.1871 2.0859 3.2729 0.89879l6.7291-3.8296q2.0859-1.1871 0.89878-3.2729l-2.3859-4.1924q-1.1871-2.0859-3.2729-0.89878l-6.7291 3.8296q-2.0859 1.1871-0.89878 3.2729z" clip-path="url(#a)" fill="#fff" stroke="#fff"/>
<g clip-path="url(#a)">
<g transform="translate(517.96 299.14) rotate(60.355) scale(.08 -.08)">
<use xlink:href="#t"/>
</g>
</g>
<path d="m521.82 200.32 4.7756 2.6725q2.0944 1.172 3.2664-0.92233l3.781-6.7565q1.172-2.0944-0.92233-3.2664l-4.7756-2.6725q-2.0944-1.172-3.2664 0.92233l-3.781 6.7565q-1.172 2.0944 0.92233 3.2664z" clip-path="url(#a)" fill="#fff" stroke="#fff"/>
<g clip-path="url(#a)">
<g transform="translate(523.8 196.77) rotate(29.232) scale(.08 -.08)">
<use xlink:href="#m"/>
</g>
</g>
<path d="m248.59 357.14 3.6397-4.0866q1.5962-1.7922-0.196-3.3884l-5.7818-5.1495q-1.7922-1.5962-3.3884 0.196l-3.6397 4.0866q-1.5962 1.7922 0.196 3.3884l5.7818 5.1495q1.7922 1.5962 3.3884-0.196z" clip-path="url(#a)" fill="#fff" stroke="#fff"/>
<g clip-path="url(#a)">
<g transform="translate(245.56 354.44) rotate(-48.311) scale(.08 -.08)">
<use xlink:href="#m"/>
</g>
</g>
<path d="m604.27 512.72 1.2818-5.4372q0.5507-2.336-1.7853-2.8867l-7.5359-1.7766q-2.336-0.5507-2.8867 1.7853l-1.2818 5.4372q-0.5507 2.336 1.7853 2.8867l7.5359 1.7766q2.336 0.5507 2.8867-1.7853z" clip-path="url(#a)" fill="#fff" stroke="#fff"/>
<g clip-path="url(#a)">
<defs>
<path id="x" d="m64.406 67.281v-10.391q-4.9844 4.6406-10.625 6.9219-5.6406 2.2969-11.984 2.2969-12.5 0-19.141-7.6406t-6.6406-22.094q0-14.406 6.6406-22.047t19.141-7.6406q6.3438 0 11.984 2.2969t10.625 6.9375v-10.312q-5.1719-3.5156-10.969-5.2812-5.7812-1.75-12.219-1.75-16.562 0-26.094 10.125-9.5156 10.141-9.5156 27.672 0 17.578 9.5156 27.703 9.5312 10.141 26.094 10.141 6.5312 0 12.312-1.7344 5.7969-1.7344 10.875-5.2031z"/>
</defs>
<g transform="translate(600.32 511.79) rotate(-76.735) scale(.08 -.08)">
<use xlink:href="#x"/>
</g>
</g>
<path d="m616.07 507.54 1.1599 4.9201q0.5507 2.336 2.8867 1.7853l7.5359-1.7766q2.336-0.5507 1.7853-2.8867l-1.1599-4.9201q-0.5507-2.336-2.8867-1.7853l-7.5359 1.7766q-2.336 0.5507-1.7853 2.8867z" clip-path="url(#a)" fill="#fff" stroke="#fff"/>
<g clip-path="url(#a)">
<defs>
<path id="u" d="m9.8125 72.906h46.094v-8.3125h-36.234v-21.578h34.719v-8.2969h-34.719v-26.422h37.109v-8.2969h-46.969z"/>
</defs>
<g transform="translate(620.02 506.61) rotate(76.735) scale(.08 -.08)">
<use xlink:href="#u"/>
</g>
</g>
<path d="m646.21 403.05 1.0482 5.459q0.45258 2.3569 2.8095 1.9044l7.6036-1.4601q2.3569-0.45258 1.9044-2.8095l-1.0482-5.459q-0.45258-2.3569-2.8095-1.9044l-7.6036 1.4601q-2.3569 0.45258-1.9044 2.8095z" clip-path="url(#a)" fill="#fff" stroke="#fff"/>
<g clip-path="url(#a)">
<defs>
<path id="s" d="m44.391 34.188q3.1719-1.0781 6.1719-4.5938t6.0312-9.6719l10.016-19.922h-10.609l-9.3125 18.703q-3.625 7.3281-7.0156 9.7188t-9.25 2.3906h-10.75v-30.812h-9.8594v72.906h22.266q12.5 0 18.656-5.2344 6.1562-5.2188 6.1562-15.766 0-6.8906-3.2031-11.438-3.2031-4.5312-9.2969-6.2812zm-24.719 30.609v-25.875h12.406q7.125 0 10.766 3.2969t3.6406 9.6875-3.6406 9.6406-10.766 3.25z"/>
</defs>
<g transform="translate(650.2 402.29) rotate(79.13) scale(.08 -.08)">
<use xlink:href="#s"/>
</g>
</g>
<path d="m670.12 404.38 1.5803 4.5575q0.78626 2.2676 3.0538 1.4813l7.3152-2.5365q2.2676-0.78626 1.4813-3.0538l-1.5803-4.5575q-0.78626-2.2676-3.0538-1.4813l-7.3152 2.5365q-2.2676 0.78626-1.4813 3.0538z" clip-path="url(#a)" fill="#fff" stroke="#fff"/>
<g clip-path="url(#a)">
<g transform="translate(673.96 403.04) rotate(70.876) scale(.08 -.08)">
<use xlink:href="#t"/>
</g>
</g>
<path d="m817.1 307.7 5.2901 1.4009q2.32 0.61438 2.9344-1.7056l1.982-7.4845q0.61438-2.32-1.7056-2.9344l-5.2901-1.4009q-2.32-0.61438-2.9344 1.7056l-1.982 7.4845q-0.61438 2.32 1.7056 2.9344z" clip-path="url(#a)" fill="#fff" stroke="#fff"/>
<g clip-path="url(#a)">
<g transform="translate(818.14 303.77) rotate(14.832) scale(.08 -.08)">
<use xlink:href="#m"/>
</g>
</g>
<path d="m342.27 411.41 4.7958-2.636q2.1032-1.156 0.94721-3.2593l-3.7294-6.7851q-1.156-2.1032-3.2593-0.94721l-4.7958 2.636q-2.1032 1.156-0.94721 3.2593l3.7294 6.7851q1.156 2.1032 3.2593 0.94721z" clip-path="url(#a)" fill="#fff" stroke="#fff"/>
<g clip-path="url(#a)">
<g transform="translate(340.31 407.85) rotate(-28.795) scale(.08 -.08)">
<use xlink:href="#m"/>
</g>
</g>
<path d="m676.34 592.48v35.285q0 2.4 2.4 2.4h7.7425q2.4 0 2.4-2.4v-35.285q0-2.4-2.4-2.4h-7.7425q-2.4 0-2.4 2.4z" clip-path="url(#a)" fill="#fff" stroke="#fff"/>
<g clip-path="url(#a)">
<g transform="translate(680.4 592.48) rotate(90) scale(.08 -.08)">
<use xlink:href="#k"/>
<use x="60.818359" xlink:href="#g"/>
<use x="122.341797" xlink:href="#h"/>
<use x="163.439453" xlink:href="#l"/>
<use x="260.851562" xlink:href="#i"/>
<use x="288.634766" xlink:href="#j"/>
<use x="352.013672" xlink:href="#e"/>
<use x="413.292969" xlink:href="#f"/>
</g>
</g>
<path d="m724.22 592.48v35.285q0 2.4 2.4 2.4h7.7425q2.4 0 2.4-2.4v-35.285q0-2.4-2.4-2.4h-7.7425q-2.4 0-2.4 2.4z" clip-path="url(#a)" fill="#fff" stroke="#fff"/>
<g clip-path="url(#a)">
<g transform="translate(728.29 592.48) rotate(90) scale(.08 -.08)">
<use xlink:href="#k"/>
<use x="60.818359" xlink:href="#g"/>
<use x="122.341797" xlink:href="#h"/>
<use x="163.439453" xlink:href="#l"/>
<use x="260.851562" xlink:href="#i"/>
<use x="288.634766" xlink:href="#j"/>
<use x="352.013672" xlink:href="#e"/>
<use x="413.292969" xlink:href="#f"/>
</g>
</g>
<path d="m900.88 463.66 4.2392-3.5957q1.8303-1.5525 0.27781-3.3827l-5.0083-5.9045q-1.5525-1.8303-3.3827-0.27781l-4.2392 3.5957q-1.8303 1.5525-0.27781 3.3827l5.0083 5.9045q1.5525 1.8303 3.3827 0.27781z" clip-path="url(#a)" fill="#fff" stroke="#fff"/>
<g clip-path="url(#a)">
<g transform="translate(898.25 460.56) rotate(-40.305) scale(.08 -.08)">
<use xlink:href="#s"/>
</g>
</g>
<path d="m954.65 412.81 4.0015-3.0889q1.8998-1.4665 0.43325-3.3663l-4.7311-6.1288q-1.4665-1.8998-3.3663-0.43325l-4.0015 3.0889q-1.8998 1.4665-0.43325 3.3663l4.7311 6.1288q1.4665 1.8998 3.3663 0.43325z" clip-path="url(#a)" fill="#fff" stroke="#fff"/>
<g clip-path="url(#a)">
<g transform="translate(952.16 409.59) rotate(-37.666) scale(.08 -.08)">
<use xlink:href="#u"/>
</g>
</g>
<path d="m1000.2 461.01 1.1912-4.9126q0.56556-2.3324-1.7668-2.898l-7.5245-1.8245q-2.3324-0.56556-2.898 1.7668l-1.1912 4.9126q-0.56556 2.3324 1.7668 2.898l7.5245 1.8245q2.3324 0.56556 2.898-1.7668z" clip-path="url(#a)" fill="#fff" stroke="#fff"/>
<g clip-path="url(#a)">
<g transform="translate(996.27 460.05) rotate(-76.37) scale(.08 -.08)">
<use xlink:href="#u"/>
</g>
</g>
<path d="m1024.9 459.66 0.042266-5.0548q0.020066-2.3999-2.3798-2.42l-7.7422-0.064736q-2.3999-0.020066-2.42 2.3798l-0.042265 5.0548q-0.020067 2.3999 2.3798 2.42l7.7422 0.064735q2.3999 0.020067 2.42-2.3798z" clip-path="url(#a)" fill="#fff" stroke="#fff"/>
<g clip-path="url(#a)">
<g transform="translate(1020.8 459.62) rotate(-89.521) scale(.08 -.08)">
<use xlink:href="#u"/>
</g>
</g>
<path d="m1083.7 458.36 3.185 4.5893q1.3683 1.9717 3.3401 0.60336l6.3608-4.4144q1.9717-1.3683 0.60336-3.3401l-3.185-4.5894q-1.3683-1.9717-3.3401-0.60336l-6.3608 4.4144q-1.9717 1.3683-0.60336 3.3401z" clip-path="url(#a)" fill="#fff" stroke="#fff"/>
<g clip-path="url(#a)">
<g transform="translate(1087.1 456.04) rotate(55.24) scale(.08 -.08)">
<use xlink:href="#x"/>
</g>
</g>
<path d="m1035.8 455.6 1.2894 5.7113q0.52852 2.3411 2.8696 1.8126l7.5524-1.705q2.3411-0.52852 1.8126-2.8696l-1.2894-5.7113q-0.52852-2.3411-2.8696-1.8126l-7.5524 1.705q-2.3411 0.52852-1.8126 2.8696z" clip-path="url(#a)" fill="#fff" stroke="#fff"/>
<g clip-path="url(#a)">
<g transform="translate(1039.8 454.71) rotate(77.278) scale(.08 -.08)">
<use xlink:href="#af"/>
</g>
</g>
<path d="m1132.1 459.92 4.4383 3.8188q1.8193 1.5653 3.3846-0.25394l5.0498-5.869q1.5653-1.8193-0.25394-3.3846l-4.4383-3.8188q-1.8193-1.5653-3.3846 0.25394l-5.0498 5.869q-1.5653 1.8193 0.25394 3.3846z" clip-path="url(#a)" fill="#fff" stroke="#fff"/>
<g clip-path="url(#a)">
<g transform="translate(1134.7 456.84) rotate(40.709) scale(.08 -.08)">
<use xlink:href="#af"/>
</g>
</g>
<path d="m772.11 592.48v35.285q0 2.4 2.4 2.4h7.7425q2.4 0 2.4-2.4v-35.285q0-2.4-2.4-2.4h-7.7425q-2.4 0-2.4 2.4z" clip-path="url(#a)" fill="#fff" stroke="#fff"/>
<g clip-path="url(#a)">
<g transform="translate(776.17 592.48) rotate(90) scale(.08 -.08)">
<use xlink:href="#k"/>
<use x="60.818359" xlink:href="#g"/>
<use x="122.341797" xlink:href="#h"/>
<use x="163.439453" xlink:href="#l"/>
<use x="260.851562" xlink:href="#i"/>
<use x="288.634766" xlink:href="#j"/>
<use x="352.013672" xlink:href="#e"/>
<use x="413.292969" xlink:href="#f"/>
</g>
</g>
<path d="m873.14 513.29 1.8624-5.2667q0.80013-2.2627-1.4626-3.0628l-7.2995-2.5813q-2.2627-0.80013-3.0628 1.4626l-1.8624 5.2667q-0.80013 2.2627 1.4626 3.0628l7.2995 2.5813q2.2627 0.80013 3.0628-1.4626z" clip-path="url(#a)" fill="#fff" stroke="#fff"/>
<g clip-path="url(#a)">
<g transform="translate(869.31 511.93) rotate(-70.525) scale(.08 -.08)">
<use xlink:href="#x"/>
</g>
</g>
<path d="m897.24 508.03 1.8532 5.2407q0.80013 2.2627 3.0628 1.4626l7.2995-2.5813q2.2627-0.80013 1.4626-3.0628l-1.8532-5.2407q-0.80013-2.2627-3.0628-1.4626l-7.2995 2.5813q-2.2627 0.80013-1.4626 3.0628z" clip-path="url(#a)" fill="#fff" stroke="#fff"/>
<g clip-path="url(#a)">
<g transform="translate(901.07 506.68) rotate(70.525) scale(.08 -.08)">
<use xlink:href="#s"/>
</g>
</g>
<path d="m963.65 592.48v35.285q0 2.4 2.4 2.4h7.7425q2.4 0 2.4-2.4v-35.285q0-2.4-2.4-2.4h-7.7425q-2.4 0-2.4 2.4z" clip-path="url(#a)" fill="#fff" stroke="#fff"/>
<g clip-path="url(#a)">
<g transform="translate(967.71 592.48) rotate(90) scale(.08 -.08)">
<use xlink:href="#k"/>
<use x="60.818359" xlink:href="#g"/>
<use x="122.341797" xlink:href="#h"/>
<use x="163.439453" xlink:href="#l"/>
<use x="260.851562" xlink:href="#i"/>
<use x="288.634766" xlink:href="#j"/>
<use x="352.013672" xlink:href="#e"/>
<use x="413.292969" xlink:href="#f"/>
</g>
</g>
<path d="m1011.5 592.48v35.285q0 2.4 2.4 2.4h7.7425q2.4 0 2.4-2.4v-35.285q0-2.4-2.4-2.4h-7.7425q-2.4 0-2.4 2.4z" clip-path="url(#a)" fill="#fff" stroke="#fff"/>
<g clip-path="url(#a)">
<g transform="translate(1015.6 592.48) rotate(90) scale(.08 -.08)">
<use xlink:href="#k"/>
<use x="60.818359" xlink:href="#g"/>
<use x="122.341797" xlink:href="#h"/>
<use x="163.439453" xlink:href="#l"/>
<use x="260.851562" xlink:href="#i"/>
<use x="288.634766" xlink:href="#j"/>
<use x="352.013672" xlink:href="#e"/>
<use x="413.292969" xlink:href="#f"/>
</g>
</g>
<path d="m1135.7 628.76 15.048-31.915q1.0235-2.1708-1.1473-3.1943l-7.0031-3.3019q-2.1708-1.0235-3.1943 1.1473l-15.048 31.915q-1.0235 2.1708 1.1473 3.1943l7.0031 3.3019q2.1708 1.0235 3.1943-1.1473z" clip-path="url(#a)" fill="#fff" stroke="#fff"/>
<g clip-path="url(#a)">
<g transform="translate(1132 627.02) rotate(-64.756) scale(.08 -.08)">
<use xlink:href="#k"/>
<use x="60.818359" xlink:href="#g"/>
<use x="122.341797" xlink:href="#h"/>
<use x="163.439453" xlink:href="#l"/>
<use x="260.851562" xlink:href="#i"/>
<use x="288.634766" xlink:href="#j"/>
<use x="352.013672" xlink:href="#e"/>
<use x="413.292969" xlink:href="#f"/>
</g>
</g>
<path d="m1155.2 592.48v35.285q0 2.4 2.4 2.4h7.7425q2.4 0 2.4-2.4v-35.285q0-2.4-2.4-2.4h-7.7425q-2.4 0-2.4 2.4z" clip-path="url(#a)" fill="#fff" stroke="#fff"/>
<g clip-path="url(#a)">
<g transform="translate(1159.3 592.48) rotate(90) scale(.08 -.08)">
<use xlink:href="#k"/>
<use x="60.818359" xlink:href="#g"/>
<use x="122.341797" xlink:href="#h"/>
<use x="163.439453" xlink:href="#l"/>
<use x="260.851562" xlink:href="#i"/>
<use x="288.634766" xlink:href="#j"/>
<use x="352.013672" xlink:href="#e"/>
<use x="413.292969" xlink:href="#f"/>
</g>
</g>
<path d="m1172.2 596.84 15.048 31.915q1.0235 2.1708 3.1943 1.1473l7.0031-3.3019q2.1708-1.0235 1.1473-3.1943l-15.048-31.915q-1.0235-2.1708-3.1943-1.1473l-7.0031 3.3019q-2.1708 1.0235-1.1473 3.1943z" clip-path="url(#a)" fill="#fff" stroke="#fff"/>
<g clip-path="url(#a)">
<g transform="translate(1175.9 595.11) rotate(64.756) scale(.08 -.08)">
<use xlink:href="#k"/>
<use x="60.818359" xlink:href="#g"/>
<use x="122.341797" xlink:href="#h"/>
<use x="163.439453" xlink:href="#l"/>
<use x="260.851562" xlink:href="#i"/>
<use x="288.634766" xlink:href="#j"/>
<use x="352.013672" xlink:href="#e"/>
<use x="413.292969" xlink:href="#f"/>
</g>
</g>
<path d="m840.29 628.74 8.0964-34.344q0.5507-2.336-1.7853-2.8867l-7.5359-1.7766q-2.336-0.5507-2.8867 1.7853l-8.0964 34.344q-0.5507 2.336 1.7853 2.8867l7.5359 1.7766q2.336 0.5507 2.8867-1.7853z" clip-path="url(#a)" fill="#fff" stroke="#fff"/>
<g clip-path="url(#a)">
<g transform="translate(836.34 627.8) rotate(-76.735) scale(.08 -.08)">
<use xlink:href="#k"/>
<use x="60.818359" xlink:href="#g"/>
<use x="122.341797" xlink:href="#h"/>
<use x="163.439453" xlink:href="#l"/>
<use x="260.851562" xlink:href="#i"/>
<use x="288.634766" xlink:href="#j"/>
<use x="352.013672" xlink:href="#e"/>
<use x="413.292969" xlink:href="#f"/>
</g>
</g>
<path d="m852.03 594.39 8.0964 34.344q0.5507 2.336 2.8867 1.7853l7.5359-1.7766q2.336-0.5507 1.7853-2.8867l-8.0964-34.344q-0.5507-2.336-2.8867-1.7853l-7.5359 1.7766q-2.336 0.5507-1.7853 2.8867z" clip-path="url(#a)" fill="#fff" stroke="#fff"/>
<g clip-path="url(#a)">
<g transform="translate(855.98 593.46) rotate(76.735) scale(.08 -.08)">
<use xlink:href="#k"/>
<use x="60.818359" xlink:href="#g"/>
<use x="122.341797" xlink:href="#h"/>
<use x="163.439453" xlink:href="#l"/>
<use x="260.851562" xlink:href="#i"/>
<use x="288.634766" xlink:href="#j"/>
<use x="352.013672" xlink:href="#e"/>
<use x="413.292969" xlink:href="#f"/>
</g>
</g>
<path d="m915.76 592.48v35.285q0 2.4 2.4 2.4h7.7425q2.4 0 2.4-2.4v-35.285q0-2.4-2.4-2.4h-7.7425q-2.4 0-2.4 2.4z" clip-path="url(#a)" fill="#fff" stroke="#fff"/>
<g clip-path="url(#a)">
<g transform="translate(919.83 592.48) rotate(90) scale(.08 -.08)">
<use xlink:href="#k"/>
<use x="60.818359" xlink:href="#g"/>
<use x="122.341797" xlink:href="#h"/>
<use x="163.439453" xlink:href="#l"/>
<use x="260.851562" xlink:href="#i"/>
<use x="288.634766" xlink:href="#j"/>
<use x="352.013672" xlink:href="#e"/>
<use x="413.292969" xlink:href="#f"/>
</g>
</g>
<path d="m580.57 592.48v35.285q0 2.4 2.4 2.4h7.7425q2.4 0 2.4-2.4v-35.285q0-2.4-2.4-2.4h-7.7425q-2.4 0-2.4 2.4z" clip-path="url(#a)" fill="#fff" stroke="#fff"/>
<g clip-path="url(#a)">
<g transform="translate(584.63 592.48) rotate(90) scale(.08 -.08)">
<use xlink:href="#k"/>
<use x="60.818359" xlink:href="#g"/>
<use x="122.341797" xlink:href="#h"/>
<use x="163.439453" xlink:href="#l"/>
<use x="260.851562" xlink:href="#i"/>
<use x="288.634766" xlink:href="#j"/>
<use x="352.013672" xlink:href="#e"/>
<use x="413.292969" xlink:href="#f"/>
</g>
</g>
<path d="m628.45 592.48v35.285q0 2.4 2.4 2.4h7.7425q2.4 0 2.4-2.4v-35.285q0-2.4-2.4-2.4h-7.7425q-2.4 0-2.4 2.4z" clip-path="url(#a)" fill="#fff" stroke="#fff"/>
<g clip-path="url(#a)">
<g transform="translate(632.52 592.48) rotate(90) scale(.08 -.08)">
<use xlink:href="#k"/>
<use x="60.818359" xlink:href="#g"/>
<use x="122.341797" xlink:href="#h"/>
<use x="163.439453" xlink:href="#l"/>
<use x="260.851562" xlink:href="#i"/>
<use x="288.634766" xlink:href="#j"/>
<use x="352.013672" xlink:href="#e"/>
<use x="413.292969" xlink:href="#f"/>
</g>
</g>
<path d="m245.37 592.48v35.285q0 2.4 2.4 2.4h7.7425q2.4 0 2.4-2.4v-35.285q0-2.4-2.4-2.4h-7.7425q-2.4 0-2.4 2.4z" clip-path="url(#a)" fill="#fff" stroke="#fff"/>
<g clip-path="url(#a)">
<g transform="translate(249.44 592.48) rotate(90) scale(.08 -.08)">
<use xlink:href="#k"/>
<use x="60.818359" xlink:href="#g"/>
<use x="122.341797" xlink:href="#h"/>
<use x="163.439453" xlink:href="#l"/>
<use x="260.851562" xlink:href="#i"/>
<use x="288.634766" xlink:href="#j"/>
<use x="352.013672" xlink:href="#e"/>
<use x="413.292969" xlink:href="#f"/>
</g>
</g>
<path d="m338.96 514.45 3.2097-4.5384q1.3858-1.9595-0.57366-3.3453l-6.3213-4.4707q-1.9595-1.3858-3.3453 0.57366l-3.2097 4.5384q-1.3858 1.9595 0.57366 3.3453l6.3213 4.4707q1.9595 1.3858 3.3453-0.57366z" clip-path="url(#a)" fill="#fff" stroke="#fff"/>
<g clip-path="url(#a)">
<g transform="translate(335.64 512.11) rotate(-54.731) scale(.08 -.08)">
<use xlink:href="#s"/>
</g>
</g>
<path d="m364.91 512.46 1.1599-4.9201q0.5507-2.336-1.7853-2.8867l-7.5359-1.7766q-2.336-0.5507-2.8867 1.7853l-1.1599 4.9201q-0.5507 2.336 1.7853 2.8867l7.5359 1.7766q2.336 0.5507 2.8867-1.7853z" clip-path="url(#a)" fill="#fff" stroke="#fff"/>
<g clip-path="url(#a)">
<g transform="translate(360.95 511.53) rotate(-76.735) scale(.08 -.08)">
<use xlink:href="#u"/>
</g>
</g>
<path d="m376.64 507.54 1.1599 4.9201q0.5507 2.336 2.8867 1.7853l7.5359-1.7766q2.336-0.5507 1.7853-2.8867l-1.1599-4.9201q-0.5507-2.336-2.8867-1.7853l-7.5359 1.7766q-2.336 0.5507-1.7853 2.8867z" clip-path="url(#a)" fill="#fff" stroke="#fff"/>
<g clip-path="url(#a)">
<g transform="translate(380.6 506.61) rotate(76.735) scale(.08 -.08)">
<use xlink:href="#u"/>
</g>
</g>
<path d="m400.54 509.91 3.2256 4.5609q1.3858 1.9595 3.3453 0.57366l6.3213-4.4707q1.9595-1.3858 0.57366-3.3453l-3.2256-4.5609q-1.3858-1.9595-3.3453-0.57366l-6.3213 4.4707q-1.9595 1.3858-0.57366 3.3453z" clip-path="url(#a)" fill="#fff" stroke="#fff"/>
<g clip-path="url(#a)">
<g transform="translate(403.86 507.56) rotate(54.731) scale(.08 -.08)">
<use xlink:href="#x"/>
</g>
</g>
<path d="m293.26 592.48v35.285q0 2.4 2.4 2.4h7.7425q2.4 0 2.4-2.4v-35.285q0-2.4-2.4-2.4h-7.7425q-2.4 0-2.4 2.4z" clip-path="url(#a)" fill="#fff" stroke="#fff"/>
<g clip-path="url(#a)">
<g transform="translate(297.32 592.48) rotate(90) scale(.08 -.08)">
<use xlink:href="#k"/>
<use x="60.818359" xlink:href="#g"/>
<use x="122.341797" xlink:href="#h"/>
<use x="163.439453" xlink:href="#l"/>
<use x="260.851562" xlink:href="#i"/>
<use x="288.634766" xlink:href="#j"/>
<use x="352.013672" xlink:href="#e"/>
<use x="413.292969" xlink:href="#f"/>
</g>
</g>
<path d="m341.14 592.48v35.285q0 2.4 2.4 2.4h7.7425q2.4 0 2.4-2.4v-35.285q0-2.4-2.4-2.4h-7.7425q-2.4 0-2.4 2.4z" clip-path="url(#a)" fill="#fff" stroke="#fff"/>
<g clip-path="url(#a)">
<g transform="translate(345.21 592.48) rotate(90) scale(.08 -.08)">
<use xlink:href="#k"/>
<use x="60.818359" xlink:href="#g"/>
<use x="122.341797" xlink:href="#h"/>
<use x="163.439453" xlink:href="#l"/>
<use x="260.851562" xlink:href="#i"/>
<use x="288.634766" xlink:href="#j"/>
<use x="352.013672" xlink:href="#e"/>
<use x="413.292969" xlink:href="#f"/>
</g>
</g>
<path d="m389.03 592.48v35.285q0 2.4 2.4 2.4h7.7425q2.4 0 2.4-2.4v-35.285q0-2.4-2.4-2.4h-7.7425q-2.4 0-2.4 2.4z" clip-path="url(#a)" fill="#fff" stroke="#fff"/>
<g clip-path="url(#a)">
<g transform="translate(393.09 592.48) rotate(90) scale(.08 -.08)">
<use xlink:href="#k"/>
<use x="60.818359" xlink:href="#g"/>
<use x="122.341797" xlink:href="#h"/>
<use x="163.439453" xlink:href="#l"/>
<use x="260.851562" xlink:href="#i"/>
<use x="288.634766" xlink:href="#j"/>
<use x="352.013672" xlink:href="#e"/>
<use x="413.292969" xlink:href="#f"/>
</g>
</g>
<path d="m436.91 592.48v35.285q0 2.4 2.4 2.4h7.7425q2.4 0 2.4-2.4v-35.285q0-2.4-2.4-2.4h-7.7425q-2.4 0-2.4 2.4z" clip-path="url(#a)" fill="#fff" stroke="#fff"/>
<g clip-path="url(#a)">
<g transform="translate(440.98 592.48) rotate(90) scale(.08 -.08)">
<use xlink:href="#k"/>
<use x="60.818359" xlink:href="#g"/>
<use x="122.341797" xlink:href="#h"/>
<use x="163.439453" xlink:href="#l"/>
<use x="260.851562" xlink:href="#i"/>
<use x="288.634766" xlink:href="#j"/>
<use x="352.013672" xlink:href="#e"/>
<use x="413.292969" xlink:href="#f"/>
</g>
</g>
<path d="m53.834 592.48v35.285q0 2.4 2.4 2.4h7.7425q2.4 0 2.4-2.4v-35.285q0-2.4-2.4-2.4h-7.7425q-2.4 0-2.4 2.4z" clip-path="url(#a)" fill="#fff" stroke="#fff"/>
<g clip-path="url(#a)">
<g transform="translate(57.898 592.48) rotate(90) scale(.08 -.08)">
<use xlink:href="#k"/>
<use x="60.818359" xlink:href="#g"/>
<use x="122.341797" xlink:href="#h"/>
<use x="163.439453" xlink:href="#l"/>
<use x="260.851562" xlink:href="#i"/>
<use x="288.634766" xlink:href="#j"/>
<use x="352.013672" xlink:href="#e"/>
<use x="413.292969" xlink:href="#f"/>
</g>
</g>
<path d="m101.72 592.48v35.285q0 2.4 2.4 2.4h7.7425q2.4 0 2.4-2.4v-35.285q0-2.4-2.4-2.4h-7.7425q-2.4 0-2.4 2.4z" clip-path="url(#a)" fill="#fff" stroke="#fff"/>
<g clip-path="url(#a)">
<g transform="translate(105.78 592.48) rotate(90) scale(.08 -.08)">
<use xlink:href="#k"/>
<use x="60.818359" xlink:href="#g"/>
<use x="122.341797" xlink:href="#h"/>
<use x="163.439453" xlink:href="#l"/>
<use x="260.851562" xlink:href="#i"/>
<use x="288.634766" xlink:href="#j"/>
<use x="352.013672" xlink:href="#e"/>
<use x="413.292969" xlink:href="#f"/>
</g>
</g>
<path d="m149.6 592.48v35.285q0 2.4 2.4 2.4h7.7425q2.4 0 2.4-2.4v-35.285q0-2.4-2.4-2.4h-7.7425q-2.4 0-2.4 2.4z" clip-path="url(#a)" fill="#fff" stroke="#fff"/>
<g clip-path="url(#a)">
<g transform="translate(153.67 592.48) rotate(90) scale(.08 -.08)">
<use xlink:href="#k"/>
<use x="60.818359" xlink:href="#g"/>
<use x="122.341797" xlink:href="#h"/>
<use x="163.439453" xlink:href="#l"/>
<use x="260.851562" xlink:href="#i"/>
<use x="288.634766" xlink:href="#j"/>
<use x="352.013672" xlink:href="#e"/>
<use x="413.292969" xlink:href="#f"/>
</g>
</g>
<path d="m220.55 252.39 4.5386-8.8349q1.0967-2.1348-1.0381-3.2315l-6.8869-3.5379q-2.1348-1.0967-3.2315 1.0381l-4.5386 8.8349q-1.0967 2.1348 1.0381 3.2315l6.8869 3.5379q2.1348 1.0967 3.2315-1.0381z" clip-path="url(#a)" fill="#fff" stroke="#fff"/>
<g clip-path="url(#a)">
<g transform="translate(216.94 250.53) rotate(-62.81) scale(.08 -.08)">
<use xlink:href="#q"/>
<use x="55.744141" xlink:href="#m"/>
</g>
</g>
<path d="m281.64 200.21 2.9103-9.4966q0.70323-2.2947-1.5914-2.9979l-7.4027-2.2686q-2.2947-0.70323-2.9979 1.5914l-2.9103 9.4966q-0.70323 2.2947 1.5914 2.9979l7.4027 2.2686q2.2947 0.70323 2.9979-1.5914z" clip-path="url(#a)" fill="#fff" stroke="#fff"/>
<g clip-path="url(#a)">
<g transform="translate(277.76 199.02) rotate(-72.962) scale(.08 -.08)">
<use xlink:href="#q"/>
<use x="55.744141" xlink:href="#m"/>
</g>
</g>
<path d="m425.04 293.59 3.7456 9.2896q0.89748 2.2259 3.1234 1.3284l7.1808-2.8953q2.2259-0.89748 1.3284-3.1234l-3.7456-9.2896q-0.89748-2.2259-3.1234-1.3284l-7.1808 2.8953q-2.2259 0.89748-1.3284 3.1234z" clip-path="url(#a)" fill="#fff" stroke="#fff"/>
<g clip-path="url(#a)">
<g transform="translate(428.81 292.07) rotate(68.041) scale(.08 -.08)">
<use xlink:href="#q"/>
<use x="55.712891" xlink:href="#s"/>
</g>
</g>
<path d="m370.96 88.198 6.8506 7.1919q1.6553 1.7378 3.3931 0.08248l5.6062-5.3401q1.7378-1.6553 0.082481-3.3931l-6.8506-7.1919q-1.6553-1.7378-3.3931-0.082481l-5.6062 5.3401q-1.7378 1.6553-0.08248 3.3931z" clip-path="url(#a)" fill="#fff" stroke="#fff"/>
<g clip-path="url(#a)">
<g transform="translate(373.9 85.395) rotate(46.392) scale(.08 -.08)">
<use xlink:href="#q"/>
<use x="55.744141" xlink:href="#m"/>
</g>
</g>
<path d="m148.21 360.56 3.2431-9.3881q0.78362-2.2685-1.4848-3.0521l-7.3182-2.528q-2.2685-0.78362-3.0521 1.4848l-3.2431 9.3881q-0.78362 2.2685 1.4848 3.0521l7.3182 2.528q2.2685 0.78362 3.0521-1.4848z" clip-path="url(#a)" fill="#fff" stroke="#fff"/>
<g clip-path="url(#a)">
<g transform="translate(144.37 359.23) rotate(-70.943) scale(.08 -.08)">
<use xlink:href="#q"/>
<use x="55.744141" xlink:href="#m"/>
</g>
</g>
<path d="m185.15 400.09 0.77256 9.9864q0.18511 2.3928 2.578 2.2077l7.7194-0.59718q2.3929-0.18511 2.2077-2.578l-0.77256-9.9864q-0.18511-2.3929-2.578-2.2077l-7.7194 0.59718q-2.3929 0.18511-2.2077 2.578z" clip-path="url(#a)" fill="#fff" stroke="#fff"/>
<g clip-path="url(#a)">
<g transform="translate(189.2 399.78) rotate(85.576) scale(.08 -.08)">
<use xlink:href="#q"/>
<use x="55.712891" xlink:href="#s"/>
</g>
</g>
<path d="m195.99 300.42 4.1228 9.0364q0.99619 2.1835 3.1797 1.1873l7.044-3.2138q2.1835-0.99619 1.1873-3.1797l-4.1228-9.0364q-0.99619-2.1835-3.1797-1.1873l-7.044 3.2138q-2.1835 0.99619-1.1873 3.1797z" clip-path="url(#a)" fill="#fff" stroke="#fff"/>
<g clip-path="url(#a)">
<g transform="translate(199.69 298.73) rotate(65.476) scale(.08 -.08)">
<use xlink:href="#q"/>
<use x="55.744141" xlink:href="#m"/>
</g>
</g>
<path d="m484.8 592.48v35.285q0 2.4 2.4 2.4h7.7425q2.4 0 2.4-2.4v-35.285q0-2.4-2.4-2.4h-7.7425q-2.4 0-2.4 2.4z" clip-path="url(#a)" fill="#fff" stroke="#fff"/>
<g clip-path="url(#a)">
<g transform="translate(488.86 592.48) rotate(90) scale(.08 -.08)">
<use xlink:href="#k"/>
<use x="60.818359" xlink:href="#g"/>
<use x="122.341797" xlink:href="#h"/>
<use x="163.439453" xlink:href="#l"/>
<use x="260.851562" xlink:href="#i"/>
<use x="288.634766" xlink:href="#j"/>
<use x="352.013672" xlink:href="#e"/>
<use x="413.292969" xlink:href="#f"/>
</g>
</g>
<path d="m1059.4 592.48v35.285q0 2.4 2.4 2.4h7.7425q2.4 0 2.4-2.4v-35.285q0-2.4-2.4-2.4h-7.7425q-2.4 0-2.4 2.4z" clip-path="url(#a)" fill="#fff" stroke="#fff"/>
<g clip-path="url(#a)">
<g transform="translate(1063.5 592.48) rotate(90) scale(.08 -.08)">
<use xlink:href="#k"/>
<use x="60.818359" xlink:href="#g"/>
<use x="122.341797" xlink:href="#h"/>
<use x="163.439453" xlink:href="#l"/>
<use x="260.851562" xlink:href="#i"/>
<use x="288.634766" xlink:href="#j"/>
<use x="352.013672" xlink:href="#e"/>
<use x="413.292969" xlink:href="#f"/>
</g>
</g>
<path d="m1251 592.48v35.285q0 2.4 2.4 2.4h7.7425q2.4 0 2.4-2.4v-35.285q0-2.4-2.4-2.4h-7.7425q-2.4 0-2.4 2.4z" clip-path="url(#a)" fill="#fff" stroke="#fff"/>
<g clip-path="url(#a)">
<g transform="translate(1255 592.48) rotate(90) scale(.08 -.08)">
<use xlink:href="#k"/>
<use x="60.818359" xlink:href="#g"/>
<use x="122.341797" xlink:href="#h"/>
<use x="163.439453" xlink:href="#l"/>
<use x="260.851562" xlink:href="#i"/>
<use x="288.634766" xlink:href="#j"/>
<use x="352.013672" xlink:href="#e"/>
<use x="413.292969" xlink:href="#f"/>
</g>
</g>
<defs>
<path id="b" d="m0 8.6603c2.2967 0 4.4997-0.9125 6.1237-2.5365 1.624-1.624 2.5365-3.827 2.5365-6.1237s-0.9125-4.4997-2.5365-6.1237c-1.624-1.624-3.827-2.5365-6.1237-2.5365s-4.4997 0.9125-6.1237 2.5365c-1.624 1.624-2.5365 3.827-2.5365 6.1237s0.9125 4.4997 2.5365 6.1237c1.624 1.624 3.827 2.5365 6.1237 2.5365z"/>
</defs>
<g clip-path="url(#a)">
<use x="60.105443" y="660.904816" fill="#ffffff" stroke="#ffffff" xlink:href="#b"/>
</g>
<g clip-path="url(#a)">
<use x="107.990341" y="660.904816" fill="#ffffff" stroke="#ffffff" xlink:href="#b"/>
</g>
<g clip-path="url(#a)">
<use x="155.875239" y="660.904816" fill="#ffffff" stroke="#ffffff" xlink:href="#b"/>
</g>
<g clip-path="url(#a)">
<use x="203.760137" y="660.904816" fill="#ffffff" stroke="#ffffff" xlink:href="#b"/>
</g>
<g clip-path="url(#a)">
<use x="251.645035" y="660.904816" fill="#ffffff" stroke="#ffffff" xlink:href="#b"/>
</g>
<g clip-path="url(#a)">
<use x="299.529933" y="660.904816" fill="#ffffff" stroke="#ffffff" xlink:href="#b"/>
</g>
<g clip-path="url(#a)">
<use x="347.41483" y="660.904816" fill="#ffffff" stroke="#ffffff" xlink:href="#b"/>
</g>
<g clip-path="url(#a)">
<use x="395.299728" y="660.904816" fill="#ffffff" stroke="#ffffff" xlink:href="#b"/>
</g>
<g clip-path="url(#a)">
<use x="443.184626" y="660.904816" fill="#ffffff" stroke="#ffffff" xlink:href="#b"/>
</g>
<g clip-path="url(#a)">
<use x="491.069524" y="660.904816" fill="#ffffff" stroke="#ffffff" xlink:href="#b"/>
</g>
<g clip-path="url(#a)">
<use x="538.954422" y="660.904816" fill="#ffffff" stroke="#ffffff" xlink:href="#b"/>
</g>
<g clip-path="url(#a)">
<use x="586.83932" y="660.904816" fill="#ffffff" stroke="#ffffff" xlink:href="#b"/>
</g>
<g clip-path="url(#a)">
<use x="634.724218" y="660.904816" fill="#ffffff" stroke="#ffffff" xlink:href="#b"/>
</g>
<g clip-path="url(#a)">
<use x="682.609116" y="660.904816" fill="#ffffff" stroke="#ffffff" xlink:href="#b"/>
</g>
<g clip-path="url(#a)">
<use x="730.494013" y="660.904816" fill="#ffffff" stroke="#ffffff" xlink:href="#b"/>
</g>
<g clip-path="url(#a)">
<use x="778.378911" y="660.904816" fill="#ffffff" stroke="#ffffff" xlink:href="#b"/>
</g>
<g clip-path="url(#a)">
<use x="826.263809" y="660.904816" fill="#ffffff" stroke="#ffffff" xlink:href="#b"/>
</g>
<g clip-path="url(#a)">
<use x="874.148707" y="660.904816" fill="#ffffff" stroke="#ffffff" xlink:href="#b"/>
</g>
<g clip-path="url(#a)">
<use x="922.033605" y="660.904816" fill="#ffffff" stroke="#ffffff" xlink:href="#b"/>
</g>
<g clip-path="url(#a)">
<use x="969.918503" y="660.904816" fill="#ffffff" stroke="#ffffff" xlink:href="#b"/>
</g>
<g clip-path="url(#a)">
<use x="1017.803401" y="660.904816" fill="#ffffff" stroke="#ffffff" xlink:href="#b"/>
</g>
<g clip-path="url(#a)">
<use x="1065.688299" y="660.904816" fill="#ffffff" stroke="#ffffff" xlink:href="#b"/>
</g>
<g clip-path="url(#a)">
<use x="1113.573196" y="660.904816" fill="#ffffff" stroke="#ffffff" xlink:href="#b"/>
</g>
<g clip-path="url(#a)">
<use x="1161.458094" y="660.904816" fill="#ffffff" stroke="#ffffff" xlink:href="#b"/>
</g>
<g clip-path="url(#a)">
<use x="1209.342992" y="660.904816" fill="#ffffff" stroke="#ffffff" xlink:href="#b"/>
</g>
<g clip-path="url(#a)">
<use x="1257.22789" y="660.904816" fill="#ffffff" stroke="#ffffff" xlink:href="#b"/>
</g>
<g clip-path="url(#a)">
<use x="333.472154" y="32.428517" fill="#ffffff" stroke="#ffffff" xlink:href="#b"/>
</g>
<g clip-path="url(#a)">
<use x="107.990341" y="457.784418" fill="#ffffff" stroke="#ffffff" xlink:href="#b"/>
</g>
<g clip-path="url(#a)">
<use x="203.760137" y="559.344617" fill="#ffffff" stroke="#ffffff" xlink:href="#b"/>
</g>
<g clip-path="url(#a)">
<use x="227.702586" y="354.811405" fill="#ffffff" stroke="#ffffff" xlink:href="#b"/>
</g>
<g clip-path="url(#a)">
<use x="538.954422" y="559.344617" fill="#ffffff" stroke="#ffffff" xlink:href="#b"/>
</g>
<g clip-path="url(#a)">
<use x="431.355916" y="142.508289" fill="#ffffff" stroke="#ffffff" xlink:href="#b"/>
</g>
<g clip-path="url(#a)">
<use x="610.781769" y="457.784418" fill="#ffffff" stroke="#ffffff" xlink:href="#b"/>
</g>
<g clip-path="url(#a)">
<use x="623.180537" y="249.855568" fill="#ffffff" stroke="#ffffff" xlink:href="#b"/>
</g>
<g clip-path="url(#a)">
<use x="682.609116" y="559.344617" fill="#ffffff" stroke="#ffffff" xlink:href="#b"/>
</g>
<g clip-path="url(#a)">
<use x="730.494013" y="559.344617" fill="#ffffff" stroke="#ffffff" xlink:href="#b"/>
</g>
<g clip-path="url(#a)">
<use x="1019.513576" y="354.811405" fill="#ffffff" stroke="#ffffff" xlink:href="#b"/>
</g>
<g clip-path="url(#a)">
<use x="778.378911" y="559.344617" fill="#ffffff" stroke="#ffffff" xlink:href="#b"/>
</g>
<g clip-path="url(#a)">
<use x="886.119932" y="457.784418" fill="#ffffff" stroke="#ffffff" xlink:href="#b"/>
</g>
<g clip-path="url(#a)">
<use x="969.918503" y="559.344617" fill="#ffffff" stroke="#ffffff" xlink:href="#b"/>
</g>
<g clip-path="url(#a)">
<use x="1017.803401" y="559.344617" fill="#ffffff" stroke="#ffffff" xlink:href="#b"/>
</g>
<g clip-path="url(#a)">
<use x="1161.458094" y="559.344617" fill="#ffffff" stroke="#ffffff" xlink:href="#b"/>
</g>
<g clip-path="url(#a)">
<use x="850.206258" y="559.344617" fill="#ffffff" stroke="#ffffff" xlink:href="#b"/>
</g>
<g clip-path="url(#a)">
<use x="922.033605" y="559.344617" fill="#ffffff" stroke="#ffffff" xlink:href="#b"/>
</g>
<g clip-path="url(#a)">
<use x="586.83932" y="559.344617" fill="#ffffff" stroke="#ffffff" xlink:href="#b"/>
</g>
<g clip-path="url(#a)">
<use x="634.724218" y="559.344617" fill="#ffffff" stroke="#ffffff" xlink:href="#b"/>
</g>
<g clip-path="url(#a)">
<use x="251.645035" y="559.344617" fill="#ffffff" stroke="#ffffff" xlink:href="#b"/>
</g>
<g clip-path="url(#a)">
<use x="371.357279" y="457.784418" fill="#ffffff" stroke="#ffffff" xlink:href="#b"/>
</g>
<g clip-path="url(#a)">
<use x="299.529933" y="559.344617" fill="#ffffff" stroke="#ffffff" xlink:href="#b"/>
</g>
<g clip-path="url(#a)">
<use x="347.41483" y="559.344617" fill="#ffffff" stroke="#ffffff" xlink:href="#b"/>
</g>
<g clip-path="url(#a)">
<use x="395.299728" y="559.344617" fill="#ffffff" stroke="#ffffff" xlink:href="#b"/>
</g>
<g clip-path="url(#a)">
<use x="443.184626" y="559.344617" fill="#ffffff" stroke="#ffffff" xlink:href="#b"/>
</g>
<g clip-path="url(#a)">
<use x="60.105443" y="559.344617" fill="#ffffff" stroke="#ffffff" xlink:href="#b"/>
</g>
<g clip-path="url(#a)">
<use x="107.990341" y="559.344617" fill="#ffffff" stroke="#ffffff" xlink:href="#b"/>
</g>
<g clip-path="url(#a)">
<use x="155.875239" y="559.344617" fill="#ffffff" stroke="#ffffff" xlink:href="#b"/>
</g>
<g clip-path="url(#a)">
<use x="326.500816" y="32.428517" fill="#808080" stroke="#808080" xlink:href="#b"/>
</g>
<g clip-path="url(#a)">
<use x="179.817688" y="249.855568" fill="#808080" stroke="#808080" xlink:href="#b"/>
</g>
<g clip-path="url(#a)">
<use x="491.069524" y="559.344617" fill="#ffffff" stroke="#ffffff" xlink:href="#b"/>
</g>
<g clip-path="url(#a)">
<use x="1065.688299" y="559.344617" fill="#ffffff" stroke="#ffffff" xlink:href="#b"/>
</g>
<g clip-path="url(#a)">
<use x="1257.22789" y="559.344617" fill="#ffffff" stroke="#ffffff" xlink:href="#b"/>
</g>
<g clip-path="url(#a)">
<defs>
<path id="aj" d="m53.516 70.516v-9.625q-5.6094 2.6875-10.594 4-4.9844 1.3281-9.625 1.3281-8.0469 0-12.422-3.125t-4.375-8.8906q0-4.8438 2.9062-7.3125 2.9062-2.4531 11.016-3.9688l5.9531-1.2188q11.031-2.1094 16.281-7.4062t5.25-14.172q0-10.609-7.1094-16.078-7.0938-5.4688-20.812-5.4688-5.1719 0-11.016 1.1719-5.8281 1.1719-12.078 3.4688v10.156q6-3.3594 11.766-5.0781 5.7656-1.7031 11.328-1.7031 8.4375 0 13.031 3.3125 4.5938 3.3281 4.5938 9.4844 0 5.3594-3.2969 8.3906t-10.812 4.5469l-6.0156 1.1719q-11.031 2.1875-15.969 6.875-4.9219 4.6875-4.9219 13.047 0 9.6719 6.8125 15.234t18.766 5.5625q5.1406 0 10.453-0.9375 5.3281-0.92188 10.891-2.7656z"/>
<path id="v" d="m54.891 33.016v-33.016h-8.9844v32.719q0 7.7656-3.0312 11.609-3.0312 3.8594-9.0781 3.8594-7.2812 0-11.484-4.6406-4.2031-4.625-4.2031-12.641v-30.906h-9.0312v75.984h9.0312v-29.797q3.2344 4.9375 7.5938 7.375 4.375 2.4375 10.094 2.4375 9.4219 0 14.25-5.8281 4.8438-5.8281 4.8438-17.156z"/>
</defs>
<g transform="translate(50.686 663.66) scale(.1 -.1)">
<use xlink:href="#aj"/>
<use x="63.476562" xlink:href="#v"/>
<use x="126.855469" xlink:href="#g"/>
</g>
</g>
<g clip-path="url(#a)">
<defs>
<path id="ao" d="m37.109 75.984v-7.4844h-8.5938q-4.8281 0-6.7188-1.9531-1.875-1.9531-1.875-7.0312v-4.8281h14.797v-6.9844h-14.797v-47.703h-9.0312v47.703h-8.5938v6.9844h8.5938v3.8125q0 9.125 4.25 13.297 4.25 4.1875 13.469 4.1875z"/>
<path id="r" d="m18.312 70.219v-15.531h18.5v-6.9844h-18.5v-29.688q0-6.6875 1.8281-8.5938t7.4531-1.9062h9.2188v-7.5156h-9.2188q-10.406 0-14.359 3.875-3.9531 3.8906-3.9531 14.141v29.688h-6.5938v6.9844h6.5938v15.531z"/>
</defs>
<g transform="translate(99.805 663.66) scale(.1 -.1)">
<use xlink:href="#f"/>
<use x="27.783203" xlink:href="#g"/>
<use x="89.306641" xlink:href="#ao"/>
<use x="124.496094" xlink:href="#r"/>
</g>
</g>
<g clip-path="url(#a)">
<defs>
<path id="p" d="m30.609 48.391q-7.2188 0-11.422-5.6406t-4.2031-15.453 4.1719-15.453q4.1875-5.6406 11.453-5.6406 7.1875 0 11.375 5.6562 4.2031 5.6719 4.2031 15.438 0 9.7188-4.2031 15.406-4.1875 5.6875-11.375 5.6875zm0 7.6094q11.719 0 18.406-7.625 6.7031-7.6094 6.7031-21.078 0-13.422-6.7031-21.078-6.6875-7.6406-18.406-7.6406-11.766 0-18.438 7.6406-6.6562 7.6562-6.6562 21.078 0 13.469 6.6562 21.078 6.6719 7.625 18.438 7.625z"/>
<path id="ab" d="m32.172-5.0781q-3.7969-9.7656-7.4219-12.734-3.6094-2.9844-9.6562-2.9844h-7.1875v7.5156h5.2812q3.7031 0 5.75 1.7656 2.0625 1.75 4.5469 8.2969l1.6094 4.0938-22.109 53.812h9.5156l17.094-42.766 17.094 42.766h9.5156z"/>
<path id="am" d="m4.2031 54.688h8.9844l11.234-42.672 11.172 42.672h10.594l11.234-42.672 11.188 42.672h8.9844l-14.312-54.688h-10.594l-11.766 44.828-11.812-44.828h-10.609z"/>
<path id="ae" d="m45.406 46.391v29.594h8.9844v-75.984h-8.9844v8.2031q-2.8281-4.875-7.1562-7.25-4.3125-2.375-10.375-2.375-9.9062 0-16.141 7.9062-6.2188 7.9219-6.2188 20.812t6.2188 20.797q6.2344 7.9062 16.141 7.9062 6.0625 0 10.375-2.375 4.3281-2.3594 7.1562-7.2344zm-30.609-19.094q0-9.9062 4.0781-15.547t11.203-5.6406 11.219 5.6406q4.1094 5.6406 4.1094 15.547t-4.1094 15.547q-4.0938 5.6406-11.219 5.6406t-11.203-5.6406-4.0781-15.547z"/>
</defs>
<g transform="translate(129.94 663.66) scale(.1 -.1)">
<use xlink:href="#w"/>
<use x="75.195312" xlink:href="#p"/>
<use x="136.376953" xlink:href="#f"/>
<use x="164.160156" xlink:href="#f"/>
<use x="191.943359" xlink:href="#ab"/>
<use x="251.123047" xlink:href="#am"/>
<use x="332.910156" xlink:href="#p"/>
<use x="394.091797" xlink:href="#p"/>
<use x="455.273438" xlink:href="#ae"/>
</g>
</g>
<g clip-path="url(#a)">
<g transform="translate(198.74 663.66) scale(.1 -.1)">
<use xlink:href="#r"/>
<use x="39.208984" xlink:href="#p"/>
</g>
</g>
<g clip-path="url(#a)">
<defs>
<path id="as" d="m9.0781 75.984h9.0312v-44.875l26.812 23.578h11.469l-29-25.578 30.234-29.109h-11.719l-27.797 26.703v-26.703h-9.0312z"/>
</defs>
<g transform="translate(241.24 663.66) scale(.1 -.1)">
<use xlink:href="#f"/>
<use x="27.783203" xlink:href="#p"/>
<use x="88.964844" xlink:href="#p"/>
<use x="150.146484" xlink:href="#as"/>
</g>
</g>
<g clip-path="url(#a)">
<g transform="translate(292.65 663.66) scale(.1 -.1)">
<use xlink:href="#ao"/>
<use x="35.205078" xlink:href="#p"/>
<use x="96.386719" xlink:href="#h"/>
</g>
</g>
<g clip-path="url(#a)">
<g transform="translate(344.35 663.66) scale(.1 -.1)">
<use xlink:href="#e"/>
</g>
</g>
<g clip-path="url(#a)">
<defs>
<path id="ac" d="m44.281 53.078v-8.5q-3.7969 1.9531-7.9062 2.9219-4.0938 0.98438-8.5 0.98438-6.6875 0-10.031-2.0469t-3.3438-6.1562q0-3.125 2.3906-4.9062t9.625-3.3906l3.0781-0.6875q9.5625-2.0469 13.594-5.7812t4.0312-10.422q0-7.625-6.0312-12.078-6.0312-4.4375-16.578-4.4375-4.3906 0-9.1562 0.85938t-10.031 2.5625v9.2812q4.9844-2.5938 9.8125-3.8906 4.8281-1.2812 9.5781-1.2812 6.3438 0 9.75 2.1719 3.4219 2.1719 3.4219 6.125 0 3.6562-2.4688 5.6094-2.4531 1.9531-10.812 3.7656l-3.125 0.73438q-8.3438 1.75-12.062 5.3906-3.7031 3.6406-3.7031 9.9844 0 7.7188 5.4688 11.906 5.4688 4.2031 15.531 4.2031 4.9688 0 9.3594-0.73438 4.4062-0.71875 8.1094-2.1875z"/>
<path id="an" d="m45.406 27.984q0 9.7656-4.0312 15.125-4.0156 5.375-11.297 5.375-7.2188 0-11.25-5.375-4.0312-5.3594-4.0312-15.125 0-9.7188 4.0312-15.094t11.25-5.375q7.2812 0 11.297 5.375 4.0312 5.375 4.0312 15.094zm8.9844-21.203q0-13.953-6.2031-20.766-6.1875-6.8125-18.984-6.8125-4.7344 0-8.9375 0.70312t-8.1562 2.1719v8.7344q3.9531-2.1406 7.8125-3.1562 3.8594-1.0312 7.8594-1.0312 8.8438 0 13.234 4.6094t4.3906 13.938v4.4531q-2.7812-4.8438-7.125-7.2344t-10.406-2.3906q-10.047 0-16.203 7.6562-6.1562 7.6719-6.1562 20.328 0 12.688 6.1562 20.344 6.1562 7.6719 16.203 7.6719 6.0625 0 10.406-2.3906t7.125-7.2188v8.2969h8.9844z"/>
</defs>
<g transform="translate(381.42 663.66) scale(.1 -.1)">
<use xlink:href="#ac"/>
<use x="52.099609" xlink:href="#r"/>
<use x="91.308594" xlink:href="#e"/>
<use x="152.587891" xlink:href="#an"/>
<use x="216.064453" xlink:href="#g"/>
</g>
</g>
<g clip-path="url(#a)">
<defs>
<path id="ad" d="m18.109 8.2031v-29h-9.0312v75.484h9.0312v-8.2969q2.8438 4.875 7.1562 7.2344 4.3281 2.375 10.328 2.375 9.9688 0 16.188-7.9062 6.2344-7.9062 6.2344-20.797t-6.2344-20.812q-6.2188-7.9062-16.188-7.9062-6 0-10.328 2.375-4.3125 2.375-7.1562 7.25zm30.578 19.094q0 9.9062-4.0781 15.547t-11.203 5.6406q-7.1406 0-11.219-5.6406t-4.0781-15.547 4.0781-15.547 11.219-5.6406q7.125 0 11.203 5.6406t4.0781 15.547z"/>
<path id="at" d="m9.4219 54.688h8.9844v-55.672q0-10.438-3.9844-15.125-3.9688-4.6875-12.812-4.6875h-3.4219v7.6094h2.4062q5.125 0 6.9688 2.375 1.8594 2.3594 1.8594 9.8281zm0 21.297h8.9844v-11.391h-8.9844z"/>
<path id="ap" d="m48.781 52.594v-8.4062q-3.8125 2.1094-7.6406 3.1562t-7.7344 1.0469q-8.75 0-13.594-5.5469-4.8281-5.5312-4.8281-15.547t4.8281-15.562q4.8438-5.5312 13.594-5.5312 3.9062 0 7.7344 1.0469t7.6406 3.1562v-8.3125q-3.7656-1.75-7.7969-2.625-4.0156-0.89062-8.5625-0.89062-12.359 0-19.641 7.7656-7.2656 7.7656-7.2656 20.953 0 13.375 7.3438 21.031 7.3594 7.6719 20.156 7.6719 4.1406 0 8.0938-0.85938 3.9531-0.84375 7.6719-2.5469z"/>
</defs>
<g transform="translate(425.72 663.66) scale(.1 -.1)">
<use xlink:href="#ad"/>
<use x="63.476562" xlink:href="#h"/>
<use x="104.558594" xlink:href="#p"/>
<use x="165.740234" xlink:href="#at"/>
<use x="193.523438" xlink:href="#g"/>
<use x="255.046875" xlink:href="#ap"/>
<use x="310.027344" xlink:href="#r"/>
</g>
</g>
<g clip-path="url(#a)">
<defs>
<path id="al" d="m11.719 12.406h10.297v-8.4062l-8-15.625h-6.2969l4 15.625z"/>
</defs>
<g transform="translate(489.48 663.66) scale(.1 -.1)">
<use xlink:href="#al"/>
</g>
</g>
<g clip-path="url(#a)">
<g transform="translate(529.55 663.66) scale(.1 -.1)">
<use xlink:href="#e"/>
<use x="61.279297" xlink:href="#j"/>
<use x="124.658203" xlink:href="#ae"/>
</g>
</g>
<g clip-path="url(#a)">
<g transform="translate(570.25 663.66) scale(.1 -.1)">
<use xlink:href="#ac"/>
<use x="52.099609" xlink:href="#i"/>
<use x="79.882812" xlink:href="#an"/>
<use x="143.359375" xlink:href="#j"/>
<use x="206.738281" xlink:href="#g"/>
<use x="268.261719" xlink:href="#ae"/>
</g>
</g>
<g clip-path="url(#a)">
<g transform="translate(628.5 663.66) scale(.1 -.1)">
<use xlink:href="#p"/>
<use x="61.181641" xlink:href="#j"/>
</g>
</g>
<g clip-path="url(#a)">
<g transform="translate(677.59 663.66) scale(.1 -.1)">
<use xlink:href="#r"/>
<use x="39.208984" xlink:href="#p"/>
</g>
</g>
<g clip-path="url(#a)">
<g transform="translate(720.81 663.66) scale(.1 -.1)">
<use xlink:href="#ac"/>
<use x="52.099609" xlink:href="#r"/>
<use x="91.308594" xlink:href="#e"/>
<use x="152.587891" xlink:href="#h"/>
</g>
</g>
<g clip-path="url(#a)">
<g transform="translate(773.82 663.66) scale(.1 -.1)">
<use xlink:href="#i"/>
<use x="27.783203" xlink:href="#j"/>
</g>
</g>
<g clip-path="url(#a)">
<g transform="translate(812.74 663.66) scale(.1 -.1)">
<use xlink:href="#t"/>
<use x="60.302734" xlink:href="#v"/>
<use x="123.681641" xlink:href="#i"/>
<use x="151.464844" xlink:href="#f"/>
<use x="179.248047" xlink:href="#i"/>
<use x="207.03125" xlink:href="#ad"/>
</g>
</g>
<g clip-path="url(#a)">
<defs>
<path id="aq" d="m19.672 34.812v-26.703h15.828q7.9531 0 11.781 3.2969 3.8438 3.2969 3.8438 10.078 0 6.8438-3.8438 10.078-3.8281 3.25-11.781 3.25zm0 29.984v-21.969h14.609q7.2188 0 10.75 2.7031 3.5469 2.7188 3.5469 8.2812 0 5.5156-3.5469 8.25-3.5312 2.7344-10.75 2.7344zm-9.8594 8.1094h25.203q11.281 0 17.375-4.6875 6.1094-4.6875 6.1094-13.328 0-6.7031-3.125-10.656t-9.1875-4.9219q7.2812-1.5625 11.312-6.5312 4.0312-4.9531 4.0312-12.375 0-9.7656-6.6406-15.094-6.6406-5.3125-18.906-5.3125h-26.172z"/>
</defs>
<g transform="translate(860.58 663.66) scale(.1 -.1)">
<use xlink:href="#aq"/>
<use x="68.603516" xlink:href="#e"/>
<use x="129.882812" xlink:href="#h"/>
<use x="170.980469" xlink:href="#h"/>
<use x="212.09375" xlink:href="#ab"/>
</g>
</g>
<g clip-path="url(#a)">
<defs>
<path id="ar" d="m17.922 72.906v-27.109h-8.2969v27.109z"/>
</defs>
<g transform="translate(918.05 663.66) scale(.1 -.1)">
<use xlink:href="#ar"/>
<use x="27.490234" xlink:href="#ac"/>
</g>
</g>
<g clip-path="url(#a)">
<g transform="translate(959.58 663.66) scale(.1 -.1)">
<use xlink:href="#j"/>
<use x="63.378906" xlink:href="#g"/>
<use x="124.902344" xlink:href="#am"/>
</g>
</g>
<g clip-path="url(#a)">
<g transform="translate(1007.2 663.66) scale(.1 -.1)">
<use xlink:href="#ad"/>
<use x="63.476562" xlink:href="#f"/>
<use x="91.259766" xlink:href="#e"/>
<use x="152.539062" xlink:href="#ab"/>
</g>
</g>
<g clip-path="url(#a)">
<g transform="translate(1064.1 663.66) scale(.1 -.1)">
<use xlink:href="#al"/>
</g>
</g>
<g clip-path="url(#a)">
<g transform="translate(1104.3 663.66) scale(.1 -.1)">
<use xlink:href="#k"/>
<use x="61.083984" xlink:href="#v"/>
<use x="124.462891" xlink:href="#g"/>
</g>
</g>
<g clip-path="url(#a)">
<g transform="translate(1131 663.66) scale(.1 -.1)">
<use xlink:href="#t"/>
<use x="60.302734" xlink:href="#v"/>
<use x="123.681641" xlink:href="#i"/>
<use x="151.464844" xlink:href="#f"/>
<use x="179.248047" xlink:href="#e"/>
<use x="240.527344" xlink:href="#ae"/>
<use x="304.003906" xlink:href="#g"/>
<use x="365.527344" xlink:href="#f"/>
<use x="393.310547" xlink:href="#ad"/>
<use x="456.787109" xlink:href="#v"/>
<use x="520.166016" xlink:href="#i"/>
<use x="547.949219" xlink:href="#e"/>
</g>
</g>
<g clip-path="url(#a)">
<g transform="translate(1196.1 663.66) scale(.1 -.1)">
<use xlink:href="#aj"/>
<use x="63.476562" xlink:href="#r"/>
<use x="102.685547" xlink:href="#p"/>
<use x="163.867188" xlink:href="#h"/>
<use x="204.980469" xlink:href="#ab"/>
</g>
</g>
<g clip-path="url(#a)">
<defs>
<path id="d" d="m10.688 12.406h10.312v-12.406h-10.312z"/>
</defs>
<g transform="translate(1255.6 663.66) scale(.1 -.1)">
<use xlink:href="#d"/>
</g>
</g>
<g clip-path="url(#a)">
<defs>
<path id="c" d="m12.406 8.2969h16.109v55.625l-17.531-3.5156v8.9844l17.438 3.5156h9.8594v-64.609h16.109v-8.2969h-41.984z"/>
</defs>
<g transform="translate(325.52 35.188) scale(.1 -.1)">
<use xlink:href="#c"/>
<use x="63.623047" xlink:href="#d"/>
<use x="95.410156" xlink:href="#c"/>
</g>
</g>
<g clip-path="url(#a)">
<defs>
<path id="n" d="m19.188 8.2969h34.422v-8.2969h-46.281v8.2969q5.6094 5.8125 15.297 15.594 9.7031 9.7969 12.188 12.641 4.7344 5.3125 6.6094 9 1.8906 3.6875 1.8906 7.25 0 5.8125-4.0781 9.4688-4.0781 3.6719-10.625 3.6719-4.6406 0-9.7969-1.6094-5.1406-1.6094-11-4.8906v9.9688q5.9531 2.3906 11.125 3.6094 5.1875 1.2188 9.4844 1.2188 11.328 0 18.062-5.6719 6.7344-5.6562 6.7344-15.125 0-4.5-1.6875-8.5312-1.6719-4.0156-6.125-9.4844-1.2188-1.4219-7.7656-8.1875-6.5312-6.7656-18.453-18.922z"/>
</defs>
<g transform="translate(100.04 460.54) scale(.1 -.1)">
<use xlink:href="#c"/>
<use x="63.623047" xlink:href="#d"/>
<use x="95.410156" xlink:href="#n"/>
</g>
</g>
<g clip-path="url(#a)">
<defs>
<path id="o" d="m40.578 39.312q7.0781-1.5156 11.047-6.3125 3.9844-4.7812 3.9844-11.812 0-10.781-7.4219-16.703-7.4219-5.9062-21.094-5.9062-4.5781 0-9.4375 0.90625t-10.031 2.7188v9.5156q4.0938-2.3906 8.9688-3.6094 4.8906-1.2188 10.219-1.2188 9.2656 0 14.125 3.6562t4.8594 10.641q0 6.4531-4.5156 10.078-4.5156 3.6406-12.562 3.6406h-8.5v8.1094h8.8906q7.2656 0 11.125 2.9062t3.8594 8.375q0 5.6094-3.9844 8.6094-3.9688 3.0156-11.391 3.0156-4.0625 0-8.7031-0.89062-4.6406-0.875-10.203-2.7188v8.7812q5.625 1.5625 10.531 2.3438t9.25 0.78125q11.234 0 17.766-5.1094 6.5469-5.0938 6.5469-13.781 0-6.0625-3.4688-10.234t-9.8594-5.7812z"/>
</defs>
<g transform="translate(195.81 562.1) scale(.1 -.1)">
<use xlink:href="#c"/>
<use x="63.623047" xlink:href="#d"/>
<use x="95.410156" xlink:href="#o"/>
</g>
</g>
<g clip-path="url(#a)">
<defs>
<path id="aa" d="m37.797 64.312-24.906-38.922h24.906zm-2.5938 8.5938h12.406v-47.516h10.406v-8.2031h-10.406v-17.188h-9.8125v17.188h-32.906v9.5156z"/>
</defs>
<g transform="translate(219.75 357.57) scale(.1 -.1)">
<use xlink:href="#c"/>
<use x="63.623047" xlink:href="#d"/>
<use x="95.410156" xlink:href="#aa"/>
</g>
</g>
<g clip-path="url(#a)">
<defs>
<path id="z" d="m33.016 40.375q-6.6406 0-10.531-4.5469-3.875-4.5312-3.875-12.438 0-7.8594 3.875-12.438 3.8906-4.5625 10.531-4.5625t10.516 4.5625q3.875 4.5781 3.875 12.438 0 7.9062-3.875 12.438-3.875 4.5469-10.516 4.5469zm19.578 30.922v-8.9844q-3.7188 1.75-7.5 2.6719-3.7812 0.9375-7.5 0.9375-9.7656 0-14.922-6.5938-5.1406-6.5938-5.875-19.922 2.875 4.25 7.2188 6.5156 4.3594 2.2656 9.5781 2.2656 10.984 0 17.359-6.6719 6.375-6.6562 6.375-18.125 0-11.234-6.6406-18.031-6.6406-6.7812-17.672-6.7812-12.656 0-19.344 9.6875-6.6875 9.7031-6.6875 28.109 0 17.281 8.2031 27.562t22.016 10.281q3.7188 0 7.5-0.73438t7.8906-2.1875z"/>
</defs>
<g transform="translate(531 562.1) scale(.1 -.1)">
<use xlink:href="#c"/>
<use x="63.623047" xlink:href="#d"/>
<use x="95.410156" xlink:href="#z"/>
</g>
</g>
<g clip-path="url(#a)">
<defs>
<path id="y" d="m8.2031 72.906h46.875v-4.2031l-26.469-68.703h-10.297l24.906 64.594h-35.016z"/>
</defs>
<g transform="translate(423.4 145.27) scale(.1 -.1)">
<use xlink:href="#c"/>
<use x="63.623047" xlink:href="#d"/>
<use x="95.410156" xlink:href="#y"/>
</g>
</g>
<g clip-path="url(#a)">
<defs>
<path id="ak" d="m31.781 34.625q-7.0312 0-11.062-3.7656-4.0156-3.7656-4.0156-10.344 0-6.5938 4.0156-10.359 4.0312-3.7656 11.062-3.7656t11.078 3.7812q4.0625 3.7969 4.0625 10.344 0 6.5781-4.0312 10.344-4.0156 3.7656-11.109 3.7656zm-9.8594 4.1875q-6.3438 1.5625-9.8906 5.9062-3.5312 4.3594-3.5312 10.609 0 8.7344 6.2188 13.812 6.2344 5.0781 17.062 5.0781 10.891 0 17.094-5.0781t6.2031-13.812q0-6.25-3.5469-10.609-3.5312-4.3438-9.8281-5.9062 7.125-1.6562 11.094-6.5 3.9844-4.8281 3.9844-11.797 0-10.609-6.4688-16.281-6.4688-5.6562-18.531-5.6562-12.047 0-18.531 5.6562-6.4688 5.6719-6.4688 16.281 0 6.9688 4 11.797 4.0156 4.8438 11.141 6.5zm-3.6094 15.578q0-5.6562 3.5312-8.8281 3.5469-3.1719 9.9375-3.1719 6.3594 0 9.9375 3.1719 3.5938 3.1719 3.5938 8.8281 0 5.6719-3.5938 8.8438-3.5781 3.1719-9.9375 3.1719-6.3906 0-9.9375-3.1719-3.5312-3.1719-3.5312-8.8438z"/>
</defs>
<g transform="translate(602.83 460.54) scale(.1 -.1)">
<use xlink:href="#c"/>
<use x="63.623047" xlink:href="#d"/>
<use x="95.410156" xlink:href="#ak"/>
</g>
</g>
<g clip-path="url(#a)">
<defs>
<path id="ag" d="m10.984 1.5156v8.9844q3.7188-1.7656 7.5156-2.6875 3.8125-0.92188 7.4844-0.92188 9.7656 0 14.906 6.5625 5.1562 6.5625 5.8906 19.953-2.8281-4.2031-7.1875-6.4531-4.3438-2.25-9.6094-2.25-10.938 0-17.312 6.6094-6.375 6.625-6.375 18.109 0 11.219 6.6406 18 6.6406 6.7969 17.672 6.7969 12.656 0 19.312-9.7031 6.6719-9.6875 6.6719-28.141 0-17.234-8.1875-27.516-8.1719-10.281-21.984-10.281-3.7188 0-7.5312 0.73438-3.7969 0.73438-7.9062 2.2031zm19.625 30.906q6.6406 0 10.516 4.5312 3.8906 4.5469 3.8906 12.469 0 7.8594-3.8906 12.422-3.875 4.5625-10.516 4.5625t-10.516-4.5625-3.875-12.422q0-7.9219 3.875-12.469 3.875-4.5312 10.516-4.5312z"/>
</defs>
<g transform="translate(615.23 252.61) scale(.1 -.1)">
<use xlink:href="#c"/>
<use x="63.623047" xlink:href="#d"/>
<use x="95.410156" xlink:href="#ag"/>
</g>
</g>
<g clip-path="url(#a)">
<defs>
<path id="ai" d="m31.781 66.406q-7.6094 0-11.453-7.5-3.8281-7.4844-3.8281-22.531 0-14.984 3.8281-22.484 3.8438-7.5 11.453-7.5 7.6719 0 11.5 7.5 3.8438 7.5 3.8438 22.484 0 15.047-3.8438 22.531-3.8281 7.5-11.5 7.5zm0 7.8125q12.266 0 18.734-9.7031 6.4688-9.6875 6.4688-28.141 0-18.406-6.4688-28.109-6.4688-9.6875-18.734-9.6875-12.25 0-18.719 9.6875-6.4688 9.7031-6.4688 28.109 0 18.453 6.4688 28.141 6.4688 9.7031 18.719 9.7031z"/>
</defs>
<g transform="translate(671.48 562.1) scale(.1 -.1)">
<use xlink:href="#c"/>
<use x="63.623047" xlink:href="#d"/>
<use x="95.410156" xlink:href="#c"/>
<use x="159.033203" xlink:href="#ai"/>
</g>
</g>
<g clip-path="url(#a)">
<g transform="translate(719.36 562.1) scale(.1 -.1)">
<use xlink:href="#c"/>
<use x="63.623047" xlink:href="#d"/>
<use x="95.410156" xlink:href="#c"/>
<use x="159.033203" xlink:href="#c"/>
</g>
</g>
<g clip-path="url(#a)">
<g transform="translate(1008.4 357.57) scale(.1 -.1)">
<use xlink:href="#c"/>
<use x="63.623047" xlink:href="#d"/>
<use x="95.410156" xlink:href="#c"/>
<use x="159.033203" xlink:href="#n"/>
</g>
</g>
<g clip-path="url(#a)">
<g transform="translate(767.25 562.1) scale(.1 -.1)">
<use xlink:href="#c"/>
<use x="63.623047" xlink:href="#d"/>
<use x="95.410156" xlink:href="#c"/>
<use x="159.033203" xlink:href="#aa"/>
</g>
</g>
<g clip-path="url(#a)">
<defs>
<path id="ah" d="m10.797 72.906h38.719v-8.3125h-29.688v-17.859q2.1406 0.73438 4.2812 1.0938 2.1562 0.35938 4.3125 0.35938 12.203 0 19.328-6.6875 7.1406-6.6875 7.1406-18.109 0-11.766-7.3281-18.297-7.3281-6.5156-20.656-6.5156-4.5938 0-9.3594 0.78125-4.75 0.78125-9.8281 2.3438v9.9219q4.3906-2.3906 9.0781-3.5625t9.9062-1.1719q8.4531 0 13.375 4.4375 4.9375 4.4375 4.9375 12.062 0 7.6094-4.9375 12.047-4.9219 4.4531-13.375 4.4531-3.9531 0-7.8906-0.875-3.9219-0.875-8.0156-2.7344z"/>
</defs>
<g transform="translate(874.99 460.54) scale(.1 -.1)">
<use xlink:href="#c"/>
<use x="63.623047" xlink:href="#d"/>
<use x="95.410156" xlink:href="#c"/>
<use x="159.033203" xlink:href="#ah"/>
</g>
</g>
<g clip-path="url(#a)">
<g transform="translate(958.79 562.1) scale(.1 -.1)">
<use xlink:href="#c"/>
<use x="63.623047" xlink:href="#d"/>
<use x="95.410156" xlink:href="#c"/>
<use x="159.033203" xlink:href="#z"/>
</g>
</g>
<g clip-path="url(#a)">
<g transform="translate(1006.7 562.1) scale(.1 -.1)">
<use xlink:href="#c"/>
<use x="63.623047" xlink:href="#d"/>
<use x="95.410156" xlink:href="#c"/>
<use x="159.033203" xlink:href="#y"/>
</g>
</g>
<g clip-path="url(#a)">
<g transform="translate(1150.3 562.1) scale(.1 -.1)">
<use xlink:href="#c"/>
<use x="63.623047" xlink:href="#d"/>
<use x="95.410156" xlink:href="#c"/>
<use x="159.033203" xlink:href="#ag"/>
</g>
</g>
<g clip-path="url(#a)">
<g transform="translate(839.07 562.1) scale(.1 -.1)">
<use xlink:href="#c"/>
<use x="63.623047" xlink:href="#d"/>
<use x="95.410156" xlink:href="#n"/>
<use x="159.033203" xlink:href="#ai"/>
</g>
</g>
<g clip-path="url(#a)">
<g transform="translate(910.9 562.1) scale(.1 -.1)">
<use xlink:href="#c"/>
<use x="63.623047" xlink:href="#d"/>
<use x="95.410156" xlink:href="#n"/>
<use x="159.033203" xlink:href="#c"/>
</g>
</g>
<g clip-path="url(#a)">
<g transform="translate(575.71 562.1) scale(.1 -.1)">
<use xlink:href="#c"/>
<use x="63.623047" xlink:href="#d"/>
<use x="95.410156" xlink:href="#n"/>
<use x="159.033203" xlink:href="#n"/>
</g>
</g>
<g clip-path="url(#a)">
<g transform="translate(623.59 562.1) scale(.1 -.1)">
<use xlink:href="#c"/>
<use x="63.623047" xlink:href="#d"/>
<use x="95.410156" xlink:href="#n"/>
<use x="159.033203" xlink:href="#o"/>
</g>
</g>
<g clip-path="url(#a)">
<g transform="translate(240.51 562.1) scale(.1 -.1)">
<use xlink:href="#c"/>
<use x="63.623047" xlink:href="#d"/>
<use x="95.410156" xlink:href="#n"/>
<use x="159.033203" xlink:href="#aa"/>
</g>
</g>
<g clip-path="url(#a)">
<g transform="translate(360.22 460.54) scale(.1 -.1)">
<use xlink:href="#c"/>
<use x="63.623047" xlink:href="#d"/>
<use x="95.410156" xlink:href="#n"/>
<use x="159.033203" xlink:href="#ah"/>
</g>
</g>
<g clip-path="url(#a)">
<g transform="translate(288.4 562.1) scale(.1 -.1)">
<use xlink:href="#c"/>
<use x="63.623047" xlink:href="#d"/>
<use x="95.410156" xlink:href="#n"/>
<use x="159.033203" xlink:href="#z"/>
</g>
</g>
<g clip-path="url(#a)">
<g transform="translate(336.28 562.1) scale(.1 -.1)">
<use xlink:href="#c"/>
<use x="63.623047" xlink:href="#d"/>
<use x="95.410156" xlink:href="#n"/>
<use x="159.033203" xlink:href="#y"/>
</g>
</g>
<g clip-path="url(#a)">
<g transform="translate(384.17 562.1) scale(.1 -.1)">
<use xlink:href="#c"/>
<use x="63.623047" xlink:href="#d"/>
<use x="95.410156" xlink:href="#n"/>
<use x="159.033203" xlink:href="#ag"/>
</g>
</g>
<g clip-path="url(#a)">
<g transform="translate(432.05 562.1) scale(.1 -.1)">
<use xlink:href="#c"/>
<use x="63.623047" xlink:href="#d"/>
<use x="95.410156" xlink:href="#o"/>
<use x="159.033203" xlink:href="#ai"/>
</g>
</g>
<g clip-path="url(#a)">
<g transform="translate(48.973 562.1) scale(.1 -.1)">
<use xlink:href="#c"/>
<use x="63.623047" xlink:href="#d"/>
<use x="95.410156" xlink:href="#o"/>
<use x="159.033203" xlink:href="#c"/>
</g>
</g>
<g clip-path="url(#a)">
<g transform="translate(96.858 562.1) scale(.1 -.1)">
<use xlink:href="#c"/>
<use x="63.623047" xlink:href="#d"/>
<use x="95.410156" xlink:href="#o"/>
<use x="159.033203" xlink:href="#n"/>
</g>
</g>
<g clip-path="url(#a)">
<g transform="translate(144.74 562.1) scale(.1 -.1)">
<use xlink:href="#c"/>
<use x="63.623047" xlink:href="#d"/>
<use x="95.410156" xlink:href="#o"/>
<use x="159.033203" xlink:href="#o"/>
</g>
</g>
<g clip-path="url(#a)">
<g transform="translate(315.37 35.188) scale(.1 -.1)">
<use xlink:href="#c"/>
<use x="63.623047" xlink:href="#d"/>
<use x="95.410156" xlink:href="#o"/>
<use x="159.033203" xlink:href="#aa"/>
</g>
</g>
<g clip-path="url(#a)">
<g transform="translate(168.68 252.61) scale(.1 -.1)">
<use xlink:href="#c"/>
<use x="63.623047" xlink:href="#d"/>
<use x="95.410156" xlink:href="#o"/>
<use x="159.033203" xlink:href="#ah"/>
</g>
</g>
<g clip-path="url(#a)">
<g transform="translate(479.94 562.1) scale(.1 -.1)">
<use xlink:href="#c"/>
<use x="63.623047" xlink:href="#d"/>
<use x="95.410156" xlink:href="#o"/>
<use x="159.033203" xlink:href="#z"/>
</g>
</g>
<g clip-path="url(#a)">
<g transform="translate(1054.6 562.1) scale(.1 -.1)">
<use xlink:href="#c"/>
<use x="63.623047" xlink:href="#d"/>
<use x="95.410156" xlink:href="#o"/>
<use x="159.033203" xlink:href="#y"/>
</g>
</g>
<g clip-path="url(#a)">
<g transform="translate(1246.1 562.1) scale(.1 -.1)">
<use xlink:href="#c"/>
<use x="63.623047" xlink:href="#d"/>
<use x="95.410156" xlink:href="#o"/>
<use x="159.033203" xlink:href="#ak"/>
</g>
</g>
<defs>
<clipPath id="a">
<rect width="1317.3" height="693.33"/>
</clipPath>
</defs>
</svg>
