<?xml version="1.0" encoding="UTF-8"?>
<!DOCTYPE svg  PUBLIC '-//W3C//DTD SVG 1.1//EN'  'http://www.w3.org/Graphics/SVG/1.1/DTD/svg11.dtd'>
<svg width="1520pt" height="800pt" version="1.1" viewBox="0 0 1520 800" xmlns="http://www.w3.org/2000/svg" xmlns:xlink="http://www.w3.org/1999/xlink">
<defs>
<style type="text/css">*{stroke-linecap:butt;stroke-linejoin:round;}</style>
</defs>
<path d="m0 800h1520v-800h-1520z" fill="#fff"/>
<g fill="none" stroke="#000">
<path d="m553.28 37.277-343.07 250.97" clip-path="url(#a)"/>
<path d="m553.28 37.277 63.812 490.98" clip-path="url(#a)"/>
<path d="m553.28 37.277 279.26 127.06" clip-path="url(#a)"/>
<path d="m210.21 288.25-140.92 357.24" clip-path="url(#a)"/>
<path d="m210.21 288.25-93.286 357.24" clip-path="url(#a)"/>
<path d="m210.21 288.25-45.651 357.24" clip-path="url(#a)"/>
<path d="m210.21 288.25 1.9848 357.24" clip-path="url(#a)"/>
<path d="m210.21 288.25 73.438 240.01" clip-path="url(#a)"/>
<path d="m210.21 288.25 204.44 121.15" clip-path="url(#a)"/>
<path d="m617.09 528.26-23.818 117.23" clip-path="url(#a)"/>
<path d="m617.09 528.26 23.818 117.23" clip-path="url(#a)"/>
<path d="m832.54 164.34-144 481.15" clip-path="url(#a)"/>
<path d="m832.54 164.34-96.362 481.15" clip-path="url(#a)"/>
<path d="m832.54 164.34-48.727 481.15" clip-path="url(#a)"/>
<path d="m832.54 164.34-1.0916 481.15" clip-path="url(#a)"/>
<path d="m832.54 164.34 46.544 481.15" clip-path="url(#a)"/>
<path d="m832.54 164.34 243.64 123.91" clip-path="url(#a)"/>
<path d="m688.55 645.49v117.23" clip-path="url(#a)"/>
<path d="m736.18 645.49v117.23" clip-path="url(#a)"/>
<path d="m783.82 645.49v117.23" clip-path="url(#a)"/>
<path d="m831.45 645.49v117.23" clip-path="url(#a)"/>
<path d="m879.09 645.49v117.23" clip-path="url(#a)"/>
<path d="m1076.2 288.25-149.46 357.24" clip-path="url(#a)"/>
<path d="m1076.2 288.25-30.368 357.24" clip-path="url(#a)"/>
<path d="m1076.2 288.25 151.84 121.15" clip-path="url(#a)"/>
<path d="m1076.2 288.25-101.82 357.24" clip-path="url(#a)"/>
<path d="m1076.2 288.25 41.086 357.24" clip-path="url(#a)"/>
<path d="m1076.2 288.25 88.721 357.24" clip-path="url(#a)"/>
<path d="m926.72 645.49v117.23" clip-path="url(#a)"/>
<path d="m1045.8 645.49-23.818 117.23" clip-path="url(#a)"/>
<path d="m1045.8 645.49 23.818 117.23" clip-path="url(#a)"/>
<path d="m1228 409.4-182.21 236.09" clip-path="url(#a)" stroke-dasharray="3.7,1.6"/>
<path d="m1228 409.4-15.482 236.09" clip-path="url(#a)"/>
<path d="m1228 409.4 32.154 236.09" clip-path="url(#a)"/>
<path d="m1228 409.4 79.789 236.09" clip-path="url(#a)"/>
<path d="m1228 409.4 85.744 118.86" clip-path="url(#a)"/>
<path d="m1212.5 645.49v117.23" clip-path="url(#a)"/>
<path d="m1260.2 645.49v117.23" clip-path="url(#a)"/>
<path d="m1307.8 645.49v117.23" clip-path="url(#a)"/>
<path d="m1313.8 528.26-267.95 117.23" clip-path="url(#a)" stroke-dasharray="3.7,1.6"/>
<path d="m1313.8 528.26 41.681 117.23" clip-path="url(#a)"/>
<path d="m1313.8 528.26 89.316 117.23" clip-path="url(#a)"/>
<path d="m1313.8 528.26 136.95 117.23" clip-path="url(#a)"/>
<path d="m1355.4 645.49v117.23" clip-path="url(#a)"/>
<path d="m1403.1 645.49v117.23" clip-path="url(#a)"/>
<path d="m593.28 645.49v117.23" clip-path="url(#a)"/>
<path d="m640.91 645.49v117.23" clip-path="url(#a)"/>
<path d="m69.286 645.49v117.23" clip-path="url(#a)"/>
<path d="m116.92 645.49v117.23" clip-path="url(#a)"/>
<path d="m164.56 645.49v117.23" clip-path="url(#a)"/>
<path d="m212.19 645.49v117.23" clip-path="url(#a)"/>
<path d="m283.65 528.26-23.818 117.23" clip-path="url(#a)"/>
<path d="m283.65 528.26 23.818 117.23" clip-path="url(#a)"/>
<path d="m414.64 409.4-59.544 236.09" clip-path="url(#a)"/>
<path d="m414.64 409.4 59.544 118.86" clip-path="url(#a)"/>
<path d="m355.1 645.49v117.23" clip-path="url(#a)"/>
<path d="m474.19 528.26-71.453 234.46" clip-path="url(#a)"/>
<path d="m474.19 528.26 23.818 234.46" clip-path="url(#a)"/>
<path d="m474.19 528.26 71.453 234.46" clip-path="url(#a)"/>
<path d="m474.19 528.26-23.818 117.23" clip-path="url(#a)"/>
<path d="m450.37 645.49v117.23" clip-path="url(#a)"/>
<path d="m259.83 645.49v117.23" clip-path="url(#a)"/>
<path d="m307.46 645.49v117.23" clip-path="url(#a)"/>
<path d="m974.36 645.49v117.23" clip-path="url(#a)"/>
<path d="m1117.3 645.49v117.23" clip-path="url(#a)"/>
<path d="m1164.9 645.49v117.23" clip-path="url(#a)"/>
<path d="m1450.7 645.49v117.23" clip-path="url(#a)"/>
</g>
<path d="m383.02 169.6 4.8557-3.5521q1.937-1.417 0.52-3.354l-4.5714-6.2489q-1.417-1.937-3.354-0.52l-4.8557 3.5521q-1.937 1.417-0.52 3.354l4.5714 6.2489q1.417 1.937 3.354 0.52z" clip-path="url(#a)" fill="#fff" stroke="#fff"/>
<g clip-path="url(#a)">
<defs>
<path id="ag" d="m9.8125 72.906h9.8594v-29.891h35.844v29.891h9.8594v-72.906h-9.8594v34.719h-35.844v-34.719h-9.8594z"/>
</defs>
<g transform="translate(380.62 166.32) rotate(-36.187) scale(.08 -.08)">
<use xlink:href="#ag"/>
</g>
</g>
<path d="m578.68 281.37 0.57449 4.4203q0.30932 2.38 2.6893 2.0707l7.6779-0.99787q2.38-0.30932 2.0707-2.6893l-0.57449-4.4203q-0.30932-2.38-2.6893-2.0707l-7.6779 0.99787q-2.38 0.30932-2.0707 2.6893z" clip-path="url(#a)" fill="#fff" stroke="#fff"/>
<g clip-path="url(#a)">
<defs>
<path id="al" d="m9.8125 72.906h9.8594v-64.609h35.5v-8.2969h-45.359z"/>
</defs>
<g transform="translate(582.71 280.84) rotate(82.595) scale(.08 -.08)">
<use xlink:href="#al"/>
</g>
</g>
<path d="m687.58 105.27 5.4761 2.4916q2.1845 0.99395 3.1785-1.1906l3.2065-7.0473q0.99395-2.1845-1.1906-3.1785l-5.4761-2.4916q-2.1845-0.99395-3.1785 1.1906l-3.2065 7.0473q-0.99395 2.1845 1.1906 3.1785z" clip-path="url(#a)" fill="#fff" stroke="#fff"/>
<g clip-path="url(#a)">
<g transform="translate(689.26 101.57) rotate(24.465) scale(.08 -.08)">
<use xlink:href="#ag"/>
</g>
</g>
<path d="m144.58 471.72 2.0082-5.0907q0.88069-2.2326-1.3519-3.1133l-7.2024-2.8411q-2.2326-0.88069-3.1133 1.3519l-2.0082 5.0907q-0.88069 2.2326 1.3519 3.1133l7.2024 2.8411q2.2326 0.88069 3.1133-1.3519z" clip-path="url(#a)" fill="#fff" stroke="#fff"/>
<g clip-path="url(#a)">
<defs>
<path id="o" d="m34.188 63.188-13.391-36.281h26.812zm-5.5781 9.7188h11.188l27.781-72.906h-10.25l-6.6406 18.703h-32.859l-6.6406-18.703h-10.406z"/>
</defs>
<g transform="translate(140.8 470.23) rotate(-68.472) scale(.08 -.08)">
<use xlink:href="#o"/>
</g>
</g>
<path d="m168.85 471.44 1.5564-5.9601q0.60638-2.3221-1.7158-2.9285l-7.4913-1.9562q-2.3221-0.60638-2.9285 1.7158l-1.5564 5.9601q-0.60638 2.3221 1.7158 2.9285l7.4913 1.9562q2.3221 0.60638 2.9285-1.7158z" clip-path="url(#a)" fill="#fff" stroke="#fff"/>
<g clip-path="url(#a)">
<defs>
<path id="y" d="m19.672 64.797v-56.688h11.922q15.094 0 22.094 6.8281 7 6.8438 7 21.594 0 14.641-7 21.453t-22.094 6.8125zm-9.8594 8.1094h20.266q21.188 0 31.094-8.8125 9.9219-8.8125 9.9219-27.562 0-18.859-9.9688-27.703-9.9531-8.8281-31.047-8.8281h-20.266z"/>
</defs>
<g transform="translate(164.92 470.41) rotate(-75.365) scale(.08 -.08)">
<use xlink:href="#y"/>
</g>
</g>
<path d="m193.26 470.38 0.69367-5.4284q0.30421-2.3806-2.0764-2.6849l-7.68-0.98141q-2.3806-0.30421-2.6849 2.0764l-0.69367 5.4284q-0.30421 2.3806 2.0764 2.6849l7.68 0.98141q2.3806 0.30422 2.6849-2.0764z" clip-path="url(#a)" fill="#fff" stroke="#fff"/>
<g clip-path="url(#a)">
<g transform="translate(189.23 469.87) rotate(-82.718) scale(.08 -.08)">
<use xlink:href="#o"/>
</g>
</g>
<path d="m204.92 464.5 0.0268 4.8237q0.013334 2.4 2.4133 2.3866l7.7424-0.043017q2.4-0.013334 2.3866-2.4133l-0.0268-4.8237q-0.013334-2.4-2.4133-2.3866l-7.7424 0.043016q-2.4 0.013334-2.3866 2.4133z" clip-path="url(#a)" fill="#fff" stroke="#fff"/>
<g clip-path="url(#a)">
<defs>
<path id="af" d="m19.672 64.797v-27.391h12.406q6.8906 0 10.641 3.5625 3.7656 3.5625 3.7656 10.156 0 6.5469-3.7656 10.109-3.75 3.5625-10.641 3.5625zm-9.8594 8.1094h22.266q12.266 0 18.531-5.5469 6.2812-5.5469 6.2812-16.234 0-10.797-6.2812-16.312-6.2656-5.5156-18.531-5.5156h-12.406v-29.297h-9.8594z"/>
</defs>
<g transform="translate(208.98 464.47) rotate(89.682) scale(.08 -.08)">
<use xlink:href="#af"/>
</g>
</g>
<path d="m240.13 407.48 1.6012 5.233q0.70221 2.295 2.9972 1.5928l7.4037-2.2654q2.295-0.70221 1.5928-2.9972l-1.6012-5.233q-0.70221-2.295-2.9972-1.5928l-7.4037 2.2654q-2.295 0.70221-1.5928 2.9972z" clip-path="url(#a)" fill="#fff" stroke="#fff"/>
<g clip-path="url(#a)">
<g transform="translate(244.02 406.29) rotate(72.987) scale(.08 -.08)">
<use xlink:href="#o"/>
</g>
</g>
<path d="m306.87 352.83 4.7079 2.7899q2.0647 1.2235 3.2882-0.84114l3.9472-6.6608q1.2235-2.0647-0.84114-3.2882l-4.7079-2.7899q-2.0647-1.2235-3.2882 0.84114l-3.9472 6.6608q-1.2235 2.0647 0.84114 3.2882z" clip-path="url(#a)" fill="#fff" stroke="#fff"/>
<g clip-path="url(#a)">
<g transform="translate(308.95 349.33) rotate(30.651) scale(.08 -.08)">
<use xlink:href="#o"/>
</g>
</g>
<path d="m610.77 590.86 1.1122-5.4744q0.47785-2.3519-1.8741-2.8298l-7.5875-1.5416q-2.3519-0.47785-2.8298 1.8741l-1.1122 5.4744q-0.47785 2.3519 1.8741 2.8298l7.5875 1.5416q2.3519 0.47785 2.8298-1.8741z" clip-path="url(#a)" fill="#fff" stroke="#fff"/>
<g clip-path="url(#a)">
<defs>
<path id="z" d="m64.406 67.281v-10.391q-4.9844 4.6406-10.625 6.9219-5.6406 2.2969-11.984 2.2969-12.5 0-19.141-7.6406t-6.6406-22.094q0-14.406 6.6406-22.047t19.141-7.6406q6.3438 0 11.984 2.2969t10.625 6.9375v-10.312q-5.1719-3.5156-10.969-5.2812-5.7812-1.75-12.219-1.75-16.562 0-26.094 10.125-9.5156 10.141-9.5156 27.672 0 17.578 9.5156 27.703 9.5312 10.141 26.094 10.141 6.5312 0 12.312-1.7344 5.7969-1.7344 10.875-5.2031z"/>
</defs>
<g transform="translate(606.79 590.05) rotate(-78.516) scale(.08 -.08)">
<use xlink:href="#z"/>
</g>
</g>
<path d="m622.3 585.4 1.1068 5.4475q0.47785 2.3519 2.8298 1.8741l7.5875-1.5416q2.3519-0.47785 1.8741-2.8298l-1.1068-5.4475q-0.47785-2.3519-2.8298-1.8741l-7.5875 1.5416q-2.3519 0.47785-1.8741 2.8298z" clip-path="url(#a)" fill="#fff" stroke="#fff"/>
<g clip-path="url(#a)">
<defs>
<path id="x" d="m44.391 34.188q3.1719-1.0781 6.1719-4.5938t6.0312-9.6719l10.016-19.922h-10.609l-9.3125 18.703q-3.625 7.3281-7.0156 9.7188t-9.25 2.3906h-10.75v-30.812h-9.8594v72.906h22.266q12.5 0 18.656-5.2344 6.1562-5.2188 6.1562-15.766 0-6.8906-3.2031-11.438-3.2031-4.5312-9.2969-6.2812zm-24.719 30.609v-25.875h12.406q7.125 0 10.766 3.2969t3.6406 9.6875-3.6406 9.6406-10.766 3.25z"/>
</defs>
<g transform="translate(626.29 584.59) rotate(78.516) scale(.08 -.08)">
<use xlink:href="#x"/>
</g>
</g>
<path d="m765.77 409.34 1.569-5.2427q0.68811-2.2992-1.6111-2.9874l-7.4174-2.2199q-2.2992-0.68811-2.9874 1.6111l-1.569 5.2427q-0.68811 2.2992 1.6111 2.9874l7.4174 2.2199q2.2992 0.68811 2.9874-1.6111z" clip-path="url(#a)" fill="#fff" stroke="#fff"/>
<g clip-path="url(#a)">
<g transform="translate(761.88 408.17) rotate(-73.339) scale(.08 -.08)">
<use xlink:href="#o"/>
</g>
</g>
<path d="m789.91 409.17 1.2097-6.0401q0.4713-2.3533-1.882-2.8246l-7.5917-1.5204q-2.3533-0.4713-2.8246 1.882l-1.2097 6.0401q-0.4713 2.3533 1.882 2.8246l7.5917 1.5204q2.3533 0.4713 2.8246-1.882z" clip-path="url(#a)" fill="#fff" stroke="#fff"/>
<g clip-path="url(#a)">
<g transform="translate(785.92 408.37) rotate(-78.675) scale(.08 -.08)">
<use xlink:href="#y"/>
</g>
</g>
<path d="m814.11 408.61 0.62066-6.1287q0.24182-2.3878-2.146-2.6296l-7.7031-0.78011q-2.3878-0.24182-2.6296 2.146l-0.62066 6.1287q-0.24182 2.3878 2.146 2.6296l7.7031 0.78011q2.3878 0.24182 2.6296-2.146z" clip-path="url(#a)" fill="#fff" stroke="#fff"/>
<g clip-path="url(#a)">
<g transform="translate(810.07 408.2) rotate(-84.217) scale(.08 -.08)">
<use xlink:href="#y"/>
</g>
</g>
<path d="m838.26 407.23 0.010439-4.6012q0.005446-2.4-2.3945-2.4054l-7.7425-0.017567q-2.4-0.005445-2.4054 2.3945l-0.01044 4.6012q-0.005445 2.4 2.3945 2.4054l7.7425 0.017566q2.4 0.005446 2.4054-2.3945z" clip-path="url(#a)" fill="#fff" stroke="#fff"/>
<g clip-path="url(#a)">
<defs>
<path id="at" d="m9.8125 72.906h41.891v-8.3125h-32.031v-21.484h28.906v-8.2969h-28.906v-34.812h-9.8594z"/>
</defs>
<g transform="translate(834.2 407.22) rotate(-89.87) scale(.08 -.08)">
<use xlink:href="#at"/>
</g>
</g>
<path d="m849.34 403.12 0.46445 4.8013q0.23108 2.3888 2.6199 2.1578l7.7065-0.74548q2.3888-0.23108 2.1578-2.6199l-0.46445-4.8013q-0.23108-2.3888-2.6199-2.1578l-7.7065 0.74548q-2.3888 0.23108-2.1578 2.6199z" clip-path="url(#a)" fill="#fff" stroke="#fff"/>
<g clip-path="url(#a)">
<g transform="translate(853.39 402.73) rotate(84.475) scale(.08 -.08)">
<use xlink:href="#af"/>
</g>
</g>
<path d="m949.08 230.65 4.8779 2.4808q2.1392 1.088 3.2272-1.0512l3.5099-6.9012q1.088-2.1392-1.0512-3.2272l-4.8779-2.4808q-2.1392-1.088-3.2272 1.0512l-3.5099 6.9012q-1.088 2.1392 1.0512 3.2272z" clip-path="url(#a)" fill="#fff" stroke="#fff"/>
<g clip-path="url(#a)">
<g transform="translate(950.92 227.02) rotate(26.957) scale(.08 -.08)">
<use xlink:href="#o"/>
</g>
</g>
<path d="m682.28 686.47v35.285q0 2.4 2.4 2.4h7.7425q2.4 0 2.4-2.4v-35.285q0-2.4-2.4-2.4h-7.7425q-2.4 0-2.4 2.4z" clip-path="url(#a)" fill="#fff" stroke="#fff"/>
<g clip-path="url(#a)">
<defs>
<path id="l" d="m-0.29688 72.906h61.672v-8.3125h-25.875v-64.594h-9.9062v64.594h-25.891z"/>
<path id="d" d="m56.203 29.594v-4.3906h-41.312q0.59375-9.2812 5.5938-14.141t13.938-4.8594q5.1719 0 10.031 1.2656t9.6562 3.8125v-8.5q-4.8438-2.0469-9.9219-3.125t-10.297-1.0781q-13.094 0-20.734 7.6094-7.6406 7.625-7.6406 20.625 0 13.422 7.25 21.297 7.25 7.8906 19.562 7.8906 11.031 0 17.453-7.1094 6.4219-7.0938 6.4219-19.297zm-8.9844 2.6406q-0.09375 7.3594-4.125 11.75-4.0312 4.4062-10.672 4.4062-7.5156 0-12.031-4.25t-5.2031-11.969z"/>
<path id="k" d="m41.109 46.297q-1.5156 0.875-3.2969 1.2812-1.7812 0.42188-3.9219 0.42188-7.625 0-11.703-4.9531t-4.0781-14.234v-28.812h-9.0312v54.688h9.0312v-8.5q2.8438 4.9844 7.375 7.3906 4.5469 2.4219 11.047 2.4219 0.92188 0 2.0469-0.125 1.125-0.10938 2.4844-0.35938z"/>
<path id="i" d="m52 44.188q3.375 6.0625 8.0625 8.9375t11.031 2.875q8.5469 0 13.188-5.9844 4.6406-5.9688 4.6406-17v-33.016h-9.0312v32.719q0 7.8594-2.7969 11.656-2.7812 3.8125-8.4844 3.8125-6.9844 0-11.047-4.6406-4.0469-4.625-4.0469-12.641v-30.906h-9.0312v32.719q0 7.9062-2.7812 11.688t-8.5938 3.7812q-6.8906 0-10.953-4.6562-4.0469-4.6562-4.0469-12.625v-30.906h-9.0312v54.688h9.0312v-8.5q3.0781 5.0312 7.375 7.4219t10.203 2.3906q5.9688 0 10.141-3.0312 4.1719-3.0156 6.1719-8.7812z"/>
<path id="h" d="m9.4219 54.688h8.9844v-54.688h-8.9844zm0 21.297h8.9844v-11.391h-8.9844z"/>
<path id="e" d="m54.891 33.016v-33.016h-8.9844v32.719q0 7.7656-3.0312 11.609-3.0312 3.8594-9.0781 3.8594-7.2812 0-11.484-4.6406-4.2031-4.625-4.2031-12.641v-30.906h-9.0312v54.688h9.0312v-8.5q3.2344 4.9375 7.5938 7.375 4.375 2.4375 10.094 2.4375 9.4219 0 14.25-5.8281 4.8438-5.8281 4.8438-17.156z"/>
<path id="g" d="m34.281 27.484q-10.891 0-15.094-2.4844t-4.2031-8.5q0-4.7812 3.1562-7.5938 3.1562-2.7969 8.5625-2.7969 7.4844 0 12 5.2969t4.5156 14.078v2zm17.922 3.7188v-31.203h-8.9844v8.2969q-3.0781-4.9688-7.6719-7.3438t-11.234-2.375q-8.3906 0-13.359 4.7188-4.9531 4.7188-4.9531 12.625 0 9.2188 6.1719 13.906 6.1875 4.6875 18.438 4.6875h12.609v0.89062q0 6.2031-4.0781 9.5938t-11.453 3.3906q-4.6875 0-9.1406-1.125-4.4375-1.125-8.5312-3.375v8.3125q4.9219 1.9062 9.5625 2.8438 4.6406 0.95312 9.0312 0.95312 11.875 0 17.734-6.1562 5.8594-6.1406 5.8594-18.641z"/>
<path id="j" d="m9.4219 75.984h8.9844v-75.984h-8.9844z"/>
</defs>
<g transform="translate(686.34 686.47) rotate(90) scale(.08 -.08)">
<use xlink:href="#l"/>
<use x="60.818359" xlink:href="#d"/>
<use x="122.341797" xlink:href="#k"/>
<use x="163.439453" xlink:href="#i"/>
<use x="260.851562" xlink:href="#h"/>
<use x="288.634766" xlink:href="#e"/>
<use x="352.013672" xlink:href="#g"/>
<use x="413.292969" xlink:href="#j"/>
</g>
</g>
<path d="m729.91 686.47v35.285q0 2.4 2.4 2.4h7.7425q2.4 0 2.4-2.4v-35.285q0-2.4-2.4-2.4h-7.7425q-2.4 0-2.4 2.4z" clip-path="url(#a)" fill="#fff" stroke="#fff"/>
<g clip-path="url(#a)">
<g transform="translate(733.97 686.47) rotate(90) scale(.08 -.08)">
<use xlink:href="#l"/>
<use x="60.818359" xlink:href="#d"/>
<use x="122.341797" xlink:href="#k"/>
<use x="163.439453" xlink:href="#i"/>
<use x="260.851562" xlink:href="#h"/>
<use x="288.634766" xlink:href="#e"/>
<use x="352.013672" xlink:href="#g"/>
<use x="413.292969" xlink:href="#j"/>
</g>
</g>
<path d="m777.55 686.47v35.285q0 2.4 2.4 2.4h7.7425q2.4 0 2.4-2.4v-35.285q0-2.4-2.4-2.4h-7.7425q-2.4 0-2.4 2.4z" clip-path="url(#a)" fill="#fff" stroke="#fff"/>
<g clip-path="url(#a)">
<g transform="translate(781.61 686.47) rotate(90) scale(.08 -.08)">
<use xlink:href="#l"/>
<use x="60.818359" xlink:href="#d"/>
<use x="122.341797" xlink:href="#k"/>
<use x="163.439453" xlink:href="#i"/>
<use x="260.851562" xlink:href="#h"/>
<use x="288.634766" xlink:href="#e"/>
<use x="352.013672" xlink:href="#g"/>
<use x="413.292969" xlink:href="#j"/>
</g>
</g>
<path d="m825.18 686.47v35.285q0 2.4 2.4 2.4h7.7425q2.4 0 2.4-2.4v-35.285q0-2.4-2.4-2.4h-7.7425q-2.4 0-2.4 2.4z" clip-path="url(#a)" fill="#fff" stroke="#fff"/>
<g clip-path="url(#a)">
<g transform="translate(829.25 686.47) rotate(90) scale(.08 -.08)">
<use xlink:href="#l"/>
<use x="60.818359" xlink:href="#d"/>
<use x="122.341797" xlink:href="#k"/>
<use x="163.439453" xlink:href="#i"/>
<use x="260.851562" xlink:href="#h"/>
<use x="288.634766" xlink:href="#e"/>
<use x="352.013672" xlink:href="#g"/>
<use x="413.292969" xlink:href="#j"/>
</g>
</g>
<path d="m872.82 686.47v35.285q0 2.4 2.4 2.4h7.7425q2.4 0 2.4-2.4v-35.285q0-2.4-2.4-2.4h-7.7425q-2.4 0-2.4 2.4z" clip-path="url(#a)" fill="#fff" stroke="#fff"/>
<g clip-path="url(#a)">
<g transform="translate(876.88 686.47) rotate(90) scale(.08 -.08)">
<use xlink:href="#l"/>
<use x="60.818359" xlink:href="#d"/>
<use x="122.341797" xlink:href="#k"/>
<use x="163.439453" xlink:href="#i"/>
<use x="260.851562" xlink:href="#h"/>
<use x="288.634766" xlink:href="#e"/>
<use x="352.013672" xlink:href="#g"/>
<use x="413.292969" xlink:href="#j"/>
</g>
</g>
<path d="m1006.2 471.86 2.1454-5.1281q0.92628-2.214-1.2878-3.1403l-7.1426-2.9882q-2.214-0.92628-3.1403 1.2878l-2.1454 5.1281q-0.92628 2.214 1.2878 3.1403l7.1426 2.9882q2.214 0.92628 3.1403-1.2878z" clip-path="url(#a)" fill="#fff" stroke="#fff"/>
<g clip-path="url(#a)">
<g transform="translate(1002.4 470.29) rotate(-67.297) scale(.08 -.08)">
<use xlink:href="#x"/>
</g>
</g>
<path d="m1067 470.19 0.47316-5.5662q0.20328-2.3914-2.1881-2.5947l-7.7147-0.65579q-2.3914-0.20328-2.5947 2.1881l-0.47316 5.5662q-0.20328 2.3914 2.1881 2.5947l7.7147 0.65579q2.3914 0.20328 2.5947-2.1881z" clip-path="url(#a)" fill="#fff" stroke="#fff"/>
<g clip-path="url(#a)">
<g transform="translate(1063 469.84) rotate(-85.141) scale(.08 -.08)">
<use xlink:href="#z"/>
</g>
</g>
<path d="m1146.2 352.15 3.9514 3.1527q1.876 1.4969 3.3729-0.37916l4.8289-6.0521q1.4969-1.876-0.37916-3.3729l-3.9514-3.1527q-1.876-1.4969-3.3729 0.37916l-4.8289 6.0521q-1.4969 1.876 0.37916 3.3729z" clip-path="url(#a)" fill="#fff" stroke="#fff"/>
<g clip-path="url(#a)">
<defs>
<path id="am" d="m9.8125 72.906h46.094v-8.3125h-36.234v-21.578h34.719v-8.2969h-34.719v-26.422h37.109v-8.2969h-46.969z"/>
</defs>
<g transform="translate(1148.7 348.98) rotate(38.586) scale(.08 -.08)">
<use xlink:href="#am"/>
</g>
</g>
<path d="m1030.5 471.41 1.6049-5.6308q0.65785-2.3081-1.6502-2.9659l-7.446-2.1222q-2.3081-0.65785-2.9659 1.6502l-1.6049 5.6308q-0.65785 2.3081 1.6502 2.9659l7.446 2.1222q2.3081 0.65785 2.9659-1.6502z" clip-path="url(#a)" fill="#fff" stroke="#fff"/>
<g clip-path="url(#a)">
<defs>
<path id="u" d="m8.6875 72.906h9.9219v-44.297q0-11.719 4.2344-16.875 4.25-5.1406 13.781-5.1406 9.4688 0 13.719 5.1406 4.25 5.1562 4.25 16.875v44.297h9.9062v-45.516q0-14.25-7.0625-21.531-7.0469-7.2812-20.812-7.2812-13.828 0-20.891 7.2812-7.0469 7.2812-7.0469 21.531z"/>
</defs>
<g transform="translate(1026.6 470.29) rotate(-74.091) scale(.08 -.08)">
<use xlink:href="#u"/>
</g>
</g>
<path d="m1090.2 464.68 0.66896 5.8167q0.27421 2.3843 2.6585 2.1101l7.6918-0.88462q2.3843-0.27421 2.1101-2.6585l-0.66896-5.8167q-0.27421-2.3843-2.6585-2.1101l-7.6918 0.88462q-2.3843 0.27421-2.1101 2.6585z" clip-path="url(#a)" fill="#fff" stroke="#fff"/>
<g clip-path="url(#a)">
<g transform="translate(1094.2 464.22) rotate(83.439) scale(.08 -.08)">
<use xlink:href="#u"/>
</g>
</g>
<path d="m1113.7 465.54 1.4112 5.6824q0.57847 2.3292 2.9077 1.7508l7.5142-1.8662q2.3292-0.57847 1.7508-2.9077l-1.4112-5.6824q-0.57847-2.3292-2.9077-1.7508l-7.5142 1.8662q-2.3292 0.57847-1.7508 2.9077z" clip-path="url(#a)" fill="#fff" stroke="#fff"/>
<g clip-path="url(#a)">
<g transform="translate(1117.7 464.56) rotate(76.053) scale(.08 -.08)">
<use xlink:href="#u"/>
</g>
</g>
<path d="m920.45 686.47v35.285q0 2.4 2.4 2.4h7.7425q2.4 0 2.4-2.4v-35.285q0-2.4-2.4-2.4h-7.7425q-2.4 0-2.4 2.4z" clip-path="url(#a)" fill="#fff" stroke="#fff"/>
<g clip-path="url(#a)">
<g transform="translate(924.52 686.47) rotate(90) scale(.08 -.08)">
<use xlink:href="#l"/>
<use x="60.818359" xlink:href="#d"/>
<use x="122.341797" xlink:href="#k"/>
<use x="163.439453" xlink:href="#i"/>
<use x="260.851562" xlink:href="#h"/>
<use x="288.634766" xlink:href="#e"/>
<use x="352.013672" xlink:href="#g"/>
<use x="413.292969" xlink:href="#j"/>
</g>
</g>
<path d="m1036.5 722.65 7.0253-34.579q0.47785-2.3519-1.8741-2.8298l-7.5875-1.5416q-2.3519-0.47785-2.8298 1.8741l-7.0253 34.579q-0.47785 2.3519 1.8741 2.8298l7.5875 1.5416q2.3519 0.47785 2.8298-1.8741z" clip-path="url(#a)" fill="#fff" stroke="#fff"/>
<g clip-path="url(#a)">
<g transform="translate(1032.6 721.84) rotate(-78.516) scale(.08 -.08)">
<use xlink:href="#l"/>
<use x="60.818359" xlink:href="#d"/>
<use x="122.341797" xlink:href="#k"/>
<use x="163.439453" xlink:href="#i"/>
<use x="260.851562" xlink:href="#h"/>
<use x="288.634766" xlink:href="#e"/>
<use x="352.013672" xlink:href="#g"/>
<use x="413.292969" xlink:href="#j"/>
</g>
</g>
<path d="m1048.1 688.07 7.0253 34.579q0.47785 2.3519 2.8298 1.8741l7.5875-1.5416q2.3519-0.47785 1.8741-2.8298l-7.0253-34.579q-0.47785-2.3519-2.8298-1.8741l-7.5875 1.5416q-2.3519 0.47785-1.8741 2.8298z" clip-path="url(#a)" fill="#fff" stroke="#fff"/>
<g clip-path="url(#a)">
<g transform="translate(1052 687.26) rotate(78.516) scale(.08 -.08)">
<use xlink:href="#l"/>
<use x="60.818359" xlink:href="#d"/>
<use x="122.341797" xlink:href="#k"/>
<use x="163.439453" xlink:href="#i"/>
<use x="260.851562" xlink:href="#h"/>
<use x="288.634766" xlink:href="#e"/>
<use x="352.013672" xlink:href="#g"/>
<use x="413.292969" xlink:href="#j"/>
</g>
</g>
<path d="m1140.2 533.44 3.3435-4.3323q1.4663-1.9-0.43365-3.3663l-6.1294-4.7304q-1.9-1.4663-3.3663 0.43365l-3.3435 4.3323q-1.4663 1.9 0.43365 3.3663l6.1294 4.7304q1.9 1.4663 3.3663-0.43365z" clip-path="url(#a)" fill="#fff" stroke="#fff"/>
<g clip-path="url(#a)">
<g transform="translate(1137 530.96) rotate(-52.34) scale(.08 -.08)">
<use xlink:href="#o"/>
</g>
</g>
<path d="m1226.4 530.63 0.36373-5.5468q0.15704-2.3949-2.2378-2.5519l-7.7259-0.50662q-2.3949-0.15704-2.5519 2.2378l-0.36373 5.5468q-0.15704 2.3949 2.2378 2.5519l7.7259 0.50662q2.3949 0.15704 2.5519-2.2378z" clip-path="url(#a)" fill="#fff" stroke="#fff"/>
<g clip-path="url(#a)">
<g transform="translate(1222.3 530.36) rotate(-86.248) scale(.08 -.08)">
<use xlink:href="#x"/>
</g>
</g>
<path d="m1237.5 525.58 0.7385 5.4224q0.32387 2.378 2.7019 2.0542l7.6717-1.0448q2.378-0.32387 2.0542-2.7019l-0.7385-5.4224q-0.32387-2.378-2.7019-2.0542l-7.6717 1.0448q-2.378 0.32387-2.0542 2.7019z" clip-path="url(#a)" fill="#fff" stroke="#fff"/>
<g clip-path="url(#a)">
<g transform="translate(1241.5 525.03) rotate(82.244) scale(.08 -.08)">
<use xlink:href="#o"/>
</g>
</g>
<path d="m1261.2 527.17 1.5444 4.5698q0.76841 2.2737 3.0421 1.5053l7.3349-2.4789q2.2737-0.76841 1.5053-3.0421l-1.5444-4.5698q-0.76841-2.2737-3.0421-1.5053l-7.3349 2.4789q-2.2737 0.76841-1.5053 3.0421z" clip-path="url(#a)" fill="#fff" stroke="#fff"/>
<g clip-path="url(#a)">
<g transform="translate(1265 525.87) rotate(71.327) scale(.08 -.08)">
<use xlink:href="#af"/>
</g>
</g>
<path d="m1264.2 470.28 3.2016 4.4382q1.4041 1.9464 3.3505 0.54231l6.2792-4.5297q1.9464-1.4041 0.54231-3.3505l-3.2016-4.4382q-1.4041-1.9464-3.3505-0.54231l-6.2792 4.5297q-1.9464 1.4041-0.54231 3.3505z" clip-path="url(#a)" fill="#fff" stroke="#fff"/>
<g clip-path="url(#a)">
<g transform="translate(1267.5 467.9) rotate(54.194) scale(.08 -.08)">
<use xlink:href="#o"/>
</g>
</g>
<path d="m1206.3 686.47v35.285q0 2.4 2.4 2.4h7.7425q2.4 0 2.4-2.4v-35.285q0-2.4-2.4-2.4h-7.7425q-2.4 0-2.4 2.4z" clip-path="url(#a)" fill="#fff" stroke="#fff"/>
<g clip-path="url(#a)">
<g transform="translate(1210.3 686.47) rotate(90) scale(.08 -.08)">
<use xlink:href="#l"/>
<use x="60.818359" xlink:href="#d"/>
<use x="122.341797" xlink:href="#k"/>
<use x="163.439453" xlink:href="#i"/>
<use x="260.851562" xlink:href="#h"/>
<use x="288.634766" xlink:href="#e"/>
<use x="352.013672" xlink:href="#g"/>
<use x="413.292969" xlink:href="#j"/>
</g>
</g>
<path d="m1253.9 686.47v35.285q0 2.4 2.4 2.4h7.7425q2.4 0 2.4-2.4v-35.285q0-2.4-2.4-2.4h-7.7425q-2.4 0-2.4 2.4z" clip-path="url(#a)" fill="#fff" stroke="#fff"/>
<g clip-path="url(#a)">
<g transform="translate(1258 686.47) rotate(90) scale(.08 -.08)">
<use xlink:href="#l"/>
<use x="60.818359" xlink:href="#d"/>
<use x="122.341797" xlink:href="#k"/>
<use x="163.439453" xlink:href="#i"/>
<use x="260.851562" xlink:href="#h"/>
<use x="288.634766" xlink:href="#e"/>
<use x="352.013672" xlink:href="#g"/>
<use x="413.292969" xlink:href="#j"/>
</g>
</g>
<path d="m1301.5 686.47v35.285q0 2.4 2.4 2.4h7.7425q2.4 0 2.4-2.4v-35.285q0-2.4-2.4-2.4h-7.7425q-2.4 0-2.4 2.4z" clip-path="url(#a)" fill="#fff" stroke="#fff"/>
<g clip-path="url(#a)">
<g transform="translate(1305.6 686.47) rotate(90) scale(.08 -.08)">
<use xlink:href="#l"/>
<use x="60.818359" xlink:href="#d"/>
<use x="122.341797" xlink:href="#k"/>
<use x="163.439453" xlink:href="#i"/>
<use x="260.851562" xlink:href="#h"/>
<use x="288.634766" xlink:href="#e"/>
<use x="352.013672" xlink:href="#g"/>
<use x="413.292969" xlink:href="#j"/>
</g>
</g>
<path d="m1179.8 593.72 5.0137-2.1935q2.1988-0.96198 1.2368-3.1608l-3.1034-7.0933q-0.96198-2.1988-3.1608-1.2368l-5.0137 2.1935q-2.1988 0.96198-1.2368 3.1608l3.1034 7.0933q0.96198 2.1988 3.1608 1.2368z" clip-path="url(#a)" fill="#fff" stroke="#fff"/>
<g clip-path="url(#a)">
<g transform="translate(1178.2 590) rotate(-23.63) scale(.08 -.08)">
<use xlink:href="#o"/>
</g>
</g>
<path d="m1327.7 586.08 2.0636 5.8041q0.80401 2.2613 3.0653 1.4573l7.2951-2.5938q2.2613-0.80401 1.4573-3.0653l-2.0636-5.8041q-0.80401-2.2613-3.0653-1.4573l-7.2951 2.5938q-2.2613 0.80401-1.4573 3.0653z" clip-path="url(#a)" fill="#fff" stroke="#fff"/>
<g clip-path="url(#a)">
<g transform="translate(1331.5 584.71) rotate(70.427) scale(.08 -.08)">
<use xlink:href="#y"/>
</g>
</g>
<path d="m1351.9 588.66 3.0779 4.0398q1.4545 1.909 3.3635 0.45456l6.1587-4.6922q1.909-1.4545 0.45456-3.3635l-3.0779-4.0398q-1.4545-1.909-3.3635-0.45456l-6.1587 4.6922q-1.909 1.4545-0.45456 3.3635z" clip-path="url(#a)" fill="#fff" stroke="#fff"/>
<g clip-path="url(#a)">
<defs>
<path id="w" d="m53.516 70.516v-9.625q-5.6094 2.6875-10.594 4-4.9844 1.3281-9.625 1.3281-8.0469 0-12.422-3.125t-4.375-8.8906q0-4.8438 2.9062-7.3125 2.9062-2.4531 11.016-3.9688l5.9531-1.2188q11.031-2.1094 16.281-7.4062t5.25-14.172q0-10.609-7.1094-16.078-7.0938-5.4688-20.812-5.4688-5.1719 0-11.016 1.1719-5.8281 1.1719-12.078 3.4688v10.156q6-3.3594 11.766-5.0781 5.7656-1.7031 11.328-1.7031 8.4375 0 13.031 3.3125 4.5938 3.3281 4.5938 9.4844 0 5.3594-3.2969 8.3906t-10.812 4.5469l-6.0156 1.1719q-11.031 2.1875-15.969 6.875-4.9219 4.6875-4.9219 13.047 0 9.6719 6.8125 15.234t18.766 5.5625q5.1406 0 10.453-0.9375 5.3281-0.92188 10.891-2.7656z"/>
</defs>
<g transform="translate(1355.1 586.2) rotate(52.697) scale(.08 -.08)">
<use xlink:href="#w"/>
</g>
</g>
<path d="m1375.9 589.74 4.448 3.8074q1.8232 1.5607 3.3839-0.26256l5.0349-5.8819q1.5607-1.8232-0.26256-3.3839l-4.448-3.8074q-1.8232-1.5607-3.3839 0.26256l-5.0349 5.8819q-1.5607 1.8232 0.26256 3.3839z" clip-path="url(#a)" fill="#fff" stroke="#fff"/>
<g clip-path="url(#a)">
<g transform="translate(1378.6 586.65) rotate(40.563) scale(.08 -.08)">
<use xlink:href="#u"/>
</g>
</g>
<path d="m1349.2 686.47v35.285q0 2.4 2.4 2.4h7.7425q2.4 0 2.4-2.4v-35.285q0-2.4-2.4-2.4h-7.7425q-2.4 0-2.4 2.4z" clip-path="url(#a)" fill="#fff" stroke="#fff"/>
<g clip-path="url(#a)">
<g transform="translate(1353.2 686.47) rotate(90) scale(.08 -.08)">
<use xlink:href="#l"/>
<use x="60.818359" xlink:href="#d"/>
<use x="122.341797" xlink:href="#k"/>
<use x="163.439453" xlink:href="#i"/>
<use x="260.851562" xlink:href="#h"/>
<use x="288.634766" xlink:href="#e"/>
<use x="352.013672" xlink:href="#g"/>
<use x="413.292969" xlink:href="#j"/>
</g>
</g>
<path d="m1396.8 686.47v35.285q0 2.4 2.4 2.4h7.7425q2.4 0 2.4-2.4v-35.285q0-2.4-2.4-2.4h-7.7425q-2.4 0-2.4 2.4z" clip-path="url(#a)" fill="#fff" stroke="#fff"/>
<g clip-path="url(#a)">
<g transform="translate(1400.9 686.47) rotate(90) scale(.08 -.08)">
<use xlink:href="#l"/>
<use x="60.818359" xlink:href="#d"/>
<use x="122.341797" xlink:href="#k"/>
<use x="163.439453" xlink:href="#i"/>
<use x="260.851562" xlink:href="#h"/>
<use x="288.634766" xlink:href="#e"/>
<use x="352.013672" xlink:href="#g"/>
<use x="413.292969" xlink:href="#j"/>
</g>
</g>
<path d="m587 686.47v35.285q0 2.4 2.4 2.4h7.7425q2.4 0 2.4-2.4v-35.285q0-2.4-2.4-2.4h-7.7425q-2.4 0-2.4 2.4z" clip-path="url(#a)" fill="#fff" stroke="#fff"/>
<g clip-path="url(#a)">
<g transform="translate(591.07 686.47) rotate(90) scale(.08 -.08)">
<use xlink:href="#l"/>
<use x="60.818359" xlink:href="#d"/>
<use x="122.341797" xlink:href="#k"/>
<use x="163.439453" xlink:href="#i"/>
<use x="260.851562" xlink:href="#h"/>
<use x="288.634766" xlink:href="#e"/>
<use x="352.013672" xlink:href="#g"/>
<use x="413.292969" xlink:href="#j"/>
</g>
</g>
<path d="m634.64 686.47v35.285q0 2.4 2.4 2.4h7.7425q2.4 0 2.4-2.4v-35.285q0-2.4-2.4-2.4h-7.7425q-2.4 0-2.4 2.4z" clip-path="url(#a)" fill="#fff" stroke="#fff"/>
<g clip-path="url(#a)">
<g transform="translate(638.7 686.47) rotate(90) scale(.08 -.08)">
<use xlink:href="#l"/>
<use x="60.818359" xlink:href="#d"/>
<use x="122.341797" xlink:href="#k"/>
<use x="163.439453" xlink:href="#i"/>
<use x="260.851562" xlink:href="#h"/>
<use x="288.634766" xlink:href="#e"/>
<use x="352.013672" xlink:href="#g"/>
<use x="413.292969" xlink:href="#j"/>
</g>
</g>
<path d="m63.015 686.47v35.285q0 2.4 2.4 2.4h7.7425q2.4 0 2.4-2.4v-35.285q0-2.4-2.4-2.4h-7.7425q-2.4 0-2.4 2.4z" clip-path="url(#a)" fill="#fff" stroke="#fff"/>
<g clip-path="url(#a)">
<g transform="translate(67.079 686.47) rotate(90) scale(.08 -.08)">
<use xlink:href="#l"/>
<use x="60.818359" xlink:href="#d"/>
<use x="122.341797" xlink:href="#k"/>
<use x="163.439453" xlink:href="#i"/>
<use x="260.851562" xlink:href="#h"/>
<use x="288.634766" xlink:href="#e"/>
<use x="352.013672" xlink:href="#g"/>
<use x="413.292969" xlink:href="#j"/>
</g>
</g>
<path d="m110.65 686.47v35.285q0 2.4 2.4 2.4h7.7425q2.4 0 2.4-2.4v-35.285q0-2.4-2.4-2.4h-7.7425q-2.4 0-2.4 2.4z" clip-path="url(#a)" fill="#fff" stroke="#fff"/>
<g clip-path="url(#a)">
<g transform="translate(114.71 686.47) rotate(90) scale(.08 -.08)">
<use xlink:href="#l"/>
<use x="60.818359" xlink:href="#d"/>
<use x="122.341797" xlink:href="#k"/>
<use x="163.439453" xlink:href="#i"/>
<use x="260.851562" xlink:href="#h"/>
<use x="288.634766" xlink:href="#e"/>
<use x="352.013672" xlink:href="#g"/>
<use x="413.292969" xlink:href="#j"/>
</g>
</g>
<path d="m158.29 686.47v35.285q0 2.4 2.4 2.4h7.7425q2.4 0 2.4-2.4v-35.285q0-2.4-2.4-2.4h-7.7425q-2.4 0-2.4 2.4z" clip-path="url(#a)" fill="#fff" stroke="#fff"/>
<g clip-path="url(#a)">
<g transform="translate(162.35 686.47) rotate(90) scale(.08 -.08)">
<use xlink:href="#l"/>
<use x="60.818359" xlink:href="#d"/>
<use x="122.341797" xlink:href="#k"/>
<use x="163.439453" xlink:href="#i"/>
<use x="260.851562" xlink:href="#h"/>
<use x="288.634766" xlink:href="#e"/>
<use x="352.013672" xlink:href="#g"/>
<use x="413.292969" xlink:href="#j"/>
</g>
</g>
<path d="m205.92 686.47v35.285q0 2.4 2.4 2.4h7.7425q2.4 0 2.4-2.4v-35.285q0-2.4-2.4-2.4h-7.7425q-2.4 0-2.4 2.4z" clip-path="url(#a)" fill="#fff" stroke="#fff"/>
<g clip-path="url(#a)">
<g transform="translate(209.99 686.47) rotate(90) scale(.08 -.08)">
<use xlink:href="#l"/>
<use x="60.818359" xlink:href="#d"/>
<use x="122.341797" xlink:href="#k"/>
<use x="163.439453" xlink:href="#i"/>
<use x="260.851562" xlink:href="#h"/>
<use x="288.634766" xlink:href="#e"/>
<use x="352.013672" xlink:href="#g"/>
<use x="413.292969" xlink:href="#j"/>
</g>
</g>
<path d="m277.38 590.6 1.0065-4.9538q0.47785-2.3519-1.8741-2.8298l-7.5875-1.5416q-2.3519-0.47785-2.8298 1.8741l-1.0065 4.9538q-0.47785 2.3519 1.8741 2.8298l7.5875 1.5416q2.3519 0.47785 2.8298-1.8741z" clip-path="url(#a)" fill="#fff" stroke="#fff"/>
<g clip-path="url(#a)">
<g transform="translate(273.4 589.79) rotate(-78.516) scale(.08 -.08)">
<use xlink:href="#am"/>
</g>
</g>
<path d="m288.85 585.39 1.1122 5.4744q0.47785 2.3519 2.8298 1.8741l7.5875-1.5416q2.3519-0.47785 1.8741-2.8298l-1.1122-5.4744q-0.47785-2.3519-2.8298-1.8741l-7.5875 1.5416q-2.3519 0.47785-1.8741 2.8298z" clip-path="url(#a)" fill="#fff" stroke="#fff"/>
<g clip-path="url(#a)">
<g transform="translate(292.84 584.58) rotate(78.516) scale(.08 -.08)">
<use xlink:href="#z"/>
</g>
</g>
<path d="m390.27 531.68 1.3594-5.39q0.58692-2.3271-1.7402-2.914l-7.5074-1.8934q-2.3271-0.58692-2.914 1.7402l-1.3594 5.39q-0.58692 2.3271 1.7402 2.914l7.5074 1.8934q2.3271 0.58692 2.914-1.7402z" clip-path="url(#a)" fill="#fff" stroke="#fff"/>
<g clip-path="url(#a)">
<g transform="translate(386.33 530.68) rotate(-75.845) scale(.08 -.08)">
<use xlink:href="#x"/>
</g>
</g>
<path d="m437.56 469.14 2.5021 4.9946q1.075 2.1458 3.2208 1.0708l6.9224-3.4679q2.1458-1.075 1.0708-3.2208l-2.5021-4.9946q-1.075-2.1458-3.2208-1.0708l-6.9224 3.4679q-2.1458 1.075-1.0708 3.2208z" clip-path="url(#a)" fill="#fff" stroke="#fff"/>
<g clip-path="url(#a)">
<g transform="translate(441.19 467.32) rotate(63.391) scale(.08 -.08)">
<use xlink:href="#z"/>
</g>
</g>
<path d="m348.83 686.47v35.285q0 2.4 2.4 2.4h7.7425q2.4 0 2.4-2.4v-35.285q0-2.4-2.4-2.4h-7.7425q-2.4 0-2.4 2.4z" clip-path="url(#a)" fill="#fff" stroke="#fff"/>
<g clip-path="url(#a)">
<g transform="translate(352.89 686.47) rotate(90) scale(.08 -.08)">
<use xlink:href="#l"/>
<use x="60.818359" xlink:href="#d"/>
<use x="122.341797" xlink:href="#k"/>
<use x="163.439453" xlink:href="#i"/>
<use x="260.851562" xlink:href="#h"/>
<use x="288.634766" xlink:href="#e"/>
<use x="352.013672" xlink:href="#g"/>
<use x="413.292969" xlink:href="#j"/>
</g>
</g>
<path d="m439.32 664.2 10.286-33.752q0.69964-2.2958-1.5961-2.9954l-7.4062-2.2571q-2.2958-0.69964-2.9954 1.5961l-10.286 33.752q-0.69964 2.2958 1.5961 2.9954l7.4062 2.2571q2.2958 0.69965 2.9954-1.5961z" clip-path="url(#a)" fill="#fff" stroke="#fff"/>
<g clip-path="url(#a)">
<g transform="translate(435.43 663.01) rotate(-73.051) scale(.08 -.08)">
<use xlink:href="#l"/>
<use x="60.818359" xlink:href="#d"/>
<use x="122.341797" xlink:href="#k"/>
<use x="163.439453" xlink:href="#i"/>
<use x="260.851562" xlink:href="#h"/>
<use x="288.634766" xlink:href="#e"/>
<use x="352.013672" xlink:href="#g"/>
<use x="413.292969" xlink:href="#j"/>
</g>
</g>
<path d="m478.07 628.57 3.5661 35.104q0.24256 2.3877 2.6303 2.1452l7.7029-0.7825q2.3877-0.24256 2.1452-2.6303l-3.5661-35.104q-0.24256-2.3877-2.6303-2.1452l-7.7029 0.7825q-2.3877 0.24256-2.1452 2.6303z" clip-path="url(#a)" fill="#fff" stroke="#fff"/>
<g clip-path="url(#a)">
<g transform="translate(482.12 628.16) rotate(84.199) scale(.08 -.08)">
<use xlink:href="#l"/>
<use x="60.818359" xlink:href="#d"/>
<use x="122.341797" xlink:href="#k"/>
<use x="163.439453" xlink:href="#i"/>
<use x="260.851562" xlink:href="#h"/>
<use x="288.634766" xlink:href="#e"/>
<use x="352.013672" xlink:href="#g"/>
<use x="413.292969" xlink:href="#j"/>
</g>
</g>
<path d="m498.77 630.44 10.286 33.752q0.69964 2.2958 2.9954 1.5961l7.4062-2.2571q2.2958-0.69964 1.5961-2.9954l-10.286-33.752q-0.69964-2.2958-2.9954-1.5961l-7.4062 2.2571q-2.2958 0.69964-1.5961 2.9954z" clip-path="url(#a)" fill="#fff" stroke="#fff"/>
<g clip-path="url(#a)">
<g transform="translate(502.66 629.26) rotate(73.051) scale(.08 -.08)">
<use xlink:href="#l"/>
<use x="60.818359" xlink:href="#d"/>
<use x="122.341797" xlink:href="#k"/>
<use x="163.439453" xlink:href="#i"/>
<use x="260.851562" xlink:href="#h"/>
<use x="288.634766" xlink:href="#e"/>
<use x="352.013672" xlink:href="#g"/>
<use x="413.292969" xlink:href="#j"/>
</g>
</g>
<path d="m467.84 590.99 1.1657-5.7378q0.47785-2.3519-1.8741-2.8298l-7.5875-1.5416q-2.3519-0.47785-2.8298 1.8741l-1.1657 5.7378q-0.47785 2.3519 1.8741 2.8298l7.5875 1.5416q2.3519 0.47785 2.8298-1.8741z" clip-path="url(#a)" fill="#fff" stroke="#fff"/>
<g clip-path="url(#a)">
<g transform="translate(463.86 590.19) rotate(-78.516) scale(.08 -.08)">
<use xlink:href="#u"/>
</g>
</g>
<path d="m444.1 686.47v35.285q0 2.4 2.4 2.4h7.7425q2.4 0 2.4-2.4v-35.285q0-2.4-2.4-2.4h-7.7425q-2.4 0-2.4 2.4z" clip-path="url(#a)" fill="#fff" stroke="#fff"/>
<g clip-path="url(#a)">
<g transform="translate(448.16 686.47) rotate(90) scale(.08 -.08)">
<use xlink:href="#l"/>
<use x="60.818359" xlink:href="#d"/>
<use x="122.341797" xlink:href="#k"/>
<use x="163.439453" xlink:href="#i"/>
<use x="260.851562" xlink:href="#h"/>
<use x="288.634766" xlink:href="#e"/>
<use x="352.013672" xlink:href="#g"/>
<use x="413.292969" xlink:href="#j"/>
</g>
</g>
<path d="m253.56 686.47v35.285q0 2.4 2.4 2.4h7.7425q2.4 0 2.4-2.4v-35.285q0-2.4-2.4-2.4h-7.7425q-2.4 0-2.4 2.4z" clip-path="url(#a)" fill="#fff" stroke="#fff"/>
<g clip-path="url(#a)">
<g transform="translate(257.62 686.47) rotate(90) scale(.08 -.08)">
<use xlink:href="#l"/>
<use x="60.818359" xlink:href="#d"/>
<use x="122.341797" xlink:href="#k"/>
<use x="163.439453" xlink:href="#i"/>
<use x="260.851562" xlink:href="#h"/>
<use x="288.634766" xlink:href="#e"/>
<use x="352.013672" xlink:href="#g"/>
<use x="413.292969" xlink:href="#j"/>
</g>
</g>
<path d="m301.19 686.47v35.285q0 2.4 2.4 2.4h7.7425q2.4 0 2.4-2.4v-35.285q0-2.4-2.4-2.4h-7.7425q-2.4 0-2.4 2.4z" clip-path="url(#a)" fill="#fff" stroke="#fff"/>
<g clip-path="url(#a)">
<g transform="translate(305.26 686.47) rotate(90) scale(.08 -.08)">
<use xlink:href="#l"/>
<use x="60.818359" xlink:href="#d"/>
<use x="122.341797" xlink:href="#k"/>
<use x="163.439453" xlink:href="#i"/>
<use x="260.851562" xlink:href="#h"/>
<use x="288.634766" xlink:href="#e"/>
<use x="352.013672" xlink:href="#g"/>
<use x="413.292969" xlink:href="#j"/>
</g>
</g>
<path d="m968.09 686.47v35.285q0 2.4 2.4 2.4h7.7425q2.4 0 2.4-2.4v-35.285q0-2.4-2.4-2.4h-7.7425q-2.4 0-2.4 2.4z" clip-path="url(#a)" fill="#fff" stroke="#fff"/>
<g clip-path="url(#a)">
<g transform="translate(972.15 686.47) rotate(90) scale(.08 -.08)">
<use xlink:href="#l"/>
<use x="60.818359" xlink:href="#d"/>
<use x="122.341797" xlink:href="#k"/>
<use x="163.439453" xlink:href="#i"/>
<use x="260.851562" xlink:href="#h"/>
<use x="288.634766" xlink:href="#e"/>
<use x="352.013672" xlink:href="#g"/>
<use x="413.292969" xlink:href="#j"/>
</g>
</g>
<path d="m1111 686.47v35.285q0 2.4 2.4 2.4h7.7425q2.4 0 2.4-2.4v-35.285q0-2.4-2.4-2.4h-7.7425q-2.4 0-2.4 2.4z" clip-path="url(#a)" fill="#fff" stroke="#fff"/>
<g clip-path="url(#a)">
<g transform="translate(1115.1 686.47) rotate(90) scale(.08 -.08)">
<use xlink:href="#l"/>
<use x="60.818359" xlink:href="#d"/>
<use x="122.341797" xlink:href="#k"/>
<use x="163.439453" xlink:href="#i"/>
<use x="260.851562" xlink:href="#h"/>
<use x="288.634766" xlink:href="#e"/>
<use x="352.013672" xlink:href="#g"/>
<use x="413.292969" xlink:href="#j"/>
</g>
</g>
<path d="m1158.6 686.47v35.285q0 2.4 2.4 2.4h7.7425q2.4 0 2.4-2.4v-35.285q0-2.4-2.4-2.4h-7.7425q-2.4 0-2.4 2.4z" clip-path="url(#a)" fill="#fff" stroke="#fff"/>
<g clip-path="url(#a)">
<g transform="translate(1162.7 686.47) rotate(90) scale(.08 -.08)">
<use xlink:href="#l"/>
<use x="60.818359" xlink:href="#d"/>
<use x="122.341797" xlink:href="#k"/>
<use x="163.439453" xlink:href="#i"/>
<use x="260.851562" xlink:href="#h"/>
<use x="288.634766" xlink:href="#e"/>
<use x="352.013672" xlink:href="#g"/>
<use x="413.292969" xlink:href="#j"/>
</g>
</g>
<path d="m1444.4 686.47v35.285q0 2.4 2.4 2.4h7.7425q2.4 0 2.4-2.4v-35.285q0-2.4-2.4-2.4h-7.7425q-2.4 0-2.4 2.4z" clip-path="url(#a)" fill="#fff" stroke="#fff"/>
<g clip-path="url(#a)">
<g transform="translate(1448.5 686.47) rotate(90) scale(.08 -.08)">
<use xlink:href="#l"/>
<use x="60.818359" xlink:href="#d"/>
<use x="122.341797" xlink:href="#k"/>
<use x="163.439453" xlink:href="#i"/>
<use x="260.851562" xlink:href="#h"/>
<use x="288.634766" xlink:href="#e"/>
<use x="352.013672" xlink:href="#g"/>
<use x="413.292969" xlink:href="#j"/>
</g>
</g>
<defs>
<path id="b" d="m0 8.6603c2.2967 0 4.4997-0.9125 6.1237-2.5365 1.624-1.624 2.5365-3.827 2.5365-6.1237s-0.9125-4.4997-2.5365-6.1237c-1.624-1.624-3.827-2.5365-6.1237-2.5365s-4.4997 0.9125-6.1237 2.5365c-1.624 1.624-2.5365 3.827-2.5365 6.1237s0.9125 4.4997 2.5365 6.1237c1.624 1.624 3.827 2.5365 6.1237 2.5365z"/>
</defs>
<g clip-path="url(#a)">
<use x="69.28632" y="762.722645" fill="#ffffff" stroke="#ffffff" xlink:href="#b"/>
</g>
<g clip-path="url(#a)">
<use x="116.921747" y="762.722645" fill="#ffffff" stroke="#ffffff" xlink:href="#b"/>
</g>
<g clip-path="url(#a)">
<use x="164.557173" y="762.722645" fill="#ffffff" stroke="#ffffff" xlink:href="#b"/>
</g>
<g clip-path="url(#a)">
<use x="212.192599" y="762.722645" fill="#ffffff" stroke="#ffffff" xlink:href="#b"/>
</g>
<g clip-path="url(#a)">
<use x="259.828025" y="762.722645" fill="#ffffff" stroke="#ffffff" xlink:href="#b"/>
</g>
<g clip-path="url(#a)">
<use x="307.463451" y="762.722645" fill="#ffffff" stroke="#ffffff" xlink:href="#b"/>
</g>
<g clip-path="url(#a)">
<use x="355.098877" y="762.722645" fill="#ffffff" stroke="#ffffff" xlink:href="#b"/>
</g>
<g clip-path="url(#a)">
<use x="402.734304" y="762.722645" fill="#ffffff" stroke="#ffffff" xlink:href="#b"/>
</g>
<g clip-path="url(#a)">
<use x="450.36973" y="762.722645" fill="#ffffff" stroke="#ffffff" xlink:href="#b"/>
</g>
<g clip-path="url(#a)">
<use x="498.005156" y="762.722645" fill="#ffffff" stroke="#ffffff" xlink:href="#b"/>
</g>
<g clip-path="url(#a)">
<use x="545.640582" y="762.722645" fill="#ffffff" stroke="#ffffff" xlink:href="#b"/>
</g>
<g clip-path="url(#a)">
<use x="593.276008" y="762.722645" fill="#ffffff" stroke="#ffffff" xlink:href="#b"/>
</g>
<g clip-path="url(#a)">
<use x="640.911435" y="762.722645" fill="#ffffff" stroke="#ffffff" xlink:href="#b"/>
</g>
<g clip-path="url(#a)">
<use x="688.546861" y="762.722645" fill="#ffffff" stroke="#ffffff" xlink:href="#b"/>
</g>
<g clip-path="url(#a)">
<use x="736.182287" y="762.722645" fill="#ffffff" stroke="#ffffff" xlink:href="#b"/>
</g>
<g clip-path="url(#a)">
<use x="783.817713" y="762.722645" fill="#ffffff" stroke="#ffffff" xlink:href="#b"/>
</g>
<g clip-path="url(#a)">
<use x="831.453139" y="762.722645" fill="#ffffff" stroke="#ffffff" xlink:href="#b"/>
</g>
<g clip-path="url(#a)">
<use x="879.088565" y="762.722645" fill="#ffffff" stroke="#ffffff" xlink:href="#b"/>
</g>
<g clip-path="url(#a)">
<use x="926.723992" y="762.722645" fill="#ffffff" stroke="#ffffff" xlink:href="#b"/>
</g>
<g clip-path="url(#a)">
<use x="974.359418" y="762.722645" fill="#ffffff" stroke="#ffffff" xlink:href="#b"/>
</g>
<g clip-path="url(#a)">
<use x="1021.994844" y="762.722645" fill="#ffffff" stroke="#ffffff" xlink:href="#b"/>
</g>
<g clip-path="url(#a)">
<use x="1069.63027" y="762.722645" fill="#ffffff" stroke="#ffffff" xlink:href="#b"/>
</g>
<g clip-path="url(#a)">
<use x="1117.265696" y="762.722645" fill="#ffffff" stroke="#ffffff" xlink:href="#b"/>
</g>
<g clip-path="url(#a)">
<use x="1164.901123" y="762.722645" fill="#ffffff" stroke="#ffffff" xlink:href="#b"/>
</g>
<g clip-path="url(#a)">
<use x="1212.536549" y="762.722645" fill="#ffffff" stroke="#ffffff" xlink:href="#b"/>
</g>
<g clip-path="url(#a)">
<use x="1260.171975" y="762.722645" fill="#ffffff" stroke="#ffffff" xlink:href="#b"/>
</g>
<g clip-path="url(#a)">
<use x="1307.807401" y="762.722645" fill="#ffffff" stroke="#ffffff" xlink:href="#b"/>
</g>
<g clip-path="url(#a)">
<use x="1355.442827" y="762.722645" fill="#ffffff" stroke="#ffffff" xlink:href="#b"/>
</g>
<g clip-path="url(#a)">
<use x="1403.078253" y="762.722645" fill="#ffffff" stroke="#ffffff" xlink:href="#b"/>
</g>
<g clip-path="url(#a)">
<use x="1450.71368" y="762.722645" fill="#ffffff" stroke="#ffffff" xlink:href="#b"/>
</g>
<g clip-path="url(#a)">
<use x="553.282098" y="37.277355" fill="#ffffff" stroke="#ffffff" xlink:href="#b"/>
</g>
<g clip-path="url(#a)">
<use x="210.207789" y="288.251704" fill="#ffffff" stroke="#ffffff" xlink:href="#b"/>
</g>
<g clip-path="url(#a)">
<use x="617.093721" y="528.262354" fill="#ffffff" stroke="#ffffff" xlink:href="#b"/>
</g>
<g clip-path="url(#a)">
<use x="832.544784" y="164.341577" fill="#ffffff" stroke="#ffffff" xlink:href="#b"/>
</g>
<g clip-path="url(#a)">
<use x="688.546861" y="645.492499" fill="#ffffff" stroke="#ffffff" xlink:href="#b"/>
</g>
<g clip-path="url(#a)">
<use x="736.182287" y="645.492499" fill="#ffffff" stroke="#ffffff" xlink:href="#b"/>
</g>
<g clip-path="url(#a)">
<use x="783.817713" y="645.492499" fill="#ffffff" stroke="#ffffff" xlink:href="#b"/>
</g>
<g clip-path="url(#a)">
<use x="831.453139" y="645.492499" fill="#ffffff" stroke="#ffffff" xlink:href="#b"/>
</g>
<g clip-path="url(#a)">
<use x="879.088565" y="645.492499" fill="#ffffff" stroke="#ffffff" xlink:href="#b"/>
</g>
<g clip-path="url(#a)">
<use x="1076.180141" y="288.251704" fill="#ffffff" stroke="#ffffff" xlink:href="#b"/>
</g>
<g clip-path="url(#a)">
<use x="926.723992" y="645.492499" fill="#ffffff" stroke="#ffffff" xlink:href="#b"/>
</g>
<g clip-path="url(#a)">
<use x="1045.812557" y="645.492499" fill="#ffffff" stroke="#ffffff" xlink:href="#b"/>
</g>
<g clip-path="url(#a)">
<use x="1228.018062" y="409.401407" fill="#ffffff" stroke="#ffffff" xlink:href="#b"/>
</g>
<g clip-path="url(#a)">
<use x="1212.536549" y="645.492499" fill="#ffffff" stroke="#ffffff" xlink:href="#b"/>
</g>
<g clip-path="url(#a)">
<use x="1260.171975" y="645.492499" fill="#ffffff" stroke="#ffffff" xlink:href="#b"/>
</g>
<g clip-path="url(#a)">
<use x="1307.807401" y="645.492499" fill="#ffffff" stroke="#ffffff" xlink:href="#b"/>
</g>
<g clip-path="url(#a)">
<use x="1313.761829" y="528.262354" fill="#ffffff" stroke="#ffffff" xlink:href="#b"/>
</g>
<g clip-path="url(#a)">
<use x="1355.442827" y="645.492499" fill="#ffffff" stroke="#ffffff" xlink:href="#b"/>
</g>
<g clip-path="url(#a)">
<use x="1403.078253" y="645.492499" fill="#ffffff" stroke="#ffffff" xlink:href="#b"/>
</g>
<g clip-path="url(#a)">
<use x="593.276008" y="645.492499" fill="#ffffff" stroke="#ffffff" xlink:href="#b"/>
</g>
<g clip-path="url(#a)">
<use x="640.911435" y="645.492499" fill="#ffffff" stroke="#ffffff" xlink:href="#b"/>
</g>
<g clip-path="url(#a)">
<use x="69.28632" y="645.492499" fill="#ffffff" stroke="#ffffff" xlink:href="#b"/>
</g>
<g clip-path="url(#a)">
<use x="116.921747" y="645.492499" fill="#ffffff" stroke="#ffffff" xlink:href="#b"/>
</g>
<g clip-path="url(#a)">
<use x="164.557173" y="645.492499" fill="#ffffff" stroke="#ffffff" xlink:href="#b"/>
</g>
<g clip-path="url(#a)">
<use x="212.192599" y="645.492499" fill="#ffffff" stroke="#ffffff" xlink:href="#b"/>
</g>
<g clip-path="url(#a)">
<use x="283.645738" y="528.262354" fill="#ffffff" stroke="#ffffff" xlink:href="#b"/>
</g>
<g clip-path="url(#a)">
<use x="414.64316" y="409.401407" fill="#ffffff" stroke="#ffffff" xlink:href="#b"/>
</g>
<g clip-path="url(#a)">
<use x="355.098877" y="645.492499" fill="#ffffff" stroke="#ffffff" xlink:href="#b"/>
</g>
<g clip-path="url(#a)">
<use x="474.187443" y="528.262354" fill="#ffffff" stroke="#ffffff" xlink:href="#b"/>
</g>
<g clip-path="url(#a)">
<use x="450.36973" y="645.492499" fill="#ffffff" stroke="#ffffff" xlink:href="#b"/>
</g>
<g clip-path="url(#a)">
<use x="259.828025" y="645.492499" fill="#ffffff" stroke="#ffffff" xlink:href="#b"/>
</g>
<g clip-path="url(#a)">
<use x="307.463451" y="645.492499" fill="#ffffff" stroke="#ffffff" xlink:href="#b"/>
</g>
<g clip-path="url(#a)">
<use x="974.359418" y="645.492499" fill="#ffffff" stroke="#ffffff" xlink:href="#b"/>
</g>
<g clip-path="url(#a)">
<use x="1117.265696" y="645.492499" fill="#ffffff" stroke="#ffffff" xlink:href="#b"/>
</g>
<g clip-path="url(#a)">
<use x="1164.901123" y="645.492499" fill="#ffffff" stroke="#ffffff" xlink:href="#b"/>
</g>
<g clip-path="url(#a)">
<use x="1450.71368" y="645.492499" fill="#ffffff" stroke="#ffffff" xlink:href="#b"/>
</g>
<g clip-path="url(#a)">
<defs>
<path id="ap" d="m18.109 8.2031v-29h-9.0312v75.484h9.0312v-8.2969q2.8438 4.875 7.1562 7.2344 4.3281 2.375 10.328 2.375 9.9688 0 16.188-7.9062 6.2344-7.9062 6.2344-20.797t-6.2344-20.812q-6.2188-7.9062-16.188-7.9062-6 0-10.328 2.375-4.3125 2.375-7.1562 7.25zm30.578 19.094q0 9.9062-4.0781 15.547t-11.203 5.6406q-7.1406 0-11.219-5.6406t-4.0781-15.547 4.0781-15.547 11.219-5.6406q7.125 0 11.203 5.6406t4.0781 15.547z"/>
<path id="ak" d="m48.688 27.297q0 9.9062-4.0781 15.547t-11.203 5.6406q-7.1406 0-11.219-5.6406t-4.0781-15.547 4.0781-15.547 11.219-5.6406q7.125 0 11.203 5.6406t4.0781 15.547zm-30.578 19.094q2.8438 4.875 7.1562 7.2344 4.3281 2.375 10.328 2.375 9.9688 0 16.188-7.9062 6.2344-7.9062 6.2344-20.797t-6.2344-20.812q-6.2188-7.9062-16.188-7.9062-6 0-10.328 2.375-4.3125 2.375-7.1562 7.25v-8.2031h-9.0312v75.984h9.0312z"/>
<path id="aj" d="m8.5 21.578v33.109h8.9844v-32.766q0-7.7656 3.0156-11.656 3.0312-3.875 9.0938-3.875 7.2656 0 11.484 4.6406 4.2344 4.6406 4.2344 12.656v31h8.9844v-54.688h-8.9844v8.4062q-3.2656-4.9844-7.5938-7.4062-4.3125-2.4219-10.031-2.4219-9.4219 0-14.312 5.8594-4.875 5.8594-4.875 17.141z"/>
</defs>
<g transform="translate(47.709 765.48) scale(.1 -.1)">
<use xlink:href="#ag"/>
<use x="75.195312" xlink:href="#d"/>
<use x="136.71875" xlink:href="#ap"/>
<use x="200.195312" xlink:href="#ak"/>
<use x="263.671875" xlink:href="#aj"/>
<use x="327.050781" xlink:href="#k"/>
<use x="368.148438" xlink:href="#e"/>
</g>
</g>
<g clip-path="url(#a)">
<defs>
<path id="t" d="m45.406 46.391v29.594h8.9844v-75.984h-8.9844v8.2031q-2.8281-4.875-7.1562-7.25-4.3125-2.375-10.375-2.375-9.9062 0-16.141 7.9062-6.2188 7.9219-6.2188 20.812t6.2188 20.797q6.2344 7.9062 16.141 7.9062 6.0625 0 10.375-2.375 4.3281-2.3594 7.1562-7.2344zm-30.609-19.094q0-9.9062 4.0781-15.547t11.203-5.6406 11.219 5.6406q4.1094 5.6406 4.1094 15.547t-4.1094 15.547q-4.0938 5.6406-11.219 5.6406t-11.203-5.6406-4.0781-15.547z"/>
</defs>
<g transform="translate(102.74 765.48) scale(.1 -.1)">
<use xlink:href="#i"/>
<use x="97.412109" xlink:href="#g"/>
<use x="158.691406" xlink:href="#t"/>
<use x="222.167969" xlink:href="#d"/>
</g>
</g>
<g clip-path="url(#a)">
<defs>
<path id="r" d="m18.312 70.219v-15.531h18.5v-6.9844h-18.5v-29.688q0-6.6875 1.8281-8.5938t7.4531-1.9062h9.2188v-7.5156h-9.2188q-10.406 0-14.359 3.875-3.9531 3.8906-3.9531 14.141v29.688h-6.5938v6.9844h6.5938v15.531z"/>
<path id="q" d="m54.891 33.016v-33.016h-8.9844v32.719q0 7.7656-3.0312 11.609-3.0312 3.8594-9.0781 3.8594-7.2812 0-11.484-4.6406-4.2031-4.625-4.2031-12.641v-30.906h-9.0312v75.984h9.0312v-29.797q3.2344 4.9375 7.5938 7.375 4.375 2.4375 10.094 2.4375 9.4219 0 14.25-5.8281 4.8438-5.8281 4.8438-17.156z"/>
</defs>
<g transform="translate(149.99 765.48) scale(.1 -.1)">
<use xlink:href="#w"/>
<use x="63.476562" xlink:href="#i"/>
<use x="160.888672" xlink:href="#h"/>
<use x="188.671875" xlink:href="#r"/>
<use x="227.880859" xlink:href="#q"/>
</g>
</g>
<g clip-path="url(#a)">
<defs>
<path id="ae" d="m48.781 52.594v-8.4062q-3.8125 2.1094-7.6406 3.1562t-7.7344 1.0469q-8.75 0-13.594-5.5469-4.8281-5.5312-4.8281-15.547t4.8281-15.562q4.8438-5.5312 13.594-5.5312 3.9062 0 7.7344 1.0469t7.6406 3.1562v-8.3125q-3.7656-1.75-7.7969-2.625-4.0156-0.89062-8.5625-0.89062-12.359 0-19.641 7.7656-7.2656 7.7656-7.2656 20.953 0 13.375 7.3438 21.031 7.3594 7.6719 20.156 7.6719 4.1406 0 8.0938-0.85938 3.9531-0.84375 7.6719-2.5469z"/>
<path id="aq" d="m45.406 27.984q0 9.7656-4.0312 15.125-4.0156 5.375-11.297 5.375-7.2188 0-11.25-5.375-4.0312-5.3594-4.0312-15.125 0-9.7188 4.0312-15.094t11.25-5.375q7.2812 0 11.297 5.375 4.0312 5.375 4.0312 15.094zm8.9844-21.203q0-13.953-6.2031-20.766-6.1875-6.8125-18.984-6.8125-4.7344 0-8.9375 0.70312t-8.1562 2.1719v8.7344q3.9531-2.1406 7.8125-3.1562 3.8594-1.0312 7.8594-1.0312 8.8438 0 13.234 4.6094t4.3906 13.938v4.4531q-2.7812-4.8438-7.125-7.2344t-10.406-2.3906q-10.047 0-16.203 7.6562-6.1562 7.6719-6.1562 20.328 0 12.688 6.1562 20.344 6.1562 7.6719 16.203 7.6719 6.0625 0 10.406-2.3906t7.125-7.2188v8.2969h8.9844z"/>
</defs>
<g transform="translate(193.79 765.48) scale(.1 -.1)">
<use xlink:href="#ae"/>
<use x="54.980469" xlink:href="#q"/>
<use x="118.359375" xlink:href="#g"/>
<use x="179.638672" xlink:href="#e"/>
<use x="243.017578" xlink:href="#aq"/>
<use x="306.494141" xlink:href="#d"/>
</g>
</g>
<g clip-path="url(#a)">
<defs>
<path id="s" d="m44.281 53.078v-8.5q-3.7969 1.9531-7.9062 2.9219-4.0938 0.98438-8.5 0.98438-6.6875 0-10.031-2.0469t-3.3438-6.1562q0-3.125 2.3906-4.9062t9.625-3.3906l3.0781-0.6875q9.5625-2.0469 13.594-5.7812t4.0312-10.422q0-7.625-6.0312-12.078-6.0312-4.4375-16.578-4.4375-4.3906 0-9.1562 0.85938t-10.031 2.5625v9.2812q4.9844-2.5938 9.8125-3.8906 4.8281-1.2812 9.5781-1.2812 6.3438 0 9.75 2.1719 3.4219 2.1719 3.4219 6.125 0 3.6562-2.4688 5.6094-2.4531 1.9531-10.812 3.7656l-3.125 0.73438q-8.3438 1.75-12.062 5.3906-3.7031 3.6406-3.7031 9.9844 0 7.7188 5.4688 11.906 5.4688 4.2031 15.531 4.2031 4.9688 0 9.3594-0.73438 4.4062-0.71875 8.1094-2.1875z"/>
</defs>
<g transform="translate(252.67 765.48) scale(.1 -.1)">
<use xlink:href="#q"/>
<use x="63.378906" xlink:href="#h"/>
<use x="91.162109" xlink:href="#s"/>
</g>
</g>
<g clip-path="url(#a)">
<g transform="translate(293.28 765.48) scale(.1 -.1)">
<use xlink:href="#e"/>
<use x="63.378906" xlink:href="#g"/>
<use x="124.658203" xlink:href="#i"/>
<use x="222.070312" xlink:href="#d"/>
</g>
</g>
<g clip-path="url(#a)">
<defs>
<path id="p" d="m30.609 48.391q-7.2188 0-11.422-5.6406t-4.2031-15.453 4.1719-15.453q4.1875-5.6406 11.453-5.6406 7.1875 0 11.375 5.6562 4.2031 5.6719 4.2031 15.438 0 9.7188-4.2031 15.406-4.1875 5.6875-11.375 5.6875zm0 7.6094q11.719 0 18.406-7.625 6.7031-7.6094 6.7031-21.078 0-13.422-6.7031-21.078-6.6875-7.6406-18.406-7.6406-11.766 0-18.438 7.6406-6.6562 7.6562-6.6562 21.078 0 13.469 6.6562 21.078 6.6719 7.625 18.438 7.625z"/>
</defs>
<g transform="translate(350.08 765.48) scale(.1 -.1)">
<use xlink:href="#r"/>
<use x="39.208984" xlink:href="#p"/>
</g>
</g>
<g clip-path="url(#a)">
<g transform="translate(399.56 765.48) scale(.1 -.1)">
<use xlink:href="#w"/>
</g>
</g>
<g clip-path="url(#a)">
<defs>
<path id="f" d="m10.688 12.406h10.312v-12.406h-10.312z"/>
</defs>
<g transform="translate(448.78 765.48) scale(.1 -.1)">
<use xlink:href="#f"/>
</g>
</g>
<g clip-path="url(#a)">
<defs>
<path id="ar" d="m39.406 66.219q-10.75 0-17.078-8.0156-6.3125-8-6.3125-21.828 0-13.766 6.3125-21.781 6.3281-8 17.078-8 10.734 0 17.016 8 6.2812 8.0156 6.2812 21.781 0 13.828-6.2812 21.828-6.2812 8.0156-17.016 8.0156zm0 8q15.328 0 24.5-10.281 9.1875-10.281 9.1875-27.562 0-17.234-9.1875-27.516-9.1719-10.281-24.5-10.281-15.375 0-24.594 10.25-9.2031 10.266-9.2031 27.547t9.2031 27.562q9.2188 10.281 24.594 10.281z"/>
</defs>
<g transform="translate(481.48 765.48) scale(.1 -.1)">
<use xlink:href="#ar"/>
<use x="78.710938" xlink:href="#aq"/>
<use x="142.1875" xlink:href="#t"/>
<use x="205.664062" xlink:href="#d"/>
<use x="267.1875" xlink:href="#e"/>
</g>
</g>
<g clip-path="url(#a)">
<defs>
<path id="ad" d="m4.2031 54.688h8.9844l11.234-42.672 11.172 42.672h10.594l11.234-42.672 11.188 42.672h8.9844l-14.312-54.688h-10.594l-11.766 44.828-11.812-44.828h-10.609z"/>
</defs>
<g transform="translate(527.97 765.48) scale(.1 -.1)">
<use xlink:href="#al"/>
<use x="55.697266" xlink:href="#aj"/>
<use x="119.076172" xlink:href="#t"/>
<use x="182.552734" xlink:href="#j"/>
<use x="210.335938" xlink:href="#p"/>
<use x="271.517578" xlink:href="#ad"/>
</g>
</g>
<g clip-path="url(#a)">
<g transform="translate(587.61 765.48) scale(.1 -.1)">
<use xlink:href="#s"/>
<use x="52.099609" xlink:href="#p"/>
</g>
</g>
<g clip-path="url(#a)">
<g transform="translate(630.76 765.48) scale(.1 -.1)">
<use xlink:href="#r"/>
<use x="39.208984" xlink:href="#q"/>
<use x="102.587891" xlink:href="#g"/>
<use x="163.867188" xlink:href="#r"/>
</g>
</g>
<g clip-path="url(#a)">
<g transform="translate(679.7 765.48) scale(.1 -.1)">
<use xlink:href="#s"/>
<use x="52.099609" xlink:href="#q"/>
<use x="115.478516" xlink:href="#d"/>
</g>
</g>
<g clip-path="url(#a)">
<g transform="translate(721.3 765.48) scale(.1 -.1)">
<use xlink:href="#ad"/>
<use x="81.787109" xlink:href="#p"/>
<use x="142.96875" xlink:href="#aj"/>
<use x="206.347656" xlink:href="#j"/>
<use x="234.130859" xlink:href="#t"/>
</g>
</g>
<g clip-path="url(#a)">
<g transform="translate(775.63 765.48) scale(.1 -.1)">
<use xlink:href="#e"/>
<use x="63.378906" xlink:href="#p"/>
<use x="124.560547" xlink:href="#r"/>
</g>
</g>
<g clip-path="url(#a)">
<g transform="translate(825.2 765.48) scale(.1 -.1)">
<use xlink:href="#ak"/>
<use x="63.476562" xlink:href="#d"/>
</g>
</g>
<g clip-path="url(#a)">
<defs>
<path id="av" d="m9.0781 75.984h9.0312v-44.875l26.812 23.578h11.469l-29-25.578 30.234-29.109h-11.719l-27.797 26.703v-26.703h-9.0312z"/>
</defs>
<g transform="translate(862.71 765.48) scale(.1 -.1)">
<use xlink:href="#av"/>
<use x="57.910156" xlink:href="#e"/>
<use x="121.289062" xlink:href="#p"/>
<use x="182.470703" xlink:href="#ad"/>
<use x="264.257812" xlink:href="#e"/>
</g>
</g>
<g clip-path="url(#a)">
<g transform="translate(921.06 765.48) scale(.1 -.1)">
<use xlink:href="#g"/>
<use x="61.279297" xlink:href="#s"/>
</g>
</g>
<g clip-path="url(#a)">
<defs>
<path id="ao" d="m17.922 72.906v-27.109h-8.2969v27.109zm18.453 0v-27.109h-8.2969v27.109z"/>
</defs>
<g transform="translate(972.06 765.48) scale(.1 -.1)">
<use xlink:href="#ao"/>
</g>
</g>
<g clip-path="url(#a)">
<defs>
<path id="as" d="m9.8125 72.906h9.8594v-30.812l32.719 30.812h12.703l-36.188-33.984 38.766-38.922h-12.984l-35.016 35.109v-35.109h-9.8594z"/>
</defs>
<g transform="translate(1010.6 765.48) scale(.1 -.1)">
<use xlink:href="#as"/>
<use x="65.560547" xlink:href="#g"/>
<use x="126.839844" xlink:href="#r"/>
<use x="166.048828" xlink:href="#d"/>
</g>
</g>
<g clip-path="url(#a)">
<g transform="translate(1055.1 765.48) scale(.1 -.1)">
<use xlink:href="#w"/>
<use x="63.476562" xlink:href="#i"/>
<use x="160.888672" xlink:href="#h"/>
<use x="188.671875" xlink:href="#r"/>
<use x="227.880859" xlink:href="#q"/>
</g>
</g>
<g clip-path="url(#a)">
<g transform="translate(1115 765.48) scale(.1 -.1)">
<use xlink:href="#ao"/>
</g>
</g>
<g clip-path="url(#a)">
<defs>
<path id="au" d="m11.719 12.406h10.297v-8.4062l-8-15.625h-6.2969l4 15.625z"/>
</defs>
<g transform="translate(1163.3 765.48) scale(.1 -.1)">
<use xlink:href="#au"/>
</g>
</g>
<g clip-path="url(#a)">
<g transform="translate(1198 765.48) scale(.1 -.1)">
<use xlink:href="#ad"/>
<use x="81.787109" xlink:href="#q"/>
<use x="145.166016" xlink:href="#h"/>
<use x="172.949219" xlink:href="#ae"/>
<use x="227.929688" xlink:href="#q"/>
</g>
</g>
<g clip-path="url(#a)">
<g transform="translate(1251.3 765.48) scale(.1 -.1)">
<use xlink:href="#s"/>
<use x="52.099609" xlink:href="#q"/>
<use x="115.478516" xlink:href="#d"/>
</g>
</g>
<g clip-path="url(#a)">
<g transform="translate(1280.3 765.48) scale(.1 -.1)">
<use xlink:href="#ae"/>
<use x="54.980469" xlink:href="#p"/>
<use x="116.162109" xlink:href="#e"/>
<use x="179.541016" xlink:href="#s"/>
<use x="231.640625" xlink:href="#h"/>
<use x="259.423828" xlink:href="#t"/>
<use x="322.900391" xlink:href="#d"/>
<use x="384.423828" xlink:href="#k"/>
<use x="425.505859" xlink:href="#d"/>
<use x="487.029297" xlink:href="#t"/>
</g>
</g>
<g clip-path="url(#a)">
<g transform="translate(1347.4 765.48) scale(.1 -.1)">
<use xlink:href="#r"/>
<use x="39.208984" xlink:href="#p"/>
<use x="100.390625" xlink:href="#p"/>
</g>
</g>
<g clip-path="url(#a)">
<g transform="translate(1390.9 765.48) scale(.1 -.1)">
<use xlink:href="#ap"/>
<use x="63.476562" xlink:href="#j"/>
<use x="91.259766" xlink:href="#g"/>
<use x="152.539062" xlink:href="#h"/>
<use x="180.322266" xlink:href="#e"/>
</g>
</g>
<g clip-path="url(#a)">
<g transform="translate(1449.1 765.48) scale(.1 -.1)">
<use xlink:href="#f"/>
</g>
</g>
<g clip-path="url(#a)">
<defs>
<path id="c" d="m12.406 8.2969h16.109v55.625l-17.531-3.5156v8.9844l17.438 3.5156h9.8594v-64.609h16.109v-8.2969h-41.984z"/>
</defs>
<g transform="translate(545.33 40.037) scale(.1 -.1)">
<use xlink:href="#c"/>
<use x="63.623047" xlink:href="#f"/>
<use x="95.410156" xlink:href="#c"/>
</g>
</g>
<g clip-path="url(#a)">
<defs>
<path id="n" d="m19.188 8.2969h34.422v-8.2969h-46.281v8.2969q5.6094 5.8125 15.297 15.594 9.7031 9.7969 12.188 12.641 4.7344 5.3125 6.6094 9 1.8906 3.6875 1.8906 7.25 0 5.8125-4.0781 9.4688-4.0781 3.6719-10.625 3.6719-4.6406 0-9.7969-1.6094-5.1406-1.6094-11-4.8906v9.9688q5.9531 2.3906 11.125 3.6094 5.1875 1.2188 9.4844 1.2188 11.328 0 18.062-5.6719 6.7344-5.6562 6.7344-15.125 0-4.5-1.6875-8.5312-1.6719-4.0156-6.125-9.4844-1.2188-1.4219-7.7656-8.1875-6.5312-6.7656-18.453-18.922z"/>
</defs>
<g transform="translate(202.26 291.01) scale(.1 -.1)">
<use xlink:href="#c"/>
<use x="63.623047" xlink:href="#f"/>
<use x="95.410156" xlink:href="#n"/>
</g>
</g>
<g clip-path="url(#a)">
<defs>
<path id="m" d="m40.578 39.312q7.0781-1.5156 11.047-6.3125 3.9844-4.7812 3.9844-11.812 0-10.781-7.4219-16.703-7.4219-5.9062-21.094-5.9062-4.5781 0-9.4375 0.90625t-10.031 2.7188v9.5156q4.0938-2.3906 8.9688-3.6094 4.8906-1.2188 10.219-1.2188 9.2656 0 14.125 3.6562t4.8594 10.641q0 6.4531-4.5156 10.078-4.5156 3.6406-12.562 3.6406h-8.5v8.1094h8.8906q7.2656 0 11.125 2.9062t3.8594 8.375q0 5.6094-3.9844 8.6094-3.9688 3.0156-11.391 3.0156-4.0625 0-8.7031-0.89062-4.6406-0.875-10.203-2.7188v8.7812q5.625 1.5625 10.531 2.3438t9.25 0.78125q11.234 0 17.766-5.1094 6.5469-5.0938 6.5469-13.781 0-6.0625-3.4688-10.234t-9.8594-5.7812z"/>
</defs>
<g transform="translate(609.14 531.02) scale(.1 -.1)">
<use xlink:href="#c"/>
<use x="63.623047" xlink:href="#f"/>
<use x="95.410156" xlink:href="#m"/>
</g>
</g>
<g clip-path="url(#a)">
<defs>
<path id="v" d="m37.797 64.312-24.906-38.922h24.906zm-2.5938 8.5938h12.406v-47.516h10.406v-8.2031h-10.406v-17.188h-9.8125v17.188h-32.906v9.5156z"/>
</defs>
<g transform="translate(824.59 167.1) scale(.1 -.1)">
<use xlink:href="#c"/>
<use x="63.623047" xlink:href="#f"/>
<use x="95.410156" xlink:href="#v"/>
</g>
</g>
<g clip-path="url(#a)">
<defs>
<path id="ai" d="m33.016 40.375q-6.6406 0-10.531-4.5469-3.875-4.5312-3.875-12.438 0-7.8594 3.875-12.438 3.8906-4.5625 10.531-4.5625t10.516 4.5625q3.875 4.5781 3.875 12.438 0 7.9062-3.875 12.438-3.875 4.5469-10.516 4.5469zm19.578 30.922v-8.9844q-3.7188 1.75-7.5 2.6719-3.7812 0.9375-7.5 0.9375-9.7656 0-14.922-6.5938-5.1406-6.5938-5.875-19.922 2.875 4.25 7.2188 6.5156 4.3594 2.2656 9.5781 2.2656 10.984 0 17.359-6.6719 6.375-6.6562 6.375-18.125 0-11.234-6.6406-18.031-6.6406-6.7812-17.672-6.7812-12.656 0-19.344 9.6875-6.6875 9.7031-6.6875 28.109 0 17.281 8.2031 27.562t22.016 10.281q3.7188 0 7.5-0.73438t7.8906-2.1875z"/>
</defs>
<g transform="translate(680.6 648.25) scale(.1 -.1)">
<use xlink:href="#c"/>
<use x="63.623047" xlink:href="#f"/>
<use x="95.410156" xlink:href="#ai"/>
</g>
</g>
<g clip-path="url(#a)">
<defs>
<path id="ah" d="m8.2031 72.906h46.875v-4.2031l-26.469-68.703h-10.297l24.906 64.594h-35.016z"/>
</defs>
<g transform="translate(728.23 648.25) scale(.1 -.1)">
<use xlink:href="#c"/>
<use x="63.623047" xlink:href="#f"/>
<use x="95.410156" xlink:href="#ah"/>
</g>
</g>
<g clip-path="url(#a)">
<defs>
<path id="ab" d="m31.781 34.625q-7.0312 0-11.062-3.7656-4.0156-3.7656-4.0156-10.344 0-6.5938 4.0156-10.359 4.0312-3.7656 11.062-3.7656t11.078 3.7812q4.0625 3.7969 4.0625 10.344 0 6.5781-4.0312 10.344-4.0156 3.7656-11.109 3.7656zm-9.8594 4.1875q-6.3438 1.5625-9.8906 5.9062-3.5312 4.3594-3.5312 10.609 0 8.7344 6.2188 13.812 6.2344 5.0781 17.062 5.0781 10.891 0 17.094-5.0781t6.2031-13.812q0-6.25-3.5469-10.609-3.5312-4.3438-9.8281-5.9062 7.125-1.6562 11.094-6.5 3.9844-4.8281 3.9844-11.797 0-10.609-6.4688-16.281-6.4688-5.6562-18.531-5.6562-12.047 0-18.531 5.6562-6.4688 5.6719-6.4688 16.281 0 6.9688 4 11.797 4.0156 4.8438 11.141 6.5zm-3.6094 15.578q0-5.6562 3.5312-8.8281 3.5469-3.1719 9.9375-3.1719 6.3594 0 9.9375 3.1719 3.5938 3.1719 3.5938 8.8281 0 5.6719-3.5938 8.8438-3.5781 3.1719-9.9375 3.1719-6.3906 0-9.9375-3.1719-3.5312-3.1719-3.5312-8.8438z"/>
</defs>
<g transform="translate(775.87 648.25) scale(.1 -.1)">
<use xlink:href="#c"/>
<use x="63.623047" xlink:href="#f"/>
<use x="95.410156" xlink:href="#ab"/>
</g>
</g>
<g clip-path="url(#a)">
<defs>
<path id="aa" d="m10.984 1.5156v8.9844q3.7188-1.7656 7.5156-2.6875 3.8125-0.92188 7.4844-0.92188 9.7656 0 14.906 6.5625 5.1562 6.5625 5.8906 19.953-2.8281-4.2031-7.1875-6.4531-4.3438-2.25-9.6094-2.25-10.938 0-17.312 6.6094-6.375 6.625-6.375 18.109 0 11.219 6.6406 18 6.6406 6.7969 17.672 6.7969 12.656 0 19.312-9.7031 6.6719-9.6875 6.6719-28.141 0-17.234-8.1875-27.516-8.1719-10.281-21.984-10.281-3.7188 0-7.5312 0.73438-3.7969 0.73438-7.9062 2.2031zm19.625 30.906q6.6406 0 10.516 4.5312 3.8906 4.5469 3.8906 12.469 0 7.8594-3.8906 12.422-3.875 4.5625-10.516 4.5625t-10.516-4.5625-3.875-12.422q0-7.9219 3.875-12.469 3.875-4.5312 10.516-4.5312z"/>
</defs>
<g transform="translate(823.5 648.25) scale(.1 -.1)">
<use xlink:href="#c"/>
<use x="63.623047" xlink:href="#f"/>
<use x="95.410156" xlink:href="#aa"/>
</g>
</g>
<g clip-path="url(#a)">
<defs>
<path id="ac" d="m31.781 66.406q-7.6094 0-11.453-7.5-3.8281-7.4844-3.8281-22.531 0-14.984 3.8281-22.484 3.8438-7.5 11.453-7.5 7.6719 0 11.5 7.5 3.8438 7.5 3.8438 22.484 0 15.047-3.8438 22.531-3.8281 7.5-11.5 7.5zm0 7.8125q12.266 0 18.734-9.7031 6.4688-9.6875 6.4688-28.141 0-18.406-6.4688-28.109-6.4688-9.6875-18.734-9.6875-12.25 0-18.719 9.6875-6.4688 9.7031-6.4688 28.109 0 18.453 6.4688 28.141 6.4688 9.7031 18.719 9.7031z"/>
</defs>
<g transform="translate(867.96 648.25) scale(.1 -.1)">
<use xlink:href="#c"/>
<use x="63.623047" xlink:href="#f"/>
<use x="95.410156" xlink:href="#c"/>
<use x="159.033203" xlink:href="#ac"/>
</g>
</g>
<g clip-path="url(#a)">
<g transform="translate(1065 291.01) scale(.1 -.1)">
<use xlink:href="#c"/>
<use x="63.623047" xlink:href="#f"/>
<use x="95.410156" xlink:href="#c"/>
<use x="159.033203" xlink:href="#c"/>
</g>
</g>
<g clip-path="url(#a)">
<g transform="translate(915.59 648.25) scale(.1 -.1)">
<use xlink:href="#c"/>
<use x="63.623047" xlink:href="#f"/>
<use x="95.410156" xlink:href="#c"/>
<use x="159.033203" xlink:href="#n"/>
</g>
</g>
<g clip-path="url(#a)">
<g transform="translate(1034.7 648.25) scale(.1 -.1)">
<use xlink:href="#c"/>
<use x="63.623047" xlink:href="#f"/>
<use x="95.410156" xlink:href="#c"/>
<use x="159.033203" xlink:href="#m"/>
</g>
</g>
<g clip-path="url(#a)">
<g transform="translate(1216.9 412.16) scale(.1 -.1)">
<use xlink:href="#c"/>
<use x="63.623047" xlink:href="#f"/>
<use x="95.410156" xlink:href="#c"/>
<use x="159.033203" xlink:href="#v"/>
</g>
</g>
<g clip-path="url(#a)">
<g transform="translate(1201.4 648.25) scale(.1 -.1)">
<use xlink:href="#c"/>
<use x="63.623047" xlink:href="#f"/>
<use x="95.410156" xlink:href="#c"/>
<use x="159.033203" xlink:href="#ab"/>
</g>
</g>
<g clip-path="url(#a)">
<g transform="translate(1249 648.25) scale(.1 -.1)">
<use xlink:href="#c"/>
<use x="63.623047" xlink:href="#f"/>
<use x="95.410156" xlink:href="#c"/>
<use x="159.033203" xlink:href="#aa"/>
</g>
</g>
<g clip-path="url(#a)">
<g transform="translate(1296.7 648.25) scale(.1 -.1)">
<use xlink:href="#c"/>
<use x="63.623047" xlink:href="#f"/>
<use x="95.410156" xlink:href="#n"/>
<use x="159.033203" xlink:href="#ac"/>
</g>
</g>
<g clip-path="url(#a)">
<g transform="translate(1302.6 531.02) scale(.1 -.1)">
<use xlink:href="#c"/>
<use x="63.623047" xlink:href="#f"/>
<use x="95.410156" xlink:href="#n"/>
<use x="159.033203" xlink:href="#c"/>
</g>
</g>
<g clip-path="url(#a)">
<g transform="translate(1344.3 648.25) scale(.1 -.1)">
<use xlink:href="#c"/>
<use x="63.623047" xlink:href="#f"/>
<use x="95.410156" xlink:href="#n"/>
<use x="159.033203" xlink:href="#n"/>
</g>
</g>
<g clip-path="url(#a)">
<g transform="translate(1391.9 648.25) scale(.1 -.1)">
<use xlink:href="#c"/>
<use x="63.623047" xlink:href="#f"/>
<use x="95.410156" xlink:href="#n"/>
<use x="159.033203" xlink:href="#m"/>
</g>
</g>
<g clip-path="url(#a)">
<g transform="translate(582.14 648.25) scale(.1 -.1)">
<use xlink:href="#c"/>
<use x="63.623047" xlink:href="#f"/>
<use x="95.410156" xlink:href="#n"/>
<use x="159.033203" xlink:href="#v"/>
</g>
</g>
<g clip-path="url(#a)">
<defs>
<path id="an" d="m10.797 72.906h38.719v-8.3125h-29.688v-17.859q2.1406 0.73438 4.2812 1.0938 2.1562 0.35938 4.3125 0.35938 12.203 0 19.328-6.6875 7.1406-6.6875 7.1406-18.109 0-11.766-7.3281-18.297-7.3281-6.5156-20.656-6.5156-4.5938 0-9.3594 0.78125-4.75 0.78125-9.8281 2.3438v9.9219q4.3906-2.3906 9.0781-3.5625t9.9062-1.1719q8.4531 0 13.375 4.4375 4.9375 4.4375 4.9375 12.062 0 7.6094-4.9375 12.047-4.9219 4.4531-13.375 4.4531-3.9531 0-7.8906-0.875-3.9219-0.875-8.0156-2.7344z"/>
</defs>
<g transform="translate(629.78 648.25) scale(.1 -.1)">
<use xlink:href="#c"/>
<use x="63.623047" xlink:href="#f"/>
<use x="95.410156" xlink:href="#n"/>
<use x="159.033203" xlink:href="#an"/>
</g>
</g>
<g clip-path="url(#a)">
<g transform="translate(58.154 648.25) scale(.1 -.1)">
<use xlink:href="#c"/>
<use x="63.623047" xlink:href="#f"/>
<use x="95.410156" xlink:href="#n"/>
<use x="159.033203" xlink:href="#ai"/>
</g>
</g>
<g clip-path="url(#a)">
<g transform="translate(105.79 648.25) scale(.1 -.1)">
<use xlink:href="#c"/>
<use x="63.623047" xlink:href="#f"/>
<use x="95.410156" xlink:href="#n"/>
<use x="159.033203" xlink:href="#ah"/>
</g>
</g>
<g clip-path="url(#a)">
<g transform="translate(153.42 648.25) scale(.1 -.1)">
<use xlink:href="#c"/>
<use x="63.623047" xlink:href="#f"/>
<use x="95.410156" xlink:href="#n"/>
<use x="159.033203" xlink:href="#ab"/>
</g>
</g>
<g clip-path="url(#a)">
<g transform="translate(201.06 648.25) scale(.1 -.1)">
<use xlink:href="#c"/>
<use x="63.623047" xlink:href="#f"/>
<use x="95.410156" xlink:href="#n"/>
<use x="159.033203" xlink:href="#aa"/>
</g>
</g>
<g clip-path="url(#a)">
<g transform="translate(272.51 531.02) scale(.1 -.1)">
<use xlink:href="#c"/>
<use x="63.623047" xlink:href="#f"/>
<use x="95.410156" xlink:href="#m"/>
<use x="159.033203" xlink:href="#ac"/>
</g>
</g>
<g clip-path="url(#a)">
<g transform="translate(403.51 412.16) scale(.1 -.1)">
<use xlink:href="#c"/>
<use x="63.623047" xlink:href="#f"/>
<use x="95.410156" xlink:href="#m"/>
<use x="159.033203" xlink:href="#c"/>
</g>
</g>
<g clip-path="url(#a)">
<g transform="translate(343.97 648.25) scale(.1 -.1)">
<use xlink:href="#c"/>
<use x="63.623047" xlink:href="#f"/>
<use x="95.410156" xlink:href="#m"/>
<use x="159.033203" xlink:href="#n"/>
</g>
</g>
<g clip-path="url(#a)">
<g transform="translate(463.05 531.02) scale(.1 -.1)">
<use xlink:href="#c"/>
<use x="63.623047" xlink:href="#f"/>
<use x="95.410156" xlink:href="#m"/>
<use x="159.033203" xlink:href="#m"/>
</g>
</g>
<g clip-path="url(#a)">
<g transform="translate(439.24 648.25) scale(.1 -.1)">
<use xlink:href="#c"/>
<use x="63.623047" xlink:href="#f"/>
<use x="95.410156" xlink:href="#m"/>
<use x="159.033203" xlink:href="#v"/>
</g>
</g>
<g clip-path="url(#a)">
<g transform="translate(248.7 648.25) scale(.1 -.1)">
<use xlink:href="#c"/>
<use x="63.623047" xlink:href="#f"/>
<use x="95.410156" xlink:href="#m"/>
<use x="159.033203" xlink:href="#an"/>
</g>
</g>
<g clip-path="url(#a)">
<g transform="translate(296.33 648.25) scale(.1 -.1)">
<use xlink:href="#c"/>
<use x="63.623047" xlink:href="#f"/>
<use x="95.410156" xlink:href="#m"/>
<use x="159.033203" xlink:href="#ai"/>
</g>
</g>
<g clip-path="url(#a)">
<g transform="translate(963.23 648.25) scale(.1 -.1)">
<use xlink:href="#c"/>
<use x="63.623047" xlink:href="#f"/>
<use x="95.410156" xlink:href="#m"/>
<use x="159.033203" xlink:href="#ah"/>
</g>
</g>
<g clip-path="url(#a)">
<g transform="translate(1106.1 648.25) scale(.1 -.1)">
<use xlink:href="#c"/>
<use x="63.623047" xlink:href="#f"/>
<use x="95.410156" xlink:href="#m"/>
<use x="159.033203" xlink:href="#ab"/>
</g>
</g>
<g clip-path="url(#a)">
<g transform="translate(1153.8 648.25) scale(.1 -.1)">
<use xlink:href="#c"/>
<use x="63.623047" xlink:href="#f"/>
<use x="95.410156" xlink:href="#m"/>
<use x="159.033203" xlink:href="#aa"/>
</g>
</g>
<g clip-path="url(#a)">
<g transform="translate(1439.6 648.25) scale(.1 -.1)">
<use xlink:href="#c"/>
<use x="63.623047" xlink:href="#f"/>
<use x="95.410156" xlink:href="#v"/>
<use x="159.033203" xlink:href="#ac"/>
</g>
</g>
<defs>
<clipPath id="a">
<rect width="1520" height="800"/>
</clipPath>
</defs>
</svg>
