<?xml version="1.0" encoding="UTF-8"?>
<!DOCTYPE svg  PUBLIC '-//W3C//DTD SVG 1.1//EN'  'http://www.w3.org/Graphics/SVG/1.1/DTD/svg11.dtd'>
<svg width="1418.7pt" height="746.67pt" version="1.1" viewBox="0 0 1418.7 746.67" xmlns="http://www.w3.org/2000/svg" xmlns:xlink="http://www.w3.org/1999/xlink">
<defs>
<style type="text/css">*{stroke-linecap:butt;stroke-linejoin:round;}</style>
</defs>
<path d="m0 746.67h1418.7v-746.67h-1418.7z" fill="#fff"/>
<g fill="none" stroke="#000">
<path d="m621.18 34.853-221.44 234.2" clip-path="url(#a)"/>
<path d="m621.18 34.853 16.522 567.57" clip-path="url(#a)"/>
<path d="m621.18 34.853 204.91 118.57" clip-path="url(#a)"/>
<path d="m399.75 269.05-189.41 113.05" clip-path="url(#a)"/>
<path d="m399.75 269.05 46.955 333.36" clip-path="url(#a)"/>
<path d="m399.75 269.05 142.46 333.36" clip-path="url(#a)"/>
<path d="m637.71 602.42v109.4" clip-path="url(#a)"/>
<path d="m826.1 153.42-116.77 339.6" clip-path="url(#a)"/>
<path d="m826.1 153.42-45.14 448.99" clip-path="url(#a)"/>
<path d="m826.1 153.42 2.6114 448.99" clip-path="url(#a)"/>
<path d="m826.1 153.42 159.29 115.63" clip-path="url(#a)"/>
<path d="m709.33 493.02-23.876 109.4" clip-path="url(#a)"/>
<path d="m709.33 493.02 23.876 109.4" clip-path="url(#a)"/>
<path d="m780.96 602.42v109.4" clip-path="url(#a)"/>
<path d="m828.71 602.42v109.4" clip-path="url(#a)"/>
<path d="m985.39 269.05-108.93 333.36" clip-path="url(#a)"/>
<path d="m985.39 269.05-37.305 333.36" clip-path="url(#a)"/>
<path d="m985.39 269.05 111.92 113.05" clip-path="url(#a)"/>
<path d="m985.39 269.05 34.321 333.36" clip-path="url(#a)"/>
<path d="m876.46 602.42v109.4" clip-path="url(#a)"/>
<path d="m948.09 602.42-23.876 109.4" clip-path="url(#a)"/>
<path d="m948.09 602.42 23.876 109.4" clip-path="url(#a)"/>
<path d="m1097.3 382.11-149.22 220.31" clip-path="url(#a)" stroke-dasharray="3.7,1.6"/>
<path d="m1097.3 382.11-29.844 220.31" clip-path="url(#a)"/>
<path d="m1097.3 382.11 17.907 220.31" clip-path="url(#a)"/>
<path d="m1097.3 382.11 161.16 110.92" clip-path="url(#a)"/>
<path d="m1067.5 602.42v109.4" clip-path="url(#a)"/>
<path d="m1115.2 602.42v109.4" clip-path="url(#a)"/>
<path d="m1258.5 493.02-95.502 109.4" clip-path="url(#a)"/>
<path d="m1258.5 493.02-47.751 109.4" clip-path="url(#a)"/>
<path d="m1258.5 493.02v109.4" clip-path="url(#a)"/>
<path d="m1258.5 493.02 47.751 109.4" clip-path="url(#a)"/>
<path d="m1258.5 493.02 95.502 109.4" clip-path="url(#a)"/>
<path d="m1163 602.42v109.4" clip-path="url(#a)"/>
<path d="m1210.7 602.42v109.4" clip-path="url(#a)"/>
<path d="m1258.5 602.42v109.4" clip-path="url(#a)"/>
<path d="m1306.2 602.42v109.4" clip-path="url(#a)"/>
<path d="m685.46 602.42v109.4" clip-path="url(#a)"/>
<path d="m733.21 602.42v109.4" clip-path="url(#a)"/>
<path d="m210.34 382.11-121.77 110.92" clip-path="url(#a)"/>
<path d="m210.34 382.11-50.139 220.31" clip-path="url(#a)"/>
<path d="m210.34 382.11-2.3876 220.31" clip-path="url(#a)"/>
<path d="m210.34 382.11 45.363 220.31" clip-path="url(#a)"/>
<path d="m210.34 382.11 128.93 110.92" clip-path="url(#a)"/>
<path d="m446.7 602.42v109.4" clip-path="url(#a)"/>
<path d="m542.2 602.42-47.751 109.4" clip-path="url(#a)"/>
<path d="m542.2 602.42v109.4" clip-path="url(#a)"/>
<path d="m542.2 602.42 47.751 109.4" clip-path="url(#a)"/>
<path d="m88.57 493.02-23.876 109.4" clip-path="url(#a)"/>
<path d="m88.57 493.02 23.876 109.4" clip-path="url(#a)"/>
<path d="m160.2 602.42v109.4" clip-path="url(#a)"/>
<path d="m207.95 602.42v109.4" clip-path="url(#a)"/>
<path d="m255.7 602.42v109.4" clip-path="url(#a)"/>
<path d="m339.26 493.02-35.813 109.4" clip-path="url(#a)"/>
<path d="m339.26 493.02 35.813 109.4" clip-path="url(#a)"/>
<path d="m303.45 602.42v109.4" clip-path="url(#a)"/>
<path d="m375.08 602.42-23.876 109.4" clip-path="url(#a)"/>
<path d="m375.08 602.42 23.876 109.4" clip-path="url(#a)"/>
<path d="m64.695 602.42v109.4" clip-path="url(#a)"/>
<path d="m112.45 602.42v109.4" clip-path="url(#a)"/>
<path d="m621.18 34.853-221.44 234.2" clip-path="url(#a)"/>
<path d="m621.18 34.853 16.522 567.57" clip-path="url(#a)"/>
<path d="m621.18 34.853 204.91 118.57" clip-path="url(#a)"/>
<path d="m1019.7 602.42v109.4" clip-path="url(#a)"/>
<path d="m1354 602.42v109.4" clip-path="url(#a)"/>
</g>
<path d="m512.96 158.45 4.1333-4.3716q1.6489-1.7439-0.095041-3.3928l-5.6259-5.3193q-1.7439-1.6489-3.3928 0.095041l-4.1333 4.3716q-1.6489 1.7439 0.095041 3.3928l5.6259 5.3193q1.7439 1.6489 3.3928-0.095041z" clip-path="url(#a)" fill="#fff" stroke="#fff"/>
<g clip-path="url(#a)">
<defs>
<path id="al" d="m9.8125 72.906h9.8594v-29.891h35.844v29.891h9.8594v-72.906h-9.8594v34.719h-35.844v-34.719h-9.8594z"/>
</defs>
<g transform="translate(510 155.66) rotate(-46.605) scale(.08 -.08)">
<use xlink:href="#al"/>
</g>
</g>
<path d="m623.11 316.59 0.12971 4.4556q0.069835 2.399 2.4688 2.3291l7.7392-0.22529q2.399-0.069836 2.3291-2.4688l-0.1297-4.4556q-0.069836-2.399-2.4688-2.3291l-7.7392 0.22529q-2.399 0.069836-2.3291 2.4688z" clip-path="url(#a)" fill="#fff" stroke="#fff"/>
<g clip-path="url(#a)">
<defs>
<path id="x" d="m9.8125 72.906h9.8594v-64.609h35.5v-8.2969h-45.359z"/>
</defs>
<g transform="translate(627.17 316.47) rotate(88.333) scale(.08 -.08)">
<use xlink:href="#x"/>
</g>
</g>
<path d="m717.9 98.06 5.2073 3.0132q2.0773 1.202 3.2793-0.87529l3.8777-6.7015q1.202-2.0773-0.87529-3.2793l-5.2073-3.0132q-2.0773-1.202-3.2793 0.87529l-3.8777 6.7015q-1.202 2.0773 0.87529 3.2793z" clip-path="url(#a)" fill="#fff" stroke="#fff"/>
<g clip-path="url(#a)">
<g transform="translate(719.93 94.543) rotate(30.055) scale(.08 -.08)">
<use xlink:href="#al"/>
</g>
</g>
<path d="m305.91 332.37 4.6991-2.8047q2.0608-1.23 0.8308-3.2909l-3.9681-6.6483q-1.23-2.0608-3.2909-0.8308l-4.6991 2.8047q-2.0608 1.23-0.8308 3.2909l3.9681 6.6483q1.23 2.0608 3.2909 0.8308z" clip-path="url(#a)" fill="#fff" stroke="#fff"/>
<g clip-path="url(#a)">
<defs>
<path id="o" d="m34.188 63.188-13.391-36.281h26.812zm-5.5781 9.7188h11.188l27.781-72.906h-10.25l-6.6406 18.703h-32.859l-6.6406-18.703h-10.406z"/>
</defs>
<g transform="translate(303.82 328.88) rotate(-30.831) scale(.08 -.08)">
<use xlink:href="#o"/>
</g>
</g>
<path d="m416.66 434.1 0.70836 5.0291q0.33474 2.3765 2.7113 2.0418l7.6668-1.0799q2.3765-0.33474 2.0418-2.7113l-0.70836-5.0291q-0.33474-2.3765-2.7113-2.0418l-7.6668 1.0799q-2.3765 0.33474-2.0418 2.7113z" clip-path="url(#a)" fill="#fff" stroke="#fff"/>
<g clip-path="url(#a)">
<defs>
<path id="ak" d="m53.516 70.516v-9.625q-5.6094 2.6875-10.594 4-4.9844 1.3281-9.625 1.3281-8.0469 0-12.422-3.125t-4.375-8.8906q0-4.8438 2.9062-7.3125 2.9062-2.4531 11.016-3.9688l5.9531-1.2188q11.031-2.1094 16.281-7.4062t5.25-14.172q0-10.609-7.1094-16.078-7.0938-5.4688-20.812-5.4688-5.1719 0-11.016 1.1719-5.8281 1.1719-12.078 3.4688v10.156q6-3.3594 11.766-5.0781 5.7656-1.7031 11.328-1.7031 8.4375 0 13.031 3.3125 4.5938 3.3281 4.5938 9.4844 0 5.3594-3.2969 8.3906t-10.812 4.5469l-6.0156 1.1719q-11.031 2.1875-15.969 6.875-4.9219 4.6875-4.9219 13.047 0 9.6719 6.8125 15.234t18.766 5.5625q5.1406 0 10.453-0.9375 5.3281-0.92188 10.891-2.7656z"/>
</defs>
<g transform="translate(420.69 433.53) rotate(81.983) scale(.08 -.08)">
<use xlink:href="#ak"/>
</g>
</g>
<path d="m464.13 435.68 2.1504 5.0323q0.94309 2.2069 3.15 1.2638l7.1197-3.0425q2.2069-0.94309 1.2638-3.15l-2.1504-5.0323q-0.94309-2.2069-3.15-1.2638l-7.1197 3.0425q-2.2069 0.94309-1.2638 3.15z" clip-path="url(#a)" fill="#fff" stroke="#fff"/>
<g clip-path="url(#a)">
<g transform="translate(467.87 434.09) rotate(66.861) scale(.08 -.08)">
<use xlink:href="#o"/>
</g>
</g>
<path d="m631.44 639.47v35.285q0 2.4 2.4 2.4h7.7425q2.4 0 2.4-2.4v-35.285q0-2.4-2.4-2.4h-7.7425q-2.4 0-2.4 2.4z" clip-path="url(#a)" fill="#fff" stroke="#fff"/>
<g clip-path="url(#a)">
<defs>
<path id="l" d="m-0.29688 72.906h61.672v-8.3125h-25.875v-64.594h-9.9062v64.594h-25.891z"/>
<path id="d" d="m56.203 29.594v-4.3906h-41.312q0.59375-9.2812 5.5938-14.141t13.938-4.8594q5.1719 0 10.031 1.2656t9.6562 3.8125v-8.5q-4.8438-2.0469-9.9219-3.125t-10.297-1.0781q-13.094 0-20.734 7.6094-7.6406 7.625-7.6406 20.625 0 13.422 7.25 21.297 7.25 7.8906 19.562 7.8906 11.031 0 17.453-7.1094 6.4219-7.0938 6.4219-19.297zm-8.9844 2.6406q-0.09375 7.3594-4.125 11.75-4.0312 4.4062-10.672 4.4062-7.5156 0-12.031-4.25t-5.2031-11.969z"/>
<path id="g" d="m41.109 46.297q-1.5156 0.875-3.2969 1.2812-1.7812 0.42188-3.9219 0.42188-7.625 0-11.703-4.9531t-4.0781-14.234v-28.812h-9.0312v54.688h9.0312v-8.5q2.8438 4.9844 7.375 7.3906 4.5469 2.4219 11.047 2.4219 0.92188 0 2.0469-0.125 1.125-0.10938 2.4844-0.35938z"/>
<path id="k" d="m52 44.188q3.375 6.0625 8.0625 8.9375t11.031 2.875q8.5469 0 13.188-5.9844 4.6406-5.9688 4.6406-17v-33.016h-9.0312v32.719q0 7.8594-2.7969 11.656-2.7812 3.8125-8.4844 3.8125-6.9844 0-11.047-4.6406-4.0469-4.625-4.0469-12.641v-30.906h-9.0312v32.719q0 7.9062-2.7812 11.688t-8.5938 3.7812q-6.8906 0-10.953-4.6562-4.0469-4.6562-4.0469-12.625v-30.906h-9.0312v54.688h9.0312v-8.5q3.0781 5.0312 7.375 7.4219t10.203 2.3906q5.9688 0 10.141-3.0312 4.1719-3.0156 6.1719-8.7812z"/>
<path id="i" d="m9.4219 54.688h8.9844v-54.688h-8.9844zm0 21.297h8.9844v-11.391h-8.9844z"/>
<path id="f" d="m54.891 33.016v-33.016h-8.9844v32.719q0 7.7656-3.0312 11.609-3.0312 3.8594-9.0781 3.8594-7.2812 0-11.484-4.6406-4.2031-4.625-4.2031-12.641v-30.906h-9.0312v54.688h9.0312v-8.5q3.2344 4.9375 7.5938 7.375 4.375 2.4375 10.094 2.4375 9.4219 0 14.25-5.8281 4.8438-5.8281 4.8438-17.156z"/>
<path id="e" d="m34.281 27.484q-10.891 0-15.094-2.4844t-4.2031-8.5q0-4.7812 3.1562-7.5938 3.1562-2.7969 8.5625-2.7969 7.4844 0 12 5.2969t4.5156 14.078v2zm17.922 3.7188v-31.203h-8.9844v8.2969q-3.0781-4.9688-7.6719-7.3438t-11.234-2.375q-8.3906 0-13.359 4.7188-4.9531 4.7188-4.9531 12.625 0 9.2188 6.1719 13.906 6.1875 4.6875 18.438 4.6875h12.609v0.89062q0 6.2031-4.0781 9.5938t-11.453 3.3906q-4.6875 0-9.1406-1.125-4.4375-1.125-8.5312-3.375v8.3125q4.9219 1.9062 9.5625 2.8438 4.6406 0.95312 9.0312 0.95312 11.875 0 17.734-6.1562 5.8594-6.1406 5.8594-18.641z"/>
<path id="j" d="m9.4219 75.984h8.9844v-75.984h-8.9844z"/>
</defs>
<g transform="translate(635.5 639.47) rotate(90) scale(.08 -.08)">
<use xlink:href="#l"/>
<use x="60.818359" xlink:href="#d"/>
<use x="122.341797" xlink:href="#g"/>
<use x="163.439453" xlink:href="#k"/>
<use x="260.851562" xlink:href="#i"/>
<use x="288.634766" xlink:href="#f"/>
<use x="352.013672" xlink:href="#e"/>
<use x="413.292969" xlink:href="#j"/>
</g>
</g>
<path d="m772.65 328.18 2.0029-5.8253q0.78036-2.2696-1.4892-3.05l-7.3218-2.5175q-2.2696-0.78036-3.05 1.4892l-2.0029 5.8253q-0.78037 2.2696 1.4892 3.05l7.3218 2.5175q2.2696 0.78037 3.05-1.4892z" clip-path="url(#a)" fill="#fff" stroke="#fff"/>
<g clip-path="url(#a)">
<defs>
<path id="as" d="m19.672 64.797v-56.688h11.922q15.094 0 22.094 6.8281 7 6.8438 7 21.594 0 14.641-7 21.453t-22.094 6.8125zm-9.8594 8.1094h20.266q21.188 0 31.094-8.8125 9.9219-8.8125 9.9219-27.562 0-18.859-9.9688-27.703-9.9531-8.8281-31.047-8.8281h-20.266z"/>
</defs>
<g transform="translate(768.8 326.85) rotate(-71.025) scale(.08 -.08)">
<use xlink:href="#as"/>
</g>
</g>
<path d="m809.5 381.27 0.54742-5.4451q0.24007-2.388-2.1479-2.628l-7.7037-0.77449q-2.388-0.24007-2.628 2.1479l-0.54742 5.4451q-0.24007 2.388 2.1479 2.628l7.7037 0.77449q2.388 0.24007 2.628-2.1479z" clip-path="url(#a)" fill="#fff" stroke="#fff"/>
<g clip-path="url(#a)">
<g transform="translate(805.45 380.87) rotate(-84.259) scale(.08 -.08)">
<use xlink:href="#o"/>
</g>
</g>
<path d="m821.12 375.55 0.028055 4.8237q0.013958 2.4 2.4139 2.386l7.7424-0.04503q2.4-0.013958 2.386-2.4139l-0.028055-4.8237q-0.013958-2.4-2.4139-2.386l-7.7424 0.04503q-2.4 0.013958-2.386 2.4139z" clip-path="url(#a)" fill="#fff" stroke="#fff"/>
<g clip-path="url(#a)">
<defs>
<path id="ad" d="m19.672 64.797v-27.391h12.406q6.8906 0 10.641 3.5625 3.7656 3.5625 3.7656 10.156 0 6.5469-3.7656 10.109-3.75 3.5625-10.641 3.5625zm-9.8594 8.1094h22.266q12.266 0 18.531-5.5469 6.2812-5.5469 6.2812-16.234 0-10.797-6.2812-16.312-6.2656-5.5156-18.531-5.5156h-12.406v-29.297h-9.8594z"/>
</defs>
<g transform="translate(825.18 375.52) rotate(89.667) scale(.08 -.08)">
<use xlink:href="#ad"/>
</g>
</g>
<path d="m899.85 214.71 4.4287 3.2147q1.9423 1.4098 3.3521-0.53241l4.5482-6.2658q1.4098-1.9423-0.53241-3.3521l-4.4287-3.2147q-1.9423-1.4098-3.3521 0.53241l-4.5482 6.2658q-1.4098 1.9423 0.53241 3.3521z" clip-path="url(#a)" fill="#fff" stroke="#fff"/>
<g clip-path="url(#a)">
<g transform="translate(902.24 211.42) rotate(35.975) scale(.08 -.08)">
<use xlink:href="#o"/>
</g>
</g>
<path d="m702.98 551.53 1.0779-4.9387q0.51175-2.3448-1.8331-2.8566l-7.5644-1.6509q-2.3448-0.51175-2.8566 1.8331l-1.0779 4.9387q-0.51175 2.3448 1.833 2.8566l7.5644 1.6509q2.3448 0.51175 2.8566-1.8331z" clip-path="url(#a)" fill="#fff" stroke="#fff"/>
<g clip-path="url(#a)">
<defs>
<path id="r" d="m9.8125 72.906h46.094v-8.3125h-36.234v-21.578h34.719v-8.2969h-34.719v-26.422h37.109v-8.2969h-46.969z"/>
</defs>
<g transform="translate(699.01 550.66) rotate(-77.688) scale(.08 -.08)">
<use xlink:href="#r"/>
</g>
</g>
<path d="m714.55 546.33 1.1912 5.4578q0.51175 2.3448 2.8566 1.8331l7.5644-1.6509q2.3448-0.51175 1.833-2.8566l-1.1912-5.4578q-0.51175-2.3448-2.8566-1.8331l-7.5644 1.6509q-2.3448 0.51175-1.8331 2.8566z" clip-path="url(#a)" fill="#fff" stroke="#fff"/>
<g clip-path="url(#a)">
<defs>
<path id="t" d="m64.406 67.281v-10.391q-4.9844 4.6406-10.625 6.9219-5.6406 2.2969-11.984 2.2969-12.5 0-19.141-7.6406t-6.6406-22.094q0-14.406 6.6406-22.047t19.141-7.6406q6.3438 0 11.984 2.2969t10.625 6.9375v-10.312q-5.1719-3.5156-10.969-5.2812-5.7812-1.75-12.219-1.75-16.562 0-26.094 10.125-9.5156 10.141-9.5156 27.672 0 17.578 9.5156 27.703 9.5312 10.141 26.094 10.141 6.5312 0 12.312-1.7344 5.7969-1.7344 10.875-5.2031z"/>
</defs>
<g transform="translate(718.52 545.46) rotate(77.688) scale(.08 -.08)">
<use xlink:href="#t"/>
</g>
</g>
<path d="m774.69 639.47v35.285q0 2.4 2.4 2.4h7.7425q2.4 0 2.4-2.4v-35.285q0-2.4-2.4-2.4h-7.7425q-2.4 0-2.4 2.4z" clip-path="url(#a)" fill="#fff" stroke="#fff"/>
<g clip-path="url(#a)">
<g transform="translate(778.75 639.47) rotate(90) scale(.08 -.08)">
<use xlink:href="#l"/>
<use x="60.818359" xlink:href="#d"/>
<use x="122.341797" xlink:href="#g"/>
<use x="163.439453" xlink:href="#k"/>
<use x="260.851562" xlink:href="#i"/>
<use x="288.634766" xlink:href="#f"/>
<use x="352.013672" xlink:href="#e"/>
<use x="413.292969" xlink:href="#j"/>
</g>
</g>
<path d="m822.44 639.47v35.285q0 2.4 2.4 2.4h7.7425q2.4 0 2.4-2.4v-35.285q0-2.4-2.4-2.4h-7.7425q-2.4 0-2.4 2.4z" clip-path="url(#a)" fill="#fff" stroke="#fff"/>
<g clip-path="url(#a)">
<g transform="translate(826.5 639.47) rotate(90) scale(.08 -.08)">
<use xlink:href="#l"/>
<use x="60.818359" xlink:href="#d"/>
<use x="122.341797" xlink:href="#g"/>
<use x="163.439453" xlink:href="#k"/>
<use x="260.851562" xlink:href="#i"/>
<use x="288.634766" xlink:href="#f"/>
<use x="352.013672" xlink:href="#e"/>
<use x="413.292969" xlink:href="#j"/>
</g>
</g>
<path d="m936.03 440.33 1.7266-5.2838q0.74545-2.2813-1.5358-3.0267l-7.3596-2.4048q-2.2813-0.74545-3.0267 1.5358l-1.7266 5.2838q-0.74545 2.2813 1.5358 3.0267l7.3596 2.4048q2.2813 0.74545 3.0267-1.5358z" clip-path="url(#a)" fill="#fff" stroke="#fff"/>
<g clip-path="url(#a)">
<defs>
<path id="w" d="m44.391 34.188q3.1719-1.0781 6.1719-4.5938t6.0312-9.6719l10.016-19.922h-10.609l-9.3125 18.703q-3.625 7.3281-7.0156 9.7188t-9.25 2.3906h-10.75v-30.812h-9.8594v72.906h22.266q12.5 0 18.656-5.2344 6.1562-5.2188 6.1562-15.766 0-6.8906-3.2031-11.438-3.2031-4.5312-9.2969-6.2812zm-24.719 30.609v-25.875h12.406q7.125 0 10.766 3.2969t3.6406 9.6875-3.6406 9.6406-10.766 3.25z"/>
</defs>
<g transform="translate(932.16 439.06) rotate(-71.904) scale(.08 -.08)">
<use xlink:href="#w"/>
</g>
</g>
<path d="m972.66 439.21 0.62126-5.5516q0.26691-2.3851-2.1182-2.652l-7.6945-0.86106q-2.3851-0.26691-2.652 2.1182l-0.62126 5.5516q-0.26691 2.3851 2.1182 2.652l7.6945 0.86106q2.3851 0.26691 2.652-2.1182z" clip-path="url(#a)" fill="#fff" stroke="#fff"/>
<g clip-path="url(#a)">
<g transform="translate(968.62 438.76) rotate(-83.615) scale(.08 -.08)">
<use xlink:href="#t"/>
</g>
</g>
<path d="m1035.1 328.2 3.5563 3.5924q1.6885 1.7056 3.3941 0.017144l5.5024-5.4471q1.7056-1.6885 0.017143-3.3941l-3.5563-3.5924q-1.6885-1.7056-3.3941-0.017144l-5.5024 5.4471q-1.7056 1.6885-0.017144 3.3941z" clip-path="url(#a)" fill="#fff" stroke="#fff"/>
<g clip-path="url(#a)">
<g transform="translate(1038 325.34) rotate(45.289) scale(.08 -.08)">
<use xlink:href="#r"/>
</g>
</g>
<path d="m996.02 433.47 0.59962 5.8242q0.24579 2.3874 2.6332 2.1416l7.7018-0.79292q2.3874-0.24579 2.1416-2.6332l-0.59962-5.8242q-0.24579-2.3874-2.6332-2.1416l-7.7018 0.79292q-2.3874 0.24579-2.1416 2.6332z" clip-path="url(#a)" fill="#fff" stroke="#fff"/>
<g clip-path="url(#a)">
<defs>
<path id="aj" d="m8.6875 72.906h9.9219v-44.297q0-11.719 4.2344-16.875 4.25-5.1406 13.781-5.1406 9.4688 0 13.719 5.1406 4.25 5.1562 4.25 16.875v44.297h9.9062v-45.516q0-14.25-7.0625-21.531-7.0469-7.2812-20.812-7.2812-13.828 0-20.891 7.2812-7.0469 7.2812-7.0469 21.531z"/>
</defs>
<g transform="translate(1000.1 433.05) rotate(84.122) scale(.08 -.08)">
<use xlink:href="#aj"/>
</g>
</g>
<path d="m870.19 639.47v35.285q0 2.4 2.4 2.4h7.7425q2.4 0 2.4-2.4v-35.285q0-2.4-2.4-2.4h-7.7425q-2.4 0-2.4 2.4z" clip-path="url(#a)" fill="#fff" stroke="#fff"/>
<g clip-path="url(#a)">
<g transform="translate(874.25 639.47) rotate(90) scale(.08 -.08)">
<use xlink:href="#l"/>
<use x="60.818359" xlink:href="#d"/>
<use x="122.341797" xlink:href="#g"/>
<use x="163.439453" xlink:href="#k"/>
<use x="260.851562" xlink:href="#i"/>
<use x="288.634766" xlink:href="#f"/>
<use x="352.013672" xlink:href="#e"/>
<use x="413.292969" xlink:href="#j"/>
</g>
</g>
<path d="m938.52 675.69 7.5238-34.474q0.51175-2.3448-1.833-2.8566l-7.5644-1.6509q-2.3448-0.51175-2.8566 1.8331l-7.5238 34.474q-0.51175 2.3448 1.8331 2.8566l7.5644 1.6509q2.3448 0.51175 2.8566-1.833z" clip-path="url(#a)" fill="#fff" stroke="#fff"/>
<g clip-path="url(#a)">
<g transform="translate(934.55 674.82) rotate(-77.688) scale(.08 -.08)">
<use xlink:href="#l"/>
<use x="60.818359" xlink:href="#d"/>
<use x="122.341797" xlink:href="#g"/>
<use x="163.439453" xlink:href="#k"/>
<use x="260.851562" xlink:href="#i"/>
<use x="288.634766" xlink:href="#f"/>
<use x="352.013672" xlink:href="#e"/>
<use x="413.292969" xlink:href="#j"/>
</g>
</g>
<path d="m950.14 641.22 7.5238 34.474q0.51175 2.3448 2.8566 1.833l7.5644-1.6509q2.3448-0.51175 1.833-2.8566l-7.5238-34.474q-0.51175-2.3448-2.8566-1.8331l-7.5644 1.6509q-2.3448 0.51175-1.8331 2.8566z" clip-path="url(#a)" fill="#fff" stroke="#fff"/>
<g clip-path="url(#a)">
<g transform="translate(954.11 640.35) rotate(77.688) scale(.08 -.08)">
<use xlink:href="#l"/>
<use x="60.818359" xlink:href="#d"/>
<use x="122.341797" xlink:href="#g"/>
<use x="163.439453" xlink:href="#k"/>
<use x="260.851562" xlink:href="#i"/>
<use x="288.634766" xlink:href="#f"/>
<use x="352.013672" xlink:href="#e"/>
<use x="413.292969" xlink:href="#j"/>
</g>
</g>
<path d="m1026.4 498.04 3.0689-4.531q1.3459-1.9871-0.6412-3.333l-6.4105-4.3419q-1.9871-1.3459-3.333 0.6412l-3.0689 4.531q-1.3459 1.9871 0.6412 3.333l6.4105 4.3419q1.9871 1.3459 3.333-0.6412z" clip-path="url(#a)" fill="#fff" stroke="#fff"/>
<g clip-path="url(#a)">
<g transform="translate(1023 495.77) rotate(-55.889) scale(.08 -.08)">
<use xlink:href="#o"/>
</g>
</g>
<path d="m1088.3 495.38 0.61766-4.5596q0.32217-2.3783-2.0561-2.7004l-7.6724-1.0393q-2.3783-0.32217-2.7004 2.0561l-0.61766 4.5596q-0.32217 2.3783 2.0561 2.7004l7.6724 1.0393q2.3783 0.32217 2.7004-2.0561z" clip-path="url(#a)" fill="#fff" stroke="#fff"/>
<g clip-path="url(#a)">
<defs>
<path id="ar" d="m9.8125 72.906h41.891v-8.3125h-32.031v-21.484h28.906v-8.2969h-28.906v-34.812h-9.8594z"/>
</defs>
<g transform="translate(1084.3 494.84) rotate(-82.285) scale(.08 -.08)">
<use xlink:href="#ar"/>
</g>
</g>
<path d="m1099.8 490.37 0.39078 4.8079q0.19443 2.3921 2.5865 2.1977l7.7171-0.62723q2.3921-0.19443 2.1977-2.5865l-0.39078-4.8079q-0.19443-2.3921-2.5865-2.1977l-7.7171 0.62723q-2.3921 0.19443-2.1977 2.5865z" clip-path="url(#a)" fill="#fff" stroke="#fff"/>
<g clip-path="url(#a)">
<g transform="translate(1103.9 490.04) rotate(85.353) scale(.08 -.08)">
<use xlink:href="#ad"/>
</g>
</g>
<path d="m1172.1 441.18 4.508 3.1026q1.977 1.3607 3.3377-0.61635l4.3896-6.3779q1.3607-1.977-0.61635-3.3377l-4.508-3.1026q-1.977-1.3607-3.3377 0.61635l-4.3896 6.3779q-1.3607 1.977 0.61635 3.3377z" clip-path="url(#a)" fill="#fff" stroke="#fff"/>
<g clip-path="url(#a)">
<g transform="translate(1174.4 437.83) rotate(34.537) scale(.08 -.08)">
<use xlink:href="#o"/>
</g>
</g>
<path d="m1061.2 639.47v35.285q0 2.4 2.4 2.4h7.7425q2.4 0 2.4-2.4v-35.285q0-2.4-2.4-2.4h-7.7425q-2.4 0-2.4 2.4z" clip-path="url(#a)" fill="#fff" stroke="#fff"/>
<g clip-path="url(#a)">
<g transform="translate(1065.3 639.47) rotate(90) scale(.08 -.08)">
<use xlink:href="#l"/>
<use x="60.818359" xlink:href="#d"/>
<use x="122.341797" xlink:href="#g"/>
<use x="163.439453" xlink:href="#k"/>
<use x="260.851562" xlink:href="#i"/>
<use x="288.634766" xlink:href="#f"/>
<use x="352.013672" xlink:href="#e"/>
<use x="413.292969" xlink:href="#j"/>
</g>
</g>
<path d="m1108.9 639.47v35.285q0 2.4 2.4 2.4h7.7425q2.4 0 2.4-2.4v-35.285q0-2.4-2.4-2.4h-7.7425q-2.4 0-2.4 2.4z" clip-path="url(#a)" fill="#fff" stroke="#fff"/>
<g clip-path="url(#a)">
<g transform="translate(1113 639.47) rotate(90) scale(.08 -.08)">
<use xlink:href="#l"/>
<use x="60.818359" xlink:href="#d"/>
<use x="122.341797" xlink:href="#g"/>
<use x="163.439453" xlink:href="#k"/>
<use x="260.851562" xlink:href="#i"/>
<use x="288.634766" xlink:href="#f"/>
<use x="352.013672" xlink:href="#e"/>
<use x="413.292969" xlink:href="#j"/>
</g>
</g>
<path d="m1213.6 553.94 3.6557-4.1875q1.5784-1.808-0.22961-3.3863l-5.8326-5.0919q-1.808-1.5784-3.3863 0.22961l-3.6557 4.1875q-1.5784 1.808 0.22961 3.3863l5.8326 5.0919q1.808 1.5784 3.3863-0.22961z" clip-path="url(#a)" fill="#fff" stroke="#fff"/>
<g clip-path="url(#a)">
<g transform="translate(1210.6 551.27) rotate(-48.879) scale(.08 -.08)">
<use xlink:href="#w"/>
</g>
</g>
<path d="m1239.3 552.55 2.0222-4.6329q0.96012-2.1996-1.2395-3.1597l-7.096-3.0974q-2.1996-0.96012-3.1597 1.2395l-2.0222 4.6329q-0.96012 2.1996 1.2395 3.1597l7.096 3.0974q2.1996 0.96012 3.1597-1.2395z" clip-path="url(#a)" fill="#fff" stroke="#fff"/>
<g clip-path="url(#a)">
<g transform="translate(1235.6 550.92) rotate(-66.419) scale(.08 -.08)">
<use xlink:href="#r"/>
</g>
</g>
<path d="m1252.2 545.19v5.055q0 2.4 2.4 2.4h7.7425q2.4 0 2.4-2.4v-5.055q0-2.4-2.4-2.4h-7.7425q-2.4 0-2.4 2.4z" clip-path="url(#a)" fill="#fff" stroke="#fff"/>
<g clip-path="url(#a)">
<g transform="translate(1256.3 545.19) rotate(90) scale(.08 -.08)">
<use xlink:href="#r"/>
</g>
</g>
<path d="m1275.5 547.67 2.2348 5.1198q0.96012 2.1996 3.1597 1.2395l7.096-3.0974q2.1996-0.96012 1.2395-3.1597l-2.2348-5.1198q-0.96012-2.1996-3.1597-1.2395l-7.096 3.0974q-2.1996 0.96012-1.2395 3.1597z" clip-path="url(#a)" fill="#fff" stroke="#fff"/>
<g clip-path="url(#a)">
<g transform="translate(1279.2 546.04) rotate(66.419) scale(.08 -.08)">
<use xlink:href="#t"/>
</g>
</g>
<path d="m1299.6 549.64 3.8505 4.4107q1.5784 1.808 3.3863 0.22961l5.8326-5.0919q1.808-1.5784 0.22961-3.3863l-3.8505-4.4107q-1.5784-1.808-3.3863-0.22961l-5.8326 5.0919q-1.808 1.5784-0.22961 3.3863z" clip-path="url(#a)" fill="#fff" stroke="#fff"/>
<g clip-path="url(#a)">
<g transform="translate(1302.6 546.97) rotate(48.879) scale(.08 -.08)">
<use xlink:href="#aj"/>
</g>
</g>
<path d="m1156.7 639.47v35.285q0 2.4 2.4 2.4h7.7425q2.4 0 2.4-2.4v-35.285q0-2.4-2.4-2.4h-7.7425q-2.4 0-2.4 2.4z" clip-path="url(#a)" fill="#fff" stroke="#fff"/>
<g clip-path="url(#a)">
<g transform="translate(1160.8 639.47) rotate(90) scale(.08 -.08)">
<use xlink:href="#l"/>
<use x="60.818359" xlink:href="#d"/>
<use x="122.341797" xlink:href="#g"/>
<use x="163.439453" xlink:href="#k"/>
<use x="260.851562" xlink:href="#i"/>
<use x="288.634766" xlink:href="#f"/>
<use x="352.013672" xlink:href="#e"/>
<use x="413.292969" xlink:href="#j"/>
</g>
</g>
<path d="m1204.4 639.47v35.285q0 2.4 2.4 2.4h7.7425q2.4 0 2.4-2.4v-35.285q0-2.4-2.4-2.4h-7.7425q-2.4 0-2.4 2.4z" clip-path="url(#a)" fill="#fff" stroke="#fff"/>
<g clip-path="url(#a)">
<g transform="translate(1208.5 639.47) rotate(90) scale(.08 -.08)">
<use xlink:href="#l"/>
<use x="60.818359" xlink:href="#d"/>
<use x="122.341797" xlink:href="#g"/>
<use x="163.439453" xlink:href="#k"/>
<use x="260.851562" xlink:href="#i"/>
<use x="288.634766" xlink:href="#f"/>
<use x="352.013672" xlink:href="#e"/>
<use x="413.292969" xlink:href="#j"/>
</g>
</g>
<path d="m1252.2 639.47v35.285q0 2.4 2.4 2.4h7.7425q2.4 0 2.4-2.4v-35.285q0-2.4-2.4-2.4h-7.7425q-2.4 0-2.4 2.4z" clip-path="url(#a)" fill="#fff" stroke="#fff"/>
<g clip-path="url(#a)">
<g transform="translate(1256.3 639.47) rotate(90) scale(.08 -.08)">
<use xlink:href="#l"/>
<use x="60.818359" xlink:href="#d"/>
<use x="122.341797" xlink:href="#g"/>
<use x="163.439453" xlink:href="#k"/>
<use x="260.851562" xlink:href="#i"/>
<use x="288.634766" xlink:href="#f"/>
<use x="352.013672" xlink:href="#e"/>
<use x="413.292969" xlink:href="#j"/>
</g>
</g>
<path d="m1299.9 639.47v35.285q0 2.4 2.4 2.4h7.7425q2.4 0 2.4-2.4v-35.285q0-2.4-2.4-2.4h-7.7425q-2.4 0-2.4 2.4z" clip-path="url(#a)" fill="#fff" stroke="#fff"/>
<g clip-path="url(#a)">
<g transform="translate(1304 639.47) rotate(90) scale(.08 -.08)">
<use xlink:href="#l"/>
<use x="60.818359" xlink:href="#d"/>
<use x="122.341797" xlink:href="#g"/>
<use x="163.439453" xlink:href="#k"/>
<use x="260.851562" xlink:href="#i"/>
<use x="288.634766" xlink:href="#f"/>
<use x="352.013672" xlink:href="#e"/>
<use x="413.292969" xlink:href="#j"/>
</g>
</g>
<path d="m679.19 639.47v35.285q0 2.4 2.4 2.4h7.7425q2.4 0 2.4-2.4v-35.285q0-2.4-2.4-2.4h-7.7425q-2.4 0-2.4 2.4z" clip-path="url(#a)" fill="#fff" stroke="#fff"/>
<g clip-path="url(#a)">
<g transform="translate(683.25 639.47) rotate(90) scale(.08 -.08)">
<use xlink:href="#l"/>
<use x="60.818359" xlink:href="#d"/>
<use x="122.341797" xlink:href="#g"/>
<use x="163.439453" xlink:href="#k"/>
<use x="260.851562" xlink:href="#i"/>
<use x="288.634766" xlink:href="#f"/>
<use x="352.013672" xlink:href="#e"/>
<use x="413.292969" xlink:href="#j"/>
</g>
</g>
<path d="m726.94 639.47v35.285q0 2.4 2.4 2.4h7.7425q2.4 0 2.4-2.4v-35.285q0-2.4-2.4-2.4h-7.7425q-2.4 0-2.4 2.4z" clip-path="url(#a)" fill="#fff" stroke="#fff"/>
<g clip-path="url(#a)">
<g transform="translate(731 639.47) rotate(90) scale(.08 -.08)">
<use xlink:href="#l"/>
<use x="60.818359" xlink:href="#d"/>
<use x="122.341797" xlink:href="#g"/>
<use x="163.439453" xlink:href="#k"/>
<use x="260.851562" xlink:href="#i"/>
<use x="288.634766" xlink:href="#f"/>
<use x="352.013672" xlink:href="#e"/>
<use x="413.292969" xlink:href="#j"/>
</g>
</g>
<path d="m151.81 443.9 3.737-3.4041q1.7742-1.6162 0.15807-3.3904l-5.2139-5.7238q-1.6162-1.7742-3.3904-0.15807l-3.737 3.4041q-1.7742 1.6162-0.15807 3.3904l5.2139 5.7238q1.6162 1.7742 3.3904 0.15807z" clip-path="url(#a)" fill="#fff" stroke="#fff"/>
<g clip-path="url(#a)">
<g transform="translate(149.07 440.9) rotate(-42.331) scale(.08 -.08)">
<use xlink:href="#r"/>
</g>
</g>
<path d="m190.82 496.12 1.1217-4.929q0.53257-2.3402-1.8076-2.8727l-7.5495-1.7181q-2.3402-0.53257-2.8727 1.8076l-1.1217 4.929q-0.53257 2.3402 1.8076 2.8727l7.5495 1.7181q2.3402 0.53257 2.8727-1.8076z" clip-path="url(#a)" fill="#fff" stroke="#fff"/>
<g clip-path="url(#a)">
<g transform="translate(186.86 495.22) rotate(-77.179) scale(.08 -.08)">
<use xlink:href="#r"/>
</g>
</g>
<path d="m215.39 494.86 0.054779-5.0547q0.026007-2.3999-2.3739-2.4259l-7.742-0.083902q-2.3999-0.026007-2.4259 2.3739l-0.054778 5.0547q-0.026008 2.3999 2.3739 2.4259l7.742 0.083901q2.3999 0.026008 2.4259-2.3739z" clip-path="url(#a)" fill="#fff" stroke="#fff"/>
<g clip-path="url(#a)">
<g transform="translate(211.32 494.81) rotate(-89.379) scale(.08 -.08)">
<use xlink:href="#r"/>
</g>
</g>
<path d="m226.31 490.79 1.1266 5.4715q0.48402 2.3507 2.8347 1.8667l7.5834-1.5615q2.3507-0.48402 1.8667-2.8347l-1.1266-5.4715q-0.48402-2.3507-2.8347-1.8667l-7.5834 1.5615q-2.3507 0.48402-1.8667 2.8347z" clip-path="url(#a)" fill="#fff" stroke="#fff"/>
<g clip-path="url(#a)">
<g transform="translate(230.29 489.97) rotate(78.365) scale(.08 -.08)">
<use xlink:href="#t"/>
</g>
</g>
<path d="m268.79 440.67 3.8321 3.2967q1.8194 1.5652 3.3846-0.25416l5.0494-5.8694q1.5652-1.8194-0.25416-3.3846l-3.8321-3.2967q-1.8194-1.5652-3.3846 0.25416l-5.0494 5.8694q-1.5652 1.8194 0.25416 3.3846z" clip-path="url(#a)" fill="#fff" stroke="#fff"/>
<g clip-path="url(#a)">
<g transform="translate(271.44 437.59) rotate(40.706) scale(.08 -.08)">
<use xlink:href="#r"/>
</g>
</g>
<path d="m440.43 639.47v35.285q0 2.4 2.4 2.4h7.7425q2.4 0 2.4-2.4v-35.285q0-2.4-2.4-2.4h-7.7425q-2.4 0-2.4 2.4z" clip-path="url(#a)" fill="#fff" stroke="#fff"/>
<g clip-path="url(#a)">
<g transform="translate(444.5 639.47) rotate(90) scale(.08 -.08)">
<use xlink:href="#l"/>
<use x="60.818359" xlink:href="#d"/>
<use x="122.341797" xlink:href="#g"/>
<use x="163.439453" xlink:href="#k"/>
<use x="260.851562" xlink:href="#i"/>
<use x="288.634766" xlink:href="#f"/>
<use x="352.013672" xlink:href="#e"/>
<use x="413.292969" xlink:href="#j"/>
</g>
</g>
<path d="m517.02 675.79 14.116-32.338q0.96012-2.1996-1.2395-3.1597l-7.096-3.0974q-2.1996-0.96012-3.1597 1.2395l-14.116 32.338q-0.96012 2.1996 1.2395 3.1597l7.096 3.0974q2.1996 0.96012 3.1597-1.2395z" clip-path="url(#a)" fill="#fff" stroke="#fff"/>
<g clip-path="url(#a)">
<g transform="translate(513.29 674.17) rotate(-66.419) scale(.08 -.08)">
<use xlink:href="#l"/>
<use x="60.818359" xlink:href="#d"/>
<use x="122.341797" xlink:href="#g"/>
<use x="163.439453" xlink:href="#k"/>
<use x="260.851562" xlink:href="#i"/>
<use x="288.634766" xlink:href="#f"/>
<use x="352.013672" xlink:href="#e"/>
<use x="413.292969" xlink:href="#j"/>
</g>
</g>
<path d="m535.93 639.47v35.285q0 2.4 2.4 2.4h7.7425q2.4 0 2.4-2.4v-35.285q0-2.4-2.4-2.4h-7.7425q-2.4 0-2.4 2.4z" clip-path="url(#a)" fill="#fff" stroke="#fff"/>
<g clip-path="url(#a)">
<g transform="translate(540 639.47) rotate(90) scale(.08 -.08)">
<use xlink:href="#l"/>
<use x="60.818359" xlink:href="#d"/>
<use x="122.341797" xlink:href="#g"/>
<use x="163.439453" xlink:href="#k"/>
<use x="260.851562" xlink:href="#i"/>
<use x="288.634766" xlink:href="#f"/>
<use x="352.013672" xlink:href="#e"/>
<use x="413.292969" xlink:href="#j"/>
</g>
</g>
<path d="m553.27 643.46 14.116 32.338q0.96012 2.1996 3.1597 1.2395l7.096-3.0974q2.1996-0.96012 1.2395-3.1597l-14.116-32.338q-0.96012-2.1996-3.1597-1.2395l-7.096 3.0974q-2.1996 0.96012-1.2395 3.1597z" clip-path="url(#a)" fill="#fff" stroke="#fff"/>
<g clip-path="url(#a)">
<g transform="translate(557 641.83) rotate(66.419) scale(.08 -.08)">
<use xlink:href="#l"/>
<use x="60.818359" xlink:href="#d"/>
<use x="122.341797" xlink:href="#g"/>
<use x="163.439453" xlink:href="#k"/>
<use x="260.851562" xlink:href="#i"/>
<use x="288.634766" xlink:href="#f"/>
<use x="352.013672" xlink:href="#e"/>
<use x="413.292969" xlink:href="#j"/>
</g>
</g>
<path d="m82.164 551.79 1.1912-5.4578q0.51175-2.3448-1.8331-2.8566l-7.5644-1.6509q-2.3448-0.51175-2.8566 1.8331l-1.1912 5.4578q-0.51175 2.3448 1.833 2.8566l7.5644 1.6509q2.3448 0.51175 2.8566-1.8331z" clip-path="url(#a)" fill="#fff" stroke="#fff"/>
<g clip-path="url(#a)">
<g transform="translate(78.194 550.92) rotate(-77.688) scale(.08 -.08)">
<use xlink:href="#t"/>
</g>
</g>
<path d="m93.788 546.34 1.1853 5.4309q0.51175 2.3448 2.8566 1.8331l7.5644-1.6509q2.3448-0.51175 1.8331-2.8566l-1.1853-5.4309q-0.51175-2.3448-2.8566-1.8331l-7.5644 1.6509q-2.3448 0.51175-1.833 2.8566z" clip-path="url(#a)" fill="#fff" stroke="#fff"/>
<g clip-path="url(#a)">
<g transform="translate(97.759 545.48) rotate(77.688) scale(.08 -.08)">
<use xlink:href="#w"/>
</g>
</g>
<path d="m153.93 639.47v35.285q0 2.4 2.4 2.4h7.7425q2.4 0 2.4-2.4v-35.285q0-2.4-2.4-2.4h-7.7425q-2.4 0-2.4 2.4z" clip-path="url(#a)" fill="#fff" stroke="#fff"/>
<g clip-path="url(#a)">
<g transform="translate(157.99 639.47) rotate(90) scale(.08 -.08)">
<use xlink:href="#l"/>
<use x="60.818359" xlink:href="#d"/>
<use x="122.341797" xlink:href="#g"/>
<use x="163.439453" xlink:href="#k"/>
<use x="260.851562" xlink:href="#i"/>
<use x="288.634766" xlink:href="#f"/>
<use x="352.013672" xlink:href="#e"/>
<use x="413.292969" xlink:href="#j"/>
</g>
</g>
<path d="m201.68 639.47v35.285q0 2.4 2.4 2.4h7.7425q2.4 0 2.4-2.4v-35.285q0-2.4-2.4-2.4h-7.7425q-2.4 0-2.4 2.4z" clip-path="url(#a)" fill="#fff" stroke="#fff"/>
<g clip-path="url(#a)">
<g transform="translate(205.74 639.47) rotate(90) scale(.08 -.08)">
<use xlink:href="#l"/>
<use x="60.818359" xlink:href="#d"/>
<use x="122.341797" xlink:href="#g"/>
<use x="163.439453" xlink:href="#k"/>
<use x="260.851562" xlink:href="#i"/>
<use x="288.634766" xlink:href="#f"/>
<use x="352.013672" xlink:href="#e"/>
<use x="413.292969" xlink:href="#j"/>
</g>
</g>
<path d="m249.43 639.47v35.285q0 2.4 2.4 2.4h7.7425q2.4 0 2.4-2.4v-35.285q0-2.4-2.4-2.4h-7.7425q-2.4 0-2.4 2.4z" clip-path="url(#a)" fill="#fff" stroke="#fff"/>
<g clip-path="url(#a)">
<g transform="translate(253.49 639.47) rotate(90) scale(.08 -.08)">
<use xlink:href="#l"/>
<use x="60.818359" xlink:href="#d"/>
<use x="122.341797" xlink:href="#g"/>
<use x="163.439453" xlink:href="#k"/>
<use x="260.851562" xlink:href="#i"/>
<use x="288.634766" xlink:href="#f"/>
<use x="352.013672" xlink:href="#e"/>
<use x="413.292969" xlink:href="#j"/>
</g>
</g>
<path d="m326.45 552.31 1.7295-5.2829q0.7467-2.2809-1.5342-3.0276l-7.3582-2.4089q-2.2809-0.7467-3.0276 1.5342l-1.7295 5.2829q-0.7467 2.2809 1.5342 3.0276l7.3582 2.4089q2.2809 0.7467 3.0276-1.5342z" clip-path="url(#a)" fill="#fff" stroke="#fff"/>
<g clip-path="url(#a)">
<g transform="translate(322.59 551.05) rotate(-71.873) scale(.08 -.08)">
<use xlink:href="#w"/>
</g>
</g>
<path d="m350.34 547.02 1.738 5.309q0.7467 2.2809 3.0276 1.5342l7.3582-2.4089q2.2809-0.7467 1.5342-3.0276l-1.738-5.309q-0.7467-2.2809-3.0276-1.5342l-7.3582 2.4089q-2.2809 0.7467-1.5342 3.0276z" clip-path="url(#a)" fill="#fff" stroke="#fff"/>
<g clip-path="url(#a)">
<g transform="translate(354.2 545.75) rotate(71.873) scale(.08 -.08)">
<use xlink:href="#t"/>
</g>
</g>
<path d="m297.18 639.47v35.285q0 2.4 2.4 2.4h7.7425q2.4 0 2.4-2.4v-35.285q0-2.4-2.4-2.4h-7.7425q-2.4 0-2.4 2.4z" clip-path="url(#a)" fill="#fff" stroke="#fff"/>
<g clip-path="url(#a)">
<g transform="translate(301.24 639.47) rotate(90) scale(.08 -.08)">
<use xlink:href="#l"/>
<use x="60.818359" xlink:href="#d"/>
<use x="122.341797" xlink:href="#g"/>
<use x="163.439453" xlink:href="#k"/>
<use x="260.851562" xlink:href="#i"/>
<use x="288.634766" xlink:href="#f"/>
<use x="352.013672" xlink:href="#e"/>
<use x="413.292969" xlink:href="#j"/>
</g>
</g>
<path d="m365.5 675.69 7.5238-34.474q0.51175-2.3448-1.8331-2.8566l-7.5644-1.6509q-2.3448-0.51175-2.8566 1.8331l-7.5238 34.474q-0.51175 2.3448 1.8331 2.8566l7.5644 1.6509q2.3448 0.51175 2.8566-1.833z" clip-path="url(#a)" fill="#fff" stroke="#fff"/>
<g clip-path="url(#a)">
<g transform="translate(361.53 674.82) rotate(-77.688) scale(.08 -.08)">
<use xlink:href="#l"/>
<use x="60.818359" xlink:href="#d"/>
<use x="122.341797" xlink:href="#g"/>
<use x="163.439453" xlink:href="#k"/>
<use x="260.851562" xlink:href="#i"/>
<use x="288.634766" xlink:href="#f"/>
<use x="352.013672" xlink:href="#e"/>
<use x="413.292969" xlink:href="#j"/>
</g>
</g>
<path d="m377.13 641.22 7.5238 34.474q0.51175 2.3448 2.8566 1.833l7.5644-1.6509q2.3448-0.51175 1.8331-2.8566l-7.5238-34.474q-0.51175-2.3448-2.8566-1.8331l-7.5644 1.6509q-2.3448 0.51175-1.8331 2.8566z" clip-path="url(#a)" fill="#fff" stroke="#fff"/>
<g clip-path="url(#a)">
<g transform="translate(381.1 640.35) rotate(77.688) scale(.08 -.08)">
<use xlink:href="#l"/>
<use x="60.818359" xlink:href="#d"/>
<use x="122.341797" xlink:href="#g"/>
<use x="163.439453" xlink:href="#k"/>
<use x="260.851562" xlink:href="#i"/>
<use x="288.634766" xlink:href="#f"/>
<use x="352.013672" xlink:href="#e"/>
<use x="413.292969" xlink:href="#j"/>
</g>
</g>
<path d="m58.423 639.47v35.285q0 2.4 2.4 2.4h7.7425q2.4 0 2.4-2.4v-35.285q0-2.4-2.4-2.4h-7.7425q-2.4 0-2.4 2.4z" clip-path="url(#a)" fill="#fff" stroke="#fff"/>
<g clip-path="url(#a)">
<g transform="translate(62.487 639.47) rotate(90) scale(.08 -.08)">
<use xlink:href="#l"/>
<use x="60.818359" xlink:href="#d"/>
<use x="122.341797" xlink:href="#g"/>
<use x="163.439453" xlink:href="#k"/>
<use x="260.851562" xlink:href="#i"/>
<use x="288.634766" xlink:href="#f"/>
<use x="352.013672" xlink:href="#e"/>
<use x="413.292969" xlink:href="#j"/>
</g>
</g>
<path d="m106.17 639.47v35.285q0 2.4 2.4 2.4h7.7425q2.4 0 2.4-2.4v-35.285q0-2.4-2.4-2.4h-7.7425q-2.4 0-2.4 2.4z" clip-path="url(#a)" fill="#fff" stroke="#fff"/>
<g clip-path="url(#a)">
<g transform="translate(110.24 639.47) rotate(90) scale(.08 -.08)">
<use xlink:href="#l"/>
<use x="60.818359" xlink:href="#d"/>
<use x="122.341797" xlink:href="#g"/>
<use x="163.439453" xlink:href="#k"/>
<use x="260.851562" xlink:href="#i"/>
<use x="288.634766" xlink:href="#f"/>
<use x="352.013672" xlink:href="#e"/>
<use x="413.292969" xlink:href="#j"/>
</g>
</g>
<path d="m511.61 159.87 6.8239-7.2172q1.6489-1.7439-0.095041-3.3928l-5.6259-5.3193q-1.7439-1.6489-3.3928 0.095041l-6.8239 7.2172q-1.6489 1.7439 0.095042 3.3928l5.6259 5.3193q1.7439 1.6489 3.3928-0.095042z" clip-path="url(#a)" fill="#fff" stroke="#fff"/>
<g clip-path="url(#a)">
<g transform="translate(508.66 157.08) rotate(-46.605) scale(.08 -.08)">
<use xlink:href="#x"/>
<use x="55.744141" xlink:href="#o"/>
</g>
</g>
<path d="m623.03 313.81 0.29146 10.012q0.069835 2.399 2.4688 2.3291l7.7392-0.22529q2.399-0.069835 2.3291-2.4688l-0.29146-10.012q-0.069836-2.399-2.4688-2.3291l-7.7392 0.22529q-2.399 0.069836-2.3291 2.4688z" clip-path="url(#a)" fill="#fff" stroke="#fff"/>
<g clip-path="url(#a)">
<g transform="translate(627.09 313.69) rotate(88.333) scale(.08 -.08)">
<use xlink:href="#x"/>
<use x="55.712891" xlink:href="#w"/>
</g>
</g>
<path d="m716.2 97.08 8.597 4.9746q2.0773 1.202 3.2793-0.87529l3.8777-6.7015q1.202-2.0773-0.87529-3.2793l-8.597-4.9746q-2.0773-1.202-3.2793 0.87529l-3.8777 6.7015q-1.202 2.0773 0.87529 3.2793z" clip-path="url(#a)" fill="#fff" stroke="#fff"/>
<g clip-path="url(#a)">
<g transform="translate(718.24 93.562) rotate(30.055) scale(.08 -.08)">
<use xlink:href="#x"/>
<use x="55.744141" xlink:href="#o"/>
</g>
</g>
<path d="m1013.4 639.47v35.285q0 2.4 2.4 2.4h7.7425q2.4 0 2.4-2.4v-35.285q0-2.4-2.4-2.4h-7.7425q-2.4 0-2.4 2.4z" clip-path="url(#a)" fill="#fff" stroke="#fff"/>
<g clip-path="url(#a)">
<g transform="translate(1017.5 639.47) rotate(90) scale(.08 -.08)">
<use xlink:href="#l"/>
<use x="60.818359" xlink:href="#d"/>
<use x="122.341797" xlink:href="#g"/>
<use x="163.439453" xlink:href="#k"/>
<use x="260.851562" xlink:href="#i"/>
<use x="288.634766" xlink:href="#f"/>
<use x="352.013672" xlink:href="#e"/>
<use x="413.292969" xlink:href="#j"/>
</g>
</g>
<path d="m1347.7 639.47v35.285q0 2.4 2.4 2.4h7.7425q2.4 0 2.4-2.4v-35.285q0-2.4-2.4-2.4h-7.7425q-2.4 0-2.4 2.4z" clip-path="url(#a)" fill="#fff" stroke="#fff"/>
<g clip-path="url(#a)">
<g transform="translate(1351.8 639.47) rotate(90) scale(.08 -.08)">
<use xlink:href="#l"/>
<use x="60.818359" xlink:href="#d"/>
<use x="122.341797" xlink:href="#g"/>
<use x="163.439453" xlink:href="#k"/>
<use x="260.851562" xlink:href="#i"/>
<use x="288.634766" xlink:href="#f"/>
<use x="352.013672" xlink:href="#e"/>
<use x="413.292969" xlink:href="#j"/>
</g>
</g>
<defs>
<path id="b" d="m0 8.6603c2.2967 0 4.4997-0.9125 6.1237-2.5365 1.624-1.624 2.5365-3.827 2.5365-6.1237s-0.9125-4.4997-2.5365-6.1237c-1.624-1.624-3.827-2.5365-6.1237-2.5365s-4.4997 0.9125-6.1237 2.5365c-1.624 1.624-2.5365 3.827-2.5365 6.1237s0.9125 4.4997 2.5365 6.1237c1.624 1.624 3.827 2.5365 6.1237 2.5365z"/>
</defs>
<g clip-path="url(#a)">
<use x="64.694726" y="711.813718" fill="#ffffff" stroke="#ffffff" xlink:href="#b"/>
</g>
<g clip-path="url(#a)">
<use x="112.445734" y="711.813718" fill="#ffffff" stroke="#ffffff" xlink:href="#b"/>
</g>
<g clip-path="url(#a)">
<use x="160.196742" y="711.813718" fill="#ffffff" stroke="#ffffff" xlink:href="#b"/>
</g>
<g clip-path="url(#a)">
<use x="207.94775" y="711.813718" fill="#ffffff" stroke="#ffffff" xlink:href="#b"/>
</g>
<g clip-path="url(#a)">
<use x="255.698758" y="711.813718" fill="#ffffff" stroke="#ffffff" xlink:href="#b"/>
</g>
<g clip-path="url(#a)">
<use x="303.449766" y="711.813718" fill="#ffffff" stroke="#ffffff" xlink:href="#b"/>
</g>
<g clip-path="url(#a)">
<use x="351.200774" y="711.813718" fill="#ffffff" stroke="#ffffff" xlink:href="#b"/>
</g>
<g clip-path="url(#a)">
<use x="398.951782" y="711.813718" fill="#ffffff" stroke="#ffffff" xlink:href="#b"/>
</g>
<g clip-path="url(#a)">
<use x="446.702789" y="711.813718" fill="#ffffff" stroke="#ffffff" xlink:href="#b"/>
</g>
<g clip-path="url(#a)">
<use x="494.453797" y="711.813718" fill="#ffffff" stroke="#ffffff" xlink:href="#b"/>
</g>
<g clip-path="url(#a)">
<use x="542.204805" y="711.813718" fill="#ffffff" stroke="#ffffff" xlink:href="#b"/>
</g>
<g clip-path="url(#a)">
<use x="589.955813" y="711.813718" fill="#ffffff" stroke="#ffffff" xlink:href="#b"/>
</g>
<g clip-path="url(#a)">
<use x="637.706821" y="711.813718" fill="#ffffff" stroke="#ffffff" xlink:href="#b"/>
</g>
<g clip-path="url(#a)">
<use x="685.457829" y="711.813718" fill="#ffffff" stroke="#ffffff" xlink:href="#b"/>
</g>
<g clip-path="url(#a)">
<use x="733.208837" y="711.813718" fill="#ffffff" stroke="#ffffff" xlink:href="#b"/>
</g>
<g clip-path="url(#a)">
<use x="780.959845" y="711.813718" fill="#ffffff" stroke="#ffffff" xlink:href="#b"/>
</g>
<g clip-path="url(#a)">
<use x="828.710853" y="711.813718" fill="#ffffff" stroke="#ffffff" xlink:href="#b"/>
</g>
<g clip-path="url(#a)">
<use x="876.461861" y="711.813718" fill="#ffffff" stroke="#ffffff" xlink:href="#b"/>
</g>
<g clip-path="url(#a)">
<use x="924.212869" y="711.813718" fill="#ffffff" stroke="#ffffff" xlink:href="#b"/>
</g>
<g clip-path="url(#a)">
<use x="971.963877" y="711.813718" fill="#ffffff" stroke="#ffffff" xlink:href="#b"/>
</g>
<g clip-path="url(#a)">
<use x="1019.714885" y="711.813718" fill="#ffffff" stroke="#ffffff" xlink:href="#b"/>
</g>
<g clip-path="url(#a)">
<use x="1067.465893" y="711.813718" fill="#ffffff" stroke="#ffffff" xlink:href="#b"/>
</g>
<g clip-path="url(#a)">
<use x="1115.216901" y="711.813718" fill="#ffffff" stroke="#ffffff" xlink:href="#b"/>
</g>
<g clip-path="url(#a)">
<use x="1162.967909" y="711.813718" fill="#ffffff" stroke="#ffffff" xlink:href="#b"/>
</g>
<g clip-path="url(#a)">
<use x="1210.718917" y="711.813718" fill="#ffffff" stroke="#ffffff" xlink:href="#b"/>
</g>
<g clip-path="url(#a)">
<use x="1258.469925" y="711.813718" fill="#ffffff" stroke="#ffffff" xlink:href="#b"/>
</g>
<g clip-path="url(#a)">
<use x="1306.220933" y="711.813718" fill="#ffffff" stroke="#ffffff" xlink:href="#b"/>
</g>
<g clip-path="url(#a)">
<use x="1353.971941" y="711.813718" fill="#ffffff" stroke="#ffffff" xlink:href="#b"/>
</g>
<g clip-path="url(#a)">
<use x="621.184641" y="34.852949" fill="#ffffff" stroke="#ffffff" xlink:href="#b"/>
</g>
<g clip-path="url(#a)">
<use x="399.747632" y="269.05364" fill="#ffffff" stroke="#ffffff" xlink:href="#b"/>
</g>
<g clip-path="url(#a)">
<use x="637.706821" y="602.41855" fill="#ffffff" stroke="#ffffff" xlink:href="#b"/>
</g>
<g clip-path="url(#a)">
<use x="826.09947" y="153.424941" fill="#ffffff" stroke="#ffffff" xlink:href="#b"/>
</g>
<g clip-path="url(#a)">
<use x="709.333333" y="493.023381" fill="#ffffff" stroke="#ffffff" xlink:href="#b"/>
</g>
<g clip-path="url(#a)">
<use x="780.959845" y="602.41855" fill="#ffffff" stroke="#ffffff" xlink:href="#b"/>
</g>
<g clip-path="url(#a)">
<use x="828.710853" y="602.41855" fill="#ffffff" stroke="#ffffff" xlink:href="#b"/>
</g>
<g clip-path="url(#a)">
<use x="985.393848" y="269.05364" fill="#ffffff" stroke="#ffffff" xlink:href="#b"/>
</g>
<g clip-path="url(#a)">
<use x="876.461861" y="602.41855" fill="#ffffff" stroke="#ffffff" xlink:href="#b"/>
</g>
<g clip-path="url(#a)">
<use x="948.088373" y="602.41855" fill="#ffffff" stroke="#ffffff" xlink:href="#b"/>
</g>
<g clip-path="url(#a)">
<use x="1097.310273" y="382.106406" fill="#ffffff" stroke="#ffffff" xlink:href="#b"/>
</g>
<g clip-path="url(#a)">
<use x="1067.465893" y="602.41855" fill="#ffffff" stroke="#ffffff" xlink:href="#b"/>
</g>
<g clip-path="url(#a)">
<use x="1115.216901" y="602.41855" fill="#ffffff" stroke="#ffffff" xlink:href="#b"/>
</g>
<g clip-path="url(#a)">
<use x="1258.469925" y="493.023381" fill="#ffffff" stroke="#ffffff" xlink:href="#b"/>
</g>
<g clip-path="url(#a)">
<use x="1162.967909" y="602.41855" fill="#ffffff" stroke="#ffffff" xlink:href="#b"/>
</g>
<g clip-path="url(#a)">
<use x="1210.718917" y="602.41855" fill="#ffffff" stroke="#ffffff" xlink:href="#b"/>
</g>
<g clip-path="url(#a)">
<use x="1258.469925" y="602.41855" fill="#ffffff" stroke="#ffffff" xlink:href="#b"/>
</g>
<g clip-path="url(#a)">
<use x="1306.220933" y="602.41855" fill="#ffffff" stroke="#ffffff" xlink:href="#b"/>
</g>
<g clip-path="url(#a)">
<use x="685.457829" y="602.41855" fill="#ffffff" stroke="#ffffff" xlink:href="#b"/>
</g>
<g clip-path="url(#a)">
<use x="733.208837" y="602.41855" fill="#ffffff" stroke="#ffffff" xlink:href="#b"/>
</g>
<g clip-path="url(#a)">
<use x="210.3353" y="382.106406" fill="#ffffff" stroke="#ffffff" xlink:href="#b"/>
</g>
<g clip-path="url(#a)">
<use x="446.702789" y="602.41855" fill="#ffffff" stroke="#ffffff" xlink:href="#b"/>
</g>
<g clip-path="url(#a)">
<use x="542.204805" y="602.41855" fill="#ffffff" stroke="#ffffff" xlink:href="#b"/>
</g>
<g clip-path="url(#a)">
<use x="88.57023" y="493.023381" fill="#ffffff" stroke="#ffffff" xlink:href="#b"/>
</g>
<g clip-path="url(#a)">
<use x="160.196742" y="602.41855" fill="#ffffff" stroke="#ffffff" xlink:href="#b"/>
</g>
<g clip-path="url(#a)">
<use x="207.94775" y="602.41855" fill="#ffffff" stroke="#ffffff" xlink:href="#b"/>
</g>
<g clip-path="url(#a)">
<use x="255.698758" y="602.41855" fill="#ffffff" stroke="#ffffff" xlink:href="#b"/>
</g>
<g clip-path="url(#a)">
<use x="339.263022" y="493.023381" fill="#ffffff" stroke="#ffffff" xlink:href="#b"/>
</g>
<g clip-path="url(#a)">
<use x="303.449766" y="602.41855" fill="#ffffff" stroke="#ffffff" xlink:href="#b"/>
</g>
<g clip-path="url(#a)">
<use x="375.076278" y="602.41855" fill="#ffffff" stroke="#ffffff" xlink:href="#b"/>
</g>
<g clip-path="url(#a)">
<use x="64.694726" y="602.41855" fill="#ffffff" stroke="#ffffff" xlink:href="#b"/>
</g>
<g clip-path="url(#a)">
<use x="112.445734" y="602.41855" fill="#ffffff" stroke="#ffffff" xlink:href="#b"/>
</g>
<g clip-path="url(#a)">
<use x="621.184641" y="34.852949" fill="#808080" stroke="#808080" xlink:href="#b"/>
</g>
<g clip-path="url(#a)">
<use x="1019.714885" y="602.41855" fill="#ffffff" stroke="#ffffff" xlink:href="#b"/>
</g>
<g clip-path="url(#a)">
<use x="1353.971941" y="602.41855" fill="#ffffff" stroke="#ffffff" xlink:href="#b"/>
</g>
<g clip-path="url(#a)">
<defs>
<path id="q" d="m30.609 48.391q-7.2188 0-11.422-5.6406t-4.2031-15.453 4.1719-15.453q4.1875-5.6406 11.453-5.6406 7.1875 0 11.375 5.6562 4.2031 5.6719 4.2031 15.438 0 9.7188-4.2031 15.406-4.1875 5.6875-11.375 5.6875zm0 7.6094q11.719 0 18.406-7.625 6.7031-7.6094 6.7031-21.078 0-13.422-6.7031-21.078-6.6875-7.6406-18.406-7.6406-11.766 0-18.438 7.6406-6.6562 7.6562-6.6562 21.078 0 13.469 6.6562 21.078 6.6719 7.625 18.438 7.625z"/>
<path id="ai" d="m9.0781 75.984h9.0312v-44.875l26.812 23.578h11.469l-29-25.578 30.234-29.109h-11.719l-27.797 26.703v-26.703h-9.0312z"/>
</defs>
<g transform="translate(48.953 714.57) scale(.1 -.1)">
<use xlink:href="#ak"/>
<use x="63.476562" xlink:href="#q"/>
<use x="124.658203" xlink:href="#g"/>
<use x="165.771484" xlink:href="#ai"/>
<use x="223.681641" xlink:href="#i"/>
<use x="251.464844" xlink:href="#f"/>
</g>
</g>
<g clip-path="url(#a)">
<defs>
<path id="au" d="m17.922 72.906v-27.109h-8.2969v27.109z"/>
<path id="p" d="m44.281 53.078v-8.5q-3.7969 1.9531-7.9062 2.9219-4.0938 0.98438-8.5 0.98438-6.6875 0-10.031-2.0469t-3.3438-6.1562q0-3.125 2.3906-4.9062t9.625-3.3906l3.0781-0.6875q9.5625-2.0469 13.594-5.7812t4.0312-10.422q0-7.625-6.0312-12.078-6.0312-4.4375-16.578-4.4375-4.3906 0-9.1562 0.85938t-10.031 2.5625v9.2812q4.9844-2.5938 9.8125-3.8906 4.8281-1.2812 9.5781-1.2812 6.3438 0 9.75 2.1719 3.4219 2.1719 3.4219 6.125 0 3.6562-2.4688 5.6094-2.4531 1.9531-10.812 3.7656l-3.125 0.73438q-8.3438 1.75-12.062 5.3906-3.7031 3.6406-3.7031 9.9844 0 7.7188 5.4688 11.906 5.4688 4.2031 15.531 4.2031 4.9688 0 9.3594-0.73438 4.4062-0.71875 8.1094-2.1875z"/>
</defs>
<g transform="translate(108.47 714.57) scale(.1 -.1)">
<use xlink:href="#au"/>
<use x="27.490234" xlink:href="#p"/>
</g>
</g>
<g clip-path="url(#a)">
<defs>
<path id="u" d="m18.312 70.219v-15.531h18.5v-6.9844h-18.5v-29.688q0-6.6875 1.8281-8.5938t7.4531-1.9062h9.2188v-7.5156h-9.2188q-10.406 0-14.359 3.875-3.9531 3.8906-3.9531 14.141v29.688h-6.5938v6.9844h6.5938v15.531z"/>
</defs>
<g transform="translate(151.18 714.57) scale(.1 -.1)">
<use xlink:href="#j"/>
<use x="27.783203" xlink:href="#e"/>
<use x="89.0625" xlink:href="#p"/>
<use x="141.162109" xlink:href="#u"/>
</g>
</g>
<g clip-path="url(#a)">
<defs>
<path id="ao" d="m18.109 8.2031v-29h-9.0312v75.484h9.0312v-8.2969q2.8438 4.875 7.1562 7.2344 4.3281 2.375 10.328 2.375 9.9688 0 16.188-7.9062 6.2344-7.9062 6.2344-20.797t-6.2344-20.812q-6.2188-7.9062-16.188-7.9062-6 0-10.328 2.375-4.3125 2.375-7.1562 7.25zm30.578 19.094q0 9.9062-4.0781 15.547t-11.203 5.6406q-7.1406 0-11.219-5.6406t-4.0781-15.547 4.0781-15.547 11.219-5.6406q7.125 0 11.203 5.6406t4.0781 15.547z"/>
<path id="v" d="m45.406 46.391v29.594h8.9844v-75.984h-8.9844v8.2031q-2.8281-4.875-7.1562-7.25-4.3125-2.375-10.375-2.375-9.9062 0-16.141 7.9062-6.2188 7.9219-6.2188 20.812t6.2188 20.797q6.2344 7.9062 16.141 7.9062 6.0625 0 10.375-2.375 4.3281-2.3594 7.1562-7.2344zm-30.609-19.094q0-9.9062 4.0781-15.547t11.203-5.6406 11.219 5.6406q4.1094 5.6406 4.1094 15.547t-4.1094 15.547q-4.0938 5.6406-11.219 5.6406t-11.203-5.6406-4.0781-15.547z"/>
<path id="an" d="m8.5 21.578v33.109h8.9844v-32.766q0-7.7656 3.0156-11.656 3.0312-3.875 9.0938-3.875 7.2656 0 11.484 4.6406 4.2344 4.6406 4.2344 12.656v31h8.9844v-54.688h-8.9844v8.4062q-3.2656-4.9844-7.5938-7.4062-4.3125-2.4219-10.031-2.4219-9.4219 0-14.312 5.8594-4.875 5.8594-4.875 17.141z"/>
<path id="s" d="m48.781 52.594v-8.4062q-3.8125 2.1094-7.6406 3.1562t-7.7344 1.0469q-8.75 0-13.594-5.5469-4.8281-5.5312-4.8281-15.547t4.8281-15.562q4.8438-5.5312 13.594-5.5312 3.9062 0 7.7344 1.0469t7.6406 3.1562v-8.3125q-3.7656-1.75-7.7969-2.625-4.0156-0.89062-8.5625-0.89062-12.359 0-19.641 7.7656-7.2656 7.7656-7.2656 20.953 0 13.375 7.3438 21.031 7.3594 7.6719 20.156 7.6719 4.1406 0 8.0938-0.85938 3.9531-0.84375 7.6719-2.5469z"/>
</defs>
<g transform="translate(184.32 714.57) scale(.1 -.1)">
<use xlink:href="#ao"/>
<use x="63.476562" xlink:href="#g"/>
<use x="104.558594" xlink:href="#q"/>
<use x="165.740234" xlink:href="#v"/>
<use x="229.216797" xlink:href="#an"/>
<use x="292.595703" xlink:href="#s"/>
<use x="347.576172" xlink:href="#d"/>
<use x="409.099609" xlink:href="#v"/>
</g>
</g>
<g clip-path="url(#a)">
<defs>
<path id="av" d="m32.172-5.0781q-3.7969-9.7656-7.4219-12.734-3.6094-2.9844-9.6562-2.9844h-7.1875v7.5156h5.2812q3.7031 0 5.75 1.7656 2.0625 1.75 4.5469 8.2969l1.6094 4.0938-22.109 53.812h9.5156l17.094-42.766 17.094 42.766h9.5156z"/>
</defs>
<g transform="translate(228.38 714.57) scale(.1 -.1)">
<use xlink:href="#p"/>
<use x="52.099609" xlink:href="#s"/>
<use x="107.080078" xlink:href="#g"/>
<use x="148.162109" xlink:href="#d"/>
<use x="209.685547" xlink:href="#d"/>
<use x="271.208984" xlink:href="#f"/>
<use x="334.587891" xlink:href="#ao"/>
<use x="398.064453" xlink:href="#j"/>
<use x="425.847656" xlink:href="#e"/>
<use x="487.126953" xlink:href="#av"/>
</g>
</g>
<g clip-path="url(#a)">
<defs>
<path id="ax" d="m37.109 75.984v-7.4844h-8.5938q-4.8281 0-6.7188-1.9531-1.875-1.9531-1.875-7.0312v-4.8281h14.797v-6.9844h-14.797v-47.703h-9.0312v47.703h-8.5938v6.9844h8.5938v3.8125q0 9.125 4.25 13.297 4.25 4.1875 13.469 4.1875z"/>
</defs>
<g transform="translate(296.57 714.57) scale(.1 -.1)">
<use xlink:href="#ax"/>
<use x="35.205078" xlink:href="#q"/>
<use x="96.386719" xlink:href="#g"/>
</g>
</g>
<g clip-path="url(#a)">
<g transform="translate(335.61 714.57) scale(.1 -.1)">
<use xlink:href="#t"/>
<use x="69.824219" xlink:href="#e"/>
<use x="131.103516" xlink:href="#p"/>
<use x="183.203125" xlink:href="#u"/>
<use x="222.412109" xlink:href="#j"/>
<use x="250.195312" xlink:href="#d"/>
</g>
</g>
<g clip-path="url(#a)">
<g transform="translate(386.78 714.57) scale(.1 -.1)">
<use xlink:href="#w"/>
<use x="69.419922" xlink:href="#q"/>
<use x="130.601562" xlink:href="#s"/>
<use x="185.582031" xlink:href="#ai"/>
</g>
</g>
<g clip-path="url(#a)">
<defs>
<path id="ab" d="m4.2031 54.688h8.9844l11.234-42.672 11.172 42.672h10.594l11.234-42.672 11.188 42.672h8.9844l-14.312-54.688h-10.594l-11.766 44.828-11.812-44.828h-10.609z"/>
</defs>
<g transform="translate(436.94 714.57) scale(.1 -.1)">
<use xlink:href="#ab"/>
<use x="81.787109" xlink:href="#e"/>
<use x="143.066406" xlink:href="#p"/>
</g>
</g>
<g clip-path="url(#a)">
<defs>
<path id="ac" d="m54.891 33.016v-33.016h-8.9844v32.719q0 7.7656-3.0312 11.609-3.0312 3.8594-9.0781 3.8594-7.2812 0-11.484-4.6406-4.2031-4.625-4.2031-12.641v-30.906h-9.0312v75.984h9.0312v-29.797q3.2344 4.9375 7.5938 7.375 4.375 2.4375 10.094 2.4375 9.4219 0 14.25-5.8281 4.8438-5.8281 4.8438-17.156z"/>
</defs>
<g transform="translate(485.15 714.57) scale(.1 -.1)">
<use xlink:href="#l"/>
<use x="61.083984" xlink:href="#ac"/>
<use x="124.462891" xlink:href="#d"/>
</g>
</g>
<g clip-path="url(#a)">
<g transform="translate(518.41 714.57) scale(.1 -.1)">
<use xlink:href="#o"/>
<use x="68.408203" xlink:href="#k"/>
<use x="165.820312" xlink:href="#d"/>
<use x="227.34375" xlink:href="#g"/>
<use x="268.457031" xlink:href="#i"/>
<use x="296.240234" xlink:href="#s"/>
<use x="351.220703" xlink:href="#e"/>
<use x="412.5" xlink:href="#f"/>
</g>
</g>
<g clip-path="url(#a)">
<g transform="translate(566.44 714.57) scale(.1 -.1)">
<use xlink:href="#ad"/>
<use x="60.287109" xlink:href="#g"/>
<use x="101.369141" xlink:href="#d"/>
<use x="162.892578" xlink:href="#p"/>
<use x="214.992188" xlink:href="#i"/>
<use x="242.775391" xlink:href="#v"/>
<use x="306.251953" xlink:href="#d"/>
<use x="367.775391" xlink:href="#f"/>
<use x="431.154297" xlink:href="#u"/>
</g>
</g>
<g clip-path="url(#a)">
<g transform="translate(628.3 714.57) scale(.1 -.1)">
<use xlink:href="#e"/>
<use x="61.279297" xlink:href="#f"/>
<use x="124.658203" xlink:href="#v"/>
</g>
</g>
<g clip-path="url(#a)">
<g transform="translate(673.4 714.57) scale(.1 -.1)">
<use xlink:href="#q"/>
<use x="61.181641" xlink:href="#f"/>
<use x="124.560547" xlink:href="#s"/>
<use x="179.541016" xlink:href="#d"/>
</g>
</g>
<g clip-path="url(#a)">
<defs>
<path id="aw" d="m45.406 27.984q0 9.7656-4.0312 15.125-4.0156 5.375-11.297 5.375-7.2188 0-11.25-5.375-4.0312-5.3594-4.0312-15.125 0-9.7188 4.0312-15.094t11.25-5.375q7.2812 0 11.297 5.375 4.0312 5.375 4.0312 15.094zm8.9844-21.203q0-13.953-6.2031-20.766-6.1875-6.8125-18.984-6.8125-4.7344 0-8.9375 0.70312t-8.1562 2.1719v8.7344q3.9531-2.1406 7.8125-3.1562 3.8594-1.0312 7.8594-1.0312 8.8438 0 13.234 4.6094t4.3906 13.938v4.4531q-2.7812-4.8438-7.125-7.2344t-10.406-2.3906q-10.047 0-16.203 7.6562-6.1562 7.6719-6.1562 20.328 0 12.688 6.1562 20.344 6.1562 7.6719 16.203 7.6719 6.0625 0 10.406-2.3906t7.125-7.2188v8.2969h8.9844z"/>
</defs>
<g transform="translate(719.35 714.57) scale(.1 -.1)">
<use xlink:href="#e"/>
<use x="61.279297" xlink:href="#aw"/>
<use x="124.755859" xlink:href="#e"/>
<use x="186.035156" xlink:href="#i"/>
<use x="213.818359" xlink:href="#f"/>
</g>
</g>
<g clip-path="url(#a)">
<g transform="translate(774.71 714.57) scale(.1 -.1)">
<use xlink:href="#ac"/>
<use x="63.378906" xlink:href="#d"/>
</g>
</g>
<g clip-path="url(#a)">
<g transform="translate(810.36 714.57) scale(.1 -.1)">
<use xlink:href="#ab"/>
<use x="81.787109" xlink:href="#q"/>
<use x="142.96875" xlink:href="#g"/>
<use x="184.082031" xlink:href="#ai"/>
<use x="241.945312" xlink:href="#d"/>
<use x="303.46875" xlink:href="#v"/>
</g>
</g>
<g clip-path="url(#a)">
<g transform="translate(865.85 714.57) scale(.1 -.1)">
<use xlink:href="#ab"/>
<use x="81.787109" xlink:href="#i"/>
<use x="109.570312" xlink:href="#u"/>
<use x="148.779297" xlink:href="#ac"/>
</g>
</g>
<g clip-path="url(#a)">
<defs>
<path id="ap" d="m3.3281 72.906h9.9531l15.328-61.625 15.281 61.625h11.094l15.328-61.625 15.281 61.625h10.016l-18.312-72.906h-12.406l-15.375 63.281-15.531-63.281h-12.406z"/>
</defs>
<g transform="translate(905.78 714.57) scale(.1 -.1)">
<use xlink:href="#ap"/>
<use x="98.845703" xlink:href="#i"/>
<use x="126.628906" xlink:href="#j"/>
<use x="154.412109" xlink:href="#j"/>
<use x="182.195312" xlink:href="#i"/>
<use x="209.978516" xlink:href="#e"/>
<use x="271.257812" xlink:href="#k"/>
</g>
</g>
<g clip-path="url(#a)">
<defs>
<path id="aq" d="m59.516 10.406v19.578h-16.109v8.1094h25.875v-31.312q-5.7031-4.0469-12.594-6.125-6.875-2.0781-14.688-2.0781-17.094 0-26.75 9.9844-9.6406 10-9.6406 27.812 0 17.875 9.6406 27.859 9.6562 9.9844 26.75 9.9844 7.125 0 13.547-1.7656 6.4219-1.75 11.844-5.1719v-10.5q-5.4688 4.6406-11.625 6.9844t-12.938 2.3438q-13.391 0-20.109-7.4688-6.7031-7.4688-6.7031-22.266 0-14.75 6.7031-22.219 6.7188-7.4688 20.109-7.4688 5.2188 0 9.3125 0.90625 4.1094 0.90625 7.375 2.8125z"/>
</defs>
<g transform="translate(949.36 714.57) scale(.1 -.1)">
<use xlink:href="#aq"/>
<use x="77.490234" xlink:href="#q"/>
<use x="138.671875" xlink:href="#j"/>
<use x="166.455078" xlink:href="#v"/>
<use x="229.931641" xlink:href="#k"/>
<use x="327.34375" xlink:href="#e"/>
<use x="388.623047" xlink:href="#f"/>
</g>
</g>
<g clip-path="url(#a)">
<defs>
<path id="at" d="m11.719 12.406h10.297v-8.4062l-8-15.625h-6.2969l4 15.625z"/>
</defs>
<g transform="translate(1018.1 714.57) scale(.1 -.1)">
<use xlink:href="#at"/>
</g>
</g>
<g clip-path="url(#a)">
<g transform="translate(1057.1 714.57) scale(.1 -.1)">
<use xlink:href="#ab"/>
<use x="81.787109" xlink:href="#ac"/>
<use x="145.166016" xlink:href="#q"/>
</g>
</g>
<g clip-path="url(#a)">
<defs>
<path id="am" d="m2.9844 54.688h9.5156l17.094-45.891 17.094 45.891h9.5156l-20.516-54.688h-12.203z"/>
</defs>
<g transform="translate(1098.3 714.57) scale(.1 -.1)">
<use xlink:href="#p"/>
<use x="52.099609" xlink:href="#d"/>
<use x="113.623047" xlink:href="#g"/>
<use x="154.736328" xlink:href="#am"/>
<use x="213.916016" xlink:href="#d"/>
<use x="275.439453" xlink:href="#v"/>
</g>
</g>
<g clip-path="url(#a)">
<g transform="translate(1157.3 714.57) scale(.1 -.1)">
<use xlink:href="#e"/>
<use x="61.279297" xlink:href="#p"/>
</g>
</g>
<g clip-path="url(#a)">
<g transform="translate(1207.7 714.57) scale(.1 -.1)">
<use xlink:href="#e"/>
</g>
</g>
<g clip-path="url(#a)">
<g transform="translate(1238.1 714.57) scale(.1 -.1)">
<use xlink:href="#s"/>
<use x="54.980469" xlink:href="#g"/>
<use x="96.0625" xlink:href="#d"/>
<use x="157.585938" xlink:href="#e"/>
<use x="218.865234" xlink:href="#u"/>
<use x="258.074219" xlink:href="#i"/>
<use x="285.857422" xlink:href="#am"/>
<use x="345.037109" xlink:href="#d"/>
</g>
</g>
<g clip-path="url(#a)">
<g transform="translate(1279.9 714.57) scale(.1 -.1)">
<use xlink:href="#s"/>
<use x="54.980469" xlink:href="#q"/>
<use x="116.162109" xlink:href="#f"/>
<use x="179.541016" xlink:href="#p"/>
<use x="231.640625" xlink:href="#an"/>
<use x="295.019531" xlink:href="#j"/>
<use x="322.802734" xlink:href="#u"/>
<use x="362.011719" xlink:href="#e"/>
<use x="423.291016" xlink:href="#f"/>
<use x="486.669922" xlink:href="#u"/>
</g>
</g>
<g clip-path="url(#a)">
<defs>
<path id="h" d="m10.688 12.406h10.312v-12.406h-10.312z"/>
</defs>
<g transform="translate(1352.4 714.57) scale(.1 -.1)">
<use xlink:href="#h"/>
</g>
</g>
<g clip-path="url(#a)">
<defs>
<path id="c" d="m12.406 8.2969h16.109v55.625l-17.531-3.5156v8.9844l17.438 3.5156h9.8594v-64.609h16.109v-8.2969h-41.984z"/>
</defs>
<g transform="translate(613.23 37.612) scale(.1 -.1)">
<use xlink:href="#c"/>
<use x="63.623047" xlink:href="#h"/>
<use x="95.410156" xlink:href="#c"/>
</g>
</g>
<g clip-path="url(#a)">
<defs>
<path id="m" d="m19.188 8.2969h34.422v-8.2969h-46.281v8.2969q5.6094 5.8125 15.297 15.594 9.7031 9.7969 12.188 12.641 4.7344 5.3125 6.6094 9 1.8906 3.6875 1.8906 7.25 0 5.8125-4.0781 9.4688-4.0781 3.6719-10.625 3.6719-4.6406 0-9.7969-1.6094-5.1406-1.6094-11-4.8906v9.9688q5.9531 2.3906 11.125 3.6094 5.1875 1.2188 9.4844 1.2188 11.328 0 18.062-5.6719 6.7344-5.6562 6.7344-15.125 0-4.5-1.6875-8.5312-1.6719-4.0156-6.125-9.4844-1.2188-1.4219-7.7656-8.1875-6.5312-6.7656-18.453-18.922z"/>
</defs>
<g transform="translate(391.8 271.81) scale(.1 -.1)">
<use xlink:href="#c"/>
<use x="63.623047" xlink:href="#h"/>
<use x="95.410156" xlink:href="#m"/>
</g>
</g>
<g clip-path="url(#a)">
<defs>
<path id="n" d="m40.578 39.312q7.0781-1.5156 11.047-6.3125 3.9844-4.7812 3.9844-11.812 0-10.781-7.4219-16.703-7.4219-5.9062-21.094-5.9062-4.5781 0-9.4375 0.90625t-10.031 2.7188v9.5156q4.0938-2.3906 8.9688-3.6094 4.8906-1.2188 10.219-1.2188 9.2656 0 14.125 3.6562t4.8594 10.641q0 6.4531-4.5156 10.078-4.5156 3.6406-12.562 3.6406h-8.5v8.1094h8.8906q7.2656 0 11.125 2.9062t3.8594 8.375q0 5.6094-3.9844 8.6094-3.9688 3.0156-11.391 3.0156-4.0625 0-8.7031-0.89062-4.6406-0.875-10.203-2.7188v8.7812q5.625 1.5625 10.531 2.3438t9.25 0.78125q11.234 0 17.766-5.1094 6.5469-5.0938 6.5469-13.781 0-6.0625-3.4688-10.234t-9.8594-5.7812z"/>
</defs>
<g transform="translate(629.76 605.18) scale(.1 -.1)">
<use xlink:href="#c"/>
<use x="63.623047" xlink:href="#h"/>
<use x="95.410156" xlink:href="#n"/>
</g>
</g>
<g clip-path="url(#a)">
<defs>
<path id="aa" d="m37.797 64.312-24.906-38.922h24.906zm-2.5938 8.5938h12.406v-47.516h10.406v-8.2031h-10.406v-17.188h-9.8125v17.188h-32.906v9.5156z"/>
</defs>
<g transform="translate(818.15 156.18) scale(.1 -.1)">
<use xlink:href="#c"/>
<use x="63.623047" xlink:href="#h"/>
<use x="95.410156" xlink:href="#aa"/>
</g>
</g>
<g clip-path="url(#a)">
<defs>
<path id="z" d="m33.016 40.375q-6.6406 0-10.531-4.5469-3.875-4.5312-3.875-12.438 0-7.8594 3.875-12.438 3.8906-4.5625 10.531-4.5625t10.516 4.5625q3.875 4.5781 3.875 12.438 0 7.9062-3.875 12.438-3.875 4.5469-10.516 4.5469zm19.578 30.922v-8.9844q-3.7188 1.75-7.5 2.6719-3.7812 0.9375-7.5 0.9375-9.7656 0-14.922-6.5938-5.1406-6.5938-5.875-19.922 2.875 4.25 7.2188 6.5156 4.3594 2.2656 9.5781 2.2656 10.984 0 17.359-6.6719 6.375-6.6562 6.375-18.125 0-11.234-6.6406-18.031-6.6406-6.7812-17.672-6.7812-12.656 0-19.344 9.6875-6.6875 9.7031-6.6875 28.109 0 17.281 8.2031 27.562t22.016 10.281q3.7188 0 7.5-0.73438t7.8906-2.1875z"/>
</defs>
<g transform="translate(701.38 495.78) scale(.1 -.1)">
<use xlink:href="#c"/>
<use x="63.623047" xlink:href="#h"/>
<use x="95.410156" xlink:href="#z"/>
</g>
</g>
<g clip-path="url(#a)">
<defs>
<path id="y" d="m8.2031 72.906h46.875v-4.2031l-26.469-68.703h-10.297l24.906 64.594h-35.016z"/>
</defs>
<g transform="translate(773.01 605.18) scale(.1 -.1)">
<use xlink:href="#c"/>
<use x="63.623047" xlink:href="#h"/>
<use x="95.410156" xlink:href="#y"/>
</g>
</g>
<g clip-path="url(#a)">
<defs>
<path id="af" d="m31.781 34.625q-7.0312 0-11.062-3.7656-4.0156-3.7656-4.0156-10.344 0-6.5938 4.0156-10.359 4.0312-3.7656 11.062-3.7656t11.078 3.7812q4.0625 3.7969 4.0625 10.344 0 6.5781-4.0312 10.344-4.0156 3.7656-11.109 3.7656zm-9.8594 4.1875q-6.3438 1.5625-9.8906 5.9062-3.5312 4.3594-3.5312 10.609 0 8.7344 6.2188 13.812 6.2344 5.0781 17.062 5.0781 10.891 0 17.094-5.0781t6.2031-13.812q0-6.25-3.5469-10.609-3.5312-4.3438-9.8281-5.9062 7.125-1.6562 11.094-6.5 3.9844-4.8281 3.9844-11.797 0-10.609-6.4688-16.281-6.4688-5.6562-18.531-5.6562-12.047 0-18.531 5.6562-6.4688 5.6719-6.4688 16.281 0 6.9688 4 11.797 4.0156 4.8438 11.141 6.5zm-3.6094 15.578q0-5.6562 3.5312-8.8281 3.5469-3.1719 9.9375-3.1719 6.3594 0 9.9375 3.1719 3.5938 3.1719 3.5938 8.8281 0 5.6719-3.5938 8.8438-3.5781 3.1719-9.9375 3.1719-6.3906 0-9.9375-3.1719-3.5312-3.1719-3.5312-8.8438z"/>
</defs>
<g transform="translate(820.76 605.18) scale(.1 -.1)">
<use xlink:href="#c"/>
<use x="63.623047" xlink:href="#h"/>
<use x="95.410156" xlink:href="#af"/>
</g>
</g>
<g clip-path="url(#a)">
<defs>
<path id="ae" d="m10.984 1.5156v8.9844q3.7188-1.7656 7.5156-2.6875 3.8125-0.92188 7.4844-0.92188 9.7656 0 14.906 6.5625 5.1562 6.5625 5.8906 19.953-2.8281-4.2031-7.1875-6.4531-4.3438-2.25-9.6094-2.25-10.938 0-17.312 6.6094-6.375 6.625-6.375 18.109 0 11.219 6.6406 18 6.6406 6.7969 17.672 6.7969 12.656 0 19.312-9.7031 6.6719-9.6875 6.6719-28.141 0-17.234-8.1875-27.516-8.1719-10.281-21.984-10.281-3.7188 0-7.5312 0.73438-3.7969 0.73438-7.9062 2.2031zm19.625 30.906q6.6406 0 10.516 4.5312 3.8906 4.5469 3.8906 12.469 0 7.8594-3.8906 12.422-3.875 4.5625-10.516 4.5625t-10.516-4.5625-3.875-12.422q0-7.9219 3.875-12.469 3.875-4.5312 10.516-4.5312z"/>
</defs>
<g transform="translate(977.44 271.81) scale(.1 -.1)">
<use xlink:href="#c"/>
<use x="63.623047" xlink:href="#h"/>
<use x="95.410156" xlink:href="#ae"/>
</g>
</g>
<g clip-path="url(#a)">
<defs>
<path id="ah" d="m31.781 66.406q-7.6094 0-11.453-7.5-3.8281-7.4844-3.8281-22.531 0-14.984 3.8281-22.484 3.8438-7.5 11.453-7.5 7.6719 0 11.5 7.5 3.8438 7.5 3.8438 22.484 0 15.047-3.8438 22.531-3.8281 7.5-11.5 7.5zm0 7.8125q12.266 0 18.734-9.7031 6.4688-9.6875 6.4688-28.141 0-18.406-6.4688-28.109-6.4688-9.6875-18.734-9.6875-12.25 0-18.719 9.6875-6.4688 9.7031-6.4688 28.109 0 18.453 6.4688 28.141 6.4688 9.7031 18.719 9.7031z"/>
</defs>
<g transform="translate(865.33 605.18) scale(.1 -.1)">
<use xlink:href="#c"/>
<use x="63.623047" xlink:href="#h"/>
<use x="95.410156" xlink:href="#c"/>
<use x="159.033203" xlink:href="#ah"/>
</g>
</g>
<g clip-path="url(#a)">
<g transform="translate(936.96 605.18) scale(.1 -.1)">
<use xlink:href="#c"/>
<use x="63.623047" xlink:href="#h"/>
<use x="95.410156" xlink:href="#c"/>
<use x="159.033203" xlink:href="#c"/>
</g>
</g>
<g clip-path="url(#a)">
<g transform="translate(1086.2 384.87) scale(.1 -.1)">
<use xlink:href="#c"/>
<use x="63.623047" xlink:href="#h"/>
<use x="95.410156" xlink:href="#c"/>
<use x="159.033203" xlink:href="#n"/>
</g>
</g>
<g clip-path="url(#a)">
<g transform="translate(1056.3 605.18) scale(.1 -.1)">
<use xlink:href="#c"/>
<use x="63.623047" xlink:href="#h"/>
<use x="95.410156" xlink:href="#c"/>
<use x="159.033203" xlink:href="#aa"/>
</g>
</g>
<g clip-path="url(#a)">
<defs>
<path id="ag" d="m10.797 72.906h38.719v-8.3125h-29.688v-17.859q2.1406 0.73438 4.2812 1.0938 2.1562 0.35938 4.3125 0.35938 12.203 0 19.328-6.6875 7.1406-6.6875 7.1406-18.109 0-11.766-7.3281-18.297-7.3281-6.5156-20.656-6.5156-4.5938 0-9.3594 0.78125-4.75 0.78125-9.8281 2.3438v9.9219q4.3906-2.3906 9.0781-3.5625t9.9062-1.1719q8.4531 0 13.375 4.4375 4.9375 4.4375 4.9375 12.062 0 7.6094-4.9375 12.047-4.9219 4.4531-13.375 4.4531-3.9531 0-7.8906-0.875-3.9219-0.875-8.0156-2.7344z"/>
</defs>
<g transform="translate(1104.1 605.18) scale(.1 -.1)">
<use xlink:href="#c"/>
<use x="63.623047" xlink:href="#h"/>
<use x="95.410156" xlink:href="#c"/>
<use x="159.033203" xlink:href="#ag"/>
</g>
</g>
<g clip-path="url(#a)">
<g transform="translate(1247.3 495.78) scale(.1 -.1)">
<use xlink:href="#c"/>
<use x="63.623047" xlink:href="#h"/>
<use x="95.410156" xlink:href="#c"/>
<use x="159.033203" xlink:href="#z"/>
</g>
</g>
<g clip-path="url(#a)">
<g transform="translate(1151.8 605.18) scale(.1 -.1)">
<use xlink:href="#c"/>
<use x="63.623047" xlink:href="#h"/>
<use x="95.410156" xlink:href="#c"/>
<use x="159.033203" xlink:href="#y"/>
</g>
</g>
<g clip-path="url(#a)">
<g transform="translate(1199.6 605.18) scale(.1 -.1)">
<use xlink:href="#c"/>
<use x="63.623047" xlink:href="#h"/>
<use x="95.410156" xlink:href="#c"/>
<use x="159.033203" xlink:href="#af"/>
</g>
</g>
<g clip-path="url(#a)">
<g transform="translate(1247.3 605.18) scale(.1 -.1)">
<use xlink:href="#c"/>
<use x="63.623047" xlink:href="#h"/>
<use x="95.410156" xlink:href="#c"/>
<use x="159.033203" xlink:href="#ae"/>
</g>
</g>
<g clip-path="url(#a)">
<g transform="translate(1295.1 605.18) scale(.1 -.1)">
<use xlink:href="#c"/>
<use x="63.623047" xlink:href="#h"/>
<use x="95.410156" xlink:href="#m"/>
<use x="159.033203" xlink:href="#ah"/>
</g>
</g>
<g clip-path="url(#a)">
<g transform="translate(674.33 605.18) scale(.1 -.1)">
<use xlink:href="#c"/>
<use x="63.623047" xlink:href="#h"/>
<use x="95.410156" xlink:href="#m"/>
<use x="159.033203" xlink:href="#c"/>
</g>
</g>
<g clip-path="url(#a)">
<g transform="translate(722.08 605.18) scale(.1 -.1)">
<use xlink:href="#c"/>
<use x="63.623047" xlink:href="#h"/>
<use x="95.410156" xlink:href="#m"/>
<use x="159.033203" xlink:href="#m"/>
</g>
</g>
<g clip-path="url(#a)">
<g transform="translate(199.2 384.87) scale(.1 -.1)">
<use xlink:href="#c"/>
<use x="63.623047" xlink:href="#h"/>
<use x="95.410156" xlink:href="#m"/>
<use x="159.033203" xlink:href="#n"/>
</g>
</g>
<g clip-path="url(#a)">
<g transform="translate(435.57 605.18) scale(.1 -.1)">
<use xlink:href="#c"/>
<use x="63.623047" xlink:href="#h"/>
<use x="95.410156" xlink:href="#m"/>
<use x="159.033203" xlink:href="#aa"/>
</g>
</g>
<g clip-path="url(#a)">
<g transform="translate(531.07 605.18) scale(.1 -.1)">
<use xlink:href="#c"/>
<use x="63.623047" xlink:href="#h"/>
<use x="95.410156" xlink:href="#m"/>
<use x="159.033203" xlink:href="#ag"/>
</g>
</g>
<g clip-path="url(#a)">
<g transform="translate(77.437 495.78) scale(.1 -.1)">
<use xlink:href="#c"/>
<use x="63.623047" xlink:href="#h"/>
<use x="95.410156" xlink:href="#m"/>
<use x="159.033203" xlink:href="#z"/>
</g>
</g>
<g clip-path="url(#a)">
<g transform="translate(149.06 605.18) scale(.1 -.1)">
<use xlink:href="#c"/>
<use x="63.623047" xlink:href="#h"/>
<use x="95.410156" xlink:href="#m"/>
<use x="159.033203" xlink:href="#y"/>
</g>
</g>
<g clip-path="url(#a)">
<g transform="translate(196.81 605.18) scale(.1 -.1)">
<use xlink:href="#c"/>
<use x="63.623047" xlink:href="#h"/>
<use x="95.410156" xlink:href="#m"/>
<use x="159.033203" xlink:href="#af"/>
</g>
</g>
<g clip-path="url(#a)">
<g transform="translate(244.57 605.18) scale(.1 -.1)">
<use xlink:href="#c"/>
<use x="63.623047" xlink:href="#h"/>
<use x="95.410156" xlink:href="#m"/>
<use x="159.033203" xlink:href="#ae"/>
</g>
</g>
<g clip-path="url(#a)">
<g transform="translate(328.13 495.78) scale(.1 -.1)">
<use xlink:href="#c"/>
<use x="63.623047" xlink:href="#h"/>
<use x="95.410156" xlink:href="#n"/>
<use x="159.033203" xlink:href="#ah"/>
</g>
</g>
<g clip-path="url(#a)">
<g transform="translate(292.32 605.18) scale(.1 -.1)">
<use xlink:href="#c"/>
<use x="63.623047" xlink:href="#h"/>
<use x="95.410156" xlink:href="#n"/>
<use x="159.033203" xlink:href="#c"/>
</g>
</g>
<g clip-path="url(#a)">
<g transform="translate(363.94 605.18) scale(.1 -.1)">
<use xlink:href="#c"/>
<use x="63.623047" xlink:href="#h"/>
<use x="95.410156" xlink:href="#n"/>
<use x="159.033203" xlink:href="#m"/>
</g>
</g>
<g clip-path="url(#a)">
<g transform="translate(53.562 605.18) scale(.1 -.1)">
<use xlink:href="#c"/>
<use x="63.623047" xlink:href="#h"/>
<use x="95.410156" xlink:href="#n"/>
<use x="159.033203" xlink:href="#n"/>
</g>
</g>
<g clip-path="url(#a)">
<g transform="translate(101.31 605.18) scale(.1 -.1)">
<use xlink:href="#c"/>
<use x="63.623047" xlink:href="#h"/>
<use x="95.410156" xlink:href="#n"/>
<use x="159.033203" xlink:href="#aa"/>
</g>
</g>
<g clip-path="url(#a)">
<g transform="translate(610.05 37.612) scale(.1 -.1)">
<use xlink:href="#c"/>
<use x="63.623047" xlink:href="#h"/>
<use x="95.410156" xlink:href="#n"/>
<use x="159.033203" xlink:href="#ag"/>
</g>
</g>
<g clip-path="url(#a)">
<g transform="translate(1008.6 605.18) scale(.1 -.1)">
<use xlink:href="#c"/>
<use x="63.623047" xlink:href="#h"/>
<use x="95.410156" xlink:href="#n"/>
<use x="159.033203" xlink:href="#z"/>
</g>
</g>
<g clip-path="url(#a)">
<g transform="translate(1342.8 605.18) scale(.1 -.1)">
<use xlink:href="#c"/>
<use x="63.623047" xlink:href="#h"/>
<use x="95.410156" xlink:href="#n"/>
<use x="159.033203" xlink:href="#y"/>
</g>
</g>
<defs>
<clipPath id="a">
<rect width="1418.7" height="746.67"/>
</clipPath>
</defs>
</svg>
