<?xml version="1.0" encoding="UTF-8"?>
<!DOCTYPE svg  PUBLIC '-//W3C//DTD SVG 1.1//EN'  'http://www.w3.org/Graphics/SVG/1.1/DTD/svg11.dtd'>
<svg width="1570.7pt" height="826.67pt" version="1.1" viewBox="0 0 1570.7 826.67" xmlns="http://www.w3.org/2000/svg" xmlns:xlink="http://www.w3.org/1999/xlink">
<defs>
<style type="text/css">*{stroke-linecap:butt;stroke-linejoin:round;}</style>
</defs>
<path d="m0 826.67h1570.7v-826.67h-1570.7z" fill="#fff"/>
<g fill="none" stroke="#000">
<path d="m672.66 38.35-499.52 114.4" clip-path="url(#a)"/>
<path d="m672.66 38.35 207.84 647.26" clip-path="url(#a)"/>
<path d="m672.66 38.35 131.41 225.72" clip-path="url(#a)"/>
<path d="m672.66 38.35 160.26 647.26" clip-path="url(#a)"/>
<path d="m173.14 152.75-101.56 532.86" clip-path="url(#a)"/>
<path d="m173.14 152.75-53.972 532.86" clip-path="url(#a)"/>
<path d="m173.14 152.75 155.53 111.32" clip-path="url(#a)"/>
<path d="m880.5 685.61v102.71" clip-path="url(#a)"/>
<path d="m804.07 264.07 147.81 318.83" clip-path="url(#a)"/>
<path d="m804.07 264.07 219.18 421.54" clip-path="url(#a)"/>
<path d="m804.07 264.07 365.5 108.56" clip-path="url(#a)"/>
<path d="m804.07 264.07-732.49 421.54" clip-path="url(#a)" stroke-dasharray="3.7,1.6"/>
<path d="m951.88 582.9-23.792 102.71" clip-path="url(#a)"/>
<path d="m951.88 582.9 23.792 102.71" clip-path="url(#a)"/>
<path d="m1023.3 685.61v102.71" clip-path="url(#a)"/>
<path d="m1169.6 372.63-98.735 312.98" clip-path="url(#a)"/>
<path d="m1169.6 372.63-51.152 312.98" clip-path="url(#a)"/>
<path d="m1169.6 372.63 153.46 106.14" clip-path="url(#a)"/>
<path d="m1169.6 372.63-3.5688 312.98" clip-path="url(#a)"/>
<path d="m1070.8 685.61v102.71" clip-path="url(#a)"/>
<path d="m1118.4 685.61v102.71" clip-path="url(#a)"/>
<path d="m1323 478.77-204.61 206.84" clip-path="url(#a)" stroke-dasharray="3.7,1.6"/>
<path d="m1323 478.77-109.44 206.84" clip-path="url(#a)"/>
<path d="m1323 478.77 9.5167 104.14" clip-path="url(#a)"/>
<path d="m1323 478.77 128.48 206.84" clip-path="url(#a)"/>
<path d="m1323 478.77 176.06 206.84" clip-path="url(#a)"/>
<path d="m1213.6 685.61v102.71" clip-path="url(#a)"/>
<path d="m1332.5 582.9-71.375 205.41" clip-path="url(#a)"/>
<path d="m1332.5 582.9-23.792 205.41" clip-path="url(#a)"/>
<path d="m1332.5 582.9 71.375 205.41" clip-path="url(#a)"/>
<path d="m1332.5 582.9 23.792 102.71" clip-path="url(#a)"/>
<path d="m928.08 685.61v102.71" clip-path="url(#a)"/>
<path d="m975.67 685.61v102.71" clip-path="url(#a)"/>
<path d="m71.583 685.61v102.71" clip-path="url(#a)"/>
<path d="m119.17 685.61v102.71" clip-path="url(#a)"/>
<path d="m328.67 264.07-161.92 421.54" clip-path="url(#a)"/>
<path d="m328.67 264.07-54.853 318.83" clip-path="url(#a)"/>
<path d="m328.67 264.07 131.52 108.56" clip-path="url(#a)"/>
<path d="m328.67 264.07-114.33 421.54" clip-path="url(#a)"/>
<path d="m328.67 264.07 76.001 421.54" clip-path="url(#a)"/>
<path d="m328.67 264.07 123.58 421.54" clip-path="url(#a)"/>
<path d="m166.75 685.61v102.71" clip-path="url(#a)"/>
<path d="m273.81 582.9-107.06 102.71" clip-path="url(#a)" stroke-dasharray="3.7,1.6"/>
<path d="m273.81 582.9-11.896 102.71" clip-path="url(#a)"/>
<path d="m273.81 582.9 83.271 102.71" clip-path="url(#a)"/>
<path d="m273.81 582.9 35.688 102.71" clip-path="url(#a)"/>
<path d="m460.18 372.63-293.43 312.98" clip-path="url(#a)" stroke-dasharray="3.7,1.6"/>
<path d="m460.18 372.63 99.132 106.14" clip-path="url(#a)"/>
<path d="m460.18 372.63 194.3 106.14" clip-path="url(#a)"/>
<path d="m559.31 478.77-35.688 104.14" clip-path="url(#a)"/>
<path d="m559.31 478.77 35.688 206.84" clip-path="url(#a)"/>
<path d="m654.48 478.77-11.896 206.84" clip-path="url(#a)"/>
<path d="m654.48 478.77 83.271 104.14" clip-path="url(#a)"/>
<path d="m654.48 478.77 83.271 206.84" clip-path="url(#a)"/>
<path d="m654.48 478.77-154.65 206.84" clip-path="url(#a)" stroke-dasharray="3.7,1.6"/>
<path d="m642.58 685.61v102.71" clip-path="url(#a)"/>
<path d="m737.75 582.9-47.583 102.71" clip-path="url(#a)"/>
<path d="m737.75 582.9 47.583 102.71" clip-path="url(#a)"/>
<path d="m737.75 685.61v102.71" clip-path="url(#a)"/>
<path d="m690.17 685.61v102.71" clip-path="url(#a)"/>
<path d="m785.33 685.61v102.71" clip-path="url(#a)"/>
<path d="m523.62 582.9-23.792 102.71" clip-path="url(#a)"/>
<path d="m523.62 582.9 23.792 102.71" clip-path="url(#a)"/>
<path d="m595 685.61v102.71" clip-path="url(#a)"/>
<path d="m499.83 685.61v102.71" clip-path="url(#a)"/>
<path d="m547.42 685.61v102.71" clip-path="url(#a)"/>
<path d="m261.92 685.61v102.71" clip-path="url(#a)"/>
<path d="m214.33 685.61v102.71" clip-path="url(#a)"/>
<path d="m357.08 685.61v102.71" clip-path="url(#a)"/>
<path d="m309.5 685.61v102.71" clip-path="url(#a)"/>
<path d="m619.24 38.35-446.1 114.4" clip-path="url(#a)"/>
<path d="m619.24 38.35 261.26 647.26" clip-path="url(#a)"/>
<path d="m619.24 38.35 184.83 225.72" clip-path="url(#a)"/>
<path d="m404.67 685.61v102.71" clip-path="url(#a)"/>
<path d="m452.25 685.61v102.71" clip-path="url(#a)"/>
<path d="m832.92 685.61v102.71" clip-path="url(#a)"/>
<path d="m1166 685.61v102.71" clip-path="url(#a)"/>
<path d="m1356.3 685.61v102.71" clip-path="url(#a)"/>
<path d="m1451.5 685.61v102.71" clip-path="url(#a)"/>
<path d="m1499.1 685.61v102.71" clip-path="url(#a)"/>
</g>
<path d="m421.36 102.33 5.8644-1.343q2.3394-0.53576 1.8037-2.8752l-1.7284-7.5471q-0.53576-2.3394-2.8752-1.8037l-5.8644 1.343q-2.3394 0.53576-1.8037 2.8752l1.7284 7.5471q0.53576 2.3394 2.8752 1.8037z" clip-path="url(#a)" fill="#fff" stroke="#fff"/>
<g clip-path="url(#a)">
<defs>
<path id="ah" d="m9.8125 72.906h9.8594v-29.891h35.844v29.891h9.8594v-72.906h-9.8594v34.719h-35.844v-34.719h-9.8594z"/>
</defs>
<g transform="translate(420.46 98.372) rotate(-12.899) scale(.08 -.08)">
<use xlink:href="#ah"/>
</g>
</g>
<path d="m769.93 361.78 1.3628 4.2441q0.73377 2.2851 3.0188 1.5513l7.3718-2.3672q2.2851-0.73377 1.5513-3.0188l-1.3628-4.2441q-0.73377-2.2851-3.0188-1.5513l-7.3718 2.3672q-2.2851 0.73377-1.5513 3.0188z" clip-path="url(#a)" fill="#fff" stroke="#fff"/>
<g clip-path="url(#a)">
<defs>
<path id="ac" d="m9.8125 72.906h9.8594v-64.609h35.5v-8.2969h-45.359z"/>
</defs>
<g transform="translate(773.79 360.53) rotate(72.197) scale(.08 -.08)">
<use xlink:href="#ac"/>
</g>
</g>
<path d="m731.43 151.77 3.027 5.1993q1.2075 2.0741 3.2816 0.86656l6.6911-3.8956q2.0741-1.2075 0.86656-3.2816l-3.027-5.1993q-1.2075-2.0741-3.2816-0.86656l-6.6911 3.8956q-2.0741 1.2075-0.86656 3.2816z" clip-path="url(#a)" fill="#fff" stroke="#fff"/>
<g clip-path="url(#a)">
<g transform="translate(734.94 149.72) rotate(59.792) scale(.08 -.08)">
<use xlink:href="#ah"/>
</g>
</g>
<path d="m746 360.65 1.4072 5.6834q0.57682 2.3297 2.9065 1.7528l7.5156-1.8608q2.3297-0.57682 1.7528-2.9065l-1.4072-5.6834q-0.57682-2.3297-2.9065-1.7528l-7.5156 1.8608q-2.3297 0.57682-1.7528 2.9065z" clip-path="url(#a)" fill="#fff" stroke="#fff"/>
<g clip-path="url(#a)">
<defs>
<path id="q" d="m8.6875 72.906h9.9219v-44.297q0-11.719 4.2344-16.875 4.25-5.1406 13.781-5.1406 9.4688 0 13.719 5.1406 4.25 5.1562 4.25 16.875v44.297h9.9062v-45.516q0-14.25-7.0625-21.531-7.0469-7.2812-20.812-7.2812-13.828 0-20.891 7.2812-7.0469 7.2812-7.0469 21.531z"/>
</defs>
<g transform="translate(749.94 359.67) rotate(76.093) scale(.08 -.08)">
<use xlink:href="#q"/>
</g>
</g>
<path d="m128.01 423.04 1.0245-5.3757q0.44931-2.3576-1.9083-2.8069l-7.6056-1.4495q-2.3576-0.44932-2.8069 1.9083l-1.0245 5.3757q-0.44932 2.3576 1.9083 2.8069l7.6056 1.4495q2.3576 0.44932 2.8069-1.9083z" clip-path="url(#a)" fill="#fff" stroke="#fff"/>
<g clip-path="url(#a)">
<defs>
<path id="o" d="m34.188 63.188-13.391-36.281h26.812zm-5.5781 9.7188h11.188l27.781-72.906h-10.25l-6.6406 18.703h-32.859l-6.6406-18.703h-10.406z"/>
</defs>
<g transform="translate(124.02 422.28) rotate(-79.21) scale(.08 -.08)">
<use xlink:href="#o"/>
</g>
</g>
<path d="m152.15 422.21 0.4861-4.7992q0.24185-2.3878-2.1459-2.6296l-7.7031-0.78022q-2.3878-0.24185-2.6296 2.1459l-0.4861 4.7992q-0.24185 2.3878 2.1459 2.6296l7.7031 0.78022q2.3878 0.24185 2.6296-2.1459z" clip-path="url(#a)" fill="#fff" stroke="#fff"/>
<g clip-path="url(#a)">
<defs>
<path id="y" d="m19.672 64.797v-27.391h12.406q6.8906 0 10.641 3.5625 3.7656 3.5625 3.7656 10.156 0 6.5469-3.7656 10.109-3.75 3.5625-10.641 3.5625zm-9.8594 8.1094h22.266q12.266 0 18.531-5.5469 6.2812-5.5469 6.2812-16.234 0-10.797-6.2812-16.312-6.2656-5.5156-18.531-5.5156h-12.406v-29.297h-9.8594z"/>
</defs>
<g transform="translate(148.11 421.8) rotate(-84.216) scale(.08 -.08)">
<use xlink:href="#y"/>
</g>
</g>
<path d="m245.03 211.92 4.45 3.1852q1.9516 1.3969 3.3485-0.55469l4.5064-6.2959q1.3969-1.9516-0.55469-3.3485l-4.45-3.1852q-1.9516-1.3969-3.3485 0.55469l-4.5064 6.2959q-1.3969 1.9516 0.55469 3.3485z" clip-path="url(#a)" fill="#fff" stroke="#fff"/>
<g clip-path="url(#a)">
<g transform="translate(247.39 208.61) rotate(35.594) scale(.08 -.08)">
<use xlink:href="#o"/>
</g>
</g>
<path d="m874.23 719.32v35.285q0 2.4 2.4 2.4h7.7425q2.4 0 2.4-2.4v-35.285q0-2.4-2.4-2.4h-7.7425q-2.4 0-2.4 2.4z" clip-path="url(#a)" fill="#fff" stroke="#fff"/>
<g clip-path="url(#a)">
<defs>
<path id="l" d="m-0.29688 72.906h61.672v-8.3125h-25.875v-64.594h-9.9062v64.594h-25.891z"/>
<path id="h" d="m56.203 29.594v-4.3906h-41.312q0.59375-9.2812 5.5938-14.141t13.938-4.8594q5.1719 0 10.031 1.2656t9.6562 3.8125v-8.5q-4.8438-2.0469-9.9219-3.125t-10.297-1.0781q-13.094 0-20.734 7.6094-7.6406 7.625-7.6406 20.625 0 13.422 7.25 21.297 7.25 7.8906 19.562 7.8906 11.031 0 17.453-7.1094 6.4219-7.0938 6.4219-19.297zm-8.9844 2.6406q-0.09375 7.3594-4.125 11.75-4.0312 4.4062-10.672 4.4062-7.5156 0-12.031-4.25t-5.2031-11.969z"/>
<path id="f" d="m41.109 46.297q-1.5156 0.875-3.2969 1.2812-1.7812 0.42188-3.9219 0.42188-7.625 0-11.703-4.9531t-4.0781-14.234v-28.812h-9.0312v54.688h9.0312v-8.5q2.8438 4.9844 7.375 7.3906 4.5469 2.4219 11.047 2.4219 0.92188 0 2.0469-0.125 1.125-0.10938 2.4844-0.35938z"/>
<path id="j" d="m52 44.188q3.375 6.0625 8.0625 8.9375t11.031 2.875q8.5469 0 13.188-5.9844 4.6406-5.9688 4.6406-17v-33.016h-9.0312v32.719q0 7.8594-2.7969 11.656-2.7812 3.8125-8.4844 3.8125-6.9844 0-11.047-4.6406-4.0469-4.625-4.0469-12.641v-30.906h-9.0312v32.719q0 7.9062-2.7812 11.688t-8.5938 3.7812q-6.8906 0-10.953-4.6562-4.0469-4.6562-4.0469-12.625v-30.906h-9.0312v54.688h9.0312v-8.5q3.0781 5.0312 7.375 7.4219t10.203 2.3906q5.9688 0 10.141-3.0312 4.1719-3.0156 6.1719-8.7812z"/>
<path id="i" d="m9.4219 54.688h8.9844v-54.688h-8.9844zm0 21.297h8.9844v-11.391h-8.9844z"/>
<path id="g" d="m54.891 33.016v-33.016h-8.9844v32.719q0 7.7656-3.0312 11.609-3.0312 3.8594-9.0781 3.8594-7.2812 0-11.484-4.6406-4.2031-4.625-4.2031-12.641v-30.906h-9.0312v54.688h9.0312v-8.5q3.2344 4.9375 7.5938 7.375 4.375 2.4375 10.094 2.4375 9.4219 0 14.25-5.8281 4.8438-5.8281 4.8438-17.156z"/>
<path id="e" d="m34.281 27.484q-10.891 0-15.094-2.4844t-4.2031-8.5q0-4.7812 3.1562-7.5938 3.1562-2.7969 8.5625-2.7969 7.4844 0 12 5.2969t4.5156 14.078v2zm17.922 3.7188v-31.203h-8.9844v8.2969q-3.0781-4.9688-7.6719-7.3438t-11.234-2.375q-8.3906 0-13.359 4.7188-4.9531 4.7188-4.9531 12.625 0 9.2188 6.1719 13.906 6.1875 4.6875 18.438 4.6875h12.609v0.89062q0 6.2031-4.0781 9.5938t-11.453 3.3906q-4.6875 0-9.1406-1.125-4.4375-1.125-8.5312-3.375v8.3125q4.9219 1.9062 9.5625 2.8438 4.6406 0.95312 9.0312 0.95312 11.875 0 17.734-6.1562 5.8594-6.1406 5.8594-18.641z"/>
<path id="k" d="m9.4219 75.984h8.9844v-75.984h-8.9844z"/>
</defs>
<g transform="translate(878.29 719.32) rotate(90) scale(.08 -.08)">
<use xlink:href="#l"/>
<use x="60.818359" xlink:href="#h"/>
<use x="122.341797" xlink:href="#f"/>
<use x="163.439453" xlink:href="#j"/>
<use x="260.851562" xlink:href="#i"/>
<use x="288.634766" xlink:href="#g"/>
<use x="352.013672" xlink:href="#e"/>
<use x="413.292969" xlink:href="#k"/>
</g>
</g>
<path d="m871.13 423.64 2.3017 4.9649q1.0094 2.1774 3.1868 1.168l7.0244-3.2564q2.1774-1.0094 1.168-3.1868l-2.3017-4.9649q-1.0094-2.1774-3.1868-1.168l-7.0244 3.2564q-2.1774 1.0094-1.168 3.1868z" clip-path="url(#a)" fill="#fff" stroke="#fff"/>
<g clip-path="url(#a)">
<g transform="translate(874.82 421.93) rotate(65.128) scale(.08 -.08)">
<use xlink:href="#o"/>
</g>
</g>
<path d="m906.98 475.59 2.2253 4.2798q1.1072 2.1294 3.2365 1.0222l6.8694-3.5718q2.1294-1.1072 1.0222-3.2365l-2.2253-4.2798q-1.1072-2.1294-3.2365-1.0222l-6.8694 3.5718q-2.1294 1.1072-1.0222 3.2365z" clip-path="url(#a)" fill="#fff" stroke="#fff"/>
<g clip-path="url(#a)">
<g transform="translate(910.59 473.72) rotate(62.528) scale(.08 -.08)">
<use xlink:href="#y"/>
</g>
</g>
<path d="m982.41 323.58 5.246 1.5581q2.3007 0.68333 2.984-1.6173l2.2045-7.422q0.68333-2.3007-1.6173-2.984l-5.246-1.5581q-2.3007-0.68333-2.984 1.6173l-2.2045 7.422q-0.68333 2.3007 1.6173 2.984z" clip-path="url(#a)" fill="#fff" stroke="#fff"/>
<g clip-path="url(#a)">
<g transform="translate(983.57 319.69) rotate(16.542) scale(.08 -.08)">
<use xlink:href="#o"/>
</g>
</g>
<path d="m438.58 481.64 4.7431-2.7296q2.0801-1.1971 0.88303-3.2772l-3.8619-6.7106q-1.1971-2.0801-3.2772-0.88303l-4.7431 2.7296q-2.0801 1.1971-0.88303 3.2772l3.8619 6.7106q1.1971 2.0801 3.2772 0.88303z" clip-path="url(#a)" fill="#fff" stroke="#fff"/>
<g clip-path="url(#a)">
<g transform="translate(436.56 478.12) rotate(-29.92) scale(.08 -.08)">
<use xlink:href="#o"/>
</g>
</g>
<path d="m945.46 638.38 1.2545-5.4154q0.54161-2.3381-1.7965-2.8797l-7.5428-1.7473q-2.3381-0.54161-2.8797 1.7965l-1.2545 5.4154q-0.54161 2.3381 1.7965 2.8797l7.5428 1.7473q2.3381 0.54161 2.8797-1.7965z" clip-path="url(#a)" fill="#fff" stroke="#fff"/>
<g clip-path="url(#a)">
<defs>
<path id="ab" d="m44.391 34.188q3.1719-1.0781 6.1719-4.5938t6.0312-9.6719l10.016-19.922h-10.609l-9.3125 18.703q-3.625 7.3281-7.0156 9.7188t-9.25 2.3906h-10.75v-30.812h-9.8594v72.906h22.266q12.5 0 18.656-5.2344 6.1562-5.2188 6.1562-15.766 0-6.8906-3.2031-11.438-3.2031-4.5312-9.2969-6.2812zm-24.719 30.609v-25.875h12.406q7.125 0 10.766 3.2969t3.6406 9.6875-3.6406 9.6406-10.766 3.25z"/>
</defs>
<g transform="translate(941.5 637.46) rotate(-76.958) scale(.08 -.08)">
<use xlink:href="#ab"/>
</g>
</g>
<path d="m957.03 632.95 1.2607 5.4421q0.54161 2.3381 2.8797 1.7965l7.5428-1.7473q2.3381-0.54161 1.7965-2.8797l-1.2607-5.4421q-0.54161-2.3381-2.8797-1.7965l-7.5428 1.7473q-2.3381 0.54161-1.7965 2.8797z" clip-path="url(#a)" fill="#fff" stroke="#fff"/>
<g clip-path="url(#a)">
<defs>
<path id="u" d="m64.406 67.281v-10.391q-4.9844 4.6406-10.625 6.9219-5.6406 2.2969-11.984 2.2969-12.5 0-19.141-7.6406t-6.6406-22.094q0-14.406 6.6406-22.047t19.141-7.6406q6.3438 0 11.984 2.2969t10.625 6.9375v-10.312q-5.1719-3.5156-10.969-5.2812-5.7812-1.75-12.219-1.75-16.562 0-26.094 10.125-9.5156 10.141-9.5156 27.672 0 17.578 9.5156 27.703 9.5312 10.141 26.094 10.141 6.5312 0 12.312-1.7344 5.7969-1.7344 10.875-5.2031z"/>
</defs>
<g transform="translate(960.99 632.03) rotate(76.958) scale(.08 -.08)">
<use xlink:href="#u"/>
</g>
</g>
<path d="m1017 719.32v35.285q0 2.4 2.4 2.4h7.7425q2.4 0 2.4-2.4v-35.285q0-2.4-2.4-2.4h-7.7425q-2.4 0-2.4 2.4z" clip-path="url(#a)" fill="#fff" stroke="#fff"/>
<g clip-path="url(#a)">
<g transform="translate(1021 719.32) rotate(90) scale(.08 -.08)">
<use xlink:href="#l"/>
<use x="60.818359" xlink:href="#h"/>
<use x="122.341797" xlink:href="#f"/>
<use x="163.439453" xlink:href="#j"/>
<use x="260.851562" xlink:href="#i"/>
<use x="288.634766" xlink:href="#g"/>
<use x="352.013672" xlink:href="#e"/>
<use x="413.292969" xlink:href="#k"/>
</g>
</g>
<path d="m1125.4 533.42 1.5208-4.8208q0.72204-2.2888-1.5668-3.0109l-7.3838-2.3293q-2.2888-0.72204-3.0109 1.5668l-1.5208 4.8208q-0.72204 2.2888 1.5668 3.0109l7.3838 2.3293q2.2888 0.72204 3.0109-1.5668z" clip-path="url(#a)" fill="#fff" stroke="#fff"/>
<g clip-path="url(#a)">
<defs>
<path id="t" d="m9.8125 72.906h46.094v-8.3125h-36.234v-21.578h34.719v-8.2969h-34.719v-26.422h37.109v-8.2969h-46.969z"/>
</defs>
<g transform="translate(1121.5 532.19) rotate(-72.491) scale(.08 -.08)">
<use xlink:href="#t"/>
</g>
</g>
<path d="m1149.7 532.89 0.90103-5.5131q0.38711-2.3686-1.9815-2.7557l-7.6411-1.2488q-2.3686-0.38711-2.7557 1.9815l-0.90103 5.5131q-0.38711 2.3686 1.9815 2.7557l7.6411 1.2488q2.3686 0.38711 2.7557-1.9815z" clip-path="url(#a)" fill="#fff" stroke="#fff"/>
<g clip-path="url(#a)">
<g transform="translate(1145.7 532.23) rotate(-80.718) scale(.08 -.08)">
<use xlink:href="#u"/>
</g>
</g>
<path d="m1240.7 429.42 4.1574 2.8755q1.9739 1.3652 3.3391-0.60861l4.4043-6.3677q1.3652-1.9739-0.60861-3.3391l-4.1574-2.8755q-1.9739-1.3652-3.3391 0.60861l-4.4043 6.3677q-1.3652 1.9739 0.60861 3.3391z" clip-path="url(#a)" fill="#fff" stroke="#fff"/>
<g clip-path="url(#a)">
<g transform="translate(1243 426.08) rotate(34.67) scale(.08 -.08)">
<use xlink:href="#t"/>
</g>
</g>
<path d="m1174 532.12 0.066757-5.8546q0.027364-2.3998-2.3725-2.4272l-7.742-0.088278q-2.3998-0.027364-2.4272 2.3725l-0.066757 5.8546q-0.027364 2.3998 2.3725 2.4272l7.742 0.088277q2.3998 0.027364 2.4272-2.3725z" clip-path="url(#a)" fill="#fff" stroke="#fff"/>
<g clip-path="url(#a)">
<g transform="translate(1170 532.07) rotate(-89.347) scale(.08 -.08)">
<use xlink:href="#q"/>
</g>
</g>
<path d="m1064.6 719.32v35.285q0 2.4 2.4 2.4h7.7425q2.4 0 2.4-2.4v-35.285q0-2.4-2.4-2.4h-7.7425q-2.4 0-2.4 2.4z" clip-path="url(#a)" fill="#fff" stroke="#fff"/>
<g clip-path="url(#a)">
<g transform="translate(1068.6 719.32) rotate(90) scale(.08 -.08)">
<use xlink:href="#l"/>
<use x="60.818359" xlink:href="#h"/>
<use x="122.341797" xlink:href="#f"/>
<use x="163.439453" xlink:href="#j"/>
<use x="260.851562" xlink:href="#i"/>
<use x="288.634766" xlink:href="#g"/>
<use x="352.013672" xlink:href="#e"/>
<use x="413.292969" xlink:href="#k"/>
</g>
</g>
<path d="m1112.1 719.32v35.285q0 2.4 2.4 2.4h7.7425q2.4 0 2.4-2.4v-35.285q0-2.4-2.4-2.4h-7.7425q-2.4 0-2.4 2.4z" clip-path="url(#a)" fill="#fff" stroke="#fff"/>
<g clip-path="url(#a)">
<g transform="translate(1116.2 719.32) rotate(90) scale(.08 -.08)">
<use xlink:href="#l"/>
<use x="60.818359" xlink:href="#h"/>
<use x="122.341797" xlink:href="#f"/>
<use x="163.439453" xlink:href="#j"/>
<use x="260.851562" xlink:href="#i"/>
<use x="288.634766" xlink:href="#g"/>
<use x="352.013672" xlink:href="#e"/>
<use x="413.292969" xlink:href="#k"/>
</g>
</g>
<path d="m1223.3 588.54 3.8486-3.8906q1.6878-1.7062-0.01842-3.3941l-5.5044-5.445q-1.7062-1.6878-3.3941 0.01842l-3.8486 3.8906q-1.6878 1.7062 0.01842 3.3941l5.5044 5.445q1.7062 1.6878 3.3941-0.01842z" clip-path="url(#a)" fill="#fff" stroke="#fff"/>
<g clip-path="url(#a)">
<g transform="translate(1220.4 585.69) rotate(-45.311) scale(.08 -.08)">
<use xlink:href="#o"/>
</g>
</g>
<path d="m1272.7 587.25 2.256-4.2637q1.1224-2.1214-0.99893-3.2438l-6.8436-3.621q-2.1214-1.1224-3.2438 0.99893l-2.256 4.2637q-1.1224 2.1214 0.99893 3.2438l6.8436 3.621q2.1214 1.1224 3.2438-0.99893z" clip-path="url(#a)" fill="#fff" stroke="#fff"/>
<g clip-path="url(#a)">
<g transform="translate(1269.1 585.35) rotate(-62.116) scale(.08 -.08)">
<use xlink:href="#y"/>
</g>
</g>
<path d="m1321.3 528.34 0.56061 6.1344q0.21842 2.39 2.6085 2.1716l7.7104-0.70463q2.39-0.21842 2.1716-2.6085l-0.56061-6.1344q-0.21842-2.39-2.6085-2.1716l-7.7104 0.70463q-2.39 0.21842-2.1716 2.6085z" clip-path="url(#a)" fill="#fff" stroke="#fff"/>
<g clip-path="url(#a)">
<defs>
<path id="ai" d="m19.672 64.797v-56.688h11.922q15.094 0 22.094 6.8281 7 6.8438 7 21.594 0 14.641-7 21.453t-22.094 6.8125zm-9.8594 8.1094h20.266q21.188 0 31.094-8.8125 9.9219-8.8125 9.9219-27.562 0-18.859-9.9688-27.703-9.9531-8.8281-31.047-8.8281h-20.266z"/>
</defs>
<g transform="translate(1325.3 527.97) rotate(84.778) scale(.08 -.08)">
<use xlink:href="#ai"/>
</g>
</g>
<path d="m1380.4 583.01 3.0893 4.9737q1.2663 2.0387 3.3051 0.77242l6.577-4.0852q2.0387-1.2663 0.77242-3.3051l-3.0893-4.9737q-1.2663-2.0387-3.3051-0.77242l-6.577 4.0852q-2.0387 1.2663-0.77242 3.3051z" clip-path="url(#a)" fill="#fff" stroke="#fff"/>
<g clip-path="url(#a)">
<g transform="translate(1383.8 580.87) rotate(58.154) scale(.08 -.08)">
<use xlink:href="#q"/>
</g>
</g>
<path d="m1404.4 584.02 3.795 4.4586q1.5556 1.8276 3.3832 0.27199l5.8959-5.0184q1.8276-1.5556 0.27199-3.3832l-3.795-4.4586q-1.5556-1.8276-3.3832-0.27199l-5.8959 5.0184q-1.8276 1.5556-0.27199 3.3832z" clip-path="url(#a)" fill="#fff" stroke="#fff"/>
<g clip-path="url(#a)">
<g transform="translate(1407.5 581.39) rotate(49.596) scale(.08 -.08)">
<use xlink:href="#q"/>
</g>
</g>
<path d="m1207.3 719.32v35.285q0 2.4 2.4 2.4h7.7425q2.4 0 2.4-2.4v-35.285q0-2.4-2.4-2.4h-7.7425q-2.4 0-2.4 2.4z" clip-path="url(#a)" fill="#fff" stroke="#fff"/>
<g clip-path="url(#a)">
<g transform="translate(1211.4 719.32) rotate(90) scale(.08 -.08)">
<use xlink:href="#l"/>
<use x="60.818359" xlink:href="#h"/>
<use x="122.341797" xlink:href="#f"/>
<use x="163.439453" xlink:href="#j"/>
<use x="260.851562" xlink:href="#i"/>
<use x="288.634766" xlink:href="#g"/>
<use x="352.013672" xlink:href="#e"/>
<use x="413.292969" xlink:href="#k"/>
</g>
</g>
<path d="m1297 704.33 11.581-33.33q0.78773-2.267-1.4793-3.0548l-7.3136-2.5413q-2.267-0.78773-3.0548 1.4793l-11.581 33.33q-0.78773 2.267 1.4793 3.0548l7.3136 2.5413q2.267 0.78773 3.0548-1.4793z" clip-path="url(#a)" fill="#fff" stroke="#fff"/>
<g clip-path="url(#a)">
<g transform="translate(1293.1 703) rotate(-70.839) scale(.08 -.08)">
<use xlink:href="#l"/>
<use x="60.818359" xlink:href="#h"/>
<use x="122.341797" xlink:href="#f"/>
<use x="163.439453" xlink:href="#j"/>
<use x="260.851562" xlink:href="#i"/>
<use x="288.634766" xlink:href="#g"/>
<use x="352.013672" xlink:href="#e"/>
<use x="413.292969" xlink:href="#k"/>
</g>
</g>
<path d="m1324.8 703.86 4.0597-35.051q0.27613-2.3841-2.1079-2.6602l-7.6911-0.89081q-2.3841-0.27613-2.6602 2.1079l-4.0597 35.051q-0.27613 2.3841 2.1079 2.6602l7.6911 0.89081q2.3841 0.27613 2.6602-2.1079z" clip-path="url(#a)" fill="#fff" stroke="#fff"/>
<g clip-path="url(#a)">
<g transform="translate(1320.8 703.39) rotate(-83.393) scale(.08 -.08)">
<use xlink:href="#l"/>
<use x="60.818359" xlink:href="#h"/>
<use x="122.341797" xlink:href="#f"/>
<use x="163.439453" xlink:href="#j"/>
<use x="260.851562" xlink:href="#i"/>
<use x="288.634766" xlink:href="#g"/>
<use x="352.013672" xlink:href="#e"/>
<use x="413.292969" xlink:href="#k"/>
</g>
</g>
<path d="m1356.5 671 11.581 33.33q0.78773 2.267 3.0548 1.4793l7.3136-2.5413q2.267-0.78773 1.4793-3.0548l-11.581-33.33q-0.78773-2.267-3.0548-1.4793l-7.3136 2.5413q-2.267 0.78773-1.4793 3.0548z" clip-path="url(#a)" fill="#fff" stroke="#fff"/>
<g clip-path="url(#a)">
<g transform="translate(1360.4 669.67) rotate(70.839) scale(.08 -.08)">
<use xlink:href="#l"/>
<use x="60.818359" xlink:href="#h"/>
<use x="122.341797" xlink:href="#f"/>
<use x="163.439453" xlink:href="#j"/>
<use x="260.851562" xlink:href="#i"/>
<use x="288.634766" xlink:href="#g"/>
<use x="352.013672" xlink:href="#e"/>
<use x="413.292969" xlink:href="#k"/>
</g>
</g>
<path d="m1337.7 632.82 1.3213 5.704q0.54161 2.3381 2.8797 1.7965l7.5428-1.7473q2.3381-0.54161 1.7965-2.8797l-1.3213-5.704q-0.54161-2.3381-2.8797-1.7965l-7.5428 1.7473q-2.3381 0.54161-1.7965 2.8797z" clip-path="url(#a)" fill="#fff" stroke="#fff"/>
<g clip-path="url(#a)">
<g transform="translate(1341.6 631.9) rotate(76.958) scale(.08 -.08)">
<use xlink:href="#q"/>
</g>
</g>
<path d="m921.81 719.32v35.285q0 2.4 2.4 2.4h7.7425q2.4 0 2.4-2.4v-35.285q0-2.4-2.4-2.4h-7.7425q-2.4 0-2.4 2.4z" clip-path="url(#a)" fill="#fff" stroke="#fff"/>
<g clip-path="url(#a)">
<g transform="translate(925.88 719.32) rotate(90) scale(.08 -.08)">
<use xlink:href="#l"/>
<use x="60.818359" xlink:href="#h"/>
<use x="122.341797" xlink:href="#f"/>
<use x="163.439453" xlink:href="#j"/>
<use x="260.851562" xlink:href="#i"/>
<use x="288.634766" xlink:href="#g"/>
<use x="352.013672" xlink:href="#e"/>
<use x="413.292969" xlink:href="#k"/>
</g>
</g>
<path d="m969.4 719.32v35.285q0 2.4 2.4 2.4h7.7425q2.4 0 2.4-2.4v-35.285q0-2.4-2.4-2.4h-7.7425q-2.4 0-2.4 2.4z" clip-path="url(#a)" fill="#fff" stroke="#fff"/>
<g clip-path="url(#a)">
<g transform="translate(973.46 719.32) rotate(90) scale(.08 -.08)">
<use xlink:href="#l"/>
<use x="60.818359" xlink:href="#h"/>
<use x="122.341797" xlink:href="#f"/>
<use x="163.439453" xlink:href="#j"/>
<use x="260.851562" xlink:href="#i"/>
<use x="288.634766" xlink:href="#g"/>
<use x="352.013672" xlink:href="#e"/>
<use x="413.292969" xlink:href="#k"/>
</g>
</g>
<path d="m65.312 719.32v35.285q0 2.4 2.4 2.4h7.7425q2.4 0 2.4-2.4v-35.285q0-2.4-2.4-2.4h-7.7425q-2.4 0-2.4 2.4z" clip-path="url(#a)" fill="#fff" stroke="#fff"/>
<g clip-path="url(#a)">
<g transform="translate(69.375 719.32) rotate(90) scale(.08 -.08)">
<use xlink:href="#l"/>
<use x="60.818359" xlink:href="#h"/>
<use x="122.341797" xlink:href="#f"/>
<use x="163.439453" xlink:href="#j"/>
<use x="260.851562" xlink:href="#i"/>
<use x="288.634766" xlink:href="#g"/>
<use x="352.013672" xlink:href="#e"/>
<use x="413.292969" xlink:href="#k"/>
</g>
</g>
<path d="m112.89 719.32v35.285q0 2.4 2.4 2.4h7.7425q2.4 0 2.4-2.4v-35.285q0-2.4-2.4-2.4h-7.7425q-2.4 0-2.4 2.4z" clip-path="url(#a)" fill="#fff" stroke="#fff"/>
<g clip-path="url(#a)">
<g transform="translate(116.96 719.32) rotate(90) scale(.08 -.08)">
<use xlink:href="#l"/>
<use x="60.818359" xlink:href="#h"/>
<use x="122.341797" xlink:href="#f"/>
<use x="163.439453" xlink:href="#j"/>
<use x="260.851562" xlink:href="#i"/>
<use x="288.634766" xlink:href="#g"/>
<use x="352.013672" xlink:href="#e"/>
<use x="413.292969" xlink:href="#k"/>
</g>
</g>
<path d="m252.56 479.7 2.003-5.2148q0.86055-2.2404-1.3799-3.101l-7.2277-2.7762q-2.2404-0.86055-3.101 1.3799l-2.003 5.2148q-0.86055 2.2404 1.3799 3.101l7.2277 2.7762q2.2404 0.86055 3.101-1.3799z" clip-path="url(#a)" fill="#fff" stroke="#fff"/>
<g clip-path="url(#a)">
<g transform="translate(248.77 478.24) rotate(-68.988) scale(.08 -.08)">
<use xlink:href="#u"/>
</g>
</g>
<path d="m306.99 427.04 0.85708-4.9818q0.40692-2.3653-1.9583-2.7722l-7.6304-1.3128q-2.3653-0.40692-2.7722 1.9583l-0.85708 4.9818q-0.40692 2.3653 1.9583 2.7722l7.6304 1.3128q2.3653 0.40692 2.7722-1.9583z" clip-path="url(#a)" fill="#fff" stroke="#fff"/>
<g clip-path="url(#a)">
<g transform="translate(302.99 426.35) rotate(-80.238) scale(.08 -.08)">
<use xlink:href="#t"/>
</g>
</g>
<path d="m388.48 321.58 3.8984 3.218q1.8509 1.5278 3.3787-0.32308l4.9288-5.971q1.5278-1.8509-0.32308-3.3787l-3.8984-3.218q-1.8509-1.5278-3.3787 0.32308l-4.9288 5.971q-1.5278 1.8509 0.32308 3.3787z" clip-path="url(#a)" fill="#fff" stroke="#fff"/>
<g clip-path="url(#a)">
<g transform="translate(391.07 318.44) rotate(39.538) scale(.08 -.08)">
<use xlink:href="#t"/>
</g>
</g>
<path d="m276.79 479.31 1.5326-5.6508q0.62824-2.3163-1.6881-2.9446l-7.4725-2.0267q-2.3163-0.62824-2.9446 1.6881l-1.5326 5.6508q-0.62824 2.3163 1.6881 2.9446l7.4725 2.0267q2.3163 0.62824 2.9446-1.6881z" clip-path="url(#a)" fill="#fff" stroke="#fff"/>
<g clip-path="url(#a)">
<g transform="translate(272.86 478.24) rotate(-74.825) scale(.08 -.08)">
<use xlink:href="#q"/>
</g>
</g>
<path d="m359.97 473.07 1.0389 5.7621q0.42584 2.3619 2.7878 1.9361l7.6196-1.3738q2.3619-0.42584 1.9361-2.7878l-1.0389-5.7621q-0.42584-2.3619-2.7878-1.9361l-7.6196 1.3738q-2.3619 0.42584-1.9361 2.7878z" clip-path="url(#a)" fill="#fff" stroke="#fff"/>
<g clip-path="url(#a)">
<g transform="translate(363.97 472.35) rotate(79.78) scale(.08 -.08)">
<use xlink:href="#q"/>
</g>
</g>
<path d="m383.62 473.79 1.6472 5.6185q0.6752 2.3031 2.9783 1.6279l7.4298-2.1782q2.3031-0.6752 1.6279-2.9783l-1.6472-5.6185q-0.6752-2.3031-2.9783-1.6279l-7.4298 2.1782q-2.3031 0.6752-1.6279 2.9783z" clip-path="url(#a)" fill="#fff" stroke="#fff"/>
<g clip-path="url(#a)">
<g transform="translate(387.52 472.65) rotate(73.66) scale(.08 -.08)">
<use xlink:href="#q"/>
</g>
</g>
<path d="m160.48 719.32v35.285q0 2.4 2.4 2.4h7.7425q2.4 0 2.4-2.4v-35.285q0-2.4-2.4-2.4h-7.7425q-2.4 0-2.4 2.4z" clip-path="url(#a)" fill="#fff" stroke="#fff"/>
<g clip-path="url(#a)">
<g transform="translate(164.54 719.32) rotate(90) scale(.08 -.08)">
<use xlink:href="#l"/>
<use x="60.818359" xlink:href="#h"/>
<use x="122.341797" xlink:href="#f"/>
<use x="163.439453" xlink:href="#j"/>
<use x="260.851562" xlink:href="#i"/>
<use x="288.634766" xlink:href="#g"/>
<use x="352.013672" xlink:href="#e"/>
<use x="413.292969" xlink:href="#k"/>
</g>
</g>
<path d="m222.65 640.68 3.9492-3.7885q1.7319-1.6615 0.07047-3.3934l-5.3599-5.5873q-1.6615-1.7319-3.3934-0.070469l-3.9492 3.7885q-1.7319 1.6615-0.070469 3.3934l5.3599 5.5873q1.6615 1.7319 3.3934 0.070469z" clip-path="url(#a)" fill="#fff" stroke="#fff"/>
<g clip-path="url(#a)">
<g transform="translate(219.83 637.74) rotate(-43.81) scale(.08 -.08)">
<use xlink:href="#o"/>
</g>
</g>
<path d="m273.82 637.37 0.555-4.7917q0.27613-2.3841-2.1079-2.6602l-7.6911-0.89081q-2.3841-0.27613-2.6602 2.1079l-0.555 4.7917q-0.27613 2.3841 2.1079 2.6602l7.6911 0.89081q2.3841 0.27613 2.6602-2.1079z" clip-path="url(#a)" fill="#fff" stroke="#fff"/>
<g clip-path="url(#a)">
<g transform="translate(269.78 636.91) rotate(-83.393) scale(.08 -.08)">
<use xlink:href="#y"/>
</g>
</g>
<path d="m308.64 635.81 3.8795 4.7849q1.5115 1.8643 3.3757 0.35278l6.0142-4.8761q1.8643-1.5115 0.35278-3.3757l-3.8795-4.7849q-1.5115-1.8643-3.3757-0.35278l-6.0142 4.8761q-1.8643 1.5115-0.35278 3.3757z" clip-path="url(#a)" fill="#fff" stroke="#fff"/>
<g clip-path="url(#a)">
<g transform="translate(311.79 633.25) rotate(50.966) scale(.08 -.08)">
<use xlink:href="#ai"/>
</g>
</g>
<path d="m284.77 633.55 1.9217 5.5306q0.78773 2.267 3.0548 1.4793l7.3136-2.5413q2.267-0.78773 1.4793-3.0548l-1.9217-5.5306q-0.78773-2.267-3.0548-1.4793l-7.3136 2.5413q-2.267 0.78773-1.4793 3.0548z" clip-path="url(#a)" fill="#fff" stroke="#fff"/>
<g clip-path="url(#a)">
<g transform="translate(288.61 632.22) rotate(70.839) scale(.08 -.08)">
<use xlink:href="#q"/>
</g>
</g>
<path d="m316.17 535.4 3.7429-3.9923q1.6415-1.7509-0.10937-3.3924l-5.6483-5.2955q-1.7509-1.6415-3.3924 0.10937l-3.7429 3.9923q-1.6415 1.7509 0.10937 3.3924l5.6483 5.2955q1.7509 1.6415 3.3924-0.10937z" clip-path="url(#a)" fill="#fff" stroke="#fff"/>
<g clip-path="url(#a)">
<g transform="translate(313.2 532.62) rotate(-46.847) scale(.08 -.08)">
<use xlink:href="#o"/>
</g>
</g>
<path d="m503.43 428.12 3.4666 3.7117q1.6382 1.754 3.3921 0.11581l5.6584-5.2848q1.754-1.6382 0.11581-3.3921l-3.4666-3.7117q-1.6382-1.754-3.3921-0.11581l-5.6584 5.2848q-1.754 1.6382-0.11581 3.3921z" clip-path="url(#a)" fill="#fff" stroke="#fff"/>
<g clip-path="url(#a)">
<defs>
<path id="au" d="m53.516 70.516v-9.625q-5.6094 2.6875-10.594 4-4.9844 1.3281-9.625 1.3281-8.0469 0-12.422-3.125t-4.375-8.8906q0-4.8438 2.9062-7.3125 2.9062-2.4531 11.016-3.9688l5.9531-1.2188q11.031-2.1094 16.281-7.4062t5.25-14.172q0-10.609-7.1094-16.078-7.0938-5.4688-20.812-5.4688-5.1719 0-11.016 1.1719-5.8281 1.1719-12.078 3.4688v10.156q6-3.3594 11.766-5.0781 5.7656-1.7031 11.328-1.7031 8.4375 0 13.031 3.3125 4.5938 3.3281 4.5938 9.4844 0 5.3594-3.2969 8.3906t-10.812 4.5469l-6.0156 1.1719q-11.031 2.1875-15.969 6.875-4.9219 4.6875-4.9219 13.047 0 9.6719 6.8125 15.234t18.766 5.5625q5.1406 0 10.453-0.9375 5.3281-0.92188 10.891-2.7656z"/>
</defs>
<g transform="translate(506.4 425.35) rotate(46.955) scale(.08 -.08)">
<use xlink:href="#au"/>
</g>
</g>
<path d="m551.92 429.89 4.8026 2.6236q2.1062 1.1506 3.2568-0.95565l3.7118-6.7948q1.1506-2.1062-0.95565-3.2568l-4.8026-2.6236q-2.1062-1.1506-3.2568 0.95565l-3.7118 6.7948q-1.1506 2.1062 0.95565 3.2568z" clip-path="url(#a)" fill="#fff" stroke="#fff"/>
<g clip-path="url(#a)">
<g transform="translate(553.87 426.32) rotate(28.647) scale(.08 -.08)">
<use xlink:href="#o"/>
</g>
</g>
<path d="m546.58 535.26 1.6388-4.782q0.77807-2.2704-1.4923-3.0484l-7.3243-2.5101q-2.2704-0.77807-3.0484 1.4923l-1.6388 4.782q-0.77807 2.2704 1.4923 3.0484l7.3243 2.5101q2.2704 0.77807 3.0484-1.4923z" clip-path="url(#a)" fill="#fff" stroke="#fff"/>
<g clip-path="url(#a)">
<g transform="translate(542.74 533.94) rotate(-71.083) scale(.08 -.08)">
<use xlink:href="#t"/>
</g>
</g>
<path d="m570.5 580.5 0.94979 5.5049q0.40806 2.3651 2.7731 1.957l7.6298-1.3164q2.3651-0.40806 1.957-2.7731l-0.94979-5.5049q-0.40806-2.3651-2.7731-1.957l-7.6298 1.3164q-2.3651 0.40806-1.957 2.7731z" clip-path="url(#a)" fill="#fff" stroke="#fff"/>
<g clip-path="url(#a)">
<g transform="translate(574.51 579.81) rotate(80.211) scale(.08 -.08)">
<use xlink:href="#u"/>
</g>
</g>
<path d="m654.63 585.32 0.31917-5.5496q0.1378-2.396-2.2582-2.5338l-7.7297-0.44455q-2.396-0.1378-2.5338 2.2582l-0.31917 5.5496q-0.1378 2.396 2.2582 2.5338l7.7297 0.44455q2.396 0.1378 2.5338-2.2582z" clip-path="url(#a)" fill="#fff" stroke="#fff"/>
<g clip-path="url(#a)">
<g transform="translate(650.58 585.09) rotate(-86.708) scale(.08 -.08)">
<use xlink:href="#ab"/>
</g>
</g>
<path d="m689.71 532.87 3.0126 3.7674q1.4989 1.8744 3.3733 0.37555l6.0469-4.8354q1.8744-1.4989 0.37555-3.3733l-3.0126-3.7674q-1.4989-1.8744-3.3733-0.37555l-6.0469 4.8354q-1.8744 1.4989-0.37555 3.3733z" clip-path="url(#a)" fill="#fff" stroke="#fff"/>
<g clip-path="url(#a)">
<g transform="translate(692.88 530.33) rotate(51.353) scale(.08 -.08)">
<use xlink:href="#y"/>
</g>
</g>
<path d="m689.15 581.67 2.3005 5.7143q0.89629 2.2264 3.1226 1.3301l7.1823-2.8915q2.2264-0.89629 1.3301-3.1226l-2.3005-5.7143q-0.89629-2.2264-3.1226-1.3301l-7.1823 2.8915q-2.2264 0.89629-1.3301 3.1226z" clip-path="url(#a)" fill="#fff" stroke="#fff"/>
<g clip-path="url(#a)">
<g transform="translate(692.92 580.16) rotate(68.071) scale(.08 -.08)">
<use xlink:href="#ai"/>
</g>
</g>
<path d="m580.54 588.14 3.2769-4.3829q1.4371-1.9222-0.48505-3.3593l-6.201-4.6362q-1.9222-1.4371-3.3593 0.48505l-3.2769 4.3829q-1.4371 1.9222 0.48505 3.3593l6.201 4.6362q1.9222 1.4371 3.3593-0.48505z" clip-path="url(#a)" fill="#fff" stroke="#fff"/>
<g clip-path="url(#a)">
<g transform="translate(577.29 585.7) rotate(-53.216) scale(.08 -.08)">
<use xlink:href="#o"/>
</g>
</g>
<path d="m636.31 719.32v35.285q0 2.4 2.4 2.4h7.7425q2.4 0 2.4-2.4v-35.285q0-2.4-2.4-2.4h-7.7425q-2.4 0-2.4 2.4z" clip-path="url(#a)" fill="#fff" stroke="#fff"/>
<g clip-path="url(#a)">
<g transform="translate(640.38 719.32) rotate(90) scale(.08 -.08)">
<use xlink:href="#l"/>
<use x="60.818359" xlink:href="#h"/>
<use x="122.341797" xlink:href="#f"/>
<use x="163.439453" xlink:href="#j"/>
<use x="260.851562" xlink:href="#i"/>
<use x="288.634766" xlink:href="#g"/>
<use x="352.013672" xlink:href="#e"/>
<use x="413.292969" xlink:href="#k"/>
</g>
</g>
<path d="m718.59 639.19 2.125-4.5867q1.0089-2.1776-1.1688-3.1865l-7.0252-3.2547q-2.1776-1.0089-3.1865 1.1688l-2.125 4.5867q-1.0089 2.1776 1.1688 3.1865l7.0252 3.2547q2.1776 1.0089 3.1865-1.1688z" clip-path="url(#a)" fill="#fff" stroke="#fff"/>
<g clip-path="url(#a)">
<g transform="translate(714.9 637.48) rotate(-65.142) scale(.08 -.08)">
<use xlink:href="#t"/>
</g>
</g>
<path d="m754.68 634.36 2.3483 5.0687q1.0089 2.1776 3.1865 1.1688l7.0252-3.2547q2.1776-1.0089 1.1688-3.1865l-2.3483-5.0687q-1.0089-2.1776-3.1865-1.1688l-7.0252 3.2547q-2.1776 1.0089-1.1688 3.1865z" clip-path="url(#a)" fill="#fff" stroke="#fff"/>
<g clip-path="url(#a)">
<g transform="translate(758.36 632.65) rotate(65.142) scale(.08 -.08)">
<use xlink:href="#u"/>
</g>
</g>
<path d="m731.48 719.32v35.285q0 2.4 2.4 2.4h7.7425q2.4 0 2.4-2.4v-35.285q0-2.4-2.4-2.4h-7.7425q-2.4 0-2.4 2.4z" clip-path="url(#a)" fill="#fff" stroke="#fff"/>
<g clip-path="url(#a)">
<g transform="translate(735.54 719.32) rotate(90) scale(.08 -.08)">
<use xlink:href="#l"/>
<use x="60.818359" xlink:href="#h"/>
<use x="122.341797" xlink:href="#f"/>
<use x="163.439453" xlink:href="#j"/>
<use x="260.851562" xlink:href="#i"/>
<use x="288.634766" xlink:href="#g"/>
<use x="352.013672" xlink:href="#e"/>
<use x="413.292969" xlink:href="#k"/>
</g>
</g>
<path d="m683.9 719.32v35.285q0 2.4 2.4 2.4h7.7425q2.4 0 2.4-2.4v-35.285q0-2.4-2.4-2.4h-7.7425q-2.4 0-2.4 2.4z" clip-path="url(#a)" fill="#fff" stroke="#fff"/>
<g clip-path="url(#a)">
<g transform="translate(687.96 719.32) rotate(90) scale(.08 -.08)">
<use xlink:href="#l"/>
<use x="60.818359" xlink:href="#h"/>
<use x="122.341797" xlink:href="#f"/>
<use x="163.439453" xlink:href="#j"/>
<use x="260.851562" xlink:href="#i"/>
<use x="288.634766" xlink:href="#g"/>
<use x="352.013672" xlink:href="#e"/>
<use x="413.292969" xlink:href="#k"/>
</g>
</g>
<path d="m779.06 719.32v35.285q0 2.4 2.4 2.4h7.7425q2.4 0 2.4-2.4v-35.285q0-2.4-2.4-2.4h-7.7425q-2.4 0-2.4 2.4z" clip-path="url(#a)" fill="#fff" stroke="#fff"/>
<g clip-path="url(#a)">
<g transform="translate(783.13 719.32) rotate(90) scale(.08 -.08)">
<use xlink:href="#l"/>
<use x="60.818359" xlink:href="#h"/>
<use x="122.341797" xlink:href="#f"/>
<use x="163.439453" xlink:href="#j"/>
<use x="260.851562" xlink:href="#i"/>
<use x="288.634766" xlink:href="#g"/>
<use x="352.013672" xlink:href="#e"/>
<use x="413.292969" xlink:href="#k"/>
</g>
</g>
<path d="m517.21 638.39 1.2607-5.4421q0.54161-2.3381-1.7965-2.8797l-7.5428-1.7473q-2.3381-0.54161-2.8797 1.7965l-1.2607 5.4421q-0.54161 2.3381 1.7965 2.8797l7.5428 1.7473q2.3381 0.54161 2.8797-1.7965z" clip-path="url(#a)" fill="#fff" stroke="#fff"/>
<g clip-path="url(#a)">
<g transform="translate(513.25 637.48) rotate(-76.958) scale(.08 -.08)">
<use xlink:href="#u"/>
</g>
</g>
<path d="m528.78 632.96 1.2545 5.4154q0.54161 2.3381 2.8797 1.7965l7.5428-1.7473q2.3381-0.54161 1.7965-2.8797l-1.2545-5.4154q-0.54161-2.3381-2.8797-1.7965l-7.5428 1.7473q-2.3381 0.54161-1.7965 2.8797z" clip-path="url(#a)" fill="#fff" stroke="#fff"/>
<g clip-path="url(#a)">
<g transform="translate(532.74 632.05) rotate(76.958) scale(.08 -.08)">
<use xlink:href="#ab"/>
</g>
</g>
<path d="m588.73 719.32v35.285q0 2.4 2.4 2.4h7.7425q2.4 0 2.4-2.4v-35.285q0-2.4-2.4-2.4h-7.7425q-2.4 0-2.4 2.4z" clip-path="url(#a)" fill="#fff" stroke="#fff"/>
<g clip-path="url(#a)">
<g transform="translate(592.79 719.32) rotate(90) scale(.08 -.08)">
<use xlink:href="#l"/>
<use x="60.818359" xlink:href="#h"/>
<use x="122.341797" xlink:href="#f"/>
<use x="163.439453" xlink:href="#j"/>
<use x="260.851562" xlink:href="#i"/>
<use x="288.634766" xlink:href="#g"/>
<use x="352.013672" xlink:href="#e"/>
<use x="413.292969" xlink:href="#k"/>
</g>
</g>
<path d="m493.56 719.32v35.285q0 2.4 2.4 2.4h7.7425q2.4 0 2.4-2.4v-35.285q0-2.4-2.4-2.4h-7.7425q-2.4 0-2.4 2.4z" clip-path="url(#a)" fill="#fff" stroke="#fff"/>
<g clip-path="url(#a)">
<g transform="translate(497.63 719.32) rotate(90) scale(.08 -.08)">
<use xlink:href="#l"/>
<use x="60.818359" xlink:href="#h"/>
<use x="122.341797" xlink:href="#f"/>
<use x="163.439453" xlink:href="#j"/>
<use x="260.851562" xlink:href="#i"/>
<use x="288.634766" xlink:href="#g"/>
<use x="352.013672" xlink:href="#e"/>
<use x="413.292969" xlink:href="#k"/>
</g>
</g>
<path d="m541.15 719.32v35.285q0 2.4 2.4 2.4h7.7425q2.4 0 2.4-2.4v-35.285q0-2.4-2.4-2.4h-7.7425q-2.4 0-2.4 2.4z" clip-path="url(#a)" fill="#fff" stroke="#fff"/>
<g clip-path="url(#a)">
<g transform="translate(545.21 719.32) rotate(90) scale(.08 -.08)">
<use xlink:href="#l"/>
<use x="60.818359" xlink:href="#h"/>
<use x="122.341797" xlink:href="#f"/>
<use x="163.439453" xlink:href="#j"/>
<use x="260.851562" xlink:href="#i"/>
<use x="288.634766" xlink:href="#g"/>
<use x="352.013672" xlink:href="#e"/>
<use x="413.292969" xlink:href="#k"/>
</g>
</g>
<path d="m255.65 719.32v35.285q0 2.4 2.4 2.4h7.7425q2.4 0 2.4-2.4v-35.285q0-2.4-2.4-2.4h-7.7425q-2.4 0-2.4 2.4z" clip-path="url(#a)" fill="#fff" stroke="#fff"/>
<g clip-path="url(#a)">
<g transform="translate(259.71 719.32) rotate(90) scale(.08 -.08)">
<use xlink:href="#l"/>
<use x="60.818359" xlink:href="#h"/>
<use x="122.341797" xlink:href="#f"/>
<use x="163.439453" xlink:href="#j"/>
<use x="260.851562" xlink:href="#i"/>
<use x="288.634766" xlink:href="#g"/>
<use x="352.013672" xlink:href="#e"/>
<use x="413.292969" xlink:href="#k"/>
</g>
</g>
<path d="m208.06 719.32v35.285q0 2.4 2.4 2.4h7.7425q2.4 0 2.4-2.4v-35.285q0-2.4-2.4-2.4h-7.7425q-2.4 0-2.4 2.4z" clip-path="url(#a)" fill="#fff" stroke="#fff"/>
<g clip-path="url(#a)">
<g transform="translate(212.13 719.32) rotate(90) scale(.08 -.08)">
<use xlink:href="#l"/>
<use x="60.818359" xlink:href="#h"/>
<use x="122.341797" xlink:href="#f"/>
<use x="163.439453" xlink:href="#j"/>
<use x="260.851562" xlink:href="#i"/>
<use x="288.634766" xlink:href="#g"/>
<use x="352.013672" xlink:href="#e"/>
<use x="413.292969" xlink:href="#k"/>
</g>
</g>
<path d="m350.81 719.32v35.285q0 2.4 2.4 2.4h7.7425q2.4 0 2.4-2.4v-35.285q0-2.4-2.4-2.4h-7.7425q-2.4 0-2.4 2.4z" clip-path="url(#a)" fill="#fff" stroke="#fff"/>
<g clip-path="url(#a)">
<g transform="translate(354.88 719.32) rotate(90) scale(.08 -.08)">
<use xlink:href="#l"/>
<use x="60.818359" xlink:href="#h"/>
<use x="122.341797" xlink:href="#f"/>
<use x="163.439453" xlink:href="#j"/>
<use x="260.851562" xlink:href="#i"/>
<use x="288.634766" xlink:href="#g"/>
<use x="352.013672" xlink:href="#e"/>
<use x="413.292969" xlink:href="#k"/>
</g>
</g>
<path d="m303.23 719.32v35.285q0 2.4 2.4 2.4h7.7425q2.4 0 2.4-2.4v-35.285q0-2.4-2.4-2.4h-7.7425q-2.4 0-2.4 2.4z" clip-path="url(#a)" fill="#fff" stroke="#fff"/>
<g clip-path="url(#a)">
<g transform="translate(307.29 719.32) rotate(90) scale(.08 -.08)">
<use xlink:href="#l"/>
<use x="60.818359" xlink:href="#h"/>
<use x="122.341797" xlink:href="#f"/>
<use x="163.439453" xlink:href="#j"/>
<use x="260.851562" xlink:href="#i"/>
<use x="288.634766" xlink:href="#g"/>
<use x="352.013672" xlink:href="#e"/>
<use x="413.292969" xlink:href="#k"/>
</g>
</g>
<path d="m392.93 102.86 9.6212-2.4672q2.3248-0.59616 1.7286-2.9209l-1.9232-7.4998q-0.59616-2.3248-2.9209-1.7286l-9.6212 2.4672q-2.3248 0.59616-1.7286 2.9209l1.9232 7.4998q0.59616 2.3248 2.9209 1.7286z" clip-path="url(#a)" fill="#fff" stroke="#fff"/>
<g clip-path="url(#a)">
<g transform="translate(391.92 98.921) rotate(-14.383) scale(.08 -.08)">
<use xlink:href="#ac"/>
<use x="55.744141" xlink:href="#o"/>
</g>
</g>
<path d="m742.18 359.68 3.7491 9.2881q0.89833 2.2255 3.1239 1.3272l7.1797-2.898q2.2255-0.89833 1.3272-3.1239l-3.7491-9.2881q-0.89833-2.2255-3.1239-1.3272l-7.1797 2.898q-2.2255 0.89833-1.3272 3.1239z" clip-path="url(#a)" fill="#fff" stroke="#fff"/>
<g clip-path="url(#a)">
<g transform="translate(745.95 358.16) rotate(68.019) scale(.08 -.08)">
<use xlink:href="#ac"/>
<use x="55.712891" xlink:href="#ab"/>
</g>
</g>
<path d="m703.65 151.34 6.2928 7.6848q1.5205 1.8569 3.3774 0.33634l5.9904-4.9053q1.8569-1.5205 0.33634-3.3774l-6.2928-7.6848q-1.5205-1.8569-3.3774-0.33634l-5.9904 4.9053q-1.8569 1.5205-0.33634 3.3774z" clip-path="url(#a)" fill="#fff" stroke="#fff"/>
<g clip-path="url(#a)">
<g transform="translate(706.8 148.77) rotate(50.687) scale(.08 -.08)">
<use xlink:href="#ac"/>
<use x="55.744141" xlink:href="#o"/>
</g>
</g>
<path d="m398.4 719.32v35.285q0 2.4 2.4 2.4h7.7425q2.4 0 2.4-2.4v-35.285q0-2.4-2.4-2.4h-7.7425q-2.4 0-2.4 2.4z" clip-path="url(#a)" fill="#fff" stroke="#fff"/>
<g clip-path="url(#a)">
<g transform="translate(402.46 719.32) rotate(90) scale(.08 -.08)">
<use xlink:href="#l"/>
<use x="60.818359" xlink:href="#h"/>
<use x="122.341797" xlink:href="#f"/>
<use x="163.439453" xlink:href="#j"/>
<use x="260.851562" xlink:href="#i"/>
<use x="288.634766" xlink:href="#g"/>
<use x="352.013672" xlink:href="#e"/>
<use x="413.292969" xlink:href="#k"/>
</g>
</g>
<path d="m445.98 719.32v35.285q0 2.4 2.4 2.4h7.7425q2.4 0 2.4-2.4v-35.285q0-2.4-2.4-2.4h-7.7425q-2.4 0-2.4 2.4z" clip-path="url(#a)" fill="#fff" stroke="#fff"/>
<g clip-path="url(#a)">
<g transform="translate(450.04 719.32) rotate(90) scale(.08 -.08)">
<use xlink:href="#l"/>
<use x="60.818359" xlink:href="#h"/>
<use x="122.341797" xlink:href="#f"/>
<use x="163.439453" xlink:href="#j"/>
<use x="260.851562" xlink:href="#i"/>
<use x="288.634766" xlink:href="#g"/>
<use x="352.013672" xlink:href="#e"/>
<use x="413.292969" xlink:href="#k"/>
</g>
</g>
<path d="m826.65 719.32v35.285q0 2.4 2.4 2.4h7.7425q2.4 0 2.4-2.4v-35.285q0-2.4-2.4-2.4h-7.7425q-2.4 0-2.4 2.4z" clip-path="url(#a)" fill="#fff" stroke="#fff"/>
<g clip-path="url(#a)">
<g transform="translate(830.71 719.32) rotate(90) scale(.08 -.08)">
<use xlink:href="#l"/>
<use x="60.818359" xlink:href="#h"/>
<use x="122.341797" xlink:href="#f"/>
<use x="163.439453" xlink:href="#j"/>
<use x="260.851562" xlink:href="#i"/>
<use x="288.634766" xlink:href="#g"/>
<use x="352.013672" xlink:href="#e"/>
<use x="413.292969" xlink:href="#k"/>
</g>
</g>
<path d="m1159.7 719.32v35.285q0 2.4 2.4 2.4h7.7425q2.4 0 2.4-2.4v-35.285q0-2.4-2.4-2.4h-7.7425q-2.4 0-2.4 2.4z" clip-path="url(#a)" fill="#fff" stroke="#fff"/>
<g clip-path="url(#a)">
<g transform="translate(1163.8 719.32) rotate(90) scale(.08 -.08)">
<use xlink:href="#l"/>
<use x="60.818359" xlink:href="#h"/>
<use x="122.341797" xlink:href="#f"/>
<use x="163.439453" xlink:href="#j"/>
<use x="260.851562" xlink:href="#i"/>
<use x="288.634766" xlink:href="#g"/>
<use x="352.013672" xlink:href="#e"/>
<use x="413.292969" xlink:href="#k"/>
</g>
</g>
<path d="m1350.1 719.32v35.285q0 2.4 2.4 2.4h7.7425q2.4 0 2.4-2.4v-35.285q0-2.4-2.4-2.4h-7.7425q-2.4 0-2.4 2.4z" clip-path="url(#a)" fill="#fff" stroke="#fff"/>
<g clip-path="url(#a)">
<g transform="translate(1354.1 719.32) rotate(90) scale(.08 -.08)">
<use xlink:href="#l"/>
<use x="60.818359" xlink:href="#h"/>
<use x="122.341797" xlink:href="#f"/>
<use x="163.439453" xlink:href="#j"/>
<use x="260.851562" xlink:href="#i"/>
<use x="288.634766" xlink:href="#g"/>
<use x="352.013672" xlink:href="#e"/>
<use x="413.292969" xlink:href="#k"/>
</g>
</g>
<path d="m1445.2 719.32v35.285q0 2.4 2.4 2.4h7.7425q2.4 0 2.4-2.4v-35.285q0-2.4-2.4-2.4h-7.7425q-2.4 0-2.4 2.4z" clip-path="url(#a)" fill="#fff" stroke="#fff"/>
<g clip-path="url(#a)">
<g transform="translate(1449.3 719.32) rotate(90) scale(.08 -.08)">
<use xlink:href="#l"/>
<use x="60.818359" xlink:href="#h"/>
<use x="122.341797" xlink:href="#f"/>
<use x="163.439453" xlink:href="#j"/>
<use x="260.851562" xlink:href="#i"/>
<use x="288.634766" xlink:href="#g"/>
<use x="352.013672" xlink:href="#e"/>
<use x="413.292969" xlink:href="#k"/>
</g>
</g>
<path d="m1492.8 719.32v35.285q0 2.4 2.4 2.4h7.7425q2.4 0 2.4-2.4v-35.285q0-2.4-2.4-2.4h-7.7425q-2.4 0-2.4 2.4z" clip-path="url(#a)" fill="#fff" stroke="#fff"/>
<g clip-path="url(#a)">
<g transform="translate(1496.9 719.32) rotate(90) scale(.08 -.08)">
<use xlink:href="#l"/>
<use x="60.818359" xlink:href="#h"/>
<use x="122.341797" xlink:href="#f"/>
<use x="163.439453" xlink:href="#j"/>
<use x="260.851562" xlink:href="#i"/>
<use x="288.634766" xlink:href="#g"/>
<use x="352.013672" xlink:href="#e"/>
<use x="413.292969" xlink:href="#k"/>
</g>
</g>
<defs>
<path id="b" d="m0 8.6603c2.2967 0 4.4997-0.9125 6.1237-2.5365 1.624-1.624 2.5365-3.827 2.5365-6.1237s-0.9125-4.4997-2.5365-6.1237c-1.624-1.624-3.827-2.5365-6.1237-2.5365s-4.4997 0.9125-6.1237 2.5365c-1.624 1.624-2.5365 3.827-2.5365 6.1237s0.9125 4.4997 2.5365 6.1237c1.624 1.624 3.827 2.5365 6.1237 2.5365z"/>
</defs>
<g clip-path="url(#a)">
<use x="71.58284" y="788.316215" fill="#ffffff" stroke="#ffffff" xlink:href="#b"/>
</g>
<g clip-path="url(#a)">
<use x="119.166207" y="788.316215" fill="#ffffff" stroke="#ffffff" xlink:href="#b"/>
</g>
<g clip-path="url(#a)">
<use x="166.749573" y="788.316215" fill="#ffffff" stroke="#ffffff" xlink:href="#b"/>
</g>
<g clip-path="url(#a)">
<use x="214.332939" y="788.316215" fill="#ffffff" stroke="#ffffff" xlink:href="#b"/>
</g>
<g clip-path="url(#a)">
<use x="261.916305" y="788.316215" fill="#ffffff" stroke="#ffffff" xlink:href="#b"/>
</g>
<g clip-path="url(#a)">
<use x="309.499671" y="788.316215" fill="#ffffff" stroke="#ffffff" xlink:href="#b"/>
</g>
<g clip-path="url(#a)">
<use x="357.083038" y="788.316215" fill="#ffffff" stroke="#ffffff" xlink:href="#b"/>
</g>
<g clip-path="url(#a)">
<use x="404.666404" y="788.316215" fill="#ffffff" stroke="#ffffff" xlink:href="#b"/>
</g>
<g clip-path="url(#a)">
<use x="452.24977" y="788.316215" fill="#ffffff" stroke="#ffffff" xlink:href="#b"/>
</g>
<g clip-path="url(#a)">
<use x="499.833136" y="788.316215" fill="#ffffff" stroke="#ffffff" xlink:href="#b"/>
</g>
<g clip-path="url(#a)">
<use x="547.416502" y="788.316215" fill="#ffffff" stroke="#ffffff" xlink:href="#b"/>
</g>
<g clip-path="url(#a)">
<use x="594.999869" y="788.316215" fill="#ffffff" stroke="#ffffff" xlink:href="#b"/>
</g>
<g clip-path="url(#a)">
<use x="642.583235" y="788.316215" fill="#ffffff" stroke="#ffffff" xlink:href="#b"/>
</g>
<g clip-path="url(#a)">
<use x="690.166601" y="788.316215" fill="#ffffff" stroke="#ffffff" xlink:href="#b"/>
</g>
<g clip-path="url(#a)">
<use x="737.749967" y="788.316215" fill="#ffffff" stroke="#ffffff" xlink:href="#b"/>
</g>
<g clip-path="url(#a)">
<use x="785.333333" y="788.316215" fill="#ffffff" stroke="#ffffff" xlink:href="#b"/>
</g>
<g clip-path="url(#a)">
<use x="832.9167" y="788.316215" fill="#ffffff" stroke="#ffffff" xlink:href="#b"/>
</g>
<g clip-path="url(#a)">
<use x="880.500066" y="788.316215" fill="#ffffff" stroke="#ffffff" xlink:href="#b"/>
</g>
<g clip-path="url(#a)">
<use x="928.083432" y="788.316215" fill="#ffffff" stroke="#ffffff" xlink:href="#b"/>
</g>
<g clip-path="url(#a)">
<use x="975.666798" y="788.316215" fill="#ffffff" stroke="#ffffff" xlink:href="#b"/>
</g>
<g clip-path="url(#a)">
<use x="1023.250164" y="788.316215" fill="#ffffff" stroke="#ffffff" xlink:href="#b"/>
</g>
<g clip-path="url(#a)">
<use x="1070.833531" y="788.316215" fill="#ffffff" stroke="#ffffff" xlink:href="#b"/>
</g>
<g clip-path="url(#a)">
<use x="1118.416897" y="788.316215" fill="#ffffff" stroke="#ffffff" xlink:href="#b"/>
</g>
<g clip-path="url(#a)">
<use x="1166.000263" y="788.316215" fill="#ffffff" stroke="#ffffff" xlink:href="#b"/>
</g>
<g clip-path="url(#a)">
<use x="1213.583629" y="788.316215" fill="#ffffff" stroke="#ffffff" xlink:href="#b"/>
</g>
<g clip-path="url(#a)">
<use x="1261.166995" y="788.316215" fill="#ffffff" stroke="#ffffff" xlink:href="#b"/>
</g>
<g clip-path="url(#a)">
<use x="1308.750361" y="788.316215" fill="#ffffff" stroke="#ffffff" xlink:href="#b"/>
</g>
<g clip-path="url(#a)">
<use x="1356.333728" y="788.316215" fill="#ffffff" stroke="#ffffff" xlink:href="#b"/>
</g>
<g clip-path="url(#a)">
<use x="1403.917094" y="788.316215" fill="#ffffff" stroke="#ffffff" xlink:href="#b"/>
</g>
<g clip-path="url(#a)">
<use x="1451.50046" y="788.316215" fill="#ffffff" stroke="#ffffff" xlink:href="#b"/>
</g>
<g clip-path="url(#a)">
<use x="1499.083826" y="788.316215" fill="#ffffff" stroke="#ffffff" xlink:href="#b"/>
</g>
<g clip-path="url(#a)">
<use x="672.656032" y="38.350451" fill="#ffffff" stroke="#ffffff" xlink:href="#b"/>
</g>
<g clip-path="url(#a)">
<use x="173.13808" y="152.747205" fill="#ffffff" stroke="#ffffff" xlink:href="#b"/>
</g>
<g clip-path="url(#a)">
<use x="880.500066" y="685.609852" fill="#ffffff" stroke="#ffffff" xlink:href="#b"/>
</g>
<g clip-path="url(#a)">
<use x="804.069284" y="264.06929" fill="#ffffff" stroke="#ffffff" xlink:href="#b"/>
</g>
<g clip-path="url(#a)">
<use x="951.875115" y="582.903488" fill="#ffffff" stroke="#ffffff" xlink:href="#b"/>
</g>
<g clip-path="url(#a)">
<use x="1023.250164" y="685.609852" fill="#ffffff" stroke="#ffffff" xlink:href="#b"/>
</g>
<g clip-path="url(#a)">
<use x="1169.569015" y="372.628044" fill="#ffffff" stroke="#ffffff" xlink:href="#b"/>
</g>
<g clip-path="url(#a)">
<use x="1070.833531" y="685.609852" fill="#ffffff" stroke="#ffffff" xlink:href="#b"/>
</g>
<g clip-path="url(#a)">
<use x="1118.416897" y="685.609852" fill="#ffffff" stroke="#ffffff" xlink:href="#b"/>
</g>
<g clip-path="url(#a)">
<use x="1323.025371" y="478.768366" fill="#ffffff" stroke="#ffffff" xlink:href="#b"/>
</g>
<g clip-path="url(#a)">
<use x="1213.583629" y="685.609852" fill="#ffffff" stroke="#ffffff" xlink:href="#b"/>
</g>
<g clip-path="url(#a)">
<use x="1332.542045" y="582.903488" fill="#ffffff" stroke="#ffffff" xlink:href="#b"/>
</g>
<g clip-path="url(#a)">
<use x="928.083432" y="685.609852" fill="#ffffff" stroke="#ffffff" xlink:href="#b"/>
</g>
<g clip-path="url(#a)">
<use x="975.666798" y="685.609852" fill="#ffffff" stroke="#ffffff" xlink:href="#b"/>
</g>
<g clip-path="url(#a)">
<use x="71.58284" y="685.609852" fill="#ffffff" stroke="#ffffff" xlink:href="#b"/>
</g>
<g clip-path="url(#a)">
<use x="119.166207" y="685.609852" fill="#ffffff" stroke="#ffffff" xlink:href="#b"/>
</g>
<g clip-path="url(#a)">
<use x="328.665194" y="264.06929" fill="#ffffff" stroke="#ffffff" xlink:href="#b"/>
</g>
<g clip-path="url(#a)">
<use x="166.749573" y="685.609852" fill="#ffffff" stroke="#ffffff" xlink:href="#b"/>
</g>
<g clip-path="url(#a)">
<use x="273.812147" y="582.903488" fill="#ffffff" stroke="#ffffff" xlink:href="#b"/>
</g>
<g clip-path="url(#a)">
<use x="460.180331" y="372.628044" fill="#ffffff" stroke="#ffffff" xlink:href="#b"/>
</g>
<g clip-path="url(#a)">
<use x="559.312344" y="478.768366" fill="#ffffff" stroke="#ffffff" xlink:href="#b"/>
</g>
<g clip-path="url(#a)">
<use x="654.479076" y="478.768366" fill="#ffffff" stroke="#ffffff" xlink:href="#b"/>
</g>
<g clip-path="url(#a)">
<use x="642.583235" y="685.609852" fill="#ffffff" stroke="#ffffff" xlink:href="#b"/>
</g>
<g clip-path="url(#a)">
<use x="737.749967" y="582.903488" fill="#ffffff" stroke="#ffffff" xlink:href="#b"/>
</g>
<g clip-path="url(#a)">
<use x="737.749967" y="685.609852" fill="#ffffff" stroke="#ffffff" xlink:href="#b"/>
</g>
<g clip-path="url(#a)">
<use x="690.166601" y="685.609852" fill="#ffffff" stroke="#ffffff" xlink:href="#b"/>
</g>
<g clip-path="url(#a)">
<use x="785.333333" y="685.609852" fill="#ffffff" stroke="#ffffff" xlink:href="#b"/>
</g>
<g clip-path="url(#a)">
<use x="523.624819" y="582.903488" fill="#ffffff" stroke="#ffffff" xlink:href="#b"/>
</g>
<g clip-path="url(#a)">
<use x="594.999869" y="685.609852" fill="#ffffff" stroke="#ffffff" xlink:href="#b"/>
</g>
<g clip-path="url(#a)">
<use x="499.833136" y="685.609852" fill="#ffffff" stroke="#ffffff" xlink:href="#b"/>
</g>
<g clip-path="url(#a)">
<use x="547.416502" y="685.609852" fill="#ffffff" stroke="#ffffff" xlink:href="#b"/>
</g>
<g clip-path="url(#a)">
<use x="261.916305" y="685.609852" fill="#ffffff" stroke="#ffffff" xlink:href="#b"/>
</g>
<g clip-path="url(#a)">
<use x="214.332939" y="685.609852" fill="#ffffff" stroke="#ffffff" xlink:href="#b"/>
</g>
<g clip-path="url(#a)">
<use x="357.083038" y="685.609852" fill="#ffffff" stroke="#ffffff" xlink:href="#b"/>
</g>
<g clip-path="url(#a)">
<use x="309.499671" y="685.609852" fill="#ffffff" stroke="#ffffff" xlink:href="#b"/>
</g>
<g clip-path="url(#a)">
<use x="619.23581" y="38.350451" fill="#808080" stroke="#808080" xlink:href="#b"/>
</g>
<g clip-path="url(#a)">
<use x="404.666404" y="685.609852" fill="#ffffff" stroke="#ffffff" xlink:href="#b"/>
</g>
<g clip-path="url(#a)">
<use x="452.24977" y="685.609852" fill="#ffffff" stroke="#ffffff" xlink:href="#b"/>
</g>
<g clip-path="url(#a)">
<use x="832.9167" y="685.609852" fill="#ffffff" stroke="#ffffff" xlink:href="#b"/>
</g>
<g clip-path="url(#a)">
<use x="1166.000263" y="685.609852" fill="#ffffff" stroke="#ffffff" xlink:href="#b"/>
</g>
<g clip-path="url(#a)">
<use x="1356.333728" y="685.609852" fill="#ffffff" stroke="#ffffff" xlink:href="#b"/>
</g>
<g clip-path="url(#a)">
<use x="1451.50046" y="685.609852" fill="#ffffff" stroke="#ffffff" xlink:href="#b"/>
</g>
<g clip-path="url(#a)">
<use x="1499.083826" y="685.609852" fill="#ffffff" stroke="#ffffff" xlink:href="#b"/>
</g>
<g clip-path="url(#a)">
<defs>
<path id="w" d="m30.609 48.391q-7.2188 0-11.422-5.6406t-4.2031-15.453 4.1719-15.453q4.1875-5.6406 11.453-5.6406 7.1875 0 11.375 5.6562 4.2031 5.6719 4.2031 15.438 0 9.7188-4.2031 15.406-4.1875 5.6875-11.375 5.6875zm0 7.6094q11.719 0 18.406-7.625 6.7031-7.6094 6.7031-21.078 0-13.422-6.7031-21.078-6.6875-7.6406-18.406-7.6406-11.766 0-18.438 7.6406-6.6562 7.6562-6.6562 21.078 0 13.469 6.6562 21.078 6.6719 7.625 18.438 7.625z"/>
<path id="ak" d="m37.109 75.984v-7.4844h-8.5938q-4.8281 0-6.7188-1.9531-1.875-1.9531-1.875-7.0312v-4.8281h14.797v-6.9844h-14.797v-47.703h-9.0312v47.703h-8.5938v6.9844h8.5938v3.8125q0 9.125 4.25 13.297 4.25 4.1875 13.469 4.1875z"/>
</defs>
<g transform="translate(50.14 791.08) scale(.1 -.1)">
<use xlink:href="#ah"/>
<use x="75.195312" xlink:href="#w"/>
<use x="136.376953" xlink:href="#ak"/>
<use x="171.582031" xlink:href="#ak"/>
<use x="206.787109" xlink:href="#j"/>
<use x="304.199219" xlink:href="#e"/>
<use x="365.478516" xlink:href="#g"/>
</g>
</g>
<g clip-path="url(#a)">
<defs>
<path id="x" d="m45.406 46.391v29.594h8.9844v-75.984h-8.9844v8.2031q-2.8281-4.875-7.1562-7.25-4.3125-2.375-10.375-2.375-9.9062 0-16.141 7.9062-6.2188 7.9219-6.2188 20.812t6.2188 20.797q6.2344 7.9062 16.141 7.9062 6.0625 0 10.375-2.375 4.3281-2.3594 7.1562-7.2344zm-30.609-19.094q0-9.9062 4.0781-15.547t11.203-5.6406 11.219 5.6406q4.1094 5.6406 4.1094 15.547t-4.1094 15.547q-4.0938 5.6406-11.219 5.6406t-11.203-5.6406-4.0781-15.547z"/>
<path id="as" d="m18.109 8.2031v-29h-9.0312v75.484h9.0312v-8.2969q2.8438 4.875 7.1562 7.2344 4.3281 2.375 10.328 2.375 9.9688 0 16.188-7.9062 6.2344-7.9062 6.2344-20.797t-6.2344-20.812q-6.2188-7.9062-16.188-7.9062-6 0-10.328 2.375-4.3125 2.375-7.1562 7.25zm30.578 19.094q0 9.9062-4.0781 15.547t-11.203 5.6406q-7.1406 0-11.219-5.6406t-4.0781-15.547 4.0781-15.547 11.219-5.6406q7.125 0 11.203 5.6406t4.0781 15.547z"/>
<path id="ae" d="m18.312 70.219v-15.531h18.5v-6.9844h-18.5v-29.688q0-6.6875 1.8281-8.5938t7.4531-1.9062h9.2188v-7.5156h-9.2188q-10.406 0-14.359 3.875-3.9531 3.8906-3.9531 14.141v29.688h-6.5938v6.9844h6.5938v15.531z"/>
</defs>
<g transform="translate(98.483 791.08) scale(.1 -.1)">
<use xlink:href="#e"/>
<use x="61.279297" xlink:href="#x"/>
<use x="124.755859" xlink:href="#w"/>
<use x="185.9375" xlink:href="#as"/>
<use x="249.414062" xlink:href="#ae"/>
<use x="288.623047" xlink:href="#h"/>
<use x="350.146484" xlink:href="#x"/>
</g>
</g>
<g clip-path="url(#a)">
<defs>
<path id="aw" d="m9.8125 72.906h9.8594v-30.812l32.719 30.812h12.703l-36.188-33.984 38.766-38.922h-12.984l-35.016 35.109v-35.109h-9.8594z"/>
</defs>
<g transform="translate(150.73 791.08) scale(.1 -.1)">
<use xlink:href="#aw"/>
<use x="65.560547" xlink:href="#e"/>
<use x="126.839844" xlink:href="#f"/>
<use x="167.953125" xlink:href="#i"/>
<use x="195.736328" xlink:href="#g"/>
<use x="259.115234" xlink:href="#e"/>
</g>
</g>
<g clip-path="url(#a)">
<defs>
<path id="ao" d="m31 75.875q-6.5312-11.219-9.7188-22.219-3.1719-10.984-3.1719-22.266 0-11.266 3.2031-22.328t9.6875-22.25h-7.8125q-7.3125 11.484-10.953 22.562t-3.6406 22.016q0 10.891 3.6094 21.922 3.625 11.047 10.984 22.562z"/>
</defs>
<g transform="translate(212.38 791.08) scale(.1 -.1)">
<use xlink:href="#ao"/>
</g>
</g>
<g clip-path="url(#a)">
<defs>
<path id="ag" d="m48.688 27.297q0 9.9062-4.0781 15.547t-11.203 5.6406q-7.1406 0-11.219-5.6406t-4.0781-15.547 4.0781-15.547 11.219-5.6406q7.125 0 11.203 5.6406t4.0781 15.547zm-30.578 19.094q2.8438 4.875 7.1562 7.2344 4.3281 2.375 10.328 2.375 9.9688 0 16.188-7.9062 6.2344-7.9062 6.2344-20.797t-6.2344-20.812q-6.2188-7.9062-16.188-7.9062-6 0-10.328 2.375-4.3125 2.375-7.1562 7.25v-8.2031h-9.0312v75.984h9.0312z"/>
</defs>
<g transform="translate(258.74 791.08) scale(.1 -.1)">
<use xlink:href="#ag"/>
</g>
</g>
<g clip-path="url(#a)">
<defs>
<path id="d" d="m10.688 12.406h10.312v-12.406h-10.312z"/>
</defs>
<g transform="translate(307.91 791.08) scale(.1 -.1)">
<use xlink:href="#d"/>
</g>
</g>
<g clip-path="url(#a)">
<defs>
<path id="c" d="m12.406 8.2969h16.109v55.625l-17.531-3.5156v8.9844l17.438 3.5156h9.8594v-64.609h16.109v-8.2969h-41.984z"/>
<path id="r" d="m10.984 1.5156v8.9844q3.7188-1.7656 7.5156-2.6875 3.8125-0.92188 7.4844-0.92188 9.7656 0 14.906 6.5625 5.1562 6.5625 5.8906 19.953-2.8281-4.2031-7.1875-6.4531-4.3438-2.25-9.6094-2.25-10.938 0-17.312 6.6094-6.375 6.625-6.375 18.109 0 11.219 6.6406 18 6.6406 6.7969 17.672 6.7969 12.656 0 19.312-9.7031 6.6719-9.6875 6.6719-28.141 0-17.234-8.1875-27.516-8.1719-10.281-21.984-10.281-3.7188 0-7.5312 0.73438-3.7969 0.73438-7.9062 2.2031zm19.625 30.906q6.6406 0 10.516 4.5312 3.8906 4.5469 3.8906 12.469 0 7.8594-3.8906 12.422-3.875 4.5625-10.516 4.5625t-10.516-4.5625-3.875-12.422q0-7.9219 3.875-12.469 3.875-4.5312 10.516-4.5312z"/>
<path id="ad" d="m33.016 40.375q-6.6406 0-10.531-4.5469-3.875-4.5312-3.875-12.438 0-7.8594 3.875-12.438 3.8906-4.5625 10.531-4.5625t10.516 4.5625q3.875 4.5781 3.875 12.438 0 7.9062-3.875 12.438-3.875 4.5469-10.516 4.5469zm19.578 30.922v-8.9844q-3.7188 1.75-7.5 2.6719-3.7812 0.9375-7.5 0.9375-9.7656 0-14.922-6.5938-5.1406-6.5938-5.875-19.922 2.875 4.25 7.2188 6.5156 4.3594 2.2656 9.5781 2.2656 10.984 0 17.359-6.6719 6.375-6.6562 6.375-18.125 0-11.234-6.6406-18.031-6.6406-6.7812-17.672-6.7812-12.656 0-19.344 9.6875-6.6875 9.7031-6.6875 28.109 0 17.281 8.2031 27.562t22.016 10.281q3.7188 0 7.5-0.73438t7.8906-2.1875z"/>
</defs>
<g transform="translate(344.36 791.08) scale(.1 -.1)">
<use xlink:href="#c"/>
<use x="63.623047" xlink:href="#r"/>
<use x="127.246094" xlink:href="#ad"/>
<use x="190.869141" xlink:href="#ad"/>
</g>
</g>
<g clip-path="url(#a)">
<defs>
<path id="an" d="m8.0156 75.875h7.8125q7.3125-11.516 10.953-22.562 3.6406-11.031 3.6406-21.922 0-10.938-3.6406-22.016t-10.953-22.562h-7.8125q6.4844 11.188 9.6875 22.25t3.2031 22.328q0 11.281-3.2031 22.266-3.2031 11-9.6875 22.219z"/>
</defs>
<g transform="translate(402.72 791.08) scale(.1 -.1)">
<use xlink:href="#an"/>
</g>
</g>
<g clip-path="url(#a)">
<defs>
<path id="aj" d="m11.719 12.406h10.297v-8.4062l-8-15.625h-6.2969l4 15.625z"/>
</defs>
<g transform="translate(450.66 791.08) scale(.1 -.1)">
<use xlink:href="#aj"/>
</g>
</g>
<g clip-path="url(#a)">
<defs>
<path id="am" d="m19.672 34.812v-26.703h15.828q7.9531 0 11.781 3.2969 3.8438 3.2969 3.8438 10.078 0 6.8438-3.8438 10.078-3.8281 3.25-11.781 3.25zm0 29.984v-21.969h14.609q7.2188 0 10.75 2.7031 3.5469 2.7188 3.5469 8.2812 0 5.5156-3.5469 8.25-3.5312 2.7344-10.75 2.7344zm-9.8594 8.1094h25.203q11.281 0 17.375-4.6875 6.1094-4.6875 6.1094-13.328 0-6.7031-3.125-10.656t-9.1875-4.9219q7.2812-1.5625 11.312-6.5312 4.0312-4.9531 4.0312-12.375 0-9.7656-6.6406-15.094-6.6406-5.3125-18.906-5.3125h-26.172z"/>
<path id="ap" d="m32.172-5.0781q-3.7969-9.7656-7.4219-12.734-3.6094-2.9844-9.6562-2.9844h-7.1875v7.5156h5.2812q3.7031 0 5.75 1.7656 2.0625 1.75 4.5469 8.2969l1.6094 4.0938-22.109 53.812h9.5156l17.094-42.766 17.094 42.766h9.5156z"/>
</defs>
<g transform="translate(485.14 791.08) scale(.1 -.1)">
<use xlink:href="#am"/>
<use x="68.603516" xlink:href="#ap"/>
<use x="127.783203" xlink:href="#f"/>
<use x="168.880859" xlink:href="#g"/>
<use x="232.259766" xlink:href="#h"/>
</g>
</g>
<g clip-path="url(#a)">
<defs>
<path id="ay" d="m17.922 72.906v-27.109h-8.2969v27.109z"/>
<path id="ar" d="m44.281 53.078v-8.5q-3.7969 1.9531-7.9062 2.9219-4.0938 0.98438-8.5 0.98438-6.6875 0-10.031-2.0469t-3.3438-6.1562q0-3.125 2.3906-4.9062t9.625-3.3906l3.0781-0.6875q9.5625-2.0469 13.594-5.7812t4.0312-10.422q0-7.625-6.0312-12.078-6.0312-4.4375-16.578-4.4375-4.3906 0-9.1562 0.85938t-10.031 2.5625v9.2812q4.9844-2.5938 9.8125-3.8906 4.8281-1.2812 9.5781-1.2812 6.3438 0 9.75 2.1719 3.4219 2.1719 3.4219 6.125 0 3.6562-2.4688 5.6094-2.4531 1.9531-10.812 3.7656l-3.125 0.73438q-8.3438 1.75-12.062 5.3906-3.7031 3.6406-3.7031 9.9844 0 7.7188 5.4688 11.906 5.4688 4.2031 15.531 4.2031 4.9688 0 9.3594-0.73438 4.4062-0.71875 8.1094-2.1875z"/>
</defs>
<g transform="translate(543.44 791.08) scale(.1 -.1)">
<use xlink:href="#ay"/>
<use x="27.490234" xlink:href="#ar"/>
</g>
</g>
<g clip-path="url(#a)">
<defs>
<path id="al" d="m48.781 52.594v-8.4062q-3.8125 2.1094-7.6406 3.1562t-7.7344 1.0469q-8.75 0-13.594-5.5469-4.8281-5.5312-4.8281-15.547t4.8281-15.562q4.8438-5.5312 13.594-5.5312 3.9062 0 7.7344 1.0469t7.6406 3.1562v-8.3125q-3.7656-1.75-7.7969-2.625-4.0156-0.89062-8.5625-0.89062-12.359 0-19.641 7.7656-7.2656 7.7656-7.2656 20.953 0 13.375 7.3438 21.031 7.3594 7.6719 20.156 7.6719 4.1406 0 8.0938-0.85938 3.9531-0.84375 7.6719-2.5469z"/>
<path id="af" d="m54.891 33.016v-33.016h-8.9844v32.719q0 7.7656-3.0312 11.609-3.0312 3.8594-9.0781 3.8594-7.2812 0-11.484-4.6406-4.2031-4.625-4.2031-12.641v-30.906h-9.0312v75.984h9.0312v-29.797q3.2344 4.9375 7.5938 7.375 4.375 2.4375 10.094 2.4375 9.4219 0 14.25-5.8281 4.8438-5.8281 4.8438-17.156z"/>
</defs>
<g transform="translate(583.13 791.08) scale(.1 -.1)">
<use xlink:href="#al"/>
<use x="54.980469" xlink:href="#af"/>
<use x="118.359375" xlink:href="#i"/>
<use x="146.142578" xlink:href="#k"/>
<use x="173.925781" xlink:href="#x"/>
</g>
</g>
<g clip-path="url(#a)">
<g transform="translate(630.84 791.08) scale(.1 -.1)">
<use xlink:href="#ak"/>
<use x="35.205078" xlink:href="#f"/>
<use x="76.287109" xlink:href="#w"/>
<use x="137.46875" xlink:href="#j"/>
</g>
</g>
<g clip-path="url(#a)">
<g transform="translate(687.1 791.08) scale(.1 -.1)">
<use xlink:href="#e"/>
</g>
</g>
<g clip-path="url(#a)">
<defs>
<path id="ba" d="m2.9844 54.688h9.5156l17.094-45.891 17.094 45.891h9.5156l-20.516-54.688h-12.203z"/>
<path id="aq" d="m8.5 21.578v33.109h8.9844v-32.766q0-7.7656 3.0156-11.656 3.0312-3.875 9.0938-3.875 7.2656 0 11.484 4.6406 4.2344 4.6406 4.2344 12.656v31h8.9844v-54.688h-8.9844v8.4062q-3.2656-4.9844-7.5938-7.4062-4.3125-2.4219-10.031-2.4219-9.4219 0-14.312 5.8594-4.875 5.8594-4.875 17.141z"/>
</defs>
<g transform="translate(716.26 791.08) scale(.1 -.1)">
<use xlink:href="#as"/>
<use x="63.476562" xlink:href="#f"/>
<use x="104.558594" xlink:href="#h"/>
<use x="166.082031" xlink:href="#ba"/>
<use x="225.261719" xlink:href="#i"/>
<use x="253.044922" xlink:href="#w"/>
<use x="314.226562" xlink:href="#aq"/>
<use x="377.605469" xlink:href="#ar"/>
</g>
</g>
<g clip-path="url(#a)">
<defs>
<path id="at" d="m45.406 27.984q0 9.7656-4.0312 15.125-4.0156 5.375-11.297 5.375-7.2188 0-11.25-5.375-4.0312-5.3594-4.0312-15.125 0-9.7188 4.0312-15.094t11.25-5.375q7.2812 0 11.297 5.375 4.0312 5.375 4.0312 15.094zm8.9844-21.203q0-13.953-6.2031-20.766-6.1875-6.8125-18.984-6.8125-4.7344 0-8.9375 0.70312t-8.1562 2.1719v8.7344q3.9531-2.1406 7.8125-3.1562 3.8594-1.0312 7.8594-1.0312 8.8438 0 13.234 4.6094t4.3906 13.938v4.4531q-2.7812-4.8438-7.125-7.2344t-10.406-2.3906q-10.047 0-16.203 7.6562-6.1562 7.6719-6.1562 20.328 0 12.688 6.1562 20.344 6.1562 7.6719 16.203 7.6719 6.0625 0 10.406-2.3906t7.125-7.2188v8.2969h8.9844z"/>
</defs>
<g transform="translate(762.58 791.08) scale(.1 -.1)">
<use xlink:href="#j"/>
<use x="97.412109" xlink:href="#e"/>
<use x="158.691406" xlink:href="#f"/>
<use x="199.789062" xlink:href="#f"/>
<use x="240.902344" xlink:href="#i"/>
<use x="268.685547" xlink:href="#e"/>
<use x="329.964844" xlink:href="#at"/>
<use x="393.441406" xlink:href="#h"/>
</g>
</g>
<g clip-path="url(#a)">
<g transform="translate(831.33 791.08) scale(.1 -.1)">
<use xlink:href="#aj"/>
</g>
</g>
<g clip-path="url(#a)">
<g transform="translate(871.09 791.08) scale(.1 -.1)">
<use xlink:href="#e"/>
<use x="61.279297" xlink:href="#g"/>
<use x="124.658203" xlink:href="#x"/>
</g>
</g>
<g clip-path="url(#a)">
<defs>
<path id="az" d="m4.2031 54.688h8.9844l11.234-42.672 11.172 42.672h10.594l11.234-42.672 11.188 42.672h8.9844l-14.312-54.688h-10.594l-11.766 44.828-11.812-44.828h-10.609z"/>
</defs>
<g transform="translate(917.48 791.08) scale(.1 -.1)">
<use xlink:href="#az"/>
<use x="81.787109" xlink:href="#i"/>
<use x="109.570312" xlink:href="#ae"/>
<use x="148.779297" xlink:href="#af"/>
</g>
</g>
<g clip-path="url(#a)">
<g transform="translate(960.98 791.08) scale(.1 -.1)">
<use xlink:href="#am"/>
<use x="68.603516" xlink:href="#ap"/>
<use x="127.783203" xlink:href="#f"/>
<use x="168.880859" xlink:href="#g"/>
<use x="232.259766" xlink:href="#h"/>
</g>
</g>
<g clip-path="url(#a)">
<g transform="translate(1013.8 791.08) scale(.1 -.1)">
<use xlink:href="#af"/>
<use x="63.378906" xlink:href="#e"/>
<use x="124.658203" xlink:href="#x"/>
</g>
</g>
<g clip-path="url(#a)">
<g transform="translate(1048 791.08) scale(.1 -.1)">
<use xlink:href="#x"/>
<use x="63.476562" xlink:href="#e"/>
<use x="124.755859" xlink:href="#aq"/>
<use x="188.134766" xlink:href="#at"/>
<use x="251.611328" xlink:href="#af"/>
<use x="314.990234" xlink:href="#ae"/>
<use x="354.199219" xlink:href="#h"/>
<use x="415.722656" xlink:href="#f"/>
</g>
</g>
<g clip-path="url(#a)">
<defs>
<path id="ax" d="m9.8125 72.906h9.8594v-67.828q0-13.188-5-19.141t-16.094-5.9531h-3.75v8.2969h3.0781q6.5312 0 9.2188 3.6719 2.6875 3.6562 2.6875 13.125z"/>
</defs>
<g transform="translate(1104.5 791.08) scale(.1 -.1)">
<use xlink:href="#ax"/>
<use x="29.492188" xlink:href="#h"/>
<use x="91.015625" xlink:href="#g"/>
<use x="154.394531" xlink:href="#g"/>
<use x="217.773438" xlink:href="#e"/>
</g>
</g>
<g clip-path="url(#a)">
<g transform="translate(1164 791.08) scale(.1 -.1)">
<use xlink:href="#ao"/>
</g>
</g>
<g clip-path="url(#a)">
<g transform="translate(1202.1 791.08) scale(.1 -.1)">
<use xlink:href="#ag"/>
<use x="63.476562" xlink:href="#w"/>
<use x="124.658203" xlink:href="#f"/>
<use x="165.755859" xlink:href="#g"/>
</g>
</g>
<g clip-path="url(#a)">
<defs>
<path id="av" d="m39.406 66.219q-10.75 0-17.078-8.0156-6.3125-8-6.3125-21.828 0-13.766 6.3125-21.781 6.3281-8 17.078-8 10.734 0 17.016 8 6.2812 8.0156 6.2812 21.781 0 13.828-6.2812 21.828-6.2812 8.0156-17.016 8.0156zm0 8q15.328 0 24.5-10.281 9.1875-10.281 9.1875-27.562 0-17.234-9.1875-27.516-9.1719-10.281-24.5-10.281-15.375 0-24.594 10.25-9.2031 10.266-9.2031 27.547t9.2031 27.562q9.2188 10.281 24.594 10.281z"/>
</defs>
<g transform="translate(1241.2 791.08) scale(.1 -.1)">
<use xlink:href="#av"/>
<use x="78.710938" xlink:href="#al"/>
<use x="133.691406" xlink:href="#ae"/>
<use x="172.900391" xlink:href="#w"/>
<use x="234.082031" xlink:href="#ag"/>
<use x="297.558594" xlink:href="#h"/>
<use x="359.082031" xlink:href="#f"/>
</g>
</g>
<g clip-path="url(#a)">
<defs>
<path id="s" d="m10.797 72.906h38.719v-8.3125h-29.688v-17.859q2.1406 0.73438 4.2812 1.0938 2.1562 0.35938 4.3125 0.35938 12.203 0 19.328-6.6875 7.1406-6.6875 7.1406-18.109 0-11.766-7.3281-18.297-7.3281-6.5156-20.656-6.5156-4.5938 0-9.3594 0.78125-4.75 0.78125-9.8281 2.3438v9.9219q4.3906-2.3906 9.0781-3.5625t9.9062-1.1719q8.4531 0 13.375 4.4375 4.9375 4.4375 4.9375 12.062 0 7.6094-4.9375 12.047-4.9219 4.4531-13.375 4.4531-3.9531 0-7.8906-0.875-3.9219-0.875-8.0156-2.7344z"/>
</defs>
<g transform="translate(1302.4 791.08) scale(.1 -.1)">
<use xlink:href="#c"/>
<use x="63.623047" xlink:href="#s"/>
</g>
</g>
<g clip-path="url(#a)">
<g transform="translate(1354.7 791.08) scale(.1 -.1)">
<use xlink:href="#aj"/>
</g>
</g>
<g clip-path="url(#a)">
<defs>
<path id="aa" d="m8.2031 72.906h46.875v-4.2031l-26.469-68.703h-10.297l24.906 64.594h-35.016z"/>
<path id="v" d="m31.781 66.406q-7.6094 0-11.453-7.5-3.8281-7.4844-3.8281-22.531 0-14.984 3.8281-22.484 3.8438-7.5 11.453-7.5 7.6719 0 11.5 7.5 3.8438 7.5 3.8438 22.484 0 15.047-3.8438 22.531-3.8281 7.5-11.5 7.5zm0 7.8125q12.266 0 18.734-9.7031 6.4688-9.6875 6.4688-28.141 0-18.406-6.4688-28.109-6.4688-9.6875-18.734-9.6875-12.25 0-18.719 9.6875-6.4688 9.7031-6.4688 28.109 0 18.453 6.4688 28.141 6.4688 9.7031 18.719 9.7031z"/>
</defs>
<g transform="translate(1391.2 791.08) scale(.1 -.1)">
<use xlink:href="#c"/>
<use x="63.623047" xlink:href="#r"/>
<use x="127.246094" xlink:href="#aa"/>
<use x="190.869141" xlink:href="#v"/>
</g>
</g>
<g clip-path="url(#a)">
<g transform="translate(1449.5 791.08) scale(.1 -.1)">
<use xlink:href="#an"/>
</g>
</g>
<g clip-path="url(#a)">
<g transform="translate(1497.5 791.08) scale(.1 -.1)">
<use xlink:href="#d"/>
</g>
</g>
<g clip-path="url(#a)">
<g transform="translate(664.7 41.11) scale(.1 -.1)">
<use xlink:href="#c"/>
<use x="63.623047" xlink:href="#d"/>
<use x="95.410156" xlink:href="#c"/>
</g>
</g>
<g clip-path="url(#a)">
<defs>
<path id="p" d="m19.188 8.2969h34.422v-8.2969h-46.281v8.2969q5.6094 5.8125 15.297 15.594 9.7031 9.7969 12.188 12.641 4.7344 5.3125 6.6094 9 1.8906 3.6875 1.8906 7.25 0 5.8125-4.0781 9.4688-4.0781 3.6719-10.625 3.6719-4.6406 0-9.7969-1.6094-5.1406-1.6094-11-4.8906v9.9688q5.9531 2.3906 11.125 3.6094 5.1875 1.2188 9.4844 1.2188 11.328 0 18.062-5.6719 6.7344-5.6562 6.7344-15.125 0-4.5-1.6875-8.5312-1.6719-4.0156-6.125-9.4844-1.2188-1.4219-7.7656-8.1875-6.5312-6.7656-18.453-18.922z"/>
</defs>
<g transform="translate(165.19 155.51) scale(.1 -.1)">
<use xlink:href="#c"/>
<use x="63.623047" xlink:href="#d"/>
<use x="95.410156" xlink:href="#p"/>
</g>
</g>
<g clip-path="url(#a)">
<defs>
<path id="m" d="m37.797 64.312-24.906-38.922h24.906zm-2.5938 8.5938h12.406v-47.516h10.406v-8.2031h-10.406v-17.188h-9.8125v17.188h-32.906v9.5156z"/>
</defs>
<g transform="translate(872.55 688.37) scale(.1 -.1)">
<use xlink:href="#c"/>
<use x="63.623047" xlink:href="#d"/>
<use x="95.410156" xlink:href="#m"/>
</g>
</g>
<g clip-path="url(#a)">
<g transform="translate(796.12 266.83) scale(.1 -.1)">
<use xlink:href="#c"/>
<use x="63.623047" xlink:href="#d"/>
<use x="95.410156" xlink:href="#s"/>
</g>
</g>
<g clip-path="url(#a)">
<g transform="translate(943.92 585.66) scale(.1 -.1)">
<use xlink:href="#c"/>
<use x="63.623047" xlink:href="#d"/>
<use x="95.410156" xlink:href="#aa"/>
</g>
</g>
<g clip-path="url(#a)">
<defs>
<path id="z" d="m31.781 34.625q-7.0312 0-11.062-3.7656-4.0156-3.7656-4.0156-10.344 0-6.5938 4.0156-10.359 4.0312-3.7656 11.062-3.7656t11.078 3.7812q4.0625 3.7969 4.0625 10.344 0 6.5781-4.0312 10.344-4.0156 3.7656-11.109 3.7656zm-9.8594 4.1875q-6.3438 1.5625-9.8906 5.9062-3.5312 4.3594-3.5312 10.609 0 8.7344 6.2188 13.812 6.2344 5.0781 17.062 5.0781 10.891 0 17.094-5.0781t6.2031-13.812q0-6.25-3.5469-10.609-3.5312-4.3438-9.8281-5.9062 7.125-1.6562 11.094-6.5 3.9844-4.8281 3.9844-11.797 0-10.609-6.4688-16.281-6.4688-5.6562-18.531-5.6562-12.047 0-18.531 5.6562-6.4688 5.6719-6.4688 16.281 0 6.9688 4 11.797 4.0156 4.8438 11.141 6.5zm-3.6094 15.578q0-5.6562 3.5312-8.8281 3.5469-3.1719 9.9375-3.1719 6.3594 0 9.9375 3.1719 3.5938 3.1719 3.5938 8.8281 0 5.6719-3.5938 8.8438-3.5781 3.1719-9.9375 3.1719-6.3906 0-9.9375-3.1719-3.5312-3.1719-3.5312-8.8438z"/>
</defs>
<g transform="translate(1015.3 688.37) scale(.1 -.1)">
<use xlink:href="#c"/>
<use x="63.623047" xlink:href="#d"/>
<use x="95.410156" xlink:href="#z"/>
</g>
</g>
<g clip-path="url(#a)">
<g transform="translate(1161.6 375.39) scale(.1 -.1)">
<use xlink:href="#c"/>
<use x="63.623047" xlink:href="#d"/>
<use x="95.410156" xlink:href="#r"/>
</g>
</g>
<g clip-path="url(#a)">
<g transform="translate(1059.7 688.37) scale(.1 -.1)">
<use xlink:href="#c"/>
<use x="63.623047" xlink:href="#d"/>
<use x="95.410156" xlink:href="#c"/>
<use x="159.033203" xlink:href="#v"/>
</g>
</g>
<g clip-path="url(#a)">
<g transform="translate(1107.3 688.37) scale(.1 -.1)">
<use xlink:href="#c"/>
<use x="63.623047" xlink:href="#d"/>
<use x="95.410156" xlink:href="#c"/>
<use x="159.033203" xlink:href="#c"/>
</g>
</g>
<g clip-path="url(#a)">
<defs>
<path id="n" d="m40.578 39.312q7.0781-1.5156 11.047-6.3125 3.9844-4.7812 3.9844-11.812 0-10.781-7.4219-16.703-7.4219-5.9062-21.094-5.9062-4.5781 0-9.4375 0.90625t-10.031 2.7188v9.5156q4.0938-2.3906 8.9688-3.6094 4.8906-1.2188 10.219-1.2188 9.2656 0 14.125 3.6562t4.8594 10.641q0 6.4531-4.5156 10.078-4.5156 3.6406-12.562 3.6406h-8.5v8.1094h8.8906q7.2656 0 11.125 2.9062t3.8594 8.375q0 5.6094-3.9844 8.6094-3.9688 3.0156-11.391 3.0156-4.0625 0-8.7031-0.89062-4.6406-0.875-10.203-2.7188v8.7812q5.625 1.5625 10.531 2.3438t9.25 0.78125q11.234 0 17.766-5.1094 6.5469-5.0938 6.5469-13.781 0-6.0625-3.4688-10.234t-9.8594-5.7812z"/>
</defs>
<g transform="translate(1311.9 481.53) scale(.1 -.1)">
<use xlink:href="#c"/>
<use x="63.623047" xlink:href="#d"/>
<use x="95.410156" xlink:href="#c"/>
<use x="159.033203" xlink:href="#n"/>
</g>
</g>
<g clip-path="url(#a)">
<g transform="translate(1202.5 688.37) scale(.1 -.1)">
<use xlink:href="#c"/>
<use x="63.623047" xlink:href="#d"/>
<use x="95.410156" xlink:href="#c"/>
<use x="159.033203" xlink:href="#m"/>
</g>
</g>
<g clip-path="url(#a)">
<g transform="translate(1321.4 585.66) scale(.1 -.1)">
<use xlink:href="#c"/>
<use x="63.623047" xlink:href="#d"/>
<use x="95.410156" xlink:href="#c"/>
<use x="159.033203" xlink:href="#s"/>
</g>
</g>
<g clip-path="url(#a)">
<g transform="translate(916.95 688.37) scale(.1 -.1)">
<use xlink:href="#c"/>
<use x="63.623047" xlink:href="#d"/>
<use x="95.410156" xlink:href="#c"/>
<use x="159.033203" xlink:href="#z"/>
</g>
</g>
<g clip-path="url(#a)">
<g transform="translate(964.53 688.37) scale(.1 -.1)">
<use xlink:href="#c"/>
<use x="63.623047" xlink:href="#d"/>
<use x="95.410156" xlink:href="#c"/>
<use x="159.033203" xlink:href="#r"/>
</g>
</g>
<g clip-path="url(#a)">
<g transform="translate(60.45 688.37) scale(.1 -.1)">
<use xlink:href="#c"/>
<use x="63.623047" xlink:href="#d"/>
<use x="95.410156" xlink:href="#p"/>
<use x="159.033203" xlink:href="#v"/>
</g>
</g>
<g clip-path="url(#a)">
<g transform="translate(108.03 688.37) scale(.1 -.1)">
<use xlink:href="#c"/>
<use x="63.623047" xlink:href="#d"/>
<use x="95.410156" xlink:href="#p"/>
<use x="159.033203" xlink:href="#c"/>
</g>
</g>
<g clip-path="url(#a)">
<g transform="translate(317.53 266.83) scale(.1 -.1)">
<use xlink:href="#c"/>
<use x="63.623047" xlink:href="#d"/>
<use x="95.410156" xlink:href="#p"/>
<use x="159.033203" xlink:href="#p"/>
</g>
</g>
<g clip-path="url(#a)">
<g transform="translate(155.62 688.37) scale(.1 -.1)">
<use xlink:href="#c"/>
<use x="63.623047" xlink:href="#d"/>
<use x="95.410156" xlink:href="#p"/>
<use x="159.033203" xlink:href="#n"/>
</g>
</g>
<g clip-path="url(#a)">
<g transform="translate(262.68 585.66) scale(.1 -.1)">
<use xlink:href="#c"/>
<use x="63.623047" xlink:href="#d"/>
<use x="95.410156" xlink:href="#p"/>
<use x="159.033203" xlink:href="#s"/>
</g>
</g>
<g clip-path="url(#a)">
<g transform="translate(449.05 375.39) scale(.1 -.1)">
<use xlink:href="#c"/>
<use x="63.623047" xlink:href="#d"/>
<use x="95.410156" xlink:href="#p"/>
<use x="159.033203" xlink:href="#aa"/>
</g>
</g>
<g clip-path="url(#a)">
<g transform="translate(548.18 481.53) scale(.1 -.1)">
<use xlink:href="#c"/>
<use x="63.623047" xlink:href="#d"/>
<use x="95.410156" xlink:href="#p"/>
<use x="159.033203" xlink:href="#z"/>
</g>
</g>
<g clip-path="url(#a)">
<g transform="translate(643.35 481.53) scale(.1 -.1)">
<use xlink:href="#c"/>
<use x="63.623047" xlink:href="#d"/>
<use x="95.410156" xlink:href="#p"/>
<use x="159.033203" xlink:href="#r"/>
</g>
</g>
<g clip-path="url(#a)">
<g transform="translate(631.45 688.37) scale(.1 -.1)">
<use xlink:href="#c"/>
<use x="63.623047" xlink:href="#d"/>
<use x="95.410156" xlink:href="#n"/>
<use x="159.033203" xlink:href="#v"/>
</g>
</g>
<g clip-path="url(#a)">
<g transform="translate(726.62 585.66) scale(.1 -.1)">
<use xlink:href="#c"/>
<use x="63.623047" xlink:href="#d"/>
<use x="95.410156" xlink:href="#n"/>
<use x="159.033203" xlink:href="#c"/>
</g>
</g>
<g clip-path="url(#a)">
<g transform="translate(726.62 688.37) scale(.1 -.1)">
<use xlink:href="#c"/>
<use x="63.623047" xlink:href="#d"/>
<use x="95.410156" xlink:href="#n"/>
<use x="159.033203" xlink:href="#p"/>
</g>
</g>
<g clip-path="url(#a)">
<g transform="translate(679.03 688.37) scale(.1 -.1)">
<use xlink:href="#c"/>
<use x="63.623047" xlink:href="#d"/>
<use x="95.410156" xlink:href="#n"/>
<use x="159.033203" xlink:href="#n"/>
</g>
</g>
<g clip-path="url(#a)">
<g transform="translate(774.2 688.37) scale(.1 -.1)">
<use xlink:href="#c"/>
<use x="63.623047" xlink:href="#d"/>
<use x="95.410156" xlink:href="#n"/>
<use x="159.033203" xlink:href="#m"/>
</g>
</g>
<g clip-path="url(#a)">
<g transform="translate(512.49 585.66) scale(.1 -.1)">
<use xlink:href="#c"/>
<use x="63.623047" xlink:href="#d"/>
<use x="95.410156" xlink:href="#n"/>
<use x="159.033203" xlink:href="#s"/>
</g>
</g>
<g clip-path="url(#a)">
<g transform="translate(583.87 688.37) scale(.1 -.1)">
<use xlink:href="#c"/>
<use x="63.623047" xlink:href="#d"/>
<use x="95.410156" xlink:href="#n"/>
<use x="159.033203" xlink:href="#ad"/>
</g>
</g>
<g clip-path="url(#a)">
<g transform="translate(488.7 688.37) scale(.1 -.1)">
<use xlink:href="#c"/>
<use x="63.623047" xlink:href="#d"/>
<use x="95.410156" xlink:href="#n"/>
<use x="159.033203" xlink:href="#aa"/>
</g>
</g>
<g clip-path="url(#a)">
<g transform="translate(536.28 688.37) scale(.1 -.1)">
<use xlink:href="#c"/>
<use x="63.623047" xlink:href="#d"/>
<use x="95.410156" xlink:href="#n"/>
<use x="159.033203" xlink:href="#z"/>
</g>
</g>
<g clip-path="url(#a)">
<g transform="translate(250.78 688.37) scale(.1 -.1)">
<use xlink:href="#c"/>
<use x="63.623047" xlink:href="#d"/>
<use x="95.410156" xlink:href="#n"/>
<use x="159.033203" xlink:href="#r"/>
</g>
</g>
<g clip-path="url(#a)">
<g transform="translate(203.2 688.37) scale(.1 -.1)">
<use xlink:href="#c"/>
<use x="63.623047" xlink:href="#d"/>
<use x="95.410156" xlink:href="#m"/>
<use x="159.033203" xlink:href="#v"/>
</g>
</g>
<g clip-path="url(#a)">
<g transform="translate(345.95 688.37) scale(.1 -.1)">
<use xlink:href="#c"/>
<use x="63.623047" xlink:href="#d"/>
<use x="95.410156" xlink:href="#m"/>
<use x="159.033203" xlink:href="#c"/>
</g>
</g>
<g clip-path="url(#a)">
<g transform="translate(298.37 688.37) scale(.1 -.1)">
<use xlink:href="#c"/>
<use x="63.623047" xlink:href="#d"/>
<use x="95.410156" xlink:href="#m"/>
<use x="159.033203" xlink:href="#p"/>
</g>
</g>
<g clip-path="url(#a)">
<g transform="translate(608.1 41.11) scale(.1 -.1)">
<use xlink:href="#c"/>
<use x="63.623047" xlink:href="#d"/>
<use x="95.410156" xlink:href="#m"/>
<use x="159.033203" xlink:href="#n"/>
</g>
</g>
<g clip-path="url(#a)">
<g transform="translate(393.53 688.37) scale(.1 -.1)">
<use xlink:href="#c"/>
<use x="63.623047" xlink:href="#d"/>
<use x="95.410156" xlink:href="#m"/>
<use x="159.033203" xlink:href="#m"/>
</g>
</g>
<g clip-path="url(#a)">
<g transform="translate(441.12 688.37) scale(.1 -.1)">
<use xlink:href="#c"/>
<use x="63.623047" xlink:href="#d"/>
<use x="95.410156" xlink:href="#m"/>
<use x="159.033203" xlink:href="#s"/>
</g>
</g>
<g clip-path="url(#a)">
<g transform="translate(821.78 688.37) scale(.1 -.1)">
<use xlink:href="#c"/>
<use x="63.623047" xlink:href="#d"/>
<use x="95.410156" xlink:href="#m"/>
<use x="159.033203" xlink:href="#ad"/>
</g>
</g>
<g clip-path="url(#a)">
<g transform="translate(1154.9 688.37) scale(.1 -.1)">
<use xlink:href="#c"/>
<use x="63.623047" xlink:href="#d"/>
<use x="95.410156" xlink:href="#m"/>
<use x="159.033203" xlink:href="#aa"/>
</g>
</g>
<g clip-path="url(#a)">
<g transform="translate(1345.2 688.37) scale(.1 -.1)">
<use xlink:href="#c"/>
<use x="63.623047" xlink:href="#d"/>
<use x="95.410156" xlink:href="#m"/>
<use x="159.033203" xlink:href="#z"/>
</g>
</g>
<g clip-path="url(#a)">
<g transform="translate(1440.4 688.37) scale(.1 -.1)">
<use xlink:href="#c"/>
<use x="63.623047" xlink:href="#d"/>
<use x="95.410156" xlink:href="#m"/>
<use x="159.033203" xlink:href="#r"/>
</g>
</g>
<g clip-path="url(#a)">
<g transform="translate(1488 688.37) scale(.1 -.1)">
<use xlink:href="#c"/>
<use x="63.623047" xlink:href="#d"/>
<use x="95.410156" xlink:href="#s"/>
<use x="159.033203" xlink:href="#v"/>
</g>
</g>
<defs>
<clipPath id="a">
<rect width="1570.7" height="826.67"/>
</clipPath>
</defs>
</svg>
