<?xml version="1.0" encoding="UTF-8"?>
<!DOCTYPE svg  PUBLIC '-//W3C//DTD SVG 1.1//EN'  'http://www.w3.org/Graphics/SVG/1.1/DTD/svg11.dtd'>
<svg width="1925.3pt" height="1013.3pt" version="1.1" viewBox="0 0 1925.3 1013.3" xmlns="http://www.w3.org/2000/svg" xmlns:xlink="http://www.w3.org/1999/xlink">
<defs>
<style type="text/css">*{stroke-linecap:butt;stroke-linejoin:round;}</style>
</defs>
<path d="m0 1013.3h1925.3v-1013.3h-1925.3z" fill="#fff"/>
<g fill="none" stroke="#000">
<path d="m397.1 46.648v112.94" clip-path="url(#a)"/>
<path d="m397.1 159.59-264.57 616.04" clip-path="url(#a)"/>
<path d="m397.1 159.59-107.52 711.57" clip-path="url(#a)"/>
<path d="m397.1 159.59-40.211 711.57" clip-path="url(#a)"/>
<path d="m397.1 159.59 4.6608 711.57" clip-path="url(#a)"/>
<path d="m397.1 159.59 532.94 109.54" clip-path="url(#a)"/>
<path d="m397.1 159.59-174.83 711.57" clip-path="url(#a)"/>
<path d="m397.1 159.59 49.533 711.57" clip-path="url(#a)"/>
<path d="m132.53 775.63-44.872 95.53" clip-path="url(#a)"/>
<path d="m132.53 775.63v95.53" clip-path="url(#a)"/>
<path d="m132.53 775.63 44.872 95.53" clip-path="url(#a)"/>
<path d="m289.58 871.16-22.436 95.53" clip-path="url(#a)"/>
<path d="m289.58 871.16 22.436 95.53" clip-path="url(#a)"/>
<path d="m356.89 871.16v95.53" clip-path="url(#a)"/>
<path d="m401.77 871.16v95.53" clip-path="url(#a)"/>
<path d="m930.04 269.12-449.75 409.64" clip-path="url(#a)"/>
<path d="m930.04 269.12-169.3 506.5" clip-path="url(#a)"/>
<path d="m930.04 269.12 279.42 409.64" clip-path="url(#a)"/>
<path d="m930.04 269.12 144.81 602.03" clip-path="url(#a)"/>
<path d="m930.04 269.12 353.93 106.4" clip-path="url(#a)"/>
<path d="m930.04 269.12-259.04 602.03" clip-path="url(#a)"/>
<path d="m930.04 269.12 99.933 602.03" clip-path="url(#a)"/>
<path d="m480.29 678.77-78.526 192.39" clip-path="url(#a)" stroke-dasharray="3.7,1.6"/>
<path d="m480.29 678.77 78.526 96.859" clip-path="url(#a)"/>
<path d="m760.74 775.63-44.872 95.53" clip-path="url(#a)"/>
<path d="m760.74 775.63v95.53" clip-path="url(#a)"/>
<path d="m760.74 775.63 44.872 95.53" clip-path="url(#a)"/>
<path d="m1209.5 678.77 628.21 287.92" clip-path="url(#a)"/>
<path d="m1209.5 678.77-358.98 192.39" clip-path="url(#a)"/>
<path d="m1209.5 678.77-269.23 96.859" clip-path="url(#a)"/>
<path d="m1074.8 871.16v95.53" clip-path="url(#a)"/>
<path d="m1284 375.53 508.83 591.16" clip-path="url(#a)"/>
<path d="m1284 375.53-75.341 103.54" clip-path="url(#a)"/>
<path d="m1284 375.53-433.49 495.63" clip-path="url(#a)" stroke-dasharray="3.7,1.6"/>
<path d="m1208.6 479.07-88.913 392.08" clip-path="url(#a)"/>
<path d="m1208.6 479.07-44.041 392.08" clip-path="url(#a)"/>
<path d="m1208.6 479.07 132.95 100.97" clip-path="url(#a)"/>
<path d="m1119.7 871.16v95.53" clip-path="url(#a)"/>
<path d="m1164.6 871.16v95.53" clip-path="url(#a)"/>
<path d="m1341.6 580.04-132.12 291.11" clip-path="url(#a)"/>
<path d="m1341.6 580.04-87.251 291.11" clip-path="url(#a)"/>
<path d="m1341.6 580.04-42.379 291.11" clip-path="url(#a)"/>
<path d="m1341.6 580.04 2.4929 291.11" clip-path="url(#a)"/>
<path d="m1341.6 580.04 47.365 291.11" clip-path="url(#a)"/>
<path d="m1341.6 580.04 211.9 98.724" clip-path="url(#a)"/>
<path d="m1209.5 871.16v95.53" clip-path="url(#a)"/>
<path d="m1254.3 871.16v95.53" clip-path="url(#a)"/>
<path d="m1299.2 871.16v95.53" clip-path="url(#a)"/>
<path d="m1344.1 871.16v95.53" clip-path="url(#a)"/>
<path d="m1389 871.16v95.53" clip-path="url(#a)"/>
<path d="m1553.5 678.77-119.66 192.39" clip-path="url(#a)"/>
<path d="m1553.5 678.77-74.787 192.39" clip-path="url(#a)"/>
<path d="m1553.5 678.77-29.915 192.39" clip-path="url(#a)"/>
<path d="m1553.5 678.77 14.957 192.39" clip-path="url(#a)"/>
<path d="m1553.5 678.77 59.829 192.39" clip-path="url(#a)"/>
<path d="m1553.5 678.77 149.57 96.859" clip-path="url(#a)"/>
<path d="m1433.8 871.16v95.53" clip-path="url(#a)"/>
<path d="m1478.7 871.16v95.53" clip-path="url(#a)"/>
<path d="m1523.6 871.16v95.53" clip-path="url(#a)"/>
<path d="m1568.4 871.16v95.53" clip-path="url(#a)"/>
<path d="m1613.3 871.16v95.53" clip-path="url(#a)"/>
<path d="m1703.1 775.63-44.872 95.53" clip-path="url(#a)"/>
<path d="m1703.1 775.63v95.53" clip-path="url(#a)"/>
<path d="m1703.1 775.63 44.872 95.53" clip-path="url(#a)"/>
<path d="m1658.2 871.16v95.53" clip-path="url(#a)"/>
<path d="m1703.1 871.16v95.53" clip-path="url(#a)"/>
<path d="m850.49 871.16v95.53" clip-path="url(#a)"/>
<path d="m940.23 775.63-44.872 95.53" clip-path="url(#a)"/>
<path d="m940.23 775.63v95.53" clip-path="url(#a)"/>
<path d="m940.23 775.63 44.872 95.53" clip-path="url(#a)"/>
<path d="m895.36 871.16v95.53" clip-path="url(#a)"/>
<path d="m940.23 871.16v95.53" clip-path="url(#a)"/>
<path d="m985.1 871.16v95.53" clip-path="url(#a)"/>
<path d="m715.87 871.16v95.53" clip-path="url(#a)"/>
<path d="m760.74 871.16v95.53" clip-path="url(#a)"/>
<path d="m805.61 871.16v95.53" clip-path="url(#a)"/>
<path d="m558.82 775.63-67.308 95.53" clip-path="url(#a)"/>
<path d="m558.82 775.63-22.436 95.53" clip-path="url(#a)"/>
<path d="m558.82 775.63 22.436 95.53" clip-path="url(#a)"/>
<path d="m558.82 775.63 67.308 95.53" clip-path="url(#a)"/>
<path d="m491.51 871.16v95.53" clip-path="url(#a)"/>
<path d="m536.38 871.16v95.53" clip-path="url(#a)"/>
<path d="m581.25 871.16v95.53" clip-path="url(#a)"/>
<path d="m626.13 871.16v95.53" clip-path="url(#a)"/>
<path d="m87.66 871.16v95.53" clip-path="url(#a)"/>
<path d="m132.53 871.16v95.53" clip-path="url(#a)"/>
<path d="m177.4 871.16v95.53" clip-path="url(#a)"/>
<path d="m222.28 871.16v95.53" clip-path="url(#a)"/>
<path d="m446.64 871.16v95.53" clip-path="url(#a)"/>
<path d="m671 871.16v95.53" clip-path="url(#a)"/>
<path d="m1030 871.16v95.53" clip-path="url(#a)"/>
<path d="m1747.9 871.16v95.53" clip-path="url(#a)"/>
</g>
<path d="m390.83 100.11v6.0162q0 2.4 2.4 2.4h7.7425q2.4 0 2.4-2.4v-6.0162q0-2.4-2.4-2.4h-7.7425q-2.4 0-2.4 2.4z" clip-path="url(#a)" fill="#fff" stroke="#fff"/>
<g clip-path="url(#a)">
<defs>
<path id="ah" d="m9.8125 72.906h9.8594v-29.891h35.844v29.891h9.8594v-72.906h-9.8594v34.719h-35.844v-34.719h-9.8594z"/>
</defs>
<g transform="translate(394.9 100.11) rotate(90) scale(.08 -.08)">
<use xlink:href="#ah"/>
</g>
</g>
<path d="m269.5 472.6 2.1596-5.0284q0.94708-2.2052-1.2581-3.1523l-7.1142-3.0553q-2.2052-0.94708-3.1523 1.2581l-2.1596 5.0284q-0.94709 2.2052 1.2581 3.1523l7.1142 3.0553q2.2052 0.94708 3.1523-1.2581z" clip-path="url(#a)" fill="#fff" stroke="#fff"/>
<g clip-path="url(#a)">
<defs>
<path id="q" d="m34.188 63.188-13.391-36.281h26.812zm-5.5781 9.7188h11.188l27.781-72.906h-10.25l-6.6406 18.703h-32.859l-6.6406-18.703h-10.406z"/>
</defs>
<g transform="translate(265.77 470.99) rotate(-66.758) scale(.08 -.08)">
<use xlink:href="#q"/>
</g>
</g>
<path d="m349.14 519.01 0.81762-5.4111q0.35858-2.3731-2.0145-2.7316l-7.6556-1.1568q-2.3731-0.35858-2.7316 2.0145l-0.81762 5.4111q-0.35858 2.3731 2.0145 2.7316l7.6556 1.1568q2.3731 0.35858 2.7316-2.0145z" clip-path="url(#a)" fill="#fff" stroke="#fff"/>
<g clip-path="url(#a)">
<g transform="translate(345.12 518.41) rotate(-81.407) scale(.08 -.08)">
<use xlink:href="#q"/>
</g>
</g>
<path d="m383.12 518.13 0.27216-4.8161q0.13541-2.3962-2.2608-2.5316l-7.7302-0.43684q-2.3962-0.13541-2.5316 2.2608l-0.27216 4.8161q-0.13541 2.3962 2.2608 2.5316l7.7302 0.43684q2.3962 0.13541 2.5316-2.2608z" clip-path="url(#a)" fill="#fff" stroke="#fff"/>
<g clip-path="url(#a)">
<defs>
<path id="af" d="m19.672 64.797v-27.391h12.406q6.8906 0 10.641 3.5625 3.7656 3.5625 3.7656 10.156 0 6.5469-3.7656 10.109-3.75 3.5625-10.641 3.5625zm-9.8594 8.1094h22.266q12.266 0 18.531-5.5469 6.2812-5.5469 6.2812-16.234 0-10.797-6.2812-16.312-6.2656-5.5156-18.531-5.5156h-12.406v-29.297h-9.8594z"/>
</defs>
<g transform="translate(379.07 517.9) rotate(-86.766) scale(.08 -.08)">
<use xlink:href="#af"/>
</g>
</g>
<path d="m393.15 512.68 0.035844 5.4724q0.01572 2.3999 2.4157 2.3842l7.7423-0.050712q2.3999-0.01572 2.3842-2.4157l-0.035844-5.4724q-0.015719-2.3999-2.4157-2.3842l-7.7423 0.050712q-2.3999 0.01572-2.3842 2.4157z" clip-path="url(#a)" fill="#fff" stroke="#fff"/>
<g clip-path="url(#a)">
<g transform="translate(397.21 512.65) rotate(89.625) scale(.08 -.08)">
<use xlink:href="#q"/>
</g>
</g>
<path d="m659.63 219.95 5.3604 1.1018q2.3509 0.48318 2.834-1.8677l1.5588-7.584q0.48318-2.3509-1.8677-2.834l-5.3604-1.1018q-2.3509-0.48318-2.834 1.8677l-1.5588 7.584q-0.48318 2.3509 1.8677 2.834z" clip-path="url(#a)" fill="#fff" stroke="#fff"/>
<g clip-path="url(#a)">
<g transform="translate(660.45 215.97) rotate(11.615) scale(.08 -.08)">
<use xlink:href="#q"/>
</g>
</g>
<path d="m315.08 519.71 1.397-5.6859q0.57263-2.3307-1.758-2.9033l-7.5189-1.8473q-2.3307-0.57263-2.9033 1.758l-1.397 5.6859q-0.57263 2.3307 1.758 2.9033l7.5189 1.8473q2.3307 0.57263 2.9033-1.7581z" clip-path="url(#a)" fill="#fff" stroke="#fff"/>
<g clip-path="url(#a)">
<defs>
<path id="ab" d="m8.6875 72.906h9.9219v-44.297q0-11.719 4.2344-16.875 4.25-5.1406 13.781-5.1406 9.4688 0 13.719 5.1406 4.25 5.1562 4.25 16.875v44.297h9.9062v-45.516q0-14.25-7.0625-21.531-7.0469-7.2812-20.812-7.2812-13.828 0-20.891 7.2812-7.0469 7.2812-7.0469 21.531z"/>
</defs>
<g transform="translate(311.14 518.74) rotate(-76.196) scale(.08 -.08)">
<use xlink:href="#ab"/>
</g>
</g>
<path d="m415.41 512.89 0.40659 5.8409q0.16666 2.3942 2.5609 2.2275l7.7238-0.53766q2.3942-0.16666 2.2275-2.5609l-0.40659-5.8409q-0.16666-2.3942-2.5609-2.2275l-7.7238 0.53766q-2.3942 0.16666-2.2275 2.5609z" clip-path="url(#a)" fill="#fff" stroke="#fff"/>
<g clip-path="url(#a)">
<g transform="translate(419.47 512.6) rotate(86.018) scale(.08 -.08)">
<use xlink:href="#ab"/>
</g>
</g>
<path d="m114.59 828.57 2.3633-5.0313q1.0204-2.1723-1.1519-3.1927l-7.0079-3.2917q-2.1723-1.0204-3.1927 1.1519l-2.3633 5.0313q-1.0204 2.1723 1.1519 3.1927l7.0079 3.2917q2.1723 1.0204 3.1927-1.1519z" clip-path="url(#a)" fill="#fff" stroke="#fff"/>
<g clip-path="url(#a)">
<defs>
<path id="z" d="m44.391 34.188q3.1719-1.0781 6.1719-4.5938t6.0312-9.6719l10.016-19.922h-10.609l-9.3125 18.703q-3.625 7.3281-7.0156 9.7188t-9.25 2.3906h-10.75v-30.812h-9.8594v72.906h22.266q12.5 0 18.656-5.2344 6.1562-5.2188 6.1562-15.766 0-6.8906-3.2031-11.438-3.2031-4.5312-9.2969-6.2812zm-24.719 30.609v-25.875h12.406q7.125 0 10.766 3.2969t3.6406 9.6875-3.6406 9.6406-10.766 3.25z"/>
</defs>
<g transform="translate(110.91 826.84) rotate(-64.84) scale(.08 -.08)">
<use xlink:href="#z"/>
</g>
</g>
<path d="m126.26 820.86v5.055q0 2.4 2.4 2.4h7.7425q2.4 0 2.4-2.4v-5.055q0-2.4-2.4-2.4h-7.7425q-2.4 0-2.4 2.4z" clip-path="url(#a)" fill="#fff" stroke="#fff"/>
<g clip-path="url(#a)">
<defs>
<path id="u" d="m9.8125 72.906h46.094v-8.3125h-36.234v-21.578h34.719v-8.2969h-34.719v-26.422h37.109v-8.2969h-46.969z"/>
</defs>
<g transform="translate(130.33 820.86) rotate(90) scale(.08 -.08)">
<use xlink:href="#u"/>
</g>
</g>
<path d="m148.1 823.53 2.375 5.0562q1.0204 2.1723 3.1927 1.1519l7.0079-3.2917q2.1723-1.0204 1.1519-3.1927l-2.375-5.0562q-1.0204-2.1723-3.1927-1.1519l-7.0079 3.2917q-2.1723 1.0204-1.1519 3.1927z" clip-path="url(#a)" fill="#fff" stroke="#fff"/>
<g clip-path="url(#a)">
<defs>
<path id="t" d="m64.406 67.281v-10.391q-4.9844 4.6406-10.625 6.9219-5.6406 2.2969-11.984 2.2969-12.5 0-19.141-7.6406t-6.6406-22.094q0-14.406 6.6406-22.047t19.141-7.6406q6.3438 0 11.984 2.2969t10.625 6.9375v-10.312q-5.1719-3.5156-10.969-5.2812-5.7812-1.75-12.219-1.75-16.562 0-26.094 10.125-9.5156 10.141-9.5156 27.672 0 17.578 9.5156 27.703 9.5312 10.141 26.094 10.141 6.5312 0 12.312-1.7344 5.7969-1.7344 10.875-5.2031z"/>
</defs>
<g transform="translate(151.78 821.8) rotate(64.84) scale(.08 -.08)">
<use xlink:href="#t"/>
</g>
</g>
<path d="m280.44 937.53 8.0675-34.35q0.54873-2.3364-1.7877-2.8852l-7.5374-1.7702q-2.3364-0.54873-2.8852 1.7877l-8.0675 34.35q-0.54873 2.3364 1.7877 2.8852l7.5374 1.7702q2.3364 0.54873 2.8852-1.7877z" clip-path="url(#a)" fill="#fff" stroke="#fff"/>
<g clip-path="url(#a)">
<defs>
<path id="l" d="m-0.29688 72.906h61.672v-8.3125h-25.875v-64.594h-9.9062v64.594h-25.891z"/>
<path id="d" d="m56.203 29.594v-4.3906h-41.312q0.59375-9.2812 5.5938-14.141t13.938-4.8594q5.1719 0 10.031 1.2656t9.6562 3.8125v-8.5q-4.8438-2.0469-9.9219-3.125t-10.297-1.0781q-13.094 0-20.734 7.6094-7.6406 7.625-7.6406 20.625 0 13.422 7.25 21.297 7.25 7.8906 19.562 7.8906 11.031 0 17.453-7.1094 6.4219-7.0938 6.4219-19.297zm-8.9844 2.6406q-0.09375 7.3594-4.125 11.75-4.0312 4.4062-10.672 4.4062-7.5156 0-12.031-4.25t-5.2031-11.969z"/>
<path id="f" d="m41.109 46.297q-1.5156 0.875-3.2969 1.2812-1.7812 0.42188-3.9219 0.42188-7.625 0-11.703-4.9531t-4.0781-14.234v-28.812h-9.0312v54.688h9.0312v-8.5q2.8438 4.9844 7.375 7.3906 4.5469 2.4219 11.047 2.4219 0.92188 0 2.0469-0.125 1.125-0.10938 2.4844-0.35938z"/>
<path id="k" d="m52 44.188q3.375 6.0625 8.0625 8.9375t11.031 2.875q8.5469 0 13.188-5.9844 4.6406-5.9688 4.6406-17v-33.016h-9.0312v32.719q0 7.8594-2.7969 11.656-2.7812 3.8125-8.4844 3.8125-6.9844 0-11.047-4.6406-4.0469-4.625-4.0469-12.641v-30.906h-9.0312v32.719q0 7.9062-2.7812 11.688t-8.5938 3.7812q-6.8906 0-10.953-4.6562-4.0469-4.6562-4.0469-12.625v-30.906h-9.0312v54.688h9.0312v-8.5q3.0781 5.0312 7.375 7.4219t10.203 2.3906q5.9688 0 10.141-3.0312 4.1719-3.0156 6.1719-8.7812z"/>
<path id="g" d="m9.4219 54.688h8.9844v-54.688h-8.9844zm0 21.297h8.9844v-11.391h-8.9844z"/>
<path id="i" d="m54.891 33.016v-33.016h-8.9844v32.719q0 7.7656-3.0312 11.609-3.0312 3.8594-9.0781 3.8594-7.2812 0-11.484-4.6406-4.2031-4.625-4.2031-12.641v-30.906h-9.0312v54.688h9.0312v-8.5q3.2344 4.9375 7.5938 7.375 4.375 2.4375 10.094 2.4375 9.4219 0 14.25-5.8281 4.8438-5.8281 4.8438-17.156z"/>
<path id="h" d="m34.281 27.484q-10.891 0-15.094-2.4844t-4.2031-8.5q0-4.7812 3.1562-7.5938 3.1562-2.7969 8.5625-2.7969 7.4844 0 12 5.2969t4.5156 14.078v2zm17.922 3.7188v-31.203h-8.9844v8.2969q-3.0781-4.9688-7.6719-7.3438t-11.234-2.375q-8.3906 0-13.359 4.7188-4.9531 4.7188-4.9531 12.625 0 9.2188 6.1719 13.906 6.1875 4.6875 18.438 4.6875h12.609v0.89062q0 6.2031-4.0781 9.5938t-11.453 3.3906q-4.6875 0-9.1406-1.125-4.4375-1.125-8.5312-3.375v8.3125q4.9219 1.9062 9.5625 2.8438 4.6406 0.95312 9.0312 0.95312 11.875 0 17.734-6.1562 5.8594-6.1406 5.8594-18.641z"/>
<path id="j" d="m9.4219 75.984h8.9844v-75.984h-8.9844z"/>
</defs>
<g transform="translate(276.48 936.6) rotate(-76.783) scale(.08 -.08)">
<use xlink:href="#l"/>
<use x="60.818359" xlink:href="#d"/>
<use x="122.341797" xlink:href="#f"/>
<use x="163.439453" xlink:href="#k"/>
<use x="260.851562" xlink:href="#g"/>
<use x="288.634766" xlink:href="#i"/>
<use x="352.013672" xlink:href="#h"/>
<use x="413.292969" xlink:href="#j"/>
</g>
</g>
<path d="m290.66 903.18 8.0675 34.35q0.54873 2.3364 2.8852 1.7877l7.5374-1.7702q2.3364-0.54873 1.7877-2.8852l-8.0675-34.35q-0.54873-2.3364-2.8852-1.7877l-7.5374 1.7702q-2.3364 0.54873-1.7877 2.8852z" clip-path="url(#a)" fill="#fff" stroke="#fff"/>
<g clip-path="url(#a)">
<g transform="translate(294.62 902.25) rotate(76.783) scale(.08 -.08)">
<use xlink:href="#l"/>
<use x="60.818359" xlink:href="#d"/>
<use x="122.341797" xlink:href="#f"/>
<use x="163.439453" xlink:href="#k"/>
<use x="260.851562" xlink:href="#g"/>
<use x="288.634766" xlink:href="#i"/>
<use x="352.013672" xlink:href="#h"/>
<use x="413.292969" xlink:href="#j"/>
</g>
</g>
<path d="m350.62 901.28v35.285q0 2.4 2.4 2.4h7.7425q2.4 0 2.4-2.4v-35.285q0-2.4-2.4-2.4h-7.7425q-2.4 0-2.4 2.4z" clip-path="url(#a)" fill="#fff" stroke="#fff"/>
<g clip-path="url(#a)">
<g transform="translate(354.69 901.28) rotate(90) scale(.08 -.08)">
<use xlink:href="#l"/>
<use x="60.818359" xlink:href="#d"/>
<use x="122.341797" xlink:href="#f"/>
<use x="163.439453" xlink:href="#k"/>
<use x="260.851562" xlink:href="#g"/>
<use x="288.634766" xlink:href="#i"/>
<use x="352.013672" xlink:href="#h"/>
<use x="413.292969" xlink:href="#j"/>
</g>
</g>
<path d="m395.49 901.28v35.285q0 2.4 2.4 2.4h7.7425q2.4 0 2.4-2.4v-35.285q0-2.4-2.4-2.4h-7.7425q-2.4 0-2.4 2.4z" clip-path="url(#a)" fill="#fff" stroke="#fff"/>
<g clip-path="url(#a)">
<g transform="translate(399.56 901.28) rotate(90) scale(.08 -.08)">
<use xlink:href="#l"/>
<use x="60.818359" xlink:href="#d"/>
<use x="122.341797" xlink:href="#f"/>
<use x="163.439453" xlink:href="#k"/>
<use x="260.851562" xlink:href="#g"/>
<use x="288.634766" xlink:href="#i"/>
<use x="352.013672" xlink:href="#h"/>
<use x="413.292969" xlink:href="#j"/>
</g>
</g>
<path d="m707.17 480.61 4.4478-4.0512q1.7743-1.6161 0.15823-3.3904l-5.2136-5.724q-1.6161-1.7743-3.3904-0.15823l-4.4478 4.0512q-1.7743 1.6161-0.15823 3.3904l5.2136 5.724q1.6161 1.7743 3.3904 0.15823z" clip-path="url(#a)" fill="#fff" stroke="#fff"/>
<g clip-path="url(#a)">
<g transform="translate(704.43 477.6) rotate(-42.328) scale(.08 -.08)">
<use xlink:href="#ah"/>
</g>
</g>
<path d="m850.63 526.48 1.4131-4.2276q0.76083-2.2762-1.5154-3.037l-7.3432-2.4545q-2.2762-0.76083-3.037 1.5154l-1.4131 4.2276q-0.76083 2.2762 1.5154 3.037l7.3432 2.4545q2.2762 0.76083 3.037-1.5154z" clip-path="url(#a)" fill="#fff" stroke="#fff"/>
<g clip-path="url(#a)">
<defs>
<path id="ag" d="m9.8125 72.906h9.8594v-64.609h35.5v-8.2969h-45.359z"/>
</defs>
<g transform="translate(846.78 525.19) rotate(-71.518) scale(.08 -.08)">
<use xlink:href="#ag"/>
</g>
</g>
<path d="m1062.9 474.99 3.3902 4.9701q1.3524 1.9827 3.3351 0.63027l6.3962-4.3629q1.9827-1.3524 0.63027-3.3351l-3.3902-4.9701q-1.3524-1.9827-3.3351-0.63027l-6.3962 4.3629q-1.9827 1.3524-0.63027 3.3351z" clip-path="url(#a)" fill="#fff" stroke="#fff"/>
<g clip-path="url(#a)">
<g transform="translate(1066.2 472.7) rotate(55.702) scale(.08 -.08)">
<use xlink:href="#ah"/>
</g>
</g>
<path d="m995.83 569.44 1.0424 4.3339q0.56126 2.3334 2.8947 1.7722l7.5278-1.8106q2.3334-0.56126 1.7722-2.8947l-1.0424-4.3339q-0.56126-2.3334-2.8947-1.7722l-7.5278 1.8106q-2.3334 0.56126-1.7722 2.8947z" clip-path="url(#a)" fill="#fff" stroke="#fff"/>
<g clip-path="url(#a)">
<g transform="translate(999.78 568.49) rotate(76.476) scale(.08 -.08)">
<use xlink:href="#ag"/>
</g>
</g>
<path d="m1102.3 327.47 5.7615 1.7321q2.2984 0.69097 2.9894-1.6074l2.2291-7.4147q0.69097-2.2984-1.6074-2.9894l-5.7615-1.7321q-2.2984-0.69097-2.9894 1.6074l-2.2291 7.4147q-0.69097 2.2984 1.6074 2.9894z" clip-path="url(#a)" fill="#fff" stroke="#fff"/>
<g clip-path="url(#a)">
<g transform="translate(1103.5 323.57) rotate(16.732) scale(.08 -.08)">
<use xlink:href="#ah"/>
</g>
</g>
<path d="m805.12 575.31 2.3142-5.3783q0.94859-2.2046-1.256-3.1532l-7.1121-3.0602q-2.2046-0.94859-3.1532 1.256l-2.3142 5.3783q-0.94859 2.2046 1.256 3.1532l7.1121 3.0602q2.2046 0.94859 3.1532-1.256z" clip-path="url(#a)" fill="#fff" stroke="#fff"/>
<g clip-path="url(#a)">
<g transform="translate(801.39 573.7) rotate(-66.719) scale(.08 -.08)">
<use xlink:href="#ab"/>
</g>
</g>
<path d="m973.34 568.28 0.95877 5.776q0.39301 2.3676 2.7606 1.9746l7.638-1.2679q2.3676-0.39301 1.9746-2.7606l-0.95877-5.776q-0.39301-2.3676-2.7606-1.9746l-7.638 1.2679q-2.3676 0.39301-1.9746 2.7606z" clip-path="url(#a)" fill="#fff" stroke="#fff"/>
<g clip-path="url(#a)">
<g transform="translate(977.35 567.61) rotate(80.575) scale(.08 -.08)">
<use xlink:href="#ab"/>
</g>
</g>
<path d="m445.8 779.86 2.068-5.0667q0.90696-2.222-1.3151-3.129l-7.1684-2.9259q-2.222-0.90696-3.129 1.3151l-2.068 5.0667q-0.90696 2.222 1.3151 3.129l7.1684 2.9259q2.222 0.90696 3.129-1.3151z" clip-path="url(#a)" fill="#fff" stroke="#fff"/>
<g clip-path="url(#a)">
<g transform="translate(442.04 778.33) rotate(-67.796) scale(.08 -.08)">
<use xlink:href="#q"/>
</g>
</g>
<path d="m513.08 729.17 3.1984 3.9451q1.5114 1.8643 3.3757 0.35285l6.0143-4.876q1.8643-1.5114 0.35285-3.3757l-3.1984-3.9451q-1.5114-1.8643-3.3757-0.35285l-6.0143 4.876q-1.8643 1.5114-0.35285 3.3757z" clip-path="url(#a)" fill="#fff" stroke="#fff"/>
<g clip-path="url(#a)">
<defs>
<path id="ae" d="m53.516 70.516v-9.625q-5.6094 2.6875-10.594 4-4.9844 1.3281-9.625 1.3281-8.0469 0-12.422-3.125t-4.375-8.8906q0-4.8438 2.9062-7.3125 2.9062-2.4531 11.016-3.9688l5.9531-1.2188q11.031-2.1094 16.281-7.4062t5.25-14.172q0-10.609-7.1094-16.078-7.0938-5.4688-20.812-5.4688-5.1719 0-11.016 1.1719-5.8281 1.1719-12.078 3.4688v10.156q6-3.3594 11.766-5.0781 5.7656-1.7031 11.328-1.7031 8.4375 0 13.031 3.3125 4.5938 3.3281 4.5938 9.4844 0 5.3594-3.2969 8.3906t-10.812 4.5469l-6.0156 1.1719q-11.031 2.1875-15.969 6.875-4.9219 4.6875-4.9219 13.047 0 9.6719 6.8125 15.234t18.766 5.5625q5.1406 0 10.453-0.9375 5.3281-0.92188 10.891-2.7656z"/>
</defs>
<g transform="translate(516.24 726.61) rotate(50.967) scale(.08 -.08)">
<use xlink:href="#ae"/>
</g>
</g>
<path d="m742.91 828.34 2.1491-4.5754q1.0204-2.1723-1.1519-3.1927l-7.0079-3.2917q-2.1723-1.0204-3.1927 1.1519l-2.1491 4.5754q-1.0204 2.1723 1.1519 3.1927l7.0079 3.2917q2.1723 1.0204 3.1927-1.1519z" clip-path="url(#a)" fill="#fff" stroke="#fff"/>
<g clip-path="url(#a)">
<g transform="translate(739.23 826.62) rotate(-64.84) scale(.08 -.08)">
<use xlink:href="#u"/>
</g>
</g>
<path d="m754.47 820.6v5.5862q0 2.4 2.4 2.4h7.7425q2.4 0 2.4-2.4v-5.5862q0-2.4-2.4-2.4h-7.7425q-2.4 0-2.4 2.4z" clip-path="url(#a)" fill="#fff" stroke="#fff"/>
<g clip-path="url(#a)">
<g transform="translate(758.53 820.6) rotate(90) scale(.08 -.08)">
<use xlink:href="#t"/>
</g>
</g>
<path d="m776.32 823.54 2.3633 5.0313q1.0204 2.1723 3.1927 1.1519l7.0079-3.2917q2.1723-1.0204 1.1519-3.1927l-2.3633-5.0313q-1.0204-2.1723-3.1927-1.1519l-7.0079 3.2917q-2.1723 1.0204-1.1519 3.1927z" clip-path="url(#a)" fill="#fff" stroke="#fff"/>
<g clip-path="url(#a)">
<g transform="translate(780 821.81) rotate(64.84) scale(.08 -.08)">
<use xlink:href="#z"/>
</g>
</g>
<path d="m1518.6 827.37 4.6169 2.116q2.1818 0.99994 3.1817-1.1818l3.2258-7.0385q0.99994-2.1818-1.1818-3.1817l-4.6169-2.116q-2.1818-0.99994-3.1817 1.1818l-3.2258 7.0385q-0.99994 2.1818 1.1818 3.1817z" clip-path="url(#a)" fill="#fff" stroke="#fff"/>
<g clip-path="url(#a)">
<g transform="translate(1520.3 823.67) rotate(24.623) scale(.08 -.08)">
<use xlink:href="#ae"/>
</g>
</g>
<path d="m1030.5 781.78 4.8235-2.5851q2.1154-1.1337 0.98166-3.2491l-3.6573-6.8242q-1.1337-2.1154-3.2491-0.98166l-4.8235 2.5851q-2.1154 1.1337-0.98166 3.2491l3.6573 6.8242q1.1337 2.1154 3.2491 0.98166z" clip-path="url(#a)" fill="#fff" stroke="#fff"/>
<g clip-path="url(#a)">
<g transform="translate(1028.6 778.2) rotate(-28.188) scale(.08 -.08)">
<use xlink:href="#q"/>
</g>
</g>
<path d="m1074.4 734.02 5.1494-1.8525q2.2583-0.81244 1.4459-3.0707l-2.621-7.2854q-0.81244-2.2583-3.0707-1.4459l-5.1494 1.8525q-2.2583 0.81244-1.4459 3.0707l2.621 7.2854q0.81244 2.2583 3.0707 1.4459z" clip-path="url(#a)" fill="#fff" stroke="#fff"/>
<g clip-path="url(#a)">
<g transform="translate(1073 730.2) rotate(-19.787) scale(.08 -.08)">
<use xlink:href="#q"/>
</g>
</g>
<path d="m1068.6 901.28v35.285q0 2.4 2.4 2.4h7.7425q2.4 0 2.4-2.4v-35.285q0-2.4-2.4-2.4h-7.7425q-2.4 0-2.4 2.4z" clip-path="url(#a)" fill="#fff" stroke="#fff"/>
<g clip-path="url(#a)">
<g transform="translate(1072.6 901.28) rotate(90) scale(.08 -.08)">
<use xlink:href="#l"/>
<use x="60.818359" xlink:href="#d"/>
<use x="122.341797" xlink:href="#f"/>
<use x="163.439453" xlink:href="#k"/>
<use x="260.851562" xlink:href="#g"/>
<use x="288.634766" xlink:href="#i"/>
<use x="352.013672" xlink:href="#h"/>
<use x="413.292969" xlink:href="#j"/>
</g>
</g>
<path d="m1532 673.27 3.3132 3.8492q1.5657 1.819 3.3846 0.25333l5.8681-5.0509q1.819-1.5657 0.25333-3.3846l-3.3132-3.8492q-1.5657-1.819-3.3846-0.25333l-5.8681 5.0509q-1.819 1.5657-0.25333 3.3846z" clip-path="url(#a)" fill="#fff" stroke="#fff"/>
<g clip-path="url(#a)">
<g transform="translate(1535.1 670.62) rotate(49.28) scale(.08 -.08)">
<use xlink:href="#ae"/>
</g>
</g>
<path d="m1249.8 433.2 3.2198-4.4251q1.4121-1.9406-0.52858-3.3527l-6.2606-4.5554q-1.9406-1.4121-3.3527 0.52858l-3.2198 4.4251q-1.4121 1.9406 0.52858 3.3527l6.2606 4.5554q1.9406 1.4121 3.3527-0.52858z" clip-path="url(#a)" fill="#fff" stroke="#fff"/>
<g clip-path="url(#a)">
<g transform="translate(1246.5 430.81) rotate(-53.959) scale(.08 -.08)">
<use xlink:href="#q"/>
</g>
</g>
<path d="m1070.1 629.53 3.6028-4.1193q1.58-1.8065-0.2265-3.3865l-5.8279-5.0972q-1.8065-1.58-3.3865 0.2265l-3.6028 4.1192q-1.58 1.8065 0.2265 3.3865l5.8279 5.0972q1.8065 1.58 3.3865-0.2265z" clip-path="url(#a)" fill="#fff" stroke="#fff"/>
<g clip-path="url(#a)">
<g transform="translate(1067.1 626.85) rotate(-48.826) scale(.08 -.08)">
<use xlink:href="#q"/>
</g>
</g>
<path d="m1169.7 678.96 1.1179-4.9298q0.53077-2.3406-1.8098-2.8713l-7.5508-1.7123q-2.3406-0.53077-2.8713 1.8098l-1.1179 4.9298q-0.53077 2.3406 1.8098 2.8713l7.5508 1.7123q2.3406 0.53077 2.8713-1.8098z" clip-path="url(#a)" fill="#fff" stroke="#fff"/>
<g clip-path="url(#a)">
<g transform="translate(1165.8 678.07) rotate(-77.223) scale(.08 -.08)">
<use xlink:href="#u"/>
</g>
</g>
<path d="m1192.5 678.59 0.62356-5.5513q0.2679-2.385-2.1171-2.6529l-7.6941-0.86424q-2.385-0.2679-2.6529 2.1171l-0.62356 5.5513q-0.2679 2.385 2.1171 2.6529l7.6941 0.86424q2.385 0.2679 2.6529-2.1171z" clip-path="url(#a)" fill="#fff" stroke="#fff"/>
<g clip-path="url(#a)">
<g transform="translate(1188.5 678.13) rotate(-83.591) scale(.08 -.08)">
<use xlink:href="#t"/>
</g>
</g>
<path d="m1269.3 533.02 4.0257 3.0573q1.9113 1.4515 3.3628-0.45975l4.6827-6.1659q1.4515-1.9113-0.45975-3.3628l-4.0257-3.0573q-1.9113-1.4515-3.3628 0.45975l-4.6827 6.1659q-1.4515 1.9113 0.45975 3.3628z" clip-path="url(#a)" fill="#fff" stroke="#fff"/>
<g clip-path="url(#a)">
<g transform="translate(1271.8 529.79) rotate(37.215) scale(.08 -.08)">
<use xlink:href="#u"/>
</g>
</g>
<path d="m1113.4 901.28v35.285q0 2.4 2.4 2.4h7.7425q2.4 0 2.4-2.4v-35.285q0-2.4-2.4-2.4h-7.7425q-2.4 0-2.4 2.4z" clip-path="url(#a)" fill="#fff" stroke="#fff"/>
<g clip-path="url(#a)">
<g transform="translate(1117.5 901.28) rotate(90) scale(.08 -.08)">
<use xlink:href="#l"/>
<use x="60.818359" xlink:href="#d"/>
<use x="122.341797" xlink:href="#f"/>
<use x="163.439453" xlink:href="#k"/>
<use x="260.851562" xlink:href="#g"/>
<use x="288.634766" xlink:href="#i"/>
<use x="352.013672" xlink:href="#h"/>
<use x="413.292969" xlink:href="#j"/>
</g>
</g>
<path d="m1158.3 901.28v35.285q0 2.4 2.4 2.4h7.7425q2.4 0 2.4-2.4v-35.285q0-2.4-2.4-2.4h-7.7425q-2.4 0-2.4 2.4z" clip-path="url(#a)" fill="#fff" stroke="#fff"/>
<g clip-path="url(#a)">
<g transform="translate(1162.4 901.28) rotate(90) scale(.08 -.08)">
<use xlink:href="#l"/>
<use x="60.818359" xlink:href="#d"/>
<use x="122.341797" xlink:href="#f"/>
<use x="163.439453" xlink:href="#k"/>
<use x="260.851562" xlink:href="#g"/>
<use x="288.634766" xlink:href="#i"/>
<use x="352.013672" xlink:href="#h"/>
<use x="413.292969" xlink:href="#j"/>
</g>
</g>
<path d="m1280.1 730.72 2.2973-5.0618q0.99188-2.1854-1.1936-3.1773l-7.0503-3.1999q-2.1854-0.99188-3.1773 1.1936l-2.2973 5.0618q-0.99188 2.1854 1.1936 3.1773l7.0503 3.1999q2.1854 0.99188 3.1773-1.1936z" clip-path="url(#a)" fill="#fff" stroke="#fff"/>
<g clip-path="url(#a)">
<g transform="translate(1276.4 729.04) rotate(-65.589) scale(.08 -.08)">
<use xlink:href="#z"/>
</g>
</g>
<path d="m1303.3 729.6 1.321-4.4075q0.68904-2.299-1.6099-2.988l-7.4165-2.2229q-2.299-0.68904-2.988 1.6099l-1.321 4.4075q-0.68904 2.299 1.6099 2.988l7.4165 2.2229q2.299 0.68904 2.988-1.6099z" clip-path="url(#a)" fill="#fff" stroke="#fff"/>
<g clip-path="url(#a)">
<defs>
<path id="aw" d="m9.8125 72.906h41.891v-8.3125h-32.031v-21.484h28.906v-8.2969h-28.906v-34.812h-9.8594z"/>
</defs>
<g transform="translate(1299.4 728.44) rotate(-73.316) scale(.08 -.08)">
<use xlink:href="#aw"/>
</g>
</g>
<path d="m1326.2 729.21 0.78836-5.4154q0.34574-2.375-2.0292-2.7207l-7.6617-1.1154q-2.375-0.34574-2.7207 2.0292l-0.78836 5.4154q-0.34574 2.375 2.0292 2.7207l7.6617 1.1154q2.375 0.34574 2.7207-2.0292z" clip-path="url(#a)" fill="#fff" stroke="#fff"/>
<g clip-path="url(#a)">
<g transform="translate(1322.2 728.63) rotate(-81.717) scale(.08 -.08)">
<use xlink:href="#q"/>
</g>
</g>
<path d="m1336.5 722.57 0.052749 6.1598q0.020551 2.3999 2.4205 2.3794l7.7422-0.066299q2.3999-0.020551 2.3794-2.4205l-0.052748-6.1598q-0.020552-2.3999-2.4205-2.3794l-7.7422 0.066299q-2.3999 0.020551-2.3794 2.4205z" clip-path="url(#a)" fill="#fff" stroke="#fff"/>
<g clip-path="url(#a)">
<defs>
<path id="ax" d="m19.672 64.797v-56.688h11.922q15.094 0 22.094 6.8281 7 6.8438 7 21.594 0 14.641-7 21.453t-22.094 6.8125zm-9.8594 8.1094h20.266q21.188 0 31.094-8.8125 9.9219-8.8125 9.9219-27.562 0-18.859-9.9688-27.703-9.9531-8.8281-31.047-8.8281h-20.266z"/>
</defs>
<g transform="translate(1340.6 722.54) rotate(89.509) scale(.08 -.08)">
<use xlink:href="#ax"/>
</g>
</g>
<path d="m1358.7 724.23 0.77466 4.7611q0.38542 2.3688 2.7543 1.9834l7.642-1.2434q2.3688-0.38542 1.9834-2.7543l-0.77466-4.7611q-0.38542-2.3688-2.7543-1.9834l-7.642 1.2434q-2.3688 0.38542-1.9834 2.7543z" clip-path="url(#a)" fill="#fff" stroke="#fff"/>
<g clip-path="url(#a)">
<g transform="translate(1362.7 723.57) rotate(80.759) scale(.08 -.08)">
<use xlink:href="#af"/>
</g>
</g>
<path d="m1442.4 633.93 4.9605 2.3111q2.1755 1.0136 3.189-1.1619l3.2698-7.0182q1.0136-2.1755-1.1619-3.189l-4.9605-2.3111q-2.1755-1.0136-3.189 1.1619l-3.2698 7.0182q-1.0136 2.1755 1.1619 3.189z" clip-path="url(#a)" fill="#fff" stroke="#fff"/>
<g clip-path="url(#a)">
<g transform="translate(1444.1 630.25) rotate(24.981) scale(.08 -.08)">
<use xlink:href="#q"/>
</g>
</g>
<path d="m1203.2 901.28v35.285q0 2.4 2.4 2.4h7.7425q2.4 0 2.4-2.4v-35.285q0-2.4-2.4-2.4h-7.7425q-2.4 0-2.4 2.4z" clip-path="url(#a)" fill="#fff" stroke="#fff"/>
<g clip-path="url(#a)">
<g transform="translate(1207.3 901.28) rotate(90) scale(.08 -.08)">
<use xlink:href="#l"/>
<use x="60.818359" xlink:href="#d"/>
<use x="122.341797" xlink:href="#f"/>
<use x="163.439453" xlink:href="#k"/>
<use x="260.851562" xlink:href="#g"/>
<use x="288.634766" xlink:href="#i"/>
<use x="352.013672" xlink:href="#h"/>
<use x="413.292969" xlink:href="#j"/>
</g>
</g>
<path d="m1248.1 901.28v35.285q0 2.4 2.4 2.4h7.7425q2.4 0 2.4-2.4v-35.285q0-2.4-2.4-2.4h-7.7425q-2.4 0-2.4 2.4z" clip-path="url(#a)" fill="#fff" stroke="#fff"/>
<g clip-path="url(#a)">
<g transform="translate(1252.1 901.28) rotate(90) scale(.08 -.08)">
<use xlink:href="#l"/>
<use x="60.818359" xlink:href="#d"/>
<use x="122.341797" xlink:href="#f"/>
<use x="163.439453" xlink:href="#k"/>
<use x="260.851562" xlink:href="#g"/>
<use x="288.634766" xlink:href="#i"/>
<use x="352.013672" xlink:href="#h"/>
<use x="413.292969" xlink:href="#j"/>
</g>
</g>
<path d="m1292.9 901.28v35.285q0 2.4 2.4 2.4h7.7425q2.4 0 2.4-2.4v-35.285q0-2.4-2.4-2.4h-7.7425q-2.4 0-2.4 2.4z" clip-path="url(#a)" fill="#fff" stroke="#fff"/>
<g clip-path="url(#a)">
<g transform="translate(1297 901.28) rotate(90) scale(.08 -.08)">
<use xlink:href="#l"/>
<use x="60.818359" xlink:href="#d"/>
<use x="122.341797" xlink:href="#f"/>
<use x="163.439453" xlink:href="#k"/>
<use x="260.851562" xlink:href="#g"/>
<use x="288.634766" xlink:href="#i"/>
<use x="352.013672" xlink:href="#h"/>
<use x="413.292969" xlink:href="#j"/>
</g>
</g>
<path d="m1337.8 901.28v35.285q0 2.4 2.4 2.4h7.7425q2.4 0 2.4-2.4v-35.285q0-2.4-2.4-2.4h-7.7425q-2.4 0-2.4 2.4z" clip-path="url(#a)" fill="#fff" stroke="#fff"/>
<g clip-path="url(#a)">
<g transform="translate(1341.9 901.28) rotate(90) scale(.08 -.08)">
<use xlink:href="#l"/>
<use x="60.818359" xlink:href="#d"/>
<use x="122.341797" xlink:href="#f"/>
<use x="163.439453" xlink:href="#k"/>
<use x="260.851562" xlink:href="#g"/>
<use x="288.634766" xlink:href="#i"/>
<use x="352.013672" xlink:href="#h"/>
<use x="413.292969" xlink:href="#j"/>
</g>
</g>
<path d="m1382.7 901.28v35.285q0 2.4 2.4 2.4h7.7425q2.4 0 2.4-2.4v-35.285q0-2.4-2.4-2.4h-7.7425q-2.4 0-2.4 2.4z" clip-path="url(#a)" fill="#fff" stroke="#fff"/>
<g clip-path="url(#a)">
<g transform="translate(1386.7 901.28) rotate(90) scale(.08 -.08)">
<use xlink:href="#l"/>
<use x="60.818359" xlink:href="#d"/>
<use x="122.341797" xlink:href="#f"/>
<use x="163.439453" xlink:href="#k"/>
<use x="260.851562" xlink:href="#g"/>
<use x="288.634766" xlink:href="#i"/>
<use x="352.013672" xlink:href="#h"/>
<use x="413.292969" xlink:href="#j"/>
</g>
</g>
<path d="m1497.5 780.63 2.9358-4.7202q1.2675-2.038-0.77042-3.3055l-6.5746-4.0892q-2.038-1.2675-3.3055 0.77042l-2.9358 4.7202q-1.2675 2.038 0.77042 3.3055l6.5746 4.0892q2.038 1.2675 3.3055-0.77042z" clip-path="url(#a)" fill="#fff" stroke="#fff"/>
<g clip-path="url(#a)">
<g transform="translate(1494.1 778.49) rotate(-58.12) scale(.08 -.08)">
<use xlink:href="#z"/>
</g>
</g>
<path d="m1520.9 779.84 2.024-5.2067q0.86956-2.2369-1.3674-3.1065l-7.2164-2.8052q-2.2369-0.86956-3.1065 1.3674l-2.024 5.2067q-0.86956 2.2369 1.3674 3.1065l7.2164 2.8052q2.2369 0.86956 3.1065-1.3674z" clip-path="url(#a)" fill="#fff" stroke="#fff"/>
<g clip-path="url(#a)">
<g transform="translate(1517.1 778.36) rotate(-68.757) scale(.08 -.08)">
<use xlink:href="#t"/>
</g>
</g>
<path d="m1544.3 778.67 0.85408-5.4927q0.36875-2.3715-2.0028-2.7403l-7.6506-1.1896q-2.3715-0.36875-2.7403 2.0028l-0.85408 5.4927q-0.36875 2.3715 2.0028 2.7403l7.6506 1.1896q2.3715 0.36875 2.7403-2.0028z" clip-path="url(#a)" fill="#fff" stroke="#fff"/>
<g clip-path="url(#a)">
<g transform="translate(1540.3 778.05) rotate(-81.162) scale(.08 -.08)">
<use xlink:href="#z"/>
</g>
</g>
<path d="m1554.5 772.66 0.433 5.5694q0.18603 2.3928 2.5788 2.2068l7.7192-0.60014q2.3928-0.18603 2.2068-2.5788l-0.433-5.5694q-0.18603-2.3928-2.5788-2.2068l-7.7192 0.60014q-2.3928 0.18603-2.2068 2.5788z" clip-path="url(#a)" fill="#fff" stroke="#fff"/>
<g clip-path="url(#a)">
<g transform="translate(1558.5 772.35) rotate(85.554) scale(.08 -.08)">
<use xlink:href="#t"/>
</g>
</g>
<path d="m1576.6 774.17 1.6507 5.308q0.71269 2.2917 3.0044 1.579l7.3932-2.2992q2.2917-0.71269 1.579-3.0044l-1.6507-5.308q-0.71269-2.2917-3.0044-1.579l-7.3932 2.2992q-2.2917 0.71269-1.579 3.0044z" clip-path="url(#a)" fill="#fff" stroke="#fff"/>
<g clip-path="url(#a)">
<g transform="translate(1580.5 772.96) rotate(72.725) scale(.08 -.08)">
<use xlink:href="#z"/>
</g>
</g>
<path d="m1622.5 730.94 4.689 3.0364q2.0145 1.3045 3.319-0.70998l4.2084-6.4989q1.3045-2.0145-0.70998-3.319l-4.689-3.0364q-2.0145-1.3045-3.319 0.70998l-4.2084 6.4989q-1.3045 2.0145 0.70998 3.319z" clip-path="url(#a)" fill="#fff" stroke="#fff"/>
<g clip-path="url(#a)">
<g transform="translate(1624.7 727.53) rotate(32.926) scale(.08 -.08)">
<use xlink:href="#t"/>
</g>
</g>
<path d="m1427.6 901.28v35.285q0 2.4 2.4 2.4h7.7425q2.4 0 2.4-2.4v-35.285q0-2.4-2.4-2.4h-7.7425q-2.4 0-2.4 2.4z" clip-path="url(#a)" fill="#fff" stroke="#fff"/>
<g clip-path="url(#a)">
<g transform="translate(1431.6 901.28) rotate(90) scale(.08 -.08)">
<use xlink:href="#l"/>
<use x="60.818359" xlink:href="#d"/>
<use x="122.341797" xlink:href="#f"/>
<use x="163.439453" xlink:href="#k"/>
<use x="260.851562" xlink:href="#g"/>
<use x="288.634766" xlink:href="#i"/>
<use x="352.013672" xlink:href="#h"/>
<use x="413.292969" xlink:href="#j"/>
</g>
</g>
<path d="m1472.4 901.28v35.285q0 2.4 2.4 2.4h7.7425q2.4 0 2.4-2.4v-35.285q0-2.4-2.4-2.4h-7.7425q-2.4 0-2.4 2.4z" clip-path="url(#a)" fill="#fff" stroke="#fff"/>
<g clip-path="url(#a)">
<g transform="translate(1476.5 901.28) rotate(90) scale(.08 -.08)">
<use xlink:href="#l"/>
<use x="60.818359" xlink:href="#d"/>
<use x="122.341797" xlink:href="#f"/>
<use x="163.439453" xlink:href="#k"/>
<use x="260.851562" xlink:href="#g"/>
<use x="288.634766" xlink:href="#i"/>
<use x="352.013672" xlink:href="#h"/>
<use x="413.292969" xlink:href="#j"/>
</g>
</g>
<path d="m1517.3 901.28v35.285q0 2.4 2.4 2.4h7.7425q2.4 0 2.4-2.4v-35.285q0-2.4-2.4-2.4h-7.7425q-2.4 0-2.4 2.4z" clip-path="url(#a)" fill="#fff" stroke="#fff"/>
<g clip-path="url(#a)">
<g transform="translate(1521.4 901.28) rotate(90) scale(.08 -.08)">
<use xlink:href="#l"/>
<use x="60.818359" xlink:href="#d"/>
<use x="122.341797" xlink:href="#f"/>
<use x="163.439453" xlink:href="#k"/>
<use x="260.851562" xlink:href="#g"/>
<use x="288.634766" xlink:href="#i"/>
<use x="352.013672" xlink:href="#h"/>
<use x="413.292969" xlink:href="#j"/>
</g>
</g>
<path d="m1562.2 901.28v35.285q0 2.4 2.4 2.4h7.7425q2.4 0 2.4-2.4v-35.285q0-2.4-2.4-2.4h-7.7425q-2.4 0-2.4 2.4z" clip-path="url(#a)" fill="#fff" stroke="#fff"/>
<g clip-path="url(#a)">
<g transform="translate(1566.2 901.28) rotate(90) scale(.08 -.08)">
<use xlink:href="#l"/>
<use x="60.818359" xlink:href="#d"/>
<use x="122.341797" xlink:href="#f"/>
<use x="163.439453" xlink:href="#k"/>
<use x="260.851562" xlink:href="#g"/>
<use x="288.634766" xlink:href="#i"/>
<use x="352.013672" xlink:href="#h"/>
<use x="413.292969" xlink:href="#j"/>
</g>
</g>
<path d="m1607 901.28v35.285q0 2.4 2.4 2.4h7.7425q2.4 0 2.4-2.4v-35.285q0-2.4-2.4-2.4h-7.7425q-2.4 0-2.4 2.4z" clip-path="url(#a)" fill="#fff" stroke="#fff"/>
<g clip-path="url(#a)">
<g transform="translate(1611.1 901.28) rotate(90) scale(.08 -.08)">
<use xlink:href="#l"/>
<use x="60.818359" xlink:href="#d"/>
<use x="122.341797" xlink:href="#f"/>
<use x="163.439453" xlink:href="#k"/>
<use x="260.851562" xlink:href="#g"/>
<use x="288.634766" xlink:href="#i"/>
<use x="352.013672" xlink:href="#h"/>
<use x="413.292969" xlink:href="#j"/>
</g>
</g>
<path d="m1685.2 828.34 2.1491-4.5754q1.0204-2.1723-1.1519-3.1927l-7.0079-3.2917q-2.1723-1.0204-3.1927 1.1519l-2.1491 4.5754q-1.0204 2.1723 1.1519 3.1927l7.0079 3.2917q2.1723 1.0204 3.1927-1.1519z" clip-path="url(#a)" fill="#fff" stroke="#fff"/>
<g clip-path="url(#a)">
<g transform="translate(1681.5 826.62) rotate(-64.84) scale(.08 -.08)">
<use xlink:href="#u"/>
</g>
</g>
<path d="m1696.8 820.6v5.5862q0 2.4 2.4 2.4h7.7425q2.4 0 2.4-2.4v-5.5862q0-2.4-2.4-2.4h-7.7425q-2.4 0-2.4 2.4z" clip-path="url(#a)" fill="#fff" stroke="#fff"/>
<g clip-path="url(#a)">
<g transform="translate(1700.8 820.6) rotate(90) scale(.08 -.08)">
<use xlink:href="#t"/>
</g>
</g>
<path d="m1718.6 823.41 2.4893 5.2995q1.0204 2.1723 3.1927 1.1519l7.0079-3.2917q2.1723-1.0204 1.1519-3.1927l-2.4893-5.2995q-1.0204-2.1723-3.1927-1.1519l-7.0079 3.2917q-2.1723 1.0204-1.1519 3.1927z" clip-path="url(#a)" fill="#fff" stroke="#fff"/>
<g clip-path="url(#a)">
<g transform="translate(1722.2 821.68) rotate(64.84) scale(.08 -.08)">
<use xlink:href="#ab"/>
</g>
</g>
<path d="m1651.9 901.28v35.285q0 2.4 2.4 2.4h7.7425q2.4 0 2.4-2.4v-35.285q0-2.4-2.4-2.4h-7.7425q-2.4 0-2.4 2.4z" clip-path="url(#a)" fill="#fff" stroke="#fff"/>
<g clip-path="url(#a)">
<g transform="translate(1656 901.28) rotate(90) scale(.08 -.08)">
<use xlink:href="#l"/>
<use x="60.818359" xlink:href="#d"/>
<use x="122.341797" xlink:href="#f"/>
<use x="163.439453" xlink:href="#k"/>
<use x="260.851562" xlink:href="#g"/>
<use x="288.634766" xlink:href="#i"/>
<use x="352.013672" xlink:href="#h"/>
<use x="413.292969" xlink:href="#j"/>
</g>
</g>
<path d="m1696.8 901.28v35.285q0 2.4 2.4 2.4h7.7425q2.4 0 2.4-2.4v-35.285q0-2.4-2.4-2.4h-7.7425q-2.4 0-2.4 2.4z" clip-path="url(#a)" fill="#fff" stroke="#fff"/>
<g clip-path="url(#a)">
<g transform="translate(1700.8 901.28) rotate(90) scale(.08 -.08)">
<use xlink:href="#l"/>
<use x="60.818359" xlink:href="#d"/>
<use x="122.341797" xlink:href="#f"/>
<use x="163.439453" xlink:href="#k"/>
<use x="260.851562" xlink:href="#g"/>
<use x="288.634766" xlink:href="#i"/>
<use x="352.013672" xlink:href="#h"/>
<use x="413.292969" xlink:href="#j"/>
</g>
</g>
<path d="m844.22 901.28v35.285q0 2.4 2.4 2.4h7.7425q2.4 0 2.4-2.4v-35.285q0-2.4-2.4-2.4h-7.7425q-2.4 0-2.4 2.4z" clip-path="url(#a)" fill="#fff" stroke="#fff"/>
<g clip-path="url(#a)">
<g transform="translate(848.28 901.28) rotate(90) scale(.08 -.08)">
<use xlink:href="#l"/>
<use x="60.818359" xlink:href="#d"/>
<use x="122.341797" xlink:href="#f"/>
<use x="163.439453" xlink:href="#k"/>
<use x="260.851562" xlink:href="#g"/>
<use x="288.634766" xlink:href="#i"/>
<use x="352.013672" xlink:href="#h"/>
<use x="413.292969" xlink:href="#j"/>
</g>
</g>
<path d="m922.4 828.34 2.1491-4.5754q1.0204-2.1723-1.1519-3.1927l-7.0079-3.2917q-2.1723-1.0204-3.1927 1.1519l-2.1491 4.5754q-1.0204 2.1723 1.1519 3.1927l7.0079 3.2917q2.1723 1.0204 3.1927-1.1519z" clip-path="url(#a)" fill="#fff" stroke="#fff"/>
<g clip-path="url(#a)">
<g transform="translate(918.72 826.62) rotate(-64.84) scale(.08 -.08)">
<use xlink:href="#u"/>
</g>
</g>
<path d="m933.96 820.86v5.055q0 2.4 2.4 2.4h7.7425q2.4 0 2.4-2.4v-5.055q0-2.4-2.4-2.4h-7.7425q-2.4 0-2.4 2.4z" clip-path="url(#a)" fill="#fff" stroke="#fff"/>
<g clip-path="url(#a)">
<g transform="translate(938.02 820.86) rotate(90) scale(.08 -.08)">
<use xlink:href="#u"/>
</g>
</g>
<path d="m955.8 823.53 2.375 5.0562q1.0204 2.1723 3.1927 1.1519l7.0079-3.2917q2.1723-1.0204 1.1519-3.1927l-2.375-5.0562q-1.0204-2.1723-3.1927-1.1519l-7.0079 3.2917q-2.1723 1.0204-1.1519 3.1927z" clip-path="url(#a)" fill="#fff" stroke="#fff"/>
<g clip-path="url(#a)">
<g transform="translate(959.48 821.8) rotate(64.84) scale(.08 -.08)">
<use xlink:href="#t"/>
</g>
</g>
<path d="m889.09 901.28v35.285q0 2.4 2.4 2.4h7.7425q2.4 0 2.4-2.4v-35.285q0-2.4-2.4-2.4h-7.7425q-2.4 0-2.4 2.4z" clip-path="url(#a)" fill="#fff" stroke="#fff"/>
<g clip-path="url(#a)">
<g transform="translate(893.15 901.28) rotate(90) scale(.08 -.08)">
<use xlink:href="#l"/>
<use x="60.818359" xlink:href="#d"/>
<use x="122.341797" xlink:href="#f"/>
<use x="163.439453" xlink:href="#k"/>
<use x="260.851562" xlink:href="#g"/>
<use x="288.634766" xlink:href="#i"/>
<use x="352.013672" xlink:href="#h"/>
<use x="413.292969" xlink:href="#j"/>
</g>
</g>
<path d="m933.96 901.28v35.285q0 2.4 2.4 2.4h7.7425q2.4 0 2.4-2.4v-35.285q0-2.4-2.4-2.4h-7.7425q-2.4 0-2.4 2.4z" clip-path="url(#a)" fill="#fff" stroke="#fff"/>
<g clip-path="url(#a)">
<g transform="translate(938.02 901.28) rotate(90) scale(.08 -.08)">
<use xlink:href="#l"/>
<use x="60.818359" xlink:href="#d"/>
<use x="122.341797" xlink:href="#f"/>
<use x="163.439453" xlink:href="#k"/>
<use x="260.851562" xlink:href="#g"/>
<use x="288.634766" xlink:href="#i"/>
<use x="352.013672" xlink:href="#h"/>
<use x="413.292969" xlink:href="#j"/>
</g>
</g>
<path d="m978.83 901.28v35.285q0 2.4 2.4 2.4h7.7425q2.4 0 2.4-2.4v-35.285q0-2.4-2.4-2.4h-7.7425q-2.4 0-2.4 2.4z" clip-path="url(#a)" fill="#fff" stroke="#fff"/>
<g clip-path="url(#a)">
<g transform="translate(982.9 901.28) rotate(90) scale(.08 -.08)">
<use xlink:href="#l"/>
<use x="60.818359" xlink:href="#d"/>
<use x="122.341797" xlink:href="#f"/>
<use x="163.439453" xlink:href="#k"/>
<use x="260.851562" xlink:href="#g"/>
<use x="288.634766" xlink:href="#i"/>
<use x="352.013672" xlink:href="#h"/>
<use x="413.292969" xlink:href="#j"/>
</g>
</g>
<path d="m709.6 901.28v35.285q0 2.4 2.4 2.4h7.7425q2.4 0 2.4-2.4v-35.285q0-2.4-2.4-2.4h-7.7425q-2.4 0-2.4 2.4z" clip-path="url(#a)" fill="#fff" stroke="#fff"/>
<g clip-path="url(#a)">
<g transform="translate(713.66 901.28) rotate(90) scale(.08 -.08)">
<use xlink:href="#l"/>
<use x="60.818359" xlink:href="#d"/>
<use x="122.341797" xlink:href="#f"/>
<use x="163.439453" xlink:href="#k"/>
<use x="260.851562" xlink:href="#g"/>
<use x="288.634766" xlink:href="#i"/>
<use x="352.013672" xlink:href="#h"/>
<use x="413.292969" xlink:href="#j"/>
</g>
</g>
<path d="m754.47 901.28v35.285q0 2.4 2.4 2.4h7.7425q2.4 0 2.4-2.4v-35.285q0-2.4-2.4-2.4h-7.7425q-2.4 0-2.4 2.4z" clip-path="url(#a)" fill="#fff" stroke="#fff"/>
<g clip-path="url(#a)">
<g transform="translate(758.53 901.28) rotate(90) scale(.08 -.08)">
<use xlink:href="#l"/>
<use x="60.818359" xlink:href="#d"/>
<use x="122.341797" xlink:href="#f"/>
<use x="163.439453" xlink:href="#k"/>
<use x="260.851562" xlink:href="#g"/>
<use x="288.634766" xlink:href="#i"/>
<use x="352.013672" xlink:href="#h"/>
<use x="413.292969" xlink:href="#j"/>
</g>
</g>
<path d="m799.34 901.28v35.285q0 2.4 2.4 2.4h7.7425q2.4 0 2.4-2.4v-35.285q0-2.4-2.4-2.4h-7.7425q-2.4 0-2.4 2.4z" clip-path="url(#a)" fill="#fff" stroke="#fff"/>
<g clip-path="url(#a)">
<g transform="translate(803.41 901.28) rotate(90) scale(.08 -.08)">
<use xlink:href="#l"/>
<use x="60.818359" xlink:href="#d"/>
<use x="122.341797" xlink:href="#f"/>
<use x="163.439453" xlink:href="#k"/>
<use x="260.851562" xlink:href="#g"/>
<use x="288.634766" xlink:href="#i"/>
<use x="352.013672" xlink:href="#h"/>
<use x="413.292969" xlink:href="#j"/>
</g>
</g>
<path d="m528.83 829.07 2.9115-4.1323q1.3823-1.9619-0.5796-3.3443l-6.3293-4.4595q-1.9619-1.3823-3.3443 0.5796l-2.9115 4.1323q-1.3823 1.9619 0.5796 3.3443l6.3293 4.4595q1.9619 1.3823 3.3443-0.57959z" clip-path="url(#a)" fill="#fff" stroke="#fff"/>
<g clip-path="url(#a)">
<g transform="translate(525.51 826.73) rotate(-54.832) scale(.08 -.08)">
<use xlink:href="#u"/>
</g>
</g>
<path d="m553.13 827.28 1.1558-4.9211q0.54873-2.3364-1.7877-2.8852l-7.5374-1.7702q-2.3364-0.54873-2.8852 1.7877l-1.1558 4.9211q-0.54873 2.3364 1.7877 2.8852l7.5374 1.7702q2.3364 0.54873 2.8852-1.7877z" clip-path="url(#a)" fill="#fff" stroke="#fff"/>
<g clip-path="url(#a)">
<g transform="translate(549.17 826.36) rotate(-76.783) scale(.08 -.08)">
<use xlink:href="#u"/>
</g>
</g>
<path d="m563.35 822.36 1.1558 4.9211q0.54873 2.3364 2.8852 1.7877l7.5374-1.7702q2.3364-0.54873 1.7877-2.8852l-1.1558-4.9211q-0.54873-2.3364-2.8852-1.7877l-7.5374 1.7702q-2.3364 0.54873-1.7877 2.8852z" clip-path="url(#a)" fill="#fff" stroke="#fff"/>
<g clip-path="url(#a)">
<g transform="translate(567.31 821.43) rotate(76.783) scale(.08 -.08)">
<use xlink:href="#u"/>
</g>
</g>
<path d="m585.74 824.72 3.2175 4.5666q1.3823 1.9619 3.3443 0.5796l6.3293-4.4595q1.9619-1.3823 0.57959-3.3443l-3.2175-4.5666q-1.3823-1.9619-3.3443-0.5796l-6.3293 4.4595q-1.9619 1.3823-0.5796 3.3443z" clip-path="url(#a)" fill="#fff" stroke="#fff"/>
<g clip-path="url(#a)">
<g transform="translate(589.06 822.38) rotate(54.832) scale(.08 -.08)">
<use xlink:href="#t"/>
</g>
</g>
<path d="m485.24 901.28v35.285q0 2.4 2.4 2.4h7.7425q2.4 0 2.4-2.4v-35.285q0-2.4-2.4-2.4h-7.7425q-2.4 0-2.4 2.4z" clip-path="url(#a)" fill="#fff" stroke="#fff"/>
<g clip-path="url(#a)">
<g transform="translate(489.3 901.28) rotate(90) scale(.08 -.08)">
<use xlink:href="#l"/>
<use x="60.818359" xlink:href="#d"/>
<use x="122.341797" xlink:href="#f"/>
<use x="163.439453" xlink:href="#k"/>
<use x="260.851562" xlink:href="#g"/>
<use x="288.634766" xlink:href="#i"/>
<use x="352.013672" xlink:href="#h"/>
<use x="413.292969" xlink:href="#j"/>
</g>
</g>
<path d="m530.11 901.28v35.285q0 2.4 2.4 2.4h7.7425q2.4 0 2.4-2.4v-35.285q0-2.4-2.4-2.4h-7.7425q-2.4 0-2.4 2.4z" clip-path="url(#a)" fill="#fff" stroke="#fff"/>
<g clip-path="url(#a)">
<g transform="translate(534.17 901.28) rotate(90) scale(.08 -.08)">
<use xlink:href="#l"/>
<use x="60.818359" xlink:href="#d"/>
<use x="122.341797" xlink:href="#f"/>
<use x="163.439453" xlink:href="#k"/>
<use x="260.851562" xlink:href="#g"/>
<use x="288.634766" xlink:href="#i"/>
<use x="352.013672" xlink:href="#h"/>
<use x="413.292969" xlink:href="#j"/>
</g>
</g>
<path d="m574.98 901.28v35.285q0 2.4 2.4 2.4h7.7425q2.4 0 2.4-2.4v-35.285q0-2.4-2.4-2.4h-7.7425q-2.4 0-2.4 2.4z" clip-path="url(#a)" fill="#fff" stroke="#fff"/>
<g clip-path="url(#a)">
<g transform="translate(579.05 901.28) rotate(90) scale(.08 -.08)">
<use xlink:href="#l"/>
<use x="60.818359" xlink:href="#d"/>
<use x="122.341797" xlink:href="#f"/>
<use x="163.439453" xlink:href="#k"/>
<use x="260.851562" xlink:href="#g"/>
<use x="288.634766" xlink:href="#i"/>
<use x="352.013672" xlink:href="#h"/>
<use x="413.292969" xlink:href="#j"/>
</g>
</g>
<path d="m619.85 901.28v35.285q0 2.4 2.4 2.4h7.7425q2.4 0 2.4-2.4v-35.285q0-2.4-2.4-2.4h-7.7425q-2.4 0-2.4 2.4z" clip-path="url(#a)" fill="#fff" stroke="#fff"/>
<g clip-path="url(#a)">
<g transform="translate(623.92 901.28) rotate(90) scale(.08 -.08)">
<use xlink:href="#l"/>
<use x="60.818359" xlink:href="#d"/>
<use x="122.341797" xlink:href="#f"/>
<use x="163.439453" xlink:href="#k"/>
<use x="260.851562" xlink:href="#g"/>
<use x="288.634766" xlink:href="#i"/>
<use x="352.013672" xlink:href="#h"/>
<use x="413.292969" xlink:href="#j"/>
</g>
</g>
<path d="m81.389 901.28v35.285q0 2.4 2.4 2.4h7.7425q2.4 0 2.4-2.4v-35.285q0-2.4-2.4-2.4h-7.7425q-2.4 0-2.4 2.4z" clip-path="url(#a)" fill="#fff" stroke="#fff"/>
<g clip-path="url(#a)">
<g transform="translate(85.453 901.28) rotate(90) scale(.08 -.08)">
<use xlink:href="#l"/>
<use x="60.818359" xlink:href="#d"/>
<use x="122.341797" xlink:href="#f"/>
<use x="163.439453" xlink:href="#k"/>
<use x="260.851562" xlink:href="#g"/>
<use x="288.634766" xlink:href="#i"/>
<use x="352.013672" xlink:href="#h"/>
<use x="413.292969" xlink:href="#j"/>
</g>
</g>
<path d="m126.26 901.28v35.285q0 2.4 2.4 2.4h7.7425q2.4 0 2.4-2.4v-35.285q0-2.4-2.4-2.4h-7.7425q-2.4 0-2.4 2.4z" clip-path="url(#a)" fill="#fff" stroke="#fff"/>
<g clip-path="url(#a)">
<g transform="translate(130.33 901.28) rotate(90) scale(.08 -.08)">
<use xlink:href="#l"/>
<use x="60.818359" xlink:href="#d"/>
<use x="122.341797" xlink:href="#f"/>
<use x="163.439453" xlink:href="#k"/>
<use x="260.851562" xlink:href="#g"/>
<use x="288.634766" xlink:href="#i"/>
<use x="352.013672" xlink:href="#h"/>
<use x="413.292969" xlink:href="#j"/>
</g>
</g>
<path d="m171.13 901.28v35.285q0 2.4 2.4 2.4h7.7425q2.4 0 2.4-2.4v-35.285q0-2.4-2.4-2.4h-7.7425q-2.4 0-2.4 2.4z" clip-path="url(#a)" fill="#fff" stroke="#fff"/>
<g clip-path="url(#a)">
<g transform="translate(175.2 901.28) rotate(90) scale(.08 -.08)">
<use xlink:href="#l"/>
<use x="60.818359" xlink:href="#d"/>
<use x="122.341797" xlink:href="#f"/>
<use x="163.439453" xlink:href="#k"/>
<use x="260.851562" xlink:href="#g"/>
<use x="288.634766" xlink:href="#i"/>
<use x="352.013672" xlink:href="#h"/>
<use x="413.292969" xlink:href="#j"/>
</g>
</g>
<path d="m216.01 901.28v35.285q0 2.4 2.4 2.4h7.7425q2.4 0 2.4-2.4v-35.285q0-2.4-2.4-2.4h-7.7425q-2.4 0-2.4 2.4z" clip-path="url(#a)" fill="#fff" stroke="#fff"/>
<g clip-path="url(#a)">
<g transform="translate(220.07 901.28) rotate(90) scale(.08 -.08)">
<use xlink:href="#l"/>
<use x="60.818359" xlink:href="#d"/>
<use x="122.341797" xlink:href="#f"/>
<use x="163.439453" xlink:href="#k"/>
<use x="260.851562" xlink:href="#g"/>
<use x="288.634766" xlink:href="#i"/>
<use x="352.013672" xlink:href="#h"/>
<use x="413.292969" xlink:href="#j"/>
</g>
</g>
<path d="m440.37 901.28v35.285q0 2.4 2.4 2.4h7.7425q2.4 0 2.4-2.4v-35.285q0-2.4-2.4-2.4h-7.7425q-2.4 0-2.4 2.4z" clip-path="url(#a)" fill="#fff" stroke="#fff"/>
<g clip-path="url(#a)">
<g transform="translate(444.43 901.28) rotate(90) scale(.08 -.08)">
<use xlink:href="#l"/>
<use x="60.818359" xlink:href="#d"/>
<use x="122.341797" xlink:href="#f"/>
<use x="163.439453" xlink:href="#k"/>
<use x="260.851562" xlink:href="#g"/>
<use x="288.634766" xlink:href="#i"/>
<use x="352.013672" xlink:href="#h"/>
<use x="413.292969" xlink:href="#j"/>
</g>
</g>
<path d="m664.73 901.28v35.285q0 2.4 2.4 2.4h7.7425q2.4 0 2.4-2.4v-35.285q0-2.4-2.4-2.4h-7.7425q-2.4 0-2.4 2.4z" clip-path="url(#a)" fill="#fff" stroke="#fff"/>
<g clip-path="url(#a)">
<g transform="translate(668.79 901.28) rotate(90) scale(.08 -.08)">
<use xlink:href="#l"/>
<use x="60.818359" xlink:href="#d"/>
<use x="122.341797" xlink:href="#f"/>
<use x="163.439453" xlink:href="#k"/>
<use x="260.851562" xlink:href="#g"/>
<use x="288.634766" xlink:href="#i"/>
<use x="352.013672" xlink:href="#h"/>
<use x="413.292969" xlink:href="#j"/>
</g>
</g>
<path d="m1023.7 901.28v35.285q0 2.4 2.4 2.4h7.7425q2.4 0 2.4-2.4v-35.285q0-2.4-2.4-2.4h-7.7425q-2.4 0-2.4 2.4z" clip-path="url(#a)" fill="#fff" stroke="#fff"/>
<g clip-path="url(#a)">
<g transform="translate(1027.8 901.28) rotate(90) scale(.08 -.08)">
<use xlink:href="#l"/>
<use x="60.818359" xlink:href="#d"/>
<use x="122.341797" xlink:href="#f"/>
<use x="163.439453" xlink:href="#k"/>
<use x="260.851562" xlink:href="#g"/>
<use x="288.634766" xlink:href="#i"/>
<use x="352.013672" xlink:href="#h"/>
<use x="413.292969" xlink:href="#j"/>
</g>
</g>
<path d="m1741.7 901.28v35.285q0 2.4 2.4 2.4h7.7425q2.4 0 2.4-2.4v-35.285q0-2.4-2.4-2.4h-7.7425q-2.4 0-2.4 2.4z" clip-path="url(#a)" fill="#fff" stroke="#fff"/>
<g clip-path="url(#a)">
<g transform="translate(1745.7 901.28) rotate(90) scale(.08 -.08)">
<use xlink:href="#l"/>
<use x="60.818359" xlink:href="#d"/>
<use x="122.341797" xlink:href="#f"/>
<use x="163.439453" xlink:href="#k"/>
<use x="260.851562" xlink:href="#g"/>
<use x="288.634766" xlink:href="#i"/>
<use x="352.013672" xlink:href="#h"/>
<use x="413.292969" xlink:href="#j"/>
</g>
</g>
<defs>
<path id="b" d="m0 8.6603c2.2967 0 4.4997-0.9125 6.1237-2.5365 1.624-1.624 2.5365-3.827 2.5365-6.1237s-0.9125-4.4997-2.5365-6.1237c-1.624-1.624-3.827-2.5365-6.1237-2.5365s-4.4997 0.9125-6.1237 2.5365c-1.624 1.624-2.5365 3.827-2.5365 6.1237s0.9125 4.4997 2.5365 6.1237c1.624 1.624 3.827 2.5365 6.1237 2.5365z"/>
</defs>
<g clip-path="url(#a)">
<use x="87.660474" y="966.684901" fill="#ffffff" stroke="#ffffff" xlink:href="#b"/>
</g>
<g clip-path="url(#a)">
<use x="132.532587" y="966.684901" fill="#ffffff" stroke="#ffffff" xlink:href="#b"/>
</g>
<g clip-path="url(#a)">
<use x="177.404699" y="966.684901" fill="#ffffff" stroke="#ffffff" xlink:href="#b"/>
</g>
<g clip-path="url(#a)">
<use x="222.276812" y="966.684901" fill="#ffffff" stroke="#ffffff" xlink:href="#b"/>
</g>
<g clip-path="url(#a)">
<use x="267.148924" y="966.684901" fill="#ffffff" stroke="#ffffff" xlink:href="#b"/>
</g>
<g clip-path="url(#a)">
<use x="312.021036" y="966.684901" fill="#ffffff" stroke="#ffffff" xlink:href="#b"/>
</g>
<g clip-path="url(#a)">
<use x="356.893149" y="966.684901" fill="#ffffff" stroke="#ffffff" xlink:href="#b"/>
</g>
<g clip-path="url(#a)">
<use x="401.765261" y="966.684901" fill="#ffffff" stroke="#ffffff" xlink:href="#b"/>
</g>
<g clip-path="url(#a)">
<use x="446.637374" y="966.684901" fill="#ffffff" stroke="#ffffff" xlink:href="#b"/>
</g>
<g clip-path="url(#a)">
<use x="491.509486" y="966.684901" fill="#ffffff" stroke="#ffffff" xlink:href="#b"/>
</g>
<g clip-path="url(#a)">
<use x="536.381599" y="966.684901" fill="#ffffff" stroke="#ffffff" xlink:href="#b"/>
</g>
<g clip-path="url(#a)">
<use x="581.253711" y="966.684901" fill="#ffffff" stroke="#ffffff" xlink:href="#b"/>
</g>
<g clip-path="url(#a)">
<use x="626.125823" y="966.684901" fill="#ffffff" stroke="#ffffff" xlink:href="#b"/>
</g>
<g clip-path="url(#a)">
<use x="670.997936" y="966.684901" fill="#ffffff" stroke="#ffffff" xlink:href="#b"/>
</g>
<g clip-path="url(#a)">
<use x="715.870048" y="966.684901" fill="#ffffff" stroke="#ffffff" xlink:href="#b"/>
</g>
<g clip-path="url(#a)">
<use x="760.742161" y="966.684901" fill="#ffffff" stroke="#ffffff" xlink:href="#b"/>
</g>
<g clip-path="url(#a)">
<use x="805.614273" y="966.684901" fill="#ffffff" stroke="#ffffff" xlink:href="#b"/>
</g>
<g clip-path="url(#a)">
<use x="850.486386" y="966.684901" fill="#ffffff" stroke="#ffffff" xlink:href="#b"/>
</g>
<g clip-path="url(#a)">
<use x="895.358498" y="966.684901" fill="#ffffff" stroke="#ffffff" xlink:href="#b"/>
</g>
<g clip-path="url(#a)">
<use x="940.23061" y="966.684901" fill="#ffffff" stroke="#ffffff" xlink:href="#b"/>
</g>
<g clip-path="url(#a)">
<use x="985.102723" y="966.684901" fill="#ffffff" stroke="#ffffff" xlink:href="#b"/>
</g>
<g clip-path="url(#a)">
<use x="1029.974835" y="966.684901" fill="#ffffff" stroke="#ffffff" xlink:href="#b"/>
</g>
<g clip-path="url(#a)">
<use x="1074.846948" y="966.684901" fill="#ffffff" stroke="#ffffff" xlink:href="#b"/>
</g>
<g clip-path="url(#a)">
<use x="1119.71906" y="966.684901" fill="#ffffff" stroke="#ffffff" xlink:href="#b"/>
</g>
<g clip-path="url(#a)">
<use x="1164.591173" y="966.684901" fill="#ffffff" stroke="#ffffff" xlink:href="#b"/>
</g>
<g clip-path="url(#a)">
<use x="1209.463285" y="966.684901" fill="#ffffff" stroke="#ffffff" xlink:href="#b"/>
</g>
<g clip-path="url(#a)">
<use x="1254.335397" y="966.684901" fill="#ffffff" stroke="#ffffff" xlink:href="#b"/>
</g>
<g clip-path="url(#a)">
<use x="1299.20751" y="966.684901" fill="#ffffff" stroke="#ffffff" xlink:href="#b"/>
</g>
<g clip-path="url(#a)">
<use x="1344.079622" y="966.684901" fill="#ffffff" stroke="#ffffff" xlink:href="#b"/>
</g>
<g clip-path="url(#a)">
<use x="1388.951735" y="966.684901" fill="#ffffff" stroke="#ffffff" xlink:href="#b"/>
</g>
<g clip-path="url(#a)">
<use x="1433.823847" y="966.684901" fill="#ffffff" stroke="#ffffff" xlink:href="#b"/>
</g>
<g clip-path="url(#a)">
<use x="1478.69596" y="966.684901" fill="#ffffff" stroke="#ffffff" xlink:href="#b"/>
</g>
<g clip-path="url(#a)">
<use x="1523.568072" y="966.684901" fill="#ffffff" stroke="#ffffff" xlink:href="#b"/>
</g>
<g clip-path="url(#a)">
<use x="1568.440184" y="966.684901" fill="#ffffff" stroke="#ffffff" xlink:href="#b"/>
</g>
<g clip-path="url(#a)">
<use x="1613.312297" y="966.684901" fill="#ffffff" stroke="#ffffff" xlink:href="#b"/>
</g>
<g clip-path="url(#a)">
<use x="1658.184409" y="966.684901" fill="#ffffff" stroke="#ffffff" xlink:href="#b"/>
</g>
<g clip-path="url(#a)">
<use x="1703.056522" y="966.684901" fill="#ffffff" stroke="#ffffff" xlink:href="#b"/>
</g>
<g clip-path="url(#a)">
<use x="1747.928634" y="966.684901" fill="#ffffff" stroke="#ffffff" xlink:href="#b"/>
</g>
<g clip-path="url(#a)">
<use x="397.104508" y="46.648432" fill="#ffffff" stroke="#ffffff" xlink:href="#b"/>
</g>
<g clip-path="url(#a)">
<use x="397.104508" y="159.586721" fill="#ffffff" stroke="#ffffff" xlink:href="#b"/>
</g>
<g clip-path="url(#a)">
<use x="132.532587" y="775.625593" fill="#ffffff" stroke="#ffffff" xlink:href="#b"/>
</g>
<g clip-path="url(#a)">
<use x="289.58498" y="871.155247" fill="#ffffff" stroke="#ffffff" xlink:href="#b"/>
</g>
<g clip-path="url(#a)">
<use x="356.893149" y="871.155247" fill="#ffffff" stroke="#ffffff" xlink:href="#b"/>
</g>
<g clip-path="url(#a)">
<use x="401.765261" y="871.155247" fill="#ffffff" stroke="#ffffff" xlink:href="#b"/>
</g>
<g clip-path="url(#a)">
<use x="930.041396" y="269.123744" fill="#ffffff" stroke="#ffffff" xlink:href="#b"/>
</g>
<g clip-path="url(#a)">
<use x="480.291458" y="678.767017" fill="#ffffff" stroke="#ffffff" xlink:href="#b"/>
</g>
<g clip-path="url(#a)">
<use x="760.742161" y="775.625593" fill="#ffffff" stroke="#ffffff" xlink:href="#b"/>
</g>
<g clip-path="url(#a)">
<use x="1209.463285" y="678.767017" fill="#ffffff" stroke="#ffffff" xlink:href="#b"/>
</g>
<g clip-path="url(#a)">
<use x="1074.846948" y="871.155247" fill="#ffffff" stroke="#ffffff" xlink:href="#b"/>
</g>
<g clip-path="url(#a)">
<use x="1283.973151" y="375.52691" fill="#ffffff" stroke="#ffffff" xlink:href="#b"/>
</g>
<g clip-path="url(#a)">
<use x="1792.800747" y="966.684901" fill="#ffffff" stroke="#ffffff" xlink:href="#b"/>
</g>
<g clip-path="url(#a)">
<use x="1208.63232" y="479.070253" fill="#ffffff" stroke="#ffffff" xlink:href="#b"/>
</g>
<g clip-path="url(#a)">
<use x="1119.71906" y="871.155247" fill="#ffffff" stroke="#ffffff" xlink:href="#b"/>
</g>
<g clip-path="url(#a)">
<use x="1164.591173" y="871.155247" fill="#ffffff" stroke="#ffffff" xlink:href="#b"/>
</g>
<g clip-path="url(#a)">
<use x="1341.586727" y="580.043356" fill="#ffffff" stroke="#ffffff" xlink:href="#b"/>
</g>
<g clip-path="url(#a)">
<use x="1209.463285" y="871.155247" fill="#ffffff" stroke="#ffffff" xlink:href="#b"/>
</g>
<g clip-path="url(#a)">
<use x="1254.335397" y="871.155247" fill="#ffffff" stroke="#ffffff" xlink:href="#b"/>
</g>
<g clip-path="url(#a)">
<use x="1299.20751" y="871.155247" fill="#ffffff" stroke="#ffffff" xlink:href="#b"/>
</g>
<g clip-path="url(#a)">
<use x="1344.079622" y="871.155247" fill="#ffffff" stroke="#ffffff" xlink:href="#b"/>
</g>
<g clip-path="url(#a)">
<use x="1388.951735" y="871.155247" fill="#ffffff" stroke="#ffffff" xlink:href="#b"/>
</g>
<g clip-path="url(#a)">
<use x="1553.482814" y="678.767017" fill="#ffffff" stroke="#ffffff" xlink:href="#b"/>
</g>
<g clip-path="url(#a)">
<use x="1433.823847" y="871.155247" fill="#ffffff" stroke="#ffffff" xlink:href="#b"/>
</g>
<g clip-path="url(#a)">
<use x="1478.69596" y="871.155247" fill="#ffffff" stroke="#ffffff" xlink:href="#b"/>
</g>
<g clip-path="url(#a)">
<use x="1523.568072" y="871.155247" fill="#ffffff" stroke="#ffffff" xlink:href="#b"/>
</g>
<g clip-path="url(#a)">
<use x="1568.440184" y="871.155247" fill="#ffffff" stroke="#ffffff" xlink:href="#b"/>
</g>
<g clip-path="url(#a)">
<use x="1613.312297" y="871.155247" fill="#ffffff" stroke="#ffffff" xlink:href="#b"/>
</g>
<g clip-path="url(#a)">
<use x="1703.056522" y="775.625593" fill="#ffffff" stroke="#ffffff" xlink:href="#b"/>
</g>
<g clip-path="url(#a)">
<use x="1658.184409" y="871.155247" fill="#ffffff" stroke="#ffffff" xlink:href="#b"/>
</g>
<g clip-path="url(#a)">
<use x="1703.056522" y="871.155247" fill="#ffffff" stroke="#ffffff" xlink:href="#b"/>
</g>
<g clip-path="url(#a)">
<use x="1837.672859" y="966.684901" fill="#ffffff" stroke="#ffffff" xlink:href="#b"/>
</g>
<g clip-path="url(#a)">
<use x="850.486386" y="871.155247" fill="#ffffff" stroke="#ffffff" xlink:href="#b"/>
</g>
<g clip-path="url(#a)">
<use x="940.23061" y="775.625593" fill="#ffffff" stroke="#ffffff" xlink:href="#b"/>
</g>
<g clip-path="url(#a)">
<use x="895.358498" y="871.155247" fill="#ffffff" stroke="#ffffff" xlink:href="#b"/>
</g>
<g clip-path="url(#a)">
<use x="940.23061" y="871.155247" fill="#ffffff" stroke="#ffffff" xlink:href="#b"/>
</g>
<g clip-path="url(#a)">
<use x="985.102723" y="871.155247" fill="#ffffff" stroke="#ffffff" xlink:href="#b"/>
</g>
<g clip-path="url(#a)">
<use x="715.870048" y="871.155247" fill="#ffffff" stroke="#ffffff" xlink:href="#b"/>
</g>
<g clip-path="url(#a)">
<use x="760.742161" y="871.155247" fill="#ffffff" stroke="#ffffff" xlink:href="#b"/>
</g>
<g clip-path="url(#a)">
<use x="805.614273" y="871.155247" fill="#ffffff" stroke="#ffffff" xlink:href="#b"/>
</g>
<g clip-path="url(#a)">
<use x="558.817655" y="775.625593" fill="#ffffff" stroke="#ffffff" xlink:href="#b"/>
</g>
<g clip-path="url(#a)">
<use x="491.509486" y="871.155247" fill="#ffffff" stroke="#ffffff" xlink:href="#b"/>
</g>
<g clip-path="url(#a)">
<use x="536.381599" y="871.155247" fill="#ffffff" stroke="#ffffff" xlink:href="#b"/>
</g>
<g clip-path="url(#a)">
<use x="581.253711" y="871.155247" fill="#ffffff" stroke="#ffffff" xlink:href="#b"/>
</g>
<g clip-path="url(#a)">
<use x="626.125823" y="871.155247" fill="#ffffff" stroke="#ffffff" xlink:href="#b"/>
</g>
<g clip-path="url(#a)">
<use x="87.660474" y="871.155247" fill="#ffffff" stroke="#ffffff" xlink:href="#b"/>
</g>
<g clip-path="url(#a)">
<use x="132.532587" y="871.155247" fill="#ffffff" stroke="#ffffff" xlink:href="#b"/>
</g>
<g clip-path="url(#a)">
<use x="177.404699" y="871.155247" fill="#ffffff" stroke="#ffffff" xlink:href="#b"/>
</g>
<g clip-path="url(#a)">
<use x="222.276812" y="871.155247" fill="#ffffff" stroke="#ffffff" xlink:href="#b"/>
</g>
<g clip-path="url(#a)">
<use x="446.637374" y="871.155247" fill="#ffffff" stroke="#ffffff" xlink:href="#b"/>
</g>
<g clip-path="url(#a)">
<use x="670.997936" y="871.155247" fill="#ffffff" stroke="#ffffff" xlink:href="#b"/>
</g>
<g clip-path="url(#a)">
<use x="1029.974835" y="871.155247" fill="#ffffff" stroke="#ffffff" xlink:href="#b"/>
</g>
<g clip-path="url(#a)">
<use x="1747.928634" y="871.155247" fill="#ffffff" stroke="#ffffff" xlink:href="#b"/>
</g>
<g clip-path="url(#a)">
<defs>
<path id="x" d="m9.8125 72.906h9.8594v-72.906h-9.8594z"/>
</defs>
<g transform="translate(83.017 969.44) scale(.1 -.1)">
<use xlink:href="#x"/>
<use x="29.492188" xlink:href="#i"/>
</g>
</g>
<g clip-path="url(#a)">
<defs>
<path id="v" d="m54.891 33.016v-33.016h-8.9844v32.719q0 7.7656-3.0312 11.609-3.0312 3.8594-9.0781 3.8594-7.2812 0-11.484-4.6406-4.2031-4.625-4.2031-12.641v-30.906h-9.0312v75.984h9.0312v-29.797q3.2344 4.9375 7.5938 7.375 4.375 2.4375 10.094 2.4375 9.4219 0 14.25-5.8281 4.8438-5.8281 4.8438-17.156z"/>
<path id="s" d="m44.281 53.078v-8.5q-3.7969 1.9531-7.9062 2.9219-4.0938 0.98438-8.5 0.98438-6.6875 0-10.031-2.0469t-3.3438-6.1562q0-3.125 2.3906-4.9062t9.625-3.3906l3.0781-0.6875q9.5625-2.0469 13.594-5.7812t4.0312-10.422q0-7.625-6.0312-12.078-6.0312-4.4375-16.578-4.4375-4.3906 0-9.1562 0.85938t-10.031 2.5625v9.2812q4.9844-2.5938 9.8125-3.8906 4.8281-1.2812 9.5781-1.2812 6.3438 0 9.75 2.1719 3.4219 2.1719 3.4219 6.125 0 3.6562-2.4688 5.6094-2.4531 1.9531-10.812 3.7656l-3.125 0.73438q-8.3438 1.75-12.062 5.3906-3.7031 3.6406-3.7031 9.9844 0 7.7188 5.4688 11.906 5.4688 4.2031 15.531 4.2031 4.9688 0 9.3594-0.73438 4.4062-0.71875 8.1094-2.1875z"/>
</defs>
<g transform="translate(125.37 969.44) scale(.1 -.1)">
<use xlink:href="#v"/>
<use x="63.378906" xlink:href="#g"/>
<use x="91.162109" xlink:href="#s"/>
</g>
</g>
<g clip-path="url(#a)">
<defs>
<path id="at" d="m2.9844 54.688h9.5156l17.094-45.891 17.094 45.891h9.5156l-20.516-54.688h-12.203z"/>
<path id="an" d="m4.2031 54.688h8.9844l11.234-42.672 11.172 42.672h10.594l11.234-42.672 11.188 42.672h8.9844l-14.312-54.688h-10.594l-11.766 44.828-11.812-44.828h-10.609z"/>
</defs>
<g transform="translate(160.76 969.44) scale(.1 -.1)">
<use xlink:href="#f"/>
<use x="41.082031" xlink:href="#d"/>
<use x="102.605469" xlink:href="#at"/>
<use x="161.785156" xlink:href="#g"/>
<use x="189.568359" xlink:href="#d"/>
<use x="251.091797" xlink:href="#an"/>
</g>
</g>
<g clip-path="url(#a)">
<defs>
<path id="am" d="m11.719 12.406h10.297v-8.4062l-8-15.625h-6.2969l4 15.625z"/>
</defs>
<g transform="translate(220.69 969.44) scale(.1 -.1)">
<use xlink:href="#am"/>
</g>
</g>
<g clip-path="url(#a)">
<defs>
<path id="e" d="m10.688 12.406h10.312v-12.406h-10.312z"/>
<path id="av" d="m39.406 66.219q-10.75 0-17.078-8.0156-6.3125-8-6.3125-21.828 0-13.766 6.3125-21.781 6.3281-8 17.078-8 10.734 0 17.016 8 6.2812 8.0156 6.2812 21.781 0 13.828-6.2812 21.828-6.2812 8.0156-17.016 8.0156zm0 8q15.328 0 24.5-10.281 9.1875-10.281 9.1875-27.562 0-17.234-9.1875-27.516-9.1719-10.281-24.5-10.281-15.375 0-24.594 10.25-9.2031 10.266-9.2031 27.547t9.2031 27.562q9.2188 10.281 24.594 10.281z"/>
</defs>
<g transform="translate(256.62 969.44) scale(.1 -.1)">
<use xlink:href="#q"/>
<use x="68.392578" xlink:href="#e"/>
<use x="100.179688" xlink:href="#av"/>
<use x="178.828125" xlink:href="#e"/>
</g>
</g>
<g clip-path="url(#a)">
<defs>
<path id="w" d="m48.781 52.594v-8.4062q-3.8125 2.1094-7.6406 3.1562t-7.7344 1.0469q-8.75 0-13.594-5.5469-4.8281-5.5312-4.8281-15.547t4.8281-15.562q4.8438-5.5312 13.594-5.5312 3.9062 0 7.7344 1.0469t7.6406 3.1562v-8.3125q-3.7656-1.75-7.7969-2.625-4.0156-0.89062-8.5625-0.89062-12.359 0-19.641 7.7656-7.2656 7.7656-7.2656 20.953 0 13.375 7.3438 21.031 7.3594 7.6719 20.156 7.6719 4.1406 0 8.0938-0.85938 3.9531-0.84375 7.6719-2.5469z"/>
<path id="y" d="m30.609 48.391q-7.2188 0-11.422-5.6406t-4.2031-15.453 4.1719-15.453q4.1875-5.6406 11.453-5.6406 7.1875 0 11.375 5.6562 4.2031 5.6719 4.2031 15.438 0 9.7188-4.2031 15.406-4.1875 5.6875-11.375 5.6875zm0 7.6094q11.719 0 18.406-7.625 6.7031-7.6094 6.7031-21.078 0-13.422-6.7031-21.078-6.6875-7.6406-18.406-7.6406-11.766 0-18.438 7.6406-6.6562 7.6562-6.6562 21.078 0 13.469 6.6562 21.078 6.6719 7.625 18.438 7.625z"/>
<path id="r" d="m18.312 70.219v-15.531h18.5v-6.9844h-18.5v-29.688q0-6.6875 1.8281-8.5938t7.4531-1.9062h9.2188v-7.5156h-9.2188q-10.406 0-14.359 3.875-3.9531 3.8906-3.9531 14.141v29.688h-6.5938v6.9844h6.5938v15.531z"/>
</defs>
<g transform="translate(299.12 969.44) scale(.1 -.1)">
<use xlink:href="#ae"/>
<use x="63.476562" xlink:href="#w"/>
<use x="118.457031" xlink:href="#y"/>
<use x="179.638672" xlink:href="#r"/>
<use x="218.847656" xlink:href="#r"/>
</g>
</g>
<g clip-path="url(#a)">
<defs>
<path id="au" d="m45.406 46.391v29.594h8.9844v-75.984h-8.9844v8.2031q-2.8281-4.875-7.1562-7.25-4.3125-2.375-10.375-2.375-9.9062 0-16.141 7.9062-6.2188 7.9219-6.2188 20.812t6.2188 20.797q6.2344 7.9062 16.141 7.9062 6.0625 0 10.375-2.375 4.3281-2.3594 7.1562-7.2344zm-30.609-19.094q0-9.9062 4.0781-15.547t11.203-5.6406 11.219 5.6406q4.1094 5.6406 4.1094 15.547t-4.1094 15.547q-4.0938 5.6406-11.219 5.6406t-11.203-5.6406-4.0781-15.547z"/>
</defs>
<g transform="translate(342.05 969.44) scale(.1 -.1)">
<use xlink:href="#w"/>
<use x="54.980469" xlink:href="#h"/>
<use x="116.259766" xlink:href="#j"/>
<use x="144.042969" xlink:href="#j"/>
<use x="171.826172" xlink:href="#d"/>
<use x="233.349609" xlink:href="#au"/>
</g>
</g>
<g clip-path="url(#a)">
<g transform="translate(393.46 969.44) scale(.1 -.1)">
<use xlink:href="#v"/>
<use x="63.378906" xlink:href="#d"/>
<use x="124.902344" xlink:href="#f"/>
</g>
</g>
<g clip-path="url(#a)">
<defs>
<path id="ay" d="m17.922 72.906v-27.109h-8.2969v27.109zm18.453 0v-27.109h-8.2969v27.109z"/>
</defs>
<g transform="translate(444.34 969.44) scale(.1 -.1)">
<use xlink:href="#ay"/>
</g>
</g>
<g clip-path="url(#a)">
<g transform="translate(488.45 969.44) scale(.1 -.1)">
<use xlink:href="#h"/>
</g>
</g>
<g clip-path="url(#a)">
<defs>
<path id="al" d="m37.109 75.984v-7.4844h-8.5938q-4.8281 0-6.7188-1.9531-1.875-1.9531-1.875-7.0312v-4.8281h14.797v-6.9844h-14.797v-47.703h-9.0312v47.703h-8.5938v6.9844h8.5938v3.8125q0 9.125 4.25 13.297 4.25 4.1875 13.469 4.1875z"/>
</defs>
<g transform="translate(519.95 969.44) scale(.1 -.1)">
<use xlink:href="#r"/>
<use x="39.208984" xlink:href="#d"/>
<use x="100.732422" xlink:href="#f"/>
<use x="141.830078" xlink:href="#f"/>
<use x="182.943359" xlink:href="#g"/>
<use x="210.726562" xlink:href="#al"/>
<use x="245.931641" xlink:href="#g"/>
<use x="273.714844" xlink:href="#w"/>
</g>
</g>
<g clip-path="url(#a)">
<g transform="translate(566.44 969.44) scale(.1 -.1)">
<use xlink:href="#w"/>
<use x="54.980469" xlink:href="#y"/>
<use x="116.162109" xlink:href="#k"/>
<use x="213.574219" xlink:href="#g"/>
<use x="241.357422" xlink:href="#w"/>
</g>
</g>
<g clip-path="url(#a)">
<g transform="translate(608.01 969.44) scale(.1 -.1)">
<use xlink:href="#h"/>
<use x="61.279297" xlink:href="#w"/>
<use x="116.259766" xlink:href="#r"/>
<use x="155.46875" xlink:href="#f"/>
<use x="196.550781" xlink:href="#d"/>
<use x="258.074219" xlink:href="#s"/>
<use x="310.173828" xlink:href="#s"/>
</g>
</g>
<g clip-path="url(#a)">
<g transform="translate(669.41 969.44) scale(.1 -.1)">
<use xlink:href="#am"/>
</g>
</g>
<g clip-path="url(#a)">
<defs>
<path id="aa" d="m45.406 27.984q0 9.7656-4.0312 15.125-4.0156 5.375-11.297 5.375-7.2188 0-11.25-5.375-4.0312-5.3594-4.0312-15.125 0-9.7188 4.0312-15.094t11.25-5.375q7.2812 0 11.297 5.375 4.0312 5.375 4.0312 15.094zm8.9844-21.203q0-13.953-6.2031-20.766-6.1875-6.8125-18.984-6.8125-4.7344 0-8.9375 0.70312t-8.1562 2.1719v8.7344q3.9531-2.1406 7.8125-3.1562 3.8594-1.0312 7.8594-1.0312 8.8438 0 13.234 4.6094t4.3906 13.938v4.4531q-2.7812-4.8438-7.125-7.2344t-10.406-2.3906q-10.047 0-16.203 7.6562-6.1562 7.6719-6.1562 20.328 0 12.688 6.1562 20.344 6.1562 7.6719 16.203 7.6719 6.0625 0 10.406-2.3906t7.125-7.2188v8.2969h8.9844z"/>
<path id="ar" d="m32.172-5.0781q-3.7969-9.7656-7.4219-12.734-3.6094-2.9844-9.6562-2.9844h-7.1875v7.5156h5.2812q3.7031 0 5.75 1.7656 2.0625 1.75 4.5469 8.2969l1.6094 4.0938-22.109 53.812h9.5156l17.094-42.766 17.094 42.766h9.5156z"/>
</defs>
<g transform="translate(698.76 969.44) scale(.1 -.1)">
<use xlink:href="#j"/>
<use x="27.783203" xlink:href="#h"/>
<use x="89.0625" xlink:href="#f"/>
<use x="130.160156" xlink:href="#aa"/>
<use x="193.636719" xlink:href="#d"/>
<use x="255.160156" xlink:href="#j"/>
<use x="282.943359" xlink:href="#ar"/>
</g>
</g>
<g clip-path="url(#a)">
<defs>
<path id="ap" d="m48.688 27.297q0 9.9062-4.0781 15.547t-11.203 5.6406q-7.1406 0-11.219-5.6406t-4.0781-15.547 4.0781-15.547 11.219-5.6406q7.125 0 11.203 5.6406t4.0781 15.547zm-30.578 19.094q2.8438 4.875 7.1562 7.2344 4.3281 2.375 10.328 2.375 9.9688 0 16.188-7.9062 6.2344-7.9062 6.2344-20.797t-6.2344-20.812q-6.2188-7.9062-16.188-7.9062-6 0-10.328 2.375-4.3125 2.375-7.1562 7.25v-8.2031h-9.0312v75.984h9.0312z"/>
<path id="ao" d="m8.5 21.578v33.109h8.9844v-32.766q0-7.7656 3.0156-11.656 3.0312-3.875 9.0938-3.875 7.2656 0 11.484 4.6406 4.2344 4.6406 4.2344 12.656v31h8.9844v-54.688h-8.9844v8.4062q-3.2656-4.9844-7.5938-7.4062-4.3125-2.4219-10.031-2.4219-9.4219 0-14.312 5.8594-4.875 5.8594-4.875 17.141z"/>
</defs>
<g transform="translate(739.83 969.44) scale(.1 -.1)">
<use xlink:href="#ap"/>
<use x="63.476562" xlink:href="#d"/>
<use x="125" xlink:href="#w"/>
<use x="179.980469" xlink:href="#h"/>
<use x="241.259766" xlink:href="#ao"/>
<use x="304.638672" xlink:href="#s"/>
<use x="356.738281" xlink:href="#d"/>
</g>
</g>
<g clip-path="url(#a)">
<g transform="translate(800.79 969.44) scale(.1 -.1)">
<use xlink:href="#y"/>
<use x="61.181641" xlink:href="#al"/>
</g>
</g>
<g clip-path="url(#a)">
<g transform="translate(842.19 969.44) scale(.1 -.1)">
<use xlink:href="#v"/>
<use x="63.378906" xlink:href="#d"/>
<use x="124.902344" xlink:href="#f"/>
</g>
</g>
<g clip-path="url(#a)">
<g transform="translate(882.03 969.44) scale(.1 -.1)">
<use xlink:href="#aa"/>
<use x="63.476562" xlink:href="#f"/>
<use x="104.558594" xlink:href="#d"/>
<use x="166.082031" xlink:href="#h"/>
<use x="227.361328" xlink:href="#r"/>
</g>
</g>
<g clip-path="url(#a)">
<defs>
<path id="as" d="m54.891 54.688-19.781-26.609 20.797-28.078h-10.594l-15.922 21.484-15.906-21.484h-10.609l21.25 28.609-19.438 26.078h10.594l14.5-19.484 14.5 19.484z"/>
<path id="az" d="m18.109 8.2031v-29h-9.0312v75.484h9.0312v-8.2969q2.8438 4.875 7.1562 7.2344 4.3281 2.375 10.328 2.375 9.9688 0 16.188-7.9062 6.2344-7.9062 6.2344-20.797t-6.2344-20.812q-6.2188-7.9062-16.188-7.9062-6 0-10.328 2.375-4.3125 2.375-7.1562 7.25zm30.578 19.094q0 9.9062-4.0781 15.547t-11.203 5.6406q-7.1406 0-11.219-5.6406t-4.0781-15.547 4.0781-15.547 11.219-5.6406q7.125 0 11.203 5.6406t4.0781 15.547z"/>
</defs>
<g transform="translate(913.26 969.44) scale(.1 -.1)">
<use xlink:href="#d"/>
<use x="61.507812" xlink:href="#as"/>
<use x="120.6875" xlink:href="#az"/>
<use x="184.164062" xlink:href="#f"/>
<use x="225.246094" xlink:href="#d"/>
<use x="286.769531" xlink:href="#s"/>
<use x="338.869141" xlink:href="#s"/>
<use x="390.96875" xlink:href="#g"/>
<use x="418.751953" xlink:href="#at"/>
<use x="477.931641" xlink:href="#d"/>
</g>
</g>
<g clip-path="url(#a)">
<g transform="translate(970.56 969.44) scale(.1 -.1)">
<use xlink:href="#f"/>
<use x="41.113281" xlink:href="#h"/>
<use x="102.392578" xlink:href="#i"/>
<use x="165.771484" xlink:href="#aa"/>
<use x="229.248047" xlink:href="#d"/>
</g>
</g>
<g clip-path="url(#a)">
<g transform="translate(1028.4 969.44) scale(.1 -.1)">
<use xlink:href="#am"/>
</g>
</g>
<g clip-path="url(#a)">
<g transform="translate(1065.4 969.44) scale(.1 -.1)">
<use xlink:href="#h"/>
<use x="61.279297" xlink:href="#i"/>
<use x="124.658203" xlink:href="#au"/>
</g>
</g>
<g clip-path="url(#a)">
<g transform="translate(1111.5 969.44) scale(.1 -.1)">
<use xlink:href="#r"/>
<use x="39.208984" xlink:href="#v"/>
<use x="102.587891" xlink:href="#d"/>
</g>
</g>
<g clip-path="url(#a)">
<g transform="translate(1136.1 969.44) scale(.1 -.1)">
<use xlink:href="#i"/>
<use x="63.378906" xlink:href="#g"/>
<use x="91.162109" xlink:href="#k"/>
<use x="188.574219" xlink:href="#ap"/>
<use x="252.050781" xlink:href="#j"/>
<use x="279.833984" xlink:href="#d"/>
<use x="341.357422" xlink:href="#i"/>
<use x="404.736328" xlink:href="#d"/>
<use x="466.259766" xlink:href="#s"/>
<use x="518.359375" xlink:href="#s"/>
</g>
</g>
<g clip-path="url(#a)">
<g transform="translate(1198.9 969.44) scale(.1 -.1)">
<use xlink:href="#an"/>
<use x="81.787109" xlink:href="#g"/>
<use x="109.570312" xlink:href="#r"/>
<use x="148.779297" xlink:href="#v"/>
</g>
</g>
<g clip-path="url(#a)">
<g transform="translate(1239.8 969.44) scale(.1 -.1)">
<use xlink:href="#an"/>
<use x="81.787109" xlink:href="#v"/>
<use x="145.166016" xlink:href="#g"/>
<use x="172.949219" xlink:href="#w"/>
<use x="227.929688" xlink:href="#v"/>
</g>
</g>
<g clip-path="url(#a)">
<g transform="translate(1290.4 969.44) scale(.1 -.1)">
<use xlink:href="#s"/>
<use x="52.099609" xlink:href="#v"/>
<use x="115.478516" xlink:href="#d"/>
</g>
</g>
<g clip-path="url(#a)">
<g transform="translate(1335.1 969.44) scale(.1 -.1)">
<use xlink:href="#w"/>
<use x="54.980469" xlink:href="#h"/>
<use x="116.259766" xlink:href="#i"/>
</g>
</g>
<g clip-path="url(#a)">
<g transform="translate(1378.1 969.44) scale(.1 -.1)">
<use xlink:href="#s"/>
<use x="52.099609" xlink:href="#v"/>
<use x="115.478516" xlink:href="#g"/>
<use x="143.261719" xlink:href="#al"/>
<use x="178.451172" xlink:href="#r"/>
</g>
</g>
<g clip-path="url(#a)">
<g transform="translate(1422.1 969.44) scale(.1 -.1)">
<use xlink:href="#al"/>
<use x="35.205078" xlink:href="#f"/>
<use x="76.287109" xlink:href="#y"/>
<use x="137.46875" xlink:href="#k"/>
</g>
</g>
<g clip-path="url(#a)">
<g transform="translate(1460.1 969.44) scale(.1 -.1)">
<use xlink:href="#h"/>
<use x="61.279297" xlink:href="#i"/>
<use x="124.658203" xlink:href="#as"/>
<use x="183.837891" xlink:href="#g"/>
<use x="211.621094" xlink:href="#d"/>
<use x="273.144531" xlink:href="#r"/>
<use x="312.353516" xlink:href="#ar"/>
</g>
</g>
<g clip-path="url(#a)">
<g transform="translate(1518.5 969.44) scale(.1 -.1)">
<use xlink:href="#r"/>
<use x="39.208984" xlink:href="#y"/>
</g>
</g>
<g clip-path="url(#a)">
<g transform="translate(1541.1 969.44) scale(.1 -.1)">
<use xlink:href="#h"/>
<use x="61.279297" xlink:href="#aa"/>
<use x="124.755859" xlink:href="#aa"/>
<use x="188.232422" xlink:href="#f"/>
<use x="229.314453" xlink:href="#d"/>
<use x="290.837891" xlink:href="#s"/>
<use x="342.9375" xlink:href="#s"/>
<use x="395.037109" xlink:href="#g"/>
<use x="422.820312" xlink:href="#y"/>
<use x="484.001953" xlink:href="#i"/>
</g>
</g>
<g clip-path="url(#a)">
<g transform="translate(1608.3 969.44) scale(.1 -.1)">
<use xlink:href="#r"/>
<use x="39.208984" xlink:href="#y"/>
</g>
</g>
<g clip-path="url(#a)">
<g transform="translate(1638 969.44) scale(.1 -.1)">
<use xlink:href="#aa"/>
<use x="63.476562" xlink:href="#d"/>
<use x="125" xlink:href="#i"/>
<use x="188.378906" xlink:href="#ao"/>
<use x="251.757812" xlink:href="#g"/>
<use x="279.541016" xlink:href="#i"/>
<use x="342.919922" xlink:href="#d"/>
</g>
</g>
<g clip-path="url(#a)">
<g transform="translate(1692.7 969.44) scale(.1 -.1)">
<use xlink:href="#v"/>
<use x="63.378906" xlink:href="#ao"/>
<use x="126.757812" xlink:href="#f"/>
<use x="167.871094" xlink:href="#r"/>
</g>
</g>
<g clip-path="url(#a)">
<g transform="translate(1746.3 969.44) scale(.1 -.1)">
<use xlink:href="#e"/>
</g>
</g>
<g clip-path="url(#a)">
<defs>
<path id="c" d="m12.406 8.2969h16.109v55.625l-17.531-3.5156v8.9844l17.438 3.5156h9.8594v-64.609h16.109v-8.2969h-41.984z"/>
</defs>
<g transform="translate(389.15 49.408) scale(.1 -.1)">
<use xlink:href="#c"/>
<use x="63.623047" xlink:href="#e"/>
<use x="95.410156" xlink:href="#c"/>
</g>
</g>
<g clip-path="url(#a)">
<defs>
<path id="n" d="m19.188 8.2969h34.422v-8.2969h-46.281v8.2969q5.6094 5.8125 15.297 15.594 9.7031 9.7969 12.188 12.641 4.7344 5.3125 6.6094 9 1.8906 3.6875 1.8906 7.25 0 5.8125-4.0781 9.4688-4.0781 3.6719-10.625 3.6719-4.6406 0-9.7969-1.6094-5.1406-1.6094-11-4.8906v9.9688q5.9531 2.3906 11.125 3.6094 5.1875 1.2188 9.4844 1.2188 11.328 0 18.062-5.6719 6.7344-5.6562 6.7344-15.125 0-4.5-1.6875-8.5312-1.6719-4.0156-6.125-9.4844-1.2188-1.4219-7.7656-8.1875-6.5312-6.7656-18.453-18.922z"/>
</defs>
<g transform="translate(389.15 162.35) scale(.1 -.1)">
<use xlink:href="#c"/>
<use x="63.623047" xlink:href="#e"/>
<use x="95.410156" xlink:href="#n"/>
</g>
</g>
<g clip-path="url(#a)">
<defs>
<path id="m" d="m37.797 64.312-24.906-38.922h24.906zm-2.5938 8.5938h12.406v-47.516h10.406v-8.2031h-10.406v-17.188h-9.8125v17.188h-32.906v9.5156z"/>
</defs>
<g transform="translate(124.58 778.38) scale(.1 -.1)">
<use xlink:href="#c"/>
<use x="63.623047" xlink:href="#e"/>
<use x="95.410156" xlink:href="#m"/>
</g>
</g>
<g clip-path="url(#a)">
<defs>
<path id="o" d="m10.797 72.906h38.719v-8.3125h-29.688v-17.859q2.1406 0.73438 4.2812 1.0938 2.1562 0.35938 4.3125 0.35938 12.203 0 19.328-6.6875 7.1406-6.6875 7.1406-18.109 0-11.766-7.3281-18.297-7.3281-6.5156-20.656-6.5156-4.5938 0-9.3594 0.78125-4.75 0.78125-9.8281 2.3438v9.9219q4.3906-2.3906 9.0781-3.5625t9.9062-1.1719q8.4531 0 13.375 4.4375 4.9375 4.4375 4.9375 12.062 0 7.6094-4.9375 12.047-4.9219 4.4531-13.375 4.4531-3.9531 0-7.8906-0.875-3.9219-0.875-8.0156-2.7344z"/>
</defs>
<g transform="translate(281.63 873.91) scale(.1 -.1)">
<use xlink:href="#c"/>
<use x="63.623047" xlink:href="#e"/>
<use x="95.410156" xlink:href="#o"/>
</g>
</g>
<g clip-path="url(#a)">
<defs>
<path id="ad" d="m33.016 40.375q-6.6406 0-10.531-4.5469-3.875-4.5312-3.875-12.438 0-7.8594 3.875-12.438 3.8906-4.5625 10.531-4.5625t10.516 4.5625q3.875 4.5781 3.875 12.438 0 7.9062-3.875 12.438-3.875 4.5469-10.516 4.5469zm19.578 30.922v-8.9844q-3.7188 1.75-7.5 2.6719-3.7812 0.9375-7.5 0.9375-9.7656 0-14.922-6.5938-5.1406-6.5938-5.875-19.922 2.875 4.25 7.2188 6.5156 4.3594 2.2656 9.5781 2.2656 10.984 0 17.359-6.6719 6.375-6.6562 6.375-18.125 0-11.234-6.6406-18.031-6.6406-6.7812-17.672-6.7812-12.656 0-19.344 9.6875-6.6875 9.7031-6.6875 28.109 0 17.281 8.2031 27.562t22.016 10.281q3.7188 0 7.5-0.73438t7.8906-2.1875z"/>
</defs>
<g transform="translate(348.94 873.91) scale(.1 -.1)">
<use xlink:href="#c"/>
<use x="63.623047" xlink:href="#e"/>
<use x="95.410156" xlink:href="#ad"/>
</g>
</g>
<g clip-path="url(#a)">
<defs>
<path id="aj" d="m8.2031 72.906h46.875v-4.2031l-26.469-68.703h-10.297l24.906 64.594h-35.016z"/>
</defs>
<g transform="translate(393.81 873.91) scale(.1 -.1)">
<use xlink:href="#c"/>
<use x="63.623047" xlink:href="#e"/>
<use x="95.410156" xlink:href="#aj"/>
</g>
</g>
<g clip-path="url(#a)">
<defs>
<path id="ac" d="m31.781 34.625q-7.0312 0-11.062-3.7656-4.0156-3.7656-4.0156-10.344 0-6.5938 4.0156-10.359 4.0312-3.7656 11.062-3.7656t11.078 3.7812q4.0625 3.7969 4.0625 10.344 0 6.5781-4.0312 10.344-4.0156 3.7656-11.109 3.7656zm-9.8594 4.1875q-6.3438 1.5625-9.8906 5.9062-3.5312 4.3594-3.5312 10.609 0 8.7344 6.2188 13.812 6.2344 5.0781 17.062 5.0781 10.891 0 17.094-5.0781t6.2031-13.812q0-6.25-3.5469-10.609-3.5312-4.3438-9.8281-5.9062 7.125-1.6562 11.094-6.5 3.9844-4.8281 3.9844-11.797 0-10.609-6.4688-16.281-6.4688-5.6562-18.531-5.6562-12.047 0-18.531 5.6562-6.4688 5.6719-6.4688 16.281 0 6.9688 4 11.797 4.0156 4.8438 11.141 6.5zm-3.6094 15.578q0-5.6562 3.5312-8.8281 3.5469-3.1719 9.9375-3.1719 6.3594 0 9.9375 3.1719 3.5938 3.1719 3.5938 8.8281 0 5.6719-3.5938 8.8438-3.5781 3.1719-9.9375 3.1719-6.3906 0-9.9375-3.1719-3.5312-3.1719-3.5312-8.8438z"/>
</defs>
<g transform="translate(922.09 271.88) scale(.1 -.1)">
<use xlink:href="#c"/>
<use x="63.623047" xlink:href="#e"/>
<use x="95.410156" xlink:href="#ac"/>
</g>
</g>
<g clip-path="url(#a)">
<g transform="translate(469.16 681.53) scale(.1 -.1)">
<use xlink:href="#c"/>
<use x="63.623047" xlink:href="#e"/>
<use x="95.410156" xlink:href="#c"/>
<use x="159.033203" xlink:href="#c"/>
</g>
</g>
<g clip-path="url(#a)">
<g transform="translate(749.61 778.38) scale(.1 -.1)">
<use xlink:href="#c"/>
<use x="63.623047" xlink:href="#e"/>
<use x="95.410156" xlink:href="#c"/>
<use x="159.033203" xlink:href="#n"/>
</g>
</g>
<g clip-path="url(#a)">
<defs>
<path id="p" d="m40.578 39.312q7.0781-1.5156 11.047-6.3125 3.9844-4.7812 3.9844-11.812 0-10.781-7.4219-16.703-7.4219-5.9062-21.094-5.9062-4.5781 0-9.4375 0.90625t-10.031 2.7188v9.5156q4.0938-2.3906 8.9688-3.6094 4.8906-1.2188 10.219-1.2188 9.2656 0 14.125 3.6562t4.8594 10.641q0 6.4531-4.5156 10.078-4.5156 3.6406-12.562 3.6406h-8.5v8.1094h8.8906q7.2656 0 11.125 2.9062t3.8594 8.375q0 5.6094-3.9844 8.6094-3.9688 3.0156-11.391 3.0156-4.0625 0-8.7031-0.89062-4.6406-0.875-10.203-2.7188v8.7812q5.625 1.5625 10.531 2.3438t9.25 0.78125q11.234 0 17.766-5.1094 6.5469-5.0938 6.5469-13.781 0-6.0625-3.4688-10.234t-9.8594-5.7812z"/>
</defs>
<g transform="translate(1198.3 681.53) scale(.1 -.1)">
<use xlink:href="#c"/>
<use x="63.623047" xlink:href="#e"/>
<use x="95.410156" xlink:href="#c"/>
<use x="159.033203" xlink:href="#p"/>
</g>
</g>
<g clip-path="url(#a)">
<g transform="translate(1063.7 873.91) scale(.1 -.1)">
<use xlink:href="#c"/>
<use x="63.623047" xlink:href="#e"/>
<use x="95.410156" xlink:href="#c"/>
<use x="159.033203" xlink:href="#m"/>
</g>
</g>
<g clip-path="url(#a)">
<g transform="translate(1272.8 378.29) scale(.1 -.1)">
<use xlink:href="#c"/>
<use x="63.623047" xlink:href="#e"/>
<use x="95.410156" xlink:href="#c"/>
<use x="159.033203" xlink:href="#o"/>
</g>
</g>
<g clip-path="url(#a)">
<defs>
<path id="aq" d="m9.8125 72.906h14.703l18.594-49.609 18.703 49.609h14.703v-72.906h-9.625v64.016l-18.797-50h-9.9062l-18.797 50v-64.016h-9.5781z"/>
</defs>
<g transform="translate(1771.7 969.44) scale(.1 -.1)">
<use xlink:href="#x"/>
<use x="29.492188" xlink:href="#aq"/>
<use x="115.771484" xlink:href="#af"/>
<use x="176.074219" xlink:href="#ag"/>
<use x="231.787109" xlink:href="#x"/>
<use x="261.279297" xlink:href="#t"/>
<use x="331.103516" xlink:href="#x"/>
<use x="360.595703" xlink:href="#l"/>
</g>
</g>
<g clip-path="url(#a)">
<defs>
<path id="ai" d="m10.984 1.5156v8.9844q3.7188-1.7656 7.5156-2.6875 3.8125-0.92188 7.4844-0.92188 9.7656 0 14.906 6.5625 5.1562 6.5625 5.8906 19.953-2.8281-4.2031-7.1875-6.4531-4.3438-2.25-9.6094-2.25-10.938 0-17.312 6.6094-6.375 6.625-6.375 18.109 0 11.219 6.6406 18 6.6406 6.7969 17.672 6.7969 12.656 0 19.312-9.7031 6.6719-9.6875 6.6719-28.141 0-17.234-8.1875-27.516-8.1719-10.281-21.984-10.281-3.7188 0-7.5312 0.73438-3.7969 0.73438-7.9062 2.2031zm19.625 30.906q6.6406 0 10.516 4.5312 3.8906 4.5469 3.8906 12.469 0 7.8594-3.8906 12.422-3.875 4.5625-10.516 4.5625t-10.516-4.5625-3.875-12.422q0-7.9219 3.875-12.469 3.875-4.5312 10.516-4.5312z"/>
</defs>
<g transform="translate(1197.5 481.83) scale(.1 -.1)">
<use xlink:href="#c"/>
<use x="63.623047" xlink:href="#e"/>
<use x="95.410156" xlink:href="#c"/>
<use x="159.033203" xlink:href="#ai"/>
</g>
</g>
<g clip-path="url(#a)">
<defs>
<path id="ak" d="m31.781 66.406q-7.6094 0-11.453-7.5-3.8281-7.4844-3.8281-22.531 0-14.984 3.8281-22.484 3.8438-7.5 11.453-7.5 7.6719 0 11.5 7.5 3.8438 7.5 3.8438 22.484 0 15.047-3.8438 22.531-3.8281 7.5-11.5 7.5zm0 7.8125q12.266 0 18.734-9.7031 6.4688-9.6875 6.4688-28.141 0-18.406-6.4688-28.109-6.4688-9.6875-18.734-9.6875-12.25 0-18.719 9.6875-6.4688 9.7031-6.4688 28.109 0 18.453 6.4688 28.141 6.4688 9.7031 18.719 9.7031z"/>
</defs>
<g transform="translate(1108.6 873.91) scale(.1 -.1)">
<use xlink:href="#c"/>
<use x="63.623047" xlink:href="#e"/>
<use x="95.410156" xlink:href="#n"/>
<use x="159.033203" xlink:href="#ak"/>
</g>
</g>
<g clip-path="url(#a)">
<g transform="translate(1153.5 873.91) scale(.1 -.1)">
<use xlink:href="#c"/>
<use x="63.623047" xlink:href="#e"/>
<use x="95.410156" xlink:href="#n"/>
<use x="159.033203" xlink:href="#c"/>
</g>
</g>
<g clip-path="url(#a)">
<g transform="translate(1330.5 582.8) scale(.1 -.1)">
<use xlink:href="#c"/>
<use x="63.623047" xlink:href="#e"/>
<use x="95.410156" xlink:href="#n"/>
<use x="159.033203" xlink:href="#n"/>
</g>
</g>
<g clip-path="url(#a)">
<g transform="translate(1198.3 873.91) scale(.1 -.1)">
<use xlink:href="#c"/>
<use x="63.623047" xlink:href="#e"/>
<use x="95.410156" xlink:href="#n"/>
<use x="159.033203" xlink:href="#p"/>
</g>
</g>
<g clip-path="url(#a)">
<g transform="translate(1243.2 873.91) scale(.1 -.1)">
<use xlink:href="#c"/>
<use x="63.623047" xlink:href="#e"/>
<use x="95.410156" xlink:href="#n"/>
<use x="159.033203" xlink:href="#m"/>
</g>
</g>
<g clip-path="url(#a)">
<g transform="translate(1288.1 873.91) scale(.1 -.1)">
<use xlink:href="#c"/>
<use x="63.623047" xlink:href="#e"/>
<use x="95.410156" xlink:href="#n"/>
<use x="159.033203" xlink:href="#o"/>
</g>
</g>
<g clip-path="url(#a)">
<g transform="translate(1332.9 873.91) scale(.1 -.1)">
<use xlink:href="#c"/>
<use x="63.623047" xlink:href="#e"/>
<use x="95.410156" xlink:href="#n"/>
<use x="159.033203" xlink:href="#ad"/>
</g>
</g>
<g clip-path="url(#a)">
<g transform="translate(1377.8 873.91) scale(.1 -.1)">
<use xlink:href="#c"/>
<use x="63.623047" xlink:href="#e"/>
<use x="95.410156" xlink:href="#n"/>
<use x="159.033203" xlink:href="#aj"/>
</g>
</g>
<g clip-path="url(#a)">
<g transform="translate(1542.4 681.53) scale(.1 -.1)">
<use xlink:href="#c"/>
<use x="63.623047" xlink:href="#e"/>
<use x="95.410156" xlink:href="#n"/>
<use x="159.033203" xlink:href="#ac"/>
</g>
</g>
<g clip-path="url(#a)">
<g transform="translate(1422.7 873.91) scale(.1 -.1)">
<use xlink:href="#c"/>
<use x="63.623047" xlink:href="#e"/>
<use x="95.410156" xlink:href="#n"/>
<use x="159.033203" xlink:href="#ai"/>
</g>
</g>
<g clip-path="url(#a)">
<g transform="translate(1467.6 873.91) scale(.1 -.1)">
<use xlink:href="#c"/>
<use x="63.623047" xlink:href="#e"/>
<use x="95.410156" xlink:href="#p"/>
<use x="159.033203" xlink:href="#ak"/>
</g>
</g>
<g clip-path="url(#a)">
<g transform="translate(1512.4 873.91) scale(.1 -.1)">
<use xlink:href="#c"/>
<use x="63.623047" xlink:href="#e"/>
<use x="95.410156" xlink:href="#p"/>
<use x="159.033203" xlink:href="#c"/>
</g>
</g>
<g clip-path="url(#a)">
<g transform="translate(1557.3 873.91) scale(.1 -.1)">
<use xlink:href="#c"/>
<use x="63.623047" xlink:href="#e"/>
<use x="95.410156" xlink:href="#p"/>
<use x="159.033203" xlink:href="#n"/>
</g>
</g>
<g clip-path="url(#a)">
<g transform="translate(1602.2 873.91) scale(.1 -.1)">
<use xlink:href="#c"/>
<use x="63.623047" xlink:href="#e"/>
<use x="95.410156" xlink:href="#p"/>
<use x="159.033203" xlink:href="#p"/>
</g>
</g>
<g clip-path="url(#a)">
<g transform="translate(1691.9 778.38) scale(.1 -.1)">
<use xlink:href="#c"/>
<use x="63.623047" xlink:href="#e"/>
<use x="95.410156" xlink:href="#p"/>
<use x="159.033203" xlink:href="#m"/>
</g>
</g>
<g clip-path="url(#a)">
<g transform="translate(1647.1 873.91) scale(.1 -.1)">
<use xlink:href="#c"/>
<use x="63.623047" xlink:href="#e"/>
<use x="95.410156" xlink:href="#p"/>
<use x="159.033203" xlink:href="#o"/>
</g>
</g>
<g clip-path="url(#a)">
<g transform="translate(1691.9 873.91) scale(.1 -.1)">
<use xlink:href="#c"/>
<use x="63.623047" xlink:href="#e"/>
<use x="95.410156" xlink:href="#p"/>
<use x="159.033203" xlink:href="#ad"/>
</g>
</g>
<g clip-path="url(#a)">
<g transform="translate(1816.6 969.44) scale(.1 -.1)">
<use xlink:href="#x"/>
<use x="29.492188" xlink:href="#aq"/>
<use x="115.771484" xlink:href="#af"/>
<use x="176.074219" xlink:href="#ag"/>
<use x="231.787109" xlink:href="#x"/>
<use x="261.279297" xlink:href="#t"/>
<use x="331.103516" xlink:href="#x"/>
<use x="360.595703" xlink:href="#l"/>
</g>
</g>
<g clip-path="url(#a)">
<g transform="translate(839.35 873.91) scale(.1 -.1)">
<use xlink:href="#c"/>
<use x="63.623047" xlink:href="#e"/>
<use x="95.410156" xlink:href="#p"/>
<use x="159.033203" xlink:href="#ac"/>
</g>
</g>
<g clip-path="url(#a)">
<g transform="translate(929.1 778.38) scale(.1 -.1)">
<use xlink:href="#c"/>
<use x="63.623047" xlink:href="#e"/>
<use x="95.410156" xlink:href="#p"/>
<use x="159.033203" xlink:href="#ai"/>
</g>
</g>
<g clip-path="url(#a)">
<g transform="translate(884.23 873.91) scale(.1 -.1)">
<use xlink:href="#c"/>
<use x="63.623047" xlink:href="#e"/>
<use x="95.410156" xlink:href="#m"/>
<use x="159.033203" xlink:href="#ak"/>
</g>
</g>
<g clip-path="url(#a)">
<g transform="translate(929.1 873.91) scale(.1 -.1)">
<use xlink:href="#c"/>
<use x="63.623047" xlink:href="#e"/>
<use x="95.410156" xlink:href="#m"/>
<use x="159.033203" xlink:href="#c"/>
</g>
</g>
<g clip-path="url(#a)">
<g transform="translate(973.97 873.91) scale(.1 -.1)">
<use xlink:href="#c"/>
<use x="63.623047" xlink:href="#e"/>
<use x="95.410156" xlink:href="#m"/>
<use x="159.033203" xlink:href="#n"/>
</g>
</g>
<g clip-path="url(#a)">
<g transform="translate(704.74 873.91) scale(.1 -.1)">
<use xlink:href="#c"/>
<use x="63.623047" xlink:href="#e"/>
<use x="95.410156" xlink:href="#m"/>
<use x="159.033203" xlink:href="#p"/>
</g>
</g>
<g clip-path="url(#a)">
<g transform="translate(749.61 873.91) scale(.1 -.1)">
<use xlink:href="#c"/>
<use x="63.623047" xlink:href="#e"/>
<use x="95.410156" xlink:href="#m"/>
<use x="159.033203" xlink:href="#m"/>
</g>
</g>
<g clip-path="url(#a)">
<g transform="translate(794.48 873.91) scale(.1 -.1)">
<use xlink:href="#c"/>
<use x="63.623047" xlink:href="#e"/>
<use x="95.410156" xlink:href="#m"/>
<use x="159.033203" xlink:href="#o"/>
</g>
</g>
<g clip-path="url(#a)">
<g transform="translate(547.68 778.38) scale(.1 -.1)">
<use xlink:href="#c"/>
<use x="63.623047" xlink:href="#e"/>
<use x="95.410156" xlink:href="#m"/>
<use x="159.033203" xlink:href="#ad"/>
</g>
</g>
<g clip-path="url(#a)">
<g transform="translate(480.38 873.91) scale(.1 -.1)">
<use xlink:href="#c"/>
<use x="63.623047" xlink:href="#e"/>
<use x="95.410156" xlink:href="#m"/>
<use x="159.033203" xlink:href="#aj"/>
</g>
</g>
<g clip-path="url(#a)">
<g transform="translate(525.25 873.91) scale(.1 -.1)">
<use xlink:href="#c"/>
<use x="63.623047" xlink:href="#e"/>
<use x="95.410156" xlink:href="#m"/>
<use x="159.033203" xlink:href="#ac"/>
</g>
</g>
<g clip-path="url(#a)">
<g transform="translate(570.12 873.91) scale(.1 -.1)">
<use xlink:href="#c"/>
<use x="63.623047" xlink:href="#e"/>
<use x="95.410156" xlink:href="#m"/>
<use x="159.033203" xlink:href="#ai"/>
</g>
</g>
<g clip-path="url(#a)">
<g transform="translate(614.99 873.91) scale(.1 -.1)">
<use xlink:href="#c"/>
<use x="63.623047" xlink:href="#e"/>
<use x="95.410156" xlink:href="#o"/>
<use x="159.033203" xlink:href="#ak"/>
</g>
</g>
<g clip-path="url(#a)">
<g transform="translate(76.528 873.91) scale(.1 -.1)">
<use xlink:href="#c"/>
<use x="63.623047" xlink:href="#e"/>
<use x="95.410156" xlink:href="#o"/>
<use x="159.033203" xlink:href="#c"/>
</g>
</g>
<g clip-path="url(#a)">
<g transform="translate(121.4 873.91) scale(.1 -.1)">
<use xlink:href="#c"/>
<use x="63.623047" xlink:href="#e"/>
<use x="95.410156" xlink:href="#o"/>
<use x="159.033203" xlink:href="#n"/>
</g>
</g>
<g clip-path="url(#a)">
<g transform="translate(166.27 873.91) scale(.1 -.1)">
<use xlink:href="#c"/>
<use x="63.623047" xlink:href="#e"/>
<use x="95.410156" xlink:href="#o"/>
<use x="159.033203" xlink:href="#p"/>
</g>
</g>
<g clip-path="url(#a)">
<g transform="translate(211.14 873.91) scale(.1 -.1)">
<use xlink:href="#c"/>
<use x="63.623047" xlink:href="#e"/>
<use x="95.410156" xlink:href="#o"/>
<use x="159.033203" xlink:href="#m"/>
</g>
</g>
<g clip-path="url(#a)">
<g transform="translate(435.5 873.91) scale(.1 -.1)">
<use xlink:href="#c"/>
<use x="63.623047" xlink:href="#e"/>
<use x="95.410156" xlink:href="#o"/>
<use x="159.033203" xlink:href="#o"/>
</g>
</g>
<g clip-path="url(#a)">
<g transform="translate(659.87 873.91) scale(.1 -.1)">
<use xlink:href="#c"/>
<use x="63.623047" xlink:href="#e"/>
<use x="95.410156" xlink:href="#o"/>
<use x="159.033203" xlink:href="#ad"/>
</g>
</g>
<g clip-path="url(#a)">
<g transform="translate(1018.8 873.91) scale(.1 -.1)">
<use xlink:href="#c"/>
<use x="63.623047" xlink:href="#e"/>
<use x="95.410156" xlink:href="#o"/>
<use x="159.033203" xlink:href="#aj"/>
</g>
</g>
<g clip-path="url(#a)">
<g transform="translate(1736.8 873.91) scale(.1 -.1)">
<use xlink:href="#c"/>
<use x="63.623047" xlink:href="#e"/>
<use x="95.410156" xlink:href="#o"/>
<use x="159.033203" xlink:href="#ac"/>
</g>
</g>
<defs>
<clipPath id="a">
<rect width="1925.3" height="1013.3"/>
</clipPath>
</defs>
</svg>
