<?xml version="1.0" encoding="UTF-8"?>
<!DOCTYPE svg  PUBLIC '-//W3C//DTD SVG 1.1//EN'  'http://www.w3.org/Graphics/SVG/1.1/DTD/svg11.dtd'>
<svg width="2026.7pt" height="1066.7pt" version="1.1" viewBox="0 0 2026.7 1066.7" xmlns="http://www.w3.org/2000/svg" xmlns:xlink="http://www.w3.org/1999/xlink">
<defs>
<style type="text/css">*{stroke-linecap:butt;stroke-linejoin:round;}</style>
</defs>
<path d="m0 1066.7h2026.7v-1066.7h-2026.7z" fill="#fff"/>
<g fill="none" stroke="#000">
<path d="m1016.3 49.399-685.23 334.84" clip-path="url(#a)"/>
<path d="m1016.3 49.399-301.17 169.53" clip-path="url(#a)"/>
<path d="m1016.3 49.399 398.54 811.46" clip-path="url(#a)"/>
<path d="m1016.3 49.399 688.24 496.48" clip-path="url(#a)"/>
<path d="m1016.3 49.399-451.68 811.46" clip-path="url(#a)"/>
<path d="m1016.3 49.399 351.3 811.46" clip-path="url(#a)"/>
<path d="m331.06 384.24-112.84 161.63" clip-path="url(#a)"/>
<path d="m331.06 384.24 68.227 320.22" clip-path="url(#a)"/>
<path d="m331.06 384.24 44.61 476.62" clip-path="url(#a)"/>
<path d="m715.12 218.92-103.28 641.94" clip-path="url(#a)"/>
<path d="m715.12 218.92-56.044 641.94" clip-path="url(#a)"/>
<path d="m715.12 218.92 159.32 165.32" clip-path="url(#a)"/>
<path d="m1414.8 860.86v156.41" clip-path="url(#a)"/>
<path d="m1704.5 545.88-187.36 158.58" clip-path="url(#a)"/>
<path d="m1704.5 545.88-53.532 314.99" clip-path="url(#a)"/>
<path d="m1704.5 545.88-6.2979 314.99" clip-path="url(#a)"/>
<path d="m1704.5 545.88 64.553 158.58" clip-path="url(#a)"/>
<path d="m1704.5 545.88 182.64 158.58" clip-path="url(#a)"/>
<path d="m1517.2 704.46-55.107 156.41" clip-path="url(#a)"/>
<path d="m1517.2 704.46-7.8724 156.41" clip-path="url(#a)"/>
<path d="m1517.2 704.46 62.979 156.41" clip-path="url(#a)"/>
<path d="m1651 860.86v156.41" clip-path="url(#a)"/>
<path d="m1698.2 860.86v156.41" clip-path="url(#a)"/>
<path d="m1769.1 704.46-23.617 156.41" clip-path="url(#a)"/>
<path d="m1769.1 704.46 23.617 156.41" clip-path="url(#a)"/>
<path d="m1887.2 704.46-47.234 156.41" clip-path="url(#a)"/>
<path d="m1887.2 704.46v156.41" clip-path="url(#a)"/>
<path d="m1887.2 704.46 47.234 156.41" clip-path="url(#a)"/>
<path d="m1839.9 860.86v156.41" clip-path="url(#a)"/>
<path d="m1887.2 860.86v156.41" clip-path="url(#a)"/>
<path d="m1745.5 860.86v156.41" clip-path="url(#a)"/>
<path d="m1792.7 860.86v156.41" clip-path="url(#a)"/>
<path d="m1462.1 860.86v156.41" clip-path="url(#a)"/>
<path d="m1509.3 860.86v156.41" clip-path="url(#a)"/>
<path d="m1580.1 860.86-23.617 156.41" clip-path="url(#a)"/>
<path d="m1580.1 860.86 23.617 156.41" clip-path="url(#a)"/>
<path d="m611.84 860.86v156.41" clip-path="url(#a)"/>
<path d="m659.08 860.86v156.41" clip-path="url(#a)"/>
<path d="m874.44 384.24-168.13 476.62" clip-path="url(#a)"/>
<path d="m874.44 384.24-120.9 476.62" clip-path="url(#a)"/>
<path d="m874.44 384.24-73.663 476.62" clip-path="url(#a)"/>
<path d="m874.44 384.24 44.423 476.62" clip-path="url(#a)"/>
<path d="m874.44 384.24 229.42 161.63" clip-path="url(#a)"/>
<path d="m874.44 384.24-26.429 476.62" clip-path="url(#a)"/>
<path d="m874.44 384.24 115.27 476.62" clip-path="url(#a)"/>
<path d="m706.31 860.86v156.41" clip-path="url(#a)"/>
<path d="m753.55 860.86v156.41" clip-path="url(#a)"/>
<path d="m800.78 860.86v156.41" clip-path="url(#a)"/>
<path d="m918.86 860.86-23.617 156.41" clip-path="url(#a)"/>
<path d="m918.86 860.86 23.617 156.41" clip-path="url(#a)"/>
<path d="m1103.9 545.88-185 314.99" clip-path="url(#a)" stroke-dasharray="3.7,1.6"/>
<path d="m1103.9 545.88-66.915 314.99" clip-path="url(#a)"/>
<path d="m1103.9 545.88-19.681 314.99" clip-path="url(#a)"/>
<path d="m1103.9 545.88 27.553 314.99" clip-path="url(#a)"/>
<path d="m1103.9 545.88 74.787 314.99" clip-path="url(#a)"/>
<path d="m1103.9 545.88 169.26 158.58" clip-path="url(#a)"/>
<path d="m1037 860.86v156.41" clip-path="url(#a)"/>
<path d="m1084.2 860.86v156.41" clip-path="url(#a)"/>
<path d="m1131.4 860.86v156.41" clip-path="url(#a)"/>
<path d="m1178.7 860.86v156.41" clip-path="url(#a)"/>
<path d="m1273.1 704.46-47.234 156.41" clip-path="url(#a)"/>
<path d="m1273.1 704.46 47.234 156.41" clip-path="url(#a)"/>
<path d="m1273.1 704.46v156.41" clip-path="url(#a)"/>
<path d="m1225.9 860.86v156.41" clip-path="url(#a)"/>
<path d="m1320.4 860.86v156.41" clip-path="url(#a)"/>
<path d="m218.22 545.88-78.724 158.58" clip-path="url(#a)"/>
<path d="m218.22 545.88 15.745 314.99" clip-path="url(#a)"/>
<path d="m218.22 545.88 62.979 314.99" clip-path="url(#a)"/>
<path d="m399.29 704.46-70.851 156.41" clip-path="url(#a)"/>
<path d="m399.29 704.46 70.851 156.41" clip-path="url(#a)"/>
<path d="m375.67 860.86v156.41" clip-path="url(#a)"/>
<path d="m328.44 860.86v156.41" clip-path="url(#a)"/>
<path d="m470.14 860.86-47.234 156.41" clip-path="url(#a)"/>
<path d="m470.14 860.86v156.41" clip-path="url(#a)"/>
<path d="m470.14 860.86 47.234 156.41" clip-path="url(#a)"/>
<path d="m139.5 704.46-47.234 156.41" clip-path="url(#a)"/>
<path d="m139.5 704.46v156.41" clip-path="url(#a)"/>
<path d="m139.5 704.46 47.234 156.41" clip-path="url(#a)"/>
<path d="m233.97 860.86v156.41" clip-path="url(#a)"/>
<path d="m281.2 860.86v156.41" clip-path="url(#a)"/>
<path d="m92.267 860.86v156.41" clip-path="url(#a)"/>
<path d="m139.5 860.86v156.41" clip-path="url(#a)"/>
<path d="m186.73 860.86v156.41" clip-path="url(#a)"/>
<path d="m1278.2 49.399-563.04 169.53" clip-path="url(#a)"/>
<path d="m1278.2 49.399 136.67 811.46" clip-path="url(#a)"/>
<path d="m1278.2 49.399 426.37 496.48" clip-path="url(#a)"/>
<path d="m564.61 860.86v156.41" clip-path="url(#a)"/>
<path d="m848.01 860.86v156.41" clip-path="url(#a)"/>
<path d="m989.72 860.86v156.41" clip-path="url(#a)"/>
<path d="m1273.1 860.86v156.41" clip-path="url(#a)"/>
<path d="m1367.6 860.86v156.41" clip-path="url(#a)"/>
<path d="m1934.4 860.86v156.41" clip-path="url(#a)"/>
</g>
<path d="m673.73 223.78 5.4054-2.6414q2.1563-1.0537 1.1026-3.21l-3.3993-6.9564q-1.0537-2.1563-3.21-1.1026l-5.4054 2.6414q-2.1563 1.0537-1.1026 3.21l3.3993 6.9564q1.0537 2.1563 3.21 1.1026z" clip-path="url(#a)" fill="#fff" stroke="#fff"/>
<g clip-path="url(#a)">
<defs>
<path id="am" d="m9.8125 72.906h9.8594v-29.891h35.844v29.891h9.8594v-72.906h-9.8594v34.719h-35.844v-34.719h-9.8594z"/>
</defs>
<g transform="translate(671.94 220.12) rotate(-26.043) scale(.08 -.08)">
<use xlink:href="#am"/>
</g>
</g>
<path d="m866.16 141.1 5.2427-2.9511q2.0914-1.1773 0.91418-3.2687l-3.7979-6.747q-1.1773-2.0914-3.2687-0.91418l-5.2427 2.9511q-2.0914 1.1773-0.91418 3.2687l3.7979 6.747q1.1773 2.0914 3.2687 0.91418z" clip-path="url(#a)" fill="#fff" stroke="#fff"/>
<g clip-path="url(#a)">
<g transform="translate(864.17 137.56) rotate(-29.375) scale(.08 -.08)">
<use xlink:href="#am"/>
</g>
</g>
<path d="m1208.9 455.89 1.965 4.001q1.058 2.1542 3.2122 1.0962l6.9496-3.4132q2.1542-1.058 1.0962-3.2122l-1.965-4.001q-1.058-2.1542-3.2122-1.0962l-6.9496 3.4132q-2.1542 1.058-1.0962 3.2122z" clip-path="url(#a)" fill="#fff" stroke="#fff"/>
<g clip-path="url(#a)">
<defs>
<path id="aa" d="m9.8125 72.906h9.8594v-64.609h35.5v-8.2969h-45.359z"/>
</defs>
<g transform="translate(1212.6 454.1) rotate(63.843) scale(.08 -.08)">
<use xlink:href="#aa"/>
</g>
</g>
<path d="m1354.3 300.96 4.8792 3.5197q1.9464 1.4041 3.3505-0.54232l4.5297-6.2792q1.4041-1.9464-0.54232-3.3505l-4.8792-3.5197q-1.9464-1.4041-3.3505 0.54232l-4.5297 6.2792q-1.4041 1.9464 0.54232 3.3505z" clip-path="url(#a)" fill="#fff" stroke="#fff"/>
<g clip-path="url(#a)">
<g transform="translate(1356.7 297.67) rotate(35.806) scale(.08 -.08)">
<use xlink:href="#am"/>
</g>
</g>
<path d="m794.5 460.74 2.8476-5.1159q1.1673-2.097-0.92977-3.2643l-6.7651-3.7656q-2.097-1.1673-3.2643 0.92977l-2.8476 5.1159q-1.1673 2.097 0.92977 3.2643l6.7651 3.7656q2.097 1.1673 3.2643-0.92977z" clip-path="url(#a)" fill="#fff" stroke="#fff"/>
<g clip-path="url(#a)">
<defs>
<path id="x" d="m8.6875 72.906h9.9219v-44.297q0-11.719 4.2344-16.875 4.25-5.1406 13.781-5.1406 9.4688 0 13.719 5.1406 4.25 5.1562 4.25 16.875v44.297h9.9062v-45.516q0-14.25-7.0625-21.531-7.0469-7.2812-20.812-7.2812-13.828 0-20.891 7.2812-7.0469 7.2812-7.0469 21.531z"/>
</defs>
<g transform="translate(790.95 458.76) rotate(-60.899) scale(.08 -.08)">
<use xlink:href="#x"/>
</g>
</g>
<path d="m1185 454.94 2.3261 5.3731q0.9535 2.2025 3.156 1.249l7.1052-3.076q2.2025-0.9535 1.249-3.156l-2.3261-5.3731q-0.9535-2.2025-3.156-1.249l-7.1052 3.076q-2.2025 0.9535-1.249 3.156z" clip-path="url(#a)" fill="#fff" stroke="#fff"/>
<g clip-path="url(#a)">
<g transform="translate(1188.8 453.32) rotate(66.591) scale(.08 -.08)">
<use xlink:href="#x"/>
</g>
</g>
<path d="m278.22 470.89 3.1326-4.4872q1.3738-1.9679-0.59411-3.3417l-6.3486-4.4319q-1.9679-1.3738-3.3417 0.59411l-3.1326 4.4872q-1.3738 1.9679 0.59411 3.3417l6.3486 4.4319q1.9679 1.3738 3.3417-0.59411z" clip-path="url(#a)" fill="#fff" stroke="#fff"/>
<g clip-path="url(#a)">
<defs>
<path id="p" d="m34.188 63.188-13.391-36.281h26.812zm-5.5781 9.7188h11.188l27.781-72.906h-10.25l-6.6406 18.703h-32.859l-6.6406-18.703h-10.406z"/>
</defs>
<g transform="translate(274.89 468.57) rotate(-55.081) scale(.08 -.08)">
<use xlink:href="#p"/>
</g>
</g>
<path d="m358.54 543.3 1.0052 4.7178q0.50013 2.3473 2.8474 1.8472l7.5725-1.6135q2.3473-0.50013 1.8472-2.8474l-1.0052-4.7178q-0.50013-2.3473-2.8474-1.8472l-7.5725 1.6134q-2.3473 0.50013-1.8472 2.8474z" clip-path="url(#a)" fill="#fff" stroke="#fff"/>
<g clip-path="url(#a)">
<defs>
<path id="ag" d="m19.672 64.797v-27.391h12.406q6.8906 0 10.641 3.5625 3.7656 3.5625 3.7656 10.156 0 6.5469-3.7656 10.109-3.75 3.5625-10.641 3.5625zm-9.8594 8.1094h22.266q12.266 0 18.531-5.5469 6.2812-5.5469 6.2812-16.234 0-10.797-6.2812-16.312-6.2656-5.5156-18.531-5.5156h-12.406v-29.297h-9.8594z"/>
</defs>
<g transform="translate(362.51 542.45) rotate(77.972) scale(.08 -.08)">
<use xlink:href="#ag"/>
</g>
</g>
<path d="m346.87 620.41 0.50998 5.4487q0.22366 2.3896 2.6132 2.1659l7.7088-0.72152q2.3896-0.22365 2.1659-2.6132l-0.50998-5.4487q-0.22366-2.3896-2.6132-2.1659l-7.7088 0.72152q-2.3896 0.22366-2.1659 2.6132z" clip-path="url(#a)" fill="#fff" stroke="#fff"/>
<g clip-path="url(#a)">
<g transform="translate(350.91 620.03) rotate(84.653) scale(.08 -.08)">
<use xlink:href="#p"/>
</g>
</g>
<path d="m669.29 543.27 0.76621-4.7625q0.38122-2.3695-1.9883-2.7508l-7.6442-1.2298q-2.3695-0.38122-2.7508 1.9883l-0.76621 4.7625q-0.38122 2.3695 1.9883 2.7508l7.6442 1.2298q2.3695 0.38122 2.7508-1.9883z" clip-path="url(#a)" fill="#fff" stroke="#fff"/>
<g clip-path="url(#a)">
<g transform="translate(665.28 542.63) rotate(-80.86) scale(.08 -.08)">
<use xlink:href="#ag"/>
</g>
</g>
<path d="m693.11 543.16 0.47596-5.4518q0.20874-2.3909-2.1822-2.5996l-7.7132-0.67339q-2.3909-0.20874-2.5996 2.1822l-0.47596 5.4518q-0.20874 2.3909 2.1822 2.5996l7.7132 0.67339q2.3909 0.20874 2.5996-2.1822z" clip-path="url(#a)" fill="#fff" stroke="#fff"/>
<g clip-path="url(#a)">
<g transform="translate(689.06 542.81) rotate(-85.01) scale(.08 -.08)">
<use xlink:href="#p"/>
</g>
</g>
<path d="m788.37 303.96 3.7975 3.9404q1.6654 1.7281 3.3935 0.062674l5.5749-5.3727q1.7281-1.6654 0.062674-3.3935l-3.7975-3.9404q-1.6654-1.7281-3.3935-0.062674l-5.5749 5.3727q-1.7281 1.6654-0.062674 3.3935z" clip-path="url(#a)" fill="#fff" stroke="#fff"/>
<g clip-path="url(#a)">
<g transform="translate(791.29 301.14) rotate(46.058) scale(.08 -.08)">
<use xlink:href="#p"/>
</g>
</g>
<path d="m1408.6 921.42v35.285q0 2.4 2.4 2.4h7.7425q2.4 0 2.4-2.4v-35.285q0-2.4-2.4-2.4h-7.7425q-2.4 0-2.4 2.4z" clip-path="url(#a)" fill="#fff" stroke="#fff"/>
<g clip-path="url(#a)">
<defs>
<path id="l" d="m-0.29688 72.906h61.672v-8.3125h-25.875v-64.594h-9.9062v64.594h-25.891z"/>
<path id="d" d="m56.203 29.594v-4.3906h-41.312q0.59375-9.2812 5.5938-14.141t13.938-4.8594q5.1719 0 10.031 1.2656t9.6562 3.8125v-8.5q-4.8438-2.0469-9.9219-3.125t-10.297-1.0781q-13.094 0-20.734 7.6094-7.6406 7.625-7.6406 20.625 0 13.422 7.25 21.297 7.25 7.8906 19.562 7.8906 11.031 0 17.453-7.1094 6.4219-7.0938 6.4219-19.297zm-8.9844 2.6406q-0.09375 7.3594-4.125 11.75-4.0312 4.4062-10.672 4.4062-7.5156 0-12.031-4.25t-5.2031-11.969z"/>
<path id="i" d="m41.109 46.297q-1.5156 0.875-3.2969 1.2812-1.7812 0.42188-3.9219 0.42188-7.625 0-11.703-4.9531t-4.0781-14.234v-28.812h-9.0312v54.688h9.0312v-8.5q2.8438 4.9844 7.375 7.3906 4.5469 2.4219 11.047 2.4219 0.92188 0 2.0469-0.125 1.125-0.10938 2.4844-0.35938z"/>
<path id="k" d="m52 44.188q3.375 6.0625 8.0625 8.9375t11.031 2.875q8.5469 0 13.188-5.9844 4.6406-5.9688 4.6406-17v-33.016h-9.0312v32.719q0 7.8594-2.7969 11.656-2.7812 3.8125-8.4844 3.8125-6.9844 0-11.047-4.6406-4.0469-4.625-4.0469-12.641v-30.906h-9.0312v32.719q0 7.9062-2.7812 11.688t-8.5938 3.7812q-6.8906 0-10.953-4.6562-4.0469-4.6562-4.0469-12.625v-30.906h-9.0312v54.688h9.0312v-8.5q3.0781 5.0312 7.375 7.4219t10.203 2.3906q5.9688 0 10.141-3.0312 4.1719-3.0156 6.1719-8.7812z"/>
<path id="g" d="m9.4219 54.688h8.9844v-54.688h-8.9844zm0 21.297h8.9844v-11.391h-8.9844z"/>
<path id="f" d="m54.891 33.016v-33.016h-8.9844v32.719q0 7.7656-3.0312 11.609-3.0312 3.8594-9.0781 3.8594-7.2812 0-11.484-4.6406-4.2031-4.625-4.2031-12.641v-30.906h-9.0312v54.688h9.0312v-8.5q3.2344 4.9375 7.5938 7.375 4.375 2.4375 10.094 2.4375 9.4219 0 14.25-5.8281 4.8438-5.8281 4.8438-17.156z"/>
<path id="e" d="m34.281 27.484q-10.891 0-15.094-2.4844t-4.2031-8.5q0-4.7812 3.1562-7.5938 3.1562-2.7969 8.5625-2.7969 7.4844 0 12 5.2969t4.5156 14.078v2zm17.922 3.7188v-31.203h-8.9844v8.2969q-3.0781-4.9688-7.6719-7.3438t-11.234-2.375q-8.3906 0-13.359 4.7188-4.9531 4.7188-4.9531 12.625 0 9.2188 6.1719 13.906 6.1875 4.6875 18.438 4.6875h12.609v0.89062q0 6.2031-4.0781 9.5938t-11.453 3.3906q-4.6875 0-9.1406-1.125-4.4375-1.125-8.5312-3.375v8.3125q4.9219 1.9062 9.5625 2.8438 4.6406 0.95312 9.0312 0.95312 11.875 0 17.734-6.1562 5.8594-6.1406 5.8594-18.641z"/>
<path id="j" d="m9.4219 75.984h8.9844v-75.984h-8.9844z"/>
</defs>
<g transform="translate(1412.6 921.42) rotate(90) scale(.08 -.08)">
<use xlink:href="#l"/>
<use x="60.818359" xlink:href="#d"/>
<use x="122.341797" xlink:href="#i"/>
<use x="163.439453" xlink:href="#k"/>
<use x="260.851562" xlink:href="#g"/>
<use x="288.634766" xlink:href="#f"/>
<use x="352.013672" xlink:href="#e"/>
<use x="413.292969" xlink:href="#j"/>
</g>
</g>
<path d="m1612.8 631.72 4.1772-3.5355q1.8319-1.5505 0.28141-3.3824l-5.002-5.9098q-1.5505-1.8319-3.3824-0.28141l-4.1772 3.5355q-1.8319 1.5505-0.28141 3.3824l5.002 5.9098q1.5505 1.8319 3.3824 0.28141z" clip-path="url(#a)" fill="#fff" stroke="#fff"/>
<g clip-path="url(#a)">
<g transform="translate(1610.2 628.62) rotate(-40.244) scale(.08 -.08)">
<use xlink:href="#p"/>
</g>
</g>
<path d="m1683.6 706.69 0.77093-4.5362q0.40212-2.3661-1.964-2.7682l-7.6331-1.2972q-2.3661-0.40212-2.7682 1.964l-0.77093 4.5362q-0.40212 2.3661 1.964 2.7682l7.6331 1.2972q2.3661 0.40212 2.7682-1.964z" clip-path="url(#a)" fill="#fff" stroke="#fff"/>
<g clip-path="url(#a)">
<defs>
<path id="ab" d="m9.8125 72.906h41.891v-8.3125h-32.031v-21.484h28.906v-8.2969h-28.906v-34.812h-9.8594z"/>
</defs>
<g transform="translate(1679.6 706.01) rotate(-80.355) scale(.08 -.08)">
<use xlink:href="#ab"/>
</g>
</g>
<path d="m1707.6 705.91 0.096428-4.8228q0.047976-2.3995-2.3515-2.4475l-7.741-0.15478q-2.3995-0.047976-2.4475 2.3515l-0.096428 4.8228q-0.047976 2.3995 2.3515 2.4475l7.741 0.15478q2.3995 0.047976 2.4475-2.3515z" clip-path="url(#a)" fill="#fff" stroke="#fff"/>
<g clip-path="url(#a)">
<g transform="translate(1703.5 705.82) rotate(-88.855) scale(.08 -.08)">
<use xlink:href="#ag"/>
</g>
</g>
<path d="m1730 625 2.0633 5.0686q0.90487 2.2229 3.1278 1.318l7.1711-2.9191q2.2229-0.90487 1.318-3.1278l-2.0633-5.0686q-0.90487-2.2229-3.1278-1.318l-7.1711 2.9191q-2.2229 0.90487-1.318 3.1278z" clip-path="url(#a)" fill="#fff" stroke="#fff"/>
<g clip-path="url(#a)">
<g transform="translate(1733.7 623.46) rotate(67.85) scale(.08 -.08)">
<use xlink:href="#p"/>
</g>
</g>
<path d="m1789.4 627.88 4.6513 4.0386q1.8122 1.5735 3.3857-0.23871l5.0762-5.8463q1.5735-1.8122-0.23871-3.3857l-4.6513-4.0386q-1.8122-1.5735-3.3857 0.23871l-5.0762 5.8463q-1.5735 1.8122 0.23871 3.3857z" clip-path="url(#a)" fill="#fff" stroke="#fff"/>
<g clip-path="url(#a)">
<defs>
<path id="ap" d="m19.672 64.797v-56.688h11.922q15.094 0 22.094 6.8281 7 6.8438 7 21.594 0 14.641-7 21.453t-22.094 6.8125zm-9.8594 8.1094h20.266q21.188 0 31.094-8.8125 9.9219-8.8125 9.9219-27.562 0-18.859-9.9688-27.703-9.9531-8.8281-31.047-8.8281h-20.266z"/>
</defs>
<g transform="translate(1792.1 624.81) rotate(40.967) scale(.08 -.08)">
<use xlink:href="#ap"/>
</g>
</g>
<path d="m1494.7 787.13 1.6798-4.7677q0.79754-2.2636-1.4661-3.0612l-7.3025-2.5729q-2.2636-0.79754-3.0612 1.4661l-1.6798 4.7677q-0.79754 2.2636 1.4661 3.0612l7.3025 2.5729q2.2636 0.79754 3.0612-1.4661z" clip-path="url(#a)" fill="#fff" stroke="#fff"/>
<g clip-path="url(#a)">
<defs>
<path id="v" d="m9.8125 72.906h46.094v-8.3125h-36.234v-21.578h34.719v-8.2969h-34.719v-26.422h37.109v-8.2969h-46.969z"/>
</defs>
<g transform="translate(1490.9 785.78) rotate(-70.591) scale(.08 -.08)">
<use xlink:href="#v"/>
</g>
</g>
<path d="m1519.4 785.5 0.25411-5.0486q0.12065-2.397-2.2763-2.5176l-7.7327-0.38921q-2.397-0.12065-2.5176 2.2763l-0.25411 5.0486q-0.12065 2.397 2.2763 2.5176l7.7327 0.38921q2.397 0.12065 2.5176-2.2763z" clip-path="url(#a)" fill="#fff" stroke="#fff"/>
<g clip-path="url(#a)">
<g transform="translate(1515.3 785.3) rotate(-87.119) scale(.08 -.08)">
<use xlink:href="#v"/>
</g>
</g>
<path d="m1541.8 782.41 2.0866 5.1819q0.89645 2.2263 3.1227 1.3298l7.1821-2.892q2.2263-0.89645 1.3298-3.1227l-2.0866-5.1819q-0.89645-2.2263-3.1227-1.3298l-7.1821 2.892q-2.2263 0.89645-1.3298 3.1227z" clip-path="url(#a)" fill="#fff" stroke="#fff"/>
<g clip-path="url(#a)">
<defs>
<path id="s" d="m64.406 67.281v-10.391q-4.9844 4.6406-10.625 6.9219-5.6406 2.2969-11.984 2.2969-12.5 0-19.141-7.6406t-6.6406-22.094q0-14.406 6.6406-22.047t19.141-7.6406q6.3438 0 11.984 2.2969t10.625 6.9375v-10.312q-5.1719-3.5156-10.969-5.2812-5.7812-1.75-12.219-1.75-16.562 0-26.094 10.125-9.5156 10.141-9.5156 27.672 0 17.578 9.5156 27.703 9.5312 10.141 26.094 10.141 6.5312 0 12.312-1.7344 5.7969-1.7344 10.875-5.2031z"/>
</defs>
<g transform="translate(1545.6 780.89) rotate(68.067) scale(.08 -.08)">
<use xlink:href="#s"/>
</g>
</g>
<path d="m1644.7 921.42v35.285q0 2.4 2.4 2.4h7.7425q2.4 0 2.4-2.4v-35.285q0-2.4-2.4-2.4h-7.7425q-2.4 0-2.4 2.4z" clip-path="url(#a)" fill="#fff" stroke="#fff"/>
<g clip-path="url(#a)">
<g transform="translate(1648.8 921.42) rotate(90) scale(.08 -.08)">
<use xlink:href="#l"/>
<use x="60.818359" xlink:href="#d"/>
<use x="122.341797" xlink:href="#i"/>
<use x="163.439453" xlink:href="#k"/>
<use x="260.851562" xlink:href="#g"/>
<use x="288.634766" xlink:href="#f"/>
<use x="352.013672" xlink:href="#e"/>
<use x="413.292969" xlink:href="#j"/>
</g>
</g>
<path d="m1692 921.42v35.285q0 2.4 2.4 2.4h7.7425q2.4 0 2.4-2.4v-35.285q0-2.4-2.4-2.4h-7.7425q-2.4 0-2.4 2.4z" clip-path="url(#a)" fill="#fff" stroke="#fff"/>
<g clip-path="url(#a)">
<g transform="translate(1696 921.42) rotate(90) scale(.08 -.08)">
<use xlink:href="#l"/>
<use x="60.818359" xlink:href="#d"/>
<use x="122.341797" xlink:href="#i"/>
<use x="163.439453" xlink:href="#k"/>
<use x="260.851562" xlink:href="#g"/>
<use x="288.634766" xlink:href="#f"/>
<use x="352.013672" xlink:href="#e"/>
<use x="413.292969" xlink:href="#j"/>
</g>
</g>
<path d="m1763.1 786.34 0.82996-5.4964q0.35834-2.3731-2.0148-2.7314l-7.6557-1.156q-2.3731-0.35834-2.7314 2.0148l-0.82996 5.4964q-0.35834 2.3731 2.0148 2.7314l7.6557 1.156q2.3731 0.35834 2.7314-2.0148z" clip-path="url(#a)" fill="#fff" stroke="#fff"/>
<g clip-path="url(#a)">
<defs>
<path id="af" d="m44.391 34.188q3.1719-1.0781 6.1719-4.5938t6.0312-9.6719l10.016-19.922h-10.609l-9.3125 18.703q-3.625 7.3281-7.0156 9.7188t-9.25 2.3906h-10.75v-30.812h-9.8594v72.906h22.266q12.5 0 18.656-5.2344 6.1562-5.2188 6.1562-15.766 0-6.8906-3.2031-11.438-3.2031-4.5312-9.2969-6.2812zm-24.719 30.609v-25.875h12.406q7.125 0 10.766 3.2969t3.6406 9.6875-3.6406 9.6406-10.766 3.25z"/>
</defs>
<g transform="translate(1759 785.74) rotate(-81.413) scale(.08 -.08)">
<use xlink:href="#af"/>
</g>
</g>
<path d="m1774.3 780.83 0.83407 5.5236q0.35834 2.3731 2.7314 2.0148l7.6557-1.156q2.3731-0.35834 2.0148-2.7314l-0.83407-5.5236q-0.35834-2.3731-2.7314-2.0148l-7.6557 1.156q-2.3731 0.35834-2.0148 2.7314z" clip-path="url(#a)" fill="#fff" stroke="#fff"/>
<g clip-path="url(#a)">
<g transform="translate(1778.3 780.23) rotate(81.413) scale(.08 -.08)">
<use xlink:href="#s"/>
</g>
</g>
<path d="m1868.7 787.13 1.6071-5.3214q0.69385-2.2975-1.6037-2.9914l-7.4119-2.2384q-2.2975-0.69385-2.9914 1.6037l-1.6071 5.3214q-0.69385 2.2975 1.6037 2.9914l7.4119 2.2384q2.2975 0.69385 2.9914-1.6037z" clip-path="url(#a)" fill="#fff" stroke="#fff"/>
<g clip-path="url(#a)">
<g transform="translate(1864.9 785.96) rotate(-73.196) scale(.08 -.08)">
<use xlink:href="#af"/>
</g>
</g>
<path d="m1880.9 779.87v5.5862q0 2.4 2.4 2.4h7.7425q2.4 0 2.4-2.4v-5.5862q0-2.4-2.4-2.4h-7.7425q-2.4 0-2.4 2.4z" clip-path="url(#a)" fill="#fff" stroke="#fff"/>
<g clip-path="url(#a)">
<g transform="translate(1885 779.87) rotate(90) scale(.08 -.08)">
<use xlink:href="#s"/>
</g>
</g>
<path d="m1903.9 781.67 1.6927 5.605q0.69385 2.2975 2.9914 1.6037l7.4119-2.2384q2.2975-0.69385 1.6037-2.9914l-1.6927-5.605q-0.69385-2.2975-2.9914-1.6037l-7.4119 2.2384q-2.2975 0.69385-1.6037 2.9914z" clip-path="url(#a)" fill="#fff" stroke="#fff"/>
<g clip-path="url(#a)">
<g transform="translate(1907.8 780.5) rotate(73.196) scale(.08 -.08)">
<use xlink:href="#x"/>
</g>
</g>
<path d="m1833.7 921.42v35.285q0 2.4 2.4 2.4h7.7425q2.4 0 2.4-2.4v-35.285q0-2.4-2.4-2.4h-7.7425q-2.4 0-2.4 2.4z" clip-path="url(#a)" fill="#fff" stroke="#fff"/>
<g clip-path="url(#a)">
<g transform="translate(1837.7 921.42) rotate(90) scale(.08 -.08)">
<use xlink:href="#l"/>
<use x="60.818359" xlink:href="#d"/>
<use x="122.341797" xlink:href="#i"/>
<use x="163.439453" xlink:href="#k"/>
<use x="260.851562" xlink:href="#g"/>
<use x="288.634766" xlink:href="#f"/>
<use x="352.013672" xlink:href="#e"/>
<use x="413.292969" xlink:href="#j"/>
</g>
</g>
<path d="m1880.9 921.42v35.285q0 2.4 2.4 2.4h7.7425q2.4 0 2.4-2.4v-35.285q0-2.4-2.4-2.4h-7.7425q-2.4 0-2.4 2.4z" clip-path="url(#a)" fill="#fff" stroke="#fff"/>
<g clip-path="url(#a)">
<g transform="translate(1885 921.42) rotate(90) scale(.08 -.08)">
<use xlink:href="#l"/>
<use x="60.818359" xlink:href="#d"/>
<use x="122.341797" xlink:href="#i"/>
<use x="163.439453" xlink:href="#k"/>
<use x="260.851562" xlink:href="#g"/>
<use x="288.634766" xlink:href="#f"/>
<use x="352.013672" xlink:href="#e"/>
<use x="413.292969" xlink:href="#j"/>
</g>
</g>
<path d="m1739.2 921.42v35.285q0 2.4 2.4 2.4h7.7425q2.4 0 2.4-2.4v-35.285q0-2.4-2.4-2.4h-7.7425q-2.4 0-2.4 2.4z" clip-path="url(#a)" fill="#fff" stroke="#fff"/>
<g clip-path="url(#a)">
<g transform="translate(1743.3 921.42) rotate(90) scale(.08 -.08)">
<use xlink:href="#l"/>
<use x="60.818359" xlink:href="#d"/>
<use x="122.341797" xlink:href="#i"/>
<use x="163.439453" xlink:href="#k"/>
<use x="260.851562" xlink:href="#g"/>
<use x="288.634766" xlink:href="#f"/>
<use x="352.013672" xlink:href="#e"/>
<use x="413.292969" xlink:href="#j"/>
</g>
</g>
<path d="m1786.4 921.42v35.285q0 2.4 2.4 2.4h7.7425q2.4 0 2.4-2.4v-35.285q0-2.4-2.4-2.4h-7.7425q-2.4 0-2.4 2.4z" clip-path="url(#a)" fill="#fff" stroke="#fff"/>
<g clip-path="url(#a)">
<g transform="translate(1790.5 921.42) rotate(90) scale(.08 -.08)">
<use xlink:href="#l"/>
<use x="60.818359" xlink:href="#d"/>
<use x="122.341797" xlink:href="#i"/>
<use x="163.439453" xlink:href="#k"/>
<use x="260.851562" xlink:href="#g"/>
<use x="288.634766" xlink:href="#f"/>
<use x="352.013672" xlink:href="#e"/>
<use x="413.292969" xlink:href="#j"/>
</g>
</g>
<path d="m1455.8 921.42v35.285q0 2.4 2.4 2.4h7.7425q2.4 0 2.4-2.4v-35.285q0-2.4-2.4-2.4h-7.7425q-2.4 0-2.4 2.4z" clip-path="url(#a)" fill="#fff" stroke="#fff"/>
<g clip-path="url(#a)">
<g transform="translate(1459.9 921.42) rotate(90) scale(.08 -.08)">
<use xlink:href="#l"/>
<use x="60.818359" xlink:href="#d"/>
<use x="122.341797" xlink:href="#i"/>
<use x="163.439453" xlink:href="#k"/>
<use x="260.851562" xlink:href="#g"/>
<use x="288.634766" xlink:href="#f"/>
<use x="352.013672" xlink:href="#e"/>
<use x="413.292969" xlink:href="#j"/>
</g>
</g>
<path d="m1503 921.42v35.285q0 2.4 2.4 2.4h7.7425q2.4 0 2.4-2.4v-35.285q0-2.4-2.4-2.4h-7.7425q-2.4 0-2.4 2.4z" clip-path="url(#a)" fill="#fff" stroke="#fff"/>
<g clip-path="url(#a)">
<g transform="translate(1507.1 921.42) rotate(90) scale(.08 -.08)">
<use xlink:href="#l"/>
<use x="60.818359" xlink:href="#d"/>
<use x="122.341797" xlink:href="#i"/>
<use x="163.439453" xlink:href="#k"/>
<use x="260.851562" xlink:href="#g"/>
<use x="288.634766" xlink:href="#f"/>
<use x="352.013672" xlink:href="#e"/>
<use x="413.292969" xlink:href="#j"/>
</g>
</g>
<path d="m1571.9 957.45 5.2683-34.889q0.35834-2.3731-2.0148-2.7314l-7.6557-1.156q-2.3731-0.35834-2.7314 2.0148l-5.2683 34.889q-0.35834 2.3731 2.0148 2.7314l7.6557 1.156q2.3731 0.35834 2.7314-2.0148z" clip-path="url(#a)" fill="#fff" stroke="#fff"/>
<g clip-path="url(#a)">
<g transform="translate(1567.9 956.84) rotate(-81.413) scale(.08 -.08)">
<use xlink:href="#l"/>
<use x="60.818359" xlink:href="#d"/>
<use x="122.341797" xlink:href="#i"/>
<use x="163.439453" xlink:href="#k"/>
<use x="260.851562" xlink:href="#g"/>
<use x="288.634766" xlink:href="#f"/>
<use x="352.013672" xlink:href="#e"/>
<use x="413.292969" xlink:href="#j"/>
</g>
</g>
<path d="m1583.1 922.56 5.2683 34.889q0.35834 2.3731 2.7314 2.0148l7.6557-1.156q2.3731-0.35834 2.0148-2.7314l-5.2683-34.889q-0.35834-2.3731-2.7314-2.0148l-7.6557 1.156q-2.3731 0.35834-2.0148 2.7314z" clip-path="url(#a)" fill="#fff" stroke="#fff"/>
<g clip-path="url(#a)">
<g transform="translate(1587.1 921.95) rotate(81.413) scale(.08 -.08)">
<use xlink:href="#l"/>
<use x="60.818359" xlink:href="#d"/>
<use x="122.341797" xlink:href="#i"/>
<use x="163.439453" xlink:href="#k"/>
<use x="260.851562" xlink:href="#g"/>
<use x="288.634766" xlink:href="#f"/>
<use x="352.013672" xlink:href="#e"/>
<use x="413.292969" xlink:href="#j"/>
</g>
</g>
<path d="m605.57 921.42v35.285q0 2.4 2.4 2.4h7.7425q2.4 0 2.4-2.4v-35.285q0-2.4-2.4-2.4h-7.7425q-2.4 0-2.4 2.4z" clip-path="url(#a)" fill="#fff" stroke="#fff"/>
<g clip-path="url(#a)">
<g transform="translate(609.64 921.42) rotate(90) scale(.08 -.08)">
<use xlink:href="#l"/>
<use x="60.818359" xlink:href="#d"/>
<use x="122.341797" xlink:href="#i"/>
<use x="163.439453" xlink:href="#k"/>
<use x="260.851562" xlink:href="#g"/>
<use x="288.634766" xlink:href="#f"/>
<use x="352.013672" xlink:href="#e"/>
<use x="413.292969" xlink:href="#j"/>
</g>
</g>
<path d="m652.81 921.42v35.285q0 2.4 2.4 2.4h7.7425q2.4 0 2.4-2.4v-35.285q0-2.4-2.4-2.4h-7.7425q-2.4 0-2.4 2.4z" clip-path="url(#a)" fill="#fff" stroke="#fff"/>
<g clip-path="url(#a)">
<g transform="translate(656.87 921.42) rotate(90) scale(.08 -.08)">
<use xlink:href="#l"/>
<use x="60.818359" xlink:href="#d"/>
<use x="122.341797" xlink:href="#i"/>
<use x="163.439453" xlink:href="#k"/>
<use x="260.851562" xlink:href="#g"/>
<use x="288.634766" xlink:href="#f"/>
<use x="352.013672" xlink:href="#e"/>
<use x="413.292969" xlink:href="#j"/>
</g>
</g>
<path d="m795.45 627.02 1.6816-4.7671q0.7984-2.2633-1.4649-3.0617l-7.3015-2.5757q-2.2633-0.7984-3.0617 1.4649l-1.6816 4.7671q-0.7984 2.2633 1.4649 3.0617l7.3015 2.5757q2.2633 0.7984 3.0617-1.4649z" clip-path="url(#a)" fill="#fff" stroke="#fff"/>
<g clip-path="url(#a)">
<g transform="translate(791.62 625.67) rotate(-70.569) scale(.08 -.08)">
<use xlink:href="#v"/>
</g>
</g>
<path d="m819.45 626.54 1.2429-4.8998q0.59008-2.3263-1.7362-2.9164l-7.5048-1.9036q-2.3263-0.59008-2.9164 1.7362l-1.2429 4.8998q-0.59008 2.3263 1.7362 2.9164l7.5048 1.9036q2.3263 0.59008 2.9164-1.7362z" clip-path="url(#a)" fill="#fff" stroke="#fff"/>
<g clip-path="url(#a)">
<g transform="translate(815.51 625.54) rotate(-75.767) scale(.08 -.08)">
<use xlink:href="#v"/>
</g>
</g>
<path d="m843.46 625.78 0.70279-4.5473q0.36657-2.3718-2.0053-2.7384l-7.6517-1.1826q-2.3718-0.36657-2.7384 2.0053l-0.70279 4.5473q-0.36657 2.3718 2.0053 2.7384l7.6517 1.1826q2.3718 0.36657 2.7384-2.0053z" clip-path="url(#a)" fill="#fff" stroke="#fff"/>
<g clip-path="url(#a)">
<g transform="translate(839.44 625.16) rotate(-81.214) scale(.08 -.08)">
<use xlink:href="#ab"/>
</g>
</g>
<path d="m890.15 620.35 0.51841 5.5621q0.22272 2.3896 2.6124 2.1669l7.7091-0.71851q2.3896-0.22272 2.1669-2.6124l-0.51841-5.5621q-0.22272-2.3896-2.6124-2.1669l-7.7091 0.71851q-2.3896 0.22272-2.1669 2.6124z" clip-path="url(#a)" fill="#fff" stroke="#fff"/>
<g clip-path="url(#a)">
<g transform="translate(894.2 619.98) rotate(84.675) scale(.08 -.08)">
<use xlink:href="#s"/>
</g>
</g>
<path d="m983.48 468.73 4.1324 2.9114q1.962 1.3823 3.3442-0.57971l4.4592-6.3294q1.3823-1.962-0.57972-3.3442l-4.1324-2.9114q-1.962-1.3823-3.3442 0.57971l-4.4592 6.3294q-1.3823 1.962 0.57971 3.3442z" clip-path="url(#a)" fill="#fff" stroke="#fff"/>
<g clip-path="url(#a)">
<g transform="translate(985.82 465.41) rotate(35.166) scale(.08 -.08)">
<use xlink:href="#v"/>
</g>
</g>
<path d="m867.33 625.82 0.32416-5.846q0.13288-2.3963-2.2634-2.5292l-7.7306-0.42866q-2.3963-0.13288-2.5292 2.2634l-0.32416 5.846q-0.13288 2.3963 2.2634 2.5292l7.7306 0.42866q2.3963 0.13288 2.5292-2.2634z" clip-path="url(#a)" fill="#fff" stroke="#fff"/>
<g clip-path="url(#a)">
<g transform="translate(863.27 625.6) rotate(-86.826) scale(.08 -.08)">
<use xlink:href="#x"/>
</g>
</g>
<path d="m925.3 621.18 1.3764 5.6909q0.56419 2.3327 2.8969 1.7686l7.5255-1.8201q2.3327-0.56419 1.7686-2.8969l-1.3764-5.6909q-0.56419-2.3327-2.8969-1.7686l-7.5255 1.8201q-2.3327 0.56419-1.7686 2.8969z" clip-path="url(#a)" fill="#fff" stroke="#fff"/>
<g clip-path="url(#a)">
<g transform="translate(929.25 620.23) rotate(76.404) scale(.08 -.08)">
<use xlink:href="#x"/>
</g>
</g>
<path d="m700.04 921.42v35.285q0 2.4 2.4 2.4h7.7425q2.4 0 2.4-2.4v-35.285q0-2.4-2.4-2.4h-7.7425q-2.4 0-2.4 2.4z" clip-path="url(#a)" fill="#fff" stroke="#fff"/>
<g clip-path="url(#a)">
<g transform="translate(704.1 921.42) rotate(90) scale(.08 -.08)">
<use xlink:href="#l"/>
<use x="60.818359" xlink:href="#d"/>
<use x="122.341797" xlink:href="#i"/>
<use x="163.439453" xlink:href="#k"/>
<use x="260.851562" xlink:href="#g"/>
<use x="288.634766" xlink:href="#f"/>
<use x="352.013672" xlink:href="#e"/>
<use x="413.292969" xlink:href="#j"/>
</g>
</g>
<path d="m747.27 921.42v35.285q0 2.4 2.4 2.4h7.7425q2.4 0 2.4-2.4v-35.285q0-2.4-2.4-2.4h-7.7425q-2.4 0-2.4 2.4z" clip-path="url(#a)" fill="#fff" stroke="#fff"/>
<g clip-path="url(#a)">
<g transform="translate(751.34 921.42) rotate(90) scale(.08 -.08)">
<use xlink:href="#l"/>
<use x="60.818359" xlink:href="#d"/>
<use x="122.341797" xlink:href="#i"/>
<use x="163.439453" xlink:href="#k"/>
<use x="260.851562" xlink:href="#g"/>
<use x="288.634766" xlink:href="#f"/>
<use x="352.013672" xlink:href="#e"/>
<use x="413.292969" xlink:href="#j"/>
</g>
</g>
<path d="m794.51 921.42v35.285q0 2.4 2.4 2.4h7.7425q2.4 0 2.4-2.4v-35.285q0-2.4-2.4-2.4h-7.7425q-2.4 0-2.4 2.4z" clip-path="url(#a)" fill="#fff" stroke="#fff"/>
<g clip-path="url(#a)">
<g transform="translate(798.57 921.42) rotate(90) scale(.08 -.08)">
<use xlink:href="#l"/>
<use x="60.818359" xlink:href="#d"/>
<use x="122.341797" xlink:href="#i"/>
<use x="163.439453" xlink:href="#k"/>
<use x="260.851562" xlink:href="#g"/>
<use x="288.634766" xlink:href="#f"/>
<use x="352.013672" xlink:href="#e"/>
<use x="413.292969" xlink:href="#j"/>
</g>
</g>
<path d="m910.62 957.45 5.2683-34.889q0.35834-2.3731-2.0148-2.7314l-7.6557-1.156q-2.3731-0.35834-2.7314 2.0148l-5.2683 34.889q-0.35834 2.3731 2.0148 2.7314l7.6557 1.156q2.3731 0.35834 2.7314-2.0148z" clip-path="url(#a)" fill="#fff" stroke="#fff"/>
<g clip-path="url(#a)">
<g transform="translate(906.61 956.84) rotate(-81.413) scale(.08 -.08)">
<use xlink:href="#l"/>
<use x="60.818359" xlink:href="#d"/>
<use x="122.341797" xlink:href="#i"/>
<use x="163.439453" xlink:href="#k"/>
<use x="260.851562" xlink:href="#g"/>
<use x="288.634766" xlink:href="#f"/>
<use x="352.013672" xlink:href="#e"/>
<use x="413.292969" xlink:href="#j"/>
</g>
</g>
<path d="m921.84 922.56 5.2683 34.889q0.35834 2.3731 2.7314 2.0148l7.6557-1.156q2.3731-0.35834 2.0148-2.7314l-5.2683-34.889q-0.35834-2.3731-2.7314-2.0148l-7.6557 1.156q-2.3731 0.35834-2.0148 2.7314z" clip-path="url(#a)" fill="#fff" stroke="#fff"/>
<g clip-path="url(#a)">
<g transform="translate(925.86 921.95) rotate(81.413) scale(.08 -.08)">
<use xlink:href="#l"/>
<use x="60.818359" xlink:href="#d"/>
<use x="122.341797" xlink:href="#i"/>
<use x="163.439453" xlink:href="#k"/>
<use x="260.851562" xlink:href="#g"/>
<use x="288.634766" xlink:href="#f"/>
<use x="352.013672" xlink:href="#e"/>
<use x="413.292969" xlink:href="#j"/>
</g>
</g>
<path d="m1015.4 708.9 2.7715-4.7188q1.2155-2.0695-0.854-3.2849l-6.6762-3.9211q-2.0695-1.2155-3.2849 0.85401l-2.7715 4.7188q-1.2155 2.0695 0.854 3.2849l6.6762 3.9211q2.0695 1.2155 3.2849-0.854z" clip-path="url(#a)" fill="#fff" stroke="#fff"/>
<g clip-path="url(#a)">
<g transform="translate(1011.9 706.85) rotate(-59.573) scale(.08 -.08)">
<use xlink:href="#p"/>
</g>
</g>
<path d="m1076.1 706.92 0.95614-4.5008q0.49872-2.3476-1.8489-2.8463l-7.5735-1.6089q-2.3476-0.49872-2.8463 1.8489l-0.95614 4.5008q-0.49872 2.3476 1.8489 2.8463l7.5735 1.6089q2.3476 0.49872 2.8463-1.8489z" clip-path="url(#a)" fill="#fff" stroke="#fff"/>
<g clip-path="url(#a)">
<g transform="translate(1072.1 706.08) rotate(-78.006) scale(.08 -.08)">
<use xlink:href="#ab"/>
</g>
</g>
<path d="m1100.1 706.06 0.28694-4.5923q0.14966-2.3953-2.2457-2.545l-7.7274-0.48282q-2.3953-0.14966-2.545 2.2457l-0.28694 4.5923q-0.14966 2.3953 2.2457 2.545l7.7274 0.48282q2.3953 0.14966 2.545-2.2457z" clip-path="url(#a)" fill="#fff" stroke="#fff"/>
<g clip-path="url(#a)">
<g transform="translate(1096.1 705.8) rotate(-86.425) scale(.08 -.08)">
<use xlink:href="#ab"/>
</g>
</g>
<path d="m1111.1 700.85 0.53679 6.1366q0.20914 2.3909 2.6 2.1817l7.713-0.6747q2.3909-0.20914 2.1817-2.6l-0.53679-6.1366q-0.20914-2.3909-2.6-2.1817l-7.713 0.6747q-2.3909 0.20914-2.1817 2.6z" clip-path="url(#a)" fill="#fff" stroke="#fff"/>
<g clip-path="url(#a)">
<g transform="translate(1115.2 700.49) rotate(85.001) scale(.08 -.08)">
<use xlink:href="#ap"/>
</g>
</g>
<path d="m1134.6 702.47 1.1143 4.6933q0.55442 2.3351 2.8895 1.7807l7.5331-1.7886q2.3351-0.55442 1.7807-2.8895l-1.1143-4.6933q-0.55442-2.3351-2.8895-1.7807l-7.5331 1.7886q-2.3351 0.55442-1.7807 2.8895z" clip-path="url(#a)" fill="#fff" stroke="#fff"/>
<g clip-path="url(#a)">
<g transform="translate(1138.6 701.53) rotate(76.644) scale(.08 -.08)">
<use xlink:href="#ag"/>
</g>
</g>
<path d="m1182.2 627.87 3.9935 3.7417q1.7514 1.6409 3.3923-0.11046l5.2937-5.65q1.6409-1.7514-0.11046-3.3923l-3.9935-3.7417q-1.7514-1.6409-3.3923 0.11046l-5.2937 5.65q-1.6409 1.7514 0.11046 3.3923z" clip-path="url(#a)" fill="#fff" stroke="#fff"/>
<g clip-path="url(#a)">
<g transform="translate(1185 624.91) rotate(43.135) scale(.08 -.08)">
<use xlink:href="#p"/>
</g>
</g>
<path d="m1030.7 921.42v35.285q0 2.4 2.4 2.4h7.7425q2.4 0 2.4-2.4v-35.285q0-2.4-2.4-2.4h-7.7425q-2.4 0-2.4 2.4z" clip-path="url(#a)" fill="#fff" stroke="#fff"/>
<g clip-path="url(#a)">
<g transform="translate(1034.7 921.42) rotate(90) scale(.08 -.08)">
<use xlink:href="#l"/>
<use x="60.818359" xlink:href="#d"/>
<use x="122.341797" xlink:href="#i"/>
<use x="163.439453" xlink:href="#k"/>
<use x="260.851562" xlink:href="#g"/>
<use x="288.634766" xlink:href="#f"/>
<use x="352.013672" xlink:href="#e"/>
<use x="413.292969" xlink:href="#j"/>
</g>
</g>
<path d="m1077.9 921.42v35.285q0 2.4 2.4 2.4h7.7425q2.4 0 2.4-2.4v-35.285q0-2.4-2.4-2.4h-7.7425q-2.4 0-2.4 2.4z" clip-path="url(#a)" fill="#fff" stroke="#fff"/>
<g clip-path="url(#a)">
<g transform="translate(1082 921.42) rotate(90) scale(.08 -.08)">
<use xlink:href="#l"/>
<use x="60.818359" xlink:href="#d"/>
<use x="122.341797" xlink:href="#i"/>
<use x="163.439453" xlink:href="#k"/>
<use x="260.851562" xlink:href="#g"/>
<use x="288.634766" xlink:href="#f"/>
<use x="352.013672" xlink:href="#e"/>
<use x="413.292969" xlink:href="#j"/>
</g>
</g>
<path d="m1125.1 921.42v35.285q0 2.4 2.4 2.4h7.7425q2.4 0 2.4-2.4v-35.285q0-2.4-2.4-2.4h-7.7425q-2.4 0-2.4 2.4z" clip-path="url(#a)" fill="#fff" stroke="#fff"/>
<g clip-path="url(#a)">
<g transform="translate(1129.2 921.42) rotate(90) scale(.08 -.08)">
<use xlink:href="#l"/>
<use x="60.818359" xlink:href="#d"/>
<use x="122.341797" xlink:href="#i"/>
<use x="163.439453" xlink:href="#k"/>
<use x="260.851562" xlink:href="#g"/>
<use x="288.634766" xlink:href="#f"/>
<use x="352.013672" xlink:href="#e"/>
<use x="413.292969" xlink:href="#j"/>
</g>
</g>
<path d="m1172.4 921.42v35.285q0 2.4 2.4 2.4h7.7425q2.4 0 2.4-2.4v-35.285q0-2.4-2.4-2.4h-7.7425q-2.4 0-2.4 2.4z" clip-path="url(#a)" fill="#fff" stroke="#fff"/>
<g clip-path="url(#a)">
<g transform="translate(1176.4 921.42) rotate(90) scale(.08 -.08)">
<use xlink:href="#l"/>
<use x="60.818359" xlink:href="#d"/>
<use x="122.341797" xlink:href="#i"/>
<use x="163.439453" xlink:href="#k"/>
<use x="260.851562" xlink:href="#g"/>
<use x="288.634766" xlink:href="#f"/>
<use x="352.013672" xlink:href="#e"/>
<use x="413.292969" xlink:href="#j"/>
</g>
</g>
<path d="m1254.7 787.13 1.6071-5.3214q0.69385-2.2975-1.6037-2.9914l-7.4119-2.2384q-2.2975-0.69385-2.9914 1.6037l-1.6071 5.3214q-0.69385 2.2975 1.6037 2.9914l7.4119 2.2384q2.2975 0.69385 2.9914-1.6037z" clip-path="url(#a)" fill="#fff" stroke="#fff"/>
<g clip-path="url(#a)">
<g transform="translate(1250.8 785.96) rotate(-73.196) scale(.08 -.08)">
<use xlink:href="#af"/>
</g>
</g>
<path d="m1289.9 781.8 1.615 5.3477q0.69385 2.2975 2.9914 1.6037l7.4119-2.2384q2.2975-0.69385 1.6037-2.9914l-1.615-5.3477q-0.69385-2.2975-2.9914-1.6037l-7.4119 2.2384q-2.2975 0.69385-1.6037 2.9914z" clip-path="url(#a)" fill="#fff" stroke="#fff"/>
<g clip-path="url(#a)">
<g transform="translate(1293.8 780.62) rotate(73.196) scale(.08 -.08)">
<use xlink:href="#s"/>
</g>
</g>
<path d="m1266.9 779.73v5.855q0 2.4 2.4 2.4h7.7425q2.4 0 2.4-2.4v-5.855q0-2.4-2.4-2.4h-7.7425q-2.4 0-2.4 2.4z" clip-path="url(#a)" fill="#fff" stroke="#fff"/>
<g clip-path="url(#a)">
<g transform="translate(1270.9 779.73) rotate(90) scale(.08 -.08)">
<use xlink:href="#x"/>
</g>
</g>
<path d="m1219.6 921.42v35.285q0 2.4 2.4 2.4h7.7425q2.4 0 2.4-2.4v-35.285q0-2.4-2.4-2.4h-7.7425q-2.4 0-2.4 2.4z" clip-path="url(#a)" fill="#fff" stroke="#fff"/>
<g clip-path="url(#a)">
<g transform="translate(1223.7 921.42) rotate(90) scale(.08 -.08)">
<use xlink:href="#l"/>
<use x="60.818359" xlink:href="#d"/>
<use x="122.341797" xlink:href="#i"/>
<use x="163.439453" xlink:href="#k"/>
<use x="260.851562" xlink:href="#g"/>
<use x="288.634766" xlink:href="#f"/>
<use x="352.013672" xlink:href="#e"/>
<use x="413.292969" xlink:href="#j"/>
</g>
</g>
<path d="m1314.1 921.42v35.285q0 2.4 2.4 2.4h7.7425q2.4 0 2.4-2.4v-35.285q0-2.4-2.4-2.4h-7.7425q-2.4 0-2.4 2.4z" clip-path="url(#a)" fill="#fff" stroke="#fff"/>
<g clip-path="url(#a)">
<g transform="translate(1318.1 921.42) rotate(90) scale(.08 -.08)">
<use xlink:href="#l"/>
<use x="60.818359" xlink:href="#d"/>
<use x="122.341797" xlink:href="#i"/>
<use x="163.439453" xlink:href="#k"/>
<use x="260.851562" xlink:href="#g"/>
<use x="288.634766" xlink:href="#f"/>
<use x="352.013672" xlink:href="#e"/>
<use x="413.292969" xlink:href="#j"/>
</g>
</g>
<path d="m183.26 630.41 2.4334-4.9017q1.0672-2.1497-1.0825-3.2169l-6.935-3.4427q-2.1497-1.0672-3.2169 1.0825l-2.4334 4.9017q-1.0672 2.1497 1.0825 3.2169l6.935 3.4427q2.1497 1.0672 3.2169-1.0825z" clip-path="url(#a)" fill="#fff" stroke="#fff"/>
<g clip-path="url(#a)">
<g transform="translate(179.62 628.6) rotate(-63.599) scale(.08 -.08)">
<use xlink:href="#p"/>
</g>
</g>
<path d="m219.71 701.15 0.25355 5.0724q0.11982 2.397 2.5168 2.2772l7.7328-0.38653q2.397-0.11982 2.2772-2.5168l-0.25355-5.0724q-0.11982-2.397-2.5168-2.2772l-7.7328 0.38653q-2.397 0.11982-2.2772 2.5168z" clip-path="url(#a)" fill="#fff" stroke="#fff"/>
<g clip-path="url(#a)">
<defs>
<path id="at" d="m53.516 70.516v-9.625q-5.6094 2.6875-10.594 4-4.9844 1.3281-9.625 1.3281-8.0469 0-12.422-3.125t-4.375-8.8906q0-4.8438 2.9062-7.3125 2.9062-2.4531 11.016-3.9688l5.9531-1.2188q11.031-2.1094 16.281-7.4062t5.25-14.172q0-10.609-7.1094-16.078-7.0938-5.4688-20.812-5.4688-5.1719 0-11.016 1.1719-5.8281 1.1719-12.078 3.4688v10.156q6-3.3594 11.766-5.0781 5.7656-1.7031 11.328-1.7031 8.4375 0 13.031 3.3125 4.5938 3.3281 4.5938 9.4844 0 5.3594-3.2969 8.3906t-10.812 4.5469l-6.0156 1.1719q-11.031 2.1875-15.969 6.875-4.9219 4.6875-4.9219 13.047 0 9.6719 6.8125 15.234t18.766 5.5625q5.1406 0 10.453-0.9375 5.3281-0.92188 10.891-2.7656z"/>
</defs>
<g transform="translate(223.77 700.94) rotate(87.138) scale(.08 -.08)">
<use xlink:href="#at"/>
</g>
</g>
<path d="m243.03 701.92 1.0729 5.3663q0.47055 2.3534 2.824 1.8829l7.5922-1.518q2.3534-0.47055 1.8829-2.824l-1.0729-5.3663q-0.47055-2.3534-2.824-1.8829l-7.5922 1.518q-2.3534 0.47055-1.8829 2.824z" clip-path="url(#a)" fill="#fff" stroke="#fff"/>
<g clip-path="url(#a)">
<g transform="translate(247.01 701.12) rotate(78.693) scale(.08 -.08)">
<use xlink:href="#p"/>
</g>
</g>
<path d="m368.63 787.34 1.8986-4.1913q0.99032-2.1862-1.1958-3.1765l-7.0526-3.1948q-2.1862-0.99032-3.1765 1.1958l-1.8986 4.1913q-0.99032 2.1862 1.1958 3.1765l7.0526 3.1948q2.1862 0.99032 3.1765-1.1958z" clip-path="url(#a)" fill="#fff" stroke="#fff"/>
<g clip-path="url(#a)">
<g transform="translate(364.92 785.67) rotate(-65.63) scale(.08 -.08)">
<use xlink:href="#ab"/>
</g>
</g>
<path d="m427.85 782.7 2.3051 5.0885q0.99032 2.1862 3.1765 1.1958l7.0526-3.1948q2.1862-0.99032 1.1958-3.1765l-2.3051-5.0885q-0.99032-2.1862-3.1765-1.1958l-7.0526 3.1948q-2.1862 0.99032-1.1958 3.1765z" clip-path="url(#a)" fill="#fff" stroke="#fff"/>
<g clip-path="url(#a)">
<g transform="translate(431.55 781.03) rotate(65.63) scale(.08 -.08)">
<use xlink:href="#s"/>
</g>
</g>
<path d="m369.4 921.42v35.285q0 2.4 2.4 2.4h7.7425q2.4 0 2.4-2.4v-35.285q0-2.4-2.4-2.4h-7.7425q-2.4 0-2.4 2.4z" clip-path="url(#a)" fill="#fff" stroke="#fff"/>
<g clip-path="url(#a)">
<g transform="translate(373.46 921.42) rotate(90) scale(.08 -.08)">
<use xlink:href="#l"/>
<use x="60.818359" xlink:href="#d"/>
<use x="122.341797" xlink:href="#i"/>
<use x="163.439453" xlink:href="#k"/>
<use x="260.851562" xlink:href="#g"/>
<use x="288.634766" xlink:href="#f"/>
<use x="352.013672" xlink:href="#e"/>
<use x="413.292969" xlink:href="#j"/>
</g>
</g>
<path d="m322.17 921.42v35.285q0 2.4 2.4 2.4h7.7425q2.4 0 2.4-2.4v-35.285q0-2.4-2.4-2.4h-7.7425q-2.4 0-2.4 2.4z" clip-path="url(#a)" fill="#fff" stroke="#fff"/>
<g clip-path="url(#a)">
<g transform="translate(326.23 921.42) rotate(90) scale(.08 -.08)">
<use xlink:href="#l"/>
<use x="60.818359" xlink:href="#d"/>
<use x="122.341797" xlink:href="#i"/>
<use x="163.439453" xlink:href="#k"/>
<use x="260.851562" xlink:href="#g"/>
<use x="288.634766" xlink:href="#f"/>
<use x="352.013672" xlink:href="#e"/>
<use x="413.292969" xlink:href="#j"/>
</g>
</g>
<path d="m447.43 957.77 10.201-33.778q0.69385-2.2975-1.6037-2.9914l-7.4119-2.2384q-2.2975-0.69385-2.9914 1.6037l-10.201 33.778q-0.69385 2.2975 1.6037 2.9914l7.4119 2.2384q2.2975 0.69385 2.9914-1.6037z" clip-path="url(#a)" fill="#fff" stroke="#fff"/>
<g clip-path="url(#a)">
<g transform="translate(443.54 956.59) rotate(-73.196) scale(.08 -.08)">
<use xlink:href="#l"/>
<use x="60.818359" xlink:href="#d"/>
<use x="122.341797" xlink:href="#i"/>
<use x="163.439453" xlink:href="#k"/>
<use x="260.851562" xlink:href="#g"/>
<use x="288.634766" xlink:href="#f"/>
<use x="352.013672" xlink:href="#e"/>
<use x="413.292969" xlink:href="#j"/>
</g>
</g>
<path d="m463.87 921.42v35.285q0 2.4 2.4 2.4h7.7425q2.4 0 2.4-2.4v-35.285q0-2.4-2.4-2.4h-7.7425q-2.4 0-2.4 2.4z" clip-path="url(#a)" fill="#fff" stroke="#fff"/>
<g clip-path="url(#a)">
<g transform="translate(467.93 921.42) rotate(90) scale(.08 -.08)">
<use xlink:href="#l"/>
<use x="60.818359" xlink:href="#d"/>
<use x="122.341797" xlink:href="#i"/>
<use x="163.439453" xlink:href="#k"/>
<use x="260.851562" xlink:href="#g"/>
<use x="288.634766" xlink:href="#f"/>
<use x="352.013672" xlink:href="#e"/>
<use x="413.292969" xlink:href="#j"/>
</g>
</g>
<path d="m482.65 923.99 10.201 33.778q0.69385 2.2975 2.9914 1.6037l7.4119-2.2384q2.2975-0.69385 1.6037-2.9914l-10.201-33.778q-0.69385-2.2975-2.9914-1.6037l-7.4119 2.2384q-2.2975 0.69385-1.6037 2.9914z" clip-path="url(#a)" fill="#fff" stroke="#fff"/>
<g clip-path="url(#a)">
<g transform="translate(486.54 922.81) rotate(73.196) scale(.08 -.08)">
<use xlink:href="#l"/>
<use x="60.818359" xlink:href="#d"/>
<use x="122.341797" xlink:href="#i"/>
<use x="163.439453" xlink:href="#k"/>
<use x="260.851562" xlink:href="#g"/>
<use x="288.634766" xlink:href="#f"/>
<use x="352.013672" xlink:href="#e"/>
<use x="413.292969" xlink:href="#j"/>
</g>
</g>
<path d="m121.16 786.89 1.4614-4.8391q0.69385-2.2975-1.6037-2.9914l-7.4119-2.2384q-2.2975-0.69385-2.9914 1.6037l-1.4614 4.8391q-0.69385 2.2975 1.6037 2.9914l7.4119 2.2384q2.2975 0.69385 2.9914-1.6037z" clip-path="url(#a)" fill="#fff" stroke="#fff"/>
<g clip-path="url(#a)">
<g transform="translate(117.27 785.72) rotate(-73.196) scale(.08 -.08)">
<use xlink:href="#v"/>
</g>
</g>
<path d="m133.23 780.13v5.055q0 2.4 2.4 2.4h7.7425q2.4 0 2.4-2.4v-5.055q0-2.4-2.4-2.4h-7.7425q-2.4 0-2.4 2.4z" clip-path="url(#a)" fill="#fff" stroke="#fff"/>
<g clip-path="url(#a)">
<g transform="translate(137.29 780.13) rotate(90) scale(.08 -.08)">
<use xlink:href="#v"/>
</g>
</g>
<path d="m156.31 781.8 1.615 5.3477q0.69385 2.2975 2.9914 1.6037l7.4119-2.2384q2.2975-0.69385 1.6037-2.9914l-1.615-5.3477q-0.69385-2.2975-2.9914-1.6037l-7.4119 2.2384q-2.2975 0.69385-1.6037 2.9914z" clip-path="url(#a)" fill="#fff" stroke="#fff"/>
<g clip-path="url(#a)">
<g transform="translate(160.2 780.62) rotate(73.196) scale(.08 -.08)">
<use xlink:href="#s"/>
</g>
</g>
<path d="m227.7 921.42v35.285q0 2.4 2.4 2.4h7.7425q2.4 0 2.4-2.4v-35.285q0-2.4-2.4-2.4h-7.7425q-2.4 0-2.4 2.4z" clip-path="url(#a)" fill="#fff" stroke="#fff"/>
<g clip-path="url(#a)">
<g transform="translate(231.76 921.42) rotate(90) scale(.08 -.08)">
<use xlink:href="#l"/>
<use x="60.818359" xlink:href="#d"/>
<use x="122.341797" xlink:href="#i"/>
<use x="163.439453" xlink:href="#k"/>
<use x="260.851562" xlink:href="#g"/>
<use x="288.634766" xlink:href="#f"/>
<use x="352.013672" xlink:href="#e"/>
<use x="413.292969" xlink:href="#j"/>
</g>
</g>
<path d="m274.93 921.42v35.285q0 2.4 2.4 2.4h7.7425q2.4 0 2.4-2.4v-35.285q0-2.4-2.4-2.4h-7.7425q-2.4 0-2.4 2.4z" clip-path="url(#a)" fill="#fff" stroke="#fff"/>
<g clip-path="url(#a)">
<g transform="translate(279 921.42) rotate(90) scale(.08 -.08)">
<use xlink:href="#l"/>
<use x="60.818359" xlink:href="#d"/>
<use x="122.341797" xlink:href="#i"/>
<use x="163.439453" xlink:href="#k"/>
<use x="260.851562" xlink:href="#g"/>
<use x="288.634766" xlink:href="#f"/>
<use x="352.013672" xlink:href="#e"/>
<use x="413.292969" xlink:href="#j"/>
</g>
</g>
<path d="m85.995 921.42v35.285q0 2.4 2.4 2.4h7.7425q2.4 0 2.4-2.4v-35.285q0-2.4-2.4-2.4h-7.7425q-2.4 0-2.4 2.4z" clip-path="url(#a)" fill="#fff" stroke="#fff"/>
<g clip-path="url(#a)">
<g transform="translate(90.059 921.42) rotate(90) scale(.08 -.08)">
<use xlink:href="#l"/>
<use x="60.818359" xlink:href="#d"/>
<use x="122.341797" xlink:href="#i"/>
<use x="163.439453" xlink:href="#k"/>
<use x="260.851562" xlink:href="#g"/>
<use x="288.634766" xlink:href="#f"/>
<use x="352.013672" xlink:href="#e"/>
<use x="413.292969" xlink:href="#j"/>
</g>
</g>
<path d="m133.23 921.42v35.285q0 2.4 2.4 2.4h7.7425q2.4 0 2.4-2.4v-35.285q0-2.4-2.4-2.4h-7.7425q-2.4 0-2.4 2.4z" clip-path="url(#a)" fill="#fff" stroke="#fff"/>
<g clip-path="url(#a)">
<g transform="translate(137.29 921.42) rotate(90) scale(.08 -.08)">
<use xlink:href="#l"/>
<use x="60.818359" xlink:href="#d"/>
<use x="122.341797" xlink:href="#i"/>
<use x="163.439453" xlink:href="#k"/>
<use x="260.851562" xlink:href="#g"/>
<use x="288.634766" xlink:href="#f"/>
<use x="352.013672" xlink:href="#e"/>
<use x="413.292969" xlink:href="#j"/>
</g>
</g>
<path d="m180.46 921.42v35.285q0 2.4 2.4 2.4h7.7425q2.4 0 2.4-2.4v-35.285q0-2.4-2.4-2.4h-7.7425q-2.4 0-2.4 2.4z" clip-path="url(#a)" fill="#fff" stroke="#fff"/>
<g clip-path="url(#a)">
<g transform="translate(184.53 921.42) rotate(90) scale(.08 -.08)">
<use xlink:href="#l"/>
<use x="60.818359" xlink:href="#d"/>
<use x="122.341797" xlink:href="#i"/>
<use x="163.439453" xlink:href="#k"/>
<use x="260.851562" xlink:href="#g"/>
<use x="288.634766" xlink:href="#f"/>
<use x="352.013672" xlink:href="#e"/>
<use x="413.292969" xlink:href="#j"/>
</g>
</g>
<path d="m993.69 141.6 9.5107-2.8636q2.2981-0.69194 1.6062-2.99l-2.2322-7.4137q-0.69194-2.2981-2.99-1.6062l-9.5107 2.8636q-2.2981 0.69194-1.6062 2.99l2.2322 7.4137q0.69194 2.2981 2.99 1.6062z" clip-path="url(#a)" fill="#fff" stroke="#fff"/>
<g clip-path="url(#a)">
<g transform="translate(992.52 137.71) rotate(-16.757) scale(.08 -.08)">
<use xlink:href="#aa"/>
<use x="55.744141" xlink:href="#p"/>
</g>
</g>
<path d="m1339.5 451.23 1.6635 9.8771q0.39859 2.3667 2.7653 1.9681l7.635-1.2859q2.3667-0.39859 1.9681-2.7653l-1.6635-9.8771q-0.3986-2.3667-2.7653-1.9681l-7.635 1.2859q-2.3667 0.3986-1.9681 2.7653z" clip-path="url(#a)" fill="#fff" stroke="#fff"/>
<g clip-path="url(#a)">
<g transform="translate(1343.5 450.56) rotate(80.44) scale(.08 -.08)">
<use xlink:href="#aa"/>
<use x="55.712891" xlink:href="#af"/>
</g>
</g>
<path d="m1483.3 297.96 6.4711 7.5352q1.5636 1.8207 3.3844 0.25711l5.8738-5.0443q1.8207-1.5636 0.25711-3.3844l-6.4711-7.5352q-1.5636-1.8207-3.3844-0.25711l-5.8738 5.0443q-1.8207 1.5636-0.2571 3.3844z" clip-path="url(#a)" fill="#fff" stroke="#fff"/>
<g clip-path="url(#a)">
<g transform="translate(1486.4 295.31) rotate(49.344) scale(.08 -.08)">
<use xlink:href="#aa"/>
<use x="55.744141" xlink:href="#p"/>
</g>
</g>
<path d="m558.34 921.42v35.285q0 2.4 2.4 2.4h7.7425q2.4 0 2.4-2.4v-35.285q0-2.4-2.4-2.4h-7.7425q-2.4 0-2.4 2.4z" clip-path="url(#a)" fill="#fff" stroke="#fff"/>
<g clip-path="url(#a)">
<g transform="translate(562.4 921.42) rotate(90) scale(.08 -.08)">
<use xlink:href="#l"/>
<use x="60.818359" xlink:href="#d"/>
<use x="122.341797" xlink:href="#i"/>
<use x="163.439453" xlink:href="#k"/>
<use x="260.851562" xlink:href="#g"/>
<use x="288.634766" xlink:href="#f"/>
<use x="352.013672" xlink:href="#e"/>
<use x="413.292969" xlink:href="#j"/>
</g>
</g>
<path d="m841.74 921.42v35.285q0 2.4 2.4 2.4h7.7425q2.4 0 2.4-2.4v-35.285q0-2.4-2.4-2.4h-7.7425q-2.4 0-2.4 2.4z" clip-path="url(#a)" fill="#fff" stroke="#fff"/>
<g clip-path="url(#a)">
<g transform="translate(845.81 921.42) rotate(90) scale(.08 -.08)">
<use xlink:href="#l"/>
<use x="60.818359" xlink:href="#d"/>
<use x="122.341797" xlink:href="#i"/>
<use x="163.439453" xlink:href="#k"/>
<use x="260.851562" xlink:href="#g"/>
<use x="288.634766" xlink:href="#f"/>
<use x="352.013672" xlink:href="#e"/>
<use x="413.292969" xlink:href="#j"/>
</g>
</g>
<path d="m983.44 921.42v35.285q0 2.4 2.4 2.4h7.7425q2.4 0 2.4-2.4v-35.285q0-2.4-2.4-2.4h-7.7425q-2.4 0-2.4 2.4z" clip-path="url(#a)" fill="#fff" stroke="#fff"/>
<g clip-path="url(#a)">
<g transform="translate(987.51 921.42) rotate(90) scale(.08 -.08)">
<use xlink:href="#l"/>
<use x="60.818359" xlink:href="#d"/>
<use x="122.341797" xlink:href="#i"/>
<use x="163.439453" xlink:href="#k"/>
<use x="260.851562" xlink:href="#g"/>
<use x="288.634766" xlink:href="#f"/>
<use x="352.013672" xlink:href="#e"/>
<use x="413.292969" xlink:href="#j"/>
</g>
</g>
<path d="m1266.9 921.42v35.285q0 2.4 2.4 2.4h7.7425q2.4 0 2.4-2.4v-35.285q0-2.4-2.4-2.4h-7.7425q-2.4 0-2.4 2.4z" clip-path="url(#a)" fill="#fff" stroke="#fff"/>
<g clip-path="url(#a)">
<g transform="translate(1270.9 921.42) rotate(90) scale(.08 -.08)">
<use xlink:href="#l"/>
<use x="60.818359" xlink:href="#d"/>
<use x="122.341797" xlink:href="#i"/>
<use x="163.439453" xlink:href="#k"/>
<use x="260.851562" xlink:href="#g"/>
<use x="288.634766" xlink:href="#f"/>
<use x="352.013672" xlink:href="#e"/>
<use x="413.292969" xlink:href="#j"/>
</g>
</g>
<path d="m1361.3 921.42v35.285q0 2.4 2.4 2.4h7.7425q2.4 0 2.4-2.4v-35.285q0-2.4-2.4-2.4h-7.7425q-2.4 0-2.4 2.4z" clip-path="url(#a)" fill="#fff" stroke="#fff"/>
<g clip-path="url(#a)">
<g transform="translate(1365.4 921.42) rotate(90) scale(.08 -.08)">
<use xlink:href="#l"/>
<use x="60.818359" xlink:href="#d"/>
<use x="122.341797" xlink:href="#i"/>
<use x="163.439453" xlink:href="#k"/>
<use x="260.851562" xlink:href="#g"/>
<use x="288.634766" xlink:href="#f"/>
<use x="352.013672" xlink:href="#e"/>
<use x="413.292969" xlink:href="#j"/>
</g>
</g>
<path d="m1928.1 921.42v35.285q0 2.4 2.4 2.4h7.7425q2.4 0 2.4-2.4v-35.285q0-2.4-2.4-2.4h-7.7425q-2.4 0-2.4 2.4z" clip-path="url(#a)" fill="#fff" stroke="#fff"/>
<g clip-path="url(#a)">
<g transform="translate(1932.2 921.42) rotate(90) scale(.08 -.08)">
<use xlink:href="#l"/>
<use x="60.818359" xlink:href="#d"/>
<use x="122.341797" xlink:href="#i"/>
<use x="163.439453" xlink:href="#k"/>
<use x="260.851562" xlink:href="#g"/>
<use x="288.634766" xlink:href="#f"/>
<use x="352.013672" xlink:href="#e"/>
<use x="413.292969" xlink:href="#j"/>
</g>
</g>
<defs>
<path id="b" d="m0 8.6603c2.2967 0 4.4997-0.9125 6.1237-2.5365 1.624-1.624 2.5365-3.827 2.5365-6.1237s-0.9125-4.4997-2.5365-6.1237c-1.624-1.624-3.827-2.5365-6.1237-2.5365s-4.4997 0.9125-6.1237 2.5365c-1.624 1.624-2.5365 3.827-2.5365 6.1237s0.9125 4.4997 2.5365 6.1237c1.624 1.624 3.827 2.5365 6.1237 2.5365z"/>
</defs>
<g clip-path="url(#a)">
<use x="92.266536" y="1017.267525" fill="#ffffff" stroke="#ffffff" xlink:href="#b"/>
</g>
<g clip-path="url(#a)">
<use x="139.500731" y="1017.267525" fill="#ffffff" stroke="#ffffff" xlink:href="#b"/>
</g>
<g clip-path="url(#a)">
<use x="186.734926" y="1017.267525" fill="#ffffff" stroke="#ffffff" xlink:href="#b"/>
</g>
<g clip-path="url(#a)">
<use x="233.96912" y="1017.267525" fill="#ffffff" stroke="#ffffff" xlink:href="#b"/>
</g>
<g clip-path="url(#a)">
<use x="281.203315" y="1017.267525" fill="#ffffff" stroke="#ffffff" xlink:href="#b"/>
</g>
<g clip-path="url(#a)">
<use x="328.43751" y="1017.267525" fill="#ffffff" stroke="#ffffff" xlink:href="#b"/>
</g>
<g clip-path="url(#a)">
<use x="375.671704" y="1017.267525" fill="#ffffff" stroke="#ffffff" xlink:href="#b"/>
</g>
<g clip-path="url(#a)">
<use x="422.905899" y="1017.267525" fill="#ffffff" stroke="#ffffff" xlink:href="#b"/>
</g>
<g clip-path="url(#a)">
<use x="470.140094" y="1017.267525" fill="#ffffff" stroke="#ffffff" xlink:href="#b"/>
</g>
<g clip-path="url(#a)">
<use x="517.374289" y="1017.267525" fill="#ffffff" stroke="#ffffff" xlink:href="#b"/>
</g>
<g clip-path="url(#a)">
<use x="564.608483" y="1017.267525" fill="#ffffff" stroke="#ffffff" xlink:href="#b"/>
</g>
<g clip-path="url(#a)">
<use x="611.842678" y="1017.267525" fill="#ffffff" stroke="#ffffff" xlink:href="#b"/>
</g>
<g clip-path="url(#a)">
<use x="659.076873" y="1017.267525" fill="#ffffff" stroke="#ffffff" xlink:href="#b"/>
</g>
<g clip-path="url(#a)">
<use x="706.311068" y="1017.267525" fill="#ffffff" stroke="#ffffff" xlink:href="#b"/>
</g>
<g clip-path="url(#a)">
<use x="753.545262" y="1017.267525" fill="#ffffff" stroke="#ffffff" xlink:href="#b"/>
</g>
<g clip-path="url(#a)">
<use x="800.779457" y="1017.267525" fill="#ffffff" stroke="#ffffff" xlink:href="#b"/>
</g>
<g clip-path="url(#a)">
<use x="848.013652" y="1017.267525" fill="#ffffff" stroke="#ffffff" xlink:href="#b"/>
</g>
<g clip-path="url(#a)">
<use x="895.247847" y="1017.267525" fill="#ffffff" stroke="#ffffff" xlink:href="#b"/>
</g>
<g clip-path="url(#a)">
<use x="942.482041" y="1017.267525" fill="#ffffff" stroke="#ffffff" xlink:href="#b"/>
</g>
<g clip-path="url(#a)">
<use x="989.716236" y="1017.267525" fill="#ffffff" stroke="#ffffff" xlink:href="#b"/>
</g>
<g clip-path="url(#a)">
<use x="1036.950431" y="1017.267525" fill="#ffffff" stroke="#ffffff" xlink:href="#b"/>
</g>
<g clip-path="url(#a)">
<use x="1084.184625" y="1017.267525" fill="#ffffff" stroke="#ffffff" xlink:href="#b"/>
</g>
<g clip-path="url(#a)">
<use x="1131.41882" y="1017.267525" fill="#ffffff" stroke="#ffffff" xlink:href="#b"/>
</g>
<g clip-path="url(#a)">
<use x="1178.653015" y="1017.267525" fill="#ffffff" stroke="#ffffff" xlink:href="#b"/>
</g>
<g clip-path="url(#a)">
<use x="1225.88721" y="1017.267525" fill="#ffffff" stroke="#ffffff" xlink:href="#b"/>
</g>
<g clip-path="url(#a)">
<use x="1273.121404" y="1017.267525" fill="#ffffff" stroke="#ffffff" xlink:href="#b"/>
</g>
<g clip-path="url(#a)">
<use x="1320.355599" y="1017.267525" fill="#ffffff" stroke="#ffffff" xlink:href="#b"/>
</g>
<g clip-path="url(#a)">
<use x="1367.589794" y="1017.267525" fill="#ffffff" stroke="#ffffff" xlink:href="#b"/>
</g>
<g clip-path="url(#a)">
<use x="1414.823989" y="1017.267525" fill="#ffffff" stroke="#ffffff" xlink:href="#b"/>
</g>
<g clip-path="url(#a)">
<use x="1462.058183" y="1017.267525" fill="#ffffff" stroke="#ffffff" xlink:href="#b"/>
</g>
<g clip-path="url(#a)">
<use x="1509.292378" y="1017.267525" fill="#ffffff" stroke="#ffffff" xlink:href="#b"/>
</g>
<g clip-path="url(#a)">
<use x="1556.526573" y="1017.267525" fill="#ffffff" stroke="#ffffff" xlink:href="#b"/>
</g>
<g clip-path="url(#a)">
<use x="1603.760767" y="1017.267525" fill="#ffffff" stroke="#ffffff" xlink:href="#b"/>
</g>
<g clip-path="url(#a)">
<use x="1650.994962" y="1017.267525" fill="#ffffff" stroke="#ffffff" xlink:href="#b"/>
</g>
<g clip-path="url(#a)">
<use x="1698.229157" y="1017.267525" fill="#ffffff" stroke="#ffffff" xlink:href="#b"/>
</g>
<g clip-path="url(#a)">
<use x="1745.463352" y="1017.267525" fill="#ffffff" stroke="#ffffff" xlink:href="#b"/>
</g>
<g clip-path="url(#a)">
<use x="1792.697546" y="1017.267525" fill="#ffffff" stroke="#ffffff" xlink:href="#b"/>
</g>
<g clip-path="url(#a)">
<use x="1839.931741" y="1017.267525" fill="#ffffff" stroke="#ffffff" xlink:href="#b"/>
</g>
<g clip-path="url(#a)">
<use x="1887.165936" y="1017.267525" fill="#ffffff" stroke="#ffffff" xlink:href="#b"/>
</g>
<g clip-path="url(#a)">
<use x="1934.400131" y="1017.267525" fill="#ffffff" stroke="#ffffff" xlink:href="#b"/>
</g>
<g clip-path="url(#a)">
<use x="1016.288594" y="49.399141" fill="#ffffff" stroke="#ffffff" xlink:href="#b"/>
</g>
<g clip-path="url(#a)">
<use x="331.061632" y="384.241949" fill="#ffffff" stroke="#ffffff" xlink:href="#b"/>
</g>
<g clip-path="url(#a)">
<use x="715.12062" y="218.924597" fill="#ffffff" stroke="#ffffff" xlink:href="#b"/>
</g>
<g clip-path="url(#a)">
<use x="1414.823989" y="860.862413" fill="#ffffff" stroke="#ffffff" xlink:href="#b"/>
</g>
<g clip-path="url(#a)">
<use x="1704.52705" y="545.876423" fill="#ffffff" stroke="#ffffff" xlink:href="#b"/>
</g>
<g clip-path="url(#a)">
<use x="1517.164744" y="704.457302" fill="#ffffff" stroke="#ffffff" xlink:href="#b"/>
</g>
<g clip-path="url(#a)">
<use x="1650.994962" y="860.862413" fill="#ffffff" stroke="#ffffff" xlink:href="#b"/>
</g>
<g clip-path="url(#a)">
<use x="1698.229157" y="860.862413" fill="#ffffff" stroke="#ffffff" xlink:href="#b"/>
</g>
<g clip-path="url(#a)">
<use x="1769.080449" y="704.457302" fill="#ffffff" stroke="#ffffff" xlink:href="#b"/>
</g>
<g clip-path="url(#a)">
<use x="1887.165936" y="704.457302" fill="#ffffff" stroke="#ffffff" xlink:href="#b"/>
</g>
<g clip-path="url(#a)">
<use x="1839.931741" y="860.862413" fill="#ffffff" stroke="#ffffff" xlink:href="#b"/>
</g>
<g clip-path="url(#a)">
<use x="1887.165936" y="860.862413" fill="#ffffff" stroke="#ffffff" xlink:href="#b"/>
</g>
<g clip-path="url(#a)">
<use x="1745.463352" y="860.862413" fill="#ffffff" stroke="#ffffff" xlink:href="#b"/>
</g>
<g clip-path="url(#a)">
<use x="1792.697546" y="860.862413" fill="#ffffff" stroke="#ffffff" xlink:href="#b"/>
</g>
<g clip-path="url(#a)">
<use x="1462.058183" y="860.862413" fill="#ffffff" stroke="#ffffff" xlink:href="#b"/>
</g>
<g clip-path="url(#a)">
<use x="1509.292378" y="860.862413" fill="#ffffff" stroke="#ffffff" xlink:href="#b"/>
</g>
<g clip-path="url(#a)">
<use x="1580.14367" y="860.862413" fill="#ffffff" stroke="#ffffff" xlink:href="#b"/>
</g>
<g clip-path="url(#a)">
<use x="611.842678" y="860.862413" fill="#ffffff" stroke="#ffffff" xlink:href="#b"/>
</g>
<g clip-path="url(#a)">
<use x="659.076873" y="860.862413" fill="#ffffff" stroke="#ffffff" xlink:href="#b"/>
</g>
<g clip-path="url(#a)">
<use x="874.442308" y="384.241949" fill="#ffffff" stroke="#ffffff" xlink:href="#b"/>
</g>
<g clip-path="url(#a)">
<use x="706.311068" y="860.862413" fill="#ffffff" stroke="#ffffff" xlink:href="#b"/>
</g>
<g clip-path="url(#a)">
<use x="753.545262" y="860.862413" fill="#ffffff" stroke="#ffffff" xlink:href="#b"/>
</g>
<g clip-path="url(#a)">
<use x="800.779457" y="860.862413" fill="#ffffff" stroke="#ffffff" xlink:href="#b"/>
</g>
<g clip-path="url(#a)">
<use x="918.864944" y="860.862413" fill="#ffffff" stroke="#ffffff" xlink:href="#b"/>
</g>
<g clip-path="url(#a)">
<use x="1103.86554" y="545.876423" fill="#ffffff" stroke="#ffffff" xlink:href="#b"/>
</g>
<g clip-path="url(#a)">
<use x="1036.950431" y="860.862413" fill="#ffffff" stroke="#ffffff" xlink:href="#b"/>
</g>
<g clip-path="url(#a)">
<use x="1084.184625" y="860.862413" fill="#ffffff" stroke="#ffffff" xlink:href="#b"/>
</g>
<g clip-path="url(#a)">
<use x="1131.41882" y="860.862413" fill="#ffffff" stroke="#ffffff" xlink:href="#b"/>
</g>
<g clip-path="url(#a)">
<use x="1178.653015" y="860.862413" fill="#ffffff" stroke="#ffffff" xlink:href="#b"/>
</g>
<g clip-path="url(#a)">
<use x="1273.121404" y="704.457302" fill="#ffffff" stroke="#ffffff" xlink:href="#b"/>
</g>
<g clip-path="url(#a)">
<use x="1225.88721" y="860.862413" fill="#ffffff" stroke="#ffffff" xlink:href="#b"/>
</g>
<g clip-path="url(#a)">
<use x="1320.355599" y="860.862413" fill="#ffffff" stroke="#ffffff" xlink:href="#b"/>
</g>
<g clip-path="url(#a)">
<use x="218.224389" y="545.876423" fill="#ffffff" stroke="#ffffff" xlink:href="#b"/>
</g>
<g clip-path="url(#a)">
<use x="399.288802" y="704.457302" fill="#ffffff" stroke="#ffffff" xlink:href="#b"/>
</g>
<g clip-path="url(#a)">
<use x="375.671704" y="860.862413" fill="#ffffff" stroke="#ffffff" xlink:href="#b"/>
</g>
<g clip-path="url(#a)">
<use x="328.43751" y="860.862413" fill="#ffffff" stroke="#ffffff" xlink:href="#b"/>
</g>
<g clip-path="url(#a)">
<use x="470.140094" y="860.862413" fill="#ffffff" stroke="#ffffff" xlink:href="#b"/>
</g>
<g clip-path="url(#a)">
<use x="139.500731" y="704.457302" fill="#ffffff" stroke="#ffffff" xlink:href="#b"/>
</g>
<g clip-path="url(#a)">
<use x="233.96912" y="860.862413" fill="#ffffff" stroke="#ffffff" xlink:href="#b"/>
</g>
<g clip-path="url(#a)">
<use x="281.203315" y="860.862413" fill="#ffffff" stroke="#ffffff" xlink:href="#b"/>
</g>
<g clip-path="url(#a)">
<use x="92.266536" y="860.862413" fill="#ffffff" stroke="#ffffff" xlink:href="#b"/>
</g>
<g clip-path="url(#a)">
<use x="139.500731" y="860.862413" fill="#ffffff" stroke="#ffffff" xlink:href="#b"/>
</g>
<g clip-path="url(#a)">
<use x="186.734926" y="860.862413" fill="#ffffff" stroke="#ffffff" xlink:href="#b"/>
</g>
<g clip-path="url(#a)">
<use x="1278.157219" y="49.399141" fill="#808080" stroke="#808080" xlink:href="#b"/>
</g>
<g clip-path="url(#a)">
<use x="564.608483" y="860.862413" fill="#ffffff" stroke="#ffffff" xlink:href="#b"/>
</g>
<g clip-path="url(#a)">
<use x="848.013652" y="860.862413" fill="#ffffff" stroke="#ffffff" xlink:href="#b"/>
</g>
<g clip-path="url(#a)">
<use x="989.716236" y="860.862413" fill="#ffffff" stroke="#ffffff" xlink:href="#b"/>
</g>
<g clip-path="url(#a)">
<use x="1273.121404" y="860.862413" fill="#ffffff" stroke="#ffffff" xlink:href="#b"/>
</g>
<g clip-path="url(#a)">
<use x="1367.589794" y="860.862413" fill="#ffffff" stroke="#ffffff" xlink:href="#b"/>
</g>
<g clip-path="url(#a)">
<use x="1934.400131" y="860.862413" fill="#ffffff" stroke="#ffffff" xlink:href="#b"/>
</g>
<g clip-path="url(#a)">
<g transform="translate(88.846 1020) scale(.1 -.1)">
<use xlink:href="#p"/>
</g>
</g>
<g clip-path="url(#a)">
<defs>
<path id="ar" d="m37.109 75.984v-7.4844h-8.5938q-4.8281 0-6.7188-1.9531-1.875-1.9531-1.875-7.0312v-4.8281h14.797v-6.9844h-14.797v-47.703h-9.0312v47.703h-8.5938v6.9844h8.5938v3.8125q0 9.125 4.25 13.297 4.25 4.1875 13.469 4.1875z"/>
<path id="z" d="m30.609 48.391q-7.2188 0-11.422-5.6406t-4.2031-15.453 4.1719-15.453q4.1875-5.6406 11.453-5.6406 7.1875 0 11.375 5.6562 4.2031 5.6719 4.2031 15.438 0 9.7188-4.2031 15.406-4.1875 5.6875-11.375 5.6875zm0 7.6094q11.719 0 18.406-7.625 6.7031-7.6094 6.7031-21.078 0-13.422-6.7031-21.078-6.6875-7.6406-18.406-7.6406-11.766 0-18.438 7.6406-6.6562 7.6562-6.6562 21.078 0 13.469 6.6562 21.078 6.6719 7.625 18.438 7.625z"/>
<path id="ad" d="m4.2031 54.688h8.9844l11.234-42.672 11.172 42.672h10.594l11.234-42.672 11.188 42.672h8.9844l-14.312-54.688h-10.594l-11.766 44.828-11.812-44.828h-10.609z"/>
</defs>
<g transform="translate(124.74 1020) scale(.1 -.1)">
<use xlink:href="#ar"/>
<use x="35.205078" xlink:href="#d"/>
<use x="96.728516" xlink:href="#j"/>
<use x="124.511719" xlink:href="#j"/>
<use x="152.294922" xlink:href="#z"/>
<use x="213.476562" xlink:href="#ad"/>
</g>
</g>
<g clip-path="url(#a)">
<defs>
<path id="as" d="m48.688 27.297q0 9.9062-4.0781 15.547t-11.203 5.6406q-7.1406 0-11.219-5.6406t-4.0781-15.547 4.0781-15.547 11.219-5.6406q7.125 0 11.203 5.6406t4.0781 15.547zm-30.578 19.094q2.8438 4.875 7.1562 7.2344 4.3281 2.375 10.328 2.375 9.9688 0 16.188-7.9062 6.2344-7.9062 6.2344-20.797t-6.2344-20.812q-6.2188-7.9062-16.188-7.9062-6 0-10.328 2.375-4.3125 2.375-7.1562 7.25v-8.2031h-9.0312v75.984h9.0312z"/>
<path id="ao" d="m8.5 21.578v33.109h8.9844v-32.766q0-7.7656 3.0156-11.656 3.0312-3.875 9.0938-3.875 7.2656 0 11.484 4.6406 4.2344 4.6406 4.2344 12.656v31h8.9844v-54.688h-8.9844v8.4062q-3.2656-4.9844-7.5938-7.4062-4.3125-2.4219-10.031-2.4219-9.4219 0-14.312 5.8594-4.875 5.8594-4.875 17.141z"/>
<path id="ae" d="m45.406 46.391v29.594h8.9844v-75.984h-8.9844v8.2031q-2.8281-4.875-7.1562-7.25-4.3125-2.375-10.375-2.375-9.9062 0-16.141 7.9062-6.2188 7.9219-6.2188 20.812t6.2188 20.797q6.2344 7.9062 16.141 7.9062 6.0625 0 10.375-2.375 4.3281-2.3594 7.1562-7.2344zm-30.609-19.094q0-9.9062 4.0781-15.547t11.203-5.6406 11.219 5.6406q4.1094 5.6406 4.1094 15.547t-4.1094 15.547q-4.0938 5.6406-11.219 5.6406t-11.203-5.6406-4.0781-15.547z"/>
</defs>
<g transform="translate(169.31 1020) scale(.1 -.1)">
<use xlink:href="#as"/>
<use x="63.476562" xlink:href="#ao"/>
<use x="126.855469" xlink:href="#g"/>
<use x="154.638672" xlink:href="#j"/>
<use x="182.421875" xlink:href="#ae"/>
<use x="245.898438" xlink:href="#d"/>
<use x="307.421875" xlink:href="#i"/>
</g>
</g>
<g clip-path="url(#a)">
<g transform="translate(216.62 1020) scale(.1 -.1)">
<use xlink:href="#f"/>
<use x="63.378906" xlink:href="#e"/>
<use x="124.658203" xlink:href="#k"/>
<use x="222.070312" xlink:href="#d"/>
<use x="283.59375" xlink:href="#ae"/>
</g>
</g>
<g clip-path="url(#a)">
<defs>
<path id="ah" d="m9.8125 72.906h9.8594v-67.828q0-13.188-5-19.141t-16.094-5.9531h-3.75v8.2969h3.0781q6.5312 0 9.2188 3.6719 2.6875 3.6562 2.6875 13.125z"/>
<path id="u" d="m48.781 52.594v-8.4062q-3.8125 2.1094-7.6406 3.1562t-7.7344 1.0469q-8.75 0-13.594-5.5469-4.8281-5.5312-4.8281-15.547t4.8281-15.562q4.8438-5.5312 13.594-5.5312 3.9062 0 7.7344 1.0469t7.6406 3.1562v-8.3125q-3.7656-1.75-7.7969-2.625-4.0156-0.89062-8.5625-0.89062-12.359 0-19.641 7.7656-7.2656 7.7656-7.2656 20.953 0 13.375 7.3438 21.031 7.3594 7.6719 20.156 7.6719 4.1406 0 8.0938-0.85938 3.9531-0.84375 7.6719-2.5469z"/>
<path id="w" d="m9.0781 75.984h9.0312v-44.875l26.812 23.578h11.469l-29-25.578 30.234-29.109h-11.719l-27.797 26.703v-26.703h-9.0312z"/>
</defs>
<g transform="translate(271.02 1020) scale(.1 -.1)">
<use xlink:href="#ah"/>
<use x="29.492188" xlink:href="#e"/>
<use x="90.771484" xlink:href="#u"/>
<use x="145.751953" xlink:href="#w"/>
</g>
</g>
<g clip-path="url(#a)">
<defs>
<path id="t" d="m18.312 70.219v-15.531h18.5v-6.9844h-18.5v-29.688q0-6.6875 1.8281-8.5938t7.4531-1.9062h9.2188v-7.5156h-9.2188q-10.406 0-14.359 3.875-3.9531 3.8906-3.9531 14.141v29.688h-6.5938v6.9844h6.5938v15.531z"/>
</defs>
<g transform="translate(317.46 1020) scale(.1 -.1)">
<use xlink:href="#t"/>
<use x="39.208984" xlink:href="#z"/>
<use x="100.390625" xlink:href="#z"/>
<use x="161.572266" xlink:href="#w"/>
</g>
</g>
<g clip-path="url(#a)">
<defs>
<path id="r" d="m54.891 33.016v-33.016h-8.9844v32.719q0 7.7656-3.0312 11.609-3.0312 3.8594-9.0781 3.8594-7.2812 0-11.484-4.6406-4.2031-4.625-4.2031-12.641v-30.906h-9.0312v75.984h9.0312v-29.797q3.2344 4.9375 7.5938 7.375 4.375 2.4375 10.094 2.4375 9.4219 0 14.25-5.8281 4.8438-5.8281 4.8438-17.156z"/>
</defs>
<g transform="translate(362.78 1020) scale(.1 -.1)">
<use xlink:href="#s"/>
<use x="69.824219" xlink:href="#r"/>
<use x="133.203125" xlink:href="#e"/>
<use x="194.482422" xlink:href="#f"/>
</g>
</g>
<g clip-path="url(#a)">
<g transform="translate(408.26 1020) scale(.1 -.1)">
<use xlink:href="#ao"/>
<use x="63.378906" xlink:href="#f"/>
<use x="126.757812" xlink:href="#ae"/>
<use x="190.234375" xlink:href="#d"/>
<use x="251.757812" xlink:href="#i"/>
</g>
</g>
<g clip-path="url(#a)">
<defs>
<path id="y" d="m44.281 53.078v-8.5q-3.7969 1.9531-7.9062 2.9219-4.0938 0.98438-8.5 0.98438-6.6875 0-10.031-2.0469t-3.3438-6.1562q0-3.125 2.3906-4.9062t9.625-3.3906l3.0781-0.6875q9.5625-2.0469 13.594-5.7812t4.0312-10.422q0-7.625-6.0312-12.078-6.0312-4.4375-16.578-4.4375-4.3906 0-9.1562 0.85938t-10.031 2.5625v9.2812q4.9844-2.5938 9.8125-3.8906 4.8281-1.2812 9.5781-1.2812 6.3438 0 9.75 2.1719 3.4219 2.1719 3.4219 6.125 0 3.6562-2.4688 5.6094-2.4531 1.9531-10.812 3.7656l-3.125 0.73438q-8.3438 1.75-12.062 5.3906-3.7031 3.6406-3.7031 9.9844 0 7.7188 5.4688 11.906 5.4688 4.2031 15.531 4.2031 4.9688 0 9.3594-0.73438 4.4062-0.71875 8.1094-2.1875z"/>
</defs>
<g transform="translate(462.98 1020) scale(.1 -.1)">
<use xlink:href="#r"/>
<use x="63.378906" xlink:href="#g"/>
<use x="91.162109" xlink:href="#y"/>
</g>
</g>
<g clip-path="url(#a)">
<defs>
<path id="aq" d="m45.406 27.984q0 9.7656-4.0312 15.125-4.0156 5.375-11.297 5.375-7.2188 0-11.25-5.375-4.0312-5.3594-4.0312-15.125 0-9.7188 4.0312-15.094t11.25-5.375q7.2812 0 11.297 5.375 4.0312 5.375 4.0312 15.094zm8.9844-21.203q0-13.953-6.2031-20.766-6.1875-6.8125-18.984-6.8125-4.7344 0-8.9375 0.70312t-8.1562 2.1719v8.7344q3.9531-2.1406 7.8125-3.1562 3.8594-1.0312 7.8594-1.0312 8.8438 0 13.234 4.6094t4.3906 13.938v4.4531q-2.7812-4.8438-7.125-7.2344t-10.406-2.3906q-10.047 0-16.203 7.6562-6.1562 7.6719-6.1562 20.328 0 12.688 6.1562 20.344 6.1562 7.6719 16.203 7.6719 6.0625 0 10.406-2.3906t7.125-7.2188v8.2969h8.9844z"/>
</defs>
<g transform="translate(505.55 1020) scale(.1 -.1)">
<use xlink:href="#ad"/>
<use x="81.787109" xlink:href="#g"/>
<use x="109.570312" xlink:href="#f"/>
<use x="172.949219" xlink:href="#aq"/>
</g>
</g>
<g clip-path="url(#a)">
<defs>
<path id="au" d="m11.719 12.406h10.297v-8.4062l-8-15.625h-6.2969l4 15.625z"/>
</defs>
<g transform="translate(563.02 1020) scale(.1 -.1)">
<use xlink:href="#au"/>
</g>
</g>
<g clip-path="url(#a)">
<g transform="translate(592.75 1020) scale(.1 -.1)">
<use xlink:href="#d"/>
<use x="61.523438" xlink:href="#e"/>
<use x="122.802734" xlink:href="#i"/>
<use x="163.900391" xlink:href="#f"/>
<use x="227.279297" xlink:href="#g"/>
<use x="255.0625" xlink:href="#f"/>
<use x="318.441406" xlink:href="#aq"/>
</g>
</g>
<g clip-path="url(#a)">
<g transform="translate(646.18 1020) scale(.1 -.1)">
<use xlink:href="#s"/>
<use x="69.824219" xlink:href="#r"/>
<use x="133.203125" xlink:href="#e"/>
<use x="194.482422" xlink:href="#f"/>
</g>
</g>
<g clip-path="url(#a)">
<g transform="translate(698.11 1020) scale(.1 -.1)">
<use xlink:href="#t"/>
<use x="39.208984" xlink:href="#r"/>
<use x="102.587891" xlink:href="#d"/>
</g>
</g>
<g clip-path="url(#a)">
<g transform="translate(729.16 1020) scale(.1 -.1)">
<use xlink:href="#f"/>
<use x="63.378906" xlink:href="#g"/>
<use x="91.162109" xlink:href="#u"/>
<use x="146.142578" xlink:href="#w"/>
<use x="204.052734" xlink:href="#f"/>
<use x="267.431641" xlink:href="#e"/>
<use x="328.710938" xlink:href="#k"/>
<use x="426.123047" xlink:href="#d"/>
</g>
</g>
<g clip-path="url(#a)">
<g transform="translate(795.96 1020) scale(.1 -.1)">
<use xlink:href="#z"/>
<use x="61.181641" xlink:href="#ar"/>
</g>
</g>
<g clip-path="url(#a)">
<defs>
<path id="al" d="m17.922 72.906v-27.109h-8.2969v27.109zm18.453 0v-27.109h-8.2969v27.109z"/>
</defs>
<g transform="translate(845.71 1020) scale(.1 -.1)">
<use xlink:href="#al"/>
</g>
</g>
<g clip-path="url(#a)">
<g transform="translate(882.69 1020) scale(.1 -.1)">
<use xlink:href="#aa"/>
<use x="55.712891" xlink:href="#g"/>
<use x="83.496094" xlink:href="#t"/>
<use x="122.705078" xlink:href="#t"/>
<use x="161.914062" xlink:href="#j"/>
<use x="189.697266" xlink:href="#d"/>
</g>
</g>
<g clip-path="url(#a)">
<g transform="translate(932.3 1020) scale(.1 -.1)">
<use xlink:href="#ah"/>
<use x="29.492188" xlink:href="#e"/>
<use x="90.771484" xlink:href="#u"/>
<use x="145.751953" xlink:href="#w"/>
</g>
</g>
<g clip-path="url(#a)">
<g transform="translate(987.42 1020) scale(.1 -.1)">
<use xlink:href="#al"/>
</g>
</g>
<g clip-path="url(#a)">
<g transform="translate(1022.4 1020) scale(.1 -.1)">
<use xlink:href="#ad"/>
<use x="81.787109" xlink:href="#r"/>
<use x="145.166016" xlink:href="#g"/>
<use x="172.949219" xlink:href="#u"/>
<use x="227.929688" xlink:href="#r"/>
</g>
</g>
<g clip-path="url(#a)">
<g transform="translate(1074.4 1020) scale(.1 -.1)">
<use xlink:href="#ad"/>
<use x="81.787109" xlink:href="#e"/>
<use x="143.066406" xlink:href="#y"/>
</g>
</g>
<g clip-path="url(#a)">
<g transform="translate(1119.9 1020) scale(.1 -.1)">
<use xlink:href="#j"/>
<use x="27.783203" xlink:href="#e"/>
<use x="89.0625" xlink:href="#t"/>
<use x="128.271484" xlink:href="#d"/>
<use x="189.794922" xlink:href="#i"/>
</g>
</g>
<g clip-path="url(#a)">
<g transform="translate(1153.3 1020) scale(.1 -.1)">
<use xlink:href="#y"/>
<use x="52.099609" xlink:href="#r"/>
<use x="115.478516" xlink:href="#z"/>
<use x="176.660156" xlink:href="#i"/>
<use x="217.773438" xlink:href="#t"/>
<use x="256.982422" xlink:href="#d"/>
<use x="318.505859" xlink:href="#f"/>
<use x="381.884766" xlink:href="#d"/>
<use x="443.408203" xlink:href="#ae"/>
</g>
</g>
<g clip-path="url(#a)">
<g transform="translate(1220.9 1020) scale(.1 -.1)">
<use xlink:href="#t"/>
<use x="39.208984" xlink:href="#z"/>
</g>
</g>
<g clip-path="url(#a)">
<g transform="translate(1270.8 1020) scale(.1 -.1)">
<use xlink:href="#al"/>
</g>
</g>
<g clip-path="url(#a)">
<g transform="translate(1305.7 1020) scale(.1 -.1)">
<use xlink:href="#ah"/>
<use x="29.492188" xlink:href="#e"/>
<use x="90.771484" xlink:href="#u"/>
<use x="145.751953" xlink:href="#w"/>
<use x="203.662109" xlink:href="#g"/>
<use x="231.445312" xlink:href="#d"/>
</g>
</g>
<g clip-path="url(#a)">
<g transform="translate(1365.3 1020) scale(.1 -.1)">
<use xlink:href="#al"/>
</g>
</g>
<g clip-path="url(#a)">
<g transform="translate(1405.4 1020) scale(.1 -.1)">
<use xlink:href="#e"/>
<use x="61.279297" xlink:href="#f"/>
<use x="124.658203" xlink:href="#ae"/>
</g>
</g>
<g clip-path="url(#a)">
<g transform="translate(1453.9 1020) scale(.1 -.1)">
<use xlink:href="#t"/>
<use x="39.208984" xlink:href="#r"/>
<use x="102.587891" xlink:href="#d"/>
</g>
</g>
<g clip-path="url(#a)">
<g transform="translate(1495.1 1020) scale(.1 -.1)">
<use xlink:href="#f"/>
<use x="63.378906" xlink:href="#e"/>
<use x="124.658203" xlink:href="#k"/>
<use x="222.070312" xlink:href="#d"/>
</g>
</g>
<g clip-path="url(#a)">
<g transform="translate(1541.9 1020) scale(.1 -.1)">
<use xlink:href="#ah"/>
<use x="29.492188" xlink:href="#e"/>
<use x="90.771484" xlink:href="#u"/>
<use x="145.751953" xlink:href="#w"/>
<use x="203.662109" xlink:href="#g"/>
<use x="231.445312" xlink:href="#d"/>
</g>
</g>
<g clip-path="url(#a)">
<g transform="translate(1590.9 1020) scale(.1 -.1)">
<use xlink:href="#s"/>
<use x="69.824219" xlink:href="#r"/>
<use x="133.203125" xlink:href="#e"/>
<use x="194.482422" xlink:href="#f"/>
</g>
</g>
<g clip-path="url(#a)">
<g transform="translate(1642.2 1020) scale(.1 -.1)">
<use xlink:href="#r"/>
<use x="63.378906" xlink:href="#e"/>
<use x="124.658203" xlink:href="#y"/>
</g>
</g>
<g clip-path="url(#a)">
<g transform="translate(1684.9 1020) scale(.1 -.1)">
<use xlink:href="#y"/>
<use x="52.099609" xlink:href="#t"/>
<use x="91.308594" xlink:href="#ao"/>
<use x="154.6875" xlink:href="#u"/>
<use x="209.667969" xlink:href="#w"/>
</g>
</g>
<g clip-path="url(#a)">
<g transform="translate(1734.9 1020) scale(.1 -.1)">
<use xlink:href="#ad"/>
<use x="81.787109" xlink:href="#g"/>
<use x="109.570312" xlink:href="#t"/>
<use x="148.779297" xlink:href="#r"/>
</g>
</g>
<g clip-path="url(#a)">
<g transform="translate(1783.3 1020) scale(.1 -.1)">
<use xlink:href="#r"/>
<use x="63.378906" xlink:href="#g"/>
<use x="91.162109" xlink:href="#k"/>
</g>
</g>
<g clip-path="url(#a)">
<defs>
<path id="av" d="m2.9844 54.688h9.5156l17.094-45.891 17.094 45.891h9.5156l-20.516-54.688h-12.203z"/>
</defs>
<g transform="translate(1828.8 1020) scale(.1 -.1)">
<use xlink:href="#d"/>
<use x="61.523438" xlink:href="#av"/>
<use x="120.703125" xlink:href="#d"/>
<use x="182.226562" xlink:href="#i"/>
</g>
</g>
<g clip-path="url(#a)">
<g transform="translate(1874.2 1020) scale(.1 -.1)">
<use xlink:href="#y"/>
<use x="52.099609" xlink:href="#g"/>
<use x="79.882812" xlink:href="#f"/>
<use x="143.261719" xlink:href="#u"/>
<use x="198.242188" xlink:href="#d"/>
</g>
</g>
<g clip-path="url(#a)">
<defs>
<path id="h" d="m10.688 12.406h10.312v-12.406h-10.312z"/>
</defs>
<g transform="translate(1932.8 1020) scale(.1 -.1)">
<use xlink:href="#h"/>
</g>
</g>
<g clip-path="url(#a)">
<defs>
<path id="c" d="m12.406 8.2969h16.109v55.625l-17.531-3.5156v8.9844l17.438 3.5156h9.8594v-64.609h16.109v-8.2969h-41.984z"/>
</defs>
<g transform="translate(1008.3 52.159) scale(.1 -.1)">
<use xlink:href="#c"/>
<use x="63.623047" xlink:href="#h"/>
<use x="95.410156" xlink:href="#c"/>
</g>
</g>
<g clip-path="url(#a)">
<defs>
<path id="n" d="m19.188 8.2969h34.422v-8.2969h-46.281v8.2969q5.6094 5.8125 15.297 15.594 9.7031 9.7969 12.188 12.641 4.7344 5.3125 6.6094 9 1.8906 3.6875 1.8906 7.25 0 5.8125-4.0781 9.4688-4.0781 3.6719-10.625 3.6719-4.6406 0-9.7969-1.6094-5.1406-1.6094-11-4.8906v9.9688q5.9531 2.3906 11.125 3.6094 5.1875 1.2188 9.4844 1.2188 11.328 0 18.062-5.6719 6.7344-5.6562 6.7344-15.125 0-4.5-1.6875-8.5312-1.6719-4.0156-6.125-9.4844-1.2188-1.4219-7.7656-8.1875-6.5312-6.7656-18.453-18.922z"/>
</defs>
<g transform="translate(323.11 387) scale(.1 -.1)">
<use xlink:href="#c"/>
<use x="63.623047" xlink:href="#h"/>
<use x="95.410156" xlink:href="#n"/>
</g>
</g>
<g clip-path="url(#a)">
<defs>
<path id="o" d="m40.578 39.312q7.0781-1.5156 11.047-6.3125 3.9844-4.7812 3.9844-11.812 0-10.781-7.4219-16.703-7.4219-5.9062-21.094-5.9062-4.5781 0-9.4375 0.90625t-10.031 2.7188v9.5156q4.0938-2.3906 8.9688-3.6094 4.8906-1.2188 10.219-1.2188 9.2656 0 14.125 3.6562t4.8594 10.641q0 6.4531-4.5156 10.078-4.5156 3.6406-12.562 3.6406h-8.5v8.1094h8.8906q7.2656 0 11.125 2.9062t3.8594 8.375q0 5.6094-3.9844 8.6094-3.9688 3.0156-11.391 3.0156-4.0625 0-8.7031-0.89062-4.6406-0.875-10.203-2.7188v8.7812q5.625 1.5625 10.531 2.3438t9.25 0.78125q11.234 0 17.766-5.1094 6.5469-5.0938 6.5469-13.781 0-6.0625-3.4688-10.234t-9.8594-5.7812z"/>
</defs>
<g transform="translate(707.17 221.68) scale(.1 -.1)">
<use xlink:href="#c"/>
<use x="63.623047" xlink:href="#h"/>
<use x="95.410156" xlink:href="#o"/>
</g>
</g>
<g clip-path="url(#a)">
<defs>
<path id="m" d="m37.797 64.312-24.906-38.922h24.906zm-2.5938 8.5938h12.406v-47.516h10.406v-8.2031h-10.406v-17.188h-9.8125v17.188h-32.906v9.5156z"/>
</defs>
<g transform="translate(1406.9 863.62) scale(.1 -.1)">
<use xlink:href="#c"/>
<use x="63.623047" xlink:href="#h"/>
<use x="95.410156" xlink:href="#m"/>
</g>
</g>
<g clip-path="url(#a)">
<defs>
<path id="q" d="m10.797 72.906h38.719v-8.3125h-29.688v-17.859q2.1406 0.73438 4.2812 1.0938 2.1562 0.35938 4.3125 0.35938 12.203 0 19.328-6.6875 7.1406-6.6875 7.1406-18.109 0-11.766-7.3281-18.297-7.3281-6.5156-20.656-6.5156-4.5938 0-9.3594 0.78125-4.75 0.78125-9.8281 2.3438v9.9219q4.3906-2.3906 9.0781-3.5625t9.9062-1.1719q8.4531 0 13.375 4.4375 4.9375 4.4375 4.9375 12.062 0 7.6094-4.9375 12.047-4.9219 4.4531-13.375 4.4531-3.9531 0-7.8906-0.875-3.9219-0.875-8.0156-2.7344z"/>
</defs>
<g transform="translate(1696.6 548.64) scale(.1 -.1)">
<use xlink:href="#c"/>
<use x="63.623047" xlink:href="#h"/>
<use x="95.410156" xlink:href="#q"/>
</g>
</g>
<g clip-path="url(#a)">
<defs>
<path id="ai" d="m10.984 1.5156v8.9844q3.7188-1.7656 7.5156-2.6875 3.8125-0.92188 7.4844-0.92188 9.7656 0 14.906 6.5625 5.1562 6.5625 5.8906 19.953-2.8281-4.2031-7.1875-6.4531-4.3438-2.25-9.6094-2.25-10.938 0-17.312 6.6094-6.375 6.625-6.375 18.109 0 11.219 6.6406 18 6.6406 6.7969 17.672 6.7969 12.656 0 19.312-9.7031 6.6719-9.6875 6.6719-28.141 0-17.234-8.1875-27.516-8.1719-10.281-21.984-10.281-3.7188 0-7.5312 0.73438-3.7969 0.73438-7.9062 2.2031zm19.625 30.906q6.6406 0 10.516 4.5312 3.8906 4.5469 3.8906 12.469 0 7.8594-3.8906 12.422-3.875 4.5625-10.516 4.5625t-10.516-4.5625-3.875-12.422q0-7.9219 3.875-12.469 3.875-4.5312 10.516-4.5312z"/>
</defs>
<g transform="translate(1509.2 707.22) scale(.1 -.1)">
<use xlink:href="#c"/>
<use x="63.623047" xlink:href="#h"/>
<use x="95.410156" xlink:href="#ai"/>
</g>
</g>
<g clip-path="url(#a)">
<defs>
<path id="ak" d="m31.781 66.406q-7.6094 0-11.453-7.5-3.8281-7.4844-3.8281-22.531 0-14.984 3.8281-22.484 3.8438-7.5 11.453-7.5 7.6719 0 11.5 7.5 3.8438 7.5 3.8438 22.484 0 15.047-3.8438 22.531-3.8281 7.5-11.5 7.5zm0 7.8125q12.266 0 18.734-9.7031 6.4688-9.6875 6.4688-28.141 0-18.406-6.4688-28.109-6.4688-9.6875-18.734-9.6875-12.25 0-18.719 9.6875-6.4688 9.7031-6.4688 28.109 0 18.453 6.4688 28.141 6.4688 9.7031 18.719 9.7031z"/>
</defs>
<g transform="translate(1639.9 863.62) scale(.1 -.1)">
<use xlink:href="#c"/>
<use x="63.623047" xlink:href="#h"/>
<use x="95.410156" xlink:href="#c"/>
<use x="159.033203" xlink:href="#ak"/>
</g>
</g>
<g clip-path="url(#a)">
<g transform="translate(1687.1 863.62) scale(.1 -.1)">
<use xlink:href="#c"/>
<use x="63.623047" xlink:href="#h"/>
<use x="95.410156" xlink:href="#c"/>
<use x="159.033203" xlink:href="#c"/>
</g>
</g>
<g clip-path="url(#a)">
<g transform="translate(1757.9 707.22) scale(.1 -.1)">
<use xlink:href="#c"/>
<use x="63.623047" xlink:href="#h"/>
<use x="95.410156" xlink:href="#c"/>
<use x="159.033203" xlink:href="#n"/>
</g>
</g>
<g clip-path="url(#a)">
<g transform="translate(1876 707.22) scale(.1 -.1)">
<use xlink:href="#c"/>
<use x="63.623047" xlink:href="#h"/>
<use x="95.410156" xlink:href="#c"/>
<use x="159.033203" xlink:href="#o"/>
</g>
</g>
<g clip-path="url(#a)">
<g transform="translate(1828.8 863.62) scale(.1 -.1)">
<use xlink:href="#c"/>
<use x="63.623047" xlink:href="#h"/>
<use x="95.410156" xlink:href="#c"/>
<use x="159.033203" xlink:href="#m"/>
</g>
</g>
<g clip-path="url(#a)">
<g transform="translate(1876 863.62) scale(.1 -.1)">
<use xlink:href="#c"/>
<use x="63.623047" xlink:href="#h"/>
<use x="95.410156" xlink:href="#c"/>
<use x="159.033203" xlink:href="#q"/>
</g>
</g>
<g clip-path="url(#a)">
<defs>
<path id="ac" d="m33.016 40.375q-6.6406 0-10.531-4.5469-3.875-4.5312-3.875-12.438 0-7.8594 3.875-12.438 3.8906-4.5625 10.531-4.5625t10.516 4.5625q3.875 4.5781 3.875 12.438 0 7.9062-3.875 12.438-3.875 4.5469-10.516 4.5469zm19.578 30.922v-8.9844q-3.7188 1.75-7.5 2.6719-3.7812 0.9375-7.5 0.9375-9.7656 0-14.922-6.5938-5.1406-6.5938-5.875-19.922 2.875 4.25 7.2188 6.5156 4.3594 2.2656 9.5781 2.2656 10.984 0 17.359-6.6719 6.375-6.6562 6.375-18.125 0-11.234-6.6406-18.031-6.6406-6.7812-17.672-6.7812-12.656 0-19.344 9.6875-6.6875 9.7031-6.6875 28.109 0 17.281 8.2031 27.562t22.016 10.281q3.7188 0 7.5-0.73438t7.8906-2.1875z"/>
</defs>
<g transform="translate(1734.3 863.62) scale(.1 -.1)">
<use xlink:href="#c"/>
<use x="63.623047" xlink:href="#h"/>
<use x="95.410156" xlink:href="#c"/>
<use x="159.033203" xlink:href="#ac"/>
</g>
</g>
<g clip-path="url(#a)">
<defs>
<path id="aj" d="m8.2031 72.906h46.875v-4.2031l-26.469-68.703h-10.297l24.906 64.594h-35.016z"/>
</defs>
<g transform="translate(1781.6 863.62) scale(.1 -.1)">
<use xlink:href="#c"/>
<use x="63.623047" xlink:href="#h"/>
<use x="95.410156" xlink:href="#c"/>
<use x="159.033203" xlink:href="#aj"/>
</g>
</g>
<g clip-path="url(#a)">
<defs>
<path id="an" d="m31.781 34.625q-7.0312 0-11.062-3.7656-4.0156-3.7656-4.0156-10.344 0-6.5938 4.0156-10.359 4.0312-3.7656 11.062-3.7656t11.078 3.7812q4.0625 3.7969 4.0625 10.344 0 6.5781-4.0312 10.344-4.0156 3.7656-11.109 3.7656zm-9.8594 4.1875q-6.3438 1.5625-9.8906 5.9062-3.5312 4.3594-3.5312 10.609 0 8.7344 6.2188 13.812 6.2344 5.0781 17.062 5.0781 10.891 0 17.094-5.0781t6.2031-13.812q0-6.25-3.5469-10.609-3.5312-4.3438-9.8281-5.9062 7.125-1.6562 11.094-6.5 3.9844-4.8281 3.9844-11.797 0-10.609-6.4688-16.281-6.4688-5.6562-18.531-5.6562-12.047 0-18.531 5.6562-6.4688 5.6719-6.4688 16.281 0 6.9688 4 11.797 4.0156 4.8438 11.141 6.5zm-3.6094 15.578q0-5.6562 3.5312-8.8281 3.5469-3.1719 9.9375-3.1719 6.3594 0 9.9375 3.1719 3.5938 3.1719 3.5938 8.8281 0 5.6719-3.5938 8.8438-3.5781 3.1719-9.9375 3.1719-6.3906 0-9.9375-3.1719-3.5312-3.1719-3.5312-8.8438z"/>
</defs>
<g transform="translate(1450.9 863.62) scale(.1 -.1)">
<use xlink:href="#c"/>
<use x="63.623047" xlink:href="#h"/>
<use x="95.410156" xlink:href="#c"/>
<use x="159.033203" xlink:href="#an"/>
</g>
</g>
<g clip-path="url(#a)">
<g transform="translate(1498.2 863.62) scale(.1 -.1)">
<use xlink:href="#c"/>
<use x="63.623047" xlink:href="#h"/>
<use x="95.410156" xlink:href="#c"/>
<use x="159.033203" xlink:href="#ai"/>
</g>
</g>
<g clip-path="url(#a)">
<g transform="translate(1569 863.62) scale(.1 -.1)">
<use xlink:href="#c"/>
<use x="63.623047" xlink:href="#h"/>
<use x="95.410156" xlink:href="#n"/>
<use x="159.033203" xlink:href="#ak"/>
</g>
</g>
<g clip-path="url(#a)">
<g transform="translate(600.71 863.62) scale(.1 -.1)">
<use xlink:href="#c"/>
<use x="63.623047" xlink:href="#h"/>
<use x="95.410156" xlink:href="#n"/>
<use x="159.033203" xlink:href="#c"/>
</g>
</g>
<g clip-path="url(#a)">
<g transform="translate(647.94 863.62) scale(.1 -.1)">
<use xlink:href="#c"/>
<use x="63.623047" xlink:href="#h"/>
<use x="95.410156" xlink:href="#n"/>
<use x="159.033203" xlink:href="#n"/>
</g>
</g>
<g clip-path="url(#a)">
<g transform="translate(863.31 387) scale(.1 -.1)">
<use xlink:href="#c"/>
<use x="63.623047" xlink:href="#h"/>
<use x="95.410156" xlink:href="#n"/>
<use x="159.033203" xlink:href="#o"/>
</g>
</g>
<g clip-path="url(#a)">
<g transform="translate(695.18 863.62) scale(.1 -.1)">
<use xlink:href="#c"/>
<use x="63.623047" xlink:href="#h"/>
<use x="95.410156" xlink:href="#n"/>
<use x="159.033203" xlink:href="#m"/>
</g>
</g>
<g clip-path="url(#a)">
<g transform="translate(742.41 863.62) scale(.1 -.1)">
<use xlink:href="#c"/>
<use x="63.623047" xlink:href="#h"/>
<use x="95.410156" xlink:href="#n"/>
<use x="159.033203" xlink:href="#q"/>
</g>
</g>
<g clip-path="url(#a)">
<g transform="translate(789.65 863.62) scale(.1 -.1)">
<use xlink:href="#c"/>
<use x="63.623047" xlink:href="#h"/>
<use x="95.410156" xlink:href="#n"/>
<use x="159.033203" xlink:href="#ac"/>
</g>
</g>
<g clip-path="url(#a)">
<g transform="translate(907.73 863.62) scale(.1 -.1)">
<use xlink:href="#c"/>
<use x="63.623047" xlink:href="#h"/>
<use x="95.410156" xlink:href="#n"/>
<use x="159.033203" xlink:href="#aj"/>
</g>
</g>
<g clip-path="url(#a)">
<g transform="translate(1092.7 548.64) scale(.1 -.1)">
<use xlink:href="#c"/>
<use x="63.623047" xlink:href="#h"/>
<use x="95.410156" xlink:href="#n"/>
<use x="159.033203" xlink:href="#an"/>
</g>
</g>
<g clip-path="url(#a)">
<g transform="translate(1025.8 863.62) scale(.1 -.1)">
<use xlink:href="#c"/>
<use x="63.623047" xlink:href="#h"/>
<use x="95.410156" xlink:href="#o"/>
<use x="159.033203" xlink:href="#c"/>
</g>
</g>
<g clip-path="url(#a)">
<g transform="translate(1073.1 863.62) scale(.1 -.1)">
<use xlink:href="#c"/>
<use x="63.623047" xlink:href="#h"/>
<use x="95.410156" xlink:href="#o"/>
<use x="159.033203" xlink:href="#n"/>
</g>
</g>
<g clip-path="url(#a)">
<g transform="translate(1120.3 863.62) scale(.1 -.1)">
<use xlink:href="#c"/>
<use x="63.623047" xlink:href="#h"/>
<use x="95.410156" xlink:href="#o"/>
<use x="159.033203" xlink:href="#o"/>
</g>
</g>
<g clip-path="url(#a)">
<g transform="translate(1167.5 863.62) scale(.1 -.1)">
<use xlink:href="#c"/>
<use x="63.623047" xlink:href="#h"/>
<use x="95.410156" xlink:href="#o"/>
<use x="159.033203" xlink:href="#m"/>
</g>
</g>
<g clip-path="url(#a)">
<g transform="translate(1262 707.22) scale(.1 -.1)">
<use xlink:href="#c"/>
<use x="63.623047" xlink:href="#h"/>
<use x="95.410156" xlink:href="#o"/>
<use x="159.033203" xlink:href="#q"/>
</g>
</g>
<g clip-path="url(#a)">
<g transform="translate(1214.8 863.62) scale(.1 -.1)">
<use xlink:href="#c"/>
<use x="63.623047" xlink:href="#h"/>
<use x="95.410156" xlink:href="#o"/>
<use x="159.033203" xlink:href="#ac"/>
</g>
</g>
<g clip-path="url(#a)">
<g transform="translate(1309.2 863.62) scale(.1 -.1)">
<use xlink:href="#c"/>
<use x="63.623047" xlink:href="#h"/>
<use x="95.410156" xlink:href="#o"/>
<use x="159.033203" xlink:href="#aj"/>
</g>
</g>
<g clip-path="url(#a)">
<g transform="translate(207.09 548.64) scale(.1 -.1)">
<use xlink:href="#c"/>
<use x="63.623047" xlink:href="#h"/>
<use x="95.410156" xlink:href="#o"/>
<use x="159.033203" xlink:href="#ai"/>
</g>
</g>
<g clip-path="url(#a)">
<g transform="translate(388.16 707.22) scale(.1 -.1)">
<use xlink:href="#c"/>
<use x="63.623047" xlink:href="#h"/>
<use x="95.410156" xlink:href="#m"/>
<use x="159.033203" xlink:href="#ak"/>
</g>
</g>
<g clip-path="url(#a)">
<g transform="translate(364.54 863.62) scale(.1 -.1)">
<use xlink:href="#c"/>
<use x="63.623047" xlink:href="#h"/>
<use x="95.410156" xlink:href="#m"/>
<use x="159.033203" xlink:href="#c"/>
</g>
</g>
<g clip-path="url(#a)">
<g transform="translate(317.3 863.62) scale(.1 -.1)">
<use xlink:href="#c"/>
<use x="63.623047" xlink:href="#h"/>
<use x="95.410156" xlink:href="#m"/>
<use x="159.033203" xlink:href="#n"/>
</g>
</g>
<g clip-path="url(#a)">
<g transform="translate(459.01 863.62) scale(.1 -.1)">
<use xlink:href="#c"/>
<use x="63.623047" xlink:href="#h"/>
<use x="95.410156" xlink:href="#m"/>
<use x="159.033203" xlink:href="#o"/>
</g>
</g>
<g clip-path="url(#a)">
<g transform="translate(128.37 707.22) scale(.1 -.1)">
<use xlink:href="#c"/>
<use x="63.623047" xlink:href="#h"/>
<use x="95.410156" xlink:href="#m"/>
<use x="159.033203" xlink:href="#m"/>
</g>
</g>
<g clip-path="url(#a)">
<g transform="translate(222.84 863.62) scale(.1 -.1)">
<use xlink:href="#c"/>
<use x="63.623047" xlink:href="#h"/>
<use x="95.410156" xlink:href="#m"/>
<use x="159.033203" xlink:href="#q"/>
</g>
</g>
<g clip-path="url(#a)">
<g transform="translate(270.07 863.62) scale(.1 -.1)">
<use xlink:href="#c"/>
<use x="63.623047" xlink:href="#h"/>
<use x="95.410156" xlink:href="#m"/>
<use x="159.033203" xlink:href="#ac"/>
</g>
</g>
<g clip-path="url(#a)">
<g transform="translate(81.134 863.62) scale(.1 -.1)">
<use xlink:href="#c"/>
<use x="63.623047" xlink:href="#h"/>
<use x="95.410156" xlink:href="#m"/>
<use x="159.033203" xlink:href="#aj"/>
</g>
</g>
<g clip-path="url(#a)">
<g transform="translate(128.37 863.62) scale(.1 -.1)">
<use xlink:href="#c"/>
<use x="63.623047" xlink:href="#h"/>
<use x="95.410156" xlink:href="#m"/>
<use x="159.033203" xlink:href="#an"/>
</g>
</g>
<g clip-path="url(#a)">
<g transform="translate(175.6 863.62) scale(.1 -.1)">
<use xlink:href="#c"/>
<use x="63.623047" xlink:href="#h"/>
<use x="95.410156" xlink:href="#m"/>
<use x="159.033203" xlink:href="#ai"/>
</g>
</g>
<g clip-path="url(#a)">
<g transform="translate(1267 52.159) scale(.1 -.1)">
<use xlink:href="#c"/>
<use x="63.623047" xlink:href="#h"/>
<use x="95.410156" xlink:href="#q"/>
<use x="159.033203" xlink:href="#ak"/>
</g>
</g>
<g clip-path="url(#a)">
<g transform="translate(553.48 863.62) scale(.1 -.1)">
<use xlink:href="#c"/>
<use x="63.623047" xlink:href="#h"/>
<use x="95.410156" xlink:href="#q"/>
<use x="159.033203" xlink:href="#c"/>
</g>
</g>
<g clip-path="url(#a)">
<g transform="translate(836.88 863.62) scale(.1 -.1)">
<use xlink:href="#c"/>
<use x="63.623047" xlink:href="#h"/>
<use x="95.410156" xlink:href="#q"/>
<use x="159.033203" xlink:href="#n"/>
</g>
</g>
<g clip-path="url(#a)">
<g transform="translate(978.58 863.62) scale(.1 -.1)">
<use xlink:href="#c"/>
<use x="63.623047" xlink:href="#h"/>
<use x="95.410156" xlink:href="#q"/>
<use x="159.033203" xlink:href="#o"/>
</g>
</g>
<g clip-path="url(#a)">
<g transform="translate(1262 863.62) scale(.1 -.1)">
<use xlink:href="#c"/>
<use x="63.623047" xlink:href="#h"/>
<use x="95.410156" xlink:href="#q"/>
<use x="159.033203" xlink:href="#m"/>
</g>
</g>
<g clip-path="url(#a)">
<g transform="translate(1356.5 863.62) scale(.1 -.1)">
<use xlink:href="#c"/>
<use x="63.623047" xlink:href="#h"/>
<use x="95.410156" xlink:href="#q"/>
<use x="159.033203" xlink:href="#q"/>
</g>
</g>
<g clip-path="url(#a)">
<g transform="translate(1923.3 863.62) scale(.1 -.1)">
<use xlink:href="#c"/>
<use x="63.623047" xlink:href="#h"/>
<use x="95.410156" xlink:href="#q"/>
<use x="159.033203" xlink:href="#ac"/>
</g>
</g>
<defs>
<clipPath id="a">
<rect width="2026.7" height="1066.7"/>
</clipPath>
</defs>
</svg>
