<?xml version="1.0" encoding="UTF-8"?>
<!DOCTYPE svg  PUBLIC '-//W3C//DTD SVG 1.1//EN'  'http://www.w3.org/Graphics/SVG/1.1/DTD/svg11.dtd'>
<svg width="2229.3pt" height="1173.3pt" version="1.1" viewBox="0 0 2229.3 1173.3" xmlns="http://www.w3.org/2000/svg" xmlns:xlink="http://www.w3.org/1999/xlink">
<defs>
<style type="text/css">*{stroke-linecap:butt;stroke-linejoin:round;}</style>
</defs>
<path d="m0 1173.3h2229.3v-1173.3h-2229.3z" fill="#fff"/>
<g fill="none" stroke="#000">
<path d="m423.46 54.003v144.58" clip-path="url(#a)"/>
<path d="m423.46 198.59-298.43 668.56" clip-path="url(#a)"/>
<path d="m423.46 198.59-180.61 668.56" clip-path="url(#a)"/>
<path d="m423.46 198.59-86.363 794.65" clip-path="url(#a)"/>
<path d="m423.46 198.59 31.451 668.56" clip-path="url(#a)"/>
<path d="m423.46 198.59 172.83 668.56" clip-path="url(#a)"/>
<path d="m423.46 198.59 361.13 140.45" clip-path="url(#a)"/>
<path d="m125.03 867.14-23.563 126.09" clip-path="url(#a)"/>
<path d="m125.03 867.14 23.563 126.09" clip-path="url(#a)"/>
<path d="m242.84 867.14-47.126 126.09" clip-path="url(#a)"/>
<path d="m242.84 867.14 47.126 126.09" clip-path="url(#a)"/>
<path d="m242.84 867.14v126.09" clip-path="url(#a)"/>
<path d="m337.09 993.24v126.09" clip-path="url(#a)"/>
<path d="m454.91 867.14-70.688 126.09" clip-path="url(#a)"/>
<path d="m454.91 867.14-23.563 126.09" clip-path="url(#a)"/>
<path d="m454.91 867.14 23.563 126.09" clip-path="url(#a)"/>
<path d="m454.91 867.14 70.688 126.09" clip-path="url(#a)"/>
<path d="m596.28 867.14-23.563 126.09" clip-path="url(#a)"/>
<path d="m596.28 867.14 23.563 126.09" clip-path="url(#a)"/>
<path d="m784.58 339.03-117.61 654.2" clip-path="url(#a)"/>
<path d="m784.58 339.03-46.921 654.2" clip-path="url(#a)"/>
<path d="m784.58 339.03 140.76 136.67" clip-path="url(#a)"/>
<path d="m784.58 339.03 23.767 654.2" clip-path="url(#a)"/>
<path d="m666.97 993.24v126.09" clip-path="url(#a)"/>
<path d="m737.66 993.24-23.563 126.09" clip-path="url(#a)"/>
<path d="m737.66 993.24 23.563 126.09" clip-path="url(#a)"/>
<path d="m925.35 475.7-187.68 517.53" clip-path="url(#a)" stroke-dasharray="3.7,1.6"/>
<path d="m925.35 475.7-69.87 517.53" clip-path="url(#a)"/>
<path d="m925.35 475.7-22.745 517.53" clip-path="url(#a)"/>
<path d="m925.35 475.7 280.3 133.28" clip-path="url(#a)"/>
<path d="m855.48 993.24v126.09" clip-path="url(#a)"/>
<path d="m902.6 993.24v126.09" clip-path="url(#a)"/>
<path d="m1205.6 608.98-255.92 384.25" clip-path="url(#a)"/>
<path d="m1205.6 608.98-208.79 384.25" clip-path="url(#a)"/>
<path d="m1205.6 608.98-35.999 130.31" clip-path="url(#a)"/>
<path d="m1205.6 608.98 73.961 384.25" clip-path="url(#a)"/>
<path d="m1205.6 608.98 121.09 384.25" clip-path="url(#a)"/>
<path d="m1205.6 608.98 305.66 130.31" clip-path="url(#a)"/>
<path d="m949.73 993.24v126.09" clip-path="url(#a)"/>
<path d="m996.85 993.24v126.09" clip-path="url(#a)"/>
<path d="m1169.6 739.29-78.543 127.85" clip-path="url(#a)"/>
<path d="m1169.6 739.29 15.709 253.94" clip-path="url(#a)"/>
<path d="m1169.6 739.29 62.834 253.94" clip-path="url(#a)"/>
<path d="m1279.6 993.24v126.09" clip-path="url(#a)"/>
<path d="m1326.7 993.24v126.09" clip-path="url(#a)"/>
<path d="m1511.3 739.29-184.58 253.94" clip-path="url(#a)" stroke-dasharray="3.7,1.6"/>
<path d="m1511.3 739.29-137.45 253.94" clip-path="url(#a)"/>
<path d="m1511.3 739.29-90.324 253.94" clip-path="url(#a)"/>
<path d="m1511.3 739.29-43.199 253.94" clip-path="url(#a)"/>
<path d="m1511.3 739.29 62.834 127.85" clip-path="url(#a)"/>
<path d="m1511.3 739.29 392.71 127.85" clip-path="url(#a)"/>
<path d="m1373.9 993.24v126.09" clip-path="url(#a)"/>
<path d="m1421 993.24v126.09" clip-path="url(#a)"/>
<path d="m1468.1 993.24v126.09" clip-path="url(#a)"/>
<path d="m1574.1 867.14-58.907 126.09" clip-path="url(#a)"/>
<path d="m1574.1 867.14 58.907 126.09" clip-path="url(#a)"/>
<path d="m1904 867.14-153.16 126.09" clip-path="url(#a)"/>
<path d="m1904 867.14-106.03 126.09" clip-path="url(#a)"/>
<path d="m1904 867.14-58.907 126.09" clip-path="url(#a)"/>
<path d="m1904 867.14-11.781 126.09" clip-path="url(#a)"/>
<path d="m1904 867.14 106.03 126.09" clip-path="url(#a)"/>
<path d="m1904 867.14 223.85 126.09" clip-path="url(#a)"/>
<path d="m1750.9 993.24v126.09" clip-path="url(#a)"/>
<path d="m1798 993.24v126.09" clip-path="url(#a)"/>
<path d="m1845.1 993.24v126.09" clip-path="url(#a)"/>
<path d="m1892.2 993.24v126.09" clip-path="url(#a)"/>
<path d="m2010.1 993.24-70.688 126.09" clip-path="url(#a)"/>
<path d="m2010.1 993.24-23.563 126.09" clip-path="url(#a)"/>
<path d="m2010.1 993.24 23.563 126.09" clip-path="url(#a)"/>
<path d="m2010.1 993.24 70.688 126.09" clip-path="url(#a)"/>
<path d="m1515.2 993.24v126.09" clip-path="url(#a)"/>
<path d="m1633 993.24-70.688 126.09" clip-path="url(#a)"/>
<path d="m1633 993.24-23.563 126.09" clip-path="url(#a)"/>
<path d="m1633 993.24 23.563 126.09" clip-path="url(#a)"/>
<path d="m1633 993.24 70.688 126.09" clip-path="url(#a)"/>
<path d="m1091.1 867.14-47.126 126.09" clip-path="url(#a)"/>
<path d="m1091.1 867.14 47.126 126.09" clip-path="url(#a)"/>
<path d="m1091.1 867.14v126.09" clip-path="url(#a)"/>
<path d="m1185.4 993.24v126.09" clip-path="url(#a)"/>
<path d="m1232.5 993.24v126.09" clip-path="url(#a)"/>
<path d="m1044 993.24v126.09" clip-path="url(#a)"/>
<path d="m1138.2 993.24v126.09" clip-path="url(#a)"/>
<path d="m572.72 993.24v126.09" clip-path="url(#a)"/>
<path d="m619.85 993.24v126.09" clip-path="url(#a)"/>
<path d="m384.22 993.24v126.09" clip-path="url(#a)"/>
<path d="m431.34 993.24v126.09" clip-path="url(#a)"/>
<path d="m478.47 993.24v126.09" clip-path="url(#a)"/>
<path d="m525.6 993.24v126.09" clip-path="url(#a)"/>
<path d="m195.72 993.24v126.09" clip-path="url(#a)"/>
<path d="m289.97 993.24v126.09" clip-path="url(#a)"/>
<path d="m242.84 993.24v126.09" clip-path="url(#a)"/>
<path d="m101.47 993.24v126.09" clip-path="url(#a)"/>
<path d="m148.59 993.24v126.09" clip-path="url(#a)"/>
<path d="m808.35 993.24v126.09" clip-path="url(#a)"/>
<path d="m1091.1 993.24v126.09" clip-path="url(#a)"/>
<path d="m2127.9 993.24v126.09" clip-path="url(#a)"/>
</g>
<path d="m417.19 123.29v6.0162q0 2.4 2.4 2.4h7.7425q2.4 0 2.4-2.4v-6.0162q0-2.4-2.4-2.4h-7.7425q-2.4 0-2.4 2.4z" clip-path="url(#a)" fill="#fff" stroke="#fff"/>
<g clip-path="url(#a)">
<defs>
<path id="an" d="m9.8125 72.906h9.8594v-29.891h35.844v29.891h9.8594v-72.906h-9.8594v34.719h-35.844v-34.719h-9.8594z"/>
</defs>
<g transform="translate(421.25 123.29) rotate(90) scale(.08 -.08)">
<use xlink:href="#an"/>
</g>
</g>
<path d="m278.85 537.92 2.2307-4.9972q0.97827-2.1916-1.2133-3.1698l-7.0701-3.1559q-2.1916-0.97827-3.1698 1.2133l-2.2307 4.9972q-0.97827 2.1916 1.2133 3.1698l7.0701 3.1559q2.1916 0.97827 3.1698-1.2133z" clip-path="url(#a)" fill="#fff" stroke="#fff"/>
<g clip-path="url(#a)">
<defs>
<path id="r" d="m34.188 63.188-13.391-36.281h26.812zm-5.5781 9.7188h11.188l27.781-72.906h-10.25l-6.6406 18.703h-32.859l-6.6406-18.703h-10.406z"/>
</defs>
<g transform="translate(275.14 536.26) rotate(-65.945) scale(.08 -.08)">
<use xlink:href="#r"/>
</g>
</g>
<path d="m338.57 536.83 1.2581-4.6568q0.62594-2.3169-1.691-2.9429l-7.4745-2.0193q-2.3169-0.62594-2.9429 1.691l-1.2581 4.6568q-0.62594 2.3169 1.691 2.9429l7.4745 2.0193q2.3169 0.62594 2.9429-1.691z" clip-path="url(#a)" fill="#fff" stroke="#fff"/>
<g clip-path="url(#a)">
<defs>
<path id="af" d="m19.672 64.797v-27.391h12.406q6.8906 0 10.641 3.5625 3.7656 3.5625 3.7656 10.156 0 6.5469-3.7656 10.109-3.75 3.5625-10.641 3.5625zm-9.8594 8.1094h22.266q12.266 0 18.531-5.5469 6.2812-5.5469 6.2812-16.234 0-10.797-6.2812-16.312-6.2656-5.5156-18.531-5.5156h-12.406v-29.297h-9.8594z"/>
</defs>
<g transform="translate(334.65 535.77) rotate(-74.882) scale(.08 -.08)">
<use xlink:href="#af"/>
</g>
</g>
<path d="m386.18 599.65 0.66555-6.1239q0.25931-2.386-2.1266-2.6453l-7.6972-0.83653q-2.386-0.25931-2.6453 2.1266l-0.66555 6.1239q-0.25931 2.386 2.1266 2.6453l7.6972 0.83653q2.386 0.25931 2.6453-2.1266z" clip-path="url(#a)" fill="#fff" stroke="#fff"/>
<g clip-path="url(#a)">
<defs>
<path id="al" d="m19.672 64.797v-56.688h11.922q15.094 0 22.094 6.8281 7 6.8438 7 21.594 0 14.641-7 21.453t-22.094 6.8125zm-9.8594 8.1094h20.266q21.188 0 31.094-8.8125 9.9219-8.8125 9.9219-27.562 0-18.859-9.9688-27.703-9.9531-8.8281-31.047-8.8281h-20.266z"/>
</defs>
<g transform="translate(382.14 599.21) rotate(-83.797) scale(.08 -.08)">
<use xlink:href="#al"/>
</g>
</g>
<path d="m432.79 530.43 0.25716 5.4665q0.11278 2.3973 2.5101 2.2846l7.7339-0.36383q2.3973-0.11278 2.2846-2.5101l-0.25716-5.4665q-0.11278-2.3973-2.5101-2.2846l-7.7339 0.36383q-2.3973 0.11278-2.2846 2.5101z" clip-path="url(#a)" fill="#fff" stroke="#fff"/>
<g clip-path="url(#a)">
<g transform="translate(436.85 530.23) rotate(87.307) scale(.08 -.08)">
<use xlink:href="#r"/>
</g>
</g>
<path d="m503.03 531.45 1.5417 5.9639q0.60068 2.3236 2.9243 1.7229l7.4961-1.9378q2.3236-0.60068 1.7229-2.9243l-1.5417-5.9639q-0.60068-2.3236-2.9243-1.7229l-7.4961 1.9378q-2.3236 0.60068-1.7229 2.9243z" clip-path="url(#a)" fill="#fff" stroke="#fff"/>
<g clip-path="url(#a)">
<g transform="translate(506.96 530.43) rotate(75.506) scale(.08 -.08)">
<use xlink:href="#al"/>
</g>
</g>
<path d="m599.2 273.66 5.1004 1.9836q2.2368 0.86992 3.1067-1.3669l2.8064-7.216q0.86992-2.2368-1.3669-3.1067l-5.1004-1.9836q-2.2368-0.86992-3.1067 1.3669l-2.8064 7.216q-0.86992 2.2368 1.3669 3.1067z" clip-path="url(#a)" fill="#fff" stroke="#fff"/>
<g clip-path="url(#a)">
<g transform="translate(600.67 269.88) rotate(21.252) scale(.08 -.08)">
<use xlink:href="#r"/>
</g>
</g>
<path d="m118.95 933.83 0.92854-4.969q0.44085-2.3592-1.9183-2.8l-7.6108-1.4222q-2.3592-0.44085-2.8 1.9183l-0.92854 4.969q-0.44085 2.3592 1.9183 2.8l7.6108 1.4222q2.3592 0.44085 2.8-1.9183z" clip-path="url(#a)" fill="#fff" stroke="#fff"/>
<g clip-path="url(#a)">
<defs>
<path id="n" d="m9.8125 72.906h46.094v-8.3125h-36.234v-21.578h34.719v-8.2969h-34.719v-26.422h37.109v-8.2969h-46.969z"/>
</defs>
<g transform="translate(114.95 933.08) rotate(-79.415) scale(.08 -.08)">
<use xlink:href="#n"/>
</g>
</g>
<path d="m130.13 928.6 1.0261 5.4912q0.44085 2.3592 2.8 1.9183l7.6108-1.4222q2.3592-0.44085 1.9183-2.8l-1.0261-5.4912q-0.44085-2.3592-2.8-1.9183l-7.6108 1.4222q-2.3592 0.44085-1.9183 2.8z" clip-path="url(#a)" fill="#fff" stroke="#fff"/>
<g clip-path="url(#a)">
<defs>
<path id="t" d="m64.406 67.281v-10.391q-4.9844 4.6406-10.625 6.9219-5.6406 2.2969-11.984 2.2969-12.5 0-19.141-7.6406t-6.6406-22.094q0-14.406 6.6406-22.047t19.141-7.6406q6.3438 0 11.984 2.2969t10.625 6.9375v-10.312q-5.1719-3.5156-10.969-5.2812-5.7812-1.75-12.219-1.75-16.562 0-26.094 10.125-9.5156 10.141-9.5156 27.672 0 17.578 9.5156 27.703 9.5312 10.141 26.094 10.141 6.5312 0 12.312-1.7344 5.7969-1.7344 10.875-5.2031z"/>
</defs>
<g transform="translate(134.13 927.85) rotate(79.415) scale(.08 -.08)">
<use xlink:href="#t"/>
</g>
</g>
<path d="m224.27 934.75 1.7697-4.7351q0.8402-2.2481-1.4079-3.0883l-7.2525-2.7105q-2.2481-0.8402-3.0883 1.4079l-1.7697 4.7351q-0.8402 2.2481 1.4079 3.0883l7.2525 2.7105q2.2481 0.8402 3.0883-1.4079z" clip-path="url(#a)" fill="#fff" stroke="#fff"/>
<g clip-path="url(#a)">
<g transform="translate(220.46 933.33) rotate(-69.508) scale(.08 -.08)">
<use xlink:href="#n"/>
</g>
</g>
<path d="m259.55 929.77 1.9557 5.2327q0.8402 2.2481 3.0883 1.4079l7.2525-2.7105q2.2481-0.8402 1.4079-3.0883l-1.9557-5.2327q-0.8402-2.2481-3.0883-1.4079l-7.2525 2.7105q-2.2481 0.8402-1.4079 3.0883z" clip-path="url(#a)" fill="#fff" stroke="#fff"/>
<g clip-path="url(#a)">
<g transform="translate(263.36 928.35) rotate(69.508) scale(.08 -.08)">
<use xlink:href="#t"/>
</g>
</g>
<path d="m236.57 927.26v5.855q0 2.4 2.4 2.4h7.7425q2.4 0 2.4-2.4v-5.855q0-2.4-2.4-2.4h-7.7425q-2.4 0-2.4 2.4z" clip-path="url(#a)" fill="#fff" stroke="#fff"/>
<g clip-path="url(#a)">
<defs>
<path id="ae" d="m8.6875 72.906h9.9219v-44.297q0-11.719 4.2344-16.875 4.25-5.1406 13.781-5.1406 9.4688 0 13.719 5.1406 4.25 5.1562 4.25 16.875v44.297h9.9062v-45.516q0-14.25-7.0625-21.531-7.0469-7.2812-20.812-7.2812-13.828 0-20.891 7.2812-7.0469 7.2812-7.0469 21.531z"/>
</defs>
<g transform="translate(240.63 927.26) rotate(90) scale(.08 -.08)">
<use xlink:href="#ae"/>
</g>
</g>
<path d="m330.82 1038.6v35.285q0 2.4 2.4 2.4h7.7425q2.4 0 2.4-2.4v-35.285q0-2.4-2.4-2.4h-7.7425q-2.4 0-2.4 2.4z" clip-path="url(#a)" fill="#fff" stroke="#fff"/>
<g clip-path="url(#a)">
<defs>
<path id="l" d="m-0.29688 72.906h61.672v-8.3125h-25.875v-64.594h-9.9062v64.594h-25.891z"/>
<path id="d" d="m56.203 29.594v-4.3906h-41.312q0.59375-9.2812 5.5938-14.141t13.938-4.8594q5.1719 0 10.031 1.2656t9.6562 3.8125v-8.5q-4.8438-2.0469-9.9219-3.125t-10.297-1.0781q-13.094 0-20.734 7.6094-7.6406 7.625-7.6406 20.625 0 13.422 7.25 21.297 7.25 7.8906 19.562 7.8906 11.031 0 17.453-7.1094 6.4219-7.0938 6.4219-19.297zm-8.9844 2.6406q-0.09375 7.3594-4.125 11.75-4.0312 4.4062-10.672 4.4062-7.5156 0-12.031-4.25t-5.2031-11.969z"/>
<path id="e" d="m41.109 46.297q-1.5156 0.875-3.2969 1.2812-1.7812 0.42188-3.9219 0.42188-7.625 0-11.703-4.9531t-4.0781-14.234v-28.812h-9.0312v54.688h9.0312v-8.5q2.8438 4.9844 7.375 7.3906 4.5469 2.4219 11.047 2.4219 0.92188 0 2.0469-0.125 1.125-0.10938 2.4844-0.35938z"/>
<path id="k" d="m52 44.188q3.375 6.0625 8.0625 8.9375t11.031 2.875q8.5469 0 13.188-5.9844 4.6406-5.9688 4.6406-17v-33.016h-9.0312v32.719q0 7.8594-2.7969 11.656-2.7812 3.8125-8.4844 3.8125-6.9844 0-11.047-4.6406-4.0469-4.625-4.0469-12.641v-30.906h-9.0312v32.719q0 7.9062-2.7812 11.688t-8.5938 3.7812q-6.8906 0-10.953-4.6562-4.0469-4.6562-4.0469-12.625v-30.906h-9.0312v54.688h9.0312v-8.5q3.0781 5.0312 7.375 7.4219t10.203 2.3906q5.9688 0 10.141-3.0312 4.1719-3.0156 6.1719-8.7812z"/>
<path id="g" d="m9.4219 54.688h8.9844v-54.688h-8.9844zm0 21.297h8.9844v-11.391h-8.9844z"/>
<path id="f" d="m54.891 33.016v-33.016h-8.9844v32.719q0 7.7656-3.0312 11.609-3.0312 3.8594-9.0781 3.8594-7.2812 0-11.484-4.6406-4.2031-4.625-4.2031-12.641v-30.906h-9.0312v54.688h9.0312v-8.5q3.2344 4.9375 7.5938 7.375 4.375 2.4375 10.094 2.4375 9.4219 0 14.25-5.8281 4.8438-5.8281 4.8438-17.156z"/>
<path id="h" d="m34.281 27.484q-10.891 0-15.094-2.4844t-4.2031-8.5q0-4.7812 3.1562-7.5938 3.1562-2.7969 8.5625-2.7969 7.4844 0 12 5.2969t4.5156 14.078v2zm17.922 3.7188v-31.203h-8.9844v8.2969q-3.0781-4.9688-7.6719-7.3438t-11.234-2.375q-8.3906 0-13.359 4.7188-4.9531 4.7188-4.9531 12.625 0 9.2188 6.1719 13.906 6.1875 4.6875 18.438 4.6875h12.609v0.89062q0 6.2031-4.0781 9.5938t-11.453 3.3906q-4.6875 0-9.1406-1.125-4.4375-1.125-8.5312-3.375v8.3125q4.9219 1.9062 9.5625 2.8438 4.6406 0.95312 9.0312 0.95312 11.875 0 17.734-6.1562 5.8594-6.1406 5.8594-18.641z"/>
<path id="j" d="m9.4219 75.984h8.9844v-75.984h-8.9844z"/>
</defs>
<g transform="translate(334.89 1038.6) rotate(90) scale(.08 -.08)">
<use xlink:href="#l"/>
<use x="60.818359" xlink:href="#d"/>
<use x="122.341797" xlink:href="#e"/>
<use x="163.439453" xlink:href="#k"/>
<use x="260.851562" xlink:href="#g"/>
<use x="288.634766" xlink:href="#f"/>
<use x="352.013672" xlink:href="#h"/>
<use x="413.292969" xlink:href="#j"/>
</g>
</g>
<path d="m423.67 935.68 2.7182-4.8488q1.1736-2.0935-0.91987-3.2671l-6.7536-3.7861q-2.0935-1.1736-3.2671 0.91987l-2.7182 4.8488q-1.1736 2.0935 0.91987 3.2671l6.7536 3.7861q2.0935 1.1736 3.2671-0.91987z" clip-path="url(#a)" fill="#fff" stroke="#fff"/>
<g clip-path="url(#a)">
<defs>
<path id="ak" d="m44.391 34.188q3.1719-1.0781 6.1719-4.5938t6.0312-9.6719l10.016-19.922h-10.609l-9.3125 18.703q-3.625 7.3281-7.0156 9.7188t-9.25 2.3906h-10.75v-30.812h-9.8594v72.906h22.266q12.5 0 18.656-5.2344 6.1562-5.2188 6.1562-15.766 0-6.8906-3.2031-11.438-3.2031-4.5312-9.2969-6.2812zm-24.719 30.609v-25.875h12.406q7.125 0 10.766 3.2969t3.6406 9.6875-3.6406 9.6406-10.766 3.25z"/>
</defs>
<g transform="translate(420.13 933.69) rotate(-60.725) scale(.08 -.08)">
<use xlink:href="#ak"/>
</g>
</g>
<path d="m448.83 933.83 0.92854-4.969q0.44085-2.3592-1.9183-2.8l-7.6108-1.4222q-2.3592-0.44085-2.8 1.9183l-0.92854 4.969q-0.44085 2.3592 1.9183 2.8l7.6108 1.4222q2.3592 0.44085 2.8-1.9183z" clip-path="url(#a)" fill="#fff" stroke="#fff"/>
<g clip-path="url(#a)">
<g transform="translate(444.83 933.08) rotate(-79.415) scale(.08 -.08)">
<use xlink:href="#n"/>
</g>
</g>
<path d="m460.06 928.86 0.92854 4.969q0.44085 2.3592 2.8 1.9183l7.6108-1.4222q2.3592-0.44085 1.9183-2.8l-0.92854-4.969q-0.44085-2.3592-2.8-1.9183l-7.6108 1.4222q-2.3592 0.44085-1.9183 2.8z" clip-path="url(#a)" fill="#fff" stroke="#fff"/>
<g clip-path="url(#a)">
<g transform="translate(464.05 928.11) rotate(79.415) scale(.08 -.08)">
<use xlink:href="#n"/>
</g>
</g>
<path d="m483.42 930.82 2.7317 4.8728q1.1736 2.0935 3.2671 0.91987l6.7536-3.7861q2.0935-1.1736 0.91987-3.2671l-2.7317-4.8728q-1.1736-2.0935-3.2671-0.91987l-6.7536 3.7861q-2.0935 1.1736-0.91987 3.2671z" clip-path="url(#a)" fill="#fff" stroke="#fff"/>
<g clip-path="url(#a)">
<g transform="translate(486.96 928.83) rotate(60.725) scale(.08 -.08)">
<use xlink:href="#t"/>
</g>
</g>
<path d="m590.16 934.07 1.0211-5.4642q0.44085-2.3592-1.9183-2.8l-7.6108-1.4222q-2.3592-0.44085-2.8 1.9183l-1.0211 5.4642q-0.44085 2.3592 1.9183 2.8l7.6108 1.4222q2.3592 0.44085 2.8-1.9183z" clip-path="url(#a)" fill="#fff" stroke="#fff"/>
<g clip-path="url(#a)">
<g transform="translate(586.16 933.33) rotate(-79.415) scale(.08 -.08)">
<use xlink:href="#ak"/>
</g>
</g>
<path d="m601.39 928.6 1.0261 5.4912q0.44085 2.3592 2.8 1.9183l7.6108-1.4222q2.3592-0.44085 1.9183-2.8l-1.0261-5.4912q-0.44085-2.3592-2.8-1.9183l-7.6108 1.4222q-2.3592 0.44085-1.9183 2.8z" clip-path="url(#a)" fill="#fff" stroke="#fff"/>
<g clip-path="url(#a)">
<g transform="translate(605.38 927.85) rotate(79.415) scale(.08 -.08)">
<use xlink:href="#t"/>
</g>
</g>
<path d="m731.5 669.73 0.89443-4.9752q0.42465-2.3621-1.9375-2.7868l-7.6203-1.3699q-2.3621-0.42465-2.7868 1.9375l-0.89443 4.9752q-0.42465 2.3621 1.9375 2.7868l7.6203 1.3699q2.3621 0.42465 2.7868-1.9375z" clip-path="url(#a)" fill="#fff" stroke="#fff"/>
<g clip-path="url(#a)">
<g transform="translate(727.5 669.01) rotate(-79.808) scale(.08 -.08)">
<use xlink:href="#n"/>
</g>
</g>
<path d="m767.18 669.37 0.39963-5.5719q0.17169-2.3939-2.2222-2.5655l-7.7227-0.55389q-2.3939-0.17169-2.5655 2.2222l-0.39963 5.5719q-0.17169 2.3939 2.2222 2.5655l7.7227 0.55389q2.3938 0.17169 2.5655-2.2222z" clip-path="url(#a)" fill="#fff" stroke="#fff"/>
<g clip-path="url(#a)">
<g transform="translate(763.12 669.08) rotate(-85.898) scale(.08 -.08)">
<use xlink:href="#t"/>
</g>
</g>
<path d="m848.78 410.11 3.6267 3.5213q1.7219 1.6718 3.3937-0.050051l5.3934-5.5549q1.6718-1.7219-0.050051-3.3937l-3.6267-3.5213q-1.7219-1.6718-3.3937 0.050051l-5.3934 5.5549q-1.6718 1.7219 0.050051 3.3937z" clip-path="url(#a)" fill="#fff" stroke="#fff"/>
<g clip-path="url(#a)">
<g transform="translate(851.61 407.19) rotate(44.155) scale(.08 -.08)">
<use xlink:href="#n"/>
</g>
</g>
<path d="m790.09 663.44 0.21257 5.8511q0.087135 2.3984 2.4856 2.3113l7.7374-0.2811q2.3984-0.087135 2.3113-2.4856l-0.21257-5.8511q-0.087135-2.3984-2.4856-2.3113l-7.7374 0.2811q-2.3984 0.087135-2.3113 2.4856z" clip-path="url(#a)" fill="#fff" stroke="#fff"/>
<g clip-path="url(#a)">
<g transform="translate(794.15 663.29) rotate(87.919) scale(.08 -.08)">
<use xlink:href="#ae"/>
</g>
</g>
<path d="m660.7 1038.6v35.285q0 2.4 2.4 2.4h7.7425q2.4 0 2.4-2.4v-35.285q0-2.4-2.4-2.4h-7.7425q-2.4 0-2.4 2.4z" clip-path="url(#a)" fill="#fff" stroke="#fff"/>
<g clip-path="url(#a)">
<g transform="translate(664.77 1038.6) rotate(90) scale(.08 -.08)">
<use xlink:href="#l"/>
<use x="60.818359" xlink:href="#d"/>
<use x="122.341797" xlink:href="#e"/>
<use x="163.439453" xlink:href="#k"/>
<use x="260.851562" xlink:href="#g"/>
<use x="288.634766" xlink:href="#f"/>
<use x="352.013672" xlink:href="#h"/>
<use x="413.292969" xlink:href="#j"/>
</g>
</g>
<path d="m728.8 1074.8 6.4814-34.685q0.44085-2.3592-1.9183-2.8l-7.6108-1.4222q-2.3592-0.44085-2.8 1.9183l-6.4814 34.685q-0.44085 2.3592 1.9183 2.8l7.6108 1.4222q2.3592 0.44085 2.8-1.9183z" clip-path="url(#a)" fill="#fff" stroke="#fff"/>
<g clip-path="url(#a)">
<g transform="translate(724.81 1074) rotate(-79.415) scale(.08 -.08)">
<use xlink:href="#l"/>
<use x="60.818359" xlink:href="#d"/>
<use x="122.341797" xlink:href="#e"/>
<use x="163.439453" xlink:href="#k"/>
<use x="260.851562" xlink:href="#g"/>
<use x="288.634766" xlink:href="#f"/>
<use x="352.013672" xlink:href="#h"/>
<use x="413.292969" xlink:href="#j"/>
</g>
</g>
<path d="m740.04 1040.1 6.4814 34.685q0.44085 2.3592 2.8 1.9183l7.6108-1.4222q2.3592-0.44085 1.9183-2.8l-6.4814-34.685q-0.44085-2.3592-2.8-1.9183l-7.6108 1.4222q-2.3592 0.44085-1.9183 2.8z" clip-path="url(#a)" fill="#fff" stroke="#fff"/>
<g clip-path="url(#a)">
<g transform="translate(744.03 1039.3) rotate(79.415) scale(.08 -.08)">
<use xlink:href="#l"/>
<use x="60.818359" xlink:href="#d"/>
<use x="122.341797" xlink:href="#e"/>
<use x="163.439453" xlink:href="#k"/>
<use x="260.851562" xlink:href="#g"/>
<use x="288.634766" xlink:href="#f"/>
<use x="352.013672" xlink:href="#h"/>
<use x="413.292969" xlink:href="#j"/>
</g>
</g>
<path d="m836.47 739.18 1.8657-5.1446q0.81822-2.2562-1.438-3.0744l-7.2786-2.6396q-2.2562-0.81822-3.0744 1.438l-1.8657 5.1446q-0.81822 2.2562 1.438 3.0744l7.2786 2.6396q2.2562 0.81822 3.0744-1.438z" clip-path="url(#a)" fill="#fff" stroke="#fff"/>
<g clip-path="url(#a)">
<g transform="translate(832.65 737.8) rotate(-70.067) scale(.08 -.08)">
<use xlink:href="#r"/>
</g>
</g>
<path d="m896.32 737.59 0.61562-4.5599q0.3211-2.3784-2.0573-2.6995l-7.6729-1.0359q-2.3784-0.3211-2.6995 2.0573l-0.61562 4.5599q-0.3211 2.3784 2.0573 2.6995l7.6729 1.0359q2.3784 0.3211 2.6995-2.0573z" clip-path="url(#a)" fill="#fff" stroke="#fff"/>
<g clip-path="url(#a)">
<defs>
<path id="ag" d="m9.8125 72.906h41.891v-8.3125h-32.031v-21.484h28.906v-8.2969h-28.906v-34.812h-9.8594z"/>
</defs>
<g transform="translate(892.29 737.05) rotate(-82.311) scale(.08 -.08)">
<use xlink:href="#ag"/>
</g>
</g>
<path d="m920.13 737.16 0.21179-4.8191q0.10537-2.3977-2.2923-2.5031l-7.735-0.33994q-2.3977-0.10537-2.5031 2.2923l-0.21179 4.8191q-0.10537 2.3977 2.2923 2.5031l7.735 0.33994q2.3977 0.10537 2.5031-2.2923z" clip-path="url(#a)" fill="#fff" stroke="#fff"/>
<g clip-path="url(#a)">
<g transform="translate(916.07 736.98) rotate(-87.484) scale(.08 -.08)">
<use xlink:href="#af"/>
</g>
</g>
<path d="m1060.3 546.83 4.9423 2.35q2.1675 1.0306 3.1981-1.1369l3.3248-6.9923q1.0306-2.1675-1.1369-3.1981l-4.9422-2.35q-2.1675-1.0306-3.1981 1.1369l-3.3248 6.9923q-1.0306 2.1675 1.1369 3.1981z" clip-path="url(#a)" fill="#fff" stroke="#fff"/>
<g clip-path="url(#a)">
<g transform="translate(1062.1 543.16) rotate(25.431) scale(.08 -.08)">
<use xlink:href="#r"/>
</g>
</g>
<path d="m849.2 1038.6v35.285q0 2.4 2.4 2.4h7.7425q2.4 0 2.4-2.4v-35.285q0-2.4-2.4-2.4h-7.7425q-2.4 0-2.4 2.4z" clip-path="url(#a)" fill="#fff" stroke="#fff"/>
<g clip-path="url(#a)">
<g transform="translate(853.27 1038.6) rotate(90) scale(.08 -.08)">
<use xlink:href="#l"/>
<use x="60.818359" xlink:href="#d"/>
<use x="122.341797" xlink:href="#e"/>
<use x="163.439453" xlink:href="#k"/>
<use x="260.851562" xlink:href="#g"/>
<use x="288.634766" xlink:href="#f"/>
<use x="352.013672" xlink:href="#h"/>
<use x="413.292969" xlink:href="#j"/>
</g>
</g>
<path d="m896.33 1038.6v35.285q0 2.4 2.4 2.4h7.7425q2.4 0 2.4-2.4v-35.285q0-2.4-2.4-2.4h-7.7425q-2.4 0-2.4 2.4z" clip-path="url(#a)" fill="#fff" stroke="#fff"/>
<g clip-path="url(#a)">
<g transform="translate(900.39 1038.6) rotate(90) scale(.08 -.08)">
<use xlink:href="#l"/>
<use x="60.818359" xlink:href="#d"/>
<use x="122.341797" xlink:href="#e"/>
<use x="163.439453" xlink:href="#k"/>
<use x="260.851562" xlink:href="#g"/>
<use x="288.634766" xlink:href="#f"/>
<use x="352.013672" xlink:href="#h"/>
<use x="413.292969" xlink:href="#j"/>
</g>
</g>
<path d="m1081.5 806.69 2.8021-4.2073q1.3304-1.9975-0.66714-3.3279l-6.4441-4.2919q-1.9975-1.3304-3.3279 0.66714l-2.8021 4.2073q-1.3304 1.9975 0.66714 3.3279l6.4441 4.2919q1.9975 1.3304 3.3279-0.66714z" clip-path="url(#a)" fill="#fff" stroke="#fff"/>
<g clip-path="url(#a)">
<g transform="translate(1078.1 804.44) rotate(-56.336) scale(.08 -.08)">
<use xlink:href="#n"/>
</g>
</g>
<path d="m1105.6 806.32 2.4135-4.4416q1.1459-2.1088-0.96293-3.2547l-6.803-3.6966q-2.1088-1.1459-3.2547 0.96293l-2.4135 4.4416q-1.1459 2.1088 0.96293 3.2547l6.803 3.6966q2.1088 1.1459 3.2547-0.96293z" clip-path="url(#a)" fill="#fff" stroke="#fff"/>
<g clip-path="url(#a)">
<g transform="translate(1102 804.38) rotate(-61.481) scale(.08 -.08)">
<use xlink:href="#n"/>
</g>
</g>
<path d="m1193 678.24 1.346-4.8725q0.63907-2.3133-1.6743-2.9524l-7.463-2.0617q-2.3133-0.63907-2.9524 1.6743l-1.346 4.8725q-0.63907 2.3133 1.6743 2.9524l7.463 2.0617q2.3133 0.63907 2.9524-1.6743z" clip-path="url(#a)" fill="#fff" stroke="#fff"/>
<g clip-path="url(#a)">
<g transform="translate(1189.1 677.16) rotate(-74.557) scale(.08 -.08)">
<use xlink:href="#n"/>
</g>
</g>
<path d="m1236 799.81 0.95545 4.9639q0.45363 2.3567 2.8104 1.9031l7.6029-1.4634q2.3567-0.45363 1.9031-2.8104l-0.95545-4.9639q-0.45363-2.3567-2.8104-1.9031l-7.6029 1.4634q-2.3567 0.45363-1.9031 2.8104z" clip-path="url(#a)" fill="#fff" stroke="#fff"/>
<g clip-path="url(#a)">
<g transform="translate(1240 799.05) rotate(79.105) scale(.08 -.08)">
<use xlink:href="#n"/>
</g>
</g>
<path d="m1259.4 800.33 1.679 5.328q0.72133 2.289 3.0104 1.5677l7.3845-2.327q2.289-0.72133 1.5677-3.0104l-1.679-5.328q-0.72133-2.289-3.0104-1.5677l-7.3845 2.327q-2.289 0.72133-1.5677 3.0104z" clip-path="url(#a)" fill="#fff" stroke="#fff"/>
<g clip-path="url(#a)">
<g transform="translate(1263.2 799.11) rotate(72.509) scale(.08 -.08)">
<use xlink:href="#t"/>
</g>
</g>
<path d="m1353.7 678.92 4.6501 1.9824q2.2077 0.9412 3.1489-1.2665l3.0364-7.1223q0.9412-2.2077-1.2665-3.1489l-4.6501-1.9824q-2.2077-0.9412-3.149 1.2665l-3.0364 7.1223q-0.94121 2.2077 1.2665 3.149z" clip-path="url(#a)" fill="#fff" stroke="#fff"/>
<g clip-path="url(#a)">
<g transform="translate(1355.3 675.18) rotate(23.09) scale(.08 -.08)">
<use xlink:href="#n"/>
</g>
</g>
<path d="m943.46 1038.6v35.285q0 2.4 2.4 2.4h7.7425q2.4 0 2.4-2.4v-35.285q0-2.4-2.4-2.4h-7.7425q-2.4 0-2.4 2.4z" clip-path="url(#a)" fill="#fff" stroke="#fff"/>
<g clip-path="url(#a)">
<g transform="translate(947.52 1038.6) rotate(90) scale(.08 -.08)">
<use xlink:href="#l"/>
<use x="60.818359" xlink:href="#d"/>
<use x="122.341797" xlink:href="#e"/>
<use x="163.439453" xlink:href="#k"/>
<use x="260.851562" xlink:href="#g"/>
<use x="288.634766" xlink:href="#f"/>
<use x="352.013672" xlink:href="#h"/>
<use x="413.292969" xlink:href="#j"/>
</g>
</g>
<path d="m990.58 1038.6v35.285q0 2.4 2.4 2.4h7.7425q2.4 0 2.4-2.4v-35.285q0-2.4-2.4-2.4h-7.7425q-2.4 0-2.4 2.4z" clip-path="url(#a)" fill="#fff" stroke="#fff"/>
<g clip-path="url(#a)">
<g transform="translate(994.65 1038.6) rotate(90) scale(.08 -.08)">
<use xlink:href="#l"/>
<use x="60.818359" xlink:href="#d"/>
<use x="122.341797" xlink:href="#e"/>
<use x="163.439453" xlink:href="#k"/>
<use x="260.851562" xlink:href="#g"/>
<use x="288.634766" xlink:href="#f"/>
<use x="352.013672" xlink:href="#h"/>
<use x="413.292969" xlink:href="#j"/>
</g>
</g>
<path d="m1134.4 808.65 2.6461-4.3071q1.2563-2.0449-0.78864-3.3012l-6.597-4.0528q-2.0449-1.2563-3.3012 0.78864l-2.6461 4.3071q-1.2563 2.0449 0.78864 3.3012l6.597 4.0528q2.0449 1.2563 3.3012-0.78864z" clip-path="url(#a)" fill="#fff" stroke="#fff"/>
<g clip-path="url(#a)">
<g transform="translate(1130.9 806.53) rotate(-58.436) scale(.08 -.08)">
<use xlink:href="#n"/>
</g>
</g>
<path d="m1171.1 863.86 0.3449 5.5756q0.14818 2.3954 2.5436 2.2472l7.7277-0.47803q2.3954-0.14818 2.2472-2.5436l-0.3449-5.5756q-0.14818-2.3954-2.5436-2.2472l-7.7277 0.47803q-2.3954 0.14818-2.2472 2.5436z" clip-path="url(#a)" fill="#fff" stroke="#fff"/>
<g clip-path="url(#a)">
<g transform="translate(1175.1 863.61) rotate(86.46) scale(.08 -.08)">
<use xlink:href="#t"/>
</g>
</g>
<path d="m1194.4 865.54 1.1052 4.4666q0.57646 2.3297 2.9062 1.7533l7.5158-1.8597q2.3297-0.57646 1.7533-2.9062l-1.1052-4.4666q-0.57646-2.3297-2.9062-1.7533l-7.5158 1.8597q-2.3297 0.57646-1.7533 2.9062z" clip-path="url(#a)" fill="#fff" stroke="#fff"/>
<g clip-path="url(#a)">
<g transform="translate(1198.4 864.56) rotate(76.102) scale(.08 -.08)">
<use xlink:href="#ag"/>
</g>
</g>
<path d="m1273.3 1038.6v35.285q0 2.4 2.4 2.4h7.7425q2.4 0 2.4-2.4v-35.285q0-2.4-2.4-2.4h-7.7425q-2.4 0-2.4 2.4z" clip-path="url(#a)" fill="#fff" stroke="#fff"/>
<g clip-path="url(#a)">
<g transform="translate(1277.4 1038.6) rotate(90) scale(.08 -.08)">
<use xlink:href="#l"/>
<use x="60.818359" xlink:href="#d"/>
<use x="122.341797" xlink:href="#e"/>
<use x="163.439453" xlink:href="#k"/>
<use x="260.851562" xlink:href="#g"/>
<use x="288.634766" xlink:href="#f"/>
<use x="352.013672" xlink:href="#h"/>
<use x="413.292969" xlink:href="#j"/>
</g>
</g>
<path d="m1320.5 1038.6v35.285q0 2.4 2.4 2.4h7.7425q2.4 0 2.4-2.4v-35.285q0-2.4-2.4-2.4h-7.7425q-2.4 0-2.4 2.4z" clip-path="url(#a)" fill="#fff" stroke="#fff"/>
<g clip-path="url(#a)">
<g transform="translate(1324.5 1038.6) rotate(90) scale(.08 -.08)">
<use xlink:href="#l"/>
<use x="60.818359" xlink:href="#d"/>
<use x="122.341797" xlink:href="#e"/>
<use x="163.439453" xlink:href="#k"/>
<use x="260.851562" xlink:href="#g"/>
<use x="288.634766" xlink:href="#f"/>
<use x="352.013672" xlink:href="#h"/>
<use x="413.292969" xlink:href="#j"/>
</g>
</g>
<path d="m1422.5 872.17 3.2175-4.4267q1.4111-1.9414-0.5303-3.3524l-6.2629-4.5521q-1.9414-1.4111-3.3524 0.5303l-3.2175 4.4267q-1.4111 1.9414 0.5303 3.3524l6.2629 4.5521q1.9414 1.4111 3.3524-0.5303z" clip-path="url(#a)" fill="#fff" stroke="#fff"/>
<g clip-path="url(#a)">
<g transform="translate(1419.2 869.78) rotate(-53.989) scale(.08 -.08)">
<use xlink:href="#r"/>
</g>
</g>
<path d="m1447 871.27 2.1902-4.0465q1.1424-2.1107-0.96823-3.2531l-6.8091-3.6855q-2.1107-1.1424-3.2531 0.96823l-2.1902 4.0465q-1.1424 2.1107 0.96823 3.2531l6.8091 3.6855q2.1107 1.1424 3.2531-0.96823z" clip-path="url(#a)" fill="#fff" stroke="#fff"/>
<g clip-path="url(#a)">
<g transform="translate(1443.4 869.34) rotate(-61.575) scale(.08 -.08)">
<use xlink:href="#ag"/>
</g>
</g>
<path d="m1471.2 870.64 1.6165-4.5448q0.80429-2.2612-1.4569-3.0655l-7.2948-2.5947q-2.2612-0.80429-3.0655 1.4569l-1.6165 4.5448q-0.80429 2.2612 1.4569 3.0655l7.2948 2.5947q2.2612 0.80429 3.0655-1.4569z" clip-path="url(#a)" fill="#fff" stroke="#fff"/>
<g clip-path="url(#a)">
<g transform="translate(1467.4 869.28) rotate(-70.42) scale(.08 -.08)">
<use xlink:href="#af"/>
</g>
</g>
<path d="m1495.4 870.01 0.91775-5.395q0.40249-2.366-1.9635-2.7685l-7.6328-1.2984q-2.366-0.40249-2.7685 1.9635l-0.91775 5.395q-0.40249 2.366 1.9635 2.7685l7.6328 1.2984q2.366 0.40249 2.7685-1.9635z" clip-path="url(#a)" fill="#fff" stroke="#fff"/>
<g clip-path="url(#a)">
<g transform="translate(1491.4 869.33) rotate(-80.346) scale(.08 -.08)">
<use xlink:href="#r"/>
</g>
</g>
<path d="m1535.9 803.53 2.4138 4.9114q1.0586 2.1539 3.2125 1.0953l6.9486-3.4151q2.1539-1.0586 1.0953-3.2125l-2.4138-4.9114q-1.0586-2.1539-3.2125-1.0953l-6.9486 3.4151q-2.1539 1.0586-1.0953 3.2125z" clip-path="url(#a)" fill="#fff" stroke="#fff"/>
<g clip-path="url(#a)">
<g transform="translate(1539.5 801.74) rotate(63.827) scale(.08 -.08)">
<use xlink:href="#r"/>
</g>
</g>
<path d="m1703.1 808.33 5.2037 1.6941q2.2821 0.74294 3.0251-1.5392l2.3968-7.3622q0.74294-2.2821-1.5392-3.0251l-5.2037-1.6941q-2.2821-0.74294-3.0251 1.5392l-2.3968 7.3622q-0.74294 2.2821 1.5392 3.0251z" clip-path="url(#a)" fill="#fff" stroke="#fff"/>
<g clip-path="url(#a)">
<g transform="translate(1704.4 804.47) rotate(18.033) scale(.08 -.08)">
<use xlink:href="#r"/>
</g>
</g>
<path d="m1367.6 1038.6v35.285q0 2.4 2.4 2.4h7.7425q2.4 0 2.4-2.4v-35.285q0-2.4-2.4-2.4h-7.7425q-2.4 0-2.4 2.4z" clip-path="url(#a)" fill="#fff" stroke="#fff"/>
<g clip-path="url(#a)">
<g transform="translate(1371.7 1038.6) rotate(90) scale(.08 -.08)">
<use xlink:href="#l"/>
<use x="60.818359" xlink:href="#d"/>
<use x="122.341797" xlink:href="#e"/>
<use x="163.439453" xlink:href="#k"/>
<use x="260.851562" xlink:href="#g"/>
<use x="288.634766" xlink:href="#f"/>
<use x="352.013672" xlink:href="#h"/>
<use x="413.292969" xlink:href="#j"/>
</g>
</g>
<path d="m1414.7 1038.6v35.285q0 2.4 2.4 2.4h7.7425q2.4 0 2.4-2.4v-35.285q0-2.4-2.4-2.4h-7.7425q-2.4 0-2.4 2.4z" clip-path="url(#a)" fill="#fff" stroke="#fff"/>
<g clip-path="url(#a)">
<g transform="translate(1418.8 1038.6) rotate(90) scale(.08 -.08)">
<use xlink:href="#l"/>
<use x="60.818359" xlink:href="#d"/>
<use x="122.341797" xlink:href="#e"/>
<use x="163.439453" xlink:href="#k"/>
<use x="260.851562" xlink:href="#g"/>
<use x="288.634766" xlink:href="#f"/>
<use x="352.013672" xlink:href="#h"/>
<use x="413.292969" xlink:href="#j"/>
</g>
</g>
<path d="m1461.8 1038.6v35.285q0 2.4 2.4 2.4h7.7425q2.4 0 2.4-2.4v-35.285q0-2.4-2.4-2.4h-7.7425q-2.4 0-2.4 2.4z" clip-path="url(#a)" fill="#fff" stroke="#fff"/>
<g clip-path="url(#a)">
<g transform="translate(1465.9 1038.6) rotate(90) scale(.08 -.08)">
<use xlink:href="#l"/>
<use x="60.818359" xlink:href="#d"/>
<use x="122.341797" xlink:href="#e"/>
<use x="163.439453" xlink:href="#k"/>
<use x="260.851562" xlink:href="#g"/>
<use x="288.634766" xlink:href="#f"/>
<use x="352.013672" xlink:href="#h"/>
<use x="413.292969" xlink:href="#j"/>
</g>
</g>
<path d="m1549.3 935.13 2.1396-4.5799q1.0158-2.1744-1.1586-3.1902l-7.0148-3.2771q-2.1744-1.0158-3.1902 1.1586l-2.1396 4.5799q-1.0158 2.1744 1.1586 3.1902l7.0148 3.2771q2.1744 1.0158 3.1902-1.1586z" clip-path="url(#a)" fill="#fff" stroke="#fff"/>
<g clip-path="url(#a)">
<g transform="translate(1545.6 933.41) rotate(-64.96) scale(.08 -.08)">
<use xlink:href="#n"/>
</g>
</g>
<path d="m1596.7 930.31 2.3644 5.0612q1.0158 2.1744 3.1902 1.1586l7.0148-3.2771q2.1744-1.0158 1.1586-3.1902l-2.3644-5.0612q-1.0158-2.1744-3.1902-1.1586l-7.0148 3.2771q-2.1744 1.0158-1.1586 3.1902z" clip-path="url(#a)" fill="#fff" stroke="#fff"/>
<g clip-path="url(#a)">
<g transform="translate(1600.4 928.59) rotate(64.96) scale(.08 -.08)">
<use xlink:href="#t"/>
</g>
</g>
<path d="m1829.3 936.8 4.2915-3.5331q1.8528-1.5254 0.32741-3.3783l-4.9211-5.9774q-1.5254-1.8528-3.3783-0.32741l-4.2915 3.5331q-1.8528 1.5254-0.32741 3.3783l4.9211 5.9774q1.5254 1.8528 3.3783 0.32741z" clip-path="url(#a)" fill="#fff" stroke="#fff"/>
<g clip-path="url(#a)">
<g transform="translate(1826.7 933.66) rotate(-39.464) scale(.08 -.08)">
<use xlink:href="#ak"/>
</g>
</g>
<path d="m1854.2 936.16 3.2534-3.8689q1.5446-1.8369-0.29224-3.3815l-5.9258-4.983q-1.8369-1.5446-3.3815 0.29224l-3.2534 3.8689q-1.5446 1.8369 0.29224 3.3815l5.9258 4.983q1.8369 1.5446 3.3815-0.29224z" clip-path="url(#a)" fill="#fff" stroke="#fff"/>
<g clip-path="url(#a)">
<g transform="translate(1851.1 933.54) rotate(-49.939) scale(.08 -.08)">
<use xlink:href="#n"/>
</g>
</g>
<path d="m1879.2 935.13 2.1396-4.5799q1.0158-2.1744-1.1586-3.1902l-7.0148-3.2771q-2.1744-1.0158-3.1902 1.1586l-2.1396 4.5799q-1.0158 2.1744 1.1586 3.1902l7.0148 3.2771q2.1744 1.0158 3.1902-1.1586z" clip-path="url(#a)" fill="#fff" stroke="#fff"/>
<g clip-path="url(#a)">
<g transform="translate(1875.5 933.41) rotate(-64.96) scale(.08 -.08)">
<use xlink:href="#n"/>
</g>
</g>
<path d="m1904.1 933.29 0.47026-5.0331q0.22327-2.3896-2.1663-2.6129l-7.7089-0.72027q-2.3896-0.22327-2.6129 2.1663l-0.47026 5.0331q-0.22327 2.3896 2.1663 2.6129l7.7089 0.72027q2.3896 0.22327 2.6129-2.1663z" clip-path="url(#a)" fill="#fff" stroke="#fff"/>
<g clip-path="url(#a)">
<g transform="translate(1900.1 932.91) rotate(-84.662) scale(.08 -.08)">
<use xlink:href="#n"/>
</g>
</g>
<path d="m1950.4 932.09 3.5953 4.2755q1.5446 1.8369 3.3815 0.29224l5.9258-4.983q1.8369-1.5446 0.29224-3.3815l-3.5953-4.2755q-1.5446-1.8369-3.3815-0.29224l-5.9258 4.983q-1.8369 1.5446-0.29224 3.3815z" clip-path="url(#a)" fill="#fff" stroke="#fff"/>
<g clip-path="url(#a)">
<g transform="translate(1953.6 929.47) rotate(49.939) scale(.08 -.08)">
<use xlink:href="#t"/>
</g>
</g>
<path d="m2010.3 934.22 5.1013 2.8736q2.0911 1.1779 3.269-0.91316l3.8-6.7459q1.1779-2.0911-0.91316-3.269l-5.1013-2.8736q-2.0911-1.1779-3.269 0.91316l-3.8 6.7459q-1.1779 2.0911 0.91316 3.269z" clip-path="url(#a)" fill="#fff" stroke="#fff"/>
<g clip-path="url(#a)">
<g transform="translate(2012.3 930.68) rotate(29.393) scale(.08 -.08)">
<use xlink:href="#ae"/>
</g>
</g>
<path d="m1744.6 1038.6v35.285q0 2.4 2.4 2.4h7.7425q2.4 0 2.4-2.4v-35.285q0-2.4-2.4-2.4h-7.7425q-2.4 0-2.4 2.4z" clip-path="url(#a)" fill="#fff" stroke="#fff"/>
<g clip-path="url(#a)">
<g transform="translate(1748.7 1038.6) rotate(90) scale(.08 -.08)">
<use xlink:href="#l"/>
<use x="60.818359" xlink:href="#d"/>
<use x="122.341797" xlink:href="#e"/>
<use x="163.439453" xlink:href="#k"/>
<use x="260.851562" xlink:href="#g"/>
<use x="288.634766" xlink:href="#f"/>
<use x="352.013672" xlink:href="#h"/>
<use x="413.292969" xlink:href="#j"/>
</g>
</g>
<path d="m1791.7 1038.6v35.285q0 2.4 2.4 2.4h7.7425q2.4 0 2.4-2.4v-35.285q0-2.4-2.4-2.4h-7.7425q-2.4 0-2.4 2.4z" clip-path="url(#a)" fill="#fff" stroke="#fff"/>
<g clip-path="url(#a)">
<g transform="translate(1795.8 1038.6) rotate(90) scale(.08 -.08)">
<use xlink:href="#l"/>
<use x="60.818359" xlink:href="#d"/>
<use x="122.341797" xlink:href="#e"/>
<use x="163.439453" xlink:href="#k"/>
<use x="260.851562" xlink:href="#g"/>
<use x="288.634766" xlink:href="#f"/>
<use x="352.013672" xlink:href="#h"/>
<use x="413.292969" xlink:href="#j"/>
</g>
</g>
<path d="m1838.8 1038.6v35.285q0 2.4 2.4 2.4h7.7425q2.4 0 2.4-2.4v-35.285q0-2.4-2.4-2.4h-7.7425q-2.4 0-2.4 2.4z" clip-path="url(#a)" fill="#fff" stroke="#fff"/>
<g clip-path="url(#a)">
<g transform="translate(1842.9 1038.6) rotate(90) scale(.08 -.08)">
<use xlink:href="#l"/>
<use x="60.818359" xlink:href="#d"/>
<use x="122.341797" xlink:href="#e"/>
<use x="163.439453" xlink:href="#k"/>
<use x="260.851562" xlink:href="#g"/>
<use x="288.634766" xlink:href="#f"/>
<use x="352.013672" xlink:href="#h"/>
<use x="413.292969" xlink:href="#j"/>
</g>
</g>
<path d="m1886 1038.6v35.285q0 2.4 2.4 2.4h7.7425q2.4 0 2.4-2.4v-35.285q0-2.4-2.4-2.4h-7.7425q-2.4 0-2.4 2.4z" clip-path="url(#a)" fill="#fff" stroke="#fff"/>
<g clip-path="url(#a)">
<g transform="translate(1890 1038.6) rotate(90) scale(.08 -.08)">
<use xlink:href="#l"/>
<use x="60.818359" xlink:href="#d"/>
<use x="122.341797" xlink:href="#e"/>
<use x="163.439453" xlink:href="#k"/>
<use x="260.851562" xlink:href="#g"/>
<use x="288.634766" xlink:href="#f"/>
<use x="352.013672" xlink:href="#h"/>
<use x="413.292969" xlink:href="#j"/>
</g>
</g>
<path d="m1971.6 1074.7 17.254-30.778q1.1736-2.0935-0.91987-3.2671l-6.7536-3.7861q-2.0935-1.1736-3.2671 0.91987l-17.254 30.778q-1.1736 2.0935 0.91987 3.2671l6.7536 3.7861q2.0935 1.1736 3.2671-0.91987z" clip-path="url(#a)" fill="#fff" stroke="#fff"/>
<g clip-path="url(#a)">
<g transform="translate(1968 1072.8) rotate(-60.725) scale(.08 -.08)">
<use xlink:href="#l"/>
<use x="60.818359" xlink:href="#d"/>
<use x="122.341797" xlink:href="#e"/>
<use x="163.439453" xlink:href="#k"/>
<use x="260.851562" xlink:href="#g"/>
<use x="288.634766" xlink:href="#f"/>
<use x="352.013672" xlink:href="#h"/>
<use x="413.292969" xlink:href="#j"/>
</g>
</g>
<path d="m2001.2 1074.8 6.4814-34.685q0.44085-2.3592-1.9183-2.8l-7.6108-1.4222q-2.3592-0.44085-2.8 1.9183l-6.4814 34.685q-0.44085 2.3592 1.9183 2.8l7.6108 1.4222q2.3592 0.44085 2.8-1.9183z" clip-path="url(#a)" fill="#fff" stroke="#fff"/>
<g clip-path="url(#a)">
<g transform="translate(1997.2 1074) rotate(-79.415) scale(.08 -.08)">
<use xlink:href="#l"/>
<use x="60.818359" xlink:href="#d"/>
<use x="122.341797" xlink:href="#e"/>
<use x="163.439453" xlink:href="#k"/>
<use x="260.851562" xlink:href="#g"/>
<use x="288.634766" xlink:href="#f"/>
<use x="352.013672" xlink:href="#h"/>
<use x="413.292969" xlink:href="#j"/>
</g>
</g>
<path d="m2012.4 1040.1 6.4814 34.685q0.44085 2.3592 2.8 1.9183l7.6108-1.4222q2.3592-0.44085 1.9183-2.8l-6.4814-34.685q-0.44085-2.3592-2.8-1.9183l-7.6108 1.4222q-2.3592 0.44085-1.9183 2.8z" clip-path="url(#a)" fill="#fff" stroke="#fff"/>
<g clip-path="url(#a)">
<g transform="translate(2016.4 1039.3) rotate(79.415) scale(.08 -.08)">
<use xlink:href="#l"/>
<use x="60.818359" xlink:href="#d"/>
<use x="122.341797" xlink:href="#e"/>
<use x="163.439453" xlink:href="#k"/>
<use x="260.851562" xlink:href="#g"/>
<use x="288.634766" xlink:href="#f"/>
<use x="352.013672" xlink:href="#h"/>
<use x="413.292969" xlink:href="#j"/>
</g>
</g>
<path d="m2031.3 1044 17.254 30.778q1.1736 2.0935 3.2671 0.91987l6.7536-3.7861q2.0935-1.1736 0.91987-3.2671l-17.254-30.778q-1.1736-2.0935-3.2671-0.91987l-6.7536 3.7861q-2.0935 1.1736-0.91987 3.2671z" clip-path="url(#a)" fill="#fff" stroke="#fff"/>
<g clip-path="url(#a)">
<g transform="translate(2034.8 1042) rotate(60.725) scale(.08 -.08)">
<use xlink:href="#l"/>
<use x="60.818359" xlink:href="#d"/>
<use x="122.341797" xlink:href="#e"/>
<use x="163.439453" xlink:href="#k"/>
<use x="260.851562" xlink:href="#g"/>
<use x="288.634766" xlink:href="#f"/>
<use x="352.013672" xlink:href="#h"/>
<use x="413.292969" xlink:href="#j"/>
</g>
</g>
<path d="m1509 1038.6v35.285q0 2.4 2.4 2.4h7.7425q2.4 0 2.4-2.4v-35.285q0-2.4-2.4-2.4h-7.7425q-2.4 0-2.4 2.4z" clip-path="url(#a)" fill="#fff" stroke="#fff"/>
<g clip-path="url(#a)">
<g transform="translate(1513 1038.6) rotate(90) scale(.08 -.08)">
<use xlink:href="#l"/>
<use x="60.818359" xlink:href="#d"/>
<use x="122.341797" xlink:href="#e"/>
<use x="163.439453" xlink:href="#k"/>
<use x="260.851562" xlink:href="#g"/>
<use x="288.634766" xlink:href="#f"/>
<use x="352.013672" xlink:href="#h"/>
<use x="413.292969" xlink:href="#j"/>
</g>
</g>
<path d="m1594.5 1074.7 17.254-30.778q1.1736-2.0935-0.91987-3.2671l-6.7536-3.7861q-2.0935-1.1736-3.2671 0.91987l-17.254 30.778q-1.1736 2.0935 0.91987 3.2671l6.7536 3.7861q2.0935 1.1736 3.2671-0.91987z" clip-path="url(#a)" fill="#fff" stroke="#fff"/>
<g clip-path="url(#a)">
<g transform="translate(1591 1072.8) rotate(-60.725) scale(.08 -.08)">
<use xlink:href="#l"/>
<use x="60.818359" xlink:href="#d"/>
<use x="122.341797" xlink:href="#e"/>
<use x="163.439453" xlink:href="#k"/>
<use x="260.851562" xlink:href="#g"/>
<use x="288.634766" xlink:href="#f"/>
<use x="352.013672" xlink:href="#h"/>
<use x="413.292969" xlink:href="#j"/>
</g>
</g>
<path d="m1624.2 1074.8 6.4814-34.685q0.44085-2.3592-1.9183-2.8l-7.6108-1.4222q-2.3592-0.44085-2.8 1.9183l-6.4814 34.685q-0.44085 2.3592 1.9183 2.8l7.6108 1.4222q2.3592 0.44085 2.8-1.9183z" clip-path="url(#a)" fill="#fff" stroke="#fff"/>
<g clip-path="url(#a)">
<g transform="translate(1620.2 1074) rotate(-79.415) scale(.08 -.08)">
<use xlink:href="#l"/>
<use x="60.818359" xlink:href="#d"/>
<use x="122.341797" xlink:href="#e"/>
<use x="163.439453" xlink:href="#k"/>
<use x="260.851562" xlink:href="#g"/>
<use x="288.634766" xlink:href="#f"/>
<use x="352.013672" xlink:href="#h"/>
<use x="413.292969" xlink:href="#j"/>
</g>
</g>
<path d="m1635.4 1040.1 6.4814 34.685q0.44085 2.3592 2.8 1.9183l7.6108-1.4222q2.3592-0.44085 1.9183-2.8l-6.4814-34.685q-0.44085-2.3592-2.8-1.9183l-7.6108 1.4222q-2.3592 0.44085-1.9183 2.8z" clip-path="url(#a)" fill="#fff" stroke="#fff"/>
<g clip-path="url(#a)">
<g transform="translate(1639.4 1039.3) rotate(79.415) scale(.08 -.08)">
<use xlink:href="#l"/>
<use x="60.818359" xlink:href="#d"/>
<use x="122.341797" xlink:href="#e"/>
<use x="163.439453" xlink:href="#k"/>
<use x="260.851562" xlink:href="#g"/>
<use x="288.634766" xlink:href="#f"/>
<use x="352.013672" xlink:href="#h"/>
<use x="413.292969" xlink:href="#j"/>
</g>
</g>
<path d="m1654.3 1044 17.254 30.778q1.1736 2.0935 3.2671 0.91987l6.7536-3.7861q2.0935-1.1736 0.91987-3.2671l-17.254-30.778q-1.1736-2.0935-3.2671-0.91987l-6.7536 3.7861q-2.0935 1.1736-0.91987 3.2671z" clip-path="url(#a)" fill="#fff" stroke="#fff"/>
<g clip-path="url(#a)">
<g transform="translate(1657.8 1042) rotate(60.725) scale(.08 -.08)">
<use xlink:href="#l"/>
<use x="60.818359" xlink:href="#d"/>
<use x="122.341797" xlink:href="#e"/>
<use x="163.439453" xlink:href="#k"/>
<use x="260.851562" xlink:href="#g"/>
<use x="288.634766" xlink:href="#f"/>
<use x="352.013672" xlink:href="#h"/>
<use x="413.292969" xlink:href="#j"/>
</g>
</g>
<path d="m1072.5 934.75 1.7697-4.7351q0.8402-2.2481-1.4079-3.0883l-7.2525-2.7105q-2.2481-0.8402-3.0883 1.4079l-1.7697 4.7351q-0.8402 2.2481 1.4079 3.0883l7.2525 2.7105q2.2481 0.8402 3.0883-1.4079z" clip-path="url(#a)" fill="#fff" stroke="#fff"/>
<g clip-path="url(#a)">
<g transform="translate(1068.7 933.33) rotate(-69.508) scale(.08 -.08)">
<use xlink:href="#n"/>
</g>
</g>
<path d="m1107.8 929.77 1.9557 5.2327q0.8402 2.2481 3.0883 1.4079l7.2525-2.7105q2.2481-0.8402 1.4079-3.0883l-1.9557-5.2327q-0.8402-2.2481-3.0883-1.4079l-7.2525 2.7105q-2.2481 0.8402-1.4079 3.0883z" clip-path="url(#a)" fill="#fff" stroke="#fff"/>
<g clip-path="url(#a)">
<g transform="translate(1111.6 928.35) rotate(69.508) scale(.08 -.08)">
<use xlink:href="#t"/>
</g>
</g>
<path d="m1084.8 927.26v5.855q0 2.4 2.4 2.4h7.7425q2.4 0 2.4-2.4v-5.855q0-2.4-2.4-2.4h-7.7425q-2.4 0-2.4 2.4z" clip-path="url(#a)" fill="#fff" stroke="#fff"/>
<g clip-path="url(#a)">
<g transform="translate(1088.9 927.26) rotate(90) scale(.08 -.08)">
<use xlink:href="#ae"/>
</g>
</g>
<path d="m1179.1 1038.6v35.285q0 2.4 2.4 2.4h7.7425q2.4 0 2.4-2.4v-35.285q0-2.4-2.4-2.4h-7.7425q-2.4 0-2.4 2.4z" clip-path="url(#a)" fill="#fff" stroke="#fff"/>
<g clip-path="url(#a)">
<g transform="translate(1183.1 1038.6) rotate(90) scale(.08 -.08)">
<use xlink:href="#l"/>
<use x="60.818359" xlink:href="#d"/>
<use x="122.341797" xlink:href="#e"/>
<use x="163.439453" xlink:href="#k"/>
<use x="260.851562" xlink:href="#g"/>
<use x="288.634766" xlink:href="#f"/>
<use x="352.013672" xlink:href="#h"/>
<use x="413.292969" xlink:href="#j"/>
</g>
</g>
<path d="m1226.2 1038.6v35.285q0 2.4 2.4 2.4h7.7425q2.4 0 2.4-2.4v-35.285q0-2.4-2.4-2.4h-7.7425q-2.4 0-2.4 2.4z" clip-path="url(#a)" fill="#fff" stroke="#fff"/>
<g clip-path="url(#a)">
<g transform="translate(1230.3 1038.6) rotate(90) scale(.08 -.08)">
<use xlink:href="#l"/>
<use x="60.818359" xlink:href="#d"/>
<use x="122.341797" xlink:href="#e"/>
<use x="163.439453" xlink:href="#k"/>
<use x="260.851562" xlink:href="#g"/>
<use x="288.634766" xlink:href="#f"/>
<use x="352.013672" xlink:href="#h"/>
<use x="413.292969" xlink:href="#j"/>
</g>
</g>
<path d="m1037.7 1038.6v35.285q0 2.4 2.4 2.4h7.7425q2.4 0 2.4-2.4v-35.285q0-2.4-2.4-2.4h-7.7425q-2.4 0-2.4 2.4z" clip-path="url(#a)" fill="#fff" stroke="#fff"/>
<g clip-path="url(#a)">
<g transform="translate(1041.8 1038.6) rotate(90) scale(.08 -.08)">
<use xlink:href="#l"/>
<use x="60.818359" xlink:href="#d"/>
<use x="122.341797" xlink:href="#e"/>
<use x="163.439453" xlink:href="#k"/>
<use x="260.851562" xlink:href="#g"/>
<use x="288.634766" xlink:href="#f"/>
<use x="352.013672" xlink:href="#h"/>
<use x="413.292969" xlink:href="#j"/>
</g>
</g>
<path d="m1132 1038.6v35.285q0 2.4 2.4 2.4h7.7425q2.4 0 2.4-2.4v-35.285q0-2.4-2.4-2.4h-7.7425q-2.4 0-2.4 2.4z" clip-path="url(#a)" fill="#fff" stroke="#fff"/>
<g clip-path="url(#a)">
<g transform="translate(1136 1038.6) rotate(90) scale(.08 -.08)">
<use xlink:href="#l"/>
<use x="60.818359" xlink:href="#d"/>
<use x="122.341797" xlink:href="#e"/>
<use x="163.439453" xlink:href="#k"/>
<use x="260.851562" xlink:href="#g"/>
<use x="288.634766" xlink:href="#f"/>
<use x="352.013672" xlink:href="#h"/>
<use x="413.292969" xlink:href="#j"/>
</g>
</g>
<path d="m566.45 1038.6v35.285q0 2.4 2.4 2.4h7.7425q2.4 0 2.4-2.4v-35.285q0-2.4-2.4-2.4h-7.7425q-2.4 0-2.4 2.4z" clip-path="url(#a)" fill="#fff" stroke="#fff"/>
<g clip-path="url(#a)">
<g transform="translate(570.51 1038.6) rotate(90) scale(.08 -.08)">
<use xlink:href="#l"/>
<use x="60.818359" xlink:href="#d"/>
<use x="122.341797" xlink:href="#e"/>
<use x="163.439453" xlink:href="#k"/>
<use x="260.851562" xlink:href="#g"/>
<use x="288.634766" xlink:href="#f"/>
<use x="352.013672" xlink:href="#h"/>
<use x="413.292969" xlink:href="#j"/>
</g>
</g>
<path d="m613.58 1038.6v35.285q0 2.4 2.4 2.4h7.7425q2.4 0 2.4-2.4v-35.285q0-2.4-2.4-2.4h-7.7425q-2.4 0-2.4 2.4z" clip-path="url(#a)" fill="#fff" stroke="#fff"/>
<g clip-path="url(#a)">
<g transform="translate(617.64 1038.6) rotate(90) scale(.08 -.08)">
<use xlink:href="#l"/>
<use x="60.818359" xlink:href="#d"/>
<use x="122.341797" xlink:href="#e"/>
<use x="163.439453" xlink:href="#k"/>
<use x="260.851562" xlink:href="#g"/>
<use x="288.634766" xlink:href="#f"/>
<use x="352.013672" xlink:href="#h"/>
<use x="413.292969" xlink:href="#j"/>
</g>
</g>
<path d="m377.95 1038.6v35.285q0 2.4 2.4 2.4h7.7425q2.4 0 2.4-2.4v-35.285q0-2.4-2.4-2.4h-7.7425q-2.4 0-2.4 2.4z" clip-path="url(#a)" fill="#fff" stroke="#fff"/>
<g clip-path="url(#a)">
<g transform="translate(382.01 1038.6) rotate(90) scale(.08 -.08)">
<use xlink:href="#l"/>
<use x="60.818359" xlink:href="#d"/>
<use x="122.341797" xlink:href="#e"/>
<use x="163.439453" xlink:href="#k"/>
<use x="260.851562" xlink:href="#g"/>
<use x="288.634766" xlink:href="#f"/>
<use x="352.013672" xlink:href="#h"/>
<use x="413.292969" xlink:href="#j"/>
</g>
</g>
<path d="m425.07 1038.6v35.285q0 2.4 2.4 2.4h7.7425q2.4 0 2.4-2.4v-35.285q0-2.4-2.4-2.4h-7.7425q-2.4 0-2.4 2.4z" clip-path="url(#a)" fill="#fff" stroke="#fff"/>
<g clip-path="url(#a)">
<g transform="translate(429.14 1038.6) rotate(90) scale(.08 -.08)">
<use xlink:href="#l"/>
<use x="60.818359" xlink:href="#d"/>
<use x="122.341797" xlink:href="#e"/>
<use x="163.439453" xlink:href="#k"/>
<use x="260.851562" xlink:href="#g"/>
<use x="288.634766" xlink:href="#f"/>
<use x="352.013672" xlink:href="#h"/>
<use x="413.292969" xlink:href="#j"/>
</g>
</g>
<path d="m472.2 1038.6v35.285q0 2.4 2.4 2.4h7.7425q2.4 0 2.4-2.4v-35.285q0-2.4-2.4-2.4h-7.7425q-2.4 0-2.4 2.4z" clip-path="url(#a)" fill="#fff" stroke="#fff"/>
<g clip-path="url(#a)">
<g transform="translate(476.26 1038.6) rotate(90) scale(.08 -.08)">
<use xlink:href="#l"/>
<use x="60.818359" xlink:href="#d"/>
<use x="122.341797" xlink:href="#e"/>
<use x="163.439453" xlink:href="#k"/>
<use x="260.851562" xlink:href="#g"/>
<use x="288.634766" xlink:href="#f"/>
<use x="352.013672" xlink:href="#h"/>
<use x="413.292969" xlink:href="#j"/>
</g>
</g>
<path d="m519.32 1038.6v35.285q0 2.4 2.4 2.4h7.7425q2.4 0 2.4-2.4v-35.285q0-2.4-2.4-2.4h-7.7425q-2.4 0-2.4 2.4z" clip-path="url(#a)" fill="#fff" stroke="#fff"/>
<g clip-path="url(#a)">
<g transform="translate(523.39 1038.6) rotate(90) scale(.08 -.08)">
<use xlink:href="#l"/>
<use x="60.818359" xlink:href="#d"/>
<use x="122.341797" xlink:href="#e"/>
<use x="163.439453" xlink:href="#k"/>
<use x="260.851562" xlink:href="#g"/>
<use x="288.634766" xlink:href="#f"/>
<use x="352.013672" xlink:href="#h"/>
<use x="413.292969" xlink:href="#j"/>
</g>
</g>
<path d="m189.45 1038.6v35.285q0 2.4 2.4 2.4h7.7425q2.4 0 2.4-2.4v-35.285q0-2.4-2.4-2.4h-7.7425q-2.4 0-2.4 2.4z" clip-path="url(#a)" fill="#fff" stroke="#fff"/>
<g clip-path="url(#a)">
<g transform="translate(193.51 1038.6) rotate(90) scale(.08 -.08)">
<use xlink:href="#l"/>
<use x="60.818359" xlink:href="#d"/>
<use x="122.341797" xlink:href="#e"/>
<use x="163.439453" xlink:href="#k"/>
<use x="260.851562" xlink:href="#g"/>
<use x="288.634766" xlink:href="#f"/>
<use x="352.013672" xlink:href="#h"/>
<use x="413.292969" xlink:href="#j"/>
</g>
</g>
<path d="m283.7 1038.6v35.285q0 2.4 2.4 2.4h7.7425q2.4 0 2.4-2.4v-35.285q0-2.4-2.4-2.4h-7.7425q-2.4 0-2.4 2.4z" clip-path="url(#a)" fill="#fff" stroke="#fff"/>
<g clip-path="url(#a)">
<g transform="translate(287.76 1038.6) rotate(90) scale(.08 -.08)">
<use xlink:href="#l"/>
<use x="60.818359" xlink:href="#d"/>
<use x="122.341797" xlink:href="#e"/>
<use x="163.439453" xlink:href="#k"/>
<use x="260.851562" xlink:href="#g"/>
<use x="288.634766" xlink:href="#f"/>
<use x="352.013672" xlink:href="#h"/>
<use x="413.292969" xlink:href="#j"/>
</g>
</g>
<path d="m236.57 1038.6v35.285q0 2.4 2.4 2.4h7.7425q2.4 0 2.4-2.4v-35.285q0-2.4-2.4-2.4h-7.7425q-2.4 0-2.4 2.4z" clip-path="url(#a)" fill="#fff" stroke="#fff"/>
<g clip-path="url(#a)">
<g transform="translate(240.63 1038.6) rotate(90) scale(.08 -.08)">
<use xlink:href="#l"/>
<use x="60.818359" xlink:href="#d"/>
<use x="122.341797" xlink:href="#e"/>
<use x="163.439453" xlink:href="#k"/>
<use x="260.851562" xlink:href="#g"/>
<use x="288.634766" xlink:href="#f"/>
<use x="352.013672" xlink:href="#h"/>
<use x="413.292969" xlink:href="#j"/>
</g>
</g>
<path d="m95.194 1038.6v35.285q0 2.4 2.4 2.4h7.7425q2.4 0 2.4-2.4v-35.285q0-2.4-2.4-2.4h-7.7425q-2.4 0-2.4 2.4z" clip-path="url(#a)" fill="#fff" stroke="#fff"/>
<g clip-path="url(#a)">
<g transform="translate(99.258 1038.6) rotate(90) scale(.08 -.08)">
<use xlink:href="#l"/>
<use x="60.818359" xlink:href="#d"/>
<use x="122.341797" xlink:href="#e"/>
<use x="163.439453" xlink:href="#k"/>
<use x="260.851562" xlink:href="#g"/>
<use x="288.634766" xlink:href="#f"/>
<use x="352.013672" xlink:href="#h"/>
<use x="413.292969" xlink:href="#j"/>
</g>
</g>
<path d="m142.32 1038.6v35.285q0 2.4 2.4 2.4h7.7425q2.4 0 2.4-2.4v-35.285q0-2.4-2.4-2.4h-7.7425q-2.4 0-2.4 2.4z" clip-path="url(#a)" fill="#fff" stroke="#fff"/>
<g clip-path="url(#a)">
<g transform="translate(146.38 1038.6) rotate(90) scale(.08 -.08)">
<use xlink:href="#l"/>
<use x="60.818359" xlink:href="#d"/>
<use x="122.341797" xlink:href="#e"/>
<use x="163.439453" xlink:href="#k"/>
<use x="260.851562" xlink:href="#g"/>
<use x="288.634766" xlink:href="#f"/>
<use x="352.013672" xlink:href="#h"/>
<use x="413.292969" xlink:href="#j"/>
</g>
</g>
<path d="m802.08 1038.6v35.285q0 2.4 2.4 2.4h7.7425q2.4 0 2.4-2.4v-35.285q0-2.4-2.4-2.4h-7.7425q-2.4 0-2.4 2.4z" clip-path="url(#a)" fill="#fff" stroke="#fff"/>
<g clip-path="url(#a)">
<g transform="translate(806.14 1038.6) rotate(90) scale(.08 -.08)">
<use xlink:href="#l"/>
<use x="60.818359" xlink:href="#d"/>
<use x="122.341797" xlink:href="#e"/>
<use x="163.439453" xlink:href="#k"/>
<use x="260.851562" xlink:href="#g"/>
<use x="288.634766" xlink:href="#f"/>
<use x="352.013672" xlink:href="#h"/>
<use x="413.292969" xlink:href="#j"/>
</g>
</g>
<path d="m1084.8 1038.6v35.285q0 2.4 2.4 2.4h7.7425q2.4 0 2.4-2.4v-35.285q0-2.4-2.4-2.4h-7.7425q-2.4 0-2.4 2.4z" clip-path="url(#a)" fill="#fff" stroke="#fff"/>
<g clip-path="url(#a)">
<g transform="translate(1088.9 1038.6) rotate(90) scale(.08 -.08)">
<use xlink:href="#l"/>
<use x="60.818359" xlink:href="#d"/>
<use x="122.341797" xlink:href="#e"/>
<use x="163.439453" xlink:href="#k"/>
<use x="260.851562" xlink:href="#g"/>
<use x="288.634766" xlink:href="#f"/>
<use x="352.013672" xlink:href="#h"/>
<use x="413.292969" xlink:href="#j"/>
</g>
</g>
<path d="m2121.6 1038.6v35.285q0 2.4 2.4 2.4h7.7425q2.4 0 2.4-2.4v-35.285q0-2.4-2.4-2.4h-7.7425q-2.4 0-2.4 2.4z" clip-path="url(#a)" fill="#fff" stroke="#fff"/>
<g clip-path="url(#a)">
<g transform="translate(2125.7 1038.6) rotate(90) scale(.08 -.08)">
<use xlink:href="#l"/>
<use x="60.818359" xlink:href="#d"/>
<use x="122.341797" xlink:href="#e"/>
<use x="163.439453" xlink:href="#k"/>
<use x="260.851562" xlink:href="#g"/>
<use x="288.634766" xlink:href="#f"/>
<use x="352.013672" xlink:href="#h"/>
<use x="413.292969" xlink:href="#j"/>
</g>
</g>
<defs>
<path id="b" d="m0 8.6603c2.2967 0 4.4997-0.9125 6.1237-2.5365 1.624-1.624 2.5365-3.827 2.5365-6.1237s-0.9125-4.4997-2.5365-6.1237c-1.624-1.624-3.827-2.5365-6.1237-2.5365s-4.4997 0.9125-6.1237 2.5365c-1.624 1.624-2.5365 3.827-2.5365 6.1237s0.9125 4.4997 2.5365 6.1237c1.624 1.624 3.827 2.5365 6.1237 2.5365z"/>
</defs>
<g clip-path="url(#a)">
<use x="101.465142" y="1119.329905" fill="#ffffff" stroke="#ffffff" xlink:href="#b"/>
</g>
<g clip-path="url(#a)">
<use x="148.590795" y="1119.329905" fill="#ffffff" stroke="#ffffff" xlink:href="#b"/>
</g>
<g clip-path="url(#a)">
<use x="195.716447" y="1119.329905" fill="#ffffff" stroke="#ffffff" xlink:href="#b"/>
</g>
<g clip-path="url(#a)">
<use x="242.842099" y="1119.329905" fill="#ffffff" stroke="#ffffff" xlink:href="#b"/>
</g>
<g clip-path="url(#a)">
<use x="289.967752" y="1119.329905" fill="#ffffff" stroke="#ffffff" xlink:href="#b"/>
</g>
<g clip-path="url(#a)">
<use x="337.093404" y="1119.329905" fill="#ffffff" stroke="#ffffff" xlink:href="#b"/>
</g>
<g clip-path="url(#a)">
<use x="384.219056" y="1119.329905" fill="#ffffff" stroke="#ffffff" xlink:href="#b"/>
</g>
<g clip-path="url(#a)">
<use x="431.344708" y="1119.329905" fill="#ffffff" stroke="#ffffff" xlink:href="#b"/>
</g>
<g clip-path="url(#a)">
<use x="478.470361" y="1119.329905" fill="#ffffff" stroke="#ffffff" xlink:href="#b"/>
</g>
<g clip-path="url(#a)">
<use x="525.596013" y="1119.329905" fill="#ffffff" stroke="#ffffff" xlink:href="#b"/>
</g>
<g clip-path="url(#a)">
<use x="572.721665" y="1119.329905" fill="#ffffff" stroke="#ffffff" xlink:href="#b"/>
</g>
<g clip-path="url(#a)">
<use x="619.847318" y="1119.329905" fill="#ffffff" stroke="#ffffff" xlink:href="#b"/>
</g>
<g clip-path="url(#a)">
<use x="666.97297" y="1119.329905" fill="#ffffff" stroke="#ffffff" xlink:href="#b"/>
</g>
<g clip-path="url(#a)">
<use x="714.098622" y="1119.329905" fill="#ffffff" stroke="#ffffff" xlink:href="#b"/>
</g>
<g clip-path="url(#a)">
<use x="761.224275" y="1119.329905" fill="#ffffff" stroke="#ffffff" xlink:href="#b"/>
</g>
<g clip-path="url(#a)">
<use x="808.349927" y="1119.329905" fill="#ffffff" stroke="#ffffff" xlink:href="#b"/>
</g>
<g clip-path="url(#a)">
<use x="855.475579" y="1119.329905" fill="#ffffff" stroke="#ffffff" xlink:href="#b"/>
</g>
<g clip-path="url(#a)">
<use x="902.601231" y="1119.329905" fill="#ffffff" stroke="#ffffff" xlink:href="#b"/>
</g>
<g clip-path="url(#a)">
<use x="949.726884" y="1119.329905" fill="#ffffff" stroke="#ffffff" xlink:href="#b"/>
</g>
<g clip-path="url(#a)">
<use x="996.852536" y="1119.329905" fill="#ffffff" stroke="#ffffff" xlink:href="#b"/>
</g>
<g clip-path="url(#a)">
<use x="1043.978188" y="1119.329905" fill="#ffffff" stroke="#ffffff" xlink:href="#b"/>
</g>
<g clip-path="url(#a)">
<use x="1091.103841" y="1119.329905" fill="#ffffff" stroke="#ffffff" xlink:href="#b"/>
</g>
<g clip-path="url(#a)">
<use x="1138.229493" y="1119.329905" fill="#ffffff" stroke="#ffffff" xlink:href="#b"/>
</g>
<g clip-path="url(#a)">
<use x="1185.355145" y="1119.329905" fill="#ffffff" stroke="#ffffff" xlink:href="#b"/>
</g>
<g clip-path="url(#a)">
<use x="1232.480797" y="1119.329905" fill="#ffffff" stroke="#ffffff" xlink:href="#b"/>
</g>
<g clip-path="url(#a)">
<use x="1279.60645" y="1119.329905" fill="#ffffff" stroke="#ffffff" xlink:href="#b"/>
</g>
<g clip-path="url(#a)">
<use x="1326.732102" y="1119.329905" fill="#ffffff" stroke="#ffffff" xlink:href="#b"/>
</g>
<g clip-path="url(#a)">
<use x="1373.857754" y="1119.329905" fill="#ffffff" stroke="#ffffff" xlink:href="#b"/>
</g>
<g clip-path="url(#a)">
<use x="1420.983407" y="1119.329905" fill="#ffffff" stroke="#ffffff" xlink:href="#b"/>
</g>
<g clip-path="url(#a)">
<use x="1468.109059" y="1119.329905" fill="#ffffff" stroke="#ffffff" xlink:href="#b"/>
</g>
<g clip-path="url(#a)">
<use x="1515.234711" y="1119.329905" fill="#ffffff" stroke="#ffffff" xlink:href="#b"/>
</g>
<g clip-path="url(#a)">
<use x="1562.360363" y="1119.329905" fill="#ffffff" stroke="#ffffff" xlink:href="#b"/>
</g>
<g clip-path="url(#a)">
<use x="1609.486016" y="1119.329905" fill="#ffffff" stroke="#ffffff" xlink:href="#b"/>
</g>
<g clip-path="url(#a)">
<use x="1656.611668" y="1119.329905" fill="#ffffff" stroke="#ffffff" xlink:href="#b"/>
</g>
<g clip-path="url(#a)">
<use x="1703.73732" y="1119.329905" fill="#ffffff" stroke="#ffffff" xlink:href="#b"/>
</g>
<g clip-path="url(#a)">
<use x="1750.862973" y="1119.329905" fill="#ffffff" stroke="#ffffff" xlink:href="#b"/>
</g>
<g clip-path="url(#a)">
<use x="1797.988625" y="1119.329905" fill="#ffffff" stroke="#ffffff" xlink:href="#b"/>
</g>
<g clip-path="url(#a)">
<use x="1845.114277" y="1119.329905" fill="#ffffff" stroke="#ffffff" xlink:href="#b"/>
</g>
<g clip-path="url(#a)">
<use x="1892.239929" y="1119.329905" fill="#ffffff" stroke="#ffffff" xlink:href="#b"/>
</g>
<g clip-path="url(#a)">
<use x="1939.365582" y="1119.329905" fill="#ffffff" stroke="#ffffff" xlink:href="#b"/>
</g>
<g clip-path="url(#a)">
<use x="1986.491234" y="1119.329905" fill="#ffffff" stroke="#ffffff" xlink:href="#b"/>
</g>
<g clip-path="url(#a)">
<use x="2033.616886" y="1119.329905" fill="#ffffff" stroke="#ffffff" xlink:href="#b"/>
</g>
<g clip-path="url(#a)">
<use x="2080.742539" y="1119.329905" fill="#ffffff" stroke="#ffffff" xlink:href="#b"/>
</g>
<g clip-path="url(#a)">
<use x="2127.868191" y="1119.329905" fill="#ffffff" stroke="#ffffff" xlink:href="#b"/>
</g>
<g clip-path="url(#a)">
<use x="423.456343" y="54.003428" fill="#ffffff" stroke="#ffffff" xlink:href="#b"/>
</g>
<g clip-path="url(#a)">
<use x="423.456343" y="198.586446" fill="#ffffff" stroke="#ffffff" xlink:href="#b"/>
</g>
<g clip-path="url(#a)">
<use x="125.027969" y="867.141827" fill="#ffffff" stroke="#ffffff" xlink:href="#b"/>
</g>
<g clip-path="url(#a)">
<use x="242.842099" y="867.141827" fill="#ffffff" stroke="#ffffff" xlink:href="#b"/>
</g>
<g clip-path="url(#a)">
<use x="337.093404" y="993.235866" fill="#ffffff" stroke="#ffffff" xlink:href="#b"/>
</g>
<g clip-path="url(#a)">
<use x="454.907535" y="867.141827" fill="#ffffff" stroke="#ffffff" xlink:href="#b"/>
</g>
<g clip-path="url(#a)">
<use x="596.284491" y="867.141827" fill="#ffffff" stroke="#ffffff" xlink:href="#b"/>
</g>
<g clip-path="url(#a)">
<use x="784.582562" y="339.032941" fill="#ffffff" stroke="#ffffff" xlink:href="#b"/>
</g>
<g clip-path="url(#a)">
<use x="666.97297" y="993.235866" fill="#ffffff" stroke="#ffffff" xlink:href="#b"/>
</g>
<g clip-path="url(#a)">
<use x="737.661448" y="993.235866" fill="#ffffff" stroke="#ffffff" xlink:href="#b"/>
</g>
<g clip-path="url(#a)">
<use x="925.345904" y="475.704622" fill="#ffffff" stroke="#ffffff" xlink:href="#b"/>
</g>
<g clip-path="url(#a)">
<use x="855.475579" y="993.235866" fill="#ffffff" stroke="#ffffff" xlink:href="#b"/>
</g>
<g clip-path="url(#a)">
<use x="902.601231" y="993.235866" fill="#ffffff" stroke="#ffffff" xlink:href="#b"/>
</g>
<g clip-path="url(#a)">
<use x="1205.645357" y="608.983722" fill="#ffffff" stroke="#ffffff" xlink:href="#b"/>
</g>
<g clip-path="url(#a)">
<use x="949.726884" y="993.235866" fill="#ffffff" stroke="#ffffff" xlink:href="#b"/>
</g>
<g clip-path="url(#a)">
<use x="996.852536" y="993.235866" fill="#ffffff" stroke="#ffffff" xlink:href="#b"/>
</g>
<g clip-path="url(#a)">
<use x="1169.646594" y="739.293681" fill="#ffffff" stroke="#ffffff" xlink:href="#b"/>
</g>
<g clip-path="url(#a)">
<use x="1279.60645" y="993.235866" fill="#ffffff" stroke="#ffffff" xlink:href="#b"/>
</g>
<g clip-path="url(#a)">
<use x="1326.732102" y="993.235866" fill="#ffffff" stroke="#ffffff" xlink:href="#b"/>
</g>
<g clip-path="url(#a)">
<use x="1511.307573" y="739.293681" fill="#ffffff" stroke="#ffffff" xlink:href="#b"/>
</g>
<g clip-path="url(#a)">
<use x="1373.857754" y="993.235866" fill="#ffffff" stroke="#ffffff" xlink:href="#b"/>
</g>
<g clip-path="url(#a)">
<use x="1420.983407" y="993.235866" fill="#ffffff" stroke="#ffffff" xlink:href="#b"/>
</g>
<g clip-path="url(#a)">
<use x="1468.109059" y="993.235866" fill="#ffffff" stroke="#ffffff" xlink:href="#b"/>
</g>
<g clip-path="url(#a)">
<use x="1574.141776" y="867.141827" fill="#ffffff" stroke="#ffffff" xlink:href="#b"/>
</g>
<g clip-path="url(#a)">
<use x="1904.021342" y="867.141827" fill="#ffffff" stroke="#ffffff" xlink:href="#b"/>
</g>
<g clip-path="url(#a)">
<use x="1750.862973" y="993.235866" fill="#ffffff" stroke="#ffffff" xlink:href="#b"/>
</g>
<g clip-path="url(#a)">
<use x="1797.988625" y="993.235866" fill="#ffffff" stroke="#ffffff" xlink:href="#b"/>
</g>
<g clip-path="url(#a)">
<use x="1845.114277" y="993.235866" fill="#ffffff" stroke="#ffffff" xlink:href="#b"/>
</g>
<g clip-path="url(#a)">
<use x="1892.239929" y="993.235866" fill="#ffffff" stroke="#ffffff" xlink:href="#b"/>
</g>
<g clip-path="url(#a)">
<use x="2010.05406" y="993.235866" fill="#ffffff" stroke="#ffffff" xlink:href="#b"/>
</g>
<g clip-path="url(#a)">
<use x="1515.234711" y="993.235866" fill="#ffffff" stroke="#ffffff" xlink:href="#b"/>
</g>
<g clip-path="url(#a)">
<use x="1633.048842" y="993.235866" fill="#ffffff" stroke="#ffffff" xlink:href="#b"/>
</g>
<g clip-path="url(#a)">
<use x="1091.103841" y="867.141827" fill="#ffffff" stroke="#ffffff" xlink:href="#b"/>
</g>
<g clip-path="url(#a)">
<use x="1185.355145" y="993.235866" fill="#ffffff" stroke="#ffffff" xlink:href="#b"/>
</g>
<g clip-path="url(#a)">
<use x="1232.480797" y="993.235866" fill="#ffffff" stroke="#ffffff" xlink:href="#b"/>
</g>
<g clip-path="url(#a)">
<use x="1043.978188" y="993.235866" fill="#ffffff" stroke="#ffffff" xlink:href="#b"/>
</g>
<g clip-path="url(#a)">
<use x="1138.229493" y="993.235866" fill="#ffffff" stroke="#ffffff" xlink:href="#b"/>
</g>
<g clip-path="url(#a)">
<use x="572.721665" y="993.235866" fill="#ffffff" stroke="#ffffff" xlink:href="#b"/>
</g>
<g clip-path="url(#a)">
<use x="619.847318" y="993.235866" fill="#ffffff" stroke="#ffffff" xlink:href="#b"/>
</g>
<g clip-path="url(#a)">
<use x="384.219056" y="993.235866" fill="#ffffff" stroke="#ffffff" xlink:href="#b"/>
</g>
<g clip-path="url(#a)">
<use x="431.344708" y="993.235866" fill="#ffffff" stroke="#ffffff" xlink:href="#b"/>
</g>
<g clip-path="url(#a)">
<use x="478.470361" y="993.235866" fill="#ffffff" stroke="#ffffff" xlink:href="#b"/>
</g>
<g clip-path="url(#a)">
<use x="525.596013" y="993.235866" fill="#ffffff" stroke="#ffffff" xlink:href="#b"/>
</g>
<g clip-path="url(#a)">
<use x="195.716447" y="993.235866" fill="#ffffff" stroke="#ffffff" xlink:href="#b"/>
</g>
<g clip-path="url(#a)">
<use x="289.967752" y="993.235866" fill="#ffffff" stroke="#ffffff" xlink:href="#b"/>
</g>
<g clip-path="url(#a)">
<use x="242.842099" y="993.235866" fill="#ffffff" stroke="#ffffff" xlink:href="#b"/>
</g>
<g clip-path="url(#a)">
<use x="101.465142" y="993.235866" fill="#ffffff" stroke="#ffffff" xlink:href="#b"/>
</g>
<g clip-path="url(#a)">
<use x="148.590795" y="993.235866" fill="#ffffff" stroke="#ffffff" xlink:href="#b"/>
</g>
<g clip-path="url(#a)">
<use x="808.349927" y="993.235866" fill="#ffffff" stroke="#ffffff" xlink:href="#b"/>
</g>
<g clip-path="url(#a)">
<use x="1091.103841" y="993.235866" fill="#ffffff" stroke="#ffffff" xlink:href="#b"/>
</g>
<g clip-path="url(#a)">
<use x="2127.868191" y="993.235866" fill="#ffffff" stroke="#ffffff" xlink:href="#b"/>
</g>
<g clip-path="url(#a)">
<defs>
<path id="v" d="m54.891 33.016v-33.016h-8.9844v32.719q0 7.7656-3.0312 11.609-3.0312 3.8594-9.0781 3.8594-7.2812 0-11.484-4.6406-4.2031-4.625-4.2031-12.641v-30.906h-9.0312v75.984h9.0312v-29.797q3.2344 4.9375 7.5938 7.375 4.375 2.4375 10.094 2.4375 9.4219 0 14.25-5.8281 4.8438-5.8281 4.8438-17.156z"/>
</defs>
<g transform="translate(92.166 1122.1) scale(.1 -.1)">
<use xlink:href="#l"/>
<use x="61.083984" xlink:href="#v"/>
<use x="124.462891" xlink:href="#d"/>
</g>
</g>
<g clip-path="url(#a)">
<defs>
<path id="m" d="m18.312 70.219v-15.531h18.5v-6.9844h-18.5v-29.688q0-6.6875 1.8281-8.5938t7.4531-1.9062h9.2188v-7.5156h-9.2188q-10.406 0-14.359 3.875-3.9531 3.8906-3.9531 14.141v29.688h-6.5938v6.9844h6.5938v15.531z"/>
</defs>
<g transform="translate(135.25 1122.1) scale(.1 -.1)">
<use xlink:href="#m"/>
<use x="39.208984" xlink:href="#v"/>
<use x="102.587891" xlink:href="#e"/>
<use x="143.669922" xlink:href="#d"/>
<use x="205.193359" xlink:href="#d"/>
</g>
</g>
<g clip-path="url(#a)">
<defs>
<path id="aa" d="m48.781 52.594v-8.4062q-3.8125 2.1094-7.6406 3.1562t-7.7344 1.0469q-8.75 0-13.594-5.5469-4.8281-5.5312-4.8281-15.547t4.8281-15.562q4.8438-5.5312 13.594-5.5312 3.9062 0 7.7344 1.0469t7.6406 3.1562v-8.3125q-3.7656-1.75-7.7969-2.625-4.0156-0.89062-8.5625-0.89062-12.359 0-19.641 7.7656-7.2656 7.7656-7.2656 20.953 0 13.375 7.3438 21.031 7.3594 7.6719 20.156 7.6719 4.1406 0 8.0938-0.85938 3.9531-0.84375 7.6719-2.5469z"/>
<path id="s" d="m30.609 48.391q-7.2188 0-11.422-5.6406t-4.2031-15.453 4.1719-15.453q4.1875-5.6406 11.453-5.6406 7.1875 0 11.375 5.6562 4.2031 5.6719 4.2031 15.438 0 9.7188-4.2031 15.406-4.1875 5.6875-11.375 5.6875zm0 7.6094q11.719 0 18.406-7.625 6.7031-7.6094 6.7031-21.078 0-13.422-6.7031-21.078-6.6875-7.6406-18.406-7.6406-11.766 0-18.438 7.6406-6.6562 7.6562-6.6562 21.078 0 13.469 6.6562 21.078 6.6719 7.625 18.438 7.625z"/>
</defs>
<g transform="translate(189.91 1122.1) scale(.1 -.1)">
<use xlink:href="#aa"/>
<use x="54.980469" xlink:href="#s"/>
</g>
</g>
<g clip-path="url(#a)">
<defs>
<path id="ao" d="m4.8906 31.391h26.312v-8h-26.312z"/>
</defs>
<g transform="translate(241.04 1122.1) scale(.1 -.1)">
<use xlink:href="#ao"/>
</g>
</g>
<g clip-path="url(#a)">
<defs>
<path id="w" d="m44.281 53.078v-8.5q-3.7969 1.9531-7.9062 2.9219-4.0938 0.98438-8.5 0.98438-6.6875 0-10.031-2.0469t-3.3438-6.1562q0-3.125 2.3906-4.9062t9.625-3.3906l3.0781-0.6875q9.5625-2.0469 13.594-5.7812t4.0312-10.422q0-7.625-6.0312-12.078-6.0312-4.4375-16.578-4.4375-4.3906 0-9.1562 0.85938t-10.031 2.5625v9.2812q4.9844-2.5938 9.8125-3.8906 4.8281-1.2812 9.5781-1.2812 6.3438 0 9.75 2.1719 3.4219 2.1719 3.4219 6.125 0 3.6562-2.4688 5.6094-2.4531 1.9531-10.812 3.7656l-3.125 0.73438q-8.3438 1.75-12.062 5.3906-3.7031 3.6406-3.7031 9.9844 0 7.7188 5.4688 11.906 5.4688 4.2031 15.531 4.2031 4.9688 0 9.3594-0.73438 4.4062-0.71875 8.1094-2.1875z"/>
<path id="x" d="m45.406 46.391v29.594h8.9844v-75.984h-8.9844v8.2031q-2.8281-4.875-7.1562-7.25-4.3125-2.375-10.375-2.375-9.9062 0-16.141 7.9062-6.2188 7.9219-6.2188 20.812t6.2188 20.797q6.2344 7.9062 16.141 7.9062 6.0625 0 10.375-2.375 4.3281-2.3594 7.1562-7.2344zm-30.609-19.094q0-9.9062 4.0781-15.547t11.203-5.6406 11.219 5.6406q4.1094 5.6406 4.1094 15.547t-4.1094 15.547q-4.0938 5.6406-11.219 5.6406t-11.203-5.6406-4.0781-15.547z"/>
</defs>
<g transform="translate(271.98 1122.1) scale(.1 -.1)">
<use xlink:href="#w"/>
<use x="52.099609" xlink:href="#m"/>
<use x="91.308594" xlink:href="#h"/>
<use x="152.587891" xlink:href="#e"/>
<use x="193.685547" xlink:href="#e"/>
<use x="234.767578" xlink:href="#d"/>
<use x="296.291016" xlink:href="#x"/>
</g>
</g>
<g clip-path="url(#a)">
<defs>
<path id="ad" d="m45.406 27.984q0 9.7656-4.0312 15.125-4.0156 5.375-11.297 5.375-7.2188 0-11.25-5.375-4.0312-5.3594-4.0312-15.125 0-9.7188 4.0312-15.094t11.25-5.375q7.2812 0 11.297 5.375 4.0312 5.375 4.0312 15.094zm8.9844-21.203q0-13.953-6.2031-20.766-6.1875-6.8125-18.984-6.8125-4.7344 0-8.9375 0.70312t-8.1562 2.1719v8.7344q3.9531-2.1406 7.8125-3.1562 3.8594-1.0312 7.8594-1.0312 8.8438 0 13.234 4.6094t4.3906 13.938v4.4531q-2.7812-4.8438-7.125-7.2344t-10.406-2.3906q-10.047 0-16.203 7.6562-6.1562 7.6719-6.1562 20.328 0 12.688 6.1562 20.344 6.1562 7.6719 16.203 7.6719 6.0625 0 10.406-2.3906t7.125-7.2188v8.2969h8.9844z"/>
</defs>
<g transform="translate(315.56 1122.1) scale(.1 -.1)">
<use xlink:href="#m"/>
<use x="39.208984" xlink:href="#s"/>
<use x="100.390625" xlink:href="#ad"/>
<use x="163.867188" xlink:href="#d"/>
<use x="225.390625" xlink:href="#m"/>
<use x="264.599609" xlink:href="#v"/>
<use x="327.978516" xlink:href="#d"/>
<use x="389.501953" xlink:href="#e"/>
</g>
</g>
<g clip-path="url(#a)">
<defs>
<path id="am" d="m37.109 75.984v-7.4844h-8.5938q-4.8281 0-6.7188-1.9531-1.875-1.9531-1.875-7.0312v-4.8281h14.797v-6.9844h-14.797v-47.703h-9.0312v47.703h-8.5938v6.9844h8.5938v3.8125q0 9.125 4.25 13.297 4.25 4.1875 13.469 4.1875z"/>
</defs>
<g transform="translate(377.34 1122.1) scale(.1 -.1)">
<use xlink:href="#am"/>
<use x="35.205078" xlink:href="#s"/>
<use x="96.386719" xlink:href="#e"/>
</g>
</g>
<g clip-path="url(#a)">
<g transform="translate(423.14 1122.1) scale(.1 -.1)">
<use xlink:href="#m"/>
<use x="39.208984" xlink:href="#v"/>
<use x="102.587891" xlink:href="#d"/>
</g>
</g>
<g clip-path="url(#a)">
<g transform="translate(468.7 1122.1) scale(.1 -.1)">
<use xlink:href="#am"/>
<use x="35.205078" xlink:href="#g"/>
<use x="62.988281" xlink:href="#e"/>
<use x="104.101562" xlink:href="#w"/>
<use x="156.201172" xlink:href="#m"/>
</g>
</g>
<g clip-path="url(#a)">
<g transform="translate(514.3 1122.1) scale(.1 -.1)">
<use xlink:href="#m"/>
<use x="39.208984" xlink:href="#g"/>
<use x="66.992188" xlink:href="#k"/>
<use x="164.404297" xlink:href="#d"/>
</g>
</g>
<g clip-path="url(#a)">
<g transform="translate(568.16 1122.1) scale(.1 -.1)">
<use xlink:href="#g"/>
<use x="27.783203" xlink:href="#f"/>
</g>
</g>
<g clip-path="url(#a)">
<defs>
<path id="c" d="m12.406 8.2969h16.109v55.625l-17.531-3.5156v8.9844l17.438 3.5156h9.8594v-64.609h16.109v-8.2969h-41.984z"/>
<path id="y" d="m10.984 1.5156v8.9844q3.7188-1.7656 7.5156-2.6875 3.8125-0.92188 7.4844-0.92188 9.7656 0 14.906 6.5625 5.1562 6.5625 5.8906 19.953-2.8281-4.2031-7.1875-6.4531-4.3438-2.25-9.6094-2.25-10.938 0-17.312 6.6094-6.375 6.625-6.375 18.109 0 11.219 6.6406 18 6.6406 6.7969 17.672 6.7969 12.656 0 19.312-9.7031 6.6719-9.6875 6.6719-28.141 0-17.234-8.1875-27.516-8.1719-10.281-21.984-10.281-3.7188 0-7.5312 0.73438-3.7969 0.73438-7.9062 2.2031zm19.625 30.906q6.6406 0 10.516 4.5312 3.8906 4.5469 3.8906 12.469 0 7.8594-3.8906 12.422-3.875 4.5625-10.516 4.5625t-10.516-4.5625-3.875-12.422q0-7.9219 3.875-12.469 3.875-4.5312 10.516-4.5312z"/>
<path id="z" d="m31.781 34.625q-7.0312 0-11.062-3.7656-4.0156-3.7656-4.0156-10.344 0-6.5938 4.0156-10.359 4.0312-3.7656 11.062-3.7656t11.078 3.7812q4.0625 3.7969 4.0625 10.344 0 6.5781-4.0312 10.344-4.0156 3.7656-11.109 3.7656zm-9.8594 4.1875q-6.3438 1.5625-9.8906 5.9062-3.5312 4.3594-3.5312 10.609 0 8.7344 6.2188 13.812 6.2344 5.0781 17.062 5.0781 10.891 0 17.094-5.0781t6.2031-13.812q0-6.25-3.5469-10.609-3.5312-4.3438-9.8281-5.9062 7.125-1.6562 11.094-6.5 3.9844-4.8281 3.9844-11.797 0-10.609-6.4688-16.281-6.4688-5.6562-18.531-5.6562-12.047 0-18.531 5.6562-6.4688 5.6719-6.4688 16.281 0 6.9688 4 11.797 4.0156 4.8438 11.141 6.5zm-3.6094 15.578q0-5.6562 3.5312-8.8281 3.5469-3.1719 9.9375-3.1719 6.3594 0 9.9375 3.1719 3.5938 3.1719 3.5938 8.8281 0 5.6719-3.5938 8.8438-3.5781 3.1719-9.9375 3.1719-6.3906 0-9.9375-3.1719-3.5312-3.1719-3.5312-8.8438z"/>
<path id="q" d="m40.578 39.312q7.0781-1.5156 11.047-6.3125 3.9844-4.7812 3.9844-11.812 0-10.781-7.4219-16.703-7.4219-5.9062-21.094-5.9062-4.5781 0-9.4375 0.90625t-10.031 2.7188v9.5156q4.0938-2.3906 8.9688-3.6094 4.8906-1.2188 10.219-1.2188 9.2656 0 14.125 3.6562t4.8594 10.641q0 6.4531-4.5156 10.078-4.5156 3.6406-12.562 3.6406h-8.5v8.1094h8.8906q7.2656 0 11.125 2.9062t3.8594 8.375q0 5.6094-3.9844 8.6094-3.9688 3.0156-11.391 3.0156-4.0625 0-8.7031-0.89062-4.6406-0.875-10.203-2.7188v8.7812q5.625 1.5625 10.531 2.3438t9.25 0.78125q11.234 0 17.766-5.1094 6.5469-5.0938 6.5469-13.781 0-6.0625-3.4688-10.234t-9.8594-5.7812z"/>
</defs>
<g transform="translate(607.12 1122.1) scale(.1 -.1)">
<use xlink:href="#c"/>
<use x="63.623047" xlink:href="#y"/>
<use x="127.246094" xlink:href="#z"/>
<use x="190.869141" xlink:href="#q"/>
</g>
</g>
<g clip-path="url(#a)">
<g transform="translate(662.42 1122.1) scale(.1 -.1)">
<use xlink:href="#g"/>
<use x="27.783203" xlink:href="#f"/>
</g>
</g>
<g clip-path="url(#a)">
<defs>
<path id="au" d="m9.4219 54.688h8.9844v-55.672q0-10.438-3.9844-15.125-3.9688-4.6875-12.812-4.6875h-3.4219v7.6094h2.4062q5.125 0 6.9688 2.375 1.8594 2.3594 1.8594 9.8281zm0 21.297h8.9844v-11.391h-8.9844z"/>
</defs>
<g transform="translate(696.8 1122.1) scale(.1 -.1)">
<use xlink:href="#af"/>
<use x="60.287109" xlink:href="#e"/>
<use x="101.369141" xlink:href="#s"/>
<use x="162.550781" xlink:href="#au"/>
<use x="190.333984" xlink:href="#d"/>
<use x="251.857422" xlink:href="#aa"/>
<use x="306.837891" xlink:href="#m"/>
</g>
</g>
<g clip-path="url(#a)">
<g transform="translate(757.8 1122.1) scale(.1 -.1)">
<use xlink:href="#r"/>
</g>
</g>
<g clip-path="url(#a)">
<defs>
<path id="ar" d="m11.719 12.406h10.297v-8.4062l-8-15.625h-6.2969l4 15.625z"/>
</defs>
<g transform="translate(806.76 1122.1) scale(.1 -.1)">
<use xlink:href="#ar"/>
</g>
</g>
<g clip-path="url(#a)">
<defs>
<path id="ai" d="m4.2031 54.688h8.9844l11.234-42.672 11.172 42.672h10.594l11.234-42.672 11.188 42.672h8.9844l-14.312-54.688h-10.594l-11.766 44.828-11.812-44.828h-10.609z"/>
</defs>
<g transform="translate(840.91 1122.1) scale(.1 -.1)">
<use xlink:href="#ai"/>
<use x="81.787109" xlink:href="#v"/>
<use x="145.166016" xlink:href="#g"/>
<use x="172.949219" xlink:href="#aa"/>
<use x="227.929688" xlink:href="#v"/>
</g>
</g>
<g clip-path="url(#a)">
<defs>
<path id="aj" d="m8.5 21.578v33.109h8.9844v-32.766q0-7.7656 3.0156-11.656 3.0312-3.875 9.0938-3.875 7.2656 0 11.484 4.6406 4.2344 4.6406 4.2344 12.656v31h8.9844v-54.688h-8.9844v8.4062q-3.2656-4.9844-7.5938-7.4062-4.3125-2.4219-10.031-2.4219-9.4219 0-14.312 5.8594-4.875 5.8594-4.875 17.141z"/>
</defs>
<g transform="translate(875.63 1122.1) scale(.1 -.1)">
<use xlink:href="#g"/>
<use x="27.783203" xlink:href="#f"/>
<use x="91.162109" xlink:href="#m"/>
<use x="130.371094" xlink:href="#e"/>
<use x="171.453125" xlink:href="#s"/>
<use x="232.634766" xlink:href="#x"/>
<use x="296.111328" xlink:href="#aj"/>
<use x="359.490234" xlink:href="#aa"/>
<use x="414.470703" xlink:href="#d"/>
<use x="475.994141" xlink:href="#x"/>
</g>
</g>
<g clip-path="url(#a)">
<g transform="translate(946.66 1122.1) scale(.1 -.1)">
<use xlink:href="#h"/>
</g>
</g>
<g clip-path="url(#a)">
<g transform="translate(970.31 1122.1) scale(.1 -.1)">
<use xlink:href="#x"/>
<use x="63.476562" xlink:href="#h"/>
<use x="124.755859" xlink:href="#f"/>
<use x="188.134766" xlink:href="#ad"/>
<use x="251.611328" xlink:href="#d"/>
<use x="313.134766" xlink:href="#e"/>
<use x="354.216797" xlink:href="#s"/>
<use x="415.398438" xlink:href="#aj"/>
<use x="478.777344" xlink:href="#w"/>
</g>
</g>
<g clip-path="url(#a)">
<g transform="translate(1031.1 1122.1) scale(.1 -.1)">
<use xlink:href="#w"/>
<use x="52.099609" xlink:href="#m"/>
<use x="91.308594" xlink:href="#aj"/>
<use x="154.6875" xlink:href="#f"/>
<use x="218.066406" xlink:href="#m"/>
</g>
</g>
<g clip-path="url(#a)">
<g transform="translate(1089.3 1122.1) scale(.1 -.1)">
<use xlink:href="#ao"/>
</g>
</g>
<g clip-path="url(#a)">
<defs>
<path id="at" d="m2.9844 54.688h9.5156l17.094-45.891 17.094 45.891h9.5156l-20.516-54.688h-12.203z"/>
</defs>
<g transform="translate(1122.4 1122.1) scale(.1 -.1)">
<use xlink:href="#x"/>
<use x="63.476562" xlink:href="#e"/>
<use x="104.589844" xlink:href="#g"/>
<use x="132.373047" xlink:href="#at"/>
<use x="191.552734" xlink:href="#d"/>
<use x="253.076172" xlink:href="#f"/>
</g>
</g>
<g clip-path="url(#a)">
<defs>
<path id="as" d="m32.172-5.0781q-3.7969-9.7656-7.4219-12.734-3.6094-2.9844-9.6562-2.9844h-7.1875v7.5156h5.2812q3.7031 0 5.75 1.7656 2.0625 1.75 4.5469 8.2969l1.6094 4.0938-22.109 53.812h9.5156l17.094-42.766 17.094 42.766h9.5156z"/>
</defs>
<g transform="translate(1173.4 1122.1) scale(.1 -.1)">
<use xlink:href="#w"/>
<use x="52.099609" xlink:href="#m"/>
<use x="91.308594" xlink:href="#as"/>
<use x="150.488281" xlink:href="#j"/>
<use x="178.271484" xlink:href="#d"/>
</g>
</g>
<g clip-path="url(#a)">
<g transform="translate(1227.7 1122.1) scale(.1 -.1)">
<use xlink:href="#s"/>
<use x="61.181641" xlink:href="#am"/>
</g>
</g>
<g clip-path="url(#a)">
<g transform="translate(1261.8 1122.1) scale(.1 -.1)">
<use xlink:href="#k"/>
<use x="97.412109" xlink:href="#h"/>
<use x="158.691406" xlink:href="#e"/>
<use x="199.804688" xlink:href="#m"/>
<use x="239.013672" xlink:href="#g"/>
<use x="266.796875" xlink:href="#h"/>
<use x="328.076172" xlink:href="#j"/>
</g>
</g>
<g clip-path="url(#a)">
<g transform="translate(1317 1122.1) scale(.1 -.1)">
<use xlink:href="#h"/>
<use x="61.279297" xlink:href="#e"/>
<use x="102.392578" xlink:href="#m"/>
<use x="141.601562" xlink:href="#w"/>
</g>
</g>
<g clip-path="url(#a)">
<g transform="translate(1363.7 1122.1) scale(.1 -.1)">
<use xlink:href="#m"/>
<use x="39.208984" xlink:href="#v"/>
<use x="102.587891" xlink:href="#h"/>
<use x="163.867188" xlink:href="#m"/>
</g>
</g>
<g clip-path="url(#a)">
<g transform="translate(1410.7 1122.1) scale(.1 -.1)">
<use xlink:href="#ai"/>
<use x="81.787109" xlink:href="#s"/>
<use x="142.96875" xlink:href="#f"/>
</g>
</g>
<g clip-path="url(#a)">
<g transform="translate(1464.8 1122.1) scale(.1 -.1)">
<use xlink:href="#g"/>
<use x="27.783203" xlink:href="#m"/>
</g>
</g>
<g clip-path="url(#a)">
<g transform="translate(1507 1122.1) scale(.1 -.1)">
<use xlink:href="#m"/>
<use x="39.208984" xlink:href="#v"/>
<use x="102.587891" xlink:href="#d"/>
</g>
</g>
<g clip-path="url(#a)">
<defs>
<path id="aq" d="m19.672 34.812v-26.703h15.828q7.9531 0 11.781 3.2969 3.8438 3.2969 3.8438 10.078 0 6.8438-3.8438 10.078-3.8281 3.25-11.781 3.25zm0 29.984v-21.969h14.609q7.2188 0 10.75 2.7031 3.5469 2.7188 3.5469 8.2812 0 5.5156-3.5469 8.25-3.5312 2.7344-10.75 2.7344zm-9.8594 8.1094h25.203q11.281 0 17.375-4.6875 6.1094-4.6875 6.1094-13.328 0-6.7031-3.125-10.656t-9.1875-4.9219q7.2812-1.5625 11.312-6.5312 4.0312-4.9531 4.0312-12.375 0-9.7656-6.6406-15.094-6.6406-5.3125-18.906-5.3125h-26.172z"/>
</defs>
<g transform="translate(1551.3 1122.1) scale(.1 -.1)">
<use xlink:href="#aq"/>
<use x="68.603516" xlink:href="#d"/>
<use x="130.126953" xlink:href="#w"/>
<use x="182.226562" xlink:href="#m"/>
</g>
</g>
<g clip-path="url(#a)">
<g transform="translate(1593.7 1122.1) scale(.1 -.1)">
<use xlink:href="#r"/>
<use x="68.392578" xlink:href="#aa"/>
<use x="123.373047" xlink:href="#m"/>
<use x="162.582031" xlink:href="#g"/>
<use x="190.365234" xlink:href="#s"/>
<use x="251.546875" xlink:href="#f"/>
</g>
</g>
<g clip-path="url(#a)">
<g transform="translate(1639.3 1122.1) scale(.1 -.1)">
<use xlink:href="#al"/>
<use x="77.001953" xlink:href="#d"/>
<use x="138.525391" xlink:href="#w"/>
<use x="190.625" xlink:href="#g"/>
<use x="218.408203" xlink:href="#ad"/>
<use x="281.884766" xlink:href="#f"/>
</g>
</g>
<g clip-path="url(#a)">
<g transform="translate(1687.9 1122.1) scale(.1 -.1)">
<use xlink:href="#r"/>
<use x="68.345703" xlink:href="#ai"/>
<use x="150.132812" xlink:href="#h"/>
<use x="211.412109" xlink:href="#e"/>
<use x="252.509766" xlink:href="#x"/>
</g>
</g>
<g clip-path="url(#a)">
<g transform="translate(1745.8 1122.1) scale(.1 -.1)">
<use xlink:href="#h"/>
<use x="61.279297" xlink:href="#m"/>
</g>
</g>
<g clip-path="url(#a)">
<g transform="translate(1789.8 1122.1) scale(.1 -.1)">
<use xlink:href="#m"/>
<use x="39.208984" xlink:href="#v"/>
<use x="102.587891" xlink:href="#d"/>
</g>
</g>
<g clip-path="url(#a)">
<g transform="translate(1833.4 1122.1) scale(.1 -.1)">
<use xlink:href="#m"/>
<use x="39.208984" xlink:href="#v"/>
<use x="102.587891" xlink:href="#g"/>
<use x="130.371094" xlink:href="#e"/>
<use x="171.46875" xlink:href="#x"/>
</g>
</g>
<g clip-path="url(#a)">
<g transform="translate(1875.2 1122.1) scale(.1 -.1)">
<use xlink:href="#h"/>
<use x="61.279297" xlink:href="#f"/>
<use x="124.658203" xlink:href="#f"/>
<use x="188.037109" xlink:href="#aj"/>
<use x="251.416016" xlink:href="#h"/>
<use x="312.695312" xlink:href="#j"/>
</g>
</g>
<g clip-path="url(#a)">
<g transform="translate(1926.2 1122.1) scale(.1 -.1)">
<use xlink:href="#an"/>
<use x="75.195312" xlink:href="#s"/>
<use x="136.376953" xlink:href="#f"/>
<use x="199.755859" xlink:href="#ad"/>
</g>
</g>
<g clip-path="url(#a)">
<defs>
<path id="ap" d="m9.8125 72.906h9.8594v-30.812l32.719 30.812h12.703l-36.188-33.984 38.766-38.922h-12.984l-35.016 35.109v-35.109h-9.8594z"/>
</defs>
<g transform="translate(1973.8 1122.1) scale(.1 -.1)">
<use xlink:href="#ap"/>
<use x="65.498047" xlink:href="#s"/>
<use x="126.679688" xlink:href="#f"/>
<use x="190.058594" xlink:href="#ad"/>
</g>
</g>
<g clip-path="url(#a)">
<g transform="translate(2023.1 1122.1) scale(.1 -.1)">
<use xlink:href="#ag"/>
<use x="57.410156" xlink:href="#g"/>
<use x="85.193359" xlink:href="#j"/>
<use x="112.976562" xlink:href="#k"/>
</g>
</g>
<g clip-path="url(#a)">
<g transform="translate(2062.3 1122.1) scale(.1 -.1)">
<use xlink:href="#r"/>
<use x="68.345703" xlink:href="#ai"/>
<use x="150.132812" xlink:href="#h"/>
<use x="211.412109" xlink:href="#e"/>
<use x="252.509766" xlink:href="#x"/>
<use x="315.986328" xlink:href="#w"/>
</g>
</g>
<g clip-path="url(#a)">
<defs>
<path id="i" d="m10.688 12.406h10.312v-12.406h-10.312z"/>
</defs>
<g transform="translate(2126.3 1122.1) scale(.1 -.1)">
<use xlink:href="#i"/>
</g>
</g>
<g clip-path="url(#a)">
<g transform="translate(415.5 56.763) scale(.1 -.1)">
<use xlink:href="#c"/>
<use x="63.623047" xlink:href="#i"/>
<use x="95.410156" xlink:href="#c"/>
</g>
</g>
<g clip-path="url(#a)">
<defs>
<path id="o" d="m19.188 8.2969h34.422v-8.2969h-46.281v8.2969q5.6094 5.8125 15.297 15.594 9.7031 9.7969 12.188 12.641 4.7344 5.3125 6.6094 9 1.8906 3.6875 1.8906 7.25 0 5.8125-4.0781 9.4688-4.0781 3.6719-10.625 3.6719-4.6406 0-9.7969-1.6094-5.1406-1.6094-11-4.8906v9.9688q5.9531 2.3906 11.125 3.6094 5.1875 1.2188 9.4844 1.2188 11.328 0 18.062-5.6719 6.7344-5.6562 6.7344-15.125 0-4.5-1.6875-8.5312-1.6719-4.0156-6.125-9.4844-1.2188-1.4219-7.7656-8.1875-6.5312-6.7656-18.453-18.922z"/>
</defs>
<g transform="translate(415.5 201.35) scale(.1 -.1)">
<use xlink:href="#c"/>
<use x="63.623047" xlink:href="#i"/>
<use x="95.410156" xlink:href="#o"/>
</g>
</g>
<g clip-path="url(#a)">
<defs>
<path id="p" d="m37.797 64.312-24.906-38.922h24.906zm-2.5938 8.5938h12.406v-47.516h10.406v-8.2031h-10.406v-17.188h-9.8125v17.188h-32.906v9.5156z"/>
</defs>
<g transform="translate(117.08 869.9) scale(.1 -.1)">
<use xlink:href="#c"/>
<use x="63.623047" xlink:href="#i"/>
<use x="95.410156" xlink:href="#p"/>
</g>
</g>
<g clip-path="url(#a)">
<defs>
<path id="u" d="m10.797 72.906h38.719v-8.3125h-29.688v-17.859q2.1406 0.73438 4.2812 1.0938 2.1562 0.35938 4.3125 0.35938 12.203 0 19.328-6.6875 7.1406-6.6875 7.1406-18.109 0-11.766-7.3281-18.297-7.3281-6.5156-20.656-6.5156-4.5938 0-9.3594 0.78125-4.75 0.78125-9.8281 2.3438v9.9219q4.3906-2.3906 9.0781-3.5625t9.9062-1.1719q8.4531 0 13.375 4.4375 4.9375 4.4375 4.9375 12.062 0 7.6094-4.9375 12.047-4.9219 4.4531-13.375 4.4531-3.9531 0-7.8906-0.875-3.9219-0.875-8.0156-2.7344z"/>
</defs>
<g transform="translate(234.89 869.9) scale(.1 -.1)">
<use xlink:href="#c"/>
<use x="63.623047" xlink:href="#i"/>
<use x="95.410156" xlink:href="#u"/>
</g>
</g>
<g clip-path="url(#a)">
<defs>
<path id="ac" d="m33.016 40.375q-6.6406 0-10.531-4.5469-3.875-4.5312-3.875-12.438 0-7.8594 3.875-12.438 3.8906-4.5625 10.531-4.5625t10.516 4.5625q3.875 4.5781 3.875 12.438 0 7.9062-3.875 12.438-3.875 4.5469-10.516 4.5469zm19.578 30.922v-8.9844q-3.7188 1.75-7.5 2.6719-3.7812 0.9375-7.5 0.9375-9.7656 0-14.922-6.5938-5.1406-6.5938-5.875-19.922 2.875 4.25 7.2188 6.5156 4.3594 2.2656 9.5781 2.2656 10.984 0 17.359-6.6719 6.375-6.6562 6.375-18.125 0-11.234-6.6406-18.031-6.6406-6.7812-17.672-6.7812-12.656 0-19.344 9.6875-6.6875 9.7031-6.6875 28.109 0 17.281 8.2031 27.562t22.016 10.281q3.7188 0 7.5-0.73438t7.8906-2.1875z"/>
</defs>
<g transform="translate(329.14 996) scale(.1 -.1)">
<use xlink:href="#c"/>
<use x="63.623047" xlink:href="#i"/>
<use x="95.410156" xlink:href="#ac"/>
</g>
</g>
<g clip-path="url(#a)">
<defs>
<path id="ab" d="m8.2031 72.906h46.875v-4.2031l-26.469-68.703h-10.297l24.906 64.594h-35.016z"/>
</defs>
<g transform="translate(446.96 869.9) scale(.1 -.1)">
<use xlink:href="#c"/>
<use x="63.623047" xlink:href="#i"/>
<use x="95.410156" xlink:href="#ab"/>
</g>
</g>
<g clip-path="url(#a)">
<g transform="translate(588.33 869.9) scale(.1 -.1)">
<use xlink:href="#c"/>
<use x="63.623047" xlink:href="#i"/>
<use x="95.410156" xlink:href="#z"/>
</g>
</g>
<g clip-path="url(#a)">
<g transform="translate(776.63 341.79) scale(.1 -.1)">
<use xlink:href="#c"/>
<use x="63.623047" xlink:href="#i"/>
<use x="95.410156" xlink:href="#y"/>
</g>
</g>
<g clip-path="url(#a)">
<defs>
<path id="ah" d="m31.781 66.406q-7.6094 0-11.453-7.5-3.8281-7.4844-3.8281-22.531 0-14.984 3.8281-22.484 3.8438-7.5 11.453-7.5 7.6719 0 11.5 7.5 3.8438 7.5 3.8438 22.484 0 15.047-3.8438 22.531-3.8281 7.5-11.5 7.5zm0 7.8125q12.266 0 18.734-9.7031 6.4688-9.6875 6.4688-28.141 0-18.406-6.4688-28.109-6.4688-9.6875-18.734-9.6875-12.25 0-18.719 9.6875-6.4688 9.7031-6.4688 28.109 0 18.453 6.4688 28.141 6.4688 9.7031 18.719 9.7031z"/>
</defs>
<g transform="translate(655.84 996) scale(.1 -.1)">
<use xlink:href="#c"/>
<use x="63.623047" xlink:href="#i"/>
<use x="95.410156" xlink:href="#c"/>
<use x="159.033203" xlink:href="#ah"/>
</g>
</g>
<g clip-path="url(#a)">
<g transform="translate(726.53 996) scale(.1 -.1)">
<use xlink:href="#c"/>
<use x="63.623047" xlink:href="#i"/>
<use x="95.410156" xlink:href="#c"/>
<use x="159.033203" xlink:href="#c"/>
</g>
</g>
<g clip-path="url(#a)">
<g transform="translate(914.21 478.46) scale(.1 -.1)">
<use xlink:href="#c"/>
<use x="63.623047" xlink:href="#i"/>
<use x="95.410156" xlink:href="#c"/>
<use x="159.033203" xlink:href="#o"/>
</g>
</g>
<g clip-path="url(#a)">
<g transform="translate(844.34 996) scale(.1 -.1)">
<use xlink:href="#c"/>
<use x="63.623047" xlink:href="#i"/>
<use x="95.410156" xlink:href="#c"/>
<use x="159.033203" xlink:href="#p"/>
</g>
</g>
<g clip-path="url(#a)">
<g transform="translate(891.47 996) scale(.1 -.1)">
<use xlink:href="#c"/>
<use x="63.623047" xlink:href="#i"/>
<use x="95.410156" xlink:href="#c"/>
<use x="159.033203" xlink:href="#u"/>
</g>
</g>
<g clip-path="url(#a)">
<g transform="translate(1194.5 611.74) scale(.1 -.1)">
<use xlink:href="#c"/>
<use x="63.623047" xlink:href="#i"/>
<use x="95.410156" xlink:href="#c"/>
<use x="159.033203" xlink:href="#ac"/>
</g>
</g>
<g clip-path="url(#a)">
<g transform="translate(938.59 996) scale(.1 -.1)">
<use xlink:href="#c"/>
<use x="63.623047" xlink:href="#i"/>
<use x="95.410156" xlink:href="#c"/>
<use x="159.033203" xlink:href="#ab"/>
</g>
</g>
<g clip-path="url(#a)">
<g transform="translate(985.72 996) scale(.1 -.1)">
<use xlink:href="#c"/>
<use x="63.623047" xlink:href="#i"/>
<use x="95.410156" xlink:href="#c"/>
<use x="159.033203" xlink:href="#z"/>
</g>
</g>
<g clip-path="url(#a)">
<g transform="translate(1158.5 742.05) scale(.1 -.1)">
<use xlink:href="#c"/>
<use x="63.623047" xlink:href="#i"/>
<use x="95.410156" xlink:href="#c"/>
<use x="159.033203" xlink:href="#y"/>
</g>
</g>
<g clip-path="url(#a)">
<g transform="translate(1268.5 996) scale(.1 -.1)">
<use xlink:href="#c"/>
<use x="63.623047" xlink:href="#i"/>
<use x="95.410156" xlink:href="#o"/>
<use x="159.033203" xlink:href="#ah"/>
</g>
</g>
<g clip-path="url(#a)">
<g transform="translate(1315.6 996) scale(.1 -.1)">
<use xlink:href="#c"/>
<use x="63.623047" xlink:href="#i"/>
<use x="95.410156" xlink:href="#o"/>
<use x="159.033203" xlink:href="#c"/>
</g>
</g>
<g clip-path="url(#a)">
<g transform="translate(1500.2 742.05) scale(.1 -.1)">
<use xlink:href="#c"/>
<use x="63.623047" xlink:href="#i"/>
<use x="95.410156" xlink:href="#o"/>
<use x="159.033203" xlink:href="#o"/>
</g>
</g>
<g clip-path="url(#a)">
<g transform="translate(1362.7 996) scale(.1 -.1)">
<use xlink:href="#c"/>
<use x="63.623047" xlink:href="#i"/>
<use x="95.410156" xlink:href="#o"/>
<use x="159.033203" xlink:href="#q"/>
</g>
</g>
<g clip-path="url(#a)">
<g transform="translate(1409.9 996) scale(.1 -.1)">
<use xlink:href="#c"/>
<use x="63.623047" xlink:href="#i"/>
<use x="95.410156" xlink:href="#o"/>
<use x="159.033203" xlink:href="#p"/>
</g>
</g>
<g clip-path="url(#a)">
<g transform="translate(1457 996) scale(.1 -.1)">
<use xlink:href="#c"/>
<use x="63.623047" xlink:href="#i"/>
<use x="95.410156" xlink:href="#o"/>
<use x="159.033203" xlink:href="#u"/>
</g>
</g>
<g clip-path="url(#a)">
<g transform="translate(1563 869.9) scale(.1 -.1)">
<use xlink:href="#c"/>
<use x="63.623047" xlink:href="#i"/>
<use x="95.410156" xlink:href="#o"/>
<use x="159.033203" xlink:href="#ac"/>
</g>
</g>
<g clip-path="url(#a)">
<g transform="translate(1892.9 869.9) scale(.1 -.1)">
<use xlink:href="#c"/>
<use x="63.623047" xlink:href="#i"/>
<use x="95.410156" xlink:href="#o"/>
<use x="159.033203" xlink:href="#ab"/>
</g>
</g>
<g clip-path="url(#a)">
<g transform="translate(1739.7 996) scale(.1 -.1)">
<use xlink:href="#c"/>
<use x="63.623047" xlink:href="#i"/>
<use x="95.410156" xlink:href="#o"/>
<use x="159.033203" xlink:href="#z"/>
</g>
</g>
<g clip-path="url(#a)">
<g transform="translate(1786.9 996) scale(.1 -.1)">
<use xlink:href="#c"/>
<use x="63.623047" xlink:href="#i"/>
<use x="95.410156" xlink:href="#o"/>
<use x="159.033203" xlink:href="#y"/>
</g>
</g>
<g clip-path="url(#a)">
<g transform="translate(1834 996) scale(.1 -.1)">
<use xlink:href="#c"/>
<use x="63.623047" xlink:href="#i"/>
<use x="95.410156" xlink:href="#q"/>
<use x="159.033203" xlink:href="#ah"/>
</g>
</g>
<g clip-path="url(#a)">
<g transform="translate(1881.1 996) scale(.1 -.1)">
<use xlink:href="#c"/>
<use x="63.623047" xlink:href="#i"/>
<use x="95.410156" xlink:href="#q"/>
<use x="159.033203" xlink:href="#c"/>
</g>
</g>
<g clip-path="url(#a)">
<g transform="translate(1998.9 996) scale(.1 -.1)">
<use xlink:href="#c"/>
<use x="63.623047" xlink:href="#i"/>
<use x="95.410156" xlink:href="#q"/>
<use x="159.033203" xlink:href="#o"/>
</g>
</g>
<g clip-path="url(#a)">
<g transform="translate(1504.1 996) scale(.1 -.1)">
<use xlink:href="#c"/>
<use x="63.623047" xlink:href="#i"/>
<use x="95.410156" xlink:href="#q"/>
<use x="159.033203" xlink:href="#q"/>
</g>
</g>
<g clip-path="url(#a)">
<g transform="translate(1621.9 996) scale(.1 -.1)">
<use xlink:href="#c"/>
<use x="63.623047" xlink:href="#i"/>
<use x="95.410156" xlink:href="#q"/>
<use x="159.033203" xlink:href="#p"/>
</g>
</g>
<g clip-path="url(#a)">
<g transform="translate(1080 869.9) scale(.1 -.1)">
<use xlink:href="#c"/>
<use x="63.623047" xlink:href="#i"/>
<use x="95.410156" xlink:href="#q"/>
<use x="159.033203" xlink:href="#u"/>
</g>
</g>
<g clip-path="url(#a)">
<g transform="translate(1174.2 996) scale(.1 -.1)">
<use xlink:href="#c"/>
<use x="63.623047" xlink:href="#i"/>
<use x="95.410156" xlink:href="#q"/>
<use x="159.033203" xlink:href="#ac"/>
</g>
</g>
<g clip-path="url(#a)">
<g transform="translate(1221.3 996) scale(.1 -.1)">
<use xlink:href="#c"/>
<use x="63.623047" xlink:href="#i"/>
<use x="95.410156" xlink:href="#q"/>
<use x="159.033203" xlink:href="#ab"/>
</g>
</g>
<g clip-path="url(#a)">
<g transform="translate(1032.8 996) scale(.1 -.1)">
<use xlink:href="#c"/>
<use x="63.623047" xlink:href="#i"/>
<use x="95.410156" xlink:href="#q"/>
<use x="159.033203" xlink:href="#z"/>
</g>
</g>
<g clip-path="url(#a)">
<g transform="translate(1127.1 996) scale(.1 -.1)">
<use xlink:href="#c"/>
<use x="63.623047" xlink:href="#i"/>
<use x="95.410156" xlink:href="#q"/>
<use x="159.033203" xlink:href="#y"/>
</g>
</g>
<g clip-path="url(#a)">
<g transform="translate(561.59 996) scale(.1 -.1)">
<use xlink:href="#c"/>
<use x="63.623047" xlink:href="#i"/>
<use x="95.410156" xlink:href="#p"/>
<use x="159.033203" xlink:href="#c"/>
</g>
</g>
<g clip-path="url(#a)">
<g transform="translate(608.71 996) scale(.1 -.1)">
<use xlink:href="#c"/>
<use x="63.623047" xlink:href="#i"/>
<use x="95.410156" xlink:href="#p"/>
<use x="159.033203" xlink:href="#o"/>
</g>
</g>
<g clip-path="url(#a)">
<g transform="translate(373.09 996) scale(.1 -.1)">
<use xlink:href="#c"/>
<use x="63.623047" xlink:href="#i"/>
<use x="95.410156" xlink:href="#p"/>
<use x="159.033203" xlink:href="#q"/>
</g>
</g>
<g clip-path="url(#a)">
<g transform="translate(420.21 996) scale(.1 -.1)">
<use xlink:href="#c"/>
<use x="63.623047" xlink:href="#i"/>
<use x="95.410156" xlink:href="#p"/>
<use x="159.033203" xlink:href="#p"/>
</g>
</g>
<g clip-path="url(#a)">
<g transform="translate(467.34 996) scale(.1 -.1)">
<use xlink:href="#c"/>
<use x="63.623047" xlink:href="#i"/>
<use x="95.410156" xlink:href="#p"/>
<use x="159.033203" xlink:href="#u"/>
</g>
</g>
<g clip-path="url(#a)">
<g transform="translate(514.46 996) scale(.1 -.1)">
<use xlink:href="#c"/>
<use x="63.623047" xlink:href="#i"/>
<use x="95.410156" xlink:href="#p"/>
<use x="159.033203" xlink:href="#ac"/>
</g>
</g>
<g clip-path="url(#a)">
<g transform="translate(184.58 996) scale(.1 -.1)">
<use xlink:href="#c"/>
<use x="63.623047" xlink:href="#i"/>
<use x="95.410156" xlink:href="#p"/>
<use x="159.033203" xlink:href="#ab"/>
</g>
</g>
<g clip-path="url(#a)">
<g transform="translate(278.83 996) scale(.1 -.1)">
<use xlink:href="#c"/>
<use x="63.623047" xlink:href="#i"/>
<use x="95.410156" xlink:href="#p"/>
<use x="159.033203" xlink:href="#z"/>
</g>
</g>
<g clip-path="url(#a)">
<g transform="translate(231.71 996) scale(.1 -.1)">
<use xlink:href="#c"/>
<use x="63.623047" xlink:href="#i"/>
<use x="95.410156" xlink:href="#p"/>
<use x="159.033203" xlink:href="#y"/>
</g>
</g>
<g clip-path="url(#a)">
<g transform="translate(90.332 996) scale(.1 -.1)">
<use xlink:href="#c"/>
<use x="63.623047" xlink:href="#i"/>
<use x="95.410156" xlink:href="#u"/>
<use x="159.033203" xlink:href="#ah"/>
</g>
</g>
<g clip-path="url(#a)">
<g transform="translate(137.46 996) scale(.1 -.1)">
<use xlink:href="#c"/>
<use x="63.623047" xlink:href="#i"/>
<use x="95.410156" xlink:href="#u"/>
<use x="159.033203" xlink:href="#c"/>
</g>
</g>
<g clip-path="url(#a)">
<g transform="translate(797.22 996) scale(.1 -.1)">
<use xlink:href="#c"/>
<use x="63.623047" xlink:href="#i"/>
<use x="95.410156" xlink:href="#u"/>
<use x="159.033203" xlink:href="#o"/>
</g>
</g>
<g clip-path="url(#a)">
<g transform="translate(1080 996) scale(.1 -.1)">
<use xlink:href="#c"/>
<use x="63.623047" xlink:href="#i"/>
<use x="95.410156" xlink:href="#u"/>
<use x="159.033203" xlink:href="#q"/>
</g>
</g>
<g clip-path="url(#a)">
<g transform="translate(2116.7 996) scale(.1 -.1)">
<use xlink:href="#c"/>
<use x="63.623047" xlink:href="#i"/>
<use x="95.410156" xlink:href="#u"/>
<use x="159.033203" xlink:href="#p"/>
</g>
</g>
<defs>
<clipPath id="a">
<rect width="2229.3" height="1173.3"/>
</clipPath>
</defs>
</svg>
