<?xml version="1.0" encoding="UTF-8"?>
<!DOCTYPE svg  PUBLIC '-//W3C//DTD SVG 1.1//EN'  'http://www.w3.org/Graphics/SVG/1.1/DTD/svg11.dtd'>
<svg width="1266.7pt" height="666.67pt" version="1.1" viewBox="0 0 1266.7 666.67" xmlns="http://www.w3.org/2000/svg" xmlns:xlink="http://www.w3.org/1999/xlink">
<defs>
<style type="text/css">*{stroke-linecap:butt;stroke-linejoin:round;}</style>
</defs>
<path d="m0 666.67h1266.7v-666.67h-1266.7z" fill="#fff"/>
<g fill="none" stroke="#000">
<path d="m549.99 31.41-100.17 125.04" clip-path="url(#a)"/>
<path d="m549.99 31.41 83.347 485.55" clip-path="url(#a)"/>
<path d="m549.99 31.41 125.31 125.04" clip-path="url(#a)"/>
<path d="m549.99 31.41-108.49 485.55" clip-path="url(#a)"/>
<path d="m449.82 156.45-262.78 122.26" clip-path="url(#a)"/>
<path d="m449.82 156.45 39.634 360.5" clip-path="url(#a)"/>
<path d="m449.82 156.45 87.594 360.5" clip-path="url(#a)"/>
<path d="m449.82 156.45 135.55 360.5" clip-path="url(#a)"/>
<path d="m633.33 516.96v118.3" clip-path="url(#a)"/>
<path d="m675.3 156.45 5.995 360.5" clip-path="url(#a)"/>
<path d="m675.3 156.45 299.75 122.26" clip-path="url(#a)"/>
<path d="m675.3 156.45-305.75 360.5" clip-path="url(#a)" stroke-dasharray="3.7,1.6"/>
<path d="m681.29 516.96v118.3" clip-path="url(#a)"/>
<path d="m975.05 278.71-173.86 238.25" clip-path="url(#a)"/>
<path d="m975.05 278.71-29.975 119.95" clip-path="url(#a)"/>
<path d="m975.05 278.71 41.965 238.25" clip-path="url(#a)"/>
<path d="m975.05 278.71 161.87 119.95" clip-path="url(#a)"/>
<path d="m801.19 516.96-71.94 118.3" clip-path="url(#a)"/>
<path d="m801.19 516.96-23.98 118.3" clip-path="url(#a)"/>
<path d="m801.19 516.96 23.98 118.3" clip-path="url(#a)"/>
<path d="m801.19 516.96 71.94 118.3" clip-path="url(#a)"/>
<path d="m945.07 398.65-23.98 118.3" clip-path="url(#a)"/>
<path d="m945.07 398.65 23.98 118.3" clip-path="url(#a)"/>
<path d="m1017 516.96v118.3" clip-path="url(#a)"/>
<path d="m1136.9 398.65-71.94 118.3" clip-path="url(#a)"/>
<path d="m1136.9 398.65-23.98 118.3" clip-path="url(#a)"/>
<path d="m1136.9 398.65 23.98 118.3" clip-path="url(#a)"/>
<path d="m1136.9 398.65 71.94 118.3" clip-path="url(#a)"/>
<path d="m1065 516.96v118.3" clip-path="url(#a)"/>
<path d="m1112.9 516.96v118.3" clip-path="url(#a)"/>
<path d="m1160.9 516.96v118.3" clip-path="url(#a)"/>
<path d="m921.09 516.96v118.3" clip-path="url(#a)"/>
<path d="m969.05 516.96v118.3" clip-path="url(#a)"/>
<path d="m187.04 278.71-129.23 238.25" clip-path="url(#a)"/>
<path d="m187.04 278.71-81.266 238.25" clip-path="url(#a)"/>
<path d="m187.04 278.71-33.306 238.25" clip-path="url(#a)"/>
<path d="m187.04 278.71 46.628 119.95" clip-path="url(#a)"/>
<path d="m187.04 278.71 182.51 238.25" clip-path="url(#a)"/>
<path d="m187.04 278.71 14.654 238.25" clip-path="url(#a)"/>
<path d="m489.45 516.96v118.3" clip-path="url(#a)"/>
<path d="m537.41 516.96v118.3" clip-path="url(#a)"/>
<path d="m585.37 516.96v118.3" clip-path="url(#a)"/>
<path d="m57.812 516.96v118.3" clip-path="url(#a)"/>
<path d="m105.77 516.96v118.3" clip-path="url(#a)"/>
<path d="m153.73 516.96v118.3" clip-path="url(#a)"/>
<path d="m233.67 398.65-79.934 118.3" clip-path="url(#a)" stroke-dasharray="3.7,1.6"/>
<path d="m233.67 398.65 15.987 118.3" clip-path="url(#a)"/>
<path d="m233.67 398.65 63.947 118.3" clip-path="url(#a)"/>
<path d="m369.55 516.96-23.98 118.3" clip-path="url(#a)"/>
<path d="m369.55 516.96 23.98 118.3" clip-path="url(#a)"/>
<path d="m249.65 516.96v118.3" clip-path="url(#a)"/>
<path d="m297.61 516.96v118.3" clip-path="url(#a)"/>
<path d="m586.15 31.41-136.33 125.04" clip-path="url(#a)"/>
<path d="m586.15 31.41 47.183 485.55" clip-path="url(#a)"/>
<path d="m586.15 31.41 89.148 125.04" clip-path="url(#a)"/>
<path d="m201.69 516.96v118.3" clip-path="url(#a)"/>
<path d="m441.49 516.96v118.3" clip-path="url(#a)"/>
<path d="m1208.9 516.96v118.3" clip-path="url(#a)"/>
</g>
<path d="m502.92 100.2 3.7614-4.6955q1.5005-1.8731-0.37263-3.3736l-6.0427-4.8406q-1.8731-1.5005-3.3736 0.37263l-3.7614 4.6955q-1.5005 1.8731 0.37263 3.3736l6.0427 4.8406q1.8731 1.5005 3.3736-0.37263z" clip-path="url(#a)" fill="#fff" stroke="#fff"/>
<g clip-path="url(#a)">
<defs>
<path id="ah" d="m9.8125 72.906h9.8594v-29.891h35.844v29.891h9.8594v-72.906h-9.8594v34.719h-35.844v-34.719h-9.8594z"/>
</defs>
<g transform="translate(499.74 97.658) rotate(-51.303) scale(.08 -.08)">
<use xlink:href="#ah"/>
</g>
</g>
<path d="m585.1 273.05 0.75413 4.3932q0.40604 2.3654 2.7714 1.9594l7.6309-1.3099q2.3654-0.40604 1.9594-2.7714l-0.75413-4.3932q-0.40604-2.3654-2.7714-1.9594l-7.6309 1.3099q-2.3654 0.40604-1.9594 2.7714z" clip-path="url(#a)" fill="#fff" stroke="#fff"/>
<g clip-path="url(#a)">
<defs>
<path id="x" d="m9.8125 72.906h9.8594v-64.609h35.5v-8.2969h-45.359z"/>
</defs>
<g transform="translate(589.11 272.36) rotate(80.26) scale(.08 -.08)">
<use xlink:href="#x"/>
</g>
</g>
<path d="m606.08 96.245 4.2587 4.2495q1.6989 1.6952 3.3941-0.003665l5.4689-5.4807q1.6952-1.6989-0.003665-3.3941l-4.2587-4.2495q-1.6989-1.6952-3.3941 0.003665l-5.4689 5.4807q-1.6952 1.6989 0.003665 3.3941z" clip-path="url(#a)" fill="#fff" stroke="#fff"/>
<g clip-path="url(#a)">
<g transform="translate(608.95 93.368) rotate(44.938) scale(.08 -.08)">
<use xlink:href="#ah"/>
</g>
</g>
<path d="m501.22 278.41 1.2768-5.7141q0.52336-2.3422-1.8189-2.8656l-7.5562-1.6884q-2.3422-0.52336-2.8656 1.8189l-1.2768 5.7141q-0.52336 2.3422 1.8189 2.8656l7.5562 1.6884q2.3422 0.52336 2.8656-1.8189z" clip-path="url(#a)" fill="#fff" stroke="#fff"/>
<g clip-path="url(#a)">
<defs>
<path id="y" d="m8.6875 72.906h9.9219v-44.297q0-11.719 4.2344-16.875 4.25-5.1406 13.781-5.1406 9.4688 0 13.719 5.1406 4.25 5.1562 4.25 16.875v44.297h9.9062v-45.516q0-14.25-7.0625-21.531-7.0469-7.2812-20.812-7.2812-13.828 0-20.891 7.2812-7.0469 7.2812-7.0469 21.531z"/>
</defs>
<g transform="translate(497.26 277.52) rotate(-77.404) scale(.08 -.08)">
<use xlink:href="#y"/>
</g>
</g>
<path d="m318.59 224.42 4.9618-2.3084q2.176-1.0124 1.1637-3.1884l-3.266-7.02q-1.0124-2.176-3.1884-1.1637l-4.9618 2.3084q-2.176 1.0124-1.1637 3.1884l3.266 7.02q1.0124 2.176 3.1884 1.1637z" clip-path="url(#a)" fill="#fff" stroke="#fff"/>
<g clip-path="url(#a)">
<defs>
<path id="q" d="m34.188 63.188-13.391-36.281h26.812zm-5.5781 9.7188h11.188l27.781-72.906h-10.25l-6.6406 18.703h-32.859l-6.6406-18.703h-10.406z"/>
</defs>
<g transform="translate(316.88 220.74) rotate(-24.95) scale(.08 -.08)">
<use xlink:href="#q"/>
</g>
</g>
<path d="m463.15 335.1 0.50283 4.5737q0.26228 2.3856 2.6479 2.1234l7.6961-0.84611q2.3856-0.26227 2.1234-2.6479l-0.50283-4.5737q-0.26227-2.3856-2.6479-2.1234l-7.6961 0.84611q-2.3856 0.26228-2.1234 2.6479z" clip-path="url(#a)" fill="#fff" stroke="#fff"/>
<g clip-path="url(#a)">
<defs>
<path id="as" d="m9.8125 72.906h41.891v-8.3125h-32.031v-21.484h28.906v-8.2969h-28.906v-34.812h-9.8594z"/>
</defs>
<g transform="translate(467.19 334.66) rotate(83.726) scale(.08 -.08)">
<use xlink:href="#as"/>
</g>
</g>
<path d="m486.8 335.19 1.4544 5.9858q0.56666 2.3321 2.8988 1.7655l7.5236-1.8281q2.3321-0.56666 1.7655-2.8988l-1.4544-5.9858q-0.56666-2.3321-2.8988-1.7655l-7.5236 1.8281q-2.3321 0.56666-1.7655 2.8988z" clip-path="url(#a)" fill="#fff" stroke="#fff"/>
<g clip-path="url(#a)">
<defs>
<path id="at" d="m19.672 64.797v-56.688h11.922q15.094 0 22.094 6.8281 7 6.8438 7 21.594 0 14.641-7 21.453t-22.094 6.8125zm-9.8594 8.1094h20.266q21.188 0 31.094-8.8125 9.9219-8.8125 9.9219-27.562 0-18.859-9.9688-27.703-9.9531-8.8281-31.047-8.8281h-20.266z"/>
</defs>
<g transform="translate(490.74 334.23) rotate(76.343) scale(.08 -.08)">
<use xlink:href="#at"/>
</g>
</g>
<path d="m510.88 336.65 1.6977 4.5151q0.84469 2.2464 3.0911 1.4018l7.2471-2.725q2.2464-0.84469 1.4018-3.0911l-1.6977-4.5151q-0.84469-2.2464-3.0911-1.4018l-7.2471 2.725q-2.2464 0.84469-1.4018 3.0911z" clip-path="url(#a)" fill="#fff" stroke="#fff"/>
<g clip-path="url(#a)">
<defs>
<path id="ag" d="m19.672 64.797v-27.391h12.406q6.8906 0 10.641 3.5625 3.7656 3.5625 3.7656 10.156 0 6.5469-3.7656 10.109-3.75 3.5625-10.641 3.5625zm-9.8594 8.1094h22.266q12.266 0 18.531-5.5469 6.2812-5.5469 6.2812-16.234 0-10.797-6.2812-16.312-6.2656-5.5156-18.531-5.5156h-12.406v-29.297h-9.8594z"/>
</defs>
<g transform="translate(514.68 335.22) rotate(69.393) scale(.08 -.08)">
<use xlink:href="#ag"/>
</g>
</g>
<path d="m627.06 558.46v35.285q0 2.4 2.4 2.4h7.7425q2.4 0 2.4-2.4v-35.285q0-2.4-2.4-2.4h-7.7425q-2.4 0-2.4 2.4z" clip-path="url(#a)" fill="#fff" stroke="#fff"/>
<g clip-path="url(#a)">
<defs>
<path id="l" d="m-0.29688 72.906h61.672v-8.3125h-25.875v-64.594h-9.9062v64.594h-25.891z"/>
<path id="d" d="m56.203 29.594v-4.3906h-41.312q0.59375-9.2812 5.5938-14.141t13.938-4.8594q5.1719 0 10.031 1.2656t9.6562 3.8125v-8.5q-4.8438-2.0469-9.9219-3.125t-10.297-1.0781q-13.094 0-20.734 7.6094-7.6406 7.625-7.6406 20.625 0 13.422 7.25 21.297 7.25 7.8906 19.562 7.8906 11.031 0 17.453-7.1094 6.4219-7.0938 6.4219-19.297zm-8.9844 2.6406q-0.09375 7.3594-4.125 11.75-4.0312 4.4062-10.672 4.4062-7.5156 0-12.031-4.25t-5.2031-11.969z"/>
<path id="e" d="m41.109 46.297q-1.5156 0.875-3.2969 1.2812-1.7812 0.42188-3.9219 0.42188-7.625 0-11.703-4.9531t-4.0781-14.234v-28.812h-9.0312v54.688h9.0312v-8.5q2.8438 4.9844 7.375 7.3906 4.5469 2.4219 11.047 2.4219 0.92188 0 2.0469-0.125 1.125-0.10938 2.4844-0.35938z"/>
<path id="k" d="m52 44.188q3.375 6.0625 8.0625 8.9375t11.031 2.875q8.5469 0 13.188-5.9844 4.6406-5.9688 4.6406-17v-33.016h-9.0312v32.719q0 7.8594-2.7969 11.656-2.7812 3.8125-8.4844 3.8125-6.9844 0-11.047-4.6406-4.0469-4.625-4.0469-12.641v-30.906h-9.0312v32.719q0 7.9062-2.7812 11.688t-8.5938 3.7812q-6.8906 0-10.953-4.6562-4.0469-4.6562-4.0469-12.625v-30.906h-9.0312v54.688h9.0312v-8.5q3.0781 5.0312 7.375 7.4219t10.203 2.3906q5.9688 0 10.141-3.0312 4.1719-3.0156 6.1719-8.7812z"/>
<path id="i" d="m9.4219 54.688h8.9844v-54.688h-8.9844zm0 21.297h8.9844v-11.391h-8.9844z"/>
<path id="h" d="m54.891 33.016v-33.016h-8.9844v32.719q0 7.7656-3.0312 11.609-3.0312 3.8594-9.0781 3.8594-7.2812 0-11.484-4.6406-4.2031-4.625-4.2031-12.641v-30.906h-9.0312v54.688h9.0312v-8.5q3.2344 4.9375 7.5938 7.375 4.375 2.4375 10.094 2.4375 9.4219 0 14.25-5.8281 4.8438-5.8281 4.8438-17.156z"/>
<path id="g" d="m34.281 27.484q-10.891 0-15.094-2.4844t-4.2031-8.5q0-4.7812 3.1562-7.5938 3.1562-2.7969 8.5625-2.7969 7.4844 0 12 5.2969t4.5156 14.078v2zm17.922 3.7188v-31.203h-8.9844v8.2969q-3.0781-4.9688-7.6719-7.3438t-11.234-2.375q-8.3906 0-13.359 4.7188-4.9531 4.7188-4.9531 12.625 0 9.2188 6.1719 13.906 6.1875 4.6875 18.438 4.6875h12.609v0.89062q0 6.2031-4.0781 9.5938t-11.453 3.3906q-4.6875 0-9.1406-1.125-4.4375-1.125-8.5312-3.375v8.3125q4.9219 1.9062 9.5625 2.8438 4.6406 0.95312 9.0312 0.95312 11.875 0 17.734-6.1562 5.8594-6.1406 5.8594-18.641z"/>
<path id="j" d="m9.4219 75.984h8.9844v-75.984h-8.9844z"/>
</defs>
<g transform="translate(631.13 558.46) rotate(90) scale(.08 -.08)">
<use xlink:href="#l"/>
<use x="60.818359" xlink:href="#d"/>
<use x="122.341797" xlink:href="#e"/>
<use x="163.439453" xlink:href="#k"/>
<use x="260.851562" xlink:href="#i"/>
<use x="288.634766" xlink:href="#h"/>
<use x="352.013672" xlink:href="#g"/>
<use x="413.292969" xlink:href="#j"/>
</g>
</g>
<path d="m671.99 334.4 0.080206 4.8231q0.039905 2.3997 2.4396 2.3598l7.7414-0.12874q2.3997-0.039905 2.3598-2.4396l-0.080205-4.8231q-0.039906-2.3997-2.4396-2.3598l-7.7414 0.12874q-2.3997 0.039905-2.3598 2.4396z" clip-path="url(#a)" fill="#fff" stroke="#fff"/>
<g clip-path="url(#a)">
<g transform="translate(676.05 334.33) rotate(89.047) scale(.08 -.08)">
<use xlink:href="#ag"/>
</g>
</g>
<path d="m820.27 222.35 5.0672 2.0667q2.2223 0.90638 3.1286-1.3159l2.924-7.1691q0.90638-2.2223-1.3159-3.1286l-5.0672-2.0667q-2.2223-0.90638-3.1286 1.3159l-2.924 7.1691q-0.90638 2.2223 1.3159 3.1286z" clip-path="url(#a)" fill="#fff" stroke="#fff"/>
<g clip-path="url(#a)">
<g transform="translate(821.81 218.59) rotate(22.189) scale(.08 -.08)">
<use xlink:href="#q"/>
</g>
</g>
<path d="m525.44 342.85 3.5397-4.1736q1.5523-1.8304-0.27802-3.3827l-5.9048-5.0079q-1.8304-1.5523-3.3827 0.27802l-3.5397 4.1736q-1.5523 1.8304 0.27802 3.3827l5.9048 5.0079q1.8304 1.5523 3.3827-0.27802z" clip-path="url(#a)" fill="#fff" stroke="#fff"/>
<g clip-path="url(#a)">
<g transform="translate(522.34 340.22) rotate(-49.699) scale(.08 -.08)">
<use xlink:href="#q"/>
</g>
</g>
<path d="m675.02 558.46v35.285q0 2.4 2.4 2.4h7.7425q2.4 0 2.4-2.4v-35.285q0-2.4-2.4-2.4h-7.7425q-2.4 0-2.4 2.4z" clip-path="url(#a)" fill="#fff" stroke="#fff"/>
<g clip-path="url(#a)">
<g transform="translate(679.09 558.46) rotate(90) scale(.08 -.08)">
<use xlink:href="#l"/>
<use x="60.818359" xlink:href="#d"/>
<use x="122.341797" xlink:href="#e"/>
<use x="163.439453" xlink:href="#k"/>
<use x="260.851562" xlink:href="#i"/>
<use x="288.634766" xlink:href="#h"/>
<use x="352.013672" xlink:href="#g"/>
<use x="413.292969" xlink:href="#j"/>
</g>
</g>
<path d="m891.7 403.57 2.9798-4.0834q1.4147-1.9387-0.52398-3.3534l-6.2543-4.5639q-1.9387-1.4147-3.3534 0.52398l-2.9798 4.0834q-1.4147 1.9387 0.52398 3.3534l6.2543 4.5639q1.9387 1.4147 3.3534-0.52398z" clip-path="url(#a)" fill="#fff" stroke="#fff"/>
<g clip-path="url(#a)">
<defs>
<path id="n" d="m9.8125 72.906h46.094v-8.3125h-36.234v-21.578h34.719v-8.2969h-34.719v-26.422h37.109v-8.2969h-46.969z"/>
</defs>
<g transform="translate(888.41 401.18) rotate(-53.881) scale(.08 -.08)">
<use xlink:href="#n"/>
</g>
</g>
<path d="m965.53 342.65 1.2256-4.9042q0.58187-2.3284-1.7465-2.9103l-7.5115-1.8771q-2.3284-0.58187-2.9103 1.7465l-1.2256 4.9042q-0.58187 2.3284 1.7465 2.9103l7.5115 1.8771q2.3284 0.58187 2.9103-1.7465z" clip-path="url(#a)" fill="#fff" stroke="#fff"/>
<g clip-path="url(#a)">
<g transform="translate(961.59 341.67) rotate(-75.969) scale(.08 -.08)">
<use xlink:href="#n"/>
</g>
</g>
<path d="m989.37 396.17 0.96905 5.5016q0.41633 2.3636 2.7799 1.9473l7.6251-1.3431q2.3636-0.41633 1.9473-2.7799l-0.96905-5.5016q-0.41633-2.3636-2.7799-1.9473l-7.6251 1.3431q-2.3636 0.41633-1.9473 2.7799z" clip-path="url(#a)" fill="#fff" stroke="#fff"/>
<g clip-path="url(#a)">
<defs>
<path id="u" d="m64.406 67.281v-10.391q-4.9844 4.6406-10.625 6.9219-5.6406 2.2969-11.984 2.2969-12.5 0-19.141-7.6406t-6.6406-22.094q0-14.406 6.6406-22.047t19.141-7.6406q6.3438 0 11.984 2.2969t10.625 6.9375v-10.312q-5.1719-3.5156-10.969-5.2812-5.7812-1.75-12.219-1.75-16.562 0-26.094 10.125-9.5156 10.141-9.5156 27.672 0 17.578 9.5156 27.703 9.5312 10.141 26.094 10.141 6.5312 0 12.312-1.7344 5.7969-1.7344 10.875-5.2031z"/>
</defs>
<g transform="translate(993.37 395.46) rotate(80.01) scale(.08 -.08)">
<use xlink:href="#u"/>
</g>
</g>
<path d="m1050.2 342.22 4.0614 3.0096q1.9283 1.4289 3.3572-0.49937l4.6097-6.2207q1.4289-1.9283-0.49937-3.3572l-4.0614-3.0096q-1.9283-1.4289-3.3572 0.49937l-4.6097 6.2207q-1.4289 1.9283 0.49937 3.3572z" clip-path="url(#a)" fill="#fff" stroke="#fff"/>
<g clip-path="url(#a)">
<g transform="translate(1052.6 338.95) rotate(36.539) scale(.08 -.08)">
<use xlink:href="#n"/>
</g>
</g>
<path d="m761.42 594.44 18.333-30.148q1.247-2.0506-0.80361-3.2976l-6.6154-4.0229q-2.0506-1.247-3.2976 0.80361l-18.333 30.148q-1.247 2.0506 0.80361 3.2976l6.6154 4.0229q2.0506 1.247 3.2976-0.80361z" clip-path="url(#a)" fill="#fff" stroke="#fff"/>
<g clip-path="url(#a)">
<g transform="translate(757.94 592.33) rotate(-58.696) scale(.08 -.08)">
<use xlink:href="#l"/>
<use x="60.818359" xlink:href="#d"/>
<use x="122.341797" xlink:href="#e"/>
<use x="163.439453" xlink:href="#k"/>
<use x="260.851562" xlink:href="#i"/>
<use x="288.634766" xlink:href="#h"/>
<use x="352.013672" xlink:href="#g"/>
<use x="413.292969" xlink:href="#j"/>
</g>
</g>
<path d="m791.85 594.64 7.0098-34.582q0.47679-2.3522-1.8754-2.829l-7.5882-1.5382q-2.3522-0.47679-2.829 1.8754l-7.0098 34.582q-0.47679 2.3522 1.8754 2.829l7.5882 1.5382q2.3522 0.47679 2.829-1.8754z" clip-path="url(#a)" fill="#fff" stroke="#fff"/>
<g clip-path="url(#a)">
<g transform="translate(787.86 593.84) rotate(-78.541) scale(.08 -.08)">
<use xlink:href="#l"/>
<use x="60.818359" xlink:href="#d"/>
<use x="122.341797" xlink:href="#e"/>
<use x="163.439453" xlink:href="#k"/>
<use x="260.851562" xlink:href="#i"/>
<use x="288.634766" xlink:href="#h"/>
<use x="352.013672" xlink:href="#g"/>
<use x="413.292969" xlink:href="#j"/>
</g>
</g>
<path d="m803.53 560.06 7.0098 34.582q0.47679 2.3522 2.829 1.8754l7.5882-1.5382q2.3522-0.47679 1.8754-2.829l-7.0098-34.582q-0.47679-2.3522-2.829-1.8754l-7.5882 1.5382q-2.3522 0.47679-1.8754 2.829z" clip-path="url(#a)" fill="#fff" stroke="#fff"/>
<g clip-path="url(#a)">
<g transform="translate(807.52 559.25) rotate(78.541) scale(.08 -.08)">
<use xlink:href="#l"/>
<use x="60.818359" xlink:href="#d"/>
<use x="122.341797" xlink:href="#e"/>
<use x="163.439453" xlink:href="#k"/>
<use x="260.851562" xlink:href="#i"/>
<use x="288.634766" xlink:href="#h"/>
<use x="352.013672" xlink:href="#g"/>
<use x="413.292969" xlink:href="#j"/>
</g>
</g>
<path d="m822.64 564.29 18.333 30.148q1.247 2.0506 3.2976 0.80361l6.6154-4.0229q2.0506-1.247 0.80361-3.2976l-18.333-30.148q-1.247-2.0506-3.2976-0.80361l-6.6154 4.0229q-2.0506 1.247-0.80361 3.2976z" clip-path="url(#a)" fill="#fff" stroke="#fff"/>
<g clip-path="url(#a)">
<g transform="translate(826.11 562.18) rotate(58.696) scale(.08 -.08)">
<use xlink:href="#l"/>
<use x="60.818359" xlink:href="#d"/>
<use x="122.341797" xlink:href="#e"/>
<use x="163.439453" xlink:href="#k"/>
<use x="260.851562" xlink:href="#i"/>
<use x="288.634766" xlink:href="#h"/>
<use x="352.013672" xlink:href="#g"/>
<use x="413.292969" xlink:href="#j"/>
</g>
</g>
<path d="m938.73 461.53 1.0042-4.9542q0.47679-2.3522-1.8754-2.829l-7.5882-1.5382q-2.3522-0.47679-2.829 1.8754l-1.0042 4.9542q-0.47679 2.3522 1.8754 2.829l7.5882 1.5382q2.3522 0.47679 2.829-1.8754z" clip-path="url(#a)" fill="#fff" stroke="#fff"/>
<g clip-path="url(#a)">
<g transform="translate(934.75 460.72) rotate(-78.541) scale(.08 -.08)">
<use xlink:href="#n"/>
</g>
</g>
<path d="m950.36 456.31 1.1098 5.4749q0.47679 2.3522 2.829 1.8754l7.5882-1.5382q2.3522-0.47679 1.8754-2.829l-1.1098-5.4749q-0.47679-2.3522-2.829-1.8754l-7.5882 1.5382q-2.3522 0.47679-1.8754 2.829z" clip-path="url(#a)" fill="#fff" stroke="#fff"/>
<g clip-path="url(#a)">
<g transform="translate(954.35 455.51) rotate(78.541) scale(.08 -.08)">
<use xlink:href="#u"/>
</g>
</g>
<path d="m1010.7 558.46v35.285q0 2.4 2.4 2.4h7.7425q2.4 0 2.4-2.4v-35.285q0-2.4-2.4-2.4h-7.7425q-2.4 0-2.4 2.4z" clip-path="url(#a)" fill="#fff" stroke="#fff"/>
<g clip-path="url(#a)">
<g transform="translate(1014.8 558.46) rotate(90) scale(.08 -.08)">
<use xlink:href="#l"/>
<use x="60.818359" xlink:href="#d"/>
<use x="122.341797" xlink:href="#e"/>
<use x="163.439453" xlink:href="#k"/>
<use x="260.851562" xlink:href="#i"/>
<use x="288.634766" xlink:href="#h"/>
<use x="352.013672" xlink:href="#g"/>
<use x="413.292969" xlink:href="#j"/>
</g>
</g>
<path d="m1104.9 463.44 2.8882-4.7495q1.247-2.0506-0.80361-3.2976l-6.6154-4.0229q-2.0506-1.247-3.2976 0.80361l-2.8882 4.7495q-1.247 2.0506 0.80361 3.2976l6.6154 4.0229q2.0506 1.247 3.2976-0.80361z" clip-path="url(#a)" fill="#fff" stroke="#fff"/>
<g clip-path="url(#a)">
<defs>
<path id="z" d="m44.391 34.188q3.1719-1.0781 6.1719-4.5938t6.0312-9.6719l10.016-19.922h-10.609l-9.3125 18.703q-3.625 7.3281-7.0156 9.7188t-9.25 2.3906h-10.75v-30.812h-9.8594v72.906h22.266q12.5 0 18.656-5.2344 6.1562-5.2188 6.1562-15.766 0-6.8906-3.2031-11.438-3.2031-4.5312-9.2969-6.2812zm-24.719 30.609v-25.875h12.406q7.125 0 10.766 3.2969t3.6406 9.6875-3.6406 9.6406-10.766 3.25z"/>
</defs>
<g transform="translate(1101.4 461.33) rotate(-58.696) scale(.08 -.08)">
<use xlink:href="#z"/>
</g>
</g>
<path d="m1130.6 461.53 1.0042-4.9542q0.47679-2.3522-1.8754-2.829l-7.5882-1.5382q-2.3522-0.47679-2.829 1.8754l-1.0042 4.9542q-0.47679 2.3522 1.8754 2.829l7.5882 1.5382q2.3522 0.47679 2.829-1.8754z" clip-path="url(#a)" fill="#fff" stroke="#fff"/>
<g clip-path="url(#a)">
<g transform="translate(1126.6 460.72) rotate(-78.541) scale(.08 -.08)">
<use xlink:href="#n"/>
</g>
</g>
<path d="m1142.2 456.31 1.1098 5.4749q0.47679 2.3522 2.829 1.8754l7.5882-1.5382q2.3522-0.47679 1.8754-2.829l-1.1098-5.4749q-0.47679-2.3522-2.829-1.8754l-7.5882 1.5382q-2.3522 0.47679-1.8754 2.829z" clip-path="url(#a)" fill="#fff" stroke="#fff"/>
<g clip-path="url(#a)">
<g transform="translate(1146.2 455.51) rotate(78.541) scale(.08 -.08)">
<use xlink:href="#u"/>
</g>
</g>
<path d="m1166 458.56 3.0422 5.0026q1.247 2.0506 3.2976 0.80361l6.6154-4.0229q2.0506-1.247 0.80361-3.2976l-3.0422-5.0026q-1.247-2.0506-3.2976-0.80361l-6.6154 4.0229q-2.0506 1.247-0.80361 3.2976z" clip-path="url(#a)" fill="#fff" stroke="#fff"/>
<g clip-path="url(#a)">
<g transform="translate(1169.5 456.45) rotate(58.696) scale(.08 -.08)">
<use xlink:href="#y"/>
</g>
</g>
<path d="m1058.7 558.46v35.285q0 2.4 2.4 2.4h7.7425q2.4 0 2.4-2.4v-35.285q0-2.4-2.4-2.4h-7.7425q-2.4 0-2.4 2.4z" clip-path="url(#a)" fill="#fff" stroke="#fff"/>
<g clip-path="url(#a)">
<g transform="translate(1062.8 558.46) rotate(90) scale(.08 -.08)">
<use xlink:href="#l"/>
<use x="60.818359" xlink:href="#d"/>
<use x="122.341797" xlink:href="#e"/>
<use x="163.439453" xlink:href="#k"/>
<use x="260.851562" xlink:href="#i"/>
<use x="288.634766" xlink:href="#h"/>
<use x="352.013672" xlink:href="#g"/>
<use x="413.292969" xlink:href="#j"/>
</g>
</g>
<path d="m1106.7 558.46v35.285q0 2.4 2.4 2.4h7.7425q2.4 0 2.4-2.4v-35.285q0-2.4-2.4-2.4h-7.7425q-2.4 0-2.4 2.4z" clip-path="url(#a)" fill="#fff" stroke="#fff"/>
<g clip-path="url(#a)">
<g transform="translate(1110.7 558.46) rotate(90) scale(.08 -.08)">
<use xlink:href="#l"/>
<use x="60.818359" xlink:href="#d"/>
<use x="122.341797" xlink:href="#e"/>
<use x="163.439453" xlink:href="#k"/>
<use x="260.851562" xlink:href="#i"/>
<use x="288.634766" xlink:href="#h"/>
<use x="352.013672" xlink:href="#g"/>
<use x="413.292969" xlink:href="#j"/>
</g>
</g>
<path d="m1154.6 558.46v35.285q0 2.4 2.4 2.4h7.7425q2.4 0 2.4-2.4v-35.285q0-2.4-2.4-2.4h-7.7425q-2.4 0-2.4 2.4z" clip-path="url(#a)" fill="#fff" stroke="#fff"/>
<g clip-path="url(#a)">
<g transform="translate(1158.7 558.46) rotate(90) scale(.08 -.08)">
<use xlink:href="#l"/>
<use x="60.818359" xlink:href="#d"/>
<use x="122.341797" xlink:href="#e"/>
<use x="163.439453" xlink:href="#k"/>
<use x="260.851562" xlink:href="#i"/>
<use x="288.634766" xlink:href="#h"/>
<use x="352.013672" xlink:href="#g"/>
<use x="413.292969" xlink:href="#j"/>
</g>
</g>
<path d="m914.82 558.46v35.285q0 2.4 2.4 2.4h7.7425q2.4 0 2.4-2.4v-35.285q0-2.4-2.4-2.4h-7.7425q-2.4 0-2.4 2.4z" clip-path="url(#a)" fill="#fff" stroke="#fff"/>
<g clip-path="url(#a)">
<g transform="translate(918.89 558.46) rotate(90) scale(.08 -.08)">
<use xlink:href="#l"/>
<use x="60.818359" xlink:href="#d"/>
<use x="122.341797" xlink:href="#e"/>
<use x="163.439453" xlink:href="#k"/>
<use x="260.851562" xlink:href="#i"/>
<use x="288.634766" xlink:href="#h"/>
<use x="352.013672" xlink:href="#g"/>
<use x="413.292969" xlink:href="#j"/>
</g>
</g>
<path d="m962.78 558.46v35.285q0 2.4 2.4 2.4h7.7425q2.4 0 2.4-2.4v-35.285q0-2.4-2.4-2.4h-7.7425q-2.4 0-2.4 2.4z" clip-path="url(#a)" fill="#fff" stroke="#fff"/>
<g clip-path="url(#a)">
<g transform="translate(966.85 558.46) rotate(90) scale(.08 -.08)">
<use xlink:href="#l"/>
<use x="60.818359" xlink:href="#d"/>
<use x="122.341797" xlink:href="#e"/>
<use x="163.439453" xlink:href="#k"/>
<use x="260.851562" xlink:href="#i"/>
<use x="288.634766" xlink:href="#h"/>
<use x="352.013672" xlink:href="#g"/>
<use x="413.292969" xlink:href="#j"/>
</g>
</g>
<path d="m126.73 403.04 2.4101-4.4435q1.1443-2.1097-0.96537-3.2539l-6.8058-3.6915q-2.1097-1.1443-3.2539 0.96538l-2.4101 4.4435q-1.1443 2.1097 0.96538 3.2539l6.8058 3.6915q2.1097 1.1443 3.2539-0.96538z" clip-path="url(#a)" fill="#fff" stroke="#fff"/>
<g clip-path="url(#a)">
<g transform="translate(123.16 401.11) rotate(-61.525) scale(.08 -.08)">
<use xlink:href="#n"/>
</g>
</g>
<path d="m151.52 402.25 1.6319-4.7843q0.7748-2.2715-1.4967-3.0463l-7.3279-2.4995q-2.2715-0.7748-3.0463 1.4967l-1.6319 4.7843q-0.7748 2.2715 1.4967 3.0463l7.3279 2.4995q2.2715 0.7748 3.0463-1.4967z" clip-path="url(#a)" fill="#fff" stroke="#fff"/>
<g clip-path="url(#a)">
<g transform="translate(147.68 400.94) rotate(-71.166) scale(.08 -.08)">
<use xlink:href="#n"/>
</g>
</g>
<path d="m176.21 401.47 0.7734-5.5325q0.33227-2.3769-2.0446-2.7092l-7.6679-1.0719q-2.3769-0.33228-2.7092 2.0446l-0.7734 5.5325q-0.33227 2.3769 2.0446 2.7092l7.6679 1.0719q2.3769 0.33228 2.7092-2.0446z" clip-path="url(#a)" fill="#fff" stroke="#fff"/>
<g clip-path="url(#a)">
<g transform="translate(172.18 400.9) rotate(-82.042) scale(.08 -.08)">
<use xlink:href="#u"/>
</g>
</g>
<path d="m203.59 338.6 1.8315 4.7115q0.86958 2.2369 3.1065 1.3673l7.2164-2.8053q2.2369-0.86958 1.3673-3.1065l-1.8315-4.7115q-0.86958-2.2369-3.1065-1.3673l-7.2164 2.8053q-2.2369 0.86958-1.3673 3.1065z" clip-path="url(#a)" fill="#fff" stroke="#fff"/>
<g clip-path="url(#a)">
<g transform="translate(207.38 337.13) rotate(68.757) scale(.08 -.08)">
<use xlink:href="#n"/>
</g>
</g>
<path d="m271.78 399.64 3.0741 4.0128q1.4595 1.9052 3.3647 0.44568l6.1463-4.7085q1.9052-1.4595 0.44568-3.3647l-3.0741-4.0128q-1.4595-1.9052-3.3647-0.44568l-6.1463 4.7085q-1.9052 1.4595-0.44568 3.3647z" clip-path="url(#a)" fill="#fff" stroke="#fff"/>
<g clip-path="url(#a)">
<g transform="translate(275.01 397.17) rotate(52.545) scale(.08 -.08)">
<use xlink:href="#n"/>
</g>
</g>
<path d="m187.93 395.3 0.35946 5.844q0.14734 2.3955 2.5428 2.2481l7.7279-0.47534q2.3955-0.14734 2.2481-2.5428l-0.35946-5.844q-0.14734-2.3955-2.5428-2.2481l-7.7279 0.47534q-2.3955 0.14734-2.2481 2.5428z" clip-path="url(#a)" fill="#fff" stroke="#fff"/>
<g clip-path="url(#a)">
<g transform="translate(191.98 395.05) rotate(86.48) scale(.08 -.08)">
<use xlink:href="#y"/>
</g>
</g>
<path d="m483.18 558.46v35.285q0 2.4 2.4 2.4h7.7425q2.4 0 2.4-2.4v-35.285q0-2.4-2.4-2.4h-7.7425q-2.4 0-2.4 2.4z" clip-path="url(#a)" fill="#fff" stroke="#fff"/>
<g clip-path="url(#a)">
<g transform="translate(487.25 558.46) rotate(90) scale(.08 -.08)">
<use xlink:href="#l"/>
<use x="60.818359" xlink:href="#d"/>
<use x="122.341797" xlink:href="#e"/>
<use x="163.439453" xlink:href="#k"/>
<use x="260.851562" xlink:href="#i"/>
<use x="288.634766" xlink:href="#h"/>
<use x="352.013672" xlink:href="#g"/>
<use x="413.292969" xlink:href="#j"/>
</g>
</g>
<path d="m531.14 558.46v35.285q0 2.4 2.4 2.4h7.7425q2.4 0 2.4-2.4v-35.285q0-2.4-2.4-2.4h-7.7425q-2.4 0-2.4 2.4z" clip-path="url(#a)" fill="#fff" stroke="#fff"/>
<g clip-path="url(#a)">
<g transform="translate(535.21 558.46) rotate(90) scale(.08 -.08)">
<use xlink:href="#l"/>
<use x="60.818359" xlink:href="#d"/>
<use x="122.341797" xlink:href="#e"/>
<use x="163.439453" xlink:href="#k"/>
<use x="260.851562" xlink:href="#i"/>
<use x="288.634766" xlink:href="#h"/>
<use x="352.013672" xlink:href="#g"/>
<use x="413.292969" xlink:href="#j"/>
</g>
</g>
<path d="m579.1 558.46v35.285q0 2.4 2.4 2.4h7.7425q2.4 0 2.4-2.4v-35.285q0-2.4-2.4-2.4h-7.7425q-2.4 0-2.4 2.4z" clip-path="url(#a)" fill="#fff" stroke="#fff"/>
<g clip-path="url(#a)">
<g transform="translate(583.17 558.46) rotate(90) scale(.08 -.08)">
<use xlink:href="#l"/>
<use x="60.818359" xlink:href="#d"/>
<use x="122.341797" xlink:href="#e"/>
<use x="163.439453" xlink:href="#k"/>
<use x="260.851562" xlink:href="#i"/>
<use x="288.634766" xlink:href="#h"/>
<use x="352.013672" xlink:href="#g"/>
<use x="413.292969" xlink:href="#j"/>
</g>
</g>
<path d="m51.541 558.46v35.285q0 2.4 2.4 2.4h7.7425q2.4 0 2.4-2.4v-35.285q0-2.4-2.4-2.4h-7.7425q-2.4 0-2.4 2.4z" clip-path="url(#a)" fill="#fff" stroke="#fff"/>
<g clip-path="url(#a)">
<g transform="translate(55.604 558.46) rotate(90) scale(.08 -.08)">
<use xlink:href="#l"/>
<use x="60.818359" xlink:href="#d"/>
<use x="122.341797" xlink:href="#e"/>
<use x="163.439453" xlink:href="#k"/>
<use x="260.851562" xlink:href="#i"/>
<use x="288.634766" xlink:href="#h"/>
<use x="352.013672" xlink:href="#g"/>
<use x="413.292969" xlink:href="#j"/>
</g>
</g>
<path d="m99.501 558.46v35.285q0 2.4 2.4 2.4h7.7425q2.4 0 2.4-2.4v-35.285q0-2.4-2.4-2.4h-7.7425q-2.4 0-2.4 2.4z" clip-path="url(#a)" fill="#fff" stroke="#fff"/>
<g clip-path="url(#a)">
<g transform="translate(103.56 558.46) rotate(90) scale(.08 -.08)">
<use xlink:href="#l"/>
<use x="60.818359" xlink:href="#d"/>
<use x="122.341797" xlink:href="#e"/>
<use x="163.439453" xlink:href="#k"/>
<use x="260.851562" xlink:href="#i"/>
<use x="288.634766" xlink:href="#h"/>
<use x="352.013672" xlink:href="#g"/>
<use x="413.292969" xlink:href="#j"/>
</g>
</g>
<path d="m147.46 558.46v35.285q0 2.4 2.4 2.4h7.7425q2.4 0 2.4-2.4v-35.285q0-2.4-2.4-2.4h-7.7425q-2.4 0-2.4 2.4z" clip-path="url(#a)" fill="#fff" stroke="#fff"/>
<g clip-path="url(#a)">
<g transform="translate(151.52 558.46) rotate(90) scale(.08 -.08)">
<use xlink:href="#l"/>
<use x="60.818359" xlink:href="#d"/>
<use x="122.341797" xlink:href="#e"/>
<use x="163.439453" xlink:href="#k"/>
<use x="260.851562" xlink:href="#i"/>
<use x="288.634766" xlink:href="#h"/>
<use x="352.013672" xlink:href="#g"/>
<use x="413.292969" xlink:href="#j"/>
</g>
</g>
<path d="m197.33 463.63 3.1275-4.6287q1.3437-1.9886-0.64495-3.3323l-6.4153-4.3347q-1.9886-1.3437-3.3323 0.64495l-3.1275 4.6287q-1.3437 1.9886 0.64495 3.3323l6.4153 4.3347q1.9886 1.3437 3.3323-0.64495z" clip-path="url(#a)" fill="#fff" stroke="#fff"/>
<g clip-path="url(#a)">
<g transform="translate(193.96 461.36) rotate(-55.954) scale(.08 -.08)">
<use xlink:href="#u"/>
</g>
</g>
<path d="m235.11 456.14 0.67696 5.0095q0.3214 2.3784 2.6998 2.057l7.6728-1.0369q2.3784-0.3214 2.057-2.6998l-0.67696-5.0095q-0.3214-2.3784-2.6998-2.057l-7.6728 1.0369q-2.3784 0.3214-2.057 2.6998z" clip-path="url(#a)" fill="#fff" stroke="#fff"/>
<g clip-path="url(#a)">
<g transform="translate(239.13 455.6) rotate(82.304) scale(.08 -.08)">
<use xlink:href="#n"/>
</g>
</g>
<path d="m258.8 458.34 2.6433 4.8901q1.1412 2.1113 3.2525 0.97005l6.8111-3.6817q2.1113-1.1412 0.97005-3.2525l-2.6433-4.8901q-1.1412-2.1113-3.2525-0.97005l-6.8111 3.6817q-2.1113 1.1412-0.97005 3.2525z" clip-path="url(#a)" fill="#fff" stroke="#fff"/>
<g clip-path="url(#a)">
<g transform="translate(262.38 456.41) rotate(61.607) scale(.08 -.08)">
<use xlink:href="#z"/>
</g>
</g>
<path d="m360.2 594.64 7.0098-34.582q0.47679-2.3522-1.8754-2.829l-7.5882-1.5382q-2.3522-0.47679-2.829 1.8754l-7.0098 34.582q-0.47679 2.3522 1.8754 2.829l7.5882 1.5382q2.3522 0.47679 2.829-1.8754z" clip-path="url(#a)" fill="#fff" stroke="#fff"/>
<g clip-path="url(#a)">
<g transform="translate(356.22 593.84) rotate(-78.541) scale(.08 -.08)">
<use xlink:href="#l"/>
<use x="60.818359" xlink:href="#d"/>
<use x="122.341797" xlink:href="#e"/>
<use x="163.439453" xlink:href="#k"/>
<use x="260.851562" xlink:href="#i"/>
<use x="288.634766" xlink:href="#h"/>
<use x="352.013672" xlink:href="#g"/>
<use x="413.292969" xlink:href="#j"/>
</g>
</g>
<path d="m371.89 560.06 7.0098 34.582q0.47679 2.3522 2.829 1.8754l7.5882-1.5382q2.3522-0.47679 1.8754-2.829l-7.0098-34.582q-0.47679-2.3522-2.829-1.8754l-7.5882 1.5382q-2.3522 0.47679-1.8754 2.829z" clip-path="url(#a)" fill="#fff" stroke="#fff"/>
<g clip-path="url(#a)">
<g transform="translate(375.87 559.25) rotate(78.541) scale(.08 -.08)">
<use xlink:href="#l"/>
<use x="60.818359" xlink:href="#d"/>
<use x="122.341797" xlink:href="#e"/>
<use x="163.439453" xlink:href="#k"/>
<use x="260.851562" xlink:href="#i"/>
<use x="288.634766" xlink:href="#h"/>
<use x="352.013672" xlink:href="#g"/>
<use x="413.292969" xlink:href="#j"/>
</g>
</g>
<path d="m243.38 558.46v35.285q0 2.4 2.4 2.4h7.7425q2.4 0 2.4-2.4v-35.285q0-2.4-2.4-2.4h-7.7425q-2.4 0-2.4 2.4z" clip-path="url(#a)" fill="#fff" stroke="#fff"/>
<g clip-path="url(#a)">
<g transform="translate(247.44 558.46) rotate(90) scale(.08 -.08)">
<use xlink:href="#l"/>
<use x="60.818359" xlink:href="#d"/>
<use x="122.341797" xlink:href="#e"/>
<use x="163.439453" xlink:href="#k"/>
<use x="260.851562" xlink:href="#i"/>
<use x="288.634766" xlink:href="#h"/>
<use x="352.013672" xlink:href="#g"/>
<use x="413.292969" xlink:href="#j"/>
</g>
</g>
<path d="m291.34 558.46v35.285q0 2.4 2.4 2.4h7.7425q2.4 0 2.4-2.4v-35.285q0-2.4-2.4-2.4h-7.7425q-2.4 0-2.4 2.4z" clip-path="url(#a)" fill="#fff" stroke="#fff"/>
<g clip-path="url(#a)">
<g transform="translate(295.4 558.46) rotate(90) scale(.08 -.08)">
<use xlink:href="#l"/>
<use x="60.818359" xlink:href="#d"/>
<use x="122.341797" xlink:href="#e"/>
<use x="163.439453" xlink:href="#k"/>
<use x="260.851562" xlink:href="#i"/>
<use x="288.634766" xlink:href="#h"/>
<use x="352.013672" xlink:href="#g"/>
<use x="413.292969" xlink:href="#j"/>
</g>
</g>
<path d="m518.56 101.91 7.3199-6.7137q1.7687-1.6222 0.14646-3.391l-5.2334-5.7059q-1.6222-1.7687-3.391-0.14646l-7.3199 6.7137q-1.7687 1.6222-0.14646 3.391l5.2334 5.7059q1.6222 1.7687 3.391 0.14646z" clip-path="url(#a)" fill="#fff" stroke="#fff"/>
<g clip-path="url(#a)">
<g transform="translate(515.82 98.914) rotate(-42.527) scale(.08 -.08)">
<use xlink:href="#x"/>
<use x="55.744141" xlink:href="#q"/>
</g>
</g>
<path d="m603.02 269.8 0.96877 9.9693q0.23213 2.3887 2.6209 2.1566l7.7062-0.74885q2.3887-0.23213 2.1566-2.6209l-0.96877-9.9693q-0.23213-2.3887-2.6209-2.1566l-7.7062 0.74885q-2.3887 0.23213-2.1566 2.6209z" clip-path="url(#a)" fill="#fff" stroke="#fff"/>
<g clip-path="url(#a)">
<g transform="translate(607.06 269.41) rotate(84.45) scale(.08 -.08)">
<use xlink:href="#x"/>
<use x="55.712891" xlink:href="#z"/>
</g>
</g>
<path d="m622.74 93.527 5.766 8.0875q1.3932 1.9542 3.3474 0.56096l6.3043-4.4946q1.9542-1.3932 0.56096-3.3474l-5.766-8.0875q-1.3932-1.9542-3.3474-0.56096l-6.3043 4.4946q-1.9542 1.3932-0.56096 3.3474z" clip-path="url(#a)" fill="#fff" stroke="#fff"/>
<g clip-path="url(#a)">
<g transform="translate(626.04 91.168) rotate(54.513) scale(.08 -.08)">
<use xlink:href="#x"/>
<use x="55.744141" xlink:href="#q"/>
</g>
</g>
<path d="m195.42 558.46v35.285q0 2.4 2.4 2.4h7.7425q2.4 0 2.4-2.4v-35.285q0-2.4-2.4-2.4h-7.7425q-2.4 0-2.4 2.4z" clip-path="url(#a)" fill="#fff" stroke="#fff"/>
<g clip-path="url(#a)">
<g transform="translate(199.48 558.46) rotate(90) scale(.08 -.08)">
<use xlink:href="#l"/>
<use x="60.818359" xlink:href="#d"/>
<use x="122.341797" xlink:href="#e"/>
<use x="163.439453" xlink:href="#k"/>
<use x="260.851562" xlink:href="#i"/>
<use x="288.634766" xlink:href="#h"/>
<use x="352.013672" xlink:href="#g"/>
<use x="413.292969" xlink:href="#j"/>
</g>
</g>
<path d="m435.22 558.46v35.285q0 2.4 2.4 2.4h7.7425q2.4 0 2.4-2.4v-35.285q0-2.4-2.4-2.4h-7.7425q-2.4 0-2.4 2.4z" clip-path="url(#a)" fill="#fff" stroke="#fff"/>
<g clip-path="url(#a)">
<g transform="translate(439.29 558.46) rotate(90) scale(.08 -.08)">
<use xlink:href="#l"/>
<use x="60.818359" xlink:href="#d"/>
<use x="122.341797" xlink:href="#e"/>
<use x="163.439453" xlink:href="#k"/>
<use x="260.851562" xlink:href="#i"/>
<use x="288.634766" xlink:href="#h"/>
<use x="352.013672" xlink:href="#g"/>
<use x="413.292969" xlink:href="#j"/>
</g>
</g>
<path d="m1202.6 558.46v35.285q0 2.4 2.4 2.4h7.7425q2.4 0 2.4-2.4v-35.285q0-2.4-2.4-2.4h-7.7425q-2.4 0-2.4 2.4z" clip-path="url(#a)" fill="#fff" stroke="#fff"/>
<g clip-path="url(#a)">
<g transform="translate(1206.6 558.46) rotate(90) scale(.08 -.08)">
<use xlink:href="#l"/>
<use x="60.818359" xlink:href="#d"/>
<use x="122.341797" xlink:href="#e"/>
<use x="163.439453" xlink:href="#k"/>
<use x="260.851562" xlink:href="#i"/>
<use x="288.634766" xlink:href="#h"/>
<use x="352.013672" xlink:href="#g"/>
<use x="413.292969" xlink:href="#j"/>
</g>
</g>
<defs>
<path id="b" d="m0 8.6603c2.2967 0 4.4997-0.9125 6.1237-2.5365 1.624-1.624 2.5365-3.827 2.5365-6.1237s-0.9125-4.4997-2.5365-6.1237c-1.624-1.624-3.827-2.5365-6.1237-2.5365s-4.4997 0.9125-6.1237 2.5365c-1.624 1.624-2.5365 3.827-2.5365 6.1237s0.9125 4.4997 2.5365 6.1237c1.624 1.624 3.827 2.5365 6.1237 2.5365z"/>
</defs>
<g clip-path="url(#a)">
<use x="57.811849" y="635.257157" fill="#ffffff" stroke="#ffffff" xlink:href="#b"/>
</g>
<g clip-path="url(#a)">
<use x="105.771973" y="635.257157" fill="#ffffff" stroke="#ffffff" xlink:href="#b"/>
</g>
<g clip-path="url(#a)">
<use x="153.732097" y="635.257157" fill="#ffffff" stroke="#ffffff" xlink:href="#b"/>
</g>
<g clip-path="url(#a)">
<use x="201.69222" y="635.257157" fill="#ffffff" stroke="#ffffff" xlink:href="#b"/>
</g>
<g clip-path="url(#a)">
<use x="249.652344" y="635.257157" fill="#ffffff" stroke="#ffffff" xlink:href="#b"/>
</g>
<g clip-path="url(#a)">
<use x="297.612468" y="635.257157" fill="#ffffff" stroke="#ffffff" xlink:href="#b"/>
</g>
<g clip-path="url(#a)">
<use x="345.572591" y="635.257157" fill="#ffffff" stroke="#ffffff" xlink:href="#b"/>
</g>
<g clip-path="url(#a)">
<use x="393.532715" y="635.257157" fill="#ffffff" stroke="#ffffff" xlink:href="#b"/>
</g>
<g clip-path="url(#a)">
<use x="441.492839" y="635.257157" fill="#ffffff" stroke="#ffffff" xlink:href="#b"/>
</g>
<g clip-path="url(#a)">
<use x="489.452962" y="635.257157" fill="#ffffff" stroke="#ffffff" xlink:href="#b"/>
</g>
<g clip-path="url(#a)">
<use x="537.413086" y="635.257157" fill="#ffffff" stroke="#ffffff" xlink:href="#b"/>
</g>
<g clip-path="url(#a)">
<use x="585.37321" y="635.257157" fill="#ffffff" stroke="#ffffff" xlink:href="#b"/>
</g>
<g clip-path="url(#a)">
<use x="633.333333" y="635.257157" fill="#ffffff" stroke="#ffffff" xlink:href="#b"/>
</g>
<g clip-path="url(#a)">
<use x="681.293457" y="635.257157" fill="#ffffff" stroke="#ffffff" xlink:href="#b"/>
</g>
<g clip-path="url(#a)">
<use x="729.253581" y="635.257157" fill="#ffffff" stroke="#ffffff" xlink:href="#b"/>
</g>
<g clip-path="url(#a)">
<use x="777.213704" y="635.257157" fill="#ffffff" stroke="#ffffff" xlink:href="#b"/>
</g>
<g clip-path="url(#a)">
<use x="825.173828" y="635.257157" fill="#ffffff" stroke="#ffffff" xlink:href="#b"/>
</g>
<g clip-path="url(#a)">
<use x="873.133952" y="635.257157" fill="#ffffff" stroke="#ffffff" xlink:href="#b"/>
</g>
<g clip-path="url(#a)">
<use x="921.094075" y="635.257157" fill="#ffffff" stroke="#ffffff" xlink:href="#b"/>
</g>
<g clip-path="url(#a)">
<use x="969.054199" y="635.257157" fill="#ffffff" stroke="#ffffff" xlink:href="#b"/>
</g>
<g clip-path="url(#a)">
<use x="1017.014323" y="635.257157" fill="#ffffff" stroke="#ffffff" xlink:href="#b"/>
</g>
<g clip-path="url(#a)">
<use x="1064.974446" y="635.257157" fill="#ffffff" stroke="#ffffff" xlink:href="#b"/>
</g>
<g clip-path="url(#a)">
<use x="1112.93457" y="635.257157" fill="#ffffff" stroke="#ffffff" xlink:href="#b"/>
</g>
<g clip-path="url(#a)">
<use x="1160.894694" y="635.257157" fill="#ffffff" stroke="#ffffff" xlink:href="#b"/>
</g>
<g clip-path="url(#a)">
<use x="1208.854817" y="635.257157" fill="#ffffff" stroke="#ffffff" xlink:href="#b"/>
</g>
<g clip-path="url(#a)">
<use x="549.985966" y="31.409509" fill="#ffffff" stroke="#ffffff" xlink:href="#b"/>
</g>
<g clip-path="url(#a)">
<use x="449.819249" y="156.451632" fill="#ffffff" stroke="#ffffff" xlink:href="#b"/>
</g>
<g clip-path="url(#a)">
<use x="633.333333" y="516.956042" fill="#ffffff" stroke="#ffffff" xlink:href="#b"/>
</g>
<g clip-path="url(#a)">
<use x="675.298442" y="156.451632" fill="#ffffff" stroke="#ffffff" xlink:href="#b"/>
</g>
<g clip-path="url(#a)">
<use x="681.293457" y="516.956042" fill="#ffffff" stroke="#ffffff" xlink:href="#b"/>
</g>
<g clip-path="url(#a)">
<use x="975.049214" y="278.708112" fill="#ffffff" stroke="#ffffff" xlink:href="#b"/>
</g>
<g clip-path="url(#a)">
<use x="801.193766" y="516.956042" fill="#ffffff" stroke="#ffffff" xlink:href="#b"/>
</g>
<g clip-path="url(#a)">
<use x="945.074137" y="398.654926" fill="#ffffff" stroke="#ffffff" xlink:href="#b"/>
</g>
<g clip-path="url(#a)">
<use x="1017.014323" y="516.956042" fill="#ffffff" stroke="#ffffff" xlink:href="#b"/>
</g>
<g clip-path="url(#a)">
<use x="1136.914632" y="398.654926" fill="#ffffff" stroke="#ffffff" xlink:href="#b"/>
</g>
<g clip-path="url(#a)">
<use x="1064.974446" y="516.956042" fill="#ffffff" stroke="#ffffff" xlink:href="#b"/>
</g>
<g clip-path="url(#a)">
<use x="1112.93457" y="516.956042" fill="#ffffff" stroke="#ffffff" xlink:href="#b"/>
</g>
<g clip-path="url(#a)">
<use x="1160.894694" y="516.956042" fill="#ffffff" stroke="#ffffff" xlink:href="#b"/>
</g>
<g clip-path="url(#a)">
<use x="921.094075" y="516.956042" fill="#ffffff" stroke="#ffffff" xlink:href="#b"/>
</g>
<g clip-path="url(#a)">
<use x="969.054199" y="516.956042" fill="#ffffff" stroke="#ffffff" xlink:href="#b"/>
</g>
<g clip-path="url(#a)">
<use x="187.037738" y="278.708112" fill="#ffffff" stroke="#ffffff" xlink:href="#b"/>
</g>
<g clip-path="url(#a)">
<use x="489.452962" y="516.956042" fill="#ffffff" stroke="#ffffff" xlink:href="#b"/>
</g>
<g clip-path="url(#a)">
<use x="537.413086" y="516.956042" fill="#ffffff" stroke="#ffffff" xlink:href="#b"/>
</g>
<g clip-path="url(#a)">
<use x="585.37321" y="516.956042" fill="#ffffff" stroke="#ffffff" xlink:href="#b"/>
</g>
<g clip-path="url(#a)">
<use x="57.811849" y="516.956042" fill="#ffffff" stroke="#ffffff" xlink:href="#b"/>
</g>
<g clip-path="url(#a)">
<use x="105.771973" y="516.956042" fill="#ffffff" stroke="#ffffff" xlink:href="#b"/>
</g>
<g clip-path="url(#a)">
<use x="153.732097" y="516.956042" fill="#ffffff" stroke="#ffffff" xlink:href="#b"/>
</g>
<g clip-path="url(#a)">
<use x="233.665636" y="398.654926" fill="#ffffff" stroke="#ffffff" xlink:href="#b"/>
</g>
<g clip-path="url(#a)">
<use x="369.552653" y="516.956042" fill="#ffffff" stroke="#ffffff" xlink:href="#b"/>
</g>
<g clip-path="url(#a)">
<use x="249.652344" y="516.956042" fill="#ffffff" stroke="#ffffff" xlink:href="#b"/>
</g>
<g clip-path="url(#a)">
<use x="297.612468" y="516.956042" fill="#ffffff" stroke="#ffffff" xlink:href="#b"/>
</g>
<g clip-path="url(#a)">
<use x="586.150341" y="31.409509" fill="#808080" stroke="#808080" xlink:href="#b"/>
</g>
<g clip-path="url(#a)">
<use x="201.69222" y="516.956042" fill="#ffffff" stroke="#ffffff" xlink:href="#b"/>
</g>
<g clip-path="url(#a)">
<use x="441.492839" y="516.956042" fill="#ffffff" stroke="#ffffff" xlink:href="#b"/>
</g>
<g clip-path="url(#a)">
<use x="1208.854817" y="516.956042" fill="#ffffff" stroke="#ffffff" xlink:href="#b"/>
</g>
<g clip-path="url(#a)">
<g transform="translate(54.392 638.02) scale(.1 -.1)">
<use xlink:href="#q"/>
</g>
</g>
<g clip-path="url(#a)">
<defs>
<path id="p" d="m44.281 53.078v-8.5q-3.7969 1.9531-7.9062 2.9219-4.0938 0.98438-8.5 0.98438-6.6875 0-10.031-2.0469t-3.3438-6.1562q0-3.125 2.3906-4.9062t9.625-3.3906l3.0781-0.6875q9.5625-2.0469 13.594-5.7812t4.0312-10.422q0-7.625-6.0312-12.078-6.0312-4.4375-16.578-4.4375-4.3906 0-9.1562 0.85938t-10.031 2.5625v9.2812q4.9844-2.5938 9.8125-3.8906 4.8281-1.2812 9.5781-1.2812 6.3438 0 9.75 2.1719 3.4219 2.1719 3.4219 6.125 0 3.6562-2.4688 5.6094-2.4531 1.9531-10.812 3.7656l-3.125 0.73438q-8.3438 1.75-12.062 5.3906-3.7031 3.6406-3.7031 9.9844 0 7.7188 5.4688 11.906 5.4688 4.2031 15.531 4.2031 4.9688 0 9.3594-0.73438 4.4062-0.71875 8.1094-2.1875z"/>
<path id="w" d="m48.781 52.594v-8.4062q-3.8125 2.1094-7.6406 3.1562t-7.7344 1.0469q-8.75 0-13.594-5.5469-4.8281-5.5312-4.8281-15.547t4.8281-15.562q4.8438-5.5312 13.594-5.5312 3.9062 0 7.7344 1.0469t7.6406 3.1562v-8.3125q-3.7656-1.75-7.7969-2.625-4.0156-0.89062-8.5625-0.89062-12.359 0-19.641 7.7656-7.2656 7.7656-7.2656 20.953 0 13.375 7.3438 21.031 7.3594 7.6719 20.156 7.6719 4.1406 0 8.0938-0.85938 3.9531-0.84375 7.6719-2.5469z"/>
<path id="t" d="m30.609 48.391q-7.2188 0-11.422-5.6406t-4.2031-15.453 4.1719-15.453q4.1875-5.6406 11.453-5.6406 7.1875 0 11.375 5.6562 4.2031 5.6719 4.2031 15.438 0 9.7188-4.2031 15.406-4.1875 5.6875-11.375 5.6875zm0 7.6094q11.719 0 18.406-7.625 6.7031-7.6094 6.7031-21.078 0-13.422-6.7031-21.078-6.6875-7.6406-18.406-7.6406-11.766 0-18.438 7.6406-6.6562 7.6562-6.6562 21.078 0 13.469 6.6562 21.078 6.6719 7.625 18.438 7.625z"/>
<path id="r" d="m45.406 46.391v29.594h8.9844v-75.984h-8.9844v8.2031q-2.8281-4.875-7.1562-7.25-4.3125-2.375-10.375-2.375-9.9062 0-16.141 7.9062-6.2188 7.9219-6.2188 20.812t6.2188 20.797q6.2344 7.9062 16.141 7.9062 6.0625 0 10.375-2.375 4.3281-2.3594 7.1562-7.2344zm-30.609-19.094q0-9.9062 4.0781-15.547t11.203-5.6406 11.219 5.6406q4.1094 5.6406 4.1094 15.547t-4.1094 15.547q-4.0938 5.6406-11.219 5.6406t-11.203-5.6406-4.0781-15.547z"/>
</defs>
<g transform="translate(87.939 638.02) scale(.1 -.1)">
<use xlink:href="#p"/>
<use x="52.099609" xlink:href="#d"/>
<use x="113.623047" xlink:href="#w"/>
<use x="168.603516" xlink:href="#t"/>
<use x="229.785156" xlink:href="#h"/>
<use x="293.164062" xlink:href="#r"/>
</g>
</g>
<g clip-path="url(#a)">
<defs>
<path id="ae" d="m2.9844 54.688h9.5156l17.094-45.891 17.094 45.891h9.5156l-20.516-54.688h-12.203z"/>
</defs>
<g transform="translate(140.08 638.02) scale(.1 -.1)">
<use xlink:href="#h"/>
<use x="63.378906" xlink:href="#t"/>
<use x="124.560547" xlink:href="#ae"/>
<use x="183.740234" xlink:href="#d"/>
<use x="245.263672" xlink:href="#j"/>
</g>
</g>
<g clip-path="url(#a)">
<defs>
<path id="ak" d="m11.719 12.406h10.297v-8.4062l-8-15.625h-6.2969l4 15.625z"/>
</defs>
<g transform="translate(200.1 638.02) scale(.1 -.1)">
<use xlink:href="#ak"/>
</g>
</g>
<g clip-path="url(#a)">
<defs>
<path id="m" d="m19.188 8.2969h34.422v-8.2969h-46.281v8.2969q5.6094 5.8125 15.297 15.594 9.7031 9.7969 12.188 12.641 4.7344 5.3125 6.6094 9 1.8906 3.6875 1.8906 7.25 0 5.8125-4.0781 9.4688-4.0781 3.6719-10.625 3.6719-4.6406 0-9.7969-1.6094-5.1406-1.6094-11-4.8906v9.9688q5.9531 2.3906 11.125 3.6094 5.1875 1.2188 9.4844 1.2188 11.328 0 18.062-5.6719 6.7344-5.6562 6.7344-15.125 0-4.5-1.6875-8.5312-1.6719-4.0156-6.125-9.4844-1.2188-1.4219-7.7656-8.1875-6.5312-6.7656-18.453-18.922z"/>
<path id="v" d="m31.781 66.406q-7.6094 0-11.453-7.5-3.8281-7.4844-3.8281-22.531 0-14.984 3.8281-22.484 3.8438-7.5 11.453-7.5 7.6719 0 11.5 7.5 3.8438 7.5 3.8438 22.484 0 15.047-3.8438 22.531-3.8281 7.5-11.5 7.5zm0 7.8125q12.266 0 18.734-9.7031 6.4688-9.6875 6.4688-28.141 0-18.406-6.4688-28.109-6.4688-9.6875-18.734-9.6875-12.25 0-18.719 9.6875-6.4688 9.7031-6.4688 28.109 0 18.453 6.4688 28.141 6.4688 9.7031 18.719 9.7031z"/>
</defs>
<g transform="translate(236.93 638.02) scale(.1 -.1)">
<use xlink:href="#m"/>
<use x="63.623047" xlink:href="#v"/>
<use x="127.246094" xlink:href="#v"/>
<use x="190.869141" xlink:href="#m"/>
</g>
</g>
<g clip-path="url(#a)">
<defs>
<path id="av" d="m17.922 72.906v-27.109h-8.2969v27.109z"/>
</defs>
<g transform="translate(293.63 638.02) scale(.1 -.1)">
<use xlink:href="#av"/>
<use x="27.490234" xlink:href="#p"/>
</g>
</g>
<g clip-path="url(#a)">
<defs>
<path id="af" d="m54.891 33.016v-33.016h-8.9844v32.719q0 7.7656-3.0312 11.609-3.0312 3.8594-9.0781 3.8594-7.2812 0-11.484-4.6406-4.2031-4.625-4.2031-12.641v-30.906h-9.0312v75.984h9.0312v-29.797q3.2344 4.9375 7.5938 7.375 4.375 2.4375 10.094 2.4375 9.4219 0 14.25-5.8281 4.8438-5.8281 4.8438-17.156z"/>
</defs>
<g transform="translate(336.38 638.02) scale(.1 -.1)">
<use xlink:href="#q"/>
<use x="68.408203" xlink:href="#p"/>
<use x="120.507812" xlink:href="#af"/>
</g>
</g>
<g clip-path="url(#a)">
<defs>
<path id="ap" d="m3.3281 72.906h9.9531l15.328-61.625 15.281 61.625h11.094l15.328-61.625 15.281 61.625h10.016l-18.312-72.906h-12.406l-15.375 63.281-15.531-63.281h-12.406z"/>
<path id="aw" d="m32.172-5.0781q-3.7969-9.7656-7.4219-12.734-3.6094-2.9844-9.6562-2.9844h-7.1875v7.5156h5.2812q3.7031 0 5.75 1.7656 2.0625 1.75 4.5469 8.2969l1.6094 4.0938-22.109 53.812h9.5156l17.094-42.766 17.094 42.766h9.5156z"/>
</defs>
<g transform="translate(364.29 638.02) scale(.1 -.1)">
<use xlink:href="#ap"/>
<use x="98.798828" xlink:href="#d"/>
<use x="160.322266" xlink:href="#r"/>
<use x="223.798828" xlink:href="#h"/>
<use x="287.177734" xlink:href="#d"/>
<use x="348.701172" xlink:href="#p"/>
<use x="400.800781" xlink:href="#r"/>
<use x="464.277344" xlink:href="#g"/>
<use x="525.556641" xlink:href="#aw"/>
</g>
</g>
<g clip-path="url(#a)">
<g transform="translate(439.9 638.02) scale(.1 -.1)">
<use xlink:href="#ak"/>
</g>
</g>
<g clip-path="url(#a)">
<defs>
<path id="al" d="m4.2031 54.688h8.9844l11.234-42.672 11.172 42.672h10.594l11.234-42.672 11.188 42.672h8.9844l-14.312-54.688h-10.594l-11.766 44.828-11.812-44.828h-10.609z"/>
</defs>
<g transform="translate(479.7 638.02) scale(.1 -.1)">
<use xlink:href="#al"/>
<use x="81.787109" xlink:href="#g"/>
<use x="143.066406" xlink:href="#p"/>
</g>
</g>
<g clip-path="url(#a)">
<defs>
<path id="an" d="m48.688 27.297q0 9.9062-4.0781 15.547t-11.203 5.6406q-7.1406 0-11.219-5.6406t-4.0781-15.547 4.0781-15.547 11.219-5.6406q7.125 0 11.203 5.6406t4.0781 15.547zm-30.578 19.094q2.8438 4.875 7.1562 7.2344 4.3281 2.375 10.328 2.375 9.9688 0 16.188-7.9062 6.2344-7.9062 6.2344-20.797t-6.2344-20.812q-6.2188-7.9062-16.188-7.9062-6 0-10.328 2.375-4.3125 2.375-7.1562 7.25v-8.2031h-9.0312v75.984h9.0312z"/>
<path id="s" d="m18.312 70.219v-15.531h18.5v-6.9844h-18.5v-29.688q0-6.6875 1.8281-8.5938t7.4531-1.9062h9.2188v-7.5156h-9.2188q-10.406 0-14.359 3.875-3.9531 3.8906-3.9531 14.141v29.688h-6.5938v6.9844h6.5938v15.531z"/>
</defs>
<g transform="translate(522.11 638.02) scale(.1 -.1)">
<use xlink:href="#an"/>
<use x="63.476562" xlink:href="#d"/>
<use x="125" xlink:href="#s"/>
<use x="164.208984" xlink:href="#s"/>
<use x="203.417969" xlink:href="#d"/>
<use x="264.941406" xlink:href="#e"/>
</g>
</g>
<g clip-path="url(#a)">
<g transform="translate(563.82 638.02) scale(.1 -.1)">
<use xlink:href="#e"/>
<use x="41.082031" xlink:href="#d"/>
<use x="102.605469" xlink:href="#w"/>
<use x="157.585938" xlink:href="#d"/>
<use x="219.109375" xlink:href="#i"/>
<use x="246.892578" xlink:href="#ae"/>
<use x="306.072266" xlink:href="#d"/>
<use x="367.595703" xlink:href="#r"/>
</g>
</g>
<g clip-path="url(#a)">
<g transform="translate(623.93 638.02) scale(.1 -.1)">
<use xlink:href="#g"/>
<use x="61.279297" xlink:href="#h"/>
<use x="124.658203" xlink:href="#r"/>
</g>
</g>
<g clip-path="url(#a)">
<g transform="translate(667.11 638.02) scale(.1 -.1)">
<use xlink:href="#k"/>
<use x="97.412109" xlink:href="#g"/>
<use x="158.691406" xlink:href="#r"/>
<use x="222.167969" xlink:href="#d"/>
</g>
</g>
<g clip-path="url(#a)">
<g transform="translate(721.05 638.02) scale(.1 -.1)">
<use xlink:href="#s"/>
<use x="39.208984" xlink:href="#af"/>
<use x="102.587891" xlink:href="#d"/>
</g>
</g>
<g clip-path="url(#a)">
<defs>
<path id="ar" d="m9.8125 72.906h13.281l32.328-60.984v60.984h9.5625v-72.906h-13.281l-32.312 60.984v-60.984h-9.5781z"/>
</defs>
<g transform="translate(766.31 638.02) scale(.1 -.1)">
<use xlink:href="#ar"/>
<use x="74.804688" xlink:href="#d"/>
<use x="136.328125" xlink:href="#al"/>
</g>
</g>
<g clip-path="url(#a)">
<defs>
<path id="ao" d="m-0.20312 72.906h10.609l20.203-29.984 20.078 29.984h10.594l-25.781-38.188v-34.719h-9.9062v34.719z"/>
<path id="ax" d="m9.0781 75.984h9.0312v-44.875l26.812 23.578h11.469l-29-25.578 30.234-29.109h-11.719l-27.797 26.703v-26.703h-9.0312z"/>
</defs>
<g transform="translate(814.12 638.02) scale(.1 -.1)">
<use xlink:href="#ao"/>
<use x="60.880859" xlink:href="#t"/>
<use x="122.0625" xlink:href="#e"/>
<use x="163.175781" xlink:href="#ax"/>
</g>
</g>
<g clip-path="url(#a)">
<g transform="translate(858.14 638.02) scale(.1 -.1)">
<use xlink:href="#l"/>
<use x="61.037109" xlink:href="#i"/>
<use x="88.820312" xlink:href="#k"/>
<use x="186.232422" xlink:href="#d"/>
<use x="247.755859" xlink:href="#p"/>
</g>
</g>
<g clip-path="url(#a)">
<defs>
<path id="au" d="m19.672 34.812v-26.703h15.828q7.9531 0 11.781 3.2969 3.8438 3.2969 3.8438 10.078 0 6.8438-3.8438 10.078-3.8281 3.25-11.781 3.25zm0 29.984v-21.969h14.609q7.2188 0 10.75 2.7031 3.5469 2.7188 3.5469 8.2812 0 5.5156-3.5469 8.25-3.5312 2.7344-10.75 2.7344zm-9.8594 8.1094h25.203q11.281 0 17.375-4.6875 6.1094-4.6875 6.1094-13.328 0-6.7031-3.125-10.656t-9.1875-4.9219q7.2812-1.5625 11.312-6.5312 4.0312-4.9531 4.0312-12.375 0-9.7656-6.6406-15.094-6.6406-5.3125-18.906-5.3125h-26.172z"/>
</defs>
<g transform="translate(910.02 638.02) scale(.1 -.1)">
<use xlink:href="#au"/>
<use x="68.603516" xlink:href="#d"/>
<use x="130.126953" xlink:href="#p"/>
<use x="182.226562" xlink:href="#s"/>
</g>
</g>
<g clip-path="url(#a)">
<defs>
<path id="aq" d="m53.516 70.516v-9.625q-5.6094 2.6875-10.594 4-4.9844 1.3281-9.625 1.3281-8.0469 0-12.422-3.125t-4.375-8.8906q0-4.8438 2.9062-7.3125 2.9062-2.4531 11.016-3.9688l5.9531-1.2188q11.031-2.1094 16.281-7.4062t5.25-14.172q0-10.609-7.1094-16.078-7.0938-5.4688-20.812-5.4688-5.1719 0-11.016 1.1719-5.8281 1.1719-12.078 3.4688v10.156q6-3.3594 11.766-5.0781 5.7656-1.7031 11.328-1.7031 8.4375 0 13.031 3.3125 4.5938 3.3281 4.5938 9.4844 0 5.3594-3.2969 8.3906t-10.812 4.5469l-6.0156 1.1719q-11.031 2.1875-15.969 6.875-4.9219 4.6875-4.9219 13.047 0 9.6719 6.8125 15.234t18.766 5.5625q5.1406 0 10.453-0.9375 5.3281-0.92188 10.891-2.7656z"/>
</defs>
<g transform="translate(954.89 638.02) scale(.1 -.1)">
<use xlink:href="#aq"/>
<use x="63.476562" xlink:href="#d"/>
<use x="125" xlink:href="#j"/>
<use x="152.783203" xlink:href="#j"/>
<use x="180.566406" xlink:href="#d"/>
<use x="242.089844" xlink:href="#e"/>
</g>
</g>
<g clip-path="url(#a)">
<g transform="translate(1009.7 638.02) scale(.1 -.1)">
<use xlink:href="#j"/>
<use x="27.783203" xlink:href="#i"/>
<use x="55.566406" xlink:href="#p"/>
<use x="107.666016" xlink:href="#s"/>
</g>
</g>
<g clip-path="url(#a)">
<defs>
<path id="am" d="m37.109 75.984v-7.4844h-8.5938q-4.8281 0-6.7188-1.9531-1.875-1.9531-1.875-7.0312v-4.8281h14.797v-6.9844h-14.797v-47.703h-9.0312v47.703h-8.5938v6.9844h8.5938v3.8125q0 9.125 4.25 13.297 4.25 4.1875 13.469 4.1875z"/>
</defs>
<g transform="translate(1058.1 638.02) scale(.1 -.1)">
<use xlink:href="#am"/>
<use x="35.205078" xlink:href="#t"/>
<use x="96.386719" xlink:href="#e"/>
</g>
</g>
<g clip-path="url(#a)">
<g transform="translate(1087.6 638.02) scale(.1 -.1)">
<use xlink:href="#af"/>
<use x="63.378906" xlink:href="#g"/>
<use x="124.658203" xlink:href="#e"/>
<use x="165.755859" xlink:href="#r"/>
<use x="229.232422" xlink:href="#w"/>
<use x="284.212891" xlink:href="#t"/>
<use x="345.394531" xlink:href="#ae"/>
<use x="404.574219" xlink:href="#d"/>
<use x="466.097656" xlink:href="#e"/>
</g>
</g>
<g clip-path="url(#a)">
<g transform="translate(1145.4 638.02) scale(.1 -.1)">
<use xlink:href="#am"/>
<use x="35.205078" xlink:href="#i"/>
<use x="62.988281" xlink:href="#w"/>
<use x="117.96875" xlink:href="#s"/>
<use x="157.177734" xlink:href="#i"/>
<use x="184.960938" xlink:href="#t"/>
<use x="246.142578" xlink:href="#h"/>
</g>
</g>
<g clip-path="url(#a)">
<defs>
<path id="f" d="m10.688 12.406h10.312v-12.406h-10.312z"/>
</defs>
<g transform="translate(1207.3 638.02) scale(.1 -.1)">
<use xlink:href="#f"/>
</g>
</g>
<g clip-path="url(#a)">
<defs>
<path id="c" d="m12.406 8.2969h16.109v55.625l-17.531-3.5156v8.9844l17.438 3.5156h9.8594v-64.609h16.109v-8.2969h-41.984z"/>
</defs>
<g transform="translate(542.03 34.169) scale(.1 -.1)">
<use xlink:href="#c"/>
<use x="63.623047" xlink:href="#f"/>
<use x="95.410156" xlink:href="#c"/>
</g>
</g>
<g clip-path="url(#a)">
<g transform="translate(441.87 159.21) scale(.1 -.1)">
<use xlink:href="#c"/>
<use x="63.623047" xlink:href="#f"/>
<use x="95.410156" xlink:href="#m"/>
</g>
</g>
<g clip-path="url(#a)">
<defs>
<path id="o" d="m40.578 39.312q7.0781-1.5156 11.047-6.3125 3.9844-4.7812 3.9844-11.812 0-10.781-7.4219-16.703-7.4219-5.9062-21.094-5.9062-4.5781 0-9.4375 0.90625t-10.031 2.7188v9.5156q4.0938-2.3906 8.9688-3.6094 4.8906-1.2188 10.219-1.2188 9.2656 0 14.125 3.6562t4.8594 10.641q0 6.4531-4.5156 10.078-4.5156 3.6406-12.562 3.6406h-8.5v8.1094h8.8906q7.2656 0 11.125 2.9062t3.8594 8.375q0 5.6094-3.9844 8.6094-3.9688 3.0156-11.391 3.0156-4.0625 0-8.7031-0.89062-4.6406-0.875-10.203-2.7188v8.7812q5.625 1.5625 10.531 2.3438t9.25 0.78125q11.234 0 17.766-5.1094 6.5469-5.0938 6.5469-13.781 0-6.0625-3.4688-10.234t-9.8594-5.7812z"/>
</defs>
<g transform="translate(625.38 519.72) scale(.1 -.1)">
<use xlink:href="#c"/>
<use x="63.623047" xlink:href="#f"/>
<use x="95.410156" xlink:href="#o"/>
</g>
</g>
<g clip-path="url(#a)">
<defs>
<path id="ad" d="m37.797 64.312-24.906-38.922h24.906zm-2.5938 8.5938h12.406v-47.516h10.406v-8.2031h-10.406v-17.188h-9.8125v17.188h-32.906v9.5156z"/>
</defs>
<g transform="translate(667.35 159.21) scale(.1 -.1)">
<use xlink:href="#c"/>
<use x="63.623047" xlink:href="#f"/>
<use x="95.410156" xlink:href="#ad"/>
</g>
</g>
<g clip-path="url(#a)">
<defs>
<path id="ac" d="m33.016 40.375q-6.6406 0-10.531-4.5469-3.875-4.5312-3.875-12.438 0-7.8594 3.875-12.438 3.8906-4.5625 10.531-4.5625t10.516 4.5625q3.875 4.5781 3.875 12.438 0 7.9062-3.875 12.438-3.875 4.5469-10.516 4.5469zm19.578 30.922v-8.9844q-3.7188 1.75-7.5 2.6719-3.7812 0.9375-7.5 0.9375-9.7656 0-14.922-6.5938-5.1406-6.5938-5.875-19.922 2.875 4.25 7.2188 6.5156 4.3594 2.2656 9.5781 2.2656 10.984 0 17.359-6.6719 6.375-6.6562 6.375-18.125 0-11.234-6.6406-18.031-6.6406-6.7812-17.672-6.7812-12.656 0-19.344 9.6875-6.6875 9.7031-6.6875 28.109 0 17.281 8.2031 27.562t22.016 10.281q3.7188 0 7.5-0.73438t7.8906-2.1875z"/>
</defs>
<g transform="translate(673.34 519.72) scale(.1 -.1)">
<use xlink:href="#c"/>
<use x="63.623047" xlink:href="#f"/>
<use x="95.410156" xlink:href="#ac"/>
</g>
</g>
<g clip-path="url(#a)">
<defs>
<path id="ai" d="m8.2031 72.906h46.875v-4.2031l-26.469-68.703h-10.297l24.906 64.594h-35.016z"/>
</defs>
<g transform="translate(967.1 281.47) scale(.1 -.1)">
<use xlink:href="#c"/>
<use x="63.623047" xlink:href="#f"/>
<use x="95.410156" xlink:href="#ai"/>
</g>
</g>
<g clip-path="url(#a)">
<defs>
<path id="ab" d="m31.781 34.625q-7.0312 0-11.062-3.7656-4.0156-3.7656-4.0156-10.344 0-6.5938 4.0156-10.359 4.0312-3.7656 11.062-3.7656t11.078 3.7812q4.0625 3.7969 4.0625 10.344 0 6.5781-4.0312 10.344-4.0156 3.7656-11.109 3.7656zm-9.8594 4.1875q-6.3438 1.5625-9.8906 5.9062-3.5312 4.3594-3.5312 10.609 0 8.7344 6.2188 13.812 6.2344 5.0781 17.062 5.0781 10.891 0 17.094-5.0781t6.2031-13.812q0-6.25-3.5469-10.609-3.5312-4.3438-9.8281-5.9062 7.125-1.6562 11.094-6.5 3.9844-4.8281 3.9844-11.797 0-10.609-6.4688-16.281-6.4688-5.6562-18.531-5.6562-12.047 0-18.531 5.6562-6.4688 5.6719-6.4688 16.281 0 6.9688 4 11.797 4.0156 4.8438 11.141 6.5zm-3.6094 15.578q0-5.6562 3.5312-8.8281 3.5469-3.1719 9.9375-3.1719 6.3594 0 9.9375 3.1719 3.5938 3.1719 3.5938 8.8281 0 5.6719-3.5938 8.8438-3.5781 3.1719-9.9375 3.1719-6.3906 0-9.9375-3.1719-3.5312-3.1719-3.5312-8.8438z"/>
</defs>
<g transform="translate(793.24 519.72) scale(.1 -.1)">
<use xlink:href="#c"/>
<use x="63.623047" xlink:href="#f"/>
<use x="95.410156" xlink:href="#ab"/>
</g>
</g>
<g clip-path="url(#a)">
<defs>
<path id="aa" d="m10.984 1.5156v8.9844q3.7188-1.7656 7.5156-2.6875 3.8125-0.92188 7.4844-0.92188 9.7656 0 14.906 6.5625 5.1562 6.5625 5.8906 19.953-2.8281-4.2031-7.1875-6.4531-4.3438-2.25-9.6094-2.25-10.938 0-17.312 6.6094-6.375 6.625-6.375 18.109 0 11.219 6.6406 18 6.6406 6.7969 17.672 6.7969 12.656 0 19.312-9.7031 6.6719-9.6875 6.6719-28.141 0-17.234-8.1875-27.516-8.1719-10.281-21.984-10.281-3.7188 0-7.5312 0.73438-3.7969 0.73438-7.9062 2.2031zm19.625 30.906q6.6406 0 10.516 4.5312 3.8906 4.5469 3.8906 12.469 0 7.8594-3.8906 12.422-3.875 4.5625-10.516 4.5625t-10.516-4.5625-3.875-12.422q0-7.9219 3.875-12.469 3.875-4.5312 10.516-4.5312z"/>
</defs>
<g transform="translate(937.12 401.41) scale(.1 -.1)">
<use xlink:href="#c"/>
<use x="63.623047" xlink:href="#f"/>
<use x="95.410156" xlink:href="#aa"/>
</g>
</g>
<g clip-path="url(#a)">
<g transform="translate(1005.9 519.72) scale(.1 -.1)">
<use xlink:href="#c"/>
<use x="63.623047" xlink:href="#f"/>
<use x="95.410156" xlink:href="#c"/>
<use x="159.033203" xlink:href="#v"/>
</g>
</g>
<g clip-path="url(#a)">
<g transform="translate(1125.8 401.41) scale(.1 -.1)">
<use xlink:href="#c"/>
<use x="63.623047" xlink:href="#f"/>
<use x="95.410156" xlink:href="#c"/>
<use x="159.033203" xlink:href="#c"/>
</g>
</g>
<g clip-path="url(#a)">
<g transform="translate(1053.8 519.72) scale(.1 -.1)">
<use xlink:href="#c"/>
<use x="63.623047" xlink:href="#f"/>
<use x="95.410156" xlink:href="#c"/>
<use x="159.033203" xlink:href="#m"/>
</g>
</g>
<g clip-path="url(#a)">
<g transform="translate(1101.8 519.72) scale(.1 -.1)">
<use xlink:href="#c"/>
<use x="63.623047" xlink:href="#f"/>
<use x="95.410156" xlink:href="#c"/>
<use x="159.033203" xlink:href="#o"/>
</g>
</g>
<g clip-path="url(#a)">
<g transform="translate(1149.8 519.72) scale(.1 -.1)">
<use xlink:href="#c"/>
<use x="63.623047" xlink:href="#f"/>
<use x="95.410156" xlink:href="#c"/>
<use x="159.033203" xlink:href="#ad"/>
</g>
</g>
<g clip-path="url(#a)">
<defs>
<path id="aj" d="m10.797 72.906h38.719v-8.3125h-29.688v-17.859q2.1406 0.73438 4.2812 1.0938 2.1562 0.35938 4.3125 0.35938 12.203 0 19.328-6.6875 7.1406-6.6875 7.1406-18.109 0-11.766-7.3281-18.297-7.3281-6.5156-20.656-6.5156-4.5938 0-9.3594 0.78125-4.75 0.78125-9.8281 2.3438v9.9219q4.3906-2.3906 9.0781-3.5625t9.9062-1.1719q8.4531 0 13.375 4.4375 4.9375 4.4375 4.9375 12.062 0 7.6094-4.9375 12.047-4.9219 4.4531-13.375 4.4531-3.9531 0-7.8906-0.875-3.9219-0.875-8.0156-2.7344z"/>
</defs>
<g transform="translate(909.96 519.72) scale(.1 -.1)">
<use xlink:href="#c"/>
<use x="63.623047" xlink:href="#f"/>
<use x="95.410156" xlink:href="#c"/>
<use x="159.033203" xlink:href="#aj"/>
</g>
</g>
<g clip-path="url(#a)">
<g transform="translate(957.92 519.72) scale(.1 -.1)">
<use xlink:href="#c"/>
<use x="63.623047" xlink:href="#f"/>
<use x="95.410156" xlink:href="#c"/>
<use x="159.033203" xlink:href="#ac"/>
</g>
</g>
<g clip-path="url(#a)">
<g transform="translate(175.9 281.47) scale(.1 -.1)">
<use xlink:href="#c"/>
<use x="63.623047" xlink:href="#f"/>
<use x="95.410156" xlink:href="#c"/>
<use x="159.033203" xlink:href="#ai"/>
</g>
</g>
<g clip-path="url(#a)">
<g transform="translate(478.32 519.72) scale(.1 -.1)">
<use xlink:href="#c"/>
<use x="63.623047" xlink:href="#f"/>
<use x="95.410156" xlink:href="#c"/>
<use x="159.033203" xlink:href="#ab"/>
</g>
</g>
<g clip-path="url(#a)">
<g transform="translate(526.28 519.72) scale(.1 -.1)">
<use xlink:href="#c"/>
<use x="63.623047" xlink:href="#f"/>
<use x="95.410156" xlink:href="#c"/>
<use x="159.033203" xlink:href="#aa"/>
</g>
</g>
<g clip-path="url(#a)">
<g transform="translate(574.24 519.72) scale(.1 -.1)">
<use xlink:href="#c"/>
<use x="63.623047" xlink:href="#f"/>
<use x="95.410156" xlink:href="#m"/>
<use x="159.033203" xlink:href="#v"/>
</g>
</g>
<g clip-path="url(#a)">
<g transform="translate(46.679 519.72) scale(.1 -.1)">
<use xlink:href="#c"/>
<use x="63.623047" xlink:href="#f"/>
<use x="95.410156" xlink:href="#m"/>
<use x="159.033203" xlink:href="#m"/>
</g>
</g>
<g clip-path="url(#a)">
<g transform="translate(94.639 519.72) scale(.1 -.1)">
<use xlink:href="#c"/>
<use x="63.623047" xlink:href="#f"/>
<use x="95.410156" xlink:href="#m"/>
<use x="159.033203" xlink:href="#o"/>
</g>
</g>
<g clip-path="url(#a)">
<g transform="translate(142.6 519.72) scale(.1 -.1)">
<use xlink:href="#c"/>
<use x="63.623047" xlink:href="#f"/>
<use x="95.410156" xlink:href="#m"/>
<use x="159.033203" xlink:href="#ad"/>
</g>
</g>
<g clip-path="url(#a)">
<g transform="translate(222.53 401.41) scale(.1 -.1)">
<use xlink:href="#c"/>
<use x="63.623047" xlink:href="#f"/>
<use x="95.410156" xlink:href="#m"/>
<use x="159.033203" xlink:href="#aj"/>
</g>
</g>
<g clip-path="url(#a)">
<g transform="translate(358.42 519.72) scale(.1 -.1)">
<use xlink:href="#c"/>
<use x="63.623047" xlink:href="#f"/>
<use x="95.410156" xlink:href="#m"/>
<use x="159.033203" xlink:href="#ac"/>
</g>
</g>
<g clip-path="url(#a)">
<g transform="translate(238.52 519.72) scale(.1 -.1)">
<use xlink:href="#c"/>
<use x="63.623047" xlink:href="#f"/>
<use x="95.410156" xlink:href="#m"/>
<use x="159.033203" xlink:href="#ab"/>
</g>
</g>
<g clip-path="url(#a)">
<g transform="translate(286.48 519.72) scale(.1 -.1)">
<use xlink:href="#c"/>
<use x="63.623047" xlink:href="#f"/>
<use x="95.410156" xlink:href="#m"/>
<use x="159.033203" xlink:href="#aa"/>
</g>
</g>
<g clip-path="url(#a)">
<g transform="translate(575.02 34.169) scale(.1 -.1)">
<use xlink:href="#c"/>
<use x="63.623047" xlink:href="#f"/>
<use x="95.410156" xlink:href="#o"/>
<use x="159.033203" xlink:href="#v"/>
</g>
</g>
<g clip-path="url(#a)">
<g transform="translate(190.56 519.72) scale(.1 -.1)">
<use xlink:href="#c"/>
<use x="63.623047" xlink:href="#f"/>
<use x="95.410156" xlink:href="#o"/>
<use x="159.033203" xlink:href="#c"/>
</g>
</g>
<g clip-path="url(#a)">
<g transform="translate(430.36 519.72) scale(.1 -.1)">
<use xlink:href="#c"/>
<use x="63.623047" xlink:href="#f"/>
<use x="95.410156" xlink:href="#o"/>
<use x="159.033203" xlink:href="#m"/>
</g>
</g>
<g clip-path="url(#a)">
<g transform="translate(1197.7 519.72) scale(.1 -.1)">
<use xlink:href="#c"/>
<use x="63.623047" xlink:href="#f"/>
<use x="95.410156" xlink:href="#o"/>
<use x="159.033203" xlink:href="#o"/>
</g>
</g>
<defs>
<clipPath id="a">
<rect width="1266.7" height="666.67"/>
</clipPath>
</defs>
</svg>
