<?xml version="1.0" encoding="UTF-8"?>
<!DOCTYPE svg  PUBLIC '-//W3C//DTD SVG 1.1//EN'  'http://www.w3.org/Graphics/SVG/1.1/DTD/svg11.dtd'>
<svg width="1368pt" height="720pt" version="1.1" viewBox="0 0 1368 720" xmlns="http://www.w3.org/2000/svg" xmlns:xlink="http://www.w3.org/1999/xlink">
<defs>
<style type="text/css">*{stroke-linecap:butt;stroke-linejoin:round;}</style>
</defs>
<path d="m0 720h1368v-720h-1368z" fill="#fff"/>
<g fill="none" stroke="#000">
<path d="m620.98 33.834-347.06 267.15" clip-path="url(#a)"/>
<path d="m620.98 33.834 132.09 524.53" clip-path="url(#a)"/>
<path d="m620.98 33.834 214.97 135.08" clip-path="url(#a)"/>
<path d="m273.91 300.99-188.5 129.58" clip-path="url(#a)"/>
<path d="m273.91 300.99-96.407 129.58" clip-path="url(#a)"/>
<path d="m273.91 300.99 41.728 129.58" clip-path="url(#a)"/>
<path d="m273.91 300.99 243.18 129.58" clip-path="url(#a)"/>
<path d="m753.07 558.37v127.8" clip-path="url(#a)"/>
<path d="m835.95 168.92-13.814 261.65" clip-path="url(#a)"/>
<path d="m835.95 168.92 78.277 261.65" clip-path="url(#a)"/>
<path d="m835.95 168.92 285.48 132.07" clip-path="url(#a)"/>
<path d="m835.95 168.92 377.57 261.65" clip-path="url(#a)"/>
<path d="m835.95 168.92-727.51 389.45" clip-path="url(#a)" stroke-dasharray="3.7,1.6"/>
<path d="m822.14 430.57-23.023 127.8" clip-path="url(#a)"/>
<path d="m822.14 430.57 23.023 127.8" clip-path="url(#a)"/>
<path d="m914.23 430.57-23.023 127.8" clip-path="url(#a)"/>
<path d="m914.23 430.57 23.023 127.8" clip-path="url(#a)"/>
<path d="m1121.4 300.99 184.18 385.18" clip-path="url(#a)"/>
<path d="m1121.4 300.99-138.14 257.38" clip-path="url(#a)"/>
<path d="m1121.4 300.99-46.045 129.58" clip-path="url(#a)"/>
<path d="m1213.5 430.57-46.045 127.8" clip-path="url(#a)"/>
<path d="m1213.5 430.57v127.8" clip-path="url(#a)"/>
<path d="m1213.5 430.57 46.045 127.8" clip-path="url(#a)"/>
<path d="m1167.5 558.37v127.8" clip-path="url(#a)"/>
<path d="m1213.5 558.37v127.8" clip-path="url(#a)"/>
<path d="m983.29 558.37v127.8" clip-path="url(#a)"/>
<path d="m1075.4 430.57-46.045 127.8" clip-path="url(#a)"/>
<path d="m1075.4 430.57v127.8" clip-path="url(#a)"/>
<path d="m1075.4 430.57 46.045 127.8" clip-path="url(#a)"/>
<path d="m1029.3 558.37v127.8" clip-path="url(#a)"/>
<path d="m1075.4 558.37v127.8" clip-path="url(#a)"/>
<path d="m1121.4 558.37v127.8" clip-path="url(#a)"/>
<path d="m891.2 558.37v127.8" clip-path="url(#a)"/>
<path d="m937.25 558.37v127.8" clip-path="url(#a)"/>
<path d="m799.11 558.37v127.8" clip-path="url(#a)"/>
<path d="m845.16 558.37v127.8" clip-path="url(#a)"/>
<path d="m85.414 430.57-23.023 127.8" clip-path="url(#a)"/>
<path d="m85.414 430.57 23.023 127.8" clip-path="url(#a)"/>
<path d="m177.5 430.57-23.023 127.8" clip-path="url(#a)"/>
<path d="m177.5 430.57 23.023 127.8" clip-path="url(#a)"/>
<path d="m315.64 430.57-69.068 127.8" clip-path="url(#a)"/>
<path d="m315.64 430.57-23.023 127.8" clip-path="url(#a)"/>
<path d="m315.64 430.57 23.023 127.8" clip-path="url(#a)"/>
<path d="m315.64 430.57 69.068 127.8" clip-path="url(#a)"/>
<path d="m517.09 430.57-86.334 127.8" clip-path="url(#a)"/>
<path d="m517.09 430.57-40.289 127.8" clip-path="url(#a)"/>
<path d="m517.09 430.57 5.7556 127.8" clip-path="url(#a)"/>
<path d="m517.09 430.57 120.87 127.8" clip-path="url(#a)"/>
<path d="m430.75 558.37v127.8" clip-path="url(#a)"/>
<path d="m476.8 558.37v127.8" clip-path="url(#a)"/>
<path d="m522.84 558.37v127.8" clip-path="url(#a)"/>
<path d="m637.95 558.37-69.068 127.8" clip-path="url(#a)"/>
<path d="m637.95 558.37-23.023 127.8" clip-path="url(#a)"/>
<path d="m637.95 558.37 23.023 127.8" clip-path="url(#a)"/>
<path d="m637.95 558.37 69.068 127.8" clip-path="url(#a)"/>
<path d="m246.57 558.37v127.8" clip-path="url(#a)"/>
<path d="m292.62 558.37v127.8" clip-path="url(#a)"/>
<path d="m338.66 558.37v127.8" clip-path="url(#a)"/>
<path d="m384.71 558.37v127.8" clip-path="url(#a)"/>
<path d="m154.48 558.37v127.8" clip-path="url(#a)"/>
<path d="m200.53 558.37v127.8" clip-path="url(#a)"/>
<path d="m62.392 558.37v127.8" clip-path="url(#a)"/>
<path d="m108.44 558.37v127.8" clip-path="url(#a)"/>
<path d="m620.98 33.834-347.06 267.15" clip-path="url(#a)"/>
<path d="m620.98 33.834 132.09 524.53" clip-path="url(#a)"/>
<path d="m620.98 33.834 214.97 135.08" clip-path="url(#a)"/>
<path d="m1259.6 558.37v127.8" clip-path="url(#a)"/>
</g>
<path d="m448.89 174.22 4.7674-3.6697q1.9018-1.4639 0.43788-3.3657l-4.7227-6.1353q-1.4639-1.9018-3.3657-0.43788l-4.7674 3.6697q-1.9018 1.4639-0.43788 3.3657l4.7227 6.1353q1.4639 1.9018 3.3657 0.43788z" clip-path="url(#a)" fill="#fff" stroke="#fff"/>
<g clip-path="url(#a)">
<defs>
<path id="ak" d="m9.8125 72.906h9.8594v-29.891h35.844v29.891h9.8594v-72.906h-9.8594v34.719h-35.844v-34.719h-9.8594z"/>
</defs>
<g transform="translate(446.41 171) rotate(-37.587) scale(.08 -.08)">
<use xlink:href="#ak"/>
</g>
</g>
<path d="m680.4 295.47 1.0885 4.3225q0.58609 2.3273 2.9134 1.7412l7.5081-1.8907q2.3273-0.58609 1.7412-2.9134l-1.0885-4.3225q-0.58609-2.3273-2.9134-1.7412l-7.5081 1.8907q-2.3273 0.58609-1.7412 2.9134z" clip-path="url(#a)" fill="#fff" stroke="#fff"/>
<g clip-path="url(#a)">
<defs>
<path id="v" d="m9.8125 72.906h9.8594v-64.609h35.5v-8.2969h-45.359z"/>
</defs>
<g transform="translate(684.34 294.48) rotate(75.865) scale(.08 -.08)">
<use xlink:href="#v"/>
</g>
</g>
<path d="m722.58 105.08 5.094 3.2009q2.0321 1.2769 3.309-0.7552l4.1194-6.5557q1.2769-2.0321-0.7552-3.309l-5.094-3.2009q-2.0321-1.2769-3.309 0.7552l-4.1194 6.5557q-1.2769 2.0321 0.7552 3.309z" clip-path="url(#a)" fill="#fff" stroke="#fff"/>
<g clip-path="url(#a)">
<g transform="translate(724.74 101.64) rotate(32.144) scale(.08 -.08)">
<use xlink:href="#ak"/>
</g>
</g>
<path d="m180.96 372.5 4.5097-3.1001q1.9778-1.3596 0.6182-3.3373l-4.386-6.3804q-1.3596-1.9778-3.3373-0.6182l-4.5097 3.1001q-1.9778 1.3596-0.6182 3.3373l4.386 6.3804q1.3596 1.9778 3.3373 0.6182z" clip-path="url(#a)" fill="#fff" stroke="#fff"/>
<g clip-path="url(#a)">
<defs>
<path id="q" d="m34.188 63.188-13.391-36.281h26.812zm-5.5781 9.7188h11.188l27.781-72.906h-10.25l-6.6406 18.703h-32.859l-6.6406-18.703h-10.406z"/>
</defs>
<g transform="translate(178.66 369.15) rotate(-34.506) scale(.08 -.08)">
<use xlink:href="#q"/>
</g>
</g>
<path d="m229.3 371.46 2.8794-3.8701q1.4326-1.9255-0.49292-3.3581l-6.2118-4.6216q-1.9255-1.4326-3.3581 0.49292l-2.8794 3.8701q-1.4326 1.9255 0.49292 3.3581l6.2118 4.6216q1.9255 1.4326 3.3581-0.49292z" clip-path="url(#a)" fill="#fff" stroke="#fff"/>
<g clip-path="url(#a)">
<defs>
<path id="aa" d="m19.672 64.797v-27.391h12.406q6.8906 0 10.641 3.5625 3.7656 3.5625 3.7656 10.156 0 6.5469-3.7656 10.109-3.75 3.5625-10.641 3.5625zm-9.8594 8.1094h22.266q12.266 0 18.531-5.5469 6.2812-5.5469 6.2812-16.234 0-10.797-6.2812-16.312-6.2656-5.5156-18.531-5.5156h-12.406v-29.297h-9.8594z"/>
</defs>
<g transform="translate(226.04 369.03) rotate(-53.35) scale(.08 -.08)">
<use xlink:href="#aa"/>
</g>
</g>
<path d="m287.97 365.1 1.6775 5.2091q0.73568 2.2845 3.0201 1.5488l7.3698-2.3733q2.2845-0.73567 1.5488-3.0201l-1.6775-5.2091q-0.73568-2.2845-3.0201-1.5488l-7.3698 2.3733q-2.2845 0.73567-1.5488 3.0201z" clip-path="url(#a)" fill="#fff" stroke="#fff"/>
<g clip-path="url(#a)">
<g transform="translate(291.84 363.85) rotate(72.15) scale(.08 -.08)">
<use xlink:href="#q"/>
</g>
</g>
<path d="m390.13 370.03 4.8296 2.5735q2.1181 1.1286 3.2467-0.98944l3.641-6.833q1.1286-2.1181-0.98944-3.2467l-4.8296-2.5735q-2.1181-1.1286-3.2467 0.98944l-3.641 6.833q-1.1286 2.1181 0.98944 3.2467z" clip-path="url(#a)" fill="#fff" stroke="#fff"/>
<g clip-path="url(#a)">
<g transform="translate(392.05 366.44) rotate(28.051) scale(.08 -.08)">
<use xlink:href="#q"/>
</g>
</g>
<path d="m746.8 604.62v35.285q0 2.4 2.4 2.4h7.7425q2.4 0 2.4-2.4v-35.285q0-2.4-2.4-2.4h-7.7425q-2.4 0-2.4 2.4z" clip-path="url(#a)" fill="#fff" stroke="#fff"/>
<g clip-path="url(#a)">
<defs>
<path id="k" d="m-0.29688 72.906h61.672v-8.3125h-25.875v-64.594h-9.9062v64.594h-25.891z"/>
<path id="d" d="m56.203 29.594v-4.3906h-41.312q0.59375-9.2812 5.5938-14.141t13.938-4.8594q5.1719 0 10.031 1.2656t9.6562 3.8125v-8.5q-4.8438-2.0469-9.9219-3.125t-10.297-1.0781q-13.094 0-20.734 7.6094-7.6406 7.625-7.6406 20.625 0 13.422 7.25 21.297 7.25 7.8906 19.562 7.8906 11.031 0 17.453-7.1094 6.4219-7.0938 6.4219-19.297zm-8.9844 2.6406q-0.09375 7.3594-4.125 11.75-4.0312 4.4062-10.672 4.4062-7.5156 0-12.031-4.25t-5.2031-11.969z"/>
<path id="i" d="m41.109 46.297q-1.5156 0.875-3.2969 1.2812-1.7812 0.42188-3.9219 0.42188-7.625 0-11.703-4.9531t-4.0781-14.234v-28.812h-9.0312v54.688h9.0312v-8.5q2.8438 4.9844 7.375 7.3906 4.5469 2.4219 11.047 2.4219 0.92188 0 2.0469-0.125 1.125-0.10938 2.4844-0.35938z"/>
<path id="l" d="m52 44.188q3.375 6.0625 8.0625 8.9375t11.031 2.875q8.5469 0 13.188-5.9844 4.6406-5.9688 4.6406-17v-33.016h-9.0312v32.719q0 7.8594-2.7969 11.656-2.7812 3.8125-8.4844 3.8125-6.9844 0-11.047-4.6406-4.0469-4.625-4.0469-12.641v-30.906h-9.0312v32.719q0 7.9062-2.7812 11.688t-8.5938 3.7812q-6.8906 0-10.953-4.6562-4.0469-4.6562-4.0469-12.625v-30.906h-9.0312v54.688h9.0312v-8.5q3.0781 5.0312 7.375 7.4219t10.203 2.3906q5.9688 0 10.141-3.0312 4.1719-3.0156 6.1719-8.7812z"/>
<path id="h" d="m9.4219 54.688h8.9844v-54.688h-8.9844zm0 21.297h8.9844v-11.391h-8.9844z"/>
<path id="g" d="m54.891 33.016v-33.016h-8.9844v32.719q0 7.7656-3.0312 11.609-3.0312 3.8594-9.0781 3.8594-7.2812 0-11.484-4.6406-4.2031-4.625-4.2031-12.641v-30.906h-9.0312v54.688h9.0312v-8.5q3.2344 4.9375 7.5938 7.375 4.375 2.4375 10.094 2.4375 9.4219 0 14.25-5.8281 4.8438-5.8281 4.8438-17.156z"/>
<path id="e" d="m34.281 27.484q-10.891 0-15.094-2.4844t-4.2031-8.5q0-4.7812 3.1562-7.5938 3.1562-2.7969 8.5625-2.7969 7.4844 0 12 5.2969t4.5156 14.078v2zm17.922 3.7188v-31.203h-8.9844v8.2969q-3.0781-4.9688-7.6719-7.3438t-11.234-2.375q-8.3906 0-13.359 4.7188-4.9531 4.7188-4.9531 12.625 0 9.2188 6.1719 13.906 6.1875 4.6875 18.438 4.6875h12.609v0.89062q0 6.2031-4.0781 9.5938t-11.453 3.3906q-4.6875 0-9.1406-1.125-4.4375-1.125-8.5312-3.375v8.3125q4.9219 1.9062 9.5625 2.8438 4.6406 0.95312 9.0312 0.95312 11.875 0 17.734-6.1562 5.8594-6.1406 5.8594-18.641z"/>
<path id="j" d="m9.4219 75.984h8.9844v-75.984h-8.9844z"/>
</defs>
<g transform="translate(750.86 604.62) rotate(90) scale(.08 -.08)">
<use xlink:href="#k"/>
<use x="60.818359" xlink:href="#d"/>
<use x="122.341797" xlink:href="#i"/>
<use x="163.439453" xlink:href="#l"/>
<use x="260.851562" xlink:href="#h"/>
<use x="288.634766" xlink:href="#g"/>
<use x="352.013672" xlink:href="#e"/>
<use x="413.292969" xlink:href="#j"/>
</g>
</g>
<path d="m835.18 302.48 0.25431-4.817q0.12653-2.3967-2.2701-2.5232l-7.7317-0.40819q-2.3967-0.12653-2.5232 2.2701l-0.25431 4.817q-0.12653 2.3967 2.2701 2.5232l7.7317 0.40819q2.3967 0.12653 2.5232-2.2701z" clip-path="url(#a)" fill="#fff" stroke="#fff"/>
<g clip-path="url(#a)">
<g transform="translate(831.12 302.27) rotate(-86.978) scale(.08 -.08)">
<use xlink:href="#aa"/>
</g>
</g>
<path d="m868.29 298.92 1.5685 5.2429q0.68787 2.2993 2.9872 1.6114l7.4177-2.2191q2.2993-0.68787 1.6114-2.9872l-1.5685-5.2429q-0.68787-2.2993-2.9872-1.6114l-7.4177 2.2191q-2.2993 0.68787-1.6114 2.9872z" clip-path="url(#a)" fill="#fff" stroke="#fff"/>
<g clip-path="url(#a)">
<g transform="translate(872.19 297.75) rotate(73.345) scale(.08 -.08)">
<use xlink:href="#q"/>
</g>
</g>
<path d="m973.57 239.5 4.9667 2.2978q2.1782 1.0077 3.1859-1.1705l3.2509-7.0269q1.0077-2.1782-1.1705-3.1859l-4.9667-2.2978q-2.1782-1.0077-3.1859 1.1705l-3.2509 7.0269q-1.0077 2.1782 1.1705 3.1859z" clip-path="url(#a)" fill="#fff" stroke="#fff"/>
<g clip-path="url(#a)">
<g transform="translate(975.28 235.81) rotate(24.827) scale(.08 -.08)">
<use xlink:href="#q"/>
</g>
</g>
<path d="m1018.6 303.14 5.0631 3.5087q1.9726 1.367 3.3396-0.60563l4.41-6.3638q1.367-1.9726-0.60563-3.3396l-5.0631-3.5087q-1.9726-1.367-3.3396 0.60563l-4.41 6.3638q-1.367 1.9726 0.60563 3.3396z" clip-path="url(#a)" fill="#fff" stroke="#fff"/>
<g clip-path="url(#a)">
<defs>
<path id="aq" d="m19.672 64.797v-56.688h11.922q15.094 0 22.094 6.8281 7 6.8438 7 21.594 0 14.641-7 21.453t-22.094 6.8125zm-9.8594 8.1094h20.266q21.188 0 31.094-8.8125 9.9219-8.8125 9.9219-27.562 0-18.859-9.9688-27.703-9.9531-8.8281-31.047-8.8281h-20.266z"/>
</defs>
<g transform="translate(1020.9 299.8) rotate(34.721) scale(.08 -.08)">
<use xlink:href="#aq"/>
</g>
</g>
<path d="m472.74 370.46 4.8247-2.5827q2.1159-1.1327 0.98322-3.2486l-3.6541-6.826q-1.1327-2.1159-3.2486-0.98322l-4.8247 2.5827q-2.1159 1.1327-0.98322 3.2486l3.6541 6.826q1.1327 2.1159 3.2486 0.98322z" clip-path="url(#a)" fill="#fff" stroke="#fff"/>
<g clip-path="url(#a)">
<g transform="translate(470.82 366.88) rotate(-28.161) scale(.08 -.08)">
<use xlink:href="#q"/>
</g>
</g>
<path d="m816.39 497.84 0.81576-4.5284q0.4255-2.362-1.9365-2.7875l-7.6198-1.3727q-2.362-0.4255-2.7875 1.9365l-0.81576 4.5284q-0.4255 2.362 1.9365 2.7875l7.6198 1.3727q2.362 0.4255 2.7875-1.9365z" clip-path="url(#a)" fill="#fff" stroke="#fff"/>
<g clip-path="url(#a)">
<defs>
<path id="ac" d="m9.8125 72.906h41.891v-8.3125h-32.031v-21.484h28.906v-8.2969h-28.906v-34.812h-9.8594z"/>
</defs>
<g transform="translate(812.39 497.12) rotate(-79.788) scale(.08 -.08)">
<use xlink:href="#ac"/>
</g>
</g>
<path d="m826.98 492.83 0.99039 5.4978q0.4255 2.362 2.7875 1.9365l7.6198-1.3727q2.362-0.4255 1.9365-2.7875l-0.9904-5.4978q-0.4255-2.362-2.7875-1.9365l-7.6198 1.3727q-2.362 0.4255-1.9365 2.7875z" clip-path="url(#a)" fill="#fff" stroke="#fff"/>
<g clip-path="url(#a)">
<defs>
<path id="p" d="m64.406 67.281v-10.391q-4.9844 4.6406-10.625 6.9219-5.6406 2.2969-11.984 2.2969-12.5 0-19.141-7.6406t-6.6406-22.094q0-14.406 6.6406-22.047t19.141-7.6406q6.3438 0 11.984 2.2969t10.625 6.9375v-10.312q-5.1719-3.5156-10.969-5.2812-5.7812-1.75-12.219-1.75-16.562 0-26.094 10.125-9.5156 10.141-9.5156 27.672 0 17.578 9.5156 27.703 9.5312 10.141 26.094 10.141 6.5312 0 12.312-1.7344 5.7969-1.7344 10.875-5.2031z"/>
</defs>
<g transform="translate(830.98 492.11) rotate(79.788) scale(.08 -.08)">
<use xlink:href="#p"/>
</g>
</g>
<path d="m908.39 498.31 0.98552-5.4707q0.4255-2.362-1.9365-2.7875l-7.6198-1.3727q-2.362-0.4255-2.7875 1.9365l-0.98552 5.4707q-0.4255 2.362 1.9365 2.7875l7.6198 1.3727q2.362 0.4255 2.7875-1.9365z" clip-path="url(#a)" fill="#fff" stroke="#fff"/>
<g clip-path="url(#a)">
<defs>
<path id="u" d="m44.391 34.188q3.1719-1.0781 6.1719-4.5938t6.0312-9.6719l10.016-19.922h-10.609l-9.3125 18.703q-3.625 7.3281-7.0156 9.7188t-9.25 2.3906h-10.75v-30.812h-9.8594v72.906h22.266q12.5 0 18.656-5.2344 6.1562-5.2188 6.1562-15.766 0-6.8906-3.2031-11.438-3.2031-4.5312-9.2969-6.2812zm-24.719 30.609v-25.875h12.406q7.125 0 10.766 3.2969t3.6406 9.6875-3.6406 9.6406-10.766 3.25z"/>
</defs>
<g transform="translate(904.39 497.59) rotate(-79.788) scale(.08 -.08)">
<use xlink:href="#u"/>
</g>
</g>
<path d="m919.07 492.83 0.9904 5.4978q0.4255 2.362 2.7875 1.9365l7.6198-1.3727q2.362-0.4255 1.9365-2.7875l-0.9904-5.4978q-0.4255-2.362-2.7875-1.9365l-7.6198 1.3727q-2.362 0.4255-1.9365 2.7875z" clip-path="url(#a)" fill="#fff" stroke="#fff"/>
<g clip-path="url(#a)">
<g transform="translate(923.07 492.11) rotate(79.788) scale(.08 -.08)">
<use xlink:href="#p"/>
</g>
</g>
<path d="m1206.7 493.81 2.3608 4.9371q1.0353 2.1652 3.2005 1.1299l6.985-3.34q2.1652-1.0353 1.1299-3.2005l-2.3608-4.9371q-1.0353-2.1652-3.2005-1.1299l-6.985 3.34q-2.1652 1.0353-1.1299 3.2005z" clip-path="url(#a)" fill="#fff" stroke="#fff"/>
<g clip-path="url(#a)">
<g transform="translate(1210.3 492.06) rotate(64.444) scale(.08 -.08)">
<use xlink:href="#q"/>
</g>
</g>
<path d="m1056.6 435.09 2.6287-4.8979q1.135-2.1147-0.97972-3.2496l-6.822-3.6614q-2.1147-1.135-3.2496 0.97973l-2.6287 4.8979q-1.135 2.1147 0.97973 3.2496l6.822 3.6614q2.1147 1.135 3.2496-0.97973z" clip-path="url(#a)" fill="#fff" stroke="#fff"/>
<g clip-path="url(#a)">
<g transform="translate(1053 433.17) rotate(-61.777) scale(.08 -.08)">
<use xlink:href="#u"/>
</g>
</g>
<path d="m1103.5 370.15 1.6152-4.5453q0.8036-2.2615-1.4579-3.0651l-7.2956-2.5925q-2.2615-0.8036-3.0651 1.4579l-1.6152 4.5453q-0.80361 2.2615 1.4579 3.0651l7.2956 2.5925q2.2615 0.8036 3.0651-1.4579z" clip-path="url(#a)" fill="#fff" stroke="#fff"/>
<g clip-path="url(#a)">
<g transform="translate(1099.7 368.79) rotate(-70.437) scale(.08 -.08)">
<use xlink:href="#aa"/>
</g>
</g>
<path d="m1195.5 499.21 1.8842-5.2297q0.81351-2.2579-1.4444-3.0714l-7.2841-2.6244q-2.2579-0.81351-3.0714 1.4444l-1.8842 5.2297q-0.81351 2.2579 1.4444 3.0714l7.2841 2.6244q2.2579 0.81351 3.0714-1.4444z" clip-path="url(#a)" fill="#fff" stroke="#fff"/>
<g clip-path="url(#a)">
<g transform="translate(1191.6 497.83) rotate(-70.186) scale(.08 -.08)">
<use xlink:href="#u"/>
</g>
</g>
<path d="m1207.2 491.67v5.5862q0 2.4 2.4 2.4h7.7425q2.4 0 2.4-2.4v-5.5862q0-2.4-2.4-2.4h-7.7425q-2.4 0-2.4 2.4z" clip-path="url(#a)" fill="#fff" stroke="#fff"/>
<g clip-path="url(#a)">
<g transform="translate(1211.3 491.67) rotate(90) scale(.08 -.08)">
<use xlink:href="#p"/>
</g>
</g>
<path d="m1229.6 493.84 1.9846 5.5084q0.81351 2.2579 3.0714 1.4444l7.2841-2.6244q2.2579-0.81351 1.4444-3.0714l-1.9846-5.5084q-0.81351-2.2579-3.0714-1.4444l-7.2841 2.6244q-2.2579 0.81351-1.4444 3.0714z" clip-path="url(#a)" fill="#fff" stroke="#fff"/>
<g clip-path="url(#a)">
<defs>
<path id="ao" d="m8.6875 72.906h9.9219v-44.297q0-11.719 4.2344-16.875 4.25-5.1406 13.781-5.1406 9.4688 0 13.719 5.1406 4.25 5.1562 4.25 16.875v44.297h9.9062v-45.516q0-14.25-7.0625-21.531-7.0469-7.2812-20.812-7.2812-13.828 0-20.891 7.2812-7.0469 7.2812-7.0469 21.531z"/>
</defs>
<g transform="translate(1233.5 492.46) rotate(70.186) scale(.08 -.08)">
<use xlink:href="#ao"/>
</g>
</g>
<path d="m1161.2 604.62v35.285q0 2.4 2.4 2.4h7.7425q2.4 0 2.4-2.4v-35.285q0-2.4-2.4-2.4h-7.7425q-2.4 0-2.4 2.4z" clip-path="url(#a)" fill="#fff" stroke="#fff"/>
<g clip-path="url(#a)">
<g transform="translate(1165.3 604.62) rotate(90) scale(.08 -.08)">
<use xlink:href="#k"/>
<use x="60.818359" xlink:href="#d"/>
<use x="122.341797" xlink:href="#i"/>
<use x="163.439453" xlink:href="#l"/>
<use x="260.851562" xlink:href="#h"/>
<use x="288.634766" xlink:href="#g"/>
<use x="352.013672" xlink:href="#e"/>
<use x="413.292969" xlink:href="#j"/>
</g>
</g>
<path d="m1207.2 604.62v35.285q0 2.4 2.4 2.4h7.7425q2.4 0 2.4-2.4v-35.285q0-2.4-2.4-2.4h-7.7425q-2.4 0-2.4 2.4z" clip-path="url(#a)" fill="#fff" stroke="#fff"/>
<g clip-path="url(#a)">
<g transform="translate(1211.3 604.62) rotate(90) scale(.08 -.08)">
<use xlink:href="#k"/>
<use x="60.818359" xlink:href="#d"/>
<use x="122.341797" xlink:href="#i"/>
<use x="163.439453" xlink:href="#l"/>
<use x="260.851562" xlink:href="#h"/>
<use x="288.634766" xlink:href="#g"/>
<use x="352.013672" xlink:href="#e"/>
<use x="413.292969" xlink:href="#j"/>
</g>
</g>
<path d="m977.02 604.62v35.285q0 2.4 2.4 2.4h7.7425q2.4 0 2.4-2.4v-35.285q0-2.4-2.4-2.4h-7.7425q-2.4 0-2.4 2.4z" clip-path="url(#a)" fill="#fff" stroke="#fff"/>
<g clip-path="url(#a)">
<g transform="translate(981.09 604.62) rotate(90) scale(.08 -.08)">
<use xlink:href="#k"/>
<use x="60.818359" xlink:href="#d"/>
<use x="122.341797" xlink:href="#i"/>
<use x="163.439453" xlink:href="#l"/>
<use x="260.851562" xlink:href="#h"/>
<use x="288.634766" xlink:href="#g"/>
<use x="352.013672" xlink:href="#e"/>
<use x="413.292969" xlink:href="#j"/>
</g>
</g>
<path d="m1057.4 498.97 1.7134-4.7557q0.81351-2.2579-1.4444-3.0714l-7.2841-2.6244q-2.2579-0.81351-3.0714 1.4444l-1.7134 4.7557q-0.81351 2.2579 1.4444 3.0714l7.2841 2.6244q2.2579 0.81351 3.0714-1.4444z" clip-path="url(#a)" fill="#fff" stroke="#fff"/>
<g clip-path="url(#a)">
<defs>
<path id="s" d="m9.8125 72.906h46.094v-8.3125h-36.234v-21.578h34.719v-8.2969h-34.719v-26.422h37.109v-8.2969h-46.969z"/>
</defs>
<g transform="translate(1053.6 497.59) rotate(-70.186) scale(.08 -.08)">
<use xlink:href="#s"/>
</g>
</g>
<path d="m1069.1 491.94v5.055q0 2.4 2.4 2.4h7.7425q2.4 0 2.4-2.4v-5.055q0-2.4-2.4-2.4h-7.7425q-2.4 0-2.4 2.4z" clip-path="url(#a)" fill="#fff" stroke="#fff"/>
<g clip-path="url(#a)">
<g transform="translate(1073.2 491.94) rotate(90) scale(.08 -.08)">
<use xlink:href="#s"/>
</g>
</g>
<path d="m1091.6 493.96 1.8935 5.2555q0.81351 2.2579 3.0714 1.4444l7.2841-2.6244q2.2579-0.81351 1.4444-3.0714l-1.8935-5.2555q-0.81351-2.2579-3.0714-1.4444l-7.2841 2.6244q-2.2579 0.81351-1.4444 3.0714z" clip-path="url(#a)" fill="#fff" stroke="#fff"/>
<g clip-path="url(#a)">
<g transform="translate(1095.4 492.59) rotate(70.186) scale(.08 -.08)">
<use xlink:href="#p"/>
</g>
</g>
<path d="m1023.1 604.62v35.285q0 2.4 2.4 2.4h7.7425q2.4 0 2.4-2.4v-35.285q0-2.4-2.4-2.4h-7.7425q-2.4 0-2.4 2.4z" clip-path="url(#a)" fill="#fff" stroke="#fff"/>
<g clip-path="url(#a)">
<g transform="translate(1027.1 604.62) rotate(90) scale(.08 -.08)">
<use xlink:href="#k"/>
<use x="60.818359" xlink:href="#d"/>
<use x="122.341797" xlink:href="#i"/>
<use x="163.439453" xlink:href="#l"/>
<use x="260.851562" xlink:href="#h"/>
<use x="288.634766" xlink:href="#g"/>
<use x="352.013672" xlink:href="#e"/>
<use x="413.292969" xlink:href="#j"/>
</g>
</g>
<path d="m1069.1 604.62v35.285q0 2.4 2.4 2.4h7.7425q2.4 0 2.4-2.4v-35.285q0-2.4-2.4-2.4h-7.7425q-2.4 0-2.4 2.4z" clip-path="url(#a)" fill="#fff" stroke="#fff"/>
<g clip-path="url(#a)">
<g transform="translate(1073.2 604.62) rotate(90) scale(.08 -.08)">
<use xlink:href="#k"/>
<use x="60.818359" xlink:href="#d"/>
<use x="122.341797" xlink:href="#i"/>
<use x="163.439453" xlink:href="#l"/>
<use x="260.851562" xlink:href="#h"/>
<use x="288.634766" xlink:href="#g"/>
<use x="352.013672" xlink:href="#e"/>
<use x="413.292969" xlink:href="#j"/>
</g>
</g>
<path d="m1115.2 604.62v35.285q0 2.4 2.4 2.4h7.7425q2.4 0 2.4-2.4v-35.285q0-2.4-2.4-2.4h-7.7425q-2.4 0-2.4 2.4z" clip-path="url(#a)" fill="#fff" stroke="#fff"/>
<g clip-path="url(#a)">
<g transform="translate(1119.2 604.62) rotate(90) scale(.08 -.08)">
<use xlink:href="#k"/>
<use x="60.818359" xlink:href="#d"/>
<use x="122.341797" xlink:href="#i"/>
<use x="163.439453" xlink:href="#l"/>
<use x="260.851562" xlink:href="#h"/>
<use x="288.634766" xlink:href="#g"/>
<use x="352.013672" xlink:href="#e"/>
<use x="413.292969" xlink:href="#j"/>
</g>
</g>
<path d="m884.93 604.62v35.285q0 2.4 2.4 2.4h7.7425q2.4 0 2.4-2.4v-35.285q0-2.4-2.4-2.4h-7.7425q-2.4 0-2.4 2.4z" clip-path="url(#a)" fill="#fff" stroke="#fff"/>
<g clip-path="url(#a)">
<g transform="translate(889 604.62) rotate(90) scale(.08 -.08)">
<use xlink:href="#k"/>
<use x="60.818359" xlink:href="#d"/>
<use x="122.341797" xlink:href="#i"/>
<use x="163.439453" xlink:href="#l"/>
<use x="260.851562" xlink:href="#h"/>
<use x="288.634766" xlink:href="#g"/>
<use x="352.013672" xlink:href="#e"/>
<use x="413.292969" xlink:href="#j"/>
</g>
</g>
<path d="m930.98 604.62v35.285q0 2.4 2.4 2.4h7.7425q2.4 0 2.4-2.4v-35.285q0-2.4-2.4-2.4h-7.7425q-2.4 0-2.4 2.4z" clip-path="url(#a)" fill="#fff" stroke="#fff"/>
<g clip-path="url(#a)">
<g transform="translate(935.04 604.62) rotate(90) scale(.08 -.08)">
<use xlink:href="#k"/>
<use x="60.818359" xlink:href="#d"/>
<use x="122.341797" xlink:href="#i"/>
<use x="163.439453" xlink:href="#l"/>
<use x="260.851562" xlink:href="#h"/>
<use x="288.634766" xlink:href="#g"/>
<use x="352.013672" xlink:href="#e"/>
<use x="413.292969" xlink:href="#j"/>
</g>
</g>
<path d="m792.84 604.62v35.285q0 2.4 2.4 2.4h7.7425q2.4 0 2.4-2.4v-35.285q0-2.4-2.4-2.4h-7.7425q-2.4 0-2.4 2.4z" clip-path="url(#a)" fill="#fff" stroke="#fff"/>
<g clip-path="url(#a)">
<g transform="translate(796.91 604.62) rotate(90) scale(.08 -.08)">
<use xlink:href="#k"/>
<use x="60.818359" xlink:href="#d"/>
<use x="122.341797" xlink:href="#i"/>
<use x="163.439453" xlink:href="#l"/>
<use x="260.851562" xlink:href="#h"/>
<use x="288.634766" xlink:href="#g"/>
<use x="352.013672" xlink:href="#e"/>
<use x="413.292969" xlink:href="#j"/>
</g>
</g>
<path d="m838.89 604.62v35.285q0 2.4 2.4 2.4h7.7425q2.4 0 2.4-2.4v-35.285q0-2.4-2.4-2.4h-7.7425q-2.4 0-2.4 2.4z" clip-path="url(#a)" fill="#fff" stroke="#fff"/>
<g clip-path="url(#a)">
<g transform="translate(842.95 604.62) rotate(90) scale(.08 -.08)">
<use xlink:href="#k"/>
<use x="60.818359" xlink:href="#d"/>
<use x="122.341797" xlink:href="#i"/>
<use x="163.439453" xlink:href="#l"/>
<use x="260.851562" xlink:href="#h"/>
<use x="288.634766" xlink:href="#g"/>
<use x="352.013672" xlink:href="#e"/>
<use x="413.292969" xlink:href="#j"/>
</g>
</g>
<path d="m79.627 498.07 0.89621-4.9749q0.4255-2.362-1.9365-2.7875l-7.6198-1.3727q-2.362-0.4255-2.7875 1.9365l-0.89621 4.9749q-0.4255 2.362 1.9365 2.7875l7.6198 1.3727q2.362 0.4255 2.7875-1.9365z" clip-path="url(#a)" fill="#fff" stroke="#fff"/>
<g clip-path="url(#a)">
<g transform="translate(75.627 497.35) rotate(-79.788) scale(.08 -.08)">
<use xlink:href="#s"/>
</g>
</g>
<path d="m90.258 492.83 0.9904 5.4978q0.4255 2.362 2.7875 1.9365l7.6198-1.3727q2.362-0.4255 1.9365-2.7875l-0.99039-5.4978q-0.4255-2.362-2.7875-1.9365l-7.6198 1.3727q-2.362 0.4255-1.9365 2.7875z" clip-path="url(#a)" fill="#fff" stroke="#fff"/>
<g clip-path="url(#a)">
<g transform="translate(94.258 492.11) rotate(79.788) scale(.08 -.08)">
<use xlink:href="#p"/>
</g>
</g>
<path d="m171.76 497.84 0.81576-4.5284q0.4255-2.362-1.9365-2.7875l-7.6198-1.3727q-2.362-0.4255-2.7875 1.9365l-0.81576 4.5284q-0.4255 2.362 1.9365 2.7875l7.6198 1.3727q2.362 0.4255 2.7875-1.9365z" clip-path="url(#a)" fill="#fff" stroke="#fff"/>
<g clip-path="url(#a)">
<g transform="translate(167.76 497.12) rotate(-79.788) scale(.08 -.08)">
<use xlink:href="#ac"/>
</g>
</g>
<path d="m182.35 492.83 0.99039 5.4978q0.4255 2.362 2.7875 1.9365l7.6198-1.3727q2.362-0.4255 1.9365-2.7875l-0.9904-5.4978q-0.4255-2.362-2.7875-1.9365l-7.6198 1.3727q-2.362 0.4255-1.9365 2.7875z" clip-path="url(#a)" fill="#fff" stroke="#fff"/>
<g clip-path="url(#a)">
<g transform="translate(186.35 492.11) rotate(79.788) scale(.08 -.08)">
<use xlink:href="#p"/>
</g>
</g>
<path d="m285.3 499.89 2.6429-4.8903q1.1411-2.1114-0.97032-3.2525l-6.8114-3.6811q-2.1114-1.1411-3.2525 0.97032l-2.6429 4.8903q-1.1411 2.1114 0.97032 3.2525l6.8114 3.6811q2.1114 1.1411 3.2525-0.97032z" clip-path="url(#a)" fill="#fff" stroke="#fff"/>
<g clip-path="url(#a)">
<g transform="translate(281.73 497.96) rotate(-61.612) scale(.08 -.08)">
<use xlink:href="#u"/>
</g>
</g>
<path d="m309.85 498.07 0.89621-4.9749q0.4255-2.362-1.9365-2.7875l-7.6198-1.3727q-2.362-0.4255-2.7875 1.9365l-0.89621 4.9749q-0.4255 2.362 1.9365 2.7875l7.6198 1.3727q2.362 0.4255 2.7875-1.9365z" clip-path="url(#a)" fill="#fff" stroke="#fff"/>
<g clip-path="url(#a)">
<g transform="translate(305.85 497.35) rotate(-79.788) scale(.08 -.08)">
<use xlink:href="#s"/>
</g>
</g>
<path d="m320.53 493.09 0.89621 4.9749q0.4255 2.362 2.7875 1.9365l7.6198-1.3727q2.362-0.4255 1.9365-2.7875l-0.89621-4.9749q-0.4255-2.362-2.7875-1.9365l-7.6198 1.3727q-2.362 0.4255-1.9365 2.7875z" clip-path="url(#a)" fill="#fff" stroke="#fff"/>
<g clip-path="url(#a)">
<g transform="translate(324.53 492.37) rotate(79.788) scale(.08 -.08)">
<use xlink:href="#s"/>
</g>
</g>
<path d="m343.33 494.99 2.656 4.9145q1.1411 2.1114 3.2525 0.97032l6.8114-3.6811q2.1114-1.1411 0.97032-3.2525l-2.656-4.9145q-1.1411-2.1114-3.2525-0.97032l-6.8114 3.6811q-2.1114 1.1411-0.97032 3.2525z" clip-path="url(#a)" fill="#fff" stroke="#fff"/>
<g clip-path="url(#a)">
<g transform="translate(346.9 493.06) rotate(61.612) scale(.08 -.08)">
<use xlink:href="#p"/>
</g>
</g>
<path d="m477.56 500.28 3.1117-4.6062q1.3435-1.9887-0.64525-3.3322l-6.4157-4.3341q-1.9887-1.3435-3.3322 0.64526l-3.1117 4.6062q-1.3435 1.9887 0.64526 3.3322l6.4157 4.3341q1.9887 1.3435 3.3322-0.64526z" clip-path="url(#a)" fill="#fff" stroke="#fff"/>
<g clip-path="url(#a)">
<g transform="translate(474.19 498.01) rotate(-55.959) scale(.08 -.08)">
<use xlink:href="#u"/>
</g>
</g>
<path d="m502.16 498.76 1.5199-4.8211q0.7216-2.289-1.5673-3.0106l-7.3842-2.3279q-2.2889-0.7216-3.0106 1.5673l-1.5199 4.8211q-0.7216 2.289 1.5673 3.0106l7.3842 2.3279q2.289 0.7216 3.0106-1.5673z" clip-path="url(#a)" fill="#fff" stroke="#fff"/>
<g clip-path="url(#a)">
<g transform="translate(498.29 497.54) rotate(-72.502) scale(.08 -.08)">
<use xlink:href="#s"/>
</g>
</g>
<path d="m513.59 492.22 0.22743 5.0499q0.10798 2.3976 2.5055 2.2896l7.7347-0.34834q2.3976-0.10798 2.2896-2.5055l-0.22743-5.0499q-0.10798-2.3976-2.5055-2.2896l-7.7347 0.34834q-2.3976 0.10798-2.2896 2.5055z" clip-path="url(#a)" fill="#fff" stroke="#fff"/>
<g clip-path="url(#a)">
<g transform="translate(517.65 492.04) rotate(87.421) scale(.08 -.08)">
<use xlink:href="#s"/>
</g>
</g>
<path d="m571.05 496.75 3.8385 4.0586q1.6491 1.7437 3.3928 0.094572l5.6252-5.3201q1.7437-1.6491 0.094573-3.3928l-3.8385-4.0586q-1.6491-1.7437-3.3928-0.094573l-5.6252 5.3201q-1.7437 1.6491-0.094572 3.3928z" clip-path="url(#a)" fill="#fff" stroke="#fff"/>
<g clip-path="url(#a)">
<g transform="translate(574 493.95) rotate(46.597) scale(.08 -.08)">
<use xlink:href="#p"/>
</g>
</g>
<path d="m424.48 604.62v35.285q0 2.4 2.4 2.4h7.7425q2.4 0 2.4-2.4v-35.285q0-2.4-2.4-2.4h-7.7425q-2.4 0-2.4 2.4z" clip-path="url(#a)" fill="#fff" stroke="#fff"/>
<g clip-path="url(#a)">
<g transform="translate(428.54 604.62) rotate(90) scale(.08 -.08)">
<use xlink:href="#k"/>
<use x="60.818359" xlink:href="#d"/>
<use x="122.341797" xlink:href="#i"/>
<use x="163.439453" xlink:href="#l"/>
<use x="260.851562" xlink:href="#h"/>
<use x="288.634766" xlink:href="#g"/>
<use x="352.013672" xlink:href="#e"/>
<use x="413.292969" xlink:href="#j"/>
</g>
</g>
<path d="m470.53 604.62v35.285q0 2.4 2.4 2.4h7.7425q2.4 0 2.4-2.4v-35.285q0-2.4-2.4-2.4h-7.7425q-2.4 0-2.4 2.4z" clip-path="url(#a)" fill="#fff" stroke="#fff"/>
<g clip-path="url(#a)">
<g transform="translate(474.59 604.62) rotate(90) scale(.08 -.08)">
<use xlink:href="#k"/>
<use x="60.818359" xlink:href="#d"/>
<use x="122.341797" xlink:href="#i"/>
<use x="163.439453" xlink:href="#l"/>
<use x="260.851562" xlink:href="#h"/>
<use x="288.634766" xlink:href="#g"/>
<use x="352.013672" xlink:href="#e"/>
<use x="413.292969" xlink:href="#j"/>
</g>
</g>
<path d="m516.57 604.62v35.285q0 2.4 2.4 2.4h7.7425q2.4 0 2.4-2.4v-35.285q0-2.4-2.4-2.4h-7.7425q-2.4 0-2.4 2.4z" clip-path="url(#a)" fill="#fff" stroke="#fff"/>
<g clip-path="url(#a)">
<g transform="translate(520.63 604.62) rotate(90) scale(.08 -.08)">
<use xlink:href="#k"/>
<use x="60.818359" xlink:href="#d"/>
<use x="122.341797" xlink:href="#i"/>
<use x="163.439453" xlink:href="#l"/>
<use x="260.851562" xlink:href="#h"/>
<use x="288.634766" xlink:href="#g"/>
<use x="352.013672" xlink:href="#e"/>
<use x="413.292969" xlink:href="#j"/>
</g>
</g>
<path d="m600.55 640.77 16.776-31.042q1.1411-2.1114-0.97032-3.2525l-6.8114-3.6811q-2.1114-1.1411-3.2525 0.97032l-16.776 31.042q-1.1411 2.1114 0.97032 3.2525l6.8114 3.6811q2.1114 1.1411 3.2525-0.97032z" clip-path="url(#a)" fill="#fff" stroke="#fff"/>
<g clip-path="url(#a)">
<g transform="translate(596.98 638.84) rotate(-61.612) scale(.08 -.08)">
<use xlink:href="#k"/>
<use x="60.818359" xlink:href="#d"/>
<use x="122.341797" xlink:href="#i"/>
<use x="163.439453" xlink:href="#l"/>
<use x="260.851562" xlink:href="#h"/>
<use x="288.634766" xlink:href="#g"/>
<use x="352.013672" xlink:href="#e"/>
<use x="413.292969" xlink:href="#j"/>
</g>
</g>
<path d="m629.49 640.74 6.2557-34.726q0.4255-2.362-1.9365-2.7875l-7.6198-1.3727q-2.362-0.4255-2.7875 1.9365l-6.2557 34.726q-0.4255 2.362 1.9365 2.7875l7.6198 1.3727q2.362 0.4255 2.7875-1.9365z" clip-path="url(#a)" fill="#fff" stroke="#fff"/>
<g clip-path="url(#a)">
<g transform="translate(625.49 640.02) rotate(-79.788) scale(.08 -.08)">
<use xlink:href="#k"/>
<use x="60.818359" xlink:href="#d"/>
<use x="122.341797" xlink:href="#i"/>
<use x="163.439453" xlink:href="#l"/>
<use x="260.851562" xlink:href="#h"/>
<use x="288.634766" xlink:href="#g"/>
<use x="352.013672" xlink:href="#e"/>
<use x="413.292969" xlink:href="#j"/>
</g>
</g>
<path d="m640.17 606.01 6.2557 34.726q0.4255 2.362 2.7875 1.9365l7.6198-1.3727q2.362-0.4255 1.9365-2.7875l-6.2557-34.726q-0.4255-2.362-2.7875-1.9365l-7.6198 1.3727q-2.362 0.4255-1.9365 2.7875z" clip-path="url(#a)" fill="#fff" stroke="#fff"/>
<g clip-path="url(#a)">
<g transform="translate(644.17 605.29) rotate(79.788) scale(.08 -.08)">
<use xlink:href="#k"/>
<use x="60.818359" xlink:href="#d"/>
<use x="122.341797" xlink:href="#i"/>
<use x="163.439453" xlink:href="#l"/>
<use x="260.851562" xlink:href="#h"/>
<use x="288.634766" xlink:href="#g"/>
<use x="352.013672" xlink:href="#e"/>
<use x="413.292969" xlink:href="#j"/>
</g>
</g>
<path d="m658.58 609.73 16.776 31.042q1.1411 2.1114 3.2525 0.97032l6.8114-3.6811q2.1114-1.1411 0.97032-3.2525l-16.776-31.042q-1.1411-2.1114-3.2525-0.97032l-6.8114 3.6811q-2.1114 1.1411-0.97032 3.2525z" clip-path="url(#a)" fill="#fff" stroke="#fff"/>
<g clip-path="url(#a)">
<g transform="translate(662.16 607.79) rotate(61.612) scale(.08 -.08)">
<use xlink:href="#k"/>
<use x="60.818359" xlink:href="#d"/>
<use x="122.341797" xlink:href="#i"/>
<use x="163.439453" xlink:href="#l"/>
<use x="260.851562" xlink:href="#h"/>
<use x="288.634766" xlink:href="#g"/>
<use x="352.013672" xlink:href="#e"/>
<use x="413.292969" xlink:href="#j"/>
</g>
</g>
<path d="m240.3 604.62v35.285q0 2.4 2.4 2.4h7.7425q2.4 0 2.4-2.4v-35.285q0-2.4-2.4-2.4h-7.7425q-2.4 0-2.4 2.4z" clip-path="url(#a)" fill="#fff" stroke="#fff"/>
<g clip-path="url(#a)">
<g transform="translate(244.36 604.62) rotate(90) scale(.08 -.08)">
<use xlink:href="#k"/>
<use x="60.818359" xlink:href="#d"/>
<use x="122.341797" xlink:href="#i"/>
<use x="163.439453" xlink:href="#l"/>
<use x="260.851562" xlink:href="#h"/>
<use x="288.634766" xlink:href="#g"/>
<use x="352.013672" xlink:href="#e"/>
<use x="413.292969" xlink:href="#j"/>
</g>
</g>
<path d="m286.35 604.62v35.285q0 2.4 2.4 2.4h7.7425q2.4 0 2.4-2.4v-35.285q0-2.4-2.4-2.4h-7.7425q-2.4 0-2.4 2.4z" clip-path="url(#a)" fill="#fff" stroke="#fff"/>
<g clip-path="url(#a)">
<g transform="translate(290.41 604.62) rotate(90) scale(.08 -.08)">
<use xlink:href="#k"/>
<use x="60.818359" xlink:href="#d"/>
<use x="122.341797" xlink:href="#i"/>
<use x="163.439453" xlink:href="#l"/>
<use x="260.851562" xlink:href="#h"/>
<use x="288.634766" xlink:href="#g"/>
<use x="352.013672" xlink:href="#e"/>
<use x="413.292969" xlink:href="#j"/>
</g>
</g>
<path d="m332.39 604.62v35.285q0 2.4 2.4 2.4h7.7425q2.4 0 2.4-2.4v-35.285q0-2.4-2.4-2.4h-7.7425q-2.4 0-2.4 2.4z" clip-path="url(#a)" fill="#fff" stroke="#fff"/>
<g clip-path="url(#a)">
<g transform="translate(336.45 604.62) rotate(90) scale(.08 -.08)">
<use xlink:href="#k"/>
<use x="60.818359" xlink:href="#d"/>
<use x="122.341797" xlink:href="#i"/>
<use x="163.439453" xlink:href="#l"/>
<use x="260.851562" xlink:href="#h"/>
<use x="288.634766" xlink:href="#g"/>
<use x="352.013672" xlink:href="#e"/>
<use x="413.292969" xlink:href="#j"/>
</g>
</g>
<path d="m378.44 604.62v35.285q0 2.4 2.4 2.4h7.7425q2.4 0 2.4-2.4v-35.285q0-2.4-2.4-2.4h-7.7425q-2.4 0-2.4 2.4z" clip-path="url(#a)" fill="#fff" stroke="#fff"/>
<g clip-path="url(#a)">
<g transform="translate(382.5 604.62) rotate(90) scale(.08 -.08)">
<use xlink:href="#k"/>
<use x="60.818359" xlink:href="#d"/>
<use x="122.341797" xlink:href="#i"/>
<use x="163.439453" xlink:href="#l"/>
<use x="260.851562" xlink:href="#h"/>
<use x="288.634766" xlink:href="#g"/>
<use x="352.013672" xlink:href="#e"/>
<use x="413.292969" xlink:href="#j"/>
</g>
</g>
<path d="m148.21 604.62v35.285q0 2.4 2.4 2.4h7.7425q2.4 0 2.4-2.4v-35.285q0-2.4-2.4-2.4h-7.7425q-2.4 0-2.4 2.4z" clip-path="url(#a)" fill="#fff" stroke="#fff"/>
<g clip-path="url(#a)">
<g transform="translate(152.27 604.62) rotate(90) scale(.08 -.08)">
<use xlink:href="#k"/>
<use x="60.818359" xlink:href="#d"/>
<use x="122.341797" xlink:href="#i"/>
<use x="163.439453" xlink:href="#l"/>
<use x="260.851562" xlink:href="#h"/>
<use x="288.634766" xlink:href="#g"/>
<use x="352.013672" xlink:href="#e"/>
<use x="413.292969" xlink:href="#j"/>
</g>
</g>
<path d="m194.26 604.62v35.285q0 2.4 2.4 2.4h7.7425q2.4 0 2.4-2.4v-35.285q0-2.4-2.4-2.4h-7.7425q-2.4 0-2.4 2.4z" clip-path="url(#a)" fill="#fff" stroke="#fff"/>
<g clip-path="url(#a)">
<g transform="translate(198.32 604.62) rotate(90) scale(.08 -.08)">
<use xlink:href="#k"/>
<use x="60.818359" xlink:href="#d"/>
<use x="122.341797" xlink:href="#i"/>
<use x="163.439453" xlink:href="#l"/>
<use x="260.851562" xlink:href="#h"/>
<use x="288.634766" xlink:href="#g"/>
<use x="352.013672" xlink:href="#e"/>
<use x="413.292969" xlink:href="#j"/>
</g>
</g>
<path d="m56.12 604.62v35.285q0 2.4 2.4 2.4h7.7425q2.4 0 2.4-2.4v-35.285q0-2.4-2.4-2.4h-7.7425q-2.4 0-2.4 2.4z" clip-path="url(#a)" fill="#fff" stroke="#fff"/>
<g clip-path="url(#a)">
<g transform="translate(60.184 604.62) rotate(90) scale(.08 -.08)">
<use xlink:href="#k"/>
<use x="60.818359" xlink:href="#d"/>
<use x="122.341797" xlink:href="#i"/>
<use x="163.439453" xlink:href="#l"/>
<use x="260.851562" xlink:href="#h"/>
<use x="288.634766" xlink:href="#g"/>
<use x="352.013672" xlink:href="#e"/>
<use x="413.292969" xlink:href="#j"/>
</g>
</g>
<path d="m102.17 604.62v35.285q0 2.4 2.4 2.4h7.7425q2.4 0 2.4-2.4v-35.285q0-2.4-2.4-2.4h-7.7425q-2.4 0-2.4 2.4z" clip-path="url(#a)" fill="#fff" stroke="#fff"/>
<g clip-path="url(#a)">
<g transform="translate(106.23 604.62) rotate(90) scale(.08 -.08)">
<use xlink:href="#k"/>
<use x="60.818359" xlink:href="#d"/>
<use x="122.341797" xlink:href="#i"/>
<use x="163.439453" xlink:href="#l"/>
<use x="260.851562" xlink:href="#h"/>
<use x="288.634766" xlink:href="#g"/>
<use x="352.013672" xlink:href="#e"/>
<use x="413.292969" xlink:href="#j"/>
</g>
</g>
<path d="m447.33 175.41 7.8707-6.0585q1.9018-1.4639 0.43788-3.3657l-4.7227-6.1353q-1.4639-1.9018-3.3657-0.43788l-7.8707 6.0585q-1.9018 1.4639-0.43788 3.3657l4.7227 6.1353q1.4639 1.9018 3.3657 0.43788z" clip-path="url(#a)" fill="#fff" stroke="#fff"/>
<g clip-path="url(#a)">
<g transform="translate(444.85 172.19) rotate(-37.587) scale(.08 -.08)">
<use xlink:href="#v"/>
<use x="55.744141" xlink:href="#q"/>
</g>
</g>
<path d="m679.72 292.78 2.446 9.713q0.58609 2.3273 2.9134 1.7412l7.5081-1.8907q2.3273-0.58609 1.7412-2.9134l-2.446-9.713q-0.58609-2.3273-2.9134-1.7412l-7.5081 1.8907q-2.3273 0.58609-1.7412 2.9134z" clip-path="url(#a)" fill="#fff" stroke="#fff"/>
<g clip-path="url(#a)">
<g transform="translate(683.66 291.78) rotate(75.865) scale(.08 -.08)">
<use xlink:href="#v"/>
<use x="55.712891" xlink:href="#u"/>
</g>
</g>
<path d="m720.92 104.04 8.41 5.2846q2.0321 1.2769 3.309-0.7552l4.1194-6.5557q1.2769-2.0321-0.7552-3.309l-8.41-5.2846q-2.0321-1.2769-3.309 0.7552l-4.1194 6.5557q-1.2769 2.0321 0.7552 3.309z" clip-path="url(#a)" fill="#fff" stroke="#fff"/>
<g clip-path="url(#a)">
<g transform="translate(723.08 100.6) rotate(32.144) scale(.08 -.08)">
<use xlink:href="#v"/>
<use x="55.744141" xlink:href="#q"/>
</g>
</g>
<path d="m1253.3 604.62v35.285q0 2.4 2.4 2.4h7.7425q2.4 0 2.4-2.4v-35.285q0-2.4-2.4-2.4h-7.7425q-2.4 0-2.4 2.4z" clip-path="url(#a)" fill="#fff" stroke="#fff"/>
<g clip-path="url(#a)">
<g transform="translate(1257.4 604.62) rotate(90) scale(.08 -.08)">
<use xlink:href="#k"/>
<use x="60.818359" xlink:href="#d"/>
<use x="122.341797" xlink:href="#i"/>
<use x="163.439453" xlink:href="#l"/>
<use x="260.851562" xlink:href="#h"/>
<use x="288.634766" xlink:href="#g"/>
<use x="352.013672" xlink:href="#e"/>
<use x="413.292969" xlink:href="#j"/>
</g>
</g>
<defs>
<path id="b" d="m0 8.6603c2.2967 0 4.4997-0.9125 6.1237-2.5365 1.624-1.624 2.5365-3.827 2.5365-6.1237s-0.9125-4.4997-2.5365-6.1237c-1.624-1.624-3.827-2.5365-6.1237-2.5365s-4.4997 0.9125-6.1237 2.5365c-1.624 1.624-2.5365 3.827-2.5365 6.1237s0.9125 4.4997 2.5365 6.1237c1.624 1.624 3.827 2.5365 6.1237 2.5365z"/>
</defs>
<g clip-path="url(#a)">
<use x="62.391693" y="686.165949" fill="#ffffff" stroke="#ffffff" xlink:href="#b"/>
</g>
<g clip-path="url(#a)">
<use x="108.436753" y="686.165949" fill="#ffffff" stroke="#ffffff" xlink:href="#b"/>
</g>
<g clip-path="url(#a)">
<use x="154.481812" y="686.165949" fill="#ffffff" stroke="#ffffff" xlink:href="#b"/>
</g>
<g clip-path="url(#a)">
<use x="200.526872" y="686.165949" fill="#ffffff" stroke="#ffffff" xlink:href="#b"/>
</g>
<g clip-path="url(#a)">
<use x="246.571932" y="686.165949" fill="#ffffff" stroke="#ffffff" xlink:href="#b"/>
</g>
<g clip-path="url(#a)">
<use x="292.616992" y="686.165949" fill="#ffffff" stroke="#ffffff" xlink:href="#b"/>
</g>
<g clip-path="url(#a)">
<use x="338.662052" y="686.165949" fill="#ffffff" stroke="#ffffff" xlink:href="#b"/>
</g>
<g clip-path="url(#a)">
<use x="384.707111" y="686.165949" fill="#ffffff" stroke="#ffffff" xlink:href="#b"/>
</g>
<g clip-path="url(#a)">
<use x="430.752171" y="686.165949" fill="#ffffff" stroke="#ffffff" xlink:href="#b"/>
</g>
<g clip-path="url(#a)">
<use x="476.797231" y="686.165949" fill="#ffffff" stroke="#ffffff" xlink:href="#b"/>
</g>
<g clip-path="url(#a)">
<use x="522.842291" y="686.165949" fill="#ffffff" stroke="#ffffff" xlink:href="#b"/>
</g>
<g clip-path="url(#a)">
<use x="568.887351" y="686.165949" fill="#ffffff" stroke="#ffffff" xlink:href="#b"/>
</g>
<g clip-path="url(#a)">
<use x="614.93241" y="686.165949" fill="#ffffff" stroke="#ffffff" xlink:href="#b"/>
</g>
<g clip-path="url(#a)">
<use x="660.97747" y="686.165949" fill="#ffffff" stroke="#ffffff" xlink:href="#b"/>
</g>
<g clip-path="url(#a)">
<use x="707.02253" y="686.165949" fill="#ffffff" stroke="#ffffff" xlink:href="#b"/>
</g>
<g clip-path="url(#a)">
<use x="753.06759" y="686.165949" fill="#ffffff" stroke="#ffffff" xlink:href="#b"/>
</g>
<g clip-path="url(#a)">
<use x="799.112649" y="686.165949" fill="#ffffff" stroke="#ffffff" xlink:href="#b"/>
</g>
<g clip-path="url(#a)">
<use x="845.157709" y="686.165949" fill="#ffffff" stroke="#ffffff" xlink:href="#b"/>
</g>
<g clip-path="url(#a)">
<use x="891.202769" y="686.165949" fill="#ffffff" stroke="#ffffff" xlink:href="#b"/>
</g>
<g clip-path="url(#a)">
<use x="937.247829" y="686.165949" fill="#ffffff" stroke="#ffffff" xlink:href="#b"/>
</g>
<g clip-path="url(#a)">
<use x="983.292889" y="686.165949" fill="#ffffff" stroke="#ffffff" xlink:href="#b"/>
</g>
<g clip-path="url(#a)">
<use x="1029.337948" y="686.165949" fill="#ffffff" stroke="#ffffff" xlink:href="#b"/>
</g>
<g clip-path="url(#a)">
<use x="1075.383008" y="686.165949" fill="#ffffff" stroke="#ffffff" xlink:href="#b"/>
</g>
<g clip-path="url(#a)">
<use x="1121.428068" y="686.165949" fill="#ffffff" stroke="#ffffff" xlink:href="#b"/>
</g>
<g clip-path="url(#a)">
<use x="1167.473128" y="686.165949" fill="#ffffff" stroke="#ffffff" xlink:href="#b"/>
</g>
<g clip-path="url(#a)">
<use x="1213.518188" y="686.165949" fill="#ffffff" stroke="#ffffff" xlink:href="#b"/>
</g>
<g clip-path="url(#a)">
<use x="1259.563247" y="686.165949" fill="#ffffff" stroke="#ffffff" xlink:href="#b"/>
</g>
<g clip-path="url(#a)">
<use x="620.975824" y="33.834051" fill="#ffffff" stroke="#ffffff" xlink:href="#b"/>
</g>
<g clip-path="url(#a)">
<use x="273.911186" y="300.9888" fill="#ffffff" stroke="#ffffff" xlink:href="#b"/>
</g>
<g clip-path="url(#a)">
<use x="753.06759" y="558.366178" fill="#ffffff" stroke="#ffffff" xlink:href="#b"/>
</g>
<g clip-path="url(#a)">
<use x="835.948697" y="168.916079" fill="#ffffff" stroke="#ffffff" xlink:href="#b"/>
</g>
<g clip-path="url(#a)">
<use x="822.135179" y="430.566407" fill="#ffffff" stroke="#ffffff" xlink:href="#b"/>
</g>
<g clip-path="url(#a)">
<use x="914.225299" y="430.566407" fill="#ffffff" stroke="#ffffff" xlink:href="#b"/>
</g>
<g clip-path="url(#a)">
<use x="1121.428068" y="300.9888" fill="#ffffff" stroke="#ffffff" xlink:href="#b"/>
</g>
<g clip-path="url(#a)">
<use x="1213.518188" y="430.566407" fill="#ffffff" stroke="#ffffff" xlink:href="#b"/>
</g>
<g clip-path="url(#a)">
<use x="1167.473128" y="558.366178" fill="#ffffff" stroke="#ffffff" xlink:href="#b"/>
</g>
<g clip-path="url(#a)">
<use x="1213.518188" y="558.366178" fill="#ffffff" stroke="#ffffff" xlink:href="#b"/>
</g>
<g clip-path="url(#a)">
<use x="1305.608307" y="686.165949" fill="#ffffff" stroke="#ffffff" xlink:href="#b"/>
</g>
<g clip-path="url(#a)">
<use x="983.292889" y="558.366178" fill="#ffffff" stroke="#ffffff" xlink:href="#b"/>
</g>
<g clip-path="url(#a)">
<use x="1075.383008" y="430.566407" fill="#ffffff" stroke="#ffffff" xlink:href="#b"/>
</g>
<g clip-path="url(#a)">
<use x="1029.337948" y="558.366178" fill="#ffffff" stroke="#ffffff" xlink:href="#b"/>
</g>
<g clip-path="url(#a)">
<use x="1075.383008" y="558.366178" fill="#ffffff" stroke="#ffffff" xlink:href="#b"/>
</g>
<g clip-path="url(#a)">
<use x="1121.428068" y="558.366178" fill="#ffffff" stroke="#ffffff" xlink:href="#b"/>
</g>
<g clip-path="url(#a)">
<use x="891.202769" y="558.366178" fill="#ffffff" stroke="#ffffff" xlink:href="#b"/>
</g>
<g clip-path="url(#a)">
<use x="937.247829" y="558.366178" fill="#ffffff" stroke="#ffffff" xlink:href="#b"/>
</g>
<g clip-path="url(#a)">
<use x="799.112649" y="558.366178" fill="#ffffff" stroke="#ffffff" xlink:href="#b"/>
</g>
<g clip-path="url(#a)">
<use x="845.157709" y="558.366178" fill="#ffffff" stroke="#ffffff" xlink:href="#b"/>
</g>
<g clip-path="url(#a)">
<use x="85.414223" y="430.566407" fill="#ffffff" stroke="#ffffff" xlink:href="#b"/>
</g>
<g clip-path="url(#a)">
<use x="177.504342" y="430.566407" fill="#ffffff" stroke="#ffffff" xlink:href="#b"/>
</g>
<g clip-path="url(#a)">
<use x="315.639522" y="430.566407" fill="#ffffff" stroke="#ffffff" xlink:href="#b"/>
</g>
<g clip-path="url(#a)">
<use x="517.086658" y="430.566407" fill="#ffffff" stroke="#ffffff" xlink:href="#b"/>
</g>
<g clip-path="url(#a)">
<use x="430.752171" y="558.366178" fill="#ffffff" stroke="#ffffff" xlink:href="#b"/>
</g>
<g clip-path="url(#a)">
<use x="476.797231" y="558.366178" fill="#ffffff" stroke="#ffffff" xlink:href="#b"/>
</g>
<g clip-path="url(#a)">
<use x="522.842291" y="558.366178" fill="#ffffff" stroke="#ffffff" xlink:href="#b"/>
</g>
<g clip-path="url(#a)">
<use x="637.95494" y="558.366178" fill="#ffffff" stroke="#ffffff" xlink:href="#b"/>
</g>
<g clip-path="url(#a)">
<use x="246.571932" y="558.366178" fill="#ffffff" stroke="#ffffff" xlink:href="#b"/>
</g>
<g clip-path="url(#a)">
<use x="292.616992" y="558.366178" fill="#ffffff" stroke="#ffffff" xlink:href="#b"/>
</g>
<g clip-path="url(#a)">
<use x="338.662052" y="558.366178" fill="#ffffff" stroke="#ffffff" xlink:href="#b"/>
</g>
<g clip-path="url(#a)">
<use x="384.707111" y="558.366178" fill="#ffffff" stroke="#ffffff" xlink:href="#b"/>
</g>
<g clip-path="url(#a)">
<use x="154.481812" y="558.366178" fill="#ffffff" stroke="#ffffff" xlink:href="#b"/>
</g>
<g clip-path="url(#a)">
<use x="200.526872" y="558.366178" fill="#ffffff" stroke="#ffffff" xlink:href="#b"/>
</g>
<g clip-path="url(#a)">
<use x="62.391693" y="558.366178" fill="#ffffff" stroke="#ffffff" xlink:href="#b"/>
</g>
<g clip-path="url(#a)">
<use x="108.436753" y="558.366178" fill="#ffffff" stroke="#ffffff" xlink:href="#b"/>
</g>
<g clip-path="url(#a)">
<use x="620.975824" y="33.834051" fill="#808080" stroke="#808080" xlink:href="#b"/>
</g>
<g clip-path="url(#a)">
<use x="1259.563247" y="558.366178" fill="#ffffff" stroke="#ffffff" xlink:href="#b"/>
</g>
<g clip-path="url(#a)">
<defs>
<path id="aj" d="m54.891 33.016v-33.016h-8.9844v32.719q0 7.7656-3.0312 11.609-3.0312 3.8594-9.0781 3.8594-7.2812 0-11.484-4.6406-4.2031-4.625-4.2031-12.641v-30.906h-9.0312v75.984h9.0312v-29.797q3.2344 4.9375 7.5938 7.375 4.375 2.4375 10.094 2.4375 9.4219 0 14.25-5.8281 4.8438-5.8281 4.8438-17.156z"/>
</defs>
<g transform="translate(53.092 688.93) scale(.1 -.1)">
<use xlink:href="#k"/>
<use x="61.083984" xlink:href="#aj"/>
<use x="124.462891" xlink:href="#d"/>
</g>
</g>
<g clip-path="url(#a)">
<defs>
<path id="y" d="m30.609 48.391q-7.2188 0-11.422-5.6406t-4.2031-15.453 4.1719-15.453q4.1875-5.6406 11.453-5.6406 7.1875 0 11.375 5.6562 4.2031 5.6719 4.2031 15.438 0 9.7188-4.2031 15.406-4.1875 5.6875-11.375 5.6875zm0 7.6094q11.719 0 18.406-7.625 6.7031-7.6094 6.7031-21.078 0-13.422-6.7031-21.078-6.6875-7.6406-18.406-7.6406-11.766 0-18.438 7.6406-6.6562 7.6562-6.6562 21.078 0 13.469 6.6562 21.078 6.6719 7.625 18.438 7.625z"/>
<path id="am" d="m2.9844 54.688h9.5156l17.094-45.891 17.094 45.891h9.5156l-20.516-54.688h-12.203z"/>
</defs>
<g transform="translate(93.082 688.93) scale(.1 -.1)">
<use xlink:href="#l"/>
<use x="97.412109" xlink:href="#y"/>
<use x="158.59375" xlink:href="#am"/>
<use x="217.773438" xlink:href="#h"/>
<use x="245.556641" xlink:href="#d"/>
</g>
</g>
<g clip-path="url(#a)">
<defs>
<path id="al" d="m4.2031 54.688h8.9844l11.234-42.672 11.172 42.672h10.594l11.234-42.672 11.188 42.672h8.9844l-14.312-54.688h-10.594l-11.766 44.828-11.812-44.828h-10.609z"/>
<path id="r" d="m44.281 53.078v-8.5q-3.7969 1.9531-7.9062 2.9219-4.0938 0.98438-8.5 0.98438-6.6875 0-10.031-2.0469t-3.3438-6.1562q0-3.125 2.3906-4.9062t9.625-3.3906l3.0781-0.6875q9.5625-2.0469 13.594-5.7812t4.0312-10.422q0-7.625-6.0312-12.078-6.0312-4.4375-16.578-4.4375-4.3906 0-9.1562 0.85938t-10.031 2.5625v9.2812q4.9844-2.5938 9.8125-3.8906 4.8281-1.2812 9.5781-1.2812 6.3438 0 9.75 2.1719 3.4219 2.1719 3.4219 6.125 0 3.6562-2.4688 5.6094-2.4531 1.9531-10.812 3.7656l-3.125 0.73438q-8.3438 1.75-12.062 5.3906-3.7031 3.6406-3.7031 9.9844 0 7.7188 5.4688 11.906 5.4688 4.2031 15.531 4.2031 4.9688 0 9.3594-0.73438 4.4062-0.71875 8.1094-2.1875z"/>
</defs>
<g transform="translate(144.72 688.93) scale(.1 -.1)">
<use xlink:href="#al"/>
<use x="81.787109" xlink:href="#e"/>
<use x="143.066406" xlink:href="#r"/>
</g>
</g>
<g clip-path="url(#a)">
<defs>
<path id="z" d="m48.781 52.594v-8.4062q-3.8125 2.1094-7.6406 3.1562t-7.7344 1.0469q-8.75 0-13.594-5.5469-4.8281-5.5312-4.8281-15.547t4.8281-15.562q4.8438-5.5312 13.594-5.5312 3.9062 0 7.7344 1.0469t7.6406 3.1562v-8.3125q-3.7656-1.75-7.7969-2.625-4.0156-0.89062-8.5625-0.89062-12.359 0-19.641 7.7656-7.2656 7.7656-7.2656 20.953 0 13.375 7.3438 21.031 7.3594 7.6719 20.156 7.6719 4.1406 0 8.0938-0.85938 3.9531-0.84375 7.6719-2.5469z"/>
<path id="ah" d="m45.406 46.391v29.594h8.9844v-75.984h-8.9844v8.2031q-2.8281-4.875-7.1562-7.25-4.3125-2.375-10.375-2.375-9.9062 0-16.141 7.9062-6.2188 7.9219-6.2188 20.812t6.2188 20.797q6.2344 7.9062 16.141 7.9062 6.0625 0 10.375-2.375 4.3281-2.3594 7.1562-7.2344zm-30.609-19.094q0-9.9062 4.0781-15.547t11.203-5.6406 11.219 5.6406q4.1094 5.6406 4.1094 15.547t-4.1094 15.547q-4.0938 5.6406-11.219 5.6406t-11.203-5.6406-4.0781-15.547z"/>
</defs>
<g transform="translate(177.55 688.93) scale(.1 -.1)">
<use xlink:href="#r"/>
<use x="52.099609" xlink:href="#z"/>
<use x="107.080078" xlink:href="#i"/>
<use x="148.162109" xlink:href="#d"/>
<use x="209.685547" xlink:href="#d"/>
<use x="271.208984" xlink:href="#g"/>
<use x="334.587891" xlink:href="#d"/>
<use x="396.111328" xlink:href="#ah"/>
</g>
</g>
<g clip-path="url(#a)">
<defs>
<path id="o" d="m18.312 70.219v-15.531h18.5v-6.9844h-18.5v-29.688q0-6.6875 1.8281-8.5938t7.4531-1.9062h9.2188v-7.5156h-9.2188q-10.406 0-14.359 3.875-3.9531 3.8906-3.9531 14.141v29.688h-6.5938v6.9844h6.5938v15.531z"/>
</defs>
<g transform="translate(241.55 688.93) scale(.1 -.1)">
<use xlink:href="#e"/>
<use x="61.279297" xlink:href="#o"/>
</g>
</g>
<g clip-path="url(#a)">
<g transform="translate(289.55 688.93) scale(.1 -.1)">
<use xlink:href="#e"/>
</g>
</g>
<g clip-path="url(#a)">
<defs>
<path id="ag" d="m18.109 8.2031v-29h-9.0312v75.484h9.0312v-8.2969q2.8438 4.875 7.1562 7.2344 4.3281 2.375 10.328 2.375 9.9688 0 16.188-7.9062 6.2344-7.9062 6.2344-20.797t-6.2344-20.812q-6.2188-7.9062-16.188-7.9062-6 0-10.328 2.375-4.3125 2.375-7.1562 7.25zm30.578 19.094q0 9.9062-4.0781 15.547t-11.203 5.6406q-7.1406 0-11.219-5.6406t-4.0781-15.547 4.0781-15.547 11.219-5.6406q7.125 0 11.203 5.6406t4.0781 15.547z"/>
</defs>
<g transform="translate(321.22 688.93) scale(.1 -.1)">
<use xlink:href="#r"/>
<use x="52.099609" xlink:href="#ag"/>
<use x="115.576172" xlink:href="#d"/>
<use x="177.099609" xlink:href="#z"/>
<use x="232.080078" xlink:href="#h"/>
<use x="259.863281" xlink:href="#e"/>
<use x="321.142578" xlink:href="#j"/>
</g>
</g>
<g clip-path="url(#a)">
<g transform="translate(352.95 688.93) scale(.1 -.1)">
<use xlink:href="#ag"/>
<use x="63.476562" xlink:href="#i"/>
<use x="104.558594" xlink:href="#d"/>
<use x="166.082031" xlink:href="#r"/>
<use x="218.181641" xlink:href="#d"/>
<use x="279.705078" xlink:href="#g"/>
<use x="343.083984" xlink:href="#o"/>
<use x="382.292969" xlink:href="#e"/>
<use x="443.572266" xlink:href="#o"/>
<use x="482.78125" xlink:href="#h"/>
<use x="510.564453" xlink:href="#y"/>
<use x="571.746094" xlink:href="#g"/>
</g>
</g>
<g clip-path="url(#a)">
<g transform="translate(425.73 688.93) scale(.1 -.1)">
<use xlink:href="#e"/>
<use x="61.279297" xlink:href="#o"/>
</g>
</g>
<g clip-path="url(#a)">
<g transform="translate(468.59 688.93) scale(.1 -.1)">
<use xlink:href="#o"/>
<use x="39.208984" xlink:href="#aj"/>
<use x="102.587891" xlink:href="#d"/>
</g>
</g>
<g clip-path="url(#a)">
<defs>
<path id="m" d="m19.188 8.2969h34.422v-8.2969h-46.281v8.2969q5.6094 5.8125 15.297 15.594 9.7031 9.7969 12.188 12.641 4.7344 5.3125 6.6094 9 1.8906 3.6875 1.8906 7.25 0 5.8125-4.0781 9.4688-4.0781 3.6719-10.625 3.6719-4.6406 0-9.7969-1.6094-5.1406-1.6094-11-4.8906v9.9688q5.9531 2.3906 11.125 3.6094 5.1875 1.2188 9.4844 1.2188 11.328 0 18.062-5.6719 6.7344-5.6562 6.7344-15.125 0-4.5-1.6875-8.5312-1.6719-4.0156-6.125-9.4844-1.2188-1.4219-7.7656-8.1875-6.5312-6.7656-18.453-18.922z"/>
<path id="t" d="m31.781 66.406q-7.6094 0-11.453-7.5-3.8281-7.4844-3.8281-22.531 0-14.984 3.8281-22.484 3.8438-7.5 11.453-7.5 7.6719 0 11.5 7.5 3.8438 7.5 3.8438 22.484 0 15.047-3.8438 22.531-3.8281 7.5-11.5 7.5zm0 7.8125q12.266 0 18.734-9.7031 6.4688-9.6875 6.4688-28.141 0-18.406-6.4688-28.109-6.4688-9.6875-18.734-9.6875-12.25 0-18.719 9.6875-6.4688 9.7031-6.4688 28.109 0 18.453 6.4688 28.141 6.4688 9.7031 18.719 9.7031z"/>
<path id="x" d="m33.016 40.375q-6.6406 0-10.531-4.5469-3.875-4.5312-3.875-12.438 0-7.8594 3.875-12.438 3.8906-4.5625 10.531-4.5625t10.516 4.5625q3.875 4.5781 3.875 12.438 0 7.9062-3.875 12.438-3.875 4.5469-10.516 4.5469zm19.578 30.922v-8.9844q-3.7188 1.75-7.5 2.6719-3.7812 0.9375-7.5 0.9375-9.7656 0-14.922-6.5938-5.1406-6.5938-5.875-19.922 2.875 4.25 7.2188 6.5156 4.3594 2.2656 9.5781 2.2656 10.984 0 17.359-6.6719 6.375-6.6562 6.375-18.125 0-11.234-6.6406-18.031-6.6406-6.7812-17.672-6.7812-12.656 0-19.344 9.6875-6.6875 9.7031-6.6875 28.109 0 17.281 8.2031 27.562t22.016 10.281q3.7188 0 7.5-0.73438t7.8906-2.1875z"/>
</defs>
<g transform="translate(510.12 688.93) scale(.1 -.1)">
<use xlink:href="#m"/>
<use x="63.623047" xlink:href="#t"/>
<use x="127.246094" xlink:href="#t"/>
<use x="190.869141" xlink:href="#x"/>
</g>
</g>
<g clip-path="url(#a)">
<defs>
<path id="an" d="m28.609 0-27.828 72.906h10.297l23.109-61.375 23.141 61.375h10.25l-27.781-72.906z"/>
</defs>
<g transform="translate(552.01 688.93) scale(.1 -.1)">
<use xlink:href="#an"/>
<use x="68.298828" xlink:href="#d"/>
<use x="129.822266" xlink:href="#g"/>
<use x="193.201172" xlink:href="#h"/>
<use x="220.984375" xlink:href="#z"/>
<use x="275.964844" xlink:href="#d"/>
</g>
</g>
<g clip-path="url(#a)">
<defs>
<path id="ab" d="m9.8125 72.906h9.8594v-72.906h-9.8594z"/>
</defs>
<g transform="translate(582.93 688.93) scale(.1 -.1)">
<use xlink:href="#ab"/>
<use x="29.492188" xlink:href="#g"/>
<use x="92.871094" xlink:href="#o"/>
<use x="132.080078" xlink:href="#d"/>
<use x="193.603516" xlink:href="#i"/>
<use x="234.701172" xlink:href="#g"/>
<use x="298.080078" xlink:href="#e"/>
<use x="359.359375" xlink:href="#o"/>
<use x="398.568359" xlink:href="#h"/>
<use x="426.351562" xlink:href="#y"/>
<use x="487.533203" xlink:href="#g"/>
<use x="550.912109" xlink:href="#e"/>
<use x="612.191406" xlink:href="#j"/>
</g>
</g>
<g clip-path="url(#a)">
<g transform="translate(650.46 688.93) scale(.1 -.1)">
<use xlink:href="#ac"/>
<use x="57.410156" xlink:href="#h"/>
<use x="85.193359" xlink:href="#j"/>
<use x="112.976562" xlink:href="#l"/>
</g>
</g>
<g clip-path="url(#a)">
<g transform="translate(687.71 688.93) scale(.1 -.1)">
<use xlink:href="#ac"/>
<use x="57.441406" xlink:href="#d"/>
<use x="118.964844" xlink:href="#r"/>
<use x="171.064453" xlink:href="#o"/>
<use x="210.273438" xlink:href="#h"/>
<use x="238.056641" xlink:href="#am"/>
<use x="297.236328" xlink:href="#e"/>
<use x="358.515625" xlink:href="#j"/>
</g>
</g>
<g clip-path="url(#a)">
<g transform="translate(743.66 688.93) scale(.1 -.1)">
<use xlink:href="#e"/>
<use x="61.279297" xlink:href="#g"/>
<use x="124.658203" xlink:href="#ah"/>
</g>
</g>
<g clip-path="url(#a)">
<g transform="translate(789.35 688.93) scale(.1 -.1)">
<use xlink:href="#al"/>
<use x="81.787109" xlink:href="#e"/>
<use x="143.066406" xlink:href="#r"/>
</g>
</g>
<g clip-path="url(#a)">
<g transform="translate(823.64 688.93) scale(.1 -.1)">
<use xlink:href="#i"/>
<use x="41.082031" xlink:href="#d"/>
<use x="102.605469" xlink:href="#j"/>
<use x="130.388672" xlink:href="#d"/>
<use x="191.912109" xlink:href="#e"/>
<use x="253.191406" xlink:href="#r"/>
<use x="305.291016" xlink:href="#d"/>
<use x="366.814453" xlink:href="#ah"/>
</g>
</g>
<g clip-path="url(#a)">
<g transform="translate(886.64 688.93) scale(.1 -.1)">
<use xlink:href="#h"/>
<use x="27.783203" xlink:href="#g"/>
</g>
</g>
<g clip-path="url(#a)">
<g transform="translate(916.28 688.93) scale(.1 -.1)">
<use xlink:href="#o"/>
<use x="39.208984" xlink:href="#aj"/>
<use x="102.587891" xlink:href="#d"/>
<use x="164.111328" xlink:href="#e"/>
<use x="225.390625" xlink:href="#o"/>
<use x="264.599609" xlink:href="#d"/>
<use x="326.123047" xlink:href="#i"/>
<use x="367.236328" xlink:href="#r"/>
</g>
</g>
<g clip-path="url(#a)">
<g transform="translate(978.27 688.93) scale(.1 -.1)">
<use xlink:href="#o"/>
<use x="39.208984" xlink:href="#y"/>
</g>
</g>
<g clip-path="url(#a)">
<g transform="translate(1026.3 688.93) scale(.1 -.1)">
<use xlink:href="#e"/>
</g>
</g>
<g clip-path="url(#a)">
<g transform="translate(1062.6 688.93) scale(.1 -.1)">
<use xlink:href="#o"/>
<use x="39.208984" xlink:href="#d"/>
<use x="100.732422" xlink:href="#ag"/>
<use x="164.208984" xlink:href="#h"/>
<use x="191.992188" xlink:href="#ah"/>
</g>
</g>
<g clip-path="url(#a)">
<g transform="translate(1097.7 688.93) scale(.1 -.1)">
<use xlink:href="#i"/>
<use x="41.082031" xlink:href="#d"/>
<use x="102.605469" xlink:href="#z"/>
<use x="157.585938" xlink:href="#d"/>
<use x="219.109375" xlink:href="#ag"/>
<use x="282.585938" xlink:href="#o"/>
<use x="321.794922" xlink:href="#h"/>
<use x="349.578125" xlink:href="#y"/>
<use x="410.759766" xlink:href="#g"/>
</g>
</g>
<g clip-path="url(#a)">
<g transform="translate(1162.9 688.93) scale(.1 -.1)">
<use xlink:href="#h"/>
<use x="27.783203" xlink:href="#g"/>
</g>
</g>
<g clip-path="url(#a)">
<defs>
<path id="w" d="m8.2031 72.906h46.875v-4.2031l-26.469-68.703h-10.297l24.906 64.594h-35.016z"/>
</defs>
<g transform="translate(1200.8 688.93) scale(.1 -.1)">
<use xlink:href="#m"/>
<use x="63.623047" xlink:href="#t"/>
<use x="127.246094" xlink:href="#t"/>
<use x="190.869141" xlink:href="#w"/>
</g>
</g>
<g clip-path="url(#a)">
<defs>
<path id="f" d="m10.688 12.406h10.312v-12.406h-10.312z"/>
</defs>
<g transform="translate(1258 688.93) scale(.1 -.1)">
<use xlink:href="#f"/>
</g>
</g>
<g clip-path="url(#a)">
<defs>
<path id="c" d="m12.406 8.2969h16.109v55.625l-17.531-3.5156v8.9844l17.438 3.5156h9.8594v-64.609h16.109v-8.2969h-41.984z"/>
</defs>
<g transform="translate(613.02 36.593) scale(.1 -.1)">
<use xlink:href="#c"/>
<use x="63.623047" xlink:href="#f"/>
<use x="95.410156" xlink:href="#c"/>
</g>
</g>
<g clip-path="url(#a)">
<g transform="translate(265.96 303.75) scale(.1 -.1)">
<use xlink:href="#c"/>
<use x="63.623047" xlink:href="#f"/>
<use x="95.410156" xlink:href="#m"/>
</g>
</g>
<g clip-path="url(#a)">
<defs>
<path id="n" d="m40.578 39.312q7.0781-1.5156 11.047-6.3125 3.9844-4.7812 3.9844-11.812 0-10.781-7.4219-16.703-7.4219-5.9062-21.094-5.9062-4.5781 0-9.4375 0.90625t-10.031 2.7188v9.5156q4.0938-2.3906 8.9688-3.6094 4.8906-1.2188 10.219-1.2188 9.2656 0 14.125 3.6562t4.8594 10.641q0 6.4531-4.5156 10.078-4.5156 3.6406-12.562 3.6406h-8.5v8.1094h8.8906q7.2656 0 11.125 2.9062t3.8594 8.375q0 5.6094-3.9844 8.6094-3.9688 3.0156-11.391 3.0156-4.0625 0-8.7031-0.89062-4.6406-0.875-10.203-2.7188v8.7812q5.625 1.5625 10.531 2.3438t9.25 0.78125q11.234 0 17.766-5.1094 6.5469-5.0938 6.5469-13.781 0-6.0625-3.4688-10.234t-9.8594-5.7812z"/>
</defs>
<g transform="translate(745.12 561.13) scale(.1 -.1)">
<use xlink:href="#c"/>
<use x="63.623047" xlink:href="#f"/>
<use x="95.410156" xlink:href="#n"/>
</g>
</g>
<g clip-path="url(#a)">
<defs>
<path id="af" d="m37.797 64.312-24.906-38.922h24.906zm-2.5938 8.5938h12.406v-47.516h10.406v-8.2031h-10.406v-17.188h-9.8125v17.188h-32.906v9.5156z"/>
</defs>
<g transform="translate(828 171.68) scale(.1 -.1)">
<use xlink:href="#c"/>
<use x="63.623047" xlink:href="#f"/>
<use x="95.410156" xlink:href="#af"/>
</g>
</g>
<g clip-path="url(#a)">
<g transform="translate(814.18 433.33) scale(.1 -.1)">
<use xlink:href="#c"/>
<use x="63.623047" xlink:href="#f"/>
<use x="95.410156" xlink:href="#x"/>
</g>
</g>
<g clip-path="url(#a)">
<g transform="translate(906.27 433.33) scale(.1 -.1)">
<use xlink:href="#c"/>
<use x="63.623047" xlink:href="#f"/>
<use x="95.410156" xlink:href="#w"/>
</g>
</g>
<g clip-path="url(#a)">
<defs>
<path id="ae" d="m31.781 34.625q-7.0312 0-11.062-3.7656-4.0156-3.7656-4.0156-10.344 0-6.5938 4.0156-10.359 4.0312-3.7656 11.062-3.7656t11.078 3.7812q4.0625 3.7969 4.0625 10.344 0 6.5781-4.0312 10.344-4.0156 3.7656-11.109 3.7656zm-9.8594 4.1875q-6.3438 1.5625-9.8906 5.9062-3.5312 4.3594-3.5312 10.609 0 8.7344 6.2188 13.812 6.2344 5.0781 17.062 5.0781 10.891 0 17.094-5.0781t6.2031-13.812q0-6.25-3.5469-10.609-3.5312-4.3438-9.8281-5.9062 7.125-1.6562 11.094-6.5 3.9844-4.8281 3.9844-11.797 0-10.609-6.4688-16.281-6.4688-5.6562-18.531-5.6562-12.047 0-18.531 5.6562-6.4688 5.6719-6.4688 16.281 0 6.9688 4 11.797 4.0156 4.8438 11.141 6.5zm-3.6094 15.578q0-5.6562 3.5312-8.8281 3.5469-3.1719 9.9375-3.1719 6.3594 0 9.9375 3.1719 3.5938 3.1719 3.5938 8.8281 0 5.6719-3.5938 8.8438-3.5781 3.1719-9.9375 3.1719-6.3906 0-9.9375-3.1719-3.5312-3.1719-3.5312-8.8438z"/>
</defs>
<g transform="translate(1113.5 303.75) scale(.1 -.1)">
<use xlink:href="#c"/>
<use x="63.623047" xlink:href="#f"/>
<use x="95.410156" xlink:href="#ae"/>
</g>
</g>
<g clip-path="url(#a)">
<defs>
<path id="ad" d="m10.984 1.5156v8.9844q3.7188-1.7656 7.5156-2.6875 3.8125-0.92188 7.4844-0.92188 9.7656 0 14.906 6.5625 5.1562 6.5625 5.8906 19.953-2.8281-4.2031-7.1875-6.4531-4.3438-2.25-9.6094-2.25-10.938 0-17.312 6.6094-6.375 6.625-6.375 18.109 0 11.219 6.6406 18 6.6406 6.7969 17.672 6.7969 12.656 0 19.312-9.7031 6.6719-9.6875 6.6719-28.141 0-17.234-8.1875-27.516-8.1719-10.281-21.984-10.281-3.7188 0-7.5312 0.73438-3.7969 0.73438-7.9062 2.2031zm19.625 30.906q6.6406 0 10.516 4.5312 3.8906 4.5469 3.8906 12.469 0 7.8594-3.8906 12.422-3.875 4.5625-10.516 4.5625t-10.516-4.5625-3.875-12.422q0-7.9219 3.875-12.469 3.875-4.5312 10.516-4.5312z"/>
</defs>
<g transform="translate(1205.6 433.33) scale(.1 -.1)">
<use xlink:href="#c"/>
<use x="63.623047" xlink:href="#f"/>
<use x="95.410156" xlink:href="#ad"/>
</g>
</g>
<g clip-path="url(#a)">
<g transform="translate(1156.3 561.13) scale(.1 -.1)">
<use xlink:href="#c"/>
<use x="63.623047" xlink:href="#f"/>
<use x="95.410156" xlink:href="#c"/>
<use x="159.033203" xlink:href="#t"/>
</g>
</g>
<g clip-path="url(#a)">
<g transform="translate(1202.4 561.13) scale(.1 -.1)">
<use xlink:href="#c"/>
<use x="63.623047" xlink:href="#f"/>
<use x="95.410156" xlink:href="#c"/>
<use x="159.033203" xlink:href="#c"/>
</g>
</g>
<g clip-path="url(#a)">
<defs>
<path id="ap" d="m9.8125 72.906h14.703l18.594-49.609 18.703 49.609h14.703v-72.906h-9.625v64.016l-18.797-50h-9.9062l-18.797 50v-64.016h-9.5781z"/>
</defs>
<g transform="translate(1284.5 688.93) scale(.1 -.1)">
<use xlink:href="#ab"/>
<use x="29.492188" xlink:href="#ap"/>
<use x="115.771484" xlink:href="#aa"/>
<use x="176.074219" xlink:href="#v"/>
<use x="231.787109" xlink:href="#ab"/>
<use x="261.279297" xlink:href="#p"/>
<use x="331.103516" xlink:href="#ab"/>
<use x="360.595703" xlink:href="#k"/>
</g>
</g>
<g clip-path="url(#a)">
<g transform="translate(972.16 561.13) scale(.1 -.1)">
<use xlink:href="#c"/>
<use x="63.623047" xlink:href="#f"/>
<use x="95.410156" xlink:href="#c"/>
<use x="159.033203" xlink:href="#n"/>
</g>
</g>
<g clip-path="url(#a)">
<g transform="translate(1064.3 433.33) scale(.1 -.1)">
<use xlink:href="#c"/>
<use x="63.623047" xlink:href="#f"/>
<use x="95.410156" xlink:href="#c"/>
<use x="159.033203" xlink:href="#af"/>
</g>
</g>
<g clip-path="url(#a)">
<defs>
<path id="ai" d="m10.797 72.906h38.719v-8.3125h-29.688v-17.859q2.1406 0.73438 4.2812 1.0938 2.1562 0.35938 4.3125 0.35938 12.203 0 19.328-6.6875 7.1406-6.6875 7.1406-18.109 0-11.766-7.3281-18.297-7.3281-6.5156-20.656-6.5156-4.5938 0-9.3594 0.78125-4.75 0.78125-9.8281 2.3438v9.9219q4.3906-2.3906 9.0781-3.5625t9.9062-1.1719q8.4531 0 13.375 4.4375 4.9375 4.4375 4.9375 12.062 0 7.6094-4.9375 12.047-4.9219 4.4531-13.375 4.4531-3.9531 0-7.8906-0.875-3.9219-0.875-8.0156-2.7344z"/>
</defs>
<g transform="translate(1018.2 561.13) scale(.1 -.1)">
<use xlink:href="#c"/>
<use x="63.623047" xlink:href="#f"/>
<use x="95.410156" xlink:href="#c"/>
<use x="159.033203" xlink:href="#ai"/>
</g>
</g>
<g clip-path="url(#a)">
<g transform="translate(1064.3 561.13) scale(.1 -.1)">
<use xlink:href="#c"/>
<use x="63.623047" xlink:href="#f"/>
<use x="95.410156" xlink:href="#c"/>
<use x="159.033203" xlink:href="#x"/>
</g>
</g>
<g clip-path="url(#a)">
<g transform="translate(1110.3 561.13) scale(.1 -.1)">
<use xlink:href="#c"/>
<use x="63.623047" xlink:href="#f"/>
<use x="95.410156" xlink:href="#c"/>
<use x="159.033203" xlink:href="#w"/>
</g>
</g>
<g clip-path="url(#a)">
<g transform="translate(880.07 561.13) scale(.1 -.1)">
<use xlink:href="#c"/>
<use x="63.623047" xlink:href="#f"/>
<use x="95.410156" xlink:href="#c"/>
<use x="159.033203" xlink:href="#ae"/>
</g>
</g>
<g clip-path="url(#a)">
<g transform="translate(926.12 561.13) scale(.1 -.1)">
<use xlink:href="#c"/>
<use x="63.623047" xlink:href="#f"/>
<use x="95.410156" xlink:href="#c"/>
<use x="159.033203" xlink:href="#ad"/>
</g>
</g>
<g clip-path="url(#a)">
<g transform="translate(787.98 561.13) scale(.1 -.1)">
<use xlink:href="#c"/>
<use x="63.623047" xlink:href="#f"/>
<use x="95.410156" xlink:href="#m"/>
<use x="159.033203" xlink:href="#t"/>
</g>
</g>
<g clip-path="url(#a)">
<g transform="translate(834.02 561.13) scale(.1 -.1)">
<use xlink:href="#c"/>
<use x="63.623047" xlink:href="#f"/>
<use x="95.410156" xlink:href="#m"/>
<use x="159.033203" xlink:href="#c"/>
</g>
</g>
<g clip-path="url(#a)">
<g transform="translate(74.281 433.33) scale(.1 -.1)">
<use xlink:href="#c"/>
<use x="63.623047" xlink:href="#f"/>
<use x="95.410156" xlink:href="#m"/>
<use x="159.033203" xlink:href="#m"/>
</g>
</g>
<g clip-path="url(#a)">
<g transform="translate(166.37 433.33) scale(.1 -.1)">
<use xlink:href="#c"/>
<use x="63.623047" xlink:href="#f"/>
<use x="95.410156" xlink:href="#m"/>
<use x="159.033203" xlink:href="#n"/>
</g>
</g>
<g clip-path="url(#a)">
<g transform="translate(304.51 433.33) scale(.1 -.1)">
<use xlink:href="#c"/>
<use x="63.623047" xlink:href="#f"/>
<use x="95.410156" xlink:href="#m"/>
<use x="159.033203" xlink:href="#af"/>
</g>
</g>
<g clip-path="url(#a)">
<g transform="translate(505.95 433.33) scale(.1 -.1)">
<use xlink:href="#c"/>
<use x="63.623047" xlink:href="#f"/>
<use x="95.410156" xlink:href="#m"/>
<use x="159.033203" xlink:href="#ai"/>
</g>
</g>
<g clip-path="url(#a)">
<g transform="translate(419.62 561.13) scale(.1 -.1)">
<use xlink:href="#c"/>
<use x="63.623047" xlink:href="#f"/>
<use x="95.410156" xlink:href="#m"/>
<use x="159.033203" xlink:href="#x"/>
</g>
</g>
<g clip-path="url(#a)">
<g transform="translate(465.66 561.13) scale(.1 -.1)">
<use xlink:href="#c"/>
<use x="63.623047" xlink:href="#f"/>
<use x="95.410156" xlink:href="#m"/>
<use x="159.033203" xlink:href="#w"/>
</g>
</g>
<g clip-path="url(#a)">
<g transform="translate(511.71 561.13) scale(.1 -.1)">
<use xlink:href="#c"/>
<use x="63.623047" xlink:href="#f"/>
<use x="95.410156" xlink:href="#m"/>
<use x="159.033203" xlink:href="#ae"/>
</g>
</g>
<g clip-path="url(#a)">
<g transform="translate(626.82 561.13) scale(.1 -.1)">
<use xlink:href="#c"/>
<use x="63.623047" xlink:href="#f"/>
<use x="95.410156" xlink:href="#m"/>
<use x="159.033203" xlink:href="#ad"/>
</g>
</g>
<g clip-path="url(#a)">
<g transform="translate(235.44 561.13) scale(.1 -.1)">
<use xlink:href="#c"/>
<use x="63.623047" xlink:href="#f"/>
<use x="95.410156" xlink:href="#n"/>
<use x="159.033203" xlink:href="#t"/>
</g>
</g>
<g clip-path="url(#a)">
<g transform="translate(281.48 561.13) scale(.1 -.1)">
<use xlink:href="#c"/>
<use x="63.623047" xlink:href="#f"/>
<use x="95.410156" xlink:href="#n"/>
<use x="159.033203" xlink:href="#c"/>
</g>
</g>
<g clip-path="url(#a)">
<g transform="translate(327.53 561.13) scale(.1 -.1)">
<use xlink:href="#c"/>
<use x="63.623047" xlink:href="#f"/>
<use x="95.410156" xlink:href="#n"/>
<use x="159.033203" xlink:href="#m"/>
</g>
</g>
<g clip-path="url(#a)">
<g transform="translate(373.57 561.13) scale(.1 -.1)">
<use xlink:href="#c"/>
<use x="63.623047" xlink:href="#f"/>
<use x="95.410156" xlink:href="#n"/>
<use x="159.033203" xlink:href="#n"/>
</g>
</g>
<g clip-path="url(#a)">
<g transform="translate(143.35 561.13) scale(.1 -.1)">
<use xlink:href="#c"/>
<use x="63.623047" xlink:href="#f"/>
<use x="95.410156" xlink:href="#n"/>
<use x="159.033203" xlink:href="#af"/>
</g>
</g>
<g clip-path="url(#a)">
<g transform="translate(189.39 561.13) scale(.1 -.1)">
<use xlink:href="#c"/>
<use x="63.623047" xlink:href="#f"/>
<use x="95.410156" xlink:href="#n"/>
<use x="159.033203" xlink:href="#ai"/>
</g>
</g>
<g clip-path="url(#a)">
<g transform="translate(51.259 561.13) scale(.1 -.1)">
<use xlink:href="#c"/>
<use x="63.623047" xlink:href="#f"/>
<use x="95.410156" xlink:href="#n"/>
<use x="159.033203" xlink:href="#x"/>
</g>
</g>
<g clip-path="url(#a)">
<g transform="translate(97.304 561.13) scale(.1 -.1)">
<use xlink:href="#c"/>
<use x="63.623047" xlink:href="#f"/>
<use x="95.410156" xlink:href="#n"/>
<use x="159.033203" xlink:href="#w"/>
</g>
</g>
<g clip-path="url(#a)">
<g transform="translate(609.84 36.593) scale(.1 -.1)">
<use xlink:href="#c"/>
<use x="63.623047" xlink:href="#f"/>
<use x="95.410156" xlink:href="#n"/>
<use x="159.033203" xlink:href="#ae"/>
</g>
</g>
<g clip-path="url(#a)">
<g transform="translate(1248.4 561.13) scale(.1 -.1)">
<use xlink:href="#c"/>
<use x="63.623047" xlink:href="#f"/>
<use x="95.410156" xlink:href="#n"/>
<use x="159.033203" xlink:href="#ad"/>
</g>
</g>
<defs>
<clipPath id="a">
<rect width="1368" height="720"/>
</clipPath>
</defs>
</svg>
