<?xml version="1.0" encoding="UTF-8"?>
<!DOCTYPE svg  PUBLIC '-//W3C//DTD SVG 1.1//EN'  'http://www.w3.org/Graphics/SVG/1.1/DTD/svg11.dtd'>
<svg width="1621.3pt" height="853.33pt" version="1.1" viewBox="0 0 1621.3 853.33" xmlns="http://www.w3.org/2000/svg" xmlns:xlink="http://www.w3.org/1999/xlink">
<defs>
<style type="text/css">*{stroke-linecap:butt;stroke-linejoin:round;white-space:pre;}</style>
</defs>
<path d="m0 853.33h1621.3v-853.33h-1621.3z" fill="#fff"/>
<g fill="none" stroke="#000">
<path d="m908.73 39.563-653.54 118.09" clip-path="url(#a)"/>
<path d="m908.73 39.563 210.91 668.18" clip-path="url(#a)"/>
<path d="m908.73 39.563 279.25 345.08" clip-path="url(#a)"/>
<path d="m908.73 39.563 163.38 668.18" clip-path="url(#a)"/>
<path d="m255.19 157.66-181.31 550.09" clip-path="url(#a)"/>
<path d="m255.19 157.66-133.77 550.09" clip-path="url(#a)"/>
<path d="m255.19 157.66-86.239 550.09" clip-path="url(#a)"/>
<path d="m255.19 157.66 431.2 114.92" clip-path="url(#a)"/>
<path d="m255.19 157.66-38.704 550.09" clip-path="url(#a)"/>
<path d="m255.19 157.66 8.8302 550.09" clip-path="url(#a)"/>
<path d="m1119.6 707.74v106.03" clip-path="url(#a)"/>
<path d="m1188 384.65-20.796 323.1" clip-path="url(#a)"/>
<path d="m1188 384.65 26.738 323.1" clip-path="url(#a)"/>
<path d="m1188 384.65 98.04 217.07" clip-path="url(#a)"/>
<path d="m1188 384.65-103.98 109.57" clip-path="url(#a)"/>
<path d="m1167.2 707.74v106.03" clip-path="url(#a)"/>
<path d="m1214.7 707.74v106.03" clip-path="url(#a)"/>
<path d="m1286 601.72-23.767 106.03" clip-path="url(#a)"/>
<path d="m1286 601.72 23.767 106.03" clip-path="url(#a)"/>
<path d="m1084 494.22 273.32 213.53" clip-path="url(#a)"/>
<path d="m1084 494.22 320.86 213.53" clip-path="url(#a)"/>
<path d="m1084 494.22 415.93 107.5" clip-path="url(#a)"/>
<path d="m1084 494.22-1010.1 213.53" clip-path="url(#a)" stroke-dasharray="3.7,1.6"/>
<path d="m1357.3 707.74v106.03" clip-path="url(#a)"/>
<path d="m1404.8 707.74v106.03" clip-path="url(#a)"/>
<path d="m1499.9 601.72-47.535 106.03" clip-path="url(#a)"/>
<path d="m1499.9 601.72v106.03" clip-path="url(#a)"/>
<path d="m1499.9 601.72 47.535 106.03" clip-path="url(#a)"/>
<path d="m1452.4 707.74v106.03" clip-path="url(#a)"/>
<path d="m1499.9 707.74v106.03" clip-path="url(#a)"/>
<path d="m1262.2 707.74v106.03" clip-path="url(#a)"/>
<path d="m1309.8 707.74v106.03" clip-path="url(#a)"/>
<path d="m73.88 707.74v106.03" clip-path="url(#a)"/>
<path d="m121.41 707.74v106.03" clip-path="url(#a)"/>
<path d="m168.95 707.74v106.03" clip-path="url(#a)"/>
<path d="m686.38 272.58-277.78 112.07" clip-path="url(#a)"/>
<path d="m686.38 272.58 52.981 435.17" clip-path="url(#a)"/>
<path d="m686.38 272.58 219.35 329.14" clip-path="url(#a)"/>
<path d="m686.38 272.58 5.4467 435.17" clip-path="url(#a)"/>
<path d="m408.6 384.65-97.05 323.1" clip-path="url(#a)"/>
<path d="m408.6 384.65-49.515 323.1" clip-path="url(#a)"/>
<path d="m408.6 384.65-1.9806 323.1" clip-path="url(#a)"/>
<path d="m408.6 384.65 148.55 109.57" clip-path="url(#a)"/>
<path d="m739.36 707.74v106.03" clip-path="url(#a)"/>
<path d="m905.74 601.72-118.84 106.03" clip-path="url(#a)"/>
<path d="m905.74 601.72-71.302 106.03" clip-path="url(#a)"/>
<path d="m905.74 601.72-23.767 106.03" clip-path="url(#a)"/>
<path d="m905.74 601.72 23.767 106.03" clip-path="url(#a)"/>
<path d="m905.74 601.72 71.302 106.03" clip-path="url(#a)"/>
<path d="m905.74 601.72 118.84 106.03" clip-path="url(#a)"/>
<path d="m786.9 707.74v106.03" clip-path="url(#a)"/>
<path d="m834.43 707.74v106.03" clip-path="url(#a)"/>
<path d="m881.97 707.74v106.03" clip-path="url(#a)"/>
<path d="m929.5 707.74v106.03" clip-path="url(#a)"/>
<path d="m977.04 707.74v106.03" clip-path="url(#a)"/>
<path d="m1024.6 707.74v106.03" clip-path="url(#a)"/>
<path d="m311.55 707.74v106.03" clip-path="url(#a)"/>
<path d="m359.09 707.74v106.03" clip-path="url(#a)"/>
<path d="m406.62 707.74v106.03" clip-path="url(#a)"/>
<path d="m557.15 494.22-102.99 213.53" clip-path="url(#a)"/>
<path d="m557.15 494.22 15.845 107.5" clip-path="url(#a)"/>
<path d="m557.15 494.22 87.147 213.53" clip-path="url(#a)"/>
<path d="m454.16 707.74v106.03" clip-path="url(#a)"/>
<path d="m572.99 601.72 71.302 106.03" clip-path="url(#a)" stroke-dasharray="3.7,1.6"/>
<path d="m572.99 601.72-71.302 106.03" clip-path="url(#a)"/>
<path d="m572.99 601.72 23.767 106.03" clip-path="url(#a)"/>
<path d="m572.99 601.72-23.767 106.03" clip-path="url(#a)"/>
<path d="m644.3 707.74v106.03" clip-path="url(#a)"/>
<path d="m501.69 707.74v106.03" clip-path="url(#a)"/>
<path d="m596.76 707.74v106.03" clip-path="url(#a)"/>
<path d="m216.48 707.74v106.03" clip-path="url(#a)"/>
<path d="m854.27 39.563-599.08 118.09" clip-path="url(#a)"/>
<path d="m854.27 39.563 265.37 668.18" clip-path="url(#a)"/>
<path d="m854.27 39.563 333.71 345.08" clip-path="url(#a)"/>
<path d="m684.57 272.58-275.96 112.07" clip-path="url(#a)"/>
<path d="m684.57 272.58 54.797 435.17" clip-path="url(#a)"/>
<path d="m684.57 272.58 221.17 329.14" clip-path="url(#a)"/>
<path d="m264.02 707.74v106.03" clip-path="url(#a)"/>
<path d="m549.23 707.74v106.03" clip-path="url(#a)"/>
<path d="m691.83 707.74v106.03" clip-path="url(#a)"/>
<path d="m1072.1 707.74v106.03" clip-path="url(#a)"/>
<path d="m1547.5 707.74v106.03" clip-path="url(#a)"/>
</g>
<path d="m580.11 105.32 5.9204-1.0698q2.3618-0.42677 1.935-2.7885l-1.3768-7.6191q-0.42677-2.3618-2.7885-1.935l-5.9204 1.0698q-2.3618 0.42677-1.935 2.7885l1.3768 7.6191q0.42677 2.3618 2.7885 1.935z" clip-path="url(#a)" fill="#fff" stroke="#fff"/>
<g clip-path="url(#a)">
<defs>
<path id="v" d="m9.8125 72.906h9.8594v-29.891h35.844v29.891h9.8594v-72.906h-9.8594v34.719h-35.844v-34.719h-9.8594z"/>
</defs>
<g transform="translate(579.39 101.32) rotate(-10.243) scale(.08 -.08)">
<use xlink:href="#v"/>
</g>
</g>
<path d="m1007.5 373.42 1.3418 4.2508q0.72243 2.2887 3.0111 1.5663l7.3834-2.3306q2.2887-0.72243 1.5663-3.0111l-1.3418-4.2508q-0.72243-2.2887-3.0111-1.5663l-7.3834 2.3306q-2.2887 0.72243-1.5663 3.0111z" clip-path="url(#a)" fill="#fff" stroke="#fff"/>
<g clip-path="url(#a)">
<defs>
<path id="s" d="m9.8125 72.906h9.8594v-64.609h35.5v-8.2969h-45.359z"/>
</defs>
<g transform="translate(1011.4 372.19) rotate(72.481) scale(.08 -.08)">
<use xlink:href="#s"/>
</g>
</g>
<path d="m1041.6 213.71 3.7845 4.6768q1.5097 1.8657 3.3754 0.35595l6.0187-4.8704q1.8657-1.5097 0.35595-3.3754l-3.7845-4.6768q-1.5097-1.8657-3.3754-0.35595l-6.0187 4.8704q-1.8657 1.5097-0.35595 3.3754z" clip-path="url(#a)" fill="#fff" stroke="#fff"/>
<g clip-path="url(#a)">
<g transform="translate(1044.7 211.15) rotate(51.02) scale(.08 -.08)">
<use xlink:href="#v"/>
</g>
</g>
<path d="m983.63 372.3 1.3907 5.6874q0.57004 2.3313 2.9014 1.7613l7.5209-1.839q2.3313-0.57004 1.7613-2.9014l-1.3907-5.6874q-0.57004-2.3313-2.9014-1.7613l-7.5209 1.839q-2.3313 0.57004-1.7613 2.9014z" clip-path="url(#a)" fill="#fff" stroke="#fff"/>
<g clip-path="url(#a)">
<defs>
<path id="u" d="m8.6875 72.906h9.9219v-44.297q0-11.719 4.2344-16.875 4.25-5.1406 13.781-5.1406 9.4688 0 13.719 5.1406 4.25 5.1562 4.25 16.875v44.297h9.9062v-45.516q0-14.25-7.0625-21.531-7.0469-7.2812-20.812-7.2812-13.828 0-20.891 7.2812-7.0469 7.2812-7.0469 21.531z"/>
</defs>
<g transform="translate(987.58 371.33) rotate(76.26) scale(.08 -.08)">
<use xlink:href="#u"/>
</g>
</g>
<path d="m169.63 437.26 1.7131-5.1975q0.75128-2.2794-1.5281-3.0307l-7.3534-2.4237q-2.2794-0.75128-3.0307 1.5281l-1.7131 5.1975q-0.75128 2.2794 1.5281 3.0307l7.3534 2.4237q2.2794 0.75128 3.0307-1.5281z" clip-path="url(#a)" fill="#fff" stroke="#fff"/>
<g clip-path="url(#a)">
<defs>
<path id="m" d="m34.188 63.188-13.391-36.281h26.812zm-5.5781 9.7188h11.188l27.781-72.906h-10.25l-6.6406 18.703h-32.859l-6.6406-18.703h-10.406z"/>
</defs>
<g transform="translate(165.77 435.99) rotate(-71.758) scale(.08 -.08)">
<use xlink:href="#m"/>
</g>
</g>
<path d="m193.85 436.42 1.0873-4.4709q0.56712-2.332-1.7649-2.8992l-7.5232-1.8295q-2.332-0.56712-2.8992 1.7649l-1.0873 4.4709q-0.56712 2.332 1.7649 2.8992l7.5232 1.8295q2.332 0.56712 2.8992-1.7649z" clip-path="url(#a)" fill="#fff" stroke="#fff"/>
<g clip-path="url(#a)">
<defs>
<path id="ad" d="m9.8125 72.906h41.891v-8.3125h-32.031v-21.484h28.906v-8.2969h-28.906v-34.812h-9.8594z"/>
</defs>
<g transform="translate(189.9 435.46) rotate(-76.332) scale(.08 -.08)">
<use xlink:href="#ad"/>
</g>
</g>
<path d="m217.89 436.05 0.74711-4.7655q0.37172-2.371-1.9993-2.7428l-7.6491-1.1992q-2.371-0.37172-2.7428 1.9993l-0.74711 4.7655q-0.37172 2.371 1.9993 2.7428l7.6491 1.1992q2.371 0.37172 2.7428-1.9993z" clip-path="url(#a)" fill="#fff" stroke="#fff"/>
<g clip-path="url(#a)">
<defs>
<path id="ac" d="m19.672 64.797v-27.391h12.406q6.8906 0 10.641 3.5625 3.7656 3.5625 3.7656 10.156 0 6.5469-3.7656 10.109-3.75 3.5625-10.641 3.5625zm-9.8594 8.1094h22.266q12.266 0 18.531-5.5469 6.2812-5.5469 6.2812-16.234 0-10.797-6.2812-16.312-6.2656-5.5156-18.531-5.5156h-12.406v-29.297h-9.8594z"/>
</defs>
<g transform="translate(213.88 435.43) rotate(-81.09) scale(.08 -.08)">
<use xlink:href="#ac"/>
</g>
</g>
<path d="m466.53 220.47 5.2879 1.4093q2.3191 0.61806 2.9371-1.701l1.9939-7.4814q0.61806-2.319-1.701-2.9371l-5.2879-1.4093q-2.3191-0.61806-2.9371 1.701l-1.9939 7.4814q-0.61806 2.3191 1.701 2.9371z" clip-path="url(#a)" fill="#fff" stroke="#fff"/>
<g clip-path="url(#a)">
<g transform="translate(467.57 216.55) rotate(14.923) scale(.08 -.08)">
<use xlink:href="#m"/>
</g>
</g>
<path d="m241.89 436.06 0.41094-5.8406q0.16845-2.3941-2.2256-2.5625l-7.7234-0.54342q-2.3941-0.16845-2.5625 2.2256l-0.41094 5.8406q-0.16845 2.3941 2.2256 2.5625l7.7234 0.54342q2.3941 0.16845 2.5625-2.2256z" clip-path="url(#a)" fill="#fff" stroke="#fff"/>
<g clip-path="url(#a)">
<g transform="translate(237.83 435.78) rotate(-85.975) scale(.08 -.08)">
<use xlink:href="#u"/>
</g>
</g>
<path d="m253.29 429.87 0.093975 5.8542q0.038521 2.3997 2.4382 2.3612l7.7415-0.12427q2.3997-0.03852 2.3612-2.4382l-0.093974-5.8542q-0.038521-2.3997-2.4382-2.3612l-7.7415 0.12427q-2.3997 0.03852-2.3612 2.4382z" clip-path="url(#a)" fill="#fff" stroke="#fff"/>
<g clip-path="url(#a)">
<g transform="translate(257.35 429.81) rotate(89.08) scale(.08 -.08)">
<use xlink:href="#u"/>
</g>
</g>
<path d="m1113.4 743.12v35.285q0 2.4 2.4 2.4h7.7425q2.4 0 2.4-2.4v-35.285q0-2.4-2.4-2.4h-7.7425q-2.4 0-2.4 2.4z" clip-path="url(#a)" fill="#fff" stroke="#fff"/>
<g clip-path="url(#a)">
<defs>
<path id="l" d="m-0.29688 72.906h61.672v-8.3125h-25.875v-64.594h-9.9062v64.594h-25.891z"/>
<path id="g" d="m56.203 29.594v-4.3906h-41.312q0.59375-9.2812 5.5938-14.141t13.938-4.8594q5.1719 0 10.031 1.2656t9.6562 3.8125v-8.5q-4.8438-2.0469-9.9219-3.125t-10.297-1.0781q-13.094 0-20.734 7.6094-7.6406 7.625-7.6406 20.625 0 13.422 7.25 21.297 7.25 7.8906 19.562 7.8906 11.031 0 17.453-7.1094 6.4219-7.0938 6.4219-19.297zm-8.9844 2.6406q-0.09375 7.3594-4.125 11.75-4.0312 4.4062-10.672 4.4062-7.5156 0-12.031-4.25t-5.2031-11.969z"/>
<path id="h" d="m41.109 46.297q-1.5156 0.875-3.2969 1.2812-1.7812 0.42188-3.9219 0.42188-7.625 0-11.703-4.9531t-4.0781-14.234v-28.812h-9.0312v54.688h9.0312v-8.5q2.8438 4.9844 7.375 7.3906 4.5469 2.4219 11.047 2.4219 0.92188 0 2.0469-0.125 1.125-0.10938 2.4844-0.35938z"/>
<path id="j" d="m52 44.188q3.375 6.0625 8.0625 8.9375t11.031 2.875q8.5469 0 13.188-5.9844 4.6406-5.9688 4.6406-17v-33.016h-9.0312v32.719q0 7.8594-2.7969 11.656-2.7812 3.8125-8.4844 3.8125-6.9844 0-11.047-4.6406-4.0469-4.625-4.0469-12.641v-30.906h-9.0312v32.719q0 7.9062-2.7812 11.688t-8.5938 3.7812q-6.8906 0-10.953-4.6562-4.0469-4.6562-4.0469-12.625v-30.906h-9.0312v54.688h9.0312v-8.5q3.0781 5.0312 7.375 7.4219t10.203 2.3906q5.9688 0 10.141-3.0312 4.1719-3.0156 6.1719-8.7812z"/>
<path id="f" d="m9.4219 54.688h8.9844v-54.688h-8.9844zm0 21.297h8.9844v-11.391h-8.9844z"/>
<path id="i" d="m54.891 33.016v-33.016h-8.9844v32.719q0 7.7656-3.0312 11.609-3.0312 3.8594-9.0781 3.8594-7.2812 0-11.484-4.6406-4.2031-4.625-4.2031-12.641v-30.906h-9.0312v54.688h9.0312v-8.5q3.2344 4.9375 7.5938 7.375 4.375 2.4375 10.094 2.4375 9.4219 0 14.25-5.8281 4.8438-5.8281 4.8438-17.156z"/>
<path id="e" d="m34.281 27.484q-10.891 0-15.094-2.4844t-4.2031-8.5q0-4.7812 3.1562-7.5938 3.1562-2.7969 8.5625-2.7969 7.4844 0 12 5.2969t4.5156 14.078v2zm17.922 3.7188v-31.203h-8.9844v8.2969q-3.0781-4.9688-7.6719-7.3438t-11.234-2.375q-8.3906 0-13.359 4.7188-4.9531 4.7188-4.9531 12.625 0 9.2188 6.1719 13.906 6.1875 4.6875 18.438 4.6875h12.609v0.89062q0 6.2031-4.0781 9.5938t-11.453 3.3906q-4.6875 0-9.1406-1.125-4.4375-1.125-8.5312-3.375v8.3125q4.9219 1.9062 9.5625 2.8438 4.6406 0.95312 9.0312 0.95312 11.875 0 17.734-6.1562 5.8594-6.1406 5.8594-18.641z"/>
<path id="k" d="m9.4219 75.984h8.9844v-75.984h-8.9844z"/>
</defs>
<g transform="translate(1117.4 743.12) rotate(90) scale(.08 -.08)">
<use xlink:href="#l"/>
<use x="60.818359" xlink:href="#g"/>
<use x="122.341797" xlink:href="#h"/>
<use x="163.439453" xlink:href="#j"/>
<use x="260.851562" xlink:href="#f"/>
<use x="288.634766" xlink:href="#i"/>
<use x="352.013672" xlink:href="#e"/>
<use x="413.292969" xlink:href="#k"/>
</g>
</g>
<path d="m1183.7 549.33 0.35151-5.4612q0.15416-2.395-2.2409-2.5492l-7.7265-0.49732q-2.395-0.15416-2.5492 2.2409l-0.35151 5.4612q-0.15416 2.395 2.2409 2.5492l7.7265 0.49732q2.395 0.15416 2.5492-2.2409z" clip-path="url(#a)" fill="#fff" stroke="#fff"/>
<g clip-path="url(#a)">
<g transform="translate(1179.6 549.07) rotate(-86.317) scale(.08 -.08)">
<use xlink:href="#m"/>
</g>
</g>
<path d="m1194.9 544.18 0.41886 5.0614q0.19794 2.3918 2.5898 2.1939l7.7161-0.63855q2.3918-0.19794 2.1939-2.5898l-0.41886-5.0614q-0.19794-2.3918-2.5898-2.1939l-7.7161 0.63855q-2.3918 0.19794-2.1939 2.5898z" clip-path="url(#a)" fill="#fff" stroke="#fff"/>
<g clip-path="url(#a)">
<defs>
<path id="am" d="m53.516 70.516v-9.625q-5.6094 2.6875-10.594 4-4.9844 1.3281-9.625 1.3281-8.0469 0-12.422-3.125t-4.375-8.8906q0-4.8438 2.9062-7.3125 2.9062-2.4531 11.016-3.9688l5.9531-1.2188q11.031-2.1094 16.281-7.4062t5.25-14.172q0-10.609-7.1094-16.078-7.0938-5.4688-20.812-5.4688-5.1719 0-11.016 1.1719-5.8281 1.1719-12.078 3.4688v10.156q6-3.3594 11.766-5.0781 5.7656-1.7031 11.328-1.7031 8.4375 0 13.031 3.3125 4.5938 3.3281 4.5938 9.4844 0 5.3594-3.2969 8.3906t-10.812 4.5469l-6.0156 1.1719q-11.031 2.1875-15.969 6.875-4.9219 4.6875-4.9219 13.047 0 9.6719 6.8125 15.234t18.766 5.5625q5.1406 0 10.453-0.9375 5.3281-0.92188 10.891-2.7656z"/>
</defs>
<g transform="translate(1198.9 543.85) rotate(85.269) scale(.08 -.08)">
<use xlink:href="#am"/>
</g>
</g>
<path d="m1230.2 493.27 2.2526 4.9874q0.98787 2.1873 3.1751 1.1994l7.0562-3.1869q2.1873-0.98787 1.1994-3.1751l-2.2526-4.9874q-0.98787-2.1873-3.1751-1.1994l-7.0562 3.1869q-2.1873 0.98787-1.1994 3.1751z" clip-path="url(#a)" fill="#fff" stroke="#fff"/>
<g clip-path="url(#a)">
<g transform="translate(1233.9 491.6) rotate(65.694) scale(.08 -.08)">
<use xlink:href="#m"/>
</g>
</g>
<path d="m1138.6 445.73 3.7671-3.9696q1.6521-1.7409-0.088803-3.393l-5.6161-5.3297q-1.7409-1.6521-3.393 0.088802l-3.7671 3.9696q-1.6521 1.7409 0.088803 3.393l5.6161 5.3297q1.7409 1.6521 3.393-0.088803z" clip-path="url(#a)" fill="#fff" stroke="#fff"/>
<g clip-path="url(#a)">
<g transform="translate(1135.7 442.94) rotate(-46.499) scale(.08 -.08)">
<use xlink:href="#m"/>
</g>
</g>
<path d="m1160.9 743.12v35.285q0 2.4 2.4 2.4h7.7425q2.4 0 2.4-2.4v-35.285q0-2.4-2.4-2.4h-7.7425q-2.4 0-2.4 2.4z" clip-path="url(#a)" fill="#fff" stroke="#fff"/>
<g clip-path="url(#a)">
<g transform="translate(1165 743.12) rotate(90) scale(.08 -.08)">
<use xlink:href="#l"/>
<use x="60.818359" xlink:href="#g"/>
<use x="122.341797" xlink:href="#h"/>
<use x="163.439453" xlink:href="#j"/>
<use x="260.851562" xlink:href="#f"/>
<use x="288.634766" xlink:href="#i"/>
<use x="352.013672" xlink:href="#e"/>
<use x="413.292969" xlink:href="#k"/>
</g>
</g>
<path d="m1208.4 743.12v35.285q0 2.4 2.4 2.4h7.7425q2.4 0 2.4-2.4v-35.285q0-2.4-2.4-2.4h-7.7425q-2.4 0-2.4 2.4z" clip-path="url(#a)" fill="#fff" stroke="#fff"/>
<g clip-path="url(#a)">
<g transform="translate(1212.5 743.12) rotate(90) scale(.08 -.08)">
<use xlink:href="#l"/>
<use x="60.818359" xlink:href="#g"/>
<use x="122.341797" xlink:href="#h"/>
<use x="163.439453" xlink:href="#j"/>
<use x="260.851562" xlink:href="#f"/>
<use x="288.634766" xlink:href="#i"/>
<use x="352.013672" xlink:href="#e"/>
<use x="413.292969" xlink:href="#k"/>
</g>
</g>
<path d="m1279.7 658.57 1.1057-4.9326q0.52497-2.3419-1.8169-2.8668l-7.555-1.6936q-2.3419-0.52497-2.8668 1.8169l-1.1057 4.9326q-0.52497 2.3419 1.8169 2.8668l7.555 1.6936q2.3419 0.52497 2.8668-1.8169z" clip-path="url(#a)" fill="#fff" stroke="#fff"/>
<g clip-path="url(#a)">
<defs>
<path id="ae" d="m9.8125 72.906h46.094v-8.3125h-36.234v-21.578h34.719v-8.2969h-34.719v-26.422h37.109v-8.2969h-46.969z"/>
</defs>
<g transform="translate(1275.7 657.68) rotate(-77.365) scale(.08 -.08)">
<use xlink:href="#ae"/>
</g>
</g>
<path d="m1291.2 653.38 1.2219 5.451q0.52497 2.3419 2.8668 1.8169l7.555-1.6936q2.3419-0.52497 1.8169-2.8668l-1.2219-5.451q-0.52497-2.3419-2.8668-1.8169l-7.555 1.6936q-2.3419 0.52497-1.8169 2.8668z" clip-path="url(#a)" fill="#fff" stroke="#fff"/>
<g clip-path="url(#a)">
<defs>
<path id="aj" d="m64.406 67.281v-10.391q-4.9844 4.6406-10.625 6.9219-5.6406 2.2969-11.984 2.2969-12.5 0-19.141-7.6406t-6.6406-22.094q0-14.406 6.6406-22.047t19.141-7.6406q6.3438 0 11.984 2.2969t10.625 6.9375v-10.312q-5.1719-3.5156-10.969-5.2812-5.7812-1.75-12.219-1.75-16.562 0-26.094 10.125-9.5156 10.141-9.5156 27.672 0 17.578 9.5156 27.703 9.5312 10.141 26.094 10.141 6.5312 0 12.312-1.7344 5.7969-1.7344 10.875-5.2031z"/>
</defs>
<g transform="translate(1295.1 652.49) rotate(77.365) scale(.08 -.08)">
<use xlink:href="#aj"/>
</g>
</g>
<path d="m1215 604.51 3.6259 2.8327q1.8913 1.4775 3.3688-0.41377l4.7665-6.1014q1.4775-1.8913-0.41377-3.3688l-3.6259-2.8327q-1.8913-1.4775-3.3688 0.41377l-4.7665 6.1014q-1.4775 1.8913 0.41377 3.3688z" clip-path="url(#a)" fill="#fff" stroke="#fff"/>
<g clip-path="url(#a)">
<g transform="translate(1217.5 601.3) rotate(37.998) scale(.08 -.08)">
<use xlink:href="#ad"/>
</g>
</g>
<path d="m1238.9 604.87 4.0158 2.6725q1.998 1.3296 3.3277-0.66836l4.2895-6.4457q1.3296-1.998-0.66836-3.3277l-4.0158-2.6725q-1.998-1.3296-3.3277 0.66836l-4.2895 6.4457q-1.3296 1.998 0.66836 3.3277z" clip-path="url(#a)" fill="#fff" stroke="#fff"/>
<g clip-path="url(#a)">
<g transform="translate(1241.2 601.48) rotate(33.643) scale(.08 -.08)">
<use xlink:href="#ac"/>
</g>
</g>
<path d="m1287.4 553.27 5.964 1.5415q2.3236 0.60057 2.9242-1.7231l1.9375-7.4962q0.60057-2.3236-1.7231-2.9242l-5.964-1.5415q-2.3236-0.60057-2.9242 1.7231l-1.9375 7.4962q-0.60057 2.3236 1.7231 2.9242z" clip-path="url(#a)" fill="#fff" stroke="#fff"/>
<g clip-path="url(#a)">
<defs>
<path id="ai" d="m19.672 64.797v-56.688h11.922q15.094 0 22.094 6.8281 7 6.8438 7 21.594 0 14.641-7 21.453t-22.094 6.8125zm-9.8594 8.1094h20.266q21.188 0 31.094-8.8125 9.9219-8.8125 9.9219-27.562 0-18.859-9.9688-27.703-9.9531-8.8281-31.047-8.8281h-20.266z"/>
</defs>
<g transform="translate(1288.4 549.33) rotate(14.492) scale(.08 -.08)">
<use xlink:href="#ai"/>
</g>
</g>
<path d="m577.56 607.68 5.3542-1.1318q2.3481-0.49637 1.8517-2.8445l-1.6013-7.5751q-0.49637-2.3481-2.8445-1.8517l-5.3542 1.1318q-2.3481 0.49637-1.8517 2.8445l1.6013 7.5751q0.49637 2.3481 2.8445 1.8517z" clip-path="url(#a)" fill="#fff" stroke="#fff"/>
<g clip-path="url(#a)">
<g transform="translate(576.71 603.71) rotate(-11.936) scale(.08 -.08)">
<use xlink:href="#m"/>
</g>
</g>
<path d="m1351 743.12v35.285q0 2.4 2.4 2.4h7.7425q2.4 0 2.4-2.4v-35.285q0-2.4-2.4-2.4h-7.7425q-2.4 0-2.4 2.4z" clip-path="url(#a)" fill="#fff" stroke="#fff"/>
<g clip-path="url(#a)">
<g transform="translate(1355.1 743.12) rotate(90) scale(.08 -.08)">
<use xlink:href="#l"/>
<use x="60.818359" xlink:href="#g"/>
<use x="122.341797" xlink:href="#h"/>
<use x="163.439453" xlink:href="#j"/>
<use x="260.851562" xlink:href="#f"/>
<use x="288.634766" xlink:href="#i"/>
<use x="352.013672" xlink:href="#e"/>
<use x="413.292969" xlink:href="#k"/>
</g>
</g>
<path d="m1398.6 743.12v35.285q0 2.4 2.4 2.4h7.7425q2.4 0 2.4-2.4v-35.285q0-2.4-2.4-2.4h-7.7425q-2.4 0-2.4 2.4z" clip-path="url(#a)" fill="#fff" stroke="#fff"/>
<g clip-path="url(#a)">
<g transform="translate(1402.6 743.12) rotate(90) scale(.08 -.08)">
<use xlink:href="#l"/>
<use x="60.818359" xlink:href="#g"/>
<use x="122.341797" xlink:href="#h"/>
<use x="163.439453" xlink:href="#j"/>
<use x="260.851562" xlink:href="#f"/>
<use x="288.634766" xlink:href="#i"/>
<use x="352.013672" xlink:href="#e"/>
<use x="413.292969" xlink:href="#k"/>
</g>
</g>
<path d="m1480.8 659.6 2.068-4.6126q0.98183-2.19-1.2081-3.1718l-7.065-3.1674q-2.19-0.98183-3.1718 1.2081l-2.068 4.6126q-0.98183 2.19 1.2081 3.1718l7.065 3.1674q2.19 0.98183 3.1718-1.2081z" clip-path="url(#a)" fill="#fff" stroke="#fff"/>
<g clip-path="url(#a)">
<g transform="translate(1477.1 657.94) rotate(-65.852) scale(.08 -.08)">
<use xlink:href="#ae"/>
</g>
</g>
<path d="m1493.6 651.94v5.5862q0 2.4 2.4 2.4h7.7425q2.4 0 2.4-2.4v-5.5862q0-2.4-2.4-2.4h-7.7425q-2.4 0-2.4 2.4z" clip-path="url(#a)" fill="#fff" stroke="#fff"/>
<g clip-path="url(#a)">
<g transform="translate(1497.7 651.94) rotate(90) scale(.08 -.08)">
<use xlink:href="#aj"/>
</g>
</g>
<path d="m1516.8 654.63 2.3953 5.3426q0.98183 2.19 3.1718 1.2081l7.065-3.1674q2.19-0.98183 1.2081-3.1718l-2.3953-5.3426q-0.98183-2.19-3.1718-1.2081l-7.065 3.1674q-2.19 0.98183-1.2081 3.1718z" clip-path="url(#a)" fill="#fff" stroke="#fff"/>
<g clip-path="url(#a)">
<g transform="translate(1520.5 652.96) rotate(65.852) scale(.08 -.08)">
<use xlink:href="#u"/>
</g>
</g>
<path d="m1446.1 743.12v35.285q0 2.4 2.4 2.4h7.7425q2.4 0 2.4-2.4v-35.285q0-2.4-2.4-2.4h-7.7425q-2.4 0-2.4 2.4z" clip-path="url(#a)" fill="#fff" stroke="#fff"/>
<g clip-path="url(#a)">
<g transform="translate(1450.2 743.12) rotate(90) scale(.08 -.08)">
<use xlink:href="#l"/>
<use x="60.818359" xlink:href="#g"/>
<use x="122.341797" xlink:href="#h"/>
<use x="163.439453" xlink:href="#j"/>
<use x="260.851562" xlink:href="#f"/>
<use x="288.634766" xlink:href="#i"/>
<use x="352.013672" xlink:href="#e"/>
<use x="413.292969" xlink:href="#k"/>
</g>
</g>
<path d="m1493.6 743.12v35.285q0 2.4 2.4 2.4h7.7425q2.4 0 2.4-2.4v-35.285q0-2.4-2.4-2.4h-7.7425q-2.4 0-2.4 2.4z" clip-path="url(#a)" fill="#fff" stroke="#fff"/>
<g clip-path="url(#a)">
<g transform="translate(1497.7 743.12) rotate(90) scale(.08 -.08)">
<use xlink:href="#l"/>
<use x="60.818359" xlink:href="#g"/>
<use x="122.341797" xlink:href="#h"/>
<use x="163.439453" xlink:href="#j"/>
<use x="260.851562" xlink:href="#f"/>
<use x="288.634766" xlink:href="#i"/>
<use x="352.013672" xlink:href="#e"/>
<use x="413.292969" xlink:href="#k"/>
</g>
</g>
<path d="m1256 743.12v35.285q0 2.4 2.4 2.4h7.7425q2.4 0 2.4-2.4v-35.285q0-2.4-2.4-2.4h-7.7425q-2.4 0-2.4 2.4z" clip-path="url(#a)" fill="#fff" stroke="#fff"/>
<g clip-path="url(#a)">
<g transform="translate(1260 743.12) rotate(90) scale(.08 -.08)">
<use xlink:href="#l"/>
<use x="60.818359" xlink:href="#g"/>
<use x="122.341797" xlink:href="#h"/>
<use x="163.439453" xlink:href="#j"/>
<use x="260.851562" xlink:href="#f"/>
<use x="288.634766" xlink:href="#i"/>
<use x="352.013672" xlink:href="#e"/>
<use x="413.292969" xlink:href="#k"/>
</g>
</g>
<path d="m1303.5 743.12v35.285q0 2.4 2.4 2.4h7.7425q2.4 0 2.4-2.4v-35.285q0-2.4-2.4-2.4h-7.7425q-2.4 0-2.4 2.4z" clip-path="url(#a)" fill="#fff" stroke="#fff"/>
<g clip-path="url(#a)">
<g transform="translate(1307.6 743.12) rotate(90) scale(.08 -.08)">
<use xlink:href="#l"/>
<use x="60.818359" xlink:href="#g"/>
<use x="122.341797" xlink:href="#h"/>
<use x="163.439453" xlink:href="#j"/>
<use x="260.851562" xlink:href="#f"/>
<use x="288.634766" xlink:href="#i"/>
<use x="352.013672" xlink:href="#e"/>
<use x="413.292969" xlink:href="#k"/>
</g>
</g>
<path d="m67.609 743.12v35.285q0 2.4 2.4 2.4h7.7425q2.4 0 2.4-2.4v-35.285q0-2.4-2.4-2.4h-7.7425q-2.4 0-2.4 2.4z" clip-path="url(#a)" fill="#fff" stroke="#fff"/>
<g clip-path="url(#a)">
<g transform="translate(71.672 743.12) rotate(90) scale(.08 -.08)">
<use xlink:href="#l"/>
<use x="60.818359" xlink:href="#g"/>
<use x="122.341797" xlink:href="#h"/>
<use x="163.439453" xlink:href="#j"/>
<use x="260.851562" xlink:href="#f"/>
<use x="288.634766" xlink:href="#i"/>
<use x="352.013672" xlink:href="#e"/>
<use x="413.292969" xlink:href="#k"/>
</g>
</g>
<path d="m115.14 743.12v35.285q0 2.4 2.4 2.4h7.7425q2.4 0 2.4-2.4v-35.285q0-2.4-2.4-2.4h-7.7425q-2.4 0-2.4 2.4z" clip-path="url(#a)" fill="#fff" stroke="#fff"/>
<g clip-path="url(#a)">
<g transform="translate(119.21 743.12) rotate(90) scale(.08 -.08)">
<use xlink:href="#l"/>
<use x="60.818359" xlink:href="#g"/>
<use x="122.341797" xlink:href="#h"/>
<use x="163.439453" xlink:href="#j"/>
<use x="260.851562" xlink:href="#f"/>
<use x="288.634766" xlink:href="#i"/>
<use x="352.013672" xlink:href="#e"/>
<use x="413.292969" xlink:href="#k"/>
</g>
</g>
<path d="m162.68 743.12v35.285q0 2.4 2.4 2.4h7.7425q2.4 0 2.4-2.4v-35.285q0-2.4-2.4-2.4h-7.7425q-2.4 0-2.4 2.4z" clip-path="url(#a)" fill="#fff" stroke="#fff"/>
<g clip-path="url(#a)">
<g transform="translate(166.74 743.12) rotate(90) scale(.08 -.08)">
<use xlink:href="#l"/>
<use x="60.818359" xlink:href="#g"/>
<use x="122.341797" xlink:href="#h"/>
<use x="163.439453" xlink:href="#j"/>
<use x="260.851562" xlink:href="#f"/>
<use x="288.634766" xlink:href="#i"/>
<use x="352.013672" xlink:href="#e"/>
<use x="413.292969" xlink:href="#k"/>
</g>
</g>
<path d="m547.05 335.55 5.5793-2.2509q2.2257-0.89794 1.3278-3.1236l-2.8968-7.1802q-0.89794-2.2257-3.1236-1.3278l-5.5793 2.2509q-2.2257 0.89794-1.3278 3.1236l2.8968 7.1802q0.89794 2.2257 3.1236 1.3278z" clip-path="url(#a)" fill="#fff" stroke="#fff"/>
<g clip-path="url(#a)">
<g transform="translate(545.53 331.78) rotate(-21.971) scale(.08 -.08)">
<use xlink:href="#v"/>
</g>
</g>
<path d="m706.38 488.71 0.53872 4.4248q0.29006 2.3824 2.6725 2.0924l7.6857-0.93574q2.3824-0.29006 2.0924-2.6725l-0.53872-4.4248q-0.29006-2.3824-2.6725-2.0924l-7.6857 0.93574q-2.3824 0.29006-2.0924 2.6725z" clip-path="url(#a)" fill="#fff" stroke="#fff"/>
<g clip-path="url(#a)">
<g transform="translate(710.41 488.22) rotate(83.058) scale(.08 -.08)">
<use xlink:href="#s"/>
</g>
</g>
<path d="m789.17 438.12 3.3364 5.0063q1.331 1.9971 3.3281 0.66616l6.4428-4.2938q1.9971-1.331 0.66616-3.3281l-3.3364-5.0063q-1.331-1.9971-3.3281-0.66616l-6.4428 4.2938q-1.9971 1.331-0.66616 3.3281z" clip-path="url(#a)" fill="#fff" stroke="#fff"/>
<g clip-path="url(#a)">
<g transform="translate(792.55 435.87) rotate(56.319) scale(.08 -.08)">
<use xlink:href="#v"/>
</g>
</g>
<path d="m682.8 487.31 0.073277 5.8545q0.030037 2.3998 2.4298 2.3698l7.7419-0.0969q2.3998-0.030037 2.3698-2.4298l-0.073277-5.8545q-0.030037-2.3998-2.4298-2.3698l-7.7419 0.096899q-2.3998 0.030037-2.3698 2.4298z" clip-path="url(#a)" fill="#fff" stroke="#fff"/>
<g clip-path="url(#a)">
<g transform="translate(686.86 487.26) rotate(89.283) scale(.08 -.08)">
<use xlink:href="#u"/>
</g>
</g>
<path d="m365.3 550.62 1.5743-5.2412q0.69042-2.2985-1.6081-2.989l-7.4152-2.2273q-2.2985-0.69042-2.989 1.6081l-1.5743 5.2412q-0.69042 2.2985 1.6081 2.989l7.4152 2.2273q2.2985 0.69042 2.989-1.6081z" clip-path="url(#a)" fill="#fff" stroke="#fff"/>
<g clip-path="url(#a)">
<g transform="translate(361.4 549.45) rotate(-73.281) scale(.08 -.08)">
<use xlink:href="#m"/>
</g>
</g>
<path d="m389.66 549.66 0.76934-5.0201q0.36356-2.3723-2.0087-2.7359l-7.6532-1.1729q-2.3723-0.36356-2.7359 2.0087l-0.76934 5.0201q-0.36356 2.3723 2.0087 2.7359l7.6532 1.1729q2.3723 0.36356 2.7359-2.0087z" clip-path="url(#a)" fill="#fff" stroke="#fff"/>
<g clip-path="url(#a)">
<g transform="translate(385.64 549.04) rotate(-81.287) scale(.08 -.08)">
<use xlink:href="#am"/>
</g>
</g>
<path d="m413.86 549.31 0.03776-6.1599q0.014712-2.4-2.3852-2.4147l-7.7424-0.047461q-2.4-0.014711-2.4147 2.3852l-0.03776 6.1599q-0.014712 2.4 2.3852 2.4147l7.7424 0.047461q2.4 0.014712 2.4147-2.3852z" clip-path="url(#a)" fill="#fff" stroke="#fff"/>
<g clip-path="url(#a)">
<g transform="translate(409.8 549.29) rotate(-89.649) scale(.08 -.08)">
<use xlink:href="#ai"/>
</g>
</g>
<path d="m476.95 442.85 4.404 3.2485q1.9314 1.4247 3.3561-0.50675l4.596-6.2308q1.4247-1.9314-0.50675-3.3561l-4.404-3.2485q-1.9314-1.4247-3.3561 0.50675l-4.596 6.2308q-1.4247 1.9314 0.50675 3.3561z" clip-path="url(#a)" fill="#fff" stroke="#fff"/>
<g clip-path="url(#a)">
<g transform="translate(479.36 439.58) rotate(36.413) scale(.08 -.08)">
<use xlink:href="#m"/>
</g>
</g>
<path d="m733.09 743.12v35.285q0 2.4 2.4 2.4h7.7425q2.4 0 2.4-2.4v-35.285q0-2.4-2.4-2.4h-7.7425q-2.4 0-2.4 2.4z" clip-path="url(#a)" fill="#fff" stroke="#fff"/>
<g clip-path="url(#a)">
<g transform="translate(737.16 743.12) rotate(90) scale(.08 -.08)">
<use xlink:href="#l"/>
<use x="60.818359" xlink:href="#g"/>
<use x="122.341797" xlink:href="#h"/>
<use x="163.439453" xlink:href="#j"/>
<use x="260.851562" xlink:href="#f"/>
<use x="288.634766" xlink:href="#i"/>
<use x="352.013672" xlink:href="#e"/>
<use x="413.292969" xlink:href="#k"/>
</g>
</g>
<path d="m848.45 661.23 4.0835-3.6433q1.7908-1.5978 0.19305-3.3886l-5.1545-5.7773q-1.5978-1.7908-3.3886-0.19305l-4.0835 3.6433q-1.7908 1.5978-0.19305 3.3886l5.1545 5.7773q1.5978 1.7908 3.3886 0.19305z" clip-path="url(#a)" fill="#fff" stroke="#fff"/>
<g clip-path="url(#a)">
<g transform="translate(845.75 658.2) rotate(-41.739) scale(.08 -.08)">
<use xlink:href="#m"/>
</g>
</g>
<path d="m874.01 660.14 2.5677-3.8182q1.3393-1.9915-0.65225-3.3309l-6.4248-4.3206q-1.9915-1.3393-3.3309 0.65225l-2.5677 3.8182q-1.3393 1.9915 0.65225 3.3309l6.4248 4.3206q1.9915 1.3393 3.3309-0.65225z" clip-path="url(#a)" fill="#fff" stroke="#fff"/>
<g clip-path="url(#a)">
<g transform="translate(870.63 657.87) rotate(-56.079) scale(.08 -.08)">
<use xlink:href="#ad"/>
</g>
</g>
<path d="m899.3 659.11 1.3474-6.0108q0.52497-2.3419-1.8169-2.8668l-7.555-1.6936q-2.3419-0.52497-2.8668 1.8169l-1.3474 6.0108q-0.52497 2.3419 1.8169 2.8668l7.555 1.6936q2.3419 0.52497 2.8668-1.8169z" clip-path="url(#a)" fill="#fff" stroke="#fff"/>
<g clip-path="url(#a)">
<g transform="translate(895.33 658.22) rotate(-77.365) scale(.08 -.08)">
<use xlink:href="#ai"/>
</g>
</g>
<path d="m911 653.86 1.0065 4.4898q0.52497 2.3419 2.8668 1.8169l7.555-1.6936q2.3419-0.52497 1.8169-2.8668l-1.0065-4.4898q-0.52497-2.3419-2.8668-1.8169l-7.555 1.6936q-2.3419 0.52497-1.8169 2.8668z" clip-path="url(#a)" fill="#fff" stroke="#fff"/>
<g clip-path="url(#a)">
<g transform="translate(914.96 652.97) rotate(77.365) scale(.08 -.08)">
<use xlink:href="#ad"/>
</g>
</g>
<path d="m934.84 656.23 2.6919 4.0028q1.3393 1.9915 3.3309 0.65225l6.4248-4.3206q1.9915-1.3393 0.65225-3.3309l-2.6919-4.0028q-1.3393-1.9915-3.3309-0.65225l-6.4248 4.3206q-1.9915 1.3393-0.65225 3.3309z" clip-path="url(#a)" fill="#fff" stroke="#fff"/>
<g clip-path="url(#a)">
<g transform="translate(938.21 653.96) rotate(56.079) scale(.08 -.08)">
<use xlink:href="#ac"/>
</g>
</g>
<path d="m958.94 657.59 4.0835 3.6433q1.7908 1.5978 3.3886-0.19305l5.1545-5.7773q1.5978-1.7908-0.19305-3.3886l-4.0835-3.6433q-1.7908-1.5978-3.3886 0.19305l-5.1545 5.7773q-1.5978 1.7908 0.19305 3.3886z" clip-path="url(#a)" fill="#fff" stroke="#fff"/>
<g clip-path="url(#a)">
<g transform="translate(961.64 654.56) rotate(41.739) scale(.08 -.08)">
<use xlink:href="#m"/>
</g>
</g>
<path d="m780.63 743.12v35.285q0 2.4 2.4 2.4h7.7425q2.4 0 2.4-2.4v-35.285q0-2.4-2.4-2.4h-7.7425q-2.4 0-2.4 2.4z" clip-path="url(#a)" fill="#fff" stroke="#fff"/>
<g clip-path="url(#a)">
<g transform="translate(784.69 743.12) rotate(90) scale(.08 -.08)">
<use xlink:href="#l"/>
<use x="60.818359" xlink:href="#g"/>
<use x="122.341797" xlink:href="#h"/>
<use x="163.439453" xlink:href="#j"/>
<use x="260.851562" xlink:href="#f"/>
<use x="288.634766" xlink:href="#i"/>
<use x="352.013672" xlink:href="#e"/>
<use x="413.292969" xlink:href="#k"/>
</g>
</g>
<path d="m828.16 743.12v35.285q0 2.4 2.4 2.4h7.7425q2.4 0 2.4-2.4v-35.285q0-2.4-2.4-2.4h-7.7425q-2.4 0-2.4 2.4z" clip-path="url(#a)" fill="#fff" stroke="#fff"/>
<g clip-path="url(#a)">
<g transform="translate(832.23 743.12) rotate(90) scale(.08 -.08)">
<use xlink:href="#l"/>
<use x="60.818359" xlink:href="#g"/>
<use x="122.341797" xlink:href="#h"/>
<use x="163.439453" xlink:href="#j"/>
<use x="260.851562" xlink:href="#f"/>
<use x="288.634766" xlink:href="#i"/>
<use x="352.013672" xlink:href="#e"/>
<use x="413.292969" xlink:href="#k"/>
</g>
</g>
<path d="m875.7 743.12v35.285q0 2.4 2.4 2.4h7.7425q2.4 0 2.4-2.4v-35.285q0-2.4-2.4-2.4h-7.7425q-2.4 0-2.4 2.4z" clip-path="url(#a)" fill="#fff" stroke="#fff"/>
<g clip-path="url(#a)">
<g transform="translate(879.76 743.12) rotate(90) scale(.08 -.08)">
<use xlink:href="#l"/>
<use x="60.818359" xlink:href="#g"/>
<use x="122.341797" xlink:href="#h"/>
<use x="163.439453" xlink:href="#j"/>
<use x="260.851562" xlink:href="#f"/>
<use x="288.634766" xlink:href="#i"/>
<use x="352.013672" xlink:href="#e"/>
<use x="413.292969" xlink:href="#k"/>
</g>
</g>
<path d="m923.23 743.12v35.285q0 2.4 2.4 2.4h7.7425q2.4 0 2.4-2.4v-35.285q0-2.4-2.4-2.4h-7.7425q-2.4 0-2.4 2.4z" clip-path="url(#a)" fill="#fff" stroke="#fff"/>
<g clip-path="url(#a)">
<g transform="translate(927.3 743.12) rotate(90) scale(.08 -.08)">
<use xlink:href="#l"/>
<use x="60.818359" xlink:href="#g"/>
<use x="122.341797" xlink:href="#h"/>
<use x="163.439453" xlink:href="#j"/>
<use x="260.851562" xlink:href="#f"/>
<use x="288.634766" xlink:href="#i"/>
<use x="352.013672" xlink:href="#e"/>
<use x="413.292969" xlink:href="#k"/>
</g>
</g>
<path d="m970.77 743.12v35.285q0 2.4 2.4 2.4h7.7425q2.4 0 2.4-2.4v-35.285q0-2.4-2.4-2.4h-7.7425q-2.4 0-2.4 2.4z" clip-path="url(#a)" fill="#fff" stroke="#fff"/>
<g clip-path="url(#a)">
<g transform="translate(974.83 743.12) rotate(90) scale(.08 -.08)">
<use xlink:href="#l"/>
<use x="60.818359" xlink:href="#g"/>
<use x="122.341797" xlink:href="#h"/>
<use x="163.439453" xlink:href="#j"/>
<use x="260.851562" xlink:href="#f"/>
<use x="288.634766" xlink:href="#i"/>
<use x="352.013672" xlink:href="#e"/>
<use x="413.292969" xlink:href="#k"/>
</g>
</g>
<path d="m1018.3 743.12v35.285q0 2.4 2.4 2.4h7.7425q2.4 0 2.4-2.4v-35.285q0-2.4-2.4-2.4h-7.7425q-2.4 0-2.4 2.4z" clip-path="url(#a)" fill="#fff" stroke="#fff"/>
<g clip-path="url(#a)">
<g transform="translate(1022.4 743.12) rotate(90) scale(.08 -.08)">
<use xlink:href="#l"/>
<use x="60.818359" xlink:href="#g"/>
<use x="122.341797" xlink:href="#h"/>
<use x="163.439453" xlink:href="#j"/>
<use x="260.851562" xlink:href="#f"/>
<use x="288.634766" xlink:href="#i"/>
<use x="352.013672" xlink:href="#e"/>
<use x="413.292969" xlink:href="#k"/>
</g>
</g>
<path d="m305.28 743.12v35.285q0 2.4 2.4 2.4h7.7425q2.4 0 2.4-2.4v-35.285q0-2.4-2.4-2.4h-7.7425q-2.4 0-2.4 2.4z" clip-path="url(#a)" fill="#fff" stroke="#fff"/>
<g clip-path="url(#a)">
<g transform="translate(309.35 743.12) rotate(90) scale(.08 -.08)">
<use xlink:href="#l"/>
<use x="60.818359" xlink:href="#g"/>
<use x="122.341797" xlink:href="#h"/>
<use x="163.439453" xlink:href="#j"/>
<use x="260.851562" xlink:href="#f"/>
<use x="288.634766" xlink:href="#i"/>
<use x="352.013672" xlink:href="#e"/>
<use x="413.292969" xlink:href="#k"/>
</g>
</g>
<path d="m352.82 743.12v35.285q0 2.4 2.4 2.4h7.7425q2.4 0 2.4-2.4v-35.285q0-2.4-2.4-2.4h-7.7425q-2.4 0-2.4 2.4z" clip-path="url(#a)" fill="#fff" stroke="#fff"/>
<g clip-path="url(#a)">
<g transform="translate(356.88 743.12) rotate(90) scale(.08 -.08)">
<use xlink:href="#l"/>
<use x="60.818359" xlink:href="#g"/>
<use x="122.341797" xlink:href="#h"/>
<use x="163.439453" xlink:href="#j"/>
<use x="260.851562" xlink:href="#f"/>
<use x="288.634766" xlink:href="#i"/>
<use x="352.013672" xlink:href="#e"/>
<use x="413.292969" xlink:href="#k"/>
</g>
</g>
<path d="m400.35 743.12v35.285q0 2.4 2.4 2.4h7.7425q2.4 0 2.4-2.4v-35.285q0-2.4-2.4-2.4h-7.7425q-2.4 0-2.4 2.4z" clip-path="url(#a)" fill="#fff" stroke="#fff"/>
<g clip-path="url(#a)">
<g transform="translate(404.41 743.12) rotate(90) scale(.08 -.08)">
<use xlink:href="#l"/>
<use x="60.818359" xlink:href="#g"/>
<use x="122.341797" xlink:href="#h"/>
<use x="163.439453" xlink:href="#j"/>
<use x="260.851562" xlink:href="#f"/>
<use x="288.634766" xlink:href="#i"/>
<use x="352.013672" xlink:href="#e"/>
<use x="413.292969" xlink:href="#k"/>
</g>
</g>
<path d="m510.2 605.98 2.1961-4.553q1.0427-2.1617-1.119-3.2043l-6.9737-3.3636q-2.1617-1.0427-3.2043 1.119l-2.1961 4.553q-1.0427 2.1617 1.119 3.2043l6.9737 3.3636q2.1617 1.0427 3.2043-1.119z" clip-path="url(#a)" fill="#fff" stroke="#fff"/>
<g clip-path="url(#a)">
<g transform="translate(506.54 604.22) rotate(-64.25) scale(.08 -.08)">
<use xlink:href="#ae"/>
</g>
</g>
<path d="m558.5 546.38 0.7371 5.001q0.34996 2.3743 2.7243 2.0244l7.6597-1.129q2.3743-0.34996 2.0244-2.7243l-0.73711-5.001q-0.34996-2.3743-2.7243-2.0244l-7.6597 1.129q-2.3743 0.34996-2.0244 2.7243z" clip-path="url(#a)" fill="#fff" stroke="#fff"/>
<g clip-path="url(#a)">
<g transform="translate(562.52 545.79) rotate(81.615) scale(.08 -.08)">
<use xlink:href="#ae"/>
</g>
</g>
<path d="m593.86 600.76 2.1109 5.1721q0.90689 2.2221 3.1289 1.3152l7.1685-2.9257q2.2221-0.90689 1.3152-3.1289l-2.1109-5.1721q-0.90689-2.2221-3.1289-1.3152l-7.1685 2.9257q-2.2221 0.90689-1.3152 3.1289z" clip-path="url(#a)" fill="#fff" stroke="#fff"/>
<g clip-path="url(#a)">
<g transform="translate(597.62 599.23) rotate(67.798) scale(.08 -.08)">
<use xlink:href="#aj"/>
</g>
</g>
<path d="m447.89 743.12v35.285q0 2.4 2.4 2.4h7.7425q2.4 0 2.4-2.4v-35.285q0-2.4-2.4-2.4h-7.7425q-2.4 0-2.4 2.4z" clip-path="url(#a)" fill="#fff" stroke="#fff"/>
<g clip-path="url(#a)">
<g transform="translate(451.95 743.12) rotate(90) scale(.08 -.08)">
<use xlink:href="#l"/>
<use x="60.818359" xlink:href="#g"/>
<use x="122.341797" xlink:href="#h"/>
<use x="163.439453" xlink:href="#j"/>
<use x="260.851562" xlink:href="#f"/>
<use x="288.634766" xlink:href="#i"/>
<use x="352.013672" xlink:href="#e"/>
<use x="413.292969" xlink:href="#k"/>
</g>
</g>
<path d="m601.91 655.96 3.0539 4.5411q1.3393 1.9915 3.3309 0.65225l6.4248-4.3206q1.9915-1.3393 0.65225-3.3309l-3.0539-4.5411q-1.3393-1.9915-3.3309-0.65225l-6.4248 4.3206q-1.9915 1.3393-0.65225 3.3309z" clip-path="url(#a)" fill="#fff" stroke="#fff"/>
<g clip-path="url(#a)">
<g transform="translate(605.29 653.69) rotate(56.079) scale(.08 -.08)">
<use xlink:href="#m"/>
</g>
</g>
<path d="m541.02 660.5 3.0539-4.5411q1.3393-1.9915-0.65225-3.3309l-6.4248-4.3206q-1.9915-1.3393-3.3309 0.65225l-3.0539 4.5411q-1.3393 1.9915 0.65225 3.3309l6.4248 4.3206q1.9915 1.3393 3.3309-0.65225z" clip-path="url(#a)" fill="#fff" stroke="#fff"/>
<g clip-path="url(#a)">
<g transform="translate(537.65 658.23) rotate(-56.079) scale(.08 -.08)">
<use xlink:href="#m"/>
</g>
</g>
<path d="m578.23 653.75 1.0551 4.7069q0.52497 2.3419 2.8668 1.8169l7.555-1.6936q2.3419-0.52497 1.8169-2.8668l-1.0551-4.7069q-0.52497-2.3419-2.8668-1.8169l-7.555 1.6936q-2.3419 0.52497-1.8169 2.8668z" clip-path="url(#a)" fill="#fff" stroke="#fff"/>
<g clip-path="url(#a)">
<g transform="translate(582.2 652.86) rotate(77.365) scale(.08 -.08)">
<use xlink:href="#ac"/>
</g>
</g>
<path d="m566.59 658.96 1.2807-5.7132q0.52497-2.3419-1.8169-2.8668l-7.555-1.6936q-2.3419-0.52497-2.8668 1.8169l-1.2807 5.7132q-0.52497 2.3419 1.8169 2.8668l7.555 1.6936q2.3419 0.52497 2.8668-1.8169z" clip-path="url(#a)" fill="#fff" stroke="#fff"/>
<g clip-path="url(#a)">
<g transform="translate(562.62 658.07) rotate(-77.365) scale(.08 -.08)">
<use xlink:href="#u"/>
</g>
</g>
<path d="m638.02 743.12v35.285q0 2.4 2.4 2.4h7.7425q2.4 0 2.4-2.4v-35.285q0-2.4-2.4-2.4h-7.7425q-2.4 0-2.4 2.4z" clip-path="url(#a)" fill="#fff" stroke="#fff"/>
<g clip-path="url(#a)">
<g transform="translate(642.09 743.12) rotate(90) scale(.08 -.08)">
<use xlink:href="#l"/>
<use x="60.818359" xlink:href="#g"/>
<use x="122.341797" xlink:href="#h"/>
<use x="163.439453" xlink:href="#j"/>
<use x="260.851562" xlink:href="#f"/>
<use x="288.634766" xlink:href="#i"/>
<use x="352.013672" xlink:href="#e"/>
<use x="413.292969" xlink:href="#k"/>
</g>
</g>
<path d="m495.42 743.12v35.285q0 2.4 2.4 2.4h7.7425q2.4 0 2.4-2.4v-35.285q0-2.4-2.4-2.4h-7.7425q-2.4 0-2.4 2.4z" clip-path="url(#a)" fill="#fff" stroke="#fff"/>
<g clip-path="url(#a)">
<g transform="translate(499.48 743.12) rotate(90) scale(.08 -.08)">
<use xlink:href="#l"/>
<use x="60.818359" xlink:href="#g"/>
<use x="122.341797" xlink:href="#h"/>
<use x="163.439453" xlink:href="#j"/>
<use x="260.851562" xlink:href="#f"/>
<use x="288.634766" xlink:href="#i"/>
<use x="352.013672" xlink:href="#e"/>
<use x="413.292969" xlink:href="#k"/>
</g>
</g>
<path d="m590.49 743.12v35.285q0 2.4 2.4 2.4h7.7425q2.4 0 2.4-2.4v-35.285q0-2.4-2.4-2.4h-7.7425q-2.4 0-2.4 2.4z" clip-path="url(#a)" fill="#fff" stroke="#fff"/>
<g clip-path="url(#a)">
<g transform="translate(594.55 743.12) rotate(90) scale(.08 -.08)">
<use xlink:href="#l"/>
<use x="60.818359" xlink:href="#g"/>
<use x="122.341797" xlink:href="#h"/>
<use x="163.439453" xlink:href="#j"/>
<use x="260.851562" xlink:href="#f"/>
<use x="288.634766" xlink:href="#i"/>
<use x="352.013672" xlink:href="#e"/>
<use x="413.292969" xlink:href="#k"/>
</g>
</g>
<path d="m210.21 743.12v35.285q0 2.4 2.4 2.4h7.7425q2.4 0 2.4-2.4v-35.285q0-2.4-2.4-2.4h-7.7425q-2.4 0-2.4 2.4z" clip-path="url(#a)" fill="#fff" stroke="#fff"/>
<g clip-path="url(#a)">
<g transform="translate(214.28 743.12) rotate(90) scale(.08 -.08)">
<use xlink:href="#l"/>
<use x="60.818359" xlink:href="#g"/>
<use x="122.341797" xlink:href="#h"/>
<use x="163.439453" xlink:href="#j"/>
<use x="260.851562" xlink:href="#f"/>
<use x="288.634766" xlink:href="#i"/>
<use x="352.013672" xlink:href="#e"/>
<use x="413.292969" xlink:href="#k"/>
</g>
</g>
<path d="m551.07 105.72 9.745-1.921q2.3547-0.46417 1.8905-2.8189l-1.4974-7.5963q-0.46417-2.3547-2.8189-1.8905l-9.745 1.921q-2.3547 0.46417-1.8905 2.8189l1.4974 7.5963q0.46417 2.3547 2.8189 1.8905z" clip-path="url(#a)" fill="#fff" stroke="#fff"/>
<g clip-path="url(#a)">
<g transform="translate(550.28 101.74) rotate(-11.152) scale(.08 -.08)">
<use xlink:href="#s"/>
<use x="55.744141" xlink:href="#m"/>
</g>
</g>
<path d="m979.28 371.31 3.6971 9.3089q0.88587 2.2305 3.1164 1.3447l7.1958-2.8579q2.2305-0.88587 1.3447-3.1164l-3.6971-9.3089q-0.88587-2.2305-3.1164-1.3447l-7.1958 2.8579q-2.2305 0.88587-1.3447 3.1164z" clip-path="url(#a)" fill="#fff" stroke="#fff"/>
<g clip-path="url(#a)">
<defs>
<path id="an" d="m44.391 34.188q3.1719-1.0781 6.1719-4.5938t6.0312-9.6719l10.016-19.922h-10.609l-9.3125 18.703q-3.625 7.3281-7.0156 9.7188t-9.25 2.3906h-10.75v-30.812h-9.8594v72.906h22.266q12.5 0 18.656-5.2344 6.1562-5.2188 6.1562-15.766 0-6.8906-3.2031-11.438-3.2031-4.5312-9.2969-6.2812zm-24.719 30.609v-25.875h12.406q7.125 0 10.766 3.2969t3.6406 9.6875-3.6406 9.6406-10.766 3.25z"/>
</defs>
<g transform="translate(983.05 369.81) rotate(68.339) scale(.08 -.08)">
<use xlink:href="#s"/>
<use x="55.712891" xlink:href="#an"/>
</g>
</g>
<path d="m1013.2 212.89 6.9046 7.1401q1.6684 1.7253 3.3936 0.056884l5.5658-5.3823q1.7253-1.6684 0.056883-3.3936l-6.9046-7.1401q-1.6684-1.7253-3.3936-0.056883l-5.5658 5.3823q-1.7253 1.6684-0.056884 3.3936z" clip-path="url(#a)" fill="#fff" stroke="#fff"/>
<g clip-path="url(#a)">
<g transform="translate(1016.1 210.07) rotate(45.96) scale(.08 -.08)">
<use xlink:href="#s"/>
<use x="55.744141" xlink:href="#m"/>
</g>
</g>
<path d="m544.34 336.29 9.2026-3.7371q2.2236-0.90301 1.3206-3.1266l-2.9131-7.1736q-0.90301-2.2236-3.1266-1.3206l-9.2026 3.7371q-2.2236 0.90301-1.3206 3.1266l2.9131 7.1736q0.90301 2.2236 3.1266 1.3206z" clip-path="url(#a)" fill="#fff" stroke="#fff"/>
<g clip-path="url(#a)">
<g transform="translate(542.81 332.53) rotate(-22.102) scale(.08 -.08)">
<use xlink:href="#s"/>
<use x="55.744141" xlink:href="#m"/>
</g>
</g>
<path d="m705.12 485.98 1.2514 9.9378q0.29984 2.3812 2.681 2.0814l7.6818-0.96731q2.3812-0.29984 2.0814-2.681l-1.2514-9.9378q-0.29984-2.3812-2.681-2.0814l-7.6818 0.96731q-2.3812 0.29984-2.0814 2.681z" clip-path="url(#a)" fill="#fff" stroke="#fff"/>
<g clip-path="url(#a)">
<g transform="translate(709.15 485.47) rotate(82.823) scale(.08 -.08)">
<use xlink:href="#s"/>
<use x="55.712891" xlink:href="#an"/>
</g>
</g>
<path d="m787.18 436.52 5.5397 8.2442q1.3386 1.992 3.3306 0.65348l6.4264-4.3183q1.992-1.3386 0.65348-3.3306l-5.5397-8.2442q-1.3386-1.992-3.3306-0.65348l-6.4264 4.3183q-1.992 1.3386-0.65348 3.3306z" clip-path="url(#a)" fill="#fff" stroke="#fff"/>
<g clip-path="url(#a)">
<g transform="translate(790.55 434.26) rotate(56.101) scale(.08 -.08)">
<use xlink:href="#s"/>
<use x="55.744141" xlink:href="#m"/>
</g>
</g>
<path d="m257.75 743.12v35.285q0 2.4 2.4 2.4h7.7425q2.4 0 2.4-2.4v-35.285q0-2.4-2.4-2.4h-7.7425q-2.4 0-2.4 2.4z" clip-path="url(#a)" fill="#fff" stroke="#fff"/>
<g clip-path="url(#a)">
<g transform="translate(261.81 743.12) rotate(90) scale(.08 -.08)">
<use xlink:href="#l"/>
<use x="60.818359" xlink:href="#g"/>
<use x="122.341797" xlink:href="#h"/>
<use x="163.439453" xlink:href="#j"/>
<use x="260.851562" xlink:href="#f"/>
<use x="288.634766" xlink:href="#i"/>
<use x="352.013672" xlink:href="#e"/>
<use x="413.292969" xlink:href="#k"/>
</g>
</g>
<path d="m542.95 743.12v35.285q0 2.4 2.4 2.4h7.7425q2.4 0 2.4-2.4v-35.285q0-2.4-2.4-2.4h-7.7425q-2.4 0-2.4 2.4z" clip-path="url(#a)" fill="#fff" stroke="#fff"/>
<g clip-path="url(#a)">
<g transform="translate(547.02 743.12) rotate(90) scale(.08 -.08)">
<use xlink:href="#l"/>
<use x="60.818359" xlink:href="#g"/>
<use x="122.341797" xlink:href="#h"/>
<use x="163.439453" xlink:href="#j"/>
<use x="260.851562" xlink:href="#f"/>
<use x="288.634766" xlink:href="#i"/>
<use x="352.013672" xlink:href="#e"/>
<use x="413.292969" xlink:href="#k"/>
</g>
</g>
<path d="m685.56 743.12v35.285q0 2.4 2.4 2.4h7.7425q2.4 0 2.4-2.4v-35.285q0-2.4-2.4-2.4h-7.7425q-2.4 0-2.4 2.4z" clip-path="url(#a)" fill="#fff" stroke="#fff"/>
<g clip-path="url(#a)">
<g transform="translate(689.62 743.12) rotate(90) scale(.08 -.08)">
<use xlink:href="#l"/>
<use x="60.818359" xlink:href="#g"/>
<use x="122.341797" xlink:href="#h"/>
<use x="163.439453" xlink:href="#j"/>
<use x="260.851562" xlink:href="#f"/>
<use x="288.634766" xlink:href="#i"/>
<use x="352.013672" xlink:href="#e"/>
<use x="413.292969" xlink:href="#k"/>
</g>
</g>
<path d="m1065.8 743.12v35.285q0 2.4 2.4 2.4h7.7425q2.4 0 2.4-2.4v-35.285q0-2.4-2.4-2.4h-7.7425q-2.4 0-2.4 2.4z" clip-path="url(#a)" fill="#fff" stroke="#fff"/>
<g clip-path="url(#a)">
<g transform="translate(1069.9 743.12) rotate(90) scale(.08 -.08)">
<use xlink:href="#l"/>
<use x="60.818359" xlink:href="#g"/>
<use x="122.341797" xlink:href="#h"/>
<use x="163.439453" xlink:href="#j"/>
<use x="260.851562" xlink:href="#f"/>
<use x="288.634766" xlink:href="#i"/>
<use x="352.013672" xlink:href="#e"/>
<use x="413.292969" xlink:href="#k"/>
</g>
</g>
<path d="m1541.2 743.12v35.285q0 2.4 2.4 2.4h7.7425q2.4 0 2.4-2.4v-35.285q0-2.4-2.4-2.4h-7.7425q-2.4 0-2.4 2.4z" clip-path="url(#a)" fill="#fff" stroke="#fff"/>
<g clip-path="url(#a)">
<g transform="translate(1545.2 743.12) rotate(90) scale(.08 -.08)">
<use xlink:href="#l"/>
<use x="60.818359" xlink:href="#g"/>
<use x="122.341797" xlink:href="#h"/>
<use x="163.439453" xlink:href="#j"/>
<use x="260.851562" xlink:href="#f"/>
<use x="288.634766" xlink:href="#i"/>
<use x="352.013672" xlink:href="#e"/>
<use x="413.292969" xlink:href="#k"/>
</g>
</g>
<defs>
<path id="b" d="m0 8.6603c2.2967 0 4.4997-0.9125 6.1237-2.5365 1.624-1.624 2.5365-3.827 2.5365-6.1237s-0.9125-4.4997-2.5365-6.1237c-1.624-1.624-3.827-2.5365-6.1237-2.5365s-4.4997 0.9125-6.1237 2.5365c-1.624 1.624-2.5365 3.827-2.5365 6.1237s0.9125 4.4997 2.5365 6.1237c1.624 1.624 3.827 2.5365 6.1237 2.5365z"/>
</defs>
<g clip-path="url(#a)">
<use x="73.87978" y="813.770711" fill="#ffffff" stroke="#ffffff" xlink:href="#b"/>
</g>
<g clip-path="url(#a)">
<use x="121.414418" y="813.770711" fill="#ffffff" stroke="#ffffff" xlink:href="#b"/>
</g>
<g clip-path="url(#a)">
<use x="168.949056" y="813.770711" fill="#ffffff" stroke="#ffffff" xlink:href="#b"/>
</g>
<g clip-path="url(#a)">
<use x="216.483694" y="813.770711" fill="#ffffff" stroke="#ffffff" xlink:href="#b"/>
</g>
<g clip-path="url(#a)">
<use x="264.018332" y="813.770711" fill="#ffffff" stroke="#ffffff" xlink:href="#b"/>
</g>
<g clip-path="url(#a)">
<use x="311.552969" y="813.770711" fill="#ffffff" stroke="#ffffff" xlink:href="#b"/>
</g>
<g clip-path="url(#a)">
<use x="359.087607" y="813.770711" fill="#ffffff" stroke="#ffffff" xlink:href="#b"/>
</g>
<g clip-path="url(#a)">
<use x="406.622245" y="813.770711" fill="#ffffff" stroke="#ffffff" xlink:href="#b"/>
</g>
<g clip-path="url(#a)">
<use x="454.156883" y="813.770711" fill="#ffffff" stroke="#ffffff" xlink:href="#b"/>
</g>
<g clip-path="url(#a)">
<use x="501.691521" y="813.770711" fill="#ffffff" stroke="#ffffff" xlink:href="#b"/>
</g>
<g clip-path="url(#a)">
<use x="549.226159" y="813.770711" fill="#ffffff" stroke="#ffffff" xlink:href="#b"/>
</g>
<g clip-path="url(#a)">
<use x="596.760796" y="813.770711" fill="#ffffff" stroke="#ffffff" xlink:href="#b"/>
</g>
<g clip-path="url(#a)">
<use x="644.295434" y="813.770711" fill="#ffffff" stroke="#ffffff" xlink:href="#b"/>
</g>
<g clip-path="url(#a)">
<use x="691.830072" y="813.770711" fill="#ffffff" stroke="#ffffff" xlink:href="#b"/>
</g>
<g clip-path="url(#a)">
<use x="739.36471" y="813.770711" fill="#ffffff" stroke="#ffffff" xlink:href="#b"/>
</g>
<g clip-path="url(#a)">
<use x="786.899348" y="813.770711" fill="#ffffff" stroke="#ffffff" xlink:href="#b"/>
</g>
<g clip-path="url(#a)">
<use x="834.433986" y="813.770711" fill="#ffffff" stroke="#ffffff" xlink:href="#b"/>
</g>
<g clip-path="url(#a)">
<use x="881.968623" y="813.770711" fill="#ffffff" stroke="#ffffff" xlink:href="#b"/>
</g>
<g clip-path="url(#a)">
<use x="929.503261" y="813.770711" fill="#ffffff" stroke="#ffffff" xlink:href="#b"/>
</g>
<g clip-path="url(#a)">
<use x="977.037899" y="813.770711" fill="#ffffff" stroke="#ffffff" xlink:href="#b"/>
</g>
<g clip-path="url(#a)">
<use x="1024.572537" y="813.770711" fill="#ffffff" stroke="#ffffff" xlink:href="#b"/>
</g>
<g clip-path="url(#a)">
<use x="1072.107175" y="813.770711" fill="#ffffff" stroke="#ffffff" xlink:href="#b"/>
</g>
<g clip-path="url(#a)">
<use x="1119.641813" y="813.770711" fill="#ffffff" stroke="#ffffff" xlink:href="#b"/>
</g>
<g clip-path="url(#a)">
<use x="1167.17645" y="813.770711" fill="#ffffff" stroke="#ffffff" xlink:href="#b"/>
</g>
<g clip-path="url(#a)">
<use x="1214.711088" y="813.770711" fill="#ffffff" stroke="#ffffff" xlink:href="#b"/>
</g>
<g clip-path="url(#a)">
<use x="1262.245726" y="813.770711" fill="#ffffff" stroke="#ffffff" xlink:href="#b"/>
</g>
<g clip-path="url(#a)">
<use x="1309.780364" y="813.770711" fill="#ffffff" stroke="#ffffff" xlink:href="#b"/>
</g>
<g clip-path="url(#a)">
<use x="1357.315002" y="813.770711" fill="#ffffff" stroke="#ffffff" xlink:href="#b"/>
</g>
<g clip-path="url(#a)">
<use x="1404.84964" y="813.770711" fill="#ffffff" stroke="#ffffff" xlink:href="#b"/>
</g>
<g clip-path="url(#a)">
<use x="1452.384278" y="813.770711" fill="#ffffff" stroke="#ffffff" xlink:href="#b"/>
</g>
<g clip-path="url(#a)">
<use x="1499.918915" y="813.770711" fill="#ffffff" stroke="#ffffff" xlink:href="#b"/>
</g>
<g clip-path="url(#a)">
<use x="1547.453553" y="813.770711" fill="#ffffff" stroke="#ffffff" xlink:href="#b"/>
</g>
<g clip-path="url(#a)">
<use x="908.727489" y="39.562622" fill="#ffffff" stroke="#ffffff" xlink:href="#b"/>
</g>
<g clip-path="url(#a)">
<use x="255.188112" y="157.657203" fill="#ffffff" stroke="#ffffff" xlink:href="#b"/>
</g>
<g clip-path="url(#a)">
<use x="1119.641813" y="707.744408" fill="#ffffff" stroke="#ffffff" xlink:href="#b"/>
</g>
<g clip-path="url(#a)">
<use x="1187.972855" y="384.645596" fill="#ffffff" stroke="#ffffff" xlink:href="#b"/>
</g>
<g clip-path="url(#a)">
<use x="1167.17645" y="707.744408" fill="#ffffff" stroke="#ffffff" xlink:href="#b"/>
</g>
<g clip-path="url(#a)">
<use x="1214.711088" y="707.744408" fill="#ffffff" stroke="#ffffff" xlink:href="#b"/>
</g>
<g clip-path="url(#a)">
<use x="1286.013045" y="601.718105" fill="#ffffff" stroke="#ffffff" xlink:href="#b"/>
</g>
<g clip-path="url(#a)">
<use x="1083.990834" y="494.216859" fill="#ffffff" stroke="#ffffff" xlink:href="#b"/>
</g>
<g clip-path="url(#a)">
<use x="1357.315002" y="707.744408" fill="#ffffff" stroke="#ffffff" xlink:href="#b"/>
</g>
<g clip-path="url(#a)">
<use x="1404.84964" y="707.744408" fill="#ffffff" stroke="#ffffff" xlink:href="#b"/>
</g>
<g clip-path="url(#a)">
<use x="1499.918915" y="601.718105" fill="#ffffff" stroke="#ffffff" xlink:href="#b"/>
</g>
<g clip-path="url(#a)">
<use x="1452.384278" y="707.744408" fill="#ffffff" stroke="#ffffff" xlink:href="#b"/>
</g>
<g clip-path="url(#a)">
<use x="1499.918915" y="707.744408" fill="#ffffff" stroke="#ffffff" xlink:href="#b"/>
</g>
<g clip-path="url(#a)">
<use x="1262.245726" y="707.744408" fill="#ffffff" stroke="#ffffff" xlink:href="#b"/>
</g>
<g clip-path="url(#a)">
<use x="1309.780364" y="707.744408" fill="#ffffff" stroke="#ffffff" xlink:href="#b"/>
</g>
<g clip-path="url(#a)">
<use x="73.87978" y="707.744408" fill="#ffffff" stroke="#ffffff" xlink:href="#b"/>
</g>
<g clip-path="url(#a)">
<use x="121.414418" y="707.744408" fill="#ffffff" stroke="#ffffff" xlink:href="#b"/>
</g>
<g clip-path="url(#a)">
<use x="168.949056" y="707.744408" fill="#ffffff" stroke="#ffffff" xlink:href="#b"/>
</g>
<g clip-path="url(#a)">
<use x="686.383395" y="272.577727" fill="#ffffff" stroke="#ffffff" xlink:href="#b"/>
</g>
<g clip-path="url(#a)">
<use x="408.602855" y="384.645596" fill="#ffffff" stroke="#ffffff" xlink:href="#b"/>
</g>
<g clip-path="url(#a)">
<use x="739.36471" y="707.744408" fill="#ffffff" stroke="#ffffff" xlink:href="#b"/>
</g>
<g clip-path="url(#a)">
<use x="905.735942" y="601.718105" fill="#ffffff" stroke="#ffffff" xlink:href="#b"/>
</g>
<g clip-path="url(#a)">
<use x="786.899348" y="707.744408" fill="#ffffff" stroke="#ffffff" xlink:href="#b"/>
</g>
<g clip-path="url(#a)">
<use x="834.433986" y="707.744408" fill="#ffffff" stroke="#ffffff" xlink:href="#b"/>
</g>
<g clip-path="url(#a)">
<use x="881.968623" y="707.744408" fill="#ffffff" stroke="#ffffff" xlink:href="#b"/>
</g>
<g clip-path="url(#a)">
<use x="929.503261" y="707.744408" fill="#ffffff" stroke="#ffffff" xlink:href="#b"/>
</g>
<g clip-path="url(#a)">
<use x="977.037899" y="707.744408" fill="#ffffff" stroke="#ffffff" xlink:href="#b"/>
</g>
<g clip-path="url(#a)">
<use x="1024.572537" y="707.744408" fill="#ffffff" stroke="#ffffff" xlink:href="#b"/>
</g>
<g clip-path="url(#a)">
<use x="311.552969" y="707.744408" fill="#ffffff" stroke="#ffffff" xlink:href="#b"/>
</g>
<g clip-path="url(#a)">
<use x="359.087607" y="707.744408" fill="#ffffff" stroke="#ffffff" xlink:href="#b"/>
</g>
<g clip-path="url(#a)">
<use x="406.622245" y="707.744408" fill="#ffffff" stroke="#ffffff" xlink:href="#b"/>
</g>
<g clip-path="url(#a)">
<use x="557.148598" y="494.216859" fill="#ffffff" stroke="#ffffff" xlink:href="#b"/>
</g>
<g clip-path="url(#a)">
<use x="454.156883" y="707.744408" fill="#ffffff" stroke="#ffffff" xlink:href="#b"/>
</g>
<g clip-path="url(#a)">
<use x="572.993477" y="601.718105" fill="#ffffff" stroke="#ffffff" xlink:href="#b"/>
</g>
<g clip-path="url(#a)">
<use x="644.295434" y="707.744408" fill="#ffffff" stroke="#ffffff" xlink:href="#b"/>
</g>
<g clip-path="url(#a)">
<use x="501.691521" y="707.744408" fill="#ffffff" stroke="#ffffff" xlink:href="#b"/>
</g>
<g clip-path="url(#a)">
<use x="596.760796" y="707.744408" fill="#ffffff" stroke="#ffffff" xlink:href="#b"/>
</g>
<g clip-path="url(#a)">
<use x="216.483694" y="707.744408" fill="#ffffff" stroke="#ffffff" xlink:href="#b"/>
</g>
<g clip-path="url(#a)">
<use x="854.267593" y="39.562622" fill="#808080" stroke="#808080" xlink:href="#b"/>
</g>
<g clip-path="url(#a)">
<use x="684.567836" y="272.577727" fill="#808080" stroke="#808080" xlink:href="#b"/>
</g>
<g clip-path="url(#a)">
<use x="264.018332" y="707.744408" fill="#ffffff" stroke="#ffffff" xlink:href="#b"/>
</g>
<g clip-path="url(#a)">
<use x="549.226159" y="707.744408" fill="#ffffff" stroke="#ffffff" xlink:href="#b"/>
</g>
<g clip-path="url(#a)">
<use x="691.830072" y="707.744408" fill="#ffffff" stroke="#ffffff" xlink:href="#b"/>
</g>
<g clip-path="url(#a)">
<use x="1072.107175" y="707.744408" fill="#ffffff" stroke="#ffffff" xlink:href="#b"/>
</g>
<g clip-path="url(#a)">
<use x="1547.453553" y="707.744408" fill="#ffffff" stroke="#ffffff" xlink:href="#b"/>
</g>
<g clip-path="url(#a)">
<g transform="translate(67.043 816.53) scale(.1 -.1)">
<use xlink:href="#v"/>
<use x="75.195312" xlink:href="#g"/>
</g>
</g>
<g clip-path="url(#a)">
<defs>
<path id="al" d="m54.891 33.016v-33.016h-8.9844v32.719q0 7.7656-3.0312 11.609-3.0312 3.8594-9.0781 3.8594-7.2812 0-11.484-4.6406-4.2031-4.625-4.2031-12.641v-30.906h-9.0312v75.984h9.0312v-29.797q3.2344 4.9375 7.5938 7.375 4.375 2.4375 10.094 2.4375 9.4219 0 14.25-5.8281 4.8438-5.8281 4.8438-17.156z"/>
<path id="t" d="m44.281 53.078v-8.5q-3.7969 1.9531-7.9062 2.9219-4.0938 0.98438-8.5 0.98438-6.6875 0-10.031-2.0469t-3.3438-6.1562q0-3.125 2.3906-4.9062t9.625-3.3906l3.0781-0.6875q9.5625-2.0469 13.594-5.7812t4.0312-10.422q0-7.625-6.0312-12.078-6.0312-4.4375-16.578-4.4375-4.3906 0-9.1562 0.85938t-10.031 2.5625v9.2812q4.9844-2.5938 9.8125-3.8906 4.8281-1.2812 9.5781-1.2812 6.3438 0 9.75 2.1719 3.4219 2.1719 3.4219 6.125 0 3.6562-2.4688 5.6094-2.4531 1.9531-10.812 3.7656l-3.125 0.73438q-8.3438 1.75-12.062 5.3906-3.7031 3.6406-3.7031 9.9844 0 7.7188 5.4688 11.906 5.4688 4.2031 15.531 4.2031 4.9688 0 9.3594-0.73438 4.4062-0.71875 8.1094-2.1875z"/>
</defs>
<g transform="translate(112.58 816.53) scale(.1 -.1)">
<use xlink:href="#al"/>
<use x="63.378906" xlink:href="#e"/>
<use x="124.658203" xlink:href="#t"/>
</g>
</g>
<g clip-path="url(#a)">
<defs>
<path id="r" d="m45.406 46.391v29.594h8.9844v-75.984h-8.9844v8.2031q-2.8281-4.875-7.1562-7.25-4.3125-2.375-10.375-2.375-9.9062 0-16.141 7.9062-6.2188 7.9219-6.2188 20.812t6.2188 20.797q6.2344 7.9062 16.141 7.9062 6.0625 0 10.375-2.375 4.3281-2.3594 7.1562-7.2344zm-30.609-19.094q0-9.9062 4.0781-15.547t11.203-5.6406 11.219 5.6406q4.1094 5.6406 4.1094 15.547t-4.1094 15.547q-4.0938 5.6406-11.219 5.6406t-11.203-5.6406-4.0781-15.547z"/>
</defs>
<g transform="translate(158.72 816.53) scale(.1 -.1)">
<use xlink:href="#t"/>
<use x="52.099609" xlink:href="#e"/>
<use x="113.378906" xlink:href="#f"/>
<use x="141.162109" xlink:href="#r"/>
</g>
</g>
<g clip-path="url(#a)">
<defs>
<path id="ap" d="m11.719 12.406h10.297v-8.4062l-8-15.625h-6.2969l4 15.625z"/>
</defs>
<g transform="translate(214.89 816.53) scale(.1 -.1)">
<use xlink:href="#ap"/>
</g>
</g>
<g clip-path="url(#a)">
<defs>
<path id="aq" d="m17.922 72.906v-27.109h-8.2969v27.109zm18.453 0v-27.109h-8.2969v27.109z"/>
</defs>
<g transform="translate(261.72 816.53) scale(.1 -.1)">
<use xlink:href="#aq"/>
</g>
</g>
<g clip-path="url(#a)">
<defs>
<path id="ao" d="m9.8125 72.906h9.8594v-72.906h-9.8594z"/>
</defs>
<g transform="translate(310.08 816.53) scale(.1 -.1)">
<use xlink:href="#ao"/>
</g>
</g>
<g clip-path="url(#a)">
<g transform="translate(351.15 816.53) scale(.1 -.1)">
<use xlink:href="#e"/>
<use x="61.279297" xlink:href="#j"/>
</g>
</g>
<g clip-path="url(#a)">
<defs>
<path id="aa" d="m30.609 48.391q-7.2188 0-11.422-5.6406t-4.2031-15.453 4.1719-15.453q4.1875-5.6406 11.453-5.6406 7.1875 0 11.375 5.6562 4.2031 5.6719 4.2031 15.438 0 9.7188-4.2031 15.406-4.1875 5.6875-11.375 5.6875zm0 7.6094q11.719 0 18.406-7.625 6.7031-7.6094 6.7031-21.078 0-13.422-6.7031-21.078-6.6875-7.6406-18.406-7.6406-11.766 0-18.438 7.6406-6.6562 7.6562-6.6562 21.078 0 13.469 6.6562 21.078 6.6719 7.625 18.438 7.625z"/>
<path id="q" d="m18.312 70.219v-15.531h18.5v-6.9844h-18.5v-29.688q0-6.6875 1.8281-8.5938t7.4531-1.9062h9.2188v-7.5156h-9.2188q-10.406 0-14.359 3.875-3.9531 3.8906-3.9531 14.141v29.688h-6.5938v6.9844h6.5938v15.531z"/>
</defs>
<g transform="translate(398.43 816.53) scale(.1 -.1)">
<use xlink:href="#i"/>
<use x="63.378906" xlink:href="#aa"/>
<use x="124.560547" xlink:href="#q"/>
</g>
</g>
<g clip-path="url(#a)">
<g transform="translate(451.09 816.53) scale(.1 -.1)">
<use xlink:href="#e"/>
</g>
</g>
<g clip-path="url(#a)">
<defs>
<path id="ab" d="m48.781 52.594v-8.4062q-3.8125 2.1094-7.6406 3.1562t-7.7344 1.0469q-8.75 0-13.594-5.5469-4.8281-5.5312-4.8281-15.547t4.8281-15.562q4.8438-5.5312 13.594-5.5312 3.9062 0 7.7344 1.0469t7.6406 3.1562v-8.3125q-3.7656-1.75-7.7969-2.625-4.0156-0.89062-8.5625-0.89062-12.359 0-19.641 7.7656-7.2656 7.7656-7.2656 20.953 0 13.375 7.3438 21.031 7.3594 7.6719 20.156 7.6719 4.1406 0 8.0938-0.85938 3.9531-0.84375 7.6719-2.5469z"/>
</defs>
<g transform="translate(490.65 816.53) scale(.1 -.1)">
<use xlink:href="#ab"/>
<use x="54.980469" xlink:href="#e"/>
<use x="116.259766" xlink:href="#h"/>
<use x="157.357422" xlink:href="#r"/>
</g>
</g>
<g clip-path="url(#a)">
<defs>
<path id="au" d="m4.8906 31.391h26.312v-8h-26.312z"/>
</defs>
<g transform="translate(547.42 816.53) scale(.1 -.1)">
<use xlink:href="#au"/>
</g>
</g>
<g clip-path="url(#a)">
<defs>
<path id="ah" d="m32.172-5.0781q-3.7969-9.7656-7.4219-12.734-3.6094-2.9844-9.6562-2.9844h-7.1875v7.5156h5.2812q3.7031 0 5.75 1.7656 2.0625 1.75 4.5469 8.2969l1.6094 4.0938-22.109 53.812h9.5156l17.094-42.766 17.094 42.766h9.5156z"/>
<path id="ar" d="m45.406 27.984q0 9.7656-4.0312 15.125-4.0156 5.375-11.297 5.375-7.2188 0-11.25-5.375-4.0312-5.3594-4.0312-15.125 0-9.7188 4.0312-15.094t11.25-5.375q7.2812 0 11.297 5.375 4.0312 5.375 4.0312 15.094zm8.9844-21.203q0-13.953-6.2031-20.766-6.1875-6.8125-18.984-6.8125-4.7344 0-8.9375 0.70312t-8.1562 2.1719v8.7344q3.9531-2.1406 7.8125-3.1562 3.8594-1.0312 7.8594-1.0312 8.8438 0 13.234 4.6094t4.3906 13.938v4.4531q-2.7812-4.8438-7.125-7.2344t-10.406-2.3906q-10.047 0-16.203 7.6562-6.1562 7.6719-6.1562 20.328 0 12.688 6.1562 20.344 6.1562 7.6719 16.203 7.6719 6.0625 0 10.406-2.3906t7.125-7.2188v8.2969h8.9844z"/>
</defs>
<g transform="translate(576.15 816.53) scale(.1 -.1)">
<use xlink:href="#ab"/>
<use x="54.980469" xlink:href="#e"/>
<use x="116.259766" xlink:href="#h"/>
<use x="157.357422" xlink:href="#h"/>
<use x="198.470703" xlink:href="#ah"/>
<use x="257.650391" xlink:href="#f"/>
<use x="285.433594" xlink:href="#i"/>
<use x="348.8125" xlink:href="#ar"/>
</g>
</g>
<g clip-path="url(#a)">
<defs>
<path id="at" d="m19.672 34.812v-26.703h15.828q7.9531 0 11.781 3.2969 3.8438 3.2969 3.8438 10.078 0 6.8438-3.8438 10.078-3.8281 3.25-11.781 3.25zm0 29.984v-21.969h14.609q7.2188 0 10.75 2.7031 3.5469 2.7188 3.5469 8.2812 0 5.5156-3.5469 8.25-3.5312 2.7344-10.75 2.7344zm-9.8594 8.1094h25.203q11.281 0 17.375-4.6875 6.1094-4.6875 6.1094-13.328 0-6.7031-3.125-10.656t-9.1875-4.9219q7.2812-1.5625 11.312-6.5312 4.0312-4.9531 4.0312-12.375 0-9.7656-6.6406-15.094-6.6406-5.3125-18.906-5.3125h-26.172z"/>
<path id="ak" d="m8.5 21.578v33.109h8.9844v-32.766q0-7.7656 3.0156-11.656 3.0312-3.875 9.0938-3.875 7.2656 0 11.484 4.6406 4.2344 4.6406 4.2344 12.656v31h8.9844v-54.688h-8.9844v8.4062q-3.2656-4.9844-7.5938-7.4062-4.3125-2.4219-10.031-2.4219-9.4219 0-14.312 5.8594-4.875 5.8594-4.875 17.141z"/>
</defs>
<g transform="translate(622.23 816.53) scale(.1 -.1)">
<use xlink:href="#at"/>
<use x="68.603516" xlink:href="#ak"/>
<use x="131.982422" xlink:href="#r"/>
<use x="195.458984" xlink:href="#r"/>
<use x="258.935547" xlink:href="#al"/>
<use x="322.314453" xlink:href="#f"/>
<use x="350.097656" xlink:href="#t"/>
<use x="402.197266" xlink:href="#q"/>
</g>
</g>
<g clip-path="url(#a)">
<g transform="translate(690.24 816.53) scale(.1 -.1)">
<use xlink:href="#ap"/>
</g>
</g>
<g clip-path="url(#a)">
<defs>
<path id="as" d="m48.688 27.297q0 9.9062-4.0781 15.547t-11.203 5.6406q-7.1406 0-11.219-5.6406t-4.0781-15.547 4.0781-15.547 11.219-5.6406q7.125 0 11.203 5.6406t4.0781 15.547zm-30.578 19.094q2.8438 4.875 7.1562 7.2344 4.3281 2.375 10.328 2.375 9.9688 0 16.188-7.9062 6.2344-7.9062 6.2344-20.797t-6.2344-20.812q-6.2188-7.9062-16.188-7.9062-6 0-10.328 2.375-4.3125 2.375-7.1562 7.25v-8.2031h-9.0312v75.984h9.0312z"/>
</defs>
<g transform="translate(731.06 816.53) scale(.1 -.1)">
<use xlink:href="#as"/>
<use x="63.476562" xlink:href="#ak"/>
<use x="126.855469" xlink:href="#q"/>
</g>
</g>
<g clip-path="url(#a)">
<g transform="translate(785.42 816.53) scale(.1 -.1)">
<use xlink:href="#ao"/>
</g>
</g>
<g clip-path="url(#a)">
<g transform="translate(828.2 816.53) scale(.1 -.1)">
<use xlink:href="#r"/>
<use x="63.476562" xlink:href="#aa"/>
</g>
</g>
<g clip-path="url(#a)">
<g transform="translate(874.99 816.53) scale(.1 -.1)">
<use xlink:href="#q"/>
<use x="39.208984" xlink:href="#h"/>
<use x="80.322266" xlink:href="#ah"/>
</g>
</g>
<g clip-path="url(#a)">
<g transform="translate(924.48 816.53) scale(.1 -.1)">
<use xlink:href="#q"/>
<use x="39.208984" xlink:href="#aa"/>
</g>
</g>
<g clip-path="url(#a)">
<defs>
<path id="aw" d="m18.109 8.2031v-29h-9.0312v75.484h9.0312v-8.2969q2.8438 4.875 7.1562 7.2344 4.3281 2.375 10.328 2.375 9.9688 0 16.188-7.9062 6.2344-7.9062 6.2344-20.797t-6.2344-20.812q-6.2188-7.9062-16.188-7.9062-6 0-10.328 2.375-4.3125 2.375-7.1562 7.25zm30.578 19.094q0 9.9062-4.0781 15.547t-11.203 5.6406q-7.1406 0-11.219-5.6406t-4.0781-15.547 4.0781-15.547 11.219-5.6406q7.125 0 11.203 5.6406t4.0781 15.547z"/>
</defs>
<g transform="translate(956.82 816.53) scale(.1 -.1)">
<use xlink:href="#aw"/>
<use x="63.476562" xlink:href="#h"/>
<use x="104.589844" xlink:href="#e"/>
<use x="165.869141" xlink:href="#ab"/>
<use x="220.849609" xlink:href="#q"/>
<use x="260.058594" xlink:href="#f"/>
<use x="287.841797" xlink:href="#ab"/>
<use x="342.822266" xlink:href="#g"/>
</g>
</g>
<g clip-path="url(#a)">
<defs>
<path id="ax" d="m37.109 75.984v-7.4844h-8.5938q-4.8281 0-6.7188-1.9531-1.875-1.9531-1.875-7.0312v-4.8281h14.797v-6.9844h-14.797v-47.703h-9.0312v47.703h-8.5938v6.9844h8.5938v3.8125q0 9.125 4.25 13.297 4.25 4.1875 13.469 4.1875z"/>
</defs>
<g transform="translate(994.2 816.53) scale(.1 -.1)">
<use xlink:href="#j"/>
<use x="97.412109" xlink:href="#f"/>
<use x="125.195312" xlink:href="#i"/>
<use x="188.574219" xlink:href="#r"/>
<use x="252.050781" xlink:href="#ax"/>
<use x="287.255859" xlink:href="#ak"/>
<use x="350.634766" xlink:href="#k"/>
<use x="378.417969" xlink:href="#i"/>
<use x="441.796875" xlink:href="#g"/>
<use x="503.320312" xlink:href="#t"/>
<use x="555.419922" xlink:href="#t"/>
</g>
</g>
<g clip-path="url(#a)">
<g transform="translate(1069.8 816.53) scale(.1 -.1)">
<use xlink:href="#aq"/>
</g>
</g>
<g clip-path="url(#a)">
<g transform="translate(1110.2 816.53) scale(.1 -.1)">
<use xlink:href="#e"/>
<use x="61.279297" xlink:href="#i"/>
<use x="124.658203" xlink:href="#r"/>
</g>
</g>
<g clip-path="url(#a)">
<g transform="translate(1163.8 816.53) scale(.1 -.1)">
<use xlink:href="#f"/>
<use x="27.783203" xlink:href="#q"/>
</g>
</g>
<g clip-path="url(#a)">
<g transform="translate(1210.7 816.53) scale(.1 -.1)">
<use xlink:href="#f"/>
<use x="27.783203" xlink:href="#t"/>
</g>
</g>
<g clip-path="url(#a)">
<g transform="translate(1255.1 816.53) scale(.1 -.1)">
<use xlink:href="#al"/>
<use x="63.378906" xlink:href="#f"/>
<use x="91.162109" xlink:href="#t"/>
</g>
</g>
<g clip-path="url(#a)">
<g transform="translate(1299.1 816.53) scale(.1 -.1)">
<use xlink:href="#ar"/>
<use x="63.476562" xlink:href="#aa"/>
<use x="124.658203" xlink:href="#e"/>
<use x="185.9375" xlink:href="#k"/>
</g>
</g>
<g clip-path="url(#a)">
<g transform="translate(1352.3 816.53) scale(.1 -.1)">
<use xlink:href="#q"/>
<use x="39.208984" xlink:href="#aa"/>
</g>
</g>
<g clip-path="url(#a)">
<g transform="translate(1382.3 816.53) scale(.1 -.1)">
<use xlink:href="#j"/>
<use x="97.412109" xlink:href="#g"/>
<use x="158.935547" xlink:href="#r"/>
<use x="222.412109" xlink:href="#f"/>
<use x="250.195312" xlink:href="#q"/>
<use x="289.404297" xlink:href="#e"/>
<use x="350.683594" xlink:href="#q"/>
<use x="389.892578" xlink:href="#g"/>
</g>
</g>
<g clip-path="url(#a)">
<defs>
<path id="av" d="m2.9844 54.688h9.5156l17.094-45.891 17.094 45.891h9.5156l-20.516-54.688h-12.203z"/>
</defs>
<g transform="translate(1438.3 816.53) scale(.1 -.1)">
<use xlink:href="#g"/>
<use x="61.523438" xlink:href="#av"/>
<use x="120.703125" xlink:href="#g"/>
<use x="182.226562" xlink:href="#h"/>
<use x="223.339844" xlink:href="#ah"/>
</g>
</g>
<g clip-path="url(#a)">
<g transform="translate(1490.7 816.53) scale(.1 -.1)">
<use xlink:href="#r"/>
<use x="63.476562" xlink:href="#e"/>
<use x="124.755859" xlink:href="#ah"/>
</g>
</g>
<g clip-path="url(#a)">
<defs>
<path id="d" d="m10.688 12.406h10.312v-12.406h-10.312z"/>
</defs>
<g transform="translate(1545.9 816.53) scale(.1 -.1)">
<use xlink:href="#d"/>
</g>
</g>
<g clip-path="url(#a)">
<defs>
<path id="c" d="m12.406 8.2969h16.109v55.625l-17.531-3.5156v8.9844l17.438 3.5156h9.8594v-64.609h16.109v-8.2969h-41.984z"/>
</defs>
<g transform="translate(900.78 42.322) scale(.1 -.1)">
<use xlink:href="#c"/>
<use x="63.623047" xlink:href="#d"/>
<use x="95.410156" xlink:href="#c"/>
</g>
</g>
<g clip-path="url(#a)">
<defs>
<path id="p" d="m19.188 8.2969h34.422v-8.2969h-46.281v8.2969q5.6094 5.8125 15.297 15.594 9.7031 9.7969 12.188 12.641 4.7344 5.3125 6.6094 9 1.8906 3.6875 1.8906 7.25 0 5.8125-4.0781 9.4688-4.0781 3.6719-10.625 3.6719-4.6406 0-9.7969-1.6094-5.1406-1.6094-11-4.8906v9.9688q5.9531 2.3906 11.125 3.6094 5.1875 1.2188 9.4844 1.2188 11.328 0 18.062-5.6719 6.7344-5.6562 6.7344-15.125 0-4.5-1.6875-8.5312-1.6719-4.0156-6.125-9.4844-1.2188-1.4219-7.7656-8.1875-6.5312-6.7656-18.453-18.922z"/>
</defs>
<g transform="translate(247.24 160.42) scale(.1 -.1)">
<use xlink:href="#c"/>
<use x="63.623047" xlink:href="#d"/>
<use x="95.410156" xlink:href="#p"/>
</g>
</g>
<g clip-path="url(#a)">
<defs>
<path id="o" d="m40.578 39.312q7.0781-1.5156 11.047-6.3125 3.9844-4.7812 3.9844-11.812 0-10.781-7.4219-16.703-7.4219-5.9062-21.094-5.9062-4.5781 0-9.4375 0.90625t-10.031 2.7188v9.5156q4.0938-2.3906 8.9688-3.6094 4.8906-1.2188 10.219-1.2188 9.2656 0 14.125 3.6562t4.8594 10.641q0 6.4531-4.5156 10.078-4.5156 3.6406-12.562 3.6406h-8.5v8.1094h8.8906q7.2656 0 11.125 2.9062t3.8594 8.375q0 5.6094-3.9844 8.6094-3.9688 3.0156-11.391 3.0156-4.0625 0-8.7031-0.89062-4.6406-0.875-10.203-2.7188v8.7812q5.625 1.5625 10.531 2.3438t9.25 0.78125q11.234 0 17.766-5.1094 6.5469-5.0938 6.5469-13.781 0-6.0625-3.4688-10.234t-9.8594-5.7812z"/>
</defs>
<g transform="translate(1111.7 710.5) scale(.1 -.1)">
<use xlink:href="#c"/>
<use x="63.623047" xlink:href="#d"/>
<use x="95.410156" xlink:href="#o"/>
</g>
</g>
<g clip-path="url(#a)">
<defs>
<path id="n" d="m37.797 64.312-24.906-38.922h24.906zm-2.5938 8.5938h12.406v-47.516h10.406v-8.2031h-10.406v-17.188h-9.8125v17.188h-32.906v9.5156z"/>
</defs>
<g transform="translate(1180 387.4) scale(.1 -.1)">
<use xlink:href="#c"/>
<use x="63.623047" xlink:href="#d"/>
<use x="95.410156" xlink:href="#n"/>
</g>
</g>
<g clip-path="url(#a)">
<defs>
<path id="af" d="m8.2031 72.906h46.875v-4.2031l-26.469-68.703h-10.297l24.906 64.594h-35.016z"/>
</defs>
<g transform="translate(1159.2 710.5) scale(.1 -.1)">
<use xlink:href="#c"/>
<use x="63.623047" xlink:href="#d"/>
<use x="95.410156" xlink:href="#af"/>
</g>
</g>
<g clip-path="url(#a)">
<defs>
<path id="x" d="m31.781 34.625q-7.0312 0-11.062-3.7656-4.0156-3.7656-4.0156-10.344 0-6.5938 4.0156-10.359 4.0312-3.7656 11.062-3.7656t11.078 3.7812q4.0625 3.7969 4.0625 10.344 0 6.5781-4.0312 10.344-4.0156 3.7656-11.109 3.7656zm-9.8594 4.1875q-6.3438 1.5625-9.8906 5.9062-3.5312 4.3594-3.5312 10.609 0 8.7344 6.2188 13.812 6.2344 5.0781 17.062 5.0781 10.891 0 17.094-5.0781t6.2031-13.812q0-6.25-3.5469-10.609-3.5312-4.3438-9.8281-5.9062 7.125-1.6562 11.094-6.5 3.9844-4.8281 3.9844-11.797 0-10.609-6.4688-16.281-6.4688-5.6562-18.531-5.6562-12.047 0-18.531 5.6562-6.4688 5.6719-6.4688 16.281 0 6.9688 4 11.797 4.0156 4.8438 11.141 6.5zm-3.6094 15.578q0-5.6562 3.5312-8.8281 3.5469-3.1719 9.9375-3.1719 6.3594 0 9.9375 3.1719 3.5938 3.1719 3.5938 8.8281 0 5.6719-3.5938 8.8438-3.5781 3.1719-9.9375 3.1719-6.3906 0-9.9375-3.1719-3.5312-3.1719-3.5312-8.8438z"/>
</defs>
<g transform="translate(1206.8 710.5) scale(.1 -.1)">
<use xlink:href="#c"/>
<use x="63.623047" xlink:href="#d"/>
<use x="95.410156" xlink:href="#x"/>
</g>
</g>
<g clip-path="url(#a)">
<defs>
<path id="w" d="m10.984 1.5156v8.9844q3.7188-1.7656 7.5156-2.6875 3.8125-0.92188 7.4844-0.92188 9.7656 0 14.906 6.5625 5.1562 6.5625 5.8906 19.953-2.8281-4.2031-7.1875-6.4531-4.3438-2.25-9.6094-2.25-10.938 0-17.312 6.6094-6.375 6.625-6.375 18.109 0 11.219 6.6406 18 6.6406 6.7969 17.672 6.7969 12.656 0 19.312-9.7031 6.6719-9.6875 6.6719-28.141 0-17.234-8.1875-27.516-8.1719-10.281-21.984-10.281-3.7188 0-7.5312 0.73438-3.7969 0.73438-7.9062 2.2031zm19.625 30.906q6.6406 0 10.516 4.5312 3.8906 4.5469 3.8906 12.469 0 7.8594-3.8906 12.422-3.875 4.5625-10.516 4.5625t-10.516-4.5625-3.875-12.422q0-7.9219 3.875-12.469 3.875-4.5312 10.516-4.5312z"/>
</defs>
<g transform="translate(1278.1 604.48) scale(.1 -.1)">
<use xlink:href="#c"/>
<use x="63.623047" xlink:href="#d"/>
<use x="95.410156" xlink:href="#w"/>
</g>
</g>
<g clip-path="url(#a)">
<defs>
<path id="z" d="m31.781 66.406q-7.6094 0-11.453-7.5-3.8281-7.4844-3.8281-22.531 0-14.984 3.8281-22.484 3.8438-7.5 11.453-7.5 7.6719 0 11.5 7.5 3.8438 7.5 3.8438 22.484 0 15.047-3.8438 22.531-3.8281 7.5-11.5 7.5zm0 7.8125q12.266 0 18.734-9.7031 6.4688-9.6875 6.4688-28.141 0-18.406-6.4688-28.109-6.4688-9.6875-18.734-9.6875-12.25 0-18.719 9.6875-6.4688 9.7031-6.4688 28.109 0 18.453 6.4688 28.141 6.4688 9.7031 18.719 9.7031z"/>
</defs>
<g transform="translate(1072.9 496.98) scale(.1 -.1)">
<use xlink:href="#c"/>
<use x="63.623047" xlink:href="#d"/>
<use x="95.410156" xlink:href="#c"/>
<use x="159.033203" xlink:href="#z"/>
</g>
</g>
<g clip-path="url(#a)">
<g transform="translate(1346.2 710.5) scale(.1 -.1)">
<use xlink:href="#c"/>
<use x="63.623047" xlink:href="#d"/>
<use x="95.410156" xlink:href="#c"/>
<use x="159.033203" xlink:href="#c"/>
</g>
</g>
<g clip-path="url(#a)">
<g transform="translate(1393.7 710.5) scale(.1 -.1)">
<use xlink:href="#c"/>
<use x="63.623047" xlink:href="#d"/>
<use x="95.410156" xlink:href="#c"/>
<use x="159.033203" xlink:href="#p"/>
</g>
</g>
<g clip-path="url(#a)">
<g transform="translate(1488.8 604.48) scale(.1 -.1)">
<use xlink:href="#c"/>
<use x="63.623047" xlink:href="#d"/>
<use x="95.410156" xlink:href="#c"/>
<use x="159.033203" xlink:href="#o"/>
</g>
</g>
<g clip-path="url(#a)">
<g transform="translate(1441.3 710.5) scale(.1 -.1)">
<use xlink:href="#c"/>
<use x="63.623047" xlink:href="#d"/>
<use x="95.410156" xlink:href="#c"/>
<use x="159.033203" xlink:href="#n"/>
</g>
</g>
<g clip-path="url(#a)">
<defs>
<path id="y" d="m10.797 72.906h38.719v-8.3125h-29.688v-17.859q2.1406 0.73438 4.2812 1.0938 2.1562 0.35938 4.3125 0.35938 12.203 0 19.328-6.6875 7.1406-6.6875 7.1406-18.109 0-11.766-7.3281-18.297-7.3281-6.5156-20.656-6.5156-4.5938 0-9.3594 0.78125-4.75 0.78125-9.8281 2.3438v9.9219q4.3906-2.3906 9.0781-3.5625t9.9062-1.1719q8.4531 0 13.375 4.4375 4.9375 4.4375 4.9375 12.062 0 7.6094-4.9375 12.047-4.9219 4.4531-13.375 4.4531-3.9531 0-7.8906-0.875-3.9219-0.875-8.0156-2.7344z"/>
</defs>
<g transform="translate(1488.8 710.5) scale(.1 -.1)">
<use xlink:href="#c"/>
<use x="63.623047" xlink:href="#d"/>
<use x="95.410156" xlink:href="#c"/>
<use x="159.033203" xlink:href="#y"/>
</g>
</g>
<g clip-path="url(#a)">
<defs>
<path id="ag" d="m33.016 40.375q-6.6406 0-10.531-4.5469-3.875-4.5312-3.875-12.438 0-7.8594 3.875-12.438 3.8906-4.5625 10.531-4.5625t10.516 4.5625q3.875 4.5781 3.875 12.438 0 7.9062-3.875 12.438-3.875 4.5469-10.516 4.5469zm19.578 30.922v-8.9844q-3.7188 1.75-7.5 2.6719-3.7812 0.9375-7.5 0.9375-9.7656 0-14.922-6.5938-5.1406-6.5938-5.875-19.922 2.875 4.25 7.2188 6.5156 4.3594 2.2656 9.5781 2.2656 10.984 0 17.359-6.6719 6.375-6.6562 6.375-18.125 0-11.234-6.6406-18.031-6.6406-6.7812-17.672-6.7812-12.656 0-19.344 9.6875-6.6875 9.7031-6.6875 28.109 0 17.281 8.2031 27.562t22.016 10.281q3.7188 0 7.5-0.73438t7.8906-2.1875z"/>
</defs>
<g transform="translate(1251.1 710.5) scale(.1 -.1)">
<use xlink:href="#c"/>
<use x="63.623047" xlink:href="#d"/>
<use x="95.410156" xlink:href="#c"/>
<use x="159.033203" xlink:href="#ag"/>
</g>
</g>
<g clip-path="url(#a)">
<g transform="translate(1298.6 710.5) scale(.1 -.1)">
<use xlink:href="#c"/>
<use x="63.623047" xlink:href="#d"/>
<use x="95.410156" xlink:href="#c"/>
<use x="159.033203" xlink:href="#af"/>
</g>
</g>
<g clip-path="url(#a)">
<g transform="translate(62.747 710.5) scale(.1 -.1)">
<use xlink:href="#c"/>
<use x="63.623047" xlink:href="#d"/>
<use x="95.410156" xlink:href="#c"/>
<use x="159.033203" xlink:href="#x"/>
</g>
</g>
<g clip-path="url(#a)">
<g transform="translate(110.28 710.5) scale(.1 -.1)">
<use xlink:href="#c"/>
<use x="63.623047" xlink:href="#d"/>
<use x="95.410156" xlink:href="#c"/>
<use x="159.033203" xlink:href="#w"/>
</g>
</g>
<g clip-path="url(#a)">
<g transform="translate(157.82 710.5) scale(.1 -.1)">
<use xlink:href="#c"/>
<use x="63.623047" xlink:href="#d"/>
<use x="95.410156" xlink:href="#p"/>
<use x="159.033203" xlink:href="#z"/>
</g>
</g>
<g clip-path="url(#a)">
<g transform="translate(675.25 275.34) scale(.1 -.1)">
<use xlink:href="#c"/>
<use x="63.623047" xlink:href="#d"/>
<use x="95.410156" xlink:href="#p"/>
<use x="159.033203" xlink:href="#c"/>
</g>
</g>
<g clip-path="url(#a)">
<g transform="translate(397.47 387.4) scale(.1 -.1)">
<use xlink:href="#c"/>
<use x="63.623047" xlink:href="#d"/>
<use x="95.410156" xlink:href="#p"/>
<use x="159.033203" xlink:href="#n"/>
</g>
</g>
<g clip-path="url(#a)">
<g transform="translate(728.23 710.5) scale(.1 -.1)">
<use xlink:href="#c"/>
<use x="63.623047" xlink:href="#d"/>
<use x="95.410156" xlink:href="#p"/>
<use x="159.033203" xlink:href="#y"/>
</g>
</g>
<g clip-path="url(#a)">
<g transform="translate(894.6 604.48) scale(.1 -.1)">
<use xlink:href="#c"/>
<use x="63.623047" xlink:href="#d"/>
<use x="95.410156" xlink:href="#p"/>
<use x="159.033203" xlink:href="#ag"/>
</g>
</g>
<g clip-path="url(#a)">
<g transform="translate(775.77 710.5) scale(.1 -.1)">
<use xlink:href="#c"/>
<use x="63.623047" xlink:href="#d"/>
<use x="95.410156" xlink:href="#p"/>
<use x="159.033203" xlink:href="#x"/>
</g>
</g>
<g clip-path="url(#a)">
<g transform="translate(823.3 710.5) scale(.1 -.1)">
<use xlink:href="#c"/>
<use x="63.623047" xlink:href="#d"/>
<use x="95.410156" xlink:href="#p"/>
<use x="159.033203" xlink:href="#w"/>
</g>
</g>
<g clip-path="url(#a)">
<g transform="translate(870.84 710.5) scale(.1 -.1)">
<use xlink:href="#c"/>
<use x="63.623047" xlink:href="#d"/>
<use x="95.410156" xlink:href="#o"/>
<use x="159.033203" xlink:href="#z"/>
</g>
</g>
<g clip-path="url(#a)">
<g transform="translate(918.37 710.5) scale(.1 -.1)">
<use xlink:href="#c"/>
<use x="63.623047" xlink:href="#d"/>
<use x="95.410156" xlink:href="#o"/>
<use x="159.033203" xlink:href="#c"/>
</g>
</g>
<g clip-path="url(#a)">
<g transform="translate(965.91 710.5) scale(.1 -.1)">
<use xlink:href="#c"/>
<use x="63.623047" xlink:href="#d"/>
<use x="95.410156" xlink:href="#o"/>
<use x="159.033203" xlink:href="#p"/>
</g>
</g>
<g clip-path="url(#a)">
<g transform="translate(1013.4 710.5) scale(.1 -.1)">
<use xlink:href="#c"/>
<use x="63.623047" xlink:href="#d"/>
<use x="95.410156" xlink:href="#o"/>
<use x="159.033203" xlink:href="#o"/>
</g>
</g>
<g clip-path="url(#a)">
<g transform="translate(300.42 710.5) scale(.1 -.1)">
<use xlink:href="#c"/>
<use x="63.623047" xlink:href="#d"/>
<use x="95.410156" xlink:href="#o"/>
<use x="159.033203" xlink:href="#n"/>
</g>
</g>
<g clip-path="url(#a)">
<g transform="translate(347.95 710.5) scale(.1 -.1)">
<use xlink:href="#c"/>
<use x="63.623047" xlink:href="#d"/>
<use x="95.410156" xlink:href="#o"/>
<use x="159.033203" xlink:href="#y"/>
</g>
</g>
<g clip-path="url(#a)">
<g transform="translate(395.49 710.5) scale(.1 -.1)">
<use xlink:href="#c"/>
<use x="63.623047" xlink:href="#d"/>
<use x="95.410156" xlink:href="#o"/>
<use x="159.033203" xlink:href="#ag"/>
</g>
</g>
<g clip-path="url(#a)">
<g transform="translate(546.02 496.98) scale(.1 -.1)">
<use xlink:href="#c"/>
<use x="63.623047" xlink:href="#d"/>
<use x="95.410156" xlink:href="#o"/>
<use x="159.033203" xlink:href="#af"/>
</g>
</g>
<g clip-path="url(#a)">
<g transform="translate(443.02 710.5) scale(.1 -.1)">
<use xlink:href="#c"/>
<use x="63.623047" xlink:href="#d"/>
<use x="95.410156" xlink:href="#o"/>
<use x="159.033203" xlink:href="#x"/>
</g>
</g>
<g clip-path="url(#a)">
<g transform="translate(561.86 604.48) scale(.1 -.1)">
<use xlink:href="#c"/>
<use x="63.623047" xlink:href="#d"/>
<use x="95.410156" xlink:href="#o"/>
<use x="159.033203" xlink:href="#w"/>
</g>
</g>
<g clip-path="url(#a)">
<g transform="translate(633.16 710.5) scale(.1 -.1)">
<use xlink:href="#c"/>
<use x="63.623047" xlink:href="#d"/>
<use x="95.410156" xlink:href="#n"/>
<use x="159.033203" xlink:href="#z"/>
</g>
</g>
<g clip-path="url(#a)">
<g transform="translate(490.56 710.5) scale(.1 -.1)">
<use xlink:href="#c"/>
<use x="63.623047" xlink:href="#d"/>
<use x="95.410156" xlink:href="#n"/>
<use x="159.033203" xlink:href="#c"/>
</g>
</g>
<g clip-path="url(#a)">
<g transform="translate(585.63 710.5) scale(.1 -.1)">
<use xlink:href="#c"/>
<use x="63.623047" xlink:href="#d"/>
<use x="95.410156" xlink:href="#n"/>
<use x="159.033203" xlink:href="#p"/>
</g>
</g>
<g clip-path="url(#a)">
<g transform="translate(205.35 710.5) scale(.1 -.1)">
<use xlink:href="#c"/>
<use x="63.623047" xlink:href="#d"/>
<use x="95.410156" xlink:href="#n"/>
<use x="159.033203" xlink:href="#o"/>
</g>
</g>
<g clip-path="url(#a)">
<g transform="translate(843.13 42.322) scale(.1 -.1)">
<use xlink:href="#c"/>
<use x="63.623047" xlink:href="#d"/>
<use x="95.410156" xlink:href="#n"/>
<use x="159.033203" xlink:href="#n"/>
</g>
</g>
<g clip-path="url(#a)">
<g transform="translate(673.44 275.34) scale(.1 -.1)">
<use xlink:href="#c"/>
<use x="63.623047" xlink:href="#d"/>
<use x="95.410156" xlink:href="#n"/>
<use x="159.033203" xlink:href="#y"/>
</g>
</g>
<g clip-path="url(#a)">
<g transform="translate(252.89 710.5) scale(.1 -.1)">
<use xlink:href="#c"/>
<use x="63.623047" xlink:href="#d"/>
<use x="95.410156" xlink:href="#n"/>
<use x="159.033203" xlink:href="#ag"/>
</g>
</g>
<g clip-path="url(#a)">
<g transform="translate(538.09 710.5) scale(.1 -.1)">
<use xlink:href="#c"/>
<use x="63.623047" xlink:href="#d"/>
<use x="95.410156" xlink:href="#n"/>
<use x="159.033203" xlink:href="#af"/>
</g>
</g>
<g clip-path="url(#a)">
<g transform="translate(680.7 710.5) scale(.1 -.1)">
<use xlink:href="#c"/>
<use x="63.623047" xlink:href="#d"/>
<use x="95.410156" xlink:href="#n"/>
<use x="159.033203" xlink:href="#x"/>
</g>
</g>
<g clip-path="url(#a)">
<g transform="translate(1061 710.5) scale(.1 -.1)">
<use xlink:href="#c"/>
<use x="63.623047" xlink:href="#d"/>
<use x="95.410156" xlink:href="#n"/>
<use x="159.033203" xlink:href="#w"/>
</g>
</g>
<g clip-path="url(#a)">
<g transform="translate(1536.3 710.5) scale(.1 -.1)">
<use xlink:href="#c"/>
<use x="63.623047" xlink:href="#d"/>
<use x="95.410156" xlink:href="#y"/>
<use x="159.033203" xlink:href="#z"/>
</g>
</g>
<defs>
<clipPath id="a">
<rect width="1621.3" height="853.33"/>
</clipPath>
</defs>
</svg>
