<?xml version="1.0" encoding="UTF-8"?>
<!DOCTYPE svg  PUBLIC '-//W3C//DTD SVG 1.1//EN'  'http://www.w3.org/Graphics/SVG/1.1/DTD/svg11.dtd'>
<svg width="1773.3pt" height="933.33pt" version="1.1" viewBox="0 0 1773.3 933.33" xmlns="http://www.w3.org/2000/svg" xmlns:xlink="http://www.w3.org/1999/xlink">
<defs>
<style type="text/css">*{stroke-linecap:butt;stroke-linejoin:round;}</style>
</defs>
<path d="m0 933.33h1773.3v-933.33h-1773.3z" fill="#fff"/>
<g fill="none" stroke="#000">
<path d="m500.21 43.094-217.96 441.32" clip-path="url(#a)"/>
<path d="m500.21 43.094 149.43 746.88" clip-path="url(#a)"/>
<path d="m500.21 43.094 68.525 114.97" clip-path="url(#a)"/>
<path d="m282.25 484.41-177.77 205.29" clip-path="url(#a)"/>
<path d="m282.25 484.41-106.66 305.56" clip-path="url(#a)"/>
<path d="m282.25 484.41 35.554 103.62" clip-path="url(#a)"/>
<path d="m282.25 484.41 248.88 205.29" clip-path="url(#a)"/>
<path d="m649.64 789.97v100.27" clip-path="url(#a)"/>
<path d="m568.73 158.07 128.31 631.9" clip-path="url(#a)"/>
<path d="m568.73 158.07 312.24 111.68" clip-path="url(#a)"/>
<path d="m568.73 158.07-440.55 631.9" clip-path="url(#a)" stroke-dasharray="3.7,1.6"/>
<path d="m697.04 789.97v100.27" clip-path="url(#a)"/>
<path d="m880.97 269.75-136.52 520.22" clip-path="url(#a)"/>
<path d="m880.97 269.75-89.113 520.22" clip-path="url(#a)"/>
<path d="m880.97 269.75-41.707 520.22" clip-path="url(#a)"/>
<path d="m880.97 269.75 5.6985 520.22" clip-path="url(#a)"/>
<path d="m880.97 269.75 208.53 108.68" clip-path="url(#a)"/>
<path d="m880.97 269.75 53.104 520.22" clip-path="url(#a)"/>
<path d="m744.45 789.97v100.27" clip-path="url(#a)"/>
<path d="m791.86 789.97v100.27" clip-path="url(#a)"/>
<path d="m839.26 789.97v100.27" clip-path="url(#a)"/>
<path d="m886.67 789.97v100.27" clip-path="url(#a)"/>
<path d="m1089.5 378.43-155.43 311.27" clip-path="url(#a)"/>
<path d="m1089.5 378.43-60.62 411.54" clip-path="url(#a)"/>
<path d="m1089.5 378.43-13.214 411.54" clip-path="url(#a)"/>
<path d="m1089.5 378.43 34.191 411.54" clip-path="url(#a)"/>
<path d="m1089.5 378.43 195.07 105.98" clip-path="url(#a)"/>
<path d="m934.07 689.7-47.406 100.27" clip-path="url(#a)" stroke-dasharray="3.7,1.6"/>
<path d="m934.07 689.7 47.406 100.27" clip-path="url(#a)"/>
<path d="m1028.9 789.97v100.27" clip-path="url(#a)"/>
<path d="m1076.3 789.97v100.27" clip-path="url(#a)"/>
<path d="m1123.7 789.97v100.27" clip-path="url(#a)"/>
<path d="m1284.6 484.41-113.48 305.56" clip-path="url(#a)"/>
<path d="m1284.6 484.41-42.369 305.56" clip-path="url(#a)"/>
<path d="m1284.6 484.41 127.11 103.62" clip-path="url(#a)"/>
<path d="m1284.6 484.41 28.74 305.56" clip-path="url(#a)"/>
<path d="m1171.1 789.97v100.27" clip-path="url(#a)"/>
<path d="m1242.2 789.97-23.703 100.27" clip-path="url(#a)"/>
<path d="m1242.2 789.97 23.703 100.27" clip-path="url(#a)"/>
<path d="m1411.7 588.04-169.47 201.93" clip-path="url(#a)" stroke-dasharray="3.7,1.6"/>
<path d="m1411.7 588.04-50.961 201.93" clip-path="url(#a)"/>
<path d="m1411.7 588.04-3.5554 201.93" clip-path="url(#a)"/>
<path d="m1411.7 588.04 43.85 201.93" clip-path="url(#a)"/>
<path d="m1411.7 588.04 180.14 101.66" clip-path="url(#a)"/>
<path d="m1360.7 789.97v100.27" clip-path="url(#a)"/>
<path d="m1408.1 789.97v100.27" clip-path="url(#a)"/>
<path d="m1455.5 789.97v100.27" clip-path="url(#a)"/>
<path d="m1591.8 689.7-88.885 100.27" clip-path="url(#a)"/>
<path d="m1591.8 689.7-41.48 100.27" clip-path="url(#a)"/>
<path d="m1591.8 689.7 29.628 100.27" clip-path="url(#a)"/>
<path d="m1591.8 689.7 100.74 100.27" clip-path="url(#a)"/>
<path d="m1502.9 789.97v100.27" clip-path="url(#a)"/>
<path d="m1550.3 789.97v100.27" clip-path="url(#a)"/>
<path d="m1621.5 789.97-23.703 100.27" clip-path="url(#a)"/>
<path d="m1621.5 789.97 23.703 100.27" clip-path="url(#a)"/>
<path d="m981.48 789.97v100.27" clip-path="url(#a)"/>
<path d="m104.48 689.7-23.703 100.27" clip-path="url(#a)"/>
<path d="m104.48 689.7 23.703 100.27" clip-path="url(#a)"/>
<path d="m175.58 789.97v100.27" clip-path="url(#a)"/>
<path d="m317.8 588.04-94.811 201.93" clip-path="url(#a)"/>
<path d="m317.8 588.04v101.66" clip-path="url(#a)"/>
<path d="m317.8 588.04 94.811 201.93" clip-path="url(#a)"/>
<path d="m531.13 689.7-71.108 100.27" clip-path="url(#a)"/>
<path d="m531.13 689.7-23.703 100.27" clip-path="url(#a)"/>
<path d="m531.13 689.7 23.703 100.27" clip-path="url(#a)"/>
<path d="m531.13 689.7 71.108 100.27" clip-path="url(#a)"/>
<path d="m460.02 789.97v100.27" clip-path="url(#a)"/>
<path d="m507.42 789.97v100.27" clip-path="url(#a)"/>
<path d="m554.83 789.97v100.27" clip-path="url(#a)"/>
<path d="m602.23 789.97v100.27" clip-path="url(#a)"/>
<path d="m222.99 789.97v100.27" clip-path="url(#a)"/>
<path d="m317.8 689.7-47.406 200.54" clip-path="url(#a)"/>
<path d="m317.8 689.7 47.406 200.54" clip-path="url(#a)"/>
<path d="m317.8 689.7v100.27" clip-path="url(#a)"/>
<path d="m412.61 789.97v100.27" clip-path="url(#a)"/>
<path d="m317.8 789.97v100.27" clip-path="url(#a)"/>
<path d="m80.773 789.97v100.27" clip-path="url(#a)"/>
<path d="m128.18 789.97v100.27" clip-path="url(#a)"/>
<path d="m500.21 43.094-217.96 441.32" clip-path="url(#a)"/>
<path d="m500.21 43.094 149.43 746.88" clip-path="url(#a)"/>
<path d="m500.21 43.094 68.525 114.97" clip-path="url(#a)"/>
<path d="m934.07 789.97v100.27" clip-path="url(#a)"/>
<path d="m1313.3 789.97v100.27" clip-path="url(#a)"/>
<path d="m1692.6 789.97v100.27" clip-path="url(#a)"/>
</g>
<path d="m395.52 269.23 2.6641-5.3942q1.0628-2.1519-1.0891-3.2146l-6.942-3.4285q-2.1519-1.0628-3.2146 1.0891l-2.6641 5.3942q-1.0628 2.1519 1.0891 3.2146l6.942 3.4285q2.1519 1.0628 3.2146-1.0891z" clip-path="url(#a)" fill="#fff" stroke="#fff"/>
<g clip-path="url(#a)">
<defs>
<path id="al" d="m9.8125 72.906h9.8594v-29.891h35.844v29.891h9.8594v-72.906h-9.8594v34.719h-35.844v-34.719h-9.8594z"/>
</defs>
<g transform="translate(391.87 267.43) rotate(-63.716) scale(.08 -.08)">
<use xlink:href="#al"/>
</g>
</g>
<path d="m568.34 415.58 0.87452 4.3709q0.47086 2.3534 2.8242 1.8825l7.592-1.519q2.3534-0.47086 1.8825-2.8242l-0.87452-4.3709q-0.47086-2.3534-2.8242-1.8825l-7.592 1.519q-2.3534 0.47086-1.8825 2.8242z" clip-path="url(#a)" fill="#fff" stroke="#fff"/>
<g clip-path="url(#a)">
<defs>
<path id="ab" d="m9.8125 72.906h9.8594v-64.609h35.5v-8.2969h-45.359z"/>
</defs>
<g transform="translate(572.32 414.78) rotate(78.686) scale(.08 -.08)">
<use xlink:href="#ab"/>
</g>
</g>
<path d="m527.54 101.21 3.0802 5.168q1.2287 2.0616 3.2903 0.83285l6.6508-3.964q2.0616-1.2287 0.83285-3.2903l-3.0802-5.168q-1.2287-2.0616-3.2903-0.83285l-6.6508 3.964q-2.0616 1.2287-0.83285 3.2903z" clip-path="url(#a)" fill="#fff" stroke="#fff"/>
<g clip-path="url(#a)">
<g transform="translate(531.03 99.126) rotate(59.204) scale(.08 -.08)">
<use xlink:href="#al"/>
</g>
</g>
<path d="m196.31 593.23 3.5824-4.1369q1.5711-1.8143-0.24318-3.3854l-5.853-5.0684q-1.8143-1.5711-3.3854 0.24318l-3.5824 4.1369q-1.5711 1.8143 0.24318 3.3854l5.853 5.0684q1.8143 1.5711 3.3854-0.24318z" clip-path="url(#a)" fill="#fff" stroke="#fff"/>
<g clip-path="url(#a)">
<defs>
<path id="q" d="m34.188 63.188-13.391-36.281h26.812zm-5.5781 9.7188h11.188l27.781-72.906h-10.25l-6.6406 18.703h-32.859l-6.6406-18.703h-10.406z"/>
</defs>
<g transform="translate(193.24 590.57) rotate(-49.109) scale(.08 -.08)">
<use xlink:href="#q"/>
</g>
</g>
<path d="m234.04 641.54 1.5898-4.5542q0.79098-2.2659-1.4749-3.0569l-7.3099-2.5517q-2.2659-0.79098-3.0569 1.4749l-1.5898 4.5542q-0.79098 2.2659 1.4749 3.0569l7.3099 2.5517q2.2659 0.79098 3.0569-1.4749z" clip-path="url(#a)" fill="#fff" stroke="#fff"/>
<g clip-path="url(#a)">
<defs>
<path id="aa" d="m19.672 64.797v-27.391h12.406q6.8906 0 10.641 3.5625 3.7656 3.5625 3.7656 10.156 0 6.5469-3.7656 10.109-3.75 3.5625-10.641 3.5625zm-9.8594 8.1094h22.266q12.266 0 18.531-5.5469 6.2812-5.5469 6.2812-16.234 0-10.797-6.2812-16.312-6.2656-5.5156-18.531-5.5156h-12.406v-29.297h-9.8594z"/>
</defs>
<g transform="translate(230.2 640.2) rotate(-70.757) scale(.08 -.08)">
<use xlink:href="#aa"/>
</g>
</g>
<path d="m293.2 535.67 1.7761 5.1763q0.7789 2.2701 3.049 1.4912l7.3234-2.5128q2.2701-0.7789 1.4912-3.049l-1.7761-5.1763q-0.7789-2.2701-3.049-1.4912l-7.3234 2.5128q-2.2701 0.7789-1.4912 3.049z" clip-path="url(#a)" fill="#fff" stroke="#fff"/>
<g clip-path="url(#a)">
<g transform="translate(297.05 534.35) rotate(71.062) scale(.08 -.08)">
<use xlink:href="#q"/>
</g>
</g>
<path d="m400.32 589.93 4.752 3.9197q1.8514 1.5271 3.3786-0.32429l4.9266-5.9728q1.5271-1.8514-0.32429-3.3786l-4.752-3.9197q-1.8514-1.5271-3.3786 0.32429l-4.9266 5.9728q-1.5271 1.8514 0.32429 3.3786z" clip-path="url(#a)" fill="#fff" stroke="#fff"/>
<g clip-path="url(#a)">
<defs>
<path id="au" d="m19.672 64.797v-56.688h11.922q15.094 0 22.094 6.8281 7 6.8438 7 21.594 0 14.641-7 21.453t-22.094 6.8125zm-9.8594 8.1094h20.266q21.188 0 31.094-8.8125 9.9219-8.8125 9.9219-27.562 0-18.859-9.9688-27.703-9.9531-8.8281-31.047-8.8281h-20.266z"/>
</defs>
<g transform="translate(402.91 586.8) rotate(39.517) scale(.08 -.08)">
<use xlink:href="#au"/>
</g>
</g>
<path d="m643.37 822.46v35.285q0 2.4 2.4 2.4h7.7425q2.4 0 2.4-2.4v-35.285q0-2.4-2.4-2.4h-7.7425q-2.4 0-2.4 2.4z" clip-path="url(#a)" fill="#fff" stroke="#fff"/>
<g clip-path="url(#a)">
<defs>
<path id="k" d="m-0.29688 72.906h61.672v-8.3125h-25.875v-64.594h-9.9062v64.594h-25.891z"/>
<path id="d" d="m56.203 29.594v-4.3906h-41.312q0.59375-9.2812 5.5938-14.141t13.938-4.8594q5.1719 0 10.031 1.2656t9.6562 3.8125v-8.5q-4.8438-2.0469-9.9219-3.125t-10.297-1.0781q-13.094 0-20.734 7.6094-7.6406 7.625-7.6406 20.625 0 13.422 7.25 21.297 7.25 7.8906 19.562 7.8906 11.031 0 17.453-7.1094 6.4219-7.0938 6.4219-19.297zm-8.9844 2.6406q-0.09375 7.3594-4.125 11.75-4.0312 4.4062-10.672 4.4062-7.5156 0-12.031-4.25t-5.2031-11.969z"/>
<path id="g" d="m41.109 46.297q-1.5156 0.875-3.2969 1.2812-1.7812 0.42188-3.9219 0.42188-7.625 0-11.703-4.9531t-4.0781-14.234v-28.812h-9.0312v54.688h9.0312v-8.5q2.8438 4.9844 7.375 7.3906 4.5469 2.4219 11.047 2.4219 0.92188 0 2.0469-0.125 1.125-0.10938 2.4844-0.35938z"/>
<path id="l" d="m52 44.188q3.375 6.0625 8.0625 8.9375t11.031 2.875q8.5469 0 13.188-5.9844 4.6406-5.9688 4.6406-17v-33.016h-9.0312v32.719q0 7.8594-2.7969 11.656-2.7812 3.8125-8.4844 3.8125-6.9844 0-11.047-4.6406-4.0469-4.625-4.0469-12.641v-30.906h-9.0312v32.719q0 7.9062-2.7812 11.688t-8.5938 3.7812q-6.8906 0-10.953-4.6562-4.0469-4.6562-4.0469-12.625v-30.906h-9.0312v54.688h9.0312v-8.5q3.0781 5.0312 7.375 7.4219t10.203 2.3906q5.9688 0 10.141-3.0312 4.1719-3.0156 6.1719-8.7812z"/>
<path id="h" d="m9.4219 54.688h8.9844v-54.688h-8.9844zm0 21.297h8.9844v-11.391h-8.9844z"/>
<path id="j" d="m54.891 33.016v-33.016h-8.9844v32.719q0 7.7656-3.0312 11.609-3.0312 3.8594-9.0781 3.8594-7.2812 0-11.484-4.6406-4.2031-4.625-4.2031-12.641v-30.906h-9.0312v54.688h9.0312v-8.5q3.2344 4.9375 7.5938 7.375 4.375 2.4375 10.094 2.4375 9.4219 0 14.25-5.8281 4.8438-5.8281 4.8438-17.156z"/>
<path id="e" d="m34.281 27.484q-10.891 0-15.094-2.4844t-4.2031-8.5q0-4.7812 3.1562-7.5938 3.1562-2.7969 8.5625-2.7969 7.4844 0 12 5.2969t4.5156 14.078v2zm17.922 3.7188v-31.203h-8.9844v8.2969q-3.0781-4.9688-7.6719-7.3438t-11.234-2.375q-8.3906 0-13.359 4.7188-4.9531 4.7188-4.9531 12.625 0 9.2188 6.1719 13.906 6.1875 4.6875 18.438 4.6875h12.609v0.89062q0 6.2031-4.0781 9.5938t-11.453 3.3906q-4.6875 0-9.1406-1.125-4.4375-1.125-8.5312-3.375v8.3125q4.9219 1.9062 9.5625 2.8438 4.6406 0.95312 9.0312 0.95312 11.875 0 17.734-6.1562 5.8594-6.1406 5.8594-18.641z"/>
<path id="i" d="m9.4219 75.984h8.9844v-75.984h-8.9844z"/>
</defs>
<g transform="translate(647.43 822.46) rotate(90) scale(.08 -.08)">
<use xlink:href="#k"/>
<use x="60.818359" xlink:href="#d"/>
<use x="122.341797" xlink:href="#g"/>
<use x="163.439453" xlink:href="#l"/>
<use x="260.851562" xlink:href="#h"/>
<use x="288.634766" xlink:href="#j"/>
<use x="352.013672" xlink:href="#e"/>
<use x="413.292969" xlink:href="#i"/>
</g>
</g>
<path d="m626.26 472.9 0.95992 4.7273q0.4776 2.352 2.8296 1.8744l7.5876-1.5407q2.352-0.4776 1.8744-2.8296l-0.95992-4.7273q-0.4776-2.352-2.8296-1.8744l-7.5876 1.5407q-2.352 0.4776-1.8744 2.8296z" clip-path="url(#a)" fill="#fff" stroke="#fff"/>
<g clip-path="url(#a)">
<g transform="translate(630.24 472.09) rotate(78.522) scale(.08 -.08)">
<use xlink:href="#aa"/>
</g>
</g>
<path d="m720.16 218.89 5.1528 1.8431q2.2598 0.80829 3.0681-1.4515l2.6076-7.2902q0.80829-2.2598-1.4515-3.0681l-5.1528-1.8431q-2.2598-0.80829-3.0681 1.4515l-2.6076 7.2902q-0.80829 2.2598 1.4515 3.0681z" clip-path="url(#a)" fill="#fff" stroke="#fff"/>
<g clip-path="url(#a)">
<g transform="translate(721.53 215.06) rotate(19.681) scale(.08 -.08)">
<use xlink:href="#q"/>
</g>
</g>
<path d="m352.03 479.85 3.1298-4.4892q1.3726-1.9688-0.59617-3.3413l-6.3513-4.428q-1.9688-1.3726-3.3413 0.59617l-3.1298 4.4892q-1.3726 1.9688 0.59617 3.3413l6.3513 4.428q1.9688 1.3726 3.3413-0.59617z" clip-path="url(#a)" fill="#fff" stroke="#fff"/>
<g clip-path="url(#a)">
<g transform="translate(348.7 477.52) rotate(-55.116) scale(.08 -.08)">
<use xlink:href="#q"/>
</g>
</g>
<path d="m690.77 822.46v35.285q0 2.4 2.4 2.4h7.7425q2.4 0 2.4-2.4v-35.285q0-2.4-2.4-2.4h-7.7425q-2.4 0-2.4 2.4z" clip-path="url(#a)" fill="#fff" stroke="#fff"/>
<g clip-path="url(#a)">
<g transform="translate(694.84 822.46) rotate(90) scale(.08 -.08)">
<use xlink:href="#k"/>
<use x="60.818359" xlink:href="#d"/>
<use x="122.341797" xlink:href="#g"/>
<use x="163.439453" xlink:href="#l"/>
<use x="260.851562" xlink:href="#h"/>
<use x="288.634766" xlink:href="#j"/>
<use x="352.013672" xlink:href="#e"/>
<use x="413.292969" xlink:href="#i"/>
</g>
</g>
<path d="m818.13 533.9 1.2831-4.8894q0.60919-2.3214-1.7122-2.9306l-7.4889-1.9653q-2.3214-0.60919-2.9306 1.7122l-1.2831 4.8894q-0.60919 2.3214 1.7122 2.9306l7.4889 1.9653q2.3214 0.60919 2.9306-1.7122z" clip-path="url(#a)" fill="#fff" stroke="#fff"/>
<g clip-path="url(#a)">
<defs>
<path id="p" d="m9.8125 72.906h46.094v-8.3125h-36.234v-21.578h34.719v-8.2969h-34.719v-26.422h37.109v-8.2969h-46.969z"/>
</defs>
<g transform="translate(814.2 532.86) rotate(-75.296) scale(.08 -.08)">
<use xlink:href="#p"/>
</g>
</g>
<path d="m842.17 533.41 0.85348-4.9824q0.40521-2.3655-1.9603-2.7708l-7.6313-1.3072q-2.3655-0.40521-2.7708 1.9603l-0.85348 4.9824q-0.40521 2.3655 1.9603 2.7708l7.6313 1.3072q2.3655 0.40521 2.7708-1.9603z" clip-path="url(#a)" fill="#fff" stroke="#fff"/>
<g clip-path="url(#a)">
<g transform="translate(838.16 532.72) rotate(-80.28) scale(.08 -.08)">
<use xlink:href="#p"/>
</g>
</g>
<path d="m866.16 532.88 0.40397-5.0388q0.1918-2.3923-2.2005-2.5841l-7.7177-0.61874q-2.3923-0.1918-2.5841 2.2005l-0.40397 5.0388q-0.1918 2.3923 2.2005 2.5841l7.7177 0.61874q2.3923 0.1918 2.5841-2.2005z" clip-path="url(#a)" fill="#fff" stroke="#fff"/>
<g clip-path="url(#a)">
<g transform="translate(862.11 532.56) rotate(-85.416) scale(.08 -.08)">
<use xlink:href="#p"/>
</g>
</g>
<path d="m877.52 527.13 0.061189 5.5859q0.026288 2.3999 2.4261 2.3736l7.742-0.084807q2.3999-0.026288 2.3736-2.4261l-0.061188-5.5859q-0.026289-2.3999-2.4261-2.3736l-7.742 0.084807q-2.3999 0.026288-2.3736 2.4261z" clip-path="url(#a)" fill="#fff" stroke="#fff"/>
<g clip-path="url(#a)">
<defs>
<path id="t" d="m64.406 67.281v-10.391q-4.9844 4.6406-10.625 6.9219-5.6406 2.2969-11.984 2.2969-12.5 0-19.141-7.6406t-6.6406-22.094q0-14.406 6.6406-22.047t19.141-7.6406q6.3438 0 11.984 2.2969t10.625 6.9375v-10.312q-5.1719-3.5156-10.969-5.2812-5.7812-1.75-12.219-1.75-16.562 0-26.094 10.125-9.5156 10.141-9.5156 27.672 0 17.578 9.5156 27.703 9.5312 10.141 26.094 10.141 6.5312 0 12.312-1.7344 5.7969-1.7344 10.875-5.2031z"/>
</defs>
<g transform="translate(881.58 527.09) rotate(89.372) scale(.08 -.08)">
<use xlink:href="#t"/>
</g>
</g>
<path d="m980.1 328.48 4.4827 2.3362q2.1283 1.1092 3.2375-1.0191l3.5783-6.866q1.1092-2.1283-1.0191-3.2375l-4.4827-2.3362q-2.1283-1.1092-3.2375 1.0191l-3.5783 6.866q-1.1092 2.1283 1.0191 3.2375z" clip-path="url(#a)" fill="#fff" stroke="#fff"/>
<g clip-path="url(#a)">
<g transform="translate(981.97 324.88) rotate(27.527) scale(.08 -.08)">
<use xlink:href="#p"/>
</g>
</g>
<path d="m900.98 527.58 0.59459 5.8247q0.24373 2.3876 2.6313 2.1439l7.7025-0.78627q2.3876-0.24372 2.1439-2.6313l-0.59459-5.8247q-0.24372-2.3876-2.6313-2.1439l-7.7025 0.78627q-2.3876 0.24372-2.1439 2.6313z" clip-path="url(#a)" fill="#fff" stroke="#fff"/>
<g clip-path="url(#a)">
<defs>
<path id="ae" d="m8.6875 72.906h9.9219v-44.297q0-11.719 4.2344-16.875 4.25-5.1406 13.781-5.1406 9.4688 0 13.719 5.1406 4.25 5.1562 4.25 16.875v44.297h9.9062v-45.516q0-14.25-7.0625-21.531-7.0469-7.2812-20.812-7.2812-13.828 0-20.891 7.2812-7.0469 7.2812-7.0469 21.531z"/>
</defs>
<g transform="translate(905.03 527.17) rotate(84.171) scale(.08 -.08)">
<use xlink:href="#ae"/>
</g>
</g>
<path d="m738.18 822.46v35.285q0 2.4 2.4 2.4h7.7425q2.4 0 2.4-2.4v-35.285q0-2.4-2.4-2.4h-7.7425q-2.4 0-2.4 2.4z" clip-path="url(#a)" fill="#fff" stroke="#fff"/>
<g clip-path="url(#a)">
<g transform="translate(742.24 822.46) rotate(90) scale(.08 -.08)">
<use xlink:href="#k"/>
<use x="60.818359" xlink:href="#d"/>
<use x="122.341797" xlink:href="#g"/>
<use x="163.439453" xlink:href="#l"/>
<use x="260.851562" xlink:href="#h"/>
<use x="288.634766" xlink:href="#j"/>
<use x="352.013672" xlink:href="#e"/>
<use x="413.292969" xlink:href="#i"/>
</g>
</g>
<path d="m785.58 822.46v35.285q0 2.4 2.4 2.4h7.7425q2.4 0 2.4-2.4v-35.285q0-2.4-2.4-2.4h-7.7425q-2.4 0-2.4 2.4z" clip-path="url(#a)" fill="#fff" stroke="#fff"/>
<g clip-path="url(#a)">
<g transform="translate(789.65 822.46) rotate(90) scale(.08 -.08)">
<use xlink:href="#k"/>
<use x="60.818359" xlink:href="#d"/>
<use x="122.341797" xlink:href="#g"/>
<use x="163.439453" xlink:href="#l"/>
<use x="260.851562" xlink:href="#h"/>
<use x="288.634766" xlink:href="#j"/>
<use x="352.013672" xlink:href="#e"/>
<use x="413.292969" xlink:href="#i"/>
</g>
</g>
<path d="m832.99 822.46v35.285q0 2.4 2.4 2.4h7.7425q2.4 0 2.4-2.4v-35.285q0-2.4-2.4-2.4h-7.7425q-2.4 0-2.4 2.4z" clip-path="url(#a)" fill="#fff" stroke="#fff"/>
<g clip-path="url(#a)">
<g transform="translate(837.05 822.46) rotate(90) scale(.08 -.08)">
<use xlink:href="#k"/>
<use x="60.818359" xlink:href="#d"/>
<use x="122.341797" xlink:href="#g"/>
<use x="163.439453" xlink:href="#l"/>
<use x="260.851562" xlink:href="#h"/>
<use x="288.634766" xlink:href="#j"/>
<use x="352.013672" xlink:href="#e"/>
<use x="413.292969" xlink:href="#i"/>
</g>
</g>
<path d="m880.4 822.46v35.285q0 2.4 2.4 2.4h7.7425q2.4 0 2.4-2.4v-35.285q0-2.4-2.4-2.4h-7.7425q-2.4 0-2.4 2.4z" clip-path="url(#a)" fill="#fff" stroke="#fff"/>
<g clip-path="url(#a)">
<g transform="translate(884.46 822.46) rotate(90) scale(.08 -.08)">
<use xlink:href="#k"/>
<use x="60.818359" xlink:href="#d"/>
<use x="122.341797" xlink:href="#g"/>
<use x="163.439453" xlink:href="#l"/>
<use x="260.851562" xlink:href="#h"/>
<use x="288.634766" xlink:href="#j"/>
<use x="352.013672" xlink:href="#e"/>
<use x="413.292969" xlink:href="#i"/>
</g>
</g>
<path d="m1016.2 539.31 2.4448-4.896q1.0722-2.1472-1.075-3.2194l-6.9269-3.4589q-2.1472-1.0722-3.2194 1.075l-2.4448 4.896q-1.0722 2.1472 1.075 3.2194l6.9269 3.4589q2.1472 1.0722 3.2194-1.075z" clip-path="url(#a)" fill="#fff" stroke="#fff"/>
<g clip-path="url(#a)">
<g transform="translate(1012.5 537.5) rotate(-63.465) scale(.08 -.08)">
<use xlink:href="#q"/>
</g>
</g>
<path d="m1065.1 587.39 0.67053-4.5521q0.34975-2.3744-2.0246-2.7241l-7.6598-1.1283q-2.3744-0.34975-2.7241 2.0246l-0.67053 4.5521q-0.34975 2.3744 2.0246 2.7241l7.6598 1.1283q2.3744 0.34975 2.7241-2.0246z" clip-path="url(#a)" fill="#fff" stroke="#fff"/>
<g clip-path="url(#a)">
<defs>
<path id="ag" d="m9.8125 72.906h41.891v-8.3125h-32.031v-21.484h28.906v-8.2969h-28.906v-34.812h-9.8594z"/>
</defs>
<g transform="translate(1061 586.8) rotate(-81.621) scale(.08 -.08)">
<use xlink:href="#ag"/>
</g>
</g>
<path d="m1089.1 587.14 0.17563-5.4697q0.077023-2.3988-2.3217-2.4758l-7.7385-0.24848q-2.3988-0.077023-2.4758 2.3217l-0.17563 5.4697q-0.077023 2.3988 2.3217 2.4758l7.7385 0.24848q2.3988 0.077023 2.4758-2.3217z" clip-path="url(#a)" fill="#fff" stroke="#fff"/>
<g clip-path="url(#a)">
<g transform="translate(1085 587.01) rotate(-88.161) scale(.08 -.08)">
<use xlink:href="#q"/>
</g>
</g>
<path d="m1100.1 582.32 0.39939 4.8072q0.19871 2.3918 2.5905 2.193l7.7159-0.64105q2.3918-0.19871 2.193-2.5905l-0.39939-4.8072q-0.19871-2.3918-2.5905-2.193l-7.7159 0.64105q-2.3918 0.19871-2.193 2.5905z" clip-path="url(#a)" fill="#fff" stroke="#fff"/>
<g clip-path="url(#a)">
<g transform="translate(1104.2 581.98) rotate(85.251) scale(.08 -.08)">
<use xlink:href="#aa"/>
</g>
</g>
<path d="m1181.6 435.63 4.8086 2.6125q2.1089 1.1457 3.2546-0.96312l3.6962-6.8033q1.1457-2.1089-0.96312-3.2546l-4.8086-2.6125q-2.1089-1.1457-3.2546 0.96312l-3.6962 6.8033q-1.1457 2.1089 0.96312 3.2546z" clip-path="url(#a)" fill="#fff" stroke="#fff"/>
<g clip-path="url(#a)">
<g transform="translate(1183.6 432.05) rotate(28.515) scale(.08 -.08)">
<use xlink:href="#q"/>
</g>
</g>
<path d="m914.85 745.04 2.3877-5.0503q1.0258-2.1697-1.1439-3.1955l-6.9996-3.3093q-2.1697-1.0258-3.1955 1.1439l-2.3877 5.0503q-1.0258 2.1697 1.1439 3.1955l6.9996 3.3093q2.1697 1.0258 3.1955-1.1439z" clip-path="url(#a)" fill="#fff" stroke="#fff"/>
<g clip-path="url(#a)">
<g transform="translate(911.17 743.3) rotate(-64.696) scale(.08 -.08)">
<use xlink:href="#t"/>
</g>
</g>
<path d="m950.92 740 2.3759 5.0254q1.0258 2.1697 3.1955 1.1439l6.9996-3.3093q2.1697-1.0258 1.1439-3.1955l-2.3759-5.0254q-1.0258-2.1697-3.1955-1.1439l-6.9996 3.3093q-2.1697 1.0258-1.1439 3.1955z" clip-path="url(#a)" fill="#fff" stroke="#fff"/>
<g clip-path="url(#a)">
<defs>
<path id="af" d="m44.391 34.188q3.1719-1.0781 6.1719-4.5938t6.0312-9.6719l10.016-19.922h-10.609l-9.3125 18.703q-3.625 7.3281-7.0156 9.7188t-9.25 2.3906h-10.75v-30.812h-9.8594v72.906h22.266q12.5 0 18.656-5.2344 6.1562-5.2188 6.1562-15.766 0-6.8906-3.2031-11.438-3.2031-4.5312-9.2969-6.2812zm-24.719 30.609v-25.875h12.406q7.125 0 10.766 3.2969t3.6406 9.6875-3.6406 9.6406-10.766 3.25z"/>
</defs>
<g transform="translate(954.59 738.27) rotate(64.696) scale(.08 -.08)">
<use xlink:href="#af"/>
</g>
</g>
<path d="m1022.6 822.46v35.285q0 2.4 2.4 2.4h7.7425q2.4 0 2.4-2.4v-35.285q0-2.4-2.4-2.4h-7.7425q-2.4 0-2.4 2.4z" clip-path="url(#a)" fill="#fff" stroke="#fff"/>
<g clip-path="url(#a)">
<g transform="translate(1026.7 822.46) rotate(90) scale(.08 -.08)">
<use xlink:href="#k"/>
<use x="60.818359" xlink:href="#d"/>
<use x="122.341797" xlink:href="#g"/>
<use x="163.439453" xlink:href="#l"/>
<use x="260.851562" xlink:href="#h"/>
<use x="288.634766" xlink:href="#j"/>
<use x="352.013672" xlink:href="#e"/>
<use x="413.292969" xlink:href="#i"/>
</g>
</g>
<path d="m1070 822.46v35.285q0 2.4 2.4 2.4h7.7425q2.4 0 2.4-2.4v-35.285q0-2.4-2.4-2.4h-7.7425q-2.4 0-2.4 2.4z" clip-path="url(#a)" fill="#fff" stroke="#fff"/>
<g clip-path="url(#a)">
<g transform="translate(1074.1 822.46) rotate(90) scale(.08 -.08)">
<use xlink:href="#k"/>
<use x="60.818359" xlink:href="#d"/>
<use x="122.341797" xlink:href="#g"/>
<use x="163.439453" xlink:href="#l"/>
<use x="260.851562" xlink:href="#h"/>
<use x="288.634766" xlink:href="#j"/>
<use x="352.013672" xlink:href="#e"/>
<use x="413.292969" xlink:href="#i"/>
</g>
</g>
<path d="m1117.4 822.46v35.285q0 2.4 2.4 2.4h7.7425q2.4 0 2.4-2.4v-35.285q0-2.4-2.4-2.4h-7.7425q-2.4 0-2.4 2.4z" clip-path="url(#a)" fill="#fff" stroke="#fff"/>
<g clip-path="url(#a)">
<g transform="translate(1121.5 822.46) rotate(90) scale(.08 -.08)">
<use xlink:href="#k"/>
<use x="60.818359" xlink:href="#d"/>
<use x="122.341797" xlink:href="#g"/>
<use x="163.439453" xlink:href="#l"/>
<use x="260.851562" xlink:href="#h"/>
<use x="288.634766" xlink:href="#j"/>
<use x="352.013672" xlink:href="#e"/>
<use x="413.292969" xlink:href="#i"/>
</g>
</g>
<path d="m1232.8 641.74 1.7599-4.7388q0.83555-2.2499-1.4143-3.0854l-7.2581-2.6955q-2.2499-0.83555-3.0854 1.4143l-1.7599 4.7388q-0.83555 2.2499 1.4143 3.0854l7.2581 2.6955q2.2499 0.83555 3.0854-1.4143z" clip-path="url(#a)" fill="#fff" stroke="#fff"/>
<g clip-path="url(#a)">
<g transform="translate(1229 640.33) rotate(-69.626) scale(.08 -.08)">
<use xlink:href="#p"/>
</g>
</g>
<path d="m1269.2 640.82 0.76725-5.5333q0.32963-2.3773-2.0476-2.7069l-7.6691-1.0634q-2.3773-0.32963-2.7069 2.0476l-0.76725 5.5333q-0.32963 2.3773 2.0476 2.7069l7.6691 1.0634q2.3773 0.32963 2.7069-2.0476z" clip-path="url(#a)" fill="#fff" stroke="#fff"/>
<g clip-path="url(#a)">
<g transform="translate(1265.2 640.26) rotate(-82.106) scale(.08 -.08)">
<use xlink:href="#t"/>
</g>
</g>
<path d="m1342.2 539.49 3.918 3.1941q1.8602 1.5165 3.3767-0.34368l4.8923-6.001q1.5165-1.8602-0.34368-3.3767l-3.918-3.1941q-1.8602-1.5165-3.3767 0.34368l-4.8923 6.001q-1.5165 1.8602 0.34368 3.3767z" clip-path="url(#a)" fill="#fff" stroke="#fff"/>
<g clip-path="url(#a)">
<g transform="translate(1344.8 536.34) rotate(39.188) scale(.08 -.08)">
<use xlink:href="#p"/>
</g>
</g>
<path d="m1292.4 634.86 0.54828 5.8293q0.22474 2.3895 2.6142 2.1647l7.7085-0.72503q2.3895-0.22474 2.1647-2.6142l-0.54828-5.8293q-0.22474-2.3895-2.6142-2.1647l-7.7085 0.72503q-2.3895 0.22474-2.1647 2.6142z" clip-path="url(#a)" fill="#fff" stroke="#fff"/>
<g clip-path="url(#a)">
<g transform="translate(1296.5 634.48) rotate(84.627) scale(.08 -.08)">
<use xlink:href="#ae"/>
</g>
</g>
<path d="m1164.8 822.46v35.285q0 2.4 2.4 2.4h7.7425q2.4 0 2.4-2.4v-35.285q0-2.4-2.4-2.4h-7.7425q-2.4 0-2.4 2.4z" clip-path="url(#a)" fill="#fff" stroke="#fff"/>
<g clip-path="url(#a)">
<g transform="translate(1168.9 822.46) rotate(90) scale(.08 -.08)">
<use xlink:href="#k"/>
<use x="60.818359" xlink:href="#d"/>
<use x="122.341797" xlink:href="#g"/>
<use x="163.439453" xlink:href="#l"/>
<use x="260.851562" xlink:href="#h"/>
<use x="288.634766" xlink:href="#j"/>
<use x="352.013672" xlink:href="#e"/>
<use x="413.292969" xlink:href="#i"/>
</g>
</g>
<path d="m1232.4 858.72 8.1173-34.339q0.55212-2.3356-1.7835-2.8877l-7.5348-1.7812q-2.3356-0.55212-2.8877 1.7835l-8.1173 34.339q-0.55212 2.3356 1.7835 2.8877l7.5348 1.7812q2.3356 0.55212 2.8877-1.7835z" clip-path="url(#a)" fill="#fff" stroke="#fff"/>
<g clip-path="url(#a)">
<g transform="translate(1228.4 857.78) rotate(-76.7) scale(.08 -.08)">
<use xlink:href="#k"/>
<use x="60.818359" xlink:href="#d"/>
<use x="122.341797" xlink:href="#g"/>
<use x="163.439453" xlink:href="#l"/>
<use x="260.851562" xlink:href="#h"/>
<use x="288.634766" xlink:href="#j"/>
<use x="352.013672" xlink:href="#e"/>
<use x="413.292969" xlink:href="#i"/>
</g>
</g>
<path d="m1243.9 824.38 8.1173 34.339q0.55212 2.3356 2.8877 1.7835l7.5348-1.7812q2.3356-0.55212 1.7835-2.8877l-8.1173-34.339q-0.55212-2.3356-2.8877-1.7835l-7.5348 1.7812q-2.3356 0.55212-1.7835 2.8877z" clip-path="url(#a)" fill="#fff" stroke="#fff"/>
<g clip-path="url(#a)">
<g transform="translate(1247.9 823.44) rotate(76.7) scale(.08 -.08)">
<use xlink:href="#k"/>
<use x="60.818359" xlink:href="#d"/>
<use x="122.341797" xlink:href="#g"/>
<use x="163.439453" xlink:href="#l"/>
<use x="260.851562" xlink:href="#h"/>
<use x="288.634766" xlink:href="#j"/>
<use x="352.013672" xlink:href="#e"/>
<use x="413.292969" xlink:href="#i"/>
</g>
</g>
<path d="m1330 695.13 3.518-4.1919q1.5429-1.8384-0.2955-3.3812l-5.9306-4.9773q-1.8384-1.5429-3.3812 0.2955l-3.518 4.1919q-1.5429 1.8384 0.2955 3.3812l5.9306 4.9773q1.8384 1.5429 3.3812-0.2955z" clip-path="url(#a)" fill="#fff" stroke="#fff"/>
<g clip-path="url(#a)">
<g transform="translate(1326.9 692.52) rotate(-49.995) scale(.08 -.08)">
<use xlink:href="#q"/>
</g>
</g>
<path d="m1391.7 692.77 1.1259-4.4614q0.58726-2.327-1.7398-2.9143l-7.5071-1.8945q-2.327-0.58726-2.9143 1.7398l-1.1259 4.4614q-0.58726 2.327 1.7398 2.9143l7.5071 1.8945q2.327 0.58726 2.9143-1.7398z" clip-path="url(#a)" fill="#fff" stroke="#fff"/>
<g clip-path="url(#a)">
<g transform="translate(1387.8 691.77) rotate(-75.836) scale(.08 -.08)">
<use xlink:href="#ag"/>
</g>
</g>
<path d="m1416.1 691.41 0.081001-4.6005q0.042249-2.3996-2.3574-2.4419l-7.7413-0.1363q-2.3996-0.04225-2.4419 2.3574l-0.081001 4.6005q-0.042249 2.3996 2.3574 2.4419l7.7413 0.1363q2.3996 0.04225 2.4419-2.3574z" clip-path="url(#a)" fill="#fff" stroke="#fff"/>
<g clip-path="url(#a)">
<g transform="translate(1412.1 691.34) rotate(-88.991) scale(.08 -.08)">
<use xlink:href="#ag"/>
</g>
</g>
<path d="m1427 687.98 1.0236 4.7139q0.50929 2.3453 2.8546 1.836l7.5662-1.643q2.3453-0.50929 1.836-2.8546l-1.0236-4.7139q-0.50929-2.3453-2.8546-1.836l-7.5662 1.643q-2.3453 0.50929-1.836 2.8546z" clip-path="url(#a)" fill="#fff" stroke="#fff"/>
<g clip-path="url(#a)">
<g transform="translate(1430.9 687.11) rotate(77.748) scale(.08 -.08)">
<use xlink:href="#aa"/>
</g>
</g>
<path d="m1496.3 642.98 4.7659 2.6897q2.0901 1.1796 3.2697-0.91054l3.8054-6.7428q1.1796-2.0901-0.91054-3.2697l-4.7659-2.6897q-2.0901-1.1796-3.2697 0.91054l-3.8054 6.7428q-1.1796 2.0901 0.91054 3.2697z" clip-path="url(#a)" fill="#fff" stroke="#fff"/>
<g clip-path="url(#a)">
<g transform="translate(1498.3 639.45) rotate(29.439) scale(.08 -.08)">
<use xlink:href="#q"/>
</g>
</g>
<path d="m1354.5 822.46v35.285q0 2.4 2.4 2.4h7.7425q2.4 0 2.4-2.4v-35.285q0-2.4-2.4-2.4h-7.7425q-2.4 0-2.4 2.4z" clip-path="url(#a)" fill="#fff" stroke="#fff"/>
<g clip-path="url(#a)">
<g transform="translate(1358.5 822.46) rotate(90) scale(.08 -.08)">
<use xlink:href="#k"/>
<use x="60.818359" xlink:href="#d"/>
<use x="122.341797" xlink:href="#g"/>
<use x="163.439453" xlink:href="#l"/>
<use x="260.851562" xlink:href="#h"/>
<use x="288.634766" xlink:href="#j"/>
<use x="352.013672" xlink:href="#e"/>
<use x="413.292969" xlink:href="#i"/>
</g>
</g>
<path d="m1401.9 822.46v35.285q0 2.4 2.4 2.4h7.7425q2.4 0 2.4-2.4v-35.285q0-2.4-2.4-2.4h-7.7425q-2.4 0-2.4 2.4z" clip-path="url(#a)" fill="#fff" stroke="#fff"/>
<g clip-path="url(#a)">
<g transform="translate(1405.9 822.46) rotate(90) scale(.08 -.08)">
<use xlink:href="#k"/>
<use x="60.818359" xlink:href="#d"/>
<use x="122.341797" xlink:href="#g"/>
<use x="163.439453" xlink:href="#l"/>
<use x="260.851562" xlink:href="#h"/>
<use x="288.634766" xlink:href="#j"/>
<use x="352.013672" xlink:href="#e"/>
<use x="413.292969" xlink:href="#i"/>
</g>
</g>
<path d="m1449.3 822.46v35.285q0 2.4 2.4 2.4h7.7425q2.4 0 2.4-2.4v-35.285q0-2.4-2.4-2.4h-7.7425q-2.4 0-2.4 2.4z" clip-path="url(#a)" fill="#fff" stroke="#fff"/>
<g clip-path="url(#a)">
<g transform="translate(1453.3 822.46) rotate(90) scale(.08 -.08)">
<use xlink:href="#k"/>
<use x="60.818359" xlink:href="#d"/>
<use x="122.341797" xlink:href="#g"/>
<use x="163.439453" xlink:href="#l"/>
<use x="260.851562" xlink:href="#h"/>
<use x="288.634766" xlink:href="#j"/>
<use x="352.013672" xlink:href="#e"/>
<use x="413.292969" xlink:href="#i"/>
</g>
</g>
<path d="m1550.2 746.07 3.6874-4.1597q1.592-1.7959-0.20391-3.388l-5.7938-5.136q-1.7959-1.592-3.388 0.20391l-3.6874 4.1597q-1.592 1.7959 0.20391 3.388l5.7938 5.136q1.7959 1.592 3.388-0.20391z" clip-path="url(#a)" fill="#fff" stroke="#fff"/>
<g clip-path="url(#a)">
<g transform="translate(1547.2 743.38) rotate(-48.444) scale(.08 -.08)">
<use xlink:href="#af"/>
</g>
</g>
<path d="m1575.9 744.57 1.9323-4.6711q0.91744-2.2177-1.3003-3.1352l-7.1545-2.9597q-2.2177-0.91744-3.1352 1.3003l-1.9323 4.6711q-0.91744 2.2177 1.3003 3.1352l7.1545 2.9597q2.2177 0.91744 3.1352-1.3003z" clip-path="url(#a)" fill="#fff" stroke="#fff"/>
<g clip-path="url(#a)">
<g transform="translate(1572.2 743.01) rotate(-67.526) scale(.08 -.08)">
<use xlink:href="#p"/>
</g>
</g>
<path d="m1599.8 738.93 1.583 5.3573q0.6801 2.3016 2.9817 1.6215l7.4251-2.194q2.3016-0.6801 1.6215-2.9817l-1.583-5.3573q-0.6801-2.3016-2.9817-1.6215l-7.4251 2.194q-2.3016 0.6801-1.6215 2.9817z" clip-path="url(#a)" fill="#fff" stroke="#fff"/>
<g clip-path="url(#a)">
<g transform="translate(1603.7 737.78) rotate(73.538) scale(.08 -.08)">
<use xlink:href="#t"/>
</g>
</g>
<path d="m1635.7 742.21 4.1497 4.1305q1.701 1.6931 3.3941-0.007886l5.462-5.4875q1.6931-1.701-0.007886-3.3941l-4.1497-4.1305q-1.701-1.6931-3.3941 0.007886l-5.462 5.4875q-1.6931 1.701 0.007887 3.3941z" clip-path="url(#a)" fill="#fff" stroke="#fff"/>
<g clip-path="url(#a)">
<g transform="translate(1638.6 739.33) rotate(44.867) scale(.08 -.08)">
<use xlink:href="#ae"/>
</g>
</g>
<path d="m1496.7 822.46v35.285q0 2.4 2.4 2.4h7.7425q2.4 0 2.4-2.4v-35.285q0-2.4-2.4-2.4h-7.7425q-2.4 0-2.4 2.4z" clip-path="url(#a)" fill="#fff" stroke="#fff"/>
<g clip-path="url(#a)">
<g transform="translate(1500.7 822.46) rotate(90) scale(.08 -.08)">
<use xlink:href="#k"/>
<use x="60.818359" xlink:href="#d"/>
<use x="122.341797" xlink:href="#g"/>
<use x="163.439453" xlink:href="#l"/>
<use x="260.851562" xlink:href="#h"/>
<use x="288.634766" xlink:href="#j"/>
<use x="352.013672" xlink:href="#e"/>
<use x="413.292969" xlink:href="#i"/>
</g>
</g>
<path d="m1544.1 822.46v35.285q0 2.4 2.4 2.4h7.7425q2.4 0 2.4-2.4v-35.285q0-2.4-2.4-2.4h-7.7425q-2.4 0-2.4 2.4z" clip-path="url(#a)" fill="#fff" stroke="#fff"/>
<g clip-path="url(#a)">
<g transform="translate(1548.1 822.46) rotate(90) scale(.08 -.08)">
<use xlink:href="#k"/>
<use x="60.818359" xlink:href="#d"/>
<use x="122.341797" xlink:href="#g"/>
<use x="163.439453" xlink:href="#l"/>
<use x="260.851562" xlink:href="#h"/>
<use x="288.634766" xlink:href="#j"/>
<use x="352.013672" xlink:href="#e"/>
<use x="413.292969" xlink:href="#i"/>
</g>
</g>
<path d="m1611.6 858.72 8.1173-34.339q0.55212-2.3356-1.7835-2.8877l-7.5348-1.7812q-2.3356-0.55212-2.8877 1.7835l-8.1173 34.339q-0.55212 2.3356 1.7835 2.8877l7.5348 1.7812q2.3356 0.55212 2.8877-1.7835z" clip-path="url(#a)" fill="#fff" stroke="#fff"/>
<g clip-path="url(#a)">
<g transform="translate(1607.7 857.78) rotate(-76.7) scale(.08 -.08)">
<use xlink:href="#k"/>
<use x="60.818359" xlink:href="#d"/>
<use x="122.341797" xlink:href="#g"/>
<use x="163.439453" xlink:href="#l"/>
<use x="260.851562" xlink:href="#h"/>
<use x="288.634766" xlink:href="#j"/>
<use x="352.013672" xlink:href="#e"/>
<use x="413.292969" xlink:href="#i"/>
</g>
</g>
<path d="m1623.1 824.38 8.1173 34.339q0.55212 2.3356 2.8877 1.7835l7.5348-1.7812q2.3356-0.55212 1.7835-2.8877l-8.1173-34.339q-0.55212-2.3356-2.8877-1.7835l-7.5348 1.7812q-2.3356 0.55212-1.7835 2.8877z" clip-path="url(#a)" fill="#fff" stroke="#fff"/>
<g clip-path="url(#a)">
<g transform="translate(1627.1 823.44) rotate(76.7) scale(.08 -.08)">
<use xlink:href="#k"/>
<use x="60.818359" xlink:href="#d"/>
<use x="122.341797" xlink:href="#g"/>
<use x="163.439453" xlink:href="#l"/>
<use x="260.851562" xlink:href="#h"/>
<use x="288.634766" xlink:href="#j"/>
<use x="352.013672" xlink:href="#e"/>
<use x="413.292969" xlink:href="#i"/>
</g>
</g>
<path d="m975.21 822.46v35.285q0 2.4 2.4 2.4h7.7425q2.4 0 2.4-2.4v-35.285q0-2.4-2.4-2.4h-7.7425q-2.4 0-2.4 2.4z" clip-path="url(#a)" fill="#fff" stroke="#fff"/>
<g clip-path="url(#a)">
<g transform="translate(979.27 822.46) rotate(90) scale(.08 -.08)">
<use xlink:href="#k"/>
<use x="60.818359" xlink:href="#d"/>
<use x="122.341797" xlink:href="#g"/>
<use x="163.439453" xlink:href="#l"/>
<use x="260.851562" xlink:href="#h"/>
<use x="288.634766" xlink:href="#j"/>
<use x="352.013672" xlink:href="#e"/>
<use x="413.292969" xlink:href="#i"/>
</g>
</g>
<path d="m98.146 743.74 1.1629-4.9194q0.55212-2.3356-1.7835-2.8877l-7.5348-1.7812q-2.3356-0.55212-2.8877 1.7835l-1.1629 4.9194q-0.55212 2.3356 1.7835 2.8877l7.5348 1.7812q2.3356 0.55212 2.8877-1.7835z" clip-path="url(#a)" fill="#fff" stroke="#fff"/>
<g clip-path="url(#a)">
<g transform="translate(94.191 742.8) rotate(-76.7) scale(.08 -.08)">
<use xlink:href="#p"/>
</g>
</g>
<path d="m109.58 738.56 1.2851 5.4364q0.55212 2.3356 2.8877 1.7835l7.5348-1.7812q2.3356-0.55212 1.7835-2.8877l-1.2851-5.4364q-0.55212-2.3356-2.8877-1.7835l-7.5348 1.7812q-2.3356 0.55212-1.7835 2.8877z" clip-path="url(#a)" fill="#fff" stroke="#fff"/>
<g clip-path="url(#a)">
<g transform="translate(113.54 737.62) rotate(76.7) scale(.08 -.08)">
<use xlink:href="#t"/>
</g>
</g>
<path d="m169.31 822.46v35.285q0 2.4 2.4 2.4h7.7425q2.4 0 2.4-2.4v-35.285q0-2.4-2.4-2.4h-7.7425q-2.4 0-2.4 2.4z" clip-path="url(#a)" fill="#fff" stroke="#fff"/>
<g clip-path="url(#a)">
<g transform="translate(173.38 822.46) rotate(90) scale(.08 -.08)">
<use xlink:href="#k"/>
<use x="60.818359" xlink:href="#d"/>
<use x="122.341797" xlink:href="#g"/>
<use x="163.439453" xlink:href="#l"/>
<use x="260.851562" xlink:href="#h"/>
<use x="288.634766" xlink:href="#j"/>
<use x="352.013672" xlink:href="#e"/>
<use x="413.292969" xlink:href="#i"/>
</g>
</g>
<path d="m275 693.96 2.1484-4.5757q1.02-2.1725-1.1525-3.1925l-7.0085-3.2906q-2.1725-1.02-3.1925 1.1525l-2.1484 4.5757q-1.02 2.1725 1.1525 3.1925l7.0085 3.2906q2.1725 1.02 3.1925-1.1525z" clip-path="url(#a)" fill="#fff" stroke="#fff"/>
<g clip-path="url(#a)">
<g transform="translate(271.32 692.23) rotate(-64.849) scale(.08 -.08)">
<use xlink:href="#p"/>
</g>
</g>
<path d="m311.53 636.34v5.055q0 2.4 2.4 2.4h7.7425q2.4 0 2.4-2.4v-5.055q0-2.4-2.4-2.4h-7.7425q-2.4 0-2.4 2.4z" clip-path="url(#a)" fill="#fff" stroke="#fff"/>
<g clip-path="url(#a)">
<g transform="translate(315.59 636.34) rotate(90) scale(.08 -.08)">
<use xlink:href="#p"/>
</g>
</g>
<path d="m358.34 689.14 2.3742 5.0566q1.02 2.1725 3.1925 1.1525l7.0085-3.2906q2.1725-1.02 1.1525-3.1925l-2.3742-5.0566q-1.02-2.1725-3.1925-1.1525l-7.0085 3.2906q-2.1725 1.02-1.1525 3.1925z" clip-path="url(#a)" fill="#fff" stroke="#fff"/>
<g clip-path="url(#a)">
<g transform="translate(362.02 687.41) rotate(64.849) scale(.08 -.08)">
<use xlink:href="#t"/>
</g>
</g>
<path d="m499.08 745.73 3.2156-4.5343q1.3883-1.9577-0.56935-3.346l-6.3156-4.4788q-1.9577-1.3883-3.346 0.56935l-3.2156 4.5343q-1.3883 1.9577 0.56935 3.346l6.3156 4.4788q1.9577 1.3883 3.346-0.56935z" clip-path="url(#a)" fill="#fff" stroke="#fff"/>
<g clip-path="url(#a)">
<g transform="translate(495.76 743.38) rotate(-54.657) scale(.08 -.08)">
<use xlink:href="#af"/>
</g>
</g>
<path d="m524.8 743.74 1.1629-4.9194q0.55212-2.3356-1.7835-2.8877l-7.5348-1.7812q-2.3356-0.55212-2.8877 1.7835l-1.1629 4.9194q-0.55212 2.3356 1.7835 2.8877l7.5348 1.7812q2.3356 0.55212 2.8877-1.7835z" clip-path="url(#a)" fill="#fff" stroke="#fff"/>
<g clip-path="url(#a)">
<g transform="translate(520.84 742.8) rotate(-76.7) scale(.08 -.08)">
<use xlink:href="#p"/>
</g>
</g>
<path d="m536.29 738.82 1.1629 4.9194q0.55212 2.3356 2.8877 1.7835l7.5348-1.7812q2.3356-0.55212 1.7835-2.8877l-1.1629-4.9194q-0.55212-2.3356-2.8877-1.7835l-7.5348 1.7812q-2.3356 0.55212-1.7835 2.8877z" clip-path="url(#a)" fill="#fff" stroke="#fff"/>
<g clip-path="url(#a)">
<g transform="translate(540.25 737.88) rotate(76.7) scale(.08 -.08)">
<use xlink:href="#p"/>
</g>
</g>
<path d="m559.95 741.18 3.2315 4.5567q1.3883 1.9577 3.346 0.56935l6.3156-4.4788q1.9577-1.3883 0.56935-3.346l-3.2315-4.5567q-1.3883-1.9577-3.346-0.56935l-6.3156 4.4788q-1.9577 1.3883-0.56935 3.346z" clip-path="url(#a)" fill="#fff" stroke="#fff"/>
<g clip-path="url(#a)">
<g transform="translate(563.26 738.83) rotate(54.657) scale(.08 -.08)">
<use xlink:href="#t"/>
</g>
</g>
<path d="m453.75 822.46v35.285q0 2.4 2.4 2.4h7.7425q2.4 0 2.4-2.4v-35.285q0-2.4-2.4-2.4h-7.7425q-2.4 0-2.4 2.4z" clip-path="url(#a)" fill="#fff" stroke="#fff"/>
<g clip-path="url(#a)">
<g transform="translate(457.81 822.46) rotate(90) scale(.08 -.08)">
<use xlink:href="#k"/>
<use x="60.818359" xlink:href="#d"/>
<use x="122.341797" xlink:href="#g"/>
<use x="163.439453" xlink:href="#l"/>
<use x="260.851562" xlink:href="#h"/>
<use x="288.634766" xlink:href="#j"/>
<use x="352.013672" xlink:href="#e"/>
<use x="413.292969" xlink:href="#i"/>
</g>
</g>
<path d="m501.15 822.46v35.285q0 2.4 2.4 2.4h7.7425q2.4 0 2.4-2.4v-35.285q0-2.4-2.4-2.4h-7.7425q-2.4 0-2.4 2.4z" clip-path="url(#a)" fill="#fff" stroke="#fff"/>
<g clip-path="url(#a)">
<g transform="translate(505.21 822.46) rotate(90) scale(.08 -.08)">
<use xlink:href="#k"/>
<use x="60.818359" xlink:href="#d"/>
<use x="122.341797" xlink:href="#g"/>
<use x="163.439453" xlink:href="#l"/>
<use x="260.851562" xlink:href="#h"/>
<use x="288.634766" xlink:href="#j"/>
<use x="352.013672" xlink:href="#e"/>
<use x="413.292969" xlink:href="#i"/>
</g>
</g>
<path d="m548.56 822.46v35.285q0 2.4 2.4 2.4h7.7425q2.4 0 2.4-2.4v-35.285q0-2.4-2.4-2.4h-7.7425q-2.4 0-2.4 2.4z" clip-path="url(#a)" fill="#fff" stroke="#fff"/>
<g clip-path="url(#a)">
<g transform="translate(552.62 822.46) rotate(90) scale(.08 -.08)">
<use xlink:href="#k"/>
<use x="60.818359" xlink:href="#d"/>
<use x="122.341797" xlink:href="#g"/>
<use x="163.439453" xlink:href="#l"/>
<use x="260.851562" xlink:href="#h"/>
<use x="288.634766" xlink:href="#j"/>
<use x="352.013672" xlink:href="#e"/>
<use x="413.292969" xlink:href="#i"/>
</g>
</g>
<path d="m595.96 822.46v35.285q0 2.4 2.4 2.4h7.7425q2.4 0 2.4-2.4v-35.285q0-2.4-2.4-2.4h-7.7425q-2.4 0-2.4 2.4z" clip-path="url(#a)" fill="#fff" stroke="#fff"/>
<g clip-path="url(#a)">
<g transform="translate(600.03 822.46) rotate(90) scale(.08 -.08)">
<use xlink:href="#k"/>
<use x="60.818359" xlink:href="#d"/>
<use x="122.341797" xlink:href="#g"/>
<use x="163.439453" xlink:href="#l"/>
<use x="260.851562" xlink:href="#h"/>
<use x="288.634766" xlink:href="#j"/>
<use x="352.013672" xlink:href="#e"/>
<use x="413.292969" xlink:href="#i"/>
</g>
</g>
<path d="m216.72 822.46v35.285q0 2.4 2.4 2.4h7.7425q2.4 0 2.4-2.4v-35.285q0-2.4-2.4-2.4h-7.7425q-2.4 0-2.4 2.4z" clip-path="url(#a)" fill="#fff" stroke="#fff"/>
<g clip-path="url(#a)">
<g transform="translate(220.78 822.46) rotate(90) scale(.08 -.08)">
<use xlink:href="#k"/>
<use x="60.818359" xlink:href="#d"/>
<use x="122.341797" xlink:href="#g"/>
<use x="163.439453" xlink:href="#l"/>
<use x="260.851562" xlink:href="#h"/>
<use x="288.634766" xlink:href="#j"/>
<use x="352.013672" xlink:href="#e"/>
<use x="413.292969" xlink:href="#i"/>
</g>
</g>
<path d="m296.14 808.58 8.1173-34.339q0.55212-2.3356-1.7835-2.8877l-7.5348-1.7812q-2.3356-0.55212-2.8877 1.7835l-8.1173 34.339q-0.55212 2.3356 1.7835 2.8877l7.5348 1.7812q2.3356 0.55212 2.8877-1.7835z" clip-path="url(#a)" fill="#fff" stroke="#fff"/>
<g clip-path="url(#a)">
<g transform="translate(292.19 807.65) rotate(-76.7) scale(.08 -.08)">
<use xlink:href="#k"/>
<use x="60.818359" xlink:href="#d"/>
<use x="122.341797" xlink:href="#g"/>
<use x="163.439453" xlink:href="#l"/>
<use x="260.851562" xlink:href="#h"/>
<use x="288.634766" xlink:href="#j"/>
<use x="352.013672" xlink:href="#e"/>
<use x="413.292969" xlink:href="#i"/>
</g>
</g>
<path d="m331.34 774.24 8.1173 34.339q0.55212 2.3356 2.8877 1.7835l7.5348-1.7812q2.3356-0.55212 1.7835-2.8877l-8.1173-34.339q-0.55212-2.3356-2.8877-1.7835l-7.5348 1.7812q-2.3356 0.55212-1.7835 2.8877z" clip-path="url(#a)" fill="#fff" stroke="#fff"/>
<g clip-path="url(#a)">
<g transform="translate(335.3 773.31) rotate(76.7) scale(.08 -.08)">
<use xlink:href="#k"/>
<use x="60.818359" xlink:href="#d"/>
<use x="122.341797" xlink:href="#g"/>
<use x="163.439453" xlink:href="#l"/>
<use x="260.851562" xlink:href="#h"/>
<use x="288.634766" xlink:href="#j"/>
<use x="352.013672" xlink:href="#e"/>
<use x="413.292969" xlink:href="#i"/>
</g>
</g>
<path d="m311.53 736.91v5.855q0 2.4 2.4 2.4h7.7425q2.4 0 2.4-2.4v-5.855q0-2.4-2.4-2.4h-7.7425q-2.4 0-2.4 2.4z" clip-path="url(#a)" fill="#fff" stroke="#fff"/>
<g clip-path="url(#a)">
<g transform="translate(315.59 736.91) rotate(90) scale(.08 -.08)">
<use xlink:href="#ae"/>
</g>
</g>
<path d="m406.34 822.46v35.285q0 2.4 2.4 2.4h7.7425q2.4 0 2.4-2.4v-35.285q0-2.4-2.4-2.4h-7.7425q-2.4 0-2.4 2.4z" clip-path="url(#a)" fill="#fff" stroke="#fff"/>
<g clip-path="url(#a)">
<g transform="translate(410.4 822.46) rotate(90) scale(.08 -.08)">
<use xlink:href="#k"/>
<use x="60.818359" xlink:href="#d"/>
<use x="122.341797" xlink:href="#g"/>
<use x="163.439453" xlink:href="#l"/>
<use x="260.851562" xlink:href="#h"/>
<use x="288.634766" xlink:href="#j"/>
<use x="352.013672" xlink:href="#e"/>
<use x="413.292969" xlink:href="#i"/>
</g>
</g>
<path d="m311.53 822.46v35.285q0 2.4 2.4 2.4h7.7425q2.4 0 2.4-2.4v-35.285q0-2.4-2.4-2.4h-7.7425q-2.4 0-2.4 2.4z" clip-path="url(#a)" fill="#fff" stroke="#fff"/>
<g clip-path="url(#a)">
<g transform="translate(315.59 822.46) rotate(90) scale(.08 -.08)">
<use xlink:href="#k"/>
<use x="60.818359" xlink:href="#d"/>
<use x="122.341797" xlink:href="#g"/>
<use x="163.439453" xlink:href="#l"/>
<use x="260.851562" xlink:href="#h"/>
<use x="288.634766" xlink:href="#j"/>
<use x="352.013672" xlink:href="#e"/>
<use x="413.292969" xlink:href="#i"/>
</g>
</g>
<path d="m74.501 822.46v35.285q0 2.4 2.4 2.4h7.7425q2.4 0 2.4-2.4v-35.285q0-2.4-2.4-2.4h-7.7425q-2.4 0-2.4 2.4z" clip-path="url(#a)" fill="#fff" stroke="#fff"/>
<g clip-path="url(#a)">
<g transform="translate(78.565 822.46) rotate(90) scale(.08 -.08)">
<use xlink:href="#k"/>
<use x="60.818359" xlink:href="#d"/>
<use x="122.341797" xlink:href="#g"/>
<use x="163.439453" xlink:href="#l"/>
<use x="260.851562" xlink:href="#h"/>
<use x="288.634766" xlink:href="#j"/>
<use x="352.013672" xlink:href="#e"/>
<use x="413.292969" xlink:href="#i"/>
</g>
</g>
<path d="m121.91 822.46v35.285q0 2.4 2.4 2.4h7.7425q2.4 0 2.4-2.4v-35.285q0-2.4-2.4-2.4h-7.7425q-2.4 0-2.4 2.4z" clip-path="url(#a)" fill="#fff" stroke="#fff"/>
<g clip-path="url(#a)">
<g transform="translate(125.97 822.46) rotate(90) scale(.08 -.08)">
<use xlink:href="#k"/>
<use x="60.818359" xlink:href="#d"/>
<use x="122.341797" xlink:href="#g"/>
<use x="163.439453" xlink:href="#l"/>
<use x="260.851562" xlink:href="#h"/>
<use x="288.634766" xlink:href="#j"/>
<use x="352.013672" xlink:href="#e"/>
<use x="413.292969" xlink:href="#i"/>
</g>
</g>
<path d="m394.65 270.98 4.3983-8.9056q1.0628-2.1519-1.0891-3.2146l-6.942-3.4285q-2.1519-1.0628-3.2146 1.0891l-4.3983 8.9056q-1.0628 2.1519 1.0891 3.2146l6.942 3.4285q2.1519 1.0628 3.2146-1.0891z" clip-path="url(#a)" fill="#fff" stroke="#fff"/>
<g clip-path="url(#a)">
<g transform="translate(391.01 269.18) rotate(-63.716) scale(.08 -.08)">
<use xlink:href="#ab"/>
<use x="55.744141" xlink:href="#q"/>
</g>
</g>
<path d="m567.79 412.85 1.9651 9.8216q0.47086 2.3534 2.8242 1.8825l7.592-1.519q2.3534-0.47086 1.8825-2.8242l-1.9651-9.8216q-0.47086-2.3534-2.8242-1.8825l-7.592 1.519q-2.3534 0.47086-1.8825 2.8242z" clip-path="url(#a)" fill="#fff" stroke="#fff"/>
<g clip-path="url(#a)">
<g transform="translate(571.77 412.05) rotate(78.686) scale(.08 -.08)">
<use xlink:href="#ab"/>
<use x="55.712891" xlink:href="#af"/>
</g>
</g>
<path d="m526.54 99.525 5.0852 8.532q1.2287 2.0616 3.2903 0.83285l6.6508-3.964q2.0616-1.2287 0.83285-3.2903l-5.0852-8.532q-1.2287-2.0616-3.2903-0.83285l-6.6508 3.964q-2.0616 1.2287-0.83285 3.2903z" clip-path="url(#a)" fill="#fff" stroke="#fff"/>
<g clip-path="url(#a)">
<g transform="translate(530.03 97.444) rotate(59.204) scale(.08 -.08)">
<use xlink:href="#ab"/>
<use x="55.744141" xlink:href="#q"/>
</g>
</g>
<path d="m927.8 822.46v35.285q0 2.4 2.4 2.4h7.7425q2.4 0 2.4-2.4v-35.285q0-2.4-2.4-2.4h-7.7425q-2.4 0-2.4 2.4z" clip-path="url(#a)" fill="#fff" stroke="#fff"/>
<g clip-path="url(#a)">
<g transform="translate(931.86 822.46) rotate(90) scale(.08 -.08)">
<use xlink:href="#k"/>
<use x="60.818359" xlink:href="#d"/>
<use x="122.341797" xlink:href="#g"/>
<use x="163.439453" xlink:href="#l"/>
<use x="260.851562" xlink:href="#h"/>
<use x="288.634766" xlink:href="#j"/>
<use x="352.013672" xlink:href="#e"/>
<use x="413.292969" xlink:href="#i"/>
</g>
</g>
<path d="m1307 822.46v35.285q0 2.4 2.4 2.4h7.7425q2.4 0 2.4-2.4v-35.285q0-2.4-2.4-2.4h-7.7425q-2.4 0-2.4 2.4z" clip-path="url(#a)" fill="#fff" stroke="#fff"/>
<g clip-path="url(#a)">
<g transform="translate(1311.1 822.46) rotate(90) scale(.08 -.08)">
<use xlink:href="#k"/>
<use x="60.818359" xlink:href="#d"/>
<use x="122.341797" xlink:href="#g"/>
<use x="163.439453" xlink:href="#l"/>
<use x="260.851562" xlink:href="#h"/>
<use x="288.634766" xlink:href="#j"/>
<use x="352.013672" xlink:href="#e"/>
<use x="413.292969" xlink:href="#i"/>
</g>
</g>
<path d="m1686.3 822.46v35.285q0 2.4 2.4 2.4h7.7425q2.4 0 2.4-2.4v-35.285q0-2.4-2.4-2.4h-7.7425q-2.4 0-2.4 2.4z" clip-path="url(#a)" fill="#fff" stroke="#fff"/>
<g clip-path="url(#a)">
<g transform="translate(1690.4 822.46) rotate(90) scale(.08 -.08)">
<use xlink:href="#k"/>
<use x="60.818359" xlink:href="#d"/>
<use x="122.341797" xlink:href="#g"/>
<use x="163.439453" xlink:href="#l"/>
<use x="260.851562" xlink:href="#h"/>
<use x="288.634766" xlink:href="#j"/>
<use x="352.013672" xlink:href="#e"/>
<use x="413.292969" xlink:href="#i"/>
</g>
</g>
<defs>
<path id="b" d="m0 8.6603c2.2967 0 4.4997-0.9125 6.1237-2.5365 1.624-1.624 2.5365-3.827 2.5365-6.1237s-0.9125-4.4997-2.5365-6.1237c-1.624-1.624-3.827-2.5365-6.1237-2.5365s-4.4997 0.9125-6.1237 2.5365c-1.624 1.624-2.5365 3.827-2.5365 6.1237s0.9125 4.4997 2.5365 6.1237c1.624 1.624 3.827 2.5365 6.1237 2.5365z"/>
</defs>
<g clip-path="url(#a)">
<use x="80.772748" y="890.239212" fill="#ffffff" stroke="#ffffff" xlink:href="#b"/>
</g>
<g clip-path="url(#a)">
<use x="128.178272" y="890.239212" fill="#ffffff" stroke="#ffffff" xlink:href="#b"/>
</g>
<g clip-path="url(#a)">
<use x="175.583797" y="890.239212" fill="#ffffff" stroke="#ffffff" xlink:href="#b"/>
</g>
<g clip-path="url(#a)">
<use x="222.989322" y="890.239212" fill="#ffffff" stroke="#ffffff" xlink:href="#b"/>
</g>
<g clip-path="url(#a)">
<use x="270.394846" y="890.239212" fill="#ffffff" stroke="#ffffff" xlink:href="#b"/>
</g>
<g clip-path="url(#a)">
<use x="317.800371" y="890.239212" fill="#ffffff" stroke="#ffffff" xlink:href="#b"/>
</g>
<g clip-path="url(#a)">
<use x="365.205896" y="890.239212" fill="#ffffff" stroke="#ffffff" xlink:href="#b"/>
</g>
<g clip-path="url(#a)">
<use x="412.61142" y="890.239212" fill="#ffffff" stroke="#ffffff" xlink:href="#b"/>
</g>
<g clip-path="url(#a)">
<use x="460.016945" y="890.239212" fill="#ffffff" stroke="#ffffff" xlink:href="#b"/>
</g>
<g clip-path="url(#a)">
<use x="507.422469" y="890.239212" fill="#ffffff" stroke="#ffffff" xlink:href="#b"/>
</g>
<g clip-path="url(#a)">
<use x="554.827994" y="890.239212" fill="#ffffff" stroke="#ffffff" xlink:href="#b"/>
</g>
<g clip-path="url(#a)">
<use x="602.233519" y="890.239212" fill="#ffffff" stroke="#ffffff" xlink:href="#b"/>
</g>
<g clip-path="url(#a)">
<use x="649.639043" y="890.239212" fill="#ffffff" stroke="#ffffff" xlink:href="#b"/>
</g>
<g clip-path="url(#a)">
<use x="697.044568" y="890.239212" fill="#ffffff" stroke="#ffffff" xlink:href="#b"/>
</g>
<g clip-path="url(#a)">
<use x="744.450093" y="890.239212" fill="#ffffff" stroke="#ffffff" xlink:href="#b"/>
</g>
<g clip-path="url(#a)">
<use x="791.855617" y="890.239212" fill="#ffffff" stroke="#ffffff" xlink:href="#b"/>
</g>
<g clip-path="url(#a)">
<use x="839.261142" y="890.239212" fill="#ffffff" stroke="#ffffff" xlink:href="#b"/>
</g>
<g clip-path="url(#a)">
<use x="886.666667" y="890.239212" fill="#ffffff" stroke="#ffffff" xlink:href="#b"/>
</g>
<g clip-path="url(#a)">
<use x="934.072191" y="890.239212" fill="#ffffff" stroke="#ffffff" xlink:href="#b"/>
</g>
<g clip-path="url(#a)">
<use x="981.477716" y="890.239212" fill="#ffffff" stroke="#ffffff" xlink:href="#b"/>
</g>
<g clip-path="url(#a)">
<use x="1028.883241" y="890.239212" fill="#ffffff" stroke="#ffffff" xlink:href="#b"/>
</g>
<g clip-path="url(#a)">
<use x="1076.288765" y="890.239212" fill="#ffffff" stroke="#ffffff" xlink:href="#b"/>
</g>
<g clip-path="url(#a)">
<use x="1123.69429" y="890.239212" fill="#ffffff" stroke="#ffffff" xlink:href="#b"/>
</g>
<g clip-path="url(#a)">
<use x="1171.099815" y="890.239212" fill="#ffffff" stroke="#ffffff" xlink:href="#b"/>
</g>
<g clip-path="url(#a)">
<use x="1218.505339" y="890.239212" fill="#ffffff" stroke="#ffffff" xlink:href="#b"/>
</g>
<g clip-path="url(#a)">
<use x="1265.910864" y="890.239212" fill="#ffffff" stroke="#ffffff" xlink:href="#b"/>
</g>
<g clip-path="url(#a)">
<use x="1313.316389" y="890.239212" fill="#ffffff" stroke="#ffffff" xlink:href="#b"/>
</g>
<g clip-path="url(#a)">
<use x="1360.721913" y="890.239212" fill="#ffffff" stroke="#ffffff" xlink:href="#b"/>
</g>
<g clip-path="url(#a)">
<use x="1408.127438" y="890.239212" fill="#ffffff" stroke="#ffffff" xlink:href="#b"/>
</g>
<g clip-path="url(#a)">
<use x="1455.532962" y="890.239212" fill="#ffffff" stroke="#ffffff" xlink:href="#b"/>
</g>
<g clip-path="url(#a)">
<use x="1502.938487" y="890.239212" fill="#ffffff" stroke="#ffffff" xlink:href="#b"/>
</g>
<g clip-path="url(#a)">
<use x="1550.344012" y="890.239212" fill="#ffffff" stroke="#ffffff" xlink:href="#b"/>
</g>
<g clip-path="url(#a)">
<use x="1597.749536" y="890.239212" fill="#ffffff" stroke="#ffffff" xlink:href="#b"/>
</g>
<g clip-path="url(#a)">
<use x="1645.155061" y="890.239212" fill="#ffffff" stroke="#ffffff" xlink:href="#b"/>
</g>
<g clip-path="url(#a)">
<use x="1692.560586" y="890.239212" fill="#ffffff" stroke="#ffffff" xlink:href="#b"/>
</g>
<g clip-path="url(#a)">
<use x="500.205198" y="43.094121" fill="#ffffff" stroke="#ffffff" xlink:href="#b"/>
</g>
<g clip-path="url(#a)">
<use x="282.246227" y="484.413136" fill="#ffffff" stroke="#ffffff" xlink:href="#b"/>
</g>
<g clip-path="url(#a)">
<use x="649.639043" y="789.969531" fill="#ffffff" stroke="#ffffff" xlink:href="#b"/>
</g>
<g clip-path="url(#a)">
<use x="568.730323" y="158.066194" fill="#ffffff" stroke="#ffffff" xlink:href="#b"/>
</g>
<g clip-path="url(#a)">
<use x="697.044568" y="789.969531" fill="#ffffff" stroke="#ffffff" xlink:href="#b"/>
</g>
<g clip-path="url(#a)">
<use x="880.968128" y="269.748915" fill="#ffffff" stroke="#ffffff" xlink:href="#b"/>
</g>
<g clip-path="url(#a)">
<use x="744.450093" y="789.969531" fill="#ffffff" stroke="#ffffff" xlink:href="#b"/>
</g>
<g clip-path="url(#a)">
<use x="791.855617" y="789.969531" fill="#ffffff" stroke="#ffffff" xlink:href="#b"/>
</g>
<g clip-path="url(#a)">
<use x="839.261142" y="789.969531" fill="#ffffff" stroke="#ffffff" xlink:href="#b"/>
</g>
<g clip-path="url(#a)">
<use x="886.666667" y="789.969531" fill="#ffffff" stroke="#ffffff" xlink:href="#b"/>
</g>
<g clip-path="url(#a)">
<use x="1089.503055" y="378.429911" fill="#ffffff" stroke="#ffffff" xlink:href="#b"/>
</g>
<g clip-path="url(#a)">
<use x="934.072191" y="689.69985" fill="#ffffff" stroke="#ffffff" xlink:href="#b"/>
</g>
<g clip-path="url(#a)">
<use x="1028.883241" y="789.969531" fill="#ffffff" stroke="#ffffff" xlink:href="#b"/>
</g>
<g clip-path="url(#a)">
<use x="1076.288765" y="789.969531" fill="#ffffff" stroke="#ffffff" xlink:href="#b"/>
</g>
<g clip-path="url(#a)">
<use x="1123.69429" y="789.969531" fill="#ffffff" stroke="#ffffff" xlink:href="#b"/>
</g>
<g clip-path="url(#a)">
<use x="1284.576789" y="484.413136" fill="#ffffff" stroke="#ffffff" xlink:href="#b"/>
</g>
<g clip-path="url(#a)">
<use x="1171.099815" y="789.969531" fill="#ffffff" stroke="#ffffff" xlink:href="#b"/>
</g>
<g clip-path="url(#a)">
<use x="1242.208102" y="789.969531" fill="#ffffff" stroke="#ffffff" xlink:href="#b"/>
</g>
<g clip-path="url(#a)">
<use x="1411.682852" y="588.035307" fill="#ffffff" stroke="#ffffff" xlink:href="#b"/>
</g>
<g clip-path="url(#a)">
<use x="1360.721913" y="789.969531" fill="#ffffff" stroke="#ffffff" xlink:href="#b"/>
</g>
<g clip-path="url(#a)">
<use x="1408.127438" y="789.969531" fill="#ffffff" stroke="#ffffff" xlink:href="#b"/>
</g>
<g clip-path="url(#a)">
<use x="1455.532962" y="789.969531" fill="#ffffff" stroke="#ffffff" xlink:href="#b"/>
</g>
<g clip-path="url(#a)">
<use x="1591.823846" y="689.69985" fill="#ffffff" stroke="#ffffff" xlink:href="#b"/>
</g>
<g clip-path="url(#a)">
<use x="1502.938487" y="789.969531" fill="#ffffff" stroke="#ffffff" xlink:href="#b"/>
</g>
<g clip-path="url(#a)">
<use x="1550.344012" y="789.969531" fill="#ffffff" stroke="#ffffff" xlink:href="#b"/>
</g>
<g clip-path="url(#a)">
<use x="1621.452299" y="789.969531" fill="#ffffff" stroke="#ffffff" xlink:href="#b"/>
</g>
<g clip-path="url(#a)">
<use x="981.477716" y="789.969531" fill="#ffffff" stroke="#ffffff" xlink:href="#b"/>
</g>
<g clip-path="url(#a)">
<use x="104.47551" y="689.69985" fill="#ffffff" stroke="#ffffff" xlink:href="#b"/>
</g>
<g clip-path="url(#a)">
<use x="175.583797" y="789.969531" fill="#ffffff" stroke="#ffffff" xlink:href="#b"/>
</g>
<g clip-path="url(#a)">
<use x="317.800371" y="588.035307" fill="#ffffff" stroke="#ffffff" xlink:href="#b"/>
</g>
<g clip-path="url(#a)">
<use x="531.125232" y="689.69985" fill="#ffffff" stroke="#ffffff" xlink:href="#b"/>
</g>
<g clip-path="url(#a)">
<use x="460.016945" y="789.969531" fill="#ffffff" stroke="#ffffff" xlink:href="#b"/>
</g>
<g clip-path="url(#a)">
<use x="507.422469" y="789.969531" fill="#ffffff" stroke="#ffffff" xlink:href="#b"/>
</g>
<g clip-path="url(#a)">
<use x="554.827994" y="789.969531" fill="#ffffff" stroke="#ffffff" xlink:href="#b"/>
</g>
<g clip-path="url(#a)">
<use x="602.233519" y="789.969531" fill="#ffffff" stroke="#ffffff" xlink:href="#b"/>
</g>
<g clip-path="url(#a)">
<use x="222.989322" y="789.969531" fill="#ffffff" stroke="#ffffff" xlink:href="#b"/>
</g>
<g clip-path="url(#a)">
<use x="317.800371" y="689.69985" fill="#ffffff" stroke="#ffffff" xlink:href="#b"/>
</g>
<g clip-path="url(#a)">
<use x="412.61142" y="789.969531" fill="#ffffff" stroke="#ffffff" xlink:href="#b"/>
</g>
<g clip-path="url(#a)">
<use x="317.800371" y="789.969531" fill="#ffffff" stroke="#ffffff" xlink:href="#b"/>
</g>
<g clip-path="url(#a)">
<use x="80.772748" y="789.969531" fill="#ffffff" stroke="#ffffff" xlink:href="#b"/>
</g>
<g clip-path="url(#a)">
<use x="128.178272" y="789.969531" fill="#ffffff" stroke="#ffffff" xlink:href="#b"/>
</g>
<g clip-path="url(#a)">
<use x="500.205198" y="43.094121" fill="#808080" stroke="#808080" xlink:href="#b"/>
</g>
<g clip-path="url(#a)">
<use x="934.072191" y="789.969531" fill="#ffffff" stroke="#ffffff" xlink:href="#b"/>
</g>
<g clip-path="url(#a)">
<use x="1313.316389" y="789.969531" fill="#ffffff" stroke="#ffffff" xlink:href="#b"/>
</g>
<g clip-path="url(#a)">
<use x="1692.560586" y="789.969531" fill="#ffffff" stroke="#ffffff" xlink:href="#b"/>
</g>
<g clip-path="url(#a)">
<defs>
<path id="r" d="m54.891 33.016v-33.016h-8.9844v32.719q0 7.7656-3.0312 11.609-3.0312 3.8594-9.0781 3.8594-7.2812 0-11.484-4.6406-4.2031-4.625-4.2031-12.641v-30.906h-9.0312v75.984h9.0312v-29.797q3.2344 4.9375 7.5938 7.375 4.375 2.4375 10.094 2.4375 9.4219 0 14.25-5.8281 4.8438-5.8281 4.8438-17.156z"/>
</defs>
<g transform="translate(71.474 893) scale(.1 -.1)">
<use xlink:href="#k"/>
<use x="61.083984" xlink:href="#r"/>
<use x="124.462891" xlink:href="#d"/>
</g>
</g>
<g clip-path="url(#a)">
<defs>
<path id="ay" d="m9.0781 75.984h9.0312v-44.875l26.812 23.578h11.469l-29-25.578 30.234-29.109h-11.719l-27.797 26.703v-26.703h-9.0312z"/>
<path id="y" d="m44.281 53.078v-8.5q-3.7969 1.9531-7.9062 2.9219-4.0938 0.98438-8.5 0.98438-6.6875 0-10.031-2.0469t-3.3438-6.1562q0-3.125 2.3906-4.9062t9.625-3.3906l3.0781-0.6875q9.5625-2.0469 13.594-5.7812t4.0312-10.422q0-7.625-6.0312-12.078-6.0312-4.4375-16.578-4.4375-4.3906 0-9.1562 0.85938t-10.031 2.5625v9.2812q4.9844-2.5938 9.8125-3.8906 4.8281-1.2812 9.5781-1.2812 6.3438 0 9.75 2.1719 3.4219 2.1719 3.4219 6.125 0 3.6562-2.4688 5.6094-2.4531 1.9531-10.812 3.7656l-3.125 0.73438q-8.3438 1.75-12.062 5.3906-3.7031 3.6406-3.7031 9.9844 0 7.7188 5.4688 11.906 5.4688 4.2031 15.531 4.2031 4.9688 0 9.3594-0.73438 4.4062-0.71875 8.1094-2.1875z"/>
</defs>
<g transform="translate(111.7 893) scale(.1 -.1)">
<use xlink:href="#ab"/>
<use x="55.712891" xlink:href="#e"/>
<use x="116.992188" xlink:href="#ay"/>
<use x="174.855469" xlink:href="#d"/>
<use x="236.378906" xlink:href="#g"/>
<use x="277.492188" xlink:href="#y"/>
</g>
</g>
<g clip-path="url(#a)">
<defs>
<path id="z" d="m48.781 52.594v-8.4062q-3.8125 2.1094-7.6406 3.1562t-7.7344 1.0469q-8.75 0-13.594-5.5469-4.8281-5.5312-4.8281-15.547t4.8281-15.562q4.8438-5.5312 13.594-5.5312 3.9062 0 7.7344 1.0469t7.6406 3.1562v-8.3125q-3.7656-1.75-7.7969-2.625-4.0156-0.89062-8.5625-0.89062-12.359 0-19.641 7.7656-7.2656 7.7656-7.2656 20.953 0 13.375 7.3438 21.031 7.3594 7.6719 20.156 7.6719 4.1406 0 8.0938-0.85938 3.9531-0.84375 7.6719-2.5469z"/>
<path id="ad" d="m30.609 48.391q-7.2188 0-11.422-5.6406t-4.2031-15.453 4.1719-15.453q4.1875-5.6406 11.453-5.6406 7.1875 0 11.375 5.6562 4.2031 5.6719 4.2031 15.438 0 9.7188-4.2031 15.406-4.1875 5.6875-11.375 5.6875zm0 7.6094q11.719 0 18.406-7.625 6.7031-7.6094 6.7031-21.078 0-13.422-6.7031-21.078-6.6875-7.6406-18.406-7.6406-11.766 0-18.438 7.6406-6.6562 7.6562-6.6562 21.078 0 13.469 6.6562 21.078 6.6719 7.625 18.438 7.625z"/>
<path id="ao" d="m18.109 8.2031v-29h-9.0312v75.484h9.0312v-8.2969q2.8438 4.875 7.1562 7.2344 4.3281 2.375 10.328 2.375 9.9688 0 16.188-7.9062 6.2344-7.9062 6.2344-20.797t-6.2344-20.812q-6.2188-7.9062-16.188-7.9062-6 0-10.328 2.375-4.3125 2.375-7.1562 7.25zm30.578 19.094q0 9.9062-4.0781 15.547t-11.203 5.6406q-7.1406 0-11.219-5.6406t-4.0781-15.547 4.0781-15.547 11.219-5.6406q7.125 0 11.203 5.6406t4.0781 15.547z"/>
<path id="s" d="m45.406 46.391v29.594h8.9844v-75.984h-8.9844v8.2031q-2.8281-4.875-7.1562-7.25-4.3125-2.375-10.375-2.375-9.9062 0-16.141 7.9062-6.2188 7.9219-6.2188 20.812t6.2188 20.797q6.2344 7.9062 16.141 7.9062 6.0625 0 10.375-2.375 4.3281-2.3594 7.1562-7.2344zm-30.609-19.094q0-9.9062 4.0781-15.547t11.203-5.6406 11.219 5.6406q4.1094 5.6406 4.1094 15.547t-4.1094 15.547q-4.0938 5.6406-11.219 5.6406t-11.203-5.6406-4.0781-15.547z"/>
</defs>
<g transform="translate(152.7 893) scale(.1 -.1)">
<use xlink:href="#z"/>
<use x="54.980469" xlink:href="#ad"/>
<use x="116.162109" xlink:href="#l"/>
<use x="213.574219" xlink:href="#ao"/>
<use x="277.050781" xlink:href="#h"/>
<use x="304.833984" xlink:href="#i"/>
<use x="332.617188" xlink:href="#d"/>
<use x="394.140625" xlink:href="#s"/>
</g>
</g>
<g clip-path="url(#a)">
<g transform="translate(219.93 893) scale(.1 -.1)">
<use xlink:href="#e"/>
</g>
</g>
<g clip-path="url(#a)">
<defs>
<path id="u" d="m33.016 40.375q-6.6406 0-10.531-4.5469-3.875-4.5312-3.875-12.438 0-7.8594 3.875-12.438 3.8906-4.5625 10.531-4.5625t10.516 4.5625q3.875 4.5781 3.875 12.438 0 7.9062-3.875 12.438-3.875 4.5469-10.516 4.5469zm19.578 30.922v-8.9844q-3.7188 1.75-7.5 2.6719-3.7812 0.9375-7.5 0.9375-9.7656 0-14.922-6.5938-5.1406-6.5938-5.875-19.922 2.875 4.25 7.2188 6.5156 4.3594 2.2656 9.5781 2.2656 10.984 0 17.359-6.6719 6.375-6.6562 6.375-18.125 0-11.234-6.6406-18.031-6.6406-6.7812-17.672-6.7812-12.656 0-19.344 9.6875-6.6875 9.7031-6.6875 28.109 0 17.281 8.2031 27.562t22.016 10.281q3.7188 0 7.5-0.73438t7.8906-2.1875z"/>
<path id="x" d="m31.781 66.406q-7.6094 0-11.453-7.5-3.8281-7.4844-3.8281-22.531 0-14.984 3.8281-22.484 3.8438-7.5 11.453-7.5 7.6719 0 11.5 7.5 3.8438 7.5 3.8438 22.484 0 15.047-3.8438 22.531-3.8281 7.5-11.5 7.5zm0 7.8125q12.266 0 18.734-9.7031 6.4688-9.6875 6.4688-28.141 0-18.406-6.4688-28.109-6.4688-9.6875-18.734-9.6875-12.25 0-18.719 9.6875-6.4688 9.7031-6.4688 28.109 0 18.453 6.4688 28.141 6.4688 9.7031 18.719 9.7031z"/>
</defs>
<g transform="translate(264.03 893) scale(.1 -.1)">
<use xlink:href="#u"/>
<use x="63.623047" xlink:href="#x"/>
</g>
</g>
<g clip-path="url(#a)">
<defs>
<path id="aw" d="m4.8906 31.391h26.312v-8h-26.312z"/>
</defs>
<g transform="translate(316 893) scale(.1 -.1)">
<use xlink:href="#aw"/>
</g>
</g>
<g clip-path="url(#a)">
<defs>
<path id="m" d="m19.188 8.2969h34.422v-8.2969h-46.281v8.2969q5.6094 5.8125 15.297 15.594 9.7031 9.7969 12.188 12.641 4.7344 5.3125 6.6094 9 1.8906 3.6875 1.8906 7.25 0 5.8125-4.0781 9.4688-4.0781 3.6719-10.625 3.6719-4.6406 0-9.7969-1.6094-5.1406-1.6094-11-4.8906v9.9688q5.9531 2.3906 11.125 3.6094 5.1875 1.2188 9.4844 1.2188 11.328 0 18.062-5.6719 6.7344-5.6562 6.7344-15.125 0-4.5-1.6875-8.5312-1.6719-4.0156-6.125-9.4844-1.2188-1.4219-7.7656-8.1875-6.5312-6.7656-18.453-18.922z"/>
</defs>
<g transform="translate(358.84 893) scale(.1 -.1)">
<use xlink:href="#m"/>
<use x="63.623047" xlink:href="#m"/>
</g>
</g>
<g clip-path="url(#a)">
<g transform="translate(396.44 893) scale(.1 -.1)">
<use xlink:href="#g"/>
<use x="41.082031" xlink:href="#d"/>
<use x="102.605469" xlink:href="#z"/>
<use x="157.585938" xlink:href="#ad"/>
<use x="218.767578" xlink:href="#g"/>
<use x="259.865234" xlink:href="#s"/>
</g>
</g>
<g clip-path="url(#a)">
<g transform="translate(455.46 893) scale(.1 -.1)">
<use xlink:href="#h"/>
<use x="27.783203" xlink:href="#j"/>
</g>
</g>
<g clip-path="url(#a)">
<defs>
<path id="aj" d="m18.312 70.219v-15.531h18.5v-6.9844h-18.5v-29.688q0-6.6875 1.8281-8.5938t7.4531-1.9062h9.2188v-7.5156h-9.2188q-10.406 0-14.359 3.875-3.9531 3.8906-3.9531 14.141v29.688h-6.5938v6.9844h6.5938v15.531z"/>
</defs>
<g transform="translate(499.22 893) scale(.1 -.1)">
<use xlink:href="#aj"/>
<use x="39.208984" xlink:href="#r"/>
<use x="102.587891" xlink:href="#d"/>
</g>
</g>
<g clip-path="url(#a)">
<defs>
<path id="ap" d="m45.406 27.984q0 9.7656-4.0312 15.125-4.0156 5.375-11.297 5.375-7.2188 0-11.25-5.375-4.0312-5.3594-4.0312-15.125 0-9.7188 4.0312-15.094t11.25-5.375q7.2812 0 11.297 5.375 4.0312 5.375 4.0312 15.094zm8.9844-21.203q0-13.953-6.2031-20.766-6.1875-6.8125-18.984-6.8125-4.7344 0-8.9375 0.70312t-8.1562 2.1719v8.7344q3.9531-2.1406 7.8125-3.1562 3.8594-1.0312 7.8594-1.0312 8.8438 0 13.234 4.6094t4.3906 13.938v4.4531q-2.7812-4.8438-7.125-7.2344t-10.406-2.3906q-10.047 0-16.203 7.6562-6.1562 7.6719-6.1562 20.328 0 12.688 6.1562 20.344 6.1562 7.6719 16.203 7.6719 6.0625 0 10.406-2.3906t7.125-7.2188v8.2969h8.9844z"/>
<path id="ak" d="m8.5 21.578v33.109h8.9844v-32.766q0-7.7656 3.0156-11.656 3.0312-3.875 9.0938-3.875 7.2656 0 11.484 4.6406 4.2344 4.6406 4.2344 12.656v31h8.9844v-54.688h-8.9844v8.4062q-3.2656-4.9844-7.5938-7.4062-4.3125-2.4219-10.031-2.4219-9.4219 0-14.312 5.8594-4.875 5.8594-4.875 17.141z"/>
</defs>
<g transform="translate(536.85 893) scale(.1 -.1)">
<use xlink:href="#g"/>
<use x="41.082031" xlink:href="#d"/>
<use x="102.605469" xlink:href="#ap"/>
<use x="166.082031" xlink:href="#ak"/>
<use x="229.460938" xlink:href="#i"/>
<use x="257.244141" xlink:href="#e"/>
<use x="318.523438" xlink:href="#g"/>
</g>
</g>
<g clip-path="url(#a)">
<g transform="translate(584.66 893) scale(.1 -.1)">
<use xlink:href="#y"/>
<use x="52.099609" xlink:href="#d"/>
<use x="113.623047" xlink:href="#e"/>
<use x="174.902344" xlink:href="#y"/>
<use x="227.001953" xlink:href="#ad"/>
<use x="288.183594" xlink:href="#j"/>
</g>
</g>
<g clip-path="url(#a)">
<g transform="translate(640.23 893) scale(.1 -.1)">
<use xlink:href="#e"/>
<use x="61.279297" xlink:href="#j"/>
<use x="124.658203" xlink:href="#s"/>
</g>
</g>
<g clip-path="url(#a)">
<g transform="translate(676.68 893) scale(.1 -.1)">
<use xlink:href="#g"/>
<use x="41.082031" xlink:href="#d"/>
<use x="102.605469" xlink:href="#e"/>
<use x="163.884766" xlink:href="#z"/>
<use x="218.865234" xlink:href="#r"/>
<use x="282.244141" xlink:href="#d"/>
<use x="343.767578" xlink:href="#s"/>
</g>
</g>
<g clip-path="url(#a)">
<g transform="translate(736.24 893) scale(.1 -.1)">
<use xlink:href="#aj"/>
<use x="39.208984" xlink:href="#r"/>
<use x="102.587891" xlink:href="#d"/>
</g>
</g>
<g clip-path="url(#a)">
<defs>
<path id="c" d="m12.406 8.2969h16.109v55.625l-17.531-3.5156v8.9844l17.438 3.5156h9.8594v-64.609h16.109v-8.2969h-41.984z"/>
<path id="ac" d="m10.984 1.5156v8.9844q3.7188-1.7656 7.5156-2.6875 3.8125-0.92188 7.4844-0.92188 9.7656 0 14.906 6.5625 5.1562 6.5625 5.8906 19.953-2.8281-4.2031-7.1875-6.4531-4.3438-2.25-9.6094-2.25-10.938 0-17.312 6.6094-6.375 6.625-6.375 18.109 0 11.219 6.6406 18 6.6406 6.7969 17.672 6.7969 12.656 0 19.312-9.7031 6.6719-9.6875 6.6719-28.141 0-17.234-8.1875-27.516-8.1719-10.281-21.984-10.281-3.7188 0-7.5312 0.73438-3.7969 0.73438-7.9062 2.2031zm19.625 30.906q6.6406 0 10.516 4.5312 3.8906 4.5469 3.8906 12.469 0 7.8594-3.8906 12.422-3.875 4.5625-10.516 4.5625t-10.516-4.5625-3.875-12.422q0-7.9219 3.875-12.469 3.875-4.5312 10.516-4.5312z"/>
<path id="v" d="m31.781 34.625q-7.0312 0-11.062-3.7656-4.0156-3.7656-4.0156-10.344 0-6.5938 4.0156-10.359 4.0312-3.7656 11.062-3.7656t11.078 3.7812q4.0625 3.7969 4.0625 10.344 0 6.5781-4.0312 10.344-4.0156 3.7656-11.109 3.7656zm-9.8594 4.1875q-6.3438 1.5625-9.8906 5.9062-3.5312 4.3594-3.5312 10.609 0 8.7344 6.2188 13.812 6.2344 5.0781 17.062 5.0781 10.891 0 17.094-5.0781t6.2031-13.812q0-6.25-3.5469-10.609-3.5312-4.3438-9.8281-5.9062 7.125-1.6562 11.094-6.5 3.9844-4.8281 3.9844-11.797 0-10.609-6.4688-16.281-6.4688-5.6562-18.531-5.6562-12.047 0-18.531 5.6562-6.4688 5.6719-6.4688 16.281 0 6.9688 4 11.797 4.0156 4.8438 11.141 6.5zm-3.6094 15.578q0-5.6562 3.5312-8.8281 3.5469-3.1719 9.9375-3.1719 6.3594 0 9.9375 3.1719 3.5938 3.1719 3.5938 8.8281 0 5.6719-3.5938 8.8438-3.5781 3.1719-9.9375 3.1719-6.3906 0-9.9375-3.1719-3.5312-3.1719-3.5312-8.8438z"/>
</defs>
<g transform="translate(779.13 893) scale(.1 -.1)">
<use xlink:href="#c"/>
<use x="63.623047" xlink:href="#ac"/>
<use x="127.246094" xlink:href="#v"/>
<use x="190.869141" xlink:href="#x"/>
</g>
</g>
<g clip-path="url(#a)">
<defs>
<path id="as" d="m9.8125 72.906h13.281l32.328-60.984v60.984h9.5625v-72.906h-13.281l-32.312 60.984v-60.984h-9.5781z"/>
<path id="av" d="m19.672 34.812v-26.703h15.828q7.9531 0 11.781 3.2969 3.8438 3.2969 3.8438 10.078 0 6.8438-3.8438 10.078-3.8281 3.25-11.781 3.25zm0 29.984v-21.969h14.609q7.2188 0 10.75 2.7031 3.5469 2.7188 3.5469 8.2812 0 5.5156-3.5469 8.25-3.5312 2.7344-10.75 2.7344zm-9.8594 8.1094h25.203q11.281 0 17.375-4.6875 6.1094-4.6875 6.1094-13.328 0-6.7031-3.125-10.656t-9.1875-4.9219q7.2812-1.5625 11.312-6.5312 4.0312-4.9531 4.0312-12.375 0-9.7656-6.6406-15.094-6.6406-5.3125-18.906-5.3125h-26.172z"/>
</defs>
<g transform="translate(828.67 893) scale(.1 -.1)">
<use xlink:href="#as"/>
<use x="74.804688" xlink:href="#av"/>
<use x="143.408203" xlink:href="#q"/>
</g>
</g>
<g clip-path="url(#a)">
<g transform="translate(872.18 893) scale(.1 -.1)">
<use xlink:href="#ag"/>
<use x="57.410156" xlink:href="#h"/>
<use x="85.193359" xlink:href="#j"/>
<use x="148.572266" xlink:href="#e"/>
<use x="209.851562" xlink:href="#i"/>
<use x="237.634766" xlink:href="#y"/>
</g>
</g>
<g clip-path="url(#a)">
<defs>
<path id="am" d="m11.719 12.406h10.297v-8.4062l-8-15.625h-6.2969l4 15.625z"/>
</defs>
<g transform="translate(932.48 893) scale(.1 -.1)">
<use xlink:href="#am"/>
</g>
</g>
<g clip-path="url(#a)">
<g transform="translate(976.92 893) scale(.1 -.1)">
<use xlink:href="#h"/>
<use x="27.783203" xlink:href="#j"/>
</g>
</g>
<g clip-path="url(#a)">
<defs>
<path id="ai" d="m4.2031 54.688h8.9844l11.234-42.672 11.172 42.672h10.594l11.234-42.672 11.188 42.672h8.9844l-14.312-54.688h-10.594l-11.766 44.828-11.812-44.828h-10.609z"/>
</defs>
<g transform="translate(1014.3 893) scale(.1 -.1)">
<use xlink:href="#ai"/>
<use x="81.787109" xlink:href="#r"/>
<use x="145.166016" xlink:href="#h"/>
<use x="172.949219" xlink:href="#z"/>
<use x="227.929688" xlink:href="#r"/>
</g>
</g>
<g clip-path="url(#a)">
<defs>
<path id="an" d="m32.172-5.0781q-3.7969-9.7656-7.4219-12.734-3.6094-2.9844-9.6562-2.9844h-7.1875v7.5156h5.2812q3.7031 0 5.75 1.7656 2.0625 1.75 4.5469 8.2969l1.6094 4.0938-22.109 53.812h9.5156l17.094-42.766 17.094 42.766h9.5156z"/>
</defs>
<g transform="translate(1065.1 893) scale(.1 -.1)">
<use xlink:href="#aj"/>
<use x="39.208984" xlink:href="#r"/>
<use x="102.587891" xlink:href="#d"/>
<use x="164.111328" xlink:href="#an"/>
</g>
</g>
<g clip-path="url(#a)">
<defs>
<path id="aq" d="m37.109 75.984v-7.4844h-8.5938q-4.8281 0-6.7188-1.9531-1.875-1.9531-1.875-7.0312v-4.8281h14.797v-6.9844h-14.797v-47.703h-9.0312v47.703h-8.5938v6.9844h8.5938v3.8125q0 9.125 4.25 13.297 4.25 4.1875 13.469 4.1875z"/>
</defs>
<g transform="translate(1109.9 893) scale(.1 -.1)">
<use xlink:href="#aq"/>
<use x="35.205078" xlink:href="#e"/>
<use x="96.484375" xlink:href="#z"/>
<use x="151.464844" xlink:href="#d"/>
<use x="212.988281" xlink:href="#s"/>
</g>
</g>
<g clip-path="url(#a)">
<g transform="translate(1162.9 893) scale(.1 -.1)">
<use xlink:href="#aj"/>
<use x="39.208984" xlink:href="#r"/>
<use x="102.587891" xlink:href="#d"/>
</g>
</g>
<g clip-path="url(#a)">
<g transform="translate(1188 893) scale(.1 -.1)">
<use xlink:href="#aa"/>
<use x="60.302734" xlink:href="#r"/>
<use x="123.681641" xlink:href="#h"/>
<use x="151.464844" xlink:href="#i"/>
<use x="179.248047" xlink:href="#e"/>
<use x="240.527344" xlink:href="#s"/>
<use x="304.003906" xlink:href="#d"/>
<use x="365.527344" xlink:href="#i"/>
<use x="393.310547" xlink:href="#ao"/>
<use x="456.787109" xlink:href="#r"/>
<use x="520.166016" xlink:href="#h"/>
<use x="547.949219" xlink:href="#e"/>
</g>
</g>
<g clip-path="url(#a)">
<defs>
<path id="w" d="m8.2031 72.906h46.875v-4.2031l-26.469-68.703h-10.297l24.906 64.594h-35.016z"/>
</defs>
<g transform="translate(1251.8 893) scale(.1 -.1)">
<use xlink:href="#w"/>
<use x="63.623047" xlink:href="#u"/>
<use x="127.246094" xlink:href="#d"/>
<use x="188.769531" xlink:href="#g"/>
<use x="229.882812" xlink:href="#y"/>
</g>
</g>
<g clip-path="url(#a)">
<g transform="translate(1311.7 893) scale(.1 -.1)">
<use xlink:href="#am"/>
</g>
</g>
<g clip-path="url(#a)">
<g transform="translate(1350.4 893) scale(.1 -.1)">
<use xlink:href="#ai"/>
<use x="81.787109" xlink:href="#r"/>
<use x="145.166016" xlink:href="#ad"/>
</g>
</g>
<g clip-path="url(#a)">
<g transform="translate(1395.8 893) scale(.1 -.1)">
<use xlink:href="#ai"/>
<use x="81.787109" xlink:href="#d"/>
<use x="143.310547" xlink:href="#g"/>
<use x="184.392578" xlink:href="#d"/>
</g>
</g>
<g clip-path="url(#a)">
<g transform="translate(1447.9 893) scale(.1 -.1)">
<use xlink:href="#i"/>
<use x="27.783203" xlink:href="#d"/>
<use x="89.306641" xlink:href="#s"/>
</g>
</g>
<g clip-path="url(#a)">
<defs>
<path id="ar" d="m48.688 27.297q0 9.9062-4.0781 15.547t-11.203 5.6406q-7.1406 0-11.219-5.6406t-4.0781-15.547 4.0781-15.547 11.219-5.6406q7.125 0 11.203 5.6406t4.0781 15.547zm-30.578 19.094q2.8438 4.875 7.1562 7.2344 4.3281 2.375 10.328 2.375 9.9688 0 16.188-7.9062 6.2344-7.9062 6.2344-20.797t-6.2344-20.812q-6.2188-7.9062-16.188-7.9062-6 0-10.328 2.375-4.3125 2.375-7.1562 7.25v-8.2031h-9.0312v75.984h9.0312z"/>
</defs>
<g transform="translate(1496.8 893) scale(.1 -.1)">
<use xlink:href="#ar"/>
<use x="63.476562" xlink:href="#an"/>
</g>
</g>
<g clip-path="url(#a)">
<g transform="translate(1531.1 893) scale(.1 -.1)">
<use xlink:href="#aq"/>
<use x="35.205078" xlink:href="#ad"/>
<use x="96.386719" xlink:href="#g"/>
<use x="137.5" xlink:href="#ai"/>
<use x="219.287109" xlink:href="#e"/>
<use x="280.566406" xlink:href="#g"/>
<use x="321.664062" xlink:href="#s"/>
</g>
</g>
<g clip-path="url(#a)">
<defs>
<path id="at" d="m9.8125 72.906h9.8594v-67.828q0-13.188-5-19.141t-16.094-5.9531h-3.75v8.2969h3.0781q6.5312 0 9.2188 3.6719 2.6875 3.6562 2.6875 13.125z"/>
</defs>
<g transform="translate(1584.6 893) scale(.1 -.1)">
<use xlink:href="#at"/>
<use x="29.492188" xlink:href="#ak"/>
<use x="92.871094" xlink:href="#i"/>
<use x="120.654297" xlink:href="#h"/>
<use x="148.4375" xlink:href="#ak"/>
<use x="211.816406" xlink:href="#y"/>
</g>
</g>
<g clip-path="url(#a)">
<defs>
<path id="ax" d="m2.9844 54.688h9.5156l17.094-45.891 17.094 45.891h9.5156l-20.516-54.688h-12.203z"/>
</defs>
<g transform="translate(1629.2 893) scale(.1 -.1)">
<use xlink:href="#p"/>
<use x="63.183594" xlink:href="#g"/>
<use x="104.296875" xlink:href="#ax"/>
<use x="163.476562" xlink:href="#h"/>
<use x="191.259766" xlink:href="#j"/>
<use x="254.638672" xlink:href="#ap"/>
</g>
</g>
<g clip-path="url(#a)">
<defs>
<path id="f" d="m10.688 12.406h10.312v-12.406h-10.312z"/>
</defs>
<g transform="translate(1691 893) scale(.1 -.1)">
<use xlink:href="#f"/>
</g>
</g>
<g clip-path="url(#a)">
<g transform="translate(492.25 45.853) scale(.1 -.1)">
<use xlink:href="#c"/>
<use x="63.623047" xlink:href="#f"/>
<use x="95.410156" xlink:href="#c"/>
</g>
</g>
<g clip-path="url(#a)">
<g transform="translate(274.29 487.17) scale(.1 -.1)">
<use xlink:href="#c"/>
<use x="63.623047" xlink:href="#f"/>
<use x="95.410156" xlink:href="#m"/>
</g>
</g>
<g clip-path="url(#a)">
<defs>
<path id="o" d="m40.578 39.312q7.0781-1.5156 11.047-6.3125 3.9844-4.7812 3.9844-11.812 0-10.781-7.4219-16.703-7.4219-5.9062-21.094-5.9062-4.5781 0-9.4375 0.90625t-10.031 2.7188v9.5156q4.0938-2.3906 8.9688-3.6094 4.8906-1.2188 10.219-1.2188 9.2656 0 14.125 3.6562t4.8594 10.641q0 6.4531-4.5156 10.078-4.5156 3.6406-12.562 3.6406h-8.5v8.1094h8.8906q7.2656 0 11.125 2.9062t3.8594 8.375q0 5.6094-3.9844 8.6094-3.9688 3.0156-11.391 3.0156-4.0625 0-8.7031-0.89062-4.6406-0.875-10.203-2.7188v8.7812q5.625 1.5625 10.531 2.3438t9.25 0.78125q11.234 0 17.766-5.1094 6.5469-5.0938 6.5469-13.781 0-6.0625-3.4688-10.234t-9.8594-5.7812z"/>
</defs>
<g transform="translate(641.69 792.73) scale(.1 -.1)">
<use xlink:href="#c"/>
<use x="63.623047" xlink:href="#f"/>
<use x="95.410156" xlink:href="#o"/>
</g>
</g>
<g clip-path="url(#a)">
<defs>
<path id="n" d="m37.797 64.312-24.906-38.922h24.906zm-2.5938 8.5938h12.406v-47.516h10.406v-8.2031h-10.406v-17.188h-9.8125v17.188h-32.906v9.5156z"/>
</defs>
<g transform="translate(560.78 160.83) scale(.1 -.1)">
<use xlink:href="#c"/>
<use x="63.623047" xlink:href="#f"/>
<use x="95.410156" xlink:href="#n"/>
</g>
</g>
<g clip-path="url(#a)">
<g transform="translate(689.09 792.73) scale(.1 -.1)">
<use xlink:href="#c"/>
<use x="63.623047" xlink:href="#f"/>
<use x="95.410156" xlink:href="#u"/>
</g>
</g>
<g clip-path="url(#a)">
<g transform="translate(873.02 272.51) scale(.1 -.1)">
<use xlink:href="#c"/>
<use x="63.623047" xlink:href="#f"/>
<use x="95.410156" xlink:href="#w"/>
</g>
</g>
<g clip-path="url(#a)">
<g transform="translate(736.5 792.73) scale(.1 -.1)">
<use xlink:href="#c"/>
<use x="63.623047" xlink:href="#f"/>
<use x="95.410156" xlink:href="#v"/>
</g>
</g>
<g clip-path="url(#a)">
<g transform="translate(783.9 792.73) scale(.1 -.1)">
<use xlink:href="#c"/>
<use x="63.623047" xlink:href="#f"/>
<use x="95.410156" xlink:href="#ac"/>
</g>
</g>
<g clip-path="url(#a)">
<g transform="translate(828.13 792.73) scale(.1 -.1)">
<use xlink:href="#c"/>
<use x="63.623047" xlink:href="#f"/>
<use x="95.410156" xlink:href="#c"/>
<use x="159.033203" xlink:href="#x"/>
</g>
</g>
<g clip-path="url(#a)">
<g transform="translate(875.53 792.73) scale(.1 -.1)">
<use xlink:href="#c"/>
<use x="63.623047" xlink:href="#f"/>
<use x="95.410156" xlink:href="#c"/>
<use x="159.033203" xlink:href="#c"/>
</g>
</g>
<g clip-path="url(#a)">
<g transform="translate(1078.4 381.19) scale(.1 -.1)">
<use xlink:href="#c"/>
<use x="63.623047" xlink:href="#f"/>
<use x="95.410156" xlink:href="#c"/>
<use x="159.033203" xlink:href="#m"/>
</g>
</g>
<g clip-path="url(#a)">
<g transform="translate(922.94 692.46) scale(.1 -.1)">
<use xlink:href="#c"/>
<use x="63.623047" xlink:href="#f"/>
<use x="95.410156" xlink:href="#c"/>
<use x="159.033203" xlink:href="#n"/>
</g>
</g>
<g clip-path="url(#a)">
<defs>
<path id="ah" d="m10.797 72.906h38.719v-8.3125h-29.688v-17.859q2.1406 0.73438 4.2812 1.0938 2.1562 0.35938 4.3125 0.35938 12.203 0 19.328-6.6875 7.1406-6.6875 7.1406-18.109 0-11.766-7.3281-18.297-7.3281-6.5156-20.656-6.5156-4.5938 0-9.3594 0.78125-4.75 0.78125-9.8281 2.3438v9.9219q4.3906-2.3906 9.0781-3.5625t9.9062-1.1719q8.4531 0 13.375 4.4375 4.9375 4.4375 4.9375 12.062 0 7.6094-4.9375 12.047-4.9219 4.4531-13.375 4.4531-3.9531 0-7.8906-0.875-3.9219-0.875-8.0156-2.7344z"/>
</defs>
<g transform="translate(1017.8 792.73) scale(.1 -.1)">
<use xlink:href="#c"/>
<use x="63.623047" xlink:href="#f"/>
<use x="95.410156" xlink:href="#c"/>
<use x="159.033203" xlink:href="#ah"/>
</g>
</g>
<g clip-path="url(#a)">
<g transform="translate(1065.2 792.73) scale(.1 -.1)">
<use xlink:href="#c"/>
<use x="63.623047" xlink:href="#f"/>
<use x="95.410156" xlink:href="#c"/>
<use x="159.033203" xlink:href="#u"/>
</g>
</g>
<g clip-path="url(#a)">
<g transform="translate(1112.6 792.73) scale(.1 -.1)">
<use xlink:href="#c"/>
<use x="63.623047" xlink:href="#f"/>
<use x="95.410156" xlink:href="#c"/>
<use x="159.033203" xlink:href="#w"/>
</g>
</g>
<g clip-path="url(#a)">
<g transform="translate(1273.4 487.17) scale(.1 -.1)">
<use xlink:href="#c"/>
<use x="63.623047" xlink:href="#f"/>
<use x="95.410156" xlink:href="#c"/>
<use x="159.033203" xlink:href="#v"/>
</g>
</g>
<g clip-path="url(#a)">
<g transform="translate(1160 792.73) scale(.1 -.1)">
<use xlink:href="#c"/>
<use x="63.623047" xlink:href="#f"/>
<use x="95.410156" xlink:href="#c"/>
<use x="159.033203" xlink:href="#ac"/>
</g>
</g>
<g clip-path="url(#a)">
<g transform="translate(1231.1 792.73) scale(.1 -.1)">
<use xlink:href="#c"/>
<use x="63.623047" xlink:href="#f"/>
<use x="95.410156" xlink:href="#m"/>
<use x="159.033203" xlink:href="#x"/>
</g>
</g>
<g clip-path="url(#a)">
<g transform="translate(1400.6 590.79) scale(.1 -.1)">
<use xlink:href="#c"/>
<use x="63.623047" xlink:href="#f"/>
<use x="95.410156" xlink:href="#m"/>
<use x="159.033203" xlink:href="#c"/>
</g>
</g>
<g clip-path="url(#a)">
<g transform="translate(1349.6 792.73) scale(.1 -.1)">
<use xlink:href="#c"/>
<use x="63.623047" xlink:href="#f"/>
<use x="95.410156" xlink:href="#m"/>
<use x="159.033203" xlink:href="#o"/>
</g>
</g>
<g clip-path="url(#a)">
<g transform="translate(1397 792.73) scale(.1 -.1)">
<use xlink:href="#c"/>
<use x="63.623047" xlink:href="#f"/>
<use x="95.410156" xlink:href="#m"/>
<use x="159.033203" xlink:href="#n"/>
</g>
</g>
<g clip-path="url(#a)">
<g transform="translate(1444.4 792.73) scale(.1 -.1)">
<use xlink:href="#c"/>
<use x="63.623047" xlink:href="#f"/>
<use x="95.410156" xlink:href="#m"/>
<use x="159.033203" xlink:href="#ah"/>
</g>
</g>
<g clip-path="url(#a)">
<g transform="translate(1580.7 692.46) scale(.1 -.1)">
<use xlink:href="#c"/>
<use x="63.623047" xlink:href="#f"/>
<use x="95.410156" xlink:href="#m"/>
<use x="159.033203" xlink:href="#u"/>
</g>
</g>
<g clip-path="url(#a)">
<g transform="translate(1491.8 792.73) scale(.1 -.1)">
<use xlink:href="#c"/>
<use x="63.623047" xlink:href="#f"/>
<use x="95.410156" xlink:href="#m"/>
<use x="159.033203" xlink:href="#w"/>
</g>
</g>
<g clip-path="url(#a)">
<g transform="translate(1539.2 792.73) scale(.1 -.1)">
<use xlink:href="#c"/>
<use x="63.623047" xlink:href="#f"/>
<use x="95.410156" xlink:href="#m"/>
<use x="159.033203" xlink:href="#v"/>
</g>
</g>
<g clip-path="url(#a)">
<g transform="translate(1610.3 792.73) scale(.1 -.1)">
<use xlink:href="#c"/>
<use x="63.623047" xlink:href="#f"/>
<use x="95.410156" xlink:href="#m"/>
<use x="159.033203" xlink:href="#ac"/>
</g>
</g>
<g clip-path="url(#a)">
<g transform="translate(970.34 792.73) scale(.1 -.1)">
<use xlink:href="#c"/>
<use x="63.623047" xlink:href="#f"/>
<use x="95.410156" xlink:href="#o"/>
<use x="159.033203" xlink:href="#x"/>
</g>
</g>
<g clip-path="url(#a)">
<g transform="translate(93.343 692.46) scale(.1 -.1)">
<use xlink:href="#c"/>
<use x="63.623047" xlink:href="#f"/>
<use x="95.410156" xlink:href="#o"/>
<use x="159.033203" xlink:href="#c"/>
</g>
</g>
<g clip-path="url(#a)">
<g transform="translate(164.45 792.73) scale(.1 -.1)">
<use xlink:href="#c"/>
<use x="63.623047" xlink:href="#f"/>
<use x="95.410156" xlink:href="#o"/>
<use x="159.033203" xlink:href="#m"/>
</g>
</g>
<g clip-path="url(#a)">
<g transform="translate(306.67 590.79) scale(.1 -.1)">
<use xlink:href="#c"/>
<use x="63.623047" xlink:href="#f"/>
<use x="95.410156" xlink:href="#o"/>
<use x="159.033203" xlink:href="#o"/>
</g>
</g>
<g clip-path="url(#a)">
<g transform="translate(519.99 692.46) scale(.1 -.1)">
<use xlink:href="#c"/>
<use x="63.623047" xlink:href="#f"/>
<use x="95.410156" xlink:href="#o"/>
<use x="159.033203" xlink:href="#n"/>
</g>
</g>
<g clip-path="url(#a)">
<g transform="translate(448.88 792.73) scale(.1 -.1)">
<use xlink:href="#c"/>
<use x="63.623047" xlink:href="#f"/>
<use x="95.410156" xlink:href="#o"/>
<use x="159.033203" xlink:href="#ah"/>
</g>
</g>
<g clip-path="url(#a)">
<g transform="translate(496.29 792.73) scale(.1 -.1)">
<use xlink:href="#c"/>
<use x="63.623047" xlink:href="#f"/>
<use x="95.410156" xlink:href="#o"/>
<use x="159.033203" xlink:href="#u"/>
</g>
</g>
<g clip-path="url(#a)">
<g transform="translate(543.7 792.73) scale(.1 -.1)">
<use xlink:href="#c"/>
<use x="63.623047" xlink:href="#f"/>
<use x="95.410156" xlink:href="#o"/>
<use x="159.033203" xlink:href="#w"/>
</g>
</g>
<g clip-path="url(#a)">
<g transform="translate(591.1 792.73) scale(.1 -.1)">
<use xlink:href="#c"/>
<use x="63.623047" xlink:href="#f"/>
<use x="95.410156" xlink:href="#o"/>
<use x="159.033203" xlink:href="#v"/>
</g>
</g>
<g clip-path="url(#a)">
<g transform="translate(211.86 792.73) scale(.1 -.1)">
<use xlink:href="#c"/>
<use x="63.623047" xlink:href="#f"/>
<use x="95.410156" xlink:href="#o"/>
<use x="159.033203" xlink:href="#ac"/>
</g>
</g>
<g clip-path="url(#a)">
<g transform="translate(306.67 692.46) scale(.1 -.1)">
<use xlink:href="#c"/>
<use x="63.623047" xlink:href="#f"/>
<use x="95.410156" xlink:href="#n"/>
<use x="159.033203" xlink:href="#x"/>
</g>
</g>
<g clip-path="url(#a)">
<g transform="translate(401.48 792.73) scale(.1 -.1)">
<use xlink:href="#c"/>
<use x="63.623047" xlink:href="#f"/>
<use x="95.410156" xlink:href="#n"/>
<use x="159.033203" xlink:href="#c"/>
</g>
</g>
<g clip-path="url(#a)">
<g transform="translate(306.67 792.73) scale(.1 -.1)">
<use xlink:href="#c"/>
<use x="63.623047" xlink:href="#f"/>
<use x="95.410156" xlink:href="#n"/>
<use x="159.033203" xlink:href="#m"/>
</g>
</g>
<g clip-path="url(#a)">
<g transform="translate(69.64 792.73) scale(.1 -.1)">
<use xlink:href="#c"/>
<use x="63.623047" xlink:href="#f"/>
<use x="95.410156" xlink:href="#n"/>
<use x="159.033203" xlink:href="#o"/>
</g>
</g>
<g clip-path="url(#a)">
<g transform="translate(117.05 792.73) scale(.1 -.1)">
<use xlink:href="#c"/>
<use x="63.623047" xlink:href="#f"/>
<use x="95.410156" xlink:href="#n"/>
<use x="159.033203" xlink:href="#n"/>
</g>
</g>
<g clip-path="url(#a)">
<g transform="translate(489.07 45.853) scale(.1 -.1)">
<use xlink:href="#c"/>
<use x="63.623047" xlink:href="#f"/>
<use x="95.410156" xlink:href="#n"/>
<use x="159.033203" xlink:href="#ah"/>
</g>
</g>
<g clip-path="url(#a)">
<g transform="translate(922.94 792.73) scale(.1 -.1)">
<use xlink:href="#c"/>
<use x="63.623047" xlink:href="#f"/>
<use x="95.410156" xlink:href="#n"/>
<use x="159.033203" xlink:href="#u"/>
</g>
</g>
<g clip-path="url(#a)">
<g transform="translate(1302.2 792.73) scale(.1 -.1)">
<use xlink:href="#c"/>
<use x="63.623047" xlink:href="#f"/>
<use x="95.410156" xlink:href="#n"/>
<use x="159.033203" xlink:href="#w"/>
</g>
</g>
<g clip-path="url(#a)">
<g transform="translate(1681.4 792.73) scale(.1 -.1)">
<use xlink:href="#c"/>
<use x="63.623047" xlink:href="#f"/>
<use x="95.410156" xlink:href="#n"/>
<use x="159.033203" xlink:href="#v"/>
</g>
</g>
<defs>
<clipPath id="a">
<rect width="1773.3" height="933.33"/>
</clipPath>
</defs>
</svg>
