<?xml version="1.0" encoding="UTF-8"?>
<!DOCTYPE svg  PUBLIC '-//W3C//DTD SVG 1.1//EN'  'http://www.w3.org/Graphics/SVG/1.1/DTD/svg11.dtd'>
<svg width="1469.3pt" height="773.33pt" version="1.1" viewBox="0 0 1469.3 773.33" xmlns="http://www.w3.org/2000/svg" xmlns:xlink="http://www.w3.org/1999/xlink">
<defs>
<style type="text/css">*{stroke-linecap:butt;stroke-linejoin:round;}</style>
</defs>
<path d="m0 773.33h1469.3v-773.33h-1469.3z" fill="#fff"/>
<g fill="none" stroke="#000">
<path d="m584.94 36.065-517.95 587.89" clip-path="url(#a)"/>
<path d="m584.94 36.065-327.19 242.59" clip-path="url(#a)"/>
<path d="m584.94 36.065-24.008 242.59" clip-path="url(#a)"/>
<path d="m584.94 36.065 340.49 587.89" clip-path="url(#a)"/>
<path d="m584.94 36.065 467.67 122.82" clip-path="url(#a)"/>
<path d="m584.94 36.065-231.81 587.89" clip-path="url(#a)"/>
<path d="m584.94 36.065 292.8 587.89" clip-path="url(#a)"/>
<path d="m66.99 623.96v113.31" clip-path="url(#a)"/>
<path d="m257.75 278.65-47.691 117.1" clip-path="url(#a)"/>
<path d="m257.75 278.65 47.691 345.3" clip-path="url(#a)"/>
<path d="m560.93 278.65-160.11 345.3" clip-path="url(#a)"/>
<path d="m560.93 278.65-112.41 345.3" clip-path="url(#a)"/>
<path d="m560.93 278.65-64.724 345.3" clip-path="url(#a)"/>
<path d="m560.93 278.65-17.033 345.3" clip-path="url(#a)"/>
<path d="m560.93 278.65 30.659 345.3" clip-path="url(#a)"/>
<path d="m560.93 278.65 102.2 117.1" clip-path="url(#a)"/>
<path d="m560.93 278.65 221.42 231.99" clip-path="url(#a)"/>
<path d="m925.43 623.96v113.31" clip-path="url(#a)"/>
<path d="m1052.6 158.88-79.485 465.07" clip-path="url(#a)"/>
<path d="m1052.6 158.88-31.794 465.07" clip-path="url(#a)"/>
<path d="m1052.6 158.88 15.897 465.07" clip-path="url(#a)"/>
<path d="m1052.6 158.88 95.382 119.77" clip-path="url(#a)"/>
<path d="m973.12 623.96v113.31" clip-path="url(#a)"/>
<path d="m1020.8 623.96v113.31" clip-path="url(#a)"/>
<path d="m1068.5 623.96v113.31" clip-path="url(#a)"/>
<path d="m1148 278.65-174.87 345.3" clip-path="url(#a)" stroke-dasharray="3.7,1.6"/>
<path d="m1148 278.65-31.794 345.3" clip-path="url(#a)"/>
<path d="m1148 278.65 15.897 345.3" clip-path="url(#a)"/>
<path d="m1148 278.65 63.588 345.3" clip-path="url(#a)"/>
<path d="m1148 278.65 127.18 117.1" clip-path="url(#a)"/>
<path d="m1116.2 623.96v113.31" clip-path="url(#a)"/>
<path d="m1163.9 623.96v113.31" clip-path="url(#a)"/>
<path d="m1211.6 623.96v113.31" clip-path="url(#a)"/>
<path d="m1275.2 395.75-63.588 228.2" clip-path="url(#a)" stroke-dasharray="3.7,1.6"/>
<path d="m1275.2 395.75-15.897 228.2" clip-path="url(#a)"/>
<path d="m1275.2 395.75 79.485 114.89" clip-path="url(#a)"/>
<path d="m1259.3 623.96v113.31" clip-path="url(#a)"/>
<path d="m1354.7 510.64-47.691 113.31" clip-path="url(#a)"/>
<path d="m1354.7 510.64v113.31" clip-path="url(#a)"/>
<path d="m1354.7 510.64 47.691 113.31" clip-path="url(#a)"/>
<path d="m1307 623.96v113.31" clip-path="url(#a)"/>
<path d="m1354.7 623.96v113.31" clip-path="url(#a)"/>
<path d="m400.83 623.96v113.31" clip-path="url(#a)"/>
<path d="m448.52 623.96v113.31" clip-path="url(#a)"/>
<path d="m496.21 623.96v113.31" clip-path="url(#a)"/>
<path d="m543.9 623.96v113.31" clip-path="url(#a)"/>
<path d="m591.59 623.96v113.31" clip-path="url(#a)"/>
<path d="m663.13 395.75v114.89" clip-path="url(#a)"/>
<path d="m782.36 510.64-47.691 113.31" clip-path="url(#a)"/>
<path d="m782.36 510.64v113.31" clip-path="url(#a)"/>
<path d="m782.36 510.64 47.691 113.31" clip-path="url(#a)"/>
<path d="m734.67 623.96v113.31" clip-path="url(#a)"/>
<path d="m782.36 623.96v113.31" clip-path="url(#a)"/>
<path d="m830.05 623.96v113.31" clip-path="url(#a)"/>
<path d="m663.13 510.64-23.846 113.31" clip-path="url(#a)"/>
<path d="m663.13 510.64 23.846 113.31" clip-path="url(#a)"/>
<path d="m639.28 623.96v113.31" clip-path="url(#a)"/>
<path d="m686.98 623.96v113.31" clip-path="url(#a)"/>
<path d="m210.06 395.75-47.691 114.89" clip-path="url(#a)"/>
<path d="m210.06 395.75 47.691 228.2" clip-path="url(#a)"/>
<path d="m305.45 623.96v113.31" clip-path="url(#a)"/>
<path d="m162.37 510.64-47.691 226.63" clip-path="url(#a)"/>
<path d="m162.37 510.64 47.691 226.63" clip-path="url(#a)"/>
<path d="m162.37 510.64v113.31" clip-path="url(#a)"/>
<path d="m257.75 623.96v113.31" clip-path="url(#a)"/>
<path d="m162.37 623.96v113.31" clip-path="url(#a)"/>
<path d="m353.14 623.96v113.31" clip-path="url(#a)"/>
<path d="m877.74 623.96v113.31" clip-path="url(#a)"/>
<path d="m1402.3 623.96v113.31" clip-path="url(#a)"/>
</g>
<path d="m329.2 335.83 2.9467-3.3446q1.5866-1.8008-0.21423-3.3873l-5.8094-5.1183q-1.8008-1.5866-3.3873 0.21423l-2.9467 3.3446q-1.5866 1.8008 0.21423 3.3873l5.8094 5.1183q1.8008 1.5866 3.3873-0.21423z" clip-path="url(#a)" fill="#fff" stroke="#fff"/>
<g clip-path="url(#a)">
<defs>
<path id="af" d="m9.8125 72.906h9.8594v-64.609h35.5v-8.2969h-45.359z"/>
</defs>
<g transform="translate(326.15 333.14) rotate(-48.619) scale(.08 -.08)">
<use xlink:href="#af"/>
</g>
</g>
<path d="m422.67 164.19 4.8328-3.5832q1.9279-1.4294 0.49849-3.3573l-4.6113-6.2195q-1.4294-1.9279-3.3573-0.49849l-4.8328 3.5832q-1.9279 1.4294-0.49849 3.3573l4.6113 6.2195q1.4294 1.9279 3.3573 0.49849z" clip-path="url(#a)" fill="#fff" stroke="#fff"/>
<g clip-path="url(#a)">
<defs>
<path id="ag" d="m9.8125 72.906h9.8594v-29.891h35.844v29.891h9.8594v-72.906h-9.8594v34.719h-35.844v-34.719h-9.8594z"/>
</defs>
<g transform="translate(420.25 160.92) rotate(-36.554) scale(.08 -.08)">
<use xlink:href="#ag"/>
</g>
</g>
<path d="m578.88 160.97 0.59251-5.987q0.23636-2.3883-2.152-2.6247l-7.7049-0.76252q-2.3883-0.23636-2.6247 2.152l-0.59251 5.987q-0.23636 2.3883 2.152 2.6247l7.7049 0.76252q2.3883 0.23636 2.6247-2.152z" clip-path="url(#a)" fill="#fff" stroke="#fff"/>
<g clip-path="url(#a)">
<g transform="translate(574.84 160.57) rotate(-84.348) scale(.08 -.08)">
<use xlink:href="#ag"/>
</g>
</g>
<path d="m748.64 331.22 2.234 3.8573q1.2028 2.0768 3.2797 0.87399l6.6999-3.8804q2.0768-1.2028 0.87399-3.2797l-2.234-3.8573q-1.2028-2.0768-3.2797-0.87399l-6.6999 3.8804q-2.0768 1.2028-0.87399 3.2797z" clip-path="url(#a)" fill="#fff" stroke="#fff"/>
<g clip-path="url(#a)">
<g transform="translate(752.16 329.19) rotate(59.922) scale(.08 -.08)">
<use xlink:href="#af"/>
</g>
</g>
<path d="m814.27 102.78 5.8189 1.5282q2.3213 0.60962 2.9309-1.7117l1.9666-7.4886q0.60962-2.3213-1.7117-2.9309l-5.8189-1.5282q-2.3213-0.60962-2.9309 1.7117l-1.9666 7.4886q-0.60962 2.3213 1.7117 2.9309z" clip-path="url(#a)" fill="#fff" stroke="#fff"/>
<g clip-path="url(#a)">
<g transform="translate(815.3 98.845) rotate(14.715) scale(.08 -.08)">
<use xlink:href="#ag"/>
</g>
</g>
<path d="m473.8 335.03 2.1477-5.4469q0.88036-2.2327-1.3524-3.1131l-7.2028-2.8401q-2.2327-0.88036-3.1131 1.3524l-2.1477 5.4469q-0.88036 2.2327 1.3524 3.1131l7.2028 2.8401q2.2327 0.88036 3.1131-1.3524z" clip-path="url(#a)" fill="#fff" stroke="#fff"/>
<g clip-path="url(#a)">
<defs>
<path id="y" d="m8.6875 72.906h9.9219v-44.297q0-11.719 4.2344-16.875 4.25-5.1406 13.781-5.1406 9.4688 0 13.719 5.1406 4.25 5.1562 4.25 16.875v44.297h9.9062v-45.516q0-14.25-7.0625-21.531-7.0469-7.2812-20.812-7.2812-13.828 0-20.891 7.2812-7.0469 7.2812-7.0469 21.531z"/>
</defs>
<g transform="translate(470.02 333.54) rotate(-68.481) scale(.08 -.08)">
<use xlink:href="#y"/>
</g>
</g>
<path d="m724.42 330.19 2.6102 5.241q1.07 2.1483 3.2183 1.0783l6.9305-3.4517q2.1483-1.07 1.0783-3.2183l-2.6102-5.241q-1.07-2.1483-3.2183-1.0783l-6.9305 3.4517q-2.1483 1.07-1.0783 3.2183z" clip-path="url(#a)" fill="#fff" stroke="#fff"/>
<g clip-path="url(#a)">
<g transform="translate(728.06 328.37) rotate(63.524) scale(.08 -.08)">
<use xlink:href="#y"/>
</g>
</g>
<path d="m60.719 662.97v35.285q0 2.4 2.4 2.4h7.7425q2.4 0 2.4-2.4v-35.285q0-2.4-2.4-2.4h-7.7425q-2.4 0-2.4 2.4z" clip-path="url(#a)" fill="#fff" stroke="#fff"/>
<g clip-path="url(#a)">
<defs>
<path id="l" d="m-0.29688 72.906h61.672v-8.3125h-25.875v-64.594h-9.9062v64.594h-25.891z"/>
<path id="d" d="m56.203 29.594v-4.3906h-41.312q0.59375-9.2812 5.5938-14.141t13.938-4.8594q5.1719 0 10.031 1.2656t9.6562 3.8125v-8.5q-4.8438-2.0469-9.9219-3.125t-10.297-1.0781q-13.094 0-20.734 7.6094-7.6406 7.625-7.6406 20.625 0 13.422 7.25 21.297 7.25 7.8906 19.562 7.8906 11.031 0 17.453-7.1094 6.4219-7.0938 6.4219-19.297zm-8.9844 2.6406q-0.09375 7.3594-4.125 11.75-4.0312 4.4062-10.672 4.4062-7.5156 0-12.031-4.25t-5.2031-11.969z"/>
<path id="k" d="m41.109 46.297q-1.5156 0.875-3.2969 1.2812-1.7812 0.42188-3.9219 0.42188-7.625 0-11.703-4.9531t-4.0781-14.234v-28.812h-9.0312v54.688h9.0312v-8.5q2.8438 4.9844 7.375 7.3906 4.5469 2.4219 11.047 2.4219 0.92188 0 2.0469-0.125 1.125-0.10938 2.4844-0.35938z"/>
<path id="j" d="m52 44.188q3.375 6.0625 8.0625 8.9375t11.031 2.875q8.5469 0 13.188-5.9844 4.6406-5.9688 4.6406-17v-33.016h-9.0312v32.719q0 7.8594-2.7969 11.656-2.7812 3.8125-8.4844 3.8125-6.9844 0-11.047-4.6406-4.0469-4.625-4.0469-12.641v-30.906h-9.0312v32.719q0 7.9062-2.7812 11.688t-8.5938 3.7812q-6.8906 0-10.953-4.6562-4.0469-4.6562-4.0469-12.625v-30.906h-9.0312v54.688h9.0312v-8.5q3.0781 5.0312 7.375 7.4219t10.203 2.3906q5.9688 0 10.141-3.0312 4.1719-3.0156 6.1719-8.7812z"/>
<path id="g" d="m9.4219 54.688h8.9844v-54.688h-8.9844zm0 21.297h8.9844v-11.391h-8.9844z"/>
<path id="h" d="m54.891 33.016v-33.016h-8.9844v32.719q0 7.7656-3.0312 11.609-3.0312 3.8594-9.0781 3.8594-7.2812 0-11.484-4.6406-4.2031-4.625-4.2031-12.641v-30.906h-9.0312v54.688h9.0312v-8.5q3.2344 4.9375 7.5938 7.375 4.375 2.4375 10.094 2.4375 9.4219 0 14.25-5.8281 4.8438-5.8281 4.8438-17.156z"/>
<path id="e" d="m34.281 27.484q-10.891 0-15.094-2.4844t-4.2031-8.5q0-4.7812 3.1562-7.5938 3.1562-2.7969 8.5625-2.7969 7.4844 0 12 5.2969t4.5156 14.078v2zm17.922 3.7188v-31.203h-8.9844v8.2969q-3.0781-4.9688-7.6719-7.3438t-11.234-2.375q-8.3906 0-13.359 4.7188-4.9531 4.7188-4.9531 12.625 0 9.2188 6.1719 13.906 6.1875 4.6875 18.438 4.6875h12.609v0.89062q0 6.2031-4.0781 9.5938t-11.453 3.3906q-4.6875 0-9.1406-1.125-4.4375-1.125-8.5312-3.375v8.3125q4.9219 1.9062 9.5625 2.8438 4.6406 0.95312 9.0312 0.95312 11.875 0 17.734-6.1562 5.8594-6.1406 5.8594-18.641z"/>
<path id="i" d="m9.4219 75.984h8.9844v-75.984h-8.9844z"/>
</defs>
<g transform="translate(64.783 662.97) rotate(90) scale(.08 -.08)">
<use xlink:href="#l"/>
<use x="60.818359" xlink:href="#d"/>
<use x="122.341797" xlink:href="#k"/>
<use x="163.439453" xlink:href="#j"/>
<use x="260.851562" xlink:href="#g"/>
<use x="288.634766" xlink:href="#h"/>
<use x="352.013672" xlink:href="#e"/>
<use x="413.292969" xlink:href="#i"/>
</g>
</g>
<path d="m238.69 342.1 2.0641-5.0683q0.90524-2.2227-1.3175-3.128l-7.1706-2.9203q-2.2227-0.90524-3.128 1.3175l-2.0641 5.0683q-0.90524 2.2227 1.3175 3.128l7.1706 2.9203q2.2227 0.90524 3.128-1.3175z" clip-path="url(#a)" fill="#fff" stroke="#fff"/>
<g clip-path="url(#a)">
<defs>
<path id="o" d="m34.188 63.188-13.391-36.281h26.812zm-5.5781 9.7188h11.188l27.781-72.906h-10.25l-6.6406 18.703h-32.859l-6.6406-18.703h-10.406z"/>
</defs>
<g transform="translate(234.92 340.57) rotate(-67.841) scale(.08 -.08)">
<use xlink:href="#o"/>
</g>
</g>
<path d="m275.06 449.77 0.65996 4.7784q0.32836 2.3774 2.7058 2.0491l7.6697-1.0593q2.3774-0.32836 2.0491-2.7058l-0.65996-4.7784q-0.32836-2.3774-2.7058-2.0491l-7.6697 1.0593q-2.3774 0.32836-2.0491 2.7058z" clip-path="url(#a)" fill="#fff" stroke="#fff"/>
<g clip-path="url(#a)">
<defs>
<path id="t" d="m19.672 64.797v-27.391h12.406q6.8906 0 10.641 3.5625 3.7656 3.5625 3.7656 10.156 0 6.5469-3.7656 10.109-3.75 3.5625-10.641 3.5625zm-9.8594 8.1094h22.266q12.266 0 18.531-5.5469 6.2812-5.5469 6.2812-16.234 0-10.797-6.2812-16.312-6.2656-5.5156-18.531-5.5156h-12.406v-29.297h-9.8594z"/>
</defs>
<g transform="translate(279.08 449.22) rotate(82.136) scale(.08 -.08)">
<use xlink:href="#t"/>
</g>
</g>
<path d="m485.42 456.42 2.302-4.9648q1.0096-2.1773-1.1678-3.1869l-7.0242-3.2569q-2.1773-1.0096-3.1869 1.1678l-2.302 4.9648q-1.0096 2.1773 1.1678 3.1869l7.0242 3.2569q2.1773 1.0096 3.1869-1.1678z" clip-path="url(#a)" fill="#fff" stroke="#fff"/>
<g clip-path="url(#a)">
<g transform="translate(481.73 454.72) rotate(-65.124) scale(.08 -.08)">
<use xlink:href="#o"/>
</g>
</g>
<path d="m509.98 455.43 1.4244-4.3752q0.74295-2.2821-1.5392-3.0251l-7.3622-2.3968q-2.2821-0.74295-3.0251 1.5392l-1.4244 4.3752q-0.74295 2.2821 1.5392 3.0251l7.3622 2.3968q2.2821 0.74295 3.0251-1.5392z" clip-path="url(#a)" fill="#fff" stroke="#fff"/>
<g clip-path="url(#a)">
<defs>
<path id="z" d="m9.8125 72.906h41.891v-8.3125h-32.031v-21.484h28.906v-8.2969h-28.906v-34.812h-9.8594z"/>
</defs>
<g transform="translate(506.11 454.18) rotate(-71.967) scale(.08 -.08)">
<use xlink:href="#z"/>
</g>
</g>
<path d="m534.17 455.49 1.1349-6.0546q0.44216-2.3589-1.9168-2.8011l-7.61-1.4264q-2.3589-0.44216-2.8011 1.9168l-1.1349 6.0546q-0.44216 2.3589 1.9168 2.8011l7.61 1.4264q2.3589 0.44216 2.8011-1.9168z" clip-path="url(#a)" fill="#fff" stroke="#fff"/>
<g clip-path="url(#a)">
<defs>
<path id="ao" d="m19.672 64.797v-56.688h11.922q15.094 0 22.094 6.8281 7 6.8438 7 21.594 0 14.641-7 21.453t-22.094 6.8125zm-9.8594 8.1094h20.266q21.188 0 31.094-8.8125 9.9219-8.8125 9.9219-27.562 0-18.859-9.9688-27.703-9.9531-8.8281-31.047-8.8281h-20.266z"/>
</defs>
<g transform="translate(530.17 454.74) rotate(-79.384) scale(.08 -.08)">
<use xlink:href="#ao"/>
</g>
</g>
<path d="m558.57 453.91 0.22669-4.5957q0.11824-2.3971-2.2788-2.5153l-7.7331-0.38145q-2.3971-0.11824-2.5153 2.2788l-0.22669 4.5957q-0.11824 2.3971 2.2788 2.5153l7.7331 0.38145q2.3971 0.11824 2.5153-2.2788z" clip-path="url(#a)" fill="#fff" stroke="#fff"/>
<g clip-path="url(#a)">
<g transform="translate(554.51 453.71) rotate(-87.176) scale(.08 -.08)">
<use xlink:href="#z"/>
</g>
</g>
<path d="m569.8 449.46 0.42661 4.8048q0.21226 2.3906 2.6029 2.1783l7.7122-0.68474q2.3906-0.21226 2.1783-2.6028l-0.42661-4.8048q-0.21226-2.3906-2.6029-2.1783l-7.7122 0.68474q-2.3906 0.21226-2.1783 2.6029z" clip-path="url(#a)" fill="#fff" stroke="#fff"/>
<g clip-path="url(#a)">
<g transform="translate(573.85 449.1) rotate(84.926) scale(.08 -.08)">
<use xlink:href="#t"/>
</g>
</g>
<path d="m605.51 339.27 3.5983 4.1232q1.5781 1.8082 3.3863 0.23017l5.8334-5.0909q1.8082-1.5781 0.23017-3.3863l-3.5983-4.1232q-1.5781-1.8082-3.3863-0.23017l-5.8334 5.0909q-1.8082 1.5781-0.23017 3.3863z" clip-path="url(#a)" fill="#fff" stroke="#fff"/>
<g clip-path="url(#a)">
<g transform="translate(608.57 336.59) rotate(48.888) scale(.08 -.08)">
<use xlink:href="#o"/>
</g>
</g>
<path d="m665.22 397 3.7784 3.9588q1.6571 1.7361 3.3932 0.079079l5.6008-5.3457q1.7361-1.6571 0.079079-3.3932l-3.7784-3.9587q-1.6571-1.7361-3.3932-0.079079l-5.6008 5.3457q-1.7361 1.6571-0.079079 3.3932z" clip-path="url(#a)" fill="#fff" stroke="#fff"/>
<g clip-path="url(#a)">
<g transform="translate(668.16 394.19) rotate(46.335) scale(.08 -.08)">
<use xlink:href="#o"/>
</g>
</g>
<path d="m919.16 662.97v35.285q0 2.4 2.4 2.4h7.7425q2.4 0 2.4-2.4v-35.285q0-2.4-2.4-2.4h-7.7425q-2.4 0-2.4 2.4z" clip-path="url(#a)" fill="#fff" stroke="#fff"/>
<g clip-path="url(#a)">
<g transform="translate(923.22 662.97) rotate(90) scale(.08 -.08)">
<use xlink:href="#l"/>
<use x="60.818359" xlink:href="#d"/>
<use x="122.341797" xlink:href="#k"/>
<use x="163.439453" xlink:href="#j"/>
<use x="260.851562" xlink:href="#g"/>
<use x="288.634766" xlink:href="#h"/>
<use x="352.013672" xlink:href="#e"/>
<use x="413.292969" xlink:href="#i"/>
</g>
</g>
<path d="m1018.6 395.17 0.92194-5.3943q0.40432-2.3657-1.9614-2.77l-7.6318-1.3044q-2.3657-0.40432-2.77 1.9614l-0.92194 5.3943q-0.40432 2.3657 1.9614 2.77l7.6318 1.3044q2.3657 0.40432 2.77-1.9614z" clip-path="url(#a)" fill="#fff" stroke="#fff"/>
<g clip-path="url(#a)">
<g transform="translate(1014.6 394.49) rotate(-80.301) scale(.08 -.08)">
<use xlink:href="#o"/>
</g>
</g>
<path d="m1042.8 394.14 0.31383-4.5905q0.16369-2.3944-2.2307-2.5581l-7.7245-0.52807q-2.3944-0.16369-2.5581 2.2307l-0.31383 4.5905q-0.16369 2.3944 2.2307 2.5581l7.7245 0.52807q2.3944 0.16369 2.5581-2.2307z" clip-path="url(#a)" fill="#fff" stroke="#fff"/>
<g clip-path="url(#a)">
<g transform="translate(1038.8 393.87) rotate(-86.089) scale(.08 -.08)">
<use xlink:href="#z"/>
</g>
</g>
<path d="m1054.2 389.22 0.16479 4.8209q0.081988 2.3986 2.4806 2.3166l7.738-0.2645q2.3986-0.081989 2.3166-2.4806l-0.16479-4.8209q-0.081989-2.3986-2.4806-2.3166l-7.738 0.2645q-2.3986 0.081989-2.3166 2.4806z" clip-path="url(#a)" fill="#fff" stroke="#fff"/>
<g clip-path="url(#a)">
<g transform="translate(1058.3 389.08) rotate(88.042) scale(.08 -.08)">
<use xlink:href="#t"/>
</g>
</g>
<path d="m1093.7 220.53 3.4092 4.2808q1.4951 1.8774 3.3725 0.38227l6.0565-4.8233q1.8774-1.4951 0.38227-3.3725l-3.4092-4.2808q-1.4951-1.8774-3.3725-0.38227l-6.0565 4.8233q-1.8774 1.4951-0.38227 3.3725z" clip-path="url(#a)" fill="#fff" stroke="#fff"/>
<g clip-path="url(#a)">
<g transform="translate(1096.9 218) rotate(51.467) scale(.08 -.08)">
<use xlink:href="#o"/>
</g>
</g>
<path d="m966.85 662.97v35.285q0 2.4 2.4 2.4h7.7425q2.4 0 2.4-2.4v-35.285q0-2.4-2.4-2.4h-7.7425q-2.4 0-2.4 2.4z" clip-path="url(#a)" fill="#fff" stroke="#fff"/>
<g clip-path="url(#a)">
<g transform="translate(970.92 662.97) rotate(90) scale(.08 -.08)">
<use xlink:href="#l"/>
<use x="60.818359" xlink:href="#d"/>
<use x="122.341797" xlink:href="#k"/>
<use x="163.439453" xlink:href="#j"/>
<use x="260.851562" xlink:href="#g"/>
<use x="288.634766" xlink:href="#h"/>
<use x="352.013672" xlink:href="#e"/>
<use x="413.292969" xlink:href="#i"/>
</g>
</g>
<path d="m1014.5 662.97v35.285q0 2.4 2.4 2.4h7.7425q2.4 0 2.4-2.4v-35.285q0-2.4-2.4-2.4h-7.7425q-2.4 0-2.4 2.4z" clip-path="url(#a)" fill="#fff" stroke="#fff"/>
<g clip-path="url(#a)">
<g transform="translate(1018.6 662.97) rotate(90) scale(.08 -.08)">
<use xlink:href="#l"/>
<use x="60.818359" xlink:href="#d"/>
<use x="122.341797" xlink:href="#k"/>
<use x="163.439453" xlink:href="#j"/>
<use x="260.851562" xlink:href="#g"/>
<use x="288.634766" xlink:href="#h"/>
<use x="352.013672" xlink:href="#e"/>
<use x="413.292969" xlink:href="#i"/>
</g>
</g>
<path d="m1062.2 662.97v35.285q0 2.4 2.4 2.4h7.7425q2.4 0 2.4-2.4v-35.285q0-2.4-2.4-2.4h-7.7425q-2.4 0-2.4 2.4z" clip-path="url(#a)" fill="#fff" stroke="#fff"/>
<g clip-path="url(#a)">
<g transform="translate(1066.3 662.97) rotate(90) scale(.08 -.08)">
<use xlink:href="#l"/>
<use x="60.818359" xlink:href="#d"/>
<use x="122.341797" xlink:href="#k"/>
<use x="163.439453" xlink:href="#j"/>
<use x="260.851562" xlink:href="#g"/>
<use x="288.634766" xlink:href="#h"/>
<use x="352.013672" xlink:href="#e"/>
<use x="413.292969" xlink:href="#i"/>
</g>
</g>
<path d="m1064.9 456.58 2.4724-4.8822q1.0843-2.1411-1.0568-3.2254l-6.9073-3.498q-2.1411-1.0843-3.2254 1.0568l-2.4724 4.8822q-1.0843 2.1411 1.0568 3.2254l6.9073 3.498q2.1411 1.0843 3.2254-1.0568z" clip-path="url(#a)" fill="#fff" stroke="#fff"/>
<g clip-path="url(#a)">
<g transform="translate(1061.3 454.74) rotate(-63.142) scale(.08 -.08)">
<use xlink:href="#o"/>
</g>
</g>
<path d="m1138.1 454.17 0.42188-4.5819q0.22005-2.3899-2.1698-2.6099l-7.7099-0.7099q-2.3899-0.22005-2.6099 2.1698l-0.42188 4.5819q-0.22005 2.3899 2.1698 2.6099l7.7099 0.7099q2.3899 0.22005 2.6099-2.1698z" clip-path="url(#a)" fill="#fff" stroke="#fff"/>
<g clip-path="url(#a)">
<g transform="translate(1134.1 453.8) rotate(-84.739) scale(.08 -.08)">
<use xlink:href="#z"/>
</g>
</g>
<path d="m1149.6 449.18 0.22184 4.8186q0.11037 2.3975 2.5078 2.2871l7.7343-0.35607q2.3975-0.11037 2.2871-2.5078l-0.22184-4.8186q-0.11037-2.3975-2.5078-2.2871l-7.7343 0.35607q-2.3975 0.11037-2.2871 2.5078z" clip-path="url(#a)" fill="#fff" stroke="#fff"/>
<g clip-path="url(#a)">
<g transform="translate(1153.6 449) rotate(87.364) scale(.08 -.08)">
<use xlink:href="#t"/>
</g>
</g>
<path d="m1173.1 449.75 0.99111 5.382q0.43466 2.3603 2.795 1.9257l7.6145-1.4022q2.3603-0.43466 1.9257-2.795l-0.99111-5.382q-0.43466-2.3603-2.795-1.9257l-7.6145 1.4022q-2.3603 0.43466-1.9257 2.795z" clip-path="url(#a)" fill="#fff" stroke="#fff"/>
<g clip-path="url(#a)">
<g transform="translate(1177.1 449.01) rotate(79.566) scale(.08 -.08)">
<use xlink:href="#o"/>
</g>
</g>
<path d="m1205.3 339.96 4.0258 3.7069q1.7656 1.6257 3.3912-0.13987l5.2445-5.6957q1.6257-1.7656-0.13987-3.3912l-4.0258-3.7069q-1.7656-1.6257-3.3912 0.13987l-5.2445 5.6957q-1.6257 1.7656 0.13987 3.3912z" clip-path="url(#a)" fill="#fff" stroke="#fff"/>
<g clip-path="url(#a)">
<g transform="translate(1208.1 336.97) rotate(42.638) scale(.08 -.08)">
<use xlink:href="#o"/>
</g>
</g>
<path d="m1109.9 662.97v35.285q0 2.4 2.4 2.4h7.7425q2.4 0 2.4-2.4v-35.285q0-2.4-2.4-2.4h-7.7425q-2.4 0-2.4 2.4z" clip-path="url(#a)" fill="#fff" stroke="#fff"/>
<g clip-path="url(#a)">
<g transform="translate(1114 662.97) rotate(90) scale(.08 -.08)">
<use xlink:href="#l"/>
<use x="60.818359" xlink:href="#d"/>
<use x="122.341797" xlink:href="#k"/>
<use x="163.439453" xlink:href="#j"/>
<use x="260.851562" xlink:href="#g"/>
<use x="288.634766" xlink:href="#h"/>
<use x="352.013672" xlink:href="#e"/>
<use x="413.292969" xlink:href="#i"/>
</g>
</g>
<path d="m1157.6 662.97v35.285q0 2.4 2.4 2.4h7.7425q2.4 0 2.4-2.4v-35.285q0-2.4-2.4-2.4h-7.7425q-2.4 0-2.4 2.4z" clip-path="url(#a)" fill="#fff" stroke="#fff"/>
<g clip-path="url(#a)">
<g transform="translate(1161.7 662.97) rotate(90) scale(.08 -.08)">
<use xlink:href="#l"/>
<use x="60.818359" xlink:href="#d"/>
<use x="122.341797" xlink:href="#k"/>
<use x="163.439453" xlink:href="#j"/>
<use x="260.851562" xlink:href="#g"/>
<use x="288.634766" xlink:href="#h"/>
<use x="352.013672" xlink:href="#e"/>
<use x="413.292969" xlink:href="#i"/>
</g>
</g>
<path d="m1205.3 662.97v35.285q0 2.4 2.4 2.4h7.7425q2.4 0 2.4-2.4v-35.285q0-2.4-2.4-2.4h-7.7425q-2.4 0-2.4 2.4z" clip-path="url(#a)" fill="#fff" stroke="#fff"/>
<g clip-path="url(#a)">
<g transform="translate(1209.4 662.97) rotate(90) scale(.08 -.08)">
<use xlink:href="#l"/>
<use x="60.818359" xlink:href="#d"/>
<use x="122.341797" xlink:href="#k"/>
<use x="163.439453" xlink:href="#j"/>
<use x="260.851562" xlink:href="#g"/>
<use x="288.634766" xlink:href="#h"/>
<use x="352.013672" xlink:href="#e"/>
<use x="413.292969" xlink:href="#i"/>
</g>
</g>
<path d="m1248.7 514.17 1.4689-5.2717q0.64422-2.3119-1.6677-2.9561l-7.4584-2.0783q-2.3119-0.64422-2.9561 1.6677l-1.4689 5.2717q-0.64422 2.3119 1.6677 2.9561l7.4584 2.0783q2.3119 0.64422 2.9561-1.6677z" clip-path="url(#a)" fill="#fff" stroke="#fff"/>
<g clip-path="url(#a)">
<g transform="translate(1244.8 513.08) rotate(-74.43) scale(.08 -.08)">
<use xlink:href="#o"/>
</g>
</g>
<path d="m1273.3 512.7 0.33522-4.8121q0.16679-2.3942-2.2274-2.561l-7.7238-0.53806q-2.3942-0.16679-2.561 2.2274l-0.33522 4.8121q-0.16678 2.3942 2.2274 2.561l7.7238 0.53806q2.3942 0.16678 2.561-2.2274z" clip-path="url(#a)" fill="#fff" stroke="#fff"/>
<g clip-path="url(#a)">
<g transform="translate(1269.3 512.41) rotate(-86.015) scale(.08 -.08)">
<use xlink:href="#t"/>
</g>
</g>
<path d="m1308.2 454.52 3.1136 4.5004q1.3655 1.9737 3.3392 0.6082l6.3672-4.4051q1.9737-1.3655 0.6082-3.3392l-3.1136-4.5004q-1.3655-1.9737-3.3392-0.6082l-6.3672 4.4051q-1.9737 1.3655-0.6082 3.3392z" clip-path="url(#a)" fill="#fff" stroke="#fff"/>
<g clip-path="url(#a)">
<g transform="translate(1311.5 452.2) rotate(55.323) scale(.08 -.08)">
<use xlink:href="#o"/>
</g>
</g>
<path d="m1253 662.97v35.285q0 2.4 2.4 2.4h7.7425q2.4 0 2.4-2.4v-35.285q0-2.4-2.4-2.4h-7.7425q-2.4 0-2.4 2.4z" clip-path="url(#a)" fill="#fff" stroke="#fff"/>
<g clip-path="url(#a)">
<g transform="translate(1257.1 662.97) rotate(90) scale(.08 -.08)">
<use xlink:href="#l"/>
<use x="60.818359" xlink:href="#d"/>
<use x="122.341797" xlink:href="#k"/>
<use x="163.439453" xlink:href="#j"/>
<use x="260.851562" xlink:href="#g"/>
<use x="288.634766" xlink:href="#h"/>
<use x="352.013672" xlink:href="#e"/>
<use x="413.292969" xlink:href="#i"/>
</g>
</g>
<path d="m1335.6 572.06 1.961-4.6592q0.93102-2.2121-1.281-3.1431l-7.1362-3.0035q-2.2121-0.93102-3.1431 1.281l-1.961 4.6592q-0.93102 2.2121 1.281 3.1431l7.1362 3.0035q2.2121 0.93102 3.1431-1.281z" clip-path="url(#a)" fill="#fff" stroke="#fff"/>
<g clip-path="url(#a)">
<defs>
<path id="ah" d="m9.8125 72.906h46.094v-8.3125h-36.234v-21.578h34.719v-8.2969h-34.719v-26.422h37.109v-8.2969h-46.969z"/>
</defs>
<g transform="translate(1331.9 570.49) rotate(-67.175) scale(.08 -.08)">
<use xlink:href="#ah"/>
</g>
</g>
<path d="m1348.4 564.51v5.5862q0 2.4 2.4 2.4h7.7425q2.4 0 2.4-2.4v-5.5862q0-2.4-2.4-2.4h-7.7425q-2.4 0-2.4 2.4z" clip-path="url(#a)" fill="#fff" stroke="#fff"/>
<g clip-path="url(#a)">
<defs>
<path id="aa" d="m64.406 67.281v-10.391q-4.9844 4.6406-10.625 6.9219-5.6406 2.2969-11.984 2.2969-12.5 0-19.141-7.6406t-6.6406-22.094q0-14.406 6.6406-22.047t19.141-7.6406q6.3438 0 11.984 2.2969t10.625 6.9375v-10.312q-5.1719-3.5156-10.969-5.2812-5.7812-1.75-12.219-1.75-16.562 0-26.094 10.125-9.5156 10.141-9.5156 27.672 0 17.578 9.5156 27.703 9.5312 10.141 26.094 10.141 6.5312 0 12.312-1.7344 5.7969-1.7344 10.875-5.2031z"/>
</defs>
<g transform="translate(1352.4 564.51) rotate(90) scale(.08 -.08)">
<use xlink:href="#aa"/>
</g>
</g>
<path d="m1371.6 567.03 2.2713 5.3965q0.93101 2.2121 3.1431 1.281l7.1362-3.0035q2.2121-0.93102 1.281-3.1431l-2.2713-5.3965q-0.93102-2.2121-3.1431-1.281l-7.1362 3.0035q-2.2121 0.93102-1.281 3.1431z" clip-path="url(#a)" fill="#fff" stroke="#fff"/>
<g clip-path="url(#a)">
<g transform="translate(1375.3 565.46) rotate(67.175) scale(.08 -.08)">
<use xlink:href="#y"/>
</g>
</g>
<path d="m1300.7 662.97v35.285q0 2.4 2.4 2.4h7.7425q2.4 0 2.4-2.4v-35.285q0-2.4-2.4-2.4h-7.7425q-2.4 0-2.4 2.4z" clip-path="url(#a)" fill="#fff" stroke="#fff"/>
<g clip-path="url(#a)">
<g transform="translate(1304.8 662.97) rotate(90) scale(.08 -.08)">
<use xlink:href="#l"/>
<use x="60.818359" xlink:href="#d"/>
<use x="122.341797" xlink:href="#k"/>
<use x="163.439453" xlink:href="#j"/>
<use x="260.851562" xlink:href="#g"/>
<use x="288.634766" xlink:href="#h"/>
<use x="352.013672" xlink:href="#e"/>
<use x="413.292969" xlink:href="#i"/>
</g>
</g>
<path d="m1348.4 662.97v35.285q0 2.4 2.4 2.4h7.7425q2.4 0 2.4-2.4v-35.285q0-2.4-2.4-2.4h-7.7425q-2.4 0-2.4 2.4z" clip-path="url(#a)" fill="#fff" stroke="#fff"/>
<g clip-path="url(#a)">
<g transform="translate(1352.4 662.97) rotate(90) scale(.08 -.08)">
<use xlink:href="#l"/>
<use x="60.818359" xlink:href="#d"/>
<use x="122.341797" xlink:href="#k"/>
<use x="163.439453" xlink:href="#j"/>
<use x="260.851562" xlink:href="#g"/>
<use x="288.634766" xlink:href="#h"/>
<use x="352.013672" xlink:href="#e"/>
<use x="413.292969" xlink:href="#i"/>
</g>
</g>
<path d="m394.56 662.97v35.285q0 2.4 2.4 2.4h7.7425q2.4 0 2.4-2.4v-35.285q0-2.4-2.4-2.4h-7.7425q-2.4 0-2.4 2.4z" clip-path="url(#a)" fill="#fff" stroke="#fff"/>
<g clip-path="url(#a)">
<g transform="translate(398.62 662.97) rotate(90) scale(.08 -.08)">
<use xlink:href="#l"/>
<use x="60.818359" xlink:href="#d"/>
<use x="122.341797" xlink:href="#k"/>
<use x="163.439453" xlink:href="#j"/>
<use x="260.851562" xlink:href="#g"/>
<use x="288.634766" xlink:href="#h"/>
<use x="352.013672" xlink:href="#e"/>
<use x="413.292969" xlink:href="#i"/>
</g>
</g>
<path d="m442.25 662.97v35.285q0 2.4 2.4 2.4h7.7425q2.4 0 2.4-2.4v-35.285q0-2.4-2.4-2.4h-7.7425q-2.4 0-2.4 2.4z" clip-path="url(#a)" fill="#fff" stroke="#fff"/>
<g clip-path="url(#a)">
<g transform="translate(446.31 662.97) rotate(90) scale(.08 -.08)">
<use xlink:href="#l"/>
<use x="60.818359" xlink:href="#d"/>
<use x="122.341797" xlink:href="#k"/>
<use x="163.439453" xlink:href="#j"/>
<use x="260.851562" xlink:href="#g"/>
<use x="288.634766" xlink:href="#h"/>
<use x="352.013672" xlink:href="#e"/>
<use x="413.292969" xlink:href="#i"/>
</g>
</g>
<path d="m489.94 662.97v35.285q0 2.4 2.4 2.4h7.7425q2.4 0 2.4-2.4v-35.285q0-2.4-2.4-2.4h-7.7425q-2.4 0-2.4 2.4z" clip-path="url(#a)" fill="#fff" stroke="#fff"/>
<g clip-path="url(#a)">
<g transform="translate(494 662.97) rotate(90) scale(.08 -.08)">
<use xlink:href="#l"/>
<use x="60.818359" xlink:href="#d"/>
<use x="122.341797" xlink:href="#k"/>
<use x="163.439453" xlink:href="#j"/>
<use x="260.851562" xlink:href="#g"/>
<use x="288.634766" xlink:href="#h"/>
<use x="352.013672" xlink:href="#e"/>
<use x="413.292969" xlink:href="#i"/>
</g>
</g>
<path d="m537.63 662.97v35.285q0 2.4 2.4 2.4h7.7425q2.4 0 2.4-2.4v-35.285q0-2.4-2.4-2.4h-7.7425q-2.4 0-2.4 2.4z" clip-path="url(#a)" fill="#fff" stroke="#fff"/>
<g clip-path="url(#a)">
<g transform="translate(541.69 662.97) rotate(90) scale(.08 -.08)">
<use xlink:href="#l"/>
<use x="60.818359" xlink:href="#d"/>
<use x="122.341797" xlink:href="#k"/>
<use x="163.439453" xlink:href="#j"/>
<use x="260.851562" xlink:href="#g"/>
<use x="288.634766" xlink:href="#h"/>
<use x="352.013672" xlink:href="#e"/>
<use x="413.292969" xlink:href="#i"/>
</g>
</g>
<path d="m585.32 662.97v35.285q0 2.4 2.4 2.4h7.7425q2.4 0 2.4-2.4v-35.285q0-2.4-2.4-2.4h-7.7425q-2.4 0-2.4 2.4z" clip-path="url(#a)" fill="#fff" stroke="#fff"/>
<g clip-path="url(#a)">
<g transform="translate(589.39 662.97) rotate(90) scale(.08 -.08)">
<use xlink:href="#l"/>
<use x="60.818359" xlink:href="#d"/>
<use x="122.341797" xlink:href="#k"/>
<use x="163.439453" xlink:href="#j"/>
<use x="260.851562" xlink:href="#g"/>
<use x="288.634766" xlink:href="#h"/>
<use x="352.013672" xlink:href="#e"/>
<use x="413.292969" xlink:href="#i"/>
</g>
</g>
<path d="m656.86 450.79v4.8238q0 2.4 2.4 2.4h7.7425q2.4 0 2.4-2.4v-4.8238q0-2.4-2.4-2.4h-7.7425q-2.4 0-2.4 2.4z" clip-path="url(#a)" fill="#fff" stroke="#fff"/>
<g clip-path="url(#a)">
<g transform="translate(660.92 450.79) rotate(90) scale(.08 -.08)">
<use xlink:href="#t"/>
</g>
</g>
<path d="m763.21 572.29 2.1564-5.1235q0.93101-2.2121-1.281-3.1431l-7.1362-3.0035q-2.2121-0.93102-3.1431 1.281l-2.1564 5.1235q-0.93101 2.2121 1.281 3.1431l7.1362 3.0035q2.2121 0.93102 3.1431-1.281z" clip-path="url(#a)" fill="#fff" stroke="#fff"/>
<g clip-path="url(#a)">
<defs>
<path id="am" d="m44.391 34.188q3.1719-1.0781 6.1719-4.5938t6.0312-9.6719l10.016-19.922h-10.609l-9.3125 18.703q-3.625 7.3281-7.0156 9.7188t-9.25 2.3906h-10.75v-30.812h-9.8594v72.906h22.266q12.5 0 18.656-5.2344 6.1562-5.2188 6.1562-15.766 0-6.8906-3.2031-11.438-3.2031-4.5312-9.2969-6.2812zm-24.719 30.609v-25.875h12.406q7.125 0 10.766 3.2969t3.6406 9.6875-3.6406 9.6406-10.766 3.25z"/>
</defs>
<g transform="translate(759.47 570.72) rotate(-67.175) scale(.08 -.08)">
<use xlink:href="#am"/>
</g>
</g>
<path d="m776.09 564.77v5.055q0 2.4 2.4 2.4h7.7425q2.4 0 2.4-2.4v-5.055q0-2.4-2.4-2.4h-7.7425q-2.4 0-2.4 2.4z" clip-path="url(#a)" fill="#fff" stroke="#fff"/>
<g clip-path="url(#a)">
<g transform="translate(780.15 564.77) rotate(90) scale(.08 -.08)">
<use xlink:href="#ah"/>
</g>
</g>
<path d="m799.34 567.16 2.167 5.1488q0.93102 2.2121 3.1431 1.281l7.1362-3.0035q2.2121-0.93101 1.281-3.1431l-2.167-5.1488q-0.93102-2.2121-3.1431-1.281l-7.1362 3.0035q-2.2121 0.93101-1.281 3.1431z" clip-path="url(#a)" fill="#fff" stroke="#fff"/>
<g clip-path="url(#a)">
<g transform="translate(803.09 565.58) rotate(67.175) scale(.08 -.08)">
<use xlink:href="#aa"/>
</g>
</g>
<path d="m728.4 662.97v35.285q0 2.4 2.4 2.4h7.7425q2.4 0 2.4-2.4v-35.285q0-2.4-2.4-2.4h-7.7425q-2.4 0-2.4 2.4z" clip-path="url(#a)" fill="#fff" stroke="#fff"/>
<g clip-path="url(#a)">
<g transform="translate(732.46 662.97) rotate(90) scale(.08 -.08)">
<use xlink:href="#l"/>
<use x="60.818359" xlink:href="#d"/>
<use x="122.341797" xlink:href="#k"/>
<use x="163.439453" xlink:href="#j"/>
<use x="260.851562" xlink:href="#g"/>
<use x="288.634766" xlink:href="#h"/>
<use x="352.013672" xlink:href="#e"/>
<use x="413.292969" xlink:href="#i"/>
</g>
</g>
<path d="m776.09 662.97v35.285q0 2.4 2.4 2.4h7.7425q2.4 0 2.4-2.4v-35.285q0-2.4-2.4-2.4h-7.7425q-2.4 0-2.4 2.4z" clip-path="url(#a)" fill="#fff" stroke="#fff"/>
<g clip-path="url(#a)">
<g transform="translate(780.15 662.97) rotate(90) scale(.08 -.08)">
<use xlink:href="#l"/>
<use x="60.818359" xlink:href="#d"/>
<use x="122.341797" xlink:href="#k"/>
<use x="163.439453" xlink:href="#j"/>
<use x="260.851562" xlink:href="#g"/>
<use x="288.634766" xlink:href="#h"/>
<use x="352.013672" xlink:href="#e"/>
<use x="413.292969" xlink:href="#i"/>
</g>
</g>
<path d="m823.78 662.97v35.285q0 2.4 2.4 2.4h7.7425q2.4 0 2.4-2.4v-35.285q0-2.4-2.4-2.4h-7.7425q-2.4 0-2.4 2.4z" clip-path="url(#a)" fill="#fff" stroke="#fff"/>
<g clip-path="url(#a)">
<g transform="translate(827.84 662.97) rotate(90) scale(.08 -.08)">
<use xlink:href="#l"/>
<use x="60.818359" xlink:href="#d"/>
<use x="122.341797" xlink:href="#k"/>
<use x="163.439453" xlink:href="#j"/>
<use x="260.851562" xlink:href="#g"/>
<use x="288.634766" xlink:href="#h"/>
<use x="352.013672" xlink:href="#e"/>
<use x="413.292969" xlink:href="#i"/>
</g>
</g>
<path d="m656.82 571.06 1.041-4.9467q0.49423-2.3486-1.8543-2.8428l-7.5766-1.5944q-2.3486-0.49423-2.8428 1.8543l-1.041 4.9467q-0.49423 2.3486 1.8543 2.8428l7.5766 1.5944q2.3486 0.49423 2.8428-1.8543z" clip-path="url(#a)" fill="#fff" stroke="#fff"/>
<g clip-path="url(#a)">
<g transform="translate(652.85 570.23) rotate(-78.116) scale(.08 -.08)">
<use xlink:href="#ah"/>
</g>
</g>
<path d="m668.34 565.86 1.1504 5.4665q0.49423 2.3486 2.8428 1.8543l7.5766-1.5944q2.3486-0.49423 1.8543-2.8428l-1.1504-5.4665q-0.49423-2.3486-2.8428-1.8543l-7.5766 1.5944q-2.3486 0.49423-1.8543 2.8428z" clip-path="url(#a)" fill="#fff" stroke="#fff"/>
<g clip-path="url(#a)">
<g transform="translate(672.32 565.02) rotate(78.116) scale(.08 -.08)">
<use xlink:href="#aa"/>
</g>
</g>
<path d="m633.01 662.97v35.285q0 2.4 2.4 2.4h7.7425q2.4 0 2.4-2.4v-35.285q0-2.4-2.4-2.4h-7.7425q-2.4 0-2.4 2.4z" clip-path="url(#a)" fill="#fff" stroke="#fff"/>
<g clip-path="url(#a)">
<g transform="translate(637.08 662.97) rotate(90) scale(.08 -.08)">
<use xlink:href="#l"/>
<use x="60.818359" xlink:href="#d"/>
<use x="122.341797" xlink:href="#k"/>
<use x="163.439453" xlink:href="#j"/>
<use x="260.851562" xlink:href="#g"/>
<use x="288.634766" xlink:href="#h"/>
<use x="352.013672" xlink:href="#e"/>
<use x="413.292969" xlink:href="#i"/>
</g>
</g>
<path d="m680.7 662.97v35.285q0 2.4 2.4 2.4h7.7425q2.4 0 2.4-2.4v-35.285q0-2.4-2.4-2.4h-7.7425q-2.4 0-2.4 2.4z" clip-path="url(#a)" fill="#fff" stroke="#fff"/>
<g clip-path="url(#a)">
<g transform="translate(684.77 662.97) rotate(90) scale(.08 -.08)">
<use xlink:href="#l"/>
<use x="60.818359" xlink:href="#d"/>
<use x="122.341797" xlink:href="#k"/>
<use x="163.439453" xlink:href="#j"/>
<use x="260.851562" xlink:href="#g"/>
<use x="288.634766" xlink:href="#h"/>
<use x="352.013672" xlink:href="#e"/>
<use x="413.292969" xlink:href="#i"/>
</g>
</g>
<path d="m190.94 458.18 2.1417-5.1594q0.92013-2.2166-1.2965-3.1367l-7.1509-2.9684q-2.2166-0.92013-3.1367 1.2965l-2.1417 5.1594q-0.92013 2.2166 1.2965 3.1367l7.1509 2.9684q2.2166 0.92013 3.1367-1.2965z" clip-path="url(#a)" fill="#fff" stroke="#fff"/>
<g clip-path="url(#a)">
<g transform="translate(187.19 456.62) rotate(-67.456) scale(.08 -.08)">
<use xlink:href="#aa"/>
</g>
</g>
<path d="m227.2 508.42 1.1371 5.4412q0.49096 2.3492 2.8402 1.8583l7.5788-1.5839q2.3492-0.49096 1.8583-2.8402l-1.1371-5.4412q-0.49096-2.3492-2.8402-1.8583l-7.5788 1.5839q-2.3492 0.49096-1.8583 2.8402z" clip-path="url(#a)" fill="#fff" stroke="#fff"/>
<g clip-path="url(#a)">
<g transform="translate(231.18 507.59) rotate(78.196) scale(.08 -.08)">
<use xlink:href="#am"/>
</g>
</g>
<path d="m299.17 662.97v35.285q0 2.4 2.4 2.4h7.7425q2.4 0 2.4-2.4v-35.285q0-2.4-2.4-2.4h-7.7425q-2.4 0-2.4 2.4z" clip-path="url(#a)" fill="#fff" stroke="#fff"/>
<g clip-path="url(#a)">
<g transform="translate(303.24 662.97) rotate(90) scale(.08 -.08)">
<use xlink:href="#l"/>
<use x="60.818359" xlink:href="#d"/>
<use x="122.341797" xlink:href="#k"/>
<use x="163.439453" xlink:href="#j"/>
<use x="260.851562" xlink:href="#g"/>
<use x="288.634766" xlink:href="#h"/>
<use x="352.013672" xlink:href="#e"/>
<use x="413.292969" xlink:href="#i"/>
</g>
</g>
<path d="m141.03 642.51 7.2662-34.529q0.49423-2.3486-1.8543-2.8428l-7.5766-1.5944q-2.3486-0.49423-2.8428 1.8543l-7.2662 34.529q-0.49423 2.3486 1.8543 2.8428l7.5766 1.5944q2.3486 0.49423 2.8428-1.8543z" clip-path="url(#a)" fill="#fff" stroke="#fff"/>
<g clip-path="url(#a)">
<g transform="translate(137.05 641.67) rotate(-78.116) scale(.08 -.08)">
<use xlink:href="#l"/>
<use x="60.818359" xlink:href="#d"/>
<use x="122.341797" xlink:href="#k"/>
<use x="163.439453" xlink:href="#j"/>
<use x="260.851562" xlink:href="#g"/>
<use x="288.634766" xlink:href="#h"/>
<use x="352.013672" xlink:href="#e"/>
<use x="413.292969" xlink:href="#i"/>
</g>
</g>
<path d="m176.45 607.98 7.2662 34.529q0.49423 2.3486 2.8428 1.8543l7.5766-1.5944q2.3486-0.49423 1.8543-2.8428l-7.2662-34.529q-0.49423-2.3486-2.8428-1.8543l-7.5766 1.5944q-2.3486 0.49423-1.8543 2.8428z" clip-path="url(#a)" fill="#fff" stroke="#fff"/>
<g clip-path="url(#a)">
<g transform="translate(180.42 607.15) rotate(78.116) scale(.08 -.08)">
<use xlink:href="#l"/>
<use x="60.818359" xlink:href="#d"/>
<use x="122.341797" xlink:href="#k"/>
<use x="163.439453" xlink:href="#j"/>
<use x="260.851562" xlink:href="#g"/>
<use x="288.634766" xlink:href="#h"/>
<use x="352.013672" xlink:href="#e"/>
<use x="413.292969" xlink:href="#i"/>
</g>
</g>
<path d="m156.1 564.37v5.855q0 2.4 2.4 2.4h7.7425q2.4 0 2.4-2.4v-5.855q0-2.4-2.4-2.4h-7.7425q-2.4 0-2.4 2.4z" clip-path="url(#a)" fill="#fff" stroke="#fff"/>
<g clip-path="url(#a)">
<g transform="translate(160.17 564.37) rotate(90) scale(.08 -.08)">
<use xlink:href="#y"/>
</g>
</g>
<path d="m251.48 662.97v35.285q0 2.4 2.4 2.4h7.7425q2.4 0 2.4-2.4v-35.285q0-2.4-2.4-2.4h-7.7425q-2.4 0-2.4 2.4z" clip-path="url(#a)" fill="#fff" stroke="#fff"/>
<g clip-path="url(#a)">
<g transform="translate(255.55 662.97) rotate(90) scale(.08 -.08)">
<use xlink:href="#l"/>
<use x="60.818359" xlink:href="#d"/>
<use x="122.341797" xlink:href="#k"/>
<use x="163.439453" xlink:href="#j"/>
<use x="260.851562" xlink:href="#g"/>
<use x="288.634766" xlink:href="#h"/>
<use x="352.013672" xlink:href="#e"/>
<use x="413.292969" xlink:href="#i"/>
</g>
</g>
<path d="m156.1 662.97v35.285q0 2.4 2.4 2.4h7.7425q2.4 0 2.4-2.4v-35.285q0-2.4-2.4-2.4h-7.7425q-2.4 0-2.4 2.4z" clip-path="url(#a)" fill="#fff" stroke="#fff"/>
<g clip-path="url(#a)">
<g transform="translate(160.17 662.97) rotate(90) scale(.08 -.08)">
<use xlink:href="#l"/>
<use x="60.818359" xlink:href="#d"/>
<use x="122.341797" xlink:href="#k"/>
<use x="163.439453" xlink:href="#j"/>
<use x="260.851562" xlink:href="#g"/>
<use x="288.634766" xlink:href="#h"/>
<use x="352.013672" xlink:href="#e"/>
<use x="413.292969" xlink:href="#i"/>
</g>
</g>
<path d="m346.87 662.97v35.285q0 2.4 2.4 2.4h7.7425q2.4 0 2.4-2.4v-35.285q0-2.4-2.4-2.4h-7.7425q-2.4 0-2.4 2.4z" clip-path="url(#a)" fill="#fff" stroke="#fff"/>
<g clip-path="url(#a)">
<g transform="translate(350.93 662.97) rotate(90) scale(.08 -.08)">
<use xlink:href="#l"/>
<use x="60.818359" xlink:href="#d"/>
<use x="122.341797" xlink:href="#k"/>
<use x="163.439453" xlink:href="#j"/>
<use x="260.851562" xlink:href="#g"/>
<use x="288.634766" xlink:href="#h"/>
<use x="352.013672" xlink:href="#e"/>
<use x="413.292969" xlink:href="#i"/>
</g>
</g>
<path d="m871.47 662.97v35.285q0 2.4 2.4 2.4h7.7425q2.4 0 2.4-2.4v-35.285q0-2.4-2.4-2.4h-7.7425q-2.4 0-2.4 2.4z" clip-path="url(#a)" fill="#fff" stroke="#fff"/>
<g clip-path="url(#a)">
<g transform="translate(875.53 662.97) rotate(90) scale(.08 -.08)">
<use xlink:href="#l"/>
<use x="60.818359" xlink:href="#d"/>
<use x="122.341797" xlink:href="#k"/>
<use x="163.439453" xlink:href="#j"/>
<use x="260.851562" xlink:href="#g"/>
<use x="288.634766" xlink:href="#h"/>
<use x="352.013672" xlink:href="#e"/>
<use x="413.292969" xlink:href="#i"/>
</g>
</g>
<path d="m1396.1 662.97v35.285q0 2.4 2.4 2.4h7.7425q2.4 0 2.4-2.4v-35.285q0-2.4-2.4-2.4h-7.7425q-2.4 0-2.4 2.4z" clip-path="url(#a)" fill="#fff" stroke="#fff"/>
<g clip-path="url(#a)">
<g transform="translate(1400.1 662.97) rotate(90) scale(.08 -.08)">
<use xlink:href="#l"/>
<use x="60.818359" xlink:href="#d"/>
<use x="122.341797" xlink:href="#k"/>
<use x="163.439453" xlink:href="#j"/>
<use x="260.851562" xlink:href="#g"/>
<use x="288.634766" xlink:href="#h"/>
<use x="352.013672" xlink:href="#e"/>
<use x="413.292969" xlink:href="#i"/>
</g>
</g>
<defs>
<path id="b" d="m0 8.6603c2.2967 0 4.4997-0.9125 6.1237-2.5365 1.624-1.624 2.5365-3.827 2.5365-6.1237s-0.9125-4.4997-2.5365-6.1237c-1.624-1.624-3.827-2.5365-6.1237-2.5365s-4.4997 0.9125-6.1237 2.5365c-1.624 1.624-2.5365 3.827-2.5365 6.1237s0.9125 4.4997 2.5365 6.1237c1.624 1.624 3.827 2.5365 6.1237 2.5365z"/>
</defs>
<g clip-path="url(#a)">
<use x="66.990265" y="737.268179" fill="#ffffff" stroke="#ffffff" xlink:href="#b"/>
</g>
<g clip-path="url(#a)">
<use x="114.681436" y="737.268179" fill="#ffffff" stroke="#ffffff" xlink:href="#b"/>
</g>
<g clip-path="url(#a)">
<use x="162.372608" y="737.268179" fill="#ffffff" stroke="#ffffff" xlink:href="#b"/>
</g>
<g clip-path="url(#a)">
<use x="210.06378" y="737.268179" fill="#ffffff" stroke="#ffffff" xlink:href="#b"/>
</g>
<g clip-path="url(#a)">
<use x="257.754951" y="737.268179" fill="#ffffff" stroke="#ffffff" xlink:href="#b"/>
</g>
<g clip-path="url(#a)">
<use x="305.446123" y="737.268179" fill="#ffffff" stroke="#ffffff" xlink:href="#b"/>
</g>
<g clip-path="url(#a)">
<use x="353.137294" y="737.268179" fill="#ffffff" stroke="#ffffff" xlink:href="#b"/>
</g>
<g clip-path="url(#a)">
<use x="400.828466" y="737.268179" fill="#ffffff" stroke="#ffffff" xlink:href="#b"/>
</g>
<g clip-path="url(#a)">
<use x="448.519637" y="737.268179" fill="#ffffff" stroke="#ffffff" xlink:href="#b"/>
</g>
<g clip-path="url(#a)">
<use x="496.210809" y="737.268179" fill="#ffffff" stroke="#ffffff" xlink:href="#b"/>
</g>
<g clip-path="url(#a)">
<use x="543.90198" y="737.268179" fill="#ffffff" stroke="#ffffff" xlink:href="#b"/>
</g>
<g clip-path="url(#a)">
<use x="591.593152" y="737.268179" fill="#ffffff" stroke="#ffffff" xlink:href="#b"/>
</g>
<g clip-path="url(#a)">
<use x="639.284324" y="737.268179" fill="#ffffff" stroke="#ffffff" xlink:href="#b"/>
</g>
<g clip-path="url(#a)">
<use x="686.975495" y="737.268179" fill="#ffffff" stroke="#ffffff" xlink:href="#b"/>
</g>
<g clip-path="url(#a)">
<use x="734.666667" y="737.268179" fill="#ffffff" stroke="#ffffff" xlink:href="#b"/>
</g>
<g clip-path="url(#a)">
<use x="782.357838" y="737.268179" fill="#ffffff" stroke="#ffffff" xlink:href="#b"/>
</g>
<g clip-path="url(#a)">
<use x="830.04901" y="737.268179" fill="#ffffff" stroke="#ffffff" xlink:href="#b"/>
</g>
<g clip-path="url(#a)">
<use x="877.740181" y="737.268179" fill="#ffffff" stroke="#ffffff" xlink:href="#b"/>
</g>
<g clip-path="url(#a)">
<use x="925.431353" y="737.268179" fill="#ffffff" stroke="#ffffff" xlink:href="#b"/>
</g>
<g clip-path="url(#a)">
<use x="973.122524" y="737.268179" fill="#ffffff" stroke="#ffffff" xlink:href="#b"/>
</g>
<g clip-path="url(#a)">
<use x="1020.813696" y="737.268179" fill="#ffffff" stroke="#ffffff" xlink:href="#b"/>
</g>
<g clip-path="url(#a)">
<use x="1068.504868" y="737.268179" fill="#ffffff" stroke="#ffffff" xlink:href="#b"/>
</g>
<g clip-path="url(#a)">
<use x="1116.196039" y="737.268179" fill="#ffffff" stroke="#ffffff" xlink:href="#b"/>
</g>
<g clip-path="url(#a)">
<use x="1163.887211" y="737.268179" fill="#ffffff" stroke="#ffffff" xlink:href="#b"/>
</g>
<g clip-path="url(#a)">
<use x="1211.578382" y="737.268179" fill="#ffffff" stroke="#ffffff" xlink:href="#b"/>
</g>
<g clip-path="url(#a)">
<use x="1259.269554" y="737.268179" fill="#ffffff" stroke="#ffffff" xlink:href="#b"/>
</g>
<g clip-path="url(#a)">
<use x="1306.960725" y="737.268179" fill="#ffffff" stroke="#ffffff" xlink:href="#b"/>
</g>
<g clip-path="url(#a)">
<use x="1354.651897" y="737.268179" fill="#ffffff" stroke="#ffffff" xlink:href="#b"/>
</g>
<g clip-path="url(#a)">
<use x="1402.343068" y="737.268179" fill="#ffffff" stroke="#ffffff" xlink:href="#b"/>
</g>
<g clip-path="url(#a)">
<use x="584.942342" y="36.065155" fill="#ffffff" stroke="#ffffff" xlink:href="#b"/>
</g>
<g clip-path="url(#a)">
<use x="66.990265" y="623.955523" fill="#ffffff" stroke="#ffffff" xlink:href="#b"/>
</g>
<g clip-path="url(#a)">
<use x="257.754951" y="278.652673" fill="#ffffff" stroke="#ffffff" xlink:href="#b"/>
</g>
<g clip-path="url(#a)">
<use x="560.934542" y="278.652673" fill="#ffffff" stroke="#ffffff" xlink:href="#b"/>
</g>
<g clip-path="url(#a)">
<use x="925.431353" y="623.955523" fill="#ffffff" stroke="#ffffff" xlink:href="#b"/>
</g>
<g clip-path="url(#a)">
<use x="1052.60781" y="158.883261" fill="#ffffff" stroke="#ffffff" xlink:href="#b"/>
</g>
<g clip-path="url(#a)">
<use x="973.122524" y="623.955523" fill="#ffffff" stroke="#ffffff" xlink:href="#b"/>
</g>
<g clip-path="url(#a)">
<use x="1020.813696" y="623.955523" fill="#ffffff" stroke="#ffffff" xlink:href="#b"/>
</g>
<g clip-path="url(#a)">
<use x="1068.504868" y="623.955523" fill="#ffffff" stroke="#ffffff" xlink:href="#b"/>
</g>
<g clip-path="url(#a)">
<use x="1147.990153" y="278.652673" fill="#ffffff" stroke="#ffffff" xlink:href="#b"/>
</g>
<g clip-path="url(#a)">
<use x="1116.196039" y="623.955523" fill="#ffffff" stroke="#ffffff" xlink:href="#b"/>
</g>
<g clip-path="url(#a)">
<use x="1163.887211" y="623.955523" fill="#ffffff" stroke="#ffffff" xlink:href="#b"/>
</g>
<g clip-path="url(#a)">
<use x="1211.578382" y="623.955523" fill="#ffffff" stroke="#ffffff" xlink:href="#b"/>
</g>
<g clip-path="url(#a)">
<use x="1275.166611" y="395.753907" fill="#ffffff" stroke="#ffffff" xlink:href="#b"/>
</g>
<g clip-path="url(#a)">
<use x="1259.269554" y="623.955523" fill="#ffffff" stroke="#ffffff" xlink:href="#b"/>
</g>
<g clip-path="url(#a)">
<use x="1354.651897" y="510.642866" fill="#ffffff" stroke="#ffffff" xlink:href="#b"/>
</g>
<g clip-path="url(#a)">
<use x="1306.960725" y="623.955523" fill="#ffffff" stroke="#ffffff" xlink:href="#b"/>
</g>
<g clip-path="url(#a)">
<use x="1354.651897" y="623.955523" fill="#ffffff" stroke="#ffffff" xlink:href="#b"/>
</g>
<g clip-path="url(#a)">
<use x="400.828466" y="623.955523" fill="#ffffff" stroke="#ffffff" xlink:href="#b"/>
</g>
<g clip-path="url(#a)">
<use x="448.519637" y="623.955523" fill="#ffffff" stroke="#ffffff" xlink:href="#b"/>
</g>
<g clip-path="url(#a)">
<use x="496.210809" y="623.955523" fill="#ffffff" stroke="#ffffff" xlink:href="#b"/>
</g>
<g clip-path="url(#a)">
<use x="543.90198" y="623.955523" fill="#ffffff" stroke="#ffffff" xlink:href="#b"/>
</g>
<g clip-path="url(#a)">
<use x="591.593152" y="623.955523" fill="#ffffff" stroke="#ffffff" xlink:href="#b"/>
</g>
<g clip-path="url(#a)">
<use x="663.129909" y="395.753907" fill="#ffffff" stroke="#ffffff" xlink:href="#b"/>
</g>
<g clip-path="url(#a)">
<use x="782.357838" y="510.642866" fill="#ffffff" stroke="#ffffff" xlink:href="#b"/>
</g>
<g clip-path="url(#a)">
<use x="734.666667" y="623.955523" fill="#ffffff" stroke="#ffffff" xlink:href="#b"/>
</g>
<g clip-path="url(#a)">
<use x="782.357838" y="623.955523" fill="#ffffff" stroke="#ffffff" xlink:href="#b"/>
</g>
<g clip-path="url(#a)">
<use x="830.04901" y="623.955523" fill="#ffffff" stroke="#ffffff" xlink:href="#b"/>
</g>
<g clip-path="url(#a)">
<use x="663.129909" y="510.642866" fill="#ffffff" stroke="#ffffff" xlink:href="#b"/>
</g>
<g clip-path="url(#a)">
<use x="639.284324" y="623.955523" fill="#ffffff" stroke="#ffffff" xlink:href="#b"/>
</g>
<g clip-path="url(#a)">
<use x="686.975495" y="623.955523" fill="#ffffff" stroke="#ffffff" xlink:href="#b"/>
</g>
<g clip-path="url(#a)">
<use x="210.06378" y="395.753907" fill="#ffffff" stroke="#ffffff" xlink:href="#b"/>
</g>
<g clip-path="url(#a)">
<use x="305.446123" y="623.955523" fill="#ffffff" stroke="#ffffff" xlink:href="#b"/>
</g>
<g clip-path="url(#a)">
<use x="162.372608" y="510.642866" fill="#ffffff" stroke="#ffffff" xlink:href="#b"/>
</g>
<g clip-path="url(#a)">
<use x="257.754951" y="623.955523" fill="#ffffff" stroke="#ffffff" xlink:href="#b"/>
</g>
<g clip-path="url(#a)">
<use x="162.372608" y="623.955523" fill="#ffffff" stroke="#ffffff" xlink:href="#b"/>
</g>
<g clip-path="url(#a)">
<use x="353.137294" y="623.955523" fill="#ffffff" stroke="#ffffff" xlink:href="#b"/>
</g>
<g clip-path="url(#a)">
<use x="877.740181" y="623.955523" fill="#ffffff" stroke="#ffffff" xlink:href="#b"/>
</g>
<g clip-path="url(#a)">
<use x="1402.343068" y="623.955523" fill="#ffffff" stroke="#ffffff" xlink:href="#b"/>
</g>
<g clip-path="url(#a)">
<defs>
<path id="u" d="m44.281 53.078v-8.5q-3.7969 1.9531-7.9062 2.9219-4.0938 0.98438-8.5 0.98438-6.6875 0-10.031-2.0469t-3.3438-6.1562q0-3.125 2.3906-4.9062t9.625-3.3906l3.0781-0.6875q9.5625-2.0469 13.594-5.7812t4.0312-10.422q0-7.625-6.0312-12.078-6.0312-4.4375-16.578-4.4375-4.3906 0-9.1562 0.85938t-10.031 2.5625v9.2812q4.9844-2.5938 9.8125-3.8906 4.8281-1.2812 9.5781-1.2812 6.3438 0 9.75 2.1719 3.4219 2.1719 3.4219 6.125 0 3.6562-2.4688 5.6094-2.4531 1.9531-10.812 3.7656l-3.125 0.73438q-8.3438 1.75-12.062 5.3906-3.7031 3.6406-3.7031 9.9844 0 7.7188 5.4688 11.906 5.4688 4.2031 15.531 4.2031 4.9688 0 9.3594-0.73438 4.4062-0.71875 8.1094-2.1875z"/>
<path id="w" d="m18.109 8.2031v-29h-9.0312v75.484h9.0312v-8.2969q2.8438 4.875 7.1562 7.2344 4.3281 2.375 10.328 2.375 9.9688 0 16.188-7.9062 6.2344-7.9062 6.2344-20.797t-6.2344-20.812q-6.2188-7.9062-16.188-7.9062-6 0-10.328 2.375-4.3125 2.375-7.1562 7.25zm30.578 19.094q0 9.9062-4.0781 15.547t-11.203 5.6406q-7.1406 0-11.219-5.6406t-4.0781-15.547 4.0781-15.547 11.219-5.6406q7.125 0 11.203 5.6406t4.0781 15.547z"/>
<path id="q" d="m18.312 70.219v-15.531h18.5v-6.9844h-18.5v-29.688q0-6.6875 1.8281-8.5938t7.4531-1.9062h9.2188v-7.5156h-9.2188q-10.406 0-14.359 3.875-3.9531 3.8906-3.9531 14.141v29.688h-6.5938v6.9844h6.5938v15.531z"/>
</defs>
<g transform="translate(47.859 740.03) scale(.1 -.1)">
<use xlink:href="#ao"/>
<use x="77.001953" xlink:href="#d"/>
<use x="138.525391" xlink:href="#u"/>
<use x="190.625" xlink:href="#w"/>
<use x="254.101562" xlink:href="#g"/>
<use x="281.884766" xlink:href="#q"/>
<use x="321.09375" xlink:href="#d"/>
</g>
</g>
<g clip-path="url(#a)">
<defs>
<path id="ae" d="m48.688 27.297q0 9.9062-4.0781 15.547t-11.203 5.6406q-7.1406 0-11.219-5.6406t-4.0781-15.547 4.0781-15.547 11.219-5.6406q7.125 0 11.203 5.6406t4.0781 15.547zm-30.578 19.094q2.8438 4.875 7.1562 7.2344 4.3281 2.375 10.328 2.375 9.9688 0 16.188-7.9062 6.2344-7.9062 6.2344-20.797t-6.2344-20.812q-6.2188-7.9062-16.188-7.9062-6 0-10.328 2.375-4.3125 2.375-7.1562 7.25v-8.2031h-9.0312v75.984h9.0312z"/>
<path id="v" d="m45.406 46.391v29.594h8.9844v-75.984h-8.9844v8.2031q-2.8281-4.875-7.1562-7.25-4.3125-2.375-10.375-2.375-9.9062 0-16.141 7.9062-6.2188 7.9219-6.2188 20.812t6.2188 20.797q6.2344 7.9062 16.141 7.9062 6.0625 0 10.375-2.375 4.3281-2.3594 7.1562-7.2344zm-30.609-19.094q0-9.9062 4.0781-15.547t11.203-5.6406 11.219 5.6406q4.1094 5.6406 4.1094 15.547t-4.1094 15.547q-4.0938 5.6406-11.219 5.6406t-11.203-5.6406-4.0781-15.547z"/>
<path id="au" d="m8.5 21.578v33.109h8.9844v-32.766q0-7.7656 3.0156-11.656 3.0312-3.875 9.0938-3.875 7.2656 0 11.484 4.6406 4.2344 4.6406 4.2344 12.656v31h8.9844v-54.688h-8.9844v8.4062q-3.2656-4.9844-7.5938-7.4062-4.3125-2.4219-10.031-2.4219-9.4219 0-14.312 5.8594-4.875 5.8594-4.875 17.141z"/>
</defs>
<g transform="translate(100.35 740.03) scale(.1 -.1)">
<use xlink:href="#o"/>
<use x="68.408203" xlink:href="#ae"/>
<use x="131.884766" xlink:href="#v"/>
<use x="195.361328" xlink:href="#au"/>
<use x="258.740234" xlink:href="#i"/>
</g>
</g>
<g clip-path="url(#a)">
<defs>
<path id="aq" d="m4.8906 31.391h26.312v-8h-26.312z"/>
</defs>
<g transform="translate(160.57 740.03) scale(.1 -.1)">
<use xlink:href="#aq"/>
</g>
</g>
<g clip-path="url(#a)">
<defs>
<path id="an" d="m9.8125 72.906h9.8594v-67.828q0-13.188-5-19.141t-16.094-5.9531h-3.75v8.2969h3.0781q6.5312 0 9.2188 3.6719 2.6875 3.6562 2.6875 13.125z"/>
</defs>
<g transform="translate(194.06 740.03) scale(.1 -.1)">
<use xlink:href="#an"/>
<use x="29.492188" xlink:href="#e"/>
<use x="90.771484" xlink:href="#ae"/>
<use x="154.248047" xlink:href="#ae"/>
<use x="217.724609" xlink:href="#e"/>
<use x="279.003906" xlink:href="#k"/>
</g>
</g>
<g clip-path="url(#a)">
<defs>
<path id="ar" d="m17.922 72.906v-27.109h-8.2969v27.109z"/>
</defs>
<g transform="translate(253.78 740.03) scale(.1 -.1)">
<use xlink:href="#ar"/>
<use x="27.490234" xlink:href="#u"/>
</g>
</g>
<g clip-path="url(#a)">
<defs>
<path id="s" d="m30.609 48.391q-7.2188 0-11.422-5.6406t-4.2031-15.453 4.1719-15.453q4.1875-5.6406 11.453-5.6406 7.1875 0 11.375 5.6562 4.2031 5.6719 4.2031 15.438 0 9.7188-4.2031 15.406-4.1875 5.6875-11.375 5.6875zm0 7.6094q11.719 0 18.406-7.625 6.7031-7.6094 6.7031-21.078 0-13.422-6.7031-21.078-6.6875-7.6406-18.406-7.6406-11.766 0-18.438 7.6406-6.6562 7.6562-6.6562 21.078 0 13.469 6.6562 21.078 6.6719 7.625 18.438 7.625z"/>
<path id="x" d="m48.781 52.594v-8.4062q-3.8125 2.1094-7.6406 3.1562t-7.7344 1.0469q-8.75 0-13.594-5.5469-4.8281-5.5312-4.8281-15.547t4.8281-15.562q4.8438-5.5312 13.594-5.5312 3.9062 0 7.7344 1.0469t7.6406 3.1562v-8.3125q-3.7656-1.75-7.7969-2.625-4.0156-0.89062-8.5625-0.89062-12.359 0-19.641 7.7656-7.2656 7.7656-7.2656 20.953 0 13.375 7.3438 21.031 7.3594 7.6719 20.156 7.6719 4.1406 0 8.0938-0.85938 3.9531-0.84375 7.6719-2.5469z"/>
</defs>
<g transform="translate(277.73 740.03) scale(.1 -.1)">
<use xlink:href="#v"/>
<use x="63.476562" xlink:href="#s"/>
<use x="124.658203" xlink:href="#j"/>
<use x="222.070312" xlink:href="#g"/>
<use x="249.853516" xlink:href="#h"/>
<use x="313.232422" xlink:href="#e"/>
<use x="374.511719" xlink:href="#h"/>
<use x="437.890625" xlink:href="#x"/>
<use x="492.871094" xlink:href="#d"/>
</g>
</g>
<g clip-path="url(#a)">
<defs>
<path id="ap" d="m11.719 12.406h10.297v-8.4062l-8-15.625h-6.2969l4 15.625z"/>
</defs>
<g transform="translate(351.55 740.03) scale(.1 -.1)">
<use xlink:href="#ap"/>
</g>
</g>
<g clip-path="url(#a)">
<defs>
<path id="p" d="m54.891 33.016v-33.016h-8.9844v32.719q0 7.7656-3.0312 11.609-3.0312 3.8594-9.0781 3.8594-7.2812 0-11.484-4.6406-4.2031-4.625-4.2031-12.641v-30.906h-9.0312v75.984h9.0312v-29.797q3.2344 4.9375 7.5938 7.375 4.375 2.4375 10.094 2.4375 9.4219 0 14.25-5.8281 4.8438-5.8281 4.8438-17.156z"/>
</defs>
<g transform="translate(394.58 740.03) scale(.1 -.1)">
<use xlink:href="#p"/>
<use x="63.378906" xlink:href="#d"/>
</g>
</g>
<g clip-path="url(#a)">
<g transform="translate(439.11 740.03) scale(.1 -.1)">
<use xlink:href="#p"/>
<use x="63.378906" xlink:href="#e"/>
<use x="124.658203" xlink:href="#v"/>
</g>
</g>
<g clip-path="url(#a)">
<defs>
<path id="ax" d="m37.109 75.984v-7.4844h-8.5938q-4.8281 0-6.7188-1.9531-1.875-1.9531-1.875-7.0312v-4.8281h14.797v-6.9844h-14.797v-47.703h-9.0312v47.703h-8.5938v6.9844h8.5938v3.8125q0 9.125 4.25 13.297 4.25 4.1875 13.469 4.1875z"/>
</defs>
<g transform="translate(482.36 740.03) scale(.1 -.1)">
<use xlink:href="#ax"/>
<use x="35.205078" xlink:href="#e"/>
<use x="96.484375" xlink:href="#g"/>
<use x="124.267578" xlink:href="#i"/>
<use x="152.050781" xlink:href="#d"/>
<use x="213.574219" xlink:href="#v"/>
</g>
</g>
<g clip-path="url(#a)">
<g transform="translate(538.88 740.03) scale(.1 -.1)">
<use xlink:href="#q"/>
<use x="39.208984" xlink:href="#s"/>
</g>
</g>
<g clip-path="url(#a)">
<defs>
<path id="al" d="m4.2031 54.688h8.9844l11.234-42.672 11.172 42.672h10.594l11.234-42.672 11.188 42.672h8.9844l-14.312-54.688h-10.594l-11.766 44.828-11.812-44.828h-10.609z"/>
</defs>
<g transform="translate(582.95 740.03) scale(.1 -.1)">
<use xlink:href="#al"/>
<use x="81.787109" xlink:href="#g"/>
<use x="109.570312" xlink:href="#h"/>
</g>
</g>
<g clip-path="url(#a)">
<g transform="translate(636.22 740.03) scale(.1 -.1)">
<use xlink:href="#e"/>
</g>
</g>
<g clip-path="url(#a)">
<g transform="translate(652 740.03) scale(.1 -.1)">
<use xlink:href="#x"/>
<use x="54.980469" xlink:href="#p"/>
<use x="118.359375" xlink:href="#e"/>
<use x="179.638672" xlink:href="#j"/>
<use x="277.050781" xlink:href="#w"/>
<use x="340.527344" xlink:href="#g"/>
<use x="368.310547" xlink:href="#s"/>
<use x="429.492188" xlink:href="#h"/>
<use x="492.871094" xlink:href="#u"/>
<use x="544.970703" xlink:href="#p"/>
<use x="608.349609" xlink:href="#g"/>
<use x="636.132812" xlink:href="#w"/>
</g>
</g>
<g clip-path="url(#a)">
<g transform="translate(724.06 740.03) scale(.1 -.1)">
<use xlink:href="#al"/>
<use x="81.787109" xlink:href="#g"/>
<use x="109.570312" xlink:href="#q"/>
<use x="148.779297" xlink:href="#p"/>
</g>
</g>
<g clip-path="url(#a)">
<g transform="translate(774.15 740.03) scale(.1 -.1)">
<use xlink:href="#q"/>
<use x="39.208984" xlink:href="#p"/>
<use x="102.587891" xlink:href="#d"/>
</g>
</g>
<g clip-path="url(#a)">
<defs>
<path id="av" d="m9.0781 75.984h9.0312v-44.875l26.812 23.578h11.469l-29-25.578 30.234-29.109h-11.719l-27.797 26.703v-26.703h-9.0312z"/>
</defs>
<g transform="translate(813.57 740.03) scale(.1 -.1)">
<use xlink:href="#af"/>
<use x="55.712891" xlink:href="#e"/>
<use x="116.992188" xlink:href="#av"/>
<use x="174.855469" xlink:href="#d"/>
<use x="236.378906" xlink:href="#k"/>
<use x="277.492188" xlink:href="#u"/>
</g>
</g>
<g clip-path="url(#a)">
<g transform="translate(876.15 740.03) scale(.1 -.1)">
<use xlink:href="#ap"/>
</g>
</g>
<g clip-path="url(#a)">
<g transform="translate(916.02 740.03) scale(.1 -.1)">
<use xlink:href="#e"/>
<use x="61.279297" xlink:href="#h"/>
<use x="124.658203" xlink:href="#v"/>
</g>
</g>
<g clip-path="url(#a)">
<g transform="translate(953.42 740.03) scale(.1 -.1)">
<use xlink:href="#an"/>
<use x="29.492188" xlink:href="#s"/>
<use x="90.673828" xlink:href="#p"/>
<use x="154.052734" xlink:href="#h"/>
<use x="217.431641" xlink:href="#u"/>
<use x="269.53125" xlink:href="#s"/>
<use x="330.712891" xlink:href="#h"/>
</g>
</g>
<g clip-path="url(#a)">
<g transform="translate(1011.1 740.03) scale(.1 -.1)">
<use xlink:href="#al"/>
<use x="81.787109" xlink:href="#e"/>
<use x="143.066406" xlink:href="#u"/>
</g>
</g>
<g clip-path="url(#a)">
<defs>
<path id="as" d="m54.891 54.688-19.781-26.609 20.797-28.078h-10.594l-15.922 21.484-15.906-21.484h-10.609l21.25 28.609-19.438 26.078h10.594l14.5-19.484 14.5 19.484z"/>
</defs>
<g transform="translate(1045.3 740.03) scale(.1 -.1)">
<use xlink:href="#d"/>
<use x="61.507812" xlink:href="#as"/>
<use x="120.6875" xlink:href="#w"/>
<use x="184.164062" xlink:href="#d"/>
<use x="245.6875" xlink:href="#x"/>
<use x="300.667969" xlink:href="#q"/>
<use x="339.876953" xlink:href="#d"/>
<use x="401.400391" xlink:href="#v"/>
</g>
</g>
<g clip-path="url(#a)">
<g transform="translate(1111.2 740.03) scale(.1 -.1)">
<use xlink:href="#q"/>
<use x="39.208984" xlink:href="#s"/>
</g>
</g>
<g clip-path="url(#a)">
<g transform="translate(1153.1 740.03) scale(.1 -.1)">
<use xlink:href="#p"/>
<use x="63.378906" xlink:href="#d"/>
<use x="124.902344" xlink:href="#i"/>
<use x="152.685547" xlink:href="#w"/>
</g>
</g>
<g clip-path="url(#a)">
<g transform="translate(1198.5 740.03) scale(.1 -.1)">
<use xlink:href="#q"/>
<use x="39.208984" xlink:href="#p"/>
<use x="102.587891" xlink:href="#d"/>
<use x="164.111328" xlink:href="#j"/>
</g>
</g>
<g clip-path="url(#a)">
<defs>
<path id="at" d="m2.9844 54.688h9.5156l17.094-45.891 17.094 45.891h9.5156l-20.516-54.688h-12.203z"/>
</defs>
<g transform="translate(1239.8 740.03) scale(.1 -.1)">
<use xlink:href="#e"/>
<use x="61.279297" xlink:href="#x"/>
<use x="116.259766" xlink:href="#p"/>
<use x="179.638672" xlink:href="#g"/>
<use x="207.421875" xlink:href="#d"/>
<use x="268.945312" xlink:href="#at"/>
<use x="328.125" xlink:href="#d"/>
</g>
</g>
<g clip-path="url(#a)">
<g transform="translate(1296.8 740.03) scale(.1 -.1)">
<use xlink:href="#q"/>
<use x="39.208984" xlink:href="#p"/>
<use x="102.587891" xlink:href="#e"/>
<use x="163.867188" xlink:href="#q"/>
</g>
</g>
<g clip-path="url(#a)">
<defs>
<path id="aw" d="m45.406 27.984q0 9.7656-4.0312 15.125-4.0156 5.375-11.297 5.375-7.2188 0-11.25-5.375-4.0312-5.3594-4.0312-15.125 0-9.7188 4.0312-15.094t11.25-5.375q7.2812 0 11.297 5.375 4.0312 5.375 4.0312 15.094zm8.9844-21.203q0-13.953-6.2031-20.766-6.1875-6.8125-18.984-6.8125-4.7344 0-8.9375 0.70312t-8.1562 2.1719v8.7344q3.9531-2.1406 7.8125-3.1562 3.8594-1.0312 7.8594-1.0312 8.8438 0 13.234 4.6094t4.3906 13.938v4.4531q-2.7812-4.8438-7.125-7.2344t-10.406-2.3906q-10.047 0-16.203 7.6562-6.1562 7.6719-6.1562 20.328 0 12.688 6.1562 20.344 6.1562 7.6719 16.203 7.6719 6.0625 0 10.406-2.3906t7.125-7.2188v8.2969h8.9844z"/>
</defs>
<g transform="translate(1344 740.03) scale(.1 -.1)">
<use xlink:href="#aw"/>
<use x="63.476562" xlink:href="#s"/>
<use x="124.658203" xlink:href="#e"/>
<use x="185.9375" xlink:href="#i"/>
</g>
</g>
<g clip-path="url(#a)">
<defs>
<path id="f" d="m10.688 12.406h10.312v-12.406h-10.312z"/>
</defs>
<g transform="translate(1400.8 740.03) scale(.1 -.1)">
<use xlink:href="#f"/>
</g>
</g>
<g clip-path="url(#a)">
<defs>
<path id="c" d="m12.406 8.2969h16.109v55.625l-17.531-3.5156v8.9844l17.438 3.5156h9.8594v-64.609h16.109v-8.2969h-41.984z"/>
</defs>
<g transform="translate(576.99 38.825) scale(.1 -.1)">
<use xlink:href="#c"/>
<use x="63.623047" xlink:href="#f"/>
<use x="95.410156" xlink:href="#c"/>
</g>
</g>
<g clip-path="url(#a)">
<defs>
<path id="m" d="m19.188 8.2969h34.422v-8.2969h-46.281v8.2969q5.6094 5.8125 15.297 15.594 9.7031 9.7969 12.188 12.641 4.7344 5.3125 6.6094 9 1.8906 3.6875 1.8906 7.25 0 5.8125-4.0781 9.4688-4.0781 3.6719-10.625 3.6719-4.6406 0-9.7969-1.6094-5.1406-1.6094-11-4.8906v9.9688q5.9531 2.3906 11.125 3.6094 5.1875 1.2188 9.4844 1.2188 11.328 0 18.062-5.6719 6.7344-5.6562 6.7344-15.125 0-4.5-1.6875-8.5312-1.6719-4.0156-6.125-9.4844-1.2188-1.4219-7.7656-8.1875-6.5312-6.7656-18.453-18.922z"/>
</defs>
<g transform="translate(59.039 626.71) scale(.1 -.1)">
<use xlink:href="#c"/>
<use x="63.623047" xlink:href="#f"/>
<use x="95.410156" xlink:href="#m"/>
</g>
</g>
<g clip-path="url(#a)">
<defs>
<path id="n" d="m40.578 39.312q7.0781-1.5156 11.047-6.3125 3.9844-4.7812 3.9844-11.812 0-10.781-7.4219-16.703-7.4219-5.9062-21.094-5.9062-4.5781 0-9.4375 0.90625t-10.031 2.7188v9.5156q4.0938-2.3906 8.9688-3.6094 4.8906-1.2188 10.219-1.2188 9.2656 0 14.125 3.6562t4.8594 10.641q0 6.4531-4.5156 10.078-4.5156 3.6406-12.562 3.6406h-8.5v8.1094h8.8906q7.2656 0 11.125 2.9062t3.8594 8.375q0 5.6094-3.9844 8.6094-3.9688 3.0156-11.391 3.0156-4.0625 0-8.7031-0.89062-4.6406-0.875-10.203-2.7188v8.7812q5.625 1.5625 10.531 2.3438t9.25 0.78125q11.234 0 17.766-5.1094 6.5469-5.0938 6.5469-13.781 0-6.0625-3.4688-10.234t-9.8594-5.7812z"/>
</defs>
<g transform="translate(249.8 281.41) scale(.1 -.1)">
<use xlink:href="#c"/>
<use x="63.623047" xlink:href="#f"/>
<use x="95.410156" xlink:href="#n"/>
</g>
</g>
<g clip-path="url(#a)">
<defs>
<path id="r" d="m37.797 64.312-24.906-38.922h24.906zm-2.5938 8.5938h12.406v-47.516h10.406v-8.2031h-10.406v-17.188h-9.8125v17.188h-32.906v9.5156z"/>
</defs>
<g transform="translate(552.98 281.41) scale(.1 -.1)">
<use xlink:href="#c"/>
<use x="63.623047" xlink:href="#f"/>
<use x="95.410156" xlink:href="#r"/>
</g>
</g>
<g clip-path="url(#a)">
<defs>
<path id="ac" d="m10.797 72.906h38.719v-8.3125h-29.688v-17.859q2.1406 0.73438 4.2812 1.0938 2.1562 0.35938 4.3125 0.35938 12.203 0 19.328-6.6875 7.1406-6.6875 7.1406-18.109 0-11.766-7.3281-18.297-7.3281-6.5156-20.656-6.5156-4.5938 0-9.3594 0.78125-4.75 0.78125-9.8281 2.3438v9.9219q4.3906-2.3906 9.0781-3.5625t9.9062-1.1719q8.4531 0 13.375 4.4375 4.9375 4.4375 4.9375 12.062 0 7.6094-4.9375 12.047-4.9219 4.4531-13.375 4.4531-3.9531 0-7.8906-0.875-3.9219-0.875-8.0156-2.7344z"/>
</defs>
<g transform="translate(917.48 626.71) scale(.1 -.1)">
<use xlink:href="#c"/>
<use x="63.623047" xlink:href="#f"/>
<use x="95.410156" xlink:href="#ac"/>
</g>
</g>
<g clip-path="url(#a)">
<defs>
<path id="ab" d="m33.016 40.375q-6.6406 0-10.531-4.5469-3.875-4.5312-3.875-12.438 0-7.8594 3.875-12.438 3.8906-4.5625 10.531-4.5625t10.516 4.5625q3.875 4.5781 3.875 12.438 0 7.9062-3.875 12.438-3.875 4.5469-10.516 4.5469zm19.578 30.922v-8.9844q-3.7188 1.75-7.5 2.6719-3.7812 0.9375-7.5 0.9375-9.7656 0-14.922-6.5938-5.1406-6.5938-5.875-19.922 2.875 4.25 7.2188 6.5156 4.3594 2.2656 9.5781 2.2656 10.984 0 17.359-6.6719 6.375-6.6562 6.375-18.125 0-11.234-6.6406-18.031-6.6406-6.7812-17.672-6.7812-12.656 0-19.344 9.6875-6.6875 9.7031-6.6875 28.109 0 17.281 8.2031 27.562t22.016 10.281q3.7188 0 7.5-0.73438t7.8906-2.1875z"/>
</defs>
<g transform="translate(1044.7 161.64) scale(.1 -.1)">
<use xlink:href="#c"/>
<use x="63.623047" xlink:href="#f"/>
<use x="95.410156" xlink:href="#ab"/>
</g>
</g>
<g clip-path="url(#a)">
<defs>
<path id="ad" d="m31.781 66.406q-7.6094 0-11.453-7.5-3.8281-7.4844-3.8281-22.531 0-14.984 3.8281-22.484 3.8438-7.5 11.453-7.5 7.6719 0 11.5 7.5 3.8438 7.5 3.8438 22.484 0 15.047-3.8438 22.531-3.8281 7.5-11.5 7.5zm0 7.8125q12.266 0 18.734-9.7031 6.4688-9.6875 6.4688-28.141 0-18.406-6.4688-28.109-6.4688-9.6875-18.734-9.6875-12.25 0-18.719 9.6875-6.4688 9.7031-6.4688 28.109 0 18.453 6.4688 28.141 6.4688 9.7031 18.719 9.7031z"/>
</defs>
<g transform="translate(961.99 626.71) scale(.1 -.1)">
<use xlink:href="#c"/>
<use x="63.623047" xlink:href="#f"/>
<use x="95.410156" xlink:href="#c"/>
<use x="159.033203" xlink:href="#ad"/>
</g>
</g>
<g clip-path="url(#a)">
<g transform="translate(1009.7 626.71) scale(.1 -.1)">
<use xlink:href="#c"/>
<use x="63.623047" xlink:href="#f"/>
<use x="95.410156" xlink:href="#c"/>
<use x="159.033203" xlink:href="#c"/>
</g>
</g>
<g clip-path="url(#a)">
<g transform="translate(1057.4 626.71) scale(.1 -.1)">
<use xlink:href="#c"/>
<use x="63.623047" xlink:href="#f"/>
<use x="95.410156" xlink:href="#c"/>
<use x="159.033203" xlink:href="#m"/>
</g>
</g>
<g clip-path="url(#a)">
<g transform="translate(1136.9 281.41) scale(.1 -.1)">
<use xlink:href="#c"/>
<use x="63.623047" xlink:href="#f"/>
<use x="95.410156" xlink:href="#c"/>
<use x="159.033203" xlink:href="#n"/>
</g>
</g>
<g clip-path="url(#a)">
<g transform="translate(1105.1 626.71) scale(.1 -.1)">
<use xlink:href="#c"/>
<use x="63.623047" xlink:href="#f"/>
<use x="95.410156" xlink:href="#c"/>
<use x="159.033203" xlink:href="#r"/>
</g>
</g>
<g clip-path="url(#a)">
<g transform="translate(1152.8 626.71) scale(.1 -.1)">
<use xlink:href="#c"/>
<use x="63.623047" xlink:href="#f"/>
<use x="95.410156" xlink:href="#c"/>
<use x="159.033203" xlink:href="#ac"/>
</g>
</g>
<g clip-path="url(#a)">
<g transform="translate(1200.4 626.71) scale(.1 -.1)">
<use xlink:href="#c"/>
<use x="63.623047" xlink:href="#f"/>
<use x="95.410156" xlink:href="#c"/>
<use x="159.033203" xlink:href="#ab"/>
</g>
</g>
<g clip-path="url(#a)">
<defs>
<path id="ak" d="m8.2031 72.906h46.875v-4.2031l-26.469-68.703h-10.297l24.906 64.594h-35.016z"/>
</defs>
<g transform="translate(1264 398.51) scale(.1 -.1)">
<use xlink:href="#c"/>
<use x="63.623047" xlink:href="#f"/>
<use x="95.410156" xlink:href="#c"/>
<use x="159.033203" xlink:href="#ak"/>
</g>
</g>
<g clip-path="url(#a)">
<defs>
<path id="aj" d="m31.781 34.625q-7.0312 0-11.062-3.7656-4.0156-3.7656-4.0156-10.344 0-6.5938 4.0156-10.359 4.0312-3.7656 11.062-3.7656t11.078 3.7812q4.0625 3.7969 4.0625 10.344 0 6.5781-4.0312 10.344-4.0156 3.7656-11.109 3.7656zm-9.8594 4.1875q-6.3438 1.5625-9.8906 5.9062-3.5312 4.3594-3.5312 10.609 0 8.7344 6.2188 13.812 6.2344 5.0781 17.062 5.0781 10.891 0 17.094-5.0781t6.2031-13.812q0-6.25-3.5469-10.609-3.5312-4.3438-9.8281-5.9062 7.125-1.6562 11.094-6.5 3.9844-4.8281 3.9844-11.797 0-10.609-6.4688-16.281-6.4688-5.6562-18.531-5.6562-12.047 0-18.531 5.6562-6.4688 5.6719-6.4688 16.281 0 6.9688 4 11.797 4.0156 4.8438 11.141 6.5zm-3.6094 15.578q0-5.6562 3.5312-8.8281 3.5469-3.1719 9.9375-3.1719 6.3594 0 9.9375 3.1719 3.5938 3.1719 3.5938 8.8281 0 5.6719-3.5938 8.8438-3.5781 3.1719-9.9375 3.1719-6.3906 0-9.9375-3.1719-3.5312-3.1719-3.5312-8.8438z"/>
</defs>
<g transform="translate(1248.1 626.71) scale(.1 -.1)">
<use xlink:href="#c"/>
<use x="63.623047" xlink:href="#f"/>
<use x="95.410156" xlink:href="#c"/>
<use x="159.033203" xlink:href="#aj"/>
</g>
</g>
<g clip-path="url(#a)">
<defs>
<path id="ai" d="m10.984 1.5156v8.9844q3.7188-1.7656 7.5156-2.6875 3.8125-0.92188 7.4844-0.92188 9.7656 0 14.906 6.5625 5.1562 6.5625 5.8906 19.953-2.8281-4.2031-7.1875-6.4531-4.3438-2.25-9.6094-2.25-10.938 0-17.312 6.6094-6.375 6.625-6.375 18.109 0 11.219 6.6406 18 6.6406 6.7969 17.672 6.7969 12.656 0 19.312-9.7031 6.6719-9.6875 6.6719-28.141 0-17.234-8.1875-27.516-8.1719-10.281-21.984-10.281-3.7188 0-7.5312 0.73438-3.7969 0.73438-7.9062 2.2031zm19.625 30.906q6.6406 0 10.516 4.5312 3.8906 4.5469 3.8906 12.469 0 7.8594-3.8906 12.422-3.875 4.5625-10.516 4.5625t-10.516-4.5625-3.875-12.422q0-7.9219 3.875-12.469 3.875-4.5312 10.516-4.5312z"/>
</defs>
<g transform="translate(1343.5 513.4) scale(.1 -.1)">
<use xlink:href="#c"/>
<use x="63.623047" xlink:href="#f"/>
<use x="95.410156" xlink:href="#c"/>
<use x="159.033203" xlink:href="#ai"/>
</g>
</g>
<g clip-path="url(#a)">
<g transform="translate(1295.8 626.71) scale(.1 -.1)">
<use xlink:href="#c"/>
<use x="63.623047" xlink:href="#f"/>
<use x="95.410156" xlink:href="#m"/>
<use x="159.033203" xlink:href="#ad"/>
</g>
</g>
<g clip-path="url(#a)">
<g transform="translate(1343.5 626.71) scale(.1 -.1)">
<use xlink:href="#c"/>
<use x="63.623047" xlink:href="#f"/>
<use x="95.410156" xlink:href="#m"/>
<use x="159.033203" xlink:href="#c"/>
</g>
</g>
<g clip-path="url(#a)">
<g transform="translate(389.7 626.71) scale(.1 -.1)">
<use xlink:href="#c"/>
<use x="63.623047" xlink:href="#f"/>
<use x="95.410156" xlink:href="#m"/>
<use x="159.033203" xlink:href="#m"/>
</g>
</g>
<g clip-path="url(#a)">
<g transform="translate(437.39 626.71) scale(.1 -.1)">
<use xlink:href="#c"/>
<use x="63.623047" xlink:href="#f"/>
<use x="95.410156" xlink:href="#m"/>
<use x="159.033203" xlink:href="#n"/>
</g>
</g>
<g clip-path="url(#a)">
<g transform="translate(485.08 626.71) scale(.1 -.1)">
<use xlink:href="#c"/>
<use x="63.623047" xlink:href="#f"/>
<use x="95.410156" xlink:href="#m"/>
<use x="159.033203" xlink:href="#r"/>
</g>
</g>
<g clip-path="url(#a)">
<g transform="translate(532.77 626.71) scale(.1 -.1)">
<use xlink:href="#c"/>
<use x="63.623047" xlink:href="#f"/>
<use x="95.410156" xlink:href="#m"/>
<use x="159.033203" xlink:href="#ac"/>
</g>
</g>
<g clip-path="url(#a)">
<g transform="translate(580.46 626.71) scale(.1 -.1)">
<use xlink:href="#c"/>
<use x="63.623047" xlink:href="#f"/>
<use x="95.410156" xlink:href="#m"/>
<use x="159.033203" xlink:href="#ab"/>
</g>
</g>
<g clip-path="url(#a)">
<g transform="translate(652 398.51) scale(.1 -.1)">
<use xlink:href="#c"/>
<use x="63.623047" xlink:href="#f"/>
<use x="95.410156" xlink:href="#m"/>
<use x="159.033203" xlink:href="#ak"/>
</g>
</g>
<g clip-path="url(#a)">
<g transform="translate(771.23 513.4) scale(.1 -.1)">
<use xlink:href="#c"/>
<use x="63.623047" xlink:href="#f"/>
<use x="95.410156" xlink:href="#m"/>
<use x="159.033203" xlink:href="#aj"/>
</g>
</g>
<g clip-path="url(#a)">
<g transform="translate(723.53 626.71) scale(.1 -.1)">
<use xlink:href="#c"/>
<use x="63.623047" xlink:href="#f"/>
<use x="95.410156" xlink:href="#m"/>
<use x="159.033203" xlink:href="#ai"/>
</g>
</g>
<g clip-path="url(#a)">
<g transform="translate(771.23 626.71) scale(.1 -.1)">
<use xlink:href="#c"/>
<use x="63.623047" xlink:href="#f"/>
<use x="95.410156" xlink:href="#n"/>
<use x="159.033203" xlink:href="#ad"/>
</g>
</g>
<g clip-path="url(#a)">
<g transform="translate(818.92 626.71) scale(.1 -.1)">
<use xlink:href="#c"/>
<use x="63.623047" xlink:href="#f"/>
<use x="95.410156" xlink:href="#n"/>
<use x="159.033203" xlink:href="#c"/>
</g>
</g>
<g clip-path="url(#a)">
<g transform="translate(652 513.4) scale(.1 -.1)">
<use xlink:href="#c"/>
<use x="63.623047" xlink:href="#f"/>
<use x="95.410156" xlink:href="#n"/>
<use x="159.033203" xlink:href="#m"/>
</g>
</g>
<g clip-path="url(#a)">
<g transform="translate(628.15 626.71) scale(.1 -.1)">
<use xlink:href="#c"/>
<use x="63.623047" xlink:href="#f"/>
<use x="95.410156" xlink:href="#n"/>
<use x="159.033203" xlink:href="#n"/>
</g>
</g>
<g clip-path="url(#a)">
<g transform="translate(675.84 626.71) scale(.1 -.1)">
<use xlink:href="#c"/>
<use x="63.623047" xlink:href="#f"/>
<use x="95.410156" xlink:href="#n"/>
<use x="159.033203" xlink:href="#r"/>
</g>
</g>
<g clip-path="url(#a)">
<g transform="translate(198.93 398.51) scale(.1 -.1)">
<use xlink:href="#c"/>
<use x="63.623047" xlink:href="#f"/>
<use x="95.410156" xlink:href="#n"/>
<use x="159.033203" xlink:href="#ac"/>
</g>
</g>
<g clip-path="url(#a)">
<g transform="translate(294.31 626.71) scale(.1 -.1)">
<use xlink:href="#c"/>
<use x="63.623047" xlink:href="#f"/>
<use x="95.410156" xlink:href="#n"/>
<use x="159.033203" xlink:href="#ab"/>
</g>
</g>
<g clip-path="url(#a)">
<g transform="translate(151.24 513.4) scale(.1 -.1)">
<use xlink:href="#c"/>
<use x="63.623047" xlink:href="#f"/>
<use x="95.410156" xlink:href="#n"/>
<use x="159.033203" xlink:href="#ak"/>
</g>
</g>
<g clip-path="url(#a)">
<g transform="translate(246.62 626.71) scale(.1 -.1)">
<use xlink:href="#c"/>
<use x="63.623047" xlink:href="#f"/>
<use x="95.410156" xlink:href="#n"/>
<use x="159.033203" xlink:href="#aj"/>
</g>
</g>
<g clip-path="url(#a)">
<g transform="translate(151.24 626.71) scale(.1 -.1)">
<use xlink:href="#c"/>
<use x="63.623047" xlink:href="#f"/>
<use x="95.410156" xlink:href="#n"/>
<use x="159.033203" xlink:href="#ai"/>
</g>
</g>
<g clip-path="url(#a)">
<g transform="translate(342 626.71) scale(.1 -.1)">
<use xlink:href="#c"/>
<use x="63.623047" xlink:href="#f"/>
<use x="95.410156" xlink:href="#r"/>
<use x="159.033203" xlink:href="#ad"/>
</g>
</g>
<g clip-path="url(#a)">
<g transform="translate(866.61 626.71) scale(.1 -.1)">
<use xlink:href="#c"/>
<use x="63.623047" xlink:href="#f"/>
<use x="95.410156" xlink:href="#r"/>
<use x="159.033203" xlink:href="#c"/>
</g>
</g>
<g clip-path="url(#a)">
<g transform="translate(1391.2 626.71) scale(.1 -.1)">
<use xlink:href="#c"/>
<use x="63.623047" xlink:href="#f"/>
<use x="95.410156" xlink:href="#r"/>
<use x="159.033203" xlink:href="#m"/>
</g>
</g>
<defs>
<clipPath id="a">
<rect width="1469.3" height="773.33"/>
</clipPath>
</defs>
</svg>
