<?xml version="1.0" encoding="UTF-8"?>
<!DOCTYPE svg  PUBLIC '-//W3C//DTD SVG 1.1//EN'  'http://www.w3.org/Graphics/SVG/1.1/DTD/svg11.dtd'>
<svg width="1570.7pt" height="826.67pt" version="1.1" viewBox="0 0 1570.7 826.67" xmlns="http://www.w3.org/2000/svg" xmlns:xlink="http://www.w3.org/1999/xlink">
<defs>
<style type="text/css">*{stroke-linecap:butt;stroke-linejoin:round;}</style>
</defs>
<path d="m0 826.67h1570.7v-826.67h-1570.7z" fill="#fff"/>
<g fill="none" stroke="#000">
<path d="m788.86 38.35-468.79 114.4" clip-path="url(#a)"/>
<path d="m788.86 38.35 234.39 647.26" clip-path="url(#a)"/>
<path d="m788.86 38.35 47.585 334.28" clip-path="url(#a)"/>
<path d="m788.86 38.35 186.81 647.26" clip-path="url(#a)"/>
<path d="m320.07 152.75-248.48 532.86" clip-path="url(#a)"/>
<path d="m320.07 152.75-200.9 532.86" clip-path="url(#a)"/>
<path d="m320.07 152.75-153.32 532.86" clip-path="url(#a)"/>
<path d="m320.07 152.75 18.478 111.32" clip-path="url(#a)"/>
<path d="m320.07 152.75 584.22 430.16" clip-path="url(#a)"/>
<path d="m1023.3 685.61v102.71" clip-path="url(#a)"/>
<path d="m836.44 372.63 258.18 210.28" clip-path="url(#a)"/>
<path d="m836.44 372.63 506.67 106.14" clip-path="url(#a)"/>
<path d="m836.44 372.63-764.86 312.98" clip-path="url(#a)" stroke-dasharray="3.7,1.6"/>
<path d="m1094.6 582.9-23.792 102.71" clip-path="url(#a)"/>
<path d="m1094.6 582.9 23.792 102.71" clip-path="url(#a)"/>
<path d="m1343.1 478.77-121.6 104.14" clip-path="url(#a)"/>
<path d="m1343.1 478.77 13.218 206.84" clip-path="url(#a)"/>
<path d="m1343.1 478.77 108.38 104.14" clip-path="url(#a)"/>
<path d="m1221.5 582.9-55.514 102.71" clip-path="url(#a)"/>
<path d="m1221.5 582.9-7.9306 102.71" clip-path="url(#a)"/>
<path d="m1221.5 582.9 63.444 102.71" clip-path="url(#a)"/>
<path d="m1356.3 685.61v102.71" clip-path="url(#a)"/>
<path d="m1451.5 582.9-47.583 102.71" clip-path="url(#a)"/>
<path d="m1451.5 582.9v102.71" clip-path="url(#a)"/>
<path d="m1451.5 582.9 47.583 102.71" clip-path="url(#a)"/>
<path d="m1403.9 685.61v102.71" clip-path="url(#a)"/>
<path d="m1451.5 685.61v102.71" clip-path="url(#a)"/>
<path d="m1166 685.61v102.71" clip-path="url(#a)"/>
<path d="m1213.6 685.61v102.71" clip-path="url(#a)"/>
<path d="m1285 685.61-23.792 102.71" clip-path="url(#a)"/>
<path d="m1285 685.61 23.792 102.71" clip-path="url(#a)"/>
<path d="m1070.8 685.61v102.71" clip-path="url(#a)"/>
<path d="m1118.4 685.61v102.71" clip-path="url(#a)"/>
<path d="m71.583 685.61v102.71" clip-path="url(#a)"/>
<path d="m119.17 685.61v102.71" clip-path="url(#a)"/>
<path d="m166.75 685.61v102.71" clip-path="url(#a)"/>
<path d="m338.55 264.07 229.89 108.56" clip-path="url(#a)"/>
<path d="m338.55 264.07-124.21 421.54" clip-path="url(#a)"/>
<path d="m338.55 264.07-76.629 421.54" clip-path="url(#a)"/>
<path d="m338.55 264.07-29.046 421.54" clip-path="url(#a)"/>
<path d="m904.29 582.9-23.792 102.71" clip-path="url(#a)"/>
<path d="m904.29 582.9 23.792 102.71" clip-path="url(#a)"/>
<path d="m880.5 685.61v102.71" clip-path="url(#a)"/>
<path d="m928.08 685.61v102.71" clip-path="url(#a)"/>
<path d="m568.43 372.63-211.35 312.98" clip-path="url(#a)"/>
<path d="m568.43 372.63-163.77 312.98" clip-path="url(#a)"/>
<path d="m568.43 372.63 110.63 106.14" clip-path="url(#a)"/>
<path d="m568.43 372.63 264.48 312.98" clip-path="url(#a)"/>
<path d="m357.08 685.61v102.71" clip-path="url(#a)"/>
<path d="m404.67 685.61v102.71" clip-path="url(#a)"/>
<path d="m679.06 478.77-139.58 104.14" clip-path="url(#a)"/>
<path d="m679.06 478.77 11.103 206.84" clip-path="url(#a)"/>
<path d="m679.06 478.77 58.686 206.84" clip-path="url(#a)"/>
<path d="m679.06 478.77 106.27 206.84" clip-path="url(#a)"/>
<path d="m679.06 478.77-36.481 206.84" clip-path="url(#a)"/>
<path d="m832.92 685.61v102.71" clip-path="url(#a)"/>
<path d="m539.49 582.9-63.444 102.71" clip-path="url(#a)"/>
<path d="m539.49 582.9 7.9306 102.71" clip-path="url(#a)"/>
<path d="m539.49 582.9 55.514 102.71" clip-path="url(#a)"/>
<path d="m690.17 685.61v102.71" clip-path="url(#a)"/>
<path d="m737.75 685.61v102.71" clip-path="url(#a)"/>
<path d="m785.33 685.61v102.71" clip-path="url(#a)"/>
<path d="m476.04 685.61-23.792 102.71" clip-path="url(#a)"/>
<path d="m476.04 685.61 23.792 102.71" clip-path="url(#a)"/>
<path d="m547.42 685.61v102.71" clip-path="url(#a)"/>
<path d="m595 685.61v102.71" clip-path="url(#a)"/>
<path d="m214.33 685.61v102.71" clip-path="url(#a)"/>
<path d="m261.92 685.61v102.71" clip-path="url(#a)"/>
<path d="m309.5 685.61v102.71" clip-path="url(#a)"/>
<path d="m726.59 38.35-406.52 114.4" clip-path="url(#a)"/>
<path d="m726.59 38.35 296.66 647.26" clip-path="url(#a)"/>
<path d="m726.59 38.35 109.86 334.28" clip-path="url(#a)"/>
<path d="m642.58 685.61v102.71" clip-path="url(#a)"/>
<path d="m975.67 685.61v102.71" clip-path="url(#a)"/>
<path d="m1499.1 685.61v102.71" clip-path="url(#a)"/>
</g>
<path d="m553.03 102.35 5.8447-1.4263q2.3316-0.56897 1.7626-2.9005l-1.8355-7.5218q-0.56897-2.3316-2.9005-1.7626l-5.8447 1.4263q-2.3316 0.56897-1.7626 2.9006l1.8355 7.5218q0.56897 2.3316 2.9005 1.7626z" clip-path="url(#a)" fill="#fff" stroke="#fff"/>
<g clip-path="url(#a)">
<defs>
<path id="af" d="m9.8125 72.906h9.8594v-29.891h35.844v29.891h9.8594v-72.906h-9.8594v34.719h-35.844v-34.719h-9.8594z"/>
</defs>
<g transform="translate(552.06 98.407) rotate(-13.714) scale(.08 -.08)">
<use xlink:href="#af"/>
</g>
</g>
<path d="m899.4 362.02 1.5178 4.1912q0.81719 2.2566 3.0738 1.4394l7.2799-2.6363q2.2566-0.81719 1.4394-3.0738l-1.5178-4.1912q-0.81718-2.2566-3.0738-1.4394l-7.2799 2.6363q-2.2566 0.81719-1.4394 3.0738z" clip-path="url(#a)" fill="#fff" stroke="#fff"/>
<g clip-path="url(#a)">
<defs>
<path id="aa" d="m9.8125 72.906h9.8594v-64.609h35.5v-8.2969h-45.359z"/>
</defs>
<g transform="translate(903.22 360.64) rotate(70.093) scale(.08 -.08)">
<use xlink:href="#aa"/>
</g>
</g>
<path d="m806.02 203.39 0.84788 5.9562q0.33824 2.376 2.7143 2.0378l7.6652-1.0912q2.376-0.33824 2.0378-2.7143l-0.84788-5.9562q-0.33823-2.376-2.7143-2.0378l-7.6652 1.0912q-2.376 0.33824-2.0378 2.7143z" clip-path="url(#a)" fill="#fff" stroke="#fff"/>
<g clip-path="url(#a)">
<g transform="translate(810.04 202.82) rotate(81.898) scale(.08 -.08)">
<use xlink:href="#af"/>
</g>
</g>
<path d="m875.42 360.91 1.6236 5.6254q0.66552 2.3059 2.9714 1.6404l7.4389-2.147q2.3059-0.66552 1.6404-2.9714l-1.6236-5.6254q-0.66552-2.3059-2.9714-1.6404l-7.4389 2.147q-2.3059 0.66552-1.6404 2.9714z" clip-path="url(#a)" fill="#fff" stroke="#fff"/>
<g clip-path="url(#a)">
<defs>
<path id="t" d="m8.6875 72.906h9.9219v-44.297q0-11.719 4.2344-16.875 4.25-5.1406 13.781-5.1406 9.4688 0 13.719 5.1406 4.25 5.1562 4.25 16.875v44.297h9.9062v-45.516q0-14.25-7.0625-21.531-7.0469-7.2812-20.812-7.2812-13.828 0-20.891 7.2812-7.0469 7.2812-7.0469 21.531z"/>
</defs>
<g transform="translate(879.33 359.78) rotate(73.901) scale(.08 -.08)">
<use xlink:href="#t"/>
</g>
</g>
<path d="m200.35 424.31 2.3128-4.9597q1.0143-2.1751-1.1608-3.1894l-7.0171-3.2722q-2.1751-1.0143-3.1894 1.1608l-2.3128 4.9597q-1.0143 2.1751 1.1608 3.1894l7.0171 3.2722q2.1751 1.0143 3.1894-1.1608z" clip-path="url(#a)" fill="#fff" stroke="#fff"/>
<g clip-path="url(#a)">
<defs>
<path id="u" d="m34.188 63.188-13.391-36.281h26.812zm-5.5781 9.7188h11.188l27.781-72.906h-10.25l-6.6406 18.703h-32.859l-6.6406-18.703h-10.406z"/>
</defs>
<g transform="translate(196.67 422.59) rotate(-64.999) scale(.08 -.08)">
<use xlink:href="#u"/>
</g>
</g>
<path d="m224.59 423.77 1.7917-4.7522q0.84668-2.2457-1.399-3.0924l-7.2447-2.7314q-2.2457-0.84668-3.0924 1.399l-1.7917 4.7522q-0.84668 2.2457 1.399 3.0924l7.2447 2.7314q2.2457 0.84668 3.0924-1.399z" clip-path="url(#a)" fill="#fff" stroke="#fff"/>
<g clip-path="url(#a)">
<defs>
<path id="al" d="m53.516 70.516v-9.625q-5.6094 2.6875-10.594 4-4.9844 1.3281-9.625 1.3281-8.0469 0-12.422-3.125t-4.375-8.8906q0-4.8438 2.9062-7.3125 2.9062-2.4531 11.016-3.9688l5.9531-1.2188q11.031-2.1094 16.281-7.4062t5.25-14.172q0-10.609-7.1094-16.078-7.0938-5.4688-20.812-5.4688-5.1719 0-11.016 1.1719-5.8281 1.1719-12.078 3.4688v10.156q6-3.3594 11.766-5.0781 5.7656-1.7031 11.328-1.7031 8.4375 0 13.031 3.3125 4.5938 3.3281 4.5938 9.4844 0 5.3594-3.2969 8.3906t-10.812 4.5469l-6.0156 1.1719q-11.031 2.1875-15.969 6.875-4.9219 4.6875-4.9219 13.047 0 9.6719 6.8125 15.234t18.766 5.5625q5.1406 0 10.453-0.9375 5.3281-0.92188 10.891-2.7656z"/>
</defs>
<g transform="translate(220.79 422.33) rotate(-69.342) scale(.08 -.08)">
<use xlink:href="#al"/>
</g>
</g>
<path d="m248.58 423.87 1.7033-5.9198q0.66362-2.3064-1.6428-2.97l-7.4406-2.1409q-2.3064-0.66362-2.97 1.6428l-1.7033 5.9198q-0.66362 2.3064 1.6428 2.97l7.4406 2.1409q2.3064 0.66362 2.97-1.6428z" clip-path="url(#a)" fill="#fff" stroke="#fff"/>
<g clip-path="url(#a)">
<defs>
<path id="ab" d="m19.672 64.797v-56.688h11.922q15.094 0 22.094 6.8281 7 6.8438 7 21.594 0 14.641-7 21.453t-22.094 6.8125zm-9.8594 8.1094h20.266q21.188 0 31.094-8.8125 9.9219-8.8125 9.9219-27.562 0-18.859-9.9688-27.703-9.9531-8.8281-31.047-8.8281h-20.266z"/>
</defs>
<g transform="translate(244.68 422.75) rotate(-73.948) scale(.08 -.08)">
<use xlink:href="#ab"/>
</g>
</g>
<path d="m322.67 206.74 0.89611 5.3986q0.393 2.3676 2.7606 1.9746l7.638-1.2678q2.3676-0.393 1.9746-2.7606l-0.89611-5.3986q-0.393-2.3676-2.7606-1.9746l-7.638 1.2678q-2.3676 0.393-1.9746 2.7606z" clip-path="url(#a)" fill="#fff" stroke="#fff"/>
<g clip-path="url(#a)">
<g transform="translate(326.68 206.07) rotate(80.575) scale(.08 -.08)">
<use xlink:href="#u"/>
</g>
</g>
<path d="m605.98 371.05 4.9605 3.6523q1.9326 1.423 3.3556-0.50967l4.5906-6.2348q1.423-1.9326-0.50967-3.3556l-4.9605-3.6523q-1.9326-1.423-3.3556 0.50967l-4.5906 6.2348q-1.423 1.9326 0.50967 3.3556z" clip-path="url(#a)" fill="#fff" stroke="#fff"/>
<g clip-path="url(#a)">
<g transform="translate(608.39 367.78) rotate(36.364) scale(.08 -.08)">
<use xlink:href="#ab"/>
</g>
</g>
<path d="m1017 719.32v35.285q0 2.4 2.4 2.4h7.7425q2.4 0 2.4-2.4v-35.285q0-2.4-2.4-2.4h-7.7425q-2.4 0-2.4 2.4z" clip-path="url(#a)" fill="#fff" stroke="#fff"/>
<g clip-path="url(#a)">
<defs>
<path id="l" d="m-0.29688 72.906h61.672v-8.3125h-25.875v-64.594h-9.9062v64.594h-25.891z"/>
<path id="d" d="m56.203 29.594v-4.3906h-41.312q0.59375-9.2812 5.5938-14.141t13.938-4.8594q5.1719 0 10.031 1.2656t9.6562 3.8125v-8.5q-4.8438-2.0469-9.9219-3.125t-10.297-1.0781q-13.094 0-20.734 7.6094-7.6406 7.625-7.6406 20.625 0 13.422 7.25 21.297 7.25 7.8906 19.562 7.8906 11.031 0 17.453-7.1094 6.4219-7.0938 6.4219-19.297zm-8.9844 2.6406q-0.09375 7.3594-4.125 11.75-4.0312 4.4062-10.672 4.4062-7.5156 0-12.031-4.25t-5.2031-11.969z"/>
<path id="h" d="m41.109 46.297q-1.5156 0.875-3.2969 1.2812-1.7812 0.42188-3.9219 0.42188-7.625 0-11.703-4.9531t-4.0781-14.234v-28.812h-9.0312v54.688h9.0312v-8.5q2.8438 4.9844 7.375 7.3906 4.5469 2.4219 11.047 2.4219 0.92188 0 2.0469-0.125 1.125-0.10938 2.4844-0.35938z"/>
<path id="k" d="m52 44.188q3.375 6.0625 8.0625 8.9375t11.031 2.875q8.5469 0 13.188-5.9844 4.6406-5.9688 4.6406-17v-33.016h-9.0312v32.719q0 7.8594-2.7969 11.656-2.7812 3.8125-8.4844 3.8125-6.9844 0-11.047-4.6406-4.0469-4.625-4.0469-12.641v-30.906h-9.0312v32.719q0 7.9062-2.7812 11.688t-8.5938 3.7812q-6.8906 0-10.953-4.6562-4.0469-4.6562-4.0469-12.625v-30.906h-9.0312v54.688h9.0312v-8.5q3.0781 5.0312 7.375 7.4219t10.203 2.3906q5.9688 0 10.141-3.0312 4.1719-3.0156 6.1719-8.7812z"/>
<path id="i" d="m9.4219 54.688h8.9844v-54.688h-8.9844zm0 21.297h8.9844v-11.391h-8.9844z"/>
<path id="g" d="m54.891 33.016v-33.016h-8.9844v32.719q0 7.7656-3.0312 11.609-3.0312 3.8594-9.0781 3.8594-7.2812 0-11.484-4.6406-4.2031-4.625-4.2031-12.641v-30.906h-9.0312v54.688h9.0312v-8.5q3.2344 4.9375 7.5938 7.375 4.375 2.4375 10.094 2.4375 9.4219 0 14.25-5.8281 4.8438-5.8281 4.8438-17.156z"/>
<path id="e" d="m34.281 27.484q-10.891 0-15.094-2.4844t-4.2031-8.5q0-4.7812 3.1562-7.5938 3.1562-2.7969 8.5625-2.7969 7.4844 0 12 5.2969t4.5156 14.078v2zm17.922 3.7188v-31.203h-8.9844v8.2969q-3.0781-4.9688-7.6719-7.3438t-11.234-2.375q-8.3906 0-13.359 4.7188-4.9531 4.7188-4.9531 12.625 0 9.2188 6.1719 13.906 6.1875 4.6875 18.438 4.6875h12.609v0.89062q0 6.2031-4.0781 9.5938t-11.453 3.3906q-4.6875 0-9.1406-1.125-4.4375-1.125-8.5312-3.375v8.3125q4.9219 1.9062 9.5625 2.8438 4.6406 0.95312 9.0312 0.95312 11.875 0 17.734-6.1562 5.8594-6.1406 5.8594-18.641z"/>
<path id="j" d="m9.4219 75.984h8.9844v-75.984h-8.9844z"/>
</defs>
<g transform="translate(1021 719.32) rotate(90) scale(.08 -.08)">
<use xlink:href="#l"/>
<use x="60.818359" xlink:href="#d"/>
<use x="122.341797" xlink:href="#h"/>
<use x="163.439453" xlink:href="#k"/>
<use x="260.851562" xlink:href="#i"/>
<use x="288.634766" xlink:href="#g"/>
<use x="352.013672" xlink:href="#e"/>
<use x="413.292969" xlink:href="#j"/>
</g>
</g>
<path d="m959.7 481.11 3.7402 3.0462q1.8609 1.5156 3.3765-0.34531l4.8894-6.0034q1.5156-1.8609-0.34531-3.3765l-3.7402-3.0462q-1.8609-1.5156-3.3765 0.34531l-4.8894 6.0034q-1.5156 1.8609 0.34531 3.3765z" clip-path="url(#a)" fill="#fff" stroke="#fff"/>
<g clip-path="url(#a)">
<defs>
<path id="am" d="m19.672 64.797v-27.391h12.406q6.8906 0 10.641 3.5625 3.7656 3.5625 3.7656 10.156 0 6.5469-3.7656 10.109-3.75 3.5625-10.641 3.5625zm-9.8594 8.1094h22.266q12.266 0 18.531-5.5469 6.2812-5.5469 6.2812-16.234 0-10.797-6.2812-16.312-6.2656-5.5156-18.531-5.5156h-12.406v-29.297h-9.8594z"/>
</defs>
<g transform="translate(962.27 477.95) rotate(39.161) scale(.08 -.08)">
<use xlink:href="#am"/>
</g>
</g>
<path d="m1085.8 431.28 5.3562 1.122q2.349 0.49208 2.8411-1.8569l1.5875-7.578q0.49208-2.349-1.8569-2.8411l-5.3562-1.122q-2.349-0.49208-2.8411 1.8569l-1.5875 7.578q-0.49208 2.349 1.8569 2.8411z" clip-path="url(#a)" fill="#fff" stroke="#fff"/>
<g clip-path="url(#a)">
<g transform="translate(1086.6 427.3) rotate(11.831) scale(.08 -.08)">
<use xlink:href="#u"/>
</g>
</g>
<path d="m453.85 535.96 5.0649-2.0726q2.2212-0.90893 1.3123-3.1302l-2.9322-7.1658q-0.90893-2.2212-3.1302-1.3123l-5.0649 2.0726q-2.2212 0.90893-1.3123 3.1302l2.9322 7.1658q0.90893 2.2212 3.1302 1.3123z" clip-path="url(#a)" fill="#fff" stroke="#fff"/>
<g clip-path="url(#a)">
<g transform="translate(452.32 532.2) rotate(-22.254) scale(.08 -.08)">
<use xlink:href="#u"/>
</g>
</g>
<path d="m1088.3 637.91 1.0384-4.4826q0.54161-2.3381-1.7965-2.8797l-7.5428-1.7473q-2.3381-0.54161-2.8797 1.7965l-1.0384 4.4826q-0.54161 2.3381 1.7965 2.8797l7.5428 1.7473q2.3381 0.54161 2.8797-1.7965z" clip-path="url(#a)" fill="#fff" stroke="#fff"/>
<g clip-path="url(#a)">
<defs>
<path id="aq" d="m9.8125 72.906h41.891v-8.3125h-32.031v-21.484h28.906v-8.2969h-28.906v-34.812h-9.8594z"/>
</defs>
<g transform="translate(1084.4 637) rotate(-76.958) scale(.08 -.08)">
<use xlink:href="#aq"/>
</g>
</g>
<path d="m1099.8 632.95 1.2607 5.4421q0.54161 2.3381 2.8797 1.7965l7.5428-1.7473q2.3381-0.54161 1.7965-2.8797l-1.2607-5.4421q-0.54161-2.3381-2.8797-1.7965l-7.5428 1.7473q-2.3381 0.54161-1.7965 2.8797z" clip-path="url(#a)" fill="#fff" stroke="#fff"/>
<g clip-path="url(#a)">
<defs>
<path id="q" d="m64.406 67.281v-10.391q-4.9844 4.6406-10.625 6.9219-5.6406 2.2969-11.984 2.2969-12.5 0-19.141-7.6406t-6.6406-22.094q0-14.406 6.6406-22.047t19.141-7.6406q6.3438 0 11.984 2.2969t10.625 6.9375v-10.312q-5.1719-3.5156-10.969-5.2812-5.7812-1.75-12.219-1.75-16.562 0-26.094 10.125-9.5156 10.141-9.5156 27.672 0 17.578 9.5156 27.703 9.5312 10.141 26.094 10.141 6.5312 0 12.312-1.7344 5.7969-1.7344 10.875-5.2031z"/>
</defs>
<g transform="translate(1103.7 632.03) rotate(76.958) scale(.08 -.08)">
<use xlink:href="#q"/>
</g>
</g>
<path d="m1284.5 537.24 3.8395-3.288q1.8229-1.5611 0.26184-3.384l-5.0361-5.8808q-1.5611-1.8229-3.384-0.26184l-3.8395 3.288q-1.8229 1.5611-0.26184 3.384l5.0361 5.8808q1.5611 1.8229 3.384 0.26184z" clip-path="url(#a)" fill="#fff" stroke="#fff"/>
<g clip-path="url(#a)">
<defs>
<path id="o" d="m9.8125 72.906h46.094v-8.3125h-36.234v-21.578h34.719v-8.2969h-34.719v-26.422h37.109v-8.2969h-46.969z"/>
</defs>
<g transform="translate(1281.8 534.16) rotate(-40.575) scale(.08 -.08)">
<use xlink:href="#o"/>
</g>
</g>
<path d="m1343.3 579.8 0.35625 5.5749q0.15305 2.3951 2.5482 2.2421l7.7267-0.49376q2.3951-0.15305 2.2421-2.5482l-0.35625-5.5749q-0.15305-2.3951-2.5482-2.2421l-7.7267 0.49376q-2.3951 0.15305-2.2421 2.5482z" clip-path="url(#a)" fill="#fff" stroke="#fff"/>
<g clip-path="url(#a)">
<g transform="translate(1347.3 579.54) rotate(86.344) scale(.08 -.08)">
<use xlink:href="#q"/>
</g>
</g>
<path d="m1391.1 533.61 3.6452 3.5023q1.7306 1.6628 3.3934-0.06785l5.3642-5.5831q1.6628-1.7306-0.06785-3.3934l-3.6452-3.5023q-1.7306-1.6628-3.3934 0.06785l-5.3642 5.5831q-1.6628 1.7306 0.06785 3.3934z" clip-path="url(#a)" fill="#fff" stroke="#fff"/>
<g clip-path="url(#a)">
<g transform="translate(1394 530.68) rotate(43.855) scale(.08 -.08)">
<use xlink:href="#o"/>
</g>
</g>
<path d="m1198 639.68 2.6432-4.8901q1.1412-2.1113-0.97013-3.2525l-6.8112-3.6815q-2.1113-1.1412-3.2525 0.97013l-2.6432 4.8901q-1.1412 2.1113 0.97013 3.2525l6.8112 3.6815q2.1113 1.1412 3.2525-0.97013z" clip-path="url(#a)" fill="#fff" stroke="#fff"/>
<g clip-path="url(#a)">
<defs>
<path id="x" d="m44.391 34.188q3.1719-1.0781 6.1719-4.5938t6.0312-9.6719l10.016-19.922h-10.609l-9.3125 18.703q-3.625 7.3281-7.0156 9.7188t-9.25 2.3906h-10.75v-30.812h-9.8594v72.906h22.266q12.5 0 18.656-5.2344 6.1562-5.2188 6.1562-15.766 0-6.8906-3.2031-11.438-3.2031-4.5312-9.2969-6.2812zm-24.719 30.609v-25.875h12.406q7.125 0 10.766 3.2969t3.6406 9.6875-3.6406 9.6406-10.766 3.25z"/>
</defs>
<g transform="translate(1194.4 637.75) rotate(-61.608) scale(.08 -.08)">
<use xlink:href="#x"/>
</g>
</g>
<path d="m1223.6 637.26 0.38917-5.04q0.18477-2.3929-2.2081-2.5776l-7.7195-0.59607q-2.3929-0.18477-2.5776 2.2081l-0.38917 5.04q-0.18477 2.3929 2.2081 2.5776l7.7195 0.59607q2.3929 0.18477 2.5776-2.2081z" clip-path="url(#a)" fill="#fff" stroke="#fff"/>
<g clip-path="url(#a)">
<g transform="translate(1219.6 636.95) rotate(-85.585) scale(.08 -.08)">
<use xlink:href="#o"/>
</g>
</g>
<path d="m1246.4 635.18 2.9358 4.7526q1.2613 2.0418 3.3031 0.78054l6.5871-4.069q2.0418-1.2613 0.78054-3.3031l-2.9358-4.7526q-1.2613-2.0418-3.3031-0.78054l-6.5871 4.069q-2.0418 1.2613-0.78054 3.3031z" clip-path="url(#a)" fill="#fff" stroke="#fff"/>
<g clip-path="url(#a)">
<g transform="translate(1249.9 633.04) rotate(58.295) scale(.08 -.08)">
<use xlink:href="#q"/>
</g>
</g>
<path d="m1350.1 719.32v35.285q0 2.4 2.4 2.4h7.7425q2.4 0 2.4-2.4v-35.285q0-2.4-2.4-2.4h-7.7425q-2.4 0-2.4 2.4z" clip-path="url(#a)" fill="#fff" stroke="#fff"/>
<g clip-path="url(#a)">
<g transform="translate(1354.1 719.32) rotate(90) scale(.08 -.08)">
<use xlink:href="#l"/>
<use x="60.818359" xlink:href="#d"/>
<use x="122.341797" xlink:href="#h"/>
<use x="163.439453" xlink:href="#k"/>
<use x="260.851562" xlink:href="#i"/>
<use x="288.634766" xlink:href="#g"/>
<use x="352.013672" xlink:href="#e"/>
<use x="413.292969" xlink:href="#j"/>
</g>
</g>
<path d="m1432.2 639.41 2.3367-5.0437q1.0089-2.1776-1.1688-3.1865l-7.0252-3.2547q-2.1776-1.0089-3.1865 1.1688l-2.3367 5.0437q-1.0089 2.1776 1.1688 3.1865l7.0252 3.2547q2.1776 1.0089 3.1865-1.1688z" clip-path="url(#a)" fill="#fff" stroke="#fff"/>
<g clip-path="url(#a)">
<g transform="translate(1428.5 637.71) rotate(-65.142) scale(.08 -.08)">
<use xlink:href="#x"/>
</g>
</g>
<path d="m1445.2 631.46v5.5862q0 2.4 2.4 2.4h7.7425q2.4 0 2.4-2.4v-5.5862q0-2.4-2.4-2.4h-7.7425q-2.4 0-2.4 2.4z" clip-path="url(#a)" fill="#fff" stroke="#fff"/>
<g clip-path="url(#a)">
<g transform="translate(1449.3 631.46) rotate(90) scale(.08 -.08)">
<use xlink:href="#q"/>
</g>
</g>
<path d="m1468.4 634.24 2.4613 5.3125q1.0089 2.1776 3.1865 1.1688l7.0252-3.2547q2.1776-1.0089 1.1688-3.1865l-2.4613-5.3125q-1.0089-2.1776-3.1865-1.1688l-7.0252 3.2547q-2.1776 1.0089-1.1688 3.1865z" clip-path="url(#a)" fill="#fff" stroke="#fff"/>
<g clip-path="url(#a)">
<g transform="translate(1472.1 632.53) rotate(65.142) scale(.08 -.08)">
<use xlink:href="#t"/>
</g>
</g>
<path d="m1397.6 719.32v35.285q0 2.4 2.4 2.4h7.7425q2.4 0 2.4-2.4v-35.285q0-2.4-2.4-2.4h-7.7425q-2.4 0-2.4 2.4z" clip-path="url(#a)" fill="#fff" stroke="#fff"/>
<g clip-path="url(#a)">
<g transform="translate(1401.7 719.32) rotate(90) scale(.08 -.08)">
<use xlink:href="#l"/>
<use x="60.818359" xlink:href="#d"/>
<use x="122.341797" xlink:href="#h"/>
<use x="163.439453" xlink:href="#k"/>
<use x="260.851562" xlink:href="#i"/>
<use x="288.634766" xlink:href="#g"/>
<use x="352.013672" xlink:href="#e"/>
<use x="413.292969" xlink:href="#j"/>
</g>
</g>
<path d="m1445.2 719.32v35.285q0 2.4 2.4 2.4h7.7425q2.4 0 2.4-2.4v-35.285q0-2.4-2.4-2.4h-7.7425q-2.4 0-2.4 2.4z" clip-path="url(#a)" fill="#fff" stroke="#fff"/>
<g clip-path="url(#a)">
<g transform="translate(1449.3 719.32) rotate(90) scale(.08 -.08)">
<use xlink:href="#l"/>
<use x="60.818359" xlink:href="#d"/>
<use x="122.341797" xlink:href="#h"/>
<use x="163.439453" xlink:href="#k"/>
<use x="260.851562" xlink:href="#i"/>
<use x="288.634766" xlink:href="#g"/>
<use x="352.013672" xlink:href="#e"/>
<use x="413.292969" xlink:href="#j"/>
</g>
</g>
<path d="m1159.7 719.32v35.285q0 2.4 2.4 2.4h7.7425q2.4 0 2.4-2.4v-35.285q0-2.4-2.4-2.4h-7.7425q-2.4 0-2.4 2.4z" clip-path="url(#a)" fill="#fff" stroke="#fff"/>
<g clip-path="url(#a)">
<g transform="translate(1163.8 719.32) rotate(90) scale(.08 -.08)">
<use xlink:href="#l"/>
<use x="60.818359" xlink:href="#d"/>
<use x="122.341797" xlink:href="#h"/>
<use x="163.439453" xlink:href="#k"/>
<use x="260.851562" xlink:href="#i"/>
<use x="288.634766" xlink:href="#g"/>
<use x="352.013672" xlink:href="#e"/>
<use x="413.292969" xlink:href="#j"/>
</g>
</g>
<path d="m1207.3 719.32v35.285q0 2.4 2.4 2.4h7.7425q2.4 0 2.4-2.4v-35.285q0-2.4-2.4-2.4h-7.7425q-2.4 0-2.4 2.4z" clip-path="url(#a)" fill="#fff" stroke="#fff"/>
<g clip-path="url(#a)">
<g transform="translate(1211.4 719.32) rotate(90) scale(.08 -.08)">
<use xlink:href="#l"/>
<use x="60.818359" xlink:href="#d"/>
<use x="122.341797" xlink:href="#h"/>
<use x="163.439453" xlink:href="#k"/>
<use x="260.851562" xlink:href="#i"/>
<use x="288.634766" xlink:href="#g"/>
<use x="352.013672" xlink:href="#e"/>
<use x="413.292969" xlink:href="#j"/>
</g>
</g>
<path d="m1275.2 755.57 7.9628-34.375q0.54161-2.3381-1.7965-2.8797l-7.5428-1.7473q-2.3381-0.54161-2.8797 1.7965l-7.9628 34.375q-0.54161 2.3381 1.7965 2.8797l7.5428 1.7473q2.3381 0.54161 2.8797-1.7965z" clip-path="url(#a)" fill="#fff" stroke="#fff"/>
<g clip-path="url(#a)">
<g transform="translate(1271.2 754.65) rotate(-76.958) scale(.08 -.08)">
<use xlink:href="#l"/>
<use x="60.818359" xlink:href="#d"/>
<use x="122.341797" xlink:href="#h"/>
<use x="163.439453" xlink:href="#k"/>
<use x="260.851562" xlink:href="#i"/>
<use x="288.634766" xlink:href="#g"/>
<use x="352.013672" xlink:href="#e"/>
<use x="413.292969" xlink:href="#j"/>
</g>
</g>
<path d="m1286.8 721.19 7.9628 34.375q0.54161 2.3381 2.8797 1.7965l7.5428-1.7473q2.3381-0.54161 1.7965-2.8797l-7.9628-34.375q-0.54161-2.3381-2.8797-1.7965l-7.5428 1.7473q-2.3381 0.54161-1.7965 2.8797z" clip-path="url(#a)" fill="#fff" stroke="#fff"/>
<g clip-path="url(#a)">
<g transform="translate(1290.7 720.27) rotate(76.958) scale(.08 -.08)">
<use xlink:href="#l"/>
<use x="60.818359" xlink:href="#d"/>
<use x="122.341797" xlink:href="#h"/>
<use x="163.439453" xlink:href="#k"/>
<use x="260.851562" xlink:href="#i"/>
<use x="288.634766" xlink:href="#g"/>
<use x="352.013672" xlink:href="#e"/>
<use x="413.292969" xlink:href="#j"/>
</g>
</g>
<path d="m1064.6 719.32v35.285q0 2.4 2.4 2.4h7.7425q2.4 0 2.4-2.4v-35.285q0-2.4-2.4-2.4h-7.7425q-2.4 0-2.4 2.4z" clip-path="url(#a)" fill="#fff" stroke="#fff"/>
<g clip-path="url(#a)">
<g transform="translate(1068.6 719.32) rotate(90) scale(.08 -.08)">
<use xlink:href="#l"/>
<use x="60.818359" xlink:href="#d"/>
<use x="122.341797" xlink:href="#h"/>
<use x="163.439453" xlink:href="#k"/>
<use x="260.851562" xlink:href="#i"/>
<use x="288.634766" xlink:href="#g"/>
<use x="352.013672" xlink:href="#e"/>
<use x="413.292969" xlink:href="#j"/>
</g>
</g>
<path d="m1112.1 719.32v35.285q0 2.4 2.4 2.4h7.7425q2.4 0 2.4-2.4v-35.285q0-2.4-2.4-2.4h-7.7425q-2.4 0-2.4 2.4z" clip-path="url(#a)" fill="#fff" stroke="#fff"/>
<g clip-path="url(#a)">
<g transform="translate(1116.2 719.32) rotate(90) scale(.08 -.08)">
<use xlink:href="#l"/>
<use x="60.818359" xlink:href="#d"/>
<use x="122.341797" xlink:href="#h"/>
<use x="163.439453" xlink:href="#k"/>
<use x="260.851562" xlink:href="#i"/>
<use x="288.634766" xlink:href="#g"/>
<use x="352.013672" xlink:href="#e"/>
<use x="413.292969" xlink:href="#j"/>
</g>
</g>
<path d="m65.312 719.32v35.285q0 2.4 2.4 2.4h7.7425q2.4 0 2.4-2.4v-35.285q0-2.4-2.4-2.4h-7.7425q-2.4 0-2.4 2.4z" clip-path="url(#a)" fill="#fff" stroke="#fff"/>
<g clip-path="url(#a)">
<g transform="translate(69.375 719.32) rotate(90) scale(.08 -.08)">
<use xlink:href="#l"/>
<use x="60.818359" xlink:href="#d"/>
<use x="122.341797" xlink:href="#h"/>
<use x="163.439453" xlink:href="#k"/>
<use x="260.851562" xlink:href="#i"/>
<use x="288.634766" xlink:href="#g"/>
<use x="352.013672" xlink:href="#e"/>
<use x="413.292969" xlink:href="#j"/>
</g>
</g>
<path d="m112.89 719.32v35.285q0 2.4 2.4 2.4h7.7425q2.4 0 2.4-2.4v-35.285q0-2.4-2.4-2.4h-7.7425q-2.4 0-2.4 2.4z" clip-path="url(#a)" fill="#fff" stroke="#fff"/>
<g clip-path="url(#a)">
<g transform="translate(116.96 719.32) rotate(90) scale(.08 -.08)">
<use xlink:href="#l"/>
<use x="60.818359" xlink:href="#d"/>
<use x="122.341797" xlink:href="#h"/>
<use x="163.439453" xlink:href="#k"/>
<use x="260.851562" xlink:href="#i"/>
<use x="288.634766" xlink:href="#g"/>
<use x="352.013672" xlink:href="#e"/>
<use x="413.292969" xlink:href="#j"/>
</g>
</g>
<path d="m160.48 719.32v35.285q0 2.4 2.4 2.4h7.7425q2.4 0 2.4-2.4v-35.285q0-2.4-2.4-2.4h-7.7425q-2.4 0-2.4 2.4z" clip-path="url(#a)" fill="#fff" stroke="#fff"/>
<g clip-path="url(#a)">
<g transform="translate(164.54 719.32) rotate(90) scale(.08 -.08)">
<use xlink:href="#l"/>
<use x="60.818359" xlink:href="#d"/>
<use x="122.341797" xlink:href="#h"/>
<use x="163.439453" xlink:href="#k"/>
<use x="260.851562" xlink:href="#i"/>
<use x="288.634766" xlink:href="#g"/>
<use x="352.013672" xlink:href="#e"/>
<use x="413.292969" xlink:href="#j"/>
</g>
</g>
<path d="m448.53 322.94 4.571 2.1585q2.1702 1.0248 3.195-1.1454l3.3061-7.0011q1.0248-2.1702-1.1454-3.195l-4.571-2.1585q-2.1702-1.0248-3.195 1.1454l-3.3061 7.0011q-1.0248 2.1702 1.1454 3.195z" clip-path="url(#a)" fill="#fff" stroke="#fff"/>
<g clip-path="url(#a)">
<g transform="translate(450.26 319.27) rotate(25.278) scale(.08 -.08)">
<use xlink:href="#o"/>
</g>
</g>
<path d="m281.74 479.04 1.4288-4.8489q0.67836-2.3021-1.6238-2.9805l-7.4268-2.1884q-2.3021-0.67836-2.9805 1.6238l-1.4288 4.8489q-0.67836 2.3021 1.6238 2.9805l7.4268 2.1884q2.3021 0.67836 2.9805-1.6238z" clip-path="url(#a)" fill="#fff" stroke="#fff"/>
<g clip-path="url(#a)">
<g transform="translate(277.84 477.89) rotate(-73.582) scale(.08 -.08)">
<use xlink:href="#o"/>
</g>
</g>
<path d="m305.95 478.45 0.9041-4.9735q0.42925-2.3613-1.9321-2.7905l-7.6177-1.3848q-2.3613-0.42925-2.7905 1.9321l-0.9041 4.9735q-0.42924 2.3613 1.9321 2.7905l7.6177 1.3848q2.3613 0.42925 2.7905-1.9321z" clip-path="url(#a)" fill="#fff" stroke="#fff"/>
<g clip-path="url(#a)">
<g transform="translate(301.95 477.72) rotate(-79.697) scale(.08 -.08)">
<use xlink:href="#o"/>
</g>
</g>
<path d="m330.09 478.06 0.384-5.573q0.16498-2.3943-2.2293-2.5593l-7.7242-0.53222q-2.3943-0.16498-2.5593 2.2293l-0.384 5.573q-0.16498 2.3943 2.2293 2.5593l7.7242 0.53222q2.3943 0.16498 2.5593-2.2293z" clip-path="url(#a)" fill="#fff" stroke="#fff"/>
<g clip-path="url(#a)">
<g transform="translate(326.03 477.78) rotate(-86.058) scale(.08 -.08)">
<use xlink:href="#q"/>
</g>
</g>
<path d="m897.88 638.38 1.2545-5.4154q0.54161-2.3381-1.7965-2.8797l-7.5428-1.7473q-2.3381-0.54161-2.8797 1.7965l-1.2545 5.4154q-0.54161 2.3381 1.7965 2.8797l7.5428 1.7473q2.3381 0.54161 2.8797-1.7965z" clip-path="url(#a)" fill="#fff" stroke="#fff"/>
<g clip-path="url(#a)">
<g transform="translate(893.92 637.46) rotate(-76.958) scale(.08 -.08)">
<use xlink:href="#x"/>
</g>
</g>
<path d="m909.45 632.95 1.2607 5.4421q0.54161 2.3381 2.8797 1.7965l7.5428-1.7473q2.3381-0.54161 1.7965-2.8797l-1.2607-5.4421q-0.54161-2.3381-2.8797-1.7965l-7.5428 1.7473q-2.3381 0.54161-1.7965 2.8797z" clip-path="url(#a)" fill="#fff" stroke="#fff"/>
<g clip-path="url(#a)">
<g transform="translate(913.41 632.03) rotate(76.958) scale(.08 -.08)">
<use xlink:href="#q"/>
</g>
</g>
<path d="m874.23 719.32v35.285q0 2.4 2.4 2.4h7.7425q2.4 0 2.4-2.4v-35.285q0-2.4-2.4-2.4h-7.7425q-2.4 0-2.4 2.4z" clip-path="url(#a)" fill="#fff" stroke="#fff"/>
<g clip-path="url(#a)">
<g transform="translate(878.29 719.32) rotate(90) scale(.08 -.08)">
<use xlink:href="#l"/>
<use x="60.818359" xlink:href="#d"/>
<use x="122.341797" xlink:href="#h"/>
<use x="163.439453" xlink:href="#k"/>
<use x="260.851562" xlink:href="#i"/>
<use x="288.634766" xlink:href="#g"/>
<use x="352.013672" xlink:href="#e"/>
<use x="413.292969" xlink:href="#j"/>
</g>
</g>
<path d="m921.81 719.32v35.285q0 2.4 2.4 2.4h7.7425q2.4 0 2.4-2.4v-35.285q0-2.4-2.4-2.4h-7.7425q-2.4 0-2.4 2.4z" clip-path="url(#a)" fill="#fff" stroke="#fff"/>
<g clip-path="url(#a)">
<g transform="translate(925.88 719.32) rotate(90) scale(.08 -.08)">
<use xlink:href="#l"/>
<use x="60.818359" xlink:href="#d"/>
<use x="122.341797" xlink:href="#h"/>
<use x="163.439453" xlink:href="#k"/>
<use x="260.851562" xlink:href="#i"/>
<use x="288.634766" xlink:href="#g"/>
<use x="352.013672" xlink:href="#e"/>
<use x="413.292969" xlink:href="#j"/>
</g>
</g>
<path d="m466.4 534.93 3.1108-4.6068q1.3431-1.989-0.64587-3.3321l-6.4165-4.3329q-1.989-1.3431-3.3321 0.64587l-3.1108 4.6068q-1.3431 1.989 0.64587 3.3321l6.4165 4.3329q1.989 1.3431 3.3321-0.64587z" clip-path="url(#a)" fill="#fff" stroke="#fff"/>
<g clip-path="url(#a)">
<g transform="translate(463.03 532.66) rotate(-55.97) scale(.08 -.08)">
<use xlink:href="#x"/>
</g>
</g>
<path d="m490.93 534.27 2.3436-4.4789q1.1127-2.1265-1.0138-3.2392l-6.8601-3.5895q-2.1265-1.1127-3.2392 1.0138l-2.3436 4.4789q-1.1127 2.1265 1.0138 3.2392l6.8601 3.5895q2.1265 1.1127 3.2392-1.0138z" clip-path="url(#a)" fill="#fff" stroke="#fff"/>
<g clip-path="url(#a)">
<g transform="translate(487.33 532.38) rotate(-62.379) scale(.08 -.08)">
<use xlink:href="#o"/>
</g>
</g>
<path d="m617.58 428.47 3.6477 3.4996q1.7318 1.6615 3.3934-0.070303l5.3602-5.587q1.6615-1.7318-0.070303-3.3934l-3.6477-3.4996q-1.7318-1.6615-3.3934 0.070303l-5.3602 5.587q-1.6615 1.7318 0.070303 3.3934z" clip-path="url(#a)" fill="#fff" stroke="#fff"/>
<g clip-path="url(#a)">
<g transform="translate(620.4 425.54) rotate(43.813) scale(.08 -.08)">
<use xlink:href="#o"/>
</g>
</g>
<path d="m694.08 531.03 3.6056 4.2668q1.5491 1.8331 3.3822 0.28405l5.9137-4.9974q1.8331-1.5491 0.28405-3.3822l-3.6056-4.2668q-1.5491-1.8331-3.3822-0.28405l-5.9137 4.9974q-1.8331 1.5491-0.28405 3.3822z" clip-path="url(#a)" fill="#fff" stroke="#fff"/>
<g clip-path="url(#a)">
<g transform="translate(697.19 528.41) rotate(49.801) scale(.08 -.08)">
<use xlink:href="#q"/>
</g>
</g>
<path d="m350.81 719.32v35.285q0 2.4 2.4 2.4h7.7425q2.4 0 2.4-2.4v-35.285q0-2.4-2.4-2.4h-7.7425q-2.4 0-2.4 2.4z" clip-path="url(#a)" fill="#fff" stroke="#fff"/>
<g clip-path="url(#a)">
<g transform="translate(354.88 719.32) rotate(90) scale(.08 -.08)">
<use xlink:href="#l"/>
<use x="60.818359" xlink:href="#d"/>
<use x="122.341797" xlink:href="#h"/>
<use x="163.439453" xlink:href="#k"/>
<use x="260.851562" xlink:href="#i"/>
<use x="288.634766" xlink:href="#g"/>
<use x="352.013672" xlink:href="#e"/>
<use x="413.292969" xlink:href="#j"/>
</g>
</g>
<path d="m398.4 719.32v35.285q0 2.4 2.4 2.4h7.7425q2.4 0 2.4-2.4v-35.285q0-2.4-2.4-2.4h-7.7425q-2.4 0-2.4 2.4z" clip-path="url(#a)" fill="#fff" stroke="#fff"/>
<g clip-path="url(#a)">
<g transform="translate(402.46 719.32) rotate(90) scale(.08 -.08)">
<use xlink:href="#l"/>
<use x="60.818359" xlink:href="#d"/>
<use x="122.341797" xlink:href="#h"/>
<use x="163.439453" xlink:href="#k"/>
<use x="260.851562" xlink:href="#i"/>
<use x="288.634766" xlink:href="#g"/>
<use x="352.013672" xlink:href="#e"/>
<use x="413.292969" xlink:href="#j"/>
</g>
</g>
<path d="m611 537.37 4.0516-3.0228q1.9236-1.4352 0.48846-3.3588l-4.6299-6.2057q-1.4352-1.9236-3.3588-0.48846l-4.0516 3.0228q-1.9236 1.4352-0.48846 3.3588l4.6299 6.2057q1.4352 1.9236 3.3588 0.48846z" clip-path="url(#a)" fill="#fff" stroke="#fff"/>
<g clip-path="url(#a)">
<g transform="translate(608.57 534.12) rotate(-36.726) scale(.08 -.08)">
<use xlink:href="#o"/>
</g>
</g>
<path d="m678.22 580 0.27095 5.0477q0.12864 2.3966 2.5252 2.2679l7.7314-0.415q2.3966-0.12864 2.2679-2.5252l-0.27095-5.0477q-0.12864-2.3966-2.5252-2.2679l-7.7314 0.415q-2.3965 0.12864-2.2679 2.5252z" clip-path="url(#a)" fill="#fff" stroke="#fff"/>
<g clip-path="url(#a)">
<g transform="translate(682.28 579.78) rotate(86.927) scale(.08 -.08)">
<use xlink:href="#o"/>
</g>
</g>
<path d="m701.68 581.47 1.3798 4.8631q0.65508 2.3089 2.964 1.6538l7.4485-2.1133q2.3089-0.65508 1.6538-2.964l-1.3798-4.8631q-0.65508-2.3089-2.964-1.6538l-7.4485 2.1133q-2.3089 0.65508-1.6538 2.964z" clip-path="url(#a)" fill="#fff" stroke="#fff"/>
<g clip-path="url(#a)">
<g transform="translate(705.59 580.36) rotate(74.16) scale(.08 -.08)">
<use xlink:href="#o"/>
</g>
</g>
<path d="m725.34 582.57 2.5528 4.9688q1.0968 2.1347 3.2315 1.038l6.8867-3.5382q2.1347-1.0968 1.038-3.2315l-2.5528-4.9688q-1.0968-2.1347-3.2315-1.038l-6.8867 3.5382q-2.1347 1.0968-1.038 3.2315z" clip-path="url(#a)" fill="#fff" stroke="#fff"/>
<g clip-path="url(#a)">
<g transform="translate(728.96 580.71) rotate(62.807) scale(.08 -.08)">
<use xlink:href="#q"/>
</g>
</g>
<path d="m666.49 586.16 1.0169-5.766q0.41685-2.3635-1.9467-2.7804l-7.6248-1.3448q-2.3635-0.41685-2.7804 1.9467l-1.0169 5.766q-0.41685 2.3635 1.9467 2.7804l7.6248 1.3448q2.3635 0.41685 2.7804-1.9467z" clip-path="url(#a)" fill="#fff" stroke="#fff"/>
<g clip-path="url(#a)">
<g transform="translate(662.49 585.46) rotate(-79.998) scale(.08 -.08)">
<use xlink:href="#t"/>
</g>
</g>
<path d="m826.65 719.32v35.285q0 2.4 2.4 2.4h7.7425q2.4 0 2.4-2.4v-35.285q0-2.4-2.4-2.4h-7.7425q-2.4 0-2.4 2.4z" clip-path="url(#a)" fill="#fff" stroke="#fff"/>
<g clip-path="url(#a)">
<g transform="translate(830.71 719.32) rotate(90) scale(.08 -.08)">
<use xlink:href="#l"/>
<use x="60.818359" xlink:href="#d"/>
<use x="122.341797" xlink:href="#h"/>
<use x="163.439453" xlink:href="#k"/>
<use x="260.851562" xlink:href="#i"/>
<use x="288.634766" xlink:href="#g"/>
<use x="352.013672" xlink:href="#e"/>
<use x="413.292969" xlink:href="#j"/>
</g>
</g>
<path d="m511.63 639.93 2.9358-4.7526q1.2613-2.0418-0.78054-3.3031l-6.5871-4.069q-2.0418-1.2613-3.3031 0.78054l-2.9358 4.7526q-1.2613 2.0418 0.78054 3.3031l6.5871 4.069q2.0418 1.2613 3.3031-0.78054z" clip-path="url(#a)" fill="#fff" stroke="#fff"/>
<g clip-path="url(#a)">
<g transform="translate(508.17 637.79) rotate(-58.295) scale(.08 -.08)">
<use xlink:href="#q"/>
</g>
</g>
<path d="m536.97 631.82 0.45076 5.8376q0.18477 2.3929 2.5776 2.2081l7.7195-0.59607q2.3929-0.18477 2.2081-2.5776l-0.45076-5.8376q-0.18477-2.3929-2.5776-2.2081l-7.7195 0.59607q-2.3929 0.18477-2.2081 2.5776z" clip-path="url(#a)" fill="#fff" stroke="#fff"/>
<g clip-path="url(#a)">
<g transform="translate(541.02 631.51) rotate(85.585) scale(.08 -.08)">
<use xlink:href="#t"/>
</g>
</g>
<path d="m560.52 635.02 2.4036 4.447q1.1412 2.1113 3.2525 0.97013l6.8112-3.6815q2.1113-1.1412 0.97013-3.2525l-2.4036-4.447q-1.1412-2.1113-3.2525-0.97013l-6.8112 3.6815q-2.1113 1.1412-0.97013 3.2525z" clip-path="url(#a)" fill="#fff" stroke="#fff"/>
<g clip-path="url(#a)">
<g transform="translate(564.1 633.08) rotate(61.608) scale(.08 -.08)">
<use xlink:href="#o"/>
</g>
</g>
<path d="m683.9 719.32v35.285q0 2.4 2.4 2.4h7.7425q2.4 0 2.4-2.4v-35.285q0-2.4-2.4-2.4h-7.7425q-2.4 0-2.4 2.4z" clip-path="url(#a)" fill="#fff" stroke="#fff"/>
<g clip-path="url(#a)">
<g transform="translate(687.96 719.32) rotate(90) scale(.08 -.08)">
<use xlink:href="#l"/>
<use x="60.818359" xlink:href="#d"/>
<use x="122.341797" xlink:href="#h"/>
<use x="163.439453" xlink:href="#k"/>
<use x="260.851562" xlink:href="#i"/>
<use x="288.634766" xlink:href="#g"/>
<use x="352.013672" xlink:href="#e"/>
<use x="413.292969" xlink:href="#j"/>
</g>
</g>
<path d="m731.48 719.32v35.285q0 2.4 2.4 2.4h7.7425q2.4 0 2.4-2.4v-35.285q0-2.4-2.4-2.4h-7.7425q-2.4 0-2.4 2.4z" clip-path="url(#a)" fill="#fff" stroke="#fff"/>
<g clip-path="url(#a)">
<g transform="translate(735.54 719.32) rotate(90) scale(.08 -.08)">
<use xlink:href="#l"/>
<use x="60.818359" xlink:href="#d"/>
<use x="122.341797" xlink:href="#h"/>
<use x="163.439453" xlink:href="#k"/>
<use x="260.851562" xlink:href="#i"/>
<use x="288.634766" xlink:href="#g"/>
<use x="352.013672" xlink:href="#e"/>
<use x="413.292969" xlink:href="#j"/>
</g>
</g>
<path d="m779.06 719.32v35.285q0 2.4 2.4 2.4h7.7425q2.4 0 2.4-2.4v-35.285q0-2.4-2.4-2.4h-7.7425q-2.4 0-2.4 2.4z" clip-path="url(#a)" fill="#fff" stroke="#fff"/>
<g clip-path="url(#a)">
<g transform="translate(783.13 719.32) rotate(90) scale(.08 -.08)">
<use xlink:href="#l"/>
<use x="60.818359" xlink:href="#d"/>
<use x="122.341797" xlink:href="#h"/>
<use x="163.439453" xlink:href="#k"/>
<use x="260.851562" xlink:href="#i"/>
<use x="288.634766" xlink:href="#g"/>
<use x="352.013672" xlink:href="#e"/>
<use x="413.292969" xlink:href="#j"/>
</g>
</g>
<path d="m466.27 755.57 7.9628-34.375q0.54161-2.3381-1.7965-2.8797l-7.5428-1.7473q-2.3381-0.54161-2.8797 1.7965l-7.9628 34.375q-0.54161 2.3381 1.7965 2.8797l7.5428 1.7473q2.3381 0.54161 2.8797-1.7965z" clip-path="url(#a)" fill="#fff" stroke="#fff"/>
<g clip-path="url(#a)">
<g transform="translate(462.31 754.65) rotate(-76.958) scale(.08 -.08)">
<use xlink:href="#l"/>
<use x="60.818359" xlink:href="#d"/>
<use x="122.341797" xlink:href="#h"/>
<use x="163.439453" xlink:href="#k"/>
<use x="260.851562" xlink:href="#i"/>
<use x="288.634766" xlink:href="#g"/>
<use x="352.013672" xlink:href="#e"/>
<use x="413.292969" xlink:href="#j"/>
</g>
</g>
<path d="m477.85 721.19 7.9628 34.375q0.54161 2.3381 2.8797 1.7965l7.5428-1.7473q2.3381-0.54161 1.7965-2.8797l-7.9628-34.375q-0.54161-2.3381-2.8797-1.7965l-7.5428 1.7473q-2.3381 0.54161-1.7965 2.8797z" clip-path="url(#a)" fill="#fff" stroke="#fff"/>
<g clip-path="url(#a)">
<g transform="translate(481.81 720.27) rotate(76.958) scale(.08 -.08)">
<use xlink:href="#l"/>
<use x="60.818359" xlink:href="#d"/>
<use x="122.341797" xlink:href="#h"/>
<use x="163.439453" xlink:href="#k"/>
<use x="260.851562" xlink:href="#i"/>
<use x="288.634766" xlink:href="#g"/>
<use x="352.013672" xlink:href="#e"/>
<use x="413.292969" xlink:href="#j"/>
</g>
</g>
<path d="m541.15 719.32v35.285q0 2.4 2.4 2.4h7.7425q2.4 0 2.4-2.4v-35.285q0-2.4-2.4-2.4h-7.7425q-2.4 0-2.4 2.4z" clip-path="url(#a)" fill="#fff" stroke="#fff"/>
<g clip-path="url(#a)">
<g transform="translate(545.21 719.32) rotate(90) scale(.08 -.08)">
<use xlink:href="#l"/>
<use x="60.818359" xlink:href="#d"/>
<use x="122.341797" xlink:href="#h"/>
<use x="163.439453" xlink:href="#k"/>
<use x="260.851562" xlink:href="#i"/>
<use x="288.634766" xlink:href="#g"/>
<use x="352.013672" xlink:href="#e"/>
<use x="413.292969" xlink:href="#j"/>
</g>
</g>
<path d="m588.73 719.32v35.285q0 2.4 2.4 2.4h7.7425q2.4 0 2.4-2.4v-35.285q0-2.4-2.4-2.4h-7.7425q-2.4 0-2.4 2.4z" clip-path="url(#a)" fill="#fff" stroke="#fff"/>
<g clip-path="url(#a)">
<g transform="translate(592.79 719.32) rotate(90) scale(.08 -.08)">
<use xlink:href="#l"/>
<use x="60.818359" xlink:href="#d"/>
<use x="122.341797" xlink:href="#h"/>
<use x="163.439453" xlink:href="#k"/>
<use x="260.851562" xlink:href="#i"/>
<use x="288.634766" xlink:href="#g"/>
<use x="352.013672" xlink:href="#e"/>
<use x="413.292969" xlink:href="#j"/>
</g>
</g>
<path d="m208.06 719.32v35.285q0 2.4 2.4 2.4h7.7425q2.4 0 2.4-2.4v-35.285q0-2.4-2.4-2.4h-7.7425q-2.4 0-2.4 2.4z" clip-path="url(#a)" fill="#fff" stroke="#fff"/>
<g clip-path="url(#a)">
<g transform="translate(212.13 719.32) rotate(90) scale(.08 -.08)">
<use xlink:href="#l"/>
<use x="60.818359" xlink:href="#d"/>
<use x="122.341797" xlink:href="#h"/>
<use x="163.439453" xlink:href="#k"/>
<use x="260.851562" xlink:href="#i"/>
<use x="288.634766" xlink:href="#g"/>
<use x="352.013672" xlink:href="#e"/>
<use x="413.292969" xlink:href="#j"/>
</g>
</g>
<path d="m255.65 719.32v35.285q0 2.4 2.4 2.4h7.7425q2.4 0 2.4-2.4v-35.285q0-2.4-2.4-2.4h-7.7425q-2.4 0-2.4 2.4z" clip-path="url(#a)" fill="#fff" stroke="#fff"/>
<g clip-path="url(#a)">
<g transform="translate(259.71 719.32) rotate(90) scale(.08 -.08)">
<use xlink:href="#l"/>
<use x="60.818359" xlink:href="#d"/>
<use x="122.341797" xlink:href="#h"/>
<use x="163.439453" xlink:href="#k"/>
<use x="260.851562" xlink:href="#i"/>
<use x="288.634766" xlink:href="#g"/>
<use x="352.013672" xlink:href="#e"/>
<use x="413.292969" xlink:href="#j"/>
</g>
</g>
<path d="m303.23 719.32v35.285q0 2.4 2.4 2.4h7.7425q2.4 0 2.4-2.4v-35.285q0-2.4-2.4-2.4h-7.7425q-2.4 0-2.4 2.4z" clip-path="url(#a)" fill="#fff" stroke="#fff"/>
<g clip-path="url(#a)">
<g transform="translate(307.29 719.32) rotate(90) scale(.08 -.08)">
<use xlink:href="#l"/>
<use x="60.818359" xlink:href="#d"/>
<use x="122.341797" xlink:href="#h"/>
<use x="163.439453" xlink:href="#k"/>
<use x="260.851562" xlink:href="#i"/>
<use x="288.634766" xlink:href="#g"/>
<use x="352.013672" xlink:href="#e"/>
<use x="413.292969" xlink:href="#j"/>
</g>
</g>
<path d="m520.24 102.93 9.5611-2.6906q2.3103-0.65012 1.6601-2.9604l-2.0973-7.453q-0.65012-2.3103-2.9604-1.6601l-9.5611 2.6906q-2.3103 0.65012-1.6601 2.9604l2.0973 7.453q0.65012 2.3103 2.9604 1.6601z" clip-path="url(#a)" fill="#fff" stroke="#fff"/>
<g clip-path="url(#a)">
<g transform="translate(519.14 99.019) rotate(-15.717) scale(.08 -.08)">
<use xlink:href="#aa"/>
<use x="55.744141" xlink:href="#u"/>
</g>
</g>
<path d="m867.13 360.04 4.1734 9.1054q0.99998 2.1818 3.1817 1.1818l7.0384-3.226q2.1818-0.99998 1.1818-3.1817l-4.1734-9.1054q-0.99998-2.1818-3.1817-1.1818l-7.0384 3.226q-2.1818 0.99998-1.1818 3.1817z" clip-path="url(#a)" fill="#fff" stroke="#fff"/>
<g clip-path="url(#a)">
<g transform="translate(870.82 358.35) rotate(65.376) scale(.08 -.08)">
<use xlink:href="#aa"/>
<use x="55.712891" xlink:href="#x"/>
</g>
</g>
<path d="m774.01 202.73 3.101 9.436q0.7493 2.28 3.0293 1.5307l7.3555-2.4173q2.28-0.7493 1.5307-3.0293l-3.101-9.436q-0.7493-2.28-3.0293-1.5307l-7.3555 2.4173q-2.28 0.7493-1.5307 3.0293z" clip-path="url(#a)" fill="#fff" stroke="#fff"/>
<g clip-path="url(#a)">
<g transform="translate(777.87 201.46) rotate(71.808) scale(.08 -.08)">
<use xlink:href="#aa"/>
<use x="55.744141" xlink:href="#u"/>
</g>
</g>
<path d="m636.31 719.32v35.285q0 2.4 2.4 2.4h7.7425q2.4 0 2.4-2.4v-35.285q0-2.4-2.4-2.4h-7.7425q-2.4 0-2.4 2.4z" clip-path="url(#a)" fill="#fff" stroke="#fff"/>
<g clip-path="url(#a)">
<g transform="translate(640.38 719.32) rotate(90) scale(.08 -.08)">
<use xlink:href="#l"/>
<use x="60.818359" xlink:href="#d"/>
<use x="122.341797" xlink:href="#h"/>
<use x="163.439453" xlink:href="#k"/>
<use x="260.851562" xlink:href="#i"/>
<use x="288.634766" xlink:href="#g"/>
<use x="352.013672" xlink:href="#e"/>
<use x="413.292969" xlink:href="#j"/>
</g>
</g>
<path d="m969.4 719.32v35.285q0 2.4 2.4 2.4h7.7425q2.4 0 2.4-2.4v-35.285q0-2.4-2.4-2.4h-7.7425q-2.4 0-2.4 2.4z" clip-path="url(#a)" fill="#fff" stroke="#fff"/>
<g clip-path="url(#a)">
<g transform="translate(973.46 719.32) rotate(90) scale(.08 -.08)">
<use xlink:href="#l"/>
<use x="60.818359" xlink:href="#d"/>
<use x="122.341797" xlink:href="#h"/>
<use x="163.439453" xlink:href="#k"/>
<use x="260.851562" xlink:href="#i"/>
<use x="288.634766" xlink:href="#g"/>
<use x="352.013672" xlink:href="#e"/>
<use x="413.292969" xlink:href="#j"/>
</g>
</g>
<path d="m1492.8 719.32v35.285q0 2.4 2.4 2.4h7.7425q2.4 0 2.4-2.4v-35.285q0-2.4-2.4-2.4h-7.7425q-2.4 0-2.4 2.4z" clip-path="url(#a)" fill="#fff" stroke="#fff"/>
<g clip-path="url(#a)">
<g transform="translate(1496.9 719.32) rotate(90) scale(.08 -.08)">
<use xlink:href="#l"/>
<use x="60.818359" xlink:href="#d"/>
<use x="122.341797" xlink:href="#h"/>
<use x="163.439453" xlink:href="#k"/>
<use x="260.851562" xlink:href="#i"/>
<use x="288.634766" xlink:href="#g"/>
<use x="352.013672" xlink:href="#e"/>
<use x="413.292969" xlink:href="#j"/>
</g>
</g>
<defs>
<path id="b" d="m0 8.6603c2.2967 0 4.4997-0.9125 6.1237-2.5365 1.624-1.624 2.5365-3.827 2.5365-6.1237s-0.9125-4.4997-2.5365-6.1237c-1.624-1.624-3.827-2.5365-6.1237-2.5365s-4.4997 0.9125-6.1237 2.5365c-1.624 1.624-2.5365 3.827-2.5365 6.1237s0.9125 4.4997 2.5365 6.1237c1.624 1.624 3.827 2.5365 6.1237 2.5365z"/>
</defs>
<g clip-path="url(#a)">
<use x="71.58284" y="788.316215" fill="#ffffff" stroke="#ffffff" xlink:href="#b"/>
</g>
<g clip-path="url(#a)">
<use x="119.166207" y="788.316215" fill="#ffffff" stroke="#ffffff" xlink:href="#b"/>
</g>
<g clip-path="url(#a)">
<use x="166.749573" y="788.316215" fill="#ffffff" stroke="#ffffff" xlink:href="#b"/>
</g>
<g clip-path="url(#a)">
<use x="214.332939" y="788.316215" fill="#ffffff" stroke="#ffffff" xlink:href="#b"/>
</g>
<g clip-path="url(#a)">
<use x="261.916305" y="788.316215" fill="#ffffff" stroke="#ffffff" xlink:href="#b"/>
</g>
<g clip-path="url(#a)">
<use x="309.499671" y="788.316215" fill="#ffffff" stroke="#ffffff" xlink:href="#b"/>
</g>
<g clip-path="url(#a)">
<use x="357.083038" y="788.316215" fill="#ffffff" stroke="#ffffff" xlink:href="#b"/>
</g>
<g clip-path="url(#a)">
<use x="404.666404" y="788.316215" fill="#ffffff" stroke="#ffffff" xlink:href="#b"/>
</g>
<g clip-path="url(#a)">
<use x="452.24977" y="788.316215" fill="#ffffff" stroke="#ffffff" xlink:href="#b"/>
</g>
<g clip-path="url(#a)">
<use x="499.833136" y="788.316215" fill="#ffffff" stroke="#ffffff" xlink:href="#b"/>
</g>
<g clip-path="url(#a)">
<use x="547.416502" y="788.316215" fill="#ffffff" stroke="#ffffff" xlink:href="#b"/>
</g>
<g clip-path="url(#a)">
<use x="594.999869" y="788.316215" fill="#ffffff" stroke="#ffffff" xlink:href="#b"/>
</g>
<g clip-path="url(#a)">
<use x="642.583235" y="788.316215" fill="#ffffff" stroke="#ffffff" xlink:href="#b"/>
</g>
<g clip-path="url(#a)">
<use x="690.166601" y="788.316215" fill="#ffffff" stroke="#ffffff" xlink:href="#b"/>
</g>
<g clip-path="url(#a)">
<use x="737.749967" y="788.316215" fill="#ffffff" stroke="#ffffff" xlink:href="#b"/>
</g>
<g clip-path="url(#a)">
<use x="785.333333" y="788.316215" fill="#ffffff" stroke="#ffffff" xlink:href="#b"/>
</g>
<g clip-path="url(#a)">
<use x="832.9167" y="788.316215" fill="#ffffff" stroke="#ffffff" xlink:href="#b"/>
</g>
<g clip-path="url(#a)">
<use x="880.500066" y="788.316215" fill="#ffffff" stroke="#ffffff" xlink:href="#b"/>
</g>
<g clip-path="url(#a)">
<use x="928.083432" y="788.316215" fill="#ffffff" stroke="#ffffff" xlink:href="#b"/>
</g>
<g clip-path="url(#a)">
<use x="975.666798" y="788.316215" fill="#ffffff" stroke="#ffffff" xlink:href="#b"/>
</g>
<g clip-path="url(#a)">
<use x="1023.250164" y="788.316215" fill="#ffffff" stroke="#ffffff" xlink:href="#b"/>
</g>
<g clip-path="url(#a)">
<use x="1070.833531" y="788.316215" fill="#ffffff" stroke="#ffffff" xlink:href="#b"/>
</g>
<g clip-path="url(#a)">
<use x="1118.416897" y="788.316215" fill="#ffffff" stroke="#ffffff" xlink:href="#b"/>
</g>
<g clip-path="url(#a)">
<use x="1166.000263" y="788.316215" fill="#ffffff" stroke="#ffffff" xlink:href="#b"/>
</g>
<g clip-path="url(#a)">
<use x="1213.583629" y="788.316215" fill="#ffffff" stroke="#ffffff" xlink:href="#b"/>
</g>
<g clip-path="url(#a)">
<use x="1261.166995" y="788.316215" fill="#ffffff" stroke="#ffffff" xlink:href="#b"/>
</g>
<g clip-path="url(#a)">
<use x="1308.750361" y="788.316215" fill="#ffffff" stroke="#ffffff" xlink:href="#b"/>
</g>
<g clip-path="url(#a)">
<use x="1356.333728" y="788.316215" fill="#ffffff" stroke="#ffffff" xlink:href="#b"/>
</g>
<g clip-path="url(#a)">
<use x="1403.917094" y="788.316215" fill="#ffffff" stroke="#ffffff" xlink:href="#b"/>
</g>
<g clip-path="url(#a)">
<use x="1451.50046" y="788.316215" fill="#ffffff" stroke="#ffffff" xlink:href="#b"/>
</g>
<g clip-path="url(#a)">
<use x="1499.083826" y="788.316215" fill="#ffffff" stroke="#ffffff" xlink:href="#b"/>
</g>
<g clip-path="url(#a)">
<use x="788.856375" y="38.350451" fill="#ffffff" stroke="#ffffff" xlink:href="#b"/>
</g>
<g clip-path="url(#a)">
<use x="320.067144" y="152.747205" fill="#ffffff" stroke="#ffffff" xlink:href="#b"/>
</g>
<g clip-path="url(#a)">
<use x="1023.250164" y="685.609852" fill="#ffffff" stroke="#ffffff" xlink:href="#b"/>
</g>
<g clip-path="url(#a)">
<use x="836.441393" y="372.628044" fill="#ffffff" stroke="#ffffff" xlink:href="#b"/>
</g>
<g clip-path="url(#a)">
<use x="1094.625214" y="582.903488" fill="#ffffff" stroke="#ffffff" xlink:href="#b"/>
</g>
<g clip-path="url(#a)">
<use x="1343.116126" y="478.768366" fill="#ffffff" stroke="#ffffff" xlink:href="#b"/>
</g>
<g clip-path="url(#a)">
<use x="1221.51419" y="582.903488" fill="#ffffff" stroke="#ffffff" xlink:href="#b"/>
</g>
<g clip-path="url(#a)">
<use x="1356.333728" y="685.609852" fill="#ffffff" stroke="#ffffff" xlink:href="#b"/>
</g>
<g clip-path="url(#a)">
<use x="1451.50046" y="582.903488" fill="#ffffff" stroke="#ffffff" xlink:href="#b"/>
</g>
<g clip-path="url(#a)">
<use x="1403.917094" y="685.609852" fill="#ffffff" stroke="#ffffff" xlink:href="#b"/>
</g>
<g clip-path="url(#a)">
<use x="1451.50046" y="685.609852" fill="#ffffff" stroke="#ffffff" xlink:href="#b"/>
</g>
<g clip-path="url(#a)">
<use x="1166.000263" y="685.609852" fill="#ffffff" stroke="#ffffff" xlink:href="#b"/>
</g>
<g clip-path="url(#a)">
<use x="1213.583629" y="685.609852" fill="#ffffff" stroke="#ffffff" xlink:href="#b"/>
</g>
<g clip-path="url(#a)">
<use x="1284.958678" y="685.609852" fill="#ffffff" stroke="#ffffff" xlink:href="#b"/>
</g>
<g clip-path="url(#a)">
<use x="1070.833531" y="685.609852" fill="#ffffff" stroke="#ffffff" xlink:href="#b"/>
</g>
<g clip-path="url(#a)">
<use x="1118.416897" y="685.609852" fill="#ffffff" stroke="#ffffff" xlink:href="#b"/>
</g>
<g clip-path="url(#a)">
<use x="71.58284" y="685.609852" fill="#ffffff" stroke="#ffffff" xlink:href="#b"/>
</g>
<g clip-path="url(#a)">
<use x="119.166207" y="685.609852" fill="#ffffff" stroke="#ffffff" xlink:href="#b"/>
</g>
<g clip-path="url(#a)">
<use x="166.749573" y="685.609852" fill="#ffffff" stroke="#ffffff" xlink:href="#b"/>
</g>
<g clip-path="url(#a)">
<use x="338.545351" y="264.06929" fill="#ffffff" stroke="#ffffff" xlink:href="#b"/>
</g>
<g clip-path="url(#a)">
<use x="904.291749" y="582.903488" fill="#ffffff" stroke="#ffffff" xlink:href="#b"/>
</g>
<g clip-path="url(#a)">
<use x="880.500066" y="685.609852" fill="#ffffff" stroke="#ffffff" xlink:href="#b"/>
</g>
<g clip-path="url(#a)">
<use x="928.083432" y="685.609852" fill="#ffffff" stroke="#ffffff" xlink:href="#b"/>
</g>
<g clip-path="url(#a)">
<use x="568.432489" y="372.628044" fill="#ffffff" stroke="#ffffff" xlink:href="#b"/>
</g>
<g clip-path="url(#a)">
<use x="357.083038" y="685.609852" fill="#ffffff" stroke="#ffffff" xlink:href="#b"/>
</g>
<g clip-path="url(#a)">
<use x="404.666404" y="685.609852" fill="#ffffff" stroke="#ffffff" xlink:href="#b"/>
</g>
<g clip-path="url(#a)">
<use x="679.063815" y="478.768366" fill="#ffffff" stroke="#ffffff" xlink:href="#b"/>
</g>
<g clip-path="url(#a)">
<use x="832.9167" y="685.609852" fill="#ffffff" stroke="#ffffff" xlink:href="#b"/>
</g>
<g clip-path="url(#a)">
<use x="539.485941" y="582.903488" fill="#ffffff" stroke="#ffffff" xlink:href="#b"/>
</g>
<g clip-path="url(#a)">
<use x="690.166601" y="685.609852" fill="#ffffff" stroke="#ffffff" xlink:href="#b"/>
</g>
<g clip-path="url(#a)">
<use x="737.749967" y="685.609852" fill="#ffffff" stroke="#ffffff" xlink:href="#b"/>
</g>
<g clip-path="url(#a)">
<use x="785.333333" y="685.609852" fill="#ffffff" stroke="#ffffff" xlink:href="#b"/>
</g>
<g clip-path="url(#a)">
<use x="476.041453" y="685.609852" fill="#ffffff" stroke="#ffffff" xlink:href="#b"/>
</g>
<g clip-path="url(#a)">
<use x="547.416502" y="685.609852" fill="#ffffff" stroke="#ffffff" xlink:href="#b"/>
</g>
<g clip-path="url(#a)">
<use x="594.999869" y="685.609852" fill="#ffffff" stroke="#ffffff" xlink:href="#b"/>
</g>
<g clip-path="url(#a)">
<use x="214.332939" y="685.609852" fill="#ffffff" stroke="#ffffff" xlink:href="#b"/>
</g>
<g clip-path="url(#a)">
<use x="261.916305" y="685.609852" fill="#ffffff" stroke="#ffffff" xlink:href="#b"/>
</g>
<g clip-path="url(#a)">
<use x="309.499671" y="685.609852" fill="#ffffff" stroke="#ffffff" xlink:href="#b"/>
</g>
<g clip-path="url(#a)">
<use x="726.586234" y="38.350451" fill="#808080" stroke="#808080" xlink:href="#b"/>
</g>
<g clip-path="url(#a)">
<use x="642.583235" y="685.609852" fill="#ffffff" stroke="#ffffff" xlink:href="#b"/>
</g>
<g clip-path="url(#a)">
<use x="975.666798" y="685.609852" fill="#ffffff" stroke="#ffffff" xlink:href="#b"/>
</g>
<g clip-path="url(#a)">
<use x="1499.083826" y="685.609852" fill="#ffffff" stroke="#ffffff" xlink:href="#b"/>
</g>
<g clip-path="url(#a)">
<g transform="translate(64.746 791.08) scale(.1 -.1)">
<use xlink:href="#af"/>
<use x="75.195312" xlink:href="#d"/>
</g>
</g>
<g clip-path="url(#a)">
<defs>
<path id="av" d="m4.2031 54.688h8.9844l11.234-42.672 11.172 42.672h10.594l11.234-42.672 11.188 42.672h8.9844l-14.312-54.688h-10.594l-11.766 44.828-11.812-44.828h-10.609z"/>
<path id="r" d="m44.281 53.078v-8.5q-3.7969 1.9531-7.9062 2.9219-4.0938 0.98438-8.5 0.98438-6.6875 0-10.031-2.0469t-3.3438-6.1562q0-3.125 2.3906-4.9062t9.625-3.3906l3.0781-0.6875q9.5625-2.0469 13.594-5.7812t4.0312-10.422q0-7.625-6.0312-12.078-6.0312-4.4375-16.578-4.4375-4.3906 0-9.1562 0.85938t-10.031 2.5625v9.2812q4.9844-2.5938 9.8125-3.8906 4.8281-1.2812 9.5781-1.2812 6.3438 0 9.75 2.1719 3.4219 2.1719 3.4219 6.125 0 3.6562-2.4688 5.6094-2.4531 1.9531-10.812 3.7656l-3.125 0.73438q-8.3438 1.75-12.062 5.3906-3.7031 3.6406-3.7031 9.9844 0 7.7188 5.4688 11.906 5.4688 4.2031 15.531 4.2031 4.9688 0 9.3594-0.73438 4.4062-0.71875 8.1094-2.1875z"/>
</defs>
<g transform="translate(109.41 791.08) scale(.1 -.1)">
<use xlink:href="#av"/>
<use x="81.787109" xlink:href="#e"/>
<use x="143.066406" xlink:href="#r"/>
</g>
</g>
<g clip-path="url(#a)">
<defs>
<path id="v" d="m30.609 48.391q-7.2188 0-11.422-5.6406t-4.2031-15.453 4.1719-15.453q4.1875-5.6406 11.453-5.6406 7.1875 0 11.375 5.6562 4.2031 5.6719 4.2031 15.438 0 9.7188-4.2031 15.406-4.1875 5.6875-11.375 5.6875zm0 7.6094q11.719 0 18.406-7.625 6.7031-7.6094 6.7031-21.078 0-13.422-6.7031-21.078-6.6875-7.6406-18.406-7.6406-11.766 0-18.438 7.6406-6.6562 7.6562-6.6562 21.078 0 13.469 6.6562 21.078 6.6719 7.625 18.438 7.625z"/>
</defs>
<g transform="translate(156.63 791.08) scale(.1 -.1)">
<use xlink:href="#e"/>
<use x="61.279297" xlink:href="#j"/>
<use x="89.0625" xlink:href="#r"/>
<use x="141.162109" xlink:href="#v"/>
</g>
</g>
<g clip-path="url(#a)">
<defs>
<path id="w" d="m18.312 70.219v-15.531h18.5v-6.9844h-18.5v-29.688q0-6.6875 1.8281-8.5938t7.4531-1.9062h9.2188v-7.5156h-9.2188q-10.406 0-14.359 3.875-3.9531 3.8906-3.9531 14.141v29.688h-6.5938v6.9844h6.5938v15.531z"/>
<path id="ai" d="m54.891 33.016v-33.016h-8.9844v32.719q0 7.7656-3.0312 11.609-3.0312 3.8594-9.0781 3.8594-7.2812 0-11.484-4.6406-4.2031-4.625-4.2031-12.641v-30.906h-9.0312v75.984h9.0312v-29.797q3.2344 4.9375 7.5938 7.375 4.375 2.4375 10.094 2.4375 9.4219 0 14.25-5.8281 4.8438-5.8281 4.8438-17.156z"/>
</defs>
<g transform="translate(206.13 791.08) scale(.1 -.1)">
<use xlink:href="#w"/>
<use x="39.208984" xlink:href="#ai"/>
<use x="102.587891" xlink:href="#d"/>
</g>
</g>
<g clip-path="url(#a)">
<g transform="translate(249.42 791.08) scale(.1 -.1)">
<use xlink:href="#k"/>
<use x="97.412109" xlink:href="#e"/>
<use x="158.691406" xlink:href="#i"/>
<use x="186.474609" xlink:href="#g"/>
</g>
</g>
<g clip-path="url(#a)">
<defs>
<path id="ax" d="m18.109 8.2031v-29h-9.0312v75.484h9.0312v-8.2969q2.8438 4.875 7.1562 7.2344 4.3281 2.375 10.328 2.375 9.9688 0 16.188-7.9062 6.2344-7.9062 6.2344-20.797t-6.2344-20.812q-6.2188-7.9062-16.188-7.9062-6 0-10.328 2.375-4.3125 2.375-7.1562 7.25zm30.578 19.094q0 9.9062-4.0781 15.547t-11.203 5.6406q-7.1406 0-11.219-5.6406t-4.0781-15.547 4.0781-15.547 11.219-5.6406q7.125 0 11.203 5.6406t4.0781 15.547z"/>
<path id="ay" d="m9.0781 75.984h9.0312v-44.875l26.812 23.578h11.469l-29-25.578 30.234-29.109h-11.719l-27.797 26.703v-26.703h-9.0312z"/>
</defs>
<g transform="translate(289.56 791.08) scale(.1 -.1)">
<use xlink:href="#r"/>
<use x="52.099609" xlink:href="#ax"/>
<use x="115.576172" xlink:href="#d"/>
<use x="177.099609" xlink:href="#e"/>
<use x="238.378906" xlink:href="#ay"/>
<use x="296.242188" xlink:href="#d"/>
<use x="357.765625" xlink:href="#h"/>
</g>
</g>
<g clip-path="url(#a)">
<defs>
<path id="aj" d="m37.109 75.984v-7.4844h-8.5938q-4.8281 0-6.7188-1.9531-1.875-1.9531-1.875-7.0312v-4.8281h14.797v-6.9844h-14.797v-47.703h-9.0312v47.703h-8.5938v6.9844h8.5938v3.8125q0 9.125 4.25 13.297 4.25 4.1875 13.469 4.1875z"/>
</defs>
<g transform="translate(350.21 791.08) scale(.1 -.1)">
<use xlink:href="#aj"/>
<use x="35.205078" xlink:href="#v"/>
<use x="96.386719" xlink:href="#h"/>
</g>
</g>
<g clip-path="url(#a)">
<g transform="translate(396.46 791.08) scale(.1 -.1)">
<use xlink:href="#w"/>
<use x="39.208984" xlink:href="#ai"/>
<use x="102.587891" xlink:href="#d"/>
</g>
</g>
<g clip-path="url(#a)">
<defs>
<path id="z" d="m45.406 46.391v29.594h8.9844v-75.984h-8.9844v8.2031q-2.8281-4.875-7.1562-7.25-4.3125-2.375-10.375-2.375-9.9062 0-16.141 7.9062-6.2188 7.9219-6.2188 20.812t6.2188 20.797q6.2344 7.9062 16.141 7.9062 6.0625 0 10.375-2.375 4.3281-2.3594 7.1562-7.2344zm-30.609-19.094q0-9.9062 4.0781-15.547t11.203-5.6406 11.219 5.6406q4.1094 5.6406 4.1094 15.547t-4.1094 15.547q-4.0938 5.6406-11.219 5.6406t-11.203-5.6406-4.0781-15.547z"/>
</defs>
<g transform="translate(435.82 791.08) scale(.1 -.1)">
<use xlink:href="#t"/>
<use x="73.193359" xlink:href="#g"/>
<use x="136.572266" xlink:href="#i"/>
<use x="164.355469" xlink:href="#w"/>
<use x="203.564453" xlink:href="#d"/>
<use x="265.087891" xlink:href="#z"/>
</g>
</g>
<g clip-path="url(#a)">
<defs>
<path id="ae" d="m9.8125 72.906h13.281l32.328-60.984v60.984h9.5625v-72.906h-13.281l-32.312 60.984v-60.984h-9.5781z"/>
</defs>
<g transform="translate(480.85 791.08) scale(.1 -.1)">
<use xlink:href="#ae"/>
<use x="74.804688" xlink:href="#e"/>
<use x="136.083984" xlink:href="#w"/>
<use x="175.292969" xlink:href="#i"/>
<use x="203.076172" xlink:href="#v"/>
<use x="264.257812" xlink:href="#g"/>
<use x="327.636719" xlink:href="#r"/>
</g>
</g>
<g clip-path="url(#a)">
<defs>
<path id="at" d="m31 75.875q-6.5312-11.219-9.7188-22.219-3.1719-10.984-3.1719-22.266 0-11.266 3.2031-22.328t9.6875-22.25h-7.8125q-7.3125 11.484-10.953 22.562t-3.6406 22.016q0 10.891 3.6094 21.922 3.625 11.047 10.984 22.562z"/>
</defs>
<g transform="translate(545.47 791.08) scale(.1 -.1)">
<use xlink:href="#at"/>
</g>
</g>
<g clip-path="url(#a)">
<g transform="translate(587.6 791.08) scale(.1 -.1)">
<use xlink:href="#t"/>
<use x="73.193359" xlink:href="#ae"/>
</g>
</g>
<g clip-path="url(#a)">
<defs>
<path id="as" d="m8.0156 75.875h7.8125q7.3125-11.516 10.953-22.562 3.6406-11.031 3.6406-21.922 0-10.938-3.6406-22.016t-10.953-22.562h-7.8125q6.4844 11.188 9.6875 22.25t3.2031 22.328q0 11.281-3.2031 22.266-3.2031 11-9.6875 22.219z"/>
</defs>
<g transform="translate(640.63 791.08) scale(.1 -.1)">
<use xlink:href="#as"/>
</g>
</g>
<g clip-path="url(#a)">
<defs>
<path id="an" d="m3.3281 72.906h9.9531l15.328-61.625 15.281 61.625h11.094l15.328-61.625 15.281 61.625h10.016l-18.312-72.906h-12.406l-15.375 63.281-15.531-63.281h-12.406z"/>
</defs>
<g transform="translate(675.55 791.08) scale(.1 -.1)">
<use xlink:href="#an"/>
<use x="98.798828" xlink:href="#v"/>
<use x="159.980469" xlink:href="#h"/>
<use x="201.09375" xlink:href="#j"/>
<use x="228.876953" xlink:href="#z"/>
</g>
</g>
<g clip-path="url(#a)">
<defs>
<path id="ap" d="m9.8125 72.906h9.8594v-72.906h-9.8594z"/>
</defs>
<g transform="translate(725.83 791.08) scale(.1 -.1)">
<use xlink:href="#u"/>
<use x="68.408203" xlink:href="#ap"/>
<use x="97.900391" xlink:href="#ab"/>
<use x="174.902344" xlink:href="#al"/>
</g>
</g>
<g clip-path="url(#a)">
<defs>
<path id="au" d="m32.172-5.0781q-3.7969-9.7656-7.4219-12.734-3.6094-2.9844-9.6562-2.9844h-7.1875v7.5156h5.2812q3.7031 0 5.75 1.7656 2.0625 1.75 4.5469 8.2969l1.6094 4.0938-22.109 53.812h9.5156l17.094-42.766 17.094 42.766h9.5156z"/>
</defs>
<g transform="translate(775.46 791.08) scale(.1 -.1)">
<use xlink:href="#ab"/>
<use x="77.001953" xlink:href="#e"/>
<use x="138.28125" xlink:href="#au"/>
</g>
</g>
<g clip-path="url(#a)">
<defs>
<path id="ak" d="m48.781 52.594v-8.4062q-3.8125 2.1094-7.6406 3.1562t-7.7344 1.0469q-8.75 0-13.594-5.5469-4.8281-5.5312-4.8281-15.547t4.8281-15.562q4.8438-5.5312 13.594-5.5312 3.9062 0 7.7344 1.0469t7.6406 3.1562v-8.3125q-3.7656-1.75-7.7969-2.625-4.0156-0.89062-8.5625-0.89062-12.359 0-19.641 7.7656-7.2656 7.7656-7.2656 20.953 0 13.375 7.3438 21.031 7.3594 7.6719 20.156 7.6719 4.1406 0 8.0938-0.85938 3.9531-0.84375 7.6719-2.5469z"/>
</defs>
<g transform="translate(804.24 791.08) scale(.1 -.1)">
<use xlink:href="#q"/>
<use x="69.824219" xlink:href="#v"/>
<use x="131.005859" xlink:href="#g"/>
<use x="194.384766" xlink:href="#aj"/>
<use x="229.589844" xlink:href="#d"/>
<use x="291.113281" xlink:href="#h"/>
<use x="332.195312" xlink:href="#d"/>
<use x="393.71875" xlink:href="#g"/>
<use x="457.097656" xlink:href="#ak"/>
<use x="512.078125" xlink:href="#d"/>
</g>
</g>
<g clip-path="url(#a)">
<g transform="translate(875.94 791.08) scale(.1 -.1)">
<use xlink:href="#i"/>
<use x="27.783203" xlink:href="#g"/>
</g>
</g>
<g clip-path="url(#a)">
<defs>
<path id="c" d="m12.406 8.2969h16.109v55.625l-17.531-3.5156v8.9844l17.438 3.5156h9.8594v-64.609h16.109v-8.2969h-41.984z"/>
<path id="s" d="m10.984 1.5156v8.9844q3.7188-1.7656 7.5156-2.6875 3.8125-0.92188 7.4844-0.92188 9.7656 0 14.906 6.5625 5.1562 6.5625 5.8906 19.953-2.8281-4.2031-7.1875-6.4531-4.3438-2.25-9.6094-2.25-10.938 0-17.312 6.6094-6.375 6.625-6.375 18.109 0 11.219 6.6406 18 6.6406 6.7969 17.672 6.7969 12.656 0 19.312-9.7031 6.6719-9.6875 6.6719-28.141 0-17.234-8.1875-27.516-8.1719-10.281-21.984-10.281-3.7188 0-7.5312 0.73438-3.7969 0.73438-7.9062 2.2031zm19.625 30.906q6.6406 0 10.516 4.5312 3.8906 4.5469 3.8906 12.469 0 7.8594-3.8906 12.422-3.875 4.5625-10.516 4.5625t-10.516-4.5625-3.875-12.422q0-7.9219 3.875-12.469 3.875-4.5312 10.516-4.5312z"/>
</defs>
<g transform="translate(915.36 791.08) scale(.1 -.1)">
<use xlink:href="#c"/>
<use x="63.623047" xlink:href="#s"/>
<use x="127.246094" xlink:href="#s"/>
<use x="190.869141" xlink:href="#s"/>
</g>
</g>
<g clip-path="url(#a)">
<defs>
<path id="ar" d="m11.719 12.406h10.297v-8.4062l-8-15.625h-6.2969l4 15.625z"/>
</defs>
<g transform="translate(974.08 791.08) scale(.1 -.1)">
<use xlink:href="#ar"/>
</g>
</g>
<g clip-path="url(#a)">
<g transform="translate(1013.8 791.08) scale(.1 -.1)">
<use xlink:href="#e"/>
<use x="61.279297" xlink:href="#g"/>
<use x="124.658203" xlink:href="#z"/>
</g>
</g>
<g clip-path="url(#a)">
<g transform="translate(1062 791.08) scale(.1 -.1)">
<use xlink:href="#ai"/>
<use x="63.378906" xlink:href="#e"/>
<use x="124.658203" xlink:href="#r"/>
</g>
</g>
<g clip-path="url(#a)">
<defs>
<path id="aw" d="m2.9844 54.688h9.5156l17.094-45.891 17.094 45.891h9.5156l-20.516-54.688h-12.203z"/>
</defs>
<g transform="translate(1101.5 791.08) scale(.1 -.1)">
<use xlink:href="#r"/>
<use x="52.099609" xlink:href="#d"/>
<use x="113.623047" xlink:href="#h"/>
<use x="154.736328" xlink:href="#aw"/>
<use x="213.916016" xlink:href="#d"/>
<use x="275.439453" xlink:href="#z"/>
</g>
</g>
<g clip-path="url(#a)">
<g transform="translate(1160.3 791.08) scale(.1 -.1)">
<use xlink:href="#e"/>
<use x="61.279297" xlink:href="#r"/>
</g>
</g>
<g clip-path="url(#a)">
<g transform="translate(1210.5 791.08) scale(.1 -.1)">
<use xlink:href="#e"/>
</g>
</g>
<g clip-path="url(#a)">
<g transform="translate(1244.7 791.08) scale(.1 -.1)">
<use xlink:href="#t"/>
<use x="73.193359" xlink:href="#g"/>
<use x="136.572266" xlink:href="#i"/>
<use x="164.355469" xlink:href="#w"/>
<use x="203.564453" xlink:href="#d"/>
<use x="265.087891" xlink:href="#z"/>
</g>
</g>
<g clip-path="url(#a)">
<g transform="translate(1289.8 791.08) scale(.1 -.1)">
<use xlink:href="#ae"/>
<use x="74.804688" xlink:href="#e"/>
<use x="136.083984" xlink:href="#w"/>
<use x="175.292969" xlink:href="#i"/>
<use x="203.076172" xlink:href="#v"/>
<use x="264.257812" xlink:href="#g"/>
<use x="327.636719" xlink:href="#r"/>
</g>
</g>
<g clip-path="url(#a)">
<defs>
<path id="ao" d="m9.8125 72.906h14.703l18.594-49.609 18.703 49.609h14.703v-72.906h-9.625v64.016l-18.797-50h-9.9062l-18.797 50v-64.016h-9.5781z"/>
<path id="az" d="m45.406 27.984q0 9.7656-4.0312 15.125-4.0156 5.375-11.297 5.375-7.2188 0-11.25-5.375-4.0312-5.3594-4.0312-15.125 0-9.7188 4.0312-15.094t11.25-5.375q7.2812 0 11.297 5.375 4.0312 5.375 4.0312 15.094zm8.9844-21.203q0-13.953-6.2031-20.766-6.1875-6.8125-18.984-6.8125-4.7344 0-8.9375 0.70312t-8.1562 2.1719v8.7344q3.9531-2.1406 7.8125-3.1562 3.8594-1.0312 7.8594-1.0312 8.8438 0 13.234 4.6094t4.3906 13.938v4.4531q-2.7812-4.8438-7.125-7.2344t-10.406-2.3906q-10.047 0-16.203 7.6562-6.1562 7.6719-6.1562 20.328 0 12.688 6.1562 20.344 6.1562 7.6719 16.203 7.6719 6.0625 0 10.406-2.3906t7.125-7.2188v8.2969h8.9844z"/>
</defs>
<g transform="translate(1329.2 791.08) scale(.1 -.1)">
<use xlink:href="#ao"/>
<use x="86.279297" xlink:href="#d"/>
<use x="147.802734" xlink:href="#r"/>
<use x="199.902344" xlink:href="#r"/>
<use x="252.001953" xlink:href="#d"/>
<use x="313.525391" xlink:href="#g"/>
<use x="376.904297" xlink:href="#az"/>
<use x="440.380859" xlink:href="#d"/>
<use x="501.904297" xlink:href="#h"/>
</g>
</g>
<g clip-path="url(#a)">
<g transform="translate(1399.1 791.08) scale(.1 -.1)">
<use xlink:href="#v"/>
<use x="61.181641" xlink:href="#aj"/>
</g>
</g>
<g clip-path="url(#a)">
<g transform="translate(1436.5 791.08) scale(.1 -.1)">
<use xlink:href="#am"/>
<use x="60.255859" xlink:href="#d"/>
<use x="121.779297" xlink:href="#e"/>
<use x="183.058594" xlink:href="#ak"/>
<use x="238.039062" xlink:href="#d"/>
</g>
</g>
<g clip-path="url(#a)">
<defs>
<path id="f" d="m10.688 12.406h10.312v-12.406h-10.312z"/>
</defs>
<g transform="translate(1497.5 791.08) scale(.1 -.1)">
<use xlink:href="#f"/>
</g>
</g>
<g clip-path="url(#a)">
<g transform="translate(780.9 41.11) scale(.1 -.1)">
<use xlink:href="#c"/>
<use x="63.623047" xlink:href="#f"/>
<use x="95.410156" xlink:href="#c"/>
</g>
</g>
<g clip-path="url(#a)">
<defs>
<path id="n" d="m19.188 8.2969h34.422v-8.2969h-46.281v8.2969q5.6094 5.8125 15.297 15.594 9.7031 9.7969 12.188 12.641 4.7344 5.3125 6.6094 9 1.8906 3.6875 1.8906 7.25 0 5.8125-4.0781 9.4688-4.0781 3.6719-10.625 3.6719-4.6406 0-9.7969-1.6094-5.1406-1.6094-11-4.8906v9.9688q5.9531 2.3906 11.125 3.6094 5.1875 1.2188 9.4844 1.2188 11.328 0 18.062-5.6719 6.7344-5.6562 6.7344-15.125 0-4.5-1.6875-8.5312-1.6719-4.0156-6.125-9.4844-1.2188-1.4219-7.7656-8.1875-6.5312-6.7656-18.453-18.922z"/>
</defs>
<g transform="translate(312.12 155.51) scale(.1 -.1)">
<use xlink:href="#c"/>
<use x="63.623047" xlink:href="#f"/>
<use x="95.410156" xlink:href="#n"/>
</g>
</g>
<g clip-path="url(#a)">
<defs>
<path id="m" d="m37.797 64.312-24.906-38.922h24.906zm-2.5938 8.5938h12.406v-47.516h10.406v-8.2031h-10.406v-17.188h-9.8125v17.188h-32.906v9.5156z"/>
</defs>
<g transform="translate(1015.3 688.37) scale(.1 -.1)">
<use xlink:href="#c"/>
<use x="63.623047" xlink:href="#f"/>
<use x="95.410156" xlink:href="#m"/>
</g>
</g>
<g clip-path="url(#a)">
<defs>
<path id="ad" d="m10.797 72.906h38.719v-8.3125h-29.688v-17.859q2.1406 0.73438 4.2812 1.0938 2.1562 0.35938 4.3125 0.35938 12.203 0 19.328-6.6875 7.1406-6.6875 7.1406-18.109 0-11.766-7.3281-18.297-7.3281-6.5156-20.656-6.5156-4.5938 0-9.3594 0.78125-4.75 0.78125-9.8281 2.3438v9.9219q4.3906-2.3906 9.0781-3.5625t9.9062-1.1719q8.4531 0 13.375 4.4375 4.9375 4.4375 4.9375 12.062 0 7.6094-4.9375 12.047-4.9219 4.4531-13.375 4.4531-3.9531 0-7.8906-0.875-3.9219-0.875-8.0156-2.7344z"/>
</defs>
<g transform="translate(828.49 375.39) scale(.1 -.1)">
<use xlink:href="#c"/>
<use x="63.623047" xlink:href="#f"/>
<use x="95.410156" xlink:href="#ad"/>
</g>
</g>
<g clip-path="url(#a)">
<defs>
<path id="ag" d="m8.2031 72.906h46.875v-4.2031l-26.469-68.703h-10.297l24.906 64.594h-35.016z"/>
</defs>
<g transform="translate(1086.7 585.66) scale(.1 -.1)">
<use xlink:href="#c"/>
<use x="63.623047" xlink:href="#f"/>
<use x="95.410156" xlink:href="#ag"/>
</g>
</g>
<g clip-path="url(#a)">
<defs>
<path id="y" d="m31.781 34.625q-7.0312 0-11.062-3.7656-4.0156-3.7656-4.0156-10.344 0-6.5938 4.0156-10.359 4.0312-3.7656 11.062-3.7656t11.078 3.7812q4.0625 3.7969 4.0625 10.344 0 6.5781-4.0312 10.344-4.0156 3.7656-11.109 3.7656zm-9.8594 4.1875q-6.3438 1.5625-9.8906 5.9062-3.5312 4.3594-3.5312 10.609 0 8.7344 6.2188 13.812 6.2344 5.0781 17.062 5.0781 10.891 0 17.094-5.0781t6.2031-13.812q0-6.25-3.5469-10.609-3.5312-4.3438-9.8281-5.9062 7.125-1.6562 11.094-6.5 3.9844-4.8281 3.9844-11.797 0-10.609-6.4688-16.281-6.4688-5.6562-18.531-5.6562-12.047 0-18.531 5.6562-6.4688 5.6719-6.4688 16.281 0 6.9688 4 11.797 4.0156 4.8438 11.141 6.5zm-3.6094 15.578q0-5.6562 3.5312-8.8281 3.5469-3.1719 9.9375-3.1719 6.3594 0 9.9375 3.1719 3.5938 3.1719 3.5938 8.8281 0 5.6719-3.5938 8.8438-3.5781 3.1719-9.9375 3.1719-6.3906 0-9.9375-3.1719-3.5312-3.1719-3.5312-8.8438z"/>
</defs>
<g transform="translate(1335.2 481.53) scale(.1 -.1)">
<use xlink:href="#c"/>
<use x="63.623047" xlink:href="#f"/>
<use x="95.410156" xlink:href="#y"/>
</g>
</g>
<g clip-path="url(#a)">
<g transform="translate(1213.6 585.66) scale(.1 -.1)">
<use xlink:href="#c"/>
<use x="63.623047" xlink:href="#f"/>
<use x="95.410156" xlink:href="#s"/>
</g>
</g>
<g clip-path="url(#a)">
<g transform="translate(1345.2 688.37) scale(.1 -.1)">
<use xlink:href="#c"/>
<use x="63.623047" xlink:href="#f"/>
<use x="95.410156" xlink:href="#c"/>
<use x="159.033203" xlink:href="#c"/>
</g>
</g>
<g clip-path="url(#a)">
<g transform="translate(1440.4 585.66) scale(.1 -.1)">
<use xlink:href="#c"/>
<use x="63.623047" xlink:href="#f"/>
<use x="95.410156" xlink:href="#c"/>
<use x="159.033203" xlink:href="#n"/>
</g>
</g>
<g clip-path="url(#a)">
<defs>
<path id="p" d="m40.578 39.312q7.0781-1.5156 11.047-6.3125 3.9844-4.7812 3.9844-11.812 0-10.781-7.4219-16.703-7.4219-5.9062-21.094-5.9062-4.5781 0-9.4375 0.90625t-10.031 2.7188v9.5156q4.0938-2.3906 8.9688-3.6094 4.8906-1.2188 10.219-1.2188 9.2656 0 14.125 3.6562t4.8594 10.641q0 6.4531-4.5156 10.078-4.5156 3.6406-12.562 3.6406h-8.5v8.1094h8.8906q7.2656 0 11.125 2.9062t3.8594 8.375q0 5.6094-3.9844 8.6094-3.9688 3.0156-11.391 3.0156-4.0625 0-8.7031-0.89062-4.6406-0.875-10.203-2.7188v8.7812q5.625 1.5625 10.531 2.3438t9.25 0.78125q11.234 0 17.766-5.1094 6.5469-5.0938 6.5469-13.781 0-6.0625-3.4688-10.234t-9.8594-5.7812z"/>
</defs>
<g transform="translate(1392.8 688.37) scale(.1 -.1)">
<use xlink:href="#c"/>
<use x="63.623047" xlink:href="#f"/>
<use x="95.410156" xlink:href="#c"/>
<use x="159.033203" xlink:href="#p"/>
</g>
</g>
<g clip-path="url(#a)">
<g transform="translate(1440.4 688.37) scale(.1 -.1)">
<use xlink:href="#c"/>
<use x="63.623047" xlink:href="#f"/>
<use x="95.410156" xlink:href="#c"/>
<use x="159.033203" xlink:href="#m"/>
</g>
</g>
<g clip-path="url(#a)">
<g transform="translate(1154.9 688.37) scale(.1 -.1)">
<use xlink:href="#c"/>
<use x="63.623047" xlink:href="#f"/>
<use x="95.410156" xlink:href="#c"/>
<use x="159.033203" xlink:href="#ad"/>
</g>
</g>
<g clip-path="url(#a)">
<defs>
<path id="ac" d="m33.016 40.375q-6.6406 0-10.531-4.5469-3.875-4.5312-3.875-12.438 0-7.8594 3.875-12.438 3.8906-4.5625 10.531-4.5625t10.516 4.5625q3.875 4.5781 3.875 12.438 0 7.9062-3.875 12.438-3.875 4.5469-10.516 4.5469zm19.578 30.922v-8.9844q-3.7188 1.75-7.5 2.6719-3.7812 0.9375-7.5 0.9375-9.7656 0-14.922-6.5938-5.1406-6.5938-5.875-19.922 2.875 4.25 7.2188 6.5156 4.3594 2.2656 9.5781 2.2656 10.984 0 17.359-6.6719 6.375-6.6562 6.375-18.125 0-11.234-6.6406-18.031-6.6406-6.7812-17.672-6.7812-12.656 0-19.344 9.6875-6.6875 9.7031-6.6875 28.109 0 17.281 8.2031 27.562t22.016 10.281q3.7188 0 7.5-0.73438t7.8906-2.1875z"/>
</defs>
<g transform="translate(1202.5 688.37) scale(.1 -.1)">
<use xlink:href="#c"/>
<use x="63.623047" xlink:href="#f"/>
<use x="95.410156" xlink:href="#c"/>
<use x="159.033203" xlink:href="#ac"/>
</g>
</g>
<g clip-path="url(#a)">
<g transform="translate(1273.8 688.37) scale(.1 -.1)">
<use xlink:href="#c"/>
<use x="63.623047" xlink:href="#f"/>
<use x="95.410156" xlink:href="#c"/>
<use x="159.033203" xlink:href="#ag"/>
</g>
</g>
<g clip-path="url(#a)">
<g transform="translate(1059.7 688.37) scale(.1 -.1)">
<use xlink:href="#c"/>
<use x="63.623047" xlink:href="#f"/>
<use x="95.410156" xlink:href="#c"/>
<use x="159.033203" xlink:href="#y"/>
</g>
</g>
<g clip-path="url(#a)">
<g transform="translate(1107.3 688.37) scale(.1 -.1)">
<use xlink:href="#c"/>
<use x="63.623047" xlink:href="#f"/>
<use x="95.410156" xlink:href="#c"/>
<use x="159.033203" xlink:href="#s"/>
</g>
</g>
<g clip-path="url(#a)">
<defs>
<path id="ah" d="m31.781 66.406q-7.6094 0-11.453-7.5-3.8281-7.4844-3.8281-22.531 0-14.984 3.8281-22.484 3.8438-7.5 11.453-7.5 7.6719 0 11.5 7.5 3.8438 7.5 3.8438 22.484 0 15.047-3.8438 22.531-3.8281 7.5-11.5 7.5zm0 7.8125q12.266 0 18.734-9.7031 6.4688-9.6875 6.4688-28.141 0-18.406-6.4688-28.109-6.4688-9.6875-18.734-9.6875-12.25 0-18.719 9.6875-6.4688 9.7031-6.4688 28.109 0 18.453 6.4688 28.141 6.4688 9.7031 18.719 9.7031z"/>
</defs>
<g transform="translate(60.45 688.37) scale(.1 -.1)">
<use xlink:href="#c"/>
<use x="63.623047" xlink:href="#f"/>
<use x="95.410156" xlink:href="#n"/>
<use x="159.033203" xlink:href="#ah"/>
</g>
</g>
<g clip-path="url(#a)">
<g transform="translate(108.03 688.37) scale(.1 -.1)">
<use xlink:href="#c"/>
<use x="63.623047" xlink:href="#f"/>
<use x="95.410156" xlink:href="#n"/>
<use x="159.033203" xlink:href="#c"/>
</g>
</g>
<g clip-path="url(#a)">
<g transform="translate(155.62 688.37) scale(.1 -.1)">
<use xlink:href="#c"/>
<use x="63.623047" xlink:href="#f"/>
<use x="95.410156" xlink:href="#n"/>
<use x="159.033203" xlink:href="#n"/>
</g>
</g>
<g clip-path="url(#a)">
<g transform="translate(327.41 266.83) scale(.1 -.1)">
<use xlink:href="#c"/>
<use x="63.623047" xlink:href="#f"/>
<use x="95.410156" xlink:href="#n"/>
<use x="159.033203" xlink:href="#p"/>
</g>
</g>
<g clip-path="url(#a)">
<g transform="translate(893.16 585.66) scale(.1 -.1)">
<use xlink:href="#c"/>
<use x="63.623047" xlink:href="#f"/>
<use x="95.410156" xlink:href="#n"/>
<use x="159.033203" xlink:href="#m"/>
</g>
</g>
<g clip-path="url(#a)">
<g transform="translate(869.37 688.37) scale(.1 -.1)">
<use xlink:href="#c"/>
<use x="63.623047" xlink:href="#f"/>
<use x="95.410156" xlink:href="#n"/>
<use x="159.033203" xlink:href="#ad"/>
</g>
</g>
<g clip-path="url(#a)">
<g transform="translate(916.95 688.37) scale(.1 -.1)">
<use xlink:href="#c"/>
<use x="63.623047" xlink:href="#f"/>
<use x="95.410156" xlink:href="#n"/>
<use x="159.033203" xlink:href="#ac"/>
</g>
</g>
<g clip-path="url(#a)">
<g transform="translate(557.3 375.39) scale(.1 -.1)">
<use xlink:href="#c"/>
<use x="63.623047" xlink:href="#f"/>
<use x="95.410156" xlink:href="#n"/>
<use x="159.033203" xlink:href="#y"/>
</g>
</g>
<g clip-path="url(#a)">
<g transform="translate(345.95 688.37) scale(.1 -.1)">
<use xlink:href="#c"/>
<use x="63.623047" xlink:href="#f"/>
<use x="95.410156" xlink:href="#n"/>
<use x="159.033203" xlink:href="#s"/>
</g>
</g>
<g clip-path="url(#a)">
<g transform="translate(393.53 688.37) scale(.1 -.1)">
<use xlink:href="#c"/>
<use x="63.623047" xlink:href="#f"/>
<use x="95.410156" xlink:href="#p"/>
<use x="159.033203" xlink:href="#ah"/>
</g>
</g>
<g clip-path="url(#a)">
<g transform="translate(667.93 481.53) scale(.1 -.1)">
<use xlink:href="#c"/>
<use x="63.623047" xlink:href="#f"/>
<use x="95.410156" xlink:href="#p"/>
<use x="159.033203" xlink:href="#c"/>
</g>
</g>
<g clip-path="url(#a)">
<g transform="translate(821.78 688.37) scale(.1 -.1)">
<use xlink:href="#c"/>
<use x="63.623047" xlink:href="#f"/>
<use x="95.410156" xlink:href="#p"/>
<use x="159.033203" xlink:href="#n"/>
</g>
</g>
<g clip-path="url(#a)">
<g transform="translate(528.35 585.66) scale(.1 -.1)">
<use xlink:href="#c"/>
<use x="63.623047" xlink:href="#f"/>
<use x="95.410156" xlink:href="#p"/>
<use x="159.033203" xlink:href="#p"/>
</g>
</g>
<g clip-path="url(#a)">
<g transform="translate(679.03 688.37) scale(.1 -.1)">
<use xlink:href="#c"/>
<use x="63.623047" xlink:href="#f"/>
<use x="95.410156" xlink:href="#p"/>
<use x="159.033203" xlink:href="#ac"/>
</g>
</g>
<g clip-path="url(#a)">
<g transform="translate(726.62 688.37) scale(.1 -.1)">
<use xlink:href="#c"/>
<use x="63.623047" xlink:href="#f"/>
<use x="95.410156" xlink:href="#p"/>
<use x="159.033203" xlink:href="#y"/>
</g>
</g>
<g clip-path="url(#a)">
<g transform="translate(774.2 688.37) scale(.1 -.1)">
<use xlink:href="#c"/>
<use x="63.623047" xlink:href="#f"/>
<use x="95.410156" xlink:href="#p"/>
<use x="159.033203" xlink:href="#s"/>
</g>
</g>
<g clip-path="url(#a)">
<g transform="translate(464.91 688.37) scale(.1 -.1)">
<use xlink:href="#c"/>
<use x="63.623047" xlink:href="#f"/>
<use x="95.410156" xlink:href="#m"/>
<use x="159.033203" xlink:href="#ah"/>
</g>
</g>
<g clip-path="url(#a)">
<g transform="translate(536.28 688.37) scale(.1 -.1)">
<use xlink:href="#c"/>
<use x="63.623047" xlink:href="#f"/>
<use x="95.410156" xlink:href="#m"/>
<use x="159.033203" xlink:href="#c"/>
</g>
</g>
<g clip-path="url(#a)">
<g transform="translate(583.87 688.37) scale(.1 -.1)">
<use xlink:href="#c"/>
<use x="63.623047" xlink:href="#f"/>
<use x="95.410156" xlink:href="#m"/>
<use x="159.033203" xlink:href="#n"/>
</g>
</g>
<g clip-path="url(#a)">
<g transform="translate(203.2 688.37) scale(.1 -.1)">
<use xlink:href="#c"/>
<use x="63.623047" xlink:href="#f"/>
<use x="95.410156" xlink:href="#m"/>
<use x="159.033203" xlink:href="#p"/>
</g>
</g>
<g clip-path="url(#a)">
<g transform="translate(250.78 688.37) scale(.1 -.1)">
<use xlink:href="#c"/>
<use x="63.623047" xlink:href="#f"/>
<use x="95.410156" xlink:href="#m"/>
<use x="159.033203" xlink:href="#m"/>
</g>
</g>
<g clip-path="url(#a)">
<g transform="translate(298.37 688.37) scale(.1 -.1)">
<use xlink:href="#c"/>
<use x="63.623047" xlink:href="#f"/>
<use x="95.410156" xlink:href="#m"/>
<use x="159.033203" xlink:href="#ad"/>
</g>
</g>
<g clip-path="url(#a)">
<g transform="translate(715.45 41.11) scale(.1 -.1)">
<use xlink:href="#c"/>
<use x="63.623047" xlink:href="#f"/>
<use x="95.410156" xlink:href="#m"/>
<use x="159.033203" xlink:href="#ac"/>
</g>
</g>
<g clip-path="url(#a)">
<g transform="translate(631.45 688.37) scale(.1 -.1)">
<use xlink:href="#c"/>
<use x="63.623047" xlink:href="#f"/>
<use x="95.410156" xlink:href="#m"/>
<use x="159.033203" xlink:href="#ag"/>
</g>
</g>
<g clip-path="url(#a)">
<g transform="translate(964.53 688.37) scale(.1 -.1)">
<use xlink:href="#c"/>
<use x="63.623047" xlink:href="#f"/>
<use x="95.410156" xlink:href="#m"/>
<use x="159.033203" xlink:href="#y"/>
</g>
</g>
<g clip-path="url(#a)">
<g transform="translate(1488 688.37) scale(.1 -.1)">
<use xlink:href="#c"/>
<use x="63.623047" xlink:href="#f"/>
<use x="95.410156" xlink:href="#m"/>
<use x="159.033203" xlink:href="#s"/>
</g>
</g>
<defs>
<clipPath id="a">
<rect width="1570.7" height="826.67"/>
</clipPath>
</defs>
</svg>
