<?xml version="1.0" encoding="UTF-8"?>
<!DOCTYPE svg  PUBLIC '-//W3C//DTD SVG 1.1//EN'  'http://www.w3.org/Graphics/SVG/1.1/DTD/svg11.dtd'>
<svg width="1925.3pt" height="1013.3pt" version="1.1" viewBox="0 0 1925.3 1013.3" xmlns="http://www.w3.org/2000/svg" xmlns:xlink="http://www.w3.org/1999/xlink">
<defs>
<style type="text/css">*{stroke-linecap:butt;stroke-linejoin:round;white-space:pre;}</style>
</defs>
<path d="m0 1013.3h1925.3v-1013.3h-1925.3z" fill="#fff"/>
<g fill="none" stroke="#000">
<path d="m938.38 46.975-474.6 161.03" clip-path="url(#a)"/>
<path d="m938.38 46.975 47.938 770.81" clip-path="url(#a)"/>
<path d="m938.38 46.975-251.61 318.07" clip-path="url(#a)"/>
<path d="m938.38 46.975 379.02 770.81" clip-path="url(#a)"/>
<path d="m938.38 46.975 298.61 471.61" clip-path="url(#a)"/>
<path d="m938.38 46.975 0.64048 770.81" clip-path="url(#a)"/>
<path d="m463.78 208.01-295.31 157.04" clip-path="url(#a)"/>
<path d="m463.78 208.01 49.564 609.78" clip-path="url(#a)"/>
<path d="m463.78 208.01 243.48 310.57" clip-path="url(#a)"/>
<path d="m463.78 208.01 2.2663 609.78" clip-path="url(#a)"/>
<path d="m986.32 817.79v148.57" clip-path="url(#a)"/>
<path d="m686.77 365.04 346.85 452.74" clip-path="url(#a)"/>
<path d="m686.77 365.04 204.95 153.54" clip-path="url(#a)"/>
<path d="m686.77 365.04-551.8 452.74" clip-path="url(#a)" stroke-dasharray="3.7,1.6"/>
<path d="m1317.4 817.79v148.57" clip-path="url(#a)"/>
<path d="m1237 518.58 127.7 299.21" clip-path="url(#a)"/>
<path d="m1237 518.58 175 299.21" clip-path="url(#a)"/>
<path d="m1237 518.58 293.24 150.64" clip-path="url(#a)"/>
<path d="m1237 518.58 506.08 150.64" clip-path="url(#a)"/>
<path d="m1237 518.58-1102 299.21" clip-path="url(#a)" stroke-dasharray="3.7,1.6"/>
<path d="m1364.7 817.79v148.57" clip-path="url(#a)"/>
<path d="m1412 817.79v148.57" clip-path="url(#a)"/>
<path d="m1530.2 669.22-70.946 148.57" clip-path="url(#a)"/>
<path d="m1530.2 669.22-23.649 148.57" clip-path="url(#a)"/>
<path d="m1530.2 669.22 23.649 148.57" clip-path="url(#a)"/>
<path d="m1530.2 669.22 70.946 148.57" clip-path="url(#a)"/>
<path d="m1743.1 669.22-94.594 148.57" clip-path="url(#a)"/>
<path d="m1743.1 669.22-47.297 148.57" clip-path="url(#a)"/>
<path d="m1743.1 669.22v148.57" clip-path="url(#a)"/>
<path d="m1743.1 669.22 47.297 148.57" clip-path="url(#a)"/>
<path d="m1743.1 669.22 94.594 148.57" clip-path="url(#a)"/>
<path d="m1648.5 817.79v148.57" clip-path="url(#a)"/>
<path d="m1695.8 817.79v148.57" clip-path="url(#a)"/>
<path d="m1743.1 817.79v148.57" clip-path="url(#a)"/>
<path d="m1790.4 817.79v148.57" clip-path="url(#a)"/>
<path d="m1459.3 817.79v148.57" clip-path="url(#a)"/>
<path d="m1506.6 817.79v148.57" clip-path="url(#a)"/>
<path d="m1553.9 817.79v148.57" clip-path="url(#a)"/>
<path d="m1601.2 817.79v148.57" clip-path="url(#a)"/>
<path d="m1033.6 817.79v148.57" clip-path="url(#a)"/>
<path d="m891.72 518.58 189.19 299.21" clip-path="url(#a)"/>
<path d="m891.72 518.58 236.49 299.21" clip-path="url(#a)"/>
<path d="m891.72 518.58 331.08 150.64" clip-path="url(#a)"/>
<path d="m891.72 518.58-756.76 299.21" clip-path="url(#a)" stroke-dasharray="3.7,1.6"/>
<path d="m1080.9 817.79v148.57" clip-path="url(#a)"/>
<path d="m1128.2 817.79v148.57" clip-path="url(#a)"/>
<path d="m1222.8 669.22-47.297 148.57" clip-path="url(#a)"/>
<path d="m1222.8 669.22v148.57" clip-path="url(#a)"/>
<path d="m1222.8 669.22 47.297 148.57" clip-path="url(#a)"/>
<path d="m1175.5 817.79v148.57" clip-path="url(#a)"/>
<path d="m1222.8 817.79v148.57" clip-path="url(#a)"/>
<path d="m1270.1 817.79v148.57" clip-path="url(#a)"/>
<path d="m168.47 365.04-80.799 452.74" clip-path="url(#a)"/>
<path d="m168.47 365.04-33.502 452.74" clip-path="url(#a)"/>
<path d="m168.47 365.04 100.51 153.54" clip-path="url(#a)"/>
<path d="m168.47 365.04 13.795 452.74" clip-path="url(#a)"/>
<path d="m513.34 817.79v148.57" clip-path="url(#a)"/>
<path d="m707.26 518.58-146.62 299.21" clip-path="url(#a)"/>
<path d="m707.26 518.58-4.7297 150.64" clip-path="url(#a)"/>
<path d="m707.26 518.58 89.865 299.21" clip-path="url(#a)"/>
<path d="m707.26 518.58 160.81 150.64" clip-path="url(#a)"/>
<path d="m707.26 518.58-99.324 299.21" clip-path="url(#a)"/>
<path d="m560.64 817.79v148.57" clip-path="url(#a)"/>
<path d="m702.53 669.22-47.297 297.14" clip-path="url(#a)"/>
<path d="m702.53 669.22 47.297 297.14" clip-path="url(#a)"/>
<path d="m702.53 669.22v148.57" clip-path="url(#a)"/>
<path d="m797.13 817.79v148.57" clip-path="url(#a)"/>
<path d="m868.07 669.22-23.649 148.57" clip-path="url(#a)"/>
<path d="m868.07 669.22 23.649 148.57" clip-path="url(#a)"/>
<path d="m844.42 817.79v148.57" clip-path="url(#a)"/>
<path d="m891.72 817.79v148.57" clip-path="url(#a)"/>
<path d="m87.668 817.79v148.57" clip-path="url(#a)"/>
<path d="m134.97 817.79v148.57" clip-path="url(#a)"/>
<path d="m268.97 518.58-134.01 299.21" clip-path="url(#a)" stroke-dasharray="3.7,1.6"/>
<path d="m268.97 518.58 7.8829 150.64" clip-path="url(#a)"/>
<path d="m268.97 518.58 126.13 150.64" clip-path="url(#a)"/>
<path d="m276.86 669.22-47.297 148.57" clip-path="url(#a)"/>
<path d="m276.86 669.22v148.57" clip-path="url(#a)"/>
<path d="m276.86 669.22 47.297 148.57" clip-path="url(#a)"/>
<path d="m395.1 669.22-23.649 148.57" clip-path="url(#a)"/>
<path d="m395.1 669.22 23.649 148.57" clip-path="url(#a)"/>
<path d="m371.45 817.79v148.57" clip-path="url(#a)"/>
<path d="m418.75 817.79v148.57" clip-path="url(#a)"/>
<path d="m229.56 817.79v148.57" clip-path="url(#a)"/>
<path d="m276.86 817.79v148.57" clip-path="url(#a)"/>
<path d="m324.15 817.79v148.57" clip-path="url(#a)"/>
<path d="m1080.4 208.01-393.62 157.04" clip-path="url(#a)"/>
<path d="m1080.4 208.01 237.01 609.78" clip-path="url(#a)"/>
<path d="m1080.4 208.01 156.61 310.57" clip-path="url(#a)"/>
<path d="m712.29 46.975-248.51 161.03" clip-path="url(#a)"/>
<path d="m712.29 46.975 274.03 770.81" clip-path="url(#a)"/>
<path d="m712.29 46.975-25.521 318.07" clip-path="url(#a)"/>
<path d="m182.26 817.79v148.57" clip-path="url(#a)"/>
<path d="m466.05 817.79v148.57" clip-path="url(#a)"/>
<path d="m607.94 817.79v148.57" clip-path="url(#a)"/>
<path d="m702.53 817.79v148.57" clip-path="url(#a)"/>
<path d="m939.02 817.79v148.57" clip-path="url(#a)"/>
<path d="m1837.7 817.79v148.57" clip-path="url(#a)"/>
</g>
<path d="m700.25 134.4 5.6972-1.9331q2.2727-0.77115 1.5016-3.0439l-2.4878-7.3319q-0.77115-2.2727-3.0439-1.5016l-5.6972 1.9331q-2.2727 0.77115-1.5016 3.0439l2.4878 7.3319q0.77115 2.2727 3.0439 1.5016z" clip-path="url(#a)" fill="#fff" stroke="#fff"/>
<g clip-path="url(#a)">
<defs>
<path id="al" d="m9.8125 72.906h9.8594v-29.891h35.844v29.891h9.8594v-72.906h-9.8594v34.719h-35.844v-34.719h-9.8594z"/>
</defs>
<g transform="translate(698.94 130.55) rotate(-18.742) scale(.08 -.08)">
<use xlink:href="#al"/>
</g>
</g>
<path d="m955.95 430.55 0.27668 4.4489q0.14897 2.3954 2.5443 2.2464l7.7276-0.48059q2.3954-0.14897 2.2464-2.5443l-0.27668-4.4489q-0.14897-2.3954-2.5443-2.2464l-7.7276 0.48059q-2.3954 0.14897-2.2464 2.5443z" clip-path="url(#a)" fill="#fff" stroke="#fff"/>
<g clip-path="url(#a)">
<defs>
<path id="v" d="m9.8125 72.906h9.8594v-64.609h35.5v-8.2969h-45.359z"/>
</defs>
<g transform="translate(960 430.29) rotate(86.441) scale(.08 -.08)">
<use xlink:href="#v"/>
</g>
</g>
<path d="m815.62 212.26 3.7325-4.7184q1.489-1.8823-0.39328-3.3713l-6.0723-4.8035q-1.8823-1.489-3.3713 0.39328l-3.7325 4.7184q-1.489 1.8823 0.39328 3.3712l6.0723 4.8035q1.8823 1.489 3.3712-0.39328z" clip-path="url(#a)" fill="#fff" stroke="#fff"/>
<g clip-path="url(#a)">
<g transform="translate(812.44 209.74) rotate(-51.654) scale(.08 -.08)">
<use xlink:href="#al"/>
</g>
</g>
<path d="m1121.3 433.15 1.9669 4.0001q1.059 2.1537 3.2127 1.0947l6.948-3.4164q2.1537-1.059 1.0947-3.2127l-1.9669-4.0001q-1.059-2.1537-3.2127-1.0947l-6.948 3.4164q-2.1537 1.059-1.0947 3.2127z" clip-path="url(#a)" fill="#fff" stroke="#fff"/>
<g clip-path="url(#a)">
<g transform="translate(1124.9 431.36) rotate(63.816) scale(.08 -.08)">
<use xlink:href="#v"/>
</g>
</g>
<path d="m1080.8 283.59 3.2185 5.083q1.2839 2.0277 3.3116 0.7438l6.5415-4.1419q2.0277-1.2839 0.7438-3.3116l-3.2185-5.083q-1.2839-2.0277-3.3116-0.7438l-6.5415 4.1419q-2.0277 1.2839-0.7438 3.3116z" clip-path="url(#a)" fill="#fff" stroke="#fff"/>
<g clip-path="url(#a)">
<g transform="translate(1084.2 281.42) rotate(57.659) scale(.08 -.08)">
<use xlink:href="#al"/>
</g>
</g>
<path d="m932.42 429.46 0.004865 5.855q0.001994 2.4 2.402 2.398l7.7425-0.006433q2.4-0.001994 2.398-2.402l-0.004865-5.855q-0.001994-2.4-2.402-2.398l-7.7425 0.006434q-2.4 0.001994-2.398 2.402z" clip-path="url(#a)" fill="#fff" stroke="#fff"/>
<g clip-path="url(#a)">
<defs>
<path id="y" d="m8.6875 72.906h9.9219v-44.297q0-11.719 4.2344-16.875 4.25-5.1406 13.781-5.1406 9.4688 0 13.719 5.1406 4.25 5.1562 4.25 16.875v44.297h9.9062v-45.516q0-14.25-7.0625-21.531-7.0469-7.2812-20.812-7.2812-13.828 0-20.891 7.2812-7.0469 7.2812-7.0469 21.531z"/>
</defs>
<g transform="translate(936.49 429.46) rotate(89.952) scale(.08 -.08)">
<use xlink:href="#y"/>
</g>
</g>
<path d="m316.65 293.35 4.8318-2.5694q2.119-1.1268 0.99221-3.2458l-3.6352-6.8361q-1.1268-2.119-3.2458-0.99221l-4.8318 2.5694q-2.119 1.1268-0.99221 3.2458l3.6352 6.8361q1.1268 2.119 3.2458 0.99221z" clip-path="url(#a)" fill="#fff" stroke="#fff"/>
<g clip-path="url(#a)">
<defs>
<path id="o" d="m34.188 63.188-13.391-36.281h26.812zm-5.5781 9.7188h11.188l27.781-72.906h-10.25l-6.6406 18.703h-32.859l-6.6406-18.703h-10.406z"/>
</defs>
<g transform="translate(314.74 289.76) rotate(-28.002) scale(.08 -.08)">
<use xlink:href="#o"/>
</g>
</g>
<path d="m482.12 511 0.39079 4.8079q0.19443 2.3921 2.5865 2.1977l7.717-0.62725q2.3921-0.19443 2.1977-2.5865l-0.39079-4.8079q-0.19443-2.3921-2.5865-2.1977l-7.7171 0.62725q-2.3921 0.19443-2.1977 2.5865z" clip-path="url(#a)" fill="#fff" stroke="#fff"/>
<g clip-path="url(#a)">
<defs>
<path id="ae" d="m19.672 64.797v-27.391h12.406q6.8906 0 10.641 3.5625 3.7656 3.5625 3.7656 10.156 0 6.5469-3.7656 10.109-3.75 3.5625-10.641 3.5625zm-9.8594 8.1094h22.266q12.266 0 18.531-5.5469 6.2812-5.5469 6.2812-16.234 0-10.797-6.2812-16.312-6.2656-5.5156-18.531-5.5156h-12.406v-29.297h-9.8594z"/>
</defs>
<g transform="translate(486.17 510.67) rotate(85.353) scale(.08 -.08)">
<use xlink:href="#ae"/>
</g>
</g>
<path d="m578.9 365.01 3.3764 4.3068q1.4807 1.8888 3.3695 0.40802l6.0932-4.7769q1.8888-1.4807 0.40802-3.3695l-3.3764-4.3068q-1.4807-1.8888-3.3695-0.40802l-6.0932 4.7769q-1.8888 1.4807-0.40802 3.3695z" clip-path="url(#a)" fill="#fff" stroke="#fff"/>
<g clip-path="url(#a)">
<g transform="translate(582.1 362.5) rotate(51.904) scale(.08 -.08)">
<use xlink:href="#o"/>
</g>
</g>
<path d="m458.63 509.99 0.02176 5.855q0.00892 2.4 2.4089 2.3911l7.7424-0.028776q2.4-0.00892 2.3911-2.4089l-0.021761-5.855q-0.00892-2.4-2.4089-2.3911l-7.7424 0.028775q-2.4 0.00892-2.3911 2.4089z" clip-path="url(#a)" fill="#fff" stroke="#fff"/>
<g clip-path="url(#a)">
<g transform="translate(462.69 509.98) rotate(89.787) scale(.08 -.08)">
<use xlink:href="#y"/>
</g>
</g>
<path d="m980.04 874.43v35.285q0 2.4 2.4 2.4h7.7425q2.4 0 2.4-2.4v-35.285q0-2.4-2.4-2.4h-7.7425q-2.4 0-2.4 2.4z" clip-path="url(#a)" fill="#fff" stroke="#fff"/>
<g clip-path="url(#a)">
<defs>
<path id="k" d="m-0.29688 72.906h61.672v-8.3125h-25.875v-64.594h-9.9062v64.594h-25.891z"/>
<path id="d" d="m56.203 29.594v-4.3906h-41.312q0.59375-9.2812 5.5938-14.141t13.938-4.8594q5.1719 0 10.031 1.2656t9.6562 3.8125v-8.5q-4.8438-2.0469-9.9219-3.125t-10.297-1.0781q-13.094 0-20.734 7.6094-7.6406 7.625-7.6406 20.625 0 13.422 7.25 21.297 7.25 7.8906 19.562 7.8906 11.031 0 17.453-7.1094 6.4219-7.0938 6.4219-19.297zm-8.9844 2.6406q-0.09375 7.3594-4.125 11.75-4.0312 4.4062-10.672 4.4062-7.5156 0-12.031-4.25t-5.2031-11.969z"/>
<path id="i" d="m41.109 46.297q-1.5156 0.875-3.2969 1.2812-1.7812 0.42188-3.9219 0.42188-7.625 0-11.703-4.9531t-4.0781-14.234v-28.812h-9.0312v54.688h9.0312v-8.5q2.8438 4.9844 7.375 7.3906 4.5469 2.4219 11.047 2.4219 0.92188 0 2.0469-0.125 1.125-0.10938 2.4844-0.35938z"/>
<path id="l" d="m52 44.188q3.375 6.0625 8.0625 8.9375t11.031 2.875q8.5469 0 13.188-5.9844 4.6406-5.9688 4.6406-17v-33.016h-9.0312v32.719q0 7.8594-2.7969 11.656-2.7812 3.8125-8.4844 3.8125-6.9844 0-11.047-4.6406-4.0469-4.625-4.0469-12.641v-30.906h-9.0312v32.719q0 7.9062-2.7812 11.688t-8.5938 3.7812q-6.8906 0-10.953-4.6562-4.0469-4.6562-4.0469-12.625v-30.906h-9.0312v54.688h9.0312v-8.5q3.0781 5.0312 7.375 7.4219t10.203 2.3906q5.9688 0 10.141-3.0312 4.1719-3.0156 6.1719-8.7812z"/>
<path id="h" d="m9.4219 54.688h8.9844v-54.688h-8.9844zm0 21.297h8.9844v-11.391h-8.9844z"/>
<path id="g" d="m54.891 33.016v-33.016h-8.9844v32.719q0 7.7656-3.0312 11.609-3.0312 3.8594-9.0781 3.8594-7.2812 0-11.484-4.6406-4.2031-4.625-4.2031-12.641v-30.906h-9.0312v54.688h9.0312v-8.5q3.2344 4.9375 7.5938 7.375 4.375 2.4375 10.094 2.4375 9.4219 0 14.25-5.8281 4.8438-5.8281 4.8438-17.156z"/>
<path id="e" d="m34.281 27.484q-10.891 0-15.094-2.4844t-4.2031-8.5q0-4.7812 3.1562-7.5938 3.1562-2.7969 8.5625-2.7969 7.4844 0 12 5.2969t4.5156 14.078v2zm17.922 3.7188v-31.203h-8.9844v8.2969q-3.0781-4.9688-7.6719-7.3438t-11.234-2.375q-8.3906 0-13.359 4.7188-4.9531 4.7188-4.9531 12.625 0 9.2188 6.1719 13.906 6.1875 4.6875 18.438 4.6875h12.609v0.89062q0 6.2031-4.0781 9.5938t-11.453 3.3906q-4.6875 0-9.1406-1.125-4.4375-1.125-8.5312-3.375v8.3125q4.9219 1.9062 9.5625 2.8438 4.6406 0.95312 9.0312 0.95312 11.875 0 17.734-6.1562 5.8594-6.1406 5.8594-18.641z"/>
<path id="j" d="m9.4219 75.984h8.9844v-75.984h-8.9844z"/>
</defs>
<g transform="translate(984.11 874.43) rotate(90) scale(.08 -.08)">
<use xlink:href="#k"/>
<use x="60.818359" xlink:href="#d"/>
<use x="122.341797" xlink:href="#i"/>
<use x="163.439453" xlink:href="#l"/>
<use x="260.851562" xlink:href="#h"/>
<use x="288.634766" xlink:href="#g"/>
<use x="352.013672" xlink:href="#e"/>
<use x="413.292969" xlink:href="#j"/>
</g>
</g>
<path d="m853.74 593.32 2.9335 3.8292q1.4596 1.9052 3.3647 0.44563l6.1462-4.7086q1.9052-1.4596 0.44563-3.3647l-2.9335-3.8292q-1.4596-1.9052-3.3647-0.44563l-6.1462 4.7086q-1.9052 1.4596-0.44563 3.3647z" clip-path="url(#a)" fill="#fff" stroke="#fff"/>
<g clip-path="url(#a)">
<g transform="translate(856.97 590.84) rotate(52.544) scale(.08 -.08)">
<use xlink:href="#ae"/>
</g>
</g>
<path d="m783.29 445.19 4.3798 3.2811q1.9208 1.4389 3.3597-0.48187l4.642-6.1966q1.4389-1.9208-0.48187-3.3597l-4.3798-3.2811q-1.9208-1.4389-3.3597 0.48187l-4.642 6.1966q-1.4389 1.9208 0.48187 3.3597z" clip-path="url(#a)" fill="#fff" stroke="#fff"/>
<g clip-path="url(#a)">
<g transform="translate(785.73 441.94) rotate(36.838) scale(.08 -.08)">
<use xlink:href="#o"/>
</g>
</g>
<path d="m412.73 598 4.2307-3.4712q1.8554-1.5223 0.33307-3.3777l-4.9111-5.9856q-1.5223-1.8554-3.3777-0.33307l-4.2307 3.4712q-1.8554 1.5223-0.33307 3.3777l4.9111 5.9856q1.5223 1.8554 3.3777 0.33307z" clip-path="url(#a)" fill="#fff" stroke="#fff"/>
<g clip-path="url(#a)">
<g transform="translate(410.15 594.86) rotate(-39.368) scale(.08 -.08)">
<use xlink:href="#o"/>
</g>
</g>
<path d="m1311.1 874.43v35.285q0 2.4 2.4 2.4h7.7425q2.4 0 2.4-2.4v-35.285q0-2.4-2.4-2.4h-7.7425q-2.4 0-2.4 2.4z" clip-path="url(#a)" fill="#fff" stroke="#fff"/>
<g clip-path="url(#a)">
<g transform="translate(1315.2 874.43) rotate(90) scale(.08 -.08)">
<use xlink:href="#k"/>
<use x="60.818359" xlink:href="#d"/>
<use x="122.341797" xlink:href="#i"/>
<use x="163.439453" xlink:href="#l"/>
<use x="260.851562" xlink:href="#h"/>
<use x="288.634766" xlink:href="#g"/>
<use x="352.013672" xlink:href="#e"/>
<use x="413.292969" xlink:href="#j"/>
</g>
</g>
<path d="m1294.2 668.53 1.8062 4.2319q0.94211 2.2074 3.1495 1.2653l7.121-3.0393q2.2074-0.94211 1.2653-3.1495l-1.8062-4.2319q-0.94211-2.2074-3.1495-1.2653l-7.121 3.0393q-2.2074 0.94211-1.2653 3.1495z" clip-path="url(#a)" fill="#fff" stroke="#fff"/>
<g clip-path="url(#a)">
<defs>
<path id="am" d="m9.8125 72.906h41.891v-8.3125h-32.031v-21.484h28.906v-8.2969h-28.906v-34.812h-9.8594z"/>
</defs>
<g transform="translate(1297.9 666.94) rotate(66.887) scale(.08 -.08)">
<use xlink:href="#am"/>
</g>
</g>
<path d="m1317.9 669.27 2.4353 4.1639q1.2117 2.0717 3.2834 0.86l6.6833-3.9089q2.0717-1.2117 0.86-3.2834l-2.4353-4.1639q-1.2117-2.0717-3.2834-0.86l-6.6833 3.9089q-2.0717 1.2117-0.86 3.2834z" clip-path="url(#a)" fill="#fff" stroke="#fff"/>
<g clip-path="url(#a)">
<g transform="translate(1321.4 667.22) rotate(59.678) scale(.08 -.08)">
<use xlink:href="#ae"/>
</g>
</g>
<path d="m1378.3 598.23 4.8678 2.5006q2.1348 1.0966 3.2314-1.0382l3.5378-6.887q1.0966-2.1348-1.0382-3.2314l-4.8678-2.5006q-2.1348-1.0966-3.2314 1.0382l-3.5378 6.887q-1.0966 2.1348 1.0382 3.2314z" clip-path="url(#a)" fill="#fff" stroke="#fff"/>
<g clip-path="url(#a)">
<g transform="translate(1380.2 594.61) rotate(27.189) scale(.08 -.08)">
<use xlink:href="#o"/>
</g>
</g>
<path d="m1485.6 599.13 5.2451 1.5612q2.3003 0.68468 2.9849-1.6156l2.2088-7.4207q0.68468-2.3003-1.6156-2.9849l-5.2451-1.5612q-2.3003-0.68468-2.9849 1.6156l-2.2088 7.4207q-0.68468 2.3003 1.6156 2.9849z" clip-path="url(#a)" fill="#fff" stroke="#fff"/>
<g clip-path="url(#a)">
<g transform="translate(1486.8 595.24) rotate(16.576) scale(.08 -.08)">
<use xlink:href="#o"/>
</g>
</g>
<path d="m684.98 674.95 5.2813-1.4339q2.3161-0.62885 1.6873-2.945l-2.0287-7.472q-0.62885-2.3161-2.945-1.6873l-5.2813 1.4339q-2.3162 0.62885-1.6873 2.945l2.0287 7.472q0.62885 2.3161 2.945 1.6873z" clip-path="url(#a)" fill="#fff" stroke="#fff"/>
<g clip-path="url(#a)">
<g transform="translate(683.92 671.03) rotate(-15.19) scale(.08 -.08)">
<use xlink:href="#o"/>
</g>
</g>
<path d="m1358.4 874.43v35.285q0 2.4 2.4 2.4h7.7425q2.4 0 2.4-2.4v-35.285q0-2.4-2.4-2.4h-7.7425q-2.4 0-2.4 2.4z" clip-path="url(#a)" fill="#fff" stroke="#fff"/>
<g clip-path="url(#a)">
<g transform="translate(1362.5 874.43) rotate(90) scale(.08 -.08)">
<use xlink:href="#k"/>
<use x="60.818359" xlink:href="#d"/>
<use x="122.341797" xlink:href="#i"/>
<use x="163.439453" xlink:href="#l"/>
<use x="260.851562" xlink:href="#h"/>
<use x="288.634766" xlink:href="#g"/>
<use x="352.013672" xlink:href="#e"/>
<use x="413.292969" xlink:href="#j"/>
</g>
</g>
<path d="m1405.7 874.43v35.285q0 2.4 2.4 2.4h7.7425q2.4 0 2.4-2.4v-35.285q0-2.4-2.4-2.4h-7.7425q-2.4 0-2.4 2.4z" clip-path="url(#a)" fill="#fff" stroke="#fff"/>
<g clip-path="url(#a)">
<g transform="translate(1409.8 874.43) rotate(90) scale(.08 -.08)">
<use xlink:href="#k"/>
<use x="60.818359" xlink:href="#d"/>
<use x="122.341797" xlink:href="#i"/>
<use x="163.439453" xlink:href="#l"/>
<use x="260.851562" xlink:href="#h"/>
<use x="288.634766" xlink:href="#g"/>
<use x="352.013672" xlink:href="#e"/>
<use x="413.292969" xlink:href="#j"/>
</g>
</g>
<path d="m1499.2 748.71 2.3953-5.0162q1.0342-2.1657-1.1315-3.1999l-6.9868-3.3364q-2.1657-1.0342-3.1999 1.1315l-2.3953 5.0162q-1.0342 2.1657 1.1315 3.1999l6.9868 3.3364q2.1657 1.0342 3.1999-1.1315z" clip-path="url(#a)" fill="#fff" stroke="#fff"/>
<g clip-path="url(#a)">
<defs>
<path id="ad" d="m44.391 34.188q3.1719-1.0781 6.1719-4.5938t6.0312-9.6719l10.016-19.922h-10.609l-9.3125 18.703q-3.625 7.3281-7.0156 9.7188t-9.25 2.3906h-10.75v-30.812h-9.8594v72.906h22.266q12.5 0 18.656-5.2344 6.1562-5.2188 6.1562-15.766 0-6.8906-3.2031-11.438-3.2031-4.5312-9.2969-6.2812zm-24.719 30.609v-25.875h12.406q7.125 0 10.766 3.2969t3.6406 9.6875-3.6406 9.6406-10.766 3.25z"/>
</defs>
<g transform="translate(1495.6 746.96) rotate(-64.474) scale(.08 -.08)">
<use xlink:href="#ad"/>
</g>
</g>
<path d="m1524.2 746.99 0.79462-4.9922q0.37727-2.3702-1.9929-2.7474l-7.6462-1.2171q-2.3702-0.37727-2.7474 1.9929l-0.79462 4.9922q-0.37727 2.3702 1.9929 2.7474l7.6462 1.2171q2.3702 0.37727 2.7474-1.9929z" clip-path="url(#a)" fill="#fff" stroke="#fff"/>
<g clip-path="url(#a)">
<defs>
<path id="w" d="m9.8125 72.906h46.094v-8.3125h-36.234v-21.578h34.719v-8.2969h-34.719v-26.422h37.109v-8.2969h-46.969z"/>
</defs>
<g transform="translate(1520.2 746.35) rotate(-80.956) scale(.08 -.08)">
<use xlink:href="#w"/>
</g>
</g>
<path d="m1535.5 741.99 0.79462 4.9922q0.37727 2.3702 2.7474 1.9929l7.6462-1.2171q2.3702-0.37727 1.9929-2.7474l-0.79462-4.9922q-0.37727-2.3702-2.7474-1.9929l-7.6462 1.2171q-2.3702 0.37727-1.9929 2.7474z" clip-path="url(#a)" fill="#fff" stroke="#fff"/>
<g clip-path="url(#a)">
<g transform="translate(1539.5 741.35) rotate(80.956) scale(.08 -.08)">
<use xlink:href="#w"/>
</g>
</g>
<path d="m1558.8 743.69 2.4072 5.041q1.0342 2.1657 3.1999 1.1315l6.9868-3.3364q2.1657-1.0342 1.1315-3.1999l-2.4072-5.041q-1.0342-2.1657-3.1999-1.1315l-6.9868 3.3364q-2.1657 1.0342-1.1315 3.1999z" clip-path="url(#a)" fill="#fff" stroke="#fff"/>
<g clip-path="url(#a)">
<defs>
<path id="t" d="m64.406 67.281v-10.391q-4.9844 4.6406-10.625 6.9219-5.6406 2.2969-11.984 2.2969-12.5 0-19.141-7.6406t-6.6406-22.094q0-14.406 6.6406-22.047t19.141-7.6406q6.3438 0 11.984 2.2969t10.625 6.9375v-10.312q-5.1719-3.5156-10.969-5.2812-5.7812-1.75-12.219-1.75-16.562 0-26.094 10.125-9.5156 10.141-9.5156 27.672 0 17.578 9.5156 27.703 9.5312 10.141 26.094 10.141 6.5312 0 12.312-1.7344 5.7969-1.7344 10.875-5.2031z"/>
</defs>
<g transform="translate(1562.5 741.93) rotate(64.474) scale(.08 -.08)">
<use xlink:href="#t"/>
</g>
</g>
<path d="m1699.6 749.22 2.9855-4.689q1.289-2.0245-0.7355-3.3135l-6.5311-4.1583q-2.0245-1.289-3.3135 0.7355l-2.9855 4.689q-1.289 2.0245 0.7355 3.3135l6.5311 4.1583q2.0245 1.289 3.3135-0.7355z" clip-path="url(#a)" fill="#fff" stroke="#fff"/>
<g clip-path="url(#a)">
<g transform="translate(1696.1 747.03) rotate(-57.515) scale(.08 -.08)">
<use xlink:href="#ad"/>
</g>
</g>
<path d="m1724.7 747.6 1.3958-4.3844q0.72804-2.2869-1.5589-3.0149l-7.3777-2.3487q-2.2869-0.72804-3.0149 1.5589l-1.3958 4.3844q-0.72804 2.2869 1.5589 3.0149l7.3777 2.3487q2.2869 0.72804 3.0149-1.5589z" clip-path="url(#a)" fill="#fff" stroke="#fff"/>
<g clip-path="url(#a)">
<g transform="translate(1720.8 746.37) rotate(-72.341) scale(.08 -.08)">
<use xlink:href="#am"/>
</g>
</g>
<path d="m1736.8 740.98v5.055q0 2.4 2.4 2.4h7.7425q2.4 0 2.4-2.4v-5.055q0-2.4-2.4-2.4h-7.7425q-2.4 0-2.4 2.4z" clip-path="url(#a)" fill="#fff" stroke="#fff"/>
<g clip-path="url(#a)">
<g transform="translate(1740.9 740.98) rotate(90) scale(.08 -.08)">
<use xlink:href="#w"/>
</g>
</g>
<path d="m1759.9 742.74 1.6946 5.323q0.72804 2.2869 3.0149 1.5589l7.3777-2.3487q2.2869-0.72804 1.5589-3.0149l-1.6946-5.323q-0.72804-2.2869-3.0149-1.5589l-7.3777 2.3487q-2.2869 0.72804-1.5589 3.0149z" clip-path="url(#a)" fill="#fff" stroke="#fff"/>
<g clip-path="url(#a)">
<g transform="translate(1763.8 741.51) rotate(72.341) scale(.08 -.08)">
<use xlink:href="#t"/>
</g>
</g>
<path d="m1783.5 744.4 3.1446 4.9389q1.289 2.0245 3.3135 0.7355l6.5311-4.1583q2.0245-1.289 0.7355-3.3135l-3.1446-4.9389q-1.289-2.0245-3.3135-0.7355l-6.5311 4.1583q-2.0245 1.289-0.7355 3.3135z" clip-path="url(#a)" fill="#fff" stroke="#fff"/>
<g clip-path="url(#a)">
<g transform="translate(1786.9 742.22) rotate(57.515) scale(.08 -.08)">
<use xlink:href="#y"/>
</g>
</g>
<path d="m1642.2 874.43v35.285q0 2.4 2.4 2.4h7.7425q2.4 0 2.4-2.4v-35.285q0-2.4-2.4-2.4h-7.7425q-2.4 0-2.4 2.4z" clip-path="url(#a)" fill="#fff" stroke="#fff"/>
<g clip-path="url(#a)">
<g transform="translate(1646.3 874.43) rotate(90) scale(.08 -.08)">
<use xlink:href="#k"/>
<use x="60.818359" xlink:href="#d"/>
<use x="122.341797" xlink:href="#i"/>
<use x="163.439453" xlink:href="#l"/>
<use x="260.851562" xlink:href="#h"/>
<use x="288.634766" xlink:href="#g"/>
<use x="352.013672" xlink:href="#e"/>
<use x="413.292969" xlink:href="#j"/>
</g>
</g>
<path d="m1689.5 874.43v35.285q0 2.4 2.4 2.4h7.7425q2.4 0 2.4-2.4v-35.285q0-2.4-2.4-2.4h-7.7425q-2.4 0-2.4 2.4z" clip-path="url(#a)" fill="#fff" stroke="#fff"/>
<g clip-path="url(#a)">
<g transform="translate(1693.6 874.43) rotate(90) scale(.08 -.08)">
<use xlink:href="#k"/>
<use x="60.818359" xlink:href="#d"/>
<use x="122.341797" xlink:href="#i"/>
<use x="163.439453" xlink:href="#l"/>
<use x="260.851562" xlink:href="#h"/>
<use x="288.634766" xlink:href="#g"/>
<use x="352.013672" xlink:href="#e"/>
<use x="413.292969" xlink:href="#j"/>
</g>
</g>
<path d="m1736.8 874.43v35.285q0 2.4 2.4 2.4h7.7425q2.4 0 2.4-2.4v-35.285q0-2.4-2.4-2.4h-7.7425q-2.4 0-2.4 2.4z" clip-path="url(#a)" fill="#fff" stroke="#fff"/>
<g clip-path="url(#a)">
<g transform="translate(1740.9 874.43) rotate(90) scale(.08 -.08)">
<use xlink:href="#k"/>
<use x="60.818359" xlink:href="#d"/>
<use x="122.341797" xlink:href="#i"/>
<use x="163.439453" xlink:href="#l"/>
<use x="260.851562" xlink:href="#h"/>
<use x="288.634766" xlink:href="#g"/>
<use x="352.013672" xlink:href="#e"/>
<use x="413.292969" xlink:href="#j"/>
</g>
</g>
<path d="m1784.1 874.43v35.285q0 2.4 2.4 2.4h7.7425q2.4 0 2.4-2.4v-35.285q0-2.4-2.4-2.4h-7.7425q-2.4 0-2.4 2.4z" clip-path="url(#a)" fill="#fff" stroke="#fff"/>
<g clip-path="url(#a)">
<g transform="translate(1788.2 874.43) rotate(90) scale(.08 -.08)">
<use xlink:href="#k"/>
<use x="60.818359" xlink:href="#d"/>
<use x="122.341797" xlink:href="#i"/>
<use x="163.439453" xlink:href="#l"/>
<use x="260.851562" xlink:href="#h"/>
<use x="288.634766" xlink:href="#g"/>
<use x="352.013672" xlink:href="#e"/>
<use x="413.292969" xlink:href="#j"/>
</g>
</g>
<path d="m1453 874.43v35.285q0 2.4 2.4 2.4h7.7425q2.4 0 2.4-2.4v-35.285q0-2.4-2.4-2.4h-7.7425q-2.4 0-2.4 2.4z" clip-path="url(#a)" fill="#fff" stroke="#fff"/>
<g clip-path="url(#a)">
<g transform="translate(1457.1 874.43) rotate(90) scale(.08 -.08)">
<use xlink:href="#k"/>
<use x="60.818359" xlink:href="#d"/>
<use x="122.341797" xlink:href="#i"/>
<use x="163.439453" xlink:href="#l"/>
<use x="260.851562" xlink:href="#h"/>
<use x="288.634766" xlink:href="#g"/>
<use x="352.013672" xlink:href="#e"/>
<use x="413.292969" xlink:href="#j"/>
</g>
</g>
<path d="m1500.3 874.43v35.285q0 2.4 2.4 2.4h7.7425q2.4 0 2.4-2.4v-35.285q0-2.4-2.4-2.4h-7.7425q-2.4 0-2.4 2.4z" clip-path="url(#a)" fill="#fff" stroke="#fff"/>
<g clip-path="url(#a)">
<g transform="translate(1504.4 874.43) rotate(90) scale(.08 -.08)">
<use xlink:href="#k"/>
<use x="60.818359" xlink:href="#d"/>
<use x="122.341797" xlink:href="#i"/>
<use x="163.439453" xlink:href="#l"/>
<use x="260.851562" xlink:href="#h"/>
<use x="288.634766" xlink:href="#g"/>
<use x="352.013672" xlink:href="#e"/>
<use x="413.292969" xlink:href="#j"/>
</g>
</g>
<path d="m1547.6 874.43v35.285q0 2.4 2.4 2.4h7.7425q2.4 0 2.4-2.4v-35.285q0-2.4-2.4-2.4h-7.7425q-2.4 0-2.4 2.4z" clip-path="url(#a)" fill="#fff" stroke="#fff"/>
<g clip-path="url(#a)">
<g transform="translate(1551.7 874.43) rotate(90) scale(.08 -.08)">
<use xlink:href="#k"/>
<use x="60.818359" xlink:href="#d"/>
<use x="122.341797" xlink:href="#i"/>
<use x="163.439453" xlink:href="#l"/>
<use x="260.851562" xlink:href="#h"/>
<use x="288.634766" xlink:href="#g"/>
<use x="352.013672" xlink:href="#e"/>
<use x="413.292969" xlink:href="#j"/>
</g>
</g>
<path d="m1594.9 874.43v35.285q0 2.4 2.4 2.4h7.7425q2.4 0 2.4-2.4v-35.285q0-2.4-2.4-2.4h-7.7425q-2.4 0-2.4 2.4z" clip-path="url(#a)" fill="#fff" stroke="#fff"/>
<g clip-path="url(#a)">
<g transform="translate(1599 874.43) rotate(90) scale(.08 -.08)">
<use xlink:href="#k"/>
<use x="60.818359" xlink:href="#d"/>
<use x="122.341797" xlink:href="#i"/>
<use x="163.439453" xlink:href="#l"/>
<use x="260.851562" xlink:href="#h"/>
<use x="288.634766" xlink:href="#g"/>
<use x="352.013672" xlink:href="#e"/>
<use x="413.292969" xlink:href="#j"/>
</g>
</g>
<path d="m1027.3 874.43v35.285q0 2.4 2.4 2.4h7.7425q2.4 0 2.4-2.4v-35.285q0-2.4-2.4-2.4h-7.7425q-2.4 0-2.4 2.4z" clip-path="url(#a)" fill="#fff" stroke="#fff"/>
<g clip-path="url(#a)">
<g transform="translate(1031.4 874.43) rotate(90) scale(.08 -.08)">
<use xlink:href="#k"/>
<use x="60.818359" xlink:href="#d"/>
<use x="122.341797" xlink:href="#i"/>
<use x="163.439453" xlink:href="#l"/>
<use x="260.851562" xlink:href="#h"/>
<use x="288.634766" xlink:href="#g"/>
<use x="352.013672" xlink:href="#e"/>
<use x="413.292969" xlink:href="#j"/>
</g>
</g>
<path d="m979.79 669.59 2.459 3.889q1.2826 2.0285 3.3111 0.74588l6.5441-4.1378q2.0285-1.2826 0.74588-3.3111l-2.459-3.889q-1.2826-2.0285-3.3111-0.74588l-6.5441 4.1378q-2.0285 1.2826-0.74588 3.3111z" clip-path="url(#a)" fill="#fff" stroke="#fff"/>
<g clip-path="url(#a)">
<g transform="translate(983.22 667.42) rotate(57.695) scale(.08 -.08)">
<use xlink:href="#am"/>
</g>
</g>
<path d="m1003.5 670.18 2.9911 3.7844q1.4882 1.8829 3.3711 0.3947l6.0743-4.801q1.8829-1.4882 0.3947-3.3711l-2.9911-3.7844q-1.4882-1.8829-3.3711-0.3947l-6.0743 4.801q-1.8829 1.4882-0.3947 3.3711z" clip-path="url(#a)" fill="#fff" stroke="#fff"/>
<g clip-path="url(#a)">
<g transform="translate(1006.7 667.66) rotate(51.678) scale(.08 -.08)">
<use xlink:href="#ae"/>
</g>
</g>
<path d="m1052.2 598.47 4.9812 2.2664q2.1845 0.99392 3.1784-1.1906l3.2064-7.0473q0.99392-2.1845-1.1906-3.1784l-4.9812-2.2664q-2.1845-0.99392-3.1784 1.1906l-3.2064 7.0473q-0.99392 2.1845 1.1906 3.1784z" clip-path="url(#a)" fill="#fff" stroke="#fff"/>
<g clip-path="url(#a)">
<g transform="translate(1053.9 594.78) rotate(24.465) scale(.08 -.08)">
<use xlink:href="#o"/>
</g>
</g>
<path d="m513.1 675.02 5.0892-2.0122q2.2319-0.88244 1.3494-3.1143l-2.8468-7.2001q-0.88244-2.2319-3.1143-1.3494l-5.0892 2.0122q-2.2319 0.88244-1.3494 3.1143l2.8468 7.2001q0.88244 2.2319 3.1143 1.3494z" clip-path="url(#a)" fill="#fff" stroke="#fff"/>
<g clip-path="url(#a)">
<g transform="translate(511.61 671.24) rotate(-21.573) scale(.08 -.08)">
<use xlink:href="#o"/>
</g>
</g>
<path d="m1074.6 874.43v35.285q0 2.4 2.4 2.4h7.7425q2.4 0 2.4-2.4v-35.285q0-2.4-2.4-2.4h-7.7425q-2.4 0-2.4 2.4z" clip-path="url(#a)" fill="#fff" stroke="#fff"/>
<g clip-path="url(#a)">
<g transform="translate(1078.7 874.43) rotate(90) scale(.08 -.08)">
<use xlink:href="#k"/>
<use x="60.818359" xlink:href="#d"/>
<use x="122.341797" xlink:href="#i"/>
<use x="163.439453" xlink:href="#l"/>
<use x="260.851562" xlink:href="#h"/>
<use x="288.634766" xlink:href="#g"/>
<use x="352.013672" xlink:href="#e"/>
<use x="413.292969" xlink:href="#j"/>
</g>
</g>
<path d="m1121.9 874.43v35.285q0 2.4 2.4 2.4h7.7425q2.4 0 2.4-2.4v-35.285q0-2.4-2.4-2.4h-7.7425q-2.4 0-2.4 2.4z" clip-path="url(#a)" fill="#fff" stroke="#fff"/>
<g clip-path="url(#a)">
<g transform="translate(1126 874.43) rotate(90) scale(.08 -.08)">
<use xlink:href="#k"/>
<use x="60.818359" xlink:href="#d"/>
<use x="122.341797" xlink:href="#i"/>
<use x="163.439453" xlink:href="#l"/>
<use x="260.851562" xlink:href="#h"/>
<use x="288.634766" xlink:href="#g"/>
<use x="352.013672" xlink:href="#e"/>
<use x="413.292969" xlink:href="#j"/>
</g>
</g>
<path d="m1204.4 747.81 1.5334-4.8168q0.72804-2.2869-1.5589-3.0149l-7.3777-2.3487q-2.2869-0.72804-3.0149 1.5589l-1.5334 4.8168q-0.72804 2.2869 1.5589 3.0149l7.3777 2.3487q2.2869 0.72804 3.0149-1.5589z" clip-path="url(#a)" fill="#fff" stroke="#fff"/>
<g clip-path="url(#a)">
<g transform="translate(1200.5 746.58) rotate(-72.341) scale(.08 -.08)">
<use xlink:href="#w"/>
</g>
</g>
<path d="m1216.5 740.98v5.055q0 2.4 2.4 2.4h7.7425q2.4 0 2.4-2.4v-5.055q0-2.4-2.4-2.4h-7.7425q-2.4 0-2.4 2.4z" clip-path="url(#a)" fill="#fff" stroke="#fff"/>
<g clip-path="url(#a)">
<g transform="translate(1220.6 740.98) rotate(90) scale(.08 -.08)">
<use xlink:href="#w"/>
</g>
</g>
<path d="m1239.6 742.74 1.6946 5.323q0.72804 2.2869 3.0149 1.5589l7.3777-2.3487q2.2869-0.72804 1.5589-3.0149l-1.6946-5.323q-0.72804-2.2869-3.0149-1.5589l-7.3777 2.3487q-2.2869 0.72804-1.5589 3.0149z" clip-path="url(#a)" fill="#fff" stroke="#fff"/>
<g clip-path="url(#a)">
<g transform="translate(1243.5 741.51) rotate(72.341) scale(.08 -.08)">
<use xlink:href="#t"/>
</g>
</g>
<path d="m1169.2 874.43v35.285q0 2.4 2.4 2.4h7.7425q2.4 0 2.4-2.4v-35.285q0-2.4-2.4-2.4h-7.7425q-2.4 0-2.4 2.4z" clip-path="url(#a)" fill="#fff" stroke="#fff"/>
<g clip-path="url(#a)">
<g transform="translate(1173.3 874.43) rotate(90) scale(.08 -.08)">
<use xlink:href="#k"/>
<use x="60.818359" xlink:href="#d"/>
<use x="122.341797" xlink:href="#i"/>
<use x="163.439453" xlink:href="#l"/>
<use x="260.851562" xlink:href="#h"/>
<use x="288.634766" xlink:href="#g"/>
<use x="352.013672" xlink:href="#e"/>
<use x="413.292969" xlink:href="#j"/>
</g>
</g>
<path d="m1216.5 874.43v35.285q0 2.4 2.4 2.4h7.7425q2.4 0 2.4-2.4v-35.285q0-2.4-2.4-2.4h-7.7425q-2.4 0-2.4 2.4z" clip-path="url(#a)" fill="#fff" stroke="#fff"/>
<g clip-path="url(#a)">
<g transform="translate(1220.6 874.43) rotate(90) scale(.08 -.08)">
<use xlink:href="#k"/>
<use x="60.818359" xlink:href="#d"/>
<use x="122.341797" xlink:href="#i"/>
<use x="163.439453" xlink:href="#l"/>
<use x="260.851562" xlink:href="#h"/>
<use x="288.634766" xlink:href="#g"/>
<use x="352.013672" xlink:href="#e"/>
<use x="413.292969" xlink:href="#j"/>
</g>
</g>
<path d="m1263.8 874.43v35.285q0 2.4 2.4 2.4h7.7425q2.4 0 2.4-2.4v-35.285q0-2.4-2.4-2.4h-7.7425q-2.4 0-2.4 2.4z" clip-path="url(#a)" fill="#fff" stroke="#fff"/>
<g clip-path="url(#a)">
<g transform="translate(1267.9 874.43) rotate(90) scale(.08 -.08)">
<use xlink:href="#k"/>
<use x="60.818359" xlink:href="#d"/>
<use x="122.341797" xlink:href="#i"/>
<use x="163.439453" xlink:href="#l"/>
<use x="260.851562" xlink:href="#h"/>
<use x="288.634766" xlink:href="#g"/>
<use x="352.013672" xlink:href="#e"/>
<use x="413.292969" xlink:href="#j"/>
</g>
</g>
<path d="m133.8 595.01 0.88811-4.9764q0.42166-2.3627-1.941-2.7843l-7.6221-1.3603q-2.3627-0.42166-2.7843 1.941l-0.88811 4.9764q-0.42166 2.3627 1.941 2.7843l7.6221 1.3603q2.3627 0.42166 2.7843-1.941z" clip-path="url(#a)" fill="#fff" stroke="#fff"/>
<g clip-path="url(#a)">
<g transform="translate(129.8 594.29) rotate(-79.881) scale(.08 -.08)">
<use xlink:href="#w"/>
</g>
</g>
<path d="m157.76 594.66 0.41224-5.571q0.17711-2.3935-2.2163-2.5706l-7.7214-0.57137q-2.3935-0.17711-2.5706 2.2163l-0.41224 5.571q-0.17711 2.3935 2.2163 2.5706l7.7214 0.57137q2.3935 0.17711 2.5706-2.2163z" clip-path="url(#a)" fill="#fff" stroke="#fff"/>
<g clip-path="url(#a)">
<g transform="translate(153.71 594.36) rotate(-85.768) scale(.08 -.08)">
<use xlink:href="#t"/>
</g>
</g>
<path d="m212.09 443.13 2.7686 4.2294q1.3145 2.008 3.3225 0.69356l6.478-4.2405q2.008-1.3145 0.69356-3.3225l-2.7686-4.2294q-1.3145-2.008-3.3225-0.69356l-6.478 4.2405q-2.008 1.3145-0.69356 3.3225z" clip-path="url(#a)" fill="#fff" stroke="#fff"/>
<g clip-path="url(#a)">
<g transform="translate(215.49 440.91) rotate(56.791) scale(.08 -.08)">
<use xlink:href="#w"/>
</g>
</g>
<path d="m169.01 588.68 0.17832 5.8523q0.073093 2.3989 2.472 2.3258l7.7389-0.2358q2.3989-0.073093 2.3258-2.472l-0.17832-5.8523q-0.073094-2.3989-2.472-2.3258l-7.7389 0.2358q-2.3989 0.073093-2.3258 2.472z" clip-path="url(#a)" fill="#fff" stroke="#fff"/>
<g clip-path="url(#a)">
<g transform="translate(173.07 588.56) rotate(88.255) scale(.08 -.08)">
<use xlink:href="#y"/>
</g>
</g>
<path d="m507.07 874.43v35.285q0 2.4 2.4 2.4h7.7425q2.4 0 2.4-2.4v-35.285q0-2.4-2.4-2.4h-7.7425q-2.4 0-2.4 2.4z" clip-path="url(#a)" fill="#fff" stroke="#fff"/>
<g clip-path="url(#a)">
<g transform="translate(511.14 874.43) rotate(90) scale(.08 -.08)">
<use xlink:href="#k"/>
<use x="60.818359" xlink:href="#d"/>
<use x="122.341797" xlink:href="#i"/>
<use x="163.439453" xlink:href="#l"/>
<use x="260.851562" xlink:href="#h"/>
<use x="288.634766" xlink:href="#g"/>
<use x="352.013672" xlink:href="#e"/>
<use x="413.292969" xlink:href="#j"/>
</g>
</g>
<path d="m638.35 673.45 2.4582-5.0163q1.0561-2.1551-1.0991-3.2112l-6.9526-3.407q-2.1551-1.0561-3.2112 1.0991l-2.4582 5.0163q-1.0561 2.1551 1.0991 3.2112l6.9526 3.407q2.1551 1.0561 3.2112-1.0991z" clip-path="url(#a)" fill="#fff" stroke="#fff"/>
<g clip-path="url(#a)">
<g transform="translate(634.7 671.66) rotate(-63.894) scale(.08 -.08)">
<use xlink:href="#t"/>
</g>
</g>
<path d="m711.08 596.89 0.17531-5.5835q0.075318-2.3988-2.3235-2.4741l-7.7387-0.24298q-2.3988-0.075319-2.4741 2.3235l-0.17531 5.5835q-0.075318 2.3988 2.3235 2.4741l7.7387 0.24298q2.3988 0.075318 2.4741-2.3235z" clip-path="url(#a)" fill="#fff" stroke="#fff"/>
<g clip-path="url(#a)">
<g transform="translate(707.02 596.76) rotate(-88.202) scale(.08 -.08)">
<use xlink:href="#t"/>
</g>
</g>
<path d="m745.33 667.12 1.7216 5.732q0.69036 2.2986 2.9889 1.6082l7.4153-2.2271q2.2986-0.69036 1.6082-2.9889l-1.7216-5.732q-0.69036-2.2986-2.9889-1.6082l-7.4153 2.2271q-2.2986 0.69036-1.6082 2.9889z" clip-path="url(#a)" fill="#fff" stroke="#fff"/>
<g clip-path="url(#a)">
<defs>
<path id="ar" d="m9.8125 72.906h13.281l32.328-60.984v60.984h9.5625v-72.906h-13.281l-32.312 60.984v-60.984h-9.5781z"/>
</defs>
<g transform="translate(749.22 665.95) rotate(73.283) scale(.08 -.08)">
<use xlink:href="#ar"/>
</g>
</g>
<path d="m781.34 596.57 4.0769 3.819q1.7516 1.6407 3.3923-0.11081l5.2931-5.6506q1.6407-1.7516-0.11081-3.3923l-4.0769-3.819q-1.7516-1.6407-3.3923 0.11081l-5.2931 5.6506q-1.6407 1.7516 0.11081 3.3923z" clip-path="url(#a)" fill="#fff" stroke="#fff"/>
<g clip-path="url(#a)">
<g transform="translate(784.12 593.6) rotate(43.129) scale(.08 -.08)">
<use xlink:href="#t"/>
</g>
</g>
<path d="m662.63 672.94 1.8446-5.5568q0.75613-2.2778-1.5217-3.0339l-7.3482-2.4393q-2.2778-0.75613-3.0339 1.5217l-1.8446 5.5568q-0.75613 2.2778 1.5217 3.0339l7.3482 2.4393q2.2778 0.75613 3.0339-1.5217z" clip-path="url(#a)" fill="#fff" stroke="#fff"/>
<g clip-path="url(#a)">
<g transform="translate(658.77 671.66) rotate(-71.636) scale(.08 -.08)">
<use xlink:href="#y"/>
</g>
</g>
<path d="m554.37 874.43v35.285q0 2.4 2.4 2.4h7.7425q2.4 0 2.4-2.4v-35.285q0-2.4-2.4-2.4h-7.7425q-2.4 0-2.4 2.4z" clip-path="url(#a)" fill="#fff" stroke="#fff"/>
<g clip-path="url(#a)">
<g transform="translate(558.43 874.43) rotate(90) scale(.08 -.08)">
<use xlink:href="#k"/>
<use x="60.818359" xlink:href="#d"/>
<use x="122.341797" xlink:href="#i"/>
<use x="163.439453" xlink:href="#l"/>
<use x="260.851562" xlink:href="#h"/>
<use x="288.634766" xlink:href="#g"/>
<use x="352.013672" xlink:href="#e"/>
<use x="413.292969" xlink:href="#j"/>
</g>
</g>
<path d="m682.3 836.2 5.5467-34.846q0.37727-2.3702-1.9929-2.7474l-7.6462-1.2171q-2.3702-0.37727-2.7474 1.9929l-5.5467 34.846q-0.37727 2.3702 1.9929 2.7474l7.6462 1.2171q2.3702 0.37727 2.7474-1.9929z" clip-path="url(#a)" fill="#fff" stroke="#fff"/>
<g clip-path="url(#a)">
<g transform="translate(678.29 835.56) rotate(-80.956) scale(.08 -.08)">
<use xlink:href="#k"/>
<use x="60.818359" xlink:href="#d"/>
<use x="122.341797" xlink:href="#i"/>
<use x="163.439453" xlink:href="#l"/>
<use x="260.851562" xlink:href="#h"/>
<use x="288.634766" xlink:href="#g"/>
<use x="352.013672" xlink:href="#e"/>
<use x="413.292969" xlink:href="#j"/>
</g>
</g>
<path d="m717.21 801.35 5.5467 34.846q0.37727 2.3702 2.7474 1.9929l7.6462-1.2171q2.3702-0.37727 1.9929-2.7474l-5.5467-34.846q-0.37727-2.3702-2.7474-1.9929l-7.6462 1.2171q-2.3702 0.37727-1.9929 2.7474z" clip-path="url(#a)" fill="#fff" stroke="#fff"/>
<g clip-path="url(#a)">
<g transform="translate(721.23 800.71) rotate(80.956) scale(.08 -.08)">
<use xlink:href="#k"/>
<use x="60.818359" xlink:href="#d"/>
<use x="122.341797" xlink:href="#i"/>
<use x="163.439453" xlink:href="#l"/>
<use x="260.851562" xlink:href="#h"/>
<use x="288.634766" xlink:href="#g"/>
<use x="352.013672" xlink:href="#e"/>
<use x="413.292969" xlink:href="#j"/>
</g>
</g>
<path d="m696.26 740.58v5.855q0 2.4 2.4 2.4h7.7425q2.4 0 2.4-2.4v-5.855q0-2.4-2.4-2.4h-7.7425q-2.4 0-2.4 2.4z" clip-path="url(#a)" fill="#fff" stroke="#fff"/>
<g clip-path="url(#a)">
<g transform="translate(700.32 740.58) rotate(90) scale(.08 -.08)">
<use xlink:href="#y"/>
</g>
</g>
<path d="m790.86 874.43v35.285q0 2.4 2.4 2.4h7.7425q2.4 0 2.4-2.4v-35.285q0-2.4-2.4-2.4h-7.7425q-2.4 0-2.4 2.4z" clip-path="url(#a)" fill="#fff" stroke="#fff"/>
<g clip-path="url(#a)">
<g transform="translate(794.92 874.43) rotate(90) scale(.08 -.08)">
<use xlink:href="#k"/>
<use x="60.818359" xlink:href="#d"/>
<use x="122.341797" xlink:href="#i"/>
<use x="163.439453" xlink:href="#l"/>
<use x="260.851562" xlink:href="#h"/>
<use x="288.634766" xlink:href="#g"/>
<use x="352.013672" xlink:href="#e"/>
<use x="413.292969" xlink:href="#j"/>
</g>
</g>
<path d="m862.04 746.99 0.79462-4.9922q0.37727-2.3702-1.9929-2.7474l-7.6462-1.2171q-2.3702-0.37727-2.7474 1.9929l-0.79462 4.9922q-0.37727 2.3702 1.9929 2.7474l7.6462 1.2171q2.3702 0.37727 2.7474-1.9929z" clip-path="url(#a)" fill="#fff" stroke="#fff"/>
<g clip-path="url(#a)">
<g transform="translate(858.03 746.35) rotate(-80.956) scale(.08 -.08)">
<use xlink:href="#w"/>
</g>
</g>
<path d="m873.26 741.73 0.87814 5.5168q0.37727 2.3702 2.7474 1.9929l7.6462-1.2171q2.3702-0.37727 1.9929-2.7474l-0.87813-5.5168q-0.37727-2.3702-2.7474-1.9929l-7.6462 1.2171q-2.3702 0.37727-1.9929 2.7474z" clip-path="url(#a)" fill="#fff" stroke="#fff"/>
<g clip-path="url(#a)">
<g transform="translate(877.28 741.09) rotate(80.956) scale(.08 -.08)">
<use xlink:href="#t"/>
</g>
</g>
<path d="m838.15 874.43v35.285q0 2.4 2.4 2.4h7.7425q2.4 0 2.4-2.4v-35.285q0-2.4-2.4-2.4h-7.7425q-2.4 0-2.4 2.4z" clip-path="url(#a)" fill="#fff" stroke="#fff"/>
<g clip-path="url(#a)">
<g transform="translate(842.22 874.43) rotate(90) scale(.08 -.08)">
<use xlink:href="#k"/>
<use x="60.818359" xlink:href="#d"/>
<use x="122.341797" xlink:href="#i"/>
<use x="163.439453" xlink:href="#l"/>
<use x="260.851562" xlink:href="#h"/>
<use x="288.634766" xlink:href="#g"/>
<use x="352.013672" xlink:href="#e"/>
<use x="413.292969" xlink:href="#j"/>
</g>
</g>
<path d="m885.45 874.43v35.285q0 2.4 2.4 2.4h7.7425q2.4 0 2.4-2.4v-35.285q0-2.4-2.4-2.4h-7.7425q-2.4 0-2.4 2.4z" clip-path="url(#a)" fill="#fff" stroke="#fff"/>
<g clip-path="url(#a)">
<g transform="translate(889.51 874.43) rotate(90) scale(.08 -.08)">
<use xlink:href="#k"/>
<use x="60.818359" xlink:href="#d"/>
<use x="122.341797" xlink:href="#i"/>
<use x="163.439453" xlink:href="#l"/>
<use x="260.851562" xlink:href="#h"/>
<use x="288.634766" xlink:href="#g"/>
<use x="352.013672" xlink:href="#e"/>
<use x="413.292969" xlink:href="#j"/>
</g>
</g>
<path d="m81.397 874.43v35.285q0 2.4 2.4 2.4h7.7425q2.4 0 2.4-2.4v-35.285q0-2.4-2.4-2.4h-7.7425q-2.4 0-2.4 2.4z" clip-path="url(#a)" fill="#fff" stroke="#fff"/>
<g clip-path="url(#a)">
<g transform="translate(85.461 874.43) rotate(90) scale(.08 -.08)">
<use xlink:href="#k"/>
<use x="60.818359" xlink:href="#d"/>
<use x="122.341797" xlink:href="#i"/>
<use x="163.439453" xlink:href="#l"/>
<use x="260.851562" xlink:href="#h"/>
<use x="288.634766" xlink:href="#g"/>
<use x="352.013672" xlink:href="#e"/>
<use x="413.292969" xlink:href="#j"/>
</g>
</g>
<path d="m128.69 874.43v35.285q0 2.4 2.4 2.4h7.7425q2.4 0 2.4-2.4v-35.285q0-2.4-2.4-2.4h-7.7425q-2.4 0-2.4 2.4z" clip-path="url(#a)" fill="#fff" stroke="#fff"/>
<g clip-path="url(#a)">
<g transform="translate(132.76 874.43) rotate(90) scale(.08 -.08)">
<use xlink:href="#k"/>
<use x="60.818359" xlink:href="#d"/>
<use x="122.341797" xlink:href="#i"/>
<use x="163.439453" xlink:href="#l"/>
<use x="260.851562" xlink:href="#h"/>
<use x="288.634766" xlink:href="#g"/>
<use x="352.013672" xlink:href="#e"/>
<use x="413.292969" xlink:href="#j"/>
</g>
</g>
<path d="m206.57 673.25 2.2369-4.9944q0.98101-2.1903-1.2093-3.1714l-7.0661-3.1648q-2.1903-0.98101-3.1714 1.2093l-2.2369 4.9944q-0.98101 2.1903 1.2093 3.1714l7.0661 3.1648q2.1903 0.98101 3.1714-1.2093z" clip-path="url(#a)" fill="#fff" stroke="#fff"/>
<g clip-path="url(#a)">
<g transform="translate(202.87 671.58) rotate(-65.873) scale(.08 -.08)">
<use xlink:href="#o"/>
</g>
</g>
<path d="m266.53 591.82 0.25208 4.8172q0.12542 2.3967 2.5221 2.2713l7.7319-0.40461q2.3967-0.12542 2.2713-2.5221l-0.25208-4.8172q-0.12542-2.3967-2.5221-2.2713l-7.7319 0.40461q-2.3967 0.12542-2.2713 2.5221z" clip-path="url(#a)" fill="#fff" stroke="#fff"/>
<g clip-path="url(#a)">
<g transform="translate(270.59 591.61) rotate(87.004) scale(.08 -.08)">
<use xlink:href="#ae"/>
</g>
</g>
<path d="m325.47 595.83 3.5132 4.1959q1.5407 1.8402 3.3809 0.29942l5.9364-4.9705q1.8402-1.5407 0.29942-3.3809l-3.5132-4.1959q-1.5407-1.8402-3.3809-0.29942l-5.9364 4.9705q-1.8402 1.5407-0.29942 3.3809z" clip-path="url(#a)" fill="#fff" stroke="#fff"/>
<g clip-path="url(#a)">
<g transform="translate(328.59 593.22) rotate(50.061) scale(.08 -.08)">
<use xlink:href="#o"/>
</g>
</g>
<path d="m258.34 748.07 1.6946-5.323q0.72804-2.2869-1.5589-3.0149l-7.3777-2.3487q-2.2869-0.72804-3.0149 1.5589l-1.6946 5.323q-0.72804 2.2869 1.5589 3.0149l7.3777 2.3487q2.2869 0.72804 3.0149-1.5589z" clip-path="url(#a)" fill="#fff" stroke="#fff"/>
<g clip-path="url(#a)">
<g transform="translate(254.46 746.83) rotate(-72.341) scale(.08 -.08)">
<use xlink:href="#t"/>
</g>
</g>
<path d="m270.59 740.51v5.985q0 2.4 2.4 2.4h7.7425q2.4 0 2.4-2.4v-5.985q0-2.4-2.4-2.4h-7.7425q-2.4 0-2.4 2.4z" clip-path="url(#a)" fill="#fff" stroke="#fff"/>
<g clip-path="url(#a)">
<g transform="translate(274.65 740.51) rotate(90) scale(.08 -.08)">
<use xlink:href="#ar"/>
</g>
</g>
<path d="m293.68 742.74 1.6946 5.323q0.72804 2.2869 3.0149 1.5589l7.3777-2.3487q2.2869-0.72804 1.5589-3.0149l-1.6946-5.323q-0.72804-2.2869-3.0149-1.5589l-7.3777 2.3487q-2.2869 0.72804-1.5589 3.0149z" clip-path="url(#a)" fill="#fff" stroke="#fff"/>
<g clip-path="url(#a)">
<g transform="translate(297.55 741.51) rotate(72.341) scale(.08 -.08)">
<use xlink:href="#t"/>
</g>
</g>
<path d="m389.03 747.23 0.87381-5.4896q0.37727-2.3702-1.9929-2.7474l-7.6462-1.2171q-2.3702-0.37727-2.7474 1.9929l-0.87381 5.4896q-0.37727 2.3702 1.9929 2.7474l7.6462 1.2171q2.3702 0.37727 2.7474-1.9929z" clip-path="url(#a)" fill="#fff" stroke="#fff"/>
<g clip-path="url(#a)">
<g transform="translate(385.02 746.6) rotate(-80.956) scale(.08 -.08)">
<use xlink:href="#ad"/>
</g>
</g>
<path d="m400.29 741.73 0.87814 5.5168q0.37727 2.3702 2.7474 1.9929l7.6462-1.2171q2.3702-0.37727 1.9929-2.7474l-0.87814-5.5168q-0.37727-2.3702-2.7474-1.9929l-7.6462 1.2171q-2.3702 0.37727-1.9929 2.7474z" clip-path="url(#a)" fill="#fff" stroke="#fff"/>
<g clip-path="url(#a)">
<g transform="translate(404.31 741.09) rotate(80.956) scale(.08 -.08)">
<use xlink:href="#t"/>
</g>
</g>
<path d="m365.18 874.43v35.285q0 2.4 2.4 2.4h7.7425q2.4 0 2.4-2.4v-35.285q0-2.4-2.4-2.4h-7.7425q-2.4 0-2.4 2.4z" clip-path="url(#a)" fill="#fff" stroke="#fff"/>
<g clip-path="url(#a)">
<g transform="translate(369.24 874.43) rotate(90) scale(.08 -.08)">
<use xlink:href="#k"/>
<use x="60.818359" xlink:href="#d"/>
<use x="122.341797" xlink:href="#i"/>
<use x="163.439453" xlink:href="#l"/>
<use x="260.851562" xlink:href="#h"/>
<use x="288.634766" xlink:href="#g"/>
<use x="352.013672" xlink:href="#e"/>
<use x="413.292969" xlink:href="#j"/>
</g>
</g>
<path d="m412.48 874.43v35.285q0 2.4 2.4 2.4h7.7425q2.4 0 2.4-2.4v-35.285q0-2.4-2.4-2.4h-7.7425q-2.4 0-2.4 2.4z" clip-path="url(#a)" fill="#fff" stroke="#fff"/>
<g clip-path="url(#a)">
<g transform="translate(416.54 874.43) rotate(90) scale(.08 -.08)">
<use xlink:href="#k"/>
<use x="60.818359" xlink:href="#d"/>
<use x="122.341797" xlink:href="#i"/>
<use x="163.439453" xlink:href="#l"/>
<use x="260.851562" xlink:href="#h"/>
<use x="288.634766" xlink:href="#g"/>
<use x="352.013672" xlink:href="#e"/>
<use x="413.292969" xlink:href="#j"/>
</g>
</g>
<path d="m223.29 874.43v35.285q0 2.4 2.4 2.4h7.7425q2.4 0 2.4-2.4v-35.285q0-2.4-2.4-2.4h-7.7425q-2.4 0-2.4 2.4z" clip-path="url(#a)" fill="#fff" stroke="#fff"/>
<g clip-path="url(#a)">
<g transform="translate(227.35 874.43) rotate(90) scale(.08 -.08)">
<use xlink:href="#k"/>
<use x="60.818359" xlink:href="#d"/>
<use x="122.341797" xlink:href="#i"/>
<use x="163.439453" xlink:href="#l"/>
<use x="260.851562" xlink:href="#h"/>
<use x="288.634766" xlink:href="#g"/>
<use x="352.013672" xlink:href="#e"/>
<use x="413.292969" xlink:href="#j"/>
</g>
</g>
<path d="m270.59 874.43v35.285q0 2.4 2.4 2.4h7.7425q2.4 0 2.4-2.4v-35.285q0-2.4-2.4-2.4h-7.7425q-2.4 0-2.4 2.4z" clip-path="url(#a)" fill="#fff" stroke="#fff"/>
<g clip-path="url(#a)">
<g transform="translate(274.65 874.43) rotate(90) scale(.08 -.08)">
<use xlink:href="#k"/>
<use x="60.818359" xlink:href="#d"/>
<use x="122.341797" xlink:href="#i"/>
<use x="163.439453" xlink:href="#l"/>
<use x="260.851562" xlink:href="#h"/>
<use x="288.634766" xlink:href="#g"/>
<use x="352.013672" xlink:href="#e"/>
<use x="413.292969" xlink:href="#j"/>
</g>
</g>
<path d="m317.88 874.43v35.285q0 2.4 2.4 2.4h7.7425q2.4 0 2.4-2.4v-35.285q0-2.4-2.4-2.4h-7.7425q-2.4 0-2.4 2.4z" clip-path="url(#a)" fill="#fff" stroke="#fff"/>
<g clip-path="url(#a)">
<g transform="translate(321.95 874.43) rotate(90) scale(.08 -.08)">
<use xlink:href="#k"/>
<use x="60.818359" xlink:href="#d"/>
<use x="122.341797" xlink:href="#i"/>
<use x="163.439453" xlink:href="#l"/>
<use x="260.851562" xlink:href="#h"/>
<use x="288.634766" xlink:href="#g"/>
<use x="352.013672" xlink:href="#e"/>
<use x="413.292969" xlink:href="#j"/>
</g>
</g>
<path d="m881.29 294.19 9.2254-3.6805q2.2291-0.88933 1.3398-3.1185l-2.869-7.1913q-0.88933-2.2291-3.1185-1.3398l-9.2254 3.6805q-2.2291 0.88933-1.3398 3.1185l2.869 7.1913q0.88933 2.2291 3.1185 1.3398z" clip-path="url(#a)" fill="#fff" stroke="#fff"/>
<g clip-path="url(#a)">
<g transform="translate(879.78 290.42) rotate(-21.75) scale(.08 -.08)">
<use xlink:href="#v"/>
<use x="55.744141" xlink:href="#o"/>
</g>
</g>
<path d="m1191.2 510.5 3.6287 9.3358q0.86947 2.237 3.1064 1.3675l7.2165-2.805q2.237-0.86947 1.3675-3.1064l-3.6287-9.3358q-0.86947-2.237-3.1064-1.3675l-7.2165 2.805q-2.237 0.86947-1.3675 3.1064z" clip-path="url(#a)" fill="#fff" stroke="#fff"/>
<g clip-path="url(#a)">
<g transform="translate(1195 509.03) rotate(68.76) scale(.08 -.08)">
<use xlink:href="#v"/>
<use x="55.712891" xlink:href="#ad"/>
</g>
</g>
<path d="m1150.9 361.68 4.4721 8.8688q1.0806 2.143 3.2236 1.0624l6.9133-3.486q2.143-1.0806 1.0624-3.2236l-4.4721-8.8688q-1.0806-2.143-3.2236-1.0624l-6.9133 3.486q-2.143 1.0806-1.0624 3.2236z" clip-path="url(#a)" fill="#fff" stroke="#fff"/>
<g clip-path="url(#a)">
<g transform="translate(1154.5 359.85) rotate(63.241) scale(.08 -.08)">
<use xlink:href="#v"/>
<use x="55.744141" xlink:href="#o"/>
</g>
</g>
<path d="m587.28 135.45 8.3354-5.4014q2.0141-1.3051 0.70896-3.3192l-4.2104-6.4976q-1.3051-2.0141-3.3192-0.70896l-8.3354 5.4014q-2.0141 1.3051-0.70896 3.3192l4.2104 6.4976q1.3051 2.0141 3.3192 0.70896z" clip-path="url(#a)" fill="#fff" stroke="#fff"/>
<g clip-path="url(#a)">
<g transform="translate(585.07 132.04) rotate(-32.943) scale(.08 -.08)">
<use xlink:href="#v"/>
<use x="55.744141" xlink:href="#o"/>
</g>
</g>
<path d="m841.71 429.76 3.3551 9.4376q0.80392 2.2614 3.0653 1.4574l7.2952-2.5935q2.2614-0.80392 1.4574-3.0653l-3.3551-9.4376q-0.80392-2.2614-3.0653-1.4574l-7.2952 2.5935q-2.2614 0.80392-1.4574 3.0653z" clip-path="url(#a)" fill="#fff" stroke="#fff"/>
<g clip-path="url(#a)">
<g transform="translate(845.54 428.4) rotate(70.429) scale(.08 -.08)">
<use xlink:href="#v"/>
<use x="55.712891" xlink:href="#ad"/>
</g>
</g>
<path d="m705.38 211.46 0.7944-9.9007q0.19195-2.3923-2.2004-2.5843l-7.7177-0.61924q-2.3923-0.19195-2.5843 2.2004l-0.7944 9.9007q-0.19195 2.3923 2.2004 2.5843l7.7177 0.61924q2.3923 0.19195 2.5843-2.2004z" clip-path="url(#a)" fill="#fff" stroke="#fff"/>
<g clip-path="url(#a)">
<g transform="translate(701.33 211.14) rotate(-85.413) scale(.08 -.08)">
<use xlink:href="#v"/>
<use x="55.744141" xlink:href="#o"/>
</g>
</g>
<path d="m175.99 874.43v35.285q0 2.4 2.4 2.4h7.7425q2.4 0 2.4-2.4v-35.285q0-2.4-2.4-2.4h-7.7425q-2.4 0-2.4 2.4z" clip-path="url(#a)" fill="#fff" stroke="#fff"/>
<g clip-path="url(#a)">
<g transform="translate(180.06 874.43) rotate(90) scale(.08 -.08)">
<use xlink:href="#k"/>
<use x="60.818359" xlink:href="#d"/>
<use x="122.341797" xlink:href="#i"/>
<use x="163.439453" xlink:href="#l"/>
<use x="260.851562" xlink:href="#h"/>
<use x="288.634766" xlink:href="#g"/>
<use x="352.013672" xlink:href="#e"/>
<use x="413.292969" xlink:href="#j"/>
</g>
</g>
<path d="m459.77 874.43v35.285q0 2.4 2.4 2.4h7.7425q2.4 0 2.4-2.4v-35.285q0-2.4-2.4-2.4h-7.7425q-2.4 0-2.4 2.4z" clip-path="url(#a)" fill="#fff" stroke="#fff"/>
<g clip-path="url(#a)">
<g transform="translate(463.84 874.43) rotate(90) scale(.08 -.08)">
<use xlink:href="#k"/>
<use x="60.818359" xlink:href="#d"/>
<use x="122.341797" xlink:href="#i"/>
<use x="163.439453" xlink:href="#l"/>
<use x="260.851562" xlink:href="#h"/>
<use x="288.634766" xlink:href="#g"/>
<use x="352.013672" xlink:href="#e"/>
<use x="413.292969" xlink:href="#j"/>
</g>
</g>
<path d="m601.67 874.43v35.285q0 2.4 2.4 2.4h7.7425q2.4 0 2.4-2.4v-35.285q0-2.4-2.4-2.4h-7.7425q-2.4 0-2.4 2.4z" clip-path="url(#a)" fill="#fff" stroke="#fff"/>
<g clip-path="url(#a)">
<g transform="translate(605.73 874.43) rotate(90) scale(.08 -.08)">
<use xlink:href="#k"/>
<use x="60.818359" xlink:href="#d"/>
<use x="122.341797" xlink:href="#i"/>
<use x="163.439453" xlink:href="#l"/>
<use x="260.851562" xlink:href="#h"/>
<use x="288.634766" xlink:href="#g"/>
<use x="352.013672" xlink:href="#e"/>
<use x="413.292969" xlink:href="#j"/>
</g>
</g>
<path d="m696.26 874.43v35.285q0 2.4 2.4 2.4h7.7425q2.4 0 2.4-2.4v-35.285q0-2.4-2.4-2.4h-7.7425q-2.4 0-2.4 2.4z" clip-path="url(#a)" fill="#fff" stroke="#fff"/>
<g clip-path="url(#a)">
<g transform="translate(700.32 874.43) rotate(90) scale(.08 -.08)">
<use xlink:href="#k"/>
<use x="60.818359" xlink:href="#d"/>
<use x="122.341797" xlink:href="#i"/>
<use x="163.439453" xlink:href="#l"/>
<use x="260.851562" xlink:href="#h"/>
<use x="288.634766" xlink:href="#g"/>
<use x="352.013672" xlink:href="#e"/>
<use x="413.292969" xlink:href="#j"/>
</g>
</g>
<path d="m932.75 874.43v35.285q0 2.4 2.4 2.4h7.7425q2.4 0 2.4-2.4v-35.285q0-2.4-2.4-2.4h-7.7425q-2.4 0-2.4 2.4z" clip-path="url(#a)" fill="#fff" stroke="#fff"/>
<g clip-path="url(#a)">
<g transform="translate(936.81 874.43) rotate(90) scale(.08 -.08)">
<use xlink:href="#k"/>
<use x="60.818359" xlink:href="#d"/>
<use x="122.341797" xlink:href="#i"/>
<use x="163.439453" xlink:href="#l"/>
<use x="260.851562" xlink:href="#h"/>
<use x="288.634766" xlink:href="#g"/>
<use x="352.013672" xlink:href="#e"/>
<use x="413.292969" xlink:href="#j"/>
</g>
</g>
<path d="m1831.4 874.43v35.285q0 2.4 2.4 2.4h7.7425q2.4 0 2.4-2.4v-35.285q0-2.4-2.4-2.4h-7.7425q-2.4 0-2.4 2.4z" clip-path="url(#a)" fill="#fff" stroke="#fff"/>
<g clip-path="url(#a)">
<g transform="translate(1835.5 874.43) rotate(90) scale(.08 -.08)">
<use xlink:href="#k"/>
<use x="60.818359" xlink:href="#d"/>
<use x="122.341797" xlink:href="#i"/>
<use x="163.439453" xlink:href="#l"/>
<use x="260.851562" xlink:href="#h"/>
<use x="288.634766" xlink:href="#g"/>
<use x="352.013672" xlink:href="#e"/>
<use x="413.292969" xlink:href="#j"/>
</g>
</g>
<defs>
<path id="b" d="m0 8.6603c2.2967 0 4.4997-0.9125 6.1237-2.5365 1.624-1.624 2.5365-3.827 2.5365-6.1237s-0.9125-4.4997-2.5365-6.1237c-1.624-1.624-3.827-2.5365-6.1237-2.5365s-4.4997 0.9125-6.1237 2.5365c-1.624 1.624-2.5365 3.827-2.5365 6.1237s0.9125 4.4997 2.5365 6.1237c1.624 1.624 3.827 2.5365 6.1237 2.5365z"/>
</defs>
<g clip-path="url(#a)">
<use x="87.668328" y="966.358525" fill="#ffffff" stroke="#ffffff" xlink:href="#b"/>
</g>
<g clip-path="url(#a)">
<use x="134.965536" y="966.358525" fill="#ffffff" stroke="#ffffff" xlink:href="#b"/>
</g>
<g clip-path="url(#a)">
<use x="182.262743" y="966.358525" fill="#ffffff" stroke="#ffffff" xlink:href="#b"/>
</g>
<g clip-path="url(#a)">
<use x="229.559951" y="966.358525" fill="#ffffff" stroke="#ffffff" xlink:href="#b"/>
</g>
<g clip-path="url(#a)">
<use x="276.857158" y="966.358525" fill="#ffffff" stroke="#ffffff" xlink:href="#b"/>
</g>
<g clip-path="url(#a)">
<use x="324.154366" y="966.358525" fill="#ffffff" stroke="#ffffff" xlink:href="#b"/>
</g>
<g clip-path="url(#a)">
<use x="371.451573" y="966.358525" fill="#ffffff" stroke="#ffffff" xlink:href="#b"/>
</g>
<g clip-path="url(#a)">
<use x="418.748781" y="966.358525" fill="#ffffff" stroke="#ffffff" xlink:href="#b"/>
</g>
<g clip-path="url(#a)">
<use x="466.045988" y="966.358525" fill="#ffffff" stroke="#ffffff" xlink:href="#b"/>
</g>
<g clip-path="url(#a)">
<use x="513.343196" y="966.358525" fill="#ffffff" stroke="#ffffff" xlink:href="#b"/>
</g>
<g clip-path="url(#a)">
<use x="560.640403" y="966.358525" fill="#ffffff" stroke="#ffffff" xlink:href="#b"/>
</g>
<g clip-path="url(#a)">
<use x="607.937611" y="966.358525" fill="#ffffff" stroke="#ffffff" xlink:href="#b"/>
</g>
<g clip-path="url(#a)">
<use x="655.234818" y="966.358525" fill="#ffffff" stroke="#ffffff" xlink:href="#b"/>
</g>
<g clip-path="url(#a)">
<use x="702.532026" y="966.358525" fill="#ffffff" stroke="#ffffff" xlink:href="#b"/>
</g>
<g clip-path="url(#a)">
<use x="749.829233" y="966.358525" fill="#ffffff" stroke="#ffffff" xlink:href="#b"/>
</g>
<g clip-path="url(#a)">
<use x="797.12644" y="966.358525" fill="#ffffff" stroke="#ffffff" xlink:href="#b"/>
</g>
<g clip-path="url(#a)">
<use x="844.423648" y="966.358525" fill="#ffffff" stroke="#ffffff" xlink:href="#b"/>
</g>
<g clip-path="url(#a)">
<use x="891.720855" y="966.358525" fill="#ffffff" stroke="#ffffff" xlink:href="#b"/>
</g>
<g clip-path="url(#a)">
<use x="939.018063" y="966.358525" fill="#ffffff" stroke="#ffffff" xlink:href="#b"/>
</g>
<g clip-path="url(#a)">
<use x="986.31527" y="966.358525" fill="#ffffff" stroke="#ffffff" xlink:href="#b"/>
</g>
<g clip-path="url(#a)">
<use x="1033.612478" y="966.358525" fill="#ffffff" stroke="#ffffff" xlink:href="#b"/>
</g>
<g clip-path="url(#a)">
<use x="1080.909685" y="966.358525" fill="#ffffff" stroke="#ffffff" xlink:href="#b"/>
</g>
<g clip-path="url(#a)">
<use x="1128.206893" y="966.358525" fill="#ffffff" stroke="#ffffff" xlink:href="#b"/>
</g>
<g clip-path="url(#a)">
<use x="1175.5041" y="966.358525" fill="#ffffff" stroke="#ffffff" xlink:href="#b"/>
</g>
<g clip-path="url(#a)">
<use x="1222.801308" y="966.358525" fill="#ffffff" stroke="#ffffff" xlink:href="#b"/>
</g>
<g clip-path="url(#a)">
<use x="1270.098515" y="966.358525" fill="#ffffff" stroke="#ffffff" xlink:href="#b"/>
</g>
<g clip-path="url(#a)">
<use x="1317.395723" y="966.358525" fill="#ffffff" stroke="#ffffff" xlink:href="#b"/>
</g>
<g clip-path="url(#a)">
<use x="1364.69293" y="966.358525" fill="#ffffff" stroke="#ffffff" xlink:href="#b"/>
</g>
<g clip-path="url(#a)">
<use x="1411.990138" y="966.358525" fill="#ffffff" stroke="#ffffff" xlink:href="#b"/>
</g>
<g clip-path="url(#a)">
<use x="1459.287345" y="966.358525" fill="#ffffff" stroke="#ffffff" xlink:href="#b"/>
</g>
<g clip-path="url(#a)">
<use x="1506.584553" y="966.358525" fill="#ffffff" stroke="#ffffff" xlink:href="#b"/>
</g>
<g clip-path="url(#a)">
<use x="1553.88176" y="966.358525" fill="#ffffff" stroke="#ffffff" xlink:href="#b"/>
</g>
<g clip-path="url(#a)">
<use x="1601.178968" y="966.358525" fill="#ffffff" stroke="#ffffff" xlink:href="#b"/>
</g>
<g clip-path="url(#a)">
<use x="1648.476175" y="966.358525" fill="#ffffff" stroke="#ffffff" xlink:href="#b"/>
</g>
<g clip-path="url(#a)">
<use x="1695.773383" y="966.358525" fill="#ffffff" stroke="#ffffff" xlink:href="#b"/>
</g>
<g clip-path="url(#a)">
<use x="1743.07059" y="966.358525" fill="#ffffff" stroke="#ffffff" xlink:href="#b"/>
</g>
<g clip-path="url(#a)">
<use x="1790.367798" y="966.358525" fill="#ffffff" stroke="#ffffff" xlink:href="#b"/>
</g>
<g clip-path="url(#a)">
<use x="1837.665005" y="966.358525" fill="#ffffff" stroke="#ffffff" xlink:href="#b"/>
</g>
<g clip-path="url(#a)">
<use x="938.37758" y="46.974808" fill="#ffffff" stroke="#ffffff" xlink:href="#b"/>
</g>
<g clip-path="url(#a)">
<use x="463.779664" y="208.008009" fill="#ffffff" stroke="#ffffff" xlink:href="#b"/>
</g>
<g clip-path="url(#a)">
<use x="986.31527" y="817.788414" fill="#ffffff" stroke="#ffffff" xlink:href="#b"/>
</g>
<g clip-path="url(#a)">
<use x="686.76629" y="365.043907" fill="#ffffff" stroke="#ffffff" xlink:href="#b"/>
</g>
<g clip-path="url(#a)">
<use x="1317.395723" y="817.788414" fill="#ffffff" stroke="#ffffff" xlink:href="#b"/>
</g>
<g clip-path="url(#a)">
<use x="1236.99047" y="518.581419" fill="#ffffff" stroke="#ffffff" xlink:href="#b"/>
</g>
<g clip-path="url(#a)">
<use x="1364.69293" y="817.788414" fill="#ffffff" stroke="#ffffff" xlink:href="#b"/>
</g>
<g clip-path="url(#a)">
<use x="1411.990138" y="817.788414" fill="#ffffff" stroke="#ffffff" xlink:href="#b"/>
</g>
<g clip-path="url(#a)">
<use x="1530.233156" y="669.218303" fill="#ffffff" stroke="#ffffff" xlink:href="#b"/>
</g>
<g clip-path="url(#a)">
<use x="1743.07059" y="669.218303" fill="#ffffff" stroke="#ffffff" xlink:href="#b"/>
</g>
<g clip-path="url(#a)">
<use x="1648.476175" y="817.788414" fill="#ffffff" stroke="#ffffff" xlink:href="#b"/>
</g>
<g clip-path="url(#a)">
<use x="1695.773383" y="817.788414" fill="#ffffff" stroke="#ffffff" xlink:href="#b"/>
</g>
<g clip-path="url(#a)">
<use x="1743.07059" y="817.788414" fill="#ffffff" stroke="#ffffff" xlink:href="#b"/>
</g>
<g clip-path="url(#a)">
<use x="1790.367798" y="817.788414" fill="#ffffff" stroke="#ffffff" xlink:href="#b"/>
</g>
<g clip-path="url(#a)">
<use x="1459.287345" y="817.788414" fill="#ffffff" stroke="#ffffff" xlink:href="#b"/>
</g>
<g clip-path="url(#a)">
<use x="1506.584553" y="817.788414" fill="#ffffff" stroke="#ffffff" xlink:href="#b"/>
</g>
<g clip-path="url(#a)">
<use x="1553.88176" y="817.788414" fill="#ffffff" stroke="#ffffff" xlink:href="#b"/>
</g>
<g clip-path="url(#a)">
<use x="1601.178968" y="817.788414" fill="#ffffff" stroke="#ffffff" xlink:href="#b"/>
</g>
<g clip-path="url(#a)">
<use x="1033.612478" y="817.788414" fill="#ffffff" stroke="#ffffff" xlink:href="#b"/>
</g>
<g clip-path="url(#a)">
<use x="891.720855" y="518.581419" fill="#ffffff" stroke="#ffffff" xlink:href="#b"/>
</g>
<g clip-path="url(#a)">
<use x="1080.909685" y="817.788414" fill="#ffffff" stroke="#ffffff" xlink:href="#b"/>
</g>
<g clip-path="url(#a)">
<use x="1128.206893" y="817.788414" fill="#ffffff" stroke="#ffffff" xlink:href="#b"/>
</g>
<g clip-path="url(#a)">
<use x="1222.801308" y="669.218303" fill="#ffffff" stroke="#ffffff" xlink:href="#b"/>
</g>
<g clip-path="url(#a)">
<use x="1175.5041" y="817.788414" fill="#ffffff" stroke="#ffffff" xlink:href="#b"/>
</g>
<g clip-path="url(#a)">
<use x="1222.801308" y="817.788414" fill="#ffffff" stroke="#ffffff" xlink:href="#b"/>
</g>
<g clip-path="url(#a)">
<use x="1270.098515" y="817.788414" fill="#ffffff" stroke="#ffffff" xlink:href="#b"/>
</g>
<g clip-path="url(#a)">
<use x="168.467724" y="365.043907" fill="#ffffff" stroke="#ffffff" xlink:href="#b"/>
</g>
<g clip-path="url(#a)">
<use x="513.343196" y="817.788414" fill="#ffffff" stroke="#ffffff" xlink:href="#b"/>
</g>
<g clip-path="url(#a)">
<use x="707.261746" y="518.581419" fill="#ffffff" stroke="#ffffff" xlink:href="#b"/>
</g>
<g clip-path="url(#a)">
<use x="560.640403" y="817.788414" fill="#ffffff" stroke="#ffffff" xlink:href="#b"/>
</g>
<g clip-path="url(#a)">
<use x="702.532026" y="669.218303" fill="#ffffff" stroke="#ffffff" xlink:href="#b"/>
</g>
<g clip-path="url(#a)">
<use x="797.12644" y="817.788414" fill="#ffffff" stroke="#ffffff" xlink:href="#b"/>
</g>
<g clip-path="url(#a)">
<use x="868.072252" y="669.218303" fill="#ffffff" stroke="#ffffff" xlink:href="#b"/>
</g>
<g clip-path="url(#a)">
<use x="844.423648" y="817.788414" fill="#ffffff" stroke="#ffffff" xlink:href="#b"/>
</g>
<g clip-path="url(#a)">
<use x="891.720855" y="817.788414" fill="#ffffff" stroke="#ffffff" xlink:href="#b"/>
</g>
<g clip-path="url(#a)">
<use x="87.668328" y="817.788414" fill="#ffffff" stroke="#ffffff" xlink:href="#b"/>
</g>
<g clip-path="url(#a)">
<use x="134.965536" y="817.788414" fill="#ffffff" stroke="#ffffff" xlink:href="#b"/>
</g>
<g clip-path="url(#a)">
<use x="268.97429" y="518.581419" fill="#ffffff" stroke="#ffffff" xlink:href="#b"/>
</g>
<g clip-path="url(#a)">
<use x="276.857158" y="669.218303" fill="#ffffff" stroke="#ffffff" xlink:href="#b"/>
</g>
<g clip-path="url(#a)">
<use x="395.100177" y="669.218303" fill="#ffffff" stroke="#ffffff" xlink:href="#b"/>
</g>
<g clip-path="url(#a)">
<use x="371.451573" y="817.788414" fill="#ffffff" stroke="#ffffff" xlink:href="#b"/>
</g>
<g clip-path="url(#a)">
<use x="418.748781" y="817.788414" fill="#ffffff" stroke="#ffffff" xlink:href="#b"/>
</g>
<g clip-path="url(#a)">
<use x="229.559951" y="817.788414" fill="#ffffff" stroke="#ffffff" xlink:href="#b"/>
</g>
<g clip-path="url(#a)">
<use x="276.857158" y="817.788414" fill="#ffffff" stroke="#ffffff" xlink:href="#b"/>
</g>
<g clip-path="url(#a)">
<use x="324.154366" y="817.788414" fill="#ffffff" stroke="#ffffff" xlink:href="#b"/>
</g>
<g clip-path="url(#a)">
<use x="1080.384161" y="208.008009" fill="#808080" stroke="#808080" xlink:href="#b"/>
</g>
<g clip-path="url(#a)">
<use x="712.287075" y="46.974808" fill="#808080" stroke="#808080" xlink:href="#b"/>
</g>
<g clip-path="url(#a)">
<use x="182.262743" y="817.788414" fill="#ffffff" stroke="#ffffff" xlink:href="#b"/>
</g>
<g clip-path="url(#a)">
<use x="466.045988" y="817.788414" fill="#ffffff" stroke="#ffffff" xlink:href="#b"/>
</g>
<g clip-path="url(#a)">
<use x="607.937611" y="817.788414" fill="#ffffff" stroke="#ffffff" xlink:href="#b"/>
</g>
<g clip-path="url(#a)">
<use x="702.532026" y="817.788414" fill="#ffffff" stroke="#ffffff" xlink:href="#b"/>
</g>
<g clip-path="url(#a)">
<use x="939.018063" y="817.788414" fill="#ffffff" stroke="#ffffff" xlink:href="#b"/>
</g>
<g clip-path="url(#a)">
<use x="1837.665005" y="817.788414" fill="#ffffff" stroke="#ffffff" xlink:href="#b"/>
</g>
<g clip-path="url(#a)">
<defs>
<path id="as" d="m54.891 33.016v-33.016h-8.9844v32.719q0 7.7656-3.0312 11.609-3.0312 3.8594-9.0781 3.8594-7.2812 0-11.484-4.6406-4.2031-4.625-4.2031-12.641v-30.906h-9.0312v75.984h9.0312v-29.797q3.2344 4.9375 7.5938 7.375 4.375 2.4375 10.094 2.4375 9.4219 0 14.25-5.8281 4.8438-5.8281 4.8438-17.156z"/>
</defs>
<g transform="translate(78.369 969.12) scale(.1 -.1)">
<use xlink:href="#k"/>
<use x="61.083984" xlink:href="#as"/>
<use x="124.462891" xlink:href="#d"/>
</g>
</g>
<g clip-path="url(#a)">
<defs>
<path id="s" d="m44.281 53.078v-8.5q-3.7969 1.9531-7.9062 2.9219-4.0938 0.98438-8.5 0.98438-6.6875 0-10.031-2.0469t-3.3438-6.1562q0-3.125 2.3906-4.9062t9.625-3.3906l3.0781-0.6875q9.5625-2.0469 13.594-5.7812t4.0312-10.422q0-7.625-6.0312-12.078-6.0312-4.4375-16.578-4.4375-4.3906 0-9.1562 0.85938t-10.031 2.5625v9.2812q4.9844-2.5938 9.8125-3.8906 4.8281-1.2812 9.5781-1.2812 6.3438 0 9.75 2.1719 3.4219 2.1719 3.4219 6.125 0 3.6562-2.4688 5.6094-2.4531 1.9531-10.812 3.7656l-3.125 0.73438q-8.3438 1.75-12.062 5.3906-3.7031 3.6406-3.7031 9.9844 0 7.7188 5.4688 11.906 5.4688 4.2031 15.531 4.2031 4.9688 0 9.3594-0.73438 4.4062-0.71875 8.1094-2.1875z"/>
</defs>
<g transform="translate(120.16 969.12) scale(.1 -.1)">
<use xlink:href="#s"/>
<use x="52.099609" xlink:href="#d"/>
<use x="113.623047" xlink:href="#i"/>
<use x="154.736328" xlink:href="#h"/>
<use x="182.519531" xlink:href="#d"/>
<use x="244.042969" xlink:href="#s"/>
</g>
</g>
<g clip-path="url(#a)">
<defs>
<path id="aj" d="m11.719 12.406h10.297v-8.4062l-8-15.625h-6.2969l4 15.625z"/>
</defs>
<g transform="translate(180.67 969.12) scale(.1 -.1)">
<use xlink:href="#aj"/>
</g>
</g>
<g clip-path="url(#a)">
<defs>
<path id="ao" d="m4.2031 54.688h8.9844l11.234-42.672 11.172 42.672h10.594l11.234-42.672 11.188 42.672h8.9844l-14.312-54.688h-10.594l-11.766 44.828-11.812-44.828h-10.609z"/>
<path id="m" d="m18.312 70.219v-15.531h18.5v-6.9844h-18.5v-29.688q0-6.6875 1.8281-8.5938t7.4531-1.9062h9.2188v-7.5156h-9.2188q-10.406 0-14.359 3.875-3.9531 3.8906-3.9531 14.141v29.688h-6.5938v6.9844h6.5938v15.531z"/>
</defs>
<g transform="translate(211.86 969.12) scale(.1 -.1)">
<use xlink:href="#ao"/>
<use x="81.787109" xlink:href="#i"/>
<use x="122.900391" xlink:href="#h"/>
<use x="150.683594" xlink:href="#m"/>
<use x="189.892578" xlink:href="#m"/>
<use x="229.101562" xlink:href="#d"/>
<use x="290.625" xlink:href="#g"/>
</g>
</g>
<g clip-path="url(#a)">
<defs>
<path id="u" d="m45.406 46.391v29.594h8.9844v-75.984h-8.9844v8.2031q-2.8281-4.875-7.1562-7.25-4.3125-2.375-10.375-2.375-9.9062 0-16.141 7.9062-6.2188 7.9219-6.2188 20.812t6.2188 20.797q6.2344 7.9062 16.141 7.9062 6.0625 0 10.375-2.375 4.3281-2.3594 7.1562-7.2344zm-30.609-19.094q0-9.9062 4.0781-15.547t11.203-5.6406 11.219 5.6406q4.1094 5.6406 4.1094 15.547t-4.1094 15.547q-4.0938 5.6406-11.219 5.6406t-11.203-5.6406-4.0781-15.547z"/>
</defs>
<g transform="translate(267.45 969.12) scale(.1 -.1)">
<use xlink:href="#e"/>
<use x="61.279297" xlink:href="#g"/>
<use x="124.658203" xlink:href="#u"/>
</g>
</g>
<g clip-path="url(#a)">
<defs>
<path id="ap" d="m18.109 8.2031v-29h-9.0312v75.484h9.0312v-8.2969q2.8438 4.875 7.1562 7.2344 4.3281 2.375 10.328 2.375 9.9688 0 16.188-7.9062 6.2344-7.9062 6.2344-20.797t-6.2344-20.812q-6.2188-7.9062-16.188-7.9062-6 0-10.328 2.375-4.3125 2.375-7.1562 7.25zm30.578 19.094q0 9.9062-4.0781 15.547t-11.203 5.6406q-7.1406 0-11.219-5.6406t-4.0781-15.547 4.0781-15.547 11.219-5.6406q7.125 0 11.203 5.6406t4.0781 15.547z"/>
<path id="ak" d="m37.109 75.984v-7.4844h-8.5938q-4.8281 0-6.7188-1.9531-1.875-1.9531-1.875-7.0312v-4.8281h14.797v-6.9844h-14.797v-47.703h-9.0312v47.703h-8.5938v6.9844h8.5938v3.8125q0 9.125 4.25 13.297 4.25 4.1875 13.469 4.1875z"/>
<path id="ab" d="m30.609 48.391q-7.2188 0-11.422-5.6406t-4.2031-15.453 4.1719-15.453q4.1875-5.6406 11.453-5.6406 7.1875 0 11.375 5.6562 4.2031 5.6719 4.2031 15.438 0 9.7188-4.2031 15.406-4.1875 5.6875-11.375 5.6875zm0 7.6094q11.719 0 18.406-7.625 6.7031-7.6094 6.7031-21.078 0-13.422-6.7031-21.078-6.6875-7.6406-18.406-7.6406-11.766 0-18.438 7.6406-6.6562 7.6562-6.6562 21.078 0 13.469 6.6562 21.078 6.6719 7.625 18.438 7.625z"/>
</defs>
<g transform="translate(297.85 969.12) scale(.1 -.1)">
<use xlink:href="#ap"/>
<use x="63.476562" xlink:href="#d"/>
<use x="125" xlink:href="#i"/>
<use x="166.113281" xlink:href="#ak"/>
<use x="201.318359" xlink:href="#ab"/>
<use x="262.5" xlink:href="#i"/>
<use x="303.597656" xlink:href="#l"/>
<use x="401.009766" xlink:href="#d"/>
<use x="462.533203" xlink:href="#u"/>
</g>
</g>
<g clip-path="url(#a)">
<defs>
<path id="ag" d="m48.688 27.297q0 9.9062-4.0781 15.547t-11.203 5.6406q-7.1406 0-11.219-5.6406t-4.0781-15.547 4.0781-15.547 11.219-5.6406q7.125 0 11.203 5.6406t4.0781 15.547zm-30.578 19.094q2.8438 4.875 7.1562 7.2344 4.3281 2.375 10.328 2.375 9.9688 0 16.188-7.9062 6.2344-7.9062 6.2344-20.797t-6.2344-20.812q-6.2188-7.9062-16.188-7.9062-6 0-10.328 2.375-4.3125 2.375-7.1562 7.25v-8.2031h-9.0312v75.984h9.0312z"/>
<path id="an" d="m32.172-5.0781q-3.7969-9.7656-7.4219-12.734-3.6094-2.9844-9.6562-2.9844h-7.1875v7.5156h5.2812q3.7031 0 5.75 1.7656 2.0625 1.75 4.5469 8.2969l1.6094 4.0938-22.109 53.812h9.5156l17.094-42.766 17.094 42.766h9.5156z"/>
</defs>
<g transform="translate(365.32 969.12) scale(.1 -.1)">
<use xlink:href="#ag"/>
<use x="63.476562" xlink:href="#an"/>
</g>
</g>
<g clip-path="url(#a)">
<defs>
<path id="at" d="m19.672 34.812v-26.703h15.828q7.9531 0 11.781 3.2969 3.8438 3.2969 3.8438 10.078 0 6.8438-3.8438 10.078-3.8281 3.25-11.781 3.25zm0 29.984v-21.969h14.609q7.2188 0 10.75 2.7031 3.5469 2.7188 3.5469 8.2812 0 5.5156-3.5469 8.25-3.5312 2.7344-10.75 2.7344zm-9.8594 8.1094h25.203q11.281 0 17.375-4.6875 6.1094-4.6875 6.1094-13.328 0-6.7031-3.125-10.656t-9.1875-4.9219q7.2812-1.5625 11.312-6.5312 4.0312-4.9531 4.0312-12.375 0-9.7656-6.6406-15.094-6.6406-5.3125-18.906-5.3125h-26.172z"/>
</defs>
<g transform="translate(406.02 969.12) scale(.1 -.1)">
<use xlink:href="#at"/>
<use x="68.603516" xlink:href="#e"/>
<use x="129.882812" xlink:href="#g"/>
<use x="193.261719" xlink:href="#e"/>
</g>
</g>
<g clip-path="url(#a)">
<g transform="translate(464.46 969.12) scale(.1 -.1)">
<use xlink:href="#aj"/>
</g>
</g>
<g clip-path="url(#a)">
<defs>
<path id="x" d="m8.5 21.578v33.109h8.9844v-32.766q0-7.7656 3.0156-11.656 3.0312-3.875 9.0938-3.875 7.2656 0 11.484 4.6406 4.2344 4.6406 4.2344 12.656v31h8.9844v-54.688h-8.9844v8.4062q-3.2656-4.9844-7.5938-7.4062-4.3125-2.4219-10.031-2.4219-9.4219 0-14.312 5.8594-4.875 5.8594-4.875 17.141z"/>
</defs>
<g transform="translate(492.01 969.12) scale(.1 -.1)">
<use xlink:href="#ak"/>
<use x="35.205078" xlink:href="#d"/>
<use x="96.728516" xlink:href="#e"/>
<use x="158.007812" xlink:href="#m"/>
<use x="197.216797" xlink:href="#x"/>
<use x="260.595703" xlink:href="#i"/>
<use x="301.677734" xlink:href="#d"/>
<use x="363.201172" xlink:href="#u"/>
</g>
</g>
<g clip-path="url(#a)">
<defs>
<path id="av" d="m9.0781 75.984h9.0312v-44.875l26.812 23.578h11.469l-29-25.578 30.234-29.109h-11.719l-27.797 26.703v-26.703h-9.0312z"/>
</defs>
<g transform="translate(549.19 969.12) scale(.1 -.1)">
<use xlink:href="#s"/>
<use x="52.099609" xlink:href="#av"/>
<use x="110.009766" xlink:href="#h"/>
<use x="137.792969" xlink:href="#m"/>
<use x="177.001953" xlink:href="#s"/>
</g>
</g>
<g clip-path="url(#a)">
<g transform="translate(606.35 969.12) scale(.1 -.1)">
<use xlink:href="#aj"/>
</g>
</g>
<g clip-path="url(#a)">
<g transform="translate(641.26 969.12) scale(.1 -.1)">
<use xlink:href="#s"/>
<use x="52.099609" xlink:href="#m"/>
<use x="91.308594" xlink:href="#e"/>
<use x="152.587891" xlink:href="#g"/>
<use x="215.966797" xlink:href="#u"/>
</g>
</g>
<g clip-path="url(#a)">
<defs>
<path id="au" d="m4.8906 31.391h26.312v-8h-26.312z"/>
</defs>
<g transform="translate(700.73 969.12) scale(.1 -.1)">
<use xlink:href="#au"/>
</g>
</g>
<g clip-path="url(#a)">
<g transform="translate(743.49 969.12) scale(.1 -.1)">
<use xlink:href="#x"/>
<use x="63.378906" xlink:href="#ap"/>
</g>
</g>
<g clip-path="url(#a)">
<g transform="translate(787.72 969.12) scale(.1 -.1)">
<use xlink:href="#e"/>
<use x="61.279297" xlink:href="#g"/>
<use x="124.658203" xlink:href="#u"/>
</g>
</g>
<g clip-path="url(#a)">
<defs>
<path id="ac" d="m48.781 52.594v-8.4062q-3.8125 2.1094-7.6406 3.1562t-7.7344 1.0469q-8.75 0-13.594-5.5469-4.8281-5.5312-4.8281-15.547t4.8281-15.562q4.8438-5.5312 13.594-5.5312 3.9062 0 7.7344 1.0469t7.6406 3.1562v-8.3125q-3.7656-1.75-7.7969-2.625-4.0156-0.89062-8.5625-0.89062-12.359 0-19.641 7.7656-7.2656 7.7656-7.2656 20.953 0 13.375 7.3438 21.031 7.3594 7.6719 20.156 7.6719 4.1406 0 8.0938-0.85938 3.9531-0.84375 7.6719-2.5469z"/>
</defs>
<g transform="translate(822.59 969.12) scale(.1 -.1)">
<use xlink:href="#ac"/>
<use x="54.980469" xlink:href="#d"/>
<use x="116.503906" xlink:href="#j"/>
<use x="144.287109" xlink:href="#d"/>
<use x="205.810547" xlink:href="#ag"/>
<use x="269.287109" xlink:href="#i"/>
<use x="310.400391" xlink:href="#h"/>
<use x="338.183594" xlink:href="#m"/>
<use x="377.392578" xlink:href="#an"/>
</g>
</g>
<g clip-path="url(#a)">
<defs>
<path id="aq" d="m45.406 27.984q0 9.7656-4.0312 15.125-4.0156 5.375-11.297 5.375-7.2188 0-11.25-5.375-4.0312-5.3594-4.0312-15.125 0-9.7188 4.0312-15.094t11.25-5.375q7.2812 0 11.297 5.375 4.0312 5.375 4.0312 15.094zm8.9844-21.203q0-13.953-6.2031-20.766-6.1875-6.8125-18.984-6.8125-4.7344 0-8.9375 0.70312t-8.1562 2.1719v8.7344q3.9531-2.1406 7.8125-3.1562 3.8594-1.0312 7.8594-1.0312 8.8438 0 13.234 4.6094t4.3906 13.938v4.4531q-2.7812-4.8438-7.125-7.2344t-10.406-2.3906q-10.047 0-16.203 7.6562-6.1562 7.6719-6.1562 20.328 0 12.688 6.1562 20.344 6.1562 7.6719 16.203 7.6719 6.0625 0 10.406-2.3906t7.125-7.2188v8.2969h8.9844z"/>
</defs>
<g transform="translate(875.13 969.12) scale(.1 -.1)">
<use xlink:href="#aq"/>
<use x="63.476562" xlink:href="#x"/>
<use x="126.855469" xlink:href="#d"/>
<use x="188.378906" xlink:href="#s"/>
<use x="240.478516" xlink:href="#m"/>
<use x="279.6875" xlink:href="#s"/>
</g>
</g>
<g clip-path="url(#a)">
<g transform="translate(937.43 969.12) scale(.1 -.1)">
<use xlink:href="#aj"/>
</g>
</g>
<g clip-path="url(#a)">
<g transform="translate(978.01 969.12) scale(.1 -.1)">
<use xlink:href="#ag"/>
<use x="63.476562" xlink:href="#x"/>
<use x="126.855469" xlink:href="#m"/>
</g>
</g>
<g clip-path="url(#a)">
<g transform="translate(1019.8 969.12) scale(.1 -.1)">
<use xlink:href="#ak"/>
<use x="35.205078" xlink:href="#e"/>
<use x="96.484375" xlink:href="#h"/>
<use x="124.267578" xlink:href="#j"/>
<use x="152.050781" xlink:href="#d"/>
<use x="213.574219" xlink:href="#u"/>
</g>
</g>
<g clip-path="url(#a)">
<g transform="translate(1075.9 969.12) scale(.1 -.1)">
<use xlink:href="#m"/>
<use x="39.208984" xlink:href="#ab"/>
</g>
</g>
<g clip-path="url(#a)">
<g transform="translate(1111.4 969.12) scale(.1 -.1)">
<use xlink:href="#e"/>
<use x="61.279297" xlink:href="#m"/>
<use x="100.488281" xlink:href="#m"/>
<use x="139.697266" xlink:href="#i"/>
<use x="180.810547" xlink:href="#e"/>
<use x="242.089844" xlink:href="#ac"/>
<use x="297.070312" xlink:href="#m"/>
</g>
</g>
<g clip-path="url(#a)">
<g transform="translate(1172.4 969.12) scale(.1 -.1)">
<use xlink:href="#e"/>
</g>
</g>
<g clip-path="url(#a)">
<g transform="translate(1195.3 969.12) scale(.1 -.1)">
<use xlink:href="#s"/>
<use x="52.099609" xlink:href="#x"/>
<use x="115.478516" xlink:href="#ag"/>
<use x="178.955078" xlink:href="#s"/>
<use x="231.054688" xlink:href="#m"/>
<use x="270.263672" xlink:href="#e"/>
<use x="331.542969" xlink:href="#g"/>
<use x="394.921875" xlink:href="#m"/>
<use x="434.130859" xlink:href="#h"/>
<use x="461.914062" xlink:href="#e"/>
<use x="523.193359" xlink:href="#j"/>
</g>
</g>
<g clip-path="url(#a)">
<g transform="translate(1247.2 969.12) scale(.1 -.1)">
<use xlink:href="#e"/>
<use x="61.279297" xlink:href="#x"/>
<use x="124.658203" xlink:href="#u"/>
<use x="188.134766" xlink:href="#h"/>
<use x="215.917969" xlink:href="#d"/>
<use x="277.441406" xlink:href="#g"/>
<use x="340.820312" xlink:href="#ac"/>
<use x="395.800781" xlink:href="#d"/>
</g>
</g>
<g clip-path="url(#a)">
<g transform="translate(1308 969.12) scale(.1 -.1)">
<use xlink:href="#e"/>
<use x="61.279297" xlink:href="#g"/>
<use x="124.658203" xlink:href="#u"/>
</g>
</g>
<g clip-path="url(#a)">
<g transform="translate(1354.9 969.12) scale(.1 -.1)">
<use xlink:href="#ao"/>
<use x="81.787109" xlink:href="#e"/>
<use x="143.066406" xlink:href="#s"/>
</g>
</g>
<g clip-path="url(#a)">
<g transform="translate(1388.2 969.12) scale(.1 -.1)">
<use xlink:href="#ac"/>
<use x="54.980469" xlink:href="#e"/>
<use x="116.259766" xlink:href="#g"/>
<use x="179.638672" xlink:href="#ac"/>
<use x="234.619141" xlink:href="#d"/>
<use x="296.142578" xlink:href="#j"/>
<use x="323.925781" xlink:href="#j"/>
<use x="351.708984" xlink:href="#d"/>
<use x="413.232422" xlink:href="#u"/>
</g>
</g>
<g clip-path="url(#a)">
<g transform="translate(1447.4 969.12) scale(.1 -.1)">
<use xlink:href="#e"/>
<use x="61.279297" xlink:href="#ak"/>
<use x="96.46875" xlink:href="#m"/>
<use x="135.677734" xlink:href="#d"/>
<use x="197.201172" xlink:href="#i"/>
</g>
</g>
<g clip-path="url(#a)">
<g transform="translate(1496 969.12) scale(.1 -.1)">
<use xlink:href="#ab"/>
<use x="61.181641" xlink:href="#g"/>
<use x="124.560547" xlink:href="#j"/>
<use x="152.34375" xlink:href="#an"/>
</g>
</g>
<g clip-path="url(#a)">
<g transform="translate(1541.1 969.12) scale(.1 -.1)">
<use xlink:href="#d"/>
<use x="61.523438" xlink:href="#h"/>
<use x="89.306641" xlink:href="#aq"/>
<use x="152.783203" xlink:href="#as"/>
<use x="216.162109" xlink:href="#m"/>
</g>
</g>
<g clip-path="url(#a)">
<g transform="translate(1579 969.12) scale(.1 -.1)">
<use xlink:href="#d"/>
<use x="61.523438" xlink:href="#ap"/>
<use x="125" xlink:href="#h"/>
<use x="152.783203" xlink:href="#s"/>
<use x="204.882812" xlink:href="#ab"/>
<use x="266.064453" xlink:href="#u"/>
<use x="329.541016" xlink:href="#d"/>
<use x="391.064453" xlink:href="#s"/>
</g>
</g>
<g clip-path="url(#a)">
<g transform="translate(1639.1 969.12) scale(.1 -.1)">
<use xlink:href="#u"/>
<use x="63.476562" xlink:href="#x"/>
<use x="126.855469" xlink:href="#d"/>
</g>
</g>
<g clip-path="url(#a)">
<g transform="translate(1690.8 969.12) scale(.1 -.1)">
<use xlink:href="#m"/>
<use x="39.208984" xlink:href="#ab"/>
</g>
</g>
<g clip-path="url(#a)">
<g transform="translate(1734.5 969.12) scale(.1 -.1)">
<use xlink:href="#j"/>
<use x="27.783203" xlink:href="#ab"/>
<use x="88.964844" xlink:href="#ao"/>
</g>
</g>
<g clip-path="url(#a)">
<g transform="translate(1773 969.12) scale(.1 -.1)">
<use xlink:href="#i"/>
<use x="41.113281" xlink:href="#e"/>
<use x="102.392578" xlink:href="#m"/>
<use x="141.601562" xlink:href="#h"/>
<use x="169.384766" xlink:href="#g"/>
<use x="232.763672" xlink:href="#aq"/>
<use x="296.240234" xlink:href="#s"/>
</g>
</g>
<g clip-path="url(#a)">
<defs>
<path id="f" d="m10.688 12.406h10.312v-12.406h-10.312z"/>
</defs>
<g transform="translate(1836.1 969.12) scale(.1 -.1)">
<use xlink:href="#f"/>
</g>
</g>
<g clip-path="url(#a)">
<defs>
<path id="c" d="m12.406 8.2969h16.109v55.625l-17.531-3.5156v8.9844l17.438 3.5156h9.8594v-64.609h16.109v-8.2969h-41.984z"/>
</defs>
<g transform="translate(930.43 49.734) scale(.1 -.1)">
<use xlink:href="#c"/>
<use x="63.623047" xlink:href="#f"/>
<use x="95.410156" xlink:href="#c"/>
</g>
</g>
<g clip-path="url(#a)">
<defs>
<path id="p" d="m19.188 8.2969h34.422v-8.2969h-46.281v8.2969q5.6094 5.8125 15.297 15.594 9.7031 9.7969 12.188 12.641 4.7344 5.3125 6.6094 9 1.8906 3.6875 1.8906 7.25 0 5.8125-4.0781 9.4688-4.0781 3.6719-10.625 3.6719-4.6406 0-9.7969-1.6094-5.1406-1.6094-11-4.8906v9.9688q5.9531 2.3906 11.125 3.6094 5.1875 1.2188 9.4844 1.2188 11.328 0 18.062-5.6719 6.7344-5.6562 6.7344-15.125 0-4.5-1.6875-8.5312-1.6719-4.0156-6.125-9.4844-1.2188-1.4219-7.7656-8.1875-6.5312-6.7656-18.453-18.922z"/>
</defs>
<g transform="translate(455.83 210.77) scale(.1 -.1)">
<use xlink:href="#c"/>
<use x="63.623047" xlink:href="#f"/>
<use x="95.410156" xlink:href="#p"/>
</g>
</g>
<g clip-path="url(#a)">
<defs>
<path id="r" d="m40.578 39.312q7.0781-1.5156 11.047-6.3125 3.9844-4.7812 3.9844-11.812 0-10.781-7.4219-16.703-7.4219-5.9062-21.094-5.9062-4.5781 0-9.4375 0.90625t-10.031 2.7188v9.5156q4.0938-2.3906 8.9688-3.6094 4.8906-1.2188 10.219-1.2188 9.2656 0 14.125 3.6562t4.8594 10.641q0 6.4531-4.5156 10.078-4.5156 3.6406-12.562 3.6406h-8.5v8.1094h8.8906q7.2656 0 11.125 2.9062t3.8594 8.375q0 5.6094-3.9844 8.6094-3.9688 3.0156-11.391 3.0156-4.0625 0-8.7031-0.89062-4.6406-0.875-10.203-2.7188v8.7812q5.625 1.5625 10.531 2.3438t9.25 0.78125q11.234 0 17.766-5.1094 6.5469-5.0938 6.5469-13.781 0-6.0625-3.4688-10.234t-9.8594-5.7812z"/>
</defs>
<g transform="translate(978.36 820.55) scale(.1 -.1)">
<use xlink:href="#c"/>
<use x="63.623047" xlink:href="#f"/>
<use x="95.410156" xlink:href="#r"/>
</g>
</g>
<g clip-path="url(#a)">
<defs>
<path id="q" d="m37.797 64.312-24.906-38.922h24.906zm-2.5938 8.5938h12.406v-47.516h10.406v-8.2031h-10.406v-17.188h-9.8125v17.188h-32.906v9.5156z"/>
</defs>
<g transform="translate(678.81 367.8) scale(.1 -.1)">
<use xlink:href="#c"/>
<use x="63.623047" xlink:href="#f"/>
<use x="95.410156" xlink:href="#q"/>
</g>
</g>
<g clip-path="url(#a)">
<defs>
<path id="n" d="m10.797 72.906h38.719v-8.3125h-29.688v-17.859q2.1406 0.73438 4.2812 1.0938 2.1562 0.35938 4.3125 0.35938 12.203 0 19.328-6.6875 7.1406-6.6875 7.1406-18.109 0-11.766-7.3281-18.297-7.3281-6.5156-20.656-6.5156-4.5938 0-9.3594 0.78125-4.75 0.78125-9.8281 2.3438v9.9219q4.3906-2.3906 9.0781-3.5625t9.9062-1.1719q8.4531 0 13.375 4.4375 4.9375 4.4375 4.9375 12.062 0 7.6094-4.9375 12.047-4.9219 4.4531-13.375 4.4531-3.9531 0-7.8906-0.875-3.9219-0.875-8.0156-2.7344z"/>
</defs>
<g transform="translate(1309.4 820.55) scale(.1 -.1)">
<use xlink:href="#c"/>
<use x="63.623047" xlink:href="#f"/>
<use x="95.410156" xlink:href="#n"/>
</g>
</g>
<g clip-path="url(#a)">
<defs>
<path id="aa" d="m33.016 40.375q-6.6406 0-10.531-4.5469-3.875-4.5312-3.875-12.438 0-7.8594 3.875-12.438 3.8906-4.5625 10.531-4.5625t10.516 4.5625q3.875 4.5781 3.875 12.438 0 7.9062-3.875 12.438-3.875 4.5469-10.516 4.5469zm19.578 30.922v-8.9844q-3.7188 1.75-7.5 2.6719-3.7812 0.9375-7.5 0.9375-9.7656 0-14.922-6.5938-5.1406-6.5938-5.875-19.922 2.875 4.25 7.2188 6.5156 4.3594 2.2656 9.5781 2.2656 10.984 0 17.359-6.6719 6.375-6.6562 6.375-18.125 0-11.234-6.6406-18.031-6.6406-6.7812-17.672-6.7812-12.656 0-19.344 9.6875-6.6875 9.7031-6.6875 28.109 0 17.281 8.2031 27.562t22.016 10.281q3.7188 0 7.5-0.73438t7.8906-2.1875z"/>
</defs>
<g transform="translate(1229 521.34) scale(.1 -.1)">
<use xlink:href="#c"/>
<use x="63.623047" xlink:href="#f"/>
<use x="95.410156" xlink:href="#aa"/>
</g>
</g>
<g clip-path="url(#a)">
<defs>
<path id="z" d="m10.984 1.5156v8.9844q3.7188-1.7656 7.5156-2.6875 3.8125-0.92188 7.4844-0.92188 9.7656 0 14.906 6.5625 5.1562 6.5625 5.8906 19.953-2.8281-4.2031-7.1875-6.4531-4.3438-2.25-9.6094-2.25-10.938 0-17.312 6.6094-6.375 6.625-6.375 18.109 0 11.219 6.6406 18 6.6406 6.7969 17.672 6.7969 12.656 0 19.312-9.7031 6.6719-9.6875 6.6719-28.141 0-17.234-8.1875-27.516-8.1719-10.281-21.984-10.281-3.7188 0-7.5312 0.73438-3.7969 0.73438-7.9062 2.2031zm19.625 30.906q6.6406 0 10.516 4.5312 3.8906 4.5469 3.8906 12.469 0 7.8594-3.8906 12.422-3.875 4.5625-10.516 4.5625t-10.516-4.5625-3.875-12.422q0-7.9219 3.875-12.469 3.875-4.5312 10.516-4.5312z"/>
</defs>
<g transform="translate(1356.7 820.55) scale(.1 -.1)">
<use xlink:href="#c"/>
<use x="63.623047" xlink:href="#f"/>
<use x="95.410156" xlink:href="#z"/>
</g>
</g>
<g clip-path="url(#a)">
<defs>
<path id="af" d="m31.781 66.406q-7.6094 0-11.453-7.5-3.8281-7.4844-3.8281-22.531 0-14.984 3.8281-22.484 3.8438-7.5 11.453-7.5 7.6719 0 11.5 7.5 3.8438 7.5 3.8438 22.484 0 15.047-3.8438 22.531-3.8281 7.5-11.5 7.5zm0 7.8125q12.266 0 18.734-9.7031 6.4688-9.6875 6.4688-28.141 0-18.406-6.4688-28.109-6.4688-9.6875-18.734-9.6875-12.25 0-18.719 9.6875-6.4688 9.7031-6.4688 28.109 0 18.453 6.4688 28.141 6.4688 9.7031 18.719 9.7031z"/>
</defs>
<g transform="translate(1400.9 820.55) scale(.1 -.1)">
<use xlink:href="#c"/>
<use x="63.623047" xlink:href="#f"/>
<use x="95.410156" xlink:href="#c"/>
<use x="159.033203" xlink:href="#af"/>
</g>
</g>
<g clip-path="url(#a)">
<g transform="translate(1519.1 671.98) scale(.1 -.1)">
<use xlink:href="#c"/>
<use x="63.623047" xlink:href="#f"/>
<use x="95.410156" xlink:href="#c"/>
<use x="159.033203" xlink:href="#c"/>
</g>
</g>
<g clip-path="url(#a)">
<g transform="translate(1731.9 671.98) scale(.1 -.1)">
<use xlink:href="#c"/>
<use x="63.623047" xlink:href="#f"/>
<use x="95.410156" xlink:href="#c"/>
<use x="159.033203" xlink:href="#p"/>
</g>
</g>
<g clip-path="url(#a)">
<g transform="translate(1637.3 820.55) scale(.1 -.1)">
<use xlink:href="#c"/>
<use x="63.623047" xlink:href="#f"/>
<use x="95.410156" xlink:href="#c"/>
<use x="159.033203" xlink:href="#r"/>
</g>
</g>
<g clip-path="url(#a)">
<g transform="translate(1684.6 820.55) scale(.1 -.1)">
<use xlink:href="#c"/>
<use x="63.623047" xlink:href="#f"/>
<use x="95.410156" xlink:href="#c"/>
<use x="159.033203" xlink:href="#q"/>
</g>
</g>
<g clip-path="url(#a)">
<g transform="translate(1731.9 820.55) scale(.1 -.1)">
<use xlink:href="#c"/>
<use x="63.623047" xlink:href="#f"/>
<use x="95.410156" xlink:href="#c"/>
<use x="159.033203" xlink:href="#n"/>
</g>
</g>
<g clip-path="url(#a)">
<g transform="translate(1779.2 820.55) scale(.1 -.1)">
<use xlink:href="#c"/>
<use x="63.623047" xlink:href="#f"/>
<use x="95.410156" xlink:href="#c"/>
<use x="159.033203" xlink:href="#aa"/>
</g>
</g>
<g clip-path="url(#a)">
<defs>
<path id="ai" d="m8.2031 72.906h46.875v-4.2031l-26.469-68.703h-10.297l24.906 64.594h-35.016z"/>
</defs>
<g transform="translate(1448.2 820.55) scale(.1 -.1)">
<use xlink:href="#c"/>
<use x="63.623047" xlink:href="#f"/>
<use x="95.410156" xlink:href="#c"/>
<use x="159.033203" xlink:href="#ai"/>
</g>
</g>
<g clip-path="url(#a)">
<defs>
<path id="ah" d="m31.781 34.625q-7.0312 0-11.062-3.7656-4.0156-3.7656-4.0156-10.344 0-6.5938 4.0156-10.359 4.0312-3.7656 11.062-3.7656t11.078 3.7812q4.0625 3.7969 4.0625 10.344 0 6.5781-4.0312 10.344-4.0156 3.7656-11.109 3.7656zm-9.8594 4.1875q-6.3438 1.5625-9.8906 5.9062-3.5312 4.3594-3.5312 10.609 0 8.7344 6.2188 13.812 6.2344 5.0781 17.062 5.0781 10.891 0 17.094-5.0781t6.2031-13.812q0-6.25-3.5469-10.609-3.5312-4.3438-9.8281-5.9062 7.125-1.6562 11.094-6.5 3.9844-4.8281 3.9844-11.797 0-10.609-6.4688-16.281-6.4688-5.6562-18.531-5.6562-12.047 0-18.531 5.6562-6.4688 5.6719-6.4688 16.281 0 6.9688 4 11.797 4.0156 4.8438 11.141 6.5zm-3.6094 15.578q0-5.6562 3.5312-8.8281 3.5469-3.1719 9.9375-3.1719 6.3594 0 9.9375 3.1719 3.5938 3.1719 3.5938 8.8281 0 5.6719-3.5938 8.8438-3.5781 3.1719-9.9375 3.1719-6.3906 0-9.9375-3.1719-3.5312-3.1719-3.5312-8.8438z"/>
</defs>
<g transform="translate(1495.5 820.55) scale(.1 -.1)">
<use xlink:href="#c"/>
<use x="63.623047" xlink:href="#f"/>
<use x="95.410156" xlink:href="#c"/>
<use x="159.033203" xlink:href="#ah"/>
</g>
</g>
<g clip-path="url(#a)">
<g transform="translate(1542.7 820.55) scale(.1 -.1)">
<use xlink:href="#c"/>
<use x="63.623047" xlink:href="#f"/>
<use x="95.410156" xlink:href="#c"/>
<use x="159.033203" xlink:href="#z"/>
</g>
</g>
<g clip-path="url(#a)">
<g transform="translate(1590 820.55) scale(.1 -.1)">
<use xlink:href="#c"/>
<use x="63.623047" xlink:href="#f"/>
<use x="95.410156" xlink:href="#p"/>
<use x="159.033203" xlink:href="#af"/>
</g>
</g>
<g clip-path="url(#a)">
<g transform="translate(1022.5 820.55) scale(.1 -.1)">
<use xlink:href="#c"/>
<use x="63.623047" xlink:href="#f"/>
<use x="95.410156" xlink:href="#p"/>
<use x="159.033203" xlink:href="#c"/>
</g>
</g>
<g clip-path="url(#a)">
<g transform="translate(880.59 521.34) scale(.1 -.1)">
<use xlink:href="#c"/>
<use x="63.623047" xlink:href="#f"/>
<use x="95.410156" xlink:href="#p"/>
<use x="159.033203" xlink:href="#p"/>
</g>
</g>
<g clip-path="url(#a)">
<g transform="translate(1069.8 820.55) scale(.1 -.1)">
<use xlink:href="#c"/>
<use x="63.623047" xlink:href="#f"/>
<use x="95.410156" xlink:href="#p"/>
<use x="159.033203" xlink:href="#r"/>
</g>
</g>
<g clip-path="url(#a)">
<g transform="translate(1117.1 820.55) scale(.1 -.1)">
<use xlink:href="#c"/>
<use x="63.623047" xlink:href="#f"/>
<use x="95.410156" xlink:href="#p"/>
<use x="159.033203" xlink:href="#q"/>
</g>
</g>
<g clip-path="url(#a)">
<g transform="translate(1211.7 671.98) scale(.1 -.1)">
<use xlink:href="#c"/>
<use x="63.623047" xlink:href="#f"/>
<use x="95.410156" xlink:href="#p"/>
<use x="159.033203" xlink:href="#n"/>
</g>
</g>
<g clip-path="url(#a)">
<g transform="translate(1164.4 820.55) scale(.1 -.1)">
<use xlink:href="#c"/>
<use x="63.623047" xlink:href="#f"/>
<use x="95.410156" xlink:href="#p"/>
<use x="159.033203" xlink:href="#aa"/>
</g>
</g>
<g clip-path="url(#a)">
<g transform="translate(1211.7 820.55) scale(.1 -.1)">
<use xlink:href="#c"/>
<use x="63.623047" xlink:href="#f"/>
<use x="95.410156" xlink:href="#p"/>
<use x="159.033203" xlink:href="#ai"/>
</g>
</g>
<g clip-path="url(#a)">
<g transform="translate(1259 820.55) scale(.1 -.1)">
<use xlink:href="#c"/>
<use x="63.623047" xlink:href="#f"/>
<use x="95.410156" xlink:href="#p"/>
<use x="159.033203" xlink:href="#ah"/>
</g>
</g>
<g clip-path="url(#a)">
<g transform="translate(157.33 367.8) scale(.1 -.1)">
<use xlink:href="#c"/>
<use x="63.623047" xlink:href="#f"/>
<use x="95.410156" xlink:href="#p"/>
<use x="159.033203" xlink:href="#z"/>
</g>
</g>
<g clip-path="url(#a)">
<g transform="translate(502.21 820.55) scale(.1 -.1)">
<use xlink:href="#c"/>
<use x="63.623047" xlink:href="#f"/>
<use x="95.410156" xlink:href="#r"/>
<use x="159.033203" xlink:href="#af"/>
</g>
</g>
<g clip-path="url(#a)">
<g transform="translate(696.13 521.34) scale(.1 -.1)">
<use xlink:href="#c"/>
<use x="63.623047" xlink:href="#f"/>
<use x="95.410156" xlink:href="#r"/>
<use x="159.033203" xlink:href="#c"/>
</g>
</g>
<g clip-path="url(#a)">
<g transform="translate(549.51 820.55) scale(.1 -.1)">
<use xlink:href="#c"/>
<use x="63.623047" xlink:href="#f"/>
<use x="95.410156" xlink:href="#r"/>
<use x="159.033203" xlink:href="#r"/>
</g>
</g>
<g clip-path="url(#a)">
<g transform="translate(691.4 671.98) scale(.1 -.1)">
<use xlink:href="#c"/>
<use x="63.623047" xlink:href="#f"/>
<use x="95.410156" xlink:href="#r"/>
<use x="159.033203" xlink:href="#q"/>
</g>
</g>
<g clip-path="url(#a)">
<g transform="translate(785.99 820.55) scale(.1 -.1)">
<use xlink:href="#c"/>
<use x="63.623047" xlink:href="#f"/>
<use x="95.410156" xlink:href="#r"/>
<use x="159.033203" xlink:href="#n"/>
</g>
</g>
<g clip-path="url(#a)">
<g transform="translate(856.94 671.98) scale(.1 -.1)">
<use xlink:href="#c"/>
<use x="63.623047" xlink:href="#f"/>
<use x="95.410156" xlink:href="#r"/>
<use x="159.033203" xlink:href="#aa"/>
</g>
</g>
<g clip-path="url(#a)">
<g transform="translate(833.29 820.55) scale(.1 -.1)">
<use xlink:href="#c"/>
<use x="63.623047" xlink:href="#f"/>
<use x="95.410156" xlink:href="#r"/>
<use x="159.033203" xlink:href="#z"/>
</g>
</g>
<g clip-path="url(#a)">
<g transform="translate(880.59 820.55) scale(.1 -.1)">
<use xlink:href="#c"/>
<use x="63.623047" xlink:href="#f"/>
<use x="95.410156" xlink:href="#q"/>
<use x="159.033203" xlink:href="#af"/>
</g>
</g>
<g clip-path="url(#a)">
<g transform="translate(76.536 820.55) scale(.1 -.1)">
<use xlink:href="#c"/>
<use x="63.623047" xlink:href="#f"/>
<use x="95.410156" xlink:href="#q"/>
<use x="159.033203" xlink:href="#c"/>
</g>
</g>
<g clip-path="url(#a)">
<g transform="translate(123.83 820.55) scale(.1 -.1)">
<use xlink:href="#c"/>
<use x="63.623047" xlink:href="#f"/>
<use x="95.410156" xlink:href="#q"/>
<use x="159.033203" xlink:href="#p"/>
</g>
</g>
<g clip-path="url(#a)">
<g transform="translate(257.84 521.34) scale(.1 -.1)">
<use xlink:href="#c"/>
<use x="63.623047" xlink:href="#f"/>
<use x="95.410156" xlink:href="#q"/>
<use x="159.033203" xlink:href="#r"/>
</g>
</g>
<g clip-path="url(#a)">
<g transform="translate(265.72 671.98) scale(.1 -.1)">
<use xlink:href="#c"/>
<use x="63.623047" xlink:href="#f"/>
<use x="95.410156" xlink:href="#q"/>
<use x="159.033203" xlink:href="#n"/>
</g>
</g>
<g clip-path="url(#a)">
<g transform="translate(383.97 671.98) scale(.1 -.1)">
<use xlink:href="#c"/>
<use x="63.623047" xlink:href="#f"/>
<use x="95.410156" xlink:href="#q"/>
<use x="159.033203" xlink:href="#aa"/>
</g>
</g>
<g clip-path="url(#a)">
<g transform="translate(360.32 820.55) scale(.1 -.1)">
<use xlink:href="#c"/>
<use x="63.623047" xlink:href="#f"/>
<use x="95.410156" xlink:href="#q"/>
<use x="159.033203" xlink:href="#ai"/>
</g>
</g>
<g clip-path="url(#a)">
<g transform="translate(407.62 820.55) scale(.1 -.1)">
<use xlink:href="#c"/>
<use x="63.623047" xlink:href="#f"/>
<use x="95.410156" xlink:href="#q"/>
<use x="159.033203" xlink:href="#ah"/>
</g>
</g>
<g clip-path="url(#a)">
<g transform="translate(218.43 820.55) scale(.1 -.1)">
<use xlink:href="#c"/>
<use x="63.623047" xlink:href="#f"/>
<use x="95.410156" xlink:href="#q"/>
<use x="159.033203" xlink:href="#z"/>
</g>
</g>
<g clip-path="url(#a)">
<g transform="translate(265.72 820.55) scale(.1 -.1)">
<use xlink:href="#c"/>
<use x="63.623047" xlink:href="#f"/>
<use x="95.410156" xlink:href="#n"/>
<use x="159.033203" xlink:href="#af"/>
</g>
</g>
<g clip-path="url(#a)">
<g transform="translate(313.02 820.55) scale(.1 -.1)">
<use xlink:href="#c"/>
<use x="63.623047" xlink:href="#f"/>
<use x="95.410156" xlink:href="#n"/>
<use x="159.033203" xlink:href="#c"/>
</g>
</g>
<g clip-path="url(#a)">
<g transform="translate(1069.3 210.77) scale(.1 -.1)">
<use xlink:href="#c"/>
<use x="63.623047" xlink:href="#f"/>
<use x="95.410156" xlink:href="#n"/>
<use x="159.033203" xlink:href="#p"/>
</g>
</g>
<g clip-path="url(#a)">
<g transform="translate(701.15 49.734) scale(.1 -.1)">
<use xlink:href="#c"/>
<use x="63.623047" xlink:href="#f"/>
<use x="95.410156" xlink:href="#n"/>
<use x="159.033203" xlink:href="#r"/>
</g>
</g>
<g clip-path="url(#a)">
<g transform="translate(171.13 820.55) scale(.1 -.1)">
<use xlink:href="#c"/>
<use x="63.623047" xlink:href="#f"/>
<use x="95.410156" xlink:href="#n"/>
<use x="159.033203" xlink:href="#q"/>
</g>
</g>
<g clip-path="url(#a)">
<g transform="translate(454.91 820.55) scale(.1 -.1)">
<use xlink:href="#c"/>
<use x="63.623047" xlink:href="#f"/>
<use x="95.410156" xlink:href="#n"/>
<use x="159.033203" xlink:href="#n"/>
</g>
</g>
<g clip-path="url(#a)">
<g transform="translate(596.8 820.55) scale(.1 -.1)">
<use xlink:href="#c"/>
<use x="63.623047" xlink:href="#f"/>
<use x="95.410156" xlink:href="#n"/>
<use x="159.033203" xlink:href="#aa"/>
</g>
</g>
<g clip-path="url(#a)">
<g transform="translate(691.4 820.55) scale(.1 -.1)">
<use xlink:href="#c"/>
<use x="63.623047" xlink:href="#f"/>
<use x="95.410156" xlink:href="#n"/>
<use x="159.033203" xlink:href="#ai"/>
</g>
</g>
<g clip-path="url(#a)">
<g transform="translate(927.89 820.55) scale(.1 -.1)">
<use xlink:href="#c"/>
<use x="63.623047" xlink:href="#f"/>
<use x="95.410156" xlink:href="#n"/>
<use x="159.033203" xlink:href="#ah"/>
</g>
</g>
<g clip-path="url(#a)">
<g transform="translate(1826.5 820.55) scale(.1 -.1)">
<use xlink:href="#c"/>
<use x="63.623047" xlink:href="#f"/>
<use x="95.410156" xlink:href="#n"/>
<use x="159.033203" xlink:href="#z"/>
</g>
</g>
<defs>
<clipPath id="a">
<rect width="1925.3" height="1013.3"/>
</clipPath>
</defs>
</svg>
