<?xml version="1.0" encoding="UTF-8"?>
<!DOCTYPE svg  PUBLIC '-//W3C//DTD SVG 1.1//EN'  'http://www.w3.org/Graphics/SVG/1.1/DTD/svg11.dtd'>
<svg width="1722.7pt" height="906.67pt" version="1.1" viewBox="0 0 1722.7 906.67" xmlns="http://www.w3.org/2000/svg" xmlns:xlink="http://www.w3.org/1999/xlink">
<defs>
<style type="text/css">*{stroke-linecap:butt;stroke-linejoin:round;}</style>
</defs>
<path d="m0 906.67h1722.7v-906.67h-1722.7z" fill="#fff"/>
<g fill="none" stroke="#000">
<path d="m1150.6 42.126-362.76 144.05" clip-path="url(#a)"/>
<path d="m1150.6 42.126 66.622 689.51" clip-path="url(#a)"/>
<path d="m1150.6 42.126-158.75 421.87" clip-path="url(#a)"/>
<path d="m1150.6 42.126 303.85 689.51" clip-path="url(#a)"/>
<path d="m1150.6 42.126 131.86 421.87" clip-path="url(#a)"/>
<path d="m1150.6 42.126 19.176 689.51" clip-path="url(#a)"/>
<path d="m787.79 186.17-408.04 140.47" clip-path="url(#a)"/>
<path d="m787.79 186.17 120.99 412.57" clip-path="url(#a)"/>
<path d="m787.79 186.17 287.05 412.57" clip-path="url(#a)"/>
<path d="m1217.2 731.64v132.9" clip-path="url(#a)"/>
<path d="m991.81 463.99 272.81 267.65" clip-path="url(#a)"/>
<path d="m991.81 463.99 355.84 134.75" clip-path="url(#a)"/>
<path d="m991.81 463.99-628.66 267.65" clip-path="url(#a)" stroke-dasharray="3.7,1.6"/>
<path d="m1454.4 731.64v132.9" clip-path="url(#a)"/>
<path d="m1282.4 463.99 243.16 134.75" clip-path="url(#a)"/>
<path d="m1282.4 463.99 314.33 267.65" clip-path="url(#a)"/>
<path d="m1282.4 463.99-919.27 267.65" clip-path="url(#a)" stroke-dasharray="3.7,1.6"/>
<path d="m1282.4 463.99 361.78 267.65" clip-path="url(#a)"/>
<path d="m1525.6 598.74-23.723 132.9" clip-path="url(#a)"/>
<path d="m1525.6 598.74 23.723 132.9" clip-path="url(#a)"/>
<path d="m1596.7 731.64v132.9" clip-path="url(#a)"/>
<path d="m1501.9 731.64v132.9" clip-path="url(#a)"/>
<path d="m1549.3 731.64v132.9" clip-path="url(#a)"/>
<path d="m1264.6 731.64v132.9" clip-path="url(#a)"/>
<path d="m1347.7 598.74-35.584 132.9" clip-path="url(#a)"/>
<path d="m1347.7 598.74 35.584 132.9" clip-path="url(#a)"/>
<path d="m1312.1 731.64v132.9" clip-path="url(#a)"/>
<path d="m1383.2 731.64-23.723 132.9" clip-path="url(#a)"/>
<path d="m1383.2 731.64 23.723 132.9" clip-path="url(#a)"/>
<path d="m379.76 326.65-241.97 137.34" clip-path="url(#a)"/>
<path d="m379.76 326.65-16.606 404.99" clip-path="url(#a)"/>
<path d="m379.76 326.65 291.79 272.09" clip-path="url(#a)"/>
<path d="m379.76 326.65-158.94 404.99" clip-path="url(#a)"/>
<path d="m379.76 326.65 125.73 404.99" clip-path="url(#a)"/>
<path d="m908.78 598.74-71.169 132.9" clip-path="url(#a)"/>
<path d="m908.78 598.74-23.723 132.9" clip-path="url(#a)"/>
<path d="m908.78 598.74 71.169 132.9" clip-path="url(#a)"/>
<path d="m908.78 598.74 23.723 132.9" clip-path="url(#a)"/>
<path d="m1074.8 598.74-47.446 132.9" clip-path="url(#a)"/>
<path d="m1074.8 598.74v132.9" clip-path="url(#a)"/>
<path d="m1074.8 598.74 47.446 132.9" clip-path="url(#a)"/>
<path d="m1027.4 731.64v132.9" clip-path="url(#a)"/>
<path d="m1074.8 731.64v132.9" clip-path="url(#a)"/>
<path d="m1122.3 731.64v132.9" clip-path="url(#a)"/>
<path d="m837.61 731.64v132.9" clip-path="url(#a)"/>
<path d="m885.06 731.64v132.9" clip-path="url(#a)"/>
<path d="m979.95 731.64v132.9" clip-path="url(#a)"/>
<path d="m137.78 463.99-35.584 134.75" clip-path="url(#a)"/>
<path d="m137.78 463.99 35.584 267.65" clip-path="url(#a)"/>
<path d="m363.15 731.64-94.892 132.9" clip-path="url(#a)"/>
<path d="m363.15 731.64-47.446 132.9" clip-path="url(#a)"/>
<path d="m363.15 731.64v132.9" clip-path="url(#a)"/>
<path d="m363.15 731.64 47.446 132.9" clip-path="url(#a)"/>
<path d="m363.15 731.64 94.892 132.9" clip-path="url(#a)"/>
<path d="m671.55 598.74-118.61 132.9" clip-path="url(#a)"/>
<path d="m671.55 598.74 118.61 132.9" clip-path="url(#a)"/>
<path d="m671.55 598.74-71.169 132.9" clip-path="url(#a)"/>
<path d="m671.55 598.74v132.9" clip-path="url(#a)"/>
<path d="m671.55 598.74 71.169 132.9" clip-path="url(#a)"/>
<path d="m552.93 731.64v132.9" clip-path="url(#a)"/>
<path d="m790.16 731.64v132.9" clip-path="url(#a)"/>
<path d="m600.38 731.64v132.9" clip-path="url(#a)"/>
<path d="m671.55 731.64-23.723 132.9" clip-path="url(#a)"/>
<path d="m671.55 731.64 23.723 132.9" clip-path="url(#a)"/>
<path d="m742.72 731.64v132.9" clip-path="url(#a)"/>
<path d="m102.2 598.74-23.723 132.9" clip-path="url(#a)"/>
<path d="m102.2 598.74 23.723 132.9" clip-path="url(#a)"/>
<path d="m173.37 731.64v132.9" clip-path="url(#a)"/>
<path d="m78.475 731.64v132.9" clip-path="url(#a)"/>
<path d="m125.92 731.64v132.9" clip-path="url(#a)"/>
<path d="m1242.9 326.65-251.07 137.34" clip-path="url(#a)"/>
<path d="m1242.9 326.65 211.53 404.99" clip-path="url(#a)"/>
<path d="m1242.9 326.65 39.538 137.34" clip-path="url(#a)"/>
<path d="m998.93 42.126-211.13 144.05" clip-path="url(#a)"/>
<path d="m998.93 42.126 218.25 689.51" clip-path="url(#a)"/>
<path d="m998.93 42.126-7.1169 421.87" clip-path="url(#a)"/>
<path d="m220.81 731.64v132.9" clip-path="url(#a)"/>
<path d="m505.49 731.64v132.9" clip-path="url(#a)"/>
<path d="m932.5 731.64v132.9" clip-path="url(#a)"/>
<path d="m1169.7 731.64v132.9" clip-path="url(#a)"/>
<path d="m1644.2 731.64v132.9" clip-path="url(#a)"/>
</g>
<path d="m968.69 121.09 5.5915-2.2203q2.2306-0.88573 1.3448-3.1163l-2.8574-7.1959q-0.88573-2.2306-3.1163-1.3448l-5.5915 2.2203q-2.2306 0.88573-1.3448 3.1163l2.8574 7.1959q0.88573 2.2306 3.1163 1.3448z" clip-path="url(#a)" fill="#fff" stroke="#fff"/>
<g clip-path="url(#a)">
<defs>
<path id="af" d="m9.8125 72.906h9.8594v-29.891h35.844v29.891h9.8594v-72.906h-9.8594v34.719h-35.844v-34.719h-9.8594z"/>
</defs>
<g transform="translate(967.19 117.31) rotate(-21.657) scale(.08 -.08)">
<use xlink:href="#af"/>
</g>
</g>
<path d="m1177.4 385.27 0.4287 4.4368q0.23082 2.3889 2.6197 2.1581l7.7066-0.74462q2.3889-0.23082 2.1581-2.6197l-0.4287-4.4368q-0.23082-2.3889-2.6197-2.1581l-7.7066 0.74463q-2.3889 0.23082-2.1581 2.6197z" clip-path="url(#a)" fill="#fff" stroke="#fff"/>
<g clip-path="url(#a)">
<defs>
<path id="s" d="m9.8125 72.906h9.8594v-64.609h35.5v-8.2969h-45.359z"/>
</defs>
<g transform="translate(1181.5 384.88) rotate(84.481) scale(.08 -.08)">
<use xlink:href="#s"/>
</g>
</g>
<path d="m1076 258.08 2.1188-5.6308q0.84525-2.2462-1.401-3.0915l-7.2464-2.7268q-2.2462-0.84525-3.0915 1.401l-2.1188 5.6308q-0.84525 2.2462 1.401 3.0915l7.2464 2.7268q2.2462 0.84525 3.0915-1.401z" clip-path="url(#a)" fill="#fff" stroke="#fff"/>
<g clip-path="url(#a)">
<g transform="translate(1072.2 256.65) rotate(-69.379) scale(.08 -.08)">
<use xlink:href="#af"/>
</g>
</g>
<path d="m1295.8 387.37 1.7975 4.079q0.96782 2.1962 3.164 1.2284l7.0851-3.1222q2.1962-0.96782 1.2284-3.164l-1.7975-4.079q-0.96782-2.1962-3.164-1.2284l-7.0851 3.1222q-2.1962 0.96782-1.2284 3.164z" clip-path="url(#a)" fill="#fff" stroke="#fff"/>
<g clip-path="url(#a)">
<g transform="translate(1299.6 385.73) rotate(66.218) scale(.08 -.08)">
<use xlink:href="#s"/>
</g>
</g>
<path d="m1209.6 252.06 1.7948 5.7423q0.716 2.2907 3.0067 1.5747l7.3899-2.3098q2.2907-0.716 1.5747-3.0067l-1.7948-5.7423q-0.716-2.2907-3.0067-1.5747l-7.3899 2.3098q-2.2907 0.716-1.5747 3.0067z" clip-path="url(#a)" fill="#fff" stroke="#fff"/>
<g clip-path="url(#a)">
<g transform="translate(1213.5 250.85) rotate(72.643) scale(.08 -.08)">
<use xlink:href="#af"/>
</g>
</g>
<path d="m1153.8 384.13 0.16277 5.8527q0.066721 2.3991 2.4658 2.3324l7.7395-0.21524q2.3991-0.066721 2.3324-2.4658l-0.16277-5.8527q-0.06672-2.3991-2.4658-2.3324l-7.7395 0.21524q-2.3991 0.06672-2.3324 2.4658z" clip-path="url(#a)" fill="#fff" stroke="#fff"/>
<g clip-path="url(#a)">
<defs>
<path id="x" d="m8.6875 72.906h9.9219v-44.297q0-11.719 4.2344-16.875 4.25-5.1406 13.781-5.1406 9.4688 0 13.719 5.1406 4.25 5.1562 4.25 16.875v44.297h9.9062v-45.516q0-14.25-7.0625-21.531-7.0469-7.2812-20.812-7.2812-13.828 0-20.891 7.2812-7.0469 7.2812-7.0469 21.531z"/>
</defs>
<g transform="translate(1157.9 384.02) rotate(88.407) scale(.08 -.08)">
<use xlink:href="#x"/>
</g>
</g>
<path d="m583.23 263.23 5.1744-1.7814q2.2693-0.78124 1.488-3.0505l-2.5203-7.3208q-0.78124-2.2693-3.0505-1.488l-5.1744 1.7814q-2.2693 0.78124-1.488 3.0505l2.5203 7.3208q0.78124 2.2693 3.0505 1.488z" clip-path="url(#a)" fill="#fff" stroke="#fff"/>
<g clip-path="url(#a)">
<defs>
<path id="o" d="m34.188 63.188-13.391-36.281h26.812zm-5.5781 9.7188h11.188l27.781-72.906h-10.25l-6.6406 18.703h-32.859l-6.6406-18.703h-10.406z"/>
</defs>
<g transform="translate(581.91 259.39) rotate(-18.997) scale(.08 -.08)">
<use xlink:href="#o"/>
</g>
</g>
<path d="m841.59 391.91 1.3574 4.6288q0.67537 2.303 2.9784 1.6276l7.4296-2.1788q2.303-0.67537 1.6276-2.9784l-1.3574-4.6288q-0.67537-2.303-2.9784-1.6276l-7.4296 2.1788q-2.303 0.67537-1.6276 2.9784z" clip-path="url(#a)" fill="#fff" stroke="#fff"/>
<g clip-path="url(#a)">
<defs>
<path id="ab" d="m19.672 64.797v-27.391h12.406q6.8906 0 10.641 3.5625 3.7656 3.5625 3.7656 10.156 0 6.5469-3.7656 10.109-3.75 3.5625-10.641 3.5625zm-9.8594 8.1094h22.266q12.266 0 18.531-5.5469 6.2812-5.5469 6.2812-16.234 0-10.797-6.2812-16.312-6.2656-5.5156-18.531-5.5156h-12.406v-29.297h-9.8594z"/>
</defs>
<g transform="translate(845.49 390.76) rotate(73.656) scale(.08 -.08)">
<use xlink:href="#ab"/>
</g>
</g>
<path d="m924.61 393.79 3.1255 4.4922q1.3707 1.9701 3.3408 0.59937l6.3555-4.4219q1.9701-1.3707 0.59937-3.3408l-3.1255-4.4922q-1.3707-1.9701-3.3408-0.59937l-6.3555 4.4219q-1.9701 1.3707-0.59937 3.3408z" clip-path="url(#a)" fill="#fff" stroke="#fff"/>
<g clip-path="url(#a)">
<g transform="translate(927.94 391.47) rotate(55.171) scale(.08 -.08)">
<use xlink:href="#o"/>
</g>
</g>
<path d="m1210.9 780.45v35.285q0 2.4 2.4 2.4h7.7425q2.4 0 2.4-2.4v-35.285q0-2.4-2.4-2.4h-7.7425q-2.4 0-2.4 2.4z" clip-path="url(#a)" fill="#fff" stroke="#fff"/>
<g clip-path="url(#a)">
<defs>
<path id="l" d="m-0.29688 72.906h61.672v-8.3125h-25.875v-64.594h-9.9062v64.594h-25.891z"/>
<path id="d" d="m56.203 29.594v-4.3906h-41.312q0.59375-9.2812 5.5938-14.141t13.938-4.8594q5.1719 0 10.031 1.2656t9.6562 3.8125v-8.5q-4.8438-2.0469-9.9219-3.125t-10.297-1.0781q-13.094 0-20.734 7.6094-7.6406 7.625-7.6406 20.625 0 13.422 7.25 21.297 7.25 7.8906 19.562 7.8906 11.031 0 17.453-7.1094 6.4219-7.0938 6.4219-19.297zm-8.9844 2.6406q-0.09375 7.3594-4.125 11.75-4.0312 4.4062-10.672 4.4062-7.5156 0-12.031-4.25t-5.2031-11.969z"/>
<path id="e" d="m41.109 46.297q-1.5156 0.875-3.2969 1.2812-1.7812 0.42188-3.9219 0.42188-7.625 0-11.703-4.9531t-4.0781-14.234v-28.812h-9.0312v54.688h9.0312v-8.5q2.8438 4.9844 7.375 7.3906 4.5469 2.4219 11.047 2.4219 0.92188 0 2.0469-0.125 1.125-0.10938 2.4844-0.35938z"/>
<path id="j" d="m52 44.188q3.375 6.0625 8.0625 8.9375t11.031 2.875q8.5469 0 13.188-5.9844 4.6406-5.9688 4.6406-17v-33.016h-9.0312v32.719q0 7.8594-2.7969 11.656-2.7812 3.8125-8.4844 3.8125-6.9844 0-11.047-4.6406-4.0469-4.625-4.0469-12.641v-30.906h-9.0312v32.719q0 7.9062-2.7812 11.688t-8.5938 3.7812q-6.8906 0-10.953-4.6562-4.0469-4.6562-4.0469-12.625v-30.906h-9.0312v54.688h9.0312v-8.5q3.0781 5.0312 7.375 7.4219t10.203 2.3906q5.9688 0 10.141-3.0312 4.1719-3.0156 6.1719-8.7812z"/>
<path id="i" d="m9.4219 54.688h8.9844v-54.688h-8.9844zm0 21.297h8.9844v-11.391h-8.9844z"/>
<path id="h" d="m54.891 33.016v-33.016h-8.9844v32.719q0 7.7656-3.0312 11.609-3.0312 3.8594-9.0781 3.8594-7.2812 0-11.484-4.6406-4.2031-4.625-4.2031-12.641v-30.906h-9.0312v54.688h9.0312v-8.5q3.2344 4.9375 7.5938 7.375 4.375 2.4375 10.094 2.4375 9.4219 0 14.25-5.8281 4.8438-5.8281 4.8438-17.156z"/>
<path id="g" d="m34.281 27.484q-10.891 0-15.094-2.4844t-4.2031-8.5q0-4.7812 3.1562-7.5938 3.1562-2.7969 8.5625-2.7969 7.4844 0 12 5.2969t4.5156 14.078v2zm17.922 3.7188v-31.203h-8.9844v8.2969q-3.0781-4.9688-7.6719-7.3438t-11.234-2.375q-8.3906 0-13.359 4.7188-4.9531 4.7188-4.9531 12.625 0 9.2188 6.1719 13.906 6.1875 4.6875 18.438 4.6875h12.609v0.89062q0 6.2031-4.0781 9.5938t-11.453 3.3906q-4.6875 0-9.1406-1.125-4.4375-1.125-8.5312-3.375v8.3125q4.9219 1.9062 9.5625 2.8438 4.6406 0.95312 9.0312 0.95312 11.875 0 17.734-6.1562 5.8594-6.1406 5.8594-18.641z"/>
<path id="k" d="m9.4219 75.984h8.9844v-75.984h-8.9844z"/>
</defs>
<g transform="translate(1215 780.45) rotate(90) scale(.08 -.08)">
<use xlink:href="#l"/>
<use x="60.818359" xlink:href="#d"/>
<use x="122.341797" xlink:href="#e"/>
<use x="163.439453" xlink:href="#j"/>
<use x="260.851562" xlink:href="#i"/>
<use x="288.634766" xlink:href="#h"/>
<use x="352.013672" xlink:href="#g"/>
<use x="413.292969" xlink:href="#k"/>
</g>
</g>
<path d="m1122.1 600.6 3.4433 3.3782q1.7132 1.6808 3.394-0.032437l5.4222-5.5268q1.6808-1.7132-0.032436-3.394l-3.4433-3.3782q-1.7132-1.6808-3.394 0.032437l-5.4222 5.5268q-1.6808 1.7132 0.032437 3.394z" clip-path="url(#a)" fill="#fff" stroke="#fff"/>
<g clip-path="url(#a)">
<g transform="translate(1124.9 597.7) rotate(44.452) scale(.08 -.08)">
<use xlink:href="#ab"/>
</g>
</g>
<path d="m1165 536.26 5.1179 1.938q2.2445 0.84992 3.0944-1.3945l2.7419-7.2407q0.84992-2.2445-1.3945-3.0944l-5.1179-1.938q-2.2445-0.84992-3.0944 1.3945l-2.7419 7.2407q-0.84992 2.2445 1.3945 3.0944z" clip-path="url(#a)" fill="#fff" stroke="#fff"/>
<g clip-path="url(#a)">
<g transform="translate(1166.4 532.46) rotate(20.74) scale(.08 -.08)">
<use xlink:href="#o"/>
</g>
</g>
<path d="m677.42 604.66 5.0352-2.1437q2.2082-0.94013 1.2681-3.1483l-3.0329-7.1237q-0.94013-2.2082-3.1483-1.2681l-5.0352 2.1437q-2.2082 0.94013-1.2681 3.1483l3.0329 7.1237q0.94013 2.2082 3.1483 1.2681z" clip-path="url(#a)" fill="#fff" stroke="#fff"/>
<g clip-path="url(#a)">
<g transform="translate(675.83 600.92) rotate(-23.062) scale(.08 -.08)">
<use xlink:href="#o"/>
</g>
</g>
<path d="m1448.1 780.45v35.285q0 2.4 2.4 2.4h7.7425q2.4 0 2.4-2.4v-35.285q0-2.4-2.4-2.4h-7.7425q-2.4 0-2.4 2.4z" clip-path="url(#a)" fill="#fff" stroke="#fff"/>
<g clip-path="url(#a)">
<g transform="translate(1452.2 780.45) rotate(90) scale(.08 -.08)">
<use xlink:href="#l"/>
<use x="60.818359" xlink:href="#d"/>
<use x="122.341797" xlink:href="#e"/>
<use x="163.439453" xlink:href="#j"/>
<use x="260.851562" xlink:href="#i"/>
<use x="288.634766" xlink:href="#h"/>
<use x="352.013672" xlink:href="#g"/>
<use x="413.292969" xlink:href="#k"/>
</g>
</g>
<path d="m1398.6 535.52 4.7867 2.6526q2.0992 1.1633 3.2625-0.93593l3.7528-6.7722q1.1633-2.0992-0.93593-3.2625l-4.7867-2.6526q-2.0992-1.1633-3.2625 0.93593l-3.7528 6.7722q-1.1633 2.0992 0.93593 3.2625z" clip-path="url(#a)" fill="#fff" stroke="#fff"/>
<g clip-path="url(#a)">
<g transform="translate(1400.5 531.97) rotate(28.993) scale(.08 -.08)">
<use xlink:href="#o"/>
</g>
</g>
<path d="m1433.7 601.03 3.6727 3.1273q1.8273 1.5559 3.3832-0.27137l5.0195-5.895q1.5559-1.8273-0.27137-3.3832l-3.6727-3.1273q-1.8273-1.5559-3.3832 0.27137l-5.0195 5.895q-1.5559 1.8273 0.27137 3.3832z" clip-path="url(#a)" fill="#fff" stroke="#fff"/>
<g clip-path="url(#a)">
<g transform="translate(1436.3 597.93) rotate(40.414) scale(.08 -.08)">
<use xlink:href="#ab"/>
</g>
</g>
<path d="m821.91 604.6 5.2543-1.5298q2.3043-0.67091 1.6334-2.9752l-2.1644-7.4338q-0.67091-2.3043-2.9752-1.6334l-5.2543 1.5298q-2.3043 0.67091-1.6334 2.9752l2.1644 7.4338q0.67091 2.3043 2.9752 1.6334z" clip-path="url(#a)" fill="#fff" stroke="#fff"/>
<g clip-path="url(#a)">
<g transform="translate(820.77 600.7) rotate(-16.233) scale(.08 -.08)">
<use xlink:href="#o"/>
</g>
</g>
<path d="m1457.2 601.12 4.7069 3.4823q1.9294 1.4274 3.3568-0.50199l4.6049-6.2243q1.4274-1.9294-0.50199-3.3568l-4.7069-3.4823q-1.9294-1.4274-3.3568 0.50199l-4.6049 6.2243q-1.4274 1.9294 0.50199 3.3568z" clip-path="url(#a)" fill="#fff" stroke="#fff"/>
<g clip-path="url(#a)">
<g transform="translate(1459.6 597.85) rotate(36.495) scale(.08 -.08)">
<use xlink:href="#x"/>
</g>
</g>
<path d="m1519.4 668.78 0.88829-4.9763q0.42174-2.3627-1.9409-2.7844l-7.622-1.3605q-2.3627-0.42174-2.7844 1.9409l-0.88829 4.9763q-0.42174 2.3627 1.9409 2.7844l7.622 1.3605q2.3627 0.42174 2.7844-1.9409z" clip-path="url(#a)" fill="#fff" stroke="#fff"/>
<g clip-path="url(#a)">
<defs>
<path id="r" d="m9.8125 72.906h46.094v-8.3125h-36.234v-21.578h34.719v-8.2969h-34.719v-26.422h37.109v-8.2969h-46.969z"/>
</defs>
<g transform="translate(1515.4 668.07) rotate(-79.879) scale(.08 -.08)">
<use xlink:href="#r"/>
</g>
</g>
<path d="m1530.8 663.54 0.98164 5.4993q0.42174 2.3627 2.7844 1.9409l7.622-1.3605q2.3627-0.42174 1.9409-2.7844l-0.98164-5.4993q-0.42174-2.3627-2.7844-1.9409l-7.622 1.3605q-2.3627 0.42174-1.9409 2.7844z" clip-path="url(#a)" fill="#fff" stroke="#fff"/>
<g clip-path="url(#a)">
<defs>
<path id="t" d="m64.406 67.281v-10.391q-4.9844 4.6406-10.625 6.9219-5.6406 2.2969-11.984 2.2969-12.5 0-19.141-7.6406t-6.6406-22.094q0-14.406 6.6406-22.047t19.141-7.6406q6.3438 0 11.984 2.2969t10.625 6.9375v-10.312q-5.1719-3.5156-10.969-5.2812-5.7812-1.75-12.219-1.75-16.562 0-26.094 10.125-9.5156 10.141-9.5156 27.672 0 17.578 9.5156 27.703 9.5312 10.141 26.094 10.141 6.5312 0 12.312-1.7344 5.7969-1.7344 10.875-5.2031z"/>
</defs>
<g transform="translate(1534.8 662.83) rotate(79.879) scale(.08 -.08)">
<use xlink:href="#t"/>
</g>
</g>
<path d="m1590.5 780.45v35.285q0 2.4 2.4 2.4h7.7425q2.4 0 2.4-2.4v-35.285q0-2.4-2.4-2.4h-7.7425q-2.4 0-2.4 2.4z" clip-path="url(#a)" fill="#fff" stroke="#fff"/>
<g clip-path="url(#a)">
<g transform="translate(1594.5 780.45) rotate(90) scale(.08 -.08)">
<use xlink:href="#l"/>
<use x="60.818359" xlink:href="#d"/>
<use x="122.341797" xlink:href="#e"/>
<use x="163.439453" xlink:href="#j"/>
<use x="260.851562" xlink:href="#i"/>
<use x="288.634766" xlink:href="#h"/>
<use x="352.013672" xlink:href="#g"/>
<use x="413.292969" xlink:href="#k"/>
</g>
</g>
<path d="m1495.6 780.45v35.285q0 2.4 2.4 2.4h7.7425q2.4 0 2.4-2.4v-35.285q0-2.4-2.4-2.4h-7.7425q-2.4 0-2.4 2.4z" clip-path="url(#a)" fill="#fff" stroke="#fff"/>
<g clip-path="url(#a)">
<g transform="translate(1499.6 780.45) rotate(90) scale(.08 -.08)">
<use xlink:href="#l"/>
<use x="60.818359" xlink:href="#d"/>
<use x="122.341797" xlink:href="#e"/>
<use x="163.439453" xlink:href="#j"/>
<use x="260.851562" xlink:href="#i"/>
<use x="288.634766" xlink:href="#h"/>
<use x="352.013672" xlink:href="#g"/>
<use x="413.292969" xlink:href="#k"/>
</g>
</g>
<path d="m1543 780.45v35.285q0 2.4 2.4 2.4h7.7425q2.4 0 2.4-2.4v-35.285q0-2.4-2.4-2.4h-7.7425q-2.4 0-2.4 2.4z" clip-path="url(#a)" fill="#fff" stroke="#fff"/>
<g clip-path="url(#a)">
<g transform="translate(1547.1 780.45) rotate(90) scale(.08 -.08)">
<use xlink:href="#l"/>
<use x="60.818359" xlink:href="#d"/>
<use x="122.341797" xlink:href="#e"/>
<use x="163.439453" xlink:href="#j"/>
<use x="260.851562" xlink:href="#i"/>
<use x="288.634766" xlink:href="#h"/>
<use x="352.013672" xlink:href="#g"/>
<use x="413.292969" xlink:href="#k"/>
</g>
</g>
<path d="m1258.4 780.45v35.285q0 2.4 2.4 2.4h7.7425q2.4 0 2.4-2.4v-35.285q0-2.4-2.4-2.4h-7.7425q-2.4 0-2.4 2.4z" clip-path="url(#a)" fill="#fff" stroke="#fff"/>
<g clip-path="url(#a)">
<g transform="translate(1262.4 780.45) rotate(90) scale(.08 -.08)">
<use xlink:href="#l"/>
<use x="60.818359" xlink:href="#d"/>
<use x="122.341797" xlink:href="#e"/>
<use x="163.439453" xlink:href="#j"/>
<use x="260.851562" xlink:href="#i"/>
<use x="288.634766" xlink:href="#h"/>
<use x="352.013672" xlink:href="#g"/>
<use x="413.292969" xlink:href="#k"/>
</g>
</g>
<path d="m1335.2 669.5 1.4377-5.3696q0.62074-2.3183-1.6976-2.9391l-7.479-2.0025q-2.3183-0.62074-2.9391 1.6976l-1.4377 5.3696q-0.62074 2.3183 1.6976 2.9391l7.479 2.0025q2.3183 0.62074 2.9391-1.6976z" clip-path="url(#a)" fill="#fff" stroke="#fff"/>
<g clip-path="url(#a)">
<defs>
<path id="u" d="m44.391 34.188q3.1719-1.0781 6.1719-4.5938t6.0312-9.6719l10.016-19.922h-10.609l-9.3125 18.703q-3.625 7.3281-7.0156 9.7188t-9.25 2.3906h-10.75v-30.812h-9.8594v72.906h22.266q12.5 0 18.656-5.2344 6.1562-5.2188 6.1562-15.766 0-6.8906-3.2031-11.438-3.2031-4.5312-9.2969-6.2812zm-24.719 30.609v-25.875h12.406q7.125 0 10.766 3.2969t3.6406 9.6875-3.6406 9.6406-10.766 3.25z"/>
</defs>
<g transform="translate(1331.3 668.45) rotate(-75.01) scale(.08 -.08)">
<use xlink:href="#u"/>
</g>
</g>
<path d="m1358.7 664.11 1.4448 5.3962q0.62074 2.3183 2.9391 1.6976l7.479-2.0025q2.3183-0.62074 1.6976-2.9391l-1.4448-5.3962q-0.62074-2.3183-2.9391-1.6976l-7.479 2.0025q-2.3183 0.62074-1.6976 2.9391z" clip-path="url(#a)" fill="#fff" stroke="#fff"/>
<g clip-path="url(#a)">
<g transform="translate(1362.6 663.06) rotate(75.01) scale(.08 -.08)">
<use xlink:href="#t"/>
</g>
</g>
<path d="m1305.8 780.45v35.285q0 2.4 2.4 2.4h7.7425q2.4 0 2.4-2.4v-35.285q0-2.4-2.4-2.4h-7.7425q-2.4 0-2.4 2.4z" clip-path="url(#a)" fill="#fff" stroke="#fff"/>
<g clip-path="url(#a)">
<g transform="translate(1309.9 780.45) rotate(90) scale(.08 -.08)">
<use xlink:href="#l"/>
<use x="60.818359" xlink:href="#d"/>
<use x="122.341797" xlink:href="#e"/>
<use x="163.439453" xlink:href="#j"/>
<use x="260.851562" xlink:href="#i"/>
<use x="288.634766" xlink:href="#h"/>
<use x="352.013672" xlink:href="#g"/>
<use x="413.292969" xlink:href="#k"/>
</g>
</g>
<path d="m1374.5 816.56 6.2004-34.736q0.42174-2.3627-1.9409-2.7844l-7.622-1.3605q-2.3627-0.42174-2.7844 1.9409l-6.2004 34.736q-0.42174 2.3627 1.9409 2.7844l7.622 1.3605q2.3627 0.42174 2.7844-1.9409z" clip-path="url(#a)" fill="#fff" stroke="#fff"/>
<g clip-path="url(#a)">
<g transform="translate(1370.5 815.85) rotate(-79.879) scale(.08 -.08)">
<use xlink:href="#l"/>
<use x="60.818359" xlink:href="#d"/>
<use x="122.341797" xlink:href="#e"/>
<use x="163.439453" xlink:href="#j"/>
<use x="260.851562" xlink:href="#i"/>
<use x="288.634766" xlink:href="#h"/>
<use x="352.013672" xlink:href="#g"/>
<use x="413.292969" xlink:href="#k"/>
</g>
</g>
<path d="m1385.8 781.82 6.2004 34.736q0.42174 2.3627 2.7844 1.9409l7.622-1.3605q2.3627-0.42174 1.9409-2.7844l-6.2004-34.736q-0.42174-2.3627-2.7844-1.9409l-7.622 1.3605q-2.3627 0.42174-1.9409 2.7844z" clip-path="url(#a)" fill="#fff" stroke="#fff"/>
<g clip-path="url(#a)">
<g transform="translate(1389.8 781.11) rotate(79.879) scale(.08 -.08)">
<use xlink:href="#l"/>
<use x="60.818359" xlink:href="#d"/>
<use x="122.341797" xlink:href="#e"/>
<use x="163.439453" xlink:href="#j"/>
<use x="260.851562" xlink:href="#i"/>
<use x="288.634766" xlink:href="#h"/>
<use x="352.013672" xlink:href="#g"/>
<use x="413.292969" xlink:href="#k"/>
</g>
</g>
<path d="m259.67 402.02 4.3962-2.4953q2.0872-1.1847 0.90252-3.2719l-3.8219-6.7335q-1.1847-2.0872-3.2719-0.90252l-4.3962 2.4953q-2.0872 1.1847-0.90252 3.2719l3.8219 6.7335q1.1847 2.0872 3.2719 0.90252z" clip-path="url(#a)" fill="#fff" stroke="#fff"/>
<g clip-path="url(#a)">
<g transform="translate(257.66 398.49) rotate(-29.579) scale(.08 -.08)">
<use xlink:href="#r"/>
</g>
</g>
<path d="m377.61 532.19 0.22886-5.5816q0.098325-2.398-2.2997-2.4963l-7.736-0.3172q-2.398-0.098326-2.4963 2.2997l-0.22886 5.5816q-0.098326 2.398 2.2997 2.4963l7.736 0.3172q2.398 0.098326 2.4963-2.2997z" clip-path="url(#a)" fill="#fff" stroke="#fff"/>
<g clip-path="url(#a)">
<g transform="translate(373.54 532.03) rotate(-87.652) scale(.08 -.08)">
<use xlink:href="#t"/>
</g>
</g>
<path d="m519.53 465.56 3.697 3.4474q1.7553 1.6368 3.392-0.11851l5.2803-5.6626q1.6368-1.7553-0.11851-3.392l-3.697-3.4474q-1.7553-1.6368-3.392 0.11851l-5.2803 5.6626q-1.6368 1.7553 0.11851 3.392z" clip-path="url(#a)" fill="#fff" stroke="#fff"/>
<g clip-path="url(#a)">
<g transform="translate(522.3 462.58) rotate(42.999) scale(.08 -.08)">
<use xlink:href="#r"/>
</g>
</g>
<path d="m305.05 534.16 2.139-5.4503q0.8768-2.2341-1.3573-3.1109l-7.2073-2.8286q-2.2341-0.8768-3.1109 1.3573l-2.139 5.4503q-0.8768 2.2341 1.3573 3.1109l7.2073 2.8286q2.2341 0.8768 3.1109-1.3573z" clip-path="url(#a)" fill="#fff" stroke="#fff"/>
<g clip-path="url(#a)">
<g transform="translate(301.27 532.68) rotate(-68.572) scale(.08 -.08)">
<use xlink:href="#x"/>
</g>
</g>
<path d="m435.77 528.21 1.736 5.5917q0.71159 2.2921 3.0037 1.5805l7.3944-2.2956q2.2921-0.71159 1.5805-3.0037l-1.736-5.5917q-0.71159-2.2921-3.0037-1.5805l-7.3944 2.2956q-2.2921 0.71159-1.5805 3.0037z" clip-path="url(#a)" fill="#fff" stroke="#fff"/>
<g clip-path="url(#a)">
<g transform="translate(439.65 527) rotate(72.753) scale(.08 -.08)">
<use xlink:href="#x"/>
</g>
</g>
<path d="m877.64 670.18 2.1722-4.0563q1.133-2.1157-0.98274-3.2487l-6.8254-3.6551q-2.1157-1.133-3.2487 0.98274l-2.1722 4.0563q-1.133 2.1157 0.98274 3.2487l6.8254 3.6551q2.1157 1.133 3.2487-0.98274z" clip-path="url(#a)" fill="#fff" stroke="#fff"/>
<g clip-path="url(#a)">
<defs>
<path id="at" d="m9.8125 72.906h41.891v-8.3125h-32.031v-21.484h28.906v-8.2969h-28.906v-34.812h-9.8594z"/>
</defs>
<g transform="translate(874.05 668.26) rotate(-61.831) scale(.08 -.08)">
<use xlink:href="#at"/>
</g>
</g>
<path d="m902.65 668.78 0.88829-4.9763q0.42174-2.3627-1.9409-2.7844l-7.622-1.3605q-2.3627-0.42174-2.7844 1.9409l-0.88829 4.9763q-0.42174 2.3627 1.9409 2.7844l7.622 1.3605q2.3627 0.42174 2.7844-1.9409z" clip-path="url(#a)" fill="#fff" stroke="#fff"/>
<g clip-path="url(#a)">
<g transform="translate(898.65 668.07) rotate(-79.879) scale(.08 -.08)">
<use xlink:href="#r"/>
</g>
</g>
<path d="m937.52 665.69 2.6372 4.9246q1.133 2.1157 3.2487 0.98274l6.8254-3.6551q2.1157-1.133 0.98274-3.2487l-2.6372-4.9246q-1.133-2.1157-3.2487-0.98274l-6.8254 3.6551q-2.1157 1.133-0.98274 3.2487z" clip-path="url(#a)" fill="#fff" stroke="#fff"/>
<g clip-path="url(#a)">
<g transform="translate(941.1 663.77) rotate(61.831) scale(.08 -.08)">
<use xlink:href="#t"/>
</g>
</g>
<path d="m913.95 663.41 1.0289 5.7639q0.42174 2.3627 2.7844 1.9409l7.622-1.3605q2.3627-0.42174 1.9409-2.7844l-1.0289-5.7639q-0.42174-2.3627-2.7844-1.9409l-7.622 1.3605q-2.3627 0.42174-1.9409 2.7844z" clip-path="url(#a)" fill="#fff" stroke="#fff"/>
<g clip-path="url(#a)">
<g transform="translate(917.95 662.7) rotate(79.879) scale(.08 -.08)">
<use xlink:href="#x"/>
</g>
</g>
<path d="m1056.1 669.92 1.869-5.2351q0.80693-2.2603-1.4533-3.0672l-7.2918-2.6032q-2.2603-0.80693-3.0672 1.4533l-1.869 5.2351q-0.80693 2.2603 1.4533 3.0672l7.2918 2.6032q2.2603 0.80693 3.0672-1.4533z" clip-path="url(#a)" fill="#fff" stroke="#fff"/>
<g clip-path="url(#a)">
<g transform="translate(1052.3 668.55) rotate(-70.353) scale(.08 -.08)">
<use xlink:href="#u"/>
</g>
</g>
<path d="m1068.6 662.66v5.055q0 2.4 2.4 2.4h7.7425q2.4 0 2.4-2.4v-5.055q0-2.4-2.4-2.4h-7.7425q-2.4 0-2.4 2.4z" clip-path="url(#a)" fill="#fff" stroke="#fff"/>
<g clip-path="url(#a)">
<g transform="translate(1072.6 662.66) rotate(90) scale(.08 -.08)">
<use xlink:href="#r"/>
</g>
</g>
<path d="m1091.7 664.67 1.8782 5.261q0.80693 2.2603 3.0672 1.4533l7.2918-2.6032q2.2603-0.80693 1.4533-3.0672l-1.8782-5.261q-0.80693-2.2603-3.0672-1.4533l-7.2918 2.6032q-2.2603 0.80693-1.4533 3.0672z" clip-path="url(#a)" fill="#fff" stroke="#fff"/>
<g clip-path="url(#a)">
<g transform="translate(1095.5 663.3) rotate(70.353) scale(.08 -.08)">
<use xlink:href="#t"/>
</g>
</g>
<path d="m1021.1 780.45v35.285q0 2.4 2.4 2.4h7.7425q2.4 0 2.4-2.4v-35.285q0-2.4-2.4-2.4h-7.7425q-2.4 0-2.4 2.4z" clip-path="url(#a)" fill="#fff" stroke="#fff"/>
<g clip-path="url(#a)">
<g transform="translate(1025.2 780.45) rotate(90) scale(.08 -.08)">
<use xlink:href="#l"/>
<use x="60.818359" xlink:href="#d"/>
<use x="122.341797" xlink:href="#e"/>
<use x="163.439453" xlink:href="#j"/>
<use x="260.851562" xlink:href="#i"/>
<use x="288.634766" xlink:href="#h"/>
<use x="352.013672" xlink:href="#g"/>
<use x="413.292969" xlink:href="#k"/>
</g>
</g>
<path d="m1068.6 780.45v35.285q0 2.4 2.4 2.4h7.7425q2.4 0 2.4-2.4v-35.285q0-2.4-2.4-2.4h-7.7425q-2.4 0-2.4 2.4z" clip-path="url(#a)" fill="#fff" stroke="#fff"/>
<g clip-path="url(#a)">
<g transform="translate(1072.6 780.45) rotate(90) scale(.08 -.08)">
<use xlink:href="#l"/>
<use x="60.818359" xlink:href="#d"/>
<use x="122.341797" xlink:href="#e"/>
<use x="163.439453" xlink:href="#j"/>
<use x="260.851562" xlink:href="#i"/>
<use x="288.634766" xlink:href="#h"/>
<use x="352.013672" xlink:href="#g"/>
<use x="413.292969" xlink:href="#k"/>
</g>
</g>
<path d="m1116 780.45v35.285q0 2.4 2.4 2.4h7.7425q2.4 0 2.4-2.4v-35.285q0-2.4-2.4-2.4h-7.7425q-2.4 0-2.4 2.4z" clip-path="url(#a)" fill="#fff" stroke="#fff"/>
<g clip-path="url(#a)">
<g transform="translate(1120.1 780.45) rotate(90) scale(.08 -.08)">
<use xlink:href="#l"/>
<use x="60.818359" xlink:href="#d"/>
<use x="122.341797" xlink:href="#e"/>
<use x="163.439453" xlink:href="#j"/>
<use x="260.851562" xlink:href="#i"/>
<use x="288.634766" xlink:href="#h"/>
<use x="352.013672" xlink:href="#g"/>
<use x="413.292969" xlink:href="#k"/>
</g>
</g>
<path d="m831.34 780.45v35.285q0 2.4 2.4 2.4h7.7425q2.4 0 2.4-2.4v-35.285q0-2.4-2.4-2.4h-7.7425q-2.4 0-2.4 2.4z" clip-path="url(#a)" fill="#fff" stroke="#fff"/>
<g clip-path="url(#a)">
<g transform="translate(835.4 780.45) rotate(90) scale(.08 -.08)">
<use xlink:href="#l"/>
<use x="60.818359" xlink:href="#d"/>
<use x="122.341797" xlink:href="#e"/>
<use x="163.439453" xlink:href="#j"/>
<use x="260.851562" xlink:href="#i"/>
<use x="288.634766" xlink:href="#h"/>
<use x="352.013672" xlink:href="#g"/>
<use x="413.292969" xlink:href="#k"/>
</g>
</g>
<path d="m878.79 780.45v35.285q0 2.4 2.4 2.4h7.7425q2.4 0 2.4-2.4v-35.285q0-2.4-2.4-2.4h-7.7425q-2.4 0-2.4 2.4z" clip-path="url(#a)" fill="#fff" stroke="#fff"/>
<g clip-path="url(#a)">
<g transform="translate(882.85 780.45) rotate(90) scale(.08 -.08)">
<use xlink:href="#l"/>
<use x="60.818359" xlink:href="#d"/>
<use x="122.341797" xlink:href="#e"/>
<use x="163.439453" xlink:href="#j"/>
<use x="260.851562" xlink:href="#i"/>
<use x="288.634766" xlink:href="#h"/>
<use x="352.013672" xlink:href="#g"/>
<use x="413.292969" xlink:href="#k"/>
</g>
</g>
<path d="m973.68 780.45v35.285q0 2.4 2.4 2.4h7.7425q2.4 0 2.4-2.4v-35.285q0-2.4-2.4-2.4h-7.7425q-2.4 0-2.4 2.4z" clip-path="url(#a)" fill="#fff" stroke="#fff"/>
<g clip-path="url(#a)">
<g transform="translate(977.74 780.45) rotate(90) scale(.08 -.08)">
<use xlink:href="#l"/>
<use x="60.818359" xlink:href="#d"/>
<use x="122.341797" xlink:href="#e"/>
<use x="163.439453" xlink:href="#j"/>
<use x="260.851562" xlink:href="#i"/>
<use x="288.634766" xlink:href="#h"/>
<use x="352.013672" xlink:href="#g"/>
<use x="413.292969" xlink:href="#k"/>
</g>
</g>
<path d="m125.41 535.41 1.2907-4.8875q0.61278-2.3205-1.7077-2.9332l-7.4859-1.9769q-2.3205-0.61278-2.9332 1.7077l-1.2907 4.8875q-0.61278 2.3205 1.7077 2.9332l7.4859 1.9769q2.3205 0.61278 2.9332-1.7077z" clip-path="url(#a)" fill="#fff" stroke="#fff"/>
<g clip-path="url(#a)">
<g transform="translate(121.48 534.37) rotate(-75.207) scale(.08 -.08)">
<use xlink:href="#r"/>
</g>
</g>
<path d="m148.99 595.87 0.73622 5.5375q0.3163 2.3791 2.6954 2.0628l7.675-1.0204q2.3791-0.3163 2.0628-2.6954l-0.73622-5.5375q-0.3163-2.3791-2.6954-2.0628l-7.675 1.0204q-2.3791 0.3163-2.0628 2.6954z" clip-path="url(#a)" fill="#fff" stroke="#fff"/>
<g clip-path="url(#a)">
<g transform="translate(153.02 595.34) rotate(82.427) scale(.08 -.08)">
<use xlink:href="#t"/>
</g>
</g>
<path d="m310.56 816.09 20.504-28.716q1.3946-1.9532-0.5586-3.3478l-6.3012-4.4991q-1.9532-1.3946-3.3478 0.5586l-20.504 28.716q-1.3946 1.9532 0.5586 3.3478l6.3012 4.4991q1.9532 1.3946 3.3478-0.5586z" clip-path="url(#a)" fill="#fff" stroke="#fff"/>
<g clip-path="url(#a)">
<g transform="translate(307.25 813.73) rotate(-54.473) scale(.08 -.08)">
<use xlink:href="#l"/>
<use x="60.818359" xlink:href="#d"/>
<use x="122.341797" xlink:href="#e"/>
<use x="163.439453" xlink:href="#j"/>
<use x="260.851562" xlink:href="#i"/>
<use x="288.634766" xlink:href="#h"/>
<use x="352.013672" xlink:href="#g"/>
<use x="413.292969" xlink:href="#k"/>
</g>
</g>
<path d="m339.4 816.81 11.864-33.231q0.80693-2.2603-1.4533-3.0672l-7.2918-2.6032q-2.2603-0.80693-3.0672 1.4533l-11.864 33.231q-0.80693 2.2603 1.4533 3.0672l7.2918 2.6032q2.2603 0.80693 3.0672-1.4533z" clip-path="url(#a)" fill="#fff" stroke="#fff"/>
<g clip-path="url(#a)">
<g transform="translate(335.57 815.45) rotate(-70.353) scale(.08 -.08)">
<use xlink:href="#l"/>
<use x="60.818359" xlink:href="#d"/>
<use x="122.341797" xlink:href="#e"/>
<use x="163.439453" xlink:href="#j"/>
<use x="260.851562" xlink:href="#i"/>
<use x="288.634766" xlink:href="#h"/>
<use x="352.013672" xlink:href="#g"/>
<use x="413.292969" xlink:href="#k"/>
</g>
</g>
<path d="m356.88 780.45v35.285q0 2.4 2.4 2.4h7.7425q2.4 0 2.4-2.4v-35.285q0-2.4-2.4-2.4h-7.7425q-2.4 0-2.4 2.4z" clip-path="url(#a)" fill="#fff" stroke="#fff"/>
<g clip-path="url(#a)">
<g transform="translate(360.94 780.45) rotate(90) scale(.08 -.08)">
<use xlink:href="#l"/>
<use x="60.818359" xlink:href="#d"/>
<use x="122.341797" xlink:href="#e"/>
<use x="163.439453" xlink:href="#j"/>
<use x="260.851562" xlink:href="#i"/>
<use x="288.634766" xlink:href="#h"/>
<use x="352.013672" xlink:href="#g"/>
<use x="413.292969" xlink:href="#k"/>
</g>
</g>
<path d="m375.04 783.58 11.864 33.231q0.80693 2.2603 3.0672 1.4533l7.2918-2.6032q2.2603-0.80693 1.4533-3.0672l-11.864-33.231q-0.80693-2.2603-3.0672-1.4533l-7.2918 2.6032q-2.2603 0.80693-1.4533 3.0672z" clip-path="url(#a)" fill="#fff" stroke="#fff"/>
<g clip-path="url(#a)">
<g transform="translate(378.86 782.22) rotate(70.353) scale(.08 -.08)">
<use xlink:href="#l"/>
<use x="60.818359" xlink:href="#d"/>
<use x="122.341797" xlink:href="#e"/>
<use x="163.439453" xlink:href="#j"/>
<use x="260.851562" xlink:href="#i"/>
<use x="288.634766" xlink:href="#h"/>
<use x="352.013672" xlink:href="#g"/>
<use x="413.292969" xlink:href="#k"/>
</g>
</g>
<path d="m395.24 787.38 20.504 28.716q1.3946 1.9532 3.3478 0.5586l6.3012-4.4991q1.9532-1.3946 0.5586-3.3478l-20.504-28.716q-1.3946-1.9532-3.3478-0.5586l-6.3012 4.4991q-1.9532 1.3946-0.5586 3.3478z" clip-path="url(#a)" fill="#fff" stroke="#fff"/>
<g clip-path="url(#a)">
<g transform="translate(398.55 785.02) rotate(54.473) scale(.08 -.08)">
<use xlink:href="#l"/>
<use x="60.818359" xlink:href="#d"/>
<use x="122.341797" xlink:href="#e"/>
<use x="163.439453" xlink:href="#j"/>
<use x="260.851562" xlink:href="#i"/>
<use x="288.634766" xlink:href="#h"/>
<use x="352.013672" xlink:href="#g"/>
<use x="413.292969" xlink:href="#k"/>
</g>
</g>
<path d="m615.07 671.44 3.7014-4.1472q1.5981-1.7906-0.19246-3.3887l-5.7764-5.1555q-1.7906-1.5981-3.3887 0.19246l-3.7014 4.1472q-1.5981 1.7906 0.19246 3.3887l5.7764 5.1555q1.7906 1.5981 3.3887-0.19246z" clip-path="url(#a)" fill="#fff" stroke="#fff"/>
<g clip-path="url(#a)">
<g transform="translate(612.04 668.73) rotate(-48.251) scale(.08 -.08)">
<use xlink:href="#u"/>
</g>
</g>
<path d="m724.5 667.48 3.366 3.7714q1.5981 1.7906 3.3887 0.19246l5.7764-5.1555q1.7906-1.5981 0.19246-3.3887l-3.366-3.7714q-1.5981-1.7906-3.3887-0.19246l-5.7764 5.1555q-1.7906 1.5981-0.19246 3.3887z" clip-path="url(#a)" fill="#fff" stroke="#fff"/>
<g clip-path="url(#a)">
<g transform="translate(727.53 664.77) rotate(48.251) scale(.08 -.08)">
<use xlink:href="#r"/>
</g>
</g>
<path d="m640.3 670.38 2.3864-4.4563q1.133-2.1157-0.98274-3.2487l-6.8254-3.6551q-2.1157-1.133-3.2487 0.98274l-2.3864 4.4563q-1.133 2.1157 0.98274 3.2487l6.8254 3.6551q2.1157 1.133 3.2487-0.98274z" clip-path="url(#a)" fill="#fff" stroke="#fff"/>
<g clip-path="url(#a)">
<g transform="translate(636.72 668.46) rotate(-61.831) scale(.08 -.08)">
<use xlink:href="#r"/>
</g>
</g>
<path d="m665.28 662.66v5.055q0 2.4 2.4 2.4h7.7425q2.4 0 2.4-2.4v-5.055q0-2.4-2.4-2.4h-7.7425q-2.4 0-2.4 2.4z" clip-path="url(#a)" fill="#fff" stroke="#fff"/>
<g clip-path="url(#a)">
<g transform="translate(669.34 662.66) rotate(90) scale(.08 -.08)">
<use xlink:href="#r"/>
</g>
</g>
<path d="m700.29 665.69 2.6372 4.9246q1.133 2.1157 3.2487 0.98274l6.8254-3.6551q2.1157-1.133 0.98274-3.2487l-2.6372-4.9246q-1.133-2.1157-3.2487-0.98274l-6.8254 3.6551q-2.1157 1.133-0.98274 3.2487z" clip-path="url(#a)" fill="#fff" stroke="#fff"/>
<g clip-path="url(#a)">
<g transform="translate(703.87 663.77) rotate(61.831) scale(.08 -.08)">
<use xlink:href="#t"/>
</g>
</g>
<path d="m546.66 780.45v35.285q0 2.4 2.4 2.4h7.7425q2.4 0 2.4-2.4v-35.285q0-2.4-2.4-2.4h-7.7425q-2.4 0-2.4 2.4z" clip-path="url(#a)" fill="#fff" stroke="#fff"/>
<g clip-path="url(#a)">
<g transform="translate(550.73 780.45) rotate(90) scale(.08 -.08)">
<use xlink:href="#l"/>
<use x="60.818359" xlink:href="#d"/>
<use x="122.341797" xlink:href="#e"/>
<use x="163.439453" xlink:href="#j"/>
<use x="260.851562" xlink:href="#i"/>
<use x="288.634766" xlink:href="#h"/>
<use x="352.013672" xlink:href="#g"/>
<use x="413.292969" xlink:href="#k"/>
</g>
</g>
<path d="m783.89 780.45v35.285q0 2.4 2.4 2.4h7.7425q2.4 0 2.4-2.4v-35.285q0-2.4-2.4-2.4h-7.7425q-2.4 0-2.4 2.4z" clip-path="url(#a)" fill="#fff" stroke="#fff"/>
<g clip-path="url(#a)">
<g transform="translate(787.96 780.45) rotate(90) scale(.08 -.08)">
<use xlink:href="#l"/>
<use x="60.818359" xlink:href="#d"/>
<use x="122.341797" xlink:href="#e"/>
<use x="163.439453" xlink:href="#j"/>
<use x="260.851562" xlink:href="#i"/>
<use x="288.634766" xlink:href="#h"/>
<use x="352.013672" xlink:href="#g"/>
<use x="413.292969" xlink:href="#k"/>
</g>
</g>
<path d="m594.11 780.45v35.285q0 2.4 2.4 2.4h7.7425q2.4 0 2.4-2.4v-35.285q0-2.4-2.4-2.4h-7.7425q-2.4 0-2.4 2.4z" clip-path="url(#a)" fill="#fff" stroke="#fff"/>
<g clip-path="url(#a)">
<g transform="translate(598.17 780.45) rotate(90) scale(.08 -.08)">
<use xlink:href="#l"/>
<use x="60.818359" xlink:href="#d"/>
<use x="122.341797" xlink:href="#e"/>
<use x="163.439453" xlink:href="#j"/>
<use x="260.851562" xlink:href="#i"/>
<use x="288.634766" xlink:href="#h"/>
<use x="352.013672" xlink:href="#g"/>
<use x="413.292969" xlink:href="#k"/>
</g>
</g>
<path d="m662.76 816.56 6.2004-34.736q0.42174-2.3627-1.9409-2.7844l-7.622-1.3605q-2.3627-0.42174-2.7844 1.9409l-6.2004 34.736q-0.42174 2.3627 1.9409 2.7844l7.622 1.3605q2.3627 0.42174 2.7844-1.9409z" clip-path="url(#a)" fill="#fff" stroke="#fff"/>
<g clip-path="url(#a)">
<g transform="translate(658.76 815.85) rotate(-79.879) scale(.08 -.08)">
<use xlink:href="#l"/>
<use x="60.818359" xlink:href="#d"/>
<use x="122.341797" xlink:href="#e"/>
<use x="163.439453" xlink:href="#j"/>
<use x="260.851562" xlink:href="#i"/>
<use x="288.634766" xlink:href="#h"/>
<use x="352.013672" xlink:href="#g"/>
<use x="413.292969" xlink:href="#k"/>
</g>
</g>
<path d="m674.14 781.82 6.2004 34.736q0.42174 2.3627 2.7844 1.9409l7.622-1.3605q2.3627-0.42174 1.9409-2.7844l-6.2004-34.736q-0.42174-2.3627-2.7844-1.9409l-7.622 1.3605q-2.3627 0.42174-1.9409 2.7844z" clip-path="url(#a)" fill="#fff" stroke="#fff"/>
<g clip-path="url(#a)">
<g transform="translate(678.14 781.11) rotate(79.879) scale(.08 -.08)">
<use xlink:href="#l"/>
<use x="60.818359" xlink:href="#d"/>
<use x="122.341797" xlink:href="#e"/>
<use x="163.439453" xlink:href="#j"/>
<use x="260.851562" xlink:href="#i"/>
<use x="288.634766" xlink:href="#h"/>
<use x="352.013672" xlink:href="#g"/>
<use x="413.292969" xlink:href="#k"/>
</g>
</g>
<path d="m736.45 780.45v35.285q0 2.4 2.4 2.4h7.7425q2.4 0 2.4-2.4v-35.285q0-2.4-2.4-2.4h-7.7425q-2.4 0-2.4 2.4z" clip-path="url(#a)" fill="#fff" stroke="#fff"/>
<g clip-path="url(#a)">
<g transform="translate(740.51 780.45) rotate(90) scale(.08 -.08)">
<use xlink:href="#l"/>
<use x="60.818359" xlink:href="#d"/>
<use x="122.341797" xlink:href="#e"/>
<use x="163.439453" xlink:href="#j"/>
<use x="260.851562" xlink:href="#i"/>
<use x="288.634766" xlink:href="#h"/>
<use x="352.013672" xlink:href="#g"/>
<use x="413.292969" xlink:href="#k"/>
</g>
</g>
<path d="m96.019 669.04 0.98164-5.4993q0.42174-2.3627-1.9409-2.7844l-7.622-1.3605q-2.3627-0.42174-2.7844 1.9409l-0.98164 5.4993q-0.42174 2.3627 1.9409 2.7844l7.622 1.3605q2.3627 0.42174 2.7844-1.9409z" clip-path="url(#a)" fill="#fff" stroke="#fff"/>
<g clip-path="url(#a)">
<g transform="translate(92.019 668.33) rotate(-79.879) scale(.08 -.08)">
<use xlink:href="#t"/>
</g>
</g>
<path d="m107.4 663.56 0.97681 5.4723q0.42174 2.3627 2.7844 1.9409l7.622-1.3605q2.3627-0.42174 1.9409-2.7844l-0.97681-5.4723q-0.42174-2.3627-2.7844-1.9409l-7.622 1.3605q-2.3627 0.42174-1.9409 2.7844z" clip-path="url(#a)" fill="#fff" stroke="#fff"/>
<g clip-path="url(#a)">
<g transform="translate(111.4 662.84) rotate(79.879) scale(.08 -.08)">
<use xlink:href="#u"/>
</g>
</g>
<path d="m167.1 780.45v35.285q0 2.4 2.4 2.4h7.7425q2.4 0 2.4-2.4v-35.285q0-2.4-2.4-2.4h-7.7425q-2.4 0-2.4 2.4z" clip-path="url(#a)" fill="#fff" stroke="#fff"/>
<g clip-path="url(#a)">
<g transform="translate(171.16 780.45) rotate(90) scale(.08 -.08)">
<use xlink:href="#l"/>
<use x="60.818359" xlink:href="#d"/>
<use x="122.341797" xlink:href="#e"/>
<use x="163.439453" xlink:href="#j"/>
<use x="260.851562" xlink:href="#i"/>
<use x="288.634766" xlink:href="#h"/>
<use x="352.013672" xlink:href="#g"/>
<use x="413.292969" xlink:href="#k"/>
</g>
</g>
<path d="m72.204 780.45v35.285q0 2.4 2.4 2.4h7.7425q2.4 0 2.4-2.4v-35.285q0-2.4-2.4-2.4h-7.7425q-2.4 0-2.4 2.4z" clip-path="url(#a)" fill="#fff" stroke="#fff"/>
<g clip-path="url(#a)">
<g transform="translate(76.267 780.45) rotate(90) scale(.08 -.08)">
<use xlink:href="#l"/>
<use x="60.818359" xlink:href="#d"/>
<use x="122.341797" xlink:href="#e"/>
<use x="163.439453" xlink:href="#j"/>
<use x="260.851562" xlink:href="#i"/>
<use x="288.634766" xlink:href="#h"/>
<use x="352.013672" xlink:href="#g"/>
<use x="413.292969" xlink:href="#k"/>
</g>
</g>
<path d="m119.65 780.45v35.285q0 2.4 2.4 2.4h7.7425q2.4 0 2.4-2.4v-35.285q0-2.4-2.4-2.4h-7.7425q-2.4 0-2.4 2.4z" clip-path="url(#a)" fill="#fff" stroke="#fff"/>
<g clip-path="url(#a)">
<g transform="translate(123.71 780.45) rotate(90) scale(.08 -.08)">
<use xlink:href="#l"/>
<use x="60.818359" xlink:href="#d"/>
<use x="122.341797" xlink:href="#e"/>
<use x="163.439453" xlink:href="#j"/>
<use x="260.851562" xlink:href="#i"/>
<use x="288.634766" xlink:href="#h"/>
<use x="352.013672" xlink:href="#g"/>
<use x="413.292969" xlink:href="#k"/>
</g>
</g>
<path d="m1116 403.2 8.7139-4.7668q2.1055-1.1518 0.95374-3.2574l-3.7158-6.7926q-1.1518-2.1055-3.2574-0.95374l-8.7139 4.7668q-2.1055 1.1518-0.95374 3.2574l3.7158 6.7926q1.1518 2.1055 3.2574 0.95374z" clip-path="url(#a)" fill="#fff" stroke="#fff"/>
<g clip-path="url(#a)">
<g transform="translate(1114 399.64) rotate(-28.68) scale(.08 -.08)">
<use xlink:href="#s"/>
<use x="55.744141" xlink:href="#o"/>
</g>
</g>
<path d="m1340.8 527.61 4.6371 8.8782q1.1111 2.1273 3.2384 1.0162l6.8628-3.5845q2.1273-1.1111 1.0162-3.2384l-4.6371-8.8782q-1.1111-2.1273-3.2384-1.0162l-6.8628 3.5845q-2.1273 1.1111-1.0162 3.2384z" clip-path="url(#a)" fill="#fff" stroke="#fff"/>
<g clip-path="url(#a)">
<g transform="translate(1344.4 525.73) rotate(62.422) scale(.08 -.08)">
<use xlink:href="#s"/>
<use x="55.712891" xlink:href="#u"/>
</g>
</g>
<path d="m1255.2 392.28 2.7478 9.5449q0.66394 2.3063 2.9703 1.6424l7.4403-2.1419q2.3063-0.66394 1.6424-2.9703l-2.7478-9.5449q-0.66394-2.3063-2.9703-1.6424l-7.4403 2.1419q-2.3063 0.66394-1.6424 2.9703z" clip-path="url(#a)" fill="#fff" stroke="#fff"/>
<g clip-path="url(#a)">
<g transform="translate(1259.2 391.16) rotate(73.94) scale(.08 -.08)">
<use xlink:href="#s"/>
<use x="55.744141" xlink:href="#o"/>
</g>
</g>
<path d="m892.79 122.13 8.2048-5.5978q1.9825-1.3526 0.62993-3.3351l-4.3636-6.3957q-1.3526-1.9825-3.3351-0.62993l-8.2048 5.5978q-1.9825 1.3526-0.62993 3.3351l4.3636 6.3958q1.3526 1.9825 3.3351 0.62993z" clip-path="url(#a)" fill="#fff" stroke="#fff"/>
<g clip-path="url(#a)">
<g transform="translate(890.5 118.77) rotate(-34.304) scale(.08 -.08)">
<use xlink:href="#s"/>
<use x="55.744141" xlink:href="#o"/>
</g>
</g>
<path d="m1100.6 384 3.0226 9.5493q0.72426 2.2881 3.0124 1.5639l7.3815-2.3365q2.2881-0.72425 1.5639-3.0124l-3.0226-9.5493q-0.72425-2.2881-3.0124-1.5639l-7.3815 2.3365q-2.2881 0.72425-1.5639 3.0124z" clip-path="url(#a)" fill="#fff" stroke="#fff"/>
<g clip-path="url(#a)">
<g transform="translate(1104.4 382.77) rotate(72.436) scale(.08 -.08)">
<use xlink:href="#s"/>
<use x="55.712891" xlink:href="#u"/>
</g>
</g>
<path d="m1001.6 258.13 0.16754-9.9311q0.040482-2.3997-2.3592-2.4401l-7.7414-0.1306q-2.3997-0.040482-2.4401 2.3592l-0.16754 9.9311q-0.040482 2.3997 2.3592 2.4401l7.7414 0.1306q2.3997 0.040483 2.4401-2.3592z" clip-path="url(#a)" fill="#fff" stroke="#fff"/>
<g clip-path="url(#a)">
<g transform="translate(997.49 258.06) rotate(-89.034) scale(.08 -.08)">
<use xlink:href="#s"/>
<use x="55.744141" xlink:href="#o"/>
</g>
</g>
<path d="m214.54 780.45v35.285q0 2.4 2.4 2.4h7.7425q2.4 0 2.4-2.4v-35.285q0-2.4-2.4-2.4h-7.7425q-2.4 0-2.4 2.4z" clip-path="url(#a)" fill="#fff" stroke="#fff"/>
<g clip-path="url(#a)">
<g transform="translate(218.61 780.45) rotate(90) scale(.08 -.08)">
<use xlink:href="#l"/>
<use x="60.818359" xlink:href="#d"/>
<use x="122.341797" xlink:href="#e"/>
<use x="163.439453" xlink:href="#j"/>
<use x="260.851562" xlink:href="#i"/>
<use x="288.634766" xlink:href="#h"/>
<use x="352.013672" xlink:href="#g"/>
<use x="413.292969" xlink:href="#k"/>
</g>
</g>
<path d="m499.22 780.45v35.285q0 2.4 2.4 2.4h7.7425q2.4 0 2.4-2.4v-35.285q0-2.4-2.4-2.4h-7.7425q-2.4 0-2.4 2.4z" clip-path="url(#a)" fill="#fff" stroke="#fff"/>
<g clip-path="url(#a)">
<g transform="translate(503.28 780.45) rotate(90) scale(.08 -.08)">
<use xlink:href="#l"/>
<use x="60.818359" xlink:href="#d"/>
<use x="122.341797" xlink:href="#e"/>
<use x="163.439453" xlink:href="#j"/>
<use x="260.851562" xlink:href="#i"/>
<use x="288.634766" xlink:href="#h"/>
<use x="352.013672" xlink:href="#g"/>
<use x="413.292969" xlink:href="#k"/>
</g>
</g>
<path d="m926.23 780.45v35.285q0 2.4 2.4 2.4h7.7425q2.4 0 2.4-2.4v-35.285q0-2.4-2.4-2.4h-7.7425q-2.4 0-2.4 2.4z" clip-path="url(#a)" fill="#fff" stroke="#fff"/>
<g clip-path="url(#a)">
<g transform="translate(930.29 780.45) rotate(90) scale(.08 -.08)">
<use xlink:href="#l"/>
<use x="60.818359" xlink:href="#d"/>
<use x="122.341797" xlink:href="#e"/>
<use x="163.439453" xlink:href="#j"/>
<use x="260.851562" xlink:href="#i"/>
<use x="288.634766" xlink:href="#h"/>
<use x="352.013672" xlink:href="#g"/>
<use x="413.292969" xlink:href="#k"/>
</g>
</g>
<path d="m1163.5 780.45v35.285q0 2.4 2.4 2.4h7.7425q2.4 0 2.4-2.4v-35.285q0-2.4-2.4-2.4h-7.7425q-2.4 0-2.4 2.4z" clip-path="url(#a)" fill="#fff" stroke="#fff"/>
<g clip-path="url(#a)">
<g transform="translate(1167.5 780.45) rotate(90) scale(.08 -.08)">
<use xlink:href="#l"/>
<use x="60.818359" xlink:href="#d"/>
<use x="122.341797" xlink:href="#e"/>
<use x="163.439453" xlink:href="#j"/>
<use x="260.851562" xlink:href="#i"/>
<use x="288.634766" xlink:href="#h"/>
<use x="352.013672" xlink:href="#g"/>
<use x="413.292969" xlink:href="#k"/>
</g>
</g>
<path d="m1637.9 780.45v35.285q0 2.4 2.4 2.4h7.7425q2.4 0 2.4-2.4v-35.285q0-2.4-2.4-2.4h-7.7425q-2.4 0-2.4 2.4z" clip-path="url(#a)" fill="#fff" stroke="#fff"/>
<g clip-path="url(#a)">
<g transform="translate(1642 780.45) rotate(90) scale(.08 -.08)">
<use xlink:href="#l"/>
<use x="60.818359" xlink:href="#d"/>
<use x="122.341797" xlink:href="#e"/>
<use x="163.439453" xlink:href="#j"/>
<use x="260.851562" xlink:href="#i"/>
<use x="288.634766" xlink:href="#h"/>
<use x="352.013672" xlink:href="#g"/>
<use x="413.292969" xlink:href="#k"/>
</g>
</g>
<defs>
<path id="b" d="m0 8.6603c2.2967 0 4.4997-0.9125 6.1237-2.5365 1.624-1.624 2.5365-3.827 2.5365-6.1237s-0.9125-4.4997-2.5365-6.1237c-1.624-1.624-3.827-2.5365-6.1237-2.5365s-4.4997 0.9125-6.1237 2.5365c-1.624 1.624-2.5365 3.827-2.5365 6.1237s0.9125 4.4997 2.5365 6.1237c1.624 1.624 3.827 2.5365 6.1237 2.5365z"/>
</defs>
<g clip-path="url(#a)">
<use x="78.474766" y="864.540557" fill="#ffffff" stroke="#ffffff" xlink:href="#b"/>
</g>
<g clip-path="url(#a)">
<use x="125.92074" y="864.540557" fill="#ffffff" stroke="#ffffff" xlink:href="#b"/>
</g>
<g clip-path="url(#a)">
<use x="173.366714" y="864.540557" fill="#ffffff" stroke="#ffffff" xlink:href="#b"/>
</g>
<g clip-path="url(#a)">
<use x="220.812688" y="864.540557" fill="#ffffff" stroke="#ffffff" xlink:href="#b"/>
</g>
<g clip-path="url(#a)">
<use x="268.258661" y="864.540557" fill="#ffffff" stroke="#ffffff" xlink:href="#b"/>
</g>
<g clip-path="url(#a)">
<use x="315.704635" y="864.540557" fill="#ffffff" stroke="#ffffff" xlink:href="#b"/>
</g>
<g clip-path="url(#a)">
<use x="363.150609" y="864.540557" fill="#ffffff" stroke="#ffffff" xlink:href="#b"/>
</g>
<g clip-path="url(#a)">
<use x="410.596583" y="864.540557" fill="#ffffff" stroke="#ffffff" xlink:href="#b"/>
</g>
<g clip-path="url(#a)">
<use x="458.042556" y="864.540557" fill="#ffffff" stroke="#ffffff" xlink:href="#b"/>
</g>
<g clip-path="url(#a)">
<use x="505.48853" y="864.540557" fill="#ffffff" stroke="#ffffff" xlink:href="#b"/>
</g>
<g clip-path="url(#a)">
<use x="552.934504" y="864.540557" fill="#ffffff" stroke="#ffffff" xlink:href="#b"/>
</g>
<g clip-path="url(#a)">
<use x="600.380478" y="864.540557" fill="#ffffff" stroke="#ffffff" xlink:href="#b"/>
</g>
<g clip-path="url(#a)">
<use x="647.826451" y="864.540557" fill="#ffffff" stroke="#ffffff" xlink:href="#b"/>
</g>
<g clip-path="url(#a)">
<use x="695.272425" y="864.540557" fill="#ffffff" stroke="#ffffff" xlink:href="#b"/>
</g>
<g clip-path="url(#a)">
<use x="742.718399" y="864.540557" fill="#ffffff" stroke="#ffffff" xlink:href="#b"/>
</g>
<g clip-path="url(#a)">
<use x="790.164373" y="864.540557" fill="#ffffff" stroke="#ffffff" xlink:href="#b"/>
</g>
<g clip-path="url(#a)">
<use x="837.610346" y="864.540557" fill="#ffffff" stroke="#ffffff" xlink:href="#b"/>
</g>
<g clip-path="url(#a)">
<use x="885.05632" y="864.540557" fill="#ffffff" stroke="#ffffff" xlink:href="#b"/>
</g>
<g clip-path="url(#a)">
<use x="932.502294" y="864.540557" fill="#ffffff" stroke="#ffffff" xlink:href="#b"/>
</g>
<g clip-path="url(#a)">
<use x="979.948268" y="864.540557" fill="#ffffff" stroke="#ffffff" xlink:href="#b"/>
</g>
<g clip-path="url(#a)">
<use x="1027.394241" y="864.540557" fill="#ffffff" stroke="#ffffff" xlink:href="#b"/>
</g>
<g clip-path="url(#a)">
<use x="1074.840215" y="864.540557" fill="#ffffff" stroke="#ffffff" xlink:href="#b"/>
</g>
<g clip-path="url(#a)">
<use x="1122.286189" y="864.540557" fill="#ffffff" stroke="#ffffff" xlink:href="#b"/>
</g>
<g clip-path="url(#a)">
<use x="1169.732163" y="864.540557" fill="#ffffff" stroke="#ffffff" xlink:href="#b"/>
</g>
<g clip-path="url(#a)">
<use x="1217.178137" y="864.540557" fill="#ffffff" stroke="#ffffff" xlink:href="#b"/>
</g>
<g clip-path="url(#a)">
<use x="1264.62411" y="864.540557" fill="#ffffff" stroke="#ffffff" xlink:href="#b"/>
</g>
<g clip-path="url(#a)">
<use x="1312.070084" y="864.540557" fill="#ffffff" stroke="#ffffff" xlink:href="#b"/>
</g>
<g clip-path="url(#a)">
<use x="1359.516058" y="864.540557" fill="#ffffff" stroke="#ffffff" xlink:href="#b"/>
</g>
<g clip-path="url(#a)">
<use x="1406.962032" y="864.540557" fill="#ffffff" stroke="#ffffff" xlink:href="#b"/>
</g>
<g clip-path="url(#a)">
<use x="1454.408005" y="864.540557" fill="#ffffff" stroke="#ffffff" xlink:href="#b"/>
</g>
<g clip-path="url(#a)">
<use x="1501.853979" y="864.540557" fill="#ffffff" stroke="#ffffff" xlink:href="#b"/>
</g>
<g clip-path="url(#a)">
<use x="1549.299953" y="864.540557" fill="#ffffff" stroke="#ffffff" xlink:href="#b"/>
</g>
<g clip-path="url(#a)">
<use x="1596.745927" y="864.540557" fill="#ffffff" stroke="#ffffff" xlink:href="#b"/>
</g>
<g clip-path="url(#a)">
<use x="1644.1919" y="864.540557" fill="#ffffff" stroke="#ffffff" xlink:href="#b"/>
</g>
<g clip-path="url(#a)">
<use x="1150.556082" y="42.12611" fill="#ffffff" stroke="#ffffff" xlink:href="#b"/>
</g>
<g clip-path="url(#a)">
<use x="787.792074" y="186.174812" fill="#ffffff" stroke="#ffffff" xlink:href="#b"/>
</g>
<g clip-path="url(#a)">
<use x="1217.178137" y="731.640438" fill="#ffffff" stroke="#ffffff" xlink:href="#b"/>
</g>
<g clip-path="url(#a)">
<use x="991.809761" y="463.991412" fill="#ffffff" stroke="#ffffff" xlink:href="#b"/>
</g>
<g clip-path="url(#a)">
<use x="1454.408005" y="731.640438" fill="#ffffff" stroke="#ffffff" xlink:href="#b"/>
</g>
<g clip-path="url(#a)">
<use x="1282.41635" y="463.991412" fill="#ffffff" stroke="#ffffff" xlink:href="#b"/>
</g>
<g clip-path="url(#a)">
<use x="1525.576966" y="598.740318" fill="#ffffff" stroke="#ffffff" xlink:href="#b"/>
</g>
<g clip-path="url(#a)">
<use x="1596.745927" y="731.640438" fill="#ffffff" stroke="#ffffff" xlink:href="#b"/>
</g>
<g clip-path="url(#a)">
<use x="1501.853979" y="731.640438" fill="#ffffff" stroke="#ffffff" xlink:href="#b"/>
</g>
<g clip-path="url(#a)">
<use x="1549.299953" y="731.640438" fill="#ffffff" stroke="#ffffff" xlink:href="#b"/>
</g>
<g clip-path="url(#a)">
<use x="1264.62411" y="731.640438" fill="#ffffff" stroke="#ffffff" xlink:href="#b"/>
</g>
<g clip-path="url(#a)">
<use x="1347.654564" y="598.740318" fill="#ffffff" stroke="#ffffff" xlink:href="#b"/>
</g>
<g clip-path="url(#a)">
<use x="1312.070084" y="731.640438" fill="#ffffff" stroke="#ffffff" xlink:href="#b"/>
</g>
<g clip-path="url(#a)">
<use x="1383.239045" y="731.640438" fill="#ffffff" stroke="#ffffff" xlink:href="#b"/>
</g>
<g clip-path="url(#a)">
<use x="379.7567" y="326.647815" fill="#ffffff" stroke="#ffffff" xlink:href="#b"/>
</g>
<g clip-path="url(#a)">
<use x="908.779307" y="598.740318" fill="#ffffff" stroke="#ffffff" xlink:href="#b"/>
</g>
<g clip-path="url(#a)">
<use x="1074.840215" y="598.740318" fill="#ffffff" stroke="#ffffff" xlink:href="#b"/>
</g>
<g clip-path="url(#a)">
<use x="1027.394241" y="731.640438" fill="#ffffff" stroke="#ffffff" xlink:href="#b"/>
</g>
<g clip-path="url(#a)">
<use x="1074.840215" y="731.640438" fill="#ffffff" stroke="#ffffff" xlink:href="#b"/>
</g>
<g clip-path="url(#a)">
<use x="1122.286189" y="731.640438" fill="#ffffff" stroke="#ffffff" xlink:href="#b"/>
</g>
<g clip-path="url(#a)">
<use x="837.610346" y="731.640438" fill="#ffffff" stroke="#ffffff" xlink:href="#b"/>
</g>
<g clip-path="url(#a)">
<use x="885.05632" y="731.640438" fill="#ffffff" stroke="#ffffff" xlink:href="#b"/>
</g>
<g clip-path="url(#a)">
<use x="979.948268" y="731.640438" fill="#ffffff" stroke="#ffffff" xlink:href="#b"/>
</g>
<g clip-path="url(#a)">
<use x="137.782233" y="463.991412" fill="#ffffff" stroke="#ffffff" xlink:href="#b"/>
</g>
<g clip-path="url(#a)">
<use x="363.150609" y="731.640438" fill="#ffffff" stroke="#ffffff" xlink:href="#b"/>
</g>
<g clip-path="url(#a)">
<use x="671.549438" y="598.740318" fill="#ffffff" stroke="#ffffff" xlink:href="#b"/>
</g>
<g clip-path="url(#a)">
<use x="552.934504" y="731.640438" fill="#ffffff" stroke="#ffffff" xlink:href="#b"/>
</g>
<g clip-path="url(#a)">
<use x="790.164373" y="731.640438" fill="#ffffff" stroke="#ffffff" xlink:href="#b"/>
</g>
<g clip-path="url(#a)">
<use x="600.380478" y="731.640438" fill="#ffffff" stroke="#ffffff" xlink:href="#b"/>
</g>
<g clip-path="url(#a)">
<use x="671.549438" y="731.640438" fill="#ffffff" stroke="#ffffff" xlink:href="#b"/>
</g>
<g clip-path="url(#a)">
<use x="742.718399" y="731.640438" fill="#ffffff" stroke="#ffffff" xlink:href="#b"/>
</g>
<g clip-path="url(#a)">
<use x="102.197753" y="598.740318" fill="#ffffff" stroke="#ffffff" xlink:href="#b"/>
</g>
<g clip-path="url(#a)">
<use x="173.366714" y="731.640438" fill="#ffffff" stroke="#ffffff" xlink:href="#b"/>
</g>
<g clip-path="url(#a)">
<use x="78.474766" y="731.640438" fill="#ffffff" stroke="#ffffff" xlink:href="#b"/>
</g>
<g clip-path="url(#a)">
<use x="125.92074" y="731.640438" fill="#ffffff" stroke="#ffffff" xlink:href="#b"/>
</g>
<g clip-path="url(#a)">
<use x="1242.878039" y="326.647815" fill="#808080" stroke="#808080" xlink:href="#b"/>
</g>
<g clip-path="url(#a)">
<use x="998.926657" y="42.12611" fill="#808080" stroke="#808080" xlink:href="#b"/>
</g>
<g clip-path="url(#a)">
<use x="220.812688" y="731.640438" fill="#ffffff" stroke="#ffffff" xlink:href="#b"/>
</g>
<g clip-path="url(#a)">
<use x="505.48853" y="731.640438" fill="#ffffff" stroke="#ffffff" xlink:href="#b"/>
</g>
<g clip-path="url(#a)">
<use x="932.502294" y="731.640438" fill="#ffffff" stroke="#ffffff" xlink:href="#b"/>
</g>
<g clip-path="url(#a)">
<use x="1169.732163" y="731.640438" fill="#ffffff" stroke="#ffffff" xlink:href="#b"/>
</g>
<g clip-path="url(#a)">
<use x="1644.1919" y="731.640438" fill="#ffffff" stroke="#ffffff" xlink:href="#b"/>
</g>
<g clip-path="url(#a)">
<defs>
<path id="au" d="m19.672 34.812v-26.703h15.828q7.9531 0 11.781 3.2969 3.8438 3.2969 3.8438 10.078 0 6.8438-3.8438 10.078-3.8281 3.25-11.781 3.25zm0 29.984v-21.969h14.609q7.2188 0 10.75 2.7031 3.5469 2.7188 3.5469 8.2812 0 5.5156-3.5469 8.25-3.5312 2.7344-10.75 2.7344zm-9.8594 8.1094h25.203q11.281 0 17.375-4.6875 6.1094-4.6875 6.1094-13.328 0-6.7031-3.125-10.656t-9.1875-4.9219q7.2812-1.5625 11.312-6.5312 4.0312-4.9531 4.0312-12.375 0-9.7656-6.6406-15.094-6.6406-5.3125-18.906-5.3125h-26.172z"/>
<path id="q" d="m30.609 48.391q-7.2188 0-11.422-5.6406t-4.2031-15.453 4.1719-15.453q4.1875-5.6406 11.453-5.6406 7.1875 0 11.375 5.6562 4.2031 5.6719 4.2031 15.438 0 9.7188-4.2031 15.406-4.1875 5.6875-11.375 5.6875zm0 7.6094q11.719 0 18.406-7.625 6.7031-7.6094 6.7031-21.078 0-13.422-6.7031-21.078-6.6875-7.6406-18.406-7.6406-11.766 0-18.438 7.6406-6.6562 7.6562-6.6562 21.078 0 13.469 6.6562 21.078 6.6719 7.625 18.438 7.625z"/>
<path id="ai" d="m4.2031 54.688h8.9844l11.234-42.672 11.172 42.672h10.594l11.234-42.672 11.188 42.672h8.9844l-14.312-54.688h-10.594l-11.766 44.828-11.812-44.828h-10.609z"/>
</defs>
<g transform="translate(63.43 867.3) scale(.1 -.1)">
<use xlink:href="#au"/>
<use x="68.603516" xlink:href="#q"/>
<use x="129.785156" xlink:href="#ai"/>
<use x="211.572266" xlink:href="#i"/>
<use x="239.355469" xlink:href="#d"/>
</g>
</g>
<g clip-path="url(#a)">
<defs>
<path id="an" d="m17.922 72.906v-27.109h-8.2969v27.109z"/>
<path id="v" d="m44.281 53.078v-8.5q-3.7969 1.9531-7.9062 2.9219-4.0938 0.98438-8.5 0.98438-6.6875 0-10.031-2.0469t-3.3438-6.1562q0-3.125 2.3906-4.9062t9.625-3.3906l3.0781-0.6875q9.5625-2.0469 13.594-5.7812t4.0312-10.422q0-7.625-6.0312-12.078-6.0312-4.4375-16.578-4.4375-4.3906 0-9.1562 0.85938t-10.031 2.5625v9.2812q4.9844-2.5938 9.8125-3.8906 4.8281-1.2812 9.5781-1.2812 6.3438 0 9.75 2.1719 3.4219 2.1719 3.4219 6.125 0 3.6562-2.4688 5.6094-2.4531 1.9531-10.812 3.7656l-3.125 0.73438q-8.3438 1.75-12.062 5.3906-3.7031 3.6406-3.7031 9.9844 0 7.7188 5.4688 11.906 5.4688 4.2031 15.531 4.2031 4.9688 0 9.3594-0.73438 4.4062-0.71875 8.1094-2.1875z"/>
</defs>
<g transform="translate(121.94 867.3) scale(.1 -.1)">
<use xlink:href="#an"/>
<use x="27.490234" xlink:href="#v"/>
</g>
</g>
<g clip-path="url(#a)">
<defs>
<path id="ak" d="m45.406 27.984q0 9.7656-4.0312 15.125-4.0156 5.375-11.297 5.375-7.2188 0-11.25-5.375-4.0312-5.3594-4.0312-15.125 0-9.7188 4.0312-15.094t11.25-5.375q7.2812 0 11.297 5.375 4.0312 5.375 4.0312 15.094zm8.9844-21.203q0-13.953-6.2031-20.766-6.1875-6.8125-18.984-6.8125-4.7344 0-8.9375 0.70312t-8.1562 2.1719v8.7344q3.9531-2.1406 7.8125-3.1562 3.8594-1.0312 7.8594-1.0312 8.8438 0 13.234 4.6094t4.3906 13.938v4.4531q-2.7812-4.8438-7.125-7.2344t-10.406-2.3906q-10.047 0-16.203 7.6562-6.1562 7.6719-6.1562 20.328 0 12.688 6.1562 20.344 6.1562 7.6719 16.203 7.6719 6.0625 0 10.406-2.3906t7.125-7.2188v8.2969h8.9844z"/>
</defs>
<g transform="translate(161.36 867.3) scale(.1 -.1)">
<use xlink:href="#v"/>
<use x="52.099609" xlink:href="#q"/>
<use x="113.28125" xlink:href="#h"/>
<use x="176.660156" xlink:href="#ak"/>
</g>
</g>
<g clip-path="url(#a)">
<defs>
<path id="ao" d="m17.922 72.906v-27.109h-8.2969v27.109zm18.453 0v-27.109h-8.2969v27.109z"/>
</defs>
<g transform="translate(218.51 867.3) scale(.1 -.1)">
<use xlink:href="#ao"/>
</g>
</g>
<g clip-path="url(#a)">
<defs>
<path id="as" d="m9.8125 72.906h9.8594v-72.906h-9.8594z"/>
</defs>
<g transform="translate(266.78 867.3) scale(.1 -.1)">
<use xlink:href="#as"/>
</g>
</g>
<g clip-path="url(#a)">
<g transform="translate(309.46 867.3) scale(.1 -.1)">
<use xlink:href="#an"/>
<use x="27.490234" xlink:href="#j"/>
</g>
</g>
<g clip-path="url(#a)">
<defs>
<path id="w" d="m37.109 75.984v-7.4844h-8.5938q-4.8281 0-6.7188-1.9531-1.875-1.9531-1.875-7.0312v-4.8281h14.797v-6.9844h-14.797v-47.703h-9.0312v47.703h-8.5938v6.9844h8.5938v3.8125q0 9.125 4.25 13.297 4.25 4.1875 13.469 4.1875z"/>
<path id="aa" d="m45.406 46.391v29.594h8.9844v-75.984h-8.9844v8.2031q-2.8281-4.875-7.1562-7.25-4.3125-2.375-10.375-2.375-9.9062 0-16.141 7.9062-6.2188 7.9219-6.2188 20.812t6.2188 20.797q6.2344 7.9062 16.141 7.9062 6.0625 0 10.375-2.375 4.3281-2.3594 7.1562-7.2344zm-30.609-19.094q0-9.9062 4.0781-15.547t11.203-5.6406 11.219 5.6406q4.1094 5.6406 4.1094 15.547t-4.1094 15.547q-4.0938 5.6406-11.219 5.6406t-11.203-5.6406-4.0781-15.547z"/>
</defs>
<g transform="translate(348.29 867.3) scale(.1 -.1)">
<use xlink:href="#o"/>
<use x="68.361328" xlink:href="#w"/>
<use x="103.566406" xlink:href="#e"/>
<use x="144.679688" xlink:href="#g"/>
<use x="205.958984" xlink:href="#i"/>
<use x="233.742188" xlink:href="#aa"/>
</g>
</g>
<g clip-path="url(#a)">
<g transform="translate(405.78 867.3) scale(.1 -.1)">
<use xlink:href="#q"/>
<use x="61.181641" xlink:href="#w"/>
</g>
</g>
<g clip-path="url(#a)">
<defs>
<path id="al" d="m48.781 52.594v-8.4062q-3.8125 2.1094-7.6406 3.1562t-7.7344 1.0469q-8.75 0-13.594-5.5469-4.8281-5.5312-4.8281-15.547t4.8281-15.562q4.8438-5.5312 13.594-5.5312 3.9062 0 7.7344 1.0469t7.6406 3.1562v-8.3125q-3.7656-1.75-7.7969-2.625-4.0156-0.89062-8.5625-0.89062-12.359 0-19.641 7.7656-7.2656 7.7656-7.2656 20.953 0 13.375 7.3438 21.031 7.3594 7.6719 20.156 7.6719 4.1406 0 8.0938-0.85938 3.9531-0.84375 7.6719-2.5469z"/>
</defs>
<g transform="translate(431.64 867.3) scale(.1 -.1)">
<use xlink:href="#o"/>
<use x="68.408203" xlink:href="#j"/>
<use x="165.820312" xlink:href="#d"/>
<use x="227.34375" xlink:href="#e"/>
<use x="268.457031" xlink:href="#i"/>
<use x="296.240234" xlink:href="#al"/>
<use x="351.220703" xlink:href="#g"/>
<use x="412.5" xlink:href="#h"/>
<use x="475.878906" xlink:href="#v"/>
</g>
</g>
<g clip-path="url(#a)">
<g transform="translate(503.19 867.3) scale(.1 -.1)">
<use xlink:href="#ao"/>
</g>
</g>
<g clip-path="url(#a)">
<g transform="translate(541.19 867.3) scale(.1 -.1)">
<use xlink:href="#w"/>
<use x="35.205078" xlink:href="#e"/>
<use x="76.287109" xlink:href="#q"/>
<use x="137.46875" xlink:href="#j"/>
</g>
</g>
<g clip-path="url(#a)">
<defs>
<path id="aj" d="m18.312 70.219v-15.531h18.5v-6.9844h-18.5v-29.688q0-6.6875 1.8281-8.5938t7.4531-1.9062h9.2188v-7.5156h-9.2188q-10.406 0-14.359 3.875-3.9531 3.8906-3.9531 14.141v29.688h-6.5938v6.9844h6.5938v15.531z"/>
<path id="ae" d="m54.891 33.016v-33.016h-8.9844v32.719q0 7.7656-3.0312 11.609-3.0312 3.8594-9.0781 3.8594-7.2812 0-11.484-4.6406-4.2031-4.625-4.2031-12.641v-30.906h-9.0312v75.984h9.0312v-29.797q3.2344 4.9375 7.5938 7.375 4.375 2.4375 10.094 2.4375 9.4219 0 14.25-5.8281 4.8438-5.8281 4.8438-17.156z"/>
</defs>
<g transform="translate(592.18 867.3) scale(.1 -.1)">
<use xlink:href="#aj"/>
<use x="39.208984" xlink:href="#ae"/>
<use x="102.587891" xlink:href="#d"/>
</g>
</g>
<g clip-path="url(#a)">
<defs>
<path id="ap" d="m8.5 21.578v33.109h8.9844v-32.766q0-7.7656 3.0156-11.656 3.0312-3.875 9.0938-3.875 7.2656 0 11.484 4.6406 4.2344 4.6406 4.2344 12.656v31h8.9844v-54.688h-8.9844v8.4062q-3.2656-4.9844-7.5938-7.4062-4.3125-2.4219-10.031-2.4219-9.4219 0-14.312 5.8594-4.875 5.8594-4.875 17.141z"/>
</defs>
<g transform="translate(637.19 867.3) scale(.1 -.1)">
<use xlink:href="#ab"/>
<use x="60.240234" xlink:href="#g"/>
<use x="121.519531" xlink:href="#ap"/>
<use x="184.898438" xlink:href="#k"/>
</g>
</g>
<g clip-path="url(#a)">
<defs>
<path id="aq" d="m28.609 0-27.828 72.906h10.297l23.109-61.375 23.141 61.375h10.25l-27.781-72.906z"/>
<path id="ba" d="m2.9844 54.688h9.5156l17.094-45.891 17.094 45.891h9.5156l-20.516-54.688h-12.203z"/>
</defs>
<g transform="translate(668.22 867.3) scale(.1 -.1)">
<use xlink:href="#aq"/>
<use x="68.298828" xlink:href="#d"/>
<use x="129.822266" xlink:href="#e"/>
<use x="170.919922" xlink:href="#ae"/>
<use x="234.298828" xlink:href="#q"/>
<use x="295.480469" xlink:href="#d"/>
<use x="357.003906" xlink:href="#ba"/>
<use x="416.183594" xlink:href="#d"/>
<use x="477.707031" xlink:href="#h"/>
</g>
</g>
<g clip-path="url(#a)">
<g transform="translate(733.31 867.3) scale(.1 -.1)">
<use xlink:href="#w"/>
<use x="35.205078" xlink:href="#i"/>
<use x="62.988281" xlink:href="#k"/>
<use x="90.771484" xlink:href="#j"/>
</g>
</g>
<g clip-path="url(#a)">
<defs>
<path id="ar" d="m53.516 70.516v-9.625q-5.6094 2.6875-10.594 4-4.9844 1.3281-9.625 1.3281-8.0469 0-12.422-3.125t-4.375-8.8906q0-4.8438 2.9062-7.3125 2.9062-2.4531 11.016-3.9688l5.9531-1.2188q11.031-2.1094 16.281-7.4062t5.25-14.172q0-10.609-7.1094-16.078-7.0938-5.4688-20.812-5.4688-5.1719 0-11.016 1.1719-5.8281 1.1719-12.078 3.4688v10.156q6-3.3594 11.766-5.0781 5.7656-1.7031 11.328-1.7031 8.4375 0 13.031 3.3125 4.5938 3.3281 4.5938 9.4844 0 5.3594-3.2969 8.3906t-10.812 4.5469l-6.0156 1.1719q-11.031 2.1875-15.969 6.875-4.9219 4.6875-4.9219 13.047 0 9.6719 6.8125 15.234t18.766 5.5625q5.1406 0 10.453-0.9375 5.3281-0.92188 10.891-2.7656z"/>
</defs>
<g transform="translate(766.06 867.3) scale(.1 -.1)">
<use xlink:href="#ar"/>
<use x="63.476562" xlink:href="#ae"/>
<use x="126.855469" xlink:href="#q"/>
<use x="188.037109" xlink:href="#ai"/>
<use x="269.824219" xlink:href="#ak"/>
<use x="333.300781" xlink:href="#i"/>
<use x="361.083984" xlink:href="#e"/>
<use x="402.197266" xlink:href="#k"/>
<use x="429.980469" xlink:href="#v"/>
</g>
</g>
<g clip-path="url(#a)">
<g transform="translate(827.85 867.3) scale(.1 -.1)">
<use xlink:href="#ai"/>
<use x="81.787109" xlink:href="#g"/>
<use x="143.066406" xlink:href="#v"/>
</g>
</g>
<g clip-path="url(#a)">
<g transform="translate(879.93 867.3) scale(.1 -.1)">
<use xlink:href="#e"/>
<use x="41.082031" xlink:href="#d"/>
</g>
</g>
<g clip-path="url(#a)">
<defs>
<path id="av" d="m4.8906 31.391h26.312v-8h-26.312z"/>
</defs>
<g transform="translate(930.7 867.3) scale(.1 -.1)">
<use xlink:href="#av"/>
</g>
</g>
<g clip-path="url(#a)">
<g transform="translate(957.53 867.3) scale(.1 -.1)">
<use xlink:href="#e"/>
<use x="41.082031" xlink:href="#d"/>
<use x="102.605469" xlink:href="#al"/>
<use x="157.585938" xlink:href="#q"/>
<use x="218.767578" xlink:href="#e"/>
<use x="259.865234" xlink:href="#aa"/>
<use x="323.341797" xlink:href="#d"/>
<use x="384.865234" xlink:href="#aa"/>
</g>
</g>
<g clip-path="url(#a)">
<g transform="translate(1020.5 867.3) scale(.1 -.1)">
<use xlink:href="#w"/>
<use x="35.205078" xlink:href="#q"/>
<use x="96.386719" xlink:href="#e"/>
</g>
</g>
<g clip-path="url(#a)">
<g transform="translate(1066.6 867.3) scale(.1 -.1)">
<use xlink:href="#aj"/>
<use x="39.208984" xlink:href="#ae"/>
<use x="102.587891" xlink:href="#d"/>
</g>
</g>
<g clip-path="url(#a)">
<defs>
<path id="am" d="m48.688 27.297q0 9.9062-4.0781 15.547t-11.203 5.6406q-7.1406 0-11.219-5.6406t-4.0781-15.547 4.0781-15.547 11.219-5.6406q7.125 0 11.203 5.6406t4.0781 15.547zm-30.578 19.094q2.8438 4.875 7.1562 7.2344 4.3281 2.375 10.328 2.375 9.9688 0 16.188-7.9062 6.2344-7.9062 6.2344-20.797t-6.2344-20.812q-6.2188-7.9062-16.188-7.9062-6 0-10.328 2.375-4.3125 2.375-7.1562 7.25v-8.2031h-9.0312v75.984h9.0312z"/>
</defs>
<g transform="translate(1106.6 867.3) scale(.1 -.1)">
<use xlink:href="#g"/>
<use x="61.279297" xlink:href="#k"/>
<use x="89.0625" xlink:href="#am"/>
<use x="152.539062" xlink:href="#ap"/>
<use x="215.917969" xlink:href="#j"/>
</g>
</g>
<g clip-path="url(#a)">
<defs>
<path id="aw" d="m11.719 12.406h10.297v-8.4062l-8-15.625h-6.2969l4 15.625z"/>
</defs>
<g transform="translate(1168.1 867.3) scale(.1 -.1)">
<use xlink:href="#aw"/>
</g>
</g>
<g clip-path="url(#a)">
<g transform="translate(1207.8 867.3) scale(.1 -.1)">
<use xlink:href="#g"/>
<use x="61.279297" xlink:href="#h"/>
<use x="124.658203" xlink:href="#aa"/>
</g>
</g>
<g clip-path="url(#a)">
<defs>
<path id="az" d="m54.891 54.688-19.781-26.609 20.797-28.078h-10.594l-15.922 21.484-15.906-21.484h-10.609l21.25 28.609-19.438 26.078h10.594l14.5-19.484 14.5 19.484z"/>
</defs>
<g transform="translate(1244 867.3) scale(.1 -.1)">
<use xlink:href="#e"/>
<use x="41.082031" xlink:href="#d"/>
<use x="102.605469" xlink:href="#j"/>
<use x="200.017578" xlink:href="#i"/>
<use x="227.800781" xlink:href="#az"/>
<use x="286.933594" xlink:href="#d"/>
<use x="348.457031" xlink:href="#aa"/>
</g>
</g>
<g clip-path="url(#a)">
<defs>
<path id="ay" d="m32.172-5.0781q-3.7969-9.7656-7.4219-12.734-3.6094-2.9844-9.6562-2.9844h-7.1875v7.5156h5.2812q3.7031 0 5.75 1.7656 2.0625 1.75 4.5469 8.2969l1.6094 4.0938-22.109 53.812h9.5156l17.094-42.766 17.094 42.766h9.5156z"/>
</defs>
<g transform="translate(1305.9 867.3) scale(.1 -.1)">
<use xlink:href="#am"/>
<use x="63.476562" xlink:href="#ay"/>
</g>
</g>
<g clip-path="url(#a)">
<g transform="translate(1346.2 867.3) scale(.1 -.1)">
<use xlink:href="#l"/>
<use x="60.865234" xlink:href="#e"/>
<use x="101.947266" xlink:href="#d"/>
<use x="163.470703" xlink:href="#h"/>
<use x="226.849609" xlink:href="#aj"/>
</g>
</g>
<g clip-path="url(#a)">
<defs>
<path id="ax" d="m5.5156 54.688h42.672v-8.2031l-33.781-39.312h33.781v-7.1719h-43.891v8.2031l33.797 39.312h-32.578z"/>
</defs>
<g transform="translate(1389.5 867.3) scale(.1 -.1)">
<use xlink:href="#u"/>
<use x="69.419922" xlink:href="#d"/>
<use x="130.943359" xlink:href="#ax"/>
<use x="183.433594" xlink:href="#h"/>
<use x="246.8125" xlink:href="#q"/>
<use x="307.994141" xlink:href="#e"/>
</g>
</g>
<g clip-path="url(#a)">
<g transform="translate(1447.5 867.3) scale(.1 -.1)">
<use xlink:href="#w"/>
<use x="35.205078" xlink:href="#q"/>
<use x="96.386719" xlink:href="#e"/>
</g>
</g>
<g clip-path="url(#a)">
<g transform="translate(1498.8 867.3) scale(.1 -.1)">
<use xlink:href="#g"/>
</g>
</g>
<g clip-path="url(#a)">
<g transform="translate(1534.5 867.3) scale(.1 -.1)">
<use xlink:href="#v"/>
<use x="52.099609" xlink:href="#i"/>
<use x="79.882812" xlink:href="#h"/>
<use x="143.261719" xlink:href="#ak"/>
<use x="206.738281" xlink:href="#k"/>
<use x="234.521484" xlink:href="#d"/>
</g>
</g>
<g clip-path="url(#a)">
<g transform="translate(1578.4 867.3) scale(.1 -.1)">
<use xlink:href="#e"/>
<use x="41.082031" xlink:href="#d"/>
<use x="102.605469" xlink:href="#k"/>
<use x="130.388672" xlink:href="#d"/>
<use x="191.912109" xlink:href="#g"/>
<use x="253.191406" xlink:href="#v"/>
<use x="305.291016" xlink:href="#d"/>
</g>
</g>
<g clip-path="url(#a)">
<defs>
<path id="f" d="m10.688 12.406h10.312v-12.406h-10.312z"/>
</defs>
<g transform="translate(1642.6 867.3) scale(.1 -.1)">
<use xlink:href="#f"/>
</g>
</g>
<g clip-path="url(#a)">
<defs>
<path id="c" d="m12.406 8.2969h16.109v55.625l-17.531-3.5156v8.9844l17.438 3.5156h9.8594v-64.609h16.109v-8.2969h-41.984z"/>
</defs>
<g transform="translate(1142.6 44.885) scale(.1 -.1)">
<use xlink:href="#c"/>
<use x="63.623047" xlink:href="#f"/>
<use x="95.410156" xlink:href="#c"/>
</g>
</g>
<g clip-path="url(#a)">
<defs>
<path id="n" d="m19.188 8.2969h34.422v-8.2969h-46.281v8.2969q5.6094 5.8125 15.297 15.594 9.7031 9.7969 12.188 12.641 4.7344 5.3125 6.6094 9 1.8906 3.6875 1.8906 7.25 0 5.8125-4.0781 9.4688-4.0781 3.6719-10.625 3.6719-4.6406 0-9.7969-1.6094-5.1406-1.6094-11-4.8906v9.9688q5.9531 2.3906 11.125 3.6094 5.1875 1.2188 9.4844 1.2188 11.328 0 18.062-5.6719 6.7344-5.6562 6.7344-15.125 0-4.5-1.6875-8.5312-1.6719-4.0156-6.125-9.4844-1.2188-1.4219-7.7656-8.1875-6.5312-6.7656-18.453-18.922z"/>
</defs>
<g transform="translate(779.84 188.93) scale(.1 -.1)">
<use xlink:href="#c"/>
<use x="63.623047" xlink:href="#f"/>
<use x="95.410156" xlink:href="#n"/>
</g>
</g>
<g clip-path="url(#a)">
<defs>
<path id="m" d="m37.797 64.312-24.906-38.922h24.906zm-2.5938 8.5938h12.406v-47.516h10.406v-8.2031h-10.406v-17.188h-9.8125v17.188h-32.906v9.5156z"/>
</defs>
<g transform="translate(1209.2 734.4) scale(.1 -.1)">
<use xlink:href="#c"/>
<use x="63.623047" xlink:href="#f"/>
<use x="95.410156" xlink:href="#m"/>
</g>
</g>
<g clip-path="url(#a)">
<defs>
<path id="ad" d="m10.797 72.906h38.719v-8.3125h-29.688v-17.859q2.1406 0.73438 4.2812 1.0938 2.1562 0.35938 4.3125 0.35938 12.203 0 19.328-6.6875 7.1406-6.6875 7.1406-18.109 0-11.766-7.3281-18.297-7.3281-6.5156-20.656-6.5156-4.5938 0-9.3594 0.78125-4.75 0.78125-9.8281 2.3438v9.9219q4.3906-2.3906 9.0781-3.5625t9.9062-1.1719q8.4531 0 13.375 4.4375 4.9375 4.4375 4.9375 12.062 0 7.6094-4.9375 12.047-4.9219 4.4531-13.375 4.4531-3.9531 0-7.8906-0.875-3.9219-0.875-8.0156-2.7344z"/>
</defs>
<g transform="translate(983.86 466.75) scale(.1 -.1)">
<use xlink:href="#c"/>
<use x="63.623047" xlink:href="#f"/>
<use x="95.410156" xlink:href="#ad"/>
</g>
</g>
<g clip-path="url(#a)">
<defs>
<path id="z" d="m33.016 40.375q-6.6406 0-10.531-4.5469-3.875-4.5312-3.875-12.438 0-7.8594 3.875-12.438 3.8906-4.5625 10.531-4.5625t10.516 4.5625q3.875 4.5781 3.875 12.438 0 7.9062-3.875 12.438-3.875 4.5469-10.516 4.5469zm19.578 30.922v-8.9844q-3.7188 1.75-7.5 2.6719-3.7812 0.9375-7.5 0.9375-9.7656 0-14.922-6.5938-5.1406-6.5938-5.875-19.922 2.875 4.25 7.2188 6.5156 4.3594 2.2656 9.5781 2.2656 10.984 0 17.359-6.6719 6.375-6.6562 6.375-18.125 0-11.234-6.6406-18.031-6.6406-6.7812-17.672-6.7812-12.656 0-19.344 9.6875-6.6875 9.7031-6.6875 28.109 0 17.281 8.2031 27.562t22.016 10.281q3.7188 0 7.5-0.73438t7.8906-2.1875z"/>
</defs>
<g transform="translate(1446.5 734.4) scale(.1 -.1)">
<use xlink:href="#c"/>
<use x="63.623047" xlink:href="#f"/>
<use x="95.410156" xlink:href="#z"/>
</g>
</g>
<g clip-path="url(#a)">
<defs>
<path id="y" d="m8.2031 72.906h46.875v-4.2031l-26.469-68.703h-10.297l24.906 64.594h-35.016z"/>
</defs>
<g transform="translate(1274.5 466.75) scale(.1 -.1)">
<use xlink:href="#c"/>
<use x="63.623047" xlink:href="#f"/>
<use x="95.410156" xlink:href="#y"/>
</g>
</g>
<g clip-path="url(#a)">
<defs>
<path id="ac" d="m10.984 1.5156v8.9844q3.7188-1.7656 7.5156-2.6875 3.8125-0.92188 7.4844-0.92188 9.7656 0 14.906 6.5625 5.1562 6.5625 5.8906 19.953-2.8281-4.2031-7.1875-6.4531-4.3438-2.25-9.6094-2.25-10.938 0-17.312 6.6094-6.375 6.625-6.375 18.109 0 11.219 6.6406 18 6.6406 6.7969 17.672 6.7969 12.656 0 19.312-9.7031 6.6719-9.6875 6.6719-28.141 0-17.234-8.1875-27.516-8.1719-10.281-21.984-10.281-3.7188 0-7.5312 0.73438-3.7969 0.73438-7.9062 2.2031zm19.625 30.906q6.6406 0 10.516 4.5312 3.8906 4.5469 3.8906 12.469 0 7.8594-3.8906 12.422-3.875 4.5625-10.516 4.5625t-10.516-4.5625-3.875-12.422q0-7.9219 3.875-12.469 3.875-4.5312 10.516-4.5312z"/>
</defs>
<g transform="translate(1517.6 601.5) scale(.1 -.1)">
<use xlink:href="#c"/>
<use x="63.623047" xlink:href="#f"/>
<use x="95.410156" xlink:href="#ac"/>
</g>
</g>
<g clip-path="url(#a)">
<defs>
<path id="ah" d="m31.781 66.406q-7.6094 0-11.453-7.5-3.8281-7.4844-3.8281-22.531 0-14.984 3.8281-22.484 3.8438-7.5 11.453-7.5 7.6719 0 11.5 7.5 3.8438 7.5 3.8438 22.484 0 15.047-3.8438 22.531-3.8281 7.5-11.5 7.5zm0 7.8125q12.266 0 18.734-9.7031 6.4688-9.6875 6.4688-28.141 0-18.406-6.4688-28.109-6.4688-9.6875-18.734-9.6875-12.25 0-18.719 9.6875-6.4688 9.7031-6.4688 28.109 0 18.453 6.4688 28.141 6.4688 9.7031 18.719 9.7031z"/>
</defs>
<g transform="translate(1585.6 734.4) scale(.1 -.1)">
<use xlink:href="#c"/>
<use x="63.623047" xlink:href="#f"/>
<use x="95.410156" xlink:href="#c"/>
<use x="159.033203" xlink:href="#ah"/>
</g>
</g>
<g clip-path="url(#a)">
<g transform="translate(1490.7 734.4) scale(.1 -.1)">
<use xlink:href="#c"/>
<use x="63.623047" xlink:href="#f"/>
<use x="95.410156" xlink:href="#c"/>
<use x="159.033203" xlink:href="#c"/>
</g>
</g>
<g clip-path="url(#a)">
<g transform="translate(1538.2 734.4) scale(.1 -.1)">
<use xlink:href="#c"/>
<use x="63.623047" xlink:href="#f"/>
<use x="95.410156" xlink:href="#c"/>
<use x="159.033203" xlink:href="#n"/>
</g>
</g>
<g clip-path="url(#a)">
<defs>
<path id="p" d="m40.578 39.312q7.0781-1.5156 11.047-6.3125 3.9844-4.7812 3.9844-11.812 0-10.781-7.4219-16.703-7.4219-5.9062-21.094-5.9062-4.5781 0-9.4375 0.90625t-10.031 2.7188v9.5156q4.0938-2.3906 8.9688-3.6094 4.8906-1.2188 10.219-1.2188 9.2656 0 14.125 3.6562t4.8594 10.641q0 6.4531-4.5156 10.078-4.5156 3.6406-12.562 3.6406h-8.5v8.1094h8.8906q7.2656 0 11.125 2.9062t3.8594 8.375q0 5.6094-3.9844 8.6094-3.9688 3.0156-11.391 3.0156-4.0625 0-8.7031-0.89062-4.6406-0.875-10.203-2.7188v8.7812q5.625 1.5625 10.531 2.3438t9.25 0.78125q11.234 0 17.766-5.1094 6.5469-5.0938 6.5469-13.781 0-6.0625-3.4688-10.234t-9.8594-5.7812z"/>
</defs>
<g transform="translate(1253.5 734.4) scale(.1 -.1)">
<use xlink:href="#c"/>
<use x="63.623047" xlink:href="#f"/>
<use x="95.410156" xlink:href="#c"/>
<use x="159.033203" xlink:href="#p"/>
</g>
</g>
<g clip-path="url(#a)">
<g transform="translate(1336.5 601.5) scale(.1 -.1)">
<use xlink:href="#c"/>
<use x="63.623047" xlink:href="#f"/>
<use x="95.410156" xlink:href="#c"/>
<use x="159.033203" xlink:href="#m"/>
</g>
</g>
<g clip-path="url(#a)">
<g transform="translate(1300.9 734.4) scale(.1 -.1)">
<use xlink:href="#c"/>
<use x="63.623047" xlink:href="#f"/>
<use x="95.410156" xlink:href="#c"/>
<use x="159.033203" xlink:href="#ad"/>
</g>
</g>
<g clip-path="url(#a)">
<g transform="translate(1372.1 734.4) scale(.1 -.1)">
<use xlink:href="#c"/>
<use x="63.623047" xlink:href="#f"/>
<use x="95.410156" xlink:href="#c"/>
<use x="159.033203" xlink:href="#z"/>
</g>
</g>
<g clip-path="url(#a)">
<g transform="translate(368.62 329.41) scale(.1 -.1)">
<use xlink:href="#c"/>
<use x="63.623047" xlink:href="#f"/>
<use x="95.410156" xlink:href="#c"/>
<use x="159.033203" xlink:href="#y"/>
</g>
</g>
<g clip-path="url(#a)">
<defs>
<path id="ag" d="m31.781 34.625q-7.0312 0-11.062-3.7656-4.0156-3.7656-4.0156-10.344 0-6.5938 4.0156-10.359 4.0312-3.7656 11.062-3.7656t11.078 3.7812q4.0625 3.7969 4.0625 10.344 0 6.5781-4.0312 10.344-4.0156 3.7656-11.109 3.7656zm-9.8594 4.1875q-6.3438 1.5625-9.8906 5.9062-3.5312 4.3594-3.5312 10.609 0 8.7344 6.2188 13.812 6.2344 5.0781 17.062 5.0781 10.891 0 17.094-5.0781t6.2031-13.812q0-6.25-3.5469-10.609-3.5312-4.3438-9.8281-5.9062 7.125-1.6562 11.094-6.5 3.9844-4.8281 3.9844-11.797 0-10.609-6.4688-16.281-6.4688-5.6562-18.531-5.6562-12.047 0-18.531 5.6562-6.4688 5.6719-6.4688 16.281 0 6.9688 4 11.797 4.0156 4.8438 11.141 6.5zm-3.6094 15.578q0-5.6562 3.5312-8.8281 3.5469-3.1719 9.9375-3.1719 6.3594 0 9.9375 3.1719 3.5938 3.1719 3.5938 8.8281 0 5.6719-3.5938 8.8438-3.5781 3.1719-9.9375 3.1719-6.3906 0-9.9375-3.1719-3.5312-3.1719-3.5312-8.8438z"/>
</defs>
<g transform="translate(897.65 601.5) scale(.1 -.1)">
<use xlink:href="#c"/>
<use x="63.623047" xlink:href="#f"/>
<use x="95.410156" xlink:href="#c"/>
<use x="159.033203" xlink:href="#ag"/>
</g>
</g>
<g clip-path="url(#a)">
<g transform="translate(1063.7 601.5) scale(.1 -.1)">
<use xlink:href="#c"/>
<use x="63.623047" xlink:href="#f"/>
<use x="95.410156" xlink:href="#c"/>
<use x="159.033203" xlink:href="#ac"/>
</g>
</g>
<g clip-path="url(#a)">
<g transform="translate(1016.3 734.4) scale(.1 -.1)">
<use xlink:href="#c"/>
<use x="63.623047" xlink:href="#f"/>
<use x="95.410156" xlink:href="#n"/>
<use x="159.033203" xlink:href="#ah"/>
</g>
</g>
<g clip-path="url(#a)">
<g transform="translate(1063.7 734.4) scale(.1 -.1)">
<use xlink:href="#c"/>
<use x="63.623047" xlink:href="#f"/>
<use x="95.410156" xlink:href="#n"/>
<use x="159.033203" xlink:href="#c"/>
</g>
</g>
<g clip-path="url(#a)">
<g transform="translate(1111.2 734.4) scale(.1 -.1)">
<use xlink:href="#c"/>
<use x="63.623047" xlink:href="#f"/>
<use x="95.410156" xlink:href="#n"/>
<use x="159.033203" xlink:href="#n"/>
</g>
</g>
<g clip-path="url(#a)">
<g transform="translate(826.48 734.4) scale(.1 -.1)">
<use xlink:href="#c"/>
<use x="63.623047" xlink:href="#f"/>
<use x="95.410156" xlink:href="#n"/>
<use x="159.033203" xlink:href="#p"/>
</g>
</g>
<g clip-path="url(#a)">
<g transform="translate(873.92 734.4) scale(.1 -.1)">
<use xlink:href="#c"/>
<use x="63.623047" xlink:href="#f"/>
<use x="95.410156" xlink:href="#n"/>
<use x="159.033203" xlink:href="#m"/>
</g>
</g>
<g clip-path="url(#a)">
<g transform="translate(968.82 734.4) scale(.1 -.1)">
<use xlink:href="#c"/>
<use x="63.623047" xlink:href="#f"/>
<use x="95.410156" xlink:href="#n"/>
<use x="159.033203" xlink:href="#z"/>
</g>
</g>
<g clip-path="url(#a)">
<g transform="translate(126.65 466.75) scale(.1 -.1)">
<use xlink:href="#c"/>
<use x="63.623047" xlink:href="#f"/>
<use x="95.410156" xlink:href="#n"/>
<use x="159.033203" xlink:href="#y"/>
</g>
</g>
<g clip-path="url(#a)">
<g transform="translate(352.02 734.4) scale(.1 -.1)">
<use xlink:href="#c"/>
<use x="63.623047" xlink:href="#f"/>
<use x="95.410156" xlink:href="#n"/>
<use x="159.033203" xlink:href="#ac"/>
</g>
</g>
<g clip-path="url(#a)">
<g transform="translate(660.42 601.5) scale(.1 -.1)">
<use xlink:href="#c"/>
<use x="63.623047" xlink:href="#f"/>
<use x="95.410156" xlink:href="#p"/>
<use x="159.033203" xlink:href="#c"/>
</g>
</g>
<g clip-path="url(#a)">
<g transform="translate(541.8 734.4) scale(.1 -.1)">
<use xlink:href="#c"/>
<use x="63.623047" xlink:href="#f"/>
<use x="95.410156" xlink:href="#p"/>
<use x="159.033203" xlink:href="#n"/>
</g>
</g>
<g clip-path="url(#a)">
<g transform="translate(779.03 734.4) scale(.1 -.1)">
<use xlink:href="#c"/>
<use x="63.623047" xlink:href="#f"/>
<use x="95.410156" xlink:href="#p"/>
<use x="159.033203" xlink:href="#m"/>
</g>
</g>
<g clip-path="url(#a)">
<g transform="translate(589.25 734.4) scale(.1 -.1)">
<use xlink:href="#c"/>
<use x="63.623047" xlink:href="#f"/>
<use x="95.410156" xlink:href="#p"/>
<use x="159.033203" xlink:href="#ad"/>
</g>
</g>
<g clip-path="url(#a)">
<g transform="translate(660.42 734.4) scale(.1 -.1)">
<use xlink:href="#c"/>
<use x="63.623047" xlink:href="#f"/>
<use x="95.410156" xlink:href="#p"/>
<use x="159.033203" xlink:href="#z"/>
</g>
</g>
<g clip-path="url(#a)">
<g transform="translate(731.59 734.4) scale(.1 -.1)">
<use xlink:href="#c"/>
<use x="63.623047" xlink:href="#f"/>
<use x="95.410156" xlink:href="#p"/>
<use x="159.033203" xlink:href="#y"/>
</g>
</g>
<g clip-path="url(#a)">
<g transform="translate(91.065 601.5) scale(.1 -.1)">
<use xlink:href="#c"/>
<use x="63.623047" xlink:href="#f"/>
<use x="95.410156" xlink:href="#p"/>
<use x="159.033203" xlink:href="#ag"/>
</g>
</g>
<g clip-path="url(#a)">
<g transform="translate(162.23 734.4) scale(.1 -.1)">
<use xlink:href="#c"/>
<use x="63.623047" xlink:href="#f"/>
<use x="95.410156" xlink:href="#p"/>
<use x="159.033203" xlink:href="#ac"/>
</g>
</g>
<g clip-path="url(#a)">
<g transform="translate(67.342 734.4) scale(.1 -.1)">
<use xlink:href="#c"/>
<use x="63.623047" xlink:href="#f"/>
<use x="95.410156" xlink:href="#m"/>
<use x="159.033203" xlink:href="#ah"/>
</g>
</g>
<g clip-path="url(#a)">
<g transform="translate(114.79 734.4) scale(.1 -.1)">
<use xlink:href="#c"/>
<use x="63.623047" xlink:href="#f"/>
<use x="95.410156" xlink:href="#m"/>
<use x="159.033203" xlink:href="#c"/>
</g>
</g>
<g clip-path="url(#a)">
<g transform="translate(1231.7 329.41) scale(.1 -.1)">
<use xlink:href="#c"/>
<use x="63.623047" xlink:href="#f"/>
<use x="95.410156" xlink:href="#m"/>
<use x="159.033203" xlink:href="#n"/>
</g>
</g>
<g clip-path="url(#a)">
<g transform="translate(987.79 44.885) scale(.1 -.1)">
<use xlink:href="#c"/>
<use x="63.623047" xlink:href="#f"/>
<use x="95.410156" xlink:href="#m"/>
<use x="159.033203" xlink:href="#p"/>
</g>
</g>
<g clip-path="url(#a)">
<g transform="translate(209.68 734.4) scale(.1 -.1)">
<use xlink:href="#c"/>
<use x="63.623047" xlink:href="#f"/>
<use x="95.410156" xlink:href="#m"/>
<use x="159.033203" xlink:href="#m"/>
</g>
</g>
<g clip-path="url(#a)">
<g transform="translate(494.36 734.4) scale(.1 -.1)">
<use xlink:href="#c"/>
<use x="63.623047" xlink:href="#f"/>
<use x="95.410156" xlink:href="#m"/>
<use x="159.033203" xlink:href="#ad"/>
</g>
</g>
<g clip-path="url(#a)">
<g transform="translate(921.37 734.4) scale(.1 -.1)">
<use xlink:href="#c"/>
<use x="63.623047" xlink:href="#f"/>
<use x="95.410156" xlink:href="#m"/>
<use x="159.033203" xlink:href="#z"/>
</g>
</g>
<g clip-path="url(#a)">
<g transform="translate(1158.6 734.4) scale(.1 -.1)">
<use xlink:href="#c"/>
<use x="63.623047" xlink:href="#f"/>
<use x="95.410156" xlink:href="#m"/>
<use x="159.033203" xlink:href="#y"/>
</g>
</g>
<g clip-path="url(#a)">
<g transform="translate(1633.1 734.4) scale(.1 -.1)">
<use xlink:href="#c"/>
<use x="63.623047" xlink:href="#f"/>
<use x="95.410156" xlink:href="#m"/>
<use x="159.033203" xlink:href="#ag"/>
</g>
</g>
<defs>
<clipPath id="a">
<rect width="1722.7" height="906.67"/>
</clipPath>
</defs>
</svg>
