<?xml version="1.0" encoding="UTF-8"?>
<!DOCTYPE svg  PUBLIC '-//W3C//DTD SVG 1.1//EN'  'http://www.w3.org/Graphics/SVG/1.1/DTD/svg11.dtd'>
<svg width="1570.7pt" height="826.67pt" version="1.1" viewBox="0 0 1570.7 826.67" xmlns="http://www.w3.org/2000/svg" xmlns:xlink="http://www.w3.org/1999/xlink">
<defs>
<style type="text/css">*{stroke-linecap:butt;stroke-linejoin:round;}</style>
</defs>
<path d="m0 826.67h1570.7v-826.67h-1570.7z" fill="#fff"/>
<g fill="none" stroke="#000">
<path d="m155.21 38.246-83.623 661.38" clip-path="url(#a)"/>
<path d="m155.21 38.246 83.623 101.81" clip-path="url(#a)"/>
<path d="m71.583 699.63v88.792" clip-path="url(#a)"/>
<path d="m238.83 140.06-119.66 559.57" clip-path="url(#a)"/>
<path d="m238.83 140.06-72.08 559.57" clip-path="url(#a)"/>
<path d="m238.83 140.06 191.74 98.899" clip-path="url(#a)"/>
<path d="m119.17 699.63v88.792" clip-path="url(#a)"/>
<path d="m166.75 699.63v88.792" clip-path="url(#a)"/>
<path d="m430.57 238.96-192.45 371.88" clip-path="url(#a)"/>
<path d="m430.57 238.96-97.282 371.88" clip-path="url(#a)"/>
<path d="m430.57 238.96-25.906 460.67" clip-path="url(#a)"/>
<path d="m430.57 238.96 293.96 96.241" clip-path="url(#a)"/>
<path d="m430.57 238.96 21.677 460.67" clip-path="url(#a)"/>
<path d="m238.12 610.84-23.792 88.792" clip-path="url(#a)"/>
<path d="m238.12 610.84 23.792 88.792" clip-path="url(#a)"/>
<path d="m333.29 610.84-23.792 88.792" clip-path="url(#a)"/>
<path d="m333.29 610.84 23.792 88.792" clip-path="url(#a)"/>
<path d="m404.67 699.63v88.792" clip-path="url(#a)"/>
<path d="m724.53 335.2-203.88 185.61" clip-path="url(#a)"/>
<path d="m724.53 335.2 13.218 364.43" clip-path="url(#a)"/>
<path d="m724.53 335.2 190.66 93.852" clip-path="url(#a)"/>
<path d="m520.65 520.81-115.98 178.82" clip-path="url(#a)" stroke-dasharray="3.7,1.6"/>
<path d="m520.65 520.81-20.818 178.82" clip-path="url(#a)"/>
<path d="m520.65 520.81 26.766 178.82" clip-path="url(#a)"/>
<path d="m520.65 520.81 110.04 90.027" clip-path="url(#a)"/>
<path d="m737.75 699.63v88.792" clip-path="url(#a)"/>
<path d="m915.2 429.05 246.84 91.761" clip-path="url(#a)"/>
<path d="m915.2 429.05-129.86 270.58" clip-path="url(#a)"/>
<path d="m915.2 429.05-82.28 270.58" clip-path="url(#a)"/>
<path d="m915.2 429.05-34.696 270.58" clip-path="url(#a)"/>
<path d="m1162 520.81-210.16 178.82" clip-path="url(#a)"/>
<path d="m1162 520.81-138.78 178.82" clip-path="url(#a)"/>
<path d="m1162 520.81-27.757 90.027" clip-path="url(#a)"/>
<path d="m1162 520.81 3.9653 178.82" clip-path="url(#a)"/>
<path d="m1162 520.81 218.09 178.82" clip-path="url(#a)"/>
<path d="m1162 520.81-281.53 178.82" clip-path="url(#a)" stroke-dasharray="3.7,1.6"/>
<path d="m1162 520.81 99.132 178.82" clip-path="url(#a)"/>
<path d="m1162 520.81 337.05 178.82" clip-path="url(#a)"/>
<path d="m951.88 699.63-23.792 88.792" clip-path="url(#a)"/>
<path d="m951.88 699.63 23.792 88.792" clip-path="url(#a)"/>
<path d="m1023.3 699.63v88.792" clip-path="url(#a)"/>
<path d="m1134.3 610.84-63.444 88.792" clip-path="url(#a)"/>
<path d="m1134.3 610.84-15.861 88.792" clip-path="url(#a)"/>
<path d="m1134.3 610.84 79.306 88.792" clip-path="url(#a)"/>
<path d="m1166 699.63v88.792" clip-path="url(#a)"/>
<path d="m1380.1 699.63-71.375 88.792" clip-path="url(#a)"/>
<path d="m1380.1 699.63-23.792 88.792" clip-path="url(#a)"/>
<path d="m1380.1 699.63 23.792 88.792" clip-path="url(#a)"/>
<path d="m1380.1 699.63 71.375 88.792" clip-path="url(#a)"/>
<path d="m1070.8 699.63v88.792" clip-path="url(#a)"/>
<path d="m1118.4 699.63v88.792" clip-path="url(#a)"/>
<path d="m1213.6 699.63v88.792" clip-path="url(#a)"/>
<path d="m785.33 699.63v88.792" clip-path="url(#a)"/>
<path d="m832.92 699.63v88.792" clip-path="url(#a)"/>
<path d="m880.5 699.63v88.792" clip-path="url(#a)"/>
<path d="m499.83 699.63v88.792" clip-path="url(#a)"/>
<path d="m547.42 699.63v88.792" clip-path="url(#a)"/>
<path d="m630.69 610.84-35.688 88.792" clip-path="url(#a)"/>
<path d="m630.69 610.84 35.688 88.792" clip-path="url(#a)"/>
<path d="m595 699.63v88.792" clip-path="url(#a)"/>
<path d="m666.37 699.63-23.792 88.792" clip-path="url(#a)"/>
<path d="m666.37 699.63 23.792 88.792" clip-path="url(#a)"/>
<path d="m309.5 699.63v88.792" clip-path="url(#a)"/>
<path d="m357.08 699.63v88.792" clip-path="url(#a)"/>
<path d="m214.33 699.63v88.792" clip-path="url(#a)"/>
<path d="m261.92 699.63v88.792" clip-path="url(#a)"/>
<path d="m452.25 699.63v88.792" clip-path="url(#a)"/>
<path d="m1261.2 699.63v88.792" clip-path="url(#a)"/>
<path d="m1499.1 699.63v88.792" clip-path="url(#a)"/>
</g>
<path d="m119.34 371.94 0.55914-4.4223q0.30105-2.381-2.08-2.6821l-7.6813-0.97121q-2.381-0.30105-2.6821 2.08l-0.55914 4.4223q-0.30105 2.381 2.08 2.6821l7.6813 0.97121q2.381 0.30105 2.6821-2.08z" clip-path="url(#a)" fill="#fff" stroke="#fff"/>
<g clip-path="url(#a)">
<defs>
<path id="at" d="m9.8125 72.906h9.8594v-64.609h35.5v-8.2969h-45.359z"/>
</defs>
<g transform="translate(115.31 371.43) rotate(-82.794) scale(.08 -.08)">
<use xlink:href="#at"/>
</g>
</g>
<path d="m190.26 90.807 3.8185 4.6491q1.5233 1.8546 3.3779 0.33132l5.9831-4.9142q1.8546-1.5233 0.33132-3.3779l-3.8185-4.6491q-1.5233-1.8546-3.3779-0.33132l-5.9831 4.9142q-1.8546 1.5233-0.33132 3.3779z" clip-path="url(#a)" fill="#fff" stroke="#fff"/>
<g clip-path="url(#a)">
<defs>
<path id="au" d="m9.8125 72.906h9.8594v-29.891h35.844v29.891h9.8594v-72.906h-9.8594v34.719h-35.844v-34.719h-9.8594z"/>
</defs>
<g transform="translate(193.4 88.228) rotate(50.602) scale(.08 -.08)">
<use xlink:href="#au"/>
</g>
</g>
<path d="m65.312 726.38v35.285q0 2.4 2.4 2.4h7.7425q2.4 0 2.4-2.4v-35.285q0-2.4-2.4-2.4h-7.7425q-2.4 0-2.4 2.4z" clip-path="url(#a)" fill="#fff" stroke="#fff"/>
<g clip-path="url(#a)">
<defs>
<path id="l" d="m-0.29688 72.906h61.672v-8.3125h-25.875v-64.594h-9.9062v64.594h-25.891z"/>
<path id="d" d="m56.203 29.594v-4.3906h-41.312q0.59375-9.2812 5.5938-14.141t13.938-4.8594q5.1719 0 10.031 1.2656t9.6562 3.8125v-8.5q-4.8438-2.0469-9.9219-3.125t-10.297-1.0781q-13.094 0-20.734 7.6094-7.6406 7.625-7.6406 20.625 0 13.422 7.25 21.297 7.25 7.8906 19.562 7.8906 11.031 0 17.453-7.1094 6.4219-7.0938 6.4219-19.297zm-8.9844 2.6406q-0.09375 7.3594-4.125 11.75-4.0312 4.4062-10.672 4.4062-7.5156 0-12.031-4.25t-5.2031-11.969z"/>
<path id="k" d="m41.109 46.297q-1.5156 0.875-3.2969 1.2812-1.7812 0.42188-3.9219 0.42188-7.625 0-11.703-4.9531t-4.0781-14.234v-28.812h-9.0312v54.688h9.0312v-8.5q2.8438 4.9844 7.375 7.3906 4.5469 2.4219 11.047 2.4219 0.92188 0 2.0469-0.125 1.125-0.10938 2.4844-0.35938z"/>
<path id="h" d="m52 44.188q3.375 6.0625 8.0625 8.9375t11.031 2.875q8.5469 0 13.188-5.9844 4.6406-5.9688 4.6406-17v-33.016h-9.0312v32.719q0 7.8594-2.7969 11.656-2.7812 3.8125-8.4844 3.8125-6.9844 0-11.047-4.6406-4.0469-4.625-4.0469-12.641v-30.906h-9.0312v32.719q0 7.9062-2.7812 11.688t-8.5938 3.7812q-6.8906 0-10.953-4.6562-4.0469-4.6562-4.0469-12.625v-30.906h-9.0312v54.688h9.0312v-8.5q3.0781 5.0312 7.375 7.4219t10.203 2.3906q5.9688 0 10.141-3.0312 4.1719-3.0156 6.1719-8.7812z"/>
<path id="e" d="m9.4219 54.688h8.9844v-54.688h-8.9844zm0 21.297h8.9844v-11.391h-8.9844z"/>
<path id="f" d="m54.891 33.016v-33.016h-8.9844v32.719q0 7.7656-3.0312 11.609-3.0312 3.8594-9.0781 3.8594-7.2812 0-11.484-4.6406-4.2031-4.625-4.2031-12.641v-30.906h-9.0312v54.688h9.0312v-8.5q3.2344 4.9375 7.5938 7.375 4.375 2.4375 10.094 2.4375 9.4219 0 14.25-5.8281 4.8438-5.8281 4.8438-17.156z"/>
<path id="i" d="m34.281 27.484q-10.891 0-15.094-2.4844t-4.2031-8.5q0-4.7812 3.1562-7.5938 3.1562-2.7969 8.5625-2.7969 7.4844 0 12 5.2969t4.5156 14.078v2zm17.922 3.7188v-31.203h-8.9844v8.2969q-3.0781-4.9688-7.6719-7.3438t-11.234-2.375q-8.3906 0-13.359 4.7188-4.9531 4.7188-4.9531 12.625 0 9.2188 6.1719 13.906 6.1875 4.6875 18.438 4.6875h12.609v0.89062q0 6.2031-4.0781 9.5938t-11.453 3.3906q-4.6875 0-9.1406-1.125-4.4375-1.125-8.5312-3.375v8.3125q4.9219 1.9062 9.5625 2.8438 4.6406 0.95312 9.0312 0.95312 11.875 0 17.734-6.1562 5.8594-6.1406 5.8594-18.641z"/>
<path id="j" d="m9.4219 75.984h8.9844v-75.984h-8.9844z"/>
</defs>
<g transform="translate(69.375 726.38) rotate(90) scale(.08 -.08)">
<use xlink:href="#l"/>
<use x="60.818359" xlink:href="#d"/>
<use x="122.341797" xlink:href="#k"/>
<use x="163.439453" xlink:href="#h"/>
<use x="260.851562" xlink:href="#e"/>
<use x="288.634766" xlink:href="#f"/>
<use x="352.013672" xlink:href="#i"/>
<use x="413.292969" xlink:href="#j"/>
</g>
</g>
<path d="m184.56 423.83 1.1444-5.3515q0.50189-2.3469-1.845-2.8488l-7.5713-1.6191q-2.3469-0.50189-2.8488 1.845l-1.1444 5.3515q-0.50189 2.3469 1.845 2.8488l7.5713 1.6191q2.3469 0.50189 2.8488-1.845z" clip-path="url(#a)" fill="#fff" stroke="#fff"/>
<g clip-path="url(#a)">
<defs>
<path id="w" d="m34.188 63.188-13.391-36.281h26.812zm-5.5781 9.7188h11.188l27.781-72.906h-10.25l-6.6406 18.703h-32.859l-6.6406-18.703h-10.406z"/>
</defs>
<g transform="translate(180.58 422.98) rotate(-77.929) scale(.08 -.08)">
<use xlink:href="#w"/>
</g>
</g>
<path d="m208.7 423.04 0.61627-4.7842q0.30662-2.3803-2.0737-2.687l-7.6791-0.98916q-2.3803-0.30662-2.687 2.0737l-0.61627 4.7842q-0.30662 2.3803 2.0737 2.687l7.6791 0.98916q2.3803 0.30662 2.687-2.0737z" clip-path="url(#a)" fill="#fff" stroke="#fff"/>
<g clip-path="url(#a)">
<defs>
<path id="ap" d="m19.672 64.797v-27.391h12.406q6.8906 0 10.641 3.5625 3.7656 3.5625 3.7656 10.156 0 6.5469-3.7656 10.109-3.75 3.5625-10.641 3.5625zm-9.8594 8.1094h22.266q12.266 0 18.531-5.5469 6.2812-5.5469 6.2812-16.234 0-10.797-6.2812-16.312-6.2656-5.5156-18.531-5.5156h-12.406v-29.297h-9.8594z"/>
</defs>
<g transform="translate(204.67 422.52) rotate(-82.66) scale(.08 -.08)">
<use xlink:href="#ap"/>
</g>
</g>
<path d="m329.39 193.83 4.8637 2.5086q2.133 1.1002 3.2332-1.0328l3.5492-6.8811q1.1002-2.133-1.0328-3.2332l-4.8637-2.5086q-2.133-1.1002-3.2332 1.0328l-3.5492 6.8811q-1.1002 2.133 1.0328 3.2332z" clip-path="url(#a)" fill="#fff" stroke="#fff"/>
<g clip-path="url(#a)">
<g transform="translate(331.26 190.21) rotate(27.284) scale(.08 -.08)">
<use xlink:href="#w"/>
</g>
</g>
<path d="m112.89 726.38v35.285q0 2.4 2.4 2.4h7.7425q2.4 0 2.4-2.4v-35.285q0-2.4-2.4-2.4h-7.7425q-2.4 0-2.4 2.4z" clip-path="url(#a)" fill="#fff" stroke="#fff"/>
<g clip-path="url(#a)">
<g transform="translate(116.96 726.38) rotate(90) scale(.08 -.08)">
<use xlink:href="#l"/>
<use x="60.818359" xlink:href="#d"/>
<use x="122.341797" xlink:href="#k"/>
<use x="163.439453" xlink:href="#h"/>
<use x="260.851562" xlink:href="#e"/>
<use x="288.634766" xlink:href="#f"/>
<use x="352.013672" xlink:href="#i"/>
<use x="413.292969" xlink:href="#j"/>
</g>
</g>
<path d="m160.48 726.38v35.285q0 2.4 2.4 2.4h7.7425q2.4 0 2.4-2.4v-35.285q0-2.4-2.4-2.4h-7.7425q-2.4 0-2.4 2.4z" clip-path="url(#a)" fill="#fff" stroke="#fff"/>
<g clip-path="url(#a)">
<g transform="translate(164.54 726.38) rotate(90) scale(.08 -.08)">
<use xlink:href="#l"/>
<use x="60.818359" xlink:href="#d"/>
<use x="122.341797" xlink:href="#k"/>
<use x="163.439453" xlink:href="#h"/>
<use x="260.851562" xlink:href="#e"/>
<use x="288.634766" xlink:href="#f"/>
<use x="352.013672" xlink:href="#i"/>
<use x="413.292969" xlink:href="#j"/>
</g>
</g>
<path d="m338.76 430.02 2.3233-4.4895q1.103-2.1315-1.0284-3.2345l-6.8763-3.5585q-2.1315-1.103-3.2345 1.0284l-2.3233 4.4895q-1.103 2.1315 1.0284 3.2345l6.8763 3.5585q2.1315 1.103 3.2345-1.0284z" clip-path="url(#a)" fill="#fff" stroke="#fff"/>
<g clip-path="url(#a)">
<defs>
<path id="o" d="m9.8125 72.906h46.094v-8.3125h-36.234v-21.578h34.719v-8.2969h-34.719v-26.422h37.109v-8.2969h-46.969z"/>
</defs>
<g transform="translate(335.15 428.16) rotate(-62.638) scale(.08 -.08)">
<use xlink:href="#o"/>
</g>
</g>
<path d="m387.36 428.93 1.2793-4.8904q0.60739-2.3219-1.7145-2.9293l-7.4904-1.9595q-2.3219-0.60739-2.9293 1.7145l-1.2793 4.8904q-0.60739 2.3219 1.7145 2.9293l7.4905 1.9595q2.3219 0.60739 2.9293-1.7145z" clip-path="url(#a)" fill="#fff" stroke="#fff"/>
<g clip-path="url(#a)">
<g transform="translate(383.43 427.9) rotate(-75.34) scale(.08 -.08)">
<use xlink:href="#o"/>
</g>
</g>
<path d="m423.72 472.43 0.31365-5.5774q0.13475-2.3962-2.2615-2.531l-7.7303-0.43472q-2.3962-0.13475-2.531 2.2615l-0.31365 5.5774q-0.13475 2.3962 2.2615 2.531l7.7303 0.43472q2.3962 0.13475 2.531-2.2615z" clip-path="url(#a)" fill="#fff" stroke="#fff"/>
<g clip-path="url(#a)">
<defs>
<path id="q" d="m64.406 67.281v-10.391q-4.9844 4.6406-10.625 6.9219-5.6406 2.2969-11.984 2.2969-12.5 0-19.141-7.6406t-6.6406-22.094q0-14.406 6.6406-22.047t19.141-7.6406q6.3438 0 11.984 2.2969t10.625 6.9375v-10.312q-5.1719-3.5156-10.969-5.2812-5.7812-1.75-12.219-1.75-16.562 0-26.094 10.125-9.5156 10.141-9.5156 27.672 0 17.578 9.5156 27.703 9.5312 10.141 26.094 10.141 6.5312 0 12.312-1.7344 5.7969-1.7344 10.875-5.2031z"/>
</defs>
<g transform="translate(419.67 472.21) rotate(-86.781) scale(.08 -.08)">
<use xlink:href="#q"/>
</g>
</g>
<path d="m573.2 292.25 4.8041 1.5728q2.2809 0.74674 3.0276-1.5341l2.409-7.3582q0.74674-2.2809-1.5341-3.0276l-4.8041-1.5728q-2.2809-0.74674-3.0276 1.5341l-2.409 7.3582q-0.74674 2.2809 1.5341 3.0276z" clip-path="url(#a)" fill="#fff" stroke="#fff"/>
<g clip-path="url(#a)">
<g transform="translate(574.46 288.39) rotate(18.128) scale(.08 -.08)">
<use xlink:href="#o"/>
</g>
</g>
<path d="m435.01 466.66 0.2752 5.8485q0.11281 2.3973 2.5102 2.2845l7.7339-0.36392q2.3973-0.11281 2.2845-2.5102l-0.2752-5.8485q-0.11281-2.3973-2.5102-2.2845l-7.7339 0.36392q-2.3973 0.11281-2.2845 2.5102z" clip-path="url(#a)" fill="#fff" stroke="#fff"/>
<g clip-path="url(#a)">
<defs>
<path id="ag" d="m8.6875 72.906h9.9219v-44.297q0-11.719 4.2344-16.875 4.25-5.1406 13.781-5.1406 9.4688 0 13.719 5.1406 4.25 5.1562 4.25 16.875v44.297h9.9062v-45.516q0-14.25-7.0625-21.531-7.0469-7.2812-20.812-7.2812-13.828 0-20.891 7.2812-7.0469 7.2812-7.0469 21.531z"/>
</defs>
<g transform="translate(439.07 466.47) rotate(87.306) scale(.08 -.08)">
<use xlink:href="#ag"/>
</g>
</g>
<path d="m231.56 659.55 1.4458-5.3959q0.62116-2.3182-1.6971-2.9394l-7.4787-2.0039q-2.3182-0.62116-2.9394 1.6971l-1.4458 5.3959q-0.62116 2.3182 1.6971 2.9394l7.4787 2.0039q2.3182 0.62116 2.9394-1.6971z" clip-path="url(#a)" fill="#fff" stroke="#fff"/>
<g clip-path="url(#a)">
<g transform="translate(227.64 658.5) rotate(-75) scale(.08 -.08)">
<use xlink:href="#q"/>
</g>
</g>
<path d="m243.24 654.17 1.4387 5.3693q0.62116 2.3182 2.9394 1.6971l7.4787-2.0039q2.3182-0.62116 1.6971-2.9394l-1.4387-5.3693q-0.62116-2.3182-2.9394-1.6971l-7.4787 2.0039q-2.3182 0.62116-1.6971 2.9394z" clip-path="url(#a)" fill="#fff" stroke="#fff"/>
<g clip-path="url(#a)">
<defs>
<path id="v" d="m44.391 34.188q3.1719-1.0781 6.1719-4.5938t6.0312-9.6719l10.016-19.922h-10.609l-9.3125 18.703q-3.625 7.3281-7.0156 9.7188t-9.25 2.3906h-10.75v-30.812h-9.8594v72.906h22.266q12.5 0 18.656-5.2344 6.1562-5.2188 6.1562-15.766 0-6.8906-3.2031-11.438-3.2031-4.5312-9.2969-6.2812zm-24.719 30.609v-25.875h12.406q7.125 0 10.766 3.2969t3.6406 9.6875-3.6406 9.6406-10.766 3.25z"/>
</defs>
<g transform="translate(247.17 653.12) rotate(75) scale(.08 -.08)">
<use xlink:href="#v"/>
</g>
</g>
<path d="m326.8 659.3 1.3083-4.8828q0.62116-2.3182-1.6971-2.9394l-7.4787-2.0039q-2.3182-0.62116-2.9394 1.6971l-1.3083 4.8828q-0.62116 2.3182 1.6971 2.9394l7.4787 2.0039q2.3182 0.62116 2.9394-1.6971z" clip-path="url(#a)" fill="#fff" stroke="#fff"/>
<g clip-path="url(#a)">
<g transform="translate(322.87 658.25) rotate(-75) scale(.08 -.08)">
<use xlink:href="#o"/>
</g>
</g>
<path d="m338.41 654.16 1.4458 5.3959q0.62116 2.3182 2.9394 1.6971l7.4787-2.0039q2.3182-0.62116 1.6971-2.9394l-1.4458-5.3959q-0.62116-2.3182-2.9394-1.6971l-7.4787 2.0039q-2.3182 0.62116-1.6971 2.9394z" clip-path="url(#a)" fill="#fff" stroke="#fff"/>
<g clip-path="url(#a)">
<g transform="translate(342.33 653.11) rotate(75) scale(.08 -.08)">
<use xlink:href="#q"/>
</g>
</g>
<path d="m398.4 726.38v35.285q0 2.4 2.4 2.4h7.7425q2.4 0 2.4-2.4v-35.285q0-2.4-2.4-2.4h-7.7425q-2.4 0-2.4 2.4z" clip-path="url(#a)" fill="#fff" stroke="#fff"/>
<g clip-path="url(#a)">
<g transform="translate(402.46 726.38) rotate(90) scale(.08 -.08)">
<use xlink:href="#l"/>
<use x="60.818359" xlink:href="#d"/>
<use x="122.341797" xlink:href="#k"/>
<use x="163.439453" xlink:href="#h"/>
<use x="260.851562" xlink:href="#e"/>
<use x="288.634766" xlink:href="#f"/>
<use x="352.013672" xlink:href="#i"/>
<use x="413.292969" xlink:href="#j"/>
</g>
</g>
<path d="m624.75 434.52 4.1308-3.7607q1.7747-1.6157 0.15902-3.3904l-5.2123-5.7253q-1.6157-1.7747-3.3904-0.15902l-4.1308 3.7607q-1.7747 1.6157-0.15902 3.3904l5.2123 5.7253q1.6157 1.7747 3.3904 0.15902z" clip-path="url(#a)" fill="#fff" stroke="#fff"/>
<g clip-path="url(#a)">
<g transform="translate(622.01 431.52) rotate(-42.315) scale(.08 -.08)">
<use xlink:href="#q"/>
</g>
</g>
<path d="m724.77 514.65 0.21693 5.9811q0.086988 2.3984 2.4854 2.3114l7.7374-0.28063q2.3984-0.086988 2.3114-2.4854l-0.21693-5.9811q-0.086989-2.3984-2.4854-2.3114l-7.7374 0.28063q-2.3984 0.086988-2.3114 2.4854z" clip-path="url(#a)" fill="#fff" stroke="#fff"/>
<g clip-path="url(#a)">
<defs>
<path id="ar" d="m9.8125 72.906h13.281l32.328-60.984v60.984h9.5625v-72.906h-13.281l-32.312 60.984v-60.984h-9.5781z"/>
</defs>
<g transform="translate(728.83 514.5) rotate(87.923) scale(.08 -.08)">
<use xlink:href="#ar"/>
</g>
</g>
<path d="m814.59 386.52 5.012 2.4671q2.1533 1.0599 3.2132-1.0934l3.4193-6.9465q1.0599-2.1533-1.0934-3.2132l-5.012-2.4671q-2.1533-1.0599-3.2132 1.0934l-3.4193 6.9465q-1.0599 2.1533 1.0934 3.2132z" clip-path="url(#a)" fill="#fff" stroke="#fff"/>
<g clip-path="url(#a)">
<g transform="translate(816.38 382.87) rotate(26.208) scale(.08 -.08)">
<use xlink:href="#q"/>
</g>
</g>
<path d="m466.4 615.98 3.0399-4.6867q1.306-2.0135-0.70754-3.3195l-6.4958-4.2132q-2.0135-1.306-3.3195 0.70754l-3.0399 4.6867q-1.306 2.0135 0.70754 3.3195l6.4958 4.2132q2.0135 1.306 3.3195-0.70754z" clip-path="url(#a)" fill="#fff" stroke="#fff"/>
<g clip-path="url(#a)">
<g transform="translate(462.99 613.76) rotate(-57.032) scale(.08 -.08)">
<use xlink:href="#q"/>
</g>
</g>
<path d="m516.15 613.71 0.6428-5.5215q0.27753-2.3839-2.1064-2.6614l-7.6906-0.89532q-2.3839-0.27753-2.6614 2.1064l-0.6428 5.5215q-0.27753 2.3839 2.1064 2.6614l7.6906 0.89532q2.3839 0.27753 2.6614-2.1064z" clip-path="url(#a)" fill="#fff" stroke="#fff"/>
<g clip-path="url(#a)">
<g transform="translate(512.11 613.24) rotate(-83.36) scale(.08 -.08)">
<use xlink:href="#v"/>
</g>
</g>
<path d="m527.46 608.65 0.74829 4.9993q0.35527 2.3736 2.7288 2.0183l7.6572-1.1461q2.3736-0.35527 2.0183-2.7288l-0.74829-4.9993q-0.35527-2.3736-2.7288-2.0183l-7.6572 1.1461q-2.3736 0.35527-2.0183 2.7288z" clip-path="url(#a)" fill="#fff" stroke="#fff"/>
<g clip-path="url(#a)">
<g transform="translate(531.48 608.05) rotate(81.487) scale(.08 -.08)">
<use xlink:href="#o"/>
</g>
</g>
<path d="m569.74 569.08 3.9124 3.201q1.8575 1.5197 3.3773-0.33777l4.9028-5.9924q1.5197-1.8575-0.33777-3.3773l-3.9124-3.201q-1.8575-1.5197-3.3773 0.33777l-4.9028 5.9924q-1.5197 1.8575 0.33777 3.3773z" clip-path="url(#a)" fill="#fff" stroke="#fff"/>
<g clip-path="url(#a)">
<g transform="translate(572.32 565.93) rotate(39.289) scale(.08 -.08)">
<use xlink:href="#o"/>
</g>
</g>
<path d="m731.48 726.38v35.285q0 2.4 2.4 2.4h7.7425q2.4 0 2.4-2.4v-35.285q0-2.4-2.4-2.4h-7.7425q-2.4 0-2.4 2.4z" clip-path="url(#a)" fill="#fff" stroke="#fff"/>
<g clip-path="url(#a)">
<g transform="translate(735.54 726.38) rotate(90) scale(.08 -.08)">
<use xlink:href="#l"/>
<use x="60.818359" xlink:href="#d"/>
<use x="122.341797" xlink:href="#k"/>
<use x="163.439453" xlink:href="#h"/>
<use x="260.851562" xlink:href="#e"/>
<use x="288.634766" xlink:href="#f"/>
<use x="352.013672" xlink:href="#i"/>
<use x="413.292969" xlink:href="#j"/>
</g>
</g>
<path d="m1034.1 479.93 4.7382 1.7614q2.2496 0.83627 3.0859-1.4133l2.6978-7.2573q0.83627-2.2496-1.4133-3.0859l-4.7382-1.7614q-2.2496-0.83627-3.0859 1.4133l-2.6978 7.2573q-0.83627 2.2496 1.4133 3.0859z" clip-path="url(#a)" fill="#fff" stroke="#fff"/>
<g clip-path="url(#a)">
<g transform="translate(1035.5 476.12) rotate(20.392) scale(.08 -.08)">
<use xlink:href="#o"/>
</g>
</g>
<path d="m854.82 569.33 2.1872-4.5573q1.0385-2.1637-1.1253-3.2022l-6.9802-3.3501q-2.1637-1.0385-3.2022 1.1253l-2.1872 4.5573q-1.0385 2.1637 1.1253 3.2022l6.9802 3.3501q2.1637 1.0385 3.2022-1.1253z" clip-path="url(#a)" fill="#fff" stroke="#fff"/>
<g clip-path="url(#a)">
<g transform="translate(851.16 567.57) rotate(-64.362) scale(.08 -.08)">
<use xlink:href="#o"/>
</g>
</g>
<path d="m879.32 568.58 1.4707-4.8363q0.69824-2.2962-1.5979-2.9944l-7.4076-2.2525q-2.2962-0.69824-2.9944 1.5979l-1.4707 4.8363q-0.69824 2.2962 1.5979 2.9944l7.4076 2.2525q2.2962 0.69824 2.9944-1.5979z" clip-path="url(#a)" fill="#fff" stroke="#fff"/>
<g clip-path="url(#a)">
<g transform="translate(875.43 567.4) rotate(-73.086) scale(.08 -.08)">
<use xlink:href="#o"/>
</g>
</g>
<path d="m903.71 567.91 0.7105-5.5409q0.30525-2.3805-2.0753-2.6858l-7.6796-0.98475q-2.3805-0.30525-2.6858 2.0753l-0.7105 5.5409q-0.30525 2.3805 2.0753 2.6858l7.6796 0.98475q2.3805 0.30525 2.6858-2.0753z" clip-path="url(#a)" fill="#fff" stroke="#fff"/>
<g clip-path="url(#a)">
<g transform="translate(899.68 567.39) rotate(-82.693) scale(.08 -.08)">
<use xlink:href="#q"/>
</g>
</g>
<path d="m1058.9 616.8 4.2336-3.6023q1.8279-1.5553 0.27258-3.3831l-5.0174-5.8968q-1.5553-1.8279-3.3831-0.27258l-4.2336 3.6023q-1.8279 1.5553-0.27258 3.3832l5.0174 5.8968q1.5553 1.8279 3.3831 0.27258z" clip-path="url(#a)" fill="#fff" stroke="#fff"/>
<g clip-path="url(#a)">
<g transform="translate(1056.3 613.7) rotate(-40.394) scale(.08 -.08)">
<use xlink:href="#v"/>
</g>
</g>
<path d="m1095.9 616.23 3.3553-4.3232q1.4715-1.896-0.42448-3.3675l-6.1165-4.7471q-1.896-1.4715-3.3675 0.42448l-3.3553 4.3232q-1.4715 1.896 0.42448 3.3675l6.1165 4.7471q1.896 1.4715 3.3675-0.42448z" clip-path="url(#a)" fill="#fff" stroke="#fff"/>
<g clip-path="url(#a)">
<g transform="translate(1092.7 613.73) rotate(-52.184) scale(.08 -.08)">
<use xlink:href="#w"/>
</g>
</g>
<path d="m1153.4 570.1 1.4964-4.8533q0.70712-2.2935-1.5864-3.0006l-7.3988-2.2812q-2.2935-0.70711-3.0006 1.5864l-1.4964 4.8533q-0.70712 2.2935 1.5864 3.0006l7.3988 2.2812q2.2935 0.70712 3.0006-1.5864z" clip-path="url(#a)" fill="#fff" stroke="#fff"/>
<g clip-path="url(#a)">
<defs>
<path id="ao" d="m53.516 70.516v-9.625q-5.6094 2.6875-10.594 4-4.9844 1.3281-9.625 1.3281-8.0469 0-12.422-3.125t-4.375-8.8906q0-4.8438 2.9062-7.3125 2.9062-2.4531 11.016-3.9688l5.9531-1.2188q11.031-2.1094 16.281-7.4062t5.25-14.172q0-10.609-7.1094-16.078-7.0938-5.4688-20.812-5.4688-5.1719 0-11.016 1.1719-5.8281 1.1719-12.078 3.4688v10.156q6-3.3594 11.766-5.0781 5.7656-1.7031 11.328-1.7031 8.4375 0 13.031 3.3125 4.5938 3.3281 4.5938 9.4844 0 5.3594-3.2969 8.3906t-10.812 4.5469l-6.0156 1.1719q-11.031 2.1875-15.969 6.875-4.9219 4.6875-4.9219 13.047 0 9.6719 6.8125 15.234t18.766 5.5625q5.1406 0 10.453-0.9375 5.3281-0.92188 10.891-2.7656z"/>
</defs>
<g transform="translate(1149.5 568.9) rotate(-72.865) scale(.08 -.08)">
<use xlink:href="#ao"/>
</g>
</g>
<path d="m1157.7 607.28 0.13656 6.1585q0.053207 2.3994 2.4526 2.3462l7.7406-0.17165q2.3994-0.053207 2.3462-2.4526l-0.13656-6.1585q-0.053206-2.3994-2.4526-2.3462l-7.7406 0.17165q-2.3994 0.053207-2.3462 2.4526z" clip-path="url(#a)" fill="#fff" stroke="#fff"/>
<g clip-path="url(#a)">
<defs>
<path id="aw" d="m19.672 64.797v-56.688h11.922q15.094 0 22.094 6.8281 7 6.8438 7 21.594 0 14.641-7 21.453t-22.094 6.8125zm-9.8594 8.1094h20.266q21.188 0 31.094-8.8125 9.9219-8.8125 9.9219-27.562 0-18.859-9.9688-27.703-9.9531-8.8281-31.047-8.8281h-20.266z"/>
</defs>
<g transform="translate(1161.7 607.19) rotate(88.73) scale(.08 -.08)">
<use xlink:href="#aw"/>
</g>
</g>
<path d="m1265 613.33 4.2318 3.4698q1.8559 1.5217 3.3776-0.33419l4.9091-5.9872q1.5217-1.8559-0.33419-3.3776l-4.2318-3.4698q-1.8559-1.5217-3.3776 0.33419l-4.9091 5.9872q-1.5217 1.8559 0.33419 3.3776z" clip-path="url(#a)" fill="#fff" stroke="#fff"/>
<g clip-path="url(#a)">
<g transform="translate(1267.6 610.19) rotate(39.349) scale(.08 -.08)">
<use xlink:href="#w"/>
</g>
</g>
<path d="m1022.3 616.98 4.6195-2.9341q2.0259-1.2868 0.73913-3.3127l-4.1512-6.5356q-1.2868-2.0259-3.3127-0.73913l-4.6195 2.9341q-2.0259 1.2868-0.73913 3.3127l4.1512 6.5356q1.2868 2.0259 3.3127 0.73913z" clip-path="url(#a)" fill="#fff" stroke="#fff"/>
<g clip-path="url(#a)">
<g transform="translate(1020.1 613.55) rotate(-32.422) scale(.08 -.08)">
<use xlink:href="#w"/>
</g>
</g>
<path d="m1204.7 610.7 2.8388 5.1208q1.1636 2.099 3.2627 0.9354l6.7716-3.7539q2.099-1.1636 0.9354-3.2627l-2.8388-5.1208q-1.1636-2.099-3.2627-0.9354l-6.7716 3.7539q-2.099 1.1636-0.9354 3.2627z" clip-path="url(#a)" fill="#fff" stroke="#fff"/>
<g clip-path="url(#a)">
<g transform="translate(1208.3 608.73) rotate(60.997) scale(.08 -.08)">
<use xlink:href="#ag"/>
</g>
</g>
<path d="m1325 614.39 5.1722 2.7441q2.1201 1.1248 3.2449-0.99529l3.6287-6.8395q1.1248-2.1201-0.99529-3.2449l-5.1722-2.7441q-2.1201-1.1248-3.2449 0.99529l-3.6287 6.8395q-1.1248 2.1201 0.99529 3.2449z" clip-path="url(#a)" fill="#fff" stroke="#fff"/>
<g clip-path="url(#a)">
<g transform="translate(1326.9 610.8) rotate(27.948) scale(.08 -.08)">
<use xlink:href="#ag"/>
</g>
</g>
<path d="m941.47 762.69 9.1324-34.083q0.62116-2.3182-1.6971-2.9394l-7.4787-2.0039q-2.3182-0.62116-2.9394 1.6971l-9.1324 34.083q-0.62116 2.3182 1.6971 2.9394l7.4787 2.0039q2.3182 0.62116 2.9394-1.6971z" clip-path="url(#a)" fill="#fff" stroke="#fff"/>
<g clip-path="url(#a)">
<g transform="translate(937.55 761.64) rotate(-75) scale(.08 -.08)">
<use xlink:href="#l"/>
<use x="60.818359" xlink:href="#d"/>
<use x="122.341797" xlink:href="#k"/>
<use x="163.439453" xlink:href="#h"/>
<use x="260.851562" xlink:href="#e"/>
<use x="288.634766" xlink:href="#f"/>
<use x="352.013672" xlink:href="#i"/>
<use x="413.292969" xlink:href="#j"/>
</g>
</g>
<path d="m953.15 728.61 9.1324 34.083q0.62116 2.3182 2.9394 1.6971l7.4787-2.0039q2.3182-0.62116 1.6971-2.9394l-9.1324-34.083q-0.62116-2.3182-2.9394-1.6971l-7.4787 2.0039q-2.3182 0.62116-1.6971 2.9394z" clip-path="url(#a)" fill="#fff" stroke="#fff"/>
<g clip-path="url(#a)">
<g transform="translate(957.07 727.56) rotate(75) scale(.08 -.08)">
<use xlink:href="#l"/>
<use x="60.818359" xlink:href="#d"/>
<use x="122.341797" xlink:href="#k"/>
<use x="163.439453" xlink:href="#h"/>
<use x="260.851562" xlink:href="#e"/>
<use x="288.634766" xlink:href="#f"/>
<use x="352.013672" xlink:href="#i"/>
<use x="413.292969" xlink:href="#j"/>
</g>
</g>
<path d="m1017 726.38v35.285q0 2.4 2.4 2.4h7.7425q2.4 0 2.4-2.4v-35.285q0-2.4-2.4-2.4h-7.7425q-2.4 0-2.4 2.4z" clip-path="url(#a)" fill="#fff" stroke="#fff"/>
<g clip-path="url(#a)">
<g transform="translate(1021 726.38) rotate(90) scale(.08 -.08)">
<use xlink:href="#l"/>
<use x="60.818359" xlink:href="#d"/>
<use x="122.341797" xlink:href="#k"/>
<use x="163.439453" xlink:href="#h"/>
<use x="260.851562" xlink:href="#e"/>
<use x="288.634766" xlink:href="#f"/>
<use x="352.013672" xlink:href="#i"/>
<use x="413.292969" xlink:href="#j"/>
</g>
</g>
<path d="m1106.3 660.75 2.675-3.7438q1.3953-1.9527-0.55745-3.348l-6.2996-4.5012q-1.9527-1.3953-3.348 0.55745l-2.675 3.7438q-1.3953 1.9527 0.55745 3.348l6.2996 4.5012q1.9527 1.3953 3.348-0.55745z" clip-path="url(#a)" fill="#fff" stroke="#fff"/>
<g clip-path="url(#a)">
<defs>
<path id="av" d="m9.8125 72.906h41.891v-8.3125h-32.031v-21.484h28.906v-8.2969h-28.906v-34.812h-9.8594z"/>
</defs>
<g transform="translate(1103 658.39) rotate(-54.453) scale(.08 -.08)">
<use xlink:href="#av"/>
</g>
</g>
<path d="m1132.1 658.82 0.88891-4.9762q0.42204-2.3626-1.9406-2.7846l-7.6219-1.3615q-2.3626-0.42204-2.7846 1.9406l-0.88891 4.9762q-0.42204 2.3626 1.9406 2.7846l7.6218 1.3615q2.3626 0.42204 2.7846-1.9406z" clip-path="url(#a)" fill="#fff" stroke="#fff"/>
<g clip-path="url(#a)">
<g transform="translate(1128.1 658.11) rotate(-79.872) scale(.08 -.08)">
<use xlink:href="#o"/>
</g>
</g>
<path d="m1167.4 657.33 3.7212 4.1664q1.5987 1.79 3.3887 0.19124l5.7746-5.1576q1.79-1.5987 0.19124-3.3887l-3.7212-4.1664q-1.5987-1.79-3.3887-0.19124l-5.7746 5.1576q-1.79 1.5987-0.19124 3.3887z" clip-path="url(#a)" fill="#fff" stroke="#fff"/>
<g clip-path="url(#a)">
<g transform="translate(1170.4 654.62) rotate(48.23) scale(.08 -.08)">
<use xlink:href="#q"/>
</g>
</g>
<path d="m1159.7 726.38v35.285q0 2.4 2.4 2.4h7.7425q2.4 0 2.4-2.4v-35.285q0-2.4-2.4-2.4h-7.7425q-2.4 0-2.4 2.4z" clip-path="url(#a)" fill="#fff" stroke="#fff"/>
<g clip-path="url(#a)">
<g transform="translate(1163.8 726.38) rotate(90) scale(.08 -.08)">
<use xlink:href="#l"/>
<use x="60.818359" xlink:href="#d"/>
<use x="122.341797" xlink:href="#k"/>
<use x="163.439453" xlink:href="#h"/>
<use x="260.851562" xlink:href="#e"/>
<use x="288.634766" xlink:href="#f"/>
<use x="352.013672" xlink:href="#i"/>
<use x="413.292969" xlink:href="#j"/>
</g>
</g>
<path d="m1338.3 761.7 22.107-27.501q1.5036-1.8706-0.36692-3.3742l-6.0345-4.8508q-1.8706-1.5036-3.3742 0.36692l-22.107 27.501q-1.5036 1.8706 0.36692 3.3742l6.0345 4.8508q1.8706 1.5036 3.3742-0.36692z" clip-path="url(#a)" fill="#fff" stroke="#fff"/>
<g clip-path="url(#a)">
<g transform="translate(1335.1 759.16) rotate(-51.206) scale(.08 -.08)">
<use xlink:href="#l"/>
<use x="60.818359" xlink:href="#d"/>
<use x="122.341797" xlink:href="#k"/>
<use x="163.439453" xlink:href="#h"/>
<use x="260.851562" xlink:href="#e"/>
<use x="288.634766" xlink:href="#f"/>
<use x="352.013672" xlink:href="#i"/>
<use x="413.292969" xlink:href="#j"/>
</g>
</g>
<path d="m1369.7 762.69 9.1324-34.083q0.62116-2.3182-1.6971-2.9394l-7.4787-2.0039q-2.3182-0.62116-2.9394 1.6971l-9.1324 34.083q-0.62116 2.3182 1.6971 2.9394l7.4787 2.0039q2.3182 0.62116 2.9394-1.6971z" clip-path="url(#a)" fill="#fff" stroke="#fff"/>
<g clip-path="url(#a)">
<g transform="translate(1365.8 761.64) rotate(-75) scale(.08 -.08)">
<use xlink:href="#l"/>
<use x="60.818359" xlink:href="#d"/>
<use x="122.341797" xlink:href="#k"/>
<use x="163.439453" xlink:href="#h"/>
<use x="260.851562" xlink:href="#e"/>
<use x="288.634766" xlink:href="#f"/>
<use x="352.013672" xlink:href="#i"/>
<use x="413.292969" xlink:href="#j"/>
</g>
</g>
<path d="m1381.4 728.61 9.1324 34.083q0.62116 2.3182 2.9394 1.6971l7.4787-2.0039q2.3182-0.62116 1.6971-2.9394l-9.1324-34.083q-0.62116-2.3182-2.9394-1.6971l-7.4787 2.0039q-2.3182 0.62116-1.6971 2.9394z" clip-path="url(#a)" fill="#fff" stroke="#fff"/>
<g clip-path="url(#a)">
<g transform="translate(1385.3 727.56) rotate(75) scale(.08 -.08)">
<use xlink:href="#l"/>
<use x="60.818359" xlink:href="#d"/>
<use x="122.341797" xlink:href="#k"/>
<use x="163.439453" xlink:href="#h"/>
<use x="260.851562" xlink:href="#e"/>
<use x="288.634766" xlink:href="#f"/>
<use x="352.013672" xlink:href="#i"/>
<use x="413.292969" xlink:href="#j"/>
</g>
</g>
<path d="m1399.9 734.2 22.107 27.501q1.5036 1.8706 3.3742 0.36692l6.0345-4.8508q1.8706-1.5036 0.36692-3.3742l-22.107-27.501q-1.5036-1.8706-3.3742-0.36692l-6.0345 4.8508q-1.8706 1.5036-0.36692 3.3742z" clip-path="url(#a)" fill="#fff" stroke="#fff"/>
<g clip-path="url(#a)">
<g transform="translate(1403 731.66) rotate(51.206) scale(.08 -.08)">
<use xlink:href="#l"/>
<use x="60.818359" xlink:href="#d"/>
<use x="122.341797" xlink:href="#k"/>
<use x="163.439453" xlink:href="#h"/>
<use x="260.851562" xlink:href="#e"/>
<use x="288.634766" xlink:href="#f"/>
<use x="352.013672" xlink:href="#i"/>
<use x="413.292969" xlink:href="#j"/>
</g>
</g>
<path d="m1064.6 726.38v35.285q0 2.4 2.4 2.4h7.7425q2.4 0 2.4-2.4v-35.285q0-2.4-2.4-2.4h-7.7425q-2.4 0-2.4 2.4z" clip-path="url(#a)" fill="#fff" stroke="#fff"/>
<g clip-path="url(#a)">
<g transform="translate(1068.6 726.38) rotate(90) scale(.08 -.08)">
<use xlink:href="#l"/>
<use x="60.818359" xlink:href="#d"/>
<use x="122.341797" xlink:href="#k"/>
<use x="163.439453" xlink:href="#h"/>
<use x="260.851562" xlink:href="#e"/>
<use x="288.634766" xlink:href="#f"/>
<use x="352.013672" xlink:href="#i"/>
<use x="413.292969" xlink:href="#j"/>
</g>
</g>
<path d="m1112.1 726.38v35.285q0 2.4 2.4 2.4h7.7425q2.4 0 2.4-2.4v-35.285q0-2.4-2.4-2.4h-7.7425q-2.4 0-2.4 2.4z" clip-path="url(#a)" fill="#fff" stroke="#fff"/>
<g clip-path="url(#a)">
<g transform="translate(1116.2 726.38) rotate(90) scale(.08 -.08)">
<use xlink:href="#l"/>
<use x="60.818359" xlink:href="#d"/>
<use x="122.341797" xlink:href="#k"/>
<use x="163.439453" xlink:href="#h"/>
<use x="260.851562" xlink:href="#e"/>
<use x="288.634766" xlink:href="#f"/>
<use x="352.013672" xlink:href="#i"/>
<use x="413.292969" xlink:href="#j"/>
</g>
</g>
<path d="m1207.3 726.38v35.285q0 2.4 2.4 2.4h7.7425q2.4 0 2.4-2.4v-35.285q0-2.4-2.4-2.4h-7.7425q-2.4 0-2.4 2.4z" clip-path="url(#a)" fill="#fff" stroke="#fff"/>
<g clip-path="url(#a)">
<g transform="translate(1211.4 726.38) rotate(90) scale(.08 -.08)">
<use xlink:href="#l"/>
<use x="60.818359" xlink:href="#d"/>
<use x="122.341797" xlink:href="#k"/>
<use x="163.439453" xlink:href="#h"/>
<use x="260.851562" xlink:href="#e"/>
<use x="288.634766" xlink:href="#f"/>
<use x="352.013672" xlink:href="#i"/>
<use x="413.292969" xlink:href="#j"/>
</g>
</g>
<path d="m779.06 726.38v35.285q0 2.4 2.4 2.4h7.7425q2.4 0 2.4-2.4v-35.285q0-2.4-2.4-2.4h-7.7425q-2.4 0-2.4 2.4z" clip-path="url(#a)" fill="#fff" stroke="#fff"/>
<g clip-path="url(#a)">
<g transform="translate(783.13 726.38) rotate(90) scale(.08 -.08)">
<use xlink:href="#l"/>
<use x="60.818359" xlink:href="#d"/>
<use x="122.341797" xlink:href="#k"/>
<use x="163.439453" xlink:href="#h"/>
<use x="260.851562" xlink:href="#e"/>
<use x="288.634766" xlink:href="#f"/>
<use x="352.013672" xlink:href="#i"/>
<use x="413.292969" xlink:href="#j"/>
</g>
</g>
<path d="m826.65 726.38v35.285q0 2.4 2.4 2.4h7.7425q2.4 0 2.4-2.4v-35.285q0-2.4-2.4-2.4h-7.7425q-2.4 0-2.4 2.4z" clip-path="url(#a)" fill="#fff" stroke="#fff"/>
<g clip-path="url(#a)">
<g transform="translate(830.71 726.38) rotate(90) scale(.08 -.08)">
<use xlink:href="#l"/>
<use x="60.818359" xlink:href="#d"/>
<use x="122.341797" xlink:href="#k"/>
<use x="163.439453" xlink:href="#h"/>
<use x="260.851562" xlink:href="#e"/>
<use x="288.634766" xlink:href="#f"/>
<use x="352.013672" xlink:href="#i"/>
<use x="413.292969" xlink:href="#j"/>
</g>
</g>
<path d="m874.23 726.38v35.285q0 2.4 2.4 2.4h7.7425q2.4 0 2.4-2.4v-35.285q0-2.4-2.4-2.4h-7.7425q-2.4 0-2.4 2.4z" clip-path="url(#a)" fill="#fff" stroke="#fff"/>
<g clip-path="url(#a)">
<g transform="translate(878.29 726.38) rotate(90) scale(.08 -.08)">
<use xlink:href="#l"/>
<use x="60.818359" xlink:href="#d"/>
<use x="122.341797" xlink:href="#k"/>
<use x="163.439453" xlink:href="#h"/>
<use x="260.851562" xlink:href="#e"/>
<use x="288.634766" xlink:href="#f"/>
<use x="352.013672" xlink:href="#i"/>
<use x="413.292969" xlink:href="#j"/>
</g>
</g>
<path d="m493.56 726.38v35.285q0 2.4 2.4 2.4h7.7425q2.4 0 2.4-2.4v-35.285q0-2.4-2.4-2.4h-7.7425q-2.4 0-2.4 2.4z" clip-path="url(#a)" fill="#fff" stroke="#fff"/>
<g clip-path="url(#a)">
<g transform="translate(497.63 726.38) rotate(90) scale(.08 -.08)">
<use xlink:href="#l"/>
<use x="60.818359" xlink:href="#d"/>
<use x="122.341797" xlink:href="#k"/>
<use x="163.439453" xlink:href="#h"/>
<use x="260.851562" xlink:href="#e"/>
<use x="288.634766" xlink:href="#f"/>
<use x="352.013672" xlink:href="#i"/>
<use x="413.292969" xlink:href="#j"/>
</g>
</g>
<path d="m541.15 726.38v35.285q0 2.4 2.4 2.4h7.7425q2.4 0 2.4-2.4v-35.285q0-2.4-2.4-2.4h-7.7425q-2.4 0-2.4 2.4z" clip-path="url(#a)" fill="#fff" stroke="#fff"/>
<g clip-path="url(#a)">
<g transform="translate(545.21 726.38) rotate(90) scale(.08 -.08)">
<use xlink:href="#l"/>
<use x="60.818359" xlink:href="#d"/>
<use x="122.341797" xlink:href="#k"/>
<use x="163.439453" xlink:href="#h"/>
<use x="260.851562" xlink:href="#e"/>
<use x="288.634766" xlink:href="#f"/>
<use x="352.013672" xlink:href="#i"/>
<use x="413.292969" xlink:href="#j"/>
</g>
</g>
<path d="m617.63 660.15 2.073-5.1577q0.89503-2.2269-1.3318-3.1219l-7.184-2.8874q-2.2269-0.89503-3.1219 1.3318l-2.073 5.1577q-0.89502 2.2269 1.3318 3.1219l7.184 2.8874q2.2269 0.89503 3.1219-1.3318z" clip-path="url(#a)" fill="#fff" stroke="#fff"/>
<g clip-path="url(#a)">
<g transform="translate(613.86 658.63) rotate(-68.104) scale(.08 -.08)">
<use xlink:href="#v"/>
</g>
</g>
<path d="m641.67 654.98 2.0833 5.1833q0.89503 2.2269 3.1219 1.3318l7.184-2.8874q2.2269-0.89503 1.3318-3.1219l-2.0833-5.1833q-0.89503-2.2269-3.1219-1.3318l-7.184 2.8874q-2.2269 0.89503-1.3318 3.1219z" clip-path="url(#a)" fill="#fff" stroke="#fff"/>
<g clip-path="url(#a)">
<g transform="translate(645.44 653.46) rotate(68.104) scale(.08 -.08)">
<use xlink:href="#q"/>
</g>
</g>
<path d="m588.73 726.38v35.285q0 2.4 2.4 2.4h7.7425q2.4 0 2.4-2.4v-35.285q0-2.4-2.4-2.4h-7.7425q-2.4 0-2.4 2.4z" clip-path="url(#a)" fill="#fff" stroke="#fff"/>
<g clip-path="url(#a)">
<g transform="translate(592.79 726.38) rotate(90) scale(.08 -.08)">
<use xlink:href="#l"/>
<use x="60.818359" xlink:href="#d"/>
<use x="122.341797" xlink:href="#k"/>
<use x="163.439453" xlink:href="#h"/>
<use x="260.851562" xlink:href="#e"/>
<use x="288.634766" xlink:href="#f"/>
<use x="352.013672" xlink:href="#i"/>
<use x="413.292969" xlink:href="#j"/>
</g>
</g>
<path d="m655.97 762.69 9.1324-34.083q0.62116-2.3182-1.6971-2.9394l-7.4787-2.0039q-2.3182-0.62116-2.9394 1.6971l-9.1324 34.083q-0.62116 2.3182 1.6971 2.9394l7.4787 2.0039q2.3182 0.62116 2.9394-1.6971z" clip-path="url(#a)" fill="#fff" stroke="#fff"/>
<g clip-path="url(#a)">
<g transform="translate(652.05 761.64) rotate(-75) scale(.08 -.08)">
<use xlink:href="#l"/>
<use x="60.818359" xlink:href="#d"/>
<use x="122.341797" xlink:href="#k"/>
<use x="163.439453" xlink:href="#h"/>
<use x="260.851562" xlink:href="#e"/>
<use x="288.634766" xlink:href="#f"/>
<use x="352.013672" xlink:href="#i"/>
<use x="413.292969" xlink:href="#j"/>
</g>
</g>
<path d="m667.65 728.61 9.1324 34.083q0.62116 2.3182 2.9394 1.6971l7.4787-2.0039q2.3182-0.62116 1.6971-2.9394l-9.1324-34.083q-0.62116-2.3182-2.9394-1.6971l-7.4787 2.0039q-2.3182 0.62116-1.6971 2.9394z" clip-path="url(#a)" fill="#fff" stroke="#fff"/>
<g clip-path="url(#a)">
<g transform="translate(671.57 727.56) rotate(75) scale(.08 -.08)">
<use xlink:href="#l"/>
<use x="60.818359" xlink:href="#d"/>
<use x="122.341797" xlink:href="#k"/>
<use x="163.439453" xlink:href="#h"/>
<use x="260.851562" xlink:href="#e"/>
<use x="288.634766" xlink:href="#f"/>
<use x="352.013672" xlink:href="#i"/>
<use x="413.292969" xlink:href="#j"/>
</g>
</g>
<path d="m303.23 726.38v35.285q0 2.4 2.4 2.4h7.7425q2.4 0 2.4-2.4v-35.285q0-2.4-2.4-2.4h-7.7425q-2.4 0-2.4 2.4z" clip-path="url(#a)" fill="#fff" stroke="#fff"/>
<g clip-path="url(#a)">
<g transform="translate(307.29 726.38) rotate(90) scale(.08 -.08)">
<use xlink:href="#l"/>
<use x="60.818359" xlink:href="#d"/>
<use x="122.341797" xlink:href="#k"/>
<use x="163.439453" xlink:href="#h"/>
<use x="260.851562" xlink:href="#e"/>
<use x="288.634766" xlink:href="#f"/>
<use x="352.013672" xlink:href="#i"/>
<use x="413.292969" xlink:href="#j"/>
</g>
</g>
<path d="m350.81 726.38v35.285q0 2.4 2.4 2.4h7.7425q2.4 0 2.4-2.4v-35.285q0-2.4-2.4-2.4h-7.7425q-2.4 0-2.4 2.4z" clip-path="url(#a)" fill="#fff" stroke="#fff"/>
<g clip-path="url(#a)">
<g transform="translate(354.88 726.38) rotate(90) scale(.08 -.08)">
<use xlink:href="#l"/>
<use x="60.818359" xlink:href="#d"/>
<use x="122.341797" xlink:href="#k"/>
<use x="163.439453" xlink:href="#h"/>
<use x="260.851562" xlink:href="#e"/>
<use x="288.634766" xlink:href="#f"/>
<use x="352.013672" xlink:href="#i"/>
<use x="413.292969" xlink:href="#j"/>
</g>
</g>
<path d="m208.06 726.38v35.285q0 2.4 2.4 2.4h7.7425q2.4 0 2.4-2.4v-35.285q0-2.4-2.4-2.4h-7.7425q-2.4 0-2.4 2.4z" clip-path="url(#a)" fill="#fff" stroke="#fff"/>
<g clip-path="url(#a)">
<g transform="translate(212.13 726.38) rotate(90) scale(.08 -.08)">
<use xlink:href="#l"/>
<use x="60.818359" xlink:href="#d"/>
<use x="122.341797" xlink:href="#k"/>
<use x="163.439453" xlink:href="#h"/>
<use x="260.851562" xlink:href="#e"/>
<use x="288.634766" xlink:href="#f"/>
<use x="352.013672" xlink:href="#i"/>
<use x="413.292969" xlink:href="#j"/>
</g>
</g>
<path d="m255.65 726.38v35.285q0 2.4 2.4 2.4h7.7425q2.4 0 2.4-2.4v-35.285q0-2.4-2.4-2.4h-7.7425q-2.4 0-2.4 2.4z" clip-path="url(#a)" fill="#fff" stroke="#fff"/>
<g clip-path="url(#a)">
<g transform="translate(259.71 726.38) rotate(90) scale(.08 -.08)">
<use xlink:href="#l"/>
<use x="60.818359" xlink:href="#d"/>
<use x="122.341797" xlink:href="#k"/>
<use x="163.439453" xlink:href="#h"/>
<use x="260.851562" xlink:href="#e"/>
<use x="288.634766" xlink:href="#f"/>
<use x="352.013672" xlink:href="#i"/>
<use x="413.292969" xlink:href="#j"/>
</g>
</g>
<path d="m445.98 726.38v35.285q0 2.4 2.4 2.4h7.7425q2.4 0 2.4-2.4v-35.285q0-2.4-2.4-2.4h-7.7425q-2.4 0-2.4 2.4z" clip-path="url(#a)" fill="#fff" stroke="#fff"/>
<g clip-path="url(#a)">
<g transform="translate(450.04 726.38) rotate(90) scale(.08 -.08)">
<use xlink:href="#l"/>
<use x="60.818359" xlink:href="#d"/>
<use x="122.341797" xlink:href="#k"/>
<use x="163.439453" xlink:href="#h"/>
<use x="260.851562" xlink:href="#e"/>
<use x="288.634766" xlink:href="#f"/>
<use x="352.013672" xlink:href="#i"/>
<use x="413.292969" xlink:href="#j"/>
</g>
</g>
<path d="m1254.9 726.38v35.285q0 2.4 2.4 2.4h7.7425q2.4 0 2.4-2.4v-35.285q0-2.4-2.4-2.4h-7.7425q-2.4 0-2.4 2.4z" clip-path="url(#a)" fill="#fff" stroke="#fff"/>
<g clip-path="url(#a)">
<g transform="translate(1259 726.38) rotate(90) scale(.08 -.08)">
<use xlink:href="#l"/>
<use x="60.818359" xlink:href="#d"/>
<use x="122.341797" xlink:href="#k"/>
<use x="163.439453" xlink:href="#h"/>
<use x="260.851562" xlink:href="#e"/>
<use x="288.634766" xlink:href="#f"/>
<use x="352.013672" xlink:href="#i"/>
<use x="413.292969" xlink:href="#j"/>
</g>
</g>
<path d="m1492.8 726.38v35.285q0 2.4 2.4 2.4h7.7425q2.4 0 2.4-2.4v-35.285q0-2.4-2.4-2.4h-7.7425q-2.4 0-2.4 2.4z" clip-path="url(#a)" fill="#fff" stroke="#fff"/>
<g clip-path="url(#a)">
<g transform="translate(1496.9 726.38) rotate(90) scale(.08 -.08)">
<use xlink:href="#l"/>
<use x="60.818359" xlink:href="#d"/>
<use x="122.341797" xlink:href="#k"/>
<use x="163.439453" xlink:href="#h"/>
<use x="260.851562" xlink:href="#e"/>
<use x="288.634766" xlink:href="#f"/>
<use x="352.013672" xlink:href="#i"/>
<use x="413.292969" xlink:href="#j"/>
</g>
</g>
<defs>
<path id="b" d="m0 8.6603c2.2967 0 4.4997-0.9125 6.1237-2.5365 1.624-1.624 2.5365-3.827 2.5365-6.1237s-0.9125-4.4997-2.5365-6.1237c-1.624-1.624-3.827-2.5365-6.1237-2.5365s-4.4997 0.9125-6.1237 2.5365c-1.624 1.624-2.5365 3.827-2.5365 6.1237s0.9125 4.4997 2.5365 6.1237c1.624 1.624 3.827 2.5365 6.1237 2.5365z"/>
</defs>
<g clip-path="url(#a)">
<use x="71.58284" y="788.421167" fill="#ffffff" stroke="#ffffff" xlink:href="#b"/>
</g>
<g clip-path="url(#a)">
<use x="119.166207" y="788.421167" fill="#ffffff" stroke="#ffffff" xlink:href="#b"/>
</g>
<g clip-path="url(#a)">
<use x="166.749573" y="788.421167" fill="#ffffff" stroke="#ffffff" xlink:href="#b"/>
</g>
<g clip-path="url(#a)">
<use x="214.332939" y="788.421167" fill="#ffffff" stroke="#ffffff" xlink:href="#b"/>
</g>
<g clip-path="url(#a)">
<use x="261.916305" y="788.421167" fill="#ffffff" stroke="#ffffff" xlink:href="#b"/>
</g>
<g clip-path="url(#a)">
<use x="309.499671" y="788.421167" fill="#ffffff" stroke="#ffffff" xlink:href="#b"/>
</g>
<g clip-path="url(#a)">
<use x="357.083038" y="788.421167" fill="#ffffff" stroke="#ffffff" xlink:href="#b"/>
</g>
<g clip-path="url(#a)">
<use x="404.666404" y="788.421167" fill="#ffffff" stroke="#ffffff" xlink:href="#b"/>
</g>
<g clip-path="url(#a)">
<use x="452.24977" y="788.421167" fill="#ffffff" stroke="#ffffff" xlink:href="#b"/>
</g>
<g clip-path="url(#a)">
<use x="499.833136" y="788.421167" fill="#ffffff" stroke="#ffffff" xlink:href="#b"/>
</g>
<g clip-path="url(#a)">
<use x="547.416502" y="788.421167" fill="#ffffff" stroke="#ffffff" xlink:href="#b"/>
</g>
<g clip-path="url(#a)">
<use x="594.999869" y="788.421167" fill="#ffffff" stroke="#ffffff" xlink:href="#b"/>
</g>
<g clip-path="url(#a)">
<use x="642.583235" y="788.421167" fill="#ffffff" stroke="#ffffff" xlink:href="#b"/>
</g>
<g clip-path="url(#a)">
<use x="690.166601" y="788.421167" fill="#ffffff" stroke="#ffffff" xlink:href="#b"/>
</g>
<g clip-path="url(#a)">
<use x="737.749967" y="788.421167" fill="#ffffff" stroke="#ffffff" xlink:href="#b"/>
</g>
<g clip-path="url(#a)">
<use x="785.333333" y="788.421167" fill="#ffffff" stroke="#ffffff" xlink:href="#b"/>
</g>
<g clip-path="url(#a)">
<use x="832.9167" y="788.421167" fill="#ffffff" stroke="#ffffff" xlink:href="#b"/>
</g>
<g clip-path="url(#a)">
<use x="880.500066" y="788.421167" fill="#ffffff" stroke="#ffffff" xlink:href="#b"/>
</g>
<g clip-path="url(#a)">
<use x="928.083432" y="788.421167" fill="#ffffff" stroke="#ffffff" xlink:href="#b"/>
</g>
<g clip-path="url(#a)">
<use x="975.666798" y="788.421167" fill="#ffffff" stroke="#ffffff" xlink:href="#b"/>
</g>
<g clip-path="url(#a)">
<use x="1023.250164" y="788.421167" fill="#ffffff" stroke="#ffffff" xlink:href="#b"/>
</g>
<g clip-path="url(#a)">
<use x="1070.833531" y="788.421167" fill="#ffffff" stroke="#ffffff" xlink:href="#b"/>
</g>
<g clip-path="url(#a)">
<use x="1118.416897" y="788.421167" fill="#ffffff" stroke="#ffffff" xlink:href="#b"/>
</g>
<g clip-path="url(#a)">
<use x="1166.000263" y="788.421167" fill="#ffffff" stroke="#ffffff" xlink:href="#b"/>
</g>
<g clip-path="url(#a)">
<use x="1213.583629" y="788.421167" fill="#ffffff" stroke="#ffffff" xlink:href="#b"/>
</g>
<g clip-path="url(#a)">
<use x="1261.166995" y="788.421167" fill="#ffffff" stroke="#ffffff" xlink:href="#b"/>
</g>
<g clip-path="url(#a)">
<use x="1308.750361" y="788.421167" fill="#ffffff" stroke="#ffffff" xlink:href="#b"/>
</g>
<g clip-path="url(#a)">
<use x="1356.333728" y="788.421167" fill="#ffffff" stroke="#ffffff" xlink:href="#b"/>
</g>
<g clip-path="url(#a)">
<use x="1403.917094" y="788.421167" fill="#ffffff" stroke="#ffffff" xlink:href="#b"/>
</g>
<g clip-path="url(#a)">
<use x="1451.50046" y="788.421167" fill="#ffffff" stroke="#ffffff" xlink:href="#b"/>
</g>
<g clip-path="url(#a)">
<use x="1499.083826" y="788.421167" fill="#ffffff" stroke="#ffffff" xlink:href="#b"/>
</g>
<g clip-path="url(#a)">
<use x="155.206201" y="38.2455" fill="#ffffff" stroke="#ffffff" xlink:href="#b"/>
</g>
<g clip-path="url(#a)">
<use x="71.58284" y="699.628969" fill="#ffffff" stroke="#ffffff" xlink:href="#b"/>
</g>
<g clip-path="url(#a)">
<use x="238.829561" y="140.057164" fill="#ffffff" stroke="#ffffff" xlink:href="#b"/>
</g>
<g clip-path="url(#a)">
<use x="119.166207" y="699.628969" fill="#ffffff" stroke="#ffffff" xlink:href="#b"/>
</g>
<g clip-path="url(#a)">
<use x="166.749573" y="699.628969" fill="#ffffff" stroke="#ffffff" xlink:href="#b"/>
</g>
<g clip-path="url(#a)">
<use x="430.572903" y="238.955995" fill="#ffffff" stroke="#ffffff" xlink:href="#b"/>
</g>
<g clip-path="url(#a)">
<use x="238.124622" y="610.83677" fill="#ffffff" stroke="#ffffff" xlink:href="#b"/>
</g>
<g clip-path="url(#a)">
<use x="333.291354" y="610.83677" fill="#ffffff" stroke="#ffffff" xlink:href="#b"/>
</g>
<g clip-path="url(#a)">
<use x="404.666404" y="699.628969" fill="#ffffff" stroke="#ffffff" xlink:href="#b"/>
</g>
<g clip-path="url(#a)">
<use x="724.532365" y="335.196698" fill="#ffffff" stroke="#ffffff" xlink:href="#b"/>
</g>
<g clip-path="url(#a)">
<use x="520.650859" y="520.809374" fill="#ffffff" stroke="#ffffff" xlink:href="#b"/>
</g>
<g clip-path="url(#a)">
<use x="737.749967" y="699.628969" fill="#ffffff" stroke="#ffffff" xlink:href="#b"/>
</g>
<g clip-path="url(#a)">
<use x="915.19627" y="429.048433" fill="#ffffff" stroke="#ffffff" xlink:href="#b"/>
</g>
<g clip-path="url(#a)">
<use x="1162.034982" y="520.809374" fill="#ffffff" stroke="#ffffff" xlink:href="#b"/>
</g>
<g clip-path="url(#a)">
<use x="951.875115" y="699.628969" fill="#ffffff" stroke="#ffffff" xlink:href="#b"/>
</g>
<g clip-path="url(#a)">
<use x="1023.250164" y="699.628969" fill="#ffffff" stroke="#ffffff" xlink:href="#b"/>
</g>
<g clip-path="url(#a)">
<use x="1134.278019" y="610.83677" fill="#ffffff" stroke="#ffffff" xlink:href="#b"/>
</g>
<g clip-path="url(#a)">
<use x="1166.000263" y="699.628969" fill="#ffffff" stroke="#ffffff" xlink:href="#b"/>
</g>
<g clip-path="url(#a)">
<use x="1380.125411" y="699.628969" fill="#ffffff" stroke="#ffffff" xlink:href="#b"/>
</g>
<g clip-path="url(#a)">
<use x="1070.833531" y="699.628969" fill="#ffffff" stroke="#ffffff" xlink:href="#b"/>
</g>
<g clip-path="url(#a)">
<use x="1118.416897" y="699.628969" fill="#ffffff" stroke="#ffffff" xlink:href="#b"/>
</g>
<g clip-path="url(#a)">
<use x="1213.583629" y="699.628969" fill="#ffffff" stroke="#ffffff" xlink:href="#b"/>
</g>
<g clip-path="url(#a)">
<use x="785.333333" y="699.628969" fill="#ffffff" stroke="#ffffff" xlink:href="#b"/>
</g>
<g clip-path="url(#a)">
<use x="832.9167" y="699.628969" fill="#ffffff" stroke="#ffffff" xlink:href="#b"/>
</g>
<g clip-path="url(#a)">
<use x="880.500066" y="699.628969" fill="#ffffff" stroke="#ffffff" xlink:href="#b"/>
</g>
<g clip-path="url(#a)">
<use x="499.833136" y="699.628969" fill="#ffffff" stroke="#ffffff" xlink:href="#b"/>
</g>
<g clip-path="url(#a)">
<use x="547.416502" y="699.628969" fill="#ffffff" stroke="#ffffff" xlink:href="#b"/>
</g>
<g clip-path="url(#a)">
<use x="630.687393" y="610.83677" fill="#ffffff" stroke="#ffffff" xlink:href="#b"/>
</g>
<g clip-path="url(#a)">
<use x="594.999869" y="699.628969" fill="#ffffff" stroke="#ffffff" xlink:href="#b"/>
</g>
<g clip-path="url(#a)">
<use x="666.374918" y="699.628969" fill="#ffffff" stroke="#ffffff" xlink:href="#b"/>
</g>
<g clip-path="url(#a)">
<use x="309.499671" y="699.628969" fill="#ffffff" stroke="#ffffff" xlink:href="#b"/>
</g>
<g clip-path="url(#a)">
<use x="357.083038" y="699.628969" fill="#ffffff" stroke="#ffffff" xlink:href="#b"/>
</g>
<g clip-path="url(#a)">
<use x="214.332939" y="699.628969" fill="#ffffff" stroke="#ffffff" xlink:href="#b"/>
</g>
<g clip-path="url(#a)">
<use x="261.916305" y="699.628969" fill="#ffffff" stroke="#ffffff" xlink:href="#b"/>
</g>
<g clip-path="url(#a)">
<use x="452.24977" y="699.628969" fill="#ffffff" stroke="#ffffff" xlink:href="#b"/>
</g>
<g clip-path="url(#a)">
<use x="1261.166995" y="699.628969" fill="#ffffff" stroke="#ffffff" xlink:href="#b"/>
</g>
<g clip-path="url(#a)">
<use x="1499.083826" y="699.628969" fill="#ffffff" stroke="#ffffff" xlink:href="#b"/>
</g>
<g clip-path="url(#a)">
<defs>
<path id="p" d="m54.891 33.016v-33.016h-8.9844v32.719q0 7.7656-3.0312 11.609-3.0312 3.8594-9.0781 3.8594-7.2812 0-11.484-4.6406-4.2031-4.625-4.2031-12.641v-30.906h-9.0312v75.984h9.0312v-29.797q3.2344 4.9375 7.5938 7.375 4.375 2.4375 10.094 2.4375 9.4219 0 14.25-5.8281 4.8438-5.8281 4.8438-17.156z"/>
</defs>
<g transform="translate(57.153 791.18) scale(.1 -.1)">
<use xlink:href="#l"/>
<use x="61.083984" xlink:href="#p"/>
<use x="124.462891" xlink:href="#d"/>
<use x="185.986328" xlink:href="#k"/>
<use x="227.068359" xlink:href="#d"/>
</g>
</g>
<g clip-path="url(#a)">
<defs>
<path id="ad" d="m44.281 53.078v-8.5q-3.7969 1.9531-7.9062 2.9219-4.0938 0.98438-8.5 0.98438-6.6875 0-10.031-2.0469t-3.3438-6.1562q0-3.125 2.3906-4.9062t9.625-3.3906l3.0781-0.6875q9.5625-2.0469 13.594-5.7812t4.0312-10.422q0-7.625-6.0312-12.078-6.0312-4.4375-16.578-4.4375-4.3906 0-9.1562 0.85938t-10.031 2.5625v9.2812q4.9844-2.5938 9.8125-3.8906 4.8281-1.2812 9.5781-1.2812 6.3438 0 9.75 2.1719 3.4219 2.1719 3.4219 6.125 0 3.6562-2.4688 5.6094-2.4531 1.9531-10.812 3.7656l-3.125 0.73438q-8.3438 1.75-12.062 5.3906-3.7031 3.6406-3.7031 9.9844 0 7.7188 5.4688 11.906 5.4688 4.2031 15.531 4.2031 4.9688 0 9.3594-0.73438 4.4062-0.71875 8.1094-2.1875z"/>
</defs>
<g transform="translate(110.32 791.18) scale(.1 -.1)">
<use xlink:href="#ad"/>
<use x="52.099609" xlink:href="#p"/>
<use x="115.478516" xlink:href="#d"/>
</g>
</g>
<g clip-path="url(#a)">
<defs>
<path id="s" d="m45.406 46.391v29.594h8.9844v-75.984h-8.9844v8.2031q-2.8281-4.875-7.1562-7.25-4.3125-2.375-10.375-2.375-9.9062 0-16.141 7.9062-6.2188 7.9219-6.2188 20.812t6.2188 20.797q6.2344 7.9062 16.141 7.9062 6.0625 0 10.375-2.375 4.3281-2.3594 7.1562-7.2344zm-30.609-19.094q0-9.9062 4.0781-15.547t11.203-5.6406 11.219 5.6406q4.1094 5.6406 4.1094 15.547t-4.1094 15.547q-4.0938 5.6406-11.219 5.6406t-11.203-5.6406-4.0781-15.547z"/>
</defs>
<g transform="translate(152.56 791.18) scale(.1 -.1)">
<use xlink:href="#h"/>
<use x="97.412109" xlink:href="#i"/>
<use x="158.691406" xlink:href="#s"/>
<use x="222.167969" xlink:href="#d"/>
</g>
</g>
<g clip-path="url(#a)">
<defs>
<path id="r" d="m30.609 48.391q-7.2188 0-11.422-5.6406t-4.2031-15.453 4.1719-15.453q4.1875-5.6406 11.453-5.6406 7.1875 0 11.375 5.6562 4.2031 5.6719 4.2031 15.438 0 9.7188-4.2031 15.406-4.1875 5.6875-11.375 5.6875zm0 7.6094q11.719 0 18.406-7.625 6.7031-7.6094 6.7031-21.078 0-13.422-6.7031-21.078-6.6875-7.6406-18.406-7.6406-11.766 0-18.438 7.6406-6.6562 7.6562-6.6562 21.078 0 13.469 6.6562 21.078 6.6719 7.625 18.438 7.625z"/>
</defs>
<g transform="translate(201.27 791.18) scale(.1 -.1)">
<use xlink:href="#h"/>
<use x="97.412109" xlink:href="#r"/>
<use x="158.59375" xlink:href="#k"/>
<use x="199.675781" xlink:href="#d"/>
</g>
</g>
<g clip-path="url(#a)">
<defs>
<path id="t" d="m18.312 70.219v-15.531h18.5v-6.9844h-18.5v-29.688q0-6.6875 1.8281-8.5938t7.4531-1.9062h9.2188v-7.5156h-9.2188q-10.406 0-14.359 3.875-3.9531 3.8906-3.9531 14.141v29.688h-6.5938v6.9844h6.5938v15.531z"/>
</defs>
<g transform="translate(250.55 791.18) scale(.1 -.1)">
<use xlink:href="#t"/>
<use x="39.208984" xlink:href="#p"/>
<use x="102.587891" xlink:href="#i"/>
<use x="163.867188" xlink:href="#f"/>
</g>
</g>
<g clip-path="url(#a)">
<defs>
<path id="y" d="m4.2031 54.688h8.9844l11.234-42.672 11.172 42.672h10.594l11.234-42.672 11.188 42.672h8.9844l-14.312-54.688h-10.594l-11.766 44.828-11.812-44.828h-10.609z"/>
</defs>
<g transform="translate(300.39 791.18) scale(.1 -.1)">
<use xlink:href="#t"/>
<use x="39.208984" xlink:href="#y"/>
<use x="120.996094" xlink:href="#r"/>
</g>
</g>
<g clip-path="url(#a)">
<defs>
<path id="ai" d="m5.5156 54.688h42.672v-8.2031l-33.781-39.312h33.781v-7.1719h-43.891v8.2031l33.797 39.312h-32.578z"/>
</defs>
<g transform="translate(341.98 791.18) scale(.1 -.1)">
<use xlink:href="#s"/>
<use x="63.476562" xlink:href="#r"/>
<use x="124.658203" xlink:href="#ai"/>
<use x="177.148438" xlink:href="#d"/>
<use x="238.671875" xlink:href="#f"/>
</g>
</g>
<g clip-path="url(#a)">
<defs>
<path id="ae" d="m37.109 75.984v-7.4844h-8.5938q-4.8281 0-6.7188-1.9531-1.875-1.9531-1.875-7.0312v-4.8281h14.797v-6.9844h-14.797v-47.703h-9.0312v47.703h-8.5938v6.9844h8.5938v3.8125q0 9.125 4.25 13.297 4.25 4.1875 13.469 4.1875z"/>
</defs>
<g transform="translate(392.65 791.18) scale(.1 -.1)">
<use xlink:href="#ae"/>
<use x="35.205078" xlink:href="#e"/>
<use x="62.988281" xlink:href="#j"/>
<use x="90.771484" xlink:href="#h"/>
<use x="188.183594" xlink:href="#ad"/>
</g>
</g>
<g clip-path="url(#a)">
<defs>
<path id="aj" d="m11.719 12.406h10.297v-8.4062l-8-15.625h-6.2969l4 15.625z"/>
</defs>
<g transform="translate(450.66 791.18) scale(.1 -.1)">
<use xlink:href="#aj"/>
</g>
</g>
<g clip-path="url(#a)">
<defs>
<path id="af" d="m48.781 52.594v-8.4062q-3.8125 2.1094-7.6406 3.1562t-7.7344 1.0469q-8.75 0-13.594-5.5469-4.8281-5.5312-4.8281-15.547t4.8281-15.562q4.8438-5.5312 13.594-5.5312 3.9062 0 7.7344 1.0469t7.6406 3.1562v-8.3125q-3.7656-1.75-7.7969-2.625-4.0156-0.89062-8.5625-0.89062-12.359 0-19.641 7.7656-7.2656 7.7656-7.2656 20.953 0 13.375 7.3438 21.031 7.3594 7.6719 20.156 7.6719 4.1406 0 8.0938-0.85938 3.9531-0.84375 7.6719-2.5469z"/>
<path id="al" d="m8.5 21.578v33.109h8.9844v-32.766q0-7.7656 3.0156-11.656 3.0312-3.875 9.0938-3.875 7.2656 0 11.484 4.6406 4.2344 4.6406 4.2344 12.656v31h8.9844v-54.688h-8.9844v8.4062q-3.2656-4.9844-7.5938-7.4062-4.3125-2.4219-10.031-2.4219-9.4219 0-14.312 5.8594-4.875 5.8594-4.875 17.141z"/>
<path id="ay" d="m45.406 27.984q0 9.7656-4.0312 15.125-4.0156 5.375-11.297 5.375-7.2188 0-11.25-5.375-4.0312-5.3594-4.0312-15.125 0-9.7188 4.0312-15.094t11.25-5.375q7.2812 0 11.297 5.375 4.0312 5.375 4.0312 15.094zm8.9844-21.203q0-13.953-6.2031-20.766-6.1875-6.8125-18.984-6.8125-4.7344 0-8.9375 0.70312t-8.1562 2.1719v8.7344q3.9531-2.1406 7.8125-3.1562 3.8594-1.0312 7.8594-1.0312 8.8438 0 13.234 4.6094t4.3906 13.938v4.4531q-2.7812-4.8438-7.125-7.2344t-10.406-2.3906q-10.047 0-16.203 7.6562-6.1562 7.6719-6.1562 20.328 0 12.688 6.1562 20.344 6.1562 7.6719 16.203 7.6719 6.0625 0 10.406-2.3906t7.125-7.2188v8.2969h8.9844z"/>
</defs>
<g transform="translate(477.06 791.18) scale(.1 -.1)">
<use xlink:href="#e"/>
<use x="27.783203" xlink:href="#f"/>
<use x="91.162109" xlink:href="#af"/>
<use x="146.142578" xlink:href="#j"/>
<use x="173.925781" xlink:href="#al"/>
<use x="237.304688" xlink:href="#s"/>
<use x="300.78125" xlink:href="#e"/>
<use x="328.564453" xlink:href="#f"/>
<use x="391.943359" xlink:href="#ay"/>
</g>
</g>
<g clip-path="url(#a)">
<g transform="translate(536.61 791.18) scale(.1 -.1)">
<use xlink:href="#f"/>
<use x="63.378906" xlink:href="#e"/>
<use x="91.162109" xlink:href="#f"/>
<use x="154.541016" xlink:href="#d"/>
</g>
</g>
<g clip-path="url(#a)">
<g transform="translate(584.39 791.18) scale(.1 -.1)">
<use xlink:href="#y"/>
<use x="81.787109" xlink:href="#e"/>
<use x="109.570312" xlink:href="#t"/>
<use x="148.779297" xlink:href="#p"/>
</g>
</g>
<g clip-path="url(#a)">
<defs>
<path id="as" d="m9.8125 72.906h14.703l18.594-49.609 18.703 49.609h14.703v-72.906h-9.625v64.016l-18.797-50h-9.9062l-18.797 50v-64.016h-9.5781z"/>
<path id="ax" d="m9.0781 75.984h9.0312v-44.875l26.812 23.578h11.469l-29-25.578 30.234-29.109h-11.719l-27.797 26.703v-26.703h-9.0312z"/>
<path id="ak" d="m32.172-5.0781q-3.7969-9.7656-7.4219-12.734-3.6094-2.9844-9.6562-2.9844h-7.1875v7.5156h5.2812q3.7031 0 5.75 1.7656 2.0625 1.75 4.5469 8.2969l1.6094 4.0938-22.109 53.812h9.5156l17.094-42.766 17.094 42.766h9.5156z"/>
</defs>
<g transform="translate(625.2 791.18) scale(.1 -.1)">
<use xlink:href="#as"/>
<use x="86.279297" xlink:href="#e"/>
<use x="114.0625" xlink:href="#af"/>
<use x="169.042969" xlink:href="#ax"/>
<use x="226.90625" xlink:href="#d"/>
<use x="288.429688" xlink:href="#ak"/>
</g>
</g>
<g clip-path="url(#a)">
<g transform="translate(671.37 791.18) scale(.1 -.1)">
<use xlink:href="#v"/>
<use x="69.419922" xlink:href="#r"/>
<use x="130.601562" xlink:href="#r"/>
<use x="191.783203" xlink:href="#f"/>
<use x="255.162109" xlink:href="#d"/>
<use x="316.685547" xlink:href="#ak"/>
</g>
</g>
<g clip-path="url(#a)">
<g transform="translate(728.34 791.18) scale(.1 -.1)">
<use xlink:href="#i"/>
<use x="61.279297" xlink:href="#f"/>
<use x="124.658203" xlink:href="#s"/>
</g>
</g>
<g clip-path="url(#a)">
<g transform="translate(777.13 791.18) scale(.1 -.1)">
<use xlink:href="#t"/>
<use x="39.208984" xlink:href="#p"/>
<use x="102.587891" xlink:href="#d"/>
</g>
</g>
<g clip-path="url(#a)">
<defs>
<path id="c" d="m12.406 8.2969h16.109v55.625l-17.531-3.5156v8.9844l17.438 3.5156h9.8594v-64.609h16.109v-8.2969h-41.984z"/>
<path id="u" d="m10.984 1.5156v8.9844q3.7188-1.7656 7.5156-2.6875 3.8125-0.92188 7.4844-0.92188 9.7656 0 14.906 6.5625 5.1562 6.5625 5.8906 19.953-2.8281-4.2031-7.1875-6.4531-4.3438-2.25-9.6094-2.25-10.938 0-17.312 6.6094-6.375 6.625-6.375 18.109 0 11.219 6.6406 18 6.6406 6.7969 17.672 6.7969 12.656 0 19.312-9.7031 6.6719-9.6875 6.6719-28.141 0-17.234-8.1875-27.516-8.1719-10.281-21.984-10.281-3.7188 0-7.5312 0.73438-3.7969 0.73438-7.9062 2.2031zm19.625 30.906q6.6406 0 10.516 4.5312 3.8906 4.5469 3.8906 12.469 0 7.8594-3.8906 12.422-3.875 4.5625-10.516 4.5625t-10.516-4.5625-3.875-12.422q0-7.9219 3.875-12.469 3.875-4.5312 10.516-4.5312z"/>
<path id="m" d="m40.578 39.312q7.0781-1.5156 11.047-6.3125 3.9844-4.7812 3.9844-11.812 0-10.781-7.4219-16.703-7.4219-5.9062-21.094-5.9062-4.5781 0-9.4375 0.90625t-10.031 2.7188v9.5156q4.0938-2.3906 8.9688-3.6094 4.8906-1.2188 10.219-1.2188 9.2656 0 14.125 3.6562t4.8594 10.641q0 6.4531-4.5156 10.078-4.5156 3.6406-12.562 3.6406h-8.5v8.1094h8.8906q7.2656 0 11.125 2.9062t3.8594 8.375q0 5.6094-3.9844 8.6094-3.9688 3.0156-11.391 3.0156-4.0625 0-8.7031-0.89062-4.6406-0.875-10.203-2.7188v8.7812q5.625 1.5625 10.531 2.3438t9.25 0.78125q11.234 0 17.766-5.1094 6.5469-5.0938 6.5469-13.781 0-6.0625-3.4688-10.234t-9.8594-5.7812z"/>
</defs>
<g transform="translate(820.19 791.18) scale(.1 -.1)">
<use xlink:href="#c"/>
<use x="63.623047" xlink:href="#u"/>
<use x="127.246094" xlink:href="#m"/>
<use x="190.869141" xlink:href="#u"/>
</g>
</g>
<g clip-path="url(#a)">
<g transform="translate(871.09 791.18) scale(.1 -.1)">
<use xlink:href="#ae"/>
<use x="35.205078" xlink:href="#e"/>
<use x="62.988281" xlink:href="#j"/>
<use x="90.771484" xlink:href="#h"/>
</g>
</g>
<g clip-path="url(#a)">
<g transform="translate(917.48 791.18) scale(.1 -.1)">
<use xlink:href="#y"/>
<use x="81.787109" xlink:href="#e"/>
<use x="109.570312" xlink:href="#t"/>
<use x="148.779297" xlink:href="#p"/>
</g>
</g>
<g clip-path="url(#a)">
<g transform="translate(961.1 791.18) scale(.1 -.1)">
<use xlink:href="#y"/>
<use x="81.787109" xlink:href="#p"/>
<use x="145.166016" xlink:href="#e"/>
<use x="172.949219" xlink:href="#af"/>
<use x="227.929688" xlink:href="#p"/>
</g>
</g>
<g clip-path="url(#a)">
<g transform="translate(1014.4 791.18) scale(.1 -.1)">
<use xlink:href="#ad"/>
<use x="52.099609" xlink:href="#p"/>
<use x="115.478516" xlink:href="#d"/>
</g>
</g>
<g clip-path="url(#a)">
<g transform="translate(1056 791.18) scale(.1 -.1)">
<use xlink:href="#y"/>
<use x="81.787109" xlink:href="#r"/>
<use x="142.96875" xlink:href="#al"/>
<use x="206.347656" xlink:href="#j"/>
<use x="234.130859" xlink:href="#s"/>
</g>
</g>
<g clip-path="url(#a)">
<defs>
<path id="am" d="m48.688 27.297q0 9.9062-4.0781 15.547t-11.203 5.6406q-7.1406 0-11.219-5.6406t-4.0781-15.547 4.0781-15.547 11.219-5.6406q7.125 0 11.203 5.6406t4.0781 15.547zm-30.578 19.094q2.8438 4.875 7.1562 7.2344 4.3281 2.375 10.328 2.375 9.9688 0 16.188-7.9062 6.2344-7.9062 6.2344-20.797t-6.2344-20.812q-6.2188-7.9062-16.188-7.9062-6 0-10.328 2.375-4.3125 2.375-7.1562 7.25v-8.2031h-9.0312v75.984h9.0312z"/>
</defs>
<g transform="translate(1112.2 791.18) scale(.1 -.1)">
<use xlink:href="#am"/>
<use x="63.476562" xlink:href="#d"/>
</g>
</g>
<g clip-path="url(#a)">
<g transform="translate(1153.5 791.18) scale(.1 -.1)">
<use xlink:href="#h"/>
<use x="97.412109" xlink:href="#r"/>
<use x="158.59375" xlink:href="#ad"/>
<use x="210.693359" xlink:href="#t"/>
</g>
</g>
<g clip-path="url(#a)">
<g transform="translate(1190 791.18) scale(.1 -.1)">
<use xlink:href="#e"/>
<use x="27.783203" xlink:href="#s"/>
<use x="91.259766" xlink:href="#d"/>
<use x="152.783203" xlink:href="#f"/>
<use x="216.162109" xlink:href="#t"/>
<use x="255.371094" xlink:href="#e"/>
<use x="283.154297" xlink:href="#ae"/>
<use x="318.359375" xlink:href="#e"/>
<use x="346.142578" xlink:href="#d"/>
<use x="407.666016" xlink:href="#s"/>
</g>
</g>
<g clip-path="url(#a)">
<g transform="translate(1259.6 791.18) scale(.1 -.1)">
<use xlink:href="#aj"/>
</g>
</g>
<g clip-path="url(#a)">
<g transform="translate(1299.5 791.18) scale(.1 -.1)">
<use xlink:href="#l"/>
<use x="61.083984" xlink:href="#p"/>
<use x="124.462891" xlink:href="#d"/>
</g>
</g>
<g clip-path="url(#a)">
<defs>
<path id="an" d="m3.3281 72.906h9.9531l15.328-61.625 15.281 61.625h11.094l15.328-61.625 15.281 61.625h10.016l-18.312-72.906h-12.406l-15.375 63.281-15.531-63.281h-12.406z"/>
</defs>
<g transform="translate(1339.1 791.18) scale(.1 -.1)">
<use xlink:href="#an"/>
<use x="98.845703" xlink:href="#e"/>
<use x="126.628906" xlink:href="#ai"/>
<use x="179.119141" xlink:href="#i"/>
<use x="240.398438" xlink:href="#k"/>
<use x="281.496094" xlink:href="#s"/>
</g>
</g>
<g clip-path="url(#a)">
<g transform="translate(1399.1 791.18) scale(.1 -.1)">
<use xlink:href="#r"/>
<use x="61.181641" xlink:href="#ae"/>
</g>
</g>
<g clip-path="url(#a)">
<defs>
<path id="aq" d="m39.406 66.219q-10.75 0-17.078-8.0156-6.3125-8-6.3125-21.828 0-13.766 6.3125-21.781 6.3281-8 17.078-8 10.734 0 17.016 8 6.2812 8.0156 6.2812 21.781 0 13.828-6.2812 21.828-6.2812 8.0156-17.016 8.0156zm0 8q15.328 0 24.5-10.281 9.1875-10.281 9.1875-27.562 0-17.234-9.1875-27.516-9.1719-10.281-24.5-10.281-15.375 0-24.594 10.25-9.2031 10.266-9.2031 27.547t9.2031 27.562q9.2188 10.281 24.594 10.281z"/>
</defs>
<g transform="translate(1444.9 791.18) scale(.1 -.1)">
<use xlink:href="#aq"/>
<use x="78.710938" xlink:href="#ai"/>
</g>
</g>
<g clip-path="url(#a)">
<defs>
<path id="g" d="m10.688 12.406h10.312v-12.406h-10.312z"/>
</defs>
<g transform="translate(1497.5 791.18) scale(.1 -.1)">
<use xlink:href="#g"/>
</g>
</g>
<g clip-path="url(#a)">
<g transform="translate(147.25 41.005) scale(.1 -.1)">
<use xlink:href="#c"/>
<use x="63.623047" xlink:href="#g"/>
<use x="95.410156" xlink:href="#c"/>
</g>
</g>
<g clip-path="url(#a)">
<defs>
<path id="n" d="m19.188 8.2969h34.422v-8.2969h-46.281v8.2969q5.6094 5.8125 15.297 15.594 9.7031 9.7969 12.188 12.641 4.7344 5.3125 6.6094 9 1.8906 3.6875 1.8906 7.25 0 5.8125-4.0781 9.4688-4.0781 3.6719-10.625 3.6719-4.6406 0-9.7969-1.6094-5.1406-1.6094-11-4.8906v9.9688q5.9531 2.3906 11.125 3.6094 5.1875 1.2188 9.4844 1.2188 11.328 0 18.062-5.6719 6.7344-5.6562 6.7344-15.125 0-4.5-1.6875-8.5312-1.6719-4.0156-6.125-9.4844-1.2188-1.4219-7.7656-8.1875-6.5312-6.7656-18.453-18.922z"/>
</defs>
<g transform="translate(63.631 702.39) scale(.1 -.1)">
<use xlink:href="#c"/>
<use x="63.623047" xlink:href="#g"/>
<use x="95.410156" xlink:href="#n"/>
</g>
</g>
<g clip-path="url(#a)">
<g transform="translate(230.88 142.82) scale(.1 -.1)">
<use xlink:href="#c"/>
<use x="63.623047" xlink:href="#g"/>
<use x="95.410156" xlink:href="#m"/>
</g>
</g>
<g clip-path="url(#a)">
<defs>
<path id="ab" d="m10.797 72.906h38.719v-8.3125h-29.688v-17.859q2.1406 0.73438 4.2812 1.0938 2.1562 0.35938 4.3125 0.35938 12.203 0 19.328-6.6875 7.1406-6.6875 7.1406-18.109 0-11.766-7.3281-18.297-7.3281-6.5156-20.656-6.5156-4.5938 0-9.3594 0.78125-4.75 0.78125-9.8281 2.3438v9.9219q4.3906-2.3906 9.0781-3.5625t9.9062-1.1719q8.4531 0 13.375 4.4375 4.9375 4.4375 4.9375 12.062 0 7.6094-4.9375 12.047-4.9219 4.4531-13.375 4.4531-3.9531 0-7.8906-0.875-3.9219-0.875-8.0156-2.7344z"/>
</defs>
<g transform="translate(111.21 702.39) scale(.1 -.1)">
<use xlink:href="#c"/>
<use x="63.623047" xlink:href="#g"/>
<use x="95.410156" xlink:href="#ab"/>
</g>
</g>
<g clip-path="url(#a)">
<defs>
<path id="ah" d="m33.016 40.375q-6.6406 0-10.531-4.5469-3.875-4.5312-3.875-12.438 0-7.8594 3.875-12.438 3.8906-4.5625 10.531-4.5625t10.516 4.5625q3.875 4.5781 3.875 12.438 0 7.9062-3.875 12.438-3.875 4.5469-10.516 4.5469zm19.578 30.922v-8.9844q-3.7188 1.75-7.5 2.6719-3.7812 0.9375-7.5 0.9375-9.7656 0-14.922-6.5938-5.1406-6.5938-5.875-19.922 2.875 4.25 7.2188 6.5156 4.3594 2.2656 9.5781 2.2656 10.984 0 17.359-6.6719 6.375-6.6562 6.375-18.125 0-11.234-6.6406-18.031-6.6406-6.7812-17.672-6.7812-12.656 0-19.344 9.6875-6.6875 9.7031-6.6875 28.109 0 17.281 8.2031 27.562t22.016 10.281q3.7188 0 7.5-0.73438t7.8906-2.1875z"/>
</defs>
<g transform="translate(158.8 702.39) scale(.1 -.1)">
<use xlink:href="#c"/>
<use x="63.623047" xlink:href="#g"/>
<use x="95.410156" xlink:href="#ah"/>
</g>
</g>
<g clip-path="url(#a)">
<defs>
<path id="aa" d="m8.2031 72.906h46.875v-4.2031l-26.469-68.703h-10.297l24.906 64.594h-35.016z"/>
</defs>
<g transform="translate(422.62 241.72) scale(.1 -.1)">
<use xlink:href="#c"/>
<use x="63.623047" xlink:href="#g"/>
<use x="95.410156" xlink:href="#aa"/>
</g>
</g>
<g clip-path="url(#a)">
<defs>
<path id="z" d="m31.781 34.625q-7.0312 0-11.062-3.7656-4.0156-3.7656-4.0156-10.344 0-6.5938 4.0156-10.359 4.0312-3.7656 11.062-3.7656t11.078 3.7812q4.0625 3.7969 4.0625 10.344 0 6.5781-4.0312 10.344-4.0156 3.7656-11.109 3.7656zm-9.8594 4.1875q-6.3438 1.5625-9.8906 5.9062-3.5312 4.3594-3.5312 10.609 0 8.7344 6.2188 13.812 6.2344 5.0781 17.062 5.0781 10.891 0 17.094-5.0781t6.2031-13.812q0-6.25-3.5469-10.609-3.5312-4.3438-9.8281-5.9062 7.125-1.6562 11.094-6.5 3.9844-4.8281 3.9844-11.797 0-10.609-6.4688-16.281-6.4688-5.6562-18.531-5.6562-12.047 0-18.531 5.6562-6.4688 5.6719-6.4688 16.281 0 6.9688 4 11.797 4.0156 4.8438 11.141 6.5zm-3.6094 15.578q0-5.6562 3.5312-8.8281 3.5469-3.1719 9.9375-3.1719 6.3594 0 9.9375 3.1719 3.5938 3.1719 3.5938 8.8281 0 5.6719-3.5938 8.8438-3.5781 3.1719-9.9375 3.1719-6.3906 0-9.9375-3.1719-3.5312-3.1719-3.5312-8.8438z"/>
</defs>
<g transform="translate(230.17 613.6) scale(.1 -.1)">
<use xlink:href="#c"/>
<use x="63.623047" xlink:href="#g"/>
<use x="95.410156" xlink:href="#z"/>
</g>
</g>
<g clip-path="url(#a)">
<g transform="translate(325.34 613.6) scale(.1 -.1)">
<use xlink:href="#c"/>
<use x="63.623047" xlink:href="#g"/>
<use x="95.410156" xlink:href="#u"/>
</g>
</g>
<g clip-path="url(#a)">
<defs>
<path id="ac" d="m31.781 66.406q-7.6094 0-11.453-7.5-3.8281-7.4844-3.8281-22.531 0-14.984 3.8281-22.484 3.8438-7.5 11.453-7.5 7.6719 0 11.5 7.5 3.8438 7.5 3.8438 22.484 0 15.047-3.8438 22.531-3.8281 7.5-11.5 7.5zm0 7.8125q12.266 0 18.734-9.7031 6.4688-9.6875 6.4688-28.141 0-18.406-6.4688-28.109-6.4688-9.6875-18.734-9.6875-12.25 0-18.719 9.6875-6.4688 9.7031-6.4688 28.109 0 18.453 6.4688 28.141 6.4688 9.7031 18.719 9.7031z"/>
</defs>
<g transform="translate(393.53 702.39) scale(.1 -.1)">
<use xlink:href="#c"/>
<use x="63.623047" xlink:href="#g"/>
<use x="95.410156" xlink:href="#c"/>
<use x="159.033203" xlink:href="#ac"/>
</g>
</g>
<g clip-path="url(#a)">
<g transform="translate(713.4 337.96) scale(.1 -.1)">
<use xlink:href="#c"/>
<use x="63.623047" xlink:href="#g"/>
<use x="95.410156" xlink:href="#c"/>
<use x="159.033203" xlink:href="#n"/>
</g>
</g>
<g clip-path="url(#a)">
<g transform="translate(509.52 523.57) scale(.1 -.1)">
<use xlink:href="#c"/>
<use x="63.623047" xlink:href="#g"/>
<use x="95.410156" xlink:href="#c"/>
<use x="159.033203" xlink:href="#m"/>
</g>
</g>
<g clip-path="url(#a)">
<defs>
<path id="x" d="m37.797 64.312-24.906-38.922h24.906zm-2.5938 8.5938h12.406v-47.516h10.406v-8.2031h-10.406v-17.188h-9.8125v17.188h-32.906v9.5156z"/>
</defs>
<g transform="translate(726.62 702.39) scale(.1 -.1)">
<use xlink:href="#c"/>
<use x="63.623047" xlink:href="#g"/>
<use x="95.410156" xlink:href="#c"/>
<use x="159.033203" xlink:href="#x"/>
</g>
</g>
<g clip-path="url(#a)">
<g transform="translate(904.06 431.81) scale(.1 -.1)">
<use xlink:href="#c"/>
<use x="63.623047" xlink:href="#g"/>
<use x="95.410156" xlink:href="#c"/>
<use x="159.033203" xlink:href="#ab"/>
</g>
</g>
<g clip-path="url(#a)">
<g transform="translate(1150.9 523.57) scale(.1 -.1)">
<use xlink:href="#c"/>
<use x="63.623047" xlink:href="#g"/>
<use x="95.410156" xlink:href="#c"/>
<use x="159.033203" xlink:href="#aa"/>
</g>
</g>
<g clip-path="url(#a)">
<g transform="translate(940.74 702.39) scale(.1 -.1)">
<use xlink:href="#c"/>
<use x="63.623047" xlink:href="#g"/>
<use x="95.410156" xlink:href="#c"/>
<use x="159.033203" xlink:href="#z"/>
</g>
</g>
<g clip-path="url(#a)">
<g transform="translate(1012.1 702.39) scale(.1 -.1)">
<use xlink:href="#c"/>
<use x="63.623047" xlink:href="#g"/>
<use x="95.410156" xlink:href="#c"/>
<use x="159.033203" xlink:href="#u"/>
</g>
</g>
<g clip-path="url(#a)">
<g transform="translate(1123.1 613.6) scale(.1 -.1)">
<use xlink:href="#c"/>
<use x="63.623047" xlink:href="#g"/>
<use x="95.410156" xlink:href="#n"/>
<use x="159.033203" xlink:href="#ac"/>
</g>
</g>
<g clip-path="url(#a)">
<g transform="translate(1154.9 702.39) scale(.1 -.1)">
<use xlink:href="#c"/>
<use x="63.623047" xlink:href="#g"/>
<use x="95.410156" xlink:href="#n"/>
<use x="159.033203" xlink:href="#c"/>
</g>
</g>
<g clip-path="url(#a)">
<g transform="translate(1369 702.39) scale(.1 -.1)">
<use xlink:href="#c"/>
<use x="63.623047" xlink:href="#g"/>
<use x="95.410156" xlink:href="#n"/>
<use x="159.033203" xlink:href="#m"/>
</g>
</g>
<g clip-path="url(#a)">
<g transform="translate(1059.7 702.39) scale(.1 -.1)">
<use xlink:href="#c"/>
<use x="63.623047" xlink:href="#g"/>
<use x="95.410156" xlink:href="#n"/>
<use x="159.033203" xlink:href="#x"/>
</g>
</g>
<g clip-path="url(#a)">
<g transform="translate(1107.3 702.39) scale(.1 -.1)">
<use xlink:href="#c"/>
<use x="63.623047" xlink:href="#g"/>
<use x="95.410156" xlink:href="#n"/>
<use x="159.033203" xlink:href="#ab"/>
</g>
</g>
<g clip-path="url(#a)">
<g transform="translate(1202.5 702.39) scale(.1 -.1)">
<use xlink:href="#c"/>
<use x="63.623047" xlink:href="#g"/>
<use x="95.410156" xlink:href="#n"/>
<use x="159.033203" xlink:href="#ah"/>
</g>
</g>
<g clip-path="url(#a)">
<g transform="translate(774.2 702.39) scale(.1 -.1)">
<use xlink:href="#c"/>
<use x="63.623047" xlink:href="#g"/>
<use x="95.410156" xlink:href="#n"/>
<use x="159.033203" xlink:href="#aa"/>
</g>
</g>
<g clip-path="url(#a)">
<g transform="translate(821.78 702.39) scale(.1 -.1)">
<use xlink:href="#c"/>
<use x="63.623047" xlink:href="#g"/>
<use x="95.410156" xlink:href="#n"/>
<use x="159.033203" xlink:href="#z"/>
</g>
</g>
<g clip-path="url(#a)">
<g transform="translate(869.37 702.39) scale(.1 -.1)">
<use xlink:href="#c"/>
<use x="63.623047" xlink:href="#g"/>
<use x="95.410156" xlink:href="#n"/>
<use x="159.033203" xlink:href="#u"/>
</g>
</g>
<g clip-path="url(#a)">
<g transform="translate(488.7 702.39) scale(.1 -.1)">
<use xlink:href="#c"/>
<use x="63.623047" xlink:href="#g"/>
<use x="95.410156" xlink:href="#m"/>
<use x="159.033203" xlink:href="#ac"/>
</g>
</g>
<g clip-path="url(#a)">
<g transform="translate(536.28 702.39) scale(.1 -.1)">
<use xlink:href="#c"/>
<use x="63.623047" xlink:href="#g"/>
<use x="95.410156" xlink:href="#m"/>
<use x="159.033203" xlink:href="#c"/>
</g>
</g>
<g clip-path="url(#a)">
<g transform="translate(619.55 613.6) scale(.1 -.1)">
<use xlink:href="#c"/>
<use x="63.623047" xlink:href="#g"/>
<use x="95.410156" xlink:href="#m"/>
<use x="159.033203" xlink:href="#n"/>
</g>
</g>
<g clip-path="url(#a)">
<g transform="translate(583.87 702.39) scale(.1 -.1)">
<use xlink:href="#c"/>
<use x="63.623047" xlink:href="#g"/>
<use x="95.410156" xlink:href="#m"/>
<use x="159.033203" xlink:href="#m"/>
</g>
</g>
<g clip-path="url(#a)">
<g transform="translate(655.24 702.39) scale(.1 -.1)">
<use xlink:href="#c"/>
<use x="63.623047" xlink:href="#g"/>
<use x="95.410156" xlink:href="#m"/>
<use x="159.033203" xlink:href="#x"/>
</g>
</g>
<g clip-path="url(#a)">
<g transform="translate(298.37 702.39) scale(.1 -.1)">
<use xlink:href="#c"/>
<use x="63.623047" xlink:href="#g"/>
<use x="95.410156" xlink:href="#m"/>
<use x="159.033203" xlink:href="#ab"/>
</g>
</g>
<g clip-path="url(#a)">
<g transform="translate(345.95 702.39) scale(.1 -.1)">
<use xlink:href="#c"/>
<use x="63.623047" xlink:href="#g"/>
<use x="95.410156" xlink:href="#m"/>
<use x="159.033203" xlink:href="#ah"/>
</g>
</g>
<g clip-path="url(#a)">
<g transform="translate(203.2 702.39) scale(.1 -.1)">
<use xlink:href="#c"/>
<use x="63.623047" xlink:href="#g"/>
<use x="95.410156" xlink:href="#m"/>
<use x="159.033203" xlink:href="#aa"/>
</g>
</g>
<g clip-path="url(#a)">
<g transform="translate(250.78 702.39) scale(.1 -.1)">
<use xlink:href="#c"/>
<use x="63.623047" xlink:href="#g"/>
<use x="95.410156" xlink:href="#m"/>
<use x="159.033203" xlink:href="#z"/>
</g>
</g>
<g clip-path="url(#a)">
<g transform="translate(441.12 702.39) scale(.1 -.1)">
<use xlink:href="#c"/>
<use x="63.623047" xlink:href="#g"/>
<use x="95.410156" xlink:href="#m"/>
<use x="159.033203" xlink:href="#u"/>
</g>
</g>
<g clip-path="url(#a)">
<g transform="translate(1250 702.39) scale(.1 -.1)">
<use xlink:href="#c"/>
<use x="63.623047" xlink:href="#g"/>
<use x="95.410156" xlink:href="#x"/>
<use x="159.033203" xlink:href="#ac"/>
</g>
</g>
<g clip-path="url(#a)">
<g transform="translate(1488 702.39) scale(.1 -.1)">
<use xlink:href="#c"/>
<use x="63.623047" xlink:href="#g"/>
<use x="95.410156" xlink:href="#x"/>
<use x="159.033203" xlink:href="#c"/>
</g>
</g>
<defs>
<clipPath id="a">
<rect width="1570.7" height="826.67"/>
</clipPath>
</defs>
</svg>
