<?xml version="1.0" encoding="UTF-8"?>
<!DOCTYPE svg  PUBLIC '-//W3C//DTD SVG 1.1//EN'  'http://www.w3.org/Graphics/SVG/1.1/DTD/svg11.dtd'>
<svg width="1976pt" height="1040pt" version="1.1" viewBox="0 0 1976 1040" xmlns="http://www.w3.org/2000/svg" xmlns:xlink="http://www.w3.org/1999/xlink">
<defs>
<style type="text/css">*{stroke-linecap:butt;stroke-linejoin:round;}</style>
</defs>
<path d="m0 1040h1976v-1040h-1976z" fill="#fff"/>
<g fill="none" stroke="#000">
<path d="m716.52 48.187 85.372 326.46" clip-path="url(#a)"/>
<path d="m716.52 48.187-484.76 791.14" clip-path="url(#a)"/>
<path d="m716.52 48.187-298.65 326.46" clip-path="url(#a)"/>
<path d="m716.52 48.187 507.8 791.14" clip-path="url(#a)"/>
<path d="m716.52 48.187 545.32 165.28" clip-path="url(#a)"/>
<path d="m716.52 48.187-532.03 791.14" clip-path="url(#a)"/>
<path d="m716.52 48.187 176.95 791.14" clip-path="url(#a)"/>
<path d="m801.89 374.64-688.29 312.19" clip-path="url(#a)"/>
<path d="m801.89 374.64 138.84 464.68" clip-path="url(#a)"/>
<path d="m801.89 374.64 209.74 464.68" clip-path="url(#a)"/>
<path d="m801.89 374.64 339.72 157.59" clip-path="url(#a)"/>
<path d="m231.76 839.33v152.49" clip-path="url(#a)"/>
<path d="m417.87 374.64-115.21 312.19" clip-path="url(#a)"/>
<path d="m417.87 374.64 115.21 157.59" clip-path="url(#a)"/>
<path d="m1224.3 839.33v152.49" clip-path="url(#a)"/>
<path d="m1261.8 213.47 9.7484 625.86" clip-path="url(#a)"/>
<path d="m1261.8 213.47 57.013 625.86" clip-path="url(#a)"/>
<path d="m1261.8 213.47 254.34 161.18" clip-path="url(#a)"/>
<path d="m1261.8 213.47-321.11 625.86" clip-path="url(#a)" stroke-dasharray="3.7,1.6"/>
<path d="m1271.6 839.33v152.49" clip-path="url(#a)"/>
<path d="m1318.9 839.33v152.49" clip-path="url(#a)"/>
<path d="m1516.2 374.64-150.07 464.68" clip-path="url(#a)"/>
<path d="m1516.2 374.64-102.8 464.68" clip-path="url(#a)"/>
<path d="m1516.2 374.64-8.2714 312.19" clip-path="url(#a)"/>
<path d="m1516.2 374.64 86.258 464.68" clip-path="url(#a)"/>
<path d="m1516.2 374.64 174.88 157.59" clip-path="url(#a)"/>
<path d="m1366.1 839.33v152.49" clip-path="url(#a)"/>
<path d="m1413.4 839.33v152.49" clip-path="url(#a)"/>
<path d="m1507.9 686.84-47.265 152.49" clip-path="url(#a)"/>
<path d="m1507.9 686.84 47.265 152.49" clip-path="url(#a)"/>
<path d="m1507.9 686.84v152.49" clip-path="url(#a)"/>
<path d="m1602.4 839.33v152.49" clip-path="url(#a)"/>
<path d="m1691.1 532.23-88.622 307.1" clip-path="url(#a)" stroke-dasharray="3.7,1.6"/>
<path d="m1691.1 532.23-41.357 307.1" clip-path="url(#a)"/>
<path d="m1691.1 532.23 5.9081 307.1" clip-path="url(#a)"/>
<path d="m1691.1 532.23 124.07 154.61" clip-path="url(#a)"/>
<path d="m1649.7 839.33v152.49" clip-path="url(#a)"/>
<path d="m1697 839.33v152.49" clip-path="url(#a)"/>
<path d="m1815.1 686.84-70.897 152.49" clip-path="url(#a)"/>
<path d="m1815.1 686.84-23.632 152.49" clip-path="url(#a)"/>
<path d="m1815.1 686.84 23.632 152.49" clip-path="url(#a)"/>
<path d="m1815.1 686.84 70.897 152.49" clip-path="url(#a)"/>
<path d="m1744.2 839.33v152.49" clip-path="url(#a)"/>
<path d="m1791.5 839.33v152.49" clip-path="url(#a)"/>
<path d="m1838.8 839.33v152.49" clip-path="url(#a)"/>
<path d="m1460.6 839.33v152.49" clip-path="url(#a)"/>
<path d="m1555.2 839.33v152.49" clip-path="url(#a)"/>
<path d="m302.66 686.84-23.632 152.49" clip-path="url(#a)"/>
<path d="m302.66 686.84 23.632 152.49" clip-path="url(#a)"/>
<path d="m533.08 532.23-159.52 307.1" clip-path="url(#a)"/>
<path d="m533.08 532.23-64.989 154.61" clip-path="url(#a)"/>
<path d="m533.08 532.23 194.97 307.1" clip-path="url(#a)"/>
<path d="m533.08 532.23 29.541 307.1" clip-path="url(#a)"/>
<path d="m373.56 839.33v152.49" clip-path="url(#a)"/>
<path d="m468.09 686.84-47.265 152.49" clip-path="url(#a)"/>
<path d="m468.09 686.84v152.49" clip-path="url(#a)"/>
<path d="m468.09 686.84 47.265 152.49" clip-path="url(#a)"/>
<path d="m728.04 839.33-118.16 152.49" clip-path="url(#a)"/>
<path d="m728.04 839.33-70.897 152.49" clip-path="url(#a)"/>
<path d="m728.04 839.33-23.632 152.49" clip-path="url(#a)"/>
<path d="m728.04 839.33 23.632 152.49" clip-path="url(#a)"/>
<path d="m728.04 839.33 70.897 152.49" clip-path="url(#a)"/>
<path d="m728.04 839.33 118.16 152.49" clip-path="url(#a)"/>
<path d="m420.82 839.33v152.49" clip-path="url(#a)"/>
<path d="m468.09 839.33v152.49" clip-path="url(#a)"/>
<path d="m515.35 839.33v152.49" clip-path="url(#a)"/>
<path d="m279.03 839.33v152.49" clip-path="url(#a)"/>
<path d="m326.29 839.33v152.49" clip-path="url(#a)"/>
<path d="m113.6 686.84-23.632 152.49" clip-path="url(#a)"/>
<path d="m113.6 686.84 23.632 152.49" clip-path="url(#a)"/>
<path d="m940.74 839.33v152.49" clip-path="url(#a)"/>
<path d="m1011.6 839.33-23.632 152.49" clip-path="url(#a)"/>
<path d="m1011.6 839.33 23.632 152.49" clip-path="url(#a)"/>
<path d="m1141.6 532.23-35.449 154.61" clip-path="url(#a)"/>
<path d="m1141.6 532.23 35.449 307.1" clip-path="url(#a)"/>
<path d="m1106.2 686.84-23.632 152.49" clip-path="url(#a)"/>
<path d="m1106.2 686.84 23.632 152.49" clip-path="url(#a)"/>
<path d="m1177.1 839.33v152.49" clip-path="url(#a)"/>
<path d="m1082.5 839.33v152.49" clip-path="url(#a)"/>
<path d="m1129.8 839.33v152.49" clip-path="url(#a)"/>
<path d="m89.967 839.33v152.49" clip-path="url(#a)"/>
<path d="m137.23 839.33v152.49" clip-path="url(#a)"/>
<path d="m1096 48.187-294.13 326.46" clip-path="url(#a)"/>
<path d="m1096 48.187 128.3 791.14" clip-path="url(#a)"/>
<path d="m1096 48.187 165.82 165.28" clip-path="url(#a)"/>
<path d="m483.84 213.47 318.05 161.18" clip-path="url(#a)"/>
<path d="m483.84 213.47-252.08 625.86" clip-path="url(#a)"/>
<path d="m483.84 213.47-65.974 161.18" clip-path="url(#a)"/>
<path d="m184.5 839.33v152.49" clip-path="url(#a)"/>
<path d="m562.62 839.33v152.49" clip-path="url(#a)"/>
<path d="m893.47 839.33v152.49" clip-path="url(#a)"/>
<path d="m1507.9 839.33v152.49" clip-path="url(#a)"/>
<path d="m1886 839.33v152.49" clip-path="url(#a)"/>
</g>
<path d="m752.38 210.09 1.5221 5.8205q0.60721 2.3219 2.9291 1.7147l7.4906-1.9589q2.3219-0.60721 1.7147-2.9291l-1.5221-5.8205q-0.60721-2.3219-2.9291-1.7147l-7.4906 1.9589q-2.3219 0.60721-1.7147 2.9291z" clip-path="url(#a)" fill="#fff" stroke="#fff"/>
<g clip-path="url(#a)">
<defs>
<path id="ak" d="m9.8125 72.906h9.8594v-29.891h35.844v29.891h9.8594v-72.906h-9.8594v34.719h-35.844v-34.719h-9.8594z"/>
</defs>
<g transform="translate(756.31 209.06) rotate(75.345) scale(.08 -.08)">
<use xlink:href="#ak"/>
</g>
</g>
<path d="m478.32 448.93 2.3289-3.8008q1.2539-2.0464-0.79249-3.3003l-6.6018-4.0451q-2.0464-1.2539-3.3003 0.79249l-2.3289 3.8008q-1.2539 2.0464 0.79249 3.3003l6.6018 4.0451q2.0464 1.2539 3.3003-0.79249z" clip-path="url(#a)" fill="#fff" stroke="#fff"/>
<g clip-path="url(#a)">
<defs>
<path id="v" d="m9.8125 72.906h9.8594v-64.609h35.5v-8.2969h-45.359z"/>
</defs>
<g transform="translate(474.86 446.81) rotate(-58.503) scale(.08 -.08)">
<use xlink:href="#v"/>
</g>
</g>
<path d="m569.79 217.87 4.0609-4.4389q1.62-1.7708-0.1508-3.3908l-5.7126-5.2261q-1.7708-1.62-3.3908 0.1508l-4.0609 4.4389q-1.62 1.7708 0.1508 3.3908l5.7126 5.2261q1.7708 1.62 3.3908-0.1508z" clip-path="url(#a)" fill="#fff" stroke="#fff"/>
<g clip-path="url(#a)">
<g transform="translate(566.79 215.12) rotate(-47.546) scale(.08 -.08)">
<use xlink:href="#ak"/>
</g>
</g>
<path d="m963.94 445.27 2.4078 3.7512q1.2964 2.0197 3.3161 0.72334l6.5158-4.1822q2.0197-1.2964 0.72334-3.3161l-2.4078-3.7512q-1.2964-2.0197-3.3161-0.72334l-6.5158 4.1822q-2.0197 1.2964-0.72335 3.3161z" clip-path="url(#a)" fill="#fff" stroke="#fff"/>
<g clip-path="url(#a)">
<g transform="translate(967.36 443.07) rotate(57.305) scale(.08 -.08)">
<use xlink:href="#v"/>
</g>
</g>
<path d="m984.48 135.96 5.7576 1.7451q2.2968 0.69614 2.993-1.6007l2.2458-7.4096q0.69614-2.2968-1.6007-2.993l-5.7576-1.7451q-2.2968-0.69614-2.993 1.6007l-2.2458 7.4096q-0.69614 2.2968 1.6007 2.993z" clip-path="url(#a)" fill="#fff" stroke="#fff"/>
<g clip-path="url(#a)">
<g transform="translate(985.66 132.07) rotate(16.861) scale(.08 -.08)">
<use xlink:href="#ak"/>
</g>
</g>
<path d="m454.08 449.69 3.2673-4.8586q1.3393-1.9916-0.65228-3.3308l-6.4249-4.3206q-1.9916-1.3393-3.3308 0.65228l-3.2673 4.8586q-1.3393 1.9916 0.65228 3.3308l6.4249 4.3206q1.9916 1.3393 3.3308-0.65228z" clip-path="url(#a)" fill="#fff" stroke="#fff"/>
<g clip-path="url(#a)">
<defs>
<path id="ad" d="m8.6875 72.906h9.9219v-44.297q0-11.719 4.2344-16.875 4.25-5.1406 13.781-5.1406 9.4688 0 13.719 5.1406 4.25 5.1562 4.25 16.875v44.297h9.9062v-45.516q0-14.25-7.0625-21.531-7.0469-7.2812-20.812-7.2812-13.828 0-20.891 7.2812-7.0469 7.2812-7.0469 21.531z"/>
</defs>
<g transform="translate(450.71 447.42) rotate(-56.08) scale(.08 -.08)">
<use xlink:href="#ad"/>
</g>
</g>
<path d="m798.24 442.27 1.278 5.7138q0.52385 2.3421 2.866 1.8183l7.5558-1.69q2.3421-0.52385 1.8183-2.866l-1.278-5.7138q-0.52385-2.3421-2.866-1.8183l-7.5558 1.69q-2.3421 0.52385-1.8183 2.866z" clip-path="url(#a)" fill="#fff" stroke="#fff"/>
<g clip-path="url(#a)">
<g transform="translate(802.2 441.38) rotate(77.393) scale(.08 -.08)">
<use xlink:href="#ad"/>
</g>
</g>
<path d="m457.53 537.72 5.6099-2.5445q2.1857-0.99137 1.1943-3.177l-3.1982-7.0511q-0.99137-2.1857-3.177-1.1943l-5.6099 2.5445q-2.1857 0.99137-1.1943 3.177l3.1982 7.0511q0.99137 2.1857 3.177 1.1943z" clip-path="url(#a)" fill="#fff" stroke="#fff"/>
<g clip-path="url(#a)">
<defs>
<path id="au" d="m19.672 64.797v-56.688h11.922q15.094 0 22.094 6.8281 7 6.8438 7 21.594 0 14.641-7 21.453t-22.094 6.8125zm-9.8594 8.1094h20.266q21.188 0 31.094-8.8125 9.9219-8.8125 9.9219-27.562 0-18.859-9.9688-27.703-9.9531-8.8281-31.047-8.8281h-20.266z"/>
</defs>
<g transform="translate(455.85 534.02) rotate(-24.398) scale(.08 -.08)">
<use xlink:href="#au"/>
</g>
</g>
<path d="m864.52 606.16 1.5667 5.2435q0.68707 2.2996 2.9866 1.6125l7.4184-2.2165q2.2996-0.68707 1.6125-2.9866l-1.5667-5.2435q-0.68707-2.2996-2.9866-1.6125l-7.4184 2.2165q-2.2996 0.68707-1.6125 2.9866z" clip-path="url(#a)" fill="#fff" stroke="#fff"/>
<g clip-path="url(#a)">
<defs>
<path id="p" d="m34.188 63.188-13.391-36.281h26.812zm-5.5781 9.7188h11.188l27.781-72.906h-10.25l-6.6406 18.703h-32.859l-6.6406-18.703h-10.406z"/>
</defs>
<g transform="translate(868.42 604.99) rotate(73.365) scale(.08 -.08)">
<use xlink:href="#p"/>
</g>
</g>
<path d="m900.06 607.37 1.9845 4.3966q0.98734 2.1875 3.1748 1.2002l7.057-3.1852q2.1875-0.98734 1.2002-3.1748l-1.9845-4.3966q-0.98734-2.1875-3.1748-1.2002l-7.057 3.1852q-2.1875 0.98734-1.2002 3.1748z" clip-path="url(#a)" fill="#fff" stroke="#fff"/>
<g clip-path="url(#a)">
<defs>
<path id="ag" d="m19.672 64.797v-27.391h12.406q6.8906 0 10.641 3.5625 3.7656 3.5625 3.7656 10.156 0 6.5469-3.7656 10.109-3.75 3.5625-10.641 3.5625zm-9.8594 8.1094h22.266q12.266 0 18.531-5.5469 6.2812-5.5469 6.2812-16.234 0-10.797-6.2812-16.312-6.2656-5.5156-18.531-5.5156h-12.406v-29.297h-9.8594z"/>
</defs>
<g transform="translate(903.76 605.69) rotate(65.708) scale(.08 -.08)">
<use xlink:href="#ag"/>
</g>
</g>
<path d="m966.63 457.97 4.9644 2.3029q2.1772 1.0099 3.1871-1.1672l3.2581-7.0236q1.0099-2.1772-1.1672-3.1871l-4.9644-2.3029q-2.1772-1.0099-3.1871 1.1672l-3.2581 7.0236q-1.0099 2.1772 1.1672 3.1871z" clip-path="url(#a)" fill="#fff" stroke="#fff"/>
<g clip-path="url(#a)">
<g transform="translate(968.34 454.29) rotate(24.885) scale(.08 -.08)">
<use xlink:href="#p"/>
</g>
</g>
<path d="m225.49 897.93v35.285q0 2.4 2.4 2.4h7.7425q2.4 0 2.4-2.4v-35.285q0-2.4-2.4-2.4h-7.7425q-2.4 0-2.4 2.4z" clip-path="url(#a)" fill="#fff" stroke="#fff"/>
<g clip-path="url(#a)">
<defs>
<path id="l" d="m-0.29688 72.906h61.672v-8.3125h-25.875v-64.594h-9.9062v64.594h-25.891z"/>
<path id="d" d="m56.203 29.594v-4.3906h-41.312q0.59375-9.2812 5.5938-14.141t13.938-4.8594q5.1719 0 10.031 1.2656t9.6562 3.8125v-8.5q-4.8438-2.0469-9.9219-3.125t-10.297-1.0781q-13.094 0-20.734 7.6094-7.6406 7.625-7.6406 20.625 0 13.422 7.25 21.297 7.25 7.8906 19.562 7.8906 11.031 0 17.453-7.1094 6.4219-7.0938 6.4219-19.297zm-8.9844 2.6406q-0.09375 7.3594-4.125 11.75-4.0312 4.4062-10.672 4.4062-7.5156 0-12.031-4.25t-5.2031-11.969z"/>
<path id="h" d="m41.109 46.297q-1.5156 0.875-3.2969 1.2812-1.7812 0.42188-3.9219 0.42188-7.625 0-11.703-4.9531t-4.0781-14.234v-28.812h-9.0312v54.688h9.0312v-8.5q2.8438 4.9844 7.375 7.3906 4.5469 2.4219 11.047 2.4219 0.92188 0 2.0469-0.125 1.125-0.10938 2.4844-0.35938z"/>
<path id="k" d="m52 44.188q3.375 6.0625 8.0625 8.9375t11.031 2.875q8.5469 0 13.188-5.9844 4.6406-5.9688 4.6406-17v-33.016h-9.0312v32.719q0 7.8594-2.7969 11.656-2.7812 3.8125-8.4844 3.8125-6.9844 0-11.047-4.6406-4.0469-4.625-4.0469-12.641v-30.906h-9.0312v32.719q0 7.9062-2.7812 11.688t-8.5938 3.7812q-6.8906 0-10.953-4.6562-4.0469-4.6562-4.0469-12.625v-30.906h-9.0312v54.688h9.0312v-8.5q3.0781 5.0312 7.375 7.4219t10.203 2.3906q5.9688 0 10.141-3.0312 4.1719-3.0156 6.1719-8.7812z"/>
<path id="j" d="m9.4219 54.688h8.9844v-54.688h-8.9844zm0 21.297h8.9844v-11.391h-8.9844z"/>
<path id="g" d="m54.891 33.016v-33.016h-8.9844v32.719q0 7.7656-3.0312 11.609-3.0312 3.8594-9.0781 3.8594-7.2812 0-11.484-4.6406-4.2031-4.625-4.2031-12.641v-30.906h-9.0312v54.688h9.0312v-8.5q3.2344 4.9375 7.5938 7.375 4.375 2.4375 10.094 2.4375 9.4219 0 14.25-5.8281 4.8438-5.8281 4.8438-17.156z"/>
<path id="e" d="m34.281 27.484q-10.891 0-15.094-2.4844t-4.2031-8.5q0-4.7812 3.1562-7.5938 3.1562-2.7969 8.5625-2.7969 7.4844 0 12 5.2969t4.5156 14.078v2zm17.922 3.7188v-31.203h-8.9844v8.2969q-3.0781-4.9688-7.6719-7.3438t-11.234-2.375q-8.3906 0-13.359 4.7188-4.9531 4.7188-4.9531 12.625 0 9.2188 6.1719 13.906 6.1875 4.6875 18.438 4.6875h12.609v0.89062q0 6.2031-4.0781 9.5938t-11.453 3.3906q-4.6875 0-9.1406-1.125-4.4375-1.125-8.5312-3.375v8.3125q4.9219 1.9062 9.5625 2.8438 4.6406 0.95312 9.0312 0.95312 11.875 0 17.734-6.1562 5.8594-6.1406 5.8594-18.641z"/>
<path id="i" d="m9.4219 75.984h8.9844v-75.984h-8.9844z"/>
</defs>
<g transform="translate(229.55 897.93) rotate(90) scale(.08 -.08)">
<use xlink:href="#l"/>
<use x="60.818359" xlink:href="#d"/>
<use x="122.341797" xlink:href="#h"/>
<use x="163.439453" xlink:href="#k"/>
<use x="260.851562" xlink:href="#j"/>
<use x="288.634766" xlink:href="#g"/>
<use x="352.013672" xlink:href="#e"/>
<use x="413.292969" xlink:href="#i"/>
</g>
</g>
<path d="m365.31 535.17 1.67-4.5254q0.83089-2.2516-1.4207-3.0825l-7.2637-2.6805q-2.2516-0.83089-3.0825 1.4207l-1.67 4.5254q-0.83089 2.2516 1.4207 3.0825l7.2637 2.6805q2.2516 0.83089 3.0825-1.4207z" clip-path="url(#a)" fill="#fff" stroke="#fff"/>
<g clip-path="url(#a)">
<g transform="translate(361.5 533.77) rotate(-69.745) scale(.08 -.08)">
<use xlink:href="#ag"/>
</g>
</g>
<path d="m468.79 454.93 3.2298 4.4178q1.4164 1.9375 3.3539 0.52102l6.2503-4.5695q1.9374-1.4164 0.52102-3.3539l-3.2298-4.4178q-1.4164-1.9375-3.3539-0.52102l-6.2503 4.5695q-1.9375 1.4164-0.52102 3.3539z" clip-path="url(#a)" fill="#fff" stroke="#fff"/>
<g clip-path="url(#a)">
<g transform="translate(472.07 452.53) rotate(53.83) scale(.08 -.08)">
<use xlink:href="#p"/>
</g>
</g>
<path d="m1218.1 897.93v35.285q0 2.4 2.4 2.4h7.7425q2.4 0 2.4-2.4v-35.285q0-2.4-2.4-2.4h-7.7425q-2.4 0-2.4 2.4z" clip-path="url(#a)" fill="#fff" stroke="#fff"/>
<g clip-path="url(#a)">
<g transform="translate(1222.1 897.93) rotate(90) scale(.08 -.08)">
<use xlink:href="#l"/>
<use x="60.818359" xlink:href="#d"/>
<use x="122.341797" xlink:href="#h"/>
<use x="163.439453" xlink:href="#k"/>
<use x="260.851562" xlink:href="#j"/>
<use x="288.634766" xlink:href="#g"/>
<use x="352.013672" xlink:href="#e"/>
<use x="413.292969" xlink:href="#i"/>
</g>
</g>
<path d="m1260.4 524.08 0.075125 4.8232q0.037378 2.3997 2.4371 2.3623l7.7416-0.12058q2.3997-0.037378 2.3623-2.4371l-0.075125-4.8232q-0.037378-2.3997-2.4371-2.3623l-7.7416 0.12058q-2.3997 0.037378-2.3623 2.4371z" clip-path="url(#a)" fill="#fff" stroke="#fff"/>
<g clip-path="url(#a)">
<g transform="translate(1264.5 524.02) rotate(89.108) scale(.08 -.08)">
<use xlink:href="#ag"/>
</g>
</g>
<path d="m1283.9 524.24 0.49647 5.4499q0.21773 2.3901 2.6078 2.1724l7.7106-0.7024q2.3901-0.21773 2.1724-2.6078l-0.49647-5.4499q-0.21773-2.3901-2.6078-2.1724l-7.7106 0.7024q-2.3901 0.21773-2.1724 2.6078z" clip-path="url(#a)" fill="#fff" stroke="#fff"/>
<g clip-path="url(#a)">
<g transform="translate(1287.9 523.87) rotate(84.795) scale(.08 -.08)">
<use xlink:href="#p"/>
</g>
</g>
<path d="m1383.3 297.89 4.6225 2.9293q2.0272 1.2846 3.3119-0.74258l4.1443-6.5399q1.2846-2.0272-0.74258-3.3119l-4.6225-2.9293q-2.0272-1.2846-3.3119 0.74259l-4.1443 6.5399q-1.2846 2.0272 0.74259 3.3119z" clip-path="url(#a)" fill="#fff" stroke="#fff"/>
<g clip-path="url(#a)">
<g transform="translate(1385.5 294.45) rotate(32.362) scale(.08 -.08)">
<use xlink:href="#p"/>
</g>
</g>
<path d="m1105.6 531.69 2.4981-4.869q1.0956-2.1354-1.0398-3.2309l-6.8887-3.5344q-2.1354-1.0956-3.2309 1.0398l-2.4981 4.869q-1.0956 2.1354 1.0398 3.2309l6.8887 3.5344q2.1354 1.0956 3.2309-1.0398z" clip-path="url(#a)" fill="#fff" stroke="#fff"/>
<g clip-path="url(#a)">
<g transform="translate(1102 529.84) rotate(-62.839) scale(.08 -.08)">
<use xlink:href="#p"/>
</g>
</g>
<path d="m1265.3 897.93v35.285q0 2.4 2.4 2.4h7.7425q2.4 0 2.4-2.4v-35.285q0-2.4-2.4-2.4h-7.7425q-2.4 0-2.4 2.4z" clip-path="url(#a)" fill="#fff" stroke="#fff"/>
<g clip-path="url(#a)">
<g transform="translate(1269.4 897.93) rotate(90) scale(.08 -.08)">
<use xlink:href="#l"/>
<use x="60.818359" xlink:href="#d"/>
<use x="122.341797" xlink:href="#h"/>
<use x="163.439453" xlink:href="#k"/>
<use x="260.851562" xlink:href="#j"/>
<use x="288.634766" xlink:href="#g"/>
<use x="352.013672" xlink:href="#e"/>
<use x="413.292969" xlink:href="#i"/>
</g>
</g>
<path d="m1312.6 897.93v35.285q0 2.4 2.4 2.4h7.7425q2.4 0 2.4-2.4v-35.285q0-2.4-2.4-2.4h-7.7425q-2.4 0-2.4 2.4z" clip-path="url(#a)" fill="#fff" stroke="#fff"/>
<g clip-path="url(#a)">
<g transform="translate(1316.6 897.93) rotate(90) scale(.08 -.08)">
<use xlink:href="#l"/>
<use x="60.818359" xlink:href="#d"/>
<use x="122.341797" xlink:href="#h"/>
<use x="163.439453" xlink:href="#k"/>
<use x="260.851562" xlink:href="#j"/>
<use x="288.634766" xlink:href="#g"/>
<use x="352.013672" xlink:href="#e"/>
<use x="413.292969" xlink:href="#i"/>
</g>
</g>
<path d="m1446.3 611.56 1.7083-5.2898q0.73756-2.2839-1.5463-3.0214l-7.3678-2.3794q-2.2839-0.73756-3.0214 1.5463l-1.7083 5.2898q-0.73756 2.2839 1.5463 3.0214l7.3678 2.3794q2.2839 0.73756 3.0214-1.5463z" clip-path="url(#a)" fill="#fff" stroke="#fff"/>
<g clip-path="url(#a)">
<defs>
<path id="z" d="m44.391 34.188q3.1719-1.0781 6.1719-4.5938t6.0312-9.6719l10.016-19.922h-10.609l-9.3125 18.703q-3.625 7.3281-7.0156 9.7188t-9.25 2.3906h-10.75v-30.812h-9.8594v72.906h22.266q12.5 0 18.656-5.2344 6.1562-5.2188 6.1562-15.766 0-6.8906-3.2031-11.438-3.2031-4.5312-9.2969-6.2812zm-24.719 30.609v-25.875h12.406q7.125 0 10.766 3.2969t3.6406 9.6875-3.6406 9.6406-10.766 3.25z"/>
</defs>
<g transform="translate(1442.4 610.31) rotate(-72.102) scale(.08 -.08)">
<use xlink:href="#z"/>
</g>
</g>
<path d="m1470.4 610.81 1.0919-4.9357q0.51841-2.3433-1.8249-2.8618l-7.5597-1.6724q-2.3433-0.51841-2.8618 1.8249l-1.0919 4.9357q-0.51841 2.3433 1.8249 2.8618l7.5597 1.6724q2.3433 0.51841 2.8618-1.8249z" clip-path="url(#a)" fill="#fff" stroke="#fff"/>
<g clip-path="url(#a)">
<defs>
<path id="r" d="m9.8125 72.906h46.094v-8.3125h-36.234v-21.578h34.719v-8.2969h-34.719v-26.422h37.109v-8.2969h-46.969z"/>
</defs>
<g transform="translate(1466.4 609.93) rotate(-77.525) scale(.08 -.08)">
<use xlink:href="#r"/>
</g>
</g>
<path d="m1518.3 533.43 0.13388-5.0532q0.063564-2.3992-2.3356-2.4627l-7.7398-0.20506q-2.3992-0.063564-2.4627 2.3356l-0.13388 5.0532q-0.063564 2.3992 2.3356 2.4627l7.7398 0.20506q2.3992 0.063563 2.4627-2.3356z" clip-path="url(#a)" fill="#fff" stroke="#fff"/>
<g clip-path="url(#a)">
<g transform="translate(1514.2 533.33) rotate(-88.482) scale(.08 -.08)">
<use xlink:href="#r"/>
</g>
</g>
<path d="m1552.6 605.38 1.0196 5.4924q0.43803 2.3597 2.7977 1.9217l7.6125-1.4131q2.3597-0.43803 1.9217-2.7977l-1.0196-5.4924q-0.43803-2.3597-2.7977-1.9217l-7.6125 1.4131q-2.3597 0.43803-1.9217 2.7977z" clip-path="url(#a)" fill="#fff" stroke="#fff"/>
<g clip-path="url(#a)">
<defs>
<path id="t" d="m64.406 67.281v-10.391q-4.9844 4.6406-10.625 6.9219-5.6406 2.2969-11.984 2.2969-12.5 0-19.141-7.6406t-6.6406-22.094q0-14.406 6.6406-22.047t19.141-7.6406q6.3438 0 11.984 2.2969t10.625 6.9375v-10.312q-5.1719-3.5156-10.969-5.2812-5.7812-1.75-12.219-1.75-16.562 0-26.094 10.125-9.5156 10.141-9.5156 27.672 0 17.578 9.5156 27.703 9.5312 10.141 26.094 10.141 6.5312 0 12.312-1.7344 5.7969-1.7344 10.875-5.2031z"/>
</defs>
<g transform="translate(1556.6 604.64) rotate(79.484) scale(.08 -.08)">
<use xlink:href="#t"/>
</g>
</g>
<path d="m1597.5 456.4 3.7553 3.3839q1.7829 1.6066 3.3895-0.17632l5.183-5.7518q1.6066-1.7829-0.17631-3.3895l-3.7553-3.3839q-1.7829-1.6066-3.3895 0.17632l-5.183 5.7518q-1.6066 1.7829 0.17631 3.3895z" clip-path="url(#a)" fill="#fff" stroke="#fff"/>
<g clip-path="url(#a)">
<g transform="translate(1600.3 453.38) rotate(42.022) scale(.08 -.08)">
<use xlink:href="#r"/>
</g>
</g>
<path d="m1359.8 897.93v35.285q0 2.4 2.4 2.4h7.7425q2.4 0 2.4-2.4v-35.285q0-2.4-2.4-2.4h-7.7425q-2.4 0-2.4 2.4z" clip-path="url(#a)" fill="#fff" stroke="#fff"/>
<g clip-path="url(#a)">
<g transform="translate(1363.9 897.93) rotate(90) scale(.08 -.08)">
<use xlink:href="#l"/>
<use x="60.818359" xlink:href="#d"/>
<use x="122.341797" xlink:href="#h"/>
<use x="163.439453" xlink:href="#k"/>
<use x="260.851562" xlink:href="#j"/>
<use x="288.634766" xlink:href="#g"/>
<use x="352.013672" xlink:href="#e"/>
<use x="413.292969" xlink:href="#i"/>
</g>
</g>
<path d="m1407.1 897.93v35.285q0 2.4 2.4 2.4h7.7425q2.4 0 2.4-2.4v-35.285q0-2.4-2.4-2.4h-7.7425q-2.4 0-2.4 2.4z" clip-path="url(#a)" fill="#fff" stroke="#fff"/>
<g clip-path="url(#a)">
<g transform="translate(1411.2 897.93) rotate(90) scale(.08 -.08)">
<use xlink:href="#l"/>
<use x="60.818359" xlink:href="#d"/>
<use x="122.341797" xlink:href="#h"/>
<use x="163.439453" xlink:href="#k"/>
<use x="260.851562" xlink:href="#j"/>
<use x="288.634766" xlink:href="#g"/>
<use x="352.013672" xlink:href="#e"/>
<use x="413.292969" xlink:href="#i"/>
</g>
</g>
<path d="m1489.5 767.35 1.4966-4.8284q0.71055-2.2924-1.5819-3.003l-7.3954-2.2923q-2.2924-0.71055-3.003 1.5819l-1.4966 4.8284q-0.71055 2.2924 1.5819 3.003l7.3954 2.2923q2.2924 0.71055 3.003-1.5819z" clip-path="url(#a)" fill="#fff" stroke="#fff"/>
<g clip-path="url(#a)">
<g transform="translate(1485.6 766.15) rotate(-72.779) scale(.08 -.08)">
<use xlink:href="#r"/>
</g>
</g>
<path d="m1524.7 762.27 1.6539 5.3358q0.71055 2.2924 3.003 1.5819l7.3954-2.2923q2.2924-0.71055 1.5819-3.003l-1.6539-5.3358q-0.71055-2.2924-3.003-1.5819l-7.3954 2.2923q-2.2924 0.71055-1.5819 3.003z" clip-path="url(#a)" fill="#fff" stroke="#fff"/>
<g clip-path="url(#a)">
<g transform="translate(1528.6 761.07) rotate(72.779) scale(.08 -.08)">
<use xlink:href="#t"/>
</g>
</g>
<path d="m1501.6 760.15v5.855q0 2.4 2.4 2.4h7.7425q2.4 0 2.4-2.4v-5.855q0-2.4-2.4-2.4h-7.7425q-2.4 0-2.4 2.4z" clip-path="url(#a)" fill="#fff" stroke="#fff"/>
<g clip-path="url(#a)">
<g transform="translate(1505.7 760.15) rotate(90) scale(.08 -.08)">
<use xlink:href="#ad"/>
</g>
</g>
<path d="m1596.2 897.93v35.285q0 2.4 2.4 2.4h7.7425q2.4 0 2.4-2.4v-35.285q0-2.4-2.4-2.4h-7.7425q-2.4 0-2.4 2.4z" clip-path="url(#a)" fill="#fff" stroke="#fff"/>
<g clip-path="url(#a)">
<g transform="translate(1600.2 897.93) rotate(90) scale(.08 -.08)">
<use xlink:href="#l"/>
<use x="60.818359" xlink:href="#d"/>
<use x="122.341797" xlink:href="#h"/>
<use x="163.439453" xlink:href="#k"/>
<use x="260.851562" xlink:href="#j"/>
<use x="288.634766" xlink:href="#g"/>
<use x="352.013672" xlink:href="#e"/>
<use x="413.292969" xlink:href="#i"/>
</g>
</g>
<path d="m1652 690.14 1.5173-5.2579q0.66544-2.3059-1.6405-2.9713l-7.4389-2.1467q-2.3059-0.66544-2.9713 1.6405l-1.5173 5.2579q-0.66544 2.3059 1.6405 2.9713l7.4389 2.1467q2.3059 0.66544 2.9713-1.6405z" clip-path="url(#a)" fill="#fff" stroke="#fff"/>
<g clip-path="url(#a)">
<g transform="translate(1648.1 689.02) rotate(-73.903) scale(.08 -.08)">
<use xlink:href="#p"/>
</g>
</g>
<path d="m1676.3 688.89 0.61411-4.5601q0.32032-2.3785-2.0582-2.6988l-7.6732-1.0334q-2.3785-0.32032-2.6988 2.0582l-0.61411 4.5601q-0.32032 2.3785 2.0582 2.6988l7.6732 1.0334q2.3785 0.32032 2.6988-2.0582z" clip-path="url(#a)" fill="#fff" stroke="#fff"/>
<g clip-path="url(#a)">
<defs>
<path id="ao" d="m9.8125 72.906h41.891v-8.3125h-32.031v-21.484h28.906v-8.2969h-28.906v-34.812h-9.8594z"/>
</defs>
<g transform="translate(1672.3 688.35) rotate(-82.33) scale(.08 -.08)">
<use xlink:href="#ao"/>
</g>
</g>
<path d="m1687.7 683.49 0.092785 4.8229q0.046164 2.3996 2.4457 2.3534l7.7411-0.14893q2.3996-0.046164 2.3534-2.4457l-0.092785-4.8229q-0.046164-2.3996-2.4457-2.3534l-7.7411 0.14893q-2.3996 0.046164-2.3534 2.4457z" clip-path="url(#a)" fill="#fff" stroke="#fff"/>
<g clip-path="url(#a)">
<g transform="translate(1691.8 683.41) rotate(88.898) scale(.08 -.08)">
<use xlink:href="#ag"/>
</g>
</g>
<path d="m1746.5 611.32 3.4251 4.2681q1.5021 1.8718 3.3739 0.36972l6.0386-4.8458q1.8718-1.5021 0.36972-3.3739l-3.4251-4.2681q-1.5021-1.8718-3.3739-0.36972l-6.0386 4.8458q-1.8718 1.5021-0.36972 3.3739z" clip-path="url(#a)" fill="#fff" stroke="#fff"/>
<g clip-path="url(#a)">
<g transform="translate(1749.7 608.78) rotate(51.254) scale(.08 -.08)">
<use xlink:href="#p"/>
</g>
</g>
<path d="m1643.4 897.93v35.285q0 2.4 2.4 2.4h7.7425q2.4 0 2.4-2.4v-35.285q0-2.4-2.4-2.4h-7.7425q-2.4 0-2.4 2.4z" clip-path="url(#a)" fill="#fff" stroke="#fff"/>
<g clip-path="url(#a)">
<g transform="translate(1647.5 897.93) rotate(90) scale(.08 -.08)">
<use xlink:href="#l"/>
<use x="60.818359" xlink:href="#d"/>
<use x="122.341797" xlink:href="#h"/>
<use x="163.439453" xlink:href="#k"/>
<use x="260.851562" xlink:href="#j"/>
<use x="288.634766" xlink:href="#g"/>
<use x="352.013672" xlink:href="#e"/>
<use x="413.292969" xlink:href="#i"/>
</g>
</g>
<path d="m1690.7 897.93v35.285q0 2.4 2.4 2.4h7.7425q2.4 0 2.4-2.4v-35.285q0-2.4-2.4-2.4h-7.7425q-2.4 0-2.4 2.4z" clip-path="url(#a)" fill="#fff" stroke="#fff"/>
<g clip-path="url(#a)">
<g transform="translate(1694.8 897.93) rotate(90) scale(.08 -.08)">
<use xlink:href="#l"/>
<use x="60.818359" xlink:href="#d"/>
<use x="122.341797" xlink:href="#h"/>
<use x="163.439453" xlink:href="#k"/>
<use x="260.851562" xlink:href="#j"/>
<use x="288.634766" xlink:href="#g"/>
<use x="352.013672" xlink:href="#e"/>
<use x="413.292969" xlink:href="#i"/>
</g>
</g>
<path d="m1784.3 768.02 2.1312-4.5838q1.0118-2.1763-1.1644-3.1881l-7.0208-3.2642q-2.1763-1.0118-3.1881 1.1644l-2.1312 4.5838q-1.0118 2.1763 1.1644 3.1881l7.0208 3.2642q2.1763 1.0118 3.1881-1.1644z" clip-path="url(#a)" fill="#fff" stroke="#fff"/>
<g clip-path="url(#a)">
<g transform="translate(1780.6 766.3) rotate(-65.064) scale(.08 -.08)">
<use xlink:href="#r"/>
</g>
</g>
<path d="m1809.1 766.54 0.77418-4.9954q0.36756-2.3717-2.0041-2.7392l-7.6512-1.1858q-2.3717-0.36756-2.7392 2.0041l-0.77418 4.9954q-0.36756 2.3717 2.0041 2.7392l7.6512 1.1858q2.3717 0.36756 2.7392-2.0041z" clip-path="url(#a)" fill="#fff" stroke="#fff"/>
<g clip-path="url(#a)">
<g transform="translate(1805.1 765.92) rotate(-81.19) scale(.08 -.08)">
<use xlink:href="#r"/>
</g>
</g>
<path d="m1820.3 761.28 0.85554 5.5203q0.36756 2.3717 2.7392 2.0041l7.6512-1.1858q2.3717-0.36756 2.0041-2.7392l-0.85554-5.5203q-0.36756-2.3717-2.7392-2.0041l-7.6512 1.1858q-2.3717 0.36756-2.0041 2.7392z" clip-path="url(#a)" fill="#fff" stroke="#fff"/>
<g clip-path="url(#a)">
<g transform="translate(1824.3 760.66) rotate(81.19) scale(.08 -.08)">
<use xlink:href="#t"/>
</g>
</g>
<path d="m1843.7 763.07 2.4685 5.3092q1.0118 2.1763 3.1881 1.1644l7.0208-3.2642q2.1763-1.0118 1.1644-3.1881l-2.4685-5.3092q-1.0118-2.1763-3.1881-1.1644l-7.0208 3.2642q-2.1763 1.0118-1.1644 3.1881z" clip-path="url(#a)" fill="#fff" stroke="#fff"/>
<g clip-path="url(#a)">
<g transform="translate(1847.3 761.36) rotate(65.064) scale(.08 -.08)">
<use xlink:href="#ad"/>
</g>
</g>
<path d="m1738 897.93v35.285q0 2.4 2.4 2.4h7.7425q2.4 0 2.4-2.4v-35.285q0-2.4-2.4-2.4h-7.7425q-2.4 0-2.4 2.4z" clip-path="url(#a)" fill="#fff" stroke="#fff"/>
<g clip-path="url(#a)">
<g transform="translate(1742 897.93) rotate(90) scale(.08 -.08)">
<use xlink:href="#l"/>
<use x="60.818359" xlink:href="#d"/>
<use x="122.341797" xlink:href="#h"/>
<use x="163.439453" xlink:href="#k"/>
<use x="260.851562" xlink:href="#j"/>
<use x="288.634766" xlink:href="#g"/>
<use x="352.013672" xlink:href="#e"/>
<use x="413.292969" xlink:href="#i"/>
</g>
</g>
<path d="m1785.2 897.93v35.285q0 2.4 2.4 2.4h7.7425q2.4 0 2.4-2.4v-35.285q0-2.4-2.4-2.4h-7.7425q-2.4 0-2.4 2.4z" clip-path="url(#a)" fill="#fff" stroke="#fff"/>
<g clip-path="url(#a)">
<g transform="translate(1789.3 897.93) rotate(90) scale(.08 -.08)">
<use xlink:href="#l"/>
<use x="60.818359" xlink:href="#d"/>
<use x="122.341797" xlink:href="#h"/>
<use x="163.439453" xlink:href="#k"/>
<use x="260.851562" xlink:href="#j"/>
<use x="288.634766" xlink:href="#g"/>
<use x="352.013672" xlink:href="#e"/>
<use x="413.292969" xlink:href="#i"/>
</g>
</g>
<path d="m1832.5 897.93v35.285q0 2.4 2.4 2.4h7.7425q2.4 0 2.4-2.4v-35.285q0-2.4-2.4-2.4h-7.7425q-2.4 0-2.4 2.4z" clip-path="url(#a)" fill="#fff" stroke="#fff"/>
<g clip-path="url(#a)">
<g transform="translate(1836.6 897.93) rotate(90) scale(.08 -.08)">
<use xlink:href="#l"/>
<use x="60.818359" xlink:href="#d"/>
<use x="122.341797" xlink:href="#h"/>
<use x="163.439453" xlink:href="#k"/>
<use x="260.851562" xlink:href="#j"/>
<use x="288.634766" xlink:href="#g"/>
<use x="352.013672" xlink:href="#e"/>
<use x="413.292969" xlink:href="#i"/>
</g>
</g>
<path d="m1454.4 897.93v35.285q0 2.4 2.4 2.4h7.7425q2.4 0 2.4-2.4v-35.285q0-2.4-2.4-2.4h-7.7425q-2.4 0-2.4 2.4z" clip-path="url(#a)" fill="#fff" stroke="#fff"/>
<g clip-path="url(#a)">
<g transform="translate(1458.4 897.93) rotate(90) scale(.08 -.08)">
<use xlink:href="#l"/>
<use x="60.818359" xlink:href="#d"/>
<use x="122.341797" xlink:href="#h"/>
<use x="163.439453" xlink:href="#k"/>
<use x="260.851562" xlink:href="#j"/>
<use x="288.634766" xlink:href="#g"/>
<use x="352.013672" xlink:href="#e"/>
<use x="413.292969" xlink:href="#i"/>
</g>
</g>
<path d="m1548.9 897.93v35.285q0 2.4 2.4 2.4h7.7425q2.4 0 2.4-2.4v-35.285q0-2.4-2.4-2.4h-7.7425q-2.4 0-2.4 2.4z" clip-path="url(#a)" fill="#fff" stroke="#fff"/>
<g clip-path="url(#a)">
<g transform="translate(1553 897.93) rotate(90) scale(.08 -.08)">
<use xlink:href="#l"/>
<use x="60.818359" xlink:href="#d"/>
<use x="122.341797" xlink:href="#h"/>
<use x="163.439453" xlink:href="#k"/>
<use x="260.851562" xlink:href="#j"/>
<use x="288.634766" xlink:href="#g"/>
<use x="352.013672" xlink:href="#e"/>
<use x="413.292969" xlink:href="#i"/>
</g>
</g>
<path d="m296.65 766.54 0.77418-4.9954q0.36756-2.3717-2.0041-2.7392l-7.6512-1.1858q-2.3717-0.36756-2.7392 2.0041l-0.77418 4.9954q-0.36756 2.3717 2.0041 2.7392l7.6512 1.1858q2.3717 0.36756 2.7392-2.0041z" clip-path="url(#a)" fill="#fff" stroke="#fff"/>
<g clip-path="url(#a)">
<g transform="translate(292.64 765.92) rotate(-81.19) scale(.08 -.08)">
<use xlink:href="#r"/>
</g>
</g>
<path d="m307.85 761.28 0.85554 5.5203q0.36756 2.3717 2.7392 2.0041l7.6512-1.1858q2.3717-0.36756 2.0041-2.7392l-0.85554-5.5203q-0.36756-2.3717-2.7392-2.0041l-7.6512 1.1858q-2.3717 0.36756-2.0041 2.7392z" clip-path="url(#a)" fill="#fff" stroke="#fff"/>
<g clip-path="url(#a)">
<g transform="translate(311.87 760.66) rotate(81.19) scale(.08 -.08)">
<use xlink:href="#t"/>
</g>
</g>
<path d="m457.6 691.13 2.5624-4.9329q1.1063-2.1298-1.0235-3.2361l-6.8708-3.569q-2.1298-1.1063-3.2361 1.0235l-2.5624 4.9329q-1.1063 2.1298 1.0235 3.2361l6.8708 3.569q2.1298 1.1063 3.2361-1.0235z" clip-path="url(#a)" fill="#fff" stroke="#fff"/>
<g clip-path="url(#a)">
<g transform="translate(453.99 689.26) rotate(-62.551) scale(.08 -.08)">
<use xlink:href="#z"/>
</g>
</g>
<path d="m505.38 614.29 1.9588-4.66q0.93001-2.2125-1.2825-3.1425l-7.1376-3.0002q-2.2125-0.93001-3.1425 1.2825l-1.9588 4.66q-0.93001 2.2125 1.2825 3.1425l7.1376 3.0002q2.2125 0.93001 3.1425-1.2825z" clip-path="url(#a)" fill="#fff" stroke="#fff"/>
<g clip-path="url(#a)">
<g transform="translate(501.64 612.72) rotate(-67.201) scale(.08 -.08)">
<use xlink:href="#r"/>
</g>
</g>
<path d="m623.77 686.78 2.9941 4.7161q1.2864 2.0262 3.3125 0.7398l6.5365-4.1498q2.0262-1.2864 0.7398-3.3125l-2.9941-4.7161q-1.2864-2.0262-3.3125-0.7398l-6.5365 4.1498q-2.0262 1.2864-0.7398 3.3125z" clip-path="url(#a)" fill="#fff" stroke="#fff"/>
<g clip-path="url(#a)">
<g transform="translate(627.2 684.6) rotate(57.59) scale(.08 -.08)">
<use xlink:href="#t"/>
</g>
</g>
<path d="m541.32 683.46 0.56062 5.8281q0.2298 2.389 2.6188 2.1592l7.7069-0.74135q2.389-0.2298 2.1592-2.6188l-0.56062-5.8281q-0.2298-2.389-2.6188-2.1592l-7.7069 0.74135q-2.389 0.2298-2.1592 2.6188z" clip-path="url(#a)" fill="#fff" stroke="#fff"/>
<g clip-path="url(#a)">
<g transform="translate(545.37 683.07) rotate(84.505) scale(.08 -.08)">
<use xlink:href="#ad"/>
</g>
</g>
<path d="m367.29 897.93v35.285q0 2.4 2.4 2.4h7.7425q2.4 0 2.4-2.4v-35.285q0-2.4-2.4-2.4h-7.7425q-2.4 0-2.4 2.4z" clip-path="url(#a)" fill="#fff" stroke="#fff"/>
<g clip-path="url(#a)">
<g transform="translate(371.35 897.93) rotate(90) scale(.08 -.08)">
<use xlink:href="#l"/>
<use x="60.818359" xlink:href="#d"/>
<use x="122.341797" xlink:href="#h"/>
<use x="163.439453" xlink:href="#k"/>
<use x="260.851562" xlink:href="#j"/>
<use x="288.634766" xlink:href="#g"/>
<use x="352.013672" xlink:href="#e"/>
<use x="413.292969" xlink:href="#i"/>
</g>
</g>
<path d="m449.7 767.35 1.4966-4.8284q0.71055-2.2924-1.5819-3.003l-7.3954-2.2923q-2.2924-0.71055-3.003 1.5819l-1.4966 4.8284q-0.71055 2.2924 1.5819 3.003l7.3954 2.2923q2.2924 0.71055 3.003-1.5819z" clip-path="url(#a)" fill="#fff" stroke="#fff"/>
<g clip-path="url(#a)">
<g transform="translate(445.81 766.15) rotate(-72.779) scale(.08 -.08)">
<use xlink:href="#r"/>
</g>
</g>
<path d="m461.82 760.55v5.055q0 2.4 2.4 2.4h7.7425q2.4 0 2.4-2.4v-5.055q0-2.4-2.4-2.4h-7.7425q-2.4 0-2.4 2.4z" clip-path="url(#a)" fill="#fff" stroke="#fff"/>
<g clip-path="url(#a)">
<g transform="translate(465.88 760.55) rotate(90) scale(.08 -.08)">
<use xlink:href="#r"/>
</g>
</g>
<path d="m484.9 762.27 1.6539 5.3358q0.71055 2.2924 3.003 1.5819l7.3954-2.2923q2.2924-0.71055 1.5819-3.003l-1.6539-5.3358q-0.71055-2.2924-3.003-1.5819l-7.3954 2.2923q-2.2924 0.71055-1.5819 3.003z" clip-path="url(#a)" fill="#fff" stroke="#fff"/>
<g clip-path="url(#a)">
<g transform="translate(488.78 761.07) rotate(72.779) scale(.08 -.08)">
<use xlink:href="#t"/>
</g>
</g>
<path d="m663.11 933.36 21.613-27.891q1.47-1.8971-0.42704-3.3671l-6.1201-4.7424q-1.8971-1.47-3.3671 0.42704l-21.613 27.891q-1.47 1.8971 0.42704 3.3671l6.1201 4.7424q1.8971 1.47 3.3671-0.42704z" clip-path="url(#a)" fill="#fff" stroke="#fff"/>
<g clip-path="url(#a)">
<g transform="translate(659.9 930.87) rotate(-52.228) scale(.08 -.08)">
<use xlink:href="#l"/>
<use x="60.818359" xlink:href="#d"/>
<use x="122.341797" xlink:href="#h"/>
<use x="163.439453" xlink:href="#k"/>
<use x="260.851562" xlink:href="#j"/>
<use x="288.634766" xlink:href="#g"/>
<use x="352.013672" xlink:href="#e"/>
<use x="413.292969" xlink:href="#i"/>
</g>
</g>
<path d="m690.84 934.21 14.876-31.996q1.0118-2.1763-1.1644-3.1881l-7.0208-3.2642q-2.1763-1.0118-3.1881 1.1644l-14.876 31.996q-1.0118 2.1763 1.1644 3.1881l7.0208 3.2642q2.1763 1.0118 3.1881-1.1644z" clip-path="url(#a)" fill="#fff" stroke="#fff"/>
<g clip-path="url(#a)">
<g transform="translate(687.16 932.5) rotate(-65.064) scale(.08 -.08)">
<use xlink:href="#l"/>
<use x="60.818359" xlink:href="#d"/>
<use x="122.341797" xlink:href="#h"/>
<use x="163.439453" xlink:href="#k"/>
<use x="260.851562" xlink:href="#j"/>
<use x="288.634766" xlink:href="#g"/>
<use x="352.013672" xlink:href="#e"/>
<use x="413.292969" xlink:href="#i"/>
</g>
</g>
<path d="m719.72 933.96 5.4039-34.869q0.36756-2.3717-2.0041-2.7392l-7.6512-1.1858q-2.3717-0.36756-2.7392 2.0041l-5.4039 34.869q-0.36756 2.3717 2.0041 2.7392l7.6512 1.1858q2.3717 0.36756 2.7392-2.0041z" clip-path="url(#a)" fill="#fff" stroke="#fff"/>
<g clip-path="url(#a)">
<g transform="translate(715.71 933.34) rotate(-81.19) scale(.08 -.08)">
<use xlink:href="#l"/>
<use x="60.818359" xlink:href="#d"/>
<use x="122.341797" xlink:href="#h"/>
<use x="163.439453" xlink:href="#k"/>
<use x="260.851562" xlink:href="#j"/>
<use x="288.634766" xlink:href="#g"/>
<use x="352.013672" xlink:href="#e"/>
<use x="413.292969" xlink:href="#i"/>
</g>
</g>
<path d="m730.96 899.1 5.4039 34.869q0.36756 2.3717 2.7392 2.0041l7.6512-1.1858q2.3717-0.36756 2.0041-2.7392l-5.4039-34.869q-0.36756-2.3717-2.7392-2.0041l-7.6512 1.1858q-2.3717 0.36756-2.0041 2.7392z" clip-path="url(#a)" fill="#fff" stroke="#fff"/>
<g clip-path="url(#a)">
<g transform="translate(734.98 898.47) rotate(81.19) scale(.08 -.08)">
<use xlink:href="#l"/>
<use x="60.818359" xlink:href="#d"/>
<use x="122.341797" xlink:href="#h"/>
<use x="163.439453" xlink:href="#k"/>
<use x="260.851562" xlink:href="#j"/>
<use x="288.634766" xlink:href="#g"/>
<use x="352.013672" xlink:href="#e"/>
<use x="413.292969" xlink:href="#i"/>
</g>
</g>
<path d="m750.37 902.22 14.876 31.996q1.0118 2.1763 3.1881 1.1644l7.0208-3.2642q2.1763-1.0118 1.1644-3.1881l-14.876-31.996q-1.0118-2.1763-3.1881-1.1644l-7.0208 3.2642q-2.1763 1.0118-1.1644 3.1881z" clip-path="url(#a)" fill="#fff" stroke="#fff"/>
<g clip-path="url(#a)">
<g transform="translate(754.05 900.5) rotate(65.064) scale(.08 -.08)">
<use xlink:href="#l"/>
<use x="60.818359" xlink:href="#d"/>
<use x="122.341797" xlink:href="#h"/>
<use x="163.439453" xlink:href="#k"/>
<use x="260.851562" xlink:href="#j"/>
<use x="288.634766" xlink:href="#g"/>
<use x="352.013672" xlink:href="#e"/>
<use x="413.292969" xlink:href="#i"/>
</g>
</g>
<path d="m771.36 905.46 21.613 27.891q1.47 1.8971 3.3671 0.42704l6.1201-4.7424q1.8971-1.47 0.42704-3.3671l-21.613-27.891q-1.47-1.8971-3.3671-0.42704l-6.1201 4.7424q-1.8971 1.47-0.42704 3.3671z" clip-path="url(#a)" fill="#fff" stroke="#fff"/>
<g clip-path="url(#a)">
<g transform="translate(774.57 902.98) rotate(52.228) scale(.08 -.08)">
<use xlink:href="#l"/>
<use x="60.818359" xlink:href="#d"/>
<use x="122.341797" xlink:href="#h"/>
<use x="163.439453" xlink:href="#k"/>
<use x="260.851562" xlink:href="#j"/>
<use x="288.634766" xlink:href="#g"/>
<use x="352.013672" xlink:href="#e"/>
<use x="413.292969" xlink:href="#i"/>
</g>
</g>
<path d="m414.55 897.93v35.285q0 2.4 2.4 2.4h7.7425q2.4 0 2.4-2.4v-35.285q0-2.4-2.4-2.4h-7.7425q-2.4 0-2.4 2.4z" clip-path="url(#a)" fill="#fff" stroke="#fff"/>
<g clip-path="url(#a)">
<g transform="translate(418.61 897.93) rotate(90) scale(.08 -.08)">
<use xlink:href="#l"/>
<use x="60.818359" xlink:href="#d"/>
<use x="122.341797" xlink:href="#h"/>
<use x="163.439453" xlink:href="#k"/>
<use x="260.851562" xlink:href="#j"/>
<use x="288.634766" xlink:href="#g"/>
<use x="352.013672" xlink:href="#e"/>
<use x="413.292969" xlink:href="#i"/>
</g>
</g>
<path d="m461.82 897.93v35.285q0 2.4 2.4 2.4h7.7425q2.4 0 2.4-2.4v-35.285q0-2.4-2.4-2.4h-7.7425q-2.4 0-2.4 2.4z" clip-path="url(#a)" fill="#fff" stroke="#fff"/>
<g clip-path="url(#a)">
<g transform="translate(465.88 897.93) rotate(90) scale(.08 -.08)">
<use xlink:href="#l"/>
<use x="60.818359" xlink:href="#d"/>
<use x="122.341797" xlink:href="#h"/>
<use x="163.439453" xlink:href="#k"/>
<use x="260.851562" xlink:href="#j"/>
<use x="288.634766" xlink:href="#g"/>
<use x="352.013672" xlink:href="#e"/>
<use x="413.292969" xlink:href="#i"/>
</g>
</g>
<path d="m509.08 897.93v35.285q0 2.4 2.4 2.4h7.7425q2.4 0 2.4-2.4v-35.285q0-2.4-2.4-2.4h-7.7425q-2.4 0-2.4 2.4z" clip-path="url(#a)" fill="#fff" stroke="#fff"/>
<g clip-path="url(#a)">
<g transform="translate(513.14 897.93) rotate(90) scale(.08 -.08)">
<use xlink:href="#l"/>
<use x="60.818359" xlink:href="#d"/>
<use x="122.341797" xlink:href="#h"/>
<use x="163.439453" xlink:href="#k"/>
<use x="260.851562" xlink:href="#j"/>
<use x="288.634766" xlink:href="#g"/>
<use x="352.013672" xlink:href="#e"/>
<use x="413.292969" xlink:href="#i"/>
</g>
</g>
<path d="m272.76 897.93v35.285q0 2.4 2.4 2.4h7.7425q2.4 0 2.4-2.4v-35.285q0-2.4-2.4-2.4h-7.7425q-2.4 0-2.4 2.4z" clip-path="url(#a)" fill="#fff" stroke="#fff"/>
<g clip-path="url(#a)">
<g transform="translate(276.82 897.93) rotate(90) scale(.08 -.08)">
<use xlink:href="#l"/>
<use x="60.818359" xlink:href="#d"/>
<use x="122.341797" xlink:href="#h"/>
<use x="163.439453" xlink:href="#k"/>
<use x="260.851562" xlink:href="#j"/>
<use x="288.634766" xlink:href="#g"/>
<use x="352.013672" xlink:href="#e"/>
<use x="413.292969" xlink:href="#i"/>
</g>
</g>
<path d="m320.02 897.93v35.285q0 2.4 2.4 2.4h7.7425q2.4 0 2.4-2.4v-35.285q0-2.4-2.4-2.4h-7.7425q-2.4 0-2.4 2.4z" clip-path="url(#a)" fill="#fff" stroke="#fff"/>
<g clip-path="url(#a)">
<g transform="translate(324.08 897.93) rotate(90) scale(.08 -.08)">
<use xlink:href="#l"/>
<use x="60.818359" xlink:href="#d"/>
<use x="122.341797" xlink:href="#h"/>
<use x="163.439453" xlink:href="#k"/>
<use x="260.851562" xlink:href="#j"/>
<use x="288.634766" xlink:href="#g"/>
<use x="352.013672" xlink:href="#e"/>
<use x="413.292969" xlink:href="#i"/>
</g>
</g>
<path d="m107.56 766.79 0.85133-5.4932q0.36756-2.3717-2.0041-2.7392l-7.6512-1.1858q-2.3717-0.36756-2.7392 2.0041l-0.85133 5.4932q-0.36756 2.3717 2.0041 2.7392l7.6512 1.1858q2.3717 0.36756 2.7392-2.0041z" clip-path="url(#a)" fill="#fff" stroke="#fff"/>
<g clip-path="url(#a)">
<g transform="translate(103.54 766.17) rotate(-81.19) scale(.08 -.08)">
<use xlink:href="#z"/>
</g>
</g>
<path d="m118.79 761.28 0.85554 5.5203q0.36756 2.3717 2.7392 2.0041l7.6512-1.1858q2.3717-0.36756 2.0041-2.7392l-0.85554-5.5203q-0.36756-2.3717-2.7392-2.0041l-7.6512 1.1858q-2.3717 0.36756-2.0041 2.7392z" clip-path="url(#a)" fill="#fff" stroke="#fff"/>
<g clip-path="url(#a)">
<g transform="translate(122.81 760.66) rotate(81.19) scale(.08 -.08)">
<use xlink:href="#t"/>
</g>
</g>
<path d="m934.46 897.93v35.285q0 2.4 2.4 2.4h7.7425q2.4 0 2.4-2.4v-35.285q0-2.4-2.4-2.4h-7.7425q-2.4 0-2.4 2.4z" clip-path="url(#a)" fill="#fff" stroke="#fff"/>
<g clip-path="url(#a)">
<g transform="translate(938.53 897.93) rotate(90) scale(.08 -.08)">
<use xlink:href="#l"/>
<use x="60.818359" xlink:href="#d"/>
<use x="122.341797" xlink:href="#h"/>
<use x="163.439453" xlink:href="#k"/>
<use x="260.851562" xlink:href="#j"/>
<use x="288.634766" xlink:href="#g"/>
<use x="352.013672" xlink:href="#e"/>
<use x="413.292969" xlink:href="#i"/>
</g>
</g>
<path d="m1003.3 933.96 5.4039-34.869q0.36756-2.3717-2.0041-2.7392l-7.6512-1.1858q-2.3717-0.36756-2.7392 2.0041l-5.4039 34.869q-0.36756 2.3717 2.0041 2.7392l7.6512 1.1858q2.3717 0.36756 2.7392-2.0041z" clip-path="url(#a)" fill="#fff" stroke="#fff"/>
<g clip-path="url(#a)">
<g transform="translate(999.3 933.34) rotate(-81.19) scale(.08 -.08)">
<use xlink:href="#l"/>
<use x="60.818359" xlink:href="#d"/>
<use x="122.341797" xlink:href="#h"/>
<use x="163.439453" xlink:href="#k"/>
<use x="260.851562" xlink:href="#j"/>
<use x="288.634766" xlink:href="#g"/>
<use x="352.013672" xlink:href="#e"/>
<use x="413.292969" xlink:href="#i"/>
</g>
</g>
<path d="m1014.5 899.1 5.4039 34.869q0.36756 2.3717 2.7392 2.0041l7.6512-1.1858q2.3717-0.36756 2.0041-2.7392l-5.4039-34.869q-0.36756-2.3717-2.7392-2.0041l-7.6512 1.1858q-2.3717 0.36756-2.0041 2.7392z" clip-path="url(#a)" fill="#fff" stroke="#fff"/>
<g clip-path="url(#a)">
<g transform="translate(1018.6 898.47) rotate(81.19) scale(.08 -.08)">
<use xlink:href="#l"/>
<use x="60.818359" xlink:href="#d"/>
<use x="122.341797" xlink:href="#h"/>
<use x="163.439453" xlink:href="#k"/>
<use x="260.851562" xlink:href="#j"/>
<use x="288.634766" xlink:href="#g"/>
<use x="352.013672" xlink:href="#e"/>
<use x="413.292969" xlink:href="#i"/>
</g>
</g>
<path d="m1129.4 613.4 1.1297-4.9272q0.53635-2.3393-1.8029-2.8757l-7.5467-1.7303q-2.3393-0.53635-2.8757 1.8029l-1.1297 4.9272q-0.53635 2.3393 1.8029 2.8757l7.5467 1.7303q2.3393 0.53635 2.8757-1.8029z" clip-path="url(#a)" fill="#fff" stroke="#fff"/>
<g clip-path="url(#a)">
<g transform="translate(1125.5 612.49) rotate(-77.086) scale(.08 -.08)">
<use xlink:href="#r"/>
</g>
</g>
<path d="m1152.8 683.72 0.64058 5.5494q0.27521 2.3842 2.6594 2.109l7.6914-0.88783q2.3842-0.27521 2.109-2.6594l-0.64058-5.5494q-0.27521-2.3842-2.6594-2.109l-7.6914 0.88783q-2.3842 0.27521-2.109 2.6594z" clip-path="url(#a)" fill="#fff" stroke="#fff"/>
<g clip-path="url(#a)">
<g transform="translate(1156.8 683.26) rotate(83.415) scale(.08 -.08)">
<use xlink:href="#t"/>
</g>
</g>
<path d="m1100.1 766.8 0.85554-5.5203q0.36756-2.3717-2.0041-2.7392l-7.6512-1.1858q-2.3717-0.36756-2.7392 2.0041l-0.85554 5.5203q-0.36756 2.3717 2.0041 2.7392l7.6512 1.1858q2.3717 0.36756 2.7392-2.0041z" clip-path="url(#a)" fill="#fff" stroke="#fff"/>
<g clip-path="url(#a)">
<g transform="translate(1096.1 766.18) rotate(-81.19) scale(.08 -.08)">
<use xlink:href="#t"/>
</g>
</g>
<path d="m1111.4 761.3 0.85133 5.4932q0.36756 2.3717 2.7392 2.0041l7.6512-1.1858q2.3717-0.36756 2.0041-2.7392l-0.85133-5.4932q-0.36756-2.3717-2.7392-2.0041l-7.6512 1.1858q-2.3717 0.36756-2.0041 2.7392z" clip-path="url(#a)" fill="#fff" stroke="#fff"/>
<g clip-path="url(#a)">
<g transform="translate(1115.4 760.67) rotate(81.19) scale(.08 -.08)">
<use xlink:href="#z"/>
</g>
</g>
<path d="m1170.8 897.93v35.285q0 2.4 2.4 2.4h7.7425q2.4 0 2.4-2.4v-35.285q0-2.4-2.4-2.4h-7.7425q-2.4 0-2.4 2.4z" clip-path="url(#a)" fill="#fff" stroke="#fff"/>
<g clip-path="url(#a)">
<g transform="translate(1174.9 897.93) rotate(90) scale(.08 -.08)">
<use xlink:href="#l"/>
<use x="60.818359" xlink:href="#d"/>
<use x="122.341797" xlink:href="#h"/>
<use x="163.439453" xlink:href="#k"/>
<use x="260.851562" xlink:href="#j"/>
<use x="288.634766" xlink:href="#g"/>
<use x="352.013672" xlink:href="#e"/>
<use x="413.292969" xlink:href="#i"/>
</g>
</g>
<path d="m1076.3 897.93v35.285q0 2.4 2.4 2.4h7.7425q2.4 0 2.4-2.4v-35.285q0-2.4-2.4-2.4h-7.7425q-2.4 0-2.4 2.4z" clip-path="url(#a)" fill="#fff" stroke="#fff"/>
<g clip-path="url(#a)">
<g transform="translate(1080.3 897.93) rotate(90) scale(.08 -.08)">
<use xlink:href="#l"/>
<use x="60.818359" xlink:href="#d"/>
<use x="122.341797" xlink:href="#h"/>
<use x="163.439453" xlink:href="#k"/>
<use x="260.851562" xlink:href="#j"/>
<use x="288.634766" xlink:href="#g"/>
<use x="352.013672" xlink:href="#e"/>
<use x="413.292969" xlink:href="#i"/>
</g>
</g>
<path d="m1123.5 897.93v35.285q0 2.4 2.4 2.4h7.7425q2.4 0 2.4-2.4v-35.285q0-2.4-2.4-2.4h-7.7425q-2.4 0-2.4 2.4z" clip-path="url(#a)" fill="#fff" stroke="#fff"/>
<g clip-path="url(#a)">
<g transform="translate(1127.6 897.93) rotate(90) scale(.08 -.08)">
<use xlink:href="#l"/>
<use x="60.818359" xlink:href="#d"/>
<use x="122.341797" xlink:href="#h"/>
<use x="163.439453" xlink:href="#k"/>
<use x="260.851562" xlink:href="#j"/>
<use x="288.634766" xlink:href="#g"/>
<use x="352.013672" xlink:href="#e"/>
<use x="413.292969" xlink:href="#i"/>
</g>
</g>
<path d="m83.696 897.93v35.285q0 2.4 2.4 2.4h7.7425q2.4 0 2.4-2.4v-35.285q0-2.4-2.4-2.4h-7.7425q-2.4 0-2.4 2.4z" clip-path="url(#a)" fill="#fff" stroke="#fff"/>
<g clip-path="url(#a)">
<g transform="translate(87.76 897.93) rotate(90) scale(.08 -.08)">
<use xlink:href="#l"/>
<use x="60.818359" xlink:href="#d"/>
<use x="122.341797" xlink:href="#h"/>
<use x="163.439453" xlink:href="#k"/>
<use x="260.851562" xlink:href="#j"/>
<use x="288.634766" xlink:href="#g"/>
<use x="352.013672" xlink:href="#e"/>
<use x="413.292969" xlink:href="#i"/>
</g>
</g>
<path d="m130.96 897.93v35.285q0 2.4 2.4 2.4h7.7425q2.4 0 2.4-2.4v-35.285q0-2.4-2.4-2.4h-7.7425q-2.4 0-2.4 2.4z" clip-path="url(#a)" fill="#fff" stroke="#fff"/>
<g clip-path="url(#a)">
<g transform="translate(135.02 897.93) rotate(90) scale(.08 -.08)">
<use xlink:href="#l"/>
<use x="60.818359" xlink:href="#d"/>
<use x="122.341797" xlink:href="#h"/>
<use x="163.439453" xlink:href="#k"/>
<use x="260.851562" xlink:href="#j"/>
<use x="288.634766" xlink:href="#g"/>
<use x="352.013672" xlink:href="#e"/>
<use x="413.292969" xlink:href="#i"/>
</g>
</g>
<path d="m950.29 219.3 6.6484-7.3792q1.6065-1.783-0.17658-3.3895l-5.7522-5.1825q-1.783-1.6065-3.3895 0.17658l-6.6484 7.3792q-1.6065 1.783 0.17658 3.3895l5.7522 5.1825q1.783 1.6065 3.3895-0.17658z" clip-path="url(#a)" fill="#fff" stroke="#fff"/>
<g clip-path="url(#a)">
<g transform="translate(947.27 216.58) rotate(-47.982) scale(.08 -.08)">
<use xlink:href="#v"/>
<use x="55.744141" xlink:href="#p"/>
</g>
</g>
<path d="m1153.2 439.82 1.6035 9.8871q0.3842 2.369 2.7533 1.9848l7.6426-1.2395q2.369-0.3842 1.9848-2.7533l-1.6035-9.8871q-0.3842-2.369-2.7533-1.9848l-7.6426 1.2395q-2.369 0.3842-1.9848 2.7533z" clip-path="url(#a)" fill="#fff" stroke="#fff"/>
<g clip-path="url(#a)">
<g transform="translate(1157.2 439.17) rotate(80.788) scale(.08 -.08)">
<use xlink:href="#v"/>
<use x="55.712891" xlink:href="#z"/>
</g>
</g>
<path d="m1171 131.76 7.0348 7.0118q1.6998 1.6943 3.3941-0.005552l5.4658-5.4837q1.6943-1.6998-0.005553-3.3941l-7.0348-7.0118q-1.6998-1.6943-3.3941 0.005552l-5.4658 5.4837q-1.6943 1.6998 0.005552 3.3941z" clip-path="url(#a)" fill="#fff" stroke="#fff"/>
<g clip-path="url(#a)">
<g transform="translate(1173.9 128.88) rotate(44.906) scale(.08 -.08)">
<use xlink:href="#v"/>
<use x="55.744141" xlink:href="#p"/>
</g>
</g>
<path d="m635.6 297.4 8.8598 4.4898q2.1408 1.0849 3.2257-1.0559l3.4998-6.9063q1.0849-2.1408-1.0559-3.2257l-8.8598-4.4898q-2.1408-1.0849-3.2257 1.0559l-3.4998 6.9063q-1.0849 2.1408 1.0559 3.2257z" clip-path="url(#a)" fill="#fff" stroke="#fff"/>
<g clip-path="url(#a)">
<g transform="translate(637.44 293.78) rotate(26.874) scale(.08 -.08)">
<use xlink:href="#v"/>
<use x="55.744141" xlink:href="#p"/>
</g>
</g>
<path d="m361.75 533.38 3.7421-9.2909q0.89666-2.2262-1.3296-3.1229l-7.1818-2.8927q-2.2262-0.89666-3.1229 1.3296l-3.7421 9.2909q-0.89666 2.2262 1.3296 3.1229l7.1818 2.8927q2.2262 0.89666 3.1229-1.3296z" clip-path="url(#a)" fill="#fff" stroke="#fff"/>
<g clip-path="url(#a)">
<g transform="translate(357.98 531.87) rotate(-68.062) scale(.08 -.08)">
<use xlink:href="#v"/>
<use x="55.712891" xlink:href="#z"/>
</g>
</g>
<path d="m454.78 301.03 3.7626-9.1922q0.90917-2.2211-1.312-3.1303l-7.1655-2.933q-2.2211-0.90917-3.1303 1.312l-3.7626 9.1922q-0.90917 2.2211 1.312 3.1303l7.1655 2.933q2.2211 0.90917 3.1303-1.312z" clip-path="url(#a)" fill="#fff" stroke="#fff"/>
<g clip-path="url(#a)">
<g transform="translate(451.02 299.49) rotate(-67.739) scale(.08 -.08)">
<use xlink:href="#v"/>
<use x="55.744141" xlink:href="#p"/>
</g>
</g>
<path d="m178.23 897.93v35.285q0 2.4 2.4 2.4h7.7425q2.4 0 2.4-2.4v-35.285q0-2.4-2.4-2.4h-7.7425q-2.4 0-2.4 2.4z" clip-path="url(#a)" fill="#fff" stroke="#fff"/>
<g clip-path="url(#a)">
<g transform="translate(182.29 897.93) rotate(90) scale(.08 -.08)">
<use xlink:href="#l"/>
<use x="60.818359" xlink:href="#d"/>
<use x="122.341797" xlink:href="#h"/>
<use x="163.439453" xlink:href="#k"/>
<use x="260.851562" xlink:href="#j"/>
<use x="288.634766" xlink:href="#g"/>
<use x="352.013672" xlink:href="#e"/>
<use x="413.292969" xlink:href="#i"/>
</g>
</g>
<path d="m556.34 897.93v35.285q0 2.4 2.4 2.4h7.7425q2.4 0 2.4-2.4v-35.285q0-2.4-2.4-2.4h-7.7425q-2.4 0-2.4 2.4z" clip-path="url(#a)" fill="#fff" stroke="#fff"/>
<g clip-path="url(#a)">
<g transform="translate(560.41 897.93) rotate(90) scale(.08 -.08)">
<use xlink:href="#l"/>
<use x="60.818359" xlink:href="#d"/>
<use x="122.341797" xlink:href="#h"/>
<use x="163.439453" xlink:href="#k"/>
<use x="260.851562" xlink:href="#j"/>
<use x="288.634766" xlink:href="#g"/>
<use x="352.013672" xlink:href="#e"/>
<use x="413.292969" xlink:href="#i"/>
</g>
</g>
<path d="m887.2 897.93v35.285q0 2.4 2.4 2.4h7.7425q2.4 0 2.4-2.4v-35.285q0-2.4-2.4-2.4h-7.7425q-2.4 0-2.4 2.4z" clip-path="url(#a)" fill="#fff" stroke="#fff"/>
<g clip-path="url(#a)">
<g transform="translate(891.26 897.93) rotate(90) scale(.08 -.08)">
<use xlink:href="#l"/>
<use x="60.818359" xlink:href="#d"/>
<use x="122.341797" xlink:href="#h"/>
<use x="163.439453" xlink:href="#k"/>
<use x="260.851562" xlink:href="#j"/>
<use x="288.634766" xlink:href="#g"/>
<use x="352.013672" xlink:href="#e"/>
<use x="413.292969" xlink:href="#i"/>
</g>
</g>
<path d="m1501.6 897.93v35.285q0 2.4 2.4 2.4h7.7425q2.4 0 2.4-2.4v-35.285q0-2.4-2.4-2.4h-7.7425q-2.4 0-2.4 2.4z" clip-path="url(#a)" fill="#fff" stroke="#fff"/>
<g clip-path="url(#a)">
<g transform="translate(1505.7 897.93) rotate(90) scale(.08 -.08)">
<use xlink:href="#l"/>
<use x="60.818359" xlink:href="#d"/>
<use x="122.341797" xlink:href="#h"/>
<use x="163.439453" xlink:href="#k"/>
<use x="260.851562" xlink:href="#j"/>
<use x="288.634766" xlink:href="#g"/>
<use x="352.013672" xlink:href="#e"/>
<use x="413.292969" xlink:href="#i"/>
</g>
</g>
<path d="m1879.8 897.93v35.285q0 2.4 2.4 2.4h7.7425q2.4 0 2.4-2.4v-35.285q0-2.4-2.4-2.4h-7.7425q-2.4 0-2.4 2.4z" clip-path="url(#a)" fill="#fff" stroke="#fff"/>
<g clip-path="url(#a)">
<g transform="translate(1883.8 897.93) rotate(90) scale(.08 -.08)">
<use xlink:href="#l"/>
<use x="60.818359" xlink:href="#d"/>
<use x="122.341797" xlink:href="#h"/>
<use x="163.439453" xlink:href="#k"/>
<use x="260.851562" xlink:href="#j"/>
<use x="288.634766" xlink:href="#g"/>
<use x="352.013672" xlink:href="#e"/>
<use x="413.292969" xlink:href="#i"/>
</g>
</g>
<defs>
<path id="b" d="m0 8.6603c2.2967 0 4.4997-0.9125 6.1237-2.5365 1.624-1.624 2.5365-3.827 2.5365-6.1237s-0.9125-4.4997-2.5365-6.1237c-1.624-1.624-3.827-2.5365-6.1237-2.5365s-4.4997 0.9125-6.1237 2.5365c-1.624 1.624-2.5365 3.827-2.5365 6.1237s0.9125 4.4997 2.5365 6.1237c1.624 1.624 3.827 2.5365 6.1237 2.5365z"/>
</defs>
<g clip-path="url(#a)">
<use x="89.967329" y="991.813024" fill="#ffffff" stroke="#ffffff" xlink:href="#b"/>
</g>
<g clip-path="url(#a)">
<use x="137.232206" y="991.813024" fill="#ffffff" stroke="#ffffff" xlink:href="#b"/>
</g>
<g clip-path="url(#a)">
<use x="184.497084" y="991.813024" fill="#ffffff" stroke="#ffffff" xlink:href="#b"/>
</g>
<g clip-path="url(#a)">
<use x="231.761961" y="991.813024" fill="#ffffff" stroke="#ffffff" xlink:href="#b"/>
</g>
<g clip-path="url(#a)">
<use x="279.026839" y="991.813024" fill="#ffffff" stroke="#ffffff" xlink:href="#b"/>
</g>
<g clip-path="url(#a)">
<use x="326.291716" y="991.813024" fill="#ffffff" stroke="#ffffff" xlink:href="#b"/>
</g>
<g clip-path="url(#a)">
<use x="373.556593" y="991.813024" fill="#ffffff" stroke="#ffffff" xlink:href="#b"/>
</g>
<g clip-path="url(#a)">
<use x="420.821471" y="991.813024" fill="#ffffff" stroke="#ffffff" xlink:href="#b"/>
</g>
<g clip-path="url(#a)">
<use x="468.086348" y="991.813024" fill="#ffffff" stroke="#ffffff" xlink:href="#b"/>
</g>
<g clip-path="url(#a)">
<use x="515.351226" y="991.813024" fill="#ffffff" stroke="#ffffff" xlink:href="#b"/>
</g>
<g clip-path="url(#a)">
<use x="562.616103" y="991.813024" fill="#ffffff" stroke="#ffffff" xlink:href="#b"/>
</g>
<g clip-path="url(#a)">
<use x="609.880981" y="991.813024" fill="#ffffff" stroke="#ffffff" xlink:href="#b"/>
</g>
<g clip-path="url(#a)">
<use x="657.145858" y="991.813024" fill="#ffffff" stroke="#ffffff" xlink:href="#b"/>
</g>
<g clip-path="url(#a)">
<use x="704.410735" y="991.813024" fill="#ffffff" stroke="#ffffff" xlink:href="#b"/>
</g>
<g clip-path="url(#a)">
<use x="751.675613" y="991.813024" fill="#ffffff" stroke="#ffffff" xlink:href="#b"/>
</g>
<g clip-path="url(#a)">
<use x="798.94049" y="991.813024" fill="#ffffff" stroke="#ffffff" xlink:href="#b"/>
</g>
<g clip-path="url(#a)">
<use x="846.205368" y="991.813024" fill="#ffffff" stroke="#ffffff" xlink:href="#b"/>
</g>
<g clip-path="url(#a)">
<use x="893.470245" y="991.813024" fill="#ffffff" stroke="#ffffff" xlink:href="#b"/>
</g>
<g clip-path="url(#a)">
<use x="940.735123" y="991.813024" fill="#ffffff" stroke="#ffffff" xlink:href="#b"/>
</g>
<g clip-path="url(#a)">
<use x="988" y="991.813024" fill="#ffffff" stroke="#ffffff" xlink:href="#b"/>
</g>
<g clip-path="url(#a)">
<use x="1035.264877" y="991.813024" fill="#ffffff" stroke="#ffffff" xlink:href="#b"/>
</g>
<g clip-path="url(#a)">
<use x="1082.529755" y="991.813024" fill="#ffffff" stroke="#ffffff" xlink:href="#b"/>
</g>
<g clip-path="url(#a)">
<use x="1129.794632" y="991.813024" fill="#ffffff" stroke="#ffffff" xlink:href="#b"/>
</g>
<g clip-path="url(#a)">
<use x="1177.05951" y="991.813024" fill="#ffffff" stroke="#ffffff" xlink:href="#b"/>
</g>
<g clip-path="url(#a)">
<use x="1224.324387" y="991.813024" fill="#ffffff" stroke="#ffffff" xlink:href="#b"/>
</g>
<g clip-path="url(#a)">
<use x="1271.589265" y="991.813024" fill="#ffffff" stroke="#ffffff" xlink:href="#b"/>
</g>
<g clip-path="url(#a)">
<use x="1318.854142" y="991.813024" fill="#ffffff" stroke="#ffffff" xlink:href="#b"/>
</g>
<g clip-path="url(#a)">
<use x="1366.119019" y="991.813024" fill="#ffffff" stroke="#ffffff" xlink:href="#b"/>
</g>
<g clip-path="url(#a)">
<use x="1413.383897" y="991.813024" fill="#ffffff" stroke="#ffffff" xlink:href="#b"/>
</g>
<g clip-path="url(#a)">
<use x="1460.648774" y="991.813024" fill="#ffffff" stroke="#ffffff" xlink:href="#b"/>
</g>
<g clip-path="url(#a)">
<use x="1507.913652" y="991.813024" fill="#ffffff" stroke="#ffffff" xlink:href="#b"/>
</g>
<g clip-path="url(#a)">
<use x="1555.178529" y="991.813024" fill="#ffffff" stroke="#ffffff" xlink:href="#b"/>
</g>
<g clip-path="url(#a)">
<use x="1602.443407" y="991.813024" fill="#ffffff" stroke="#ffffff" xlink:href="#b"/>
</g>
<g clip-path="url(#a)">
<use x="1649.708284" y="991.813024" fill="#ffffff" stroke="#ffffff" xlink:href="#b"/>
</g>
<g clip-path="url(#a)">
<use x="1696.973161" y="991.813024" fill="#ffffff" stroke="#ffffff" xlink:href="#b"/>
</g>
<g clip-path="url(#a)">
<use x="1744.238039" y="991.813024" fill="#ffffff" stroke="#ffffff" xlink:href="#b"/>
</g>
<g clip-path="url(#a)">
<use x="1791.502916" y="991.813024" fill="#ffffff" stroke="#ffffff" xlink:href="#b"/>
</g>
<g clip-path="url(#a)">
<use x="1838.767794" y="991.813024" fill="#ffffff" stroke="#ffffff" xlink:href="#b"/>
</g>
<g clip-path="url(#a)">
<use x="1886.032671" y="991.813024" fill="#ffffff" stroke="#ffffff" xlink:href="#b"/>
</g>
<g clip-path="url(#a)">
<use x="716.52236" y="48.186976" fill="#ffffff" stroke="#ffffff" xlink:href="#b"/>
</g>
<g clip-path="url(#a)">
<use x="801.894545" y="374.642929" fill="#ffffff" stroke="#ffffff" xlink:href="#b"/>
</g>
<g clip-path="url(#a)">
<use x="231.761961" y="839.325413" fill="#ffffff" stroke="#ffffff" xlink:href="#b"/>
</g>
<g clip-path="url(#a)">
<use x="417.867416" y="374.642929" fill="#ffffff" stroke="#ffffff" xlink:href="#b"/>
</g>
<g clip-path="url(#a)">
<use x="1224.324387" y="839.325413" fill="#ffffff" stroke="#ffffff" xlink:href="#b"/>
</g>
<g clip-path="url(#a)">
<use x="1261.840884" y="213.466304" fill="#ffffff" stroke="#ffffff" xlink:href="#b"/>
</g>
<g clip-path="url(#a)">
<use x="1271.589265" y="839.325413" fill="#ffffff" stroke="#ffffff" xlink:href="#b"/>
</g>
<g clip-path="url(#a)">
<use x="1318.854142" y="839.325413" fill="#ffffff" stroke="#ffffff" xlink:href="#b"/>
</g>
<g clip-path="url(#a)">
<use x="1516.185005" y="374.642929" fill="#ffffff" stroke="#ffffff" xlink:href="#b"/>
</g>
<g clip-path="url(#a)">
<use x="1366.119019" y="839.325413" fill="#ffffff" stroke="#ffffff" xlink:href="#b"/>
</g>
<g clip-path="url(#a)">
<use x="1413.383897" y="839.325413" fill="#ffffff" stroke="#ffffff" xlink:href="#b"/>
</g>
<g clip-path="url(#a)">
<use x="1507.913652" y="686.837802" fill="#ffffff" stroke="#ffffff" xlink:href="#b"/>
</g>
<g clip-path="url(#a)">
<use x="1602.443407" y="839.325413" fill="#ffffff" stroke="#ffffff" xlink:href="#b"/>
</g>
<g clip-path="url(#a)">
<use x="1691.065052" y="532.228921" fill="#ffffff" stroke="#ffffff" xlink:href="#b"/>
</g>
<g clip-path="url(#a)">
<use x="1649.708284" y="839.325413" fill="#ffffff" stroke="#ffffff" xlink:href="#b"/>
</g>
<g clip-path="url(#a)">
<use x="1696.973161" y="839.325413" fill="#ffffff" stroke="#ffffff" xlink:href="#b"/>
</g>
<g clip-path="url(#a)">
<use x="1815.135355" y="686.837802" fill="#ffffff" stroke="#ffffff" xlink:href="#b"/>
</g>
<g clip-path="url(#a)">
<use x="1744.238039" y="839.325413" fill="#ffffff" stroke="#ffffff" xlink:href="#b"/>
</g>
<g clip-path="url(#a)">
<use x="1791.502916" y="839.325413" fill="#ffffff" stroke="#ffffff" xlink:href="#b"/>
</g>
<g clip-path="url(#a)">
<use x="1838.767794" y="839.325413" fill="#ffffff" stroke="#ffffff" xlink:href="#b"/>
</g>
<g clip-path="url(#a)">
<use x="1460.648774" y="839.325413" fill="#ffffff" stroke="#ffffff" xlink:href="#b"/>
</g>
<g clip-path="url(#a)">
<use x="1555.178529" y="839.325413" fill="#ffffff" stroke="#ffffff" xlink:href="#b"/>
</g>
<g clip-path="url(#a)">
<use x="302.659277" y="686.837802" fill="#ffffff" stroke="#ffffff" xlink:href="#b"/>
</g>
<g clip-path="url(#a)">
<use x="533.075555" y="532.228921" fill="#ffffff" stroke="#ffffff" xlink:href="#b"/>
</g>
<g clip-path="url(#a)">
<use x="373.556593" y="839.325413" fill="#ffffff" stroke="#ffffff" xlink:href="#b"/>
</g>
<g clip-path="url(#a)">
<use x="468.086348" y="686.837802" fill="#ffffff" stroke="#ffffff" xlink:href="#b"/>
</g>
<g clip-path="url(#a)">
<use x="728.043174" y="839.325413" fill="#ffffff" stroke="#ffffff" xlink:href="#b"/>
</g>
<g clip-path="url(#a)">
<use x="420.821471" y="839.325413" fill="#ffffff" stroke="#ffffff" xlink:href="#b"/>
</g>
<g clip-path="url(#a)">
<use x="468.086348" y="839.325413" fill="#ffffff" stroke="#ffffff" xlink:href="#b"/>
</g>
<g clip-path="url(#a)">
<use x="515.351226" y="839.325413" fill="#ffffff" stroke="#ffffff" xlink:href="#b"/>
</g>
<g clip-path="url(#a)">
<use x="279.026839" y="839.325413" fill="#ffffff" stroke="#ffffff" xlink:href="#b"/>
</g>
<g clip-path="url(#a)">
<use x="326.291716" y="839.325413" fill="#ffffff" stroke="#ffffff" xlink:href="#b"/>
</g>
<g clip-path="url(#a)">
<use x="113.599768" y="686.837802" fill="#ffffff" stroke="#ffffff" xlink:href="#b"/>
</g>
<g clip-path="url(#a)">
<use x="940.735123" y="839.325413" fill="#ffffff" stroke="#ffffff" xlink:href="#b"/>
</g>
<g clip-path="url(#a)">
<use x="1011.632439" y="839.325413" fill="#ffffff" stroke="#ffffff" xlink:href="#b"/>
</g>
<g clip-path="url(#a)">
<use x="1141.610852" y="532.228921" fill="#ffffff" stroke="#ffffff" xlink:href="#b"/>
</g>
<g clip-path="url(#a)">
<use x="1106.162194" y="686.837802" fill="#ffffff" stroke="#ffffff" xlink:href="#b"/>
</g>
<g clip-path="url(#a)">
<use x="1177.05951" y="839.325413" fill="#ffffff" stroke="#ffffff" xlink:href="#b"/>
</g>
<g clip-path="url(#a)">
<use x="1082.529755" y="839.325413" fill="#ffffff" stroke="#ffffff" xlink:href="#b"/>
</g>
<g clip-path="url(#a)">
<use x="1129.794632" y="839.325413" fill="#ffffff" stroke="#ffffff" xlink:href="#b"/>
</g>
<g clip-path="url(#a)">
<use x="89.967329" y="839.325413" fill="#ffffff" stroke="#ffffff" xlink:href="#b"/>
</g>
<g clip-path="url(#a)">
<use x="137.232206" y="839.325413" fill="#ffffff" stroke="#ffffff" xlink:href="#b"/>
</g>
<g clip-path="url(#a)">
<use x="1096.019939" y="48.186976" fill="#808080" stroke="#808080" xlink:href="#b"/>
</g>
<g clip-path="url(#a)">
<use x="483.841307" y="213.466304" fill="#808080" stroke="#808080" xlink:href="#b"/>
</g>
<g clip-path="url(#a)">
<use x="184.497084" y="839.325413" fill="#ffffff" stroke="#ffffff" xlink:href="#b"/>
</g>
<g clip-path="url(#a)">
<use x="562.616103" y="839.325413" fill="#ffffff" stroke="#ffffff" xlink:href="#b"/>
</g>
<g clip-path="url(#a)">
<use x="893.470245" y="839.325413" fill="#ffffff" stroke="#ffffff" xlink:href="#b"/>
</g>
<g clip-path="url(#a)">
<use x="1507.913652" y="839.325413" fill="#ffffff" stroke="#ffffff" xlink:href="#b"/>
</g>
<g clip-path="url(#a)">
<use x="1886.032671" y="839.325413" fill="#ffffff" stroke="#ffffff" xlink:href="#b"/>
</g>
<g clip-path="url(#a)">
<defs>
<path id="at" d="m9.8125 72.906h9.8594v-72.906h-9.8594z"/>
</defs>
<g transform="translate(85.324 994.57) scale(.1 -.1)">
<use xlink:href="#at"/>
<use x="29.492188" xlink:href="#g"/>
</g>
</g>
<g clip-path="url(#a)">
<defs>
<path id="c" d="m12.406 8.2969h16.109v55.625l-17.531-3.5156v8.9844l17.438 3.5156h9.8594v-64.609h16.109v-8.2969h-41.984z"/>
<path id="aa" d="m10.984 1.5156v8.9844q3.7188-1.7656 7.5156-2.6875 3.8125-0.92188 7.4844-0.92188 9.7656 0 14.906 6.5625 5.1562 6.5625 5.8906 19.953-2.8281-4.2031-7.1875-6.4531-4.3438-2.25-9.6094-2.25-10.938 0-17.312 6.6094-6.375 6.625-6.375 18.109 0 11.219 6.6406 18 6.6406 6.7969 17.672 6.7969 12.656 0 19.312-9.7031 6.6719-9.6875 6.6719-28.141 0-17.234-8.1875-27.516-8.1719-10.281-21.984-10.281-3.7188 0-7.5312 0.73438-3.7969 0.73438-7.9062 2.2031zm19.625 30.906q6.6406 0 10.516 4.5312 3.8906 4.5469 3.8906 12.469 0 7.8594-3.8906 12.422-3.875 4.5625-10.516 4.5625t-10.516-4.5625-3.875-12.422q0-7.9219 3.875-12.469 3.875-4.5312 10.516-4.5312z"/>
<path id="n" d="m40.578 39.312q7.0781-1.5156 11.047-6.3125 3.9844-4.7812 3.9844-11.812 0-10.781-7.4219-16.703-7.4219-5.9062-21.094-5.9062-4.5781 0-9.4375 0.90625t-10.031 2.7188v9.5156q4.0938-2.3906 8.9688-3.6094 4.8906-1.2188 10.219-1.2188 9.2656 0 14.125 3.6562t4.8594 10.641q0 6.4531-4.5156 10.078-4.5156 3.6406-12.562 3.6406h-8.5v8.1094h8.8906q7.2656 0 11.125 2.9062t3.8594 8.375q0 5.6094-3.9844 8.6094-3.9688 3.0156-11.391 3.0156-4.0625 0-8.7031-0.89062-4.6406-0.875-10.203-2.7188v8.7812q5.625 1.5625 10.531 2.3438t9.25 0.78125q11.234 0 17.766-5.1094 6.5469-5.0938 6.5469-13.781 0-6.0625-3.4688-10.234t-9.8594-5.7812z"/>
<path id="ae" d="m33.016 40.375q-6.6406 0-10.531-4.5469-3.875-4.5312-3.875-12.438 0-7.8594 3.875-12.438 3.8906-4.5625 10.531-4.5625t10.516 4.5625q3.875 4.5781 3.875 12.438 0 7.9062-3.875 12.438-3.875 4.5469-10.516 4.5469zm19.578 30.922v-8.9844q-3.7188 1.75-7.5 2.6719-3.7812 0.9375-7.5 0.9375-9.7656 0-14.922-6.5938-5.1406-6.5938-5.875-19.922 2.875 4.25 7.2188 6.5156 4.3594 2.2656 9.5781 2.2656 10.984 0 17.359-6.6719 6.375-6.6562 6.375-18.125 0-11.234-6.6406-18.031-6.6406-6.7812-17.672-6.7812-12.656 0-19.344 9.6875-6.6875 9.7031-6.6875 28.109 0 17.281 8.2031 27.562t22.016 10.281q3.7188 0 7.5-0.73438t7.8906-2.1875z"/>
</defs>
<g transform="translate(124.51 994.57) scale(.1 -.1)">
<use xlink:href="#c"/>
<use x="63.623047" xlink:href="#aa"/>
<use x="127.246094" xlink:href="#n"/>
<use x="190.869141" xlink:href="#ae"/>
</g>
</g>
<g clip-path="url(#a)">
<defs>
<path id="al" d="m11.719 12.406h10.297v-8.4062l-8-15.625h-6.2969l4 15.625z"/>
</defs>
<g transform="translate(182.91 994.57) scale(.1 -.1)">
<use xlink:href="#al"/>
</g>
</g>
<g clip-path="url(#a)">
<defs>
<path id="an" d="m37.109 75.984v-7.4844h-8.5938q-4.8281 0-6.7188-1.9531-1.875-1.9531-1.875-7.0312v-4.8281h14.797v-6.9844h-14.797v-47.703h-9.0312v47.703h-8.5938v6.9844h8.5938v3.8125q0 9.125 4.25 13.297 4.25 4.1875 13.469 4.1875z"/>
<path id="s" d="m30.609 48.391q-7.2188 0-11.422-5.6406t-4.2031-15.453 4.1719-15.453q4.1875-5.6406 11.453-5.6406 7.1875 0 11.375 5.6562 4.2031 5.6719 4.2031 15.438 0 9.7188-4.2031 15.406-4.1875 5.6875-11.375 5.6875zm0 7.6094q11.719 0 18.406-7.625 6.7031-7.6094 6.7031-21.078 0-13.422-6.7031-21.078-6.6875-7.6406-18.406-7.6406-11.766 0-18.438 7.6406-6.6562 7.6562-6.6562 21.078 0 13.469 6.6562 21.078 6.6719 7.625 18.438 7.625z"/>
<path id="ap" d="m4.2031 54.688h8.9844l11.234-42.672 11.172 42.672h10.594l11.234-42.672 11.188 42.672h8.9844l-14.312-54.688h-10.594l-11.766 44.828-11.812-44.828h-10.609z"/>
<path id="ab" d="m45.406 27.984q0 9.7656-4.0312 15.125-4.0156 5.375-11.297 5.375-7.2188 0-11.25-5.375-4.0312-5.3594-4.0312-15.125 0-9.7188 4.0312-15.094t11.25-5.375q7.2812 0 11.297 5.375 4.0312 5.375 4.0312 15.094zm8.9844-21.203q0-13.953-6.2031-20.766-6.1875-6.8125-18.984-6.8125-4.7344 0-8.9375 0.70312t-8.1562 2.1719v8.7344q3.9531-2.1406 7.8125-3.1562 3.8594-1.0312 7.8594-1.0312 8.8438 0 13.234 4.6094t4.3906 13.938v4.4531q-2.7812-4.8438-7.125-7.2344t-10.406-2.3906q-10.047 0-16.203 7.6562-6.1562 7.6719-6.1562 20.328 0 12.688 6.1562 20.344 6.1562 7.6719 16.203 7.6719 6.0625 0 10.406-2.3906t7.125-7.2188v8.2969h8.9844z"/>
</defs>
<g transform="translate(209.28 994.57) scale(.1 -.1)">
<use xlink:href="#an"/>
<use x="35.205078" xlink:href="#s"/>
<use x="96.386719" xlink:href="#i"/>
<use x="124.169922" xlink:href="#i"/>
<use x="151.953125" xlink:href="#s"/>
<use x="213.134766" xlink:href="#ap"/>
<use x="294.921875" xlink:href="#j"/>
<use x="322.705078" xlink:href="#g"/>
<use x="386.083984" xlink:href="#ab"/>
</g>
</g>
<g clip-path="url(#a)">
<defs>
<path id="q" d="m18.312 70.219v-15.531h18.5v-6.9844h-18.5v-29.688q0-6.6875 1.8281-8.5938t7.4531-1.9062h9.2188v-7.5156h-9.2188q-10.406 0-14.359 3.875-3.9531 3.8906-3.9531 14.141v29.688h-6.5938v6.9844h6.5938v15.531z"/>
<path id="w" d="m54.891 33.016v-33.016h-8.9844v32.719q0 7.7656-3.0312 11.609-3.0312 3.8594-9.0781 3.8594-7.2812 0-11.484-4.6406-4.2031-4.625-4.2031-12.641v-30.906h-9.0312v75.984h9.0312v-29.797q3.2344 4.9375 7.5938 7.375 4.375 2.4375 10.094 2.4375 9.4219 0 14.25-5.8281 4.8438-5.8281 4.8438-17.156z"/>
</defs>
<g transform="translate(270.82 994.57) scale(.1 -.1)">
<use xlink:href="#q"/>
<use x="39.208984" xlink:href="#w"/>
<use x="102.587891" xlink:href="#d"/>
</g>
</g>
<g clip-path="url(#a)">
<defs>
<path id="x" d="m44.281 53.078v-8.5q-3.7969 1.9531-7.9062 2.9219-4.0938 0.98438-8.5 0.98438-6.6875 0-10.031-2.0469t-3.3438-6.1562q0-3.125 2.3906-4.9062t9.625-3.3906l3.0781-0.6875q9.5625-2.0469 13.594-5.7812t4.0312-10.422q0-7.625-6.0312-12.078-6.0312-4.4375-16.578-4.4375-4.3906 0-9.1562 0.85938t-10.031 2.5625v9.2812q4.9844-2.5938 9.8125-3.8906 4.8281-1.2812 9.5781-1.2812 6.3438 0 9.75 2.1719 3.4219 2.1719 3.4219 6.125 0 3.6562-2.4688 5.6094-2.4531 1.9531-10.812 3.7656l-3.125 0.73438q-8.3438 1.75-12.062 5.3906-3.7031 3.6406-3.7031 9.9844 0 7.7188 5.4688 11.906 5.4688 4.2031 15.531 4.2031 4.9688 0 9.3594-0.73438 4.4062-0.71875 8.1094-2.1875z"/>
<path id="aj" d="m8.5 21.578v33.109h8.9844v-32.766q0-7.7656 3.0156-11.656 3.0312-3.875 9.0938-3.875 7.2656 0 11.484 4.6406 4.2344 4.6406 4.2344 12.656v31h8.9844v-54.688h-8.9844v8.4062q-3.2656-4.9844-7.5938-7.4062-4.3125-2.4219-10.031-2.4219-9.4219 0-14.312 5.8594-4.875 5.8594-4.875 17.141z"/>
<path id="y" d="m48.781 52.594v-8.4062q-3.8125 2.1094-7.6406 3.1562t-7.7344 1.0469q-8.75 0-13.594-5.5469-4.8281-5.5312-4.8281-15.547t4.8281-15.562q4.8438-5.5312 13.594-5.5312 3.9062 0 7.7344 1.0469t7.6406 3.1562v-8.3125q-3.7656-1.75-7.7969-2.625-4.0156-0.89062-8.5625-0.89062-12.359 0-19.641 7.7656-7.2656 7.7656-7.2656 20.953 0 13.375 7.3438 21.031 7.3594 7.6719 20.156 7.6719 4.1406 0 8.0938-0.85938 3.9531-0.84375 7.6719-2.5469z"/>
</defs>
<g transform="translate(306.73 994.57) scale(.1 -.1)">
<use xlink:href="#x"/>
<use x="52.099609" xlink:href="#aj"/>
<use x="115.478516" xlink:href="#y"/>
<use x="170.458984" xlink:href="#y"/>
<use x="225.439453" xlink:href="#d"/>
<use x="286.962891" xlink:href="#x"/>
<use x="339.0625" xlink:href="#x"/>
</g>
</g>
<g clip-path="url(#a)">
<g transform="translate(368.74 994.57) scale(.1 -.1)">
<use xlink:href="#s"/>
<use x="61.181641" xlink:href="#an"/>
</g>
</g>
<g clip-path="url(#a)">
<g transform="translate(401.27 994.57) scale(.1 -.1)">
<use xlink:href="#e"/>
<use x="61.279297" xlink:href="#g"/>
<use x="124.658203" xlink:href="#s"/>
<use x="185.839844" xlink:href="#q"/>
<use x="225.048828" xlink:href="#w"/>
<use x="288.427734" xlink:href="#d"/>
<use x="349.951172" xlink:href="#h"/>
</g>
</g>
<g clip-path="url(#a)">
<g transform="translate(446.6 994.57) scale(.1 -.1)">
<use xlink:href="#y"/>
<use x="54.980469" xlink:href="#s"/>
<use x="116.162109" xlink:href="#x"/>
<use x="168.261719" xlink:href="#q"/>
<use x="207.470703" xlink:href="#aj"/>
<use x="270.849609" xlink:href="#k"/>
<use x="368.261719" xlink:href="#d"/>
</g>
</g>
<g clip-path="url(#a)">
<defs>
<path id="aq" d="m18.109 8.2031v-29h-9.0312v75.484h9.0312v-8.2969q2.8438 4.875 7.1562 7.2344 4.3281 2.375 10.328 2.375 9.9688 0 16.188-7.9062 6.2344-7.9062 6.2344-20.797t-6.2344-20.812q-6.2188-7.9062-16.188-7.9062-6 0-10.328 2.375-4.3125 2.375-7.1562 7.25zm30.578 19.094q0 9.9062-4.0781 15.547t-11.203 5.6406q-7.1406 0-11.219-5.6406t-4.0781-15.547 4.0781-15.547 11.219-5.6406q7.125 0 11.203 5.6406t4.0781 15.547z"/>
</defs>
<g transform="translate(504.96 994.57) scale(.1 -.1)">
<use xlink:href="#d"/>
<use x="61.523438" xlink:href="#aq"/>
<use x="125" xlink:href="#j"/>
<use x="152.783203" xlink:href="#y"/>
</g>
</g>
<g clip-path="url(#a)">
<g transform="translate(561.03 994.57) scale(.1 -.1)">
<use xlink:href="#al"/>
</g>
</g>
<g clip-path="url(#a)">
<g transform="translate(600.58 994.57) scale(.1 -.1)">
<use xlink:href="#l"/>
<use x="61.083984" xlink:href="#w"/>
<use x="124.462891" xlink:href="#d"/>
</g>
</g>
<g clip-path="url(#a)">
<g transform="translate(639.12 994.57) scale(.1 -.1)">
<use xlink:href="#t"/>
<use x="69.824219" xlink:href="#w"/>
<use x="133.203125" xlink:href="#e"/>
<use x="194.482422" xlink:href="#h"/>
<use x="235.580078" xlink:href="#ab"/>
<use x="299.056641" xlink:href="#d"/>
</g>
</g>
<g clip-path="url(#a)">
<g transform="translate(699.59 994.57) scale(.1 -.1)">
<use xlink:href="#s"/>
<use x="61.181641" xlink:href="#an"/>
</g>
</g>
<g clip-path="url(#a)">
<g transform="translate(743.47 994.57) scale(.1 -.1)">
<use xlink:href="#q"/>
<use x="39.208984" xlink:href="#w"/>
<use x="102.587891" xlink:href="#d"/>
</g>
</g>
<g clip-path="url(#a)">
<g transform="translate(786.46 994.57) scale(.1 -.1)">
<use xlink:href="#v"/>
<use x="55.712891" xlink:href="#j"/>
<use x="83.496094" xlink:href="#ab"/>
<use x="146.972656" xlink:href="#w"/>
<use x="210.351562" xlink:href="#q"/>
</g>
</g>
<g clip-path="url(#a)">
<defs>
<path id="av" d="m19.672 34.812v-26.703h15.828q7.9531 0 11.781 3.2969 3.8438 3.2969 3.8438 10.078 0 6.8438-3.8438 10.078-3.8281 3.25-11.781 3.25zm0 29.984v-21.969h14.609q7.2188 0 10.75 2.7031 3.5469 2.7188 3.5469 8.2812 0 5.5156-3.5469 8.25-3.5312 2.7344-10.75 2.7344zm-9.8594 8.1094h25.203q11.281 0 17.375-4.6875 6.1094-4.6875 6.1094-13.328 0-6.7031-3.125-10.656t-9.1875-4.9219q7.2812-1.5625 11.312-6.5312 4.0312-4.9531 4.0312-12.375 0-9.7656-6.6406-15.094-6.6406-5.3125-18.906-5.3125h-26.172z"/>
<path id="ac" d="m45.406 46.391v29.594h8.9844v-75.984h-8.9844v8.2031q-2.8281-4.875-7.1562-7.25-4.3125-2.375-10.375-2.375-9.9062 0-16.141 7.9062-6.2188 7.9219-6.2188 20.812t6.2188 20.797q6.2344 7.9062 16.141 7.9062 6.0625 0 10.375-2.375 4.3281-2.3594 7.1562-7.2344zm-30.609-19.094q0-9.9062 4.0781-15.547t11.203-5.6406 11.219 5.6406q4.1094 5.6406 4.1094 15.547t-4.1094 15.547q-4.0938 5.6406-11.219 5.6406t-11.203-5.6406-4.0781-15.547z"/>
</defs>
<g transform="translate(826.84 994.57) scale(.1 -.1)">
<use xlink:href="#av"/>
<use x="68.603516" xlink:href="#h"/>
<use x="109.716797" xlink:href="#j"/>
<use x="137.5" xlink:href="#ab"/>
<use x="200.976562" xlink:href="#e"/>
<use x="262.255859" xlink:href="#ac"/>
<use x="325.732422" xlink:href="#d"/>
</g>
</g>
<g clip-path="url(#a)">
<g transform="translate(891.88 994.57) scale(.1 -.1)">
<use xlink:href="#al"/>
</g>
</g>
<g clip-path="url(#a)">
<defs>
<path id="as" d="m3.3281 72.906h9.9531l15.328-61.625 15.281 61.625h11.094l15.328-61.625 15.281 61.625h10.016l-18.312-72.906h-12.406l-15.375 63.281-15.531-63.281h-12.406z"/>
</defs>
<g transform="translate(922.38 994.57) scale(.1 -.1)">
<use xlink:href="#as"/>
<use x="98.783203" xlink:href="#e"/>
<use x="160.0625" xlink:href="#h"/>
<use x="201.160156" xlink:href="#g"/>
<use x="264.539062" xlink:href="#d"/>
<use x="326.0625" xlink:href="#h"/>
</g>
</g>
<g clip-path="url(#a)">
<g transform="translate(977.85 994.57) scale(.1 -.1)">
<use xlink:href="#q"/>
<use x="39.208984" xlink:href="#s"/>
<use x="100.390625" xlink:href="#h"/>
<use x="141.472656" xlink:href="#d"/>
</g>
</g>
<g clip-path="url(#a)">
<g transform="translate(1028.9 994.57) scale(.1 -.1)">
<use xlink:href="#aj"/>
<use x="63.378906" xlink:href="#aq"/>
</g>
</g>
<g clip-path="url(#a)">
<defs>
<path id="am" d="m32.172-5.0781q-3.7969-9.7656-7.4219-12.734-3.6094-2.9844-9.6562-2.9844h-7.1875v7.5156h5.2812q3.7031 0 5.75 1.7656 2.0625 1.75 4.5469 8.2969l1.6094 4.0938-22.109 53.812h9.5156l17.094-42.766 17.094 42.766h9.5156z"/>
</defs>
<g transform="translate(1069 994.57) scale(.1 -.1)">
<use xlink:href="#ao"/>
<use x="57.519531" xlink:href="#i"/>
<use x="85.302734" xlink:href="#am"/>
<use x="144.482422" xlink:href="#g"/>
<use x="207.861328" xlink:href="#g"/>
</g>
</g>
<g clip-path="url(#a)">
<defs>
<path id="ax" d="m17.922 72.906v-27.109h-8.2969v27.109z"/>
</defs>
<g transform="translate(1125.8 994.57) scale(.1 -.1)">
<use xlink:href="#ax"/>
<use x="27.490234" xlink:href="#x"/>
</g>
</g>
<g clip-path="url(#a)">
<g transform="translate(1156.3 994.57) scale(.1 -.1)">
<use xlink:href="#y"/>
<use x="54.980469" xlink:href="#s"/>
<use x="116.162109" xlink:href="#g"/>
<use x="179.541016" xlink:href="#q"/>
<use x="218.75" xlink:href="#h"/>
<use x="259.863281" xlink:href="#e"/>
<use x="321.142578" xlink:href="#y"/>
<use x="376.123047" xlink:href="#q"/>
</g>
</g>
<g clip-path="url(#a)">
<g transform="translate(1214.9 994.57) scale(.1 -.1)">
<use xlink:href="#e"/>
<use x="61.279297" xlink:href="#g"/>
<use x="124.658203" xlink:href="#ac"/>
</g>
</g>
<g clip-path="url(#a)">
<g transform="translate(1255 994.57) scale(.1 -.1)">
<use xlink:href="#x"/>
<use x="52.099609" xlink:href="#j"/>
<use x="79.882812" xlink:href="#ab"/>
<use x="143.359375" xlink:href="#g"/>
<use x="206.738281" xlink:href="#d"/>
<use x="268.261719" xlink:href="#ac"/>
</g>
</g>
<g clip-path="url(#a)">
<g transform="translate(1309.4 994.57) scale(.1 -.1)">
<use xlink:href="#w"/>
<use x="63.378906" xlink:href="#j"/>
<use x="91.162109" xlink:href="#k"/>
</g>
</g>
<g clip-path="url(#a)">
<g transform="translate(1361.1 994.57) scale(.1 -.1)">
<use xlink:href="#q"/>
<use x="39.208984" xlink:href="#s"/>
</g>
</g>
<g clip-path="url(#a)">
<g transform="translate(1410.3 994.57) scale(.1 -.1)">
<use xlink:href="#e"/>
</g>
</g>
<g clip-path="url(#a)">
<g transform="translate(1449.9 994.57) scale(.1 -.1)">
<use xlink:href="#i"/>
<use x="27.783203" xlink:href="#s"/>
<use x="88.964844" xlink:href="#g"/>
<use x="152.34375" xlink:href="#ab"/>
</g>
</g>
<g clip-path="url(#a)">
<defs>
<path id="aw" d="m4.8906 31.391h26.312v-8h-26.312z"/>
</defs>
<g transform="translate(1506.1 994.57) scale(.1 -.1)">
<use xlink:href="#aw"/>
</g>
</g>
<g clip-path="url(#a)">
<g transform="translate(1543.2 994.57) scale(.1 -.1)">
<use xlink:href="#q"/>
<use x="39.208984" xlink:href="#d"/>
<use x="100.732422" xlink:href="#h"/>
<use x="141.830078" xlink:href="#k"/>
</g>
</g>
<g clip-path="url(#a)">
<g transform="translate(1591.7 994.57) scale(.1 -.1)">
<use xlink:href="#ac"/>
<use x="63.476562" xlink:href="#d"/>
<use x="125" xlink:href="#e"/>
<use x="186.279297" xlink:href="#i"/>
</g>
</g>
<g clip-path="url(#a)">
<g transform="translate(1639.6 994.57) scale(.1 -.1)">
<use xlink:href="#q"/>
<use x="39.208984" xlink:href="#w"/>
<use x="102.587891" xlink:href="#e"/>
<use x="163.867188" xlink:href="#q"/>
</g>
</g>
<g clip-path="url(#a)">
<defs>
<path id="ar" d="m48.688 27.297q0 9.9062-4.0781 15.547t-11.203 5.6406q-7.1406 0-11.219-5.6406t-4.0781-15.547 4.0781-15.547 11.219-5.6406q7.125 0 11.203 5.6406t4.0781 15.547zm-30.578 19.094q2.8438 4.875 7.1562 7.2344 4.3281 2.375 10.328 2.375 9.9688 0 16.188-7.9062 6.2344-7.9062 6.2344-20.797t-6.2344-20.812q-6.2188-7.9062-16.188-7.9062-6 0-10.328 2.375-4.3125 2.375-7.1562 7.25v-8.2031h-9.0312v75.984h9.0312z"/>
</defs>
<g transform="translate(1676.8 994.57) scale(.1 -.1)">
<use xlink:href="#ac"/>
<use x="63.476562" xlink:href="#s"/>
<use x="124.658203" xlink:href="#aj"/>
<use x="188.037109" xlink:href="#ar"/>
<use x="251.513672" xlink:href="#i"/>
<use x="279.296875" xlink:href="#d"/>
<use x="340.820312" xlink:href="#ac"/>
</g>
</g>
<g clip-path="url(#a)">
<g transform="translate(1737.1 994.57) scale(.1 -.1)">
<use xlink:href="#w"/>
<use x="63.378906" xlink:href="#j"/>
<use x="91.162109" xlink:href="#x"/>
</g>
</g>
<g clip-path="url(#a)">
<defs>
<path id="ay" d="m9.0781 75.984h9.0312v-44.875l26.812 23.578h11.469l-29-25.578 30.234-29.109h-11.719l-27.797 26.703v-26.703h-9.0312z"/>
</defs>
<g transform="translate(1774 994.57) scale(.1 -.1)">
<use xlink:href="#ap"/>
<use x="81.787109" xlink:href="#d"/>
<use x="143.310547" xlink:href="#d"/>
<use x="204.833984" xlink:href="#ay"/>
<use x="262.744141" xlink:href="#i"/>
<use x="290.527344" xlink:href="#am"/>
</g>
</g>
<g clip-path="url(#a)">
<g transform="translate(1823.6 994.57) scale(.1 -.1)">
<use xlink:href="#x"/>
<use x="52.099609" xlink:href="#e"/>
<use x="113.378906" xlink:href="#i"/>
<use x="141.162109" xlink:href="#e"/>
<use x="202.441406" xlink:href="#h"/>
<use x="243.554688" xlink:href="#am"/>
</g>
</g>
<g clip-path="url(#a)">
<defs>
<path id="f" d="m10.688 12.406h10.312v-12.406h-10.312z"/>
</defs>
<g transform="translate(1884.4 994.57) scale(.1 -.1)">
<use xlink:href="#f"/>
</g>
</g>
<g clip-path="url(#a)">
<g transform="translate(708.57 50.946) scale(.1 -.1)">
<use xlink:href="#c"/>
<use x="63.623047" xlink:href="#f"/>
<use x="95.410156" xlink:href="#c"/>
</g>
</g>
<g clip-path="url(#a)">
<defs>
<path id="o" d="m19.188 8.2969h34.422v-8.2969h-46.281v8.2969q5.6094 5.8125 15.297 15.594 9.7031 9.7969 12.188 12.641 4.7344 5.3125 6.6094 9 1.8906 3.6875 1.8906 7.25 0 5.8125-4.0781 9.4688-4.0781 3.6719-10.625 3.6719-4.6406 0-9.7969-1.6094-5.1406-1.6094-11-4.8906v9.9688q5.9531 2.3906 11.125 3.6094 5.1875 1.2188 9.4844 1.2188 11.328 0 18.062-5.6719 6.7344-5.6562 6.7344-15.125 0-4.5-1.6875-8.5312-1.6719-4.0156-6.125-9.4844-1.2188-1.4219-7.7656-8.1875-6.5312-6.7656-18.453-18.922z"/>
</defs>
<g transform="translate(793.94 377.4) scale(.1 -.1)">
<use xlink:href="#c"/>
<use x="63.623047" xlink:href="#f"/>
<use x="95.410156" xlink:href="#o"/>
</g>
</g>
<g clip-path="url(#a)">
<g transform="translate(223.81 842.08) scale(.1 -.1)">
<use xlink:href="#c"/>
<use x="63.623047" xlink:href="#f"/>
<use x="95.410156" xlink:href="#n"/>
</g>
</g>
<g clip-path="url(#a)">
<defs>
<path id="m" d="m37.797 64.312-24.906-38.922h24.906zm-2.5938 8.5938h12.406v-47.516h10.406v-8.2031h-10.406v-17.188h-9.8125v17.188h-32.906v9.5156z"/>
</defs>
<g transform="translate(409.92 377.4) scale(.1 -.1)">
<use xlink:href="#c"/>
<use x="63.623047" xlink:href="#f"/>
<use x="95.410156" xlink:href="#m"/>
</g>
</g>
<g clip-path="url(#a)">
<defs>
<path id="u" d="m10.797 72.906h38.719v-8.3125h-29.688v-17.859q2.1406 0.73438 4.2812 1.0938 2.1562 0.35938 4.3125 0.35938 12.203 0 19.328-6.6875 7.1406-6.6875 7.1406-18.109 0-11.766-7.3281-18.297-7.3281-6.5156-20.656-6.5156-4.5938 0-9.3594 0.78125-4.75 0.78125-9.8281 2.3438v9.9219q4.3906-2.3906 9.0781-3.5625t9.9062-1.1719q8.4531 0 13.375 4.4375 4.9375 4.4375 4.9375 12.062 0 7.6094-4.9375 12.047-4.9219 4.4531-13.375 4.4531-3.9531 0-7.8906-0.875-3.9219-0.875-8.0156-2.7344z"/>
</defs>
<g transform="translate(1216.4 842.08) scale(.1 -.1)">
<use xlink:href="#c"/>
<use x="63.623047" xlink:href="#f"/>
<use x="95.410156" xlink:href="#u"/>
</g>
</g>
<g clip-path="url(#a)">
<g transform="translate(1253.9 216.23) scale(.1 -.1)">
<use xlink:href="#c"/>
<use x="63.623047" xlink:href="#f"/>
<use x="95.410156" xlink:href="#ae"/>
</g>
</g>
<g clip-path="url(#a)">
<g transform="translate(1263.6 842.08) scale(.1 -.1)">
<use xlink:href="#c"/>
<use x="63.623047" xlink:href="#f"/>
<use x="95.410156" xlink:href="#aa"/>
</g>
</g>
<g clip-path="url(#a)">
<defs>
<path id="af" d="m31.781 66.406q-7.6094 0-11.453-7.5-3.8281-7.4844-3.8281-22.531 0-14.984 3.8281-22.484 3.8438-7.5 11.453-7.5 7.6719 0 11.5 7.5 3.8438 7.5 3.8438 22.484 0 15.047-3.8438 22.531-3.8281 7.5-11.5 7.5zm0 7.8125q12.266 0 18.734-9.7031 6.4688-9.6875 6.4688-28.141 0-18.406-6.4688-28.109-6.4688-9.6875-18.734-9.6875-12.25 0-18.719 9.6875-6.4688 9.7031-6.4688 28.109 0 18.453 6.4688 28.141 6.4688 9.7031 18.719 9.7031z"/>
</defs>
<g transform="translate(1307.7 842.08) scale(.1 -.1)">
<use xlink:href="#c"/>
<use x="63.623047" xlink:href="#f"/>
<use x="95.410156" xlink:href="#c"/>
<use x="159.033203" xlink:href="#af"/>
</g>
</g>
<g clip-path="url(#a)">
<g transform="translate(1505.1 377.4) scale(.1 -.1)">
<use xlink:href="#c"/>
<use x="63.623047" xlink:href="#f"/>
<use x="95.410156" xlink:href="#c"/>
<use x="159.033203" xlink:href="#c"/>
</g>
</g>
<g clip-path="url(#a)">
<g transform="translate(1355 842.08) scale(.1 -.1)">
<use xlink:href="#c"/>
<use x="63.623047" xlink:href="#f"/>
<use x="95.410156" xlink:href="#c"/>
<use x="159.033203" xlink:href="#o"/>
</g>
</g>
<g clip-path="url(#a)">
<g transform="translate(1402.3 842.08) scale(.1 -.1)">
<use xlink:href="#c"/>
<use x="63.623047" xlink:href="#f"/>
<use x="95.410156" xlink:href="#c"/>
<use x="159.033203" xlink:href="#n"/>
</g>
</g>
<g clip-path="url(#a)">
<g transform="translate(1496.8 689.6) scale(.1 -.1)">
<use xlink:href="#c"/>
<use x="63.623047" xlink:href="#f"/>
<use x="95.410156" xlink:href="#c"/>
<use x="159.033203" xlink:href="#m"/>
</g>
</g>
<g clip-path="url(#a)">
<g transform="translate(1591.3 842.08) scale(.1 -.1)">
<use xlink:href="#c"/>
<use x="63.623047" xlink:href="#f"/>
<use x="95.410156" xlink:href="#c"/>
<use x="159.033203" xlink:href="#u"/>
</g>
</g>
<g clip-path="url(#a)">
<g transform="translate(1679.9 534.99) scale(.1 -.1)">
<use xlink:href="#c"/>
<use x="63.623047" xlink:href="#f"/>
<use x="95.410156" xlink:href="#c"/>
<use x="159.033203" xlink:href="#ae"/>
</g>
</g>
<g clip-path="url(#a)">
<defs>
<path id="ai" d="m8.2031 72.906h46.875v-4.2031l-26.469-68.703h-10.297l24.906 64.594h-35.016z"/>
</defs>
<g transform="translate(1638.6 842.08) scale(.1 -.1)">
<use xlink:href="#c"/>
<use x="63.623047" xlink:href="#f"/>
<use x="95.410156" xlink:href="#c"/>
<use x="159.033203" xlink:href="#ai"/>
</g>
</g>
<g clip-path="url(#a)">
<defs>
<path id="ah" d="m31.781 34.625q-7.0312 0-11.062-3.7656-4.0156-3.7656-4.0156-10.344 0-6.5938 4.0156-10.359 4.0312-3.7656 11.062-3.7656t11.078 3.7812q4.0625 3.7969 4.0625 10.344 0 6.5781-4.0312 10.344-4.0156 3.7656-11.109 3.7656zm-9.8594 4.1875q-6.3438 1.5625-9.8906 5.9062-3.5312 4.3594-3.5312 10.609 0 8.7344 6.2188 13.812 6.2344 5.0781 17.062 5.0781 10.891 0 17.094-5.0781t6.2031-13.812q0-6.25-3.5469-10.609-3.5312-4.3438-9.8281-5.9062 7.125-1.6562 11.094-6.5 3.9844-4.8281 3.9844-11.797 0-10.609-6.4688-16.281-6.4688-5.6562-18.531-5.6562-12.047 0-18.531 5.6562-6.4688 5.6719-6.4688 16.281 0 6.9688 4 11.797 4.0156 4.8438 11.141 6.5zm-3.6094 15.578q0-5.6562 3.5312-8.8281 3.5469-3.1719 9.9375-3.1719 6.3594 0 9.9375 3.1719 3.5938 3.1719 3.5938 8.8281 0 5.6719-3.5938 8.8438-3.5781 3.1719-9.9375 3.1719-6.3906 0-9.9375-3.1719-3.5312-3.1719-3.5312-8.8438z"/>
</defs>
<g transform="translate(1685.8 842.08) scale(.1 -.1)">
<use xlink:href="#c"/>
<use x="63.623047" xlink:href="#f"/>
<use x="95.410156" xlink:href="#c"/>
<use x="159.033203" xlink:href="#ah"/>
</g>
</g>
<g clip-path="url(#a)">
<g transform="translate(1804 689.6) scale(.1 -.1)">
<use xlink:href="#c"/>
<use x="63.623047" xlink:href="#f"/>
<use x="95.410156" xlink:href="#c"/>
<use x="159.033203" xlink:href="#aa"/>
</g>
</g>
<g clip-path="url(#a)">
<g transform="translate(1733.1 842.08) scale(.1 -.1)">
<use xlink:href="#c"/>
<use x="63.623047" xlink:href="#f"/>
<use x="95.410156" xlink:href="#o"/>
<use x="159.033203" xlink:href="#af"/>
</g>
</g>
<g clip-path="url(#a)">
<g transform="translate(1780.4 842.08) scale(.1 -.1)">
<use xlink:href="#c"/>
<use x="63.623047" xlink:href="#f"/>
<use x="95.410156" xlink:href="#o"/>
<use x="159.033203" xlink:href="#c"/>
</g>
</g>
<g clip-path="url(#a)">
<g transform="translate(1827.6 842.08) scale(.1 -.1)">
<use xlink:href="#c"/>
<use x="63.623047" xlink:href="#f"/>
<use x="95.410156" xlink:href="#o"/>
<use x="159.033203" xlink:href="#o"/>
</g>
</g>
<g clip-path="url(#a)">
<g transform="translate(1449.5 842.08) scale(.1 -.1)">
<use xlink:href="#c"/>
<use x="63.623047" xlink:href="#f"/>
<use x="95.410156" xlink:href="#o"/>
<use x="159.033203" xlink:href="#m"/>
</g>
</g>
<g clip-path="url(#a)">
<g transform="translate(1544 842.08) scale(.1 -.1)">
<use xlink:href="#c"/>
<use x="63.623047" xlink:href="#f"/>
<use x="95.410156" xlink:href="#o"/>
<use x="159.033203" xlink:href="#u"/>
</g>
</g>
<g clip-path="url(#a)">
<g transform="translate(291.53 689.6) scale(.1 -.1)">
<use xlink:href="#c"/>
<use x="63.623047" xlink:href="#f"/>
<use x="95.410156" xlink:href="#o"/>
<use x="159.033203" xlink:href="#ai"/>
</g>
</g>
<g clip-path="url(#a)">
<g transform="translate(521.94 534.99) scale(.1 -.1)">
<use xlink:href="#c"/>
<use x="63.623047" xlink:href="#f"/>
<use x="95.410156" xlink:href="#o"/>
<use x="159.033203" xlink:href="#ah"/>
</g>
</g>
<g clip-path="url(#a)">
<g transform="translate(362.42 842.08) scale(.1 -.1)">
<use xlink:href="#c"/>
<use x="63.623047" xlink:href="#f"/>
<use x="95.410156" xlink:href="#o"/>
<use x="159.033203" xlink:href="#aa"/>
</g>
</g>
<g clip-path="url(#a)">
<g transform="translate(456.95 689.6) scale(.1 -.1)">
<use xlink:href="#c"/>
<use x="63.623047" xlink:href="#f"/>
<use x="95.410156" xlink:href="#n"/>
<use x="159.033203" xlink:href="#af"/>
</g>
</g>
<g clip-path="url(#a)">
<g transform="translate(716.91 842.08) scale(.1 -.1)">
<use xlink:href="#c"/>
<use x="63.623047" xlink:href="#f"/>
<use x="95.410156" xlink:href="#n"/>
<use x="159.033203" xlink:href="#c"/>
</g>
</g>
<g clip-path="url(#a)">
<g transform="translate(409.69 842.08) scale(.1 -.1)">
<use xlink:href="#c"/>
<use x="63.623047" xlink:href="#f"/>
<use x="95.410156" xlink:href="#n"/>
<use x="159.033203" xlink:href="#n"/>
</g>
</g>
<g clip-path="url(#a)">
<g transform="translate(456.95 842.08) scale(.1 -.1)">
<use xlink:href="#c"/>
<use x="63.623047" xlink:href="#f"/>
<use x="95.410156" xlink:href="#n"/>
<use x="159.033203" xlink:href="#m"/>
</g>
</g>
<g clip-path="url(#a)">
<g transform="translate(504.22 842.08) scale(.1 -.1)">
<use xlink:href="#c"/>
<use x="63.623047" xlink:href="#f"/>
<use x="95.410156" xlink:href="#n"/>
<use x="159.033203" xlink:href="#u"/>
</g>
</g>
<g clip-path="url(#a)">
<g transform="translate(267.89 842.08) scale(.1 -.1)">
<use xlink:href="#c"/>
<use x="63.623047" xlink:href="#f"/>
<use x="95.410156" xlink:href="#n"/>
<use x="159.033203" xlink:href="#ae"/>
</g>
</g>
<g clip-path="url(#a)">
<g transform="translate(315.16 842.08) scale(.1 -.1)">
<use xlink:href="#c"/>
<use x="63.623047" xlink:href="#f"/>
<use x="95.410156" xlink:href="#n"/>
<use x="159.033203" xlink:href="#ai"/>
</g>
</g>
<g clip-path="url(#a)">
<g transform="translate(102.47 689.6) scale(.1 -.1)">
<use xlink:href="#c"/>
<use x="63.623047" xlink:href="#f"/>
<use x="95.410156" xlink:href="#n"/>
<use x="159.033203" xlink:href="#ah"/>
</g>
</g>
<g clip-path="url(#a)">
<g transform="translate(929.6 842.08) scale(.1 -.1)">
<use xlink:href="#c"/>
<use x="63.623047" xlink:href="#f"/>
<use x="95.410156" xlink:href="#n"/>
<use x="159.033203" xlink:href="#aa"/>
</g>
</g>
<g clip-path="url(#a)">
<g transform="translate(1000.5 842.08) scale(.1 -.1)">
<use xlink:href="#c"/>
<use x="63.623047" xlink:href="#f"/>
<use x="95.410156" xlink:href="#m"/>
<use x="159.033203" xlink:href="#af"/>
</g>
</g>
<g clip-path="url(#a)">
<g transform="translate(1130.5 534.99) scale(.1 -.1)">
<use xlink:href="#c"/>
<use x="63.623047" xlink:href="#f"/>
<use x="95.410156" xlink:href="#m"/>
<use x="159.033203" xlink:href="#c"/>
</g>
</g>
<g clip-path="url(#a)">
<g transform="translate(1095 689.6) scale(.1 -.1)">
<use xlink:href="#c"/>
<use x="63.623047" xlink:href="#f"/>
<use x="95.410156" xlink:href="#m"/>
<use x="159.033203" xlink:href="#o"/>
</g>
</g>
<g clip-path="url(#a)">
<g transform="translate(1165.9 842.08) scale(.1 -.1)">
<use xlink:href="#c"/>
<use x="63.623047" xlink:href="#f"/>
<use x="95.410156" xlink:href="#m"/>
<use x="159.033203" xlink:href="#n"/>
</g>
</g>
<g clip-path="url(#a)">
<g transform="translate(1071.4 842.08) scale(.1 -.1)">
<use xlink:href="#c"/>
<use x="63.623047" xlink:href="#f"/>
<use x="95.410156" xlink:href="#m"/>
<use x="159.033203" xlink:href="#m"/>
</g>
</g>
<g clip-path="url(#a)">
<g transform="translate(1118.7 842.08) scale(.1 -.1)">
<use xlink:href="#c"/>
<use x="63.623047" xlink:href="#f"/>
<use x="95.410156" xlink:href="#m"/>
<use x="159.033203" xlink:href="#u"/>
</g>
</g>
<g clip-path="url(#a)">
<g transform="translate(78.835 842.08) scale(.1 -.1)">
<use xlink:href="#c"/>
<use x="63.623047" xlink:href="#f"/>
<use x="95.410156" xlink:href="#m"/>
<use x="159.033203" xlink:href="#ae"/>
</g>
</g>
<g clip-path="url(#a)">
<g transform="translate(126.1 842.08) scale(.1 -.1)">
<use xlink:href="#c"/>
<use x="63.623047" xlink:href="#f"/>
<use x="95.410156" xlink:href="#m"/>
<use x="159.033203" xlink:href="#ai"/>
</g>
</g>
<g clip-path="url(#a)">
<g transform="translate(1084.9 50.946) scale(.1 -.1)">
<use xlink:href="#c"/>
<use x="63.623047" xlink:href="#f"/>
<use x="95.410156" xlink:href="#m"/>
<use x="159.033203" xlink:href="#ah"/>
</g>
</g>
<g clip-path="url(#a)">
<g transform="translate(472.71 216.23) scale(.1 -.1)">
<use xlink:href="#c"/>
<use x="63.623047" xlink:href="#f"/>
<use x="95.410156" xlink:href="#m"/>
<use x="159.033203" xlink:href="#aa"/>
</g>
</g>
<g clip-path="url(#a)">
<g transform="translate(173.36 842.08) scale(.1 -.1)">
<use xlink:href="#c"/>
<use x="63.623047" xlink:href="#f"/>
<use x="95.410156" xlink:href="#u"/>
<use x="159.033203" xlink:href="#af"/>
</g>
</g>
<g clip-path="url(#a)">
<g transform="translate(551.48 842.08) scale(.1 -.1)">
<use xlink:href="#c"/>
<use x="63.623047" xlink:href="#f"/>
<use x="95.410156" xlink:href="#u"/>
<use x="159.033203" xlink:href="#c"/>
</g>
</g>
<g clip-path="url(#a)">
<g transform="translate(882.34 842.08) scale(.1 -.1)">
<use xlink:href="#c"/>
<use x="63.623047" xlink:href="#f"/>
<use x="95.410156" xlink:href="#u"/>
<use x="159.033203" xlink:href="#o"/>
</g>
</g>
<g clip-path="url(#a)">
<g transform="translate(1496.8 842.08) scale(.1 -.1)">
<use xlink:href="#c"/>
<use x="63.623047" xlink:href="#f"/>
<use x="95.410156" xlink:href="#u"/>
<use x="159.033203" xlink:href="#n"/>
</g>
</g>
<g clip-path="url(#a)">
<g transform="translate(1874.9 842.08) scale(.1 -.1)">
<use xlink:href="#c"/>
<use x="63.623047" xlink:href="#f"/>
<use x="95.410156" xlink:href="#u"/>
<use x="159.033203" xlink:href="#m"/>
</g>
</g>
<defs>
<clipPath id="a">
<rect width="1976" height="1040"/>
</clipPath>
</defs>
</svg>
