<?xml version="1.0" encoding="UTF-8"?>
<!DOCTYPE svg  PUBLIC '-//W3C//DTD SVG 1.1//EN'  'http://www.w3.org/Graphics/SVG/1.1/DTD/svg11.dtd'>
<svg width="1824pt" height="960pt" version="1.1" viewBox="0 0 1824 960" xmlns="http://www.w3.org/2000/svg" xmlns:xlink="http://www.w3.org/1999/xlink">
<defs>
<style type="text/css">*{stroke-linecap:butt;stroke-linejoin:round;white-space:pre;}</style>
</defs>
<path d="m0 960h1824v-960h-1824z" fill="#fff"/>
<g fill="none" stroke="#000">
<path d="m482.83 44.104v90.814" clip-path="url(#a)"/>
<path d="m482.83 134.92 559.81 87.848" clip-path="url(#a)"/>
<path d="m482.83 134.92-281.34 637.04" clip-path="url(#a)"/>
<path d="m482.83 134.92-162.92 709.01" clip-path="url(#a)"/>
<path d="m482.83 134.92-115.55 709.01" clip-path="url(#a)"/>
<path d="m1042.6 222.77-959.57 621.16" clip-path="url(#a)"/>
<path d="m1042.6 222.77-515.19 85.085" clip-path="url(#a)"/>
<path d="m1042.6 222.77 382.51 549.19" clip-path="url(#a)"/>
<path d="m1042.6 222.77 414.08 621.16" clip-path="url(#a)"/>
<path d="m1042.6 222.77 406.19 549.19" clip-path="url(#a)"/>
<path d="m1042.6 222.77 271.98 621.16" clip-path="url(#a)"/>
<path d="m201.49 771.96-71.051 143.94" clip-path="url(#a)"/>
<path d="m201.49 771.96-23.684 143.94" clip-path="url(#a)"/>
<path d="m201.49 771.96 71.051 143.94" clip-path="url(#a)"/>
<path d="m201.49 771.96 23.684 71.969" clip-path="url(#a)"/>
<path d="m319.91 843.93v71.969" clip-path="url(#a)"/>
<path d="m83.071 843.93v71.969" clip-path="url(#a)"/>
<path d="m527.45 307.85-112.81 536.08" clip-path="url(#a)"/>
<path d="m527.45 307.85-65.443 536.08" clip-path="url(#a)"/>
<path d="m527.45 307.85 167.04 82.522" clip-path="url(#a)"/>
<path d="m527.45 307.85-18.075 536.08" clip-path="url(#a)"/>
<path d="m527.45 307.85 29.292 536.08" clip-path="url(#a)"/>
<path d="m1425.1 771.96-63.156 71.969" clip-path="url(#a)"/>
<path d="m1425.1 771.96-15.789 71.969" clip-path="url(#a)"/>
<path d="m1425.1 771.96 78.946 71.969" clip-path="url(#a)"/>
<path d="m1456.7 843.93v71.969" clip-path="url(#a)"/>
<path d="m1448.8 771.96 102.63 71.969" clip-path="url(#a)"/>
<path d="m1448.8 771.96 150 71.969" clip-path="url(#a)"/>
<path d="m1448.8 771.96 197.36 71.969" clip-path="url(#a)"/>
<path d="m1448.8 771.96-986.82 71.969" clip-path="url(#a)" stroke-dasharray="3.7,1.6"/>
<path d="m1448.8 771.96 244.73 71.969" clip-path="url(#a)"/>
<path d="m1448.8 771.96 292.1 71.969" clip-path="url(#a)"/>
<path d="m1551.5 843.93v71.969" clip-path="url(#a)"/>
<path d="m1598.8 843.93v71.969" clip-path="url(#a)"/>
<path d="m1646.2 843.93v71.969" clip-path="url(#a)"/>
<path d="m1362 843.93v71.969" clip-path="url(#a)"/>
<path d="m1409.4 843.93v71.969" clip-path="url(#a)"/>
<path d="m1504.1 843.93v71.969" clip-path="url(#a)"/>
<path d="m414.64 843.93v71.969" clip-path="url(#a)"/>
<path d="m462.01 843.93v71.969" clip-path="url(#a)"/>
<path d="m694.49 390.37-90.376 453.55" clip-path="url(#a)"/>
<path d="m694.49 390.37-43.009 453.55" clip-path="url(#a)"/>
<path d="m694.49 390.37 133.39 80.161" clip-path="url(#a)"/>
<path d="m604.11 843.93v71.969" clip-path="url(#a)"/>
<path d="m651.48 843.93v71.969" clip-path="url(#a)"/>
<path d="m827.87 470.53-129.03 373.39" clip-path="url(#a)"/>
<path d="m827.87 470.53-57.976 228.45" clip-path="url(#a)"/>
<path d="m827.87 470.53-34.292 301.42" clip-path="url(#a)"/>
<path d="m827.87 470.53 221.29 78.007" clip-path="url(#a)"/>
<path d="m698.85 843.93v71.969" clip-path="url(#a)"/>
<path d="m769.9 698.99 23.684 72.971" clip-path="url(#a)" stroke-dasharray="3.7,1.6"/>
<path d="m769.9 698.99-23.684 144.94" clip-path="url(#a)"/>
<path d="m793.58 771.96v71.969" clip-path="url(#a)"/>
<path d="m1049.2 548.54-175.65 76.07" clip-path="url(#a)"/>
<path d="m1049.2 548.54 4.9341 295.39" clip-path="url(#a)"/>
<path d="m1049.2 548.54 170.72 150.45" clip-path="url(#a)"/>
<path d="m873.51 624.61-79.932 147.35" clip-path="url(#a)" stroke-dasharray="3.7,1.6"/>
<path d="m873.51 624.61-32.565 219.32" clip-path="url(#a)"/>
<path d="m873.51 624.61 14.802 219.32" clip-path="url(#a)"/>
<path d="m873.51 624.61 97.695 74.376" clip-path="url(#a)"/>
<path d="m1054.1 843.93-23.684 71.969" clip-path="url(#a)"/>
<path d="m1054.1 843.93 23.684 71.969" clip-path="url(#a)"/>
<path d="m1219.9 698.99-47.367 72.971" clip-path="url(#a)"/>
<path d="m1219.9 698.99 47.367 144.94" clip-path="url(#a)"/>
<path d="m1172.5 771.96-47.367 71.969" clip-path="url(#a)"/>
<path d="m1172.5 771.96 47.367 71.969" clip-path="url(#a)"/>
<path d="m1172.5 771.96v71.969" clip-path="url(#a)"/>
<path d="m1267.3 843.93v71.969" clip-path="url(#a)"/>
<path d="m1125.2 843.93v71.969" clip-path="url(#a)"/>
<path d="m1219.9 843.93v71.969" clip-path="url(#a)"/>
<path d="m840.95 843.93v71.969" clip-path="url(#a)"/>
<path d="m888.32 843.93v71.969" clip-path="url(#a)"/>
<path d="m971.21 698.99-11.842 72.971" clip-path="url(#a)"/>
<path d="m971.21 698.99 11.842 144.94" clip-path="url(#a)"/>
<path d="m959.37 771.96 23.684 71.969" clip-path="url(#a)" stroke-dasharray="3.7,1.6"/>
<path d="m959.37 771.96-23.684 71.969" clip-path="url(#a)"/>
<path d="m983.05 843.93v71.969" clip-path="url(#a)"/>
<path d="m935.68 843.93v71.969" clip-path="url(#a)"/>
<path d="m793.58 843.93v71.969" clip-path="url(#a)"/>
<path d="m746.21 843.93v71.969" clip-path="url(#a)"/>
<path d="m225.17 843.93v71.969" clip-path="url(#a)"/>
<path d="m367.28 843.93v71.969" clip-path="url(#a)"/>
<path d="m509.38 843.93v71.969" clip-path="url(#a)"/>
<path d="m556.74 843.93v71.969" clip-path="url(#a)"/>
<path d="m1172.5 843.93v71.969" clip-path="url(#a)"/>
<path d="m1314.6 843.93v71.969" clip-path="url(#a)"/>
<path d="m1693.6 843.93v71.969" clip-path="url(#a)"/>
<path d="m1740.9 843.93v71.969" clip-path="url(#a)"/>
</g>
<path d="m476.56 86.503v6.0162q0 2.4 2.4 2.4h7.7425q2.4 0 2.4-2.4v-6.0162q0-2.4-2.4-2.4h-7.7425q-2.4 0-2.4 2.4z" clip-path="url(#a)" fill="#fff" stroke="#fff"/>
<g clip-path="url(#a)">
<defs>
<path id="ai" d="m9.8125 72.906h9.8594v-29.891h35.844v29.891h9.8594v-72.906h-9.8594v34.719h-35.844v-34.719h-9.8594z"/>
</defs>
<g transform="translate(480.62 86.503) rotate(90) scale(.08 -.08)">
<use xlink:href="#ai"/>
</g>
</g>
<path d="m759.06 184.61 5.4063 0.84838q2.371 0.37206 2.743-1.9989l1.2003-7.6489q0.37206-2.371-1.9989-2.743l-5.4063-0.84838q-2.371-0.37206-2.743 1.9989l-1.2003 7.6489q-0.37206 2.371 1.9989 2.743z" clip-path="url(#a)" fill="#fff" stroke="#fff"/>
<g clip-path="url(#a)">
<defs>
<path id="m" d="m34.188 63.188-13.391-36.281h26.812zm-5.5781 9.7188h11.188l27.781-72.906h-10.25l-6.6406 18.703h-32.859l-6.6406-18.703h-10.406z"/>
</defs>
<g transform="translate(759.69 180.6) rotate(8.9183) scale(.08 -.08)">
<use xlink:href="#m"/>
</g>
</g>
<path d="m346.79 458.47 2.2108-5.006q0.96958-2.1954-1.2259-3.165l-7.0826-3.1279q-2.1954-0.96958-3.165 1.2259l-2.2108 5.006q-0.96958 2.1954 1.2259 3.165l7.0826 3.1279q2.1954 0.96958 3.165-1.2259z" clip-path="url(#a)" fill="#fff" stroke="#fff"/>
<g clip-path="url(#a)">
<g transform="translate(343.07 456.83) rotate(-66.172) scale(.08 -.08)">
<use xlink:href="#m"/>
</g>
</g>
<path d="m406.94 493.18 1.0803-4.7012q0.53748-2.339-1.8016-2.8765l-7.5458-1.7339q-2.339-0.53748-2.8765 1.8016l-1.0803 4.7012q-0.53748 2.339 1.8016 2.8765l7.5458 1.7339q2.339 0.53748 2.8765-1.8016z" clip-path="url(#a)" fill="#fff" stroke="#fff"/>
<g clip-path="url(#a)">
<defs>
<path id="z" d="m19.672 64.797v-27.391h12.406q6.8906 0 10.641 3.5625 3.7656 3.5625 3.7656 10.156 0 6.5469-3.7656 10.109-3.75 3.5625-10.641 3.5625zm-9.8594 8.1094h22.266q12.266 0 18.531-5.5469 6.2812-5.5469 6.2812-16.234 0-10.797-6.2812-16.312-6.2656-5.5156-18.531-5.5156h-12.406v-29.297h-9.8594z"/>
</defs>
<g transform="translate(402.98 492.27) rotate(-77.059) scale(.08 -.08)">
<use xlink:href="#z"/>
</g>
</g>
<path d="m430.77 493.32 0.94181-5.7788q0.38606-2.3687-1.9827-2.7548l-7.6417-1.2454q-2.3687-0.38606-2.7548 1.9827l-0.94181 5.7788q-0.38606 2.3687 1.9827 2.7548l7.6417 1.2454q2.3687 0.38606 2.7548-1.9827z" clip-path="url(#a)" fill="#fff" stroke="#fff"/>
<g clip-path="url(#a)">
<defs>
<path id="t" d="m8.6875 72.906h9.9219v-44.297q0-11.719 4.2344-16.875 4.25-5.1406 13.781-5.1406 9.4688 0 13.719 5.1406 4.25 5.1562 4.25 16.875v44.297h9.9062v-45.516q0-14.25-7.0625-21.531-7.0469-7.2812-20.812-7.2812-13.828 0-20.891 7.2812-7.0469 7.2812-7.0469 21.531z"/>
</defs>
<g transform="translate(426.76 492.67) rotate(-80.743) scale(.08 -.08)">
<use xlink:href="#t"/>
</g>
</g>
<path d="m563.93 540.12 4.6664-3.0207q2.0147-1.3042 0.71052-3.3189l-4.2074-6.4996q-1.3042-2.0147-3.3189-0.71052l-4.6664 3.0207q-2.0147 1.3042-0.71052 3.3189l4.2074 6.4996q1.3042 2.0147 3.3189 0.71052z" clip-path="url(#a)" fill="#fff" stroke="#fff"/>
<g clip-path="url(#a)">
<defs>
<path id="y" d="m44.391 34.188q3.1719-1.0781 6.1719-4.5938t6.0312-9.6719l10.016-19.922h-10.609l-9.3125 18.703q-3.625 7.3281-7.0156 9.7188t-9.25 2.3906h-10.75v-30.812h-9.8594v72.906h22.266q12.5 0 18.656-5.2344 6.1562-5.2188 6.1562-15.766 0-6.8906-3.2031-11.438-3.2031-4.5312-9.2969-6.2812zm-24.719 30.609v-25.875h12.406q7.125 0 10.766 3.2969t3.6406 9.6875-3.6406 9.6406-10.766 3.25z"/>
</defs>
<g transform="translate(561.72 536.71) rotate(-32.916) scale(.08 -.08)">
<use xlink:href="#y"/>
</g>
</g>
<path d="m783.37 271.94 5.3994-0.89172q2.3679-0.39107 1.9769-2.759l-1.2616-7.639q-0.39107-2.3679-2.759-1.9769l-5.3994 0.89172q-2.3679 0.39107-1.9769 2.759l1.2616 7.639q0.39107 2.3679 2.759 1.9769z" clip-path="url(#a)" fill="#fff" stroke="#fff"/>
<g clip-path="url(#a)">
<g transform="translate(782.71 267.93) rotate(-9.3779) scale(.08 -.08)">
<use xlink:href="#m"/>
</g>
</g>
<path d="m1227.3 498.86 2.9026 4.1675q1.3717 1.9694 3.3411 0.59774l6.3534-4.425q1.9694-1.3717 0.59774-3.3411l-2.9026-4.1675q-1.3717-1.9694-3.3411-0.59774l-6.3534 4.425q-1.9694 1.3717-0.59774 3.3411z" clip-path="url(#a)" fill="#fff" stroke="#fff"/>
<g clip-path="url(#a)">
<defs>
<path id="u" d="m53.516 70.516v-9.625q-5.6094 2.6875-10.594 4-4.9844 1.3281-9.625 1.3281-8.0469 0-12.422-3.125t-4.375-8.8906q0-4.8438 2.9062-7.3125 2.9062-2.4531 11.016-3.9688l5.9531-1.2188q11.031-2.1094 16.281-7.4062t5.25-14.172q0-10.609-7.1094-16.078-7.0938-5.4688-20.812-5.4688-5.1719 0-11.016 1.1719-5.8281 1.1719-12.078 3.4688v10.156q6-3.3594 11.766-5.0781 5.7656-1.7031 11.328-1.7031 8.4375 0 13.031 3.3125 4.5938 3.3281 4.5938 9.4844 0 5.3594-3.2969 8.3906t-10.812 4.5469l-6.0156 1.1719q-11.031 2.1875-15.969 6.875-4.9219 4.6875-4.9219 13.047 0 9.6719 6.8125 15.234t18.766 5.5625q5.1406 0 10.453-0.9375 5.3281-0.92188 10.891-2.7656z"/>
</defs>
<g transform="translate(1230.6 496.54) rotate(55.143) scale(.08 -.08)">
<use xlink:href="#u"/>
</g>
</g>
<path d="m1242.8 534.26 3.4168 5.1255q1.3312 1.997 3.3282 0.66573l6.4423-4.2946q1.997-1.3312 0.66573-3.3282l-3.4168-5.1255q-1.3312-1.997-3.3282-0.66573l-6.4423 4.2946q-1.997 1.3312-0.66573 3.3282z" clip-path="url(#a)" fill="#fff" stroke="#fff"/>
<g clip-path="url(#a)">
<defs>
<path id="ak" d="m19.672 64.797v-56.688h11.922q15.094 0 22.094 6.8281 7 6.8438 7 21.594 0 14.641-7 21.453t-22.094 6.8125zm-9.8594 8.1094h20.266q21.188 0 31.094-8.8125 9.9219-8.8125 9.9219-27.562 0-18.859-9.9688-27.703-9.9531-8.8281-31.047-8.8281h-20.266z"/>
</defs>
<g transform="translate(1246.1 532.01) rotate(56.311) scale(.08 -.08)">
<use xlink:href="#ak"/>
</g>
</g>
<path d="m1239.1 498.89 3.2542 4.3998q1.4271 1.9296 3.3567 0.50244l6.2249-4.604q1.9296-1.4271 0.50244-3.3567l-3.2542-4.3998q-1.4271-1.9296-3.3567-0.50244l-6.2249 4.604q-1.9296 1.4271-0.50244 3.3567z" clip-path="url(#a)" fill="#fff" stroke="#fff"/>
<g clip-path="url(#a)">
<g transform="translate(1242.3 496.47) rotate(53.513) scale(.08 -.08)">
<use xlink:href="#m"/>
</g>
</g>
<path d="m1171.7 533.18 2.3484 5.3634q0.96263 2.1985 3.1611 1.2359l7.0924-3.1055q2.1985-0.96263 1.2359-3.1611l-2.3484-5.3634q-0.96263-2.1985-3.1611-1.2359l-7.0924 3.1055q-2.1985 0.96263-1.2359 3.1611z" clip-path="url(#a)" fill="#fff" stroke="#fff"/>
<g clip-path="url(#a)">
<g transform="translate(1175.4 531.55) rotate(66.353) scale(.08 -.08)">
<use xlink:href="#t"/>
</g>
</g>
<path d="m163.78 862.52 15.618-31.64q1.0623-2.1521-1.0898-3.2144l-6.9427-3.4271q-2.1521-1.0623-3.2144 1.0898l-15.618 31.64q-1.0623 2.1521 1.0898 3.2144l6.9427 3.4271q2.1521 1.0623 3.2144-1.0898z" clip-path="url(#a)" fill="#fff" stroke="#fff"/>
<g clip-path="url(#a)">
<defs>
<path id="l" d="m-0.29688 72.906h61.672v-8.3125h-25.875v-64.594h-9.9062v64.594h-25.891z"/>
<path id="e" d="m56.203 29.594v-4.3906h-41.312q0.59375-9.2812 5.5938-14.141t13.938-4.8594q5.1719 0 10.031 1.2656t9.6562 3.8125v-8.5q-4.8438-2.0469-9.9219-3.125t-10.297-1.0781q-13.094 0-20.734 7.6094-7.6406 7.625-7.6406 20.625 0 13.422 7.25 21.297 7.25 7.8906 19.562 7.8906 11.031 0 17.453-7.1094 6.4219-7.0938 6.4219-19.297zm-8.9844 2.6406q-0.09375 7.3594-4.125 11.75-4.0312 4.4062-10.672 4.4062-7.5156 0-12.031-4.25t-5.2031-11.969z"/>
<path id="h" d="m41.109 46.297q-1.5156 0.875-3.2969 1.2812-1.7812 0.42188-3.9219 0.42188-7.625 0-11.703-4.9531t-4.0781-14.234v-28.812h-9.0312v54.688h9.0312v-8.5q2.8438 4.9844 7.375 7.3906 4.5469 2.4219 11.047 2.4219 0.92188 0 2.0469-0.125 1.125-0.10938 2.4844-0.35938z"/>
<path id="j" d="m52 44.188q3.375 6.0625 8.0625 8.9375t11.031 2.875q8.5469 0 13.188-5.9844 4.6406-5.9688 4.6406-17v-33.016h-9.0312v32.719q0 7.8594-2.7969 11.656-2.7812 3.8125-8.4844 3.8125-6.9844 0-11.047-4.6406-4.0469-4.625-4.0469-12.641v-30.906h-9.0312v32.719q0 7.9062-2.7812 11.688t-8.5938 3.7812q-6.8906 0-10.953-4.6562-4.0469-4.6562-4.0469-12.625v-30.906h-9.0312v54.688h9.0312v-8.5q3.0781 5.0312 7.375 7.4219t10.203 2.3906q5.9688 0 10.141-3.0312 4.1719-3.0156 6.1719-8.7812z"/>
<path id="g" d="m9.4219 54.688h8.9844v-54.688h-8.9844zm0 21.297h8.9844v-11.391h-8.9844z"/>
<path id="i" d="m54.891 33.016v-33.016h-8.9844v32.719q0 7.7656-3.0312 11.609-3.0312 3.8594-9.0781 3.8594-7.2812 0-11.484-4.6406-4.2031-4.625-4.2031-12.641v-30.906h-9.0312v54.688h9.0312v-8.5q3.2344 4.9375 7.5938 7.375 4.375 2.4375 10.094 2.4375 9.4219 0 14.25-5.8281 4.8438-5.8281 4.8438-17.156z"/>
<path id="f" d="m34.281 27.484q-10.891 0-15.094-2.4844t-4.2031-8.5q0-4.7812 3.1562-7.5938 3.1562-2.7969 8.5625-2.7969 7.4844 0 12 5.2969t4.5156 14.078v2zm17.922 3.7188v-31.203h-8.9844v8.2969q-3.0781-4.9688-7.6719-7.3438t-11.234-2.375q-8.3906 0-13.359 4.7188-4.9531 4.7188-4.9531 12.625 0 9.2188 6.1719 13.906 6.1875 4.6875 18.438 4.6875h12.609v0.89062q0 6.2031-4.0781 9.5938t-11.453 3.3906q-4.6875 0-9.1406-1.125-4.4375-1.125-8.5312-3.375v8.3125q4.9219 1.9062 9.5625 2.8438 4.6406 0.95312 9.0312 0.95312 11.875 0 17.734-6.1562 5.8594-6.1406 5.8594-18.641z"/>
<path id="k" d="m9.4219 75.984h8.9844v-75.984h-8.9844z"/>
</defs>
<g transform="translate(160.13 860.72) rotate(-63.728) scale(.08 -.08)">
<use xlink:href="#l"/>
<use x="60.818359" xlink:href="#e"/>
<use x="122.341797" xlink:href="#h"/>
<use x="163.439453" xlink:href="#j"/>
<use x="260.851562" xlink:href="#g"/>
<use x="288.634766" xlink:href="#i"/>
<use x="352.013672" xlink:href="#f"/>
<use x="413.292969" xlink:href="#k"/>
</g>
</g>
<path d="m192.97 862.35 5.7288-34.817q0.38966-2.3682-1.9785-2.7578l-7.6398-1.257q-2.3682-0.38966-2.7578 1.9785l-5.7288 34.817q-0.38966 2.3682 1.9785 2.7578l7.6398 1.257q2.3682 0.38966 2.7578-1.9785z" clip-path="url(#a)" fill="#fff" stroke="#fff"/>
<g clip-path="url(#a)">
<g transform="translate(188.96 861.69) rotate(-80.656) scale(.08 -.08)">
<use xlink:href="#l"/>
<use x="60.818359" xlink:href="#e"/>
<use x="122.341797" xlink:href="#h"/>
<use x="163.439453" xlink:href="#j"/>
<use x="260.851562" xlink:href="#g"/>
<use x="288.634766" xlink:href="#i"/>
<use x="352.013672" xlink:href="#f"/>
<use x="413.292969" xlink:href="#k"/>
</g>
</g>
<path d="m223.58 830.88 15.618 31.64q1.0623 2.1521 3.2144 1.0898l6.9427-3.4271q2.1521-1.0623 1.0898-3.2144l-15.618-31.64q-1.0623-2.1521-3.2144-1.0898l-6.9427 3.4271q-2.1521 1.0623-1.0898 3.2144z" clip-path="url(#a)" fill="#fff" stroke="#fff"/>
<g clip-path="url(#a)">
<g transform="translate(227.23 829.08) rotate(63.728) scale(.08 -.08)">
<use xlink:href="#l"/>
<use x="60.818359" xlink:href="#e"/>
<use x="122.341797" xlink:href="#h"/>
<use x="163.439453" xlink:href="#j"/>
<use x="260.851562" xlink:href="#g"/>
<use x="288.634766" xlink:href="#i"/>
<use x="352.013672" xlink:href="#f"/>
<use x="413.292969" xlink:href="#k"/>
</g>
</g>
<path d="m206.46 807.12 1.8302 5.5616q0.75021 2.2797 3.0299 1.5295l7.3545-2.4202q2.2797-0.75021 1.5295-3.0299l-1.8302-5.5616q-0.75021-2.2797-3.0299-1.5295l-7.3545 2.4202q-2.2797 0.75021-1.5295 3.0299z" clip-path="url(#a)" fill="#fff" stroke="#fff"/>
<g clip-path="url(#a)">
<g transform="translate(210.32 805.85) rotate(71.785) scale(.08 -.08)">
<use xlink:href="#t"/>
</g>
</g>
<path d="m313.64 862.27v35.285q0 2.4 2.4 2.4h7.7425q2.4 0 2.4-2.4v-35.285q0-2.4-2.4-2.4h-7.7425q-2.4 0-2.4 2.4z" clip-path="url(#a)" fill="#fff" stroke="#fff"/>
<g clip-path="url(#a)">
<g transform="translate(317.7 862.27) rotate(90) scale(.08 -.08)">
<use xlink:href="#l"/>
<use x="60.818359" xlink:href="#e"/>
<use x="122.341797" xlink:href="#h"/>
<use x="163.439453" xlink:href="#j"/>
<use x="260.851562" xlink:href="#g"/>
<use x="288.634766" xlink:href="#i"/>
<use x="352.013672" xlink:href="#f"/>
<use x="413.292969" xlink:href="#k"/>
</g>
</g>
<path d="m76.8 862.27v35.285q0 2.4 2.4 2.4h7.7425q2.4 0 2.4-2.4v-35.285q0-2.4-2.4-2.4h-7.7425q-2.4 0-2.4 2.4z" clip-path="url(#a)" fill="#fff" stroke="#fff"/>
<g clip-path="url(#a)">
<g transform="translate(80.864 862.27) rotate(90) scale(.08 -.08)">
<use xlink:href="#l"/>
<use x="60.818359" xlink:href="#e"/>
<use x="122.341797" xlink:href="#h"/>
<use x="163.439453" xlink:href="#j"/>
<use x="260.851562" xlink:href="#g"/>
<use x="288.634766" xlink:href="#i"/>
<use x="352.013672" xlink:href="#f"/>
<use x="413.292969" xlink:href="#k"/>
</g>
</g>
<path d="m476.66 579.65 1.041-4.9467q0.49422-2.3486-1.8543-2.8428l-7.5766-1.5944q-2.3486-0.49422-2.8428 1.8543l-1.041 4.9467q-0.49422 2.3486 1.8543 2.8428l7.5766 1.5944q2.3486 0.49422 2.8428-1.8543z" clip-path="url(#a)" fill="#fff" stroke="#fff"/>
<g clip-path="url(#a)">
<defs>
<path id="aa" d="m9.8125 72.906h46.094v-8.3125h-36.234v-21.578h34.719v-8.2969h-34.719v-26.422h37.109v-8.2969h-46.969z"/>
</defs>
<g transform="translate(472.69 578.82) rotate(-78.116) scale(.08 -.08)">
<use xlink:href="#aa"/>
</g>
</g>
<path d="m500.62 579.42 0.67693-5.5451q0.29082-2.3823-2.0915-2.6731l-7.6854-0.93822q-2.3823-0.29083-2.6731 2.0915l-0.67693 5.5451q-0.29082 2.3823 2.0915 2.6731l7.6854 0.93822q2.3823 0.29083 2.6731-2.0915z" clip-path="url(#a)" fill="#fff" stroke="#fff"/>
<g clip-path="url(#a)">
<defs>
<path id="ae" d="m64.406 67.281v-10.391q-4.9844 4.6406-10.625 6.9219-5.6406 2.2969-11.984 2.2969-12.5 0-19.141-7.6406t-6.6406-22.094q0-14.406 6.6406-22.047t19.141-7.6406q6.3438 0 11.984 2.2969t10.625 6.9375v-10.312q-5.1719-3.5156-10.969-5.2812-5.7812-1.75-12.219-1.75-16.562 0-26.094 10.125-9.5156 10.141-9.5156 27.672 0 17.578 9.5156 27.703 9.5312 10.141 26.094 10.141 6.5312 0 12.312-1.7344 5.7969-1.7344 10.875-5.2031z"/>
</defs>
<g transform="translate(496.58 578.93) rotate(-83.04) scale(.08 -.08)">
<use xlink:href="#ae"/>
</g>
</g>
<path d="m605.93 353.61 4.5321 2.239q2.1517 1.063 3.2148-1.0887l3.4294-6.9416q1.063-2.1517-1.0887-3.2148l-4.5321-2.239q-2.1517-1.063-3.2148 1.0887l-3.4294 6.9416q-1.063 2.1517 1.0887 3.2148z" clip-path="url(#a)" fill="#fff" stroke="#fff"/>
<g clip-path="url(#a)">
<g transform="translate(607.73 349.97) rotate(26.291) scale(.08 -.08)">
<use xlink:href="#aa"/>
</g>
</g>
<path d="m524.58 579.03 0.1973-5.8517q0.080877-2.3986-2.3178-2.4795l-7.7381-0.26091q-2.3986-0.080877-2.4795 2.3178l-0.1973 5.8517q-0.080876 2.3986 2.3178 2.4795l7.7381 0.26091q2.3986 0.080877 2.4795-2.3178z" clip-path="url(#a)" fill="#fff" stroke="#fff"/>
<g clip-path="url(#a)">
<g transform="translate(520.52 578.89) rotate(-88.069) scale(.08 -.08)">
<use xlink:href="#t"/>
</g>
</g>
<path d="m535.68 573.31 0.31945 5.8463q0.13094 2.3964 2.5274 2.2655l7.731-0.42243q2.3964-0.13094 2.2655-2.5274l-0.31945-5.8463q-0.13094-2.3964-2.5274-2.2655l-7.731 0.42243q-2.3964 0.13094-2.2655 2.5274z" clip-path="url(#a)" fill="#fff" stroke="#fff"/>
<g clip-path="url(#a)">
<g transform="translate(539.73 573.09) rotate(86.872) scale(.08 -.08)">
<use xlink:href="#t"/>
</g>
</g>
<path d="m1396.8 813.81 3.0349-3.4584q1.583-1.8039-0.2209-3.3869l-5.8195-5.1069q-1.8039-1.583-3.3869 0.2209l-3.0349 3.4584q-1.583 1.8039 0.2209 3.3869l5.8195 5.1069q1.8039 1.583 3.3869-0.2209z" clip-path="url(#a)" fill="#fff" stroke="#fff"/>
<g clip-path="url(#a)">
<defs>
<path id="aj" d="m9.8125 72.906h41.891v-8.3125h-32.031v-21.484h28.906v-8.2969h-28.906v-34.812h-9.8594z"/>
</defs>
<g transform="translate(1393.7 811.13) rotate(-48.732) scale(.08 -.08)">
<use xlink:href="#aj"/>
</g>
</g>
<path d="m1422.9 811.53 0.986-4.4944q0.5143-2.3442-1.83-2.8585l-7.5626-1.6591q-2.3442-0.5143-2.8585 1.83l-0.986 4.4944q-0.5143 2.3442 1.83 2.8585l7.5626 1.6591q2.3442 0.5143 2.8585-1.83z" clip-path="url(#a)" fill="#fff" stroke="#fff"/>
<g clip-path="url(#a)">
<g transform="translate(1418.9 810.66) rotate(-77.626) scale(.08 -.08)">
<use xlink:href="#aj"/>
</g>
</g>
<path d="m1458.3 810.69 4.1283 3.7635q1.7736 1.6169 3.3905-0.15673l5.2161-5.7217q1.6169-1.7736-0.15673-3.3905l-4.1283-3.7635q-1.7736-1.6169-3.3905 0.15673l-5.2161 5.7217q-1.6169 1.7736 0.15673 3.3905z" clip-path="url(#a)" fill="#fff" stroke="#fff"/>
<g clip-path="url(#a)">
<g transform="translate(1461.1 807.69) rotate(42.353) scale(.08 -.08)">
<use xlink:href="#ae"/>
</g>
</g>
<path d="m1450.5 862.27v35.285q0 2.4 2.4 2.4h7.7425q2.4 0 2.4-2.4v-35.285q0-2.4-2.4-2.4h-7.7425q-2.4 0-2.4 2.4z" clip-path="url(#a)" fill="#fff" stroke="#fff"/>
<g clip-path="url(#a)">
<g transform="translate(1454.5 862.27) rotate(90) scale(.08 -.08)">
<use xlink:href="#l"/>
<use x="60.818359" xlink:href="#e"/>
<use x="122.341797" xlink:href="#h"/>
<use x="163.439453" xlink:href="#j"/>
<use x="260.851562" xlink:href="#g"/>
<use x="288.634766" xlink:href="#i"/>
<use x="352.013672" xlink:href="#f"/>
<use x="413.292969" xlink:href="#k"/>
</g>
</g>
<path d="m1494.3 811.48 4.5512 3.1916q1.965 1.378 3.343-0.58703l4.4454-6.3392q1.378-1.965-0.58703-3.343l-4.5512-3.1916q-1.965-1.378-3.343 0.58703l-4.4454 6.3392q-1.378 1.965 0.58703 3.343z" clip-path="url(#a)" fill="#fff" stroke="#fff"/>
<g clip-path="url(#a)">
<g transform="translate(1496.6 808.15) rotate(35.04) scale(.08 -.08)">
<use xlink:href="#y"/>
</g>
</g>
<path d="m1518.9 812.55 4.349 2.0867q2.1638 1.0382 3.202-1.1256l3.3493-6.9806q1.0382-2.1638-1.1256-3.202l-4.349-2.0867q-2.1638-1.0382-3.202 1.1256l-3.3493 6.9806q-1.0382 2.1638 1.1256 3.202z" clip-path="url(#a)" fill="#fff" stroke="#fff"/>
<g clip-path="url(#a)">
<g transform="translate(1520.7 808.89) rotate(25.632) scale(.08 -.08)">
<use xlink:href="#z"/>
</g>
</g>
<path d="m1542.8 812.9 5.1413 1.8748q2.2548 0.82221 3.077-1.4326l2.6525-7.274q0.82221-2.2548-1.4326-3.077l-5.1413-1.8748q-2.2548-0.82221-3.077 1.4326l-2.6525 7.274q-0.82221 2.2548 1.4326 3.077z" clip-path="url(#a)" fill="#fff" stroke="#fff"/>
<g clip-path="url(#a)">
<g transform="translate(1544.2 809.08) rotate(20.035) scale(.08 -.08)">
<use xlink:href="#m"/>
</g>
</g>
<path d="m953.15 814.4 5.458-0.39806q2.3936-0.17457 2.2191-2.5682l-0.56317-7.722q-0.17457-2.3936-2.5682-2.2191l-5.458 0.39806q-2.3936 0.17457-2.2191 2.5682l0.56317 7.722q0.17457 2.3936 2.5682 2.2191z" clip-path="url(#a)" fill="#fff" stroke="#fff"/>
<g clip-path="url(#a)">
<g transform="translate(952.85 810.34) rotate(-4.1712) scale(.08 -.08)">
<use xlink:href="#m"/>
</g>
</g>
<path d="m1566.6 813.13 5.6172 1.6519q2.3025 0.67711 2.9796-1.6254l2.1844-7.428q0.67711-2.3025-1.6254-2.9796l-5.6172-1.6519q-2.3025-0.67711-2.9796 1.6254l-2.1844 7.428q-0.67711 2.3025 1.6254 2.9796z" clip-path="url(#a)" fill="#fff" stroke="#fff"/>
<g clip-path="url(#a)">
<g transform="translate(1567.8 809.23) rotate(16.387) scale(.08 -.08)">
<use xlink:href="#t"/>
</g>
</g>
<path d="m1590.5 813.33 5.685 1.4007q2.3303 0.57416 2.9045-1.7562l1.8523-7.5177q0.57416-2.3303-1.7562-2.9045l-5.685-1.4007q-2.3303-0.57416-2.9045 1.7562l-1.8523 7.5177q-0.57416 2.3303 1.7562 2.9045z" clip-path="url(#a)" fill="#fff" stroke="#fff"/>
<g clip-path="url(#a)">
<g transform="translate(1591.5 809.39) rotate(13.841) scale(.08 -.08)">
<use xlink:href="#t"/>
</g>
</g>
<path d="m1545.2 862.27v35.285q0 2.4 2.4 2.4h7.7425q2.4 0 2.4-2.4v-35.285q0-2.4-2.4-2.4h-7.7425q-2.4 0-2.4 2.4z" clip-path="url(#a)" fill="#fff" stroke="#fff"/>
<g clip-path="url(#a)">
<g transform="translate(1549.3 862.27) rotate(90) scale(.08 -.08)">
<use xlink:href="#l"/>
<use x="60.818359" xlink:href="#e"/>
<use x="122.341797" xlink:href="#h"/>
<use x="163.439453" xlink:href="#j"/>
<use x="260.851562" xlink:href="#g"/>
<use x="288.634766" xlink:href="#i"/>
<use x="352.013672" xlink:href="#f"/>
<use x="413.292969" xlink:href="#k"/>
</g>
</g>
<path d="m1592.6 862.27v35.285q0 2.4 2.4 2.4h7.7425q2.4 0 2.4-2.4v-35.285q0-2.4-2.4-2.4h-7.7425q-2.4 0-2.4 2.4z" clip-path="url(#a)" fill="#fff" stroke="#fff"/>
<g clip-path="url(#a)">
<g transform="translate(1596.6 862.27) rotate(90) scale(.08 -.08)">
<use xlink:href="#l"/>
<use x="60.818359" xlink:href="#e"/>
<use x="122.341797" xlink:href="#h"/>
<use x="163.439453" xlink:href="#j"/>
<use x="260.851562" xlink:href="#g"/>
<use x="288.634766" xlink:href="#i"/>
<use x="352.013672" xlink:href="#f"/>
<use x="413.292969" xlink:href="#k"/>
</g>
</g>
<path d="m1639.9 862.27v35.285q0 2.4 2.4 2.4h7.7425q2.4 0 2.4-2.4v-35.285q0-2.4-2.4-2.4h-7.7425q-2.4 0-2.4 2.4z" clip-path="url(#a)" fill="#fff" stroke="#fff"/>
<g clip-path="url(#a)">
<g transform="translate(1644 862.27) rotate(90) scale(.08 -.08)">
<use xlink:href="#l"/>
<use x="60.818359" xlink:href="#e"/>
<use x="122.341797" xlink:href="#h"/>
<use x="163.439453" xlink:href="#j"/>
<use x="260.851562" xlink:href="#g"/>
<use x="288.634766" xlink:href="#i"/>
<use x="352.013672" xlink:href="#f"/>
<use x="413.292969" xlink:href="#k"/>
</g>
</g>
<path d="m1355.7 862.27v35.285q0 2.4 2.4 2.4h7.7425q2.4 0 2.4-2.4v-35.285q0-2.4-2.4-2.4h-7.7425q-2.4 0-2.4 2.4z" clip-path="url(#a)" fill="#fff" stroke="#fff"/>
<g clip-path="url(#a)">
<g transform="translate(1359.8 862.27) rotate(90) scale(.08 -.08)">
<use xlink:href="#l"/>
<use x="60.818359" xlink:href="#e"/>
<use x="122.341797" xlink:href="#h"/>
<use x="163.439453" xlink:href="#j"/>
<use x="260.851562" xlink:href="#g"/>
<use x="288.634766" xlink:href="#i"/>
<use x="352.013672" xlink:href="#f"/>
<use x="413.292969" xlink:href="#k"/>
</g>
</g>
<path d="m1403.1 862.27v35.285q0 2.4 2.4 2.4h7.7425q2.4 0 2.4-2.4v-35.285q0-2.4-2.4-2.4h-7.7425q-2.4 0-2.4 2.4z" clip-path="url(#a)" fill="#fff" stroke="#fff"/>
<g clip-path="url(#a)">
<g transform="translate(1407.1 862.27) rotate(90) scale(.08 -.08)">
<use xlink:href="#l"/>
<use x="60.818359" xlink:href="#e"/>
<use x="122.341797" xlink:href="#h"/>
<use x="163.439453" xlink:href="#j"/>
<use x="260.851562" xlink:href="#g"/>
<use x="288.634766" xlink:href="#i"/>
<use x="352.013672" xlink:href="#f"/>
<use x="413.292969" xlink:href="#k"/>
</g>
</g>
<path d="m1497.8 862.27v35.285q0 2.4 2.4 2.4h7.7425q2.4 0 2.4-2.4v-35.285q0-2.4-2.4-2.4h-7.7425q-2.4 0-2.4 2.4z" clip-path="url(#a)" fill="#fff" stroke="#fff"/>
<g clip-path="url(#a)">
<g transform="translate(1501.9 862.27) rotate(90) scale(.08 -.08)">
<use xlink:href="#l"/>
<use x="60.818359" xlink:href="#e"/>
<use x="122.341797" xlink:href="#h"/>
<use x="163.439453" xlink:href="#j"/>
<use x="260.851562" xlink:href="#g"/>
<use x="288.634766" xlink:href="#i"/>
<use x="352.013672" xlink:href="#f"/>
<use x="413.292969" xlink:href="#k"/>
</g>
</g>
<path d="m408.37 862.27v35.285q0 2.4 2.4 2.4h7.7425q2.4 0 2.4-2.4v-35.285q0-2.4-2.4-2.4h-7.7425q-2.4 0-2.4 2.4z" clip-path="url(#a)" fill="#fff" stroke="#fff"/>
<g clip-path="url(#a)">
<g transform="translate(412.44 862.27) rotate(90) scale(.08 -.08)">
<use xlink:href="#l"/>
<use x="60.818359" xlink:href="#e"/>
<use x="122.341797" xlink:href="#h"/>
<use x="163.439453" xlink:href="#j"/>
<use x="260.851562" xlink:href="#g"/>
<use x="288.634766" xlink:href="#i"/>
<use x="352.013672" xlink:href="#f"/>
<use x="413.292969" xlink:href="#k"/>
</g>
</g>
<path d="m455.74 862.27v35.285q0 2.4 2.4 2.4h7.7425q2.4 0 2.4-2.4v-35.285q0-2.4-2.4-2.4h-7.7425q-2.4 0-2.4 2.4z" clip-path="url(#a)" fill="#fff" stroke="#fff"/>
<g clip-path="url(#a)">
<g transform="translate(459.8 862.27) rotate(90) scale(.08 -.08)">
<use xlink:href="#l"/>
<use x="60.818359" xlink:href="#e"/>
<use x="122.341797" xlink:href="#h"/>
<use x="163.439453" xlink:href="#j"/>
<use x="260.851562" xlink:href="#g"/>
<use x="288.634766" xlink:href="#i"/>
<use x="352.013672" xlink:href="#f"/>
<use x="413.292969" xlink:href="#k"/>
</g>
</g>
<path d="m654.91 621.1 1.0863-5.4516q0.46901-2.3537-1.8847-2.8227l-7.5932-1.513q-2.3537-0.46901-2.8227 1.8847l-1.0863 5.4516q-0.46901 2.3537 1.8847 2.8227l7.5932 1.513q2.3537 0.46901 2.8227-1.8847z" clip-path="url(#a)" fill="#fff" stroke="#fff"/>
<g clip-path="url(#a)">
<g transform="translate(650.92 620.31) rotate(-78.731) scale(.08 -.08)">
<use xlink:href="#y"/>
</g>
</g>
<path d="m678.73 624.35 1.2505-13.187q0.22657-2.3893-2.1627-2.6158l-7.9643-0.75522q-2.3893-0.22657-2.6158 2.1627l-1.2505 13.187q-0.22657 2.3893 2.1627 2.6158l7.9643 0.75522q2.3893 0.22657 2.6158-2.1627z" clip-path="url(#a)" fill="#fff" stroke="#fff"/>
<g clip-path="url(#a)">
<defs>
<path id="al" d="m21 76.422v-100h-8.2969v100z"/>
</defs>
<g transform="translate(674.46 623.94) rotate(-84.583) scale(.08 -.08)">
<use xlink:href="#u"/>
<use x="63.476562" xlink:href="#al"/>
<use x="97.167969" xlink:href="#m"/>
</g>
</g>
<path d="m755.61 434.42 4.6906 2.8189q2.0571 1.2363 3.2934-0.82083l3.9882-6.6363q1.2363-2.0571-0.82083-3.2934l-4.6906-2.8189q-2.0571-1.2363-3.2934 0.82083l-3.9882 6.6363q-1.2363 2.0571 0.82083 3.2934z" clip-path="url(#a)" fill="#fff" stroke="#fff"/>
<g clip-path="url(#a)">
<g transform="translate(757.7 430.94) rotate(31.005) scale(.08 -.08)">
<use xlink:href="#m"/>
</g>
</g>
<path d="m597.84 862.27v35.285q0 2.4 2.4 2.4h7.7425q2.4 0 2.4-2.4v-35.285q0-2.4-2.4-2.4h-7.7425q-2.4 0-2.4 2.4z" clip-path="url(#a)" fill="#fff" stroke="#fff"/>
<g clip-path="url(#a)">
<g transform="translate(601.9 862.27) rotate(90) scale(.08 -.08)">
<use xlink:href="#l"/>
<use x="60.818359" xlink:href="#e"/>
<use x="122.341797" xlink:href="#h"/>
<use x="163.439453" xlink:href="#j"/>
<use x="260.851562" xlink:href="#g"/>
<use x="288.634766" xlink:href="#i"/>
<use x="352.013672" xlink:href="#f"/>
<use x="413.292969" xlink:href="#k"/>
</g>
</g>
<path d="m645.21 862.27v35.285q0 2.4 2.4 2.4h7.7425q2.4 0 2.4-2.4v-35.285q0-2.4-2.4-2.4h-7.7425q-2.4 0-2.4 2.4z" clip-path="url(#a)" fill="#fff" stroke="#fff"/>
<g clip-path="url(#a)">
<g transform="translate(649.27 862.27) rotate(90) scale(.08 -.08)">
<use xlink:href="#l"/>
<use x="60.818359" xlink:href="#e"/>
<use x="122.341797" xlink:href="#h"/>
<use x="163.439453" xlink:href="#j"/>
<use x="260.851562" xlink:href="#g"/>
<use x="288.634766" xlink:href="#i"/>
<use x="352.013672" xlink:href="#f"/>
<use x="413.292969" xlink:href="#k"/>
</g>
</g>
<path d="m768.38 661.91 1.8155-5.2539q0.78385-2.2684-1.4845-3.0522l-7.3179-2.5287q-2.2684-0.78385-3.0522 1.4845l-1.8155 5.2539q-0.78385 2.2684 1.4845 3.0522l7.3179 2.5287q2.2684 0.78385 3.0522-1.4845z" clip-path="url(#a)" fill="#fff" stroke="#fff"/>
<g clip-path="url(#a)">
<g transform="translate(764.54 660.58) rotate(-70.937) scale(.08 -.08)">
<use xlink:href="#y"/>
</g>
</g>
<path d="m804.34 588.75 1.2434-4.8997q0.59035-2.3263-1.7359-2.9166l-7.5046-1.9045q-2.3263-0.59035-2.9166 1.7359l-1.2434 4.8997q-0.59035 2.3263 1.7359 2.9166l7.5046 1.9045q2.3263 0.59035 2.9166-1.7359z" clip-path="url(#a)" fill="#fff" stroke="#fff"/>
<g clip-path="url(#a)">
<g transform="translate(800.4 587.75) rotate(-75.76) scale(.08 -.08)">
<use xlink:href="#aa"/>
</g>
</g>
<path d="m816.64 624.73 0.63146-5.5504q0.27129-2.3846-2.1133-2.6559l-7.6929-0.8752q-2.3846-0.27129-2.6559 2.1133l-0.63146 5.5504q-0.27129 2.3846 2.1133 2.6559l7.6929 0.87519q2.3846 0.27129 2.6559-2.1133z" clip-path="url(#a)" fill="#fff" stroke="#fff"/>
<g clip-path="url(#a)">
<g transform="translate(812.61 624.27) rotate(-83.51) scale(.08 -.08)">
<use xlink:href="#ae"/>
</g>
</g>
<path d="m934.05 514.61 4.7675 1.6805q2.2635 0.79788 3.0614-1.4656l2.574-7.3021q0.79788-2.2635-1.4656-3.0614l-4.7675-1.6805q-2.2635-0.79788-3.0614 1.4656l-2.574 7.3021q-0.79788 2.2635 1.4656 3.0614z" clip-path="url(#a)" fill="#fff" stroke="#fff"/>
<g clip-path="url(#a)">
<g transform="translate(935.4 510.78) rotate(19.418) scale(.08 -.08)">
<use xlink:href="#aa"/>
</g>
</g>
<path d="m692.58 862.27v35.285q0 2.4 2.4 2.4h7.7425q2.4 0 2.4-2.4v-35.285q0-2.4-2.4-2.4h-7.7425q-2.4 0-2.4 2.4z" clip-path="url(#a)" fill="#fff" stroke="#fff"/>
<g clip-path="url(#a)">
<g transform="translate(696.64 862.27) rotate(90) scale(.08 -.08)">
<use xlink:href="#l"/>
<use x="60.818359" xlink:href="#e"/>
<use x="122.341797" xlink:href="#h"/>
<use x="163.439453" xlink:href="#j"/>
<use x="260.851562" xlink:href="#g"/>
<use x="288.634766" xlink:href="#i"/>
<use x="352.013672" xlink:href="#f"/>
<use x="413.292969" xlink:href="#k"/>
</g>
</g>
<path d="m774.93 734.81 1.6894 5.2052q0.74091 2.2828 3.0237 1.5419l7.3643-2.3902q2.2828-0.74091 1.5419-3.0237l-1.6894-5.2052q-0.74091-2.2828-3.0237-1.5419l-7.3643 2.3902q-2.2828 0.74091-1.5419 3.0237z" clip-path="url(#a)" fill="#fff" stroke="#fff"/>
<g clip-path="url(#a)">
<g transform="translate(778.8 733.55) rotate(72.018) scale(.08 -.08)">
<use xlink:href="#m"/>
</g>
</g>
<path d="m763.84 774.97 0.81902-5.0123q0.38704-2.3686-1.9816-2.7556l-7.6412-1.2486q-2.3686-0.38704-2.7556 1.9816l-0.81902 5.0123q-0.38704 2.3686 1.9816 2.7556l7.6412 1.2486q2.3686 0.38704 2.7556-1.9816z" clip-path="url(#a)" fill="#fff" stroke="#fff"/>
<g clip-path="url(#a)">
<g transform="translate(759.83 774.32) rotate(-80.72) scale(.08 -.08)">
<use xlink:href="#u"/>
</g>
</g>
<path d="m787.18 801.32v13.246q0 2.4 2.4 2.4h8q2.4 0 2.4-2.4v-13.246q0-2.4-2.4-2.4h-8q-2.4 0-2.4 2.4z" clip-path="url(#a)" fill="#fff" stroke="#fff"/>
<g clip-path="url(#a)">
<g transform="translate(791.47 801.32) rotate(90) scale(.08 -.08)">
<use xlink:href="#u"/>
<use x="63.476562" xlink:href="#al"/>
<use x="97.167969" xlink:href="#m"/>
</g>
</g>
<path d="m961.07 593.53 5.5208-2.3909q2.2023-0.95377 1.2486-3.1561l-3.0769-7.1049q-0.95377-2.2023-3.1561-1.2486l-5.5208 2.3909q-2.2023 0.95377-1.2486 3.1561l3.0769 7.1049q0.95377 2.2023 3.1561 1.2486z" clip-path="url(#a)" fill="#fff" stroke="#fff"/>
<g clip-path="url(#a)">
<g transform="translate(959.46 589.8) rotate(-23.416) scale(.08 -.08)">
<use xlink:href="#ai"/>
</g>
</g>
<path d="m1045.3 694.11 0.074447 4.4569q0.040084 2.3997 2.4397 2.3596l7.7414-0.12931q2.3997-0.040084 2.3596-2.4397l-0.074448-4.4569q-0.040083-2.3997-2.4397-2.3596l-7.7414 0.12931q-2.3997 0.040084-2.3596 2.4397z" clip-path="url(#a)" fill="#fff" stroke="#fff"/>
<g clip-path="url(#a)">
<defs>
<path id="av" d="m9.8125 72.906h9.8594v-64.609h35.5v-8.2969h-45.359z"/>
</defs>
<g transform="translate(1049.4 694.04) rotate(89.043) scale(.08 -.08)">
<use xlink:href="#av"/>
</g>
</g>
<path d="m1128.1 626.48 4.5137 3.9777q1.8006 1.5868 3.3874-0.21383l5.119-5.8088q1.5868-1.8006-0.21383-3.3874l-4.5137-3.9777q-1.8006-1.5868-3.3874 0.21383l-5.119 5.8088q-1.5868 1.8006 0.21383 3.3874z" clip-path="url(#a)" fill="#fff" stroke="#fff"/>
<g clip-path="url(#a)">
<g transform="translate(1130.8 623.43) rotate(41.388) scale(.08 -.08)">
<use xlink:href="#ai"/>
</g>
</g>
<path d="m837.76 703.68 2.6095-4.8103q1.1444-2.1096-0.96518-3.254l-6.8056-3.6919q-2.1096-1.1444-3.254 0.96518l-2.6095 4.8103q-1.1444 2.1096 0.96518 3.254l6.8056 3.6919q2.1096 1.1444 3.254-0.96518z" clip-path="url(#a)" fill="#fff" stroke="#fff"/>
<g clip-path="url(#a)">
<g transform="translate(834.18 701.74) rotate(-61.521) scale(.08 -.08)">
<use xlink:href="#m"/>
</g>
</g>
<path d="m863.03 737.94 0.81644-5.4985q0.3525-2.374-2.0215-2.7265l-7.6585-1.1372q-2.374-0.3525-2.7265 2.0215l-0.81644 5.4985q-0.3525 2.374 2.0215 2.7265l7.6585 1.1372q2.374 0.3525 2.7265-2.0215z" clip-path="url(#a)" fill="#fff" stroke="#fff"/>
<g clip-path="url(#a)">
<g transform="translate(859.01 737.34) rotate(-81.554) scale(.08 -.08)">
<use xlink:href="#y"/>
</g>
</g>
<path d="m874.5 732.28 0.32483 4.8128q0.16162 2.3946 2.5562 2.2329l7.7249-0.52138q2.3946-0.16162 2.2329-2.5562l-0.32483-4.8128q-0.16162-2.3946-2.5562-2.2329l-7.7249 0.52138q-2.3946 0.16162-2.2329 2.5562z" clip-path="url(#a)" fill="#fff" stroke="#fff"/>
<g clip-path="url(#a)">
<g transform="translate(878.55 732.01) rotate(86.139) scale(.08 -.08)">
<use xlink:href="#z"/>
</g>
</g>
<path d="m916.39 665.13 4.3543 3.3149q1.9096 1.4538 3.3634-0.45581l4.6899-6.1604q1.4538-1.9096-0.45581-3.3634l-4.3543-3.3149q-1.9096-1.4538-3.3634 0.45581l-4.6899 6.1604q-1.4538 1.9096 0.45581 3.3634z" clip-path="url(#a)" fill="#fff" stroke="#fff"/>
<g clip-path="url(#a)">
<g transform="translate(918.85 661.9) rotate(37.282) scale(.08 -.08)">
<use xlink:href="#m"/>
</g>
</g>
<path d="m1042.7 898.63 11.03-33.517q0.75021-2.2797-1.5295-3.0299l-7.3545-2.4202q-2.2797-0.75021-3.0299 1.5295l-11.03 33.517q-0.75021 2.2797 1.5295 3.0299l7.3545 2.4202q2.2797 0.75021 3.0299-1.5295z" clip-path="url(#a)" fill="#fff" stroke="#fff"/>
<g clip-path="url(#a)">
<g transform="translate(1038.8 897.36) rotate(-71.785) scale(.08 -.08)">
<use xlink:href="#l"/>
<use x="60.818359" xlink:href="#e"/>
<use x="122.341797" xlink:href="#h"/>
<use x="163.439453" xlink:href="#j"/>
<use x="260.851562" xlink:href="#g"/>
<use x="288.634766" xlink:href="#i"/>
<use x="352.013672" xlink:href="#f"/>
<use x="413.292969" xlink:href="#k"/>
</g>
</g>
<path d="m1054.5 865.11 11.03 33.517q0.75021 2.2797 3.0299 1.5295l7.3545-2.4202q2.2797-0.75021 1.5295-3.0299l-11.03-33.517q-0.75021-2.2797-3.0299-1.5295l-7.3545 2.4202q-2.2797 0.75021-1.5295 3.0299z" clip-path="url(#a)" fill="#fff" stroke="#fff"/>
<g clip-path="url(#a)">
<g transform="translate(1058.3 863.84) rotate(71.785) scale(.08 -.08)">
<use xlink:href="#l"/>
<use x="60.818359" xlink:href="#e"/>
<use x="122.341797" xlink:href="#h"/>
<use x="163.439453" xlink:href="#j"/>
<use x="260.851562" xlink:href="#g"/>
<use x="288.634766" xlink:href="#i"/>
<use x="352.013672" xlink:href="#f"/>
<use x="413.292969" xlink:href="#k"/>
</g>
</g>
<path d="m1200 741.18 2.9796-4.5902q1.3067-2.0131-0.70632-3.3198l-6.4942-4.2156q-2.0131-1.3067-3.3198 0.70633l-2.9796 4.5902q-1.3067 2.0131 0.70632 3.3198l6.4942 4.2156q2.0131 1.3067 3.3198-0.70632z" clip-path="url(#a)" fill="#fff" stroke="#fff"/>
<g clip-path="url(#a)">
<g transform="translate(1196.6 738.97) rotate(-57.011) scale(.08 -.08)">
<use xlink:href="#m"/>
</g>
</g>
<path d="m1236.9 771.11 1.4984 4.5851q0.74553 2.2813 3.0268 1.5357l7.3595-2.4051q2.2813-0.74553 1.5357-3.0268l-1.4984-4.5851q-0.74553-2.2813-3.0268-1.5357l-7.3595 2.4051q-2.2813 0.74553-1.5357 3.0268z" clip-path="url(#a)" fill="#fff" stroke="#fff"/>
<g clip-path="url(#a)">
<g transform="translate(1240.7 769.85) rotate(71.902) scale(.08 -.08)">
<use xlink:href="#z"/>
</g>
</g>
<path d="m1152.4 813.96 3.3866-5.1455q1.3194-2.0048-0.68531-3.3242l-6.4674-4.2566q-2.0048-1.3194-3.3242 0.68531l-3.3866 5.1455q-1.3194 2.0048 0.68531 3.3242l6.4674 4.2566q2.0048 1.3194 3.3242-0.68531z" clip-path="url(#a)" fill="#fff" stroke="#fff"/>
<g clip-path="url(#a)">
<g transform="translate(1149 811.73) rotate(-56.649) scale(.08 -.08)">
<use xlink:href="#ak"/>
</g>
</g>
<path d="m1189.6 809.27 2.7921 4.2424q1.3194 2.0048 3.3242 0.68531l6.4674-4.2566q2.0048-1.3194 0.68531-3.3242l-2.7921-4.2424q-1.3194-2.0048-3.3242-0.68531l-6.4674 4.2566q-2.0048 1.3194-0.68531 3.3242z" clip-path="url(#a)" fill="#fff" stroke="#fff"/>
<g clip-path="url(#a)">
<g transform="translate(1193 807.03) rotate(56.649) scale(.08 -.08)">
<use xlink:href="#u"/>
</g>
</g>
<path d="m1166.2 805.01v5.855q0 2.4 2.4 2.4h7.7425q2.4 0 2.4-2.4v-5.855q0-2.4-2.4-2.4h-7.7425q-2.4 0-2.4 2.4z" clip-path="url(#a)" fill="#fff" stroke="#fff"/>
<g clip-path="url(#a)">
<g transform="translate(1170.3 805.01) rotate(90) scale(.08 -.08)">
<use xlink:href="#t"/>
</g>
</g>
<path d="m1261 862.27v35.285q0 2.4 2.4 2.4h7.7425q2.4 0 2.4-2.4v-35.285q0-2.4-2.4-2.4h-7.7425q-2.4 0-2.4 2.4z" clip-path="url(#a)" fill="#fff" stroke="#fff"/>
<g clip-path="url(#a)">
<g transform="translate(1265 862.27) rotate(90) scale(.08 -.08)">
<use xlink:href="#l"/>
<use x="60.818359" xlink:href="#e"/>
<use x="122.341797" xlink:href="#h"/>
<use x="163.439453" xlink:href="#j"/>
<use x="260.851562" xlink:href="#g"/>
<use x="288.634766" xlink:href="#i"/>
<use x="352.013672" xlink:href="#f"/>
<use x="413.292969" xlink:href="#k"/>
</g>
</g>
<path d="m1118.9 862.27v35.285q0 2.4 2.4 2.4h7.7425q2.4 0 2.4-2.4v-35.285q0-2.4-2.4-2.4h-7.7425q-2.4 0-2.4 2.4z" clip-path="url(#a)" fill="#fff" stroke="#fff"/>
<g clip-path="url(#a)">
<g transform="translate(1122.9 862.27) rotate(90) scale(.08 -.08)">
<use xlink:href="#l"/>
<use x="60.818359" xlink:href="#e"/>
<use x="122.341797" xlink:href="#h"/>
<use x="163.439453" xlink:href="#j"/>
<use x="260.851562" xlink:href="#g"/>
<use x="288.634766" xlink:href="#i"/>
<use x="352.013672" xlink:href="#f"/>
<use x="413.292969" xlink:href="#k"/>
</g>
</g>
<path d="m1213.6 862.27v35.285q0 2.4 2.4 2.4h7.7425q2.4 0 2.4-2.4v-35.285q0-2.4-2.4-2.4h-7.7425q-2.4 0-2.4 2.4z" clip-path="url(#a)" fill="#fff" stroke="#fff"/>
<g clip-path="url(#a)">
<g transform="translate(1217.7 862.27) rotate(90) scale(.08 -.08)">
<use xlink:href="#l"/>
<use x="60.818359" xlink:href="#e"/>
<use x="122.341797" xlink:href="#h"/>
<use x="163.439453" xlink:href="#j"/>
<use x="260.851562" xlink:href="#g"/>
<use x="288.634766" xlink:href="#i"/>
<use x="352.013672" xlink:href="#f"/>
<use x="413.292969" xlink:href="#k"/>
</g>
</g>
<path d="m834.68 862.27v35.285q0 2.4 2.4 2.4h7.7425q2.4 0 2.4-2.4v-35.285q0-2.4-2.4-2.4h-7.7425q-2.4 0-2.4 2.4z" clip-path="url(#a)" fill="#fff" stroke="#fff"/>
<g clip-path="url(#a)">
<g transform="translate(838.74 862.27) rotate(90) scale(.08 -.08)">
<use xlink:href="#l"/>
<use x="60.818359" xlink:href="#e"/>
<use x="122.341797" xlink:href="#h"/>
<use x="163.439453" xlink:href="#j"/>
<use x="260.851562" xlink:href="#g"/>
<use x="288.634766" xlink:href="#i"/>
<use x="352.013672" xlink:href="#f"/>
<use x="413.292969" xlink:href="#k"/>
</g>
</g>
<path d="m882.05 862.27v35.285q0 2.4 2.4 2.4h7.7425q2.4 0 2.4-2.4v-35.285q0-2.4-2.4-2.4h-7.7425q-2.4 0-2.4 2.4z" clip-path="url(#a)" fill="#fff" stroke="#fff"/>
<g clip-path="url(#a)">
<g transform="translate(886.11 862.27) rotate(90) scale(.08 -.08)">
<use xlink:href="#l"/>
<use x="60.818359" xlink:href="#e"/>
<use x="122.341797" xlink:href="#h"/>
<use x="163.439453" xlink:href="#j"/>
<use x="260.851562" xlink:href="#g"/>
<use x="288.634766" xlink:href="#i"/>
<use x="352.013672" xlink:href="#f"/>
<use x="413.292969" xlink:href="#k"/>
</g>
</g>
<path d="m971.07 738.97 0.80974-4.9897q0.38445-2.369-1.9846-2.7535l-7.6425-1.2402q-2.369-0.38445-2.7535 1.9846l-0.80974 4.9897q-0.38445 2.369 1.9846 2.7535l7.6425 1.2402q2.369 0.38445 2.7535-1.9846z" clip-path="url(#a)" fill="#fff" stroke="#fff"/>
<g clip-path="url(#a)">
<g transform="translate(967.06 738.32) rotate(-80.782) scale(.08 -.08)">
<use xlink:href="#aa"/>
</g>
</g>
<path d="m970.65 769.18 0.45489 5.5677q0.19543 2.392 2.5875 2.1966l7.7168-0.63047q2.392-0.19543 2.1966-2.5875l-0.45489-5.5677q-0.19543-2.392-2.5875-2.1966l-7.7168 0.63047q-2.392 0.19543-2.1966 2.5875z" clip-path="url(#a)" fill="#fff" stroke="#fff"/>
<g clip-path="url(#a)">
<g transform="translate(974.7 768.85) rotate(85.329) scale(.08 -.08)">
<use xlink:href="#ae"/>
</g>
</g>
<path d="m964.4 807.3 1.7106 5.1983q0.75021 2.2797 3.0299 1.5295l7.3545-2.4202q2.2797-0.75021 1.5295-3.0299l-1.7106-5.1983q-0.75021-2.2797-3.0299-1.5295l-7.3545 2.4202q-2.2797 0.75021-1.5295 3.0299z" clip-path="url(#a)" fill="#fff" stroke="#fff"/>
<g clip-path="url(#a)">
<g transform="translate(968.26 806.03) rotate(71.785) scale(.08 -.08)">
<use xlink:href="#m"/>
</g>
</g>
<path d="m951.53 816.23 4.1406-12.582q0.75021-2.2797-1.5295-3.0299l-7.5991-2.5007q-2.2797-0.75021-3.0299 1.5295l-4.1406 12.582q-0.75021 2.2797 1.5295 3.0299l7.5991 2.5007q2.2797 0.75021 3.0299-1.5295z" clip-path="url(#a)" fill="#fff" stroke="#fff"/>
<g clip-path="url(#a)">
<g transform="translate(947.46 814.89) rotate(-71.785) scale(.08 -.08)">
<use xlink:href="#u"/>
<use x="63.476562" xlink:href="#al"/>
<use x="97.167969" xlink:href="#m"/>
</g>
</g>
<path d="m976.78 862.27v35.285q0 2.4 2.4 2.4h7.7425q2.4 0 2.4-2.4v-35.285q0-2.4-2.4-2.4h-7.7425q-2.4 0-2.4 2.4z" clip-path="url(#a)" fill="#fff" stroke="#fff"/>
<g clip-path="url(#a)">
<g transform="translate(980.84 862.27) rotate(90) scale(.08 -.08)">
<use xlink:href="#l"/>
<use x="60.818359" xlink:href="#e"/>
<use x="122.341797" xlink:href="#h"/>
<use x="163.439453" xlink:href="#j"/>
<use x="260.851562" xlink:href="#g"/>
<use x="288.634766" xlink:href="#i"/>
<use x="352.013672" xlink:href="#f"/>
<use x="413.292969" xlink:href="#k"/>
</g>
</g>
<path d="m929.41 862.27v35.285q0 2.4 2.4 2.4h7.7425q2.4 0 2.4-2.4v-35.285q0-2.4-2.4-2.4h-7.7425q-2.4 0-2.4 2.4z" clip-path="url(#a)" fill="#fff" stroke="#fff"/>
<g clip-path="url(#a)">
<g transform="translate(933.48 862.27) rotate(90) scale(.08 -.08)">
<use xlink:href="#l"/>
<use x="60.818359" xlink:href="#e"/>
<use x="122.341797" xlink:href="#h"/>
<use x="163.439453" xlink:href="#j"/>
<use x="260.851562" xlink:href="#g"/>
<use x="288.634766" xlink:href="#i"/>
<use x="352.013672" xlink:href="#f"/>
<use x="413.292969" xlink:href="#k"/>
</g>
</g>
<path d="m787.31 862.27v35.285q0 2.4 2.4 2.4h7.7425q2.4 0 2.4-2.4v-35.285q0-2.4-2.4-2.4h-7.7425q-2.4 0-2.4 2.4z" clip-path="url(#a)" fill="#fff" stroke="#fff"/>
<g clip-path="url(#a)">
<g transform="translate(791.37 862.27) rotate(90) scale(.08 -.08)">
<use xlink:href="#l"/>
<use x="60.818359" xlink:href="#e"/>
<use x="122.341797" xlink:href="#h"/>
<use x="163.439453" xlink:href="#j"/>
<use x="260.851562" xlink:href="#g"/>
<use x="288.634766" xlink:href="#i"/>
<use x="352.013672" xlink:href="#f"/>
<use x="413.292969" xlink:href="#k"/>
</g>
</g>
<path d="m739.94 862.27v35.285q0 2.4 2.4 2.4h7.7425q2.4 0 2.4-2.4v-35.285q0-2.4-2.4-2.4h-7.7425q-2.4 0-2.4 2.4z" clip-path="url(#a)" fill="#fff" stroke="#fff"/>
<g clip-path="url(#a)">
<g transform="translate(744.01 862.27) rotate(90) scale(.08 -.08)">
<use xlink:href="#l"/>
<use x="60.818359" xlink:href="#e"/>
<use x="122.341797" xlink:href="#h"/>
<use x="163.439453" xlink:href="#j"/>
<use x="260.851562" xlink:href="#g"/>
<use x="288.634766" xlink:href="#i"/>
<use x="352.013672" xlink:href="#f"/>
<use x="413.292969" xlink:href="#k"/>
</g>
</g>
<path d="m218.9 862.27v35.285q0 2.4 2.4 2.4h7.7425q2.4 0 2.4-2.4v-35.285q0-2.4-2.4-2.4h-7.7425q-2.4 0-2.4 2.4z" clip-path="url(#a)" fill="#fff" stroke="#fff"/>
<g clip-path="url(#a)">
<g transform="translate(222.97 862.27) rotate(90) scale(.08 -.08)">
<use xlink:href="#l"/>
<use x="60.818359" xlink:href="#e"/>
<use x="122.341797" xlink:href="#h"/>
<use x="163.439453" xlink:href="#j"/>
<use x="260.851562" xlink:href="#g"/>
<use x="288.634766" xlink:href="#i"/>
<use x="352.013672" xlink:href="#f"/>
<use x="413.292969" xlink:href="#k"/>
</g>
</g>
<path d="m361 862.27v35.285q0 2.4 2.4 2.4h7.7425q2.4 0 2.4-2.4v-35.285q0-2.4-2.4-2.4h-7.7425q-2.4 0-2.4 2.4z" clip-path="url(#a)" fill="#fff" stroke="#fff"/>
<g clip-path="url(#a)">
<g transform="translate(365.07 862.27) rotate(90) scale(.08 -.08)">
<use xlink:href="#l"/>
<use x="60.818359" xlink:href="#e"/>
<use x="122.341797" xlink:href="#h"/>
<use x="163.439453" xlink:href="#j"/>
<use x="260.851562" xlink:href="#g"/>
<use x="288.634766" xlink:href="#i"/>
<use x="352.013672" xlink:href="#f"/>
<use x="413.292969" xlink:href="#k"/>
</g>
</g>
<path d="m503.11 862.27v35.285q0 2.4 2.4 2.4h7.7425q2.4 0 2.4-2.4v-35.285q0-2.4-2.4-2.4h-7.7425q-2.4 0-2.4 2.4z" clip-path="url(#a)" fill="#fff" stroke="#fff"/>
<g clip-path="url(#a)">
<g transform="translate(507.17 862.27) rotate(90) scale(.08 -.08)">
<use xlink:href="#l"/>
<use x="60.818359" xlink:href="#e"/>
<use x="122.341797" xlink:href="#h"/>
<use x="163.439453" xlink:href="#j"/>
<use x="260.851562" xlink:href="#g"/>
<use x="288.634766" xlink:href="#i"/>
<use x="352.013672" xlink:href="#f"/>
<use x="413.292969" xlink:href="#k"/>
</g>
</g>
<path d="m550.47 862.27v35.285q0 2.4 2.4 2.4h7.7425q2.4 0 2.4-2.4v-35.285q0-2.4-2.4-2.4h-7.7425q-2.4 0-2.4 2.4z" clip-path="url(#a)" fill="#fff" stroke="#fff"/>
<g clip-path="url(#a)">
<g transform="translate(554.54 862.27) rotate(90) scale(.08 -.08)">
<use xlink:href="#l"/>
<use x="60.818359" xlink:href="#e"/>
<use x="122.341797" xlink:href="#h"/>
<use x="163.439453" xlink:href="#j"/>
<use x="260.851562" xlink:href="#g"/>
<use x="288.634766" xlink:href="#i"/>
<use x="352.013672" xlink:href="#f"/>
<use x="413.292969" xlink:href="#k"/>
</g>
</g>
<path d="m1166.2 862.27v35.285q0 2.4 2.4 2.4h7.7425q2.4 0 2.4-2.4v-35.285q0-2.4-2.4-2.4h-7.7425q-2.4 0-2.4 2.4z" clip-path="url(#a)" fill="#fff" stroke="#fff"/>
<g clip-path="url(#a)">
<g transform="translate(1170.3 862.27) rotate(90) scale(.08 -.08)">
<use xlink:href="#l"/>
<use x="60.818359" xlink:href="#e"/>
<use x="122.341797" xlink:href="#h"/>
<use x="163.439453" xlink:href="#j"/>
<use x="260.851562" xlink:href="#g"/>
<use x="288.634766" xlink:href="#i"/>
<use x="352.013672" xlink:href="#f"/>
<use x="413.292969" xlink:href="#k"/>
</g>
</g>
<path d="m1308.4 862.27v35.285q0 2.4 2.4 2.4h7.7425q2.4 0 2.4-2.4v-35.285q0-2.4-2.4-2.4h-7.7425q-2.4 0-2.4 2.4z" clip-path="url(#a)" fill="#fff" stroke="#fff"/>
<g clip-path="url(#a)">
<g transform="translate(1312.4 862.27) rotate(90) scale(.08 -.08)">
<use xlink:href="#l"/>
<use x="60.818359" xlink:href="#e"/>
<use x="122.341797" xlink:href="#h"/>
<use x="163.439453" xlink:href="#j"/>
<use x="260.851562" xlink:href="#g"/>
<use x="288.634766" xlink:href="#i"/>
<use x="352.013672" xlink:href="#f"/>
<use x="413.292969" xlink:href="#k"/>
</g>
</g>
<path d="m1687.3 862.27v35.285q0 2.4 2.4 2.4h7.7425q2.4 0 2.4-2.4v-35.285q0-2.4-2.4-2.4h-7.7425q-2.4 0-2.4 2.4z" clip-path="url(#a)" fill="#fff" stroke="#fff"/>
<g clip-path="url(#a)">
<g transform="translate(1691.4 862.27) rotate(90) scale(.08 -.08)">
<use xlink:href="#l"/>
<use x="60.818359" xlink:href="#e"/>
<use x="122.341797" xlink:href="#h"/>
<use x="163.439453" xlink:href="#j"/>
<use x="260.851562" xlink:href="#g"/>
<use x="288.634766" xlink:href="#i"/>
<use x="352.013672" xlink:href="#f"/>
<use x="413.292969" xlink:href="#k"/>
</g>
</g>
<path d="m1734.7 862.27v35.285q0 2.4 2.4 2.4h7.7425q2.4 0 2.4-2.4v-35.285q0-2.4-2.4-2.4h-7.7425q-2.4 0-2.4 2.4z" clip-path="url(#a)" fill="#fff" stroke="#fff"/>
<g clip-path="url(#a)">
<g transform="translate(1738.7 862.27) rotate(90) scale(.08 -.08)">
<use xlink:href="#l"/>
<use x="60.818359" xlink:href="#e"/>
<use x="122.341797" xlink:href="#h"/>
<use x="163.439453" xlink:href="#j"/>
<use x="260.851562" xlink:href="#g"/>
<use x="288.634766" xlink:href="#i"/>
<use x="352.013672" xlink:href="#f"/>
<use x="413.292969" xlink:href="#k"/>
</g>
</g>
<defs>
<path id="b" d="m0 8.6603c2.2967 0 4.4997-0.9125 6.1237-2.5365 1.624-1.624 2.5365-3.827 2.5365-6.1237s-0.9125-4.4997-2.5365-6.1237c-1.624-1.624-3.827-2.5365-6.1237-2.5365s-4.4997 0.9125-6.1237 2.5365c-1.624 1.624-2.5365 3.827-2.5365 6.1237s0.9125 4.4997 2.5365 6.1237c1.624 1.624 3.827 2.5365 6.1237 2.5365z"/>
</defs>
<g clip-path="url(#a)">
<use x="83.071017" y="915.896181" fill="#ffffff" stroke="#ffffff" xlink:href="#b"/>
</g>
<g clip-path="url(#a)">
<use x="130.438388" y="915.896181" fill="#ffffff" stroke="#ffffff" xlink:href="#b"/>
</g>
<g clip-path="url(#a)">
<use x="177.805758" y="915.896181" fill="#ffffff" stroke="#ffffff" xlink:href="#b"/>
</g>
<g clip-path="url(#a)">
<use x="225.173129" y="915.896181" fill="#ffffff" stroke="#ffffff" xlink:href="#b"/>
</g>
<g clip-path="url(#a)">
<use x="272.540499" y="915.896181" fill="#ffffff" stroke="#ffffff" xlink:href="#b"/>
</g>
<g clip-path="url(#a)">
<use x="319.907869" y="915.896181" fill="#ffffff" stroke="#ffffff" xlink:href="#b"/>
</g>
<g clip-path="url(#a)">
<use x="367.27524" y="915.896181" fill="#ffffff" stroke="#ffffff" xlink:href="#b"/>
</g>
<g clip-path="url(#a)">
<use x="414.64261" y="915.896181" fill="#ffffff" stroke="#ffffff" xlink:href="#b"/>
</g>
<g clip-path="url(#a)">
<use x="462.009981" y="915.896181" fill="#ffffff" stroke="#ffffff" xlink:href="#b"/>
</g>
<g clip-path="url(#a)">
<use x="509.377351" y="915.896181" fill="#ffffff" stroke="#ffffff" xlink:href="#b"/>
</g>
<g clip-path="url(#a)">
<use x="556.744722" y="915.896181" fill="#ffffff" stroke="#ffffff" xlink:href="#b"/>
</g>
<g clip-path="url(#a)">
<use x="604.112092" y="915.896181" fill="#ffffff" stroke="#ffffff" xlink:href="#b"/>
</g>
<g clip-path="url(#a)">
<use x="651.479463" y="915.896181" fill="#ffffff" stroke="#ffffff" xlink:href="#b"/>
</g>
<g clip-path="url(#a)">
<use x="698.846833" y="915.896181" fill="#ffffff" stroke="#ffffff" xlink:href="#b"/>
</g>
<g clip-path="url(#a)">
<use x="746.214203" y="915.896181" fill="#ffffff" stroke="#ffffff" xlink:href="#b"/>
</g>
<g clip-path="url(#a)">
<use x="793.581574" y="915.896181" fill="#ffffff" stroke="#ffffff" xlink:href="#b"/>
</g>
<g clip-path="url(#a)">
<use x="840.948944" y="915.896181" fill="#ffffff" stroke="#ffffff" xlink:href="#b"/>
</g>
<g clip-path="url(#a)">
<use x="888.316315" y="915.896181" fill="#ffffff" stroke="#ffffff" xlink:href="#b"/>
</g>
<g clip-path="url(#a)">
<use x="935.683685" y="915.896181" fill="#ffffff" stroke="#ffffff" xlink:href="#b"/>
</g>
<g clip-path="url(#a)">
<use x="983.051056" y="915.896181" fill="#ffffff" stroke="#ffffff" xlink:href="#b"/>
</g>
<g clip-path="url(#a)">
<use x="1030.418426" y="915.896181" fill="#ffffff" stroke="#ffffff" xlink:href="#b"/>
</g>
<g clip-path="url(#a)">
<use x="1077.785797" y="915.896181" fill="#ffffff" stroke="#ffffff" xlink:href="#b"/>
</g>
<g clip-path="url(#a)">
<use x="1125.153167" y="915.896181" fill="#ffffff" stroke="#ffffff" xlink:href="#b"/>
</g>
<g clip-path="url(#a)">
<use x="1172.520537" y="915.896181" fill="#ffffff" stroke="#ffffff" xlink:href="#b"/>
</g>
<g clip-path="url(#a)">
<use x="1219.887908" y="915.896181" fill="#ffffff" stroke="#ffffff" xlink:href="#b"/>
</g>
<g clip-path="url(#a)">
<use x="1267.255278" y="915.896181" fill="#ffffff" stroke="#ffffff" xlink:href="#b"/>
</g>
<g clip-path="url(#a)">
<use x="1314.622649" y="915.896181" fill="#ffffff" stroke="#ffffff" xlink:href="#b"/>
</g>
<g clip-path="url(#a)">
<use x="1361.990019" y="915.896181" fill="#ffffff" stroke="#ffffff" xlink:href="#b"/>
</g>
<g clip-path="url(#a)">
<use x="1409.35739" y="915.896181" fill="#ffffff" stroke="#ffffff" xlink:href="#b"/>
</g>
<g clip-path="url(#a)">
<use x="1456.72476" y="915.896181" fill="#ffffff" stroke="#ffffff" xlink:href="#b"/>
</g>
<g clip-path="url(#a)">
<use x="1504.092131" y="915.896181" fill="#ffffff" stroke="#ffffff" xlink:href="#b"/>
</g>
<g clip-path="url(#a)">
<use x="1551.459501" y="915.896181" fill="#ffffff" stroke="#ffffff" xlink:href="#b"/>
</g>
<g clip-path="url(#a)">
<use x="1598.826871" y="915.896181" fill="#ffffff" stroke="#ffffff" xlink:href="#b"/>
</g>
<g clip-path="url(#a)">
<use x="1646.194242" y="915.896181" fill="#ffffff" stroke="#ffffff" xlink:href="#b"/>
</g>
<g clip-path="url(#a)">
<use x="1693.561612" y="915.896181" fill="#ffffff" stroke="#ffffff" xlink:href="#b"/>
</g>
<g clip-path="url(#a)">
<use x="1740.928983" y="915.896181" fill="#ffffff" stroke="#ffffff" xlink:href="#b"/>
</g>
<g clip-path="url(#a)">
<use x="482.828461" y="44.103819" fill="#ffffff" stroke="#ffffff" xlink:href="#b"/>
</g>
<g clip-path="url(#a)">
<use x="482.828461" y="134.917933" fill="#ffffff" stroke="#ffffff" xlink:href="#b"/>
</g>
<g clip-path="url(#a)">
<use x="1042.641291" y="222.765757" fill="#ffffff" stroke="#ffffff" xlink:href="#b"/>
</g>
<g clip-path="url(#a)">
<use x="201.489443" y="771.957301" fill="#ffffff" stroke="#ffffff" xlink:href="#b"/>
</g>
<g clip-path="url(#a)">
<use x="319.907869" y="843.926741" fill="#ffffff" stroke="#ffffff" xlink:href="#b"/>
</g>
<g clip-path="url(#a)">
<use x="83.071017" y="843.926741" fill="#ffffff" stroke="#ffffff" xlink:href="#b"/>
</g>
<g clip-path="url(#a)">
<use x="527.452608" y="307.850388" fill="#ffffff" stroke="#ffffff" xlink:href="#b"/>
</g>
<g clip-path="url(#a)">
<use x="1425.146513" y="771.957301" fill="#ffffff" stroke="#ffffff" xlink:href="#b"/>
</g>
<g clip-path="url(#a)">
<use x="1456.72476" y="843.926741" fill="#ffffff" stroke="#ffffff" xlink:href="#b"/>
</g>
<g clip-path="url(#a)">
<use x="1448.830198" y="771.957301" fill="#ffffff" stroke="#ffffff" xlink:href="#b"/>
</g>
<g clip-path="url(#a)">
<use x="1551.459501" y="843.926741" fill="#ffffff" stroke="#ffffff" xlink:href="#b"/>
</g>
<g clip-path="url(#a)">
<use x="1598.826871" y="843.926741" fill="#ffffff" stroke="#ffffff" xlink:href="#b"/>
</g>
<g clip-path="url(#a)">
<use x="1646.194242" y="843.926741" fill="#ffffff" stroke="#ffffff" xlink:href="#b"/>
</g>
<g clip-path="url(#a)">
<use x="1361.990019" y="843.926741" fill="#ffffff" stroke="#ffffff" xlink:href="#b"/>
</g>
<g clip-path="url(#a)">
<use x="1409.35739" y="843.926741" fill="#ffffff" stroke="#ffffff" xlink:href="#b"/>
</g>
<g clip-path="url(#a)">
<use x="1504.092131" y="843.926741" fill="#ffffff" stroke="#ffffff" xlink:href="#b"/>
</g>
<g clip-path="url(#a)">
<use x="414.64261" y="843.926741" fill="#ffffff" stroke="#ffffff" xlink:href="#b"/>
</g>
<g clip-path="url(#a)">
<use x="462.009981" y="843.926741" fill="#ffffff" stroke="#ffffff" xlink:href="#b"/>
</g>
<g clip-path="url(#a)">
<use x="694.488377" y="390.372599" fill="#ffffff" stroke="#ffffff" xlink:href="#b"/>
</g>
<g clip-path="url(#a)">
<use x="604.112092" y="843.926741" fill="#ffffff" stroke="#ffffff" xlink:href="#b"/>
</g>
<g clip-path="url(#a)">
<use x="651.479463" y="843.926741" fill="#ffffff" stroke="#ffffff" xlink:href="#b"/>
</g>
<g clip-path="url(#a)">
<use x="827.873576" y="470.533847" fill="#ffffff" stroke="#ffffff" xlink:href="#b"/>
</g>
<g clip-path="url(#a)">
<use x="698.846833" y="843.926741" fill="#ffffff" stroke="#ffffff" xlink:href="#b"/>
</g>
<g clip-path="url(#a)">
<use x="769.897889" y="698.986687" fill="#ffffff" stroke="#ffffff" xlink:href="#b"/>
</g>
<g clip-path="url(#a)">
<use x="793.581574" y="771.957301" fill="#ffffff" stroke="#ffffff" xlink:href="#b"/>
</g>
<g clip-path="url(#a)">
<use x="1049.16801" y="548.540582" fill="#ffffff" stroke="#ffffff" xlink:href="#b"/>
</g>
<g clip-path="url(#a)">
<use x="873.514012" y="624.610968" fill="#ffffff" stroke="#ffffff" xlink:href="#b"/>
</g>
<g clip-path="url(#a)">
<use x="1054.102111" y="843.926741" fill="#ffffff" stroke="#ffffff" xlink:href="#b"/>
</g>
<g clip-path="url(#a)">
<use x="1219.887908" y="698.986687" fill="#ffffff" stroke="#ffffff" xlink:href="#b"/>
</g>
<g clip-path="url(#a)">
<use x="1172.520537" y="771.957301" fill="#ffffff" stroke="#ffffff" xlink:href="#b"/>
</g>
<g clip-path="url(#a)">
<use x="1267.255278" y="843.926741" fill="#ffffff" stroke="#ffffff" xlink:href="#b"/>
</g>
<g clip-path="url(#a)">
<use x="1125.153167" y="843.926741" fill="#ffffff" stroke="#ffffff" xlink:href="#b"/>
</g>
<g clip-path="url(#a)">
<use x="1219.887908" y="843.926741" fill="#ffffff" stroke="#ffffff" xlink:href="#b"/>
</g>
<g clip-path="url(#a)">
<use x="840.948944" y="843.926741" fill="#ffffff" stroke="#ffffff" xlink:href="#b"/>
</g>
<g clip-path="url(#a)">
<use x="888.316315" y="843.926741" fill="#ffffff" stroke="#ffffff" xlink:href="#b"/>
</g>
<g clip-path="url(#a)">
<use x="971.209213" y="698.986687" fill="#ffffff" stroke="#ffffff" xlink:href="#b"/>
</g>
<g clip-path="url(#a)">
<use x="959.36737" y="771.957301" fill="#ffffff" stroke="#ffffff" xlink:href="#b"/>
</g>
<g clip-path="url(#a)">
<use x="983.051056" y="843.926741" fill="#ffffff" stroke="#ffffff" xlink:href="#b"/>
</g>
<g clip-path="url(#a)">
<use x="935.683685" y="843.926741" fill="#ffffff" stroke="#ffffff" xlink:href="#b"/>
</g>
<g clip-path="url(#a)">
<use x="793.581574" y="843.926741" fill="#ffffff" stroke="#ffffff" xlink:href="#b"/>
</g>
<g clip-path="url(#a)">
<use x="746.214203" y="843.926741" fill="#ffffff" stroke="#ffffff" xlink:href="#b"/>
</g>
<g clip-path="url(#a)">
<use x="225.173129" y="843.926741" fill="#ffffff" stroke="#ffffff" xlink:href="#b"/>
</g>
<g clip-path="url(#a)">
<use x="367.27524" y="843.926741" fill="#ffffff" stroke="#ffffff" xlink:href="#b"/>
</g>
<g clip-path="url(#a)">
<use x="509.377351" y="843.926741" fill="#ffffff" stroke="#ffffff" xlink:href="#b"/>
</g>
<g clip-path="url(#a)">
<use x="556.744722" y="843.926741" fill="#ffffff" stroke="#ffffff" xlink:href="#b"/>
</g>
<g clip-path="url(#a)">
<use x="1172.520537" y="843.926741" fill="#ffffff" stroke="#ffffff" xlink:href="#b"/>
</g>
<g clip-path="url(#a)">
<use x="1314.622649" y="843.926741" fill="#ffffff" stroke="#ffffff" xlink:href="#b"/>
</g>
<g clip-path="url(#a)">
<use x="1693.561612" y="843.926741" fill="#ffffff" stroke="#ffffff" xlink:href="#b"/>
</g>
<g clip-path="url(#a)">
<use x="1740.928983" y="843.926741" fill="#ffffff" stroke="#ffffff" xlink:href="#b"/>
</g>
<g clip-path="url(#a)">
<defs>
<path id="q" d="m44.281 53.078v-8.5q-3.7969 1.9531-7.9062 2.9219-4.0938 0.98438-8.5 0.98438-6.6875 0-10.031-2.0469t-3.3438-6.1562q0-3.125 2.3906-4.9062t9.625-3.3906l3.0781-0.6875q9.5625-2.0469 13.594-5.7812t4.0312-10.422q0-7.625-6.0312-12.078-6.0312-4.4375-16.578-4.4375-4.3906 0-9.1562 0.85938t-10.031 2.5625v9.2812q4.9844-2.5938 9.8125-3.8906 4.8281-1.2812 9.5781-1.2812 6.3438 0 9.75 2.1719 3.4219 2.1719 3.4219 6.125 0 3.6562-2.4688 5.6094-2.4531 1.9531-10.812 3.7656l-3.125 0.73438q-8.3438 1.75-12.062 5.3906-3.7031 3.6406-3.7031 9.9844 0 7.7188 5.4688 11.906 5.4688 4.2031 15.531 4.2031 4.9688 0 9.3594-0.73438 4.4062-0.71875 8.1094-2.1875z"/>
</defs>
<g transform="translate(77.046 918.66) scale(.1 -.1)">
<use xlink:href="#m"/>
<use x="68.408203" xlink:href="#q"/>
</g>
</g>
<g clip-path="url(#a)">
<defs>
<path id="ax" d="m19.672 34.812v-26.703h15.828q7.9531 0 11.781 3.2969 3.8438 3.2969 3.8438 10.078 0 6.8438-3.8438 10.078-3.8281 3.25-11.781 3.25zm0 29.984v-21.969h14.609q7.2188 0 10.75 2.7031 3.5469 2.7188 3.5469 8.2812 0 5.5156-3.5469 8.25-3.5312 2.7344-10.75 2.7344zm-9.8594 8.1094h25.203q11.281 0 17.375-4.6875 6.1094-4.6875 6.1094-13.328 0-6.7031-3.125-10.656t-9.1875-4.9219q7.2812-1.5625 11.312-6.5312 4.0312-4.9531 4.0312-12.375 0-9.7656-6.6406-15.094-6.6406-5.3125-18.906-5.3125h-26.172z"/>
<path id="ad" d="m45.406 46.391v29.594h8.9844v-75.984h-8.9844v8.2031q-2.8281-4.875-7.1562-7.25-4.3125-2.375-10.375-2.375-9.9062 0-16.141 7.9062-6.2188 7.9219-6.2188 20.812t6.2188 20.797q6.2344 7.9062 16.141 7.9062 6.0625 0 10.375-2.375 4.3281-2.3594 7.1562-7.2344zm-30.609-19.094q0-9.9062 4.0781-15.547t11.203-5.6406 11.219 5.6406q4.1094 5.6406 4.1094 15.547t-4.1094 15.547q-4.0938 5.6406-11.219 5.6406t-11.203-5.6406-4.0781-15.547z"/>
</defs>
<g transform="translate(110.41 918.66) scale(.1 -.1)">
<use xlink:href="#ax"/>
<use x="68.603516" xlink:href="#e"/>
<use x="130.126953" xlink:href="#h"/>
<use x="171.224609" xlink:href="#i"/>
<use x="234.603516" xlink:href="#f"/>
<use x="295.882812" xlink:href="#h"/>
<use x="336.980469" xlink:href="#ad"/>
</g>
</g>
<g clip-path="url(#a)">
<g transform="translate(174.93 918.66) scale(.1 -.1)">
<use xlink:href="#aj"/>
</g>
</g>
<g clip-path="url(#a)">
<defs>
<path id="d" d="m10.688 12.406h10.312v-12.406h-10.312z"/>
</defs>
<g transform="translate(223.58 918.66) scale(.1 -.1)">
<use xlink:href="#d"/>
</g>
</g>
<g clip-path="url(#a)">
<defs>
<path id="ah" d="m48.781 52.594v-8.4062q-3.8125 2.1094-7.6406 3.1562t-7.7344 1.0469q-8.75 0-13.594-5.5469-4.8281-5.5312-4.8281-15.547t4.8281-15.562q4.8438-5.5312 13.594-5.5312 3.9062 0 7.7344 1.0469t7.6406 3.1562v-8.3125q-3.7656-1.75-7.7969-2.625-4.0156-0.89062-8.5625-0.89062-12.359 0-19.641 7.7656-7.2656 7.7656-7.2656 20.953 0 13.375 7.3438 21.031 7.3594 7.6719 20.156 7.6719 4.1406 0 8.0938-0.85938 3.9531-0.84375 7.6719-2.5469z"/>
<path id="bd" d="m9.0781 75.984h9.0312v-44.875l26.812 23.578h11.469l-29-25.578 30.234-29.109h-11.719l-27.797 26.703v-26.703h-9.0312z"/>
</defs>
<g transform="translate(261.66 918.66) scale(.1 -.1)">
<use xlink:href="#ak"/>
<use x="77.001953" xlink:href="#g"/>
<use x="104.785156" xlink:href="#ah"/>
<use x="159.765625" xlink:href="#bd"/>
</g>
</g>
<g clip-path="url(#a)">
<defs>
<path id="s" d="m30.609 48.391q-7.2188 0-11.422-5.6406t-4.2031-15.453 4.1719-15.453q4.1875-5.6406 11.453-5.6406 7.1875 0 11.375 5.6562 4.2031 5.6719 4.2031 15.438 0 9.7188-4.2031 15.406-4.1875 5.6875-11.375 5.6875zm0 7.6094q11.719 0 18.406-7.625 6.7031-7.6094 6.7031-21.078 0-13.422-6.7031-21.078-6.6875-7.6406-18.406-7.6406-11.766 0-18.438 7.6406-6.6562 7.6562-6.6562 21.078 0 13.469 6.6562 21.078 6.6719 7.625 18.438 7.625z"/>
<path id="ao" d="m48.688 27.297q0 9.9062-4.0781 15.547t-11.203 5.6406q-7.1406 0-11.219-5.6406t-4.0781-15.547 4.0781-15.547 11.219-5.6406q7.125 0 11.203 5.6406t4.0781 15.547zm-30.578 19.094q2.8438 4.875 7.1562 7.2344 4.3281 2.375 10.328 2.375 9.9688 0 16.188-7.9062 6.2344-7.9062 6.2344-20.797t-6.2344-20.812q-6.2188-7.9062-16.188-7.9062-6 0-10.328 2.375-4.3125 2.375-7.1562 7.25v-8.2031h-9.0312v75.984h9.0312z"/>
<path id="bb" d="m2.9844 54.688h9.5156l17.094-45.891 17.094 45.891h9.5156l-20.516-54.688h-12.203z"/>
</defs>
<g transform="translate(296.73 918.66) scale(.1 -.1)">
<use xlink:href="#s"/>
<use x="61.181641" xlink:href="#ao"/>
<use x="124.658203" xlink:href="#q"/>
<use x="176.757812" xlink:href="#e"/>
<use x="238.28125" xlink:href="#h"/>
<use x="279.394531" xlink:href="#bb"/>
<use x="338.574219" xlink:href="#e"/>
<use x="400.097656" xlink:href="#ad"/>
</g>
</g>
<g clip-path="url(#a)">
<defs>
<path id="ap" d="m11.719 12.406h10.297v-8.4062l-8-15.625h-6.2969l4 15.625z"/>
</defs>
<g transform="translate(365.69 918.66) scale(.1 -.1)">
<use xlink:href="#ap"/>
</g>
</g>
<g clip-path="url(#a)">
<defs>
<path id="w" d="m18.312 70.219v-15.531h18.5v-6.9844h-18.5v-29.688q0-6.6875 1.8281-8.5938t7.4531-1.9062h9.2188v-7.5156h-9.2188q-10.406 0-14.359 3.875-3.9531 3.8906-3.9531 14.141v29.688h-6.5938v6.9844h6.5938v15.531z"/>
<path id="x" d="m54.891 33.016v-33.016h-8.9844v32.719q0 7.7656-3.0312 11.609-3.0312 3.8594-9.0781 3.8594-7.2812 0-11.484-4.6406-4.2031-4.625-4.2031-12.641v-30.906h-9.0312v75.984h9.0312v-29.797q3.2344 4.9375 7.5938 7.375 4.375 2.4375 10.094 2.4375 9.4219 0 14.25-5.8281 4.8438-5.8281 4.8438-17.156z"/>
</defs>
<g transform="translate(406.44 918.66) scale(.1 -.1)">
<use xlink:href="#w"/>
<use x="39.208984" xlink:href="#x"/>
<use x="102.587891" xlink:href="#e"/>
</g>
</g>
<g clip-path="url(#a)">
<defs>
<path id="at" d="m3.3281 72.906h9.9531l15.328-61.625 15.281 61.625h11.094l15.328-61.625 15.281 61.625h10.016l-18.312-72.906h-12.406l-15.375 63.281-15.531-63.281h-12.406z"/>
</defs>
<g transform="translate(441.05 918.66) scale(.1 -.1)">
<use xlink:href="#at"/>
<use x="98.783203" xlink:href="#f"/>
<use x="160.0625" xlink:href="#h"/>
<use x="201.160156" xlink:href="#i"/>
<use x="264.539062" xlink:href="#e"/>
<use x="326.0625" xlink:href="#h"/>
<use x="367.175781" xlink:href="#q"/>
</g>
</g>
<g clip-path="url(#a)">
<g transform="translate(507.79 918.66) scale(.1 -.1)">
<use xlink:href="#ap"/>
</g>
</g>
<g clip-path="url(#a)">
<defs>
<path id="aq" d="m17.922 72.906v-27.109h-8.2969v27.109zm18.453 0v-27.109h-8.2969v27.109z"/>
</defs>
<g transform="translate(554.44 918.66) scale(.1 -.1)">
<use xlink:href="#aq"/>
</g>
</g>
<g clip-path="url(#a)">
<g transform="translate(598.44 918.66) scale(.1 -.1)">
<use xlink:href="#f"/>
<use x="61.279297" xlink:href="#q"/>
</g>
</g>
<g clip-path="url(#a)">
<g transform="translate(640.04 918.66) scale(.1 -.1)">
<use xlink:href="#q"/>
<use x="52.099609" xlink:href="#s"/>
<use x="113.28125" xlink:href="#i"/>
<use x="176.660156" xlink:href="#q"/>
</g>
</g>
<g clip-path="url(#a)">
<defs>
<path id="an" d="m37.109 75.984v-7.4844h-8.5938q-4.8281 0-6.7188-1.9531-1.875-1.9531-1.875-7.0312v-4.8281h14.797v-6.9844h-14.797v-47.703h-9.0312v47.703h-8.5938v6.9844h8.5938v3.8125q0 9.125 4.25 13.297 4.25 4.1875 13.469 4.1875z"/>
</defs>
<g transform="translate(694.03 918.66) scale(.1 -.1)">
<use xlink:href="#s"/>
<use x="61.181641" xlink:href="#an"/>
</g>
</g>
<g clip-path="url(#a)">
<g transform="translate(731.59 918.66) scale(.1 -.1)">
<use xlink:href="#z"/>
<use x="60.255859" xlink:href="#s"/>
<use x="121.4375" xlink:href="#k"/>
<use x="149.220703" xlink:href="#g"/>
<use x="177.003906" xlink:href="#q"/>
<use x="229.103516" xlink:href="#x"/>
</g>
</g>
<g clip-path="url(#a)">
<defs>
<path id="aw" d="m9.8125 72.906h9.8594v-67.828q0-13.188-5-19.141t-16.094-5.9531h-3.75v8.2969h3.0781q6.5312 0 9.2188 3.6719 2.6875 3.6562 2.6875 13.125z"/>
<path id="ar" d="m4.2031 54.688h8.9844l11.234-42.672 11.172 42.672h10.594l11.234-42.672 11.188 42.672h8.9844l-14.312-54.688h-10.594l-11.766 44.828-11.812-44.828h-10.609z"/>
</defs>
<g transform="translate(782.34 918.66) scale(.1 -.1)">
<use xlink:href="#aw"/>
<use x="29.492188" xlink:href="#e"/>
<use x="91.015625" xlink:href="#ar"/>
<use x="172.802734" xlink:href="#q"/>
</g>
</g>
<g clip-path="url(#a)">
<g transform="translate(830.63 918.66) scale(.1 -.1)">
<use xlink:href="#ar"/>
<use x="81.787109" xlink:href="#x"/>
<use x="145.166016" xlink:href="#s"/>
</g>
</g>
<g clip-path="url(#a)">
<g transform="translate(878.92 918.66) scale(.1 -.1)">
<use xlink:href="#an"/>
<use x="35.205078" xlink:href="#k"/>
<use x="62.988281" xlink:href="#e"/>
<use x="124.511719" xlink:href="#ad"/>
</g>
</g>
<g clip-path="url(#a)">
<g transform="translate(924.03 918.66) scale(.1 -.1)">
<use xlink:href="#w"/>
<use x="39.208984" xlink:href="#x"/>
<use x="102.587891" xlink:href="#e"/>
<use x="164.111328" xlink:href="#g"/>
<use x="191.894531" xlink:href="#h"/>
</g>
</g>
<g clip-path="url(#a)">
<g transform="translate(958.08 918.66) scale(.1 -.1)">
<use xlink:href="#x"/>
<use x="63.378906" xlink:href="#s"/>
<use x="124.560547" xlink:href="#j"/>
<use x="221.972656" xlink:href="#e"/>
<use x="283.496094" xlink:href="#k"/>
<use x="311.279297" xlink:href="#f"/>
<use x="372.558594" xlink:href="#i"/>
<use x="435.9375" xlink:href="#ad"/>
</g>
</g>
<g clip-path="url(#a)">
<defs>
<path id="bc" d="m8.5 21.578v33.109h8.9844v-32.766q0-7.7656 3.0156-11.656 3.0312-3.875 9.0938-3.875 7.2656 0 11.484 4.6406 4.2344 4.6406 4.2344 12.656v31h8.9844v-54.688h-8.9844v8.4062q-3.2656-4.9844-7.5938-7.4062-4.3125-2.4219-10.031-2.4219-9.4219 0-14.312 5.8594-4.875 5.8594-4.875 17.141z"/>
</defs>
<g transform="translate(1009.5 918.66) scale(.1 -.1)">
<use xlink:href="#ao"/>
<use x="63.476562" xlink:href="#e"/>
<use x="125" xlink:href="#ah"/>
<use x="179.980469" xlink:href="#f"/>
<use x="241.259766" xlink:href="#bc"/>
<use x="304.638672" xlink:href="#q"/>
<use x="356.738281" xlink:href="#e"/>
</g>
</g>
<g clip-path="url(#a)">
<g transform="translate(1073 918.66) scale(.1 -.1)">
<use xlink:href="#s"/>
<use x="61.181641" xlink:href="#an"/>
</g>
</g>
<g clip-path="url(#a)">
<g transform="translate(1115.6 918.66) scale(.1 -.1)">
<use xlink:href="#f"/>
<use x="61.279297" xlink:href="#i"/>
<use x="124.658203" xlink:href="#w"/>
<use x="163.867188" xlink:href="#g"/>
</g>
</g>
<g clip-path="url(#a)">
<defs>
<path id="ay" d="m4.8906 31.391h26.312v-8h-26.312z"/>
</defs>
<g transform="translate(1170.7 918.66) scale(.1 -.1)">
<use xlink:href="#ay"/>
</g>
</g>
<g clip-path="url(#a)">
<g transform="translate(1201.3 918.66) scale(.1 -.1)">
<use xlink:href="#u"/>
<use x="63.476562" xlink:href="#e"/>
<use x="125" xlink:href="#j"/>
<use x="222.412109" xlink:href="#g"/>
<use x="250.195312" xlink:href="#w"/>
<use x="289.404297" xlink:href="#g"/>
<use x="317.1875" xlink:href="#ah"/>
</g>
</g>
<g clip-path="url(#a)">
<defs>
<path id="am" d="m18.109 8.2031v-29h-9.0312v75.484h9.0312v-8.2969q2.8438 4.875 7.1562 7.2344 4.3281 2.375 10.328 2.375 9.9688 0 16.188-7.9062 6.2344-7.9062 6.2344-20.797t-6.2344-20.812q-6.2188-7.9062-16.188-7.9062-6 0-10.328 2.375-4.3125 2.375-7.1562 7.25zm30.578 19.094q0 9.9062-4.0781 15.547t-11.203 5.6406q-7.1406 0-11.219-5.6406t-4.0781-15.547 4.0781-15.547 11.219-5.6406q7.125 0 11.203 5.6406t4.0781 15.547z"/>
<path id="as" d="m45.406 27.984q0 9.7656-4.0312 15.125-4.0156 5.375-11.297 5.375-7.2188 0-11.25-5.375-4.0312-5.3594-4.0312-15.125 0-9.7188 4.0312-15.094t11.25-5.375q7.2812 0 11.297 5.375 4.0312 5.375 4.0312 15.094zm8.9844-21.203q0-13.953-6.2031-20.766-6.1875-6.8125-18.984-6.8125-4.7344 0-8.9375 0.70312t-8.1562 2.1719v8.7344q3.9531-2.1406 7.8125-3.1562 3.8594-1.0312 7.8594-1.0312 8.8438 0 13.234 4.6094t4.3906 13.938v4.4531q-2.7812-4.8438-7.125-7.2344t-10.406-2.3906q-10.047 0-16.203 7.6562-6.1562 7.6719-6.1562 20.328 0 12.688 6.1562 20.344 6.1562 7.6719 16.203 7.6719 6.0625 0 10.406-2.3906t7.125-7.2188v8.2969h8.9844z"/>
</defs>
<g transform="translate(1245.3 918.66) scale(.1 -.1)">
<use xlink:href="#am"/>
<use x="63.476562" xlink:href="#s"/>
<use x="124.658203" xlink:href="#as"/>
<use x="188.134766" xlink:href="#h"/>
<use x="229.216797" xlink:href="#s"/>
<use x="290.398438" xlink:href="#j"/>
<use x="387.810547" xlink:href="#q"/>
</g>
</g>
<g clip-path="url(#a)">
<g transform="translate(1309.9 918.66) scale(.1 -.1)">
<use xlink:href="#d"/>
<use x="31.787109" xlink:href="#d"/>
<use x="63.574219" xlink:href="#d"/>
</g>
</g>
<g clip-path="url(#a)">
<g transform="translate(1352.6 918.66) scale(.1 -.1)">
<use xlink:href="#x"/>
<use x="63.378906" xlink:href="#f"/>
<use x="124.658203" xlink:href="#ad"/>
</g>
</g>
<g clip-path="url(#a)">
<g transform="translate(1406.3 918.66) scale(.1 -.1)">
<use xlink:href="#f"/>
</g>
</g>
<g clip-path="url(#a)">
<g transform="translate(1435.1 918.66) scale(.1 -.1)">
<use xlink:href="#am"/>
<use x="63.476562" xlink:href="#e"/>
<use x="125" xlink:href="#h"/>
<use x="166.113281" xlink:href="#q"/>
<use x="218.212891" xlink:href="#s"/>
<use x="279.394531" xlink:href="#i"/>
<use x="342.773438" xlink:href="#f"/>
<use x="404.052734" xlink:href="#k"/>
</g>
</g>
<g clip-path="url(#a)">
<g transform="translate(1484.8 918.66) scale(.1 -.1)">
<use xlink:href="#g"/>
<use x="27.783203" xlink:href="#i"/>
<use x="91.162109" xlink:href="#w"/>
<use x="130.371094" xlink:href="#e"/>
<use x="191.894531" xlink:href="#h"/>
<use x="232.976562" xlink:href="#e"/>
<use x="294.5" xlink:href="#q"/>
<use x="346.599609" xlink:href="#w"/>
</g>
</g>
<g clip-path="url(#a)">
<g transform="translate(1546.9 918.66) scale(.1 -.1)">
<use xlink:href="#g"/>
<use x="27.783203" xlink:href="#i"/>
</g>
</g>
<g clip-path="url(#a)">
<defs>
<path id="ba" d="m54.891 54.688-19.781-26.609 20.797-28.078h-10.594l-15.922 21.484-15.906-21.484h-10.609l21.25 28.609-19.438 26.078h10.594l14.5-19.484 14.5 19.484z"/>
</defs>
<g transform="translate(1576.2 918.66) scale(.1 -.1)">
<use xlink:href="#e"/>
<use x="61.507812" xlink:href="#ba"/>
<use x="120.6875" xlink:href="#am"/>
<use x="184.164062" xlink:href="#s"/>
<use x="245.345703" xlink:href="#q"/>
<use x="297.445312" xlink:href="#g"/>
<use x="325.228516" xlink:href="#i"/>
<use x="388.607422" xlink:href="#as"/>
</g>
</g>
<g clip-path="url(#a)">
<defs>
<path id="au" d="m9.8125 72.906h13.281l32.328-60.984v60.984h9.5625v-72.906h-13.281l-32.312 60.984v-60.984h-9.5781z"/>
<path id="az" d="m5.5156 54.688h42.672v-8.2031l-33.781-39.312h33.781v-7.1719h-43.891v8.2031l33.797 39.312h-32.578z"/>
</defs>
<g transform="translate(1627.9 918.66) scale(.1 -.1)">
<use xlink:href="#au"/>
<use x="74.804688" xlink:href="#f"/>
<use x="136.083984" xlink:href="#az"/>
<use x="188.574219" xlink:href="#g"/>
<use x="216.357422" xlink:href="#q"/>
<use x="268.457031" xlink:href="#j"/>
</g>
</g>
<g clip-path="url(#a)">
<g transform="translate(1692 918.66) scale(.1 -.1)">
<use xlink:href="#d"/>
</g>
</g>
<g clip-path="url(#a)">
<g transform="translate(1738.6 918.66) scale(.1 -.1)">
<use xlink:href="#aq"/>
</g>
</g>
<g clip-path="url(#a)">
<defs>
<path id="c" d="m12.406 8.2969h16.109v55.625l-17.531-3.5156v8.9844l17.438 3.5156h9.8594v-64.609h16.109v-8.2969h-41.984z"/>
</defs>
<g transform="translate(474.88 46.863) scale(.1 -.1)">
<use xlink:href="#c"/>
<use x="63.623047" xlink:href="#d"/>
<use x="95.410156" xlink:href="#c"/>
</g>
</g>
<g clip-path="url(#a)">
<defs>
<path id="p" d="m19.188 8.2969h34.422v-8.2969h-46.281v8.2969q5.6094 5.8125 15.297 15.594 9.7031 9.7969 12.188 12.641 4.7344 5.3125 6.6094 9 1.8906 3.6875 1.8906 7.25 0 5.8125-4.0781 9.4688-4.0781 3.6719-10.625 3.6719-4.6406 0-9.7969-1.6094-5.1406-1.6094-11-4.8906v9.9688q5.9531 2.3906 11.125 3.6094 5.1875 1.2188 9.4844 1.2188 11.328 0 18.062-5.6719 6.7344-5.6562 6.7344-15.125 0-4.5-1.6875-8.5312-1.6719-4.0156-6.125-9.4844-1.2188-1.4219-7.7656-8.1875-6.5312-6.7656-18.453-18.922z"/>
</defs>
<g transform="translate(474.88 137.68) scale(.1 -.1)">
<use xlink:href="#c"/>
<use x="63.623047" xlink:href="#d"/>
<use x="95.410156" xlink:href="#p"/>
</g>
</g>
<g clip-path="url(#a)">
<defs>
<path id="r" d="m10.797 72.906h38.719v-8.3125h-29.688v-17.859q2.1406 0.73438 4.2812 1.0938 2.1562 0.35938 4.3125 0.35938 12.203 0 19.328-6.6875 7.1406-6.6875 7.1406-18.109 0-11.766-7.3281-18.297-7.3281-6.5156-20.656-6.5156-4.5938 0-9.3594 0.78125-4.75 0.78125-9.8281 2.3438v9.9219q4.3906-2.3906 9.0781-3.5625t9.9062-1.1719q8.4531 0 13.375 4.4375 4.9375 4.4375 4.9375 12.062 0 7.6094-4.9375 12.047-4.9219 4.4531-13.375 4.4531-3.9531 0-7.8906-0.875-3.9219-0.875-8.0156-2.7344z"/>
</defs>
<g transform="translate(1034.7 225.53) scale(.1 -.1)">
<use xlink:href="#c"/>
<use x="63.623047" xlink:href="#d"/>
<use x="95.410156" xlink:href="#r"/>
</g>
</g>
<g clip-path="url(#a)">
<defs>
<path id="ab" d="m33.016 40.375q-6.6406 0-10.531-4.5469-3.875-4.5312-3.875-12.438 0-7.8594 3.875-12.438 3.8906-4.5625 10.531-4.5625t10.516 4.5625q3.875 4.5781 3.875 12.438 0 7.9062-3.875 12.438-3.875 4.5469-10.516 4.5469zm19.578 30.922v-8.9844q-3.7188 1.75-7.5 2.6719-3.7812 0.9375-7.5 0.9375-9.7656 0-14.922-6.5938-5.1406-6.5938-5.875-19.922 2.875 4.25 7.2188 6.5156 4.3594 2.2656 9.5781 2.2656 10.984 0 17.359-6.6719 6.375-6.6562 6.375-18.125 0-11.234-6.6406-18.031-6.6406-6.7812-17.672-6.7812-12.656 0-19.344 9.6875-6.6875 9.7031-6.6875 28.109 0 17.281 8.2031 27.562t22.016 10.281q3.7188 0 7.5-0.73438t7.8906-2.1875z"/>
</defs>
<g transform="translate(193.54 774.72) scale(.1 -.1)">
<use xlink:href="#c"/>
<use x="63.623047" xlink:href="#d"/>
<use x="95.410156" xlink:href="#ab"/>
</g>
</g>
<g clip-path="url(#a)">
<defs>
<path id="v" d="m8.2031 72.906h46.875v-4.2031l-26.469-68.703h-10.297l24.906 64.594h-35.016z"/>
</defs>
<g transform="translate(311.96 846.69) scale(.1 -.1)">
<use xlink:href="#c"/>
<use x="63.623047" xlink:href="#d"/>
<use x="95.410156" xlink:href="#v"/>
</g>
</g>
<g clip-path="url(#a)">
<defs>
<path id="ac" d="m31.781 66.406q-7.6094 0-11.453-7.5-3.8281-7.4844-3.8281-22.531 0-14.984 3.8281-22.484 3.8438-7.5 11.453-7.5 7.6719 0 11.5 7.5 3.8438 7.5 3.8438 22.484 0 15.047-3.8438 22.531-3.8281 7.5-11.5 7.5zm0 7.8125q12.266 0 18.734-9.7031 6.4688-9.6875 6.4688-28.141 0-18.406-6.4688-28.109-6.4688-9.6875-18.734-9.6875-12.25 0-18.719 9.6875-6.4688 9.7031-6.4688 28.109 0 18.453 6.4688 28.141 6.4688 9.7031 18.719 9.7031z"/>
</defs>
<g transform="translate(71.938 846.69) scale(.1 -.1)">
<use xlink:href="#c"/>
<use x="63.623047" xlink:href="#d"/>
<use x="95.410156" xlink:href="#c"/>
<use x="159.033203" xlink:href="#ac"/>
</g>
</g>
<g clip-path="url(#a)">
<g transform="translate(516.32 310.61) scale(.1 -.1)">
<use xlink:href="#c"/>
<use x="63.623047" xlink:href="#d"/>
<use x="95.410156" xlink:href="#c"/>
<use x="159.033203" xlink:href="#c"/>
</g>
</g>
<g clip-path="url(#a)">
<g transform="translate(1414 774.72) scale(.1 -.1)">
<use xlink:href="#c"/>
<use x="63.623047" xlink:href="#d"/>
<use x="95.410156" xlink:href="#c"/>
<use x="159.033203" xlink:href="#p"/>
</g>
</g>
<g clip-path="url(#a)">
<defs>
<path id="n" d="m40.578 39.312q7.0781-1.5156 11.047-6.3125 3.9844-4.7812 3.9844-11.812 0-10.781-7.4219-16.703-7.4219-5.9062-21.094-5.9062-4.5781 0-9.4375 0.90625t-10.031 2.7188v9.5156q4.0938-2.3906 8.9688-3.6094 4.8906-1.2188 10.219-1.2188 9.2656 0 14.125 3.6562t4.8594 10.641q0 6.4531-4.5156 10.078-4.5156 3.6406-12.562 3.6406h-8.5v8.1094h8.8906q7.2656 0 11.125 2.9062t3.8594 8.375q0 5.6094-3.9844 8.6094-3.9688 3.0156-11.391 3.0156-4.0625 0-8.7031-0.89062-4.6406-0.875-10.203-2.7188v8.7812q5.625 1.5625 10.531 2.3438t9.25 0.78125q11.234 0 17.766-5.1094 6.5469-5.0938 6.5469-13.781 0-6.0625-3.4688-10.234t-9.8594-5.7812z"/>
</defs>
<g transform="translate(1445.6 846.69) scale(.1 -.1)">
<use xlink:href="#c"/>
<use x="63.623047" xlink:href="#d"/>
<use x="95.410156" xlink:href="#c"/>
<use x="159.033203" xlink:href="#n"/>
</g>
</g>
<g clip-path="url(#a)">
<defs>
<path id="o" d="m37.797 64.312-24.906-38.922h24.906zm-2.5938 8.5938h12.406v-47.516h10.406v-8.2031h-10.406v-17.188h-9.8125v17.188h-32.906v9.5156z"/>
</defs>
<g transform="translate(1437.7 774.72) scale(.1 -.1)">
<use xlink:href="#c"/>
<use x="63.623047" xlink:href="#d"/>
<use x="95.410156" xlink:href="#c"/>
<use x="159.033203" xlink:href="#o"/>
</g>
</g>
<g clip-path="url(#a)">
<g transform="translate(1540.3 846.69) scale(.1 -.1)">
<use xlink:href="#c"/>
<use x="63.623047" xlink:href="#d"/>
<use x="95.410156" xlink:href="#c"/>
<use x="159.033203" xlink:href="#ab"/>
</g>
</g>
<g clip-path="url(#a)">
<g transform="translate(1587.7 846.69) scale(.1 -.1)">
<use xlink:href="#c"/>
<use x="63.623047" xlink:href="#d"/>
<use x="95.410156" xlink:href="#c"/>
<use x="159.033203" xlink:href="#v"/>
</g>
</g>
<g clip-path="url(#a)">
<defs>
<path id="ag" d="m31.781 34.625q-7.0312 0-11.062-3.7656-4.0156-3.7656-4.0156-10.344 0-6.5938 4.0156-10.359 4.0312-3.7656 11.062-3.7656t11.078 3.7812q4.0625 3.7969 4.0625 10.344 0 6.5781-4.0312 10.344-4.0156 3.7656-11.109 3.7656zm-9.8594 4.1875q-6.3438 1.5625-9.8906 5.9062-3.5312 4.3594-3.5312 10.609 0 8.7344 6.2188 13.812 6.2344 5.0781 17.062 5.0781 10.891 0 17.094-5.0781t6.2031-13.812q0-6.25-3.5469-10.609-3.5312-4.3438-9.8281-5.9062 7.125-1.6562 11.094-6.5 3.9844-4.8281 3.9844-11.797 0-10.609-6.4688-16.281-6.4688-5.6562-18.531-5.6562-12.047 0-18.531 5.6562-6.4688 5.6719-6.4688 16.281 0 6.9688 4 11.797 4.0156 4.8438 11.141 6.5zm-3.6094 15.578q0-5.6562 3.5312-8.8281 3.5469-3.1719 9.9375-3.1719 6.3594 0 9.9375 3.1719 3.5938 3.1719 3.5938 8.8281 0 5.6719-3.5938 8.8438-3.5781 3.1719-9.9375 3.1719-6.3906 0-9.9375-3.1719-3.5312-3.1719-3.5312-8.8438z"/>
</defs>
<g transform="translate(1635.1 846.69) scale(.1 -.1)">
<use xlink:href="#c"/>
<use x="63.623047" xlink:href="#d"/>
<use x="95.410156" xlink:href="#c"/>
<use x="159.033203" xlink:href="#ag"/>
</g>
</g>
<g clip-path="url(#a)">
<defs>
<path id="af" d="m10.984 1.5156v8.9844q3.7188-1.7656 7.5156-2.6875 3.8125-0.92188 7.4844-0.92188 9.7656 0 14.906 6.5625 5.1562 6.5625 5.8906 19.953-2.8281-4.2031-7.1875-6.4531-4.3438-2.25-9.6094-2.25-10.938 0-17.312 6.6094-6.375 6.625-6.375 18.109 0 11.219 6.6406 18 6.6406 6.7969 17.672 6.7969 12.656 0 19.312-9.7031 6.6719-9.6875 6.6719-28.141 0-17.234-8.1875-27.516-8.1719-10.281-21.984-10.281-3.7188 0-7.5312 0.73438-3.7969 0.73438-7.9062 2.2031zm19.625 30.906q6.6406 0 10.516 4.5312 3.8906 4.5469 3.8906 12.469 0 7.8594-3.8906 12.422-3.875 4.5625-10.516 4.5625t-10.516-4.5625-3.875-12.422q0-7.9219 3.875-12.469 3.875-4.5312 10.516-4.5312z"/>
</defs>
<g transform="translate(1350.9 846.69) scale(.1 -.1)">
<use xlink:href="#c"/>
<use x="63.623047" xlink:href="#d"/>
<use x="95.410156" xlink:href="#c"/>
<use x="159.033203" xlink:href="#af"/>
</g>
</g>
<g clip-path="url(#a)">
<g transform="translate(1398.2 846.69) scale(.1 -.1)">
<use xlink:href="#c"/>
<use x="63.623047" xlink:href="#d"/>
<use x="95.410156" xlink:href="#p"/>
<use x="159.033203" xlink:href="#ac"/>
</g>
</g>
<g clip-path="url(#a)">
<g transform="translate(1493 846.69) scale(.1 -.1)">
<use xlink:href="#c"/>
<use x="63.623047" xlink:href="#d"/>
<use x="95.410156" xlink:href="#p"/>
<use x="159.033203" xlink:href="#c"/>
</g>
</g>
<g clip-path="url(#a)">
<g transform="translate(403.51 846.69) scale(.1 -.1)">
<use xlink:href="#c"/>
<use x="63.623047" xlink:href="#d"/>
<use x="95.410156" xlink:href="#p"/>
<use x="159.033203" xlink:href="#p"/>
</g>
</g>
<g clip-path="url(#a)">
<g transform="translate(450.88 846.69) scale(.1 -.1)">
<use xlink:href="#c"/>
<use x="63.623047" xlink:href="#d"/>
<use x="95.410156" xlink:href="#p"/>
<use x="159.033203" xlink:href="#n"/>
</g>
</g>
<g clip-path="url(#a)">
<g transform="translate(683.36 393.13) scale(.1 -.1)">
<use xlink:href="#c"/>
<use x="63.623047" xlink:href="#d"/>
<use x="95.410156" xlink:href="#p"/>
<use x="159.033203" xlink:href="#o"/>
</g>
</g>
<g clip-path="url(#a)">
<g transform="translate(592.98 846.69) scale(.1 -.1)">
<use xlink:href="#c"/>
<use x="63.623047" xlink:href="#d"/>
<use x="95.410156" xlink:href="#p"/>
<use x="159.033203" xlink:href="#v"/>
</g>
</g>
<g clip-path="url(#a)">
<g transform="translate(640.35 846.69) scale(.1 -.1)">
<use xlink:href="#c"/>
<use x="63.623047" xlink:href="#d"/>
<use x="95.410156" xlink:href="#p"/>
<use x="159.033203" xlink:href="#ag"/>
</g>
</g>
<g clip-path="url(#a)">
<g transform="translate(816.74 473.29) scale(.1 -.1)">
<use xlink:href="#c"/>
<use x="63.623047" xlink:href="#d"/>
<use x="95.410156" xlink:href="#p"/>
<use x="159.033203" xlink:href="#af"/>
</g>
</g>
<g clip-path="url(#a)">
<g transform="translate(687.71 846.69) scale(.1 -.1)">
<use xlink:href="#c"/>
<use x="63.623047" xlink:href="#d"/>
<use x="95.410156" xlink:href="#n"/>
<use x="159.033203" xlink:href="#ac"/>
</g>
</g>
<g clip-path="url(#a)">
<g transform="translate(758.77 701.75) scale(.1 -.1)">
<use xlink:href="#c"/>
<use x="63.623047" xlink:href="#d"/>
<use x="95.410156" xlink:href="#n"/>
<use x="159.033203" xlink:href="#c"/>
</g>
</g>
<g clip-path="url(#a)">
<g transform="translate(782.45 774.72) scale(.1 -.1)">
<use xlink:href="#c"/>
<use x="63.623047" xlink:href="#d"/>
<use x="95.410156" xlink:href="#n"/>
<use x="159.033203" xlink:href="#p"/>
</g>
</g>
<g clip-path="url(#a)">
<g transform="translate(1038 551.3) scale(.1 -.1)">
<use xlink:href="#c"/>
<use x="63.623047" xlink:href="#d"/>
<use x="95.410156" xlink:href="#n"/>
<use x="159.033203" xlink:href="#n"/>
</g>
</g>
<g clip-path="url(#a)">
<g transform="translate(862.38 627.37) scale(.1 -.1)">
<use xlink:href="#c"/>
<use x="63.623047" xlink:href="#d"/>
<use x="95.410156" xlink:href="#n"/>
<use x="159.033203" xlink:href="#o"/>
</g>
</g>
<g clip-path="url(#a)">
<g transform="translate(1043 846.69) scale(.1 -.1)">
<use xlink:href="#c"/>
<use x="63.623047" xlink:href="#d"/>
<use x="95.410156" xlink:href="#n"/>
<use x="159.033203" xlink:href="#r"/>
</g>
</g>
<g clip-path="url(#a)">
<g transform="translate(1208.8 701.75) scale(.1 -.1)">
<use xlink:href="#c"/>
<use x="63.623047" xlink:href="#d"/>
<use x="95.410156" xlink:href="#n"/>
<use x="159.033203" xlink:href="#ab"/>
</g>
</g>
<g clip-path="url(#a)">
<g transform="translate(1161.4 774.72) scale(.1 -.1)">
<use xlink:href="#c"/>
<use x="63.623047" xlink:href="#d"/>
<use x="95.410156" xlink:href="#n"/>
<use x="159.033203" xlink:href="#v"/>
</g>
</g>
<g clip-path="url(#a)">
<g transform="translate(1256.1 846.69) scale(.1 -.1)">
<use xlink:href="#c"/>
<use x="63.623047" xlink:href="#d"/>
<use x="95.410156" xlink:href="#n"/>
<use x="159.033203" xlink:href="#ag"/>
</g>
</g>
<g clip-path="url(#a)">
<g transform="translate(1114 846.69) scale(.1 -.1)">
<use xlink:href="#c"/>
<use x="63.623047" xlink:href="#d"/>
<use x="95.410156" xlink:href="#n"/>
<use x="159.033203" xlink:href="#af"/>
</g>
</g>
<g clip-path="url(#a)">
<g transform="translate(1208.8 846.69) scale(.1 -.1)">
<use xlink:href="#c"/>
<use x="63.623047" xlink:href="#d"/>
<use x="95.410156" xlink:href="#o"/>
<use x="159.033203" xlink:href="#ac"/>
</g>
</g>
<g clip-path="url(#a)">
<g transform="translate(829.82 846.69) scale(.1 -.1)">
<use xlink:href="#c"/>
<use x="63.623047" xlink:href="#d"/>
<use x="95.410156" xlink:href="#o"/>
<use x="159.033203" xlink:href="#p"/>
</g>
</g>
<g clip-path="url(#a)">
<g transform="translate(877.18 846.69) scale(.1 -.1)">
<use xlink:href="#c"/>
<use x="63.623047" xlink:href="#d"/>
<use x="95.410156" xlink:href="#o"/>
<use x="159.033203" xlink:href="#n"/>
</g>
</g>
<g clip-path="url(#a)">
<g transform="translate(960.08 701.75) scale(.1 -.1)">
<use xlink:href="#c"/>
<use x="63.623047" xlink:href="#d"/>
<use x="95.410156" xlink:href="#o"/>
<use x="159.033203" xlink:href="#o"/>
</g>
</g>
<g clip-path="url(#a)">
<g transform="translate(948.23 774.72) scale(.1 -.1)">
<use xlink:href="#c"/>
<use x="63.623047" xlink:href="#d"/>
<use x="95.410156" xlink:href="#o"/>
<use x="159.033203" xlink:href="#r"/>
</g>
</g>
<g clip-path="url(#a)">
<g transform="translate(971.92 846.69) scale(.1 -.1)">
<use xlink:href="#c"/>
<use x="63.623047" xlink:href="#d"/>
<use x="95.410156" xlink:href="#o"/>
<use x="159.033203" xlink:href="#ab"/>
</g>
</g>
<g clip-path="url(#a)">
<g transform="translate(924.55 846.69) scale(.1 -.1)">
<use xlink:href="#c"/>
<use x="63.623047" xlink:href="#d"/>
<use x="95.410156" xlink:href="#o"/>
<use x="159.033203" xlink:href="#v"/>
</g>
</g>
<g clip-path="url(#a)">
<g transform="translate(782.45 846.69) scale(.1 -.1)">
<use xlink:href="#c"/>
<use x="63.623047" xlink:href="#d"/>
<use x="95.410156" xlink:href="#o"/>
<use x="159.033203" xlink:href="#ag"/>
</g>
</g>
<g clip-path="url(#a)">
<g transform="translate(735.08 846.69) scale(.1 -.1)">
<use xlink:href="#c"/>
<use x="63.623047" xlink:href="#d"/>
<use x="95.410156" xlink:href="#o"/>
<use x="159.033203" xlink:href="#af"/>
</g>
</g>
<g clip-path="url(#a)">
<g transform="translate(214.04 846.69) scale(.1 -.1)">
<use xlink:href="#c"/>
<use x="63.623047" xlink:href="#d"/>
<use x="95.410156" xlink:href="#r"/>
<use x="159.033203" xlink:href="#ac"/>
</g>
</g>
<g clip-path="url(#a)">
<g transform="translate(356.14 846.69) scale(.1 -.1)">
<use xlink:href="#c"/>
<use x="63.623047" xlink:href="#d"/>
<use x="95.410156" xlink:href="#r"/>
<use x="159.033203" xlink:href="#c"/>
</g>
</g>
<g clip-path="url(#a)">
<g transform="translate(498.24 846.69) scale(.1 -.1)">
<use xlink:href="#c"/>
<use x="63.623047" xlink:href="#d"/>
<use x="95.410156" xlink:href="#r"/>
<use x="159.033203" xlink:href="#p"/>
</g>
</g>
<g clip-path="url(#a)">
<g transform="translate(545.61 846.69) scale(.1 -.1)">
<use xlink:href="#c"/>
<use x="63.623047" xlink:href="#d"/>
<use x="95.410156" xlink:href="#r"/>
<use x="159.033203" xlink:href="#n"/>
</g>
</g>
<g clip-path="url(#a)">
<g transform="translate(1161.4 846.69) scale(.1 -.1)">
<use xlink:href="#c"/>
<use x="63.623047" xlink:href="#d"/>
<use x="95.410156" xlink:href="#r"/>
<use x="159.033203" xlink:href="#o"/>
</g>
</g>
<g clip-path="url(#a)">
<g transform="translate(1303.5 846.69) scale(.1 -.1)">
<use xlink:href="#c"/>
<use x="63.623047" xlink:href="#d"/>
<use x="95.410156" xlink:href="#r"/>
<use x="159.033203" xlink:href="#r"/>
</g>
</g>
<g clip-path="url(#a)">
<g transform="translate(1682.4 846.69) scale(.1 -.1)">
<use xlink:href="#c"/>
<use x="63.623047" xlink:href="#d"/>
<use x="95.410156" xlink:href="#r"/>
<use x="159.033203" xlink:href="#ab"/>
</g>
</g>
<g clip-path="url(#a)">
<g transform="translate(1729.8 846.69) scale(.1 -.1)">
<use xlink:href="#c"/>
<use x="63.623047" xlink:href="#d"/>
<use x="95.410156" xlink:href="#r"/>
<use x="159.033203" xlink:href="#v"/>
</g>
</g>
<defs>
<clipPath id="a">
<rect width="1824" height="960"/>
</clipPath>
</defs>
</svg>
