<?xml version="1.0" encoding="UTF-8"?>
<!DOCTYPE svg  PUBLIC '-//W3C//DTD SVG 1.1//EN'  'http://www.w3.org/Graphics/SVG/1.1/DTD/svg11.dtd'>
<svg width="1469.3pt" height="773.33pt" version="1.1" viewBox="0 0 1469.3 773.33" xmlns="http://www.w3.org/2000/svg" xmlns:xlink="http://www.w3.org/1999/xlink">
<defs>
<style type="text/css">*{stroke-linecap:butt;stroke-linejoin:round;white-space:pre;}</style>
</defs>
<path d="m0 773.33h1469.3v-773.33h-1469.3z" fill="#fff"/>
<g fill="none" stroke="#000">
<path d="m262.82 35.739v86.156" clip-path="url(#a)"/>
<path d="m262.82 121.89-195.83 542.82" clip-path="url(#a)"/>
<path d="m262.82 121.89-100.45 542.82" clip-path="url(#a)"/>
<path d="m262.82 121.89-5.065 542.82" clip-path="url(#a)"/>
<path d="m262.82 121.89 42.626 542.82" clip-path="url(#a)"/>
<path d="m262.82 121.89 138.01 542.82" clip-path="url(#a)"/>
<path d="m262.82 121.89 321.6 83.561" clip-path="url(#a)"/>
<path d="m262.82 121.89-148.14 542.82" clip-path="url(#a)"/>
<path d="m262.82 121.89-52.756 542.82" clip-path="url(#a)"/>
<path d="m66.99 664.72v72.875" clip-path="url(#a)"/>
<path d="m162.37 664.72v72.875" clip-path="url(#a)"/>
<path d="m257.75 664.72v72.875" clip-path="url(#a)"/>
<path d="m305.45 664.72v72.875" clip-path="url(#a)"/>
<path d="m400.83 664.72-47.691 72.875" clip-path="url(#a)"/>
<path d="m400.83 664.72v72.875" clip-path="url(#a)"/>
<path d="m400.83 664.72 47.691 72.875" clip-path="url(#a)"/>
<path d="m584.42 205.46-88.211 459.26" clip-path="url(#a)"/>
<path d="m584.42 205.46-40.52 459.26" clip-path="url(#a)"/>
<path d="m584.42 205.46 128.73 81.17" clip-path="url(#a)"/>
<path d="m496.21 664.72v72.875" clip-path="url(#a)"/>
<path d="m543.9 664.72v72.875" clip-path="url(#a)"/>
<path d="m713.15 286.63-169.25 378.09" clip-path="url(#a)" stroke-dasharray="3.7,1.6"/>
<path d="m713.15 286.63-121.56 378.09" clip-path="url(#a)"/>
<path d="m713.15 286.63-73.868 378.09" clip-path="url(#a)"/>
<path d="m713.15 286.63-26.177 378.09" clip-path="url(#a)"/>
<path d="m713.15 286.63 93.051 305.22" clip-path="url(#a)"/>
<path d="m713.15 286.63 297.8 78.989" clip-path="url(#a)"/>
<path d="m591.59 664.72v72.875" clip-path="url(#a)"/>
<path d="m639.28 664.72v72.875" clip-path="url(#a)"/>
<path d="m686.98 664.72v72.875" clip-path="url(#a)"/>
<path d="m806.2 591.84-71.537 72.875" clip-path="url(#a)"/>
<path d="m806.2 591.84-23.846 72.875" clip-path="url(#a)"/>
<path d="m806.2 591.84 23.846 72.875" clip-path="url(#a)"/>
<path d="m806.2 591.84 71.537 72.875" clip-path="url(#a)"/>
<path d="m1011 365.61-85.526 299.1" clip-path="url(#a)"/>
<path d="m1011 365.61-37.835 299.1" clip-path="url(#a)"/>
<path d="m1011 365.61 123.36 77.028" clip-path="url(#a)"/>
<path d="m925.43 664.72v72.875" clip-path="url(#a)"/>
<path d="m973.12 664.72v72.875" clip-path="url(#a)"/>
<path d="m1134.3 442.64-113.5 222.08" clip-path="url(#a)"/>
<path d="m1134.3 442.64-65.814 222.08" clip-path="url(#a)"/>
<path d="m1134.3 442.64-18.123 222.08" clip-path="url(#a)"/>
<path d="m1134.3 442.64 29.569 222.08" clip-path="url(#a)"/>
<path d="m1134.3 442.64 167.87 75.312" clip-path="url(#a)"/>
<path d="m1020.8 664.72v72.875" clip-path="url(#a)"/>
<path d="m1068.5 664.72v72.875" clip-path="url(#a)"/>
<path d="m1116.2 664.72v72.875" clip-path="url(#a)"/>
<path d="m1163.9 664.72v72.875" clip-path="url(#a)"/>
<path d="m1302.2 517.95-114.46 73.889" clip-path="url(#a)"/>
<path d="m1302.2 517.95-42.922 146.76" clip-path="url(#a)"/>
<path d="m1302.2 517.95 4.7691 146.76" clip-path="url(#a)"/>
<path d="m1302.2 517.95 52.46 146.76" clip-path="url(#a)"/>
<path d="m1302.2 517.95 100.15 146.76" clip-path="url(#a)"/>
<path d="m1187.7 591.84-23.846 72.875" clip-path="url(#a)" stroke-dasharray="3.7,1.6"/>
<path d="m1187.7 591.84 23.846 72.875" clip-path="url(#a)"/>
<path d="m1259.3 664.72v72.875" clip-path="url(#a)"/>
<path d="m1307 664.72v72.875" clip-path="url(#a)"/>
<path d="m1354.7 664.72v72.875" clip-path="url(#a)"/>
<path d="m1211.6 664.72v72.875" clip-path="url(#a)"/>
<path d="m734.67 664.72v72.875" clip-path="url(#a)"/>
<path d="m782.36 664.72v72.875" clip-path="url(#a)"/>
<path d="m830.05 664.72v72.875" clip-path="url(#a)"/>
<path d="m877.74 664.72v72.875" clip-path="url(#a)"/>
<path d="m114.68 664.72v72.875" clip-path="url(#a)"/>
<path d="m210.06 664.72v72.875" clip-path="url(#a)"/>
<path d="m1402.3 664.72v72.875" clip-path="url(#a)"/>
</g>
<path d="m256.55 75.809v6.0162q0 2.4 2.4 2.4h7.7425q2.4 0 2.4-2.4v-6.0162q0-2.4-2.4-2.4h-7.7425q-2.4 0-2.4 2.4z" clip-path="url(#a)" fill="#fff" stroke="#fff"/>
<g clip-path="url(#a)">
<defs>
<path id="aq" d="m9.8125 72.906h9.8594v-29.891h35.844v29.891h9.8594v-72.906h-9.8594v34.719h-35.844v-34.719h-9.8594z"/>
</defs>
<g transform="translate(260.61 75.809) rotate(90) scale(.08 -.08)">
<use xlink:href="#aq"/>
</g>
</g>
<path d="m169.88 398.01 1.8571-5.1478q0.81445-2.2576-1.4431-3.072l-7.2831-2.6274q-2.2576-0.81445-3.072 1.4431l-1.8571 5.1478q-0.81445 2.2576 1.4431 3.072l7.2831 2.6274q2.2576 0.81445 3.072-1.4431z" clip-path="url(#a)" fill="#fff" stroke="#fff"/>
<g clip-path="url(#a)">
<defs>
<path id="r" d="m34.188 63.188-13.391-36.281h26.812zm-5.5781 9.7188h11.188l27.781-72.906h-10.25l-6.6406 18.703h-32.859l-6.6406-18.703h-10.406z"/>
</defs>
<g transform="translate(166.05 396.63) rotate(-70.163) scale(.08 -.08)">
<use xlink:href="#r"/>
</g>
</g>
<path d="m218.2 397.48 1.1209-6.0572q0.4367-2.3599-1.9232-2.7966l-7.6132-1.4088q-2.3599-0.4367-2.7966 1.9232l-1.1209 6.0572q-0.4367 2.3599 1.9232 2.7966l7.6133 1.4088q2.3599 0.4367 2.7966-1.9232z" clip-path="url(#a)" fill="#fff" stroke="#fff"/>
<g clip-path="url(#a)">
<defs>
<path id="ak" d="m19.672 64.797v-56.688h11.922q15.094 0 22.094 6.8281 7 6.8438 7 21.594 0 14.641-7 21.453t-22.094 6.8125zm-9.8594 8.1094h20.266q21.188 0 31.094-8.8125 9.9219-8.8125 9.9219-27.562 0-18.859-9.9688-27.703-9.9531-8.8281-31.047-8.8281h-20.266z"/>
</defs>
<g transform="translate(214.21 396.74) rotate(-79.516) scale(.08 -.08)">
<use xlink:href="#ak"/>
</g>
</g>
<path d="m266.54 395.67 0.042931-4.601q0.022393-2.3999-2.3775-2.4223l-7.7422-0.07224q-2.3999-0.022393-2.4223 2.3775l-0.042931 4.601q-0.022393 2.3999 2.3775 2.4223l7.7422 0.072241q2.3999 0.022393 2.4223-2.3775z" clip-path="url(#a)" fill="#fff" stroke="#fff"/>
<g clip-path="url(#a)">
<defs>
<path id="aj" d="m9.8125 72.906h41.891v-8.3125h-32.031v-21.484h28.906v-8.2969h-28.906v-34.812h-9.8594z"/>
</defs>
<g transform="translate(262.47 395.63) rotate(-89.465) scale(.08 -.08)">
<use xlink:href="#aj"/>
</g>
</g>
<path d="m277.64 390.73 0.48224 6.1411q0.18789 2.3926 2.5805 2.2047l7.7187-0.60613q2.3926-0.18788 2.2047-2.5805l-0.48224-6.1411q-0.18789-2.3926-2.5805-2.2047l-7.7187 0.60613q-2.3926 0.18789-2.2047 2.5805z" clip-path="url(#a)" fill="#fff" stroke="#fff"/>
<g clip-path="url(#a)">
<g transform="translate(281.69 390.41) rotate(85.51) scale(.08 -.08)">
<use xlink:href="#ak"/>
</g>
</g>
<path d="m325.12 392.39 1.2514 4.9222q0.59137 2.326 2.9174 1.7346l7.5038-1.9078q2.326-0.59137 1.7346-2.9174l-1.2514-4.9222q-0.59137-2.326-2.9174-1.7346l-7.5038 1.9078q-2.326 0.59137-1.7346 2.9174z" clip-path="url(#a)" fill="#fff" stroke="#fff"/>
<g clip-path="url(#a)">
<defs>
<path id="am" d="m53.516 70.516v-9.625q-5.6094 2.6875-10.594 4-4.9844 1.3281-9.625 1.3281-8.0469 0-12.422-3.125t-4.375-8.8906q0-4.8438 2.9062-7.3125 2.9062-2.4531 11.016-3.9688l5.9531-1.2188q11.031-2.1094 16.281-7.4062t5.25-14.172q0-10.609-7.1094-16.078-7.0938-5.4688-20.812-5.4688-5.1719 0-11.016 1.1719-5.8281 1.1719-12.078 3.4688v10.156q6-3.3594 11.766-5.0781 5.7656-1.7031 11.328-1.7031 8.4375 0 13.031 3.3125 4.5938 3.3281 4.5938 9.4844 0 5.3594-3.2969 8.3906t-10.812 4.5469l-6.0156 1.1719q-11.031 2.1875-15.969 6.875-4.9219 4.6875-4.9219 13.047 0 9.6719 6.8125 15.234t18.766 5.5625q5.1406 0 10.453-0.9375 5.3281-0.92188 10.891-2.7656z"/>
</defs>
<g transform="translate(329.06 391.39) rotate(75.735) scale(.08 -.08)">
<use xlink:href="#am"/>
</g>
</g>
<path d="m419.4 169.06 5.2966 1.3762q2.3229 0.60355 2.9264-1.7193l1.9471-7.4937q0.60355-2.3229-1.7193-2.9264l-5.2966-1.3762q-2.3229-0.60355-2.9264 1.7193l-1.9471 7.4937q-0.60355 2.3229 1.7193 2.9264z" clip-path="url(#a)" fill="#fff" stroke="#fff"/>
<g clip-path="url(#a)">
<g transform="translate(420.42 165.12) rotate(14.565) scale(.08 -.08)">
<use xlink:href="#r"/>
</g>
</g>
<path d="m194.03 397.78 1.5415-5.6484q0.63186-2.3153-1.6835-2.9472l-7.4694-2.0384q-2.3153-0.63186-2.9472 1.6835l-1.5415 5.6484q-0.63186 2.3153 1.6835 2.9472l7.4694 2.0384q2.3153 0.63186 2.9472-1.6835z" clip-path="url(#a)" fill="#fff" stroke="#fff"/>
<g clip-path="url(#a)">
<defs>
<path id="ah" d="m8.6875 72.906h9.9219v-44.297q0-11.719 4.2344-16.875 4.25-5.1406 13.781-5.1406 9.4688 0 13.719 5.1406 4.25 5.1562 4.25 16.875v44.297h9.9062v-45.516q0-14.25-7.0625-21.531-7.0469-7.2812-20.812-7.2812-13.828 0-20.891 7.2812-7.0469 7.2812-7.0469 21.531z"/>
</defs>
<g transform="translate(190.11 396.71) rotate(-74.735) scale(.08 -.08)">
<use xlink:href="#ah"/>
</g>
</g>
<path d="m242.4 396.83 0.56637-5.8275q0.23216-2.3887-2.1566-2.6209l-7.7062-0.74895q-2.3887-0.23216-2.6209 2.1566l-0.56637 5.8275q-0.23216 2.3887 2.1566 2.6209l7.7062 0.74895q2.3887 0.23216 2.6209-2.1566z" clip-path="url(#a)" fill="#fff" stroke="#fff"/>
<g clip-path="url(#a)">
<g transform="translate(238.36 396.43) rotate(-84.449) scale(.08 -.08)">
<use xlink:href="#ah"/>
</g>
</g>
<path d="m60.719 683.51v35.285q0 2.4 2.4 2.4h7.7425q2.4 0 2.4-2.4v-35.285q0-2.4-2.4-2.4h-7.7425q-2.4 0-2.4 2.4z" clip-path="url(#a)" fill="#fff" stroke="#fff"/>
<g clip-path="url(#a)">
<defs>
<path id="l" d="m-0.29688 72.906h61.672v-8.3125h-25.875v-64.594h-9.9062v64.594h-25.891z"/>
<path id="d" d="m56.203 29.594v-4.3906h-41.312q0.59375-9.2812 5.5938-14.141t13.938-4.8594q5.1719 0 10.031 1.2656t9.6562 3.8125v-8.5q-4.8438-2.0469-9.9219-3.125t-10.297-1.0781q-13.094 0-20.734 7.6094-7.6406 7.625-7.6406 20.625 0 13.422 7.25 21.297 7.25 7.8906 19.562 7.8906 11.031 0 17.453-7.1094 6.4219-7.0938 6.4219-19.297zm-8.9844 2.6406q-0.09375 7.3594-4.125 11.75-4.0312 4.4062-10.672 4.4062-7.5156 0-12.031-4.25t-5.2031-11.969z"/>
<path id="j" d="m41.109 46.297q-1.5156 0.875-3.2969 1.2812-1.7812 0.42188-3.9219 0.42188-7.625 0-11.703-4.9531t-4.0781-14.234v-28.812h-9.0312v54.688h9.0312v-8.5q2.8438 4.9844 7.375 7.3906 4.5469 2.4219 11.047 2.4219 0.92188 0 2.0469-0.125 1.125-0.10938 2.4844-0.35938z"/>
<path id="k" d="m52 44.188q3.375 6.0625 8.0625 8.9375t11.031 2.875q8.5469 0 13.188-5.9844 4.6406-5.9688 4.6406-17v-33.016h-9.0312v32.719q0 7.8594-2.7969 11.656-2.7812 3.8125-8.4844 3.8125-6.9844 0-11.047-4.6406-4.0469-4.625-4.0469-12.641v-30.906h-9.0312v32.719q0 7.9062-2.7812 11.688t-8.5938 3.7812q-6.8906 0-10.953-4.6562-4.0469-4.6562-4.0469-12.625v-30.906h-9.0312v54.688h9.0312v-8.5q3.0781 5.0312 7.375 7.4219t10.203 2.3906q5.9688 0 10.141-3.0312 4.1719-3.0156 6.1719-8.7812z"/>
<path id="i" d="m9.4219 54.688h8.9844v-54.688h-8.9844zm0 21.297h8.9844v-11.391h-8.9844z"/>
<path id="f" d="m54.891 33.016v-33.016h-8.9844v32.719q0 7.7656-3.0312 11.609-3.0312 3.8594-9.0781 3.8594-7.2812 0-11.484-4.6406-4.2031-4.625-4.2031-12.641v-30.906h-9.0312v54.688h9.0312v-8.5q3.2344 4.9375 7.5938 7.375 4.375 2.4375 10.094 2.4375 9.4219 0 14.25-5.8281 4.8438-5.8281 4.8438-17.156z"/>
<path id="e" d="m34.281 27.484q-10.891 0-15.094-2.4844t-4.2031-8.5q0-4.7812 3.1562-7.5938 3.1562-2.7969 8.5625-2.7969 7.4844 0 12 5.2969t4.5156 14.078v2zm17.922 3.7188v-31.203h-8.9844v8.2969q-3.0781-4.9688-7.6719-7.3438t-11.234-2.375q-8.3906 0-13.359 4.7188-4.9531 4.7188-4.9531 12.625 0 9.2188 6.1719 13.906 6.1875 4.6875 18.438 4.6875h12.609v0.89062q0 6.2031-4.0781 9.5938t-11.453 3.3906q-4.6875 0-9.1406-1.125-4.4375-1.125-8.5312-3.375v8.3125q4.9219 1.9062 9.5625 2.8438 4.6406 0.95312 9.0312 0.95312 11.875 0 17.734-6.1562 5.8594-6.1406 5.8594-18.641z"/>
<path id="h" d="m9.4219 75.984h8.9844v-75.984h-8.9844z"/>
</defs>
<g transform="translate(64.783 683.51) rotate(90) scale(.08 -.08)">
<use xlink:href="#l"/>
<use x="60.818359" xlink:href="#d"/>
<use x="122.341797" xlink:href="#j"/>
<use x="163.439453" xlink:href="#k"/>
<use x="260.851562" xlink:href="#i"/>
<use x="288.634766" xlink:href="#f"/>
<use x="352.013672" xlink:href="#e"/>
<use x="413.292969" xlink:href="#h"/>
</g>
</g>
<path d="m156.1 683.51v35.285q0 2.4 2.4 2.4h7.7425q2.4 0 2.4-2.4v-35.285q0-2.4-2.4-2.4h-7.7425q-2.4 0-2.4 2.4z" clip-path="url(#a)" fill="#fff" stroke="#fff"/>
<g clip-path="url(#a)">
<g transform="translate(160.17 683.51) rotate(90) scale(.08 -.08)">
<use xlink:href="#l"/>
<use x="60.818359" xlink:href="#d"/>
<use x="122.341797" xlink:href="#j"/>
<use x="163.439453" xlink:href="#k"/>
<use x="260.851562" xlink:href="#i"/>
<use x="288.634766" xlink:href="#f"/>
<use x="352.013672" xlink:href="#e"/>
<use x="413.292969" xlink:href="#h"/>
</g>
</g>
<path d="m251.48 683.51v35.285q0 2.4 2.4 2.4h7.7425q2.4 0 2.4-2.4v-35.285q0-2.4-2.4-2.4h-7.7425q-2.4 0-2.4 2.4z" clip-path="url(#a)" fill="#fff" stroke="#fff"/>
<g clip-path="url(#a)">
<g transform="translate(255.55 683.51) rotate(90) scale(.08 -.08)">
<use xlink:href="#l"/>
<use x="60.818359" xlink:href="#d"/>
<use x="122.341797" xlink:href="#j"/>
<use x="163.439453" xlink:href="#k"/>
<use x="260.851562" xlink:href="#i"/>
<use x="288.634766" xlink:href="#f"/>
<use x="352.013672" xlink:href="#e"/>
<use x="413.292969" xlink:href="#h"/>
</g>
</g>
<path d="m299.17 683.51v35.285q0 2.4 2.4 2.4h7.7425q2.4 0 2.4-2.4v-35.285q0-2.4-2.4-2.4h-7.7425q-2.4 0-2.4 2.4z" clip-path="url(#a)" fill="#fff" stroke="#fff"/>
<g clip-path="url(#a)">
<g transform="translate(303.24 683.51) rotate(90) scale(.08 -.08)">
<use xlink:href="#l"/>
<use x="60.818359" xlink:href="#d"/>
<use x="122.341797" xlink:href="#j"/>
<use x="163.439453" xlink:href="#k"/>
<use x="260.851562" xlink:href="#i"/>
<use x="288.634766" xlink:href="#f"/>
<use x="352.013672" xlink:href="#e"/>
<use x="413.292969" xlink:href="#h"/>
</g>
</g>
<path d="m372.57 719.35 19.322-29.525q1.3142-2.0082-0.69399-3.3224l-6.4785-4.2397q-2.0082-1.3142-3.3224 0.69399l-19.322 29.525q-1.3142 2.0082 0.69399 3.3224l6.4785 4.2397q2.0082 1.3142 3.3224-0.69399z" clip-path="url(#a)" fill="#fff" stroke="#fff"/>
<g clip-path="url(#a)">
<g transform="translate(369.17 717.13) rotate(-56.798) scale(.08 -.08)">
<use xlink:href="#l"/>
<use x="60.818359" xlink:href="#d"/>
<use x="122.341797" xlink:href="#j"/>
<use x="163.439453" xlink:href="#k"/>
<use x="260.851562" xlink:href="#i"/>
<use x="288.634766" xlink:href="#f"/>
<use x="352.013672" xlink:href="#e"/>
<use x="413.292969" xlink:href="#h"/>
</g>
</g>
<path d="m394.56 683.51v35.285q0 2.4 2.4 2.4h7.7425q2.4 0 2.4-2.4v-35.285q0-2.4-2.4-2.4h-7.7425q-2.4 0-2.4 2.4z" clip-path="url(#a)" fill="#fff" stroke="#fff"/>
<g clip-path="url(#a)">
<g transform="translate(398.62 683.51) rotate(90) scale(.08 -.08)">
<use xlink:href="#l"/>
<use x="60.818359" xlink:href="#d"/>
<use x="122.341797" xlink:href="#j"/>
<use x="163.439453" xlink:href="#k"/>
<use x="260.851562" xlink:href="#i"/>
<use x="288.634766" xlink:href="#f"/>
<use x="352.013672" xlink:href="#e"/>
<use x="413.292969" xlink:href="#h"/>
</g>
</g>
<path d="m409.77 689.83 19.322 29.525q1.3142 2.0082 3.3224 0.69399l6.4785-4.2397q2.0082-1.3142 0.69399-3.3224l-19.322-29.525q-1.3142-2.0082-3.3224-0.69399l-6.4785 4.2397q-2.0082 1.3142-0.69399 3.3224z" clip-path="url(#a)" fill="#fff" stroke="#fff"/>
<g clip-path="url(#a)">
<g transform="translate(413.17 687.6) rotate(56.798) scale(.08 -.08)">
<use xlink:href="#l"/>
<use x="60.818359" xlink:href="#d"/>
<use x="122.341797" xlink:href="#j"/>
<use x="163.439453" xlink:href="#k"/>
<use x="260.851562" xlink:href="#i"/>
<use x="288.634766" xlink:href="#f"/>
<use x="352.013672" xlink:href="#e"/>
<use x="413.292969" xlink:href="#h"/>
</g>
</g>
<path d="m545.95 439 1.0485-5.459q0.4527-2.3569-1.9042-2.8096l-7.6035-1.4604q-2.3569-0.4527-2.8096 1.9042l-1.0485 5.459q-0.4527 2.3569 1.9042 2.8096l7.6035 1.4604q2.3569 0.4527 2.8096-1.9042z" clip-path="url(#a)" fill="#fff" stroke="#fff"/>
<g clip-path="url(#a)">
<defs>
<path id="z" d="m44.391 34.188q3.1719-1.0781 6.1719-4.5938t6.0312-9.6719l10.016-19.922h-10.609l-9.3125 18.703q-3.625 7.3281-7.0156 9.7188t-9.25 2.3906h-10.75v-30.812h-9.8594v72.906h22.266q12.5 0 18.656-5.2344 6.1562-5.2188 6.1562-15.766 0-6.8906-3.2031-11.438-3.2031-4.5312-9.2969-6.2812zm-24.719 30.609v-25.875h12.406q7.125 0 10.766 3.2969t3.6406 9.6875-3.6406 9.6406-10.766 3.25z"/>
</defs>
<g transform="translate(541.96 438.23) rotate(-79.128) scale(.08 -.08)">
<use xlink:href="#z"/>
</g>
</g>
<path d="m570.16 438.42 0.49096-5.5646q0.21093-2.3907-2.1798-2.6016l-7.7125-0.68046q-2.3907-0.21093-2.6016 2.1798l-0.49096 5.5646q-0.21093 2.3907 2.1798 2.6016l7.7125 0.68046q2.3907 0.21093 2.6016-2.1798z" clip-path="url(#a)" fill="#fff" stroke="#fff"/>
<g clip-path="url(#a)">
<defs>
<path id="v" d="m64.406 67.281v-10.391q-4.9844 4.6406-10.625 6.9219-5.6406 2.2969-11.984 2.2969-12.5 0-19.141-7.6406t-6.6406-22.094q0-14.406 6.6406-22.047t19.141-7.6406q6.3438 0 11.984 2.2969t10.625 6.9375v-10.312q-5.1719-3.5156-10.969-5.2812-5.7812-1.75-12.219-1.75-16.562 0-26.094 10.125-9.5156 10.141-9.5156 27.672 0 17.578 9.5156 27.703 9.5312 10.141 26.094 10.141 6.5312 0 12.312-1.7344 5.7969-1.7344 10.875-5.2031z"/>
</defs>
<g transform="translate(566.12 438.06) rotate(-84.958) scale(.08 -.08)">
<use xlink:href="#v"/>
</g>
</g>
<path d="m643.3 250 4.2759 2.6962q2.0301 1.2801 3.3102-0.75004l4.1296-6.5493q1.2801-2.0301-0.75004-3.3102l-4.2759-2.6962q-2.0301-1.2801-3.3102 0.75004l-4.1296 6.5493q-1.2801 2.0301 0.75004 3.3102z" clip-path="url(#a)" fill="#fff" stroke="#fff"/>
<g clip-path="url(#a)">
<defs>
<path id="p" d="m9.8125 72.906h46.094v-8.3125h-36.234v-21.578h34.719v-8.2969h-34.719v-26.422h37.109v-8.2969h-46.969z"/>
</defs>
<g transform="translate(645.47 246.56) rotate(32.233) scale(.08 -.08)">
<use xlink:href="#p"/>
</g>
</g>
<path d="m489.94 683.51v35.285q0 2.4 2.4 2.4h7.7425q2.4 0 2.4-2.4v-35.285q0-2.4-2.4-2.4h-7.7425q-2.4 0-2.4 2.4z" clip-path="url(#a)" fill="#fff" stroke="#fff"/>
<g clip-path="url(#a)">
<g transform="translate(494 683.51) rotate(90) scale(.08 -.08)">
<use xlink:href="#l"/>
<use x="60.818359" xlink:href="#d"/>
<use x="122.341797" xlink:href="#j"/>
<use x="163.439453" xlink:href="#k"/>
<use x="260.851562" xlink:href="#i"/>
<use x="288.634766" xlink:href="#f"/>
<use x="352.013672" xlink:href="#e"/>
<use x="413.292969" xlink:href="#h"/>
</g>
</g>
<path d="m537.63 683.51v35.285q0 2.4 2.4 2.4h7.7425q2.4 0 2.4-2.4v-35.285q0-2.4-2.4-2.4h-7.7425q-2.4 0-2.4 2.4z" clip-path="url(#a)" fill="#fff" stroke="#fff"/>
<g clip-path="url(#a)">
<g transform="translate(541.69 683.51) rotate(90) scale(.08 -.08)">
<use xlink:href="#l"/>
<use x="60.818359" xlink:href="#d"/>
<use x="122.341797" xlink:href="#j"/>
<use x="163.439453" xlink:href="#k"/>
<use x="260.851562" xlink:href="#i"/>
<use x="288.634766" xlink:href="#f"/>
<use x="352.013672" xlink:href="#e"/>
<use x="413.292969" xlink:href="#h"/>
</g>
</g>
<path d="m633.13 480.73 2.2359-4.9949q0.98058-2.1905-1.21-3.1711l-7.0668-3.1634q-2.1905-0.98058-3.1711 1.21l-2.2359 4.9949q-0.98058 2.1905 1.21 3.1711l7.0668 3.1634q2.1905 0.98058 3.1711-1.21z" clip-path="url(#a)" fill="#fff" stroke="#fff"/>
<g clip-path="url(#a)">
<g transform="translate(629.42 479.07) rotate(-65.885) scale(.08 -.08)">
<use xlink:href="#r"/>
</g>
</g>
<path d="m657.64 479.78 1.4083-4.3804q0.73458-2.2848-1.5502-3.0194l-7.3709-2.3698q-2.2848-0.73458-3.0194 1.5502l-1.4083 4.3804q-0.73458 2.2848 1.5502 3.0194l7.3709 2.3698q2.2848 0.73458 3.0194-1.5502z" clip-path="url(#a)" fill="#fff" stroke="#fff"/>
<g clip-path="url(#a)">
<g transform="translate(653.77 478.54) rotate(-72.177) scale(.08 -.08)">
<use xlink:href="#aj"/>
</g>
</g>
<path d="m681.78 479.9 1.1812-6.0457q0.46019-2.3555-1.8953-2.8157l-7.5988-1.4846q-2.3555-0.46019-2.8157 1.8953l-1.1812 6.0457q-0.46019 2.3555 1.8953 2.8157l7.5988 1.4846q2.3555 0.46019 2.8157-1.8953z" clip-path="url(#a)" fill="#fff" stroke="#fff"/>
<g clip-path="url(#a)">
<g transform="translate(677.79 479.12) rotate(-78.945) scale(.08 -.08)">
<use xlink:href="#ak"/>
</g>
</g>
<path d="m706.15 478.51 0.33317-4.8122q0.16577-2.3943-2.2285-2.56l-7.724-0.53477q-2.3943-0.16577-2.56 2.2285l-0.33317 4.8122q-0.16577 2.3943 2.2285 2.56l7.724 0.53477q2.3943 0.16577 2.56-2.2285z" clip-path="url(#a)" fill="#fff" stroke="#fff"/>
<g clip-path="url(#a)">
<defs>
<path id="ai" d="m19.672 64.797v-27.391h12.406q6.8906 0 10.641 3.5625 3.7656 3.5625 3.7656 10.156 0 6.5469-3.7656 10.109-3.75 3.5625-10.641 3.5625zm-9.8594 8.1094h22.266q12.266 0 18.531-5.5469 6.2812-5.5469 6.2812-16.234 0-10.797-6.2812-16.312-6.2656-5.5156-18.531-5.5156h-12.406v-29.297h-9.8594z"/>
</defs>
<g transform="translate(702.1 478.23) rotate(-86.039) scale(.08 -.08)">
<use xlink:href="#ai"/>
</g>
</g>
<path d="m752.88 438.45 1.5959 5.2346q0.69988 2.2957 2.9956 1.5958l7.406-2.2578q2.2957-0.69988 1.5958-2.9956l-1.5959-5.2346q-0.69988-2.2957-2.9956-1.5958l-7.406 2.2578q-2.2957 0.69988-1.5958 2.9956z" clip-path="url(#a)" fill="#fff" stroke="#fff"/>
<g clip-path="url(#a)">
<g transform="translate(756.77 437.26) rotate(73.045) scale(.08 -.08)">
<use xlink:href="#r"/>
</g>
</g>
<path d="m857.8 331.48 5.2896 1.403q2.3198 0.61529 2.9351-1.7045l1.985-7.4837q0.61529-2.3198-1.7045-2.9351l-5.2896-1.403q-2.3198-0.61529-2.9351 1.7045l-1.985 7.4837q-0.61529 2.3198 1.7045 2.9351z" clip-path="url(#a)" fill="#fff" stroke="#fff"/>
<g clip-path="url(#a)">
<g transform="translate(858.84 327.55) rotate(14.855) scale(.08 -.08)">
<use xlink:href="#r"/>
</g>
</g>
<path d="m585.32 683.51v35.285q0 2.4 2.4 2.4h7.7425q2.4 0 2.4-2.4v-35.285q0-2.4-2.4-2.4h-7.7425q-2.4 0-2.4 2.4z" clip-path="url(#a)" fill="#fff" stroke="#fff"/>
<g clip-path="url(#a)">
<g transform="translate(589.39 683.51) rotate(90) scale(.08 -.08)">
<use xlink:href="#l"/>
<use x="60.818359" xlink:href="#d"/>
<use x="122.341797" xlink:href="#j"/>
<use x="163.439453" xlink:href="#k"/>
<use x="260.851562" xlink:href="#i"/>
<use x="288.634766" xlink:href="#f"/>
<use x="352.013672" xlink:href="#e"/>
<use x="413.292969" xlink:href="#h"/>
</g>
</g>
<path d="m633.01 683.51v35.285q0 2.4 2.4 2.4h7.7425q2.4 0 2.4-2.4v-35.285q0-2.4-2.4-2.4h-7.7425q-2.4 0-2.4 2.4z" clip-path="url(#a)" fill="#fff" stroke="#fff"/>
<g clip-path="url(#a)">
<g transform="translate(637.08 683.51) rotate(90) scale(.08 -.08)">
<use xlink:href="#l"/>
<use x="60.818359" xlink:href="#d"/>
<use x="122.341797" xlink:href="#j"/>
<use x="163.439453" xlink:href="#k"/>
<use x="260.851562" xlink:href="#i"/>
<use x="288.634766" xlink:href="#f"/>
<use x="352.013672" xlink:href="#e"/>
<use x="413.292969" xlink:href="#h"/>
</g>
</g>
<path d="m680.7 683.51v35.285q0 2.4 2.4 2.4h7.7425q2.4 0 2.4-2.4v-35.285q0-2.4-2.4-2.4h-7.7425q-2.4 0-2.4 2.4z" clip-path="url(#a)" fill="#fff" stroke="#fff"/>
<g clip-path="url(#a)">
<g transform="translate(684.77 683.51) rotate(90) scale(.08 -.08)">
<use xlink:href="#l"/>
<use x="60.818359" xlink:href="#d"/>
<use x="122.341797" xlink:href="#j"/>
<use x="163.439453" xlink:href="#k"/>
<use x="260.851562" xlink:href="#i"/>
<use x="288.634766" xlink:href="#f"/>
<use x="352.013672" xlink:href="#e"/>
<use x="413.292969" xlink:href="#h"/>
</g>
</g>
<path d="m772.96 634.66 3.894-3.9669q1.6813-1.7127-0.03146-3.394l-5.5253-5.4238q-1.7127-1.6813-3.394 0.03146l-3.894 3.9669q-1.6813 1.7127 0.031459 3.394l5.5253 5.4238q1.7127 1.6813 3.394-0.031459z" clip-path="url(#a)" fill="#fff" stroke="#fff"/>
<g clip-path="url(#a)">
<g transform="translate(770.06 631.81) rotate(-45.531) scale(.08 -.08)">
<use xlink:href="#z"/>
</g>
</g>
<path d="m799.45 632.63 1.572-4.8043q0.74637-2.281-1.5346-3.0274l-7.3586-2.4078q-2.281-0.74637-3.0274 1.5346l-1.572 4.8043q-0.74637 2.281 1.5346 3.0274l7.3586 2.4078q2.281 0.74636 3.0274-1.5346z" clip-path="url(#a)" fill="#fff" stroke="#fff"/>
<g clip-path="url(#a)">
<g transform="translate(795.59 631.37) rotate(-71.881) scale(.08 -.08)">
<use xlink:href="#p"/>
</g>
</g>
<path d="m811.38 627.83 1.572 4.8043q0.74637 2.281 3.0274 1.5346l7.3586-2.4078q2.281-0.74637 1.5346-3.0274l-1.572-4.8043q-0.74637-2.281-3.0274-1.5346l-7.3586 2.4078q-2.281 0.74637-1.5346 3.0274z" clip-path="url(#a)" fill="#fff" stroke="#fff"/>
<g clip-path="url(#a)">
<g transform="translate(815.24 626.57) rotate(71.881) scale(.08 -.08)">
<use xlink:href="#p"/>
</g>
</g>
<path d="m835.54 630.68 3.9133 3.9865q1.6813 1.7127 3.394 0.03146l5.5253-5.4238q1.7127-1.6813 0.031459-3.394l-3.9133-3.9865q-1.6813-1.7127-3.394-0.031459l-5.5253 5.4238q-1.7127 1.6813-0.03146 3.394z" clip-path="url(#a)" fill="#fff" stroke="#fff"/>
<g clip-path="url(#a)">
<g transform="translate(838.44 627.83) rotate(45.531) scale(.08 -.08)">
<use xlink:href="#v"/>
</g>
</g>
<path d="m973.53 519.32 1.3897-4.8602q0.65982-2.3075-1.6477-2.9673l-7.4442-2.1286q-2.3075-0.65981-2.9673 1.6477l-1.3897 4.8602q-0.65981 2.3075 1.6477 2.9673l7.4442 2.1286q2.3075 0.65981 2.9673-1.6477z" clip-path="url(#a)" fill="#fff" stroke="#fff"/>
<g clip-path="url(#a)">
<g transform="translate(969.62 518.2) rotate(-74.043) scale(.08 -.08)">
<use xlink:href="#p"/>
</g>
</g>
<path d="m997.91 518.72 0.70104-5.5421q0.30119-2.381-2.0798-2.6822l-7.6813-0.97164q-2.381-0.30119-2.6822 2.0798l-0.70104 5.5421q-0.30119 2.381 2.0798 2.6822l7.6813 0.97164q2.381 0.30119 2.6822-2.0798z" clip-path="url(#a)" fill="#fff" stroke="#fff"/>
<g clip-path="url(#a)">
<g transform="translate(993.88 518.21) rotate(-82.791) scale(.08 -.08)">
<use xlink:href="#v"/>
</g>
</g>
<path d="m1067.2 408.11 4.2878 2.6773q2.0357 1.2711 3.3069-0.7646l4.1007-6.5674q1.2711-2.0357-0.7646-3.3069l-4.2878-2.6773q-2.0357-1.2711-3.3069 0.7646l-4.1007 6.5674q-1.2711 2.0357 0.7646 3.3069z" clip-path="url(#a)" fill="#fff" stroke="#fff"/>
<g clip-path="url(#a)">
<g transform="translate(1069.3 404.66) rotate(31.981) scale(.08 -.08)">
<use xlink:href="#p"/>
</g>
</g>
<path d="m919.16 683.51v35.285q0 2.4 2.4 2.4h7.7425q2.4 0 2.4-2.4v-35.285q0-2.4-2.4-2.4h-7.7425q-2.4 0-2.4 2.4z" clip-path="url(#a)" fill="#fff" stroke="#fff"/>
<g clip-path="url(#a)">
<g transform="translate(923.22 683.51) rotate(90) scale(.08 -.08)">
<use xlink:href="#l"/>
<use x="60.818359" xlink:href="#d"/>
<use x="122.341797" xlink:href="#j"/>
<use x="163.439453" xlink:href="#k"/>
<use x="260.851562" xlink:href="#i"/>
<use x="288.634766" xlink:href="#f"/>
<use x="352.013672" xlink:href="#e"/>
<use x="413.292969" xlink:href="#h"/>
</g>
</g>
<path d="m966.85 683.51v35.285q0 2.4 2.4 2.4h7.7425q2.4 0 2.4-2.4v-35.285q0-2.4-2.4-2.4h-7.7425q-2.4 0-2.4 2.4z" clip-path="url(#a)" fill="#fff" stroke="#fff"/>
<g clip-path="url(#a)">
<g transform="translate(970.92 683.51) rotate(90) scale(.08 -.08)">
<use xlink:href="#l"/>
<use x="60.818359" xlink:href="#d"/>
<use x="122.341797" xlink:href="#j"/>
<use x="163.439453" xlink:href="#k"/>
<use x="260.851562" xlink:href="#i"/>
<use x="288.634766" xlink:href="#f"/>
<use x="352.013672" xlink:href="#e"/>
<use x="413.292969" xlink:href="#h"/>
</g>
</g>
<path d="m1081.9 559.01 2.5298-4.9497q1.0923-2.137-1.0448-3.2293l-6.8942-3.5237q-2.137-1.0923-3.2293 1.0448l-2.5298 4.9497q-1.0923 2.137 1.0448 3.2293l6.8942 3.5237q2.137 1.0923 3.2293-1.0448z" clip-path="url(#a)" fill="#fff" stroke="#fff"/>
<g clip-path="url(#a)">
<g transform="translate(1078.3 557.16) rotate(-62.928) scale(.08 -.08)">
<use xlink:href="#z"/>
</g>
</g>
<path d="m1106.7 557.89 1.4363-4.8466q0.68194-2.3011-1.6191-2.983l-7.4234-2.2q-2.3011-0.68194-2.983 1.6191l-1.4363 4.8466q-0.68194 2.3011 1.6191 2.983l7.4234 2.2q2.3011 0.68194 2.983-1.6191z" clip-path="url(#a)" fill="#fff" stroke="#fff"/>
<g clip-path="url(#a)">
<g transform="translate(1102.8 556.73) rotate(-73.492) scale(.08 -.08)">
<use xlink:href="#p"/>
</g>
</g>
<path d="m1131.3 556.71 0.41115-5.0383q0.1952-2.392-2.1968-2.5873l-7.7168-0.62974q-2.392-0.1952-2.5873 2.1968l-0.41115 5.0383q-0.1952 2.392 2.1968 2.5873l7.7168 0.62974q2.392 0.1952 2.5873-2.1968z" clip-path="url(#a)" fill="#fff" stroke="#fff"/>
<g clip-path="url(#a)">
<g transform="translate(1127.3 556.38) rotate(-85.335) scale(.08 -.08)">
<use xlink:href="#p"/>
</g>
</g>
<path d="m1142.5 551.74 0.73728 5.5374q0.31676 2.379 2.6958 2.0623l7.6748-1.0219q2.379-0.31676 2.0623-2.6958l-0.73728-5.5374q-0.31676-2.379-2.6958-2.0623l-7.6748 1.0219q-2.379 0.31675-2.0623 2.6958z" clip-path="url(#a)" fill="#fff" stroke="#fff"/>
<g clip-path="url(#a)">
<g transform="translate(1146.5 551.2) rotate(82.416) scale(.08 -.08)">
<use xlink:href="#v"/>
</g>
</g>
<path d="m1213.4 484.99 4.6121 2.0691q2.1897 0.98237 3.1721-1.2074l3.1692-7.0642q0.98237-2.1897-1.2074-3.1721l-4.6121-2.0691q-2.1897-0.98237-3.1721 1.2074l-3.1692 7.0642q-0.98237 2.1897 1.2074 3.1721z" clip-path="url(#a)" fill="#fff" stroke="#fff"/>
<g clip-path="url(#a)">
<g transform="translate(1215 481.28) rotate(24.162) scale(.08 -.08)">
<use xlink:href="#p"/>
</g>
</g>
<path d="m1014.5 683.51v35.285q0 2.4 2.4 2.4h7.7425q2.4 0 2.4-2.4v-35.285q0-2.4-2.4-2.4h-7.7425q-2.4 0-2.4 2.4z" clip-path="url(#a)" fill="#fff" stroke="#fff"/>
<g clip-path="url(#a)">
<g transform="translate(1018.6 683.51) rotate(90) scale(.08 -.08)">
<use xlink:href="#l"/>
<use x="60.818359" xlink:href="#d"/>
<use x="122.341797" xlink:href="#j"/>
<use x="163.439453" xlink:href="#k"/>
<use x="260.851562" xlink:href="#i"/>
<use x="288.634766" xlink:href="#f"/>
<use x="352.013672" xlink:href="#e"/>
<use x="413.292969" xlink:href="#h"/>
</g>
</g>
<path d="m1062.2 683.51v35.285q0 2.4 2.4 2.4h7.7425q2.4 0 2.4-2.4v-35.285q0-2.4-2.4-2.4h-7.7425q-2.4 0-2.4 2.4z" clip-path="url(#a)" fill="#fff" stroke="#fff"/>
<g clip-path="url(#a)">
<g transform="translate(1066.3 683.51) rotate(90) scale(.08 -.08)">
<use xlink:href="#l"/>
<use x="60.818359" xlink:href="#d"/>
<use x="122.341797" xlink:href="#j"/>
<use x="163.439453" xlink:href="#k"/>
<use x="260.851562" xlink:href="#i"/>
<use x="288.634766" xlink:href="#f"/>
<use x="352.013672" xlink:href="#e"/>
<use x="413.292969" xlink:href="#h"/>
</g>
</g>
<path d="m1109.9 683.51v35.285q0 2.4 2.4 2.4h7.7425q2.4 0 2.4-2.4v-35.285q0-2.4-2.4-2.4h-7.7425q-2.4 0-2.4 2.4z" clip-path="url(#a)" fill="#fff" stroke="#fff"/>
<g clip-path="url(#a)">
<g transform="translate(1114 683.51) rotate(90) scale(.08 -.08)">
<use xlink:href="#l"/>
<use x="60.818359" xlink:href="#d"/>
<use x="122.341797" xlink:href="#j"/>
<use x="163.439453" xlink:href="#k"/>
<use x="260.851562" xlink:href="#i"/>
<use x="288.634766" xlink:href="#f"/>
<use x="352.013672" xlink:href="#e"/>
<use x="413.292969" xlink:href="#h"/>
</g>
</g>
<path d="m1157.6 683.51v35.285q0 2.4 2.4 2.4h7.7425q2.4 0 2.4-2.4v-35.285q0-2.4-2.4-2.4h-7.7425q-2.4 0-2.4 2.4z" clip-path="url(#a)" fill="#fff" stroke="#fff"/>
<g clip-path="url(#a)">
<g transform="translate(1161.7 683.51) rotate(90) scale(.08 -.08)">
<use xlink:href="#l"/>
<use x="60.818359" xlink:href="#d"/>
<use x="122.341797" xlink:href="#j"/>
<use x="163.439453" xlink:href="#k"/>
<use x="260.851562" xlink:href="#i"/>
<use x="288.634766" xlink:href="#f"/>
<use x="352.013672" xlink:href="#e"/>
<use x="413.292969" xlink:href="#h"/>
</g>
</g>
<path d="m1246.1 561.65 4.5977-2.9681q2.0164-1.3017 0.71469-3.318l-4.1992-6.5048q-1.3017-2.0164-3.318-0.71469l-4.5977 2.9681q-2.0164 1.3017-0.71469 3.318l4.1992 6.5048q1.3017 2.0164 3.318 0.71469z" clip-path="url(#a)" fill="#fff" stroke="#fff"/>
<g clip-path="url(#a)">
<g transform="translate(1243.9 558.24) rotate(-32.844) scale(.08 -.08)">
<use xlink:href="#r"/>
</g>
</g>
<path d="m1286.1 595.31 1.2916-4.4163q0.67367-2.3035-1.6298-2.9772l-7.4312-2.1733q-2.3035-0.67367-2.9772 1.6298l-1.2916 4.4163q-0.67367 2.3035 1.6298 2.9772l7.4312 2.1733q2.3035 0.67367 2.9772-1.6298z" clip-path="url(#a)" fill="#fff" stroke="#fff"/>
<g clip-path="url(#a)">
<g transform="translate(1282.2 594.16) rotate(-73.698) scale(.08 -.08)">
<use xlink:href="#aj"/>
</g>
</g>
<path d="m1298.2 588.81 0.17774 5.4696q0.077947 2.3987 2.4767 2.3208l7.7384-0.25146q2.3987-0.077947 2.3208-2.4767l-0.17774-5.4696q-0.077947-2.3987-2.4767-2.3208l-7.7384 0.25146q-2.3987 0.077947-2.3208 2.4767z" clip-path="url(#a)" fill="#fff" stroke="#fff"/>
<g clip-path="url(#a)">
<g transform="translate(1302.3 588.67) rotate(88.139) scale(.08 -.08)">
<use xlink:href="#r"/>
</g>
</g>
<path d="m1321.7 591.18 1.6236 4.5423q0.80781 2.26 3.0678 1.4522l7.2907-2.606q2.26-0.80781 1.4522-3.0678l-1.6236-4.5423q-0.80781-2.26-3.0678-1.4522l-7.2907 2.606q-2.26 0.80781-1.4522 3.0678z" clip-path="url(#a)" fill="#fff" stroke="#fff"/>
<g clip-path="url(#a)">
<g transform="translate(1325.5 589.81) rotate(70.331) scale(.08 -.08)">
<use xlink:href="#ai"/>
</g>
</g>
<path d="m1345.4 592.45 3.3002 4.8363q1.3528 1.9824 3.3352 0.62962l6.3953-4.3642q1.9824-1.3528 0.62962-3.3352l-3.3002-4.8363q-1.3528-1.9824-3.3352-0.62962l-6.3953 4.3642q-1.9824 1.3528-0.62962 3.3352z" clip-path="url(#a)" fill="#fff" stroke="#fff"/>
<g clip-path="url(#a)">
<g transform="translate(1348.8 590.16) rotate(55.691) scale(.08 -.08)">
<use xlink:href="#ah"/>
</g>
</g>
<path d="m1180.9 632.89 1.7372-5.3093q0.74637-2.281-1.5346-3.0274l-7.3586-2.4078q-2.281-0.74637-3.0274 1.5346l-1.7372 5.3093q-0.74637 2.281 1.5346 3.0274l7.3586 2.4078q2.281 0.74637 3.0274-1.5346z" clip-path="url(#a)" fill="#fff" stroke="#fff"/>
<g clip-path="url(#a)">
<g transform="translate(1177 631.62) rotate(-71.881) scale(.08 -.08)">
<use xlink:href="#v"/>
</g>
</g>
<path d="m1192.8 627.59 1.7287 5.2831q0.74637 2.281 3.0274 1.5346l7.3586-2.4078q2.281-0.74636 1.5346-3.0274l-1.7287-5.2831q-0.74637-2.281-3.0274-1.5346l-7.3586 2.4078q-2.281 0.74637-1.5346 3.0274z" clip-path="url(#a)" fill="#fff" stroke="#fff"/>
<g clip-path="url(#a)">
<g transform="translate(1196.7 626.33) rotate(71.881) scale(.08 -.08)">
<use xlink:href="#z"/>
</g>
</g>
<path d="m1253 683.51v35.285q0 2.4 2.4 2.4h7.7425q2.4 0 2.4-2.4v-35.285q0-2.4-2.4-2.4h-7.7425q-2.4 0-2.4 2.4z" clip-path="url(#a)" fill="#fff" stroke="#fff"/>
<g clip-path="url(#a)">
<g transform="translate(1257.1 683.51) rotate(90) scale(.08 -.08)">
<use xlink:href="#l"/>
<use x="60.818359" xlink:href="#d"/>
<use x="122.341797" xlink:href="#j"/>
<use x="163.439453" xlink:href="#k"/>
<use x="260.851562" xlink:href="#i"/>
<use x="288.634766" xlink:href="#f"/>
<use x="352.013672" xlink:href="#e"/>
<use x="413.292969" xlink:href="#h"/>
</g>
</g>
<path d="m1300.7 683.51v35.285q0 2.4 2.4 2.4h7.7425q2.4 0 2.4-2.4v-35.285q0-2.4-2.4-2.4h-7.7425q-2.4 0-2.4 2.4z" clip-path="url(#a)" fill="#fff" stroke="#fff"/>
<g clip-path="url(#a)">
<g transform="translate(1304.8 683.51) rotate(90) scale(.08 -.08)">
<use xlink:href="#l"/>
<use x="60.818359" xlink:href="#d"/>
<use x="122.341797" xlink:href="#j"/>
<use x="163.439453" xlink:href="#k"/>
<use x="260.851562" xlink:href="#i"/>
<use x="288.634766" xlink:href="#f"/>
<use x="352.013672" xlink:href="#e"/>
<use x="413.292969" xlink:href="#h"/>
</g>
</g>
<path d="m1348.4 683.51v35.285q0 2.4 2.4 2.4h7.7425q2.4 0 2.4-2.4v-35.285q0-2.4-2.4-2.4h-7.7425q-2.4 0-2.4 2.4z" clip-path="url(#a)" fill="#fff" stroke="#fff"/>
<g clip-path="url(#a)">
<g transform="translate(1352.4 683.51) rotate(90) scale(.08 -.08)">
<use xlink:href="#l"/>
<use x="60.818359" xlink:href="#d"/>
<use x="122.341797" xlink:href="#j"/>
<use x="163.439453" xlink:href="#k"/>
<use x="260.851562" xlink:href="#i"/>
<use x="288.634766" xlink:href="#f"/>
<use x="352.013672" xlink:href="#e"/>
<use x="413.292969" xlink:href="#h"/>
</g>
</g>
<path d="m1205.3 683.51v35.285q0 2.4 2.4 2.4h7.7425q2.4 0 2.4-2.4v-35.285q0-2.4-2.4-2.4h-7.7425q-2.4 0-2.4 2.4z" clip-path="url(#a)" fill="#fff" stroke="#fff"/>
<g clip-path="url(#a)">
<g transform="translate(1209.4 683.51) rotate(90) scale(.08 -.08)">
<use xlink:href="#l"/>
<use x="60.818359" xlink:href="#d"/>
<use x="122.341797" xlink:href="#j"/>
<use x="163.439453" xlink:href="#k"/>
<use x="260.851562" xlink:href="#i"/>
<use x="288.634766" xlink:href="#f"/>
<use x="352.013672" xlink:href="#e"/>
<use x="413.292969" xlink:href="#h"/>
</g>
</g>
<path d="m728.4 683.51v35.285q0 2.4 2.4 2.4h7.7425q2.4 0 2.4-2.4v-35.285q0-2.4-2.4-2.4h-7.7425q-2.4 0-2.4 2.4z" clip-path="url(#a)" fill="#fff" stroke="#fff"/>
<g clip-path="url(#a)">
<g transform="translate(732.46 683.51) rotate(90) scale(.08 -.08)">
<use xlink:href="#l"/>
<use x="60.818359" xlink:href="#d"/>
<use x="122.341797" xlink:href="#j"/>
<use x="163.439453" xlink:href="#k"/>
<use x="260.851562" xlink:href="#i"/>
<use x="288.634766" xlink:href="#f"/>
<use x="352.013672" xlink:href="#e"/>
<use x="413.292969" xlink:href="#h"/>
</g>
</g>
<path d="m776.09 683.51v35.285q0 2.4 2.4 2.4h7.7425q2.4 0 2.4-2.4v-35.285q0-2.4-2.4-2.4h-7.7425q-2.4 0-2.4 2.4z" clip-path="url(#a)" fill="#fff" stroke="#fff"/>
<g clip-path="url(#a)">
<g transform="translate(780.15 683.51) rotate(90) scale(.08 -.08)">
<use xlink:href="#l"/>
<use x="60.818359" xlink:href="#d"/>
<use x="122.341797" xlink:href="#j"/>
<use x="163.439453" xlink:href="#k"/>
<use x="260.851562" xlink:href="#i"/>
<use x="288.634766" xlink:href="#f"/>
<use x="352.013672" xlink:href="#e"/>
<use x="413.292969" xlink:href="#h"/>
</g>
</g>
<path d="m823.78 683.51v35.285q0 2.4 2.4 2.4h7.7425q2.4 0 2.4-2.4v-35.285q0-2.4-2.4-2.4h-7.7425q-2.4 0-2.4 2.4z" clip-path="url(#a)" fill="#fff" stroke="#fff"/>
<g clip-path="url(#a)">
<g transform="translate(827.84 683.51) rotate(90) scale(.08 -.08)">
<use xlink:href="#l"/>
<use x="60.818359" xlink:href="#d"/>
<use x="122.341797" xlink:href="#j"/>
<use x="163.439453" xlink:href="#k"/>
<use x="260.851562" xlink:href="#i"/>
<use x="288.634766" xlink:href="#f"/>
<use x="352.013672" xlink:href="#e"/>
<use x="413.292969" xlink:href="#h"/>
</g>
</g>
<path d="m871.47 683.51v35.285q0 2.4 2.4 2.4h7.7425q2.4 0 2.4-2.4v-35.285q0-2.4-2.4-2.4h-7.7425q-2.4 0-2.4 2.4z" clip-path="url(#a)" fill="#fff" stroke="#fff"/>
<g clip-path="url(#a)">
<g transform="translate(875.53 683.51) rotate(90) scale(.08 -.08)">
<use xlink:href="#l"/>
<use x="60.818359" xlink:href="#d"/>
<use x="122.341797" xlink:href="#j"/>
<use x="163.439453" xlink:href="#k"/>
<use x="260.851562" xlink:href="#i"/>
<use x="288.634766" xlink:href="#f"/>
<use x="352.013672" xlink:href="#e"/>
<use x="413.292969" xlink:href="#h"/>
</g>
</g>
<path d="m108.41 683.51v35.285q0 2.4 2.4 2.4h7.7425q2.4 0 2.4-2.4v-35.285q0-2.4-2.4-2.4h-7.7425q-2.4 0-2.4 2.4z" clip-path="url(#a)" fill="#fff" stroke="#fff"/>
<g clip-path="url(#a)">
<g transform="translate(112.47 683.51) rotate(90) scale(.08 -.08)">
<use xlink:href="#l"/>
<use x="60.818359" xlink:href="#d"/>
<use x="122.341797" xlink:href="#j"/>
<use x="163.439453" xlink:href="#k"/>
<use x="260.851562" xlink:href="#i"/>
<use x="288.634766" xlink:href="#f"/>
<use x="352.013672" xlink:href="#e"/>
<use x="413.292969" xlink:href="#h"/>
</g>
</g>
<path d="m203.79 683.51v35.285q0 2.4 2.4 2.4h7.7425q2.4 0 2.4-2.4v-35.285q0-2.4-2.4-2.4h-7.7425q-2.4 0-2.4 2.4z" clip-path="url(#a)" fill="#fff" stroke="#fff"/>
<g clip-path="url(#a)">
<g transform="translate(207.86 683.51) rotate(90) scale(.08 -.08)">
<use xlink:href="#l"/>
<use x="60.818359" xlink:href="#d"/>
<use x="122.341797" xlink:href="#j"/>
<use x="163.439453" xlink:href="#k"/>
<use x="260.851562" xlink:href="#i"/>
<use x="288.634766" xlink:href="#f"/>
<use x="352.013672" xlink:href="#e"/>
<use x="413.292969" xlink:href="#h"/>
</g>
</g>
<path d="m1396.1 683.51v35.285q0 2.4 2.4 2.4h7.7425q2.4 0 2.4-2.4v-35.285q0-2.4-2.4-2.4h-7.7425q-2.4 0-2.4 2.4z" clip-path="url(#a)" fill="#fff" stroke="#fff"/>
<g clip-path="url(#a)">
<g transform="translate(1400.1 683.51) rotate(90) scale(.08 -.08)">
<use xlink:href="#l"/>
<use x="60.818359" xlink:href="#d"/>
<use x="122.341797" xlink:href="#j"/>
<use x="163.439453" xlink:href="#k"/>
<use x="260.851562" xlink:href="#i"/>
<use x="288.634766" xlink:href="#f"/>
<use x="352.013672" xlink:href="#e"/>
<use x="413.292969" xlink:href="#h"/>
</g>
</g>
<defs>
<path id="b" d="m0 8.6603c2.2967 0 4.4997-0.9125 6.1237-2.5365 1.624-1.624 2.5365-3.827 2.5365-6.1237s-0.9125-4.4997-2.5365-6.1237c-1.624-1.624-3.827-2.5365-6.1237-2.5365s-4.4997 0.9125-6.1237 2.5365c-1.624 1.624-2.5365 3.827-2.5365 6.1237s0.9125 4.4997 2.5365 6.1237c1.624 1.624 3.827 2.5365 6.1237 2.5365z"/>
</defs>
<g clip-path="url(#a)">
<use x="66.990265" y="737.594225" fill="#ffffff" stroke="#ffffff" xlink:href="#b"/>
</g>
<g clip-path="url(#a)">
<use x="114.681436" y="737.594225" fill="#ffffff" stroke="#ffffff" xlink:href="#b"/>
</g>
<g clip-path="url(#a)">
<use x="162.372608" y="737.594225" fill="#ffffff" stroke="#ffffff" xlink:href="#b"/>
</g>
<g clip-path="url(#a)">
<use x="210.06378" y="737.594225" fill="#ffffff" stroke="#ffffff" xlink:href="#b"/>
</g>
<g clip-path="url(#a)">
<use x="257.754951" y="737.594225" fill="#ffffff" stroke="#ffffff" xlink:href="#b"/>
</g>
<g clip-path="url(#a)">
<use x="305.446123" y="737.594225" fill="#ffffff" stroke="#ffffff" xlink:href="#b"/>
</g>
<g clip-path="url(#a)">
<use x="353.137294" y="737.594225" fill="#ffffff" stroke="#ffffff" xlink:href="#b"/>
</g>
<g clip-path="url(#a)">
<use x="400.828466" y="737.594225" fill="#ffffff" stroke="#ffffff" xlink:href="#b"/>
</g>
<g clip-path="url(#a)">
<use x="448.519637" y="737.594225" fill="#ffffff" stroke="#ffffff" xlink:href="#b"/>
</g>
<g clip-path="url(#a)">
<use x="496.210809" y="737.594225" fill="#ffffff" stroke="#ffffff" xlink:href="#b"/>
</g>
<g clip-path="url(#a)">
<use x="543.90198" y="737.594225" fill="#ffffff" stroke="#ffffff" xlink:href="#b"/>
</g>
<g clip-path="url(#a)">
<use x="591.593152" y="737.594225" fill="#ffffff" stroke="#ffffff" xlink:href="#b"/>
</g>
<g clip-path="url(#a)">
<use x="639.284324" y="737.594225" fill="#ffffff" stroke="#ffffff" xlink:href="#b"/>
</g>
<g clip-path="url(#a)">
<use x="686.975495" y="737.594225" fill="#ffffff" stroke="#ffffff" xlink:href="#b"/>
</g>
<g clip-path="url(#a)">
<use x="734.666667" y="737.594225" fill="#ffffff" stroke="#ffffff" xlink:href="#b"/>
</g>
<g clip-path="url(#a)">
<use x="782.357838" y="737.594225" fill="#ffffff" stroke="#ffffff" xlink:href="#b"/>
</g>
<g clip-path="url(#a)">
<use x="830.04901" y="737.594225" fill="#ffffff" stroke="#ffffff" xlink:href="#b"/>
</g>
<g clip-path="url(#a)">
<use x="877.740181" y="737.594225" fill="#ffffff" stroke="#ffffff" xlink:href="#b"/>
</g>
<g clip-path="url(#a)">
<use x="925.431353" y="737.594225" fill="#ffffff" stroke="#ffffff" xlink:href="#b"/>
</g>
<g clip-path="url(#a)">
<use x="973.122524" y="737.594225" fill="#ffffff" stroke="#ffffff" xlink:href="#b"/>
</g>
<g clip-path="url(#a)">
<use x="1020.813696" y="737.594225" fill="#ffffff" stroke="#ffffff" xlink:href="#b"/>
</g>
<g clip-path="url(#a)">
<use x="1068.504868" y="737.594225" fill="#ffffff" stroke="#ffffff" xlink:href="#b"/>
</g>
<g clip-path="url(#a)">
<use x="1116.196039" y="737.594225" fill="#ffffff" stroke="#ffffff" xlink:href="#b"/>
</g>
<g clip-path="url(#a)">
<use x="1163.887211" y="737.594225" fill="#ffffff" stroke="#ffffff" xlink:href="#b"/>
</g>
<g clip-path="url(#a)">
<use x="1211.578382" y="737.594225" fill="#ffffff" stroke="#ffffff" xlink:href="#b"/>
</g>
<g clip-path="url(#a)">
<use x="1259.269554" y="737.594225" fill="#ffffff" stroke="#ffffff" xlink:href="#b"/>
</g>
<g clip-path="url(#a)">
<use x="1306.960725" y="737.594225" fill="#ffffff" stroke="#ffffff" xlink:href="#b"/>
</g>
<g clip-path="url(#a)">
<use x="1354.651897" y="737.594225" fill="#ffffff" stroke="#ffffff" xlink:href="#b"/>
</g>
<g clip-path="url(#a)">
<use x="1402.343068" y="737.594225" fill="#ffffff" stroke="#ffffff" xlink:href="#b"/>
</g>
<g clip-path="url(#a)">
<use x="262.81993" y="35.739109" fill="#ffffff" stroke="#ffffff" xlink:href="#b"/>
</g>
<g clip-path="url(#a)">
<use x="262.81993" y="121.894732" fill="#ffffff" stroke="#ffffff" xlink:href="#b"/>
</g>
<g clip-path="url(#a)">
<use x="66.990265" y="664.718878" fill="#ffffff" stroke="#ffffff" xlink:href="#b"/>
</g>
<g clip-path="url(#a)">
<use x="162.372608" y="664.718878" fill="#ffffff" stroke="#ffffff" xlink:href="#b"/>
</g>
<g clip-path="url(#a)">
<use x="257.754951" y="664.718878" fill="#ffffff" stroke="#ffffff" xlink:href="#b"/>
</g>
<g clip-path="url(#a)">
<use x="305.446123" y="664.718878" fill="#ffffff" stroke="#ffffff" xlink:href="#b"/>
</g>
<g clip-path="url(#a)">
<use x="400.828466" y="664.718878" fill="#ffffff" stroke="#ffffff" xlink:href="#b"/>
</g>
<g clip-path="url(#a)">
<use x="584.421813" y="205.455681" fill="#ffffff" stroke="#ffffff" xlink:href="#b"/>
</g>
<g clip-path="url(#a)">
<use x="496.210809" y="664.718878" fill="#ffffff" stroke="#ffffff" xlink:href="#b"/>
</g>
<g clip-path="url(#a)">
<use x="543.90198" y="664.718878" fill="#ffffff" stroke="#ffffff" xlink:href="#b"/>
</g>
<g clip-path="url(#a)">
<use x="713.152649" y="286.625949" fill="#ffffff" stroke="#ffffff" xlink:href="#b"/>
</g>
<g clip-path="url(#a)">
<use x="591.593152" y="664.718878" fill="#ffffff" stroke="#ffffff" xlink:href="#b"/>
</g>
<g clip-path="url(#a)">
<use x="639.284324" y="664.718878" fill="#ffffff" stroke="#ffffff" xlink:href="#b"/>
</g>
<g clip-path="url(#a)">
<use x="686.975495" y="664.718878" fill="#ffffff" stroke="#ffffff" xlink:href="#b"/>
</g>
<g clip-path="url(#a)">
<use x="806.203424" y="591.843532" fill="#ffffff" stroke="#ffffff" xlink:href="#b"/>
</g>
<g clip-path="url(#a)">
<use x="1010.957521" y="365.614584" fill="#ffffff" stroke="#ffffff" xlink:href="#b"/>
</g>
<g clip-path="url(#a)">
<use x="925.431353" y="664.718878" fill="#ffffff" stroke="#ffffff" xlink:href="#b"/>
</g>
<g clip-path="url(#a)">
<use x="973.122524" y="664.718878" fill="#ffffff" stroke="#ffffff" xlink:href="#b"/>
</g>
<g clip-path="url(#a)">
<use x="1134.318684" y="442.642496" fill="#ffffff" stroke="#ffffff" xlink:href="#b"/>
</g>
<g clip-path="url(#a)">
<use x="1020.813696" y="664.718878" fill="#ffffff" stroke="#ffffff" xlink:href="#b"/>
</g>
<g clip-path="url(#a)">
<use x="1068.504868" y="664.718878" fill="#ffffff" stroke="#ffffff" xlink:href="#b"/>
</g>
<g clip-path="url(#a)">
<use x="1116.196039" y="664.718878" fill="#ffffff" stroke="#ffffff" xlink:href="#b"/>
</g>
<g clip-path="url(#a)">
<use x="1163.887211" y="664.718878" fill="#ffffff" stroke="#ffffff" xlink:href="#b"/>
</g>
<g clip-path="url(#a)">
<use x="1302.191608" y="517.95441" fill="#ffffff" stroke="#ffffff" xlink:href="#b"/>
</g>
<g clip-path="url(#a)">
<use x="1187.732796" y="591.843532" fill="#ffffff" stroke="#ffffff" xlink:href="#b"/>
</g>
<g clip-path="url(#a)">
<use x="1259.269554" y="664.718878" fill="#ffffff" stroke="#ffffff" xlink:href="#b"/>
</g>
<g clip-path="url(#a)">
<use x="1306.960725" y="664.718878" fill="#ffffff" stroke="#ffffff" xlink:href="#b"/>
</g>
<g clip-path="url(#a)">
<use x="1354.651897" y="664.718878" fill="#ffffff" stroke="#ffffff" xlink:href="#b"/>
</g>
<g clip-path="url(#a)">
<use x="1211.578382" y="664.718878" fill="#ffffff" stroke="#ffffff" xlink:href="#b"/>
</g>
<g clip-path="url(#a)">
<use x="734.666667" y="664.718878" fill="#ffffff" stroke="#ffffff" xlink:href="#b"/>
</g>
<g clip-path="url(#a)">
<use x="782.357838" y="664.718878" fill="#ffffff" stroke="#ffffff" xlink:href="#b"/>
</g>
<g clip-path="url(#a)">
<use x="830.04901" y="664.718878" fill="#ffffff" stroke="#ffffff" xlink:href="#b"/>
</g>
<g clip-path="url(#a)">
<use x="877.740181" y="664.718878" fill="#ffffff" stroke="#ffffff" xlink:href="#b"/>
</g>
<g clip-path="url(#a)">
<use x="114.681436" y="664.718878" fill="#ffffff" stroke="#ffffff" xlink:href="#b"/>
</g>
<g clip-path="url(#a)">
<use x="210.06378" y="664.718878" fill="#ffffff" stroke="#ffffff" xlink:href="#b"/>
</g>
<g clip-path="url(#a)">
<use x="1402.343068" y="664.718878" fill="#ffffff" stroke="#ffffff" xlink:href="#b"/>
</g>
<g clip-path="url(#a)">
<defs>
<path id="t" d="m54.891 33.016v-33.016h-8.9844v32.719q0 7.7656-3.0312 11.609-3.0312 3.8594-9.0781 3.8594-7.2812 0-11.484-4.6406-4.2031-4.625-4.2031-12.641v-30.906h-9.0312v75.984h9.0312v-29.797q3.2344 4.9375 7.5938 7.375 4.375 2.4375 10.094 2.4375 9.4219 0 14.25-5.8281 4.8438-5.8281 4.8438-17.156z"/>
<path id="as" d="m18.109 8.2031v-29h-9.0312v75.484h9.0312v-8.2969q2.8438 4.875 7.1562 7.2344 4.3281 2.375 10.328 2.375 9.9688 0 16.188-7.9062 6.2344-7.9062 6.2344-20.797t-6.2344-20.812q-6.2188-7.9062-16.188-7.9062-6 0-10.328 2.375-4.3125 2.375-7.1562 7.25zm30.578 19.094q0 9.9062-4.0781 15.547t-11.203 5.6406q-7.1406 0-11.219-5.6406t-4.0781-15.547 4.0781-15.547 11.219-5.6406q7.125 0 11.203 5.6406t4.0781 15.547z"/>
<path id="q" d="m44.281 53.078v-8.5q-3.7969 1.9531-7.9062 2.9219-4.0938 0.98438-8.5 0.98438-6.6875 0-10.031-2.0469t-3.3438-6.1562q0-3.125 2.3906-4.9062t9.625-3.3906l3.0781-0.6875q9.5625-2.0469 13.594-5.7812t4.0312-10.422q0-7.625-6.0312-12.078-6.0312-4.4375-16.578-4.4375-4.3906 0-9.1562 0.85938t-10.031 2.5625v9.2812q4.9844-2.5938 9.8125-3.8906 4.8281-1.2812 9.5781-1.2812 6.3438 0 9.75 2.1719 3.4219 2.1719 3.4219 6.125 0 3.6562-2.4688 5.6094-2.4531 1.9531-10.812 3.7656l-3.125 0.73438q-8.3438 1.75-12.062 5.3906-3.7031 3.6406-3.7031 9.9844 0 7.7188 5.4688 11.906 5.4688 4.2031 15.531 4.2031 4.9688 0 9.3594-0.73438 4.4062-0.71875 8.1094-2.1875z"/>
</defs>
<g transform="translate(49.472 740.35) scale(.1 -.1)">
<use xlink:href="#ai"/>
<use x="60.302734" xlink:href="#t"/>
<use x="123.681641" xlink:href="#i"/>
<use x="151.464844" xlink:href="#h"/>
<use x="179.248047" xlink:href="#h"/>
<use x="207.03125" xlink:href="#i"/>
<use x="234.814453" xlink:href="#as"/>
<use x="298.291016" xlink:href="#q"/>
</g>
</g>
<g clip-path="url(#a)">
<defs>
<path id="ao" d="m11.719 12.406h10.297v-8.4062l-8-15.625h-6.2969l4 15.625z"/>
</defs>
<g transform="translate(113.09 740.35) scale(.1 -.1)">
<use xlink:href="#ao"/>
</g>
</g>
<g clip-path="url(#a)">
<defs>
<path id="w" d="m4.2031 54.688h8.9844l11.234-42.672 11.172 42.672h10.594l11.234-42.672 11.188 42.672h8.9844l-14.312-54.688h-10.594l-11.766 44.828-11.812-44.828h-10.609z"/>
</defs>
<g transform="translate(135.08 740.35) scale(.1 -.1)">
<use xlink:href="#k"/>
<use x="97.412109" xlink:href="#d"/>
<use x="158.935547" xlink:href="#e"/>
<use x="220.214844" xlink:href="#f"/>
<use x="283.59375" xlink:href="#w"/>
<use x="365.380859" xlink:href="#t"/>
<use x="428.759766" xlink:href="#i"/>
<use x="456.542969" xlink:href="#h"/>
<use x="484.326172" xlink:href="#d"/>
</g>
</g>
<g clip-path="url(#a)">
<g transform="translate(208.47 740.35) scale(.1 -.1)">
<use xlink:href="#ao"/>
</g>
</g>
<g clip-path="url(#a)">
<g transform="translate(248 740.35) scale(.1 -.1)">
<use xlink:href="#w"/>
<use x="81.787109" xlink:href="#e"/>
<use x="143.066406" xlink:href="#q"/>
</g>
</g>
<g clip-path="url(#a)">
<defs>
<path id="ar" d="m32.172-5.0781q-3.7969-9.7656-7.4219-12.734-3.6094-2.9844-9.6562-2.9844h-7.1875v7.5156h5.2812q3.7031 0 5.75 1.7656 2.0625 1.75 4.5469 8.2969l1.6094 4.0938-22.109 53.812h9.5156l17.094-42.766 17.094 42.766h9.5156z"/>
</defs>
<g transform="translate(288.28 740.35) scale(.1 -.1)">
<use xlink:href="#e"/>
<use x="61.279297" xlink:href="#h"/>
<use x="89.0625" xlink:href="#w"/>
<use x="170.849609" xlink:href="#e"/>
<use x="232.128906" xlink:href="#ar"/>
<use x="291.308594" xlink:href="#q"/>
</g>
</g>
<g clip-path="url(#a)">
<defs>
<path id="m" d="m30.609 48.391q-7.2188 0-11.422-5.6406t-4.2031-15.453 4.1719-15.453q4.1875-5.6406 11.453-5.6406 7.1875 0 11.375 5.6562 4.2031 5.6719 4.2031 15.438 0 9.7188-4.2031 15.406-4.1875 5.6875-11.375 5.6875zm0 7.6094q11.719 0 18.406-7.625 6.7031-7.6094 6.7031-21.078 0-13.422-6.7031-21.078-6.6875-7.6406-18.406-7.6406-11.766 0-18.438 7.6406-6.6562 7.6562-6.6562 21.078 0 13.469 6.6562 21.078 6.6719 7.625 18.438 7.625z"/>
</defs>
<g transform="translate(346.91 740.35) scale(.1 -.1)">
<use xlink:href="#m"/>
<use x="61.181641" xlink:href="#f"/>
</g>
</g>
<g clip-path="url(#a)">
<defs>
<path id="x" d="m18.312 70.219v-15.531h18.5v-6.9844h-18.5v-29.688q0-6.6875 1.8281-8.5938t7.4531-1.9062h9.2188v-7.5156h-9.2188q-10.406 0-14.359 3.875-3.9531 3.8906-3.9531 14.141v29.688h-6.5938v6.9844h6.5938v15.531z"/>
</defs>
<g transform="translate(392.62 740.35) scale(.1 -.1)">
<use xlink:href="#x"/>
<use x="39.208984" xlink:href="#t"/>
<use x="102.587891" xlink:href="#d"/>
</g>
</g>
<g clip-path="url(#a)">
<defs>
<path id="ap" d="m9.0781 75.984h9.0312v-44.875l26.812 23.578h11.469l-29-25.578 30.234-29.109h-11.719l-27.797 26.703v-26.703h-9.0312z"/>
<path id="s" d="m8.5 21.578v33.109h8.9844v-32.766q0-7.7656 3.0156-11.656 3.0312-3.875 9.0938-3.875 7.2656 0 11.484 4.6406 4.2344 4.6406 4.2344 12.656v31h8.9844v-54.688h-8.9844v8.4062q-3.2656-4.9844-7.5938-7.4062-4.3125-2.4219-10.031-2.4219-9.4219 0-14.312 5.8594-4.875 5.8594-4.875 17.141z"/>
</defs>
<g transform="translate(429.93 740.35) scale(.1 -.1)">
<use xlink:href="#h"/>
<use x="27.783203" xlink:href="#m"/>
<use x="88.964844" xlink:href="#m"/>
<use x="150.146484" xlink:href="#ap"/>
<use x="208.009766" xlink:href="#m"/>
<use x="269.191406" xlink:href="#s"/>
<use x="332.570312" xlink:href="#x"/>
</g>
</g>
<g clip-path="url(#a)">
<defs>
<path id="al" d="m37.109 75.984v-7.4844h-8.5938q-4.8281 0-6.7188-1.9531-1.875-1.9531-1.875-7.0312v-4.8281h14.797v-6.9844h-14.797v-47.703h-9.0312v47.703h-8.5938v6.9844h8.5938v3.8125q0 9.125 4.25 13.297 4.25 4.1875 13.469 4.1875z"/>
</defs>
<g transform="translate(489.34 740.35) scale(.1 -.1)">
<use xlink:href="#al"/>
<use x="35.205078" xlink:href="#m"/>
<use x="96.386719" xlink:href="#j"/>
</g>
</g>
<g clip-path="url(#a)">
<g transform="translate(520.99 740.35) scale(.1 -.1)">
<use xlink:href="#q"/>
<use x="52.099609" xlink:href="#m"/>
<use x="113.28125" xlink:href="#k"/>
<use x="210.693359" xlink:href="#d"/>
<use x="272.216797" xlink:href="#m"/>
<use x="333.398438" xlink:href="#f"/>
<use x="396.777344" xlink:href="#d"/>
</g>
</g>
<g clip-path="url(#a)">
<g transform="translate(581.28 740.35) scale(.1 -.1)">
<use xlink:href="#w"/>
<use x="81.787109" xlink:href="#t"/>
<use x="145.166016" xlink:href="#m"/>
</g>
</g>
<g clip-path="url(#a)">
<defs>
<path id="u" d="m48.781 52.594v-8.4062q-3.8125 2.1094-7.6406 3.1562t-7.7344 1.0469q-8.75 0-13.594-5.5469-4.8281-5.5312-4.8281-15.547t4.8281-15.562q4.8438-5.5312 13.594-5.5312 3.9062 0 7.7344 1.0469t7.6406 3.1562v-8.3125q-3.7656-1.75-7.7969-2.625-4.0156-0.89062-8.5625-0.89062-12.359 0-19.641 7.7656-7.2656 7.7656-7.2656 20.953 0 13.375 7.3438 21.031 7.3594 7.6719 20.156 7.6719 4.1406 0 8.0938-0.85938 3.9531-0.84375 7.6719-2.5469z"/>
<path id="y" d="m45.406 46.391v29.594h8.9844v-75.984h-8.9844v8.2031q-2.8281-4.875-7.1562-7.25-4.3125-2.375-10.375-2.375-9.9062 0-16.141 7.9062-6.2188 7.9219-6.2188 20.812t6.2188 20.797q6.2344 7.9062 16.141 7.9062 6.0625 0 10.375-2.375 4.3281-2.3594 7.1562-7.2344zm-30.609-19.094q0-9.9062 4.0781-15.547t11.203-5.6406 11.219 5.6406q4.1094 5.6406 4.1094 15.547t-4.1094 15.547q-4.0938 5.6406-11.219 5.6406t-11.203-5.6406-4.0781-15.547z"/>
</defs>
<g transform="translate(625.74 740.35) scale(.1 -.1)">
<use xlink:href="#u"/>
<use x="54.980469" xlink:href="#m"/>
<use x="116.162109" xlink:href="#s"/>
<use x="179.541016" xlink:href="#h"/>
<use x="207.324219" xlink:href="#y"/>
</g>
</g>
<g clip-path="url(#a)">
<defs>
<path id="ag" d="m48.688 27.297q0 9.9062-4.0781 15.547t-11.203 5.6406q-7.1406 0-11.219-5.6406t-4.0781-15.547 4.0781-15.547 11.219-5.6406q7.125 0 11.203 5.6406t4.0781 15.547zm-30.578 19.094q2.8438 4.875 7.1562 7.2344 4.3281 2.375 10.328 2.375 9.9688 0 16.188-7.9062 6.2344-7.9062 6.2344-20.797t-6.2344-20.812q-6.2188-7.9062-16.188-7.9062-6 0-10.328 2.375-4.3125 2.375-7.1562 7.25v-8.2031h-9.0312v75.984h9.0312z"/>
<path id="at" d="m45.406 27.984q0 9.7656-4.0312 15.125-4.0156 5.375-11.297 5.375-7.2188 0-11.25-5.375-4.0312-5.3594-4.0312-15.125 0-9.7188 4.0312-15.094t11.25-5.375q7.2812 0 11.297 5.375 4.0312 5.375 4.0312 15.094zm8.9844-21.203q0-13.953-6.2031-20.766-6.1875-6.8125-18.984-6.8125-4.7344 0-8.9375 0.70312t-8.1562 2.1719v8.7344q3.9531-2.1406 7.8125-3.1562 3.8594-1.0312 7.8594-1.0312 8.8438 0 13.234 4.6094t4.3906 13.938v4.4531q-2.7812-4.8438-7.125-7.2344t-10.406-2.3906q-10.047 0-16.203 7.6562-6.1562 7.6719-6.1562 20.328 0 12.688 6.1562 20.344 6.1562 7.6719 16.203 7.6719 6.0625 0 10.406-2.3906t7.125-7.2188v8.2969h8.9844z"/>
</defs>
<g transform="translate(674.01 740.35) scale(.1 -.1)">
<use xlink:href="#ag"/>
<use x="63.476562" xlink:href="#j"/>
<use x="104.589844" xlink:href="#i"/>
<use x="132.373047" xlink:href="#f"/>
<use x="195.751953" xlink:href="#at"/>
</g>
</g>
<g clip-path="url(#a)">
<g transform="translate(729.65 740.35) scale(.1 -.1)">
<use xlink:href="#x"/>
<use x="39.208984" xlink:href="#m"/>
</g>
</g>
<g clip-path="url(#a)">
<g transform="translate(779.29 740.35) scale(.1 -.1)">
<use xlink:href="#e"/>
</g>
</g>
<g clip-path="url(#a)">
<g transform="translate(810.39 740.35) scale(.1 -.1)">
<use xlink:href="#ag"/>
<use x="63.476562" xlink:href="#j"/>
<use x="104.558594" xlink:href="#m"/>
<use x="165.740234" xlink:href="#e"/>
<use x="227.019531" xlink:href="#y"/>
<use x="290.496094" xlink:href="#d"/>
<use x="352.019531" xlink:href="#j"/>
</g>
</g>
<g clip-path="url(#a)">
<g transform="translate(854.87 740.35) scale(.1 -.1)">
<use xlink:href="#e"/>
<use x="61.279297" xlink:href="#s"/>
<use x="124.658203" xlink:href="#y"/>
<use x="188.134766" xlink:href="#i"/>
<use x="215.917969" xlink:href="#d"/>
<use x="277.441406" xlink:href="#f"/>
<use x="340.820312" xlink:href="#u"/>
<use x="395.800781" xlink:href="#d"/>
</g>
</g>
<g clip-path="url(#a)">
<g transform="translate(917.23 740.35) scale(.1 -.1)">
<use xlink:href="#x"/>
<use x="39.208984" xlink:href="#t"/>
<use x="102.587891" xlink:href="#d"/>
</g>
</g>
<g clip-path="url(#a)">
<g transform="translate(957.95 740.35) scale(.1 -.1)">
<use xlink:href="#q"/>
<use x="52.099609" xlink:href="#m"/>
<use x="113.28125" xlink:href="#s"/>
<use x="176.660156" xlink:href="#f"/>
<use x="240.039062" xlink:href="#y"/>
</g>
</g>
<g clip-path="url(#a)">
<g transform="translate(1016 740.35) scale(.1 -.1)">
<use xlink:href="#m"/>
<use x="61.181641" xlink:href="#al"/>
</g>
</g>
<g clip-path="url(#a)">
<g transform="translate(1060.3 740.35) scale(.1 -.1)">
<use xlink:href="#x"/>
<use x="39.208984" xlink:href="#t"/>
<use x="102.587891" xlink:href="#d"/>
</g>
</g>
<g clip-path="url(#a)">
<g transform="translate(1102.9 740.35) scale(.1 -.1)">
<use xlink:href="#ag"/>
<use x="63.476562" xlink:href="#h"/>
<use x="91.259766" xlink:href="#e"/>
<use x="152.539062" xlink:href="#u"/>
<use x="207.519531" xlink:href="#ap"/>
</g>
</g>
<g clip-path="url(#a)">
<g transform="translate(1138.9 740.35) scale(.1 -.1)">
<use xlink:href="#k"/>
<use x="97.412109" xlink:href="#s"/>
<use x="160.791016" xlink:href="#q"/>
<use x="212.890625" xlink:href="#i"/>
<use x="240.673828" xlink:href="#u"/>
<use x="295.654297" xlink:href="#i"/>
<use x="323.4375" xlink:href="#e"/>
<use x="384.716797" xlink:href="#f"/>
<use x="448.095703" xlink:href="#q"/>
</g>
</g>
<g clip-path="url(#a)">
<g transform="translate(1205.4 740.35) scale(.1 -.1)">
<use xlink:href="#m"/>
<use x="61.181641" xlink:href="#f"/>
</g>
</g>
<g clip-path="url(#a)">
<g transform="translate(1244.1 740.35) scale(.1 -.1)">
<use xlink:href="#w"/>
<use x="81.787109" xlink:href="#t"/>
<use x="145.166016" xlink:href="#m"/>
<use x="206.347656" xlink:href="#k"/>
</g>
</g>
<g clip-path="url(#a)">
<g transform="translate(1297.4 740.35) scale(.1 -.1)">
<use xlink:href="#am"/>
<use x="63.476562" xlink:href="#s"/>
<use x="126.855469" xlink:href="#f"/>
</g>
</g>
<g clip-path="url(#a)">
<g transform="translate(1335.1 740.35) scale(.1 -.1)">
<use xlink:href="#al"/>
<use x="35.205078" xlink:href="#m"/>
<use x="96.386719" xlink:href="#u"/>
<use x="151.367188" xlink:href="#s"/>
<use x="214.746094" xlink:href="#q"/>
<use x="266.845703" xlink:href="#d"/>
<use x="328.369141" xlink:href="#y"/>
</g>
</g>
<g clip-path="url(#a)">
<defs>
<path id="g" d="m10.688 12.406h10.312v-12.406h-10.312z"/>
</defs>
<g transform="translate(1400.8 740.35) scale(.1 -.1)">
<use xlink:href="#g"/>
</g>
</g>
<g clip-path="url(#a)">
<defs>
<path id="c" d="m12.406 8.2969h16.109v55.625l-17.531-3.5156v8.9844l17.438 3.5156h9.8594v-64.609h16.109v-8.2969h-41.984z"/>
</defs>
<g transform="translate(254.87 38.498) scale(.1 -.1)">
<use xlink:href="#c"/>
<use x="63.623047" xlink:href="#g"/>
<use x="95.410156" xlink:href="#c"/>
</g>
</g>
<g clip-path="url(#a)">
<defs>
<path id="n" d="m19.188 8.2969h34.422v-8.2969h-46.281v8.2969q5.6094 5.8125 15.297 15.594 9.7031 9.7969 12.188 12.641 4.7344 5.3125 6.6094 9 1.8906 3.6875 1.8906 7.25 0 5.8125-4.0781 9.4688-4.0781 3.6719-10.625 3.6719-4.6406 0-9.7969-1.6094-5.1406-1.6094-11-4.8906v9.9688q5.9531 2.3906 11.125 3.6094 5.1875 1.2188 9.4844 1.2188 11.328 0 18.062-5.6719 6.7344-5.6562 6.7344-15.125 0-4.5-1.6875-8.5312-1.6719-4.0156-6.125-9.4844-1.2188-1.4219-7.7656-8.1875-6.5312-6.7656-18.453-18.922z"/>
</defs>
<g transform="translate(254.87 124.65) scale(.1 -.1)">
<use xlink:href="#c"/>
<use x="63.623047" xlink:href="#g"/>
<use x="95.410156" xlink:href="#n"/>
</g>
</g>
<g clip-path="url(#a)">
<defs>
<path id="af" d="m37.797 64.312-24.906-38.922h24.906zm-2.5938 8.5938h12.406v-47.516h10.406v-8.2031h-10.406v-17.188h-9.8125v17.188h-32.906v9.5156z"/>
</defs>
<g transform="translate(59.039 667.48) scale(.1 -.1)">
<use xlink:href="#c"/>
<use x="63.623047" xlink:href="#g"/>
<use x="95.410156" xlink:href="#af"/>
</g>
</g>
<g clip-path="url(#a)">
<defs>
<path id="ae" d="m10.797 72.906h38.719v-8.3125h-29.688v-17.859q2.1406 0.73438 4.2812 1.0938 2.1562 0.35938 4.3125 0.35938 12.203 0 19.328-6.6875 7.1406-6.6875 7.1406-18.109 0-11.766-7.3281-18.297-7.3281-6.5156-20.656-6.5156-4.5938 0-9.3594 0.78125-4.75 0.78125-9.8281 2.3438v9.9219q4.3906-2.3906 9.0781-3.5625t9.9062-1.1719q8.4531 0 13.375 4.4375 4.9375 4.4375 4.9375 12.062 0 7.6094-4.9375 12.047-4.9219 4.4531-13.375 4.4531-3.9531 0-7.8906-0.875-3.9219-0.875-8.0156-2.7344z"/>
</defs>
<g transform="translate(154.42 667.48) scale(.1 -.1)">
<use xlink:href="#c"/>
<use x="63.623047" xlink:href="#g"/>
<use x="95.410156" xlink:href="#ae"/>
</g>
</g>
<g clip-path="url(#a)">
<defs>
<path id="ad" d="m33.016 40.375q-6.6406 0-10.531-4.5469-3.875-4.5312-3.875-12.438 0-7.8594 3.875-12.438 3.8906-4.5625 10.531-4.5625t10.516 4.5625q3.875 4.5781 3.875 12.438 0 7.9062-3.875 12.438-3.875 4.5469-10.516 4.5469zm19.578 30.922v-8.9844q-3.7188 1.75-7.5 2.6719-3.7812 0.9375-7.5 0.9375-9.7656 0-14.922-6.5938-5.1406-6.5938-5.875-19.922 2.875 4.25 7.2188 6.5156 4.3594 2.2656 9.5781 2.2656 10.984 0 17.359-6.6719 6.375-6.6562 6.375-18.125 0-11.234-6.6406-18.031-6.6406-6.7812-17.672-6.7812-12.656 0-19.344 9.6875-6.6875 9.7031-6.6875 28.109 0 17.281 8.2031 27.562t22.016 10.281q3.7188 0 7.5-0.73438t7.8906-2.1875z"/>
</defs>
<g transform="translate(249.8 667.48) scale(.1 -.1)">
<use xlink:href="#c"/>
<use x="63.623047" xlink:href="#g"/>
<use x="95.410156" xlink:href="#ad"/>
</g>
</g>
<g clip-path="url(#a)">
<defs>
<path id="ac" d="m8.2031 72.906h46.875v-4.2031l-26.469-68.703h-10.297l24.906 64.594h-35.016z"/>
</defs>
<g transform="translate(297.49 667.48) scale(.1 -.1)">
<use xlink:href="#c"/>
<use x="63.623047" xlink:href="#g"/>
<use x="95.410156" xlink:href="#ac"/>
</g>
</g>
<g clip-path="url(#a)">
<defs>
<path id="ab" d="m31.781 34.625q-7.0312 0-11.062-3.7656-4.0156-3.7656-4.0156-10.344 0-6.5938 4.0156-10.359 4.0312-3.7656 11.062-3.7656t11.078 3.7812q4.0625 3.7969 4.0625 10.344 0 6.5781-4.0312 10.344-4.0156 3.7656-11.109 3.7656zm-9.8594 4.1875q-6.3438 1.5625-9.8906 5.9062-3.5312 4.3594-3.5312 10.609 0 8.7344 6.2188 13.812 6.2344 5.0781 17.062 5.0781 10.891 0 17.094-5.0781t6.2031-13.812q0-6.25-3.5469-10.609-3.5312-4.3438-9.8281-5.9062 7.125-1.6562 11.094-6.5 3.9844-4.8281 3.9844-11.797 0-10.609-6.4688-16.281-6.4688-5.6562-18.531-5.6562-12.047 0-18.531 5.6562-6.4688 5.6719-6.4688 16.281 0 6.9688 4 11.797 4.0156 4.8438 11.141 6.5zm-3.6094 15.578q0-5.6562 3.5312-8.8281 3.5469-3.1719 9.9375-3.1719 6.3594 0 9.9375 3.1719 3.5938 3.1719 3.5938 8.8281 0 5.6719-3.5938 8.8438-3.5781 3.1719-9.9375 3.1719-6.3906 0-9.9375-3.1719-3.5312-3.1719-3.5312-8.8438z"/>
</defs>
<g transform="translate(392.88 667.48) scale(.1 -.1)">
<use xlink:href="#c"/>
<use x="63.623047" xlink:href="#g"/>
<use x="95.410156" xlink:href="#ab"/>
</g>
</g>
<g clip-path="url(#a)">
<defs>
<path id="aa" d="m10.984 1.5156v8.9844q3.7188-1.7656 7.5156-2.6875 3.8125-0.92188 7.4844-0.92188 9.7656 0 14.906 6.5625 5.1562 6.5625 5.8906 19.953-2.8281-4.2031-7.1875-6.4531-4.3438-2.25-9.6094-2.25-10.938 0-17.312 6.6094-6.375 6.625-6.375 18.109 0 11.219 6.6406 18 6.6406 6.7969 17.672 6.7969 12.656 0 19.312-9.7031 6.6719-9.6875 6.6719-28.141 0-17.234-8.1875-27.516-8.1719-10.281-21.984-10.281-3.7188 0-7.5312 0.73438-3.7969 0.73438-7.9062 2.2031zm19.625 30.906q6.6406 0 10.516 4.5312 3.8906 4.5469 3.8906 12.469 0 7.8594-3.8906 12.422-3.875 4.5625-10.516 4.5625t-10.516-4.5625-3.875-12.422q0-7.9219 3.875-12.469 3.875-4.5312 10.516-4.5312z"/>
</defs>
<g transform="translate(576.47 208.22) scale(.1 -.1)">
<use xlink:href="#c"/>
<use x="63.623047" xlink:href="#g"/>
<use x="95.410156" xlink:href="#aa"/>
</g>
</g>
<g clip-path="url(#a)">
<g transform="translate(485.08 667.48) scale(.1 -.1)">
<use xlink:href="#c"/>
<use x="63.623047" xlink:href="#g"/>
<use x="95.410156" xlink:href="#c"/>
<use x="159.033203" xlink:href="#n"/>
</g>
</g>
<g clip-path="url(#a)">
<defs>
<path id="o" d="m40.578 39.312q7.0781-1.5156 11.047-6.3125 3.9844-4.7812 3.9844-11.812 0-10.781-7.4219-16.703-7.4219-5.9062-21.094-5.9062-4.5781 0-9.4375 0.90625t-10.031 2.7188v9.5156q4.0938-2.3906 8.9688-3.6094 4.8906-1.2188 10.219-1.2188 9.2656 0 14.125 3.6562t4.8594 10.641q0 6.4531-4.5156 10.078-4.5156 3.6406-12.562 3.6406h-8.5v8.1094h8.8906q7.2656 0 11.125 2.9062t3.8594 8.375q0 5.6094-3.9844 8.6094-3.9688 3.0156-11.391 3.0156-4.0625 0-8.7031-0.89062-4.6406-0.875-10.203-2.7188v8.7812q5.625 1.5625 10.531 2.3438t9.25 0.78125q11.234 0 17.766-5.1094 6.5469-5.0938 6.5469-13.781 0-6.0625-3.4688-10.234t-9.8594-5.7812z"/>
</defs>
<g transform="translate(532.77 667.48) scale(.1 -.1)">
<use xlink:href="#c"/>
<use x="63.623047" xlink:href="#g"/>
<use x="95.410156" xlink:href="#c"/>
<use x="159.033203" xlink:href="#o"/>
</g>
</g>
<g clip-path="url(#a)">
<g transform="translate(702.02 289.39) scale(.1 -.1)">
<use xlink:href="#c"/>
<use x="63.623047" xlink:href="#g"/>
<use x="95.410156" xlink:href="#c"/>
<use x="159.033203" xlink:href="#af"/>
</g>
</g>
<g clip-path="url(#a)">
<g transform="translate(580.46 667.48) scale(.1 -.1)">
<use xlink:href="#c"/>
<use x="63.623047" xlink:href="#g"/>
<use x="95.410156" xlink:href="#c"/>
<use x="159.033203" xlink:href="#ae"/>
</g>
</g>
<g clip-path="url(#a)">
<g transform="translate(628.15 667.48) scale(.1 -.1)">
<use xlink:href="#c"/>
<use x="63.623047" xlink:href="#g"/>
<use x="95.410156" xlink:href="#c"/>
<use x="159.033203" xlink:href="#ad"/>
</g>
</g>
<g clip-path="url(#a)">
<g transform="translate(675.84 667.48) scale(.1 -.1)">
<use xlink:href="#c"/>
<use x="63.623047" xlink:href="#g"/>
<use x="95.410156" xlink:href="#c"/>
<use x="159.033203" xlink:href="#ac"/>
</g>
</g>
<g clip-path="url(#a)">
<g transform="translate(795.07 594.6) scale(.1 -.1)">
<use xlink:href="#c"/>
<use x="63.623047" xlink:href="#g"/>
<use x="95.410156" xlink:href="#c"/>
<use x="159.033203" xlink:href="#ab"/>
</g>
</g>
<g clip-path="url(#a)">
<g transform="translate(999.82 368.37) scale(.1 -.1)">
<use xlink:href="#c"/>
<use x="63.623047" xlink:href="#g"/>
<use x="95.410156" xlink:href="#c"/>
<use x="159.033203" xlink:href="#aa"/>
</g>
</g>
<g clip-path="url(#a)">
<defs>
<path id="an" d="m31.781 66.406q-7.6094 0-11.453-7.5-3.8281-7.4844-3.8281-22.531 0-14.984 3.8281-22.484 3.8438-7.5 11.453-7.5 7.6719 0 11.5 7.5 3.8438 7.5 3.8438 22.484 0 15.047-3.8438 22.531-3.8281 7.5-11.5 7.5zm0 7.8125q12.266 0 18.734-9.7031 6.4688-9.6875 6.4688-28.141 0-18.406-6.4688-28.109-6.4688-9.6875-18.734-9.6875-12.25 0-18.719 9.6875-6.4688 9.7031-6.4688 28.109 0 18.453 6.4688 28.141 6.4688 9.7031 18.719 9.7031z"/>
</defs>
<g transform="translate(914.3 667.48) scale(.1 -.1)">
<use xlink:href="#c"/>
<use x="63.623047" xlink:href="#g"/>
<use x="95.410156" xlink:href="#n"/>
<use x="159.033203" xlink:href="#an"/>
</g>
</g>
<g clip-path="url(#a)">
<g transform="translate(961.99 667.48) scale(.1 -.1)">
<use xlink:href="#c"/>
<use x="63.623047" xlink:href="#g"/>
<use x="95.410156" xlink:href="#n"/>
<use x="159.033203" xlink:href="#c"/>
</g>
</g>
<g clip-path="url(#a)">
<g transform="translate(1123.2 445.4) scale(.1 -.1)">
<use xlink:href="#c"/>
<use x="63.623047" xlink:href="#g"/>
<use x="95.410156" xlink:href="#n"/>
<use x="159.033203" xlink:href="#n"/>
</g>
</g>
<g clip-path="url(#a)">
<g transform="translate(1009.7 667.48) scale(.1 -.1)">
<use xlink:href="#c"/>
<use x="63.623047" xlink:href="#g"/>
<use x="95.410156" xlink:href="#n"/>
<use x="159.033203" xlink:href="#o"/>
</g>
</g>
<g clip-path="url(#a)">
<g transform="translate(1057.4 667.48) scale(.1 -.1)">
<use xlink:href="#c"/>
<use x="63.623047" xlink:href="#g"/>
<use x="95.410156" xlink:href="#n"/>
<use x="159.033203" xlink:href="#af"/>
</g>
</g>
<g clip-path="url(#a)">
<g transform="translate(1105.1 667.48) scale(.1 -.1)">
<use xlink:href="#c"/>
<use x="63.623047" xlink:href="#g"/>
<use x="95.410156" xlink:href="#n"/>
<use x="159.033203" xlink:href="#ae"/>
</g>
</g>
<g clip-path="url(#a)">
<g transform="translate(1152.8 667.48) scale(.1 -.1)">
<use xlink:href="#c"/>
<use x="63.623047" xlink:href="#g"/>
<use x="95.410156" xlink:href="#n"/>
<use x="159.033203" xlink:href="#ad"/>
</g>
</g>
<g clip-path="url(#a)">
<g transform="translate(1291.1 520.71) scale(.1 -.1)">
<use xlink:href="#c"/>
<use x="63.623047" xlink:href="#g"/>
<use x="95.410156" xlink:href="#n"/>
<use x="159.033203" xlink:href="#ac"/>
</g>
</g>
<g clip-path="url(#a)">
<g transform="translate(1176.6 594.6) scale(.1 -.1)">
<use xlink:href="#c"/>
<use x="63.623047" xlink:href="#g"/>
<use x="95.410156" xlink:href="#n"/>
<use x="159.033203" xlink:href="#ab"/>
</g>
</g>
<g clip-path="url(#a)">
<g transform="translate(1248.1 667.48) scale(.1 -.1)">
<use xlink:href="#c"/>
<use x="63.623047" xlink:href="#g"/>
<use x="95.410156" xlink:href="#n"/>
<use x="159.033203" xlink:href="#aa"/>
</g>
</g>
<g clip-path="url(#a)">
<g transform="translate(1295.8 667.48) scale(.1 -.1)">
<use xlink:href="#c"/>
<use x="63.623047" xlink:href="#g"/>
<use x="95.410156" xlink:href="#o"/>
<use x="159.033203" xlink:href="#an"/>
</g>
</g>
<g clip-path="url(#a)">
<g transform="translate(1343.5 667.48) scale(.1 -.1)">
<use xlink:href="#c"/>
<use x="63.623047" xlink:href="#g"/>
<use x="95.410156" xlink:href="#o"/>
<use x="159.033203" xlink:href="#c"/>
</g>
</g>
<g clip-path="url(#a)">
<g transform="translate(1200.4 667.48) scale(.1 -.1)">
<use xlink:href="#c"/>
<use x="63.623047" xlink:href="#g"/>
<use x="95.410156" xlink:href="#o"/>
<use x="159.033203" xlink:href="#n"/>
</g>
</g>
<g clip-path="url(#a)">
<g transform="translate(723.53 667.48) scale(.1 -.1)">
<use xlink:href="#c"/>
<use x="63.623047" xlink:href="#g"/>
<use x="95.410156" xlink:href="#o"/>
<use x="159.033203" xlink:href="#o"/>
</g>
</g>
<g clip-path="url(#a)">
<g transform="translate(771.23 667.48) scale(.1 -.1)">
<use xlink:href="#c"/>
<use x="63.623047" xlink:href="#g"/>
<use x="95.410156" xlink:href="#o"/>
<use x="159.033203" xlink:href="#af"/>
</g>
</g>
<g clip-path="url(#a)">
<g transform="translate(818.92 667.48) scale(.1 -.1)">
<use xlink:href="#c"/>
<use x="63.623047" xlink:href="#g"/>
<use x="95.410156" xlink:href="#o"/>
<use x="159.033203" xlink:href="#ae"/>
</g>
</g>
<g clip-path="url(#a)">
<g transform="translate(866.61 667.48) scale(.1 -.1)">
<use xlink:href="#c"/>
<use x="63.623047" xlink:href="#g"/>
<use x="95.410156" xlink:href="#o"/>
<use x="159.033203" xlink:href="#ad"/>
</g>
</g>
<g clip-path="url(#a)">
<g transform="translate(103.55 667.48) scale(.1 -.1)">
<use xlink:href="#c"/>
<use x="63.623047" xlink:href="#g"/>
<use x="95.410156" xlink:href="#o"/>
<use x="159.033203" xlink:href="#ac"/>
</g>
</g>
<g clip-path="url(#a)">
<g transform="translate(198.93 667.48) scale(.1 -.1)">
<use xlink:href="#c"/>
<use x="63.623047" xlink:href="#g"/>
<use x="95.410156" xlink:href="#o"/>
<use x="159.033203" xlink:href="#ab"/>
</g>
</g>
<g clip-path="url(#a)">
<g transform="translate(1391.2 667.48) scale(.1 -.1)">
<use xlink:href="#c"/>
<use x="63.623047" xlink:href="#g"/>
<use x="95.410156" xlink:href="#o"/>
<use x="159.033203" xlink:href="#aa"/>
</g>
</g>
<defs>
<clipPath id="a">
<rect width="1469.3" height="773.33"/>
</clipPath>
</defs>
</svg>
