<?xml version="1.0" encoding="UTF-8"?>
<!DOCTYPE svg  PUBLIC '-//W3C//DTD SVG 1.1//EN'  'http://www.w3.org/Graphics/SVG/1.1/DTD/svg11.dtd'>
<svg width="1418.7pt" height="746.67pt" version="1.1" viewBox="0 0 1418.7 746.67" xmlns="http://www.w3.org/2000/svg" xmlns:xlink="http://www.w3.org/1999/xlink">
<defs>
<style type="text/css">*{stroke-linecap:butt;stroke-linejoin:round;}</style>
</defs>
<path d="m0 746.67h1418.7v-746.67h-1418.7z" fill="#fff"/>
<g fill="none" stroke="#000">
<path d="m470.39 35.046-357.95 411.48" clip-path="url(#a)"/>
<path d="m470.39 35.046-262.44 544.02" clip-path="url(#a)"/>
<path d="m470.39 35.046-250.51 277.08" clip-path="url(#a)"/>
<path d="m470.39 35.046-113.22 140.1" clip-path="url(#a)"/>
<path d="m470.39 35.046 310.57 544.02" clip-path="url(#a)"/>
<path d="m470.39 35.046 529.92 277.08" clip-path="url(#a)"/>
<path d="m470.39 35.046-119.19 544.02" clip-path="url(#a)"/>
<path d="m470.39 35.046 262.82 544.02" clip-path="url(#a)"/>
<path d="m112.45 446.52-47.751 132.55" clip-path="url(#a)"/>
<path d="m112.45 446.52v132.55" clip-path="url(#a)"/>
<path d="m112.45 446.52 47.751 132.55" clip-path="url(#a)"/>
<path d="m207.95 579.07v132.55" clip-path="url(#a)"/>
<path d="m219.89 312.13 59.689 134.39" clip-path="url(#a)"/>
<path d="m219.89 312.13-59.689 266.94" clip-path="url(#a)" stroke-dasharray="3.7,1.6"/>
<path d="m357.17 175.15 41.782 403.92" clip-path="url(#a)"/>
<path d="m357.17 175.15 89.533 403.92" clip-path="url(#a)"/>
<path d="m357.17 175.15 161.16 136.98" clip-path="url(#a)"/>
<path d="m357.17 175.15-292.47 403.92" clip-path="url(#a)" stroke-dasharray="3.7,1.6"/>
<path d="m780.96 579.07v132.55" clip-path="url(#a)"/>
<path d="m1000.3 312.13-171.61 266.94" clip-path="url(#a)"/>
<path d="m1000.3 312.13-10.446 134.39" clip-path="url(#a)"/>
<path d="m1000.3 312.13-76.103 266.94" clip-path="url(#a)"/>
<path d="m1000.3 312.13 258.15 134.39" clip-path="url(#a)"/>
<path d="m828.71 579.07v132.55" clip-path="url(#a)"/>
<path d="m989.87 446.52-113.41 132.55" clip-path="url(#a)"/>
<path d="m989.87 446.52-17.907 132.55" clip-path="url(#a)"/>
<path d="m989.87 446.52 29.844 132.55" clip-path="url(#a)"/>
<path d="m989.87 446.52 101.47 132.55" clip-path="url(#a)"/>
<path d="m924.21 579.07v132.55" clip-path="url(#a)"/>
<path d="m1258.5 446.52-95.502 132.55" clip-path="url(#a)"/>
<path d="m1258.5 446.52-47.751 132.55" clip-path="url(#a)"/>
<path d="m1258.5 446.52v132.55" clip-path="url(#a)"/>
<path d="m1258.5 446.52 47.751 132.55" clip-path="url(#a)"/>
<path d="m1258.5 446.52 95.502 132.55" clip-path="url(#a)"/>
<path d="m1163 579.07v132.55" clip-path="url(#a)"/>
<path d="m1210.7 579.07v132.55" clip-path="url(#a)"/>
<path d="m1258.5 579.07v132.55" clip-path="url(#a)"/>
<path d="m876.46 579.07v132.55" clip-path="url(#a)"/>
<path d="m971.96 579.07v132.55" clip-path="url(#a)"/>
<path d="m1019.7 579.07v132.55" clip-path="url(#a)"/>
<path d="m1091.3 579.07-23.876 132.55" clip-path="url(#a)"/>
<path d="m1091.3 579.07 23.876 132.55" clip-path="url(#a)"/>
<path d="m398.95 579.07v132.55" clip-path="url(#a)"/>
<path d="m446.7 579.07v132.55" clip-path="url(#a)"/>
<path d="m518.33 312.13-71.627 266.94" clip-path="url(#a)" stroke-dasharray="3.7,1.6"/>
<path d="m518.33 312.13-23.876 266.94" clip-path="url(#a)"/>
<path d="m518.33 312.13 95.502 134.39" clip-path="url(#a)"/>
<path d="m494.45 579.07v132.55" clip-path="url(#a)"/>
<path d="m613.83 446.52-71.627 132.55" clip-path="url(#a)"/>
<path d="m613.83 446.52-23.876 132.55" clip-path="url(#a)"/>
<path d="m613.83 446.52 23.876 132.55" clip-path="url(#a)"/>
<path d="m613.83 446.52 71.627 132.55" clip-path="url(#a)"/>
<path d="m542.2 579.07v132.55" clip-path="url(#a)"/>
<path d="m589.96 579.07v132.55" clip-path="url(#a)"/>
<path d="m637.71 579.07v132.55" clip-path="url(#a)"/>
<path d="m685.46 579.07v132.55" clip-path="url(#a)"/>
<path d="m279.57 446.52-23.876 132.55" clip-path="url(#a)"/>
<path d="m279.57 446.52 23.876 132.55" clip-path="url(#a)"/>
<path d="m255.7 579.07v132.55" clip-path="url(#a)"/>
<path d="m303.45 579.07v132.55" clip-path="url(#a)"/>
<path d="m64.695 579.07v132.55" clip-path="url(#a)"/>
<path d="m112.45 579.07v132.55" clip-path="url(#a)"/>
<path d="m160.2 579.07v132.55" clip-path="url(#a)"/>
<path d="m712.82 35.046-355.65 140.1" clip-path="url(#a)"/>
<path d="m712.82 35.046 68.145 544.02" clip-path="url(#a)"/>
<path d="m712.82 35.046 287.5 277.08" clip-path="url(#a)"/>
<path d="m180.09 175.15-67.647 271.37" clip-path="url(#a)"/>
<path d="m180.09 175.15 27.855 403.92" clip-path="url(#a)"/>
<path d="m180.09 175.15 39.793 136.98" clip-path="url(#a)"/>
<path d="m351.2 579.07v132.55" clip-path="url(#a)"/>
<path d="m733.21 579.07v132.55" clip-path="url(#a)"/>
<path d="m1306.2 579.07v132.55" clip-path="url(#a)"/>
<path d="m1354 579.07v132.55" clip-path="url(#a)"/>
</g>
<path d="m294.18 247.17 3.9486-4.5391q1.5752-1.8107-0.23556-3.3859l-5.8415-5.0816q-1.8107-1.5752-3.3859 0.23556l-3.9486 4.5391q-1.5752 1.8107 0.23556 3.3859l5.8415 5.0816q1.8107 1.5752 3.3859-0.23556z" clip-path="url(#a)" fill="#fff" stroke="#fff"/>
<g clip-path="url(#a)">
<defs>
<path id="z" d="m9.8125 72.906h9.8594v-29.891h35.844v29.891h9.8594v-72.906h-9.8594v34.719h-35.844v-34.719h-9.8594z"/>
</defs>
<g transform="translate(291.11 244.5) rotate(-48.98) scale(.08 -.08)">
<use xlink:href="#z"/>
</g>
</g>
<path d="m343.85 311.79 1.9368-4.0148q1.0428-2.1616-1.1188-3.2044l-6.9735-3.3641q-2.1616-1.0428-3.2044 1.1188l-1.9368 4.0148q-1.0428 2.1616 1.1188 3.2044l6.9735 3.3641q2.1616 1.0428 3.2044-1.1188z" clip-path="url(#a)" fill="#fff" stroke="#fff"/>
<g clip-path="url(#a)">
<defs>
<path id="r" d="m9.8125 72.906h9.8594v-64.609h35.5v-8.2969h-45.359z"/>
</defs>
<g transform="translate(340.19 310.03) rotate(-64.247) scale(.08 -.08)">
<use xlink:href="#r"/>
</g>
</g>
<path d="m347.77 180.02 4.0347-4.4628q1.6095-1.7803-0.17076-3.3898l-5.7433-5.1924q-1.7803-1.6095-3.3898 0.17076l-4.0347 4.4628q-1.6095 1.7803 0.17076 3.3898l5.7433 5.1924q1.7803 1.6095 3.3898-0.17076z" clip-path="url(#a)" fill="#fff" stroke="#fff"/>
<g clip-path="url(#a)">
<g transform="translate(344.76 177.3) rotate(-47.884) scale(.08 -.08)">
<use xlink:href="#z"/>
</g>
</g>
<path d="m416.77 111.38 3.7815-4.6793q1.5085-1.8666-0.35814-3.3752l-6.0219-4.8665q-1.8666-1.5085-3.3752 0.35813l-3.7815 4.6793q-1.5085 1.8666 0.35813 3.3752l6.0219 4.8665q1.8666 1.5085 3.3752-0.35813z" clip-path="url(#a)" fill="#fff" stroke="#fff"/>
<g clip-path="url(#a)">
<g transform="translate(413.61 108.82) rotate(-51.057) scale(.08 -.08)">
<use xlink:href="#z"/>
</g>
</g>
<path d="m619.12 308.23 2.2099 3.8711q1.1899 2.0843 3.2741 0.89443l6.724-3.8385q2.0843-1.1899 0.89443-3.2741l-2.2099-3.8711q-1.1899-2.0843-3.2741-0.89443l-6.724 3.8385q-2.0843 1.1899-0.89443 3.2741z" clip-path="url(#a)" fill="#fff" stroke="#fff"/>
<g clip-path="url(#a)">
<g transform="translate(622.65 306.22) rotate(60.279) scale(.08 -.08)">
<use xlink:href="#r"/>
</g>
</g>
<path d="m729.78 177.75 5.3314 2.7877q2.1268 1.1121 3.2389-1.0148l3.5875-6.8612q1.1121-2.1268-1.0148-3.2389l-5.3314-2.7877q-2.1268-1.1121-3.2389 1.0148l-3.5875 6.8612q-1.1121 2.1268 1.0148 3.2389z" clip-path="url(#a)" fill="#fff" stroke="#fff"/>
<g clip-path="url(#a)">
<g transform="translate(731.67 174.15) rotate(27.604) scale(.08 -.08)">
<use xlink:href="#z"/>
</g>
</g>
<path d="m416.3 311.26 1.2531-5.7193q0.51364-2.3444-1.8308-2.858l-7.5631-1.657q-2.3444-0.51364-2.858 1.8308l-1.2531 5.7193q-0.51364 2.3444 1.8308 2.858l7.5631 1.657q2.3444 0.51364 2.858-1.8308z" clip-path="url(#a)" fill="#fff" stroke="#fff"/>
<g clip-path="url(#a)">
<defs>
<path id="y" d="m8.6875 72.906h9.9219v-44.297q0-11.719 4.2344-16.875 4.25-5.1406 13.781-5.1406 9.4688 0 13.719 5.1406 4.25 5.1562 4.25 16.875v44.297h9.9062v-45.516q0-14.25-7.0625-21.531-7.0469-7.2812-20.812-7.2812-13.828 0-20.891 7.2812-7.0469 7.2812-7.0469 21.531z"/>
</defs>
<g transform="translate(412.33 310.39) rotate(-77.642) scale(.08 -.08)">
<use xlink:href="#y"/>
</g>
</g>
<path d="m594.88 307.15 2.5469 5.272q1.044 2.161 3.205 1.117l6.9716-3.368q2.161-1.044 1.117-3.205l-2.5469-5.272q-1.044-2.161-3.205-1.117l-6.9716 3.368q-2.161 1.044-1.117 3.205z" clip-path="url(#a)" fill="#fff" stroke="#fff"/>
<g clip-path="url(#a)">
<g transform="translate(598.54 305.38) rotate(64.215) scale(.08 -.08)">
<use xlink:href="#y"/>
</g>
</g>
<path d="m93.543 517.5 1.8548-5.1486q0.81343-2.2579-1.4445-3.0714l-7.2842-2.6242q-2.2579-0.81343-3.0714 1.4445l-1.8548 5.1486q-0.81343 2.2579 1.4445 3.0714l7.2842 2.6242q2.2579 0.81343 3.0714-1.4445z" clip-path="url(#a)" fill="#fff" stroke="#fff"/>
<g clip-path="url(#a)">
<defs>
<path id="o" d="m34.188 63.188-13.391-36.281h26.812zm-5.5781 9.7188h11.188l27.781-72.906h-10.25l-6.6406 18.703h-32.859l-6.6406-18.703h-10.406z"/>
</defs>
<g transform="translate(89.72 516.12) rotate(-70.188) scale(.08 -.08)">
<use xlink:href="#o"/>
</g>
</g>
<path d="m106.17 510.38v4.8238q0 2.4 2.4 2.4h7.7425q2.4 0 2.4-2.4v-4.8238q0-2.4-2.4-2.4h-7.7425q-2.4 0-2.4 2.4z" clip-path="url(#a)" fill="#fff" stroke="#fff"/>
<g clip-path="url(#a)">
<defs>
<path id="t" d="m19.672 64.797v-27.391h12.406q6.8906 0 10.641 3.5625 3.7656 3.5625 3.7656 10.156 0 6.5469-3.7656 10.109-3.75 3.5625-10.641 3.5625zm-9.8594 8.1094h22.266q12.266 0 18.531-5.5469 6.2812-5.5469 6.2812-16.234 0-10.797-6.2812-16.312-6.2656-5.5156-18.531-5.5156h-12.406v-29.297h-9.8594z"/>
</defs>
<g transform="translate(110.24 510.38) rotate(90) scale(.08 -.08)">
<use xlink:href="#t"/>
</g>
</g>
<path d="m129.49 512.35 1.8548 5.1486q0.81343 2.2579 3.0714 1.4445l7.2842-2.6242q2.2579-0.81343 1.4445-3.0714l-1.8548-5.1486q-0.81343-2.2579-3.0714-1.4445l-7.2842 2.6242q-2.2579 0.81343-1.4445 3.0714z" clip-path="url(#a)" fill="#fff" stroke="#fff"/>
<g clip-path="url(#a)">
<g transform="translate(133.32 510.97) rotate(70.188) scale(.08 -.08)">
<use xlink:href="#o"/>
</g>
</g>
<path d="m201.68 627.7v35.285q0 2.4 2.4 2.4h7.7425q2.4 0 2.4-2.4v-35.285q0-2.4-2.4-2.4h-7.7425q-2.4 0-2.4 2.4z" clip-path="url(#a)" fill="#fff" stroke="#fff"/>
<g clip-path="url(#a)">
<defs>
<path id="l" d="m-0.29688 72.906h61.672v-8.3125h-25.875v-64.594h-9.9062v64.594h-25.891z"/>
<path id="d" d="m56.203 29.594v-4.3906h-41.312q0.59375-9.2812 5.5938-14.141t13.938-4.8594q5.1719 0 10.031 1.2656t9.6562 3.8125v-8.5q-4.8438-2.0469-9.9219-3.125t-10.297-1.0781q-13.094 0-20.734 7.6094-7.6406 7.625-7.6406 20.625 0 13.422 7.25 21.297 7.25 7.8906 19.562 7.8906 11.031 0 17.453-7.1094 6.4219-7.0938 6.4219-19.297zm-8.9844 2.6406q-0.09375 7.3594-4.125 11.75-4.0312 4.4062-10.672 4.4062-7.5156 0-12.031-4.25t-5.2031-11.969z"/>
<path id="f" d="m41.109 46.297q-1.5156 0.875-3.2969 1.2812-1.7812 0.42188-3.9219 0.42188-7.625 0-11.703-4.9531t-4.0781-14.234v-28.812h-9.0312v54.688h9.0312v-8.5q2.8438 4.9844 7.375 7.3906 4.5469 2.4219 11.047 2.4219 0.92188 0 2.0469-0.125 1.125-0.10938 2.4844-0.35938z"/>
<path id="j" d="m52 44.188q3.375 6.0625 8.0625 8.9375t11.031 2.875q8.5469 0 13.188-5.9844 4.6406-5.9688 4.6406-17v-33.016h-9.0312v32.719q0 7.8594-2.7969 11.656-2.7812 3.8125-8.4844 3.8125-6.9844 0-11.047-4.6406-4.0469-4.625-4.0469-12.641v-30.906h-9.0312v32.719q0 7.9062-2.7812 11.688t-8.5938 3.7812q-6.8906 0-10.953-4.6562-4.0469-4.6562-4.0469-12.625v-30.906h-9.0312v54.688h9.0312v-8.5q3.0781 5.0312 7.375 7.4219t10.203 2.3906q5.9688 0 10.141-3.0312 4.1719-3.0156 6.1719-8.7812z"/>
<path id="g" d="m9.4219 54.688h8.9844v-54.688h-8.9844zm0 21.297h8.9844v-11.391h-8.9844z"/>
<path id="i" d="m54.891 33.016v-33.016h-8.9844v32.719q0 7.7656-3.0312 11.609-3.0312 3.8594-9.0781 3.8594-7.2812 0-11.484-4.6406-4.2031-4.625-4.2031-12.641v-30.906h-9.0312v54.688h9.0312v-8.5q3.2344 4.9375 7.5938 7.375 4.375 2.4375 10.094 2.4375 9.4219 0 14.25-5.8281 4.8438-5.8281 4.8438-17.156z"/>
<path id="h" d="m34.281 27.484q-10.891 0-15.094-2.4844t-4.2031-8.5q0-4.7812 3.1562-7.5938 3.1562-2.7969 8.5625-2.7969 7.4844 0 12 5.2969t4.5156 14.078v2zm17.922 3.7188v-31.203h-8.9844v8.2969q-3.0781-4.9688-7.6719-7.3438t-11.234-2.375q-8.3906 0-13.359 4.7188-4.9531 4.7188-4.9531 12.625 0 9.2188 6.1719 13.906 6.1875 4.6875 18.438 4.6875h12.609v0.89062q0 6.2031-4.0781 9.5938t-11.453 3.3906q-4.6875 0-9.1406-1.125-4.4375-1.125-8.5312-3.375v8.3125q4.9219 1.9062 9.5625 2.8438 4.6406 0.95312 9.0312 0.95312 11.875 0 17.734-6.1562 5.8594-6.1406 5.8594-18.641z"/>
<path id="k" d="m9.4219 75.984h8.9844v-75.984h-8.9844z"/>
</defs>
<g transform="translate(205.74 627.7) rotate(90) scale(.08 -.08)">
<use xlink:href="#l"/>
<use x="60.818359" xlink:href="#d"/>
<use x="122.341797" xlink:href="#f"/>
<use x="163.439453" xlink:href="#j"/>
<use x="260.851562" xlink:href="#g"/>
<use x="288.634766" xlink:href="#i"/>
<use x="352.013672" xlink:href="#h"/>
<use x="413.292969" xlink:href="#k"/>
</g>
</g>
<path d="m243.02 379.67 1.958 4.4085q0.97417 2.1934 3.1676 1.2192l7.076-3.1427q2.1934-0.97417 1.2192-3.1676l-1.958-4.4085q-0.97417-2.1934-3.1676-1.2192l-7.076 3.1427q-2.1934 0.97417-1.2192 3.1676z" clip-path="url(#a)" fill="#fff" stroke="#fff"/>
<g clip-path="url(#a)">
<g transform="translate(246.73 378.02) rotate(66.052) scale(.08 -.08)">
<use xlink:href="#t"/>
</g>
</g>
<path d="m195.56 449.64 1.1942-5.3406q0.52371-2.3422-1.8185-2.8659l-7.5559-1.6895q-2.3422-0.52371-2.8659 1.8185l-1.1942 5.3406q-0.52371 2.3422 1.8184 2.8659l7.5559 1.6895q2.3422 0.52371 2.8659-1.8185z" clip-path="url(#a)" fill="#fff" stroke="#fff"/>
<g clip-path="url(#a)">
<g transform="translate(191.6 448.75) rotate(-77.396) scale(.08 -.08)">
<use xlink:href="#o"/>
</g>
</g>
<path d="m371.57 375.36 0.49632 4.7981q0.24694 2.3873 2.6342 2.1403l7.7014-0.79664q2.3873-0.24694 2.1403-2.6342l-0.49632-4.7981q-0.24694-2.3873-2.6342-2.1403l-7.7014 0.79664q-2.3873 0.24694-2.1403 2.6342z" clip-path="url(#a)" fill="#fff" stroke="#fff"/>
<g clip-path="url(#a)">
<g transform="translate(375.62 374.94) rotate(84.094) scale(.08 -.08)">
<use xlink:href="#t"/>
</g>
</g>
<path d="m395.22 375.8 1.1843 5.3428q0.51938 2.3431 2.8625 1.8238l7.559-1.6755q2.3431-0.51938 1.8238-2.8625l-1.1843-5.3428q-0.51938-2.3431-2.8625-1.8238l-7.559 1.6755q-2.3431 0.51938-1.8238 2.8625z" clip-path="url(#a)" fill="#fff" stroke="#fff"/>
<g clip-path="url(#a)">
<g transform="translate(399.19 374.92) rotate(77.502) scale(.08 -.08)">
<use xlink:href="#o"/>
</g>
</g>
<path d="m431.6 246.65 4.1698 3.5442q1.8287 1.5543 3.383-0.27436l5.0143-5.8994q1.5543-1.8287-0.27436-3.383l-4.1698-3.5442q-1.8287-1.5543-3.383 0.27436l-5.0143 5.8994q-1.5543 1.8287 0.27436 3.383z" clip-path="url(#a)" fill="#fff" stroke="#fff"/>
<g clip-path="url(#a)">
<g transform="translate(434.23 243.55) rotate(40.364) scale(.08 -.08)">
<use xlink:href="#o"/>
</g>
</g>
<path d="m214.41 383 3.2095-4.4325q1.4076-1.9439-0.53635-3.3515l-6.2711-4.5408q-1.9439-1.4076-3.3515 0.53635l-3.2095 4.4325q-1.4076 1.9439 0.53635 3.3515l6.2711 4.5408q1.9439 1.4076 3.3515-0.53635z" clip-path="url(#a)" fill="#fff" stroke="#fff"/>
<g clip-path="url(#a)">
<g transform="translate(211.12 380.62) rotate(-54.092) scale(.08 -.08)">
<use xlink:href="#o"/>
</g>
</g>
<path d="m774.69 627.7v35.285q0 2.4 2.4 2.4h7.7425q2.4 0 2.4-2.4v-35.285q0-2.4-2.4-2.4h-7.7425q-2.4 0-2.4 2.4z" clip-path="url(#a)" fill="#fff" stroke="#fff"/>
<g clip-path="url(#a)">
<g transform="translate(778.75 627.7) rotate(90) scale(.08 -.08)">
<use xlink:href="#l"/>
<use x="60.818359" xlink:href="#d"/>
<use x="122.341797" xlink:href="#f"/>
<use x="163.439453" xlink:href="#j"/>
<use x="260.851562" xlink:href="#g"/>
<use x="288.634766" xlink:href="#i"/>
<use x="352.013672" xlink:href="#h"/>
<use x="413.292969" xlink:href="#k"/>
</g>
</g>
<path d="m918.31 451.29 2.9593-4.6034q1.2978-2.0188-0.72102-3.3166l-6.5128-4.1868q-2.0188-1.2978-3.3166 0.72101l-2.9593 4.6034q-1.2978 2.0188 0.72101 3.3166l6.5128 4.1868q2.0188 1.2978 3.3166-0.72102z" clip-path="url(#a)" fill="#fff" stroke="#fff"/>
<g clip-path="url(#a)">
<g transform="translate(914.89 449.1) rotate(-57.265) scale(.08 -.08)">
<use xlink:href="#o"/>
</g>
</g>
<path d="m1001.2 382.22 0.37379-4.8092q0.18598-2.3928-2.2068-2.5788l-7.7192-0.59997q-2.3928-0.18598-2.5788 2.2068l-0.37379 4.8092q-0.18598 2.3928 2.2068 2.5788l7.7192 0.59997q2.3928 0.18598 2.5788-2.2068z" clip-path="url(#a)" fill="#fff" stroke="#fff"/>
<g clip-path="url(#a)">
<g transform="translate(997.11 381.9) rotate(-85.556) scale(.08 -.08)">
<use xlink:href="#t"/>
</g>
</g>
<path d="m967.45 450.28 1.6889-5.924q0.658-2.308-1.65-2.966l-7.4458-2.1227q-2.308-0.658-2.966 1.65l-1.6889 5.924q-0.658 2.308 1.65 2.966l7.4458 2.1227q2.308 0.658 2.966-1.65z" clip-path="url(#a)" fill="#fff" stroke="#fff"/>
<g clip-path="url(#a)">
<defs>
<path id="aq" d="m19.672 64.797v-56.688h11.922q15.094 0 22.094 6.8281 7 6.8438 7 21.594 0 14.641-7 21.453t-22.094 6.8125zm-9.8594 8.1094h20.266q21.188 0 31.094-8.8125 9.9219-8.8125 9.9219-27.562 0-18.859-9.9688-27.703-9.9531-8.8281-31.047-8.8281h-20.266z"/>
</defs>
<g transform="translate(963.54 449.17) rotate(-74.088) scale(.08 -.08)">
<use xlink:href="#aq"/>
</g>
</g>
<path d="m1124.1 383.62 4.8541 2.527q2.1288 1.1082 3.237-1.0206l3.5752-6.8676q1.1082-2.1288-1.0206-3.237l-4.8541-2.527q-2.1288-1.1082-3.237 1.0206l-3.5752 6.8676q-1.1082 2.1288 1.0206 3.237z" clip-path="url(#a)" fill="#fff" stroke="#fff"/>
<g clip-path="url(#a)">
<g transform="translate(1125.9 380.02) rotate(27.501) scale(.08 -.08)">
<use xlink:href="#o"/>
</g>
</g>
<path d="m822.44 627.7v35.285q0 2.4 2.4 2.4h7.7425q2.4 0 2.4-2.4v-35.285q0-2.4-2.4-2.4h-7.7425q-2.4 0-2.4 2.4z" clip-path="url(#a)" fill="#fff" stroke="#fff"/>
<g clip-path="url(#a)">
<g transform="translate(826.5 627.7) rotate(90) scale(.08 -.08)">
<use xlink:href="#l"/>
<use x="60.818359" xlink:href="#d"/>
<use x="122.341797" xlink:href="#f"/>
<use x="163.439453" xlink:href="#j"/>
<use x="260.851562" xlink:href="#g"/>
<use x="288.634766" xlink:href="#i"/>
<use x="352.013672" xlink:href="#h"/>
<use x="413.292969" xlink:href="#k"/>
</g>
</g>
<path d="m936.44 518.62 2.9913-3.4962q1.5603-1.8236-0.26333-3.3839l-5.883-5.0335q-1.8236-1.5603-3.3839 0.26333l-2.9913 3.4962q-1.5603 1.8236 0.26333 3.3839l5.883 5.0335q1.8236 1.5603 3.3839-0.26333z" clip-path="url(#a)" fill="#fff" stroke="#fff"/>
<g clip-path="url(#a)">
<defs>
<path id="aa" d="m9.8125 72.906h41.891v-8.3125h-32.031v-21.484h28.906v-8.2969h-28.906v-34.812h-9.8594z"/>
</defs>
<g transform="translate(933.35 515.98) rotate(-49.45) scale(.08 -.08)">
<use xlink:href="#aa"/>
</g>
</g>
<path d="m986.79 516.14 0.67675-5.0095q0.32131-2.3784-2.0571-2.6997l-7.6728-1.0366q-2.3784-0.32131-2.6997 2.0571l-0.67675 5.0095q-0.32131 2.3784 2.0571 2.6997l7.6728 1.0366q2.3784 0.32131 2.6997-2.0571z" clip-path="url(#a)" fill="#fff" stroke="#fff"/>
<g clip-path="url(#a)">
<defs>
<path id="v" d="m9.8125 72.906h46.094v-8.3125h-36.234v-21.578h34.719v-8.2969h-34.719v-26.422h37.109v-8.2969h-46.969z"/>
</defs>
<g transform="translate(982.77 515.6) rotate(-82.306) scale(.08 -.08)">
<use xlink:href="#v"/>
</g>
</g>
<path d="m998.17 511.93 1.0107 4.4889q0.52718 2.3414 2.8686 1.8142l7.5534-1.7007q2.3414-0.52718 1.8142-2.8686l-1.0107-4.4889q-0.52718-2.3414-2.8686-1.8142l-7.5534 1.7007q-2.3414 0.52718-1.8142 2.8686z" clip-path="url(#a)" fill="#fff" stroke="#fff"/>
<g clip-path="url(#a)">
<g transform="translate(1002.1 511.04) rotate(77.311) scale(.08 -.08)">
<use xlink:href="#aa"/>
</g>
</g>
<path d="m1033.9 514.39 3.3957 4.4357q1.4589 1.9057 3.3646 0.44682l6.1479-4.7064q1.9057-1.4589 0.44682-3.3646l-3.3957-4.4357q-1.4589-1.9057-3.3646-0.44682l-6.1479 4.7064q-1.9057 1.4589-0.44682 3.3646z" clip-path="url(#a)" fill="#fff" stroke="#fff"/>
<g clip-path="url(#a)">
<defs>
<path id="ab" d="m64.406 67.281v-10.391q-4.9844 4.6406-10.625 6.9219-5.6406 2.2969-11.984 2.2969-12.5 0-19.141-7.6406t-6.6406-22.094q0-14.406 6.6406-22.047t19.141-7.6406q6.3438 0 11.984 2.2969t10.625 6.9375v-10.312q-5.1719-3.5156-10.969-5.2812-5.7812-1.75-12.219-1.75-16.562 0-26.094 10.125-9.5156 10.141-9.5156 27.672 0 17.578 9.5156 27.703 9.5312 10.141 26.094 10.141 6.5312 0 12.312-1.7344 5.7969-1.7344 10.875-5.2031z"/>
</defs>
<g transform="translate(1037.2 511.92) rotate(52.565) scale(.08 -.08)">
<use xlink:href="#ab"/>
</g>
</g>
<path d="m917.94 627.7v35.285q0 2.4 2.4 2.4h7.7425q2.4 0 2.4-2.4v-35.285q0-2.4-2.4-2.4h-7.7425q-2.4 0-2.4 2.4z" clip-path="url(#a)" fill="#fff" stroke="#fff"/>
<g clip-path="url(#a)">
<g transform="translate(922.01 627.7) rotate(90) scale(.08 -.08)">
<use xlink:href="#l"/>
<use x="60.818359" xlink:href="#d"/>
<use x="122.341797" xlink:href="#f"/>
<use x="163.439453" xlink:href="#j"/>
<use x="260.851562" xlink:href="#g"/>
<use x="288.634766" xlink:href="#i"/>
<use x="352.013672" xlink:href="#h"/>
<use x="413.292969" xlink:href="#k"/>
</g>
</g>
<path d="m1214.2 518.72 3.2495-4.51q1.403-1.9472-0.54424-3.3502l-6.2818-4.5261q-1.9472-1.403-3.3502 0.54424l-3.2495 4.51q-1.403 1.9472 0.54424 3.3502l6.2818 4.5261q1.9472 1.403 3.3502-0.54424z" clip-path="url(#a)" fill="#fff" stroke="#fff"/>
<g clip-path="url(#a)">
<defs>
<path id="ah" d="m44.391 34.188q3.1719-1.0781 6.1719-4.5938t6.0312-9.6719l10.016-19.922h-10.609l-9.3125 18.703q-3.625 7.3281-7.0156 9.7188t-9.25 2.3906h-10.75v-30.812h-9.8594v72.906h22.266q12.5 0 18.656-5.2344 6.1562-5.2188 6.1562-15.766 0-6.8906-3.2031-11.438-3.2031-4.5312-9.2969-6.2812zm-24.719 30.609v-25.875h12.406q7.125 0 10.766 3.2969t3.6406 9.6875-3.6406 9.6406-10.766 3.25z"/>
</defs>
<g transform="translate(1210.9 516.34) rotate(-54.227) scale(.08 -.08)">
<use xlink:href="#ah"/>
</g>
</g>
<path d="m1239.6 517.3 1.7133-4.7558q0.81343-2.2579-1.4445-3.0714l-7.2842-2.6242q-2.2579-0.81343-3.0714 1.4445l-1.7133 4.7558q-0.81343 2.2579 1.4445 3.0714l7.2842 2.6242q2.2579 0.81343 3.0714-1.4445z" clip-path="url(#a)" fill="#fff" stroke="#fff"/>
<g clip-path="url(#a)">
<g transform="translate(1235.8 515.92) rotate(-70.188) scale(.08 -.08)">
<use xlink:href="#v"/>
</g>
</g>
<path d="m1252.2 510v5.5862q0 2.4 2.4 2.4h7.7425q2.4 0 2.4-2.4v-5.5862q0-2.4-2.4-2.4h-7.7425q-2.4 0-2.4 2.4z" clip-path="url(#a)" fill="#fff" stroke="#fff"/>
<g clip-path="url(#a)">
<g transform="translate(1256.3 510) rotate(90) scale(.08 -.08)">
<use xlink:href="#ab"/>
</g>
</g>
<path d="m1275.5 512.17 1.9844 5.5085q0.81343 2.2579 3.0714 1.4445l7.2842-2.6242q2.2579-0.81343 1.4445-3.0714l-1.9844-5.5085q-0.81343-2.2579-3.0714-1.4445l-7.2842 2.6242q-2.2579 0.81343-1.4445 3.0714z" clip-path="url(#a)" fill="#fff" stroke="#fff"/>
<g clip-path="url(#a)">
<g transform="translate(1279.3 510.79) rotate(70.188) scale(.08 -.08)">
<use xlink:href="#y"/>
</g>
</g>
<path d="m1299.4 514.09 3.4227 4.7504q1.403 1.9472 3.3502 0.54424l6.2818-4.5261q1.9472-1.403 0.54424-3.3502l-3.4227-4.7504q-1.403-1.9472-3.3502-0.54424l-6.2818 4.5261q-1.9472 1.403-0.54424 3.3502z" clip-path="url(#a)" fill="#fff" stroke="#fff"/>
<g clip-path="url(#a)">
<g transform="translate(1302.7 511.71) rotate(54.227) scale(.08 -.08)">
<use xlink:href="#y"/>
</g>
</g>
<path d="m1156.7 627.7v35.285q0 2.4 2.4 2.4h7.7425q2.4 0 2.4-2.4v-35.285q0-2.4-2.4-2.4h-7.7425q-2.4 0-2.4 2.4z" clip-path="url(#a)" fill="#fff" stroke="#fff"/>
<g clip-path="url(#a)">
<g transform="translate(1160.8 627.7) rotate(90) scale(.08 -.08)">
<use xlink:href="#l"/>
<use x="60.818359" xlink:href="#d"/>
<use x="122.341797" xlink:href="#f"/>
<use x="163.439453" xlink:href="#j"/>
<use x="260.851562" xlink:href="#g"/>
<use x="288.634766" xlink:href="#i"/>
<use x="352.013672" xlink:href="#h"/>
<use x="413.292969" xlink:href="#k"/>
</g>
</g>
<path d="m1204.4 627.7v35.285q0 2.4 2.4 2.4h7.7425q2.4 0 2.4-2.4v-35.285q0-2.4-2.4-2.4h-7.7425q-2.4 0-2.4 2.4z" clip-path="url(#a)" fill="#fff" stroke="#fff"/>
<g clip-path="url(#a)">
<g transform="translate(1208.5 627.7) rotate(90) scale(.08 -.08)">
<use xlink:href="#l"/>
<use x="60.818359" xlink:href="#d"/>
<use x="122.341797" xlink:href="#f"/>
<use x="163.439453" xlink:href="#j"/>
<use x="260.851562" xlink:href="#g"/>
<use x="288.634766" xlink:href="#i"/>
<use x="352.013672" xlink:href="#h"/>
<use x="413.292969" xlink:href="#k"/>
</g>
</g>
<path d="m1252.2 627.7v35.285q0 2.4 2.4 2.4h7.7425q2.4 0 2.4-2.4v-35.285q0-2.4-2.4-2.4h-7.7425q-2.4 0-2.4 2.4z" clip-path="url(#a)" fill="#fff" stroke="#fff"/>
<g clip-path="url(#a)">
<g transform="translate(1256.3 627.7) rotate(90) scale(.08 -.08)">
<use xlink:href="#l"/>
<use x="60.818359" xlink:href="#d"/>
<use x="122.341797" xlink:href="#f"/>
<use x="163.439453" xlink:href="#j"/>
<use x="260.851562" xlink:href="#g"/>
<use x="288.634766" xlink:href="#i"/>
<use x="352.013672" xlink:href="#h"/>
<use x="413.292969" xlink:href="#k"/>
</g>
</g>
<path d="m870.19 627.7v35.285q0 2.4 2.4 2.4h7.7425q2.4 0 2.4-2.4v-35.285q0-2.4-2.4-2.4h-7.7425q-2.4 0-2.4 2.4z" clip-path="url(#a)" fill="#fff" stroke="#fff"/>
<g clip-path="url(#a)">
<g transform="translate(874.25 627.7) rotate(90) scale(.08 -.08)">
<use xlink:href="#l"/>
<use x="60.818359" xlink:href="#d"/>
<use x="122.341797" xlink:href="#f"/>
<use x="163.439453" xlink:href="#j"/>
<use x="260.851562" xlink:href="#g"/>
<use x="288.634766" xlink:href="#i"/>
<use x="352.013672" xlink:href="#h"/>
<use x="413.292969" xlink:href="#k"/>
</g>
</g>
<path d="m965.69 627.7v35.285q0 2.4 2.4 2.4h7.7425q2.4 0 2.4-2.4v-35.285q0-2.4-2.4-2.4h-7.7425q-2.4 0-2.4 2.4z" clip-path="url(#a)" fill="#fff" stroke="#fff"/>
<g clip-path="url(#a)">
<g transform="translate(969.76 627.7) rotate(90) scale(.08 -.08)">
<use xlink:href="#l"/>
<use x="60.818359" xlink:href="#d"/>
<use x="122.341797" xlink:href="#f"/>
<use x="163.439453" xlink:href="#j"/>
<use x="260.851562" xlink:href="#g"/>
<use x="288.634766" xlink:href="#i"/>
<use x="352.013672" xlink:href="#h"/>
<use x="413.292969" xlink:href="#k"/>
</g>
</g>
<path d="m1013.4 627.7v35.285q0 2.4 2.4 2.4h7.7425q2.4 0 2.4-2.4v-35.285q0-2.4-2.4-2.4h-7.7425q-2.4 0-2.4 2.4z" clip-path="url(#a)" fill="#fff" stroke="#fff"/>
<g clip-path="url(#a)">
<g transform="translate(1017.5 627.7) rotate(90) scale(.08 -.08)">
<use xlink:href="#l"/>
<use x="60.818359" xlink:href="#d"/>
<use x="122.341797" xlink:href="#f"/>
<use x="163.439453" xlink:href="#j"/>
<use x="260.851562" xlink:href="#g"/>
<use x="288.634766" xlink:href="#i"/>
<use x="352.013672" xlink:href="#h"/>
<use x="413.292969" xlink:href="#k"/>
</g>
</g>
<path d="m1082.4 663.82 6.2551-34.726q0.42546-2.362-1.9365-2.7874l-7.6199-1.3725q-2.362-0.42546-2.7874 1.9365l-6.2551 34.726q-0.42546 2.362 1.9365 2.7874l7.6199 1.3725q2.362 0.42546 2.7874-1.9365z" clip-path="url(#a)" fill="#fff" stroke="#fff"/>
<g clip-path="url(#a)">
<g transform="translate(1078.4 663.1) rotate(-79.789) scale(.08 -.08)">
<use xlink:href="#l"/>
<use x="60.818359" xlink:href="#d"/>
<use x="122.341797" xlink:href="#f"/>
<use x="163.439453" xlink:href="#j"/>
<use x="260.851562" xlink:href="#g"/>
<use x="288.634766" xlink:href="#i"/>
<use x="352.013672" xlink:href="#h"/>
<use x="413.292969" xlink:href="#k"/>
</g>
</g>
<path d="m1094 629.09 6.2551 34.726q0.42546 2.362 2.7874 1.9365l7.6199-1.3725q2.362-0.42546 1.9365-2.7874l-6.2551-34.726q-0.42546-2.362-2.7874-1.9365l-7.6199 1.3725q-2.362 0.42546-1.9365 2.7874z" clip-path="url(#a)" fill="#fff" stroke="#fff"/>
<g clip-path="url(#a)">
<g transform="translate(1098 628.37) rotate(79.789) scale(.08 -.08)">
<use xlink:href="#l"/>
<use x="60.818359" xlink:href="#d"/>
<use x="122.341797" xlink:href="#f"/>
<use x="163.439453" xlink:href="#j"/>
<use x="260.851562" xlink:href="#g"/>
<use x="288.634766" xlink:href="#i"/>
<use x="352.013672" xlink:href="#h"/>
<use x="413.292969" xlink:href="#k"/>
</g>
</g>
<path d="m392.68 627.7v35.285q0 2.4 2.4 2.4h7.7425q2.4 0 2.4-2.4v-35.285q0-2.4-2.4-2.4h-7.7425q-2.4 0-2.4 2.4z" clip-path="url(#a)" fill="#fff" stroke="#fff"/>
<g clip-path="url(#a)">
<g transform="translate(396.74 627.7) rotate(90) scale(.08 -.08)">
<use xlink:href="#l"/>
<use x="60.818359" xlink:href="#d"/>
<use x="122.341797" xlink:href="#f"/>
<use x="163.439453" xlink:href="#j"/>
<use x="260.851562" xlink:href="#g"/>
<use x="288.634766" xlink:href="#i"/>
<use x="352.013672" xlink:href="#h"/>
<use x="413.292969" xlink:href="#k"/>
</g>
</g>
<path d="m440.43 627.7v35.285q0 2.4 2.4 2.4h7.7425q2.4 0 2.4-2.4v-35.285q0-2.4-2.4-2.4h-7.7425q-2.4 0-2.4 2.4z" clip-path="url(#a)" fill="#fff" stroke="#fff"/>
<g clip-path="url(#a)">
<g transform="translate(444.5 627.7) rotate(90) scale(.08 -.08)">
<use xlink:href="#l"/>
<use x="60.818359" xlink:href="#d"/>
<use x="122.341797" xlink:href="#f"/>
<use x="163.439453" xlink:href="#j"/>
<use x="260.851562" xlink:href="#g"/>
<use x="288.634766" xlink:href="#i"/>
<use x="352.013672" xlink:href="#h"/>
<use x="413.292969" xlink:href="#k"/>
</g>
</g>
<path d="m487.86 449.87 1.4182-5.2855q0.62197-2.318-1.696-2.94l-7.478-2.0065q-2.318-0.62197-2.94 1.696l-1.4182 5.2855q-0.62197 2.318 1.696 2.94l7.478 2.0065q2.318 0.62197 2.94-1.696z" clip-path="url(#a)" fill="#fff" stroke="#fff"/>
<g clip-path="url(#a)">
<g transform="translate(483.94 448.82) rotate(-74.98) scale(.08 -.08)">
<use xlink:href="#o"/>
</g>
</g>
<path d="m512.43 448.45 0.4099-4.583q0.2138-2.3905-2.1767-2.6043l-7.7117-0.68974q-2.3905-0.2138-2.6043 2.1767l-0.4099 4.583q-0.2138 2.3905 2.1767 2.6043l7.7117 0.68974q2.3905 0.2138 2.6043-2.1767z" clip-path="url(#a)" fill="#fff" stroke="#fff"/>
<g clip-path="url(#a)">
<g transform="translate(508.39 448.09) rotate(-84.889) scale(.08 -.08)">
<use xlink:href="#aa"/>
</g>
</g>
<path d="m559.57 380.99 2.7942 3.9321q1.3902 1.9563 3.3466 0.56613l6.3113-4.4849q1.9563-1.3902 0.56613-3.3466l-2.7942-3.9321q-1.3902-1.9563-3.3466-0.56613l-6.3113 4.4849q-1.9563 1.3902-0.56613 3.3466z" clip-path="url(#a)" fill="#fff" stroke="#fff"/>
<g clip-path="url(#a)">
<g transform="translate(562.88 378.64) rotate(54.602) scale(.08 -.08)">
<use xlink:href="#t"/>
</g>
</g>
<path d="m488.18 627.7v35.285q0 2.4 2.4 2.4h7.7425q2.4 0 2.4-2.4v-35.285q0-2.4-2.4-2.4h-7.7425q-2.4 0-2.4 2.4z" clip-path="url(#a)" fill="#fff" stroke="#fff"/>
<g clip-path="url(#a)">
<g transform="translate(492.25 627.7) rotate(90) scale(.08 -.08)">
<use xlink:href="#l"/>
<use x="60.818359" xlink:href="#d"/>
<use x="122.341797" xlink:href="#f"/>
<use x="163.439453" xlink:href="#j"/>
<use x="260.851562" xlink:href="#g"/>
<use x="288.634766" xlink:href="#i"/>
<use x="352.013672" xlink:href="#h"/>
<use x="413.292969" xlink:href="#k"/>
</g>
</g>
<path d="m582.33 518 2.4032-4.4472q1.141-2.1114-0.97047-3.2524l-6.8116-3.6808q-2.1114-1.141-3.2524 0.97047l-2.4032 4.4472q-1.141 2.1114 0.97047 3.2524l6.8116 3.6808q2.1114 1.141 3.2524-0.97047z" clip-path="url(#a)" fill="#fff" stroke="#fff"/>
<g clip-path="url(#a)">
<g transform="translate(578.76 516.07) rotate(-61.614) scale(.08 -.08)">
<use xlink:href="#v"/>
</g>
</g>
<path d="m607.66 516.17 0.81568-4.5284q0.42546-2.362-1.9365-2.7874l-7.6199-1.3725q-2.362-0.42546-2.7874 1.9365l-0.81568 4.5284q-0.42546 2.362 1.9365 2.7874l7.6199 1.3725q2.362 0.42546 2.7874-1.9365z" clip-path="url(#a)" fill="#fff" stroke="#fff"/>
<g clip-path="url(#a)">
<g transform="translate(603.66 515.45) rotate(-79.789) scale(.08 -.08)">
<use xlink:href="#aa"/>
</g>
</g>
<path d="m619.15 511.42 0.89611 4.9749q0.42546 2.362 2.7874 1.9365l7.6199-1.3725q2.362-0.42545 1.9365-2.7874l-0.89611-4.9749q-0.42546-2.362-2.7874-1.9365l-7.6199 1.3725q-2.362 0.42546-1.9365 2.7874z" clip-path="url(#a)" fill="#fff" stroke="#fff"/>
<g clip-path="url(#a)">
<g transform="translate(623.15 510.7) rotate(79.789) scale(.08 -.08)">
<use xlink:href="#v"/>
</g>
</g>
<path d="m642.8 513.32 2.6557 4.9146q1.141 2.1114 3.2524 0.97047l6.8116-3.6808q2.1114-1.141 0.97047-3.2524l-2.6557-4.9146q-1.141-2.1114-3.2524-0.97047l-6.8116 3.6808q-2.1114 1.141-0.97047 3.2524z" clip-path="url(#a)" fill="#fff" stroke="#fff"/>
<g clip-path="url(#a)">
<g transform="translate(646.37 511.39) rotate(61.614) scale(.08 -.08)">
<use xlink:href="#ab"/>
</g>
</g>
<path d="m535.93 627.7v35.285q0 2.4 2.4 2.4h7.7425q2.4 0 2.4-2.4v-35.285q0-2.4-2.4-2.4h-7.7425q-2.4 0-2.4 2.4z" clip-path="url(#a)" fill="#fff" stroke="#fff"/>
<g clip-path="url(#a)">
<g transform="translate(540 627.7) rotate(90) scale(.08 -.08)">
<use xlink:href="#l"/>
<use x="60.818359" xlink:href="#d"/>
<use x="122.341797" xlink:href="#f"/>
<use x="163.439453" xlink:href="#j"/>
<use x="260.851562" xlink:href="#g"/>
<use x="288.634766" xlink:href="#i"/>
<use x="352.013672" xlink:href="#h"/>
<use x="413.292969" xlink:href="#k"/>
</g>
</g>
<path d="m583.68 627.7v35.285q0 2.4 2.4 2.4h7.7425q2.4 0 2.4-2.4v-35.285q0-2.4-2.4-2.4h-7.7425q-2.4 0-2.4 2.4z" clip-path="url(#a)" fill="#fff" stroke="#fff"/>
<g clip-path="url(#a)">
<g transform="translate(587.75 627.7) rotate(90) scale(.08 -.08)">
<use xlink:href="#l"/>
<use x="60.818359" xlink:href="#d"/>
<use x="122.341797" xlink:href="#f"/>
<use x="163.439453" xlink:href="#j"/>
<use x="260.851562" xlink:href="#g"/>
<use x="288.634766" xlink:href="#i"/>
<use x="352.013672" xlink:href="#h"/>
<use x="413.292969" xlink:href="#k"/>
</g>
</g>
<path d="m631.44 627.7v35.285q0 2.4 2.4 2.4h7.7425q2.4 0 2.4-2.4v-35.285q0-2.4-2.4-2.4h-7.7425q-2.4 0-2.4 2.4z" clip-path="url(#a)" fill="#fff" stroke="#fff"/>
<g clip-path="url(#a)">
<g transform="translate(635.5 627.7) rotate(90) scale(.08 -.08)">
<use xlink:href="#l"/>
<use x="60.818359" xlink:href="#d"/>
<use x="122.341797" xlink:href="#f"/>
<use x="163.439453" xlink:href="#j"/>
<use x="260.851562" xlink:href="#g"/>
<use x="288.634766" xlink:href="#i"/>
<use x="352.013672" xlink:href="#h"/>
<use x="413.292969" xlink:href="#k"/>
</g>
</g>
<path d="m679.19 627.7v35.285q0 2.4 2.4 2.4h7.7425q2.4 0 2.4-2.4v-35.285q0-2.4-2.4-2.4h-7.7425q-2.4 0-2.4 2.4z" clip-path="url(#a)" fill="#fff" stroke="#fff"/>
<g clip-path="url(#a)">
<g transform="translate(683.25 627.7) rotate(90) scale(.08 -.08)">
<use xlink:href="#l"/>
<use x="60.818359" xlink:href="#d"/>
<use x="122.341797" xlink:href="#f"/>
<use x="163.439453" xlink:href="#j"/>
<use x="260.851562" xlink:href="#g"/>
<use x="288.634766" xlink:href="#i"/>
<use x="352.013672" xlink:href="#h"/>
<use x="413.292969" xlink:href="#k"/>
</g>
</g>
<path d="m273.36 516.4 0.89611-4.9749q0.42546-2.362-1.9365-2.7874l-7.6199-1.3725q-2.362-0.42545-2.7874 1.9365l-0.89611 4.9749q-0.42546 2.362 1.9365 2.7874l7.6199 1.3725q2.362 0.42546 2.7874-1.9365z" clip-path="url(#a)" fill="#fff" stroke="#fff"/>
<g clip-path="url(#a)">
<g transform="translate(269.36 515.68) rotate(-79.789) scale(.08 -.08)">
<use xlink:href="#v"/>
</g>
</g>
<path d="m284.84 511.16 0.99029 5.4978q0.42546 2.362 2.7874 1.9365l7.6199-1.3725q2.362-0.42545 1.9365-2.7874l-0.99029-5.4978q-0.42546-2.362-2.7874-1.9365l-7.6199 1.3725q-2.362 0.42546-1.9365 2.7874z" clip-path="url(#a)" fill="#fff" stroke="#fff"/>
<g clip-path="url(#a)">
<g transform="translate(288.84 510.44) rotate(79.789) scale(.08 -.08)">
<use xlink:href="#ab"/>
</g>
</g>
<path d="m249.43 627.7v35.285q0 2.4 2.4 2.4h7.7425q2.4 0 2.4-2.4v-35.285q0-2.4-2.4-2.4h-7.7425q-2.4 0-2.4 2.4z" clip-path="url(#a)" fill="#fff" stroke="#fff"/>
<g clip-path="url(#a)">
<g transform="translate(253.49 627.7) rotate(90) scale(.08 -.08)">
<use xlink:href="#l"/>
<use x="60.818359" xlink:href="#d"/>
<use x="122.341797" xlink:href="#f"/>
<use x="163.439453" xlink:href="#j"/>
<use x="260.851562" xlink:href="#g"/>
<use x="288.634766" xlink:href="#i"/>
<use x="352.013672" xlink:href="#h"/>
<use x="413.292969" xlink:href="#k"/>
</g>
</g>
<path d="m297.18 627.7v35.285q0 2.4 2.4 2.4h7.7425q2.4 0 2.4-2.4v-35.285q0-2.4-2.4-2.4h-7.7425q-2.4 0-2.4 2.4z" clip-path="url(#a)" fill="#fff" stroke="#fff"/>
<g clip-path="url(#a)">
<g transform="translate(301.24 627.7) rotate(90) scale(.08 -.08)">
<use xlink:href="#l"/>
<use x="60.818359" xlink:href="#d"/>
<use x="122.341797" xlink:href="#f"/>
<use x="163.439453" xlink:href="#j"/>
<use x="260.851562" xlink:href="#g"/>
<use x="288.634766" xlink:href="#i"/>
<use x="352.013672" xlink:href="#h"/>
<use x="413.292969" xlink:href="#k"/>
</g>
</g>
<path d="m58.423 627.7v35.285q0 2.4 2.4 2.4h7.7425q2.4 0 2.4-2.4v-35.285q0-2.4-2.4-2.4h-7.7425q-2.4 0-2.4 2.4z" clip-path="url(#a)" fill="#fff" stroke="#fff"/>
<g clip-path="url(#a)">
<g transform="translate(62.487 627.7) rotate(90) scale(.08 -.08)">
<use xlink:href="#l"/>
<use x="60.818359" xlink:href="#d"/>
<use x="122.341797" xlink:href="#f"/>
<use x="163.439453" xlink:href="#j"/>
<use x="260.851562" xlink:href="#g"/>
<use x="288.634766" xlink:href="#i"/>
<use x="352.013672" xlink:href="#h"/>
<use x="413.292969" xlink:href="#k"/>
</g>
</g>
<path d="m106.17 627.7v35.285q0 2.4 2.4 2.4h7.7425q2.4 0 2.4-2.4v-35.285q0-2.4-2.4-2.4h-7.7425q-2.4 0-2.4 2.4z" clip-path="url(#a)" fill="#fff" stroke="#fff"/>
<g clip-path="url(#a)">
<g transform="translate(110.24 627.7) rotate(90) scale(.08 -.08)">
<use xlink:href="#l"/>
<use x="60.818359" xlink:href="#d"/>
<use x="122.341797" xlink:href="#f"/>
<use x="163.439453" xlink:href="#j"/>
<use x="260.851562" xlink:href="#g"/>
<use x="288.634766" xlink:href="#i"/>
<use x="352.013672" xlink:href="#h"/>
<use x="413.292969" xlink:href="#k"/>
</g>
</g>
<path d="m153.93 627.7v35.285q0 2.4 2.4 2.4h7.7425q2.4 0 2.4-2.4v-35.285q0-2.4-2.4-2.4h-7.7425q-2.4 0-2.4 2.4z" clip-path="url(#a)" fill="#fff" stroke="#fff"/>
<g clip-path="url(#a)">
<g transform="translate(157.99 627.7) rotate(90) scale(.08 -.08)">
<use xlink:href="#l"/>
<use x="60.818359" xlink:href="#d"/>
<use x="122.341797" xlink:href="#f"/>
<use x="163.439453" xlink:href="#j"/>
<use x="260.851562" xlink:href="#g"/>
<use x="288.634766" xlink:href="#i"/>
<use x="352.013672" xlink:href="#h"/>
<use x="413.292969" xlink:href="#k"/>
</g>
</g>
<path d="m532.67 112.75 9.2413-3.6405q2.233-0.87966 1.3533-3.1126l-2.8378-7.2037q-0.87966-2.233-3.1126-1.3533l-9.2413 3.6405q-2.233 0.87966-1.3533 3.1126l2.8378 7.2037q0.87965 2.233 3.1126 1.3533z" clip-path="url(#a)" fill="#fff" stroke="#fff"/>
<g clip-path="url(#a)">
<g transform="translate(531.18 108.97) rotate(-21.501) scale(.08 -.08)">
<use xlink:href="#r"/>
<use x="55.744141" xlink:href="#o"/>
</g>
</g>
<path d="m740.04 302.87 1.2449 9.9386q0.29829 2.3814 2.6797 2.0831l7.6825-0.96231q2.3814-0.29829 2.0831-2.6797l-1.2449-9.9386q-0.29829-2.3814-2.6797-2.0831l-7.6825 0.96231q-2.3814 0.29829-2.0831 2.6797z" clip-path="url(#a)" fill="#fff" stroke="#fff"/>
<g clip-path="url(#a)">
<g transform="translate(744.07 302.36) rotate(82.86) scale(.08 -.08)">
<use xlink:href="#r"/>
<use x="55.712891" xlink:href="#ah"/>
</g>
</g>
<path d="m848.64 174.66 7.1517 6.8926q1.7281 1.6655 3.3935-0.062619l5.3728-5.5748q1.6655-1.7281-0.06262-3.3935l-7.1517-6.8926q-1.7281-1.6655-3.3935 0.06262l-5.3728 5.5748q-1.6655 1.7281 0.06262 3.3935z" clip-path="url(#a)" fill="#fff" stroke="#fff"/>
<g clip-path="url(#a)">
<g transform="translate(851.46 171.73) rotate(43.943) scale(.08 -.08)">
<use xlink:href="#r"/>
<use x="55.744141" xlink:href="#o"/>
</g>
</g>
<path d="m151.15 317.17 2.4024-9.6376q0.5805-2.3287-1.7482-2.9092l-7.5126-1.8727q-2.3287-0.5805-2.9092 1.7482l-2.4024 9.6376q-0.5805 2.3287 1.7482 2.9092l7.5126 1.8727q2.3287 0.5805 2.9092-1.7482z" clip-path="url(#a)" fill="#fff" stroke="#fff"/>
<g clip-path="url(#a)">
<g transform="translate(147.21 316.19) rotate(-76.003) scale(.08 -.08)">
<use xlink:href="#r"/>
<use x="55.744141" xlink:href="#o"/>
</g>
</g>
<path d="m187.42 372.54 0.68909 9.9925q0.16511 2.3943 2.5594 2.2292l7.7242-0.53266q2.3943-0.16511 2.2292-2.5594l-0.68909-9.9925q-0.16511-2.3943-2.5594-2.2292l-7.7242 0.53266q-2.3943 0.16511-2.2292 2.5594z" clip-path="url(#a)" fill="#fff" stroke="#fff"/>
<g clip-path="url(#a)">
<g transform="translate(191.47 372.27) rotate(86.055) scale(.08 -.08)">
<use xlink:href="#r"/>
<use x="55.712891" xlink:href="#ah"/>
</g>
</g>
<path d="m192.58 240.62 2.7708 9.5382q0.66952 2.3047 2.9742 1.6352l7.4351-2.1599q2.3047-0.66952 1.6352-2.9742l-2.7708-9.5382q-0.66952-2.3047-2.9742-1.6352l-7.4351 2.1599q-2.3047 0.66952-1.6352 2.9742z" clip-path="url(#a)" fill="#fff" stroke="#fff"/>
<g clip-path="url(#a)">
<g transform="translate(196.48 239.49) rotate(73.802) scale(.08 -.08)">
<use xlink:href="#r"/>
<use x="55.744141" xlink:href="#o"/>
</g>
</g>
<path d="m344.93 627.7v35.285q0 2.4 2.4 2.4h7.7425q2.4 0 2.4-2.4v-35.285q0-2.4-2.4-2.4h-7.7425q-2.4 0-2.4 2.4z" clip-path="url(#a)" fill="#fff" stroke="#fff"/>
<g clip-path="url(#a)">
<g transform="translate(348.99 627.7) rotate(90) scale(.08 -.08)">
<use xlink:href="#l"/>
<use x="60.818359" xlink:href="#d"/>
<use x="122.341797" xlink:href="#f"/>
<use x="163.439453" xlink:href="#j"/>
<use x="260.851562" xlink:href="#g"/>
<use x="288.634766" xlink:href="#i"/>
<use x="352.013672" xlink:href="#h"/>
<use x="413.292969" xlink:href="#k"/>
</g>
</g>
<path d="m726.94 627.7v35.285q0 2.4 2.4 2.4h7.7425q2.4 0 2.4-2.4v-35.285q0-2.4-2.4-2.4h-7.7425q-2.4 0-2.4 2.4z" clip-path="url(#a)" fill="#fff" stroke="#fff"/>
<g clip-path="url(#a)">
<g transform="translate(731 627.7) rotate(90) scale(.08 -.08)">
<use xlink:href="#l"/>
<use x="60.818359" xlink:href="#d"/>
<use x="122.341797" xlink:href="#f"/>
<use x="163.439453" xlink:href="#j"/>
<use x="260.851562" xlink:href="#g"/>
<use x="288.634766" xlink:href="#i"/>
<use x="352.013672" xlink:href="#h"/>
<use x="413.292969" xlink:href="#k"/>
</g>
</g>
<path d="m1299.9 627.7v35.285q0 2.4 2.4 2.4h7.7425q2.4 0 2.4-2.4v-35.285q0-2.4-2.4-2.4h-7.7425q-2.4 0-2.4 2.4z" clip-path="url(#a)" fill="#fff" stroke="#fff"/>
<g clip-path="url(#a)">
<g transform="translate(1304 627.7) rotate(90) scale(.08 -.08)">
<use xlink:href="#l"/>
<use x="60.818359" xlink:href="#d"/>
<use x="122.341797" xlink:href="#f"/>
<use x="163.439453" xlink:href="#j"/>
<use x="260.851562" xlink:href="#g"/>
<use x="288.634766" xlink:href="#i"/>
<use x="352.013672" xlink:href="#h"/>
<use x="413.292969" xlink:href="#k"/>
</g>
</g>
<path d="m1347.7 627.7v35.285q0 2.4 2.4 2.4h7.7425q2.4 0 2.4-2.4v-35.285q0-2.4-2.4-2.4h-7.7425q-2.4 0-2.4 2.4z" clip-path="url(#a)" fill="#fff" stroke="#fff"/>
<g clip-path="url(#a)">
<g transform="translate(1351.8 627.7) rotate(90) scale(.08 -.08)">
<use xlink:href="#l"/>
<use x="60.818359" xlink:href="#d"/>
<use x="122.341797" xlink:href="#f"/>
<use x="163.439453" xlink:href="#j"/>
<use x="260.851562" xlink:href="#g"/>
<use x="288.634766" xlink:href="#i"/>
<use x="352.013672" xlink:href="#h"/>
<use x="413.292969" xlink:href="#k"/>
</g>
</g>
<defs>
<path id="b" d="m0 8.6603c2.2967 0 4.4997-0.9125 6.1237-2.5365 1.624-1.624 2.5365-3.827 2.5365-6.1237s-0.9125-4.4997-2.5365-6.1237c-1.624-1.624-3.827-2.5365-6.1237-2.5365s-4.4997 0.9125-6.1237 2.5365c-1.624 1.624-2.5365 3.827-2.5365 6.1237s0.9125 4.4997 2.5365 6.1237c1.624 1.624 3.827 2.5365 6.1237 2.5365z"/>
</defs>
<g clip-path="url(#a)">
<use x="64.694726" y="711.620361" fill="#ffffff" stroke="#ffffff" xlink:href="#b"/>
</g>
<g clip-path="url(#a)">
<use x="112.445734" y="711.620361" fill="#ffffff" stroke="#ffffff" xlink:href="#b"/>
</g>
<g clip-path="url(#a)">
<use x="160.196742" y="711.620361" fill="#ffffff" stroke="#ffffff" xlink:href="#b"/>
</g>
<g clip-path="url(#a)">
<use x="207.94775" y="711.620361" fill="#ffffff" stroke="#ffffff" xlink:href="#b"/>
</g>
<g clip-path="url(#a)">
<use x="255.698758" y="711.620361" fill="#ffffff" stroke="#ffffff" xlink:href="#b"/>
</g>
<g clip-path="url(#a)">
<use x="303.449766" y="711.620361" fill="#ffffff" stroke="#ffffff" xlink:href="#b"/>
</g>
<g clip-path="url(#a)">
<use x="351.200774" y="711.620361" fill="#ffffff" stroke="#ffffff" xlink:href="#b"/>
</g>
<g clip-path="url(#a)">
<use x="398.951782" y="711.620361" fill="#ffffff" stroke="#ffffff" xlink:href="#b"/>
</g>
<g clip-path="url(#a)">
<use x="446.702789" y="711.620361" fill="#ffffff" stroke="#ffffff" xlink:href="#b"/>
</g>
<g clip-path="url(#a)">
<use x="494.453797" y="711.620361" fill="#ffffff" stroke="#ffffff" xlink:href="#b"/>
</g>
<g clip-path="url(#a)">
<use x="542.204805" y="711.620361" fill="#ffffff" stroke="#ffffff" xlink:href="#b"/>
</g>
<g clip-path="url(#a)">
<use x="589.955813" y="711.620361" fill="#ffffff" stroke="#ffffff" xlink:href="#b"/>
</g>
<g clip-path="url(#a)">
<use x="637.706821" y="711.620361" fill="#ffffff" stroke="#ffffff" xlink:href="#b"/>
</g>
<g clip-path="url(#a)">
<use x="685.457829" y="711.620361" fill="#ffffff" stroke="#ffffff" xlink:href="#b"/>
</g>
<g clip-path="url(#a)">
<use x="733.208837" y="711.620361" fill="#ffffff" stroke="#ffffff" xlink:href="#b"/>
</g>
<g clip-path="url(#a)">
<use x="780.959845" y="711.620361" fill="#ffffff" stroke="#ffffff" xlink:href="#b"/>
</g>
<g clip-path="url(#a)">
<use x="828.710853" y="711.620361" fill="#ffffff" stroke="#ffffff" xlink:href="#b"/>
</g>
<g clip-path="url(#a)">
<use x="876.461861" y="711.620361" fill="#ffffff" stroke="#ffffff" xlink:href="#b"/>
</g>
<g clip-path="url(#a)">
<use x="924.212869" y="711.620361" fill="#ffffff" stroke="#ffffff" xlink:href="#b"/>
</g>
<g clip-path="url(#a)">
<use x="971.963877" y="711.620361" fill="#ffffff" stroke="#ffffff" xlink:href="#b"/>
</g>
<g clip-path="url(#a)">
<use x="1019.714885" y="711.620361" fill="#ffffff" stroke="#ffffff" xlink:href="#b"/>
</g>
<g clip-path="url(#a)">
<use x="1067.465893" y="711.620361" fill="#ffffff" stroke="#ffffff" xlink:href="#b"/>
</g>
<g clip-path="url(#a)">
<use x="1115.216901" y="711.620361" fill="#ffffff" stroke="#ffffff" xlink:href="#b"/>
</g>
<g clip-path="url(#a)">
<use x="1162.967909" y="711.620361" fill="#ffffff" stroke="#ffffff" xlink:href="#b"/>
</g>
<g clip-path="url(#a)">
<use x="1210.718917" y="711.620361" fill="#ffffff" stroke="#ffffff" xlink:href="#b"/>
</g>
<g clip-path="url(#a)">
<use x="1258.469925" y="711.620361" fill="#ffffff" stroke="#ffffff" xlink:href="#b"/>
</g>
<g clip-path="url(#a)">
<use x="1306.220933" y="711.620361" fill="#ffffff" stroke="#ffffff" xlink:href="#b"/>
</g>
<g clip-path="url(#a)">
<use x="1353.971941" y="711.620361" fill="#ffffff" stroke="#ffffff" xlink:href="#b"/>
</g>
<g clip-path="url(#a)">
<use x="470.391766" y="35.046306" fill="#ffffff" stroke="#ffffff" xlink:href="#b"/>
</g>
<g clip-path="url(#a)">
<use x="112.445734" y="446.52215" fill="#ffffff" stroke="#ffffff" xlink:href="#b"/>
</g>
<g clip-path="url(#a)">
<use x="207.94775" y="579.071255" fill="#ffffff" stroke="#ffffff" xlink:href="#b"/>
</g>
<g clip-path="url(#a)">
<use x="219.885502" y="312.129141" fill="#ffffff" stroke="#ffffff" xlink:href="#b"/>
</g>
<g clip-path="url(#a)">
<use x="357.16965" y="175.148294" fill="#ffffff" stroke="#ffffff" xlink:href="#b"/>
</g>
<g clip-path="url(#a)">
<use x="780.959845" y="579.071255" fill="#ffffff" stroke="#ffffff" xlink:href="#b"/>
</g>
<g clip-path="url(#a)">
<use x="1000.316038" y="312.129141" fill="#ffffff" stroke="#ffffff" xlink:href="#b"/>
</g>
<g clip-path="url(#a)">
<use x="828.710853" y="579.071255" fill="#ffffff" stroke="#ffffff" xlink:href="#b"/>
</g>
<g clip-path="url(#a)">
<use x="989.870505" y="446.52215" fill="#ffffff" stroke="#ffffff" xlink:href="#b"/>
</g>
<g clip-path="url(#a)">
<use x="924.212869" y="579.071255" fill="#ffffff" stroke="#ffffff" xlink:href="#b"/>
</g>
<g clip-path="url(#a)">
<use x="1258.469925" y="446.52215" fill="#ffffff" stroke="#ffffff" xlink:href="#b"/>
</g>
<g clip-path="url(#a)">
<use x="1162.967909" y="579.071255" fill="#ffffff" stroke="#ffffff" xlink:href="#b"/>
</g>
<g clip-path="url(#a)">
<use x="1210.718917" y="579.071255" fill="#ffffff" stroke="#ffffff" xlink:href="#b"/>
</g>
<g clip-path="url(#a)">
<use x="1258.469925" y="579.071255" fill="#ffffff" stroke="#ffffff" xlink:href="#b"/>
</g>
<g clip-path="url(#a)">
<use x="876.461861" y="579.071255" fill="#ffffff" stroke="#ffffff" xlink:href="#b"/>
</g>
<g clip-path="url(#a)">
<use x="971.963877" y="579.071255" fill="#ffffff" stroke="#ffffff" xlink:href="#b"/>
</g>
<g clip-path="url(#a)">
<use x="1019.714885" y="579.071255" fill="#ffffff" stroke="#ffffff" xlink:href="#b"/>
</g>
<g clip-path="url(#a)">
<use x="1091.341397" y="579.071255" fill="#ffffff" stroke="#ffffff" xlink:href="#b"/>
</g>
<g clip-path="url(#a)">
<use x="398.951782" y="579.071255" fill="#ffffff" stroke="#ffffff" xlink:href="#b"/>
</g>
<g clip-path="url(#a)">
<use x="446.702789" y="579.071255" fill="#ffffff" stroke="#ffffff" xlink:href="#b"/>
</g>
<g clip-path="url(#a)">
<use x="518.329301" y="312.129141" fill="#ffffff" stroke="#ffffff" xlink:href="#b"/>
</g>
<g clip-path="url(#a)">
<use x="494.453797" y="579.071255" fill="#ffffff" stroke="#ffffff" xlink:href="#b"/>
</g>
<g clip-path="url(#a)">
<use x="613.831317" y="446.52215" fill="#ffffff" stroke="#ffffff" xlink:href="#b"/>
</g>
<g clip-path="url(#a)">
<use x="542.204805" y="579.071255" fill="#ffffff" stroke="#ffffff" xlink:href="#b"/>
</g>
<g clip-path="url(#a)">
<use x="589.955813" y="579.071255" fill="#ffffff" stroke="#ffffff" xlink:href="#b"/>
</g>
<g clip-path="url(#a)">
<use x="637.706821" y="579.071255" fill="#ffffff" stroke="#ffffff" xlink:href="#b"/>
</g>
<g clip-path="url(#a)">
<use x="685.457829" y="579.071255" fill="#ffffff" stroke="#ffffff" xlink:href="#b"/>
</g>
<g clip-path="url(#a)">
<use x="279.574262" y="446.52215" fill="#ffffff" stroke="#ffffff" xlink:href="#b"/>
</g>
<g clip-path="url(#a)">
<use x="255.698758" y="579.071255" fill="#ffffff" stroke="#ffffff" xlink:href="#b"/>
</g>
<g clip-path="url(#a)">
<use x="303.449766" y="579.071255" fill="#ffffff" stroke="#ffffff" xlink:href="#b"/>
</g>
<g clip-path="url(#a)">
<use x="64.694726" y="579.071255" fill="#ffffff" stroke="#ffffff" xlink:href="#b"/>
</g>
<g clip-path="url(#a)">
<use x="112.445734" y="579.071255" fill="#ffffff" stroke="#ffffff" xlink:href="#b"/>
</g>
<g clip-path="url(#a)">
<use x="160.196742" y="579.071255" fill="#ffffff" stroke="#ffffff" xlink:href="#b"/>
</g>
<g clip-path="url(#a)">
<use x="712.815178" y="35.046306" fill="#808080" stroke="#808080" xlink:href="#b"/>
</g>
<g clip-path="url(#a)">
<use x="180.092995" y="175.148294" fill="#808080" stroke="#808080" xlink:href="#b"/>
</g>
<g clip-path="url(#a)">
<use x="351.200774" y="579.071255" fill="#ffffff" stroke="#ffffff" xlink:href="#b"/>
</g>
<g clip-path="url(#a)">
<use x="733.208837" y="579.071255" fill="#ffffff" stroke="#ffffff" xlink:href="#b"/>
</g>
<g clip-path="url(#a)">
<use x="1306.220933" y="579.071255" fill="#ffffff" stroke="#ffffff" xlink:href="#b"/>
</g>
<g clip-path="url(#a)">
<use x="1353.971941" y="579.071255" fill="#ffffff" stroke="#ffffff" xlink:href="#b"/>
</g>
<g clip-path="url(#a)">
<defs>
<path id="ar" d="m19.672 34.812v-26.703h15.828q7.9531 0 11.781 3.2969 3.8438 3.2969 3.8438 10.078 0 6.8438-3.8438 10.078-3.8281 3.25-11.781 3.25zm0 29.984v-21.969h14.609q7.2188 0 10.75 2.7031 3.5469 2.7188 3.5469 8.2812 0 5.5156-3.5469 8.25-3.5312 2.7344-10.75 2.7344zm-9.8594 8.1094h25.203q11.281 0 17.375-4.6875 6.1094-4.6875 6.1094-13.328 0-6.7031-3.125-10.656t-9.1875-4.9219q7.2812-1.5625 11.312-6.5312 4.0312-4.9531 4.0312-12.375 0-9.7656-6.6406-15.094-6.6406-5.3125-18.906-5.3125h-26.172z"/>
<path id="s" d="m30.609 48.391q-7.2188 0-11.422-5.6406t-4.2031-15.453 4.1719-15.453q4.1875-5.6406 11.453-5.6406 7.1875 0 11.375 5.6562 4.2031 5.6719 4.2031 15.438 0 9.7188-4.2031 15.406-4.1875 5.6875-11.375 5.6875zm0 7.6094q11.719 0 18.406-7.625 6.7031-7.6094 6.7031-21.078 0-13.422-6.7031-21.078-6.6875-7.6406-18.406-7.6406-11.766 0-18.438 7.6406-6.6562 7.6562-6.6562 21.078 0 13.469 6.6562 21.078 6.6719 7.625 18.438 7.625z"/>
<path id="ag" d="m45.406 46.391v29.594h8.9844v-75.984h-8.9844v8.2031q-2.8281-4.875-7.1562-7.25-4.3125-2.375-10.375-2.375-9.9062 0-16.141 7.9062-6.2188 7.9219-6.2188 20.812t6.2188 20.797q6.2344 7.9062 16.141 7.9062 6.0625 0 10.375-2.375 4.3281-2.3594 7.1562-7.2344zm-30.609-19.094q0-9.9062 4.0781-15.547t11.203-5.6406 11.219 5.6406q4.1094 5.6406 4.1094 15.547t-4.1094 15.547q-4.0938 5.6406-11.219 5.6406t-11.203-5.6406-4.0781-15.547z"/>
</defs>
<g transform="translate(51.862 714.38) scale(.1 -.1)">
<use xlink:href="#ar"/>
<use x="68.603516" xlink:href="#s"/>
<use x="129.785156" xlink:href="#i"/>
<use x="193.164062" xlink:href="#ag"/>
</g>
</g>
<g clip-path="url(#a)">
<defs>
<path id="au" d="m9.4219 54.688h8.9844v-55.672q0-10.438-3.9844-15.125-3.9688-4.6875-12.812-4.6875h-3.4219v7.6094h2.4062q5.125 0 6.9688 2.375 1.8594 2.3594 1.8594 9.8281zm0 21.297h8.9844v-11.391h-8.9844z"/>
<path id="x" d="m48.781 52.594v-8.4062q-3.8125 2.1094-7.6406 3.1562t-7.7344 1.0469q-8.75 0-13.594-5.5469-4.8281-5.5312-4.8281-15.547t4.8281-15.562q4.8438-5.5312 13.594-5.5312 3.9062 0 7.7344 1.0469t7.6406 3.1562v-8.3125q-3.7656-1.75-7.7969-2.625-4.0156-0.89062-8.5625-0.89062-12.359 0-19.641 7.7656-7.2656 7.7656-7.2656 20.953 0 13.375 7.3438 21.031 7.3594 7.6719 20.156 7.6719 4.1406 0 8.0938-0.85938 3.9531-0.84375 7.6719-2.5469z"/>
<path id="p" d="m18.312 70.219v-15.531h18.5v-6.9844h-18.5v-29.688q0-6.6875 1.8281-8.5938t7.4531-1.9062h9.2188v-7.5156h-9.2188q-10.406 0-14.359 3.875-3.9531 3.8906-3.9531 14.141v29.688h-6.5938v6.9844h6.5938v15.531z"/>
</defs>
<g transform="translate(91.889 714.38) scale(.1 -.1)">
<use xlink:href="#f"/>
<use x="41.082031" xlink:href="#d"/>
<use x="102.605469" xlink:href="#au"/>
<use x="130.388672" xlink:href="#d"/>
<use x="191.912109" xlink:href="#x"/>
<use x="246.892578" xlink:href="#p"/>
<use x="286.101562" xlink:href="#d"/>
<use x="347.625" xlink:href="#ag"/>
</g>
</g>
<g clip-path="url(#a)">
<defs>
<path id="av" d="m54.891 33.016v-33.016h-8.9844v32.719q0 7.7656-3.0312 11.609-3.0312 3.8594-9.0781 3.8594-7.2812 0-11.484-4.6406-4.2031-4.625-4.2031-12.641v-30.906h-9.0312v75.984h9.0312v-29.797q3.2344 4.9375 7.5938 7.375 4.375 2.4375 10.094 2.4375 9.4219 0 14.25-5.8281 4.8438-5.8281 4.8438-17.156z"/>
</defs>
<g transform="translate(150.77 714.38) scale(.1 -.1)">
<use xlink:href="#av"/>
<use x="63.378906" xlink:href="#g"/>
<use x="91.162109" xlink:href="#j"/>
</g>
</g>
<g clip-path="url(#a)">
<defs>
<path id="aw" d="m37.109 75.984v-7.4844h-8.5938q-4.8281 0-6.7188-1.9531-1.875-1.9531-1.875-7.0312v-4.8281h14.797v-6.9844h-14.797v-47.703h-9.0312v47.703h-8.5938v6.9844h8.5938v3.8125q0 9.125 4.25 13.297 4.25 4.1875 13.469 4.1875z"/>
</defs>
<g transform="translate(196.03 714.38) scale(.1 -.1)">
<use xlink:href="#h"/>
<use x="61.279297" xlink:href="#aw"/>
<use x="96.46875" xlink:href="#p"/>
<use x="135.677734" xlink:href="#d"/>
<use x="197.201172" xlink:href="#f"/>
</g>
</g>
<g clip-path="url(#a)">
<g transform="translate(252.63 714.38) scale(.1 -.1)">
<use xlink:href="#h"/>
</g>
</g>
<g clip-path="url(#a)">
<defs>
<path id="ak" d="m32.172-5.0781q-3.7969-9.7656-7.4219-12.734-3.6094-2.9844-9.6562-2.9844h-7.1875v7.5156h5.2812q3.7031 0 5.75 1.7656 2.0625 1.75 4.5469 8.2969l1.6094 4.0938-22.109 53.812h9.5156l17.094-42.766 17.094 42.766h9.5156z"/>
<path id="af" d="m8.5 21.578v33.109h8.9844v-32.766q0-7.7656 3.0156-11.656 3.0312-3.875 9.0938-3.875 7.2656 0 11.484 4.6406 4.2344 4.6406 4.2344 12.656v31h8.9844v-54.688h-8.9844v8.4062q-3.2656-4.9844-7.5938-7.4062-4.3125-2.4219-10.031-2.4219-9.4219 0-14.312 5.8594-4.875 5.8594-4.875 17.141z"/>
</defs>
<g transform="translate(288.29 714.38) scale(.1 -.1)">
<use xlink:href="#p"/>
<use x="39.208984" xlink:href="#f"/>
<use x="80.322266" xlink:href="#ak"/>
<use x="139.501953" xlink:href="#s"/>
<use x="200.683594" xlink:href="#af"/>
<use x="264.0625" xlink:href="#p"/>
</g>
</g>
<g clip-path="url(#a)">
<defs>
<path id="as" d="m11.719 12.406h10.297v-8.4062l-8-15.625h-6.2969l4 15.625z"/>
</defs>
<g transform="translate(349.61 714.38) scale(.1 -.1)">
<use xlink:href="#as"/>
</g>
</g>
<g clip-path="url(#a)">
<defs>
<path id="al" d="m2.9844 54.688h9.5156l17.094-45.891 17.094 45.891h9.5156l-20.516-54.688h-12.203z"/>
<path id="u" d="m44.281 53.078v-8.5q-3.7969 1.9531-7.9062 2.9219-4.0938 0.98438-8.5 0.98438-6.6875 0-10.031-2.0469t-3.3438-6.1562q0-3.125 2.3906-4.9062t9.625-3.3906l3.0781-0.6875q9.5625-2.0469 13.594-5.7812t4.0312-10.422q0-7.625-6.0312-12.078-6.0312-4.4375-16.578-4.4375-4.3906 0-9.1562 0.85938t-10.031 2.5625v9.2812q4.9844-2.5938 9.8125-3.8906 4.8281-1.2812 9.5781-1.2812 6.3438 0 9.75 2.1719 3.4219 2.1719 3.4219 6.125 0 3.6562-2.4688 5.6094-2.4531 1.9531-10.812 3.7656l-3.125 0.73438q-8.3438 1.75-12.062 5.3906-3.7031 3.6406-3.7031 9.9844 0 7.7188 5.4688 11.906 5.4688 4.2031 15.531 4.2031 4.9688 0 9.3594-0.73438 4.4062-0.71875 8.1094-2.1875z"/>
<path id="w" d="m45.406 27.984q0 9.7656-4.0312 15.125-4.0156 5.375-11.297 5.375-7.2188 0-11.25-5.375-4.0312-5.3594-4.0312-15.125 0-9.7188 4.0312-15.094t11.25-5.375q7.2812 0 11.297 5.375 4.0312 5.375 4.0312 15.094zm8.9844-21.203q0-13.953-6.2031-20.766-6.1875-6.8125-18.984-6.8125-4.7344 0-8.9375 0.70312t-8.1562 2.1719v8.7344q3.9531-2.1406 7.8125-3.1562 3.8594-1.0312 7.8594-1.0312 8.8438 0 13.234 4.6094t4.3906 13.938v4.4531q-2.7812-4.8438-7.125-7.2344t-10.406-2.3906q-10.047 0-16.203 7.6562-6.1562 7.6719-6.1562 20.328 0 12.688 6.1562 20.344 6.1562 7.6719 16.203 7.6719 6.0625 0 10.406-2.3906t7.125-7.2188v8.2969h8.9844z"/>
</defs>
<g transform="translate(378.03 714.38) scale(.1 -.1)">
<use xlink:href="#h"/>
<use x="61.279297" xlink:href="#ag"/>
<use x="124.755859" xlink:href="#al"/>
<use x="183.935547" xlink:href="#g"/>
<use x="211.71875" xlink:href="#u"/>
<use x="263.818359" xlink:href="#g"/>
<use x="291.601562" xlink:href="#i"/>
<use x="354.980469" xlink:href="#w"/>
</g>
</g>
<g clip-path="url(#a)">
<g transform="translate(428.53 714.38) scale(.1 -.1)">
<use xlink:href="#t"/>
<use x="60.287109" xlink:href="#f"/>
<use x="101.369141" xlink:href="#d"/>
<use x="162.892578" xlink:href="#u"/>
<use x="214.992188" xlink:href="#k"/>
<use x="242.775391" xlink:href="#d"/>
<use x="304.298828" xlink:href="#ak"/>
</g>
</g>
<g clip-path="url(#a)">
<g transform="translate(489.43 714.38) scale(.1 -.1)">
<use xlink:href="#p"/>
<use x="39.208984" xlink:href="#s"/>
</g>
</g>
<g clip-path="url(#a)">
<defs>
<path id="am" d="m9.0781 75.984h9.0312v-44.875l26.812 23.578h11.469l-29-25.578 30.234-29.109h-11.719l-27.797 26.703v-26.703h-9.0312z"/>
</defs>
<g transform="translate(530.61 714.38) scale(.1 -.1)">
<use xlink:href="#u"/>
<use x="52.099609" xlink:href="#p"/>
<use x="91.308594" xlink:href="#g"/>
<use x="119.091797" xlink:href="#x"/>
<use x="174.072266" xlink:href="#am"/>
</g>
</g>
<g clip-path="url(#a)">
<g transform="translate(584.94 714.38) scale(.1 -.1)">
<use xlink:href="#p"/>
<use x="39.208984" xlink:href="#s"/>
</g>
</g>
<g clip-path="url(#a)">
<g transform="translate(624.88 714.38) scale(.1 -.1)">
<use xlink:href="#p"/>
<use x="39.208984" xlink:href="#f"/>
<use x="80.322266" xlink:href="#af"/>
<use x="143.701172" xlink:href="#x"/>
<use x="198.681641" xlink:href="#am"/>
</g>
</g>
<g clip-path="url(#a)">
<g transform="translate(668.15 714.38) scale(.1 -.1)">
<use xlink:href="#ag"/>
<use x="63.476562" xlink:href="#f"/>
<use x="104.589844" xlink:href="#g"/>
<use x="132.373047" xlink:href="#al"/>
<use x="191.552734" xlink:href="#g"/>
<use x="219.335938" xlink:href="#i"/>
<use x="282.714844" xlink:href="#w"/>
</g>
</g>
<g clip-path="url(#a)">
<defs>
<path id="ao" d="m17.922 72.906v-27.109h-8.2969v27.109zm18.453 0v-27.109h-8.2969v27.109z"/>
</defs>
<g transform="translate(730.91 714.38) scale(.1 -.1)">
<use xlink:href="#ao"/>
</g>
</g>
<g clip-path="url(#a)">
<defs>
<path id="ap" d="m48.688 27.297q0 9.9062-4.0781 15.547t-11.203 5.6406q-7.1406 0-11.219-5.6406t-4.0781-15.547 4.0781-15.547 11.219-5.6406q7.125 0 11.203 5.6406t4.0781 15.547zm-30.578 19.094q2.8438 4.875 7.1562 7.2344 4.3281 2.375 10.328 2.375 9.9688 0 16.188-7.9062 6.2344-7.9062 6.2344-20.797t-6.2344-20.812q-6.2188-7.9062-16.188-7.9062-6 0-10.328 2.375-4.3125 2.375-7.1562 7.25v-8.2031h-9.0312v75.984h9.0312z"/>
</defs>
<g transform="translate(760.05 714.38) scale(.1 -.1)">
<use xlink:href="#ap"/>
<use x="63.476562" xlink:href="#d"/>
<use x="125" xlink:href="#x"/>
<use x="179.980469" xlink:href="#h"/>
<use x="241.259766" xlink:href="#af"/>
<use x="304.638672" xlink:href="#u"/>
<use x="356.738281" xlink:href="#d"/>
</g>
</g>
<g clip-path="url(#a)">
<g transform="translate(819.52 714.38) scale(.1 -.1)">
<use xlink:href="#ak"/>
<use x="59.179688" xlink:href="#s"/>
<use x="120.361328" xlink:href="#af"/>
</g>
</g>
<g clip-path="url(#a)">
<defs>
<path id="at" d="m17.922 72.906v-27.109h-8.2969v27.109z"/>
</defs>
<g transform="translate(869.96 714.38) scale(.1 -.1)">
<use xlink:href="#at"/>
<use x="27.490234" xlink:href="#f"/>
<use x="68.572266" xlink:href="#d"/>
</g>
</g>
<g clip-path="url(#a)">
<g transform="translate(909.88 714.38) scale(.1 -.1)">
<use xlink:href="#i"/>
<use x="63.378906" xlink:href="#d"/>
<use x="124.902344" xlink:href="#al"/>
<use x="184.082031" xlink:href="#d"/>
<use x="245.605469" xlink:href="#f"/>
</g>
</g>
<g clip-path="url(#a)">
<g transform="translate(958 714.38) scale(.1 -.1)">
<use xlink:href="#w"/>
<use x="63.476562" xlink:href="#s"/>
<use x="124.658203" xlink:href="#g"/>
<use x="152.441406" xlink:href="#i"/>
<use x="215.820312" xlink:href="#w"/>
</g>
</g>
<g clip-path="url(#a)">
<g transform="translate(1014.7 714.38) scale(.1 -.1)">
<use xlink:href="#p"/>
<use x="39.208984" xlink:href="#s"/>
</g>
</g>
<g clip-path="url(#a)">
<g transform="translate(1053.6 714.38) scale(.1 -.1)">
<use xlink:href="#j"/>
<use x="97.412109" xlink:href="#h"/>
<use x="158.691406" xlink:href="#am"/>
<use x="216.554688" xlink:href="#d"/>
</g>
</g>
<g clip-path="url(#a)">
<g transform="translate(1111.9 714.38) scale(.1 -.1)">
<use xlink:href="#g"/>
<use x="27.783203" xlink:href="#p"/>
</g>
</g>
<g clip-path="url(#a)">
<g transform="translate(1157.3 714.38) scale(.1 -.1)">
<use xlink:href="#h"/>
<use x="61.279297" xlink:href="#u"/>
</g>
</g>
<g clip-path="url(#a)">
<g transform="translate(1207.7 714.38) scale(.1 -.1)">
<use xlink:href="#h"/>
</g>
</g>
<g clip-path="url(#a)">
<g transform="translate(1243 714.38) scale(.1 -.1)">
<use xlink:href="#u"/>
<use x="52.099609" xlink:href="#g"/>
<use x="79.882812" xlink:href="#i"/>
<use x="143.261719" xlink:href="#w"/>
<use x="206.738281" xlink:href="#d"/>
<use x="268.261719" xlink:href="#f"/>
</g>
</g>
<g clip-path="url(#a)">
<defs>
<path id="e" d="m10.688 12.406h10.312v-12.406h-10.312z"/>
</defs>
<g transform="translate(1304.6 714.38) scale(.1 -.1)">
<use xlink:href="#e"/>
</g>
</g>
<g clip-path="url(#a)">
<g transform="translate(1351.7 714.38) scale(.1 -.1)">
<use xlink:href="#ao"/>
</g>
</g>
<g clip-path="url(#a)">
<defs>
<path id="c" d="m12.406 8.2969h16.109v55.625l-17.531-3.5156v8.9844l17.438 3.5156h9.8594v-64.609h16.109v-8.2969h-41.984z"/>
</defs>
<g transform="translate(462.44 37.806) scale(.1 -.1)">
<use xlink:href="#c"/>
<use x="63.623047" xlink:href="#e"/>
<use x="95.410156" xlink:href="#c"/>
</g>
</g>
<g clip-path="url(#a)">
<defs>
<path id="m" d="m19.188 8.2969h34.422v-8.2969h-46.281v8.2969q5.6094 5.8125 15.297 15.594 9.7031 9.7969 12.188 12.641 4.7344 5.3125 6.6094 9 1.8906 3.6875 1.8906 7.25 0 5.8125-4.0781 9.4688-4.0781 3.6719-10.625 3.6719-4.6406 0-9.7969-1.6094-5.1406-1.6094-11-4.8906v9.9688q5.9531 2.3906 11.125 3.6094 5.1875 1.2188 9.4844 1.2188 11.328 0 18.062-5.6719 6.7344-5.6562 6.7344-15.125 0-4.5-1.6875-8.5312-1.6719-4.0156-6.125-9.4844-1.2188-1.4219-7.7656-8.1875-6.5312-6.7656-18.453-18.922z"/>
</defs>
<g transform="translate(104.49 449.28) scale(.1 -.1)">
<use xlink:href="#c"/>
<use x="63.623047" xlink:href="#e"/>
<use x="95.410156" xlink:href="#m"/>
</g>
</g>
<g clip-path="url(#a)">
<defs>
<path id="n" d="m40.578 39.312q7.0781-1.5156 11.047-6.3125 3.9844-4.7812 3.9844-11.812 0-10.781-7.4219-16.703-7.4219-5.9062-21.094-5.9062-4.5781 0-9.4375 0.90625t-10.031 2.7188v9.5156q4.0938-2.3906 8.9688-3.6094 4.8906-1.2188 10.219-1.2188 9.2656 0 14.125 3.6562t4.8594 10.641q0 6.4531-4.5156 10.078-4.5156 3.6406-12.562 3.6406h-8.5v8.1094h8.8906q7.2656 0 11.125 2.9062t3.8594 8.375q0 5.6094-3.9844 8.6094-3.9688 3.0156-11.391 3.0156-4.0625 0-8.7031-0.89062-4.6406-0.875-10.203-2.7188v8.7812q5.625 1.5625 10.531 2.3438t9.25 0.78125q11.234 0 17.766-5.1094 6.5469-5.0938 6.5469-13.781 0-6.0625-3.4688-10.234t-9.8594-5.7812z"/>
</defs>
<g transform="translate(200 581.83) scale(.1 -.1)">
<use xlink:href="#c"/>
<use x="63.623047" xlink:href="#e"/>
<use x="95.410156" xlink:href="#n"/>
</g>
</g>
<g clip-path="url(#a)">
<defs>
<path id="q" d="m37.797 64.312-24.906-38.922h24.906zm-2.5938 8.5938h12.406v-47.516h10.406v-8.2031h-10.406v-17.188h-9.8125v17.188h-32.906v9.5156z"/>
</defs>
<g transform="translate(211.93 314.89) scale(.1 -.1)">
<use xlink:href="#c"/>
<use x="63.623047" xlink:href="#e"/>
<use x="95.410156" xlink:href="#q"/>
</g>
</g>
<g clip-path="url(#a)">
<defs>
<path id="ae" d="m33.016 40.375q-6.6406 0-10.531-4.5469-3.875-4.5312-3.875-12.438 0-7.8594 3.875-12.438 3.8906-4.5625 10.531-4.5625t10.516 4.5625q3.875 4.5781 3.875 12.438 0 7.9062-3.875 12.438-3.875 4.5469-10.516 4.5469zm19.578 30.922v-8.9844q-3.7188 1.75-7.5 2.6719-3.7812 0.9375-7.5 0.9375-9.7656 0-14.922-6.5938-5.1406-6.5938-5.875-19.922 2.875 4.25 7.2188 6.5156 4.3594 2.2656 9.5781 2.2656 10.984 0 17.359-6.6719 6.375-6.6562 6.375-18.125 0-11.234-6.6406-18.031-6.6406-6.7812-17.672-6.7812-12.656 0-19.344 9.6875-6.6875 9.7031-6.6875 28.109 0 17.281 8.2031 27.562t22.016 10.281q3.7188 0 7.5-0.73438t7.8906-2.1875z"/>
</defs>
<g transform="translate(349.22 177.91) scale(.1 -.1)">
<use xlink:href="#c"/>
<use x="63.623047" xlink:href="#e"/>
<use x="95.410156" xlink:href="#ae"/>
</g>
</g>
<g clip-path="url(#a)">
<defs>
<path id="ad" d="m31.781 34.625q-7.0312 0-11.062-3.7656-4.0156-3.7656-4.0156-10.344 0-6.5938 4.0156-10.359 4.0312-3.7656 11.062-3.7656t11.078 3.7812q4.0625 3.7969 4.0625 10.344 0 6.5781-4.0312 10.344-4.0156 3.7656-11.109 3.7656zm-9.8594 4.1875q-6.3438 1.5625-9.8906 5.9062-3.5312 4.3594-3.5312 10.609 0 8.7344 6.2188 13.812 6.2344 5.0781 17.062 5.0781 10.891 0 17.094-5.0781t6.2031-13.812q0-6.25-3.5469-10.609-3.5312-4.3438-9.8281-5.9062 7.125-1.6562 11.094-6.5 3.9844-4.8281 3.9844-11.797 0-10.609-6.4688-16.281-6.4688-5.6562-18.531-5.6562-12.047 0-18.531 5.6562-6.4688 5.6719-6.4688 16.281 0 6.9688 4 11.797 4.0156 4.8438 11.141 6.5zm-3.6094 15.578q0-5.6562 3.5312-8.8281 3.5469-3.1719 9.9375-3.1719 6.3594 0 9.9375 3.1719 3.5938 3.1719 3.5938 8.8281 0 5.6719-3.5938 8.8438-3.5781 3.1719-9.9375 3.1719-6.3906 0-9.9375-3.1719-3.5312-3.1719-3.5312-8.8438z"/>
</defs>
<g transform="translate(773.01 581.83) scale(.1 -.1)">
<use xlink:href="#c"/>
<use x="63.623047" xlink:href="#e"/>
<use x="95.410156" xlink:href="#ad"/>
</g>
</g>
<g clip-path="url(#a)">
<defs>
<path id="ac" d="m10.984 1.5156v8.9844q3.7188-1.7656 7.5156-2.6875 3.8125-0.92188 7.4844-0.92188 9.7656 0 14.906 6.5625 5.1562 6.5625 5.8906 19.953-2.8281-4.2031-7.1875-6.4531-4.3438-2.25-9.6094-2.25-10.938 0-17.312 6.6094-6.375 6.625-6.375 18.109 0 11.219 6.6406 18 6.6406 6.7969 17.672 6.7969 12.656 0 19.312-9.7031 6.6719-9.6875 6.6719-28.141 0-17.234-8.1875-27.516-8.1719-10.281-21.984-10.281-3.7188 0-7.5312 0.73438-3.7969 0.73438-7.9062 2.2031zm19.625 30.906q6.6406 0 10.516 4.5312 3.8906 4.5469 3.8906 12.469 0 7.8594-3.8906 12.422-3.875 4.5625-10.516 4.5625t-10.516-4.5625-3.875-12.422q0-7.9219 3.875-12.469 3.875-4.5312 10.516-4.5312z"/>
</defs>
<g transform="translate(992.36 314.89) scale(.1 -.1)">
<use xlink:href="#c"/>
<use x="63.623047" xlink:href="#e"/>
<use x="95.410156" xlink:href="#ac"/>
</g>
</g>
<g clip-path="url(#a)">
<defs>
<path id="aj" d="m31.781 66.406q-7.6094 0-11.453-7.5-3.8281-7.4844-3.8281-22.531 0-14.984 3.8281-22.484 3.8438-7.5 11.453-7.5 7.6719 0 11.5 7.5 3.8438 7.5 3.8438 22.484 0 15.047-3.8438 22.531-3.8281 7.5-11.5 7.5zm0 7.8125q12.266 0 18.734-9.7031 6.4688-9.6875 6.4688-28.141 0-18.406-6.4688-28.109-6.4688-9.6875-18.734-9.6875-12.25 0-18.719 9.6875-6.4688 9.7031-6.4688 28.109 0 18.453 6.4688 28.141 6.4688 9.7031 18.719 9.7031z"/>
</defs>
<g transform="translate(817.58 581.83) scale(.1 -.1)">
<use xlink:href="#c"/>
<use x="63.623047" xlink:href="#e"/>
<use x="95.410156" xlink:href="#c"/>
<use x="159.033203" xlink:href="#aj"/>
</g>
</g>
<g clip-path="url(#a)">
<g transform="translate(978.74 449.28) scale(.1 -.1)">
<use xlink:href="#c"/>
<use x="63.623047" xlink:href="#e"/>
<use x="95.410156" xlink:href="#c"/>
<use x="159.033203" xlink:href="#c"/>
</g>
</g>
<g clip-path="url(#a)">
<g transform="translate(913.08 581.83) scale(.1 -.1)">
<use xlink:href="#c"/>
<use x="63.623047" xlink:href="#e"/>
<use x="95.410156" xlink:href="#c"/>
<use x="159.033203" xlink:href="#m"/>
</g>
</g>
<g clip-path="url(#a)">
<g transform="translate(1247.3 449.28) scale(.1 -.1)">
<use xlink:href="#c"/>
<use x="63.623047" xlink:href="#e"/>
<use x="95.410156" xlink:href="#c"/>
<use x="159.033203" xlink:href="#n"/>
</g>
</g>
<g clip-path="url(#a)">
<g transform="translate(1151.8 581.83) scale(.1 -.1)">
<use xlink:href="#c"/>
<use x="63.623047" xlink:href="#e"/>
<use x="95.410156" xlink:href="#c"/>
<use x="159.033203" xlink:href="#ae"/>
</g>
</g>
<g clip-path="url(#a)">
<defs>
<path id="ai" d="m8.2031 72.906h46.875v-4.2031l-26.469-68.703h-10.297l24.906 64.594h-35.016z"/>
</defs>
<g transform="translate(1199.6 581.83) scale(.1 -.1)">
<use xlink:href="#c"/>
<use x="63.623047" xlink:href="#e"/>
<use x="95.410156" xlink:href="#c"/>
<use x="159.033203" xlink:href="#ai"/>
</g>
</g>
<g clip-path="url(#a)">
<g transform="translate(1247.3 581.83) scale(.1 -.1)">
<use xlink:href="#c"/>
<use x="63.623047" xlink:href="#e"/>
<use x="95.410156" xlink:href="#c"/>
<use x="159.033203" xlink:href="#ad"/>
</g>
</g>
<g clip-path="url(#a)">
<g transform="translate(865.33 581.83) scale(.1 -.1)">
<use xlink:href="#c"/>
<use x="63.623047" xlink:href="#e"/>
<use x="95.410156" xlink:href="#c"/>
<use x="159.033203" xlink:href="#ac"/>
</g>
</g>
<g clip-path="url(#a)">
<g transform="translate(960.83 581.83) scale(.1 -.1)">
<use xlink:href="#c"/>
<use x="63.623047" xlink:href="#e"/>
<use x="95.410156" xlink:href="#m"/>
<use x="159.033203" xlink:href="#aj"/>
</g>
</g>
<g clip-path="url(#a)">
<g transform="translate(1008.6 581.83) scale(.1 -.1)">
<use xlink:href="#c"/>
<use x="63.623047" xlink:href="#e"/>
<use x="95.410156" xlink:href="#m"/>
<use x="159.033203" xlink:href="#c"/>
</g>
</g>
<g clip-path="url(#a)">
<g transform="translate(1080.2 581.83) scale(.1 -.1)">
<use xlink:href="#c"/>
<use x="63.623047" xlink:href="#e"/>
<use x="95.410156" xlink:href="#m"/>
<use x="159.033203" xlink:href="#m"/>
</g>
</g>
<g clip-path="url(#a)">
<g transform="translate(387.82 581.83) scale(.1 -.1)">
<use xlink:href="#c"/>
<use x="63.623047" xlink:href="#e"/>
<use x="95.410156" xlink:href="#m"/>
<use x="159.033203" xlink:href="#n"/>
</g>
</g>
<g clip-path="url(#a)">
<g transform="translate(435.57 581.83) scale(.1 -.1)">
<use xlink:href="#c"/>
<use x="63.623047" xlink:href="#e"/>
<use x="95.410156" xlink:href="#m"/>
<use x="159.033203" xlink:href="#q"/>
</g>
</g>
<g clip-path="url(#a)">
<defs>
<path id="an" d="m10.797 72.906h38.719v-8.3125h-29.688v-17.859q2.1406 0.73438 4.2812 1.0938 2.1562 0.35938 4.3125 0.35938 12.203 0 19.328-6.6875 7.1406-6.6875 7.1406-18.109 0-11.766-7.3281-18.297-7.3281-6.5156-20.656-6.5156-4.5938 0-9.3594 0.78125-4.75 0.78125-9.8281 2.3438v9.9219q4.3906-2.3906 9.0781-3.5625t9.9062-1.1719q8.4531 0 13.375 4.4375 4.9375 4.4375 4.9375 12.062 0 7.6094-4.9375 12.047-4.9219 4.4531-13.375 4.4531-3.9531 0-7.8906-0.875-3.9219-0.875-8.0156-2.7344z"/>
</defs>
<g transform="translate(507.2 314.89) scale(.1 -.1)">
<use xlink:href="#c"/>
<use x="63.623047" xlink:href="#e"/>
<use x="95.410156" xlink:href="#m"/>
<use x="159.033203" xlink:href="#an"/>
</g>
</g>
<g clip-path="url(#a)">
<g transform="translate(483.32 581.83) scale(.1 -.1)">
<use xlink:href="#c"/>
<use x="63.623047" xlink:href="#e"/>
<use x="95.410156" xlink:href="#m"/>
<use x="159.033203" xlink:href="#ae"/>
</g>
</g>
<g clip-path="url(#a)">
<g transform="translate(602.7 449.28) scale(.1 -.1)">
<use xlink:href="#c"/>
<use x="63.623047" xlink:href="#e"/>
<use x="95.410156" xlink:href="#m"/>
<use x="159.033203" xlink:href="#ai"/>
</g>
</g>
<g clip-path="url(#a)">
<g transform="translate(531.07 581.83) scale(.1 -.1)">
<use xlink:href="#c"/>
<use x="63.623047" xlink:href="#e"/>
<use x="95.410156" xlink:href="#m"/>
<use x="159.033203" xlink:href="#ad"/>
</g>
</g>
<g clip-path="url(#a)">
<g transform="translate(578.82 581.83) scale(.1 -.1)">
<use xlink:href="#c"/>
<use x="63.623047" xlink:href="#e"/>
<use x="95.410156" xlink:href="#m"/>
<use x="159.033203" xlink:href="#ac"/>
</g>
</g>
<g clip-path="url(#a)">
<g transform="translate(626.57 581.83) scale(.1 -.1)">
<use xlink:href="#c"/>
<use x="63.623047" xlink:href="#e"/>
<use x="95.410156" xlink:href="#n"/>
<use x="159.033203" xlink:href="#c"/>
</g>
</g>
<g clip-path="url(#a)">
<g transform="translate(674.33 581.83) scale(.1 -.1)">
<use xlink:href="#c"/>
<use x="63.623047" xlink:href="#e"/>
<use x="95.410156" xlink:href="#n"/>
<use x="159.033203" xlink:href="#m"/>
</g>
</g>
<g clip-path="url(#a)">
<g transform="translate(268.44 449.28) scale(.1 -.1)">
<use xlink:href="#c"/>
<use x="63.623047" xlink:href="#e"/>
<use x="95.410156" xlink:href="#n"/>
<use x="159.033203" xlink:href="#n"/>
</g>
</g>
<g clip-path="url(#a)">
<g transform="translate(244.57 581.83) scale(.1 -.1)">
<use xlink:href="#c"/>
<use x="63.623047" xlink:href="#e"/>
<use x="95.410156" xlink:href="#n"/>
<use x="159.033203" xlink:href="#q"/>
</g>
</g>
<g clip-path="url(#a)">
<g transform="translate(292.32 581.83) scale(.1 -.1)">
<use xlink:href="#c"/>
<use x="63.623047" xlink:href="#e"/>
<use x="95.410156" xlink:href="#n"/>
<use x="159.033203" xlink:href="#an"/>
</g>
</g>
<g clip-path="url(#a)">
<g transform="translate(53.562 581.83) scale(.1 -.1)">
<use xlink:href="#c"/>
<use x="63.623047" xlink:href="#e"/>
<use x="95.410156" xlink:href="#n"/>
<use x="159.033203" xlink:href="#ae"/>
</g>
</g>
<g clip-path="url(#a)">
<g transform="translate(101.31 581.83) scale(.1 -.1)">
<use xlink:href="#c"/>
<use x="63.623047" xlink:href="#e"/>
<use x="95.410156" xlink:href="#n"/>
<use x="159.033203" xlink:href="#ai"/>
</g>
</g>
<g clip-path="url(#a)">
<g transform="translate(149.06 581.83) scale(.1 -.1)">
<use xlink:href="#c"/>
<use x="63.623047" xlink:href="#e"/>
<use x="95.410156" xlink:href="#n"/>
<use x="159.033203" xlink:href="#ad"/>
</g>
</g>
<g clip-path="url(#a)">
<g transform="translate(701.68 37.806) scale(.1 -.1)">
<use xlink:href="#c"/>
<use x="63.623047" xlink:href="#e"/>
<use x="95.410156" xlink:href="#n"/>
<use x="159.033203" xlink:href="#ac"/>
</g>
</g>
<g clip-path="url(#a)">
<g transform="translate(168.96 177.91) scale(.1 -.1)">
<use xlink:href="#c"/>
<use x="63.623047" xlink:href="#e"/>
<use x="95.410156" xlink:href="#q"/>
<use x="159.033203" xlink:href="#aj"/>
</g>
</g>
<g clip-path="url(#a)">
<g transform="translate(340.07 581.83) scale(.1 -.1)">
<use xlink:href="#c"/>
<use x="63.623047" xlink:href="#e"/>
<use x="95.410156" xlink:href="#q"/>
<use x="159.033203" xlink:href="#c"/>
</g>
</g>
<g clip-path="url(#a)">
<g transform="translate(722.08 581.83) scale(.1 -.1)">
<use xlink:href="#c"/>
<use x="63.623047" xlink:href="#e"/>
<use x="95.410156" xlink:href="#q"/>
<use x="159.033203" xlink:href="#m"/>
</g>
</g>
<g clip-path="url(#a)">
<g transform="translate(1295.1 581.83) scale(.1 -.1)">
<use xlink:href="#c"/>
<use x="63.623047" xlink:href="#e"/>
<use x="95.410156" xlink:href="#q"/>
<use x="159.033203" xlink:href="#n"/>
</g>
</g>
<g clip-path="url(#a)">
<g transform="translate(1342.8 581.83) scale(.1 -.1)">
<use xlink:href="#c"/>
<use x="63.623047" xlink:href="#e"/>
<use x="95.410156" xlink:href="#q"/>
<use x="159.033203" xlink:href="#q"/>
</g>
</g>
<defs>
<clipPath id="a">
<rect width="1418.7" height="746.67"/>
</clipPath>
</defs>
</svg>
