<?xml version="1.0" encoding="UTF-8"?>
<!DOCTYPE svg  PUBLIC '-//W3C//DTD SVG 1.1//EN'  'http://www.w3.org/Graphics/SVG/1.1/DTD/svg11.dtd'>
<svg width="2026.7pt" height="1066.7pt" version="1.1" viewBox="0 0 2026.7 1066.7" xmlns="http://www.w3.org/2000/svg" xmlns:xlink="http://www.w3.org/1999/xlink">
<defs>
<style type="text/css">*{stroke-linecap:butt;stroke-linejoin:round;white-space:pre;}</style>
</defs>
<path d="m0 1066.7h2026.7v-1066.7h-2026.7z" fill="#fff"/>
<g fill="none" stroke="#000">
<path d="m936.26 49.399-341.91 169.53" clip-path="url(#a)"/>
<path d="m936.26 49.399 471.18 334.84" clip-path="url(#a)"/>
<path d="m936.26 49.399-88.25 811.46" clip-path="url(#a)"/>
<path d="m936.26 49.399-41.016 811.46" clip-path="url(#a)"/>
<path d="m594.35 218.92-347.26 165.32" clip-path="url(#a)"/>
<path d="m594.35 218.92 64.728 641.94" clip-path="url(#a)"/>
<path d="m594.35 218.92 182.81 641.94" clip-path="url(#a)"/>
<path d="m594.35 218.92-29.74 641.94" clip-path="url(#a)"/>
<path d="m594.35 218.92 17.494 641.94" clip-path="url(#a)"/>
<path d="m594.35 218.92 111.96 641.94" clip-path="url(#a)"/>
<path d="m1407.4 384.24-370.49 161.63" clip-path="url(#a)"/>
<path d="m1407.4 384.24-228.79 476.62" clip-path="url(#a)"/>
<path d="m1407.4 384.24-63.471 320.22" clip-path="url(#a)"/>
<path d="m1407.4 384.24 101.85 476.62" clip-path="url(#a)"/>
<path d="m1407.4 384.24 231.74 161.63" clip-path="url(#a)"/>
<path d="m1407.4 384.24 456.11 320.22" clip-path="url(#a)"/>
<path d="m1407.4 384.24-181.56 476.62" clip-path="url(#a)"/>
<path d="m1407.4 384.24 54.615 476.62" clip-path="url(#a)"/>
<path d="m1037 545.88-70.851 158.58" clip-path="url(#a)"/>
<path d="m1037 545.88v314.99" clip-path="url(#a)"/>
<path d="m1037 545.88 70.851 158.58" clip-path="url(#a)"/>
<path d="m1178.7 860.86v156.41" clip-path="url(#a)"/>
<path d="m1344 704.46-70.851 156.41" clip-path="url(#a)"/>
<path d="m1344 704.46-23.617 156.41" clip-path="url(#a)"/>
<path d="m1344 704.46 23.617 156.41" clip-path="url(#a)"/>
<path d="m1344 704.46 70.851 156.41" clip-path="url(#a)"/>
<path d="m1509.3 860.86v156.41" clip-path="url(#a)"/>
<path d="m1639.2 545.88-59.043 158.58" clip-path="url(#a)"/>
<path d="m1639.2 545.88 59.043 314.99" clip-path="url(#a)"/>
<path d="m1863.5 704.46-70.851 156.41" clip-path="url(#a)"/>
<path d="m1863.5 704.46-23.617 156.41" clip-path="url(#a)"/>
<path d="m1863.5 704.46 23.617 156.41" clip-path="url(#a)"/>
<path d="m1863.5 704.46 70.851 156.41" clip-path="url(#a)"/>
<path d="m1792.7 860.86v156.41" clip-path="url(#a)"/>
<path d="m1839.9 860.86v156.41" clip-path="url(#a)"/>
<path d="m1887.2 860.86v156.41" clip-path="url(#a)"/>
<path d="m1580.1 704.46-23.617 156.41" clip-path="url(#a)"/>
<path d="m1580.1 704.46 23.617 156.41" clip-path="url(#a)"/>
<path d="m1698.2 860.86-47.234 156.41" clip-path="url(#a)"/>
<path d="m1698.2 860.86v156.41" clip-path="url(#a)"/>
<path d="m1698.2 860.86 47.234 156.41" clip-path="url(#a)"/>
<path d="m1556.5 860.86v156.41" clip-path="url(#a)"/>
<path d="m1603.8 860.86v156.41" clip-path="url(#a)"/>
<path d="m1273.1 860.86v156.41" clip-path="url(#a)"/>
<path d="m1320.4 860.86v156.41" clip-path="url(#a)"/>
<path d="m1367.6 860.86v156.41" clip-path="url(#a)"/>
<path d="m1414.8 860.86v156.41" clip-path="url(#a)"/>
<path d="m966.1 704.46-23.617 156.41" clip-path="url(#a)"/>
<path d="m966.1 704.46 23.617 156.41" clip-path="url(#a)"/>
<path d="m1037 860.86v156.41" clip-path="url(#a)"/>
<path d="m1107.8 704.46-23.617 156.41" clip-path="url(#a)"/>
<path d="m1107.8 704.46 23.617 156.41" clip-path="url(#a)"/>
<path d="m1084.2 860.86v156.41" clip-path="url(#a)"/>
<path d="m1131.4 860.86v156.41" clip-path="url(#a)"/>
<path d="m942.48 860.86v156.41" clip-path="url(#a)"/>
<path d="m989.72 860.86v156.41" clip-path="url(#a)"/>
<path d="m247.09 384.24-107.59 320.22" clip-path="url(#a)"/>
<path d="m247.09 384.24 120.71 161.63" clip-path="url(#a)"/>
<path d="m247.09 384.24-13.121 476.62" clip-path="url(#a)"/>
<path d="m659.08 860.86v156.41" clip-path="url(#a)"/>
<path d="m777.16 860.86-23.617 156.41" clip-path="url(#a)"/>
<path d="m777.16 860.86 23.617 156.41" clip-path="url(#a)"/>
<path d="m139.5 704.46-47.234 156.41" clip-path="url(#a)"/>
<path d="m139.5 704.46v156.41" clip-path="url(#a)"/>
<path d="m139.5 704.46 47.234 156.41" clip-path="url(#a)"/>
<path d="m367.8 545.88-62.979 158.58" clip-path="url(#a)"/>
<path d="m367.8 545.88 62.979 158.58" clip-path="url(#a)"/>
<path d="m304.82 704.46-23.617 156.41" clip-path="url(#a)"/>
<path d="m304.82 704.46 23.617 156.41" clip-path="url(#a)"/>
<path d="m430.78 704.46-55.107 156.41" clip-path="url(#a)"/>
<path d="m430.78 704.46 62.979 156.41" clip-path="url(#a)"/>
<path d="m430.78 704.46-7.8724 156.41" clip-path="url(#a)"/>
<path d="m375.67 860.86v156.41" clip-path="url(#a)"/>
<path d="m493.76 860.86-23.617 156.41" clip-path="url(#a)"/>
<path d="m493.76 860.86 23.617 156.41" clip-path="url(#a)"/>
<path d="m233.97 860.86v156.41" clip-path="url(#a)"/>
<path d="m281.2 860.86v156.41" clip-path="url(#a)"/>
<path d="m328.44 860.86v156.41" clip-path="url(#a)"/>
<path d="m92.267 860.86v156.41" clip-path="url(#a)"/>
<path d="m139.5 860.86v156.41" clip-path="url(#a)"/>
<path d="m186.73 860.86v156.41" clip-path="url(#a)"/>
<path d="m422.91 860.86v156.41" clip-path="url(#a)"/>
<path d="m564.61 860.86v156.41" clip-path="url(#a)"/>
<path d="m611.84 860.86v156.41" clip-path="url(#a)"/>
<path d="m706.31 860.86v156.41" clip-path="url(#a)"/>
<path d="m848.01 860.86v156.41" clip-path="url(#a)"/>
<path d="m895.25 860.86v156.41" clip-path="url(#a)"/>
<path d="m1225.9 860.86v156.41" clip-path="url(#a)"/>
<path d="m1462.1 860.86v156.41" clip-path="url(#a)"/>
<path d="m1934.4 860.86v156.41" clip-path="url(#a)"/>
</g>
<path d="m765.4 141.12 5.3901-2.6725q2.1502-1.0661 1.0841-3.2163l-3.4393-6.9367q-1.0661-2.1502-3.2163-1.0841l-5.3901 2.6725q-2.1502 1.0661-1.0841 3.2163l3.4393 6.9367q1.0661 2.1502 3.2163 1.0841z" clip-path="url(#a)" fill="#fff" stroke="#fff"/>
<g clip-path="url(#a)">
<defs>
<path id="al" d="m9.8125 72.906h9.8594v-29.891h35.844v29.891h9.8594v-72.906h-9.8594v34.719h-35.844v-34.719h-9.8594z"/>
</defs>
<g transform="translate(763.59 137.48) rotate(-26.373) scale(.08 -.08)">
<use xlink:href="#al"/>
</g>
</g>
<path d="m1165.8 220.19 4.904 3.485q1.9563 1.3903 3.3466-0.56607l4.485-6.3112q1.3903-1.9563-0.56607-3.3466l-4.904-3.485q-1.9563-1.3903-3.3466 0.56607l-4.485 6.3112q-1.3903 1.9563 0.56607 3.3466z" clip-path="url(#a)" fill="#fff" stroke="#fff"/>
<g clip-path="url(#a)">
<g transform="translate(1168.1 216.88) rotate(35.399) scale(.08 -.08)">
<use xlink:href="#al"/>
</g>
</g>
<path d="m898.06 458.72 0.63302-5.8207q0.25948-2.3859-2.1265-2.6454l-7.6971-0.83709q-2.3859-0.25948-2.6454 2.1265l-0.63302 5.8207q-0.25948 2.3859 2.1265 2.6454l7.6971 0.83709q2.3859 0.25948 2.6454-2.1265z" clip-path="url(#a)" fill="#fff" stroke="#fff"/>
<g clip-path="url(#a)">
<defs>
<path id="t" d="m8.6875 72.906h9.9219v-44.297q0-11.719 4.2344-16.875 4.25-5.1406 13.781-5.1406 9.4688 0 13.719 5.1406 4.25 5.1562 4.25 16.875v44.297h9.9062v-45.516q0-14.25-7.0625-21.531-7.0469-7.2812-20.812-7.2812-13.828 0-20.891 7.2812-7.0469 7.2812-7.0469 21.531z"/>
</defs>
<g transform="translate(894.02 458.28) rotate(-83.793) scale(.08 -.08)">
<use xlink:href="#t"/>
</g>
</g>
<path d="m921.87 458.37 0.29556-5.8475q0.12115-2.3969-2.2758-2.5181l-7.7326-0.39085q-2.3969-0.12115-2.5181 2.2758l-0.29556 5.8475q-0.12115 2.3969 2.2758 2.5181l7.7326 0.39085q2.3969 0.12115 2.5181-2.2758z" clip-path="url(#a)" fill="#fff" stroke="#fff"/>
<g clip-path="url(#a)">
<g transform="translate(917.81 458.17) rotate(-87.106) scale(.08 -.08)">
<use xlink:href="#t"/>
</g>
</g>
<path d="m420.94 308.42 4.9411-2.3523q2.167-1.0316 1.1354-3.1986l-3.328-6.9907q-1.0316-2.167-3.1986-1.1354l-4.9411 2.3523q-2.167 1.0316-1.1354 3.1986l3.328 6.9907q1.0316 2.167 3.1986 1.1354z" clip-path="url(#a)" fill="#fff" stroke="#fff"/>
<g clip-path="url(#a)">
<defs>
<path id="s" d="m34.188 63.188-13.391-36.281h26.812zm-5.5781 9.7188h11.188l27.781-72.906h-10.25l-6.6406 18.703h-32.859l-6.6406-18.703h-10.406z"/>
</defs>
<g transform="translate(419.2 304.75) rotate(-25.457) scale(.08 -.08)">
<use xlink:href="#s"/>
</g>
</g>
<path d="m620.23 538.12 0.48394 4.7994q0.24078 2.3879 2.6287 2.1471l7.7034-0.77676q2.3879-0.24078 2.1471-2.6287l-0.48394-4.7994q-0.24078-2.3879-2.6287-2.1471l-7.7034 0.77676q-2.3879 0.24078-2.1471 2.6287z" clip-path="url(#a)" fill="#fff" stroke="#fff"/>
<g clip-path="url(#a)">
<defs>
<path id="y" d="m19.672 64.797v-27.391h12.406q6.8906 0 10.641 3.5625 3.7656 3.5625 3.7656 10.156 0 6.5469-3.7656 10.109-3.75 3.5625-10.641 3.5625zm-9.8594 8.1094h22.266q12.266 0 18.531-5.5469 6.2812-5.5469 6.2812-16.234 0-10.797-6.2812-16.312-6.2656-5.5156-18.531-5.5156h-12.406v-29.297h-9.8594z"/>
</defs>
<g transform="translate(624.27 537.72) rotate(84.242) scale(.08 -.08)">
<use xlink:href="#y"/>
</g>
</g>
<path d="m678.97 538.98 1.4989 5.2632q0.65735 2.3082 2.9656 1.6509l7.4464-2.1206q2.3082-0.65735 1.6509-2.9656l-1.4989-5.2632q-0.65734-2.3082-2.9656-1.6509l-7.4464 2.1206q-2.3082 0.65735-1.6509 2.9656z" clip-path="url(#a)" fill="#fff" stroke="#fff"/>
<g clip-path="url(#a)">
<g transform="translate(682.88 537.87) rotate(74.104) scale(.08 -.08)">
<use xlink:href="#s"/>
</g>
</g>
<path d="m585.61 543.11 0.27096-5.8487q0.11107-2.3974-2.2864-2.5085l-7.7342-0.35832q-2.3974-0.11107-2.5085 2.2864l-0.27096 5.8487q-0.11107 2.3974 2.2864 2.5085l7.7342 0.35832q2.3974 0.11107 2.5085-2.2864z" clip-path="url(#a)" fill="#fff" stroke="#fff"/>
<g clip-path="url(#a)">
<g transform="translate(581.55 542.92) rotate(-87.347) scale(.08 -.08)">
<use xlink:href="#t"/>
</g>
</g>
<path d="m596.75 537.14 0.1595 5.8528q0.065381 2.3991 2.4645 2.3337l7.7396-0.21092q2.3991-0.065381 2.3337-2.4645l-0.1595-5.8528q-0.065381-2.3991-2.4645-2.3337l-7.7396 0.21092q-2.3991 0.065381-2.3337 2.4645z" clip-path="url(#a)" fill="#fff" stroke="#fff"/>
<g clip-path="url(#a)">
<g transform="translate(600.81 537.03) rotate(88.439) scale(.08 -.08)">
<use xlink:href="#t"/>
</g>
</g>
<path d="m643.65 538.09 1.006 5.7679q0.41237 2.3643 2.7767 1.9519l7.6274-1.3303q2.3643-0.41237 1.9519-2.7767l-1.006-5.7679q-0.41237-2.3643-2.7767-1.9519l-7.6274 1.3303q-2.3643 0.41237-1.9519 2.7767z" clip-path="url(#a)" fill="#fff" stroke="#fff"/>
<g clip-path="url(#a)">
<g transform="translate(647.65 537.39) rotate(80.106) scale(.08 -.08)">
<use xlink:href="#t"/>
</g>
</g>
<path d="m1222.2 471.9 5.0159-2.1883q2.1998-0.95969 1.2401-3.1595l-3.096-7.0966q-0.95969-2.1998-3.1595-1.2401l-5.0159 2.1883q-2.1998 0.95969-1.2401 3.1595l3.096 7.0966q0.95969 2.1998 3.1595 1.2401z" clip-path="url(#a)" fill="#fff" stroke="#fff"/>
<g clip-path="url(#a)">
<g transform="translate(1220.6 468.18) rotate(-23.57) scale(.08 -.08)">
<use xlink:href="#s"/>
</g>
</g>
<path d="m1297.7 627.34 1.9912-4.1481q1.0386-2.1636-1.125-3.2022l-6.98-3.3506q-2.1636-1.0386-3.2022 1.125l-1.9912 4.1481q-1.0386 2.1636 1.125 3.2022l6.98 3.3506q2.1636 1.0386 3.2022-1.125z" clip-path="url(#a)" fill="#fff" stroke="#fff"/>
<g clip-path="url(#a)">
<defs>
<path id="ax" d="m9.8125 72.906h41.891v-8.3125h-32.031v-21.484h28.906v-8.2969h-28.906v-34.812h-9.8594z"/>
</defs>
<g transform="translate(1294 625.58) rotate(-64.358) scale(.08 -.08)">
<use xlink:href="#ax"/>
</g>
</g>
<path d="m1381.3 548.59 1.1977-6.0424q0.46663-2.3542-1.8876-2.8208l-7.5947-1.5054q-2.3542-0.46663-2.8208 1.8876l-1.1977 6.0424q-0.46663 2.3542 1.8876 2.8208l7.5947 1.5054q2.3542 0.46663 2.8208-1.8876z" clip-path="url(#a)" fill="#fff" stroke="#fff"/>
<g clip-path="url(#a)">
<defs>
<path id="ap" d="m19.672 64.797v-56.688h11.922q15.094 0 22.094 6.8281 7 6.8438 7 21.594 0 14.641-7 21.453t-22.094 6.8125zm-9.8594 8.1094h20.266q21.188 0 31.094-8.8125 9.9219-8.8125 9.9219-27.562 0-18.859-9.9688-27.703-9.9531-8.8281-31.047-8.8281h-20.266z"/>
</defs>
<g transform="translate(1377.3 547.8) rotate(-78.789) scale(.08 -.08)">
<use xlink:href="#ap"/>
</g>
</g>
<path d="m1451.7 621.5 1.008 4.7172q0.50153 2.347 2.8485 1.8455l7.5716-1.618q2.347-0.50153 1.8455-2.8485l-1.008-4.7172q-0.50153-2.347-2.8485-1.8455l-7.5716 1.618q-2.347 0.50153-1.8455 2.8485z" clip-path="url(#a)" fill="#fff" stroke="#fff"/>
<g clip-path="url(#a)">
<g transform="translate(1455.7 620.65) rotate(77.938) scale(.08 -.08)">
<use xlink:href="#y"/>
</g>
</g>
<path d="m1517.5 468.64 4.4886 3.1307q1.9685 1.373 3.3415-0.59552l4.4293-6.3504q1.373-1.9685-0.59552-3.3415l-4.4886-3.1307q-1.9685-1.373-3.3415 0.59552l-4.4293 6.3504q-1.373 1.9685 0.59552 3.3415z" clip-path="url(#a)" fill="#fff" stroke="#fff"/>
<g clip-path="url(#a)">
<g transform="translate(1519.8 465.3) rotate(34.895) scale(.08 -.08)">
<use xlink:href="#s"/>
</g>
</g>
<path d="m1629.7 547.91 4.4789 3.1445q1.9642 1.379 3.3433-0.58522l4.4488-6.3368q1.379-1.9642-0.58522-3.3433l-4.4789-3.1445q-1.9642-1.379-3.3433 0.58522l-4.4488 6.3368q-1.379 1.9642 0.58522 3.3433z" clip-path="url(#a)" fill="#fff" stroke="#fff"/>
<g clip-path="url(#a)">
<g transform="translate(1632 544.58) rotate(35.071) scale(.08 -.08)">
<use xlink:href="#s"/>
</g>
</g>
<path d="m1321.5 627.52 2.0842-5.4715q0.85433-2.2428-1.3885-3.0971l-7.2353-2.7561q-2.2428-0.85434-3.0971 1.3885l-2.0842 5.4715q-0.85433 2.2428 1.3885 3.0971l7.2353 2.7561q2.2428 0.85433 3.0971-1.3885z" clip-path="url(#a)" fill="#fff" stroke="#fff"/>
<g clip-path="url(#a)">
<g transform="translate(1317.7 626.07) rotate(-69.147) scale(.08 -.08)">
<use xlink:href="#t"/>
</g>
</g>
<path d="m1428.2 620.36 0.66655 5.8169q0.27322 2.3844 2.6576 2.1112l7.6922-0.88142q2.3844-0.27322 2.1112-2.6576l-0.66655-5.8169q-0.27322-2.3844-2.6576-2.1112l-7.6922 0.88142q-2.3844 0.27322-2.1112 2.6576z" clip-path="url(#a)" fill="#fff" stroke="#fff"/>
<g clip-path="url(#a)">
<g transform="translate(1432.2 619.9) rotate(83.463) scale(.08 -.08)">
<use xlink:href="#t"/>
</g>
</g>
<path d="m1006.1 630.22 2.2323-4.9965q0.97901-2.1912-1.2122-3.1703l-7.069-3.1583q-2.1912-0.97901-3.1703 1.2122l-2.2323 4.9965q-0.97901 2.1912 1.2122 3.1703l7.069 3.1583q2.1912 0.97901 3.1703-1.2122z" clip-path="url(#a)" fill="#fff" stroke="#fff"/>
<g clip-path="url(#a)">
<g transform="translate(1002.4 628.57) rotate(-65.926) scale(.08 -.08)">
<use xlink:href="#s"/>
</g>
</g>
<path d="m1030.7 700.96v4.8238q0 2.4 2.4 2.4h7.7425q2.4 0 2.4-2.4v-4.8238q0-2.4-2.4-2.4h-7.7425q-2.4 0-2.4 2.4z" clip-path="url(#a)" fill="#fff" stroke="#fff"/>
<g clip-path="url(#a)">
<g transform="translate(1034.7 700.96) rotate(90) scale(.08 -.08)">
<use xlink:href="#y"/>
</g>
</g>
<path d="m1065.5 625.23 2.2323 4.9965q0.97901 2.1912 3.1703 1.2122l7.069-3.1583q2.1912-0.97901 1.2122-3.1703l-2.2323-4.9965q-0.97901-2.1912-3.1703-1.2122l-7.069 3.1583q-2.1912 0.97901-1.2122 3.1703z" clip-path="url(#a)" fill="#fff" stroke="#fff"/>
<g clip-path="url(#a)">
<g transform="translate(1069.2 623.57) rotate(65.926) scale(.08 -.08)">
<use xlink:href="#s"/>
</g>
</g>
<path d="m1172.4 921.42v35.285q0 2.4 2.4 2.4h7.7425q2.4 0 2.4-2.4v-35.285q0-2.4-2.4-2.4h-7.7425q-2.4 0-2.4 2.4z" clip-path="url(#a)" fill="#fff" stroke="#fff"/>
<g clip-path="url(#a)">
<defs>
<path id="l" d="m-0.29688 72.906h61.672v-8.3125h-25.875v-64.594h-9.9062v64.594h-25.891z"/>
<path id="d" d="m56.203 29.594v-4.3906h-41.312q0.59375-9.2812 5.5938-14.141t13.938-4.8594q5.1719 0 10.031 1.2656t9.6562 3.8125v-8.5q-4.8438-2.0469-9.9219-3.125t-10.297-1.0781q-13.094 0-20.734 7.6094-7.6406 7.625-7.6406 20.625 0 13.422 7.25 21.297 7.25 7.8906 19.562 7.8906 11.031 0 17.453-7.1094 6.4219-7.0938 6.4219-19.297zm-8.9844 2.6406q-0.09375 7.3594-4.125 11.75-4.0312 4.4062-10.672 4.4062-7.5156 0-12.031-4.25t-5.2031-11.969z"/>
<path id="f" d="m41.109 46.297q-1.5156 0.875-3.2969 1.2812-1.7812 0.42188-3.9219 0.42188-7.625 0-11.703-4.9531t-4.0781-14.234v-28.812h-9.0312v54.688h9.0312v-8.5q2.8438 4.9844 7.375 7.3906 4.5469 2.4219 11.047 2.4219 0.92188 0 2.0469-0.125 1.125-0.10938 2.4844-0.35938z"/>
<path id="k" d="m52 44.188q3.375 6.0625 8.0625 8.9375t11.031 2.875q8.5469 0 13.188-5.9844 4.6406-5.9688 4.6406-17v-33.016h-9.0312v32.719q0 7.8594-2.7969 11.656-2.7812 3.8125-8.4844 3.8125-6.9844 0-11.047-4.6406-4.0469-4.625-4.0469-12.641v-30.906h-9.0312v32.719q0 7.9062-2.7812 11.688t-8.5938 3.7812q-6.8906 0-10.953-4.6562-4.0469-4.6562-4.0469-12.625v-30.906h-9.0312v54.688h9.0312v-8.5q3.0781 5.0312 7.375 7.4219t10.203 2.3906q5.9688 0 10.141-3.0312 4.1719-3.0156 6.1719-8.7812z"/>
<path id="g" d="m9.4219 54.688h8.9844v-54.688h-8.9844zm0 21.297h8.9844v-11.391h-8.9844z"/>
<path id="h" d="m54.891 33.016v-33.016h-8.9844v32.719q0 7.7656-3.0312 11.609-3.0312 3.8594-9.0781 3.8594-7.2812 0-11.484-4.6406-4.2031-4.625-4.2031-12.641v-30.906h-9.0312v54.688h9.0312v-8.5q3.2344 4.9375 7.5938 7.375 4.375 2.4375 10.094 2.4375 9.4219 0 14.25-5.8281 4.8438-5.8281 4.8438-17.156z"/>
<path id="j" d="m34.281 27.484q-10.891 0-15.094-2.4844t-4.2031-8.5q0-4.7812 3.1562-7.5938 3.1562-2.7969 8.5625-2.7969 7.4844 0 12 5.2969t4.5156 14.078v2zm17.922 3.7188v-31.203h-8.9844v8.2969q-3.0781-4.9688-7.6719-7.3438t-11.234-2.375q-8.3906 0-13.359 4.7188-4.9531 4.7188-4.9531 12.625 0 9.2188 6.1719 13.906 6.1875 4.6875 18.438 4.6875h12.609v0.89062q0 6.2031-4.0781 9.5938t-11.453 3.3906q-4.6875 0-9.1406-1.125-4.4375-1.125-8.5312-3.375v8.3125q4.9219 1.9062 9.5625 2.8438 4.6406 0.95312 9.0312 0.95312 11.875 0 17.734-6.1562 5.8594-6.1406 5.8594-18.641z"/>
<path id="i" d="m9.4219 75.984h8.9844v-75.984h-8.9844z"/>
</defs>
<g transform="translate(1176.4 921.42) rotate(90) scale(.08 -.08)">
<use xlink:href="#l"/>
<use x="60.818359" xlink:href="#d"/>
<use x="122.341797" xlink:href="#f"/>
<use x="163.439453" xlink:href="#k"/>
<use x="260.851562" xlink:href="#g"/>
<use x="288.634766" xlink:href="#h"/>
<use x="352.013672" xlink:href="#j"/>
<use x="413.292969" xlink:href="#i"/>
</g>
</g>
<path d="m1313.1 787.78 2.2937-5.0634q0.99032-2.1862-1.1958-3.1765l-7.0526-3.1948q-2.1862-0.99032-3.1765 1.1958l-2.2937 5.0634q-0.99032 2.1862 1.1958 3.1765l7.0526 3.1948q2.1862 0.99032 3.1765-1.1958z" clip-path="url(#a)" fill="#fff" stroke="#fff"/>
<g clip-path="url(#a)">
<defs>
<path id="x" d="m44.391 34.188q3.1719-1.0781 6.1719-4.5938t6.0312-9.6719l10.016-19.922h-10.609l-9.3125 18.703q-3.625 7.3281-7.0156 9.7188t-9.25 2.3906h-10.75v-30.812h-9.8594v72.906h22.266q12.5 0 18.656-5.2344 6.1562-5.2188 6.1562-15.766 0-6.8906-3.2031-11.438-3.2031-4.5312-9.2969-6.2812zm-24.719 30.609v-25.875h12.406q7.125 0 10.766 3.2969t3.6406 9.6875-3.6406 9.6406-10.766 3.25z"/>
</defs>
<g transform="translate(1309.4 786.1) rotate(-65.63) scale(.08 -.08)">
<use xlink:href="#x"/>
</g>
</g>
<path d="m1338 786.1 0.75475-4.9983q0.35834-2.3731-2.0148-2.7314l-7.6557-1.156q-2.3731-0.35834-2.7314 2.0148l-0.75475 4.9983q-0.35834 2.3731 2.0148 2.7314l7.6557 1.156q2.3731 0.35834 2.7314-2.0148z" clip-path="url(#a)" fill="#fff" stroke="#fff"/>
<g clip-path="url(#a)">
<defs>
<path id="ab" d="m9.8125 72.906h46.094v-8.3125h-36.234v-21.578h34.719v-8.2969h-34.719v-26.422h37.109v-8.2969h-46.969z"/>
</defs>
<g transform="translate(1334 785.49) rotate(-81.413) scale(.08 -.08)">
<use xlink:href="#ab"/>
</g>
</g>
<path d="m1349.1 780.48 0.94026 6.2269q0.35834 2.3731 2.7314 2.0148l7.6557-1.156q2.3731-0.35834 2.0148-2.7314l-0.94026-6.2269q-0.35834-2.3731-2.7314-2.0148l-7.6557 1.156q-2.3731 0.35834-2.0148 2.7314z" clip-path="url(#a)" fill="#fff" stroke="#fff"/>
<g clip-path="url(#a)">
<defs>
<path id="au" d="m39.406 66.219q-10.75 0-17.078-8.0156-6.3125-8-6.3125-21.828 0-13.766 6.3125-21.781 6.3281-8 17.078-8 10.734 0 17.016 8 6.2812 8.0156 6.2812 21.781 0 13.828-6.2812 21.828-6.2812 8.0156-17.016 8.0156zm13.812-64.906 13-14.203h-11.922l-10.797 11.672q-1.6094-0.09375-2.4688-0.14062-0.84375-0.0625-1.625-0.0625-15.375 0-24.594 10.281-9.2031 10.281-9.2031 27.516 0 17.281 9.2031 27.562 9.2188 10.281 24.594 10.281 15.328 0 24.5-10.281 9.1875-10.281 9.1875-27.562 0-12.688-5.1094-21.734-5.0938-9.0312-14.766-13.328z"/>
</defs>
<g transform="translate(1353.1 779.88) rotate(81.413) scale(.08 -.08)">
<use xlink:href="#au"/>
</g>
</g>
<path d="m1372.5 782.7 2.3051 5.0885q0.99032 2.1862 3.1765 1.1958l7.0526-3.1948q2.1862-0.99032 1.1958-3.1765l-2.3051-5.0885q-0.99032-2.1862-3.1765-1.1958l-7.0526 3.1948q-2.1862 0.99032-1.1958 3.1765z" clip-path="url(#a)" fill="#fff" stroke="#fff"/>
<g clip-path="url(#a)">
<defs>
<path id="r" d="m64.406 67.281v-10.391q-4.9844 4.6406-10.625 6.9219-5.6406 2.2969-11.984 2.2969-12.5 0-19.141-7.6406t-6.6406-22.094q0-14.406 6.6406-22.047t19.141-7.6406q6.3438 0 11.984 2.2969t10.625 6.9375v-10.312q-5.1719-3.5156-10.969-5.2812-5.7812-1.75-12.219-1.75-16.562 0-26.094 10.125-9.5156 10.141-9.5156 27.672 0 17.578 9.5156 27.703 9.5312 10.141 26.094 10.141 6.5312 0 12.312-1.7344 5.7969-1.7344 10.875-5.2031z"/>
</defs>
<g transform="translate(1376.2 781.03) rotate(65.63) scale(.08 -.08)">
<use xlink:href="#r"/>
</g>
</g>
<path d="m1503 921.42v35.285q0 2.4 2.4 2.4h7.7425q2.4 0 2.4-2.4v-35.285q0-2.4-2.4-2.4h-7.7425q-2.4 0-2.4 2.4z" clip-path="url(#a)" fill="#fff" stroke="#fff"/>
<g clip-path="url(#a)">
<g transform="translate(1507.1 921.42) rotate(90) scale(.08 -.08)">
<use xlink:href="#l"/>
<use x="60.818359" xlink:href="#d"/>
<use x="122.341797" xlink:href="#f"/>
<use x="163.439453" xlink:href="#k"/>
<use x="260.851562" xlink:href="#g"/>
<use x="288.634766" xlink:href="#h"/>
<use x="352.013672" xlink:href="#j"/>
<use x="413.292969" xlink:href="#i"/>
</g>
</g>
<path d="m1614.6 629.92 1.9095-5.1286q0.83741-2.2492-1.4118-3.0866l-7.2559-2.7015q-2.2492-0.83741-3.0866 1.4118l-1.9095 5.1286q-0.83741 2.2492 1.4118 3.0866l7.2559 2.7015q2.2492 0.83741 3.0866-1.4118z" clip-path="url(#a)" fill="#fff" stroke="#fff"/>
<g clip-path="url(#a)">
<g transform="translate(1610.8 628.5) rotate(-69.579) scale(.08 -.08)">
<use xlink:href="#s"/>
</g>
</g>
<path d="m1662.1 702.15 0.88871 4.7412q0.44217 2.3589 2.8011 1.9167l7.61-1.4265q2.3589-0.44217 1.9167-2.8011l-0.88871-4.7412q-0.44217-2.3589-2.8011-1.9167l-7.61 1.4265q-2.3589 0.44217-1.9167 2.8011z" clip-path="url(#a)" fill="#fff" stroke="#fff"/>
<g clip-path="url(#a)">
<g transform="translate(1666.1 701.41) rotate(79.383) scale(.08 -.08)">
<use xlink:href="#y"/>
</g>
</g>
<path d="m1832.7 787.78 2.2937-5.0634q0.99032-2.1862-1.1958-3.1765l-7.0526-3.1948q-2.1862-0.99032-3.1765 1.1958l-2.2937 5.0634q-0.99032 2.1862 1.1958 3.1765l7.0526 3.1948q2.1862 0.99032 3.1765-1.1958z" clip-path="url(#a)" fill="#fff" stroke="#fff"/>
<g clip-path="url(#a)">
<g transform="translate(1829 786.1) rotate(-65.63) scale(.08 -.08)">
<use xlink:href="#x"/>
</g>
</g>
<path d="m1857.6 786.1 0.75475-4.9983q0.35834-2.3731-2.0148-2.7314l-7.6557-1.156q-2.3731-0.35834-2.7314 2.0148l-0.75475 4.9983q-0.35834 2.3731 2.0148 2.7314l7.6557 1.156q2.3731 0.35834 2.7314-2.0148z" clip-path="url(#a)" fill="#fff" stroke="#fff"/>
<g clip-path="url(#a)">
<g transform="translate(1853.5 785.49) rotate(-81.413) scale(.08 -.08)">
<use xlink:href="#ab"/>
</g>
</g>
<path d="m1868.7 780.83 0.83407 5.5236q0.35834 2.3731 2.7314 2.0148l7.6557-1.156q2.3731-0.35834 2.0148-2.7314l-0.83407-5.5236q-0.35834-2.3731-2.7314-2.0148l-7.6557 1.156q-2.3731 0.35834-2.0148 2.7314z" clip-path="url(#a)" fill="#fff" stroke="#fff"/>
<g clip-path="url(#a)">
<g transform="translate(1872.8 780.23) rotate(81.413) scale(.08 -.08)">
<use xlink:href="#r"/>
</g>
</g>
<path d="m1892.1 782.58 2.416 5.3333q0.99032 2.1862 3.1765 1.1958l7.0526-3.1948q2.1862-0.99032 1.1958-3.1765l-2.416-5.3333q-0.99032-2.1862-3.1765-1.1958l-7.0526 3.1948q-2.1862 0.99032-1.1958 3.1765z" clip-path="url(#a)" fill="#fff" stroke="#fff"/>
<g clip-path="url(#a)">
<g transform="translate(1895.8 780.9) rotate(65.63) scale(.08 -.08)">
<use xlink:href="#t"/>
</g>
</g>
<path d="m1786.4 921.42v35.285q0 2.4 2.4 2.4h7.7425q2.4 0 2.4-2.4v-35.285q0-2.4-2.4-2.4h-7.7425q-2.4 0-2.4 2.4z" clip-path="url(#a)" fill="#fff" stroke="#fff"/>
<g clip-path="url(#a)">
<g transform="translate(1790.5 921.42) rotate(90) scale(.08 -.08)">
<use xlink:href="#l"/>
<use x="60.818359" xlink:href="#d"/>
<use x="122.341797" xlink:href="#f"/>
<use x="163.439453" xlink:href="#k"/>
<use x="260.851562" xlink:href="#g"/>
<use x="288.634766" xlink:href="#h"/>
<use x="352.013672" xlink:href="#j"/>
<use x="413.292969" xlink:href="#i"/>
</g>
</g>
<path d="m1833.7 921.42v35.285q0 2.4 2.4 2.4h7.7425q2.4 0 2.4-2.4v-35.285q0-2.4-2.4-2.4h-7.7425q-2.4 0-2.4 2.4z" clip-path="url(#a)" fill="#fff" stroke="#fff"/>
<g clip-path="url(#a)">
<g transform="translate(1837.7 921.42) rotate(90) scale(.08 -.08)">
<use xlink:href="#l"/>
<use x="60.818359" xlink:href="#d"/>
<use x="122.341797" xlink:href="#f"/>
<use x="163.439453" xlink:href="#k"/>
<use x="260.851562" xlink:href="#g"/>
<use x="288.634766" xlink:href="#h"/>
<use x="352.013672" xlink:href="#j"/>
<use x="413.292969" xlink:href="#i"/>
</g>
</g>
<path d="m1880.9 921.42v35.285q0 2.4 2.4 2.4h7.7425q2.4 0 2.4-2.4v-35.285q0-2.4-2.4-2.4h-7.7425q-2.4 0-2.4 2.4z" clip-path="url(#a)" fill="#fff" stroke="#fff"/>
<g clip-path="url(#a)">
<g transform="translate(1885 921.42) rotate(90) scale(.08 -.08)">
<use xlink:href="#l"/>
<use x="60.818359" xlink:href="#d"/>
<use x="122.341797" xlink:href="#f"/>
<use x="163.439453" xlink:href="#k"/>
<use x="260.851562" xlink:href="#g"/>
<use x="288.634766" xlink:href="#h"/>
<use x="352.013672" xlink:href="#j"/>
<use x="413.292969" xlink:href="#i"/>
</g>
</g>
<path d="m1574.1 786.36 0.83407-5.5236q0.35834-2.3731-2.0148-2.7314l-7.6557-1.156q-2.3731-0.35834-2.7314 2.0148l-0.83406 5.5236q-0.35834 2.3731 2.0148 2.7314l7.6557 1.156q2.3731 0.35834 2.7314-2.0148z" clip-path="url(#a)" fill="#fff" stroke="#fff"/>
<g clip-path="url(#a)">
<g transform="translate(1570.1 785.75) rotate(-81.413) scale(.08 -.08)">
<use xlink:href="#r"/>
</g>
</g>
<path d="m1585.3 780.85 0.82996 5.4964q0.35834 2.3731 2.7314 2.0148l7.6557-1.156q2.3731-0.35834 2.0148-2.7314l-0.82996-5.4964q-0.35834-2.3731-2.7314-2.0148l-7.6557 1.156q-2.3731 0.35834-2.0148 2.7314z" clip-path="url(#a)" fill="#fff" stroke="#fff"/>
<g clip-path="url(#a)">
<g transform="translate(1589.4 780.24) rotate(81.413) scale(.08 -.08)">
<use xlink:href="#x"/>
</g>
</g>
<path d="m1675.5 957.77 10.201-33.778q0.69385-2.2975-1.6037-2.9914l-7.4119-2.2384q-2.2975-0.69385-2.9914 1.6037l-10.201 33.778q-0.69385 2.2975 1.6037 2.9914l7.4119 2.2384q2.2975 0.69385 2.9914-1.6037z" clip-path="url(#a)" fill="#fff" stroke="#fff"/>
<g clip-path="url(#a)">
<g transform="translate(1671.6 956.59) rotate(-73.196) scale(.08 -.08)">
<use xlink:href="#l"/>
<use x="60.818359" xlink:href="#d"/>
<use x="122.341797" xlink:href="#f"/>
<use x="163.439453" xlink:href="#k"/>
<use x="260.851562" xlink:href="#g"/>
<use x="288.634766" xlink:href="#h"/>
<use x="352.013672" xlink:href="#j"/>
<use x="413.292969" xlink:href="#i"/>
</g>
</g>
<path d="m1692 921.42v35.285q0 2.4 2.4 2.4h7.7425q2.4 0 2.4-2.4v-35.285q0-2.4-2.4-2.4h-7.7425q-2.4 0-2.4 2.4z" clip-path="url(#a)" fill="#fff" stroke="#fff"/>
<g clip-path="url(#a)">
<g transform="translate(1696 921.42) rotate(90) scale(.08 -.08)">
<use xlink:href="#l"/>
<use x="60.818359" xlink:href="#d"/>
<use x="122.341797" xlink:href="#f"/>
<use x="163.439453" xlink:href="#k"/>
<use x="260.851562" xlink:href="#g"/>
<use x="288.634766" xlink:href="#h"/>
<use x="352.013672" xlink:href="#j"/>
<use x="413.292969" xlink:href="#i"/>
</g>
</g>
<path d="m1710.7 923.99 10.201 33.778q0.69385 2.2975 2.9914 1.6037l7.4119-2.2384q2.2975-0.69385 1.6037-2.9914l-10.201-33.778q-0.69385-2.2975-2.9914-1.6037l-7.4119 2.2384q-2.2975 0.69385-1.6037 2.9914z" clip-path="url(#a)" fill="#fff" stroke="#fff"/>
<g clip-path="url(#a)">
<g transform="translate(1714.6 922.81) rotate(73.196) scale(.08 -.08)">
<use xlink:href="#l"/>
<use x="60.818359" xlink:href="#d"/>
<use x="122.341797" xlink:href="#f"/>
<use x="163.439453" xlink:href="#k"/>
<use x="260.851562" xlink:href="#g"/>
<use x="288.634766" xlink:href="#h"/>
<use x="352.013672" xlink:href="#j"/>
<use x="413.292969" xlink:href="#i"/>
</g>
</g>
<path d="m1550.3 921.42v35.285q0 2.4 2.4 2.4h7.7425q2.4 0 2.4-2.4v-35.285q0-2.4-2.4-2.4h-7.7425q-2.4 0-2.4 2.4z" clip-path="url(#a)" fill="#fff" stroke="#fff"/>
<g clip-path="url(#a)">
<g transform="translate(1554.3 921.42) rotate(90) scale(.08 -.08)">
<use xlink:href="#l"/>
<use x="60.818359" xlink:href="#d"/>
<use x="122.341797" xlink:href="#f"/>
<use x="163.439453" xlink:href="#k"/>
<use x="260.851562" xlink:href="#g"/>
<use x="288.634766" xlink:href="#h"/>
<use x="352.013672" xlink:href="#j"/>
<use x="413.292969" xlink:href="#i"/>
</g>
</g>
<path d="m1597.5 921.42v35.285q0 2.4 2.4 2.4h7.7425q2.4 0 2.4-2.4v-35.285q0-2.4-2.4-2.4h-7.7425q-2.4 0-2.4 2.4z" clip-path="url(#a)" fill="#fff" stroke="#fff"/>
<g clip-path="url(#a)">
<g transform="translate(1601.6 921.42) rotate(90) scale(.08 -.08)">
<use xlink:href="#l"/>
<use x="60.818359" xlink:href="#d"/>
<use x="122.341797" xlink:href="#f"/>
<use x="163.439453" xlink:href="#k"/>
<use x="260.851562" xlink:href="#g"/>
<use x="288.634766" xlink:href="#h"/>
<use x="352.013672" xlink:href="#j"/>
<use x="413.292969" xlink:href="#i"/>
</g>
</g>
<path d="m1266.9 921.42v35.285q0 2.4 2.4 2.4h7.7425q2.4 0 2.4-2.4v-35.285q0-2.4-2.4-2.4h-7.7425q-2.4 0-2.4 2.4z" clip-path="url(#a)" fill="#fff" stroke="#fff"/>
<g clip-path="url(#a)">
<g transform="translate(1270.9 921.42) rotate(90) scale(.08 -.08)">
<use xlink:href="#l"/>
<use x="60.818359" xlink:href="#d"/>
<use x="122.341797" xlink:href="#f"/>
<use x="163.439453" xlink:href="#k"/>
<use x="260.851562" xlink:href="#g"/>
<use x="288.634766" xlink:href="#h"/>
<use x="352.013672" xlink:href="#j"/>
<use x="413.292969" xlink:href="#i"/>
</g>
</g>
<path d="m1314.1 921.42v35.285q0 2.4 2.4 2.4h7.7425q2.4 0 2.4-2.4v-35.285q0-2.4-2.4-2.4h-7.7425q-2.4 0-2.4 2.4z" clip-path="url(#a)" fill="#fff" stroke="#fff"/>
<g clip-path="url(#a)">
<g transform="translate(1318.1 921.42) rotate(90) scale(.08 -.08)">
<use xlink:href="#l"/>
<use x="60.818359" xlink:href="#d"/>
<use x="122.341797" xlink:href="#f"/>
<use x="163.439453" xlink:href="#k"/>
<use x="260.851562" xlink:href="#g"/>
<use x="288.634766" xlink:href="#h"/>
<use x="352.013672" xlink:href="#j"/>
<use x="413.292969" xlink:href="#i"/>
</g>
</g>
<path d="m1361.3 921.42v35.285q0 2.4 2.4 2.4h7.7425q2.4 0 2.4-2.4v-35.285q0-2.4-2.4-2.4h-7.7425q-2.4 0-2.4 2.4z" clip-path="url(#a)" fill="#fff" stroke="#fff"/>
<g clip-path="url(#a)">
<g transform="translate(1365.4 921.42) rotate(90) scale(.08 -.08)">
<use xlink:href="#l"/>
<use x="60.818359" xlink:href="#d"/>
<use x="122.341797" xlink:href="#f"/>
<use x="163.439453" xlink:href="#k"/>
<use x="260.851562" xlink:href="#g"/>
<use x="288.634766" xlink:href="#h"/>
<use x="352.013672" xlink:href="#j"/>
<use x="413.292969" xlink:href="#i"/>
</g>
</g>
<path d="m1408.6 921.42v35.285q0 2.4 2.4 2.4h7.7425q2.4 0 2.4-2.4v-35.285q0-2.4-2.4-2.4h-7.7425q-2.4 0-2.4 2.4z" clip-path="url(#a)" fill="#fff" stroke="#fff"/>
<g clip-path="url(#a)">
<g transform="translate(1412.6 921.42) rotate(90) scale(.08 -.08)">
<use xlink:href="#l"/>
<use x="60.818359" xlink:href="#d"/>
<use x="122.341797" xlink:href="#f"/>
<use x="163.439453" xlink:href="#k"/>
<use x="260.851562" xlink:href="#g"/>
<use x="288.634766" xlink:href="#h"/>
<use x="352.013672" xlink:href="#j"/>
<use x="413.292969" xlink:href="#i"/>
</g>
</g>
<path d="m960.07 786.36 0.83407-5.5236q0.35834-2.3731-2.0148-2.7314l-7.6557-1.156q-2.3731-0.35834-2.7314 2.0148l-0.83407 5.5236q-0.35834 2.3731 2.0148 2.7314l7.6557 1.156q2.3731 0.35834 2.7314-2.0148z" clip-path="url(#a)" fill="#fff" stroke="#fff"/>
<g clip-path="url(#a)">
<g transform="translate(956.06 785.75) rotate(-81.413) scale(.08 -.08)">
<use xlink:href="#r"/>
</g>
</g>
<path d="m971.29 780.85 0.82996 5.4964q0.35834 2.3731 2.7314 2.0148l7.6557-1.156q2.3731-0.35834 2.0148-2.7314l-0.82996-5.4964q-0.35834-2.3731-2.7314-2.0148l-7.6557 1.156q-2.3731 0.35834-2.0148 2.7314z" clip-path="url(#a)" fill="#fff" stroke="#fff"/>
<g clip-path="url(#a)">
<g transform="translate(975.31 780.24) rotate(81.413) scale(.08 -.08)">
<use xlink:href="#x"/>
</g>
</g>
<path d="m1030.7 921.42v35.285q0 2.4 2.4 2.4h7.7425q2.4 0 2.4-2.4v-35.285q0-2.4-2.4-2.4h-7.7425q-2.4 0-2.4 2.4z" clip-path="url(#a)" fill="#fff" stroke="#fff"/>
<g clip-path="url(#a)">
<g transform="translate(1034.7 921.42) rotate(90) scale(.08 -.08)">
<use xlink:href="#l"/>
<use x="60.818359" xlink:href="#d"/>
<use x="122.341797" xlink:href="#f"/>
<use x="163.439453" xlink:href="#k"/>
<use x="260.851562" xlink:href="#g"/>
<use x="288.634766" xlink:href="#h"/>
<use x="352.013672" xlink:href="#j"/>
<use x="413.292969" xlink:href="#i"/>
</g>
</g>
<path d="m1101.8 786.34 0.82996-5.4964q0.35834-2.3731-2.0148-2.7314l-7.6557-1.156q-2.3731-0.35834-2.7314 2.0148l-0.82996 5.4964q-0.35834 2.3731 2.0148 2.7314l7.6557 1.156q2.3731 0.35834 2.7314-2.0148z" clip-path="url(#a)" fill="#fff" stroke="#fff"/>
<g clip-path="url(#a)">
<g transform="translate(1097.8 785.74) rotate(-81.413) scale(.08 -.08)">
<use xlink:href="#x"/>
</g>
</g>
<path d="m1113 780.83 0.83407 5.5236q0.35834 2.3731 2.7314 2.0148l7.6557-1.156q2.3731-0.35834 2.0148-2.7314l-0.83407-5.5236q-0.35834-2.3731-2.7314-2.0148l-7.6557 1.156q-2.3731 0.35834-2.0148 2.7314z" clip-path="url(#a)" fill="#fff" stroke="#fff"/>
<g clip-path="url(#a)">
<g transform="translate(1117 780.23) rotate(81.413) scale(.08 -.08)">
<use xlink:href="#r"/>
</g>
</g>
<path d="m1077.9 921.42v35.285q0 2.4 2.4 2.4h7.7425q2.4 0 2.4-2.4v-35.285q0-2.4-2.4-2.4h-7.7425q-2.4 0-2.4 2.4z" clip-path="url(#a)" fill="#fff" stroke="#fff"/>
<g clip-path="url(#a)">
<g transform="translate(1082 921.42) rotate(90) scale(.08 -.08)">
<use xlink:href="#l"/>
<use x="60.818359" xlink:href="#d"/>
<use x="122.341797" xlink:href="#f"/>
<use x="163.439453" xlink:href="#k"/>
<use x="260.851562" xlink:href="#g"/>
<use x="288.634766" xlink:href="#h"/>
<use x="352.013672" xlink:href="#j"/>
<use x="413.292969" xlink:href="#i"/>
</g>
</g>
<path d="m1125.1 921.42v35.285q0 2.4 2.4 2.4h7.7425q2.4 0 2.4-2.4v-35.285q0-2.4-2.4-2.4h-7.7425q-2.4 0-2.4 2.4z" clip-path="url(#a)" fill="#fff" stroke="#fff"/>
<g clip-path="url(#a)">
<g transform="translate(1129.2 921.42) rotate(90) scale(.08 -.08)">
<use xlink:href="#l"/>
<use x="60.818359" xlink:href="#d"/>
<use x="122.341797" xlink:href="#f"/>
<use x="163.439453" xlink:href="#k"/>
<use x="260.851562" xlink:href="#g"/>
<use x="288.634766" xlink:href="#h"/>
<use x="352.013672" xlink:href="#j"/>
<use x="413.292969" xlink:href="#i"/>
</g>
</g>
<path d="m936.21 921.42v35.285q0 2.4 2.4 2.4h7.7425q2.4 0 2.4-2.4v-35.285q0-2.4-2.4-2.4h-7.7425q-2.4 0-2.4 2.4z" clip-path="url(#a)" fill="#fff" stroke="#fff"/>
<g clip-path="url(#a)">
<g transform="translate(940.27 921.42) rotate(90) scale(.08 -.08)">
<use xlink:href="#l"/>
<use x="60.818359" xlink:href="#d"/>
<use x="122.341797" xlink:href="#f"/>
<use x="163.439453" xlink:href="#k"/>
<use x="260.851562" xlink:href="#g"/>
<use x="288.634766" xlink:href="#h"/>
<use x="352.013672" xlink:href="#j"/>
<use x="413.292969" xlink:href="#i"/>
</g>
</g>
<path d="m983.44 921.42v35.285q0 2.4 2.4 2.4h7.7425q2.4 0 2.4-2.4v-35.285q0-2.4-2.4-2.4h-7.7425q-2.4 0-2.4 2.4z" clip-path="url(#a)" fill="#fff" stroke="#fff"/>
<g clip-path="url(#a)">
<g transform="translate(987.51 921.42) rotate(90) scale(.08 -.08)">
<use xlink:href="#l"/>
<use x="60.818359" xlink:href="#d"/>
<use x="122.341797" xlink:href="#f"/>
<use x="163.439453" xlink:href="#k"/>
<use x="260.851562" xlink:href="#g"/>
<use x="288.634766" xlink:href="#h"/>
<use x="352.013672" xlink:href="#j"/>
<use x="413.292969" xlink:href="#i"/>
</g>
</g>
<path d="m198.35 548.99 1.7792-5.2953q0.76438-2.275-1.5106-3.0394l-7.3393-2.4659q-2.275-0.76438-3.0394 1.5106l-1.7792 5.2953q-0.76438 2.275 1.5106 3.0394l7.3393 2.4659q2.275 0.76438 3.0394-1.5106z" clip-path="url(#a)" fill="#fff" stroke="#fff"/>
<g clip-path="url(#a)">
<g transform="translate(194.5 547.7) rotate(-71.428) scale(.08 -.08)">
<use xlink:href="#r"/>
</g>
</g>
<path d="m300.91 466.79 3.0247 4.0502q1.4361 1.9229 3.359 0.48688l6.2035-4.6328q1.9229-1.4361 0.48688-3.359l-3.0247-4.0502q-1.4361-1.9229-3.359-0.48688l-6.2035 4.6328q-1.9229 1.4361-0.48688 3.359z" clip-path="url(#a)" fill="#fff" stroke="#fff"/>
<g clip-path="url(#a)">
<g transform="translate(304.16 464.35) rotate(53.247) scale(.08 -.08)">
<use xlink:href="#ab"/>
</g>
</g>
<path d="m246.72 625.65 0.16112-5.8528q0.066043-2.3991-2.333-2.4651l-7.7396-0.21306q-2.3991-0.066044-2.4651 2.333l-0.16112 5.8528q-0.066043 2.3991 2.333 2.4651l7.7396 0.21306q2.3991 0.066043 2.4651-2.333z" clip-path="url(#a)" fill="#fff" stroke="#fff"/>
<g clip-path="url(#a)">
<g transform="translate(242.66 625.54) rotate(-88.423) scale(.08 -.08)">
<use xlink:href="#t"/>
</g>
</g>
<path d="m652.81 921.42v35.285q0 2.4 2.4 2.4h7.7425q2.4 0 2.4-2.4v-35.285q0-2.4-2.4-2.4h-7.7425q-2.4 0-2.4 2.4z" clip-path="url(#a)" fill="#fff" stroke="#fff"/>
<g clip-path="url(#a)">
<g transform="translate(656.87 921.42) rotate(90) scale(.08 -.08)">
<use xlink:href="#l"/>
<use x="60.818359" xlink:href="#d"/>
<use x="122.341797" xlink:href="#f"/>
<use x="163.439453" xlink:href="#k"/>
<use x="260.851562" xlink:href="#g"/>
<use x="288.634766" xlink:href="#h"/>
<use x="352.013672" xlink:href="#j"/>
<use x="413.292969" xlink:href="#i"/>
</g>
</g>
<path d="m768.92 957.45 5.2683-34.889q0.35834-2.3731-2.0148-2.7314l-7.6557-1.156q-2.3731-0.35834-2.7314 2.0148l-5.2683 34.889q-0.35834 2.3731 2.0148 2.7314l7.6557 1.156q2.3731 0.35834 2.7314-2.0148z" clip-path="url(#a)" fill="#fff" stroke="#fff"/>
<g clip-path="url(#a)">
<g transform="translate(764.9 956.84) rotate(-81.413) scale(.08 -.08)">
<use xlink:href="#l"/>
<use x="60.818359" xlink:href="#d"/>
<use x="122.341797" xlink:href="#f"/>
<use x="163.439453" xlink:href="#k"/>
<use x="260.851562" xlink:href="#g"/>
<use x="288.634766" xlink:href="#h"/>
<use x="352.013672" xlink:href="#j"/>
<use x="413.292969" xlink:href="#i"/>
</g>
</g>
<path d="m780.14 922.56 5.2683 34.889q0.35834 2.3731 2.7314 2.0148l7.6557-1.156q2.3731-0.35834 2.0148-2.7314l-5.2683-34.889q-0.35834-2.3731-2.7314-2.0148l-7.6557 1.156q-2.3731 0.35834-2.0148 2.7314z" clip-path="url(#a)" fill="#fff" stroke="#fff"/>
<g clip-path="url(#a)">
<g transform="translate(784.15 921.95) rotate(81.413) scale(.08 -.08)">
<use xlink:href="#l"/>
<use x="60.818359" xlink:href="#d"/>
<use x="122.341797" xlink:href="#f"/>
<use x="163.439453" xlink:href="#k"/>
<use x="260.851562" xlink:href="#g"/>
<use x="288.634766" xlink:href="#h"/>
<use x="352.013672" xlink:href="#j"/>
<use x="413.292969" xlink:href="#i"/>
</g>
</g>
<path d="m121.08 787.15 1.615-5.3477q0.69385-2.2975-1.6037-2.9914l-7.4119-2.2384q-2.2975-0.69385-2.9914 1.6037l-1.615 5.3477q-0.69385 2.2975 1.6037 2.9914l7.4119 2.2384q2.2975 0.69385 2.9914-1.6037z" clip-path="url(#a)" fill="#fff" stroke="#fff"/>
<g clip-path="url(#a)">
<g transform="translate(117.19 785.97) rotate(-73.196) scale(.08 -.08)">
<use xlink:href="#r"/>
</g>
</g>
<path d="m133.23 779.67v5.985q0 2.4 2.4 2.4h7.7425q2.4 0 2.4-2.4v-5.985q0-2.4-2.4-2.4h-7.7425q-2.4 0-2.4 2.4z" clip-path="url(#a)" fill="#fff" stroke="#fff"/>
<g clip-path="url(#a)">
<defs>
<path id="av" d="m9.8125 72.906h13.281l32.328-60.984v60.984h9.5625v-72.906h-13.281l-32.312 60.984v-60.984h-9.5781z"/>
</defs>
<g transform="translate(137.29 779.67) rotate(90) scale(.08 -.08)">
<use xlink:href="#av"/>
</g>
</g>
<path d="m156.31 781.8 1.615 5.3477q0.69385 2.2975 2.9914 1.6037l7.4119-2.2384q2.2975-0.69385 1.6037-2.9914l-1.615-5.3477q-0.69385-2.2975-2.9914-1.6037l-7.4119 2.2384q-2.2975 0.69385-1.6037 2.9914z" clip-path="url(#a)" fill="#fff" stroke="#fff"/>
<g clip-path="url(#a)">
<g transform="translate(160.2 780.62) rotate(73.196) scale(.08 -.08)">
<use xlink:href="#r"/>
</g>
</g>
<path d="m339.86 633.57 4.7951-12.074q0.88584-2.2305-1.3447-3.1164l-7.4351-2.9528q-2.2305-0.88584-3.1164 1.3447l-4.7951 12.074q-0.88584 2.2305 1.3447 3.1164l7.4351 2.9528q2.2305 0.88584 3.1164-1.3447z" clip-path="url(#a)" fill="#fff" stroke="#fff"/>
<g clip-path="url(#a)">
<defs>
<path id="az" d="m21 76.422v-100h-8.2969v100z"/>
</defs>
<g transform="translate(335.88 631.98) rotate(-68.34) scale(.08 -.08)">
<use xlink:href="#s"/>
<use x="68.408203" xlink:href="#az"/>
<use x="102.099609" xlink:href="#y"/>
</g>
</g>
<path d="m392.45 624.94 2.0199 5.0861q0.88584 2.2305 3.1164 1.3447l7.1958-2.8577q2.2305-0.88584 1.3447-3.1164l-2.0199-5.0861q-0.88584-2.2305-3.1164-1.3447l-7.1958 2.8577q-2.2305 0.88584-1.3447 3.1164z" clip-path="url(#a)" fill="#fff" stroke="#fff"/>
<g clip-path="url(#a)">
<g transform="translate(396.23 623.44) rotate(68.34) scale(.08 -.08)">
<use xlink:href="#s"/>
</g>
</g>
<path d="m298.84 786.1 0.75475-4.9983q0.35834-2.3731-2.0148-2.7314l-7.6557-1.156q-2.3731-0.35834-2.7314 2.0148l-0.75475 4.9983q-0.35834 2.3731 2.0148 2.7314l7.6557 1.156q2.3731 0.35834 2.7314-2.0148z" clip-path="url(#a)" fill="#fff" stroke="#fff"/>
<g clip-path="url(#a)">
<g transform="translate(294.82 785.49) rotate(-81.413) scale(.08 -.08)">
<use xlink:href="#ab"/>
</g>
</g>
<path d="m310.01 780.83 0.83407 5.5236q0.35834 2.3731 2.7314 2.0148l7.6557-1.156q2.3731-0.35834 2.0148-2.7314l-0.83407-5.5236q-0.35834-2.3731-2.7314-2.0148l-7.6557 1.156q-2.3731 0.35834-2.0148 2.7314z" clip-path="url(#a)" fill="#fff" stroke="#fff"/>
<g clip-path="url(#a)">
<g transform="translate(314.03 780.23) rotate(81.413) scale(.08 -.08)">
<use xlink:href="#r"/>
</g>
</g>
<path d="m408.22 787.37 1.8472-5.2428q0.79754-2.2636-1.4661-3.0612l-7.3025-2.5729q-2.2636-0.79754-3.0612 1.4661l-1.8472 5.2428q-0.79754 2.2636 1.4661 3.0612l7.3025 2.5729q2.2636 0.79754 3.0612-1.4661z" clip-path="url(#a)" fill="#fff" stroke="#fff"/>
<g clip-path="url(#a)">
<g transform="translate(404.38 786.01) rotate(-70.591) scale(.08 -.08)">
<use xlink:href="#x"/>
</g>
</g>
<path d="m455.41 782.41 2.0866 5.1819q0.89645 2.2263 3.1227 1.3298l7.1821-2.892q2.2263-0.89645 1.3298-3.1227l-2.0866-5.1819q-0.89645-2.2263-3.1227-1.3298l-7.1821 2.892q-2.2263 0.89645-1.3298 3.1227z" clip-path="url(#a)" fill="#fff" stroke="#fff"/>
<g clip-path="url(#a)">
<g transform="translate(459.18 780.89) rotate(68.067) scale(.08 -.08)">
<use xlink:href="#r"/>
</g>
</g>
<path d="m432.96 785.9 0.29433-5.8476q0.12065-2.397-2.2763-2.5176l-7.7327-0.38921q-2.397-0.12065-2.5176 2.2763l-0.29433 5.8476q-0.12065 2.397 2.2763 2.5176l7.7327 0.38921q2.397 0.12065 2.5176-2.2763z" clip-path="url(#a)" fill="#fff" stroke="#fff"/>
<g clip-path="url(#a)">
<g transform="translate(428.9 785.69) rotate(-87.119) scale(.08 -.08)">
<use xlink:href="#t"/>
</g>
</g>
<path d="m369.4 921.42v35.285q0 2.4 2.4 2.4h7.7425q2.4 0 2.4-2.4v-35.285q0-2.4-2.4-2.4h-7.7425q-2.4 0-2.4 2.4z" clip-path="url(#a)" fill="#fff" stroke="#fff"/>
<g clip-path="url(#a)">
<g transform="translate(373.46 921.42) rotate(90) scale(.08 -.08)">
<use xlink:href="#l"/>
<use x="60.818359" xlink:href="#d"/>
<use x="122.341797" xlink:href="#f"/>
<use x="163.439453" xlink:href="#k"/>
<use x="260.851562" xlink:href="#g"/>
<use x="288.634766" xlink:href="#h"/>
<use x="352.013672" xlink:href="#j"/>
<use x="413.292969" xlink:href="#i"/>
</g>
</g>
<path d="m485.52 957.45 5.2683-34.889q0.35834-2.3731-2.0148-2.7314l-7.6557-1.156q-2.3731-0.35834-2.7314 2.0148l-5.2683 34.889q-0.35834 2.3731 2.0148 2.7314l7.6557 1.156q2.3731 0.35834 2.7314-2.0148z" clip-path="url(#a)" fill="#fff" stroke="#fff"/>
<g clip-path="url(#a)">
<g transform="translate(481.5 956.84) rotate(-81.413) scale(.08 -.08)">
<use xlink:href="#l"/>
<use x="60.818359" xlink:href="#d"/>
<use x="122.341797" xlink:href="#f"/>
<use x="163.439453" xlink:href="#k"/>
<use x="260.851562" xlink:href="#g"/>
<use x="288.634766" xlink:href="#h"/>
<use x="352.013672" xlink:href="#j"/>
<use x="413.292969" xlink:href="#i"/>
</g>
</g>
<path d="m496.73 922.56 5.2683 34.889q0.35834 2.3731 2.7314 2.0148l7.6557-1.156q2.3731-0.35834 2.0148-2.7314l-5.2683-34.889q-0.35834-2.3731-2.7314-2.0148l-7.6557 1.156q-2.3731 0.35834-2.0148 2.7314z" clip-path="url(#a)" fill="#fff" stroke="#fff"/>
<g clip-path="url(#a)">
<g transform="translate(500.75 921.95) rotate(81.413) scale(.08 -.08)">
<use xlink:href="#l"/>
<use x="60.818359" xlink:href="#d"/>
<use x="122.341797" xlink:href="#f"/>
<use x="163.439453" xlink:href="#k"/>
<use x="260.851562" xlink:href="#g"/>
<use x="288.634766" xlink:href="#h"/>
<use x="352.013672" xlink:href="#j"/>
<use x="413.292969" xlink:href="#i"/>
</g>
</g>
<path d="m227.7 921.42v35.285q0 2.4 2.4 2.4h7.7425q2.4 0 2.4-2.4v-35.285q0-2.4-2.4-2.4h-7.7425q-2.4 0-2.4 2.4z" clip-path="url(#a)" fill="#fff" stroke="#fff"/>
<g clip-path="url(#a)">
<g transform="translate(231.76 921.42) rotate(90) scale(.08 -.08)">
<use xlink:href="#l"/>
<use x="60.818359" xlink:href="#d"/>
<use x="122.341797" xlink:href="#f"/>
<use x="163.439453" xlink:href="#k"/>
<use x="260.851562" xlink:href="#g"/>
<use x="288.634766" xlink:href="#h"/>
<use x="352.013672" xlink:href="#j"/>
<use x="413.292969" xlink:href="#i"/>
</g>
</g>
<path d="m274.93 921.42v35.285q0 2.4 2.4 2.4h7.7425q2.4 0 2.4-2.4v-35.285q0-2.4-2.4-2.4h-7.7425q-2.4 0-2.4 2.4z" clip-path="url(#a)" fill="#fff" stroke="#fff"/>
<g clip-path="url(#a)">
<g transform="translate(279 921.42) rotate(90) scale(.08 -.08)">
<use xlink:href="#l"/>
<use x="60.818359" xlink:href="#d"/>
<use x="122.341797" xlink:href="#f"/>
<use x="163.439453" xlink:href="#k"/>
<use x="260.851562" xlink:href="#g"/>
<use x="288.634766" xlink:href="#h"/>
<use x="352.013672" xlink:href="#j"/>
<use x="413.292969" xlink:href="#i"/>
</g>
</g>
<path d="m322.17 921.42v35.285q0 2.4 2.4 2.4h7.7425q2.4 0 2.4-2.4v-35.285q0-2.4-2.4-2.4h-7.7425q-2.4 0-2.4 2.4z" clip-path="url(#a)" fill="#fff" stroke="#fff"/>
<g clip-path="url(#a)">
<g transform="translate(326.23 921.42) rotate(90) scale(.08 -.08)">
<use xlink:href="#l"/>
<use x="60.818359" xlink:href="#d"/>
<use x="122.341797" xlink:href="#f"/>
<use x="163.439453" xlink:href="#k"/>
<use x="260.851562" xlink:href="#g"/>
<use x="288.634766" xlink:href="#h"/>
<use x="352.013672" xlink:href="#j"/>
<use x="413.292969" xlink:href="#i"/>
</g>
</g>
<path d="m85.995 921.42v35.285q0 2.4 2.4 2.4h7.7425q2.4 0 2.4-2.4v-35.285q0-2.4-2.4-2.4h-7.7425q-2.4 0-2.4 2.4z" clip-path="url(#a)" fill="#fff" stroke="#fff"/>
<g clip-path="url(#a)">
<g transform="translate(90.059 921.42) rotate(90) scale(.08 -.08)">
<use xlink:href="#l"/>
<use x="60.818359" xlink:href="#d"/>
<use x="122.341797" xlink:href="#f"/>
<use x="163.439453" xlink:href="#k"/>
<use x="260.851562" xlink:href="#g"/>
<use x="288.634766" xlink:href="#h"/>
<use x="352.013672" xlink:href="#j"/>
<use x="413.292969" xlink:href="#i"/>
</g>
</g>
<path d="m133.23 921.42v35.285q0 2.4 2.4 2.4h7.7425q2.4 0 2.4-2.4v-35.285q0-2.4-2.4-2.4h-7.7425q-2.4 0-2.4 2.4z" clip-path="url(#a)" fill="#fff" stroke="#fff"/>
<g clip-path="url(#a)">
<g transform="translate(137.29 921.42) rotate(90) scale(.08 -.08)">
<use xlink:href="#l"/>
<use x="60.818359" xlink:href="#d"/>
<use x="122.341797" xlink:href="#f"/>
<use x="163.439453" xlink:href="#k"/>
<use x="260.851562" xlink:href="#g"/>
<use x="288.634766" xlink:href="#h"/>
<use x="352.013672" xlink:href="#j"/>
<use x="413.292969" xlink:href="#i"/>
</g>
</g>
<path d="m180.46 921.42v35.285q0 2.4 2.4 2.4h7.7425q2.4 0 2.4-2.4v-35.285q0-2.4-2.4-2.4h-7.7425q-2.4 0-2.4 2.4z" clip-path="url(#a)" fill="#fff" stroke="#fff"/>
<g clip-path="url(#a)">
<g transform="translate(184.53 921.42) rotate(90) scale(.08 -.08)">
<use xlink:href="#l"/>
<use x="60.818359" xlink:href="#d"/>
<use x="122.341797" xlink:href="#f"/>
<use x="163.439453" xlink:href="#k"/>
<use x="260.851562" xlink:href="#g"/>
<use x="288.634766" xlink:href="#h"/>
<use x="352.013672" xlink:href="#j"/>
<use x="413.292969" xlink:href="#i"/>
</g>
</g>
<path d="m416.63 921.42v35.285q0 2.4 2.4 2.4h7.7425q2.4 0 2.4-2.4v-35.285q0-2.4-2.4-2.4h-7.7425q-2.4 0-2.4 2.4z" clip-path="url(#a)" fill="#fff" stroke="#fff"/>
<g clip-path="url(#a)">
<g transform="translate(420.7 921.42) rotate(90) scale(.08 -.08)">
<use xlink:href="#l"/>
<use x="60.818359" xlink:href="#d"/>
<use x="122.341797" xlink:href="#f"/>
<use x="163.439453" xlink:href="#k"/>
<use x="260.851562" xlink:href="#g"/>
<use x="288.634766" xlink:href="#h"/>
<use x="352.013672" xlink:href="#j"/>
<use x="413.292969" xlink:href="#i"/>
</g>
</g>
<path d="m558.34 921.42v35.285q0 2.4 2.4 2.4h7.7425q2.4 0 2.4-2.4v-35.285q0-2.4-2.4-2.4h-7.7425q-2.4 0-2.4 2.4z" clip-path="url(#a)" fill="#fff" stroke="#fff"/>
<g clip-path="url(#a)">
<g transform="translate(562.4 921.42) rotate(90) scale(.08 -.08)">
<use xlink:href="#l"/>
<use x="60.818359" xlink:href="#d"/>
<use x="122.341797" xlink:href="#f"/>
<use x="163.439453" xlink:href="#k"/>
<use x="260.851562" xlink:href="#g"/>
<use x="288.634766" xlink:href="#h"/>
<use x="352.013672" xlink:href="#j"/>
<use x="413.292969" xlink:href="#i"/>
</g>
</g>
<path d="m605.57 921.42v35.285q0 2.4 2.4 2.4h7.7425q2.4 0 2.4-2.4v-35.285q0-2.4-2.4-2.4h-7.7425q-2.4 0-2.4 2.4z" clip-path="url(#a)" fill="#fff" stroke="#fff"/>
<g clip-path="url(#a)">
<g transform="translate(609.64 921.42) rotate(90) scale(.08 -.08)">
<use xlink:href="#l"/>
<use x="60.818359" xlink:href="#d"/>
<use x="122.341797" xlink:href="#f"/>
<use x="163.439453" xlink:href="#k"/>
<use x="260.851562" xlink:href="#g"/>
<use x="288.634766" xlink:href="#h"/>
<use x="352.013672" xlink:href="#j"/>
<use x="413.292969" xlink:href="#i"/>
</g>
</g>
<path d="m700.04 921.42v35.285q0 2.4 2.4 2.4h7.7425q2.4 0 2.4-2.4v-35.285q0-2.4-2.4-2.4h-7.7425q-2.4 0-2.4 2.4z" clip-path="url(#a)" fill="#fff" stroke="#fff"/>
<g clip-path="url(#a)">
<g transform="translate(704.1 921.42) rotate(90) scale(.08 -.08)">
<use xlink:href="#l"/>
<use x="60.818359" xlink:href="#d"/>
<use x="122.341797" xlink:href="#f"/>
<use x="163.439453" xlink:href="#k"/>
<use x="260.851562" xlink:href="#g"/>
<use x="288.634766" xlink:href="#h"/>
<use x="352.013672" xlink:href="#j"/>
<use x="413.292969" xlink:href="#i"/>
</g>
</g>
<path d="m841.74 921.42v35.285q0 2.4 2.4 2.4h7.7425q2.4 0 2.4-2.4v-35.285q0-2.4-2.4-2.4h-7.7425q-2.4 0-2.4 2.4z" clip-path="url(#a)" fill="#fff" stroke="#fff"/>
<g clip-path="url(#a)">
<g transform="translate(845.81 921.42) rotate(90) scale(.08 -.08)">
<use xlink:href="#l"/>
<use x="60.818359" xlink:href="#d"/>
<use x="122.341797" xlink:href="#f"/>
<use x="163.439453" xlink:href="#k"/>
<use x="260.851562" xlink:href="#g"/>
<use x="288.634766" xlink:href="#h"/>
<use x="352.013672" xlink:href="#j"/>
<use x="413.292969" xlink:href="#i"/>
</g>
</g>
<path d="m888.98 921.42v35.285q0 2.4 2.4 2.4h7.7425q2.4 0 2.4-2.4v-35.285q0-2.4-2.4-2.4h-7.7425q-2.4 0-2.4 2.4z" clip-path="url(#a)" fill="#fff" stroke="#fff"/>
<g clip-path="url(#a)">
<g transform="translate(893.04 921.42) rotate(90) scale(.08 -.08)">
<use xlink:href="#l"/>
<use x="60.818359" xlink:href="#d"/>
<use x="122.341797" xlink:href="#f"/>
<use x="163.439453" xlink:href="#k"/>
<use x="260.851562" xlink:href="#g"/>
<use x="288.634766" xlink:href="#h"/>
<use x="352.013672" xlink:href="#j"/>
<use x="413.292969" xlink:href="#i"/>
</g>
</g>
<path d="m1219.6 921.42v35.285q0 2.4 2.4 2.4h7.7425q2.4 0 2.4-2.4v-35.285q0-2.4-2.4-2.4h-7.7425q-2.4 0-2.4 2.4z" clip-path="url(#a)" fill="#fff" stroke="#fff"/>
<g clip-path="url(#a)">
<g transform="translate(1223.7 921.42) rotate(90) scale(.08 -.08)">
<use xlink:href="#l"/>
<use x="60.818359" xlink:href="#d"/>
<use x="122.341797" xlink:href="#f"/>
<use x="163.439453" xlink:href="#k"/>
<use x="260.851562" xlink:href="#g"/>
<use x="288.634766" xlink:href="#h"/>
<use x="352.013672" xlink:href="#j"/>
<use x="413.292969" xlink:href="#i"/>
</g>
</g>
<path d="m1455.8 921.42v35.285q0 2.4 2.4 2.4h7.7425q2.4 0 2.4-2.4v-35.285q0-2.4-2.4-2.4h-7.7425q-2.4 0-2.4 2.4z" clip-path="url(#a)" fill="#fff" stroke="#fff"/>
<g clip-path="url(#a)">
<g transform="translate(1459.9 921.42) rotate(90) scale(.08 -.08)">
<use xlink:href="#l"/>
<use x="60.818359" xlink:href="#d"/>
<use x="122.341797" xlink:href="#f"/>
<use x="163.439453" xlink:href="#k"/>
<use x="260.851562" xlink:href="#g"/>
<use x="288.634766" xlink:href="#h"/>
<use x="352.013672" xlink:href="#j"/>
<use x="413.292969" xlink:href="#i"/>
</g>
</g>
<path d="m1928.1 921.42v35.285q0 2.4 2.4 2.4h7.7425q2.4 0 2.4-2.4v-35.285q0-2.4-2.4-2.4h-7.7425q-2.4 0-2.4 2.4z" clip-path="url(#a)" fill="#fff" stroke="#fff"/>
<g clip-path="url(#a)">
<g transform="translate(1932.2 921.42) rotate(90) scale(.08 -.08)">
<use xlink:href="#l"/>
<use x="60.818359" xlink:href="#d"/>
<use x="122.341797" xlink:href="#f"/>
<use x="163.439453" xlink:href="#k"/>
<use x="260.851562" xlink:href="#g"/>
<use x="288.634766" xlink:href="#h"/>
<use x="352.013672" xlink:href="#j"/>
<use x="413.292969" xlink:href="#i"/>
</g>
</g>
<defs>
<path id="b" d="m0 8.6603c2.2967 0 4.4997-0.9125 6.1237-2.5365 1.624-1.624 2.5365-3.827 2.5365-6.1237s-0.9125-4.4997-2.5365-6.1237c-1.624-1.624-3.827-2.5365-6.1237-2.5365s-4.4997 0.9125-6.1237 2.5365c-1.624 1.624-2.5365 3.827-2.5365 6.1237s0.9125 4.4997 2.5365 6.1237c1.624 1.624 3.827 2.5365 6.1237 2.5365z"/>
</defs>
<g clip-path="url(#a)">
<use x="92.266536" y="1017.267525" fill="#ffffff" stroke="#ffffff" xlink:href="#b"/>
</g>
<g clip-path="url(#a)">
<use x="139.500731" y="1017.267525" fill="#ffffff" stroke="#ffffff" xlink:href="#b"/>
</g>
<g clip-path="url(#a)">
<use x="186.734926" y="1017.267525" fill="#ffffff" stroke="#ffffff" xlink:href="#b"/>
</g>
<g clip-path="url(#a)">
<use x="233.96912" y="1017.267525" fill="#ffffff" stroke="#ffffff" xlink:href="#b"/>
</g>
<g clip-path="url(#a)">
<use x="281.203315" y="1017.267525" fill="#ffffff" stroke="#ffffff" xlink:href="#b"/>
</g>
<g clip-path="url(#a)">
<use x="328.43751" y="1017.267525" fill="#ffffff" stroke="#ffffff" xlink:href="#b"/>
</g>
<g clip-path="url(#a)">
<use x="375.671704" y="1017.267525" fill="#ffffff" stroke="#ffffff" xlink:href="#b"/>
</g>
<g clip-path="url(#a)">
<use x="422.905899" y="1017.267525" fill="#ffffff" stroke="#ffffff" xlink:href="#b"/>
</g>
<g clip-path="url(#a)">
<use x="470.140094" y="1017.267525" fill="#ffffff" stroke="#ffffff" xlink:href="#b"/>
</g>
<g clip-path="url(#a)">
<use x="517.374289" y="1017.267525" fill="#ffffff" stroke="#ffffff" xlink:href="#b"/>
</g>
<g clip-path="url(#a)">
<use x="564.608483" y="1017.267525" fill="#ffffff" stroke="#ffffff" xlink:href="#b"/>
</g>
<g clip-path="url(#a)">
<use x="611.842678" y="1017.267525" fill="#ffffff" stroke="#ffffff" xlink:href="#b"/>
</g>
<g clip-path="url(#a)">
<use x="659.076873" y="1017.267525" fill="#ffffff" stroke="#ffffff" xlink:href="#b"/>
</g>
<g clip-path="url(#a)">
<use x="706.311068" y="1017.267525" fill="#ffffff" stroke="#ffffff" xlink:href="#b"/>
</g>
<g clip-path="url(#a)">
<use x="753.545262" y="1017.267525" fill="#ffffff" stroke="#ffffff" xlink:href="#b"/>
</g>
<g clip-path="url(#a)">
<use x="800.779457" y="1017.267525" fill="#ffffff" stroke="#ffffff" xlink:href="#b"/>
</g>
<g clip-path="url(#a)">
<use x="848.013652" y="1017.267525" fill="#ffffff" stroke="#ffffff" xlink:href="#b"/>
</g>
<g clip-path="url(#a)">
<use x="895.247847" y="1017.267525" fill="#ffffff" stroke="#ffffff" xlink:href="#b"/>
</g>
<g clip-path="url(#a)">
<use x="942.482041" y="1017.267525" fill="#ffffff" stroke="#ffffff" xlink:href="#b"/>
</g>
<g clip-path="url(#a)">
<use x="989.716236" y="1017.267525" fill="#ffffff" stroke="#ffffff" xlink:href="#b"/>
</g>
<g clip-path="url(#a)">
<use x="1036.950431" y="1017.267525" fill="#ffffff" stroke="#ffffff" xlink:href="#b"/>
</g>
<g clip-path="url(#a)">
<use x="1084.184625" y="1017.267525" fill="#ffffff" stroke="#ffffff" xlink:href="#b"/>
</g>
<g clip-path="url(#a)">
<use x="1131.41882" y="1017.267525" fill="#ffffff" stroke="#ffffff" xlink:href="#b"/>
</g>
<g clip-path="url(#a)">
<use x="1178.653015" y="1017.267525" fill="#ffffff" stroke="#ffffff" xlink:href="#b"/>
</g>
<g clip-path="url(#a)">
<use x="1225.88721" y="1017.267525" fill="#ffffff" stroke="#ffffff" xlink:href="#b"/>
</g>
<g clip-path="url(#a)">
<use x="1273.121404" y="1017.267525" fill="#ffffff" stroke="#ffffff" xlink:href="#b"/>
</g>
<g clip-path="url(#a)">
<use x="1320.355599" y="1017.267525" fill="#ffffff" stroke="#ffffff" xlink:href="#b"/>
</g>
<g clip-path="url(#a)">
<use x="1367.589794" y="1017.267525" fill="#ffffff" stroke="#ffffff" xlink:href="#b"/>
</g>
<g clip-path="url(#a)">
<use x="1414.823989" y="1017.267525" fill="#ffffff" stroke="#ffffff" xlink:href="#b"/>
</g>
<g clip-path="url(#a)">
<use x="1462.058183" y="1017.267525" fill="#ffffff" stroke="#ffffff" xlink:href="#b"/>
</g>
<g clip-path="url(#a)">
<use x="1509.292378" y="1017.267525" fill="#ffffff" stroke="#ffffff" xlink:href="#b"/>
</g>
<g clip-path="url(#a)">
<use x="1556.526573" y="1017.267525" fill="#ffffff" stroke="#ffffff" xlink:href="#b"/>
</g>
<g clip-path="url(#a)">
<use x="1603.760767" y="1017.267525" fill="#ffffff" stroke="#ffffff" xlink:href="#b"/>
</g>
<g clip-path="url(#a)">
<use x="1650.994962" y="1017.267525" fill="#ffffff" stroke="#ffffff" xlink:href="#b"/>
</g>
<g clip-path="url(#a)">
<use x="1698.229157" y="1017.267525" fill="#ffffff" stroke="#ffffff" xlink:href="#b"/>
</g>
<g clip-path="url(#a)">
<use x="1745.463352" y="1017.267525" fill="#ffffff" stroke="#ffffff" xlink:href="#b"/>
</g>
<g clip-path="url(#a)">
<use x="1792.697546" y="1017.267525" fill="#ffffff" stroke="#ffffff" xlink:href="#b"/>
</g>
<g clip-path="url(#a)">
<use x="1839.931741" y="1017.267525" fill="#ffffff" stroke="#ffffff" xlink:href="#b"/>
</g>
<g clip-path="url(#a)">
<use x="1887.165936" y="1017.267525" fill="#ffffff" stroke="#ffffff" xlink:href="#b"/>
</g>
<g clip-path="url(#a)">
<use x="1934.400131" y="1017.267525" fill="#ffffff" stroke="#ffffff" xlink:href="#b"/>
</g>
<g clip-path="url(#a)">
<use x="936.263419" y="49.399141" fill="#ffffff" stroke="#ffffff" xlink:href="#b"/>
</g>
<g clip-path="url(#a)">
<use x="594.348532" y="218.924597" fill="#ffffff" stroke="#ffffff" xlink:href="#b"/>
</g>
<g clip-path="url(#a)">
<use x="1407.443646" y="384.241949" fill="#ffffff" stroke="#ffffff" xlink:href="#b"/>
</g>
<g clip-path="url(#a)">
<use x="1036.950431" y="545.876423" fill="#ffffff" stroke="#ffffff" xlink:href="#b"/>
</g>
<g clip-path="url(#a)">
<use x="1178.653015" y="860.862413" fill="#ffffff" stroke="#ffffff" xlink:href="#b"/>
</g>
<g clip-path="url(#a)">
<use x="1343.972696" y="704.457302" fill="#ffffff" stroke="#ffffff" xlink:href="#b"/>
</g>
<g clip-path="url(#a)">
<use x="1509.292378" y="860.862413" fill="#ffffff" stroke="#ffffff" xlink:href="#b"/>
</g>
<g clip-path="url(#a)">
<use x="1639.186413" y="545.876423" fill="#ffffff" stroke="#ffffff" xlink:href="#b"/>
</g>
<g clip-path="url(#a)">
<use x="1863.548838" y="704.457302" fill="#ffffff" stroke="#ffffff" xlink:href="#b"/>
</g>
<g clip-path="url(#a)">
<use x="1792.697546" y="860.862413" fill="#ffffff" stroke="#ffffff" xlink:href="#b"/>
</g>
<g clip-path="url(#a)">
<use x="1839.931741" y="860.862413" fill="#ffffff" stroke="#ffffff" xlink:href="#b"/>
</g>
<g clip-path="url(#a)">
<use x="1887.165936" y="860.862413" fill="#ffffff" stroke="#ffffff" xlink:href="#b"/>
</g>
<g clip-path="url(#a)">
<use x="1580.14367" y="704.457302" fill="#ffffff" stroke="#ffffff" xlink:href="#b"/>
</g>
<g clip-path="url(#a)">
<use x="1698.229157" y="860.862413" fill="#ffffff" stroke="#ffffff" xlink:href="#b"/>
</g>
<g clip-path="url(#a)">
<use x="1556.526573" y="860.862413" fill="#ffffff" stroke="#ffffff" xlink:href="#b"/>
</g>
<g clip-path="url(#a)">
<use x="1603.760767" y="860.862413" fill="#ffffff" stroke="#ffffff" xlink:href="#b"/>
</g>
<g clip-path="url(#a)">
<use x="1273.121404" y="860.862413" fill="#ffffff" stroke="#ffffff" xlink:href="#b"/>
</g>
<g clip-path="url(#a)">
<use x="1320.355599" y="860.862413" fill="#ffffff" stroke="#ffffff" xlink:href="#b"/>
</g>
<g clip-path="url(#a)">
<use x="1367.589794" y="860.862413" fill="#ffffff" stroke="#ffffff" xlink:href="#b"/>
</g>
<g clip-path="url(#a)">
<use x="1414.823989" y="860.862413" fill="#ffffff" stroke="#ffffff" xlink:href="#b"/>
</g>
<g clip-path="url(#a)">
<use x="966.099139" y="704.457302" fill="#ffffff" stroke="#ffffff" xlink:href="#b"/>
</g>
<g clip-path="url(#a)">
<use x="1036.950431" y="860.862413" fill="#ffffff" stroke="#ffffff" xlink:href="#b"/>
</g>
<g clip-path="url(#a)">
<use x="1107.801723" y="704.457302" fill="#ffffff" stroke="#ffffff" xlink:href="#b"/>
</g>
<g clip-path="url(#a)">
<use x="1084.184625" y="860.862413" fill="#ffffff" stroke="#ffffff" xlink:href="#b"/>
</g>
<g clip-path="url(#a)">
<use x="1131.41882" y="860.862413" fill="#ffffff" stroke="#ffffff" xlink:href="#b"/>
</g>
<g clip-path="url(#a)">
<use x="942.482041" y="860.862413" fill="#ffffff" stroke="#ffffff" xlink:href="#b"/>
</g>
<g clip-path="url(#a)">
<use x="989.716236" y="860.862413" fill="#ffffff" stroke="#ffffff" xlink:href="#b"/>
</g>
<g clip-path="url(#a)">
<use x="247.08973" y="384.241949" fill="#ffffff" stroke="#ffffff" xlink:href="#b"/>
</g>
<g clip-path="url(#a)">
<use x="659.076873" y="860.862413" fill="#ffffff" stroke="#ffffff" xlink:href="#b"/>
</g>
<g clip-path="url(#a)">
<use x="777.16236" y="860.862413" fill="#ffffff" stroke="#ffffff" xlink:href="#b"/>
</g>
<g clip-path="url(#a)">
<use x="139.500731" y="704.457302" fill="#ffffff" stroke="#ffffff" xlink:href="#b"/>
</g>
<g clip-path="url(#a)">
<use x="367.799339" y="545.876423" fill="#ffffff" stroke="#ffffff" xlink:href="#b"/>
</g>
<g clip-path="url(#a)">
<use x="304.820412" y="704.457302" fill="#ffffff" stroke="#ffffff" xlink:href="#b"/>
</g>
<g clip-path="url(#a)">
<use x="430.778265" y="704.457302" fill="#ffffff" stroke="#ffffff" xlink:href="#b"/>
</g>
<g clip-path="url(#a)">
<use x="375.671704" y="860.862413" fill="#ffffff" stroke="#ffffff" xlink:href="#b"/>
</g>
<g clip-path="url(#a)">
<use x="493.757191" y="860.862413" fill="#ffffff" stroke="#ffffff" xlink:href="#b"/>
</g>
<g clip-path="url(#a)">
<use x="233.96912" y="860.862413" fill="#ffffff" stroke="#ffffff" xlink:href="#b"/>
</g>
<g clip-path="url(#a)">
<use x="281.203315" y="860.862413" fill="#ffffff" stroke="#ffffff" xlink:href="#b"/>
</g>
<g clip-path="url(#a)">
<use x="328.43751" y="860.862413" fill="#ffffff" stroke="#ffffff" xlink:href="#b"/>
</g>
<g clip-path="url(#a)">
<use x="92.266536" y="860.862413" fill="#ffffff" stroke="#ffffff" xlink:href="#b"/>
</g>
<g clip-path="url(#a)">
<use x="139.500731" y="860.862413" fill="#ffffff" stroke="#ffffff" xlink:href="#b"/>
</g>
<g clip-path="url(#a)">
<use x="186.734926" y="860.862413" fill="#ffffff" stroke="#ffffff" xlink:href="#b"/>
</g>
<g clip-path="url(#a)">
<use x="422.905899" y="860.862413" fill="#ffffff" stroke="#ffffff" xlink:href="#b"/>
</g>
<g clip-path="url(#a)">
<use x="564.608483" y="860.862413" fill="#ffffff" stroke="#ffffff" xlink:href="#b"/>
</g>
<g clip-path="url(#a)">
<use x="611.842678" y="860.862413" fill="#ffffff" stroke="#ffffff" xlink:href="#b"/>
</g>
<g clip-path="url(#a)">
<use x="706.311068" y="860.862413" fill="#ffffff" stroke="#ffffff" xlink:href="#b"/>
</g>
<g clip-path="url(#a)">
<use x="848.013652" y="860.862413" fill="#ffffff" stroke="#ffffff" xlink:href="#b"/>
</g>
<g clip-path="url(#a)">
<use x="895.247847" y="860.862413" fill="#ffffff" stroke="#ffffff" xlink:href="#b"/>
</g>
<g clip-path="url(#a)">
<use x="1225.88721" y="860.862413" fill="#ffffff" stroke="#ffffff" xlink:href="#b"/>
</g>
<g clip-path="url(#a)">
<use x="1462.058183" y="860.862413" fill="#ffffff" stroke="#ffffff" xlink:href="#b"/>
</g>
<g clip-path="url(#a)">
<use x="1934.400131" y="860.862413" fill="#ffffff" stroke="#ffffff" xlink:href="#b"/>
</g>
<g clip-path="url(#a)">
<defs>
<path id="ao" d="m9.8125 72.906h9.8594v-64.609h35.5v-8.2969h-45.359z"/>
<path id="ak" d="m48.688 27.297q0 9.9062-4.0781 15.547t-11.203 5.6406q-7.1406 0-11.219-5.6406t-4.0781-15.547 4.0781-15.547 11.219-5.6406q7.125 0 11.203 5.6406t4.0781 15.547zm-30.578 19.094q2.8438 4.875 7.1562 7.2344 4.3281 2.375 10.328 2.375 9.9688 0 16.188-7.9062 6.2344-7.9062 6.2344-20.797t-6.2344-20.812q-6.2188-7.9062-16.188-7.9062-6 0-10.328 2.375-4.3125 2.375-7.1562 7.25v-8.2031h-9.0312v75.984h9.0312z"/>
</defs>
<g transform="translate(76.71 1020) scale(.1 -.1)">
<use xlink:href="#ao"/>
<use x="55.697266" xlink:href="#d"/>
<use x="117.220703" xlink:href="#g"/>
<use x="145.003906" xlink:href="#ak"/>
<use x="208.480469" xlink:href="#d"/>
<use x="270.003906" xlink:href="#f"/>
</g>
</g>
<g clip-path="url(#a)">
<defs>
<path id="af" d="m45.406 46.391v29.594h8.9844v-75.984h-8.9844v8.2031q-2.8281-4.875-7.1562-7.25-4.3125-2.375-10.375-2.375-9.9062 0-16.141 7.9062-6.2188 7.9219-6.2188 20.812t6.2188 20.797q6.2344 7.9062 16.141 7.9062 6.0625 0 10.375-2.375 4.3281-2.3594 7.1562-7.2344zm-30.609-19.094q0-9.9062 4.0781-15.547t11.203-5.6406 11.219 5.6406q4.1094 5.6406 4.1094 15.547t-4.1094 15.547q-4.0938 5.6406-11.219 5.6406t-11.203-5.6406-4.0781-15.547z"/>
</defs>
<g transform="translate(130.09 1020) scale(.1 -.1)">
<use xlink:href="#j"/>
<use x="61.279297" xlink:href="#h"/>
<use x="124.658203" xlink:href="#af"/>
</g>
</g>
<g clip-path="url(#a)">
<defs>
<path id="ag" d="m53.516 70.516v-9.625q-5.6094 2.6875-10.594 4-4.9844 1.3281-9.625 1.3281-8.0469 0-12.422-3.125t-4.375-8.8906q0-4.8438 2.9062-7.3125 2.9062-2.4531 11.016-3.9688l5.9531-1.2188q11.031-2.1094 16.281-7.4062t5.25-14.172q0-10.609-7.1094-16.078-7.0938-5.4688-20.812-5.4688-5.1719 0-11.016 1.1719-5.8281 1.1719-12.078 3.4688v10.156q6-3.3594 11.766-5.0781 5.7656-1.7031 11.328-1.7031 8.4375 0 13.031 3.3125 4.5938 3.3281 4.5938 9.4844 0 5.3594-3.2969 8.3906t-10.812 4.5469l-6.0156 1.1719q-11.031 2.1875-15.969 6.875-4.9219 4.6875-4.9219 13.047 0 9.6719 6.8125 15.234t18.766 5.5625q5.1406 0 10.453-0.9375 5.3281-0.92188 10.891-2.7656z"/>
<path id="q" d="m18.312 70.219v-15.531h18.5v-6.9844h-18.5v-29.688q0-6.6875 1.8281-8.5938t7.4531-1.9062h9.2188v-7.5156h-9.2188q-10.406 0-14.359 3.875-3.9531 3.8906-3.9531 14.141v29.688h-6.5938v6.9844h6.5938v15.531z"/>
<path id="u" d="m30.609 48.391q-7.2188 0-11.422-5.6406t-4.2031-15.453 4.1719-15.453q4.1875-5.6406 11.453-5.6406 7.1875 0 11.375 5.6562 4.2031 5.6719 4.2031 15.438 0 9.7188-4.2031 15.406-4.1875 5.6875-11.375 5.6875zm0 7.6094q11.719 0 18.406-7.625 6.7031-7.6094 6.7031-21.078 0-13.422-6.7031-21.078-6.6875-7.6406-18.406-7.6406-11.766 0-18.438 7.6406-6.6562 7.6562-6.6562 21.078 0 13.469 6.6562 21.078 6.6719 7.625 18.438 7.625z"/>
</defs>
<g transform="translate(170.63 1020) scale(.1 -.1)">
<use xlink:href="#ag"/>
<use x="63.476562" xlink:href="#q"/>
<use x="102.685547" xlink:href="#u"/>
<use x="163.867188" xlink:href="#i"/>
<use x="191.650391" xlink:href="#i"/>
<use x="219.433594" xlink:href="#d"/>
<use x="280.957031" xlink:href="#f"/>
</g>
</g>
<g clip-path="url(#a)">
<defs>
<path id="ah" d="m11.719 12.406h10.297v-8.4062l-8-15.625h-6.2969l4 15.625z"/>
</defs>
<g transform="translate(232.38 1020) scale(.1 -.1)">
<use xlink:href="#ah"/>
</g>
</g>
<g clip-path="url(#a)">
<defs>
<path id="w" d="m54.891 33.016v-33.016h-8.9844v32.719q0 7.7656-3.0312 11.609-3.0312 3.8594-9.0781 3.8594-7.2812 0-11.484-4.6406-4.2031-4.625-4.2031-12.641v-30.906h-9.0312v75.984h9.0312v-29.797q3.2344 4.9375 7.5938 7.375 4.375 2.4375 10.094 2.4375 9.4219 0 14.25-5.8281 4.8438-5.8281 4.8438-17.156z"/>
</defs>
<g transform="translate(273 1020) scale(.1 -.1)">
<use xlink:href="#q"/>
<use x="39.208984" xlink:href="#w"/>
<use x="102.587891" xlink:href="#d"/>
</g>
</g>
<g clip-path="url(#a)">
<defs>
<path id="aj" d="m4.2031 54.688h8.9844l11.234-42.672 11.172 42.672h10.594l11.234-42.672 11.188 42.672h8.9844l-14.312-54.688h-10.594l-11.766 44.828-11.812-44.828h-10.609z"/>
<path id="v" d="m44.281 53.078v-8.5q-3.7969 1.9531-7.9062 2.9219-4.0938 0.98438-8.5 0.98438-6.6875 0-10.031-2.0469t-3.3438-6.1562q0-3.125 2.3906-4.9062t9.625-3.3906l3.0781-0.6875q9.5625-2.0469 13.594-5.7812t4.0312-10.422q0-7.625-6.0312-12.078-6.0312-4.4375-16.578-4.4375-4.3906 0-9.1562 0.85938t-10.031 2.5625v9.2812q4.9844-2.5938 9.8125-3.8906 4.8281-1.2812 9.5781-1.2812 6.3438 0 9.75 2.1719 3.4219 2.1719 3.4219 6.125 0 3.6562-2.4688 5.6094-2.4531 1.9531-10.812 3.7656l-3.125 0.73438q-8.3438 1.75-12.062 5.3906-3.7031 3.6406-3.7031 9.9844 0 7.7188 5.4688 11.906 5.4688 4.2031 15.531 4.2031 4.9688 0 9.3594-0.73438 4.4062-0.71875 8.1094-2.1875z"/>
</defs>
<g transform="translate(311.21 1020) scale(.1 -.1)">
<use xlink:href="#aj"/>
<use x="81.787109" xlink:href="#f"/>
<use x="122.900391" xlink:href="#g"/>
<use x="150.683594" xlink:href="#q"/>
<use x="189.892578" xlink:href="#d"/>
<use x="251.416016" xlink:href="#f"/>
<use x="292.529297" xlink:href="#v"/>
</g>
</g>
<g clip-path="url(#a)">
<defs>
<path id="an" d="m37.109 75.984v-7.4844h-8.5938q-4.8281 0-6.7188-1.9531-1.875-1.9531-1.875-7.0312v-4.8281h14.797v-6.9844h-14.797v-47.703h-9.0312v47.703h-8.5938v6.9844h8.5938v3.8125q0 9.125 4.25 13.297 4.25 4.1875 13.469 4.1875z"/>
</defs>
<g transform="translate(370.85 1020) scale(.1 -.1)">
<use xlink:href="#u"/>
<use x="61.181641" xlink:href="#an"/>
</g>
</g>
<g clip-path="url(#a)">
<defs>
<path id="ai" d="m17.922 72.906v-27.109h-8.2969v27.109zm18.453 0v-27.109h-8.2969v27.109z"/>
</defs>
<g transform="translate(420.61 1020) scale(.1 -.1)">
<use xlink:href="#ai"/>
</g>
</g>
<g clip-path="url(#a)">
<defs>
<path id="am" d="m8.5 21.578v33.109h8.9844v-32.766q0-7.7656 3.0156-11.656 3.0312-3.875 9.0938-3.875 7.2656 0 11.484 4.6406 4.2344 4.6406 4.2344 12.656v31h8.9844v-54.688h-8.9844v8.4062q-3.2656-4.9844-7.5938-7.4062-4.3125-2.4219-10.031-2.4219-9.4219 0-14.312 5.8594-4.875 5.8594-4.875 17.141z"/>
</defs>
<g transform="translate(453.81 1020) scale(.1 -.1)">
<use xlink:href="#al"/>
<use x="75.195312" xlink:href="#u"/>
<use x="136.376953" xlink:href="#am"/>
<use x="199.755859" xlink:href="#h"/>
<use x="263.134766" xlink:href="#af"/>
</g>
</g>
<g clip-path="url(#a)">
<defs>
<path id="as" d="m45.406 27.984q0 9.7656-4.0312 15.125-4.0156 5.375-11.297 5.375-7.2188 0-11.25-5.375-4.0312-5.3594-4.0312-15.125 0-9.7188 4.0312-15.094t11.25-5.375q7.2812 0 11.297 5.375 4.0312 5.375 4.0312 15.094zm8.9844-21.203q0-13.953-6.2031-20.766-6.1875-6.8125-18.984-6.8125-4.7344 0-8.9375 0.70312t-8.1562 2.1719v8.7344q3.9531-2.1406 7.8125-3.1562 3.8594-1.0312 7.8594-1.0312 8.8438 0 13.234 4.6094t4.3906 13.938v4.4531q-2.7812-4.8438-7.125-7.2344t-10.406-2.3906q-10.047 0-16.203 7.6562-6.1562 7.6719-6.1562 20.328 0 12.688 6.1562 20.344 6.1562 7.6719 16.203 7.6719 6.0625 0 10.406-2.3906t7.125-7.2188v8.2969h8.9844z"/>
</defs>
<g transform="translate(507.29 1020) scale(.1 -.1)">
<use xlink:href="#ap"/>
<use x="77.001953" xlink:href="#u"/>
<use x="138.183594" xlink:href="#as"/>
</g>
</g>
<g clip-path="url(#a)">
<g transform="translate(562.31 1020) scale(.1 -.1)">
<use xlink:href="#ai"/>
</g>
</g>
<g clip-path="url(#a)">
<g transform="translate(610.25 1020) scale(.1 -.1)">
<use xlink:href="#ah"/>
</g>
</g>
<g clip-path="url(#a)">
<defs>
<path id="at" d="m48.781 52.594v-8.4062q-3.8125 2.1094-7.6406 3.1562t-7.7344 1.0469q-8.75 0-13.594-5.5469-4.8281-5.5312-4.8281-15.547t4.8281-15.562q4.8438-5.5312 13.594-5.5312 3.9062 0 7.7344 1.0469t7.6406 3.1562v-8.3125q-3.7656-1.75-7.7969-2.625-4.0156-0.89062-8.5625-0.89062-12.359 0-19.641 7.7656-7.2656 7.7656-7.2656 20.953 0 13.375 7.3438 21.031 7.3594 7.6719 20.156 7.6719 4.1406 0 8.0938-0.85938 3.9531-0.84375 7.6719-2.5469z"/>
</defs>
<g transform="translate(630.14 1020) scale(.1 -.1)">
<use xlink:href="#at"/>
<use x="54.980469" xlink:href="#u"/>
<use x="116.162109" xlink:href="#h"/>
<use x="179.541016" xlink:href="#q"/>
<use x="218.75" xlink:href="#f"/>
<use x="259.863281" xlink:href="#g"/>
<use x="287.646484" xlink:href="#ak"/>
<use x="351.123047" xlink:href="#am"/>
<use x="414.501953" xlink:href="#q"/>
<use x="453.710938" xlink:href="#d"/>
<use x="515.234375" xlink:href="#af"/>
</g>
</g>
<g clip-path="url(#a)">
<g transform="translate(704.01 1020) scale(.1 -.1)">
<use xlink:href="#ai"/>
</g>
</g>
<g clip-path="url(#a)">
<defs>
<path id="ar" d="m2.9844 54.688h9.5156l17.094-45.891 17.094 45.891h9.5156l-20.516-54.688h-12.203z"/>
</defs>
<g transform="translate(741.66 1020) scale(.1 -.1)">
<use xlink:href="#ao"/>
<use x="55.697266" xlink:href="#u"/>
<use x="116.878906" xlink:href="#ar"/>
<use x="176.058594" xlink:href="#d"/>
</g>
</g>
<g clip-path="url(#a)">
<defs>
<path id="aw" d="m9.8125 72.906h14.703l18.594-49.609 18.703 49.609h14.703v-72.906h-9.625v64.016l-18.797-50h-9.9062l-18.797 50v-64.016h-9.5781z"/>
</defs>
<g transform="translate(793.39 1020) scale(.1 -.1)">
<use xlink:href="#aw"/>
<use x="86.279297" xlink:href="#d"/>
</g>
</g>
<g clip-path="url(#a)">
<g transform="translate(845.71 1020) scale(.1 -.1)">
<use xlink:href="#ai"/>
</g>
</g>
<g clip-path="url(#a)">
<defs>
<path id="e" d="m10.688 12.406h10.312v-12.406h-10.312z"/>
</defs>
<g transform="translate(893.66 1020) scale(.1 -.1)">
<use xlink:href="#e"/>
</g>
</g>
<g clip-path="url(#a)">
<g transform="translate(930.04 1020) scale(.1 -.1)">
<use xlink:href="#s"/>
<use x="68.408203" xlink:href="#i"/>
<use x="96.191406" xlink:href="#i"/>
<use x="123.974609" xlink:href="#d"/>
<use x="185.498047" xlink:href="#h"/>
</g>
</g>
<g clip-path="url(#a)">
<defs>
<path id="aq" d="m17.922 72.906v-27.109h-8.2969v27.109z"/>
</defs>
<g transform="translate(985.74 1020) scale(.1 -.1)">
<use xlink:href="#aq"/>
<use x="27.490234" xlink:href="#v"/>
</g>
</g>
<g clip-path="url(#a)">
<g transform="translate(1024 1020) scale(.1 -.1)">
<use xlink:href="#v"/>
<use x="52.099609" xlink:href="#w"/>
<use x="115.478516" xlink:href="#u"/>
<use x="176.660156" xlink:href="#aj"/>
</g>
</g>
<g clip-path="url(#a)">
<g transform="translate(1073.6 1020) scale(.1 -.1)">
<use xlink:href="#aj"/>
<use x="81.787109" xlink:href="#g"/>
<use x="109.570312" xlink:href="#q"/>
<use x="148.779297" xlink:href="#w"/>
</g>
</g>
<g clip-path="url(#a)">
<defs>
<path id="ba" d="m32.172-5.0781q-3.7969-9.7656-7.4219-12.734-3.6094-2.9844-9.6562-2.9844h-7.1875v7.5156h5.2812q3.7031 0 5.75 1.7656 2.0625 1.75 4.5469 8.2969l1.6094 4.0938-22.109 53.812h9.5156l17.094-42.766 17.094 42.766h9.5156z"/>
</defs>
<g transform="translate(1113.2 1020) scale(.1 -.1)">
<use xlink:href="#y"/>
<use x="60.287109" xlink:href="#f"/>
<use x="101.369141" xlink:href="#d"/>
<use x="162.892578" xlink:href="#v"/>
<use x="214.992188" xlink:href="#i"/>
<use x="242.775391" xlink:href="#d"/>
<use x="304.298828" xlink:href="#ba"/>
</g>
</g>
<g clip-path="url(#a)">
<g transform="translate(1169.2 1020) scale(.1 -.1)">
<use xlink:href="#w"/>
<use x="63.378906" xlink:href="#j"/>
<use x="124.658203" xlink:href="#af"/>
</g>
</g>
<g clip-path="url(#a)">
<g transform="translate(1224.3 1020) scale(.1 -.1)">
<use xlink:href="#ah"/>
</g>
</g>
<g clip-path="url(#a)">
<g transform="translate(1266.2 1020) scale(.1 -.1)">
<use xlink:href="#an"/>
<use x="35.205078" xlink:href="#u"/>
<use x="96.386719" xlink:href="#f"/>
</g>
</g>
<g clip-path="url(#a)">
<g transform="translate(1312.2 1020) scale(.1 -.1)">
<use xlink:href="#q"/>
<use x="39.208984" xlink:href="#w"/>
<use x="102.587891" xlink:href="#d"/>
</g>
</g>
<g clip-path="url(#a)">
<g transform="translate(1357.8 1020) scale(.1 -.1)">
<use xlink:href="#an"/>
<use x="35.205078" xlink:href="#g"/>
<use x="62.988281" xlink:href="#f"/>
<use x="104.101562" xlink:href="#v"/>
<use x="156.201172" xlink:href="#q"/>
</g>
</g>
<g clip-path="url(#a)">
<g transform="translate(1403.5 1020) scale(.1 -.1)">
<use xlink:href="#q"/>
<use x="39.208984" xlink:href="#g"/>
<use x="66.992188" xlink:href="#k"/>
<use x="164.404297" xlink:href="#d"/>
</g>
</g>
<g clip-path="url(#a)">
<g transform="translate(1460.5 1020) scale(.1 -.1)">
<use xlink:href="#ah"/>
</g>
</g>
<g clip-path="url(#a)">
<g transform="translate(1491.8 1020) scale(.1 -.1)">
<use xlink:href="#ak"/>
<use x="63.476562" xlink:href="#d"/>
<use x="125" xlink:href="#j"/>
<use x="186.279297" xlink:href="#q"/>
<use x="225.488281" xlink:href="#d"/>
<use x="287.011719" xlink:href="#h"/>
</g>
</g>
<g clip-path="url(#a)">
<defs>
<path id="ay" d="m19.672 34.812v-26.703h15.828q7.9531 0 11.781 3.2969 3.8438 3.2969 3.8438 10.078 0 6.8438-3.8438 10.078-3.8281 3.25-11.781 3.25zm0 29.984v-21.969h14.609q7.2188 0 10.75 2.7031 3.5469 2.7188 3.5469 8.2812 0 5.5156-3.5469 8.25-3.5312 2.7344-10.75 2.7344zm-9.8594 8.1094h25.203q11.281 0 17.375-4.6875 6.1094-4.6875 6.1094-13.328 0-6.7031-3.125-10.656t-9.1875-4.9219q7.2812-1.5625 11.312-6.5312 4.0312-4.9531 4.0312-12.375 0-9.7656-6.6406-15.094-6.6406-5.3125-18.906-5.3125h-26.172z"/>
</defs>
<g transform="translate(1546.4 1020) scale(.1 -.1)">
<use xlink:href="#r"/>
<use x="69.824219" xlink:href="#ay"/>
<use x="138.412109" xlink:href="#ag"/>
</g>
</g>
<g clip-path="url(#a)">
<g transform="translate(1599.8 1020) scale(.1 -.1)">
<use xlink:href="#aq"/>
<use x="27.490234" xlink:href="#v"/>
</g>
</g>
<g clip-path="url(#a)">
<g transform="translate(1644.7 1020) scale(.1 -.1)">
<use xlink:href="#ab"/>
<use x="63.183594" xlink:href="#af"/>
</g>
</g>
<g clip-path="url(#a)">
<g transform="translate(1678.5 1020) scale(.1 -.1)">
<use xlink:href="#ag"/>
<use x="63.476562" xlink:href="#am"/>
<use x="126.855469" xlink:href="#i"/>
<use x="154.638672" xlink:href="#i"/>
<use x="182.421875" xlink:href="#g"/>
<use x="210.205078" xlink:href="#ar"/>
<use x="269.384766" xlink:href="#j"/>
<use x="330.664062" xlink:href="#h"/>
</g>
</g>
<g clip-path="url(#a)">
<g transform="translate(1732 1020) scale(.1 -.1)">
<use xlink:href="#ag"/>
<use x="63.476562" xlink:href="#w"/>
<use x="126.855469" xlink:href="#u"/>
<use x="188.037109" xlink:href="#aj"/>
</g>
</g>
<g clip-path="url(#a)">
<g transform="translate(1788.1 1020) scale(.1 -.1)">
<use xlink:href="#g"/>
<use x="27.783203" xlink:href="#h"/>
</g>
</g>
<g clip-path="url(#a)">
<g transform="translate(1831.7 1020) scale(.1 -.1)">
<use xlink:href="#q"/>
<use x="39.208984" xlink:href="#w"/>
<use x="102.587891" xlink:href="#d"/>
</g>
</g>
<g clip-path="url(#a)">
<g transform="translate(1869.7 1020) scale(.1 -.1)">
<use xlink:href="#f"/>
<use x="41.113281" xlink:href="#j"/>
<use x="102.392578" xlink:href="#q"/>
<use x="141.601562" xlink:href="#g"/>
<use x="169.384766" xlink:href="#h"/>
<use x="232.763672" xlink:href="#as"/>
<use x="296.240234" xlink:href="#v"/>
</g>
</g>
<g clip-path="url(#a)">
<g transform="translate(1932.8 1020) scale(.1 -.1)">
<use xlink:href="#e"/>
</g>
</g>
<g clip-path="url(#a)">
<defs>
<path id="c" d="m12.406 8.2969h16.109v55.625l-17.531-3.5156v8.9844l17.438 3.5156h9.8594v-64.609h16.109v-8.2969h-41.984z"/>
</defs>
<g transform="translate(928.31 52.159) scale(.1 -.1)">
<use xlink:href="#c"/>
<use x="63.623047" xlink:href="#e"/>
<use x="95.410156" xlink:href="#c"/>
</g>
</g>
<g clip-path="url(#a)">
<defs>
<path id="m" d="m19.188 8.2969h34.422v-8.2969h-46.281v8.2969q5.6094 5.8125 15.297 15.594 9.7031 9.7969 12.188 12.641 4.7344 5.3125 6.6094 9 1.8906 3.6875 1.8906 7.25 0 5.8125-4.0781 9.4688-4.0781 3.6719-10.625 3.6719-4.6406 0-9.7969-1.6094-5.1406-1.6094-11-4.8906v9.9688q5.9531 2.3906 11.125 3.6094 5.1875 1.2188 9.4844 1.2188 11.328 0 18.062-5.6719 6.7344-5.6562 6.7344-15.125 0-4.5-1.6875-8.5312-1.6719-4.0156-6.125-9.4844-1.2188-1.4219-7.7656-8.1875-6.5312-6.7656-18.453-18.922z"/>
</defs>
<g transform="translate(586.4 221.68) scale(.1 -.1)">
<use xlink:href="#c"/>
<use x="63.623047" xlink:href="#e"/>
<use x="95.410156" xlink:href="#m"/>
</g>
</g>
<g clip-path="url(#a)">
<defs>
<path id="p" d="m40.578 39.312q7.0781-1.5156 11.047-6.3125 3.9844-4.7812 3.9844-11.812 0-10.781-7.4219-16.703-7.4219-5.9062-21.094-5.9062-4.5781 0-9.4375 0.90625t-10.031 2.7188v9.5156q4.0938-2.3906 8.9688-3.6094 4.8906-1.2188 10.219-1.2188 9.2656 0 14.125 3.6562t4.8594 10.641q0 6.4531-4.5156 10.078-4.5156 3.6406-12.562 3.6406h-8.5v8.1094h8.8906q7.2656 0 11.125 2.9062t3.8594 8.375q0 5.6094-3.9844 8.6094-3.9688 3.0156-11.391 3.0156-4.0625 0-8.7031-0.89062-4.6406-0.875-10.203-2.7188v8.7812q5.625 1.5625 10.531 2.3438t9.25 0.78125q11.234 0 17.766-5.1094 6.5469-5.0938 6.5469-13.781 0-6.0625-3.4688-10.234t-9.8594-5.7812z"/>
</defs>
<g transform="translate(1399.5 387) scale(.1 -.1)">
<use xlink:href="#c"/>
<use x="63.623047" xlink:href="#e"/>
<use x="95.410156" xlink:href="#p"/>
</g>
</g>
<g clip-path="url(#a)">
<defs>
<path id="ad" d="m8.2031 72.906h46.875v-4.2031l-26.469-68.703h-10.297l24.906 64.594h-35.016z"/>
</defs>
<g transform="translate(1029 548.64) scale(.1 -.1)">
<use xlink:href="#c"/>
<use x="63.623047" xlink:href="#e"/>
<use x="95.410156" xlink:href="#ad"/>
</g>
</g>
<g clip-path="url(#a)">
<defs>
<path id="ac" d="m31.781 34.625q-7.0312 0-11.062-3.7656-4.0156-3.7656-4.0156-10.344 0-6.5938 4.0156-10.359 4.0312-3.7656 11.062-3.7656t11.078 3.7812q4.0625 3.7969 4.0625 10.344 0 6.5781-4.0312 10.344-4.0156 3.7656-11.109 3.7656zm-9.8594 4.1875q-6.3438 1.5625-9.8906 5.9062-3.5312 4.3594-3.5312 10.609 0 8.7344 6.2188 13.812 6.2344 5.0781 17.062 5.0781 10.891 0 17.094-5.0781t6.2031-13.812q0-6.25-3.5469-10.609-3.5312-4.3438-9.8281-5.9062 7.125-1.6562 11.094-6.5 3.9844-4.8281 3.9844-11.797 0-10.609-6.4688-16.281-6.4688-5.6562-18.531-5.6562-12.047 0-18.531 5.6562-6.4688 5.6719-6.4688 16.281 0 6.9688 4 11.797 4.0156 4.8438 11.141 6.5zm-3.6094 15.578q0-5.6562 3.5312-8.8281 3.5469-3.1719 9.9375-3.1719 6.3594 0 9.9375 3.1719 3.5938 3.1719 3.5938 8.8281 0 5.6719-3.5938 8.8438-3.5781 3.1719-9.9375 3.1719-6.3906 0-9.9375-3.1719-3.5312-3.1719-3.5312-8.8438z"/>
</defs>
<g transform="translate(1170.7 863.62) scale(.1 -.1)">
<use xlink:href="#c"/>
<use x="63.623047" xlink:href="#e"/>
<use x="95.410156" xlink:href="#ac"/>
</g>
</g>
<g clip-path="url(#a)">
<defs>
<path id="z" d="m10.984 1.5156v8.9844q3.7188-1.7656 7.5156-2.6875 3.8125-0.92188 7.4844-0.92188 9.7656 0 14.906 6.5625 5.1562 6.5625 5.8906 19.953-2.8281-4.2031-7.1875-6.4531-4.3438-2.25-9.6094-2.25-10.938 0-17.312 6.6094-6.375 6.625-6.375 18.109 0 11.219 6.6406 18 6.6406 6.7969 17.672 6.7969 12.656 0 19.312-9.7031 6.6719-9.6875 6.6719-28.141 0-17.234-8.1875-27.516-8.1719-10.281-21.984-10.281-3.7188 0-7.5312 0.73438-3.7969 0.73438-7.9062 2.2031zm19.625 30.906q6.6406 0 10.516 4.5312 3.8906 4.5469 3.8906 12.469 0 7.8594-3.8906 12.422-3.875 4.5625-10.516 4.5625t-10.516-4.5625-3.875-12.422q0-7.9219 3.875-12.469 3.875-4.5312 10.516-4.5312z"/>
</defs>
<g transform="translate(1336 707.22) scale(.1 -.1)">
<use xlink:href="#c"/>
<use x="63.623047" xlink:href="#e"/>
<use x="95.410156" xlink:href="#z"/>
</g>
</g>
<g clip-path="url(#a)">
<defs>
<path id="aa" d="m31.781 66.406q-7.6094 0-11.453-7.5-3.8281-7.4844-3.8281-22.531 0-14.984 3.8281-22.484 3.8438-7.5 11.453-7.5 7.6719 0 11.5 7.5 3.8438 7.5 3.8438 22.484 0 15.047-3.8438 22.531-3.8281 7.5-11.5 7.5zm0 7.8125q12.266 0 18.734-9.7031 6.4688-9.6875 6.4688-28.141 0-18.406-6.4688-28.109-6.4688-9.6875-18.734-9.6875-12.25 0-18.719 9.6875-6.4688 9.7031-6.4688 28.109 0 18.453 6.4688 28.141 6.4688 9.7031 18.719 9.7031z"/>
</defs>
<g transform="translate(1498.2 863.62) scale(.1 -.1)">
<use xlink:href="#c"/>
<use x="63.623047" xlink:href="#e"/>
<use x="95.410156" xlink:href="#c"/>
<use x="159.033203" xlink:href="#aa"/>
</g>
</g>
<g clip-path="url(#a)">
<g transform="translate(1628.1 548.64) scale(.1 -.1)">
<use xlink:href="#c"/>
<use x="63.623047" xlink:href="#e"/>
<use x="95.410156" xlink:href="#c"/>
<use x="159.033203" xlink:href="#c"/>
</g>
</g>
<g clip-path="url(#a)">
<g transform="translate(1852.4 707.22) scale(.1 -.1)">
<use xlink:href="#c"/>
<use x="63.623047" xlink:href="#e"/>
<use x="95.410156" xlink:href="#c"/>
<use x="159.033203" xlink:href="#m"/>
</g>
</g>
<g clip-path="url(#a)">
<defs>
<path id="n" d="m10.797 72.906h38.719v-8.3125h-29.688v-17.859q2.1406 0.73438 4.2812 1.0938 2.1562 0.35938 4.3125 0.35938 12.203 0 19.328-6.6875 7.1406-6.6875 7.1406-18.109 0-11.766-7.3281-18.297-7.3281-6.5156-20.656-6.5156-4.5938 0-9.3594 0.78125-4.75 0.78125-9.8281 2.3438v9.9219q4.3906-2.3906 9.0781-3.5625t9.9062-1.1719q8.4531 0 13.375 4.4375 4.9375 4.4375 4.9375 12.062 0 7.6094-4.9375 12.047-4.9219 4.4531-13.375 4.4531-3.9531 0-7.8906-0.875-3.9219-0.875-8.0156-2.7344z"/>
</defs>
<g transform="translate(1781.6 863.62) scale(.1 -.1)">
<use xlink:href="#c"/>
<use x="63.623047" xlink:href="#e"/>
<use x="95.410156" xlink:href="#c"/>
<use x="159.033203" xlink:href="#n"/>
</g>
</g>
<g clip-path="url(#a)">
<defs>
<path id="ae" d="m33.016 40.375q-6.6406 0-10.531-4.5469-3.875-4.5312-3.875-12.438 0-7.8594 3.875-12.438 3.8906-4.5625 10.531-4.5625t10.516 4.5625q3.875 4.5781 3.875 12.438 0 7.9062-3.875 12.438-3.875 4.5469-10.516 4.5469zm19.578 30.922v-8.9844q-3.7188 1.75-7.5 2.6719-3.7812 0.9375-7.5 0.9375-9.7656 0-14.922-6.5938-5.1406-6.5938-5.875-19.922 2.875 4.25 7.2188 6.5156 4.3594 2.2656 9.5781 2.2656 10.984 0 17.359-6.6719 6.375-6.6562 6.375-18.125 0-11.234-6.6406-18.031-6.6406-6.7812-17.672-6.7812-12.656 0-19.344 9.6875-6.6875 9.7031-6.6875 28.109 0 17.281 8.2031 27.562t22.016 10.281q3.7188 0 7.5-0.73438t7.8906-2.1875z"/>
</defs>
<g transform="translate(1828.8 863.62) scale(.1 -.1)">
<use xlink:href="#c"/>
<use x="63.623047" xlink:href="#e"/>
<use x="95.410156" xlink:href="#c"/>
<use x="159.033203" xlink:href="#ae"/>
</g>
</g>
<g clip-path="url(#a)">
<g transform="translate(1876 863.62) scale(.1 -.1)">
<use xlink:href="#c"/>
<use x="63.623047" xlink:href="#e"/>
<use x="95.410156" xlink:href="#c"/>
<use x="159.033203" xlink:href="#ad"/>
</g>
</g>
<g clip-path="url(#a)">
<g transform="translate(1569 707.22) scale(.1 -.1)">
<use xlink:href="#c"/>
<use x="63.623047" xlink:href="#e"/>
<use x="95.410156" xlink:href="#c"/>
<use x="159.033203" xlink:href="#ac"/>
</g>
</g>
<g clip-path="url(#a)">
<g transform="translate(1687.1 863.62) scale(.1 -.1)">
<use xlink:href="#c"/>
<use x="63.623047" xlink:href="#e"/>
<use x="95.410156" xlink:href="#c"/>
<use x="159.033203" xlink:href="#z"/>
</g>
</g>
<g clip-path="url(#a)">
<g transform="translate(1545.4 863.62) scale(.1 -.1)">
<use xlink:href="#c"/>
<use x="63.623047" xlink:href="#e"/>
<use x="95.410156" xlink:href="#m"/>
<use x="159.033203" xlink:href="#aa"/>
</g>
</g>
<g clip-path="url(#a)">
<g transform="translate(1592.6 863.62) scale(.1 -.1)">
<use xlink:href="#c"/>
<use x="63.623047" xlink:href="#e"/>
<use x="95.410156" xlink:href="#m"/>
<use x="159.033203" xlink:href="#c"/>
</g>
</g>
<g clip-path="url(#a)">
<g transform="translate(1262 863.62) scale(.1 -.1)">
<use xlink:href="#c"/>
<use x="63.623047" xlink:href="#e"/>
<use x="95.410156" xlink:href="#m"/>
<use x="159.033203" xlink:href="#m"/>
</g>
</g>
<g clip-path="url(#a)">
<g transform="translate(1309.2 863.62) scale(.1 -.1)">
<use xlink:href="#c"/>
<use x="63.623047" xlink:href="#e"/>
<use x="95.410156" xlink:href="#m"/>
<use x="159.033203" xlink:href="#p"/>
</g>
</g>
<g clip-path="url(#a)">
<defs>
<path id="o" d="m37.797 64.312-24.906-38.922h24.906zm-2.5938 8.5938h12.406v-47.516h10.406v-8.2031h-10.406v-17.188h-9.8125v17.188h-32.906v9.5156z"/>
</defs>
<g transform="translate(1356.5 863.62) scale(.1 -.1)">
<use xlink:href="#c"/>
<use x="63.623047" xlink:href="#e"/>
<use x="95.410156" xlink:href="#m"/>
<use x="159.033203" xlink:href="#o"/>
</g>
</g>
<g clip-path="url(#a)">
<g transform="translate(1403.7 863.62) scale(.1 -.1)">
<use xlink:href="#c"/>
<use x="63.623047" xlink:href="#e"/>
<use x="95.410156" xlink:href="#m"/>
<use x="159.033203" xlink:href="#n"/>
</g>
</g>
<g clip-path="url(#a)">
<g transform="translate(954.97 707.22) scale(.1 -.1)">
<use xlink:href="#c"/>
<use x="63.623047" xlink:href="#e"/>
<use x="95.410156" xlink:href="#m"/>
<use x="159.033203" xlink:href="#ae"/>
</g>
</g>
<g clip-path="url(#a)">
<g transform="translate(1025.8 863.62) scale(.1 -.1)">
<use xlink:href="#c"/>
<use x="63.623047" xlink:href="#e"/>
<use x="95.410156" xlink:href="#m"/>
<use x="159.033203" xlink:href="#ad"/>
</g>
</g>
<g clip-path="url(#a)">
<g transform="translate(1096.7 707.22) scale(.1 -.1)">
<use xlink:href="#c"/>
<use x="63.623047" xlink:href="#e"/>
<use x="95.410156" xlink:href="#m"/>
<use x="159.033203" xlink:href="#ac"/>
</g>
</g>
<g clip-path="url(#a)">
<g transform="translate(1073.1 863.62) scale(.1 -.1)">
<use xlink:href="#c"/>
<use x="63.623047" xlink:href="#e"/>
<use x="95.410156" xlink:href="#m"/>
<use x="159.033203" xlink:href="#z"/>
</g>
</g>
<g clip-path="url(#a)">
<g transform="translate(1120.3 863.62) scale(.1 -.1)">
<use xlink:href="#c"/>
<use x="63.623047" xlink:href="#e"/>
<use x="95.410156" xlink:href="#p"/>
<use x="159.033203" xlink:href="#aa"/>
</g>
</g>
<g clip-path="url(#a)">
<g transform="translate(931.35 863.62) scale(.1 -.1)">
<use xlink:href="#c"/>
<use x="63.623047" xlink:href="#e"/>
<use x="95.410156" xlink:href="#p"/>
<use x="159.033203" xlink:href="#c"/>
</g>
</g>
<g clip-path="url(#a)">
<g transform="translate(978.58 863.62) scale(.1 -.1)">
<use xlink:href="#c"/>
<use x="63.623047" xlink:href="#e"/>
<use x="95.410156" xlink:href="#p"/>
<use x="159.033203" xlink:href="#m"/>
</g>
</g>
<g clip-path="url(#a)">
<g transform="translate(235.96 387) scale(.1 -.1)">
<use xlink:href="#c"/>
<use x="63.623047" xlink:href="#e"/>
<use x="95.410156" xlink:href="#p"/>
<use x="159.033203" xlink:href="#p"/>
</g>
</g>
<g clip-path="url(#a)">
<g transform="translate(647.94 863.62) scale(.1 -.1)">
<use xlink:href="#c"/>
<use x="63.623047" xlink:href="#e"/>
<use x="95.410156" xlink:href="#p"/>
<use x="159.033203" xlink:href="#o"/>
</g>
</g>
<g clip-path="url(#a)">
<g transform="translate(766.03 863.62) scale(.1 -.1)">
<use xlink:href="#c"/>
<use x="63.623047" xlink:href="#e"/>
<use x="95.410156" xlink:href="#p"/>
<use x="159.033203" xlink:href="#n"/>
</g>
</g>
<g clip-path="url(#a)">
<g transform="translate(128.37 707.22) scale(.1 -.1)">
<use xlink:href="#c"/>
<use x="63.623047" xlink:href="#e"/>
<use x="95.410156" xlink:href="#p"/>
<use x="159.033203" xlink:href="#z"/>
</g>
</g>
<g clip-path="url(#a)">
<g transform="translate(356.67 548.64) scale(.1 -.1)">
<use xlink:href="#c"/>
<use x="63.623047" xlink:href="#e"/>
<use x="95.410156" xlink:href="#o"/>
<use x="159.033203" xlink:href="#aa"/>
</g>
</g>
<g clip-path="url(#a)">
<g transform="translate(293.69 707.22) scale(.1 -.1)">
<use xlink:href="#c"/>
<use x="63.623047" xlink:href="#e"/>
<use x="95.410156" xlink:href="#o"/>
<use x="159.033203" xlink:href="#m"/>
</g>
</g>
<g clip-path="url(#a)">
<g transform="translate(419.65 707.22) scale(.1 -.1)">
<use xlink:href="#c"/>
<use x="63.623047" xlink:href="#e"/>
<use x="95.410156" xlink:href="#o"/>
<use x="159.033203" xlink:href="#p"/>
</g>
</g>
<g clip-path="url(#a)">
<g transform="translate(364.54 863.62) scale(.1 -.1)">
<use xlink:href="#c"/>
<use x="63.623047" xlink:href="#e"/>
<use x="95.410156" xlink:href="#o"/>
<use x="159.033203" xlink:href="#o"/>
</g>
</g>
<g clip-path="url(#a)">
<g transform="translate(482.62 863.62) scale(.1 -.1)">
<use xlink:href="#c"/>
<use x="63.623047" xlink:href="#e"/>
<use x="95.410156" xlink:href="#o"/>
<use x="159.033203" xlink:href="#n"/>
</g>
</g>
<g clip-path="url(#a)">
<g transform="translate(222.84 863.62) scale(.1 -.1)">
<use xlink:href="#c"/>
<use x="63.623047" xlink:href="#e"/>
<use x="95.410156" xlink:href="#o"/>
<use x="159.033203" xlink:href="#ae"/>
</g>
</g>
<g clip-path="url(#a)">
<g transform="translate(270.07 863.62) scale(.1 -.1)">
<use xlink:href="#c"/>
<use x="63.623047" xlink:href="#e"/>
<use x="95.410156" xlink:href="#o"/>
<use x="159.033203" xlink:href="#ad"/>
</g>
</g>
<g clip-path="url(#a)">
<g transform="translate(317.3 863.62) scale(.1 -.1)">
<use xlink:href="#c"/>
<use x="63.623047" xlink:href="#e"/>
<use x="95.410156" xlink:href="#o"/>
<use x="159.033203" xlink:href="#ac"/>
</g>
</g>
<g clip-path="url(#a)">
<g transform="translate(81.134 863.62) scale(.1 -.1)">
<use xlink:href="#c"/>
<use x="63.623047" xlink:href="#e"/>
<use x="95.410156" xlink:href="#o"/>
<use x="159.033203" xlink:href="#z"/>
</g>
</g>
<g clip-path="url(#a)">
<g transform="translate(128.37 863.62) scale(.1 -.1)">
<use xlink:href="#c"/>
<use x="63.623047" xlink:href="#e"/>
<use x="95.410156" xlink:href="#n"/>
<use x="159.033203" xlink:href="#aa"/>
</g>
</g>
<g clip-path="url(#a)">
<g transform="translate(175.6 863.62) scale(.1 -.1)">
<use xlink:href="#c"/>
<use x="63.623047" xlink:href="#e"/>
<use x="95.410156" xlink:href="#n"/>
<use x="159.033203" xlink:href="#c"/>
</g>
</g>
<g clip-path="url(#a)">
<g transform="translate(411.77 863.62) scale(.1 -.1)">
<use xlink:href="#c"/>
<use x="63.623047" xlink:href="#e"/>
<use x="95.410156" xlink:href="#n"/>
<use x="159.033203" xlink:href="#m"/>
</g>
</g>
<g clip-path="url(#a)">
<g transform="translate(553.48 863.62) scale(.1 -.1)">
<use xlink:href="#c"/>
<use x="63.623047" xlink:href="#e"/>
<use x="95.410156" xlink:href="#n"/>
<use x="159.033203" xlink:href="#p"/>
</g>
</g>
<g clip-path="url(#a)">
<g transform="translate(600.71 863.62) scale(.1 -.1)">
<use xlink:href="#c"/>
<use x="63.623047" xlink:href="#e"/>
<use x="95.410156" xlink:href="#n"/>
<use x="159.033203" xlink:href="#o"/>
</g>
</g>
<g clip-path="url(#a)">
<g transform="translate(695.18 863.62) scale(.1 -.1)">
<use xlink:href="#c"/>
<use x="63.623047" xlink:href="#e"/>
<use x="95.410156" xlink:href="#n"/>
<use x="159.033203" xlink:href="#n"/>
</g>
</g>
<g clip-path="url(#a)">
<g transform="translate(836.88 863.62) scale(.1 -.1)">
<use xlink:href="#c"/>
<use x="63.623047" xlink:href="#e"/>
<use x="95.410156" xlink:href="#n"/>
<use x="159.033203" xlink:href="#ae"/>
</g>
</g>
<g clip-path="url(#a)">
<g transform="translate(884.12 863.62) scale(.1 -.1)">
<use xlink:href="#c"/>
<use x="63.623047" xlink:href="#e"/>
<use x="95.410156" xlink:href="#n"/>
<use x="159.033203" xlink:href="#ad"/>
</g>
</g>
<g clip-path="url(#a)">
<g transform="translate(1214.8 863.62) scale(.1 -.1)">
<use xlink:href="#c"/>
<use x="63.623047" xlink:href="#e"/>
<use x="95.410156" xlink:href="#n"/>
<use x="159.033203" xlink:href="#ac"/>
</g>
</g>
<g clip-path="url(#a)">
<g transform="translate(1450.9 863.62) scale(.1 -.1)">
<use xlink:href="#c"/>
<use x="63.623047" xlink:href="#e"/>
<use x="95.410156" xlink:href="#n"/>
<use x="159.033203" xlink:href="#z"/>
</g>
</g>
<g clip-path="url(#a)">
<g transform="translate(1923.3 863.62) scale(.1 -.1)">
<use xlink:href="#c"/>
<use x="63.623047" xlink:href="#e"/>
<use x="95.410156" xlink:href="#ae"/>
<use x="159.033203" xlink:href="#aa"/>
</g>
</g>
<defs>
<clipPath id="a">
<rect width="2026.7" height="1066.7"/>
</clipPath>
</defs>
</svg>
