<?xml version="1.0" encoding="UTF-8"?>
<!DOCTYPE svg  PUBLIC '-//W3C//DTD SVG 1.1//EN'  'http://www.w3.org/Graphics/SVG/1.1/DTD/svg11.dtd'>
<svg width="1672pt" height="880pt" version="1.1" viewBox="0 0 1672 880" xmlns="http://www.w3.org/2000/svg" xmlns:xlink="http://www.w3.org/1999/xlink">
<defs>
<style type="text/css">*{stroke-linecap:butt;stroke-linejoin:round;}</style>
</defs>
<path d="m0 880h1672v-880h-1672z" fill="#fff"/>
<g fill="none" stroke="#000">
<path d="m734.67 40.914-518.58 139.8" clip-path="url(#a)"/>
<path d="m734.67 40.914-189.2 669.19" clip-path="url(#a)"/>
<path d="m734.67 40.914 369.51 540.21" clip-path="url(#a)"/>
<path d="m734.67 40.914-77.455 669.19" clip-path="url(#a)"/>
<path d="m734.67 40.914 302.46 276.13" clip-path="url(#a)"/>
<path d="m734.67 40.914-256.24 669.19" clip-path="url(#a)"/>
<path d="m734.67 40.914 369.51 669.19" clip-path="url(#a)"/>
<path d="m216.09 180.72-139.92 529.39" clip-path="url(#a)"/>
<path d="m216.09 180.72-95.227 529.39" clip-path="url(#a)"/>
<path d="m216.09 180.72 235.15 136.33" clip-path="url(#a)"/>
<path d="m545.48 710.1-22.348 128.98" clip-path="url(#a)"/>
<path d="m545.48 710.1 22.348 128.98" clip-path="url(#a)"/>
<path d="m1104.2 581.12 491.66 257.97" clip-path="url(#a)"/>
<path d="m1104.2 581.12-491.66 128.98" clip-path="url(#a)"/>
<path d="m657.22 710.1v128.98" clip-path="url(#a)"/>
<path d="m1037.1 317.05 514 522.04" clip-path="url(#a)"/>
<path d="m1037.1 317.05-312.87 264.07" clip-path="url(#a)"/>
<path d="m1037.1 317.05-178.78 133.3" clip-path="url(#a)"/>
<path d="m1037.1 317.05-22.348 264.07" clip-path="url(#a)"/>
<path d="m724.26 581.12-22.348 128.98" clip-path="url(#a)"/>
<path d="m724.26 581.12 22.348 128.98" clip-path="url(#a)"/>
<path d="m858.35 450.34-67.044 259.76" clip-path="url(#a)"/>
<path d="m858.35 450.34v130.78" clip-path="url(#a)"/>
<path d="m858.35 450.34 67.044 259.76" clip-path="url(#a)"/>
<path d="m1014.8 581.12-44.696 128.98" clip-path="url(#a)"/>
<path d="m1014.8 581.12v128.98" clip-path="url(#a)"/>
<path d="m1014.8 581.12 44.696 128.98" clip-path="url(#a)"/>
<path d="m970.09 710.1v128.98" clip-path="url(#a)"/>
<path d="m1014.8 710.1v128.98" clip-path="url(#a)"/>
<path d="m1059.5 710.1v128.98" clip-path="url(#a)"/>
<path d="m791.3 710.1v128.98" clip-path="url(#a)"/>
<path d="m858.35 581.12-22.348 128.98" clip-path="url(#a)"/>
<path d="m858.35 581.12 22.348 128.98" clip-path="url(#a)"/>
<path d="m925.39 710.1v128.98" clip-path="url(#a)"/>
<path d="m836 710.1v128.98" clip-path="url(#a)"/>
<path d="m880.7 710.1v128.98" clip-path="url(#a)"/>
<path d="m701.91 710.1v128.98" clip-path="url(#a)"/>
<path d="m746.61 710.1v128.98" clip-path="url(#a)"/>
<path d="m612.52 710.1v128.98" clip-path="url(#a)"/>
<path d="m76.167 710.1v128.98" clip-path="url(#a)"/>
<path d="m120.86 710.1v128.98" clip-path="url(#a)"/>
<path d="m451.24 317.05-285.68 393.05" clip-path="url(#a)"/>
<path d="m451.24 317.05-240.99 393.05" clip-path="url(#a)"/>
<path d="m451.24 317.05-106.9 264.07" clip-path="url(#a)"/>
<path d="m451.24 317.05-129.25 264.07" clip-path="url(#a)"/>
<path d="m451.24 317.05-62.202 393.05" clip-path="url(#a)"/>
<path d="m451.24 317.05 825.02 133.3" clip-path="url(#a)"/>
<path d="m165.56 710.1v128.98" clip-path="url(#a)"/>
<path d="m210.25 710.1v128.98" clip-path="url(#a)"/>
<path d="m344.34 581.12-89.392 128.98" clip-path="url(#a)"/>
<path d="m344.34 581.12 89.392 128.98" clip-path="url(#a)"/>
<path d="m322 581.12-22.348 128.98" clip-path="url(#a)"/>
<path d="m322 581.12 22.348 128.98" clip-path="url(#a)"/>
<path d="m389.04 710.1v128.98" clip-path="url(#a)"/>
<path d="m1276.3 450.34-127.38 259.76" clip-path="url(#a)"/>
<path d="m1276.3 450.34-37.992 130.78" clip-path="url(#a)"/>
<path d="m1276.3 450.34 113.97 130.78" clip-path="url(#a)"/>
<path d="m1276.3 450.34 51.4 259.76" clip-path="url(#a)"/>
<path d="m1148.9 710.1v128.98" clip-path="url(#a)"/>
<path d="m1238.3 581.12-44.696 128.98" clip-path="url(#a)"/>
<path d="m1238.3 581.12 44.696 128.98" clip-path="url(#a)"/>
<path d="m1238.3 581.12v128.98" clip-path="url(#a)"/>
<path d="m1390.2 581.12-17.878 128.98" clip-path="url(#a)"/>
<path d="m1390.2 581.12 26.818 128.98" clip-path="url(#a)"/>
<path d="m1390.2 581.12 71.514 128.98" clip-path="url(#a)"/>
<path d="m1390.2 581.12-196.66 128.98" clip-path="url(#a)" stroke-dasharray="3.7,1.6"/>
<path d="m1390.2 581.12 116.21 128.98" clip-path="url(#a)"/>
<path d="m1372.4 710.1v128.98" clip-path="url(#a)"/>
<path d="m1417 710.1v128.98" clip-path="url(#a)"/>
<path d="m1461.7 710.1v128.98" clip-path="url(#a)"/>
<path d="m1193.6 710.1v128.98" clip-path="url(#a)"/>
<path d="m1283 710.1v128.98" clip-path="url(#a)"/>
<path d="m478.43 710.1v128.98" clip-path="url(#a)"/>
<path d="m299.65 710.1v128.98" clip-path="url(#a)"/>
<path d="m344.34 710.1v128.98" clip-path="url(#a)"/>
<path d="m254.95 710.1v128.98" clip-path="url(#a)"/>
<path d="m433.74 710.1v128.98" clip-path="url(#a)"/>
<path d="m1104.2 710.1v128.98" clip-path="url(#a)"/>
<path d="m1238.3 710.1v128.98" clip-path="url(#a)"/>
<path d="m1327.7 710.1v128.98" clip-path="url(#a)"/>
<path d="m1506.4 710.1v128.98" clip-path="url(#a)"/>
</g>
<path d="m474.11 117.65 5.8089-1.566q2.3173-0.62471 1.6926-2.942l-2.0153-7.4756q-0.62471-2.3173-2.942-1.6926l-5.8089 1.566q-2.3173 0.6247-1.6926 2.942l2.0153 7.4756q0.62471 2.3173 2.942 1.6926z" clip-path="url(#a)" fill="#fff" stroke="#fff"/>
<g clip-path="url(#a)">
<defs>
<path id="aj" d="m9.8125 72.906h9.8594v-29.891h35.844v29.891h9.8594v-72.906h-9.8594v34.719h-35.844v-34.719h-9.8594z"/>
</defs>
<g transform="translate(473.05 113.73) rotate(-15.088) scale(.08 -.08)">
<use xlink:href="#aj"/>
</g>
</g>
<path d="m645.5 379.36 1.2127-4.2894q0.65294-2.3095-1.6565-2.9624l-7.4505-2.1064q-2.3095-0.65294-2.9624 1.6565l-1.2127 4.2894q-0.65294 2.3095 1.6565 2.9624l7.4505 2.1064q2.3095 0.65294 2.9624-1.6565z" clip-path="url(#a)" fill="#fff" stroke="#fff"/>
<g clip-path="url(#a)">
<defs>
<path id="ac" d="m9.8125 72.906h9.8594v-64.609h35.5v-8.2969h-45.359z"/>
</defs>
<g transform="translate(641.59 378.25) rotate(-74.213) scale(.08 -.08)">
<use xlink:href="#ac"/>
</g>
</g>
<path d="m912.55 312.08 3.3966 4.9657q1.355 1.9809 3.3359 0.62596l6.3905-4.3712q1.9809-1.355 0.62596-3.3359l-3.3966-4.9657q-1.355-1.9809-3.3359-0.62596l-6.3905 4.3712q-1.9809 1.355-0.62596 3.3359z" clip-path="url(#a)" fill="#fff" stroke="#fff"/>
<g clip-path="url(#a)">
<g transform="translate(915.9 309.78) rotate(55.628) scale(.08 -.08)">
<use xlink:href="#aj"/>
</g>
</g>
<path d="m701.92 378.44 0.51251-4.4279q0.27595-2.3841-2.1081-2.66l-7.6912-0.89021q-2.3841-0.27595-2.66 2.1081l-0.51251 4.4279q-0.27595 2.3841 2.1081 2.66l7.6912 0.89021q2.3841 0.27595 2.66-2.1081z" clip-path="url(#a)" fill="#fff" stroke="#fff"/>
<g clip-path="url(#a)">
<g transform="translate(697.88 377.98) rotate(-83.398) scale(.08 -.08)">
<use xlink:href="#ac"/>
</g>
</g>
<path d="m879.45 181.58 4.4431 4.0564q1.7724 1.6182 3.3906-0.15427l5.2203-5.718q1.6182-1.7724-0.15427-3.3906l-4.4431-4.0564q-1.7724-1.6182-3.3906 0.15427l-5.2203 5.718q-1.6182 1.7724 0.15427 3.3906z" clip-path="url(#a)" fill="#fff" stroke="#fff"/>
<g clip-path="url(#a)">
<g transform="translate(882.19 178.58) rotate(42.395) scale(.08 -.08)">
<use xlink:href="#aj"/>
</g>
</g>
<path d="m611.36 380.49 2.0937-5.4679q0.85822-2.2413-1.3831-3.0995l-7.2306-2.7687q-2.2413-0.85822-3.0995 1.3831l-2.0937 5.4679q-0.85822 2.2413 1.3831 3.0995l7.2306 2.7687q2.2413 0.85822 3.0995-1.3831z" clip-path="url(#a)" fill="#fff" stroke="#fff"/>
<g clip-path="url(#a)">
<defs>
<path id="aa" d="m8.6875 72.906h9.9219v-44.297q0-11.719 4.2344-16.875 4.25-5.1406 13.781-5.1406 9.4688 0 13.719 5.1406 4.25 5.1562 4.25 16.875v44.297h9.9062v-45.516q0-14.25-7.0625-21.531-7.0469-7.2812-20.812-7.2812-13.828 0-20.891 7.2812-7.0469 7.2812-7.0469 21.531z"/>
</defs>
<g transform="translate(607.57 379.03) rotate(-69.048) scale(.08 -.08)">
<use xlink:href="#aa"/>
</g>
</g>
<path d="m912.52 375.98 2.8302 5.1255q1.1601 2.101 3.2611 0.94089l6.7779-3.7425q2.101-1.1601 0.94089-3.2611l-2.8302-5.1255q-1.1601-2.101-3.2611-0.94089l-6.7779 3.7425q-2.101 1.1601-0.94089 3.2611z" clip-path="url(#a)" fill="#fff" stroke="#fff"/>
<g clip-path="url(#a)">
<g transform="translate(916.08 374.01) rotate(61.094) scale(.08 -.08)">
<use xlink:href="#aa"/>
</g>
</g>
<path d="m151.49 449.66 1.3984-5.2908q0.61329-2.3203-1.707-2.9336l-7.4854-1.9785q-2.3203-0.61329-2.9336 1.707l-1.3984 5.2908q-0.61329 2.3203 1.707 2.9336l7.4854 1.9785q2.3203 0.61329 2.9336-1.707z" clip-path="url(#a)" fill="#fff" stroke="#fff"/>
<g clip-path="url(#a)">
<defs>
<path id="r" d="m34.188 63.188-13.391-36.281h26.812zm-5.5781 9.7188h11.188l27.781-72.906h-10.25l-6.6406 18.703h-32.859l-6.6406-18.703h-10.406z"/>
</defs>
<g transform="translate(147.56 448.62) rotate(-75.195) scale(.08 -.08)">
<use xlink:href="#r"/>
</g>
</g>
<path d="m174.22 448.89 0.854-4.7476q0.4249-2.3621-1.9372-2.787l-7.6202-1.3707q-2.3621-0.4249-2.787 1.9372l-0.854 4.7476q-0.4249 2.3621 1.9372 2.787l7.6202 1.3707q2.3621 0.4249 2.787-1.9372z" clip-path="url(#a)" fill="#fff" stroke="#fff"/>
<g clip-path="url(#a)">
<defs>
<path id="x" d="m19.672 64.797v-27.391h12.406q6.8906 0 10.641 3.5625 3.7656 3.5625 3.7656 10.156 0 6.5469-3.7656 10.109-3.75 3.5625-10.641 3.5625zm-9.8594 8.1094h22.266q12.266 0 18.531-5.5469 6.2812-5.5469 6.2812-16.234 0-10.797-6.2812-16.312-6.2656-5.5156-18.531-5.5156h-12.406v-29.297h-9.8594z"/>
</defs>
<g transform="translate(170.22 448.17) rotate(-79.803) scale(.08 -.08)">
<use xlink:href="#x"/>
</g>
</g>
<path d="m328.15 252.94 4.7344 2.7448q2.0763 1.2038 3.28-0.87253l3.8834-6.6982q1.2038-2.0763-0.87253-3.28l-4.7344-2.7448q-2.0763-1.2038-3.28 0.87253l-3.8834 6.6982q-1.2038 2.0763 0.87253 3.28z" clip-path="url(#a)" fill="#fff" stroke="#fff"/>
<g clip-path="url(#a)">
<g transform="translate(330.19 249.42) rotate(30.104) scale(.08 -.08)">
<use xlink:href="#r"/>
</g>
</g>
<path d="m537.47 793.05 6.0239-34.767q0.40973-2.3648-1.955-2.7745l-7.6288-1.3218q-2.3648-0.40973-2.7745 1.955l-6.0239 34.767q-0.40973 2.3648 1.955 2.7745l7.6288 1.3218q2.3648 0.40973 2.7745-1.955z" clip-path="url(#a)" fill="#fff" stroke="#fff"/>
<g clip-path="url(#a)">
<defs>
<path id="k" d="m-0.29688 72.906h61.672v-8.3125h-25.875v-64.594h-9.9062v64.594h-25.891z"/>
<path id="e" d="m56.203 29.594v-4.3906h-41.312q0.59375-9.2812 5.5938-14.141t13.938-4.8594q5.1719 0 10.031 1.2656t9.6562 3.8125v-8.5q-4.8438-2.0469-9.9219-3.125t-10.297-1.0781q-13.094 0-20.734 7.6094-7.6406 7.625-7.6406 20.625 0 13.422 7.25 21.297 7.25 7.8906 19.562 7.8906 11.031 0 17.453-7.1094 6.4219-7.0938 6.4219-19.297zm-8.9844 2.6406q-0.09375 7.3594-4.125 11.75-4.0312 4.4062-10.672 4.4062-7.5156 0-12.031-4.25t-5.2031-11.969z"/>
<path id="j" d="m41.109 46.297q-1.5156 0.875-3.2969 1.2812-1.7812 0.42188-3.9219 0.42188-7.625 0-11.703-4.9531t-4.0781-14.234v-28.812h-9.0312v54.688h9.0312v-8.5q2.8438 4.9844 7.375 7.3906 4.5469 2.4219 11.047 2.4219 0.92188 0 2.0469-0.125 1.125-0.10938 2.4844-0.35938z"/>
<path id="h" d="m52 44.188q3.375 6.0625 8.0625 8.9375t11.031 2.875q8.5469 0 13.188-5.9844 4.6406-5.9688 4.6406-17v-33.016h-9.0312v32.719q0 7.8594-2.7969 11.656-2.7812 3.8125-8.4844 3.8125-6.9844 0-11.047-4.6406-4.0469-4.625-4.0469-12.641v-30.906h-9.0312v32.719q0 7.9062-2.7812 11.688t-8.5938 3.7812q-6.8906 0-10.953-4.6562-4.0469-4.6562-4.0469-12.625v-30.906h-9.0312v54.688h9.0312v-8.5q3.0781 5.0312 7.375 7.4219t10.203 2.3906q5.9688 0 10.141-3.0312 4.1719-3.0156 6.1719-8.7812z"/>
<path id="i" d="m9.4219 54.688h8.9844v-54.688h-8.9844zm0 21.297h8.9844v-11.391h-8.9844z"/>
<path id="f" d="m54.891 33.016v-33.016h-8.9844v32.719q0 7.7656-3.0312 11.609-3.0312 3.8594-9.0781 3.8594-7.2812 0-11.484-4.6406-4.2031-4.625-4.2031-12.641v-30.906h-9.0312v54.688h9.0312v-8.5q3.2344 4.9375 7.5938 7.375 4.375 2.4375 10.094 2.4375 9.4219 0 14.25-5.8281 4.8438-5.8281 4.8438-17.156z"/>
<path id="g" d="m34.281 27.484q-10.891 0-15.094-2.4844t-4.2031-8.5q0-4.7812 3.1562-7.5938 3.1562-2.7969 8.5625-2.7969 7.4844 0 12 5.2969t4.5156 14.078v2zm17.922 3.7188v-31.203h-8.9844v8.2969q-3.0781-4.9688-7.6719-7.3438t-11.234-2.375q-8.3906 0-13.359 4.7188-4.9531 4.7188-4.9531 12.625 0 9.2188 6.1719 13.906 6.1875 4.6875 18.438 4.6875h12.609v0.89062q0 6.2031-4.0781 9.5938t-11.453 3.3906q-4.6875 0-9.1406-1.125-4.4375-1.125-8.5312-3.375v8.3125q4.9219 1.9062 9.5625 2.8438 4.6406 0.95312 9.0312 0.95312 11.875 0 17.734-6.1562 5.8594-6.1406 5.8594-18.641z"/>
<path id="l" d="m9.4219 75.984h8.9844v-75.984h-8.9844z"/>
</defs>
<g transform="translate(533.46 792.36) rotate(-80.17) scale(.08 -.08)">
<use xlink:href="#k"/>
<use x="60.818359" xlink:href="#e"/>
<use x="122.341797" xlink:href="#j"/>
<use x="163.439453" xlink:href="#h"/>
<use x="260.851562" xlink:href="#i"/>
<use x="288.634766" xlink:href="#f"/>
<use x="352.013672" xlink:href="#g"/>
<use x="413.292969" xlink:href="#l"/>
</g>
</g>
<path d="m547.46 758.28 6.0239 34.767q0.40973 2.3648 2.7745 1.955l7.6288-1.3218q2.3648-0.40973 1.955-2.7745l-6.0239-34.767q-0.40973-2.3648-2.7745-1.955l-7.6288 1.3218q-2.3648 0.40973-1.955 2.7745z" clip-path="url(#a)" fill="#fff" stroke="#fff"/>
<g clip-path="url(#a)">
<g transform="translate(551.46 757.59) rotate(80.17) scale(.08 -.08)">
<use xlink:href="#k"/>
<use x="60.818359" xlink:href="#e"/>
<use x="122.341797" xlink:href="#j"/>
<use x="163.439453" xlink:href="#h"/>
<use x="260.851562" xlink:href="#i"/>
<use x="288.634766" xlink:href="#f"/>
<use x="352.013672" xlink:href="#g"/>
<use x="413.292969" xlink:href="#l"/>
</g>
</g>
<path d="m1345 714.54 4.2715 2.2412q2.1252 1.1151 3.2403-1.0102l3.5973-6.8561q1.1151-2.1252-1.0102-3.2403l-4.2715-2.2412q-2.1252-1.1151-3.2403 1.0102l-3.5973 6.8561q-1.1151 2.1252 1.0102 3.2403z" clip-path="url(#a)" fill="#fff" stroke="#fff"/>
<g clip-path="url(#a)">
<g transform="translate(1346.8 710.94) rotate(27.685) scale(.08 -.08)">
<use xlink:href="#x"/>
</g>
</g>
<path d="m857.29 652.37 5.2934-1.3887q2.3214-0.60901 1.7124-2.9305l-1.9647-7.4891q-0.60901-2.3214-2.9305-1.7124l-5.2934 1.3887q-2.3214 0.60901-1.7124 2.9305l1.9647 7.4891q0.60901 2.3214 2.9305 1.7124z" clip-path="url(#a)" fill="#fff" stroke="#fff"/>
<g clip-path="url(#a)">
<g transform="translate(856.26 648.44) rotate(-14.7) scale(.08 -.08)">
<use xlink:href="#r"/>
</g>
</g>
<path d="m650.94 756.95v35.285q0 2.4 2.4 2.4h7.7425q2.4 0 2.4-2.4v-35.285q0-2.4-2.4-2.4h-7.7425q-2.4 0-2.4 2.4z" clip-path="url(#a)" fill="#fff" stroke="#fff"/>
<g clip-path="url(#a)">
<g transform="translate(655.01 756.95) rotate(90) scale(.08 -.08)">
<use xlink:href="#k"/>
<use x="60.818359" xlink:href="#e"/>
<use x="122.341797" xlink:href="#j"/>
<use x="163.439453" xlink:href="#h"/>
<use x="260.851562" xlink:href="#i"/>
<use x="288.634766" xlink:href="#f"/>
<use x="352.013672" xlink:href="#g"/>
<use x="413.292969" xlink:href="#l"/>
</g>
</g>
<path d="m1287.7 580.52 3.8395 3.8995q1.6838 1.7102 3.394 0.026313l5.5171-5.4322q1.7102-1.6838 0.026314-3.394l-3.8395-3.8995q-1.6838-1.7102-3.394-0.026314l-5.5171 5.4322q-1.7102 1.6838-0.026314 3.394z" clip-path="url(#a)" fill="#fff" stroke="#fff"/>
<g clip-path="url(#a)">
<g transform="translate(1290.6 577.67) rotate(45.444) scale(.08 -.08)">
<use xlink:href="#r"/>
</g>
</g>
<path d="m882.9 455.43 3.6863-3.1113q1.8341-1.548 0.28607-3.382l-4.9939-5.9167q-1.548-1.8341-3.382-0.28607l-3.6863 3.1113q-1.8341 1.548-0.28607 3.382l4.9939 5.9167q1.548 1.8341 3.382 0.28607z" clip-path="url(#a)" fill="#fff" stroke="#fff"/>
<g clip-path="url(#a)">
<g transform="translate(880.28 452.33) rotate(-40.165) scale(.08 -.08)">
<use xlink:href="#x"/>
</g>
</g>
<path d="m949.29 390.36 4.3873-3.271q1.9241-1.4345 0.48956-3.3586l-4.6279-6.2072q-1.4345-1.9241-3.3586-0.48956l-4.3873 3.271q-1.9241 1.4345-0.48956 3.3586l4.6279 6.2072q1.4345 1.9241 3.3586 0.48956z" clip-path="url(#a)" fill="#fff" stroke="#fff"/>
<g clip-path="url(#a)">
<g transform="translate(946.87 387.1) rotate(-36.707) scale(.08 -.08)">
<use xlink:href="#r"/>
</g>
</g>
<path d="m1032 452.34 0.46148-5.453q0.20239-2.3915-2.1891-2.5938l-7.7149-0.6529q-2.3915-0.20238-2.5938 2.1891l-0.46148 5.453q-0.20238 2.3915 2.1891 2.5938l7.7149 0.6529q2.3915 0.20238 2.5938-2.1891z" clip-path="url(#a)" fill="#fff" stroke="#fff"/>
<g clip-path="url(#a)">
<g transform="translate(1027.9 452) rotate(-85.163) scale(.08 -.08)">
<use xlink:href="#r"/>
</g>
</g>
<path d="m718.87 648.95 0.78553-4.5337q0.40973-2.3648-1.955-2.7745l-7.6288-1.3218q-2.3648-0.40973-2.7745 1.955l-0.78553 4.5337q-0.40973 2.3648 1.955 2.7745l7.6288 1.3218q2.3648 0.40973 2.7745-1.955z" clip-path="url(#a)" fill="#fff" stroke="#fff"/>
<g clip-path="url(#a)">
<defs>
<path id="ap" d="m9.8125 72.906h41.891v-8.3125h-32.031v-21.484h28.906v-8.2969h-28.906v-34.812h-9.8594z"/>
</defs>
<g transform="translate(714.87 648.26) rotate(-80.17) scale(.08 -.08)">
<use xlink:href="#ap"/>
</g>
</g>
<path d="m728.78 643.93 0.95369 5.5042q0.40973 2.3648 2.7745 1.955l7.6288-1.3218q2.3648-0.40973 1.955-2.7745l-0.95369-5.5042q-0.40973-2.3648-2.7745-1.955l-7.6288 1.3218q-2.3648 0.40973-1.955 2.7745z" clip-path="url(#a)" fill="#fff" stroke="#fff"/>
<g clip-path="url(#a)">
<defs>
<path id="q" d="m64.406 67.281v-10.391q-4.9844 4.6406-10.625 6.9219-5.6406 2.2969-11.984 2.2969-12.5 0-19.141-7.6406t-6.6406-22.094q0-14.406 6.6406-22.047t19.141-7.6406q6.3438 0 11.984 2.2969t10.625 6.9375v-10.312q-5.1719-3.5156-10.969-5.2812-5.7812-1.75-12.219-1.75-16.562 0-26.094 10.125-9.5156 10.141-9.5156 27.672 0 17.578 9.5156 27.703 9.5312 10.141 26.094 10.141 6.5312 0 12.312-1.7344 5.7969-1.7344 10.875-5.2031z"/>
</defs>
<g transform="translate(732.78 643.24) rotate(80.17) scale(.08 -.08)">
<use xlink:href="#q"/>
</g>
</g>
<path d="m830.2 584.48 1.3892-5.3824q0.59979-2.3238-1.7241-2.9236l-7.4968-1.9349q-2.3238-0.59979-2.9236 1.7241l-1.3892 5.3824q-0.59979 2.3238 1.7241 2.9236l7.4968 1.9349q2.3238 0.59979 2.9236-1.7241z" clip-path="url(#a)" fill="#fff" stroke="#fff"/>
<g clip-path="url(#a)">
<defs>
<path id="w" d="m44.391 34.188q3.1719-1.0781 6.1719-4.5938t6.0312-9.6719l10.016-19.922h-10.609l-9.3125 18.703q-3.625 7.3281-7.0156 9.7188t-9.25 2.3906h-10.75v-30.812h-9.8594v72.906h22.266q12.5 0 18.656-5.2344 6.1562-5.2188 6.1562-15.766 0-6.8906-3.2031-11.438-3.2031-4.5312-9.2969-6.2812zm-24.719 30.609v-25.875h12.406q7.125 0 10.766 3.2969t3.6406 9.6875-3.6406 9.6406-10.766 3.25z"/>
</defs>
<g transform="translate(826.27 583.47) rotate(-75.528) scale(.08 -.08)">
<use xlink:href="#w"/>
</g>
</g>
<path d="m852.08 513.2v5.055q0 2.4 2.4 2.4h7.7425q2.4 0 2.4-2.4v-5.055q0-2.4-2.4-2.4h-7.7425q-2.4 0-2.4 2.4z" clip-path="url(#a)" fill="#fff" stroke="#fff"/>
<g clip-path="url(#a)">
<defs>
<path id="ak" d="m9.8125 72.906h46.094v-8.3125h-36.234v-21.578h34.719v-8.2969h-34.719v-26.422h37.109v-8.2969h-46.969z"/>
</defs>
<g transform="translate(856.14 513.2) rotate(90) scale(.08 -.08)">
<use xlink:href="#ak"/>
</g>
</g>
<path d="m885.1 579.09 1.3961 5.409q0.59979 2.3238 2.9236 1.7241l7.4968-1.9349q2.3238-0.59979 1.7241-2.9236l-1.3961-5.409q-0.59979-2.3238-2.9236-1.7241l-7.4968 1.9349q-2.3238 0.59979-1.7241 2.9236z" clip-path="url(#a)" fill="#fff" stroke="#fff"/>
<g clip-path="url(#a)">
<g transform="translate(889.03 578.07) rotate(75.528) scale(.08 -.08)">
<use xlink:href="#q"/>
</g>
</g>
<path d="m997.45 650.29 1.8201-5.2523q0.78582-2.2677-1.4819-3.0535l-7.3157-2.5351q-2.2677-0.78582-3.0535 1.4819l-1.8201 5.2523q-0.78582 2.2677 1.4819 3.0535l7.3157 2.5351q2.2677 0.78582 3.0535-1.4819z" clip-path="url(#a)" fill="#fff" stroke="#fff"/>
<g clip-path="url(#a)">
<g transform="translate(993.61 648.96) rotate(-70.887) scale(.08 -.08)">
<use xlink:href="#w"/>
</g>
</g>
<path d="m1008.5 643.31v4.6012q0 2.4 2.4 2.4h7.7425q2.4 0 2.4-2.4v-4.6012q0-2.4-2.4-2.4h-7.7425q-2.4 0-2.4 2.4z" clip-path="url(#a)" fill="#fff" stroke="#fff"/>
<g clip-path="url(#a)">
<g transform="translate(1012.6 643.31) rotate(90) scale(.08 -.08)">
<use xlink:href="#ap"/>
</g>
</g>
<path d="m1030.3 645.03 1.8291 5.2783q0.78582 2.2677 3.0535 1.4819l7.3157-2.5351q2.2677-0.78582 1.4819-3.0535l-1.8291-5.2783q-0.78582-2.2677-3.0535-1.4819l-7.3157 2.5351q-2.2677 0.78582-1.4819 3.0535z" clip-path="url(#a)" fill="#fff" stroke="#fff"/>
<g clip-path="url(#a)">
<g transform="translate(1034.1 643.7) rotate(70.887) scale(.08 -.08)">
<use xlink:href="#q"/>
</g>
</g>
<path d="m963.82 756.95v35.285q0 2.4 2.4 2.4h7.7425q2.4 0 2.4-2.4v-35.285q0-2.4-2.4-2.4h-7.7425q-2.4 0-2.4 2.4z" clip-path="url(#a)" fill="#fff" stroke="#fff"/>
<g clip-path="url(#a)">
<g transform="translate(967.88 756.95) rotate(90) scale(.08 -.08)">
<use xlink:href="#k"/>
<use x="60.818359" xlink:href="#e"/>
<use x="122.341797" xlink:href="#j"/>
<use x="163.439453" xlink:href="#h"/>
<use x="260.851562" xlink:href="#i"/>
<use x="288.634766" xlink:href="#f"/>
<use x="352.013672" xlink:href="#g"/>
<use x="413.292969" xlink:href="#l"/>
</g>
</g>
<path d="m1008.5 756.95v35.285q0 2.4 2.4 2.4h7.7425q2.4 0 2.4-2.4v-35.285q0-2.4-2.4-2.4h-7.7425q-2.4 0-2.4 2.4z" clip-path="url(#a)" fill="#fff" stroke="#fff"/>
<g clip-path="url(#a)">
<g transform="translate(1012.6 756.95) rotate(90) scale(.08 -.08)">
<use xlink:href="#k"/>
<use x="60.818359" xlink:href="#e"/>
<use x="122.341797" xlink:href="#j"/>
<use x="163.439453" xlink:href="#h"/>
<use x="260.851562" xlink:href="#i"/>
<use x="288.634766" xlink:href="#f"/>
<use x="352.013672" xlink:href="#g"/>
<use x="413.292969" xlink:href="#l"/>
</g>
</g>
<path d="m1053.2 756.95v35.285q0 2.4 2.4 2.4h7.7425q2.4 0 2.4-2.4v-35.285q0-2.4-2.4-2.4h-7.7425q-2.4 0-2.4 2.4z" clip-path="url(#a)" fill="#fff" stroke="#fff"/>
<g clip-path="url(#a)">
<g transform="translate(1057.3 756.95) rotate(90) scale(.08 -.08)">
<use xlink:href="#k"/>
<use x="60.818359" xlink:href="#e"/>
<use x="122.341797" xlink:href="#j"/>
<use x="163.439453" xlink:href="#h"/>
<use x="260.851562" xlink:href="#i"/>
<use x="288.634766" xlink:href="#f"/>
<use x="352.013672" xlink:href="#g"/>
<use x="413.292969" xlink:href="#l"/>
</g>
</g>
<path d="m785.03 756.95v35.285q0 2.4 2.4 2.4h7.7425q2.4 0 2.4-2.4v-35.285q0-2.4-2.4-2.4h-7.7425q-2.4 0-2.4 2.4z" clip-path="url(#a)" fill="#fff" stroke="#fff"/>
<g clip-path="url(#a)">
<g transform="translate(789.1 756.95) rotate(90) scale(.08 -.08)">
<use xlink:href="#k"/>
<use x="60.818359" xlink:href="#e"/>
<use x="122.341797" xlink:href="#j"/>
<use x="163.439453" xlink:href="#h"/>
<use x="260.851562" xlink:href="#i"/>
<use x="288.634766" xlink:href="#f"/>
<use x="352.013672" xlink:href="#g"/>
<use x="413.292969" xlink:href="#l"/>
</g>
</g>
<path d="m852.92 649.17 0.86299-4.9808q0.40973-2.3648-1.955-2.7745l-7.6288-1.3218q-2.3648-0.40973-2.7745 1.955l-0.86299 4.9808q-0.40973 2.3648 1.955 2.7745l7.6288 1.3218q2.3648 0.40973 2.7745-1.955z" clip-path="url(#a)" fill="#fff" stroke="#fff"/>
<g clip-path="url(#a)">
<g transform="translate(848.92 648.48) rotate(-80.17) scale(.08 -.08)">
<use xlink:href="#ak"/>
</g>
</g>
<path d="m862.87 643.93 0.95369 5.5042q0.40973 2.3648 2.7745 1.955l7.6288-1.3218q2.3648-0.40973 1.955-2.7745l-0.95369-5.5042q-0.40973-2.3648-2.7745-1.955l-7.6288 1.3218q-2.3648 0.40973-1.955 2.7745z" clip-path="url(#a)" fill="#fff" stroke="#fff"/>
<g clip-path="url(#a)">
<g transform="translate(866.87 643.24) rotate(80.17) scale(.08 -.08)">
<use xlink:href="#q"/>
</g>
</g>
<path d="m919.12 756.95v35.285q0 2.4 2.4 2.4h7.7425q2.4 0 2.4-2.4v-35.285q0-2.4-2.4-2.4h-7.7425q-2.4 0-2.4 2.4z" clip-path="url(#a)" fill="#fff" stroke="#fff"/>
<g clip-path="url(#a)">
<g transform="translate(923.18 756.95) rotate(90) scale(.08 -.08)">
<use xlink:href="#k"/>
<use x="60.818359" xlink:href="#e"/>
<use x="122.341797" xlink:href="#j"/>
<use x="163.439453" xlink:href="#h"/>
<use x="260.851562" xlink:href="#i"/>
<use x="288.634766" xlink:href="#f"/>
<use x="352.013672" xlink:href="#g"/>
<use x="413.292969" xlink:href="#l"/>
</g>
</g>
<path d="m829.73 756.95v35.285q0 2.4 2.4 2.4h7.7425q2.4 0 2.4-2.4v-35.285q0-2.4-2.4-2.4h-7.7425q-2.4 0-2.4 2.4z" clip-path="url(#a)" fill="#fff" stroke="#fff"/>
<g clip-path="url(#a)">
<g transform="translate(833.79 756.95) rotate(90) scale(.08 -.08)">
<use xlink:href="#k"/>
<use x="60.818359" xlink:href="#e"/>
<use x="122.341797" xlink:href="#j"/>
<use x="163.439453" xlink:href="#h"/>
<use x="260.851562" xlink:href="#i"/>
<use x="288.634766" xlink:href="#f"/>
<use x="352.013672" xlink:href="#g"/>
<use x="413.292969" xlink:href="#l"/>
</g>
</g>
<path d="m874.42 756.95v35.285q0 2.4 2.4 2.4h7.7425q2.4 0 2.4-2.4v-35.285q0-2.4-2.4-2.4h-7.7425q-2.4 0-2.4 2.4z" clip-path="url(#a)" fill="#fff" stroke="#fff"/>
<g clip-path="url(#a)">
<g transform="translate(878.49 756.95) rotate(90) scale(.08 -.08)">
<use xlink:href="#k"/>
<use x="60.818359" xlink:href="#e"/>
<use x="122.341797" xlink:href="#j"/>
<use x="163.439453" xlink:href="#h"/>
<use x="260.851562" xlink:href="#i"/>
<use x="288.634766" xlink:href="#f"/>
<use x="352.013672" xlink:href="#g"/>
<use x="413.292969" xlink:href="#l"/>
</g>
</g>
<path d="m695.64 756.95v35.285q0 2.4 2.4 2.4h7.7425q2.4 0 2.4-2.4v-35.285q0-2.4-2.4-2.4h-7.7425q-2.4 0-2.4 2.4z" clip-path="url(#a)" fill="#fff" stroke="#fff"/>
<g clip-path="url(#a)">
<g transform="translate(699.7 756.95) rotate(90) scale(.08 -.08)">
<use xlink:href="#k"/>
<use x="60.818359" xlink:href="#e"/>
<use x="122.341797" xlink:href="#j"/>
<use x="163.439453" xlink:href="#h"/>
<use x="260.851562" xlink:href="#i"/>
<use x="288.634766" xlink:href="#f"/>
<use x="352.013672" xlink:href="#g"/>
<use x="413.292969" xlink:href="#l"/>
</g>
</g>
<path d="m740.34 756.95v35.285q0 2.4 2.4 2.4h7.7425q2.4 0 2.4-2.4v-35.285q0-2.4-2.4-2.4h-7.7425q-2.4 0-2.4 2.4z" clip-path="url(#a)" fill="#fff" stroke="#fff"/>
<g clip-path="url(#a)">
<g transform="translate(744.4 756.95) rotate(90) scale(.08 -.08)">
<use xlink:href="#k"/>
<use x="60.818359" xlink:href="#e"/>
<use x="122.341797" xlink:href="#j"/>
<use x="163.439453" xlink:href="#h"/>
<use x="260.851562" xlink:href="#i"/>
<use x="288.634766" xlink:href="#f"/>
<use x="352.013672" xlink:href="#g"/>
<use x="413.292969" xlink:href="#l"/>
</g>
</g>
<path d="m606.25 756.95v35.285q0 2.4 2.4 2.4h7.7425q2.4 0 2.4-2.4v-35.285q0-2.4-2.4-2.4h-7.7425q-2.4 0-2.4 2.4z" clip-path="url(#a)" fill="#fff" stroke="#fff"/>
<g clip-path="url(#a)">
<g transform="translate(610.31 756.95) rotate(90) scale(.08 -.08)">
<use xlink:href="#k"/>
<use x="60.818359" xlink:href="#e"/>
<use x="122.341797" xlink:href="#j"/>
<use x="163.439453" xlink:href="#h"/>
<use x="260.851562" xlink:href="#i"/>
<use x="288.634766" xlink:href="#f"/>
<use x="352.013672" xlink:href="#g"/>
<use x="413.292969" xlink:href="#l"/>
</g>
</g>
<path d="m69.895 756.95v35.285q0 2.4 2.4 2.4h7.7425q2.4 0 2.4-2.4v-35.285q0-2.4-2.4-2.4h-7.7425q-2.4 0-2.4 2.4z" clip-path="url(#a)" fill="#fff" stroke="#fff"/>
<g clip-path="url(#a)">
<g transform="translate(73.959 756.95) rotate(90) scale(.08 -.08)">
<use xlink:href="#k"/>
<use x="60.818359" xlink:href="#e"/>
<use x="122.341797" xlink:href="#j"/>
<use x="163.439453" xlink:href="#h"/>
<use x="260.851562" xlink:href="#i"/>
<use x="288.634766" xlink:href="#f"/>
<use x="352.013672" xlink:href="#g"/>
<use x="413.292969" xlink:href="#l"/>
</g>
</g>
<path d="m114.59 756.95v35.285q0 2.4 2.4 2.4h7.7425q2.4 0 2.4-2.4v-35.285q0-2.4-2.4-2.4h-7.7425q-2.4 0-2.4 2.4z" clip-path="url(#a)" fill="#fff" stroke="#fff"/>
<g clip-path="url(#a)">
<g transform="translate(118.66 756.95) rotate(90) scale(.08 -.08)">
<use xlink:href="#k"/>
<use x="60.818359" xlink:href="#e"/>
<use x="122.341797" xlink:href="#j"/>
<use x="163.439453" xlink:href="#h"/>
<use x="260.851562" xlink:href="#i"/>
<use x="288.634766" xlink:href="#f"/>
<use x="352.013672" xlink:href="#g"/>
<use x="413.292969" xlink:href="#l"/>
</g>
</g>
<path d="m311.84 519.51 3.2682-4.4965q1.411-1.9414-0.53033-3.3524l-6.263-4.5521q-1.9414-1.411-3.3524 0.53033l-3.2682 4.4965q-1.411 1.9414 0.53033 3.3524l6.263 4.5521q1.9414 1.411 3.3524-0.53033z" clip-path="url(#a)" fill="#fff" stroke="#fff"/>
<g clip-path="url(#a)">
<g transform="translate(308.55 517.12) rotate(-53.989) scale(.08 -.08)">
<use xlink:href="#w"/>
</g>
</g>
<path d="m334.48 519.48 3.2198-5.2515q1.2545-2.0461-0.79159-3.3005l-6.6007-4.0469q-2.0461-1.2545-3.3005 0.79159l-3.2198 5.2515q-1.2545 2.0461 0.79159 3.3005l6.6007 4.0469q2.0461 1.2545 3.3005-0.79159z" clip-path="url(#a)" fill="#fff" stroke="#fff"/>
<g clip-path="url(#a)">
<defs>
<path id="aq" d="m19.672 64.797v-56.688h11.922q15.094 0 22.094 6.8281 7 6.8438 7 21.594 0 14.641-7 21.453t-22.094 6.8125zm-9.8594 8.1094h20.266q21.188 0 31.094-8.8125 9.9219-8.8125 9.9219-27.562 0-18.859-9.9688-27.703-9.9531-8.8281-31.047-8.8281h-20.266z"/>
</defs>
<g transform="translate(331.02 517.36) rotate(-58.487) scale(.08 -.08)">
<use xlink:href="#aq"/>
</g>
</g>
<path d="m402.7 453.67 1.81-4.4713q0.90055-2.2246-1.3241-3.1252l-7.1768-2.9052q-2.2246-0.90055-3.1252 1.3241l-1.81 4.4713q-0.90055 2.2246 1.3241 3.1252l7.1768 2.9052q2.2246 0.90055 3.1252-1.3241z" clip-path="url(#a)" fill="#fff" stroke="#fff"/>
<g clip-path="url(#a)">
<g transform="translate(398.93 452.15) rotate(-67.962) scale(.08 -.08)">
<use xlink:href="#x"/>
</g>
</g>
<path d="m391.05 454.3 2.4057-4.9153q1.0551-2.1557-1.1006-3.2107l-6.9542-3.4037q-2.1557-1.0551-3.2107 1.1006l-2.4057 4.9153q-1.0551 2.1557 1.1006 3.2107l6.9542 3.4037q2.1557 1.0551 3.2107-1.1006z" clip-path="url(#a)" fill="#fff" stroke="#fff"/>
<g clip-path="url(#a)">
<g transform="translate(387.4 452.51) rotate(-63.921) scale(.08 -.08)">
<use xlink:href="#r"/>
</g>
</g>
<path d="m425.91 517.26 0.85539-5.4052q0.37514-2.3705-1.9954-2.7456l-7.6473-1.2102q-2.3705-0.37514-2.7456 1.9954l-0.85539 5.4052q-0.37514 2.3705 1.9954 2.7456l7.6473 1.2102q2.3705 0.37514 2.7456-1.9954z" clip-path="url(#a)" fill="#fff" stroke="#fff"/>
<g clip-path="url(#a)">
<g transform="translate(421.89 516.62) rotate(-81.007) scale(.08 -.08)">
<use xlink:href="#r"/>
</g>
</g>
<path d="m860.05 389.45 5.4024 0.87286q2.3693 0.3828 2.7521-1.9865l1.2349-7.6434q0.3828-2.3693-1.9865-2.7521l-5.4024-0.87286q-2.3693-0.3828-2.7521 1.9865l-1.2349 7.6434q-0.3828 2.3693 1.9865 2.7521z" clip-path="url(#a)" fill="#fff" stroke="#fff"/>
<g clip-path="url(#a)">
<g transform="translate(860.7 385.44) rotate(9.1778) scale(.08 -.08)">
<use xlink:href="#r"/>
</g>
</g>
<path d="m159.29 756.95v35.285q0 2.4 2.4 2.4h7.7425q2.4 0 2.4-2.4v-35.285q0-2.4-2.4-2.4h-7.7425q-2.4 0-2.4 2.4z" clip-path="url(#a)" fill="#fff" stroke="#fff"/>
<g clip-path="url(#a)">
<g transform="translate(163.35 756.95) rotate(90) scale(.08 -.08)">
<use xlink:href="#k"/>
<use x="60.818359" xlink:href="#e"/>
<use x="122.341797" xlink:href="#j"/>
<use x="163.439453" xlink:href="#h"/>
<use x="260.851562" xlink:href="#i"/>
<use x="288.634766" xlink:href="#f"/>
<use x="352.013672" xlink:href="#g"/>
<use x="413.292969" xlink:href="#l"/>
</g>
</g>
<path d="m203.98 756.95v35.285q0 2.4 2.4 2.4h7.7425q2.4 0 2.4-2.4v-35.285q0-2.4-2.4-2.4h-7.7425q-2.4 0-2.4 2.4z" clip-path="url(#a)" fill="#fff" stroke="#fff"/>
<g clip-path="url(#a)">
<g transform="translate(208.05 756.95) rotate(90) scale(.08 -.08)">
<use xlink:href="#k"/>
<use x="60.818359" xlink:href="#e"/>
<use x="122.341797" xlink:href="#j"/>
<use x="163.439453" xlink:href="#h"/>
<use x="260.851562" xlink:href="#i"/>
<use x="288.634766" xlink:href="#f"/>
<use x="352.013672" xlink:href="#g"/>
<use x="413.292969" xlink:href="#l"/>
</g>
</g>
<path d="m303.22 651.47 3.1664-4.5688q1.3671-1.9726-0.60547-3.3397l-6.3636-4.4103q-1.9726-1.3671-3.3397 0.60547l-3.1664 4.5688q-1.3671 1.9726 0.60547 3.3397l6.3636 4.4103q1.9726 1.3671 3.3397-0.60547z" clip-path="url(#a)" fill="#fff" stroke="#fff"/>
<g clip-path="url(#a)">
<g transform="translate(299.88 649.15) rotate(-55.276) scale(.08 -.08)">
<use xlink:href="#w"/>
</g>
</g>
<path d="m382.29 646.89 3.1821 4.5914q1.3671 1.9726 3.3397 0.60547l6.3636-4.4103q1.9726-1.3671 0.60547-3.3397l-3.1821-4.5914q-1.3671-1.9726-3.3397-0.60547l-6.3636 4.4103q-1.9726 1.3671-0.60547 3.3397z" clip-path="url(#a)" fill="#fff" stroke="#fff"/>
<g clip-path="url(#a)">
<g transform="translate(385.63 644.57) rotate(55.276) scale(.08 -.08)">
<use xlink:href="#q"/>
</g>
</g>
<path d="m316.52 649.43 0.95369-5.5042q0.40973-2.3648-1.955-2.7745l-7.6288-1.3218q-2.3648-0.40973-2.7745 1.955l-0.95369 5.5042q-0.40973 2.3648 1.955 2.7745l7.6288 1.3218q2.3648 0.40973 2.7745-1.955z" clip-path="url(#a)" fill="#fff" stroke="#fff"/>
<g clip-path="url(#a)">
<g transform="translate(312.52 648.74) rotate(-80.17) scale(.08 -.08)">
<use xlink:href="#q"/>
</g>
</g>
<path d="m326.52 643.94 0.94899 5.4771q0.40973 2.3648 2.7745 1.955l7.6288-1.3218q2.3648-0.40973 1.955-2.7745l-0.94899-5.4771q-0.40973-2.3648-2.7745-1.955l-7.6288 1.3218q-2.3648 0.40973-1.955 2.7745z" clip-path="url(#a)" fill="#fff" stroke="#fff"/>
<g clip-path="url(#a)">
<g transform="translate(330.52 643.25) rotate(80.17) scale(.08 -.08)">
<use xlink:href="#w"/>
</g>
</g>
<path d="m382.77 756.95v35.285q0 2.4 2.4 2.4h7.7425q2.4 0 2.4-2.4v-35.285q0-2.4-2.4-2.4h-7.7425q-2.4 0-2.4 2.4z" clip-path="url(#a)" fill="#fff" stroke="#fff"/>
<g clip-path="url(#a)">
<g transform="translate(386.83 756.95) rotate(90) scale(.08 -.08)">
<use xlink:href="#k"/>
<use x="60.818359" xlink:href="#e"/>
<use x="122.341797" xlink:href="#j"/>
<use x="163.439453" xlink:href="#h"/>
<use x="260.851562" xlink:href="#i"/>
<use x="288.634766" xlink:href="#f"/>
<use x="352.013672" xlink:href="#g"/>
<use x="413.292969" xlink:href="#l"/>
</g>
</g>
<path d="m1217 585.48 2.4475-4.9909q1.0567-2.1548-1.0981-3.2116l-6.9516-3.409q-2.1548-1.0567-3.2116 1.0981l-2.4475 4.9909q-1.0567 2.1548 1.0981 3.2116l6.9516 3.409q2.1548 1.0567 3.2116-1.0981z" clip-path="url(#a)" fill="#fff" stroke="#fff"/>
<g clip-path="url(#a)">
<g transform="translate(1213.3 583.69) rotate(-63.877) scale(.08 -.08)">
<use xlink:href="#w"/>
</g>
</g>
<path d="m1262.5 520.16 1.5584-5.3645q0.66954-2.3047-1.6352-2.9743l-7.4351-2.16q-2.3047-0.66954-2.9743 1.6352l-1.5584 5.3645q-0.66954 2.3047 1.6352 2.9743l7.4351 2.16q2.3047 0.66954 2.9743-1.6352z" clip-path="url(#a)" fill="#fff" stroke="#fff"/>
<g clip-path="url(#a)">
<g transform="translate(1258.6 519.03) rotate(-73.801) scale(.08 -.08)">
<use xlink:href="#q"/>
</g>
</g>
<path d="m1326.9 517.95 3.3212 3.8108q1.5768 1.8093 3.3861 0.23245l5.8369-5.087q1.8093-1.5768 0.23245-3.3861l-3.3212-3.8108q-1.5768-1.8093-3.3861-0.23245l-5.8369 5.087q-1.8093 1.5768-0.23246 3.3861z" clip-path="url(#a)" fill="#fff" stroke="#fff"/>
<g clip-path="url(#a)">
<g transform="translate(1329.9 515.28) rotate(48.927) scale(.08 -.08)">
<use xlink:href="#ak"/>
</g>
</g>
<path d="m1295.2 578.57 1.1365 5.7436q0.46587 2.3544 2.8202 1.8885l7.5952-1.5029q2.3544-0.46587 1.8885-2.8202l-1.1365-5.7436q-0.46587-2.3544-2.8202-1.8885l-7.5952 1.5029q-2.3544 0.46587-1.8885 2.8202z" clip-path="url(#a)" fill="#fff" stroke="#fff"/>
<g clip-path="url(#a)">
<g transform="translate(1299.2 577.78) rotate(78.807) scale(.08 -.08)">
<use xlink:href="#aa"/>
</g>
</g>
<path d="m1142.6 756.95v35.285q0 2.4 2.4 2.4h7.7425q2.4 0 2.4-2.4v-35.285q0-2.4-2.4-2.4h-7.7425q-2.4 0-2.4 2.4z" clip-path="url(#a)" fill="#fff" stroke="#fff"/>
<g clip-path="url(#a)">
<g transform="translate(1146.7 756.95) rotate(90) scale(.08 -.08)">
<use xlink:href="#k"/>
<use x="60.818359" xlink:href="#e"/>
<use x="122.341797" xlink:href="#j"/>
<use x="163.439453" xlink:href="#h"/>
<use x="260.851562" xlink:href="#i"/>
<use x="288.634766" xlink:href="#f"/>
<use x="352.013672" xlink:href="#g"/>
<use x="413.292969" xlink:href="#l"/>
</g>
</g>
<path d="m1220.9 650.3 1.8291-5.2783q0.78582-2.2677-1.4819-3.0535l-7.3157-2.5351q-2.2677-0.78582-3.0535 1.4819l-1.8291 5.2783q-0.78582 2.2677 1.4819 3.0535l7.3157 2.5351q2.2677 0.78582 3.0535-1.4819z" clip-path="url(#a)" fill="#fff" stroke="#fff"/>
<g clip-path="url(#a)">
<g transform="translate(1217.1 648.97) rotate(-70.887) scale(.08 -.08)">
<use xlink:href="#q"/>
</g>
</g>
<path d="m1253.8 645.03 1.8291 5.2783q0.78582 2.2677 3.0535 1.4819l7.3157-2.5351q2.2677-0.78582 1.4819-3.0535l-1.8291-5.2783q-0.78582-2.2677-3.0535-1.4819l-7.3157 2.5351q-2.2677 0.78582-1.4819 3.0535z" clip-path="url(#a)" fill="#fff" stroke="#fff"/>
<g clip-path="url(#a)">
<g transform="translate(1257.6 643.7) rotate(70.887) scale(.08 -.08)">
<use xlink:href="#q"/>
</g>
</g>
<path d="m1232 642.68v5.855q0 2.4 2.4 2.4h7.7425q2.4 0 2.4-2.4v-5.855q0-2.4-2.4-2.4h-7.7425q-2.4 0-2.4 2.4z" clip-path="url(#a)" fill="#fff" stroke="#fff"/>
<g clip-path="url(#a)">
<g transform="translate(1236.1 642.68) rotate(90) scale(.08 -.08)">
<use xlink:href="#aa"/>
</g>
</g>
<path d="m1387.1 649.23 0.76321-5.5061q0.32952-2.3773-2.0478-2.7068l-7.6692-1.063q-2.3773-0.32952-2.7068 2.0478l-0.76321 5.5061q-0.32952 2.3773 2.0478 2.7068l7.6692 1.063q2.3773 0.32952 2.7068-2.0478z" clip-path="url(#a)" fill="#fff" stroke="#fff"/>
<g clip-path="url(#a)">
<g transform="translate(1383.1 648.67) rotate(-82.108) scale(.08 -.08)">
<use xlink:href="#w"/>
</g>
</g>
<path d="m1396.9 644.21 1.114 5.3579q0.48855 2.3497 2.8383 1.8612l7.5804-1.5761q2.3497-0.48855 1.8612-2.8383l-1.114-5.3579q-0.48855-2.3497-2.8383-1.8612l-7.5804 1.5761q-2.3497 0.48855-1.8612 2.8383z" clip-path="url(#a)" fill="#fff" stroke="#fff"/>
<g clip-path="url(#a)">
<g transform="translate(1400.9 643.38) rotate(78.255) scale(.08 -.08)">
<use xlink:href="#r"/>
</g>
</g>
<path d="m1419.3 646.54 2.339 4.2187q1.1638 2.099 3.2627 0.93521l6.7714-3.7543q2.099-1.1638 0.93521-3.2627l-2.339-4.2187q-1.1638-2.099-3.2627-0.93521l-6.7714 3.7543q-2.099 1.1638-0.93521 3.2627z" clip-path="url(#a)" fill="#fff" stroke="#fff"/>
<g clip-path="url(#a)">
<g transform="translate(1422.9 644.57) rotate(60.994) scale(.08 -.08)">
<use xlink:href="#x"/>
</g>
</g>
<path d="m1293.1 652.36 4.5761-3.0013q2.0069-1.3162 0.69065-3.3231l-4.2462-6.4743q-1.3162-2.0069-3.3231-0.69065l-4.5761 3.0013q-2.0069 1.3162-0.69065 3.3231l4.2462 6.4743q1.3162 2.0069 3.3231 0.69065z" clip-path="url(#a)" fill="#fff" stroke="#fff"/>
<g clip-path="url(#a)">
<g transform="translate(1290.8 648.96) rotate(-33.259) scale(.08 -.08)">
<use xlink:href="#r"/>
</g>
</g>
<path d="m1441.7 647.63 3.9191 4.3499q1.6065 1.783 3.3895 0.17657l5.7522-5.1826q1.783-1.6065 0.17657-3.3895l-3.9191-4.3499q-1.6065-1.783-3.3895-0.17657l-5.7522 5.1826q-1.783 1.6065-0.17657 3.3895z" clip-path="url(#a)" fill="#fff" stroke="#fff"/>
<g clip-path="url(#a)">
<g transform="translate(1444.7 644.91) rotate(47.982) scale(.08 -.08)">
<use xlink:href="#aa"/>
</g>
</g>
<path d="m1366.1 756.95v35.285q0 2.4 2.4 2.4h7.7425q2.4 0 2.4-2.4v-35.285q0-2.4-2.4-2.4h-7.7425q-2.4 0-2.4 2.4z" clip-path="url(#a)" fill="#fff" stroke="#fff"/>
<g clip-path="url(#a)">
<g transform="translate(1370.1 756.95) rotate(90) scale(.08 -.08)">
<use xlink:href="#k"/>
<use x="60.818359" xlink:href="#e"/>
<use x="122.341797" xlink:href="#j"/>
<use x="163.439453" xlink:href="#h"/>
<use x="260.851562" xlink:href="#i"/>
<use x="288.634766" xlink:href="#f"/>
<use x="352.013672" xlink:href="#g"/>
<use x="413.292969" xlink:href="#l"/>
</g>
</g>
<path d="m1410.8 756.95v35.285q0 2.4 2.4 2.4h7.7425q2.4 0 2.4-2.4v-35.285q0-2.4-2.4-2.4h-7.7425q-2.4 0-2.4 2.4z" clip-path="url(#a)" fill="#fff" stroke="#fff"/>
<g clip-path="url(#a)">
<g transform="translate(1414.8 756.95) rotate(90) scale(.08 -.08)">
<use xlink:href="#k"/>
<use x="60.818359" xlink:href="#e"/>
<use x="122.341797" xlink:href="#j"/>
<use x="163.439453" xlink:href="#h"/>
<use x="260.851562" xlink:href="#i"/>
<use x="288.634766" xlink:href="#f"/>
<use x="352.013672" xlink:href="#g"/>
<use x="413.292969" xlink:href="#l"/>
</g>
</g>
<path d="m1455.5 756.95v35.285q0 2.4 2.4 2.4h7.7425q2.4 0 2.4-2.4v-35.285q0-2.4-2.4-2.4h-7.7425q-2.4 0-2.4 2.4z" clip-path="url(#a)" fill="#fff" stroke="#fff"/>
<g clip-path="url(#a)">
<g transform="translate(1459.5 756.95) rotate(90) scale(.08 -.08)">
<use xlink:href="#k"/>
<use x="60.818359" xlink:href="#e"/>
<use x="122.341797" xlink:href="#j"/>
<use x="163.439453" xlink:href="#h"/>
<use x="260.851562" xlink:href="#i"/>
<use x="288.634766" xlink:href="#f"/>
<use x="352.013672" xlink:href="#g"/>
<use x="413.292969" xlink:href="#l"/>
</g>
</g>
<path d="m1187.3 756.95v35.285q0 2.4 2.4 2.4h7.7425q2.4 0 2.4-2.4v-35.285q0-2.4-2.4-2.4h-7.7425q-2.4 0-2.4 2.4z" clip-path="url(#a)" fill="#fff" stroke="#fff"/>
<g clip-path="url(#a)">
<g transform="translate(1191.4 756.95) rotate(90) scale(.08 -.08)">
<use xlink:href="#k"/>
<use x="60.818359" xlink:href="#e"/>
<use x="122.341797" xlink:href="#j"/>
<use x="163.439453" xlink:href="#h"/>
<use x="260.851562" xlink:href="#i"/>
<use x="288.634766" xlink:href="#f"/>
<use x="352.013672" xlink:href="#g"/>
<use x="413.292969" xlink:href="#l"/>
</g>
</g>
<path d="m1276.7 756.95v35.285q0 2.4 2.4 2.4h7.7425q2.4 0 2.4-2.4v-35.285q0-2.4-2.4-2.4h-7.7425q-2.4 0-2.4 2.4z" clip-path="url(#a)" fill="#fff" stroke="#fff"/>
<g clip-path="url(#a)">
<g transform="translate(1280.8 756.95) rotate(90) scale(.08 -.08)">
<use xlink:href="#k"/>
<use x="60.818359" xlink:href="#e"/>
<use x="122.341797" xlink:href="#j"/>
<use x="163.439453" xlink:href="#h"/>
<use x="260.851562" xlink:href="#i"/>
<use x="288.634766" xlink:href="#f"/>
<use x="352.013672" xlink:href="#g"/>
<use x="413.292969" xlink:href="#l"/>
</g>
</g>
<path d="m472.16 756.95v35.285q0 2.4 2.4 2.4h7.7425q2.4 0 2.4-2.4v-35.285q0-2.4-2.4-2.4h-7.7425q-2.4 0-2.4 2.4z" clip-path="url(#a)" fill="#fff" stroke="#fff"/>
<g clip-path="url(#a)">
<g transform="translate(476.22 756.95) rotate(90) scale(.08 -.08)">
<use xlink:href="#k"/>
<use x="60.818359" xlink:href="#e"/>
<use x="122.341797" xlink:href="#j"/>
<use x="163.439453" xlink:href="#h"/>
<use x="260.851562" xlink:href="#i"/>
<use x="288.634766" xlink:href="#f"/>
<use x="352.013672" xlink:href="#g"/>
<use x="413.292969" xlink:href="#l"/>
</g>
</g>
<path d="m293.38 756.95v35.285q0 2.4 2.4 2.4h7.7425q2.4 0 2.4-2.4v-35.285q0-2.4-2.4-2.4h-7.7425q-2.4 0-2.4 2.4z" clip-path="url(#a)" fill="#fff" stroke="#fff"/>
<g clip-path="url(#a)">
<g transform="translate(297.44 756.95) rotate(90) scale(.08 -.08)">
<use xlink:href="#k"/>
<use x="60.818359" xlink:href="#e"/>
<use x="122.341797" xlink:href="#j"/>
<use x="163.439453" xlink:href="#h"/>
<use x="260.851562" xlink:href="#i"/>
<use x="288.634766" xlink:href="#f"/>
<use x="352.013672" xlink:href="#g"/>
<use x="413.292969" xlink:href="#l"/>
</g>
</g>
<path d="m338.07 756.95v35.285q0 2.4 2.4 2.4h7.7425q2.4 0 2.4-2.4v-35.285q0-2.4-2.4-2.4h-7.7425q-2.4 0-2.4 2.4z" clip-path="url(#a)" fill="#fff" stroke="#fff"/>
<g clip-path="url(#a)">
<g transform="translate(342.14 756.95) rotate(90) scale(.08 -.08)">
<use xlink:href="#k"/>
<use x="60.818359" xlink:href="#e"/>
<use x="122.341797" xlink:href="#j"/>
<use x="163.439453" xlink:href="#h"/>
<use x="260.851562" xlink:href="#i"/>
<use x="288.634766" xlink:href="#f"/>
<use x="352.013672" xlink:href="#g"/>
<use x="413.292969" xlink:href="#l"/>
</g>
</g>
<path d="m248.68 756.95v35.285q0 2.4 2.4 2.4h7.7425q2.4 0 2.4-2.4v-35.285q0-2.4-2.4-2.4h-7.7425q-2.4 0-2.4 2.4z" clip-path="url(#a)" fill="#fff" stroke="#fff"/>
<g clip-path="url(#a)">
<g transform="translate(252.74 756.95) rotate(90) scale(.08 -.08)">
<use xlink:href="#k"/>
<use x="60.818359" xlink:href="#e"/>
<use x="122.341797" xlink:href="#j"/>
<use x="163.439453" xlink:href="#h"/>
<use x="260.851562" xlink:href="#i"/>
<use x="288.634766" xlink:href="#f"/>
<use x="352.013672" xlink:href="#g"/>
<use x="413.292969" xlink:href="#l"/>
</g>
</g>
<path d="m427.46 756.95v35.285q0 2.4 2.4 2.4h7.7425q2.4 0 2.4-2.4v-35.285q0-2.4-2.4-2.4h-7.7425q-2.4 0-2.4 2.4z" clip-path="url(#a)" fill="#fff" stroke="#fff"/>
<g clip-path="url(#a)">
<g transform="translate(431.53 756.95) rotate(90) scale(.08 -.08)">
<use xlink:href="#k"/>
<use x="60.818359" xlink:href="#e"/>
<use x="122.341797" xlink:href="#j"/>
<use x="163.439453" xlink:href="#h"/>
<use x="260.851562" xlink:href="#i"/>
<use x="288.634766" xlink:href="#f"/>
<use x="352.013672" xlink:href="#g"/>
<use x="413.292969" xlink:href="#l"/>
</g>
</g>
<path d="m1097.9 756.95v35.285q0 2.4 2.4 2.4h7.7425q2.4 0 2.4-2.4v-35.285q0-2.4-2.4-2.4h-7.7425q-2.4 0-2.4 2.4z" clip-path="url(#a)" fill="#fff" stroke="#fff"/>
<g clip-path="url(#a)">
<g transform="translate(1102 756.95) rotate(90) scale(.08 -.08)">
<use xlink:href="#k"/>
<use x="60.818359" xlink:href="#e"/>
<use x="122.341797" xlink:href="#j"/>
<use x="163.439453" xlink:href="#h"/>
<use x="260.851562" xlink:href="#i"/>
<use x="288.634766" xlink:href="#f"/>
<use x="352.013672" xlink:href="#g"/>
<use x="413.292969" xlink:href="#l"/>
</g>
</g>
<path d="m1232 756.95v35.285q0 2.4 2.4 2.4h7.7425q2.4 0 2.4-2.4v-35.285q0-2.4-2.4-2.4h-7.7425q-2.4 0-2.4 2.4z" clip-path="url(#a)" fill="#fff" stroke="#fff"/>
<g clip-path="url(#a)">
<g transform="translate(1236.1 756.95) rotate(90) scale(.08 -.08)">
<use xlink:href="#k"/>
<use x="60.818359" xlink:href="#e"/>
<use x="122.341797" xlink:href="#j"/>
<use x="163.439453" xlink:href="#h"/>
<use x="260.851562" xlink:href="#i"/>
<use x="288.634766" xlink:href="#f"/>
<use x="352.013672" xlink:href="#g"/>
<use x="413.292969" xlink:href="#l"/>
</g>
</g>
<path d="m1321.4 756.95v35.285q0 2.4 2.4 2.4h7.7425q2.4 0 2.4-2.4v-35.285q0-2.4-2.4-2.4h-7.7425q-2.4 0-2.4 2.4z" clip-path="url(#a)" fill="#fff" stroke="#fff"/>
<g clip-path="url(#a)">
<g transform="translate(1325.4 756.95) rotate(90) scale(.08 -.08)">
<use xlink:href="#k"/>
<use x="60.818359" xlink:href="#e"/>
<use x="122.341797" xlink:href="#j"/>
<use x="163.439453" xlink:href="#h"/>
<use x="260.851562" xlink:href="#i"/>
<use x="288.634766" xlink:href="#f"/>
<use x="352.013672" xlink:href="#g"/>
<use x="413.292969" xlink:href="#l"/>
</g>
</g>
<path d="m1500.2 756.95v35.285q0 2.4 2.4 2.4h7.7425q2.4 0 2.4-2.4v-35.285q0-2.4-2.4-2.4h-7.7425q-2.4 0-2.4 2.4z" clip-path="url(#a)" fill="#fff" stroke="#fff"/>
<g clip-path="url(#a)">
<g transform="translate(1504.2 756.95) rotate(90) scale(.08 -.08)">
<use xlink:href="#k"/>
<use x="60.818359" xlink:href="#e"/>
<use x="122.341797" xlink:href="#j"/>
<use x="163.439453" xlink:href="#h"/>
<use x="260.851562" xlink:href="#i"/>
<use x="288.634766" xlink:href="#f"/>
<use x="352.013672" xlink:href="#g"/>
<use x="413.292969" xlink:href="#l"/>
</g>
</g>
<defs>
<path id="b" d="m0 8.6603c2.2967 0 4.4997-0.9125 6.1237-2.5365 1.624-1.624 2.5365-3.827 2.5365-6.1237s-0.9125-4.4997-2.5365-6.1237c-1.624-1.624-3.827-2.5365-6.1237-2.5365s-4.4997 0.9125-6.1237 2.5365c-1.624 1.624-2.5365 3.827-2.5365 6.1237s0.9125 4.4997 2.5365 6.1237c1.624 1.624 3.827 2.5365 6.1237 2.5365z"/>
</defs>
<g clip-path="url(#a)">
<use x="76.166685" y="839.086073" fill="#ffffff" stroke="#ffffff" xlink:href="#b"/>
</g>
<g clip-path="url(#a)">
<use x="120.862762" y="839.086073" fill="#ffffff" stroke="#ffffff" xlink:href="#b"/>
</g>
<g clip-path="url(#a)">
<use x="165.55884" y="839.086073" fill="#ffffff" stroke="#ffffff" xlink:href="#b"/>
</g>
<g clip-path="url(#a)">
<use x="210.254917" y="839.086073" fill="#ffffff" stroke="#ffffff" xlink:href="#b"/>
</g>
<g clip-path="url(#a)">
<use x="254.950994" y="839.086073" fill="#ffffff" stroke="#ffffff" xlink:href="#b"/>
</g>
<g clip-path="url(#a)">
<use x="299.647072" y="839.086073" fill="#ffffff" stroke="#ffffff" xlink:href="#b"/>
</g>
<g clip-path="url(#a)">
<use x="344.343149" y="839.086073" fill="#ffffff" stroke="#ffffff" xlink:href="#b"/>
</g>
<g clip-path="url(#a)">
<use x="389.039226" y="839.086073" fill="#ffffff" stroke="#ffffff" xlink:href="#b"/>
</g>
<g clip-path="url(#a)">
<use x="433.735304" y="839.086073" fill="#ffffff" stroke="#ffffff" xlink:href="#b"/>
</g>
<g clip-path="url(#a)">
<use x="478.431381" y="839.086073" fill="#ffffff" stroke="#ffffff" xlink:href="#b"/>
</g>
<g clip-path="url(#a)">
<use x="523.127458" y="839.086073" fill="#ffffff" stroke="#ffffff" xlink:href="#b"/>
</g>
<g clip-path="url(#a)">
<use x="567.823536" y="839.086073" fill="#ffffff" stroke="#ffffff" xlink:href="#b"/>
</g>
<g clip-path="url(#a)">
<use x="612.519613" y="839.086073" fill="#ffffff" stroke="#ffffff" xlink:href="#b"/>
</g>
<g clip-path="url(#a)">
<use x="657.215691" y="839.086073" fill="#ffffff" stroke="#ffffff" xlink:href="#b"/>
</g>
<g clip-path="url(#a)">
<use x="701.911768" y="839.086073" fill="#ffffff" stroke="#ffffff" xlink:href="#b"/>
</g>
<g clip-path="url(#a)">
<use x="746.607845" y="839.086073" fill="#ffffff" stroke="#ffffff" xlink:href="#b"/>
</g>
<g clip-path="url(#a)">
<use x="791.303923" y="839.086073" fill="#ffffff" stroke="#ffffff" xlink:href="#b"/>
</g>
<g clip-path="url(#a)">
<use x="836" y="839.086073" fill="#ffffff" stroke="#ffffff" xlink:href="#b"/>
</g>
<g clip-path="url(#a)">
<use x="880.696077" y="839.086073" fill="#ffffff" stroke="#ffffff" xlink:href="#b"/>
</g>
<g clip-path="url(#a)">
<use x="925.392155" y="839.086073" fill="#ffffff" stroke="#ffffff" xlink:href="#b"/>
</g>
<g clip-path="url(#a)">
<use x="970.088232" y="839.086073" fill="#ffffff" stroke="#ffffff" xlink:href="#b"/>
</g>
<g clip-path="url(#a)">
<use x="1014.784309" y="839.086073" fill="#ffffff" stroke="#ffffff" xlink:href="#b"/>
</g>
<g clip-path="url(#a)">
<use x="1059.480387" y="839.086073" fill="#ffffff" stroke="#ffffff" xlink:href="#b"/>
</g>
<g clip-path="url(#a)">
<use x="1104.176464" y="839.086073" fill="#ffffff" stroke="#ffffff" xlink:href="#b"/>
</g>
<g clip-path="url(#a)">
<use x="1148.872542" y="839.086073" fill="#ffffff" stroke="#ffffff" xlink:href="#b"/>
</g>
<g clip-path="url(#a)">
<use x="1193.568619" y="839.086073" fill="#ffffff" stroke="#ffffff" xlink:href="#b"/>
</g>
<g clip-path="url(#a)">
<use x="1238.264696" y="839.086073" fill="#ffffff" stroke="#ffffff" xlink:href="#b"/>
</g>
<g clip-path="url(#a)">
<use x="1282.960774" y="839.086073" fill="#ffffff" stroke="#ffffff" xlink:href="#b"/>
</g>
<g clip-path="url(#a)">
<use x="1327.656851" y="839.086073" fill="#ffffff" stroke="#ffffff" xlink:href="#b"/>
</g>
<g clip-path="url(#a)">
<use x="1372.352928" y="839.086073" fill="#ffffff" stroke="#ffffff" xlink:href="#b"/>
</g>
<g clip-path="url(#a)">
<use x="1417.049006" y="839.086073" fill="#ffffff" stroke="#ffffff" xlink:href="#b"/>
</g>
<g clip-path="url(#a)">
<use x="1461.745083" y="839.086073" fill="#ffffff" stroke="#ffffff" xlink:href="#b"/>
</g>
<g clip-path="url(#a)">
<use x="1506.44116" y="839.086073" fill="#ffffff" stroke="#ffffff" xlink:href="#b"/>
</g>
<g clip-path="url(#a)">
<use x="734.671155" y="40.913927" fill="#ffffff" stroke="#ffffff" xlink:href="#b"/>
</g>
<g clip-path="url(#a)">
<use x="216.090238" y="180.716507" fill="#ffffff" stroke="#ffffff" xlink:href="#b"/>
</g>
<g clip-path="url(#a)">
<use x="545.475497" y="710.103449" fill="#ffffff" stroke="#ffffff" xlink:href="#b"/>
</g>
<g clip-path="url(#a)">
<use x="1104.176464" y="581.120825" fill="#ffffff" stroke="#ffffff" xlink:href="#b"/>
</g>
<g clip-path="url(#a)">
<use x="657.215691" y="710.103449" fill="#ffffff" stroke="#ffffff" xlink:href="#b"/>
</g>
<g clip-path="url(#a)">
<use x="1037.132348" y="317.048789" fill="#ffffff" stroke="#ffffff" xlink:href="#b"/>
</g>
<g clip-path="url(#a)">
<use x="1551.137238" y="839.086073" fill="#ffffff" stroke="#ffffff" xlink:href="#b"/>
</g>
<g clip-path="url(#a)">
<use x="724.259807" y="581.120825" fill="#ffffff" stroke="#ffffff" xlink:href="#b"/>
</g>
<g clip-path="url(#a)">
<use x="858.348039" y="450.343911" fill="#ffffff" stroke="#ffffff" xlink:href="#b"/>
</g>
<g clip-path="url(#a)">
<use x="1014.784309" y="581.120825" fill="#ffffff" stroke="#ffffff" xlink:href="#b"/>
</g>
<g clip-path="url(#a)">
<use x="970.088232" y="710.103449" fill="#ffffff" stroke="#ffffff" xlink:href="#b"/>
</g>
<g clip-path="url(#a)">
<use x="1014.784309" y="710.103449" fill="#ffffff" stroke="#ffffff" xlink:href="#b"/>
</g>
<g clip-path="url(#a)">
<use x="1059.480387" y="710.103449" fill="#ffffff" stroke="#ffffff" xlink:href="#b"/>
</g>
<g clip-path="url(#a)">
<use x="791.303923" y="710.103449" fill="#ffffff" stroke="#ffffff" xlink:href="#b"/>
</g>
<g clip-path="url(#a)">
<use x="858.348039" y="581.120825" fill="#ffffff" stroke="#ffffff" xlink:href="#b"/>
</g>
<g clip-path="url(#a)">
<use x="925.392155" y="710.103449" fill="#ffffff" stroke="#ffffff" xlink:href="#b"/>
</g>
<g clip-path="url(#a)">
<use x="836" y="710.103449" fill="#ffffff" stroke="#ffffff" xlink:href="#b"/>
</g>
<g clip-path="url(#a)">
<use x="880.696077" y="710.103449" fill="#ffffff" stroke="#ffffff" xlink:href="#b"/>
</g>
<g clip-path="url(#a)">
<use x="701.911768" y="710.103449" fill="#ffffff" stroke="#ffffff" xlink:href="#b"/>
</g>
<g clip-path="url(#a)">
<use x="746.607845" y="710.103449" fill="#ffffff" stroke="#ffffff" xlink:href="#b"/>
</g>
<g clip-path="url(#a)">
<use x="1595.833315" y="839.086073" fill="#ffffff" stroke="#ffffff" xlink:href="#b"/>
</g>
<g clip-path="url(#a)">
<use x="612.519613" y="710.103449" fill="#ffffff" stroke="#ffffff" xlink:href="#b"/>
</g>
<g clip-path="url(#a)">
<use x="76.166685" y="710.103449" fill="#ffffff" stroke="#ffffff" xlink:href="#b"/>
</g>
<g clip-path="url(#a)">
<use x="120.862762" y="710.103449" fill="#ffffff" stroke="#ffffff" xlink:href="#b"/>
</g>
<g clip-path="url(#a)">
<use x="451.241267" y="317.048789" fill="#ffffff" stroke="#ffffff" xlink:href="#b"/>
</g>
<g clip-path="url(#a)">
<use x="165.55884" y="710.103449" fill="#ffffff" stroke="#ffffff" xlink:href="#b"/>
</g>
<g clip-path="url(#a)">
<use x="210.254917" y="710.103449" fill="#ffffff" stroke="#ffffff" xlink:href="#b"/>
</g>
<g clip-path="url(#a)">
<use x="344.343149" y="581.120825" fill="#ffffff" stroke="#ffffff" xlink:href="#b"/>
</g>
<g clip-path="url(#a)">
<use x="321.99511" y="581.120825" fill="#ffffff" stroke="#ffffff" xlink:href="#b"/>
</g>
<g clip-path="url(#a)">
<use x="389.039226" y="710.103449" fill="#ffffff" stroke="#ffffff" xlink:href="#b"/>
</g>
<g clip-path="url(#a)">
<use x="1276.256362" y="450.343911" fill="#ffffff" stroke="#ffffff" xlink:href="#b"/>
</g>
<g clip-path="url(#a)">
<use x="1148.872542" y="710.103449" fill="#ffffff" stroke="#ffffff" xlink:href="#b"/>
</g>
<g clip-path="url(#a)">
<use x="1238.264696" y="581.120825" fill="#ffffff" stroke="#ffffff" xlink:href="#b"/>
</g>
<g clip-path="url(#a)">
<use x="1390.231359" y="581.120825" fill="#ffffff" stroke="#ffffff" xlink:href="#b"/>
</g>
<g clip-path="url(#a)">
<use x="1372.352928" y="710.103449" fill="#ffffff" stroke="#ffffff" xlink:href="#b"/>
</g>
<g clip-path="url(#a)">
<use x="1417.049006" y="710.103449" fill="#ffffff" stroke="#ffffff" xlink:href="#b"/>
</g>
<g clip-path="url(#a)">
<use x="1461.745083" y="710.103449" fill="#ffffff" stroke="#ffffff" xlink:href="#b"/>
</g>
<g clip-path="url(#a)">
<use x="1193.568619" y="710.103449" fill="#ffffff" stroke="#ffffff" xlink:href="#b"/>
</g>
<g clip-path="url(#a)">
<use x="1282.960774" y="710.103449" fill="#ffffff" stroke="#ffffff" xlink:href="#b"/>
</g>
<g clip-path="url(#a)">
<use x="478.431381" y="710.103449" fill="#ffffff" stroke="#ffffff" xlink:href="#b"/>
</g>
<g clip-path="url(#a)">
<use x="299.647072" y="710.103449" fill="#ffffff" stroke="#ffffff" xlink:href="#b"/>
</g>
<g clip-path="url(#a)">
<use x="344.343149" y="710.103449" fill="#ffffff" stroke="#ffffff" xlink:href="#b"/>
</g>
<g clip-path="url(#a)">
<use x="254.950994" y="710.103449" fill="#ffffff" stroke="#ffffff" xlink:href="#b"/>
</g>
<g clip-path="url(#a)">
<use x="433.735304" y="710.103449" fill="#ffffff" stroke="#ffffff" xlink:href="#b"/>
</g>
<g clip-path="url(#a)">
<use x="1104.176464" y="710.103449" fill="#ffffff" stroke="#ffffff" xlink:href="#b"/>
</g>
<g clip-path="url(#a)">
<use x="1238.264696" y="710.103449" fill="#ffffff" stroke="#ffffff" xlink:href="#b"/>
</g>
<g clip-path="url(#a)">
<use x="1327.656851" y="710.103449" fill="#ffffff" stroke="#ffffff" xlink:href="#b"/>
</g>
<g clip-path="url(#a)">
<use x="1506.44116" y="710.103449" fill="#ffffff" stroke="#ffffff" xlink:href="#b"/>
</g>
<g clip-path="url(#a)">
<defs>
<path id="u" d="m18.109 8.2031v-29h-9.0312v75.484h9.0312v-8.2969q2.8438 4.875 7.1562 7.2344 4.3281 2.375 10.328 2.375 9.9688 0 16.188-7.9062 6.2344-7.9062 6.2344-20.797t-6.2344-20.812q-6.2188-7.9062-16.188-7.9062-6 0-10.328 2.375-4.3125 2.375-7.1562 7.25zm30.578 19.094q0 9.9062-4.0781 15.547t-11.203 5.6406q-7.1406 0-11.219-5.6406t-4.0781-15.547 4.0781-15.547 11.219-5.6406q7.125 0 11.203 5.6406t4.0781 15.547z"/>
</defs>
<g transform="translate(62.892 841.85) scale(.1 -.1)">
<use xlink:href="#aq"/>
<use x="77.001953" xlink:href="#e"/>
<use x="138.525391" xlink:href="#u"/>
<use x="202.001953" xlink:href="#u"/>
</g>
</g>
<g clip-path="url(#a)">
<defs>
<path id="ai" d="m45.406 46.391v29.594h8.9844v-75.984h-8.9844v8.2031q-2.8281-4.875-7.1562-7.25-4.3125-2.375-10.375-2.375-9.9062 0-16.141 7.9062-6.2188 7.9219-6.2188 20.812t6.2188 20.797q6.2344 7.9062 16.141 7.9062 6.0625 0 10.375-2.375 4.3281-2.3594 7.1562-7.2344zm-30.609-19.094q0-9.9062 4.0781-15.547t11.203-5.6406 11.219 5.6406q4.1094 5.6406 4.1094 15.547t-4.1094 15.547q-4.0938 5.6406-11.219 5.6406t-11.203-5.6406-4.0781-15.547z"/>
</defs>
<g transform="translate(110.06 841.85) scale(.1 -.1)">
<use xlink:href="#u"/>
<use x="63.476562" xlink:href="#g"/>
<use x="124.755859" xlink:href="#i"/>
<use x="152.539062" xlink:href="#ai"/>
</g>
</g>
<g clip-path="url(#a)">
<defs>
<path id="ah" d="m37.109 75.984v-7.4844h-8.5938q-4.8281 0-6.7188-1.9531-1.875-1.9531-1.875-7.0312v-4.8281h14.797v-6.9844h-14.797v-47.703h-9.0312v47.703h-8.5938v6.9844h8.5938v3.8125q0 9.125 4.25 13.297 4.25 4.1875 13.469 4.1875z"/>
<path id="m" d="m30.609 48.391q-7.2188 0-11.422-5.6406t-4.2031-15.453 4.1719-15.453q4.1875-5.6406 11.453-5.6406 7.1875 0 11.375 5.6562 4.2031 5.6719 4.2031 15.438 0 9.7188-4.2031 15.406-4.1875 5.6875-11.375 5.6875zm0 7.6094q11.719 0 18.406-7.625 6.7031-7.6094 6.7031-21.078 0-13.422-6.7031-21.078-6.6875-7.6406-18.406-7.6406-11.766 0-18.438 7.6406-6.6562 7.6562-6.6562 21.078 0 13.469 6.6562 21.078 6.6719 7.625 18.438 7.625z"/>
</defs>
<g transform="translate(158.68 841.85) scale(.1 -.1)">
<use xlink:href="#ah"/>
<use x="35.205078" xlink:href="#m"/>
<use x="96.386719" xlink:href="#j"/>
</g>
</g>
<g clip-path="url(#a)">
<defs>
<path id="s" d="m44.281 53.078v-8.5q-3.7969 1.9531-7.9062 2.9219-4.0938 0.98438-8.5 0.98438-6.6875 0-10.031-2.0469t-3.3438-6.1562q0-3.125 2.3906-4.9062t9.625-3.3906l3.0781-0.6875q9.5625-2.0469 13.594-5.7812t4.0312-10.422q0-7.625-6.0312-12.078-6.0312-4.4375-16.578-4.4375-4.3906 0-9.1562 0.85938t-10.031 2.5625v9.2812q4.9844-2.5938 9.8125-3.8906 4.8281-1.2812 9.5781-1.2812 6.3438 0 9.75 2.1719 3.4219 2.1719 3.4219 6.125 0 3.6562-2.4688 5.6094-2.4531 1.9531-10.812 3.7656l-3.125 0.73438q-8.3438 1.75-12.062 5.3906-3.7031 3.6406-3.7031 9.9844 0 7.7188 5.4688 11.906 5.4688 4.2031 15.531 4.2031 4.9688 0 9.3594-0.73438 4.4062-0.71875 8.1094-2.1875z"/>
<path id="z" d="m18.312 70.219v-15.531h18.5v-6.9844h-18.5v-29.688q0-6.6875 1.8281-8.5938t7.4531-1.9062h9.2188v-7.5156h-9.2188q-10.406 0-14.359 3.875-3.9531 3.8906-3.9531 14.141v29.688h-6.5938v6.9844h6.5938v15.531z"/>
</defs>
<g transform="translate(197.76 841.85) scale(.1 -.1)">
<use xlink:href="#h"/>
<use x="97.412109" xlink:href="#m"/>
<use x="158.59375" xlink:href="#s"/>
<use x="210.693359" xlink:href="#z"/>
</g>
</g>
<g clip-path="url(#a)">
<g transform="translate(250.13 841.85) scale(.1 -.1)">
<use xlink:href="#m"/>
<use x="61.181641" xlink:href="#ah"/>
</g>
</g>
<g clip-path="url(#a)">
<defs>
<path id="v" d="m54.891 33.016v-33.016h-8.9844v32.719q0 7.7656-3.0312 11.609-3.0312 3.8594-9.0781 3.8594-7.2812 0-11.484-4.6406-4.2031-4.625-4.2031-12.641v-30.906h-9.0312v75.984h9.0312v-29.797q3.2344 4.9375 7.5938 7.375 4.375 2.4375 10.094 2.4375 9.4219 0 14.25-5.8281 4.8438-5.8281 4.8438-17.156z"/>
</defs>
<g transform="translate(273.49 841.85) scale(.1 -.1)">
<use xlink:href="#k"/>
<use x="61.083984" xlink:href="#v"/>
<use x="124.462891" xlink:href="#m"/>
<use x="185.644531" xlink:href="#h"/>
<use x="283.056641" xlink:href="#u"/>
<use x="346.533203" xlink:href="#s"/>
<use x="398.632812" xlink:href="#m"/>
<use x="459.814453" xlink:href="#f"/>
</g>
</g>
<g clip-path="url(#a)">
<defs>
<path id="ar" d="m17.922 72.906v-27.109h-8.2969v27.109z"/>
</defs>
<g transform="translate(340.36 841.85) scale(.1 -.1)">
<use xlink:href="#ar"/>
<use x="27.490234" xlink:href="#s"/>
</g>
</g>
<g clip-path="url(#a)">
<g transform="translate(365.27 841.85) scale(.1 -.1)">
<use xlink:href="#h"/>
<use x="97.412109" xlink:href="#e"/>
<use x="158.935547" xlink:href="#h"/>
<use x="256.347656" xlink:href="#m"/>
<use x="317.529297" xlink:href="#j"/>
<use x="358.642578" xlink:href="#i"/>
<use x="386.425781" xlink:href="#g"/>
<use x="447.705078" xlink:href="#l"/>
</g>
</g>
<g clip-path="url(#a)">
<defs>
<path id="as" d="m2.9844 54.688h9.5156l17.094-45.891 17.094 45.891h9.5156l-20.516-54.688h-12.203z"/>
</defs>
<g transform="translate(419.49 841.85) scale(.1 -.1)">
<use xlink:href="#e"/>
<use x="61.523438" xlink:href="#as"/>
<use x="120.703125" xlink:href="#e"/>
<use x="182.226562" xlink:href="#f"/>
<use x="245.605469" xlink:href="#z"/>
</g>
</g>
<g clip-path="url(#a)">
<defs>
<path id="ag" d="m11.719 12.406h10.297v-8.4062l-8-15.625h-6.2969l4 15.625z"/>
</defs>
<g transform="translate(476.84 841.85) scale(.1 -.1)">
<use xlink:href="#ag"/>
</g>
</g>
<g clip-path="url(#a)">
<defs>
<path id="an" d="m48.781 52.594v-8.4062q-3.8125 2.1094-7.6406 3.1562t-7.7344 1.0469q-8.75 0-13.594-5.5469-4.8281-5.5312-4.8281-15.547t4.8281-15.562q4.8438-5.5312 13.594-5.5312 3.9062 0 7.7344 1.0469t7.6406 3.1562v-8.3125q-3.7656-1.75-7.7969-2.625-4.0156-0.89062-8.5625-0.89062-12.359 0-19.641 7.7656-7.2656 7.7656-7.2656 20.953 0 13.375 7.3438 21.031 7.3594 7.6719 20.156 7.6719 4.1406 0 8.0938-0.85938 3.9531-0.84375 7.6719-2.5469z"/>
</defs>
<g transform="translate(499.77 841.85) scale(.1 -.1)">
<use xlink:href="#an"/>
<use x="54.980469" xlink:href="#m"/>
<use x="116.162109" xlink:href="#h"/>
<use x="213.574219" xlink:href="#u"/>
<use x="277.050781" xlink:href="#l"/>
<use x="304.833984" xlink:href="#e"/>
<use x="366.357422" xlink:href="#z"/>
<use x="405.566406" xlink:href="#e"/>
</g>
</g>
<g clip-path="url(#a)">
<defs>
<path id="am" d="m4.2031 54.688h8.9844l11.234-42.672 11.172 42.672h10.594l11.234-42.672 11.188 42.672h8.9844l-14.312-54.688h-10.594l-11.766 44.828-11.812-44.828h-10.609z"/>
</defs>
<g transform="translate(557.22 841.85) scale(.1 -.1)">
<use xlink:href="#am"/>
<use x="81.787109" xlink:href="#i"/>
<use x="109.570312" xlink:href="#z"/>
<use x="148.779297" xlink:href="#v"/>
</g>
</g>
<g clip-path="url(#a)">
<defs>
<path id="av" d="m9.0781 75.984h9.0312v-44.875l26.812 23.578h11.469l-29-25.578 30.234-29.109h-11.719l-27.797 26.703v-26.703h-9.0312z"/>
</defs>
<g transform="translate(589.54 841.85) scale(.1 -.1)">
<use xlink:href="#ah"/>
<use x="35.205078" xlink:href="#i"/>
<use x="62.988281" xlink:href="#j"/>
<use x="104.070312" xlink:href="#e"/>
<use x="165.59375" xlink:href="#am"/>
<use x="247.380859" xlink:href="#m"/>
<use x="308.5625" xlink:href="#j"/>
<use x="349.675781" xlink:href="#av"/>
<use x="407.585938" xlink:href="#s"/>
</g>
</g>
<g clip-path="url(#a)">
<g transform="translate(647.81 841.85) scale(.1 -.1)">
<use xlink:href="#g"/>
<use x="61.279297" xlink:href="#f"/>
<use x="124.658203" xlink:href="#ai"/>
</g>
</g>
<g clip-path="url(#a)">
<g transform="translate(693.71 841.85) scale(.1 -.1)">
<use xlink:href="#z"/>
<use x="39.208984" xlink:href="#v"/>
<use x="102.587891" xlink:href="#e"/>
</g>
</g>
<g clip-path="url(#a)">
<defs>
<path id="aw" d="m45.406 27.984q0 9.7656-4.0312 15.125-4.0156 5.375-11.297 5.375-7.2188 0-11.25-5.375-4.0312-5.3594-4.0312-15.125 0-9.7188 4.0312-15.094t11.25-5.375q7.2812 0 11.297 5.375 4.0312 5.375 4.0312 15.094zm8.9844-21.203q0-13.953-6.2031-20.766-6.1875-6.8125-18.984-6.8125-4.7344 0-8.9375 0.70312t-8.1562 2.1719v8.7344q3.9531-2.1406 7.8125-3.1562 3.8594-1.0312 7.8594-1.0312 8.8438 0 13.234 4.6094t4.3906 13.938v4.4531q-2.7812-4.8438-7.125-7.2344t-10.406-2.3906q-10.047 0-16.203 7.6562-6.1562 7.6719-6.1562 20.328 0 12.688 6.1562 20.344 6.1562 7.6719 16.203 7.6719 6.0625 0 10.406-2.3906t7.125-7.2188v8.2969h8.9844z"/>
</defs>
<g transform="translate(725.02 841.85) scale(.1 -.1)">
<use xlink:href="#s"/>
<use x="52.099609" xlink:href="#v"/>
<use x="115.478516" xlink:href="#m"/>
<use x="176.660156" xlink:href="#m"/>
<use x="237.841797" xlink:href="#z"/>
<use x="277.050781" xlink:href="#i"/>
<use x="304.833984" xlink:href="#f"/>
<use x="368.212891" xlink:href="#aw"/>
</g>
</g>
<g clip-path="url(#a)">
<g transform="translate(786.48 841.85) scale(.1 -.1)">
<use xlink:href="#m"/>
<use x="61.181641" xlink:href="#ah"/>
</g>
</g>
<g clip-path="url(#a)">
<g transform="translate(809.84 841.85) scale(.1 -.1)">
<use xlink:href="#k"/>
<use x="61.083984" xlink:href="#v"/>
<use x="124.462891" xlink:href="#m"/>
<use x="185.644531" xlink:href="#h"/>
<use x="283.056641" xlink:href="#u"/>
<use x="346.533203" xlink:href="#s"/>
<use x="398.632812" xlink:href="#m"/>
<use x="459.814453" xlink:href="#f"/>
</g>
</g>
<g clip-path="url(#a)">
<g transform="translate(876.72 841.85) scale(.1 -.1)">
<use xlink:href="#ar"/>
<use x="27.490234" xlink:href="#s"/>
</g>
</g>
<g clip-path="url(#a)">
<g transform="translate(910.87 841.85) scale(.1 -.1)">
<use xlink:href="#g"/>
<use x="61.279297" xlink:href="#s"/>
<use x="113.378906" xlink:href="#v"/>
<use x="176.757812" xlink:href="#e"/>
<use x="238.28125" xlink:href="#s"/>
</g>
</g>
<g clip-path="url(#a)">
<defs>
<path id="at" d="m48.688 27.297q0 9.9062-4.0781 15.547t-11.203 5.6406q-7.1406 0-11.219-5.6406t-4.0781-15.547 4.0781-15.547 11.219-5.6406q7.125 0 11.203 5.6406t4.0781 15.547zm-30.578 19.094q2.8438 4.875 7.1562 7.2344 4.3281 2.375 10.328 2.375 9.9688 0 16.188-7.9062 6.2344-7.9062 6.2344-20.797t-6.2344-20.812q-6.2188-7.9062-16.188-7.9062-6 0-10.328 2.375-4.3125 2.375-7.1562 7.25v-8.2031h-9.0312v75.984h9.0312z"/>
<path id="au" d="m32.172-5.0781q-3.7969-9.7656-7.4219-12.734-3.6094-2.9844-9.6562-2.9844h-7.1875v7.5156h5.2812q3.7031 0 5.75 1.7656 2.0625 1.75 4.5469 8.2969l1.6094 4.0938-22.109 53.812h9.5156l17.094-42.766 17.094 42.766h9.5156z"/>
</defs>
<g transform="translate(963.95 841.85) scale(.1 -.1)">
<use xlink:href="#at"/>
<use x="63.476562" xlink:href="#au"/>
</g>
</g>
<g clip-path="url(#a)">
<g transform="translate(1011.7 841.85) scale(.1 -.1)">
<use xlink:href="#g"/>
</g>
</g>
<g clip-path="url(#a)">
<g transform="translate(1041.1 841.85) scale(.1 -.1)">
<use xlink:href="#an"/>
<use x="54.980469" xlink:href="#g"/>
<use x="116.259766" xlink:href="#f"/>
<use x="179.638672" xlink:href="#f"/>
<use x="243.017578" xlink:href="#m"/>
<use x="304.199219" xlink:href="#f"/>
</g>
</g>
<g clip-path="url(#a)">
<g transform="translate(1102.6 841.85) scale(.1 -.1)">
<use xlink:href="#ag"/>
</g>
</g>
<g clip-path="url(#a)">
<g transform="translate(1144.3 841.85) scale(.1 -.1)">
<use xlink:href="#i"/>
<use x="27.783203" xlink:href="#f"/>
</g>
</g>
<g clip-path="url(#a)">
<g transform="translate(1178.1 841.85) scale(.1 -.1)">
<use xlink:href="#r"/>
<use x="68.408203" xlink:href="#s"/>
<use x="120.507812" xlink:href="#u"/>
<use x="183.984375" xlink:href="#e"/>
<use x="245.507812" xlink:href="#f"/>
</g>
</g>
<g clip-path="url(#a)">
<g transform="translate(1236.7 841.85) scale(.1 -.1)">
<use xlink:href="#ag"/>
</g>
</g>
<g clip-path="url(#a)">
<g transform="translate(1260.6 841.85) scale(.1 -.1)">
<use xlink:href="#q"/>
<use x="69.824219" xlink:href="#m"/>
<use x="131.005859" xlink:href="#l"/>
<use x="158.789062" xlink:href="#m"/>
<use x="219.970703" xlink:href="#j"/>
<use x="261.083984" xlink:href="#g"/>
<use x="322.363281" xlink:href="#ai"/>
<use x="385.839844" xlink:href="#m"/>
</g>
</g>
<g clip-path="url(#a)">
<g transform="translate(1326.1 841.85) scale(.1 -.1)">
<use xlink:href="#ag"/>
</g>
</g>
<g clip-path="url(#a)">
<g transform="translate(1356.9 841.85) scale(.1 -.1)">
<use xlink:href="#am"/>
<use x="81.787109" xlink:href="#v"/>
<use x="145.166016" xlink:href="#e"/>
<use x="206.689453" xlink:href="#j"/>
<use x="247.771484" xlink:href="#e"/>
</g>
</g>
<g clip-path="url(#a)">
<g transform="translate(1390.9 841.85) scale(.1 -.1)">
<use xlink:href="#k"/>
<use x="61.083984" xlink:href="#v"/>
<use x="124.462891" xlink:href="#m"/>
<use x="185.644531" xlink:href="#h"/>
<use x="283.056641" xlink:href="#u"/>
<use x="346.533203" xlink:href="#s"/>
<use x="398.632812" xlink:href="#m"/>
<use x="459.814453" xlink:href="#f"/>
</g>
</g>
<g clip-path="url(#a)">
<g transform="translate(1449.8 841.85) scale(.1 -.1)">
<use xlink:href="#l"/>
<use x="27.783203" xlink:href="#i"/>
<use x="55.566406" xlink:href="#as"/>
<use x="114.746094" xlink:href="#e"/>
<use x="176.269531" xlink:href="#ai"/>
</g>
</g>
<g clip-path="url(#a)">
<defs>
<path id="d" d="m10.688 12.406h10.312v-12.406h-10.312z"/>
</defs>
<g transform="translate(1504.9 841.85) scale(.1 -.1)">
<use xlink:href="#d"/>
</g>
</g>
<g clip-path="url(#a)">
<defs>
<path id="c" d="m12.406 8.2969h16.109v55.625l-17.531-3.5156v8.9844l17.438 3.5156h9.8594v-64.609h16.109v-8.2969h-41.984z"/>
</defs>
<g transform="translate(726.72 43.673) scale(.1 -.1)">
<use xlink:href="#c"/>
<use x="63.623047" xlink:href="#d"/>
<use x="95.410156" xlink:href="#c"/>
</g>
</g>
<g clip-path="url(#a)">
<defs>
<path id="n" d="m19.188 8.2969h34.422v-8.2969h-46.281v8.2969q5.6094 5.8125 15.297 15.594 9.7031 9.7969 12.188 12.641 4.7344 5.3125 6.6094 9 1.8906 3.6875 1.8906 7.25 0 5.8125-4.0781 9.4688-4.0781 3.6719-10.625 3.6719-4.6406 0-9.7969-1.6094-5.1406-1.6094-11-4.8906v9.9688q5.9531 2.3906 11.125 3.6094 5.1875 1.2188 9.4844 1.2188 11.328 0 18.062-5.6719 6.7344-5.6562 6.7344-15.125 0-4.5-1.6875-8.5312-1.6719-4.0156-6.125-9.4844-1.2188-1.4219-7.7656-8.1875-6.5312-6.7656-18.453-18.922z"/>
</defs>
<g transform="translate(208.14 183.48) scale(.1 -.1)">
<use xlink:href="#c"/>
<use x="63.623047" xlink:href="#d"/>
<use x="95.410156" xlink:href="#n"/>
</g>
</g>
<g clip-path="url(#a)">
<defs>
<path id="p" d="m40.578 39.312q7.0781-1.5156 11.047-6.3125 3.9844-4.7812 3.9844-11.812 0-10.781-7.4219-16.703-7.4219-5.9062-21.094-5.9062-4.5781 0-9.4375 0.90625t-10.031 2.7188v9.5156q4.0938-2.3906 8.9688-3.6094 4.8906-1.2188 10.219-1.2188 9.2656 0 14.125 3.6562t4.8594 10.641q0 6.4531-4.5156 10.078-4.5156 3.6406-12.562 3.6406h-8.5v8.1094h8.8906q7.2656 0 11.125 2.9062t3.8594 8.375q0 5.6094-3.9844 8.6094-3.9688 3.0156-11.391 3.0156-4.0625 0-8.7031-0.89062-4.6406-0.875-10.203-2.7188v8.7812q5.625 1.5625 10.531 2.3438t9.25 0.78125q11.234 0 17.766-5.1094 6.5469-5.0938 6.5469-13.781 0-6.0625-3.4688-10.234t-9.8594-5.7812z"/>
</defs>
<g transform="translate(537.52 712.86) scale(.1 -.1)">
<use xlink:href="#c"/>
<use x="63.623047" xlink:href="#d"/>
<use x="95.410156" xlink:href="#p"/>
</g>
</g>
<g clip-path="url(#a)">
<defs>
<path id="o" d="m37.797 64.312-24.906-38.922h24.906zm-2.5938 8.5938h12.406v-47.516h10.406v-8.2031h-10.406v-17.188h-9.8125v17.188h-32.906v9.5156z"/>
</defs>
<g transform="translate(1096.2 583.88) scale(.1 -.1)">
<use xlink:href="#c"/>
<use x="63.623047" xlink:href="#d"/>
<use x="95.410156" xlink:href="#o"/>
</g>
</g>
<g clip-path="url(#a)">
<defs>
<path id="t" d="m10.797 72.906h38.719v-8.3125h-29.688v-17.859q2.1406 0.73438 4.2812 1.0938 2.1562 0.35938 4.3125 0.35938 12.203 0 19.328-6.6875 7.1406-6.6875 7.1406-18.109 0-11.766-7.3281-18.297-7.3281-6.5156-20.656-6.5156-4.5938 0-9.3594 0.78125-4.75 0.78125-9.8281 2.3438v9.9219q4.3906-2.3906 9.0781-3.5625t9.9062-1.1719q8.4531 0 13.375 4.4375 4.9375 4.4375 4.9375 12.062 0 7.6094-4.9375 12.047-4.9219 4.4531-13.375 4.4531-3.9531 0-7.8906-0.875-3.9219-0.875-8.0156-2.7344z"/>
</defs>
<g transform="translate(649.26 712.86) scale(.1 -.1)">
<use xlink:href="#c"/>
<use x="63.623047" xlink:href="#d"/>
<use x="95.410156" xlink:href="#t"/>
</g>
</g>
<g clip-path="url(#a)">
<defs>
<path id="ab" d="m33.016 40.375q-6.6406 0-10.531-4.5469-3.875-4.5312-3.875-12.438 0-7.8594 3.875-12.438 3.8906-4.5625 10.531-4.5625t10.516 4.5625q3.875 4.5781 3.875 12.438 0 7.9062-3.875 12.438-3.875 4.5469-10.516 4.5469zm19.578 30.922v-8.9844q-3.7188 1.75-7.5 2.6719-3.7812 0.9375-7.5 0.9375-9.7656 0-14.922-6.5938-5.1406-6.5938-5.875-19.922 2.875 4.25 7.2188 6.5156 4.3594 2.2656 9.5781 2.2656 10.984 0 17.359-6.6719 6.375-6.6562 6.375-18.125 0-11.234-6.6406-18.031-6.6406-6.7812-17.672-6.7812-12.656 0-19.344 9.6875-6.6875 9.7031-6.6875 28.109 0 17.281 8.2031 27.562t22.016 10.281q3.7188 0 7.5-0.73438t7.8906-2.1875z"/>
</defs>
<g transform="translate(1029.2 319.81) scale(.1 -.1)">
<use xlink:href="#c"/>
<use x="63.623047" xlink:href="#d"/>
<use x="95.410156" xlink:href="#ab"/>
</g>
</g>
<g clip-path="url(#a)">
<defs>
<path id="y" d="m9.8125 72.906h9.8594v-72.906h-9.8594z"/>
<path id="ao" d="m9.8125 72.906h14.703l18.594-49.609 18.703 49.609h14.703v-72.906h-9.625v64.016l-18.797-50h-9.9062l-18.797 50v-64.016h-9.5781z"/>
</defs>
<g transform="translate(1530.1 841.85) scale(.1 -.1)">
<use xlink:href="#y"/>
<use x="29.492188" xlink:href="#ao"/>
<use x="115.771484" xlink:href="#x"/>
<use x="176.074219" xlink:href="#ac"/>
<use x="231.787109" xlink:href="#y"/>
<use x="261.279297" xlink:href="#q"/>
<use x="331.103516" xlink:href="#y"/>
<use x="360.595703" xlink:href="#k"/>
</g>
</g>
<g clip-path="url(#a)">
<g transform="translate(713.13 583.88) scale(.1 -.1)">
<use xlink:href="#c"/>
<use x="63.623047" xlink:href="#d"/>
<use x="95.410156" xlink:href="#c"/>
<use x="159.033203" xlink:href="#c"/>
</g>
</g>
<g clip-path="url(#a)">
<g transform="translate(847.22 453.1) scale(.1 -.1)">
<use xlink:href="#c"/>
<use x="63.623047" xlink:href="#d"/>
<use x="95.410156" xlink:href="#c"/>
<use x="159.033203" xlink:href="#n"/>
</g>
</g>
<g clip-path="url(#a)">
<g transform="translate(1003.7 583.88) scale(.1 -.1)">
<use xlink:href="#c"/>
<use x="63.623047" xlink:href="#d"/>
<use x="95.410156" xlink:href="#c"/>
<use x="159.033203" xlink:href="#p"/>
</g>
</g>
<g clip-path="url(#a)">
<g transform="translate(958.96 712.86) scale(.1 -.1)">
<use xlink:href="#c"/>
<use x="63.623047" xlink:href="#d"/>
<use x="95.410156" xlink:href="#c"/>
<use x="159.033203" xlink:href="#o"/>
</g>
</g>
<g clip-path="url(#a)">
<g transform="translate(1003.7 712.86) scale(.1 -.1)">
<use xlink:href="#c"/>
<use x="63.623047" xlink:href="#d"/>
<use x="95.410156" xlink:href="#c"/>
<use x="159.033203" xlink:href="#t"/>
</g>
</g>
<g clip-path="url(#a)">
<g transform="translate(1048.3 712.86) scale(.1 -.1)">
<use xlink:href="#c"/>
<use x="63.623047" xlink:href="#d"/>
<use x="95.410156" xlink:href="#c"/>
<use x="159.033203" xlink:href="#ab"/>
</g>
</g>
<g clip-path="url(#a)">
<defs>
<path id="ae" d="m8.2031 72.906h46.875v-4.2031l-26.469-68.703h-10.297l24.906 64.594h-35.016z"/>
</defs>
<g transform="translate(780.17 712.86) scale(.1 -.1)">
<use xlink:href="#c"/>
<use x="63.623047" xlink:href="#d"/>
<use x="95.410156" xlink:href="#c"/>
<use x="159.033203" xlink:href="#ae"/>
</g>
</g>
<g clip-path="url(#a)">
<defs>
<path id="al" d="m31.781 34.625q-7.0312 0-11.062-3.7656-4.0156-3.7656-4.0156-10.344 0-6.5938 4.0156-10.359 4.0312-3.7656 11.062-3.7656t11.078 3.7812q4.0625 3.7969 4.0625 10.344 0 6.5781-4.0312 10.344-4.0156 3.7656-11.109 3.7656zm-9.8594 4.1875q-6.3438 1.5625-9.8906 5.9062-3.5312 4.3594-3.5312 10.609 0 8.7344 6.2188 13.812 6.2344 5.0781 17.062 5.0781 10.891 0 17.094-5.0781t6.2031-13.812q0-6.25-3.5469-10.609-3.5312-4.3438-9.8281-5.9062 7.125-1.6562 11.094-6.5 3.9844-4.8281 3.9844-11.797 0-10.609-6.4688-16.281-6.4688-5.6562-18.531-5.6562-12.047 0-18.531 5.6562-6.4688 5.6719-6.4688 16.281 0 6.9688 4 11.797 4.0156 4.8438 11.141 6.5zm-3.6094 15.578q0-5.6562 3.5312-8.8281 3.5469-3.1719 9.9375-3.1719 6.3594 0 9.9375 3.1719 3.5938 3.1719 3.5938 8.8281 0 5.6719-3.5938 8.8438-3.5781 3.1719-9.9375 3.1719-6.3906 0-9.9375-3.1719-3.5312-3.1719-3.5312-8.8438z"/>
</defs>
<g transform="translate(847.22 583.88) scale(.1 -.1)">
<use xlink:href="#c"/>
<use x="63.623047" xlink:href="#d"/>
<use x="95.410156" xlink:href="#c"/>
<use x="159.033203" xlink:href="#al"/>
</g>
</g>
<g clip-path="url(#a)">
<defs>
<path id="ad" d="m10.984 1.5156v8.9844q3.7188-1.7656 7.5156-2.6875 3.8125-0.92188 7.4844-0.92188 9.7656 0 14.906 6.5625 5.1562 6.5625 5.8906 19.953-2.8281-4.2031-7.1875-6.4531-4.3438-2.25-9.6094-2.25-10.938 0-17.312 6.6094-6.375 6.625-6.375 18.109 0 11.219 6.6406 18 6.6406 6.7969 17.672 6.7969 12.656 0 19.312-9.7031 6.6719-9.6875 6.6719-28.141 0-17.234-8.1875-27.516-8.1719-10.281-21.984-10.281-3.7188 0-7.5312 0.73438-3.7969 0.73438-7.9062 2.2031zm19.625 30.906q6.6406 0 10.516 4.5312 3.8906 4.5469 3.8906 12.469 0 7.8594-3.8906 12.422-3.875 4.5625-10.516 4.5625t-10.516-4.5625-3.875-12.422q0-7.9219 3.875-12.469 3.875-4.5312 10.516-4.5312z"/>
</defs>
<g transform="translate(914.26 712.86) scale(.1 -.1)">
<use xlink:href="#c"/>
<use x="63.623047" xlink:href="#d"/>
<use x="95.410156" xlink:href="#c"/>
<use x="159.033203" xlink:href="#ad"/>
</g>
</g>
<g clip-path="url(#a)">
<defs>
<path id="af" d="m31.781 66.406q-7.6094 0-11.453-7.5-3.8281-7.4844-3.8281-22.531 0-14.984 3.8281-22.484 3.8438-7.5 11.453-7.5 7.6719 0 11.5 7.5 3.8438 7.5 3.8438 22.484 0 15.047-3.8438 22.531-3.8281 7.5-11.5 7.5zm0 7.8125q12.266 0 18.734-9.7031 6.4688-9.6875 6.4688-28.141 0-18.406-6.4688-28.109-6.4688-9.6875-18.734-9.6875-12.25 0-18.719 9.6875-6.4688 9.7031-6.4688 28.109 0 18.453 6.4688 28.141 6.4688 9.7031 18.719 9.7031z"/>
</defs>
<g transform="translate(824.87 712.86) scale(.1 -.1)">
<use xlink:href="#c"/>
<use x="63.623047" xlink:href="#d"/>
<use x="95.410156" xlink:href="#n"/>
<use x="159.033203" xlink:href="#af"/>
</g>
</g>
<g clip-path="url(#a)">
<g transform="translate(869.56 712.86) scale(.1 -.1)">
<use xlink:href="#c"/>
<use x="63.623047" xlink:href="#d"/>
<use x="95.410156" xlink:href="#n"/>
<use x="159.033203" xlink:href="#c"/>
</g>
</g>
<g clip-path="url(#a)">
<g transform="translate(690.78 712.86) scale(.1 -.1)">
<use xlink:href="#c"/>
<use x="63.623047" xlink:href="#d"/>
<use x="95.410156" xlink:href="#n"/>
<use x="159.033203" xlink:href="#n"/>
</g>
</g>
<g clip-path="url(#a)">
<g transform="translate(735.48 712.86) scale(.1 -.1)">
<use xlink:href="#c"/>
<use x="63.623047" xlink:href="#d"/>
<use x="95.410156" xlink:href="#n"/>
<use x="159.033203" xlink:href="#p"/>
</g>
</g>
<g clip-path="url(#a)">
<g transform="translate(1574.7 841.85) scale(.1 -.1)">
<use xlink:href="#y"/>
<use x="29.492188" xlink:href="#ao"/>
<use x="115.771484" xlink:href="#x"/>
<use x="176.074219" xlink:href="#ac"/>
<use x="231.787109" xlink:href="#y"/>
<use x="261.279297" xlink:href="#q"/>
<use x="331.103516" xlink:href="#y"/>
<use x="360.595703" xlink:href="#k"/>
</g>
</g>
<g clip-path="url(#a)">
<g transform="translate(601.39 712.86) scale(.1 -.1)">
<use xlink:href="#c"/>
<use x="63.623047" xlink:href="#d"/>
<use x="95.410156" xlink:href="#n"/>
<use x="159.033203" xlink:href="#t"/>
</g>
</g>
<g clip-path="url(#a)">
<g transform="translate(65.034 712.86) scale(.1 -.1)">
<use xlink:href="#c"/>
<use x="63.623047" xlink:href="#d"/>
<use x="95.410156" xlink:href="#n"/>
<use x="159.033203" xlink:href="#ab"/>
</g>
</g>
<g clip-path="url(#a)">
<g transform="translate(109.73 712.86) scale(.1 -.1)">
<use xlink:href="#c"/>
<use x="63.623047" xlink:href="#d"/>
<use x="95.410156" xlink:href="#n"/>
<use x="159.033203" xlink:href="#ae"/>
</g>
</g>
<g clip-path="url(#a)">
<g transform="translate(440.11 319.81) scale(.1 -.1)">
<use xlink:href="#c"/>
<use x="63.623047" xlink:href="#d"/>
<use x="95.410156" xlink:href="#n"/>
<use x="159.033203" xlink:href="#al"/>
</g>
</g>
<g clip-path="url(#a)">
<g transform="translate(154.43 712.86) scale(.1 -.1)">
<use xlink:href="#c"/>
<use x="63.623047" xlink:href="#d"/>
<use x="95.410156" xlink:href="#n"/>
<use x="159.033203" xlink:href="#ad"/>
</g>
</g>
<g clip-path="url(#a)">
<g transform="translate(199.12 712.86) scale(.1 -.1)">
<use xlink:href="#c"/>
<use x="63.623047" xlink:href="#d"/>
<use x="95.410156" xlink:href="#p"/>
<use x="159.033203" xlink:href="#af"/>
</g>
</g>
<g clip-path="url(#a)">
<g transform="translate(333.21 583.88) scale(.1 -.1)">
<use xlink:href="#c"/>
<use x="63.623047" xlink:href="#d"/>
<use x="95.410156" xlink:href="#p"/>
<use x="159.033203" xlink:href="#c"/>
</g>
</g>
<g clip-path="url(#a)">
<g transform="translate(310.86 583.88) scale(.1 -.1)">
<use xlink:href="#c"/>
<use x="63.623047" xlink:href="#d"/>
<use x="95.410156" xlink:href="#p"/>
<use x="159.033203" xlink:href="#n"/>
</g>
</g>
<g clip-path="url(#a)">
<g transform="translate(377.91 712.86) scale(.1 -.1)">
<use xlink:href="#c"/>
<use x="63.623047" xlink:href="#d"/>
<use x="95.410156" xlink:href="#p"/>
<use x="159.033203" xlink:href="#p"/>
</g>
</g>
<g clip-path="url(#a)">
<g transform="translate(1265.1 453.1) scale(.1 -.1)">
<use xlink:href="#c"/>
<use x="63.623047" xlink:href="#d"/>
<use x="95.410156" xlink:href="#p"/>
<use x="159.033203" xlink:href="#o"/>
</g>
</g>
<g clip-path="url(#a)">
<g transform="translate(1137.7 712.86) scale(.1 -.1)">
<use xlink:href="#c"/>
<use x="63.623047" xlink:href="#d"/>
<use x="95.410156" xlink:href="#p"/>
<use x="159.033203" xlink:href="#t"/>
</g>
</g>
<g clip-path="url(#a)">
<g transform="translate(1227.1 583.88) scale(.1 -.1)">
<use xlink:href="#c"/>
<use x="63.623047" xlink:href="#d"/>
<use x="95.410156" xlink:href="#p"/>
<use x="159.033203" xlink:href="#ab"/>
</g>
</g>
<g clip-path="url(#a)">
<g transform="translate(1379.1 583.88) scale(.1 -.1)">
<use xlink:href="#c"/>
<use x="63.623047" xlink:href="#d"/>
<use x="95.410156" xlink:href="#p"/>
<use x="159.033203" xlink:href="#ae"/>
</g>
</g>
<g clip-path="url(#a)">
<g transform="translate(1361.2 712.86) scale(.1 -.1)">
<use xlink:href="#c"/>
<use x="63.623047" xlink:href="#d"/>
<use x="95.410156" xlink:href="#p"/>
<use x="159.033203" xlink:href="#ad"/>
</g>
</g>
<g clip-path="url(#a)">
<g transform="translate(1405.9 712.86) scale(.1 -.1)">
<use xlink:href="#c"/>
<use x="63.623047" xlink:href="#d"/>
<use x="95.410156" xlink:href="#o"/>
<use x="159.033203" xlink:href="#af"/>
</g>
</g>
<g clip-path="url(#a)">
<g transform="translate(1450.6 712.86) scale(.1 -.1)">
<use xlink:href="#c"/>
<use x="63.623047" xlink:href="#d"/>
<use x="95.410156" xlink:href="#o"/>
<use x="159.033203" xlink:href="#c"/>
</g>
</g>
<g clip-path="url(#a)">
<g transform="translate(1182.4 712.86) scale(.1 -.1)">
<use xlink:href="#c"/>
<use x="63.623047" xlink:href="#d"/>
<use x="95.410156" xlink:href="#o"/>
<use x="159.033203" xlink:href="#n"/>
</g>
</g>
<g clip-path="url(#a)">
<g transform="translate(1271.8 712.86) scale(.1 -.1)">
<use xlink:href="#c"/>
<use x="63.623047" xlink:href="#d"/>
<use x="95.410156" xlink:href="#o"/>
<use x="159.033203" xlink:href="#p"/>
</g>
</g>
<g clip-path="url(#a)">
<g transform="translate(467.3 712.86) scale(.1 -.1)">
<use xlink:href="#c"/>
<use x="63.623047" xlink:href="#d"/>
<use x="95.410156" xlink:href="#o"/>
<use x="159.033203" xlink:href="#o"/>
</g>
</g>
<g clip-path="url(#a)">
<g transform="translate(288.51 712.86) scale(.1 -.1)">
<use xlink:href="#c"/>
<use x="63.623047" xlink:href="#d"/>
<use x="95.410156" xlink:href="#o"/>
<use x="159.033203" xlink:href="#t"/>
</g>
</g>
<g clip-path="url(#a)">
<g transform="translate(333.21 712.86) scale(.1 -.1)">
<use xlink:href="#c"/>
<use x="63.623047" xlink:href="#d"/>
<use x="95.410156" xlink:href="#o"/>
<use x="159.033203" xlink:href="#ab"/>
</g>
</g>
<g clip-path="url(#a)">
<g transform="translate(243.82 712.86) scale(.1 -.1)">
<use xlink:href="#c"/>
<use x="63.623047" xlink:href="#d"/>
<use x="95.410156" xlink:href="#o"/>
<use x="159.033203" xlink:href="#ae"/>
</g>
</g>
<g clip-path="url(#a)">
<g transform="translate(422.6 712.86) scale(.1 -.1)">
<use xlink:href="#c"/>
<use x="63.623047" xlink:href="#d"/>
<use x="95.410156" xlink:href="#o"/>
<use x="159.033203" xlink:href="#al"/>
</g>
</g>
<g clip-path="url(#a)">
<g transform="translate(1093 712.86) scale(.1 -.1)">
<use xlink:href="#c"/>
<use x="63.623047" xlink:href="#d"/>
<use x="95.410156" xlink:href="#o"/>
<use x="159.033203" xlink:href="#ad"/>
</g>
</g>
<g clip-path="url(#a)">
<g transform="translate(1227.1 712.86) scale(.1 -.1)">
<use xlink:href="#c"/>
<use x="63.623047" xlink:href="#d"/>
<use x="95.410156" xlink:href="#t"/>
<use x="159.033203" xlink:href="#af"/>
</g>
</g>
<g clip-path="url(#a)">
<g transform="translate(1316.5 712.86) scale(.1 -.1)">
<use xlink:href="#c"/>
<use x="63.623047" xlink:href="#d"/>
<use x="95.410156" xlink:href="#t"/>
<use x="159.033203" xlink:href="#c"/>
</g>
</g>
<g clip-path="url(#a)">
<g transform="translate(1495.3 712.86) scale(.1 -.1)">
<use xlink:href="#c"/>
<use x="63.623047" xlink:href="#d"/>
<use x="95.410156" xlink:href="#t"/>
<use x="159.033203" xlink:href="#n"/>
</g>
</g>
<defs>
<clipPath id="a">
<rect width="1672" height="880"/>
</clipPath>
</defs>
</svg>
