<?xml version="1.0" encoding="UTF-8"?>
<!DOCTYPE svg  PUBLIC '-//W3C//DTD SVG 1.1//EN'  'http://www.w3.org/Graphics/SVG/1.1/DTD/svg11.dtd'>
<svg width="2128pt" height="1120pt" version="1.1" viewBox="0 0 2128 1120" xmlns="http://www.w3.org/2000/svg" xmlns:xlink="http://www.w3.org/1999/xlink">
<defs>
<style type="text/css">*{stroke-linecap:butt;stroke-linejoin:round;}</style>
</defs>
<path d="m0 1120h2128v-1120h-2128z" fill="#fff"/>
<g fill="none" stroke="#000">
<path d="m265.18 51.377v105.97" clip-path="url(#a)"/>
<path d="m265.18 157.34-168.31 827.3" clip-path="url(#a)"/>
<path d="m265.18 157.34-121.14 827.3" clip-path="url(#a)"/>
<path d="m265.18 157.34-73.958 827.3" clip-path="url(#a)"/>
<path d="m265.18 157.34 8.6024 743.33" clip-path="url(#a)"/>
<path d="m265.18 157.34 354.8 102.5" clip-path="url(#a)"/>
<path d="m96.866 984.65v83.977" clip-path="url(#a)"/>
<path d="m144.04 984.65v83.977" clip-path="url(#a)"/>
<path d="m191.22 984.65v83.977" clip-path="url(#a)"/>
<path d="m273.78 900.67-35.383 83.977" clip-path="url(#a)"/>
<path d="m273.78 900.67 35.383 83.977" clip-path="url(#a)"/>
<path d="m619.98 259.85-240.05 724.8" clip-path="url(#a)"/>
<path d="m619.98 259.85-192.87 724.8" clip-path="url(#a)"/>
<path d="m619.98 259.85-145.7 724.8" clip-path="url(#a)"/>
<path d="m619.98 259.85-98.52 724.8" clip-path="url(#a)"/>
<path d="m619.98 259.85 43.012 724.8" clip-path="url(#a)"/>
<path d="m619.98 259.85 449.59 99.281" clip-path="url(#a)"/>
<path d="m619.98 259.85 184.54 724.8" clip-path="url(#a)"/>
<path d="m379.93 984.65v83.977" clip-path="url(#a)"/>
<path d="m427.11 984.65v83.977" clip-path="url(#a)"/>
<path d="m474.28 984.65v83.977" clip-path="url(#a)"/>
<path d="m521.46 984.65v83.977" clip-path="url(#a)"/>
<path d="m662.99 984.65-94.355 83.977" clip-path="url(#a)"/>
<path d="m662.99 984.65-47.177 83.977" clip-path="url(#a)"/>
<path d="m662.99 984.65v83.977" clip-path="url(#a)"/>
<path d="m662.99 984.65 47.177 83.977" clip-path="url(#a)"/>
<path d="m662.99 984.65 94.355 83.977" clip-path="url(#a)"/>
<path d="m1069.6 359.13-188.38 456.4" clip-path="url(#a)"/>
<path d="m1069.6 359.13 112.37 625.52" clip-path="url(#a)"/>
<path d="m1069.6 359.13 76.008 96.291" clip-path="url(#a)"/>
<path d="m881.19 815.52-218.19 169.12" clip-path="url(#a)" stroke-dasharray="3.7,1.6"/>
<path d="m881.19 815.52 17.691 85.145" clip-path="url(#a)"/>
<path d="m881.19 815.52 17.691 169.12" clip-path="url(#a)"/>
<path d="m881.19 815.52 182.81 85.145" clip-path="url(#a)"/>
<path d="m1181.9 984.65v83.977" clip-path="url(#a)"/>
<path d="m1145.6 455.42-482.58 529.23" clip-path="url(#a)" stroke-dasharray="3.7,1.6"/>
<path d="m1145.6 455.42 83.543 529.23" clip-path="url(#a)"/>
<path d="m1145.6 455.42 130.72 529.23" clip-path="url(#a)"/>
<path d="m1145.6 455.42 268.32 93.536" clip-path="url(#a)"/>
<path d="m1229.1 984.65v83.977" clip-path="url(#a)"/>
<path d="m1276.3 984.65v83.977" clip-path="url(#a)"/>
<path d="m1413.9 548.95-90.423 435.69" clip-path="url(#a)"/>
<path d="m1413.9 548.95-43.246 435.69" clip-path="url(#a)"/>
<path d="m1413.9 548.95 133.67 91.022" clip-path="url(#a)"/>
<path d="m1323.5 984.65v83.977" clip-path="url(#a)"/>
<path d="m1370.7 984.65v83.977" clip-path="url(#a)"/>
<path d="m1547.6 639.98-129.74 344.67" clip-path="url(#a)"/>
<path d="m1547.6 639.98-82.56 344.67" clip-path="url(#a)"/>
<path d="m1547.6 639.98 11.794 344.67" clip-path="url(#a)"/>
<path d="m1547.6 639.98 200.5 88.762" clip-path="url(#a)"/>
<path d="m1417.8 984.65v83.977" clip-path="url(#a)"/>
<path d="m1465 984.65v83.977" clip-path="url(#a)"/>
<path d="m1559.4 984.65-47.177 83.977" clip-path="url(#a)"/>
<path d="m1559.4 984.65v83.977" clip-path="url(#a)"/>
<path d="m1559.4 984.65 47.177 83.977" clip-path="url(#a)"/>
<path d="m1748.1 728.74-94.355 255.91" clip-path="url(#a)"/>
<path d="m1748.1 728.74-23.589 255.91" clip-path="url(#a)"/>
<path d="m1748.1 728.74 117.94 86.785" clip-path="url(#a)"/>
<path d="m1653.7 984.65v83.977" clip-path="url(#a)"/>
<path d="m1724.5 984.65-23.589 83.977" clip-path="url(#a)"/>
<path d="m1724.5 984.65 23.589 83.977" clip-path="url(#a)"/>
<path d="m1866 815.52-70.766 169.12" clip-path="url(#a)"/>
<path d="m1866 815.52-23.589 169.12" clip-path="url(#a)"/>
<path d="m1866 815.52 94.355 85.145" clip-path="url(#a)"/>
<path d="m1795.2 984.65v83.977" clip-path="url(#a)"/>
<path d="m1842.4 984.65v83.977" clip-path="url(#a)"/>
<path d="m1960.4 900.67-70.766 83.977" clip-path="url(#a)"/>
<path d="m1960.4 900.67-23.589 83.977" clip-path="url(#a)"/>
<path d="m1960.4 900.67 23.589 83.977" clip-path="url(#a)"/>
<path d="m1960.4 900.67 70.766 83.977" clip-path="url(#a)"/>
<path d="m1889.6 984.65v83.977" clip-path="url(#a)"/>
<path d="m1936.8 984.65v83.977" clip-path="url(#a)"/>
<path d="m1984 984.65v83.977" clip-path="url(#a)"/>
<path d="m898.88 900.67-47.177 83.977" clip-path="url(#a)"/>
<path d="m898.88 900.67 47.177 83.977" clip-path="url(#a)"/>
<path d="m898.88 984.65v83.977" clip-path="url(#a)"/>
<path d="m1064 900.67-70.766 83.977" clip-path="url(#a)"/>
<path d="m1064 900.67-23.589 83.977" clip-path="url(#a)"/>
<path d="m1064 900.67 23.589 83.977" clip-path="url(#a)"/>
<path d="m1064 900.67 70.766 83.977" clip-path="url(#a)"/>
<path d="m993.23 984.65v83.977" clip-path="url(#a)"/>
<path d="m1040.4 984.65v83.977" clip-path="url(#a)"/>
<path d="m1087.6 984.65v83.977" clip-path="url(#a)"/>
<path d="m1134.8 984.65v83.977" clip-path="url(#a)"/>
<path d="m851.7 984.65v83.977" clip-path="url(#a)"/>
<path d="m946.06 984.65v83.977" clip-path="url(#a)"/>
<path d="m238.4 984.65v83.977" clip-path="url(#a)"/>
<path d="m309.16 984.65-23.589 83.977" clip-path="url(#a)"/>
<path d="m309.16 984.65 23.589 83.977" clip-path="url(#a)"/>
<path d="m804.52 984.65v83.977" clip-path="url(#a)"/>
<path d="m2031.1 984.65v83.977" clip-path="url(#a)"/>
</g>
<path d="m258.91 101.35v6.0162q0 2.4 2.4 2.4h7.7425q2.4 0 2.4-2.4v-6.0162q0-2.4-2.4-2.4h-7.7425q-2.4 0-2.4 2.4z" clip-path="url(#a)" fill="#fff" stroke="#fff"/>
<g clip-path="url(#a)">
<defs>
<path id="as" d="m9.8125 72.906h9.8594v-29.891h35.844v29.891h9.8594v-72.906h-9.8594v34.719h-35.844v-34.719h-9.8594z"/>
</defs>
<g transform="translate(262.97 101.35) rotate(90) scale(.08 -.08)">
<use xlink:href="#as"/>
</g>
</g>
<path d="m186.62 574.93 1.091-5.3626q0.47847-2.3518-1.8734-2.8303l-7.5871-1.5436q-2.3518-0.47847-2.8303 1.8734l-1.091 5.3626q-0.47847 2.3518 1.8734 2.8303l7.5871 1.5436q2.3518 0.47847 2.8303-1.8734z" clip-path="url(#a)" fill="#fff" stroke="#fff"/>
<g clip-path="url(#a)">
<defs>
<path id="t" d="m34.188 63.188-13.391-36.281h26.812zm-5.5781 9.7188h11.188l27.781-72.906h-10.25l-6.6406 18.703h-32.859l-6.6406-18.703h-10.406z"/>
</defs>
<g transform="translate(182.64 574.12) rotate(-78.5) scale(.08 -.08)">
<use xlink:href="#t"/>
</g>
</g>
<path d="m210.37 574.95 0.89244-6.095q0.3477-2.3747-2.027-2.7224l-7.6608-1.1217q-2.3747-0.3477-2.7224 2.027l-0.89244 6.095q-0.3477 2.3747 2.027 2.7224l7.6608 1.1217q2.3747 0.3477 2.7224-2.027z" clip-path="url(#a)" fill="#fff" stroke="#fff"/>
<g clip-path="url(#a)">
<defs>
<path id="ah" d="m19.672 64.797v-56.688h11.922q15.094 0 22.094 6.8281 7 6.8438 7 21.594 0 14.641-7 21.453t-22.094 6.8125zm-9.8594 8.1094h20.266q21.188 0 31.094-8.8125 9.9219-8.8125 9.9219-27.562 0-18.859-9.9688-27.703-9.9531-8.8281-31.047-8.8281h-20.266z"/>
</defs>
<g transform="translate(206.35 574.36) rotate(-81.67) scale(.08 -.08)">
<use xlink:href="#ah"/>
</g>
</g>
<path d="m234.23 573.96 0.42951-4.8046q0.2137-2.3905-2.1768-2.6042l-7.7117-0.6894q-2.3905-0.2137-2.6042 2.1768l-0.42951 4.8046q-0.2137 2.3905 2.1768 2.6042l7.7117 0.6894q2.3905 0.2137 2.6042-2.1768z" clip-path="url(#a)" fill="#fff" stroke="#fff"/>
<g clip-path="url(#a)">
<defs>
<path id="ag" d="m19.672 64.797v-27.391h12.406q6.8906 0 10.641 3.5625 3.7656 3.5625 3.7656 10.156 0 6.5469-3.7656 10.109-3.75 3.5625-10.641 3.5625zm-9.8594 8.1094h22.266q12.266 0 18.531-5.5469 6.2812-5.5469 6.2812-16.234 0-10.797-6.2812-16.312-6.2656-5.5156-18.531-5.5156h-12.406v-29.297h-9.8594z"/>
</defs>
<g transform="translate(230.18 573.59) rotate(-84.892) scale(.08 -.08)">
<use xlink:href="#ag"/>
</g>
</g>
<path d="m263.18 526.34 0.063328 5.4721q0.027773 2.3998 2.4276 2.3721l7.742-0.089596q2.3998-0.027773 2.3721-2.4276l-0.063328-5.4721q-0.027773-2.3998-2.4276-2.3721l-7.742 0.089597q-2.3998 0.027773-2.3721 2.4276z" clip-path="url(#a)" fill="#fff" stroke="#fff"/>
<g clip-path="url(#a)">
<g transform="translate(267.24 526.3) rotate(89.337) scale(.08 -.08)">
<use xlink:href="#t"/>
</g>
</g>
<path d="m438.21 213.86 5.2575 1.5189q2.3057 0.66613 2.9718-1.6396l2.149-7.4383q0.66613-2.3057-1.6396-2.9718l-5.2575-1.5189q-2.3057-0.66613-2.9718 1.6396l-2.149 7.4383q-0.66613 2.3057 1.6396 2.9718z" clip-path="url(#a)" fill="#fff" stroke="#fff"/>
<g clip-path="url(#a)">
<g transform="translate(439.34 209.96) rotate(16.114) scale(.08 -.08)">
<use xlink:href="#t"/>
</g>
</g>
<path d="m90.594 1009v35.285q0 2.4 2.4 2.4h7.7425q2.4 0 2.4-2.4v-35.285q0-2.4-2.4-2.4h-7.7425q-2.4 0-2.4 2.4z" clip-path="url(#a)" fill="#fff" stroke="#fff"/>
<g clip-path="url(#a)">
<defs>
<path id="l" d="m-0.29688 72.906h61.672v-8.3125h-25.875v-64.594h-9.9062v64.594h-25.891z"/>
<path id="e" d="m56.203 29.594v-4.3906h-41.312q0.59375-9.2812 5.5938-14.141t13.938-4.8594q5.1719 0 10.031 1.2656t9.6562 3.8125v-8.5q-4.8438-2.0469-9.9219-3.125t-10.297-1.0781q-13.094 0-20.734 7.6094-7.6406 7.625-7.6406 20.625 0 13.422 7.25 21.297 7.25 7.8906 19.562 7.8906 11.031 0 17.453-7.1094 6.4219-7.0938 6.4219-19.297zm-8.9844 2.6406q-0.09375 7.3594-4.125 11.75-4.0312 4.4062-10.672 4.4062-7.5156 0-12.031-4.25t-5.2031-11.969z"/>
<path id="g" d="m41.109 46.297q-1.5156 0.875-3.2969 1.2812-1.7812 0.42188-3.9219 0.42188-7.625 0-11.703-4.9531t-4.0781-14.234v-28.812h-9.0312v54.688h9.0312v-8.5q2.8438 4.9844 7.375 7.3906 4.5469 2.4219 11.047 2.4219 0.92188 0 2.0469-0.125 1.125-0.10938 2.4844-0.35938z"/>
<path id="k" d="m52 44.188q3.375 6.0625 8.0625 8.9375t11.031 2.875q8.5469 0 13.188-5.9844 4.6406-5.9688 4.6406-17v-33.016h-9.0312v32.719q0 7.8594-2.7969 11.656-2.7812 3.8125-8.4844 3.8125-6.9844 0-11.047-4.6406-4.0469-4.625-4.0469-12.641v-30.906h-9.0312v32.719q0 7.9062-2.7812 11.688t-8.5938 3.7812q-6.8906 0-10.953-4.6562-4.0469-4.6562-4.0469-12.625v-30.906h-9.0312v54.688h9.0312v-8.5q3.0781 5.0312 7.375 7.4219t10.203 2.3906q5.9688 0 10.141-3.0312 4.1719-3.0156 6.1719-8.7812z"/>
<path id="h" d="m9.4219 54.688h8.9844v-54.688h-8.9844zm0 21.297h8.9844v-11.391h-8.9844z"/>
<path id="f" d="m54.891 33.016v-33.016h-8.9844v32.719q0 7.7656-3.0312 11.609-3.0312 3.8594-9.0781 3.8594-7.2812 0-11.484-4.6406-4.2031-4.625-4.2031-12.641v-30.906h-9.0312v54.688h9.0312v-8.5q3.2344 4.9375 7.5938 7.375 4.375 2.4375 10.094 2.4375 9.4219 0 14.25-5.8281 4.8438-5.8281 4.8438-17.156z"/>
<path id="d" d="m34.281 27.484q-10.891 0-15.094-2.4844t-4.2031-8.5q0-4.7812 3.1562-7.5938 3.1562-2.7969 8.5625-2.7969 7.4844 0 12 5.2969t4.5156 14.078v2zm17.922 3.7188v-31.203h-8.9844v8.2969q-3.0781-4.9688-7.6719-7.3438t-11.234-2.375q-8.3906 0-13.359 4.7188-4.9531 4.7188-4.9531 12.625 0 9.2188 6.1719 13.906 6.1875 4.6875 18.438 4.6875h12.609v0.89062q0 6.2031-4.0781 9.5938t-11.453 3.3906q-4.6875 0-9.1406-1.125-4.4375-1.125-8.5312-3.375v8.3125q4.9219 1.9062 9.5625 2.8438 4.6406 0.95312 9.0312 0.95312 11.875 0 17.734-6.1562 5.8594-6.1406 5.8594-18.641z"/>
<path id="i" d="m9.4219 75.984h8.9844v-75.984h-8.9844z"/>
</defs>
<g transform="translate(94.658 1009) rotate(90) scale(.08 -.08)">
<use xlink:href="#l"/>
<use x="60.818359" xlink:href="#e"/>
<use x="122.341797" xlink:href="#g"/>
<use x="163.439453" xlink:href="#k"/>
<use x="260.851562" xlink:href="#h"/>
<use x="288.634766" xlink:href="#f"/>
<use x="352.013672" xlink:href="#d"/>
<use x="413.292969" xlink:href="#i"/>
</g>
</g>
<path d="m137.77 1009v35.285q0 2.4 2.4 2.4h7.7425q2.4 0 2.4-2.4v-35.285q0-2.4-2.4-2.4h-7.7425q-2.4 0-2.4 2.4z" clip-path="url(#a)" fill="#fff" stroke="#fff"/>
<g clip-path="url(#a)">
<g transform="translate(141.84 1009) rotate(90) scale(.08 -.08)">
<use xlink:href="#l"/>
<use x="60.818359" xlink:href="#e"/>
<use x="122.341797" xlink:href="#g"/>
<use x="163.439453" xlink:href="#k"/>
<use x="260.851562" xlink:href="#h"/>
<use x="288.634766" xlink:href="#f"/>
<use x="352.013672" xlink:href="#d"/>
<use x="413.292969" xlink:href="#i"/>
</g>
</g>
<path d="m184.95 1009v35.285q0 2.4 2.4 2.4h7.7425q2.4 0 2.4-2.4v-35.285q0-2.4-2.4-2.4h-7.7425q-2.4 0-2.4 2.4z" clip-path="url(#a)" fill="#fff" stroke="#fff"/>
<g clip-path="url(#a)">
<g transform="translate(189.01 1009) rotate(90) scale(.08 -.08)">
<use xlink:href="#l"/>
<use x="60.818359" xlink:href="#e"/>
<use x="122.341797" xlink:href="#g"/>
<use x="163.439453" xlink:href="#k"/>
<use x="260.851562" xlink:href="#h"/>
<use x="288.634766" xlink:href="#f"/>
<use x="352.013672" xlink:href="#d"/>
<use x="413.292969" xlink:href="#i"/>
</g>
</g>
<path d="m260.79 947.65 2.1584-5.1226q0.93188-2.2117-1.2798-3.1436l-7.135-3.0063q-2.2117-0.93188-3.1436 1.2798l-2.1584 5.1226q-0.93188 2.2117 1.2798 3.1436l7.135 3.0063q2.2117 0.93188 3.1436-1.2798z" clip-path="url(#a)" fill="#fff" stroke="#fff"/>
<g clip-path="url(#a)">
<defs>
<path id="v" d="m44.391 34.188q3.1719-1.0781 6.1719-4.5938t6.0312-9.6719l10.016-19.922h-10.609l-9.3125 18.703q-3.625 7.3281-7.0156 9.7188t-9.25 2.3906h-10.75v-30.812h-9.8594v72.906h22.266q12.5 0 18.656-5.2344 6.1562-5.2188 6.1562-15.766 0-6.8906-3.2031-11.438-3.2031-4.5312-9.2969-6.2812zm-24.719 30.609v-25.875h12.406q7.125 0 10.766 3.2969t3.6406 9.6875-3.6406 9.6406-10.766 3.25z"/>
</defs>
<g transform="translate(257.04 946.08) rotate(-67.152) scale(.08 -.08)">
<use xlink:href="#v"/>
</g>
</g>
<path d="m284.61 942.52 2.169 5.148q0.93188 2.2117 3.1436 1.2798l7.135-3.0063q2.2117-0.93188 1.2798-3.1436l-2.169-5.148q-0.93188-2.2117-3.1436-1.2798l-7.135 3.0063q-2.2117 0.93188-1.2798 3.1436z" clip-path="url(#a)" fill="#fff" stroke="#fff"/>
<g clip-path="url(#a)">
<defs>
<path id="o" d="m64.406 67.281v-10.391q-4.9844 4.6406-10.625 6.9219-5.6406 2.2969-11.984 2.2969-12.5 0-19.141-7.6406t-6.6406-22.094q0-14.406 6.6406-22.047t19.141-7.6406q6.3438 0 11.984 2.2969t10.625 6.9375v-10.312q-5.1719-3.5156-10.969-5.2812-5.7812-1.75-12.219-1.75-16.562 0-26.094 10.125-9.5156 10.141-9.5156 27.672 0 17.578 9.5156 27.703 9.5312 10.141 26.094 10.141 6.5312 0 12.312-1.7344 5.7969-1.7344 10.875-5.2031z"/>
</defs>
<g transform="translate(288.35 940.94) rotate(67.152) scale(.08 -.08)">
<use xlink:href="#o"/>
</g>
</g>
<path d="m505.03 626.86 1.7477-5.2769q0.75457-2.2783-1.5237-3.0329l-7.3499-2.4343q-2.2783-0.75457-3.0329 1.5237l-1.7477 5.2769q-0.75457 2.2783 1.5237 3.0329l7.3499 2.4343q2.2783 0.75457 3.0329-1.5237z" clip-path="url(#a)" fill="#fff" stroke="#fff"/>
<g clip-path="url(#a)">
<g transform="translate(501.18 625.58) rotate(-71.675) scale(.08 -.08)">
<use xlink:href="#v"/>
</g>
</g>
<path d="m528.95 626.3 1.2999-4.885q0.61718-2.3193-1.7021-2.9365l-7.4821-1.991q-2.3193-0.61718-2.9365 1.7021l-1.2999 4.885q-0.61718 2.3193 1.7021 2.9365l7.4821 1.991q2.3193 0.61718 2.9365-1.7021z" clip-path="url(#a)" fill="#fff" stroke="#fff"/>
<g clip-path="url(#a)">
<defs>
<path id="r" d="m9.8125 72.906h46.094v-8.3125h-36.234v-21.578h34.719v-8.2969h-34.719v-26.422h37.109v-8.2969h-46.969z"/>
</defs>
<g transform="translate(525.03 625.26) rotate(-75.098) scale(.08 -.08)">
<use xlink:href="#r"/>
</g>
</g>
<path d="m552.78 625.96 0.99622-4.9559q0.47298-2.3529-1.88-2.8259l-7.5907-1.5259q-2.3529-0.47298-2.8259 1.88l-0.99622 4.9559q-0.47298 2.3529 1.88 2.8259l7.5907 1.5259q2.3529 0.47298 2.8259-1.88z" clip-path="url(#a)" fill="#fff" stroke="#fff"/>
<g clip-path="url(#a)">
<g transform="translate(548.8 625.16) rotate(-78.634) scale(.08 -.08)">
<use xlink:href="#r"/>
</g>
</g>
<path d="m576.59 625.6 0.68085-5.0089q0.32325-2.3781-2.0549-2.7014l-7.672-1.0428q-2.3781-0.32325-2.7014 2.0549l-0.68085 5.0089q-0.32325 2.3781 2.0549 2.7014l7.672 1.0428q2.3781 0.32325 2.7014-2.0549z" clip-path="url(#a)" fill="#fff" stroke="#fff"/>
<g clip-path="url(#a)">
<g transform="translate(572.57 625.05) rotate(-82.259) scale(.08 -.08)">
<use xlink:href="#r"/>
</g>
</g>
<path d="m635.06 619.83 0.33092 5.5764q0.14217 2.3958 2.538 2.2536l7.7289-0.45866q2.3958-0.14217 2.2536-2.538l-0.33092-5.5764q-0.14217-2.3958-2.538-2.2536l-7.7289 0.45866q-2.3958 0.14217-2.2536 2.538z" clip-path="url(#a)" fill="#fff" stroke="#fff"/>
<g clip-path="url(#a)">
<g transform="translate(639.12 619.59) rotate(86.604) scale(.08 -.08)">
<use xlink:href="#o"/>
</g>
</g>
<path d="m840.96 315.07 4.9361 1.09q2.3435 0.51751 2.8611-1.826l1.6695-7.5604q0.51751-2.3435-1.826-2.8611l-4.9361-1.09q-2.3435-0.51751-2.8611 1.826l-1.6695 7.5604q-0.51751 2.3435 1.826 2.8611z" clip-path="url(#a)" fill="#fff" stroke="#fff"/>
<g clip-path="url(#a)">
<g transform="translate(841.83 311.1) rotate(12.453) scale(.08 -.08)">
<use xlink:href="#r"/>
</g>
</g>
<path d="m705.45 620.96 1.4447 5.674q0.59218 2.3258 2.918 1.7336l7.5031-1.9104q2.3258-0.59218 1.7336-2.918l-1.4447-5.674q-0.59218-2.3258-2.918-1.7336l-7.5031 1.9104q-2.3258 0.59218-1.7336 2.918z" clip-path="url(#a)" fill="#fff" stroke="#fff"/>
<g clip-path="url(#a)">
<defs>
<path id="al" d="m8.6875 72.906h9.9219v-44.297q0-11.719 4.2344-16.875 4.25-5.1406 13.781-5.1406 9.4688 0 13.719 5.1406 4.25 5.1562 4.25 16.875v44.297h9.9062v-45.516q0-14.25-7.0625-21.531-7.0469-7.2812-20.812-7.2812-13.828 0-20.891 7.2812-7.0469 7.2812-7.0469 21.531z"/>
</defs>
<g transform="translate(709.39 619.95) rotate(75.715) scale(.08 -.08)">
<use xlink:href="#al"/>
</g>
</g>
<path d="m373.66 1009v35.285q0 2.4 2.4 2.4h7.7425q2.4 0 2.4-2.4v-35.285q0-2.4-2.4-2.4h-7.7425q-2.4 0-2.4 2.4z" clip-path="url(#a)" fill="#fff" stroke="#fff"/>
<g clip-path="url(#a)">
<g transform="translate(377.72 1009) rotate(90) scale(.08 -.08)">
<use xlink:href="#l"/>
<use x="60.818359" xlink:href="#e"/>
<use x="122.341797" xlink:href="#g"/>
<use x="163.439453" xlink:href="#k"/>
<use x="260.851562" xlink:href="#h"/>
<use x="288.634766" xlink:href="#f"/>
<use x="352.013672" xlink:href="#d"/>
<use x="413.292969" xlink:href="#i"/>
</g>
</g>
<path d="m420.84 1009v35.285q0 2.4 2.4 2.4h7.7425q2.4 0 2.4-2.4v-35.285q0-2.4-2.4-2.4h-7.7425q-2.4 0-2.4 2.4z" clip-path="url(#a)" fill="#fff" stroke="#fff"/>
<g clip-path="url(#a)">
<g transform="translate(424.9 1009) rotate(90) scale(.08 -.08)">
<use xlink:href="#l"/>
<use x="60.818359" xlink:href="#e"/>
<use x="122.341797" xlink:href="#g"/>
<use x="163.439453" xlink:href="#k"/>
<use x="260.851562" xlink:href="#h"/>
<use x="288.634766" xlink:href="#f"/>
<use x="352.013672" xlink:href="#d"/>
<use x="413.292969" xlink:href="#i"/>
</g>
</g>
<path d="m468.01 1009v35.285q0 2.4 2.4 2.4h7.7425q2.4 0 2.4-2.4v-35.285q0-2.4-2.4-2.4h-7.7425q-2.4 0-2.4 2.4z" clip-path="url(#a)" fill="#fff" stroke="#fff"/>
<g clip-path="url(#a)">
<g transform="translate(472.08 1009) rotate(90) scale(.08 -.08)">
<use xlink:href="#l"/>
<use x="60.818359" xlink:href="#e"/>
<use x="122.341797" xlink:href="#g"/>
<use x="163.439453" xlink:href="#k"/>
<use x="260.851562" xlink:href="#h"/>
<use x="288.634766" xlink:href="#f"/>
<use x="352.013672" xlink:href="#d"/>
<use x="413.292969" xlink:href="#i"/>
</g>
</g>
<path d="m515.19 1009v35.285q0 2.4 2.4 2.4h7.7425q2.4 0 2.4-2.4v-35.285q0-2.4-2.4-2.4h-7.7425q-2.4 0-2.4 2.4z" clip-path="url(#a)" fill="#fff" stroke="#fff"/>
<g clip-path="url(#a)">
<g transform="translate(519.25 1009) rotate(90) scale(.08 -.08)">
<use xlink:href="#l"/>
<use x="60.818359" xlink:href="#e"/>
<use x="122.341797" xlink:href="#g"/>
<use x="163.439453" xlink:href="#k"/>
<use x="260.851562" xlink:href="#h"/>
<use x="288.634766" xlink:href="#f"/>
<use x="352.013672" xlink:href="#d"/>
<use x="413.292969" xlink:href="#i"/>
</g>
</g>
<path d="m606.81 1043 26.358-23.459q1.7928-1.5956 0.19718-3.3884l-5.1475-5.7836q-1.5956-1.7928-3.3884-0.19718l-26.358 23.459q-1.7928 1.5956-0.19718 3.3884l5.1475 5.7836q1.5956 1.7928 3.3884 0.19717z" clip-path="url(#a)" fill="#fff" stroke="#fff"/>
<g clip-path="url(#a)">
<g transform="translate(604.1 1040) rotate(-41.67) scale(.08 -.08)">
<use xlink:href="#l"/>
<use x="60.818359" xlink:href="#e"/>
<use x="122.341797" xlink:href="#g"/>
<use x="163.439453" xlink:href="#k"/>
<use x="260.851562" xlink:href="#h"/>
<use x="288.634766" xlink:href="#f"/>
<use x="352.013672" xlink:href="#d"/>
<use x="413.292969" xlink:href="#i"/>
</g>
</g>
<path d="m636.23 1045.1 17.282-30.763q1.1755-2.0924-0.91692-3.2679l-6.7502-3.7922q-2.0924-1.1755-3.2679 0.91692l-17.282 30.763q-1.1755 2.0924 0.91692 3.2679l6.7502 3.7922q2.0924 1.1755 3.2679-0.91692z" clip-path="url(#a)" fill="#fff" stroke="#fff"/>
<g clip-path="url(#a)">
<g transform="translate(632.69 1043.1) rotate(-60.673) scale(.08 -.08)">
<use xlink:href="#l"/>
<use x="60.818359" xlink:href="#e"/>
<use x="122.341797" xlink:href="#g"/>
<use x="163.439453" xlink:href="#k"/>
<use x="260.851562" xlink:href="#h"/>
<use x="288.634766" xlink:href="#f"/>
<use x="352.013672" xlink:href="#d"/>
<use x="413.292969" xlink:href="#i"/>
</g>
</g>
<path d="m656.72 1009v35.285q0 2.4 2.4 2.4h7.7425q2.4 0 2.4-2.4v-35.285q0-2.4-2.4-2.4h-7.7425q-2.4 0-2.4 2.4z" clip-path="url(#a)" fill="#fff" stroke="#fff"/>
<g clip-path="url(#a)">
<g transform="translate(660.79 1009) rotate(90) scale(.08 -.08)">
<use xlink:href="#l"/>
<use x="60.818359" xlink:href="#e"/>
<use x="122.341797" xlink:href="#g"/>
<use x="163.439453" xlink:href="#k"/>
<use x="260.851562" xlink:href="#h"/>
<use x="288.634766" xlink:href="#f"/>
<use x="352.013672" xlink:href="#d"/>
<use x="413.292969" xlink:href="#i"/>
</g>
</g>
<path d="m672.47 1014.3 17.282 30.763q1.1755 2.0924 3.2679 0.91692l6.7502-3.7922q2.0924-1.1755 0.91692-3.2679l-17.282-30.763q-1.1755-2.0924-3.2679-0.91692l-6.7502 3.7922q-2.0924 1.1755-0.91692 3.2679z" clip-path="url(#a)" fill="#fff" stroke="#fff"/>
<g clip-path="url(#a)">
<g transform="translate(676.02 1012.3) rotate(60.673) scale(.08 -.08)">
<use xlink:href="#l"/>
<use x="60.818359" xlink:href="#e"/>
<use x="122.341797" xlink:href="#g"/>
<use x="163.439453" xlink:href="#k"/>
<use x="260.851562" xlink:href="#h"/>
<use x="288.634766" xlink:href="#f"/>
<use x="352.013672" xlink:href="#d"/>
<use x="413.292969" xlink:href="#i"/>
</g>
</g>
<path d="m692.82 1019.6 26.358 23.459q1.7928 1.5956 3.3884-0.19717l5.1475-5.7836q1.5956-1.7928-0.19718-3.3884l-26.358-23.459q-1.7928-1.5956-3.3884 0.19718l-5.1475 5.7836q-1.5956 1.7928 0.19718 3.3884z" clip-path="url(#a)" fill="#fff" stroke="#fff"/>
<g clip-path="url(#a)">
<g transform="translate(695.52 1016.6) rotate(41.67) scale(.08 -.08)">
<use xlink:href="#l"/>
<use x="60.818359" xlink:href="#e"/>
<use x="122.341797" xlink:href="#g"/>
<use x="163.439453" xlink:href="#k"/>
<use x="260.851562" xlink:href="#h"/>
<use x="288.634766" xlink:href="#f"/>
<use x="352.013672" xlink:href="#d"/>
<use x="413.292969" xlink:href="#i"/>
</g>
</g>
<path d="m980.11 592.3 2.1314-5.1637q0.91569-2.2184-1.3028-3.1341l-7.1568-2.954q-2.2184-0.91569-3.1341 1.3028l-2.1314 5.1637q-0.91569 2.2184 1.3028 3.1341l7.1568 2.954q2.2184 0.91569 3.1341-1.3028z" clip-path="url(#a)" fill="#fff" stroke="#fff"/>
<g clip-path="url(#a)">
<g transform="translate(976.35 590.75) rotate(-67.571) scale(.08 -.08)">
<use xlink:href="#o"/>
</g>
</g>
<path d="m1119.1 670.05 1.0583 5.8907q0.42436 2.3622 2.7865 1.9378l7.6205-1.369q2.3622-0.42436 1.9378-2.7865l-1.0583-5.8907q-0.42436-2.3622-2.7865-1.9378l-7.6205 1.369q-2.3622 0.42436-1.9378 2.7865z" clip-path="url(#a)" fill="#fff" stroke="#fff"/>
<g clip-path="url(#a)">
<defs>
<path id="am" d="m9.8125 72.906h13.281l32.328-60.984v60.984h9.5625v-72.906h-13.281l-32.312 60.984v-60.984h-9.5781z"/>
</defs>
<g transform="translate(1123.1 669.33) rotate(79.816) scale(.08 -.08)">
<use xlink:href="#am"/>
</g>
</g>
<path d="m1100.9 408.97 3.4612 4.3848q1.487 1.8838 3.3708 0.39681l6.0773-4.7972q1.8838-1.487 0.39681-3.3708l-3.4612-4.3848q-1.487-1.8838-3.3708-0.39681l-6.0773 4.7972q-1.8838 1.487-0.39681 3.3708z" clip-path="url(#a)" fill="#fff" stroke="#fff"/>
<g clip-path="url(#a)">
<g transform="translate(1104.1 406.45) rotate(51.714) scale(.08 -.08)">
<use xlink:href="#o"/>
</g>
</g>
<path d="m773.77 906.72 4.3253-3.3526q1.8969-1.4703 0.42662-3.3672l-4.7432-6.1195q-1.4703-1.8969-3.3672-0.42662l-4.3253 3.3526q-1.8969 1.4703-0.42662 3.3672l4.7432 6.1195q1.4703 1.8969 3.3672 0.42662z" clip-path="url(#a)" fill="#fff" stroke="#fff"/>
<g clip-path="url(#a)">
<g transform="translate(771.28 903.51) rotate(-37.779) scale(.08 -.08)">
<use xlink:href="#t"/>
</g>
</g>
<path d="m883.4 857.01 0.98132 4.7229q0.48824 2.3498 2.8381 1.8616l7.5806-1.5751q2.3498-0.48824 1.8616-2.8381l-0.98132-4.7229q-0.48824-2.3498-2.8381-1.8616l-7.5806 1.5751q-2.3498 0.48824-1.8616 2.8381z" clip-path="url(#a)" fill="#fff" stroke="#fff"/>
<g clip-path="url(#a)">
<g transform="translate(887.38 856.18) rotate(78.262) scale(.08 -.08)">
<use xlink:href="#ag"/>
</g>
</g>
<path d="m883.48 897.67 0.64088 6.1266q0.2497 2.387 2.6367 2.1373l7.7005-0.80553q2.387-0.2497 2.1373-2.6367l-0.64088-6.1266q-0.2497-2.387-2.6367-2.1373l-7.7005 0.80553q-2.387 0.2497-2.1373 2.6367z" clip-path="url(#a)" fill="#fff" stroke="#fff"/>
<g clip-path="url(#a)">
<g transform="translate(887.52 897.25) rotate(84.028) scale(.08 -.08)">
<use xlink:href="#ah"/>
</g>
</g>
<path d="m967.47 862.63 4.9608 2.3105q2.1756 1.0133 3.1889-1.1623l3.2689-7.0186q1.0133-2.1756-1.1623-3.1889l-4.9608-2.3105q-2.1756-1.0133-3.1889 1.1623l-3.2689 7.0186q-1.0133 2.1756 1.1623 3.1889z" clip-path="url(#a)" fill="#fff" stroke="#fff"/>
<g clip-path="url(#a)">
<g transform="translate(969.18 858.94) rotate(24.974) scale(.08 -.08)">
<use xlink:href="#t"/>
</g>
</g>
<path d="m1175.7 1009v35.285q0 2.4 2.4 2.4h7.7425q2.4 0 2.4-2.4v-35.285q0-2.4-2.4-2.4h-7.7425q-2.4 0-2.4 2.4z" clip-path="url(#a)" fill="#fff" stroke="#fff"/>
<g clip-path="url(#a)">
<g transform="translate(1179.7 1009) rotate(90) scale(.08 -.08)">
<use xlink:href="#l"/>
<use x="60.818359" xlink:href="#e"/>
<use x="122.341797" xlink:href="#g"/>
<use x="163.439453" xlink:href="#k"/>
<use x="260.851562" xlink:href="#h"/>
<use x="288.634766" xlink:href="#f"/>
<use x="352.013672" xlink:href="#d"/>
<use x="413.292969" xlink:href="#i"/>
</g>
</g>
<path d="m907.08 726.28 3.6873-4.0437q1.6171-1.7734-0.1563-3.3905l-5.7211-5.2169q-1.7734-1.6171-3.3905 0.1563l-3.6873 4.0437q-1.6171 1.7734 0.1563 3.3905l5.7211 5.2169q1.7734 1.6171 3.3905-0.1563z" clip-path="url(#a)" fill="#fff" stroke="#fff"/>
<g clip-path="url(#a)">
<g transform="translate(904.07 723.54) rotate(-47.639) scale(.08 -.08)">
<use xlink:href="#t"/>
</g>
</g>
<path d="m1180.8 718.63 0.75216 4.7647q0.37423 2.3706 2.7449 1.9964l7.6478-1.2073q2.3706-0.37423 1.9964-2.7449l-0.75216-4.7647q-0.37423-2.3706-2.7449-1.9964l-7.6478 1.2073q-2.3706 0.37423-1.9964 2.7449z" clip-path="url(#a)" fill="#fff" stroke="#fff"/>
<g clip-path="url(#a)">
<g transform="translate(1184.8 717.99) rotate(81.029) scale(.08 -.08)">
<use xlink:href="#ag"/>
</g>
</g>
<path d="m1204.2 718.88 1.3123 5.3128q0.57551 2.33 2.9055 1.7545l7.5166-1.8566q2.33-0.57551 1.7545-2.9055l-1.3123-5.3128q-0.57551-2.33-2.9055-1.7545l-7.5166 1.8566q-2.33 0.57551-1.7545 2.9055z" clip-path="url(#a)" fill="#fff" stroke="#fff"/>
<g clip-path="url(#a)">
<g transform="translate(1208.1 717.91) rotate(76.126) scale(.08 -.08)">
<use xlink:href="#t"/>
</g>
</g>
<path d="m1275.1 507.21 5.1675 1.8014q2.2662 0.79001 3.0563-1.4762l2.5486-7.311q0.79001-2.2662-1.4762-3.0563l-5.1675-1.8014q-2.2662-0.79001-3.0563 1.4762l-2.5486 7.311q-0.79001 2.2662 1.4762 3.0563z" clip-path="url(#a)" fill="#fff" stroke="#fff"/>
<g clip-path="url(#a)">
<g transform="translate(1276.4 503.37) rotate(19.218) scale(.08 -.08)">
<use xlink:href="#t"/>
</g>
</g>
<path d="m1222.8 1009v35.285q0 2.4 2.4 2.4h7.7425q2.4 0 2.4-2.4v-35.285q0-2.4-2.4-2.4h-7.7425q-2.4 0-2.4 2.4z" clip-path="url(#a)" fill="#fff" stroke="#fff"/>
<g clip-path="url(#a)">
<g transform="translate(1226.9 1009) rotate(90) scale(.08 -.08)">
<use xlink:href="#l"/>
<use x="60.818359" xlink:href="#e"/>
<use x="122.341797" xlink:href="#g"/>
<use x="163.439453" xlink:href="#k"/>
<use x="260.851562" xlink:href="#h"/>
<use x="288.634766" xlink:href="#f"/>
<use x="352.013672" xlink:href="#d"/>
<use x="413.292969" xlink:href="#i"/>
</g>
</g>
<path d="m1270 1009v35.285q0 2.4 2.4 2.4h7.7425q2.4 0 2.4-2.4v-35.285q0-2.4-2.4-2.4h-7.7425q-2.4 0-2.4 2.4z" clip-path="url(#a)" fill="#fff" stroke="#fff"/>
<g clip-path="url(#a)">
<g transform="translate(1274.1 1009) rotate(90) scale(.08 -.08)">
<use xlink:href="#l"/>
<use x="60.818359" xlink:href="#e"/>
<use x="122.341797" xlink:href="#g"/>
<use x="163.439453" xlink:href="#k"/>
<use x="260.851562" xlink:href="#h"/>
<use x="288.634766" xlink:href="#f"/>
<use x="352.013672" xlink:href="#d"/>
<use x="413.292969" xlink:href="#i"/>
</g>
</g>
<path d="m1374.3 770.8 1.1296-5.4428q0.4877-2.3499-1.8622-2.8376l-7.581-1.5733q-2.3499-0.4877-2.8376 1.8622l-1.1296 5.4428q-0.4877 2.3499 1.8622 2.8376l7.581 1.5733q2.3499 0.4877 2.8376-1.8622z" clip-path="url(#a)" fill="#fff" stroke="#fff"/>
<g clip-path="url(#a)">
<g transform="translate(1370.3 769.97) rotate(-78.275) scale(.08 -.08)">
<use xlink:href="#v"/>
</g>
</g>
<path d="m1398.2 770.2 0.55177-5.5589q0.23705-2.3883-2.1512-2.6253l-7.7046-0.76475q-2.3883-0.23705-2.6253 2.1512l-0.55177 5.5589q-0.23705 2.3883 2.1512 2.6253l7.7046 0.76475q2.3883 0.23706 2.6253-2.1512z" clip-path="url(#a)" fill="#fff" stroke="#fff"/>
<g clip-path="url(#a)">
<g transform="translate(1394.2 769.8) rotate(-84.332) scale(.08 -.08)">
<use xlink:href="#o"/>
</g>
</g>
<path d="m1475.1 598.23 4.1783 2.8452q1.9837 1.3508 3.3346-0.63292l4.3578-6.3997q1.3508-1.9837-0.63292-3.3346l-4.1783-2.8452q-1.9837-1.3508-3.3346 0.63292l-4.3578 6.3997q-1.3508 1.9837 0.63292 3.3346z" clip-path="url(#a)" fill="#fff" stroke="#fff"/>
<g clip-path="url(#a)">
<g transform="translate(1477.4 594.87) rotate(34.253) scale(.08 -.08)">
<use xlink:href="#r"/>
</g>
</g>
<path d="m1317.2 1009v35.285q0 2.4 2.4 2.4h7.7425q2.4 0 2.4-2.4v-35.285q0-2.4-2.4-2.4h-7.7425q-2.4 0-2.4 2.4z" clip-path="url(#a)" fill="#fff" stroke="#fff"/>
<g clip-path="url(#a)">
<g transform="translate(1321.3 1009) rotate(90) scale(.08 -.08)">
<use xlink:href="#l"/>
<use x="60.818359" xlink:href="#e"/>
<use x="122.341797" xlink:href="#g"/>
<use x="163.439453" xlink:href="#k"/>
<use x="260.851562" xlink:href="#h"/>
<use x="288.634766" xlink:href="#f"/>
<use x="352.013672" xlink:href="#d"/>
<use x="413.292969" xlink:href="#i"/>
</g>
</g>
<path d="m1364.4 1009v35.285q0 2.4 2.4 2.4h7.7425q2.4 0 2.4-2.4v-35.285q0-2.4-2.4-2.4h-7.7425q-2.4 0-2.4 2.4z" clip-path="url(#a)" fill="#fff" stroke="#fff"/>
<g clip-path="url(#a)">
<g transform="translate(1368.4 1009) rotate(90) scale(.08 -.08)">
<use xlink:href="#l"/>
<use x="60.818359" xlink:href="#e"/>
<use x="122.341797" xlink:href="#g"/>
<use x="163.439453" xlink:href="#k"/>
<use x="260.851562" xlink:href="#h"/>
<use x="288.634766" xlink:href="#f"/>
<use x="352.013672" xlink:href="#d"/>
<use x="413.292969" xlink:href="#i"/>
</g>
</g>
<path d="m1487.6 817.12 1.9582-5.2024q0.84547-2.2461-1.4007-3.0916l-7.2462-2.7275q-2.2461-0.84547-3.0916 1.4007l-1.9582 5.2024q-0.84547 2.2461 1.4007 3.0916l7.2462 2.7275q2.2461 0.84547 3.0916-1.4007z" clip-path="url(#a)" fill="#fff" stroke="#fff"/>
<g clip-path="url(#a)">
<g transform="translate(1483.8 815.69) rotate(-69.373) scale(.08 -.08)">
<use xlink:href="#v"/>
</g>
</g>
<path d="m1511.8 816.23 1.1775-4.9159q0.55907-2.334-1.7749-2.893l-7.5295-1.8036q-2.334-0.55907-2.893 1.7749l-1.1775 4.9159q-0.55907 2.334 1.7749 2.893l7.5295 1.8036q2.334 0.55907 2.893-1.7749z" clip-path="url(#a)" fill="#fff" stroke="#fff"/>
<g clip-path="url(#a)">
<g transform="translate(1507.8 815.28) rotate(-76.53) scale(.08 -.08)">
<use xlink:href="#r"/>
</g>
</g>
<path d="m1547.1 809.73 0.19104 5.583q0.082078 2.3986 2.4807 2.3165l7.738-0.26479q2.3986-0.082078 2.3165-2.4807l-0.19104-5.583q-0.082078-2.3986-2.4807-2.3165l-7.738 0.26479q-2.3986 0.082078-2.3165 2.4807z" clip-path="url(#a)" fill="#fff" stroke="#fff"/>
<g clip-path="url(#a)">
<g transform="translate(1551.2 809.6) rotate(88.04) scale(.08 -.08)">
<use xlink:href="#o"/>
</g>
</g>
<path d="m1643 689.07 4.6223 2.0463q2.1946 0.97153 3.1661-1.223l3.1342-7.0798q0.97153-2.1946-1.223-3.1661l-4.6223-2.0463q-2.1946-0.97153-3.1661 1.223l-3.1342 7.0798q-0.97153 2.1946 1.223 3.1661z" clip-path="url(#a)" fill="#fff" stroke="#fff"/>
<g clip-path="url(#a)">
<g transform="translate(1644.6 685.35) rotate(23.879) scale(.08 -.08)">
<use xlink:href="#r"/>
</g>
</g>
<path d="m1411.6 1009v35.285q0 2.4 2.4 2.4h7.7425q2.4 0 2.4-2.4v-35.285q0-2.4-2.4-2.4h-7.7425q-2.4 0-2.4 2.4z" clip-path="url(#a)" fill="#fff" stroke="#fff"/>
<g clip-path="url(#a)">
<g transform="translate(1415.6 1009) rotate(90) scale(.08 -.08)">
<use xlink:href="#l"/>
<use x="60.818359" xlink:href="#e"/>
<use x="122.341797" xlink:href="#g"/>
<use x="163.439453" xlink:href="#k"/>
<use x="260.851562" xlink:href="#h"/>
<use x="288.634766" xlink:href="#f"/>
<use x="352.013672" xlink:href="#d"/>
<use x="413.292969" xlink:href="#i"/>
</g>
</g>
<path d="m1458.7 1009v35.285q0 2.4 2.4 2.4h7.7425q2.4 0 2.4-2.4v-35.285q0-2.4-2.4-2.4h-7.7425q-2.4 0-2.4 2.4z" clip-path="url(#a)" fill="#fff" stroke="#fff"/>
<g clip-path="url(#a)">
<g transform="translate(1462.8 1009) rotate(90) scale(.08 -.08)">
<use xlink:href="#l"/>
<use x="60.818359" xlink:href="#e"/>
<use x="122.341797" xlink:href="#g"/>
<use x="163.439453" xlink:href="#k"/>
<use x="260.851562" xlink:href="#h"/>
<use x="288.634766" xlink:href="#f"/>
<use x="352.013672" xlink:href="#d"/>
<use x="413.292969" xlink:href="#i"/>
</g>
</g>
<path d="m1532.6 1045.1 17.282-30.763q1.1755-2.0924-0.91692-3.2679l-6.7502-3.7922q-2.0924-1.1755-3.2679 0.91692l-17.282 30.763q-1.1755 2.0924 0.91692 3.2679l6.7502 3.7922q2.0924 1.1755 3.2679-0.91692z" clip-path="url(#a)" fill="#fff" stroke="#fff"/>
<g clip-path="url(#a)">
<g transform="translate(1529.1 1043.1) rotate(-60.673) scale(.08 -.08)">
<use xlink:href="#l"/>
<use x="60.818359" xlink:href="#e"/>
<use x="122.341797" xlink:href="#g"/>
<use x="163.439453" xlink:href="#k"/>
<use x="260.851562" xlink:href="#h"/>
<use x="288.634766" xlink:href="#f"/>
<use x="352.013672" xlink:href="#d"/>
<use x="413.292969" xlink:href="#i"/>
</g>
</g>
<path d="m1553.1 1009v35.285q0 2.4 2.4 2.4h7.7425q2.4 0 2.4-2.4v-35.285q0-2.4-2.4-2.4h-7.7425q-2.4 0-2.4 2.4z" clip-path="url(#a)" fill="#fff" stroke="#fff"/>
<g clip-path="url(#a)">
<g transform="translate(1557.2 1009) rotate(90) scale(.08 -.08)">
<use xlink:href="#l"/>
<use x="60.818359" xlink:href="#e"/>
<use x="122.341797" xlink:href="#g"/>
<use x="163.439453" xlink:href="#k"/>
<use x="260.851562" xlink:href="#h"/>
<use x="288.634766" xlink:href="#f"/>
<use x="352.013672" xlink:href="#d"/>
<use x="413.292969" xlink:href="#i"/>
</g>
</g>
<path d="m1568.8 1014.3 17.282 30.763q1.1755 2.0924 3.2679 0.91692l6.7502-3.7922q2.0924-1.1755 0.91692-3.2679l-17.282-30.763q-1.1755-2.0924-3.2679-0.91692l-6.7502 3.7922q-2.0924 1.1755-0.91692 3.2679z" clip-path="url(#a)" fill="#fff" stroke="#fff"/>
<g clip-path="url(#a)">
<g transform="translate(1572.4 1012.3) rotate(60.673) scale(.08 -.08)">
<use xlink:href="#l"/>
<use x="60.818359" xlink:href="#e"/>
<use x="122.341797" xlink:href="#g"/>
<use x="163.439453" xlink:href="#k"/>
<use x="260.851562" xlink:href="#h"/>
<use x="288.634766" xlink:href="#f"/>
<use x="352.013672" xlink:href="#d"/>
<use x="413.292969" xlink:href="#i"/>
</g>
</g>
<path d="m1705.8 861.47 1.923-5.2155q0.83026-2.2518-1.4216-3.0821l-7.2645-2.6784q-2.2518-0.83026-3.0821 1.4216l-1.923 5.2155q-0.83026 2.2518 1.4216 3.0821l7.2644 2.6784q2.2518 0.83026 3.0821-1.4216z" clip-path="url(#a)" fill="#fff" stroke="#fff"/>
<g clip-path="url(#a)">
<g transform="translate(1702 860.06) rotate(-69.761) scale(.08 -.08)">
<use xlink:href="#v"/>
</g>
</g>
<path d="m1742.3 860.05 0.51275-5.5627q0.22029-2.3899-2.1696-2.6102l-7.7098-0.71066q-2.3899-0.22029-2.6102 2.1696l-0.51275 5.5627q-0.22029 2.3899 2.1696 2.6102l7.7098 0.71066q2.3899 0.22029 2.6102-2.1696z" clip-path="url(#a)" fill="#fff" stroke="#fff"/>
<g clip-path="url(#a)">
<g transform="translate(1738.2 859.68) rotate(-84.734) scale(.08 -.08)">
<use xlink:href="#o"/>
</g>
</g>
<path d="m1801.3 775.68 4.0715 2.9959q1.9331 1.4224 3.3555-0.51068l4.5887-6.2362q1.4224-1.9331-0.51068-3.3555l-4.0715-2.9959q-1.9331-1.4224-3.3555 0.51068l-4.5887 6.2362q-1.4224 1.9331 0.51068 3.3555z" clip-path="url(#a)" fill="#fff" stroke="#fff"/>
<g clip-path="url(#a)">
<g transform="translate(1803.7 772.41) rotate(36.346) scale(.08 -.08)">
<use xlink:href="#r"/>
</g>
</g>
<path d="m1647.4 1009v35.285q0 2.4 2.4 2.4h7.7425q2.4 0 2.4-2.4v-35.285q0-2.4-2.4-2.4h-7.7425q-2.4 0-2.4 2.4z" clip-path="url(#a)" fill="#fff" stroke="#fff"/>
<g clip-path="url(#a)">
<g transform="translate(1651.5 1009) rotate(90) scale(.08 -.08)">
<use xlink:href="#l"/>
<use x="60.818359" xlink:href="#e"/>
<use x="122.341797" xlink:href="#g"/>
<use x="163.439453" xlink:href="#k"/>
<use x="260.851562" xlink:href="#h"/>
<use x="288.634766" xlink:href="#f"/>
<use x="352.013672" xlink:href="#d"/>
<use x="413.292969" xlink:href="#i"/>
</g>
</g>
<path d="m1714 1045.3 9.542-33.97q0.64903-2.3106-1.6616-2.9596l-7.454-2.0938q-2.3106-0.64903-2.9596 1.6616l-9.542 33.97q-0.64903 2.3106 1.6616 2.9596l7.454 2.0938q2.3106 0.64903 2.9596-1.6616z" clip-path="url(#a)" fill="#fff" stroke="#fff"/>
<g clip-path="url(#a)">
<g transform="translate(1710 1044.2) rotate(-74.31) scale(.08 -.08)">
<use xlink:href="#l"/>
<use x="60.818359" xlink:href="#e"/>
<use x="122.341797" xlink:href="#g"/>
<use x="163.439453" xlink:href="#k"/>
<use x="260.851562" xlink:href="#h"/>
<use x="288.634766" xlink:href="#f"/>
<use x="352.013672" xlink:href="#d"/>
<use x="413.292969" xlink:href="#i"/>
</g>
</g>
<path d="m1725.5 1011.3 9.542 33.97q0.64903 2.3106 2.9596 1.6616l7.454-2.0938q2.3106-0.64903 1.6616-2.9596l-9.542-33.97q-0.64903-2.3106-2.9596-1.6616l-7.454 2.0938q-2.3106 0.64903-1.6616 2.9596z" clip-path="url(#a)" fill="#fff" stroke="#fff"/>
<g clip-path="url(#a)">
<g transform="translate(1729.4 1010.2) rotate(74.31) scale(.08 -.08)">
<use xlink:href="#l"/>
<use x="60.818359" xlink:href="#e"/>
<use x="122.341797" xlink:href="#g"/>
<use x="163.439453" xlink:href="#k"/>
<use x="260.851562" xlink:href="#h"/>
<use x="288.634766" xlink:href="#f"/>
<use x="352.013672" xlink:href="#d"/>
<use x="413.292969" xlink:href="#i"/>
</g>
</g>
<path d="m1835.3 905.07 2.1457-5.1279q0.9264-2.214-1.2876-3.1404l-7.1424-2.9886q-2.214-0.9264-3.1404 1.2876l-2.1457 5.1279q-0.9264 2.214 1.2876 3.1404l7.1424 2.9886q2.214 0.9264 3.1404-1.2876z" clip-path="url(#a)" fill="#fff" stroke="#fff"/>
<g clip-path="url(#a)">
<g transform="translate(1831.6 903.5) rotate(-67.294) scale(.08 -.08)">
<use xlink:href="#v"/>
</g>
</g>
<path d="m1860.1 903.45 0.6983-5.0065q0.33154-2.377-2.0455-2.7085l-7.6683-1.0695q-2.377-0.33154-2.7085 2.0455l-0.6983 5.0065q-0.33154 2.377 2.0455 2.7085l7.6683 1.0695q2.377 0.33154 2.7085-2.0455z" clip-path="url(#a)" fill="#fff" stroke="#fff"/>
<g clip-path="url(#a)">
<g transform="translate(1856.1 902.89) rotate(-82.06) scale(.08 -.08)">
<use xlink:href="#r"/>
</g>
</g>
<path d="m1906.9 860.88 4.1473 3.7425q1.7818 1.6079 3.3897-0.1739l5.1871-5.7481q1.6079-1.7818-0.1739-3.3897l-4.1473-3.7425q-1.7818-1.6079-3.3897 0.1739l-5.1871 5.7481q-1.6079 1.7818 0.1739 3.3897z" clip-path="url(#a)" fill="#fff" stroke="#fff"/>
<g clip-path="url(#a)">
<g transform="translate(1909.6 857.86) rotate(42.063) scale(.08 -.08)">
<use xlink:href="#o"/>
</g>
</g>
<path d="m1789 1009v35.285q0 2.4 2.4 2.4h7.7425q2.4 0 2.4-2.4v-35.285q0-2.4-2.4-2.4h-7.7425q-2.4 0-2.4 2.4z" clip-path="url(#a)" fill="#fff" stroke="#fff"/>
<g clip-path="url(#a)">
<g transform="translate(1793 1009) rotate(90) scale(.08 -.08)">
<use xlink:href="#l"/>
<use x="60.818359" xlink:href="#e"/>
<use x="122.341797" xlink:href="#g"/>
<use x="163.439453" xlink:href="#k"/>
<use x="260.851562" xlink:href="#h"/>
<use x="288.634766" xlink:href="#f"/>
<use x="352.013672" xlink:href="#d"/>
<use x="413.292969" xlink:href="#i"/>
</g>
</g>
<path d="m1836.2 1009v35.285q0 2.4 2.4 2.4h7.7425q2.4 0 2.4-2.4v-35.285q0-2.4-2.4-2.4h-7.7425q-2.4 0-2.4 2.4z" clip-path="url(#a)" fill="#fff" stroke="#fff"/>
<g clip-path="url(#a)">
<g transform="translate(1840.2 1009) rotate(90) scale(.08 -.08)">
<use xlink:href="#l"/>
<use x="60.818359" xlink:href="#e"/>
<use x="122.341797" xlink:href="#g"/>
<use x="163.439453" xlink:href="#k"/>
<use x="260.851562" xlink:href="#h"/>
<use x="288.634766" xlink:href="#f"/>
<use x="352.013672" xlink:href="#d"/>
<use x="413.292969" xlink:href="#i"/>
</g>
</g>
<path d="m1928 948.83 3.5997-4.2718q1.5465-1.8353-0.28872-3.3818l-5.9206-4.9892q-1.8353-1.5465-3.3818 0.28872l-3.5997 4.2718q-1.5465 1.8353 0.28872 3.3818l5.9206 4.9892q1.8353 1.5465 3.3818-0.28872z" clip-path="url(#a)" fill="#fff" stroke="#fff"/>
<g clip-path="url(#a)">
<g transform="translate(1924.9 946.22) rotate(-49.88) scale(.08 -.08)">
<use xlink:href="#o"/>
</g>
</g>
<path d="m1953.8 947.23 1.6185-5.762q0.64903-2.3106-1.6616-2.9596l-7.454-2.0938q-2.3106-0.64903-2.9596 1.6616l-1.6185 5.762q-0.64903 2.3106 1.6616 2.9596l7.454 2.0938q2.3106 0.64903 2.9596-1.6616z" clip-path="url(#a)" fill="#fff" stroke="#fff"/>
<g clip-path="url(#a)">
<g transform="translate(1949.9 946.14) rotate(-74.31) scale(.08 -.08)">
<use xlink:href="#am"/>
</g>
</g>
<path d="m1965.4 941.66 1.5107 5.3781q0.64903 2.3106 2.9596 1.6616l7.454-2.0938q2.3106-0.64903 1.6616-2.9596l-1.5107-5.3781q-0.64903-2.3106-2.9596-1.6616l-7.454 2.0938q-2.3106 0.64903-1.6616 2.9596z" clip-path="url(#a)" fill="#fff" stroke="#fff"/>
<g clip-path="url(#a)">
<g transform="translate(1969.3 940.57) rotate(74.31) scale(.08 -.08)">
<use xlink:href="#o"/>
</g>
</g>
<path d="m1989.1 944.46 3.7729 4.4773q1.5465 1.8353 3.3818 0.28872l5.9206-4.9892q1.8353-1.5465 0.28872-3.3818l-3.7729-4.4773q-1.5465-1.8353-3.3818-0.28872l-5.9206 4.9892q-1.8353 1.5465-0.28872 3.3818z" clip-path="url(#a)" fill="#fff" stroke="#fff"/>
<g clip-path="url(#a)">
<g transform="translate(1992.2 941.84) rotate(49.88) scale(.08 -.08)">
<use xlink:href="#al"/>
</g>
</g>
<path d="m1883.3 1009v35.285q0 2.4 2.4 2.4h7.7425q2.4 0 2.4-2.4v-35.285q0-2.4-2.4-2.4h-7.7425q-2.4 0-2.4 2.4z" clip-path="url(#a)" fill="#fff" stroke="#fff"/>
<g clip-path="url(#a)">
<g transform="translate(1887.4 1009) rotate(90) scale(.08 -.08)">
<use xlink:href="#l"/>
<use x="60.818359" xlink:href="#e"/>
<use x="122.341797" xlink:href="#g"/>
<use x="163.439453" xlink:href="#k"/>
<use x="260.851562" xlink:href="#h"/>
<use x="288.634766" xlink:href="#f"/>
<use x="352.013672" xlink:href="#d"/>
<use x="413.292969" xlink:href="#i"/>
</g>
</g>
<path d="m1930.5 1009v35.285q0 2.4 2.4 2.4h7.7425q2.4 0 2.4-2.4v-35.285q0-2.4-2.4-2.4h-7.7425q-2.4 0-2.4 2.4z" clip-path="url(#a)" fill="#fff" stroke="#fff"/>
<g clip-path="url(#a)">
<g transform="translate(1934.6 1009) rotate(90) scale(.08 -.08)">
<use xlink:href="#l"/>
<use x="60.818359" xlink:href="#e"/>
<use x="122.341797" xlink:href="#g"/>
<use x="163.439453" xlink:href="#k"/>
<use x="260.851562" xlink:href="#h"/>
<use x="288.634766" xlink:href="#f"/>
<use x="352.013672" xlink:href="#d"/>
<use x="413.292969" xlink:href="#i"/>
</g>
</g>
<path d="m1977.7 1009v35.285q0 2.4 2.4 2.4h7.7425q2.4 0 2.4-2.4v-35.285q0-2.4-2.4-2.4h-7.7425q-2.4 0-2.4 2.4z" clip-path="url(#a)" fill="#fff" stroke="#fff"/>
<g clip-path="url(#a)">
<g transform="translate(1981.7 1009) rotate(90) scale(.08 -.08)">
<use xlink:href="#l"/>
<use x="60.818359" xlink:href="#e"/>
<use x="122.341797" xlink:href="#g"/>
<use x="163.439453" xlink:href="#k"/>
<use x="260.851562" xlink:href="#h"/>
<use x="288.634766" xlink:href="#f"/>
<use x="352.013672" xlink:href="#d"/>
<use x="413.292969" xlink:href="#i"/>
</g>
</g>
<path d="m879.52 947.93 2.4759-4.4072q1.1755-2.0924-0.91692-3.2679l-6.7502-3.7922q-2.0924-1.1755-3.2679 0.91692l-2.4759 4.4072q-1.1755 2.0924 0.91693 3.2679l6.7502 3.7922q2.0924 1.1755 3.2679-0.91692z" clip-path="url(#a)" fill="#fff" stroke="#fff"/>
<g clip-path="url(#a)">
<g transform="translate(875.98 945.94) rotate(-60.673) scale(.08 -.08)">
<use xlink:href="#r"/>
</g>
</g>
<path d="m915.63 943.29 2.7361 4.8703q1.1755 2.0924 3.2679 0.91692l6.7502-3.7922q2.0924-1.1755 0.91692-3.2679l-2.7361-4.8703q-1.1755-2.0924-3.2679-0.91692l-6.7502 3.7922q-2.0924 1.1755-0.91692 3.2679z" clip-path="url(#a)" fill="#fff" stroke="#fff"/>
<g clip-path="url(#a)">
<g transform="translate(919.18 941.3) rotate(60.673) scale(.08 -.08)">
<use xlink:href="#o"/>
</g>
</g>
<path d="m892.61 1009v35.285q0 2.4 2.4 2.4h7.7425q2.4 0 2.4-2.4v-35.285q0-2.4-2.4-2.4h-7.7425q-2.4 0-2.4 2.4z" clip-path="url(#a)" fill="#fff" stroke="#fff"/>
<g clip-path="url(#a)">
<g transform="translate(896.67 1009) rotate(90) scale(.08 -.08)">
<use xlink:href="#l"/>
<use x="60.818359" xlink:href="#e"/>
<use x="122.341797" xlink:href="#g"/>
<use x="163.439453" xlink:href="#k"/>
<use x="260.851562" xlink:href="#h"/>
<use x="288.634766" xlink:href="#f"/>
<use x="352.013672" xlink:href="#d"/>
<use x="413.292969" xlink:href="#i"/>
</g>
</g>
<path d="m1031.6 948.82 3.582-4.2507q1.5465-1.8353-0.28872-3.3818l-5.9206-4.9892q-1.8353-1.5465-3.3818 0.28872l-3.582 4.2507q-1.5465 1.8353 0.28872 3.3818l5.9206 4.9892q1.8353 1.5465 3.3818-0.28872z" clip-path="url(#a)" fill="#fff" stroke="#fff"/>
<g clip-path="url(#a)">
<g transform="translate(1028.5 946.21) rotate(-49.88) scale(.08 -.08)">
<use xlink:href="#v"/>
</g>
</g>
<path d="m1057.6 946.79 1.367-4.8667q0.64903-2.3106-1.6616-2.9596l-7.454-2.0938q-2.3106-0.64902-2.9596 1.6616l-1.367 4.8667q-0.64903 2.3106 1.6616 2.9596l7.454 2.0938q2.3106 0.64903 2.9596-1.6616z" clip-path="url(#a)" fill="#fff" stroke="#fff"/>
<g clip-path="url(#a)">
<g transform="translate(1053.6 945.69) rotate(-74.31) scale(.08 -.08)">
<use xlink:href="#r"/>
</g>
</g>
<path d="m1069.1 941.92 1.367 4.8667q0.64903 2.3106 2.9596 1.6616l7.454-2.0938q2.3106-0.64903 1.6616-2.9596l-1.367-4.8667q-0.64903-2.3106-2.9596-1.6616l-7.454 2.0938q-2.3106 0.64903-1.6616 2.9596z" clip-path="url(#a)" fill="#fff" stroke="#fff"/>
<g clip-path="url(#a)">
<g transform="translate(1073 940.82) rotate(74.31) scale(.08 -.08)">
<use xlink:href="#r"/>
</g>
</g>
<path d="m1092.8 944.56 3.5997 4.2718q1.5465 1.8353 3.3818 0.28872l5.9206-4.9892q1.8353-1.5465 0.28872-3.3818l-3.5997-4.2718q-1.5465-1.8353-3.3818-0.28872l-5.9206 4.9892q-1.8353 1.5465-0.28872 3.3818z" clip-path="url(#a)" fill="#fff" stroke="#fff"/>
<g clip-path="url(#a)">
<g transform="translate(1095.9 941.94) rotate(49.88) scale(.08 -.08)">
<use xlink:href="#o"/>
</g>
</g>
<path d="m986.96 1009v35.285q0 2.4 2.4 2.4h7.7425q2.4 0 2.4-2.4v-35.285q0-2.4-2.4-2.4h-7.7425q-2.4 0-2.4 2.4z" clip-path="url(#a)" fill="#fff" stroke="#fff"/>
<g clip-path="url(#a)">
<g transform="translate(991.03 1009) rotate(90) scale(.08 -.08)">
<use xlink:href="#l"/>
<use x="60.818359" xlink:href="#e"/>
<use x="122.341797" xlink:href="#g"/>
<use x="163.439453" xlink:href="#k"/>
<use x="260.851562" xlink:href="#h"/>
<use x="288.634766" xlink:href="#f"/>
<use x="352.013672" xlink:href="#d"/>
<use x="413.292969" xlink:href="#i"/>
</g>
</g>
<path d="m1034.1 1009v35.285q0 2.4 2.4 2.4h7.7425q2.4 0 2.4-2.4v-35.285q0-2.4-2.4-2.4h-7.7425q-2.4 0-2.4 2.4z" clip-path="url(#a)" fill="#fff" stroke="#fff"/>
<g clip-path="url(#a)">
<g transform="translate(1038.2 1009) rotate(90) scale(.08 -.08)">
<use xlink:href="#l"/>
<use x="60.818359" xlink:href="#e"/>
<use x="122.341797" xlink:href="#g"/>
<use x="163.439453" xlink:href="#k"/>
<use x="260.851562" xlink:href="#h"/>
<use x="288.634766" xlink:href="#f"/>
<use x="352.013672" xlink:href="#d"/>
<use x="413.292969" xlink:href="#i"/>
</g>
</g>
<path d="m1081.3 1009v35.285q0 2.4 2.4 2.4h7.7425q2.4 0 2.4-2.4v-35.285q0-2.4-2.4-2.4h-7.7425q-2.4 0-2.4 2.4z" clip-path="url(#a)" fill="#fff" stroke="#fff"/>
<g clip-path="url(#a)">
<g transform="translate(1085.4 1009) rotate(90) scale(.08 -.08)">
<use xlink:href="#l"/>
<use x="60.818359" xlink:href="#e"/>
<use x="122.341797" xlink:href="#g"/>
<use x="163.439453" xlink:href="#k"/>
<use x="260.851562" xlink:href="#h"/>
<use x="288.634766" xlink:href="#f"/>
<use x="352.013672" xlink:href="#d"/>
<use x="413.292969" xlink:href="#i"/>
</g>
</g>
<path d="m1128.5 1009v35.285q0 2.4 2.4 2.4h7.7425q2.4 0 2.4-2.4v-35.285q0-2.4-2.4-2.4h-7.7425q-2.4 0-2.4 2.4z" clip-path="url(#a)" fill="#fff" stroke="#fff"/>
<g clip-path="url(#a)">
<g transform="translate(1132.6 1009) rotate(90) scale(.08 -.08)">
<use xlink:href="#l"/>
<use x="60.818359" xlink:href="#e"/>
<use x="122.341797" xlink:href="#g"/>
<use x="163.439453" xlink:href="#k"/>
<use x="260.851562" xlink:href="#h"/>
<use x="288.634766" xlink:href="#f"/>
<use x="352.013672" xlink:href="#d"/>
<use x="413.292969" xlink:href="#i"/>
</g>
</g>
<path d="m845.43 1009v35.285q0 2.4 2.4 2.4h7.7425q2.4 0 2.4-2.4v-35.285q0-2.4-2.4-2.4h-7.7425q-2.4 0-2.4 2.4z" clip-path="url(#a)" fill="#fff" stroke="#fff"/>
<g clip-path="url(#a)">
<g transform="translate(849.49 1009) rotate(90) scale(.08 -.08)">
<use xlink:href="#l"/>
<use x="60.818359" xlink:href="#e"/>
<use x="122.341797" xlink:href="#g"/>
<use x="163.439453" xlink:href="#k"/>
<use x="260.851562" xlink:href="#h"/>
<use x="288.634766" xlink:href="#f"/>
<use x="352.013672" xlink:href="#d"/>
<use x="413.292969" xlink:href="#i"/>
</g>
</g>
<path d="m939.79 1009v35.285q0 2.4 2.4 2.4h7.7425q2.4 0 2.4-2.4v-35.285q0-2.4-2.4-2.4h-7.7425q-2.4 0-2.4 2.4z" clip-path="url(#a)" fill="#fff" stroke="#fff"/>
<g clip-path="url(#a)">
<g transform="translate(943.85 1009) rotate(90) scale(.08 -.08)">
<use xlink:href="#l"/>
<use x="60.818359" xlink:href="#e"/>
<use x="122.341797" xlink:href="#g"/>
<use x="163.439453" xlink:href="#k"/>
<use x="260.851562" xlink:href="#h"/>
<use x="288.634766" xlink:href="#f"/>
<use x="352.013672" xlink:href="#d"/>
<use x="413.292969" xlink:href="#i"/>
</g>
</g>
<path d="m232.13 1009v35.285q0 2.4 2.4 2.4h7.7425q2.4 0 2.4-2.4v-35.285q0-2.4-2.4-2.4h-7.7425q-2.4 0-2.4 2.4z" clip-path="url(#a)" fill="#fff" stroke="#fff"/>
<g clip-path="url(#a)">
<g transform="translate(236.19 1009) rotate(90) scale(.08 -.08)">
<use xlink:href="#l"/>
<use x="60.818359" xlink:href="#e"/>
<use x="122.341797" xlink:href="#g"/>
<use x="163.439453" xlink:href="#k"/>
<use x="260.851562" xlink:href="#h"/>
<use x="288.634766" xlink:href="#f"/>
<use x="352.013672" xlink:href="#d"/>
<use x="413.292969" xlink:href="#i"/>
</g>
</g>
<path d="m298.64 1045.3 9.542-33.97q0.64903-2.3106-1.6616-2.9596l-7.454-2.0938q-2.3106-0.64903-2.9596 1.6616l-9.542 33.97q-0.64903 2.3106 1.6616 2.9596l7.454 2.0938q2.3106 0.64903 2.9596-1.6616z" clip-path="url(#a)" fill="#fff" stroke="#fff"/>
<g clip-path="url(#a)">
<g transform="translate(294.72 1044.2) rotate(-74.31) scale(.08 -.08)">
<use xlink:href="#l"/>
<use x="60.818359" xlink:href="#e"/>
<use x="122.341797" xlink:href="#g"/>
<use x="163.439453" xlink:href="#k"/>
<use x="260.851562" xlink:href="#h"/>
<use x="288.634766" xlink:href="#f"/>
<use x="352.013672" xlink:href="#d"/>
<use x="413.292969" xlink:href="#i"/>
</g>
</g>
<path d="m310.15 1011.3 9.542 33.97q0.64903 2.3106 2.9596 1.6616l7.454-2.0938q2.3106-0.64903 1.6616-2.9596l-9.542-33.97q-0.64903-2.3106-2.9596-1.6616l-7.454 2.0938q-2.3106 0.64903-1.6616 2.9596z" clip-path="url(#a)" fill="#fff" stroke="#fff"/>
<g clip-path="url(#a)">
<g transform="translate(314.06 1010.2) rotate(74.31) scale(.08 -.08)">
<use xlink:href="#l"/>
<use x="60.818359" xlink:href="#e"/>
<use x="122.341797" xlink:href="#g"/>
<use x="163.439453" xlink:href="#k"/>
<use x="260.851562" xlink:href="#h"/>
<use x="288.634766" xlink:href="#f"/>
<use x="352.013672" xlink:href="#d"/>
<use x="413.292969" xlink:href="#i"/>
</g>
</g>
<path d="m798.25 1009v35.285q0 2.4 2.4 2.4h7.7425q2.4 0 2.4-2.4v-35.285q0-2.4-2.4-2.4h-7.7425q-2.4 0-2.4 2.4z" clip-path="url(#a)" fill="#fff" stroke="#fff"/>
<g clip-path="url(#a)">
<g transform="translate(802.32 1009) rotate(90) scale(.08 -.08)">
<use xlink:href="#l"/>
<use x="60.818359" xlink:href="#e"/>
<use x="122.341797" xlink:href="#g"/>
<use x="163.439453" xlink:href="#k"/>
<use x="260.851562" xlink:href="#h"/>
<use x="288.634766" xlink:href="#f"/>
<use x="352.013672" xlink:href="#d"/>
<use x="413.292969" xlink:href="#i"/>
</g>
</g>
<path d="m2024.9 1009v35.285q0 2.4 2.4 2.4h7.7425q2.4 0 2.4-2.4v-35.285q0-2.4-2.4-2.4h-7.7425q-2.4 0-2.4 2.4z" clip-path="url(#a)" fill="#fff" stroke="#fff"/>
<g clip-path="url(#a)">
<g transform="translate(2028.9 1009) rotate(90) scale(.08 -.08)">
<use xlink:href="#l"/>
<use x="60.818359" xlink:href="#e"/>
<use x="122.341797" xlink:href="#g"/>
<use x="163.439453" xlink:href="#k"/>
<use x="260.851562" xlink:href="#h"/>
<use x="288.634766" xlink:href="#f"/>
<use x="352.013672" xlink:href="#d"/>
<use x="413.292969" xlink:href="#i"/>
</g>
</g>
<defs>
<path id="b" d="m0 8.6603c2.2967 0 4.4997-0.9125 6.1237-2.5365 1.624-1.624 2.5365-3.827 2.5365-6.1237s-0.9125-4.4997-2.5365-6.1237c-1.624-1.624-3.827-2.5365-6.1237-2.5365s-4.4997 0.9125-6.1237 2.5365c-1.624 1.624-2.5365 3.827-2.5365 6.1237s0.9125 4.4997 2.5365 6.1237c1.624 1.624 3.827 2.5365 6.1237 2.5365z"/>
</defs>
<g clip-path="url(#a)">
<use x="96.86551" y="1068.623382" fill="#ffffff" stroke="#ffffff" xlink:href="#b"/>
</g>
<g clip-path="url(#a)">
<use x="144.042802" y="1068.623382" fill="#ffffff" stroke="#ffffff" xlink:href="#b"/>
</g>
<g clip-path="url(#a)">
<use x="191.220094" y="1068.623382" fill="#ffffff" stroke="#ffffff" xlink:href="#b"/>
</g>
<g clip-path="url(#a)">
<use x="238.397386" y="1068.623382" fill="#ffffff" stroke="#ffffff" xlink:href="#b"/>
</g>
<g clip-path="url(#a)">
<use x="285.574679" y="1068.623382" fill="#ffffff" stroke="#ffffff" xlink:href="#b"/>
</g>
<g clip-path="url(#a)">
<use x="332.751971" y="1068.623382" fill="#ffffff" stroke="#ffffff" xlink:href="#b"/>
</g>
<g clip-path="url(#a)">
<use x="379.929263" y="1068.623382" fill="#ffffff" stroke="#ffffff" xlink:href="#b"/>
</g>
<g clip-path="url(#a)">
<use x="427.106555" y="1068.623382" fill="#ffffff" stroke="#ffffff" xlink:href="#b"/>
</g>
<g clip-path="url(#a)">
<use x="474.283847" y="1068.623382" fill="#ffffff" stroke="#ffffff" xlink:href="#b"/>
</g>
<g clip-path="url(#a)">
<use x="521.46114" y="1068.623382" fill="#ffffff" stroke="#ffffff" xlink:href="#b"/>
</g>
<g clip-path="url(#a)">
<use x="568.638432" y="1068.623382" fill="#ffffff" stroke="#ffffff" xlink:href="#b"/>
</g>
<g clip-path="url(#a)">
<use x="615.815724" y="1068.623382" fill="#ffffff" stroke="#ffffff" xlink:href="#b"/>
</g>
<g clip-path="url(#a)">
<use x="662.993016" y="1068.623382" fill="#ffffff" stroke="#ffffff" xlink:href="#b"/>
</g>
<g clip-path="url(#a)">
<use x="710.170308" y="1068.623382" fill="#ffffff" stroke="#ffffff" xlink:href="#b"/>
</g>
<g clip-path="url(#a)">
<use x="757.347601" y="1068.623382" fill="#ffffff" stroke="#ffffff" xlink:href="#b"/>
</g>
<g clip-path="url(#a)">
<use x="804.524893" y="1068.623382" fill="#ffffff" stroke="#ffffff" xlink:href="#b"/>
</g>
<g clip-path="url(#a)">
<use x="851.702185" y="1068.623382" fill="#ffffff" stroke="#ffffff" xlink:href="#b"/>
</g>
<g clip-path="url(#a)">
<use x="898.879477" y="1068.623382" fill="#ffffff" stroke="#ffffff" xlink:href="#b"/>
</g>
<g clip-path="url(#a)">
<use x="946.056769" y="1068.623382" fill="#ffffff" stroke="#ffffff" xlink:href="#b"/>
</g>
<g clip-path="url(#a)">
<use x="993.234062" y="1068.623382" fill="#ffffff" stroke="#ffffff" xlink:href="#b"/>
</g>
<g clip-path="url(#a)">
<use x="1040.411354" y="1068.623382" fill="#ffffff" stroke="#ffffff" xlink:href="#b"/>
</g>
<g clip-path="url(#a)">
<use x="1087.588646" y="1068.623382" fill="#ffffff" stroke="#ffffff" xlink:href="#b"/>
</g>
<g clip-path="url(#a)">
<use x="1134.765938" y="1068.623382" fill="#ffffff" stroke="#ffffff" xlink:href="#b"/>
</g>
<g clip-path="url(#a)">
<use x="1181.943231" y="1068.623382" fill="#ffffff" stroke="#ffffff" xlink:href="#b"/>
</g>
<g clip-path="url(#a)">
<use x="1229.120523" y="1068.623382" fill="#ffffff" stroke="#ffffff" xlink:href="#b"/>
</g>
<g clip-path="url(#a)">
<use x="1276.297815" y="1068.623382" fill="#ffffff" stroke="#ffffff" xlink:href="#b"/>
</g>
<g clip-path="url(#a)">
<use x="1323.475107" y="1068.623382" fill="#ffffff" stroke="#ffffff" xlink:href="#b"/>
</g>
<g clip-path="url(#a)">
<use x="1370.652399" y="1068.623382" fill="#ffffff" stroke="#ffffff" xlink:href="#b"/>
</g>
<g clip-path="url(#a)">
<use x="1417.829692" y="1068.623382" fill="#ffffff" stroke="#ffffff" xlink:href="#b"/>
</g>
<g clip-path="url(#a)">
<use x="1465.006984" y="1068.623382" fill="#ffffff" stroke="#ffffff" xlink:href="#b"/>
</g>
<g clip-path="url(#a)">
<use x="1512.184276" y="1068.623382" fill="#ffffff" stroke="#ffffff" xlink:href="#b"/>
</g>
<g clip-path="url(#a)">
<use x="1559.361568" y="1068.623382" fill="#ffffff" stroke="#ffffff" xlink:href="#b"/>
</g>
<g clip-path="url(#a)">
<use x="1606.53886" y="1068.623382" fill="#ffffff" stroke="#ffffff" xlink:href="#b"/>
</g>
<g clip-path="url(#a)">
<use x="1653.716153" y="1068.623382" fill="#ffffff" stroke="#ffffff" xlink:href="#b"/>
</g>
<g clip-path="url(#a)">
<use x="1700.893445" y="1068.623382" fill="#ffffff" stroke="#ffffff" xlink:href="#b"/>
</g>
<g clip-path="url(#a)">
<use x="1748.070737" y="1068.623382" fill="#ffffff" stroke="#ffffff" xlink:href="#b"/>
</g>
<g clip-path="url(#a)">
<use x="1795.248029" y="1068.623382" fill="#ffffff" stroke="#ffffff" xlink:href="#b"/>
</g>
<g clip-path="url(#a)">
<use x="1842.425321" y="1068.623382" fill="#ffffff" stroke="#ffffff" xlink:href="#b"/>
</g>
<g clip-path="url(#a)">
<use x="1889.602614" y="1068.623382" fill="#ffffff" stroke="#ffffff" xlink:href="#b"/>
</g>
<g clip-path="url(#a)">
<use x="1936.779906" y="1068.623382" fill="#ffffff" stroke="#ffffff" xlink:href="#b"/>
</g>
<g clip-path="url(#a)">
<use x="1983.957198" y="1068.623382" fill="#ffffff" stroke="#ffffff" xlink:href="#b"/>
</g>
<g clip-path="url(#a)">
<use x="2031.13449" y="1068.623382" fill="#ffffff" stroke="#ffffff" xlink:href="#b"/>
</g>
<g clip-path="url(#a)">
<use x="265.177988" y="51.376618" fill="#ffffff" stroke="#ffffff" xlink:href="#b"/>
</g>
<g clip-path="url(#a)">
<use x="265.177988" y="157.342634" fill="#ffffff" stroke="#ffffff" xlink:href="#b"/>
</g>
<g clip-path="url(#a)">
<use x="96.86551" y="984.646184" fill="#ffffff" stroke="#ffffff" xlink:href="#b"/>
</g>
<g clip-path="url(#a)">
<use x="144.042802" y="984.646184" fill="#ffffff" stroke="#ffffff" xlink:href="#b"/>
</g>
<g clip-path="url(#a)">
<use x="191.220094" y="984.646184" fill="#ffffff" stroke="#ffffff" xlink:href="#b"/>
</g>
<g clip-path="url(#a)">
<use x="273.780356" y="900.668986" fill="#ffffff" stroke="#ffffff" xlink:href="#b"/>
</g>
<g clip-path="url(#a)">
<use x="619.981179" y="259.847448" fill="#ffffff" stroke="#ffffff" xlink:href="#b"/>
</g>
<g clip-path="url(#a)">
<use x="379.929263" y="984.646184" fill="#ffffff" stroke="#ffffff" xlink:href="#b"/>
</g>
<g clip-path="url(#a)">
<use x="427.106555" y="984.646184" fill="#ffffff" stroke="#ffffff" xlink:href="#b"/>
</g>
<g clip-path="url(#a)">
<use x="474.283847" y="984.646184" fill="#ffffff" stroke="#ffffff" xlink:href="#b"/>
</g>
<g clip-path="url(#a)">
<use x="521.46114" y="984.646184" fill="#ffffff" stroke="#ffffff" xlink:href="#b"/>
</g>
<g clip-path="url(#a)">
<use x="662.993016" y="984.646184" fill="#ffffff" stroke="#ffffff" xlink:href="#b"/>
</g>
<g clip-path="url(#a)">
<use x="1069.569541" y="359.128045" fill="#ffffff" stroke="#ffffff" xlink:href="#b"/>
</g>
<g clip-path="url(#a)">
<use x="881.187993" y="815.523572" fill="#ffffff" stroke="#ffffff" xlink:href="#b"/>
</g>
<g clip-path="url(#a)">
<use x="1181.943231" y="984.646184" fill="#ffffff" stroke="#ffffff" xlink:href="#b"/>
</g>
<g clip-path="url(#a)">
<use x="1145.577401" y="455.418694" fill="#ffffff" stroke="#ffffff" xlink:href="#b"/>
</g>
<g clip-path="url(#a)">
<use x="1229.120523" y="984.646184" fill="#ffffff" stroke="#ffffff" xlink:href="#b"/>
</g>
<g clip-path="url(#a)">
<use x="1276.297815" y="984.646184" fill="#ffffff" stroke="#ffffff" xlink:href="#b"/>
</g>
<g clip-path="url(#a)">
<use x="1413.898251" y="548.954465" fill="#ffffff" stroke="#ffffff" xlink:href="#b"/>
</g>
<g clip-path="url(#a)">
<use x="1323.475107" y="984.646184" fill="#ffffff" stroke="#ffffff" xlink:href="#b"/>
</g>
<g clip-path="url(#a)">
<use x="1370.652399" y="984.646184" fill="#ffffff" stroke="#ffffff" xlink:href="#b"/>
</g>
<g clip-path="url(#a)">
<use x="1547.567245" y="639.976252" fill="#ffffff" stroke="#ffffff" xlink:href="#b"/>
</g>
<g clip-path="url(#a)">
<use x="1417.829692" y="984.646184" fill="#ffffff" stroke="#ffffff" xlink:href="#b"/>
</g>
<g clip-path="url(#a)">
<use x="1465.006984" y="984.646184" fill="#ffffff" stroke="#ffffff" xlink:href="#b"/>
</g>
<g clip-path="url(#a)">
<use x="1559.361568" y="984.646184" fill="#ffffff" stroke="#ffffff" xlink:href="#b"/>
</g>
<g clip-path="url(#a)">
<use x="1748.070737" y="728.73862" fill="#ffffff" stroke="#ffffff" xlink:href="#b"/>
</g>
<g clip-path="url(#a)">
<use x="1653.716153" y="984.646184" fill="#ffffff" stroke="#ffffff" xlink:href="#b"/>
</g>
<g clip-path="url(#a)">
<use x="1724.482091" y="984.646184" fill="#ffffff" stroke="#ffffff" xlink:href="#b"/>
</g>
<g clip-path="url(#a)">
<use x="1866.013967" y="815.523572" fill="#ffffff" stroke="#ffffff" xlink:href="#b"/>
</g>
<g clip-path="url(#a)">
<use x="1795.248029" y="984.646184" fill="#ffffff" stroke="#ffffff" xlink:href="#b"/>
</g>
<g clip-path="url(#a)">
<use x="1842.425321" y="984.646184" fill="#ffffff" stroke="#ffffff" xlink:href="#b"/>
</g>
<g clip-path="url(#a)">
<use x="1960.368552" y="900.668986" fill="#ffffff" stroke="#ffffff" xlink:href="#b"/>
</g>
<g clip-path="url(#a)">
<use x="1889.602614" y="984.646184" fill="#ffffff" stroke="#ffffff" xlink:href="#b"/>
</g>
<g clip-path="url(#a)">
<use x="1936.779906" y="984.646184" fill="#ffffff" stroke="#ffffff" xlink:href="#b"/>
</g>
<g clip-path="url(#a)">
<use x="1983.957198" y="984.646184" fill="#ffffff" stroke="#ffffff" xlink:href="#b"/>
</g>
<g clip-path="url(#a)">
<use x="898.879477" y="900.668986" fill="#ffffff" stroke="#ffffff" xlink:href="#b"/>
</g>
<g clip-path="url(#a)">
<use x="898.879477" y="984.646184" fill="#ffffff" stroke="#ffffff" xlink:href="#b"/>
</g>
<g clip-path="url(#a)">
<use x="1064" y="900.668986" fill="#ffffff" stroke="#ffffff" xlink:href="#b"/>
</g>
<g clip-path="url(#a)">
<use x="993.234062" y="984.646184" fill="#ffffff" stroke="#ffffff" xlink:href="#b"/>
</g>
<g clip-path="url(#a)">
<use x="1040.411354" y="984.646184" fill="#ffffff" stroke="#ffffff" xlink:href="#b"/>
</g>
<g clip-path="url(#a)">
<use x="1087.588646" y="984.646184" fill="#ffffff" stroke="#ffffff" xlink:href="#b"/>
</g>
<g clip-path="url(#a)">
<use x="1134.765938" y="984.646184" fill="#ffffff" stroke="#ffffff" xlink:href="#b"/>
</g>
<g clip-path="url(#a)">
<use x="851.702185" y="984.646184" fill="#ffffff" stroke="#ffffff" xlink:href="#b"/>
</g>
<g clip-path="url(#a)">
<use x="946.056769" y="984.646184" fill="#ffffff" stroke="#ffffff" xlink:href="#b"/>
</g>
<g clip-path="url(#a)">
<use x="238.397386" y="984.646184" fill="#ffffff" stroke="#ffffff" xlink:href="#b"/>
</g>
<g clip-path="url(#a)">
<use x="309.163325" y="984.646184" fill="#ffffff" stroke="#ffffff" xlink:href="#b"/>
</g>
<g clip-path="url(#a)">
<use x="804.524893" y="984.646184" fill="#ffffff" stroke="#ffffff" xlink:href="#b"/>
</g>
<g clip-path="url(#a)">
<use x="2031.13449" y="984.646184" fill="#ffffff" stroke="#ffffff" xlink:href="#b"/>
</g>
<g clip-path="url(#a)">
<defs>
<path id="aq" d="m18.109 8.2031v-29h-9.0312v75.484h9.0312v-8.2969q2.8438 4.875 7.1562 7.2344 4.3281 2.375 10.328 2.375 9.9688 0 16.188-7.9062 6.2344-7.9062 6.2344-20.797t-6.2344-20.812q-6.2188-7.9062-16.188-7.9062-6 0-10.328 2.375-4.3125 2.375-7.1562 7.25zm30.578 19.094q0 9.9062-4.0781 15.547t-11.203 5.6406q-7.1406 0-11.219-5.6406t-4.0781-15.547 4.0781-15.547 11.219-5.6406q7.125 0 11.203 5.6406t4.0781 15.547z"/>
</defs>
<g transform="translate(83.591 1071.4) scale(.1 -.1)">
<use xlink:href="#ah"/>
<use x="77.001953" xlink:href="#e"/>
<use x="138.525391" xlink:href="#aq"/>
<use x="202.001953" xlink:href="#aq"/>
</g>
</g>
<g clip-path="url(#a)">
<defs>
<path id="ao" d="m54.891 54.688-19.781-26.609 20.797-28.078h-10.594l-15.922 21.484-15.906-21.484h-10.609l21.25 28.609-19.438 26.078h10.594l14.5-19.484 14.5 19.484z"/>
<path id="s" d="m18.312 70.219v-15.531h18.5v-6.9844h-18.5v-29.688q0-6.6875 1.8281-8.5938t7.4531-1.9062h9.2188v-7.5156h-9.2188q-10.406 0-14.359 3.875-3.9531 3.8906-3.9531 14.141v29.688h-6.5938v6.9844h6.5938v15.531z"/>
</defs>
<g transform="translate(132.88 1071.4) scale(.1 -.1)">
<use xlink:href="#f"/>
<use x="63.378906" xlink:href="#e"/>
<use x="124.886719" xlink:href="#ao"/>
<use x="184.066406" xlink:href="#s"/>
</g>
</g>
<g clip-path="url(#a)">
<defs>
<path id="x" d="m44.281 53.078v-8.5q-3.7969 1.9531-7.9062 2.9219-4.0938 0.98438-8.5 0.98438-6.6875 0-10.031-2.0469t-3.3438-6.1562q0-3.125 2.3906-4.9062t9.625-3.3906l3.0781-0.6875q9.5625-2.0469 13.594-5.7812t4.0312-10.422q0-7.625-6.0312-12.078-6.0312-4.4375-16.578-4.4375-4.3906 0-9.1562 0.85938t-10.031 2.5625v9.2812q4.9844-2.5938 9.8125-3.8906 4.8281-1.2812 9.5781-1.2812 6.3438 0 9.75 2.1719 3.4219 2.1719 3.4219 6.125 0 3.6562-2.4688 5.6094-2.4531 1.9531-10.812 3.7656l-3.125 0.73438q-8.3438 1.75-12.062 5.3906-3.7031 3.6406-3.7031 9.9844 0 7.7188 5.4688 11.906 5.4688 4.2031 15.531 4.2031 4.9688 0 9.3594-0.73438 4.4062-0.71875 8.1094-2.1875z"/>
<path id="aa" d="m45.406 46.391v29.594h8.9844v-75.984h-8.9844v8.2031q-2.8281-4.875-7.1562-7.25-4.3125-2.375-10.375-2.375-9.9062 0-16.141 7.9062-6.2188 7.9219-6.2188 20.812t6.2188 20.797q6.2344 7.9062 16.141 7.9062 6.0625 0 10.375-2.375 4.3281-2.3594 7.1562-7.2344zm-30.609-19.094q0-9.9062 4.0781-15.547t11.203-5.6406 11.219 5.6406q4.1094 5.6406 4.1094 15.547t-4.1094 15.547q-4.0938 5.6406-11.219 5.6406t-11.203-5.6406-4.0781-15.547z"/>
</defs>
<g transform="translate(173.23 1071.4) scale(.1 -.1)">
<use xlink:href="#x"/>
<use x="52.099609" xlink:href="#s"/>
<use x="91.308594" xlink:href="#d"/>
<use x="152.587891" xlink:href="#g"/>
<use x="193.685547" xlink:href="#g"/>
<use x="234.767578" xlink:href="#e"/>
<use x="296.291016" xlink:href="#aa"/>
</g>
</g>
<g clip-path="url(#a)">
<g transform="translate(232.73 1071.4) scale(.1 -.1)">
<use xlink:href="#d"/>
<use x="61.279297" xlink:href="#x"/>
</g>
</g>
<g clip-path="url(#a)">
<defs>
<path id="ak" d="m3.3281 72.906h9.9531l15.328-61.625 15.281 61.625h11.094l15.328-61.625 15.281 61.625h10.016l-18.312-72.906h-12.406l-15.375 63.281-15.531-63.281h-12.406z"/>
<path id="ai" d="m32.172-5.0781q-3.7969-9.7656-7.4219-12.734-3.6094-2.9844-9.6562-2.9844h-7.1875v7.5156h5.2812q3.7031 0 5.75 1.7656 2.0625 1.75 4.5469 8.2969l1.6094 4.0938-22.109 53.812h9.5156l17.094-42.766 17.094 42.766h9.5156z"/>
</defs>
<g transform="translate(273.51 1071.4) scale(.1 -.1)">
<use xlink:href="#ak"/>
<use x="98.845703" xlink:href="#h"/>
<use x="126.628906" xlink:href="#i"/>
<use x="154.412109" xlink:href="#i"/>
<use x="182.195312" xlink:href="#ai"/>
</g>
</g>
<g clip-path="url(#a)">
<defs>
<path id="n" d="m30.609 48.391q-7.2188 0-11.422-5.6406t-4.2031-15.453 4.1719-15.453q4.1875-5.6406 11.453-5.6406 7.1875 0 11.375 5.6562 4.2031 5.6719 4.2031 15.438 0 9.7188-4.2031 15.406-4.1875 5.6875-11.375 5.6875zm0 7.6094q11.719 0 18.406-7.625 6.7031-7.6094 6.7031-21.078 0-13.422-6.7031-21.078-6.6875-7.6406-18.406-7.6406-11.766 0-18.438 7.6406-6.6562 7.6562-6.6562 21.078 0 13.469 6.6562 21.078 6.6719 7.625 18.438 7.625z"/>
<path id="ax" d="m9.0781 75.984h9.0312v-44.875l26.812 23.578h11.469l-29-25.578 30.234-29.109h-11.719l-27.797 26.703v-26.703h-9.0312z"/>
</defs>
<g transform="translate(315.63 1071.4) scale(.1 -.1)">
<use xlink:href="#ak"/>
<use x="98.798828" xlink:href="#n"/>
<use x="159.980469" xlink:href="#f"/>
<use x="223.359375" xlink:href="#ax"/>
<use x="281.253906" xlink:href="#d"/>
</g>
</g>
<g clip-path="url(#a)">
<g transform="translate(375.37 1071.4) scale(.1 -.1)">
<use xlink:href="#h"/>
<use x="27.783203" xlink:href="#f"/>
</g>
</g>
<g clip-path="url(#a)">
<defs>
<path id="y" d="m54.891 33.016v-33.016h-8.9844v32.719q0 7.7656-3.0312 11.609-3.0312 3.8594-9.0781 3.8594-7.2812 0-11.484-4.6406-4.2031-4.625-4.2031-12.641v-30.906h-9.0312v75.984h9.0312v-29.797q3.2344 4.9375 7.5938 7.375 4.375 2.4375 10.094 2.4375 9.4219 0 14.25-5.8281 4.8438-5.8281 4.8438-17.156z"/>
</defs>
<g transform="translate(418.9 1071.4) scale(.1 -.1)">
<use xlink:href="#s"/>
<use x="39.208984" xlink:href="#y"/>
<use x="102.587891" xlink:href="#e"/>
</g>
</g>
<g clip-path="url(#a)">
<defs>
<path id="m" d="m19.188 8.2969h34.422v-8.2969h-46.281v8.2969q5.6094 5.8125 15.297 15.594 9.7031 9.7969 12.188 12.641 4.7344 5.3125 6.6094 9 1.8906 3.6875 1.8906 7.25 0 5.8125-4.0781 9.4688-4.0781 3.6719-10.625 3.6719-4.6406 0-9.7969-1.6094-5.1406-1.6094-11-4.8906v9.9688q5.9531 2.3906 11.125 3.6094 5.1875 1.2188 9.4844 1.2188 11.328 0 18.062-5.6719 6.7344-5.6562 6.7344-15.125 0-4.5-1.6875-8.5312-1.6719-4.0156-6.125-9.4844-1.2188-1.4219-7.7656-8.1875-6.5312-6.7656-18.453-18.922z"/>
<path id="w" d="m31.781 66.406q-7.6094 0-11.453-7.5-3.8281-7.4844-3.8281-22.531 0-14.984 3.8281-22.484 3.8438-7.5 11.453-7.5 7.6719 0 11.5 7.5 3.8438 7.5 3.8438 22.484 0 15.047-3.8438 22.531-3.8281 7.5-11.5 7.5zm0 7.8125q12.266 0 18.734-9.7031 6.4688-9.6875 6.4688-28.141 0-18.406-6.4688-28.109-6.4688-9.6875-18.734-9.6875-12.25 0-18.719 9.6875-6.4688 9.7031-6.4688 28.109 0 18.453 6.4688 28.141 6.4688 9.7031 18.719 9.7031z"/>
<path id="z" d="m10.797 72.906h38.719v-8.3125h-29.688v-17.859q2.1406 0.73438 4.2812 1.0938 2.1562 0.35938 4.3125 0.35938 12.203 0 19.328-6.6875 7.1406-6.6875 7.1406-18.109 0-11.766-7.3281-18.297-7.3281-6.5156-20.656-6.5156-4.5938 0-9.3594 0.78125-4.75 0.78125-9.8281 2.3438v9.9219q4.3906-2.3906 9.0781-3.5625t9.9062-1.1719q8.4531 0 13.375 4.4375 4.9375 4.4375 4.9375 12.062 0 7.6094-4.9375 12.047-4.9219 4.4531-13.375 4.4531-3.9531 0-7.8906-0.875-3.9219-0.875-8.0156-2.7344z"/>
</defs>
<g transform="translate(461.56 1071.4) scale(.1 -.1)">
<use xlink:href="#m"/>
<use x="63.623047" xlink:href="#w"/>
<use x="127.246094" xlink:href="#w"/>
<use x="190.869141" xlink:href="#z"/>
</g>
</g>
<g clip-path="url(#a)">
<defs>
<path id="af" d="m37.109 75.984v-7.4844h-8.5938q-4.8281 0-6.7188-1.9531-1.875-1.9531-1.875-7.0312v-4.8281h14.797v-6.9844h-14.797v-47.703h-9.0312v47.703h-8.5938v6.9844h8.5938v3.8125q0 9.125 4.25 13.297 4.25 4.1875 13.469 4.1875z"/>
</defs>
<g transform="translate(512.05 1071.4) scale(.1 -.1)">
<use xlink:href="#af"/>
<use x="35.205078" xlink:href="#h"/>
<use x="62.988281" xlink:href="#i"/>
<use x="90.771484" xlink:href="#k"/>
</g>
</g>
<g clip-path="url(#a)">
<g transform="translate(551 1071.4) scale(.1 -.1)">
<use xlink:href="#o"/>
<use x="69.824219" xlink:href="#y"/>
<use x="133.203125" xlink:href="#d"/>
<use x="194.482422" xlink:href="#g"/>
<use x="235.595703" xlink:href="#i"/>
<use x="263.378906" xlink:href="#h"/>
<use x="291.162109" xlink:href="#e"/>
</g>
</g>
<g clip-path="url(#a)">
<g transform="translate(606.41 1071.4) scale(.1 -.1)">
<use xlink:href="#d"/>
<use x="61.279297" xlink:href="#f"/>
<use x="124.658203" xlink:href="#aa"/>
</g>
</g>
<g clip-path="url(#a)">
<g transform="translate(654.79 1071.4) scale(.1 -.1)">
<use xlink:href="#s"/>
<use x="39.208984" xlink:href="#y"/>
<use x="102.587891" xlink:href="#e"/>
</g>
</g>
<g clip-path="url(#a)">
<defs>
<path id="u" d="m48.781 52.594v-8.4062q-3.8125 2.1094-7.6406 3.1562t-7.7344 1.0469q-8.75 0-13.594-5.5469-4.8281-5.5312-4.8281-15.547t4.8281-15.562q4.8438-5.5312 13.594-5.5312 3.9062 0 7.7344 1.0469t7.6406 3.1562v-8.3125q-3.7656-1.75-7.7969-2.625-4.0156-0.89062-8.5625-0.89062-12.359 0-19.641 7.7656-7.2656 7.7656-7.2656 20.953 0 13.375 7.3438 21.031 7.3594 7.6719 20.156 7.6719 4.1406 0 8.0938-0.85938 3.9531-0.84375 7.6719-2.5469z"/>
</defs>
<g transform="translate(685.15 1071.4) scale(.1 -.1)">
<use xlink:href="#o"/>
<use x="69.824219" xlink:href="#y"/>
<use x="133.203125" xlink:href="#n"/>
<use x="194.384766" xlink:href="#u"/>
<use x="249.365234" xlink:href="#n"/>
<use x="310.546875" xlink:href="#i"/>
<use x="338.330078" xlink:href="#d"/>
<use x="399.609375" xlink:href="#s"/>
<use x="438.818359" xlink:href="#e"/>
</g>
</g>
<g clip-path="url(#a)">
<defs>
<path id="at" d="m9.8125 72.906h41.891v-8.3125h-32.031v-21.484h28.906v-8.2969h-28.906v-34.812h-9.8594z"/>
</defs>
<g transform="translate(738.63 1071.4) scale(.1 -.1)">
<use xlink:href="#at"/>
<use x="57.378906" xlink:href="#d"/>
<use x="118.658203" xlink:href="#u"/>
<use x="173.638672" xlink:href="#s"/>
<use x="212.847656" xlink:href="#n"/>
<use x="274.029297" xlink:href="#g"/>
<use x="315.142578" xlink:href="#ai"/>
</g>
</g>
<g clip-path="url(#a)">
<defs>
<path id="av" d="m11.719 12.406h10.297v-8.4062l-8-15.625h-6.2969l4 15.625z"/>
</defs>
<g transform="translate(802.94 1071.4) scale(.1 -.1)">
<use xlink:href="#av"/>
</g>
</g>
<g clip-path="url(#a)">
<g transform="translate(848.64 1071.4) scale(.1 -.1)">
<use xlink:href="#d"/>
</g>
</g>
<g clip-path="url(#a)">
<defs>
<path id="ay" d="m9.4219 54.688h8.9844v-55.672q0-10.438-3.9844-15.125-3.9688-4.6875-12.812-4.6875h-3.4219v7.6094h2.4062q5.125 0 6.9688 2.375 1.8594 2.3594 1.8594 9.8281zm0 21.297h8.9844v-11.391h-8.9844z"/>
</defs>
<g transform="translate(884.44 1071.4) scale(.1 -.1)">
<use xlink:href="#k"/>
<use x="97.412109" xlink:href="#d"/>
<use x="158.691406" xlink:href="#ay"/>
<use x="186.474609" xlink:href="#n"/>
<use x="247.65625" xlink:href="#g"/>
</g>
</g>
<g clip-path="url(#a)">
<defs>
<path id="ap" d="m8.5 21.578v33.109h8.9844v-32.766q0-7.7656 3.0156-11.656 3.0312-3.875 9.0938-3.875 7.2656 0 11.484 4.6406 4.2344 4.6406 4.2344 12.656v31h8.9844v-54.688h-8.9844v8.4062q-3.2656-4.9844-7.5938-7.4062-4.3125-2.4219-10.031-2.4219-9.4219 0-14.312 5.8594-4.875 5.8594-4.875 17.141z"/>
</defs>
<g transform="translate(926.5 1071.4) scale(.1 -.1)">
<use xlink:href="#x"/>
<use x="52.099609" xlink:href="#ap"/>
<use x="115.478516" xlink:href="#u"/>
<use x="170.458984" xlink:href="#u"/>
<use x="225.439453" xlink:href="#e"/>
<use x="286.962891" xlink:href="#x"/>
<use x="339.0625" xlink:href="#x"/>
</g>
</g>
<g clip-path="url(#a)">
<g transform="translate(988.21 1071.4) scale(.1 -.1)">
<use xlink:href="#d"/>
<use x="61.279297" xlink:href="#s"/>
</g>
</g>
<g clip-path="url(#a)">
<g transform="translate(1032.2 1071.4) scale(.1 -.1)">
<use xlink:href="#s"/>
<use x="39.208984" xlink:href="#y"/>
<use x="102.587891" xlink:href="#e"/>
</g>
</g>
<g clip-path="url(#a)">
<defs>
<path id="aj" d="m48.688 27.297q0 9.9062-4.0781 15.547t-11.203 5.6406q-7.1406 0-11.219-5.6406t-4.0781-15.547 4.0781-15.547 11.219-5.6406q7.125 0 11.203 5.6406t4.0781 15.547zm-30.578 19.094q2.8438 4.875 7.1562 7.2344 4.3281 2.375 10.328 2.375 9.9688 0 16.188-7.9062 6.2344-7.9062 6.2344-20.797t-6.2344-20.812q-6.2188-7.9062-16.188-7.9062-6 0-10.328 2.375-4.3125 2.375-7.1562 7.25v-8.2031h-9.0312v75.984h9.0312z"/>
</defs>
<g transform="translate(1078.4 1071.4) scale(.1 -.1)">
<use xlink:href="#aj"/>
<use x="63.476562" xlink:href="#n"/>
<use x="124.611328" xlink:href="#ao"/>
</g>
</g>
<g clip-path="url(#a)">
<g transform="translate(1121 1071.4) scale(.1 -.1)">
<use xlink:href="#n"/>
<use x="61.181641" xlink:href="#af"/>
<use x="96.386719" xlink:href="#af"/>
<use x="131.591797" xlink:href="#h"/>
<use x="159.375" xlink:href="#u"/>
<use x="214.355469" xlink:href="#e"/>
</g>
</g>
<g clip-path="url(#a)">
<g transform="translate(1172.5 1071.4) scale(.1 -.1)">
<use xlink:href="#d"/>
<use x="61.279297" xlink:href="#f"/>
<use x="124.658203" xlink:href="#aa"/>
</g>
</g>
<g clip-path="url(#a)">
<defs>
<path id="az" d="m45.406 27.984q0 9.7656-4.0312 15.125-4.0156 5.375-11.297 5.375-7.2188 0-11.25-5.375-4.0312-5.3594-4.0312-15.125 0-9.7188 4.0312-15.094t11.25-5.375q7.2812 0 11.297 5.375 4.0312 5.375 4.0312 15.094zm8.9844-21.203q0-13.953-6.2031-20.766-6.1875-6.8125-18.984-6.8125-4.7344 0-8.9375 0.70312t-8.1562 2.1719v8.7344q3.9531-2.1406 7.8125-3.1562 3.8594-1.0312 7.8594-1.0312 8.8438 0 13.234 4.6094t4.3906 13.938v4.4531q-2.7812-4.8438-7.125-7.2344t-10.406-2.3906q-10.047 0-16.203 7.6562-6.1562 7.6719-6.1562 20.328 0 12.688 6.1562 20.344 6.1562 7.6719 16.203 7.6719 6.0625 0 10.406-2.3906t7.125-7.2188v8.2969h8.9844z"/>
</defs>
<g transform="translate(1210 1071.4) scale(.1 -.1)">
<use xlink:href="#e"/>
<use x="61.523438" xlink:href="#d"/>
<use x="122.802734" xlink:href="#g"/>
<use x="163.900391" xlink:href="#f"/>
<use x="227.279297" xlink:href="#h"/>
<use x="255.0625" xlink:href="#f"/>
<use x="318.441406" xlink:href="#az"/>
</g>
</g>
<g clip-path="url(#a)">
<g transform="translate(1266.9 1071.4) scale(.1 -.1)">
<use xlink:href="#y"/>
<use x="63.378906" xlink:href="#h"/>
<use x="91.162109" xlink:href="#k"/>
</g>
</g>
<g clip-path="url(#a)">
<g transform="translate(1320.4 1071.4) scale(.1 -.1)">
<use xlink:href="#d"/>
</g>
</g>
<g clip-path="url(#a)">
<g transform="translate(1342.4 1071.4) scale(.1 -.1)">
<use xlink:href="#f"/>
<use x="63.378906" xlink:href="#n"/>
<use x="124.560547" xlink:href="#k"/>
<use x="221.972656" xlink:href="#h"/>
<use x="249.755859" xlink:href="#f"/>
<use x="313.134766" xlink:href="#d"/>
<use x="374.414062" xlink:href="#s"/>
<use x="413.623047" xlink:href="#h"/>
<use x="441.40625" xlink:href="#n"/>
<use x="502.587891" xlink:href="#f"/>
</g>
</g>
<g clip-path="url(#a)">
<g transform="translate(1411 1071.4) scale(.1 -.1)">
<use xlink:href="#af"/>
<use x="35.205078" xlink:href="#n"/>
<use x="96.386719" xlink:href="#g"/>
</g>
</g>
<g clip-path="url(#a)">
<g transform="translate(1456.8 1071.4) scale(.1 -.1)">
<use xlink:href="#s"/>
<use x="39.208984" xlink:href="#y"/>
<use x="102.587891" xlink:href="#e"/>
</g>
</g>
<g clip-path="url(#a)">
<defs>
<path id="an" d="m59.516 10.406v19.578h-16.109v8.1094h25.875v-31.312q-5.7031-4.0469-12.594-6.125-6.875-2.0781-14.688-2.0781-17.094 0-26.75 9.9844-9.6406 10-9.6406 27.812 0 17.875 9.6406 27.859 9.6562 9.9844 26.75 9.9844 7.125 0 13.547-1.7656 6.4219-1.75 11.844-5.1719v-10.5q-5.4688 4.6406-11.625 6.9844t-12.938 2.3438q-13.391 0-20.109-7.4688-6.7031-7.4688-6.7031-22.266 0-14.75 6.7031-22.219 6.7188-7.4688 20.109-7.4688 5.2188 0 9.3125 0.90625 4.1094 0.90625 7.375 2.8125z"/>
</defs>
<g transform="translate(1494.4 1071.4) scale(.1 -.1)">
<use xlink:href="#an"/>
<use x="77.490234" xlink:href="#n"/>
<use x="138.671875" xlink:href="#i"/>
<use x="166.455078" xlink:href="#aa"/>
<use x="229.931641" xlink:href="#e"/>
<use x="291.455078" xlink:href="#f"/>
</g>
</g>
<g clip-path="url(#a)">
<g transform="translate(1544.8 1071.4) scale(.1 -.1)">
<use xlink:href="#an"/>
<use x="77.490234" xlink:href="#i"/>
<use x="105.273438" xlink:href="#n"/>
<use x="166.455078" xlink:href="#aj"/>
<use x="229.931641" xlink:href="#e"/>
</g>
</g>
<g clip-path="url(#a)">
<defs>
<path id="aw" d="m4.2031 54.688h8.9844l11.234-42.672 11.172 42.672h10.594l11.234-42.672 11.188 42.672h8.9844l-14.312-54.688h-10.594l-11.766 44.828-11.812-44.828h-10.609z"/>
</defs>
<g transform="translate(1590.7 1071.4) scale(.1 -.1)">
<use xlink:href="#t"/>
<use x="68.345703" xlink:href="#aw"/>
<use x="150.132812" xlink:href="#d"/>
<use x="211.412109" xlink:href="#g"/>
<use x="252.509766" xlink:href="#aa"/>
</g>
</g>
<g clip-path="url(#a)">
<g transform="translate(1646.8 1071.4) scale(.1 -.1)">
<use xlink:href="#af"/>
<use x="35.205078" xlink:href="#n"/>
<use x="96.386719" xlink:href="#g"/>
</g>
</g>
<g clip-path="url(#a)">
<defs>
<path id="au" d="m19.672 34.812v-26.703h15.828q7.9531 0 11.781 3.2969 3.8438 3.2969 3.8438 10.078 0 6.8438-3.8438 10.078-3.8281 3.25-11.781 3.25zm0 29.984v-21.969h14.609q7.2188 0 10.75 2.7031 3.5469 2.7188 3.5469 8.2812 0 5.5156-3.5469 8.25-3.5312 2.7344-10.75 2.7344zm-9.8594 8.1094h25.203q11.281 0 17.375-4.6875 6.1094-4.6875 6.1094-13.328 0-6.7031-3.125-10.656t-9.1875-4.9219q7.2812-1.5625 11.312-6.5312 4.0312-4.9531 4.0312-12.375 0-9.7656-6.6406-15.094-6.6406-5.3125-18.906-5.3125h-26.172z"/>
</defs>
<g transform="translate(1689.8 1071.4) scale(.1 -.1)">
<use xlink:href="#au"/>
<use x="68.603516" xlink:href="#e"/>
<use x="130.126953" xlink:href="#x"/>
<use x="182.226562" xlink:href="#s"/>
</g>
</g>
<g clip-path="url(#a)">
<g transform="translate(1734.8 1071.4) scale(.1 -.1)">
<use xlink:href="#t"/>
<use x="68.392578" xlink:href="#u"/>
<use x="123.373047" xlink:href="#s"/>
<use x="162.582031" xlink:href="#n"/>
<use x="223.763672" xlink:href="#g"/>
</g>
</g>
<g clip-path="url(#a)">
<g transform="translate(1790.7 1071.4) scale(.1 -.1)">
<use xlink:href="#h"/>
<use x="27.783203" xlink:href="#f"/>
</g>
</g>
<g clip-path="url(#a)">
<g transform="translate(1839.4 1071.4) scale(.1 -.1)">
<use xlink:href="#d"/>
</g>
</g>
<g clip-path="url(#a)">
<defs>
<path id="ar" d="m9.8125 72.906h14.703l18.594-49.609 18.703 49.609h14.703v-72.906h-9.625v64.016l-18.797-50h-9.9062l-18.797 50v-64.016h-9.5781z"/>
</defs>
<g transform="translate(1870.9 1071.4) scale(.1 -.1)">
<use xlink:href="#ar"/>
<use x="86.279297" xlink:href="#ap"/>
<use x="149.658203" xlink:href="#x"/>
<use x="201.757812" xlink:href="#h"/>
<use x="229.541016" xlink:href="#u"/>
<use x="284.521484" xlink:href="#d"/>
<use x="345.800781" xlink:href="#i"/>
</g>
</g>
<g clip-path="url(#a)">
<g transform="translate(1931.7 1071.4) scale(.1 -.1)">
<use xlink:href="#n"/>
<use x="61.181641" xlink:href="#g"/>
</g>
</g>
<g clip-path="url(#a)">
<g transform="translate(1963.3 1071.4) scale(.1 -.1)">
<use xlink:href="#o"/>
<use x="69.824219" xlink:href="#n"/>
<use x="131.005859" xlink:href="#k"/>
<use x="228.417969" xlink:href="#e"/>
<use x="289.941406" xlink:href="#aa"/>
<use x="353.417969" xlink:href="#ai"/>
</g>
</g>
<g clip-path="url(#a)">
<defs>
<path id="j" d="m10.688 12.406h10.312v-12.406h-10.312z"/>
</defs>
<g transform="translate(2029.5 1071.4) scale(.1 -.1)">
<use xlink:href="#j"/>
</g>
</g>
<g clip-path="url(#a)">
<defs>
<path id="c" d="m12.406 8.2969h16.109v55.625l-17.531-3.5156v8.9844l17.438 3.5156h9.8594v-64.609h16.109v-8.2969h-41.984z"/>
</defs>
<g transform="translate(257.23 54.136) scale(.1 -.1)">
<use xlink:href="#c"/>
<use x="63.623047" xlink:href="#j"/>
<use x="95.410156" xlink:href="#c"/>
</g>
</g>
<g clip-path="url(#a)">
<g transform="translate(257.23 160.1) scale(.1 -.1)">
<use xlink:href="#c"/>
<use x="63.623047" xlink:href="#j"/>
<use x="95.410156" xlink:href="#m"/>
</g>
</g>
<g clip-path="url(#a)">
<defs>
<path id="p" d="m37.797 64.312-24.906-38.922h24.906zm-2.5938 8.5938h12.406v-47.516h10.406v-8.2031h-10.406v-17.188h-9.8125v17.188h-32.906v9.5156z"/>
</defs>
<g transform="translate(88.914 987.41) scale(.1 -.1)">
<use xlink:href="#c"/>
<use x="63.623047" xlink:href="#j"/>
<use x="95.410156" xlink:href="#p"/>
</g>
</g>
<g clip-path="url(#a)">
<g transform="translate(136.09 987.41) scale(.1 -.1)">
<use xlink:href="#c"/>
<use x="63.623047" xlink:href="#j"/>
<use x="95.410156" xlink:href="#z"/>
</g>
</g>
<g clip-path="url(#a)">
<defs>
<path id="ae" d="m33.016 40.375q-6.6406 0-10.531-4.5469-3.875-4.5312-3.875-12.438 0-7.8594 3.875-12.438 3.8906-4.5625 10.531-4.5625t10.516 4.5625q3.875 4.5781 3.875 12.438 0 7.9062-3.875 12.438-3.875 4.5469-10.516 4.5469zm19.578 30.922v-8.9844q-3.7188 1.75-7.5 2.6719-3.7812 0.9375-7.5 0.9375-9.7656 0-14.922-6.5938-5.1406-6.5938-5.875-19.922 2.875 4.25 7.2188 6.5156 4.3594 2.2656 9.5781 2.2656 10.984 0 17.359-6.6719 6.375-6.6562 6.375-18.125 0-11.234-6.6406-18.031-6.6406-6.7812-17.672-6.7812-12.656 0-19.344 9.6875-6.6875 9.7031-6.6875 28.109 0 17.281 8.2031 27.562t22.016 10.281q3.7188 0 7.5-0.73438t7.8906-2.1875z"/>
</defs>
<g transform="translate(183.27 987.41) scale(.1 -.1)">
<use xlink:href="#c"/>
<use x="63.623047" xlink:href="#j"/>
<use x="95.410156" xlink:href="#ae"/>
</g>
</g>
<g clip-path="url(#a)">
<defs>
<path id="ad" d="m8.2031 72.906h46.875v-4.2031l-26.469-68.703h-10.297l24.906 64.594h-35.016z"/>
</defs>
<g transform="translate(265.83 903.43) scale(.1 -.1)">
<use xlink:href="#c"/>
<use x="63.623047" xlink:href="#j"/>
<use x="95.410156" xlink:href="#ad"/>
</g>
</g>
<g clip-path="url(#a)">
<defs>
<path id="ac" d="m31.781 34.625q-7.0312 0-11.062-3.7656-4.0156-3.7656-4.0156-10.344 0-6.5938 4.0156-10.359 4.0312-3.7656 11.062-3.7656t11.078 3.7812q4.0625 3.7969 4.0625 10.344 0 6.5781-4.0312 10.344-4.0156 3.7656-11.109 3.7656zm-9.8594 4.1875q-6.3438 1.5625-9.8906 5.9062-3.5312 4.3594-3.5312 10.609 0 8.7344 6.2188 13.812 6.2344 5.0781 17.062 5.0781 10.891 0 17.094-5.0781t6.2031-13.812q0-6.25-3.5469-10.609-3.5312-4.3438-9.8281-5.9062 7.125-1.6562 11.094-6.5 3.9844-4.8281 3.9844-11.797 0-10.609-6.4688-16.281-6.4688-5.6562-18.531-5.6562-12.047 0-18.531 5.6562-6.4688 5.6719-6.4688 16.281 0 6.9688 4 11.797 4.0156 4.8438 11.141 6.5zm-3.6094 15.578q0-5.6562 3.5312-8.8281 3.5469-3.1719 9.9375-3.1719 6.3594 0 9.9375 3.1719 3.5938 3.1719 3.5938 8.8281 0 5.6719-3.5938 8.8438-3.5781 3.1719-9.9375 3.1719-6.3906 0-9.9375-3.1719-3.5312-3.1719-3.5312-8.8438z"/>
</defs>
<g transform="translate(612.03 262.61) scale(.1 -.1)">
<use xlink:href="#c"/>
<use x="63.623047" xlink:href="#j"/>
<use x="95.410156" xlink:href="#ac"/>
</g>
</g>
<g clip-path="url(#a)">
<defs>
<path id="ab" d="m10.984 1.5156v8.9844q3.7188-1.7656 7.5156-2.6875 3.8125-0.92188 7.4844-0.92188 9.7656 0 14.906 6.5625 5.1562 6.5625 5.8906 19.953-2.8281-4.2031-7.1875-6.4531-4.3438-2.25-9.6094-2.25-10.938 0-17.312 6.6094-6.375 6.625-6.375 18.109 0 11.219 6.6406 18 6.6406 6.7969 17.672 6.7969 12.656 0 19.312-9.7031 6.6719-9.6875 6.6719-28.141 0-17.234-8.1875-27.516-8.1719-10.281-21.984-10.281-3.7188 0-7.5312 0.73438-3.7969 0.73438-7.9062 2.2031zm19.625 30.906q6.6406 0 10.516 4.5312 3.8906 4.5469 3.8906 12.469 0 7.8594-3.8906 12.422-3.875 4.5625-10.516 4.5625t-10.516-4.5625-3.875-12.422q0-7.9219 3.875-12.469 3.875-4.5312 10.516-4.5312z"/>
</defs>
<g transform="translate(371.98 987.41) scale(.1 -.1)">
<use xlink:href="#c"/>
<use x="63.623047" xlink:href="#j"/>
<use x="95.410156" xlink:href="#ab"/>
</g>
</g>
<g clip-path="url(#a)">
<g transform="translate(415.97 987.41) scale(.1 -.1)">
<use xlink:href="#c"/>
<use x="63.623047" xlink:href="#j"/>
<use x="95.410156" xlink:href="#c"/>
<use x="159.033203" xlink:href="#w"/>
</g>
</g>
<g clip-path="url(#a)">
<g transform="translate(463.15 987.41) scale(.1 -.1)">
<use xlink:href="#c"/>
<use x="63.623047" xlink:href="#j"/>
<use x="95.410156" xlink:href="#c"/>
<use x="159.033203" xlink:href="#c"/>
</g>
</g>
<g clip-path="url(#a)">
<g transform="translate(510.33 987.41) scale(.1 -.1)">
<use xlink:href="#c"/>
<use x="63.623047" xlink:href="#j"/>
<use x="95.410156" xlink:href="#c"/>
<use x="159.033203" xlink:href="#m"/>
</g>
</g>
<g clip-path="url(#a)">
<defs>
<path id="q" d="m40.578 39.312q7.0781-1.5156 11.047-6.3125 3.9844-4.7812 3.9844-11.812 0-10.781-7.4219-16.703-7.4219-5.9062-21.094-5.9062-4.5781 0-9.4375 0.90625t-10.031 2.7188v9.5156q4.0938-2.3906 8.9688-3.6094 4.8906-1.2188 10.219-1.2188 9.2656 0 14.125 3.6562t4.8594 10.641q0 6.4531-4.5156 10.078-4.5156 3.6406-12.562 3.6406h-8.5v8.1094h8.8906q7.2656 0 11.125 2.9062t3.8594 8.375q0 5.6094-3.9844 8.6094-3.9688 3.0156-11.391 3.0156-4.0625 0-8.7031-0.89062-4.6406-0.875-10.203-2.7188v8.7812q5.625 1.5625 10.531 2.3438t9.25 0.78125q11.234 0 17.766-5.1094 6.5469-5.0938 6.5469-13.781 0-6.0625-3.4688-10.234t-9.8594-5.7812z"/>
</defs>
<g transform="translate(651.86 987.41) scale(.1 -.1)">
<use xlink:href="#c"/>
<use x="63.623047" xlink:href="#j"/>
<use x="95.410156" xlink:href="#c"/>
<use x="159.033203" xlink:href="#q"/>
</g>
</g>
<g clip-path="url(#a)">
<g transform="translate(1058.4 361.89) scale(.1 -.1)">
<use xlink:href="#c"/>
<use x="63.623047" xlink:href="#j"/>
<use x="95.410156" xlink:href="#c"/>
<use x="159.033203" xlink:href="#p"/>
</g>
</g>
<g clip-path="url(#a)">
<g transform="translate(870.06 818.28) scale(.1 -.1)">
<use xlink:href="#c"/>
<use x="63.623047" xlink:href="#j"/>
<use x="95.410156" xlink:href="#c"/>
<use x="159.033203" xlink:href="#ae"/>
</g>
</g>
<g clip-path="url(#a)">
<g transform="translate(1170.8 987.41) scale(.1 -.1)">
<use xlink:href="#c"/>
<use x="63.623047" xlink:href="#j"/>
<use x="95.410156" xlink:href="#c"/>
<use x="159.033203" xlink:href="#ad"/>
</g>
</g>
<g clip-path="url(#a)">
<g transform="translate(1134.4 458.18) scale(.1 -.1)">
<use xlink:href="#c"/>
<use x="63.623047" xlink:href="#j"/>
<use x="95.410156" xlink:href="#c"/>
<use x="159.033203" xlink:href="#ac"/>
</g>
</g>
<g clip-path="url(#a)">
<g transform="translate(1218 987.41) scale(.1 -.1)">
<use xlink:href="#c"/>
<use x="63.623047" xlink:href="#j"/>
<use x="95.410156" xlink:href="#c"/>
<use x="159.033203" xlink:href="#ab"/>
</g>
</g>
<g clip-path="url(#a)">
<g transform="translate(1265.2 987.41) scale(.1 -.1)">
<use xlink:href="#c"/>
<use x="63.623047" xlink:href="#j"/>
<use x="95.410156" xlink:href="#m"/>
<use x="159.033203" xlink:href="#w"/>
</g>
</g>
<g clip-path="url(#a)">
<g transform="translate(1402.8 551.71) scale(.1 -.1)">
<use xlink:href="#c"/>
<use x="63.623047" xlink:href="#j"/>
<use x="95.410156" xlink:href="#m"/>
<use x="159.033203" xlink:href="#c"/>
</g>
</g>
<g clip-path="url(#a)">
<g transform="translate(1312.3 987.41) scale(.1 -.1)">
<use xlink:href="#c"/>
<use x="63.623047" xlink:href="#j"/>
<use x="95.410156" xlink:href="#m"/>
<use x="159.033203" xlink:href="#m"/>
</g>
</g>
<g clip-path="url(#a)">
<g transform="translate(1359.5 987.41) scale(.1 -.1)">
<use xlink:href="#c"/>
<use x="63.623047" xlink:href="#j"/>
<use x="95.410156" xlink:href="#m"/>
<use x="159.033203" xlink:href="#q"/>
</g>
</g>
<g clip-path="url(#a)">
<g transform="translate(1536.4 642.74) scale(.1 -.1)">
<use xlink:href="#c"/>
<use x="63.623047" xlink:href="#j"/>
<use x="95.410156" xlink:href="#m"/>
<use x="159.033203" xlink:href="#p"/>
</g>
</g>
<g clip-path="url(#a)">
<g transform="translate(1406.7 987.41) scale(.1 -.1)">
<use xlink:href="#c"/>
<use x="63.623047" xlink:href="#j"/>
<use x="95.410156" xlink:href="#m"/>
<use x="159.033203" xlink:href="#z"/>
</g>
</g>
<g clip-path="url(#a)">
<g transform="translate(1453.9 987.41) scale(.1 -.1)">
<use xlink:href="#c"/>
<use x="63.623047" xlink:href="#j"/>
<use x="95.410156" xlink:href="#m"/>
<use x="159.033203" xlink:href="#ae"/>
</g>
</g>
<g clip-path="url(#a)">
<g transform="translate(1548.2 987.41) scale(.1 -.1)">
<use xlink:href="#c"/>
<use x="63.623047" xlink:href="#j"/>
<use x="95.410156" xlink:href="#m"/>
<use x="159.033203" xlink:href="#ad"/>
</g>
</g>
<g clip-path="url(#a)">
<g transform="translate(1736.9 731.5) scale(.1 -.1)">
<use xlink:href="#c"/>
<use x="63.623047" xlink:href="#j"/>
<use x="95.410156" xlink:href="#m"/>
<use x="159.033203" xlink:href="#ac"/>
</g>
</g>
<g clip-path="url(#a)">
<g transform="translate(1642.6 987.41) scale(.1 -.1)">
<use xlink:href="#c"/>
<use x="63.623047" xlink:href="#j"/>
<use x="95.410156" xlink:href="#m"/>
<use x="159.033203" xlink:href="#ab"/>
</g>
</g>
<g clip-path="url(#a)">
<g transform="translate(1713.3 987.41) scale(.1 -.1)">
<use xlink:href="#c"/>
<use x="63.623047" xlink:href="#j"/>
<use x="95.410156" xlink:href="#q"/>
<use x="159.033203" xlink:href="#w"/>
</g>
</g>
<g clip-path="url(#a)">
<g transform="translate(1854.9 818.28) scale(.1 -.1)">
<use xlink:href="#c"/>
<use x="63.623047" xlink:href="#j"/>
<use x="95.410156" xlink:href="#q"/>
<use x="159.033203" xlink:href="#c"/>
</g>
</g>
<g clip-path="url(#a)">
<g transform="translate(1784.1 987.41) scale(.1 -.1)">
<use xlink:href="#c"/>
<use x="63.623047" xlink:href="#j"/>
<use x="95.410156" xlink:href="#q"/>
<use x="159.033203" xlink:href="#m"/>
</g>
</g>
<g clip-path="url(#a)">
<g transform="translate(1831.3 987.41) scale(.1 -.1)">
<use xlink:href="#c"/>
<use x="63.623047" xlink:href="#j"/>
<use x="95.410156" xlink:href="#q"/>
<use x="159.033203" xlink:href="#q"/>
</g>
</g>
<g clip-path="url(#a)">
<g transform="translate(1949.2 903.43) scale(.1 -.1)">
<use xlink:href="#c"/>
<use x="63.623047" xlink:href="#j"/>
<use x="95.410156" xlink:href="#q"/>
<use x="159.033203" xlink:href="#p"/>
</g>
</g>
<g clip-path="url(#a)">
<g transform="translate(1878.5 987.41) scale(.1 -.1)">
<use xlink:href="#c"/>
<use x="63.623047" xlink:href="#j"/>
<use x="95.410156" xlink:href="#q"/>
<use x="159.033203" xlink:href="#z"/>
</g>
</g>
<g clip-path="url(#a)">
<g transform="translate(1925.6 987.41) scale(.1 -.1)">
<use xlink:href="#c"/>
<use x="63.623047" xlink:href="#j"/>
<use x="95.410156" xlink:href="#q"/>
<use x="159.033203" xlink:href="#ae"/>
</g>
</g>
<g clip-path="url(#a)">
<g transform="translate(1972.8 987.41) scale(.1 -.1)">
<use xlink:href="#c"/>
<use x="63.623047" xlink:href="#j"/>
<use x="95.410156" xlink:href="#q"/>
<use x="159.033203" xlink:href="#ad"/>
</g>
</g>
<g clip-path="url(#a)">
<g transform="translate(887.75 903.43) scale(.1 -.1)">
<use xlink:href="#c"/>
<use x="63.623047" xlink:href="#j"/>
<use x="95.410156" xlink:href="#q"/>
<use x="159.033203" xlink:href="#ac"/>
</g>
</g>
<g clip-path="url(#a)">
<g transform="translate(887.75 987.41) scale(.1 -.1)">
<use xlink:href="#c"/>
<use x="63.623047" xlink:href="#j"/>
<use x="95.410156" xlink:href="#q"/>
<use x="159.033203" xlink:href="#ab"/>
</g>
</g>
<g clip-path="url(#a)">
<g transform="translate(1052.9 903.43) scale(.1 -.1)">
<use xlink:href="#c"/>
<use x="63.623047" xlink:href="#j"/>
<use x="95.410156" xlink:href="#p"/>
<use x="159.033203" xlink:href="#w"/>
</g>
</g>
<g clip-path="url(#a)">
<g transform="translate(982.1 987.41) scale(.1 -.1)">
<use xlink:href="#c"/>
<use x="63.623047" xlink:href="#j"/>
<use x="95.410156" xlink:href="#p"/>
<use x="159.033203" xlink:href="#c"/>
</g>
</g>
<g clip-path="url(#a)">
<g transform="translate(1029.3 987.41) scale(.1 -.1)">
<use xlink:href="#c"/>
<use x="63.623047" xlink:href="#j"/>
<use x="95.410156" xlink:href="#p"/>
<use x="159.033203" xlink:href="#m"/>
</g>
</g>
<g clip-path="url(#a)">
<g transform="translate(1076.5 987.41) scale(.1 -.1)">
<use xlink:href="#c"/>
<use x="63.623047" xlink:href="#j"/>
<use x="95.410156" xlink:href="#p"/>
<use x="159.033203" xlink:href="#q"/>
</g>
</g>
<g clip-path="url(#a)">
<g transform="translate(1123.6 987.41) scale(.1 -.1)">
<use xlink:href="#c"/>
<use x="63.623047" xlink:href="#j"/>
<use x="95.410156" xlink:href="#p"/>
<use x="159.033203" xlink:href="#p"/>
</g>
</g>
<g clip-path="url(#a)">
<g transform="translate(840.57 987.41) scale(.1 -.1)">
<use xlink:href="#c"/>
<use x="63.623047" xlink:href="#j"/>
<use x="95.410156" xlink:href="#p"/>
<use x="159.033203" xlink:href="#z"/>
</g>
</g>
<g clip-path="url(#a)">
<g transform="translate(934.92 987.41) scale(.1 -.1)">
<use xlink:href="#c"/>
<use x="63.623047" xlink:href="#j"/>
<use x="95.410156" xlink:href="#p"/>
<use x="159.033203" xlink:href="#ae"/>
</g>
</g>
<g clip-path="url(#a)">
<g transform="translate(227.26 987.41) scale(.1 -.1)">
<use xlink:href="#c"/>
<use x="63.623047" xlink:href="#j"/>
<use x="95.410156" xlink:href="#p"/>
<use x="159.033203" xlink:href="#ad"/>
</g>
</g>
<g clip-path="url(#a)">
<g transform="translate(298.03 987.41) scale(.1 -.1)">
<use xlink:href="#c"/>
<use x="63.623047" xlink:href="#j"/>
<use x="95.410156" xlink:href="#p"/>
<use x="159.033203" xlink:href="#ac"/>
</g>
</g>
<g clip-path="url(#a)">
<g transform="translate(793.39 987.41) scale(.1 -.1)">
<use xlink:href="#c"/>
<use x="63.623047" xlink:href="#j"/>
<use x="95.410156" xlink:href="#p"/>
<use x="159.033203" xlink:href="#ab"/>
</g>
</g>
<g clip-path="url(#a)">
<g transform="translate(2020 987.41) scale(.1 -.1)">
<use xlink:href="#c"/>
<use x="63.623047" xlink:href="#j"/>
<use x="95.410156" xlink:href="#z"/>
<use x="159.033203" xlink:href="#w"/>
</g>
</g>
<defs>
<clipPath id="a">
<rect width="2128" height="1120"/>
</clipPath>
</defs>
</svg>
