<?xml version="1.0" encoding="UTF-8"?>
<!DOCTYPE svg  PUBLIC '-//W3C//DTD SVG 1.1//EN'  'http://www.w3.org/Graphics/SVG/1.1/DTD/svg11.dtd'>
<svg width="1621.3pt" height="853.33pt" version="1.1" viewBox="0 0 1621.3 853.33" xmlns="http://www.w3.org/2000/svg" xmlns:xlink="http://www.w3.org/1999/xlink">
<defs>
<style type="text/css">*{stroke-linecap:butt;stroke-linejoin:round;}</style>
</defs>
<path d="m0 853.33h1621.3v-853.33h-1621.3z" fill="#fff"/>
<g fill="none" stroke="#000">
<path d="m580.42 39.563v118.09" clip-path="url(#a)"/>
<path d="m580.42 157.66-506.54 550.09" clip-path="url(#a)"/>
<path d="m580.42 157.66-460.5 550.09" clip-path="url(#a)"/>
<path d="m580.42 157.66-414.45 550.09" clip-path="url(#a)"/>
<path d="m580.42 157.66-153.5 114.92" clip-path="url(#a)"/>
<path d="m580.42 157.66 844.24 336.56" clip-path="url(#a)"/>
<path d="m580.42 157.66 690.74 550.09" clip-path="url(#a)"/>
<path d="m73.874 707.74v106.03" clip-path="url(#a)"/>
<path d="m119.92 707.74v106.03" clip-path="url(#a)"/>
<path d="m165.97 707.74v106.03" clip-path="url(#a)"/>
<path d="m426.92 272.58-214.9 435.17" clip-path="url(#a)"/>
<path d="m426.92 272.58-168.85 435.17" clip-path="url(#a)"/>
<path d="m426.92 272.58-122.8 435.17" clip-path="url(#a)"/>
<path d="m426.92 272.58-76.749 435.17" clip-path="url(#a)"/>
<path d="m426.92 272.58 23.025 329.14" clip-path="url(#a)"/>
<path d="m426.92 272.58 406.77 112.07" clip-path="url(#a)"/>
<path d="m426.92 272.58 153.5 435.17" clip-path="url(#a)"/>
<path d="m1424.7 494.22-84.424 107.5" clip-path="url(#a)"/>
<path d="m1424.7 494.22 7.6749 213.53" clip-path="url(#a)"/>
<path d="m1424.7 494.22 76.749 213.53" clip-path="url(#a)"/>
<path d="m1340.2 601.72-23.025 106.03" clip-path="url(#a)"/>
<path d="m1340.2 601.72 23.025 106.03" clip-path="url(#a)"/>
<path d="m1432.3 707.74-23.025 106.03" clip-path="url(#a)"/>
<path d="m1432.3 707.74 23.025 106.03" clip-path="url(#a)"/>
<path d="m1317.2 707.74v106.03" clip-path="url(#a)"/>
<path d="m1363.3 707.74v106.03" clip-path="url(#a)"/>
<path d="m212.02 707.74v106.03" clip-path="url(#a)"/>
<path d="m258.07 707.74v106.03" clip-path="url(#a)"/>
<path d="m304.12 707.74v106.03" clip-path="url(#a)"/>
<path d="m350.17 707.74v106.03" clip-path="url(#a)"/>
<path d="m449.95 601.72-53.724 106.03" clip-path="url(#a)"/>
<path d="m449.95 601.72 61.399 106.03" clip-path="url(#a)"/>
<path d="m449.95 601.72-7.6749 106.03" clip-path="url(#a)"/>
<path d="m833.69 384.65-207.22 323.1" clip-path="url(#a)"/>
<path d="m833.69 384.65-161.17 323.1" clip-path="url(#a)"/>
<path d="m833.69 384.65-115.12 323.1" clip-path="url(#a)"/>
<path d="m833.69 384.65v323.1" clip-path="url(#a)"/>
<path d="m833.69 384.65 287.81 109.57" clip-path="url(#a)"/>
<path d="m833.69 384.65 195.71 109.57" clip-path="url(#a)"/>
<path d="m626.47 707.74v106.03" clip-path="url(#a)"/>
<path d="m672.52 707.74v106.03" clip-path="url(#a)"/>
<path d="m718.57 707.74v106.03" clip-path="url(#a)"/>
<path d="m833.69 707.74-69.074 106.03" clip-path="url(#a)"/>
<path d="m833.69 707.74-23.025 106.03" clip-path="url(#a)"/>
<path d="m833.69 707.74 23.025 106.03" clip-path="url(#a)"/>
<path d="m833.69 707.74 69.074 106.03" clip-path="url(#a)"/>
<path d="m1121.5 494.22-287.81 213.53" clip-path="url(#a)" stroke-dasharray="3.7,1.6"/>
<path d="m1121.5 494.22 425.96 319.55" clip-path="url(#a)"/>
<path d="m1121.5 494.22-138.15 107.5" clip-path="url(#a)"/>
<path d="m1029.4 494.22-195.71 213.53" clip-path="url(#a)" stroke-dasharray="3.7,1.6"/>
<path d="m1029.4 494.22 57.562 213.53" clip-path="url(#a)"/>
<path d="m1029.4 494.22 138.15 107.5" clip-path="url(#a)"/>
<path d="m1087 707.74v106.03" clip-path="url(#a)"/>
<path d="m1167.6 601.72-34.537 106.03" clip-path="url(#a)"/>
<path d="m1167.6 601.72 34.537 106.03" clip-path="url(#a)"/>
<path d="m1133 707.74v106.03" clip-path="url(#a)"/>
<path d="m1202.1 707.74-23.025 106.03" clip-path="url(#a)"/>
<path d="m1202.1 707.74 23.025 106.03" clip-path="url(#a)"/>
<path d="m983.35 601.72-34.537 106.03" clip-path="url(#a)"/>
<path d="m983.35 601.72 34.537 106.03" clip-path="url(#a)"/>
<path d="m948.82 707.74v106.03" clip-path="url(#a)"/>
<path d="m1017.9 707.74-23.025 106.03" clip-path="url(#a)"/>
<path d="m1017.9 707.74 23.025 106.03" clip-path="url(#a)"/>
<path d="m396.22 707.74v106.03" clip-path="url(#a)"/>
<path d="m511.34 707.74-23.025 106.03" clip-path="url(#a)"/>
<path d="m511.34 707.74 23.025 106.03" clip-path="url(#a)"/>
<path d="m442.27 707.74v106.03" clip-path="url(#a)"/>
<path d="m580.42 707.74v106.03" clip-path="url(#a)"/>
<path d="m1271.2 707.74v106.03" clip-path="url(#a)"/>
<path d="m1501.4 707.74v106.03" clip-path="url(#a)"/>
</g>
<path d="m574.15 95.602v6.0162q0 2.4 2.4 2.4h7.7425q2.4 0 2.4-2.4v-6.0162q0-2.4-2.4-2.4h-7.7425q-2.4 0-2.4 2.4z" clip-path="url(#a)" fill="#fff" stroke="#fff"/>
<g clip-path="url(#a)">
<defs>
<path id="am" d="m9.8125 72.906h9.8594v-29.891h35.844v29.891h9.8594v-72.906h-9.8594v34.719h-35.844v-34.719h-9.8594z"/>
</defs>
<g transform="translate(578.21 95.602) rotate(90) scale(.08 -.08)">
<use xlink:href="#am"/>
</g>
</g>
<path d="m329.91 438.96 3.707-4.0257q1.6257-1.7655-0.13975-3.3912l-5.6955-5.2447q-1.7655-1.6257-3.3912 0.13975l-3.707 4.0257q-1.6257 1.7655 0.13975 3.3912l5.6955 5.2447q1.7655 1.6257 3.3912-0.13975z" clip-path="url(#a)" fill="#fff" stroke="#fff"/>
<g clip-path="url(#a)">
<defs>
<path id="u" d="m34.188 63.188-13.391-36.281h26.812zm-5.5781 9.7188h11.188l27.781-72.906h-10.25l-6.6406 18.703h-32.859l-6.6406-18.703h-10.406z"/>
</defs>
<g transform="translate(326.92 436.21) rotate(-47.36) scale(.08 -.08)">
<use xlink:href="#u"/>
</g>
</g>
<path d="m353 439.09 3.9541-4.7234q1.5406-1.8403-0.29972-3.3809l-5.9368-4.9699q-1.8403-1.5406-3.3809 0.29972l-3.9541 4.7234q-1.5406 1.8403 0.29972 3.3809l5.9368 4.9699q1.8403 1.5406 3.3809-0.29972z" clip-path="url(#a)" fill="#fff" stroke="#fff"/>
<g clip-path="url(#a)">
<defs>
<path id="ao" d="m19.672 64.797v-56.688h11.922q15.094 0 22.094 6.8281 7 6.8438 7 21.594 0 14.641-7 21.453t-22.094 6.8125zm-9.8594 8.1094h20.266q21.188 0 31.094-8.8125 9.9219-8.8125 9.9219-27.562 0-18.859-9.9688-27.703-9.9531-8.8281-31.047-8.8281h-20.266z"/>
</defs>
<g transform="translate(349.89 436.48) rotate(-50.066) scale(.08 -.08)">
<use xlink:href="#ao"/>
</g>
</g>
<path d="m376.75 438.4 2.9027-3.8527q1.4442-1.9168-0.47266-3.361l-6.1838-4.659q-1.9169-1.4442-3.361 0.47266l-2.9027 3.8527q-1.4442 1.9168 0.47266 3.361l6.1838 4.659q1.9168 1.4442 3.361-0.47266z" clip-path="url(#a)" fill="#fff" stroke="#fff"/>
<g clip-path="url(#a)">
<defs>
<path id="t" d="m19.672 64.797v-27.391h12.406q6.8906 0 10.641 3.5625 3.7656 3.5625 3.7656 10.156 0 6.5469-3.7656 10.109-3.75 3.5625-10.641 3.5625zm-9.8594 8.1094h22.266q12.266 0 18.531-5.5469 6.2812-5.5469 6.2812-16.234 0-10.797-6.2812-16.312-6.2656-5.5156-18.531-5.5156h-12.406v-29.297h-9.8594z"/>
</defs>
<g transform="translate(373.51 435.96) rotate(-53.005) scale(.08 -.08)">
<use xlink:href="#t"/>
</g>
</g>
<path d="m505.24 221.78 4.3808-3.2798q1.9212-1.4384 0.48285-3.3596l-4.6402-6.1979q-1.4384-1.9212-3.3596-0.48285l-4.3808 3.2798q-1.9212 1.4384-0.48285 3.3596l4.6402 6.1979q1.4384 1.9212 3.3596 0.48285z" clip-path="url(#a)" fill="#fff" stroke="#fff"/>
<g clip-path="url(#a)">
<g transform="translate(502.8 218.52) rotate(-36.821) scale(.08 -.08)">
<use xlink:href="#u"/>
</g>
</g>
<path d="m997.68 330.75 5.0834 2.0265q2.2294 0.88875 3.1181-1.3406l2.8671-7.1921q0.88875-2.2294-1.3406-3.1181l-5.0834-2.0265q-2.2294-0.88875-3.1181 1.3406l-2.8671 7.1921q-0.88875 2.2294 1.3406 3.1181z" clip-path="url(#a)" fill="#fff" stroke="#fff"/>
<g clip-path="url(#a)">
<g transform="translate(999.18 326.97) rotate(21.735) scale(.08 -.08)">
<use xlink:href="#u"/>
</g>
</g>
<path d="m919.59 435.78 4.5801 3.6474q1.8774 1.4951 3.3725-0.3823l4.8233-6.0566q1.4951-1.8774-0.3823-3.3725l-4.5801-3.6474q-1.8774-1.4951-3.3725 0.3823l-4.8233 6.0566q-1.4951 1.8774 0.3823 3.3725z" clip-path="url(#a)" fill="#fff" stroke="#fff"/>
<g clip-path="url(#a)">
<defs>
<path id="x" d="m8.6875 72.906h9.9219v-44.297q0-11.719 4.2344-16.875 4.25-5.1406 13.781-5.1406 9.4688 0 13.719 5.1406 4.25 5.1562 4.25 16.875v44.297h9.9062v-45.516q0-14.25-7.0625-21.531-7.0469-7.2812-20.812-7.2812-13.828 0-20.891 7.2812-7.0469 7.2812-7.0469 21.531z"/>
</defs>
<g transform="translate(922.13 432.6) rotate(38.533) scale(.08 -.08)">
<use xlink:href="#x"/>
</g>
</g>
<path d="m67.603 743.12v35.285q0 2.4 2.4 2.4h7.7425q2.4 0 2.4-2.4v-35.285q0-2.4-2.4-2.4h-7.7425q-2.4 0-2.4 2.4z" clip-path="url(#a)" fill="#fff" stroke="#fff"/>
<g clip-path="url(#a)">
<defs>
<path id="l" d="m-0.29688 72.906h61.672v-8.3125h-25.875v-64.594h-9.9062v64.594h-25.891z"/>
<path id="d" d="m56.203 29.594v-4.3906h-41.312q0.59375-9.2812 5.5938-14.141t13.938-4.8594q5.1719 0 10.031 1.2656t9.6562 3.8125v-8.5q-4.8438-2.0469-9.9219-3.125t-10.297-1.0781q-13.094 0-20.734 7.6094-7.6406 7.625-7.6406 20.625 0 13.422 7.25 21.297 7.25 7.8906 19.562 7.8906 11.031 0 17.453-7.1094 6.4219-7.0938 6.4219-19.297zm-8.9844 2.6406q-0.09375 7.3594-4.125 11.75-4.0312 4.4062-10.672 4.4062-7.5156 0-12.031-4.25t-5.2031-11.969z"/>
<path id="h" d="m41.109 46.297q-1.5156 0.875-3.2969 1.2812-1.7812 0.42188-3.9219 0.42188-7.625 0-11.703-4.9531t-4.0781-14.234v-28.812h-9.0312v54.688h9.0312v-8.5q2.8438 4.9844 7.375 7.3906 4.5469 2.4219 11.047 2.4219 0.92188 0 2.0469-0.125 1.125-0.10938 2.4844-0.35938z"/>
<path id="k" d="m52 44.188q3.375 6.0625 8.0625 8.9375t11.031 2.875q8.5469 0 13.188-5.9844 4.6406-5.9688 4.6406-17v-33.016h-9.0312v32.719q0 7.8594-2.7969 11.656-2.7812 3.8125-8.4844 3.8125-6.9844 0-11.047-4.6406-4.0469-4.625-4.0469-12.641v-30.906h-9.0312v32.719q0 7.9062-2.7812 11.688t-8.5938 3.7812q-6.8906 0-10.953-4.6562-4.0469-4.6562-4.0469-12.625v-30.906h-9.0312v54.688h9.0312v-8.5q3.0781 5.0312 7.375 7.4219t10.203 2.3906q5.9688 0 10.141-3.0312 4.1719-3.0156 6.1719-8.7812z"/>
<path id="g" d="m9.4219 54.688h8.9844v-54.688h-8.9844zm0 21.297h8.9844v-11.391h-8.9844z"/>
<path id="f" d="m54.891 33.016v-33.016h-8.9844v32.719q0 7.7656-3.0312 11.609-3.0312 3.8594-9.0781 3.8594-7.2812 0-11.484-4.6406-4.2031-4.625-4.2031-12.641v-30.906h-9.0312v54.688h9.0312v-8.5q3.2344 4.9375 7.5938 7.375 4.375 2.4375 10.094 2.4375 9.4219 0 14.25-5.8281 4.8438-5.8281 4.8438-17.156z"/>
<path id="e" d="m34.281 27.484q-10.891 0-15.094-2.4844t-4.2031-8.5q0-4.7812 3.1562-7.5938 3.1562-2.7969 8.5625-2.7969 7.4844 0 12 5.2969t4.5156 14.078v2zm17.922 3.7188v-31.203h-8.9844v8.2969q-3.0781-4.9688-7.6719-7.3438t-11.234-2.375q-8.3906 0-13.359 4.7188-4.9531 4.7188-4.9531 12.625 0 9.2188 6.1719 13.906 6.1875 4.6875 18.438 4.6875h12.609v0.89062q0 6.2031-4.0781 9.5938t-11.453 3.3906q-4.6875 0-9.1406-1.125-4.4375-1.125-8.5312-3.375v8.3125q4.9219 1.9062 9.5625 2.8438 4.6406 0.95312 9.0312 0.95312 11.875 0 17.734-6.1562 5.8594-6.1406 5.8594-18.641z"/>
<path id="i" d="m9.4219 75.984h8.9844v-75.984h-8.9844z"/>
</defs>
<g transform="translate(71.667 743.12) rotate(90) scale(.08 -.08)">
<use xlink:href="#l"/>
<use x="60.818359" xlink:href="#d"/>
<use x="122.341797" xlink:href="#h"/>
<use x="163.439453" xlink:href="#k"/>
<use x="260.851562" xlink:href="#g"/>
<use x="288.634766" xlink:href="#f"/>
<use x="352.013672" xlink:href="#e"/>
<use x="413.292969" xlink:href="#i"/>
</g>
</g>
<path d="m113.65 743.12v35.285q0 2.4 2.4 2.4h7.7425q2.4 0 2.4-2.4v-35.285q0-2.4-2.4-2.4h-7.7425q-2.4 0-2.4 2.4z" clip-path="url(#a)" fill="#fff" stroke="#fff"/>
<g clip-path="url(#a)">
<g transform="translate(117.72 743.12) rotate(90) scale(.08 -.08)">
<use xlink:href="#l"/>
<use x="60.818359" xlink:href="#d"/>
<use x="122.341797" xlink:href="#h"/>
<use x="163.439453" xlink:href="#k"/>
<use x="260.851562" xlink:href="#g"/>
<use x="288.634766" xlink:href="#f"/>
<use x="352.013672" xlink:href="#e"/>
<use x="413.292969" xlink:href="#i"/>
</g>
</g>
<path d="m159.7 743.12v35.285q0 2.4 2.4 2.4h7.7425q2.4 0 2.4-2.4v-35.285q0-2.4-2.4-2.4h-7.7425q-2.4 0-2.4 2.4z" clip-path="url(#a)" fill="#fff" stroke="#fff"/>
<g clip-path="url(#a)">
<g transform="translate(163.77 743.12) rotate(90) scale(.08 -.08)">
<use xlink:href="#l"/>
<use x="60.818359" xlink:href="#d"/>
<use x="122.341797" xlink:href="#h"/>
<use x="163.439453" xlink:href="#k"/>
<use x="260.851562" xlink:href="#g"/>
<use x="288.634766" xlink:href="#f"/>
<use x="352.013672" xlink:href="#e"/>
<use x="413.292969" xlink:href="#i"/>
</g>
</g>
<path d="m323.86 495.43 2.4613-4.9841q1.0627-2.1519-1.0892-3.2146l-6.9422-3.4282q-2.1519-1.0627-3.2146 1.0892l-2.4613 4.9841q-1.0627 2.1519 1.0892 3.2146l6.9422 3.4282q2.1519 1.0627 3.2146-1.0892z" clip-path="url(#a)" fill="#fff" stroke="#fff"/>
<g clip-path="url(#a)">
<defs>
<path id="s" d="m44.391 34.188q3.1719-1.0781 6.1719-4.5938t6.0312-9.6719l10.016-19.922h-10.609l-9.3125 18.703q-3.625 7.3281-7.0156 9.7188t-9.25 2.3906h-10.75v-30.812h-9.8594v72.906h22.266q12.5 0 18.656-5.2344 6.1562-5.2188 6.1562-15.766 0-6.8906-3.2031-11.438-3.2031-4.5312-9.2969-6.2812zm-24.719 30.609v-25.875h12.406q7.125 0 10.766 3.2969t3.6406 9.6875-3.6406 9.6406-10.766 3.25z"/>
</defs>
<g transform="translate(320.22 493.63) rotate(-63.719) scale(.08 -.08)">
<use xlink:href="#s"/>
</g>
</g>
<path d="m347.43 494.79 1.8286-4.7127q0.86816-2.2375-1.3693-3.1056l-7.2182-2.8007q-2.2375-0.86816-3.1056 1.3693l-1.8286 4.7127q-0.86816 2.2375 1.3693 3.1056l7.2182 2.8007q2.2375 0.86816 3.1056-1.3693z" clip-path="url(#a)" fill="#fff" stroke="#fff"/>
<g clip-path="url(#a)">
<defs>
<path id="r" d="m9.8125 72.906h46.094v-8.3125h-36.234v-21.578h34.719v-8.2969h-34.719v-26.422h37.109v-8.2969h-46.969z"/>
</defs>
<g transform="translate(343.64 493.32) rotate(-68.793) scale(.08 -.08)">
<use xlink:href="#r"/>
</g>
</g>
<path d="m370.87 494.3 1.3728-4.865q0.6518-2.3098-1.658-2.9616l-7.4515-2.1027q-2.3098-0.6518-2.9616 1.658l-1.3728 4.865q-0.6518 2.3098 1.658 2.9616l7.4515 2.1027q2.3098 0.6518 2.9616-1.658z" clip-path="url(#a)" fill="#fff" stroke="#fff"/>
<g clip-path="url(#a)">
<g transform="translate(366.96 493.19) rotate(-74.242) scale(.08 -.08)">
<use xlink:href="#r"/>
</g>
</g>
<path d="m394.24 494 0.97026-5.5013q0.41685-2.3635-1.9467-2.7804l-7.6248-1.3448q-2.3635-0.41685-2.7804 1.9467l-0.97026 5.5013q-0.41685 2.3635 1.9467 2.7804l7.6248 1.3448q2.3635 0.41685 2.7804-1.9467z" clip-path="url(#a)" fill="#fff" stroke="#fff"/>
<g clip-path="url(#a)">
<defs>
<path id="p" d="m64.406 67.281v-10.391q-4.9844 4.6406-10.625 6.9219-5.6406 2.2969-11.984 2.2969-12.5 0-19.141-7.6406t-6.6406-22.094q0-14.406 6.6406-22.047t19.141-7.6406q6.3438 0 11.984 2.2969t10.625 6.9375v-10.312q-5.1719-3.5156-10.969-5.2812-5.7812-1.75-12.219-1.75-16.562 0-26.094 10.125-9.5156 10.141-9.5156 27.672 0 17.578 9.5156 27.703 9.5312 10.141 26.094 10.141 6.5312 0 12.312-1.7344 5.7969-1.7344 10.875-5.2031z"/>
</defs>
<g transform="translate(390.23 493.3) rotate(-79.998) scale(.08 -.08)">
<use xlink:href="#p"/>
</g>
</g>
<path d="m432 435.06 0.35276 5.0427q0.16748 2.3941 2.5616 2.2267l7.7236-0.5403q2.3941-0.16748 2.2267-2.5616l-0.35276-5.0427q-0.16748-2.3941-2.5616-2.2267l-7.7236 0.5403q-2.3942 0.16748-2.2267 2.5616z" clip-path="url(#a)" fill="#fff" stroke="#fff"/>
<g clip-path="url(#a)">
<g transform="translate(436.05 434.78) rotate(85.998) scale(.08 -.08)">
<use xlink:href="#r"/>
</g>
</g>
<path d="m626.2 333.99 4.8734 1.3427q2.3138 0.63746 2.9513-1.6763l2.0565-7.4644q0.63746-2.3138-1.6763-2.9513l-4.8734-1.3427q-2.3138-0.63746-2.9513 1.6763l-2.0565 7.4644q-0.63746 2.3138 1.6763 2.9513z" clip-path="url(#a)" fill="#fff" stroke="#fff"/>
<g clip-path="url(#a)">
<g transform="translate(627.28 330.07) rotate(15.403) scale(.08 -.08)">
<use xlink:href="#r"/>
</g>
</g>
<path d="m496.78 489.49 1.9476 5.5216q0.79835 2.2633 3.0617 1.465l7.3016-2.5755q2.2633-0.79835 1.465-3.0617l-1.9476-5.5216q-0.79835-2.2633-3.0617-1.465l-7.3016 2.5755q-2.2633 0.79835-1.465 3.0617z" clip-path="url(#a)" fill="#fff" stroke="#fff"/>
<g clip-path="url(#a)">
<g transform="translate(500.61 488.13) rotate(70.57) scale(.08 -.08)">
<use xlink:href="#x"/>
</g>
</g>
<path d="m1385.7 554.03 3.4333-4.3718q1.4823-1.8875-0.40519-3.3698l-6.0892-4.782q-1.8875-1.4823-3.3698 0.40519l-3.4333 4.3718q-1.4823 1.8875 0.40519 3.3698l6.0892 4.782q1.8875 1.4823 3.3698-0.40519z" clip-path="url(#a)" fill="#fff" stroke="#fff"/>
<g clip-path="url(#a)">
<g transform="translate(1382.5 551.52) rotate(-51.856) scale(.08 -.08)">
<use xlink:href="#s"/>
</g>
</g>
<path d="m1422.1 598.41 0.20066 5.5826q0.086208 2.3985 2.4847 2.3122l7.7375-0.27811q2.3985-0.086209 2.3122-2.4847l-0.20066-5.5826q-0.086209-2.3985-2.4847-2.3122l-7.7375 0.27811q-2.3985 0.086209-2.3122 2.4847z" clip-path="url(#a)" fill="#fff" stroke="#fff"/>
<g clip-path="url(#a)">
<g transform="translate(1426.2 598.27) rotate(87.941) scale(.08 -.08)">
<use xlink:href="#p"/>
</g>
</g>
<path d="m1456.1 600.35 1.9804 5.5099q0.8118 2.2585 3.0703 1.4467l7.2861-2.6189q2.2585-0.8118 1.4467-3.0703l-1.9804-5.5099q-0.8118-2.2585-3.0703-1.4467l-7.2861 2.6189q-2.2585 0.8118-1.4467 3.0703z" clip-path="url(#a)" fill="#fff" stroke="#fff"/>
<g clip-path="url(#a)">
<g transform="translate(1460 598.97) rotate(70.23) scale(.08 -.08)">
<use xlink:href="#x"/>
</g>
</g>
<path d="m1334.3 658.79 1.1855-5.459q0.50932-2.3453-1.836-2.8546l-7.5661-1.6431q-2.3453-0.50932-2.8547 1.836l-1.1855 5.459q-0.50932 2.3453 1.836 2.8547l7.5662 1.6431q2.3453 0.50932 2.8546-1.836z" clip-path="url(#a)" fill="#fff" stroke="#fff"/>
<g clip-path="url(#a)">
<g transform="translate(1330.3 657.93) rotate(-77.748) scale(.08 -.08)">
<use xlink:href="#p"/>
</g>
</g>
<path d="m1345.1 653.81 0.97645 4.4964q0.50932 2.3453 2.8546 1.836l7.5662-1.6431q2.3453-0.50932 1.836-2.8547l-0.97645-4.4964q-0.50932-2.3453-2.8547-1.836l-7.5662 1.6431q-2.3453 0.50932-1.836 2.8547z" clip-path="url(#a)" fill="#fff" stroke="#fff"/>
<g clip-path="url(#a)">
<defs>
<path id="an" d="m9.8125 72.906h41.891v-8.3125h-32.031v-21.484h28.906v-8.2969h-28.906v-34.812h-9.8594z"/>
</defs>
<g transform="translate(1349.1 652.95) rotate(77.748) scale(.08 -.08)">
<use xlink:href="#an"/>
</g>
</g>
<path d="m1423.2 779.33 7.488-34.481q0.50932-2.3453-1.836-2.8546l-7.5662-1.6431q-2.3453-0.50932-2.8546 1.836l-7.488 34.481q-0.50932 2.3453 1.836 2.8547l7.5661 1.6431q2.3453 0.50932 2.8547-1.836z" clip-path="url(#a)" fill="#fff" stroke="#fff"/>
<g clip-path="url(#a)">
<g transform="translate(1419.2 778.47) rotate(-77.748) scale(.08 -.08)">
<use xlink:href="#l"/>
<use x="60.818359" xlink:href="#d"/>
<use x="122.341797" xlink:href="#h"/>
<use x="163.439453" xlink:href="#k"/>
<use x="260.851562" xlink:href="#g"/>
<use x="288.634766" xlink:href="#f"/>
<use x="352.013672" xlink:href="#e"/>
<use x="413.292969" xlink:href="#i"/>
</g>
</g>
<path d="m1434 744.85 7.488 34.481q0.50932 2.3453 2.8547 1.836l7.5662-1.6431q2.3453-0.50932 1.836-2.8547l-7.488-34.481q-0.50932-2.3453-2.8547-1.836l-7.5661 1.6431q-2.3453 0.50932-1.836 2.8546z" clip-path="url(#a)" fill="#fff" stroke="#fff"/>
<g clip-path="url(#a)">
<g transform="translate(1437.9 743.99) rotate(77.748) scale(.08 -.08)">
<use xlink:href="#l"/>
<use x="60.818359" xlink:href="#d"/>
<use x="122.341797" xlink:href="#h"/>
<use x="163.439453" xlink:href="#k"/>
<use x="260.851562" xlink:href="#g"/>
<use x="288.634766" xlink:href="#f"/>
<use x="352.013672" xlink:href="#e"/>
<use x="413.292969" xlink:href="#i"/>
</g>
</g>
<path d="m1310.9 743.12v35.285q0 2.4 2.4 2.4h7.7425q2.4 0 2.4-2.4v-35.285q0-2.4-2.4-2.4h-7.7425q-2.4 0-2.4 2.4z" clip-path="url(#a)" fill="#fff" stroke="#fff"/>
<g clip-path="url(#a)">
<g transform="translate(1315 743.12) rotate(90) scale(.08 -.08)">
<use xlink:href="#l"/>
<use x="60.818359" xlink:href="#d"/>
<use x="122.341797" xlink:href="#h"/>
<use x="163.439453" xlink:href="#k"/>
<use x="260.851562" xlink:href="#g"/>
<use x="288.634766" xlink:href="#f"/>
<use x="352.013672" xlink:href="#e"/>
<use x="413.292969" xlink:href="#i"/>
</g>
</g>
<path d="m1357 743.12v35.285q0 2.4 2.4 2.4h7.7425q2.4 0 2.4-2.4v-35.285q0-2.4-2.4-2.4h-7.7425q-2.4 0-2.4 2.4z" clip-path="url(#a)" fill="#fff" stroke="#fff"/>
<g clip-path="url(#a)">
<g transform="translate(1361.1 743.12) rotate(90) scale(.08 -.08)">
<use xlink:href="#l"/>
<use x="60.818359" xlink:href="#d"/>
<use x="122.341797" xlink:href="#h"/>
<use x="163.439453" xlink:href="#k"/>
<use x="260.851562" xlink:href="#g"/>
<use x="288.634766" xlink:href="#f"/>
<use x="352.013672" xlink:href="#e"/>
<use x="413.292969" xlink:href="#i"/>
</g>
</g>
<path d="m205.75 743.12v35.285q0 2.4 2.4 2.4h7.7425q2.4 0 2.4-2.4v-35.285q0-2.4-2.4-2.4h-7.7425q-2.4 0-2.4 2.4z" clip-path="url(#a)" fill="#fff" stroke="#fff"/>
<g clip-path="url(#a)">
<g transform="translate(209.82 743.12) rotate(90) scale(.08 -.08)">
<use xlink:href="#l"/>
<use x="60.818359" xlink:href="#d"/>
<use x="122.341797" xlink:href="#h"/>
<use x="163.439453" xlink:href="#k"/>
<use x="260.851562" xlink:href="#g"/>
<use x="288.634766" xlink:href="#f"/>
<use x="352.013672" xlink:href="#e"/>
<use x="413.292969" xlink:href="#i"/>
</g>
</g>
<path d="m251.8 743.12v35.285q0 2.4 2.4 2.4h7.7425q2.4 0 2.4-2.4v-35.285q0-2.4-2.4-2.4h-7.7425q-2.4 0-2.4 2.4z" clip-path="url(#a)" fill="#fff" stroke="#fff"/>
<g clip-path="url(#a)">
<g transform="translate(255.86 743.12) rotate(90) scale(.08 -.08)">
<use xlink:href="#l"/>
<use x="60.818359" xlink:href="#d"/>
<use x="122.341797" xlink:href="#h"/>
<use x="163.439453" xlink:href="#k"/>
<use x="260.851562" xlink:href="#g"/>
<use x="288.634766" xlink:href="#f"/>
<use x="352.013672" xlink:href="#e"/>
<use x="413.292969" xlink:href="#i"/>
</g>
</g>
<path d="m297.85 743.12v35.285q0 2.4 2.4 2.4h7.7425q2.4 0 2.4-2.4v-35.285q0-2.4-2.4-2.4h-7.7425q-2.4 0-2.4 2.4z" clip-path="url(#a)" fill="#fff" stroke="#fff"/>
<g clip-path="url(#a)">
<g transform="translate(301.91 743.12) rotate(90) scale(.08 -.08)">
<use xlink:href="#l"/>
<use x="60.818359" xlink:href="#d"/>
<use x="122.341797" xlink:href="#h"/>
<use x="163.439453" xlink:href="#k"/>
<use x="260.851562" xlink:href="#g"/>
<use x="288.634766" xlink:href="#f"/>
<use x="352.013672" xlink:href="#e"/>
<use x="413.292969" xlink:href="#i"/>
</g>
</g>
<path d="m343.9 743.12v35.285q0 2.4 2.4 2.4h7.7425q2.4 0 2.4-2.4v-35.285q0-2.4-2.4-2.4h-7.7425q-2.4 0-2.4 2.4z" clip-path="url(#a)" fill="#fff" stroke="#fff"/>
<g clip-path="url(#a)">
<g transform="translate(347.96 743.12) rotate(90) scale(.08 -.08)">
<use xlink:href="#l"/>
<use x="60.818359" xlink:href="#d"/>
<use x="122.341797" xlink:href="#h"/>
<use x="163.439453" xlink:href="#k"/>
<use x="260.851562" xlink:href="#g"/>
<use x="288.634766" xlink:href="#f"/>
<use x="352.013672" xlink:href="#e"/>
<use x="413.292969" xlink:href="#i"/>
</g>
</g>
<path d="m427.42 660.05 2.5125-4.9585q1.0848-2.1408-1.0561-3.2256l-6.9065-3.4996q-2.1408-1.0848-3.2256 1.0561l-2.5125 4.9585q-1.0848 2.1408 1.0561 3.2256l6.9065 3.4996q2.1408 1.0848 3.2256-1.0561z" clip-path="url(#a)" fill="#fff" stroke="#fff"/>
<g clip-path="url(#a)">
<g transform="translate(423.8 658.21) rotate(-63.128) scale(.08 -.08)">
<use xlink:href="#s"/>
</g>
</g>
<path d="m473.82 655.46 2.7995 4.8342q1.2027 2.0769 3.2796 0.87417l6.7001-3.88q2.0769-1.2027 0.87417-3.2796l-2.7995-4.8342q-1.2027-2.0769-3.2796-0.87417l-6.7001 3.88q-2.0769 1.2027-0.87417 3.2796z" clip-path="url(#a)" fill="#fff" stroke="#fff"/>
<g clip-path="url(#a)">
<g transform="translate(477.33 653.42) rotate(59.925) scale(.08 -.08)">
<use xlink:href="#p"/>
</g>
</g>
<path d="m452.15 658.1 0.42272-5.8397q0.17328-2.3937-2.2205-2.567l-7.7223-0.55899q-2.3937-0.17328-2.567 2.2205l-0.42272 5.8397q-0.17328 2.3937 2.2205 2.567l7.7223 0.55899q2.3937 0.17328 2.567-2.2205z" clip-path="url(#a)" fill="#fff" stroke="#fff"/>
<g clip-path="url(#a)">
<g transform="translate(448.1 657.81) rotate(-85.86) scale(.08 -.08)">
<use xlink:href="#x"/>
</g>
</g>
<path d="m733.86 551.92 3.001-4.6791q1.2957-2.0202-0.72452-3.3159l-6.5173-4.1799q-2.0202-1.2957-3.3159 0.72452l-3.001 4.6791q-1.2957 2.0202 0.72452 3.3159l6.5173 4.1799q2.0202 1.2957 3.3159-0.72452z" clip-path="url(#a)" fill="#fff" stroke="#fff"/>
<g clip-path="url(#a)">
<g transform="translate(730.44 549.73) rotate(-57.325) scale(.08 -.08)">
<use xlink:href="#s"/>
</g>
</g>
<path d="m757.59 551.26 2.2565-4.5234q1.0713-2.1476-1.0763-3.2189l-6.9283-3.4561q-2.1476-1.0713-3.2189 1.0763l-2.2565 4.5234q-1.0713 2.1476 1.0763 3.2189l6.9283 3.4561q2.1476 1.0713 3.2189-1.0763z" clip-path="url(#a)" fill="#fff" stroke="#fff"/>
<g clip-path="url(#a)">
<g transform="translate(753.95 549.44) rotate(-63.488) scale(.08 -.08)">
<use xlink:href="#r"/>
</g>
</g>
<path d="m781.19 550.68 1.6967-4.7618q0.80554-2.2608-1.4552-3.0663l-7.2934-2.5987q-2.2608-0.80554-3.0663 1.4552l-1.6967 4.7618q-0.80554 2.2608 1.4552 3.0663l7.2934 2.5987q2.2608 0.80554 3.0663-1.4552z" clip-path="url(#a)" fill="#fff" stroke="#fff"/>
<g clip-path="url(#a)">
<g transform="translate(777.36 549.32) rotate(-70.388) scale(.08 -.08)">
<use xlink:href="#r"/>
</g>
</g>
<path d="m827.42 543.4v5.5862q0 2.4 2.4 2.4h7.7425q2.4 0 2.4-2.4v-5.5862q0-2.4-2.4-2.4h-7.7425q-2.4 0-2.4 2.4z" clip-path="url(#a)" fill="#fff" stroke="#fff"/>
<g clip-path="url(#a)">
<g transform="translate(831.48 543.4) rotate(90) scale(.08 -.08)">
<use xlink:href="#p"/>
</g>
</g>
<path d="m973 444.39 4.7242 1.7985q2.243 0.85391 3.0969-1.389l2.7547-7.2359q0.85391-2.243-1.389-3.0969l-4.7242-1.7985q-2.243-0.85391-3.0969 1.389l-2.7547 7.2359q-0.85391 2.243 1.389 3.0969z" clip-path="url(#a)" fill="#fff" stroke="#fff"/>
<g clip-path="url(#a)">
<g transform="translate(974.45 440.6) rotate(20.842) scale(.08 -.08)">
<use xlink:href="#r"/>
</g>
</g>
<path d="m926.28 443.67 4.4108 2.4694q2.0941 1.1724 3.2666-0.9217l3.7823-6.7558q1.1724-2.0941-0.9217-3.2666l-4.4108-2.4694q-2.0941-1.1724-3.2666 0.9217l-3.7823 6.7558q-1.1724 2.0941 0.9217 3.2666z" clip-path="url(#a)" fill="#fff" stroke="#fff"/>
<g clip-path="url(#a)">
<g transform="translate(928.26 440.12) rotate(29.243) scale(.08 -.08)">
<use xlink:href="#r"/>
</g>
</g>
<path d="m620.2 743.12v35.285q0 2.4 2.4 2.4h7.7425q2.4 0 2.4-2.4v-35.285q0-2.4-2.4-2.4h-7.7425q-2.4 0-2.4 2.4z" clip-path="url(#a)" fill="#fff" stroke="#fff"/>
<g clip-path="url(#a)">
<g transform="translate(624.26 743.12) rotate(90) scale(.08 -.08)">
<use xlink:href="#l"/>
<use x="60.818359" xlink:href="#d"/>
<use x="122.341797" xlink:href="#h"/>
<use x="163.439453" xlink:href="#k"/>
<use x="260.851562" xlink:href="#g"/>
<use x="288.634766" xlink:href="#f"/>
<use x="352.013672" xlink:href="#e"/>
<use x="413.292969" xlink:href="#i"/>
</g>
</g>
<path d="m666.25 743.12v35.285q0 2.4 2.4 2.4h7.7425q2.4 0 2.4-2.4v-35.285q0-2.4-2.4-2.4h-7.7425q-2.4 0-2.4 2.4z" clip-path="url(#a)" fill="#fff" stroke="#fff"/>
<g clip-path="url(#a)">
<g transform="translate(670.31 743.12) rotate(90) scale(.08 -.08)">
<use xlink:href="#l"/>
<use x="60.818359" xlink:href="#d"/>
<use x="122.341797" xlink:href="#h"/>
<use x="163.439453" xlink:href="#k"/>
<use x="260.851562" xlink:href="#g"/>
<use x="288.634766" xlink:href="#f"/>
<use x="352.013672" xlink:href="#e"/>
<use x="413.292969" xlink:href="#i"/>
</g>
</g>
<path d="m712.3 743.12v35.285q0 2.4 2.4 2.4h7.7425q2.4 0 2.4-2.4v-35.285q0-2.4-2.4-2.4h-7.7425q-2.4 0-2.4 2.4z" clip-path="url(#a)" fill="#fff" stroke="#fff"/>
<g clip-path="url(#a)">
<g transform="translate(716.36 743.12) rotate(90) scale(.08 -.08)">
<use xlink:href="#l"/>
<use x="60.818359" xlink:href="#d"/>
<use x="122.341797" xlink:href="#h"/>
<use x="163.439453" xlink:href="#k"/>
<use x="260.851562" xlink:href="#g"/>
<use x="288.634766" xlink:href="#f"/>
<use x="352.013672" xlink:href="#e"/>
<use x="413.292969" xlink:href="#i"/>
</g>
</g>
<path d="m794.78 778.96 19.261-29.564q1.3101-2.0109-0.70083-3.321l-6.4873-4.2263q-2.0109-1.3101-3.321 0.70083l-19.261 29.564q-1.3101 2.0109 0.70083 3.321l6.4872 4.2263q2.0109 1.3101 3.321-0.70083z" clip-path="url(#a)" fill="#fff" stroke="#fff"/>
<g clip-path="url(#a)">
<g transform="translate(791.37 776.74) rotate(-56.916) scale(.08 -.08)">
<use xlink:href="#l"/>
<use x="60.818359" xlink:href="#d"/>
<use x="122.341797" xlink:href="#h"/>
<use x="163.439453" xlink:href="#k"/>
<use x="260.851562" xlink:href="#g"/>
<use x="288.634766" xlink:href="#f"/>
<use x="352.013672" xlink:href="#e"/>
<use x="413.292969" xlink:href="#i"/>
</g>
</g>
<path d="m824.56 779.33 7.488-34.481q0.50932-2.3453-1.836-2.8546l-7.5662-1.6431q-2.3453-0.50932-2.8546 1.836l-7.488 34.481q-0.50932 2.3453 1.836 2.8547l7.5662 1.6431q2.3453 0.50932 2.8546-1.836z" clip-path="url(#a)" fill="#fff" stroke="#fff"/>
<g clip-path="url(#a)">
<g transform="translate(820.59 778.47) rotate(-77.748) scale(.08 -.08)">
<use xlink:href="#l"/>
<use x="60.818359" xlink:href="#d"/>
<use x="122.341797" xlink:href="#h"/>
<use x="163.439453" xlink:href="#k"/>
<use x="260.851562" xlink:href="#g"/>
<use x="288.634766" xlink:href="#f"/>
<use x="352.013672" xlink:href="#e"/>
<use x="413.292969" xlink:href="#i"/>
</g>
</g>
<path d="m835.33 744.85 7.488 34.481q0.50932 2.3453 2.8546 1.836l7.5662-1.6431q2.3453-0.50932 1.836-2.8547l-7.488-34.481q-0.50932-2.3453-2.8547-1.836l-7.5661 1.6431q-2.3453 0.50932-1.836 2.8546z" clip-path="url(#a)" fill="#fff" stroke="#fff"/>
<g clip-path="url(#a)">
<g transform="translate(839.3 743.99) rotate(77.748) scale(.08 -.08)">
<use xlink:href="#l"/>
<use x="60.818359" xlink:href="#d"/>
<use x="122.341797" xlink:href="#h"/>
<use x="163.439453" xlink:href="#k"/>
<use x="260.851562" xlink:href="#g"/>
<use x="288.634766" xlink:href="#f"/>
<use x="352.013672" xlink:href="#e"/>
<use x="413.292969" xlink:href="#i"/>
</g>
</g>
<path d="m853.34 749.4 19.261 29.564q1.3101 2.0109 3.321 0.70083l6.4873-4.2263q2.0109-1.3101 0.70083-3.321l-19.261-29.564q-1.3101-2.0109-3.321-0.70083l-6.4873 4.2263q-2.0109 1.3101-0.70083 3.321z" clip-path="url(#a)" fill="#fff" stroke="#fff"/>
<g clip-path="url(#a)">
<g transform="translate(856.75 747.18) rotate(56.916) scale(.08 -.08)">
<use xlink:href="#l"/>
<use x="60.818359" xlink:href="#d"/>
<use x="122.341797" xlink:href="#h"/>
<use x="163.439453" xlink:href="#k"/>
<use x="260.851562" xlink:href="#g"/>
<use x="288.634766" xlink:href="#f"/>
<use x="352.013672" xlink:href="#e"/>
<use x="413.292969" xlink:href="#i"/>
</g>
</g>
<path d="m979.14 607.65 4.395-3.2607q1.9275-1.43 0.49747-3.3575l-4.6132-6.2181q-1.43-1.9275-3.3575-0.49747l-4.395 3.2607q-1.9275 1.43-0.49747 3.3575l4.6132 6.2181q1.43 1.9275 3.3575 0.49747z" clip-path="url(#a)" fill="#fff" stroke="#fff"/>
<g clip-path="url(#a)">
<g transform="translate(976.71 604.38) rotate(-36.572) scale(.08 -.08)">
<use xlink:href="#u"/>
</g>
</g>
<path d="m1328.8 657.56 3.8586 2.8947q1.9198 1.4402 3.3601-0.47957l4.6463-6.1934q1.4402-1.9198-0.47957-3.3601l-3.8586-2.8947q-1.9198-1.4402-3.3601 0.47957l-4.6463 6.1934q-1.4402 1.9198 0.47957 3.3601z" clip-path="url(#a)" fill="#fff" stroke="#fff"/>
<g clip-path="url(#a)">
<g transform="translate(1331.2 654.31) rotate(36.877) scale(.08 -.08)">
<use xlink:href="#t"/>
</g>
</g>
<path d="m1054.1 554.6 4.3189-3.3608q1.8941-1.4739 0.42019-3.368l-4.7549-6.1104q-1.4739-1.8941-3.368-0.42019l-4.3189 3.3608q-1.8941 1.4739-0.42019 3.368l4.7549 6.1104q1.4739 1.8941 3.368 0.42019z" clip-path="url(#a)" fill="#fff" stroke="#fff"/>
<g clip-path="url(#a)">
<g transform="translate(1051.6 551.39) rotate(-37.889) scale(.08 -.08)">
<use xlink:href="#u"/>
</g>
</g>
<path d="m934.32 607.24 3.6977-4.0343q1.6216-1.7693-0.14763-3.3909l-5.7077-5.2315q-1.7693-1.6216-3.3909 0.14763l-3.6977 4.0343q-1.6216 1.7693 0.14763 3.3909l5.7077 5.2315q1.7693 1.6216 3.3909-0.14763z" clip-path="url(#a)" fill="#fff" stroke="#fff"/>
<g clip-path="url(#a)">
<g transform="translate(931.33 604.49) rotate(-47.493) scale(.08 -.08)">
<use xlink:href="#u"/>
</g>
</g>
<path d="m1051.5 600.28 1.2555 4.6575q0.62468 2.3173 2.942 1.6926l7.4756-2.0153q2.3173-0.62468 1.6926-2.942l-1.2555-4.6575q-0.62468-2.3173-2.942-1.6926l-7.4756 2.0153q-2.3173 0.62468-1.6926 2.942z" clip-path="url(#a)" fill="#fff" stroke="#fff"/>
<g clip-path="url(#a)">
<g transform="translate(1055.4 599.23) rotate(74.913) scale(.08 -.08)">
<use xlink:href="#t"/>
</g>
</g>
<path d="m1092.2 551.03 4.8615 3.783q1.8941 1.4739 3.368-0.42019l4.7549-6.1104q1.4739-1.8941-0.42019-3.368l-4.8615-3.783q-1.8941-1.4739-3.368 0.42019l-4.7549 6.1104q-1.4739 1.8941 0.42019 3.368z" clip-path="url(#a)" fill="#fff" stroke="#fff"/>
<g clip-path="url(#a)">
<g transform="translate(1094.7 547.82) rotate(37.889) scale(.08 -.08)">
<use xlink:href="#ao"/>
</g>
</g>
<path d="m1080.7 743.12v35.285q0 2.4 2.4 2.4h7.7425q2.4 0 2.4-2.4v-35.285q0-2.4-2.4-2.4h-7.7425q-2.4 0-2.4 2.4z" clip-path="url(#a)" fill="#fff" stroke="#fff"/>
<g clip-path="url(#a)">
<g transform="translate(1084.8 743.12) rotate(90) scale(.08 -.08)">
<use xlink:href="#l"/>
<use x="60.818359" xlink:href="#d"/>
<use x="122.341797" xlink:href="#h"/>
<use x="163.439453" xlink:href="#k"/>
<use x="260.851562" xlink:href="#g"/>
<use x="288.634766" xlink:href="#f"/>
<use x="352.013672" xlink:href="#e"/>
<use x="413.292969" xlink:href="#i"/>
</g>
</g>
<path d="m1155.4 659.32 1.7217-5.2854q0.74334-2.282-1.5386-3.0253l-7.3618-2.398q-2.282-0.74334-3.0253 1.5386l-1.7217 5.2854q-0.74334 2.282 1.5386 3.0253l7.3618 2.398q2.282 0.74334 3.0253-1.5386z" clip-path="url(#a)" fill="#fff" stroke="#fff"/>
<g clip-path="url(#a)">
<g transform="translate(1151.5 658.06) rotate(-71.957) scale(.08 -.08)">
<use xlink:href="#s"/>
</g>
</g>
<path d="m1178 654.02 1.7302 5.3116q0.74334 2.282 3.0253 1.5386l7.3618-2.398q2.282-0.74334 1.5386-3.0253l-1.7302-5.3116q-0.74334-2.282-3.0253-1.5386l-7.3618 2.398q-2.282 0.74334-1.5386 3.0253z" clip-path="url(#a)" fill="#fff" stroke="#fff"/>
<g clip-path="url(#a)">
<g transform="translate(1181.9 652.76) rotate(71.957) scale(.08 -.08)">
<use xlink:href="#p"/>
</g>
</g>
<path d="m1126.7 743.12v35.285q0 2.4 2.4 2.4h7.7425q2.4 0 2.4-2.4v-35.285q0-2.4-2.4-2.4h-7.7425q-2.4 0-2.4 2.4z" clip-path="url(#a)" fill="#fff" stroke="#fff"/>
<g clip-path="url(#a)">
<g transform="translate(1130.8 743.12) rotate(90) scale(.08 -.08)">
<use xlink:href="#l"/>
<use x="60.818359" xlink:href="#d"/>
<use x="122.341797" xlink:href="#h"/>
<use x="163.439453" xlink:href="#k"/>
<use x="260.851562" xlink:href="#g"/>
<use x="288.634766" xlink:href="#f"/>
<use x="352.013672" xlink:href="#e"/>
<use x="413.292969" xlink:href="#i"/>
</g>
</g>
<path d="m1193 779.33 7.488-34.481q0.50932-2.3453-1.836-2.8546l-7.5662-1.6431q-2.3453-0.50932-2.8546 1.836l-7.488 34.481q-0.50932 2.3453 1.836 2.8547l7.5662 1.6431q2.3453 0.50932 2.8546-1.836z" clip-path="url(#a)" fill="#fff" stroke="#fff"/>
<g clip-path="url(#a)">
<g transform="translate(1189 778.47) rotate(-77.748) scale(.08 -.08)">
<use xlink:href="#l"/>
<use x="60.818359" xlink:href="#d"/>
<use x="122.341797" xlink:href="#h"/>
<use x="163.439453" xlink:href="#k"/>
<use x="260.851562" xlink:href="#g"/>
<use x="288.634766" xlink:href="#f"/>
<use x="352.013672" xlink:href="#e"/>
<use x="413.292969" xlink:href="#i"/>
</g>
</g>
<path d="m1203.7 744.85 7.488 34.481q0.50932 2.3453 2.8546 1.836l7.5662-1.6431q2.3453-0.50932 1.836-2.8547l-7.488-34.481q-0.50932-2.3453-2.8547-1.836l-7.5661 1.6431q-2.3453 0.50932-1.836 2.8546z" clip-path="url(#a)" fill="#fff" stroke="#fff"/>
<g clip-path="url(#a)">
<g transform="translate(1207.7 743.99) rotate(77.748) scale(.08 -.08)">
<use xlink:href="#l"/>
<use x="60.818359" xlink:href="#d"/>
<use x="122.341797" xlink:href="#h"/>
<use x="163.439453" xlink:href="#k"/>
<use x="260.851562" xlink:href="#g"/>
<use x="288.634766" xlink:href="#f"/>
<use x="352.013672" xlink:href="#e"/>
<use x="413.292969" xlink:href="#i"/>
</g>
</g>
<path d="m971.19 659.32 1.7217-5.2854q0.74334-2.282-1.5386-3.0253l-7.3618-2.398q-2.282-0.74334-3.0253 1.5386l-1.7217 5.2854q-0.74334 2.282 1.5386 3.0253l7.3618 2.398q2.282 0.74334 3.0253-1.5386z" clip-path="url(#a)" fill="#fff" stroke="#fff"/>
<g clip-path="url(#a)">
<g transform="translate(967.32 658.06) rotate(-71.957) scale(.08 -.08)">
<use xlink:href="#s"/>
</g>
</g>
<path d="m993.79 654.02 1.7302 5.3116q0.74334 2.282 3.0253 1.5386l7.3618-2.398q2.282-0.74334 1.5386-3.0253l-1.7302-5.3116q-0.74334-2.282-3.0253-1.5386l-7.3618 2.398q-2.282 0.74334-1.5386 3.0253z" clip-path="url(#a)" fill="#fff" stroke="#fff"/>
<g clip-path="url(#a)">
<g transform="translate(997.66 652.76) rotate(71.957) scale(.08 -.08)">
<use xlink:href="#p"/>
</g>
</g>
<path d="m942.54 743.12v35.285q0 2.4 2.4 2.4h7.7425q2.4 0 2.4-2.4v-35.285q0-2.4-2.4-2.4h-7.7425q-2.4 0-2.4 2.4z" clip-path="url(#a)" fill="#fff" stroke="#fff"/>
<g clip-path="url(#a)">
<g transform="translate(946.61 743.12) rotate(90) scale(.08 -.08)">
<use xlink:href="#l"/>
<use x="60.818359" xlink:href="#d"/>
<use x="122.341797" xlink:href="#h"/>
<use x="163.439453" xlink:href="#k"/>
<use x="260.851562" xlink:href="#g"/>
<use x="288.634766" xlink:href="#f"/>
<use x="352.013672" xlink:href="#e"/>
<use x="413.292969" xlink:href="#i"/>
</g>
</g>
<path d="m1008.8 779.33 7.488-34.481q0.50932-2.3453-1.836-2.8546l-7.5662-1.6431q-2.3453-0.50932-2.8547 1.836l-7.488 34.481q-0.50932 2.3453 1.836 2.8547l7.5662 1.6431q2.3453 0.50932 2.8547-1.836z" clip-path="url(#a)" fill="#fff" stroke="#fff"/>
<g clip-path="url(#a)">
<g transform="translate(1004.8 778.47) rotate(-77.748) scale(.08 -.08)">
<use xlink:href="#l"/>
<use x="60.818359" xlink:href="#d"/>
<use x="122.341797" xlink:href="#h"/>
<use x="163.439453" xlink:href="#k"/>
<use x="260.851562" xlink:href="#g"/>
<use x="288.634766" xlink:href="#f"/>
<use x="352.013672" xlink:href="#e"/>
<use x="413.292969" xlink:href="#i"/>
</g>
</g>
<path d="m1019.5 744.85 7.488 34.481q0.50932 2.3453 2.8547 1.836l7.5661-1.6431q2.3453-0.50932 1.836-2.8547l-7.488-34.481q-0.50932-2.3453-2.8546-1.836l-7.5662 1.6431q-2.3453 0.50932-1.836 2.8546z" clip-path="url(#a)" fill="#fff" stroke="#fff"/>
<g clip-path="url(#a)">
<g transform="translate(1023.5 743.99) rotate(77.748) scale(.08 -.08)">
<use xlink:href="#l"/>
<use x="60.818359" xlink:href="#d"/>
<use x="122.341797" xlink:href="#h"/>
<use x="163.439453" xlink:href="#k"/>
<use x="260.851562" xlink:href="#g"/>
<use x="288.634766" xlink:href="#f"/>
<use x="352.013672" xlink:href="#e"/>
<use x="413.292969" xlink:href="#i"/>
</g>
</g>
<path d="m389.95 743.12v35.285q0 2.4 2.4 2.4h7.7425q2.4 0 2.4-2.4v-35.285q0-2.4-2.4-2.4h-7.7425q-2.4 0-2.4 2.4z" clip-path="url(#a)" fill="#fff" stroke="#fff"/>
<g clip-path="url(#a)">
<g transform="translate(394.01 743.12) rotate(90) scale(.08 -.08)">
<use xlink:href="#l"/>
<use x="60.818359" xlink:href="#d"/>
<use x="122.341797" xlink:href="#h"/>
<use x="163.439453" xlink:href="#k"/>
<use x="260.851562" xlink:href="#g"/>
<use x="288.634766" xlink:href="#f"/>
<use x="352.013672" xlink:href="#e"/>
<use x="413.292969" xlink:href="#i"/>
</g>
</g>
<path d="m502.22 779.33 7.488-34.481q0.50932-2.3453-1.836-2.8546l-7.5661-1.6431q-2.3453-0.50932-2.8547 1.836l-7.488 34.481q-0.50932 2.3453 1.836 2.8547l7.5662 1.6431q2.3453 0.50932 2.8547-1.836z" clip-path="url(#a)" fill="#fff" stroke="#fff"/>
<g clip-path="url(#a)">
<g transform="translate(498.25 778.47) rotate(-77.748) scale(.08 -.08)">
<use xlink:href="#l"/>
<use x="60.818359" xlink:href="#d"/>
<use x="122.341797" xlink:href="#h"/>
<use x="163.439453" xlink:href="#k"/>
<use x="260.851562" xlink:href="#g"/>
<use x="288.634766" xlink:href="#f"/>
<use x="352.013672" xlink:href="#e"/>
<use x="413.292969" xlink:href="#i"/>
</g>
</g>
<path d="m512.98 744.85 7.488 34.481q0.50932 2.3453 2.8546 1.836l7.5662-1.6431q2.3453-0.50932 1.836-2.8547l-7.488-34.481q-0.50932-2.3453-2.8546-1.836l-7.5662 1.6431q-2.3453 0.50932-1.836 2.8546z" clip-path="url(#a)" fill="#fff" stroke="#fff"/>
<g clip-path="url(#a)">
<g transform="translate(516.96 743.99) rotate(77.748) scale(.08 -.08)">
<use xlink:href="#l"/>
<use x="60.818359" xlink:href="#d"/>
<use x="122.341797" xlink:href="#h"/>
<use x="163.439453" xlink:href="#k"/>
<use x="260.851562" xlink:href="#g"/>
<use x="288.634766" xlink:href="#f"/>
<use x="352.013672" xlink:href="#e"/>
<use x="413.292969" xlink:href="#i"/>
</g>
</g>
<path d="m436 743.12v35.285q0 2.4 2.4 2.4h7.7425q2.4 0 2.4-2.4v-35.285q0-2.4-2.4-2.4h-7.7425q-2.4 0-2.4 2.4z" clip-path="url(#a)" fill="#fff" stroke="#fff"/>
<g clip-path="url(#a)">
<g transform="translate(440.06 743.12) rotate(90) scale(.08 -.08)">
<use xlink:href="#l"/>
<use x="60.818359" xlink:href="#d"/>
<use x="122.341797" xlink:href="#h"/>
<use x="163.439453" xlink:href="#k"/>
<use x="260.851562" xlink:href="#g"/>
<use x="288.634766" xlink:href="#f"/>
<use x="352.013672" xlink:href="#e"/>
<use x="413.292969" xlink:href="#i"/>
</g>
</g>
<path d="m574.15 743.12v35.285q0 2.4 2.4 2.4h7.7425q2.4 0 2.4-2.4v-35.285q0-2.4-2.4-2.4h-7.7425q-2.4 0-2.4 2.4z" clip-path="url(#a)" fill="#fff" stroke="#fff"/>
<g clip-path="url(#a)">
<g transform="translate(578.21 743.12) rotate(90) scale(.08 -.08)">
<use xlink:href="#l"/>
<use x="60.818359" xlink:href="#d"/>
<use x="122.341797" xlink:href="#h"/>
<use x="163.439453" xlink:href="#k"/>
<use x="260.851562" xlink:href="#g"/>
<use x="288.634766" xlink:href="#f"/>
<use x="352.013672" xlink:href="#e"/>
<use x="413.292969" xlink:href="#i"/>
</g>
</g>
<path d="m1264.9 743.12v35.285q0 2.4 2.4 2.4h7.7425q2.4 0 2.4-2.4v-35.285q0-2.4-2.4-2.4h-7.7425q-2.4 0-2.4 2.4z" clip-path="url(#a)" fill="#fff" stroke="#fff"/>
<g clip-path="url(#a)">
<g transform="translate(1269 743.12) rotate(90) scale(.08 -.08)">
<use xlink:href="#l"/>
<use x="60.818359" xlink:href="#d"/>
<use x="122.341797" xlink:href="#h"/>
<use x="163.439453" xlink:href="#k"/>
<use x="260.851562" xlink:href="#g"/>
<use x="288.634766" xlink:href="#f"/>
<use x="352.013672" xlink:href="#e"/>
<use x="413.292969" xlink:href="#i"/>
</g>
</g>
<path d="m1495.1 743.12v35.285q0 2.4 2.4 2.4h7.7425q2.4 0 2.4-2.4v-35.285q0-2.4-2.4-2.4h-7.7425q-2.4 0-2.4 2.4z" clip-path="url(#a)" fill="#fff" stroke="#fff"/>
<g clip-path="url(#a)">
<g transform="translate(1499.2 743.12) rotate(90) scale(.08 -.08)">
<use xlink:href="#l"/>
<use x="60.818359" xlink:href="#d"/>
<use x="122.341797" xlink:href="#h"/>
<use x="163.439453" xlink:href="#k"/>
<use x="260.851562" xlink:href="#g"/>
<use x="288.634766" xlink:href="#f"/>
<use x="352.013672" xlink:href="#e"/>
<use x="413.292969" xlink:href="#i"/>
</g>
</g>
<defs>
<path id="b" d="m0 8.6603c2.2967 0 4.4997-0.9125 6.1237-2.5365 1.624-1.624 2.5365-3.827 2.5365-6.1237s-0.9125-4.4997-2.5365-6.1237c-1.624-1.624-3.827-2.5365-6.1237-2.5365s-4.4997 0.9125-6.1237 2.5365c-1.624 1.624-2.5365 3.827-2.5365 6.1237s0.9125 4.4997 2.5365 6.1237c1.624 1.624 3.827 2.5365 6.1237 2.5365z"/>
</defs>
<g clip-path="url(#a)">
<use x="73.874069" y="813.770711" fill="#ffffff" stroke="#ffffff" xlink:href="#b"/>
</g>
<g clip-path="url(#a)">
<use x="119.923606" y="813.770711" fill="#ffffff" stroke="#ffffff" xlink:href="#b"/>
</g>
<g clip-path="url(#a)">
<use x="165.973143" y="813.770711" fill="#ffffff" stroke="#ffffff" xlink:href="#b"/>
</g>
<g clip-path="url(#a)">
<use x="212.022681" y="813.770711" fill="#ffffff" stroke="#ffffff" xlink:href="#b"/>
</g>
<g clip-path="url(#a)">
<use x="258.072218" y="813.770711" fill="#ffffff" stroke="#ffffff" xlink:href="#b"/>
</g>
<g clip-path="url(#a)">
<use x="304.121756" y="813.770711" fill="#ffffff" stroke="#ffffff" xlink:href="#b"/>
</g>
<g clip-path="url(#a)">
<use x="350.171293" y="813.770711" fill="#ffffff" stroke="#ffffff" xlink:href="#b"/>
</g>
<g clip-path="url(#a)">
<use x="396.22083" y="813.770711" fill="#ffffff" stroke="#ffffff" xlink:href="#b"/>
</g>
<g clip-path="url(#a)">
<use x="442.270368" y="813.770711" fill="#ffffff" stroke="#ffffff" xlink:href="#b"/>
</g>
<g clip-path="url(#a)">
<use x="488.319905" y="813.770711" fill="#ffffff" stroke="#ffffff" xlink:href="#b"/>
</g>
<g clip-path="url(#a)">
<use x="534.369442" y="813.770711" fill="#ffffff" stroke="#ffffff" xlink:href="#b"/>
</g>
<g clip-path="url(#a)">
<use x="580.41898" y="813.770711" fill="#ffffff" stroke="#ffffff" xlink:href="#b"/>
</g>
<g clip-path="url(#a)">
<use x="626.468517" y="813.770711" fill="#ffffff" stroke="#ffffff" xlink:href="#b"/>
</g>
<g clip-path="url(#a)">
<use x="672.518055" y="813.770711" fill="#ffffff" stroke="#ffffff" xlink:href="#b"/>
</g>
<g clip-path="url(#a)">
<use x="718.567592" y="813.770711" fill="#ffffff" stroke="#ffffff" xlink:href="#b"/>
</g>
<g clip-path="url(#a)">
<use x="764.617129" y="813.770711" fill="#ffffff" stroke="#ffffff" xlink:href="#b"/>
</g>
<g clip-path="url(#a)">
<use x="810.666667" y="813.770711" fill="#ffffff" stroke="#ffffff" xlink:href="#b"/>
</g>
<g clip-path="url(#a)">
<use x="856.716204" y="813.770711" fill="#ffffff" stroke="#ffffff" xlink:href="#b"/>
</g>
<g clip-path="url(#a)">
<use x="902.765741" y="813.770711" fill="#ffffff" stroke="#ffffff" xlink:href="#b"/>
</g>
<g clip-path="url(#a)">
<use x="948.815279" y="813.770711" fill="#ffffff" stroke="#ffffff" xlink:href="#b"/>
</g>
<g clip-path="url(#a)">
<use x="994.864816" y="813.770711" fill="#ffffff" stroke="#ffffff" xlink:href="#b"/>
</g>
<g clip-path="url(#a)">
<use x="1040.914354" y="813.770711" fill="#ffffff" stroke="#ffffff" xlink:href="#b"/>
</g>
<g clip-path="url(#a)">
<use x="1086.963891" y="813.770711" fill="#ffffff" stroke="#ffffff" xlink:href="#b"/>
</g>
<g clip-path="url(#a)">
<use x="1133.013428" y="813.770711" fill="#ffffff" stroke="#ffffff" xlink:href="#b"/>
</g>
<g clip-path="url(#a)">
<use x="1179.062966" y="813.770711" fill="#ffffff" stroke="#ffffff" xlink:href="#b"/>
</g>
<g clip-path="url(#a)">
<use x="1225.112503" y="813.770711" fill="#ffffff" stroke="#ffffff" xlink:href="#b"/>
</g>
<g clip-path="url(#a)">
<use x="1271.16204" y="813.770711" fill="#ffffff" stroke="#ffffff" xlink:href="#b"/>
</g>
<g clip-path="url(#a)">
<use x="1317.211578" y="813.770711" fill="#ffffff" stroke="#ffffff" xlink:href="#b"/>
</g>
<g clip-path="url(#a)">
<use x="1363.261115" y="813.770711" fill="#ffffff" stroke="#ffffff" xlink:href="#b"/>
</g>
<g clip-path="url(#a)">
<use x="1409.310653" y="813.770711" fill="#ffffff" stroke="#ffffff" xlink:href="#b"/>
</g>
<g clip-path="url(#a)">
<use x="1455.36019" y="813.770711" fill="#ffffff" stroke="#ffffff" xlink:href="#b"/>
</g>
<g clip-path="url(#a)">
<use x="1501.409727" y="813.770711" fill="#ffffff" stroke="#ffffff" xlink:href="#b"/>
</g>
<g clip-path="url(#a)">
<use x="580.41898" y="39.562622" fill="#ffffff" stroke="#ffffff" xlink:href="#b"/>
</g>
<g clip-path="url(#a)">
<use x="580.41898" y="157.657203" fill="#ffffff" stroke="#ffffff" xlink:href="#b"/>
</g>
<g clip-path="url(#a)">
<use x="73.874069" y="707.744408" fill="#ffffff" stroke="#ffffff" xlink:href="#b"/>
</g>
<g clip-path="url(#a)">
<use x="119.923606" y="707.744408" fill="#ffffff" stroke="#ffffff" xlink:href="#b"/>
</g>
<g clip-path="url(#a)">
<use x="165.973143" y="707.744408" fill="#ffffff" stroke="#ffffff" xlink:href="#b"/>
</g>
<g clip-path="url(#a)">
<use x="426.920522" y="272.577727" fill="#ffffff" stroke="#ffffff" xlink:href="#b"/>
</g>
<g clip-path="url(#a)">
<use x="1424.660498" y="494.216859" fill="#ffffff" stroke="#ffffff" xlink:href="#b"/>
</g>
<g clip-path="url(#a)">
<use x="1340.236346" y="601.718105" fill="#ffffff" stroke="#ffffff" xlink:href="#b"/>
</g>
<g clip-path="url(#a)">
<use x="1432.335421" y="707.744408" fill="#ffffff" stroke="#ffffff" xlink:href="#b"/>
</g>
<g clip-path="url(#a)">
<use x="1317.211578" y="707.744408" fill="#ffffff" stroke="#ffffff" xlink:href="#b"/>
</g>
<g clip-path="url(#a)">
<use x="1363.261115" y="707.744408" fill="#ffffff" stroke="#ffffff" xlink:href="#b"/>
</g>
<g clip-path="url(#a)">
<use x="212.022681" y="707.744408" fill="#ffffff" stroke="#ffffff" xlink:href="#b"/>
</g>
<g clip-path="url(#a)">
<use x="258.072218" y="707.744408" fill="#ffffff" stroke="#ffffff" xlink:href="#b"/>
</g>
<g clip-path="url(#a)">
<use x="304.121756" y="707.744408" fill="#ffffff" stroke="#ffffff" xlink:href="#b"/>
</g>
<g clip-path="url(#a)">
<use x="350.171293" y="707.744408" fill="#ffffff" stroke="#ffffff" xlink:href="#b"/>
</g>
<g clip-path="url(#a)">
<use x="449.945291" y="601.718105" fill="#ffffff" stroke="#ffffff" xlink:href="#b"/>
</g>
<g clip-path="url(#a)">
<use x="833.691435" y="384.645596" fill="#ffffff" stroke="#ffffff" xlink:href="#b"/>
</g>
<g clip-path="url(#a)">
<use x="626.468517" y="707.744408" fill="#ffffff" stroke="#ffffff" xlink:href="#b"/>
</g>
<g clip-path="url(#a)">
<use x="672.518055" y="707.744408" fill="#ffffff" stroke="#ffffff" xlink:href="#b"/>
</g>
<g clip-path="url(#a)">
<use x="718.567592" y="707.744408" fill="#ffffff" stroke="#ffffff" xlink:href="#b"/>
</g>
<g clip-path="url(#a)">
<use x="833.691435" y="707.744408" fill="#ffffff" stroke="#ffffff" xlink:href="#b"/>
</g>
<g clip-path="url(#a)">
<use x="1121.501044" y="494.216859" fill="#ffffff" stroke="#ffffff" xlink:href="#b"/>
</g>
<g clip-path="url(#a)">
<use x="1029.401969" y="494.216859" fill="#ffffff" stroke="#ffffff" xlink:href="#b"/>
</g>
<g clip-path="url(#a)">
<use x="1086.963891" y="707.744408" fill="#ffffff" stroke="#ffffff" xlink:href="#b"/>
</g>
<g clip-path="url(#a)">
<use x="1167.550581" y="601.718105" fill="#ffffff" stroke="#ffffff" xlink:href="#b"/>
</g>
<g clip-path="url(#a)">
<use x="1133.013428" y="707.744408" fill="#ffffff" stroke="#ffffff" xlink:href="#b"/>
</g>
<g clip-path="url(#a)">
<use x="1202.087734" y="707.744408" fill="#ffffff" stroke="#ffffff" xlink:href="#b"/>
</g>
<g clip-path="url(#a)">
<use x="1547.459265" y="813.770711" fill="#ffffff" stroke="#ffffff" xlink:href="#b"/>
</g>
<g clip-path="url(#a)">
<use x="983.352432" y="601.718105" fill="#ffffff" stroke="#ffffff" xlink:href="#b"/>
</g>
<g clip-path="url(#a)">
<use x="948.815279" y="707.744408" fill="#ffffff" stroke="#ffffff" xlink:href="#b"/>
</g>
<g clip-path="url(#a)">
<use x="1017.889585" y="707.744408" fill="#ffffff" stroke="#ffffff" xlink:href="#b"/>
</g>
<g clip-path="url(#a)">
<use x="396.22083" y="707.744408" fill="#ffffff" stroke="#ffffff" xlink:href="#b"/>
</g>
<g clip-path="url(#a)">
<use x="511.344674" y="707.744408" fill="#ffffff" stroke="#ffffff" xlink:href="#b"/>
</g>
<g clip-path="url(#a)">
<use x="442.270368" y="707.744408" fill="#ffffff" stroke="#ffffff" xlink:href="#b"/>
</g>
<g clip-path="url(#a)">
<use x="580.41898" y="707.744408" fill="#ffffff" stroke="#ffffff" xlink:href="#b"/>
</g>
<g clip-path="url(#a)">
<use x="1271.16204" y="707.744408" fill="#ffffff" stroke="#ffffff" xlink:href="#b"/>
</g>
<g clip-path="url(#a)">
<use x="1501.409727" y="707.744408" fill="#ffffff" stroke="#ffffff" xlink:href="#b"/>
</g>
<g clip-path="url(#a)">
<g transform="translate(67.037 816.53) scale(.1 -.1)">
<use xlink:href="#am"/>
<use x="75.195312" xlink:href="#d"/>
</g>
</g>
<g clip-path="url(#a)">
<defs>
<path id="v" d="m44.281 53.078v-8.5q-3.7969 1.9531-7.9062 2.9219-4.0938 0.98438-8.5 0.98438-6.6875 0-10.031-2.0469t-3.3438-6.1562q0-3.125 2.3906-4.9062t9.625-3.3906l3.0781-0.6875q9.5625-2.0469 13.594-5.7812t4.0312-10.422q0-7.625-6.0312-12.078-6.0312-4.4375-16.578-4.4375-4.3906 0-9.1562 0.85938t-10.031 2.5625v9.2812q4.9844-2.5938 9.8125-3.8906 4.8281-1.2812 9.5781-1.2812 6.3438 0 9.75 2.1719 3.4219 2.1719 3.4219 6.125 0 3.6562-2.4688 5.6094-2.4531 1.9531-10.812 3.7656l-3.125 0.73438q-8.3438 1.75-12.062 5.3906-3.7031 3.6406-3.7031 9.9844 0 7.7188 5.4688 11.906 5.4688 4.2031 15.531 4.2031 4.9688 0 9.3594-0.73438 4.4062-0.71875 8.1094-2.1875z"/>
<path id="q" d="m30.609 48.391q-7.2188 0-11.422-5.6406t-4.2031-15.453 4.1719-15.453q4.1875-5.6406 11.453-5.6406 7.1875 0 11.375 5.6562 4.2031 5.6719 4.2031 15.438 0 9.7188-4.2031 15.406-4.1875 5.6875-11.375 5.6875zm0 7.6094q11.719 0 18.406-7.625 6.7031-7.6094 6.7031-21.078 0-13.422-6.7031-21.078-6.6875-7.6406-18.406-7.6406-11.766 0-18.438 7.6406-6.6562 7.6562-6.6562 21.078 0 13.469 6.6562 21.078 6.6719 7.625 18.438 7.625z"/>
</defs>
<g transform="translate(109.81 816.53) scale(.1 -.1)">
<use xlink:href="#e"/>
<use x="61.279297" xlink:href="#i"/>
<use x="89.0625" xlink:href="#v"/>
<use x="141.162109" xlink:href="#q"/>
</g>
</g>
<g clip-path="url(#a)">
<defs>
<path id="aq" d="m18.109 8.2031v-29h-9.0312v75.484h9.0312v-8.2969q2.8438 4.875 7.1562 7.2344 4.3281 2.375 10.328 2.375 9.9688 0 16.188-7.9062 6.2344-7.9062 6.2344-20.797t-6.2344-20.812q-6.2188-7.9062-16.188-7.9062-6 0-10.328 2.375-4.3125 2.375-7.1562 7.25zm30.578 19.094q0 9.9062-4.0781 15.547t-11.203 5.6406q-7.1406 0-11.219-5.6406t-4.0781-15.547 4.0781-15.547 11.219-5.6406q7.125 0 11.203 5.6406t4.0781 15.547z"/>
<path id="ak" d="m45.406 46.391v29.594h8.9844v-75.984h-8.9844v8.2031q-2.8281-4.875-7.1562-7.25-4.3125-2.375-10.375-2.375-9.9062 0-16.141 7.9062-6.2188 7.9219-6.2188 20.812t6.2188 20.797q6.2344 7.9062 16.141 7.9062 6.0625 0 10.375-2.375 4.3281-2.3594 7.1562-7.2344zm-30.609-19.094q0-9.9062 4.0781-15.547t11.203-5.6406 11.219 5.6406q4.1094 5.6406 4.1094 15.547t-4.1094 15.547q-4.0938 5.6406-11.219 5.6406t-11.203-5.6406-4.0781-15.547z"/>
</defs>
<g transform="translate(142.12 816.53) scale(.1 -.1)">
<use xlink:href="#e"/>
<use x="61.279297" xlink:href="#aq"/>
<use x="124.755859" xlink:href="#aq"/>
<use x="188.232422" xlink:href="#d"/>
<use x="249.755859" xlink:href="#e"/>
<use x="311.035156" xlink:href="#h"/>
<use x="352.117188" xlink:href="#d"/>
<use x="413.640625" xlink:href="#ak"/>
</g>
</g>
<g clip-path="url(#a)">
<g transform="translate(207.46 816.53) scale(.1 -.1)">
<use xlink:href="#g"/>
<use x="27.783203" xlink:href="#f"/>
</g>
</g>
<g clip-path="url(#a)">
<defs>
<path id="o" d="m18.312 70.219v-15.531h18.5v-6.9844h-18.5v-29.688q0-6.6875 1.8281-8.5938t7.4531-1.9062h9.2188v-7.5156h-9.2188q-10.406 0-14.359 3.875-3.9531 3.8906-3.9531 14.141v29.688h-6.5938v6.9844h6.5938v15.531z"/>
<path id="af" d="m54.891 33.016v-33.016h-8.9844v32.719q0 7.7656-3.0312 11.609-3.0312 3.8594-9.0781 3.8594-7.2812 0-11.484-4.6406-4.2031-4.625-4.2031-12.641v-30.906h-9.0312v75.984h9.0312v-29.797q3.2344 4.9375 7.5938 7.375 4.375 2.4375 10.094 2.4375 9.4219 0 14.25-5.8281 4.8438-5.8281 4.8438-17.156z"/>
</defs>
<g transform="translate(249.87 816.53) scale(.1 -.1)">
<use xlink:href="#o"/>
<use x="39.208984" xlink:href="#af"/>
<use x="102.587891" xlink:href="#d"/>
</g>
</g>
<g clip-path="url(#a)">
<defs>
<path id="ae" d="m8.5 21.578v33.109h8.9844v-32.766q0-7.7656 3.0156-11.656 3.0312-3.875 9.0938-3.875 7.2656 0 11.484 4.6406 4.2344 4.6406 4.2344 12.656v31h8.9844v-54.688h-8.9844v8.4062q-3.2656-4.9844-7.5938-7.4062-4.3125-2.4219-10.031-2.4219-9.4219 0-14.312 5.8594-4.875 5.8594-4.875 17.141z"/>
<path id="al" d="m48.781 52.594v-8.4062q-3.8125 2.1094-7.6406 3.1562t-7.7344 1.0469q-8.75 0-13.594-5.5469-4.8281-5.5312-4.8281-15.547t4.8281-15.562q4.8438-5.5312 13.594-5.5312 3.9062 0 7.7344 1.0469t7.6406 3.1562v-8.3125q-3.7656-1.75-7.7969-2.625-4.0156-0.89062-8.5625-0.89062-12.359 0-19.641 7.7656-7.2656 7.7656-7.2656 20.953 0 13.375 7.3438 21.031 7.3594 7.6719 20.156 7.6719 4.1406 0 8.0938-0.85938 3.9531-0.84375 7.6719-2.5469z"/>
</defs>
<g transform="translate(289.34 816.53) scale(.1 -.1)">
<use xlink:href="#k"/>
<use x="97.412109" xlink:href="#ae"/>
<use x="160.791016" xlink:href="#v"/>
<use x="212.890625" xlink:href="#g"/>
<use x="240.673828" xlink:href="#al"/>
</g>
</g>
<g clip-path="url(#a)">
<defs>
<path id="az" d="m2.9844 54.688h9.5156l17.094-45.891 17.094 45.891h9.5156l-20.516-54.688h-12.203z"/>
</defs>
<g transform="translate(336.51 816.53) scale(.1 -.1)">
<use xlink:href="#az"/>
<use x="59.179688" xlink:href="#g"/>
<use x="86.962891" xlink:href="#ak"/>
<use x="150.439453" xlink:href="#d"/>
<use x="211.962891" xlink:href="#q"/>
</g>
</g>
<g clip-path="url(#a)">
<defs>
<path id="ar" d="m37.109 75.984v-7.4844h-8.5938q-4.8281 0-6.7188-1.9531-1.875-1.9531-1.875-7.0312v-4.8281h14.797v-6.9844h-14.797v-47.703h-9.0312v47.703h-8.5938v6.9844h8.5938v3.8125q0 9.125 4.25 13.297 4.25 4.1875 13.469 4.1875z"/>
</defs>
<g transform="translate(391.4 816.53) scale(.1 -.1)">
<use xlink:href="#q"/>
<use x="61.181641" xlink:href="#ar"/>
</g>
</g>
<g clip-path="url(#a)">
<defs>
<path id="ap" d="m17.922 72.906v-27.109h-8.2969v27.109zm18.453 0v-27.109h-8.2969v27.109z"/>
</defs>
<g transform="translate(439.97 816.53) scale(.1 -.1)">
<use xlink:href="#ap"/>
</g>
</g>
<g clip-path="url(#a)">
<defs>
<path id="ah" d="m9.8125 72.906h14.703l18.594-49.609 18.703 49.609h14.703v-72.906h-9.625v64.016l-18.797-50h-9.9062l-18.797 50v-64.016h-9.5781z"/>
<path id="ad" d="m32.172-5.0781q-3.7969-9.7656-7.4219-12.734-3.6094-2.9844-9.6562-2.9844h-7.1875v7.5156h5.2812q3.7031 0 5.75 1.7656 2.0625 1.75 4.5469 8.2969l1.6094 4.0938-22.109 53.812h9.5156l17.094-42.766 17.094 42.766h9.5156z"/>
</defs>
<g transform="translate(481.05 816.53) scale(.1 -.1)">
<use xlink:href="#ah"/>
<use x="86.279297" xlink:href="#ad"/>
</g>
</g>
<g clip-path="url(#a)">
<defs>
<path id="as" d="m28.609 0-27.828 72.906h10.297l23.109-61.375 23.141 61.375h10.25l-27.781-72.906z"/>
</defs>
<g transform="translate(510.66 816.53) scale(.1 -.1)">
<use xlink:href="#as"/>
<use x="68.298828" xlink:href="#e"/>
<use x="129.578125" xlink:href="#i"/>
<use x="157.361328" xlink:href="#d"/>
<use x="218.884766" xlink:href="#f"/>
<use x="282.263672" xlink:href="#o"/>
<use x="321.472656" xlink:href="#g"/>
<use x="349.255859" xlink:href="#f"/>
<use x="412.634766" xlink:href="#d"/>
</g>
</g>
<g clip-path="url(#a)">
<g transform="translate(578.12 816.53) scale(.1 -.1)">
<use xlink:href="#ap"/>
</g>
</g>
<g clip-path="url(#a)">
<g transform="translate(614.72 816.53) scale(.1 -.1)">
<use xlink:href="#ar"/>
<use x="35.205078" xlink:href="#h"/>
<use x="76.287109" xlink:href="#q"/>
<use x="137.46875" xlink:href="#k"/>
</g>
</g>
<g clip-path="url(#a)">
<g transform="translate(664.31 816.53) scale(.1 -.1)">
<use xlink:href="#o"/>
<use x="39.208984" xlink:href="#af"/>
<use x="102.587891" xlink:href="#d"/>
</g>
</g>
<g clip-path="url(#a)">
<defs>
<path id="ag" d="m48.688 27.297q0 9.9062-4.0781 15.547t-11.203 5.6406q-7.1406 0-11.219-5.6406t-4.0781-15.547 4.0781-15.547 11.219-5.6406q7.125 0 11.203 5.6406t4.0781 15.547zm-30.578 19.094q2.8438 4.875 7.1562 7.2344 4.3281 2.375 10.328 2.375 9.9688 0 16.188-7.9062 6.2344-7.9062 6.2344-20.797t-6.2344-20.812q-6.2188-7.9062-16.188-7.9062-6 0-10.328 2.375-4.3125 2.375-7.1562 7.25v-8.2031h-9.0312v75.984h9.0312z"/>
</defs>
<g transform="translate(702.9 816.53) scale(.1 -.1)">
<use xlink:href="#e"/>
<use x="61.279297" xlink:href="#i"/>
<use x="89.0625" xlink:href="#ag"/>
<use x="152.539062" xlink:href="#ae"/>
<use x="215.917969" xlink:href="#k"/>
</g>
</g>
<g clip-path="url(#a)">
<defs>
<path id="av" d="m9.8125 72.906h9.8594v-30.812l32.719 30.812h12.703l-36.188-33.984 38.766-38.922h-12.984l-35.016 35.109v-35.109h-9.8594z"/>
</defs>
<g transform="translate(749.06 816.53) scale(.1 -.1)">
<use xlink:href="#av"/>
<use x="65.576172" xlink:href="#g"/>
<use x="93.359375" xlink:href="#v"/>
<use x="145.458984" xlink:href="#v"/>
<use x="197.558594" xlink:href="#d"/>
<use x="259.082031" xlink:href="#v"/>
</g>
</g>
<g clip-path="url(#a)">
<g transform="translate(804.44 816.53) scale(.1 -.1)">
<use xlink:href="#q"/>
<use x="61.181641" xlink:href="#f"/>
</g>
</g>
<g clip-path="url(#a)">
<g transform="translate(848.51 816.53) scale(.1 -.1)">
<use xlink:href="#o"/>
<use x="39.208984" xlink:href="#af"/>
<use x="102.587891" xlink:href="#d"/>
</g>
</g>
<g clip-path="url(#a)">
<defs>
<path id="aw" d="m19.672 34.812v-26.703h15.828q7.9531 0 11.781 3.2969 3.8438 3.2969 3.8438 10.078 0 6.8438-3.8438 10.078-3.8281 3.25-11.781 3.25zm0 29.984v-21.969h14.609q7.2188 0 10.75 2.7031 3.5469 2.7188 3.5469 8.2812 0 5.5156-3.5469 8.25-3.5312 2.7344-10.75 2.7344zm-9.8594 8.1094h25.203q11.281 0 17.375-4.6875 6.1094-4.6875 6.1094-13.328 0-6.7031-3.125-10.656t-9.1875-4.9219q7.2812-1.5625 11.312-6.5312 4.0312-4.9531 4.0312-12.375 0-9.7656-6.6406-15.094-6.6406-5.3125-18.906-5.3125h-26.172z"/>
</defs>
<g transform="translate(884.43 816.53) scale(.1 -.1)">
<use xlink:href="#aw"/>
<use x="68.603516" xlink:href="#q"/>
<use x="129.785156" xlink:href="#o"/>
<use x="168.994141" xlink:href="#o"/>
<use x="208.203125" xlink:href="#q"/>
<use x="269.384766" xlink:href="#k"/>
</g>
</g>
<g clip-path="url(#a)">
<g transform="translate(942.68 816.53) scale(.1 -.1)">
<use xlink:href="#ag"/>
<use x="63.476562" xlink:href="#ad"/>
</g>
</g>
<g clip-path="url(#a)">
<g transform="translate(984.23 816.53) scale(.1 -.1)">
<use xlink:href="#t"/>
<use x="60.240234" xlink:href="#e"/>
<use x="121.519531" xlink:href="#ae"/>
<use x="184.898438" xlink:href="#i"/>
</g>
</g>
<g clip-path="url(#a)">
<g transform="translate(1014.1 816.53) scale(.1 -.1)">
<use xlink:href="#ah"/>
<use x="86.279297" xlink:href="#al"/>
<use x="141.259766" xlink:href="#p"/>
<use x="211.083984" xlink:href="#e"/>
<use x="272.363281" xlink:href="#h"/>
<use x="313.476562" xlink:href="#o"/>
<use x="352.685547" xlink:href="#f"/>
<use x="416.064453" xlink:href="#d"/>
<use x="477.587891" xlink:href="#ad"/>
</g>
</g>
<g clip-path="url(#a)">
<g transform="translate(1065.4 816.53) scale(.1 -.1)">
<use xlink:href="#h"/>
<use x="41.082031" xlink:href="#d"/>
<use x="102.605469" xlink:href="#i"/>
<use x="130.388672" xlink:href="#d"/>
<use x="191.912109" xlink:href="#e"/>
<use x="253.191406" xlink:href="#v"/>
<use x="305.291016" xlink:href="#d"/>
<use x="366.814453" xlink:href="#ak"/>
</g>
</g>
<g clip-path="url(#a)">
<g transform="translate(1128.5 816.53) scale(.1 -.1)">
<use xlink:href="#g"/>
<use x="27.783203" xlink:href="#f"/>
</g>
</g>
<g clip-path="url(#a)">
<g transform="translate(1156.6 816.53) scale(.1 -.1)">
<use xlink:href="#an"/>
<use x="57.441406" xlink:href="#d"/>
<use x="118.964844" xlink:href="#ag"/>
<use x="182.441406" xlink:href="#h"/>
<use x="223.554688" xlink:href="#ae"/>
<use x="286.933594" xlink:href="#e"/>
<use x="348.212891" xlink:href="#h"/>
<use x="389.326172" xlink:href="#ad"/>
</g>
</g>
<g clip-path="url(#a)">
<defs>
<path id="m" d="m19.188 8.2969h34.422v-8.2969h-46.281v8.2969q5.6094 5.8125 15.297 15.594 9.7031 9.7969 12.188 12.641 4.7344 5.3125 6.6094 9 1.8906 3.6875 1.8906 7.25 0 5.8125-4.0781 9.4688-4.0781 3.6719-10.625 3.6719-4.6406 0-9.7969-1.6094-5.1406-1.6094-11-4.8906v9.9688q5.9531 2.3906 11.125 3.6094 5.1875 1.2188 9.4844 1.2188 11.328 0 18.062-5.6719 6.7344-5.6562 6.7344-15.125 0-4.5-1.6875-8.5312-1.6719-4.0156-6.125-9.4844-1.2188-1.4219-7.7656-8.1875-6.5312-6.7656-18.453-18.922z"/>
<path id="ac" d="m31.781 66.406q-7.6094 0-11.453-7.5-3.8281-7.4844-3.8281-22.531 0-14.984 3.8281-22.484 3.8438-7.5 11.453-7.5 7.6719 0 11.5 7.5 3.8438 7.5 3.8438 22.484 0 15.047-3.8438 22.531-3.8281 7.5-11.5 7.5zm0 7.8125q12.266 0 18.734-9.7031 6.4688-9.6875 6.4688-28.141 0-18.406-6.4688-28.109-6.4688-9.6875-18.734-9.6875-12.25 0-18.719 9.6875-6.4688 9.7031-6.4688 28.109 0 18.453 6.4688 28.141 6.4688 9.7031 18.719 9.7031z"/>
<path id="c" d="m12.406 8.2969h16.109v55.625l-17.531-3.5156v8.9844l17.438 3.5156h9.8594v-64.609h16.109v-8.2969h-41.984z"/>
</defs>
<g transform="translate(1212.4 816.53) scale(.1 -.1)">
<use xlink:href="#m"/>
<use x="63.623047" xlink:href="#ac"/>
<use x="127.246094" xlink:href="#c"/>
<use x="190.869141" xlink:href="#m"/>
</g>
</g>
<g clip-path="url(#a)">
<defs>
<path id="ax" d="m11.719 12.406h10.297v-8.4062l-8-15.625h-6.2969l4 15.625z"/>
</defs>
<g transform="translate(1269.6 816.53) scale(.1 -.1)">
<use xlink:href="#ax"/>
</g>
</g>
<g clip-path="url(#a)">
<defs>
<path id="ba" d="m45.406 27.984q0 9.7656-4.0312 15.125-4.0156 5.375-11.297 5.375-7.2188 0-11.25-5.375-4.0312-5.3594-4.0312-15.125 0-9.7188 4.0312-15.094t11.25-5.375q7.2812 0 11.297 5.375 4.0312 5.375 4.0312 15.094zm8.9844-21.203q0-13.953-6.2031-20.766-6.1875-6.8125-18.984-6.8125-4.7344 0-8.9375 0.70312t-8.1562 2.1719v8.7344q3.9531-2.1406 7.8125-3.1562 3.8594-1.0312 7.8594-1.0312 8.8438 0 13.234 4.6094t4.3906 13.938v4.4531q-2.7812-4.8438-7.125-7.2344t-10.406-2.3906q-10.047 0-16.203 7.6562-6.1562 7.6719-6.1562 20.328 0 12.688 6.1562 20.344 6.1562 7.6719 16.203 7.6719 6.0625 0 10.406-2.3906t7.125-7.2188v8.2969h8.9844z"/>
</defs>
<g transform="translate(1303.4 816.53) scale(.1 -.1)">
<use xlink:href="#e"/>
<use x="61.279297" xlink:href="#i"/>
<use x="89.0625" xlink:href="#q"/>
<use x="150.244141" xlink:href="#f"/>
<use x="213.623047" xlink:href="#ba"/>
</g>
</g>
<g clip-path="url(#a)">
<defs>
<path id="ay" d="m4.2031 54.688h8.9844l11.234-42.672 11.172 42.672h10.594l11.234-42.672 11.188 42.672h8.9844l-14.312-54.688h-10.594l-11.766 44.828-11.812-44.828h-10.609z"/>
</defs>
<g transform="translate(1352.7 816.53) scale(.1 -.1)">
<use xlink:href="#ay"/>
<use x="81.787109" xlink:href="#g"/>
<use x="109.570312" xlink:href="#o"/>
<use x="148.779297" xlink:href="#af"/>
</g>
</g>
<g clip-path="url(#a)">
<defs>
<path id="at" d="m9.8125 72.906h13.281l32.328-60.984v60.984h9.5625v-72.906h-13.281l-32.312 60.984v-60.984h-9.5781z"/>
</defs>
<g transform="translate(1391.6 816.53) scale(.1 -.1)">
<use xlink:href="#at"/>
<use x="74.804688" xlink:href="#e"/>
<use x="136.083984" xlink:href="#o"/>
<use x="175.292969" xlink:href="#e"/>
<use x="236.572266" xlink:href="#i"/>
<use x="264.355469" xlink:href="#g"/>
<use x="292.138672" xlink:href="#d"/>
</g>
</g>
<g clip-path="url(#a)">
<g transform="translate(1434.2 816.53) scale(.1 -.1)">
<use xlink:href="#t"/>
<use x="60.255859" xlink:href="#q"/>
<use x="121.4375" xlink:href="#h"/>
<use x="162.550781" xlink:href="#o"/>
<use x="201.759766" xlink:href="#k"/>
<use x="299.171875" xlink:href="#e"/>
<use x="360.451172" xlink:href="#f"/>
</g>
</g>
<g clip-path="url(#a)">
<defs>
<path id="j" d="m10.688 12.406h10.312v-12.406h-10.312z"/>
</defs>
<g transform="translate(1499.8 816.53) scale(.1 -.1)">
<use xlink:href="#j"/>
</g>
</g>
<g clip-path="url(#a)">
<g transform="translate(572.47 42.322) scale(.1 -.1)">
<use xlink:href="#c"/>
<use x="63.623047" xlink:href="#j"/>
<use x="95.410156" xlink:href="#c"/>
</g>
</g>
<g clip-path="url(#a)">
<g transform="translate(572.47 160.42) scale(.1 -.1)">
<use xlink:href="#c"/>
<use x="63.623047" xlink:href="#j"/>
<use x="95.410156" xlink:href="#m"/>
</g>
</g>
<g clip-path="url(#a)">
<defs>
<path id="n" d="m40.578 39.312q7.0781-1.5156 11.047-6.3125 3.9844-4.7812 3.9844-11.812 0-10.781-7.4219-16.703-7.4219-5.9062-21.094-5.9062-4.5781 0-9.4375 0.90625t-10.031 2.7188v9.5156q4.0938-2.3906 8.9688-3.6094 4.8906-1.2188 10.219-1.2188 9.2656 0 14.125 3.6562t4.8594 10.641q0 6.4531-4.5156 10.078-4.5156 3.6406-12.562 3.6406h-8.5v8.1094h8.8906q7.2656 0 11.125 2.9062t3.8594 8.375q0 5.6094-3.9844 8.6094-3.9688 3.0156-11.391 3.0156-4.0625 0-8.7031-0.89062-4.6406-0.875-10.203-2.7188v8.7812q5.625 1.5625 10.531 2.3438t9.25 0.78125q11.234 0 17.766-5.1094 6.5469-5.0938 6.5469-13.781 0-6.0625-3.4688-10.234t-9.8594-5.7812z"/>
</defs>
<g transform="translate(65.923 710.5) scale(.1 -.1)">
<use xlink:href="#c"/>
<use x="63.623047" xlink:href="#j"/>
<use x="95.410156" xlink:href="#n"/>
</g>
</g>
<g clip-path="url(#a)">
<defs>
<path id="w" d="m37.797 64.312-24.906-38.922h24.906zm-2.5938 8.5938h12.406v-47.516h10.406v-8.2031h-10.406v-17.188h-9.8125v17.188h-32.906v9.5156z"/>
</defs>
<g transform="translate(111.97 710.5) scale(.1 -.1)">
<use xlink:href="#c"/>
<use x="63.623047" xlink:href="#j"/>
<use x="95.410156" xlink:href="#w"/>
</g>
</g>
<g clip-path="url(#a)">
<defs>
<path id="ab" d="m10.797 72.906h38.719v-8.3125h-29.688v-17.859q2.1406 0.73438 4.2812 1.0938 2.1562 0.35938 4.3125 0.35938 12.203 0 19.328-6.6875 7.1406-6.6875 7.1406-18.109 0-11.766-7.3281-18.297-7.3281-6.5156-20.656-6.5156-4.5938 0-9.3594 0.78125-4.75 0.78125-9.8281 2.3438v9.9219q4.3906-2.3906 9.0781-3.5625t9.9062-1.1719q8.4531 0 13.375 4.4375 4.9375 4.4375 4.9375 12.062 0 7.6094-4.9375 12.047-4.9219 4.4531-13.375 4.4531-3.9531 0-7.8906-0.875-3.9219-0.875-8.0156-2.7344z"/>
</defs>
<g transform="translate(158.02 710.5) scale(.1 -.1)">
<use xlink:href="#c"/>
<use x="63.623047" xlink:href="#j"/>
<use x="95.410156" xlink:href="#ab"/>
</g>
</g>
<g clip-path="url(#a)">
<defs>
<path id="aa" d="m33.016 40.375q-6.6406 0-10.531-4.5469-3.875-4.5312-3.875-12.438 0-7.8594 3.875-12.438 3.8906-4.5625 10.531-4.5625t10.516 4.5625q3.875 4.5781 3.875 12.438 0 7.9062-3.875 12.438-3.875 4.5469-10.516 4.5469zm19.578 30.922v-8.9844q-3.7188 1.75-7.5 2.6719-3.7812 0.9375-7.5 0.9375-9.7656 0-14.922-6.5938-5.1406-6.5938-5.875-19.922 2.875 4.25 7.2188 6.5156 4.3594 2.2656 9.5781 2.2656 10.984 0 17.359-6.6719 6.375-6.6562 6.375-18.125 0-11.234-6.6406-18.031-6.6406-6.7812-17.672-6.7812-12.656 0-19.344 9.6875-6.6875 9.7031-6.6875 28.109 0 17.281 8.2031 27.562t22.016 10.281q3.7188 0 7.5-0.73438t7.8906-2.1875z"/>
</defs>
<g transform="translate(418.97 275.34) scale(.1 -.1)">
<use xlink:href="#c"/>
<use x="63.623047" xlink:href="#j"/>
<use x="95.410156" xlink:href="#aa"/>
</g>
</g>
<g clip-path="url(#a)">
<defs>
<path id="z" d="m8.2031 72.906h46.875v-4.2031l-26.469-68.703h-10.297l24.906 64.594h-35.016z"/>
</defs>
<g transform="translate(1416.7 496.98) scale(.1 -.1)">
<use xlink:href="#c"/>
<use x="63.623047" xlink:href="#j"/>
<use x="95.410156" xlink:href="#z"/>
</g>
</g>
<g clip-path="url(#a)">
<defs>
<path id="y" d="m10.984 1.5156v8.9844q3.7188-1.7656 7.5156-2.6875 3.8125-0.92188 7.4844-0.92188 9.7656 0 14.906 6.5625 5.1562 6.5625 5.8906 19.953-2.8281-4.2031-7.1875-6.4531-4.3438-2.25-9.6094-2.25-10.938 0-17.312 6.6094-6.375 6.625-6.375 18.109 0 11.219 6.6406 18 6.6406 6.7969 17.672 6.7969 12.656 0 19.312-9.7031 6.6719-9.6875 6.6719-28.141 0-17.234-8.1875-27.516-8.1719-10.281-21.984-10.281-3.7188 0-7.5312 0.73438-3.7969 0.73438-7.9062 2.2031zm19.625 30.906q6.6406 0 10.516 4.5312 3.8906 4.5469 3.8906 12.469 0 7.8594-3.8906 12.422-3.875 4.5625-10.516 4.5625t-10.516-4.5625-3.875-12.422q0-7.9219 3.875-12.469 3.875-4.5312 10.516-4.5312z"/>
</defs>
<g transform="translate(1332.3 604.48) scale(.1 -.1)">
<use xlink:href="#c"/>
<use x="63.623047" xlink:href="#j"/>
<use x="95.410156" xlink:href="#y"/>
</g>
</g>
<g clip-path="url(#a)">
<g transform="translate(1421.2 710.5) scale(.1 -.1)">
<use xlink:href="#c"/>
<use x="63.623047" xlink:href="#j"/>
<use x="95.410156" xlink:href="#c"/>
<use x="159.033203" xlink:href="#ac"/>
</g>
</g>
<g clip-path="url(#a)">
<g transform="translate(1306.1 710.5) scale(.1 -.1)">
<use xlink:href="#c"/>
<use x="63.623047" xlink:href="#j"/>
<use x="95.410156" xlink:href="#c"/>
<use x="159.033203" xlink:href="#m"/>
</g>
</g>
<g clip-path="url(#a)">
<g transform="translate(1352.1 710.5) scale(.1 -.1)">
<use xlink:href="#c"/>
<use x="63.623047" xlink:href="#j"/>
<use x="95.410156" xlink:href="#c"/>
<use x="159.033203" xlink:href="#n"/>
</g>
</g>
<g clip-path="url(#a)">
<g transform="translate(200.89 710.5) scale(.1 -.1)">
<use xlink:href="#c"/>
<use x="63.623047" xlink:href="#j"/>
<use x="95.410156" xlink:href="#c"/>
<use x="159.033203" xlink:href="#w"/>
</g>
</g>
<g clip-path="url(#a)">
<g transform="translate(246.94 710.5) scale(.1 -.1)">
<use xlink:href="#c"/>
<use x="63.623047" xlink:href="#j"/>
<use x="95.410156" xlink:href="#c"/>
<use x="159.033203" xlink:href="#ab"/>
</g>
</g>
<g clip-path="url(#a)">
<g transform="translate(292.99 710.5) scale(.1 -.1)">
<use xlink:href="#c"/>
<use x="63.623047" xlink:href="#j"/>
<use x="95.410156" xlink:href="#c"/>
<use x="159.033203" xlink:href="#aa"/>
</g>
</g>
<g clip-path="url(#a)">
<g transform="translate(339.04 710.5) scale(.1 -.1)">
<use xlink:href="#c"/>
<use x="63.623047" xlink:href="#j"/>
<use x="95.410156" xlink:href="#c"/>
<use x="159.033203" xlink:href="#z"/>
</g>
</g>
<g clip-path="url(#a)">
<defs>
<path id="aj" d="m31.781 34.625q-7.0312 0-11.062-3.7656-4.0156-3.7656-4.0156-10.344 0-6.5938 4.0156-10.359 4.0312-3.7656 11.062-3.7656t11.078 3.7812q4.0625 3.7969 4.0625 10.344 0 6.5781-4.0312 10.344-4.0156 3.7656-11.109 3.7656zm-9.8594 4.1875q-6.3438 1.5625-9.8906 5.9062-3.5312 4.3594-3.5312 10.609 0 8.7344 6.2188 13.812 6.2344 5.0781 17.062 5.0781 10.891 0 17.094-5.0781t6.2031-13.812q0-6.25-3.5469-10.609-3.5312-4.3438-9.8281-5.9062 7.125-1.6562 11.094-6.5 3.9844-4.8281 3.9844-11.797 0-10.609-6.4688-16.281-6.4688-5.6562-18.531-5.6562-12.047 0-18.531 5.6562-6.4688 5.6719-6.4688 16.281 0 6.9688 4 11.797 4.0156 4.8438 11.141 6.5zm-3.6094 15.578q0-5.6562 3.5312-8.8281 3.5469-3.1719 9.9375-3.1719 6.3594 0 9.9375 3.1719 3.5938 3.1719 3.5938 8.8281 0 5.6719-3.5938 8.8438-3.5781 3.1719-9.9375 3.1719-6.3906 0-9.9375-3.1719-3.5312-3.1719-3.5312-8.8438z"/>
</defs>
<g transform="translate(438.81 604.48) scale(.1 -.1)">
<use xlink:href="#c"/>
<use x="63.623047" xlink:href="#j"/>
<use x="95.410156" xlink:href="#c"/>
<use x="159.033203" xlink:href="#aj"/>
</g>
</g>
<g clip-path="url(#a)">
<g transform="translate(822.56 387.4) scale(.1 -.1)">
<use xlink:href="#c"/>
<use x="63.623047" xlink:href="#j"/>
<use x="95.410156" xlink:href="#c"/>
<use x="159.033203" xlink:href="#y"/>
</g>
</g>
<g clip-path="url(#a)">
<g transform="translate(615.34 710.5) scale(.1 -.1)">
<use xlink:href="#c"/>
<use x="63.623047" xlink:href="#j"/>
<use x="95.410156" xlink:href="#m"/>
<use x="159.033203" xlink:href="#c"/>
</g>
</g>
<g clip-path="url(#a)">
<g transform="translate(661.39 710.5) scale(.1 -.1)">
<use xlink:href="#c"/>
<use x="63.623047" xlink:href="#j"/>
<use x="95.410156" xlink:href="#m"/>
<use x="159.033203" xlink:href="#m"/>
</g>
</g>
<g clip-path="url(#a)">
<g transform="translate(707.43 710.5) scale(.1 -.1)">
<use xlink:href="#c"/>
<use x="63.623047" xlink:href="#j"/>
<use x="95.410156" xlink:href="#m"/>
<use x="159.033203" xlink:href="#n"/>
</g>
</g>
<g clip-path="url(#a)">
<g transform="translate(822.56 710.5) scale(.1 -.1)">
<use xlink:href="#c"/>
<use x="63.623047" xlink:href="#j"/>
<use x="95.410156" xlink:href="#m"/>
<use x="159.033203" xlink:href="#w"/>
</g>
</g>
<g clip-path="url(#a)">
<g transform="translate(1110.4 496.98) scale(.1 -.1)">
<use xlink:href="#c"/>
<use x="63.623047" xlink:href="#j"/>
<use x="95.410156" xlink:href="#m"/>
<use x="159.033203" xlink:href="#ab"/>
</g>
</g>
<g clip-path="url(#a)">
<g transform="translate(1018.3 496.98) scale(.1 -.1)">
<use xlink:href="#c"/>
<use x="63.623047" xlink:href="#j"/>
<use x="95.410156" xlink:href="#m"/>
<use x="159.033203" xlink:href="#aa"/>
</g>
</g>
<g clip-path="url(#a)">
<g transform="translate(1075.8 710.5) scale(.1 -.1)">
<use xlink:href="#c"/>
<use x="63.623047" xlink:href="#j"/>
<use x="95.410156" xlink:href="#m"/>
<use x="159.033203" xlink:href="#z"/>
</g>
</g>
<g clip-path="url(#a)">
<g transform="translate(1156.4 604.48) scale(.1 -.1)">
<use xlink:href="#c"/>
<use x="63.623047" xlink:href="#j"/>
<use x="95.410156" xlink:href="#m"/>
<use x="159.033203" xlink:href="#aj"/>
</g>
</g>
<g clip-path="url(#a)">
<g transform="translate(1121.9 710.5) scale(.1 -.1)">
<use xlink:href="#c"/>
<use x="63.623047" xlink:href="#j"/>
<use x="95.410156" xlink:href="#m"/>
<use x="159.033203" xlink:href="#y"/>
</g>
</g>
<g clip-path="url(#a)">
<g transform="translate(1191 710.5) scale(.1 -.1)">
<use xlink:href="#c"/>
<use x="63.623047" xlink:href="#j"/>
<use x="95.410156" xlink:href="#n"/>
<use x="159.033203" xlink:href="#ac"/>
</g>
</g>
<g clip-path="url(#a)">
<defs>
<path id="ai" d="m9.8125 72.906h9.8594v-72.906h-9.8594z"/>
<path id="au" d="m9.8125 72.906h9.8594v-64.609h35.5v-8.2969h-45.359z"/>
</defs>
<g transform="translate(1526.4 816.53) scale(.1 -.1)">
<use xlink:href="#ai"/>
<use x="29.492188" xlink:href="#ah"/>
<use x="115.771484" xlink:href="#t"/>
<use x="176.074219" xlink:href="#au"/>
<use x="231.787109" xlink:href="#ai"/>
<use x="261.279297" xlink:href="#p"/>
<use x="331.103516" xlink:href="#ai"/>
<use x="360.595703" xlink:href="#l"/>
</g>
</g>
<g clip-path="url(#a)">
<g transform="translate(972.22 604.48) scale(.1 -.1)">
<use xlink:href="#c"/>
<use x="63.623047" xlink:href="#j"/>
<use x="95.410156" xlink:href="#n"/>
<use x="159.033203" xlink:href="#m"/>
</g>
</g>
<g clip-path="url(#a)">
<g transform="translate(937.68 710.5) scale(.1 -.1)">
<use xlink:href="#c"/>
<use x="63.623047" xlink:href="#j"/>
<use x="95.410156" xlink:href="#n"/>
<use x="159.033203" xlink:href="#n"/>
</g>
</g>
<g clip-path="url(#a)">
<g transform="translate(1006.8 710.5) scale(.1 -.1)">
<use xlink:href="#c"/>
<use x="63.623047" xlink:href="#j"/>
<use x="95.410156" xlink:href="#n"/>
<use x="159.033203" xlink:href="#w"/>
</g>
</g>
<g clip-path="url(#a)">
<g transform="translate(385.09 710.5) scale(.1 -.1)">
<use xlink:href="#c"/>
<use x="63.623047" xlink:href="#j"/>
<use x="95.410156" xlink:href="#n"/>
<use x="159.033203" xlink:href="#ab"/>
</g>
</g>
<g clip-path="url(#a)">
<g transform="translate(500.21 710.5) scale(.1 -.1)">
<use xlink:href="#c"/>
<use x="63.623047" xlink:href="#j"/>
<use x="95.410156" xlink:href="#n"/>
<use x="159.033203" xlink:href="#aa"/>
</g>
</g>
<g clip-path="url(#a)">
<g transform="translate(431.14 710.5) scale(.1 -.1)">
<use xlink:href="#c"/>
<use x="63.623047" xlink:href="#j"/>
<use x="95.410156" xlink:href="#n"/>
<use x="159.033203" xlink:href="#z"/>
</g>
</g>
<g clip-path="url(#a)">
<g transform="translate(569.29 710.5) scale(.1 -.1)">
<use xlink:href="#c"/>
<use x="63.623047" xlink:href="#j"/>
<use x="95.410156" xlink:href="#n"/>
<use x="159.033203" xlink:href="#aj"/>
</g>
</g>
<g clip-path="url(#a)">
<g transform="translate(1260 710.5) scale(.1 -.1)">
<use xlink:href="#c"/>
<use x="63.623047" xlink:href="#j"/>
<use x="95.410156" xlink:href="#n"/>
<use x="159.033203" xlink:href="#y"/>
</g>
</g>
<g clip-path="url(#a)">
<g transform="translate(1490.3 710.5) scale(.1 -.1)">
<use xlink:href="#c"/>
<use x="63.623047" xlink:href="#j"/>
<use x="95.410156" xlink:href="#w"/>
<use x="159.033203" xlink:href="#ac"/>
</g>
</g>
<defs>
<clipPath id="a">
<rect width="1621.3" height="853.33"/>
</clipPath>
</defs>
</svg>
