<?xml version="1.0" encoding="UTF-8"?>
<!DOCTYPE svg  PUBLIC '-//W3C//DTD SVG 1.1//EN'  'http://www.w3.org/Graphics/SVG/1.1/DTD/svg11.dtd'>
<svg width="2077.3pt" height="1093.3pt" version="1.1" viewBox="0 0 2077.3 1093.3" xmlns="http://www.w3.org/2000/svg" xmlns:xlink="http://www.w3.org/1999/xlink">
<defs>
<style type="text/css">*{stroke-linecap:butt;stroke-linejoin:round;}</style>
</defs>
<path d="m0 1093.3h2077.3v-1093.3h-2077.3z" fill="#fff"/>
<g fill="none" stroke="#000">
<path d="m653.46 50.611-355.46 343.23" clip-path="url(#a)"/>
<path d="m653.46 50.611 196.39 831.79" clip-path="url(#a)"/>
<path d="m653.46 50.611 159.07 173.77" clip-path="url(#a)"/>
<path d="m298 393.84-203.43 488.56" clip-path="url(#a)"/>
<path d="m298 393.84-156.23 488.56" clip-path="url(#a)"/>
<path d="m298 393.84-109.02 488.56" clip-path="url(#a)"/>
<path d="m298 393.84-61.816 488.56" clip-path="url(#a)"/>
<path d="m298 393.84-14.611 488.56" clip-path="url(#a)"/>
<path d="m298 393.84 111.27 165.68" clip-path="url(#a)"/>
<path d="m298 393.84 433.84 328.24" clip-path="url(#a)"/>
<path d="m849.85 882.4v160.32" clip-path="url(#a)"/>
<path d="m812.53 224.38 84.527 658.02" clip-path="url(#a)"/>
<path d="m812.53 224.38 155.33 497.69" clip-path="url(#a)"/>
<path d="m812.53 224.38 478.1 169.46" clip-path="url(#a)"/>
<path d="m812.53 224.38-717.96 658.02" clip-path="url(#a)" stroke-dasharray="3.7,1.6"/>
<path d="m897.05 882.4v160.32" clip-path="url(#a)"/>
<path d="m967.86 722.08-23.603 160.32" clip-path="url(#a)"/>
<path d="m967.86 722.08 23.603 160.32" clip-path="url(#a)"/>
<path d="m1290.6 393.84-251.96 488.56" clip-path="url(#a)"/>
<path d="m1290.6 393.84-133.94 328.24" clip-path="url(#a)"/>
<path d="m1290.6 393.84 7.6708 488.56" clip-path="url(#a)"/>
<path d="m1290.6 393.84 299.75 165.68" clip-path="url(#a)"/>
<path d="m1290.6 393.84 78.478 488.56" clip-path="url(#a)"/>
<path d="m1038.7 882.4v160.32" clip-path="url(#a)"/>
<path d="m1156.7 722.08-70.808 160.32" clip-path="url(#a)"/>
<path d="m1156.7 722.08v160.32" clip-path="url(#a)"/>
<path d="m1156.7 722.08 70.808 160.32" clip-path="url(#a)"/>
<path d="m1298.3 882.4-23.603 160.32" clip-path="url(#a)"/>
<path d="m1298.3 882.4 23.603 160.32" clip-path="url(#a)"/>
<path d="m1590.4 559.52-292.08 322.88" clip-path="url(#a)" stroke-dasharray="3.7,1.6"/>
<path d="m1590.4 559.52-150.47 322.88" clip-path="url(#a)"/>
<path d="m1590.4 559.52-79.658 322.88" clip-path="url(#a)"/>
<path d="m1590.4 559.52-32.453 322.88" clip-path="url(#a)"/>
<path d="m1590.4 559.52 85.559 322.88" clip-path="url(#a)"/>
<path d="m1590.4 559.52 297.98 162.55" clip-path="url(#a)"/>
<path d="m1590.4 559.52 14.752 322.88" clip-path="url(#a)"/>
<path d="m1590.4 559.52 156.37 322.88" clip-path="url(#a)"/>
<path d="m1439.9 882.4-23.603 160.32" clip-path="url(#a)"/>
<path d="m1439.9 882.4 23.603 160.32" clip-path="url(#a)"/>
<path d="m1510.7 882.4v160.32" clip-path="url(#a)"/>
<path d="m1557.9 882.4v160.32" clip-path="url(#a)"/>
<path d="m1675.9 882.4-23.603 160.32" clip-path="url(#a)"/>
<path d="m1675.9 882.4 23.603 160.32" clip-path="url(#a)"/>
<path d="m1888.4 722.08-94.41 160.32" clip-path="url(#a)"/>
<path d="m1888.4 722.08-47.205 160.32" clip-path="url(#a)"/>
<path d="m1888.4 722.08v160.32" clip-path="url(#a)"/>
<path d="m1888.4 722.08 47.205 160.32" clip-path="url(#a)"/>
<path d="m1888.4 722.08 94.41 160.32" clip-path="url(#a)"/>
<path d="m1793.9 882.4v160.32" clip-path="url(#a)"/>
<path d="m1841.2 882.4v160.32" clip-path="url(#a)"/>
<path d="m1888.4 882.4v160.32" clip-path="url(#a)"/>
<path d="m1935.6 882.4v160.32" clip-path="url(#a)"/>
<path d="m1085.9 882.4v160.32" clip-path="url(#a)"/>
<path d="m1156.7 882.4-23.603 160.32" clip-path="url(#a)"/>
<path d="m1156.7 882.4 23.603 160.32" clip-path="url(#a)"/>
<path d="m1227.5 882.4v160.32" clip-path="url(#a)"/>
<path d="m944.26 882.4v160.32" clip-path="url(#a)"/>
<path d="m991.46 882.4v160.32" clip-path="url(#a)"/>
<path d="m94.566 882.4v160.32" clip-path="url(#a)"/>
<path d="m141.77 882.4v160.32" clip-path="url(#a)"/>
<path d="m188.98 882.4v160.32" clip-path="url(#a)"/>
<path d="m236.18 882.4v160.32" clip-path="url(#a)"/>
<path d="m283.39 882.4v160.32" clip-path="url(#a)"/>
<path d="m409.27 559.52-78.675 322.88" clip-path="url(#a)"/>
<path d="m409.27 559.52-31.47 162.55" clip-path="url(#a)"/>
<path d="m409.27 559.52 110.15 162.55" clip-path="url(#a)"/>
<path d="m731.83 722.08-70.808 160.32" clip-path="url(#a)"/>
<path d="m731.83 722.08-23.603 160.32" clip-path="url(#a)"/>
<path d="m731.83 722.08 23.603 160.32" clip-path="url(#a)"/>
<path d="m731.83 722.08 70.808 160.32" clip-path="url(#a)"/>
<path d="m661.03 882.4v160.32" clip-path="url(#a)"/>
<path d="m708.23 882.4v160.32" clip-path="url(#a)"/>
<path d="m755.44 882.4v160.32" clip-path="url(#a)"/>
<path d="m802.64 882.4v160.32" clip-path="url(#a)"/>
<path d="m330.59 882.4v160.32" clip-path="url(#a)"/>
<path d="m377.8 722.08v160.32" clip-path="url(#a)"/>
<path d="m519.41 722.08-70.808 160.32" clip-path="url(#a)"/>
<path d="m519.41 722.08v160.32" clip-path="url(#a)"/>
<path d="m519.41 722.08 70.808 160.32" clip-path="url(#a)"/>
<path d="m448.6 882.4-23.603 160.32" clip-path="url(#a)"/>
<path d="m448.6 882.4 23.603 160.32" clip-path="url(#a)"/>
<path d="m519.41 882.4v160.32" clip-path="url(#a)"/>
<path d="m590.22 882.4-23.603 160.32" clip-path="url(#a)"/>
<path d="m590.22 882.4 23.603 160.32" clip-path="url(#a)"/>
<path d="m377.8 882.4v160.32" clip-path="url(#a)"/>
<path d="m1369.1 882.4v160.32" clip-path="url(#a)"/>
<path d="m1605.1 882.4v160.32" clip-path="url(#a)"/>
<path d="m1746.7 882.4v160.32" clip-path="url(#a)"/>
<path d="m1982.8 882.4v160.32" clip-path="url(#a)"/>
</g>
<path d="m477.92 228.83 4.3279-4.179q1.7265-1.6671 0.059399-3.3936l-5.3781-5.5697q-1.6671-1.7265-3.3936-0.059399l-4.3279 4.179q-1.7265 1.6671-0.0594 3.3936l5.3781 5.5697q1.6671 1.7265 3.3936 0.0594z" clip-path="url(#a)" fill="#fff" stroke="#fff"/>
<g clip-path="url(#a)">
<defs>
<path id="am" d="m9.8125 72.906h9.8594v-29.891h35.844v29.891h9.8594v-72.906h-9.8594v34.719h-35.844v-34.719h-9.8594z"/>
</defs>
<g transform="translate(475.1 225.9) rotate(-43.997) scale(.08 -.08)">
<use xlink:href="#am"/>
</g>
</g>
<path d="m745.04 465.78 1.0243 4.3382q0.55149 2.3358 2.8873 1.7843l7.5353-1.7791q2.3358-0.55149 1.7843-2.8873l-1.0243-4.3382q-0.55149-2.3358-2.8873-1.7843l-7.5353 1.7791q-2.3358 0.55149-1.7843 2.8873z" clip-path="url(#a)" fill="#fff" stroke="#fff"/>
<g clip-path="url(#a)">
<defs>
<path id="aw" d="m9.8125 72.906h9.8594v-64.609h35.5v-8.2969h-45.359z"/>
</defs>
<g transform="translate(748.99 464.84) rotate(76.715) scale(.08 -.08)">
<use xlink:href="#aw"/>
</g>
</g>
<path d="m726.33 139.51 4.0622 4.4377q1.6205 1.7703 3.3908 0.14978l5.711-5.2278q1.7703-1.6205 0.14978-3.3908l-4.0622-4.4377q-1.6205-1.7703-3.3908-0.14978l-5.711 5.2278q-1.7703 1.6205-0.14978 3.3908z" clip-path="url(#a)" fill="#fff" stroke="#fff"/>
<g clip-path="url(#a)">
<g transform="translate(729.33 136.77) rotate(47.529) scale(.08 -.08)">
<use xlink:href="#am"/>
</g>
</g>
<path d="m201.02 643.06 2.1036-5.052q0.92256-2.2156-1.293-3.1382l-7.1476-2.9762q-2.2156-0.92256-3.1382 1.293l-2.1036 5.052q-0.92256 2.2156 1.293 3.1382l7.1476 2.9762q2.2156 0.92256 3.1382-1.293z" clip-path="url(#a)" fill="#fff" stroke="#fff"/>
<g clip-path="url(#a)">
<defs>
<path id="q" d="m34.188 63.188-13.391-36.281h26.812zm-5.5781 9.7188h11.188l27.781-72.906h-10.25l-6.6406 18.703h-32.859l-6.6406-18.703h-10.406z"/>
</defs>
<g transform="translate(197.27 641.49) rotate(-67.394) scale(.08 -.08)">
<use xlink:href="#q"/>
</g>
</g>
<path d="m225.16 642.22 1.4014-4.3826q0.73098-2.286-1.555-3.017l-7.3746-2.3582q-2.286-0.73098-3.017 1.555l-1.4014 4.3826q-0.73098 2.286 1.555 3.017l7.3746 2.3582q2.286 0.73098 3.017-1.555z" clip-path="url(#a)" fill="#fff" stroke="#fff"/>
<g clip-path="url(#a)">
<defs>
<path id="ah" d="m9.8125 72.906h41.891v-8.3125h-32.031v-21.484h28.906v-8.2969h-28.906v-34.812h-9.8594z"/>
</defs>
<g transform="translate(221.29 640.98) rotate(-72.267) scale(.08 -.08)">
<use xlink:href="#ah"/>
</g>
</g>
<path d="m249.08 641.87 1.0642-4.769q0.5227-2.3424-1.8197-2.8651l-7.5566-1.6863q-2.3424-0.5227-2.8651 1.8197l-1.0642 4.769q-0.5227 2.3424 1.8197 2.8651l7.5566 1.6863q2.3424 0.5227 2.8651-1.8197z" clip-path="url(#a)" fill="#fff" stroke="#fff"/>
<g clip-path="url(#a)">
<defs>
<path id="k" d="m-0.29688 72.906h61.672v-8.3125h-25.875v-64.594h-9.9062v64.594h-25.891z"/>
</defs>
<g transform="translate(245.11 640.99) rotate(-77.421) scale(.08 -.08)">
<use xlink:href="#k"/>
</g>
</g>
<path d="m272.92 641.96 0.77324-6.1113q0.30126-2.381-2.0798-2.6823l-7.6813-0.97189q-2.381-0.30126-2.6823 2.0798l-0.77324 6.1113q-0.30126 2.381 2.0798 2.6823l7.6813 0.97189q2.381 0.30126 2.6823-2.0798z" clip-path="url(#a)" fill="#fff" stroke="#fff"/>
<g clip-path="url(#a)">
<defs>
<path id="ba" d="m19.672 64.797v-56.688h11.922q15.094 0 22.094 6.8281 7 6.8438 7 21.594 0 14.641-7 21.453t-22.094 6.8125zm-9.8594 8.1094h20.266q21.188 0 31.094-8.8125 9.9219-8.8125 9.9219-27.562 0-18.859-9.9688-27.703-9.9531-8.8281-31.047-8.8281h-20.266z"/>
</defs>
<g transform="translate(268.89 641.45) rotate(-82.789) scale(.08 -.08)">
<use xlink:href="#ba"/>
</g>
</g>
<path d="m296.89 640.72 0.1442-4.8216q0.071744-2.3989-2.3272-2.4707l-7.739-0.23145q-2.3989-0.071744-2.4707 2.3272l-0.1442 4.8216q-0.071743 2.3989 2.3272 2.4707l7.739 0.23145q2.3989 0.071744 2.4707-2.3272z" clip-path="url(#a)" fill="#fff" stroke="#fff"/>
<g clip-path="url(#a)">
<defs>
<path id="ag" d="m19.672 64.797v-27.391h12.406q6.8906 0 10.641 3.5625 3.7656 3.5625 3.7656 10.156 0 6.5469-3.7656 10.109-3.75 3.5625-10.641 3.5625zm-9.8594 8.1094h22.266q12.266 0 18.531-5.5469 6.2812-5.5469 6.2812-16.234 0-10.797-6.2812-16.312-6.2656-5.5156-18.531-5.5156h-12.406v-29.297h-9.8594z"/>
</defs>
<g transform="translate(292.83 640.6) rotate(-88.287) scale(.08 -.08)">
<use xlink:href="#ag"/>
</g>
</g>
<path d="m346.9 477.91 3.051 4.5431q1.338 1.9924 3.3304 0.65435l6.4275-4.3166q1.9924-1.338 0.65435-3.3304l-3.051-4.5431q-1.338-1.9924-3.3304-0.65435l-6.4275 4.3166q-1.9924 1.338-0.65434 3.3304z" clip-path="url(#a)" fill="#fff" stroke="#fff"/>
<g clip-path="url(#a)">
<g transform="translate(350.27 475.64) rotate(56.116) scale(.08 -.08)">
<use xlink:href="#q"/>
</g>
</g>
<path d="m509.18 561.49 3.8966 2.9482q1.9139 1.4481 3.362-0.46587l4.6715-6.1744q1.4481-1.9139-0.46587-3.362l-3.8966-2.9482q-1.9139-1.4481-3.362 0.46587l-4.6715 6.1744q-1.4481 1.9139 0.46587 3.362z" clip-path="url(#a)" fill="#fff" stroke="#fff"/>
<g clip-path="url(#a)">
<g transform="translate(511.64 558.25) rotate(37.111) scale(.08 -.08)">
<use xlink:href="#k"/>
</g>
</g>
<path d="m843.58 944.92v35.285q0 2.4 2.4 2.4h7.7425q2.4 0 2.4-2.4v-35.285q0-2.4-2.4-2.4h-7.7425q-2.4 0-2.4 2.4z" clip-path="url(#a)" fill="#fff" stroke="#fff"/>
<g clip-path="url(#a)">
<defs>
<path id="d" d="m56.203 29.594v-4.3906h-41.312q0.59375-9.2812 5.5938-14.141t13.938-4.8594q5.1719 0 10.031 1.2656t9.6562 3.8125v-8.5q-4.8438-2.0469-9.9219-3.125t-10.297-1.0781q-13.094 0-20.734 7.6094-7.6406 7.625-7.6406 20.625 0 13.422 7.25 21.297 7.25 7.8906 19.562 7.8906 11.031 0 17.453-7.1094 6.4219-7.0938 6.4219-19.297zm-8.9844 2.6406q-0.09375 7.3594-4.125 11.75-4.0312 4.4062-10.672 4.4062-7.5156 0-12.031-4.25t-5.2031-11.969z"/>
<path id="e" d="m41.109 46.297q-1.5156 0.875-3.2969 1.2812-1.7812 0.42188-3.9219 0.42188-7.625 0-11.703-4.9531t-4.0781-14.234v-28.812h-9.0312v54.688h9.0312v-8.5q2.8438 4.9844 7.375 7.3906 4.5469 2.4219 11.047 2.4219 0.92188 0 2.0469-0.125 1.125-0.10938 2.4844-0.35938z"/>
<path id="l" d="m52 44.188q3.375 6.0625 8.0625 8.9375t11.031 2.875q8.5469 0 13.188-5.9844 4.6406-5.9688 4.6406-17v-33.016h-9.0312v32.719q0 7.8594-2.7969 11.656-2.7812 3.8125-8.4844 3.8125-6.9844 0-11.047-4.6406-4.0469-4.625-4.0469-12.641v-30.906h-9.0312v32.719q0 7.9062-2.7812 11.688t-8.5938 3.7812q-6.8906 0-10.953-4.6562-4.0469-4.6562-4.0469-12.625v-30.906h-9.0312v54.688h9.0312v-8.5q3.0781 5.0312 7.375 7.4219t10.203 2.3906q5.9688 0 10.141-3.0312 4.1719-3.0156 6.1719-8.7812z"/>
<path id="h" d="m9.4219 54.688h8.9844v-54.688h-8.9844zm0 21.297h8.9844v-11.391h-8.9844z"/>
<path id="f" d="m54.891 33.016v-33.016h-8.9844v32.719q0 7.7656-3.0312 11.609-3.0312 3.8594-9.0781 3.8594-7.2812 0-11.484-4.6406-4.2031-4.625-4.2031-12.641v-30.906h-9.0312v54.688h9.0312v-8.5q3.2344 4.9375 7.5938 7.375 4.375 2.4375 10.094 2.4375 9.4219 0 14.25-5.8281 4.8438-5.8281 4.8438-17.156z"/>
<path id="g" d="m34.281 27.484q-10.891 0-15.094-2.4844t-4.2031-8.5q0-4.7812 3.1562-7.5938 3.1562-2.7969 8.5625-2.7969 7.4844 0 12 5.2969t4.5156 14.078v2zm17.922 3.7188v-31.203h-8.9844v8.2969q-3.0781-4.9688-7.6719-7.3438t-11.234-2.375q-8.3906 0-13.359 4.7188-4.9531 4.7188-4.9531 12.625 0 9.2188 6.1719 13.906 6.1875 4.6875 18.438 4.6875h12.609v0.89062q0 6.2031-4.0781 9.5938t-11.453 3.3906q-4.6875 0-9.1406-1.125-4.4375-1.125-8.5312-3.375v8.3125q4.9219 1.9062 9.5625 2.8438 4.6406 0.95312 9.0312 0.95312 11.875 0 17.734-6.1562 5.8594-6.1406 5.8594-18.641z"/>
<path id="j" d="m9.4219 75.984h8.9844v-75.984h-8.9844z"/>
</defs>
<g transform="translate(847.64 944.92) rotate(90) scale(.08 -.08)">
<use xlink:href="#k"/>
<use x="60.818359" xlink:href="#d"/>
<use x="122.341797" xlink:href="#e"/>
<use x="163.439453" xlink:href="#l"/>
<use x="260.851562" xlink:href="#h"/>
<use x="288.634766" xlink:href="#f"/>
<use x="352.013672" xlink:href="#g"/>
<use x="413.292969" xlink:href="#j"/>
</g>
</g>
<path d="m848.26 551.8 0.61459 4.7844q0.30578 2.3804 2.6862 2.0747l7.6794-0.98647q2.3804-0.30578 2.0747-2.6862l-0.61459-4.7844q-0.30578-2.3804-2.6862-2.0747l-7.6794 0.98647q-2.3804 0.30578-2.0747 2.6862z" clip-path="url(#a)" fill="#fff" stroke="#fff"/>
<g clip-path="url(#a)">
<g transform="translate(852.29 551.28) rotate(82.68) scale(.08 -.08)">
<use xlink:href="#ag"/>
</g>
</g>
<path d="m883.48 472.77 1.4558 4.6643q0.71504 2.291 3.006 1.576l7.3909-2.3068q2.291-0.71504 1.576-3.006l-1.4558-4.6643q-0.71504-2.291-3.006-1.576l-7.3909 2.3068q-2.291 0.71504-1.576 3.006z" clip-path="url(#a)" fill="#fff" stroke="#fff"/>
<g clip-path="url(#a)">
<g transform="translate(887.36 471.56) rotate(72.666) scale(.08 -.08)">
<use xlink:href="#k"/>
</g>
</g>
<path d="m1046.9 314.11 5.1581 1.8282q2.2621 0.80179 3.0639-1.4603l2.5866-7.2977q0.80179-2.2621-1.4603-3.0639l-5.1581-1.8282q-2.2621-0.80179-3.0639 1.4603l-2.5866 7.2977q-0.80179 2.2621 1.4603 3.0639z" clip-path="url(#a)" fill="#fff" stroke="#fff"/>
<g clip-path="url(#a)">
<g transform="translate(1048.3 310.28) rotate(19.516) scale(.08 -.08)">
<use xlink:href="#q"/>
</g>
</g>
<path d="m455.77 559.86 4.0344-3.6976q1.7693-1.6216 0.14772-3.3909l-5.2313-5.7079q-1.6216-1.7693-3.3909-0.14772l-4.0344 3.6976q-1.7693 1.6216-0.14772 3.3909l5.2313 5.7079q1.6216 1.7693 3.3909 0.14772z" clip-path="url(#a)" fill="#fff" stroke="#fff"/>
<g clip-path="url(#a)">
<g transform="translate(453.02 556.87) rotate(-42.506) scale(.08 -.08)">
<use xlink:href="#q"/>
</g>
</g>
<path d="m890.78 944.92v35.285q0 2.4 2.4 2.4h7.7425q2.4 0 2.4-2.4v-35.285q0-2.4-2.4-2.4h-7.7425q-2.4 0-2.4 2.4z" clip-path="url(#a)" fill="#fff" stroke="#fff"/>
<g clip-path="url(#a)">
<g transform="translate(894.84 944.92) rotate(90) scale(.08 -.08)">
<use xlink:href="#k"/>
<use x="60.818359" xlink:href="#d"/>
<use x="122.341797" xlink:href="#e"/>
<use x="163.439453" xlink:href="#l"/>
<use x="260.851562" xlink:href="#h"/>
<use x="288.634766" xlink:href="#f"/>
<use x="352.013672" xlink:href="#g"/>
<use x="413.292969" xlink:href="#j"/>
</g>
</g>
<path d="m961.86 805.9 0.80963-5.4995q0.34956-2.3744-2.0248-2.724l-7.6599-1.1277q-2.3744-0.34956-2.724 2.0248l-0.80963 5.4995q-0.34956 2.3744 2.0248 2.724l7.6599 1.1277q2.3744 0.34956 2.724-2.0248z" clip-path="url(#a)" fill="#fff" stroke="#fff"/>
<g clip-path="url(#a)">
<defs>
<path id="t" d="m44.391 34.188q3.1719-1.0781 6.1719-4.5938t6.0312-9.6719l10.016-19.922h-10.609l-9.3125 18.703q-3.625 7.3281-7.0156 9.7188t-9.25 2.3906h-10.75v-30.812h-9.8594v72.906h22.266q12.5 0 18.656-5.2344 6.1562-5.2188 6.1562-15.766 0-6.8906-3.2031-11.438-3.2031-4.5312-9.2969-6.2812zm-24.719 30.609v-25.875h12.406q7.125 0 10.766 3.2969t3.6406 9.6875-3.6406 9.6406-10.766 3.25z"/>
</defs>
<g transform="translate(957.84 805.31) rotate(-81.625) scale(.08 -.08)">
<use xlink:href="#t"/>
</g>
</g>
<path d="m973.05 800.39 0.81363 5.5267q0.34956 2.3744 2.724 2.0248l7.6599-1.1277q2.3744-0.34956 2.0248-2.724l-0.81363-5.5267q-0.34956-2.3744-2.724-2.0248l-7.6599 1.1277q-2.3744 0.34956-2.0248 2.724z" clip-path="url(#a)" fill="#fff" stroke="#fff"/>
<g clip-path="url(#a)">
<defs>
<path id="w" d="m64.406 67.281v-10.391q-4.9844 4.6406-10.625 6.9219-5.6406 2.2969-11.984 2.2969-12.5 0-19.141-7.6406t-6.6406-22.094q0-14.406 6.6406-22.047t19.141-7.6406q6.3438 0 11.984 2.2969t10.625 6.9375v-10.312q-5.1719-3.5156-10.969-5.2812-5.7812-1.75-12.219-1.75-16.562 0-26.094 10.125-9.5156 10.141-9.5156 27.672 0 17.578 9.5156 27.703 9.5312 10.141 26.094 10.141 6.5312 0 12.312-1.7344 5.7969-1.7344 10.875-5.2031z"/>
</defs>
<g transform="translate(977.07 799.8) rotate(81.625) scale(.08 -.08)">
<use xlink:href="#w"/>
</g>
</g>
<path d="m1168.9 643.46 2.5479-4.9405q1.1-2.133-1.033-3.2331l-6.8813-3.5488q-2.133-1.1-3.2331 1.033l-2.5479 4.9405q-1.1 2.133 1.033 3.2331l6.8813 3.5488q2.133 1.1 3.2331-1.033z" clip-path="url(#a)" fill="#fff" stroke="#fff"/>
<g clip-path="url(#a)">
<g transform="translate(1165.3 641.6) rotate(-62.719) scale(.08 -.08)">
<use xlink:href="#t"/>
</g>
</g>
<path d="m1228.5 562.67 1.9099-4.6803q0.90678-2.2221-1.3153-3.1289l-7.1686-2.9253q-2.2221-0.90678-3.1289 1.3153l-1.9099 4.6803q-0.90678 2.2221 1.3153 3.1289l7.1686 2.9253q2.2221 0.90678 3.1289-1.3153z" clip-path="url(#a)" fill="#fff" stroke="#fff"/>
<g clip-path="url(#a)">
<defs>
<path id="u" d="m9.8125 72.906h46.094v-8.3125h-36.234v-21.578h34.719v-8.2969h-34.719v-26.422h37.109v-8.2969h-46.969z"/>
</defs>
<g transform="translate(1224.7 561.13) rotate(-67.801) scale(.08 -.08)">
<use xlink:href="#u"/>
</g>
</g>
<path d="m1288.1 635.43 0.087699 5.5856q0.037677 2.3997 2.4374 2.362l7.7415-0.12155q2.3997-0.037677 2.362-2.4374l-0.087698-5.5856q-0.037678-2.3997-2.4374-2.362l-7.7415 0.12155q-2.3997 0.037677-2.362 2.4374z" clip-path="url(#a)" fill="#fff" stroke="#fff"/>
<g clip-path="url(#a)">
<g transform="translate(1292.2 635.36) rotate(89.1) scale(.08 -.08)">
<use xlink:href="#w"/>
</g>
</g>
<path d="m1435.3 480.95 4.4242 2.4454q2.1005 1.161 3.2615-0.93948l3.7455-6.7763q1.161-2.1005-0.93948-3.2615l-4.4242-2.4454q-2.1005-1.161-3.2615 0.93948l-3.7455 6.7763q-1.161 2.1005 0.93948 3.2615z" clip-path="url(#a)" fill="#fff" stroke="#fff"/>
<g clip-path="url(#a)">
<g transform="translate(1437.2 477.39) rotate(28.931) scale(.08 -.08)">
<use xlink:href="#u"/>
</g>
</g>
<path d="m1323.2 636.22 0.9286 5.7809q0.38064 2.3696 2.7503 1.989l7.6445-1.228q2.3696-0.38064 1.989-2.7503l-0.9286-5.7809q-0.38064-2.3696-2.7503-1.989l-7.6445 1.228q-2.3696 0.38064-1.989 2.7503z" clip-path="url(#a)" fill="#fff" stroke="#fff"/>
<g clip-path="url(#a)">
<defs>
<path id="af" d="m8.6875 72.906h9.9219v-44.297q0-11.719 4.2344-16.875 4.25-5.1406 13.781-5.1406 9.4688 0 13.719 5.1406 4.25 5.1562 4.25 16.875v44.297h9.9062v-45.516q0-14.25-7.0625-21.531-7.0469-7.2812-20.812-7.2812-13.828 0-20.891 7.2812-7.0469 7.2812-7.0469 21.531z"/>
</defs>
<g transform="translate(1327.2 635.58) rotate(80.874) scale(.08 -.08)">
<use xlink:href="#af"/>
</g>
</g>
<path d="m1032.4 944.92v35.285q0 2.4 2.4 2.4h7.7425q2.4 0 2.4-2.4v-35.285q0-2.4-2.4-2.4h-7.7425q-2.4 0-2.4 2.4z" clip-path="url(#a)" fill="#fff" stroke="#fff"/>
<g clip-path="url(#a)">
<g transform="translate(1036.5 944.92) rotate(90) scale(.08 -.08)">
<use xlink:href="#k"/>
<use x="60.818359" xlink:href="#d"/>
<use x="122.341797" xlink:href="#e"/>
<use x="163.439453" xlink:href="#l"/>
<use x="260.851562" xlink:href="#h"/>
<use x="288.634766" xlink:href="#f"/>
<use x="352.013672" xlink:href="#g"/>
<use x="413.292969" xlink:href="#j"/>
</g>
</g>
<path d="m1125.9 807.27 2.2109-5.006q0.96962-2.1954-1.2258-3.165l-7.0825-3.128q-2.1954-0.96962-3.165 1.2258l-2.2109 5.006q-0.96962 2.1954 1.2258 3.165l7.0825 3.128q2.1954 0.96962 3.165-1.2258z" clip-path="url(#a)" fill="#fff" stroke="#fff"/>
<g clip-path="url(#a)">
<g transform="translate(1122.2 805.63) rotate(-66.171) scale(.08 -.08)">
<use xlink:href="#q"/>
</g>
</g>
<path d="m1150.4 799.5v5.4725q0 2.4 2.4 2.4h7.7425q2.4 0 2.4-2.4v-5.4725q0-2.4-2.4-2.4h-7.7425q-2.4 0-2.4 2.4z" clip-path="url(#a)" fill="#fff" stroke="#fff"/>
<g clip-path="url(#a)">
<g transform="translate(1154.5 799.5) rotate(90) scale(.08 -.08)">
<use xlink:href="#q"/>
</g>
</g>
<path d="m1183.6 798.77 5.3516 12.117q0.96962 2.1954 3.165 1.2258l7.318-3.2321q2.1954-0.96962 1.2258-3.165l-5.3516-12.117q-0.96962-2.1954-3.165-1.2258l-7.318 3.2321q-2.1954 0.96962-1.2258 3.165z" clip-path="url(#a)" fill="#fff" stroke="#fff"/>
<g clip-path="url(#a)">
<defs>
<path id="as" d="m21 76.422v-100h-8.2969v100z"/>
<path id="ak" d="m53.516 70.516v-9.625q-5.6094 2.6875-10.594 4-4.9844 1.3281-9.625 1.3281-8.0469 0-12.422-3.125t-4.375-8.8906q0-4.8438 2.9062-7.3125 2.9062-2.4531 11.016-3.9688l5.9531-1.2188q11.031-2.1094 16.281-7.4062t5.25-14.172q0-10.609-7.1094-16.078-7.0938-5.4688-20.812-5.4688-5.1719 0-11.016 1.1719-5.8281 1.1719-12.078 3.4688v10.156q6-3.3594 11.766-5.0781 5.7656-1.7031 11.328-1.7031 8.4375 0 13.031 3.3125 4.5938 3.3281 4.5938 9.4844 0 5.3594-3.2969 8.3906t-10.812 4.5469l-6.0156 1.1719q-11.031 2.1875-15.969 6.875-4.9219 4.6875-4.9219 13.047 0 9.6719 6.8125 15.234t18.766 5.5625q5.1406 0 10.453-0.9375 5.3281-0.92188 10.891-2.7656z"/>
</defs>
<g transform="translate(1187.5 797.03) rotate(66.171) scale(.08 -.08)">
<use xlink:href="#q"/>
<use x="68.408203" xlink:href="#as"/>
<use x="102.099609" xlink:href="#ak"/>
</g>
</g>
<path d="m1290.1 980.93 5.1392-34.909q0.34956-2.3744-2.0248-2.724l-7.6599-1.1277q-2.3744-0.34956-2.724 2.0248l-5.1392 34.909q-0.34956 2.3744 2.0248 2.724l7.6599 1.1277q2.3744 0.34956 2.724-2.0248z" clip-path="url(#a)" fill="#fff" stroke="#fff"/>
<g clip-path="url(#a)">
<g transform="translate(1286.1 980.34) rotate(-81.625) scale(.08 -.08)">
<use xlink:href="#k"/>
<use x="60.818359" xlink:href="#d"/>
<use x="122.341797" xlink:href="#e"/>
<use x="163.439453" xlink:href="#l"/>
<use x="260.851562" xlink:href="#h"/>
<use x="288.634766" xlink:href="#f"/>
<use x="352.013672" xlink:href="#g"/>
<use x="413.292969" xlink:href="#j"/>
</g>
</g>
<path d="m1301.3 946.02 5.1392 34.909q0.34956 2.3744 2.724 2.0248l7.6599-1.1277q2.3744-0.34956 2.0248-2.724l-5.1392-34.909q-0.34956-2.3744-2.724-2.0248l-7.6599 1.1277q-2.3744 0.34956-2.0248 2.724z" clip-path="url(#a)" fill="#fff" stroke="#fff"/>
<g clip-path="url(#a)">
<g transform="translate(1305.3 945.43) rotate(81.625) scale(.08 -.08)">
<use xlink:href="#k"/>
<use x="60.818359" xlink:href="#d"/>
<use x="122.341797" xlink:href="#e"/>
<use x="163.439453" xlink:href="#l"/>
<use x="260.851562" xlink:href="#h"/>
<use x="288.634766" xlink:href="#f"/>
<use x="352.013672" xlink:href="#g"/>
<use x="413.292969" xlink:href="#j"/>
</g>
</g>
<path d="m1447.1 727.2 3.6713-4.0583q1.6101-1.7798-0.16975-3.3899l-5.7417-5.1941q-1.7798-1.6101-3.3899 0.16975l-3.6713 4.0583q-1.6101 1.7798 0.16975 3.3899l5.7417 5.1941q1.7798 1.6101 3.3899-0.16975z" clip-path="url(#a)" fill="#fff" stroke="#fff"/>
<g clip-path="url(#a)">
<g transform="translate(1444.1 724.47) rotate(-47.867) scale(.08 -.08)">
<use xlink:href="#q"/>
</g>
</g>
<path d="m1519.7 726.13 2.348-5.0385q1.0138-2.1754-1.1616-3.1891l-7.0179-3.2705q-2.1754-1.0138-3.1891 1.1616l-2.348 5.0385q-1.0138 2.1754 1.1616 3.1891l7.0179 3.2705q2.1754 1.0138 3.1891-1.1616z" clip-path="url(#a)" fill="#fff" stroke="#fff"/>
<g clip-path="url(#a)">
<g transform="translate(1516 724.41) rotate(-65.014) scale(.08 -.08)">
<use xlink:href="#t"/>
</g>
</g>
<path d="m1556 725.12 1.3108-5.3132q0.57488-2.3301-1.7553-2.905l-7.5171-1.8546q-2.3301-0.57488-2.905 1.7553l-1.3108 5.3132q-0.57488 2.3301 1.7553 2.905l7.5171 1.8546q2.3301 0.57488 2.905-1.7553z" clip-path="url(#a)" fill="#fff" stroke="#fff"/>
<g clip-path="url(#a)">
<g transform="translate(1552 724.15) rotate(-76.141) scale(.08 -.08)">
<use xlink:href="#q"/>
</g>
</g>
<path d="m1580.1 723.99 0.48242-4.7996q0.24002-2.388-2.1479-2.628l-7.7037-0.77433q-2.388-0.24002-2.628 2.1479l-0.48242 4.7996q-0.24002 2.388 2.1479 2.628l7.7037 0.77433q2.388 0.24002 2.628-2.1479z" clip-path="url(#a)" fill="#fff" stroke="#fff"/>
<g clip-path="url(#a)">
<g transform="translate(1576.1 723.58) rotate(-84.26) scale(.08 -.08)">
<use xlink:href="#ag"/>
</g>
</g>
<path d="m1626.4 719.92 1.4018 5.2899q0.61476 2.3199 2.9347 1.7052l7.4842-1.9832q2.3199-0.61476 1.7052-2.9347l-1.4018-5.2899q-0.61476-2.3199-2.9347-1.7052l-7.4842 1.9832q-2.3199 0.61476-1.7052 2.9347z" clip-path="url(#a)" fill="#fff" stroke="#fff"/>
<g clip-path="url(#a)">
<g transform="translate(1630.3 718.88) rotate(75.158) scale(.08 -.08)">
<use xlink:href="#q"/>
</g>
</g>
<path d="m1734 645 4.8042 2.6207q2.1069 1.1493 3.2562-0.95756l3.7078-6.7969q1.1493-2.1069-0.95756-3.2562l-4.8042-2.6207q-2.1069-1.1493-3.2562 0.95756l-3.7078 6.7969q-1.1493 2.1069 0.95756 3.2562z" clip-path="url(#a)" fill="#fff" stroke="#fff"/>
<g clip-path="url(#a)">
<g transform="translate(1735.9 641.43) rotate(28.613) scale(.08 -.08)">
<use xlink:href="#q"/>
</g>
</g>
<path d="m1591.4 718.32 0.26722 5.8489q0.10954 2.3975 2.507 2.288l7.7344-0.35337q2.3975-0.10954 2.288-2.507l-0.26723-5.8489q-0.10954-2.3975-2.507-2.288l-7.7344 0.35337q-2.3975 0.10954-2.288 2.507z" clip-path="url(#a)" fill="#fff" stroke="#fff"/>
<g clip-path="url(#a)">
<g transform="translate(1595.4 718.14) rotate(87.384) scale(.08 -.08)">
<use xlink:href="#af"/>
</g>
</g>
<path d="m1661.6 721.06 2.552 5.2696q1.0461 2.16 3.2061 1.1139l6.9683-3.3747q2.16-1.0461 1.1139-3.2061l-2.552-5.2696q-1.0461-2.16-3.2061-1.1139l-6.9683 3.3747q-2.16 1.0461-1.1139 3.2061z" clip-path="url(#a)" fill="#fff" stroke="#fff"/>
<g clip-path="url(#a)">
<g transform="translate(1665.3 719.29) rotate(64.159) scale(.08 -.08)">
<use xlink:href="#af"/>
</g>
</g>
<path d="m1431.7 980.93 5.1392-34.909q0.34956-2.3744-2.0248-2.724l-7.6599-1.1277q-2.3744-0.34956-2.724 2.0248l-5.1392 34.909q-0.34956 2.3744 2.0248 2.724l7.6599 1.1277q2.3744 0.34956 2.724-2.0248z" clip-path="url(#a)" fill="#fff" stroke="#fff"/>
<g clip-path="url(#a)">
<g transform="translate(1427.7 980.34) rotate(-81.625) scale(.08 -.08)">
<use xlink:href="#k"/>
<use x="60.818359" xlink:href="#d"/>
<use x="122.341797" xlink:href="#e"/>
<use x="163.439453" xlink:href="#l"/>
<use x="260.851562" xlink:href="#h"/>
<use x="288.634766" xlink:href="#f"/>
<use x="352.013672" xlink:href="#g"/>
<use x="413.292969" xlink:href="#j"/>
</g>
</g>
<path d="m1442.9 946.02 5.1392 34.909q0.34956 2.3744 2.724 2.0248l7.6599-1.1277q2.3744-0.34956 2.0248-2.724l-5.1392-34.909q-0.34956-2.3744-2.724-2.0248l-7.6599 1.1277q-2.3744 0.34956-2.0248 2.724z" clip-path="url(#a)" fill="#fff" stroke="#fff"/>
<g clip-path="url(#a)">
<g transform="translate(1447 945.43) rotate(81.625) scale(.08 -.08)">
<use xlink:href="#k"/>
<use x="60.818359" xlink:href="#d"/>
<use x="122.341797" xlink:href="#e"/>
<use x="163.439453" xlink:href="#l"/>
<use x="260.851562" xlink:href="#h"/>
<use x="288.634766" xlink:href="#f"/>
<use x="352.013672" xlink:href="#g"/>
<use x="413.292969" xlink:href="#j"/>
</g>
</g>
<path d="m1504.4 944.92v35.285q0 2.4 2.4 2.4h7.7425q2.4 0 2.4-2.4v-35.285q0-2.4-2.4-2.4h-7.7425q-2.4 0-2.4 2.4z" clip-path="url(#a)" fill="#fff" stroke="#fff"/>
<g clip-path="url(#a)">
<g transform="translate(1508.5 944.92) rotate(90) scale(.08 -.08)">
<use xlink:href="#k"/>
<use x="60.818359" xlink:href="#d"/>
<use x="122.341797" xlink:href="#e"/>
<use x="163.439453" xlink:href="#l"/>
<use x="260.851562" xlink:href="#h"/>
<use x="288.634766" xlink:href="#f"/>
<use x="352.013672" xlink:href="#g"/>
<use x="413.292969" xlink:href="#j"/>
</g>
</g>
<path d="m1551.7 944.92v35.285q0 2.4 2.4 2.4h7.7425q2.4 0 2.4-2.4v-35.285q0-2.4-2.4-2.4h-7.7425q-2.4 0-2.4 2.4z" clip-path="url(#a)" fill="#fff" stroke="#fff"/>
<g clip-path="url(#a)">
<g transform="translate(1555.7 944.92) rotate(90) scale(.08 -.08)">
<use xlink:href="#k"/>
<use x="60.818359" xlink:href="#d"/>
<use x="122.341797" xlink:href="#e"/>
<use x="163.439453" xlink:href="#l"/>
<use x="260.851562" xlink:href="#h"/>
<use x="288.634766" xlink:href="#f"/>
<use x="352.013672" xlink:href="#g"/>
<use x="413.292969" xlink:href="#j"/>
</g>
</g>
<path d="m1667.8 980.93 5.1392-34.909q0.34956-2.3744-2.0248-2.724l-7.6599-1.1277q-2.3744-0.34956-2.724 2.0248l-5.1392 34.909q-0.34956 2.3744 2.0248 2.724l7.6599 1.1277q2.3744 0.34956 2.724-2.0248z" clip-path="url(#a)" fill="#fff" stroke="#fff"/>
<g clip-path="url(#a)">
<g transform="translate(1663.7 980.34) rotate(-81.625) scale(.08 -.08)">
<use xlink:href="#k"/>
<use x="60.818359" xlink:href="#d"/>
<use x="122.341797" xlink:href="#e"/>
<use x="163.439453" xlink:href="#l"/>
<use x="260.851562" xlink:href="#h"/>
<use x="288.634766" xlink:href="#f"/>
<use x="352.013672" xlink:href="#g"/>
<use x="413.292969" xlink:href="#j"/>
</g>
</g>
<path d="m1679 946.02 5.1392 34.909q0.34956 2.3744 2.724 2.0248l7.6599-1.1277q2.3744-0.34956 2.0248-2.724l-5.1392-34.909q-0.34956-2.3744-2.724-2.0248l-7.6599 1.1277q-2.3744 0.34956-2.0248 2.724z" clip-path="url(#a)" fill="#fff" stroke="#fff"/>
<g clip-path="url(#a)">
<g transform="translate(1683 945.43) rotate(81.625) scale(.08 -.08)">
<use xlink:href="#k"/>
<use x="60.818359" xlink:href="#d"/>
<use x="122.341797" xlink:href="#e"/>
<use x="163.439453" xlink:href="#l"/>
<use x="260.851562" xlink:href="#h"/>
<use x="288.634766" xlink:href="#f"/>
<use x="352.013672" xlink:href="#g"/>
<use x="413.292969" xlink:href="#j"/>
</g>
</g>
<path d="m1845.1 807.82 2.8207-4.7899q1.2178-2.0681-0.85023-3.2859l-6.6717-3.9288q-2.0681-1.2178-3.2859 0.85023l-2.8207 4.7899q-1.2178 2.0681 0.85023 3.2859l6.6717 3.9288q2.0681 1.2178 3.2859-0.85023z" clip-path="url(#a)" fill="#fff" stroke="#fff"/>
<g clip-path="url(#a)">
<g transform="translate(1841.6 805.75) rotate(-59.507) scale(.08 -.08)">
<use xlink:href="#t"/>
</g>
</g>
<path d="m1870.1 806.43 1.4278-4.8492q0.67788-2.3023-1.6244-2.9802l-7.4272-2.1869q-2.3023-0.67788-2.9802 1.6244l-1.4278 4.8492q-0.67788 2.3023 1.6244 2.9802l7.4272 2.1869q2.3023 0.67788 2.9802-1.6244z" clip-path="url(#a)" fill="#fff" stroke="#fff"/>
<g clip-path="url(#a)">
<g transform="translate(1866.2 805.29) rotate(-73.594) scale(.08 -.08)">
<use xlink:href="#u"/>
</g>
</g>
<path d="m1882.1 799.71v5.055q0 2.4 2.4 2.4h7.7425q2.4 0 2.4-2.4v-5.055q0-2.4-2.4-2.4h-7.7425q-2.4 0-2.4 2.4z" clip-path="url(#a)" fill="#fff" stroke="#fff"/>
<g clip-path="url(#a)">
<g transform="translate(1886.1 799.71) rotate(90) scale(.08 -.08)">
<use xlink:href="#u"/>
</g>
</g>
<path d="m1905.2 801.33 1.5778 5.3588q0.67788 2.3023 2.9802 1.6244l7.4272-2.1869q2.3023-0.67788 1.6244-2.9802l-1.5778-5.3588q-0.67788-2.3023-2.9802-1.6244l-7.4272 2.1869q-2.3023 0.67788-1.6244 2.9802z" clip-path="url(#a)" fill="#fff" stroke="#fff"/>
<g clip-path="url(#a)">
<g transform="translate(1909.1 800.18) rotate(73.594) scale(.08 -.08)">
<use xlink:href="#w"/>
</g>
</g>
<path d="m1928.7 802.9 2.971 5.0452q1.2178 2.0681 3.2859 0.85023l6.6717-3.9288q2.0681-1.2178 0.85023-3.2859l-2.971-5.0452q-1.2178-2.0681-3.2859-0.85023l-6.6717 3.9288q-2.0681 1.2178-0.85023 3.2859z" clip-path="url(#a)" fill="#fff" stroke="#fff"/>
<g clip-path="url(#a)">
<g transform="translate(1932.2 800.84) rotate(59.507) scale(.08 -.08)">
<use xlink:href="#af"/>
</g>
</g>
<path d="m1787.7 944.92v35.285q0 2.4 2.4 2.4h7.7425q2.4 0 2.4-2.4v-35.285q0-2.4-2.4-2.4h-7.7425q-2.4 0-2.4 2.4z" clip-path="url(#a)" fill="#fff" stroke="#fff"/>
<g clip-path="url(#a)">
<g transform="translate(1791.7 944.92) rotate(90) scale(.08 -.08)">
<use xlink:href="#k"/>
<use x="60.818359" xlink:href="#d"/>
<use x="122.341797" xlink:href="#e"/>
<use x="163.439453" xlink:href="#l"/>
<use x="260.851562" xlink:href="#h"/>
<use x="288.634766" xlink:href="#f"/>
<use x="352.013672" xlink:href="#g"/>
<use x="413.292969" xlink:href="#j"/>
</g>
</g>
<path d="m1834.9 944.92v35.285q0 2.4 2.4 2.4h7.7425q2.4 0 2.4-2.4v-35.285q0-2.4-2.4-2.4h-7.7425q-2.4 0-2.4 2.4z" clip-path="url(#a)" fill="#fff" stroke="#fff"/>
<g clip-path="url(#a)">
<g transform="translate(1838.9 944.92) rotate(90) scale(.08 -.08)">
<use xlink:href="#k"/>
<use x="60.818359" xlink:href="#d"/>
<use x="122.341797" xlink:href="#e"/>
<use x="163.439453" xlink:href="#l"/>
<use x="260.851562" xlink:href="#h"/>
<use x="288.634766" xlink:href="#f"/>
<use x="352.013672" xlink:href="#g"/>
<use x="413.292969" xlink:href="#j"/>
</g>
</g>
<path d="m1882.1 944.92v35.285q0 2.4 2.4 2.4h7.7425q2.4 0 2.4-2.4v-35.285q0-2.4-2.4-2.4h-7.7425q-2.4 0-2.4 2.4z" clip-path="url(#a)" fill="#fff" stroke="#fff"/>
<g clip-path="url(#a)">
<g transform="translate(1886.1 944.92) rotate(90) scale(.08 -.08)">
<use xlink:href="#k"/>
<use x="60.818359" xlink:href="#d"/>
<use x="122.341797" xlink:href="#e"/>
<use x="163.439453" xlink:href="#l"/>
<use x="260.851562" xlink:href="#h"/>
<use x="288.634766" xlink:href="#f"/>
<use x="352.013672" xlink:href="#g"/>
<use x="413.292969" xlink:href="#j"/>
</g>
</g>
<path d="m1929.3 944.92v35.285q0 2.4 2.4 2.4h7.7425q2.4 0 2.4-2.4v-35.285q0-2.4-2.4-2.4h-7.7425q-2.4 0-2.4 2.4z" clip-path="url(#a)" fill="#fff" stroke="#fff"/>
<g clip-path="url(#a)">
<g transform="translate(1933.4 944.92) rotate(90) scale(.08 -.08)">
<use xlink:href="#k"/>
<use x="60.818359" xlink:href="#d"/>
<use x="122.341797" xlink:href="#e"/>
<use x="163.439453" xlink:href="#l"/>
<use x="260.851562" xlink:href="#h"/>
<use x="288.634766" xlink:href="#f"/>
<use x="352.013672" xlink:href="#g"/>
<use x="413.292969" xlink:href="#j"/>
</g>
</g>
<path d="m1079.6 944.92v35.285q0 2.4 2.4 2.4h7.7425q2.4 0 2.4-2.4v-35.285q0-2.4-2.4-2.4h-7.7425q-2.4 0-2.4 2.4z" clip-path="url(#a)" fill="#fff" stroke="#fff"/>
<g clip-path="url(#a)">
<g transform="translate(1083.7 944.92) rotate(90) scale(.08 -.08)">
<use xlink:href="#k"/>
<use x="60.818359" xlink:href="#d"/>
<use x="122.341797" xlink:href="#e"/>
<use x="163.439453" xlink:href="#l"/>
<use x="260.851562" xlink:href="#h"/>
<use x="288.634766" xlink:href="#f"/>
<use x="352.013672" xlink:href="#g"/>
<use x="413.292969" xlink:href="#j"/>
</g>
</g>
<path d="m1148.5 980.93 5.1392-34.909q0.34956-2.3744-2.0248-2.724l-7.6599-1.1277q-2.3744-0.34956-2.724 2.0248l-5.1392 34.909q-0.34956 2.3744 2.0248 2.724l7.6599 1.1277q2.3744 0.34956 2.724-2.0248z" clip-path="url(#a)" fill="#fff" stroke="#fff"/>
<g clip-path="url(#a)">
<g transform="translate(1144.5 980.34) rotate(-81.625) scale(.08 -.08)">
<use xlink:href="#k"/>
<use x="60.818359" xlink:href="#d"/>
<use x="122.341797" xlink:href="#e"/>
<use x="163.439453" xlink:href="#l"/>
<use x="260.851562" xlink:href="#h"/>
<use x="288.634766" xlink:href="#f"/>
<use x="352.013672" xlink:href="#g"/>
<use x="413.292969" xlink:href="#j"/>
</g>
</g>
<path d="m1159.7 946.02 5.1392 34.909q0.34956 2.3744 2.724 2.0248l7.6599-1.1277q2.3744-0.34956 2.0248-2.724l-5.1392-34.909q-0.34956-2.3744-2.724-2.0248l-7.6599 1.1277q-2.3744 0.34956-2.0248 2.724z" clip-path="url(#a)" fill="#fff" stroke="#fff"/>
<g clip-path="url(#a)">
<g transform="translate(1163.7 945.43) rotate(81.625) scale(.08 -.08)">
<use xlink:href="#k"/>
<use x="60.818359" xlink:href="#d"/>
<use x="122.341797" xlink:href="#e"/>
<use x="163.439453" xlink:href="#l"/>
<use x="260.851562" xlink:href="#h"/>
<use x="288.634766" xlink:href="#f"/>
<use x="352.013672" xlink:href="#g"/>
<use x="413.292969" xlink:href="#j"/>
</g>
</g>
<path d="m1221.2 944.92v35.285q0 2.4 2.4 2.4h7.7425q2.4 0 2.4-2.4v-35.285q0-2.4-2.4-2.4h-7.7425q-2.4 0-2.4 2.4z" clip-path="url(#a)" fill="#fff" stroke="#fff"/>
<g clip-path="url(#a)">
<g transform="translate(1225.3 944.92) rotate(90) scale(.08 -.08)">
<use xlink:href="#k"/>
<use x="60.818359" xlink:href="#d"/>
<use x="122.341797" xlink:href="#e"/>
<use x="163.439453" xlink:href="#l"/>
<use x="260.851562" xlink:href="#h"/>
<use x="288.634766" xlink:href="#f"/>
<use x="352.013672" xlink:href="#g"/>
<use x="413.292969" xlink:href="#j"/>
</g>
</g>
<path d="m937.99 944.92v35.285q0 2.4 2.4 2.4h7.7425q2.4 0 2.4-2.4v-35.285q0-2.4-2.4-2.4h-7.7425q-2.4 0-2.4 2.4z" clip-path="url(#a)" fill="#fff" stroke="#fff"/>
<g clip-path="url(#a)">
<g transform="translate(942.05 944.92) rotate(90) scale(.08 -.08)">
<use xlink:href="#k"/>
<use x="60.818359" xlink:href="#d"/>
<use x="122.341797" xlink:href="#e"/>
<use x="163.439453" xlink:href="#l"/>
<use x="260.851562" xlink:href="#h"/>
<use x="288.634766" xlink:href="#f"/>
<use x="352.013672" xlink:href="#g"/>
<use x="413.292969" xlink:href="#j"/>
</g>
</g>
<path d="m985.19 944.92v35.285q0 2.4 2.4 2.4h7.7425q2.4 0 2.4-2.4v-35.285q0-2.4-2.4-2.4h-7.7425q-2.4 0-2.4 2.4z" clip-path="url(#a)" fill="#fff" stroke="#fff"/>
<g clip-path="url(#a)">
<g transform="translate(989.25 944.92) rotate(90) scale(.08 -.08)">
<use xlink:href="#k"/>
<use x="60.818359" xlink:href="#d"/>
<use x="122.341797" xlink:href="#e"/>
<use x="163.439453" xlink:href="#l"/>
<use x="260.851562" xlink:href="#h"/>
<use x="288.634766" xlink:href="#f"/>
<use x="352.013672" xlink:href="#g"/>
<use x="413.292969" xlink:href="#j"/>
</g>
</g>
<path d="m88.295 944.92v35.285q0 2.4 2.4 2.4h7.7425q2.4 0 2.4-2.4v-35.285q0-2.4-2.4-2.4h-7.7425q-2.4 0-2.4 2.4z" clip-path="url(#a)" fill="#fff" stroke="#fff"/>
<g clip-path="url(#a)">
<g transform="translate(92.358 944.92) rotate(90) scale(.08 -.08)">
<use xlink:href="#k"/>
<use x="60.818359" xlink:href="#d"/>
<use x="122.341797" xlink:href="#e"/>
<use x="163.439453" xlink:href="#l"/>
<use x="260.851562" xlink:href="#h"/>
<use x="288.634766" xlink:href="#f"/>
<use x="352.013672" xlink:href="#g"/>
<use x="413.292969" xlink:href="#j"/>
</g>
</g>
<path d="m135.5 944.92v35.285q0 2.4 2.4 2.4h7.7425q2.4 0 2.4-2.4v-35.285q0-2.4-2.4-2.4h-7.7425q-2.4 0-2.4 2.4z" clip-path="url(#a)" fill="#fff" stroke="#fff"/>
<g clip-path="url(#a)">
<g transform="translate(139.56 944.92) rotate(90) scale(.08 -.08)">
<use xlink:href="#k"/>
<use x="60.818359" xlink:href="#d"/>
<use x="122.341797" xlink:href="#e"/>
<use x="163.439453" xlink:href="#l"/>
<use x="260.851562" xlink:href="#h"/>
<use x="288.634766" xlink:href="#f"/>
<use x="352.013672" xlink:href="#g"/>
<use x="413.292969" xlink:href="#j"/>
</g>
</g>
<path d="m182.7 944.92v35.285q0 2.4 2.4 2.4h7.7425q2.4 0 2.4-2.4v-35.285q0-2.4-2.4-2.4h-7.7425q-2.4 0-2.4 2.4z" clip-path="url(#a)" fill="#fff" stroke="#fff"/>
<g clip-path="url(#a)">
<g transform="translate(186.77 944.92) rotate(90) scale(.08 -.08)">
<use xlink:href="#k"/>
<use x="60.818359" xlink:href="#d"/>
<use x="122.341797" xlink:href="#e"/>
<use x="163.439453" xlink:href="#l"/>
<use x="260.851562" xlink:href="#h"/>
<use x="288.634766" xlink:href="#f"/>
<use x="352.013672" xlink:href="#g"/>
<use x="413.292969" xlink:href="#j"/>
</g>
</g>
<path d="m229.91 944.92v35.285q0 2.4 2.4 2.4h7.7425q2.4 0 2.4-2.4v-35.285q0-2.4-2.4-2.4h-7.7425q-2.4 0-2.4 2.4z" clip-path="url(#a)" fill="#fff" stroke="#fff"/>
<g clip-path="url(#a)">
<g transform="translate(233.97 944.92) rotate(90) scale(.08 -.08)">
<use xlink:href="#k"/>
<use x="60.818359" xlink:href="#d"/>
<use x="122.341797" xlink:href="#e"/>
<use x="163.439453" xlink:href="#l"/>
<use x="260.851562" xlink:href="#h"/>
<use x="288.634766" xlink:href="#f"/>
<use x="352.013672" xlink:href="#g"/>
<use x="413.292969" xlink:href="#j"/>
</g>
</g>
<path d="m277.11 944.92v35.285q0 2.4 2.4 2.4h7.7425q2.4 0 2.4-2.4v-35.285q0-2.4-2.4-2.4h-7.7425q-2.4 0-2.4 2.4z" clip-path="url(#a)" fill="#fff" stroke="#fff"/>
<g clip-path="url(#a)">
<g transform="translate(281.18 944.92) rotate(90) scale(.08 -.08)">
<use xlink:href="#k"/>
<use x="60.818359" xlink:href="#d"/>
<use x="122.341797" xlink:href="#e"/>
<use x="163.439453" xlink:href="#l"/>
<use x="260.851562" xlink:href="#h"/>
<use x="288.634766" xlink:href="#f"/>
<use x="352.013672" xlink:href="#g"/>
<use x="413.292969" xlink:href="#j"/>
</g>
</g>
<path d="m375.36 725.15 1.316-5.4007q0.56818-2.3318-1.7636-2.9l-7.5224-1.833q-2.3318-0.56818-2.9 1.7636l-1.316 5.4007q-0.56818 2.3318 1.7636 2.9l7.5224 1.833q2.3318 0.56818 2.9-1.7636z" clip-path="url(#a)" fill="#fff" stroke="#fff"/>
<g clip-path="url(#a)">
<g transform="translate(371.42 724.18) rotate(-76.306) scale(.08 -.08)">
<use xlink:href="#t"/>
</g>
</g>
<path d="m399.21 644.47 0.9608-4.9629q0.45617-2.3562-1.9001-2.8124l-7.6014-1.4716q-2.3562-0.45617-2.8124 1.9001l-0.9608 4.9629q-0.45617 2.3562 1.9001 2.8124l7.6014 1.4716q2.3562 0.45617 2.8124-1.9001z" clip-path="url(#a)" fill="#fff" stroke="#fff"/>
<g clip-path="url(#a)">
<g transform="translate(395.22 643.7) rotate(-79.043) scale(.08 -.08)">
<use xlink:href="#u"/>
</g>
</g>
<path d="m457.58 642.01 3.1336 4.6246q1.3463 1.9868 3.3331 0.64057l6.4096-4.3431q1.9868-1.3463 0.64057-3.3331l-3.1336-4.6246q-1.3463-1.9868-3.3331-0.64057l-6.4096 4.3431q-1.9868 1.3463-0.64057 3.3331z" clip-path="url(#a)" fill="#fff" stroke="#fff"/>
<g clip-path="url(#a)">
<g transform="translate(460.94 639.73) rotate(55.879) scale(.08 -.08)">
<use xlink:href="#w"/>
</g>
</g>
<path d="m701.04 807.31 2.2458-5.0849q0.96962-2.1954-1.2258-3.165l-7.0825-3.128q-2.1954-0.96962-3.165 1.2258l-2.2458 5.0849q-0.96962 2.1954 1.2258 3.165l7.0825 3.128q2.1954 0.96962 3.165-1.2258z" clip-path="url(#a)" fill="#fff" stroke="#fff"/>
<g clip-path="url(#a)">
<g transform="translate(697.33 805.67) rotate(-66.171) scale(.08 -.08)">
<use xlink:href="#t"/>
</g>
</g>
<path d="m725.9 805.43 0.67017-4.5522q0.34956-2.3744-2.0248-2.724l-7.6599-1.1277q-2.3744-0.34956-2.724 2.0248l-0.67017 4.5522q-0.34956 2.3744 2.0248 2.724l7.6599 1.1277q2.3744 0.34956 2.724-2.0248z" clip-path="url(#a)" fill="#fff" stroke="#fff"/>
<g clip-path="url(#a)">
<g transform="translate(721.88 804.84) rotate(-81.625) scale(.08 -.08)">
<use xlink:href="#ah"/>
</g>
</g>
<path d="m737.06 800.65 0.73626 5.0011q0.34956 2.3744 2.724 2.0248l7.6599-1.1277q2.3744-0.34956 2.0248-2.724l-0.73626-5.0011q-0.34956-2.3744-2.724-2.0248l-7.6599 1.1277q-2.3744 0.34956-2.0248 2.724z" clip-path="url(#a)" fill="#fff" stroke="#fff"/>
<g clip-path="url(#a)">
<g transform="translate(741.08 800.06) rotate(81.625) scale(.08 -.08)">
<use xlink:href="#u"/>
</g>
</g>
<path d="m760.37 802.22 2.2569 5.1101q0.96962 2.1954 3.165 1.2258l7.0825-3.128q2.1954-0.96962 1.2258-3.165l-2.2569-5.1101q-0.96962-2.1954-3.165-1.2258l-7.0825 3.128q-2.1954 0.96962-1.2258 3.165z" clip-path="url(#a)" fill="#fff" stroke="#fff"/>
<g clip-path="url(#a)">
<g transform="translate(764.09 800.57) rotate(66.171) scale(.08 -.08)">
<use xlink:href="#w"/>
</g>
</g>
<path d="m654.76 944.92v35.285q0 2.4 2.4 2.4h7.7425q2.4 0 2.4-2.4v-35.285q0-2.4-2.4-2.4h-7.7425q-2.4 0-2.4 2.4z" clip-path="url(#a)" fill="#fff" stroke="#fff"/>
<g clip-path="url(#a)">
<g transform="translate(658.82 944.92) rotate(90) scale(.08 -.08)">
<use xlink:href="#k"/>
<use x="60.818359" xlink:href="#d"/>
<use x="122.341797" xlink:href="#e"/>
<use x="163.439453" xlink:href="#l"/>
<use x="260.851562" xlink:href="#h"/>
<use x="288.634766" xlink:href="#f"/>
<use x="352.013672" xlink:href="#g"/>
<use x="413.292969" xlink:href="#j"/>
</g>
</g>
<path d="m701.96 944.92v35.285q0 2.4 2.4 2.4h7.7425q2.4 0 2.4-2.4v-35.285q0-2.4-2.4-2.4h-7.7425q-2.4 0-2.4 2.4z" clip-path="url(#a)" fill="#fff" stroke="#fff"/>
<g clip-path="url(#a)">
<g transform="translate(706.02 944.92) rotate(90) scale(.08 -.08)">
<use xlink:href="#k"/>
<use x="60.818359" xlink:href="#d"/>
<use x="122.341797" xlink:href="#e"/>
<use x="163.439453" xlink:href="#l"/>
<use x="260.851562" xlink:href="#h"/>
<use x="288.634766" xlink:href="#f"/>
<use x="352.013672" xlink:href="#g"/>
<use x="413.292969" xlink:href="#j"/>
</g>
</g>
<path d="m749.17 944.92v35.285q0 2.4 2.4 2.4h7.7425q2.4 0 2.4-2.4v-35.285q0-2.4-2.4-2.4h-7.7425q-2.4 0-2.4 2.4z" clip-path="url(#a)" fill="#fff" stroke="#fff"/>
<g clip-path="url(#a)">
<g transform="translate(753.23 944.92) rotate(90) scale(.08 -.08)">
<use xlink:href="#k"/>
<use x="60.818359" xlink:href="#d"/>
<use x="122.341797" xlink:href="#e"/>
<use x="163.439453" xlink:href="#l"/>
<use x="260.851562" xlink:href="#h"/>
<use x="288.634766" xlink:href="#f"/>
<use x="352.013672" xlink:href="#g"/>
<use x="413.292969" xlink:href="#j"/>
</g>
</g>
<path d="m796.37 944.92v35.285q0 2.4 2.4 2.4h7.7425q2.4 0 2.4-2.4v-35.285q0-2.4-2.4-2.4h-7.7425q-2.4 0-2.4 2.4z" clip-path="url(#a)" fill="#fff" stroke="#fff"/>
<g clip-path="url(#a)">
<g transform="translate(800.43 944.92) rotate(90) scale(.08 -.08)">
<use xlink:href="#k"/>
<use x="60.818359" xlink:href="#d"/>
<use x="122.341797" xlink:href="#e"/>
<use x="163.439453" xlink:href="#l"/>
<use x="260.851562" xlink:href="#h"/>
<use x="288.634766" xlink:href="#f"/>
<use x="352.013672" xlink:href="#g"/>
<use x="413.292969" xlink:href="#j"/>
</g>
</g>
<path d="m324.32 944.92v35.285q0 2.4 2.4 2.4h7.7425q2.4 0 2.4-2.4v-35.285q0-2.4-2.4-2.4h-7.7425q-2.4 0-2.4 2.4z" clip-path="url(#a)" fill="#fff" stroke="#fff"/>
<g clip-path="url(#a)">
<g transform="translate(328.38 944.92) rotate(90) scale(.08 -.08)">
<use xlink:href="#k"/>
<use x="60.818359" xlink:href="#d"/>
<use x="122.341797" xlink:href="#e"/>
<use x="163.439453" xlink:href="#l"/>
<use x="260.851562" xlink:href="#h"/>
<use x="288.634766" xlink:href="#f"/>
<use x="352.013672" xlink:href="#g"/>
<use x="413.292969" xlink:href="#j"/>
</g>
</g>
<path d="m371.4 795.74v12.991q0 2.4 2.4 2.4h8q2.4 0 2.4-2.4v-12.991q0-2.4-2.4-2.4h-8q-2.4 0-2.4 2.4z" clip-path="url(#a)" fill="#fff" stroke="#fff"/>
<g clip-path="url(#a)">
<g transform="translate(375.68 795.74) rotate(90) scale(.08 -.08)">
<use xlink:href="#ag"/>
<use x="60.302734" xlink:href="#as"/>
<use x="93.994141" xlink:href="#q"/>
</g>
</g>
<path d="m488.62 807.33 2.2569-5.1101q0.96962-2.1954-1.2258-3.165l-7.0825-3.128q-2.1954-0.96962-3.165 1.2258l-2.2569 5.1101q-0.96962 2.1954 1.2258 3.165l7.0825 3.128q2.1954 0.96962 3.165-1.2258z" clip-path="url(#a)" fill="#fff" stroke="#fff"/>
<g clip-path="url(#a)">
<g transform="translate(484.9 805.68) rotate(-66.171) scale(.08 -.08)">
<use xlink:href="#w"/>
</g>
</g>
<path d="m513.14 799.25v5.985q0 2.4 2.4 2.4h7.7425q2.4 0 2.4-2.4v-5.985q0-2.4-2.4-2.4h-7.7425q-2.4 0-2.4 2.4z" clip-path="url(#a)" fill="#fff" stroke="#fff"/>
<g clip-path="url(#a)">
<defs>
<path id="al" d="m9.8125 72.906h13.281l32.328-60.984v60.984h9.5625v-72.906h-13.281l-32.312 60.984v-60.984h-9.5781z"/>
</defs>
<g transform="translate(517.2 799.25) rotate(90) scale(.08 -.08)">
<use xlink:href="#al"/>
</g>
</g>
<path d="m547.95 802.22 2.2569 5.1101q0.96962 2.1954 3.165 1.2258l7.0825-3.128q2.1954-0.96962 1.2258-3.165l-2.2569-5.1101q-0.96962-2.1954-3.165-1.2258l-7.0825 3.128q-2.1954 0.96962-1.2258 3.165z" clip-path="url(#a)" fill="#fff" stroke="#fff"/>
<g clip-path="url(#a)">
<g transform="translate(551.67 800.57) rotate(66.171) scale(.08 -.08)">
<use xlink:href="#w"/>
</g>
</g>
<path d="m440.44 980.93 5.1392-34.909q0.34956-2.3744-2.0248-2.724l-7.6599-1.1277q-2.3744-0.34956-2.724 2.0248l-5.1392 34.909q-0.34956 2.3744 2.0248 2.724l7.6599 1.1277q2.3744 0.34956 2.724-2.0248z" clip-path="url(#a)" fill="#fff" stroke="#fff"/>
<g clip-path="url(#a)">
<g transform="translate(436.42 980.34) rotate(-81.625) scale(.08 -.08)">
<use xlink:href="#k"/>
<use x="60.818359" xlink:href="#d"/>
<use x="122.341797" xlink:href="#e"/>
<use x="163.439453" xlink:href="#l"/>
<use x="260.851562" xlink:href="#h"/>
<use x="288.634766" xlink:href="#f"/>
<use x="352.013672" xlink:href="#g"/>
<use x="413.292969" xlink:href="#j"/>
</g>
</g>
<path d="m451.63 946.02 5.1392 34.909q0.34956 2.3744 2.724 2.0248l7.6599-1.1277q2.3744-0.34956 2.0248-2.724l-5.1392-34.909q-0.34956-2.3744-2.724-2.0248l-7.6599 1.1277q-2.3744 0.34956-2.0248 2.724z" clip-path="url(#a)" fill="#fff" stroke="#fff"/>
<g clip-path="url(#a)">
<g transform="translate(455.65 945.43) rotate(81.625) scale(.08 -.08)">
<use xlink:href="#k"/>
<use x="60.818359" xlink:href="#d"/>
<use x="122.341797" xlink:href="#e"/>
<use x="163.439453" xlink:href="#l"/>
<use x="260.851562" xlink:href="#h"/>
<use x="288.634766" xlink:href="#f"/>
<use x="352.013672" xlink:href="#g"/>
<use x="413.292969" xlink:href="#j"/>
</g>
</g>
<path d="m513.14 944.92v35.285q0 2.4 2.4 2.4h7.7425q2.4 0 2.4-2.4v-35.285q0-2.4-2.4-2.4h-7.7425q-2.4 0-2.4 2.4z" clip-path="url(#a)" fill="#fff" stroke="#fff"/>
<g clip-path="url(#a)">
<g transform="translate(517.2 944.92) rotate(90) scale(.08 -.08)">
<use xlink:href="#k"/>
<use x="60.818359" xlink:href="#d"/>
<use x="122.341797" xlink:href="#e"/>
<use x="163.439453" xlink:href="#l"/>
<use x="260.851562" xlink:href="#h"/>
<use x="288.634766" xlink:href="#f"/>
<use x="352.013672" xlink:href="#g"/>
<use x="413.292969" xlink:href="#j"/>
</g>
</g>
<path d="m582.05 980.93 5.1392-34.909q0.34956-2.3744-2.0248-2.724l-7.6599-1.1277q-2.3744-0.34956-2.724 2.0248l-5.1392 34.909q-0.34956 2.3744 2.0248 2.724l7.6599 1.1277q2.3744 0.34956 2.724-2.0248z" clip-path="url(#a)" fill="#fff" stroke="#fff"/>
<g clip-path="url(#a)">
<g transform="translate(578.03 980.34) rotate(-81.625) scale(.08 -.08)">
<use xlink:href="#k"/>
<use x="60.818359" xlink:href="#d"/>
<use x="122.341797" xlink:href="#e"/>
<use x="163.439453" xlink:href="#l"/>
<use x="260.851562" xlink:href="#h"/>
<use x="288.634766" xlink:href="#f"/>
<use x="352.013672" xlink:href="#g"/>
<use x="413.292969" xlink:href="#j"/>
</g>
</g>
<path d="m593.25 946.02 5.1392 34.909q0.34956 2.3744 2.724 2.0248l7.6599-1.1277q2.3744-0.34956 2.0248-2.724l-5.1392-34.909q-0.34956-2.3744-2.724-2.0248l-7.6599 1.1277q-2.3744 0.34956-2.0248 2.724z" clip-path="url(#a)" fill="#fff" stroke="#fff"/>
<g clip-path="url(#a)">
<g transform="translate(597.27 945.43) rotate(81.625) scale(.08 -.08)">
<use xlink:href="#k"/>
<use x="60.818359" xlink:href="#d"/>
<use x="122.341797" xlink:href="#e"/>
<use x="163.439453" xlink:href="#l"/>
<use x="260.851562" xlink:href="#h"/>
<use x="288.634766" xlink:href="#f"/>
<use x="352.013672" xlink:href="#g"/>
<use x="413.292969" xlink:href="#j"/>
</g>
</g>
<path d="m371.52 944.92v35.285q0 2.4 2.4 2.4h7.7425q2.4 0 2.4-2.4v-35.285q0-2.4-2.4-2.4h-7.7425q-2.4 0-2.4 2.4z" clip-path="url(#a)" fill="#fff" stroke="#fff"/>
<g clip-path="url(#a)">
<g transform="translate(375.59 944.92) rotate(90) scale(.08 -.08)">
<use xlink:href="#k"/>
<use x="60.818359" xlink:href="#d"/>
<use x="122.341797" xlink:href="#e"/>
<use x="163.439453" xlink:href="#l"/>
<use x="260.851562" xlink:href="#h"/>
<use x="288.634766" xlink:href="#f"/>
<use x="352.013672" xlink:href="#g"/>
<use x="413.292969" xlink:href="#j"/>
</g>
</g>
<path d="m1362.8 944.92v35.285q0 2.4 2.4 2.4h7.7425q2.4 0 2.4-2.4v-35.285q0-2.4-2.4-2.4h-7.7425q-2.4 0-2.4 2.4z" clip-path="url(#a)" fill="#fff" stroke="#fff"/>
<g clip-path="url(#a)">
<g transform="translate(1366.9 944.92) rotate(90) scale(.08 -.08)">
<use xlink:href="#k"/>
<use x="60.818359" xlink:href="#d"/>
<use x="122.341797" xlink:href="#e"/>
<use x="163.439453" xlink:href="#l"/>
<use x="260.851562" xlink:href="#h"/>
<use x="288.634766" xlink:href="#f"/>
<use x="352.013672" xlink:href="#g"/>
<use x="413.292969" xlink:href="#j"/>
</g>
</g>
<path d="m1598.9 944.92v35.285q0 2.4 2.4 2.4h7.7425q2.4 0 2.4-2.4v-35.285q0-2.4-2.4-2.4h-7.7425q-2.4 0-2.4 2.4z" clip-path="url(#a)" fill="#fff" stroke="#fff"/>
<g clip-path="url(#a)">
<g transform="translate(1602.9 944.92) rotate(90) scale(.08 -.08)">
<use xlink:href="#k"/>
<use x="60.818359" xlink:href="#d"/>
<use x="122.341797" xlink:href="#e"/>
<use x="163.439453" xlink:href="#l"/>
<use x="260.851562" xlink:href="#h"/>
<use x="288.634766" xlink:href="#f"/>
<use x="352.013672" xlink:href="#g"/>
<use x="413.292969" xlink:href="#j"/>
</g>
</g>
<path d="m1740.5 944.92v35.285q0 2.4 2.4 2.4h7.7425q2.4 0 2.4-2.4v-35.285q0-2.4-2.4-2.4h-7.7425q-2.4 0-2.4 2.4z" clip-path="url(#a)" fill="#fff" stroke="#fff"/>
<g clip-path="url(#a)">
<g transform="translate(1744.5 944.92) rotate(90) scale(.08 -.08)">
<use xlink:href="#k"/>
<use x="60.818359" xlink:href="#d"/>
<use x="122.341797" xlink:href="#e"/>
<use x="163.439453" xlink:href="#l"/>
<use x="260.851562" xlink:href="#h"/>
<use x="288.634766" xlink:href="#f"/>
<use x="352.013672" xlink:href="#g"/>
<use x="413.292969" xlink:href="#j"/>
</g>
</g>
<path d="m1976.5 944.92v35.285q0 2.4 2.4 2.4h7.7425q2.4 0 2.4-2.4v-35.285q0-2.4-2.4-2.4h-7.7425q-2.4 0-2.4 2.4z" clip-path="url(#a)" fill="#fff" stroke="#fff"/>
<g clip-path="url(#a)">
<g transform="translate(1980.6 944.92) rotate(90) scale(.08 -.08)">
<use xlink:href="#k"/>
<use x="60.818359" xlink:href="#d"/>
<use x="122.341797" xlink:href="#e"/>
<use x="163.439453" xlink:href="#l"/>
<use x="260.851562" xlink:href="#h"/>
<use x="288.634766" xlink:href="#f"/>
<use x="352.013672" xlink:href="#g"/>
<use x="413.292969" xlink:href="#j"/>
</g>
</g>
<defs>
<path id="b" d="m0 8.6603c2.2967 0 4.4997-0.9125 6.1237-2.5365 1.624-1.624 2.5365-3.827 2.5365-6.1237s-0.9125-4.4997-2.5365-6.1237c-1.624-1.624-3.827-2.5365-6.1237-2.5365s-4.4997 0.9125-6.1237 2.5365c-1.624 1.624-2.5365 3.827-2.5365 6.1237s0.9125 4.4997 2.5365 6.1237c1.624 1.624 3.827 2.5365 6.1237 2.5365z"/>
</defs>
<g clip-path="url(#a)">
<use x="94.565934" y="1042.722029" fill="#ffffff" stroke="#ffffff" xlink:href="#b"/>
</g>
<g clip-path="url(#a)">
<use x="141.770971" y="1042.722029" fill="#ffffff" stroke="#ffffff" xlink:href="#b"/>
</g>
<g clip-path="url(#a)">
<use x="188.976008" y="1042.722029" fill="#ffffff" stroke="#ffffff" xlink:href="#b"/>
</g>
<g clip-path="url(#a)">
<use x="236.181044" y="1042.722029" fill="#ffffff" stroke="#ffffff" xlink:href="#b"/>
</g>
<g clip-path="url(#a)">
<use x="283.386081" y="1042.722029" fill="#ffffff" stroke="#ffffff" xlink:href="#b"/>
</g>
<g clip-path="url(#a)">
<use x="330.591117" y="1042.722029" fill="#ffffff" stroke="#ffffff" xlink:href="#b"/>
</g>
<g clip-path="url(#a)">
<use x="377.796154" y="1042.722029" fill="#ffffff" stroke="#ffffff" xlink:href="#b"/>
</g>
<g clip-path="url(#a)">
<use x="425.001191" y="1042.722029" fill="#ffffff" stroke="#ffffff" xlink:href="#b"/>
</g>
<g clip-path="url(#a)">
<use x="472.206227" y="1042.722029" fill="#ffffff" stroke="#ffffff" xlink:href="#b"/>
</g>
<g clip-path="url(#a)">
<use x="519.411264" y="1042.722029" fill="#ffffff" stroke="#ffffff" xlink:href="#b"/>
</g>
<g clip-path="url(#a)">
<use x="566.616301" y="1042.722029" fill="#ffffff" stroke="#ffffff" xlink:href="#b"/>
</g>
<g clip-path="url(#a)">
<use x="613.821337" y="1042.722029" fill="#ffffff" stroke="#ffffff" xlink:href="#b"/>
</g>
<g clip-path="url(#a)">
<use x="661.026374" y="1042.722029" fill="#ffffff" stroke="#ffffff" xlink:href="#b"/>
</g>
<g clip-path="url(#a)">
<use x="708.23141" y="1042.722029" fill="#ffffff" stroke="#ffffff" xlink:href="#b"/>
</g>
<g clip-path="url(#a)">
<use x="755.436447" y="1042.722029" fill="#ffffff" stroke="#ffffff" xlink:href="#b"/>
</g>
<g clip-path="url(#a)">
<use x="802.641484" y="1042.722029" fill="#ffffff" stroke="#ffffff" xlink:href="#b"/>
</g>
<g clip-path="url(#a)">
<use x="849.84652" y="1042.722029" fill="#ffffff" stroke="#ffffff" xlink:href="#b"/>
</g>
<g clip-path="url(#a)">
<use x="897.051557" y="1042.722029" fill="#ffffff" stroke="#ffffff" xlink:href="#b"/>
</g>
<g clip-path="url(#a)">
<use x="944.256593" y="1042.722029" fill="#ffffff" stroke="#ffffff" xlink:href="#b"/>
</g>
<g clip-path="url(#a)">
<use x="991.46163" y="1042.722029" fill="#ffffff" stroke="#ffffff" xlink:href="#b"/>
</g>
<g clip-path="url(#a)">
<use x="1038.666667" y="1042.722029" fill="#ffffff" stroke="#ffffff" xlink:href="#b"/>
</g>
<g clip-path="url(#a)">
<use x="1085.871703" y="1042.722029" fill="#ffffff" stroke="#ffffff" xlink:href="#b"/>
</g>
<g clip-path="url(#a)">
<use x="1133.07674" y="1042.722029" fill="#ffffff" stroke="#ffffff" xlink:href="#b"/>
</g>
<g clip-path="url(#a)">
<use x="1180.281777" y="1042.722029" fill="#ffffff" stroke="#ffffff" xlink:href="#b"/>
</g>
<g clip-path="url(#a)">
<use x="1227.486813" y="1042.722029" fill="#ffffff" stroke="#ffffff" xlink:href="#b"/>
</g>
<g clip-path="url(#a)">
<use x="1274.69185" y="1042.722029" fill="#ffffff" stroke="#ffffff" xlink:href="#b"/>
</g>
<g clip-path="url(#a)">
<use x="1321.896886" y="1042.722029" fill="#ffffff" stroke="#ffffff" xlink:href="#b"/>
</g>
<g clip-path="url(#a)">
<use x="1369.101923" y="1042.722029" fill="#ffffff" stroke="#ffffff" xlink:href="#b"/>
</g>
<g clip-path="url(#a)">
<use x="1416.30696" y="1042.722029" fill="#ffffff" stroke="#ffffff" xlink:href="#b"/>
</g>
<g clip-path="url(#a)">
<use x="1463.511996" y="1042.722029" fill="#ffffff" stroke="#ffffff" xlink:href="#b"/>
</g>
<g clip-path="url(#a)">
<use x="1510.717033" y="1042.722029" fill="#ffffff" stroke="#ffffff" xlink:href="#b"/>
</g>
<g clip-path="url(#a)">
<use x="1557.922069" y="1042.722029" fill="#ffffff" stroke="#ffffff" xlink:href="#b"/>
</g>
<g clip-path="url(#a)">
<use x="1605.127106" y="1042.722029" fill="#ffffff" stroke="#ffffff" xlink:href="#b"/>
</g>
<g clip-path="url(#a)">
<use x="1652.332143" y="1042.722029" fill="#ffffff" stroke="#ffffff" xlink:href="#b"/>
</g>
<g clip-path="url(#a)">
<use x="1699.537179" y="1042.722029" fill="#ffffff" stroke="#ffffff" xlink:href="#b"/>
</g>
<g clip-path="url(#a)">
<use x="1746.742216" y="1042.722029" fill="#ffffff" stroke="#ffffff" xlink:href="#b"/>
</g>
<g clip-path="url(#a)">
<use x="1793.947252" y="1042.722029" fill="#ffffff" stroke="#ffffff" xlink:href="#b"/>
</g>
<g clip-path="url(#a)">
<use x="1841.152289" y="1042.722029" fill="#ffffff" stroke="#ffffff" xlink:href="#b"/>
</g>
<g clip-path="url(#a)">
<use x="1888.357326" y="1042.722029" fill="#ffffff" stroke="#ffffff" xlink:href="#b"/>
</g>
<g clip-path="url(#a)">
<use x="1935.562362" y="1042.722029" fill="#ffffff" stroke="#ffffff" xlink:href="#b"/>
</g>
<g clip-path="url(#a)">
<use x="1982.767399" y="1042.722029" fill="#ffffff" stroke="#ffffff" xlink:href="#b"/>
</g>
<g clip-path="url(#a)">
<use x="653.456241" y="50.611305" fill="#ffffff" stroke="#ffffff" xlink:href="#b"/>
</g>
<g clip-path="url(#a)">
<use x="297.997164" y="393.840969" fill="#ffffff" stroke="#ffffff" xlink:href="#b"/>
</g>
<g clip-path="url(#a)">
<use x="849.84652" y="882.399415" fill="#ffffff" stroke="#ffffff" xlink:href="#b"/>
</g>
<g clip-path="url(#a)">
<use x="812.525038" y="224.382889" fill="#ffffff" stroke="#ffffff" xlink:href="#b"/>
</g>
<g clip-path="url(#a)">
<use x="897.051557" y="882.399415" fill="#ffffff" stroke="#ffffff" xlink:href="#b"/>
</g>
<g clip-path="url(#a)">
<use x="967.859112" y="722.076802" fill="#ffffff" stroke="#ffffff" xlink:href="#b"/>
</g>
<g clip-path="url(#a)">
<use x="1290.62355" y="393.840969" fill="#ffffff" stroke="#ffffff" xlink:href="#b"/>
</g>
<g clip-path="url(#a)">
<use x="1038.666667" y="882.399415" fill="#ffffff" stroke="#ffffff" xlink:href="#b"/>
</g>
<g clip-path="url(#a)">
<use x="1156.679258" y="722.076802" fill="#ffffff" stroke="#ffffff" xlink:href="#b"/>
</g>
<g clip-path="url(#a)">
<use x="1298.294368" y="882.399415" fill="#ffffff" stroke="#ffffff" xlink:href="#b"/>
</g>
<g clip-path="url(#a)">
<use x="1590.375532" y="559.523925" fill="#ffffff" stroke="#ffffff" xlink:href="#b"/>
</g>
<g clip-path="url(#a)">
<use x="1439.909478" y="882.399415" fill="#ffffff" stroke="#ffffff" xlink:href="#b"/>
</g>
<g clip-path="url(#a)">
<use x="1510.717033" y="882.399415" fill="#ffffff" stroke="#ffffff" xlink:href="#b"/>
</g>
<g clip-path="url(#a)">
<use x="1557.922069" y="882.399415" fill="#ffffff" stroke="#ffffff" xlink:href="#b"/>
</g>
<g clip-path="url(#a)">
<use x="1675.934661" y="882.399415" fill="#ffffff" stroke="#ffffff" xlink:href="#b"/>
</g>
<g clip-path="url(#a)">
<use x="1888.357326" y="722.076802" fill="#ffffff" stroke="#ffffff" xlink:href="#b"/>
</g>
<g clip-path="url(#a)">
<use x="1793.947252" y="882.399415" fill="#ffffff" stroke="#ffffff" xlink:href="#b"/>
</g>
<g clip-path="url(#a)">
<use x="1841.152289" y="882.399415" fill="#ffffff" stroke="#ffffff" xlink:href="#b"/>
</g>
<g clip-path="url(#a)">
<use x="1888.357326" y="882.399415" fill="#ffffff" stroke="#ffffff" xlink:href="#b"/>
</g>
<g clip-path="url(#a)">
<use x="1935.562362" y="882.399415" fill="#ffffff" stroke="#ffffff" xlink:href="#b"/>
</g>
<g clip-path="url(#a)">
<use x="1085.871703" y="882.399415" fill="#ffffff" stroke="#ffffff" xlink:href="#b"/>
</g>
<g clip-path="url(#a)">
<use x="1156.679258" y="882.399415" fill="#ffffff" stroke="#ffffff" xlink:href="#b"/>
</g>
<g clip-path="url(#a)">
<use x="1227.486813" y="882.399415" fill="#ffffff" stroke="#ffffff" xlink:href="#b"/>
</g>
<g clip-path="url(#a)">
<use x="944.256593" y="882.399415" fill="#ffffff" stroke="#ffffff" xlink:href="#b"/>
</g>
<g clip-path="url(#a)">
<use x="991.46163" y="882.399415" fill="#ffffff" stroke="#ffffff" xlink:href="#b"/>
</g>
<g clip-path="url(#a)">
<use x="94.565934" y="882.399415" fill="#ffffff" stroke="#ffffff" xlink:href="#b"/>
</g>
<g clip-path="url(#a)">
<use x="141.770971" y="882.399415" fill="#ffffff" stroke="#ffffff" xlink:href="#b"/>
</g>
<g clip-path="url(#a)">
<use x="188.976008" y="882.399415" fill="#ffffff" stroke="#ffffff" xlink:href="#b"/>
</g>
<g clip-path="url(#a)">
<use x="236.181044" y="882.399415" fill="#ffffff" stroke="#ffffff" xlink:href="#b"/>
</g>
<g clip-path="url(#a)">
<use x="283.386081" y="882.399415" fill="#ffffff" stroke="#ffffff" xlink:href="#b"/>
</g>
<g clip-path="url(#a)">
<use x="409.266178" y="559.523925" fill="#ffffff" stroke="#ffffff" xlink:href="#b"/>
</g>
<g clip-path="url(#a)">
<use x="731.833929" y="722.076802" fill="#ffffff" stroke="#ffffff" xlink:href="#b"/>
</g>
<g clip-path="url(#a)">
<use x="661.026374" y="882.399415" fill="#ffffff" stroke="#ffffff" xlink:href="#b"/>
</g>
<g clip-path="url(#a)">
<use x="708.23141" y="882.399415" fill="#ffffff" stroke="#ffffff" xlink:href="#b"/>
</g>
<g clip-path="url(#a)">
<use x="755.436447" y="882.399415" fill="#ffffff" stroke="#ffffff" xlink:href="#b"/>
</g>
<g clip-path="url(#a)">
<use x="802.641484" y="882.399415" fill="#ffffff" stroke="#ffffff" xlink:href="#b"/>
</g>
<g clip-path="url(#a)">
<use x="330.591117" y="882.399415" fill="#ffffff" stroke="#ffffff" xlink:href="#b"/>
</g>
<g clip-path="url(#a)">
<use x="377.796154" y="722.076802" fill="#ffffff" stroke="#ffffff" xlink:href="#b"/>
</g>
<g clip-path="url(#a)">
<use x="519.411264" y="722.076802" fill="#ffffff" stroke="#ffffff" xlink:href="#b"/>
</g>
<g clip-path="url(#a)">
<use x="448.603709" y="882.399415" fill="#ffffff" stroke="#ffffff" xlink:href="#b"/>
</g>
<g clip-path="url(#a)">
<use x="519.411264" y="882.399415" fill="#ffffff" stroke="#ffffff" xlink:href="#b"/>
</g>
<g clip-path="url(#a)">
<use x="590.218819" y="882.399415" fill="#ffffff" stroke="#ffffff" xlink:href="#b"/>
</g>
<g clip-path="url(#a)">
<use x="377.796154" y="882.399415" fill="#ffffff" stroke="#ffffff" xlink:href="#b"/>
</g>
<g clip-path="url(#a)">
<use x="1369.101923" y="882.399415" fill="#ffffff" stroke="#ffffff" xlink:href="#b"/>
</g>
<g clip-path="url(#a)">
<use x="1605.127106" y="882.399415" fill="#ffffff" stroke="#ffffff" xlink:href="#b"/>
</g>
<g clip-path="url(#a)">
<use x="1746.742216" y="882.399415" fill="#ffffff" stroke="#ffffff" xlink:href="#b"/>
</g>
<g clip-path="url(#a)">
<use x="1982.767399" y="882.399415" fill="#ffffff" stroke="#ffffff" xlink:href="#b"/>
</g>
<g clip-path="url(#a)">
<g transform="translate(87.729 1045.5) scale(.1 -.1)">
<use xlink:href="#am"/>
<use x="75.195312" xlink:href="#d"/>
</g>
</g>
<g clip-path="url(#a)">
<defs>
<path id="an" d="m4.2031 54.688h8.9844l11.234-42.672 11.172 42.672h10.594l11.234-42.672 11.188 42.672h8.9844l-14.312-54.688h-10.594l-11.766 44.828-11.812-44.828h-10.609z"/>
<path id="n" d="m44.281 53.078v-8.5q-3.7969 1.9531-7.9062 2.9219-4.0938 0.98438-8.5 0.98438-6.6875 0-10.031-2.0469t-3.3438-6.1562q0-3.125 2.3906-4.9062t9.625-3.3906l3.0781-0.6875q9.5625-2.0469 13.594-5.7812t4.0312-10.422q0-7.625-6.0312-12.078-6.0312-4.4375-16.578-4.4375-4.3906 0-9.1562 0.85938t-10.031 2.5625v9.2812q4.9844-2.5938 9.8125-3.8906 4.8281-1.2812 9.5781-1.2812 6.3438 0 9.75 2.1719 3.4219 2.1719 3.4219 6.125 0 3.6562-2.4688 5.6094-2.4531 1.9531-10.812 3.7656l-3.125 0.73438q-8.3438 1.75-12.062 5.3906-3.7031 3.6406-3.7031 9.9844 0 7.7188 5.4688 11.906 5.4688 4.2031 15.531 4.2031 4.9688 0 9.3594-0.73438 4.4062-0.71875 8.1094-2.1875z"/>
</defs>
<g transform="translate(132.01 1045.5) scale(.1 -.1)">
<use xlink:href="#an"/>
<use x="81.787109" xlink:href="#g"/>
<use x="143.066406" xlink:href="#n"/>
</g>
</g>
<g clip-path="url(#a)">
<defs>
<path id="s" d="m18.312 70.219v-15.531h18.5v-6.9844h-18.5v-29.688q0-6.6875 1.8281-8.5938t7.4531-1.9062h9.2188v-7.5156h-9.2188q-10.406 0-14.359 3.875-3.9531 3.8906-3.9531 14.141v29.688h-6.5938v6.9844h6.5938v15.531z"/>
</defs>
<g transform="translate(177.43 1045.5) scale(.1 -.1)">
<use xlink:href="#j"/>
<use x="27.783203" xlink:href="#g"/>
<use x="89.0625" xlink:href="#s"/>
<use x="128.271484" xlink:href="#d"/>
<use x="189.794922" xlink:href="#e"/>
</g>
</g>
<g clip-path="url(#a)">
<defs>
<path id="be" d="m8.5 21.578v33.109h8.9844v-32.766q0-7.7656 3.0156-11.656 3.0312-3.875 9.0938-3.875 7.2656 0 11.484 4.6406 4.2344 4.6406 4.2344 12.656v31h8.9844v-54.688h-8.9844v8.4062q-3.2656-4.9844-7.5938-7.4062-4.3125-2.4219-10.031-2.4219-9.4219 0-14.312 5.8594-4.875 5.8594-4.875 17.141z"/>
<path id="ac" d="m48.781 52.594v-8.4062q-3.8125 2.1094-7.6406 3.1562t-7.7344 1.0469q-8.75 0-13.594-5.5469-4.8281-5.5312-4.8281-15.547t4.8281-15.562q4.8438-5.5312 13.594-5.5312 3.9062 0 7.7344 1.0469t7.6406 3.1562v-8.3125q-3.7656-1.75-7.7969-2.625-4.0156-0.89062-8.5625-0.89062-12.359 0-19.641 7.7656-7.2656 7.7656-7.2656 20.953 0 13.375 7.3438 21.031 7.3594 7.6719 20.156 7.6719 4.1406 0 8.0938-0.85938 3.9531-0.84375 7.6719-2.5469z"/>
<path id="bd" d="m2.9844 54.688h9.5156l17.094-45.891 17.094 45.891h9.5156l-20.516-54.688h-12.203z"/>
<path id="ai" d="m32.172-5.0781q-3.7969-9.7656-7.4219-12.734-3.6094-2.9844-9.6562-2.9844h-7.1875v7.5156h5.2812q3.7031 0 5.75 1.7656 2.0625 1.75 4.5469 8.2969l1.6094 4.0938-22.109 53.812h9.5156l17.094-42.766 17.094 42.766h9.5156z"/>
</defs>
<g transform="translate(204.85 1045.5) scale(.1 -.1)">
<use xlink:href="#n"/>
<use x="52.099609" xlink:href="#be"/>
<use x="115.478516" xlink:href="#ac"/>
<use x="170.458984" xlink:href="#ac"/>
<use x="225.439453" xlink:href="#d"/>
<use x="286.962891" xlink:href="#n"/>
<use x="339.0625" xlink:href="#n"/>
<use x="391.162109" xlink:href="#h"/>
<use x="418.945312" xlink:href="#bd"/>
<use x="478.125" xlink:href="#d"/>
<use x="539.648438" xlink:href="#j"/>
<use x="567.431641" xlink:href="#ai"/>
</g>
</g>
<g clip-path="url(#a)">
<defs>
<path id="aj" d="m45.406 27.984q0 9.7656-4.0312 15.125-4.0156 5.375-11.297 5.375-7.2188 0-11.25-5.375-4.0312-5.3594-4.0312-15.125 0-9.7188 4.0312-15.094t11.25-5.375q7.2812 0 11.297 5.375 4.0312 5.375 4.0312 15.094zm8.9844-21.203q0-13.953-6.2031-20.766-6.1875-6.8125-18.984-6.8125-4.7344 0-8.9375 0.70312t-8.1562 2.1719v8.7344q3.9531-2.1406 7.8125-3.1562 3.8594-1.0312 7.8594-1.0312 8.8438 0 13.234 4.6094t4.3906 13.938v4.4531q-2.7812-4.8438-7.125-7.2344t-10.406-2.3906q-10.047 0-16.203 7.6562-6.1562 7.6719-6.1562 20.328 0 12.688 6.1562 20.344 6.1562 7.6719 16.203 7.6719 6.0625 0 10.406-2.3906t7.125-7.2188v8.2969h8.9844z"/>
<path id="y" d="m45.406 46.391v29.594h8.9844v-75.984h-8.9844v8.2031q-2.8281-4.875-7.1562-7.25-4.3125-2.375-10.375-2.375-9.9062 0-16.141 7.9062-6.2188 7.9219-6.2188 20.812t6.2188 20.797q6.2344 7.9062 16.141 7.9062 6.0625 0 10.375-2.375 4.3281-2.3594 7.1562-7.2344zm-30.609-19.094q0-9.9062 4.0781-15.547t11.203-5.6406 11.219 5.6406q4.1094 5.6406 4.1094 15.547t-4.1094 15.547q-4.0938 5.6406-11.219 5.6406t-11.203-5.6406-4.0781-15.547z"/>
</defs>
<g transform="translate(261.48 1045.5) scale(.1 -.1)">
<use xlink:href="#d"/>
<use x="61.523438" xlink:href="#f"/>
<use x="124.902344" xlink:href="#aj"/>
<use x="188.378906" xlink:href="#g"/>
<use x="249.658203" xlink:href="#aj"/>
<use x="313.134766" xlink:href="#d"/>
<use x="374.658203" xlink:href="#y"/>
</g>
</g>
<g clip-path="url(#a)">
<defs>
<path id="r" d="m30.609 48.391q-7.2188 0-11.422-5.6406t-4.2031-15.453 4.1719-15.453q4.1875-5.6406 11.453-5.6406 7.1875 0 11.375 5.6562 4.2031 5.6719 4.2031 15.438 0 9.7188-4.2031 15.406-4.1875 5.6875-11.375 5.6875zm0 7.6094q11.719 0 18.406-7.625 6.7031-7.6094 6.7031-21.078 0-13.422-6.7031-21.078-6.6875-7.6406-18.406-7.6406-11.766 0-18.438 7.6406-6.6562 7.6562-6.6562 21.078 0 13.469 6.6562 21.078 6.6719 7.625 18.438 7.625z"/>
</defs>
<g transform="translate(325.57 1045.5) scale(.1 -.1)">
<use xlink:href="#s"/>
<use x="39.208984" xlink:href="#r"/>
</g>
</g>
<g clip-path="url(#a)">
<g transform="translate(354 1045.5) scale(.1 -.1)">
<use xlink:href="#g"/>
<use x="61.279297" xlink:href="#ac"/>
<use x="116.259766" xlink:href="#s"/>
<use x="155.46875" xlink:href="#e"/>
<use x="196.550781" xlink:href="#d"/>
<use x="258.074219" xlink:href="#n"/>
<use x="310.173828" xlink:href="#n"/>
<use x="362.273438" xlink:href="#d"/>
<use x="423.796875" xlink:href="#n"/>
</g>
</g>
<g clip-path="url(#a)">
<defs>
<path id="ax" d="m9.8125 72.906h9.8594v-67.828q0-13.188-5-19.141t-16.094-5.9531h-3.75v8.2969h3.0781q6.5312 0 9.2188 3.6719 2.6875 3.6562 2.6875 13.125z"/>
<path id="ao" d="m37.109 75.984v-7.4844h-8.5938q-4.8281 0-6.7188-1.9531-1.875-1.9531-1.875-7.0312v-4.8281h14.797v-6.9844h-14.797v-47.703h-9.0312v47.703h-8.5938v6.9844h8.5938v3.8125q0 9.125 4.25 13.297 4.25 4.1875 13.469 4.1875z"/>
</defs>
<g transform="translate(405.83 1045.5) scale(.1 -.1)">
<use xlink:href="#ax"/>
<use x="29.492188" xlink:href="#d"/>
<use x="91.015625" xlink:href="#f"/>
<use x="154.394531" xlink:href="#f"/>
<use x="217.773438" xlink:href="#h"/>
<use x="245.556641" xlink:href="#ao"/>
<use x="280.761719" xlink:href="#d"/>
<use x="342.285156" xlink:href="#e"/>
</g>
</g>
<g clip-path="url(#a)">
<defs>
<path id="az" d="m59.516 10.406v19.578h-16.109v8.1094h25.875v-31.312q-5.7031-4.0469-12.594-6.125-6.875-2.0781-14.688-2.0781-17.094 0-26.75 9.9844-9.6406 10-9.6406 27.812 0 17.875 9.6406 27.859 9.6562 9.9844 26.75 9.9844 7.125 0 13.547-1.7656 6.4219-1.75 11.844-5.1719v-10.5q-5.4688 4.6406-11.625 6.9844t-12.938 2.3438q-13.391 0-20.109-7.4688-6.7031-7.4688-6.7031-22.266 0-14.75 6.7031-22.219 6.7188-7.4688 20.109-7.4688 5.2188 0 9.3125 0.90625 4.1094 0.90625 7.375 2.8125z"/>
</defs>
<g transform="translate(460.24 1045.5) scale(.1 -.1)">
<use xlink:href="#az"/>
<use x="77.490234" xlink:href="#e"/>
<use x="118.572266" xlink:href="#d"/>
<use x="180.095703" xlink:href="#ai"/>
</g>
</g>
<g clip-path="url(#a)">
<g transform="translate(510 1045.5) scale(.1 -.1)">
<use xlink:href="#g"/>
<use x="61.279297" xlink:href="#f"/>
<use x="124.658203" xlink:href="#y"/>
</g>
</g>
<g clip-path="url(#a)">
<defs>
<path id="v" d="m54.891 33.016v-33.016h-8.9844v32.719q0 7.7656-3.0312 11.609-3.0312 3.8594-9.0781 3.8594-7.2812 0-11.484-4.6406-4.2031-4.625-4.2031-12.641v-30.906h-9.0312v75.984h9.0312v-29.797q3.2344 4.9375 7.5938 7.375 4.375 2.4375 10.094 2.4375 9.4219 0 14.25-5.8281 4.8438-5.8281 4.8438-17.156z"/>
</defs>
<g transform="translate(546.24 1045.5) scale(.1 -.1)">
<use xlink:href="#ak"/>
<use x="63.476562" xlink:href="#v"/>
<use x="126.855469" xlink:href="#d"/>
<use x="188.378906" xlink:href="#e"/>
<use x="229.492188" xlink:href="#h"/>
<use x="257.275391" xlink:href="#j"/>
<use x="285.058594" xlink:href="#ai"/>
<use x="344.238281" xlink:href="#f"/>
</g>
</g>
<g clip-path="url(#a)">
<g transform="translate(601.54 1045.5) scale(.1 -.1)">
<use xlink:href="#ah"/>
<use x="57.441406" xlink:href="#d"/>
<use x="118.964844" xlink:href="#f"/>
<use x="182.34375" xlink:href="#f"/>
</g>
</g>
<g clip-path="url(#a)">
<g transform="translate(656.47 1045.5) scale(.1 -.1)">
<use xlink:href="#h"/>
<use x="27.783203" xlink:href="#f"/>
</g>
</g>
<g clip-path="url(#a)">
<g transform="translate(700.03 1045.5) scale(.1 -.1)">
<use xlink:href="#s"/>
<use x="39.208984" xlink:href="#v"/>
<use x="102.587891" xlink:href="#d"/>
</g>
</g>
<g clip-path="url(#a)">
<g transform="translate(745.95 1045.5) scale(.1 -.1)">
<use xlink:href="#j"/>
<use x="27.783203" xlink:href="#g"/>
<use x="89.0625" xlink:href="#s"/>
<use x="128.271484" xlink:href="#d"/>
</g>
</g>
<g clip-path="url(#a)">
<defs>
<path id="c" d="m12.406 8.2969h16.109v55.625l-17.531-3.5156v8.9844l17.438 3.5156h9.8594v-64.609h16.109v-8.2969h-41.984z"/>
<path id="x" d="m10.984 1.5156v8.9844q3.7188-1.7656 7.5156-2.6875 3.8125-0.92188 7.4844-0.92188 9.7656 0 14.906 6.5625 5.1562 6.5625 5.8906 19.953-2.8281-4.2031-7.1875-6.4531-4.3438-2.25-9.6094-2.25-10.938 0-17.312 6.6094-6.375 6.625-6.375 18.109 0 11.219 6.6406 18 6.6406 6.7969 17.672 6.7969 12.656 0 19.312-9.7031 6.6719-9.6875 6.6719-28.141 0-17.234-8.1875-27.516-8.1719-10.281-21.984-10.281-3.7188 0-7.5312 0.73438-3.7969 0.73438-7.9062 2.2031zm19.625 30.906q6.6406 0 10.516 4.5312 3.8906 4.5469 3.8906 12.469 0 7.8594-3.8906 12.422-3.875 4.5625-10.516 4.5625t-10.516-4.5625-3.875-12.422q0-7.9219 3.875-12.469 3.875-4.5312 10.516-4.5312z"/>
<path id="z" d="m31.781 34.625q-7.0312 0-11.062-3.7656-4.0156-3.7656-4.0156-10.344 0-6.5938 4.0156-10.359 4.0312-3.7656 11.062-3.7656t11.078 3.7812q4.0625 3.7969 4.0625 10.344 0 6.5781-4.0312 10.344-4.0156 3.7656-11.109 3.7656zm-9.8594 4.1875q-6.3438 1.5625-9.8906 5.9062-3.5312 4.3594-3.5312 10.609 0 8.7344 6.2188 13.812 6.2344 5.0781 17.062 5.0781 10.891 0 17.094-5.0781t6.2031-13.812q0-6.25-3.5469-10.609-3.5312-4.3438-9.8281-5.9062 7.125-1.6562 11.094-6.5 3.9844-4.8281 3.9844-11.797 0-10.609-6.4688-16.281-6.4688-5.6562-18.531-5.6562-12.047 0-18.531 5.6562-6.4688 5.6719-6.4688 16.281 0 6.9688 4 11.797 4.0156 4.8438 11.141 6.5zm-3.6094 15.578q0-5.6562 3.5312-8.8281 3.5469-3.1719 9.9375-3.1719 6.3594 0 9.9375 3.1719 3.5938 3.1719 3.5938 8.8281 0 5.6719-3.5938 8.8438-3.5781 3.1719-9.9375 3.1719-6.3906 0-9.9375-3.1719-3.5312-3.1719-3.5312-8.8438z"/>
<path id="ab" d="m31.781 66.406q-7.6094 0-11.453-7.5-3.8281-7.4844-3.8281-22.531 0-14.984 3.8281-22.484 3.8438-7.5 11.453-7.5 7.6719 0 11.5 7.5 3.8438 7.5 3.8438 22.484 0 15.047-3.8438 22.531-3.8281 7.5-11.5 7.5zm0 7.8125q12.266 0 18.734-9.7031 6.4688-9.6875 6.4688-28.141 0-18.406-6.4688-28.109-6.4688-9.6875-18.734-9.6875-12.25 0-18.719 9.6875-6.4688 9.7031-6.4688 28.109 0 18.453 6.4688 28.141 6.4688 9.7031 18.719 9.7031z"/>
</defs>
<g transform="translate(787.31 1045.5) scale(.1 -.1)">
<use xlink:href="#c"/>
<use x="63.623047" xlink:href="#x"/>
<use x="127.246094" xlink:href="#z"/>
<use x="190.869141" xlink:href="#ab"/>
<use x="254.492188" xlink:href="#n"/>
</g>
</g>
<g clip-path="url(#a)">
<defs>
<path id="au" d="m48.688 27.297q0 9.9062-4.0781 15.547t-11.203 5.6406q-7.1406 0-11.219-5.6406t-4.0781-15.547 4.0781-15.547 11.219-5.6406q7.125 0 11.203 5.6406t4.0781 15.547zm-30.578 19.094q2.8438 4.875 7.1562 7.2344 4.3281 2.375 10.328 2.375 9.9688 0 16.188-7.9062 6.2344-7.9062 6.2344-20.797t-6.2344-20.812q-6.2188-7.9062-16.188-7.9062-6 0-10.328 2.375-4.3125 2.375-7.1562 7.25v-8.2031h-9.0312v75.984h9.0312z"/>
</defs>
<g transform="translate(833.65 1045.5) scale(.1 -.1)">
<use xlink:href="#au"/>
<use x="63.476562" xlink:href="#d"/>
<use x="125" xlink:href="#ao"/>
<use x="160.205078" xlink:href="#r"/>
<use x="221.386719" xlink:href="#e"/>
<use x="262.46875" xlink:href="#d"/>
</g>
</g>
<g clip-path="url(#a)">
<defs>
<path id="at" d="m18.109 8.2031v-29h-9.0312v75.484h9.0312v-8.2969q2.8438 4.875 7.1562 7.2344 4.3281 2.375 10.328 2.375 9.9688 0 16.188-7.9062 6.2344-7.9062 6.2344-20.797t-6.2344-20.812q-6.2188-7.9062-16.188-7.9062-6 0-10.328 2.375-4.3125 2.375-7.1562 7.25zm30.578 19.094q0 9.9062-4.0781 15.547t-11.203 5.6406q-7.1406 0-11.219-5.6406t-4.0781-15.547 4.0781-15.547 11.219-5.6406q7.125 0 11.203 5.6406t4.0781 15.547z"/>
</defs>
<g transform="translate(872.19 1045.5) scale(.1 -.1)">
<use xlink:href="#at"/>
<use x="63.476562" xlink:href="#e"/>
<use x="104.558594" xlink:href="#r"/>
<use x="165.740234" xlink:href="#at"/>
<use x="229.216797" xlink:href="#r"/>
<use x="290.398438" xlink:href="#n"/>
<use x="342.498047" xlink:href="#h"/>
<use x="370.28125" xlink:href="#f"/>
<use x="433.660156" xlink:href="#aj"/>
</g>
</g>
<g clip-path="url(#a)">
<g transform="translate(939.7 1045.5) scale(.1 -.1)">
<use xlink:href="#h"/>
<use x="27.783203" xlink:href="#f"/>
</g>
</g>
<g clip-path="url(#a)">
<g transform="translate(978.74 1045.5) scale(.1 -.1)">
<use xlink:href="#c"/>
<use x="63.623047" xlink:href="#x"/>
<use x="127.246094" xlink:href="#x"/>
<use x="190.869141" xlink:href="#ab"/>
</g>
</g>
<g clip-path="url(#a)">
<g transform="translate(1033.6 1045.5) scale(.1 -.1)">
<use xlink:href="#s"/>
<use x="39.208984" xlink:href="#r"/>
</g>
</g>
<g clip-path="url(#a)">
<g transform="translate(1078.7 1045.5) scale(.1 -.1)">
<use xlink:href="#v"/>
<use x="63.378906" xlink:href="#h"/>
<use x="91.162109" xlink:href="#n"/>
</g>
</g>
<g clip-path="url(#a)">
<g transform="translate(1114.4 1045.5) scale(.1 -.1)">
<use xlink:href="#u"/>
<use x="63.183594" xlink:href="#y"/>
<use x="126.660156" xlink:href="#an"/>
<use x="208.447266" xlink:href="#g"/>
<use x="269.726562" xlink:href="#e"/>
<use x="310.824219" xlink:href="#y"/>
</g>
</g>
<g clip-path="url(#a)">
<g transform="translate(1147.5 1045.5) scale(.1 -.1)">
<use xlink:href="#ak"/>
<use x="63.476562" xlink:href="#ac"/>
<use x="118.457031" xlink:href="#h"/>
<use x="146.240234" xlink:href="#n"/>
<use x="198.339844" xlink:href="#n"/>
<use x="250.439453" xlink:href="#r"/>
<use x="311.621094" xlink:href="#e"/>
<use x="352.71875" xlink:href="#v"/>
<use x="416.097656" xlink:href="#g"/>
<use x="477.376953" xlink:href="#f"/>
<use x="540.755859" xlink:href="#y"/>
<use x="604.232422" xlink:href="#n"/>
</g>
</g>
<g clip-path="url(#a)">
<defs>
<path id="bb" d="m4.8906 31.391h26.312v-8h-26.312z"/>
</defs>
<g transform="translate(1210.2 1045.5) scale(.1 -.1)">
<use xlink:href="#ac"/>
<use x="54.980469" xlink:href="#r"/>
<use x="116.177734" xlink:href="#bb"/>
<use x="152.261719" xlink:href="#n"/>
<use x="204.361328" xlink:href="#s"/>
<use x="243.570312" xlink:href="#g"/>
<use x="304.849609" xlink:href="#e"/>
</g>
</g>
<g clip-path="url(#a)">
<defs>
<path id="ap" d="m3.3281 72.906h9.9531l15.328-61.625 15.281 61.625h11.094l15.328-61.625 15.281 61.625h10.016l-18.312-72.906h-12.406l-15.375 63.281-15.531-63.281h-12.406z"/>
</defs>
<g transform="translate(1255.9 1045.5) scale(.1 -.1)">
<use xlink:href="#ap"/>
<use x="98.845703" xlink:href="#h"/>
<use x="126.628906" xlink:href="#f"/>
<use x="190.007812" xlink:href="#r"/>
<use x="251.189453" xlink:href="#f"/>
<use x="314.568359" xlink:href="#g"/>
</g>
</g>
<g clip-path="url(#a)">
<g transform="translate(1307.2 1045.5) scale(.1 -.1)">
<use xlink:href="#t"/>
<use x="69.404297" xlink:href="#ai"/>
<use x="128.583984" xlink:href="#y"/>
<use x="192.060547" xlink:href="#d"/>
<use x="253.583984" xlink:href="#e"/>
</g>
</g>
<g clip-path="url(#a)">
<defs>
<path id="bc" d="m11.719 12.406h10.297v-8.4062l-8-15.625h-6.2969l4 15.625z"/>
</defs>
<g transform="translate(1367.5 1045.5) scale(.1 -.1)">
<use xlink:href="#bc"/>
</g>
</g>
<g clip-path="url(#a)">
<g transform="translate(1409.4 1045.5) scale(.1 -.1)">
<use xlink:href="#ao"/>
<use x="35.205078" xlink:href="#r"/>
<use x="96.386719" xlink:href="#e"/>
</g>
</g>
<g clip-path="url(#a)">
<g transform="translate(1448.3 1045.5) scale(.1 -.1)">
<use xlink:href="#an"/>
<use x="81.787109" xlink:href="#v"/>
<use x="145.166016" xlink:href="#r"/>
<use x="206.347656" xlink:href="#l"/>
</g>
</g>
<g clip-path="url(#a)">
<g transform="translate(1504.5 1045.5) scale(.1 -.1)">
<use xlink:href="#v"/>
<use x="63.378906" xlink:href="#d"/>
</g>
</g>
<g clip-path="url(#a)">
<g transform="translate(1536.6 1045.5) scale(.1 -.1)">
<use xlink:href="#s"/>
<use x="39.208984" xlink:href="#g"/>
<use x="100.488281" xlink:href="#s"/>
<use x="139.697266" xlink:href="#s"/>
<use x="178.90625" xlink:href="#r"/>
<use x="240.087891" xlink:href="#r"/>
<use x="301.269531" xlink:href="#d"/>
<use x="362.792969" xlink:href="#y"/>
</g>
</g>
<g clip-path="url(#a)">
<defs>
<path id="ar" d="m17.922 72.906v-27.109h-8.2969v27.109zm18.453 0v-27.109h-8.2969v27.109z"/>
</defs>
<g transform="translate(1602.8 1045.5) scale(.1 -.1)">
<use xlink:href="#ar"/>
</g>
</g>
<g clip-path="url(#a)">
<defs>
<path id="ay" d="m9.8125 72.906h9.8594v-72.906h-9.8594z"/>
<path id="aq" d="m39.406 66.219q-10.75 0-17.078-8.0156-6.3125-8-6.3125-21.828 0-13.766 6.3125-21.781 6.3281-8 17.078-8 10.734 0 17.016 8 6.2812 8.0156 6.2812 21.781 0 13.828-6.2812 21.828-6.2812 8.0156-17.016 8.0156zm0 8q15.328 0 24.5-10.281 9.1875-10.281 9.1875-27.562 0-17.234-9.1875-27.516-9.1719-10.281-24.5-10.281-15.375 0-24.594 10.25-9.2031 10.266-9.2031 27.547t9.2031 27.562q9.2188 10.281 24.594 10.281z"/>
</defs>
<g transform="translate(1631.1 1045.5) scale(.1 -.1)">
<use xlink:href="#ap"/>
<use x="98.876953" xlink:href="#ay"/>
<use x="128.369141" xlink:href="#al"/>
<use x="203.173828" xlink:href="#aq"/>
<use x="281.884766" xlink:href="#al"/>
<use x="356.689453" xlink:href="#q"/>
</g>
</g>
<g clip-path="url(#a)">
<defs>
<path id="av" d="m28.609 0-27.828 72.906h10.297l23.109-61.375 23.141 61.375h10.25l-27.781-72.906z"/>
</defs>
<g transform="translate(1676 1045.5) scale(.1 -.1)">
<use xlink:href="#ah"/>
<use x="57.519531" xlink:href="#aq"/>
<use x="136.230469" xlink:href="#t"/>
<use x="205.712891" xlink:href="#u"/>
<use x="268.896484" xlink:href="#av"/>
<use x="337.304688" xlink:href="#u"/>
<use x="400.488281" xlink:href="#t"/>
</g>
</g>
<g clip-path="url(#a)">
<g transform="translate(1744.4 1045.5) scale(.1 -.1)">
<use xlink:href="#ar"/>
</g>
</g>
<g clip-path="url(#a)">
<g transform="translate(1787.7 1045.5) scale(.1 -.1)">
<use xlink:href="#r"/>
<use x="61.181641" xlink:href="#f"/>
</g>
</g>
<g clip-path="url(#a)">
<g transform="translate(1834 1045.5) scale(.1 -.1)">
<use xlink:href="#v"/>
<use x="63.378906" xlink:href="#h"/>
<use x="91.162109" xlink:href="#n"/>
</g>
</g>
<g clip-path="url(#a)">
<g transform="translate(1876.6 1045.5) scale(.1 -.1)">
<use xlink:href="#e"/>
<use x="41.113281" xlink:href="#h"/>
<use x="68.896484" xlink:href="#aj"/>
<use x="132.373047" xlink:href="#v"/>
<use x="195.751953" xlink:href="#s"/>
</g>
</g>
<g clip-path="url(#a)">
<g transform="translate(1925.6 1045.5) scale(.1 -.1)">
<use xlink:href="#g"/>
<use x="61.279297" xlink:href="#e"/>
<use x="102.376953" xlink:href="#l"/>
</g>
</g>
<g clip-path="url(#a)">
<defs>
<path id="i" d="m10.688 12.406h10.312v-12.406h-10.312z"/>
</defs>
<g transform="translate(1981.2 1045.5) scale(.1 -.1)">
<use xlink:href="#i"/>
</g>
</g>
<g clip-path="url(#a)">
<g transform="translate(645.5 53.371) scale(.1 -.1)">
<use xlink:href="#c"/>
<use x="63.623047" xlink:href="#i"/>
<use x="95.410156" xlink:href="#c"/>
</g>
</g>
<g clip-path="url(#a)">
<defs>
<path id="p" d="m19.188 8.2969h34.422v-8.2969h-46.281v8.2969q5.6094 5.8125 15.297 15.594 9.7031 9.7969 12.188 12.641 4.7344 5.3125 6.6094 9 1.8906 3.6875 1.8906 7.25 0 5.8125-4.0781 9.4688-4.0781 3.6719-10.625 3.6719-4.6406 0-9.7969-1.6094-5.1406-1.6094-11-4.8906v9.9688q5.9531 2.3906 11.125 3.6094 5.1875 1.2188 9.4844 1.2188 11.328 0 18.062-5.6719 6.7344-5.6562 6.7344-15.125 0-4.5-1.6875-8.5312-1.6719-4.0156-6.125-9.4844-1.2188-1.4219-7.7656-8.1875-6.5312-6.7656-18.453-18.922z"/>
</defs>
<g transform="translate(290.05 396.6) scale(.1 -.1)">
<use xlink:href="#c"/>
<use x="63.623047" xlink:href="#i"/>
<use x="95.410156" xlink:href="#p"/>
</g>
</g>
<g clip-path="url(#a)">
<defs>
<path id="o" d="m40.578 39.312q7.0781-1.5156 11.047-6.3125 3.9844-4.7812 3.9844-11.812 0-10.781-7.4219-16.703-7.4219-5.9062-21.094-5.9062-4.5781 0-9.4375 0.90625t-10.031 2.7188v9.5156q4.0938-2.3906 8.9688-3.6094 4.8906-1.2188 10.219-1.2188 9.2656 0 14.125 3.6562t4.8594 10.641q0 6.4531-4.5156 10.078-4.5156 3.6406-12.562 3.6406h-8.5v8.1094h8.8906q7.2656 0 11.125 2.9062t3.8594 8.375q0 5.6094-3.9844 8.6094-3.9688 3.0156-11.391 3.0156-4.0625 0-8.7031-0.89062-4.6406-0.875-10.203-2.7188v8.7812q5.625 1.5625 10.531 2.3438t9.25 0.78125q11.234 0 17.766-5.1094 6.5469-5.0938 6.5469-13.781 0-6.0625-3.4688-10.234t-9.8594-5.7812z"/>
</defs>
<g transform="translate(841.89 885.16) scale(.1 -.1)">
<use xlink:href="#c"/>
<use x="63.623047" xlink:href="#i"/>
<use x="95.410156" xlink:href="#o"/>
</g>
</g>
<g clip-path="url(#a)">
<defs>
<path id="m" d="m37.797 64.312-24.906-38.922h24.906zm-2.5938 8.5938h12.406v-47.516h10.406v-8.2031h-10.406v-17.188h-9.8125v17.188h-32.906v9.5156z"/>
</defs>
<g transform="translate(804.57 227.14) scale(.1 -.1)">
<use xlink:href="#c"/>
<use x="63.623047" xlink:href="#i"/>
<use x="95.410156" xlink:href="#m"/>
</g>
</g>
<g clip-path="url(#a)">
<defs>
<path id="ae" d="m33.016 40.375q-6.6406 0-10.531-4.5469-3.875-4.5312-3.875-12.438 0-7.8594 3.875-12.438 3.8906-4.5625 10.531-4.5625t10.516 4.5625q3.875 4.5781 3.875 12.438 0 7.9062-3.875 12.438-3.875 4.5469-10.516 4.5469zm19.578 30.922v-8.9844q-3.7188 1.75-7.5 2.6719-3.7812 0.9375-7.5 0.9375-9.7656 0-14.922-6.5938-5.1406-6.5938-5.875-19.922 2.875 4.25 7.2188 6.5156 4.3594 2.2656 9.5781 2.2656 10.984 0 17.359-6.6719 6.375-6.6562 6.375-18.125 0-11.234-6.6406-18.031-6.6406-6.7812-17.672-6.7812-12.656 0-19.344 9.6875-6.6875 9.7031-6.6875 28.109 0 17.281 8.2031 27.562t22.016 10.281q3.7188 0 7.5-0.73438t7.8906-2.1875z"/>
</defs>
<g transform="translate(889.1 885.16) scale(.1 -.1)">
<use xlink:href="#c"/>
<use x="63.623047" xlink:href="#i"/>
<use x="95.410156" xlink:href="#ae"/>
</g>
</g>
<g clip-path="url(#a)">
<defs>
<path id="ad" d="m8.2031 72.906h46.875v-4.2031l-26.469-68.703h-10.297l24.906 64.594h-35.016z"/>
</defs>
<g transform="translate(959.91 724.84) scale(.1 -.1)">
<use xlink:href="#c"/>
<use x="63.623047" xlink:href="#i"/>
<use x="95.410156" xlink:href="#ad"/>
</g>
</g>
<g clip-path="url(#a)">
<g transform="translate(1282.7 396.6) scale(.1 -.1)">
<use xlink:href="#c"/>
<use x="63.623047" xlink:href="#i"/>
<use x="95.410156" xlink:href="#z"/>
</g>
</g>
<g clip-path="url(#a)">
<g transform="translate(1030.7 885.16) scale(.1 -.1)">
<use xlink:href="#c"/>
<use x="63.623047" xlink:href="#i"/>
<use x="95.410156" xlink:href="#x"/>
</g>
</g>
<g clip-path="url(#a)">
<g transform="translate(1145.5 724.84) scale(.1 -.1)">
<use xlink:href="#c"/>
<use x="63.623047" xlink:href="#i"/>
<use x="95.410156" xlink:href="#c"/>
<use x="159.033203" xlink:href="#ab"/>
</g>
</g>
<g clip-path="url(#a)">
<g transform="translate(1287.2 885.16) scale(.1 -.1)">
<use xlink:href="#c"/>
<use x="63.623047" xlink:href="#i"/>
<use x="95.410156" xlink:href="#c"/>
<use x="159.033203" xlink:href="#c"/>
</g>
</g>
<g clip-path="url(#a)">
<g transform="translate(1579.2 562.28) scale(.1 -.1)">
<use xlink:href="#c"/>
<use x="63.623047" xlink:href="#i"/>
<use x="95.410156" xlink:href="#c"/>
<use x="159.033203" xlink:href="#p"/>
</g>
</g>
<g clip-path="url(#a)">
<g transform="translate(1428.8 885.16) scale(.1 -.1)">
<use xlink:href="#c"/>
<use x="63.623047" xlink:href="#i"/>
<use x="95.410156" xlink:href="#c"/>
<use x="159.033203" xlink:href="#m"/>
</g>
</g>
<g clip-path="url(#a)">
<defs>
<path id="aa" d="m10.797 72.906h38.719v-8.3125h-29.688v-17.859q2.1406 0.73438 4.2812 1.0938 2.1562 0.35938 4.3125 0.35938 12.203 0 19.328-6.6875 7.1406-6.6875 7.1406-18.109 0-11.766-7.3281-18.297-7.3281-6.5156-20.656-6.5156-4.5938 0-9.3594 0.78125-4.75 0.78125-9.8281 2.3438v9.9219q4.3906-2.3906 9.0781-3.5625t9.9062-1.1719q8.4531 0 13.375 4.4375 4.9375 4.4375 4.9375 12.062 0 7.6094-4.9375 12.047-4.9219 4.4531-13.375 4.4531-3.9531 0-7.8906-0.875-3.9219-0.875-8.0156-2.7344z"/>
</defs>
<g transform="translate(1499.6 885.16) scale(.1 -.1)">
<use xlink:href="#c"/>
<use x="63.623047" xlink:href="#i"/>
<use x="95.410156" xlink:href="#c"/>
<use x="159.033203" xlink:href="#aa"/>
</g>
</g>
<g clip-path="url(#a)">
<g transform="translate(1546.8 885.16) scale(.1 -.1)">
<use xlink:href="#c"/>
<use x="63.623047" xlink:href="#i"/>
<use x="95.410156" xlink:href="#c"/>
<use x="159.033203" xlink:href="#ae"/>
</g>
</g>
<g clip-path="url(#a)">
<g transform="translate(1664.8 885.16) scale(.1 -.1)">
<use xlink:href="#c"/>
<use x="63.623047" xlink:href="#i"/>
<use x="95.410156" xlink:href="#c"/>
<use x="159.033203" xlink:href="#ad"/>
</g>
</g>
<g clip-path="url(#a)">
<g transform="translate(1877.2 724.84) scale(.1 -.1)">
<use xlink:href="#c"/>
<use x="63.623047" xlink:href="#i"/>
<use x="95.410156" xlink:href="#c"/>
<use x="159.033203" xlink:href="#z"/>
</g>
</g>
<g clip-path="url(#a)">
<g transform="translate(1782.8 885.16) scale(.1 -.1)">
<use xlink:href="#c"/>
<use x="63.623047" xlink:href="#i"/>
<use x="95.410156" xlink:href="#p"/>
<use x="159.033203" xlink:href="#c"/>
</g>
</g>
<g clip-path="url(#a)">
<g transform="translate(1830 885.16) scale(.1 -.1)">
<use xlink:href="#c"/>
<use x="63.623047" xlink:href="#i"/>
<use x="95.410156" xlink:href="#p"/>
<use x="159.033203" xlink:href="#p"/>
</g>
</g>
<g clip-path="url(#a)">
<g transform="translate(1877.2 885.16) scale(.1 -.1)">
<use xlink:href="#c"/>
<use x="63.623047" xlink:href="#i"/>
<use x="95.410156" xlink:href="#p"/>
<use x="159.033203" xlink:href="#o"/>
</g>
</g>
<g clip-path="url(#a)">
<g transform="translate(1924.4 885.16) scale(.1 -.1)">
<use xlink:href="#c"/>
<use x="63.623047" xlink:href="#i"/>
<use x="95.410156" xlink:href="#p"/>
<use x="159.033203" xlink:href="#m"/>
</g>
</g>
<g clip-path="url(#a)">
<g transform="translate(1074.7 885.16) scale(.1 -.1)">
<use xlink:href="#c"/>
<use x="63.623047" xlink:href="#i"/>
<use x="95.410156" xlink:href="#p"/>
<use x="159.033203" xlink:href="#aa"/>
</g>
</g>
<g clip-path="url(#a)">
<g transform="translate(1145.5 885.16) scale(.1 -.1)">
<use xlink:href="#c"/>
<use x="63.623047" xlink:href="#i"/>
<use x="95.410156" xlink:href="#p"/>
<use x="159.033203" xlink:href="#ae"/>
</g>
</g>
<g clip-path="url(#a)">
<g transform="translate(1216.4 885.16) scale(.1 -.1)">
<use xlink:href="#c"/>
<use x="63.623047" xlink:href="#i"/>
<use x="95.410156" xlink:href="#p"/>
<use x="159.033203" xlink:href="#ad"/>
</g>
</g>
<g clip-path="url(#a)">
<g transform="translate(933.12 885.16) scale(.1 -.1)">
<use xlink:href="#c"/>
<use x="63.623047" xlink:href="#i"/>
<use x="95.410156" xlink:href="#p"/>
<use x="159.033203" xlink:href="#z"/>
</g>
</g>
<g clip-path="url(#a)">
<g transform="translate(980.33 885.16) scale(.1 -.1)">
<use xlink:href="#c"/>
<use x="63.623047" xlink:href="#i"/>
<use x="95.410156" xlink:href="#p"/>
<use x="159.033203" xlink:href="#x"/>
</g>
</g>
<g clip-path="url(#a)">
<g transform="translate(83.433 885.16) scale(.1 -.1)">
<use xlink:href="#c"/>
<use x="63.623047" xlink:href="#i"/>
<use x="95.410156" xlink:href="#o"/>
<use x="159.033203" xlink:href="#ab"/>
</g>
</g>
<g clip-path="url(#a)">
<g transform="translate(130.64 885.16) scale(.1 -.1)">
<use xlink:href="#c"/>
<use x="63.623047" xlink:href="#i"/>
<use x="95.410156" xlink:href="#o"/>
<use x="159.033203" xlink:href="#c"/>
</g>
</g>
<g clip-path="url(#a)">
<g transform="translate(177.84 885.16) scale(.1 -.1)">
<use xlink:href="#c"/>
<use x="63.623047" xlink:href="#i"/>
<use x="95.410156" xlink:href="#o"/>
<use x="159.033203" xlink:href="#p"/>
</g>
</g>
<g clip-path="url(#a)">
<g transform="translate(225.05 885.16) scale(.1 -.1)">
<use xlink:href="#c"/>
<use x="63.623047" xlink:href="#i"/>
<use x="95.410156" xlink:href="#o"/>
<use x="159.033203" xlink:href="#o"/>
</g>
</g>
<g clip-path="url(#a)">
<g transform="translate(272.25 885.16) scale(.1 -.1)">
<use xlink:href="#c"/>
<use x="63.623047" xlink:href="#i"/>
<use x="95.410156" xlink:href="#o"/>
<use x="159.033203" xlink:href="#m"/>
</g>
</g>
<g clip-path="url(#a)">
<g transform="translate(398.13 562.28) scale(.1 -.1)">
<use xlink:href="#c"/>
<use x="63.623047" xlink:href="#i"/>
<use x="95.410156" xlink:href="#o"/>
<use x="159.033203" xlink:href="#aa"/>
</g>
</g>
<g clip-path="url(#a)">
<g transform="translate(720.7 724.84) scale(.1 -.1)">
<use xlink:href="#c"/>
<use x="63.623047" xlink:href="#i"/>
<use x="95.410156" xlink:href="#o"/>
<use x="159.033203" xlink:href="#ae"/>
</g>
</g>
<g clip-path="url(#a)">
<g transform="translate(649.89 885.16) scale(.1 -.1)">
<use xlink:href="#c"/>
<use x="63.623047" xlink:href="#i"/>
<use x="95.410156" xlink:href="#o"/>
<use x="159.033203" xlink:href="#ad"/>
</g>
</g>
<g clip-path="url(#a)">
<g transform="translate(697.1 885.16) scale(.1 -.1)">
<use xlink:href="#c"/>
<use x="63.623047" xlink:href="#i"/>
<use x="95.410156" xlink:href="#o"/>
<use x="159.033203" xlink:href="#z"/>
</g>
</g>
<g clip-path="url(#a)">
<g transform="translate(744.3 885.16) scale(.1 -.1)">
<use xlink:href="#c"/>
<use x="63.623047" xlink:href="#i"/>
<use x="95.410156" xlink:href="#o"/>
<use x="159.033203" xlink:href="#x"/>
</g>
</g>
<g clip-path="url(#a)">
<g transform="translate(791.51 885.16) scale(.1 -.1)">
<use xlink:href="#c"/>
<use x="63.623047" xlink:href="#i"/>
<use x="95.410156" xlink:href="#m"/>
<use x="159.033203" xlink:href="#ab"/>
</g>
</g>
<g clip-path="url(#a)">
<g transform="translate(319.46 885.16) scale(.1 -.1)">
<use xlink:href="#c"/>
<use x="63.623047" xlink:href="#i"/>
<use x="95.410156" xlink:href="#m"/>
<use x="159.033203" xlink:href="#c"/>
</g>
</g>
<g clip-path="url(#a)">
<g transform="translate(366.66 724.84) scale(.1 -.1)">
<use xlink:href="#c"/>
<use x="63.623047" xlink:href="#i"/>
<use x="95.410156" xlink:href="#m"/>
<use x="159.033203" xlink:href="#p"/>
</g>
</g>
<g clip-path="url(#a)">
<g transform="translate(508.28 724.84) scale(.1 -.1)">
<use xlink:href="#c"/>
<use x="63.623047" xlink:href="#i"/>
<use x="95.410156" xlink:href="#m"/>
<use x="159.033203" xlink:href="#o"/>
</g>
</g>
<g clip-path="url(#a)">
<g transform="translate(437.47 885.16) scale(.1 -.1)">
<use xlink:href="#c"/>
<use x="63.623047" xlink:href="#i"/>
<use x="95.410156" xlink:href="#m"/>
<use x="159.033203" xlink:href="#m"/>
</g>
</g>
<g clip-path="url(#a)">
<g transform="translate(508.28 885.16) scale(.1 -.1)">
<use xlink:href="#c"/>
<use x="63.623047" xlink:href="#i"/>
<use x="95.410156" xlink:href="#m"/>
<use x="159.033203" xlink:href="#aa"/>
</g>
</g>
<g clip-path="url(#a)">
<g transform="translate(579.09 885.16) scale(.1 -.1)">
<use xlink:href="#c"/>
<use x="63.623047" xlink:href="#i"/>
<use x="95.410156" xlink:href="#m"/>
<use x="159.033203" xlink:href="#ae"/>
</g>
</g>
<g clip-path="url(#a)">
<g transform="translate(366.66 885.16) scale(.1 -.1)">
<use xlink:href="#c"/>
<use x="63.623047" xlink:href="#i"/>
<use x="95.410156" xlink:href="#m"/>
<use x="159.033203" xlink:href="#ad"/>
</g>
</g>
<g clip-path="url(#a)">
<g transform="translate(1358 885.16) scale(.1 -.1)">
<use xlink:href="#c"/>
<use x="63.623047" xlink:href="#i"/>
<use x="95.410156" xlink:href="#m"/>
<use x="159.033203" xlink:href="#z"/>
</g>
</g>
<g clip-path="url(#a)">
<g transform="translate(1594 885.16) scale(.1 -.1)">
<use xlink:href="#c"/>
<use x="63.623047" xlink:href="#i"/>
<use x="95.410156" xlink:href="#m"/>
<use x="159.033203" xlink:href="#x"/>
</g>
</g>
<g clip-path="url(#a)">
<g transform="translate(1735.6 885.16) scale(.1 -.1)">
<use xlink:href="#c"/>
<use x="63.623047" xlink:href="#i"/>
<use x="95.410156" xlink:href="#aa"/>
<use x="159.033203" xlink:href="#ab"/>
</g>
</g>
<g clip-path="url(#a)">
<g transform="translate(1971.6 885.16) scale(.1 -.1)">
<use xlink:href="#c"/>
<use x="63.623047" xlink:href="#i"/>
<use x="95.410156" xlink:href="#aa"/>
<use x="159.033203" xlink:href="#c"/>
</g>
</g>
<defs>
<clipPath id="a">
<rect width="2077.3" height="1093.3"/>
</clipPath>
</defs>
</svg>
