<?xml version="1.0" encoding="UTF-8"?>
<!DOCTYPE svg  PUBLIC '-//W3C//DTD SVG 1.1//EN'  'http://www.w3.org/Graphics/SVG/1.1/DTD/svg11.dtd'>
<svg width="1368pt" height="720pt" version="1.1" viewBox="0 0 1368 720" xmlns="http://www.w3.org/2000/svg" xmlns:xlink="http://www.w3.org/1999/xlink">
<defs>
<style type="text/css">*{stroke-linecap:butt;stroke-linejoin:round;white-space:pre;}</style>
</defs>
<path d="m0 720h1368v-720h-1368z" fill="#fff"/>
<g fill="none" stroke="#000">
<path d="m292.38 33.397v88.651" clip-path="url(#a)"/>
<path d="m292.38 122.05-182.16 409.93" clip-path="url(#a)"/>
<path d="m292.38 122.05-38.718 487.24" clip-path="url(#a)"/>
<path d="m292.38 122.05 9.0974 487.24" clip-path="url(#a)"/>
<path d="m292.38 122.05 298.32 86.115" clip-path="url(#a)"/>
<path d="m292.38 122.05-86.533 487.24" clip-path="url(#a)"/>
<path d="m110.22 531.97-47.815 77.315" clip-path="url(#a)"/>
<path d="m110.22 531.97v77.315" clip-path="url(#a)"/>
<path d="m110.22 531.97 47.815 77.315" clip-path="url(#a)"/>
<path d="m253.66 609.29v77.315" clip-path="url(#a)"/>
<path d="m301.48 609.29v77.315" clip-path="url(#a)"/>
<path d="m590.7 208.16-169.68 401.13" clip-path="url(#a)"/>
<path d="m590.7 208.16-4.7193 245.42" clip-path="url(#a)"/>
<path d="m590.7 208.16 224.55 83.8" clip-path="url(#a)"/>
<path d="m590.7 208.16-50.144 401.13" clip-path="url(#a)"/>
<path d="m421.02 609.29-71.723 77.315" clip-path="url(#a)"/>
<path d="m421.02 609.29-23.908 77.315" clip-path="url(#a)"/>
<path d="m421.02 609.29 23.908 77.315" clip-path="url(#a)"/>
<path d="m421.02 609.29 71.723 77.315" clip-path="url(#a)"/>
<path d="m585.98 453.58-332.32 155.7" clip-path="url(#a)" stroke-dasharray="3.7,1.6"/>
<path d="m585.98 453.58 2.3908 155.7" clip-path="url(#a)"/>
<path d="m585.98 453.58 50.206 155.7" clip-path="url(#a)"/>
<path d="m585.98 453.58 98.022 155.7" clip-path="url(#a)"/>
<path d="m585.98 453.58 181.7 78.39" clip-path="url(#a)"/>
<path d="m815.24 291.96-394.23 317.32" clip-path="url(#a)" stroke-dasharray="3.7,1.6"/>
<path d="m815.24 291.96 60.018 317.32" clip-path="url(#a)"/>
<path d="m815.24 291.96 107.83 317.32" clip-path="url(#a)"/>
<path d="m815.24 291.96 226.38 81.72" clip-path="url(#a)"/>
<path d="m875.26 609.29v77.315" clip-path="url(#a)"/>
<path d="m923.08 609.29v77.315" clip-path="url(#a)"/>
<path d="m1041.6 373.68-70.727 235.6" clip-path="url(#a)"/>
<path d="m1041.6 373.68-22.912 235.6" clip-path="url(#a)"/>
<path d="m1041.6 373.68 93.638 79.9" clip-path="url(#a)"/>
<path d="m970.89 609.29v77.315" clip-path="url(#a)"/>
<path d="m1018.7 609.29v77.315" clip-path="url(#a)"/>
<path d="m1135.3 453.58-68.735 155.7" clip-path="url(#a)"/>
<path d="m1135.3 453.58 68.735 78.39" clip-path="url(#a)"/>
<path d="m1066.5 609.29v77.315" clip-path="url(#a)"/>
<path d="m1204 531.97-89.654 77.315" clip-path="url(#a)"/>
<path d="m1204 531.97-41.838 77.315" clip-path="url(#a)"/>
<path d="m1204 531.97 29.885 77.315" clip-path="url(#a)"/>
<path d="m1204 531.97 101.61 77.315" clip-path="url(#a)"/>
<path d="m1114.3 609.29v77.315" clip-path="url(#a)"/>
<path d="m1162.2 609.29v77.315" clip-path="url(#a)"/>
<path d="m1233.9 609.29-23.908 77.315" clip-path="url(#a)"/>
<path d="m1233.9 609.29 23.908 77.315" clip-path="url(#a)"/>
<path d="m588.37 609.29v77.315" clip-path="url(#a)"/>
<path d="m636.18 609.29v77.315" clip-path="url(#a)"/>
<path d="m684 609.29v77.315" clip-path="url(#a)"/>
<path d="m767.68 531.97-35.862 77.315" clip-path="url(#a)"/>
<path d="m767.68 531.97 35.862 77.315" clip-path="url(#a)"/>
<path d="m731.82 609.29v77.315" clip-path="url(#a)"/>
<path d="m803.54 609.29-23.908 77.315" clip-path="url(#a)"/>
<path d="m803.54 609.29 23.908 77.315" clip-path="url(#a)"/>
<path d="m62.4 609.29v77.315" clip-path="url(#a)"/>
<path d="m110.22 609.29v77.315" clip-path="url(#a)"/>
<path d="m158.03 609.29v77.315" clip-path="url(#a)"/>
<path d="m205.85 609.29v77.315" clip-path="url(#a)"/>
<path d="m540.55 609.29v77.315" clip-path="url(#a)"/>
<path d="m1305.6 609.29v77.315" clip-path="url(#a)"/>
</g>
<path d="m286.11 74.714v6.0162q0 2.4 2.4 2.4h7.7425q2.4 0 2.4-2.4v-6.0162q0-2.4-2.4-2.4h-7.7425q-2.4 0-2.4 2.4z" clip-path="url(#a)" fill="#fff" stroke="#fff"/>
<g clip-path="url(#a)">
<defs>
<path id="al" d="m9.8125 72.906h9.8594v-29.891h35.844v29.891h9.8594v-72.906h-9.8594v34.719h-35.844v-34.719h-9.8594z"/>
</defs>
<g transform="translate(290.17 74.714) rotate(90) scale(.08 -.08)">
<use xlink:href="#al"/>
</g>
</g>
<path d="m206.04 331.79 1.9843-4.4652q0.97462-2.1932-1.2186-3.1678l-7.0753-3.1442q-2.1932-0.97462-3.1678 1.2186l-1.9843 4.4652q-0.97462 2.1932 1.2186 3.1678l7.0753 3.1442q2.1932 0.97462 3.1678-1.2186z" clip-path="url(#a)" fill="#fff" stroke="#fff"/>
<g clip-path="url(#a)">
<defs>
<path id="l" d="m-0.29688 72.906h61.672v-8.3125h-25.875v-64.594h-9.9062v64.594h-25.891z"/>
</defs>
<g transform="translate(202.32 330.14) rotate(-66.04) scale(.08 -.08)">
<use xlink:href="#l"/>
</g>
</g>
<path d="m279.06 368.89 0.4335-5.4553q0.19011-2.3925-2.2023-2.5826l-7.7182-0.61332q-2.3925-0.19011-2.5826 2.2023l-0.4335 5.4553q-0.19011 2.3925 2.2023 2.5826l7.7182 0.61332q2.3925 0.19011 2.5826-2.2023z" clip-path="url(#a)" fill="#fff" stroke="#fff"/>
<g clip-path="url(#a)">
<defs>
<path id="s" d="m34.188 63.188-13.391-36.281h26.812zm-5.5781 9.7188h11.188l27.781-72.906h-10.25l-6.6406 18.703h-32.859l-6.6406-18.703h-10.406z"/>
</defs>
<g transform="translate(275 368.57) rotate(-85.457) scale(.08 -.08)">
<use xlink:href="#s"/>
</g>
</g>
<path d="m290.61 363.37 0.09005 4.8229q0.044803 2.3996 2.4444 2.3548l7.7412-0.14454q2.3996-0.044803 2.3548-2.4444l-0.090049-4.8229q-0.044803-2.3996-2.4444-2.3548l-7.7412 0.14454q-2.3996 0.044803-2.3548 2.4444z" clip-path="url(#a)" fill="#fff" stroke="#fff"/>
<g clip-path="url(#a)">
<defs>
<path id="ac" d="m19.672 64.797v-27.391h12.406q6.8906 0 10.641 3.5625 3.7656 3.5625 3.7656 10.156 0 6.5469-3.7656 10.109-3.75 3.5625-10.641 3.5625zm-9.8594 8.1094h22.266q12.266 0 18.531-5.5469 6.2812-5.5469 6.2812-16.234 0-10.797-6.2812-16.312-6.2656-5.5156-18.531-5.5156h-12.406v-29.297h-9.8594z"/>
</defs>
<g transform="translate(294.68 363.3) rotate(88.93) scale(.08 -.08)">
<use xlink:href="#ac"/>
</g>
</g>
<path d="m437.17 170.37 5.2578 1.5178q2.3058 0.66562 2.9715-1.6402l2.1473-7.4388q0.66562-2.3058-1.6402-2.9715l-5.2578-1.5178q-2.3058-0.66562-2.9715 1.6402l-2.1473 7.4388q-0.66562 2.3058 1.6402 2.9715z" clip-path="url(#a)" fill="#fff" stroke="#fff"/>
<g clip-path="url(#a)">
<g transform="translate(438.3 166.47) rotate(16.102) scale(.08 -.08)">
<use xlink:href="#s"/>
</g>
</g>
<path d="m254.78 369.65 1.0238-5.7648q0.41967-2.363-1.9434-2.7827l-7.6232-1.3539q-2.363-0.41967-2.7827 1.9434l-1.0238 5.7648q-0.41967 2.363 1.9434 2.7827l7.6232 1.3539q2.363 0.41967 2.7827-1.9434z" clip-path="url(#a)" fill="#fff" stroke="#fff"/>
<g clip-path="url(#a)">
<defs>
<path id="aa" d="m8.6875 72.906h9.9219v-44.297q0-11.719 4.2344-16.875 4.25-5.1406 13.781-5.1406 9.4688 0 13.719 5.1406 4.25 5.1562 4.25 16.875v44.297h9.9062v-45.516q0-14.25-7.0625-21.531-7.0469-7.2812-20.812-7.2812-13.828 0-20.891 7.2812-7.0469 7.2812-7.0469 21.531z"/>
</defs>
<g transform="translate(250.77 368.94) rotate(-79.929) scale(.08 -.08)">
<use xlink:href="#aa"/>
</g>
</g>
<path d="m90.312 576.08 2.6589-4.2992q1.2624-2.0412-0.77881-3.3036l-6.5849-4.0725q-2.0412-1.2624-3.3036 0.77881l-2.6589 4.2992q-1.2624 2.0412 0.77881 3.3036l6.5849 4.0725q2.0412 1.2624 3.3036-0.77881z" clip-path="url(#a)" fill="#fff" stroke="#fff"/>
<g clip-path="url(#a)">
<defs>
<path id="u" d="m9.8125 72.906h46.094v-8.3125h-36.234v-21.578h34.719v-8.2969h-34.719v-26.422h37.109v-8.2969h-46.969z"/>
</defs>
<g transform="translate(86.855 573.94) rotate(-58.265) scale(.08 -.08)">
<use xlink:href="#u"/>
</g>
</g>
<path d="m103.94 568.1v5.055q0 2.4 2.4 2.4h7.7425q2.4 0 2.4-2.4v-5.055q0-2.4-2.4-2.4h-7.7425q-2.4 0-2.4 2.4z" clip-path="url(#a)" fill="#fff" stroke="#fff"/>
<g clip-path="url(#a)">
<g transform="translate(108.01 568.1) rotate(90) scale(.08 -.08)">
<use xlink:href="#u"/>
</g>
</g>
<path d="m127.32 571.55 2.9383 4.7511q1.2624 2.0412 3.3036 0.77881l6.5849-4.0725q2.0412-1.2624 0.77881-3.3036l-2.9383-4.7511q-1.2624-2.0412-3.3036-0.77881l-6.5849 4.0725q-2.0412 1.2624-0.77881 3.3036z" clip-path="url(#a)" fill="#fff" stroke="#fff"/>
<g clip-path="url(#a)">
<defs>
<path id="r" d="m64.406 67.281v-10.391q-4.9844 4.6406-10.625 6.9219-5.6406 2.2969-11.984 2.2969-12.5 0-19.141-7.6406t-6.6406-22.094q0-14.406 6.6406-22.047t19.141-7.6406q6.3438 0 11.984 2.2969t10.625 6.9375v-10.312q-5.1719-3.5156-10.969-5.2812-5.7812-1.75-12.219-1.75-16.562 0-26.094 10.125-9.5156 10.141-9.5156 27.672 0 17.578 9.5156 27.703 9.5312 10.141 26.094 10.141 6.5312 0 12.312-1.7344 5.7969-1.7344 10.875-5.2031z"/>
</defs>
<g transform="translate(130.78 569.42) rotate(58.265) scale(.08 -.08)">
<use xlink:href="#r"/>
</g>
</g>
<path d="m247.39 630.3v35.285q0 2.4 2.4 2.4h7.7425q2.4 0 2.4-2.4v-35.285q0-2.4-2.4-2.4h-7.7425q-2.4 0-2.4 2.4z" clip-path="url(#a)" fill="#fff" stroke="#fff"/>
<g clip-path="url(#a)">
<defs>
<path id="e" d="m56.203 29.594v-4.3906h-41.312q0.59375-9.2812 5.5938-14.141t13.938-4.8594q5.1719 0 10.031 1.2656t9.6562 3.8125v-8.5q-4.8438-2.0469-9.9219-3.125t-10.297-1.0781q-13.094 0-20.734 7.6094-7.6406 7.625-7.6406 20.625 0 13.422 7.25 21.297 7.25 7.8906 19.562 7.8906 11.031 0 17.453-7.1094 6.4219-7.0938 6.4219-19.297zm-8.9844 2.6406q-0.09375 7.3594-4.125 11.75-4.0312 4.4062-10.672 4.4062-7.5156 0-12.031-4.25t-5.2031-11.969z"/>
<path id="h" d="m41.109 46.297q-1.5156 0.875-3.2969 1.2812-1.7812 0.42188-3.9219 0.42188-7.625 0-11.703-4.9531t-4.0781-14.234v-28.812h-9.0312v54.688h9.0312v-8.5q2.8438 4.9844 7.375 7.3906 4.5469 2.4219 11.047 2.4219 0.92188 0 2.0469-0.125 1.125-0.10938 2.4844-0.35938z"/>
<path id="k" d="m52 44.188q3.375 6.0625 8.0625 8.9375t11.031 2.875q8.5469 0 13.188-5.9844 4.6406-5.9688 4.6406-17v-33.016h-9.0312v32.719q0 7.8594-2.7969 11.656-2.7812 3.8125-8.4844 3.8125-6.9844 0-11.047-4.6406-4.0469-4.625-4.0469-12.641v-30.906h-9.0312v32.719q0 7.9062-2.7812 11.688t-8.5938 3.7812q-6.8906 0-10.953-4.6562-4.0469-4.6562-4.0469-12.625v-30.906h-9.0312v54.688h9.0312v-8.5q3.0781 5.0312 7.375 7.4219t10.203 2.3906q5.9688 0 10.141-3.0312 4.1719-3.0156 6.1719-8.7812z"/>
<path id="d" d="m9.4219 54.688h8.9844v-54.688h-8.9844zm0 21.297h8.9844v-11.391h-8.9844z"/>
<path id="j" d="m54.891 33.016v-33.016h-8.9844v32.719q0 7.7656-3.0312 11.609-3.0312 3.8594-9.0781 3.8594-7.2812 0-11.484-4.6406-4.2031-4.625-4.2031-12.641v-30.906h-9.0312v54.688h9.0312v-8.5q3.2344 4.9375 7.5938 7.375 4.375 2.4375 10.094 2.4375 9.4219 0 14.25-5.8281 4.8438-5.8281 4.8438-17.156z"/>
<path id="f" d="m34.281 27.484q-10.891 0-15.094-2.4844t-4.2031-8.5q0-4.7812 3.1562-7.5938 3.1562-2.7969 8.5625-2.7969 7.4844 0 12 5.2969t4.5156 14.078v2zm17.922 3.7188v-31.203h-8.9844v8.2969q-3.0781-4.9688-7.6719-7.3438t-11.234-2.375q-8.3906 0-13.359 4.7188-4.9531 4.7188-4.9531 12.625 0 9.2188 6.1719 13.906 6.1875 4.6875 18.438 4.6875h12.609v0.89062q0 6.2031-4.0781 9.5938t-11.453 3.3906q-4.6875 0-9.1406-1.125-4.4375-1.125-8.5312-3.375v8.3125q4.9219 1.9062 9.5625 2.8438 4.6406 0.95312 9.0312 0.95312 11.875 0 17.734-6.1562 5.8594-6.1406 5.8594-18.641z"/>
<path id="g" d="m9.4219 75.984h8.9844v-75.984h-8.9844z"/>
</defs>
<g transform="translate(251.45 630.3) rotate(90) scale(.08 -.08)">
<use xlink:href="#l"/>
<use x="60.818359" xlink:href="#e"/>
<use x="122.341797" xlink:href="#h"/>
<use x="163.439453" xlink:href="#k"/>
<use x="260.851562" xlink:href="#d"/>
<use x="288.634766" xlink:href="#j"/>
<use x="352.013672" xlink:href="#f"/>
<use x="413.292969" xlink:href="#g"/>
</g>
</g>
<path d="m295.21 630.3v35.285q0 2.4 2.4 2.4h7.7425q2.4 0 2.4-2.4v-35.285q0-2.4-2.4-2.4h-7.7425q-2.4 0-2.4 2.4z" clip-path="url(#a)" fill="#fff" stroke="#fff"/>
<g clip-path="url(#a)">
<g transform="translate(299.27 630.3) rotate(90) scale(.08 -.08)">
<use xlink:href="#l"/>
<use x="60.818359" xlink:href="#e"/>
<use x="122.341797" xlink:href="#h"/>
<use x="163.439453" xlink:href="#k"/>
<use x="260.851562" xlink:href="#d"/>
<use x="288.634766" xlink:href="#j"/>
<use x="352.013672" xlink:href="#f"/>
<use x="413.292969" xlink:href="#g"/>
</g>
</g>
<path d="m510.54 413.74 2.1764-5.1449q0.93502-2.2104-1.2753-3.1454l-7.1307-3.0164q-2.2104-0.93502-3.1454 1.2753l-2.1764 5.1449q-0.93502 2.2104 1.2753 3.1454l7.1307 3.0164q2.2104 0.93502 3.1454-1.2753z" clip-path="url(#a)" fill="#fff" stroke="#fff"/>
<g clip-path="url(#a)">
<g transform="translate(506.8 412.16) rotate(-67.071) scale(.08 -.08)">
<use xlink:href="#r"/>
</g>
</g>
<path d="m594.56 333.52 0.097186-5.0541q0.046142-2.3996-2.3534-2.4457l-7.7411-0.14886q-2.3996-0.046142-2.4457 2.3534l-0.097187 5.0541q-0.046142 2.3996 2.3534 2.4457l7.7411 0.14886q2.3996 0.046141 2.4457-2.3534z" clip-path="url(#a)" fill="#fff" stroke="#fff"/>
<g clip-path="url(#a)">
<g transform="translate(590.5 333.44) rotate(-88.898) scale(.08 -.08)">
<use xlink:href="#u"/>
</g>
</g>
<path d="m698.41 255.05 4.7359 1.7675q2.2485 0.83915 3.0877-1.4094l2.7071-7.2538q0.83915-2.2485-1.4094-3.0877l-4.7359-1.7675q-2.2485-0.83915-3.0877 1.4094l-2.7071 7.2538q-0.83915 2.2485 1.4094 3.0877z" clip-path="url(#a)" fill="#fff" stroke="#fff"/>
<g clip-path="url(#a)">
<g transform="translate(699.83 251.25) rotate(20.466) scale(.08 -.08)">
<use xlink:href="#u"/>
</g>
</g>
<path d="m571.49 412.41 0.72627-5.8098q0.2977-2.3815-2.0838-2.6792l-7.6827-0.9604q-2.3815-0.2977-2.6792 2.0838l-0.72627 5.8098q-0.2977 2.3815 2.0838 2.6792l7.6827 0.9604q2.3815 0.2977 2.6792-2.0838z" clip-path="url(#a)" fill="#fff" stroke="#fff"/>
<g clip-path="url(#a)">
<g transform="translate(567.45 411.9) rotate(-82.875) scale(.08 -.08)">
<use xlink:href="#aa"/>
</g>
</g>
<path d="m377.75 665.14 23.997-25.868q1.6322-1.7595-0.12725-3.3917l-5.6762-5.2657q-1.7595-1.6322-3.3917 0.12725l-23.997 25.868q-1.6322 1.7595 0.12725 3.3917l5.6762 5.2657q1.7595 1.6322 3.3917-0.12725z" clip-path="url(#a)" fill="#fff" stroke="#fff"/>
<g clip-path="url(#a)">
<g transform="translate(374.77 662.38) rotate(-47.149) scale(.08 -.08)">
<use xlink:href="#l"/>
<use x="60.818359" xlink:href="#e"/>
<use x="122.341797" xlink:href="#h"/>
<use x="163.439453" xlink:href="#k"/>
<use x="260.851562" xlink:href="#d"/>
<use x="288.634766" xlink:href="#j"/>
<use x="352.013672" xlink:href="#f"/>
<use x="413.292969" xlink:href="#g"/>
</g>
</g>
<path d="m409.84 666.65 10.424-33.71q0.70902-2.2929-1.5839-3.0019l-7.3969-2.2873q-2.2929-0.70902-3.0019 1.5839l-10.424 33.71q-0.70902 2.2929 1.5839 3.0019l7.3969 2.2873q2.2929 0.70902 3.0019-1.5839z" clip-path="url(#a)" fill="#fff" stroke="#fff"/>
<g clip-path="url(#a)">
<g transform="translate(405.96 665.45) rotate(-72.817) scale(.08 -.08)">
<use xlink:href="#l"/>
<use x="60.818359" xlink:href="#e"/>
<use x="122.341797" xlink:href="#h"/>
<use x="163.439453" xlink:href="#k"/>
<use x="260.851562" xlink:href="#d"/>
<use x="288.634766" xlink:href="#j"/>
<use x="352.013672" xlink:href="#f"/>
<use x="413.292969" xlink:href="#g"/>
</g>
</g>
<path d="m421.77 632.94 10.424 33.71q0.70902 2.2929 3.0019 1.5839l7.3969-2.2873q2.2929-0.70902 1.5839-3.0019l-10.424-33.71q-0.70902-2.2929-3.0019-1.5839l-7.3969 2.2873q-2.2929 0.70902-1.5839 3.0019z" clip-path="url(#a)" fill="#fff" stroke="#fff"/>
<g clip-path="url(#a)">
<g transform="translate(425.65 631.74) rotate(72.817) scale(.08 -.08)">
<use xlink:href="#l"/>
<use x="60.818359" xlink:href="#e"/>
<use x="122.341797" xlink:href="#h"/>
<use x="163.439453" xlink:href="#k"/>
<use x="260.851562" xlink:href="#d"/>
<use x="288.634766" xlink:href="#j"/>
<use x="352.013672" xlink:href="#f"/>
<use x="413.292969" xlink:href="#g"/>
</g>
</g>
<path d="m440.28 639.28 23.997 25.868q1.6322 1.7595 3.3917 0.12725l5.6762-5.2657q1.7595-1.6322 0.12725-3.3917l-23.997-25.868q-1.6322-1.7595-3.3917-0.12725l-5.6762 5.2657q-1.7595 1.6322-0.12725 3.3917z" clip-path="url(#a)" fill="#fff" stroke="#fff"/>
<g clip-path="url(#a)">
<g transform="translate(443.26 636.51) rotate(47.149) scale(.08 -.08)">
<use xlink:href="#l"/>
<use x="60.818359" xlink:href="#e"/>
<use x="122.341797" xlink:href="#h"/>
<use x="163.439453" xlink:href="#k"/>
<use x="260.851562" xlink:href="#d"/>
<use x="288.634766" xlink:href="#j"/>
<use x="352.013672" xlink:href="#f"/>
<use x="413.292969" xlink:href="#g"/>
</g>
</g>
<path d="m420 538.28 4.9555-2.3219q2.1733-1.0183 1.155-3.1915l-3.285-7.0111q-1.0183-2.1733-3.1915-1.155l-4.9555 2.3219q-2.1733 1.0183-1.155 3.1915l3.285 7.0111q1.0183 2.1733 3.1915 1.155z" clip-path="url(#a)" fill="#fff" stroke="#fff"/>
<g clip-path="url(#a)">
<g transform="translate(418.28 534.6) rotate(-25.105) scale(.08 -.08)">
<use xlink:href="#s"/>
</g>
</g>
<path d="m580.87 529.23 0.070642 4.6007q0.036846 2.3997 2.4366 2.3629l7.7416-0.11887q2.3997-0.036846 2.3629-2.4366l-0.070642-4.6007q-0.036846-2.3997-2.4366-2.3629l-7.7416 0.11887q-2.3997 0.036847-2.3629 2.4366z" clip-path="url(#a)" fill="#fff" stroke="#fff"/>
<g clip-path="url(#a)">
<defs>
<path id="am" d="m9.8125 72.906h41.891v-8.3125h-32.031v-21.484h28.906v-8.2969h-28.906v-34.812h-9.8594z"/>
</defs>
<g transform="translate(584.93 529.17) rotate(89.12) scale(.08 -.08)">
<use xlink:href="#am"/>
</g>
</g>
<path d="m604.17 530.43 1.8904 5.8628q0.73652 2.2842 3.0207 1.5477l7.3689-2.3761q2.2842-0.73652 1.5477-3.0207l-1.8904-5.8628q-0.73652-2.2842-3.0207-1.5477l-7.3689 2.3761q-2.2842 0.73652-1.5477 3.0207z" clip-path="url(#a)" fill="#fff" stroke="#fff"/>
<g clip-path="url(#a)">
<defs>
<path id="ad" d="m19.672 64.797v-56.688h11.922q15.094 0 22.094 6.8281 7 6.8438 7 21.594 0 14.641-7 21.453t-22.094 6.8125zm-9.8594 8.1094h20.266q21.188 0 31.094-8.8125 9.9219-8.8125 9.9219-27.562 0-18.859-9.9688-27.703-9.9531-8.8281-31.047-8.8281h-20.266z"/>
</defs>
<g transform="translate(608.04 529.18) rotate(72.128) scale(.08 -.08)">
<use xlink:href="#ad"/>
</g>
</g>
<path d="m628.4 532.74 2.5699 4.0822q1.2786 2.031 3.3097 0.75243l6.5522-4.1249q2.031-1.2786 0.75243-3.3097l-2.5699-4.0822q-1.2786-2.031-3.3097-0.75243l-6.5522 4.1249q-2.031 1.2786-0.75243 3.3097z" clip-path="url(#a)" fill="#fff" stroke="#fff"/>
<g clip-path="url(#a)">
<g transform="translate(631.84 530.57) rotate(57.808) scale(.08 -.08)">
<use xlink:href="#ac"/>
</g>
</g>
<path d="m671.83 497.45 5.0248 2.1679q2.2037 0.95073 3.1544-1.2529l3.0671-7.1091q0.95073-2.2037-1.2529-3.1544l-5.0248-2.1679q-2.2037-0.95073-3.1544 1.2529l-3.0671 7.1091q-0.95073 2.2037 1.2529 3.1544z" clip-path="url(#a)" fill="#fff" stroke="#fff"/>
<g clip-path="url(#a)">
<g transform="translate(673.44 493.72) rotate(23.337) scale(.08 -.08)">
<use xlink:href="#s"/>
</g>
</g>
<path d="m619.93 457.23 4.263-3.4314q1.8696-1.5049 0.3647-3.3745l-4.8548-6.0314q-1.5049-1.8696-3.3745-0.3647l-4.263 3.4314q-1.8696 1.5049-0.3647 3.3745l4.8548 6.0314q1.5049 1.8696 3.3745 0.3647z" clip-path="url(#a)" fill="#fff" stroke="#fff"/>
<g clip-path="url(#a)">
<g transform="translate(617.38 454.06) rotate(-38.832) scale(.08 -.08)">
<use xlink:href="#s"/>
</g>
</g>
<path d="m838.57 449.06 1.0331 5.4619q0.44602 2.3582 2.8042 1.9122l7.6076-1.4389q2.3582-0.44602 1.9122-2.8042l-1.0331-5.4619q-0.44602-2.3582-2.8042-1.9122l-7.6076 1.4389q-2.3582 0.44602-1.9122 2.8042z" clip-path="url(#a)" fill="#fff" stroke="#fff"/>
<g clip-path="url(#a)">
<defs>
<path id="ab" d="m44.391 34.188q3.1719-1.0781 6.1719-4.5938t6.0312-9.6719l10.016-19.922h-10.609l-9.3125 18.703q-3.625 7.3281-7.0156 9.7188t-9.25 2.3906h-10.75v-30.812h-9.8594v72.906h22.266q12.5 0 18.656-5.2344 6.1562-5.2188 6.1562-15.766 0-6.8906-3.2031-11.438-3.2031-4.5312-9.2969-6.2812zm-24.719 30.609v-25.875h12.406q7.125 0 10.766 3.2969t3.6406 9.6875-3.6406 9.6406-10.766 3.25z"/>
</defs>
<g transform="translate(842.57 448.31) rotate(79.29) scale(.08 -.08)">
<use xlink:href="#ab"/>
</g>
</g>
<path d="m862.41 450.24 1.6341 4.8087q0.7722 2.2724 3.0446 1.5002l7.3308-2.4912q2.2724-0.7722 1.5002-3.0446l-1.6341-4.8087q-0.7722-2.2724-3.0446-1.5002l-7.3308 2.4912q-2.2724 0.7722-1.5002 3.0446z" clip-path="url(#a)" fill="#fff" stroke="#fff"/>
<g clip-path="url(#a)">
<defs>
<path id="as" d="m53.516 70.516v-9.625q-5.6094 2.6875-10.594 4-4.9844 1.3281-9.625 1.3281-8.0469 0-12.422-3.125t-4.375-8.8906q0-4.8438 2.9062-7.3125 2.9062-2.4531 11.016-3.9688l5.9531-1.2188q11.031-2.1094 16.281-7.4062t5.25-14.172q0-10.609-7.1094-16.078-7.0938-5.4688-20.812-5.4688-5.1719 0-11.016 1.1719-5.8281 1.1719-12.078 3.4688v10.156q6-3.3594 11.766-5.0781 5.7656-1.7031 11.328-1.7031 8.4375 0 13.031 3.3125 4.5938 3.3281 4.5938 9.4844 0 5.3594-3.2969 8.3906t-10.812 4.5469l-6.0156 1.1719q-11.031 2.1875-15.969 6.875-4.9219 4.6875-4.9219 13.047 0 9.6719 6.8125 15.234t18.766 5.5625q5.1406 0 10.453-0.9375 5.3281-0.92188 10.891-2.7656z"/>
</defs>
<g transform="translate(866.25 448.93) rotate(71.231) scale(.08 -.08)">
<use xlink:href="#as"/>
</g>
</g>
<path d="m923.73 337.79 5.1474 1.8582q2.2574 0.81491 3.0723-1.4425l2.6289-7.2825q0.81491-2.2574-1.4425-3.0723l-5.1474-1.8582q-2.2574-0.81491-3.0723 1.4425l-2.6289 7.2825q-0.81491 2.2574 1.4425 3.0723z" clip-path="url(#a)" fill="#fff" stroke="#fff"/>
<g clip-path="url(#a)">
<g transform="translate(925.11 333.97) rotate(19.849) scale(.08 -.08)">
<use xlink:href="#s"/>
</g>
</g>
<path d="m868.99 630.3v35.285q0 2.4 2.4 2.4h7.7425q2.4 0 2.4-2.4v-35.285q0-2.4-2.4-2.4h-7.7425q-2.4 0-2.4 2.4z" clip-path="url(#a)" fill="#fff" stroke="#fff"/>
<g clip-path="url(#a)">
<g transform="translate(873.05 630.3) rotate(90) scale(.08 -.08)">
<use xlink:href="#l"/>
<use x="60.818359" xlink:href="#e"/>
<use x="122.341797" xlink:href="#h"/>
<use x="163.439453" xlink:href="#k"/>
<use x="260.851562" xlink:href="#d"/>
<use x="288.634766" xlink:href="#j"/>
<use x="352.013672" xlink:href="#f"/>
<use x="413.292969" xlink:href="#g"/>
</g>
</g>
<path d="m916.81 630.3v35.285q0 2.4 2.4 2.4h7.7425q2.4 0 2.4-2.4v-35.285q0-2.4-2.4-2.4h-7.7425q-2.4 0-2.4 2.4z" clip-path="url(#a)" fill="#fff" stroke="#fff"/>
<g clip-path="url(#a)">
<g transform="translate(920.87 630.3) rotate(90) scale(.08 -.08)">
<use xlink:href="#l"/>
<use x="60.818359" xlink:href="#e"/>
<use x="122.341797" xlink:href="#h"/>
<use x="163.439453" xlink:href="#k"/>
<use x="260.851562" xlink:href="#d"/>
<use x="288.634766" xlink:href="#j"/>
<use x="352.013672" xlink:href="#f"/>
<use x="413.292969" xlink:href="#g"/>
</g>
</g>
<path d="m1011.4 496.24 1.7711-5.8999q0.69004-2.2987-1.6086-2.9887l-7.4156-2.2261q-2.2987-0.69004-2.9887 1.6086l-1.7711 5.8999q-0.69004 2.2987 1.6086 2.9887l7.4156 2.2261q2.2987 0.69004 2.9887-1.6086z" clip-path="url(#a)" fill="#fff" stroke="#fff"/>
<g clip-path="url(#a)">
<g transform="translate(1007.5 495.07) rotate(-73.291) scale(.08 -.08)">
<use xlink:href="#ad"/>
</g>
</g>
<path d="m1036.2 494.49 0.46689-4.8011q0.23229-2.3887-2.1564-2.621l-7.7061-0.74939q-2.3887-0.23229-2.621 2.1564l-0.46689 4.8011q-0.23229 2.3887 2.1564 2.621l7.7061 0.74939q2.3887 0.23229 2.621-2.1564z" clip-path="url(#a)" fill="#fff" stroke="#fff"/>
<g clip-path="url(#a)">
<g transform="translate(1032.1 494.1) rotate(-84.446) scale(.08 -.08)">
<use xlink:href="#ac"/>
</g>
</g>
<path d="m1082.3 416.63 4.163 3.5522q1.8257 1.5578 3.3835-0.26787l5.0256-5.8898q1.5578-1.8257-0.26787-3.3835l-4.163-3.5522q-1.8257-1.5578-3.3835 0.26787l-5.0256 5.8898q-1.5578 1.8257 0.26787 3.3835z" clip-path="url(#a)" fill="#fff" stroke="#fff"/>
<g clip-path="url(#a)">
<g transform="translate(1084.9 413.54) rotate(40.473) scale(.08 -.08)">
<use xlink:href="#s"/>
</g>
</g>
<path d="m964.62 630.3v35.285q0 2.4 2.4 2.4h7.7425q2.4 0 2.4-2.4v-35.285q0-2.4-2.4-2.4h-7.7425q-2.4 0-2.4 2.4z" clip-path="url(#a)" fill="#fff" stroke="#fff"/>
<g clip-path="url(#a)">
<g transform="translate(968.68 630.3) rotate(90) scale(.08 -.08)">
<use xlink:href="#l"/>
<use x="60.818359" xlink:href="#e"/>
<use x="122.341797" xlink:href="#h"/>
<use x="163.439453" xlink:href="#k"/>
<use x="260.851562" xlink:href="#d"/>
<use x="288.634766" xlink:href="#j"/>
<use x="352.013672" xlink:href="#f"/>
<use x="413.292969" xlink:href="#g"/>
</g>
</g>
<path d="m1012.4 630.3v35.285q0 2.4 2.4 2.4h7.7425q2.4 0 2.4-2.4v-35.285q0-2.4-2.4-2.4h-7.7425q-2.4 0-2.4 2.4z" clip-path="url(#a)" fill="#fff" stroke="#fff"/>
<g clip-path="url(#a)">
<g transform="translate(1016.5 630.3) rotate(90) scale(.08 -.08)">
<use xlink:href="#l"/>
<use x="60.818359" xlink:href="#e"/>
<use x="122.341797" xlink:href="#h"/>
<use x="163.439453" xlink:href="#k"/>
<use x="260.851562" xlink:href="#d"/>
<use x="288.634766" xlink:href="#j"/>
<use x="352.013672" xlink:href="#f"/>
<use x="413.292969" xlink:href="#g"/>
</g>
</g>
<path d="m1105.5 536.51 2.2449-5.0853q0.96922-2.1956-1.2264-3.1648l-7.0831-3.1268q-2.1956-0.96922-3.1648 1.2264l-2.2449 5.0853q-0.96922 2.1956 1.2264 3.1648l7.0831 3.1268q2.1956 0.96922 3.1648-1.2264z" clip-path="url(#a)" fill="#fff" stroke="#fff"/>
<g clip-path="url(#a)">
<g transform="translate(1101.8 534.87) rotate(-66.181) scale(.08 -.08)">
<use xlink:href="#ab"/>
</g>
</g>
<path d="m1163.1 494.81 3.6829 4.2003q1.5823 1.8046 3.3868 0.22227l5.8216-5.1045q1.8046-1.5823 0.22227-3.3868l-3.6829-4.2003q-1.5823-1.8046-3.3868-0.22227l-5.8216 5.1045q-1.8045 1.5823-0.22227 3.3868z" clip-path="url(#a)" fill="#fff" stroke="#fff"/>
<g clip-path="url(#a)">
<g transform="translate(1166.1 492.13) rotate(48.755) scale(.08 -.08)">
<use xlink:href="#r"/>
</g>
</g>
<path d="m1060.3 630.3v35.285q0 2.4 2.4 2.4h7.7425q2.4 0 2.4-2.4v-35.285q0-2.4-2.4-2.4h-7.7425q-2.4 0-2.4 2.4z" clip-path="url(#a)" fill="#fff" stroke="#fff"/>
<g clip-path="url(#a)">
<g transform="translate(1064.3 630.3) rotate(90) scale(.08 -.08)">
<use xlink:href="#l"/>
<use x="60.818359" xlink:href="#e"/>
<use x="122.341797" xlink:href="#h"/>
<use x="163.439453" xlink:href="#k"/>
<use x="260.851562" xlink:href="#d"/>
<use x="288.634766" xlink:href="#j"/>
<use x="352.013672" xlink:href="#f"/>
<use x="413.292969" xlink:href="#g"/>
</g>
</g>
<path d="m1161.1 577.2 4.2305-3.6482q1.8175-1.5674 0.25015-3.3849l-5.0564-5.8634q-1.5674-1.8175-3.3849-0.25015l-4.2305 3.6482q-1.8175 1.5674-0.25015 3.3849l5.0564 5.8634q1.5674 1.8175 3.3849 0.25015z" clip-path="url(#a)" fill="#fff" stroke="#fff"/>
<g clip-path="url(#a)">
<g transform="translate(1158.5 574.13) rotate(-40.773) scale(.08 -.08)">
<use xlink:href="#r"/>
</g>
</g>
<path d="m1187.2 576.25 2.8484-5.2637q1.1422-2.1108-0.96853-3.253l-6.8094-3.6849q-2.1108-1.1422-3.253 0.96853l-2.8484 5.2637q-1.1422 2.1108 0.96853 3.253l6.8094 3.6849q2.1108 1.1422 3.253-0.96853z" clip-path="url(#a)" fill="#fff" stroke="#fff"/>
<g clip-path="url(#a)">
<defs>
<path id="ak" d="m9.8125 72.906h13.281l32.328-60.984v60.984h9.5625v-72.906h-13.281l-32.312 60.984v-60.984h-9.5781z"/>
</defs>
<g transform="translate(1183.6 574.31) rotate(-61.58) scale(.08 -.08)">
<use xlink:href="#ak"/>
</g>
</g>
<path d="m1212.1 570.29 2.014 5.2105q0.86529 2.2386 3.1039 1.3733l7.2218-2.7914q2.2386-0.86529 1.3733-3.1039l-2.014-5.2105q-0.86529-2.2386-3.1039-1.3733l-7.2218 2.7915q-2.2386 0.86529-1.3733 3.1039z" clip-path="url(#a)" fill="#fff" stroke="#fff"/>
<g clip-path="url(#a)">
<g transform="translate(1215.9 568.82) rotate(68.867) scale(.08 -.08)">
<use xlink:href="#r"/>
</g>
</g>
<path d="m1248.7 573.85 4.6595 3.5455q1.9099 1.4533 3.3633-0.45664l4.6884-6.1616q1.4533-1.9099-0.45664-3.3633l-4.6595-3.5455q-1.9099-1.4533-3.3633 0.45664l-4.6884 6.1616q-1.4533 1.9099 0.45664 3.3633z" clip-path="url(#a)" fill="#fff" stroke="#fff"/>
<g clip-path="url(#a)">
<g transform="translate(1251.1 570.62) rotate(37.268) scale(.08 -.08)">
<use xlink:href="#aa"/>
</g>
</g>
<path d="m1108.1 630.3v35.285q0 2.4 2.4 2.4h7.7425q2.4 0 2.4-2.4v-35.285q0-2.4-2.4-2.4h-7.7425q-2.4 0-2.4 2.4z" clip-path="url(#a)" fill="#fff" stroke="#fff"/>
<g clip-path="url(#a)">
<g transform="translate(1112.1 630.3) rotate(90) scale(.08 -.08)">
<use xlink:href="#l"/>
<use x="60.818359" xlink:href="#e"/>
<use x="122.341797" xlink:href="#h"/>
<use x="163.439453" xlink:href="#k"/>
<use x="260.851562" xlink:href="#d"/>
<use x="288.634766" xlink:href="#j"/>
<use x="352.013672" xlink:href="#f"/>
<use x="413.292969" xlink:href="#g"/>
</g>
</g>
<path d="m1155.9 630.3v35.285q0 2.4 2.4 2.4h7.7425q2.4 0 2.4-2.4v-35.285q0-2.4-2.4-2.4h-7.7425q-2.4 0-2.4 2.4z" clip-path="url(#a)" fill="#fff" stroke="#fff"/>
<g clip-path="url(#a)">
<g transform="translate(1159.9 630.3) rotate(90) scale(.08 -.08)">
<use xlink:href="#l"/>
<use x="60.818359" xlink:href="#e"/>
<use x="122.341797" xlink:href="#h"/>
<use x="163.439453" xlink:href="#k"/>
<use x="260.851562" xlink:href="#d"/>
<use x="288.634766" xlink:href="#j"/>
<use x="352.013672" xlink:href="#f"/>
<use x="413.292969" xlink:href="#g"/>
</g>
</g>
<path d="m1222.7 666.65 10.424-33.71q0.70902-2.2929-1.5839-3.0019l-7.3969-2.2873q-2.2929-0.70902-3.0019 1.5839l-10.424 33.71q-0.70902 2.2929 1.5839 3.0019l7.3969 2.2873q2.2929 0.70902 3.0019-1.5839z" clip-path="url(#a)" fill="#fff" stroke="#fff"/>
<g clip-path="url(#a)">
<g transform="translate(1218.8 665.45) rotate(-72.817) scale(.08 -.08)">
<use xlink:href="#l"/>
<use x="60.818359" xlink:href="#e"/>
<use x="122.341797" xlink:href="#h"/>
<use x="163.439453" xlink:href="#k"/>
<use x="260.851562" xlink:href="#d"/>
<use x="288.634766" xlink:href="#j"/>
<use x="352.013672" xlink:href="#f"/>
<use x="413.292969" xlink:href="#g"/>
</g>
</g>
<path d="m1234.6 632.94 10.424 33.71q0.70902 2.2929 3.0019 1.5839l7.3969-2.2873q2.2929-0.70902 1.5839-3.0019l-10.424-33.71q-0.70902-2.2929-3.0019-1.5839l-7.3969 2.2873q-2.2929 0.70902-1.5839 3.0019z" clip-path="url(#a)" fill="#fff" stroke="#fff"/>
<g clip-path="url(#a)">
<g transform="translate(1238.5 631.74) rotate(72.817) scale(.08 -.08)">
<use xlink:href="#l"/>
<use x="60.818359" xlink:href="#e"/>
<use x="122.341797" xlink:href="#h"/>
<use x="163.439453" xlink:href="#k"/>
<use x="260.851562" xlink:href="#d"/>
<use x="288.634766" xlink:href="#j"/>
<use x="352.013672" xlink:href="#f"/>
<use x="413.292969" xlink:href="#g"/>
</g>
</g>
<path d="m582.1 630.3v35.285q0 2.4 2.4 2.4h7.7425q2.4 0 2.4-2.4v-35.285q0-2.4-2.4-2.4h-7.7425q-2.4 0-2.4 2.4z" clip-path="url(#a)" fill="#fff" stroke="#fff"/>
<g clip-path="url(#a)">
<g transform="translate(586.16 630.3) rotate(90) scale(.08 -.08)">
<use xlink:href="#l"/>
<use x="60.818359" xlink:href="#e"/>
<use x="122.341797" xlink:href="#h"/>
<use x="163.439453" xlink:href="#k"/>
<use x="260.851562" xlink:href="#d"/>
<use x="288.634766" xlink:href="#j"/>
<use x="352.013672" xlink:href="#f"/>
<use x="413.292969" xlink:href="#g"/>
</g>
</g>
<path d="m629.91 630.3v35.285q0 2.4 2.4 2.4h7.7425q2.4 0 2.4-2.4v-35.285q0-2.4-2.4-2.4h-7.7425q-2.4 0-2.4 2.4z" clip-path="url(#a)" fill="#fff" stroke="#fff"/>
<g clip-path="url(#a)">
<g transform="translate(633.98 630.3) rotate(90) scale(.08 -.08)">
<use xlink:href="#l"/>
<use x="60.818359" xlink:href="#e"/>
<use x="122.341797" xlink:href="#h"/>
<use x="163.439453" xlink:href="#k"/>
<use x="260.851562" xlink:href="#d"/>
<use x="288.634766" xlink:href="#j"/>
<use x="352.013672" xlink:href="#f"/>
<use x="413.292969" xlink:href="#g"/>
</g>
</g>
<path d="m677.73 630.3v35.285q0 2.4 2.4 2.4h7.7425q2.4 0 2.4-2.4v-35.285q0-2.4-2.4-2.4h-7.7425q-2.4 0-2.4 2.4z" clip-path="url(#a)" fill="#fff" stroke="#fff"/>
<g clip-path="url(#a)">
<g transform="translate(681.79 630.3) rotate(90) scale(.08 -.08)">
<use xlink:href="#l"/>
<use x="60.818359" xlink:href="#e"/>
<use x="122.341797" xlink:href="#h"/>
<use x="163.439453" xlink:href="#k"/>
<use x="260.851562" xlink:href="#d"/>
<use x="288.634766" xlink:href="#j"/>
<use x="352.013672" xlink:href="#f"/>
<use x="413.292969" xlink:href="#g"/>
</g>
</g>
<path d="m754.27 575.79 2.339-5.0427q1.0099-2.1772-1.1673-3.1871l-7.0237-3.2579q-2.1772-1.0099-3.1871 1.1673l-2.339 5.0427q-1.0099 2.1772 1.1673 3.1871l7.0237 3.2579q2.1772 1.0099 3.1871-1.1673z" clip-path="url(#a)" fill="#fff" stroke="#fff"/>
<g clip-path="url(#a)">
<g transform="translate(750.58 574.08) rotate(-65.116) scale(.08 -.08)">
<use xlink:href="#ab"/>
</g>
</g>
<path d="m778.74 570.74 2.3506 5.0676q1.0099 2.1772 3.1871 1.1673l7.0237-3.2579q2.1772-1.0099 1.1673-3.1871l-2.3506-5.0676q-1.0099-2.1772-3.1871-1.1673l-7.0237 3.2579q-2.1772 1.0099-1.1673 3.1871z" clip-path="url(#a)" fill="#fff" stroke="#fff"/>
<g clip-path="url(#a)">
<g transform="translate(782.43 569.03) rotate(65.116) scale(.08 -.08)">
<use xlink:href="#r"/>
</g>
</g>
<path d="m725.54 630.3v35.285q0 2.4 2.4 2.4h7.7425q2.4 0 2.4-2.4v-35.285q0-2.4-2.4-2.4h-7.7425q-2.4 0-2.4 2.4z" clip-path="url(#a)" fill="#fff" stroke="#fff"/>
<g clip-path="url(#a)">
<g transform="translate(729.61 630.3) rotate(90) scale(.08 -.08)">
<use xlink:href="#l"/>
<use x="60.818359" xlink:href="#e"/>
<use x="122.341797" xlink:href="#h"/>
<use x="163.439453" xlink:href="#k"/>
<use x="260.851562" xlink:href="#d"/>
<use x="288.634766" xlink:href="#j"/>
<use x="352.013672" xlink:href="#f"/>
<use x="413.292969" xlink:href="#g"/>
</g>
</g>
<path d="m792.36 666.65 10.424-33.71q0.70902-2.2929-1.5839-3.0019l-7.3969-2.2873q-2.2929-0.70902-3.0019 1.5839l-10.424 33.71q-0.70902 2.2929 1.5839 3.0019l7.3969 2.2873q2.2929 0.70902 3.0019-1.5839z" clip-path="url(#a)" fill="#fff" stroke="#fff"/>
<g clip-path="url(#a)">
<g transform="translate(788.48 665.45) rotate(-72.817) scale(.08 -.08)">
<use xlink:href="#l"/>
<use x="60.818359" xlink:href="#e"/>
<use x="122.341797" xlink:href="#h"/>
<use x="163.439453" xlink:href="#k"/>
<use x="260.851562" xlink:href="#d"/>
<use x="288.634766" xlink:href="#j"/>
<use x="352.013672" xlink:href="#f"/>
<use x="413.292969" xlink:href="#g"/>
</g>
</g>
<path d="m804.29 632.94 10.424 33.71q0.70902 2.2929 3.0019 1.5839l7.3969-2.2873q2.2929-0.70902 1.5839-3.0019l-10.424-33.71q-0.70902-2.2929-3.0019-1.5839l-7.3969 2.2873q-2.2929 0.70902-1.5839 3.0019z" clip-path="url(#a)" fill="#fff" stroke="#fff"/>
<g clip-path="url(#a)">
<g transform="translate(808.17 631.74) rotate(72.817) scale(.08 -.08)">
<use xlink:href="#l"/>
<use x="60.818359" xlink:href="#e"/>
<use x="122.341797" xlink:href="#h"/>
<use x="163.439453" xlink:href="#k"/>
<use x="260.851562" xlink:href="#d"/>
<use x="288.634766" xlink:href="#j"/>
<use x="352.013672" xlink:href="#f"/>
<use x="413.292969" xlink:href="#g"/>
</g>
</g>
<path d="m56.129 630.3v35.285q0 2.4 2.4 2.4h7.7425q2.4 0 2.4-2.4v-35.285q0-2.4-2.4-2.4h-7.7425q-2.4 0-2.4 2.4z" clip-path="url(#a)" fill="#fff" stroke="#fff"/>
<g clip-path="url(#a)">
<g transform="translate(60.192 630.3) rotate(90) scale(.08 -.08)">
<use xlink:href="#l"/>
<use x="60.818359" xlink:href="#e"/>
<use x="122.341797" xlink:href="#h"/>
<use x="163.439453" xlink:href="#k"/>
<use x="260.851562" xlink:href="#d"/>
<use x="288.634766" xlink:href="#j"/>
<use x="352.013672" xlink:href="#f"/>
<use x="413.292969" xlink:href="#g"/>
</g>
</g>
<path d="m103.94 630.3v35.285q0 2.4 2.4 2.4h7.7425q2.4 0 2.4-2.4v-35.285q0-2.4-2.4-2.4h-7.7425q-2.4 0-2.4 2.4z" clip-path="url(#a)" fill="#fff" stroke="#fff"/>
<g clip-path="url(#a)">
<g transform="translate(108.01 630.3) rotate(90) scale(.08 -.08)">
<use xlink:href="#l"/>
<use x="60.818359" xlink:href="#e"/>
<use x="122.341797" xlink:href="#h"/>
<use x="163.439453" xlink:href="#k"/>
<use x="260.851562" xlink:href="#d"/>
<use x="288.634766" xlink:href="#j"/>
<use x="352.013672" xlink:href="#f"/>
<use x="413.292969" xlink:href="#g"/>
</g>
</g>
<path d="m151.76 630.3v35.285q0 2.4 2.4 2.4h7.7425q2.4 0 2.4-2.4v-35.285q0-2.4-2.4-2.4h-7.7425q-2.4 0-2.4 2.4z" clip-path="url(#a)" fill="#fff" stroke="#fff"/>
<g clip-path="url(#a)">
<g transform="translate(155.82 630.3) rotate(90) scale(.08 -.08)">
<use xlink:href="#l"/>
<use x="60.818359" xlink:href="#e"/>
<use x="122.341797" xlink:href="#h"/>
<use x="163.439453" xlink:href="#k"/>
<use x="260.851562" xlink:href="#d"/>
<use x="288.634766" xlink:href="#j"/>
<use x="352.013672" xlink:href="#f"/>
<use x="413.292969" xlink:href="#g"/>
</g>
</g>
<path d="m199.57 630.3v35.285q0 2.4 2.4 2.4h7.7425q2.4 0 2.4-2.4v-35.285q0-2.4-2.4-2.4h-7.7425q-2.4 0-2.4 2.4z" clip-path="url(#a)" fill="#fff" stroke="#fff"/>
<g clip-path="url(#a)">
<g transform="translate(203.64 630.3) rotate(90) scale(.08 -.08)">
<use xlink:href="#l"/>
<use x="60.818359" xlink:href="#e"/>
<use x="122.341797" xlink:href="#h"/>
<use x="163.439453" xlink:href="#k"/>
<use x="260.851562" xlink:href="#d"/>
<use x="288.634766" xlink:href="#j"/>
<use x="352.013672" xlink:href="#f"/>
<use x="413.292969" xlink:href="#g"/>
</g>
</g>
<path d="m534.28 630.3v35.285q0 2.4 2.4 2.4h7.7425q2.4 0 2.4-2.4v-35.285q0-2.4-2.4-2.4h-7.7425q-2.4 0-2.4 2.4z" clip-path="url(#a)" fill="#fff" stroke="#fff"/>
<g clip-path="url(#a)">
<g transform="translate(538.35 630.3) rotate(90) scale(.08 -.08)">
<use xlink:href="#l"/>
<use x="60.818359" xlink:href="#e"/>
<use x="122.341797" xlink:href="#h"/>
<use x="163.439453" xlink:href="#k"/>
<use x="260.851562" xlink:href="#d"/>
<use x="288.634766" xlink:href="#j"/>
<use x="352.013672" xlink:href="#f"/>
<use x="413.292969" xlink:href="#g"/>
</g>
</g>
<path d="m1299.3 630.3v35.285q0 2.4 2.4 2.4h7.7425q2.4 0 2.4-2.4v-35.285q0-2.4-2.4-2.4h-7.7425q-2.4 0-2.4 2.4z" clip-path="url(#a)" fill="#fff" stroke="#fff"/>
<g clip-path="url(#a)">
<g transform="translate(1303.4 630.3) rotate(90) scale(.08 -.08)">
<use xlink:href="#l"/>
<use x="60.818359" xlink:href="#e"/>
<use x="122.341797" xlink:href="#h"/>
<use x="163.439453" xlink:href="#k"/>
<use x="260.851562" xlink:href="#d"/>
<use x="288.634766" xlink:href="#j"/>
<use x="352.013672" xlink:href="#f"/>
<use x="413.292969" xlink:href="#g"/>
</g>
</g>
<defs>
<path id="b" d="m0 8.6603c2.2967 0 4.4997-0.9125 6.1237-2.5365 1.624-1.624 2.5365-3.827 2.5365-6.1237s-0.9125-4.4997-2.5365-6.1237c-1.624-1.624-3.827-2.5365-6.1237-2.5365s-4.4997 0.9125-6.1237 2.5365c-1.624 1.624-2.5365 3.827-2.5365 6.1237s0.9125 4.4997 2.5365 6.1237c1.624 1.624 3.827 2.5365 6.1237 2.5365z"/>
</defs>
<g clip-path="url(#a)">
<use x="62.399762" y="686.603162" fill="#ffffff" stroke="#ffffff" xlink:href="#b"/>
</g>
<g clip-path="url(#a)">
<use x="110.215165" y="686.603162" fill="#ffffff" stroke="#ffffff" xlink:href="#b"/>
</g>
<g clip-path="url(#a)">
<use x="158.030568" y="686.603162" fill="#ffffff" stroke="#ffffff" xlink:href="#b"/>
</g>
<g clip-path="url(#a)">
<use x="205.845971" y="686.603162" fill="#ffffff" stroke="#ffffff" xlink:href="#b"/>
</g>
<g clip-path="url(#a)">
<use x="253.661374" y="686.603162" fill="#ffffff" stroke="#ffffff" xlink:href="#b"/>
</g>
<g clip-path="url(#a)">
<use x="301.476777" y="686.603162" fill="#ffffff" stroke="#ffffff" xlink:href="#b"/>
</g>
<g clip-path="url(#a)">
<use x="349.29218" y="686.603162" fill="#ffffff" stroke="#ffffff" xlink:href="#b"/>
</g>
<g clip-path="url(#a)">
<use x="397.107583" y="686.603162" fill="#ffffff" stroke="#ffffff" xlink:href="#b"/>
</g>
<g clip-path="url(#a)">
<use x="444.922985" y="686.603162" fill="#ffffff" stroke="#ffffff" xlink:href="#b"/>
</g>
<g clip-path="url(#a)">
<use x="492.738388" y="686.603162" fill="#ffffff" stroke="#ffffff" xlink:href="#b"/>
</g>
<g clip-path="url(#a)">
<use x="540.553791" y="686.603162" fill="#ffffff" stroke="#ffffff" xlink:href="#b"/>
</g>
<g clip-path="url(#a)">
<use x="588.369194" y="686.603162" fill="#ffffff" stroke="#ffffff" xlink:href="#b"/>
</g>
<g clip-path="url(#a)">
<use x="636.184597" y="686.603162" fill="#ffffff" stroke="#ffffff" xlink:href="#b"/>
</g>
<g clip-path="url(#a)">
<use x="684" y="686.603162" fill="#ffffff" stroke="#ffffff" xlink:href="#b"/>
</g>
<g clip-path="url(#a)">
<use x="731.815403" y="686.603162" fill="#ffffff" stroke="#ffffff" xlink:href="#b"/>
</g>
<g clip-path="url(#a)">
<use x="779.630806" y="686.603162" fill="#ffffff" stroke="#ffffff" xlink:href="#b"/>
</g>
<g clip-path="url(#a)">
<use x="827.446209" y="686.603162" fill="#ffffff" stroke="#ffffff" xlink:href="#b"/>
</g>
<g clip-path="url(#a)">
<use x="875.261612" y="686.603162" fill="#ffffff" stroke="#ffffff" xlink:href="#b"/>
</g>
<g clip-path="url(#a)">
<use x="923.077015" y="686.603162" fill="#ffffff" stroke="#ffffff" xlink:href="#b"/>
</g>
<g clip-path="url(#a)">
<use x="970.892417" y="686.603162" fill="#ffffff" stroke="#ffffff" xlink:href="#b"/>
</g>
<g clip-path="url(#a)">
<use x="1018.70782" y="686.603162" fill="#ffffff" stroke="#ffffff" xlink:href="#b"/>
</g>
<g clip-path="url(#a)">
<use x="1066.523223" y="686.603162" fill="#ffffff" stroke="#ffffff" xlink:href="#b"/>
</g>
<g clip-path="url(#a)">
<use x="1114.338626" y="686.603162" fill="#ffffff" stroke="#ffffff" xlink:href="#b"/>
</g>
<g clip-path="url(#a)">
<use x="1162.154029" y="686.603162" fill="#ffffff" stroke="#ffffff" xlink:href="#b"/>
</g>
<g clip-path="url(#a)">
<use x="1209.969432" y="686.603162" fill="#ffffff" stroke="#ffffff" xlink:href="#b"/>
</g>
<g clip-path="url(#a)">
<use x="1257.784835" y="686.603162" fill="#ffffff" stroke="#ffffff" xlink:href="#b"/>
</g>
<g clip-path="url(#a)">
<use x="1305.600238" y="686.603162" fill="#ffffff" stroke="#ffffff" xlink:href="#b"/>
</g>
<g clip-path="url(#a)">
<use x="292.379398" y="33.396838" fill="#ffffff" stroke="#ffffff" xlink:href="#b"/>
</g>
<g clip-path="url(#a)">
<use x="292.379398" y="122.048105" fill="#ffffff" stroke="#ffffff" xlink:href="#b"/>
</g>
<g clip-path="url(#a)">
<use x="110.215165" y="531.973712" fill="#ffffff" stroke="#ffffff" xlink:href="#b"/>
</g>
<g clip-path="url(#a)">
<use x="253.661374" y="609.288437" fill="#ffffff" stroke="#ffffff" xlink:href="#b"/>
</g>
<g clip-path="url(#a)">
<use x="301.476777" y="609.288437" fill="#ffffff" stroke="#ffffff" xlink:href="#b"/>
</g>
<g clip-path="url(#a)">
<use x="590.697705" y="208.163057" fill="#ffffff" stroke="#ffffff" xlink:href="#b"/>
</g>
<g clip-path="url(#a)">
<use x="421.015284" y="609.288437" fill="#ffffff" stroke="#ffffff" xlink:href="#b"/>
</g>
<g clip-path="url(#a)">
<use x="585.978424" y="453.583454" fill="#ffffff" stroke="#ffffff" xlink:href="#b"/>
</g>
<g clip-path="url(#a)">
<use x="815.243319" y="291.963477" fill="#ffffff" stroke="#ffffff" xlink:href="#b"/>
</g>
<g clip-path="url(#a)">
<use x="875.261612" y="609.288437" fill="#ffffff" stroke="#ffffff" xlink:href="#b"/>
</g>
<g clip-path="url(#a)">
<use x="923.077015" y="609.288437" fill="#ffffff" stroke="#ffffff" xlink:href="#b"/>
</g>
<g clip-path="url(#a)">
<use x="1041.619368" y="373.683732" fill="#ffffff" stroke="#ffffff" xlink:href="#b"/>
</g>
<g clip-path="url(#a)">
<use x="970.892417" y="609.288437" fill="#ffffff" stroke="#ffffff" xlink:href="#b"/>
</g>
<g clip-path="url(#a)">
<use x="1018.70782" y="609.288437" fill="#ffffff" stroke="#ffffff" xlink:href="#b"/>
</g>
<g clip-path="url(#a)">
<use x="1135.257865" y="453.583454" fill="#ffffff" stroke="#ffffff" xlink:href="#b"/>
</g>
<g clip-path="url(#a)">
<use x="1066.523223" y="609.288437" fill="#ffffff" stroke="#ffffff" xlink:href="#b"/>
</g>
<g clip-path="url(#a)">
<use x="1203.992507" y="531.973712" fill="#ffffff" stroke="#ffffff" xlink:href="#b"/>
</g>
<g clip-path="url(#a)">
<use x="1114.338626" y="609.288437" fill="#ffffff" stroke="#ffffff" xlink:href="#b"/>
</g>
<g clip-path="url(#a)">
<use x="1162.154029" y="609.288437" fill="#ffffff" stroke="#ffffff" xlink:href="#b"/>
</g>
<g clip-path="url(#a)">
<use x="1233.877133" y="609.288437" fill="#ffffff" stroke="#ffffff" xlink:href="#b"/>
</g>
<g clip-path="url(#a)">
<use x="588.369194" y="609.288437" fill="#ffffff" stroke="#ffffff" xlink:href="#b"/>
</g>
<g clip-path="url(#a)">
<use x="636.184597" y="609.288437" fill="#ffffff" stroke="#ffffff" xlink:href="#b"/>
</g>
<g clip-path="url(#a)">
<use x="684" y="609.288437" fill="#ffffff" stroke="#ffffff" xlink:href="#b"/>
</g>
<g clip-path="url(#a)">
<use x="767.676955" y="531.973712" fill="#ffffff" stroke="#ffffff" xlink:href="#b"/>
</g>
<g clip-path="url(#a)">
<use x="731.815403" y="609.288437" fill="#ffffff" stroke="#ffffff" xlink:href="#b"/>
</g>
<g clip-path="url(#a)">
<use x="803.538507" y="609.288437" fill="#ffffff" stroke="#ffffff" xlink:href="#b"/>
</g>
<g clip-path="url(#a)">
<use x="62.399762" y="609.288437" fill="#ffffff" stroke="#ffffff" xlink:href="#b"/>
</g>
<g clip-path="url(#a)">
<use x="110.215165" y="609.288437" fill="#ffffff" stroke="#ffffff" xlink:href="#b"/>
</g>
<g clip-path="url(#a)">
<use x="158.030568" y="609.288437" fill="#ffffff" stroke="#ffffff" xlink:href="#b"/>
</g>
<g clip-path="url(#a)">
<use x="205.845971" y="609.288437" fill="#ffffff" stroke="#ffffff" xlink:href="#b"/>
</g>
<g clip-path="url(#a)">
<use x="540.553791" y="609.288437" fill="#ffffff" stroke="#ffffff" xlink:href="#b"/>
</g>
<g clip-path="url(#a)">
<use x="1305.600238" y="609.288437" fill="#ffffff" stroke="#ffffff" xlink:href="#b"/>
</g>
<g clip-path="url(#a)">
<defs>
<path id="v" d="m54.891 33.016v-33.016h-8.9844v32.719q0 7.7656-3.0312 11.609-3.0312 3.8594-9.0781 3.8594-7.2812 0-11.484-4.6406-4.2031-4.625-4.2031-12.641v-30.906h-9.0312v75.984h9.0312v-29.797q3.2344 4.9375 7.5938 7.375 4.375 2.4375 10.094 2.4375 9.4219 0 14.25-5.8281 4.8438-5.8281 4.8438-17.156z"/>
<path id="n" d="m18.312 70.219v-15.531h18.5v-6.9844h-18.5v-29.688q0-6.6875 1.8281-8.5938t7.4531-1.9062h9.2188v-7.5156h-9.2188q-10.406 0-14.359 3.875-3.9531 3.8906-3.9531 14.141v29.688h-6.5938v6.9844h6.5938v15.531z"/>
</defs>
<g transform="translate(51.153 689.36) scale(.1 -.1)">
<use xlink:href="#l"/>
<use x="61.083984" xlink:href="#v"/>
<use x="124.462891" xlink:href="#f"/>
<use x="185.742188" xlink:href="#n"/>
</g>
</g>
<g clip-path="url(#a)">
<defs>
<path id="q" d="m44.281 53.078v-8.5q-3.7969 1.9531-7.9062 2.9219-4.0938 0.98438-8.5 0.98438-6.6875 0-10.031-2.0469t-3.3438-6.1562q0-3.125 2.3906-4.9062t9.625-3.3906l3.0781-0.6875q9.5625-2.0469 13.594-5.7812t4.0312-10.422q0-7.625-6.0312-12.078-6.0312-4.4375-16.578-4.4375-4.3906 0-9.1562 0.85938t-10.031 2.5625v9.2812q4.9844-2.5938 9.8125-3.8906 4.8281-1.2812 9.5781-1.2812 6.3438 0 9.75 2.1719 3.4219 2.1719 3.4219 6.125 0 3.6562-2.4688 5.6094-2.4531 1.9531-10.812 3.7656l-3.125 0.73438q-8.3438 1.75-12.062 5.3906-3.7031 3.6406-3.7031 9.9844 0 7.7188 5.4688 11.906 5.4688 4.2031 15.531 4.2031 4.9688 0 9.3594-0.73438 4.4062-0.71875 8.1094-2.1875z"/>
</defs>
<g transform="translate(96.6 689.36) scale(.1 -.1)">
<use xlink:href="#q"/>
<use x="52.099609" xlink:href="#f"/>
<use x="113.378906" xlink:href="#k"/>
<use x="210.791016" xlink:href="#e"/>
</g>
</g>
<g clip-path="url(#a)">
<defs>
<path id="ao" d="m32.172-5.0781q-3.7969-9.7656-7.4219-12.734-3.6094-2.9844-9.6562-2.9844h-7.1875v7.5156h5.2812q3.7031 0 5.75 1.7656 2.0625 1.75 4.5469 8.2969l1.6094 4.0938-22.109 53.812h9.5156l17.094-42.766 17.094 42.766h9.5156z"/>
</defs>
<g transform="translate(146.88 689.36) scale(.1 -.1)">
<use xlink:href="#ao"/>
<use x="59.179688" xlink:href="#e"/>
<use x="120.703125" xlink:href="#f"/>
<use x="181.982422" xlink:href="#h"/>
</g>
</g>
<g clip-path="url(#a)">
<defs>
<path id="av" d="m11.719 12.406h10.297v-8.4062l-8-15.625h-6.2969l4 15.625z"/>
</defs>
<g transform="translate(204.26 689.36) scale(.1 -.1)">
<use xlink:href="#av"/>
</g>
</g>
<g clip-path="url(#a)">
<g transform="translate(247.42 689.36) scale(.1 -.1)">
<use xlink:href="#v"/>
<use x="63.378906" xlink:href="#e"/>
</g>
</g>
<g clip-path="url(#a)">
<defs>
<path id="z" d="m45.406 46.391v29.594h8.9844v-75.984h-8.9844v8.2031q-2.8281-4.875-7.1562-7.25-4.3125-2.375-10.375-2.375-9.9062 0-16.141 7.9062-6.2188 7.9219-6.2188 20.812t6.2188 20.797q6.2344 7.9062 16.141 7.9062 6.0625 0 10.375-2.375 4.3281-2.3594 7.1562-7.2344zm-30.609-19.094q0-9.9062 4.0781-15.547t11.203-5.6406 11.219 5.6406q4.1094 5.6406 4.1094 15.547t-4.1094 15.547q-4.0938 5.6406-11.219 5.6406t-11.203-5.6406-4.0781-15.547z"/>
</defs>
<g transform="translate(279.96 689.36) scale(.1 -.1)">
<use xlink:href="#h"/>
<use x="41.082031" xlink:href="#e"/>
<use x="102.605469" xlink:href="#g"/>
<use x="130.388672" xlink:href="#e"/>
<use x="191.912109" xlink:href="#f"/>
<use x="253.191406" xlink:href="#q"/>
<use x="305.291016" xlink:href="#e"/>
<use x="366.814453" xlink:href="#z"/>
</g>
</g>
<g clip-path="url(#a)">
<defs>
<path id="o" d="m30.609 48.391q-7.2188 0-11.422-5.6406t-4.2031-15.453 4.1719-15.453q4.1875-5.6406 11.453-5.6406 7.1875 0 11.375 5.6562 4.2031 5.6719 4.2031 15.438 0 9.7188-4.2031 15.406-4.1875 5.6875-11.375 5.6875zm0 7.6094q11.719 0 18.406-7.625 6.7031-7.6094 6.7031-21.078 0-13.422-6.7031-21.078-6.6875-7.6406-18.406-7.6406-11.766 0-18.438 7.6406-6.6562 7.6562-6.6562 21.078 0 13.469 6.6562 21.078 6.6719 7.625 18.438 7.625z"/>
<path id="ap" d="m4.2031 54.688h8.9844l11.234-42.672 11.172 42.672h10.594l11.234-42.672 11.188 42.672h8.9844l-14.312-54.688h-10.594l-11.766 44.828-11.812-44.828h-10.609z"/>
</defs>
<g transform="translate(330.14 689.36) scale(.1 -.1)">
<use xlink:href="#am"/>
<use x="57.519531" xlink:href="#g"/>
<use x="85.302734" xlink:href="#o"/>
<use x="146.484375" xlink:href="#ap"/>
<use x="228.271484" xlink:href="#e"/>
<use x="289.794922" xlink:href="#h"/>
<use x="330.908203" xlink:href="#q"/>
</g>
</g>
<g clip-path="url(#a)">
<g transform="translate(392.55 689.36) scale(.1 -.1)">
<use xlink:href="#d"/>
<use x="27.783203" xlink:href="#j"/>
</g>
</g>
<g clip-path="url(#a)">
<g transform="translate(436.72 689.36) scale(.1 -.1)">
<use xlink:href="#n"/>
<use x="39.208984" xlink:href="#v"/>
<use x="102.587891" xlink:href="#e"/>
</g>
</g>
<g clip-path="url(#a)">
<g transform="translate(483.48 689.36) scale(.1 -.1)">
<use xlink:href="#ad"/>
<use x="77.001953" xlink:href="#d"/>
<use x="104.785156" xlink:href="#h"/>
<use x="145.898438" xlink:href="#n"/>
</g>
</g>
<g clip-path="url(#a)">
<defs>
<path id="au" d="m11.719 51.703h10.297v-12.391h-10.297zm0-39.297h10.297v-8.4062l-8-15.625h-6.2969l4 15.625z"/>
</defs>
<g transform="translate(538.87 689.36) scale(.1 -.1)">
<use xlink:href="#au"/>
</g>
</g>
<g clip-path="url(#a)">
<g transform="translate(585.31 689.36) scale(.1 -.1)">
<use xlink:href="#f"/>
</g>
</g>
<g clip-path="url(#a)">
<defs>
<path id="t" d="m48.781 52.594v-8.4062q-3.8125 2.1094-7.6406 3.1562t-7.7344 1.0469q-8.75 0-13.594-5.5469-4.8281-5.5312-4.8281-15.547t4.8281-15.562q4.8438-5.5312 13.594-5.5312 3.9062 0 7.7344 1.0469t7.6406 3.1562v-8.3125q-3.7656-1.75-7.7969-2.625-4.0156-0.89062-8.5625-0.89062-12.359 0-19.641 7.7656-7.2656 7.7656-7.2656 20.953 0 13.375 7.3438 21.031 7.3594 7.6719 20.156 7.6719 4.1406 0 8.0938-0.85938 3.9531-0.84375 7.6719-2.5469z"/>
<path id="aj" d="m48.688 27.297q0 9.9062-4.0781 15.547t-11.203 5.6406q-7.1406 0-11.219-5.6406t-4.0781-15.547 4.0781-15.547 11.219-5.6406q7.125 0 11.203 5.6406t4.0781 15.547zm-30.578 19.094q2.8438 4.875 7.1562 7.2344 4.3281 2.375 10.328 2.375 9.9688 0 16.188-7.9062 6.2344-7.9062 6.2344-20.797t-6.2344-20.812q-6.2188-7.9062-16.188-7.9062-6 0-10.328 2.375-4.3125 2.375-7.1562 7.25v-8.2031h-9.0312v75.984h9.0312z"/>
<path id="aq" d="m2.9844 54.688h9.5156l17.094-45.891 17.094 45.891h9.5156l-20.516-54.688h-12.203z"/>
</defs>
<g transform="translate(603.8 689.36) scale(.1 -.1)">
<use xlink:href="#t"/>
<use x="54.980469" xlink:href="#o"/>
<use x="116.162109" xlink:href="#g"/>
<use x="143.945312" xlink:href="#g"/>
<use x="171.728516" xlink:href="#f"/>
<use x="233.007812" xlink:href="#aj"/>
<use x="296.484375" xlink:href="#o"/>
<use x="357.666016" xlink:href="#h"/>
<use x="398.779297" xlink:href="#f"/>
<use x="460.058594" xlink:href="#n"/>
<use x="499.267578" xlink:href="#d"/>
<use x="527.050781" xlink:href="#aq"/>
<use x="586.230469" xlink:href="#e"/>
</g>
</g>
<g clip-path="url(#a)">
<defs>
<path id="ai" d="m37.109 75.984v-7.4844h-8.5938q-4.8281 0-6.7188-1.9531-1.875-1.9531-1.875-7.0312v-4.8281h14.797v-6.9844h-14.797v-47.703h-9.0312v47.703h-8.5938v6.9844h8.5938v3.8125q0 9.125 4.25 13.297 4.25 4.1875 13.469 4.1875z"/>
</defs>
<g transform="translate(670.33 689.36) scale(.1 -.1)">
<use xlink:href="#e"/>
<use x="61.523438" xlink:href="#ai"/>
<use x="96.728516" xlink:href="#ai"/>
<use x="131.933594" xlink:href="#o"/>
<use x="193.115234" xlink:href="#h"/>
<use x="234.228516" xlink:href="#n"/>
</g>
</g>
<g clip-path="url(#a)">
<g transform="translate(721.21 689.36) scale(.1 -.1)">
<use xlink:href="#ap"/>
<use x="81.787109" xlink:href="#d"/>
<use x="109.570312" xlink:href="#n"/>
<use x="148.779297" xlink:href="#v"/>
</g>
</g>
<g clip-path="url(#a)">
<g transform="translate(768.13 689.36) scale(.1 -.1)">
<use xlink:href="#u"/>
<use x="63.183594" xlink:href="#g"/>
<use x="90.966797" xlink:href="#aq"/>
<use x="150.146484" xlink:href="#d"/>
<use x="177.929688" xlink:href="#q"/>
</g>
</g>
<g clip-path="url(#a)">
<g transform="translate(807.42 689.36) scale(.1 -.1)">
<use xlink:href="#r"/>
<use x="69.824219" xlink:href="#o"/>
<use x="131.005859" xlink:href="#q"/>
<use x="183.105469" xlink:href="#n"/>
<use x="222.314453" xlink:href="#e"/>
<use x="283.837891" xlink:href="#g"/>
<use x="311.621094" xlink:href="#g"/>
<use x="339.404297" xlink:href="#o"/>
</g>
</g>
<g clip-path="url(#a)">
<g transform="translate(865.11 689.36) scale(.1 -.1)">
<use xlink:href="#n"/>
<use x="39.208984" xlink:href="#v"/>
<use x="102.587891" xlink:href="#f"/>
<use x="163.867188" xlink:href="#n"/>
</g>
</g>
<g clip-path="url(#a)">
<defs>
<path id="y" d="m8.5 21.578v33.109h8.9844v-32.766q0-7.7656 3.0156-11.656 3.0312-3.875 9.0938-3.875 7.2656 0 11.484 4.6406 4.2344 4.6406 4.2344 12.656v31h8.9844v-54.688h-8.9844v8.4062q-3.2656-4.9844-7.5938-7.4062-4.3125-2.4219-10.031-2.4219-9.4219 0-14.312 5.8594-4.875 5.8594-4.875 17.141z"/>
</defs>
<g transform="translate(901.79 689.36) scale(.1 -.1)">
<use xlink:href="#d"/>
<use x="27.783203" xlink:href="#j"/>
<use x="91.162109" xlink:href="#t"/>
<use x="146.142578" xlink:href="#g"/>
<use x="173.925781" xlink:href="#y"/>
<use x="237.304688" xlink:href="#z"/>
<use x="300.78125" xlink:href="#e"/>
<use x="362.304688" xlink:href="#z"/>
</g>
</g>
<g clip-path="url(#a)">
<g transform="translate(951.66 689.36) scale(.1 -.1)">
<use xlink:href="#k"/>
<use x="97.412109" xlink:href="#y"/>
<use x="160.791016" xlink:href="#q"/>
<use x="212.890625" xlink:href="#d"/>
<use x="240.673828" xlink:href="#t"/>
<use x="295.654297" xlink:href="#f"/>
<use x="356.933594" xlink:href="#g"/>
</g>
</g>
<g clip-path="url(#a)">
<g transform="translate(985.8 689.36) scale(.1 -.1)">
<use xlink:href="#t"/>
<use x="54.980469" xlink:href="#o"/>
<use x="116.162109" xlink:href="#j"/>
<use x="179.541016" xlink:href="#n"/>
<use x="218.75" xlink:href="#h"/>
<use x="259.863281" xlink:href="#d"/>
<use x="287.646484" xlink:href="#aj"/>
<use x="351.123047" xlink:href="#y"/>
<use x="414.501953" xlink:href="#n"/>
<use x="453.710938" xlink:href="#d"/>
<use x="481.494141" xlink:href="#o"/>
<use x="542.675781" xlink:href="#j"/>
<use x="606.054688" xlink:href="#q"/>
</g>
</g>
<g clip-path="url(#a)">
<g transform="translate(1054.8 689.36) scale(.1 -.1)">
<use xlink:href="#ai"/>
<use x="35.205078" xlink:href="#h"/>
<use x="76.287109" xlink:href="#o"/>
<use x="137.46875" xlink:href="#k"/>
</g>
</g>
<g clip-path="url(#a)">
<defs>
<path id="at" d="m59.516 10.406v19.578h-16.109v8.1094h25.875v-31.312q-5.7031-4.0469-12.594-6.125-6.875-2.0781-14.688-2.0781-17.094 0-26.75 9.9844-9.6406 10-9.6406 27.812 0 17.875 9.6406 27.859 9.6562 9.9844 26.75 9.9844 7.125 0 13.547-1.7656 6.4219-1.75 11.844-5.1719v-10.5q-5.4688 4.6406-11.625 6.9844t-12.938 2.3438q-13.391 0-20.109-7.4688-6.7031-7.4688-6.7031-22.266 0-14.75 6.7031-22.219 6.7188-7.4688 20.109-7.4688 5.2188 0 9.3125 0.90625 4.1094 0.90625 7.375 2.8125z"/>
</defs>
<g transform="translate(1094.5 689.36) scale(.1 -.1)">
<use xlink:href="#at"/>
<use x="77.490234" xlink:href="#d"/>
<use x="105.273438" xlink:href="#g"/>
<use x="133.056641" xlink:href="#k"/>
<use x="230.46875" xlink:href="#o"/>
<use x="291.650391" xlink:href="#y"/>
<use x="355.029297" xlink:href="#h"/>
</g>
</g>
<g clip-path="url(#a)">
<g transform="translate(1152.7 689.36) scale(.1 -.1)">
<use xlink:href="#f"/>
<use x="61.279297" xlink:href="#j"/>
<use x="124.658203" xlink:href="#z"/>
</g>
</g>
<g clip-path="url(#a)">
<defs>
<path id="ar" d="m9.0781 75.984h9.0312v-44.875l26.812 23.578h11.469l-29-25.578 30.234-29.109h-11.719l-27.797 26.703v-26.703h-9.0312z"/>
</defs>
<g transform="translate(1196.2 689.36) scale(.1 -.1)">
<use xlink:href="#ak"/>
<use x="74.804688" xlink:href="#d"/>
<use x="102.587891" xlink:href="#t"/>
<use x="157.568359" xlink:href="#ar"/>
<use x="215.431641" xlink:href="#ao"/>
</g>
</g>
<g clip-path="url(#a)">
<defs>
<path id="aw" d="m18.109 8.2031v-29h-9.0312v75.484h9.0312v-8.2969q2.8438 4.875 7.1562 7.2344 4.3281 2.375 10.328 2.375 9.9688 0 16.188-7.9062 6.2344-7.9062 6.2344-20.797t-6.2344-20.812q-6.2188-7.9062-16.188-7.9062-6 0-10.328 2.375-4.3125 2.375-7.1562 7.25zm30.578 19.094q0 9.9062-4.0781 15.547t-11.203 5.6406q-7.1406 0-11.219-5.6406t-4.0781-15.547 4.0781-15.547 11.219-5.6406q7.125 0 11.203 5.6406t4.0781 15.547z"/>
</defs>
<g transform="translate(1237.7 689.36) scale(.1 -.1)">
<use xlink:href="#al"/>
<use x="75.195312" xlink:href="#o"/>
<use x="136.376953" xlink:href="#aw"/>
<use x="199.853516" xlink:href="#ar"/>
<use x="257.763672" xlink:href="#d"/>
<use x="285.546875" xlink:href="#j"/>
<use x="348.925781" xlink:href="#q"/>
</g>
</g>
<g clip-path="url(#a)">
<defs>
<path id="i" d="m10.688 12.406h10.312v-12.406h-10.312z"/>
</defs>
<g transform="translate(1304 689.36) scale(.1 -.1)">
<use xlink:href="#i"/>
</g>
</g>
<g clip-path="url(#a)">
<defs>
<path id="c" d="m12.406 8.2969h16.109v55.625l-17.531-3.5156v8.9844l17.438 3.5156h9.8594v-64.609h16.109v-8.2969h-41.984z"/>
</defs>
<g transform="translate(284.43 36.156) scale(.1 -.1)">
<use xlink:href="#c"/>
<use x="63.623047" xlink:href="#i"/>
<use x="95.410156" xlink:href="#c"/>
</g>
</g>
<g clip-path="url(#a)">
<defs>
<path id="m" d="m19.188 8.2969h34.422v-8.2969h-46.281v8.2969q5.6094 5.8125 15.297 15.594 9.7031 9.7969 12.188 12.641 4.7344 5.3125 6.6094 9 1.8906 3.6875 1.8906 7.25 0 5.8125-4.0781 9.4688-4.0781 3.6719-10.625 3.6719-4.6406 0-9.7969-1.6094-5.1406-1.6094-11-4.8906v9.9688q5.9531 2.3906 11.125 3.6094 5.1875 1.2188 9.4844 1.2188 11.328 0 18.062-5.6719 6.7344-5.6562 6.7344-15.125 0-4.5-1.6875-8.5312-1.6719-4.0156-6.125-9.4844-1.2188-1.4219-7.7656-8.1875-6.5312-6.7656-18.453-18.922z"/>
</defs>
<g transform="translate(284.43 124.81) scale(.1 -.1)">
<use xlink:href="#c"/>
<use x="63.623047" xlink:href="#i"/>
<use x="95.410156" xlink:href="#m"/>
</g>
</g>
<g clip-path="url(#a)">
<defs>
<path id="x" d="m37.797 64.312-24.906-38.922h24.906zm-2.5938 8.5938h12.406v-47.516h10.406v-8.2031h-10.406v-17.188h-9.8125v17.188h-32.906v9.5156z"/>
</defs>
<g transform="translate(102.26 534.73) scale(.1 -.1)">
<use xlink:href="#c"/>
<use x="63.623047" xlink:href="#i"/>
<use x="95.410156" xlink:href="#x"/>
</g>
</g>
<g clip-path="url(#a)">
<defs>
<path id="w" d="m10.797 72.906h38.719v-8.3125h-29.688v-17.859q2.1406 0.73438 4.2812 1.0938 2.1562 0.35938 4.3125 0.35938 12.203 0 19.328-6.6875 7.1406-6.6875 7.1406-18.109 0-11.766-7.3281-18.297-7.3281-6.5156-20.656-6.5156-4.5938 0-9.3594 0.78125-4.75 0.78125-9.8281 2.3438v9.9219q4.3906-2.3906 9.0781-3.5625t9.9062-1.1719q8.4531 0 13.375 4.4375 4.9375 4.4375 4.9375 12.062 0 7.6094-4.9375 12.047-4.9219 4.4531-13.375 4.4531-3.9531 0-7.8906-0.875-3.9219-0.875-8.0156-2.7344z"/>
</defs>
<g transform="translate(245.71 612.05) scale(.1 -.1)">
<use xlink:href="#c"/>
<use x="63.623047" xlink:href="#i"/>
<use x="95.410156" xlink:href="#w"/>
</g>
</g>
<g clip-path="url(#a)">
<defs>
<path id="ag" d="m33.016 40.375q-6.6406 0-10.531-4.5469-3.875-4.5312-3.875-12.438 0-7.8594 3.875-12.438 3.8906-4.5625 10.531-4.5625t10.516 4.5625q3.875 4.5781 3.875 12.438 0 7.9062-3.875 12.438-3.875 4.5469-10.516 4.5469zm19.578 30.922v-8.9844q-3.7188 1.75-7.5 2.6719-3.7812 0.9375-7.5 0.9375-9.7656 0-14.922-6.5938-5.1406-6.5938-5.875-19.922 2.875 4.25 7.2188 6.5156 4.3594 2.2656 9.5781 2.2656 10.984 0 17.359-6.6719 6.375-6.6562 6.375-18.125 0-11.234-6.6406-18.031-6.6406-6.7812-17.672-6.7812-12.656 0-19.344 9.6875-6.6875 9.7031-6.6875 28.109 0 17.281 8.2031 27.562t22.016 10.281q3.7188 0 7.5-0.73438t7.8906-2.1875z"/>
</defs>
<g transform="translate(293.53 612.05) scale(.1 -.1)">
<use xlink:href="#c"/>
<use x="63.623047" xlink:href="#i"/>
<use x="95.410156" xlink:href="#ag"/>
</g>
</g>
<g clip-path="url(#a)">
<defs>
<path id="af" d="m8.2031 72.906h46.875v-4.2031l-26.469-68.703h-10.297l24.906 64.594h-35.016z"/>
</defs>
<g transform="translate(582.75 210.92) scale(.1 -.1)">
<use xlink:href="#c"/>
<use x="63.623047" xlink:href="#i"/>
<use x="95.410156" xlink:href="#af"/>
</g>
</g>
<g clip-path="url(#a)">
<defs>
<path id="ae" d="m10.984 1.5156v8.9844q3.7188-1.7656 7.5156-2.6875 3.8125-0.92188 7.4844-0.92188 9.7656 0 14.906 6.5625 5.1562 6.5625 5.8906 19.953-2.8281-4.2031-7.1875-6.4531-4.3438-2.25-9.6094-2.25-10.938 0-17.312 6.6094-6.375 6.625-6.375 18.109 0 11.219 6.6406 18 6.6406 6.7969 17.672 6.7969 12.656 0 19.312-9.7031 6.6719-9.6875 6.6719-28.141 0-17.234-8.1875-27.516-8.1719-10.281-21.984-10.281-3.7188 0-7.5312 0.73438-3.7969 0.73438-7.9062 2.2031zm19.625 30.906q6.6406 0 10.516 4.5312 3.8906 4.5469 3.8906 12.469 0 7.8594-3.8906 12.422-3.875 4.5625-10.516 4.5625t-10.516-4.5625-3.875-12.422q0-7.9219 3.875-12.469 3.875-4.5312 10.516-4.5312z"/>
</defs>
<g transform="translate(413.06 612.05) scale(.1 -.1)">
<use xlink:href="#c"/>
<use x="63.623047" xlink:href="#i"/>
<use x="95.410156" xlink:href="#ae"/>
</g>
</g>
<g clip-path="url(#a)">
<defs>
<path id="ah" d="m31.781 66.406q-7.6094 0-11.453-7.5-3.8281-7.4844-3.8281-22.531 0-14.984 3.8281-22.484 3.8438-7.5 11.453-7.5 7.6719 0 11.5 7.5 3.8438 7.5 3.8438 22.484 0 15.047-3.8438 22.531-3.8281 7.5-11.5 7.5zm0 7.8125q12.266 0 18.734-9.7031 6.4688-9.6875 6.4688-28.141 0-18.406-6.4688-28.109-6.4688-9.6875-18.734-9.6875-12.25 0-18.719 9.6875-6.4688 9.7031-6.4688 28.109 0 18.453 6.4688 28.141 6.4688 9.7031 18.719 9.7031z"/>
</defs>
<g transform="translate(574.85 456.34) scale(.1 -.1)">
<use xlink:href="#c"/>
<use x="63.623047" xlink:href="#i"/>
<use x="95.410156" xlink:href="#c"/>
<use x="159.033203" xlink:href="#ah"/>
</g>
</g>
<g clip-path="url(#a)">
<g transform="translate(804.11 294.72) scale(.1 -.1)">
<use xlink:href="#c"/>
<use x="63.623047" xlink:href="#i"/>
<use x="95.410156" xlink:href="#c"/>
<use x="159.033203" xlink:href="#c"/>
</g>
</g>
<g clip-path="url(#a)">
<defs>
<path id="p" d="m40.578 39.312q7.0781-1.5156 11.047-6.3125 3.9844-4.7812 3.9844-11.812 0-10.781-7.4219-16.703-7.4219-5.9062-21.094-5.9062-4.5781 0-9.4375 0.90625t-10.031 2.7188v9.5156q4.0938-2.3906 8.9688-3.6094 4.8906-1.2188 10.219-1.2188 9.2656 0 14.125 3.6562t4.8594 10.641q0 6.4531-4.5156 10.078-4.5156 3.6406-12.562 3.6406h-8.5v8.1094h8.8906q7.2656 0 11.125 2.9062t3.8594 8.375q0 5.6094-3.9844 8.6094-3.9688 3.0156-11.391 3.0156-4.0625 0-8.7031-0.89062-4.6406-0.875-10.203-2.7188v8.7812q5.625 1.5625 10.531 2.3438t9.25 0.78125q11.234 0 17.766-5.1094 6.5469-5.0938 6.5469-13.781 0-6.0625-3.4688-10.234t-9.8594-5.7812z"/>
</defs>
<g transform="translate(864.13 612.05) scale(.1 -.1)">
<use xlink:href="#c"/>
<use x="63.623047" xlink:href="#i"/>
<use x="95.410156" xlink:href="#c"/>
<use x="159.033203" xlink:href="#p"/>
</g>
</g>
<g clip-path="url(#a)">
<g transform="translate(911.94 612.05) scale(.1 -.1)">
<use xlink:href="#c"/>
<use x="63.623047" xlink:href="#i"/>
<use x="95.410156" xlink:href="#c"/>
<use x="159.033203" xlink:href="#x"/>
</g>
</g>
<g clip-path="url(#a)">
<g transform="translate(1030.5 376.44) scale(.1 -.1)">
<use xlink:href="#c"/>
<use x="63.623047" xlink:href="#i"/>
<use x="95.410156" xlink:href="#c"/>
<use x="159.033203" xlink:href="#w"/>
</g>
</g>
<g clip-path="url(#a)">
<g transform="translate(959.76 612.05) scale(.1 -.1)">
<use xlink:href="#c"/>
<use x="63.623047" xlink:href="#i"/>
<use x="95.410156" xlink:href="#c"/>
<use x="159.033203" xlink:href="#ag"/>
</g>
</g>
<g clip-path="url(#a)">
<g transform="translate(1007.6 612.05) scale(.1 -.1)">
<use xlink:href="#c"/>
<use x="63.623047" xlink:href="#i"/>
<use x="95.410156" xlink:href="#c"/>
<use x="159.033203" xlink:href="#af"/>
</g>
</g>
<g clip-path="url(#a)">
<defs>
<path id="an" d="m31.781 34.625q-7.0312 0-11.062-3.7656-4.0156-3.7656-4.0156-10.344 0-6.5938 4.0156-10.359 4.0312-3.7656 11.062-3.7656t11.078 3.7812q4.0625 3.7969 4.0625 10.344 0 6.5781-4.0312 10.344-4.0156 3.7656-11.109 3.7656zm-9.8594 4.1875q-6.3438 1.5625-9.8906 5.9062-3.5312 4.3594-3.5312 10.609 0 8.7344 6.2188 13.812 6.2344 5.0781 17.062 5.0781 10.891 0 17.094-5.0781t6.2031-13.812q0-6.25-3.5469-10.609-3.5312-4.3438-9.8281-5.9062 7.125-1.6562 11.094-6.5 3.9844-4.8281 3.9844-11.797 0-10.609-6.4688-16.281-6.4688-5.6562-18.531-5.6562-12.047 0-18.531 5.6562-6.4688 5.6719-6.4688 16.281 0 6.9688 4 11.797 4.0156 4.8438 11.141 6.5zm-3.6094 15.578q0-5.6562 3.5312-8.8281 3.5469-3.1719 9.9375-3.1719 6.3594 0 9.9375 3.1719 3.5938 3.1719 3.5938 8.8281 0 5.6719-3.5938 8.8438-3.5781 3.1719-9.9375 3.1719-6.3906 0-9.9375-3.1719-3.5312-3.1719-3.5312-8.8438z"/>
</defs>
<g transform="translate(1124.1 456.34) scale(.1 -.1)">
<use xlink:href="#c"/>
<use x="63.623047" xlink:href="#i"/>
<use x="95.410156" xlink:href="#c"/>
<use x="159.033203" xlink:href="#an"/>
</g>
</g>
<g clip-path="url(#a)">
<g transform="translate(1055.4 612.05) scale(.1 -.1)">
<use xlink:href="#c"/>
<use x="63.623047" xlink:href="#i"/>
<use x="95.410156" xlink:href="#c"/>
<use x="159.033203" xlink:href="#ae"/>
</g>
</g>
<g clip-path="url(#a)">
<g transform="translate(1192.9 534.73) scale(.1 -.1)">
<use xlink:href="#c"/>
<use x="63.623047" xlink:href="#i"/>
<use x="95.410156" xlink:href="#m"/>
<use x="159.033203" xlink:href="#ah"/>
</g>
</g>
<g clip-path="url(#a)">
<g transform="translate(1103.2 612.05) scale(.1 -.1)">
<use xlink:href="#c"/>
<use x="63.623047" xlink:href="#i"/>
<use x="95.410156" xlink:href="#m"/>
<use x="159.033203" xlink:href="#c"/>
</g>
</g>
<g clip-path="url(#a)">
<g transform="translate(1151 612.05) scale(.1 -.1)">
<use xlink:href="#c"/>
<use x="63.623047" xlink:href="#i"/>
<use x="95.410156" xlink:href="#m"/>
<use x="159.033203" xlink:href="#m"/>
</g>
</g>
<g clip-path="url(#a)">
<g transform="translate(1222.7 612.05) scale(.1 -.1)">
<use xlink:href="#c"/>
<use x="63.623047" xlink:href="#i"/>
<use x="95.410156" xlink:href="#m"/>
<use x="159.033203" xlink:href="#p"/>
</g>
</g>
<g clip-path="url(#a)">
<g transform="translate(577.24 612.05) scale(.1 -.1)">
<use xlink:href="#c"/>
<use x="63.623047" xlink:href="#i"/>
<use x="95.410156" xlink:href="#m"/>
<use x="159.033203" xlink:href="#x"/>
</g>
</g>
<g clip-path="url(#a)">
<g transform="translate(625.05 612.05) scale(.1 -.1)">
<use xlink:href="#c"/>
<use x="63.623047" xlink:href="#i"/>
<use x="95.410156" xlink:href="#m"/>
<use x="159.033203" xlink:href="#w"/>
</g>
</g>
<g clip-path="url(#a)">
<g transform="translate(672.87 612.05) scale(.1 -.1)">
<use xlink:href="#c"/>
<use x="63.623047" xlink:href="#i"/>
<use x="95.410156" xlink:href="#m"/>
<use x="159.033203" xlink:href="#ag"/>
</g>
</g>
<g clip-path="url(#a)">
<g transform="translate(756.54 534.73) scale(.1 -.1)">
<use xlink:href="#c"/>
<use x="63.623047" xlink:href="#i"/>
<use x="95.410156" xlink:href="#m"/>
<use x="159.033203" xlink:href="#af"/>
</g>
</g>
<g clip-path="url(#a)">
<g transform="translate(720.68 612.05) scale(.1 -.1)">
<use xlink:href="#c"/>
<use x="63.623047" xlink:href="#i"/>
<use x="95.410156" xlink:href="#m"/>
<use x="159.033203" xlink:href="#an"/>
</g>
</g>
<g clip-path="url(#a)">
<g transform="translate(792.41 612.05) scale(.1 -.1)">
<use xlink:href="#c"/>
<use x="63.623047" xlink:href="#i"/>
<use x="95.410156" xlink:href="#m"/>
<use x="159.033203" xlink:href="#ae"/>
</g>
</g>
<g clip-path="url(#a)">
<g transform="translate(51.267 612.05) scale(.1 -.1)">
<use xlink:href="#c"/>
<use x="63.623047" xlink:href="#i"/>
<use x="95.410156" xlink:href="#p"/>
<use x="159.033203" xlink:href="#ah"/>
</g>
</g>
<g clip-path="url(#a)">
<g transform="translate(99.082 612.05) scale(.1 -.1)">
<use xlink:href="#c"/>
<use x="63.623047" xlink:href="#i"/>
<use x="95.410156" xlink:href="#p"/>
<use x="159.033203" xlink:href="#c"/>
</g>
</g>
<g clip-path="url(#a)">
<g transform="translate(146.9 612.05) scale(.1 -.1)">
<use xlink:href="#c"/>
<use x="63.623047" xlink:href="#i"/>
<use x="95.410156" xlink:href="#p"/>
<use x="159.033203" xlink:href="#m"/>
</g>
</g>
<g clip-path="url(#a)">
<g transform="translate(194.71 612.05) scale(.1 -.1)">
<use xlink:href="#c"/>
<use x="63.623047" xlink:href="#i"/>
<use x="95.410156" xlink:href="#p"/>
<use x="159.033203" xlink:href="#p"/>
</g>
</g>
<g clip-path="url(#a)">
<g transform="translate(529.42 612.05) scale(.1 -.1)">
<use xlink:href="#c"/>
<use x="63.623047" xlink:href="#i"/>
<use x="95.410156" xlink:href="#p"/>
<use x="159.033203" xlink:href="#x"/>
</g>
</g>
<g clip-path="url(#a)">
<g transform="translate(1294.5 612.05) scale(.1 -.1)">
<use xlink:href="#c"/>
<use x="63.623047" xlink:href="#i"/>
<use x="95.410156" xlink:href="#p"/>
<use x="159.033203" xlink:href="#w"/>
</g>
</g>
<defs>
<clipPath id="a">
<rect width="1368" height="720"/>
</clipPath>
</defs>
</svg>
