<?xml version="1.0" encoding="UTF-8"?>
<!DOCTYPE svg  PUBLIC '-//W3C//DTD SVG 1.1//EN'  'http://www.w3.org/Graphics/SVG/1.1/DTD/svg11.dtd'>
<svg width="2077.3pt" height="1093.3pt" version="1.1" viewBox="0 0 2077.3 1093.3" xmlns="http://www.w3.org/2000/svg" xmlns:xlink="http://www.w3.org/1999/xlink">
<defs>
<style type="text/css">*{stroke-linecap:butt;stroke-linejoin:round;}</style>
</defs>
<path d="m0 1093.3h2077.3v-1093.3h-2077.3z" fill="#fff"/>
<g fill="none" stroke="#000">
<path d="m973.82 50.611-587.72 173.77" clip-path="url(#a)"/>
<path d="m973.82 50.611 112.05 831.79" clip-path="url(#a)"/>
<path d="m973.82 50.611 475.66 343.23" clip-path="url(#a)"/>
<path d="m386.1 224.38-291.53 658.02" clip-path="url(#a)"/>
<path d="m386.1 224.38-244.33 658.02" clip-path="url(#a)"/>
<path d="m386.1 224.38 38.9 497.69" clip-path="url(#a)"/>
<path d="m386.1 224.38 419.16 169.46" clip-path="url(#a)"/>
<path d="m386.1 224.38-197.12 658.02" clip-path="url(#a)"/>
<path d="m386.1 224.38 274.93 658.02" clip-path="url(#a)"/>
<path d="m1085.9 882.4v160.32" clip-path="url(#a)"/>
<path d="m1449.5 393.84-281 328.24" clip-path="url(#a)"/>
<path d="m1449.5 393.84-174.79 488.56" clip-path="url(#a)"/>
<path d="m1449.5 393.84 146.2 328.24" clip-path="url(#a)"/>
<path d="m1449.5 393.84 92.705 165.68" clip-path="url(#a)"/>
<path d="m1449.5 393.84-127.58 488.56" clip-path="url(#a)"/>
<path d="m1449.5 393.84 344.47 488.56" clip-path="url(#a)"/>
<path d="m1168.5 722.08-35.404 160.32" clip-path="url(#a)"/>
<path d="m1168.5 722.08 35.404 160.32" clip-path="url(#a)"/>
<path d="m1274.7 882.4v160.32" clip-path="url(#a)"/>
<path d="m1595.7 722.08-155.78 160.32" clip-path="url(#a)"/>
<path d="m1595.7 722.08 9.441 160.32" clip-path="url(#a)"/>
<path d="m1595.7 722.08 127.45 160.32" clip-path="url(#a)"/>
<path d="m1595.7 722.08-37.764 160.32" clip-path="url(#a)"/>
<path d="m1595.7 722.08 56.646 160.32" clip-path="url(#a)"/>
<path d="m1542.2 559.52 298.97 322.88" clip-path="url(#a)"/>
<path d="m1542.2 559.52 393.38 162.55" clip-path="url(#a)"/>
<path d="m1542.2 559.52-692.34 322.88" clip-path="url(#a)" stroke-dasharray="3.7,1.6"/>
<path d="m1841.2 882.4v160.32" clip-path="url(#a)"/>
<path d="m1935.6 722.08-47.205 160.32" clip-path="url(#a)"/>
<path d="m1935.6 722.08v160.32" clip-path="url(#a)"/>
<path d="m1935.6 722.08 47.205 160.32" clip-path="url(#a)"/>
<path d="m1888.4 882.4v160.32" clip-path="url(#a)"/>
<path d="m1935.6 882.4v160.32" clip-path="url(#a)"/>
<path d="m1439.9 882.4-70.808 160.32" clip-path="url(#a)"/>
<path d="m1439.9 882.4-23.603 160.32" clip-path="url(#a)"/>
<path d="m1439.9 882.4 23.603 160.32" clip-path="url(#a)"/>
<path d="m1439.9 882.4 70.808 160.32" clip-path="url(#a)"/>
<path d="m1605.1 882.4v160.32" clip-path="url(#a)"/>
<path d="m1723.1 882.4-23.603 160.32" clip-path="url(#a)"/>
<path d="m1723.1 882.4 23.603 160.32" clip-path="url(#a)"/>
<path d="m1133.1 882.4v160.32" clip-path="url(#a)"/>
<path d="m1203.9 882.4-23.603 160.32" clip-path="url(#a)"/>
<path d="m1203.9 882.4 23.603 160.32" clip-path="url(#a)"/>
<path d="m94.566 882.4v160.32" clip-path="url(#a)"/>
<path d="m141.77 882.4v160.32" clip-path="url(#a)"/>
<path d="m425 722.08-141.62 160.32" clip-path="url(#a)"/>
<path d="m425 722.08v160.32" clip-path="url(#a)"/>
<path d="m425 722.08 141.62 160.32" clip-path="url(#a)"/>
<path d="m425 722.08-47.205 160.32" clip-path="url(#a)"/>
<path d="m425 722.08 47.205 160.32" clip-path="url(#a)"/>
<path d="m805.26 393.84-97.033 488.56" clip-path="url(#a)"/>
<path d="m805.26 393.84-49.828 488.56" clip-path="url(#a)"/>
<path d="m805.26 393.84 146.86 165.68" clip-path="url(#a)"/>
<path d="m708.23 882.4v160.32" clip-path="url(#a)"/>
<path d="m755.44 882.4v160.32" clip-path="url(#a)"/>
<path d="m952.12 559.52-102.28 162.55" clip-path="url(#a)"/>
<path d="m952.12 559.52 15.735 162.55" clip-path="url(#a)"/>
<path d="m952.12 559.52 86.543 322.88" clip-path="url(#a)"/>
<path d="m849.85 722.08-47.205 160.32" clip-path="url(#a)"/>
<path d="m849.85 722.08v160.32" clip-path="url(#a)"/>
<path d="m849.85 722.08 47.205 160.32" clip-path="url(#a)"/>
<path d="m967.86 722.08-23.603 160.32" clip-path="url(#a)"/>
<path d="m967.86 722.08 23.603 160.32" clip-path="url(#a)"/>
<path d="m1038.7 882.4v160.32" clip-path="url(#a)"/>
<path d="m944.26 882.4v160.32" clip-path="url(#a)"/>
<path d="m991.46 882.4v160.32" clip-path="url(#a)"/>
<path d="m802.64 882.4v160.32" clip-path="url(#a)"/>
<path d="m849.85 882.4v160.32" clip-path="url(#a)"/>
<path d="m897.05 882.4v160.32" clip-path="url(#a)"/>
<path d="m283.39 882.4-47.205 160.32" clip-path="url(#a)"/>
<path d="m283.39 882.4v160.32" clip-path="url(#a)"/>
<path d="m283.39 882.4 47.205 160.32" clip-path="url(#a)"/>
<path d="m425 882.4v160.32" clip-path="url(#a)"/>
<path d="m566.62 882.4-47.205 160.32" clip-path="url(#a)"/>
<path d="m566.62 882.4v160.32" clip-path="url(#a)"/>
<path d="m566.62 882.4 47.205 160.32" clip-path="url(#a)"/>
<path d="m188.98 882.4v160.32" clip-path="url(#a)"/>
<path d="m377.8 882.4v160.32" clip-path="url(#a)"/>
<path d="m472.21 882.4v160.32" clip-path="url(#a)"/>
<path d="m661.03 882.4v160.32" clip-path="url(#a)"/>
<path d="m973.82 50.611-587.72 173.77" clip-path="url(#a)"/>
<path d="m973.82 50.611 112.05 831.79" clip-path="url(#a)"/>
<path d="m973.82 50.611 475.66 343.23" clip-path="url(#a)"/>
<path d="m1321.9 882.4v160.32" clip-path="url(#a)"/>
<path d="m1557.9 882.4v160.32" clip-path="url(#a)"/>
<path d="m1652.3 882.4v160.32" clip-path="url(#a)"/>
<path d="m1793.9 882.4v160.32" clip-path="url(#a)"/>
<path d="m1982.8 882.4v160.32" clip-path="url(#a)"/>
</g>
<path d="m678.85 144.36 5.7693-1.7058q2.3015-0.68049 1.621-2.982l-2.1953-7.4248q-0.68049-2.3015-2.982-1.621l-5.7693 1.7058q-2.3015 0.68049-1.621 2.982l2.1953 7.4248q0.68049 2.3015 2.982 1.621z" clip-path="url(#a)" fill="#fff" stroke="#fff"/>
<g clip-path="url(#a)">
<defs>
<path id="ae" d="m9.8125 72.906h9.8594v-29.891h35.844v29.891h9.8594v-72.906h-9.8594v34.719h-35.844v-34.719h-9.8594z"/>
</defs>
<g transform="translate(677.7 140.47) rotate(-16.471) scale(.08 -.08)">
<use xlink:href="#ae"/>
</g>
</g>
<path d="m1023.3 465.13 0.59511 4.4176q0.32042 2.3785 2.6989 2.0581l7.6732-1.0337q2.3785-0.32042 2.0581-2.6989l-0.59511-4.4176q-0.32042-2.3785-2.6989-2.0581l-7.6732 1.0337q-2.3785 0.32042-2.0581 2.6989z" clip-path="url(#a)" fill="#fff" stroke="#fff"/>
<g clip-path="url(#a)">
<defs>
<path id="ad" d="m9.8125 72.906h9.8594v-64.609h35.5v-8.2969h-45.359z"/>
</defs>
<g transform="translate(1027.4 464.59) rotate(82.328) scale(.08 -.08)">
<use xlink:href="#ad"/>
</g>
</g>
<path d="m1205.5 225.55 4.8787 3.5204q1.9462 1.4044 3.3506-0.54187l4.5305-6.2786q1.4044-1.9462-0.54187-3.3506l-4.8787-3.5204q-1.9462-1.4044-3.3506 0.54187l-4.5305 6.2786q-1.4044 1.9462 0.54187 3.3506z" clip-path="url(#a)" fill="#fff" stroke="#fff"/>
<g clip-path="url(#a)">
<g transform="translate(1207.9 222.26) rotate(35.813) scale(.08 -.08)">
<use xlink:href="#ae"/>
</g>
</g>
<path d="m244.96 558.43 2.2168-5.0034q0.97218-2.1943-1.2221-3.1665l-7.0788-3.1363q-2.1943-0.97218-3.1665 1.2221l-2.2168 5.0034q-0.97218 2.1943 1.2221 3.1665l7.0788 3.1363q2.1943 0.97218 3.1665-1.2221z" clip-path="url(#a)" fill="#fff" stroke="#fff"/>
<g clip-path="url(#a)">
<defs>
<path id="q" d="m34.188 63.188-13.391-36.281h26.812zm-5.5781 9.7188h11.188l27.781-72.906h-10.25l-6.6406 18.703h-32.859l-6.6406-18.703h-10.406z"/>
</defs>
<g transform="translate(241.24 556.79) rotate(-66.104) scale(.08 -.08)">
<use xlink:href="#q"/>
</g>
</g>
<path d="m268.98 557.84 1.6791-4.5221q0.83542-2.2499-1.4145-3.0853l-7.2583-2.6951q-2.2499-0.83542-3.0853 1.4145l-1.6791 4.5221q-0.83542 2.2499 1.4145 3.0853l7.2583 2.6951q2.2499 0.83542 3.0853-1.4145z" clip-path="url(#a)" fill="#fff" stroke="#fff"/>
<g clip-path="url(#a)">
<defs>
<path id="y" d="m19.672 64.797v-27.391h12.406q6.8906 0 10.641 3.5625 3.7656 3.5625 3.7656 10.156 0 6.5469-3.7656 10.109-3.75 3.5625-10.641 3.5625zm-9.8594 8.1094h22.266q12.266 0 18.531-5.5469 6.2812-5.5469 6.2812-16.234 0-10.797-6.2812-16.312-6.2656-5.5156-18.531-5.5156h-12.406v-29.297h-9.8594z"/>
</defs>
<g transform="translate(265.17 556.42) rotate(-69.629) scale(.08 -.08)">
<use xlink:href="#y"/>
</g>
</g>
<path d="m399.09 470.99 0.42644 5.4559q0.18702 2.3927 2.5797 2.2057l7.719-0.60332q2.3927-0.18702 2.2057-2.5797l-0.42644-5.4559q-0.18702-2.3927-2.5797-2.2057l-7.719 0.60332q-2.3927 0.18702-2.2057 2.5797z" clip-path="url(#a)" fill="#fff" stroke="#fff"/>
<g clip-path="url(#a)">
<g transform="translate(403.14 470.67) rotate(85.531) scale(.08 -.08)">
<use xlink:href="#q"/>
</g>
</g>
<path d="m590.8 313.9 5.0736 2.0511q2.225 0.89954 3.1246-1.3255l2.9019-7.1781q0.89954-2.225-1.3255-3.1246l-5.0736-2.0511q-2.225-0.89954-3.1246 1.3255l-2.9019 7.1781q-0.89954 2.225 1.3255 3.1246z" clip-path="url(#a)" fill="#fff" stroke="#fff"/>
<g clip-path="url(#a)">
<g transform="translate(592.32 310.13) rotate(22.012) scale(.08 -.08)">
<use xlink:href="#q"/>
</g>
</g>
<path d="m292.71 558 1.6802-5.6087q0.68874-2.2991-1.6103-2.9878l-7.4168-2.2219q-2.2991-0.68874-2.9878 1.6103l-1.6802 5.6087q-0.68874 2.2991 1.6103 2.9878l7.4168 2.2219q2.2991 0.68874 2.9878-1.6103z" clip-path="url(#a)" fill="#fff" stroke="#fff"/>
<g clip-path="url(#a)">
<defs>
<path id="t" d="m8.6875 72.906h9.9219v-44.297q0-11.719 4.2344-16.875 4.25-5.1406 13.781-5.1406 9.4688 0 13.719 5.1406 4.25 5.1562 4.25 16.875v44.297h9.9062v-45.516q0-14.25-7.0625-21.531-7.0469-7.2812-20.812-7.2812-13.828 0-20.891 7.2812-7.0469 7.2812-7.0469 21.531z"/>
</defs>
<g transform="translate(288.81 556.83) rotate(-73.323) scale(.08 -.08)">
<use xlink:href="#t"/>
</g>
</g>
<path d="m516.65 553.11 2.2572 5.4024q0.92523 2.2145 3.1397 1.2893l7.144-2.9848q2.2145-0.92523 1.2893-3.1397l-2.2572-5.4024q-0.92523-2.2145-3.1397-1.2893l-7.144 2.9848q-2.2145 0.92523-1.2893 3.1397z" clip-path="url(#a)" fill="#fff" stroke="#fff"/>
<g clip-path="url(#a)">
<g transform="translate(520.4 551.54) rotate(67.324) scale(.08 -.08)">
<use xlink:href="#t"/>
</g>
</g>
<path d="m1079.6 944.92v35.285q0 2.4 2.4 2.4h7.7425q2.4 0 2.4-2.4v-35.285q0-2.4-2.4-2.4h-7.7425q-2.4 0-2.4 2.4z" clip-path="url(#a)" fill="#fff" stroke="#fff"/>
<g clip-path="url(#a)">
<defs>
<path id="l" d="m-0.29688 72.906h61.672v-8.3125h-25.875v-64.594h-9.9062v64.594h-25.891z"/>
<path id="c" d="m56.203 29.594v-4.3906h-41.312q0.59375-9.2812 5.5938-14.141t13.938-4.8594q5.1719 0 10.031 1.2656t9.6562 3.8125v-8.5q-4.8438-2.0469-9.9219-3.125t-10.297-1.0781q-13.094 0-20.734 7.6094-7.6406 7.625-7.6406 20.625 0 13.422 7.25 21.297 7.25 7.8906 19.562 7.8906 11.031 0 17.453-7.1094 6.4219-7.0938 6.4219-19.297zm-8.9844 2.6406q-0.09375 7.3594-4.125 11.75-4.0312 4.4062-10.672 4.4062-7.5156 0-12.031-4.25t-5.2031-11.969z"/>
<path id="h" d="m41.109 46.297q-1.5156 0.875-3.2969 1.2812-1.7812 0.42188-3.9219 0.42188-7.625 0-11.703-4.9531t-4.0781-14.234v-28.812h-9.0312v54.688h9.0312v-8.5q2.8438 4.9844 7.375 7.3906 4.5469 2.4219 11.047 2.4219 0.92188 0 2.0469-0.125 1.125-0.10938 2.4844-0.35938z"/>
<path id="k" d="m52 44.188q3.375 6.0625 8.0625 8.9375t11.031 2.875q8.5469 0 13.188-5.9844 4.6406-5.9688 4.6406-17v-33.016h-9.0312v32.719q0 7.8594-2.7969 11.656-2.7812 3.8125-8.4844 3.8125-6.9844 0-11.047-4.6406-4.0469-4.625-4.0469-12.641v-30.906h-9.0312v32.719q0 7.9062-2.7812 11.688t-8.5938 3.7812q-6.8906 0-10.953-4.6562-4.0469-4.6562-4.0469-12.625v-30.906h-9.0312v54.688h9.0312v-8.5q3.0781 5.0312 7.375 7.4219t10.203 2.3906q5.9688 0 10.141-3.0312 4.1719-3.0156 6.1719-8.7812z"/>
<path id="e" d="m9.4219 54.688h8.9844v-54.688h-8.9844zm0 21.297h8.9844v-11.391h-8.9844z"/>
<path id="g" d="m54.891 33.016v-33.016h-8.9844v32.719q0 7.7656-3.0312 11.609-3.0312 3.8594-9.0781 3.8594-7.2812 0-11.484-4.6406-4.2031-4.625-4.2031-12.641v-30.906h-9.0312v54.688h9.0312v-8.5q3.2344 4.9375 7.5938 7.375 4.375 2.4375 10.094 2.4375 9.4219 0 14.25-5.8281 4.8438-5.8281 4.8438-17.156z"/>
<path id="f" d="m34.281 27.484q-10.891 0-15.094-2.4844t-4.2031-8.5q0-4.7812 3.1562-7.5938 3.1562-2.7969 8.5625-2.7969 7.4844 0 12 5.2969t4.5156 14.078v2zm17.922 3.7188v-31.203h-8.9844v8.2969q-3.0781-4.9688-7.6719-7.3438t-11.234-2.375q-8.3906 0-13.359 4.7188-4.9531 4.7188-4.9531 12.625 0 9.2188 6.1719 13.906 6.1875 4.6875 18.438 4.6875h12.609v0.89062q0 6.2031-4.0781 9.5938t-11.453 3.3906q-4.6875 0-9.1406-1.125-4.4375-1.125-8.5312-3.375v8.3125q4.9219 1.9062 9.5625 2.8438 4.6406 0.95312 9.0312 0.95312 11.875 0 17.734-6.1562 5.8594-6.1406 5.8594-18.641z"/>
<path id="i" d="m9.4219 75.984h8.9844v-75.984h-8.9844z"/>
</defs>
<g transform="translate(1083.7 944.92) rotate(90) scale(.08 -.08)">
<use xlink:href="#l"/>
<use x="60.818359" xlink:href="#c"/>
<use x="122.341797" xlink:href="#h"/>
<use x="163.439453" xlink:href="#k"/>
<use x="260.851562" xlink:href="#e"/>
<use x="288.634766" xlink:href="#g"/>
<use x="352.013672" xlink:href="#f"/>
<use x="413.292969" xlink:href="#i"/>
</g>
</g>
<path d="m1312 564.12 3.5589-4.1572q1.5608-1.8232-0.26236-3.384l-5.8816-5.0352q-1.8232-1.5608-3.384 0.26236l-3.5589 4.1572q-1.5608 1.8232 0.26236 3.384l5.8816 5.0352q1.8232 1.5608 3.384-0.26236z" clip-path="url(#a)" fill="#fff" stroke="#fff"/>
<g clip-path="url(#a)">
<g transform="translate(1308.9 561.47) rotate(-49.433) scale(.08 -.08)">
<use xlink:href="#q"/>
</g>
</g>
<path d="m1367.2 642.5 1.6249-4.5418q0.80846-2.2597-1.4513-3.0682l-7.29-2.6081q-2.2597-0.80846-3.0682 1.4513l-1.6249 4.5418q-0.80846 2.2597 1.4513 3.0682l7.29 2.6081q2.2597 0.80846 3.0682-1.4513z" clip-path="url(#a)" fill="#fff" stroke="#fff"/>
<g clip-path="url(#a)">
<g transform="translate(1363.4 641.13) rotate(-70.315) scale(.08 -.08)">
<use xlink:href="#y"/>
</g>
</g>
<path d="m1515.7 558.01 2.2267 4.999q0.97653 2.1923 3.1689 1.2158l7.0726-3.1503q2.1923-0.97653 1.2158-3.1689l-2.2267-4.999q-0.97653-2.1923-3.1689-1.2158l-7.0726 3.1503q-2.1923 0.97653-1.2158 3.1689z" clip-path="url(#a)" fill="#fff" stroke="#fff"/>
<g clip-path="url(#a)">
<g transform="translate(1519.5 556.36) rotate(65.991) scale(.08 -.08)">
<use xlink:href="#q"/>
</g>
</g>
<path d="m1489 477.36 2.6722 4.7757q1.1719 2.0944 3.2663 0.92252l6.7567-3.7806q2.0944-1.1719 0.92252-3.2663l-2.6722-4.7757q-1.1719-2.0944-3.2663-0.92252l-6.7567 3.7806q-2.0944 1.1719-0.92252 3.2663z" clip-path="url(#a)" fill="#fff" stroke="#fff"/>
<g clip-path="url(#a)">
<g transform="translate(1492.6 475.37) rotate(60.771) scale(.08 -.08)">
<use xlink:href="#q"/>
</g>
</g>
<path d="m1391 642.54 1.4794-5.665q0.60641-2.3221-1.7157-2.9285l-7.4913-1.9563q-2.3221-0.60641-2.9285 1.7157l-1.4794 5.665q-0.60641 2.3221 1.7157 2.9285l7.4913 1.9563q2.3221 0.60641 2.9285-1.7157z" clip-path="url(#a)" fill="#fff" stroke="#fff"/>
<g clip-path="url(#a)">
<g transform="translate(1387.1 641.51) rotate(-75.364) scale(.08 -.08)">
<use xlink:href="#t"/>
</g>
</g>
<path d="m1614.9 639.34 3.3739 4.7852q1.383 1.9615 3.3444 0.57851l6.3278-4.4615q1.9615-1.383 0.57851-3.3444l-3.3739-4.7852q-1.383-1.9615-3.3444-0.57851l-6.3278 4.4615q-1.9615 1.383-0.57851 3.3444z" clip-path="url(#a)" fill="#fff" stroke="#fff"/>
<g clip-path="url(#a)">
<g transform="translate(1618.2 637) rotate(54.814) scale(.08 -.08)">
<use xlink:href="#t"/>
</g>
</g>
<path d="m1156.4 806.06 1.09-4.9361q0.51752-2.3435-1.826-2.8611l-7.5604-1.6695q-2.3435-0.51752-2.8611 1.826l-1.09 4.9361q-0.51752 2.3435 1.826 2.8611l7.5604 1.6695q2.3435 0.51752 2.8611-1.826z" clip-path="url(#a)" fill="#fff" stroke="#fff"/>
<g clip-path="url(#a)">
<defs>
<path id="af" d="m9.8125 72.906h46.094v-8.3125h-36.234v-21.578h34.719v-8.2969h-34.719v-26.422h37.109v-8.2969h-46.969z"/>
</defs>
<g transform="translate(1152.4 805.18) rotate(-77.547) scale(.08 -.08)">
<use xlink:href="#af"/>
</g>
</g>
<path d="m1179.5 800.86 1.2046 5.4548q0.51752 2.3435 2.8611 1.826l7.5604-1.6695q2.3435-0.51752 1.826-2.8611l-1.2046-5.4548q-0.51752-2.3435-2.8611-1.826l-7.5604 1.6695q-2.3435 0.51752-1.826 2.8611z" clip-path="url(#a)" fill="#fff" stroke="#fff"/>
<g clip-path="url(#a)">
<defs>
<path id="r" d="m64.406 67.281v-10.391q-4.9844 4.6406-10.625 6.9219-5.6406 2.2969-11.984 2.2969-12.5 0-19.141-7.6406t-6.6406-22.094q0-14.406 6.6406-22.047t19.141-7.6406q6.3438 0 11.984 2.2969t10.625 6.9375v-10.312q-5.1719-3.5156-10.969-5.2812-5.7812-1.75-12.219-1.75-16.562 0-26.094 10.125-9.5156 10.141-9.5156 27.672 0 17.578 9.5156 27.703 9.5312 10.141 26.094 10.141 6.5312 0 12.312-1.7344 5.7969-1.7344 10.875-5.2031z"/>
</defs>
<g transform="translate(1183.4 799.99) rotate(77.547) scale(.08 -.08)">
<use xlink:href="#r"/>
</g>
</g>
<path d="m1268.4 944.92v35.285q0 2.4 2.4 2.4h7.7425q2.4 0 2.4-2.4v-35.285q0-2.4-2.4-2.4h-7.7425q-2.4 0-2.4 2.4z" clip-path="url(#a)" fill="#fff" stroke="#fff"/>
<g clip-path="url(#a)">
<g transform="translate(1272.5 944.92) rotate(90) scale(.08 -.08)">
<use xlink:href="#l"/>
<use x="60.818359" xlink:href="#c"/>
<use x="122.341797" xlink:href="#h"/>
<use x="163.439453" xlink:href="#k"/>
<use x="260.851562" xlink:href="#e"/>
<use x="288.634766" xlink:href="#g"/>
<use x="352.013672" xlink:href="#f"/>
<use x="413.292969" xlink:href="#i"/>
</g>
</g>
<path d="m1520.3 808.61 3.8929-4.0065q1.6725-1.7213-0.048808-3.3938l-5.5529-5.3955q-1.7213-1.6725-3.3938 0.048808l-3.8929 4.0065q-1.6725 1.7213 0.048807 3.3938l5.5529 5.3955q1.7213 1.6725 3.3938-0.048808z" clip-path="url(#a)" fill="#fff" stroke="#fff"/>
<g clip-path="url(#a)">
<g transform="translate(1517.4 805.78) rotate(-45.824) scale(.08 -.08)">
<use xlink:href="#r"/>
</g>
</g>
<path d="m1594 799.62 0.35183 5.9746q0.14109 2.3958 2.5369 2.2548l7.7291-0.45515q2.3958-0.14109 2.2548-2.5369l-0.35183-5.9746q-0.14109-2.3958-2.5369-2.2548l-7.7291 0.45515q-2.3958 0.14109-2.2548 2.5369z" clip-path="url(#a)" fill="#fff" stroke="#fff"/>
<g clip-path="url(#a)">
<defs>
<path id="aq" d="m9.8125 72.906h13.281l32.328-60.984v60.984h9.5625v-72.906h-13.281l-32.312 60.984v-60.984h-9.5781z"/>
</defs>
<g transform="translate(1598 799.38) rotate(86.63) scale(.08 -.08)">
<use xlink:href="#aq"/>
</g>
</g>
<path d="m1652.8 803.95 3.4763 4.3728q1.4935 1.8787 3.3722 0.38516l6.0607-4.8181q1.8787-1.4935 0.38516-3.3722l-3.4763-4.3728q-1.4935-1.8787-3.3722-0.38516l-6.0607 4.8181q-1.8787 1.4935-0.38516 3.3722z" clip-path="url(#a)" fill="#fff" stroke="#fff"/>
<g clip-path="url(#a)">
<g transform="translate(1655.9 801.43) rotate(51.516) scale(.08 -.08)">
<use xlink:href="#r"/>
</g>
</g>
<path d="m1582.2 806.53 1.3424-5.699q0.55026-2.3361-1.7858-2.8863l-7.5363-1.7752q-2.3361-0.55026-2.8863 1.7858l-1.3424 5.699q-0.55026 2.3361 1.7858 2.8863l7.5363 1.7752q2.3361 0.55026 2.8863-1.7858z" clip-path="url(#a)" fill="#fff" stroke="#fff"/>
<g clip-path="url(#a)">
<g transform="translate(1578.3 805.59) rotate(-76.746) scale(.08 -.08)">
<use xlink:href="#t"/>
</g>
</g>
<path d="m1617.1 801.57 1.9505 5.5205q0.79954 2.2629 3.0624 1.4634l7.3002-2.5794q2.2629-0.79954 1.4634-3.0624l-1.9505-5.5205q-0.79954-2.2629-3.0624-1.4634l-7.3002 2.5794q-2.2629 0.79954-1.4634 3.0624z" clip-path="url(#a)" fill="#fff" stroke="#fff"/>
<g clip-path="url(#a)">
<g transform="translate(1621 800.21) rotate(70.54) scale(.08 -.08)">
<use xlink:href="#t"/>
</g>
</g>
<path d="m1685.4 723.45 3.2773 3.5394q1.6306 1.761 3.3916 0.13041l5.6811-5.2604q1.761-1.6306 0.13041-3.3916l-3.2773-3.5394q-1.6306-1.761-3.3916-0.13041l-5.6811 5.2604q-1.761 1.6306-0.13041 3.3916z" clip-path="url(#a)" fill="#fff" stroke="#fff"/>
<g clip-path="url(#a)">
<g transform="translate(1688.4 720.69) rotate(47.202) scale(.08 -.08)">
<use xlink:href="#y"/>
</g>
</g>
<path d="m1734 645.55 5.0577 2.09q2.2181 0.91657 3.1347-1.3015l2.9569-7.1556q0.91657-2.2181-1.3015-3.1347l-5.0577-2.09q-2.2181-0.91657-3.1347 1.3015l-2.9569 7.1556q-0.91657 2.2181 1.3015 3.1347z" clip-path="url(#a)" fill="#fff" stroke="#fff"/>
<g clip-path="url(#a)">
<g transform="translate(1735.5 641.8) rotate(22.452) scale(.08 -.08)">
<use xlink:href="#q"/>
</g>
</g>
<path d="m1196.2 727.8 4.9597-2.313q2.1751-1.0144 1.1607-3.1895l-3.2724-7.017q-1.0144-2.1751-3.1895-1.1607l-4.9597 2.313q-2.1751 1.0144-1.1607 3.1895l3.2724 7.017q1.0144 2.1751 3.1895 1.1607z" clip-path="url(#a)" fill="#fff" stroke="#fff"/>
<g clip-path="url(#a)">
<g transform="translate(1194.5 724.12) rotate(-25.002) scale(.08 -.08)">
<use xlink:href="#q"/>
</g>
</g>
<path d="m1834.9 944.92v35.285q0 2.4 2.4 2.4h7.7425q2.4 0 2.4-2.4v-35.285q0-2.4-2.4-2.4h-7.7425q-2.4 0-2.4 2.4z" clip-path="url(#a)" fill="#fff" stroke="#fff"/>
<g clip-path="url(#a)">
<g transform="translate(1838.9 944.92) rotate(90) scale(.08 -.08)">
<use xlink:href="#l"/>
<use x="60.818359" xlink:href="#c"/>
<use x="122.341797" xlink:href="#h"/>
<use x="163.439453" xlink:href="#k"/>
<use x="260.851562" xlink:href="#e"/>
<use x="288.634766" xlink:href="#g"/>
<use x="352.013672" xlink:href="#f"/>
<use x="413.292969" xlink:href="#i"/>
</g>
</g>
<path d="m1917.2 806.68 1.5701-5.3324q0.67788-2.3023-1.6244-2.9802l-7.4272-2.1869q-2.3023-0.67788-2.9802 1.6244l-1.5701 5.3324q-0.67788 2.3023 1.6244 2.9802l7.4272 2.1869q2.3023 0.67788 2.9802-1.6244z" clip-path="url(#a)" fill="#fff" stroke="#fff"/>
<g clip-path="url(#a)">
<defs>
<path id="ab" d="m44.391 34.188q3.1719-1.0781 6.1719-4.5938t6.0312-9.6719l10.016-19.922h-10.609l-9.3125 18.703q-3.625 7.3281-7.0156 9.7188t-9.25 2.3906h-10.75v-30.812h-9.8594v72.906h22.266q12.5 0 18.656-5.2344 6.1562-5.2188 6.1562-15.766 0-6.8906-3.2031-11.438-3.2031-4.5312-9.2969-6.2812zm-24.719 30.609v-25.875h12.406q7.125 0 10.766 3.2969t3.6406 9.6875-3.6406 9.6406-10.766 3.25z"/>
</defs>
<g transform="translate(1913.3 805.53) rotate(-73.594) scale(.08 -.08)">
<use xlink:href="#ab"/>
</g>
</g>
<path d="m1929.3 799.44v5.5862q0 2.4 2.4 2.4h7.7425q2.4 0 2.4-2.4v-5.5862q0-2.4-2.4-2.4h-7.7425q-2.4 0-2.4 2.4z" clip-path="url(#a)" fill="#fff" stroke="#fff"/>
<g clip-path="url(#a)">
<g transform="translate(1933.4 799.44) rotate(90) scale(.08 -.08)">
<use xlink:href="#r"/>
</g>
</g>
<path d="m1952.3 801.2 1.6537 5.6166q0.67788 2.3023 2.9802 1.6244l7.4272-2.1869q2.3023-0.67788 1.6244-2.9802l-1.6537-5.6166q-0.67788-2.3023-2.9802-1.6244l-7.4272 2.1869q-2.3023 0.67788-1.6244 2.9802z" clip-path="url(#a)" fill="#fff" stroke="#fff"/>
<g clip-path="url(#a)">
<g transform="translate(1956.2 800.05) rotate(73.594) scale(.08 -.08)">
<use xlink:href="#t"/>
</g>
</g>
<path d="m1882.1 944.92v35.285q0 2.4 2.4 2.4h7.7425q2.4 0 2.4-2.4v-35.285q0-2.4-2.4-2.4h-7.7425q-2.4 0-2.4 2.4z" clip-path="url(#a)" fill="#fff" stroke="#fff"/>
<g clip-path="url(#a)">
<g transform="translate(1886.1 944.92) rotate(90) scale(.08 -.08)">
<use xlink:href="#l"/>
<use x="60.818359" xlink:href="#c"/>
<use x="122.341797" xlink:href="#h"/>
<use x="163.439453" xlink:href="#k"/>
<use x="260.851562" xlink:href="#e"/>
<use x="288.634766" xlink:href="#g"/>
<use x="352.013672" xlink:href="#f"/>
<use x="413.292969" xlink:href="#i"/>
</g>
</g>
<path d="m1929.3 944.92v35.285q0 2.4 2.4 2.4h7.7425q2.4 0 2.4-2.4v-35.285q0-2.4-2.4-2.4h-7.7425q-2.4 0-2.4 2.4z" clip-path="url(#a)" fill="#fff" stroke="#fff"/>
<g clip-path="url(#a)">
<g transform="translate(1933.4 944.92) rotate(90) scale(.08 -.08)">
<use xlink:href="#l"/>
<use x="60.818359" xlink:href="#c"/>
<use x="122.341797" xlink:href="#h"/>
<use x="163.439453" xlink:href="#k"/>
<use x="260.851562" xlink:href="#e"/>
<use x="288.634766" xlink:href="#g"/>
<use x="352.013672" xlink:href="#f"/>
<use x="413.292969" xlink:href="#i"/>
</g>
</g>
<path d="m1403.1 981.23 14.255-32.277q0.96962-2.1954-1.2258-3.165l-7.0825-3.128q-2.1954-0.96962-3.165 1.2258l-14.255 32.277q-0.96962 2.1954 1.2258 3.165l7.0825 3.128q2.1954 0.96962 3.165-1.2258z" clip-path="url(#a)" fill="#fff" stroke="#fff"/>
<g clip-path="url(#a)">
<g transform="translate(1399.4 979.59) rotate(-66.171) scale(.08 -.08)">
<use xlink:href="#l"/>
<use x="60.818359" xlink:href="#c"/>
<use x="122.341797" xlink:href="#h"/>
<use x="163.439453" xlink:href="#k"/>
<use x="260.851562" xlink:href="#e"/>
<use x="288.634766" xlink:href="#g"/>
<use x="352.013672" xlink:href="#f"/>
<use x="413.292969" xlink:href="#i"/>
</g>
</g>
<path d="m1431.7 980.93 5.1392-34.909q0.34956-2.3744-2.0248-2.724l-7.6599-1.1277q-2.3744-0.34956-2.724 2.0248l-5.1392 34.909q-0.34956 2.3744 2.0248 2.724l7.6599 1.1277q2.3744 0.34956 2.724-2.0248z" clip-path="url(#a)" fill="#fff" stroke="#fff"/>
<g clip-path="url(#a)">
<g transform="translate(1427.7 980.34) rotate(-81.625) scale(.08 -.08)">
<use xlink:href="#l"/>
<use x="60.818359" xlink:href="#c"/>
<use x="122.341797" xlink:href="#h"/>
<use x="163.439453" xlink:href="#k"/>
<use x="260.851562" xlink:href="#e"/>
<use x="288.634766" xlink:href="#g"/>
<use x="352.013672" xlink:href="#f"/>
<use x="413.292969" xlink:href="#i"/>
</g>
</g>
<path d="m1442.9 946.02 5.1392 34.909q0.34956 2.3744 2.724 2.0248l7.6599-1.1277q2.3744-0.34956 2.0248-2.724l-5.1392-34.909q-0.34956-2.3744-2.724-2.0248l-7.6599 1.1277q-2.3744 0.34956-2.0248 2.724z" clip-path="url(#a)" fill="#fff" stroke="#fff"/>
<g clip-path="url(#a)">
<g transform="translate(1447 945.43) rotate(81.625) scale(.08 -.08)">
<use xlink:href="#l"/>
<use x="60.818359" xlink:href="#c"/>
<use x="122.341797" xlink:href="#h"/>
<use x="163.439453" xlink:href="#k"/>
<use x="260.851562" xlink:href="#e"/>
<use x="288.634766" xlink:href="#g"/>
<use x="352.013672" xlink:href="#f"/>
<use x="413.292969" xlink:href="#i"/>
</g>
</g>
<path d="m1462.4 948.96 14.255 32.277q0.96962 2.1954 3.165 1.2258l7.0825-3.128q2.1954-0.96962 1.2258-3.165l-14.255-32.277q-0.96962-2.1954-3.165-1.2258l-7.0825 3.128q-2.1954 0.96962-1.2258 3.165z" clip-path="url(#a)" fill="#fff" stroke="#fff"/>
<g clip-path="url(#a)">
<g transform="translate(1466.2 947.31) rotate(66.171) scale(.08 -.08)">
<use xlink:href="#l"/>
<use x="60.818359" xlink:href="#c"/>
<use x="122.341797" xlink:href="#h"/>
<use x="163.439453" xlink:href="#k"/>
<use x="260.851562" xlink:href="#e"/>
<use x="288.634766" xlink:href="#g"/>
<use x="352.013672" xlink:href="#f"/>
<use x="413.292969" xlink:href="#i"/>
</g>
</g>
<path d="m1598.9 944.92v35.285q0 2.4 2.4 2.4h7.7425q2.4 0 2.4-2.4v-35.285q0-2.4-2.4-2.4h-7.7425q-2.4 0-2.4 2.4z" clip-path="url(#a)" fill="#fff" stroke="#fff"/>
<g clip-path="url(#a)">
<g transform="translate(1602.9 944.92) rotate(90) scale(.08 -.08)">
<use xlink:href="#l"/>
<use x="60.818359" xlink:href="#c"/>
<use x="122.341797" xlink:href="#h"/>
<use x="163.439453" xlink:href="#k"/>
<use x="260.851562" xlink:href="#e"/>
<use x="288.634766" xlink:href="#g"/>
<use x="352.013672" xlink:href="#f"/>
<use x="413.292969" xlink:href="#i"/>
</g>
</g>
<path d="m1715 980.93 5.1392-34.909q0.34956-2.3744-2.0248-2.724l-7.6599-1.1277q-2.3744-0.34956-2.724 2.0248l-5.1392 34.909q-0.34956 2.3744 2.0248 2.724l7.6599 1.1277q2.3744 0.34956 2.724-2.0248z" clip-path="url(#a)" fill="#fff" stroke="#fff"/>
<g clip-path="url(#a)">
<g transform="translate(1711 980.34) rotate(-81.625) scale(.08 -.08)">
<use xlink:href="#l"/>
<use x="60.818359" xlink:href="#c"/>
<use x="122.341797" xlink:href="#h"/>
<use x="163.439453" xlink:href="#k"/>
<use x="260.851562" xlink:href="#e"/>
<use x="288.634766" xlink:href="#g"/>
<use x="352.013672" xlink:href="#f"/>
<use x="413.292969" xlink:href="#i"/>
</g>
</g>
<path d="m1726.2 946.02 5.1392 34.909q0.34956 2.3744 2.724 2.0248l7.6599-1.1277q2.3744-0.34956 2.0248-2.724l-5.1392-34.909q-0.34956-2.3744-2.724-2.0248l-7.6599 1.1277q-2.3744 0.34956-2.0248 2.724z" clip-path="url(#a)" fill="#fff" stroke="#fff"/>
<g clip-path="url(#a)">
<g transform="translate(1730.2 945.43) rotate(81.625) scale(.08 -.08)">
<use xlink:href="#l"/>
<use x="60.818359" xlink:href="#c"/>
<use x="122.341797" xlink:href="#h"/>
<use x="163.439453" xlink:href="#k"/>
<use x="260.851562" xlink:href="#e"/>
<use x="288.634766" xlink:href="#g"/>
<use x="352.013672" xlink:href="#f"/>
<use x="413.292969" xlink:href="#i"/>
</g>
</g>
<path d="m1126.8 944.92v35.285q0 2.4 2.4 2.4h7.7425q2.4 0 2.4-2.4v-35.285q0-2.4-2.4-2.4h-7.7425q-2.4 0-2.4 2.4z" clip-path="url(#a)" fill="#fff" stroke="#fff"/>
<g clip-path="url(#a)">
<g transform="translate(1130.9 944.92) rotate(90) scale(.08 -.08)">
<use xlink:href="#l"/>
<use x="60.818359" xlink:href="#c"/>
<use x="122.341797" xlink:href="#h"/>
<use x="163.439453" xlink:href="#k"/>
<use x="260.851562" xlink:href="#e"/>
<use x="288.634766" xlink:href="#g"/>
<use x="352.013672" xlink:href="#f"/>
<use x="413.292969" xlink:href="#i"/>
</g>
</g>
<path d="m1195.7 980.93 5.1392-34.909q0.34956-2.3744-2.0248-2.724l-7.6599-1.1277q-2.3744-0.34956-2.724 2.0248l-5.1392 34.909q-0.34956 2.3744 2.0248 2.724l7.6599 1.1277q2.3744 0.34956 2.724-2.0248z" clip-path="url(#a)" fill="#fff" stroke="#fff"/>
<g clip-path="url(#a)">
<g transform="translate(1191.7 980.34) rotate(-81.625) scale(.08 -.08)">
<use xlink:href="#l"/>
<use x="60.818359" xlink:href="#c"/>
<use x="122.341797" xlink:href="#h"/>
<use x="163.439453" xlink:href="#k"/>
<use x="260.851562" xlink:href="#e"/>
<use x="288.634766" xlink:href="#g"/>
<use x="352.013672" xlink:href="#f"/>
<use x="413.292969" xlink:href="#i"/>
</g>
</g>
<path d="m1206.9 946.02 5.1392 34.909q0.34956 2.3744 2.724 2.0248l7.6599-1.1277q2.3744-0.34956 2.0248-2.724l-5.1392-34.909q-0.34956-2.3744-2.724-2.0248l-7.6599 1.1277q-2.3744 0.34956-2.0248 2.724z" clip-path="url(#a)" fill="#fff" stroke="#fff"/>
<g clip-path="url(#a)">
<g transform="translate(1210.9 945.43) rotate(81.625) scale(.08 -.08)">
<use xlink:href="#l"/>
<use x="60.818359" xlink:href="#c"/>
<use x="122.341797" xlink:href="#h"/>
<use x="163.439453" xlink:href="#k"/>
<use x="260.851562" xlink:href="#e"/>
<use x="288.634766" xlink:href="#g"/>
<use x="352.013672" xlink:href="#f"/>
<use x="413.292969" xlink:href="#i"/>
</g>
</g>
<path d="m88.295 944.92v35.285q0 2.4 2.4 2.4h7.7425q2.4 0 2.4-2.4v-35.285q0-2.4-2.4-2.4h-7.7425q-2.4 0-2.4 2.4z" clip-path="url(#a)" fill="#fff" stroke="#fff"/>
<g clip-path="url(#a)">
<g transform="translate(92.358 944.92) rotate(90) scale(.08 -.08)">
<use xlink:href="#l"/>
<use x="60.818359" xlink:href="#c"/>
<use x="122.341797" xlink:href="#h"/>
<use x="163.439453" xlink:href="#k"/>
<use x="260.851562" xlink:href="#e"/>
<use x="288.634766" xlink:href="#g"/>
<use x="352.013672" xlink:href="#f"/>
<use x="413.292969" xlink:href="#i"/>
</g>
</g>
<path d="m135.5 944.92v35.285q0 2.4 2.4 2.4h7.7425q2.4 0 2.4-2.4v-35.285q0-2.4-2.4-2.4h-7.7425q-2.4 0-2.4 2.4z" clip-path="url(#a)" fill="#fff" stroke="#fff"/>
<g clip-path="url(#a)">
<g transform="translate(139.56 944.92) rotate(90) scale(.08 -.08)">
<use xlink:href="#l"/>
<use x="60.818359" xlink:href="#c"/>
<use x="122.341797" xlink:href="#h"/>
<use x="163.439453" xlink:href="#k"/>
<use x="260.851562" xlink:href="#e"/>
<use x="288.634766" xlink:href="#g"/>
<use x="352.013672" xlink:href="#f"/>
<use x="413.292969" xlink:href="#i"/>
</g>
</g>
<path d="m357.04 808.48 3.6982-4.1868q1.5889-1.7988-0.20989-3.3876l-5.8029-5.1257q-1.7988-1.5889-3.3876 0.20989l-3.6982 4.1868q-1.5889 1.7988 0.20989 3.3876l5.8029 5.1257q1.7988 1.5889 3.3876-0.20989z" clip-path="url(#a)" fill="#fff" stroke="#fff"/>
<g clip-path="url(#a)">
<g transform="translate(354 805.79) rotate(-48.545) scale(.08 -.08)">
<use xlink:href="#r"/>
</g>
</g>
<path d="m418.73 799.25v5.985q0 2.4 2.4 2.4h7.7425q2.4 0 2.4-2.4v-5.985q0-2.4-2.4-2.4h-7.7425q-2.4 0-2.4 2.4z" clip-path="url(#a)" fill="#fff" stroke="#fff"/>
<g clip-path="url(#a)">
<g transform="translate(422.79 799.25) rotate(90) scale(.08 -.08)">
<use xlink:href="#aq"/>
</g>
</g>
<path d="m489.26 804.3 3.6982 4.1868q1.5889 1.7988 3.3876 0.20989l5.8029-5.1257q1.7988-1.5889 0.20989-3.3876l-3.6982-4.1868q-1.5889-1.7988-3.3876-0.20989l-5.8029 5.1257q-1.7988 1.5889-0.20989 3.3876z" clip-path="url(#a)" fill="#fff" stroke="#fff"/>
<g clip-path="url(#a)">
<g transform="translate(492.31 801.61) rotate(48.545) scale(.08 -.08)">
<use xlink:href="#r"/>
</g>
</g>
<path d="m406.59 806.82 1.6537-5.6166q0.67788-2.3023-1.6244-2.9802l-7.4272-2.1869q-2.3023-0.67788-2.9802 1.6244l-1.6537 5.6166q-0.67788 2.3023 1.6244 2.9802l7.4272 2.1869q2.3023 0.67788 2.9802-1.6244z" clip-path="url(#a)" fill="#fff" stroke="#fff"/>
<g clip-path="url(#a)">
<g transform="translate(402.69 805.67) rotate(-73.594) scale(.08 -.08)">
<use xlink:href="#t"/>
</g>
</g>
<path d="m441.76 801.2 1.6537 5.6166q0.67788 2.3023 2.9802 1.6244l7.4272-2.1869q2.3023-0.67788 1.6244-2.9802l-1.6537-5.6166q-0.67788-2.3023-2.9802-1.6244l-7.4272 2.1869q-2.3023 0.67788-1.6244 2.9802z" clip-path="url(#a)" fill="#fff" stroke="#fff"/>
<g clip-path="url(#a)">
<g transform="translate(445.66 800.05) rotate(73.594) scale(.08 -.08)">
<use xlink:href="#t"/>
</g>
</g>
<path d="m762.36 642.07 1.0829-5.4523q0.46753-2.354-1.8865-2.8216l-7.5942-1.5083q-2.354-0.46753-2.8216 1.8865l-1.0829 5.4523q-0.46753 2.354 1.8865 2.8216l7.5942 1.5083q2.354 0.46753 2.8216-1.8865z" clip-path="url(#a)" fill="#fff" stroke="#fff"/>
<g clip-path="url(#a)">
<g transform="translate(758.37 641.28) rotate(-78.767) scale(.08 -.08)">
<use xlink:href="#ab"/>
</g>
</g>
<path d="m786.31 641.54 0.5668-5.5574q0.24351-2.3876-2.1441-2.6311l-7.7025-0.78557q-2.3876-0.24351-2.6311 2.1441l-0.5668 5.5574q-0.24351 2.3876 2.1441 2.6311l7.7025 0.78557q2.3876 0.24351 2.6311-2.1441z" clip-path="url(#a)" fill="#fff" stroke="#fff"/>
<g clip-path="url(#a)">
<g transform="translate(782.26 641.12) rotate(-84.177) scale(.08 -.08)">
<use xlink:href="#r"/>
</g>
</g>
<path d="m872.32 478.95 3.3531 3.7828q1.592 1.796 3.388 0.20404l5.794-5.1358q1.796-1.592 0.20404-3.388l-3.3531-3.7828q-1.592-1.796-3.388-0.20404l-5.794 5.1358q-1.796 1.592-0.20404 3.388z" clip-path="url(#a)" fill="#fff" stroke="#fff"/>
<g clip-path="url(#a)">
<g transform="translate(875.37 476.26) rotate(48.446) scale(.08 -.08)">
<use xlink:href="#af"/>
</g>
</g>
<path d="m701.96 944.92v35.285q0 2.4 2.4 2.4h7.7425q2.4 0 2.4-2.4v-35.285q0-2.4-2.4-2.4h-7.7425q-2.4 0-2.4 2.4z" clip-path="url(#a)" fill="#fff" stroke="#fff"/>
<g clip-path="url(#a)">
<g transform="translate(706.02 944.92) rotate(90) scale(.08 -.08)">
<use xlink:href="#l"/>
<use x="60.818359" xlink:href="#c"/>
<use x="122.341797" xlink:href="#h"/>
<use x="163.439453" xlink:href="#k"/>
<use x="260.851562" xlink:href="#e"/>
<use x="288.634766" xlink:href="#g"/>
<use x="352.013672" xlink:href="#f"/>
<use x="413.292969" xlink:href="#i"/>
</g>
</g>
<path d="m749.17 944.92v35.285q0 2.4 2.4 2.4h7.7425q2.4 0 2.4-2.4v-35.285q0-2.4-2.4-2.4h-7.7425q-2.4 0-2.4 2.4z" clip-path="url(#a)" fill="#fff" stroke="#fff"/>
<g clip-path="url(#a)">
<g transform="translate(753.23 944.92) rotate(90) scale(.08 -.08)">
<use xlink:href="#l"/>
<use x="60.818359" xlink:href="#c"/>
<use x="122.341797" xlink:href="#h"/>
<use x="163.439453" xlink:href="#k"/>
<use x="260.851562" xlink:href="#e"/>
<use x="288.634766" xlink:href="#g"/>
<use x="352.013672" xlink:href="#f"/>
<use x="413.292969" xlink:href="#i"/>
</g>
</g>
<path d="m904.84 646.46 2.9144-4.6319q1.2781-2.0314-0.75324-3.3095l-6.5532-4.1233q-2.0314-1.2781-3.3095 0.75324l-2.9144 4.6319q-1.2781 2.0314 0.75324 3.3095l6.5532 4.1233q2.0314 1.2781 3.3095-0.75324z" clip-path="url(#a)" fill="#fff" stroke="#fff"/>
<g clip-path="url(#a)">
<g transform="translate(901.4 644.29) rotate(-57.822) scale(.08 -.08)">
<use xlink:href="#q"/>
</g>
</g>
<path d="m953.49 638.68 0.52727 5.447q0.23124 2.3888 2.6201 2.1576l7.7065-0.74598q2.3888-0.23124 2.1576-2.6201l-0.52727-5.447q-0.23124-2.3888-2.6201-2.1576l-7.7065 0.74598q-2.3888 0.23124-2.1576 2.6201z" clip-path="url(#a)" fill="#fff" stroke="#fff"/>
<g clip-path="url(#a)">
<g transform="translate(957.53 638.29) rotate(84.471) scale(.08 -.08)">
<use xlink:href="#q"/>
</g>
</g>
<path d="m988.71 720.26 1.2489 4.6593q0.62136 2.3182 2.9395 1.6968l7.4785-2.0045q2.3182-0.62136 1.6968-2.9395l-1.2489-4.6593q-0.62136-2.3182-2.9395-1.6968l-7.4785 2.0045q-2.3182 0.62136-1.6968 2.9395z" clip-path="url(#a)" fill="#fff" stroke="#fff"/>
<g clip-path="url(#a)">
<g transform="translate(992.64 719.2) rotate(74.995) scale(.08 -.08)">
<use xlink:href="#y"/>
</g>
</g>
<path d="m831.47 806.68 1.5701-5.3324q0.67788-2.3023-1.6244-2.9802l-7.4272-2.1869q-2.3023-0.67788-2.9802 1.6244l-1.5701 5.3324q-0.67788 2.3023 1.6244 2.9802l7.4272 2.1869q2.3023 0.67788 2.9802-1.6244z" clip-path="url(#a)" fill="#fff" stroke="#fff"/>
<g clip-path="url(#a)">
<g transform="translate(827.58 805.53) rotate(-73.594) scale(.08 -.08)">
<use xlink:href="#ab"/>
</g>
</g>
<path d="m843.58 799.44v5.5862q0 2.4 2.4 2.4h7.7425q2.4 0 2.4-2.4v-5.5862q0-2.4-2.4-2.4h-7.7425q-2.4 0-2.4 2.4z" clip-path="url(#a)" fill="#fff" stroke="#fff"/>
<g clip-path="url(#a)">
<g transform="translate(847.64 799.44) rotate(90) scale(.08 -.08)">
<use xlink:href="#r"/>
</g>
</g>
<path d="m866.65 801.34 1.5701 5.3324q0.67788 2.3023 2.9802 1.6244l7.4272-2.1869q2.3023-0.67788 1.6244-2.9802l-1.5701-5.3324q-0.67788-2.3023-2.9802-1.6244l-7.4272 2.1869q-2.3023 0.67788-1.6244 2.9802z" clip-path="url(#a)" fill="#fff" stroke="#fff"/>
<g clip-path="url(#a)">
<g transform="translate(870.55 800.2) rotate(73.594) scale(.08 -.08)">
<use xlink:href="#ab"/>
</g>
</g>
<path d="m961.89 805.65 0.73626-5.0011q0.34956-2.3744-2.0248-2.724l-7.6599-1.1277q-2.3744-0.34956-2.724 2.0248l-0.73626 5.0011q-0.34956 2.3744 2.0248 2.724l7.6599 1.1277q2.3744 0.34956 2.724-2.0248z" clip-path="url(#a)" fill="#fff" stroke="#fff"/>
<g clip-path="url(#a)">
<g transform="translate(957.87 805.06) rotate(-81.625) scale(.08 -.08)">
<use xlink:href="#af"/>
</g>
</g>
<path d="m973.05 800.39 0.81363 5.5267q0.34956 2.3744 2.724 2.0248l7.6599-1.1277q2.3744-0.34956 2.0248-2.724l-0.81363-5.5267q-0.34956-2.3744-2.724-2.0248l-7.6599 1.1277q-2.3744 0.34956-2.0248 2.724z" clip-path="url(#a)" fill="#fff" stroke="#fff"/>
<g clip-path="url(#a)">
<g transform="translate(977.07 799.8) rotate(81.625) scale(.08 -.08)">
<use xlink:href="#r"/>
</g>
</g>
<path d="m1032.4 944.92v35.285q0 2.4 2.4 2.4h7.7425q2.4 0 2.4-2.4v-35.285q0-2.4-2.4-2.4h-7.7425q-2.4 0-2.4 2.4z" clip-path="url(#a)" fill="#fff" stroke="#fff"/>
<g clip-path="url(#a)">
<g transform="translate(1036.5 944.92) rotate(90) scale(.08 -.08)">
<use xlink:href="#l"/>
<use x="60.818359" xlink:href="#c"/>
<use x="122.341797" xlink:href="#h"/>
<use x="163.439453" xlink:href="#k"/>
<use x="260.851562" xlink:href="#e"/>
<use x="288.634766" xlink:href="#g"/>
<use x="352.013672" xlink:href="#f"/>
<use x="413.292969" xlink:href="#i"/>
</g>
</g>
<path d="m937.99 944.92v35.285q0 2.4 2.4 2.4h7.7425q2.4 0 2.4-2.4v-35.285q0-2.4-2.4-2.4h-7.7425q-2.4 0-2.4 2.4z" clip-path="url(#a)" fill="#fff" stroke="#fff"/>
<g clip-path="url(#a)">
<g transform="translate(942.05 944.92) rotate(90) scale(.08 -.08)">
<use xlink:href="#l"/>
<use x="60.818359" xlink:href="#c"/>
<use x="122.341797" xlink:href="#h"/>
<use x="163.439453" xlink:href="#k"/>
<use x="260.851562" xlink:href="#e"/>
<use x="288.634766" xlink:href="#g"/>
<use x="352.013672" xlink:href="#f"/>
<use x="413.292969" xlink:href="#i"/>
</g>
</g>
<path d="m985.19 944.92v35.285q0 2.4 2.4 2.4h7.7425q2.4 0 2.4-2.4v-35.285q0-2.4-2.4-2.4h-7.7425q-2.4 0-2.4 2.4z" clip-path="url(#a)" fill="#fff" stroke="#fff"/>
<g clip-path="url(#a)">
<g transform="translate(989.25 944.92) rotate(90) scale(.08 -.08)">
<use xlink:href="#l"/>
<use x="60.818359" xlink:href="#c"/>
<use x="122.341797" xlink:href="#h"/>
<use x="163.439453" xlink:href="#k"/>
<use x="260.851562" xlink:href="#e"/>
<use x="288.634766" xlink:href="#g"/>
<use x="352.013672" xlink:href="#f"/>
<use x="413.292969" xlink:href="#i"/>
</g>
</g>
<path d="m796.37 944.92v35.285q0 2.4 2.4 2.4h7.7425q2.4 0 2.4-2.4v-35.285q0-2.4-2.4-2.4h-7.7425q-2.4 0-2.4 2.4z" clip-path="url(#a)" fill="#fff" stroke="#fff"/>
<g clip-path="url(#a)">
<g transform="translate(800.43 944.92) rotate(90) scale(.08 -.08)">
<use xlink:href="#l"/>
<use x="60.818359" xlink:href="#c"/>
<use x="122.341797" xlink:href="#h"/>
<use x="163.439453" xlink:href="#k"/>
<use x="260.851562" xlink:href="#e"/>
<use x="288.634766" xlink:href="#g"/>
<use x="352.013672" xlink:href="#f"/>
<use x="413.292969" xlink:href="#i"/>
</g>
</g>
<path d="m843.58 944.92v35.285q0 2.4 2.4 2.4h7.7425q2.4 0 2.4-2.4v-35.285q0-2.4-2.4-2.4h-7.7425q-2.4 0-2.4 2.4z" clip-path="url(#a)" fill="#fff" stroke="#fff"/>
<g clip-path="url(#a)">
<g transform="translate(847.64 944.92) rotate(90) scale(.08 -.08)">
<use xlink:href="#l"/>
<use x="60.818359" xlink:href="#c"/>
<use x="122.341797" xlink:href="#h"/>
<use x="163.439453" xlink:href="#k"/>
<use x="260.851562" xlink:href="#e"/>
<use x="288.634766" xlink:href="#g"/>
<use x="352.013672" xlink:href="#f"/>
<use x="413.292969" xlink:href="#i"/>
</g>
</g>
<path d="m890.78 944.92v35.285q0 2.4 2.4 2.4h7.7425q2.4 0 2.4-2.4v-35.285q0-2.4-2.4-2.4h-7.7425q-2.4 0-2.4 2.4z" clip-path="url(#a)" fill="#fff" stroke="#fff"/>
<g clip-path="url(#a)">
<g transform="translate(894.84 944.92) rotate(90) scale(.08 -.08)">
<use xlink:href="#l"/>
<use x="60.818359" xlink:href="#c"/>
<use x="122.341797" xlink:href="#h"/>
<use x="163.439453" xlink:href="#k"/>
<use x="260.851562" xlink:href="#e"/>
<use x="288.634766" xlink:href="#g"/>
<use x="352.013672" xlink:href="#f"/>
<use x="413.292969" xlink:href="#i"/>
</g>
</g>
<path d="m260.82 981.26 9.9662-33.848q0.67788-2.3023-1.6244-2.9802l-7.4272-2.1869q-2.3023-0.67788-2.9802 1.6244l-9.9662 33.848q-0.67788 2.3023 1.6244 2.9802l7.4272 2.1869q2.3023 0.67788 2.9802-1.6244z" clip-path="url(#a)" fill="#fff" stroke="#fff"/>
<g clip-path="url(#a)">
<g transform="translate(256.92 980.11) rotate(-73.594) scale(.08 -.08)">
<use xlink:href="#l"/>
<use x="60.818359" xlink:href="#c"/>
<use x="122.341797" xlink:href="#h"/>
<use x="163.439453" xlink:href="#k"/>
<use x="260.851562" xlink:href="#e"/>
<use x="288.634766" xlink:href="#g"/>
<use x="352.013672" xlink:href="#f"/>
<use x="413.292969" xlink:href="#i"/>
</g>
</g>
<path d="m277.11 944.92v35.285q0 2.4 2.4 2.4h7.7425q2.4 0 2.4-2.4v-35.285q0-2.4-2.4-2.4h-7.7425q-2.4 0-2.4 2.4z" clip-path="url(#a)" fill="#fff" stroke="#fff"/>
<g clip-path="url(#a)">
<g transform="translate(281.18 944.92) rotate(90) scale(.08 -.08)">
<use xlink:href="#l"/>
<use x="60.818359" xlink:href="#c"/>
<use x="122.341797" xlink:href="#h"/>
<use x="163.439453" xlink:href="#k"/>
<use x="260.851562" xlink:href="#e"/>
<use x="288.634766" xlink:href="#g"/>
<use x="352.013672" xlink:href="#f"/>
<use x="413.292969" xlink:href="#i"/>
</g>
</g>
<path d="m295.99 947.41 9.9662 33.848q0.67788 2.3023 2.9802 1.6244l7.4272-2.1869q2.3023-0.67788 1.6244-2.9802l-9.9662-33.848q-0.67788-2.3023-2.9802-1.6244l-7.4272 2.1869q-2.3023 0.67788-1.6244 2.9802z" clip-path="url(#a)" fill="#fff" stroke="#fff"/>
<g clip-path="url(#a)">
<g transform="translate(299.89 946.26) rotate(73.594) scale(.08 -.08)">
<use xlink:href="#l"/>
<use x="60.818359" xlink:href="#c"/>
<use x="122.341797" xlink:href="#h"/>
<use x="163.439453" xlink:href="#k"/>
<use x="260.851562" xlink:href="#e"/>
<use x="288.634766" xlink:href="#g"/>
<use x="352.013672" xlink:href="#f"/>
<use x="413.292969" xlink:href="#i"/>
</g>
</g>
<path d="m418.73 944.92v35.285q0 2.4 2.4 2.4h7.7425q2.4 0 2.4-2.4v-35.285q0-2.4-2.4-2.4h-7.7425q-2.4 0-2.4 2.4z" clip-path="url(#a)" fill="#fff" stroke="#fff"/>
<g clip-path="url(#a)">
<g transform="translate(422.79 944.92) rotate(90) scale(.08 -.08)">
<use xlink:href="#l"/>
<use x="60.818359" xlink:href="#c"/>
<use x="122.341797" xlink:href="#h"/>
<use x="163.439453" xlink:href="#k"/>
<use x="260.851562" xlink:href="#e"/>
<use x="288.634766" xlink:href="#g"/>
<use x="352.013672" xlink:href="#f"/>
<use x="413.292969" xlink:href="#i"/>
</g>
</g>
<path d="m544.05 981.26 9.9662-33.848q0.67788-2.3023-1.6244-2.9802l-7.4272-2.1869q-2.3023-0.67788-2.9802 1.6244l-9.9662 33.848q-0.67788 2.3023 1.6244 2.9802l7.4272 2.1869q2.3023 0.67788 2.9802-1.6244z" clip-path="url(#a)" fill="#fff" stroke="#fff"/>
<g clip-path="url(#a)">
<g transform="translate(540.15 980.11) rotate(-73.594) scale(.08 -.08)">
<use xlink:href="#l"/>
<use x="60.818359" xlink:href="#c"/>
<use x="122.341797" xlink:href="#h"/>
<use x="163.439453" xlink:href="#k"/>
<use x="260.851562" xlink:href="#e"/>
<use x="288.634766" xlink:href="#g"/>
<use x="352.013672" xlink:href="#f"/>
<use x="413.292969" xlink:href="#i"/>
</g>
</g>
<path d="m560.35 944.92v35.285q0 2.4 2.4 2.4h7.7425q2.4 0 2.4-2.4v-35.285q0-2.4-2.4-2.4h-7.7425q-2.4 0-2.4 2.4z" clip-path="url(#a)" fill="#fff" stroke="#fff"/>
<g clip-path="url(#a)">
<g transform="translate(564.41 944.92) rotate(90) scale(.08 -.08)">
<use xlink:href="#l"/>
<use x="60.818359" xlink:href="#c"/>
<use x="122.341797" xlink:href="#h"/>
<use x="163.439453" xlink:href="#k"/>
<use x="260.851562" xlink:href="#e"/>
<use x="288.634766" xlink:href="#g"/>
<use x="352.013672" xlink:href="#f"/>
<use x="413.292969" xlink:href="#i"/>
</g>
</g>
<path d="m579.22 947.41 9.9662 33.848q0.67788 2.3023 2.9802 1.6244l7.4272-2.1869q2.3023-0.67788 1.6244-2.9802l-9.9662-33.848q-0.67788-2.3023-2.9802-1.6244l-7.4272 2.1869q-2.3023 0.67788-1.6244 2.9802z" clip-path="url(#a)" fill="#fff" stroke="#fff"/>
<g clip-path="url(#a)">
<g transform="translate(583.12 946.26) rotate(73.594) scale(.08 -.08)">
<use xlink:href="#l"/>
<use x="60.818359" xlink:href="#c"/>
<use x="122.341797" xlink:href="#h"/>
<use x="163.439453" xlink:href="#k"/>
<use x="260.851562" xlink:href="#e"/>
<use x="288.634766" xlink:href="#g"/>
<use x="352.013672" xlink:href="#f"/>
<use x="413.292969" xlink:href="#i"/>
</g>
</g>
<path d="m182.7 944.92v35.285q0 2.4 2.4 2.4h7.7425q2.4 0 2.4-2.4v-35.285q0-2.4-2.4-2.4h-7.7425q-2.4 0-2.4 2.4z" clip-path="url(#a)" fill="#fff" stroke="#fff"/>
<g clip-path="url(#a)">
<g transform="translate(186.77 944.92) rotate(90) scale(.08 -.08)">
<use xlink:href="#l"/>
<use x="60.818359" xlink:href="#c"/>
<use x="122.341797" xlink:href="#h"/>
<use x="163.439453" xlink:href="#k"/>
<use x="260.851562" xlink:href="#e"/>
<use x="288.634766" xlink:href="#g"/>
<use x="352.013672" xlink:href="#f"/>
<use x="413.292969" xlink:href="#i"/>
</g>
</g>
<path d="m371.52 944.92v35.285q0 2.4 2.4 2.4h7.7425q2.4 0 2.4-2.4v-35.285q0-2.4-2.4-2.4h-7.7425q-2.4 0-2.4 2.4z" clip-path="url(#a)" fill="#fff" stroke="#fff"/>
<g clip-path="url(#a)">
<g transform="translate(375.59 944.92) rotate(90) scale(.08 -.08)">
<use xlink:href="#l"/>
<use x="60.818359" xlink:href="#c"/>
<use x="122.341797" xlink:href="#h"/>
<use x="163.439453" xlink:href="#k"/>
<use x="260.851562" xlink:href="#e"/>
<use x="288.634766" xlink:href="#g"/>
<use x="352.013672" xlink:href="#f"/>
<use x="413.292969" xlink:href="#i"/>
</g>
</g>
<path d="m465.93 944.92v35.285q0 2.4 2.4 2.4h7.7425q2.4 0 2.4-2.4v-35.285q0-2.4-2.4-2.4h-7.7425q-2.4 0-2.4 2.4z" clip-path="url(#a)" fill="#fff" stroke="#fff"/>
<g clip-path="url(#a)">
<g transform="translate(470 944.92) rotate(90) scale(.08 -.08)">
<use xlink:href="#l"/>
<use x="60.818359" xlink:href="#c"/>
<use x="122.341797" xlink:href="#h"/>
<use x="163.439453" xlink:href="#k"/>
<use x="260.851562" xlink:href="#e"/>
<use x="288.634766" xlink:href="#g"/>
<use x="352.013672" xlink:href="#f"/>
<use x="413.292969" xlink:href="#i"/>
</g>
</g>
<path d="m654.76 944.92v35.285q0 2.4 2.4 2.4h7.7425q2.4 0 2.4-2.4v-35.285q0-2.4-2.4-2.4h-7.7425q-2.4 0-2.4 2.4z" clip-path="url(#a)" fill="#fff" stroke="#fff"/>
<g clip-path="url(#a)">
<g transform="translate(658.82 944.92) rotate(90) scale(.08 -.08)">
<use xlink:href="#l"/>
<use x="60.818359" xlink:href="#c"/>
<use x="122.341797" xlink:href="#h"/>
<use x="163.439453" xlink:href="#k"/>
<use x="260.851562" xlink:href="#e"/>
<use x="288.634766" xlink:href="#g"/>
<use x="352.013672" xlink:href="#f"/>
<use x="413.292969" xlink:href="#i"/>
</g>
</g>
<path d="m676.98 144.92 9.5249-2.8162q2.3015-0.68049 1.621-2.982l-2.1953-7.4248q-0.68049-2.3015-2.982-1.621l-9.5249 2.8162q-2.3015 0.68049-1.621 2.982l2.1953 7.4248q0.68049 2.3015 2.982 1.621z" clip-path="url(#a)" fill="#fff" stroke="#fff"/>
<g clip-path="url(#a)">
<g transform="translate(675.82 141.02) rotate(-16.471) scale(.08 -.08)">
<use xlink:href="#ad"/>
<use x="55.744141" xlink:href="#q"/>
</g>
</g>
<path d="m1023 462.38 1.3373 9.9266q0.32042 2.3785 2.6989 2.0581l7.6732-1.0337q2.3785-0.32042 2.0581-2.6989l-1.3373-9.9266q-0.32042-2.3785-2.6989-2.0581l-7.6732 1.0337q-2.3785 0.32042-2.0581 2.6989z" clip-path="url(#a)" fill="#fff" stroke="#fff"/>
<g clip-path="url(#a)">
<g transform="translate(1027 461.84) rotate(82.328) scale(.08 -.08)">
<use xlink:href="#ad"/>
<use x="55.712891" xlink:href="#ab"/>
</g>
</g>
<path d="m1204 224.41 8.0545 5.812q1.9462 1.4044 3.3506-0.54187l4.5305-6.2786q1.4044-1.9462-0.54187-3.3506l-8.0545-5.812q-1.9462-1.4044-3.3506 0.54187l-4.5305 6.2786q-1.4044 1.9462 0.54187 3.3506z" clip-path="url(#a)" fill="#fff" stroke="#fff"/>
<g clip-path="url(#a)">
<g transform="translate(1206.3 221.11) rotate(35.813) scale(.08 -.08)">
<use xlink:href="#ad"/>
<use x="55.744141" xlink:href="#q"/>
</g>
</g>
<path d="m1315.6 944.92v35.285q0 2.4 2.4 2.4h7.7425q2.4 0 2.4-2.4v-35.285q0-2.4-2.4-2.4h-7.7425q-2.4 0-2.4 2.4z" clip-path="url(#a)" fill="#fff" stroke="#fff"/>
<g clip-path="url(#a)">
<g transform="translate(1319.7 944.92) rotate(90) scale(.08 -.08)">
<use xlink:href="#l"/>
<use x="60.818359" xlink:href="#c"/>
<use x="122.341797" xlink:href="#h"/>
<use x="163.439453" xlink:href="#k"/>
<use x="260.851562" xlink:href="#e"/>
<use x="288.634766" xlink:href="#g"/>
<use x="352.013672" xlink:href="#f"/>
<use x="413.292969" xlink:href="#i"/>
</g>
</g>
<path d="m1551.7 944.92v35.285q0 2.4 2.4 2.4h7.7425q2.4 0 2.4-2.4v-35.285q0-2.4-2.4-2.4h-7.7425q-2.4 0-2.4 2.4z" clip-path="url(#a)" fill="#fff" stroke="#fff"/>
<g clip-path="url(#a)">
<g transform="translate(1555.7 944.92) rotate(90) scale(.08 -.08)">
<use xlink:href="#l"/>
<use x="60.818359" xlink:href="#c"/>
<use x="122.341797" xlink:href="#h"/>
<use x="163.439453" xlink:href="#k"/>
<use x="260.851562" xlink:href="#e"/>
<use x="288.634766" xlink:href="#g"/>
<use x="352.013672" xlink:href="#f"/>
<use x="413.292969" xlink:href="#i"/>
</g>
</g>
<path d="m1646.1 944.92v35.285q0 2.4 2.4 2.4h7.7425q2.4 0 2.4-2.4v-35.285q0-2.4-2.4-2.4h-7.7425q-2.4 0-2.4 2.4z" clip-path="url(#a)" fill="#fff" stroke="#fff"/>
<g clip-path="url(#a)">
<g transform="translate(1650.1 944.92) rotate(90) scale(.08 -.08)">
<use xlink:href="#l"/>
<use x="60.818359" xlink:href="#c"/>
<use x="122.341797" xlink:href="#h"/>
<use x="163.439453" xlink:href="#k"/>
<use x="260.851562" xlink:href="#e"/>
<use x="288.634766" xlink:href="#g"/>
<use x="352.013672" xlink:href="#f"/>
<use x="413.292969" xlink:href="#i"/>
</g>
</g>
<path d="m1787.7 944.92v35.285q0 2.4 2.4 2.4h7.7425q2.4 0 2.4-2.4v-35.285q0-2.4-2.4-2.4h-7.7425q-2.4 0-2.4 2.4z" clip-path="url(#a)" fill="#fff" stroke="#fff"/>
<g clip-path="url(#a)">
<g transform="translate(1791.7 944.92) rotate(90) scale(.08 -.08)">
<use xlink:href="#l"/>
<use x="60.818359" xlink:href="#c"/>
<use x="122.341797" xlink:href="#h"/>
<use x="163.439453" xlink:href="#k"/>
<use x="260.851562" xlink:href="#e"/>
<use x="288.634766" xlink:href="#g"/>
<use x="352.013672" xlink:href="#f"/>
<use x="413.292969" xlink:href="#i"/>
</g>
</g>
<path d="m1976.5 944.92v35.285q0 2.4 2.4 2.4h7.7425q2.4 0 2.4-2.4v-35.285q0-2.4-2.4-2.4h-7.7425q-2.4 0-2.4 2.4z" clip-path="url(#a)" fill="#fff" stroke="#fff"/>
<g clip-path="url(#a)">
<g transform="translate(1980.6 944.92) rotate(90) scale(.08 -.08)">
<use xlink:href="#l"/>
<use x="60.818359" xlink:href="#c"/>
<use x="122.341797" xlink:href="#h"/>
<use x="163.439453" xlink:href="#k"/>
<use x="260.851562" xlink:href="#e"/>
<use x="288.634766" xlink:href="#g"/>
<use x="352.013672" xlink:href="#f"/>
<use x="413.292969" xlink:href="#i"/>
</g>
</g>
<defs>
<path id="b" d="m0 8.6603c2.2967 0 4.4997-0.9125 6.1237-2.5365 1.624-1.624 2.5365-3.827 2.5365-6.1237s-0.9125-4.4997-2.5365-6.1237c-1.624-1.624-3.827-2.5365-6.1237-2.5365s-4.4997 0.9125-6.1237 2.5365c-1.624 1.624-2.5365 3.827-2.5365 6.1237s0.9125 4.4997 2.5365 6.1237c1.624 1.624 3.827 2.5365 6.1237 2.5365z"/>
</defs>
<g clip-path="url(#a)">
<use x="94.565934" y="1042.722029" fill="#ffffff" stroke="#ffffff" xlink:href="#b"/>
</g>
<g clip-path="url(#a)">
<use x="141.770971" y="1042.722029" fill="#ffffff" stroke="#ffffff" xlink:href="#b"/>
</g>
<g clip-path="url(#a)">
<use x="188.976008" y="1042.722029" fill="#ffffff" stroke="#ffffff" xlink:href="#b"/>
</g>
<g clip-path="url(#a)">
<use x="236.181044" y="1042.722029" fill="#ffffff" stroke="#ffffff" xlink:href="#b"/>
</g>
<g clip-path="url(#a)">
<use x="283.386081" y="1042.722029" fill="#ffffff" stroke="#ffffff" xlink:href="#b"/>
</g>
<g clip-path="url(#a)">
<use x="330.591117" y="1042.722029" fill="#ffffff" stroke="#ffffff" xlink:href="#b"/>
</g>
<g clip-path="url(#a)">
<use x="377.796154" y="1042.722029" fill="#ffffff" stroke="#ffffff" xlink:href="#b"/>
</g>
<g clip-path="url(#a)">
<use x="425.001191" y="1042.722029" fill="#ffffff" stroke="#ffffff" xlink:href="#b"/>
</g>
<g clip-path="url(#a)">
<use x="472.206227" y="1042.722029" fill="#ffffff" stroke="#ffffff" xlink:href="#b"/>
</g>
<g clip-path="url(#a)">
<use x="519.411264" y="1042.722029" fill="#ffffff" stroke="#ffffff" xlink:href="#b"/>
</g>
<g clip-path="url(#a)">
<use x="566.616301" y="1042.722029" fill="#ffffff" stroke="#ffffff" xlink:href="#b"/>
</g>
<g clip-path="url(#a)">
<use x="613.821337" y="1042.722029" fill="#ffffff" stroke="#ffffff" xlink:href="#b"/>
</g>
<g clip-path="url(#a)">
<use x="661.026374" y="1042.722029" fill="#ffffff" stroke="#ffffff" xlink:href="#b"/>
</g>
<g clip-path="url(#a)">
<use x="708.23141" y="1042.722029" fill="#ffffff" stroke="#ffffff" xlink:href="#b"/>
</g>
<g clip-path="url(#a)">
<use x="755.436447" y="1042.722029" fill="#ffffff" stroke="#ffffff" xlink:href="#b"/>
</g>
<g clip-path="url(#a)">
<use x="802.641484" y="1042.722029" fill="#ffffff" stroke="#ffffff" xlink:href="#b"/>
</g>
<g clip-path="url(#a)">
<use x="849.84652" y="1042.722029" fill="#ffffff" stroke="#ffffff" xlink:href="#b"/>
</g>
<g clip-path="url(#a)">
<use x="897.051557" y="1042.722029" fill="#ffffff" stroke="#ffffff" xlink:href="#b"/>
</g>
<g clip-path="url(#a)">
<use x="944.256593" y="1042.722029" fill="#ffffff" stroke="#ffffff" xlink:href="#b"/>
</g>
<g clip-path="url(#a)">
<use x="991.46163" y="1042.722029" fill="#ffffff" stroke="#ffffff" xlink:href="#b"/>
</g>
<g clip-path="url(#a)">
<use x="1038.666667" y="1042.722029" fill="#ffffff" stroke="#ffffff" xlink:href="#b"/>
</g>
<g clip-path="url(#a)">
<use x="1085.871703" y="1042.722029" fill="#ffffff" stroke="#ffffff" xlink:href="#b"/>
</g>
<g clip-path="url(#a)">
<use x="1133.07674" y="1042.722029" fill="#ffffff" stroke="#ffffff" xlink:href="#b"/>
</g>
<g clip-path="url(#a)">
<use x="1180.281777" y="1042.722029" fill="#ffffff" stroke="#ffffff" xlink:href="#b"/>
</g>
<g clip-path="url(#a)">
<use x="1227.486813" y="1042.722029" fill="#ffffff" stroke="#ffffff" xlink:href="#b"/>
</g>
<g clip-path="url(#a)">
<use x="1274.69185" y="1042.722029" fill="#ffffff" stroke="#ffffff" xlink:href="#b"/>
</g>
<g clip-path="url(#a)">
<use x="1321.896886" y="1042.722029" fill="#ffffff" stroke="#ffffff" xlink:href="#b"/>
</g>
<g clip-path="url(#a)">
<use x="1369.101923" y="1042.722029" fill="#ffffff" stroke="#ffffff" xlink:href="#b"/>
</g>
<g clip-path="url(#a)">
<use x="1416.30696" y="1042.722029" fill="#ffffff" stroke="#ffffff" xlink:href="#b"/>
</g>
<g clip-path="url(#a)">
<use x="1463.511996" y="1042.722029" fill="#ffffff" stroke="#ffffff" xlink:href="#b"/>
</g>
<g clip-path="url(#a)">
<use x="1510.717033" y="1042.722029" fill="#ffffff" stroke="#ffffff" xlink:href="#b"/>
</g>
<g clip-path="url(#a)">
<use x="1557.922069" y="1042.722029" fill="#ffffff" stroke="#ffffff" xlink:href="#b"/>
</g>
<g clip-path="url(#a)">
<use x="1605.127106" y="1042.722029" fill="#ffffff" stroke="#ffffff" xlink:href="#b"/>
</g>
<g clip-path="url(#a)">
<use x="1652.332143" y="1042.722029" fill="#ffffff" stroke="#ffffff" xlink:href="#b"/>
</g>
<g clip-path="url(#a)">
<use x="1699.537179" y="1042.722029" fill="#ffffff" stroke="#ffffff" xlink:href="#b"/>
</g>
<g clip-path="url(#a)">
<use x="1746.742216" y="1042.722029" fill="#ffffff" stroke="#ffffff" xlink:href="#b"/>
</g>
<g clip-path="url(#a)">
<use x="1793.947252" y="1042.722029" fill="#ffffff" stroke="#ffffff" xlink:href="#b"/>
</g>
<g clip-path="url(#a)">
<use x="1841.152289" y="1042.722029" fill="#ffffff" stroke="#ffffff" xlink:href="#b"/>
</g>
<g clip-path="url(#a)">
<use x="1888.357326" y="1042.722029" fill="#ffffff" stroke="#ffffff" xlink:href="#b"/>
</g>
<g clip-path="url(#a)">
<use x="1935.562362" y="1042.722029" fill="#ffffff" stroke="#ffffff" xlink:href="#b"/>
</g>
<g clip-path="url(#a)">
<use x="1982.767399" y="1042.722029" fill="#ffffff" stroke="#ffffff" xlink:href="#b"/>
</g>
<g clip-path="url(#a)">
<use x="973.818019" y="50.611305" fill="#ffffff" stroke="#ffffff" xlink:href="#b"/>
</g>
<g clip-path="url(#a)">
<use x="386.100744" y="224.382889" fill="#ffffff" stroke="#ffffff" xlink:href="#b"/>
</g>
<g clip-path="url(#a)">
<use x="1085.871703" y="882.399415" fill="#ffffff" stroke="#ffffff" xlink:href="#b"/>
</g>
<g clip-path="url(#a)">
<use x="1449.48161" y="393.840969" fill="#ffffff" stroke="#ffffff" xlink:href="#b"/>
</g>
<g clip-path="url(#a)">
<use x="1168.480517" y="722.076802" fill="#ffffff" stroke="#ffffff" xlink:href="#b"/>
</g>
<g clip-path="url(#a)">
<use x="1274.69185" y="882.399415" fill="#ffffff" stroke="#ffffff" xlink:href="#b"/>
</g>
<g clip-path="url(#a)">
<use x="1595.686099" y="722.076802" fill="#ffffff" stroke="#ffffff" xlink:href="#b"/>
</g>
<g clip-path="url(#a)">
<use x="1542.187057" y="559.523925" fill="#ffffff" stroke="#ffffff" xlink:href="#b"/>
</g>
<g clip-path="url(#a)">
<use x="1841.152289" y="882.399415" fill="#ffffff" stroke="#ffffff" xlink:href="#b"/>
</g>
<g clip-path="url(#a)">
<use x="1935.562362" y="722.076802" fill="#ffffff" stroke="#ffffff" xlink:href="#b"/>
</g>
<g clip-path="url(#a)">
<use x="1888.357326" y="882.399415" fill="#ffffff" stroke="#ffffff" xlink:href="#b"/>
</g>
<g clip-path="url(#a)">
<use x="1935.562362" y="882.399415" fill="#ffffff" stroke="#ffffff" xlink:href="#b"/>
</g>
<g clip-path="url(#a)">
<use x="1439.909478" y="882.399415" fill="#ffffff" stroke="#ffffff" xlink:href="#b"/>
</g>
<g clip-path="url(#a)">
<use x="1605.127106" y="882.399415" fill="#ffffff" stroke="#ffffff" xlink:href="#b"/>
</g>
<g clip-path="url(#a)">
<use x="1723.139698" y="882.399415" fill="#ffffff" stroke="#ffffff" xlink:href="#b"/>
</g>
<g clip-path="url(#a)">
<use x="1133.07674" y="882.399415" fill="#ffffff" stroke="#ffffff" xlink:href="#b"/>
</g>
<g clip-path="url(#a)">
<use x="1203.884295" y="882.399415" fill="#ffffff" stroke="#ffffff" xlink:href="#b"/>
</g>
<g clip-path="url(#a)">
<use x="94.565934" y="882.399415" fill="#ffffff" stroke="#ffffff" xlink:href="#b"/>
</g>
<g clip-path="url(#a)">
<use x="141.770971" y="882.399415" fill="#ffffff" stroke="#ffffff" xlink:href="#b"/>
</g>
<g clip-path="url(#a)">
<use x="425.001191" y="722.076802" fill="#ffffff" stroke="#ffffff" xlink:href="#b"/>
</g>
<g clip-path="url(#a)">
<use x="805.263986" y="393.840969" fill="#ffffff" stroke="#ffffff" xlink:href="#b"/>
</g>
<g clip-path="url(#a)">
<use x="708.23141" y="882.399415" fill="#ffffff" stroke="#ffffff" xlink:href="#b"/>
</g>
<g clip-path="url(#a)">
<use x="755.436447" y="882.399415" fill="#ffffff" stroke="#ffffff" xlink:href="#b"/>
</g>
<g clip-path="url(#a)">
<use x="952.1241" y="559.523925" fill="#ffffff" stroke="#ffffff" xlink:href="#b"/>
</g>
<g clip-path="url(#a)">
<use x="849.84652" y="722.076802" fill="#ffffff" stroke="#ffffff" xlink:href="#b"/>
</g>
<g clip-path="url(#a)">
<use x="967.859112" y="722.076802" fill="#ffffff" stroke="#ffffff" xlink:href="#b"/>
</g>
<g clip-path="url(#a)">
<use x="1038.666667" y="882.399415" fill="#ffffff" stroke="#ffffff" xlink:href="#b"/>
</g>
<g clip-path="url(#a)">
<use x="944.256593" y="882.399415" fill="#ffffff" stroke="#ffffff" xlink:href="#b"/>
</g>
<g clip-path="url(#a)">
<use x="991.46163" y="882.399415" fill="#ffffff" stroke="#ffffff" xlink:href="#b"/>
</g>
<g clip-path="url(#a)">
<use x="802.641484" y="882.399415" fill="#ffffff" stroke="#ffffff" xlink:href="#b"/>
</g>
<g clip-path="url(#a)">
<use x="849.84652" y="882.399415" fill="#ffffff" stroke="#ffffff" xlink:href="#b"/>
</g>
<g clip-path="url(#a)">
<use x="897.051557" y="882.399415" fill="#ffffff" stroke="#ffffff" xlink:href="#b"/>
</g>
<g clip-path="url(#a)">
<use x="283.386081" y="882.399415" fill="#ffffff" stroke="#ffffff" xlink:href="#b"/>
</g>
<g clip-path="url(#a)">
<use x="425.001191" y="882.399415" fill="#ffffff" stroke="#ffffff" xlink:href="#b"/>
</g>
<g clip-path="url(#a)">
<use x="566.616301" y="882.399415" fill="#ffffff" stroke="#ffffff" xlink:href="#b"/>
</g>
<g clip-path="url(#a)">
<use x="188.976008" y="882.399415" fill="#ffffff" stroke="#ffffff" xlink:href="#b"/>
</g>
<g clip-path="url(#a)">
<use x="377.796154" y="882.399415" fill="#ffffff" stroke="#ffffff" xlink:href="#b"/>
</g>
<g clip-path="url(#a)">
<use x="472.206227" y="882.399415" fill="#ffffff" stroke="#ffffff" xlink:href="#b"/>
</g>
<g clip-path="url(#a)">
<use x="661.026374" y="882.399415" fill="#ffffff" stroke="#ffffff" xlink:href="#b"/>
</g>
<g clip-path="url(#a)">
<use x="973.818019" y="50.611305" fill="#808080" stroke="#808080" xlink:href="#b"/>
</g>
<g clip-path="url(#a)">
<use x="1321.896886" y="882.399415" fill="#ffffff" stroke="#ffffff" xlink:href="#b"/>
</g>
<g clip-path="url(#a)">
<use x="1557.922069" y="882.399415" fill="#ffffff" stroke="#ffffff" xlink:href="#b"/>
</g>
<g clip-path="url(#a)">
<use x="1652.332143" y="882.399415" fill="#ffffff" stroke="#ffffff" xlink:href="#b"/>
</g>
<g clip-path="url(#a)">
<use x="1793.947252" y="882.399415" fill="#ffffff" stroke="#ffffff" xlink:href="#b"/>
</g>
<g clip-path="url(#a)">
<use x="1982.767399" y="882.399415" fill="#ffffff" stroke="#ffffff" xlink:href="#b"/>
</g>
<g clip-path="url(#a)">
<defs>
<path id="ay" d="m19.672 34.812v-26.703h15.828q7.9531 0 11.781 3.2969 3.8438 3.2969 3.8438 10.078 0 6.8438-3.8438 10.078-3.8281 3.25-11.781 3.25zm0 29.984v-21.969h14.609q7.2188 0 10.75 2.7031 3.5469 2.7188 3.5469 8.2812 0 5.5156-3.5469 8.25-3.5312 2.7344-10.75 2.7344zm-9.8594 8.1094h25.203q11.281 0 17.375-4.6875 6.1094-4.6875 6.1094-13.328 0-6.7031-3.125-10.656t-9.1875-4.9219q7.2812-1.5625 11.312-6.5312 4.0312-4.9531 4.0312-12.375 0-9.7656-6.6406-15.094-6.6406-5.3125-18.906-5.3125h-26.172z"/>
<path id="n" d="m18.312 70.219v-15.531h18.5v-6.9844h-18.5v-29.688q0-6.6875 1.8281-8.5938t7.4531-1.9062h9.2188v-7.5156h-9.2188q-10.406 0-14.359 3.875-3.9531 3.8906-3.9531 14.141v29.688h-6.5938v6.9844h6.5938v15.531z"/>
<path id="ba" d="m5.5156 54.688h42.672v-8.2031l-33.781-39.312h33.781v-7.1719h-43.891v8.2031l33.797 39.312h-32.578z"/>
</defs>
<g transform="translate(75.84 1045.5) scale(.1 -.1)">
<use xlink:href="#ay"/>
<use x="68.603516" xlink:href="#c"/>
<use x="130.126953" xlink:href="#g"/>
<use x="193.505859" xlink:href="#e"/>
<use x="221.289062" xlink:href="#n"/>
<use x="260.498047" xlink:href="#c"/>
<use x="322.021484" xlink:href="#ba"/>
</g>
</g>
<g clip-path="url(#a)">
<defs>
<path id="x" d="m45.406 46.391v29.594h8.9844v-75.984h-8.9844v8.2031q-2.8281-4.875-7.1562-7.25-4.3125-2.375-10.375-2.375-9.9062 0-16.141 7.9062-6.2188 7.9219-6.2188 20.812t6.2188 20.797q6.2344 7.9062 16.141 7.9062 6.0625 0 10.375-2.375 4.3281-2.3594 7.1562-7.2344zm-30.609-19.094q0-9.9062 4.0781-15.547t11.203-5.6406 11.219 5.6406q4.1094 5.6406 4.1094 15.547t-4.1094 15.547q-4.0938 5.6406-11.219 5.6406t-11.203-5.6406-4.0781-15.547z"/>
<path id="z" d="m37.109 75.984v-7.4844h-8.5938q-4.8281 0-6.7188-1.9531-1.875-1.9531-1.875-7.0312v-4.8281h14.797v-6.9844h-14.797v-47.703h-9.0312v47.703h-8.5938v6.9844h8.5938v3.8125q0 9.125 4.25 13.297 4.25 4.1875 13.469 4.1875z"/>
</defs>
<g transform="translate(118.21 1045.5) scale(.1 -.1)">
<use xlink:href="#e"/>
<use x="27.783203" xlink:href="#x"/>
<use x="91.259766" xlink:href="#c"/>
<use x="152.783203" xlink:href="#g"/>
<use x="216.162109" xlink:href="#n"/>
<use x="255.371094" xlink:href="#e"/>
<use x="283.154297" xlink:href="#z"/>
<use x="318.359375" xlink:href="#e"/>
<use x="346.142578" xlink:href="#c"/>
<use x="407.666016" xlink:href="#x"/>
</g>
</g>
<g clip-path="url(#a)">
<defs>
<path id="v" d="m17.922 72.906v-27.109h-8.2969v27.109zm18.453 0v-27.109h-8.2969v27.109z"/>
</defs>
<g transform="translate(186.68 1045.5) scale(.1 -.1)">
<use xlink:href="#v"/>
</g>
</g>
<g clip-path="url(#a)">
<defs>
<path id="s" d="m30.609 48.391q-7.2188 0-11.422-5.6406t-4.2031-15.453 4.1719-15.453q4.1875-5.6406 11.453-5.6406 7.1875 0 11.375 5.6562 4.2031 5.6719 4.2031 15.438 0 9.7188-4.2031 15.406-4.1875 5.6875-11.375 5.6875zm0 7.6094q11.719 0 18.406-7.625 6.7031-7.6094 6.7031-21.078 0-13.422-6.7031-21.078-6.6875-7.6406-18.406-7.6406-11.766 0-18.438 7.6406-6.6562 7.6562-6.6562 21.078 0 13.469 6.6562 21.078 6.6719 7.625 18.438 7.625z"/>
<path id="an" d="m18.109 8.2031v-29h-9.0312v75.484h9.0312v-8.2969q2.8438 4.875 7.1562 7.2344 4.3281 2.375 10.328 2.375 9.9688 0 16.188-7.9062 6.2344-7.9062 6.2344-20.797t-6.2344-20.812q-6.2188-7.9062-16.188-7.9062-6 0-10.328 2.375-4.3125 2.375-7.1562 7.25zm30.578 19.094q0 9.9062-4.0781 15.547t-11.203 5.6406q-7.1406 0-11.219-5.6406t-4.0781-15.547 4.0781-15.547 11.219-5.6406q7.125 0 11.203 5.6406t4.0781 15.547z"/>
</defs>
<g transform="translate(223.11 1045.5) scale(.1 -.1)">
<use xlink:href="#ae"/>
<use x="75.195312" xlink:href="#s"/>
<use x="136.376953" xlink:href="#an"/>
<use x="199.853516" xlink:href="#c"/>
</g>
</g>
<g clip-path="url(#a)">
<g transform="translate(278.57 1045.5) scale(.1 -.1)">
<use xlink:href="#s"/>
<use x="61.181641" xlink:href="#z"/>
</g>
</g>
<g clip-path="url(#a)">
<defs>
<path id="ax" d="m19.672 64.797v-56.688h11.922q15.094 0 22.094 6.8281 7 6.8438 7 21.594 0 14.641-7 21.453t-22.094 6.8125zm-9.8594 8.1094h20.266q21.188 0 31.094-8.8125 9.9219-8.8125 9.9219-27.562 0-18.859-9.9688-27.703-9.9531-8.8281-31.047-8.8281h-20.266z"/>
<path id="ak" d="m2.9844 54.688h9.5156l17.094-45.891 17.094 45.891h9.5156l-20.516-54.688h-12.203z"/>
<path id="aa" d="m48.781 52.594v-8.4062q-3.8125 2.1094-7.6406 3.1562t-7.7344 1.0469q-8.75 0-13.594-5.5469-4.8281-5.5312-4.8281-15.547t4.8281-15.562q4.8438-5.5312 13.594-5.5312 3.9062 0 7.7344 1.0469t7.6406 3.1562v-8.3125q-3.7656-1.75-7.7969-2.625-4.0156-0.89062-8.5625-0.89062-12.359 0-19.641 7.7656-7.2656 7.7656-7.2656 20.953 0 13.375 7.3438 21.031 7.3594 7.6719 20.156 7.6719 4.1406 0 8.0938-0.85938 3.9531-0.84375 7.6719-2.5469z"/>
</defs>
<g transform="translate(300.74 1045.5) scale(.1 -.1)">
<use xlink:href="#ax"/>
<use x="77.001953" xlink:href="#c"/>
<use x="138.525391" xlink:href="#i"/>
<use x="166.308594" xlink:href="#e"/>
<use x="194.091797" xlink:href="#ak"/>
<use x="253.271484" xlink:href="#c"/>
<use x="314.794922" xlink:href="#h"/>
<use x="355.908203" xlink:href="#f"/>
<use x="417.1875" xlink:href="#g"/>
<use x="480.566406" xlink:href="#aa"/>
<use x="535.546875" xlink:href="#c"/>
</g>
</g>
<g clip-path="url(#a)">
<g transform="translate(375.5 1045.5) scale(.1 -.1)">
<use xlink:href="#v"/>
</g>
</g>
<g clip-path="url(#a)">
<g transform="translate(415.59 1045.5) scale(.1 -.1)">
<use xlink:href="#f"/>
<use x="61.279297" xlink:href="#g"/>
<use x="124.658203" xlink:href="#x"/>
</g>
</g>
<g clip-path="url(#a)">
<g transform="translate(469.91 1045.5) scale(.1 -.1)">
<use xlink:href="#v"/>
</g>
</g>
<g clip-path="url(#a)">
<defs>
<path id="ac" d="m8.5 21.578v33.109h8.9844v-32.766q0-7.7656 3.0156-11.656 3.0312-3.875 9.0938-3.875 7.2656 0 11.484 4.6406 4.2344 4.6406 4.2344 12.656v31h8.9844v-54.688h-8.9844v8.4062q-3.2656-4.9844-7.5938-7.4062-4.3125-2.4219-10.031-2.4219-9.4219 0-14.312 5.8594-4.875 5.8594-4.875 17.141z"/>
</defs>
<g transform="translate(511.27 1045.5) scale(.1 -.1)">
<use xlink:href="#y"/>
<use x="60.287109" xlink:href="#ac"/>
<use x="123.666016" xlink:href="#n"/>
</g>
</g>
<g clip-path="url(#a)">
<defs>
<path id="ar" d="m9.8125 72.906h9.8594v-72.906h-9.8594z"/>
</defs>
<g transform="translate(563.18 1045.5) scale(.1 -.1)">
<use xlink:href="#ar"/>
<use x="29.492188" xlink:href="#n"/>
</g>
</g>
<g clip-path="url(#a)">
<defs>
<path id="ao" d="m54.891 33.016v-33.016h-8.9844v32.719q0 7.7656-3.0312 11.609-3.0312 3.8594-9.0781 3.8594-7.2812 0-11.484-4.6406-4.2031-4.625-4.2031-12.641v-30.906h-9.0312v75.984h9.0312v-29.797q3.2344 4.9375 7.5938 7.375 4.375 2.4375 10.094 2.4375 9.4219 0 14.25-5.8281 4.8438-5.8281 4.8438-17.156z"/>
</defs>
<g transform="translate(599.39 1045.5) scale(.1 -.1)">
<use xlink:href="#l"/>
<use x="61.083984" xlink:href="#ao"/>
<use x="124.462891" xlink:href="#c"/>
<use x="185.986328" xlink:href="#h"/>
<use x="227.068359" xlink:href="#c"/>
</g>
</g>
<g clip-path="url(#a)">
<g transform="translate(658.73 1045.5) scale(.1 -.1)">
<use xlink:href="#v"/>
</g>
</g>
<g clip-path="url(#a)">
<defs>
<path id="u" d="m44.281 53.078v-8.5q-3.7969 1.9531-7.9062 2.9219-4.0938 0.98438-8.5 0.98438-6.6875 0-10.031-2.0469t-3.3438-6.1562q0-3.125 2.3906-4.9062t9.625-3.3906l3.0781-0.6875q9.5625-2.0469 13.594-5.7812t4.0312-10.422q0-7.625-6.0312-12.078-6.0312-4.4375-16.578-4.4375-4.3906 0-9.1562 0.85938t-10.031 2.5625v9.2812q4.9844-2.5938 9.8125-3.8906 4.8281-1.2812 9.5781-1.2812 6.3438 0 9.75 2.1719 3.4219 2.1719 3.4219 6.125 0 3.6562-2.4688 5.6094-2.4531 1.9531-10.812 3.7656l-3.125 0.73438q-8.3438 1.75-12.062 5.3906-3.7031 3.6406-3.7031 9.9844 0 7.7188 5.4688 11.906 5.4688 4.2031 15.531 4.2031 4.9688 0 9.3594-0.73438 4.4062-0.71875 8.1094-2.1875z"/>
</defs>
<g transform="translate(702.56 1045.5) scale(.1 -.1)">
<use xlink:href="#f"/>
<use x="61.279297" xlink:href="#u"/>
</g>
</g>
<g clip-path="url(#a)">
<defs>
<path id="at" d="m54.891 54.688-19.781-26.609 20.797-28.078h-10.594l-15.922 21.484-15.906-21.484h-10.609l21.25 28.609-19.438 26.078h10.594l14.5-19.484 14.5 19.484z"/>
</defs>
<g transform="translate(731.22 1045.5) scale(.1 -.1)">
<use xlink:href="#c"/>
<use x="61.507812" xlink:href="#at"/>
<use x="120.6875" xlink:href="#f"/>
<use x="181.966797" xlink:href="#k"/>
<use x="279.378906" xlink:href="#an"/>
<use x="342.855469" xlink:href="#i"/>
<use x="370.638672" xlink:href="#c"/>
<use x="432.162109" xlink:href="#u"/>
</g>
</g>
<g clip-path="url(#a)">
<g transform="translate(797.82 1045.5) scale(.1 -.1)">
<use xlink:href="#s"/>
<use x="61.181641" xlink:href="#z"/>
</g>
</g>
<g clip-path="url(#a)">
<defs>
<path id="av" d="m9.8125 72.906h14.703l18.594-49.609 18.703 49.609h14.703v-72.906h-9.625v64.016l-18.797-50h-9.9062l-18.797 50v-64.016h-9.5781z"/>
<path id="am" d="m32.172-5.0781q-3.7969-9.7656-7.4219-12.734-3.6094-2.9844-9.6562-2.9844h-7.1875v7.5156h5.2812q3.7031 0 5.75 1.7656 2.0625 1.75 4.5469 8.2969l1.6094 4.0938-22.109 53.812h9.5156l17.094-42.766 17.094 42.766h9.5156z"/>
</defs>
<g transform="translate(823.01 1045.5) scale(.1 -.1)">
<use xlink:href="#av"/>
<use x="86.279297" xlink:href="#aa"/>
<use x="141.259766" xlink:href="#r"/>
<use x="211.083984" xlink:href="#f"/>
<use x="272.363281" xlink:href="#h"/>
<use x="313.476562" xlink:href="#n"/>
<use x="352.685547" xlink:href="#g"/>
<use x="416.064453" xlink:href="#c"/>
<use x="477.587891" xlink:href="#am"/>
</g>
</g>
<g clip-path="url(#a)">
<defs>
<path id="as" d="m17.922 72.906v-27.109h-8.2969v27.109z"/>
</defs>
<g transform="translate(893.07 1045.5) scale(.1 -.1)">
<use xlink:href="#as"/>
<use x="27.490234" xlink:href="#u"/>
</g>
</g>
<g clip-path="url(#a)">
<defs>
<path id="bc" d="m9.0781 75.984h9.0312v-44.875l26.812 23.578h11.469l-29-25.578 30.234-29.109h-11.719l-27.797 26.703v-26.703h-9.0312z"/>
</defs>
<g transform="translate(935.15 1045.5) scale(.1 -.1)">
<use xlink:href="#z"/>
<use x="35.205078" xlink:href="#s"/>
<use x="96.386719" xlink:href="#i"/>
<use x="124.169922" xlink:href="#bc"/>
</g>
</g>
<g clip-path="url(#a)">
<g transform="translate(976.68 1045.5) scale(.1 -.1)">
<use xlink:href="#k"/>
<use x="97.412109" xlink:href="#ac"/>
<use x="160.791016" xlink:href="#u"/>
<use x="212.890625" xlink:href="#e"/>
<use x="240.673828" xlink:href="#aa"/>
</g>
</g>
<g clip-path="url(#a)">
<g transform="translate(1022.4 1045.5) scale(.1 -.1)">
<use xlink:href="#c"/>
<use x="61.523438" xlink:href="#z"/>
<use x="96.728516" xlink:href="#z"/>
<use x="131.933594" xlink:href="#s"/>
<use x="193.115234" xlink:href="#h"/>
<use x="234.228516" xlink:href="#n"/>
<use x="273.4375" xlink:href="#u"/>
</g>
</g>
<g clip-path="url(#a)">
<defs>
<path id="bb" d="m4.2031 54.688h8.9844l11.234-42.672 11.172 42.672h10.594l11.234-42.672 11.188 42.672h8.9844l-14.312-54.688h-10.594l-11.766 44.828-11.812-44.828h-10.609z"/>
</defs>
<g transform="translate(1072.8 1045.5) scale(.1 -.1)">
<use xlink:href="#bb"/>
<use x="81.787109" xlink:href="#ao"/>
<use x="145.166016" xlink:href="#e"/>
<use x="172.949219" xlink:href="#i"/>
<use x="200.732422" xlink:href="#c"/>
</g>
</g>
<g clip-path="url(#a)">
<defs>
<path id="bd" d="m45.406 27.984q0 9.7656-4.0312 15.125-4.0156 5.375-11.297 5.375-7.2188 0-11.25-5.375-4.0312-5.3594-4.0312-15.125 0-9.7188 4.0312-15.094t11.25-5.375q7.2812 0 11.297 5.375 4.0312 5.375 4.0312 15.094zm8.9844-21.203q0-13.953-6.2031-20.766-6.1875-6.8125-18.984-6.8125-4.7344 0-8.9375 0.70312t-8.1562 2.1719v8.7344q3.9531-2.1406 7.8125-3.1562 3.8594-1.0312 7.8594-1.0312 8.8438 0 13.234 4.6094t4.3906 13.938v4.4531q-2.7812-4.8438-7.125-7.2344t-10.406-2.3906q-10.047 0-16.203 7.6562-6.1562 7.6719-6.1562 20.328 0 12.688 6.1562 20.344 6.1562 7.6719 16.203 7.6719 6.0625 0 10.406-2.3906t7.125-7.2188v8.2969h8.9844z"/>
</defs>
<g transform="translate(1101.7 1045.5) scale(.1 -.1)">
<use xlink:href="#k"/>
<use x="97.412109" xlink:href="#ac"/>
<use x="160.791016" xlink:href="#u"/>
<use x="212.890625" xlink:href="#e"/>
<use x="240.673828" xlink:href="#aa"/>
<use x="295.654297" xlink:href="#s"/>
<use x="356.835938" xlink:href="#i"/>
<use x="384.619141" xlink:href="#s"/>
<use x="445.800781" xlink:href="#bd"/>
<use x="509.277344" xlink:href="#e"/>
<use x="537.060547" xlink:href="#u"/>
<use x="589.160156" xlink:href="#n"/>
</g>
</g>
<g clip-path="url(#a)">
<defs>
<path id="ap" d="m3.3281 72.906h9.9531l15.328-61.625 15.281 61.625h11.094l15.328-61.625 15.281 61.625h10.016l-18.312-72.906h-12.406l-15.375 63.281-15.531-63.281h-12.406z"/>
</defs>
<g transform="translate(1163.8 1045.5) scale(.1 -.1)">
<use xlink:href="#ap"/>
<use x="98.783203" xlink:href="#f"/>
<use x="160.0625" xlink:href="#i"/>
<use x="187.845703" xlink:href="#n"/>
<use x="227.054688" xlink:href="#c"/>
<use x="288.578125" xlink:href="#h"/>
</g>
</g>
<g clip-path="url(#a)">
<g transform="translate(1209.2 1045.5) scale(.1 -.1)">
<use xlink:href="#af"/>
<use x="63.183594" xlink:href="#ak"/>
<use x="122.363281" xlink:href="#c"/>
<use x="183.886719" xlink:href="#h"/>
<use x="224.96875" xlink:href="#c"/>
<use x="286.492188" xlink:href="#n"/>
<use x="325.701172" xlink:href="#n"/>
</g>
</g>
<g clip-path="url(#a)">
<g transform="translate(1247.2 1045.5) scale(.1 -.1)">
<use xlink:href="#aa"/>
<use x="54.980469" xlink:href="#s"/>
<use x="116.162109" xlink:href="#g"/>
<use x="179.541016" xlink:href="#u"/>
<use x="231.640625" xlink:href="#e"/>
<use x="259.423828" xlink:href="#x"/>
<use x="322.900391" xlink:href="#c"/>
<use x="384.423828" xlink:href="#h"/>
<use x="425.505859" xlink:href="#c"/>
<use x="487.029297" xlink:href="#x"/>
</g>
</g>
<g clip-path="url(#a)">
<g transform="translate(1319.6 1045.5) scale(.1 -.1)">
<use xlink:href="#v"/>
</g>
</g>
<g clip-path="url(#a)">
<g transform="translate(1354.7 1045.5) scale(.1 -.1)">
<use xlink:href="#ap"/>
<use x="98.876953" xlink:href="#ao"/>
<use x="162.255859" xlink:href="#c"/>
<use x="223.779297" xlink:href="#g"/>
</g>
</g>
<g clip-path="url(#a)">
<g transform="translate(1414.8 1045.5) scale(.1 -.1)">
<use xlink:href="#ar"/>
</g>
</g>
<g clip-path="url(#a)">
<g transform="translate(1457.3 1045.5) scale(.1 -.1)">
<use xlink:href="#as"/>
<use x="27.490234" xlink:href="#k"/>
</g>
</g>
<g clip-path="url(#a)">
<defs>
<path id="au" d="m53.516 70.516v-9.625q-5.6094 2.6875-10.594 4-4.9844 1.3281-9.625 1.3281-8.0469 0-12.422-3.125t-4.375-8.8906q0-4.8438 2.9062-7.3125 2.9062-2.4531 11.016-3.9688l5.9531-1.2188q11.031-2.1094 16.281-7.4062t5.25-14.172q0-10.609-7.1094-16.078-7.0938-5.4688-20.812-5.4688-5.1719 0-11.016 1.1719-5.8281 1.1719-12.078 3.4688v10.156q6-3.3594 11.766-5.0781 5.7656-1.7031 11.328-1.7031 8.4375 0 13.031 3.3125 4.5938 3.3281 4.5938 9.4844 0 5.3594-3.2969 8.3906t-10.812 4.5469l-6.0156 1.1719q-11.031 2.1875-15.969 6.875-4.9219 4.6875-4.9219 13.047 0 9.6719 6.8125 15.234t18.766 5.5625q5.1406 0 10.453-0.9375 5.3281-0.92188 10.891-2.7656z"/>
<path id="az" d="m4.8906 31.391h26.312v-8h-26.312z"/>
<path id="aw" d="m9.8125 72.906h41.891v-8.3125h-32.031v-21.484h28.906v-8.2969h-28.906v-34.812h-9.8594z"/>
</defs>
<g transform="translate(1485.3 1045.5) scale(.1 -.1)">
<use xlink:href="#au"/>
<use x="63.476562" xlink:href="#e"/>
<use x="91.259766" xlink:href="#at"/>
<use x="150.439453" xlink:href="#n"/>
<use x="189.648438" xlink:href="#am"/>
<use x="248.8125" xlink:href="#az"/>
<use x="284.896484" xlink:href="#aw"/>
<use x="342.369141" xlink:href="#s"/>
<use x="403.550781" xlink:href="#ac"/>
<use x="466.929688" xlink:href="#h"/>
</g>
</g>
<g clip-path="url(#a)">
<g transform="translate(1555.6 1045.5) scale(.1 -.1)">
<use xlink:href="#v"/>
</g>
</g>
<g clip-path="url(#a)">
<g transform="translate(1595.7 1045.5) scale(.1 -.1)">
<use xlink:href="#f"/>
<use x="61.279297" xlink:href="#g"/>
<use x="124.658203" xlink:href="#x"/>
</g>
</g>
<g clip-path="url(#a)">
<g transform="translate(1650 1045.5) scale(.1 -.1)">
<use xlink:href="#v"/>
</g>
</g>
<g clip-path="url(#a)">
<g transform="translate(1683.5 1045.5) scale(.1 -.1)">
<use xlink:href="#ae"/>
<use x="75.195312" xlink:href="#s"/>
<use x="136.376953" xlink:href="#g"/>
<use x="199.755859" xlink:href="#c"/>
<use x="261.279297" xlink:href="#am"/>
</g>
</g>
<g clip-path="url(#a)">
<g transform="translate(1739.3 1045.5) scale(.1 -.1)">
<use xlink:href="#y"/>
<use x="60.271484" xlink:href="#e"/>
<use x="88.054688" xlink:href="#c"/>
</g>
</g>
<g clip-path="url(#a)">
<g transform="translate(1791.6 1045.5) scale(.1 -.1)">
<use xlink:href="#v"/>
</g>
</g>
<g clip-path="url(#a)">
<g transform="translate(1818.5 1045.5) scale(.1 -.1)">
<use xlink:href="#f"/>
<use x="61.279297" xlink:href="#n"/>
<use x="100.488281" xlink:href="#n"/>
<use x="139.697266" xlink:href="#c"/>
<use x="201.220703" xlink:href="#k"/>
<use x="298.632812" xlink:href="#an"/>
<use x="362.109375" xlink:href="#n"/>
<use x="401.318359" xlink:href="#u"/>
</g>
</g>
<g clip-path="url(#a)">
<g transform="translate(1883.3 1045.5) scale(.1 -.1)">
<use xlink:href="#f"/>
<use x="61.279297" xlink:href="#n"/>
</g>
</g>
<g clip-path="url(#a)">
<g transform="translate(1909.9 1045.5) scale(.1 -.1)">
<use xlink:href="#ak"/>
<use x="59.179688" xlink:href="#f"/>
<use x="120.458984" xlink:href="#ac"/>
<use x="183.837891" xlink:href="#x"/>
<use x="247.314453" xlink:href="#c"/>
<use x="308.837891" xlink:href="#ak"/>
<use x="368.017578" xlink:href="#e"/>
<use x="395.800781" xlink:href="#i"/>
<use x="423.583984" xlink:href="#i"/>
<use x="451.367188" xlink:href="#c"/>
</g>
</g>
<g clip-path="url(#a)">
<defs>
<path id="j" d="m10.688 12.406h10.312v-12.406h-10.312z"/>
</defs>
<g transform="translate(1981.2 1045.5) scale(.1 -.1)">
<use xlink:href="#j"/>
</g>
</g>
<g clip-path="url(#a)">
<defs>
<path id="d" d="m12.406 8.2969h16.109v55.625l-17.531-3.5156v8.9844l17.438 3.5156h9.8594v-64.609h16.109v-8.2969h-41.984z"/>
</defs>
<g transform="translate(965.87 53.371) scale(.1 -.1)">
<use xlink:href="#d"/>
<use x="63.623047" xlink:href="#j"/>
<use x="95.410156" xlink:href="#d"/>
</g>
</g>
<g clip-path="url(#a)">
<defs>
<path id="p" d="m19.188 8.2969h34.422v-8.2969h-46.281v8.2969q5.6094 5.8125 15.297 15.594 9.7031 9.7969 12.188 12.641 4.7344 5.3125 6.6094 9 1.8906 3.6875 1.8906 7.25 0 5.8125-4.0781 9.4688-4.0781 3.6719-10.625 3.6719-4.6406 0-9.7969-1.6094-5.1406-1.6094-11-4.8906v9.9688q5.9531 2.3906 11.125 3.6094 5.1875 1.2188 9.4844 1.2188 11.328 0 18.062-5.6719 6.7344-5.6562 6.7344-15.125 0-4.5-1.6875-8.5312-1.6719-4.0156-6.125-9.4844-1.2188-1.4219-7.7656-8.1875-6.5312-6.7656-18.453-18.922z"/>
</defs>
<g transform="translate(378.15 227.14) scale(.1 -.1)">
<use xlink:href="#d"/>
<use x="63.623047" xlink:href="#j"/>
<use x="95.410156" xlink:href="#p"/>
</g>
</g>
<g clip-path="url(#a)">
<defs>
<path id="o" d="m40.578 39.312q7.0781-1.5156 11.047-6.3125 3.9844-4.7812 3.9844-11.812 0-10.781-7.4219-16.703-7.4219-5.9062-21.094-5.9062-4.5781 0-9.4375 0.90625t-10.031 2.7188v9.5156q4.0938-2.3906 8.9688-3.6094 4.8906-1.2188 10.219-1.2188 9.2656 0 14.125 3.6562t4.8594 10.641q0 6.4531-4.5156 10.078-4.5156 3.6406-12.562 3.6406h-8.5v8.1094h8.8906q7.2656 0 11.125 2.9062t3.8594 8.375q0 5.6094-3.9844 8.6094-3.9688 3.0156-11.391 3.0156-4.0625 0-8.7031-0.89062-4.6406-0.875-10.203-2.7188v8.7812q5.625 1.5625 10.531 2.3438t9.25 0.78125q11.234 0 17.766-5.1094 6.5469-5.0938 6.5469-13.781 0-6.0625-3.4688-10.234t-9.8594-5.7812z"/>
</defs>
<g transform="translate(1077.9 885.16) scale(.1 -.1)">
<use xlink:href="#d"/>
<use x="63.623047" xlink:href="#j"/>
<use x="95.410156" xlink:href="#o"/>
</g>
</g>
<g clip-path="url(#a)">
<defs>
<path id="m" d="m37.797 64.312-24.906-38.922h24.906zm-2.5938 8.5938h12.406v-47.516h10.406v-8.2031h-10.406v-17.188h-9.8125v17.188h-32.906v9.5156z"/>
</defs>
<g transform="translate(1441.5 396.6) scale(.1 -.1)">
<use xlink:href="#d"/>
<use x="63.623047" xlink:href="#j"/>
<use x="95.410156" xlink:href="#m"/>
</g>
</g>
<g clip-path="url(#a)">
<defs>
<path id="w" d="m10.797 72.906h38.719v-8.3125h-29.688v-17.859q2.1406 0.73438 4.2812 1.0938 2.1562 0.35938 4.3125 0.35938 12.203 0 19.328-6.6875 7.1406-6.6875 7.1406-18.109 0-11.766-7.3281-18.297-7.3281-6.5156-20.656-6.5156-4.5938 0-9.3594 0.78125-4.75 0.78125-9.8281 2.3438v9.9219q4.3906-2.3906 9.0781-3.5625t9.9062-1.1719q8.4531 0 13.375 4.4375 4.9375 4.4375 4.9375 12.062 0 7.6094-4.9375 12.047-4.9219 4.4531-13.375 4.4531-3.9531 0-7.8906-0.875-3.9219-0.875-8.0156-2.7344z"/>
</defs>
<g transform="translate(1160.5 724.84) scale(.1 -.1)">
<use xlink:href="#d"/>
<use x="63.623047" xlink:href="#j"/>
<use x="95.410156" xlink:href="#w"/>
</g>
</g>
<g clip-path="url(#a)">
<defs>
<path id="ai" d="m33.016 40.375q-6.6406 0-10.531-4.5469-3.875-4.5312-3.875-12.438 0-7.8594 3.875-12.438 3.8906-4.5625 10.531-4.5625t10.516 4.5625q3.875 4.5781 3.875 12.438 0 7.9062-3.875 12.438-3.875 4.5469-10.516 4.5469zm19.578 30.922v-8.9844q-3.7188 1.75-7.5 2.6719-3.7812 0.9375-7.5 0.9375-9.7656 0-14.922-6.5938-5.1406-6.5938-5.875-19.922 2.875 4.25 7.2188 6.5156 4.3594 2.2656 9.5781 2.2656 10.984 0 17.359-6.6719 6.375-6.6562 6.375-18.125 0-11.234-6.6406-18.031-6.6406-6.7812-17.672-6.7812-12.656 0-19.344 9.6875-6.6875 9.7031-6.6875 28.109 0 17.281 8.2031 27.562t22.016 10.281q3.7188 0 7.5-0.73438t7.8906-2.1875z"/>
</defs>
<g transform="translate(1266.7 885.16) scale(.1 -.1)">
<use xlink:href="#d"/>
<use x="63.623047" xlink:href="#j"/>
<use x="95.410156" xlink:href="#ai"/>
</g>
</g>
<g clip-path="url(#a)">
<defs>
<path id="ah" d="m8.2031 72.906h46.875v-4.2031l-26.469-68.703h-10.297l24.906 64.594h-35.016z"/>
</defs>
<g transform="translate(1587.7 724.84) scale(.1 -.1)">
<use xlink:href="#d"/>
<use x="63.623047" xlink:href="#j"/>
<use x="95.410156" xlink:href="#ah"/>
</g>
</g>
<g clip-path="url(#a)">
<defs>
<path id="ag" d="m31.781 34.625q-7.0312 0-11.062-3.7656-4.0156-3.7656-4.0156-10.344 0-6.5938 4.0156-10.359 4.0312-3.7656 11.062-3.7656t11.078 3.7812q4.0625 3.7969 4.0625 10.344 0 6.5781-4.0312 10.344-4.0156 3.7656-11.109 3.7656zm-9.8594 4.1875q-6.3438 1.5625-9.8906 5.9062-3.5312 4.3594-3.5312 10.609 0 8.7344 6.2188 13.812 6.2344 5.0781 17.062 5.0781 10.891 0 17.094-5.0781t6.2031-13.812q0-6.25-3.5469-10.609-3.5312-4.3438-9.8281-5.9062 7.125-1.6562 11.094-6.5 3.9844-4.8281 3.9844-11.797 0-10.609-6.4688-16.281-6.4688-5.6562-18.531-5.6562-12.047 0-18.531 5.6562-6.4688 5.6719-6.4688 16.281 0 6.9688 4 11.797 4.0156 4.8438 11.141 6.5zm-3.6094 15.578q0-5.6562 3.5312-8.8281 3.5469-3.1719 9.9375-3.1719 6.3594 0 9.9375 3.1719 3.5938 3.1719 3.5938 8.8281 0 5.6719-3.5938 8.8438-3.5781 3.1719-9.9375 3.1719-6.3906 0-9.9375-3.1719-3.5312-3.1719-3.5312-8.8438z"/>
</defs>
<g transform="translate(1534.2 562.28) scale(.1 -.1)">
<use xlink:href="#d"/>
<use x="63.623047" xlink:href="#j"/>
<use x="95.410156" xlink:href="#ag"/>
</g>
</g>
<g clip-path="url(#a)">
<defs>
<path id="aj" d="m31.781 66.406q-7.6094 0-11.453-7.5-3.8281-7.4844-3.8281-22.531 0-14.984 3.8281-22.484 3.8438-7.5 11.453-7.5 7.6719 0 11.5 7.5 3.8438 7.5 3.8438 22.484 0 15.047-3.8438 22.531-3.8281 7.5-11.5 7.5zm0 7.8125q12.266 0 18.734-9.7031 6.4688-9.6875 6.4688-28.141 0-18.406-6.4688-28.109-6.4688-9.6875-18.734-9.6875-12.25 0-18.719 9.6875-6.4688 9.7031-6.4688 28.109 0 18.453 6.4688 28.141 6.4688 9.7031 18.719 9.7031z"/>
</defs>
<g transform="translate(1830 885.16) scale(.1 -.1)">
<use xlink:href="#d"/>
<use x="63.623047" xlink:href="#j"/>
<use x="95.410156" xlink:href="#d"/>
<use x="159.033203" xlink:href="#aj"/>
</g>
</g>
<g clip-path="url(#a)">
<g transform="translate(1924.4 724.84) scale(.1 -.1)">
<use xlink:href="#d"/>
<use x="63.623047" xlink:href="#j"/>
<use x="95.410156" xlink:href="#d"/>
<use x="159.033203" xlink:href="#d"/>
</g>
</g>
<g clip-path="url(#a)">
<g transform="translate(1877.2 885.16) scale(.1 -.1)">
<use xlink:href="#d"/>
<use x="63.623047" xlink:href="#j"/>
<use x="95.410156" xlink:href="#d"/>
<use x="159.033203" xlink:href="#p"/>
</g>
</g>
<g clip-path="url(#a)">
<g transform="translate(1924.4 885.16) scale(.1 -.1)">
<use xlink:href="#d"/>
<use x="63.623047" xlink:href="#j"/>
<use x="95.410156" xlink:href="#d"/>
<use x="159.033203" xlink:href="#o"/>
</g>
</g>
<g clip-path="url(#a)">
<g transform="translate(1428.8 885.16) scale(.1 -.1)">
<use xlink:href="#d"/>
<use x="63.623047" xlink:href="#j"/>
<use x="95.410156" xlink:href="#d"/>
<use x="159.033203" xlink:href="#m"/>
</g>
</g>
<g clip-path="url(#a)">
<g transform="translate(1594 885.16) scale(.1 -.1)">
<use xlink:href="#d"/>
<use x="63.623047" xlink:href="#j"/>
<use x="95.410156" xlink:href="#d"/>
<use x="159.033203" xlink:href="#w"/>
</g>
</g>
<g clip-path="url(#a)">
<g transform="translate(1712 885.16) scale(.1 -.1)">
<use xlink:href="#d"/>
<use x="63.623047" xlink:href="#j"/>
<use x="95.410156" xlink:href="#d"/>
<use x="159.033203" xlink:href="#ai"/>
</g>
</g>
<g clip-path="url(#a)">
<g transform="translate(1121.9 885.16) scale(.1 -.1)">
<use xlink:href="#d"/>
<use x="63.623047" xlink:href="#j"/>
<use x="95.410156" xlink:href="#p"/>
<use x="159.033203" xlink:href="#d"/>
</g>
</g>
<g clip-path="url(#a)">
<g transform="translate(1192.8 885.16) scale(.1 -.1)">
<use xlink:href="#d"/>
<use x="63.623047" xlink:href="#j"/>
<use x="95.410156" xlink:href="#p"/>
<use x="159.033203" xlink:href="#p"/>
</g>
</g>
<g clip-path="url(#a)">
<g transform="translate(83.433 885.16) scale(.1 -.1)">
<use xlink:href="#d"/>
<use x="63.623047" xlink:href="#j"/>
<use x="95.410156" xlink:href="#p"/>
<use x="159.033203" xlink:href="#o"/>
</g>
</g>
<g clip-path="url(#a)">
<g transform="translate(130.64 885.16) scale(.1 -.1)">
<use xlink:href="#d"/>
<use x="63.623047" xlink:href="#j"/>
<use x="95.410156" xlink:href="#p"/>
<use x="159.033203" xlink:href="#m"/>
</g>
</g>
<g clip-path="url(#a)">
<g transform="translate(413.87 724.84) scale(.1 -.1)">
<use xlink:href="#d"/>
<use x="63.623047" xlink:href="#j"/>
<use x="95.410156" xlink:href="#p"/>
<use x="159.033203" xlink:href="#w"/>
</g>
</g>
<g clip-path="url(#a)">
<g transform="translate(794.13 396.6) scale(.1 -.1)">
<use xlink:href="#d"/>
<use x="63.623047" xlink:href="#j"/>
<use x="95.410156" xlink:href="#p"/>
<use x="159.033203" xlink:href="#ai"/>
</g>
</g>
<g clip-path="url(#a)">
<g transform="translate(697.1 885.16) scale(.1 -.1)">
<use xlink:href="#d"/>
<use x="63.623047" xlink:href="#j"/>
<use x="95.410156" xlink:href="#p"/>
<use x="159.033203" xlink:href="#ah"/>
</g>
</g>
<g clip-path="url(#a)">
<g transform="translate(744.3 885.16) scale(.1 -.1)">
<use xlink:href="#d"/>
<use x="63.623047" xlink:href="#j"/>
<use x="95.410156" xlink:href="#p"/>
<use x="159.033203" xlink:href="#ag"/>
</g>
</g>
<g clip-path="url(#a)">
<defs>
<path id="al" d="m10.984 1.5156v8.9844q3.7188-1.7656 7.5156-2.6875 3.8125-0.92188 7.4844-0.92188 9.7656 0 14.906 6.5625 5.1562 6.5625 5.8906 19.953-2.8281-4.2031-7.1875-6.4531-4.3438-2.25-9.6094-2.25-10.938 0-17.312 6.6094-6.375 6.625-6.375 18.109 0 11.219 6.6406 18 6.6406 6.7969 17.672 6.7969 12.656 0 19.312-9.7031 6.6719-9.6875 6.6719-28.141 0-17.234-8.1875-27.516-8.1719-10.281-21.984-10.281-3.7188 0-7.5312 0.73438-3.7969 0.73438-7.9062 2.2031zm19.625 30.906q6.6406 0 10.516 4.5312 3.8906 4.5469 3.8906 12.469 0 7.8594-3.8906 12.422-3.875 4.5625-10.516 4.5625t-10.516-4.5625-3.875-12.422q0-7.9219 3.875-12.469 3.875-4.5312 10.516-4.5312z"/>
</defs>
<g transform="translate(940.99 562.28) scale(.1 -.1)">
<use xlink:href="#d"/>
<use x="63.623047" xlink:href="#j"/>
<use x="95.410156" xlink:href="#p"/>
<use x="159.033203" xlink:href="#al"/>
</g>
</g>
<g clip-path="url(#a)">
<g transform="translate(838.71 724.84) scale(.1 -.1)">
<use xlink:href="#d"/>
<use x="63.623047" xlink:href="#j"/>
<use x="95.410156" xlink:href="#o"/>
<use x="159.033203" xlink:href="#aj"/>
</g>
</g>
<g clip-path="url(#a)">
<g transform="translate(956.73 724.84) scale(.1 -.1)">
<use xlink:href="#d"/>
<use x="63.623047" xlink:href="#j"/>
<use x="95.410156" xlink:href="#o"/>
<use x="159.033203" xlink:href="#d"/>
</g>
</g>
<g clip-path="url(#a)">
<g transform="translate(1027.5 885.16) scale(.1 -.1)">
<use xlink:href="#d"/>
<use x="63.623047" xlink:href="#j"/>
<use x="95.410156" xlink:href="#o"/>
<use x="159.033203" xlink:href="#p"/>
</g>
</g>
<g clip-path="url(#a)">
<g transform="translate(933.12 885.16) scale(.1 -.1)">
<use xlink:href="#d"/>
<use x="63.623047" xlink:href="#j"/>
<use x="95.410156" xlink:href="#o"/>
<use x="159.033203" xlink:href="#o"/>
</g>
</g>
<g clip-path="url(#a)">
<g transform="translate(980.33 885.16) scale(.1 -.1)">
<use xlink:href="#d"/>
<use x="63.623047" xlink:href="#j"/>
<use x="95.410156" xlink:href="#o"/>
<use x="159.033203" xlink:href="#m"/>
</g>
</g>
<g clip-path="url(#a)">
<g transform="translate(791.51 885.16) scale(.1 -.1)">
<use xlink:href="#d"/>
<use x="63.623047" xlink:href="#j"/>
<use x="95.410156" xlink:href="#o"/>
<use x="159.033203" xlink:href="#w"/>
</g>
</g>
<g clip-path="url(#a)">
<g transform="translate(838.71 885.16) scale(.1 -.1)">
<use xlink:href="#d"/>
<use x="63.623047" xlink:href="#j"/>
<use x="95.410156" xlink:href="#o"/>
<use x="159.033203" xlink:href="#ah"/>
</g>
</g>
<g clip-path="url(#a)">
<g transform="translate(885.92 885.16) scale(.1 -.1)">
<use xlink:href="#d"/>
<use x="63.623047" xlink:href="#j"/>
<use x="95.410156" xlink:href="#o"/>
<use x="159.033203" xlink:href="#ag"/>
</g>
</g>
<g clip-path="url(#a)">
<g transform="translate(272.25 885.16) scale(.1 -.1)">
<use xlink:href="#d"/>
<use x="63.623047" xlink:href="#j"/>
<use x="95.410156" xlink:href="#o"/>
<use x="159.033203" xlink:href="#al"/>
</g>
</g>
<g clip-path="url(#a)">
<g transform="translate(413.87 885.16) scale(.1 -.1)">
<use xlink:href="#d"/>
<use x="63.623047" xlink:href="#j"/>
<use x="95.410156" xlink:href="#m"/>
<use x="159.033203" xlink:href="#aj"/>
</g>
</g>
<g clip-path="url(#a)">
<g transform="translate(555.48 885.16) scale(.1 -.1)">
<use xlink:href="#d"/>
<use x="63.623047" xlink:href="#j"/>
<use x="95.410156" xlink:href="#m"/>
<use x="159.033203" xlink:href="#d"/>
</g>
</g>
<g clip-path="url(#a)">
<g transform="translate(177.84 885.16) scale(.1 -.1)">
<use xlink:href="#d"/>
<use x="63.623047" xlink:href="#j"/>
<use x="95.410156" xlink:href="#m"/>
<use x="159.033203" xlink:href="#p"/>
</g>
</g>
<g clip-path="url(#a)">
<g transform="translate(366.66 885.16) scale(.1 -.1)">
<use xlink:href="#d"/>
<use x="63.623047" xlink:href="#j"/>
<use x="95.410156" xlink:href="#m"/>
<use x="159.033203" xlink:href="#o"/>
</g>
</g>
<g clip-path="url(#a)">
<g transform="translate(461.07 885.16) scale(.1 -.1)">
<use xlink:href="#d"/>
<use x="63.623047" xlink:href="#j"/>
<use x="95.410156" xlink:href="#m"/>
<use x="159.033203" xlink:href="#m"/>
</g>
</g>
<g clip-path="url(#a)">
<g transform="translate(649.89 885.16) scale(.1 -.1)">
<use xlink:href="#d"/>
<use x="63.623047" xlink:href="#j"/>
<use x="95.410156" xlink:href="#m"/>
<use x="159.033203" xlink:href="#w"/>
</g>
</g>
<g clip-path="url(#a)">
<g transform="translate(962.69 53.371) scale(.1 -.1)">
<use xlink:href="#d"/>
<use x="63.623047" xlink:href="#j"/>
<use x="95.410156" xlink:href="#m"/>
<use x="159.033203" xlink:href="#ai"/>
</g>
</g>
<g clip-path="url(#a)">
<g transform="translate(1310.8 885.16) scale(.1 -.1)">
<use xlink:href="#d"/>
<use x="63.623047" xlink:href="#j"/>
<use x="95.410156" xlink:href="#m"/>
<use x="159.033203" xlink:href="#ah"/>
</g>
</g>
<g clip-path="url(#a)">
<g transform="translate(1546.8 885.16) scale(.1 -.1)">
<use xlink:href="#d"/>
<use x="63.623047" xlink:href="#j"/>
<use x="95.410156" xlink:href="#m"/>
<use x="159.033203" xlink:href="#ag"/>
</g>
</g>
<g clip-path="url(#a)">
<g transform="translate(1641.2 885.16) scale(.1 -.1)">
<use xlink:href="#d"/>
<use x="63.623047" xlink:href="#j"/>
<use x="95.410156" xlink:href="#m"/>
<use x="159.033203" xlink:href="#al"/>
</g>
</g>
<g clip-path="url(#a)">
<g transform="translate(1782.8 885.16) scale(.1 -.1)">
<use xlink:href="#d"/>
<use x="63.623047" xlink:href="#j"/>
<use x="95.410156" xlink:href="#w"/>
<use x="159.033203" xlink:href="#aj"/>
</g>
</g>
<g clip-path="url(#a)">
<g transform="translate(1971.6 885.16) scale(.1 -.1)">
<use xlink:href="#d"/>
<use x="63.623047" xlink:href="#j"/>
<use x="95.410156" xlink:href="#w"/>
<use x="159.033203" xlink:href="#d"/>
</g>
</g>
<defs>
<clipPath id="a">
<rect width="2077.3" height="1093.3"/>
</clipPath>
</defs>
</svg>
