<?xml version="1.0" encoding="UTF-8"?>
<!DOCTYPE svg  PUBLIC '-//W3C//DTD SVG 1.1//EN'  'http://www.w3.org/Graphics/SVG/1.1/DTD/svg11.dtd'>
<svg width="2077.3pt" height="1093.3pt" version="1.1" viewBox="0 0 2077.3 1093.3" xmlns="http://www.w3.org/2000/svg" xmlns:xlink="http://www.w3.org/1999/xlink">
<defs>
<style type="text/css">*{stroke-linecap:butt;stroke-linejoin:round;}</style>
</defs>
<path d="m0 1093.3h2077.3v-1093.3h-2077.3z" fill="#fff"/>
<g fill="none" stroke="#000">
<path d="m779.72 50.611-538.47 173.77" clip-path="url(#a)"/>
<path d="m779.72 50.611 486.77 343.23" clip-path="url(#a)"/>
<path d="m779.72 50.611 51.701 831.79" clip-path="url(#a)"/>
<path d="m241.25 224.38-146.69 658.02" clip-path="url(#a)"/>
<path d="m241.25 224.38-100.64 658.02" clip-path="url(#a)"/>
<path d="m241.25 224.38 247.33 169.46" clip-path="url(#a)"/>
<path d="m1266.5 393.84-335.29 328.24" clip-path="url(#a)"/>
<path d="m1266.5 393.84-204.8 488.56" clip-path="url(#a)"/>
<path d="m1266.5 393.84 217.36 165.68" clip-path="url(#a)"/>
<path d="m1266.5 393.84 322.73 165.68" clip-path="url(#a)"/>
<path d="m931.21 722.08-53.73 160.32" clip-path="url(#a)"/>
<path d="m931.21 722.08-7.6756 160.32" clip-path="url(#a)"/>
<path d="m931.21 722.08 61.405 160.32" clip-path="url(#a)"/>
<path d="m1061.7 882.4v160.32" clip-path="url(#a)"/>
<path d="m1483.9 559.52 498.92 483.2" clip-path="url(#a)"/>
<path d="m1483.9 559.52-307.03 162.55" clip-path="url(#a)"/>
<path d="m1483.9 559.52-191.89 322.88" clip-path="url(#a)"/>
<path d="m1589.2 559.52-251.2 322.88" clip-path="url(#a)"/>
<path d="m1589.2 559.52-159.1 322.88" clip-path="url(#a)"/>
<path d="m1589.2 559.52-113.04 322.88" clip-path="url(#a)"/>
<path d="m1589.2 559.52-66.987 322.88" clip-path="url(#a)"/>
<path d="m1589.2 559.52 71.174 162.55" clip-path="url(#a)"/>
<path d="m1589.2 559.52 25.12 322.88" clip-path="url(#a)"/>
<path d="m1589.2 559.52 71.174 322.88" clip-path="url(#a)"/>
<path d="m1589.2 559.52 301.44 162.55" clip-path="url(#a)"/>
<path d="m1589.2 559.52-205.15 322.88" clip-path="url(#a)"/>
<path d="m1589.2 559.52 117.23 322.88" clip-path="url(#a)"/>
<path d="m1589.2 559.52 209.34 322.88" clip-path="url(#a)"/>
<path d="m1338 882.4v160.32" clip-path="url(#a)"/>
<path d="m1430.1 882.4v160.32" clip-path="url(#a)"/>
<path d="m1476.2 882.4v160.32" clip-path="url(#a)"/>
<path d="m1522.2 882.4v160.32" clip-path="url(#a)"/>
<path d="m1660.4 722.08-92.108 160.32" clip-path="url(#a)"/>
<path d="m1660.4 722.08 92.108 160.32" clip-path="url(#a)"/>
<path d="m1614.3 882.4v160.32" clip-path="url(#a)"/>
<path d="m1660.4 882.4v160.32" clip-path="url(#a)"/>
<path d="m1890.7 722.08-46.054 160.32" clip-path="url(#a)"/>
<path d="m1890.7 722.08v160.32" clip-path="url(#a)"/>
<path d="m1890.7 722.08 46.054 160.32" clip-path="url(#a)"/>
<path d="m1844.6 882.4v160.32" clip-path="url(#a)"/>
<path d="m1890.7 882.4v160.32" clip-path="url(#a)"/>
<path d="m1568.3 882.4v160.32" clip-path="url(#a)"/>
<path d="m1752.5 882.4v160.32" clip-path="url(#a)"/>
<path d="m1176.8 722.08-69.081 160.32" clip-path="url(#a)"/>
<path d="m1176.8 722.08-23.027 160.32" clip-path="url(#a)"/>
<path d="m1176.8 722.08 23.027 160.32" clip-path="url(#a)"/>
<path d="m1176.8 722.08 69.081 160.32" clip-path="url(#a)"/>
<path d="m1292 882.4v160.32" clip-path="url(#a)"/>
<path d="m1107.7 882.4v160.32" clip-path="url(#a)"/>
<path d="m1153.8 882.4v160.32" clip-path="url(#a)"/>
<path d="m1199.9 882.4v160.32" clip-path="url(#a)"/>
<path d="m1245.9 882.4v160.32" clip-path="url(#a)"/>
<path d="m877.48 882.4v160.32" clip-path="url(#a)"/>
<path d="m923.53 882.4v160.32" clip-path="url(#a)"/>
<path d="m992.61 882.4-23.027 160.32" clip-path="url(#a)"/>
<path d="m992.61 882.4 23.027 160.32" clip-path="url(#a)"/>
<path d="m94.562 882.4v160.32" clip-path="url(#a)"/>
<path d="m140.62 882.4v160.32" clip-path="url(#a)"/>
<path d="m488.58 393.84-301.91 488.56" clip-path="url(#a)"/>
<path d="m488.58 393.84-125.37 165.68" clip-path="url(#a)"/>
<path d="m488.58 393.84 20.468 488.56" clip-path="url(#a)"/>
<path d="m488.58 393.84 66.522 488.56" clip-path="url(#a)"/>
<path d="m488.58 393.84 112.58 488.56" clip-path="url(#a)"/>
<path d="m488.58 393.84 227.71 328.24" clip-path="url(#a)"/>
<path d="m186.67 882.4v160.32" clip-path="url(#a)"/>
<path d="m363.21 559.52-107.46 162.55" clip-path="url(#a)"/>
<path d="m363.21 559.52 7.6756 162.55" clip-path="url(#a)"/>
<path d="m363.21 559.52 99.783 322.88" clip-path="url(#a)"/>
<path d="m509.05 882.4v160.32" clip-path="url(#a)"/>
<path d="m555.1 882.4v160.32" clip-path="url(#a)"/>
<path d="m601.15 882.4v160.32" clip-path="url(#a)"/>
<path d="m716.29 722.08-69.081 160.32" clip-path="url(#a)"/>
<path d="m716.29 722.08-23.027 160.32" clip-path="url(#a)"/>
<path d="m716.29 722.08 69.081 160.32" clip-path="url(#a)"/>
<path d="m716.29 722.08 23.027 160.32" clip-path="url(#a)"/>
<path d="m647.21 882.4v160.32" clip-path="url(#a)"/>
<path d="m693.26 882.4v160.32" clip-path="url(#a)"/>
<path d="m785.37 882.4v160.32" clip-path="url(#a)"/>
<path d="m255.75 722.08-23.027 160.32" clip-path="url(#a)"/>
<path d="m255.75 722.08 23.027 160.32" clip-path="url(#a)"/>
<path d="m370.89 722.08-46.054 160.32" clip-path="url(#a)"/>
<path d="m370.89 722.08 46.054 160.32" clip-path="url(#a)"/>
<path d="m370.89 722.08v160.32" clip-path="url(#a)"/>
<path d="m462.99 882.4v160.32" clip-path="url(#a)"/>
<path d="m324.83 882.4v160.32" clip-path="url(#a)"/>
<path d="m416.94 882.4v160.32" clip-path="url(#a)"/>
<path d="m370.89 882.4v160.32" clip-path="url(#a)"/>
<path d="m232.72 882.4v160.32" clip-path="url(#a)"/>
<path d="m278.78 882.4v160.32" clip-path="url(#a)"/>
<path d="m739.32 882.4v160.32" clip-path="url(#a)"/>
<path d="m831.42 882.4v160.32" clip-path="url(#a)"/>
<path d="m1384.1 882.4v160.32" clip-path="url(#a)"/>
<path d="m1706.4 882.4v160.32" clip-path="url(#a)"/>
<path d="m1798.6 882.4v160.32" clip-path="url(#a)"/>
<path d="m1936.7 882.4v160.32" clip-path="url(#a)"/>
</g>
<path d="m509.55 144.39 5.7255-1.8477q2.284-0.73708 1.5469-3.0211l-2.3779-7.3683q-0.73708-2.284-3.0211-1.5469l-5.7255 1.8477q-2.284 0.73708-1.5469 3.0211l2.3779 7.3683q0.73708 2.284 3.0211 1.5469z" clip-path="url(#a)" fill="#fff" stroke="#fff"/>
<g clip-path="url(#a)">
<defs>
<path id="aq" d="m9.8125 72.906h9.8594v-29.891h35.844v29.891h9.8594v-72.906h-9.8594v34.719h-35.844v-34.719h-9.8594z"/>
</defs>
<g transform="translate(508.3 140.52) rotate(-17.886) scale(.08 -.08)">
<use xlink:href="#aq"/>
</g>
</g>
<path d="m1017 225.62 4.9169 3.467q1.9614 1.383 3.3445-0.57839l4.4617-6.3277q1.383-1.9614-0.57839-3.3445l-4.9169-3.467q-1.9614-1.383-3.3445 0.57839l-4.4617 6.3277q-1.383 1.9614 0.57839 3.3445z" clip-path="url(#a)" fill="#fff" stroke="#fff"/>
<g clip-path="url(#a)">
<g transform="translate(1019.4 222.3) rotate(35.188) scale(.08 -.08)">
<use xlink:href="#aq"/>
</g>
</g>
<path d="m799.13 463.97 0.36322 5.8437q0.14889 2.3954 2.5443 2.2465l7.7276-0.48032q2.3954-0.14889 2.2465-2.5443l-0.36322-5.8437q-0.14889-2.3954-2.5443-2.2465l-7.7276 0.48032q-2.3954 0.14889-2.2465 2.5443z" clip-path="url(#a)" fill="#fff" stroke="#fff"/>
<g clip-path="url(#a)">
<defs>
<path id="y" d="m8.6875 72.906h9.9219v-44.297q0-11.719 4.2344-16.875 4.25-5.1406 13.781-5.1406 9.4688 0 13.719 5.1406 4.25 5.1562 4.25 16.875v44.297h9.9062v-45.516q0-14.25-7.0625-21.531-7.0469-7.2812-20.812-7.2812-13.828 0-20.891 7.2812-7.0469 7.2812-7.0469 21.531z"/>
</defs>
<g transform="translate(803.19 463.72) rotate(86.443) scale(.08 -.08)">
<use xlink:href="#y"/>
</g>
</g>
<path d="m173.43 557.43 1.1907-5.3414q0.52221-2.3425-1.8203-2.8647l-7.557-1.6847q-2.3425-0.52221-2.8647 1.8203l-1.1907 5.3414q-0.52221 2.3425 1.8203 2.8647l7.557 1.6847q2.3425 0.52221 2.8647-1.8203z" clip-path="url(#a)" fill="#fff" stroke="#fff"/>
<g clip-path="url(#a)">
<defs>
<path id="o" d="m34.188 63.188-13.391-36.281h26.812zm-5.5781 9.7188h11.188l27.781-72.906h-10.25l-6.6406 18.703h-32.859l-6.6406-18.703h-10.406z"/>
</defs>
<g transform="translate(169.47 556.54) rotate(-77.433) scale(.08 -.08)">
<use xlink:href="#o"/>
</g>
</g>
<path d="m196.77 556.72 0.72926-4.7683q0.36283-2.3724-2.0096-2.7352l-7.6535-1.1705q-2.3724-0.36283-2.7352 2.0096l-0.72926 4.7683q-0.36283 2.3724 2.0096 2.7352l7.6535 1.1705q2.3724 0.36283 2.7352-2.0096z" clip-path="url(#a)" fill="#fff" stroke="#fff"/>
<g clip-path="url(#a)">
<defs>
<path id="z" d="m19.672 64.797v-27.391h12.406q6.8906 0 10.641 3.5625 3.7656 3.5625 3.7656 10.156 0 6.5469-3.7656 10.109-3.75 3.5625-10.641 3.5625zm-9.8594 8.1094h22.266q12.266 0 18.531-5.5469 6.2812-5.5469 6.2812-16.234 0-10.797-6.2812-16.312-6.2656-5.5156-18.531-5.5156h-12.406v-29.297h-9.8594z"/>
</defs>
<g transform="translate(192.75 556.11) rotate(-81.305) scale(.08 -.08)">
<use xlink:href="#z"/>
</g>
</g>
<path d="m359.11 312.74 4.5145 3.0932q1.9799 1.3565 3.3364-0.62334l4.3762-6.3871q1.3565-1.9799-0.62334-3.3364l-4.5145-3.0932q-1.9799-1.3565-3.3364 0.62334l-4.3762 6.3871q-1.3565 1.9799 0.62334 3.3364z" clip-path="url(#a)" fill="#fff" stroke="#fff"/>
<g clip-path="url(#a)">
<g transform="translate(361.41 309.39) rotate(34.417) scale(.08 -.08)">
<use xlink:href="#o"/>
</g>
</g>
<path d="m1101.3 564.35 3.9105-3.8283q1.715-1.6789 0.036062-3.3939l-5.4163-5.5326q-1.6789-1.715-3.3939-0.036062l-3.9105 3.8283q-1.715 1.6789-0.036062 3.3939l5.4163 5.5326q1.6789 1.715 3.3939 0.036062z" clip-path="url(#a)" fill="#fff" stroke="#fff"/>
<g clip-path="url(#a)">
<g transform="translate(1098.4 561.45) rotate(-44.391) scale(.08 -.08)">
<use xlink:href="#o"/>
</g>
</g>
<path d="m1168.9 642.77 1.8649-4.4487q0.92784-2.2134-1.2856-3.1412l-7.1405-2.9932q-2.2134-0.92784-3.1412 1.2856l-1.8649 4.4487q-0.92784 2.2134 1.2856 3.1412l7.1405 2.9932q2.2134 0.92784 3.1412-1.2856z" clip-path="url(#a)" fill="#fff" stroke="#fff"/>
<g clip-path="url(#a)">
<g transform="translate(1165.2 641.2) rotate(-67.257) scale(.08 -.08)">
<use xlink:href="#z"/>
</g>
</g>
<path d="m1369.2 480.01 4.3523 3.3175q1.9087 1.4549 3.3636-0.4538l4.6936-6.1576q1.4549-1.9087-0.4538-3.3636l-4.3523-3.3175q-1.9087-1.4549-3.3636 0.4538l-4.6936 6.1576q-1.4549 1.9087 0.4538 3.3636z" clip-path="url(#a)" fill="#fff" stroke="#fff"/>
<g clip-path="url(#a)">
<g transform="translate(1371.7 476.78) rotate(37.316) scale(.08 -.08)">
<use xlink:href="#o"/>
</g>
</g>
<path d="m1422.6 481.01 4.8684 2.4994q2.1351 1.0961 3.2312-1.039l3.5361-6.8878q1.0961-2.1351-1.039-3.2312l-4.8684-2.4994q-2.1351-1.0961-3.2312 1.039l-3.5361 6.8878q-1.0961 2.1351 1.039 3.2312z" clip-path="url(#a)" fill="#fff" stroke="#fff"/>
<g clip-path="url(#a)">
<g transform="translate(1424.4 477.4) rotate(27.175) scale(.08 -.08)">
<use xlink:href="#o"/>
</g>
</g>
<path d="m909.42 806.83 1.739-5.1889q0.76263-2.2756-1.513-3.0382l-7.3412-2.4603q-2.2756-0.76263-3.0382 1.513l-1.739 5.1889q-0.76263 2.2756 1.513 3.0382l7.3412 2.4603q2.2756 0.76263 3.0382-1.513z" clip-path="url(#a)" fill="#fff" stroke="#fff"/>
<g clip-path="url(#a)">
<g transform="translate(905.57 805.53) rotate(-71.472) scale(.08 -.08)">
<use xlink:href="#o"/>
</g>
</g>
<path d="m933.51 805.07 0.24287-5.0729q0.11477-2.3973-2.2825-2.512l-7.7336-0.37026q-2.3973-0.11477-2.512 2.2825l-0.24287 5.0729q-0.11477 2.3973 2.2825 2.512l7.7336 0.37026q2.3973 0.11477 2.512-2.2825z" clip-path="url(#a)" fill="#fff" stroke="#fff"/>
<g clip-path="url(#a)">
<defs>
<path id="al" d="m53.516 70.516v-9.625q-5.6094 2.6875-10.594 4-4.9844 1.3281-9.625 1.3281-8.0469 0-12.422-3.125t-4.375-8.8906q0-4.8438 2.9062-7.3125 2.9062-2.4531 11.016-3.9688l5.9531-1.2188q11.031-2.1094 16.281-7.4062t5.25-14.172q0-10.609-7.1094-16.078-7.0938-5.4688-20.812-5.4688-5.1719 0-11.016 1.1719-5.8281 1.1719-12.078 3.4688v10.156q6-3.3594 11.766-5.0781 5.7656-1.7031 11.328-1.7031 8.4375 0 13.031 3.3125 4.5938 3.3281 4.5938 9.4844 0 5.3594-3.2969 8.3906t-10.812 4.5469l-6.0156 1.1719q-11.031 2.1875-15.969 6.875-4.9219 4.6875-4.9219 13.047 0 9.6719 6.8125 15.234t18.766 5.5625q5.1406 0 10.453-0.9375 5.3281-0.92188 10.891-2.7656z"/>
</defs>
<g transform="translate(929.45 804.88) rotate(-87.259) scale(.08 -.08)">
<use xlink:href="#al"/>
</g>
</g>
<path d="m955.08 801.93 1.9574 5.1105q0.85842 2.2412 3.0996 1.3828l7.2303-2.7693q2.2412-0.85841 1.3828-3.0996l-1.9574-5.1105q-0.85841-2.2412-3.0996-1.3828l-7.2303 2.7693q-2.2412 0.85842-1.3828 3.0996z" clip-path="url(#a)" fill="#fff" stroke="#fff"/>
<g clip-path="url(#a)">
<g transform="translate(958.87 800.47) rotate(69.043) scale(.08 -.08)">
<use xlink:href="#o"/>
</g>
</g>
<path d="m1055.4 944.92v35.285q0 2.4 2.4 2.4h7.7425q2.4 0 2.4-2.4v-35.285q0-2.4-2.4-2.4h-7.7425q-2.4 0-2.4 2.4z" clip-path="url(#a)" fill="#fff" stroke="#fff"/>
<g clip-path="url(#a)">
<defs>
<path id="l" d="m-0.29688 72.906h61.672v-8.3125h-25.875v-64.594h-9.9062v64.594h-25.891z"/>
<path id="d" d="m56.203 29.594v-4.3906h-41.312q0.59375-9.2812 5.5938-14.141t13.938-4.8594q5.1719 0 10.031 1.2656t9.6562 3.8125v-8.5q-4.8438-2.0469-9.9219-3.125t-10.297-1.0781q-13.094 0-20.734 7.6094-7.6406 7.625-7.6406 20.625 0 13.422 7.25 21.297 7.25 7.8906 19.562 7.8906 11.031 0 17.453-7.1094 6.4219-7.0938 6.4219-19.297zm-8.9844 2.6406q-0.09375 7.3594-4.125 11.75-4.0312 4.4062-10.672 4.4062-7.5156 0-12.031-4.25t-5.2031-11.969z"/>
<path id="i" d="m41.109 46.297q-1.5156 0.875-3.2969 1.2812-1.7812 0.42188-3.9219 0.42188-7.625 0-11.703-4.9531t-4.0781-14.234v-28.812h-9.0312v54.688h9.0312v-8.5q2.8438 4.9844 7.375 7.3906 4.5469 2.4219 11.047 2.4219 0.92188 0 2.0469-0.125 1.125-0.10938 2.4844-0.35938z"/>
<path id="j" d="m52 44.188q3.375 6.0625 8.0625 8.9375t11.031 2.875q8.5469 0 13.188-5.9844 4.6406-5.9688 4.6406-17v-33.016h-9.0312v32.719q0 7.8594-2.7969 11.656-2.7812 3.8125-8.4844 3.8125-6.9844 0-11.047-4.6406-4.0469-4.625-4.0469-12.641v-30.906h-9.0312v32.719q0 7.9062-2.7812 11.688t-8.5938 3.7812q-6.8906 0-10.953-4.6562-4.0469-4.6562-4.0469-12.625v-30.906h-9.0312v54.688h9.0312v-8.5q3.0781 5.0312 7.375 7.4219t10.203 2.3906q5.9688 0 10.141-3.0312 4.1719-3.0156 6.1719-8.7812z"/>
<path id="h" d="m9.4219 54.688h8.9844v-54.688h-8.9844zm0 21.297h8.9844v-11.391h-8.9844z"/>
<path id="e" d="m54.891 33.016v-33.016h-8.9844v32.719q0 7.7656-3.0312 11.609-3.0312 3.8594-9.0781 3.8594-7.2812 0-11.484-4.6406-4.2031-4.625-4.2031-12.641v-30.906h-9.0312v54.688h9.0312v-8.5q3.2344 4.9375 7.5938 7.375 4.375 2.4375 10.094 2.4375 9.4219 0 14.25-5.8281 4.8438-5.8281 4.8438-17.156z"/>
<path id="f" d="m34.281 27.484q-10.891 0-15.094-2.4844t-4.2031-8.5q0-4.7812 3.1562-7.5938 3.1562-2.7969 8.5625-2.7969 7.4844 0 12 5.2969t4.5156 14.078v2zm17.922 3.7188v-31.203h-8.9844v8.2969q-3.0781-4.9688-7.6719-7.3438t-11.234-2.375q-8.3906 0-13.359 4.7188-4.9531 4.7188-4.9531 12.625 0 9.2188 6.1719 13.906 6.1875 4.6875 18.438 4.6875h12.609v0.89062q0 6.2031-4.0781 9.5938t-11.453 3.3906q-4.6875 0-9.1406-1.125-4.4375-1.125-8.5312-3.375v8.3125q4.9219 1.9062 9.5625 2.8438 4.6406 0.95312 9.0312 0.95312 11.875 0 17.734-6.1562 5.8594-6.1406 5.8594-18.641z"/>
<path id="k" d="m9.4219 75.984h8.9844v-75.984h-8.9844z"/>
</defs>
<g transform="translate(1059.5 944.92) rotate(90) scale(.08 -.08)">
<use xlink:href="#l"/>
<use x="60.818359" xlink:href="#d"/>
<use x="122.341797" xlink:href="#i"/>
<use x="163.439453" xlink:href="#j"/>
<use x="260.851562" xlink:href="#h"/>
<use x="288.634766" xlink:href="#e"/>
<use x="352.013672" xlink:href="#f"/>
<use x="413.292969" xlink:href="#k"/>
</g>
</g>
<path d="m1727.2 803.95 3.4651 3.3559q1.724 1.6697 3.3937-0.054316l5.3865-5.5617q1.6697-1.724-0.054316-3.3937l-3.4651-3.3559q-1.724-1.6697-3.3937 0.054316l-5.3865 5.5617q-1.6697 1.724 0.054315 3.3937z" clip-path="url(#a)" fill="#fff" stroke="#fff"/>
<g clip-path="url(#a)">
<g transform="translate(1730 801.03) rotate(44.083) scale(.08 -.08)">
<use xlink:href="#z"/>
</g>
</g>
<path d="m1331.1 647.49 4.3184-2.2863q2.1211-1.123 0.99808-3.244l-3.6228-6.8426q-1.123-2.1211-3.244-0.99808l-4.3184 2.2863q-2.1211 1.123-0.99808 3.244l3.6228 6.8426q1.123 2.1211 3.244 0.99808z" clip-path="url(#a)" fill="#fff" stroke="#fff"/>
<g clip-path="url(#a)">
<g transform="translate(1329.2 643.89) rotate(-27.899) scale(.08 -.08)">
<use xlink:href="#l"/>
</g>
</g>
<path d="m1391.9 726.52 2.7959-4.7044q1.2262-2.0631-0.83698-3.2893l-6.6558-3.9556q-2.0631-1.2262-3.2893 0.83698l-2.7959 4.7044q-1.2262 2.0631 0.83697 3.2893l6.6558 3.9556q2.0631 1.2262 3.2893-0.83698z" clip-path="url(#a)" fill="#fff" stroke="#fff"/>
<g clip-path="url(#a)">
<g transform="translate(1388.4 724.44) rotate(-59.276) scale(.08 -.08)">
<use xlink:href="#o"/>
</g>
</g>
<path d="m1466.9 727.01 3.4134-4.3873q1.4737-1.8942-0.42048-3.368l-6.1108-4.7543q-1.8942-1.4737-3.368 0.42048l-3.4134 4.3873q-1.4737 1.8942 0.42048 3.368l6.1108 4.7543q1.8942 1.4737 3.368-0.42048z" clip-path="url(#a)" fill="#fff" stroke="#fff"/>
<g clip-path="url(#a)">
<defs>
<path id="aa" d="m44.391 34.188q3.1719-1.0781 6.1719-4.5938t6.0312-9.6719l10.016-19.922h-10.609l-9.3125 18.703q-3.625 7.3281-7.0156 9.7188t-9.25 2.3906h-10.75v-30.812h-9.8594v72.906h22.266q12.5 0 18.656-5.2344 6.1562-5.2188 6.1562-15.766 0-6.8906-3.2031-11.438-3.2031-4.5312-9.2969-6.2812zm-24.719 30.609v-25.875h12.406q7.125 0 10.766 3.2969t3.6406 9.6875-3.6406 9.6406-10.766 3.25z"/>
</defs>
<g transform="translate(1463.7 724.51) rotate(-52.116) scale(.08 -.08)">
<use xlink:href="#aa"/>
</g>
</g>
<path d="m1514.1 726.19 2.4188-4.9089q1.0608-2.1528-1.092-3.2136l-6.9451-3.4222q-2.1528-1.0608-3.2136 1.092l-2.4188 4.9089q-1.0608 2.1528 1.092 3.2136l6.9451 3.4222q2.1528 1.0608 3.2136-1.092z" clip-path="url(#a)" fill="#fff" stroke="#fff"/>
<g clip-path="url(#a)">
<g transform="translate(1510.4 724.39) rotate(-63.768) scale(.08 -.08)">
<use xlink:href="#o"/>
</g>
</g>
<path d="m1537.6 725.94 2.0355-5.814q0.79306-2.2652-1.4721-3.0582l-7.3076-2.5584q-2.2652-0.79306-3.0582 1.4721l-2.0355 5.814q-0.79306 2.2652 1.4721 3.0582l7.3076 2.5584q2.2652 0.79306 3.0582-1.4721z" clip-path="url(#a)" fill="#fff" stroke="#fff"/>
<g clip-path="url(#a)">
<defs>
<path id="aj" d="m19.672 64.797v-56.688h11.922q15.094 0 22.094 6.8281 7 6.8438 7 21.594 0 14.641-7 21.453t-22.094 6.8125zm-9.8594 8.1094h20.266q21.188 0 31.094-8.8125 9.9219-8.8125 9.9219-27.562 0-18.859-9.9688-27.703-9.9531-8.8281-31.047-8.8281h-20.266z"/>
</defs>
<g transform="translate(1533.8 724.6) rotate(-70.704) scale(.08 -.08)">
<use xlink:href="#aj"/>
</g>
</g>
<path d="m1561.4 724.49 0.93472-4.5053q0.48755-2.35-1.8624-2.8375l-7.5811-1.5729q-2.35-0.48755-2.8375 1.8624l-0.93472 4.5053q-0.48755 2.35 1.8624 2.8375l7.5811 1.5729q2.35 0.48755 2.8375-1.8624z" clip-path="url(#a)" fill="#fff" stroke="#fff"/>
<g clip-path="url(#a)">
<defs>
<path id="ai" d="m9.8125 72.906h41.891v-8.3125h-32.031v-21.484h28.906v-8.2969h-28.906v-34.812h-9.8594z"/>
</defs>
<g transform="translate(1557.4 723.66) rotate(-78.279) scale(.08 -.08)">
<use xlink:href="#ai"/>
</g>
</g>
<path d="m1618.1 641.11 1.9348 4.4187q0.96262 2.1985 3.1611 1.2359l7.0924-3.1054q2.1985-0.96262 1.2359-3.1611l-1.9348-4.4187q-0.96262-2.1985-3.1611-1.2359l-7.0924 3.1054q-2.1985 0.96262-1.2359 3.1611z" clip-path="url(#a)" fill="#fff" stroke="#fff"/>
<g clip-path="url(#a)">
<g transform="translate(1621.8 639.48) rotate(66.354) scale(.08 -.08)">
<use xlink:href="#z"/>
</g>
</g>
<path d="m1595.3 718.38 0.47782 6.1414q0.18616 2.3928 2.5789 2.2066l7.7192-0.60056q2.3928-0.18616 2.2066-2.5789l-0.47782-6.1414q-0.18616-2.3928-2.5789-2.2066l-7.7192 0.60056q-2.3928 0.18616-2.2066 2.5789z" clip-path="url(#a)" fill="#fff" stroke="#fff"/>
<g clip-path="url(#a)">
<g transform="translate(1599.3 718.06) rotate(85.551) scale(.08 -.08)">
<use xlink:href="#aj"/>
</g>
</g>
<path d="m1618 719.3 1.3261 6.0156q0.51665 2.3437 2.8604 1.8271l7.561-1.6667q2.3437-0.51665 1.8271-2.8604l-1.3261-6.0156q-0.51665-2.3437-2.8604-1.8271l-7.561 1.6667q-2.3437 0.51665-1.8271 2.8604z" clip-path="url(#a)" fill="#fff" stroke="#fff"/>
<g clip-path="url(#a)">
<g transform="translate(1622 718.43) rotate(77.569) scale(.08 -.08)">
<use xlink:href="#aj"/>
</g>
</g>
<path d="m1734.6 645.02 4.8168 2.5974q2.1124 1.1391 3.2516-0.97331l3.6749-6.8148q1.1391-2.1124-0.97331-3.2516l-4.8168-2.5974q-2.1124-1.1391-3.2516 0.97331l-3.6749 6.8148q-1.1391 2.1124 0.97331 3.2516z" clip-path="url(#a)" fill="#fff" stroke="#fff"/>
<g clip-path="url(#a)">
<g transform="translate(1736.5 641.44) rotate(28.336) scale(.08 -.08)">
<use xlink:href="#o"/>
</g>
</g>
<path d="m1490.4 726.8 3.1399-4.9418q1.2871-2.0257-0.7386-3.3128l-6.535-4.1522q-2.0257-1.2871-3.3128 0.7386l-3.14 4.9418q-1.2871 2.0257 0.7386 3.3128l6.535 4.1522q2.0257 1.2871 3.3128-0.7386z" clip-path="url(#a)" fill="#fff" stroke="#fff"/>
<g clip-path="url(#a)">
<g transform="translate(1486.9 724.62) rotate(-57.569) scale(.08 -.08)">
<use xlink:href="#y"/>
</g>
</g>
<path d="m1640.9 720.35 1.9982 5.5035q0.81906 2.2559 3.075 1.4368l7.2777-2.6423q2.2559-0.81906 1.4368-3.075l-1.9982-5.5035q-0.81906-2.2559-3.075-1.4368l-7.2777 2.6423q-2.2559 0.81906-1.4368 3.075z" clip-path="url(#a)" fill="#fff" stroke="#fff"/>
<g clip-path="url(#a)">
<g transform="translate(1644.8 718.96) rotate(70.045) scale(.08 -.08)">
<use xlink:href="#y"/>
</g>
</g>
<path d="m1687 721.92 3.1852 4.9128q1.3056 2.0138 3.3194 0.70815l6.4965-4.212q2.0138-1.3056 0.70815-3.3194l-3.1852-4.9128q-1.3056-2.0138-3.3194-0.70815l-6.4965 4.212q-2.0138 1.3056-0.70815 3.3194z" clip-path="url(#a)" fill="#fff" stroke="#fff"/>
<g clip-path="url(#a)">
<g transform="translate(1690.4 719.71) rotate(57.043) scale(.08 -.08)">
<use xlink:href="#y"/>
</g>
</g>
<path d="m1331.7 944.92v35.285q0 2.4 2.4 2.4h7.7425q2.4 0 2.4-2.4v-35.285q0-2.4-2.4-2.4h-7.7425q-2.4 0-2.4 2.4z" clip-path="url(#a)" fill="#fff" stroke="#fff"/>
<g clip-path="url(#a)">
<g transform="translate(1335.8 944.92) rotate(90) scale(.08 -.08)">
<use xlink:href="#l"/>
<use x="60.818359" xlink:href="#d"/>
<use x="122.341797" xlink:href="#i"/>
<use x="163.439453" xlink:href="#j"/>
<use x="260.851562" xlink:href="#h"/>
<use x="288.634766" xlink:href="#e"/>
<use x="352.013672" xlink:href="#f"/>
<use x="413.292969" xlink:href="#k"/>
</g>
</g>
<path d="m1423.9 944.92v35.285q0 2.4 2.4 2.4h7.7425q2.4 0 2.4-2.4v-35.285q0-2.4-2.4-2.4h-7.7425q-2.4 0-2.4 2.4z" clip-path="url(#a)" fill="#fff" stroke="#fff"/>
<g clip-path="url(#a)">
<g transform="translate(1427.9 944.92) rotate(90) scale(.08 -.08)">
<use xlink:href="#l"/>
<use x="60.818359" xlink:href="#d"/>
<use x="122.341797" xlink:href="#i"/>
<use x="163.439453" xlink:href="#j"/>
<use x="260.851562" xlink:href="#h"/>
<use x="288.634766" xlink:href="#e"/>
<use x="352.013672" xlink:href="#f"/>
<use x="413.292969" xlink:href="#k"/>
</g>
</g>
<path d="m1469.9 944.92v35.285q0 2.4 2.4 2.4h7.7425q2.4 0 2.4-2.4v-35.285q0-2.4-2.4-2.4h-7.7425q-2.4 0-2.4 2.4z" clip-path="url(#a)" fill="#fff" stroke="#fff"/>
<g clip-path="url(#a)">
<g transform="translate(1474 944.92) rotate(90) scale(.08 -.08)">
<use xlink:href="#l"/>
<use x="60.818359" xlink:href="#d"/>
<use x="122.341797" xlink:href="#i"/>
<use x="163.439453" xlink:href="#j"/>
<use x="260.851562" xlink:href="#h"/>
<use x="288.634766" xlink:href="#e"/>
<use x="352.013672" xlink:href="#f"/>
<use x="413.292969" xlink:href="#k"/>
</g>
</g>
<path d="m1516 944.92v35.285q0 2.4 2.4 2.4h7.7425q2.4 0 2.4-2.4v-35.285q0-2.4-2.4-2.4h-7.7425q-2.4 0-2.4 2.4z" clip-path="url(#a)" fill="#fff" stroke="#fff"/>
<g clip-path="url(#a)">
<g transform="translate(1520 944.92) rotate(90) scale(.08 -.08)">
<use xlink:href="#l"/>
<use x="60.818359" xlink:href="#d"/>
<use x="122.341797" xlink:href="#i"/>
<use x="163.439453" xlink:href="#j"/>
<use x="260.851562" xlink:href="#h"/>
<use x="288.634766" xlink:href="#e"/>
<use x="352.013672" xlink:href="#f"/>
<use x="413.292969" xlink:href="#k"/>
</g>
</g>
<path d="m1618.6 807.36 2.2921-3.9897q1.1956-2.081-0.88544-3.2766l-6.7134-3.857q-2.081-1.1956-3.2766 0.88544l-2.2921 3.9897q-1.1956 2.081 0.88544 3.2766l6.7134 3.857q2.081 1.1956 3.2766-0.88544z" clip-path="url(#a)" fill="#fff" stroke="#fff"/>
<g clip-path="url(#a)">
<g transform="translate(1615.1 805.33) rotate(-60.122) scale(.08 -.08)">
<use xlink:href="#ai"/>
</g>
</g>
<path d="m1699.6 802.94 2.7828 4.8438q1.1956 2.081 3.2766 0.88544l6.7134-3.857q2.081-1.1956 0.88544-3.2766l-2.7828-4.8438q-1.1956-2.081-3.2766-0.88544l-6.7134 3.857q-2.081 1.1956-0.88544 3.2766z" clip-path="url(#a)" fill="#fff" stroke="#fff"/>
<g clip-path="url(#a)">
<defs>
<path id="u" d="m64.406 67.281v-10.391q-4.9844 4.6406-10.625 6.9219-5.6406 2.2969-11.984 2.2969-12.5 0-19.141-7.6406t-6.6406-22.094q0-14.406 6.6406-22.047t19.141-7.6406q6.3438 0 11.984 2.2969t10.625 6.9375v-10.312q-5.1719-3.5156-10.969-5.2812-5.7812-1.75-12.219-1.75-16.562 0-26.094 10.125-9.5156 10.141-9.5156 27.672 0 17.578 9.5156 27.703 9.5312 10.141 26.094 10.141 6.5312 0 12.312-1.7344 5.7969-1.7344 10.875-5.2031z"/>
</defs>
<g transform="translate(1703.1 800.92) rotate(60.122) scale(.08 -.08)">
<use xlink:href="#u"/>
</g>
</g>
<path d="m1608.1 944.92v35.285q0 2.4 2.4 2.4h7.7425q2.4 0 2.4-2.4v-35.285q0-2.4-2.4-2.4h-7.7425q-2.4 0-2.4 2.4z" clip-path="url(#a)" fill="#fff" stroke="#fff"/>
<g clip-path="url(#a)">
<g transform="translate(1612.1 944.92) rotate(90) scale(.08 -.08)">
<use xlink:href="#l"/>
<use x="60.818359" xlink:href="#d"/>
<use x="122.341797" xlink:href="#i"/>
<use x="163.439453" xlink:href="#j"/>
<use x="260.851562" xlink:href="#h"/>
<use x="288.634766" xlink:href="#e"/>
<use x="352.013672" xlink:href="#f"/>
<use x="413.292969" xlink:href="#k"/>
</g>
</g>
<path d="m1654.1 944.92v35.285q0 2.4 2.4 2.4h7.7425q2.4 0 2.4-2.4v-35.285q0-2.4-2.4-2.4h-7.7425q-2.4 0-2.4 2.4z" clip-path="url(#a)" fill="#fff" stroke="#fff"/>
<g clip-path="url(#a)">
<g transform="translate(1658.2 944.92) rotate(90) scale(.08 -.08)">
<use xlink:href="#l"/>
<use x="60.818359" xlink:href="#d"/>
<use x="122.341797" xlink:href="#i"/>
<use x="163.439453" xlink:href="#j"/>
<use x="260.851562" xlink:href="#h"/>
<use x="288.634766" xlink:href="#e"/>
<use x="352.013672" xlink:href="#f"/>
<use x="413.292969" xlink:href="#k"/>
</g>
</g>
<path d="m1872.9 806.64 1.5347-5.3427q0.66262-2.3067-1.6441-2.9693l-7.4416-2.1376q-2.3067-0.66262-2.9693 1.6441l-1.5347 5.3427q-0.66262 2.3067 1.6441 2.9693l7.4416 2.1376q2.3067 0.66262 2.9693-1.6441z" clip-path="url(#a)" fill="#fff" stroke="#fff"/>
<g clip-path="url(#a)">
<g transform="translate(1869 805.52) rotate(-73.973) scale(.08 -.08)">
<use xlink:href="#aa"/>
</g>
</g>
<path d="m1884.4 799.44v5.5862q0 2.4 2.4 2.4h7.7425q2.4 0 2.4-2.4v-5.5862q0-2.4-2.4-2.4h-7.7425q-2.4 0-2.4 2.4z" clip-path="url(#a)" fill="#fff" stroke="#fff"/>
<g clip-path="url(#a)">
<g transform="translate(1888.5 799.44) rotate(90) scale(.08 -.08)">
<use xlink:href="#u"/>
</g>
</g>
<path d="m1906.9 801.16 1.6165 5.6274q0.66262 2.3067 2.9693 1.6441l7.4416-2.1376q2.3067-0.66262 1.6441-2.9693l-1.6165-5.6274q-0.66262-2.3067-2.9693-1.6441l-7.4416 2.1376q-2.3067 0.66262-1.6441 2.9693z" clip-path="url(#a)" fill="#fff" stroke="#fff"/>
<g clip-path="url(#a)">
<g transform="translate(1910.8 800.03) rotate(73.973) scale(.08 -.08)">
<use xlink:href="#y"/>
</g>
</g>
<path d="m1838.3 944.92v35.285q0 2.4 2.4 2.4h7.7425q2.4 0 2.4-2.4v-35.285q0-2.4-2.4-2.4h-7.7425q-2.4 0-2.4 2.4z" clip-path="url(#a)" fill="#fff" stroke="#fff"/>
<g clip-path="url(#a)">
<g transform="translate(1842.4 944.92) rotate(90) scale(.08 -.08)">
<use xlink:href="#l"/>
<use x="60.818359" xlink:href="#d"/>
<use x="122.341797" xlink:href="#i"/>
<use x="163.439453" xlink:href="#j"/>
<use x="260.851562" xlink:href="#h"/>
<use x="288.634766" xlink:href="#e"/>
<use x="352.013672" xlink:href="#f"/>
<use x="413.292969" xlink:href="#k"/>
</g>
</g>
<path d="m1884.4 944.92v35.285q0 2.4 2.4 2.4h7.7425q2.4 0 2.4-2.4v-35.285q0-2.4-2.4-2.4h-7.7425q-2.4 0-2.4 2.4z" clip-path="url(#a)" fill="#fff" stroke="#fff"/>
<g clip-path="url(#a)">
<g transform="translate(1888.5 944.92) rotate(90) scale(.08 -.08)">
<use xlink:href="#l"/>
<use x="60.818359" xlink:href="#d"/>
<use x="122.341797" xlink:href="#i"/>
<use x="163.439453" xlink:href="#j"/>
<use x="260.851562" xlink:href="#h"/>
<use x="288.634766" xlink:href="#e"/>
<use x="352.013672" xlink:href="#f"/>
<use x="413.292969" xlink:href="#k"/>
</g>
</g>
<path d="m1562 944.92v35.285q0 2.4 2.4 2.4h7.7425q2.4 0 2.4-2.4v-35.285q0-2.4-2.4-2.4h-7.7425q-2.4 0-2.4 2.4z" clip-path="url(#a)" fill="#fff" stroke="#fff"/>
<g clip-path="url(#a)">
<g transform="translate(1566.1 944.92) rotate(90) scale(.08 -.08)">
<use xlink:href="#l"/>
<use x="60.818359" xlink:href="#d"/>
<use x="122.341797" xlink:href="#i"/>
<use x="163.439453" xlink:href="#j"/>
<use x="260.851562" xlink:href="#h"/>
<use x="288.634766" xlink:href="#e"/>
<use x="352.013672" xlink:href="#f"/>
<use x="413.292969" xlink:href="#k"/>
</g>
</g>
<path d="m1746.2 944.92v35.285q0 2.4 2.4 2.4h7.7425q2.4 0 2.4-2.4v-35.285q0-2.4-2.4-2.4h-7.7425q-2.4 0-2.4 2.4z" clip-path="url(#a)" fill="#fff" stroke="#fff"/>
<g clip-path="url(#a)">
<g transform="translate(1750.3 944.92) rotate(90) scale(.08 -.08)">
<use xlink:href="#l"/>
<use x="60.818359" xlink:href="#d"/>
<use x="122.341797" xlink:href="#i"/>
<use x="163.439453" xlink:href="#j"/>
<use x="260.851562" xlink:href="#h"/>
<use x="288.634766" xlink:href="#e"/>
<use x="352.013672" xlink:href="#f"/>
<use x="413.292969" xlink:href="#k"/>
</g>
</g>
<path d="m1146.9 807.27 2.1997-5.105q0.94972-2.2041-1.2544-3.1538l-7.1105-3.0638q-2.2041-0.94972-3.1538 1.2544l-2.1997 5.105q-0.94972 2.2041 1.2544 3.1538l7.1105 3.0638q2.2041 0.94972 3.1538-1.2544z" clip-path="url(#a)" fill="#fff" stroke="#fff"/>
<g clip-path="url(#a)">
<g transform="translate(1143.2 805.66) rotate(-66.689) scale(.08 -.08)">
<use xlink:href="#aa"/>
</g>
</g>
<path d="m1171.2 805.41 0.65416-4.5545q0.34121-2.3756-2.0344-2.7168l-7.6639-1.1008q-2.3756-0.34121-2.7168 2.0344l-0.65416 4.5545q-0.34121 2.3756 2.0344 2.7168l7.6639 1.1008q2.3756 0.34121 2.7168-2.0344z" clip-path="url(#a)" fill="#fff" stroke="#fff"/>
<g clip-path="url(#a)">
<g transform="translate(1167.2 804.83) rotate(-81.827) scale(.08 -.08)">
<use xlink:href="#ai"/>
</g>
</g>
<path d="m1181.7 800.36 0.7942 5.5295q0.34121 2.3756 2.7168 2.0344l7.6639-1.1007q2.3756-0.34121 2.0344-2.7168l-0.7942-5.5295q-0.34121-2.3756-2.7168-2.0344l-7.6639 1.1008q-2.3756 0.34121-2.0344 2.7168z" clip-path="url(#a)" fill="#fff" stroke="#fff"/>
<g clip-path="url(#a)">
<g transform="translate(1185.8 799.79) rotate(81.827) scale(.08 -.08)">
<use xlink:href="#u"/>
</g>
</g>
<path d="m1204.5 802.15 2.2106 5.1303q0.94971 2.2041 3.1538 1.2544l7.1105-3.0638q2.2041-0.94972 1.2544-3.1538l-2.2106-5.1303q-0.94972-2.2041-3.1538-1.2544l-7.1105 3.0638q-2.2041 0.94972-1.2544 3.1538z" clip-path="url(#a)" fill="#fff" stroke="#fff"/>
<g clip-path="url(#a)">
<g transform="translate(1208.2 800.55) rotate(66.689) scale(.08 -.08)">
<use xlink:href="#u"/>
</g>
</g>
<path d="m1285.7 944.92v35.285q0 2.4 2.4 2.4h7.7425q2.4 0 2.4-2.4v-35.285q0-2.4-2.4-2.4h-7.7425q-2.4 0-2.4 2.4z" clip-path="url(#a)" fill="#fff" stroke="#fff"/>
<g clip-path="url(#a)">
<g transform="translate(1289.8 944.92) rotate(90) scale(.08 -.08)">
<use xlink:href="#l"/>
<use x="60.818359" xlink:href="#d"/>
<use x="122.341797" xlink:href="#i"/>
<use x="163.439453" xlink:href="#j"/>
<use x="260.851562" xlink:href="#h"/>
<use x="288.634766" xlink:href="#e"/>
<use x="352.013672" xlink:href="#f"/>
<use x="413.292969" xlink:href="#k"/>
</g>
</g>
<path d="m1101.5 944.92v35.285q0 2.4 2.4 2.4h7.7425q2.4 0 2.4-2.4v-35.285q0-2.4-2.4-2.4h-7.7425q-2.4 0-2.4 2.4z" clip-path="url(#a)" fill="#fff" stroke="#fff"/>
<g clip-path="url(#a)">
<g transform="translate(1105.5 944.92) rotate(90) scale(.08 -.08)">
<use xlink:href="#l"/>
<use x="60.818359" xlink:href="#d"/>
<use x="122.341797" xlink:href="#i"/>
<use x="163.439453" xlink:href="#j"/>
<use x="260.851562" xlink:href="#h"/>
<use x="288.634766" xlink:href="#e"/>
<use x="352.013672" xlink:href="#f"/>
<use x="413.292969" xlink:href="#k"/>
</g>
</g>
<path d="m1147.5 944.92v35.285q0 2.4 2.4 2.4h7.7425q2.4 0 2.4-2.4v-35.285q0-2.4-2.4-2.4h-7.7425q-2.4 0-2.4 2.4z" clip-path="url(#a)" fill="#fff" stroke="#fff"/>
<g clip-path="url(#a)">
<g transform="translate(1151.6 944.92) rotate(90) scale(.08 -.08)">
<use xlink:href="#l"/>
<use x="60.818359" xlink:href="#d"/>
<use x="122.341797" xlink:href="#i"/>
<use x="163.439453" xlink:href="#j"/>
<use x="260.851562" xlink:href="#h"/>
<use x="288.634766" xlink:href="#e"/>
<use x="352.013672" xlink:href="#f"/>
<use x="413.292969" xlink:href="#k"/>
</g>
</g>
<path d="m1193.6 944.92v35.285q0 2.4 2.4 2.4h7.7425q2.4 0 2.4-2.4v-35.285q0-2.4-2.4-2.4h-7.7425q-2.4 0-2.4 2.4z" clip-path="url(#a)" fill="#fff" stroke="#fff"/>
<g clip-path="url(#a)">
<g transform="translate(1197.6 944.92) rotate(90) scale(.08 -.08)">
<use xlink:href="#l"/>
<use x="60.818359" xlink:href="#d"/>
<use x="122.341797" xlink:href="#i"/>
<use x="163.439453" xlink:href="#j"/>
<use x="260.851562" xlink:href="#h"/>
<use x="288.634766" xlink:href="#e"/>
<use x="352.013672" xlink:href="#f"/>
<use x="413.292969" xlink:href="#k"/>
</g>
</g>
<path d="m1239.6 944.92v35.285q0 2.4 2.4 2.4h7.7425q2.4 0 2.4-2.4v-35.285q0-2.4-2.4-2.4h-7.7425q-2.4 0-2.4 2.4z" clip-path="url(#a)" fill="#fff" stroke="#fff"/>
<g clip-path="url(#a)">
<g transform="translate(1243.7 944.92) rotate(90) scale(.08 -.08)">
<use xlink:href="#l"/>
<use x="60.818359" xlink:href="#d"/>
<use x="122.341797" xlink:href="#i"/>
<use x="163.439453" xlink:href="#j"/>
<use x="260.851562" xlink:href="#h"/>
<use x="288.634766" xlink:href="#e"/>
<use x="352.013672" xlink:href="#f"/>
<use x="413.292969" xlink:href="#k"/>
</g>
</g>
<path d="m871.21 944.92v35.285q0 2.4 2.4 2.4h7.7425q2.4 0 2.4-2.4v-35.285q0-2.4-2.4-2.4h-7.7425q-2.4 0-2.4 2.4z" clip-path="url(#a)" fill="#fff" stroke="#fff"/>
<g clip-path="url(#a)">
<g transform="translate(875.27 944.92) rotate(90) scale(.08 -.08)">
<use xlink:href="#l"/>
<use x="60.818359" xlink:href="#d"/>
<use x="122.341797" xlink:href="#i"/>
<use x="163.439453" xlink:href="#j"/>
<use x="260.851562" xlink:href="#h"/>
<use x="288.634766" xlink:href="#e"/>
<use x="352.013672" xlink:href="#f"/>
<use x="413.292969" xlink:href="#k"/>
</g>
</g>
<path d="m917.26 944.92v35.285q0 2.4 2.4 2.4h7.7425q2.4 0 2.4-2.4v-35.285q0-2.4-2.4-2.4h-7.7425q-2.4 0-2.4 2.4z" clip-path="url(#a)" fill="#fff" stroke="#fff"/>
<g clip-path="url(#a)">
<g transform="translate(921.32 944.92) rotate(90) scale(.08 -.08)">
<use xlink:href="#l"/>
<use x="60.818359" xlink:href="#d"/>
<use x="122.341797" xlink:href="#i"/>
<use x="163.439453" xlink:href="#j"/>
<use x="260.851562" xlink:href="#h"/>
<use x="288.634766" xlink:href="#e"/>
<use x="352.013672" xlink:href="#f"/>
<use x="413.292969" xlink:href="#k"/>
</g>
</g>
<path d="m984.8 980.92 5.0165-34.927q0.34121-2.3756-2.0344-2.7168l-7.6639-1.1008q-2.3756-0.34121-2.7168 2.0344l-5.0165 34.927q-0.34121 2.3756 2.0344 2.7168l7.6639 1.1008q2.3756 0.34121 2.7168-2.0344z" clip-path="url(#a)" fill="#fff" stroke="#fff"/>
<g clip-path="url(#a)">
<g transform="translate(980.78 980.34) rotate(-81.827) scale(.08 -.08)">
<use xlink:href="#l"/>
<use x="60.818359" xlink:href="#d"/>
<use x="122.341797" xlink:href="#i"/>
<use x="163.439453" xlink:href="#j"/>
<use x="260.851562" xlink:href="#h"/>
<use x="288.634766" xlink:href="#e"/>
<use x="352.013672" xlink:href="#f"/>
<use x="413.292969" xlink:href="#k"/>
</g>
</g>
<path d="m995.41 945.99 5.0165 34.927q0.34121 2.3756 2.7168 2.0344l7.6639-1.1008q2.3756-0.34121 2.0344-2.7168l-5.0165-34.927q-0.34121-2.3756-2.7168-2.0344l-7.6639 1.1008q-2.3756 0.34121-2.0344 2.7168z" clip-path="url(#a)" fill="#fff" stroke="#fff"/>
<g clip-path="url(#a)">
<g transform="translate(999.43 945.41) rotate(81.827) scale(.08 -.08)">
<use xlink:href="#l"/>
<use x="60.818359" xlink:href="#d"/>
<use x="122.341797" xlink:href="#i"/>
<use x="163.439453" xlink:href="#j"/>
<use x="260.851562" xlink:href="#h"/>
<use x="288.634766" xlink:href="#e"/>
<use x="352.013672" xlink:href="#f"/>
<use x="413.292969" xlink:href="#k"/>
</g>
</g>
<path d="m88.291 944.92v35.285q0 2.4 2.4 2.4h7.7425q2.4 0 2.4-2.4v-35.285q0-2.4-2.4-2.4h-7.7425q-2.4 0-2.4 2.4z" clip-path="url(#a)" fill="#fff" stroke="#fff"/>
<g clip-path="url(#a)">
<g transform="translate(92.355 944.92) rotate(90) scale(.08 -.08)">
<use xlink:href="#l"/>
<use x="60.818359" xlink:href="#d"/>
<use x="122.341797" xlink:href="#i"/>
<use x="163.439453" xlink:href="#j"/>
<use x="260.851562" xlink:href="#h"/>
<use x="288.634766" xlink:href="#e"/>
<use x="352.013672" xlink:href="#f"/>
<use x="413.292969" xlink:href="#k"/>
</g>
</g>
<path d="m134.35 944.92v35.285q0 2.4 2.4 2.4h7.7425q2.4 0 2.4-2.4v-35.285q0-2.4-2.4-2.4h-7.7425q-2.4 0-2.4 2.4z" clip-path="url(#a)" fill="#fff" stroke="#fff"/>
<g clip-path="url(#a)">
<g transform="translate(138.41 944.92) rotate(90) scale(.08 -.08)">
<use xlink:href="#l"/>
<use x="60.818359" xlink:href="#d"/>
<use x="122.341797" xlink:href="#i"/>
<use x="163.439453" xlink:href="#j"/>
<use x="260.851562" xlink:href="#h"/>
<use x="288.634766" xlink:href="#e"/>
<use x="352.013672" xlink:href="#f"/>
<use x="413.292969" xlink:href="#k"/>
</g>
</g>
<path d="m341.5 643.78 2.9221-4.7287q1.2616-2.0416-0.77999-3.3033l-6.5864-4.0701q-2.0416-1.2616-3.3033 0.77999l-2.9221 4.7287q-1.2616 2.0416 0.77999 3.3033l6.5864 4.0701q2.0416 1.2616 3.3033-0.77999z" clip-path="url(#a)" fill="#fff" stroke="#fff"/>
<g clip-path="url(#a)">
<g transform="translate(338.04 641.64) rotate(-58.286) scale(.08 -.08)">
<use xlink:href="#aa"/>
</g>
</g>
<path d="m429.24 482.65 3.3021-4.364q1.4482-1.9138-0.46568-3.362l-6.1742-4.6719q-1.9138-1.4482-3.362 0.46568l-3.3021 4.364q-1.4482 1.9138 0.46568 3.362l6.1742 4.6718q1.9138 1.4482 3.362-0.46568z" clip-path="url(#a)" fill="#fff" stroke="#fff"/>
<g clip-path="url(#a)">
<g transform="translate(426 480.2) rotate(-52.886) scale(.08 -.08)">
<use xlink:href="#o"/>
</g>
</g>
<path d="m492.42 635.31 0.25785 6.1546q0.10046 2.3979 2.4984 2.2974l7.7357-0.32409q2.3979-0.10046 2.2974-2.4984l-0.25785-6.1546q-0.10046-2.3979-2.4984-2.2974l-7.7357 0.32409q-2.3979 0.10046-2.2974 2.4984z" clip-path="url(#a)" fill="#fff" stroke="#fff"/>
<g clip-path="url(#a)">
<g transform="translate(496.48 635.14) rotate(87.601) scale(.08 -.08)">
<use xlink:href="#aj"/>
</g>
</g>
<path d="m515.3 636.58 0.6508 4.7796q0.3238 2.3781 2.7019 2.0543l7.6717-1.0446q2.3781-0.3238 2.0543-2.7019l-0.6508-4.7796q-0.3238-2.3781-2.7019-2.0543l-7.6717 1.0446q-2.3781 0.3238-2.0543 2.7019z" clip-path="url(#a)" fill="#fff" stroke="#fff"/>
<g clip-path="url(#a)">
<g transform="translate(519.33 636.03) rotate(82.246) scale(.08 -.08)">
<use xlink:href="#z"/>
</g>
</g>
<path d="m538.14 636.86 1.2288 5.3328q0.5389 2.3387 2.8776 1.7998l7.5448-1.7385q2.3387-0.5389 1.7998-2.8776l-1.2288-5.3328q-0.5389-2.3387-2.8776-1.7998l-7.5448 1.7385q-2.3387 0.5389-1.7998 2.8776z" clip-path="url(#a)" fill="#fff" stroke="#fff"/>
<g clip-path="url(#a)">
<g transform="translate(542.1 635.95) rotate(77.024) scale(.08 -.08)">
<use xlink:href="#o"/>
</g>
</g>
<path d="m595.72 559.29 3.1194 4.4964q1.368 1.9719 3.34 0.60392l6.3616-4.4133q1.9719-1.368 0.60392-3.34l-3.1194-4.4964q-1.368-1.9719-3.34-0.60392l-6.3616 4.4133q-1.9719 1.368-0.60392 3.34z" clip-path="url(#a)" fill="#fff" stroke="#fff"/>
<g clip-path="url(#a)">
<g transform="translate(599.06 556.97) rotate(55.249) scale(.08 -.08)">
<use xlink:href="#o"/>
</g>
</g>
<path d="m180.4 944.92v35.285q0 2.4 2.4 2.4h7.7425q2.4 0 2.4-2.4v-35.285q0-2.4-2.4-2.4h-7.7425q-2.4 0-2.4 2.4z" clip-path="url(#a)" fill="#fff" stroke="#fff"/>
<g clip-path="url(#a)">
<g transform="translate(184.46 944.92) rotate(90) scale(.08 -.08)">
<use xlink:href="#l"/>
<use x="60.818359" xlink:href="#d"/>
<use x="122.341797" xlink:href="#i"/>
<use x="163.439453" xlink:href="#j"/>
<use x="260.851562" xlink:href="#h"/>
<use x="288.634766" xlink:href="#e"/>
<use x="352.013672" xlink:href="#f"/>
<use x="413.292969" xlink:href="#k"/>
</g>
</g>
<path d="m313.2 646.54 3.0179-4.5652q1.3235-2.0021-0.67856-3.3256l-6.4588-4.2697q-2.0021-1.3235-3.3256 0.67856l-3.0179 4.5652q-1.3235 2.0021 0.67856 3.3256l6.4588 4.2697q2.0021 1.3235 3.3256-0.67856z" clip-path="url(#a)" fill="#fff" stroke="#fff"/>
<g clip-path="url(#a)">
<g transform="translate(309.81 644.3) rotate(-56.532) scale(.08 -.08)">
<use xlink:href="#o"/>
</g>
</g>
<path d="m360.65 638.36 0.25812 5.4664q0.1132 2.3973 2.5105 2.2841l7.7339-0.36519q2.3973-0.1132 2.2841-2.5105l-0.25812-5.4664q-0.1132-2.3973-2.5105-2.2841l-7.7339 0.36519q-2.3973 0.1132-2.2841 2.5105z" clip-path="url(#a)" fill="#fff" stroke="#fff"/>
<g clip-path="url(#a)">
<g transform="translate(364.71 638.17) rotate(87.297) scale(.08 -.08)">
<use xlink:href="#o"/>
</g>
</g>
<path d="m406.4 720.51 1.4243 4.6087q0.70864 2.293 3.0016 1.5844l7.3973-2.2861q2.293-0.70864 1.5844-3.0016l-1.4243-4.6087q-0.70864-2.293-3.0016-1.5844l-7.3973 2.2861q-2.293 0.70864-1.5844 3.0016z" clip-path="url(#a)" fill="#fff" stroke="#fff"/>
<g clip-path="url(#a)">
<g transform="translate(410.28 719.31) rotate(72.826) scale(.08 -.08)">
<use xlink:href="#z"/>
</g>
</g>
<path d="m502.78 944.92v35.285q0 2.4 2.4 2.4h7.7425q2.4 0 2.4-2.4v-35.285q0-2.4-2.4-2.4h-7.7425q-2.4 0-2.4 2.4z" clip-path="url(#a)" fill="#fff" stroke="#fff"/>
<g clip-path="url(#a)">
<g transform="translate(506.84 944.92) rotate(90) scale(.08 -.08)">
<use xlink:href="#l"/>
<use x="60.818359" xlink:href="#d"/>
<use x="122.341797" xlink:href="#i"/>
<use x="163.439453" xlink:href="#j"/>
<use x="260.851562" xlink:href="#h"/>
<use x="288.634766" xlink:href="#e"/>
<use x="352.013672" xlink:href="#f"/>
<use x="413.292969" xlink:href="#k"/>
</g>
</g>
<path d="m548.83 944.92v35.285q0 2.4 2.4 2.4h7.7425q2.4 0 2.4-2.4v-35.285q0-2.4-2.4-2.4h-7.7425q-2.4 0-2.4 2.4z" clip-path="url(#a)" fill="#fff" stroke="#fff"/>
<g clip-path="url(#a)">
<g transform="translate(552.89 944.92) rotate(90) scale(.08 -.08)">
<use xlink:href="#l"/>
<use x="60.818359" xlink:href="#d"/>
<use x="122.341797" xlink:href="#i"/>
<use x="163.439453" xlink:href="#j"/>
<use x="260.851562" xlink:href="#h"/>
<use x="288.634766" xlink:href="#e"/>
<use x="352.013672" xlink:href="#f"/>
<use x="413.292969" xlink:href="#k"/>
</g>
</g>
<path d="m594.88 944.92v35.285q0 2.4 2.4 2.4h7.7425q2.4 0 2.4-2.4v-35.285q0-2.4-2.4-2.4h-7.7425q-2.4 0-2.4 2.4z" clip-path="url(#a)" fill="#fff" stroke="#fff"/>
<g clip-path="url(#a)">
<g transform="translate(598.95 944.92) rotate(90) scale(.08 -.08)">
<use xlink:href="#l"/>
<use x="60.818359" xlink:href="#d"/>
<use x="122.341797" xlink:href="#i"/>
<use x="163.439453" xlink:href="#j"/>
<use x="260.851562" xlink:href="#h"/>
<use x="288.634766" xlink:href="#e"/>
<use x="352.013672" xlink:href="#f"/>
<use x="413.292969" xlink:href="#k"/>
</g>
</g>
<path d="m686.51 807.04 2.0003-4.6424q0.94971-2.2041-1.2544-3.1538l-7.1105-3.0638q-2.2041-0.94972-3.1538 1.2544l-2.0003 4.6424q-0.94972 2.2041 1.2544 3.1538l7.1105 3.0638q2.2041 0.94972 3.1538-1.2544z" clip-path="url(#a)" fill="#fff" stroke="#fff"/>
<g clip-path="url(#a)">
<defs>
<path id="ao" d="m9.8125 72.906h46.094v-8.3125h-36.234v-21.578h34.719v-8.2969h-34.719v-26.422h37.109v-8.2969h-46.969z"/>
</defs>
<g transform="translate(682.78 805.43) rotate(-66.689) scale(.08 -.08)">
<use xlink:href="#ao"/>
</g>
</g>
<path d="m710.62 805.63 0.71867-5.0037q0.34121-2.3756-2.0344-2.7168l-7.6639-1.1007q-2.3756-0.34121-2.7168 2.0344l-0.71867 5.0037q-0.34121 2.3756 2.0344 2.7168l7.6639 1.1007q2.3756 0.34121 2.7168-2.0344z" clip-path="url(#a)" fill="#fff" stroke="#fff"/>
<g clip-path="url(#a)">
<g transform="translate(706.6 805.05) rotate(-81.827) scale(.08 -.08)">
<use xlink:href="#ao"/>
</g>
</g>
<path d="m743.97 802.15 2.2106 5.1303q0.94971 2.2041 3.1538 1.2544l7.1105-3.0638q2.2041-0.94972 1.2544-3.1538l-2.2106-5.1303q-0.94972-2.2041-3.1538-1.2544l-7.1105 3.0638q-2.2041 0.94972-1.2544 3.1538z" clip-path="url(#a)" fill="#fff" stroke="#fff"/>
<g clip-path="url(#a)">
<g transform="translate(747.7 800.55) rotate(66.689) scale(.08 -.08)">
<use xlink:href="#u"/>
</g>
</g>
<path d="m721.18 800.23 0.8324 5.7955q0.34121 2.3756 2.7168 2.0344l7.6639-1.1007q2.3756-0.34121 2.0344-2.7168l-0.8324-5.7955q-0.34121-2.3756-2.7168-2.0344l-7.6639 1.1008q-2.3756 0.34121-2.0344 2.7168z" clip-path="url(#a)" fill="#fff" stroke="#fff"/>
<g clip-path="url(#a)">
<g transform="translate(725.2 799.65) rotate(81.827) scale(.08 -.08)">
<use xlink:href="#y"/>
</g>
</g>
<path d="m640.94 944.92v35.285q0 2.4 2.4 2.4h7.7425q2.4 0 2.4-2.4v-35.285q0-2.4-2.4-2.4h-7.7425q-2.4 0-2.4 2.4z" clip-path="url(#a)" fill="#fff" stroke="#fff"/>
<g clip-path="url(#a)">
<g transform="translate(645 944.92) rotate(90) scale(.08 -.08)">
<use xlink:href="#l"/>
<use x="60.818359" xlink:href="#d"/>
<use x="122.341797" xlink:href="#i"/>
<use x="163.439453" xlink:href="#j"/>
<use x="260.851562" xlink:href="#h"/>
<use x="288.634766" xlink:href="#e"/>
<use x="352.013672" xlink:href="#f"/>
<use x="413.292969" xlink:href="#k"/>
</g>
</g>
<path d="m686.99 944.92v35.285q0 2.4 2.4 2.4h7.7425q2.4 0 2.4-2.4v-35.285q0-2.4-2.4-2.4h-7.7425q-2.4 0-2.4 2.4z" clip-path="url(#a)" fill="#fff" stroke="#fff"/>
<g clip-path="url(#a)">
<g transform="translate(691.06 944.92) rotate(90) scale(.08 -.08)">
<use xlink:href="#l"/>
<use x="60.818359" xlink:href="#d"/>
<use x="122.341797" xlink:href="#i"/>
<use x="163.439453" xlink:href="#j"/>
<use x="260.851562" xlink:href="#h"/>
<use x="288.634766" xlink:href="#e"/>
<use x="352.013672" xlink:href="#f"/>
<use x="413.292969" xlink:href="#k"/>
</g>
</g>
<path d="m779.1 944.92v35.285q0 2.4 2.4 2.4h7.7425q2.4 0 2.4-2.4v-35.285q0-2.4-2.4-2.4h-7.7425q-2.4 0-2.4 2.4z" clip-path="url(#a)" fill="#fff" stroke="#fff"/>
<g clip-path="url(#a)">
<g transform="translate(783.16 944.92) rotate(90) scale(.08 -.08)">
<use xlink:href="#l"/>
<use x="60.818359" xlink:href="#d"/>
<use x="122.341797" xlink:href="#i"/>
<use x="163.439453" xlink:href="#j"/>
<use x="260.851562" xlink:href="#h"/>
<use x="288.634766" xlink:href="#e"/>
<use x="352.013672" xlink:href="#f"/>
<use x="413.292969" xlink:href="#k"/>
</g>
</g>
<path d="m250.05 805.89 0.7942-5.5295q0.34121-2.3756-2.0344-2.7168l-7.6639-1.1008q-2.3756-0.34121-2.7168 2.0344l-0.7942 5.5295q-0.34121 2.3756 2.0344 2.7168l7.6639 1.1007q2.3756 0.34121 2.7168-2.0344z" clip-path="url(#a)" fill="#fff" stroke="#fff"/>
<g clip-path="url(#a)">
<g transform="translate(246.03 805.32) rotate(-81.827) scale(.08 -.08)">
<use xlink:href="#u"/>
</g>
</g>
<path d="m260.66 800.38 0.79029 5.5023q0.34121 2.3756 2.7168 2.0344l7.6639-1.1008q2.3756-0.34121 2.0344-2.7168l-0.79029-5.5023q-0.34121-2.3756-2.7168-2.0344l-7.6639 1.1008q-2.3756 0.34121-2.0344 2.7168z" clip-path="url(#a)" fill="#fff" stroke="#fff"/>
<g clip-path="url(#a)">
<g transform="translate(264.68 799.8) rotate(81.827) scale(.08 -.08)">
<use xlink:href="#aa"/>
</g>
</g>
<path d="m353.19 806.4 1.3956-4.8585q0.66262-2.3067-1.6441-2.9693l-7.4416-2.1376q-2.3067-0.66262-2.9693 1.6441l-1.3956 4.8585q-0.66262 2.3067 1.6441 2.9693l7.4416 2.1376q2.3067 0.66262 2.9693-1.6441z" clip-path="url(#a)" fill="#fff" stroke="#fff"/>
<g clip-path="url(#a)">
<g transform="translate(349.28 805.28) rotate(-73.973) scale(.08 -.08)">
<use xlink:href="#ao"/>
</g>
</g>
<path d="m387.11 801.28 1.5423 5.3691q0.66262 2.3067 2.9693 1.6441l7.4416-2.1376q2.3067-0.66262 1.6441-2.9693l-1.5423-5.3691q-0.66262-2.3067-2.9693-1.6441l-7.4416 2.1376q-2.3067 0.66262-1.6441 2.9693z" clip-path="url(#a)" fill="#fff" stroke="#fff"/>
<g clip-path="url(#a)">
<g transform="translate(391.02 800.16) rotate(73.973) scale(.08 -.08)">
<use xlink:href="#u"/>
</g>
</g>
<path d="m364.61 799.31v5.855q0 2.4 2.4 2.4h7.7425q2.4 0 2.4-2.4v-5.855q0-2.4-2.4-2.4h-7.7425q-2.4 0-2.4 2.4z" clip-path="url(#a)" fill="#fff" stroke="#fff"/>
<g clip-path="url(#a)">
<g transform="translate(368.68 799.31) rotate(90) scale(.08 -.08)">
<use xlink:href="#y"/>
</g>
</g>
<path d="m456.72 944.92v35.285q0 2.4 2.4 2.4h7.7425q2.4 0 2.4-2.4v-35.285q0-2.4-2.4-2.4h-7.7425q-2.4 0-2.4 2.4z" clip-path="url(#a)" fill="#fff" stroke="#fff"/>
<g clip-path="url(#a)">
<g transform="translate(460.79 944.92) rotate(90) scale(.08 -.08)">
<use xlink:href="#l"/>
<use x="60.818359" xlink:href="#d"/>
<use x="122.341797" xlink:href="#i"/>
<use x="163.439453" xlink:href="#j"/>
<use x="260.851562" xlink:href="#h"/>
<use x="288.634766" xlink:href="#e"/>
<use x="352.013672" xlink:href="#f"/>
<use x="413.292969" xlink:href="#k"/>
</g>
</g>
<path d="m318.56 944.92v35.285q0 2.4 2.4 2.4h7.7425q2.4 0 2.4-2.4v-35.285q0-2.4-2.4-2.4h-7.7425q-2.4 0-2.4 2.4z" clip-path="url(#a)" fill="#fff" stroke="#fff"/>
<g clip-path="url(#a)">
<g transform="translate(322.62 944.92) rotate(90) scale(.08 -.08)">
<use xlink:href="#l"/>
<use x="60.818359" xlink:href="#d"/>
<use x="122.341797" xlink:href="#i"/>
<use x="163.439453" xlink:href="#j"/>
<use x="260.851562" xlink:href="#h"/>
<use x="288.634766" xlink:href="#e"/>
<use x="352.013672" xlink:href="#f"/>
<use x="413.292969" xlink:href="#k"/>
</g>
</g>
<path d="m410.67 944.92v35.285q0 2.4 2.4 2.4h7.7425q2.4 0 2.4-2.4v-35.285q0-2.4-2.4-2.4h-7.7425q-2.4 0-2.4 2.4z" clip-path="url(#a)" fill="#fff" stroke="#fff"/>
<g clip-path="url(#a)">
<g transform="translate(414.73 944.92) rotate(90) scale(.08 -.08)">
<use xlink:href="#l"/>
<use x="60.818359" xlink:href="#d"/>
<use x="122.341797" xlink:href="#i"/>
<use x="163.439453" xlink:href="#j"/>
<use x="260.851562" xlink:href="#h"/>
<use x="288.634766" xlink:href="#e"/>
<use x="352.013672" xlink:href="#f"/>
<use x="413.292969" xlink:href="#k"/>
</g>
</g>
<path d="m364.61 944.92v35.285q0 2.4 2.4 2.4h7.7425q2.4 0 2.4-2.4v-35.285q0-2.4-2.4-2.4h-7.7425q-2.4 0-2.4 2.4z" clip-path="url(#a)" fill="#fff" stroke="#fff"/>
<g clip-path="url(#a)">
<g transform="translate(368.68 944.92) rotate(90) scale(.08 -.08)">
<use xlink:href="#l"/>
<use x="60.818359" xlink:href="#d"/>
<use x="122.341797" xlink:href="#i"/>
<use x="163.439453" xlink:href="#j"/>
<use x="260.851562" xlink:href="#h"/>
<use x="288.634766" xlink:href="#e"/>
<use x="352.013672" xlink:href="#f"/>
<use x="413.292969" xlink:href="#k"/>
</g>
</g>
<path d="m226.45 944.92v35.285q0 2.4 2.4 2.4h7.7425q2.4 0 2.4-2.4v-35.285q0-2.4-2.4-2.4h-7.7425q-2.4 0-2.4 2.4z" clip-path="url(#a)" fill="#fff" stroke="#fff"/>
<g clip-path="url(#a)">
<g transform="translate(230.52 944.92) rotate(90) scale(.08 -.08)">
<use xlink:href="#l"/>
<use x="60.818359" xlink:href="#d"/>
<use x="122.341797" xlink:href="#i"/>
<use x="163.439453" xlink:href="#j"/>
<use x="260.851562" xlink:href="#h"/>
<use x="288.634766" xlink:href="#e"/>
<use x="352.013672" xlink:href="#f"/>
<use x="413.292969" xlink:href="#k"/>
</g>
</g>
<path d="m272.51 944.92v35.285q0 2.4 2.4 2.4h7.7425q2.4 0 2.4-2.4v-35.285q0-2.4-2.4-2.4h-7.7425q-2.4 0-2.4 2.4z" clip-path="url(#a)" fill="#fff" stroke="#fff"/>
<g clip-path="url(#a)">
<g transform="translate(276.57 944.92) rotate(90) scale(.08 -.08)">
<use xlink:href="#l"/>
<use x="60.818359" xlink:href="#d"/>
<use x="122.341797" xlink:href="#i"/>
<use x="163.439453" xlink:href="#j"/>
<use x="260.851562" xlink:href="#h"/>
<use x="288.634766" xlink:href="#e"/>
<use x="352.013672" xlink:href="#f"/>
<use x="413.292969" xlink:href="#k"/>
</g>
</g>
<path d="m733.05 944.92v35.285q0 2.4 2.4 2.4h7.7425q2.4 0 2.4-2.4v-35.285q0-2.4-2.4-2.4h-7.7425q-2.4 0-2.4 2.4z" clip-path="url(#a)" fill="#fff" stroke="#fff"/>
<g clip-path="url(#a)">
<g transform="translate(737.11 944.92) rotate(90) scale(.08 -.08)">
<use xlink:href="#l"/>
<use x="60.818359" xlink:href="#d"/>
<use x="122.341797" xlink:href="#i"/>
<use x="163.439453" xlink:href="#j"/>
<use x="260.851562" xlink:href="#h"/>
<use x="288.634766" xlink:href="#e"/>
<use x="352.013672" xlink:href="#f"/>
<use x="413.292969" xlink:href="#k"/>
</g>
</g>
<path d="m825.15 944.92v35.285q0 2.4 2.4 2.4h7.7425q2.4 0 2.4-2.4v-35.285q0-2.4-2.4-2.4h-7.7425q-2.4 0-2.4 2.4z" clip-path="url(#a)" fill="#fff" stroke="#fff"/>
<g clip-path="url(#a)">
<g transform="translate(829.22 944.92) rotate(90) scale(.08 -.08)">
<use xlink:href="#l"/>
<use x="60.818359" xlink:href="#d"/>
<use x="122.341797" xlink:href="#i"/>
<use x="163.439453" xlink:href="#j"/>
<use x="260.851562" xlink:href="#h"/>
<use x="288.634766" xlink:href="#e"/>
<use x="352.013672" xlink:href="#f"/>
<use x="413.292969" xlink:href="#k"/>
</g>
</g>
<path d="m1377.8 944.92v35.285q0 2.4 2.4 2.4h7.7425q2.4 0 2.4-2.4v-35.285q0-2.4-2.4-2.4h-7.7425q-2.4 0-2.4 2.4z" clip-path="url(#a)" fill="#fff" stroke="#fff"/>
<g clip-path="url(#a)">
<g transform="translate(1381.9 944.92) rotate(90) scale(.08 -.08)">
<use xlink:href="#l"/>
<use x="60.818359" xlink:href="#d"/>
<use x="122.341797" xlink:href="#i"/>
<use x="163.439453" xlink:href="#j"/>
<use x="260.851562" xlink:href="#h"/>
<use x="288.634766" xlink:href="#e"/>
<use x="352.013672" xlink:href="#f"/>
<use x="413.292969" xlink:href="#k"/>
</g>
</g>
<path d="m1700.2 944.92v35.285q0 2.4 2.4 2.4h7.7425q2.4 0 2.4-2.4v-35.285q0-2.4-2.4-2.4h-7.7425q-2.4 0-2.4 2.4z" clip-path="url(#a)" fill="#fff" stroke="#fff"/>
<g clip-path="url(#a)">
<g transform="translate(1704.2 944.92) rotate(90) scale(.08 -.08)">
<use xlink:href="#l"/>
<use x="60.818359" xlink:href="#d"/>
<use x="122.341797" xlink:href="#i"/>
<use x="163.439453" xlink:href="#j"/>
<use x="260.851562" xlink:href="#h"/>
<use x="288.634766" xlink:href="#e"/>
<use x="352.013672" xlink:href="#f"/>
<use x="413.292969" xlink:href="#k"/>
</g>
</g>
<path d="m1792.3 944.92v35.285q0 2.4 2.4 2.4h7.7425q2.4 0 2.4-2.4v-35.285q0-2.4-2.4-2.4h-7.7425q-2.4 0-2.4 2.4z" clip-path="url(#a)" fill="#fff" stroke="#fff"/>
<g clip-path="url(#a)">
<g transform="translate(1796.3 944.92) rotate(90) scale(.08 -.08)">
<use xlink:href="#l"/>
<use x="60.818359" xlink:href="#d"/>
<use x="122.341797" xlink:href="#i"/>
<use x="163.439453" xlink:href="#j"/>
<use x="260.851562" xlink:href="#h"/>
<use x="288.634766" xlink:href="#e"/>
<use x="352.013672" xlink:href="#f"/>
<use x="413.292969" xlink:href="#k"/>
</g>
</g>
<path d="m1930.4 944.92v35.285q0 2.4 2.4 2.4h7.7425q2.4 0 2.4-2.4v-35.285q0-2.4-2.4-2.4h-7.7425q-2.4 0-2.4 2.4z" clip-path="url(#a)" fill="#fff" stroke="#fff"/>
<g clip-path="url(#a)">
<g transform="translate(1934.5 944.92) rotate(90) scale(.08 -.08)">
<use xlink:href="#l"/>
<use x="60.818359" xlink:href="#d"/>
<use x="122.341797" xlink:href="#i"/>
<use x="163.439453" xlink:href="#j"/>
<use x="260.851562" xlink:href="#h"/>
<use x="288.634766" xlink:href="#e"/>
<use x="352.013672" xlink:href="#f"/>
<use x="413.292969" xlink:href="#k"/>
</g>
</g>
<defs>
<path id="b" d="m0 8.6603c2.2967 0 4.4997-0.9125 6.1237-2.5365 1.624-1.624 2.5365-3.827 2.5365-6.1237s-0.9125-4.4997-2.5365-6.1237c-1.624-1.624-3.827-2.5365-6.1237-2.5365s-4.4997 0.9125-6.1237 2.5365c-1.624 1.624-2.5365 3.827-2.5365 6.1237s0.9125 4.4997 2.5365 6.1237c1.624 1.624 3.827 2.5365 6.1237 2.5365z"/>
</defs>
<g clip-path="url(#a)">
<use x="94.562479" y="1042.722029" fill="#ffffff" stroke="#ffffff" xlink:href="#b"/>
</g>
<g clip-path="url(#a)">
<use x="140.616342" y="1042.722029" fill="#ffffff" stroke="#ffffff" xlink:href="#b"/>
</g>
<g clip-path="url(#a)">
<use x="186.670205" y="1042.722029" fill="#ffffff" stroke="#ffffff" xlink:href="#b"/>
</g>
<g clip-path="url(#a)">
<use x="232.724067" y="1042.722029" fill="#ffffff" stroke="#ffffff" xlink:href="#b"/>
</g>
<g clip-path="url(#a)">
<use x="278.77793" y="1042.722029" fill="#ffffff" stroke="#ffffff" xlink:href="#b"/>
</g>
<g clip-path="url(#a)">
<use x="324.831793" y="1042.722029" fill="#ffffff" stroke="#ffffff" xlink:href="#b"/>
</g>
<g clip-path="url(#a)">
<use x="370.885656" y="1042.722029" fill="#ffffff" stroke="#ffffff" xlink:href="#b"/>
</g>
<g clip-path="url(#a)">
<use x="416.939519" y="1042.722029" fill="#ffffff" stroke="#ffffff" xlink:href="#b"/>
</g>
<g clip-path="url(#a)">
<use x="462.993382" y="1042.722029" fill="#ffffff" stroke="#ffffff" xlink:href="#b"/>
</g>
<g clip-path="url(#a)">
<use x="509.047244" y="1042.722029" fill="#ffffff" stroke="#ffffff" xlink:href="#b"/>
</g>
<g clip-path="url(#a)">
<use x="555.101107" y="1042.722029" fill="#ffffff" stroke="#ffffff" xlink:href="#b"/>
</g>
<g clip-path="url(#a)">
<use x="601.15497" y="1042.722029" fill="#ffffff" stroke="#ffffff" xlink:href="#b"/>
</g>
<g clip-path="url(#a)">
<use x="647.208833" y="1042.722029" fill="#ffffff" stroke="#ffffff" xlink:href="#b"/>
</g>
<g clip-path="url(#a)">
<use x="693.262696" y="1042.722029" fill="#ffffff" stroke="#ffffff" xlink:href="#b"/>
</g>
<g clip-path="url(#a)">
<use x="739.316558" y="1042.722029" fill="#ffffff" stroke="#ffffff" xlink:href="#b"/>
</g>
<g clip-path="url(#a)">
<use x="785.370421" y="1042.722029" fill="#ffffff" stroke="#ffffff" xlink:href="#b"/>
</g>
<g clip-path="url(#a)">
<use x="831.424284" y="1042.722029" fill="#ffffff" stroke="#ffffff" xlink:href="#b"/>
</g>
<g clip-path="url(#a)">
<use x="877.478147" y="1042.722029" fill="#ffffff" stroke="#ffffff" xlink:href="#b"/>
</g>
<g clip-path="url(#a)">
<use x="923.53201" y="1042.722029" fill="#ffffff" stroke="#ffffff" xlink:href="#b"/>
</g>
<g clip-path="url(#a)">
<use x="969.585872" y="1042.722029" fill="#ffffff" stroke="#ffffff" xlink:href="#b"/>
</g>
<g clip-path="url(#a)">
<use x="1015.639735" y="1042.722029" fill="#ffffff" stroke="#ffffff" xlink:href="#b"/>
</g>
<g clip-path="url(#a)">
<use x="1061.693598" y="1042.722029" fill="#ffffff" stroke="#ffffff" xlink:href="#b"/>
</g>
<g clip-path="url(#a)">
<use x="1107.747461" y="1042.722029" fill="#ffffff" stroke="#ffffff" xlink:href="#b"/>
</g>
<g clip-path="url(#a)">
<use x="1153.801324" y="1042.722029" fill="#ffffff" stroke="#ffffff" xlink:href="#b"/>
</g>
<g clip-path="url(#a)">
<use x="1199.855187" y="1042.722029" fill="#ffffff" stroke="#ffffff" xlink:href="#b"/>
</g>
<g clip-path="url(#a)">
<use x="1245.909049" y="1042.722029" fill="#ffffff" stroke="#ffffff" xlink:href="#b"/>
</g>
<g clip-path="url(#a)">
<use x="1291.962912" y="1042.722029" fill="#ffffff" stroke="#ffffff" xlink:href="#b"/>
</g>
<g clip-path="url(#a)">
<use x="1338.016775" y="1042.722029" fill="#ffffff" stroke="#ffffff" xlink:href="#b"/>
</g>
<g clip-path="url(#a)">
<use x="1384.070638" y="1042.722029" fill="#ffffff" stroke="#ffffff" xlink:href="#b"/>
</g>
<g clip-path="url(#a)">
<use x="1430.124501" y="1042.722029" fill="#ffffff" stroke="#ffffff" xlink:href="#b"/>
</g>
<g clip-path="url(#a)">
<use x="1476.178363" y="1042.722029" fill="#ffffff" stroke="#ffffff" xlink:href="#b"/>
</g>
<g clip-path="url(#a)">
<use x="1522.232226" y="1042.722029" fill="#ffffff" stroke="#ffffff" xlink:href="#b"/>
</g>
<g clip-path="url(#a)">
<use x="1568.286089" y="1042.722029" fill="#ffffff" stroke="#ffffff" xlink:href="#b"/>
</g>
<g clip-path="url(#a)">
<use x="1614.339952" y="1042.722029" fill="#ffffff" stroke="#ffffff" xlink:href="#b"/>
</g>
<g clip-path="url(#a)">
<use x="1660.393815" y="1042.722029" fill="#ffffff" stroke="#ffffff" xlink:href="#b"/>
</g>
<g clip-path="url(#a)">
<use x="1706.447677" y="1042.722029" fill="#ffffff" stroke="#ffffff" xlink:href="#b"/>
</g>
<g clip-path="url(#a)">
<use x="1752.50154" y="1042.722029" fill="#ffffff" stroke="#ffffff" xlink:href="#b"/>
</g>
<g clip-path="url(#a)">
<use x="1798.555403" y="1042.722029" fill="#ffffff" stroke="#ffffff" xlink:href="#b"/>
</g>
<g clip-path="url(#a)">
<use x="1844.609266" y="1042.722029" fill="#ffffff" stroke="#ffffff" xlink:href="#b"/>
</g>
<g clip-path="url(#a)">
<use x="1890.663129" y="1042.722029" fill="#ffffff" stroke="#ffffff" xlink:href="#b"/>
</g>
<g clip-path="url(#a)">
<use x="1936.716992" y="1042.722029" fill="#ffffff" stroke="#ffffff" xlink:href="#b"/>
</g>
<g clip-path="url(#a)">
<use x="779.723525" y="50.611305" fill="#ffffff" stroke="#ffffff" xlink:href="#b"/>
</g>
<g clip-path="url(#a)">
<use x="241.252561" y="224.382889" fill="#ffffff" stroke="#ffffff" xlink:href="#b"/>
</g>
<g clip-path="url(#a)">
<use x="1266.49373" y="393.840969" fill="#ffffff" stroke="#ffffff" xlink:href="#b"/>
</g>
<g clip-path="url(#a)">
<use x="931.207653" y="722.076802" fill="#ffffff" stroke="#ffffff" xlink:href="#b"/>
</g>
<g clip-path="url(#a)">
<use x="1061.693598" y="882.399415" fill="#ffffff" stroke="#ffffff" xlink:href="#b"/>
</g>
<g clip-path="url(#a)">
<use x="1483.854007" y="559.523925" fill="#ffffff" stroke="#ffffff" xlink:href="#b"/>
</g>
<g clip-path="url(#a)">
<use x="1589.219663" y="559.523925" fill="#ffffff" stroke="#ffffff" xlink:href="#b"/>
</g>
<g clip-path="url(#a)">
<use x="1338.016775" y="882.399415" fill="#ffffff" stroke="#ffffff" xlink:href="#b"/>
</g>
<g clip-path="url(#a)">
<use x="1430.124501" y="882.399415" fill="#ffffff" stroke="#ffffff" xlink:href="#b"/>
</g>
<g clip-path="url(#a)">
<use x="1476.178363" y="882.399415" fill="#ffffff" stroke="#ffffff" xlink:href="#b"/>
</g>
<g clip-path="url(#a)">
<use x="1522.232226" y="882.399415" fill="#ffffff" stroke="#ffffff" xlink:href="#b"/>
</g>
<g clip-path="url(#a)">
<use x="1660.393815" y="722.076802" fill="#ffffff" stroke="#ffffff" xlink:href="#b"/>
</g>
<g clip-path="url(#a)">
<use x="1614.339952" y="882.399415" fill="#ffffff" stroke="#ffffff" xlink:href="#b"/>
</g>
<g clip-path="url(#a)">
<use x="1660.393815" y="882.399415" fill="#ffffff" stroke="#ffffff" xlink:href="#b"/>
</g>
<g clip-path="url(#a)">
<use x="1890.663129" y="722.076802" fill="#ffffff" stroke="#ffffff" xlink:href="#b"/>
</g>
<g clip-path="url(#a)">
<use x="1844.609266" y="882.399415" fill="#ffffff" stroke="#ffffff" xlink:href="#b"/>
</g>
<g clip-path="url(#a)">
<use x="1890.663129" y="882.399415" fill="#ffffff" stroke="#ffffff" xlink:href="#b"/>
</g>
<g clip-path="url(#a)">
<use x="1568.286089" y="882.399415" fill="#ffffff" stroke="#ffffff" xlink:href="#b"/>
</g>
<g clip-path="url(#a)">
<use x="1752.50154" y="882.399415" fill="#ffffff" stroke="#ffffff" xlink:href="#b"/>
</g>
<g clip-path="url(#a)">
<use x="1982.770854" y="1042.722029" fill="#ffffff" stroke="#ffffff" xlink:href="#b"/>
</g>
<g clip-path="url(#a)">
<use x="1176.828255" y="722.076802" fill="#ffffff" stroke="#ffffff" xlink:href="#b"/>
</g>
<g clip-path="url(#a)">
<use x="1291.962912" y="882.399415" fill="#ffffff" stroke="#ffffff" xlink:href="#b"/>
</g>
<g clip-path="url(#a)">
<use x="1107.747461" y="882.399415" fill="#ffffff" stroke="#ffffff" xlink:href="#b"/>
</g>
<g clip-path="url(#a)">
<use x="1153.801324" y="882.399415" fill="#ffffff" stroke="#ffffff" xlink:href="#b"/>
</g>
<g clip-path="url(#a)">
<use x="1199.855187" y="882.399415" fill="#ffffff" stroke="#ffffff" xlink:href="#b"/>
</g>
<g clip-path="url(#a)">
<use x="1245.909049" y="882.399415" fill="#ffffff" stroke="#ffffff" xlink:href="#b"/>
</g>
<g clip-path="url(#a)">
<use x="877.478147" y="882.399415" fill="#ffffff" stroke="#ffffff" xlink:href="#b"/>
</g>
<g clip-path="url(#a)">
<use x="923.53201" y="882.399415" fill="#ffffff" stroke="#ffffff" xlink:href="#b"/>
</g>
<g clip-path="url(#a)">
<use x="992.612804" y="882.399415" fill="#ffffff" stroke="#ffffff" xlink:href="#b"/>
</g>
<g clip-path="url(#a)">
<use x="94.562479" y="882.399415" fill="#ffffff" stroke="#ffffff" xlink:href="#b"/>
</g>
<g clip-path="url(#a)">
<use x="140.616342" y="882.399415" fill="#ffffff" stroke="#ffffff" xlink:href="#b"/>
</g>
<g clip-path="url(#a)">
<use x="488.578861" y="393.840969" fill="#ffffff" stroke="#ffffff" xlink:href="#b"/>
</g>
<g clip-path="url(#a)">
<use x="186.670205" y="882.399415" fill="#ffffff" stroke="#ffffff" xlink:href="#b"/>
</g>
<g clip-path="url(#a)">
<use x="363.210012" y="559.523925" fill="#ffffff" stroke="#ffffff" xlink:href="#b"/>
</g>
<g clip-path="url(#a)">
<use x="509.047244" y="882.399415" fill="#ffffff" stroke="#ffffff" xlink:href="#b"/>
</g>
<g clip-path="url(#a)">
<use x="555.101107" y="882.399415" fill="#ffffff" stroke="#ffffff" xlink:href="#b"/>
</g>
<g clip-path="url(#a)">
<use x="601.15497" y="882.399415" fill="#ffffff" stroke="#ffffff" xlink:href="#b"/>
</g>
<g clip-path="url(#a)">
<use x="716.289627" y="722.076802" fill="#ffffff" stroke="#ffffff" xlink:href="#b"/>
</g>
<g clip-path="url(#a)">
<use x="647.208833" y="882.399415" fill="#ffffff" stroke="#ffffff" xlink:href="#b"/>
</g>
<g clip-path="url(#a)">
<use x="693.262696" y="882.399415" fill="#ffffff" stroke="#ffffff" xlink:href="#b"/>
</g>
<g clip-path="url(#a)">
<use x="785.370421" y="882.399415" fill="#ffffff" stroke="#ffffff" xlink:href="#b"/>
</g>
<g clip-path="url(#a)">
<use x="255.750999" y="722.076802" fill="#ffffff" stroke="#ffffff" xlink:href="#b"/>
</g>
<g clip-path="url(#a)">
<use x="370.885656" y="722.076802" fill="#ffffff" stroke="#ffffff" xlink:href="#b"/>
</g>
<g clip-path="url(#a)">
<use x="462.993382" y="882.399415" fill="#ffffff" stroke="#ffffff" xlink:href="#b"/>
</g>
<g clip-path="url(#a)">
<use x="324.831793" y="882.399415" fill="#ffffff" stroke="#ffffff" xlink:href="#b"/>
</g>
<g clip-path="url(#a)">
<use x="416.939519" y="882.399415" fill="#ffffff" stroke="#ffffff" xlink:href="#b"/>
</g>
<g clip-path="url(#a)">
<use x="370.885656" y="882.399415" fill="#ffffff" stroke="#ffffff" xlink:href="#b"/>
</g>
<g clip-path="url(#a)">
<use x="232.724067" y="882.399415" fill="#ffffff" stroke="#ffffff" xlink:href="#b"/>
</g>
<g clip-path="url(#a)">
<use x="278.77793" y="882.399415" fill="#ffffff" stroke="#ffffff" xlink:href="#b"/>
</g>
<g clip-path="url(#a)">
<use x="739.316558" y="882.399415" fill="#ffffff" stroke="#ffffff" xlink:href="#b"/>
</g>
<g clip-path="url(#a)">
<use x="831.424284" y="882.399415" fill="#ffffff" stroke="#ffffff" xlink:href="#b"/>
</g>
<g clip-path="url(#a)">
<use x="1384.070638" y="882.399415" fill="#ffffff" stroke="#ffffff" xlink:href="#b"/>
</g>
<g clip-path="url(#a)">
<use x="1706.447677" y="882.399415" fill="#ffffff" stroke="#ffffff" xlink:href="#b"/>
</g>
<g clip-path="url(#a)">
<use x="1798.555403" y="882.399415" fill="#ffffff" stroke="#ffffff" xlink:href="#b"/>
</g>
<g clip-path="url(#a)">
<use x="1936.716992" y="882.399415" fill="#ffffff" stroke="#ffffff" xlink:href="#b"/>
</g>
<g clip-path="url(#a)">
<defs>
<path id="av" d="m9.8125 72.906h13.281l32.328-60.984v60.984h9.5625v-72.906h-13.281l-32.312 60.984v-60.984h-9.5781z"/>
<path id="ba" d="m54.891 54.688-19.781-26.609 20.797-28.078h-10.594l-15.922 21.484-15.906-21.484h-10.609l21.25 28.609-19.438 26.078h10.594l14.5-19.484 14.5 19.484z"/>
<path id="s" d="m30.609 48.391q-7.2188 0-11.422-5.6406t-4.2031-15.453 4.1719-15.453q4.1875-5.6406 11.453-5.6406 7.1875 0 11.375 5.6562 4.2031 5.6719 4.2031 15.438 0 9.7188-4.2031 15.406-4.1875 5.6875-11.375 5.6875zm0 7.6094q11.719 0 18.406-7.625 6.7031-7.6094 6.7031-21.078 0-13.422-6.7031-21.078-6.6875-7.6406-18.406-7.6406-11.766 0-18.438 7.6406-6.6562 7.6562-6.6562 21.078 0 13.469 6.6562 21.078 6.6719 7.625 18.438 7.625z"/>
</defs>
<g transform="translate(80.248 1045.5) scale(.1 -.1)">
<use xlink:href="#av"/>
<use x="74.804688" xlink:href="#h"/>
<use x="102.587891" xlink:href="#ba"/>
<use x="161.720703" xlink:href="#s"/>
<use x="222.902344" xlink:href="#e"/>
</g>
</g>
<g clip-path="url(#a)">
<defs>
<path id="ah" d="m48.688 27.297q0 9.9062-4.0781 15.547t-11.203 5.6406q-7.1406 0-11.219-5.6406t-4.0781-15.547 4.0781-15.547 11.219-5.6406q7.125 0 11.203 5.6406t4.0781 15.547zm-30.578 19.094q2.8438 4.875 7.1562 7.2344 4.3281 2.375 10.328 2.375 9.9688 0 16.188-7.9062 6.2344-7.9062 6.2344-20.797t-6.2344-20.812q-6.2188-7.9062-16.188-7.9062-6 0-10.328 2.375-4.3125 2.375-7.1562 7.25v-8.2031h-9.0312v75.984h9.0312z"/>
<path id="at" d="m2.9844 54.688h9.5156l17.094-45.891 17.094 45.891h9.5156l-20.516-54.688h-12.203z"/>
<path id="ad" d="m45.406 46.391v29.594h8.9844v-75.984h-8.9844v8.2031q-2.8281-4.875-7.1562-7.25-4.3125-2.375-10.375-2.375-9.9062 0-16.141 7.9062-6.2188 7.9219-6.2188 20.812t6.2188 20.797q6.2344 7.9062 16.141 7.9062 6.0625 0 10.375-2.375 4.3281-2.3594 7.1562-7.2344zm-30.609-19.094q0-9.9062 4.0781-15.547t11.203-5.6406 11.219 5.6406q4.1094 5.6406 4.1094 15.547t-4.1094 15.547q-4.0938 5.6406-11.219 5.6406t-11.203-5.6406-4.0781-15.547z"/>
</defs>
<g transform="translate(119.3 1045.5) scale(.1 -.1)">
<use xlink:href="#ah"/>
<use x="63.476562" xlink:href="#d"/>
<use x="125" xlink:href="#k"/>
<use x="152.783203" xlink:href="#h"/>
<use x="180.566406" xlink:href="#d"/>
<use x="242.089844" xlink:href="#at"/>
<use x="301.269531" xlink:href="#d"/>
<use x="362.792969" xlink:href="#ad"/>
</g>
</g>
<g clip-path="url(#a)">
<defs>
<path id="m" d="m18.312 70.219v-15.531h18.5v-6.9844h-18.5v-29.688q0-6.6875 1.8281-8.5938t7.4531-1.9062h9.2188v-7.5156h-9.2188q-10.406 0-14.359 3.875-3.9531 3.8906-3.9531 14.141v29.688h-6.5938v6.9844h6.5938v15.531z"/>
<path id="ag" d="m54.891 33.016v-33.016h-8.9844v32.719q0 7.7656-3.0312 11.609-3.0312 3.8594-9.0781 3.8594-7.2812 0-11.484-4.6406-4.2031-4.625-4.2031-12.641v-30.906h-9.0312v75.984h9.0312v-29.797q3.2344 4.9375 7.5938 7.375 4.375 2.4375 10.094 2.4375 9.4219 0 14.25-5.8281 4.8438-5.8281 4.8438-17.156z"/>
</defs>
<g transform="translate(176.52 1045.5) scale(.1 -.1)">
<use xlink:href="#m"/>
<use x="39.208984" xlink:href="#ag"/>
<use x="102.587891" xlink:href="#f"/>
<use x="163.867188" xlink:href="#m"/>
</g>
</g>
<g clip-path="url(#a)">
<defs>
<path id="am" d="m9.8125 72.906h9.8594v-64.609h35.5v-8.2969h-45.359z"/>
</defs>
<g transform="translate(214.3 1045.5) scale(.1 -.1)">
<use xlink:href="#am"/>
<use x="55.697266" xlink:href="#d"/>
<use x="117.220703" xlink:href="#e"/>
<use x="180.599609" xlink:href="#e"/>
<use x="243.978516" xlink:href="#s"/>
<use x="305.160156" xlink:href="#e"/>
</g>
</g>
<g clip-path="url(#a)">
<defs>
<path id="ay" d="m17.922 72.906v-27.109h-8.2969v27.109z"/>
<path id="t" d="m44.281 53.078v-8.5q-3.7969 1.9531-7.9062 2.9219-4.0938 0.98438-8.5 0.98438-6.6875 0-10.031-2.0469t-3.3438-6.1562q0-3.125 2.3906-4.9062t9.625-3.3906l3.0781-0.6875q9.5625-2.0469 13.594-5.7812t4.0312-10.422q0-7.625-6.0312-12.078-6.0312-4.4375-16.578-4.4375-4.3906 0-9.1562 0.85938t-10.031 2.5625v9.2812q4.9844-2.5938 9.8125-3.8906 4.8281-1.2812 9.5781-1.2812 6.3438 0 9.75 2.1719 3.4219 2.1719 3.4219 6.125 0 3.6562-2.4688 5.6094-2.4531 1.9531-10.812 3.7656l-3.125 0.73438q-8.3438 1.75-12.062 5.3906-3.7031 3.6406-3.7031 9.9844 0 7.7188 5.4688 11.906 5.4688 4.2031 15.531 4.2031 4.9688 0 9.3594-0.73438 4.4062-0.71875 8.1094-2.1875z"/>
</defs>
<g transform="translate(274.8 1045.5) scale(.1 -.1)">
<use xlink:href="#ay"/>
<use x="27.490234" xlink:href="#t"/>
</g>
</g>
<g clip-path="url(#a)">
<g transform="translate(315.25 1045.5) scale(.1 -.1)">
<use xlink:href="#f"/>
<use x="61.279297" xlink:href="#e"/>
<use x="124.658203" xlink:href="#m"/>
<use x="163.867188" xlink:href="#h"/>
</g>
</g>
<g clip-path="url(#a)">
<defs>
<path id="ap" d="m4.8906 31.391h26.312v-8h-26.312z"/>
</defs>
<g transform="translate(369.08 1045.5) scale(.1 -.1)">
<use xlink:href="#ap"/>
</g>
</g>
<g clip-path="url(#a)">
<defs>
<path id="as" d="m4.2031 54.688h8.9844l11.234-42.672 11.172 42.672h10.594l11.234-42.672 11.188 42.672h8.9844l-14.312-54.688h-10.594l-11.766 44.828-11.812-44.828h-10.609z"/>
</defs>
<g transform="translate(407.73 1045.5) scale(.1 -.1)">
<use xlink:href="#as"/>
<use x="81.787109" xlink:href="#f"/>
<use x="143.066406" xlink:href="#i"/>
</g>
</g>
<g clip-path="url(#a)">
<defs>
<path id="x" d="m48.781 52.594v-8.4062q-3.8125 2.1094-7.6406 3.1562t-7.7344 1.0469q-8.75 0-13.594-5.5469-4.8281-5.5312-4.8281-15.547t4.8281-15.562q4.8438-5.5312 13.594-5.5312 3.9062 0 7.7344 1.0469t7.6406 3.1562v-8.3125q-3.7656-1.75-7.7969-2.625-4.0156-0.89062-8.5625-0.89062-12.359 0-19.641 7.7656-7.2656 7.7656-7.2656 20.953 0 13.375 7.3438 21.031 7.3594 7.6719 20.156 7.6719 4.1406 0 8.0938-0.85938 3.9531-0.84375 7.6719-2.5469z"/>
</defs>
<g transform="translate(440.45 1045.5) scale(.1 -.1)">
<use xlink:href="#f"/>
<use x="61.279297" xlink:href="#x"/>
<use x="116.259766" xlink:href="#m"/>
<use x="155.46875" xlink:href="#h"/>
<use x="183.251953" xlink:href="#at"/>
<use x="242.431641" xlink:href="#h"/>
<use x="270.214844" xlink:href="#m"/>
<use x="309.423828" xlink:href="#h"/>
<use x="337.207031" xlink:href="#d"/>
<use x="398.730469" xlink:href="#t"/>
</g>
</g>
<g clip-path="url(#a)">
<defs>
<path id="w" d="m8.5 21.578v33.109h8.9844v-32.766q0-7.7656 3.0156-11.656 3.0312-3.875 9.0938-3.875 7.2656 0 11.484 4.6406 4.2344 4.6406 4.2344 12.656v31h8.9844v-54.688h-8.9844v8.4062q-3.2656-4.9844-7.5938-7.4062-4.3125-2.4219-10.031-2.4219-9.4219 0-14.312 5.8594-4.875 5.8594-4.875 17.141z"/>
</defs>
<g transform="translate(495.51 1045.5) scale(.1 -.1)">
<use xlink:href="#x"/>
<use x="54.980469" xlink:href="#s"/>
<use x="116.162109" xlink:href="#w"/>
<use x="179.541016" xlink:href="#k"/>
<use x="207.324219" xlink:href="#ad"/>
</g>
</g>
<g clip-path="url(#a)">
<g transform="translate(544.73 1045.5) scale(.1 -.1)">
<use xlink:href="#x"/>
<use x="54.980469" xlink:href="#s"/>
<use x="116.162109" xlink:href="#t"/>
<use x="168.261719" xlink:href="#m"/>
</g>
</g>
<g clip-path="url(#a)">
<g transform="translate(591.73 1045.5) scale(.1 -.1)">
<use xlink:href="#ag"/>
<use x="63.378906" xlink:href="#h"/>
<use x="91.162109" xlink:href="#j"/>
</g>
</g>
<g clip-path="url(#a)">
<g transform="translate(640.05 1045.5) scale(.1 -.1)">
<use xlink:href="#ag"/>
<use x="63.378906" xlink:href="#h"/>
<use x="91.162109" xlink:href="#t"/>
</g>
</g>
<g clip-path="url(#a)">
<g transform="translate(688.13 1045.5) scale(.1 -.1)">
<use xlink:href="#i"/>
<use x="41.082031" xlink:href="#d"/>
</g>
</g>
<g clip-path="url(#a)">
<g transform="translate(737.51 1045.5) scale(.1 -.1)">
<use xlink:href="#ap"/>
</g>
</g>
<g clip-path="url(#a)">
<g transform="translate(765.5 1045.5) scale(.1 -.1)">
<use xlink:href="#d"/>
<use x="61.523438" xlink:href="#k"/>
<use x="89.306641" xlink:href="#d"/>
<use x="150.830078" xlink:href="#x"/>
<use x="205.810547" xlink:href="#m"/>
<use x="245.019531" xlink:href="#h"/>
<use x="272.802734" xlink:href="#s"/>
<use x="333.984375" xlink:href="#e"/>
</g>
</g>
<g clip-path="url(#a)">
<defs>
<path id="ax" d="m11.719 51.703h10.297v-12.391h-10.297zm0-39.297h10.297v-8.4062l-8-15.625h-6.2969l4 15.625z"/>
</defs>
<g transform="translate(829.74 1045.5) scale(.1 -.1)">
<use xlink:href="#ax"/>
</g>
</g>
<g clip-path="url(#a)">
<defs>
<path id="au" d="m18.109 8.2031v-29h-9.0312v75.484h9.0312v-8.2969q2.8438 4.875 7.1562 7.2344 4.3281 2.375 10.328 2.375 9.9688 0 16.188-7.9062 6.2344-7.9062 6.2344-20.797t-6.2344-20.812q-6.2188-7.9062-16.188-7.9062-6 0-10.328 2.375-4.3125 2.375-7.1562 7.25zm30.578 19.094q0 9.9062-4.0781 15.547t-11.203 5.6406q-7.1406 0-11.219-5.6406t-4.0781-15.547 4.0781-15.547 11.219-5.6406q7.125 0 11.203 5.6406t4.0781 15.547z"/>
</defs>
<g transform="translate(849.65 1045.5) scale(.1 -.1)">
<use xlink:href="#aa"/>
<use x="69.419922" xlink:href="#d"/>
<use x="130.943359" xlink:href="#au"/>
<use x="194.419922" xlink:href="#w"/>
<use x="257.798828" xlink:href="#ah"/>
<use x="321.275391" xlink:href="#k"/>
<use x="349.058594" xlink:href="#h"/>
<use x="376.841797" xlink:href="#x"/>
<use x="431.822266" xlink:href="#f"/>
<use x="493.101562" xlink:href="#e"/>
</g>
</g>
<g clip-path="url(#a)">
<g transform="translate(903.97 1045.5) scale(.1 -.1)">
<use xlink:href="#al"/>
<use x="63.476562" xlink:href="#d"/>
<use x="125" xlink:href="#e"/>
<use x="188.378906" xlink:href="#f"/>
<use x="249.658203" xlink:href="#m"/>
<use x="288.867188" xlink:href="#s"/>
<use x="350.048828" xlink:href="#i"/>
</g>
</g>
<g clip-path="url(#a)">
<g transform="translate(954.47 1045.5) scale(.1 -.1)">
<use xlink:href="#al"/>
<use x="63.476562" xlink:href="#m"/>
<use x="102.685547" xlink:href="#i"/>
<use x="143.767578" xlink:href="#s"/>
<use x="204.949219" xlink:href="#j"/>
</g>
</g>
<g clip-path="url(#a)">
<g transform="translate(989.92 1045.5) scale(.1 -.1)">
<use xlink:href="#l"/>
<use x="61.083984" xlink:href="#ag"/>
<use x="124.462891" xlink:href="#w"/>
<use x="187.841797" xlink:href="#i"/>
<use x="228.939453" xlink:href="#j"/>
<use x="326.351562" xlink:href="#s"/>
<use x="387.533203" xlink:href="#e"/>
<use x="450.912109" xlink:href="#ad"/>
</g>
</g>
<g clip-path="url(#a)">
<defs>
<path id="ak" d="m45.406 27.984q0 9.7656-4.0312 15.125-4.0156 5.375-11.297 5.375-7.2188 0-11.25-5.375-4.0312-5.3594-4.0312-15.125 0-9.7188 4.0312-15.094t11.25-5.375q7.2812 0 11.297 5.375 4.0312 5.375 4.0312 15.094zm8.9844-21.203q0-13.953-6.2031-20.766-6.1875-6.8125-18.984-6.8125-4.7344 0-8.9375 0.70312t-8.1562 2.1719v8.7344q3.9531-2.1406 7.8125-3.1562 3.8594-1.0312 7.8594-1.0312 8.8438 0 13.234 4.6094t4.3906 13.938v4.4531q-2.7812-4.8438-7.125-7.2344t-10.406-2.3906q-10.047 0-16.203 7.6562-6.1562 7.6719-6.1562 20.328 0 12.688 6.1562 20.344 6.1562 7.6719 16.203 7.6719 6.0625 0 10.406-2.3906t7.125-7.2188v8.2969h8.9844z"/>
</defs>
<g transform="translate(1035.7 1045.5) scale(.1 -.1)">
<use xlink:href="#t"/>
<use x="52.099609" xlink:href="#w"/>
<use x="115.478516" xlink:href="#ak"/>
<use x="178.955078" xlink:href="#ak"/>
<use x="242.431641" xlink:href="#d"/>
<use x="303.955078" xlink:href="#t"/>
<use x="356.054688" xlink:href="#m"/>
<use x="395.263672" xlink:href="#d"/>
<use x="456.787109" xlink:href="#ad"/>
</g>
</g>
<g clip-path="url(#a)">
<g transform="translate(1103.2 1045.5) scale(.1 -.1)">
<use xlink:href="#h"/>
<use x="27.783203" xlink:href="#e"/>
</g>
</g>
<g clip-path="url(#a)">
<g transform="translate(1150.7 1045.5) scale(.1 -.1)">
<use xlink:href="#f"/>
</g>
</g>
<g clip-path="url(#a)">
<defs>
<path id="az" d="m32.172-5.0781q-3.7969-9.7656-7.4219-12.734-3.6094-2.9844-9.6562-2.9844h-7.1875v7.5156h5.2812q3.7031 0 5.75 1.7656 2.0625 1.75 4.5469 8.2969l1.6094 4.0938-22.109 53.812h9.5156l17.094-42.766 17.094 42.766h9.5156z"/>
</defs>
<g transform="translate(1177.4 1045.5) scale(.1 -.1)">
<use xlink:href="#ai"/>
<use x="57.441406" xlink:href="#d"/>
<use x="118.964844" xlink:href="#ah"/>
<use x="182.441406" xlink:href="#i"/>
<use x="223.554688" xlink:href="#w"/>
<use x="286.933594" xlink:href="#f"/>
<use x="348.212891" xlink:href="#i"/>
<use x="389.326172" xlink:href="#az"/>
</g>
</g>
<g clip-path="url(#a)">
<defs>
<path id="c" d="m12.406 8.2969h16.109v55.625l-17.531-3.5156v8.9844l17.438 3.5156h9.8594v-64.609h16.109v-8.2969h-41.984z"/>
<path id="ab" d="m10.984 1.5156v8.9844q3.7188-1.7656 7.5156-2.6875 3.8125-0.92188 7.4844-0.92188 9.7656 0 14.906 6.5625 5.1562 6.5625 5.8906 19.953-2.8281-4.2031-7.1875-6.4531-4.3438-2.25-9.6094-2.25-10.938 0-17.312 6.6094-6.375 6.625-6.375 18.109 0 11.219 6.6406 18 6.6406 6.7969 17.672 6.7969 12.656 0 19.312-9.7031 6.6719-9.6875 6.6719-28.141 0-17.234-8.1875-27.516-8.1719-10.281-21.984-10.281-3.7188 0-7.5312 0.73438-3.7969 0.73438-7.9062 2.2031zm19.625 30.906q6.6406 0 10.516 4.5312 3.8906 4.5469 3.8906 12.469 0 7.8594-3.8906 12.422-3.875 4.5625-10.516 4.5625t-10.516-4.5625-3.875-12.422q0-7.9219 3.875-12.469 3.875-4.5312 10.516-4.5312z"/>
<path id="ac" d="m8.2031 72.906h46.875v-4.2031l-26.469-68.703h-10.297l24.906 64.594h-35.016z"/>
<path id="p" d="m19.188 8.2969h34.422v-8.2969h-46.281v8.2969q5.6094 5.8125 15.297 15.594 9.7031 9.7969 12.188 12.641 4.7344 5.3125 6.6094 9 1.8906 3.6875 1.8906 7.25 0 5.8125-4.0781 9.4688-4.0781 3.6719-10.625 3.6719-4.6406 0-9.7969-1.6094-5.1406-1.6094-11-4.8906v9.9688q5.9531 2.3906 11.125 3.6094 5.1875 1.2188 9.4844 1.2188 11.328 0 18.062-5.6719 6.7344-5.6562 6.7344-15.125 0-4.5-1.6875-8.5312-1.6719-4.0156-6.125-9.4844-1.2188-1.4219-7.7656-8.1875-6.5312-6.7656-18.453-18.922z"/>
</defs>
<g transform="translate(1233.2 1045.5) scale(.1 -.1)">
<use xlink:href="#c"/>
<use x="63.623047" xlink:href="#ab"/>
<use x="127.246094" xlink:href="#ac"/>
<use x="190.869141" xlink:href="#p"/>
</g>
</g>
<g clip-path="url(#a)">
<g transform="translate(1276.1 1045.5) scale(.1 -.1)">
<use xlink:href="#j"/>
<use x="97.412109" xlink:href="#d"/>
<use x="158.935547" xlink:href="#j"/>
<use x="256.347656" xlink:href="#s"/>
</g>
</g>
<g clip-path="url(#a)">
<g transform="translate(1327.9 1045.5) scale(.1 -.1)">
<use xlink:href="#m"/>
<use x="39.208984" xlink:href="#ag"/>
<use x="102.587891" xlink:href="#f"/>
<use x="163.867188" xlink:href="#m"/>
</g>
</g>
<g clip-path="url(#a)">
<defs>
<path id="ar" d="m17.922 72.906v-27.109h-8.2969v27.109zm18.453 0v-27.109h-8.2969v27.109z"/>
</defs>
<g transform="translate(1381.8 1045.5) scale(.1 -.1)">
<use xlink:href="#ar"/>
</g>
</g>
<g clip-path="url(#a)">
<g transform="translate(1401 1045.5) scale(.1 -.1)">
<use xlink:href="#ad"/>
<use x="63.476562" xlink:href="#d"/>
<use x="125" xlink:href="#au"/>
<use x="188.476562" xlink:href="#s"/>
<use x="249.658203" xlink:href="#i"/>
<use x="290.771484" xlink:href="#m"/>
<use x="329.980469" xlink:href="#f"/>
<use x="391.259766" xlink:href="#m"/>
<use x="430.46875" xlink:href="#h"/>
<use x="458.251953" xlink:href="#s"/>
<use x="519.433594" xlink:href="#e"/>
</g>
</g>
<g clip-path="url(#a)">
<g transform="translate(1461.3 1045.5) scale(.1 -.1)">
<use xlink:href="#as"/>
<use x="81.787109" xlink:href="#s"/>
<use x="142.96875" xlink:href="#w"/>
<use x="206.347656" xlink:href="#k"/>
<use x="234.130859" xlink:href="#ad"/>
</g>
</g>
<g clip-path="url(#a)">
<g transform="translate(1516 1045.5) scale(.1 -.1)">
<use xlink:href="#ah"/>
<use x="63.476562" xlink:href="#d"/>
</g>
</g>
<g clip-path="url(#a)">
<g transform="translate(1565.2 1045.5) scale(.1 -.1)">
<use xlink:href="#f"/>
</g>
</g>
<g clip-path="url(#a)">
<g transform="translate(1592.3 1045.5) scale(.1 -.1)">
<use xlink:href="#t"/>
<use x="52.099609" xlink:href="#m"/>
<use x="91.308594" xlink:href="#i"/>
<use x="132.421875" xlink:href="#f"/>
<use x="193.701172" xlink:href="#m"/>
<use x="232.910156" xlink:href="#d"/>
<use x="294.433594" xlink:href="#ak"/>
<use x="357.910156" xlink:href="#h"/>
<use x="385.693359" xlink:href="#x"/>
</g>
</g>
<g clip-path="url(#a)">
<g transform="translate(1641.2 1045.5) scale(.1 -.1)">
<use xlink:href="#x"/>
<use x="54.980469" xlink:href="#s"/>
<use x="116.162109" xlink:href="#w"/>
<use x="179.541016" xlink:href="#e"/>
<use x="242.919922" xlink:href="#m"/>
<use x="282.128906" xlink:href="#d"/>
<use x="343.652344" xlink:href="#i"/>
</g>
</g>
<g clip-path="url(#a)">
<g transform="translate(1704.6 1045.5) scale(.1 -.1)">
<use xlink:href="#ap"/>
</g>
</g>
<g clip-path="url(#a)">
<g transform="translate(1730.6 1045.5) scale(.1 -.1)">
<use xlink:href="#j"/>
<use x="97.412109" xlink:href="#d"/>
<use x="158.935547" xlink:href="#f"/>
<use x="220.214844" xlink:href="#t"/>
<use x="272.314453" xlink:href="#w"/>
<use x="335.693359" xlink:href="#i"/>
<use x="376.775391" xlink:href="#d"/>
</g>
</g>
<g clip-path="url(#a)">
<g transform="translate(1796.3 1045.5) scale(.1 -.1)">
<use xlink:href="#ar"/>
</g>
</g>
<g clip-path="url(#a)">
<g transform="translate(1826.2 1045.5) scale(.1 -.1)">
<use xlink:href="#f"/>
<use x="61.279297" xlink:href="#ak"/>
<use x="124.755859" xlink:href="#f"/>
<use x="186.035156" xlink:href="#h"/>
<use x="213.818359" xlink:href="#e"/>
<use x="277.197266" xlink:href="#t"/>
<use x="329.296875" xlink:href="#m"/>
</g>
</g>
<g clip-path="url(#a)">
<g transform="translate(1872.2 1045.5) scale(.1 -.1)">
<use xlink:href="#am"/>
<use x="55.697266" xlink:href="#d"/>
<use x="117.220703" xlink:href="#e"/>
<use x="180.599609" xlink:href="#e"/>
<use x="243.978516" xlink:href="#s"/>
<use x="305.160156" xlink:href="#e"/>
</g>
</g>
<g clip-path="url(#a)">
<defs>
<path id="g" d="m10.688 12.406h10.312v-12.406h-10.312z"/>
</defs>
<g transform="translate(1935.1 1045.5) scale(.1 -.1)">
<use xlink:href="#g"/>
</g>
</g>
<g clip-path="url(#a)">
<g transform="translate(771.77 53.371) scale(.1 -.1)">
<use xlink:href="#c"/>
<use x="63.623047" xlink:href="#g"/>
<use x="95.410156" xlink:href="#c"/>
</g>
</g>
<g clip-path="url(#a)">
<g transform="translate(233.3 227.14) scale(.1 -.1)">
<use xlink:href="#c"/>
<use x="63.623047" xlink:href="#g"/>
<use x="95.410156" xlink:href="#p"/>
</g>
</g>
<g clip-path="url(#a)">
<defs>
<path id="n" d="m40.578 39.312q7.0781-1.5156 11.047-6.3125 3.9844-4.7812 3.9844-11.812 0-10.781-7.4219-16.703-7.4219-5.9062-21.094-5.9062-4.5781 0-9.4375 0.90625t-10.031 2.7188v9.5156q4.0938-2.3906 8.9688-3.6094 4.8906-1.2188 10.219-1.2188 9.2656 0 14.125 3.6562t4.8594 10.641q0 6.4531-4.5156 10.078-4.5156 3.6406-12.562 3.6406h-8.5v8.1094h8.8906q7.2656 0 11.125 2.9062t3.8594 8.375q0 5.6094-3.9844 8.6094-3.9688 3.0156-11.391 3.0156-4.0625 0-8.7031-0.89062-4.6406-0.875-10.203-2.7188v8.7812q5.625 1.5625 10.531 2.3438t9.25 0.78125q11.234 0 17.766-5.1094 6.5469-5.0938 6.5469-13.781 0-6.0625-3.4688-10.234t-9.8594-5.7812z"/>
</defs>
<g transform="translate(1258.5 396.6) scale(.1 -.1)">
<use xlink:href="#c"/>
<use x="63.623047" xlink:href="#g"/>
<use x="95.410156" xlink:href="#n"/>
</g>
</g>
<g clip-path="url(#a)">
<defs>
<path id="v" d="m33.016 40.375q-6.6406 0-10.531-4.5469-3.875-4.5312-3.875-12.438 0-7.8594 3.875-12.438 3.8906-4.5625 10.531-4.5625t10.516 4.5625q3.875 4.5781 3.875 12.438 0 7.9062-3.875 12.438-3.875 4.5469-10.516 4.5469zm19.578 30.922v-8.9844q-3.7188 1.75-7.5 2.6719-3.7812 0.9375-7.5 0.9375-9.7656 0-14.922-6.5938-5.1406-6.5938-5.875-19.922 2.875 4.25 7.2188 6.5156 4.3594 2.2656 9.5781 2.2656 10.984 0 17.359-6.6719 6.375-6.6562 6.375-18.125 0-11.234-6.6406-18.031-6.6406-6.7812-17.672-6.7812-12.656 0-19.344 9.6875-6.6875 9.7031-6.6875 28.109 0 17.281 8.2031 27.562t22.016 10.281q3.7188 0 7.5-0.73438t7.8906-2.1875z"/>
</defs>
<g transform="translate(923.26 724.84) scale(.1 -.1)">
<use xlink:href="#c"/>
<use x="63.623047" xlink:href="#g"/>
<use x="95.410156" xlink:href="#v"/>
</g>
</g>
<g clip-path="url(#a)">
<g transform="translate(1053.7 885.16) scale(.1 -.1)">
<use xlink:href="#c"/>
<use x="63.623047" xlink:href="#g"/>
<use x="95.410156" xlink:href="#ac"/>
</g>
</g>
<g clip-path="url(#a)">
<defs>
<path id="ae" d="m31.781 34.625q-7.0312 0-11.062-3.7656-4.0156-3.7656-4.0156-10.344 0-6.5938 4.0156-10.359 4.0312-3.7656 11.062-3.7656t11.078 3.7812q4.0625 3.7969 4.0625 10.344 0 6.5781-4.0312 10.344-4.0156 3.7656-11.109 3.7656zm-9.8594 4.1875q-6.3438 1.5625-9.8906 5.9062-3.5312 4.3594-3.5312 10.609 0 8.7344 6.2188 13.812 6.2344 5.0781 17.062 5.0781 10.891 0 17.094-5.0781t6.2031-13.812q0-6.25-3.5469-10.609-3.5312-4.3438-9.8281-5.9062 7.125-1.6562 11.094-6.5 3.9844-4.8281 3.9844-11.797 0-10.609-6.4688-16.281-6.4688-5.6562-18.531-5.6562-12.047 0-18.531 5.6562-6.4688 5.6719-6.4688 16.281 0 6.9688 4 11.797 4.0156 4.8438 11.141 6.5zm-3.6094 15.578q0-5.6562 3.5312-8.8281 3.5469-3.1719 9.9375-3.1719 6.3594 0 9.9375 3.1719 3.5938 3.1719 3.5938 8.8281 0 5.6719-3.5938 8.8438-3.5781 3.1719-9.9375 3.1719-6.3906 0-9.9375-3.1719-3.5312-3.1719-3.5312-8.8438z"/>
</defs>
<g transform="translate(1475.9 562.28) scale(.1 -.1)">
<use xlink:href="#c"/>
<use x="63.623047" xlink:href="#g"/>
<use x="95.410156" xlink:href="#ae"/>
</g>
</g>
<g clip-path="url(#a)">
<g transform="translate(1581.3 562.28) scale(.1 -.1)">
<use xlink:href="#c"/>
<use x="63.623047" xlink:href="#g"/>
<use x="95.410156" xlink:href="#ab"/>
</g>
</g>
<g clip-path="url(#a)">
<defs>
<path id="af" d="m31.781 66.406q-7.6094 0-11.453-7.5-3.8281-7.4844-3.8281-22.531 0-14.984 3.8281-22.484 3.8438-7.5 11.453-7.5 7.6719 0 11.5 7.5 3.8438 7.5 3.8438 22.484 0 15.047-3.8438 22.531-3.8281 7.5-11.5 7.5zm0 7.8125q12.266 0 18.734-9.7031 6.4688-9.6875 6.4688-28.141 0-18.406-6.4688-28.109-6.4688-9.6875-18.734-9.6875-12.25 0-18.719 9.6875-6.4688 9.7031-6.4688 28.109 0 18.453 6.4688 28.141 6.4688 9.7031 18.719 9.7031z"/>
</defs>
<g transform="translate(1326.9 885.16) scale(.1 -.1)">
<use xlink:href="#c"/>
<use x="63.623047" xlink:href="#g"/>
<use x="95.410156" xlink:href="#c"/>
<use x="159.033203" xlink:href="#af"/>
</g>
</g>
<g clip-path="url(#a)">
<g transform="translate(1419 885.16) scale(.1 -.1)">
<use xlink:href="#c"/>
<use x="63.623047" xlink:href="#g"/>
<use x="95.410156" xlink:href="#c"/>
<use x="159.033203" xlink:href="#c"/>
</g>
</g>
<g clip-path="url(#a)">
<g transform="translate(1465 885.16) scale(.1 -.1)">
<use xlink:href="#c"/>
<use x="63.623047" xlink:href="#g"/>
<use x="95.410156" xlink:href="#c"/>
<use x="159.033203" xlink:href="#p"/>
</g>
</g>
<g clip-path="url(#a)">
<g transform="translate(1511.1 885.16) scale(.1 -.1)">
<use xlink:href="#c"/>
<use x="63.623047" xlink:href="#g"/>
<use x="95.410156" xlink:href="#c"/>
<use x="159.033203" xlink:href="#n"/>
</g>
</g>
<g clip-path="url(#a)">
<defs>
<path id="r" d="m37.797 64.312-24.906-38.922h24.906zm-2.5938 8.5938h12.406v-47.516h10.406v-8.2031h-10.406v-17.188h-9.8125v17.188h-32.906v9.5156z"/>
</defs>
<g transform="translate(1649.3 724.84) scale(.1 -.1)">
<use xlink:href="#c"/>
<use x="63.623047" xlink:href="#g"/>
<use x="95.410156" xlink:href="#c"/>
<use x="159.033203" xlink:href="#r"/>
</g>
</g>
<g clip-path="url(#a)">
<defs>
<path id="q" d="m10.797 72.906h38.719v-8.3125h-29.688v-17.859q2.1406 0.73438 4.2812 1.0938 2.1562 0.35938 4.3125 0.35938 12.203 0 19.328-6.6875 7.1406-6.6875 7.1406-18.109 0-11.766-7.3281-18.297-7.3281-6.5156-20.656-6.5156-4.5938 0-9.3594 0.78125-4.75 0.78125-9.8281 2.3438v9.9219q4.3906-2.3906 9.0781-3.5625t9.9062-1.1719q8.4531 0 13.375 4.4375 4.9375 4.4375 4.9375 12.062 0 7.6094-4.9375 12.047-4.9219 4.4531-13.375 4.4531-3.9531 0-7.8906-0.875-3.9219-0.875-8.0156-2.7344z"/>
</defs>
<g transform="translate(1603.2 885.16) scale(.1 -.1)">
<use xlink:href="#c"/>
<use x="63.623047" xlink:href="#g"/>
<use x="95.410156" xlink:href="#c"/>
<use x="159.033203" xlink:href="#q"/>
</g>
</g>
<g clip-path="url(#a)">
<g transform="translate(1649.3 885.16) scale(.1 -.1)">
<use xlink:href="#c"/>
<use x="63.623047" xlink:href="#g"/>
<use x="95.410156" xlink:href="#c"/>
<use x="159.033203" xlink:href="#v"/>
</g>
</g>
<g clip-path="url(#a)">
<g transform="translate(1879.5 724.84) scale(.1 -.1)">
<use xlink:href="#c"/>
<use x="63.623047" xlink:href="#g"/>
<use x="95.410156" xlink:href="#c"/>
<use x="159.033203" xlink:href="#ac"/>
</g>
</g>
<g clip-path="url(#a)">
<g transform="translate(1833.5 885.16) scale(.1 -.1)">
<use xlink:href="#c"/>
<use x="63.623047" xlink:href="#g"/>
<use x="95.410156" xlink:href="#p"/>
<use x="159.033203" xlink:href="#c"/>
</g>
</g>
<g clip-path="url(#a)">
<g transform="translate(1879.5 885.16) scale(.1 -.1)">
<use xlink:href="#c"/>
<use x="63.623047" xlink:href="#g"/>
<use x="95.410156" xlink:href="#p"/>
<use x="159.033203" xlink:href="#p"/>
</g>
</g>
<g clip-path="url(#a)">
<g transform="translate(1557.2 885.16) scale(.1 -.1)">
<use xlink:href="#c"/>
<use x="63.623047" xlink:href="#g"/>
<use x="95.410156" xlink:href="#p"/>
<use x="159.033203" xlink:href="#n"/>
</g>
</g>
<g clip-path="url(#a)">
<g transform="translate(1741.4 885.16) scale(.1 -.1)">
<use xlink:href="#c"/>
<use x="63.623047" xlink:href="#g"/>
<use x="95.410156" xlink:href="#p"/>
<use x="159.033203" xlink:href="#r"/>
</g>
</g>
<g clip-path="url(#a)">
<defs>
<path id="an" d="m9.8125 72.906h9.8594v-72.906h-9.8594z"/>
<path id="aw" d="m9.8125 72.906h14.703l18.594-49.609 18.703 49.609h14.703v-72.906h-9.625v64.016l-18.797-50h-9.9062l-18.797 50v-64.016h-9.5781z"/>
</defs>
<g transform="translate(1961.7 1045.5) scale(.1 -.1)">
<use xlink:href="#an"/>
<use x="29.492188" xlink:href="#aw"/>
<use x="115.771484" xlink:href="#z"/>
<use x="176.074219" xlink:href="#am"/>
<use x="231.787109" xlink:href="#an"/>
<use x="261.279297" xlink:href="#u"/>
<use x="331.103516" xlink:href="#an"/>
<use x="360.595703" xlink:href="#l"/>
</g>
</g>
<g clip-path="url(#a)">
<g transform="translate(1165.7 724.84) scale(.1 -.1)">
<use xlink:href="#c"/>
<use x="63.623047" xlink:href="#g"/>
<use x="95.410156" xlink:href="#p"/>
<use x="159.033203" xlink:href="#v"/>
</g>
</g>
<g clip-path="url(#a)">
<g transform="translate(1280.8 885.16) scale(.1 -.1)">
<use xlink:href="#c"/>
<use x="63.623047" xlink:href="#g"/>
<use x="95.410156" xlink:href="#p"/>
<use x="159.033203" xlink:href="#ac"/>
</g>
</g>
<g clip-path="url(#a)">
<g transform="translate(1096.6 885.16) scale(.1 -.1)">
<use xlink:href="#c"/>
<use x="63.623047" xlink:href="#g"/>
<use x="95.410156" xlink:href="#p"/>
<use x="159.033203" xlink:href="#ae"/>
</g>
</g>
<g clip-path="url(#a)">
<g transform="translate(1142.7 885.16) scale(.1 -.1)">
<use xlink:href="#c"/>
<use x="63.623047" xlink:href="#g"/>
<use x="95.410156" xlink:href="#p"/>
<use x="159.033203" xlink:href="#ab"/>
</g>
</g>
<g clip-path="url(#a)">
<g transform="translate(1188.7 885.16) scale(.1 -.1)">
<use xlink:href="#c"/>
<use x="63.623047" xlink:href="#g"/>
<use x="95.410156" xlink:href="#n"/>
<use x="159.033203" xlink:href="#af"/>
</g>
</g>
<g clip-path="url(#a)">
<g transform="translate(1234.8 885.16) scale(.1 -.1)">
<use xlink:href="#c"/>
<use x="63.623047" xlink:href="#g"/>
<use x="95.410156" xlink:href="#n"/>
<use x="159.033203" xlink:href="#c"/>
</g>
</g>
<g clip-path="url(#a)">
<g transform="translate(866.35 885.16) scale(.1 -.1)">
<use xlink:href="#c"/>
<use x="63.623047" xlink:href="#g"/>
<use x="95.410156" xlink:href="#n"/>
<use x="159.033203" xlink:href="#p"/>
</g>
</g>
<g clip-path="url(#a)">
<g transform="translate(912.4 885.16) scale(.1 -.1)">
<use xlink:href="#c"/>
<use x="63.623047" xlink:href="#g"/>
<use x="95.410156" xlink:href="#n"/>
<use x="159.033203" xlink:href="#n"/>
</g>
</g>
<g clip-path="url(#a)">
<g transform="translate(981.48 885.16) scale(.1 -.1)">
<use xlink:href="#c"/>
<use x="63.623047" xlink:href="#g"/>
<use x="95.410156" xlink:href="#n"/>
<use x="159.033203" xlink:href="#r"/>
</g>
</g>
<g clip-path="url(#a)">
<g transform="translate(83.43 885.16) scale(.1 -.1)">
<use xlink:href="#c"/>
<use x="63.623047" xlink:href="#g"/>
<use x="95.410156" xlink:href="#n"/>
<use x="159.033203" xlink:href="#q"/>
</g>
</g>
<g clip-path="url(#a)">
<g transform="translate(129.48 885.16) scale(.1 -.1)">
<use xlink:href="#c"/>
<use x="63.623047" xlink:href="#g"/>
<use x="95.410156" xlink:href="#n"/>
<use x="159.033203" xlink:href="#v"/>
</g>
</g>
<g clip-path="url(#a)">
<g transform="translate(477.45 396.6) scale(.1 -.1)">
<use xlink:href="#c"/>
<use x="63.623047" xlink:href="#g"/>
<use x="95.410156" xlink:href="#n"/>
<use x="159.033203" xlink:href="#ac"/>
</g>
</g>
<g clip-path="url(#a)">
<g transform="translate(175.54 885.16) scale(.1 -.1)">
<use xlink:href="#c"/>
<use x="63.623047" xlink:href="#g"/>
<use x="95.410156" xlink:href="#n"/>
<use x="159.033203" xlink:href="#ae"/>
</g>
</g>
<g clip-path="url(#a)">
<g transform="translate(352.08 562.28) scale(.1 -.1)">
<use xlink:href="#c"/>
<use x="63.623047" xlink:href="#g"/>
<use x="95.410156" xlink:href="#n"/>
<use x="159.033203" xlink:href="#ab"/>
</g>
</g>
<g clip-path="url(#a)">
<g transform="translate(497.91 885.16) scale(.1 -.1)">
<use xlink:href="#c"/>
<use x="63.623047" xlink:href="#g"/>
<use x="95.410156" xlink:href="#r"/>
<use x="159.033203" xlink:href="#af"/>
</g>
</g>
<g clip-path="url(#a)">
<g transform="translate(543.97 885.16) scale(.1 -.1)">
<use xlink:href="#c"/>
<use x="63.623047" xlink:href="#g"/>
<use x="95.410156" xlink:href="#r"/>
<use x="159.033203" xlink:href="#c"/>
</g>
</g>
<g clip-path="url(#a)">
<g transform="translate(590.02 885.16) scale(.1 -.1)">
<use xlink:href="#c"/>
<use x="63.623047" xlink:href="#g"/>
<use x="95.410156" xlink:href="#r"/>
<use x="159.033203" xlink:href="#p"/>
</g>
</g>
<g clip-path="url(#a)">
<g transform="translate(705.16 724.84) scale(.1 -.1)">
<use xlink:href="#c"/>
<use x="63.623047" xlink:href="#g"/>
<use x="95.410156" xlink:href="#r"/>
<use x="159.033203" xlink:href="#n"/>
</g>
</g>
<g clip-path="url(#a)">
<g transform="translate(636.08 885.16) scale(.1 -.1)">
<use xlink:href="#c"/>
<use x="63.623047" xlink:href="#g"/>
<use x="95.410156" xlink:href="#r"/>
<use x="159.033203" xlink:href="#r"/>
</g>
</g>
<g clip-path="url(#a)">
<g transform="translate(682.13 885.16) scale(.1 -.1)">
<use xlink:href="#c"/>
<use x="63.623047" xlink:href="#g"/>
<use x="95.410156" xlink:href="#r"/>
<use x="159.033203" xlink:href="#q"/>
</g>
</g>
<g clip-path="url(#a)">
<g transform="translate(774.24 885.16) scale(.1 -.1)">
<use xlink:href="#c"/>
<use x="63.623047" xlink:href="#g"/>
<use x="95.410156" xlink:href="#r"/>
<use x="159.033203" xlink:href="#v"/>
</g>
</g>
<g clip-path="url(#a)">
<g transform="translate(244.62 724.84) scale(.1 -.1)">
<use xlink:href="#c"/>
<use x="63.623047" xlink:href="#g"/>
<use x="95.410156" xlink:href="#r"/>
<use x="159.033203" xlink:href="#ae"/>
</g>
</g>
<g clip-path="url(#a)">
<g transform="translate(359.75 724.84) scale(.1 -.1)">
<use xlink:href="#c"/>
<use x="63.623047" xlink:href="#g"/>
<use x="95.410156" xlink:href="#r"/>
<use x="159.033203" xlink:href="#ab"/>
</g>
</g>
<g clip-path="url(#a)">
<g transform="translate(451.86 885.16) scale(.1 -.1)">
<use xlink:href="#c"/>
<use x="63.623047" xlink:href="#g"/>
<use x="95.410156" xlink:href="#q"/>
<use x="159.033203" xlink:href="#af"/>
</g>
</g>
<g clip-path="url(#a)">
<g transform="translate(313.7 885.16) scale(.1 -.1)">
<use xlink:href="#c"/>
<use x="63.623047" xlink:href="#g"/>
<use x="95.410156" xlink:href="#q"/>
<use x="159.033203" xlink:href="#c"/>
</g>
</g>
<g clip-path="url(#a)">
<g transform="translate(405.81 885.16) scale(.1 -.1)">
<use xlink:href="#c"/>
<use x="63.623047" xlink:href="#g"/>
<use x="95.410156" xlink:href="#q"/>
<use x="159.033203" xlink:href="#p"/>
</g>
</g>
<g clip-path="url(#a)">
<g transform="translate(359.75 885.16) scale(.1 -.1)">
<use xlink:href="#c"/>
<use x="63.623047" xlink:href="#g"/>
<use x="95.410156" xlink:href="#q"/>
<use x="159.033203" xlink:href="#n"/>
</g>
</g>
<g clip-path="url(#a)">
<g transform="translate(221.59 885.16) scale(.1 -.1)">
<use xlink:href="#c"/>
<use x="63.623047" xlink:href="#g"/>
<use x="95.410156" xlink:href="#q"/>
<use x="159.033203" xlink:href="#r"/>
</g>
</g>
<g clip-path="url(#a)">
<g transform="translate(267.65 885.16) scale(.1 -.1)">
<use xlink:href="#c"/>
<use x="63.623047" xlink:href="#g"/>
<use x="95.410156" xlink:href="#q"/>
<use x="159.033203" xlink:href="#q"/>
</g>
</g>
<g clip-path="url(#a)">
<g transform="translate(728.18 885.16) scale(.1 -.1)">
<use xlink:href="#c"/>
<use x="63.623047" xlink:href="#g"/>
<use x="95.410156" xlink:href="#q"/>
<use x="159.033203" xlink:href="#v"/>
</g>
</g>
<g clip-path="url(#a)">
<g transform="translate(820.29 885.16) scale(.1 -.1)">
<use xlink:href="#c"/>
<use x="63.623047" xlink:href="#g"/>
<use x="95.410156" xlink:href="#q"/>
<use x="159.033203" xlink:href="#ac"/>
</g>
</g>
<g clip-path="url(#a)">
<g transform="translate(1372.9 885.16) scale(.1 -.1)">
<use xlink:href="#c"/>
<use x="63.623047" xlink:href="#g"/>
<use x="95.410156" xlink:href="#q"/>
<use x="159.033203" xlink:href="#ae"/>
</g>
</g>
<g clip-path="url(#a)">
<g transform="translate(1695.3 885.16) scale(.1 -.1)">
<use xlink:href="#c"/>
<use x="63.623047" xlink:href="#g"/>
<use x="95.410156" xlink:href="#q"/>
<use x="159.033203" xlink:href="#ab"/>
</g>
</g>
<g clip-path="url(#a)">
<g transform="translate(1787.4 885.16) scale(.1 -.1)">
<use xlink:href="#c"/>
<use x="63.623047" xlink:href="#g"/>
<use x="95.410156" xlink:href="#v"/>
<use x="159.033203" xlink:href="#af"/>
</g>
</g>
<g clip-path="url(#a)">
<g transform="translate(1925.6 885.16) scale(.1 -.1)">
<use xlink:href="#c"/>
<use x="63.623047" xlink:href="#g"/>
<use x="95.410156" xlink:href="#v"/>
<use x="159.033203" xlink:href="#c"/>
</g>
</g>
<defs>
<clipPath id="a">
<rect width="2077.3" height="1093.3"/>
</clipPath>
</defs>
</svg>
