<?xml version="1.0" encoding="UTF-8"?>
<!DOCTYPE svg  PUBLIC '-//W3C//DTD SVG 1.1//EN'  'http://www.w3.org/Graphics/SVG/1.1/DTD/svg11.dtd'>
<svg width="2026.7pt" height="1066.7pt" version="1.1" viewBox="0 0 2026.7 1066.7" xmlns="http://www.w3.org/2000/svg" xmlns:xlink="http://www.w3.org/1999/xlink">
<defs>
<style type="text/css">*{stroke-linecap:butt;stroke-linejoin:round;}</style>
</defs>
<path d="m0 1066.7h2026.7v-1066.7h-2026.7z" fill="#fff"/>
<g fill="none" stroke="#000">
<path d="m282.12 49.073v118.89" clip-path="url(#a)"/>
<path d="m282.12 167.96-189.86 749.07" clip-path="url(#a)"/>
<path d="m282.12 167.96-87.514 648.5" clip-path="url(#a)"/>
<path d="m282.12 167.96 231.05 115.31" clip-path="url(#a)"/>
<path d="m282.12 167.96 46.316 749.07" clip-path="url(#a)"/>
<path d="m92.267 917.03v100.56" clip-path="url(#a)"/>
<path d="m194.61 816.47-55.107 100.56" clip-path="url(#a)"/>
<path d="m194.61 816.47-7.8724 100.56" clip-path="url(#a)"/>
<path d="m194.61 816.47 62.979 100.56" clip-path="url(#a)"/>
<path d="m513.18 283.27-137.5 633.76" clip-path="url(#a)"/>
<path d="m513.18 283.27-90.27 633.76" clip-path="url(#a)"/>
<path d="m513.18 283.27-7.61 533.19" clip-path="url(#a)"/>
<path d="m513.18 283.27 235.38 112.01" clip-path="url(#a)"/>
<path d="m375.67 917.03v100.56" clip-path="url(#a)"/>
<path d="m422.91 917.03v100.56" clip-path="url(#a)"/>
<path d="m505.57 816.47-35.426 100.56" clip-path="url(#a)"/>
<path d="m505.57 816.47 35.426 100.56" clip-path="url(#a)"/>
<path d="m748.56 395.28-136.72 521.75" clip-path="url(#a)"/>
<path d="m748.56 395.28-89.483 521.75" clip-path="url(#a)"/>
<path d="m748.56 395.28 433.77 109" clip-path="url(#a)"/>
<path d="m748.56 395.28-207.57 521.75" clip-path="url(#a)" stroke-dasharray="3.7,1.6"/>
<path d="m611.84 917.03v100.56" clip-path="url(#a)"/>
<path d="m659.08 917.03v100.56" clip-path="url(#a)"/>
<path d="m1182.3 504.28-326.44 210.22" clip-path="url(#a)"/>
<path d="m1182.3 504.28-27.291 412.75" clip-path="url(#a)"/>
<path d="m1182.3 504.28 408.31 106.29" clip-path="url(#a)"/>
<path d="m1182.3 504.28-98.142 412.75" clip-path="url(#a)"/>
<path d="m1182.3 504.28 43.56 412.75" clip-path="url(#a)"/>
<path d="m855.89 714.5-102.34 101.96" clip-path="url(#a)"/>
<path d="m855.89 714.5-7.8724 202.53" clip-path="url(#a)"/>
<path d="m855.89 714.5 110.21 101.96" clip-path="url(#a)"/>
<path d="m1155 917.03-23.617 100.56" clip-path="url(#a)"/>
<path d="m1155 917.03 23.617 100.56" clip-path="url(#a)"/>
<path d="m1590.6 610.58-219.11 103.93" clip-path="url(#a)"/>
<path d="m1590.6 610.58 13.121 306.45" clip-path="url(#a)"/>
<path d="m1590.6 610.58 205.99 103.93" clip-path="url(#a)"/>
<path d="m1371.5 714.5-216.49 202.53" clip-path="url(#a)" stroke-dasharray="3.7,1.6"/>
<path d="m1371.5 714.5-74.787 202.53" clip-path="url(#a)"/>
<path d="m1371.5 714.5-3.9362 202.53" clip-path="url(#a)"/>
<path d="m1371.5 714.5 43.298 202.53" clip-path="url(#a)"/>
<path d="m1371.5 714.5 90.532 202.53" clip-path="url(#a)"/>
<path d="m1371.5 714.5 161.38 101.96" clip-path="url(#a)"/>
<path d="m1603.8 917.03v100.56" clip-path="url(#a)"/>
<path d="m1796.6 714.5-145.64 202.53" clip-path="url(#a)"/>
<path d="m1796.6 714.5-98.405 202.53" clip-path="url(#a)"/>
<path d="m1796.6 714.5-27.553 101.96" clip-path="url(#a)"/>
<path d="m1796.6 714.5 43.298 202.53" clip-path="url(#a)"/>
<path d="m1796.6 714.5 90.532 202.53" clip-path="url(#a)"/>
<path d="m1796.6 714.5 137.77 202.53" clip-path="url(#a)"/>
<path d="m1651 917.03v100.56" clip-path="url(#a)"/>
<path d="m1698.2 917.03v100.56" clip-path="url(#a)"/>
<path d="m1769.1 816.47-23.617 100.56" clip-path="url(#a)"/>
<path d="m1769.1 816.47 23.617 100.56" clip-path="url(#a)"/>
<path d="m1839.9 917.03v100.56" clip-path="url(#a)"/>
<path d="m1887.2 917.03v100.56" clip-path="url(#a)"/>
<path d="m1745.5 917.03v100.56" clip-path="url(#a)"/>
<path d="m1792.7 917.03v100.56" clip-path="url(#a)"/>
<path d="m1296.7 917.03-23.617 100.56" clip-path="url(#a)"/>
<path d="m1296.7 917.03 23.617 100.56" clip-path="url(#a)"/>
<path d="m1367.6 917.03v100.56" clip-path="url(#a)"/>
<path d="m1414.8 917.03v100.56" clip-path="url(#a)"/>
<path d="m1462.1 917.03v100.56" clip-path="url(#a)"/>
<path d="m1532.9 816.47-23.617 100.56" clip-path="url(#a)"/>
<path d="m1532.9 816.47 23.617 100.56" clip-path="url(#a)"/>
<path d="m1509.3 917.03v100.56" clip-path="url(#a)"/>
<path d="m1556.5 917.03v100.56" clip-path="url(#a)"/>
<path d="m753.55 816.47-47.234 100.56" clip-path="url(#a)"/>
<path d="m753.55 816.47v100.56" clip-path="url(#a)"/>
<path d="m753.55 816.47 47.234 100.56" clip-path="url(#a)"/>
<path d="m848.01 917.03v100.56" clip-path="url(#a)"/>
<path d="m966.1 816.47-70.851 100.56" clip-path="url(#a)"/>
<path d="m966.1 816.47-23.617 100.56" clip-path="url(#a)"/>
<path d="m966.1 816.47 23.617 100.56" clip-path="url(#a)"/>
<path d="m966.1 816.47 70.851 100.56" clip-path="url(#a)"/>
<path d="m895.25 917.03v100.56" clip-path="url(#a)"/>
<path d="m942.48 917.03v100.56" clip-path="url(#a)"/>
<path d="m989.72 917.03v100.56" clip-path="url(#a)"/>
<path d="m1037 917.03v100.56" clip-path="url(#a)"/>
<path d="m706.31 917.03v100.56" clip-path="url(#a)"/>
<path d="m753.55 917.03v100.56" clip-path="url(#a)"/>
<path d="m800.78 917.03v100.56" clip-path="url(#a)"/>
<path d="m470.14 917.03v100.56" clip-path="url(#a)"/>
<path d="m540.99 917.03-23.617 100.56" clip-path="url(#a)"/>
<path d="m540.99 917.03 23.617 100.56" clip-path="url(#a)"/>
<path d="m139.5 917.03v100.56" clip-path="url(#a)"/>
<path d="m186.73 917.03v100.56" clip-path="url(#a)"/>
<path d="m257.59 917.03-23.617 100.56" clip-path="url(#a)"/>
<path d="m257.59 917.03 23.617 100.56" clip-path="url(#a)"/>
<path d="m328.44 917.03v100.56" clip-path="url(#a)"/>
<path d="m1084.2 917.03v100.56" clip-path="url(#a)"/>
<path d="m1225.9 917.03v100.56" clip-path="url(#a)"/>
<path d="m1934.4 917.03v100.56" clip-path="url(#a)"/>
</g>
<path d="m275.85 105.51v6.0162q0 2.4 2.4 2.4h7.7425q2.4 0 2.4-2.4v-6.0162q0-2.4-2.4-2.4h-7.7425q-2.4 0-2.4 2.4z" clip-path="url(#a)" fill="#fff" stroke="#fff"/>
<g clip-path="url(#a)">
<defs>
<path id="w" d="m9.8125 72.906h9.8594v-29.891h35.844v29.891h9.8594v-72.906h-9.8594v34.719h-35.844v-34.719h-9.8594z"/>
</defs>
<g transform="translate(279.91 105.51) rotate(90) scale(.08 -.08)">
<use xlink:href="#w"/>
</g>
</g>
<path d="m192.68 546.38 1.1851-4.6759q0.58965-2.3264-1.7368-2.9161l-7.5052-1.9022q-2.3264-0.58965-2.9161 1.7368l-1.1851 4.6759q-0.58965 2.3264 1.7368 2.9161l7.5052 1.9022q2.3264 0.58965 2.9161-1.7368z" clip-path="url(#a)" fill="#fff" stroke="#fff"/>
<g clip-path="url(#a)">
<defs>
<path id="v" d="m19.672 64.797v-27.391h12.406q6.8906 0 10.641 3.5625 3.7656 3.5625 3.7656 10.156 0 6.5469-3.7656 10.109-3.75 3.5625-10.641 3.5625zm-9.8594 8.1094h22.266q12.266 0 18.531-5.5469 6.2812-5.5469 6.2812-16.234 0-10.797-6.2812-16.312-6.2656-5.5156-18.531-5.5156h-12.406v-29.297h-9.8594z"/>
</defs>
<g transform="translate(188.74 545.38) rotate(-75.778) scale(.08 -.08)">
<use xlink:href="#v"/>
</g>
</g>
<path d="m244.21 495.76 0.73187-5.4233q0.32097-2.3784-2.0575-2.6994l-7.6729-1.0355q-2.3784-0.32097-2.6994 2.0575l-0.73187 5.4233q-0.32097 2.3784 2.0575 2.6994l7.6729 1.0355q2.3784 0.32097 2.6994-2.0575z" clip-path="url(#a)" fill="#fff" stroke="#fff"/>
<g clip-path="url(#a)">
<defs>
<path id="m" d="m34.188 63.188-13.391-36.281h26.812zm-5.5781 9.7188h11.188l27.781-72.906h-10.25l-6.6406 18.703h-32.859l-6.6406-18.703h-10.406z"/>
</defs>
<g transform="translate(240.19 495.22) rotate(-82.314) scale(.08 -.08)">
<use xlink:href="#m"/>
</g>
</g>
<path d="m392.4 230.01 4.8966 2.4437q2.1474 1.0717 3.2191-1.0757l3.4573-6.9277q1.0717-2.1474-1.0757-3.2191l-4.8966-2.4437q-2.1474-1.0717-3.2191 1.0757l-3.4573 6.9277q-1.0717 2.1474 1.0757 3.2191z" clip-path="url(#a)" fill="#fff" stroke="#fff"/>
<g clip-path="url(#a)">
<g transform="translate(394.21 226.37) rotate(26.522) scale(.08 -.08)">
<use xlink:href="#m"/>
</g>
</g>
<path d="m298.84 539.96 0.36133 5.8438q0.14811 2.3954 2.5435 2.2473l7.7277-0.47782q2.3954-0.14811 2.2473-2.5435l-0.36133-5.8438q-0.14811-2.3954-2.5435-2.2473l-7.7277 0.47782q-2.3954 0.14811-2.2473 2.5435z" clip-path="url(#a)" fill="#fff" stroke="#fff"/>
<g clip-path="url(#a)">
<defs>
<path id="ad" d="m8.6875 72.906h9.9219v-44.297q0-11.719 4.2344-16.875 4.25-5.1406 13.781-5.1406 9.4688 0 13.719 5.1406 4.25 5.1562 4.25 16.875v44.297h9.9062v-45.516q0-14.25-7.0625-21.531-7.0469-7.2812-20.812-7.2812-13.828 0-20.891 7.2812-7.0469 7.2812-7.0469 21.531z"/>
</defs>
<g transform="translate(302.9 539.71) rotate(86.462) scale(.08 -.08)">
<use xlink:href="#ad"/>
</g>
</g>
<path d="m85.995 949.67v35.285q0 2.4 2.4 2.4h7.7425q2.4 0 2.4-2.4v-35.285q0-2.4-2.4-2.4h-7.7425q-2.4 0-2.4 2.4z" clip-path="url(#a)" fill="#fff" stroke="#fff"/>
<g clip-path="url(#a)">
<defs>
<path id="l" d="m-0.29688 72.906h61.672v-8.3125h-25.875v-64.594h-9.9062v64.594h-25.891z"/>
<path id="d" d="m56.203 29.594v-4.3906h-41.312q0.59375-9.2812 5.5938-14.141t13.938-4.8594q5.1719 0 10.031 1.2656t9.6562 3.8125v-8.5q-4.8438-2.0469-9.9219-3.125t-10.297-1.0781q-13.094 0-20.734 7.6094-7.6406 7.625-7.6406 20.625 0 13.422 7.25 21.297 7.25 7.8906 19.562 7.8906 11.031 0 17.453-7.1094 6.4219-7.0938 6.4219-19.297zm-8.9844 2.6406q-0.09375 7.3594-4.125 11.75-4.0312 4.4062-10.672 4.4062-7.5156 0-12.031-4.25t-5.2031-11.969z"/>
<path id="h" d="m41.109 46.297q-1.5156 0.875-3.2969 1.2812-1.7812 0.42188-3.9219 0.42188-7.625 0-11.703-4.9531t-4.0781-14.234v-28.812h-9.0312v54.688h9.0312v-8.5q2.8438 4.9844 7.375 7.3906 4.5469 2.4219 11.047 2.4219 0.92188 0 2.0469-0.125 1.125-0.10938 2.4844-0.35938z"/>
<path id="k" d="m52 44.188q3.375 6.0625 8.0625 8.9375t11.031 2.875q8.5469 0 13.188-5.9844 4.6406-5.9688 4.6406-17v-33.016h-9.0312v32.719q0 7.8594-2.7969 11.656-2.7812 3.8125-8.4844 3.8125-6.9844 0-11.047-4.6406-4.0469-4.625-4.0469-12.641v-30.906h-9.0312v32.719q0 7.9062-2.7812 11.688t-8.5938 3.7812q-6.8906 0-10.953-4.6562-4.0469-4.6562-4.0469-12.625v-30.906h-9.0312v54.688h9.0312v-8.5q3.0781 5.0312 7.375 7.4219t10.203 2.3906q5.9688 0 10.141-3.0312 4.1719-3.0156 6.1719-8.7812z"/>
<path id="j" d="m9.4219 54.688h8.9844v-54.688h-8.9844zm0 21.297h8.9844v-11.391h-8.9844z"/>
<path id="f" d="m54.891 33.016v-33.016h-8.9844v32.719q0 7.7656-3.0312 11.609-3.0312 3.8594-9.0781 3.8594-7.2812 0-11.484-4.6406-4.2031-4.625-4.2031-12.641v-30.906h-9.0312v54.688h9.0312v-8.5q3.2344 4.9375 7.5938 7.375 4.375 2.4375 10.094 2.4375 9.4219 0 14.25-5.8281 4.8438-5.8281 4.8438-17.156z"/>
<path id="g" d="m34.281 27.484q-10.891 0-15.094-2.4844t-4.2031-8.5q0-4.7812 3.1562-7.5938 3.1562-2.7969 8.5625-2.7969 7.4844 0 12 5.2969t4.5156 14.078v2zm17.922 3.7188v-31.203h-8.9844v8.2969q-3.0781-4.9688-7.6719-7.3438t-11.234-2.375q-8.3906 0-13.359 4.7188-4.9531 4.7188-4.9531 12.625 0 9.2188 6.1719 13.906 6.1875 4.6875 18.438 4.6875h12.609v0.89062q0 6.2031-4.0781 9.5938t-11.453 3.3906q-4.6875 0-9.1406-1.125-4.4375-1.125-8.5312-3.375v8.3125q4.9219 1.9062 9.5625 2.8438 4.6406 0.95312 9.0312 0.95312 11.875 0 17.734-6.1562 5.8594-6.1406 5.8594-18.641z"/>
<path id="i" d="m9.4219 75.984h8.9844v-75.984h-8.9844z"/>
</defs>
<g transform="translate(90.059 949.67) rotate(90) scale(.08 -.08)">
<use xlink:href="#l"/>
<use x="60.818359" xlink:href="#d"/>
<use x="122.341797" xlink:href="#h"/>
<use x="163.439453" xlink:href="#k"/>
<use x="260.851562" xlink:href="#j"/>
<use x="288.634766" xlink:href="#f"/>
<use x="352.013672" xlink:href="#g"/>
<use x="413.292969" xlink:href="#i"/>
</g>
</g>
<path d="m171.22 872.2 2.6713-4.8748q1.1533-2.1047-0.95138-3.258l-6.7899-3.7207q-2.1047-1.1533-3.258 0.95138l-2.6713 4.8748q-1.1533 2.1047 0.95138 3.258l6.7899 3.7207q2.1047 1.1533 3.258-0.95138z" clip-path="url(#a)" fill="#fff" stroke="#fff"/>
<g clip-path="url(#a)">
<defs>
<path id="am" d="m44.391 34.188q3.1719-1.0781 6.1719-4.5938t6.0312-9.6719l10.016-19.922h-10.609l-9.3125 18.703q-3.625 7.3281-7.0156 9.7188t-9.25 2.3906h-10.75v-30.812h-9.8594v72.906h22.266q12.5 0 18.656-5.2344 6.1562-5.2188 6.1562-15.766 0-6.8906-3.2031-11.438-3.2031-4.5312-9.2969-6.2812zm-24.719 30.609v-25.875h12.406q7.125 0 10.766 3.2969t3.6406 9.6875-3.6406 9.6406-10.766 3.25z"/>
</defs>
<g transform="translate(167.65 870.25) rotate(-61.278) scale(.08 -.08)">
<use xlink:href="#am"/>
</g>
</g>
<path d="m196.73 869.77 0.39636-5.0633q0.1873-2.3927-2.2054-2.58l-7.7189-0.60425q-2.3927-0.1873-2.58 2.2054l-0.39636 5.0633q-0.1873 2.3927 2.2054 2.58l7.7189 0.60425q2.3927 0.1873 2.58-2.2054z" clip-path="url(#a)" fill="#fff" stroke="#fff"/>
<g clip-path="url(#a)">
<defs>
<path id="ae" d="m53.516 70.516v-9.625q-5.6094 2.6875-10.594 4-4.9844 1.3281-9.625 1.3281-8.0469 0-12.422-3.125t-4.375-8.8906q0-4.8438 2.9062-7.3125 2.9062-2.4531 11.016-3.9688l5.9531-1.2188q11.031-2.1094 16.281-7.4062t5.25-14.172q0-10.609-7.1094-16.078-7.0938-5.4688-20.812-5.4688-5.1719 0-11.016 1.1719-5.8281 1.1719-12.078 3.4688v10.156q6-3.3594 11.766-5.0781 5.7656-1.7031 11.328-1.7031 8.4375 0 13.031 3.3125 4.5938 3.3281 4.5938 9.4844 0 5.3594-3.2969 8.3906t-10.812 4.5469l-6.0156 1.1719q-11.031 2.1875-15.969 6.875-4.9219 4.6875-4.9219 13.047 0 9.6719 6.8125 15.234t18.766 5.5625q5.1406 0 10.453-0.9375 5.3281-0.92188 10.891-2.7656z"/>
</defs>
<g transform="translate(192.67 869.45) rotate(-85.524) scale(.08 -.08)">
<use xlink:href="#ae"/>
</g>
</g>
<path d="m219.33 867.76 2.9046 4.638q1.2738 2.034 3.3079 0.76021l6.5619-4.1094q2.034-1.2738 0.76021-3.3079l-2.9046-4.638q-1.2738-2.034-3.3079-0.76021l-6.5619 4.1094q-2.034 1.2738-0.76021 3.3079z" clip-path="url(#a)" fill="#fff" stroke="#fff"/>
<g clip-path="url(#a)">
<g transform="translate(222.77 865.6) rotate(57.943) scale(.08 -.08)">
<use xlink:href="#m"/>
</g>
</g>
<path d="m449.97 604.15 1.1604-5.3481q0.50888-2.3454-1.8366-2.8543l-7.5665-1.6417q-2.3454-0.50888-2.8543 1.8366l-1.1604 5.3481q-0.50888 2.3454 1.8366 2.8543l7.5665 1.6417q2.3454 0.50888 2.8543-1.8366z" clip-path="url(#a)" fill="#fff" stroke="#fff"/>
<g clip-path="url(#a)">
<g transform="translate(446 603.29) rotate(-77.758) scale(.08 -.08)">
<use xlink:href="#m"/>
</g>
</g>
<path d="m473.91 603.42 0.68021-4.7756q0.33843-2.376-2.0376-2.7144l-7.6651-1.0918q-2.376-0.33843-2.7144 2.0376l-0.68021 4.7756q-0.33843 2.376 2.0376 2.7144l7.6651 1.0918q2.376 0.33843 2.7144-2.0376z" clip-path="url(#a)" fill="#fff" stroke="#fff"/>
<g clip-path="url(#a)">
<g transform="translate(469.89 602.85) rotate(-81.894) scale(.08 -.08)">
<use xlink:href="#v"/>
</g>
</g>
<path d="m515.6 552.69 0.078098-5.4719q0.03425-2.3998-2.3655-2.434l-7.7417-0.11049q-2.3998-0.03425-2.434 2.3655l-0.078097 5.4719q-0.034251 2.3998 2.3655 2.434l7.7417 0.11049q2.3998 0.03425 2.434-2.3655z" clip-path="url(#a)" fill="#fff" stroke="#fff"/>
<g clip-path="url(#a)">
<g transform="translate(511.54 552.64) rotate(-89.182) scale(.08 -.08)">
<use xlink:href="#m"/>
</g>
</g>
<path d="m625.7 343.76 4.9415 2.3515q2.1671 1.0313 3.1984-1.1359l3.3269-6.9913q1.0313-2.1671-1.1359-3.1984l-4.9415-2.3515q-2.1671-1.0313-3.1984 1.1359l-3.3269 6.9913q-1.0313 2.1671 1.1359 3.1984z" clip-path="url(#a)" fill="#fff" stroke="#fff"/>
<g clip-path="url(#a)">
<g transform="translate(627.45 340.1) rotate(25.448) scale(.08 -.08)">
<use xlink:href="#m"/>
</g>
</g>
<path d="m369.4 949.67v35.285q0 2.4 2.4 2.4h7.7425q2.4 0 2.4-2.4v-35.285q0-2.4-2.4-2.4h-7.7425q-2.4 0-2.4 2.4z" clip-path="url(#a)" fill="#fff" stroke="#fff"/>
<g clip-path="url(#a)">
<g transform="translate(373.46 949.67) rotate(90) scale(.08 -.08)">
<use xlink:href="#l"/>
<use x="60.818359" xlink:href="#d"/>
<use x="122.341797" xlink:href="#h"/>
<use x="163.439453" xlink:href="#k"/>
<use x="260.851562" xlink:href="#j"/>
<use x="288.634766" xlink:href="#f"/>
<use x="352.013672" xlink:href="#g"/>
<use x="413.292969" xlink:href="#i"/>
</g>
</g>
<path d="m416.63 949.67v35.285q0 2.4 2.4 2.4h7.7425q2.4 0 2.4-2.4v-35.285q0-2.4-2.4-2.4h-7.7425q-2.4 0-2.4 2.4z" clip-path="url(#a)" fill="#fff" stroke="#fff"/>
<g clip-path="url(#a)">
<g transform="translate(420.7 949.67) rotate(90) scale(.08 -.08)">
<use xlink:href="#l"/>
<use x="60.818359" xlink:href="#d"/>
<use x="122.341797" xlink:href="#h"/>
<use x="163.439453" xlink:href="#k"/>
<use x="260.851562" xlink:href="#j"/>
<use x="288.634766" xlink:href="#f"/>
<use x="352.013672" xlink:href="#g"/>
<use x="413.292969" xlink:href="#i"/>
</g>
</g>
<path d="m492.93 871.22 1.6796-4.7678q0.79742-2.2637-1.4662-3.0611l-7.3026-2.5725q-2.2637-0.79742-3.0611 1.4662l-1.6796 4.7678q-0.79742 2.2637 1.4662 3.0611l7.3026 2.5725q2.2637 0.79742 3.0611-1.4662z" clip-path="url(#a)" fill="#fff" stroke="#fff"/>
<g clip-path="url(#a)">
<defs>
<path id="y" d="m9.8125 72.906h46.094v-8.3125h-36.234v-21.578h34.719v-8.2969h-34.719v-26.422h37.109v-8.2969h-46.969z"/>
</defs>
<g transform="translate(489.1 869.87) rotate(-70.594) scale(.08 -.08)">
<use xlink:href="#y"/>
</g>
</g>
<path d="m516.44 866.2 1.8561 5.2689q0.79742 2.2637 3.0611 1.4662l7.3026-2.5725q2.2637-0.79742 1.4662-3.0611l-1.8561-5.2689q-0.79742-2.2637-3.0611-1.4662l-7.3026 2.5725q-2.2637 0.79742-1.4662 3.0611z" clip-path="url(#a)" fill="#fff" stroke="#fff"/>
<g clip-path="url(#a)">
<defs>
<path id="ag" d="m64.406 67.281v-10.391q-4.9844 4.6406-10.625 6.9219-5.6406 2.2969-11.984 2.2969-12.5 0-19.141-7.6406t-6.6406-22.094q0-14.406 6.6406-22.047t19.141-7.6406q6.3438 0 11.984 2.2969t10.625 6.9375v-10.312q-5.1719-3.5156-10.969-5.2812-5.7812-1.75-12.219-1.75-16.562 0-26.094 10.125-9.5156 10.141-9.5156 27.672 0 17.578 9.5156 27.703 9.5312 10.141 26.094 10.141 6.5312 0 12.312-1.7344 5.7969-1.7344 10.875-5.2031z"/>
</defs>
<g transform="translate(520.27 864.85) rotate(70.594) scale(.08 -.08)">
<use xlink:href="#ag"/>
</g>
</g>
<path d="m685.56 660.43 1.409-5.3772q0.60835-2.3216-1.7133-2.93l-7.4896-1.9626q-2.3216-0.60835-2.93 1.7133l-1.409 5.3772q-0.60835 2.3216 1.7133 2.93l7.4896 1.9626q2.3216 0.60835 2.93-1.7133z" clip-path="url(#a)" fill="#fff" stroke="#fff"/>
<g clip-path="url(#a)">
<g transform="translate(681.63 659.4) rotate(-75.317) scale(.08 -.08)">
<use xlink:href="#am"/>
</g>
</g>
<path d="m709.59 659.59 0.81539-4.7543q0.40569-2.3655-1.9598-2.7712l-7.6311-1.3088q-2.3655-0.40569-2.7712 1.9598l-0.8154 4.7543q-0.40569 2.3655 1.9598 2.7712l7.6311 1.3088q2.3655 0.40569 2.7712-1.9598z" clip-path="url(#a)" fill="#fff" stroke="#fff"/>
<g clip-path="url(#a)">
<g transform="translate(705.59 658.91) rotate(-80.268) scale(.08 -.08)">
<use xlink:href="#v"/>
</g>
</g>
<path d="m961.26 455.2 5.3075 1.3337q2.3276 0.5849 2.9125-1.7427l1.8869-7.509q0.5849-2.3276-1.7427-2.9125l-5.3075-1.3337q-2.3276-0.5849-2.9125 1.7427l-1.8869 7.509q-0.5849 2.3276 1.7427 2.9125z" clip-path="url(#a)" fill="#fff" stroke="#fff"/>
<g clip-path="url(#a)">
<g transform="translate(962.25 451.26) rotate(14.106) scale(.08 -.08)">
<use xlink:href="#m"/>
</g>
</g>
<path d="m649.59 661.02 2.0229-5.0849q0.88717-2.23-1.3428-3.1172l-7.1941-2.862q-2.23-0.88717-3.1172 1.3428l-2.0229 5.0849q-0.88717 2.23 1.3428 3.1172l7.1941 2.862q2.23 0.88717 3.1172-1.3428z" clip-path="url(#a)" fill="#fff" stroke="#fff"/>
<g clip-path="url(#a)">
<g transform="translate(645.82 659.51) rotate(-68.306) scale(.08 -.08)">
<use xlink:href="#m"/>
</g>
</g>
<path d="m605.57 949.67v35.285q0 2.4 2.4 2.4h7.7425q2.4 0 2.4-2.4v-35.285q0-2.4-2.4-2.4h-7.7425q-2.4 0-2.4 2.4z" clip-path="url(#a)" fill="#fff" stroke="#fff"/>
<g clip-path="url(#a)">
<g transform="translate(609.64 949.67) rotate(90) scale(.08 -.08)">
<use xlink:href="#l"/>
<use x="60.818359" xlink:href="#d"/>
<use x="122.341797" xlink:href="#h"/>
<use x="163.439453" xlink:href="#k"/>
<use x="260.851562" xlink:href="#j"/>
<use x="288.634766" xlink:href="#f"/>
<use x="352.013672" xlink:href="#g"/>
<use x="413.292969" xlink:href="#i"/>
</g>
</g>
<path d="m652.81 949.67v35.285q0 2.4 2.4 2.4h7.7425q2.4 0 2.4-2.4v-35.285q0-2.4-2.4-2.4h-7.7425q-2.4 0-2.4 2.4z" clip-path="url(#a)" fill="#fff" stroke="#fff"/>
<g clip-path="url(#a)">
<g transform="translate(656.87 949.67) rotate(90) scale(.08 -.08)">
<use xlink:href="#l"/>
<use x="60.818359" xlink:href="#d"/>
<use x="122.341797" xlink:href="#h"/>
<use x="163.439453" xlink:href="#k"/>
<use x="260.851562" xlink:href="#j"/>
<use x="288.634766" xlink:href="#f"/>
<use x="352.013672" xlink:href="#g"/>
<use x="413.292969" xlink:href="#i"/>
</g>
</g>
<path d="m1020.4 616.03 4.25-2.7369q2.0178-1.2994 0.71838-3.3172l-4.192-6.5095q-1.2994-2.0178-3.3172-0.71838l-4.25 2.7369q-2.0178 1.2994-0.71838 3.3172l4.192 6.5095q1.2994 2.0178 3.3172 0.71838z" clip-path="url(#a)" fill="#fff" stroke="#fff"/>
<g clip-path="url(#a)">
<g transform="translate(1018.2 612.62) rotate(-32.781) scale(.08 -.08)">
<use xlink:href="#y"/>
</g>
</g>
<path d="m1174.8 713.86 0.36856-5.5741q0.15834-2.3948-2.2364-2.5531l-7.7256-0.51082q-2.3948-0.15834-2.5531 2.2364l-0.36856 5.5741q-0.15834 2.3948 2.2364 2.5531l7.7256 0.51082q2.3948 0.15834 2.5531-2.2364z" clip-path="url(#a)" fill="#fff" stroke="#fff"/>
<g clip-path="url(#a)">
<g transform="translate(1170.7 713.59) rotate(-86.217) scale(.08 -.08)">
<use xlink:href="#ag"/>
</g>
</g>
<path d="m1382.5 562.86 4.892 1.2735q2.3226 0.60463 2.9272-1.718l1.9506-7.4928q0.60463-2.3226-1.718-2.9272l-4.892-1.2735q-2.3226-0.60463-2.9272 1.718l-1.9506 7.4928q-0.60463 2.3226 1.718 2.9272z" clip-path="url(#a)" fill="#fff" stroke="#fff"/>
<g clip-path="url(#a)">
<g transform="translate(1383.5 558.93) rotate(14.592) scale(.08 -.08)">
<use xlink:href="#y"/>
</g>
</g>
<path d="m1138.7 714.96 1.3544-5.6962q0.55519-2.3349-1.7797-2.8901l-7.5325-1.7911q-2.3349-0.55519-2.8901 1.7797l-1.3544 5.6962q-0.55519 2.3349 1.7797 2.8901l7.5325 1.7911q2.3349 0.55519 2.8901-1.7797z" clip-path="url(#a)" fill="#fff" stroke="#fff"/>
<g clip-path="url(#a)">
<g transform="translate(1134.7 714.02) rotate(-76.625) scale(.08 -.08)">
<use xlink:href="#ad"/>
</g>
</g>
<path d="m1197.6 708.4 0.61451 5.8227q0.25189 2.3867 2.6386 2.1349l7.6997-0.81261q2.3867-0.25189 2.1349-2.6386l-0.61451-5.8227q-0.25189-2.3867-2.6386-2.1349l-7.6997 0.81261q-2.3867 0.25189-2.1349 2.6386z" clip-path="url(#a)" fill="#fff" stroke="#fff"/>
<g clip-path="url(#a)">
<g transform="translate(1201.6 707.98) rotate(83.975) scale(.08 -.08)">
<use xlink:href="#ad"/>
</g>
</g>
<path d="m807.01 772.05 4.262-4.2463q1.7002-1.6939 0.006278-3.3941l-5.4646-5.4849q-1.6939-1.7002-3.3941-0.006278l-4.262 4.2463q-1.7002 1.6939-0.006278 3.3941l5.4646 5.4849q1.6939 1.7002 3.3941 0.006278z" clip-path="url(#a)" fill="#fff" stroke="#fff"/>
<g clip-path="url(#a)">
<g transform="translate(804.14 769.17) rotate(-44.894) scale(.08 -.08)">
<use xlink:href="#w"/>
</g>
</g>
<path d="m858.13 818.24 0.17314-4.4541q0.093219-2.3982-2.305-2.4914l-7.7367-0.30073q-2.3982-0.093219-2.4914 2.305l-0.17314 4.4541q-0.093219 2.3982 2.305 2.4914l7.7367 0.30073q2.3982 0.093219 2.4914-2.305z" clip-path="url(#a)" fill="#fff" stroke="#fff"/>
<g clip-path="url(#a)">
<defs>
<path id="an" d="m9.8125 72.906h9.8594v-64.609h35.5v-8.2969h-45.359z"/>
</defs>
<g transform="translate(854.07 818.08) rotate(-87.774) scale(.08 -.08)">
<use xlink:href="#an"/>
</g>
</g>
<path d="m904.53 768.05 4.4162 4.0856q1.7617 1.6298 3.3915-0.13188l5.2579-5.6834q1.6298-1.7617-0.13188-3.3916l-4.4162-4.0856q-1.7617-1.6298-3.3916 0.13188l-5.2579 5.6834q-1.6298 1.7617 0.13188 3.3916z" clip-path="url(#a)" fill="#fff" stroke="#fff"/>
<g clip-path="url(#a)">
<g transform="translate(907.29 765.06) rotate(42.773) scale(.08 -.08)">
<use xlink:href="#w"/>
</g>
</g>
<path d="m1145.3 985.92 8.0671-34.35q0.5487-2.3364-1.7877-2.8851l-7.5374-1.7701q-2.3364-0.5487-2.8851 1.7877l-8.0671 34.35q-0.5487 2.3364 1.7877 2.8851l7.5374 1.7701q2.3364 0.5487 2.8851-1.7877z" clip-path="url(#a)" fill="#fff" stroke="#fff"/>
<g clip-path="url(#a)">
<g transform="translate(1141.3 984.99) rotate(-76.784) scale(.08 -.08)">
<use xlink:href="#l"/>
<use x="60.818359" xlink:href="#d"/>
<use x="122.341797" xlink:href="#h"/>
<use x="163.439453" xlink:href="#k"/>
<use x="260.851562" xlink:href="#j"/>
<use x="288.634766" xlink:href="#f"/>
<use x="352.013672" xlink:href="#g"/>
<use x="413.292969" xlink:href="#i"/>
</g>
</g>
<path d="m1156.7 951.57 8.0671 34.35q0.5487 2.3364 2.8851 1.7877l7.5374-1.7701q2.3364-0.5487 1.7877-2.8851l-8.0671-34.35q-0.5487-2.3364-2.8851-1.7877l-7.5374 1.7701q-2.3364 0.5487-1.7877 2.8851z" clip-path="url(#a)" fill="#fff" stroke="#fff"/>
<g clip-path="url(#a)">
<g transform="translate(1160.7 950.64) rotate(76.784) scale(.08 -.08)">
<use xlink:href="#l"/>
<use x="60.818359" xlink:href="#d"/>
<use x="122.341797" xlink:href="#h"/>
<use x="163.439453" xlink:href="#k"/>
<use x="260.851562" xlink:href="#j"/>
<use x="288.634766" xlink:href="#f"/>
<use x="352.013672" xlink:href="#g"/>
<use x="413.292969" xlink:href="#i"/>
</g>
</g>
<path d="m1481.1 669.5 5.4358-2.5782q2.1685-1.0285 1.14-3.197l-3.318-6.9955q-1.0285-2.1685-3.197-1.14l-5.4358 2.5782q-2.1685 1.0285-1.14 3.197l3.318 6.9955q1.0285 2.1685 3.197 1.14z" clip-path="url(#a)" fill="#fff" stroke="#fff"/>
<g clip-path="url(#a)">
<g transform="translate(1479.3 665.82) rotate(-25.375) scale(.08 -.08)">
<use xlink:href="#w"/>
</g>
</g>
<path d="m1590.8 761.84 0.19067 4.4534q0.10266 2.3978 2.5005 2.2951l7.7354-0.33119q2.3978-0.10266 2.2951-2.5005l-0.19067-4.4534q-0.10266-2.3978-2.5005-2.2951l-7.7354 0.33119q-2.3978 0.10266-2.2951 2.5005z" clip-path="url(#a)" fill="#fff" stroke="#fff"/>
<g clip-path="url(#a)">
<g transform="translate(1594.9 761.67) rotate(87.548) scale(.08 -.08)">
<use xlink:href="#an"/>
</g>
</g>
<path d="m1688.1 666.78 5.3714 2.7099q2.1427 1.081 3.2238-1.0617l3.4875-6.9126q1.081-2.1427-1.0617-3.2238l-5.3714-2.7099q-2.1427-1.081-3.2238 1.0617l-3.4875 6.9126q-1.081 2.1427 1.0617 3.2238z" clip-path="url(#a)" fill="#fff" stroke="#fff"/>
<g clip-path="url(#a)">
<g transform="translate(1690 663.16) rotate(26.772) scale(.08 -.08)">
<use xlink:href="#w"/>
</g>
</g>
<path d="m1265.6 822.22 3.9964-3.7386q1.7526-1.6396 0.11304-3.3922l-5.2894-5.6541q-1.6396-1.7526-3.3922-0.11304l-3.9964 3.7386q-1.7526 1.6396-0.11304 3.3922l5.2894 5.6541q1.6396 1.7526 3.3922 0.11304z" clip-path="url(#a)" fill="#fff" stroke="#fff"/>
<g clip-path="url(#a)">
<g transform="translate(1262.8 819.25) rotate(-43.091) scale(.08 -.08)">
<use xlink:href="#m"/>
</g>
</g>
<path d="m1339.2 820.1 1.5939-4.3164q0.83138-2.2514-1.42-3.0828l-7.2631-2.6821q-2.2514-0.83138-3.0828 1.42l-1.5939 4.3164q-0.83138 2.2514 1.42 3.0828l7.2631 2.6821q2.2514 0.83138 3.0828-1.42z" clip-path="url(#a)" fill="#fff" stroke="#fff"/>
<g clip-path="url(#a)">
<defs>
<path id="at" d="m9.8125 72.906h41.891v-8.3125h-32.031v-21.484h28.906v-8.2969h-28.906v-34.812h-9.8594z"/>
</defs>
<g transform="translate(1335.4 818.69) rotate(-69.732) scale(.08 -.08)">
<use xlink:href="#at"/>
</g>
</g>
<path d="m1375.8 818.62 0.10634-5.4715q0.046636-2.3995-2.3529-2.4462l-7.741-0.15045q-2.3995-0.046636-2.4462 2.3529l-0.10634 5.4715q-0.046636 2.3995 2.3529 2.4462l7.741 0.15045q2.3995 0.046636 2.4462-2.3529z" clip-path="url(#a)" fill="#fff" stroke="#fff"/>
<g clip-path="url(#a)">
<g transform="translate(1371.7 818.55) rotate(-88.887) scale(.08 -.08)">
<use xlink:href="#m"/>
</g>
</g>
<path d="m1386.4 814.07 1.2878 6.0239q0.50176 2.347 2.8487 1.8452l7.5714-1.6187q2.347-0.50176 1.8452-2.8487l-1.2878-6.0239q-0.50176-2.347-2.8487-1.8452l-7.5714 1.6187q-2.347 0.50176-1.8452 2.8487z" clip-path="url(#a)" fill="#fff" stroke="#fff"/>
<g clip-path="url(#a)">
<defs>
<path id="af" d="m19.672 64.797v-56.688h11.922q15.094 0 22.094 6.8281 7 6.8438 7 21.594 0 14.641-7 21.453t-22.094 6.8125zm-9.8594 8.1094h20.266q21.188 0 31.094-8.8125 9.9219-8.8125 9.9219-27.562 0-18.859-9.9688-27.703-9.9531-8.8281-31.047-8.8281h-20.266z"/>
</defs>
<g transform="translate(1390.4 813.22) rotate(77.932) scale(.08 -.08)">
<use xlink:href="#af"/>
</g>
</g>
<path d="m1410.1 816.12 1.9686 4.4038q0.97943 2.1911 3.1705 1.2116l7.0684-3.1597q2.1911-0.97943 1.2116-3.1705l-1.9686-4.4038q-0.97943-2.1911-3.1705-1.2116l-7.0684 3.1597q-2.1911 0.97943-1.2116 3.1705z" clip-path="url(#a)" fill="#fff" stroke="#fff"/>
<g clip-path="url(#a)">
<g transform="translate(1413.8 814.47) rotate(65.915) scale(.08 -.08)">
<use xlink:href="#v"/>
</g>
</g>
<path d="m1446.6 769.32 4.6265 2.923q2.029 1.2819 3.3109-0.74706l4.1355-6.5455q1.2819-2.029-0.74706-3.3109l-4.6265-2.923q-2.029-1.2819-3.3109 0.74706l-4.1355 6.5455q-1.2819 2.029 0.74706 3.3109z" clip-path="url(#a)" fill="#fff" stroke="#fff"/>
<g clip-path="url(#a)">
<g transform="translate(1448.7 765.89) rotate(32.285) scale(.08 -.08)">
<use xlink:href="#m"/>
</g>
</g>
<path d="m1597.5 949.67v35.285q0 2.4 2.4 2.4h7.7425q2.4 0 2.4-2.4v-35.285q0-2.4-2.4-2.4h-7.7425q-2.4 0-2.4 2.4z" clip-path="url(#a)" fill="#fff" stroke="#fff"/>
<g clip-path="url(#a)">
<g transform="translate(1601.6 949.67) rotate(90) scale(.08 -.08)">
<use xlink:href="#l"/>
<use x="60.818359" xlink:href="#d"/>
<use x="122.341797" xlink:href="#h"/>
<use x="163.439453" xlink:href="#k"/>
<use x="260.851562" xlink:href="#j"/>
<use x="288.634766" xlink:href="#f"/>
<use x="352.013672" xlink:href="#g"/>
<use x="413.292969" xlink:href="#i"/>
</g>
</g>
<path d="m1727.3 821.65 3.195-4.443q1.4012-1.9485-0.54732-3.3497l-6.286-4.5203q-1.9485-1.4012-3.3497 0.54732l-3.195 4.443q-1.4012 1.9485 0.54732 3.3497l6.286 4.5203q1.9485 1.4012 3.3497-0.54732z" clip-path="url(#a)" fill="#fff" stroke="#fff"/>
<g clip-path="url(#a)">
<g transform="translate(1724 819.28) rotate(-54.28) scale(.08 -.08)">
<use xlink:href="#m"/>
</g>
</g>
<path d="m1751.7 821.28 2.6921-5.5406q1.0489-2.1587-1.1098-3.2075l-6.964-3.3837q-2.1587-1.0489-3.2075 1.1098l-2.6921 5.5406q-1.0489 2.1587 1.1098 3.2075l6.964 3.3837q2.1587 1.0489 3.2075-1.1098z" clip-path="url(#a)" fill="#fff" stroke="#fff"/>
<g clip-path="url(#a)">
<g transform="translate(1748.1 819.5) rotate(-64.086) scale(.08 -.08)">
<use xlink:href="#af"/>
</g>
</g>
<path d="m1788.2 769.76 1.4276-5.283q0.62609-2.3169-1.6908-2.943l-7.4744-2.0198q-2.3169-0.62609-2.943 1.6908l-1.4276 5.283q-0.62609 2.3169 1.6908 2.943l7.4744 2.0198q2.3169 0.62609 2.943-1.6908z" clip-path="url(#a)" fill="#fff" stroke="#fff"/>
<g clip-path="url(#a)">
<g transform="translate(1784.3 768.7) rotate(-74.878) scale(.08 -.08)">
<use xlink:href="#m"/>
</g>
</g>
<path d="m1811.6 814.72 1.0085 4.7172q0.50176 2.347 2.8487 1.8452l7.5714-1.6187q2.347-0.50176 1.8452-2.8487l-1.0085-4.7172q-0.50176-2.347-2.8487-1.8452l-7.5714 1.6187q-2.347 0.50176-1.8452 2.8487z" clip-path="url(#a)" fill="#fff" stroke="#fff"/>
<g clip-path="url(#a)">
<g transform="translate(1815.6 813.87) rotate(77.932) scale(.08 -.08)">
<use xlink:href="#v"/>
</g>
</g>
<path d="m1835.1 815.83 2.2333 4.9961q0.97943 2.1911 3.1705 1.2116l7.0684-3.1597q2.1911-0.97943 1.2116-3.1705l-2.2333-4.9961q-0.97943-2.1911-3.1705-1.2116l-7.0684 3.1597q-2.1911 0.97943-1.2116 3.1705z" clip-path="url(#a)" fill="#fff" stroke="#fff"/>
<g clip-path="url(#a)">
<g transform="translate(1838.8 814.17) rotate(65.915) scale(.08 -.08)">
<use xlink:href="#m"/>
</g>
</g>
<path d="m1858.7 816.87 3.2931 4.8411q1.3499 1.9844 3.3343 0.63454l6.4018-4.3547q1.9844-1.3499 0.63454-3.3343l-3.2931-4.8411q-1.3499-1.9844-3.3343-0.63454l-6.4018 4.3547q-1.9844 1.3499-0.63454 3.3343z" clip-path="url(#a)" fill="#fff" stroke="#fff"/>
<g clip-path="url(#a)">
<g transform="translate(1862 814.59) rotate(55.775) scale(.08 -.08)">
<use xlink:href="#ad"/>
</g>
</g>
<path d="m1644.7 949.67v35.285q0 2.4 2.4 2.4h7.7425q2.4 0 2.4-2.4v-35.285q0-2.4-2.4-2.4h-7.7425q-2.4 0-2.4 2.4z" clip-path="url(#a)" fill="#fff" stroke="#fff"/>
<g clip-path="url(#a)">
<g transform="translate(1648.8 949.67) rotate(90) scale(.08 -.08)">
<use xlink:href="#l"/>
<use x="60.818359" xlink:href="#d"/>
<use x="122.341797" xlink:href="#h"/>
<use x="163.439453" xlink:href="#k"/>
<use x="260.851562" xlink:href="#j"/>
<use x="288.634766" xlink:href="#f"/>
<use x="352.013672" xlink:href="#g"/>
<use x="413.292969" xlink:href="#i"/>
</g>
</g>
<path d="m1692 949.67v35.285q0 2.4 2.4 2.4h7.7425q2.4 0 2.4-2.4v-35.285q0-2.4-2.4-2.4h-7.7425q-2.4 0-2.4 2.4z" clip-path="url(#a)" fill="#fff" stroke="#fff"/>
<g clip-path="url(#a)">
<g transform="translate(1696 949.67) rotate(90) scale(.08 -.08)">
<use xlink:href="#l"/>
<use x="60.818359" xlink:href="#d"/>
<use x="122.341797" xlink:href="#h"/>
<use x="163.439453" xlink:href="#k"/>
<use x="260.851562" xlink:href="#j"/>
<use x="288.634766" xlink:href="#f"/>
<use x="352.013672" xlink:href="#g"/>
<use x="413.292969" xlink:href="#i"/>
</g>
</g>
<path d="m1762.7 870.9 1.2772-5.4383q0.5487-2.3364-1.7877-2.8851l-7.5374-1.7701q-2.3364-0.5487-2.8851 1.7877l-1.2772 5.4383q-0.5487 2.3364 1.7877 2.8851l7.5374 1.7701q2.3364 0.5487 2.8851-1.7877z" clip-path="url(#a)" fill="#fff" stroke="#fff"/>
<g clip-path="url(#a)">
<g transform="translate(1758.8 869.97) rotate(-76.784) scale(.08 -.08)">
<use xlink:href="#ag"/>
</g>
</g>
<path d="m1774.2 865.72 1.1557 4.9211q0.5487 2.3364 2.8851 1.7877l7.5374-1.7701q2.3364-0.5487 1.7877-2.8851l-1.1557-4.9211q-0.5487-2.3364-2.8851-1.7877l-7.5374 1.7701q-2.3364 0.5487-1.7877 2.8851z" clip-path="url(#a)" fill="#fff" stroke="#fff"/>
<g clip-path="url(#a)">
<g transform="translate(1778.2 864.79) rotate(76.784) scale(.08 -.08)">
<use xlink:href="#y"/>
</g>
</g>
<path d="m1833.7 949.67v35.285q0 2.4 2.4 2.4h7.7425q2.4 0 2.4-2.4v-35.285q0-2.4-2.4-2.4h-7.7425q-2.4 0-2.4 2.4z" clip-path="url(#a)" fill="#fff" stroke="#fff"/>
<g clip-path="url(#a)">
<g transform="translate(1837.7 949.67) rotate(90) scale(.08 -.08)">
<use xlink:href="#l"/>
<use x="60.818359" xlink:href="#d"/>
<use x="122.341797" xlink:href="#h"/>
<use x="163.439453" xlink:href="#k"/>
<use x="260.851562" xlink:href="#j"/>
<use x="288.634766" xlink:href="#f"/>
<use x="352.013672" xlink:href="#g"/>
<use x="413.292969" xlink:href="#i"/>
</g>
</g>
<path d="m1880.9 949.67v35.285q0 2.4 2.4 2.4h7.7425q2.4 0 2.4-2.4v-35.285q0-2.4-2.4-2.4h-7.7425q-2.4 0-2.4 2.4z" clip-path="url(#a)" fill="#fff" stroke="#fff"/>
<g clip-path="url(#a)">
<g transform="translate(1885 949.67) rotate(90) scale(.08 -.08)">
<use xlink:href="#l"/>
<use x="60.818359" xlink:href="#d"/>
<use x="122.341797" xlink:href="#h"/>
<use x="163.439453" xlink:href="#k"/>
<use x="260.851562" xlink:href="#j"/>
<use x="288.634766" xlink:href="#f"/>
<use x="352.013672" xlink:href="#g"/>
<use x="413.292969" xlink:href="#i"/>
</g>
</g>
<path d="m1739.2 949.67v35.285q0 2.4 2.4 2.4h7.7425q2.4 0 2.4-2.4v-35.285q0-2.4-2.4-2.4h-7.7425q-2.4 0-2.4 2.4z" clip-path="url(#a)" fill="#fff" stroke="#fff"/>
<g clip-path="url(#a)">
<g transform="translate(1743.3 949.67) rotate(90) scale(.08 -.08)">
<use xlink:href="#l"/>
<use x="60.818359" xlink:href="#d"/>
<use x="122.341797" xlink:href="#h"/>
<use x="163.439453" xlink:href="#k"/>
<use x="260.851562" xlink:href="#j"/>
<use x="288.634766" xlink:href="#f"/>
<use x="352.013672" xlink:href="#g"/>
<use x="413.292969" xlink:href="#i"/>
</g>
</g>
<path d="m1786.4 949.67v35.285q0 2.4 2.4 2.4h7.7425q2.4 0 2.4-2.4v-35.285q0-2.4-2.4-2.4h-7.7425q-2.4 0-2.4 2.4z" clip-path="url(#a)" fill="#fff" stroke="#fff"/>
<g clip-path="url(#a)">
<g transform="translate(1790.5 949.67) rotate(90) scale(.08 -.08)">
<use xlink:href="#l"/>
<use x="60.818359" xlink:href="#d"/>
<use x="122.341797" xlink:href="#h"/>
<use x="163.439453" xlink:href="#k"/>
<use x="260.851562" xlink:href="#j"/>
<use x="288.634766" xlink:href="#f"/>
<use x="352.013672" xlink:href="#g"/>
<use x="413.292969" xlink:href="#i"/>
</g>
</g>
<path d="m1287 985.92 8.0671-34.35q0.5487-2.3364-1.7877-2.8851l-7.5374-1.7701q-2.3364-0.5487-2.8851 1.7877l-8.0671 34.35q-0.5487 2.3364 1.7877 2.8851l7.5374 1.7701q2.3364 0.5487 2.8851-1.7877z" clip-path="url(#a)" fill="#fff" stroke="#fff"/>
<g clip-path="url(#a)">
<g transform="translate(1283 984.99) rotate(-76.784) scale(.08 -.08)">
<use xlink:href="#l"/>
<use x="60.818359" xlink:href="#d"/>
<use x="122.341797" xlink:href="#h"/>
<use x="163.439453" xlink:href="#k"/>
<use x="260.851562" xlink:href="#j"/>
<use x="288.634766" xlink:href="#f"/>
<use x="352.013672" xlink:href="#g"/>
<use x="413.292969" xlink:href="#i"/>
</g>
</g>
<path d="m1298.4 951.57 8.0671 34.35q0.5487 2.3364 2.8851 1.7877l7.5374-1.7701q2.3364-0.5487 1.7877-2.8851l-8.0671-34.35q-0.5487-2.3364-2.8851-1.7877l-7.5374 1.7701q-2.3364 0.5487-1.7877 2.8851z" clip-path="url(#a)" fill="#fff" stroke="#fff"/>
<g clip-path="url(#a)">
<g transform="translate(1302.4 950.64) rotate(76.784) scale(.08 -.08)">
<use xlink:href="#l"/>
<use x="60.818359" xlink:href="#d"/>
<use x="122.341797" xlink:href="#h"/>
<use x="163.439453" xlink:href="#k"/>
<use x="260.851562" xlink:href="#j"/>
<use x="288.634766" xlink:href="#f"/>
<use x="352.013672" xlink:href="#g"/>
<use x="413.292969" xlink:href="#i"/>
</g>
</g>
<path d="m1361.3 949.67v35.285q0 2.4 2.4 2.4h7.7425q2.4 0 2.4-2.4v-35.285q0-2.4-2.4-2.4h-7.7425q-2.4 0-2.4 2.4z" clip-path="url(#a)" fill="#fff" stroke="#fff"/>
<g clip-path="url(#a)">
<g transform="translate(1365.4 949.67) rotate(90) scale(.08 -.08)">
<use xlink:href="#l"/>
<use x="60.818359" xlink:href="#d"/>
<use x="122.341797" xlink:href="#h"/>
<use x="163.439453" xlink:href="#k"/>
<use x="260.851562" xlink:href="#j"/>
<use x="288.634766" xlink:href="#f"/>
<use x="352.013672" xlink:href="#g"/>
<use x="413.292969" xlink:href="#i"/>
</g>
</g>
<path d="m1408.6 949.67v35.285q0 2.4 2.4 2.4h7.7425q2.4 0 2.4-2.4v-35.285q0-2.4-2.4-2.4h-7.7425q-2.4 0-2.4 2.4z" clip-path="url(#a)" fill="#fff" stroke="#fff"/>
<g clip-path="url(#a)">
<g transform="translate(1412.6 949.67) rotate(90) scale(.08 -.08)">
<use xlink:href="#l"/>
<use x="60.818359" xlink:href="#d"/>
<use x="122.341797" xlink:href="#h"/>
<use x="163.439453" xlink:href="#k"/>
<use x="260.851562" xlink:href="#j"/>
<use x="288.634766" xlink:href="#f"/>
<use x="352.013672" xlink:href="#g"/>
<use x="413.292969" xlink:href="#i"/>
</g>
</g>
<path d="m1455.8 949.67v35.285q0 2.4 2.4 2.4h7.7425q2.4 0 2.4-2.4v-35.285q0-2.4-2.4-2.4h-7.7425q-2.4 0-2.4 2.4z" clip-path="url(#a)" fill="#fff" stroke="#fff"/>
<g clip-path="url(#a)">
<g transform="translate(1459.9 949.67) rotate(90) scale(.08 -.08)">
<use xlink:href="#l"/>
<use x="60.818359" xlink:href="#d"/>
<use x="122.341797" xlink:href="#h"/>
<use x="163.439453" xlink:href="#k"/>
<use x="260.851562" xlink:href="#j"/>
<use x="288.634766" xlink:href="#f"/>
<use x="352.013672" xlink:href="#g"/>
<use x="413.292969" xlink:href="#i"/>
</g>
</g>
<path d="m1526.6 870.64 1.1557-4.9211q0.5487-2.3364-1.7877-2.8851l-7.5374-1.7701q-2.3364-0.5487-2.8851 1.7877l-1.1557 4.9211q-0.5487 2.3364 1.7877 2.8851l7.5374 1.7701q2.3364 0.5487 2.8851-1.7877z" clip-path="url(#a)" fill="#fff" stroke="#fff"/>
<g clip-path="url(#a)">
<g transform="translate(1522.7 869.71) rotate(-76.784) scale(.08 -.08)">
<use xlink:href="#y"/>
</g>
</g>
<path d="m1538 865.46 1.2772 5.4383q0.5487 2.3364 2.8851 1.7877l7.5374-1.7701q2.3364-0.5487 1.7877-2.8851l-1.2772-5.4383q-0.5487-2.3364-2.8851-1.7877l-7.5374 1.7701q-2.3364 0.5487-1.7877 2.8851z" clip-path="url(#a)" fill="#fff" stroke="#fff"/>
<g clip-path="url(#a)">
<g transform="translate(1541.9 864.53) rotate(76.784) scale(.08 -.08)">
<use xlink:href="#ag"/>
</g>
</g>
<path d="m1503 949.67v35.285q0 2.4 2.4 2.4h7.7425q2.4 0 2.4-2.4v-35.285q0-2.4-2.4-2.4h-7.7425q-2.4 0-2.4 2.4z" clip-path="url(#a)" fill="#fff" stroke="#fff"/>
<g clip-path="url(#a)">
<g transform="translate(1507.1 949.67) rotate(90) scale(.08 -.08)">
<use xlink:href="#l"/>
<use x="60.818359" xlink:href="#d"/>
<use x="122.341797" xlink:href="#h"/>
<use x="163.439453" xlink:href="#k"/>
<use x="260.851562" xlink:href="#j"/>
<use x="288.634766" xlink:href="#f"/>
<use x="352.013672" xlink:href="#g"/>
<use x="413.292969" xlink:href="#i"/>
</g>
</g>
<path d="m1550.3 949.67v35.285q0 2.4 2.4 2.4h7.7425q2.4 0 2.4-2.4v-35.285q0-2.4-2.4-2.4h-7.7425q-2.4 0-2.4 2.4z" clip-path="url(#a)" fill="#fff" stroke="#fff"/>
<g clip-path="url(#a)">
<g transform="translate(1554.3 949.67) rotate(90) scale(.08 -.08)">
<use xlink:href="#l"/>
<use x="60.818359" xlink:href="#d"/>
<use x="122.341797" xlink:href="#h"/>
<use x="163.439453" xlink:href="#k"/>
<use x="260.851562" xlink:href="#j"/>
<use x="288.634766" xlink:href="#f"/>
<use x="352.013672" xlink:href="#g"/>
<use x="413.292969" xlink:href="#i"/>
</g>
</g>
<path d="m734.44 871.89 2.3265-4.9533q1.0203-2.1723-1.152-3.1926l-7.008-3.2916q-2.1723-1.0203-3.1926 1.152l-2.3265 4.9533q-1.0203 2.1723 1.152 3.1926l7.008 3.2916q2.1723 1.0203 3.1926-1.152z" clip-path="url(#a)" fill="#fff" stroke="#fff"/>
<g clip-path="url(#a)">
<g transform="translate(730.76 870.16) rotate(-64.841) scale(.08 -.08)">
<use xlink:href="#m"/>
</g>
</g>
<path d="m747.27 863.67v6.16q0 2.4 2.4 2.4h7.7425q2.4 0 2.4-2.4v-6.16q0-2.4-2.4-2.4h-7.7425q-2.4 0-2.4 2.4z" clip-path="url(#a)" fill="#fff" stroke="#fff"/>
<g clip-path="url(#a)">
<g transform="translate(751.34 863.67) rotate(90) scale(.08 -.08)">
<use xlink:href="#af"/>
</g>
</g>
<path d="m768.55 863.47 5.6314 11.99q1.0203 2.1723 3.1926 1.152l7.241-3.4011q2.1723-1.0203 1.152-3.1926l-5.6314-11.99q-1.0203-2.1723-3.1926-1.152l-7.241 3.4011q-2.1723 1.0203-1.152 3.1926z" clip-path="url(#a)" fill="#fff" stroke="#fff"/>
<g clip-path="url(#a)">
<defs>
<path id="aq" d="m21 76.422v-100h-8.2969v100z"/>
</defs>
<g transform="translate(772.43 861.65) rotate(64.841) scale(.08 -.08)">
<use xlink:href="#ae"/>
<use x="63.476562" xlink:href="#aq"/>
<use x="97.167969" xlink:href="#m"/>
</g>
</g>
<path d="m841.74 949.67v35.285q0 2.4 2.4 2.4h7.7425q2.4 0 2.4-2.4v-35.285q0-2.4-2.4-2.4h-7.7425q-2.4 0-2.4 2.4z" clip-path="url(#a)" fill="#fff" stroke="#fff"/>
<g clip-path="url(#a)">
<g transform="translate(845.81 949.67) rotate(90) scale(.08 -.08)">
<use xlink:href="#l"/>
<use x="60.818359" xlink:href="#d"/>
<use x="122.341797" xlink:href="#h"/>
<use x="163.439453" xlink:href="#k"/>
<use x="260.851562" xlink:href="#j"/>
<use x="288.634766" xlink:href="#f"/>
<use x="352.013672" xlink:href="#g"/>
<use x="413.292969" xlink:href="#i"/>
</g>
</g>
<path d="m934.2 872.63 3.2016-4.5442q1.3823-1.962-0.57968-3.3442l-6.3294-4.4593q-1.962-1.3823-3.3442 0.57968l-3.2016 4.5442q-1.3823 1.962 0.57968 3.3442l6.3294 4.4593q1.962 1.3823 3.3442-0.57968z" clip-path="url(#a)" fill="#fff" stroke="#fff"/>
<g clip-path="url(#a)">
<g transform="translate(930.88 870.29) rotate(-54.834) scale(.08 -.08)">
<use xlink:href="#am"/>
</g>
</g>
<path d="m959.77 870.85 1.2512-5.3276q0.5487-2.3364-1.7877-2.8851l-7.5374-1.7701q-2.3364-0.5487-2.8851 1.7877l-1.2512 5.3276q-0.5487 2.3364 1.7877 2.8851l7.5374 1.7701q2.3364 0.5487 2.8851-1.7877z" clip-path="url(#a)" fill="#fff" stroke="#fff"/>
<g clip-path="url(#a)">
<g transform="translate(955.81 869.92) rotate(-76.784) scale(.08 -.08)">
<use xlink:href="#m"/>
</g>
</g>
<path d="m971.18 865.52 1.2512 5.3276q0.5487 2.3364 2.8851 1.7877l7.5374-1.7701q2.3364-0.5487 1.7877-2.8851l-1.2512-5.3276q-0.5487-2.3364-2.8851-1.7877l-7.5374 1.7701q-2.3364 0.5487-1.7877 2.8851z" clip-path="url(#a)" fill="#fff" stroke="#fff"/>
<g clip-path="url(#a)">
<g transform="translate(975.13 864.59) rotate(76.784) scale(.08 -.08)">
<use xlink:href="#m"/>
</g>
</g>
<path d="m992.48 865.02 7.6292 10.829q1.3823 1.962 3.3442 0.57968l6.5399-4.6076q1.962-1.3823 0.57968-3.3442l-7.6292-10.829q-1.3823-1.962-3.3442-0.57968l-6.5399 4.6076q-1.962 1.3823-0.57968 3.3442z" clip-path="url(#a)" fill="#fff" stroke="#fff"/>
<g clip-path="url(#a)">
<g transform="translate(995.98 862.55) rotate(54.834) scale(.08 -.08)">
<use xlink:href="#ae"/>
<use x="63.476562" xlink:href="#aq"/>
<use x="97.167969" xlink:href="#m"/>
</g>
</g>
<path d="m888.98 949.67v35.285q0 2.4 2.4 2.4h7.7425q2.4 0 2.4-2.4v-35.285q0-2.4-2.4-2.4h-7.7425q-2.4 0-2.4 2.4z" clip-path="url(#a)" fill="#fff" stroke="#fff"/>
<g clip-path="url(#a)">
<g transform="translate(893.04 949.67) rotate(90) scale(.08 -.08)">
<use xlink:href="#l"/>
<use x="60.818359" xlink:href="#d"/>
<use x="122.341797" xlink:href="#h"/>
<use x="163.439453" xlink:href="#k"/>
<use x="260.851562" xlink:href="#j"/>
<use x="288.634766" xlink:href="#f"/>
<use x="352.013672" xlink:href="#g"/>
<use x="413.292969" xlink:href="#i"/>
</g>
</g>
<path d="m936.21 949.67v35.285q0 2.4 2.4 2.4h7.7425q2.4 0 2.4-2.4v-35.285q0-2.4-2.4-2.4h-7.7425q-2.4 0-2.4 2.4z" clip-path="url(#a)" fill="#fff" stroke="#fff"/>
<g clip-path="url(#a)">
<g transform="translate(940.27 949.67) rotate(90) scale(.08 -.08)">
<use xlink:href="#l"/>
<use x="60.818359" xlink:href="#d"/>
<use x="122.341797" xlink:href="#h"/>
<use x="163.439453" xlink:href="#k"/>
<use x="260.851562" xlink:href="#j"/>
<use x="288.634766" xlink:href="#f"/>
<use x="352.013672" xlink:href="#g"/>
<use x="413.292969" xlink:href="#i"/>
</g>
</g>
<path d="m983.44 949.67v35.285q0 2.4 2.4 2.4h7.7425q2.4 0 2.4-2.4v-35.285q0-2.4-2.4-2.4h-7.7425q-2.4 0-2.4 2.4z" clip-path="url(#a)" fill="#fff" stroke="#fff"/>
<g clip-path="url(#a)">
<g transform="translate(987.51 949.67) rotate(90) scale(.08 -.08)">
<use xlink:href="#l"/>
<use x="60.818359" xlink:href="#d"/>
<use x="122.341797" xlink:href="#h"/>
<use x="163.439453" xlink:href="#k"/>
<use x="260.851562" xlink:href="#j"/>
<use x="288.634766" xlink:href="#f"/>
<use x="352.013672" xlink:href="#g"/>
<use x="413.292969" xlink:href="#i"/>
</g>
</g>
<path d="m1030.7 949.67v35.285q0 2.4 2.4 2.4h7.7425q2.4 0 2.4-2.4v-35.285q0-2.4-2.4-2.4h-7.7425q-2.4 0-2.4 2.4z" clip-path="url(#a)" fill="#fff" stroke="#fff"/>
<g clip-path="url(#a)">
<g transform="translate(1034.7 949.67) rotate(90) scale(.08 -.08)">
<use xlink:href="#l"/>
<use x="60.818359" xlink:href="#d"/>
<use x="122.341797" xlink:href="#h"/>
<use x="163.439453" xlink:href="#k"/>
<use x="260.851562" xlink:href="#j"/>
<use x="288.634766" xlink:href="#f"/>
<use x="352.013672" xlink:href="#g"/>
<use x="413.292969" xlink:href="#i"/>
</g>
</g>
<path d="m700.04 949.67v35.285q0 2.4 2.4 2.4h7.7425q2.4 0 2.4-2.4v-35.285q0-2.4-2.4-2.4h-7.7425q-2.4 0-2.4 2.4z" clip-path="url(#a)" fill="#fff" stroke="#fff"/>
<g clip-path="url(#a)">
<g transform="translate(704.1 949.67) rotate(90) scale(.08 -.08)">
<use xlink:href="#l"/>
<use x="60.818359" xlink:href="#d"/>
<use x="122.341797" xlink:href="#h"/>
<use x="163.439453" xlink:href="#k"/>
<use x="260.851562" xlink:href="#j"/>
<use x="288.634766" xlink:href="#f"/>
<use x="352.013672" xlink:href="#g"/>
<use x="413.292969" xlink:href="#i"/>
</g>
</g>
<path d="m747.27 949.67v35.285q0 2.4 2.4 2.4h7.7425q2.4 0 2.4-2.4v-35.285q0-2.4-2.4-2.4h-7.7425q-2.4 0-2.4 2.4z" clip-path="url(#a)" fill="#fff" stroke="#fff"/>
<g clip-path="url(#a)">
<g transform="translate(751.34 949.67) rotate(90) scale(.08 -.08)">
<use xlink:href="#l"/>
<use x="60.818359" xlink:href="#d"/>
<use x="122.341797" xlink:href="#h"/>
<use x="163.439453" xlink:href="#k"/>
<use x="260.851562" xlink:href="#j"/>
<use x="288.634766" xlink:href="#f"/>
<use x="352.013672" xlink:href="#g"/>
<use x="413.292969" xlink:href="#i"/>
</g>
</g>
<path d="m794.51 949.67v35.285q0 2.4 2.4 2.4h7.7425q2.4 0 2.4-2.4v-35.285q0-2.4-2.4-2.4h-7.7425q-2.4 0-2.4 2.4z" clip-path="url(#a)" fill="#fff" stroke="#fff"/>
<g clip-path="url(#a)">
<g transform="translate(798.57 949.67) rotate(90) scale(.08 -.08)">
<use xlink:href="#l"/>
<use x="60.818359" xlink:href="#d"/>
<use x="122.341797" xlink:href="#h"/>
<use x="163.439453" xlink:href="#k"/>
<use x="260.851562" xlink:href="#j"/>
<use x="288.634766" xlink:href="#f"/>
<use x="352.013672" xlink:href="#g"/>
<use x="413.292969" xlink:href="#i"/>
</g>
</g>
<path d="m463.87 949.67v35.285q0 2.4 2.4 2.4h7.7425q2.4 0 2.4-2.4v-35.285q0-2.4-2.4-2.4h-7.7425q-2.4 0-2.4 2.4z" clip-path="url(#a)" fill="#fff" stroke="#fff"/>
<g clip-path="url(#a)">
<g transform="translate(467.93 949.67) rotate(90) scale(.08 -.08)">
<use xlink:href="#l"/>
<use x="60.818359" xlink:href="#d"/>
<use x="122.341797" xlink:href="#h"/>
<use x="163.439453" xlink:href="#k"/>
<use x="260.851562" xlink:href="#j"/>
<use x="288.634766" xlink:href="#f"/>
<use x="352.013672" xlink:href="#g"/>
<use x="413.292969" xlink:href="#i"/>
</g>
</g>
<path d="m531.25 985.92 8.0671-34.35q0.5487-2.3364-1.7877-2.8851l-7.5374-1.7701q-2.3364-0.5487-2.8851 1.7877l-8.0671 34.35q-0.5487 2.3364 1.7877 2.8851l7.5374 1.7701q2.3364 0.5487 2.8851-1.7877z" clip-path="url(#a)" fill="#fff" stroke="#fff"/>
<g clip-path="url(#a)">
<g transform="translate(527.3 984.99) rotate(-76.784) scale(.08 -.08)">
<use xlink:href="#l"/>
<use x="60.818359" xlink:href="#d"/>
<use x="122.341797" xlink:href="#h"/>
<use x="163.439453" xlink:href="#k"/>
<use x="260.851562" xlink:href="#j"/>
<use x="288.634766" xlink:href="#f"/>
<use x="352.013672" xlink:href="#g"/>
<use x="413.292969" xlink:href="#i"/>
</g>
</g>
<path d="m542.66 951.57 8.0671 34.35q0.5487 2.3364 2.8851 1.7877l7.5374-1.7701q2.3364-0.5487 1.7877-2.8851l-8.0671-34.35q-0.5487-2.3364-2.8851-1.7877l-7.5374 1.7701q-2.3364 0.5487-1.7877 2.8851z" clip-path="url(#a)" fill="#fff" stroke="#fff"/>
<g clip-path="url(#a)">
<g transform="translate(546.62 950.64) rotate(76.784) scale(.08 -.08)">
<use xlink:href="#l"/>
<use x="60.818359" xlink:href="#d"/>
<use x="122.341797" xlink:href="#h"/>
<use x="163.439453" xlink:href="#k"/>
<use x="260.851562" xlink:href="#j"/>
<use x="288.634766" xlink:href="#f"/>
<use x="352.013672" xlink:href="#g"/>
<use x="413.292969" xlink:href="#i"/>
</g>
</g>
<path d="m133.23 949.67v35.285q0 2.4 2.4 2.4h7.7425q2.4 0 2.4-2.4v-35.285q0-2.4-2.4-2.4h-7.7425q-2.4 0-2.4 2.4z" clip-path="url(#a)" fill="#fff" stroke="#fff"/>
<g clip-path="url(#a)">
<g transform="translate(137.29 949.67) rotate(90) scale(.08 -.08)">
<use xlink:href="#l"/>
<use x="60.818359" xlink:href="#d"/>
<use x="122.341797" xlink:href="#h"/>
<use x="163.439453" xlink:href="#k"/>
<use x="260.851562" xlink:href="#j"/>
<use x="288.634766" xlink:href="#f"/>
<use x="352.013672" xlink:href="#g"/>
<use x="413.292969" xlink:href="#i"/>
</g>
</g>
<path d="m180.46 949.67v35.285q0 2.4 2.4 2.4h7.7425q2.4 0 2.4-2.4v-35.285q0-2.4-2.4-2.4h-7.7425q-2.4 0-2.4 2.4z" clip-path="url(#a)" fill="#fff" stroke="#fff"/>
<g clip-path="url(#a)">
<g transform="translate(184.53 949.67) rotate(90) scale(.08 -.08)">
<use xlink:href="#l"/>
<use x="60.818359" xlink:href="#d"/>
<use x="122.341797" xlink:href="#h"/>
<use x="163.439453" xlink:href="#k"/>
<use x="260.851562" xlink:href="#j"/>
<use x="288.634766" xlink:href="#f"/>
<use x="352.013672" xlink:href="#g"/>
<use x="413.292969" xlink:href="#i"/>
</g>
</g>
<path d="m247.85 985.92 8.0671-34.35q0.5487-2.3364-1.7877-2.8851l-7.5374-1.7701q-2.3364-0.5487-2.8851 1.7877l-8.0671 34.35q-0.5487 2.3364 1.7877 2.8851l7.5374 1.7701q2.3364 0.5487 2.8851-1.7877z" clip-path="url(#a)" fill="#fff" stroke="#fff"/>
<g clip-path="url(#a)">
<g transform="translate(243.89 984.99) rotate(-76.784) scale(.08 -.08)">
<use xlink:href="#l"/>
<use x="60.818359" xlink:href="#d"/>
<use x="122.341797" xlink:href="#h"/>
<use x="163.439453" xlink:href="#k"/>
<use x="260.851562" xlink:href="#j"/>
<use x="288.634766" xlink:href="#f"/>
<use x="352.013672" xlink:href="#g"/>
<use x="413.292969" xlink:href="#i"/>
</g>
</g>
<path d="m259.26 951.57 8.0671 34.35q0.5487 2.3364 2.8851 1.7877l7.5374-1.7701q2.3364-0.5487 1.7877-2.8851l-8.0671-34.35q-0.5487-2.3364-2.8851-1.7877l-7.5374 1.7701q-2.3364 0.5487-1.7877 2.8851z" clip-path="url(#a)" fill="#fff" stroke="#fff"/>
<g clip-path="url(#a)">
<g transform="translate(263.21 950.64) rotate(76.784) scale(.08 -.08)">
<use xlink:href="#l"/>
<use x="60.818359" xlink:href="#d"/>
<use x="122.341797" xlink:href="#h"/>
<use x="163.439453" xlink:href="#k"/>
<use x="260.851562" xlink:href="#j"/>
<use x="288.634766" xlink:href="#f"/>
<use x="352.013672" xlink:href="#g"/>
<use x="413.292969" xlink:href="#i"/>
</g>
</g>
<path d="m322.17 949.67v35.285q0 2.4 2.4 2.4h7.7425q2.4 0 2.4-2.4v-35.285q0-2.4-2.4-2.4h-7.7425q-2.4 0-2.4 2.4z" clip-path="url(#a)" fill="#fff" stroke="#fff"/>
<g clip-path="url(#a)">
<g transform="translate(326.23 949.67) rotate(90) scale(.08 -.08)">
<use xlink:href="#l"/>
<use x="60.818359" xlink:href="#d"/>
<use x="122.341797" xlink:href="#h"/>
<use x="163.439453" xlink:href="#k"/>
<use x="260.851562" xlink:href="#j"/>
<use x="288.634766" xlink:href="#f"/>
<use x="352.013672" xlink:href="#g"/>
<use x="413.292969" xlink:href="#i"/>
</g>
</g>
<path d="m1077.9 949.67v35.285q0 2.4 2.4 2.4h7.7425q2.4 0 2.4-2.4v-35.285q0-2.4-2.4-2.4h-7.7425q-2.4 0-2.4 2.4z" clip-path="url(#a)" fill="#fff" stroke="#fff"/>
<g clip-path="url(#a)">
<g transform="translate(1082 949.67) rotate(90) scale(.08 -.08)">
<use xlink:href="#l"/>
<use x="60.818359" xlink:href="#d"/>
<use x="122.341797" xlink:href="#h"/>
<use x="163.439453" xlink:href="#k"/>
<use x="260.851562" xlink:href="#j"/>
<use x="288.634766" xlink:href="#f"/>
<use x="352.013672" xlink:href="#g"/>
<use x="413.292969" xlink:href="#i"/>
</g>
</g>
<path d="m1219.6 949.67v35.285q0 2.4 2.4 2.4h7.7425q2.4 0 2.4-2.4v-35.285q0-2.4-2.4-2.4h-7.7425q-2.4 0-2.4 2.4z" clip-path="url(#a)" fill="#fff" stroke="#fff"/>
<g clip-path="url(#a)">
<g transform="translate(1223.7 949.67) rotate(90) scale(.08 -.08)">
<use xlink:href="#l"/>
<use x="60.818359" xlink:href="#d"/>
<use x="122.341797" xlink:href="#h"/>
<use x="163.439453" xlink:href="#k"/>
<use x="260.851562" xlink:href="#j"/>
<use x="288.634766" xlink:href="#f"/>
<use x="352.013672" xlink:href="#g"/>
<use x="413.292969" xlink:href="#i"/>
</g>
</g>
<path d="m1928.1 949.67v35.285q0 2.4 2.4 2.4h7.7425q2.4 0 2.4-2.4v-35.285q0-2.4-2.4-2.4h-7.7425q-2.4 0-2.4 2.4z" clip-path="url(#a)" fill="#fff" stroke="#fff"/>
<g clip-path="url(#a)">
<g transform="translate(1932.2 949.67) rotate(90) scale(.08 -.08)">
<use xlink:href="#l"/>
<use x="60.818359" xlink:href="#d"/>
<use x="122.341797" xlink:href="#h"/>
<use x="163.439453" xlink:href="#k"/>
<use x="260.851562" xlink:href="#j"/>
<use x="288.634766" xlink:href="#f"/>
<use x="352.013672" xlink:href="#g"/>
<use x="413.292969" xlink:href="#i"/>
</g>
</g>
<defs>
<path id="b" d="m0 8.6603c2.2967 0 4.4997-0.9125 6.1237-2.5365 1.624-1.624 2.5365-3.827 2.5365-6.1237s-0.9125-4.4997-2.5365-6.1237c-1.624-1.624-3.827-2.5365-6.1237-2.5365s-4.4997 0.9125-6.1237 2.5365c-1.624 1.624-2.5365 3.827-2.5365 6.1237s0.9125 4.4997 2.5365 6.1237c1.624 1.624 3.827 2.5365 6.1237 2.5365z"/>
</defs>
<g clip-path="url(#a)">
<use x="92.266536" y="1017.593954" fill="#ffffff" stroke="#ffffff" xlink:href="#b"/>
</g>
<g clip-path="url(#a)">
<use x="139.500731" y="1017.593954" fill="#ffffff" stroke="#ffffff" xlink:href="#b"/>
</g>
<g clip-path="url(#a)">
<use x="186.734926" y="1017.593954" fill="#ffffff" stroke="#ffffff" xlink:href="#b"/>
</g>
<g clip-path="url(#a)">
<use x="233.96912" y="1017.593954" fill="#ffffff" stroke="#ffffff" xlink:href="#b"/>
</g>
<g clip-path="url(#a)">
<use x="281.203315" y="1017.593954" fill="#ffffff" stroke="#ffffff" xlink:href="#b"/>
</g>
<g clip-path="url(#a)">
<use x="328.43751" y="1017.593954" fill="#ffffff" stroke="#ffffff" xlink:href="#b"/>
</g>
<g clip-path="url(#a)">
<use x="375.671704" y="1017.593954" fill="#ffffff" stroke="#ffffff" xlink:href="#b"/>
</g>
<g clip-path="url(#a)">
<use x="422.905899" y="1017.593954" fill="#ffffff" stroke="#ffffff" xlink:href="#b"/>
</g>
<g clip-path="url(#a)">
<use x="470.140094" y="1017.593954" fill="#ffffff" stroke="#ffffff" xlink:href="#b"/>
</g>
<g clip-path="url(#a)">
<use x="517.374289" y="1017.593954" fill="#ffffff" stroke="#ffffff" xlink:href="#b"/>
</g>
<g clip-path="url(#a)">
<use x="564.608483" y="1017.593954" fill="#ffffff" stroke="#ffffff" xlink:href="#b"/>
</g>
<g clip-path="url(#a)">
<use x="611.842678" y="1017.593954" fill="#ffffff" stroke="#ffffff" xlink:href="#b"/>
</g>
<g clip-path="url(#a)">
<use x="659.076873" y="1017.593954" fill="#ffffff" stroke="#ffffff" xlink:href="#b"/>
</g>
<g clip-path="url(#a)">
<use x="706.311068" y="1017.593954" fill="#ffffff" stroke="#ffffff" xlink:href="#b"/>
</g>
<g clip-path="url(#a)">
<use x="753.545262" y="1017.593954" fill="#ffffff" stroke="#ffffff" xlink:href="#b"/>
</g>
<g clip-path="url(#a)">
<use x="800.779457" y="1017.593954" fill="#ffffff" stroke="#ffffff" xlink:href="#b"/>
</g>
<g clip-path="url(#a)">
<use x="848.013652" y="1017.593954" fill="#ffffff" stroke="#ffffff" xlink:href="#b"/>
</g>
<g clip-path="url(#a)">
<use x="895.247847" y="1017.593954" fill="#ffffff" stroke="#ffffff" xlink:href="#b"/>
</g>
<g clip-path="url(#a)">
<use x="942.482041" y="1017.593954" fill="#ffffff" stroke="#ffffff" xlink:href="#b"/>
</g>
<g clip-path="url(#a)">
<use x="989.716236" y="1017.593954" fill="#ffffff" stroke="#ffffff" xlink:href="#b"/>
</g>
<g clip-path="url(#a)">
<use x="1036.950431" y="1017.593954" fill="#ffffff" stroke="#ffffff" xlink:href="#b"/>
</g>
<g clip-path="url(#a)">
<use x="1084.184625" y="1017.593954" fill="#ffffff" stroke="#ffffff" xlink:href="#b"/>
</g>
<g clip-path="url(#a)">
<use x="1131.41882" y="1017.593954" fill="#ffffff" stroke="#ffffff" xlink:href="#b"/>
</g>
<g clip-path="url(#a)">
<use x="1178.653015" y="1017.593954" fill="#ffffff" stroke="#ffffff" xlink:href="#b"/>
</g>
<g clip-path="url(#a)">
<use x="1225.88721" y="1017.593954" fill="#ffffff" stroke="#ffffff" xlink:href="#b"/>
</g>
<g clip-path="url(#a)">
<use x="1273.121404" y="1017.593954" fill="#ffffff" stroke="#ffffff" xlink:href="#b"/>
</g>
<g clip-path="url(#a)">
<use x="1320.355599" y="1017.593954" fill="#ffffff" stroke="#ffffff" xlink:href="#b"/>
</g>
<g clip-path="url(#a)">
<use x="1367.589794" y="1017.593954" fill="#ffffff" stroke="#ffffff" xlink:href="#b"/>
</g>
<g clip-path="url(#a)">
<use x="1414.823989" y="1017.593954" fill="#ffffff" stroke="#ffffff" xlink:href="#b"/>
</g>
<g clip-path="url(#a)">
<use x="1462.058183" y="1017.593954" fill="#ffffff" stroke="#ffffff" xlink:href="#b"/>
</g>
<g clip-path="url(#a)">
<use x="1509.292378" y="1017.593954" fill="#ffffff" stroke="#ffffff" xlink:href="#b"/>
</g>
<g clip-path="url(#a)">
<use x="1556.526573" y="1017.593954" fill="#ffffff" stroke="#ffffff" xlink:href="#b"/>
</g>
<g clip-path="url(#a)">
<use x="1603.760767" y="1017.593954" fill="#ffffff" stroke="#ffffff" xlink:href="#b"/>
</g>
<g clip-path="url(#a)">
<use x="1650.994962" y="1017.593954" fill="#ffffff" stroke="#ffffff" xlink:href="#b"/>
</g>
<g clip-path="url(#a)">
<use x="1698.229157" y="1017.593954" fill="#ffffff" stroke="#ffffff" xlink:href="#b"/>
</g>
<g clip-path="url(#a)">
<use x="1745.463352" y="1017.593954" fill="#ffffff" stroke="#ffffff" xlink:href="#b"/>
</g>
<g clip-path="url(#a)">
<use x="1792.697546" y="1017.593954" fill="#ffffff" stroke="#ffffff" xlink:href="#b"/>
</g>
<g clip-path="url(#a)">
<use x="1839.931741" y="1017.593954" fill="#ffffff" stroke="#ffffff" xlink:href="#b"/>
</g>
<g clip-path="url(#a)">
<use x="1887.165936" y="1017.593954" fill="#ffffff" stroke="#ffffff" xlink:href="#b"/>
</g>
<g clip-path="url(#a)">
<use x="1934.400131" y="1017.593954" fill="#ffffff" stroke="#ffffff" xlink:href="#b"/>
</g>
<g clip-path="url(#a)">
<use x="282.121758" y="49.072712" fill="#ffffff" stroke="#ffffff" xlink:href="#b"/>
</g>
<g clip-path="url(#a)">
<use x="282.121758" y="167.962708" fill="#ffffff" stroke="#ffffff" xlink:href="#b"/>
</g>
<g clip-path="url(#a)">
<use x="92.266536" y="917.030007" fill="#ffffff" stroke="#ffffff" xlink:href="#b"/>
</g>
<g clip-path="url(#a)">
<use x="194.607291" y="816.46606" fill="#ffffff" stroke="#ffffff" xlink:href="#b"/>
</g>
<g clip-path="url(#a)">
<use x="513.175694" y="283.272195" fill="#ffffff" stroke="#ffffff" xlink:href="#b"/>
</g>
<g clip-path="url(#a)">
<use x="375.671704" y="917.030007" fill="#ffffff" stroke="#ffffff" xlink:href="#b"/>
</g>
<g clip-path="url(#a)">
<use x="422.905899" y="917.030007" fill="#ffffff" stroke="#ffffff" xlink:href="#b"/>
</g>
<g clip-path="url(#a)">
<use x="505.56574" y="816.46606" fill="#ffffff" stroke="#ffffff" xlink:href="#b"/>
</g>
<g clip-path="url(#a)">
<use x="748.559431" y="395.282676" fill="#ffffff" stroke="#ffffff" xlink:href="#b"/>
</g>
<g clip-path="url(#a)">
<use x="611.842678" y="917.030007" fill="#ffffff" stroke="#ffffff" xlink:href="#b"/>
</g>
<g clip-path="url(#a)">
<use x="659.076873" y="917.030007" fill="#ffffff" stroke="#ffffff" xlink:href="#b"/>
</g>
<g clip-path="url(#a)">
<use x="1182.326786" y="504.282623" fill="#ffffff" stroke="#ffffff" xlink:href="#b"/>
</g>
<g clip-path="url(#a)">
<use x="855.886018" y="714.503157" fill="#ffffff" stroke="#ffffff" xlink:href="#b"/>
</g>
<g clip-path="url(#a)">
<use x="1155.035918" y="917.030007" fill="#ffffff" stroke="#ffffff" xlink:href="#b"/>
</g>
<g clip-path="url(#a)">
<use x="1590.640158" y="610.576882" fill="#ffffff" stroke="#ffffff" xlink:href="#b"/>
</g>
<g clip-path="url(#a)">
<use x="1371.525977" y="714.503157" fill="#ffffff" stroke="#ffffff" xlink:href="#b"/>
</g>
<g clip-path="url(#a)">
<use x="1603.760767" y="917.030007" fill="#ffffff" stroke="#ffffff" xlink:href="#b"/>
</g>
<g clip-path="url(#a)">
<use x="1796.633729" y="714.503157" fill="#ffffff" stroke="#ffffff" xlink:href="#b"/>
</g>
<g clip-path="url(#a)">
<use x="1650.994962" y="917.030007" fill="#ffffff" stroke="#ffffff" xlink:href="#b"/>
</g>
<g clip-path="url(#a)">
<use x="1698.229157" y="917.030007" fill="#ffffff" stroke="#ffffff" xlink:href="#b"/>
</g>
<g clip-path="url(#a)">
<use x="1769.080449" y="816.46606" fill="#ffffff" stroke="#ffffff" xlink:href="#b"/>
</g>
<g clip-path="url(#a)">
<use x="1839.931741" y="917.030007" fill="#ffffff" stroke="#ffffff" xlink:href="#b"/>
</g>
<g clip-path="url(#a)">
<use x="1887.165936" y="917.030007" fill="#ffffff" stroke="#ffffff" xlink:href="#b"/>
</g>
<g clip-path="url(#a)">
<use x="1745.463352" y="917.030007" fill="#ffffff" stroke="#ffffff" xlink:href="#b"/>
</g>
<g clip-path="url(#a)">
<use x="1792.697546" y="917.030007" fill="#ffffff" stroke="#ffffff" xlink:href="#b"/>
</g>
<g clip-path="url(#a)">
<use x="1296.738502" y="917.030007" fill="#ffffff" stroke="#ffffff" xlink:href="#b"/>
</g>
<g clip-path="url(#a)">
<use x="1367.589794" y="917.030007" fill="#ffffff" stroke="#ffffff" xlink:href="#b"/>
</g>
<g clip-path="url(#a)">
<use x="1414.823989" y="917.030007" fill="#ffffff" stroke="#ffffff" xlink:href="#b"/>
</g>
<g clip-path="url(#a)">
<use x="1462.058183" y="917.030007" fill="#ffffff" stroke="#ffffff" xlink:href="#b"/>
</g>
<g clip-path="url(#a)">
<use x="1532.909475" y="816.46606" fill="#ffffff" stroke="#ffffff" xlink:href="#b"/>
</g>
<g clip-path="url(#a)">
<use x="1509.292378" y="917.030007" fill="#ffffff" stroke="#ffffff" xlink:href="#b"/>
</g>
<g clip-path="url(#a)">
<use x="1556.526573" y="917.030007" fill="#ffffff" stroke="#ffffff" xlink:href="#b"/>
</g>
<g clip-path="url(#a)">
<use x="753.545262" y="816.46606" fill="#ffffff" stroke="#ffffff" xlink:href="#b"/>
</g>
<g clip-path="url(#a)">
<use x="848.013652" y="917.030007" fill="#ffffff" stroke="#ffffff" xlink:href="#b"/>
</g>
<g clip-path="url(#a)">
<use x="966.099139" y="816.46606" fill="#ffffff" stroke="#ffffff" xlink:href="#b"/>
</g>
<g clip-path="url(#a)">
<use x="895.247847" y="917.030007" fill="#ffffff" stroke="#ffffff" xlink:href="#b"/>
</g>
<g clip-path="url(#a)">
<use x="942.482041" y="917.030007" fill="#ffffff" stroke="#ffffff" xlink:href="#b"/>
</g>
<g clip-path="url(#a)">
<use x="989.716236" y="917.030007" fill="#ffffff" stroke="#ffffff" xlink:href="#b"/>
</g>
<g clip-path="url(#a)">
<use x="1036.950431" y="917.030007" fill="#ffffff" stroke="#ffffff" xlink:href="#b"/>
</g>
<g clip-path="url(#a)">
<use x="706.311068" y="917.030007" fill="#ffffff" stroke="#ffffff" xlink:href="#b"/>
</g>
<g clip-path="url(#a)">
<use x="753.545262" y="917.030007" fill="#ffffff" stroke="#ffffff" xlink:href="#b"/>
</g>
<g clip-path="url(#a)">
<use x="800.779457" y="917.030007" fill="#ffffff" stroke="#ffffff" xlink:href="#b"/>
</g>
<g clip-path="url(#a)">
<use x="470.140094" y="917.030007" fill="#ffffff" stroke="#ffffff" xlink:href="#b"/>
</g>
<g clip-path="url(#a)">
<use x="540.991386" y="917.030007" fill="#ffffff" stroke="#ffffff" xlink:href="#b"/>
</g>
<g clip-path="url(#a)">
<use x="139.500731" y="917.030007" fill="#ffffff" stroke="#ffffff" xlink:href="#b"/>
</g>
<g clip-path="url(#a)">
<use x="186.734926" y="917.030007" fill="#ffffff" stroke="#ffffff" xlink:href="#b"/>
</g>
<g clip-path="url(#a)">
<use x="257.586218" y="917.030007" fill="#ffffff" stroke="#ffffff" xlink:href="#b"/>
</g>
<g clip-path="url(#a)">
<use x="328.43751" y="917.030007" fill="#ffffff" stroke="#ffffff" xlink:href="#b"/>
</g>
<g clip-path="url(#a)">
<use x="1084.184625" y="917.030007" fill="#ffffff" stroke="#ffffff" xlink:href="#b"/>
</g>
<g clip-path="url(#a)">
<use x="1225.88721" y="917.030007" fill="#ffffff" stroke="#ffffff" xlink:href="#b"/>
</g>
<g clip-path="url(#a)">
<use x="1934.400131" y="917.030007" fill="#ffffff" stroke="#ffffff" xlink:href="#b"/>
</g>
<g clip-path="url(#a)">
<defs>
<path id="ac" d="m48.781 52.594v-8.4062q-3.8125 2.1094-7.6406 3.1562t-7.7344 1.0469q-8.75 0-13.594-5.5469-4.8281-5.5312-4.8281-15.547t4.8281-15.562q4.8438-5.5312 13.594-5.5312 3.9062 0 7.7344 1.0469t7.6406 3.1562v-8.3125q-3.7656-1.75-7.7969-2.625-4.0156-0.89062-8.5625-0.89062-12.359 0-19.641 7.7656-7.2656 7.7656-7.2656 20.953 0 13.375 7.3438 21.031 7.3594 7.6719 20.156 7.6719 4.1406 0 8.0938-0.85938 3.9531-0.84375 7.6719-2.5469z"/>
<path id="r" d="m30.609 48.391q-7.2188 0-11.422-5.6406t-4.2031-15.453 4.1719-15.453q4.1875-5.6406 11.453-5.6406 7.1875 0 11.375 5.6562 4.2031 5.6719 4.2031 15.438 0 9.7188-4.2031 15.406-4.1875 5.6875-11.375 5.6875zm0 7.6094q11.719 0 18.406-7.625 6.7031-7.6094 6.7031-21.078 0-13.422-6.7031-21.078-6.6875-7.6406-18.406-7.6406-11.766 0-18.438 7.6406-6.6562 7.6562-6.6562 21.078 0 13.469 6.6562 21.078 6.6719 7.625 18.438 7.625z"/>
<path id="x" d="m45.406 46.391v29.594h8.9844v-75.984h-8.9844v8.2031q-2.8281-4.875-7.1562-7.25-4.3125-2.375-10.375-2.375-9.9062 0-16.141 7.9062-6.2188 7.9219-6.2188 20.812t6.2188 20.797q6.2344 7.9062 16.141 7.9062 6.0625 0 10.375-2.375 4.3281-2.3594 7.1562-7.2344zm-30.609-19.094q0-9.9062 4.0781-15.547t11.203-5.6406 11.219 5.6406q4.1094 5.6406 4.1094 15.547t-4.1094 15.547q-4.0938 5.6406-11.219 5.6406t-11.203-5.6406-4.0781-15.547z"/>
<path id="aw" d="m45.406 27.984q0 9.7656-4.0312 15.125-4.0156 5.375-11.297 5.375-7.2188 0-11.25-5.375-4.0312-5.3594-4.0312-15.125 0-9.7188 4.0312-15.094t11.25-5.375q7.2812 0 11.297 5.375 4.0312 5.375 4.0312 15.094zm8.9844-21.203q0-13.953-6.2031-20.766-6.1875-6.8125-18.984-6.8125-4.7344 0-8.9375 0.70312t-8.1562 2.1719v8.7344q3.9531-2.1406 7.8125-3.1562 3.8594-1.0312 7.8594-1.0312 8.8438 0 13.234 4.6094t4.3906 13.938v4.4531q-2.7812-4.8438-7.125-7.2344t-10.406-2.3906q-10.047 0-16.203 7.6562-6.1562 7.6719-6.1562 20.328 0 12.688 6.1562 20.344 6.1562 7.6719 16.203 7.6719 6.0625 0 10.406-2.3906t7.125-7.2188v8.2969h8.9844z"/>
</defs>
<g transform="translate(67.328 1020.4) scale(.1 -.1)">
<use xlink:href="#m"/>
<use x="68.392578" xlink:href="#ac"/>
<use x="123.373047" xlink:href="#ac"/>
<use x="178.353516" xlink:href="#r"/>
<use x="239.535156" xlink:href="#h"/>
<use x="280.632812" xlink:href="#x"/>
<use x="344.109375" xlink:href="#j"/>
<use x="371.892578" xlink:href="#f"/>
<use x="435.271484" xlink:href="#aw"/>
</g>
</g>
<g clip-path="url(#a)">
<defs>
<path id="q" d="m18.312 70.219v-15.531h18.5v-6.9844h-18.5v-29.688q0-6.6875 1.8281-8.5938t7.4531-1.9062h9.2188v-7.5156h-9.2188q-10.406 0-14.359 3.875-3.9531 3.8906-3.9531 14.141v29.688h-6.5938v6.9844h6.5938v15.531z"/>
</defs>
<g transform="translate(134.48 1020.4) scale(.1 -.1)">
<use xlink:href="#q"/>
<use x="39.208984" xlink:href="#r"/>
</g>
</g>
<g clip-path="url(#a)">
<defs>
<path id="t" d="m44.281 53.078v-8.5q-3.7969 1.9531-7.9062 2.9219-4.0938 0.98438-8.5 0.98438-6.6875 0-10.031-2.0469t-3.3438-6.1562q0-3.125 2.3906-4.9062t9.625-3.3906l3.0781-0.6875q9.5625-2.0469 13.594-5.7812t4.0312-10.422q0-7.625-6.0312-12.078-6.0312-4.4375-16.578-4.4375-4.3906 0-9.1562 0.85938t-10.031 2.5625v9.2812q4.9844-2.5938 9.8125-3.8906 4.8281-1.2812 9.5781-1.2812 6.3438 0 9.75 2.1719 3.4219 2.1719 3.4219 6.125 0 3.6562-2.4688 5.6094-2.4531 1.9531-10.812 3.7656l-3.125 0.73438q-8.3438 1.75-12.062 5.3906-3.7031 3.6406-3.7031 9.9844 0 7.7188 5.4688 11.906 5.4688 4.2031 15.531 4.2031 4.9688 0 9.3594-0.73438 4.4062-0.71875 8.1094-2.1875z"/>
</defs>
<g transform="translate(161.35 1020.4) scale(.1 -.1)">
<use xlink:href="#ac"/>
<use x="54.980469" xlink:href="#i"/>
<use x="82.763672" xlink:href="#g"/>
<use x="144.042969" xlink:href="#t"/>
<use x="196.142578" xlink:href="#t"/>
<use x="248.242188" xlink:href="#k"/>
<use x="345.654297" xlink:href="#g"/>
<use x="406.933594" xlink:href="#q"/>
<use x="446.142578" xlink:href="#d"/>
</g>
</g>
<g clip-path="url(#a)">
<defs>
<path id="au" d="m19.672 34.812v-26.703h15.828q7.9531 0 11.781 3.2969 3.8438 3.2969 3.8438 10.078 0 6.8438-3.8438 10.078-3.8281 3.25-11.781 3.25zm0 29.984v-21.969h14.609q7.2188 0 10.75 2.7031 3.5469 2.7188 3.5469 8.2812 0 5.5156-3.5469 8.25-3.5312 2.7344-10.75 2.7344zm-9.8594 8.1094h25.203q11.281 0 17.375-4.6875 6.1094-4.6875 6.1094-13.328 0-6.7031-3.125-10.656t-9.1875-4.9219q7.2812-1.5625 11.312-6.5312 4.0312-4.9531 4.0312-12.375 0-9.7656-6.6406-15.094-6.6406-5.3125-18.906-5.3125h-26.172z"/>
</defs>
<g transform="translate(226.37 1020.4) scale(.1 -.1)">
<use xlink:href="#au"/>
<use x="68.603516" xlink:href="#j"/>
<use x="96.386719" xlink:href="#i"/>
<use x="124.169922" xlink:href="#i"/>
</g>
</g>
<g clip-path="url(#a)">
<defs>
<path id="ak" d="m8.5 21.578v33.109h8.9844v-32.766q0-7.7656 3.0156-11.656 3.0312-3.875 9.0938-3.875 7.2656 0 11.484 4.6406 4.2344 4.6406 4.2344 12.656v31h8.9844v-54.688h-8.9844v8.4062q-3.2656-4.9844-7.5938-7.4062-4.3125-2.4219-10.031-2.4219-9.4219 0-14.312 5.8594-4.875 5.8594-4.875 17.141z"/>
</defs>
<g transform="translate(264.64 1020.4) scale(.1 -.1)">
<use xlink:href="#l"/>
<use x="60.849609" xlink:href="#ak"/>
<use x="124.228516" xlink:href="#h"/>
<use x="165.326172" xlink:href="#f"/>
<use x="228.705078" xlink:href="#d"/>
<use x="290.228516" xlink:href="#h"/>
</g>
</g>
<g clip-path="url(#a)">
<defs>
<path id="ao" d="m11.719 12.406h10.297v-8.4062l-8-15.625h-6.2969l4 15.625z"/>
</defs>
<g transform="translate(326.85 1020.4) scale(.1 -.1)">
<use xlink:href="#ao"/>
</g>
</g>
<g clip-path="url(#a)">
<g transform="translate(357.24 1020.4) scale(.1 -.1)">
<use xlink:href="#an"/>
<use x="55.697266" xlink:href="#d"/>
<use x="117.220703" xlink:href="#f"/>
<use x="180.599609" xlink:href="#f"/>
<use x="243.978516" xlink:href="#r"/>
<use x="305.160156" xlink:href="#f"/>
</g>
</g>
<g clip-path="url(#a)">
<g transform="translate(403.75 1020.4) scale(.1 -.1)">
<use xlink:href="#ac"/>
<use x="54.980469" xlink:href="#h"/>
<use x="96.0625" xlink:href="#d"/>
<use x="157.585938" xlink:href="#g"/>
<use x="218.865234" xlink:href="#q"/>
<use x="258.074219" xlink:href="#d"/>
<use x="319.597656" xlink:href="#x"/>
</g>
</g>
<g clip-path="url(#a)">
<defs>
<path id="u" d="m54.891 33.016v-33.016h-8.9844v32.719q0 7.7656-3.0312 11.609-3.0312 3.8594-9.0781 3.8594-7.2812 0-11.484-4.6406-4.2031-4.625-4.2031-12.641v-30.906h-9.0312v75.984h9.0312v-29.797q3.2344 4.9375 7.5938 7.375 4.375 2.4375 10.094 2.4375 9.4219 0 14.25-5.8281 4.8438-5.8281 4.8438-17.156z"/>
</defs>
<g transform="translate(461.93 1020.4) scale(.1 -.1)">
<use xlink:href="#q"/>
<use x="39.208984" xlink:href="#u"/>
<use x="102.587891" xlink:href="#d"/>
</g>
</g>
<g clip-path="url(#a)">
<defs>
<path id="ap" d="m32.172-5.0781q-3.7969-9.7656-7.4219-12.734-3.6094-2.9844-9.6562-2.9844h-7.1875v7.5156h5.2812q3.7031 0 5.75 1.7656 2.0625 1.75 4.5469 8.2969l1.6094 4.0938-22.109 53.812h9.5156l17.094-42.766 17.094 42.766h9.5156z"/>
</defs>
<g transform="translate(504.72 1020.4) scale(.1 -.1)">
<use xlink:href="#af"/>
<use x="77.001953" xlink:href="#g"/>
<use x="138.28125" xlink:href="#j"/>
<use x="166.064453" xlink:href="#i"/>
<use x="193.847656" xlink:href="#ap"/>
</g>
</g>
<g clip-path="url(#a)">
<defs>
<path id="ab" d="m4.2031 54.688h8.9844l11.234-42.672 11.172 42.672h10.594l11.234-42.672 11.188 42.672h8.9844l-14.312-54.688h-10.594l-11.766 44.828-11.812-44.828h-10.609z"/>
</defs>
<g transform="translate(552.31 1020.4) scale(.1 -.1)">
<use xlink:href="#w"/>
<use x="75.195312" xlink:href="#r"/>
<use x="136.376953" xlink:href="#ab"/>
<use x="218.164062" xlink:href="#i"/>
</g>
</g>
<g clip-path="url(#a)">
<g transform="translate(606.82 1020.4) scale(.1 -.1)">
<use xlink:href="#q"/>
<use x="39.208984" xlink:href="#r"/>
</g>
</g>
<g clip-path="url(#a)">
<g transform="translate(642.29 1020.4) scale(.1 -.1)">
<use xlink:href="#g"/>
<use x="61.279297" xlink:href="#k"/>
<use x="158.691406" xlink:href="#ak"/>
<use x="222.070312" xlink:href="#t"/>
<use x="274.169922" xlink:href="#d"/>
</g>
</g>
<g clip-path="url(#a)">
<g transform="translate(699.15 1020.4) scale(.1 -.1)">
<use xlink:href="#u"/>
<use x="63.378906" xlink:href="#j"/>
<use x="91.162109" xlink:href="#t"/>
</g>
</g>
<g clip-path="url(#a)">
<defs>
<path id="al" d="m48.688 27.297q0 9.9062-4.0781 15.547t-11.203 5.6406q-7.1406 0-11.219-5.6406t-4.0781-15.547 4.0781-15.547 11.219-5.6406q7.125 0 11.203 5.6406t4.0781 15.547zm-30.578 19.094q2.8438 4.875 7.1562 7.2344 4.3281 2.375 10.328 2.375 9.9688 0 16.188-7.9062 6.2344-7.9062 6.2344-20.797t-6.2344-20.812q-6.2188-7.9062-16.188-7.9062-6 0-10.328 2.375-4.3125 2.375-7.1562 7.25v-8.2031h-9.0312v75.984h9.0312z"/>
</defs>
<g transform="translate(742.73 1020.4) scale(.1 -.1)">
<use xlink:href="#al"/>
<use x="63.476562" xlink:href="#d"/>
<use x="125" xlink:href="#t"/>
<use x="177.099609" xlink:href="#q"/>
</g>
</g>
<g clip-path="url(#a)">
<defs>
<path id="ar" d="m37.109 75.984v-7.4844h-8.5938q-4.8281 0-6.7188-1.9531-1.875-1.9531-1.875-7.0312v-4.8281h14.797v-6.9844h-14.797v-47.703h-9.0312v47.703h-8.5938v6.9844h8.5938v3.8125q0 9.125 4.25 13.297 4.25 4.1875 13.469 4.1875z"/>
</defs>
<g transform="translate(786.16 1020.4) scale(.1 -.1)">
<use xlink:href="#ar"/>
<use x="35.205078" xlink:href="#h"/>
<use x="76.318359" xlink:href="#j"/>
<use x="104.101562" xlink:href="#d"/>
<use x="165.625" xlink:href="#f"/>
<use x="229.003906" xlink:href="#x"/>
</g>
</g>
<g clip-path="url(#a)">
<g transform="translate(838.61 1020.4) scale(.1 -.1)">
<use xlink:href="#g"/>
<use x="61.279297" xlink:href="#f"/>
<use x="124.658203" xlink:href="#x"/>
</g>
</g>
<g clip-path="url(#a)">
<g transform="translate(883.7 1020.4) scale(.1 -.1)">
<use xlink:href="#i"/>
<use x="27.783203" xlink:href="#g"/>
<use x="89.0625" xlink:href="#q"/>
<use x="128.271484" xlink:href="#d"/>
<use x="189.794922" xlink:href="#h"/>
</g>
</g>
<g clip-path="url(#a)">
<defs>
<path id="as" d="m39.406 66.219q-10.75 0-17.078-8.0156-6.3125-8-6.3125-21.828 0-13.766 6.3125-21.781 6.3281-8 17.078-8 10.734 0 17.016 8 6.2812 8.0156 6.2812 21.781 0 13.828-6.2812 21.828-6.2812 8.0156-17.016 8.0156zm13.812-64.906 13-14.203h-11.922l-10.797 11.672q-1.6094-0.09375-2.4688-0.14062-0.84375-0.0625-1.625-0.0625-15.375 0-24.594 10.281-9.2031 10.281-9.2031 27.516 0 17.281 9.2031 27.562 9.2188 10.281 24.594 10.281 15.328 0 24.5-10.281 9.1875-10.281 9.1875-27.562 0-12.688-5.1094-21.734-5.0938-9.0312-14.766-13.328z"/>
</defs>
<g transform="translate(914.13 1020.4) scale(.1 -.1)">
<use xlink:href="#as"/>
<use x="78.710938" xlink:href="#ak"/>
<use x="142.089844" xlink:href="#g"/>
<use x="203.369141" xlink:href="#h"/>
<use x="244.466797" xlink:href="#h"/>
<use x="285.580078" xlink:href="#ap"/>
<use x="344.759766" xlink:href="#k"/>
<use x="442.171875" xlink:href="#d"/>
<use x="503.695312" xlink:href="#f"/>
</g>
</g>
<g clip-path="url(#a)">
<g transform="translate(977.13 1020.4) scale(.1 -.1)">
<use xlink:href="#al"/>
<use x="63.476562" xlink:href="#g"/>
<use x="124.755859" xlink:href="#f"/>
<use x="188.134766" xlink:href="#x"/>
</g>
</g>
<g clip-path="url(#a)">
<g transform="translate(1024 1020.4) scale(.1 -.1)">
<use xlink:href="#k"/>
<use x="97.412109" xlink:href="#g"/>
<use x="158.691406" xlink:href="#q"/>
<use x="197.900391" xlink:href="#d"/>
</g>
</g>
<g clip-path="url(#a)">
<g transform="translate(1082.6 1020.4) scale(.1 -.1)">
<use xlink:href="#ao"/>
</g>
</g>
<g clip-path="url(#a)">
<g transform="translate(1120.3 1020.4) scale(.1 -.1)">
<use xlink:href="#v"/>
<use x="60.255859" xlink:href="#d"/>
<use x="121.779297" xlink:href="#q"/>
<use x="160.988281" xlink:href="#d"/>
</g>
</g>
<g clip-path="url(#a)">
<g transform="translate(1159.1 1020.4) scale(.1 -.1)">
<use xlink:href="#ae"/>
<use x="63.476562" xlink:href="#u"/>
<use x="126.855469" xlink:href="#r"/>
<use x="188.037109" xlink:href="#q"/>
<use x="227.246094" xlink:href="#q"/>
<use x="266.455078" xlink:href="#r"/>
<use x="327.636719" xlink:href="#f"/>
</g>
</g>
<g clip-path="url(#a)">
<g transform="translate(1224.3 1020.4) scale(.1 -.1)">
<use xlink:href="#ao"/>
</g>
</g>
<g clip-path="url(#a)">
<g transform="translate(1268.1 1020.4) scale(.1 -.1)">
<use xlink:href="#q"/>
<use x="39.208984" xlink:href="#r"/>
</g>
</g>
<g clip-path="url(#a)">
<g transform="translate(1305.2 1020.4) scale(.1 -.1)">
<use xlink:href="#ab"/>
<use x="81.787109" xlink:href="#u"/>
<use x="145.166016" xlink:href="#r"/>
<use x="206.347656" xlink:href="#k"/>
</g>
</g>
<g clip-path="url(#a)">
<g transform="translate(1361.3 1020.4) scale(.1 -.1)">
<use xlink:href="#u"/>
<use x="63.378906" xlink:href="#d"/>
</g>
</g>
<g clip-path="url(#a)">
<g transform="translate(1399.9 1020.4) scale(.1 -.1)">
<use xlink:href="#ab"/>
<use x="81.787109" xlink:href="#r"/>
<use x="142.96875" xlink:href="#ak"/>
<use x="206.347656" xlink:href="#i"/>
<use x="234.130859" xlink:href="#x"/>
</g>
</g>
<g clip-path="url(#a)">
<g transform="translate(1449.1 1020.4) scale(.1 -.1)">
<use xlink:href="#t"/>
<use x="52.099609" xlink:href="#u"/>
<use x="115.478516" xlink:href="#r"/>
<use x="176.660156" xlink:href="#ab"/>
</g>
</g>
<g clip-path="url(#a)">
<g transform="translate(1502.1 1020.4) scale(.1 -.1)">
<use xlink:href="#u"/>
<use x="63.378906" xlink:href="#j"/>
<use x="91.162109" xlink:href="#t"/>
</g>
</g>
<g clip-path="url(#a)">
<defs>
<path id="av" d="m9.0781 75.984h9.0312v-44.875l26.812 23.578h11.469l-29-25.578 30.234-29.109h-11.719l-27.797 26.703v-26.703h-9.0312z"/>
</defs>
<g transform="translate(1544.4 1020.4) scale(.1 -.1)">
<use xlink:href="#ab"/>
<use x="81.787109" xlink:href="#r"/>
<use x="142.96875" xlink:href="#h"/>
<use x="184.082031" xlink:href="#av"/>
</g>
</g>
<g clip-path="url(#a)">
<g transform="translate(1587.6 1020.4) scale(.1 -.1)">
<use xlink:href="#al"/>
<use x="63.476562" xlink:href="#d"/>
<use x="125" xlink:href="#ar"/>
<use x="160.205078" xlink:href="#r"/>
<use x="221.386719" xlink:href="#h"/>
<use x="262.46875" xlink:href="#d"/>
</g>
</g>
<g clip-path="url(#a)">
<g transform="translate(1644.7 1020.4) scale(.1 -.1)">
<use xlink:href="#u"/>
<use x="63.378906" xlink:href="#d"/>
</g>
</g>
<g clip-path="url(#a)">
<g transform="translate(1691.8 1020.4) scale(.1 -.1)">
<use xlink:href="#i"/>
<use x="27.783203" xlink:href="#d"/>
<use x="89.306641" xlink:href="#q"/>
</g>
</g>
<g clip-path="url(#a)">
<g transform="translate(1727 1020.4) scale(.1 -.1)">
<use xlink:href="#g"/>
<use x="61.279297" xlink:href="#f"/>
<use x="124.658203" xlink:href="#ap"/>
<use x="183.837891" xlink:href="#r"/>
<use x="245.019531" xlink:href="#f"/>
<use x="308.398438" xlink:href="#d"/>
</g>
</g>
<g clip-path="url(#a)">
<g transform="translate(1782.6 1020.4) scale(.1 -.1)">
<use xlink:href="#d"/>
<use x="61.523438" xlink:href="#i"/>
<use x="89.306641" xlink:href="#t"/>
<use x="141.40625" xlink:href="#d"/>
</g>
</g>
<g clip-path="url(#a)">
<g transform="translate(1831.2 1020.4) scale(.1 -.1)">
<use xlink:href="#t"/>
<use x="52.099609" xlink:href="#d"/>
<use x="113.623047" xlink:href="#d"/>
</g>
</g>
<g clip-path="url(#a)">
<g transform="translate(1883.8 1020.4) scale(.1 -.1)">
<use xlink:href="#j"/>
<use x="27.783203" xlink:href="#q"/>
</g>
</g>
<g clip-path="url(#a)">
<defs>
<path id="e" d="m10.688 12.406h10.312v-12.406h-10.312z"/>
</defs>
<g transform="translate(1932.8 1020.4) scale(.1 -.1)">
<use xlink:href="#e"/>
</g>
</g>
<g clip-path="url(#a)">
<defs>
<path id="c" d="m12.406 8.2969h16.109v55.625l-17.531-3.5156v8.9844l17.438 3.5156h9.8594v-64.609h16.109v-8.2969h-41.984z"/>
</defs>
<g transform="translate(274.17 51.832) scale(.1 -.1)">
<use xlink:href="#c"/>
<use x="63.623047" xlink:href="#e"/>
<use x="95.410156" xlink:href="#c"/>
</g>
</g>
<g clip-path="url(#a)">
<defs>
<path id="o" d="m19.188 8.2969h34.422v-8.2969h-46.281v8.2969q5.6094 5.8125 15.297 15.594 9.7031 9.7969 12.188 12.641 4.7344 5.3125 6.6094 9 1.8906 3.6875 1.8906 7.25 0 5.8125-4.0781 9.4688-4.0781 3.6719-10.625 3.6719-4.6406 0-9.7969-1.6094-5.1406-1.6094-11-4.8906v9.9688q5.9531 2.3906 11.125 3.6094 5.1875 1.2188 9.4844 1.2188 11.328 0 18.062-5.6719 6.7344-5.6562 6.7344-15.125 0-4.5-1.6875-8.5312-1.6719-4.0156-6.125-9.4844-1.2188-1.4219-7.7656-8.1875-6.5312-6.7656-18.453-18.922z"/>
</defs>
<g transform="translate(274.17 170.72) scale(.1 -.1)">
<use xlink:href="#c"/>
<use x="63.623047" xlink:href="#e"/>
<use x="95.410156" xlink:href="#o"/>
</g>
</g>
<g clip-path="url(#a)">
<defs>
<path id="n" d="m37.797 64.312-24.906-38.922h24.906zm-2.5938 8.5938h12.406v-47.516h10.406v-8.2031h-10.406v-17.188h-9.8125v17.188h-32.906v9.5156z"/>
</defs>
<g transform="translate(84.315 919.79) scale(.1 -.1)">
<use xlink:href="#c"/>
<use x="63.623047" xlink:href="#e"/>
<use x="95.410156" xlink:href="#n"/>
</g>
</g>
<g clip-path="url(#a)">
<defs>
<path id="s" d="m10.797 72.906h38.719v-8.3125h-29.688v-17.859q2.1406 0.73438 4.2812 1.0938 2.1562 0.35938 4.3125 0.35938 12.203 0 19.328-6.6875 7.1406-6.6875 7.1406-18.109 0-11.766-7.3281-18.297-7.3281-6.5156-20.656-6.5156-4.5938 0-9.3594 0.78125-4.75 0.78125-9.8281 2.3438v9.9219q4.3906-2.3906 9.0781-3.5625t9.9062-1.1719q8.4531 0 13.375 4.4375 4.9375 4.4375 4.9375 12.062 0 7.6094-4.9375 12.047-4.9219 4.4531-13.375 4.4531-3.9531 0-7.8906-0.875-3.9219-0.875-8.0156-2.7344z"/>
</defs>
<g transform="translate(186.66 819.23) scale(.1 -.1)">
<use xlink:href="#c"/>
<use x="63.623047" xlink:href="#e"/>
<use x="95.410156" xlink:href="#s"/>
</g>
</g>
<g clip-path="url(#a)">
<defs>
<path id="z" d="m33.016 40.375q-6.6406 0-10.531-4.5469-3.875-4.5312-3.875-12.438 0-7.8594 3.875-12.438 3.8906-4.5625 10.531-4.5625t10.516 4.5625q3.875 4.5781 3.875 12.438 0 7.9062-3.875 12.438-3.875 4.5469-10.516 4.5469zm19.578 30.922v-8.9844q-3.7188 1.75-7.5 2.6719-3.7812 0.9375-7.5 0.9375-9.7656 0-14.922-6.5938-5.1406-6.5938-5.875-19.922 2.875 4.25 7.2188 6.5156 4.3594 2.2656 9.5781 2.2656 10.984 0 17.359-6.6719 6.375-6.6562 6.375-18.125 0-11.234-6.6406-18.031-6.6406-6.7812-17.672-6.7812-12.656 0-19.344 9.6875-6.6875 9.7031-6.6875 28.109 0 17.281 8.2031 27.562t22.016 10.281q3.7188 0 7.5-0.73438t7.8906-2.1875z"/>
</defs>
<g transform="translate(505.22 286.03) scale(.1 -.1)">
<use xlink:href="#c"/>
<use x="63.623047" xlink:href="#e"/>
<use x="95.410156" xlink:href="#z"/>
</g>
</g>
<g clip-path="url(#a)">
<defs>
<path id="ai" d="m31.781 34.625q-7.0312 0-11.062-3.7656-4.0156-3.7656-4.0156-10.344 0-6.5938 4.0156-10.359 4.0312-3.7656 11.062-3.7656t11.078 3.7812q4.0625 3.7969 4.0625 10.344 0 6.5781-4.0312 10.344-4.0156 3.7656-11.109 3.7656zm-9.8594 4.1875q-6.3438 1.5625-9.8906 5.9062-3.5312 4.3594-3.5312 10.609 0 8.7344 6.2188 13.812 6.2344 5.0781 17.062 5.0781 10.891 0 17.094-5.0781t6.2031-13.812q0-6.25-3.5469-10.609-3.5312-4.3438-9.8281-5.9062 7.125-1.6562 11.094-6.5 3.9844-4.8281 3.9844-11.797 0-10.609-6.4688-16.281-6.4688-5.6562-18.531-5.6562-12.047 0-18.531 5.6562-6.4688 5.6719-6.4688 16.281 0 6.9688 4 11.797 4.0156 4.8438 11.141 6.5zm-3.6094 15.578q0-5.6562 3.5312-8.8281 3.5469-3.1719 9.9375-3.1719 6.3594 0 9.9375 3.1719 3.5938 3.1719 3.5938 8.8281 0 5.6719-3.5938 8.8438-3.5781 3.1719-9.9375 3.1719-6.3906 0-9.9375-3.1719-3.5312-3.1719-3.5312-8.8438z"/>
</defs>
<g transform="translate(367.72 919.79) scale(.1 -.1)">
<use xlink:href="#c"/>
<use x="63.623047" xlink:href="#e"/>
<use x="95.410156" xlink:href="#ai"/>
</g>
</g>
<g clip-path="url(#a)">
<defs>
<path id="ah" d="m10.984 1.5156v8.9844q3.7188-1.7656 7.5156-2.6875 3.8125-0.92188 7.4844-0.92188 9.7656 0 14.906 6.5625 5.1562 6.5625 5.8906 19.953-2.8281-4.2031-7.1875-6.4531-4.3438-2.25-9.6094-2.25-10.938 0-17.312 6.6094-6.375 6.625-6.375 18.109 0 11.219 6.6406 18 6.6406 6.7969 17.672 6.7969 12.656 0 19.312-9.7031 6.6719-9.6875 6.6719-28.141 0-17.234-8.1875-27.516-8.1719-10.281-21.984-10.281-3.7188 0-7.5312 0.73438-3.7969 0.73438-7.9062 2.2031zm19.625 30.906q6.6406 0 10.516 4.5312 3.8906 4.5469 3.8906 12.469 0 7.8594-3.8906 12.422-3.875 4.5625-10.516 4.5625t-10.516-4.5625-3.875-12.422q0-7.9219 3.875-12.469 3.875-4.5312 10.516-4.5312z"/>
</defs>
<g transform="translate(414.95 919.79) scale(.1 -.1)">
<use xlink:href="#c"/>
<use x="63.623047" xlink:href="#e"/>
<use x="95.410156" xlink:href="#ah"/>
</g>
</g>
<g clip-path="url(#a)">
<defs>
<path id="aa" d="m31.781 66.406q-7.6094 0-11.453-7.5-3.8281-7.4844-3.8281-22.531 0-14.984 3.8281-22.484 3.8438-7.5 11.453-7.5 7.6719 0 11.5 7.5 3.8438 7.5 3.8438 22.484 0 15.047-3.8438 22.531-3.8281 7.5-11.5 7.5zm0 7.8125q12.266 0 18.734-9.7031 6.4688-9.6875 6.4688-28.141 0-18.406-6.4688-28.109-6.4688-9.6875-18.734-9.6875-12.25 0-18.719 9.6875-6.4688 9.7031-6.4688 28.109 0 18.453 6.4688 28.141 6.4688 9.7031 18.719 9.7031z"/>
</defs>
<g transform="translate(494.43 819.23) scale(.1 -.1)">
<use xlink:href="#c"/>
<use x="63.623047" xlink:href="#e"/>
<use x="95.410156" xlink:href="#c"/>
<use x="159.033203" xlink:href="#aa"/>
</g>
</g>
<g clip-path="url(#a)">
<g transform="translate(737.43 398.04) scale(.1 -.1)">
<use xlink:href="#c"/>
<use x="63.623047" xlink:href="#e"/>
<use x="95.410156" xlink:href="#c"/>
<use x="159.033203" xlink:href="#c"/>
</g>
</g>
<g clip-path="url(#a)">
<g transform="translate(600.71 919.79) scale(.1 -.1)">
<use xlink:href="#c"/>
<use x="63.623047" xlink:href="#e"/>
<use x="95.410156" xlink:href="#c"/>
<use x="159.033203" xlink:href="#o"/>
</g>
</g>
<g clip-path="url(#a)">
<defs>
<path id="p" d="m40.578 39.312q7.0781-1.5156 11.047-6.3125 3.9844-4.7812 3.9844-11.812 0-10.781-7.4219-16.703-7.4219-5.9062-21.094-5.9062-4.5781 0-9.4375 0.90625t-10.031 2.7188v9.5156q4.0938-2.3906 8.9688-3.6094 4.8906-1.2188 10.219-1.2188 9.2656 0 14.125 3.6562t4.8594 10.641q0 6.4531-4.5156 10.078-4.5156 3.6406-12.562 3.6406h-8.5v8.1094h8.8906q7.2656 0 11.125 2.9062t3.8594 8.375q0 5.6094-3.9844 8.6094-3.9688 3.0156-11.391 3.0156-4.0625 0-8.7031-0.89062-4.6406-0.875-10.203-2.7188v8.7812q5.625 1.5625 10.531 2.3438t9.25 0.78125q11.234 0 17.766-5.1094 6.5469-5.0938 6.5469-13.781 0-6.0625-3.4688-10.234t-9.8594-5.7812z"/>
</defs>
<g transform="translate(647.94 919.79) scale(.1 -.1)">
<use xlink:href="#c"/>
<use x="63.623047" xlink:href="#e"/>
<use x="95.410156" xlink:href="#c"/>
<use x="159.033203" xlink:href="#p"/>
</g>
</g>
<g clip-path="url(#a)">
<g transform="translate(1171.2 507.04) scale(.1 -.1)">
<use xlink:href="#c"/>
<use x="63.623047" xlink:href="#e"/>
<use x="95.410156" xlink:href="#c"/>
<use x="159.033203" xlink:href="#n"/>
</g>
</g>
<g clip-path="url(#a)">
<g transform="translate(844.75 717.26) scale(.1 -.1)">
<use xlink:href="#c"/>
<use x="63.623047" xlink:href="#e"/>
<use x="95.410156" xlink:href="#c"/>
<use x="159.033203" xlink:href="#s"/>
</g>
</g>
<g clip-path="url(#a)">
<g transform="translate(1143.9 919.79) scale(.1 -.1)">
<use xlink:href="#c"/>
<use x="63.623047" xlink:href="#e"/>
<use x="95.410156" xlink:href="#c"/>
<use x="159.033203" xlink:href="#z"/>
</g>
</g>
<g clip-path="url(#a)">
<defs>
<path id="aj" d="m8.2031 72.906h46.875v-4.2031l-26.469-68.703h-10.297l24.906 64.594h-35.016z"/>
</defs>
<g transform="translate(1579.5 613.34) scale(.1 -.1)">
<use xlink:href="#c"/>
<use x="63.623047" xlink:href="#e"/>
<use x="95.410156" xlink:href="#c"/>
<use x="159.033203" xlink:href="#aj"/>
</g>
</g>
<g clip-path="url(#a)">
<g transform="translate(1360.4 717.26) scale(.1 -.1)">
<use xlink:href="#c"/>
<use x="63.623047" xlink:href="#e"/>
<use x="95.410156" xlink:href="#o"/>
<use x="159.033203" xlink:href="#aa"/>
</g>
</g>
<g clip-path="url(#a)">
<g transform="translate(1592.6 919.79) scale(.1 -.1)">
<use xlink:href="#c"/>
<use x="63.623047" xlink:href="#e"/>
<use x="95.410156" xlink:href="#o"/>
<use x="159.033203" xlink:href="#c"/>
</g>
</g>
<g clip-path="url(#a)">
<g transform="translate(1785.5 717.26) scale(.1 -.1)">
<use xlink:href="#c"/>
<use x="63.623047" xlink:href="#e"/>
<use x="95.410156" xlink:href="#o"/>
<use x="159.033203" xlink:href="#o"/>
</g>
</g>
<g clip-path="url(#a)">
<g transform="translate(1639.9 919.79) scale(.1 -.1)">
<use xlink:href="#c"/>
<use x="63.623047" xlink:href="#e"/>
<use x="95.410156" xlink:href="#o"/>
<use x="159.033203" xlink:href="#p"/>
</g>
</g>
<g clip-path="url(#a)">
<g transform="translate(1687.1 919.79) scale(.1 -.1)">
<use xlink:href="#c"/>
<use x="63.623047" xlink:href="#e"/>
<use x="95.410156" xlink:href="#o"/>
<use x="159.033203" xlink:href="#n"/>
</g>
</g>
<g clip-path="url(#a)">
<g transform="translate(1757.9 819.23) scale(.1 -.1)">
<use xlink:href="#c"/>
<use x="63.623047" xlink:href="#e"/>
<use x="95.410156" xlink:href="#o"/>
<use x="159.033203" xlink:href="#s"/>
</g>
</g>
<g clip-path="url(#a)">
<g transform="translate(1828.8 919.79) scale(.1 -.1)">
<use xlink:href="#c"/>
<use x="63.623047" xlink:href="#e"/>
<use x="95.410156" xlink:href="#o"/>
<use x="159.033203" xlink:href="#z"/>
</g>
</g>
<g clip-path="url(#a)">
<g transform="translate(1876 919.79) scale(.1 -.1)">
<use xlink:href="#c"/>
<use x="63.623047" xlink:href="#e"/>
<use x="95.410156" xlink:href="#o"/>
<use x="159.033203" xlink:href="#aj"/>
</g>
</g>
<g clip-path="url(#a)">
<g transform="translate(1734.3 919.79) scale(.1 -.1)">
<use xlink:href="#c"/>
<use x="63.623047" xlink:href="#e"/>
<use x="95.410156" xlink:href="#o"/>
<use x="159.033203" xlink:href="#ai"/>
</g>
</g>
<g clip-path="url(#a)">
<g transform="translate(1781.6 919.79) scale(.1 -.1)">
<use xlink:href="#c"/>
<use x="63.623047" xlink:href="#e"/>
<use x="95.410156" xlink:href="#o"/>
<use x="159.033203" xlink:href="#ah"/>
</g>
</g>
<g clip-path="url(#a)">
<g transform="translate(1285.6 919.79) scale(.1 -.1)">
<use xlink:href="#c"/>
<use x="63.623047" xlink:href="#e"/>
<use x="95.410156" xlink:href="#p"/>
<use x="159.033203" xlink:href="#aa"/>
</g>
</g>
<g clip-path="url(#a)">
<g transform="translate(1356.5 919.79) scale(.1 -.1)">
<use xlink:href="#c"/>
<use x="63.623047" xlink:href="#e"/>
<use x="95.410156" xlink:href="#p"/>
<use x="159.033203" xlink:href="#c"/>
</g>
</g>
<g clip-path="url(#a)">
<g transform="translate(1403.7 919.79) scale(.1 -.1)">
<use xlink:href="#c"/>
<use x="63.623047" xlink:href="#e"/>
<use x="95.410156" xlink:href="#p"/>
<use x="159.033203" xlink:href="#o"/>
</g>
</g>
<g clip-path="url(#a)">
<g transform="translate(1450.9 919.79) scale(.1 -.1)">
<use xlink:href="#c"/>
<use x="63.623047" xlink:href="#e"/>
<use x="95.410156" xlink:href="#p"/>
<use x="159.033203" xlink:href="#p"/>
</g>
</g>
<g clip-path="url(#a)">
<g transform="translate(1521.8 819.23) scale(.1 -.1)">
<use xlink:href="#c"/>
<use x="63.623047" xlink:href="#e"/>
<use x="95.410156" xlink:href="#p"/>
<use x="159.033203" xlink:href="#n"/>
</g>
</g>
<g clip-path="url(#a)">
<g transform="translate(1498.2 919.79) scale(.1 -.1)">
<use xlink:href="#c"/>
<use x="63.623047" xlink:href="#e"/>
<use x="95.410156" xlink:href="#p"/>
<use x="159.033203" xlink:href="#s"/>
</g>
</g>
<g clip-path="url(#a)">
<g transform="translate(1545.4 919.79) scale(.1 -.1)">
<use xlink:href="#c"/>
<use x="63.623047" xlink:href="#e"/>
<use x="95.410156" xlink:href="#p"/>
<use x="159.033203" xlink:href="#z"/>
</g>
</g>
<g clip-path="url(#a)">
<g transform="translate(742.41 819.23) scale(.1 -.1)">
<use xlink:href="#c"/>
<use x="63.623047" xlink:href="#e"/>
<use x="95.410156" xlink:href="#p"/>
<use x="159.033203" xlink:href="#aj"/>
</g>
</g>
<g clip-path="url(#a)">
<g transform="translate(836.88 919.79) scale(.1 -.1)">
<use xlink:href="#c"/>
<use x="63.623047" xlink:href="#e"/>
<use x="95.410156" xlink:href="#p"/>
<use x="159.033203" xlink:href="#ai"/>
</g>
</g>
<g clip-path="url(#a)">
<g transform="translate(954.97 819.23) scale(.1 -.1)">
<use xlink:href="#c"/>
<use x="63.623047" xlink:href="#e"/>
<use x="95.410156" xlink:href="#p"/>
<use x="159.033203" xlink:href="#ah"/>
</g>
</g>
<g clip-path="url(#a)">
<g transform="translate(884.12 919.79) scale(.1 -.1)">
<use xlink:href="#c"/>
<use x="63.623047" xlink:href="#e"/>
<use x="95.410156" xlink:href="#n"/>
<use x="159.033203" xlink:href="#aa"/>
</g>
</g>
<g clip-path="url(#a)">
<g transform="translate(931.35 919.79) scale(.1 -.1)">
<use xlink:href="#c"/>
<use x="63.623047" xlink:href="#e"/>
<use x="95.410156" xlink:href="#n"/>
<use x="159.033203" xlink:href="#c"/>
</g>
</g>
<g clip-path="url(#a)">
<g transform="translate(978.58 919.79) scale(.1 -.1)">
<use xlink:href="#c"/>
<use x="63.623047" xlink:href="#e"/>
<use x="95.410156" xlink:href="#n"/>
<use x="159.033203" xlink:href="#o"/>
</g>
</g>
<g clip-path="url(#a)">
<g transform="translate(1025.8 919.79) scale(.1 -.1)">
<use xlink:href="#c"/>
<use x="63.623047" xlink:href="#e"/>
<use x="95.410156" xlink:href="#n"/>
<use x="159.033203" xlink:href="#p"/>
</g>
</g>
<g clip-path="url(#a)">
<g transform="translate(695.18 919.79) scale(.1 -.1)">
<use xlink:href="#c"/>
<use x="63.623047" xlink:href="#e"/>
<use x="95.410156" xlink:href="#n"/>
<use x="159.033203" xlink:href="#n"/>
</g>
</g>
<g clip-path="url(#a)">
<g transform="translate(742.41 919.79) scale(.1 -.1)">
<use xlink:href="#c"/>
<use x="63.623047" xlink:href="#e"/>
<use x="95.410156" xlink:href="#n"/>
<use x="159.033203" xlink:href="#s"/>
</g>
</g>
<g clip-path="url(#a)">
<g transform="translate(789.65 919.79) scale(.1 -.1)">
<use xlink:href="#c"/>
<use x="63.623047" xlink:href="#e"/>
<use x="95.410156" xlink:href="#n"/>
<use x="159.033203" xlink:href="#z"/>
</g>
</g>
<g clip-path="url(#a)">
<g transform="translate(459.01 919.79) scale(.1 -.1)">
<use xlink:href="#c"/>
<use x="63.623047" xlink:href="#e"/>
<use x="95.410156" xlink:href="#n"/>
<use x="159.033203" xlink:href="#aj"/>
</g>
</g>
<g clip-path="url(#a)">
<g transform="translate(529.86 919.79) scale(.1 -.1)">
<use xlink:href="#c"/>
<use x="63.623047" xlink:href="#e"/>
<use x="95.410156" xlink:href="#n"/>
<use x="159.033203" xlink:href="#ai"/>
</g>
</g>
<g clip-path="url(#a)">
<g transform="translate(128.37 919.79) scale(.1 -.1)">
<use xlink:href="#c"/>
<use x="63.623047" xlink:href="#e"/>
<use x="95.410156" xlink:href="#n"/>
<use x="159.033203" xlink:href="#ah"/>
</g>
</g>
<g clip-path="url(#a)">
<g transform="translate(175.6 919.79) scale(.1 -.1)">
<use xlink:href="#c"/>
<use x="63.623047" xlink:href="#e"/>
<use x="95.410156" xlink:href="#s"/>
<use x="159.033203" xlink:href="#aa"/>
</g>
</g>
<g clip-path="url(#a)">
<g transform="translate(246.45 919.79) scale(.1 -.1)">
<use xlink:href="#c"/>
<use x="63.623047" xlink:href="#e"/>
<use x="95.410156" xlink:href="#s"/>
<use x="159.033203" xlink:href="#c"/>
</g>
</g>
<g clip-path="url(#a)">
<g transform="translate(317.3 919.79) scale(.1 -.1)">
<use xlink:href="#c"/>
<use x="63.623047" xlink:href="#e"/>
<use x="95.410156" xlink:href="#s"/>
<use x="159.033203" xlink:href="#o"/>
</g>
</g>
<g clip-path="url(#a)">
<g transform="translate(1073.1 919.79) scale(.1 -.1)">
<use xlink:href="#c"/>
<use x="63.623047" xlink:href="#e"/>
<use x="95.410156" xlink:href="#s"/>
<use x="159.033203" xlink:href="#p"/>
</g>
</g>
<g clip-path="url(#a)">
<g transform="translate(1214.8 919.79) scale(.1 -.1)">
<use xlink:href="#c"/>
<use x="63.623047" xlink:href="#e"/>
<use x="95.410156" xlink:href="#s"/>
<use x="159.033203" xlink:href="#n"/>
</g>
</g>
<g clip-path="url(#a)">
<g transform="translate(1923.3 919.79) scale(.1 -.1)">
<use xlink:href="#c"/>
<use x="63.623047" xlink:href="#e"/>
<use x="95.410156" xlink:href="#s"/>
<use x="159.033203" xlink:href="#s"/>
</g>
</g>
<defs>
<clipPath id="a">
<rect width="2026.7" height="1066.7"/>
</clipPath>
</defs>
</svg>
