<?xml version="1.0" encoding="UTF-8"?>
<!DOCTYPE svg  PUBLIC '-//W3C//DTD SVG 1.1//EN'  'http://www.w3.org/Graphics/SVG/1.1/DTD/svg11.dtd'>
<svg width="1621.3pt" height="853.33pt" version="1.1" viewBox="0 0 1621.3 853.33" xmlns="http://www.w3.org/2000/svg" xmlns:xlink="http://www.w3.org/1999/xlink">
<defs>
<style type="text/css">*{stroke-linecap:butt;stroke-linejoin:round;}</style>
</defs>
<path d="m0 853.33h1621.3v-853.33h-1621.3z" fill="#fff"/>
<g fill="none" stroke="#000">
<path d="m611.76 39.702-537.88 648.86" clip-path="url(#a)"/>
<path d="m611.76 39.702-403.2 396.99" clip-path="url(#a)"/>
<path d="m611.76 39.702-243.16 396.99" clip-path="url(#a)"/>
<path d="m611.76 39.702-14.996 648.86" clip-path="url(#a)"/>
<path d="m611.76 39.702 3.2256 135.56" clip-path="url(#a)"/>
<path d="m611.76 39.702 688.12 396.99" clip-path="url(#a)"/>
<path d="m611.76 39.702 507.88 648.86" clip-path="url(#a)"/>
<path d="m73.88 688.57v125.07" clip-path="url(#a)"/>
<path d="m208.56 436.7 55.457 251.87" clip-path="url(#a)" stroke-dasharray="3.7,1.6"/>
<path d="m208.56 436.7-63.38 126.8" clip-path="url(#a)"/>
<path d="m208.56 436.7 7.9224 251.87" clip-path="url(#a)"/>
<path d="m368.59 436.7-104.58 251.87" clip-path="url(#a)"/>
<path d="m368.59 436.7-57.042 251.87" clip-path="url(#a)"/>
<path d="m368.59 436.7-9.5069 251.87" clip-path="url(#a)"/>
<path d="m368.59 436.7 38.028 251.87" clip-path="url(#a)"/>
<path d="m368.59 436.7 133.1 126.8" clip-path="url(#a)"/>
<path d="m596.76 688.57v125.07" clip-path="url(#a)"/>
<path d="m614.98 175.26 29.313 513.31" clip-path="url(#a)"/>
<path d="m614.98 175.26 76.848 513.31" clip-path="url(#a)"/>
<path d="m614.98 175.26 244.8 132.19" clip-path="url(#a)"/>
<path d="m614.98 175.26-350.96 513.31" clip-path="url(#a)" stroke-dasharray="3.7,1.6"/>
<path d="m1299.9 436.7-132.7 251.87" clip-path="url(#a)"/>
<path d="m1299.9 436.7-5.9418 126.8" clip-path="url(#a)"/>
<path d="m1299.9 436.7-37.632 251.87" clip-path="url(#a)"/>
<path d="m1299.9 436.7 176.27 126.8" clip-path="url(#a)"/>
<path d="m1167.2 688.57v125.07" clip-path="url(#a)"/>
<path d="m1293.9 563.5-79.224 125.07" clip-path="url(#a)"/>
<path d="m1293.9 563.5 15.845 125.07" clip-path="url(#a)"/>
<path d="m1293.9 563.5 63.38 125.07" clip-path="url(#a)"/>
<path d="m1262.2 688.57v125.07" clip-path="url(#a)"/>
<path d="m1476.2 563.5-71.302 125.07" clip-path="url(#a)"/>
<path d="m1476.2 563.5-23.767 125.07" clip-path="url(#a)"/>
<path d="m1476.2 563.5 23.767 125.07" clip-path="url(#a)"/>
<path d="m1476.2 563.5 71.302 125.07" clip-path="url(#a)"/>
<path d="m1404.8 688.57v125.07" clip-path="url(#a)"/>
<path d="m1452.4 688.57v125.07" clip-path="url(#a)"/>
<path d="m1499.9 688.57v125.07" clip-path="url(#a)"/>
<path d="m1214.7 688.57v125.07" clip-path="url(#a)"/>
<path d="m1309.8 688.57v125.07" clip-path="url(#a)"/>
<path d="m1357.3 688.57v125.07" clip-path="url(#a)"/>
<path d="m644.3 688.57v125.07" clip-path="url(#a)"/>
<path d="m691.83 688.57v125.07" clip-path="url(#a)"/>
<path d="m859.79 307.45-120.42 381.12" clip-path="url(#a)"/>
<path d="m859.79 307.45-72.886 381.12" clip-path="url(#a)"/>
<path d="m859.79 307.45-1.5845 256.05" clip-path="url(#a)"/>
<path d="m859.79 307.45 69.717 381.12" clip-path="url(#a)"/>
<path d="m859.79 307.45 125.17 129.25" clip-path="url(#a)"/>
<path d="m739.36 688.57v125.07" clip-path="url(#a)"/>
<path d="m786.9 688.57v125.07" clip-path="url(#a)"/>
<path d="m858.2 563.5-23.767 125.07" clip-path="url(#a)"/>
<path d="m858.2 563.5 23.767 125.07" clip-path="url(#a)"/>
<path d="m929.5 688.57v125.07" clip-path="url(#a)"/>
<path d="m984.96 436.7-55.457 251.87" clip-path="url(#a)" stroke-dasharray="3.7,1.6"/>
<path d="m984.96 436.7-7.9224 251.87" clip-path="url(#a)"/>
<path d="m984.96 436.7 63.38 126.8" clip-path="url(#a)"/>
<path d="m977.04 688.57v125.07" clip-path="url(#a)"/>
<path d="m1048.3 563.5-23.767 125.07" clip-path="url(#a)"/>
<path d="m1048.3 563.5 23.767 125.07" clip-path="url(#a)"/>
<path d="m1024.6 688.57v125.07" clip-path="url(#a)"/>
<path d="m1072.1 688.57v125.07" clip-path="url(#a)"/>
<path d="m834.43 688.57v125.07" clip-path="url(#a)"/>
<path d="m881.97 688.57v125.07" clip-path="url(#a)"/>
<path d="m264.02 688.57v125.07" clip-path="url(#a)"/>
<path d="m311.55 688.57v125.07" clip-path="url(#a)"/>
<path d="m359.09 688.57v125.07" clip-path="url(#a)"/>
<path d="m406.62 688.57v125.07" clip-path="url(#a)"/>
<path d="m501.69 563.5-47.535 125.07" clip-path="url(#a)"/>
<path d="m501.69 563.5v125.07" clip-path="url(#a)"/>
<path d="m501.69 563.5 47.535 125.07" clip-path="url(#a)"/>
<path d="m454.16 688.57v125.07" clip-path="url(#a)"/>
<path d="m501.69 688.57v125.07" clip-path="url(#a)"/>
<path d="m549.23 688.57v125.07" clip-path="url(#a)"/>
<path d="m145.18 563.5-23.767 125.07" clip-path="url(#a)"/>
<path d="m145.18 563.5 23.767 125.07" clip-path="url(#a)"/>
<path d="m121.41 688.57v125.07" clip-path="url(#a)"/>
<path d="m168.95 688.57v125.07" clip-path="url(#a)"/>
<path d="m526.78 39.702-158.18 396.99" clip-path="url(#a)"/>
<path d="m526.78 39.702 69.982 648.86" clip-path="url(#a)"/>
<path d="m526.78 39.702 88.203 135.56" clip-path="url(#a)"/>
<path d="m217.01 307.45-143.13 381.12" clip-path="url(#a)"/>
<path d="m217.01 307.45-8.4506 129.25" clip-path="url(#a)"/>
<path d="m217.01 307.45 151.58 129.25" clip-path="url(#a)"/>
<path d="m216.48 688.57v125.07" clip-path="url(#a)"/>
<path d="m1119.6 688.57v125.07" clip-path="url(#a)"/>
<path d="m1547.5 688.57v125.07" clip-path="url(#a)"/>
</g>
<path d="m346.22 369.85 2.8447-3.4317q1.5317-1.8477-0.31605-3.3794l-5.9608-4.9412q-1.8477-1.5317-3.3794 0.31605l-2.8447 3.4317q-1.5317 1.8477 0.31605 3.3794l5.9608 4.9412q1.8477 1.5317 3.3794-0.31605z" clip-path="url(#a)" fill="#fff" stroke="#fff"/>
<g clip-path="url(#a)">
<defs>
<path id="s" d="m9.8125 72.906h9.8594v-64.609h35.5v-8.2969h-45.359z"/>
</defs>
<g transform="translate(343.1 367.26) rotate(-50.343) scale(.08 -.08)">
<use xlink:href="#s"/>
</g>
</g>
<path d="m412.42 244.78 4.287-4.221q1.7102-1.6839 0.026302-3.394l-5.4322-5.517q-1.6839-1.7102-3.394-0.026302l-4.287 4.221q-1.7102 1.6839-0.026301 3.394l5.4322 5.517q1.6839 1.7102 3.394 0.026301z" clip-path="url(#a)" fill="#fff" stroke="#fff"/>
<g clip-path="url(#a)">
<defs>
<path id="ac" d="m9.8125 72.906h9.8594v-29.891h35.844v29.891h9.8594v-72.906h-9.8594v34.719h-35.844v-34.719h-9.8594z"/>
</defs>
<g transform="translate(409.56 241.88) rotate(-44.556) scale(.08 -.08)">
<use xlink:href="#ac"/>
</g>
</g>
<path d="m493.95 244.04 3.1424-5.1304q1.2536-2.0466-0.79304-3.3002l-6.6024-4.044q-2.0466-1.2536-3.3002 0.79304l-3.1424 5.1304q-1.2536 2.0466 0.79304 3.3002l6.6024 4.044q2.0466 1.2536 3.3002-0.79304z" clip-path="url(#a)" fill="#fff" stroke="#fff"/>
<g clip-path="url(#a)">
<g transform="translate(490.49 241.92) rotate(-58.512) scale(.08 -.08)">
<use xlink:href="#ac"/>
</g>
</g>
<path d="m610.48 366.51 0.10299-4.4563q0.055452-2.3994-2.3439-2.4548l-7.7404-0.17889q-2.3994-0.055452-2.4548 2.3439l-0.10299 4.4563q-0.055452 2.3994 2.3439 2.4548l7.7404 0.17889q2.3994 0.055453 2.4548-2.3439z" clip-path="url(#a)" fill="#fff" stroke="#fff"/>
<g clip-path="url(#a)">
<g transform="translate(606.41 366.41) rotate(-88.676) scale(.08 -.08)">
<use xlink:href="#s"/>
</g>
</g>
<path d="m607.03 104.62 0.14312 6.0145q0.057092 2.3993 2.4564 2.3422l7.7403-0.18418q2.3993-0.057092 2.3422-2.4564l-0.14312-6.0145q-0.057092-2.3993-2.4564-2.3422l-7.7403 0.18418q-2.3993 0.057092-2.3422 2.4564z" clip-path="url(#a)" fill="#fff" stroke="#fff"/>
<g clip-path="url(#a)">
<g transform="translate(611.09 104.53) rotate(88.637) scale(.08 -.08)">
<use xlink:href="#ac"/>
</g>
</g>
<path d="m950.08 242.13 5.2112 3.0065q2.0788 1.1993 3.2782-0.8795l3.8691-6.7064q1.1993-2.0788-0.8795-3.2782l-5.2112-3.0065q-2.0788-1.1993-3.2782 0.8795l-3.8691 6.7064q-1.1993 2.0788 0.8795 3.2782z" clip-path="url(#a)" fill="#fff" stroke="#fff"/>
<g clip-path="url(#a)">
<g transform="translate(952.11 238.61) rotate(29.982) scale(.08 -.08)">
<use xlink:href="#ac"/>
</g>
</g>
<path d="m858.96 365.69 3.6088 4.6106q1.4793 1.8899 3.3692 0.41062l6.0969-4.7722q1.8899-1.4793 0.41062-3.3692l-3.6088-4.6106q-1.4793-1.8899-3.3692-0.41062l-6.0969 4.7722q-1.8899 1.4793-0.41062 3.3692z" clip-path="url(#a)" fill="#fff" stroke="#fff"/>
<g clip-path="url(#a)">
<defs>
<path id="ah" d="m8.6875 72.906h9.9219v-44.297q0-11.719 4.2344-16.875 4.25-5.1406 13.781-5.1406 9.4688 0 13.719 5.1406 4.25 5.1562 4.25 16.875v44.297h9.9062v-45.516q0-14.25-7.0625-21.531-7.0469-7.2812-20.812-7.2812-13.828 0-20.891 7.2812-7.0469 7.2812-7.0469 21.531z"/>
</defs>
<g transform="translate(862.16 363.19) rotate(51.949) scale(.08 -.08)">
<use xlink:href="#ah"/>
</g>
</g>
<path d="m67.609 733.46v35.285q0 2.4 2.4 2.4h7.7425q2.4 0 2.4-2.4v-35.285q0-2.4-2.4-2.4h-7.7425q-2.4 0-2.4 2.4z" clip-path="url(#a)" fill="#fff" stroke="#fff"/>
<g clip-path="url(#a)">
<defs>
<path id="l" d="m-0.29688 72.906h61.672v-8.3125h-25.875v-64.594h-9.9062v64.594h-25.891z"/>
<path id="d" d="m56.203 29.594v-4.3906h-41.312q0.59375-9.2812 5.5938-14.141t13.938-4.8594q5.1719 0 10.031 1.2656t9.6562 3.8125v-8.5q-4.8438-2.0469-9.9219-3.125t-10.297-1.0781q-13.094 0-20.734 7.6094-7.6406 7.625-7.6406 20.625 0 13.422 7.25 21.297 7.25 7.8906 19.562 7.8906 11.031 0 17.453-7.1094 6.4219-7.0938 6.4219-19.297zm-8.9844 2.6406q-0.09375 7.3594-4.125 11.75-4.0312 4.4062-10.672 4.4062-7.5156 0-12.031-4.25t-5.2031-11.969z"/>
<path id="h" d="m41.109 46.297q-1.5156 0.875-3.2969 1.2812-1.7812 0.42188-3.9219 0.42188-7.625 0-11.703-4.9531t-4.0781-14.234v-28.812h-9.0312v54.688h9.0312v-8.5q2.8438 4.9844 7.375 7.3906 4.5469 2.4219 11.047 2.4219 0.92188 0 2.0469-0.125 1.125-0.10938 2.4844-0.35938z"/>
<path id="k" d="m52 44.188q3.375 6.0625 8.0625 8.9375t11.031 2.875q8.5469 0 13.188-5.9844 4.6406-5.9688 4.6406-17v-33.016h-9.0312v32.719q0 7.8594-2.7969 11.656-2.7812 3.8125-8.4844 3.8125-6.9844 0-11.047-4.6406-4.0469-4.625-4.0469-12.641v-30.906h-9.0312v32.719q0 7.9062-2.7812 11.688t-8.5938 3.7812q-6.8906 0-10.953-4.6562-4.0469-4.6562-4.0469-12.625v-30.906h-9.0312v54.688h9.0312v-8.5q3.0781 5.0312 7.375 7.4219t10.203 2.3906q5.9688 0 10.141-3.0312 4.1719-3.0156 6.1719-8.7812z"/>
<path id="f" d="m9.4219 54.688h8.9844v-54.688h-8.9844zm0 21.297h8.9844v-11.391h-8.9844z"/>
<path id="i" d="m54.891 33.016v-33.016h-8.9844v32.719q0 7.7656-3.0312 11.609-3.0312 3.8594-9.0781 3.8594-7.2812 0-11.484-4.6406-4.2031-4.625-4.2031-12.641v-30.906h-9.0312v54.688h9.0312v-8.5q3.2344 4.9375 7.5938 7.375 4.375 2.4375 10.094 2.4375 9.4219 0 14.25-5.8281 4.8438-5.8281 4.8438-17.156z"/>
<path id="g" d="m34.281 27.484q-10.891 0-15.094-2.4844t-4.2031-8.5q0-4.7812 3.1562-7.5938 3.1562-2.7969 8.5625-2.7969 7.4844 0 12 5.2969t4.5156 14.078v2zm17.922 3.7188v-31.203h-8.9844v8.2969q-3.0781-4.9688-7.6719-7.3438t-11.234-2.375q-8.3906 0-13.359 4.7188-4.9531 4.7188-4.9531 12.625 0 9.2188 6.1719 13.906 6.1875 4.6875 18.438 4.6875h12.609v0.89062q0 6.2031-4.0781 9.5938t-11.453 3.3906q-4.6875 0-9.1406-1.125-4.4375-1.125-8.5312-3.375v8.3125q4.9219 1.9062 9.5625 2.8438 4.6406 0.95312 9.0312 0.95312 11.875 0 17.734-6.1562 5.8594-6.1406 5.8594-18.641z"/>
<path id="j" d="m9.4219 75.984h8.9844v-75.984h-8.9844z"/>
</defs>
<g transform="translate(71.672 733.46) rotate(90) scale(.08 -.08)">
<use xlink:href="#l"/>
<use x="60.818359" xlink:href="#d"/>
<use x="122.341797" xlink:href="#h"/>
<use x="163.439453" xlink:href="#k"/>
<use x="260.851562" xlink:href="#f"/>
<use x="288.634766" xlink:href="#i"/>
<use x="352.013672" xlink:href="#g"/>
<use x="413.292969" xlink:href="#j"/>
</g>
</g>
<path d="m229.58 561.31 1.1768 5.3445q0.51607 2.3439 2.8599 1.8278l7.5614-1.6649q2.3439-0.51607 1.8278-2.8599l-1.1768-5.3445q-0.51607-2.3439-2.8599-1.8278l-7.5614 1.6649q-2.3439 0.51607-1.8278 2.8599z" clip-path="url(#a)" fill="#fff" stroke="#fff"/>
<g clip-path="url(#a)">
<defs>
<path id="m" d="m34.188 63.188-13.391-36.281h26.812zm-5.5781 9.7188h11.188l27.781-72.906h-10.25l-6.6406 18.703h-32.859l-6.6406-18.703h-10.406z"/>
</defs>
<g transform="translate(233.55 560.43) rotate(77.583) scale(.08 -.08)">
<use xlink:href="#m"/>
</g>
</g>
<path d="m181.35 505.17 2.2706-4.5429q1.073-2.1468-1.0738-3.2198l-6.9256-3.4615q-2.1468-1.073-3.2198 1.0738l-2.2706 4.5429q-1.073 2.1468 1.0738 3.2198l6.9256 3.4615q2.1468 1.073 3.2198-1.0738z" clip-path="url(#a)" fill="#fff" stroke="#fff"/>
<g clip-path="url(#a)">
<defs>
<path id="as" d="m53.516 70.516v-9.625q-5.6094 2.6875-10.594 4-4.9844 1.3281-9.625 1.3281-8.0469 0-12.422-3.125t-4.375-8.8906q0-4.8438 2.9062-7.3125 2.9062-2.4531 11.016-3.9688l5.9531-1.2188q11.031-2.1094 16.281-7.4062t5.25-14.172q0-10.609-7.1094-16.078-7.0938-5.4688-20.812-5.4688-5.1719 0-11.016 1.1719-5.8281 1.1719-12.078 3.4688v10.156q6-3.3594 11.766-5.0781 5.7656-1.7031 11.328-1.7031 8.4375 0 13.031 3.3125 4.5938 3.3281 4.5938 9.4844 0 5.3594-3.2969 8.3906t-10.812 4.5469l-6.0156 1.1719q-11.031 2.1875-15.969 6.875-4.9219 4.6875-4.9219 13.047 0 9.6719 6.8125 15.234t18.766 5.5625q5.1406 0 10.453-0.9375 5.3281-0.92188 10.891-2.7656z"/>
</defs>
<g transform="translate(177.71 503.36) rotate(-63.443) scale(.08 -.08)">
<use xlink:href="#as"/>
</g>
</g>
<path d="m206.16 559.9 0.18408 5.8521q0.075454 2.3988 2.4743 2.3234l7.7387-0.24342q2.3988-0.075454 2.3234-2.4743l-0.18408-5.8521q-0.075453-2.3988-2.4743-2.3234l-7.7387 0.24342q-2.3988 0.075453-2.3234 2.4743z" clip-path="url(#a)" fill="#fff" stroke="#fff"/>
<g clip-path="url(#a)">
<g transform="translate(210.22 559.77) rotate(88.198) scale(.08 -.08)">
<use xlink:href="#ah"/>
</g>
</g>
<path d="m321.05 567.56 2.0985-5.0542q0.9203-2.2165-1.2962-3.1368l-7.1506-2.9689q-2.2165-0.9203-3.1368 1.2962l-2.0985 5.0542q-0.9203 2.2165 1.2962 3.1368l7.1506 2.9689q2.2165 0.9203 3.1368-1.2962z" clip-path="url(#a)" fill="#fff" stroke="#fff"/>
<g clip-path="url(#a)">
<g transform="translate(317.3 566.01) rotate(-67.452) scale(.08 -.08)">
<use xlink:href="#m"/>
</g>
</g>
<path d="m345.51 567.02 1.3606-6.0079q0.53011-2.3407-1.8106-2.8708l-7.5513-1.7102q-2.3407-0.53011-2.8708 1.8106l-1.3606 6.0079q-0.53011 2.3407 1.8106 2.8708l7.5513 1.7102q2.3407 0.53011 2.8708-1.8106z" clip-path="url(#a)" fill="#fff" stroke="#fff"/>
<g clip-path="url(#a)">
<defs>
<path id="ak" d="m19.672 64.797v-56.688h11.922q15.094 0 22.094 6.8281 7 6.8438 7 21.594 0 14.641-7 21.453t-22.094 6.8125zm-9.8594 8.1094h20.266q21.188 0 31.094-8.8125 9.9219-8.8125 9.9219-27.562 0-18.859-9.9688-27.703-9.9531-8.8281-31.047-8.8281h-20.266z"/>
</defs>
<g transform="translate(341.55 566.12) rotate(-77.239) scale(.08 -.08)">
<use xlink:href="#ak"/>
</g>
</g>
<path d="m370.02 565.28 0.18194-4.8203q0.090524-2.3983-2.3078-2.4888l-7.737-0.29204q-2.3983-0.090525-2.4888 2.3078l-0.18194 4.8203q-0.090524 2.3983 2.3078 2.4888l7.737 0.29204q2.3983 0.090524 2.4888-2.3078z" clip-path="url(#a)" fill="#fff" stroke="#fff"/>
<g clip-path="url(#a)">
<defs>
<path id="y" d="m19.672 64.797v-27.391h12.406q6.8906 0 10.641 3.5625 3.7656 3.5625 3.7656 10.156 0 6.5469-3.7656 10.109-3.75 3.5625-10.641 3.5625zm-9.8594 8.1094h22.266q12.266 0 18.531-5.5469 6.2812-5.5469 6.2812-16.234 0-10.797-6.2812-16.312-6.2656-5.5156-18.531-5.5156h-12.406v-29.297h-9.8594z"/>
</defs>
<g transform="translate(365.96 565.12) rotate(-87.838) scale(.08 -.08)">
<use xlink:href="#y"/>
</g>
</g>
<path d="m381 560.86 0.81699 5.4112q0.3583 2.3731 2.7314 2.0148l7.6557-1.1559q2.3731-0.3583 2.0148-2.7314l-0.81699-5.4112q-0.3583-2.3731-2.7314-2.0148l-7.6557 1.1559q-2.3731 0.3583-2.0148 2.7314z" clip-path="url(#a)" fill="#fff" stroke="#fff"/>
<g clip-path="url(#a)">
<g transform="translate(385.02 560.26) rotate(81.414) scale(.08 -.08)">
<use xlink:href="#m"/>
</g>
</g>
<path d="m428.84 502.75 3.9622 3.7749q1.7376 1.6555 3.3931-0.082146l5.3407-5.6057q1.6555-1.7376-0.082145-3.3931l-3.9622-3.7749q-1.7376-1.6555-3.3931 0.082145l-5.3407 5.6057q-1.6555 1.7376 0.082146 3.3931z" clip-path="url(#a)" fill="#fff" stroke="#fff"/>
<g clip-path="url(#a)">
<g transform="translate(431.64 499.81) rotate(43.613) scale(.08 -.08)">
<use xlink:href="#m"/>
</g>
</g>
<path d="m590.49 733.46v35.285q0 2.4 2.4 2.4h7.7425q2.4 0 2.4-2.4v-35.285q0-2.4-2.4-2.4h-7.7425q-2.4 0-2.4 2.4z" clip-path="url(#a)" fill="#fff" stroke="#fff"/>
<g clip-path="url(#a)">
<g transform="translate(594.55 733.46) rotate(90) scale(.08 -.08)">
<use xlink:href="#l"/>
<use x="60.818359" xlink:href="#d"/>
<use x="122.341797" xlink:href="#h"/>
<use x="163.439453" xlink:href="#k"/>
<use x="260.851562" xlink:href="#f"/>
<use x="288.634766" xlink:href="#i"/>
<use x="352.013672" xlink:href="#g"/>
<use x="413.292969" xlink:href="#j"/>
</g>
</g>
<path d="m623.2 429.19 0.3512 6.15q0.13683 2.3961 2.5329 2.2593l7.7299-0.44142q2.3961-0.13683 2.2593-2.5329l-0.3512-6.15q-0.13683-2.3961-2.5329-2.2593l-7.7299 0.44142q-2.3961 0.13683-2.2593 2.5329z" clip-path="url(#a)" fill="#fff" stroke="#fff"/>
<g clip-path="url(#a)">
<g transform="translate(627.26 428.96) rotate(86.732) scale(.08 -.08)">
<use xlink:href="#ak"/>
</g>
</g>
<path d="m646.85 430.46 0.71421 4.7706q0.35534 2.3735 2.7289 2.0182l7.6572-1.1464q2.3735-0.35534 2.0182-2.7289l-0.71421-4.7706q-0.35535-2.3735-2.7289-2.0182l-7.6572 1.1464q-2.3735 0.35534-2.0182 2.7289z" clip-path="url(#a)" fill="#fff" stroke="#fff"/>
<g clip-path="url(#a)">
<g transform="translate(650.87 429.85) rotate(81.485) scale(.08 -.08)">
<use xlink:href="#y"/>
</g>
</g>
<path d="m732 245.57 4.8153 2.6002q2.1118 1.1403 3.2521-0.97144l3.6788-6.8127q1.1403-2.1118-0.97144-3.2521l-4.8153-2.6002q-2.1118-1.1403-3.2521 0.97144l-3.6788 6.8127q-1.1403 2.1118 0.97144 3.2521z" clip-path="url(#a)" fill="#fff" stroke="#fff"/>
<g clip-path="url(#a)">
<g transform="translate(733.93 242) rotate(28.369) scale(.08 -.08)">
<use xlink:href="#m"/>
</g>
</g>
<path d="m443.13 437.71 3.0888-4.5175q1.3546-1.9812-0.62659-3.3358l-6.3914-4.37q-1.9812-1.3546-3.3358 0.62659l-3.0888 4.5175q-1.3546 1.9812 0.62659 3.3358l6.3914 4.37q1.9812 1.3546 3.3358-0.62659z" clip-path="url(#a)" fill="#fff" stroke="#fff"/>
<g clip-path="url(#a)">
<g transform="translate(439.78 435.42) rotate(-55.638) scale(.08 -.08)">
<use xlink:href="#m"/>
</g>
</g>
<path d="m1237.8 567.98 2.5509-4.8416q1.1187-2.1233-1.0046-3.242l-6.8499-3.609q-2.1233-1.1187-3.242 1.0046l-2.5509 4.8416q-1.1187 2.1233 1.0046 3.242l6.8499 3.609q2.1233 1.1187 3.242-1.0046z" clip-path="url(#a)" fill="#fff" stroke="#fff"/>
<g clip-path="url(#a)">
<g transform="translate(1234.2 566.08) rotate(-62.217) scale(.08 -.08)">
<use xlink:href="#m"/>
</g>
</g>
<path d="m1303.1 502.8 0.22578-4.8185q0.11234-2.3974-2.285-2.5097l-7.734-0.3624q-2.3974-0.11234-2.5097 2.285l-0.22578 4.8185q-0.11234 2.3974 2.285 2.5097l7.734 0.3624q2.3974 0.11234 2.5097-2.285z" clip-path="url(#a)" fill="#fff" stroke="#fff"/>
<g clip-path="url(#a)">
<g transform="translate(1299 502.61) rotate(-87.317) scale(.08 -.08)">
<use xlink:href="#y"/>
</g>
</g>
<path d="m1286.8 566.6 0.91025-6.0924q0.35464-2.3737-2.019-2.7283l-7.6575-1.1441q-2.3737-0.35464-2.7283 2.019l-0.91025 6.0924q-0.35464 2.3737 2.019 2.7283l7.6575 1.1441q2.3737 0.35464 2.7283-2.019z" clip-path="url(#a)" fill="#fff" stroke="#fff"/>
<g clip-path="url(#a)">
<g transform="translate(1282.8 566) rotate(-81.502) scale(.08 -.08)">
<use xlink:href="#ak"/>
</g>
</g>
<path d="m1382.1 503.59 4.4425 3.1957q1.9483 1.4015 3.3498-0.54676l4.5213-6.2852q1.4015-1.9483-0.54676-3.3498l-4.4425-3.1957q-1.9483-1.4015-3.3498 0.54676l-4.5213 6.2852q-1.4015 1.9483 0.54676 3.3498z" clip-path="url(#a)" fill="#fff" stroke="#fff"/>
<g clip-path="url(#a)">
<g transform="translate(1384.5 500.29) rotate(35.73) scale(.08 -.08)">
<use xlink:href="#m"/>
</g>
</g>
<path d="m1160.9 733.46v35.285q0 2.4 2.4 2.4h7.7425q2.4 0 2.4-2.4v-35.285q0-2.4-2.4-2.4h-7.7425q-2.4 0-2.4 2.4z" clip-path="url(#a)" fill="#fff" stroke="#fff"/>
<g clip-path="url(#a)">
<g transform="translate(1165 733.46) rotate(90) scale(.08 -.08)">
<use xlink:href="#l"/>
<use x="60.818359" xlink:href="#d"/>
<use x="122.341797" xlink:href="#h"/>
<use x="163.439453" xlink:href="#k"/>
<use x="260.851562" xlink:href="#f"/>
<use x="288.634766" xlink:href="#i"/>
<use x="352.013672" xlink:href="#g"/>
<use x="413.292969" xlink:href="#j"/>
</g>
</g>
<path d="m1258.4 631.33 2.4623-3.887q1.2843-2.0274-0.74313-3.3118l-6.5406-4.1433q-2.0274-1.2843-3.3118 0.74313l-2.4623 3.887q-1.2843 2.0274 0.74313 3.3118l6.5406 4.1433q2.0274 1.2843 3.3118-0.74313z" clip-path="url(#a)" fill="#fff" stroke="#fff"/>
<g clip-path="url(#a)">
<defs>
<path id="ai" d="m9.8125 72.906h41.891v-8.3125h-32.031v-21.484h28.906v-8.2969h-28.906v-34.812h-9.8594z"/>
</defs>
<g transform="translate(1255 629.16) rotate(-57.647) scale(.08 -.08)">
<use xlink:href="#ai"/>
</g>
</g>
<path d="m1295.3 624.54 0.57832 4.5648q0.30165 2.381 2.6826 2.0793l7.6811-0.97314q2.381-0.30165 2.0793-2.6826l-0.57832-4.5648q-0.30165-2.381-2.6826-2.0793l-7.6811 0.97314q-2.381 0.30165-2.0793 2.6826z" clip-path="url(#a)" fill="#fff" stroke="#fff"/>
<g clip-path="url(#a)">
<g transform="translate(1299.4 624.03) rotate(82.779) scale(.08 -.08)">
<use xlink:href="#ai"/>
</g>
</g>
<path d="m1318.8 626.38 2.5252 4.9829q1.0849 2.1408 3.2257 1.0559l6.9063-3.4999q2.1408-1.0849 1.0559-3.2257l-2.5252-4.9829q-1.0849-2.1408-3.2257-1.0559l-6.9063 3.4999q-2.1408 1.0849-1.0559 3.2257z" clip-path="url(#a)" fill="#fff" stroke="#fff"/>
<g clip-path="url(#a)">
<defs>
<path id="w" d="m64.406 67.281v-10.391q-4.9844 4.6406-10.625 6.9219-5.6406 2.2969-11.984 2.2969-12.5 0-19.141-7.6406t-6.6406-22.094q0-14.406 6.6406-22.047t19.141-7.6406q6.3438 0 11.984 2.2969t10.625 6.9375v-10.312q-5.1719-3.5156-10.969-5.2812-5.7812-1.75-12.219-1.75-16.562 0-26.094 10.125-9.5156 10.141-9.5156 27.672 0 17.578 9.5156 27.703 9.5312 10.141 26.094 10.141 6.5312 0 12.312-1.7344 5.7969-1.7344 10.875-5.2031z"/>
</defs>
<g transform="translate(1322.4 624.54) rotate(63.125) scale(.08 -.08)">
<use xlink:href="#w"/>
</g>
</g>
<path d="m1256 733.46v35.285q0 2.4 2.4 2.4h7.7425q2.4 0 2.4-2.4v-35.285q0-2.4-2.4-2.4h-7.7425q-2.4 0-2.4 2.4z" clip-path="url(#a)" fill="#fff" stroke="#fff"/>
<g clip-path="url(#a)">
<g transform="translate(1260 733.46) rotate(90) scale(.08 -.08)">
<use xlink:href="#l"/>
<use x="60.818359" xlink:href="#d"/>
<use x="122.341797" xlink:href="#h"/>
<use x="163.439453" xlink:href="#k"/>
<use x="260.851562" xlink:href="#f"/>
<use x="288.634766" xlink:href="#i"/>
<use x="352.013672" xlink:href="#g"/>
<use x="413.292969" xlink:href="#j"/>
</g>
</g>
<path d="m1444.6 631.55 2.7531-4.8291q1.1887-2.085-0.89629-3.2736l-6.7262-3.8347q-2.085-1.1887-3.2736 0.89628l-2.7531 4.8291q-1.1887 2.085 0.89628 3.2736l6.7262 3.8347q2.085 1.1887 3.2736-0.89628z" clip-path="url(#a)" fill="#fff" stroke="#fff"/>
<g clip-path="url(#a)">
<defs>
<path id="v" d="m44.391 34.188q3.1719-1.0781 6.1719-4.5938t6.0312-9.6719l10.016-19.922h-10.609l-9.3125 18.703q-3.625 7.3281-7.0156 9.7188t-9.25 2.3906h-10.75v-30.812h-9.8594v72.906h22.266q12.5 0 18.656-5.2344 6.1562-5.2188 6.1562-15.766 0-6.8906-3.2031-11.438-3.2031-4.5312-9.2969-6.2812zm-24.719 30.609v-25.875h12.406q7.125 0 10.766 3.2969t3.6406 9.6875-3.6406 9.6406-10.766 3.25z"/>
</defs>
<g transform="translate(1441 629.54) rotate(-60.312) scale(.08 -.08)">
<use xlink:href="#v"/>
</g>
</g>
<path d="m1470 629.69 0.94376-4.9661q0.44808-2.3578-1.9097-2.8059l-7.6064-1.4455q-2.3578-0.44808-2.8059 1.9097l-0.94376 4.9661q-0.44808 2.3578 1.9097 2.8059l7.6064 1.4455q2.3578 0.44808 2.8059-1.9097z" clip-path="url(#a)" fill="#fff" stroke="#fff"/>
<g clip-path="url(#a)">
<defs>
<path id="aj" d="m9.8125 72.906h46.094v-8.3125h-36.234v-21.578h34.719v-8.2969h-34.719v-26.422h37.109v-8.2969h-46.969z"/>
</defs>
<g transform="translate(1466 628.93) rotate(-79.24) scale(.08 -.08)">
<use xlink:href="#aj"/>
</g>
</g>
<path d="m1481.4 624.46 1.0429 5.488q0.44808 2.3578 2.8059 1.9097l7.6064-1.4455q2.3578-0.44808 1.9097-2.8059l-1.0429-5.488q-0.44808-2.3578-2.8059-1.9097l-7.6064 1.4455q-2.3578 0.44808-1.9097 2.8059z" clip-path="url(#a)" fill="#fff" stroke="#fff"/>
<g clip-path="url(#a)">
<g transform="translate(1485.3 623.7) rotate(79.24) scale(.08 -.08)">
<use xlink:href="#w"/>
</g>
</g>
<path d="m1504.9 626.6 2.8999 5.0864q1.1887 2.085 3.2736 0.89628l6.7262-3.8347q2.085-1.1887 0.89628-3.2736l-2.8999-5.0864q-1.1887-2.085-3.2736-0.89628l-6.7262 3.8347q-2.085 1.1887-0.89628 3.2736z" clip-path="url(#a)" fill="#fff" stroke="#fff"/>
<g clip-path="url(#a)">
<g transform="translate(1508.4 624.58) rotate(60.312) scale(.08 -.08)">
<use xlink:href="#ah"/>
</g>
</g>
<path d="m1398.6 733.46v35.285q0 2.4 2.4 2.4h7.7425q2.4 0 2.4-2.4v-35.285q0-2.4-2.4-2.4h-7.7425q-2.4 0-2.4 2.4z" clip-path="url(#a)" fill="#fff" stroke="#fff"/>
<g clip-path="url(#a)">
<g transform="translate(1402.6 733.46) rotate(90) scale(.08 -.08)">
<use xlink:href="#l"/>
<use x="60.818359" xlink:href="#d"/>
<use x="122.341797" xlink:href="#h"/>
<use x="163.439453" xlink:href="#k"/>
<use x="260.851562" xlink:href="#f"/>
<use x="288.634766" xlink:href="#i"/>
<use x="352.013672" xlink:href="#g"/>
<use x="413.292969" xlink:href="#j"/>
</g>
</g>
<path d="m1446.1 733.46v35.285q0 2.4 2.4 2.4h7.7425q2.4 0 2.4-2.4v-35.285q0-2.4-2.4-2.4h-7.7425q-2.4 0-2.4 2.4z" clip-path="url(#a)" fill="#fff" stroke="#fff"/>
<g clip-path="url(#a)">
<g transform="translate(1450.2 733.46) rotate(90) scale(.08 -.08)">
<use xlink:href="#l"/>
<use x="60.818359" xlink:href="#d"/>
<use x="122.341797" xlink:href="#h"/>
<use x="163.439453" xlink:href="#k"/>
<use x="260.851562" xlink:href="#f"/>
<use x="288.634766" xlink:href="#i"/>
<use x="352.013672" xlink:href="#g"/>
<use x="413.292969" xlink:href="#j"/>
</g>
</g>
<path d="m1493.6 733.46v35.285q0 2.4 2.4 2.4h7.7425q2.4 0 2.4-2.4v-35.285q0-2.4-2.4-2.4h-7.7425q-2.4 0-2.4 2.4z" clip-path="url(#a)" fill="#fff" stroke="#fff"/>
<g clip-path="url(#a)">
<g transform="translate(1497.7 733.46) rotate(90) scale(.08 -.08)">
<use xlink:href="#l"/>
<use x="60.818359" xlink:href="#d"/>
<use x="122.341797" xlink:href="#h"/>
<use x="163.439453" xlink:href="#k"/>
<use x="260.851562" xlink:href="#f"/>
<use x="288.634766" xlink:href="#i"/>
<use x="352.013672" xlink:href="#g"/>
<use x="413.292969" xlink:href="#j"/>
</g>
</g>
<path d="m1208.4 733.46v35.285q0 2.4 2.4 2.4h7.7425q2.4 0 2.4-2.4v-35.285q0-2.4-2.4-2.4h-7.7425q-2.4 0-2.4 2.4z" clip-path="url(#a)" fill="#fff" stroke="#fff"/>
<g clip-path="url(#a)">
<g transform="translate(1212.5 733.46) rotate(90) scale(.08 -.08)">
<use xlink:href="#l"/>
<use x="60.818359" xlink:href="#d"/>
<use x="122.341797" xlink:href="#h"/>
<use x="163.439453" xlink:href="#k"/>
<use x="260.851562" xlink:href="#f"/>
<use x="288.634766" xlink:href="#i"/>
<use x="352.013672" xlink:href="#g"/>
<use x="413.292969" xlink:href="#j"/>
</g>
</g>
<path d="m1303.5 733.46v35.285q0 2.4 2.4 2.4h7.7425q2.4 0 2.4-2.4v-35.285q0-2.4-2.4-2.4h-7.7425q-2.4 0-2.4 2.4z" clip-path="url(#a)" fill="#fff" stroke="#fff"/>
<g clip-path="url(#a)">
<g transform="translate(1307.6 733.46) rotate(90) scale(.08 -.08)">
<use xlink:href="#l"/>
<use x="60.818359" xlink:href="#d"/>
<use x="122.341797" xlink:href="#h"/>
<use x="163.439453" xlink:href="#k"/>
<use x="260.851562" xlink:href="#f"/>
<use x="288.634766" xlink:href="#i"/>
<use x="352.013672" xlink:href="#g"/>
<use x="413.292969" xlink:href="#j"/>
</g>
</g>
<path d="m1351 733.46v35.285q0 2.4 2.4 2.4h7.7425q2.4 0 2.4-2.4v-35.285q0-2.4-2.4-2.4h-7.7425q-2.4 0-2.4 2.4z" clip-path="url(#a)" fill="#fff" stroke="#fff"/>
<g clip-path="url(#a)">
<g transform="translate(1355.1 733.46) rotate(90) scale(.08 -.08)">
<use xlink:href="#l"/>
<use x="60.818359" xlink:href="#d"/>
<use x="122.341797" xlink:href="#h"/>
<use x="163.439453" xlink:href="#k"/>
<use x="260.851562" xlink:href="#f"/>
<use x="288.634766" xlink:href="#i"/>
<use x="352.013672" xlink:href="#g"/>
<use x="413.292969" xlink:href="#j"/>
</g>
</g>
<path d="m638.02 733.46v35.285q0 2.4 2.4 2.4h7.7425q2.4 0 2.4-2.4v-35.285q0-2.4-2.4-2.4h-7.7425q-2.4 0-2.4 2.4z" clip-path="url(#a)" fill="#fff" stroke="#fff"/>
<g clip-path="url(#a)">
<g transform="translate(642.09 733.46) rotate(90) scale(.08 -.08)">
<use xlink:href="#l"/>
<use x="60.818359" xlink:href="#d"/>
<use x="122.341797" xlink:href="#h"/>
<use x="163.439453" xlink:href="#k"/>
<use x="260.851562" xlink:href="#f"/>
<use x="288.634766" xlink:href="#i"/>
<use x="352.013672" xlink:href="#g"/>
<use x="413.292969" xlink:href="#j"/>
</g>
</g>
<path d="m685.56 733.46v35.285q0 2.4 2.4 2.4h7.7425q2.4 0 2.4-2.4v-35.285q0-2.4-2.4-2.4h-7.7425q-2.4 0-2.4 2.4z" clip-path="url(#a)" fill="#fff" stroke="#fff"/>
<g clip-path="url(#a)">
<g transform="translate(689.62 733.46) rotate(90) scale(.08 -.08)">
<use xlink:href="#l"/>
<use x="60.818359" xlink:href="#d"/>
<use x="122.341797" xlink:href="#h"/>
<use x="163.439453" xlink:href="#k"/>
<use x="260.851562" xlink:href="#f"/>
<use x="288.634766" xlink:href="#i"/>
<use x="352.013672" xlink:href="#g"/>
<use x="413.292969" xlink:href="#j"/>
</g>
</g>
<path d="m804.72 502.55 1.6748-5.3005q0.72309-2.2885-1.5654-3.0116l-7.3827-2.3327q-2.2885-0.72309-3.0116 1.5654l-1.6748 5.3005q-0.72309 2.2885 1.5654 3.0116l7.3827 2.3327q2.2885 0.72309 3.0116-1.5654z" clip-path="url(#a)" fill="#fff" stroke="#fff"/>
<g clip-path="url(#a)">
<g transform="translate(800.84 501.32) rotate(-72.465) scale(.08 -.08)">
<use xlink:href="#v"/>
</g>
</g>
<path d="m828.99 501.87 1.028-5.3751q0.45082-2.3573-1.9065-2.8081l-7.6047-1.4544q-2.3573-0.45082-2.8081 1.9065l-1.028 5.3751q-0.45082 2.3573 1.9065 2.8081l7.6047 1.4544q2.3573 0.45082 2.8081-1.9065z" clip-path="url(#a)" fill="#fff" stroke="#fff"/>
<g clip-path="url(#a)">
<g transform="translate(825 501.11) rotate(-79.173) scale(.08 -.08)">
<use xlink:href="#m"/>
</g>
</g>
<path d="m865.25 437.93 0.029849-4.8237q0.014851-2.4-2.3851-2.4148l-7.7424-0.047911q-2.4-0.014851-2.4148 2.3851l-0.029849 4.8237q-0.014852 2.4 2.3851 2.4148l7.7424 0.047911q2.4 0.014851 2.4148-2.3851z" clip-path="url(#a)" fill="#fff" stroke="#fff"/>
<g clip-path="url(#a)">
<g transform="translate(861.19 437.9) rotate(-89.645) scale(.08 -.08)">
<use xlink:href="#y"/>
</g>
</g>
<path d="m887.98 496.44 0.98474 5.3832q0.43186 2.3608 2.7927 1.929l7.6161-1.3932q2.3608-0.43186 1.929-2.7927l-0.98474-5.3832q-0.43186-2.3608-2.7927-1.929l-7.6161 1.3932q-2.3608 0.43186-1.929 2.7927z" clip-path="url(#a)" fill="#fff" stroke="#fff"/>
<g clip-path="url(#a)">
<g transform="translate(891.98 495.71) rotate(79.634) scale(.08 -.08)">
<use xlink:href="#m"/>
</g>
</g>
<path d="m915.96 374.47 3.8072 3.9311q1.6697 1.724 3.3937 0.054317l5.5617-5.3865q1.724-1.6697 0.054317-3.3937l-3.8072-3.9311q-1.6697-1.724-3.3937-0.054317l-5.5617 5.3865q-1.724 1.6697-0.054317 3.3937z" clip-path="url(#a)" fill="#fff" stroke="#fff"/>
<g clip-path="url(#a)">
<g transform="translate(918.88 371.64) rotate(45.917) scale(.08 -.08)">
<use xlink:href="#m"/>
</g>
</g>
<path d="m733.09 733.46v35.285q0 2.4 2.4 2.4h7.7425q2.4 0 2.4-2.4v-35.285q0-2.4-2.4-2.4h-7.7425q-2.4 0-2.4 2.4z" clip-path="url(#a)" fill="#fff" stroke="#fff"/>
<g clip-path="url(#a)">
<g transform="translate(737.16 733.46) rotate(90) scale(.08 -.08)">
<use xlink:href="#l"/>
<use x="60.818359" xlink:href="#d"/>
<use x="122.341797" xlink:href="#h"/>
<use x="163.439453" xlink:href="#k"/>
<use x="260.851562" xlink:href="#f"/>
<use x="288.634766" xlink:href="#i"/>
<use x="352.013672" xlink:href="#g"/>
<use x="413.292969" xlink:href="#j"/>
</g>
</g>
<path d="m780.63 733.46v35.285q0 2.4 2.4 2.4h7.7425q2.4 0 2.4-2.4v-35.285q0-2.4-2.4-2.4h-7.7425q-2.4 0-2.4 2.4z" clip-path="url(#a)" fill="#fff" stroke="#fff"/>
<g clip-path="url(#a)">
<g transform="translate(784.69 733.46) rotate(90) scale(.08 -.08)">
<use xlink:href="#l"/>
<use x="60.818359" xlink:href="#d"/>
<use x="122.341797" xlink:href="#h"/>
<use x="163.439453" xlink:href="#k"/>
<use x="260.851562" xlink:href="#f"/>
<use x="288.634766" xlink:href="#i"/>
<use x="352.013672" xlink:href="#g"/>
<use x="413.292969" xlink:href="#j"/>
</g>
</g>
<path d="m852.05 629.46 0.85904-4.5203q0.44808-2.3578-1.9097-2.8059l-7.6064-1.4455q-2.3578-0.44808-2.8059 1.9097l-0.85904 4.5203q-0.44808 2.3578 1.9097 2.8059l7.6064 1.4455q2.3578 0.44808 2.8059-1.9097z" clip-path="url(#a)" fill="#fff" stroke="#fff"/>
<g clip-path="url(#a)">
<g transform="translate(848.06 628.71) rotate(-79.24) scale(.08 -.08)">
<use xlink:href="#ai"/>
</g>
</g>
<path d="m863.4 624.46 1.0429 5.488q0.44808 2.3578 2.8059 1.9097l7.6064-1.4455q2.3578-0.44808 1.9097-2.8059l-1.0429-5.488q-0.44808-2.3578-2.8059-1.9097l-7.6064 1.4455q-2.3578 0.44808-1.9097 2.8059z" clip-path="url(#a)" fill="#fff" stroke="#fff"/>
<g clip-path="url(#a)">
<g transform="translate(867.39 623.7) rotate(79.24) scale(.08 -.08)">
<use xlink:href="#w"/>
</g>
</g>
<path d="m923.23 733.46v35.285q0 2.4 2.4 2.4h7.7425q2.4 0 2.4-2.4v-35.285q0-2.4-2.4-2.4h-7.7425q-2.4 0-2.4 2.4z" clip-path="url(#a)" fill="#fff" stroke="#fff"/>
<g clip-path="url(#a)">
<g transform="translate(927.3 733.46) rotate(90) scale(.08 -.08)">
<use xlink:href="#l"/>
<use x="60.818359" xlink:href="#d"/>
<use x="122.341797" xlink:href="#h"/>
<use x="163.439453" xlink:href="#k"/>
<use x="260.851562" xlink:href="#f"/>
<use x="288.634766" xlink:href="#i"/>
<use x="352.013672" xlink:href="#g"/>
<use x="413.292969" xlink:href="#j"/>
</g>
</g>
<path d="m962.77 566.65 1.1768-5.3445q0.51607-2.3439-1.8278-2.8599l-7.5614-1.6649q-2.3439-0.51607-2.8599 1.8278l-1.1768 5.3445q-0.51607 2.3439 1.8278 2.8599l7.5614 1.6649q2.3439 0.51607 2.8599-1.8278z" clip-path="url(#a)" fill="#fff" stroke="#fff"/>
<g clip-path="url(#a)">
<g transform="translate(958.8 565.78) rotate(-77.583) scale(.08 -.08)">
<use xlink:href="#m"/>
</g>
</g>
<path d="m987.19 565.24 0.15165-4.8214q0.075453-2.3988-2.3234-2.4743l-7.7387-0.24342q-2.3988-0.075453-2.4743 2.3234l-0.15165 4.8214q-0.075453 2.3988 2.3234 2.4743l7.7387 0.24342q2.3988 0.075453 2.4743-2.3234z" clip-path="url(#a)" fill="#fff" stroke="#fff"/>
<g clip-path="url(#a)">
<g transform="translate(983.13 565.11) rotate(-88.198) scale(.08 -.08)">
<use xlink:href="#y"/>
</g>
</g>
<path d="m1009.8 500.46 2.4467 4.8951q1.073 2.1468 3.2198 1.0738l6.9256-3.4615q2.1468-1.073 1.0738-3.2198l-2.4467-4.8951q-1.073-2.1468-3.2198-1.0738l-6.9256 3.4615q-2.1468 1.073-1.0738 3.2198z" clip-path="url(#a)" fill="#fff" stroke="#fff"/>
<g clip-path="url(#a)">
<g transform="translate(1013.5 498.64) rotate(63.443) scale(.08 -.08)">
<use xlink:href="#m"/>
</g>
</g>
<path d="m970.77 733.46v35.285q0 2.4 2.4 2.4h7.7425q2.4 0 2.4-2.4v-35.285q0-2.4-2.4-2.4h-7.7425q-2.4 0-2.4 2.4z" clip-path="url(#a)" fill="#fff" stroke="#fff"/>
<g clip-path="url(#a)">
<g transform="translate(974.83 733.46) rotate(90) scale(.08 -.08)">
<use xlink:href="#l"/>
<use x="60.818359" xlink:href="#d"/>
<use x="122.341797" xlink:href="#h"/>
<use x="163.439453" xlink:href="#k"/>
<use x="260.851562" xlink:href="#f"/>
<use x="288.634766" xlink:href="#i"/>
<use x="352.013672" xlink:href="#g"/>
<use x="413.292969" xlink:href="#j"/>
</g>
</g>
<path d="m1042.1 629.94 1.0378-5.461q0.44808-2.3578-1.9097-2.8059l-7.6064-1.4455q-2.3578-0.44808-2.8059 1.9097l-1.0378 5.461q-0.44808 2.3578 1.9097 2.8059l7.6064 1.4455q2.3578 0.44808 2.8059-1.9097z" clip-path="url(#a)" fill="#fff" stroke="#fff"/>
<g clip-path="url(#a)">
<g transform="translate(1038.1 629.18) rotate(-79.24) scale(.08 -.08)">
<use xlink:href="#v"/>
</g>
</g>
<path d="m1053.5 624.46 1.0429 5.488q0.44808 2.3578 2.8059 1.9097l7.6064-1.4455q2.3578-0.44808 1.9097-2.8059l-1.0429-5.488q-0.44808-2.3578-2.8059-1.9097l-7.6064 1.4455q-2.3578 0.44808-1.9097 2.8059z" clip-path="url(#a)" fill="#fff" stroke="#fff"/>
<g clip-path="url(#a)">
<g transform="translate(1057.5 623.7) rotate(79.24) scale(.08 -.08)">
<use xlink:href="#w"/>
</g>
</g>
<path d="m1018.3 733.46v35.285q0 2.4 2.4 2.4h7.7425q2.4 0 2.4-2.4v-35.285q0-2.4-2.4-2.4h-7.7425q-2.4 0-2.4 2.4z" clip-path="url(#a)" fill="#fff" stroke="#fff"/>
<g clip-path="url(#a)">
<g transform="translate(1022.4 733.46) rotate(90) scale(.08 -.08)">
<use xlink:href="#l"/>
<use x="60.818359" xlink:href="#d"/>
<use x="122.341797" xlink:href="#h"/>
<use x="163.439453" xlink:href="#k"/>
<use x="260.851562" xlink:href="#f"/>
<use x="288.634766" xlink:href="#i"/>
<use x="352.013672" xlink:href="#g"/>
<use x="413.292969" xlink:href="#j"/>
</g>
</g>
<path d="m1065.8 733.46v35.285q0 2.4 2.4 2.4h7.7425q2.4 0 2.4-2.4v-35.285q0-2.4-2.4-2.4h-7.7425q-2.4 0-2.4 2.4z" clip-path="url(#a)" fill="#fff" stroke="#fff"/>
<g clip-path="url(#a)">
<g transform="translate(1069.9 733.46) rotate(90) scale(.08 -.08)">
<use xlink:href="#l"/>
<use x="60.818359" xlink:href="#d"/>
<use x="122.341797" xlink:href="#h"/>
<use x="163.439453" xlink:href="#k"/>
<use x="260.851562" xlink:href="#f"/>
<use x="288.634766" xlink:href="#i"/>
<use x="352.013672" xlink:href="#g"/>
<use x="413.292969" xlink:href="#j"/>
</g>
</g>
<path d="m828.16 733.46v35.285q0 2.4 2.4 2.4h7.7425q2.4 0 2.4-2.4v-35.285q0-2.4-2.4-2.4h-7.7425q-2.4 0-2.4 2.4z" clip-path="url(#a)" fill="#fff" stroke="#fff"/>
<g clip-path="url(#a)">
<g transform="translate(832.23 733.46) rotate(90) scale(.08 -.08)">
<use xlink:href="#l"/>
<use x="60.818359" xlink:href="#d"/>
<use x="122.341797" xlink:href="#h"/>
<use x="163.439453" xlink:href="#k"/>
<use x="260.851562" xlink:href="#f"/>
<use x="288.634766" xlink:href="#i"/>
<use x="352.013672" xlink:href="#g"/>
<use x="413.292969" xlink:href="#j"/>
</g>
</g>
<path d="m875.7 733.46v35.285q0 2.4 2.4 2.4h7.7425q2.4 0 2.4-2.4v-35.285q0-2.4-2.4-2.4h-7.7425q-2.4 0-2.4 2.4z" clip-path="url(#a)" fill="#fff" stroke="#fff"/>
<g clip-path="url(#a)">
<g transform="translate(879.76 733.46) rotate(90) scale(.08 -.08)">
<use xlink:href="#l"/>
<use x="60.818359" xlink:href="#d"/>
<use x="122.341797" xlink:href="#h"/>
<use x="163.439453" xlink:href="#k"/>
<use x="260.851562" xlink:href="#f"/>
<use x="288.634766" xlink:href="#i"/>
<use x="352.013672" xlink:href="#g"/>
<use x="413.292969" xlink:href="#j"/>
</g>
</g>
<path d="m257.75 733.46v35.285q0 2.4 2.4 2.4h7.7425q2.4 0 2.4-2.4v-35.285q0-2.4-2.4-2.4h-7.7425q-2.4 0-2.4 2.4z" clip-path="url(#a)" fill="#fff" stroke="#fff"/>
<g clip-path="url(#a)">
<g transform="translate(261.81 733.46) rotate(90) scale(.08 -.08)">
<use xlink:href="#l"/>
<use x="60.818359" xlink:href="#d"/>
<use x="122.341797" xlink:href="#h"/>
<use x="163.439453" xlink:href="#k"/>
<use x="260.851562" xlink:href="#f"/>
<use x="288.634766" xlink:href="#i"/>
<use x="352.013672" xlink:href="#g"/>
<use x="413.292969" xlink:href="#j"/>
</g>
</g>
<path d="m305.28 733.46v35.285q0 2.4 2.4 2.4h7.7425q2.4 0 2.4-2.4v-35.285q0-2.4-2.4-2.4h-7.7425q-2.4 0-2.4 2.4z" clip-path="url(#a)" fill="#fff" stroke="#fff"/>
<g clip-path="url(#a)">
<g transform="translate(309.35 733.46) rotate(90) scale(.08 -.08)">
<use xlink:href="#l"/>
<use x="60.818359" xlink:href="#d"/>
<use x="122.341797" xlink:href="#h"/>
<use x="163.439453" xlink:href="#k"/>
<use x="260.851562" xlink:href="#f"/>
<use x="288.634766" xlink:href="#i"/>
<use x="352.013672" xlink:href="#g"/>
<use x="413.292969" xlink:href="#j"/>
</g>
</g>
<path d="m352.82 733.46v35.285q0 2.4 2.4 2.4h7.7425q2.4 0 2.4-2.4v-35.285q0-2.4-2.4-2.4h-7.7425q-2.4 0-2.4 2.4z" clip-path="url(#a)" fill="#fff" stroke="#fff"/>
<g clip-path="url(#a)">
<g transform="translate(356.88 733.46) rotate(90) scale(.08 -.08)">
<use xlink:href="#l"/>
<use x="60.818359" xlink:href="#d"/>
<use x="122.341797" xlink:href="#h"/>
<use x="163.439453" xlink:href="#k"/>
<use x="260.851562" xlink:href="#f"/>
<use x="288.634766" xlink:href="#i"/>
<use x="352.013672" xlink:href="#g"/>
<use x="413.292969" xlink:href="#j"/>
</g>
</g>
<path d="m400.35 733.46v35.285q0 2.4 2.4 2.4h7.7425q2.4 0 2.4-2.4v-35.285q0-2.4-2.4-2.4h-7.7425q-2.4 0-2.4 2.4z" clip-path="url(#a)" fill="#fff" stroke="#fff"/>
<g clip-path="url(#a)">
<g transform="translate(404.41 733.46) rotate(90) scale(.08 -.08)">
<use xlink:href="#l"/>
<use x="60.818359" xlink:href="#d"/>
<use x="122.341797" xlink:href="#h"/>
<use x="163.439453" xlink:href="#k"/>
<use x="260.851562" xlink:href="#f"/>
<use x="288.634766" xlink:href="#i"/>
<use x="352.013672" xlink:href="#g"/>
<use x="413.292969" xlink:href="#j"/>
</g>
</g>
<path d="m482.8 630.86 1.9749-5.1961q0.85268-2.2434-1.3907-3.0961l-7.2374-2.7508q-2.2434-0.85268-3.0961 1.3907l-1.9749 5.1961q-0.85268 2.2434 1.3907 3.0961l7.2374 2.7508q2.2434 0.85268 3.0961-1.3907z" clip-path="url(#a)" fill="#fff" stroke="#fff"/>
<g clip-path="url(#a)">
<g transform="translate(479 629.42) rotate(-69.189) scale(.08 -.08)">
<use xlink:href="#v"/>
</g>
</g>
<path d="m495.42 623.51v5.055q0 2.4 2.4 2.4h7.7425q2.4 0 2.4-2.4v-5.055q0-2.4-2.4-2.4h-7.7425q-2.4 0-2.4 2.4z" clip-path="url(#a)" fill="#fff" stroke="#fff"/>
<g clip-path="url(#a)">
<g transform="translate(499.48 623.51) rotate(90) scale(.08 -.08)">
<use xlink:href="#aj"/>
</g>
</g>
<path d="m518.6 625.65 1.9847 5.2218q0.85268 2.2434 3.0961 1.3907l7.2374-2.7508q2.2434-0.85268 1.3907-3.0961l-1.9847-5.2218q-0.85268-2.2434-3.0961-1.3907l-7.2374 2.7508q-2.2434 0.85268-1.3907 3.0961z" clip-path="url(#a)" fill="#fff" stroke="#fff"/>
<g clip-path="url(#a)">
<g transform="translate(522.4 624.21) rotate(69.189) scale(.08 -.08)">
<use xlink:href="#w"/>
</g>
</g>
<path d="m447.89 733.46v35.285q0 2.4 2.4 2.4h7.7425q2.4 0 2.4-2.4v-35.285q0-2.4-2.4-2.4h-7.7425q-2.4 0-2.4 2.4z" clip-path="url(#a)" fill="#fff" stroke="#fff"/>
<g clip-path="url(#a)">
<g transform="translate(451.95 733.46) rotate(90) scale(.08 -.08)">
<use xlink:href="#l"/>
<use x="60.818359" xlink:href="#d"/>
<use x="122.341797" xlink:href="#h"/>
<use x="163.439453" xlink:href="#k"/>
<use x="260.851562" xlink:href="#f"/>
<use x="288.634766" xlink:href="#i"/>
<use x="352.013672" xlink:href="#g"/>
<use x="413.292969" xlink:href="#j"/>
</g>
</g>
<path d="m495.42 733.46v35.285q0 2.4 2.4 2.4h7.7425q2.4 0 2.4-2.4v-35.285q0-2.4-2.4-2.4h-7.7425q-2.4 0-2.4 2.4z" clip-path="url(#a)" fill="#fff" stroke="#fff"/>
<g clip-path="url(#a)">
<g transform="translate(499.48 733.46) rotate(90) scale(.08 -.08)">
<use xlink:href="#l"/>
<use x="60.818359" xlink:href="#d"/>
<use x="122.341797" xlink:href="#h"/>
<use x="163.439453" xlink:href="#k"/>
<use x="260.851562" xlink:href="#f"/>
<use x="288.634766" xlink:href="#i"/>
<use x="352.013672" xlink:href="#g"/>
<use x="413.292969" xlink:href="#j"/>
</g>
</g>
<path d="m542.95 733.46v35.285q0 2.4 2.4 2.4h7.7425q2.4 0 2.4-2.4v-35.285q0-2.4-2.4-2.4h-7.7425q-2.4 0-2.4 2.4z" clip-path="url(#a)" fill="#fff" stroke="#fff"/>
<g clip-path="url(#a)">
<g transform="translate(547.02 733.46) rotate(90) scale(.08 -.08)">
<use xlink:href="#l"/>
<use x="60.818359" xlink:href="#d"/>
<use x="122.341797" xlink:href="#h"/>
<use x="163.439453" xlink:href="#k"/>
<use x="260.851562" xlink:href="#f"/>
<use x="288.634766" xlink:href="#i"/>
<use x="352.013672" xlink:href="#g"/>
<use x="413.292969" xlink:href="#j"/>
</g>
</g>
<path d="m138.99 629.69 0.94376-4.9661q0.44808-2.3578-1.9097-2.8059l-7.6064-1.4455q-2.3578-0.44808-2.8059 1.9097l-0.94376 4.9661q-0.44808 2.3578 1.9097 2.8059l7.6064 1.4455q2.3578 0.44808 2.8059-1.9097z" clip-path="url(#a)" fill="#fff" stroke="#fff"/>
<g clip-path="url(#a)">
<g transform="translate(134.99 628.93) rotate(-79.24) scale(.08 -.08)">
<use xlink:href="#aj"/>
</g>
</g>
<path d="m150.38 624.46 1.0429 5.488q0.44808 2.3578 2.8059 1.9097l7.6064-1.4455q2.3578-0.44808 1.9097-2.8059l-1.0429-5.488q-0.44808-2.3578-2.8059-1.9097l-7.6064 1.4455q-2.3578 0.44808-1.9097 2.8059z" clip-path="url(#a)" fill="#fff" stroke="#fff"/>
<g clip-path="url(#a)">
<g transform="translate(154.38 623.7) rotate(79.24) scale(.08 -.08)">
<use xlink:href="#w"/>
</g>
</g>
<path d="m115.14 733.46v35.285q0 2.4 2.4 2.4h7.7425q2.4 0 2.4-2.4v-35.285q0-2.4-2.4-2.4h-7.7425q-2.4 0-2.4 2.4z" clip-path="url(#a)" fill="#fff" stroke="#fff"/>
<g clip-path="url(#a)">
<g transform="translate(119.21 733.46) rotate(90) scale(.08 -.08)">
<use xlink:href="#l"/>
<use x="60.818359" xlink:href="#d"/>
<use x="122.341797" xlink:href="#h"/>
<use x="163.439453" xlink:href="#k"/>
<use x="260.851562" xlink:href="#f"/>
<use x="288.634766" xlink:href="#i"/>
<use x="352.013672" xlink:href="#g"/>
<use x="413.292969" xlink:href="#j"/>
</g>
</g>
<path d="m162.68 733.46v35.285q0 2.4 2.4 2.4h7.7425q2.4 0 2.4-2.4v-35.285q0-2.4-2.4-2.4h-7.7425q-2.4 0-2.4 2.4z" clip-path="url(#a)" fill="#fff" stroke="#fff"/>
<g clip-path="url(#a)">
<g transform="translate(166.74 733.46) rotate(90) scale(.08 -.08)">
<use xlink:href="#l"/>
<use x="60.818359" xlink:href="#d"/>
<use x="122.341797" xlink:href="#h"/>
<use x="163.439453" xlink:href="#k"/>
<use x="260.851562" xlink:href="#f"/>
<use x="288.634766" xlink:href="#i"/>
<use x="352.013672" xlink:href="#g"/>
<use x="413.292969" xlink:href="#j"/>
</g>
</g>
<path d="m451.67 245.13 3.6765-9.227q0.88837-2.2295-1.3412-3.1179l-7.1926-2.8659q-2.2295-0.88837-3.1179 1.3412l-3.6765 9.227q-0.88837 2.2295 1.3412 3.1179l7.1926 2.8659q2.2295 0.88837 3.1179-1.3412z" clip-path="url(#a)" fill="#fff" stroke="#fff"/>
<g clip-path="url(#a)">
<g transform="translate(447.9 243.63) rotate(-68.275) scale(.08 -.08)">
<use xlink:href="#s"/>
<use x="55.744141" xlink:href="#m"/>
</g>
</g>
<path d="m555 359.83 1.074 9.9585q0.25735 2.3862 2.6435 2.1288l7.6979-0.83023q2.3862-0.25735 2.1288-2.6435l-1.074-9.9585q-0.25735-2.3862-2.6435-2.1288l-7.6979 0.83023q-2.3862 0.25735-2.1288 2.6435z" clip-path="url(#a)" fill="#fff" stroke="#fff"/>
<g clip-path="url(#a)">
<g transform="translate(559.04 359.39) rotate(83.844) scale(.08 -.08)">
<use xlink:href="#s"/>
<use x="55.712891" xlink:href="#v"/>
</g>
</g>
<path d="m562.92 106.74 5.417 8.3253q1.3089 2.0116 3.3206 0.70272l6.4896-4.2226q2.0116-1.3089 0.70272-3.3206l-5.417-8.3253q-1.3089-2.0116-3.3206-0.70272l-6.4896 4.2226q-2.0116 1.3089-0.70272 3.3206z" clip-path="url(#a)" fill="#fff" stroke="#fff"/>
<g clip-path="url(#a)">
<g transform="translate(566.32 104.52) rotate(56.949) scale(.08 -.08)">
<use xlink:href="#s"/>
<use x="55.744141" xlink:href="#m"/>
</g>
</g>
<path d="m149.56 504.9 3.5215-9.3768q0.8438-2.2468-1.403-3.0906l-7.2482-2.7221q-2.2468-0.8438-3.0906 1.403l-3.5215 9.3768q-0.8438 2.2468 1.403 3.0906l7.2482 2.7221q2.2468 0.8438 3.0906-1.403z" clip-path="url(#a)" fill="#fff" stroke="#fff"/>
<g clip-path="url(#a)">
<g transform="translate(145.75 503.47) rotate(-69.416) scale(.08 -.08)">
<use xlink:href="#s"/>
<use x="55.712891" xlink:href="#v"/>
</g>
</g>
<path d="m218.72 377.44 0.64804-9.9113q0.15659-2.3949-2.2383-2.5515l-7.726-0.50515q-2.3949-0.15659-2.5515 2.2383l-0.64804 9.9113q-0.15659 2.3949 2.2383 2.5515l7.726 0.50515q2.3949 0.15659 2.5515-2.2383z" clip-path="url(#a)" fill="#fff" stroke="#fff"/>
<g clip-path="url(#a)">
<g transform="translate(214.67 377.17) rotate(-86.259) scale(.08 -.08)">
<use xlink:href="#s"/>
<use x="55.744141" xlink:href="#m"/>
</g>
</g>
<path d="m284.96 373.62 7.5581 6.4444q1.8263 1.5572 3.3834-0.2691l5.0235-5.8916q1.5572-1.8263-0.2691-3.3834l-7.5581-6.4444q-1.8263-1.5572-3.3834 0.2691l-5.0235 5.8916q-1.5572 1.8263 0.2691 3.3834z" clip-path="url(#a)" fill="#fff" stroke="#fff"/>
<g clip-path="url(#a)">
<g transform="translate(287.59 370.53) rotate(40.452) scale(.08 -.08)">
<use xlink:href="#s"/>
<use x="55.744141" xlink:href="#m"/>
</g>
</g>
<path d="m210.21 733.46v35.285q0 2.4 2.4 2.4h7.7425q2.4 0 2.4-2.4v-35.285q0-2.4-2.4-2.4h-7.7425q-2.4 0-2.4 2.4z" clip-path="url(#a)" fill="#fff" stroke="#fff"/>
<g clip-path="url(#a)">
<g transform="translate(214.28 733.46) rotate(90) scale(.08 -.08)">
<use xlink:href="#l"/>
<use x="60.818359" xlink:href="#d"/>
<use x="122.341797" xlink:href="#h"/>
<use x="163.439453" xlink:href="#k"/>
<use x="260.851562" xlink:href="#f"/>
<use x="288.634766" xlink:href="#i"/>
<use x="352.013672" xlink:href="#g"/>
<use x="413.292969" xlink:href="#j"/>
</g>
</g>
<path d="m1113.4 733.46v35.285q0 2.4 2.4 2.4h7.7425q2.4 0 2.4-2.4v-35.285q0-2.4-2.4-2.4h-7.7425q-2.4 0-2.4 2.4z" clip-path="url(#a)" fill="#fff" stroke="#fff"/>
<g clip-path="url(#a)">
<g transform="translate(1117.4 733.46) rotate(90) scale(.08 -.08)">
<use xlink:href="#l"/>
<use x="60.818359" xlink:href="#d"/>
<use x="122.341797" xlink:href="#h"/>
<use x="163.439453" xlink:href="#k"/>
<use x="260.851562" xlink:href="#f"/>
<use x="288.634766" xlink:href="#i"/>
<use x="352.013672" xlink:href="#g"/>
<use x="413.292969" xlink:href="#j"/>
</g>
</g>
<path d="m1541.2 733.46v35.285q0 2.4 2.4 2.4h7.7425q2.4 0 2.4-2.4v-35.285q0-2.4-2.4-2.4h-7.7425q-2.4 0-2.4 2.4z" clip-path="url(#a)" fill="#fff" stroke="#fff"/>
<g clip-path="url(#a)">
<g transform="translate(1545.2 733.46) rotate(90) scale(.08 -.08)">
<use xlink:href="#l"/>
<use x="60.818359" xlink:href="#d"/>
<use x="122.341797" xlink:href="#h"/>
<use x="163.439453" xlink:href="#k"/>
<use x="260.851562" xlink:href="#f"/>
<use x="288.634766" xlink:href="#i"/>
<use x="352.013672" xlink:href="#g"/>
<use x="413.292969" xlink:href="#j"/>
</g>
</g>
<defs>
<path id="b" d="m0 8.6603c2.2967 0 4.4997-0.9125 6.1237-2.5365 1.624-1.624 2.5365-3.827 2.5365-6.1237s-0.9125-4.4997-2.5365-6.1237c-1.624-1.624-3.827-2.5365-6.1237-2.5365s-4.4997 0.9125-6.1237 2.5365c-1.624 1.624-2.5365 3.827-2.5365 6.1237s0.9125 4.4997 2.5365 6.1237c1.624 1.624 3.827 2.5365 6.1237 2.5365z"/>
</defs>
<g clip-path="url(#a)">
<use x="73.87978" y="813.631592" fill="#ffffff" stroke="#ffffff" xlink:href="#b"/>
</g>
<g clip-path="url(#a)">
<use x="121.414418" y="813.631592" fill="#ffffff" stroke="#ffffff" xlink:href="#b"/>
</g>
<g clip-path="url(#a)">
<use x="168.949056" y="813.631592" fill="#ffffff" stroke="#ffffff" xlink:href="#b"/>
</g>
<g clip-path="url(#a)">
<use x="216.483694" y="813.631592" fill="#ffffff" stroke="#ffffff" xlink:href="#b"/>
</g>
<g clip-path="url(#a)">
<use x="264.018332" y="813.631592" fill="#ffffff" stroke="#ffffff" xlink:href="#b"/>
</g>
<g clip-path="url(#a)">
<use x="311.552969" y="813.631592" fill="#ffffff" stroke="#ffffff" xlink:href="#b"/>
</g>
<g clip-path="url(#a)">
<use x="359.087607" y="813.631592" fill="#ffffff" stroke="#ffffff" xlink:href="#b"/>
</g>
<g clip-path="url(#a)">
<use x="406.622245" y="813.631592" fill="#ffffff" stroke="#ffffff" xlink:href="#b"/>
</g>
<g clip-path="url(#a)">
<use x="454.156883" y="813.631592" fill="#ffffff" stroke="#ffffff" xlink:href="#b"/>
</g>
<g clip-path="url(#a)">
<use x="501.691521" y="813.631592" fill="#ffffff" stroke="#ffffff" xlink:href="#b"/>
</g>
<g clip-path="url(#a)">
<use x="549.226159" y="813.631592" fill="#ffffff" stroke="#ffffff" xlink:href="#b"/>
</g>
<g clip-path="url(#a)">
<use x="596.760796" y="813.631592" fill="#ffffff" stroke="#ffffff" xlink:href="#b"/>
</g>
<g clip-path="url(#a)">
<use x="644.295434" y="813.631592" fill="#ffffff" stroke="#ffffff" xlink:href="#b"/>
</g>
<g clip-path="url(#a)">
<use x="691.830072" y="813.631592" fill="#ffffff" stroke="#ffffff" xlink:href="#b"/>
</g>
<g clip-path="url(#a)">
<use x="739.36471" y="813.631592" fill="#ffffff" stroke="#ffffff" xlink:href="#b"/>
</g>
<g clip-path="url(#a)">
<use x="786.899348" y="813.631592" fill="#ffffff" stroke="#ffffff" xlink:href="#b"/>
</g>
<g clip-path="url(#a)">
<use x="834.433986" y="813.631592" fill="#ffffff" stroke="#ffffff" xlink:href="#b"/>
</g>
<g clip-path="url(#a)">
<use x="881.968623" y="813.631592" fill="#ffffff" stroke="#ffffff" xlink:href="#b"/>
</g>
<g clip-path="url(#a)">
<use x="929.503261" y="813.631592" fill="#ffffff" stroke="#ffffff" xlink:href="#b"/>
</g>
<g clip-path="url(#a)">
<use x="977.037899" y="813.631592" fill="#ffffff" stroke="#ffffff" xlink:href="#b"/>
</g>
<g clip-path="url(#a)">
<use x="1024.572537" y="813.631592" fill="#ffffff" stroke="#ffffff" xlink:href="#b"/>
</g>
<g clip-path="url(#a)">
<use x="1072.107175" y="813.631592" fill="#ffffff" stroke="#ffffff" xlink:href="#b"/>
</g>
<g clip-path="url(#a)">
<use x="1119.641813" y="813.631592" fill="#ffffff" stroke="#ffffff" xlink:href="#b"/>
</g>
<g clip-path="url(#a)">
<use x="1167.17645" y="813.631592" fill="#ffffff" stroke="#ffffff" xlink:href="#b"/>
</g>
<g clip-path="url(#a)">
<use x="1214.711088" y="813.631592" fill="#ffffff" stroke="#ffffff" xlink:href="#b"/>
</g>
<g clip-path="url(#a)">
<use x="1262.245726" y="813.631592" fill="#ffffff" stroke="#ffffff" xlink:href="#b"/>
</g>
<g clip-path="url(#a)">
<use x="1309.780364" y="813.631592" fill="#ffffff" stroke="#ffffff" xlink:href="#b"/>
</g>
<g clip-path="url(#a)">
<use x="1357.315002" y="813.631592" fill="#ffffff" stroke="#ffffff" xlink:href="#b"/>
</g>
<g clip-path="url(#a)">
<use x="1404.84964" y="813.631592" fill="#ffffff" stroke="#ffffff" xlink:href="#b"/>
</g>
<g clip-path="url(#a)">
<use x="1452.384278" y="813.631592" fill="#ffffff" stroke="#ffffff" xlink:href="#b"/>
</g>
<g clip-path="url(#a)">
<use x="1499.918915" y="813.631592" fill="#ffffff" stroke="#ffffff" xlink:href="#b"/>
</g>
<g clip-path="url(#a)">
<use x="1547.453553" y="813.631592" fill="#ffffff" stroke="#ffffff" xlink:href="#b"/>
</g>
<g clip-path="url(#a)">
<use x="611.756843" y="39.701741" fill="#ffffff" stroke="#ffffff" xlink:href="#b"/>
</g>
<g clip-path="url(#a)">
<use x="73.87978" y="688.566463" fill="#ffffff" stroke="#ffffff" xlink:href="#b"/>
</g>
<g clip-path="url(#a)">
<use x="208.561254" y="436.69641" fill="#ffffff" stroke="#ffffff" xlink:href="#b"/>
</g>
<g clip-path="url(#a)">
<use x="368.594535" y="436.69641" fill="#ffffff" stroke="#ffffff" xlink:href="#b"/>
</g>
<g clip-path="url(#a)">
<use x="596.760796" y="688.566463" fill="#ffffff" stroke="#ffffff" xlink:href="#b"/>
</g>
<g clip-path="url(#a)">
<use x="614.982408" y="175.2582" fill="#ffffff" stroke="#ffffff" xlink:href="#b"/>
</g>
<g clip-path="url(#a)">
<use x="1299.877314" y="436.69641" fill="#ffffff" stroke="#ffffff" xlink:href="#b"/>
</g>
<g clip-path="url(#a)">
<use x="1167.17645" y="688.566463" fill="#ffffff" stroke="#ffffff" xlink:href="#b"/>
</g>
<g clip-path="url(#a)">
<use x="1293.935485" y="563.501333" fill="#ffffff" stroke="#ffffff" xlink:href="#b"/>
</g>
<g clip-path="url(#a)">
<use x="1262.245726" y="688.566463" fill="#ffffff" stroke="#ffffff" xlink:href="#b"/>
</g>
<g clip-path="url(#a)">
<use x="1476.151596" y="563.501333" fill="#ffffff" stroke="#ffffff" xlink:href="#b"/>
</g>
<g clip-path="url(#a)">
<use x="1404.84964" y="688.566463" fill="#ffffff" stroke="#ffffff" xlink:href="#b"/>
</g>
<g clip-path="url(#a)">
<use x="1452.384278" y="688.566463" fill="#ffffff" stroke="#ffffff" xlink:href="#b"/>
</g>
<g clip-path="url(#a)">
<use x="1499.918915" y="688.566463" fill="#ffffff" stroke="#ffffff" xlink:href="#b"/>
</g>
<g clip-path="url(#a)">
<use x="1214.711088" y="688.566463" fill="#ffffff" stroke="#ffffff" xlink:href="#b"/>
</g>
<g clip-path="url(#a)">
<use x="1309.780364" y="688.566463" fill="#ffffff" stroke="#ffffff" xlink:href="#b"/>
</g>
<g clip-path="url(#a)">
<use x="1357.315002" y="688.566463" fill="#ffffff" stroke="#ffffff" xlink:href="#b"/>
</g>
<g clip-path="url(#a)">
<use x="644.295434" y="688.566463" fill="#ffffff" stroke="#ffffff" xlink:href="#b"/>
</g>
<g clip-path="url(#a)">
<use x="691.830072" y="688.566463" fill="#ffffff" stroke="#ffffff" xlink:href="#b"/>
</g>
<g clip-path="url(#a)">
<use x="859.785792" y="307.449762" fill="#ffffff" stroke="#ffffff" xlink:href="#b"/>
</g>
<g clip-path="url(#a)">
<use x="739.36471" y="688.566463" fill="#ffffff" stroke="#ffffff" xlink:href="#b"/>
</g>
<g clip-path="url(#a)">
<use x="786.899348" y="688.566463" fill="#ffffff" stroke="#ffffff" xlink:href="#b"/>
</g>
<g clip-path="url(#a)">
<use x="858.201305" y="563.501333" fill="#ffffff" stroke="#ffffff" xlink:href="#b"/>
</g>
<g clip-path="url(#a)">
<use x="929.503261" y="688.566463" fill="#ffffff" stroke="#ffffff" xlink:href="#b"/>
</g>
<g clip-path="url(#a)">
<use x="984.960339" y="436.69641" fill="#ffffff" stroke="#ffffff" xlink:href="#b"/>
</g>
<g clip-path="url(#a)">
<use x="977.037899" y="688.566463" fill="#ffffff" stroke="#ffffff" xlink:href="#b"/>
</g>
<g clip-path="url(#a)">
<use x="1048.339856" y="563.501333" fill="#ffffff" stroke="#ffffff" xlink:href="#b"/>
</g>
<g clip-path="url(#a)">
<use x="1024.572537" y="688.566463" fill="#ffffff" stroke="#ffffff" xlink:href="#b"/>
</g>
<g clip-path="url(#a)">
<use x="1072.107175" y="688.566463" fill="#ffffff" stroke="#ffffff" xlink:href="#b"/>
</g>
<g clip-path="url(#a)">
<use x="834.433986" y="688.566463" fill="#ffffff" stroke="#ffffff" xlink:href="#b"/>
</g>
<g clip-path="url(#a)">
<use x="881.968623" y="688.566463" fill="#ffffff" stroke="#ffffff" xlink:href="#b"/>
</g>
<g clip-path="url(#a)">
<use x="264.018332" y="688.566463" fill="#ffffff" stroke="#ffffff" xlink:href="#b"/>
</g>
<g clip-path="url(#a)">
<use x="311.552969" y="688.566463" fill="#ffffff" stroke="#ffffff" xlink:href="#b"/>
</g>
<g clip-path="url(#a)">
<use x="359.087607" y="688.566463" fill="#ffffff" stroke="#ffffff" xlink:href="#b"/>
</g>
<g clip-path="url(#a)">
<use x="406.622245" y="688.566463" fill="#ffffff" stroke="#ffffff" xlink:href="#b"/>
</g>
<g clip-path="url(#a)">
<use x="501.691521" y="563.501333" fill="#ffffff" stroke="#ffffff" xlink:href="#b"/>
</g>
<g clip-path="url(#a)">
<use x="454.156883" y="688.566463" fill="#ffffff" stroke="#ffffff" xlink:href="#b"/>
</g>
<g clip-path="url(#a)">
<use x="501.691521" y="688.566463" fill="#ffffff" stroke="#ffffff" xlink:href="#b"/>
</g>
<g clip-path="url(#a)">
<use x="549.226159" y="688.566463" fill="#ffffff" stroke="#ffffff" xlink:href="#b"/>
</g>
<g clip-path="url(#a)">
<use x="145.181737" y="563.501333" fill="#ffffff" stroke="#ffffff" xlink:href="#b"/>
</g>
<g clip-path="url(#a)">
<use x="121.414418" y="688.566463" fill="#ffffff" stroke="#ffffff" xlink:href="#b"/>
</g>
<g clip-path="url(#a)">
<use x="168.949056" y="688.566463" fill="#ffffff" stroke="#ffffff" xlink:href="#b"/>
</g>
<g clip-path="url(#a)">
<use x="526.779246" y="39.701741" fill="#808080" stroke="#808080" xlink:href="#b"/>
</g>
<g clip-path="url(#a)">
<use x="217.011856" y="307.449762" fill="#808080" stroke="#808080" xlink:href="#b"/>
</g>
<g clip-path="url(#a)">
<use x="216.483694" y="688.566463" fill="#ffffff" stroke="#ffffff" xlink:href="#b"/>
</g>
<g clip-path="url(#a)">
<use x="1119.641813" y="688.566463" fill="#ffffff" stroke="#ffffff" xlink:href="#b"/>
</g>
<g clip-path="url(#a)">
<use x="1547.453553" y="688.566463" fill="#ffffff" stroke="#ffffff" xlink:href="#b"/>
</g>
<g clip-path="url(#a)">
<defs>
<path id="t" d="m44.281 53.078v-8.5q-3.7969 1.9531-7.9062 2.9219-4.0938 0.98438-8.5 0.98438-6.6875 0-10.031-2.0469t-3.3438-6.1562q0-3.125 2.3906-4.9062t9.625-3.3906l3.0781-0.6875q9.5625-2.0469 13.594-5.7812t4.0312-10.422q0-7.625-6.0312-12.078-6.0312-4.4375-16.578-4.4375-4.3906 0-9.1562 0.85938t-10.031 2.5625v9.2812q4.9844-2.5938 9.8125-3.8906 4.8281-1.2812 9.5781-1.2812 6.3438 0 9.75 2.1719 3.4219 2.1719 3.4219 6.125 0 3.6562-2.4688 5.6094-2.4531 1.9531-10.812 3.7656l-3.125 0.73438q-8.3438 1.75-12.062 5.3906-3.7031 3.6406-3.7031 9.9844 0 7.7188 5.4688 11.906 5.4688 4.2031 15.531 4.2031 4.9688 0 9.3594-0.73438 4.4062-0.71875 8.1094-2.1875z"/>
</defs>
<g transform="translate(67.855 816.39) scale(.1 -.1)">
<use xlink:href="#m"/>
<use x="68.408203" xlink:href="#t"/>
</g>
</g>
<g clip-path="url(#a)">
<g transform="translate(118.35 816.39) scale(.1 -.1)">
<use xlink:href="#g"/>
</g>
</g>
<g clip-path="url(#a)">
<defs>
<path id="ag" d="m48.781 52.594v-8.4062q-3.8125 2.1094-7.6406 3.1562t-7.7344 1.0469q-8.75 0-13.594-5.5469-4.8281-5.5312-4.8281-15.547t4.8281-15.562q4.8438-5.5312 13.594-5.5312 3.9062 0 7.7344 1.0469t7.6406 3.1562v-8.3125q-3.7656-1.75-7.7969-2.625-4.0156-0.89062-8.5625-0.89062-12.359 0-19.641 7.7656-7.2656 7.7656-7.2656 20.953 0 13.375 7.3438 21.031 7.3594 7.6719 20.156 7.6719 4.1406 0 8.0938-0.85938 3.9531-0.84375 7.6719-2.5469z"/>
<path id="q" d="m54.891 33.016v-33.016h-8.9844v32.719q0 7.7656-3.0312 11.609-3.0312 3.8594-9.0781 3.8594-7.2812 0-11.484-4.6406-4.2031-4.625-4.2031-12.641v-30.906h-9.0312v75.984h9.0312v-29.797q3.2344 4.9375 7.5938 7.375 4.375 2.4375 10.094 2.4375 9.4219 0 14.25-5.8281 4.8438-5.8281 4.8438-17.156z"/>
<path id="u" d="m45.406 46.391v29.594h8.9844v-75.984h-8.9844v8.2031q-2.8281-4.875-7.1562-7.25-4.3125-2.375-10.375-2.375-9.9062 0-16.141 7.9062-6.2188 7.9219-6.2188 20.812t6.2188 20.797q6.2344 7.9062 16.141 7.9062 6.0625 0 10.375-2.375 4.3281-2.3594 7.1562-7.2344zm-30.609-19.094q0-9.9062 4.0781-15.547t11.203-5.6406 11.219 5.6406q4.1094 5.6406 4.1094 15.547t-4.1094 15.547q-4.0938 5.6406-11.219 5.6406t-11.203-5.6406-4.0781-15.547z"/>
</defs>
<g transform="translate(157.08 816.39) scale(.1 -.1)">
<use xlink:href="#ag"/>
<use x="54.980469" xlink:href="#q"/>
<use x="118.359375" xlink:href="#f"/>
<use x="146.142578" xlink:href="#j"/>
<use x="173.925781" xlink:href="#u"/>
</g>
</g>
<g clip-path="url(#a)">
<defs>
<path id="av" d="m11.719 12.406h10.297v-8.4062l-8-15.625h-6.2969l4 15.625z"/>
</defs>
<g transform="translate(214.89 816.39) scale(.1 -.1)">
<use xlink:href="#av"/>
</g>
</g>
<g clip-path="url(#a)">
<defs>
<path id="at" d="m9.8125 72.906h9.8594v-67.828q0-13.188-5-19.141t-16.094-5.9531h-3.75v8.2969h3.0781q6.5312 0 9.2188 3.6719 2.6875 3.6562 2.6875 13.125z"/>
<path id="af" d="m30.609 48.391q-7.2188 0-11.422-5.6406t-4.2031-15.453 4.1719-15.453q4.1875-5.6406 11.453-5.6406 7.1875 0 11.375 5.6562 4.2031 5.6719 4.2031 15.438 0 9.7188-4.2031 15.406-4.1875 5.6875-11.375 5.6875zm0 7.6094q11.719 0 18.406-7.625 6.7031-7.6094 6.7031-21.078 0-13.422-6.7031-21.078-6.6875-7.6406-18.406-7.6406-11.766 0-18.438 7.6406-6.6562 7.6562-6.6562 21.078 0 13.469 6.6562 21.078 6.6719 7.625 18.438 7.625z"/>
</defs>
<g transform="translate(253.63 816.39) scale(.1 -.1)">
<use xlink:href="#at"/>
<use x="29.492188" xlink:href="#af"/>
<use x="90.673828" xlink:href="#j"/>
<use x="118.457031" xlink:href="#f"/>
<use x="146.240234" xlink:href="#d"/>
</g>
</g>
<g clip-path="url(#a)">
<defs>
<path id="aq" d="m45.406 27.984q0 9.7656-4.0312 15.125-4.0156 5.375-11.297 5.375-7.2188 0-11.25-5.375-4.0312-5.3594-4.0312-15.125 0-9.7188 4.0312-15.094t11.25-5.375q7.2812 0 11.297 5.375 4.0312 5.375 4.0312 15.094zm8.9844-21.203q0-13.953-6.2031-20.766-6.1875-6.8125-18.984-6.8125-4.7344 0-8.9375 0.70312t-8.1562 2.1719v8.7344q3.9531-2.1406 7.8125-3.1562 3.8594-1.0312 7.8594-1.0312 8.8438 0 13.234 4.6094t4.3906 13.938v4.4531q-2.7812-4.8438-7.125-7.2344t-10.406-2.3906q-10.047 0-16.203 7.6562-6.1562 7.6719-6.1562 20.328 0 12.688 6.1562 20.344 6.1562 7.6719 16.203 7.6719 6.0625 0 10.406-2.3906t7.125-7.2188v8.2969h8.9844z"/>
<path id="ao" d="m8.5 21.578v33.109h8.9844v-32.766q0-7.7656 3.0156-11.656 3.0312-3.875 9.0938-3.875 7.2656 0 11.484 4.6406 4.2344 4.6406 4.2344 12.656v31h8.9844v-54.688h-8.9844v8.4062q-3.2656-4.9844-7.5938-7.4062-4.3125-2.4219-10.031-2.4219-9.4219 0-14.312 5.8594-4.875 5.8594-4.875 17.141z"/>
<path id="am" d="m32.172-5.0781q-3.7969-9.7656-7.4219-12.734-3.6094-2.9844-9.6562-2.9844h-7.1875v7.5156h5.2812q3.7031 0 5.75 1.7656 2.0625 1.75 4.5469 8.2969l1.6094 4.0938-22.109 53.812h9.5156l17.094-42.766 17.094 42.766h9.5156z"/>
</defs>
<g transform="translate(289.22 816.39) scale(.1 -.1)">
<use xlink:href="#h"/>
<use x="41.082031" xlink:href="#d"/>
<use x="102.605469" xlink:href="#aq"/>
<use x="166.082031" xlink:href="#ao"/>
<use x="229.460938" xlink:href="#j"/>
<use x="257.244141" xlink:href="#g"/>
<use x="318.523438" xlink:href="#h"/>
<use x="359.636719" xlink:href="#j"/>
<use x="387.419922" xlink:href="#am"/>
</g>
</g>
<g clip-path="url(#a)">
<defs>
<path id="an" d="m4.2031 54.688h8.9844l11.234-42.672 11.172 42.672h10.594l11.234-42.672 11.188 42.672h8.9844l-14.312-54.688h-10.594l-11.766 44.828-11.812-44.828h-10.609z"/>
</defs>
<g transform="translate(349.33 816.39) scale(.1 -.1)">
<use xlink:href="#t"/>
<use x="52.099609" xlink:href="#g"/>
<use x="113.378906" xlink:href="#an"/>
</g>
</g>
<g clip-path="url(#a)">
<defs>
<path id="ax" d="m2.9844 54.688h9.5156l17.094-45.891 17.094 45.891h9.5156l-20.516-54.688h-12.203z"/>
</defs>
<g transform="translate(388.66 816.39) scale(.1 -.1)">
<use xlink:href="#k"/>
<use x="97.412109" xlink:href="#af"/>
<use x="158.59375" xlink:href="#ax"/>
<use x="217.773438" xlink:href="#f"/>
<use x="245.556641" xlink:href="#d"/>
<use x="307.080078" xlink:href="#t"/>
</g>
</g>
<g clip-path="url(#a)">
<defs>
<path id="r" d="m18.312 70.219v-15.531h18.5v-6.9844h-18.5v-29.688q0-6.6875 1.8281-8.5938t7.4531-1.9062h9.2188v-7.5156h-9.2188q-10.406 0-14.359 3.875-3.9531 3.8906-3.9531 14.141v29.688h-6.5938v6.9844h6.5938v15.531z"/>
</defs>
<g transform="translate(443.55 816.39) scale(.1 -.1)">
<use xlink:href="#an"/>
<use x="81.787109" xlink:href="#f"/>
<use x="109.570312" xlink:href="#r"/>
<use x="148.779297" xlink:href="#q"/>
</g>
</g>
<g clip-path="url(#a)">
<g transform="translate(493.39 816.39) scale(.1 -.1)">
<use xlink:href="#q"/>
<use x="63.378906" xlink:href="#d"/>
<use x="124.902344" xlink:href="#h"/>
</g>
</g>
<g clip-path="url(#a)">
<g transform="translate(531.04 816.39) scale(.1 -.1)">
<use xlink:href="#k"/>
<use x="97.412109" xlink:href="#af"/>
<use x="158.59375" xlink:href="#r"/>
<use x="197.802734" xlink:href="#q"/>
<use x="261.181641" xlink:href="#d"/>
<use x="322.705078" xlink:href="#h"/>
</g>
</g>
<g clip-path="url(#a)">
<g transform="translate(587.35 816.39) scale(.1 -.1)">
<use xlink:href="#g"/>
<use x="61.279297" xlink:href="#i"/>
<use x="124.658203" xlink:href="#u"/>
</g>
</g>
<g clip-path="url(#a)">
<g transform="translate(632.75 816.39) scale(.1 -.1)">
<use xlink:href="#j"/>
<use x="27.783203" xlink:href="#g"/>
<use x="89.0625" xlink:href="#r"/>
<use x="128.271484" xlink:href="#d"/>
<use x="189.794922" xlink:href="#h"/>
</g>
</g>
<g clip-path="url(#a)">
<defs>
<path id="aw" d="m54.891 54.688-19.781-26.609 20.797-28.078h-10.594l-15.922 21.484-15.906-21.484h-10.609l21.25 28.609-19.438 26.078h10.594l14.5-19.484 14.5 19.484z"/>
<path id="ap" d="m18.109 8.2031v-29h-9.0312v75.484h9.0312v-8.2969q2.8438 4.875 7.1562 7.2344 4.3281 2.375 10.328 2.375 9.9688 0 16.188-7.9062 6.2344-7.9062 6.2344-20.797t-6.2344-20.812q-6.2188-7.9062-16.188-7.9062-6 0-10.328 2.375-4.3125 2.375-7.1562 7.25zm30.578 19.094q0 9.9062-4.0781 15.547t-11.203 5.6406q-7.1406 0-11.219-5.6406t-4.0781-15.547 4.0781-15.547 11.219-5.6406q7.125 0 11.203 5.6406t4.0781 15.547z"/>
</defs>
<g transform="translate(667.36 816.39) scale(.1 -.1)">
<use xlink:href="#d"/>
<use x="61.507812" xlink:href="#aw"/>
<use x="120.6875" xlink:href="#ap"/>
<use x="184.164062" xlink:href="#j"/>
<use x="211.947266" xlink:href="#g"/>
<use x="273.226562" xlink:href="#f"/>
<use x="301.009766" xlink:href="#i"/>
<use x="364.388672" xlink:href="#d"/>
<use x="425.912109" xlink:href="#u"/>
</g>
</g>
<g clip-path="url(#a)">
<g transform="translate(729.21 816.39) scale(.1 -.1)">
<use xlink:href="#r"/>
<use x="39.208984" xlink:href="#q"/>
<use x="102.587891" xlink:href="#g"/>
<use x="163.867188" xlink:href="#r"/>
</g>
</g>
<g clip-path="url(#a)">
<g transform="translate(777.78 816.39) scale(.1 -.1)">
<use xlink:href="#r"/>
<use x="39.208984" xlink:href="#q"/>
<use x="102.587891" xlink:href="#f"/>
<use x="130.371094" xlink:href="#t"/>
</g>
</g>
<g clip-path="url(#a)">
<g transform="translate(825.03 816.39) scale(.1 -.1)">
<use xlink:href="#q"/>
<use x="63.378906" xlink:href="#g"/>
<use x="124.658203" xlink:href="#u"/>
</g>
</g>
<g clip-path="url(#a)">
<g transform="translate(861.94 816.39) scale(.1 -.1)">
<use xlink:href="#f"/>
<use x="27.783203" xlink:href="#i"/>
<use x="91.162109" xlink:href="#t"/>
<use x="143.261719" xlink:href="#ap"/>
<use x="206.738281" xlink:href="#f"/>
<use x="234.521484" xlink:href="#h"/>
<use x="275.603516" xlink:href="#d"/>
<use x="337.126953" xlink:href="#u"/>
</g>
</g>
<g clip-path="url(#a)">
<g transform="translate(921.2 816.39) scale(.1 -.1)">
<use xlink:href="#q"/>
<use x="63.378906" xlink:href="#d"/>
<use x="124.902344" xlink:href="#h"/>
</g>
</g>
<g clip-path="url(#a)">
<g transform="translate(957.75 816.39) scale(.1 -.1)">
<use xlink:href="#f"/>
<use x="27.783203" xlink:href="#i"/>
<use x="91.162109" xlink:href="#r"/>
<use x="130.371094" xlink:href="#d"/>
<use x="191.894531" xlink:href="#h"/>
<use x="232.976562" xlink:href="#d"/>
<use x="294.5" xlink:href="#t"/>
<use x="346.599609" xlink:href="#r"/>
</g>
</g>
<g clip-path="url(#a)">
<g transform="translate(1020 816.39) scale(.1 -.1)">
<use xlink:href="#f"/>
<use x="27.783203" xlink:href="#i"/>
</g>
</g>
<g clip-path="url(#a)">
<g transform="translate(1056.6 816.39) scale(.1 -.1)">
<use xlink:href="#g"/>
<use x="61.279297" xlink:href="#ag"/>
<use x="116.259766" xlink:href="#r"/>
<use x="155.46875" xlink:href="#f"/>
<use x="183.251953" xlink:href="#i"/>
<use x="246.630859" xlink:href="#aq"/>
</g>
</g>
<g clip-path="url(#a)">
<defs>
<path id="au" d="m11.719 51.703h10.297v-12.391h-10.297zm0-39.297h10.297v-8.4062l-8-15.625h-6.2969l4 15.625z"/>
</defs>
<g transform="translate(1118 816.39) scale(.1 -.1)">
<use xlink:href="#au"/>
</g>
</g>
<g clip-path="url(#a)">
<g transform="translate(1158.3 816.39) scale(.1 -.1)">
<use xlink:href="#t"/>
<use x="52.099609" xlink:href="#q"/>
<use x="115.478516" xlink:href="#d"/>
</g>
</g>
<g clip-path="url(#a)">
<g transform="translate(1205.3 816.39) scale(.1 -.1)">
<use xlink:href="#q"/>
<use x="63.378906" xlink:href="#g"/>
<use x="124.658203" xlink:href="#u"/>
</g>
</g>
<g clip-path="url(#a)">
<g transform="translate(1254.1 816.39) scale(.1 -.1)">
<use xlink:href="#i"/>
<use x="63.378906" xlink:href="#af"/>
<use x="124.560547" xlink:href="#r"/>
</g>
</g>
<g clip-path="url(#a)">
<defs>
<path id="al" d="m48.688 27.297q0 9.9062-4.0781 15.547t-11.203 5.6406q-7.1406 0-11.219-5.6406t-4.0781-15.547 4.0781-15.547 11.219-5.6406q7.125 0 11.203 5.6406t4.0781 15.547zm-30.578 19.094q2.8438 4.875 7.1562 7.2344 4.3281 2.375 10.328 2.375 9.9688 0 16.188-7.9062 6.2344-7.9062 6.2344-20.797t-6.2344-20.812q-6.2188-7.9062-16.188-7.9062-6 0-10.328 2.375-4.3125 2.375-7.1562 7.25v-8.2031h-9.0312v75.984h9.0312z"/>
</defs>
<g transform="translate(1297.3 816.39) scale(.1 -.1)">
<use xlink:href="#al"/>
<use x="63.476562" xlink:href="#d"/>
<use x="125" xlink:href="#d"/>
<use x="186.523438" xlink:href="#i"/>
</g>
</g>
<g clip-path="url(#a)">
<defs>
<path id="ar" d="m37.109 75.984v-7.4844h-8.5938q-4.8281 0-6.7188-1.9531-1.875-1.9531-1.875-7.0312v-4.8281h14.797v-6.9844h-14.797v-47.703h-9.0312v47.703h-8.5938v6.9844h8.5938v3.8125q0 9.125 4.25 13.297 4.25 4.1875 13.469 4.1875z"/>
</defs>
<g transform="translate(1331.2 816.39) scale(.1 -.1)">
<use xlink:href="#f"/>
<use x="27.783203" xlink:href="#i"/>
<use x="91.162109" xlink:href="#ar"/>
<use x="126.367188" xlink:href="#j"/>
<use x="154.150391" xlink:href="#ao"/>
<use x="217.529297" xlink:href="#d"/>
<use x="279.052734" xlink:href="#i"/>
<use x="342.431641" xlink:href="#ag"/>
<use x="397.412109" xlink:href="#d"/>
<use x="458.935547" xlink:href="#u"/>
</g>
</g>
<g clip-path="url(#a)">
<g transform="translate(1398.7 816.39) scale(.1 -.1)">
<use xlink:href="#al"/>
<use x="63.476562" xlink:href="#am"/>
</g>
</g>
<g clip-path="url(#a)">
<g transform="translate(1444.1 816.39) scale(.1 -.1)">
<use xlink:href="#q"/>
<use x="63.378906" xlink:href="#d"/>
<use x="124.902344" xlink:href="#h"/>
</g>
</g>
<g clip-path="url(#a)">
<g transform="translate(1484.8 816.39) scale(.1 -.1)">
<use xlink:href="#ar"/>
<use x="35.205078" xlink:href="#g"/>
<use x="96.484375" xlink:href="#r"/>
<use x="135.693359" xlink:href="#q"/>
<use x="199.072266" xlink:href="#d"/>
<use x="260.595703" xlink:href="#h"/>
</g>
</g>
<g clip-path="url(#a)">
<defs>
<path id="e" d="m10.688 12.406h10.312v-12.406h-10.312z"/>
</defs>
<g transform="translate(1545.9 816.39) scale(.1 -.1)">
<use xlink:href="#e"/>
</g>
</g>
<g clip-path="url(#a)">
<defs>
<path id="c" d="m12.406 8.2969h16.109v55.625l-17.531-3.5156v8.9844l17.438 3.5156h9.8594v-64.609h16.109v-8.2969h-41.984z"/>
</defs>
<g transform="translate(603.81 42.461) scale(.1 -.1)">
<use xlink:href="#c"/>
<use x="63.623047" xlink:href="#e"/>
<use x="95.410156" xlink:href="#c"/>
</g>
</g>
<g clip-path="url(#a)">
<defs>
<path id="o" d="m19.188 8.2969h34.422v-8.2969h-46.281v8.2969q5.6094 5.8125 15.297 15.594 9.7031 9.7969 12.188 12.641 4.7344 5.3125 6.6094 9 1.8906 3.6875 1.8906 7.25 0 5.8125-4.0781 9.4688-4.0781 3.6719-10.625 3.6719-4.6406 0-9.7969-1.6094-5.1406-1.6094-11-4.8906v9.9688q5.9531 2.3906 11.125 3.6094 5.1875 1.2188 9.4844 1.2188 11.328 0 18.062-5.6719 6.7344-5.6562 6.7344-15.125 0-4.5-1.6875-8.5312-1.6719-4.0156-6.125-9.4844-1.2188-1.4219-7.7656-8.1875-6.5312-6.7656-18.453-18.922z"/>
</defs>
<g transform="translate(65.928 691.33) scale(.1 -.1)">
<use xlink:href="#c"/>
<use x="63.623047" xlink:href="#e"/>
<use x="95.410156" xlink:href="#o"/>
</g>
</g>
<g clip-path="url(#a)">
<defs>
<path id="n" d="m40.578 39.312q7.0781-1.5156 11.047-6.3125 3.9844-4.7812 3.9844-11.812 0-10.781-7.4219-16.703-7.4219-5.9062-21.094-5.9062-4.5781 0-9.4375 0.90625t-10.031 2.7188v9.5156q4.0938-2.3906 8.9688-3.6094 4.8906-1.2188 10.219-1.2188 9.2656 0 14.125 3.6562t4.8594 10.641q0 6.4531-4.5156 10.078-4.5156 3.6406-12.562 3.6406h-8.5v8.1094h8.8906q7.2656 0 11.125 2.9062t3.8594 8.375q0 5.6094-3.9844 8.6094-3.9688 3.0156-11.391 3.0156-4.0625 0-8.7031-0.89062-4.6406-0.875-10.203-2.7188v8.7812q5.625 1.5625 10.531 2.3438t9.25 0.78125q11.234 0 17.766-5.1094 6.5469-5.0938 6.5469-13.781 0-6.0625-3.4688-10.234t-9.8594-5.7812z"/>
</defs>
<g transform="translate(200.61 439.46) scale(.1 -.1)">
<use xlink:href="#c"/>
<use x="63.623047" xlink:href="#e"/>
<use x="95.410156" xlink:href="#n"/>
</g>
</g>
<g clip-path="url(#a)">
<defs>
<path id="x" d="m10.797 72.906h38.719v-8.3125h-29.688v-17.859q2.1406 0.73438 4.2812 1.0938 2.1562 0.35938 4.3125 0.35938 12.203 0 19.328-6.6875 7.1406-6.6875 7.1406-18.109 0-11.766-7.3281-18.297-7.3281-6.5156-20.656-6.5156-4.5938 0-9.3594 0.78125-4.75 0.78125-9.8281 2.3438v9.9219q4.3906-2.3906 9.0781-3.5625t9.9062-1.1719q8.4531 0 13.375 4.4375 4.9375 4.4375 4.9375 12.062 0 7.6094-4.9375 12.047-4.9219 4.4531-13.375 4.4531-3.9531 0-7.8906-0.875-3.9219-0.875-8.0156-2.7344z"/>
</defs>
<g transform="translate(360.64 439.46) scale(.1 -.1)">
<use xlink:href="#c"/>
<use x="63.623047" xlink:href="#e"/>
<use x="95.410156" xlink:href="#x"/>
</g>
</g>
<g clip-path="url(#a)">
<defs>
<path id="ab" d="m33.016 40.375q-6.6406 0-10.531-4.5469-3.875-4.5312-3.875-12.438 0-7.8594 3.875-12.438 3.8906-4.5625 10.531-4.5625t10.516 4.5625q3.875 4.5781 3.875 12.438 0 7.9062-3.875 12.438-3.875 4.5469-10.516 4.5469zm19.578 30.922v-8.9844q-3.7188 1.75-7.5 2.6719-3.7812 0.9375-7.5 0.9375-9.7656 0-14.922-6.5938-5.1406-6.5938-5.875-19.922 2.875 4.25 7.2188 6.5156 4.3594 2.2656 9.5781 2.2656 10.984 0 17.359-6.6719 6.375-6.6562 6.375-18.125 0-11.234-6.6406-18.031-6.6406-6.7812-17.672-6.7812-12.656 0-19.344 9.6875-6.6875 9.7031-6.6875 28.109 0 17.281 8.2031 27.562t22.016 10.281q3.7188 0 7.5-0.73438t7.8906-2.1875z"/>
</defs>
<g transform="translate(588.81 691.33) scale(.1 -.1)">
<use xlink:href="#c"/>
<use x="63.623047" xlink:href="#e"/>
<use x="95.410156" xlink:href="#ab"/>
</g>
</g>
<g clip-path="url(#a)">
<defs>
<path id="aa" d="m8.2031 72.906h46.875v-4.2031l-26.469-68.703h-10.297l24.906 64.594h-35.016z"/>
</defs>
<g transform="translate(607.03 178.02) scale(.1 -.1)">
<use xlink:href="#c"/>
<use x="63.623047" xlink:href="#e"/>
<use x="95.410156" xlink:href="#aa"/>
</g>
</g>
<g clip-path="url(#a)">
<defs>
<path id="z" d="m10.984 1.5156v8.9844q3.7188-1.7656 7.5156-2.6875 3.8125-0.92188 7.4844-0.92188 9.7656 0 14.906 6.5625 5.1562 6.5625 5.8906 19.953-2.8281-4.2031-7.1875-6.4531-4.3438-2.25-9.6094-2.25-10.938 0-17.312 6.6094-6.375 6.625-6.375 18.109 0 11.219 6.6406 18 6.6406 6.7969 17.672 6.7969 12.656 0 19.312-9.7031 6.6719-9.6875 6.6719-28.141 0-17.234-8.1875-27.516-8.1719-10.281-21.984-10.281-3.7188 0-7.5312 0.73438-3.7969 0.73438-7.9062 2.2031zm19.625 30.906q6.6406 0 10.516 4.5312 3.8906 4.5469 3.8906 12.469 0 7.8594-3.8906 12.422-3.875 4.5625-10.516 4.5625t-10.516-4.5625-3.875-12.422q0-7.9219 3.875-12.469 3.875-4.5312 10.516-4.5312z"/>
</defs>
<g transform="translate(1291.9 439.46) scale(.1 -.1)">
<use xlink:href="#c"/>
<use x="63.623047" xlink:href="#e"/>
<use x="95.410156" xlink:href="#z"/>
</g>
</g>
<g clip-path="url(#a)">
<g transform="translate(1156 691.33) scale(.1 -.1)">
<use xlink:href="#c"/>
<use x="63.623047" xlink:href="#e"/>
<use x="95.410156" xlink:href="#c"/>
<use x="159.033203" xlink:href="#c"/>
</g>
</g>
<g clip-path="url(#a)">
<g transform="translate(1282.8 566.26) scale(.1 -.1)">
<use xlink:href="#c"/>
<use x="63.623047" xlink:href="#e"/>
<use x="95.410156" xlink:href="#c"/>
<use x="159.033203" xlink:href="#o"/>
</g>
</g>
<g clip-path="url(#a)">
<g transform="translate(1251.1 691.33) scale(.1 -.1)">
<use xlink:href="#c"/>
<use x="63.623047" xlink:href="#e"/>
<use x="95.410156" xlink:href="#c"/>
<use x="159.033203" xlink:href="#n"/>
</g>
</g>
<g clip-path="url(#a)">
<defs>
<path id="p" d="m37.797 64.312-24.906-38.922h24.906zm-2.5938 8.5938h12.406v-47.516h10.406v-8.2031h-10.406v-17.188h-9.8125v17.188h-32.906v9.5156z"/>
</defs>
<g transform="translate(1465 566.26) scale(.1 -.1)">
<use xlink:href="#c"/>
<use x="63.623047" xlink:href="#e"/>
<use x="95.410156" xlink:href="#c"/>
<use x="159.033203" xlink:href="#p"/>
</g>
</g>
<g clip-path="url(#a)">
<g transform="translate(1393.7 691.33) scale(.1 -.1)">
<use xlink:href="#c"/>
<use x="63.623047" xlink:href="#e"/>
<use x="95.410156" xlink:href="#c"/>
<use x="159.033203" xlink:href="#x"/>
</g>
</g>
<g clip-path="url(#a)">
<g transform="translate(1441.3 691.33) scale(.1 -.1)">
<use xlink:href="#c"/>
<use x="63.623047" xlink:href="#e"/>
<use x="95.410156" xlink:href="#c"/>
<use x="159.033203" xlink:href="#ab"/>
</g>
</g>
<g clip-path="url(#a)">
<g transform="translate(1488.8 691.33) scale(.1 -.1)">
<use xlink:href="#c"/>
<use x="63.623047" xlink:href="#e"/>
<use x="95.410156" xlink:href="#c"/>
<use x="159.033203" xlink:href="#aa"/>
</g>
</g>
<g clip-path="url(#a)">
<defs>
<path id="ad" d="m31.781 34.625q-7.0312 0-11.062-3.7656-4.0156-3.7656-4.0156-10.344 0-6.5938 4.0156-10.359 4.0312-3.7656 11.062-3.7656t11.078 3.7812q4.0625 3.7969 4.0625 10.344 0 6.5781-4.0312 10.344-4.0156 3.7656-11.109 3.7656zm-9.8594 4.1875q-6.3438 1.5625-9.8906 5.9062-3.5312 4.3594-3.5312 10.609 0 8.7344 6.2188 13.812 6.2344 5.0781 17.062 5.0781 10.891 0 17.094-5.0781t6.2031-13.812q0-6.25-3.5469-10.609-3.5312-4.3438-9.8281-5.9062 7.125-1.6562 11.094-6.5 3.9844-4.8281 3.9844-11.797 0-10.609-6.4688-16.281-6.4688-5.6562-18.531-5.6562-12.047 0-18.531 5.6562-6.4688 5.6719-6.4688 16.281 0 6.9688 4 11.797 4.0156 4.8438 11.141 6.5zm-3.6094 15.578q0-5.6562 3.5312-8.8281 3.5469-3.1719 9.9375-3.1719 6.3594 0 9.9375 3.1719 3.5938 3.1719 3.5938 8.8281 0 5.6719-3.5938 8.8438-3.5781 3.1719-9.9375 3.1719-6.3906 0-9.9375-3.1719-3.5312-3.1719-3.5312-8.8438z"/>
</defs>
<g transform="translate(1203.6 691.33) scale(.1 -.1)">
<use xlink:href="#c"/>
<use x="63.623047" xlink:href="#e"/>
<use x="95.410156" xlink:href="#c"/>
<use x="159.033203" xlink:href="#ad"/>
</g>
</g>
<g clip-path="url(#a)">
<g transform="translate(1298.6 691.33) scale(.1 -.1)">
<use xlink:href="#c"/>
<use x="63.623047" xlink:href="#e"/>
<use x="95.410156" xlink:href="#c"/>
<use x="159.033203" xlink:href="#z"/>
</g>
</g>
<g clip-path="url(#a)">
<defs>
<path id="ae" d="m31.781 66.406q-7.6094 0-11.453-7.5-3.8281-7.4844-3.8281-22.531 0-14.984 3.8281-22.484 3.8438-7.5 11.453-7.5 7.6719 0 11.5 7.5 3.8438 7.5 3.8438 22.484 0 15.047-3.8438 22.531-3.8281 7.5-11.5 7.5zm0 7.8125q12.266 0 18.734-9.7031 6.4688-9.6875 6.4688-28.141 0-18.406-6.4688-28.109-6.4688-9.6875-18.734-9.6875-12.25 0-18.719 9.6875-6.4688 9.7031-6.4688 28.109 0 18.453 6.4688 28.141 6.4688 9.7031 18.719 9.7031z"/>
</defs>
<g transform="translate(1346.2 691.33) scale(.1 -.1)">
<use xlink:href="#c"/>
<use x="63.623047" xlink:href="#e"/>
<use x="95.410156" xlink:href="#o"/>
<use x="159.033203" xlink:href="#ae"/>
</g>
</g>
<g clip-path="url(#a)">
<g transform="translate(633.16 691.33) scale(.1 -.1)">
<use xlink:href="#c"/>
<use x="63.623047" xlink:href="#e"/>
<use x="95.410156" xlink:href="#o"/>
<use x="159.033203" xlink:href="#c"/>
</g>
</g>
<g clip-path="url(#a)">
<g transform="translate(680.7 691.33) scale(.1 -.1)">
<use xlink:href="#c"/>
<use x="63.623047" xlink:href="#e"/>
<use x="95.410156" xlink:href="#o"/>
<use x="159.033203" xlink:href="#o"/>
</g>
</g>
<g clip-path="url(#a)">
<g transform="translate(848.65 310.21) scale(.1 -.1)">
<use xlink:href="#c"/>
<use x="63.623047" xlink:href="#e"/>
<use x="95.410156" xlink:href="#o"/>
<use x="159.033203" xlink:href="#n"/>
</g>
</g>
<g clip-path="url(#a)">
<g transform="translate(728.23 691.33) scale(.1 -.1)">
<use xlink:href="#c"/>
<use x="63.623047" xlink:href="#e"/>
<use x="95.410156" xlink:href="#o"/>
<use x="159.033203" xlink:href="#p"/>
</g>
</g>
<g clip-path="url(#a)">
<g transform="translate(775.77 691.33) scale(.1 -.1)">
<use xlink:href="#c"/>
<use x="63.623047" xlink:href="#e"/>
<use x="95.410156" xlink:href="#o"/>
<use x="159.033203" xlink:href="#x"/>
</g>
</g>
<g clip-path="url(#a)">
<g transform="translate(847.07 566.26) scale(.1 -.1)">
<use xlink:href="#c"/>
<use x="63.623047" xlink:href="#e"/>
<use x="95.410156" xlink:href="#o"/>
<use x="159.033203" xlink:href="#ab"/>
</g>
</g>
<g clip-path="url(#a)">
<g transform="translate(918.37 691.33) scale(.1 -.1)">
<use xlink:href="#c"/>
<use x="63.623047" xlink:href="#e"/>
<use x="95.410156" xlink:href="#o"/>
<use x="159.033203" xlink:href="#aa"/>
</g>
</g>
<g clip-path="url(#a)">
<g transform="translate(973.83 439.46) scale(.1 -.1)">
<use xlink:href="#c"/>
<use x="63.623047" xlink:href="#e"/>
<use x="95.410156" xlink:href="#o"/>
<use x="159.033203" xlink:href="#ad"/>
</g>
</g>
<g clip-path="url(#a)">
<g transform="translate(965.91 691.33) scale(.1 -.1)">
<use xlink:href="#c"/>
<use x="63.623047" xlink:href="#e"/>
<use x="95.410156" xlink:href="#o"/>
<use x="159.033203" xlink:href="#z"/>
</g>
</g>
<g clip-path="url(#a)">
<g transform="translate(1037.2 566.26) scale(.1 -.1)">
<use xlink:href="#c"/>
<use x="63.623047" xlink:href="#e"/>
<use x="95.410156" xlink:href="#n"/>
<use x="159.033203" xlink:href="#ae"/>
</g>
</g>
<g clip-path="url(#a)">
<g transform="translate(1013.4 691.33) scale(.1 -.1)">
<use xlink:href="#c"/>
<use x="63.623047" xlink:href="#e"/>
<use x="95.410156" xlink:href="#n"/>
<use x="159.033203" xlink:href="#c"/>
</g>
</g>
<g clip-path="url(#a)">
<g transform="translate(1061 691.33) scale(.1 -.1)">
<use xlink:href="#c"/>
<use x="63.623047" xlink:href="#e"/>
<use x="95.410156" xlink:href="#n"/>
<use x="159.033203" xlink:href="#o"/>
</g>
</g>
<g clip-path="url(#a)">
<g transform="translate(823.3 691.33) scale(.1 -.1)">
<use xlink:href="#c"/>
<use x="63.623047" xlink:href="#e"/>
<use x="95.410156" xlink:href="#n"/>
<use x="159.033203" xlink:href="#n"/>
</g>
</g>
<g clip-path="url(#a)">
<g transform="translate(870.84 691.33) scale(.1 -.1)">
<use xlink:href="#c"/>
<use x="63.623047" xlink:href="#e"/>
<use x="95.410156" xlink:href="#n"/>
<use x="159.033203" xlink:href="#p"/>
</g>
</g>
<g clip-path="url(#a)">
<g transform="translate(252.89 691.33) scale(.1 -.1)">
<use xlink:href="#c"/>
<use x="63.623047" xlink:href="#e"/>
<use x="95.410156" xlink:href="#n"/>
<use x="159.033203" xlink:href="#x"/>
</g>
</g>
<g clip-path="url(#a)">
<g transform="translate(300.42 691.33) scale(.1 -.1)">
<use xlink:href="#c"/>
<use x="63.623047" xlink:href="#e"/>
<use x="95.410156" xlink:href="#n"/>
<use x="159.033203" xlink:href="#ab"/>
</g>
</g>
<g clip-path="url(#a)">
<g transform="translate(347.95 691.33) scale(.1 -.1)">
<use xlink:href="#c"/>
<use x="63.623047" xlink:href="#e"/>
<use x="95.410156" xlink:href="#n"/>
<use x="159.033203" xlink:href="#aa"/>
</g>
</g>
<g clip-path="url(#a)">
<g transform="translate(395.49 691.33) scale(.1 -.1)">
<use xlink:href="#c"/>
<use x="63.623047" xlink:href="#e"/>
<use x="95.410156" xlink:href="#n"/>
<use x="159.033203" xlink:href="#ad"/>
</g>
</g>
<g clip-path="url(#a)">
<g transform="translate(490.56 566.26) scale(.1 -.1)">
<use xlink:href="#c"/>
<use x="63.623047" xlink:href="#e"/>
<use x="95.410156" xlink:href="#n"/>
<use x="159.033203" xlink:href="#z"/>
</g>
</g>
<g clip-path="url(#a)">
<g transform="translate(443.02 691.33) scale(.1 -.1)">
<use xlink:href="#c"/>
<use x="63.623047" xlink:href="#e"/>
<use x="95.410156" xlink:href="#p"/>
<use x="159.033203" xlink:href="#ae"/>
</g>
</g>
<g clip-path="url(#a)">
<g transform="translate(490.56 691.33) scale(.1 -.1)">
<use xlink:href="#c"/>
<use x="63.623047" xlink:href="#e"/>
<use x="95.410156" xlink:href="#p"/>
<use x="159.033203" xlink:href="#c"/>
</g>
</g>
<g clip-path="url(#a)">
<g transform="translate(538.09 691.33) scale(.1 -.1)">
<use xlink:href="#c"/>
<use x="63.623047" xlink:href="#e"/>
<use x="95.410156" xlink:href="#p"/>
<use x="159.033203" xlink:href="#o"/>
</g>
</g>
<g clip-path="url(#a)">
<g transform="translate(134.05 566.26) scale(.1 -.1)">
<use xlink:href="#c"/>
<use x="63.623047" xlink:href="#e"/>
<use x="95.410156" xlink:href="#p"/>
<use x="159.033203" xlink:href="#n"/>
</g>
</g>
<g clip-path="url(#a)">
<g transform="translate(110.28 691.33) scale(.1 -.1)">
<use xlink:href="#c"/>
<use x="63.623047" xlink:href="#e"/>
<use x="95.410156" xlink:href="#p"/>
<use x="159.033203" xlink:href="#p"/>
</g>
</g>
<g clip-path="url(#a)">
<g transform="translate(157.82 691.33) scale(.1 -.1)">
<use xlink:href="#c"/>
<use x="63.623047" xlink:href="#e"/>
<use x="95.410156" xlink:href="#p"/>
<use x="159.033203" xlink:href="#x"/>
</g>
</g>
<g clip-path="url(#a)">
<g transform="translate(515.65 42.461) scale(.1 -.1)">
<use xlink:href="#c"/>
<use x="63.623047" xlink:href="#e"/>
<use x="95.410156" xlink:href="#p"/>
<use x="159.033203" xlink:href="#ab"/>
</g>
</g>
<g clip-path="url(#a)">
<g transform="translate(205.88 310.21) scale(.1 -.1)">
<use xlink:href="#c"/>
<use x="63.623047" xlink:href="#e"/>
<use x="95.410156" xlink:href="#p"/>
<use x="159.033203" xlink:href="#aa"/>
</g>
</g>
<g clip-path="url(#a)">
<g transform="translate(205.35 691.33) scale(.1 -.1)">
<use xlink:href="#c"/>
<use x="63.623047" xlink:href="#e"/>
<use x="95.410156" xlink:href="#p"/>
<use x="159.033203" xlink:href="#ad"/>
</g>
</g>
<g clip-path="url(#a)">
<g transform="translate(1108.5 691.33) scale(.1 -.1)">
<use xlink:href="#c"/>
<use x="63.623047" xlink:href="#e"/>
<use x="95.410156" xlink:href="#p"/>
<use x="159.033203" xlink:href="#z"/>
</g>
</g>
<g clip-path="url(#a)">
<g transform="translate(1536.3 691.33) scale(.1 -.1)">
<use xlink:href="#c"/>
<use x="63.623047" xlink:href="#e"/>
<use x="95.410156" xlink:href="#x"/>
<use x="159.033203" xlink:href="#ae"/>
</g>
</g>
<defs>
<clipPath id="a">
<rect width="1621.3" height="853.33"/>
</clipPath>
</defs>
</svg>
