<?xml version="1.0" encoding="UTF-8"?>
<!DOCTYPE svg  PUBLIC '-//W3C//DTD SVG 1.1//EN'  'http://www.w3.org/Graphics/SVG/1.1/DTD/svg11.dtd'>
<svg width="1621.3pt" height="853.33pt" version="1.1" viewBox="0 0 1621.3 853.33" xmlns="http://www.w3.org/2000/svg" xmlns:xlink="http://www.w3.org/1999/xlink">
<defs>
<style type="text/css">*{stroke-linecap:butt;stroke-linejoin:round;white-space:pre;}</style>
</defs>
<path d="m0 853.33h1621.3v-853.33h-1621.3z" fill="#fff"/>
<g fill="none" stroke="#000">
<path d="m831.66 39.458v105.1" clip-path="url(#a)"/>
<path d="m831.66 144.56-662.46 102.09" clip-path="url(#a)"/>
<path d="m831.66 144.56-44.76 577.65" clip-path="url(#a)"/>
<path d="m831.66 144.56 2.7749 577.65" clip-path="url(#a)"/>
<path d="m831.66 144.56 50.31 577.65" clip-path="url(#a)"/>
<path d="m831.66 144.56 97.844 577.65" clip-path="url(#a)"/>
<path d="m831.66 144.56 216.68 485.99" clip-path="url(#a)"/>
<path d="m831.66 144.56 431.91 298.33" clip-path="url(#a)"/>
<path d="m831.66 144.56-92.294 577.65" clip-path="url(#a)"/>
<path d="m169.2 246.65-95.317 475.56" clip-path="url(#a)"/>
<path d="m169.2 246.65-47.782 475.56" clip-path="url(#a)"/>
<path d="m169.2 246.65 143.1 99.351" clip-path="url(#a)"/>
<path d="m786.9 722.21v91.662" clip-path="url(#a)"/>
<path d="m834.43 722.21v91.662" clip-path="url(#a)"/>
<path d="m881.97 722.21v91.662" clip-path="url(#a)"/>
<path d="m929.5 722.21v91.662" clip-path="url(#a)"/>
<path d="m1048.3 630.55-71.302 91.662" clip-path="url(#a)"/>
<path d="m1048.3 630.55-23.767 91.662" clip-path="url(#a)"/>
<path d="m1048.3 630.55 23.767 91.662" clip-path="url(#a)"/>
<path d="m1048.3 630.55 71.302 91.662" clip-path="url(#a)"/>
<path d="m1263.6 442.89-96.39 279.32" clip-path="url(#a)"/>
<path d="m1263.6 442.89-48.855 279.32" clip-path="url(#a)"/>
<path d="m1263.6 442.89 145.24 94.726" clip-path="url(#a)"/>
<path d="m1167.2 722.21v91.662" clip-path="url(#a)"/>
<path d="m1214.7 722.21v91.662" clip-path="url(#a)"/>
<path d="m1408.8 537.62-146.57 184.6" clip-path="url(#a)"/>
<path d="m1408.8 537.62-99.03 184.6" clip-path="url(#a)"/>
<path d="m1408.8 537.62-27.729 92.937" clip-path="url(#a)"/>
<path d="m1408.8 537.62 43.573 184.6" clip-path="url(#a)"/>
<path d="m1408.8 537.62 91.108 184.6" clip-path="url(#a)"/>
<path d="m1408.8 537.62 138.64 184.6" clip-path="url(#a)"/>
<path d="m1262.2 722.21v91.662" clip-path="url(#a)"/>
<path d="m1309.8 722.21v91.662" clip-path="url(#a)"/>
<path d="m1381.1 630.55-23.767 91.662" clip-path="url(#a)"/>
<path d="m1381.1 630.55 23.767 91.662" clip-path="url(#a)"/>
<path d="m1452.4 722.21v91.662" clip-path="url(#a)"/>
<path d="m1499.9 722.21v91.662" clip-path="url(#a)"/>
<path d="m1357.3 722.21v91.662" clip-path="url(#a)"/>
<path d="m1404.8 722.21v91.662" clip-path="url(#a)"/>
<path d="m977.04 722.21v91.662" clip-path="url(#a)"/>
<path d="m1024.6 722.21v91.662" clip-path="url(#a)"/>
<path d="m1072.1 722.21v91.662" clip-path="url(#a)"/>
<path d="m1119.6 722.21v91.662" clip-path="url(#a)"/>
<path d="m73.88 722.21v91.662" clip-path="url(#a)"/>
<path d="m121.41 722.21v91.662" clip-path="url(#a)"/>
<path d="m312.3 346.01-143.35 376.21" clip-path="url(#a)"/>
<path d="m312.3 346.01-72.045 376.21" clip-path="url(#a)"/>
<path d="m312.3 346.01 216.13 96.885" clip-path="url(#a)"/>
<path d="m312.3 346.01-0.74273 376.21" clip-path="url(#a)"/>
<path d="m168.95 722.21v91.662" clip-path="url(#a)"/>
<path d="m240.25 722.21-23.767 91.662" clip-path="url(#a)"/>
<path d="m240.25 722.21 23.767 91.662" clip-path="url(#a)"/>
<path d="m528.43 442.89-169.34 279.32" clip-path="url(#a)"/>
<path d="m528.43 442.89-74.273 187.66" clip-path="url(#a)"/>
<path d="m528.43 442.89 80.215 94.726" clip-path="url(#a)"/>
<path d="m528.43 442.89 163.4 279.32" clip-path="url(#a)"/>
<path d="m359.09 722.21v91.662" clip-path="url(#a)"/>
<path d="m454.16 630.55-47.535 91.662" clip-path="url(#a)"/>
<path d="m454.16 630.55v91.662" clip-path="url(#a)"/>
<path d="m454.16 630.55 47.535 91.662" clip-path="url(#a)"/>
<path d="m608.64 537.62-35.651 92.937" clip-path="url(#a)"/>
<path d="m608.64 537.62 35.651 184.6" clip-path="url(#a)"/>
<path d="m691.83 722.21v91.662" clip-path="url(#a)"/>
<path d="m572.99 630.55-23.767 91.662" clip-path="url(#a)"/>
<path d="m572.99 630.55 23.767 91.662" clip-path="url(#a)"/>
<path d="m644.3 722.21v91.662" clip-path="url(#a)"/>
<path d="m549.23 722.21v91.662" clip-path="url(#a)"/>
<path d="m596.76 722.21v91.662" clip-path="url(#a)"/>
<path d="m406.62 722.21v91.662" clip-path="url(#a)"/>
<path d="m454.16 722.21v91.662" clip-path="url(#a)"/>
<path d="m501.69 722.21v91.662" clip-path="url(#a)"/>
<path d="m311.55 722.21v91.662" clip-path="url(#a)"/>
<path d="m739.36 722.21v91.662" clip-path="url(#a)"/>
<path d="m1547.5 722.21v91.662" clip-path="url(#a)"/>
</g>
<path d="m825.39 89v6.0162q0 2.4 2.4 2.4h7.7425q2.4 0 2.4-2.4v-6.0162q0-2.4-2.4-2.4h-7.7425q-2.4 0-2.4 2.4z" clip-path="url(#a)" fill="#fff" stroke="#fff"/>
<g clip-path="url(#a)">
<defs>
<path id="ar" d="m9.8125 72.906h9.8594v-29.891h35.844v29.891h9.8594v-72.906h-9.8594v34.719h-35.844v-34.719h-9.8594z"/>
</defs>
<g transform="translate(829.45 89) rotate(90) scale(.08 -.08)">
<use xlink:href="#ar"/>
</g>
</g>
<path d="m498.68 202.22 5.4086-0.83355q2.372-0.36556 2.0064-2.7376l-1.1793-7.6522q-0.36556-2.372-2.7376-2.0064l-5.4086 0.83355q-2.372 0.36556-2.0064 2.7376l1.1793 7.6522q0.36556 2.372 2.7376 2.0064z" clip-path="url(#a)" fill="#fff" stroke="#fff"/>
<g clip-path="url(#a)">
<defs>
<path id="ah" d="m34.188 63.188-13.391-36.281h26.812zm-5.5781 9.7188h11.188l27.781-72.906h-10.25l-6.6406 18.703h-32.859l-6.6406-18.703h-10.406z"/>
</defs>
<g transform="translate(498.06 198.21) rotate(-8.7612) scale(.08 -.08)">
<use xlink:href="#ah"/>
</g>
</g>
<path d="m815.29 436.94 0.47588-6.1416q0.18541-2.3928-2.2074-2.5782l-7.7194-0.59814q-2.3928-0.18541-2.5782 2.2074l-0.47588 6.1416q-0.18541 2.3928 2.2074 2.5782l7.7194 0.59814q2.3928 0.18541 2.5782-2.2074z" clip-path="url(#a)" fill="#fff" stroke="#fff"/>
<g clip-path="url(#a)">
<defs>
<path id="ak" d="m19.672 64.797v-56.688h11.922q15.094 0 22.094 6.8281 7 6.8438 7 21.594 0 14.641-7 21.453t-22.094 6.8125zm-9.8594 8.1094h20.266q21.188 0 31.094-8.8125 9.9219-8.8125 9.9219-27.562 0-18.859-9.9688-27.703-9.9531-8.8281-31.047-8.8281h-20.266z"/>
</defs>
<g transform="translate(811.24 436.63) rotate(-85.569) scale(.08 -.08)">
<use xlink:href="#ak"/>
</g>
</g>
<path d="m826.76 430.68 0.026289 5.4724q0.011528 2.4 2.4115 2.3884l7.7424-0.037193q2.4-0.011529 2.3884-2.4115l-0.026288-5.4724q-0.011529-2.4-2.4115-2.3884l-7.7424 0.037193q-2.4 0.011529-2.3884 2.4115z" clip-path="url(#a)" fill="#fff" stroke="#fff"/>
<g clip-path="url(#a)">
<g transform="translate(830.83 430.66) rotate(89.725) scale(.08 -.08)">
<use xlink:href="#ah"/>
</g>
</g>
<path d="m850.37 431.64 0.39922 4.5839q0.20823 2.391 2.5992 2.1827l7.7133-0.67177q2.3909-0.20823 2.1827-2.5992l-0.39922-4.5839q-0.20823-2.3909-2.5992-2.1827l-7.7133 0.67177q-2.3909 0.20823-2.1827 2.5992z" clip-path="url(#a)" fill="#fff" stroke="#fff"/>
<g clip-path="url(#a)">
<defs>
<path id="as" d="m9.8125 72.906h41.891v-8.3125h-32.031v-21.484h28.906v-8.2969h-28.906v-34.812h-9.8594z"/>
</defs>
<g transform="translate(854.42 431.29) rotate(85.023) scale(.08 -.08)">
<use xlink:href="#as"/>
</g>
</g>
<path d="m874 432.06 0.80558 4.756q0.40081 2.3663 2.7671 1.9655l7.6338-1.293q2.3663-0.40081 1.9655-2.7671l-0.80558-4.756q-0.40081-2.3663-2.7671-1.9655l-7.6338 1.293q-2.3663 0.40081-1.9655 2.7671z" clip-path="url(#a)" fill="#fff" stroke="#fff"/>
<g clip-path="url(#a)">
<defs>
<path id="ap" d="m19.672 64.797v-27.391h12.406q6.8906 0 10.641 3.5625 3.7656 3.5625 3.7656 10.156 0 6.5469-3.7656 10.109-3.75 3.5625-10.641 3.5625zm-9.8594 8.1094h22.266q12.266 0 18.531-5.5469 6.2812-5.5469 6.2812-16.234 0-10.797-6.2812-16.312-6.2656-5.5156-18.531-5.5156h-12.406v-29.297h-9.8594z"/>
</defs>
<g transform="translate(878 431.38) rotate(80.386) scale(.08 -.08)">
<use xlink:href="#ap"/>
</g>
</g>
<path d="m933.16 387.61 2.2285 4.9982q0.97731 2.192 3.1693 1.2147l7.0715-3.1528q2.192-0.97731 1.2147-3.1693l-2.2285-4.9982q-0.97731-2.192-3.1693-1.2147l-7.0715 3.1528q-2.192 0.97731-1.2147 3.1693z" clip-path="url(#a)" fill="#fff" stroke="#fff"/>
<g clip-path="url(#a)">
<g transform="translate(936.87 385.96) rotate(65.97) scale(.08 -.08)">
<use xlink:href="#ah"/>
</g>
</g>
<path d="m1041.5 297.13 5.0684 3.5009q1.9747 1.364 3.3387-0.61073l4.4003-6.3705q1.364-1.9747-0.61073-3.3387l-5.0684-3.5009q-1.9747-1.364-3.3387 0.61073l-4.4003 6.3705q-1.364 1.9747 0.61073 3.3387z" clip-path="url(#a)" fill="#fff" stroke="#fff"/>
<g clip-path="url(#a)">
<g transform="translate(1043.8 293.79) rotate(34.634) scale(.08 -.08)">
<use xlink:href="#ak"/>
</g>
</g>
<path d="m791.24 437.27 0.92376-5.7817q0.37866-2.3699-1.9913-2.7486l-7.6455-1.2216q-2.3699-0.37866-2.7486 1.9913l-0.92376 5.7817q-0.37866 2.3699 1.9913 2.7486l7.6455 1.2216q2.3699 0.37866 2.7486-1.9913z" clip-path="url(#a)" fill="#fff" stroke="#fff"/>
<g clip-path="url(#a)">
<defs>
<path id="ag" d="m8.6875 72.906h9.9219v-44.297q0-11.719 4.2344-16.875 4.25-5.1406 13.781-5.1406 9.4688 0 13.719 5.1406 4.25 5.1562 4.25 16.875v44.297h9.9062v-45.516q0-14.25-7.0625-21.531-7.0469-7.2812-20.812-7.2812-13.828 0-20.891 7.2812-7.0469 7.2812-7.0469 21.531z"/>
</defs>
<g transform="translate(787.23 436.63) rotate(-80.922) scale(.08 -.08)">
<use xlink:href="#ag"/>
</g>
</g>
<path d="m127.19 488.14 0.99342-4.9564q0.47165-2.3532-1.8815-2.8249l-7.5915-1.5216q-2.3532-0.47165-2.8249 1.8815l-0.99342 4.9564q-0.47165 2.3532 1.8815 2.8249l7.5915 1.5216q2.3532 0.47165 2.8249-1.8815z" clip-path="url(#a)" fill="#fff" stroke="#fff"/>
<g clip-path="url(#a)">
<defs>
<path id="m" d="m9.8125 72.906h46.094v-8.3125h-36.234v-21.578h34.719v-8.2969h-34.719v-26.422h37.109v-8.2969h-46.969z"/>
</defs>
<g transform="translate(123.21 487.35) rotate(-78.666) scale(.08 -.08)">
<use xlink:href="#m"/>
</g>
</g>
<path d="m151.27 487.84 0.55847-5.5583q0.23993-2.388-2.148-2.6279l-7.7037-0.77404q-2.388-0.23993-2.6279 2.148l-0.55847 5.5583q-0.23993 2.388 2.148 2.6279l7.7037 0.77404q2.388 0.23993 2.6279-2.148z" clip-path="url(#a)" fill="#fff" stroke="#fff"/>
<g clip-path="url(#a)">
<defs>
<path id="p" d="m64.406 67.281v-10.391q-4.9844 4.6406-10.625 6.9219-5.6406 2.2969-11.984 2.2969-12.5 0-19.141-7.6406t-6.6406-22.094q0-14.406 6.6406-22.047t19.141-7.6406q6.3438 0 11.984 2.2969t10.625 6.9375v-10.312q-5.1719-3.5156-10.969-5.2812-5.7812-1.75-12.219-1.75-16.562 0-26.094 10.125-9.5156 10.141-9.5156 27.672 0 17.578 9.5156 27.703 9.5312 10.141 26.094 10.141 6.5312 0 12.312-1.7344 5.7969-1.7344 10.875-5.2031z"/>
</defs>
<g transform="translate(147.22 487.43) rotate(-84.262) scale(.08 -.08)">
<use xlink:href="#p"/>
</g>
</g>
<path d="m235.09 300.04 4.1523 2.8829q1.9714 1.3687 3.3402-0.60271l4.4156-6.3599q1.3687-1.9714-0.60271-3.3402l-4.1523-2.8829q-1.9714-1.3687-3.3402 0.60271l-4.4156 6.3599q-1.3687 1.9714 0.60271 3.3402z" clip-path="url(#a)" fill="#fff" stroke="#fff"/>
<g clip-path="url(#a)">
<g transform="translate(237.41 296.7) rotate(34.771) scale(.08 -.08)">
<use xlink:href="#m"/>
</g>
</g>
<path d="m780.63 750.4v35.285q0 2.4 2.4 2.4h7.7425q2.4 0 2.4-2.4v-35.285q0-2.4-2.4-2.4h-7.7425q-2.4 0-2.4 2.4z" clip-path="url(#a)" fill="#fff" stroke="#fff"/>
<g clip-path="url(#a)">
<defs>
<path id="l" d="m-0.29688 72.906h61.672v-8.3125h-25.875v-64.594h-9.9062v64.594h-25.891z"/>
<path id="d" d="m56.203 29.594v-4.3906h-41.312q0.59375-9.2812 5.5938-14.141t13.938-4.8594q5.1719 0 10.031 1.2656t9.6562 3.8125v-8.5q-4.8438-2.0469-9.9219-3.125t-10.297-1.0781q-13.094 0-20.734 7.6094-7.6406 7.625-7.6406 20.625 0 13.422 7.25 21.297 7.25 7.8906 19.562 7.8906 11.031 0 17.453-7.1094 6.4219-7.0938 6.4219-19.297zm-8.9844 2.6406q-0.09375 7.3594-4.125 11.75-4.0312 4.4062-10.672 4.4062-7.5156 0-12.031-4.25t-5.2031-11.969z"/>
<path id="g" d="m41.109 46.297q-1.5156 0.875-3.2969 1.2812-1.7812 0.42188-3.9219 0.42188-7.625 0-11.703-4.9531t-4.0781-14.234v-28.812h-9.0312v54.688h9.0312v-8.5q2.8438 4.9844 7.375 7.3906 4.5469 2.4219 11.047 2.4219 0.92188 0 2.0469-0.125 1.125-0.10938 2.4844-0.35938z"/>
<path id="k" d="m52 44.188q3.375 6.0625 8.0625 8.9375t11.031 2.875q8.5469 0 13.188-5.9844 4.6406-5.9688 4.6406-17v-33.016h-9.0312v32.719q0 7.8594-2.7969 11.656-2.7812 3.8125-8.4844 3.8125-6.9844 0-11.047-4.6406-4.0469-4.625-4.0469-12.641v-30.906h-9.0312v32.719q0 7.9062-2.7812 11.688t-8.5938 3.7812q-6.8906 0-10.953-4.6562-4.0469-4.6562-4.0469-12.625v-30.906h-9.0312v54.688h9.0312v-8.5q3.0781 5.0312 7.375 7.4219t10.203 2.3906q5.9688 0 10.141-3.0312 4.1719-3.0156 6.1719-8.7812z"/>
<path id="i" d="m9.4219 54.688h8.9844v-54.688h-8.9844zm0 21.297h8.9844v-11.391h-8.9844z"/>
<path id="j" d="m54.891 33.016v-33.016h-8.9844v32.719q0 7.7656-3.0312 11.609-3.0312 3.8594-9.0781 3.8594-7.2812 0-11.484-4.6406-4.2031-4.625-4.2031-12.641v-30.906h-9.0312v54.688h9.0312v-8.5q3.2344 4.9375 7.5938 7.375 4.375 2.4375 10.094 2.4375 9.4219 0 14.25-5.8281 4.8438-5.8281 4.8438-17.156z"/>
<path id="e" d="m34.281 27.484q-10.891 0-15.094-2.4844t-4.2031-8.5q0-4.7812 3.1562-7.5938 3.1562-2.7969 8.5625-2.7969 7.4844 0 12 5.2969t4.5156 14.078v2zm17.922 3.7188v-31.203h-8.9844v8.2969q-3.0781-4.9688-7.6719-7.3438t-11.234-2.375q-8.3906 0-13.359 4.7188-4.9531 4.7188-4.9531 12.625 0 9.2188 6.1719 13.906 6.1875 4.6875 18.438 4.6875h12.609v0.89062q0 6.2031-4.0781 9.5938t-11.453 3.3906q-4.6875 0-9.1406-1.125-4.4375-1.125-8.5312-3.375v8.3125q4.9219 1.9062 9.5625 2.8438 4.6406 0.95312 9.0312 0.95312 11.875 0 17.734-6.1562 5.8594-6.1406 5.8594-18.641z"/>
<path id="h" d="m9.4219 75.984h8.9844v-75.984h-8.9844z"/>
</defs>
<g transform="translate(784.69 750.4) rotate(90) scale(.08 -.08)">
<use xlink:href="#l"/>
<use x="60.818359" xlink:href="#d"/>
<use x="122.341797" xlink:href="#g"/>
<use x="163.439453" xlink:href="#k"/>
<use x="260.851562" xlink:href="#i"/>
<use x="288.634766" xlink:href="#j"/>
<use x="352.013672" xlink:href="#e"/>
<use x="413.292969" xlink:href="#h"/>
</g>
</g>
<path d="m828.16 750.4v35.285q0 2.4 2.4 2.4h7.7425q2.4 0 2.4-2.4v-35.285q0-2.4-2.4-2.4h-7.7425q-2.4 0-2.4 2.4z" clip-path="url(#a)" fill="#fff" stroke="#fff"/>
<g clip-path="url(#a)">
<g transform="translate(832.23 750.4) rotate(90) scale(.08 -.08)">
<use xlink:href="#l"/>
<use x="60.818359" xlink:href="#d"/>
<use x="122.341797" xlink:href="#g"/>
<use x="163.439453" xlink:href="#k"/>
<use x="260.851562" xlink:href="#i"/>
<use x="288.634766" xlink:href="#j"/>
<use x="352.013672" xlink:href="#e"/>
<use x="413.292969" xlink:href="#h"/>
</g>
</g>
<path d="m875.7 750.4v35.285q0 2.4 2.4 2.4h7.7425q2.4 0 2.4-2.4v-35.285q0-2.4-2.4-2.4h-7.7425q-2.4 0-2.4 2.4z" clip-path="url(#a)" fill="#fff" stroke="#fff"/>
<g clip-path="url(#a)">
<g transform="translate(879.76 750.4) rotate(90) scale(.08 -.08)">
<use xlink:href="#l"/>
<use x="60.818359" xlink:href="#d"/>
<use x="122.341797" xlink:href="#g"/>
<use x="163.439453" xlink:href="#k"/>
<use x="260.851562" xlink:href="#i"/>
<use x="288.634766" xlink:href="#j"/>
<use x="352.013672" xlink:href="#e"/>
<use x="413.292969" xlink:href="#h"/>
</g>
</g>
<path d="m923.23 750.4v35.285q0 2.4 2.4 2.4h7.7425q2.4 0 2.4-2.4v-35.285q0-2.4-2.4-2.4h-7.7425q-2.4 0-2.4 2.4z" clip-path="url(#a)" fill="#fff" stroke="#fff"/>
<g clip-path="url(#a)">
<g transform="translate(927.3 750.4) rotate(90) scale(.08 -.08)">
<use xlink:href="#l"/>
<use x="60.818359" xlink:href="#d"/>
<use x="122.341797" xlink:href="#g"/>
<use x="163.439453" xlink:href="#k"/>
<use x="260.851562" xlink:href="#i"/>
<use x="288.634766" xlink:href="#j"/>
<use x="352.013672" xlink:href="#e"/>
<use x="413.292969" xlink:href="#h"/>
</g>
</g>
<path d="m1016.1 682.23 3.1037-3.99q1.4736-1.8943-0.42077-3.3679l-6.1112-4.7538q-1.8943-1.4736-3.3679 0.42077l-3.1037 3.99q-1.4736 1.8943 0.42077 3.3679l6.1112 4.7538q1.8943 1.4736 3.3679-0.42077z" clip-path="url(#a)" fill="#fff" stroke="#fff"/>
<g clip-path="url(#a)">
<g transform="translate(1012.9 679.73) rotate(-52.121) scale(.08 -.08)">
<use xlink:href="#m"/>
</g>
</g>
<path d="m1041.9 680.4 1.2688-4.8932q0.60239-2.3232-1.7208-2.9256l-7.4947-1.9433q-2.3232-0.60238-2.9256 1.7208l-1.2688 4.8932q-0.60238 2.3232 1.7208 2.9256l7.4947 1.9433q2.3232 0.60238 2.9256-1.7208z" clip-path="url(#a)" fill="#fff" stroke="#fff"/>
<g clip-path="url(#a)">
<g transform="translate(1038 679.38) rotate(-75.464) scale(.08 -.08)">
<use xlink:href="#m"/>
</g>
</g>
<path d="m1053.5 675.51 1.2688 4.8932q0.60238 2.3232 2.9256 1.7208l7.4947-1.9433q2.3232-0.60239 1.7208-2.9256l-1.2688-4.8932q-0.60238-2.3232-2.9256-1.7208l-7.4947 1.9433q-2.3232 0.60238-1.7208 2.9256z" clip-path="url(#a)" fill="#fff" stroke="#fff"/>
<g clip-path="url(#a)">
<g transform="translate(1057.5 674.49) rotate(75.464) scale(.08 -.08)">
<use xlink:href="#m"/>
</g>
</g>
<path d="m1077.3 678.03 3.4299 4.4093q1.4736 1.8943 3.3679 0.42077l6.1112-4.7538q1.8943-1.4736 0.42077-3.3679l-3.4299-4.4093q-1.4736-1.8943-3.3679-0.42077l-6.1112 4.7538q-1.8943 1.4736-0.42077 3.3679z" clip-path="url(#a)" fill="#fff" stroke="#fff"/>
<g clip-path="url(#a)">
<g transform="translate(1080.5 675.53) rotate(52.121) scale(.08 -.08)">
<use xlink:href="#p"/>
</g>
</g>
<path d="m1220.4 587.22 1.8133-5.2547q0.78289-2.2687-1.4858-3.0516l-7.319-2.5256q-2.2687-0.78289-3.0516 1.4858l-1.8133 5.2547q-0.78289 2.2687 1.4858 3.0516l7.319 2.5256q2.2687 0.78289 3.0516-1.4858z" clip-path="url(#a)" fill="#fff" stroke="#fff"/>
<g clip-path="url(#a)">
<defs>
<path id="w" d="m44.391 34.188q3.1719-1.0781 6.1719-4.5938t6.0312-9.6719l10.016-19.922h-10.609l-9.3125 18.703q-3.625 7.3281-7.0156 9.7188t-9.25 2.3906h-10.75v-30.812h-9.8594v72.906h22.266q12.5 0 18.656-5.2344 6.1562-5.2188 6.1562-15.766 0-6.8906-3.2031-11.438-3.2031-4.5312-9.2969-6.2812zm-24.719 30.609v-25.875h12.406q7.125 0 10.766 3.2969t3.6406 9.6875-3.6406 9.6406-10.766 3.25z"/>
</defs>
<g transform="translate(1216.6 585.9) rotate(-70.961) scale(.08 -.08)">
<use xlink:href="#w"/>
</g>
</g>
<path d="m1244.8 586.38 0.96245-5.5027q0.41349-2.3641-1.9506-2.7776l-7.6267-1.3339q-2.3641-0.41349-2.7776 1.9506l-0.96245 5.5027q-0.41349 2.3641 1.9506 2.7776l7.6267 1.3339q2.3641 0.41349 2.7776-1.9506z" clip-path="url(#a)" fill="#fff" stroke="#fff"/>
<g clip-path="url(#a)">
<g transform="translate(1240.8 585.68) rotate(-80.079) scale(.08 -.08)">
<use xlink:href="#p"/>
</g>
</g>
<path d="m1330.6 494.12 4.2341 2.7614q2.0103 1.3111 3.3213-0.6992l4.2295-6.4852q1.3111-2.0103-0.6992-3.3213l-4.2341-2.7614q-2.0103-1.3111-3.3213 0.6992l-4.2295 6.4852q-1.3111 2.0103 0.6992 3.3213z" clip-path="url(#a)" fill="#fff" stroke="#fff"/>
<g clip-path="url(#a)">
<g transform="translate(1332.9 490.72) rotate(33.112) scale(.08 -.08)">
<use xlink:href="#m"/>
</g>
</g>
<path d="m1160.9 750.4v35.285q0 2.4 2.4 2.4h7.7425q2.4 0 2.4-2.4v-35.285q0-2.4-2.4-2.4h-7.7425q-2.4 0-2.4 2.4z" clip-path="url(#a)" fill="#fff" stroke="#fff"/>
<g clip-path="url(#a)">
<g transform="translate(1165 750.4) rotate(90) scale(.08 -.08)">
<use xlink:href="#l"/>
<use x="60.818359" xlink:href="#d"/>
<use x="122.341797" xlink:href="#g"/>
<use x="163.439453" xlink:href="#k"/>
<use x="260.851562" xlink:href="#i"/>
<use x="288.634766" xlink:href="#j"/>
<use x="352.013672" xlink:href="#e"/>
<use x="413.292969" xlink:href="#h"/>
</g>
</g>
<path d="m1208.4 750.4v35.285q0 2.4 2.4 2.4h7.7425q2.4 0 2.4-2.4v-35.285q0-2.4-2.4-2.4h-7.7425q-2.4 0-2.4 2.4z" clip-path="url(#a)" fill="#fff" stroke="#fff"/>
<g clip-path="url(#a)">
<g transform="translate(1212.5 750.4) rotate(90) scale(.08 -.08)">
<use xlink:href="#l"/>
<use x="60.818359" xlink:href="#d"/>
<use x="122.341797" xlink:href="#g"/>
<use x="163.439453" xlink:href="#k"/>
<use x="260.851562" xlink:href="#i"/>
<use x="288.634766" xlink:href="#j"/>
<use x="352.013672" xlink:href="#e"/>
<use x="413.292969" xlink:href="#h"/>
</g>
</g>
<path d="m1338.7 635.99 3.4565-4.3534q1.4923-1.8796-0.38726-3.3719l-6.0637-4.8144q-1.8796-1.4923-3.3719 0.38726l-3.4565 4.3534q-1.4923 1.8796 0.38726 3.3719l6.0637 4.8144q1.8796 1.4923 3.3719-0.38726z" clip-path="url(#a)" fill="#fff" stroke="#fff"/>
<g clip-path="url(#a)">
<g transform="translate(1335.5 633.46) rotate(-51.552) scale(.08 -.08)">
<use xlink:href="#w"/>
</g>
</g>
<path d="m1363.6 635.11 2.3897-4.4545q1.1346-2.1149-0.98033-3.2495l-6.8227-3.6602q-2.1149-1.1346-3.2495 0.98033l-2.3897 4.4545q-1.1346 2.1149 0.98033 3.2495l6.8227 3.6602q2.1149 1.1346 3.2495-0.98033z" clip-path="url(#a)" fill="#fff" stroke="#fff"/>
<g clip-path="url(#a)">
<g transform="translate(1360 633.19) rotate(-61.788) scale(.08 -.08)">
<use xlink:href="#m"/>
</g>
</g>
<path d="m1400.2 588.3 1.4453-4.844q0.68617-2.2998-1.6136-2.986l-7.4193-2.2136q-2.2998-0.68617-2.986 1.6136l-1.4453 4.844q-0.68617 2.2998 1.6136 2.986l7.4193 2.2136q2.2998 0.68617 2.986-1.6136z" clip-path="url(#a)" fill="#fff" stroke="#fff"/>
<g clip-path="url(#a)">
<g transform="translate(1396.3 587.14) rotate(-73.387) scale(.08 -.08)">
<use xlink:href="#m"/>
</g>
</g>
<path d="m1423.9 628.9 1.1613 4.9198q0.55136 2.3358 2.8872 1.7845l7.5354-1.7787q2.3358-0.55136 1.7845-2.8872l-1.1613-4.9198q-0.55136-2.3358-2.8872-1.7845l-7.5354 1.7787q-2.3358 0.55136-1.7845 2.8872z" clip-path="url(#a)" fill="#fff" stroke="#fff"/>
<g clip-path="url(#a)">
<g transform="translate(1427.9 627.96) rotate(76.719) scale(.08 -.08)">
<use xlink:href="#m"/>
</g>
</g>
<path d="m1447.5 630.19 2.4724 5.0094q1.0622 2.1522 3.2143 1.09l6.9429-3.4267q2.1522-1.0622 1.09-3.2143l-2.4724-5.0094q-1.0622-2.1522-3.2143-1.09l-6.9429 3.4267q-2.1522 1.0622-1.09 3.2143z" clip-path="url(#a)" fill="#fff" stroke="#fff"/>
<g clip-path="url(#a)">
<g transform="translate(1451.1 628.39) rotate(63.731) scale(.08 -.08)">
<use xlink:href="#p"/>
</g>
</g>
<path d="m1471.4 631.34 3.5161 4.6816q1.4413 1.919 3.3603 0.47774l6.1909-4.6497q1.919-1.4413 0.47774-3.3603l-3.5161-4.6816q-1.4413-1.919-3.3603-0.47774l-6.1909 4.6497q-1.919 1.4413-0.47774 3.3603z" clip-path="url(#a)" fill="#fff" stroke="#fff"/>
<g clip-path="url(#a)">
<g transform="translate(1474.6 628.9) rotate(53.092) scale(.08 -.08)">
<use xlink:href="#ag"/>
</g>
</g>
<path d="m1256 750.4v35.285q0 2.4 2.4 2.4h7.7425q2.4 0 2.4-2.4v-35.285q0-2.4-2.4-2.4h-7.7425q-2.4 0-2.4 2.4z" clip-path="url(#a)" fill="#fff" stroke="#fff"/>
<g clip-path="url(#a)">
<g transform="translate(1260 750.4) rotate(90) scale(.08 -.08)">
<use xlink:href="#l"/>
<use x="60.818359" xlink:href="#d"/>
<use x="122.341797" xlink:href="#g"/>
<use x="163.439453" xlink:href="#k"/>
<use x="260.851562" xlink:href="#i"/>
<use x="288.634766" xlink:href="#j"/>
<use x="352.013672" xlink:href="#e"/>
<use x="413.292969" xlink:href="#h"/>
</g>
</g>
<path d="m1303.5 750.4v35.285q0 2.4 2.4 2.4h7.7425q2.4 0 2.4-2.4v-35.285q0-2.4-2.4-2.4h-7.7425q-2.4 0-2.4 2.4z" clip-path="url(#a)" fill="#fff" stroke="#fff"/>
<g clip-path="url(#a)">
<g transform="translate(1307.6 750.4) rotate(90) scale(.08 -.08)">
<use xlink:href="#l"/>
<use x="60.818359" xlink:href="#d"/>
<use x="122.341797" xlink:href="#g"/>
<use x="163.439453" xlink:href="#k"/>
<use x="260.851562" xlink:href="#i"/>
<use x="288.634766" xlink:href="#j"/>
<use x="352.013672" xlink:href="#e"/>
<use x="413.292969" xlink:href="#h"/>
</g>
</g>
<path d="m1374.6 680.4 1.2688-4.8932q0.60239-2.3232-1.7208-2.9256l-7.4947-1.9433q-2.3232-0.60238-2.9256 1.7208l-1.2688 4.8932q-0.60238 2.3232 1.7208 2.9256l7.4947 1.9433q2.3232 0.60238 2.9256-1.7208z" clip-path="url(#a)" fill="#fff" stroke="#fff"/>
<g clip-path="url(#a)">
<g transform="translate(1370.7 679.38) rotate(-75.464) scale(.08 -.08)">
<use xlink:href="#m"/>
</g>
</g>
<path d="m1386.2 675.25 1.4021 5.4074q0.60238 2.3232 2.9256 1.7208l7.4947-1.9433q2.3232-0.60239 1.7208-2.9256l-1.4021-5.4074q-0.60239-2.3232-2.9256-1.7208l-7.4947 1.9433q-2.3232 0.60238-1.7208 2.9256z" clip-path="url(#a)" fill="#fff" stroke="#fff"/>
<g clip-path="url(#a)">
<g transform="translate(1390.1 674.23) rotate(75.464) scale(.08 -.08)">
<use xlink:href="#p"/>
</g>
</g>
<path d="m1446.1 750.4v35.285q0 2.4 2.4 2.4h7.7425q2.4 0 2.4-2.4v-35.285q0-2.4-2.4-2.4h-7.7425q-2.4 0-2.4 2.4z" clip-path="url(#a)" fill="#fff" stroke="#fff"/>
<g clip-path="url(#a)">
<g transform="translate(1450.2 750.4) rotate(90) scale(.08 -.08)">
<use xlink:href="#l"/>
<use x="60.818359" xlink:href="#d"/>
<use x="122.341797" xlink:href="#g"/>
<use x="163.439453" xlink:href="#k"/>
<use x="260.851562" xlink:href="#i"/>
<use x="288.634766" xlink:href="#j"/>
<use x="352.013672" xlink:href="#e"/>
<use x="413.292969" xlink:href="#h"/>
</g>
</g>
<path d="m1493.6 750.4v35.285q0 2.4 2.4 2.4h7.7425q2.4 0 2.4-2.4v-35.285q0-2.4-2.4-2.4h-7.7425q-2.4 0-2.4 2.4z" clip-path="url(#a)" fill="#fff" stroke="#fff"/>
<g clip-path="url(#a)">
<g transform="translate(1497.7 750.4) rotate(90) scale(.08 -.08)">
<use xlink:href="#l"/>
<use x="60.818359" xlink:href="#d"/>
<use x="122.341797" xlink:href="#g"/>
<use x="163.439453" xlink:href="#k"/>
<use x="260.851562" xlink:href="#i"/>
<use x="288.634766" xlink:href="#j"/>
<use x="352.013672" xlink:href="#e"/>
<use x="413.292969" xlink:href="#h"/>
</g>
</g>
<path d="m1351 750.4v35.285q0 2.4 2.4 2.4h7.7425q2.4 0 2.4-2.4v-35.285q0-2.4-2.4-2.4h-7.7425q-2.4 0-2.4 2.4z" clip-path="url(#a)" fill="#fff" stroke="#fff"/>
<g clip-path="url(#a)">
<g transform="translate(1355.1 750.4) rotate(90) scale(.08 -.08)">
<use xlink:href="#l"/>
<use x="60.818359" xlink:href="#d"/>
<use x="122.341797" xlink:href="#g"/>
<use x="163.439453" xlink:href="#k"/>
<use x="260.851562" xlink:href="#i"/>
<use x="288.634766" xlink:href="#j"/>
<use x="352.013672" xlink:href="#e"/>
<use x="413.292969" xlink:href="#h"/>
</g>
</g>
<path d="m1398.6 750.4v35.285q0 2.4 2.4 2.4h7.7425q2.4 0 2.4-2.4v-35.285q0-2.4-2.4-2.4h-7.7425q-2.4 0-2.4 2.4z" clip-path="url(#a)" fill="#fff" stroke="#fff"/>
<g clip-path="url(#a)">
<g transform="translate(1402.6 750.4) rotate(90) scale(.08 -.08)">
<use xlink:href="#l"/>
<use x="60.818359" xlink:href="#d"/>
<use x="122.341797" xlink:href="#g"/>
<use x="163.439453" xlink:href="#k"/>
<use x="260.851562" xlink:href="#i"/>
<use x="288.634766" xlink:href="#j"/>
<use x="352.013672" xlink:href="#e"/>
<use x="413.292969" xlink:href="#h"/>
</g>
</g>
<path d="m970.77 750.4v35.285q0 2.4 2.4 2.4h7.7425q2.4 0 2.4-2.4v-35.285q0-2.4-2.4-2.4h-7.7425q-2.4 0-2.4 2.4z" clip-path="url(#a)" fill="#fff" stroke="#fff"/>
<g clip-path="url(#a)">
<g transform="translate(974.83 750.4) rotate(90) scale(.08 -.08)">
<use xlink:href="#l"/>
<use x="60.818359" xlink:href="#d"/>
<use x="122.341797" xlink:href="#g"/>
<use x="163.439453" xlink:href="#k"/>
<use x="260.851562" xlink:href="#i"/>
<use x="288.634766" xlink:href="#j"/>
<use x="352.013672" xlink:href="#e"/>
<use x="413.292969" xlink:href="#h"/>
</g>
</g>
<path d="m1018.3 750.4v35.285q0 2.4 2.4 2.4h7.7425q2.4 0 2.4-2.4v-35.285q0-2.4-2.4-2.4h-7.7425q-2.4 0-2.4 2.4z" clip-path="url(#a)" fill="#fff" stroke="#fff"/>
<g clip-path="url(#a)">
<g transform="translate(1022.4 750.4) rotate(90) scale(.08 -.08)">
<use xlink:href="#l"/>
<use x="60.818359" xlink:href="#d"/>
<use x="122.341797" xlink:href="#g"/>
<use x="163.439453" xlink:href="#k"/>
<use x="260.851562" xlink:href="#i"/>
<use x="288.634766" xlink:href="#j"/>
<use x="352.013672" xlink:href="#e"/>
<use x="413.292969" xlink:href="#h"/>
</g>
</g>
<path d="m1065.8 750.4v35.285q0 2.4 2.4 2.4h7.7425q2.4 0 2.4-2.4v-35.285q0-2.4-2.4-2.4h-7.7425q-2.4 0-2.4 2.4z" clip-path="url(#a)" fill="#fff" stroke="#fff"/>
<g clip-path="url(#a)">
<g transform="translate(1069.9 750.4) rotate(90) scale(.08 -.08)">
<use xlink:href="#l"/>
<use x="60.818359" xlink:href="#d"/>
<use x="122.341797" xlink:href="#g"/>
<use x="163.439453" xlink:href="#k"/>
<use x="260.851562" xlink:href="#i"/>
<use x="288.634766" xlink:href="#j"/>
<use x="352.013672" xlink:href="#e"/>
<use x="413.292969" xlink:href="#h"/>
</g>
</g>
<path d="m1113.4 750.4v35.285q0 2.4 2.4 2.4h7.7425q2.4 0 2.4-2.4v-35.285q0-2.4-2.4-2.4h-7.7425q-2.4 0-2.4 2.4z" clip-path="url(#a)" fill="#fff" stroke="#fff"/>
<g clip-path="url(#a)">
<g transform="translate(1117.4 750.4) rotate(90) scale(.08 -.08)">
<use xlink:href="#l"/>
<use x="60.818359" xlink:href="#d"/>
<use x="122.341797" xlink:href="#g"/>
<use x="163.439453" xlink:href="#k"/>
<use x="260.851562" xlink:href="#i"/>
<use x="288.634766" xlink:href="#j"/>
<use x="352.013672" xlink:href="#e"/>
<use x="413.292969" xlink:href="#h"/>
</g>
</g>
<path d="m67.609 750.4v35.285q0 2.4 2.4 2.4h7.7425q2.4 0 2.4-2.4v-35.285q0-2.4-2.4-2.4h-7.7425q-2.4 0-2.4 2.4z" clip-path="url(#a)" fill="#fff" stroke="#fff"/>
<g clip-path="url(#a)">
<g transform="translate(71.672 750.4) rotate(90) scale(.08 -.08)">
<use xlink:href="#l"/>
<use x="60.818359" xlink:href="#d"/>
<use x="122.341797" xlink:href="#g"/>
<use x="163.439453" xlink:href="#k"/>
<use x="260.851562" xlink:href="#i"/>
<use x="288.634766" xlink:href="#j"/>
<use x="352.013672" xlink:href="#e"/>
<use x="413.292969" xlink:href="#h"/>
</g>
</g>
<path d="m115.14 750.4v35.285q0 2.4 2.4 2.4h7.7425q2.4 0 2.4-2.4v-35.285q0-2.4-2.4-2.4h-7.7425q-2.4 0-2.4 2.4z" clip-path="url(#a)" fill="#fff" stroke="#fff"/>
<g clip-path="url(#a)">
<g transform="translate(119.21 750.4) rotate(90) scale(.08 -.08)">
<use xlink:href="#l"/>
<use x="60.818359" xlink:href="#d"/>
<use x="122.341797" xlink:href="#g"/>
<use x="163.439453" xlink:href="#k"/>
<use x="260.851562" xlink:href="#i"/>
<use x="288.634766" xlink:href="#j"/>
<use x="352.013672" xlink:href="#e"/>
<use x="413.292969" xlink:href="#h"/>
</g>
</g>
<path d="m245.49 538.94 1.9792-5.1945q0.85454-2.2427-1.3882-3.0973l-7.2351-2.7568q-2.2427-0.85454-3.0973 1.3882l-1.9792 5.1945q-0.85454 2.2427 1.3882 3.0973l7.2351 2.7568q2.2427 0.85454 3.0973-1.3882z" clip-path="url(#a)" fill="#fff" stroke="#fff"/>
<g clip-path="url(#a)">
<g transform="translate(241.7 537.49) rotate(-69.142) scale(.08 -.08)">
<use xlink:href="#w"/>
</g>
</g>
<path d="m281.91 538.03 1.0507-5.4866q0.4514-2.3572-1.9058-2.8086l-7.6043-1.4562q-2.3572-0.4514-2.8086 1.9058l-1.0507 5.4866q-0.4514 2.3572 1.9058 2.8086l7.6043 1.4562q2.3572 0.4514 2.8086-1.9058z" clip-path="url(#a)" fill="#fff" stroke="#fff"/>
<g clip-path="url(#a)">
<g transform="translate(277.92 537.27) rotate(-79.159) scale(.08 -.08)">
<use xlink:href="#p"/>
</g>
</g>
<path d="m415.49 399.14 4.6128 2.0677q2.19 0.98171 3.1717-1.2083l3.167-7.0651q0.98171-2.19-1.2083-3.1717l-4.6128-2.0677q-2.19-0.98171-3.1717 1.2083l-3.167 7.0651q-0.98171 2.19 1.2083 3.1717z" clip-path="url(#a)" fill="#fff" stroke="#fff"/>
<g clip-path="url(#a)">
<g transform="translate(417.15 395.43) rotate(24.145) scale(.08 -.08)">
<use xlink:href="#m"/>
</g>
</g>
<path d="m318.19 537.05 0.011559-5.855q0.004738-2.4-2.3953-2.4047l-7.7425-0.015286q-2.4-0.004738-2.4047 2.3953l-0.01156 5.855q-0.004738 2.4 2.3953 2.4047l7.7425 0.015286q2.4 0.004738 2.4047-2.3953z" clip-path="url(#a)" fill="#fff" stroke="#fff"/>
<g clip-path="url(#a)">
<g transform="translate(314.13 537.04) rotate(-89.887) scale(.08 -.08)">
<use xlink:href="#ag"/>
</g>
</g>
<path d="m162.68 750.4v35.285q0 2.4 2.4 2.4h7.7425q2.4 0 2.4-2.4v-35.285q0-2.4-2.4-2.4h-7.7425q-2.4 0-2.4 2.4z" clip-path="url(#a)" fill="#fff" stroke="#fff"/>
<g clip-path="url(#a)">
<g transform="translate(166.74 750.4) rotate(90) scale(.08 -.08)">
<use xlink:href="#l"/>
<use x="60.818359" xlink:href="#d"/>
<use x="122.341797" xlink:href="#g"/>
<use x="163.439453" xlink:href="#k"/>
<use x="260.851562" xlink:href="#i"/>
<use x="288.634766" xlink:href="#j"/>
<use x="352.013672" xlink:href="#e"/>
<use x="413.292969" xlink:href="#h"/>
</g>
</g>
<path d="m230.01 786.7 8.8563-34.155q0.60238-2.3232-1.7208-2.9256l-7.4947-1.9433q-2.3232-0.60238-2.9256 1.7208l-8.8563 34.155q-0.60238 2.3232 1.7208 2.9256l7.4947 1.9433q2.3232 0.60238 2.9256-1.7208z" clip-path="url(#a)" fill="#fff" stroke="#fff"/>
<g clip-path="url(#a)">
<g transform="translate(226.08 785.68) rotate(-75.464) scale(.08 -.08)">
<use xlink:href="#l"/>
<use x="60.818359" xlink:href="#d"/>
<use x="122.341797" xlink:href="#g"/>
<use x="163.439453" xlink:href="#k"/>
<use x="260.851562" xlink:href="#i"/>
<use x="288.634766" xlink:href="#j"/>
<use x="352.013672" xlink:href="#e"/>
<use x="413.292969" xlink:href="#h"/>
</g>
</g>
<path d="m241.64 752.54 8.8563 34.155q0.60239 2.3232 2.9256 1.7208l7.4947-1.9433q2.3232-0.60239 1.7208-2.9256l-8.8563-34.155q-0.60238-2.3232-2.9256-1.7208l-7.4947 1.9433q-2.3232 0.60239-1.7208 2.9256z" clip-path="url(#a)" fill="#fff" stroke="#fff"/>
<g clip-path="url(#a)">
<g transform="translate(245.57 751.52) rotate(75.464) scale(.08 -.08)">
<use xlink:href="#l"/>
<use x="60.818359" xlink:href="#d"/>
<use x="122.341797" xlink:href="#g"/>
<use x="163.439453" xlink:href="#k"/>
<use x="260.851562" xlink:href="#i"/>
<use x="288.634766" xlink:href="#j"/>
<use x="352.013672" xlink:href="#e"/>
<use x="413.292969" xlink:href="#h"/>
</g>
</g>
<path d="m447.81 587.96 2.6206-4.3227q1.2442-2.0523-0.80808-3.2965l-6.6208-4.0139q-2.0523-1.2442-3.2965 0.80808l-2.6206 4.3226q-1.2442 2.0523 0.80808 3.2965l6.6208 4.0139q2.0523 1.2442 3.2965-0.80808z" clip-path="url(#a)" fill="#fff" stroke="#fff"/>
<g clip-path="url(#a)">
<g transform="translate(444.34 585.86) rotate(-58.773) scale(.08 -.08)">
<use xlink:href="#m"/>
</g>
</g>
<path d="m496.19 541.38 1.8603-4.7003q0.88321-2.2316-1.3484-3.1148l-7.1992-2.8493q-2.2316-0.88321-3.1148 1.3484l-1.8603 4.7003q-0.88321 2.2316 1.3484 3.1148l7.1992 2.8493q2.2316 0.88321 3.1148-1.3484z" clip-path="url(#a)" fill="#fff" stroke="#fff"/>
<g clip-path="url(#a)">
<g transform="translate(492.42 539.88) rotate(-68.407) scale(.08 -.08)">
<use xlink:href="#m"/>
</g>
</g>
<path d="m562.12 492.38 3.2667 3.8577q1.551 1.8315 3.3825 0.28058l5.9086-5.0035q1.8315-1.551 0.28058-3.3825l-3.2667-3.8577q-1.551-1.8315-3.3825-0.28058l-5.9086 5.0035q-1.8315 1.551-0.28058 3.3825z" clip-path="url(#a)" fill="#fff" stroke="#fff"/>
<g clip-path="url(#a)">
<g transform="translate(565.22 489.75) rotate(49.742) scale(.08 -.08)">
<use xlink:href="#m"/>
</g>
</g>
<path d="m603.31 583.31 2.8207 4.8218q1.2118 2.0716 3.2834 0.85974l6.683-3.9094q2.0716-1.2118 0.85974-3.2834l-2.8207-4.8218q-1.2118-2.0716-3.2834-0.85974l-6.683 3.9094q-2.0716 1.2118-0.85974 3.2834z" clip-path="url(#a)" fill="#fff" stroke="#fff"/>
<g clip-path="url(#a)">
<g transform="translate(606.81 581.26) rotate(59.673) scale(.08 -.08)">
<use xlink:href="#p"/>
</g>
</g>
<path d="m352.82 750.4v35.285q0 2.4 2.4 2.4h7.7425q2.4 0 2.4-2.4v-35.285q0-2.4-2.4-2.4h-7.7425q-2.4 0-2.4 2.4z" clip-path="url(#a)" fill="#fff" stroke="#fff"/>
<g clip-path="url(#a)">
<g transform="translate(356.88 750.4) rotate(90) scale(.08 -.08)">
<use xlink:href="#l"/>
<use x="60.818359" xlink:href="#d"/>
<use x="122.341797" xlink:href="#g"/>
<use x="163.439453" xlink:href="#k"/>
<use x="260.851562" xlink:href="#i"/>
<use x="288.634766" xlink:href="#j"/>
<use x="352.013672" xlink:href="#e"/>
<use x="413.292969" xlink:href="#h"/>
</g>
</g>
<path d="m434.79 681.51 2.3272-4.4875q1.1049-2.1306-1.0257-3.2354l-6.8732-3.5644q-2.1306-1.1049-3.2354 1.0257l-2.3272 4.4875q-1.1049 2.1306 1.0257 3.2354l6.8732 3.5644q2.1306 1.1049 3.2354-1.0257z" clip-path="url(#a)" fill="#fff" stroke="#fff"/>
<g clip-path="url(#a)">
<g transform="translate(431.19 679.64) rotate(-62.589) scale(.08 -.08)">
<use xlink:href="#m"/>
</g>
</g>
<path d="m447.89 673.59v5.5862q0 2.4 2.4 2.4h7.7425q2.4 0 2.4-2.4v-5.5862q0-2.4-2.4-2.4h-7.7425q-2.4 0-2.4 2.4z" clip-path="url(#a)" fill="#fff" stroke="#fff"/>
<g clip-path="url(#a)">
<g transform="translate(451.95 673.59) rotate(90) scale(.08 -.08)">
<use xlink:href="#p"/>
</g>
</g>
<path d="m471.08 676.8 2.5591 4.9347q1.1049 2.1306 3.2354 1.0257l6.8732-3.5644q2.1306-1.1049 1.0257-3.2354l-2.5591-4.9347q-1.1049-2.1306-3.2354-1.0257l-6.8732 3.5644q-2.1305 1.1049-1.0257 3.2354z" clip-path="url(#a)" fill="#fff" stroke="#fff"/>
<g clip-path="url(#a)">
<g transform="translate(474.69 674.93) rotate(62.589) scale(.08 -.08)">
<use xlink:href="#w"/>
</g>
</g>
<path d="m595.77 588.69 1.8105-4.7197q0.85958-2.2408-1.3812-3.1004l-7.2289-2.773q-2.2408-0.85958-3.1004 1.3812l-1.8105 4.7197q-0.85958 2.2408 1.3812 3.1004l7.2289 2.773q2.2408 0.85958 3.1004-1.3812z" clip-path="url(#a)" fill="#fff" stroke="#fff"/>
<g clip-path="url(#a)">
<g transform="translate(591.97 587.23) rotate(-69.013) scale(.08 -.08)">
<use xlink:href="#m"/>
</g>
</g>
<path d="m619.78 628.36 1.0593 5.4849q0.4551 2.3565 2.8116 1.9014l7.602-1.4682q2.3565-0.4551 1.9014-2.8116l-1.0593-5.4849q-0.4551-2.3565-2.8116-1.9014l-7.602 1.4682q-2.3565 0.4551-1.9014 2.8116z" clip-path="url(#a)" fill="#fff" stroke="#fff"/>
<g clip-path="url(#a)">
<g transform="translate(623.77 627.59) rotate(79.069) scale(.08 -.08)">
<use xlink:href="#p"/>
</g>
</g>
<path d="m685.56 750.4v35.285q0 2.4 2.4 2.4h7.7425q2.4 0 2.4-2.4v-35.285q0-2.4-2.4-2.4h-7.7425q-2.4 0-2.4 2.4z" clip-path="url(#a)" fill="#fff" stroke="#fff"/>
<g clip-path="url(#a)">
<g transform="translate(689.62 750.4) rotate(90) scale(.08 -.08)">
<use xlink:href="#l"/>
<use x="60.818359" xlink:href="#d"/>
<use x="122.341797" xlink:href="#g"/>
<use x="163.439453" xlink:href="#k"/>
<use x="260.851562" xlink:href="#i"/>
<use x="288.634766" xlink:href="#j"/>
<use x="352.013672" xlink:href="#e"/>
<use x="413.292969" xlink:href="#h"/>
</g>
</g>
<path d="m566.48 680.66 1.4021-5.4074q0.60239-2.3232-1.7208-2.9256l-7.4947-1.9433q-2.3232-0.60238-2.9256 1.7208l-1.4021 5.4074q-0.60239 2.3232 1.7208 2.9256l7.4947 1.9433q2.3232 0.60238 2.9256-1.7208z" clip-path="url(#a)" fill="#fff" stroke="#fff"/>
<g clip-path="url(#a)">
<g transform="translate(562.55 679.64) rotate(-75.464) scale(.08 -.08)">
<use xlink:href="#p"/>
</g>
</g>
<path d="m578.11 675.27 1.3952 5.3808q0.60239 2.3232 2.9256 1.7208l7.4947-1.9433q2.3232-0.60239 1.7208-2.9256l-1.3952-5.3808q-0.60239-2.3232-2.9256-1.7208l-7.4947 1.9433q-2.3232 0.60239-1.7208 2.9256z" clip-path="url(#a)" fill="#fff" stroke="#fff"/>
<g clip-path="url(#a)">
<g transform="translate(582.04 674.25) rotate(75.464) scale(.08 -.08)">
<use xlink:href="#w"/>
</g>
</g>
<path d="m638.02 750.4v35.285q0 2.4 2.4 2.4h7.7425q2.4 0 2.4-2.4v-35.285q0-2.4-2.4-2.4h-7.7425q-2.4 0-2.4 2.4z" clip-path="url(#a)" fill="#fff" stroke="#fff"/>
<g clip-path="url(#a)">
<g transform="translate(642.09 750.4) rotate(90) scale(.08 -.08)">
<use xlink:href="#l"/>
<use x="60.818359" xlink:href="#d"/>
<use x="122.341797" xlink:href="#g"/>
<use x="163.439453" xlink:href="#k"/>
<use x="260.851562" xlink:href="#i"/>
<use x="288.634766" xlink:href="#j"/>
<use x="352.013672" xlink:href="#e"/>
<use x="413.292969" xlink:href="#h"/>
</g>
</g>
<path d="m542.95 750.4v35.285q0 2.4 2.4 2.4h7.7425q2.4 0 2.4-2.4v-35.285q0-2.4-2.4-2.4h-7.7425q-2.4 0-2.4 2.4z" clip-path="url(#a)" fill="#fff" stroke="#fff"/>
<g clip-path="url(#a)">
<g transform="translate(547.02 750.4) rotate(90) scale(.08 -.08)">
<use xlink:href="#l"/>
<use x="60.818359" xlink:href="#d"/>
<use x="122.341797" xlink:href="#g"/>
<use x="163.439453" xlink:href="#k"/>
<use x="260.851562" xlink:href="#i"/>
<use x="288.634766" xlink:href="#j"/>
<use x="352.013672" xlink:href="#e"/>
<use x="413.292969" xlink:href="#h"/>
</g>
</g>
<path d="m590.49 750.4v35.285q0 2.4 2.4 2.4h7.7425q2.4 0 2.4-2.4v-35.285q0-2.4-2.4-2.4h-7.7425q-2.4 0-2.4 2.4z" clip-path="url(#a)" fill="#fff" stroke="#fff"/>
<g clip-path="url(#a)">
<g transform="translate(594.55 750.4) rotate(90) scale(.08 -.08)">
<use xlink:href="#l"/>
<use x="60.818359" xlink:href="#d"/>
<use x="122.341797" xlink:href="#g"/>
<use x="163.439453" xlink:href="#k"/>
<use x="260.851562" xlink:href="#i"/>
<use x="288.634766" xlink:href="#j"/>
<use x="352.013672" xlink:href="#e"/>
<use x="413.292969" xlink:href="#h"/>
</g>
</g>
<path d="m400.35 750.4v35.285q0 2.4 2.4 2.4h7.7425q2.4 0 2.4-2.4v-35.285q0-2.4-2.4-2.4h-7.7425q-2.4 0-2.4 2.4z" clip-path="url(#a)" fill="#fff" stroke="#fff"/>
<g clip-path="url(#a)">
<g transform="translate(404.41 750.4) rotate(90) scale(.08 -.08)">
<use xlink:href="#l"/>
<use x="60.818359" xlink:href="#d"/>
<use x="122.341797" xlink:href="#g"/>
<use x="163.439453" xlink:href="#k"/>
<use x="260.851562" xlink:href="#i"/>
<use x="288.634766" xlink:href="#j"/>
<use x="352.013672" xlink:href="#e"/>
<use x="413.292969" xlink:href="#h"/>
</g>
</g>
<path d="m447.89 750.4v35.285q0 2.4 2.4 2.4h7.7425q2.4 0 2.4-2.4v-35.285q0-2.4-2.4-2.4h-7.7425q-2.4 0-2.4 2.4z" clip-path="url(#a)" fill="#fff" stroke="#fff"/>
<g clip-path="url(#a)">
<g transform="translate(451.95 750.4) rotate(90) scale(.08 -.08)">
<use xlink:href="#l"/>
<use x="60.818359" xlink:href="#d"/>
<use x="122.341797" xlink:href="#g"/>
<use x="163.439453" xlink:href="#k"/>
<use x="260.851562" xlink:href="#i"/>
<use x="288.634766" xlink:href="#j"/>
<use x="352.013672" xlink:href="#e"/>
<use x="413.292969" xlink:href="#h"/>
</g>
</g>
<path d="m495.42 750.4v35.285q0 2.4 2.4 2.4h7.7425q2.4 0 2.4-2.4v-35.285q0-2.4-2.4-2.4h-7.7425q-2.4 0-2.4 2.4z" clip-path="url(#a)" fill="#fff" stroke="#fff"/>
<g clip-path="url(#a)">
<g transform="translate(499.48 750.4) rotate(90) scale(.08 -.08)">
<use xlink:href="#l"/>
<use x="60.818359" xlink:href="#d"/>
<use x="122.341797" xlink:href="#g"/>
<use x="163.439453" xlink:href="#k"/>
<use x="260.851562" xlink:href="#i"/>
<use x="288.634766" xlink:href="#j"/>
<use x="352.013672" xlink:href="#e"/>
<use x="413.292969" xlink:href="#h"/>
</g>
</g>
<path d="m305.28 750.4v35.285q0 2.4 2.4 2.4h7.7425q2.4 0 2.4-2.4v-35.285q0-2.4-2.4-2.4h-7.7425q-2.4 0-2.4 2.4z" clip-path="url(#a)" fill="#fff" stroke="#fff"/>
<g clip-path="url(#a)">
<g transform="translate(309.35 750.4) rotate(90) scale(.08 -.08)">
<use xlink:href="#l"/>
<use x="60.818359" xlink:href="#d"/>
<use x="122.341797" xlink:href="#g"/>
<use x="163.439453" xlink:href="#k"/>
<use x="260.851562" xlink:href="#i"/>
<use x="288.634766" xlink:href="#j"/>
<use x="352.013672" xlink:href="#e"/>
<use x="413.292969" xlink:href="#h"/>
</g>
</g>
<path d="m733.09 750.4v35.285q0 2.4 2.4 2.4h7.7425q2.4 0 2.4-2.4v-35.285q0-2.4-2.4-2.4h-7.7425q-2.4 0-2.4 2.4z" clip-path="url(#a)" fill="#fff" stroke="#fff"/>
<g clip-path="url(#a)">
<g transform="translate(737.16 750.4) rotate(90) scale(.08 -.08)">
<use xlink:href="#l"/>
<use x="60.818359" xlink:href="#d"/>
<use x="122.341797" xlink:href="#g"/>
<use x="163.439453" xlink:href="#k"/>
<use x="260.851562" xlink:href="#i"/>
<use x="288.634766" xlink:href="#j"/>
<use x="352.013672" xlink:href="#e"/>
<use x="413.292969" xlink:href="#h"/>
</g>
</g>
<path d="m1541.2 750.4v35.285q0 2.4 2.4 2.4h7.7425q2.4 0 2.4-2.4v-35.285q0-2.4-2.4-2.4h-7.7425q-2.4 0-2.4 2.4z" clip-path="url(#a)" fill="#fff" stroke="#fff"/>
<g clip-path="url(#a)">
<g transform="translate(1545.2 750.4) rotate(90) scale(.08 -.08)">
<use xlink:href="#l"/>
<use x="60.818359" xlink:href="#d"/>
<use x="122.341797" xlink:href="#g"/>
<use x="163.439453" xlink:href="#k"/>
<use x="260.851562" xlink:href="#i"/>
<use x="288.634766" xlink:href="#j"/>
<use x="352.013672" xlink:href="#e"/>
<use x="413.292969" xlink:href="#h"/>
</g>
</g>
<defs>
<path id="b" d="m0 8.6603c2.2967 0 4.4997-0.9125 6.1237-2.5365 1.624-1.624 2.5365-3.827 2.5365-6.1237s-0.9125-4.4997-2.5365-6.1237c-1.624-1.624-3.827-2.5365-6.1237-2.5365s-4.4997 0.9125-6.1237 2.5365c-1.624 1.624-2.5365 3.827-2.5365 6.1237s0.9125 4.4997 2.5365 6.1237c1.624 1.624 3.827 2.5365 6.1237 2.5365z"/>
</defs>
<g clip-path="url(#a)">
<use x="73.87978" y="813.875675" fill="#ffffff" stroke="#ffffff" xlink:href="#b"/>
</g>
<g clip-path="url(#a)">
<use x="121.414418" y="813.875675" fill="#ffffff" stroke="#ffffff" xlink:href="#b"/>
</g>
<g clip-path="url(#a)">
<use x="168.949056" y="813.875675" fill="#ffffff" stroke="#ffffff" xlink:href="#b"/>
</g>
<g clip-path="url(#a)">
<use x="216.483694" y="813.875675" fill="#ffffff" stroke="#ffffff" xlink:href="#b"/>
</g>
<g clip-path="url(#a)">
<use x="264.018332" y="813.875675" fill="#ffffff" stroke="#ffffff" xlink:href="#b"/>
</g>
<g clip-path="url(#a)">
<use x="311.552969" y="813.875675" fill="#ffffff" stroke="#ffffff" xlink:href="#b"/>
</g>
<g clip-path="url(#a)">
<use x="359.087607" y="813.875675" fill="#ffffff" stroke="#ffffff" xlink:href="#b"/>
</g>
<g clip-path="url(#a)">
<use x="406.622245" y="813.875675" fill="#ffffff" stroke="#ffffff" xlink:href="#b"/>
</g>
<g clip-path="url(#a)">
<use x="454.156883" y="813.875675" fill="#ffffff" stroke="#ffffff" xlink:href="#b"/>
</g>
<g clip-path="url(#a)">
<use x="501.691521" y="813.875675" fill="#ffffff" stroke="#ffffff" xlink:href="#b"/>
</g>
<g clip-path="url(#a)">
<use x="549.226159" y="813.875675" fill="#ffffff" stroke="#ffffff" xlink:href="#b"/>
</g>
<g clip-path="url(#a)">
<use x="596.760796" y="813.875675" fill="#ffffff" stroke="#ffffff" xlink:href="#b"/>
</g>
<g clip-path="url(#a)">
<use x="644.295434" y="813.875675" fill="#ffffff" stroke="#ffffff" xlink:href="#b"/>
</g>
<g clip-path="url(#a)">
<use x="691.830072" y="813.875675" fill="#ffffff" stroke="#ffffff" xlink:href="#b"/>
</g>
<g clip-path="url(#a)">
<use x="739.36471" y="813.875675" fill="#ffffff" stroke="#ffffff" xlink:href="#b"/>
</g>
<g clip-path="url(#a)">
<use x="786.899348" y="813.875675" fill="#ffffff" stroke="#ffffff" xlink:href="#b"/>
</g>
<g clip-path="url(#a)">
<use x="834.433986" y="813.875675" fill="#ffffff" stroke="#ffffff" xlink:href="#b"/>
</g>
<g clip-path="url(#a)">
<use x="881.968623" y="813.875675" fill="#ffffff" stroke="#ffffff" xlink:href="#b"/>
</g>
<g clip-path="url(#a)">
<use x="929.503261" y="813.875675" fill="#ffffff" stroke="#ffffff" xlink:href="#b"/>
</g>
<g clip-path="url(#a)">
<use x="977.037899" y="813.875675" fill="#ffffff" stroke="#ffffff" xlink:href="#b"/>
</g>
<g clip-path="url(#a)">
<use x="1024.572537" y="813.875675" fill="#ffffff" stroke="#ffffff" xlink:href="#b"/>
</g>
<g clip-path="url(#a)">
<use x="1072.107175" y="813.875675" fill="#ffffff" stroke="#ffffff" xlink:href="#b"/>
</g>
<g clip-path="url(#a)">
<use x="1119.641813" y="813.875675" fill="#ffffff" stroke="#ffffff" xlink:href="#b"/>
</g>
<g clip-path="url(#a)">
<use x="1167.17645" y="813.875675" fill="#ffffff" stroke="#ffffff" xlink:href="#b"/>
</g>
<g clip-path="url(#a)">
<use x="1214.711088" y="813.875675" fill="#ffffff" stroke="#ffffff" xlink:href="#b"/>
</g>
<g clip-path="url(#a)">
<use x="1262.245726" y="813.875675" fill="#ffffff" stroke="#ffffff" xlink:href="#b"/>
</g>
<g clip-path="url(#a)">
<use x="1309.780364" y="813.875675" fill="#ffffff" stroke="#ffffff" xlink:href="#b"/>
</g>
<g clip-path="url(#a)">
<use x="1357.315002" y="813.875675" fill="#ffffff" stroke="#ffffff" xlink:href="#b"/>
</g>
<g clip-path="url(#a)">
<use x="1404.84964" y="813.875675" fill="#ffffff" stroke="#ffffff" xlink:href="#b"/>
</g>
<g clip-path="url(#a)">
<use x="1452.384278" y="813.875675" fill="#ffffff" stroke="#ffffff" xlink:href="#b"/>
</g>
<g clip-path="url(#a)">
<use x="1499.918915" y="813.875675" fill="#ffffff" stroke="#ffffff" xlink:href="#b"/>
</g>
<g clip-path="url(#a)">
<use x="1547.453553" y="813.875675" fill="#ffffff" stroke="#ffffff" xlink:href="#b"/>
</g>
<g clip-path="url(#a)">
<use x="831.659069" y="39.457658" fill="#ffffff" stroke="#ffffff" xlink:href="#b"/>
</g>
<g clip-path="url(#a)">
<use x="831.659069" y="144.559424" fill="#ffffff" stroke="#ffffff" xlink:href="#b"/>
</g>
<g clip-path="url(#a)">
<use x="169.196632" y="246.654227" fill="#ffffff" stroke="#ffffff" xlink:href="#b"/>
</g>
<g clip-path="url(#a)">
<use x="786.899348" y="722.214107" fill="#ffffff" stroke="#ffffff" xlink:href="#b"/>
</g>
<g clip-path="url(#a)">
<use x="834.433986" y="722.214107" fill="#ffffff" stroke="#ffffff" xlink:href="#b"/>
</g>
<g clip-path="url(#a)">
<use x="881.968623" y="722.214107" fill="#ffffff" stroke="#ffffff" xlink:href="#b"/>
</g>
<g clip-path="url(#a)">
<use x="929.503261" y="722.214107" fill="#ffffff" stroke="#ffffff" xlink:href="#b"/>
</g>
<g clip-path="url(#a)">
<use x="1048.339856" y="630.552538" fill="#ffffff" stroke="#ffffff" xlink:href="#b"/>
</g>
<g clip-path="url(#a)">
<use x="1263.566133" y="442.889609" fill="#ffffff" stroke="#ffffff" xlink:href="#b"/>
</g>
<g clip-path="url(#a)">
<use x="1167.17645" y="722.214107" fill="#ffffff" stroke="#ffffff" xlink:href="#b"/>
</g>
<g clip-path="url(#a)">
<use x="1214.711088" y="722.214107" fill="#ffffff" stroke="#ffffff" xlink:href="#b"/>
</g>
<g clip-path="url(#a)">
<use x="1408.810859" y="537.615857" fill="#ffffff" stroke="#ffffff" xlink:href="#b"/>
</g>
<g clip-path="url(#a)">
<use x="1262.245726" y="722.214107" fill="#ffffff" stroke="#ffffff" xlink:href="#b"/>
</g>
<g clip-path="url(#a)">
<use x="1309.780364" y="722.214107" fill="#ffffff" stroke="#ffffff" xlink:href="#b"/>
</g>
<g clip-path="url(#a)">
<use x="1381.082321" y="630.552538" fill="#ffffff" stroke="#ffffff" xlink:href="#b"/>
</g>
<g clip-path="url(#a)">
<use x="1452.384278" y="722.214107" fill="#ffffff" stroke="#ffffff" xlink:href="#b"/>
</g>
<g clip-path="url(#a)">
<use x="1499.918915" y="722.214107" fill="#ffffff" stroke="#ffffff" xlink:href="#b"/>
</g>
<g clip-path="url(#a)">
<use x="1357.315002" y="722.214107" fill="#ffffff" stroke="#ffffff" xlink:href="#b"/>
</g>
<g clip-path="url(#a)">
<use x="1404.84964" y="722.214107" fill="#ffffff" stroke="#ffffff" xlink:href="#b"/>
</g>
<g clip-path="url(#a)">
<use x="977.037899" y="722.214107" fill="#ffffff" stroke="#ffffff" xlink:href="#b"/>
</g>
<g clip-path="url(#a)">
<use x="1024.572537" y="722.214107" fill="#ffffff" stroke="#ffffff" xlink:href="#b"/>
</g>
<g clip-path="url(#a)">
<use x="1072.107175" y="722.214107" fill="#ffffff" stroke="#ffffff" xlink:href="#b"/>
</g>
<g clip-path="url(#a)">
<use x="1119.641813" y="722.214107" fill="#ffffff" stroke="#ffffff" xlink:href="#b"/>
</g>
<g clip-path="url(#a)">
<use x="73.87978" y="722.214107" fill="#ffffff" stroke="#ffffff" xlink:href="#b"/>
</g>
<g clip-path="url(#a)">
<use x="121.414418" y="722.214107" fill="#ffffff" stroke="#ffffff" xlink:href="#b"/>
</g>
<g clip-path="url(#a)">
<use x="312.295698" y="346.005002" fill="#ffffff" stroke="#ffffff" xlink:href="#b"/>
</g>
<g clip-path="url(#a)">
<use x="168.949056" y="722.214107" fill="#ffffff" stroke="#ffffff" xlink:href="#b"/>
</g>
<g clip-path="url(#a)">
<use x="240.251013" y="722.214107" fill="#ffffff" stroke="#ffffff" xlink:href="#b"/>
</g>
<g clip-path="url(#a)">
<use x="528.429754" y="442.889609" fill="#ffffff" stroke="#ffffff" xlink:href="#b"/>
</g>
<g clip-path="url(#a)">
<use x="359.087607" y="722.214107" fill="#ffffff" stroke="#ffffff" xlink:href="#b"/>
</g>
<g clip-path="url(#a)">
<use x="454.156883" y="630.552538" fill="#ffffff" stroke="#ffffff" xlink:href="#b"/>
</g>
<g clip-path="url(#a)">
<use x="608.644456" y="537.615857" fill="#ffffff" stroke="#ffffff" xlink:href="#b"/>
</g>
<g clip-path="url(#a)">
<use x="691.830072" y="722.214107" fill="#ffffff" stroke="#ffffff" xlink:href="#b"/>
</g>
<g clip-path="url(#a)">
<use x="572.993477" y="630.552538" fill="#ffffff" stroke="#ffffff" xlink:href="#b"/>
</g>
<g clip-path="url(#a)">
<use x="644.295434" y="722.214107" fill="#ffffff" stroke="#ffffff" xlink:href="#b"/>
</g>
<g clip-path="url(#a)">
<use x="549.226159" y="722.214107" fill="#ffffff" stroke="#ffffff" xlink:href="#b"/>
</g>
<g clip-path="url(#a)">
<use x="596.760796" y="722.214107" fill="#ffffff" stroke="#ffffff" xlink:href="#b"/>
</g>
<g clip-path="url(#a)">
<use x="406.622245" y="722.214107" fill="#ffffff" stroke="#ffffff" xlink:href="#b"/>
</g>
<g clip-path="url(#a)">
<use x="454.156883" y="722.214107" fill="#ffffff" stroke="#ffffff" xlink:href="#b"/>
</g>
<g clip-path="url(#a)">
<use x="501.691521" y="722.214107" fill="#ffffff" stroke="#ffffff" xlink:href="#b"/>
</g>
<g clip-path="url(#a)">
<use x="311.552969" y="722.214107" fill="#ffffff" stroke="#ffffff" xlink:href="#b"/>
</g>
<g clip-path="url(#a)">
<use x="739.36471" y="722.214107" fill="#ffffff" stroke="#ffffff" xlink:href="#b"/>
</g>
<g clip-path="url(#a)">
<use x="1547.453553" y="722.214107" fill="#ffffff" stroke="#ffffff" xlink:href="#b"/>
</g>
<g clip-path="url(#a)">
<defs>
<path id="v" d="m54.891 33.016v-33.016h-8.9844v32.719q0 7.7656-3.0312 11.609-3.0312 3.8594-9.0781 3.8594-7.2812 0-11.484-4.6406-4.2031-4.625-4.2031-12.641v-30.906h-9.0312v75.984h9.0312v-29.797q3.2344 4.9375 7.5938 7.375 4.375 2.4375 10.094 2.4375 9.4219 0 14.25-5.8281 4.8438-5.8281 4.8438-17.156z"/>
</defs>
<g transform="translate(64.581 816.64) scale(.1 -.1)">
<use xlink:href="#l"/>
<use x="61.083984" xlink:href="#v"/>
<use x="124.462891" xlink:href="#d"/>
</g>
</g>
<g clip-path="url(#a)">
<defs>
<path id="au" d="m54.891 54.688-19.781-26.609 20.797-28.078h-10.594l-15.922 21.484-15.906-21.484h-10.609l21.25 28.609-19.438 26.078h10.594l14.5-19.484 14.5 19.484z"/>
<path id="t" d="m48.781 52.594v-8.4062q-3.8125 2.1094-7.6406 3.1562t-7.7344 1.0469q-8.75 0-13.594-5.5469-4.8281-5.5312-4.8281-15.547t4.8281-15.562q4.8438-5.5312 13.594-5.5312 3.9062 0 7.7344 1.0469t7.6406 3.1562v-8.3125q-3.7656-1.75-7.7969-2.625-4.0156-0.89062-8.5625-0.89062-12.359 0-19.641 7.7656-7.2656 7.7656-7.2656 20.953 0 13.375 7.3438 21.031 7.3594 7.6719 20.156 7.6719 4.1406 0 8.0938-0.85938 3.9531-0.84375 7.6719-2.5469z"/>
<path id="ai" d="m8.5 21.578v33.109h8.9844v-32.766q0-7.7656 3.0156-11.656 3.0312-3.875 9.0938-3.875 7.2656 0 11.484 4.6406 4.2344 4.6406 4.2344 12.656v31h8.9844v-54.688h-8.9844v8.4062q-3.2656-4.9844-7.5938-7.4062-4.3125-2.4219-10.031-2.4219-9.4219 0-14.312 5.8594-4.875 5.8594-4.875 17.141z"/>
<path id="r" d="m18.312 70.219v-15.531h18.5v-6.9844h-18.5v-29.688q0-6.6875 1.8281-8.5938t7.4531-1.9062h9.2188v-7.5156h-9.2188q-10.406 0-14.359 3.875-3.9531 3.8906-3.9531 14.141v29.688h-6.5938v6.9844h6.5938v15.531z"/>
<path id="am" d="m2.9844 54.688h9.5156l17.094-45.891 17.094 45.891h9.5156l-20.516-54.688h-12.203z"/>
<path id="u" d="m44.281 53.078v-8.5q-3.7969 1.9531-7.9062 2.9219-4.0938 0.98438-8.5 0.98438-6.6875 0-10.031-2.0469t-3.3438-6.1562q0-3.125 2.3906-4.9062t9.625-3.3906l3.0781-0.6875q9.5625-2.0469 13.594-5.7812t4.0312-10.422q0-7.625-6.0312-12.078-6.0312-4.4375-16.578-4.4375-4.3906 0-9.1562 0.85938t-10.031 2.5625v9.2812q4.9844-2.5938 9.8125-3.8906 4.8281-1.2812 9.5781-1.2812 6.3438 0 9.75 2.1719 3.4219 2.1719 3.4219 6.125 0 3.6562-2.4688 5.6094-2.4531 1.9531-10.812 3.7656l-3.125 0.73438q-8.3438 1.75-12.062 5.3906-3.7031 3.6406-3.7031 9.9844 0 7.7188 5.4688 11.906 5.4688 4.2031 15.531 4.2031 4.9688 0 9.3594-0.73438 4.4062-0.71875 8.1094-2.1875z"/>
</defs>
<g transform="translate(94.397 816.64) scale(.1 -.1)">
<use xlink:href="#d"/>
<use x="61.507812" xlink:href="#au"/>
<use x="120.640625" xlink:href="#d"/>
<use x="182.164062" xlink:href="#t"/>
<use x="237.144531" xlink:href="#ai"/>
<use x="300.523438" xlink:href="#r"/>
<use x="339.732422" xlink:href="#i"/>
<use x="367.515625" xlink:href="#am"/>
<use x="426.695312" xlink:href="#d"/>
<use x="488.21875" xlink:href="#u"/>
</g>
</g>
<g clip-path="url(#a)">
<g transform="translate(163.92 816.64) scale(.1 -.1)">
<use xlink:href="#e"/>
<use x="61.279297" xlink:href="#r"/>
</g>
</g>
<g clip-path="url(#a)">
<defs>
<path id="ao" d="m53.516 70.516v-9.625q-5.6094 2.6875-10.594 4-4.9844 1.3281-9.625 1.3281-8.0469 0-12.422-3.125t-4.375-8.8906q0-4.8438 2.9062-7.3125 2.9062-2.4531 11.016-3.9688l5.9531-1.2188q11.031-2.1094 16.281-7.4062t5.25-14.172q0-10.609-7.1094-16.078-7.0938-5.4688-20.812-5.4688-5.1719 0-11.016 1.1719-5.8281 1.1719-12.078 3.4688v10.156q6-3.3594 11.766-5.0781 5.7656-1.7031 11.328-1.7031 8.4375 0 13.031 3.3125 4.5938 3.3281 4.5938 9.4844 0 5.3594-3.2969 8.3906t-10.812 4.5469l-6.0156 1.1719q-11.031 2.1875-15.969 6.875-4.9219 4.6875-4.9219 13.047 0 9.6719 6.8125 15.234t18.766 5.5625q5.1406 0 10.453-0.9375 5.3281-0.92188 10.891-2.7656z"/>
<path id="s" d="m30.609 48.391q-7.2188 0-11.422-5.6406t-4.2031-15.453 4.1719-15.453q4.1875-5.6406 11.453-5.6406 7.1875 0 11.375 5.6562 4.2031 5.6719 4.2031 15.438 0 9.7188-4.2031 15.406-4.1875 5.6875-11.375 5.6875zm0 7.6094q11.719 0 18.406-7.625 6.7031-7.6094 6.7031-21.078 0-13.422-6.7031-21.078-6.6875-7.6406-18.406-7.6406-11.766 0-18.438 7.6406-6.6562 7.6562-6.6562 21.078 0 13.469 6.6562 21.078 6.6719 7.625 18.438 7.625z"/>
<path id="z" d="m32.172-5.0781q-3.7969-9.7656-7.4219-12.734-3.6094-2.9844-9.6562-2.9844h-7.1875v7.5156h5.2812q3.7031 0 5.75 1.7656 2.0625 1.75 4.5469 8.2969l1.6094 4.0938-22.109 53.812h9.5156l17.094-42.766 17.094 42.766h9.5156z"/>
</defs>
<g transform="translate(204.12 816.64) scale(.1 -.1)">
<use xlink:href="#ao"/>
<use x="63.476562" xlink:href="#s"/>
<use x="124.658203" xlink:href="#j"/>
<use x="188.037109" xlink:href="#z"/>
</g>
</g>
<g clip-path="url(#a)">
<defs>
<path id="aq" d="m9.8125 72.906h14.703l18.594-49.609 18.703 49.609h14.703v-72.906h-9.625v64.016l-18.797-50h-9.9062l-18.797 50v-64.016h-9.5781z"/>
</defs>
<g transform="translate(249.79 816.64) scale(.1 -.1)">
<use xlink:href="#aq"/>
<use x="86.279297" xlink:href="#ai"/>
<use x="149.658203" xlink:href="#u"/>
<use x="201.757812" xlink:href="#i"/>
<use x="229.541016" xlink:href="#t"/>
</g>
</g>
<g clip-path="url(#a)">
<defs>
<path id="al" d="m11.719 12.406h10.297v-8.4062l-8-15.625h-6.2969l4 15.625z"/>
</defs>
<g transform="translate(309.96 816.64) scale(.1 -.1)">
<use xlink:href="#al"/>
</g>
</g>
<g clip-path="url(#a)">
<g transform="translate(350.88 816.64) scale(.1 -.1)">
<use xlink:href="#r"/>
<use x="39.208984" xlink:href="#v"/>
<use x="102.587891" xlink:href="#d"/>
</g>
</g>
<g clip-path="url(#a)">
<defs>
<path id="ae" d="m18.109 8.2031v-29h-9.0312v75.484h9.0312v-8.2969q2.8438 4.875 7.1562 7.2344 4.3281 2.375 10.328 2.375 9.9688 0 16.188-7.9062 6.2344-7.9062 6.2344-20.797t-6.2344-20.812q-6.2188-7.9062-16.188-7.9062-6 0-10.328 2.375-4.3125 2.375-7.1562 7.25zm30.578 19.094q0 9.9062-4.0781 15.547t-11.203 5.6406q-7.1406 0-11.219-5.6406t-4.0781-15.547 4.0781-15.547 11.219-5.6406q7.125 0 11.203 5.6406t4.0781 15.547z"/>
</defs>
<g transform="translate(390.12 816.64) scale(.1 -.1)">
<use xlink:href="#ae"/>
<use x="63.476562" xlink:href="#e"/>
<use x="124.755859" xlink:href="#g"/>
<use x="165.837891" xlink:href="#d"/>
<use x="227.361328" xlink:href="#j"/>
<use x="290.740234" xlink:href="#r"/>
</g>
</g>
<g clip-path="url(#a)">
<g transform="translate(431.11 816.64) scale(.1 -.1)">
<use xlink:href="#t"/>
<use x="54.980469" xlink:href="#s"/>
<use x="116.162109" xlink:href="#k"/>
<use x="213.574219" xlink:href="#ae"/>
<use x="277.050781" xlink:href="#e"/>
<use x="338.330078" xlink:href="#j"/>
<use x="401.708984" xlink:href="#z"/>
</g>
</g>
<g clip-path="url(#a)">
<defs>
<path id="aj" d="m37.109 75.984v-7.4844h-8.5938q-4.8281 0-6.7188-1.9531-1.875-1.9531-1.875-7.0312v-4.8281h14.797v-6.9844h-14.797v-47.703h-9.0312v47.703h-8.5938v6.9844h8.5938v3.8125q0 9.125 4.25 13.297 4.25 4.1875 13.469 4.1875z"/>
</defs>
<g transform="translate(496.87 816.64) scale(.1 -.1)">
<use xlink:href="#s"/>
<use x="61.181641" xlink:href="#aj"/>
</g>
</g>
<g clip-path="url(#a)">
<g transform="translate(534.58 816.64) scale(.1 -.1)">
<use xlink:href="#p"/>
<use x="69.824219" xlink:href="#e"/>
<use x="131.103516" xlink:href="#g"/>
<use x="172.185547" xlink:href="#d"/>
<use x="233.708984" xlink:href="#z"/>
</g>
</g>
<g clip-path="url(#a)">
<defs>
<path id="at" d="m17.922 72.906v-27.109h-8.2969v27.109z"/>
</defs>
<g transform="translate(592.78 816.64) scale(.1 -.1)">
<use xlink:href="#at"/>
<use x="27.490234" xlink:href="#u"/>
</g>
</g>
<g clip-path="url(#a)">
<defs>
<path id="af" d="m48.688 27.297q0 9.9062-4.0781 15.547t-11.203 5.6406q-7.1406 0-11.219-5.6406t-4.0781-15.547 4.0781-15.547 11.219-5.6406q7.125 0 11.203 5.6406t4.0781 15.547zm-30.578 19.094q2.8438 4.875 7.1562 7.2344 4.3281 2.375 10.328 2.375 9.9688 0 16.188-7.9062 6.2344-7.9062 6.2344-20.797t-6.2344-20.812q-6.2188-7.9062-16.188-7.9062-6 0-10.328 2.375-4.3125 2.375-7.1562 7.25v-8.2031h-9.0312v75.984h9.0312z"/>
</defs>
<g transform="translate(632.2 816.64) scale(.1 -.1)">
<use xlink:href="#h"/>
<use x="27.783203" xlink:href="#e"/>
<use x="89.0625" xlink:href="#af"/>
<use x="152.539062" xlink:href="#d"/>
<use x="214.0625" xlink:href="#h"/>
</g>
</g>
<g clip-path="url(#a)">
<g transform="translate(668.22 816.64) scale(.1 -.1)">
<use xlink:href="#p"/>
<use x="69.824219" xlink:href="#s"/>
<use x="131.005859" xlink:href="#h"/>
<use x="158.789062" xlink:href="#ai"/>
<use x="222.167969" xlink:href="#k"/>
<use x="319.580078" xlink:href="#af"/>
<use x="383.056641" xlink:href="#i"/>
<use x="410.839844" xlink:href="#e"/>
</g>
</g>
<g clip-path="url(#a)">
<g transform="translate(737.78 816.64) scale(.1 -.1)">
<use xlink:href="#al"/>
</g>
</g>
<g clip-path="url(#a)">
<defs>
<path id="av" d="m4.2031 54.688h8.9844l11.234-42.672 11.172 42.672h10.594l11.234-42.672 11.188 42.672h8.9844l-14.312-54.688h-10.594l-11.766 44.828-11.812-44.828h-10.609z"/>
<path id="an" d="m45.406 46.391v29.594h8.9844v-75.984h-8.9844v8.2031q-2.8281-4.875-7.1562-7.25-4.3125-2.375-10.375-2.375-9.9062 0-16.141 7.9062-6.2188 7.9219-6.2188 20.812t6.2188 20.797q6.2344 7.9062 16.141 7.9062 6.0625 0 10.375-2.375 4.3281-2.3594 7.1562-7.2344zm-30.609-19.094q0-9.9062 4.0781-15.547t11.203-5.6406 11.219 5.6406q4.1094 5.6406 4.1094 15.547t-4.1094 15.547q-4.0938 5.6406-11.219 5.6406t-11.203-5.6406-4.0781-15.547z"/>
</defs>
<g transform="translate(768.37 816.64) scale(.1 -.1)">
<use xlink:href="#av"/>
<use x="81.787109" xlink:href="#e"/>
<use x="143.066406" xlink:href="#j"/>
<use x="206.445312" xlink:href="#r"/>
<use x="245.654297" xlink:href="#d"/>
<use x="307.177734" xlink:href="#an"/>
</g>
</g>
<g clip-path="url(#a)">
<g transform="translate(826.13 816.64) scale(.1 -.1)">
<use xlink:href="#v"/>
<use x="63.378906" xlink:href="#d"/>
<use x="124.902344" xlink:href="#g"/>
</g>
</g>
<g clip-path="url(#a)">
<g transform="translate(876.95 816.64) scale(.1 -.1)">
<use xlink:href="#r"/>
<use x="39.208984" xlink:href="#s"/>
</g>
</g>
<g clip-path="url(#a)">
<g transform="translate(909.83 816.64) scale(.1 -.1)">
<use xlink:href="#ae"/>
<use x="63.476562" xlink:href="#g"/>
<use x="104.558594" xlink:href="#d"/>
<use x="166.082031" xlink:href="#ae"/>
<use x="229.558594" xlink:href="#e"/>
<use x="290.837891" xlink:href="#g"/>
<use x="331.919922" xlink:href="#d"/>
</g>
</g>
<g clip-path="url(#a)">
<g transform="translate(973.97 816.64) scale(.1 -.1)">
<use xlink:href="#e"/>
</g>
</g>
<g clip-path="url(#a)">
<defs>
<path id="aw" d="m45.406 27.984q0 9.7656-4.0312 15.125-4.0156 5.375-11.297 5.375-7.2188 0-11.25-5.375-4.0312-5.3594-4.0312-15.125 0-9.7188 4.0312-15.094t11.25-5.375q7.2812 0 11.297 5.375 4.0312 5.375 4.0312 15.094zm8.9844-21.203q0-13.953-6.2031-20.766-6.1875-6.8125-18.984-6.8125-4.7344 0-8.9375 0.70312t-8.1562 2.1719v8.7344q3.9531-2.1406 7.8125-3.1562 3.8594-1.0312 7.8594-1.0312 8.8438 0 13.234 4.6094t4.3906 13.938v4.4531q-2.7812-4.8438-7.125-7.2344t-10.406-2.3906q-10.047 0-16.203 7.6562-6.1562 7.6719-6.1562 20.328 0 12.688 6.1562 20.344 6.1562 7.6719 16.203 7.6719 6.0625 0 10.406-2.3906t7.125-7.2188v8.2969h8.9844z"/>
</defs>
<g transform="translate(1003.6 816.64) scale(.1 -.1)">
<use xlink:href="#aw"/>
<use x="63.476562" xlink:href="#g"/>
<use x="104.558594" xlink:href="#d"/>
<use x="166.082031" xlink:href="#e"/>
<use x="227.361328" xlink:href="#r"/>
<use x="266.570312" xlink:href="#d"/>
<use x="328.09375" xlink:href="#u"/>
<use x="380.193359" xlink:href="#r"/>
</g>
</g>
<g clip-path="url(#a)">
<g transform="translate(1063 816.64) scale(.1 -.1)">
<use xlink:href="#v"/>
<use x="63.378906" xlink:href="#i"/>
<use x="91.162109" xlink:href="#r"/>
<use x="130.371094" xlink:href="#u"/>
</g>
</g>
<g clip-path="url(#a)">
<g transform="translate(1095.7 816.64) scale(.1 -.1)">
<use xlink:href="#t"/>
<use x="54.980469" xlink:href="#s"/>
<use x="116.162109" xlink:href="#h"/>
<use x="143.945312" xlink:href="#h"/>
<use x="171.728516" xlink:href="#d"/>
<use x="233.251953" xlink:href="#t"/>
<use x="288.232422" xlink:href="#r"/>
<use x="327.441406" xlink:href="#i"/>
<use x="355.224609" xlink:href="#s"/>
<use x="416.40625" xlink:href="#j"/>
</g>
</g>
<g clip-path="url(#a)">
<g transform="translate(1162.6 816.64) scale(.1 -.1)">
<use xlink:href="#i"/>
<use x="27.783203" xlink:href="#j"/>
</g>
</g>
<g clip-path="url(#a)">
<g transform="translate(1203.4 816.64) scale(.1 -.1)">
<use xlink:href="#r"/>
<use x="39.208984" xlink:href="#i"/>
<use x="66.992188" xlink:href="#k"/>
<use x="164.404297" xlink:href="#d"/>
</g>
</g>
<g clip-path="url(#a)">
<g transform="translate(1255.4 816.64) scale(.1 -.1)">
<use xlink:href="#aj"/>
<use x="35.205078" xlink:href="#s"/>
<use x="96.386719" xlink:href="#g"/>
</g>
</g>
<g clip-path="url(#a)">
<g transform="translate(1301.6 816.64) scale(.1 -.1)">
<use xlink:href="#r"/>
<use x="39.208984" xlink:href="#v"/>
<use x="102.587891" xlink:href="#d"/>
</g>
</g>
<g clip-path="url(#a)">
<g transform="translate(1323.7 816.64) scale(.1 -.1)">
<use xlink:href="#t"/>
<use x="54.980469" xlink:href="#s"/>
<use x="116.162109" xlink:href="#k"/>
<use x="213.574219" xlink:href="#k"/>
<use x="310.986328" xlink:href="#d"/>
<use x="372.509766" xlink:href="#g"/>
<use x="413.591797" xlink:href="#t"/>
<use x="468.572266" xlink:href="#i"/>
<use x="496.355469" xlink:href="#e"/>
<use x="557.634766" xlink:href="#h"/>
<use x="585.417969" xlink:href="#h"/>
<use x="613.201172" xlink:href="#z"/>
</g>
</g>
<g clip-path="url(#a)">
<g transform="translate(1381.2 816.64) scale(.1 -.1)">
<use xlink:href="#aj"/>
<use x="35.205078" xlink:href="#e"/>
<use x="96.484375" xlink:href="#am"/>
<use x="155.664062" xlink:href="#s"/>
<use x="216.845703" xlink:href="#g"/>
<use x="257.958984" xlink:href="#e"/>
<use x="319.238281" xlink:href="#af"/>
<use x="382.714844" xlink:href="#h"/>
<use x="410.498047" xlink:href="#d"/>
</g>
</g>
<g clip-path="url(#a)">
<g transform="translate(1434.2 816.64) scale(.1 -.1)">
<use xlink:href="#v"/>
<use x="63.378906" xlink:href="#s"/>
<use x="124.560547" xlink:href="#h"/>
<use x="152.34375" xlink:href="#i"/>
<use x="180.126953" xlink:href="#an"/>
<use x="243.603516" xlink:href="#e"/>
<use x="304.882812" xlink:href="#z"/>
</g>
</g>
<g clip-path="url(#a)">
<g transform="translate(1482.3 816.64) scale(.1 -.1)">
<use xlink:href="#u"/>
<use x="52.099609" xlink:href="#d"/>
<use x="113.623047" xlink:href="#e"/>
<use x="174.902344" xlink:href="#u"/>
<use x="227.001953" xlink:href="#s"/>
<use x="288.183594" xlink:href="#j"/>
</g>
</g>
<g clip-path="url(#a)">
<defs>
<path id="f" d="m10.688 12.406h10.312v-12.406h-10.312z"/>
</defs>
<g transform="translate(1545.9 816.64) scale(.1 -.1)">
<use xlink:href="#f"/>
</g>
</g>
<g clip-path="url(#a)">
<defs>
<path id="c" d="m12.406 8.2969h16.109v55.625l-17.531-3.5156v8.9844l17.438 3.5156h9.8594v-64.609h16.109v-8.2969h-41.984z"/>
</defs>
<g transform="translate(823.71 42.217) scale(.1 -.1)">
<use xlink:href="#c"/>
<use x="63.623047" xlink:href="#f"/>
<use x="95.410156" xlink:href="#c"/>
</g>
</g>
<g clip-path="url(#a)">
<defs>
<path id="n" d="m19.188 8.2969h34.422v-8.2969h-46.281v8.2969q5.6094 5.8125 15.297 15.594 9.7031 9.7969 12.188 12.641 4.7344 5.3125 6.6094 9 1.8906 3.6875 1.8906 7.25 0 5.8125-4.0781 9.4688-4.0781 3.6719-10.625 3.6719-4.6406 0-9.7969-1.6094-5.1406-1.6094-11-4.8906v9.9688q5.9531 2.3906 11.125 3.6094 5.1875 1.2188 9.4844 1.2188 11.328 0 18.062-5.6719 6.7344-5.6562 6.7344-15.125 0-4.5-1.6875-8.5312-1.6719-4.0156-6.125-9.4844-1.2188-1.4219-7.7656-8.1875-6.5312-6.7656-18.453-18.922z"/>
</defs>
<g transform="translate(823.71 147.32) scale(.1 -.1)">
<use xlink:href="#c"/>
<use x="63.623047" xlink:href="#f"/>
<use x="95.410156" xlink:href="#n"/>
</g>
</g>
<g clip-path="url(#a)">
<defs>
<path id="q" d="m37.797 64.312-24.906-38.922h24.906zm-2.5938 8.5938h12.406v-47.516h10.406v-8.2031h-10.406v-17.188h-9.8125v17.188h-32.906v9.5156z"/>
</defs>
<g transform="translate(161.25 249.41) scale(.1 -.1)">
<use xlink:href="#c"/>
<use x="63.623047" xlink:href="#f"/>
<use x="95.410156" xlink:href="#q"/>
</g>
</g>
<g clip-path="url(#a)">
<defs>
<path id="y" d="m10.797 72.906h38.719v-8.3125h-29.688v-17.859q2.1406 0.73438 4.2812 1.0938 2.1562 0.35938 4.3125 0.35938 12.203 0 19.328-6.6875 7.1406-6.6875 7.1406-18.109 0-11.766-7.3281-18.297-7.3281-6.5156-20.656-6.5156-4.5938 0-9.3594 0.78125-4.75 0.78125-9.8281 2.3438v9.9219q4.3906-2.3906 9.0781-3.5625t9.9062-1.1719q8.4531 0 13.375 4.4375 4.9375 4.4375 4.9375 12.062 0 7.6094-4.9375 12.047-4.9219 4.4531-13.375 4.4531-3.9531 0-7.8906-0.875-3.9219-0.875-8.0156-2.7344z"/>
</defs>
<g transform="translate(778.95 724.97) scale(.1 -.1)">
<use xlink:href="#c"/>
<use x="63.623047" xlink:href="#f"/>
<use x="95.410156" xlink:href="#y"/>
</g>
</g>
<g clip-path="url(#a)">
<defs>
<path id="x" d="m33.016 40.375q-6.6406 0-10.531-4.5469-3.875-4.5312-3.875-12.438 0-7.8594 3.875-12.438 3.8906-4.5625 10.531-4.5625t10.516 4.5625q3.875 4.5781 3.875 12.438 0 7.9062-3.875 12.438-3.875 4.5469-10.516 4.5469zm19.578 30.922v-8.9844q-3.7188 1.75-7.5 2.6719-3.7812 0.9375-7.5 0.9375-9.7656 0-14.922-6.5938-5.1406-6.5938-5.875-19.922 2.875 4.25 7.2188 6.5156 4.3594 2.2656 9.5781 2.2656 10.984 0 17.359-6.6719 6.375-6.6562 6.375-18.125 0-11.234-6.6406-18.031-6.6406-6.7812-17.672-6.7812-12.656 0-19.344 9.6875-6.6875 9.7031-6.6875 28.109 0 17.281 8.2031 27.562t22.016 10.281q3.7188 0 7.5-0.73438t7.8906-2.1875z"/>
</defs>
<g transform="translate(826.48 724.97) scale(.1 -.1)">
<use xlink:href="#c"/>
<use x="63.623047" xlink:href="#f"/>
<use x="95.410156" xlink:href="#x"/>
</g>
</g>
<g clip-path="url(#a)">
<defs>
<path id="ac" d="m8.2031 72.906h46.875v-4.2031l-26.469-68.703h-10.297l24.906 64.594h-35.016z"/>
</defs>
<g transform="translate(874.02 724.97) scale(.1 -.1)">
<use xlink:href="#c"/>
<use x="63.623047" xlink:href="#f"/>
<use x="95.410156" xlink:href="#ac"/>
</g>
</g>
<g clip-path="url(#a)">
<defs>
<path id="ab" d="m31.781 34.625q-7.0312 0-11.062-3.7656-4.0156-3.7656-4.0156-10.344 0-6.5938 4.0156-10.359 4.0312-3.7656 11.062-3.7656t11.078 3.7812q4.0625 3.7969 4.0625 10.344 0 6.5781-4.0312 10.344-4.0156 3.7656-11.109 3.7656zm-9.8594 4.1875q-6.3438 1.5625-9.8906 5.9062-3.5312 4.3594-3.5312 10.609 0 8.7344 6.2188 13.812 6.2344 5.0781 17.062 5.0781 10.891 0 17.094-5.0781t6.2031-13.812q0-6.25-3.5469-10.609-3.5312-4.3438-9.8281-5.9062 7.125-1.6562 11.094-6.5 3.9844-4.8281 3.9844-11.797 0-10.609-6.4688-16.281-6.4688-5.6562-18.531-5.6562-12.047 0-18.531 5.6562-6.4688 5.6719-6.4688 16.281 0 6.9688 4 11.797 4.0156 4.8438 11.141 6.5zm-3.6094 15.578q0-5.6562 3.5312-8.8281 3.5469-3.1719 9.9375-3.1719 6.3594 0 9.9375 3.1719 3.5938 3.1719 3.5938 8.8281 0 5.6719-3.5938 8.8438-3.5781 3.1719-9.9375 3.1719-6.3906 0-9.9375-3.1719-3.5312-3.1719-3.5312-8.8438z"/>
</defs>
<g transform="translate(921.55 724.97) scale(.1 -.1)">
<use xlink:href="#c"/>
<use x="63.623047" xlink:href="#f"/>
<use x="95.410156" xlink:href="#ab"/>
</g>
</g>
<g clip-path="url(#a)">
<defs>
<path id="aa" d="m10.984 1.5156v8.9844q3.7188-1.7656 7.5156-2.6875 3.8125-0.92188 7.4844-0.92188 9.7656 0 14.906 6.5625 5.1562 6.5625 5.8906 19.953-2.8281-4.2031-7.1875-6.4531-4.3438-2.25-9.6094-2.25-10.938 0-17.312 6.6094-6.375 6.625-6.375 18.109 0 11.219 6.6406 18 6.6406 6.7969 17.672 6.7969 12.656 0 19.312-9.7031 6.6719-9.6875 6.6719-28.141 0-17.234-8.1875-27.516-8.1719-10.281-21.984-10.281-3.7188 0-7.5312 0.73438-3.7969 0.73438-7.9062 2.2031zm19.625 30.906q6.6406 0 10.516 4.5312 3.8906 4.5469 3.8906 12.469 0 7.8594-3.8906 12.422-3.875 4.5625-10.516 4.5625t-10.516-4.5625-3.875-12.422q0-7.9219 3.875-12.469 3.875-4.5312 10.516-4.5312z"/>
</defs>
<g transform="translate(1040.4 633.31) scale(.1 -.1)">
<use xlink:href="#c"/>
<use x="63.623047" xlink:href="#f"/>
<use x="95.410156" xlink:href="#aa"/>
</g>
</g>
<g clip-path="url(#a)">
<defs>
<path id="ad" d="m31.781 66.406q-7.6094 0-11.453-7.5-3.8281-7.4844-3.8281-22.531 0-14.984 3.8281-22.484 3.8438-7.5 11.453-7.5 7.6719 0 11.5 7.5 3.8438 7.5 3.8438 22.484 0 15.047-3.8438 22.531-3.8281 7.5-11.5 7.5zm0 7.8125q12.266 0 18.734-9.7031 6.4688-9.6875 6.4688-28.141 0-18.406-6.4688-28.109-6.4688-9.6875-18.734-9.6875-12.25 0-18.719 9.6875-6.4688 9.7031-6.4688 28.109 0 18.453 6.4688 28.141 6.4688 9.7031 18.719 9.7031z"/>
</defs>
<g transform="translate(1252.4 445.65) scale(.1 -.1)">
<use xlink:href="#c"/>
<use x="63.623047" xlink:href="#f"/>
<use x="95.410156" xlink:href="#c"/>
<use x="159.033203" xlink:href="#ad"/>
</g>
</g>
<g clip-path="url(#a)">
<g transform="translate(1156 724.97) scale(.1 -.1)">
<use xlink:href="#c"/>
<use x="63.623047" xlink:href="#f"/>
<use x="95.410156" xlink:href="#c"/>
<use x="159.033203" xlink:href="#n"/>
</g>
</g>
<g clip-path="url(#a)">
<defs>
<path id="o" d="m40.578 39.312q7.0781-1.5156 11.047-6.3125 3.9844-4.7812 3.9844-11.812 0-10.781-7.4219-16.703-7.4219-5.9062-21.094-5.9062-4.5781 0-9.4375 0.90625t-10.031 2.7188v9.5156q4.0938-2.3906 8.9688-3.6094 4.8906-1.2188 10.219-1.2188 9.2656 0 14.125 3.6562t4.8594 10.641q0 6.4531-4.5156 10.078-4.5156 3.6406-12.562 3.6406h-8.5v8.1094h8.8906q7.2656 0 11.125 2.9062t3.8594 8.375q0 5.6094-3.9844 8.6094-3.9688 3.0156-11.391 3.0156-4.0625 0-8.7031-0.89062-4.6406-0.875-10.203-2.7188v8.7812q5.625 1.5625 10.531 2.3438t9.25 0.78125q11.234 0 17.766-5.1094 6.5469-5.0938 6.5469-13.781 0-6.0625-3.4688-10.234t-9.8594-5.7812z"/>
</defs>
<g transform="translate(1203.6 724.97) scale(.1 -.1)">
<use xlink:href="#c"/>
<use x="63.623047" xlink:href="#f"/>
<use x="95.410156" xlink:href="#c"/>
<use x="159.033203" xlink:href="#o"/>
</g>
</g>
<g clip-path="url(#a)">
<g transform="translate(1397.7 540.38) scale(.1 -.1)">
<use xlink:href="#c"/>
<use x="63.623047" xlink:href="#f"/>
<use x="95.410156" xlink:href="#c"/>
<use x="159.033203" xlink:href="#q"/>
</g>
</g>
<g clip-path="url(#a)">
<g transform="translate(1251.1 724.97) scale(.1 -.1)">
<use xlink:href="#c"/>
<use x="63.623047" xlink:href="#f"/>
<use x="95.410156" xlink:href="#c"/>
<use x="159.033203" xlink:href="#y"/>
</g>
</g>
<g clip-path="url(#a)">
<g transform="translate(1298.6 724.97) scale(.1 -.1)">
<use xlink:href="#c"/>
<use x="63.623047" xlink:href="#f"/>
<use x="95.410156" xlink:href="#c"/>
<use x="159.033203" xlink:href="#x"/>
</g>
</g>
<g clip-path="url(#a)">
<g transform="translate(1369.9 633.31) scale(.1 -.1)">
<use xlink:href="#c"/>
<use x="63.623047" xlink:href="#f"/>
<use x="95.410156" xlink:href="#c"/>
<use x="159.033203" xlink:href="#ac"/>
</g>
</g>
<g clip-path="url(#a)">
<g transform="translate(1441.3 724.97) scale(.1 -.1)">
<use xlink:href="#c"/>
<use x="63.623047" xlink:href="#f"/>
<use x="95.410156" xlink:href="#c"/>
<use x="159.033203" xlink:href="#ab"/>
</g>
</g>
<g clip-path="url(#a)">
<g transform="translate(1488.8 724.97) scale(.1 -.1)">
<use xlink:href="#c"/>
<use x="63.623047" xlink:href="#f"/>
<use x="95.410156" xlink:href="#c"/>
<use x="159.033203" xlink:href="#aa"/>
</g>
</g>
<g clip-path="url(#a)">
<g transform="translate(1346.2 724.97) scale(.1 -.1)">
<use xlink:href="#c"/>
<use x="63.623047" xlink:href="#f"/>
<use x="95.410156" xlink:href="#n"/>
<use x="159.033203" xlink:href="#ad"/>
</g>
</g>
<g clip-path="url(#a)">
<g transform="translate(1393.7 724.97) scale(.1 -.1)">
<use xlink:href="#c"/>
<use x="63.623047" xlink:href="#f"/>
<use x="95.410156" xlink:href="#n"/>
<use x="159.033203" xlink:href="#c"/>
</g>
</g>
<g clip-path="url(#a)">
<g transform="translate(965.91 724.97) scale(.1 -.1)">
<use xlink:href="#c"/>
<use x="63.623047" xlink:href="#f"/>
<use x="95.410156" xlink:href="#n"/>
<use x="159.033203" xlink:href="#n"/>
</g>
</g>
<g clip-path="url(#a)">
<g transform="translate(1013.4 724.97) scale(.1 -.1)">
<use xlink:href="#c"/>
<use x="63.623047" xlink:href="#f"/>
<use x="95.410156" xlink:href="#n"/>
<use x="159.033203" xlink:href="#o"/>
</g>
</g>
<g clip-path="url(#a)">
<g transform="translate(1061 724.97) scale(.1 -.1)">
<use xlink:href="#c"/>
<use x="63.623047" xlink:href="#f"/>
<use x="95.410156" xlink:href="#n"/>
<use x="159.033203" xlink:href="#q"/>
</g>
</g>
<g clip-path="url(#a)">
<g transform="translate(1108.5 724.97) scale(.1 -.1)">
<use xlink:href="#c"/>
<use x="63.623047" xlink:href="#f"/>
<use x="95.410156" xlink:href="#n"/>
<use x="159.033203" xlink:href="#y"/>
</g>
</g>
<g clip-path="url(#a)">
<g transform="translate(62.747 724.97) scale(.1 -.1)">
<use xlink:href="#c"/>
<use x="63.623047" xlink:href="#f"/>
<use x="95.410156" xlink:href="#n"/>
<use x="159.033203" xlink:href="#x"/>
</g>
</g>
<g clip-path="url(#a)">
<g transform="translate(110.28 724.97) scale(.1 -.1)">
<use xlink:href="#c"/>
<use x="63.623047" xlink:href="#f"/>
<use x="95.410156" xlink:href="#n"/>
<use x="159.033203" xlink:href="#ac"/>
</g>
</g>
<g clip-path="url(#a)">
<g transform="translate(301.16 348.76) scale(.1 -.1)">
<use xlink:href="#c"/>
<use x="63.623047" xlink:href="#f"/>
<use x="95.410156" xlink:href="#n"/>
<use x="159.033203" xlink:href="#ab"/>
</g>
</g>
<g clip-path="url(#a)">
<g transform="translate(157.82 724.97) scale(.1 -.1)">
<use xlink:href="#c"/>
<use x="63.623047" xlink:href="#f"/>
<use x="95.410156" xlink:href="#n"/>
<use x="159.033203" xlink:href="#aa"/>
</g>
</g>
<g clip-path="url(#a)">
<g transform="translate(229.12 724.97) scale(.1 -.1)">
<use xlink:href="#c"/>
<use x="63.623047" xlink:href="#f"/>
<use x="95.410156" xlink:href="#o"/>
<use x="159.033203" xlink:href="#ad"/>
</g>
</g>
<g clip-path="url(#a)">
<g transform="translate(517.3 445.65) scale(.1 -.1)">
<use xlink:href="#c"/>
<use x="63.623047" xlink:href="#f"/>
<use x="95.410156" xlink:href="#o"/>
<use x="159.033203" xlink:href="#c"/>
</g>
</g>
<g clip-path="url(#a)">
<g transform="translate(347.95 724.97) scale(.1 -.1)">
<use xlink:href="#c"/>
<use x="63.623047" xlink:href="#f"/>
<use x="95.410156" xlink:href="#o"/>
<use x="159.033203" xlink:href="#o"/>
</g>
</g>
<g clip-path="url(#a)">
<g transform="translate(443.02 633.31) scale(.1 -.1)">
<use xlink:href="#c"/>
<use x="63.623047" xlink:href="#f"/>
<use x="95.410156" xlink:href="#o"/>
<use x="159.033203" xlink:href="#q"/>
</g>
</g>
<g clip-path="url(#a)">
<g transform="translate(597.51 540.38) scale(.1 -.1)">
<use xlink:href="#c"/>
<use x="63.623047" xlink:href="#f"/>
<use x="95.410156" xlink:href="#o"/>
<use x="159.033203" xlink:href="#y"/>
</g>
</g>
<g clip-path="url(#a)">
<g transform="translate(680.7 724.97) scale(.1 -.1)">
<use xlink:href="#c"/>
<use x="63.623047" xlink:href="#f"/>
<use x="95.410156" xlink:href="#o"/>
<use x="159.033203" xlink:href="#x"/>
</g>
</g>
<g clip-path="url(#a)">
<g transform="translate(561.86 633.31) scale(.1 -.1)">
<use xlink:href="#c"/>
<use x="63.623047" xlink:href="#f"/>
<use x="95.410156" xlink:href="#o"/>
<use x="159.033203" xlink:href="#ac"/>
</g>
</g>
<g clip-path="url(#a)">
<g transform="translate(633.16 724.97) scale(.1 -.1)">
<use xlink:href="#c"/>
<use x="63.623047" xlink:href="#f"/>
<use x="95.410156" xlink:href="#o"/>
<use x="159.033203" xlink:href="#ab"/>
</g>
</g>
<g clip-path="url(#a)">
<g transform="translate(538.09 724.97) scale(.1 -.1)">
<use xlink:href="#c"/>
<use x="63.623047" xlink:href="#f"/>
<use x="95.410156" xlink:href="#o"/>
<use x="159.033203" xlink:href="#aa"/>
</g>
</g>
<g clip-path="url(#a)">
<g transform="translate(585.63 724.97) scale(.1 -.1)">
<use xlink:href="#c"/>
<use x="63.623047" xlink:href="#f"/>
<use x="95.410156" xlink:href="#q"/>
<use x="159.033203" xlink:href="#ad"/>
</g>
</g>
<g clip-path="url(#a)">
<g transform="translate(395.49 724.97) scale(.1 -.1)">
<use xlink:href="#c"/>
<use x="63.623047" xlink:href="#f"/>
<use x="95.410156" xlink:href="#q"/>
<use x="159.033203" xlink:href="#c"/>
</g>
</g>
<g clip-path="url(#a)">
<g transform="translate(443.02 724.97) scale(.1 -.1)">
<use xlink:href="#c"/>
<use x="63.623047" xlink:href="#f"/>
<use x="95.410156" xlink:href="#q"/>
<use x="159.033203" xlink:href="#n"/>
</g>
</g>
<g clip-path="url(#a)">
<g transform="translate(490.56 724.97) scale(.1 -.1)">
<use xlink:href="#c"/>
<use x="63.623047" xlink:href="#f"/>
<use x="95.410156" xlink:href="#q"/>
<use x="159.033203" xlink:href="#o"/>
</g>
</g>
<g clip-path="url(#a)">
<g transform="translate(300.42 724.97) scale(.1 -.1)">
<use xlink:href="#c"/>
<use x="63.623047" xlink:href="#f"/>
<use x="95.410156" xlink:href="#q"/>
<use x="159.033203" xlink:href="#q"/>
</g>
</g>
<g clip-path="url(#a)">
<g transform="translate(728.23 724.97) scale(.1 -.1)">
<use xlink:href="#c"/>
<use x="63.623047" xlink:href="#f"/>
<use x="95.410156" xlink:href="#q"/>
<use x="159.033203" xlink:href="#y"/>
</g>
</g>
<g clip-path="url(#a)">
<g transform="translate(1536.3 724.97) scale(.1 -.1)">
<use xlink:href="#c"/>
<use x="63.623047" xlink:href="#f"/>
<use x="95.410156" xlink:href="#q"/>
<use x="159.033203" xlink:href="#x"/>
</g>
</g>
<defs>
<clipPath id="a">
<rect width="1621.3" height="853.33"/>
</clipPath>
</defs>
</svg>
