<?xml version="1.0" encoding="UTF-8"?>
<!DOCTYPE svg  PUBLIC '-//W3C//DTD SVG 1.1//EN'  'http://www.w3.org/Graphics/SVG/1.1/DTD/svg11.dtd'>
<svg width="1722.7pt" height="906.67pt" version="1.1" viewBox="0 0 1722.7 906.67" xmlns="http://www.w3.org/2000/svg" xmlns:xlink="http://www.w3.org/1999/xlink">
<defs>
<style type="text/css">*{stroke-linecap:butt;stroke-linejoin:round;white-space:pre;}</style>
</defs>
<path d="m0 906.67h1722.7v-906.67h-1722.7z" fill="#fff"/>
<g fill="none" stroke="#000">
<path d="m892.18 42.126-618.65 284.52" clip-path="url(#a)"/>
<path d="m892.18 42.126-7.1277 689.51" clip-path="url(#a)"/>
<path d="m892.18 42.126 127.3 421.87" clip-path="url(#a)"/>
<path d="m892.18 42.126 424.97 144.05" clip-path="url(#a)"/>
<path d="m892.18 42.126-102.02 689.51" clip-path="url(#a)"/>
<path d="m892.18 42.126-54.574 689.51" clip-path="url(#a)"/>
<path d="m892.18 42.126 230.1 689.51" clip-path="url(#a)"/>
<path d="m273.53 326.65-147.61 272.09" clip-path="url(#a)"/>
<path d="m273.53 326.65-5.2718 404.99" clip-path="url(#a)"/>
<path d="m273.53 326.65 42.174 404.99" clip-path="url(#a)"/>
<path d="m273.53 326.65 163.43 137.34" clip-path="url(#a)"/>
<path d="m273.53 326.65-52.718 404.99" clip-path="url(#a)"/>
<path d="m885.06 731.64v132.9" clip-path="url(#a)"/>
<path d="m1019.5 463.99-63.261 134.75" clip-path="url(#a)"/>
<path d="m1019.5 463.99 7.9077 267.65" clip-path="url(#a)"/>
<path d="m1019.5 463.99 55.354 267.65" clip-path="url(#a)"/>
<path d="m1317.2 186.17-123.7 277.82" clip-path="url(#a)"/>
<path d="m1317.2 186.17-52.529 545.47" clip-path="url(#a)"/>
<path d="m1317.2 186.17 176.23 140.47" clip-path="url(#a)"/>
<path d="m1193.5 463.99-23.723 267.65" clip-path="url(#a)"/>
<path d="m1193.5 463.99 23.723 134.75" clip-path="url(#a)"/>
<path d="m1264.6 731.64v132.9" clip-path="url(#a)"/>
<path d="m1493.4 326.65-181.31 404.99" clip-path="url(#a)"/>
<path d="m1493.4 326.65-98.281 137.34" clip-path="url(#a)"/>
<path d="m1493.4 326.65-38.973 404.99" clip-path="url(#a)"/>
<path d="m1493.4 326.65 8.4725 404.99" clip-path="url(#a)"/>
<path d="m1493.4 326.65 55.918 404.99" clip-path="url(#a)"/>
<path d="m1493.4 326.65 103.36 404.99" clip-path="url(#a)"/>
<path d="m1493.4 326.65 150.81 404.99" clip-path="url(#a)"/>
<path d="m1312.1 731.64v132.9" clip-path="url(#a)"/>
<path d="m1395.1 463.99-11.861 134.75" clip-path="url(#a)"/>
<path d="m1395.1 463.99 11.861 267.65" clip-path="url(#a)"/>
<path d="m1454.4 731.64v132.9" clip-path="url(#a)"/>
<path d="m1501.9 731.64v132.9" clip-path="url(#a)"/>
<path d="m1549.3 731.64v132.9" clip-path="url(#a)"/>
<path d="m1596.7 731.64v132.9" clip-path="url(#a)"/>
<path d="m1383.2 598.74 23.723 132.9" clip-path="url(#a)" stroke-dasharray="3.7,1.6"/>
<path d="m1383.2 598.74-23.723 132.9" clip-path="url(#a)"/>
<path d="m1407 731.64v132.9" clip-path="url(#a)"/>
<path d="m1359.5 731.64v132.9" clip-path="url(#a)"/>
<path d="m1169.7 731.64v132.9" clip-path="url(#a)"/>
<path d="m1217.2 598.74v132.9" clip-path="url(#a)"/>
<path d="m1217.2 731.64v132.9" clip-path="url(#a)"/>
<path d="m956.23 598.74-23.723 132.9" clip-path="url(#a)"/>
<path d="m956.23 598.74 23.723 132.9" clip-path="url(#a)"/>
<path d="m1027.4 731.64v132.9" clip-path="url(#a)"/>
<path d="m1074.8 731.64v132.9" clip-path="url(#a)"/>
<path d="m932.5 731.64v132.9" clip-path="url(#a)"/>
<path d="m979.95 731.64v132.9" clip-path="url(#a)"/>
<path d="m125.92 598.74-47.446 132.9" clip-path="url(#a)"/>
<path d="m125.92 598.74v132.9" clip-path="url(#a)"/>
<path d="m125.92 598.74 47.446 132.9" clip-path="url(#a)"/>
<path d="m268.26 731.64v132.9" clip-path="url(#a)"/>
<path d="m315.7 731.64v132.9" clip-path="url(#a)"/>
<path d="m436.96 463.99-73.805 267.65" clip-path="url(#a)"/>
<path d="m436.96 463.99-26.359 267.65" clip-path="url(#a)"/>
<path d="m436.96 463.99 100.16 134.75" clip-path="url(#a)"/>
<path d="m363.15 731.64v132.9" clip-path="url(#a)"/>
<path d="m410.6 731.64v132.9" clip-path="url(#a)"/>
<path d="m537.12 598.74-126.52 132.9" clip-path="url(#a)" stroke-dasharray="3.7,1.6"/>
<path d="m537.12 598.74-79.077 132.9" clip-path="url(#a)"/>
<path d="m537.12 598.74-31.631 132.9" clip-path="url(#a)"/>
<path d="m537.12 598.74 158.15 132.9" clip-path="url(#a)"/>
<path d="m537.12 598.74 15.815 132.9" clip-path="url(#a)"/>
<path d="m537.12 598.74 63.261 132.9" clip-path="url(#a)"/>
<path d="m458.04 731.64v132.9" clip-path="url(#a)"/>
<path d="m505.49 731.64v132.9" clip-path="url(#a)"/>
<path d="m695.27 731.64-47.446 132.9" clip-path="url(#a)"/>
<path d="m695.27 731.64v132.9" clip-path="url(#a)"/>
<path d="m695.27 731.64 47.446 132.9" clip-path="url(#a)"/>
<path d="m220.81 731.64v132.9" clip-path="url(#a)"/>
<path d="m552.93 731.64v132.9" clip-path="url(#a)"/>
<path d="m78.475 731.64v132.9" clip-path="url(#a)"/>
<path d="m125.92 731.64v132.9" clip-path="url(#a)"/>
<path d="m173.37 731.64v132.9" clip-path="url(#a)"/>
<path d="m600.38 731.64v132.9" clip-path="url(#a)"/>
<path d="m790.16 731.64v132.9" clip-path="url(#a)"/>
<path d="m837.61 731.64v132.9" clip-path="url(#a)"/>
<path d="m1122.3 731.64v132.9" clip-path="url(#a)"/>
<path d="m1644.2 731.64v132.9" clip-path="url(#a)"/>
</g>
<path d="m582.74 191.34 5.4659-2.5138q2.1805-1.0028 1.1777-3.1833l-3.2351-7.0342q-1.0028-2.1805-3.1833-1.1777l-5.4659 2.5138q-2.1805 1.0028-1.1777 3.1833l3.2351 7.0342q1.0028 2.1805 3.1833 1.1777z" clip-path="url(#a)" fill="#fff" stroke="#fff"/>
<g clip-path="url(#a)">
<defs>
<path id="al" d="m9.8125 72.906h9.8594v-29.891h35.844v29.891h9.8594v-72.906h-9.8594v34.719h-35.844v-34.719h-9.8594z"/>
</defs>
<g transform="translate(581.05 187.65) rotate(-24.698) scale(.08 -.08)">
<use xlink:href="#al"/>
</g>
</g>
<path d="m894.87 389.18 0.046075-4.4573q0.024808-2.3999-2.3751-2.4247l-7.7421-0.080032q-2.3999-0.024808-2.4247 2.3751l-0.046075 4.4573q-0.024808 2.3999 2.3751 2.4247l7.7421 0.080031q2.3999 0.024808 2.4247-2.3751z" clip-path="url(#a)" fill="#fff" stroke="#fff"/>
<g clip-path="url(#a)">
<defs>
<path id="au" d="m9.8125 72.906h9.8594v-64.609h35.5v-8.2969h-45.359z"/>
</defs>
<g transform="translate(890.8 389.13) rotate(-89.408) scale(.08 -.08)">
<use xlink:href="#au"/>
</g>
</g>
<path d="m948.96 251.99 1.7381 5.7597q0.69335 2.2977 2.991 1.6043l7.4124-2.2368q2.2977-0.69335 1.6043-2.991l-1.7381-5.7597q-0.69335-2.2977-2.991-1.6043l-7.4124 2.2368q-2.2977 0.69335-1.6043 2.991z" clip-path="url(#a)" fill="#fff" stroke="#fff"/>
<g clip-path="url(#a)">
<g transform="translate(952.85 250.82) rotate(73.208) scale(.08 -.08)">
<use xlink:href="#al"/>
</g>
</g>
<path d="m1099.8 119.12 5.6978 1.9313q2.273 0.77045 3.0434-1.5025l2.4855-7.3327q0.77045-2.273-1.5025-3.0434l-5.6978-1.9313q-2.273-0.77045-3.0434 1.5025l-2.4855 7.3327q-0.77045 2.273 1.5025 3.0434z" clip-path="url(#a)" fill="#fff" stroke="#fff"/>
<g clip-path="url(#a)">
<g transform="translate(1101.1 115.28) rotate(18.725) scale(.08 -.08)">
<use xlink:href="#al"/>
</g>
</g>
<path d="m846.95 390.7 0.85697-5.7919q0.35128-2.3742-2.0229-2.7254l-7.6591-1.1332q-2.3742-0.35128-2.7254 2.0229l-0.85697 5.7919q-0.35128 2.3742 2.0229 2.7254l7.6591 1.1332q2.3742 0.35128 2.7254-2.0229z" clip-path="url(#a)" fill="#fff" stroke="#fff"/>
<g clip-path="url(#a)">
<defs>
<path id="u" d="m8.6875 72.906h9.9219v-44.297q0-11.719 4.2344-16.875 4.25-5.1406 13.781-5.1406 9.4688 0 13.719 5.1406 4.25 5.1562 4.25 16.875v44.297h9.9062v-45.516q0-14.25-7.0625-21.531-7.0469-7.2812-20.812-7.2812-13.828 0-20.891 7.2812-7.0469 7.2812-7.0469 21.531z"/>
</defs>
<g transform="translate(842.93 390.1) rotate(-81.584) scale(.08 -.08)">
<use xlink:href="#u"/>
</g>
</g>
<path d="m870.92 390.3 0.46197-5.8367q0.18936-2.3925-2.2032-2.5819l-7.7184-0.61089q-2.3925-0.18936-2.5819 2.2032l-0.46197 5.8367q-0.18936 2.3925 2.2032 2.5819l7.7184 0.61089q2.3925 0.18936 2.5819-2.2032z" clip-path="url(#a)" fill="#fff" stroke="#fff"/>
<g clip-path="url(#a)">
<g transform="translate(866.87 389.98) rotate(-85.475) scale(.08 -.08)">
<use xlink:href="#u"/>
</g>
</g>
<path d="m1000.4 386.09 1.8534 5.5539q0.75973 2.2766 3.0363 1.5168l7.3443-2.4509q2.2766-0.75973 1.5168-3.0363l-1.8534-5.5539q-0.75973-2.2766-3.0363-1.5168l-7.3443 2.4509q-2.2766 0.75973-1.5168 3.0363z" clip-path="url(#a)" fill="#fff" stroke="#fff"/>
<g clip-path="url(#a)">
<g transform="translate(1004.2 384.81) rotate(71.545) scale(.08 -.08)">
<use xlink:href="#u"/>
</g>
</g>
<path d="m204.07 467.83 2.33-4.2949q1.1444-2.1096-0.96513-3.254l-6.8055-3.692q-2.1096-1.1444-3.254 0.96513l-2.33 4.2949q-1.1444 2.1096 0.96513 3.254l6.8055 3.692q2.1096 1.1444 3.254-0.96513z" clip-path="url(#a)" fill="#fff" stroke="#fff"/>
<g clip-path="url(#a)">
<defs>
<path id="k" d="m-0.29688 72.906h61.672v-8.3125h-25.875v-64.594h-9.9062v64.594h-25.891z"/>
</defs>
<g transform="translate(200.5 465.89) rotate(-61.52) scale(.08 -.08)">
<use xlink:href="#k"/>
</g>
</g>
<path d="m277.13 531.96 0.071229-5.472q0.031238-2.3998-2.3686-2.431l-7.7418-0.10078q-2.3998-0.031238-2.431 2.3686l-0.07123 5.472q-0.031238 2.3998 2.3686 2.431l7.7418 0.10078q2.3998 0.031238 2.431-2.3686z" clip-path="url(#a)" fill="#fff" stroke="#fff"/>
<g clip-path="url(#a)">
<defs>
<path id="q" d="m34.188 63.188-13.391-36.281h26.812zm-5.5781 9.7188h11.188l27.781-72.906h-10.25l-6.6406 18.703h-32.859l-6.6406-18.703h-10.406z"/>
</defs>
<g transform="translate(273.07 531.91) rotate(-89.254) scale(.08 -.08)">
<use xlink:href="#q"/>
</g>
</g>
<path d="m288.13 527.39 0.49962 4.7978q0.24858 2.3871 2.6357 2.1385l7.7009-0.80193q2.3871-0.24858 2.1385-2.6357l-0.49962-4.7978q-0.24858-2.3871-2.6357-2.1385l-7.7009 0.80194q-2.3871 0.24858-2.1385 2.6357z" clip-path="url(#a)" fill="#fff" stroke="#fff"/>
<g clip-path="url(#a)">
<defs>
<path id="x" d="m19.672 64.797v-27.391h12.406q6.8906 0 10.641 3.5625 3.7656 3.5625 3.7656 10.156 0 6.5469-3.7656 10.109-3.75 3.5625-10.641 3.5625zm-9.8594 8.1094h22.266q12.266 0 18.531-5.5469 6.2812-5.5469 6.2812-16.234 0-10.797-6.2812-16.312-6.2656-5.5156-18.531-5.5156h-12.406v-29.297h-9.8594z"/>
</defs>
<g transform="translate(292.17 526.97) rotate(84.055) scale(.08 -.08)">
<use xlink:href="#x"/>
</g>
</g>
<path d="m349.11 398.36 4.1895 3.5209q1.8373 1.5441 3.3814-0.29322l4.9813-5.9273q1.5441-1.8373-0.29322-3.3814l-4.1895-3.5209q-1.8373-1.5441-3.3814 0.29322l-4.9813 5.9273q-1.5441 1.8373 0.29322 3.3814z" clip-path="url(#a)" fill="#fff" stroke="#fff"/>
<g clip-path="url(#a)">
<g transform="translate(351.73 395.25) rotate(40.044) scale(.08 -.08)">
<use xlink:href="#q"/>
</g>
</g>
<path d="m253.01 532.86 0.75577-5.806q0.30979-2.3799-2.0701-2.6897l-7.6777-0.99941q-2.3799-0.30979-2.6897 2.0701l-0.75577 5.806q-0.30979 2.3799 2.0701 2.6897l7.6777 0.99941q2.3799 0.30979 2.6897-2.0701z" clip-path="url(#a)" fill="#fff" stroke="#fff"/>
<g clip-path="url(#a)">
<g transform="translate(248.98 532.33) rotate(-82.584) scale(.08 -.08)">
<use xlink:href="#u"/>
</g>
</g>
<path d="m878.79 780.45v35.285q0 2.4 2.4 2.4h7.7425q2.4 0 2.4-2.4v-35.285q0-2.4-2.4-2.4h-7.7425q-2.4 0-2.4 2.4z" clip-path="url(#a)" fill="#fff" stroke="#fff"/>
<g clip-path="url(#a)">
<defs>
<path id="d" d="m56.203 29.594v-4.3906h-41.312q0.59375-9.2812 5.5938-14.141t13.938-4.8594q5.1719 0 10.031 1.2656t9.6562 3.8125v-8.5q-4.8438-2.0469-9.9219-3.125t-10.297-1.0781q-13.094 0-20.734 7.6094-7.6406 7.625-7.6406 20.625 0 13.422 7.25 21.297 7.25 7.8906 19.562 7.8906 11.031 0 17.453-7.1094 6.4219-7.0938 6.4219-19.297zm-8.9844 2.6406q-0.09375 7.3594-4.125 11.75-4.0312 4.4062-10.672 4.4062-7.5156 0-12.031-4.25t-5.2031-11.969z"/>
<path id="h" d="m41.109 46.297q-1.5156 0.875-3.2969 1.2812-1.7812 0.42188-3.9219 0.42188-7.625 0-11.703-4.9531t-4.0781-14.234v-28.812h-9.0312v54.688h9.0312v-8.5q2.8438 4.9844 7.375 7.3906 4.5469 2.4219 11.047 2.4219 0.92188 0 2.0469-0.125 1.125-0.10938 2.4844-0.35938z"/>
<path id="i" d="m52 44.188q3.375 6.0625 8.0625 8.9375t11.031 2.875q8.5469 0 13.188-5.9844 4.6406-5.9688 4.6406-17v-33.016h-9.0312v32.719q0 7.8594-2.7969 11.656-2.7812 3.8125-8.4844 3.8125-6.9844 0-11.047-4.6406-4.0469-4.625-4.0469-12.641v-30.906h-9.0312v32.719q0 7.9062-2.7812 11.688t-8.5938 3.7812q-6.8906 0-10.953-4.6562-4.0469-4.6562-4.0469-12.625v-30.906h-9.0312v54.688h9.0312v-8.5q3.0781 5.0312 7.375 7.4219t10.203 2.3906q5.9688 0 10.141-3.0312 4.1719-3.0156 6.1719-8.7812z"/>
<path id="l" d="m9.4219 54.688h8.9844v-54.688h-8.9844zm0 21.297h8.9844v-11.391h-8.9844z"/>
<path id="g" d="m54.891 33.016v-33.016h-8.9844v32.719q0 7.7656-3.0312 11.609-3.0312 3.8594-9.0781 3.8594-7.2812 0-11.484-4.6406-4.2031-4.625-4.2031-12.641v-30.906h-9.0312v54.688h9.0312v-8.5q3.2344 4.9375 7.5938 7.375 4.375 2.4375 10.094 2.4375 9.4219 0 14.25-5.8281 4.8438-5.8281 4.8438-17.156z"/>
<path id="f" d="m34.281 27.484q-10.891 0-15.094-2.4844t-4.2031-8.5q0-4.7812 3.1562-7.5938 3.1562-2.7969 8.5625-2.7969 7.4844 0 12 5.2969t4.5156 14.078v2zm17.922 3.7188v-31.203h-8.9844v8.2969q-3.0781-4.9688-7.6719-7.3438t-11.234-2.375q-8.3906 0-13.359 4.7188-4.9531 4.7188-4.9531 12.625 0 9.2188 6.1719 13.906 6.1875 4.6875 18.438 4.6875h12.609v0.89062q0 6.2031-4.0781 9.5938t-11.453 3.3906q-4.6875 0-9.1406-1.125-4.4375-1.125-8.5312-3.375v8.3125q4.9219 1.9062 9.5625 2.8438 4.6406 0.95312 9.0312 0.95312 11.875 0 17.734-6.1562 5.8594-6.1406 5.8594-18.641z"/>
<path id="j" d="m9.4219 75.984h8.9844v-75.984h-8.9844z"/>
</defs>
<g transform="translate(882.85 780.45) rotate(90) scale(.08 -.08)">
<use xlink:href="#k"/>
<use x="60.818359" xlink:href="#d"/>
<use x="122.341797" xlink:href="#h"/>
<use x="163.439453" xlink:href="#i"/>
<use x="260.851562" xlink:href="#l"/>
<use x="288.634766" xlink:href="#g"/>
<use x="352.013672" xlink:href="#f"/>
<use x="413.292969" xlink:href="#j"/>
</g>
</g>
<path d="m992.37 536.51 2.3257-4.9537q1.0199-2.1725-1.1526-3.1924l-7.0086-3.2903q-2.1725-1.0199-3.1924 1.1526l-2.3257 4.9537q-1.0199 2.1725 1.1526 3.1924l7.0086 3.2903q2.1725 1.0199 3.1924-1.1526z" clip-path="url(#a)" fill="#fff" stroke="#fff"/>
<g clip-path="url(#a)">
<g transform="translate(988.69 534.78) rotate(-64.851) scale(.08 -.08)">
<use xlink:href="#q"/>
</g>
</g>
<path d="m1017.1 595.7 0.13588 4.5992q0.070877 2.399 2.4698 2.3281l7.7391-0.22865q2.399-0.070877 2.3281-2.4698l-0.13588-4.5992q-0.070877-2.399-2.4698-2.3281l-7.7391 0.22865q-2.399 0.070877-2.3281 2.4698z" clip-path="url(#a)" fill="#fff" stroke="#fff"/>
<g clip-path="url(#a)">
<defs>
<path id="am" d="m9.8125 72.906h41.891v-8.3125h-32.031v-21.484h28.906v-8.2969h-28.906v-34.812h-9.8594z"/>
</defs>
<g transform="translate(1021.2 595.58) rotate(88.308) scale(.08 -.08)">
<use xlink:href="#am"/>
</g>
</g>
<path d="m1040.5 596.72 0.97695 4.7238q0.48607 2.3503 2.8363 1.8642l7.582-1.5681q2.3503-0.48607 1.8642-2.8363l-0.97695-4.7238q-0.48607-2.3503-2.8363-1.8642l-7.582 1.5681q-2.3503 0.48607-1.8642 2.8363z" clip-path="url(#a)" fill="#fff" stroke="#fff"/>
<g clip-path="url(#a)">
<g transform="translate(1044.5 595.9) rotate(78.315) scale(.08 -.08)">
<use xlink:href="#x"/>
</g>
</g>
<path d="m1259.9 330.13 2.226-4.9993q0.97621-2.1925-1.2163-3.1687l-7.0731-3.1493q-2.1925-0.97621-3.1687 1.2163l-2.226 4.9993q-0.97621 2.1925 1.2163 3.1687l7.0731 3.1493q2.1925 0.97621 3.1687-1.2163z" clip-path="url(#a)" fill="#fff" stroke="#fff"/>
<g clip-path="url(#a)">
<g transform="translate(1256.2 328.48) rotate(-65.999) scale(.08 -.08)">
<use xlink:href="#q"/>
</g>
</g>
<path d="m1296.9 461.91 0.4624-4.8015q0.23006-2.3889-2.1589-2.619l-7.7068-0.74218q-2.3889-0.23006-2.619 2.1589l-0.4624 4.8015q-0.23006 2.3889 2.1589 2.619l7.7068 0.74218q2.3889 0.23006 2.619-2.1589z" clip-path="url(#a)" fill="#fff" stroke="#fff"/>
<g clip-path="url(#a)">
<g transform="translate(1292.9 461.52) rotate(-84.499) scale(.08 -.08)">
<use xlink:href="#x"/>
</g>
</g>
<path d="m1399.2 259.61 4.2793 3.4111q1.8767 1.496 3.3727-0.38077l4.826-6.0544q1.496-1.8767-0.38077-3.3727l-4.2793-3.4111q-1.8767-1.496-3.3727 0.38077l-4.826 6.0544q-1.496 1.8767 0.38077 3.3727z" clip-path="url(#a)" fill="#fff" stroke="#fff"/>
<g clip-path="url(#a)">
<g transform="translate(1401.8 256.43) rotate(38.559) scale(.08 -.08)">
<use xlink:href="#q"/>
</g>
</g>
<path d="m1187.6 601.51 0.556-6.2729q0.21189-2.3906-2.1787-2.6025l-7.7123-0.68357q-2.3906-0.21189-2.6025 2.1787l-0.556 6.2729q-0.21189 2.3906 2.1787 2.6025l7.7123 0.68357q2.3906 0.21189 2.6025-2.1787z" clip-path="url(#a)" fill="#fff" stroke="#fff"/>
<g clip-path="url(#a)">
<defs>
<path id="as" d="m39.406 66.219q-10.75 0-17.078-8.0156-6.3125-8-6.3125-21.828 0-13.766 6.3125-21.781 6.3281-8 17.078-8 10.734 0 17.016 8 6.2812 8.0156 6.2812 21.781 0 13.828-6.2812 21.828-6.2812 8.0156-17.016 8.0156zm13.812-64.906 13-14.203h-11.922l-10.797 11.672q-1.6094-0.09375-2.4688-0.14062-0.84375-0.0625-1.625-0.0625-15.375 0-24.594 10.281-9.2031 10.281-9.2031 27.516 0 17.281 9.2031 27.562 9.2188 10.281 24.594 10.281 15.328 0 24.5-10.281 9.1875-10.281 9.1875-27.562 0-12.688-5.1094-21.734-5.0938-9.0312-14.766-13.328z"/>
</defs>
<g transform="translate(1183.5 601.15) rotate(-84.935) scale(.08 -.08)">
<use xlink:href="#as"/>
</g>
</g>
<path d="m1198.7 529.7 0.96858 5.5016q0.41613 2.3636 2.7798 1.9475l7.6252-1.3424q2.3636-0.41613 1.9475-2.7798l-0.96858-5.5016q-0.41613-2.3636-2.7798-1.9475l-7.6252 1.3424q-2.3636 0.41613-1.9475 2.7798z" clip-path="url(#a)" fill="#fff" stroke="#fff"/>
<g clip-path="url(#a)">
<defs>
<path id="s" d="m64.406 67.281v-10.391q-4.9844 4.6406-10.625 6.9219-5.6406 2.2969-11.984 2.2969-12.5 0-19.141-7.6406t-6.6406-22.094q0-14.406 6.6406-22.047t19.141-7.6406q6.3438 0 11.984 2.2969t10.625 6.9375v-10.312q-5.1719-3.5156-10.969-5.2812-5.7812-1.75-12.219-1.75-16.562 0-26.094 10.125-9.5156 10.141-9.5156 27.672 0 17.578 9.5156 27.703 9.5312 10.141 26.094 10.141 6.5312 0 12.312-1.7344 5.7969-1.7344 10.875-5.2031z"/>
</defs>
<g transform="translate(1202.7 529) rotate(80.015) scale(.08 -.08)">
<use xlink:href="#s"/>
</g>
</g>
<path d="m1258.4 780.45v35.285q0 2.4 2.4 2.4h7.7425q2.4 0 2.4-2.4v-35.285q0-2.4-2.4-2.4h-7.7425q-2.4 0-2.4 2.4z" clip-path="url(#a)" fill="#fff" stroke="#fff"/>
<g clip-path="url(#a)">
<g transform="translate(1262.4 780.45) rotate(90) scale(.08 -.08)">
<use xlink:href="#k"/>
<use x="60.818359" xlink:href="#d"/>
<use x="122.341797" xlink:href="#h"/>
<use x="163.439453" xlink:href="#i"/>
<use x="260.851562" xlink:href="#l"/>
<use x="288.634766" xlink:href="#g"/>
<use x="352.013672" xlink:href="#f"/>
<use x="413.292969" xlink:href="#j"/>
</g>
</g>
<path d="m1407.3 534.24 2.2714-5.0735q0.98067-2.1905-1.2098-3.1712l-7.0666-3.1637q-2.1905-0.98067-3.1712 1.2098l-2.2714 5.0735q-0.98067 2.1905 1.2098 3.1712l7.0666 3.1637q2.1905 0.98067 3.1712-1.2098z" clip-path="url(#a)" fill="#fff" stroke="#fff"/>
<g clip-path="url(#a)">
<defs>
<path id="ak" d="m44.391 34.188q3.1719-1.0781 6.1719-4.5938t6.0312-9.6719l10.016-19.922h-10.609l-9.3125 18.703q-3.625 7.3281-7.0156 9.7188t-9.25 2.3906h-10.75v-30.812h-9.8594v72.906h22.266q12.5 0 18.656-5.2344 6.1562-5.2188 6.1562-15.766 0-6.8906-3.2031-11.438-3.2031-4.5312-9.2969-6.2812zm-24.719 30.609v-25.875h12.406q7.125 0 10.766 3.2969t3.6406 9.6875-3.6406 9.6406-10.766 3.25z"/>
</defs>
<g transform="translate(1403.6 532.58) rotate(-65.882) scale(.08 -.08)">
<use xlink:href="#ak"/>
</g>
</g>
<path d="m1447.7 401.19 3.1847-4.4504q1.3966-1.9518-0.55511-3.3484l-6.2965-4.5056q-1.9518-1.3966-3.3484 0.55511l-3.1847 4.4504q-1.3966 1.9518 0.55511 3.3484l6.2965 4.5056q1.9518 1.3966 3.3484-0.55511z" clip-path="url(#a)" fill="#fff" stroke="#fff"/>
<g clip-path="url(#a)">
<g transform="translate(1444.4 398.83) rotate(-54.413) scale(.08 -.08)">
<use xlink:href="#q"/>
</g>
</g>
<path d="m1479.9 532.03 0.44075-4.5801q0.2299-2.389-2.1591-2.6189l-7.7069-0.74166q-2.389-0.2299-2.6189 2.1591l-0.44075 4.5801q-0.2299 2.389 2.1591 2.6189l7.7069 0.74166q2.389 0.2299 2.6189-2.1591z" clip-path="url(#a)" fill="#fff" stroke="#fff"/>
<g clip-path="url(#a)">
<g transform="translate(1475.9 531.65) rotate(-84.503) scale(.08 -.08)">
<use xlink:href="#am"/>
</g>
</g>
<path d="m1491.3 526.98 0.096238 4.6002q0.050197 2.3995 2.4497 2.3493l7.7408-0.16194q2.3995-0.050197 2.3493-2.4497l-0.096237-4.6002q-0.050198-2.3995-2.4497-2.3493l-7.7408 0.16194q-2.3995 0.050197-2.3493 2.4497z" clip-path="url(#a)" fill="#fff" stroke="#fff"/>
<g clip-path="url(#a)">
<g transform="translate(1495.4 526.89) rotate(88.802) scale(.08 -.08)">
<use xlink:href="#am"/>
</g>
</g>
<path d="m1514.8 527.61 0.65977 4.7784q0.32826 2.3774 2.7057 2.0492l7.6697-1.059q2.3774-0.32826 2.0492-2.7057l-0.65977-4.7784q-0.32826-2.3774-2.7057-2.0492l-7.6697 1.059q-2.3774 0.32826-2.0492 2.7057z" clip-path="url(#a)" fill="#fff" stroke="#fff"/>
<g clip-path="url(#a)">
<g transform="translate(1518.8 527.06) rotate(82.139) scale(.08 -.08)">
<use xlink:href="#x"/>
</g>
</g>
<path d="m1538.4 528.33 1.2084 4.7345q0.59352 2.3255 2.919 1.7319l7.502-1.9147q2.3255-0.59352 1.7319-2.919l-1.2084-4.7345q-0.59352-2.3255-2.919-1.7319l-7.502 1.9147q-2.3255 0.59352-1.7319 2.919z" clip-path="url(#a)" fill="#fff" stroke="#fff"/>
<g clip-path="url(#a)">
<g transform="translate(1542.3 527.32) rotate(75.682) scale(.08 -.08)">
<use xlink:href="#k"/>
</g>
</g>
<path d="m1561.9 528.59 2.0432 5.4869q0.83752 2.2491 3.0866 1.4116l7.2558-2.7019q2.2491-0.83752 1.4116-3.0866l-2.0432-5.4869q-0.83752-2.2491-3.0866-1.4116l-7.2558 2.7019q-2.2491 0.83752-1.4116 3.0866z" clip-path="url(#a)" fill="#fff" stroke="#fff"/>
<g clip-path="url(#a)">
<g transform="translate(1565.7 527.17) rotate(69.576) scale(.08 -.08)">
<use xlink:href="#u"/>
</g>
</g>
<path d="m1305.8 780.45v35.285q0 2.4 2.4 2.4h7.7425q2.4 0 2.4-2.4v-35.285q0-2.4-2.4-2.4h-7.7425q-2.4 0-2.4 2.4z" clip-path="url(#a)" fill="#fff" stroke="#fff"/>
<g clip-path="url(#a)">
<g transform="translate(1309.9 780.45) rotate(90) scale(.08 -.08)">
<use xlink:href="#k"/>
<use x="60.818359" xlink:href="#d"/>
<use x="122.341797" xlink:href="#h"/>
<use x="163.439453" xlink:href="#i"/>
<use x="260.851562" xlink:href="#l"/>
<use x="288.634766" xlink:href="#g"/>
<use x="352.013672" xlink:href="#f"/>
<use x="413.292969" xlink:href="#j"/>
</g>
</g>
<path d="m1395.2 534.43 0.44326-5.0355q0.21045-2.3908-2.1803-2.6012l-7.7127-0.67892q-2.3908-0.21045-2.6012 2.1803l-0.44326 5.0355q-0.21045 2.3908 2.1803 2.6012l7.7127 0.67892q2.3908 0.21045 2.6012-2.1803z" clip-path="url(#a)" fill="#fff" stroke="#fff"/>
<g clip-path="url(#a)">
<defs>
<path id="aa" d="m9.8125 72.906h46.094v-8.3125h-36.234v-21.578h34.719v-8.2969h-34.719v-26.422h37.109v-8.2969h-46.969z"/>
</defs>
<g transform="translate(1391.1 534.08) rotate(-84.969) scale(.08 -.08)">
<use xlink:href="#aa"/>
</g>
</g>
<path d="m1394.6 595.3 0.24732 5.5808q0.10626 2.3976 2.5039 2.2914l7.7349-0.34279q2.3976-0.10626 2.2914-2.5039l-0.24732-5.5808q-0.10626-2.3976-2.5039-2.2914l-7.7349 0.34279q-2.3976 0.10626-2.2914 2.5039z" clip-path="url(#a)" fill="#fff" stroke="#fff"/>
<g clip-path="url(#a)">
<g transform="translate(1398.7 595.12) rotate(87.462) scale(.08 -.08)">
<use xlink:href="#s"/>
</g>
</g>
<path d="m1448.1 780.45v35.285q0 2.4 2.4 2.4h7.7425q2.4 0 2.4-2.4v-35.285q0-2.4-2.4-2.4h-7.7425q-2.4 0-2.4 2.4z" clip-path="url(#a)" fill="#fff" stroke="#fff"/>
<g clip-path="url(#a)">
<g transform="translate(1452.2 780.45) rotate(90) scale(.08 -.08)">
<use xlink:href="#k"/>
<use x="60.818359" xlink:href="#d"/>
<use x="122.341797" xlink:href="#h"/>
<use x="163.439453" xlink:href="#i"/>
<use x="260.851562" xlink:href="#l"/>
<use x="288.634766" xlink:href="#g"/>
<use x="352.013672" xlink:href="#f"/>
<use x="413.292969" xlink:href="#j"/>
</g>
</g>
<path d="m1495.6 780.45v35.285q0 2.4 2.4 2.4h7.7425q2.4 0 2.4-2.4v-35.285q0-2.4-2.4-2.4h-7.7425q-2.4 0-2.4 2.4z" clip-path="url(#a)" fill="#fff" stroke="#fff"/>
<g clip-path="url(#a)">
<g transform="translate(1499.6 780.45) rotate(90) scale(.08 -.08)">
<use xlink:href="#k"/>
<use x="60.818359" xlink:href="#d"/>
<use x="122.341797" xlink:href="#h"/>
<use x="163.439453" xlink:href="#i"/>
<use x="260.851562" xlink:href="#l"/>
<use x="288.634766" xlink:href="#g"/>
<use x="352.013672" xlink:href="#f"/>
<use x="413.292969" xlink:href="#j"/>
</g>
</g>
<path d="m1543 780.45v35.285q0 2.4 2.4 2.4h7.7425q2.4 0 2.4-2.4v-35.285q0-2.4-2.4-2.4h-7.7425q-2.4 0-2.4 2.4z" clip-path="url(#a)" fill="#fff" stroke="#fff"/>
<g clip-path="url(#a)">
<g transform="translate(1547.1 780.45) rotate(90) scale(.08 -.08)">
<use xlink:href="#k"/>
<use x="60.818359" xlink:href="#d"/>
<use x="122.341797" xlink:href="#h"/>
<use x="163.439453" xlink:href="#i"/>
<use x="260.851562" xlink:href="#l"/>
<use x="288.634766" xlink:href="#g"/>
<use x="352.013672" xlink:href="#f"/>
<use x="413.292969" xlink:href="#j"/>
</g>
</g>
<path d="m1590.5 780.45v35.285q0 2.4 2.4 2.4h7.7425q2.4 0 2.4-2.4v-35.285q0-2.4-2.4-2.4h-7.7425q-2.4 0-2.4 2.4z" clip-path="url(#a)" fill="#fff" stroke="#fff"/>
<g clip-path="url(#a)">
<g transform="translate(1594.5 780.45) rotate(90) scale(.08 -.08)">
<use xlink:href="#k"/>
<use x="60.818359" xlink:href="#d"/>
<use x="122.341797" xlink:href="#h"/>
<use x="163.439453" xlink:href="#i"/>
<use x="260.851562" xlink:href="#l"/>
<use x="288.634766" xlink:href="#g"/>
<use x="352.013672" xlink:href="#f"/>
<use x="413.292969" xlink:href="#j"/>
</g>
</g>
<path d="m1388.4 663.6 0.96165 5.3873q0.42174 2.3627 2.7844 1.9409l7.622-1.3605q2.3627-0.42174 1.9409-2.7844l-0.96165-5.3873q-0.42174-2.3627-2.7844-1.9409l-7.622 1.3605q-2.3627 0.42174-1.9409 2.7844z" clip-path="url(#a)" fill="#fff" stroke="#fff"/>
<g clip-path="url(#a)">
<g transform="translate(1392.4 662.88) rotate(79.879) scale(.08 -.08)">
<use xlink:href="#q"/>
</g>
</g>
<path d="m1377.1 668.79 0.89246-4.9997q0.42174-2.3627-1.9409-2.7844l-7.622-1.3605q-2.3627-0.42174-2.7844 1.9409l-0.89246 4.9997q-0.42174 2.3627 1.9409 2.7844l7.622 1.3605q2.3627 0.42174 2.7844-1.9409z" clip-path="url(#a)" fill="#fff" stroke="#fff"/>
<g clip-path="url(#a)">
<defs>
<path id="aj" d="m53.516 70.516v-9.625q-5.6094 2.6875-10.594 4-4.9844 1.3281-9.625 1.3281-8.0469 0-12.422-3.125t-4.375-8.8906q0-4.8438 2.9062-7.3125 2.9062-2.4531 11.016-3.9688l5.9531-1.2188q11.031-2.1094 16.281-7.4062t5.25-14.172q0-10.609-7.1094-16.078-7.0938-5.4688-20.812-5.4688-5.1719 0-11.016 1.1719-5.8281 1.1719-12.078 3.4688v10.156q6-3.3594 11.766-5.0781 5.7656-1.7031 11.328-1.7031 8.4375 0 13.031 3.3125 4.5938 3.3281 4.5938 9.4844 0 5.3594-3.2969 8.3906t-10.812 4.5469l-6.0156 1.1719q-11.031 2.1875-15.969 6.875-4.9219 4.6875-4.9219 13.047 0 9.6719 6.8125 15.234t18.766 5.5625q5.1406 0 10.453-0.9375 5.3281-0.92188 10.891-2.7656z"/>
</defs>
<g transform="translate(1373.1 668.08) rotate(-79.879) scale(.08 -.08)">
<use xlink:href="#aj"/>
</g>
</g>
<path d="m1400.7 780.45v35.285q0 2.4 2.4 2.4h7.7425q2.4 0 2.4-2.4v-35.285q0-2.4-2.4-2.4h-7.7425q-2.4 0-2.4 2.4z" clip-path="url(#a)" fill="#fff" stroke="#fff"/>
<g clip-path="url(#a)">
<g transform="translate(1404.8 780.45) rotate(90) scale(.08 -.08)">
<use xlink:href="#k"/>
<use x="60.818359" xlink:href="#d"/>
<use x="122.341797" xlink:href="#h"/>
<use x="163.439453" xlink:href="#i"/>
<use x="260.851562" xlink:href="#l"/>
<use x="288.634766" xlink:href="#g"/>
<use x="352.013672" xlink:href="#f"/>
<use x="413.292969" xlink:href="#j"/>
</g>
</g>
<path d="m1353.2 780.45v35.285q0 2.4 2.4 2.4h7.7425q2.4 0 2.4-2.4v-35.285q0-2.4-2.4-2.4h-7.7425q-2.4 0-2.4 2.4z" clip-path="url(#a)" fill="#fff" stroke="#fff"/>
<g clip-path="url(#a)">
<g transform="translate(1357.3 780.45) rotate(90) scale(.08 -.08)">
<use xlink:href="#k"/>
<use x="60.818359" xlink:href="#d"/>
<use x="122.341797" xlink:href="#h"/>
<use x="163.439453" xlink:href="#i"/>
<use x="260.851562" xlink:href="#l"/>
<use x="288.634766" xlink:href="#g"/>
<use x="352.013672" xlink:href="#f"/>
<use x="413.292969" xlink:href="#j"/>
</g>
</g>
<path d="m1163.5 780.45v35.285q0 2.4 2.4 2.4h7.7425q2.4 0 2.4-2.4v-35.285q0-2.4-2.4-2.4h-7.7425q-2.4 0-2.4 2.4z" clip-path="url(#a)" fill="#fff" stroke="#fff"/>
<g clip-path="url(#a)">
<g transform="translate(1167.5 780.45) rotate(90) scale(.08 -.08)">
<use xlink:href="#k"/>
<use x="60.818359" xlink:href="#d"/>
<use x="122.341797" xlink:href="#h"/>
<use x="163.439453" xlink:href="#i"/>
<use x="260.851562" xlink:href="#l"/>
<use x="288.634766" xlink:href="#g"/>
<use x="352.013672" xlink:href="#f"/>
<use x="413.292969" xlink:href="#j"/>
</g>
</g>
<path d="m1210.8 658.57v13.246q0 2.4 2.4 2.4h8q2.4 0 2.4-2.4v-13.246q0-2.4-2.4-2.4h-8q-2.4 0-2.4 2.4z" clip-path="url(#a)" fill="#fff" stroke="#fff"/>
<g clip-path="url(#a)">
<defs>
<path id="ax" d="m21 76.422v-100h-8.2969v100z"/>
</defs>
<g transform="translate(1215.1 658.57) rotate(90) scale(.08 -.08)">
<use xlink:href="#aj"/>
<use x="63.476562" xlink:href="#ax"/>
<use x="97.167969" xlink:href="#q"/>
</g>
</g>
<path d="m1210.9 780.45v35.285q0 2.4 2.4 2.4h7.7425q2.4 0 2.4-2.4v-35.285q0-2.4-2.4-2.4h-7.7425q-2.4 0-2.4 2.4z" clip-path="url(#a)" fill="#fff" stroke="#fff"/>
<g clip-path="url(#a)">
<g transform="translate(1215 780.45) rotate(90) scale(.08 -.08)">
<use xlink:href="#k"/>
<use x="60.818359" xlink:href="#d"/>
<use x="122.341797" xlink:href="#h"/>
<use x="163.439453" xlink:href="#i"/>
<use x="260.851562" xlink:href="#l"/>
<use x="288.634766" xlink:href="#g"/>
<use x="352.013672" xlink:href="#f"/>
<use x="413.292969" xlink:href="#j"/>
</g>
</g>
<path d="m950.09 668.78 0.88829-4.9763q0.42174-2.3627-1.9409-2.7844l-7.622-1.3605q-2.3627-0.42174-2.7844 1.9409l-0.88829 4.9763q-0.42174 2.3627 1.9409 2.7844l7.622 1.3605q2.3627 0.42174 2.7844-1.9409z" clip-path="url(#a)" fill="#fff" stroke="#fff"/>
<g clip-path="url(#a)">
<g transform="translate(946.09 668.07) rotate(-79.879) scale(.08 -.08)">
<use xlink:href="#aa"/>
</g>
</g>
<path d="m961.42 663.54 0.98164 5.4993q0.42174 2.3627 2.7844 1.9409l7.622-1.3605q2.3627-0.42174 1.9409-2.7844l-0.98164-5.4993q-0.42174-2.3627-2.7844-1.9409l-7.622 1.3605q-2.3627 0.42174-1.9409 2.7844z" clip-path="url(#a)" fill="#fff" stroke="#fff"/>
<g clip-path="url(#a)">
<g transform="translate(965.42 662.83) rotate(79.879) scale(.08 -.08)">
<use xlink:href="#s"/>
</g>
</g>
<path d="m1021.1 780.45v35.285q0 2.4 2.4 2.4h7.7425q2.4 0 2.4-2.4v-35.285q0-2.4-2.4-2.4h-7.7425q-2.4 0-2.4 2.4z" clip-path="url(#a)" fill="#fff" stroke="#fff"/>
<g clip-path="url(#a)">
<g transform="translate(1025.2 780.45) rotate(90) scale(.08 -.08)">
<use xlink:href="#k"/>
<use x="60.818359" xlink:href="#d"/>
<use x="122.341797" xlink:href="#h"/>
<use x="163.439453" xlink:href="#i"/>
<use x="260.851562" xlink:href="#l"/>
<use x="288.634766" xlink:href="#g"/>
<use x="352.013672" xlink:href="#f"/>
<use x="413.292969" xlink:href="#j"/>
</g>
</g>
<path d="m1068.6 780.45v35.285q0 2.4 2.4 2.4h7.7425q2.4 0 2.4-2.4v-35.285q0-2.4-2.4-2.4h-7.7425q-2.4 0-2.4 2.4z" clip-path="url(#a)" fill="#fff" stroke="#fff"/>
<g clip-path="url(#a)">
<g transform="translate(1072.6 780.45) rotate(90) scale(.08 -.08)">
<use xlink:href="#k"/>
<use x="60.818359" xlink:href="#d"/>
<use x="122.341797" xlink:href="#h"/>
<use x="163.439453" xlink:href="#i"/>
<use x="260.851562" xlink:href="#l"/>
<use x="288.634766" xlink:href="#g"/>
<use x="352.013672" xlink:href="#f"/>
<use x="413.292969" xlink:href="#j"/>
</g>
</g>
<path d="m926.23 780.45v35.285q0 2.4 2.4 2.4h7.7425q2.4 0 2.4-2.4v-35.285q0-2.4-2.4-2.4h-7.7425q-2.4 0-2.4 2.4z" clip-path="url(#a)" fill="#fff" stroke="#fff"/>
<g clip-path="url(#a)">
<g transform="translate(930.29 780.45) rotate(90) scale(.08 -.08)">
<use xlink:href="#k"/>
<use x="60.818359" xlink:href="#d"/>
<use x="122.341797" xlink:href="#h"/>
<use x="163.439453" xlink:href="#i"/>
<use x="260.851562" xlink:href="#l"/>
<use x="288.634766" xlink:href="#g"/>
<use x="352.013672" xlink:href="#f"/>
<use x="413.292969" xlink:href="#j"/>
</g>
</g>
<path d="m973.68 780.45v35.285q0 2.4 2.4 2.4h7.7425q2.4 0 2.4-2.4v-35.285q0-2.4-2.4-2.4h-7.7425q-2.4 0-2.4 2.4z" clip-path="url(#a)" fill="#fff" stroke="#fff"/>
<g clip-path="url(#a)">
<g transform="translate(977.74 780.45) rotate(90) scale(.08 -.08)">
<use xlink:href="#k"/>
<use x="60.818359" xlink:href="#d"/>
<use x="122.341797" xlink:href="#h"/>
<use x="163.439453" xlink:href="#i"/>
<use x="260.851562" xlink:href="#l"/>
<use x="288.634766" xlink:href="#g"/>
<use x="352.013672" xlink:href="#f"/>
<use x="413.292969" xlink:href="#j"/>
</g>
</g>
<path d="m107.17 669.92 1.869-5.2351q0.80693-2.2603-1.4533-3.0672l-7.2918-2.6032q-2.2603-0.80693-3.0672 1.4533l-1.869 5.2351q-0.80693 2.2603 1.4533 3.0672l7.2918 2.6032q2.2603 0.80693 3.0672-1.4533z" clip-path="url(#a)" fill="#fff" stroke="#fff"/>
<g clip-path="url(#a)">
<g transform="translate(103.34 668.55) rotate(-70.353) scale(.08 -.08)">
<use xlink:href="#ak"/>
</g>
</g>
<path d="m119.65 662.4v5.5862q0 2.4 2.4 2.4h7.7425q2.4 0 2.4-2.4v-5.5862q0-2.4-2.4-2.4h-7.7425q-2.4 0-2.4 2.4z" clip-path="url(#a)" fill="#fff" stroke="#fff"/>
<g clip-path="url(#a)">
<g transform="translate(123.71 662.4) rotate(90) scale(.08 -.08)">
<use xlink:href="#s"/>
</g>
</g>
<path d="m142.8 664.67 1.8782 5.261q0.80693 2.2603 3.0672 1.4533l7.2918-2.6032q2.2603-0.80693 1.4533-3.0672l-1.8782-5.261q-0.80693-2.2603-3.0672-1.4533l-7.2918 2.6032q-2.2603 0.80693-1.4533 3.0672z" clip-path="url(#a)" fill="#fff" stroke="#fff"/>
<g clip-path="url(#a)">
<g transform="translate(146.63 663.3) rotate(70.353) scale(.08 -.08)">
<use xlink:href="#s"/>
</g>
</g>
<path d="m261.99 780.45v35.285q0 2.4 2.4 2.4h7.7425q2.4 0 2.4-2.4v-35.285q0-2.4-2.4-2.4h-7.7425q-2.4 0-2.4 2.4z" clip-path="url(#a)" fill="#fff" stroke="#fff"/>
<g clip-path="url(#a)">
<g transform="translate(266.05 780.45) rotate(90) scale(.08 -.08)">
<use xlink:href="#k"/>
<use x="60.818359" xlink:href="#d"/>
<use x="122.341797" xlink:href="#h"/>
<use x="163.439453" xlink:href="#i"/>
<use x="260.851562" xlink:href="#l"/>
<use x="288.634766" xlink:href="#g"/>
<use x="352.013672" xlink:href="#f"/>
<use x="413.292969" xlink:href="#j"/>
</g>
</g>
<path d="m309.43 780.45v35.285q0 2.4 2.4 2.4h7.7425q2.4 0 2.4-2.4v-35.285q0-2.4-2.4-2.4h-7.7425q-2.4 0-2.4 2.4z" clip-path="url(#a)" fill="#fff" stroke="#fff"/>
<g clip-path="url(#a)">
<g transform="translate(313.5 780.45) rotate(90) scale(.08 -.08)">
<use xlink:href="#k"/>
<use x="60.818359" xlink:href="#d"/>
<use x="122.341797" xlink:href="#h"/>
<use x="163.439453" xlink:href="#i"/>
<use x="260.851562" xlink:href="#l"/>
<use x="288.634766" xlink:href="#g"/>
<use x="352.013672" xlink:href="#f"/>
<use x="413.292969" xlink:href="#j"/>
</g>
</g>
<path d="m405.43 601.92 1.3438-4.8731q0.63799-2.3136-1.6757-2.9516l-7.4639-2.0582q-2.3136-0.63799-2.9516 1.6757l-1.3438 4.8731q-0.63799 2.3136 1.6757 2.9516l7.4639 2.0582q2.3136 0.63799 2.9516-1.6757z" clip-path="url(#a)" fill="#fff" stroke="#fff"/>
<g clip-path="url(#a)">
<g transform="translate(401.51 600.84) rotate(-74.584) scale(.08 -.08)">
<use xlink:href="#aa"/>
</g>
</g>
<path d="m429.74 601.21 0.5475-5.5594q0.23522-2.3884-2.1532-2.6237l-7.7052-0.75883q-2.3884-0.23522-2.6237 2.1532l-0.5475 5.5594q-0.23522 2.3884 2.1532 2.6237l7.7052 0.75883q2.3884 0.23522 2.6237-2.1532z" clip-path="url(#a)" fill="#fff" stroke="#fff"/>
<g clip-path="url(#a)">
<g transform="translate(425.7 600.81) rotate(-84.375) scale(.08 -.08)">
<use xlink:href="#s"/>
</g>
</g>
<path d="m480.5 533.08 3.0157 4.0569q1.4318 1.9261 3.3579 0.49437l6.2138-4.619q1.9261-1.4318 0.49437-3.3579l-3.0157-4.0569q-1.4318-1.9261-3.3579-0.49437l-6.2138 4.619q-1.9261 1.4318-0.49437 3.3579z" clip-path="url(#a)" fill="#fff" stroke="#fff"/>
<g clip-path="url(#a)">
<g transform="translate(483.76 530.65) rotate(53.375) scale(.08 -.08)">
<use xlink:href="#aa"/>
</g>
</g>
<path d="m356.88 780.45v35.285q0 2.4 2.4 2.4h7.7425q2.4 0 2.4-2.4v-35.285q0-2.4-2.4-2.4h-7.7425q-2.4 0-2.4 2.4z" clip-path="url(#a)" fill="#fff" stroke="#fff"/>
<g clip-path="url(#a)">
<g transform="translate(360.94 780.45) rotate(90) scale(.08 -.08)">
<use xlink:href="#k"/>
<use x="60.818359" xlink:href="#d"/>
<use x="122.341797" xlink:href="#h"/>
<use x="163.439453" xlink:href="#i"/>
<use x="260.851562" xlink:href="#l"/>
<use x="288.634766" xlink:href="#g"/>
<use x="352.013672" xlink:href="#f"/>
<use x="413.292969" xlink:href="#j"/>
</g>
</g>
<path d="m404.33 780.45v35.285q0 2.4 2.4 2.4h7.7425q2.4 0 2.4-2.4v-35.285q0-2.4-2.4-2.4h-7.7425q-2.4 0-2.4 2.4z" clip-path="url(#a)" fill="#fff" stroke="#fff"/>
<g clip-path="url(#a)">
<g transform="translate(408.39 780.45) rotate(90) scale(.08 -.08)">
<use xlink:href="#k"/>
<use x="60.818359" xlink:href="#d"/>
<use x="122.341797" xlink:href="#h"/>
<use x="163.439453" xlink:href="#i"/>
<use x="260.851562" xlink:href="#l"/>
<use x="288.634766" xlink:href="#g"/>
<use x="352.013672" xlink:href="#f"/>
<use x="413.292969" xlink:href="#j"/>
</g>
</g>
<path d="m476.51 671.5 3.7734-3.9636q1.6548-1.7383-0.083414-3.3931l-5.6077-5.3386q-1.7382-1.6548-3.3931 0.083414l-3.7734 3.9636q-1.6548 1.7383 0.083414 3.3931l5.6077 5.3386q1.7382 1.6548 3.3931-0.083414z" clip-path="url(#a)" fill="#fff" stroke="#fff"/>
<g clip-path="url(#a)">
<g transform="translate(473.57 668.69) rotate(-46.408) scale(.08 -.08)">
<use xlink:href="#q"/>
</g>
</g>
<path d="m501.55 670.79 2.8424-4.7771q1.2272-2.0625-0.8353-3.2897l-6.6537-3.959q-2.0625-1.2272-3.2897 0.8353l-2.8424 4.7771q-1.2272 2.0625 0.8353 3.2897l6.6537 3.959q2.0625 1.2272 3.2897-0.8353z" clip-path="url(#a)" fill="#fff" stroke="#fff"/>
<g clip-path="url(#a)">
<g transform="translate(498.06 668.71) rotate(-59.247) scale(.08 -.08)">
<use xlink:href="#ak"/>
</g>
</g>
<path d="m526.85 668.99 1.1169-4.6927q0.55568-2.3348-1.7791-2.8905l-7.5321-1.7927q-2.3348-0.55569-2.8905 1.7791l-1.1169 4.6927q-0.55569 2.3348 1.7791 2.8905l7.5321 1.7927q2.3348 0.55569 2.8905-1.7791z" clip-path="url(#a)" fill="#fff" stroke="#fff"/>
<g clip-path="url(#a)">
<g transform="translate(522.89 668.05) rotate(-76.612) scale(.08 -.08)">
<use xlink:href="#x"/>
</g>
</g>
<path d="m610.07 668.23 4.1896 3.5207q1.8374 1.544 3.3814-0.29339l4.981-5.9275q1.544-1.8374-0.29339-3.3814l-4.1896-3.5207q-1.8374-1.544-3.3814 0.29339l-4.981 5.9275q-1.544 1.8374 0.29339 3.3814z" clip-path="url(#a)" fill="#fff" stroke="#fff"/>
<g clip-path="url(#a)">
<g transform="translate(612.68 665.12) rotate(40.041) scale(.08 -.08)">
<use xlink:href="#q"/>
</g>
</g>
<path d="m538.45 663.02 0.69187 5.814q0.2836 2.3832 2.6668 2.0996l7.6883-0.91492q2.3832-0.2836 2.0996-2.6668l-0.69187-5.814q-0.2836-2.3832-2.6668-2.0996l-7.6883 0.91492q-2.3832 0.2836-2.0996 2.6668z" clip-path="url(#a)" fill="#fff" stroke="#fff"/>
<g clip-path="url(#a)">
<g transform="translate(542.49 662.54) rotate(83.214) scale(.08 -.08)">
<use xlink:href="#u"/>
</g>
</g>
<path d="m561.83 665.24 2.5165 5.2866q1.0315 2.167 3.1985 1.1355l6.9909-3.3277q2.167-1.0315 1.1355-3.1985l-2.5165-5.2866q-1.0315-2.167-3.1985-1.1355l-6.9909 3.3277q-2.167 1.0315-1.1355 3.1985z" clip-path="url(#a)" fill="#fff" stroke="#fff"/>
<g clip-path="url(#a)">
<g transform="translate(565.5 663.5) rotate(64.545) scale(.08 -.08)">
<use xlink:href="#u"/>
</g>
</g>
<path d="m451.77 780.45v35.285q0 2.4 2.4 2.4h7.7425q2.4 0 2.4-2.4v-35.285q0-2.4-2.4-2.4h-7.7425q-2.4 0-2.4 2.4z" clip-path="url(#a)" fill="#fff" stroke="#fff"/>
<g clip-path="url(#a)">
<g transform="translate(455.84 780.45) rotate(90) scale(.08 -.08)">
<use xlink:href="#k"/>
<use x="60.818359" xlink:href="#d"/>
<use x="122.341797" xlink:href="#h"/>
<use x="163.439453" xlink:href="#i"/>
<use x="260.851562" xlink:href="#l"/>
<use x="288.634766" xlink:href="#g"/>
<use x="352.013672" xlink:href="#f"/>
<use x="413.292969" xlink:href="#j"/>
</g>
</g>
<path d="m499.22 780.45v35.285q0 2.4 2.4 2.4h7.7425q2.4 0 2.4-2.4v-35.285q0-2.4-2.4-2.4h-7.7425q-2.4 0-2.4 2.4z" clip-path="url(#a)" fill="#fff" stroke="#fff"/>
<g clip-path="url(#a)">
<g transform="translate(503.28 780.45) rotate(90) scale(.08 -.08)">
<use xlink:href="#k"/>
<use x="60.818359" xlink:href="#d"/>
<use x="122.341797" xlink:href="#h"/>
<use x="163.439453" xlink:href="#i"/>
<use x="260.851562" xlink:href="#l"/>
<use x="288.634766" xlink:href="#g"/>
<use x="352.013672" xlink:href="#f"/>
<use x="413.292969" xlink:href="#j"/>
</g>
</g>
<path d="m671.52 816.81 11.864-33.231q0.80693-2.2603-1.4533-3.0672l-7.2918-2.6032q-2.2603-0.80693-3.0672 1.4533l-11.864 33.231q-0.80693 2.2603 1.4533 3.0672l7.2918 2.6032q2.2603 0.80693 3.0672-1.4533z" clip-path="url(#a)" fill="#fff" stroke="#fff"/>
<g clip-path="url(#a)">
<g transform="translate(667.7 815.45) rotate(-70.353) scale(.08 -.08)">
<use xlink:href="#k"/>
<use x="60.818359" xlink:href="#d"/>
<use x="122.341797" xlink:href="#h"/>
<use x="163.439453" xlink:href="#i"/>
<use x="260.851562" xlink:href="#l"/>
<use x="288.634766" xlink:href="#g"/>
<use x="352.013672" xlink:href="#f"/>
<use x="413.292969" xlink:href="#j"/>
</g>
</g>
<path d="m689 780.45v35.285q0 2.4 2.4 2.4h7.7425q2.4 0 2.4-2.4v-35.285q0-2.4-2.4-2.4h-7.7425q-2.4 0-2.4 2.4z" clip-path="url(#a)" fill="#fff" stroke="#fff"/>
<g clip-path="url(#a)">
<g transform="translate(693.06 780.45) rotate(90) scale(.08 -.08)">
<use xlink:href="#k"/>
<use x="60.818359" xlink:href="#d"/>
<use x="122.341797" xlink:href="#h"/>
<use x="163.439453" xlink:href="#i"/>
<use x="260.851562" xlink:href="#l"/>
<use x="288.634766" xlink:href="#g"/>
<use x="352.013672" xlink:href="#f"/>
<use x="413.292969" xlink:href="#j"/>
</g>
</g>
<path d="m707.16 783.58 11.864 33.231q0.80693 2.2603 3.0672 1.4533l7.2918-2.6032q2.2603-0.80693 1.4533-3.0672l-11.864-33.231q-0.80693-2.2603-3.0672-1.4533l-7.2918 2.6032q-2.2603 0.80693-1.4533 3.0672z" clip-path="url(#a)" fill="#fff" stroke="#fff"/>
<g clip-path="url(#a)">
<g transform="translate(710.98 782.22) rotate(70.353) scale(.08 -.08)">
<use xlink:href="#k"/>
<use x="60.818359" xlink:href="#d"/>
<use x="122.341797" xlink:href="#h"/>
<use x="163.439453" xlink:href="#i"/>
<use x="260.851562" xlink:href="#l"/>
<use x="288.634766" xlink:href="#g"/>
<use x="352.013672" xlink:href="#f"/>
<use x="413.292969" xlink:href="#j"/>
</g>
</g>
<path d="m214.54 780.45v35.285q0 2.4 2.4 2.4h7.7425q2.4 0 2.4-2.4v-35.285q0-2.4-2.4-2.4h-7.7425q-2.4 0-2.4 2.4z" clip-path="url(#a)" fill="#fff" stroke="#fff"/>
<g clip-path="url(#a)">
<g transform="translate(218.61 780.45) rotate(90) scale(.08 -.08)">
<use xlink:href="#k"/>
<use x="60.818359" xlink:href="#d"/>
<use x="122.341797" xlink:href="#h"/>
<use x="163.439453" xlink:href="#i"/>
<use x="260.851562" xlink:href="#l"/>
<use x="288.634766" xlink:href="#g"/>
<use x="352.013672" xlink:href="#f"/>
<use x="413.292969" xlink:href="#j"/>
</g>
</g>
<path d="m546.66 780.45v35.285q0 2.4 2.4 2.4h7.7425q2.4 0 2.4-2.4v-35.285q0-2.4-2.4-2.4h-7.7425q-2.4 0-2.4 2.4z" clip-path="url(#a)" fill="#fff" stroke="#fff"/>
<g clip-path="url(#a)">
<g transform="translate(550.73 780.45) rotate(90) scale(.08 -.08)">
<use xlink:href="#k"/>
<use x="60.818359" xlink:href="#d"/>
<use x="122.341797" xlink:href="#h"/>
<use x="163.439453" xlink:href="#i"/>
<use x="260.851562" xlink:href="#l"/>
<use x="288.634766" xlink:href="#g"/>
<use x="352.013672" xlink:href="#f"/>
<use x="413.292969" xlink:href="#j"/>
</g>
</g>
<path d="m72.204 780.45v35.285q0 2.4 2.4 2.4h7.7425q2.4 0 2.4-2.4v-35.285q0-2.4-2.4-2.4h-7.7425q-2.4 0-2.4 2.4z" clip-path="url(#a)" fill="#fff" stroke="#fff"/>
<g clip-path="url(#a)">
<g transform="translate(76.267 780.45) rotate(90) scale(.08 -.08)">
<use xlink:href="#k"/>
<use x="60.818359" xlink:href="#d"/>
<use x="122.341797" xlink:href="#h"/>
<use x="163.439453" xlink:href="#i"/>
<use x="260.851562" xlink:href="#l"/>
<use x="288.634766" xlink:href="#g"/>
<use x="352.013672" xlink:href="#f"/>
<use x="413.292969" xlink:href="#j"/>
</g>
</g>
<path d="m119.65 780.45v35.285q0 2.4 2.4 2.4h7.7425q2.4 0 2.4-2.4v-35.285q0-2.4-2.4-2.4h-7.7425q-2.4 0-2.4 2.4z" clip-path="url(#a)" fill="#fff" stroke="#fff"/>
<g clip-path="url(#a)">
<g transform="translate(123.71 780.45) rotate(90) scale(.08 -.08)">
<use xlink:href="#k"/>
<use x="60.818359" xlink:href="#d"/>
<use x="122.341797" xlink:href="#h"/>
<use x="163.439453" xlink:href="#i"/>
<use x="260.851562" xlink:href="#l"/>
<use x="288.634766" xlink:href="#g"/>
<use x="352.013672" xlink:href="#f"/>
<use x="413.292969" xlink:href="#j"/>
</g>
</g>
<path d="m167.1 780.45v35.285q0 2.4 2.4 2.4h7.7425q2.4 0 2.4-2.4v-35.285q0-2.4-2.4-2.4h-7.7425q-2.4 0-2.4 2.4z" clip-path="url(#a)" fill="#fff" stroke="#fff"/>
<g clip-path="url(#a)">
<g transform="translate(171.16 780.45) rotate(90) scale(.08 -.08)">
<use xlink:href="#k"/>
<use x="60.818359" xlink:href="#d"/>
<use x="122.341797" xlink:href="#h"/>
<use x="163.439453" xlink:href="#i"/>
<use x="260.851562" xlink:href="#l"/>
<use x="288.634766" xlink:href="#g"/>
<use x="352.013672" xlink:href="#f"/>
<use x="413.292969" xlink:href="#j"/>
</g>
</g>
<path d="m594.11 780.45v35.285q0 2.4 2.4 2.4h7.7425q2.4 0 2.4-2.4v-35.285q0-2.4-2.4-2.4h-7.7425q-2.4 0-2.4 2.4z" clip-path="url(#a)" fill="#fff" stroke="#fff"/>
<g clip-path="url(#a)">
<g transform="translate(598.17 780.45) rotate(90) scale(.08 -.08)">
<use xlink:href="#k"/>
<use x="60.818359" xlink:href="#d"/>
<use x="122.341797" xlink:href="#h"/>
<use x="163.439453" xlink:href="#i"/>
<use x="260.851562" xlink:href="#l"/>
<use x="288.634766" xlink:href="#g"/>
<use x="352.013672" xlink:href="#f"/>
<use x="413.292969" xlink:href="#j"/>
</g>
</g>
<path d="m783.89 780.45v35.285q0 2.4 2.4 2.4h7.7425q2.4 0 2.4-2.4v-35.285q0-2.4-2.4-2.4h-7.7425q-2.4 0-2.4 2.4z" clip-path="url(#a)" fill="#fff" stroke="#fff"/>
<g clip-path="url(#a)">
<g transform="translate(787.96 780.45) rotate(90) scale(.08 -.08)">
<use xlink:href="#k"/>
<use x="60.818359" xlink:href="#d"/>
<use x="122.341797" xlink:href="#h"/>
<use x="163.439453" xlink:href="#i"/>
<use x="260.851562" xlink:href="#l"/>
<use x="288.634766" xlink:href="#g"/>
<use x="352.013672" xlink:href="#f"/>
<use x="413.292969" xlink:href="#j"/>
</g>
</g>
<path d="m831.34 780.45v35.285q0 2.4 2.4 2.4h7.7425q2.4 0 2.4-2.4v-35.285q0-2.4-2.4-2.4h-7.7425q-2.4 0-2.4 2.4z" clip-path="url(#a)" fill="#fff" stroke="#fff"/>
<g clip-path="url(#a)">
<g transform="translate(835.4 780.45) rotate(90) scale(.08 -.08)">
<use xlink:href="#k"/>
<use x="60.818359" xlink:href="#d"/>
<use x="122.341797" xlink:href="#h"/>
<use x="163.439453" xlink:href="#i"/>
<use x="260.851562" xlink:href="#l"/>
<use x="288.634766" xlink:href="#g"/>
<use x="352.013672" xlink:href="#f"/>
<use x="413.292969" xlink:href="#j"/>
</g>
</g>
<path d="m1116 780.45v35.285q0 2.4 2.4 2.4h7.7425q2.4 0 2.4-2.4v-35.285q0-2.4-2.4-2.4h-7.7425q-2.4 0-2.4 2.4z" clip-path="url(#a)" fill="#fff" stroke="#fff"/>
<g clip-path="url(#a)">
<g transform="translate(1120.1 780.45) rotate(90) scale(.08 -.08)">
<use xlink:href="#k"/>
<use x="60.818359" xlink:href="#d"/>
<use x="122.341797" xlink:href="#h"/>
<use x="163.439453" xlink:href="#i"/>
<use x="260.851562" xlink:href="#l"/>
<use x="288.634766" xlink:href="#g"/>
<use x="352.013672" xlink:href="#f"/>
<use x="413.292969" xlink:href="#j"/>
</g>
</g>
<path d="m1637.9 780.45v35.285q0 2.4 2.4 2.4h7.7425q2.4 0 2.4-2.4v-35.285q0-2.4-2.4-2.4h-7.7425q-2.4 0-2.4 2.4z" clip-path="url(#a)" fill="#fff" stroke="#fff"/>
<g clip-path="url(#a)">
<g transform="translate(1642 780.45) rotate(90) scale(.08 -.08)">
<use xlink:href="#k"/>
<use x="60.818359" xlink:href="#d"/>
<use x="122.341797" xlink:href="#h"/>
<use x="163.439453" xlink:href="#i"/>
<use x="260.851562" xlink:href="#l"/>
<use x="288.634766" xlink:href="#g"/>
<use x="352.013672" xlink:href="#f"/>
<use x="413.292969" xlink:href="#j"/>
</g>
</g>
<defs>
<path id="b" d="m0 8.6603c2.2967 0 4.4997-0.9125 6.1237-2.5365 1.624-1.624 2.5365-3.827 2.5365-6.1237s-0.9125-4.4997-2.5365-6.1237c-1.624-1.624-3.827-2.5365-6.1237-2.5365s-4.4997 0.9125-6.1237 2.5365c-1.624 1.624-2.5365 3.827-2.5365 6.1237s0.9125 4.4997 2.5365 6.1237c1.624 1.624 3.827 2.5365 6.1237 2.5365z"/>
</defs>
<g clip-path="url(#a)">
<use x="78.474766" y="864.540557" fill="#ffffff" stroke="#ffffff" xlink:href="#b"/>
</g>
<g clip-path="url(#a)">
<use x="125.92074" y="864.540557" fill="#ffffff" stroke="#ffffff" xlink:href="#b"/>
</g>
<g clip-path="url(#a)">
<use x="173.366714" y="864.540557" fill="#ffffff" stroke="#ffffff" xlink:href="#b"/>
</g>
<g clip-path="url(#a)">
<use x="220.812688" y="864.540557" fill="#ffffff" stroke="#ffffff" xlink:href="#b"/>
</g>
<g clip-path="url(#a)">
<use x="268.258661" y="864.540557" fill="#ffffff" stroke="#ffffff" xlink:href="#b"/>
</g>
<g clip-path="url(#a)">
<use x="315.704635" y="864.540557" fill="#ffffff" stroke="#ffffff" xlink:href="#b"/>
</g>
<g clip-path="url(#a)">
<use x="363.150609" y="864.540557" fill="#ffffff" stroke="#ffffff" xlink:href="#b"/>
</g>
<g clip-path="url(#a)">
<use x="410.596583" y="864.540557" fill="#ffffff" stroke="#ffffff" xlink:href="#b"/>
</g>
<g clip-path="url(#a)">
<use x="458.042556" y="864.540557" fill="#ffffff" stroke="#ffffff" xlink:href="#b"/>
</g>
<g clip-path="url(#a)">
<use x="505.48853" y="864.540557" fill="#ffffff" stroke="#ffffff" xlink:href="#b"/>
</g>
<g clip-path="url(#a)">
<use x="552.934504" y="864.540557" fill="#ffffff" stroke="#ffffff" xlink:href="#b"/>
</g>
<g clip-path="url(#a)">
<use x="600.380478" y="864.540557" fill="#ffffff" stroke="#ffffff" xlink:href="#b"/>
</g>
<g clip-path="url(#a)">
<use x="647.826451" y="864.540557" fill="#ffffff" stroke="#ffffff" xlink:href="#b"/>
</g>
<g clip-path="url(#a)">
<use x="695.272425" y="864.540557" fill="#ffffff" stroke="#ffffff" xlink:href="#b"/>
</g>
<g clip-path="url(#a)">
<use x="742.718399" y="864.540557" fill="#ffffff" stroke="#ffffff" xlink:href="#b"/>
</g>
<g clip-path="url(#a)">
<use x="790.164373" y="864.540557" fill="#ffffff" stroke="#ffffff" xlink:href="#b"/>
</g>
<g clip-path="url(#a)">
<use x="837.610346" y="864.540557" fill="#ffffff" stroke="#ffffff" xlink:href="#b"/>
</g>
<g clip-path="url(#a)">
<use x="885.05632" y="864.540557" fill="#ffffff" stroke="#ffffff" xlink:href="#b"/>
</g>
<g clip-path="url(#a)">
<use x="932.502294" y="864.540557" fill="#ffffff" stroke="#ffffff" xlink:href="#b"/>
</g>
<g clip-path="url(#a)">
<use x="979.948268" y="864.540557" fill="#ffffff" stroke="#ffffff" xlink:href="#b"/>
</g>
<g clip-path="url(#a)">
<use x="1027.394241" y="864.540557" fill="#ffffff" stroke="#ffffff" xlink:href="#b"/>
</g>
<g clip-path="url(#a)">
<use x="1074.840215" y="864.540557" fill="#ffffff" stroke="#ffffff" xlink:href="#b"/>
</g>
<g clip-path="url(#a)">
<use x="1122.286189" y="864.540557" fill="#ffffff" stroke="#ffffff" xlink:href="#b"/>
</g>
<g clip-path="url(#a)">
<use x="1169.732163" y="864.540557" fill="#ffffff" stroke="#ffffff" xlink:href="#b"/>
</g>
<g clip-path="url(#a)">
<use x="1217.178137" y="864.540557" fill="#ffffff" stroke="#ffffff" xlink:href="#b"/>
</g>
<g clip-path="url(#a)">
<use x="1264.62411" y="864.540557" fill="#ffffff" stroke="#ffffff" xlink:href="#b"/>
</g>
<g clip-path="url(#a)">
<use x="1312.070084" y="864.540557" fill="#ffffff" stroke="#ffffff" xlink:href="#b"/>
</g>
<g clip-path="url(#a)">
<use x="1359.516058" y="864.540557" fill="#ffffff" stroke="#ffffff" xlink:href="#b"/>
</g>
<g clip-path="url(#a)">
<use x="1406.962032" y="864.540557" fill="#ffffff" stroke="#ffffff" xlink:href="#b"/>
</g>
<g clip-path="url(#a)">
<use x="1454.408005" y="864.540557" fill="#ffffff" stroke="#ffffff" xlink:href="#b"/>
</g>
<g clip-path="url(#a)">
<use x="1501.853979" y="864.540557" fill="#ffffff" stroke="#ffffff" xlink:href="#b"/>
</g>
<g clip-path="url(#a)">
<use x="1549.299953" y="864.540557" fill="#ffffff" stroke="#ffffff" xlink:href="#b"/>
</g>
<g clip-path="url(#a)">
<use x="1596.745927" y="864.540557" fill="#ffffff" stroke="#ffffff" xlink:href="#b"/>
</g>
<g clip-path="url(#a)">
<use x="1644.1919" y="864.540557" fill="#ffffff" stroke="#ffffff" xlink:href="#b"/>
</g>
<g clip-path="url(#a)">
<use x="892.183975" y="42.12611" fill="#ffffff" stroke="#ffffff" xlink:href="#b"/>
</g>
<g clip-path="url(#a)">
<use x="273.530436" y="326.647815" fill="#ffffff" stroke="#ffffff" xlink:href="#b"/>
</g>
<g clip-path="url(#a)">
<use x="885.05632" y="731.640438" fill="#ffffff" stroke="#ffffff" xlink:href="#b"/>
</g>
<g clip-path="url(#a)">
<use x="1019.486579" y="463.991412" fill="#ffffff" stroke="#ffffff" xlink:href="#b"/>
</g>
<g clip-path="url(#a)">
<use x="1317.153581" y="186.174812" fill="#ffffff" stroke="#ffffff" xlink:href="#b"/>
</g>
<g clip-path="url(#a)">
<use x="1193.45515" y="463.991412" fill="#ffffff" stroke="#ffffff" xlink:href="#b"/>
</g>
<g clip-path="url(#a)">
<use x="1264.62411" y="731.640438" fill="#ffffff" stroke="#ffffff" xlink:href="#b"/>
</g>
<g clip-path="url(#a)">
<use x="1493.381484" y="326.647815" fill="#ffffff" stroke="#ffffff" xlink:href="#b"/>
</g>
<g clip-path="url(#a)">
<use x="1312.070084" y="731.640438" fill="#ffffff" stroke="#ffffff" xlink:href="#b"/>
</g>
<g clip-path="url(#a)">
<use x="1395.100538" y="463.991412" fill="#ffffff" stroke="#ffffff" xlink:href="#b"/>
</g>
<g clip-path="url(#a)">
<use x="1454.408005" y="731.640438" fill="#ffffff" stroke="#ffffff" xlink:href="#b"/>
</g>
<g clip-path="url(#a)">
<use x="1501.853979" y="731.640438" fill="#ffffff" stroke="#ffffff" xlink:href="#b"/>
</g>
<g clip-path="url(#a)">
<use x="1549.299953" y="731.640438" fill="#ffffff" stroke="#ffffff" xlink:href="#b"/>
</g>
<g clip-path="url(#a)">
<use x="1596.745927" y="731.640438" fill="#ffffff" stroke="#ffffff" xlink:href="#b"/>
</g>
<g clip-path="url(#a)">
<use x="1383.239045" y="598.740318" fill="#ffffff" stroke="#ffffff" xlink:href="#b"/>
</g>
<g clip-path="url(#a)">
<use x="1406.962032" y="731.640438" fill="#ffffff" stroke="#ffffff" xlink:href="#b"/>
</g>
<g clip-path="url(#a)">
<use x="1359.516058" y="731.640438" fill="#ffffff" stroke="#ffffff" xlink:href="#b"/>
</g>
<g clip-path="url(#a)">
<use x="1169.732163" y="731.640438" fill="#ffffff" stroke="#ffffff" xlink:href="#b"/>
</g>
<g clip-path="url(#a)">
<use x="1217.178137" y="598.740318" fill="#ffffff" stroke="#ffffff" xlink:href="#b"/>
</g>
<g clip-path="url(#a)">
<use x="1217.178137" y="731.640438" fill="#ffffff" stroke="#ffffff" xlink:href="#b"/>
</g>
<g clip-path="url(#a)">
<use x="956.225281" y="598.740318" fill="#ffffff" stroke="#ffffff" xlink:href="#b"/>
</g>
<g clip-path="url(#a)">
<use x="1027.394241" y="731.640438" fill="#ffffff" stroke="#ffffff" xlink:href="#b"/>
</g>
<g clip-path="url(#a)">
<use x="1074.840215" y="731.640438" fill="#ffffff" stroke="#ffffff" xlink:href="#b"/>
</g>
<g clip-path="url(#a)">
<use x="932.502294" y="731.640438" fill="#ffffff" stroke="#ffffff" xlink:href="#b"/>
</g>
<g clip-path="url(#a)">
<use x="979.948268" y="731.640438" fill="#ffffff" stroke="#ffffff" xlink:href="#b"/>
</g>
<g clip-path="url(#a)">
<use x="125.92074" y="598.740318" fill="#ffffff" stroke="#ffffff" xlink:href="#b"/>
</g>
<g clip-path="url(#a)">
<use x="268.258661" y="731.640438" fill="#ffffff" stroke="#ffffff" xlink:href="#b"/>
</g>
<g clip-path="url(#a)">
<use x="315.704635" y="731.640438" fill="#ffffff" stroke="#ffffff" xlink:href="#b"/>
</g>
<g clip-path="url(#a)">
<use x="436.955457" y="463.991412" fill="#ffffff" stroke="#ffffff" xlink:href="#b"/>
</g>
<g clip-path="url(#a)">
<use x="363.150609" y="731.640438" fill="#ffffff" stroke="#ffffff" xlink:href="#b"/>
</g>
<g clip-path="url(#a)">
<use x="410.596583" y="731.640438" fill="#ffffff" stroke="#ffffff" xlink:href="#b"/>
</g>
<g clip-path="url(#a)">
<use x="537.119179" y="598.740318" fill="#ffffff" stroke="#ffffff" xlink:href="#b"/>
</g>
<g clip-path="url(#a)">
<use x="458.042556" y="731.640438" fill="#ffffff" stroke="#ffffff" xlink:href="#b"/>
</g>
<g clip-path="url(#a)">
<use x="505.48853" y="731.640438" fill="#ffffff" stroke="#ffffff" xlink:href="#b"/>
</g>
<g clip-path="url(#a)">
<use x="695.272425" y="731.640438" fill="#ffffff" stroke="#ffffff" xlink:href="#b"/>
</g>
<g clip-path="url(#a)">
<use x="220.812688" y="731.640438" fill="#ffffff" stroke="#ffffff" xlink:href="#b"/>
</g>
<g clip-path="url(#a)">
<use x="552.934504" y="731.640438" fill="#ffffff" stroke="#ffffff" xlink:href="#b"/>
</g>
<g clip-path="url(#a)">
<use x="78.474766" y="731.640438" fill="#ffffff" stroke="#ffffff" xlink:href="#b"/>
</g>
<g clip-path="url(#a)">
<use x="125.92074" y="731.640438" fill="#ffffff" stroke="#ffffff" xlink:href="#b"/>
</g>
<g clip-path="url(#a)">
<use x="173.366714" y="731.640438" fill="#ffffff" stroke="#ffffff" xlink:href="#b"/>
</g>
<g clip-path="url(#a)">
<use x="600.380478" y="731.640438" fill="#ffffff" stroke="#ffffff" xlink:href="#b"/>
</g>
<g clip-path="url(#a)">
<use x="790.164373" y="731.640438" fill="#ffffff" stroke="#ffffff" xlink:href="#b"/>
</g>
<g clip-path="url(#a)">
<use x="837.610346" y="731.640438" fill="#ffffff" stroke="#ffffff" xlink:href="#b"/>
</g>
<g clip-path="url(#a)">
<use x="1122.286189" y="731.640438" fill="#ffffff" stroke="#ffffff" xlink:href="#b"/>
</g>
<g clip-path="url(#a)">
<use x="1644.1919" y="731.640438" fill="#ffffff" stroke="#ffffff" xlink:href="#b"/>
</g>
<g clip-path="url(#a)">
<defs>
<path id="aw" d="m9.8125 72.906h9.8594v-72.906h-9.8594z"/>
</defs>
<g transform="translate(73.831 867.3) scale(.1 -.1)">
<use xlink:href="#aw"/>
<use x="29.492188" xlink:href="#g"/>
</g>
</g>
<g clip-path="url(#a)">
<defs>
<path id="av" d="m9.8125 72.906h9.8594v-67.828q0-13.188-5-19.141t-16.094-5.9531h-3.75v8.2969h3.0781q6.5312 0 9.2188 3.6719 2.6875 3.6562 2.6875 13.125z"/>
<path id="ah" d="m8.5 21.578v33.109h8.9844v-32.766q0-7.7656 3.0156-11.656 3.0312-3.875 9.0938-3.875 7.2656 0 11.484 4.6406 4.2344 4.6406 4.2344 12.656v31h8.9844v-54.688h-8.9844v8.4062q-3.2656-4.9844-7.5938-7.4062-4.3125-2.4219-10.031-2.4219-9.4219 0-14.312 5.8594-4.875 5.8594-4.875 17.141z"/>
</defs>
<g transform="translate(115.03 867.3) scale(.1 -.1)">
<use xlink:href="#av"/>
<use x="29.492188" xlink:href="#ah"/>
<use x="92.871094" xlink:href="#g"/>
<use x="156.25" xlink:href="#d"/>
</g>
</g>
<g clip-path="url(#a)">
<defs>
<path id="m" d="m19.188 8.2969h34.422v-8.2969h-46.281v8.2969q5.6094 5.8125 15.297 15.594 9.7031 9.7969 12.188 12.641 4.7344 5.3125 6.6094 9 1.8906 3.6875 1.8906 7.25 0 5.8125-4.0781 9.4688-4.0781 3.6719-10.625 3.6719-4.6406 0-9.7969-1.6094-5.1406-1.6094-11-4.8906v9.9688q5.9531 2.3906 11.125 3.6094 5.1875 1.2188 9.4844 1.2188 11.328 0 18.062-5.6719 6.7344-5.6562 6.7344-15.125 0-4.5-1.6875-8.5312-1.6719-4.0156-6.125-9.4844-1.2188-1.4219-7.7656-8.1875-6.5312-6.7656-18.453-18.922z"/>
<path id="v" d="m31.781 66.406q-7.6094 0-11.453-7.5-3.8281-7.4844-3.8281-22.531 0-14.984 3.8281-22.484 3.8438-7.5 11.453-7.5 7.6719 0 11.5 7.5 3.8438 7.5 3.8438 22.484 0 15.047-3.8438 22.531-3.8281 7.5-11.5 7.5zm0 7.8125q12.266 0 18.734-9.7031 6.4688-9.6875 6.4688-28.141 0-18.406-6.4688-28.109-6.4688-9.6875-18.734-9.6875-12.25 0-18.719 9.6875-6.4688 9.7031-6.4688 28.109 0 18.453 6.4688 28.141 6.4688 9.7031 18.719 9.7031z"/>
<path id="c" d="m12.406 8.2969h16.109v55.625l-17.531-3.5156v8.9844l17.438 3.5156h9.8594v-64.609h16.109v-8.2969h-41.984z"/>
</defs>
<g transform="translate(160.64 867.3) scale(.1 -.1)">
<use xlink:href="#m"/>
<use x="63.623047" xlink:href="#v"/>
<use x="127.246094" xlink:href="#c"/>
<use x="190.869141" xlink:href="#m"/>
</g>
</g>
<g clip-path="url(#a)">
<defs>
<path id="af" d="m11.719 12.406h10.297v-8.4062l-8-15.625h-6.2969l4 15.625z"/>
</defs>
<g transform="translate(219.22 867.3) scale(.1 -.1)">
<use xlink:href="#af"/>
</g>
</g>
<g clip-path="url(#a)">
<defs>
<path id="ap" d="m32.172-5.0781q-3.7969-9.7656-7.4219-12.734-3.6094-2.9844-9.6562-2.9844h-7.1875v7.5156h5.2812q3.7031 0 5.75 1.7656 2.0625 1.75 4.5469 8.2969l1.6094 4.0938-22.109 53.812h9.5156l17.094-42.766 17.094 42.766h9.5156z"/>
</defs>
<g transform="translate(253.61 867.3) scale(.1 -.1)">
<use xlink:href="#s"/>
<use x="69.824219" xlink:href="#f"/>
<use x="131.103516" xlink:href="#h"/>
<use x="172.185547" xlink:href="#d"/>
<use x="233.708984" xlink:href="#ap"/>
</g>
</g>
<g clip-path="url(#a)">
<defs>
<path id="y" d="m18.109 8.2031v-29h-9.0312v75.484h9.0312v-8.2969q2.8438 4.875 7.1562 7.2344 4.3281 2.375 10.328 2.375 9.9688 0 16.188-7.9062 6.2344-7.9062 6.2344-20.797t-6.2344-20.812q-6.2188-7.9062-16.188-7.9062-6 0-10.328 2.375-4.3125 2.375-7.1562 7.25zm30.578 19.094q0 9.9062-4.0781 15.547t-11.203 5.6406q-7.1406 0-11.219-5.6406t-4.0781-15.547 4.0781-15.547 11.219-5.6406q7.125 0 11.203 5.6406t4.0781 15.547z"/>
<path id="r" d="m30.609 48.391q-7.2188 0-11.422-5.6406t-4.2031-15.453 4.1719-15.453q4.1875-5.6406 11.453-5.6406 7.1875 0 11.375 5.6562 4.2031 5.6719 4.2031 15.438 0 9.7188-4.2031 15.406-4.1875 5.6875-11.375 5.6875zm0 7.6094q11.719 0 18.406-7.625 6.7031-7.6094 6.7031-21.078 0-13.422-6.7031-21.078-6.6875-7.6406-18.406-7.6406-11.766 0-18.438 7.6406-6.6562 7.6562-6.6562 21.078 0 13.469 6.6562 21.078 6.6719 7.625 18.438 7.625z"/>
<path id="t" d="m44.281 53.078v-8.5q-3.7969 1.9531-7.9062 2.9219-4.0938 0.98438-8.5 0.98438-6.6875 0-10.031-2.0469t-3.3438-6.1562q0-3.125 2.3906-4.9062t9.625-3.3906l3.0781-0.6875q9.5625-2.0469 13.594-5.7812t4.0312-10.422q0-7.625-6.0312-12.078-6.0312-4.4375-16.578-4.4375-4.3906 0-9.1562 0.85938t-10.031 2.5625v9.2812q4.9844-2.5938 9.8125-3.8906 4.8281-1.2812 9.5781-1.2812 6.3438 0 9.75 2.1719 3.4219 2.1719 3.4219 6.125 0 3.6562-2.4688 5.6094-2.4531 1.9531-10.812 3.7656l-3.125 0.73438q-8.3438 1.75-12.062 5.3906-3.7031 3.6406-3.7031 9.9844 0 7.7188 5.4688 11.906 5.4688 4.2031 15.531 4.2031 4.9688 0 9.3594-0.73438 4.4062-0.71875 8.1094-2.1875z"/>
<path id="p" d="m18.312 70.219v-15.531h18.5v-6.9844h-18.5v-29.688q0-6.6875 1.8281-8.5938t7.4531-1.9062h9.2188v-7.5156h-9.2188q-10.406 0-14.359 3.875-3.9531 3.8906-3.9531 14.141v29.688h-6.5938v6.9844h6.5938v15.531z"/>
<path id="ai" d="m45.406 46.391v29.594h8.9844v-75.984h-8.9844v8.2031q-2.8281-4.875-7.1562-7.25-4.3125-2.375-10.375-2.375-9.9062 0-16.141 7.9062-6.2188 7.9219-6.2188 20.812t6.2188 20.797q6.2344 7.9062 16.141 7.9062 6.0625 0 10.375-2.375 4.3281-2.3594 7.1562-7.2344zm-30.609-19.094q0-9.9062 4.0781-15.547t11.203-5.6406 11.219 5.6406q4.1094 5.6406 4.1094 15.547t-4.1094 15.547q-4.0938 5.6406-11.219 5.6406t-11.203-5.6406-4.0781-15.547z"/>
</defs>
<g transform="translate(298.66 867.3) scale(.1 -.1)">
<use xlink:href="#y"/>
<use x="63.476562" xlink:href="#r"/>
<use x="124.658203" xlink:href="#t"/>
<use x="176.757812" xlink:href="#p"/>
<use x="215.966797" xlink:href="#d"/>
<use x="277.490234" xlink:href="#ai"/>
</g>
</g>
<g clip-path="url(#a)">
<g transform="translate(360.09 867.3) scale(.1 -.1)">
<use xlink:href="#f"/>
</g>
</g>
<g clip-path="url(#a)">
<defs>
<path id="z" d="m54.891 33.016v-33.016h-8.9844v32.719q0 7.7656-3.0312 11.609-3.0312 3.8594-9.0781 3.8594-7.2812 0-11.484-4.6406-4.2031-4.625-4.2031-12.641v-30.906h-9.0312v75.984h9.0312v-29.797q3.2344 4.9375 7.5938 7.375 4.375 2.4375 10.094 2.4375 9.4219 0 14.25-5.8281 4.8438-5.8281 4.8438-17.156z"/>
</defs>
<g transform="translate(396.17 867.3) scale(.1 -.1)">
<use xlink:href="#y"/>
<use x="63.476562" xlink:href="#z"/>
<use x="126.855469" xlink:href="#r"/>
<use x="188.037109" xlink:href="#p"/>
<use x="227.246094" xlink:href="#r"/>
</g>
</g>
<g clip-path="url(#a)">
<g transform="translate(447.89 867.3) scale(.1 -.1)">
<use xlink:href="#p"/>
<use x="39.208984" xlink:href="#z"/>
<use x="102.587891" xlink:href="#f"/>
<use x="163.867188" xlink:href="#p"/>
</g>
</g>
<g clip-path="url(#a)">
<defs>
<path id="ag" d="m4.2031 54.688h8.9844l11.234-42.672 11.172 42.672h10.594l11.234-42.672 11.188 42.672h8.9844l-14.312-54.688h-10.594l-11.766 44.828-11.812-44.828h-10.609z"/>
</defs>
<g transform="translate(491.25 867.3) scale(.1 -.1)">
<use xlink:href="#ag"/>
<use x="81.787109" xlink:href="#h"/>
<use x="122.869141" xlink:href="#r"/>
<use x="184.050781" xlink:href="#p"/>
<use x="223.259766" xlink:href="#d"/>
</g>
</g>
<g clip-path="url(#a)">
<g transform="translate(551.35 867.3) scale(.1 -.1)">
<use xlink:href="#af"/>
</g>
</g>
<g clip-path="url(#a)">
<defs>
<path id="ao" d="m17.922 72.906v-27.109h-8.2969v27.109zm18.453 0v-27.109h-8.2969v27.109z"/>
</defs>
<g transform="translate(598.08 867.3) scale(.1 -.1)">
<use xlink:href="#ao"/>
</g>
</g>
<g clip-path="url(#a)">
<defs>
<path id="at" d="m9.8125 72.906h14.703l18.594-49.609 18.703 49.609h14.703v-72.906h-9.625v64.016l-18.797-50h-9.9062l-18.797 50v-64.016h-9.5781z"/>
</defs>
<g transform="translate(640.02 867.3) scale(.1 -.1)">
<use xlink:href="#at"/>
<use x="86.279297" xlink:href="#s"/>
</g>
</g>
<g clip-path="url(#a)">
<g transform="translate(674.06 867.3) scale(.1 -.1)">
<use xlink:href="#aj"/>
<use x="63.476562" xlink:href="#ah"/>
<use x="126.855469" xlink:href="#i"/>
<use x="224.267578" xlink:href="#i"/>
<use x="321.679688" xlink:href="#d"/>
<use x="383.203125" xlink:href="#h"/>
</g>
</g>
<g clip-path="url(#a)">
<g transform="translate(729.99 867.3) scale(.1 -.1)">
<use xlink:href="#m"/>
<use x="63.623047" xlink:href="#v"/>
<use x="127.246094" xlink:href="#c"/>
<use x="190.869141" xlink:href="#m"/>
</g>
</g>
<g clip-path="url(#a)">
<g transform="translate(787.86 867.3) scale(.1 -.1)">
<use xlink:href="#ao"/>
</g>
</g>
<g clip-path="url(#a)">
<g transform="translate(836.02 867.3) scale(.1 -.1)">
<use xlink:href="#af"/>
</g>
</g>
<g clip-path="url(#a)">
<defs>
<path id="aq" d="m37.109 75.984v-7.4844h-8.5938q-4.8281 0-6.7188-1.9531-1.875-1.9531-1.875-7.0312v-4.8281h14.797v-6.9844h-14.797v-47.703h-9.0312v47.703h-8.5938v6.9844h8.5938v3.8125q0 9.125 4.25 13.297 4.25 4.1875 13.469 4.1875z"/>
</defs>
<g transform="translate(873.14 867.3) scale(.1 -.1)">
<use xlink:href="#f"/>
<use x="61.279297" xlink:href="#aq"/>
<use x="96.46875" xlink:href="#p"/>
<use x="135.677734" xlink:href="#d"/>
<use x="197.201172" xlink:href="#h"/>
</g>
</g>
<g clip-path="url(#a)">
<g transform="translate(924.3 867.3) scale(.1 -.1)">
<use xlink:href="#p"/>
<use x="39.208984" xlink:href="#z"/>
<use x="102.587891" xlink:href="#d"/>
</g>
</g>
<g clip-path="url(#a)">
<g transform="translate(965.53 867.3) scale(.1 -.1)">
<use xlink:href="#y"/>
<use x="63.476562" xlink:href="#z"/>
<use x="126.855469" xlink:href="#r"/>
<use x="188.037109" xlink:href="#p"/>
<use x="227.246094" xlink:href="#r"/>
</g>
</g>
<g clip-path="url(#a)">
<g transform="translate(1017.6 867.3) scale(.1 -.1)">
<use xlink:href="#ag"/>
<use x="81.787109" xlink:href="#f"/>
<use x="143.066406" xlink:href="#t"/>
</g>
</g>
<g clip-path="url(#a)">
<g transform="translate(1057.8 867.3) scale(.1 -.1)">
<use xlink:href="#y"/>
<use x="63.476562" xlink:href="#r"/>
<use x="124.658203" xlink:href="#t"/>
<use x="176.757812" xlink:href="#p"/>
<use x="215.966797" xlink:href="#d"/>
<use x="277.490234" xlink:href="#ai"/>
</g>
</g>
<g clip-path="url(#a)">
<g transform="translate(1120.7 867.3) scale(.1 -.1)">
<use xlink:href="#af"/>
</g>
</g>
<g clip-path="url(#a)">
<g transform="translate(1155.7 867.3) scale(.1 -.1)">
<use xlink:href="#i"/>
<use x="97.412109" xlink:href="#f"/>
<use x="158.691406" xlink:href="#g"/>
<use x="222.070312" xlink:href="#ap"/>
</g>
</g>
<g clip-path="url(#a)">
<g transform="translate(1206.6 867.3) scale(.1 -.1)">
<use xlink:href="#aq"/>
<use x="35.205078" xlink:href="#f"/>
<use x="96.484375" xlink:href="#g"/>
<use x="159.863281" xlink:href="#t"/>
</g>
</g>
<g clip-path="url(#a)">
<defs>
<path id="an" d="m48.781 52.594v-8.4062q-3.8125 2.1094-7.6406 3.1562t-7.7344 1.0469q-8.75 0-13.594-5.5469-4.8281-5.5312-4.8281-15.547t4.8281-15.562q4.8438-5.5312 13.594-5.5312 3.9062 0 7.7344 1.0469t7.6406 3.1562v-8.3125q-3.7656-1.75-7.7969-2.625-4.0156-0.89062-8.5625-0.89062-12.359 0-19.641 7.7656-7.2656 7.7656-7.2656 20.953 0 13.375 7.3438 21.031 7.3594 7.6719 20.156 7.6719 4.1406 0 8.0938-0.85938 3.9531-0.84375 7.6719-2.5469z"/>
</defs>
<g transform="translate(1237.2 867.3) scale(.1 -.1)">
<use xlink:href="#t"/>
<use x="52.099609" xlink:href="#y"/>
<use x="115.576172" xlink:href="#d"/>
<use x="177.099609" xlink:href="#an"/>
<use x="232.080078" xlink:href="#ah"/>
<use x="295.458984" xlink:href="#j"/>
<use x="323.242188" xlink:href="#f"/>
<use x="384.521484" xlink:href="#p"/>
<use x="423.730469" xlink:href="#d"/>
<use x="485.253906" xlink:href="#ai"/>
</g>
</g>
<g clip-path="url(#a)">
<g transform="translate(1301.9 867.3) scale(.1 -.1)">
<use xlink:href="#p"/>
<use x="39.208984" xlink:href="#z"/>
<use x="102.587891" xlink:href="#f"/>
<use x="163.867188" xlink:href="#p"/>
</g>
</g>
<g clip-path="url(#a)">
<g transform="translate(1349.2 867.3) scale(.1 -.1)">
<use xlink:href="#g"/>
<use x="63.378906" xlink:href="#d"/>
<use x="124.902344" xlink:href="#ag"/>
</g>
</g>
<g clip-path="url(#a)">
<g transform="translate(1392.2 867.3) scale(.1 -.1)">
<use xlink:href="#i"/>
<use x="97.412109" xlink:href="#ah"/>
<use x="160.791016" xlink:href="#t"/>
<use x="212.890625" xlink:href="#l"/>
<use x="240.673828" xlink:href="#an"/>
</g>
</g>
<g clip-path="url(#a)">
<g transform="translate(1446.2 867.3) scale(.1 -.1)">
<use xlink:href="#ag"/>
<use x="81.787109" xlink:href="#l"/>
<use x="109.570312" xlink:href="#j"/>
<use x="137.353516" xlink:href="#j"/>
</g>
</g>
<g clip-path="url(#a)">
<defs>
<path id="ar" d="m48.688 27.297q0 9.9062-4.0781 15.547t-11.203 5.6406q-7.1406 0-11.219-5.6406t-4.0781-15.547 4.0781-15.547 11.219-5.6406q7.125 0 11.203 5.6406t4.0781 15.547zm-30.578 19.094q2.8438 4.875 7.1562 7.2344 4.3281 2.375 10.328 2.375 9.9688 0 16.188-7.9062 6.2344-7.9062 6.2344-20.797t-6.2344-20.812q-6.2188-7.9062-16.188-7.9062-6 0-10.328 2.375-4.3125 2.375-7.1562 7.25v-8.2031h-9.0312v75.984h9.0312z"/>
</defs>
<g transform="translate(1495.6 867.3) scale(.1 -.1)">
<use xlink:href="#ar"/>
<use x="63.476562" xlink:href="#d"/>
</g>
</g>
<g clip-path="url(#a)">
<g transform="translate(1527.8 867.3) scale(.1 -.1)">
<use xlink:href="#h"/>
<use x="41.082031" xlink:href="#d"/>
<use x="102.605469" xlink:href="#j"/>
<use x="130.388672" xlink:href="#d"/>
<use x="191.912109" xlink:href="#f"/>
<use x="253.191406" xlink:href="#t"/>
<use x="305.291016" xlink:href="#d"/>
<use x="366.814453" xlink:href="#ai"/>
</g>
</g>
<g clip-path="url(#a)">
<g transform="translate(1584.9 867.3) scale(.1 -.1)">
<use xlink:href="#t"/>
<use x="52.099609" xlink:href="#r"/>
<use x="113.28125" xlink:href="#r"/>
<use x="174.462891" xlink:href="#g"/>
</g>
</g>
<g clip-path="url(#a)">
<defs>
<path id="e" d="m10.688 12.406h10.312v-12.406h-10.312z"/>
</defs>
<g transform="translate(1642.6 867.3) scale(.1 -.1)">
<use xlink:href="#e"/>
</g>
</g>
<g clip-path="url(#a)">
<g transform="translate(884.23 44.885) scale(.1 -.1)">
<use xlink:href="#c"/>
<use x="63.623047" xlink:href="#e"/>
<use x="95.410156" xlink:href="#c"/>
</g>
</g>
<g clip-path="url(#a)">
<g transform="translate(265.58 329.41) scale(.1 -.1)">
<use xlink:href="#c"/>
<use x="63.623047" xlink:href="#e"/>
<use x="95.410156" xlink:href="#m"/>
</g>
</g>
<g clip-path="url(#a)">
<defs>
<path id="o" d="m40.578 39.312q7.0781-1.5156 11.047-6.3125 3.9844-4.7812 3.9844-11.812 0-10.781-7.4219-16.703-7.4219-5.9062-21.094-5.9062-4.5781 0-9.4375 0.90625t-10.031 2.7188v9.5156q4.0938-2.3906 8.9688-3.6094 4.8906-1.2188 10.219-1.2188 9.2656 0 14.125 3.6562t4.8594 10.641q0 6.4531-4.5156 10.078-4.5156 3.6406-12.562 3.6406h-8.5v8.1094h8.8906q7.2656 0 11.125 2.9062t3.8594 8.375q0 5.6094-3.9844 8.6094-3.9688 3.0156-11.391 3.0156-4.0625 0-8.7031-0.89062-4.6406-0.875-10.203-2.7188v8.7812q5.625 1.5625 10.531 2.3438t9.25 0.78125q11.234 0 17.766-5.1094 6.5469-5.0938 6.5469-13.781 0-6.0625-3.4688-10.234t-9.8594-5.7812z"/>
</defs>
<g transform="translate(877.1 734.4) scale(.1 -.1)">
<use xlink:href="#c"/>
<use x="63.623047" xlink:href="#e"/>
<use x="95.410156" xlink:href="#o"/>
</g>
</g>
<g clip-path="url(#a)">
<defs>
<path id="n" d="m37.797 64.312-24.906-38.922h24.906zm-2.5938 8.5938h12.406v-47.516h10.406v-8.2031h-10.406v-17.188h-9.8125v17.188h-32.906v9.5156z"/>
</defs>
<g transform="translate(1011.5 466.75) scale(.1 -.1)">
<use xlink:href="#c"/>
<use x="63.623047" xlink:href="#e"/>
<use x="95.410156" xlink:href="#n"/>
</g>
</g>
<g clip-path="url(#a)">
<defs>
<path id="w" d="m10.797 72.906h38.719v-8.3125h-29.688v-17.859q2.1406 0.73438 4.2812 1.0938 2.1562 0.35938 4.3125 0.35938 12.203 0 19.328-6.6875 7.1406-6.6875 7.1406-18.109 0-11.766-7.3281-18.297-7.3281-6.5156-20.656-6.5156-4.5938 0-9.3594 0.78125-4.75 0.78125-9.8281 2.3438v9.9219q4.3906-2.3906 9.0781-3.5625t9.9062-1.1719q8.4531 0 13.375 4.4375 4.9375 4.4375 4.9375 12.062 0 7.6094-4.9375 12.047-4.9219 4.4531-13.375 4.4531-3.9531 0-7.8906-0.875-3.9219-0.875-8.0156-2.7344z"/>
</defs>
<g transform="translate(1309.2 188.93) scale(.1 -.1)">
<use xlink:href="#c"/>
<use x="63.623047" xlink:href="#e"/>
<use x="95.410156" xlink:href="#w"/>
</g>
</g>
<g clip-path="url(#a)">
<g transform="translate(1182.3 466.75) scale(.1 -.1)">
<use xlink:href="#c"/>
<use x="63.623047" xlink:href="#e"/>
<use x="95.410156" xlink:href="#c"/>
<use x="159.033203" xlink:href="#v"/>
</g>
</g>
<g clip-path="url(#a)">
<g transform="translate(1253.5 734.4) scale(.1 -.1)">
<use xlink:href="#c"/>
<use x="63.623047" xlink:href="#e"/>
<use x="95.410156" xlink:href="#c"/>
<use x="159.033203" xlink:href="#c"/>
</g>
</g>
<g clip-path="url(#a)">
<g transform="translate(1482.2 329.41) scale(.1 -.1)">
<use xlink:href="#c"/>
<use x="63.623047" xlink:href="#e"/>
<use x="95.410156" xlink:href="#c"/>
<use x="159.033203" xlink:href="#m"/>
</g>
</g>
<g clip-path="url(#a)">
<g transform="translate(1300.9 734.4) scale(.1 -.1)">
<use xlink:href="#c"/>
<use x="63.623047" xlink:href="#e"/>
<use x="95.410156" xlink:href="#c"/>
<use x="159.033203" xlink:href="#o"/>
</g>
</g>
<g clip-path="url(#a)">
<g transform="translate(1384 466.75) scale(.1 -.1)">
<use xlink:href="#c"/>
<use x="63.623047" xlink:href="#e"/>
<use x="95.410156" xlink:href="#c"/>
<use x="159.033203" xlink:href="#n"/>
</g>
</g>
<g clip-path="url(#a)">
<g transform="translate(1443.3 734.4) scale(.1 -.1)">
<use xlink:href="#c"/>
<use x="63.623047" xlink:href="#e"/>
<use x="95.410156" xlink:href="#c"/>
<use x="159.033203" xlink:href="#w"/>
</g>
</g>
<g clip-path="url(#a)">
<defs>
<path id="ae" d="m33.016 40.375q-6.6406 0-10.531-4.5469-3.875-4.5312-3.875-12.438 0-7.8594 3.875-12.438 3.8906-4.5625 10.531-4.5625t10.516 4.5625q3.875 4.5781 3.875 12.438 0 7.9062-3.875 12.438-3.875 4.5469-10.516 4.5469zm19.578 30.922v-8.9844q-3.7188 1.75-7.5 2.6719-3.7812 0.9375-7.5 0.9375-9.7656 0-14.922-6.5938-5.1406-6.5938-5.875-19.922 2.875 4.25 7.2188 6.5156 4.3594 2.2656 9.5781 2.2656 10.984 0 17.359-6.6719 6.375-6.6562 6.375-18.125 0-11.234-6.6406-18.031-6.6406-6.7812-17.672-6.7812-12.656 0-19.344 9.6875-6.6875 9.7031-6.6875 28.109 0 17.281 8.2031 27.562t22.016 10.281q3.7188 0 7.5-0.73438t7.8906-2.1875z"/>
</defs>
<g transform="translate(1490.7 734.4) scale(.1 -.1)">
<use xlink:href="#c"/>
<use x="63.623047" xlink:href="#e"/>
<use x="95.410156" xlink:href="#c"/>
<use x="159.033203" xlink:href="#ae"/>
</g>
</g>
<g clip-path="url(#a)">
<defs>
<path id="ad" d="m8.2031 72.906h46.875v-4.2031l-26.469-68.703h-10.297l24.906 64.594h-35.016z"/>
</defs>
<g transform="translate(1538.2 734.4) scale(.1 -.1)">
<use xlink:href="#c"/>
<use x="63.623047" xlink:href="#e"/>
<use x="95.410156" xlink:href="#c"/>
<use x="159.033203" xlink:href="#ad"/>
</g>
</g>
<g clip-path="url(#a)">
<defs>
<path id="ac" d="m31.781 34.625q-7.0312 0-11.062-3.7656-4.0156-3.7656-4.0156-10.344 0-6.5938 4.0156-10.359 4.0312-3.7656 11.062-3.7656t11.078 3.7812q4.0625 3.7969 4.0625 10.344 0 6.5781-4.0312 10.344-4.0156 3.7656-11.109 3.7656zm-9.8594 4.1875q-6.3438 1.5625-9.8906 5.9062-3.5312 4.3594-3.5312 10.609 0 8.7344 6.2188 13.812 6.2344 5.0781 17.062 5.0781 10.891 0 17.094-5.0781t6.2031-13.812q0-6.25-3.5469-10.609-3.5312-4.3438-9.8281-5.9062 7.125-1.6562 11.094-6.5 3.9844-4.8281 3.9844-11.797 0-10.609-6.4688-16.281-6.4688-5.6562-18.531-5.6562-12.047 0-18.531 5.6562-6.4688 5.6719-6.4688 16.281 0 6.9688 4 11.797 4.0156 4.8438 11.141 6.5zm-3.6094 15.578q0-5.6562 3.5312-8.8281 3.5469-3.1719 9.9375-3.1719 6.3594 0 9.9375 3.1719 3.5938 3.1719 3.5938 8.8281 0 5.6719-3.5938 8.8438-3.5781 3.1719-9.9375 3.1719-6.3906 0-9.9375-3.1719-3.5312-3.1719-3.5312-8.8438z"/>
</defs>
<g transform="translate(1585.6 734.4) scale(.1 -.1)">
<use xlink:href="#c"/>
<use x="63.623047" xlink:href="#e"/>
<use x="95.410156" xlink:href="#c"/>
<use x="159.033203" xlink:href="#ac"/>
</g>
</g>
<g clip-path="url(#a)">
<defs>
<path id="ab" d="m10.984 1.5156v8.9844q3.7188-1.7656 7.5156-2.6875 3.8125-0.92188 7.4844-0.92188 9.7656 0 14.906 6.5625 5.1562 6.5625 5.8906 19.953-2.8281-4.2031-7.1875-6.4531-4.3438-2.25-9.6094-2.25-10.938 0-17.312 6.6094-6.375 6.625-6.375 18.109 0 11.219 6.6406 18 6.6406 6.7969 17.672 6.7969 12.656 0 19.312-9.7031 6.6719-9.6875 6.6719-28.141 0-17.234-8.1875-27.516-8.1719-10.281-21.984-10.281-3.7188 0-7.5312 0.73438-3.7969 0.73438-7.9062 2.2031zm19.625 30.906q6.6406 0 10.516 4.5312 3.8906 4.5469 3.8906 12.469 0 7.8594-3.8906 12.422-3.875 4.5625-10.516 4.5625t-10.516-4.5625-3.875-12.422q0-7.9219 3.875-12.469 3.875-4.5312 10.516-4.5312z"/>
</defs>
<g transform="translate(1372.1 601.5) scale(.1 -.1)">
<use xlink:href="#c"/>
<use x="63.623047" xlink:href="#e"/>
<use x="95.410156" xlink:href="#c"/>
<use x="159.033203" xlink:href="#ab"/>
</g>
</g>
<g clip-path="url(#a)">
<g transform="translate(1395.8 734.4) scale(.1 -.1)">
<use xlink:href="#c"/>
<use x="63.623047" xlink:href="#e"/>
<use x="95.410156" xlink:href="#m"/>
<use x="159.033203" xlink:href="#v"/>
</g>
</g>
<g clip-path="url(#a)">
<g transform="translate(1348.4 734.4) scale(.1 -.1)">
<use xlink:href="#c"/>
<use x="63.623047" xlink:href="#e"/>
<use x="95.410156" xlink:href="#m"/>
<use x="159.033203" xlink:href="#c"/>
</g>
</g>
<g clip-path="url(#a)">
<g transform="translate(1158.6 734.4) scale(.1 -.1)">
<use xlink:href="#c"/>
<use x="63.623047" xlink:href="#e"/>
<use x="95.410156" xlink:href="#m"/>
<use x="159.033203" xlink:href="#m"/>
</g>
</g>
<g clip-path="url(#a)">
<g transform="translate(1206 601.5) scale(.1 -.1)">
<use xlink:href="#c"/>
<use x="63.623047" xlink:href="#e"/>
<use x="95.410156" xlink:href="#m"/>
<use x="159.033203" xlink:href="#o"/>
</g>
</g>
<g clip-path="url(#a)">
<g transform="translate(1206 734.4) scale(.1 -.1)">
<use xlink:href="#c"/>
<use x="63.623047" xlink:href="#e"/>
<use x="95.410156" xlink:href="#m"/>
<use x="159.033203" xlink:href="#n"/>
</g>
</g>
<g clip-path="url(#a)">
<g transform="translate(945.09 601.5) scale(.1 -.1)">
<use xlink:href="#c"/>
<use x="63.623047" xlink:href="#e"/>
<use x="95.410156" xlink:href="#m"/>
<use x="159.033203" xlink:href="#w"/>
</g>
</g>
<g clip-path="url(#a)">
<g transform="translate(1016.3 734.4) scale(.1 -.1)">
<use xlink:href="#c"/>
<use x="63.623047" xlink:href="#e"/>
<use x="95.410156" xlink:href="#m"/>
<use x="159.033203" xlink:href="#ae"/>
</g>
</g>
<g clip-path="url(#a)">
<g transform="translate(1063.7 734.4) scale(.1 -.1)">
<use xlink:href="#c"/>
<use x="63.623047" xlink:href="#e"/>
<use x="95.410156" xlink:href="#m"/>
<use x="159.033203" xlink:href="#ad"/>
</g>
</g>
<g clip-path="url(#a)">
<g transform="translate(921.37 734.4) scale(.1 -.1)">
<use xlink:href="#c"/>
<use x="63.623047" xlink:href="#e"/>
<use x="95.410156" xlink:href="#m"/>
<use x="159.033203" xlink:href="#ac"/>
</g>
</g>
<g clip-path="url(#a)">
<g transform="translate(968.82 734.4) scale(.1 -.1)">
<use xlink:href="#c"/>
<use x="63.623047" xlink:href="#e"/>
<use x="95.410156" xlink:href="#m"/>
<use x="159.033203" xlink:href="#ab"/>
</g>
</g>
<g clip-path="url(#a)">
<g transform="translate(114.79 601.5) scale(.1 -.1)">
<use xlink:href="#c"/>
<use x="63.623047" xlink:href="#e"/>
<use x="95.410156" xlink:href="#o"/>
<use x="159.033203" xlink:href="#v"/>
</g>
</g>
<g clip-path="url(#a)">
<g transform="translate(257.13 734.4) scale(.1 -.1)">
<use xlink:href="#c"/>
<use x="63.623047" xlink:href="#e"/>
<use x="95.410156" xlink:href="#o"/>
<use x="159.033203" xlink:href="#c"/>
</g>
</g>
<g clip-path="url(#a)">
<g transform="translate(304.57 734.4) scale(.1 -.1)">
<use xlink:href="#c"/>
<use x="63.623047" xlink:href="#e"/>
<use x="95.410156" xlink:href="#o"/>
<use x="159.033203" xlink:href="#m"/>
</g>
</g>
<g clip-path="url(#a)">
<g transform="translate(425.82 466.75) scale(.1 -.1)">
<use xlink:href="#c"/>
<use x="63.623047" xlink:href="#e"/>
<use x="95.410156" xlink:href="#o"/>
<use x="159.033203" xlink:href="#o"/>
</g>
</g>
<g clip-path="url(#a)">
<g transform="translate(352.02 734.4) scale(.1 -.1)">
<use xlink:href="#c"/>
<use x="63.623047" xlink:href="#e"/>
<use x="95.410156" xlink:href="#o"/>
<use x="159.033203" xlink:href="#w"/>
</g>
</g>
<g clip-path="url(#a)">
<g transform="translate(399.46 734.4) scale(.1 -.1)">
<use xlink:href="#c"/>
<use x="63.623047" xlink:href="#e"/>
<use x="95.410156" xlink:href="#o"/>
<use x="159.033203" xlink:href="#ae"/>
</g>
</g>
<g clip-path="url(#a)">
<g transform="translate(525.99 601.5) scale(.1 -.1)">
<use xlink:href="#c"/>
<use x="63.623047" xlink:href="#e"/>
<use x="95.410156" xlink:href="#o"/>
<use x="159.033203" xlink:href="#ad"/>
</g>
</g>
<g clip-path="url(#a)">
<g transform="translate(446.91 734.4) scale(.1 -.1)">
<use xlink:href="#c"/>
<use x="63.623047" xlink:href="#e"/>
<use x="95.410156" xlink:href="#o"/>
<use x="159.033203" xlink:href="#ac"/>
</g>
</g>
<g clip-path="url(#a)">
<g transform="translate(494.36 734.4) scale(.1 -.1)">
<use xlink:href="#c"/>
<use x="63.623047" xlink:href="#e"/>
<use x="95.410156" xlink:href="#o"/>
<use x="159.033203" xlink:href="#ab"/>
</g>
</g>
<g clip-path="url(#a)">
<g transform="translate(684.14 734.4) scale(.1 -.1)">
<use xlink:href="#c"/>
<use x="63.623047" xlink:href="#e"/>
<use x="95.410156" xlink:href="#n"/>
<use x="159.033203" xlink:href="#v"/>
</g>
</g>
<g clip-path="url(#a)">
<g transform="translate(209.68 734.4) scale(.1 -.1)">
<use xlink:href="#c"/>
<use x="63.623047" xlink:href="#e"/>
<use x="95.410156" xlink:href="#n"/>
<use x="159.033203" xlink:href="#c"/>
</g>
</g>
<g clip-path="url(#a)">
<g transform="translate(541.8 734.4) scale(.1 -.1)">
<use xlink:href="#c"/>
<use x="63.623047" xlink:href="#e"/>
<use x="95.410156" xlink:href="#n"/>
<use x="159.033203" xlink:href="#m"/>
</g>
</g>
<g clip-path="url(#a)">
<g transform="translate(67.342 734.4) scale(.1 -.1)">
<use xlink:href="#c"/>
<use x="63.623047" xlink:href="#e"/>
<use x="95.410156" xlink:href="#n"/>
<use x="159.033203" xlink:href="#o"/>
</g>
</g>
<g clip-path="url(#a)">
<g transform="translate(114.79 734.4) scale(.1 -.1)">
<use xlink:href="#c"/>
<use x="63.623047" xlink:href="#e"/>
<use x="95.410156" xlink:href="#n"/>
<use x="159.033203" xlink:href="#n"/>
</g>
</g>
<g clip-path="url(#a)">
<g transform="translate(162.23 734.4) scale(.1 -.1)">
<use xlink:href="#c"/>
<use x="63.623047" xlink:href="#e"/>
<use x="95.410156" xlink:href="#n"/>
<use x="159.033203" xlink:href="#w"/>
</g>
</g>
<g clip-path="url(#a)">
<g transform="translate(589.25 734.4) scale(.1 -.1)">
<use xlink:href="#c"/>
<use x="63.623047" xlink:href="#e"/>
<use x="95.410156" xlink:href="#n"/>
<use x="159.033203" xlink:href="#ae"/>
</g>
</g>
<g clip-path="url(#a)">
<g transform="translate(779.03 734.4) scale(.1 -.1)">
<use xlink:href="#c"/>
<use x="63.623047" xlink:href="#e"/>
<use x="95.410156" xlink:href="#n"/>
<use x="159.033203" xlink:href="#ad"/>
</g>
</g>
<g clip-path="url(#a)">
<g transform="translate(826.48 734.4) scale(.1 -.1)">
<use xlink:href="#c"/>
<use x="63.623047" xlink:href="#e"/>
<use x="95.410156" xlink:href="#n"/>
<use x="159.033203" xlink:href="#ac"/>
</g>
</g>
<g clip-path="url(#a)">
<g transform="translate(1111.2 734.4) scale(.1 -.1)">
<use xlink:href="#c"/>
<use x="63.623047" xlink:href="#e"/>
<use x="95.410156" xlink:href="#n"/>
<use x="159.033203" xlink:href="#ab"/>
</g>
</g>
<g clip-path="url(#a)">
<g transform="translate(1633.1 734.4) scale(.1 -.1)">
<use xlink:href="#c"/>
<use x="63.623047" xlink:href="#e"/>
<use x="95.410156" xlink:href="#w"/>
<use x="159.033203" xlink:href="#v"/>
</g>
</g>
<defs>
<clipPath id="a">
<rect width="1722.7" height="906.67"/>
</clipPath>
</defs>
</svg>
