<?xml version="1.0" encoding="UTF-8"?>
<!DOCTYPE svg  PUBLIC '-//W3C//DTD SVG 1.1//EN'  'http://www.w3.org/Graphics/SVG/1.1/DTD/svg11.dtd'>
<svg width="1824pt" height="960pt" version="1.1" viewBox="0 0 1824 960" xmlns="http://www.w3.org/2000/svg" xmlns:xlink="http://www.w3.org/1999/xlink">
<defs>
<style type="text/css">*{stroke-linecap:butt;stroke-linejoin:round;}</style>
</defs>
<path d="m0 960h1824v-960h-1824z" fill="#fff"/>
<g fill="none" stroke="#000">
<path d="m336.72 44.55-253.65 730.16" clip-path="url(#a)"/>
<path d="m336.72 44.55-99.71 446.74" clip-path="url(#a)"/>
<path d="m336.72 44.55 322.81 152.54" clip-path="url(#a)"/>
<path d="m336.72 44.55 30.55 730.16" clip-path="url(#a)"/>
<path d="m83.071 774.71v140.74" clip-path="url(#a)"/>
<path d="m237.01 491.29-59.209 142.69" clip-path="url(#a)"/>
<path d="m237.01 491.29 59.209 142.69" clip-path="url(#a)"/>
<path d="m659.54 197.09-244.9 577.62" clip-path="url(#a)"/>
<path d="m659.54 197.09-197.53 577.62" clip-path="url(#a)"/>
<path d="m659.54 197.09-73.189 294.2" clip-path="url(#a)"/>
<path d="m659.54 197.09 515.61 148.75" clip-path="url(#a)"/>
<path d="m414.64 774.71v140.74" clip-path="url(#a)"/>
<path d="m462.01 774.71v140.74" clip-path="url(#a)"/>
<path d="m586.35 491.29-76.972 283.43" clip-path="url(#a)"/>
<path d="m586.35 491.29-29.605 283.43" clip-path="url(#a)"/>
<path d="m586.35 491.29 17.763 283.43" clip-path="url(#a)"/>
<path d="m586.35 491.29 88.814 142.69" clip-path="url(#a)"/>
<path d="m1175.2 345.85-274.99 145.44" clip-path="url(#a)"/>
<path d="m1175.2 345.85 44.736 428.87" clip-path="url(#a)"/>
<path d="m1175.2 345.85 230.26 145.44" clip-path="url(#a)"/>
<path d="m900.16 491.29-153.94 283.43" clip-path="url(#a)"/>
<path d="m900.16 491.29-106.58 283.43" clip-path="url(#a)"/>
<path d="m900.16 491.29-11.842 142.69" clip-path="url(#a)"/>
<path d="m900.16 491.29-11.842 283.43" clip-path="url(#a)"/>
<path d="m900.16 491.29 82.893 283.43" clip-path="url(#a)"/>
<path d="m900.16 491.29 201.31 142.69" clip-path="url(#a)"/>
<path d="m1219.9 774.71v140.74" clip-path="url(#a)"/>
<path d="m1405.4 491.29-138.15 283.43" clip-path="url(#a)"/>
<path d="m1405.4 491.29-90.787 283.43" clip-path="url(#a)"/>
<path d="m1405.4 491.29-43.42 283.43" clip-path="url(#a)"/>
<path d="m1405.4 491.29 3.9473 283.43" clip-path="url(#a)"/>
<path d="m1405.4 491.29 51.315 283.43" clip-path="url(#a)"/>
<path d="m1405.4 491.29 217.1 142.69" clip-path="url(#a)"/>
<path d="m1267.3 774.71v140.74" clip-path="url(#a)"/>
<path d="m1314.6 774.71v140.74" clip-path="url(#a)"/>
<path d="m1362 774.71v140.74" clip-path="url(#a)"/>
<path d="m1409.4 774.71v140.74" clip-path="url(#a)"/>
<path d="m1456.7 774.71v140.74" clip-path="url(#a)"/>
<path d="m1622.5 633.98-118.42 140.74" clip-path="url(#a)"/>
<path d="m1622.5 633.98-71.051 140.74" clip-path="url(#a)"/>
<path d="m1622.5 633.98-23.684 140.74" clip-path="url(#a)"/>
<path d="m1622.5 633.98 23.684 140.74" clip-path="url(#a)"/>
<path d="m1622.5 633.98 71.051 140.74" clip-path="url(#a)"/>
<path d="m1622.5 633.98 118.42 140.74" clip-path="url(#a)"/>
<path d="m1504.1 774.71v140.74" clip-path="url(#a)"/>
<path d="m1551.5 774.71v140.74" clip-path="url(#a)"/>
<path d="m1598.8 774.71v140.74" clip-path="url(#a)"/>
<path d="m1646.2 774.71v140.74" clip-path="url(#a)"/>
<path d="m1693.6 774.71v140.74" clip-path="url(#a)"/>
<path d="m746.21 774.71v140.74" clip-path="url(#a)"/>
<path d="m793.58 774.71v140.74" clip-path="url(#a)"/>
<path d="m888.32 633.98-47.367 140.74" clip-path="url(#a)"/>
<path d="m888.32 633.98 47.367 140.74" clip-path="url(#a)"/>
<path d="m888.32 774.71v140.74" clip-path="url(#a)"/>
<path d="m983.05 774.71v140.74" clip-path="url(#a)"/>
<path d="m1101.5 633.98-71.051 140.74" clip-path="url(#a)"/>
<path d="m1101.5 633.98-23.684 140.74" clip-path="url(#a)"/>
<path d="m1101.5 633.98 23.684 140.74" clip-path="url(#a)"/>
<path d="m1101.5 633.98 71.051 140.74" clip-path="url(#a)"/>
<path d="m1030.4 774.71v140.74" clip-path="url(#a)"/>
<path d="m1077.8 774.71v140.74" clip-path="url(#a)"/>
<path d="m1125.2 774.71v140.74" clip-path="url(#a)"/>
<path d="m1172.5 774.71v140.74" clip-path="url(#a)"/>
<path d="m840.95 774.71v140.74" clip-path="url(#a)"/>
<path d="m935.68 774.71v140.74" clip-path="url(#a)"/>
<path d="m509.38 774.71v140.74" clip-path="url(#a)"/>
<path d="m556.74 774.71v140.74" clip-path="url(#a)"/>
<path d="m604.11 774.71v140.74" clip-path="url(#a)"/>
<path d="m675.16 633.98-23.684 140.74" clip-path="url(#a)"/>
<path d="m675.16 633.98 23.684 140.74" clip-path="url(#a)"/>
<path d="m651.48 774.71v140.74" clip-path="url(#a)"/>
<path d="m698.85 774.71v140.74" clip-path="url(#a)"/>
<path d="m177.81 633.98-47.367 140.74" clip-path="url(#a)"/>
<path d="m177.81 633.98v140.74" clip-path="url(#a)"/>
<path d="m177.81 633.98 47.367 140.74" clip-path="url(#a)"/>
<path d="m296.22 633.98-23.684 140.74" clip-path="url(#a)"/>
<path d="m296.22 633.98 23.684 140.74" clip-path="url(#a)"/>
<path d="m272.54 774.71v140.74" clip-path="url(#a)"/>
<path d="m319.91 774.71v140.74" clip-path="url(#a)"/>
<path d="m130.44 774.71v140.74" clip-path="url(#a)"/>
<path d="m177.81 774.71v140.74" clip-path="url(#a)"/>
<path d="m225.17 774.71v140.74" clip-path="url(#a)"/>
<path d="m1175.2 345.85-274.99 145.44" clip-path="url(#a)"/>
<path d="m1175.2 345.85 44.736 428.87" clip-path="url(#a)"/>
<path d="m1175.2 345.85 230.26 145.44" clip-path="url(#a)"/>
<path d="m326.54 44.55-243.47 730.16" clip-path="url(#a)"/>
<path d="m326.54 44.55-89.527 446.74" clip-path="url(#a)"/>
<path d="m326.54 44.55 333 152.54" clip-path="url(#a)"/>
<path d="m367.28 774.71v140.74" clip-path="url(#a)"/>
<path d="m1740.9 774.71v140.74" clip-path="url(#a)"/>
</g>
<path d="m215.09 413.8 1.4628-4.2107q0.78757-2.2671-1.4795-3.0547l-7.3137-2.5407q-2.2671-0.78757-3.0547 1.4795l-1.4628 4.2107q-0.78757 2.2671 1.4795 3.0547l7.3137 2.5407q2.2671 0.78757 3.0547-1.4795z" clip-path="url(#a)" fill="#fff" stroke="#fff"/>
<g clip-path="url(#a)">
<defs>
<path id="w" d="m9.8125 72.906h9.8594v-64.609h35.5v-8.2969h-45.359z"/>
</defs>
<g transform="translate(211.25 412.46) rotate(-70.843) scale(.08 -.08)">
<use xlink:href="#w"/>
</g>
</g>
<path d="m292.34 272.22 1.3106-5.8718q0.52281-2.3424-1.8196-2.8652l-7.5566-1.6866q-2.3424-0.52281-2.8652 1.8196l-1.3106 5.8718q-0.52281 2.3424 1.8196 2.8652l7.5566 1.6866q2.3424 0.52281 2.8652-1.8196z" clip-path="url(#a)" fill="#fff" stroke="#fff"/>
<g clip-path="url(#a)">
<defs>
<path id="ah" d="m9.8125 72.906h9.8594v-29.891h35.844v29.891h9.8594v-72.906h-9.8594v34.719h-35.844v-34.719h-9.8594z"/>
</defs>
<g transform="translate(288.37 271.34) rotate(-77.418) scale(.08 -.08)">
<use xlink:href="#ah"/>
</g>
</g>
<path d="m492.73 125.21 5.4395 2.5704q2.1699 1.0254 3.1953-1.1446l3.3079-7.0003q1.0254-2.1699-1.1446-3.1953l-5.4395-2.5704q-2.1699-1.0254-3.1953 1.1446l-3.3079 7.0003q-1.0254 2.1699 1.1446 3.1953z" clip-path="url(#a)" fill="#fff" stroke="#fff"/>
<g clip-path="url(#a)">
<g transform="translate(494.47 121.53) rotate(25.292) scale(.08 -.08)">
<use xlink:href="#ah"/>
</g>
</g>
<path d="m345.61 406.97 0.24476 5.8499q0.10033 2.3979 2.4982 2.2976l7.7357-0.32366q2.3979-0.10033 2.2976-2.4982l-0.24476-5.8499q-0.10033-2.3979-2.4982-2.2976l-7.7357 0.32366q-2.3979 0.10033-2.2976 2.4982z" clip-path="url(#a)" fill="#fff" stroke="#fff"/>
<g clip-path="url(#a)">
<defs>
<path id="ao" d="m8.6875 72.906h9.9219v-44.297q0-11.719 4.2344-16.875 4.25-5.1406 13.781-5.1406 9.4688 0 13.719 5.1406 4.25 5.1562 4.25 16.875v44.297h9.9062v-45.516q0-14.25-7.0625-21.531-7.0469-7.2812-20.812-7.2812-13.828 0-20.891 7.2812-7.0469 7.2812-7.0469 21.531z"/>
</defs>
<g transform="translate(349.67 406.8) rotate(87.604) scale(.08 -.08)">
<use xlink:href="#ao"/>
</g>
</g>
<path d="m76.8 827.44v35.285q0 2.4 2.4 2.4h7.7425q2.4 0 2.4-2.4v-35.285q0-2.4-2.4-2.4h-7.7425q-2.4 0-2.4 2.4z" clip-path="url(#a)" fill="#fff" stroke="#fff"/>
<g clip-path="url(#a)">
<defs>
<path id="l" d="m-0.29688 72.906h61.672v-8.3125h-25.875v-64.594h-9.9062v64.594h-25.891z"/>
<path id="d" d="m56.203 29.594v-4.3906h-41.312q0.59375-9.2812 5.5938-14.141t13.938-4.8594q5.1719 0 10.031 1.2656t9.6562 3.8125v-8.5q-4.8438-2.0469-9.9219-3.125t-10.297-1.0781q-13.094 0-20.734 7.6094-7.6406 7.625-7.6406 20.625 0 13.422 7.25 21.297 7.25 7.8906 19.562 7.8906 11.031 0 17.453-7.1094 6.4219-7.0938 6.4219-19.297zm-8.9844 2.6406q-0.09375 7.3594-4.125 11.75-4.0312 4.4062-10.672 4.4062-7.5156 0-12.031-4.25t-5.2031-11.969z"/>
<path id="f" d="m41.109 46.297q-1.5156 0.875-3.2969 1.2812-1.7812 0.42188-3.9219 0.42188-7.625 0-11.703-4.9531t-4.0781-14.234v-28.812h-9.0312v54.688h9.0312v-8.5q2.8438 4.9844 7.375 7.3906 4.5469 2.4219 11.047 2.4219 0.92188 0 2.0469-0.125 1.125-0.10938 2.4844-0.35938z"/>
<path id="k" d="m52 44.188q3.375 6.0625 8.0625 8.9375t11.031 2.875q8.5469 0 13.188-5.9844 4.6406-5.9688 4.6406-17v-33.016h-9.0312v32.719q0 7.8594-2.7969 11.656-2.7812 3.8125-8.4844 3.8125-6.9844 0-11.047-4.6406-4.0469-4.625-4.0469-12.641v-30.906h-9.0312v32.719q0 7.9062-2.7812 11.688t-8.5938 3.7812q-6.8906 0-10.953-4.6562-4.0469-4.6562-4.0469-12.625v-30.906h-9.0312v54.688h9.0312v-8.5q3.0781 5.0312 7.375 7.4219t10.203 2.3906q5.9688 0 10.141-3.0312 4.1719-3.0156 6.1719-8.7812z"/>
<path id="i" d="m9.4219 54.688h8.9844v-54.688h-8.9844zm0 21.297h8.9844v-11.391h-8.9844z"/>
<path id="g" d="m54.891 33.016v-33.016h-8.9844v32.719q0 7.7656-3.0312 11.609-3.0312 3.8594-9.0781 3.8594-7.2812 0-11.484-4.6406-4.2031-4.625-4.2031-12.641v-30.906h-9.0312v54.688h9.0312v-8.5q3.2344 4.9375 7.5938 7.375 4.375 2.4375 10.094 2.4375 9.4219 0 14.25-5.8281 4.8438-5.8281 4.8438-17.156z"/>
<path id="h" d="m34.281 27.484q-10.891 0-15.094-2.4844t-4.2031-8.5q0-4.7812 3.1562-7.5938 3.1562-2.7969 8.5625-2.7969 7.4844 0 12 5.2969t4.5156 14.078v2zm17.922 3.7188v-31.203h-8.9844v8.2969q-3.0781-4.9688-7.6719-7.3438t-11.234-2.375q-8.3906 0-13.359 4.7188-4.9531 4.7188-4.9531 12.625 0 9.2188 6.1719 13.906 6.1875 4.6875 18.438 4.6875h12.609v0.89062q0 6.2031-4.0781 9.5938t-11.453 3.3906q-4.6875 0-9.1406-1.125-4.4375-1.125-8.5312-3.375v8.3125q4.9219 1.9062 9.5625 2.8438 4.6406 0.95312 9.0312 0.95312 11.875 0 17.734-6.1562 5.8594-6.1406 5.8594-18.641z"/>
<path id="j" d="m9.4219 75.984h8.9844v-75.984h-8.9844z"/>
</defs>
<g transform="translate(80.864 827.44) rotate(90) scale(.08 -.08)">
<use xlink:href="#l"/>
<use x="60.818359" xlink:href="#d"/>
<use x="122.341797" xlink:href="#f"/>
<use x="163.439453" xlink:href="#k"/>
<use x="260.851562" xlink:href="#i"/>
<use x="288.634766" xlink:href="#g"/>
<use x="352.013672" xlink:href="#h"/>
<use x="413.292969" xlink:href="#j"/>
</g>
</g>
<path d="m212.28 567.26 1.8487-4.4554q0.91982-2.2167-1.2969-3.1366l-7.1513-2.9674q-2.2167-0.91982-3.1366 1.2969l-1.8487 4.4554q-0.91982 2.2167 1.2969 3.1366l7.1513 2.9674q2.2167 0.91982 3.1366-1.2969z" clip-path="url(#a)" fill="#fff" stroke="#fff"/>
<g clip-path="url(#a)">
<defs>
<path id="ak" d="m19.672 64.797v-27.391h12.406q6.8906 0 10.641 3.5625 3.7656 3.5625 3.7656 10.156 0 6.5469-3.7656 10.109-3.75 3.5625-10.641 3.5625zm-9.8594 8.1094h22.266q12.266 0 18.531-5.5469 6.2812-5.5469 6.2812-16.234 0-10.797-6.2812-16.312-6.2656-5.5156-18.531-5.5156h-12.406v-29.297h-9.8594z"/>
</defs>
<g transform="translate(208.52 565.71) rotate(-67.464) scale(.08 -.08)">
<use xlink:href="#ak"/>
</g>
</g>
<path d="m259.78 562.51 2.0974 5.0546q0.91982 2.2167 3.1366 1.2969l7.1513-2.9674q2.2167-0.91982 1.2969-3.1366l-2.0974-5.0546q-0.91982-2.2167-3.1366-1.2969l-7.1513 2.9674q-2.2167 0.91982-1.2969 3.1366z" clip-path="url(#a)" fill="#fff" stroke="#fff"/>
<g clip-path="url(#a)">
<defs>
<path id="p" d="m34.188 63.188-13.391-36.281h26.812zm-5.5781 9.7188h11.188l27.781-72.906h-10.25l-6.6406 18.703h-32.859l-6.6406-18.703h-10.406z"/>
</defs>
<g transform="translate(263.53 560.95) rotate(67.464) scale(.08 -.08)">
<use xlink:href="#p"/>
</g>
</g>
<path d="m541.8 490.87 2.1361-5.0384q0.93681-2.2096-1.2728-3.1464l-7.1283-3.0222q-2.2096-0.93681-3.1464 1.2728l-2.1361 5.0384q-0.93681 2.2096 1.2728 3.1464l7.1283 3.0222q2.2096 0.93681 3.1464-1.2728z" clip-path="url(#a)" fill="#fff" stroke="#fff"/>
<g clip-path="url(#a)">
<g transform="translate(538.05 489.28) rotate(-67.024) scale(.08 -.08)">
<use xlink:href="#p"/>
</g>
</g>
<path d="m565.93 490.21 1.5608-4.5643q0.77657-2.2709-1.4943-3.0475l-7.326-2.5053q-2.2709-0.77657-3.0475 1.4943l-1.5608 4.5643q-0.77657 2.2709 1.4943 3.0475l7.326 2.5053q2.2709 0.77657 3.0475-1.4943z" clip-path="url(#a)" fill="#fff" stroke="#fff"/>
<g clip-path="url(#a)">
<g transform="translate(562.08 488.9) rotate(-71.121) scale(.08 -.08)">
<use xlink:href="#ak"/>
</g>
</g>
<path d="m628.37 348.36 1.3212-5.3106q0.57941-2.329-1.7496-2.9084l-7.5135-1.8692q-2.329-0.57941-2.9084 1.7496l-1.3212 5.3106q-0.57941 2.329 1.7496 2.9084l7.5135 1.8692q2.329 0.57941 2.9084-1.7496z" clip-path="url(#a)" fill="#fff" stroke="#fff"/>
<g clip-path="url(#a)">
<g transform="translate(624.43 347.38) rotate(-76.03) scale(.08 -.08)">
<use xlink:href="#p"/>
</g>
</g>
<path d="m912.98 276.74 5.2581 1.5169q2.306 0.66527 2.9712-1.6407l2.1462-7.4391q0.66527-2.306-1.6407-2.9712l-5.2581-1.5169q-2.306-0.66527-2.9712 1.6407l-2.1462 7.4391q-0.66527 2.306 1.6407 2.9712z" clip-path="url(#a)" fill="#fff" stroke="#fff"/>
<g clip-path="url(#a)">
<g transform="translate(914.1 272.83) rotate(16.093) scale(.08 -.08)">
<use xlink:href="#p"/>
</g>
</g>
<path d="m408.37 827.44v35.285q0 2.4 2.4 2.4h7.7425q2.4 0 2.4-2.4v-35.285q0-2.4-2.4-2.4h-7.7425q-2.4 0-2.4 2.4z" clip-path="url(#a)" fill="#fff" stroke="#fff"/>
<g clip-path="url(#a)">
<g transform="translate(412.44 827.44) rotate(90) scale(.08 -.08)">
<use xlink:href="#l"/>
<use x="60.818359" xlink:href="#d"/>
<use x="122.341797" xlink:href="#f"/>
<use x="163.439453" xlink:href="#k"/>
<use x="260.851562" xlink:href="#i"/>
<use x="288.634766" xlink:href="#g"/>
<use x="352.013672" xlink:href="#h"/>
<use x="413.292969" xlink:href="#j"/>
</g>
</g>
<path d="m455.74 827.44v35.285q0 2.4 2.4 2.4h7.7425q2.4 0 2.4-2.4v-35.285q0-2.4-2.4-2.4h-7.7425q-2.4 0-2.4 2.4z" clip-path="url(#a)" fill="#fff" stroke="#fff"/>
<g clip-path="url(#a)">
<g transform="translate(459.8 827.44) rotate(90) scale(.08 -.08)">
<use xlink:href="#l"/>
<use x="60.818359" xlink:href="#d"/>
<use x="122.341797" xlink:href="#f"/>
<use x="163.439453" xlink:href="#k"/>
<use x="260.851562" xlink:href="#i"/>
<use x="288.634766" xlink:href="#g"/>
<use x="352.013672" xlink:href="#h"/>
<use x="413.292969" xlink:href="#j"/>
</g>
</g>
<path d="m553.19 637.33 1.4568-5.3644q0.629-2.3161-1.6871-2.9451l-7.4719-2.0292q-2.3161-0.629-2.9451 1.6871l-1.4568 5.3644q-0.629 2.3161 1.6871 2.9451l7.4719 2.0292q2.3161 0.629 2.9451-1.6871z" clip-path="url(#a)" fill="#fff" stroke="#fff"/>
<g clip-path="url(#a)">
<defs>
<path id="y" d="m44.391 34.188q3.1719-1.0781 6.1719-4.5938t6.0312-9.6719l10.016-19.922h-10.609l-9.3125 18.703q-3.625 7.3281-7.0156 9.7188t-9.25 2.3906h-10.75v-30.812h-9.8594v72.906h22.266q12.5 0 18.656-5.2344 6.1562-5.2188 6.1562-15.766 0-6.8906-3.2031-11.438-3.2031-4.5312-9.2969-6.2812zm-24.719 30.609v-25.875h12.406q7.125 0 10.766 3.2969t3.6406 9.6875-3.6406 9.6406-10.766 3.25z"/>
</defs>
<g transform="translate(549.27 636.26) rotate(-74.806) scale(.08 -.08)">
<use xlink:href="#y"/>
</g>
</g>
<path d="m577.52 636.17 0.52515-5.0276q0.24933-2.387-2.1377-2.6363l-7.7006-0.80434q-2.387-0.24933-2.6363 2.1377l-0.52515 5.0276q-0.24933 2.387 2.1377 2.6363l7.7006 0.80434q2.387 0.24933 2.6363-2.1377z" clip-path="url(#a)" fill="#fff" stroke="#fff"/>
<g clip-path="url(#a)">
<defs>
<path id="r" d="m9.8125 72.906h46.094v-8.3125h-36.234v-21.578h34.719v-8.2969h-34.719v-26.422h37.109v-8.2969h-46.969z"/>
</defs>
<g transform="translate(573.48 635.74) rotate(-84.037) scale(.08 -.08)">
<use xlink:href="#r"/>
</g>
</g>
<path d="m588.8 630.61 0.34941 5.5753q0.15012 2.3953 2.5454 2.2452l7.7273-0.48428q2.3953-0.15012 2.2452-2.5454l-0.34941-5.5753q-0.15012-2.3953-2.5454-2.2452l-7.7273 0.48428q-2.3953 0.15012-2.2452 2.5454z" clip-path="url(#a)" fill="#fff" stroke="#fff"/>
<g clip-path="url(#a)">
<defs>
<path id="t" d="m64.406 67.281v-10.391q-4.9844 4.6406-10.625 6.9219-5.6406 2.2969-11.984 2.2969-12.5 0-19.141-7.6406t-6.6406-22.094q0-14.406 6.6406-22.047t19.141-7.6406q6.3438 0 11.984 2.2969t10.625 6.9375v-10.312q-5.1719-3.5156-10.969-5.2812-5.7812-1.75-12.219-1.75-16.562 0-26.094 10.125-9.5156 10.141-9.5156 27.672 0 17.578 9.5156 27.703 9.5312 10.141 26.094 10.141 6.5312 0 12.312-1.7344 5.7969-1.7344 10.875-5.2031z"/>
</defs>
<g transform="translate(592.85 630.35) rotate(86.414) scale(.08 -.08)">
<use xlink:href="#t"/>
</g>
</g>
<path d="m624.1 563.8 2.6712 4.2916q1.2682 2.0376 3.3058 0.76936l6.5733-4.0913q2.0376-1.2682 0.76936-3.3058l-2.6712-4.2916q-1.2682-2.0376-3.3058-0.76936l-6.5733 4.0913q-2.0376 1.2682-0.76936 3.3058z" clip-path="url(#a)" fill="#fff" stroke="#fff"/>
<g clip-path="url(#a)">
<g transform="translate(627.55 561.65) rotate(58.101) scale(.08 -.08)">
<use xlink:href="#r"/>
</g>
</g>
<path d="m1037.9 425.52 5.3182-2.8127q2.1216-1.1221 0.99949-3.2436l-3.6198-6.8442q-1.1221-2.1216-3.2436-0.99949l-5.3182 2.8127q-2.1216 1.1221-0.99949 3.2436l3.6198 6.8442q1.1221 2.1216 3.2436 0.99949z" clip-path="url(#a)" fill="#fff" stroke="#fff"/>
<g clip-path="url(#a)">
<g transform="translate(1036 421.92) rotate(-27.874) scale(.08 -.08)">
<use xlink:href="#ah"/>
</g>
</g>
<path d="m1191.1 558.71 0.46246 4.4334q0.249 2.387 2.636 2.1381l7.7007-0.80327q2.387-0.249 2.1381-2.636l-0.46246-4.4334q-0.249-2.387-2.636-2.1381l-7.7007 0.80327q-2.387 0.249-2.1381 2.636z" clip-path="url(#a)" fill="#fff" stroke="#fff"/>
<g clip-path="url(#a)">
<g transform="translate(1195.1 558.29) rotate(84.045) scale(.08 -.08)">
<use xlink:href="#w"/>
</g>
</g>
<path d="m1284.4 422.26 5.0865 3.2129q2.0291 1.2817 3.3108-0.74744l4.1347-6.546q1.2817-2.0291-0.74744-3.3108l-5.0865-3.2129q-2.0291-1.2817-3.3108 0.74744l-4.1347 6.546q-1.2817 2.0291 0.74744 3.3108z" clip-path="url(#a)" fill="#fff" stroke="#fff"/>
<g clip-path="url(#a)">
<g transform="translate(1286.6 418.83) rotate(32.278) scale(.08 -.08)">
<use xlink:href="#ah"/>
</g>
</g>
<path d="m827.6 638.02 2.1961-4.0433q1.1455-2.109-0.96349-3.2545l-6.8037-3.6954q-2.109-1.1455-3.2545 0.96349l-2.1961 4.0433q-1.1455 2.109 0.96349 3.2545l6.8037 3.6954q2.109 1.1455 3.2545-0.96349z" clip-path="url(#a)" fill="#fff" stroke="#fff"/>
<g clip-path="url(#a)">
<defs>
<path id="ab" d="m9.8125 72.906h41.891v-8.3125h-32.031v-21.484h28.906v-8.2969h-28.906v-34.812h-9.8594z"/>
</defs>
<g transform="translate(824.03 636.08) rotate(-61.491) scale(.08 -.08)">
<use xlink:href="#ab"/>
</g>
</g>
<path d="m851.78 637.77 1.9261-5.1223q0.84472-2.2464-1.4017-3.0911l-7.2471-2.7251q-2.2464-0.84472-3.0911 1.4017l-1.9261 5.1223q-0.84472 2.2464 1.4017 3.0912l7.2471 2.7251q2.2464 0.84472 3.0911-1.4017z" clip-path="url(#a)" fill="#fff" stroke="#fff"/>
<g clip-path="url(#a)">
<g transform="translate(847.97 636.34) rotate(-69.392) scale(.08 -.08)">
<use xlink:href="#p"/>
</g>
</g>
<path d="m900.23 566.22 0.50946-6.1389q0.19849-2.3918-2.1933-2.5903l-7.716-0.64034q-2.3918-0.19849-2.5903 2.1933l-0.50946 6.1389q-0.19849 2.3918 2.1933 2.5903l7.716 0.64034q2.3918 0.19849 2.5903-2.1933z" clip-path="url(#a)" fill="#fff" stroke="#fff"/>
<g clip-path="url(#a)">
<defs>
<path id="ap" d="m19.672 64.797v-56.688h11.922q15.094 0 22.094 6.8281 7 6.8438 7 21.594 0 14.641-7 21.453t-22.094 6.8125zm-9.8594 8.1094h20.266q21.188 0 31.094-8.8125 9.9219-8.8125 9.9219-27.562 0-18.859-9.9688-27.703-9.9531-8.8281-31.047-8.8281h-20.266z"/>
</defs>
<g transform="translate(896.18 565.88) rotate(-85.256) scale(.08 -.08)">
<use xlink:href="#ap"/>
</g>
</g>
<path d="m900.37 636.34 0.25714-6.1546q0.10019-2.3979-2.2977-2.4981l-7.7358-0.3232q-2.3979-0.10019-2.4981 2.2977l-0.25714 6.1546q-0.10019 2.3979 2.2977 2.4981l7.7358 0.32321q2.3979 0.10019 2.4981-2.2977z" clip-path="url(#a)" fill="#fff" stroke="#fff"/>
<g clip-path="url(#a)">
<g transform="translate(896.31 636.17) rotate(-87.608) scale(.08 -.08)">
<use xlink:href="#ap"/>
</g>
</g>
<path d="m934.91 632.45 1.3541 4.6298q0.6737 2.3035 2.9772 1.6298l7.4312-2.1734q2.3035-0.6737 1.6298-2.9772l-1.3541-4.6298q-0.6737-2.3035-2.9772-1.6298l-7.4312 2.1734q-2.3035 0.6737-1.6298 2.9772z" clip-path="url(#a)" fill="#fff" stroke="#fff"/>
<g clip-path="url(#a)">
<g transform="translate(938.81 631.31) rotate(73.698) scale(.08 -.08)">
<use xlink:href="#ak"/>
</g>
</g>
<path d="m994.95 566.17 4.4647 3.1646q1.958 1.3879 3.3459-0.57014l4.4773-6.3166q1.3879-1.958-0.57014-3.3459l-4.4647-3.1646q-1.958-1.3879-3.3459 0.57014l-4.4773 6.3166q-1.3879 1.958 0.57014 3.3459z" clip-path="url(#a)" fill="#fff" stroke="#fff"/>
<g clip-path="url(#a)">
<g transform="translate(997.3 562.85) rotate(35.33) scale(.08 -.08)">
<use xlink:href="#p"/>
</g>
</g>
<path d="m1213.6 827.44v35.285q0 2.4 2.4 2.4h7.7425q2.4 0 2.4-2.4v-35.285q0-2.4-2.4-2.4h-7.7425q-2.4 0-2.4 2.4z" clip-path="url(#a)" fill="#fff" stroke="#fff"/>
<g clip-path="url(#a)">
<g transform="translate(1217.7 827.44) rotate(90) scale(.08 -.08)">
<use xlink:href="#l"/>
<use x="60.818359" xlink:href="#d"/>
<use x="122.341797" xlink:href="#f"/>
<use x="163.439453" xlink:href="#k"/>
<use x="260.851562" xlink:href="#i"/>
<use x="288.634766" xlink:href="#g"/>
<use x="352.013672" xlink:href="#h"/>
<use x="413.292969" xlink:href="#j"/>
</g>
</g>
<path d="m1341 637.82 2.0161-4.136q1.0516-2.1574-1.1058-3.2089l-6.9597-3.3925q-2.1574-1.0516-3.2089 1.1058l-2.0161 4.136q-1.0516 2.1574 1.1058 3.2089l6.9597 3.3925q2.1574 1.0516 3.2089-1.1058z" clip-path="url(#a)" fill="#fff" stroke="#fff"/>
<g clip-path="url(#a)">
<g transform="translate(1337.3 636.04) rotate(-64.013) scale(.08 -.08)">
<use xlink:href="#ab"/>
</g>
</g>
<path d="m1365.2 637.52 1.6694-5.2117q0.73212-2.2856-1.5535-3.0177l-7.3735-2.3619q-2.2856-0.73212-3.0177 1.5535l-1.6694 5.2117q-0.73212 2.2856 1.5535 3.0177l7.3735 2.3619q2.2856 0.73212 3.0177-1.5535z" clip-path="url(#a)" fill="#fff" stroke="#fff"/>
<g clip-path="url(#a)">
<g transform="translate(1361.3 636.28) rotate(-72.239) scale(.08 -.08)">
<use xlink:href="#p"/>
</g>
</g>
<path d="m1389.6 636.22 0.69676-4.5482q0.36343-2.3723-2.0089-2.7358l-7.6532-1.1724q-2.3723-0.36343-2.7358 2.0089l-0.69676 4.5482q-0.36343 2.3723 2.0089 2.7358l7.6532 1.1724q2.3723 0.36343 2.7358-2.0089z" clip-path="url(#a)" fill="#fff" stroke="#fff"/>
<g clip-path="url(#a)">
<g transform="translate(1385.5 635.61) rotate(-81.29) scale(.08 -.08)">
<use xlink:href="#ab"/>
</g>
</g>
<path d="m1401.1 630.79 0.064075 4.6008q0.033421 2.3998 2.4332 2.3663l7.7418-0.10782q2.3998-0.033422 2.3663-2.4332l-0.064075-4.6008q-0.033422-2.3998-2.4332-2.3663l-7.7417 0.10782q-2.3998 0.033421-2.3663 2.4332z" clip-path="url(#a)" fill="#fff" stroke="#fff"/>
<g clip-path="url(#a)">
<g transform="translate(1405.1 630.73) rotate(89.202) scale(.08 -.08)">
<use xlink:href="#ab"/>
</g>
</g>
<path d="m1424.4 631.62 0.9048 4.9975q0.42757 2.3616 2.7892 1.934l7.6186-1.3794q2.3616-0.42757 1.934-2.7892l-0.9048-4.9975q-0.42757-2.3616-2.7892-1.934l-7.6186 1.3794q-2.3616 0.42757-1.934 2.7892z" clip-path="url(#a)" fill="#fff" stroke="#fff"/>
<g clip-path="url(#a)">
<defs>
<path id="as" d="m53.516 70.516v-9.625q-5.6094 2.6875-10.594 4-4.9844 1.3281-9.625 1.3281-8.0469 0-12.422-3.125t-4.375-8.8906q0-4.8438 2.9062-7.3125 2.9062-2.4531 11.016-3.9688l5.9531-1.2188q11.031-2.1094 16.281-7.4062t5.25-14.172q0-10.609-7.1094-16.078-7.0938-5.4688-20.812-5.4688-5.1719 0-11.016 1.1719-5.8281 1.1719-12.078 3.4688v10.156q6-3.3594 11.766-5.0781 5.7656-1.7031 11.328-1.7031 8.4375 0 13.031 3.3125 4.5938 3.3281 4.5938 9.4844 0 5.3594-3.2969 8.3906t-10.812 4.5469l-6.0156 1.1719q-11.031 2.1875-15.969 6.875-4.9219 4.6875-4.9219 13.047 0 9.6719 6.8125 15.234t18.766 5.5625q5.1406 0 10.453-0.9375 5.3281-0.92188 10.891-2.7656z"/>
</defs>
<g transform="translate(1428.4 630.89) rotate(79.738) scale(.08 -.08)">
<use xlink:href="#as"/>
</g>
</g>
<path d="m1508.2 566.37 4.5731 3.0058q2.0056 1.3182 3.3238-0.68738l4.2526-6.4701q1.3182-2.0056-0.68738-3.3238l-4.5731-3.0058q-2.0056-1.3182-3.3238 0.68738l-4.2526 6.4701q-1.3182 2.0056 0.68738 3.3238z" clip-path="url(#a)" fill="#fff" stroke="#fff"/>
<g clip-path="url(#a)">
<g transform="translate(1510.5 562.97) rotate(33.316) scale(.08 -.08)">
<use xlink:href="#p"/>
</g>
</g>
<path d="m1261 827.44v35.285q0 2.4 2.4 2.4h7.7425q2.4 0 2.4-2.4v-35.285q0-2.4-2.4-2.4h-7.7425q-2.4 0-2.4 2.4z" clip-path="url(#a)" fill="#fff" stroke="#fff"/>
<g clip-path="url(#a)">
<g transform="translate(1265 827.44) rotate(90) scale(.08 -.08)">
<use xlink:href="#l"/>
<use x="60.818359" xlink:href="#d"/>
<use x="122.341797" xlink:href="#f"/>
<use x="163.439453" xlink:href="#k"/>
<use x="260.851562" xlink:href="#i"/>
<use x="288.634766" xlink:href="#g"/>
<use x="352.013672" xlink:href="#h"/>
<use x="413.292969" xlink:href="#j"/>
</g>
</g>
<path d="m1308.4 827.44v35.285q0 2.4 2.4 2.4h7.7425q2.4 0 2.4-2.4v-35.285q0-2.4-2.4-2.4h-7.7425q-2.4 0-2.4 2.4z" clip-path="url(#a)" fill="#fff" stroke="#fff"/>
<g clip-path="url(#a)">
<g transform="translate(1312.4 827.44) rotate(90) scale(.08 -.08)">
<use xlink:href="#l"/>
<use x="60.818359" xlink:href="#d"/>
<use x="122.341797" xlink:href="#f"/>
<use x="163.439453" xlink:href="#k"/>
<use x="260.851562" xlink:href="#i"/>
<use x="288.634766" xlink:href="#g"/>
<use x="352.013672" xlink:href="#h"/>
<use x="413.292969" xlink:href="#j"/>
</g>
</g>
<path d="m1355.7 827.44v35.285q0 2.4 2.4 2.4h7.7425q2.4 0 2.4-2.4v-35.285q0-2.4-2.4-2.4h-7.7425q-2.4 0-2.4 2.4z" clip-path="url(#a)" fill="#fff" stroke="#fff"/>
<g clip-path="url(#a)">
<g transform="translate(1359.8 827.44) rotate(90) scale(.08 -.08)">
<use xlink:href="#l"/>
<use x="60.818359" xlink:href="#d"/>
<use x="122.341797" xlink:href="#f"/>
<use x="163.439453" xlink:href="#k"/>
<use x="260.851562" xlink:href="#i"/>
<use x="288.634766" xlink:href="#g"/>
<use x="352.013672" xlink:href="#h"/>
<use x="413.292969" xlink:href="#j"/>
</g>
</g>
<path d="m1403.1 827.44v35.285q0 2.4 2.4 2.4h7.7425q2.4 0 2.4-2.4v-35.285q0-2.4-2.4-2.4h-7.7425q-2.4 0-2.4 2.4z" clip-path="url(#a)" fill="#fff" stroke="#fff"/>
<g clip-path="url(#a)">
<g transform="translate(1407.1 827.44) rotate(90) scale(.08 -.08)">
<use xlink:href="#l"/>
<use x="60.818359" xlink:href="#d"/>
<use x="122.341797" xlink:href="#f"/>
<use x="163.439453" xlink:href="#k"/>
<use x="260.851562" xlink:href="#i"/>
<use x="288.634766" xlink:href="#g"/>
<use x="352.013672" xlink:href="#h"/>
<use x="413.292969" xlink:href="#j"/>
</g>
</g>
<path d="m1450.5 827.44v35.285q0 2.4 2.4 2.4h7.7425q2.4 0 2.4-2.4v-35.285q0-2.4-2.4-2.4h-7.7425q-2.4 0-2.4 2.4z" clip-path="url(#a)" fill="#fff" stroke="#fff"/>
<g clip-path="url(#a)">
<g transform="translate(1454.5 827.44) rotate(90) scale(.08 -.08)">
<use xlink:href="#l"/>
<use x="60.818359" xlink:href="#d"/>
<use x="122.341797" xlink:href="#f"/>
<use x="163.439453" xlink:href="#k"/>
<use x="260.851562" xlink:href="#i"/>
<use x="288.634766" xlink:href="#g"/>
<use x="352.013672" xlink:href="#h"/>
<use x="413.292969" xlink:href="#j"/>
</g>
</g>
<path d="m1566.3 710.51 3.5789-4.2534q1.5452-1.8364-0.2912-3.3816l-5.9243-4.9849q-1.8364-1.5452-3.3816 0.2912l-3.5789 4.2534q-1.5452 1.8364 0.2912 3.3816l5.9243 4.9849q1.8364 1.5452 3.3816-0.2912z" clip-path="url(#a)" fill="#fff" stroke="#fff"/>
<g clip-path="url(#a)">
<g transform="translate(1563.2 707.89) rotate(-49.922) scale(.08 -.08)">
<use xlink:href="#y"/>
</g>
</g>
<path d="m1591.4 709.43 2.2782-4.5125q1.0816-2.1424-1.0608-3.2241l-6.9116-3.4894q-2.1424-1.0816-3.2241 1.0608l-2.2782 4.5125q-1.0816 2.1424 1.0608 3.2241l6.9116 3.4894q2.1424 1.0816 3.2241-1.0608z" clip-path="url(#a)" fill="#fff" stroke="#fff"/>
<g clip-path="url(#a)">
<g transform="translate(1587.8 707.6) rotate(-63.213) scale(.08 -.08)">
<use xlink:href="#r"/>
</g>
</g>
<path d="m1616.4 707.88 0.83889-4.9849q0.39828-2.3667-1.9684-2.765l-7.6351-1.2849q-2.3667-0.39828-2.765 1.9684l-0.83889 4.9849q-0.39828 2.3667 1.9684 2.765l7.6351 1.2849q2.3667 0.39828 2.765-1.9684z" clip-path="url(#a)" fill="#fff" stroke="#fff"/>
<g clip-path="url(#a)">
<g transform="translate(1612.4 707.21) rotate(-80.447) scale(.08 -.08)">
<use xlink:href="#r"/>
</g>
</g>
<path d="m1627.7 702.9 0.83889 4.9849q0.39828 2.3667 2.765 1.9684l7.6351-1.2849q2.3667-0.39828 1.9684-2.765l-0.83889-4.9849q-0.39828-2.3667-2.765-1.9684l-7.6351 1.2849q-2.3667 0.39828-1.9684 2.765z" clip-path="url(#a)" fill="#fff" stroke="#fff"/>
<g clip-path="url(#a)">
<g transform="translate(1631.8 702.22) rotate(80.447) scale(.08 -.08)">
<use xlink:href="#r"/>
</g>
</g>
<path d="m1651.2 704.68 2.5176 4.9868q1.0816 2.1424 3.2241 1.0608l6.9116-3.4894q2.1424-1.0816 1.0608-3.2241l-2.5176-4.9868q-1.0816-2.1424-3.2241-1.0608l-6.9116 3.4894q-2.1424 1.0816-1.0608 3.2241z" clip-path="url(#a)" fill="#fff" stroke="#fff"/>
<g clip-path="url(#a)">
<g transform="translate(1654.8 702.85) rotate(63.213) scale(.08 -.08)">
<use xlink:href="#t"/>
</g>
</g>
<path d="m1675 706.14 3.7696 4.48q1.5452 1.8364 3.3816 0.2912l5.9243-4.9849q1.8364-1.5452 0.2912-3.3816l-3.7696-4.48q-1.5452-1.8364-3.3816-0.2912l-5.9243 4.9849q-1.8364 1.5452-0.2912 3.3816z" clip-path="url(#a)" fill="#fff" stroke="#fff"/>
<g clip-path="url(#a)">
<g transform="translate(1678.1 703.53) rotate(49.922) scale(.08 -.08)">
<use xlink:href="#ao"/>
</g>
</g>
<path d="m1497.8 827.44v35.285q0 2.4 2.4 2.4h7.7425q2.4 0 2.4-2.4v-35.285q0-2.4-2.4-2.4h-7.7425q-2.4 0-2.4 2.4z" clip-path="url(#a)" fill="#fff" stroke="#fff"/>
<g clip-path="url(#a)">
<g transform="translate(1501.9 827.44) rotate(90) scale(.08 -.08)">
<use xlink:href="#l"/>
<use x="60.818359" xlink:href="#d"/>
<use x="122.341797" xlink:href="#f"/>
<use x="163.439453" xlink:href="#k"/>
<use x="260.851562" xlink:href="#i"/>
<use x="288.634766" xlink:href="#g"/>
<use x="352.013672" xlink:href="#h"/>
<use x="413.292969" xlink:href="#j"/>
</g>
</g>
<path d="m1545.2 827.44v35.285q0 2.4 2.4 2.4h7.7425q2.4 0 2.4-2.4v-35.285q0-2.4-2.4-2.4h-7.7425q-2.4 0-2.4 2.4z" clip-path="url(#a)" fill="#fff" stroke="#fff"/>
<g clip-path="url(#a)">
<g transform="translate(1549.3 827.44) rotate(90) scale(.08 -.08)">
<use xlink:href="#l"/>
<use x="60.818359" xlink:href="#d"/>
<use x="122.341797" xlink:href="#f"/>
<use x="163.439453" xlink:href="#k"/>
<use x="260.851562" xlink:href="#i"/>
<use x="288.634766" xlink:href="#g"/>
<use x="352.013672" xlink:href="#h"/>
<use x="413.292969" xlink:href="#j"/>
</g>
</g>
<path d="m1592.6 827.44v35.285q0 2.4 2.4 2.4h7.7425q2.4 0 2.4-2.4v-35.285q0-2.4-2.4-2.4h-7.7425q-2.4 0-2.4 2.4z" clip-path="url(#a)" fill="#fff" stroke="#fff"/>
<g clip-path="url(#a)">
<g transform="translate(1596.6 827.44) rotate(90) scale(.08 -.08)">
<use xlink:href="#l"/>
<use x="60.818359" xlink:href="#d"/>
<use x="122.341797" xlink:href="#f"/>
<use x="163.439453" xlink:href="#k"/>
<use x="260.851562" xlink:href="#i"/>
<use x="288.634766" xlink:href="#g"/>
<use x="352.013672" xlink:href="#h"/>
<use x="413.292969" xlink:href="#j"/>
</g>
</g>
<path d="m1639.9 827.44v35.285q0 2.4 2.4 2.4h7.7425q2.4 0 2.4-2.4v-35.285q0-2.4-2.4-2.4h-7.7425q-2.4 0-2.4 2.4z" clip-path="url(#a)" fill="#fff" stroke="#fff"/>
<g clip-path="url(#a)">
<g transform="translate(1644 827.44) rotate(90) scale(.08 -.08)">
<use xlink:href="#l"/>
<use x="60.818359" xlink:href="#d"/>
<use x="122.341797" xlink:href="#f"/>
<use x="163.439453" xlink:href="#k"/>
<use x="260.851562" xlink:href="#i"/>
<use x="288.634766" xlink:href="#g"/>
<use x="352.013672" xlink:href="#h"/>
<use x="413.292969" xlink:href="#j"/>
</g>
</g>
<path d="m1687.3 827.44v35.285q0 2.4 2.4 2.4h7.7425q2.4 0 2.4-2.4v-35.285q0-2.4-2.4-2.4h-7.7425q-2.4 0-2.4 2.4z" clip-path="url(#a)" fill="#fff" stroke="#fff"/>
<g clip-path="url(#a)">
<g transform="translate(1691.4 827.44) rotate(90) scale(.08 -.08)">
<use xlink:href="#l"/>
<use x="60.818359" xlink:href="#d"/>
<use x="122.341797" xlink:href="#f"/>
<use x="163.439453" xlink:href="#k"/>
<use x="260.851562" xlink:href="#i"/>
<use x="288.634766" xlink:href="#g"/>
<use x="352.013672" xlink:href="#h"/>
<use x="413.292969" xlink:href="#j"/>
</g>
</g>
<path d="m739.94 827.44v35.285q0 2.4 2.4 2.4h7.7425q2.4 0 2.4-2.4v-35.285q0-2.4-2.4-2.4h-7.7425q-2.4 0-2.4 2.4z" clip-path="url(#a)" fill="#fff" stroke="#fff"/>
<g clip-path="url(#a)">
<g transform="translate(744.01 827.44) rotate(90) scale(.08 -.08)">
<use xlink:href="#l"/>
<use x="60.818359" xlink:href="#d"/>
<use x="122.341797" xlink:href="#f"/>
<use x="163.439453" xlink:href="#k"/>
<use x="260.851562" xlink:href="#i"/>
<use x="288.634766" xlink:href="#g"/>
<use x="352.013672" xlink:href="#h"/>
<use x="413.292969" xlink:href="#j"/>
</g>
</g>
<path d="m787.31 827.44v35.285q0 2.4 2.4 2.4h7.7425q2.4 0 2.4-2.4v-35.285q0-2.4-2.4-2.4h-7.7425q-2.4 0-2.4 2.4z" clip-path="url(#a)" fill="#fff" stroke="#fff"/>
<g clip-path="url(#a)">
<g transform="translate(791.37 827.44) rotate(90) scale(.08 -.08)">
<use xlink:href="#l"/>
<use x="60.818359" xlink:href="#d"/>
<use x="122.341797" xlink:href="#f"/>
<use x="163.439453" xlink:href="#k"/>
<use x="260.851562" xlink:href="#i"/>
<use x="288.634766" xlink:href="#g"/>
<use x="352.013672" xlink:href="#h"/>
<use x="413.292969" xlink:href="#j"/>
</g>
</g>
<path d="m869.77 708.74 1.6125-4.7909q0.76557-2.2746-1.509-3.0402l-7.338-2.4698q-2.2746-0.76557-3.0402 1.509l-1.6125 4.7909q-0.76557 2.2746 1.509 3.0402l7.338 2.4698q2.2746 0.76557 3.0402-1.509z" clip-path="url(#a)" fill="#fff" stroke="#fff"/>
<g clip-path="url(#a)">
<g transform="translate(865.92 707.45) rotate(-71.398) scale(.08 -.08)">
<use xlink:href="#r"/>
</g>
</g>
<path d="m905.17 703.7 1.7819 5.2944q0.76557 2.2746 3.0402 1.509l7.338-2.4698q2.2746-0.76557 1.509-3.0402l-1.7819-5.2944q-0.76557-2.2746-3.0402-1.509l-7.338 2.4698q-2.2746 0.76557-1.509 3.0402z" clip-path="url(#a)" fill="#fff" stroke="#fff"/>
<g clip-path="url(#a)">
<g transform="translate(909.02 702.4) rotate(71.398) scale(.08 -.08)">
<use xlink:href="#t"/>
</g>
</g>
<path d="m882.05 827.44v35.285q0 2.4 2.4 2.4h7.7425q2.4 0 2.4-2.4v-35.285q0-2.4-2.4-2.4h-7.7425q-2.4 0-2.4 2.4z" clip-path="url(#a)" fill="#fff" stroke="#fff"/>
<g clip-path="url(#a)">
<g transform="translate(886.11 827.44) rotate(90) scale(.08 -.08)">
<use xlink:href="#l"/>
<use x="60.818359" xlink:href="#d"/>
<use x="122.341797" xlink:href="#f"/>
<use x="163.439453" xlink:href="#k"/>
<use x="260.851562" xlink:href="#i"/>
<use x="288.634766" xlink:href="#g"/>
<use x="352.013672" xlink:href="#h"/>
<use x="413.292969" xlink:href="#j"/>
</g>
</g>
<path d="m976.78 827.44v35.285q0 2.4 2.4 2.4h7.7425q2.4 0 2.4-2.4v-35.285q0-2.4-2.4-2.4h-7.7425q-2.4 0-2.4 2.4z" clip-path="url(#a)" fill="#fff" stroke="#fff"/>
<g clip-path="url(#a)">
<g transform="translate(980.84 827.44) rotate(90) scale(.08 -.08)">
<use xlink:href="#l"/>
<use x="60.818359" xlink:href="#d"/>
<use x="122.341797" xlink:href="#f"/>
<use x="163.439453" xlink:href="#k"/>
<use x="260.851562" xlink:href="#i"/>
<use x="288.634766" xlink:href="#g"/>
<use x="352.013672" xlink:href="#h"/>
<use x="413.292969" xlink:href="#j"/>
</g>
</g>
<path d="m1070.3 709.65 2.5052-4.9622q1.0816-2.1424-1.0608-3.2241l-6.9116-3.4894q-2.1424-1.0816-3.2241 1.0608l-2.5052 4.9622q-1.0816 2.1424 1.0608 3.2241l6.9116 3.4894q2.1424 1.0816 3.2241-1.0608z" clip-path="url(#a)" fill="#fff" stroke="#fff"/>
<g clip-path="url(#a)">
<g transform="translate(1066.7 707.82) rotate(-63.213) scale(.08 -.08)">
<use xlink:href="#y"/>
</g>
</g>
<path d="m1095.4 707.88 0.83889-4.9849q0.39828-2.3667-1.9684-2.765l-7.6351-1.2849q-2.3667-0.39828-2.765 1.9684l-0.83889 4.9849q-0.39828 2.3667 1.9684 2.765l7.6351 1.2849q2.3667 0.39828 2.765-1.9684z" clip-path="url(#a)" fill="#fff" stroke="#fff"/>
<g clip-path="url(#a)">
<g transform="translate(1091.4 707.21) rotate(-80.447) scale(.08 -.08)">
<use xlink:href="#r"/>
</g>
</g>
<path d="m1106.7 702.9 0.83889 4.9849q0.39828 2.3667 2.765 1.9684l7.6351-1.2849q2.3667-0.39828 1.9684-2.765l-0.83889-4.9849q-0.39828-2.3667-2.765-1.9684l-7.6351 1.2849q-2.3667 0.39828-1.9684 2.765z" clip-path="url(#a)" fill="#fff" stroke="#fff"/>
<g clip-path="url(#a)">
<g transform="translate(1110.7 702.22) rotate(80.447) scale(.08 -.08)">
<use xlink:href="#r"/>
</g>
</g>
<path d="m1130.1 704.68 2.5176 4.9868q1.0816 2.1424 3.2241 1.0608l6.9116-3.4894q2.1424-1.0816 1.0608-3.2241l-2.5176-4.9868q-1.0816-2.1424-3.2241-1.0608l-6.9116 3.4894q-2.1424 1.0816-1.0608 3.2241z" clip-path="url(#a)" fill="#fff" stroke="#fff"/>
<g clip-path="url(#a)">
<g transform="translate(1133.8 702.85) rotate(63.213) scale(.08 -.08)">
<use xlink:href="#t"/>
</g>
</g>
<path d="m1024.1 827.44v35.285q0 2.4 2.4 2.4h7.7425q2.4 0 2.4-2.4v-35.285q0-2.4-2.4-2.4h-7.7425q-2.4 0-2.4 2.4z" clip-path="url(#a)" fill="#fff" stroke="#fff"/>
<g clip-path="url(#a)">
<g transform="translate(1028.2 827.44) rotate(90) scale(.08 -.08)">
<use xlink:href="#l"/>
<use x="60.818359" xlink:href="#d"/>
<use x="122.341797" xlink:href="#f"/>
<use x="163.439453" xlink:href="#k"/>
<use x="260.851562" xlink:href="#i"/>
<use x="288.634766" xlink:href="#g"/>
<use x="352.013672" xlink:href="#h"/>
<use x="413.292969" xlink:href="#j"/>
</g>
</g>
<path d="m1071.5 827.44v35.285q0 2.4 2.4 2.4h7.7425q2.4 0 2.4-2.4v-35.285q0-2.4-2.4-2.4h-7.7425q-2.4 0-2.4 2.4z" clip-path="url(#a)" fill="#fff" stroke="#fff"/>
<g clip-path="url(#a)">
<g transform="translate(1075.6 827.44) rotate(90) scale(.08 -.08)">
<use xlink:href="#l"/>
<use x="60.818359" xlink:href="#d"/>
<use x="122.341797" xlink:href="#f"/>
<use x="163.439453" xlink:href="#k"/>
<use x="260.851562" xlink:href="#i"/>
<use x="288.634766" xlink:href="#g"/>
<use x="352.013672" xlink:href="#h"/>
<use x="413.292969" xlink:href="#j"/>
</g>
</g>
<path d="m1118.9 827.44v35.285q0 2.4 2.4 2.4h7.7425q2.4 0 2.4-2.4v-35.285q0-2.4-2.4-2.4h-7.7425q-2.4 0-2.4 2.4z" clip-path="url(#a)" fill="#fff" stroke="#fff"/>
<g clip-path="url(#a)">
<g transform="translate(1122.9 827.44) rotate(90) scale(.08 -.08)">
<use xlink:href="#l"/>
<use x="60.818359" xlink:href="#d"/>
<use x="122.341797" xlink:href="#f"/>
<use x="163.439453" xlink:href="#k"/>
<use x="260.851562" xlink:href="#i"/>
<use x="288.634766" xlink:href="#g"/>
<use x="352.013672" xlink:href="#h"/>
<use x="413.292969" xlink:href="#j"/>
</g>
</g>
<path d="m1166.2 827.44v35.285q0 2.4 2.4 2.4h7.7425q2.4 0 2.4-2.4v-35.285q0-2.4-2.4-2.4h-7.7425q-2.4 0-2.4 2.4z" clip-path="url(#a)" fill="#fff" stroke="#fff"/>
<g clip-path="url(#a)">
<g transform="translate(1170.3 827.44) rotate(90) scale(.08 -.08)">
<use xlink:href="#l"/>
<use x="60.818359" xlink:href="#d"/>
<use x="122.341797" xlink:href="#f"/>
<use x="163.439453" xlink:href="#k"/>
<use x="260.851562" xlink:href="#i"/>
<use x="288.634766" xlink:href="#g"/>
<use x="352.013672" xlink:href="#h"/>
<use x="413.292969" xlink:href="#j"/>
</g>
</g>
<path d="m834.68 827.44v35.285q0 2.4 2.4 2.4h7.7425q2.4 0 2.4-2.4v-35.285q0-2.4-2.4-2.4h-7.7425q-2.4 0-2.4 2.4z" clip-path="url(#a)" fill="#fff" stroke="#fff"/>
<g clip-path="url(#a)">
<g transform="translate(838.74 827.44) rotate(90) scale(.08 -.08)">
<use xlink:href="#l"/>
<use x="60.818359" xlink:href="#d"/>
<use x="122.341797" xlink:href="#f"/>
<use x="163.439453" xlink:href="#k"/>
<use x="260.851562" xlink:href="#i"/>
<use x="288.634766" xlink:href="#g"/>
<use x="352.013672" xlink:href="#h"/>
<use x="413.292969" xlink:href="#j"/>
</g>
</g>
<path d="m929.41 827.44v35.285q0 2.4 2.4 2.4h7.7425q2.4 0 2.4-2.4v-35.285q0-2.4-2.4-2.4h-7.7425q-2.4 0-2.4 2.4z" clip-path="url(#a)" fill="#fff" stroke="#fff"/>
<g clip-path="url(#a)">
<g transform="translate(933.48 827.44) rotate(90) scale(.08 -.08)">
<use xlink:href="#l"/>
<use x="60.818359" xlink:href="#d"/>
<use x="122.341797" xlink:href="#f"/>
<use x="163.439453" xlink:href="#k"/>
<use x="260.851562" xlink:href="#i"/>
<use x="288.634766" xlink:href="#g"/>
<use x="352.013672" xlink:href="#h"/>
<use x="413.292969" xlink:href="#j"/>
</g>
</g>
<path d="m503.11 827.44v35.285q0 2.4 2.4 2.4h7.7425q2.4 0 2.4-2.4v-35.285q0-2.4-2.4-2.4h-7.7425q-2.4 0-2.4 2.4z" clip-path="url(#a)" fill="#fff" stroke="#fff"/>
<g clip-path="url(#a)">
<g transform="translate(507.17 827.44) rotate(90) scale(.08 -.08)">
<use xlink:href="#l"/>
<use x="60.818359" xlink:href="#d"/>
<use x="122.341797" xlink:href="#f"/>
<use x="163.439453" xlink:href="#k"/>
<use x="260.851562" xlink:href="#i"/>
<use x="288.634766" xlink:href="#g"/>
<use x="352.013672" xlink:href="#h"/>
<use x="413.292969" xlink:href="#j"/>
</g>
</g>
<path d="m550.47 827.44v35.285q0 2.4 2.4 2.4h7.7425q2.4 0 2.4-2.4v-35.285q0-2.4-2.4-2.4h-7.7425q-2.4 0-2.4 2.4z" clip-path="url(#a)" fill="#fff" stroke="#fff"/>
<g clip-path="url(#a)">
<g transform="translate(554.54 827.44) rotate(90) scale(.08 -.08)">
<use xlink:href="#l"/>
<use x="60.818359" xlink:href="#d"/>
<use x="122.341797" xlink:href="#f"/>
<use x="163.439453" xlink:href="#k"/>
<use x="260.851562" xlink:href="#i"/>
<use x="288.634766" xlink:href="#g"/>
<use x="352.013672" xlink:href="#h"/>
<use x="413.292969" xlink:href="#j"/>
</g>
</g>
<path d="m597.84 827.44v35.285q0 2.4 2.4 2.4h7.7425q2.4 0 2.4-2.4v-35.285q0-2.4-2.4-2.4h-7.7425q-2.4 0-2.4 2.4z" clip-path="url(#a)" fill="#fff" stroke="#fff"/>
<g clip-path="url(#a)">
<g transform="translate(601.9 827.44) rotate(90) scale(.08 -.08)">
<use xlink:href="#l"/>
<use x="60.818359" xlink:href="#d"/>
<use x="122.341797" xlink:href="#f"/>
<use x="163.439453" xlink:href="#k"/>
<use x="260.851562" xlink:href="#i"/>
<use x="288.634766" xlink:href="#g"/>
<use x="352.013672" xlink:href="#h"/>
<use x="413.292969" xlink:href="#j"/>
</g>
</g>
<path d="m669.04 708.13 0.92249-5.4817q0.39828-2.3667-1.9684-2.765l-7.6351-1.2849q-2.3667-0.39828-2.765 1.9684l-0.92249 5.4817q-0.39828 2.3667 1.9684 2.765l7.6351 1.2849q2.3667 0.39828 2.765-1.9684z" clip-path="url(#a)" fill="#fff" stroke="#fff"/>
<g clip-path="url(#a)">
<g transform="translate(665.04 707.45) rotate(-80.447) scale(.08 -.08)">
<use xlink:href="#y"/>
</g>
</g>
<path d="m680.36 702.63 0.92705 5.5088q0.39828 2.3667 2.765 1.9684l7.6351-1.2849q2.3667-0.39828 1.9684-2.765l-0.92705-5.5088q-0.39828-2.3667-2.765-1.9684l-7.6351 1.2849q-2.3667 0.39828-1.9684 2.765z" clip-path="url(#a)" fill="#fff" stroke="#fff"/>
<g clip-path="url(#a)">
<g transform="translate(684.36 701.96) rotate(80.447) scale(.08 -.08)">
<use xlink:href="#t"/>
</g>
</g>
<path d="m645.21 827.44v35.285q0 2.4 2.4 2.4h7.7425q2.4 0 2.4-2.4v-35.285q0-2.4-2.4-2.4h-7.7425q-2.4 0-2.4 2.4z" clip-path="url(#a)" fill="#fff" stroke="#fff"/>
<g clip-path="url(#a)">
<g transform="translate(649.27 827.44) rotate(90) scale(.08 -.08)">
<use xlink:href="#l"/>
<use x="60.818359" xlink:href="#d"/>
<use x="122.341797" xlink:href="#f"/>
<use x="163.439453" xlink:href="#k"/>
<use x="260.851562" xlink:href="#i"/>
<use x="288.634766" xlink:href="#g"/>
<use x="352.013672" xlink:href="#h"/>
<use x="413.292969" xlink:href="#j"/>
</g>
</g>
<path d="m692.58 827.44v35.285q0 2.4 2.4 2.4h7.7425q2.4 0 2.4-2.4v-35.285q0-2.4-2.4-2.4h-7.7425q-2.4 0-2.4 2.4z" clip-path="url(#a)" fill="#fff" stroke="#fff"/>
<g clip-path="url(#a)">
<g transform="translate(696.64 827.44) rotate(90) scale(.08 -.08)">
<use xlink:href="#l"/>
<use x="60.818359" xlink:href="#d"/>
<use x="122.341797" xlink:href="#f"/>
<use x="163.439453" xlink:href="#k"/>
<use x="260.851562" xlink:href="#i"/>
<use x="288.634766" xlink:href="#g"/>
<use x="352.013672" xlink:href="#h"/>
<use x="413.292969" xlink:href="#j"/>
</g>
</g>
<path d="m159.26 708.74 1.6125-4.7909q0.76557-2.2746-1.509-3.0402l-7.338-2.4698q-2.2746-0.76557-3.0402 1.509l-1.6125 4.7909q-0.76557 2.2746 1.509 3.0402l7.338 2.4698q2.2746 0.76557 3.0402-1.509z" clip-path="url(#a)" fill="#fff" stroke="#fff"/>
<g clip-path="url(#a)">
<g transform="translate(155.41 707.45) rotate(-71.398) scale(.08 -.08)">
<use xlink:href="#r"/>
</g>
</g>
<path d="m171.53 701.55v5.5862q0 2.4 2.4 2.4h7.7425q2.4 0 2.4-2.4v-5.5862q0-2.4-2.4-2.4h-7.7425q-2.4 0-2.4 2.4z" clip-path="url(#a)" fill="#fff" stroke="#fff"/>
<g clip-path="url(#a)">
<g transform="translate(175.6 701.55) rotate(90) scale(.08 -.08)">
<use xlink:href="#t"/>
</g>
</g>
<path d="m194.66 703.71 1.7732 5.2684q0.76557 2.2746 3.0402 1.509l7.338-2.4698q2.2746-0.76557 1.509-3.0402l-1.7732-5.2684q-0.76557-2.2746-3.0402-1.509l-7.338 2.4698q-2.2746 0.76557-1.509 3.0402z" clip-path="url(#a)" fill="#fff" stroke="#fff"/>
<g clip-path="url(#a)">
<g transform="translate(198.51 702.42) rotate(71.398) scale(.08 -.08)">
<use xlink:href="#y"/>
</g>
</g>
<path d="m290.15 707.88 0.83889-4.9849q0.39828-2.3667-1.9684-2.765l-7.6351-1.2849q-2.3667-0.39828-2.765 1.9684l-0.83889 4.9849q-0.39828 2.3667 1.9684 2.765l7.6351 1.2849q2.3667 0.39828 2.765-1.9684z" clip-path="url(#a)" fill="#fff" stroke="#fff"/>
<g clip-path="url(#a)">
<g transform="translate(286.14 707.21) rotate(-80.447) scale(.08 -.08)">
<use xlink:href="#r"/>
</g>
</g>
<path d="m301.42 702.63 0.92705 5.5088q0.39828 2.3667 2.765 1.9684l7.6351-1.2849q2.3667-0.39828 1.9684-2.765l-0.92705-5.5088q-0.39828-2.3667-2.765-1.9684l-7.6351 1.2849q-2.3667 0.39828-1.9684 2.765z" clip-path="url(#a)" fill="#fff" stroke="#fff"/>
<g clip-path="url(#a)">
<g transform="translate(305.43 701.96) rotate(80.447) scale(.08 -.08)">
<use xlink:href="#t"/>
</g>
</g>
<path d="m266.27 827.44v35.285q0 2.4 2.4 2.4h7.7425q2.4 0 2.4-2.4v-35.285q0-2.4-2.4-2.4h-7.7425q-2.4 0-2.4 2.4z" clip-path="url(#a)" fill="#fff" stroke="#fff"/>
<g clip-path="url(#a)">
<g transform="translate(270.33 827.44) rotate(90) scale(.08 -.08)">
<use xlink:href="#l"/>
<use x="60.818359" xlink:href="#d"/>
<use x="122.341797" xlink:href="#f"/>
<use x="163.439453" xlink:href="#k"/>
<use x="260.851562" xlink:href="#i"/>
<use x="288.634766" xlink:href="#g"/>
<use x="352.013672" xlink:href="#h"/>
<use x="413.292969" xlink:href="#j"/>
</g>
</g>
<path d="m313.64 827.44v35.285q0 2.4 2.4 2.4h7.7425q2.4 0 2.4-2.4v-35.285q0-2.4-2.4-2.4h-7.7425q-2.4 0-2.4 2.4z" clip-path="url(#a)" fill="#fff" stroke="#fff"/>
<g clip-path="url(#a)">
<g transform="translate(317.7 827.44) rotate(90) scale(.08 -.08)">
<use xlink:href="#l"/>
<use x="60.818359" xlink:href="#d"/>
<use x="122.341797" xlink:href="#f"/>
<use x="163.439453" xlink:href="#k"/>
<use x="260.851562" xlink:href="#i"/>
<use x="288.634766" xlink:href="#g"/>
<use x="352.013672" xlink:href="#h"/>
<use x="413.292969" xlink:href="#j"/>
</g>
</g>
<path d="m124.17 827.44v35.285q0 2.4 2.4 2.4h7.7425q2.4 0 2.4-2.4v-35.285q0-2.4-2.4-2.4h-7.7425q-2.4 0-2.4 2.4z" clip-path="url(#a)" fill="#fff" stroke="#fff"/>
<g clip-path="url(#a)">
<g transform="translate(128.23 827.44) rotate(90) scale(.08 -.08)">
<use xlink:href="#l"/>
<use x="60.818359" xlink:href="#d"/>
<use x="122.341797" xlink:href="#f"/>
<use x="163.439453" xlink:href="#k"/>
<use x="260.851562" xlink:href="#i"/>
<use x="288.634766" xlink:href="#g"/>
<use x="352.013672" xlink:href="#h"/>
<use x="413.292969" xlink:href="#j"/>
</g>
</g>
<path d="m171.53 827.44v35.285q0 2.4 2.4 2.4h7.7425q2.4 0 2.4-2.4v-35.285q0-2.4-2.4-2.4h-7.7425q-2.4 0-2.4 2.4z" clip-path="url(#a)" fill="#fff" stroke="#fff"/>
<g clip-path="url(#a)">
<g transform="translate(175.6 827.44) rotate(90) scale(.08 -.08)">
<use xlink:href="#l"/>
<use x="60.818359" xlink:href="#d"/>
<use x="122.341797" xlink:href="#f"/>
<use x="163.439453" xlink:href="#k"/>
<use x="260.851562" xlink:href="#i"/>
<use x="288.634766" xlink:href="#g"/>
<use x="352.013672" xlink:href="#h"/>
<use x="413.292969" xlink:href="#j"/>
</g>
</g>
<path d="m218.9 827.44v35.285q0 2.4 2.4 2.4h7.7425q2.4 0 2.4-2.4v-35.285q0-2.4-2.4-2.4h-7.7425q-2.4 0-2.4 2.4z" clip-path="url(#a)" fill="#fff" stroke="#fff"/>
<g clip-path="url(#a)">
<g transform="translate(222.97 827.44) rotate(90) scale(.08 -.08)">
<use xlink:href="#l"/>
<use x="60.818359" xlink:href="#d"/>
<use x="122.341797" xlink:href="#f"/>
<use x="163.439453" xlink:href="#k"/>
<use x="260.851562" xlink:href="#i"/>
<use x="288.634766" xlink:href="#g"/>
<use x="352.013672" xlink:href="#h"/>
<use x="413.292969" xlink:href="#j"/>
</g>
</g>
<path d="m1036.2 426.43 8.7801-4.6437q2.1216-1.1221 0.99949-3.2436l-3.6198-6.8442q-1.1221-2.1216-3.2436-0.99949l-8.7801 4.6437q-2.1216 1.1221-0.99949 3.2436l3.6198 6.8442q1.1221 2.1216 3.2436 0.99949z" clip-path="url(#a)" fill="#fff" stroke="#fff"/>
<g clip-path="url(#a)">
<g transform="translate(1034.3 422.84) rotate(-27.874) scale(.08 -.08)">
<use xlink:href="#w"/>
<use x="55.744141" xlink:href="#p"/>
</g>
</g>
<path d="m1190.8 555.95 1.0392 9.9622q0.249 2.387 2.636 2.1381l7.7007-0.80327q2.387-0.249 2.1381-2.636l-1.0392-9.9622q-0.249-2.387-2.636-2.1381l-7.7007 0.80327q-2.387 0.249-2.1381 2.636z" clip-path="url(#a)" fill="#fff" stroke="#fff"/>
<g clip-path="url(#a)">
<g transform="translate(1194.8 555.53) rotate(84.045) scale(.08 -.08)">
<use xlink:href="#w"/>
<use x="55.712891" xlink:href="#y"/>
</g>
</g>
<path d="m1282.7 421.22 8.3976 5.3043q2.0291 1.2817 3.3108-0.74744l4.1347-6.546q1.2817-2.0291-0.74744-3.3108l-8.3976-5.3043q-2.0291-1.2817-3.3108 0.74744l-4.1347 6.546q-1.2817 2.0291 0.74744 3.3108z" clip-path="url(#a)" fill="#fff" stroke="#fff"/>
<g clip-path="url(#a)">
<g transform="translate(1284.9 417.78) rotate(32.278) scale(.08 -.08)">
<use xlink:href="#w"/>
<use x="55.744141" xlink:href="#p"/>
</g>
</g>
<path d="m209.17 416.37 3.1684-9.5019q0.75918-2.2768-1.5176-3.0359l-7.3449-2.4491q-2.2768-0.75918-3.0359 1.5176l-3.1684 9.5019q-0.75918 2.2768 1.5176 3.0359l7.3449 2.4491q2.2768 0.75918 3.0359-1.5176z" clip-path="url(#a)" fill="#fff" stroke="#fff"/>
<g clip-path="url(#a)">
<g transform="translate(205.32 415.08) rotate(-71.559) scale(.08 -.08)">
<use xlink:href="#w"/>
<use x="55.712891" xlink:href="#y"/>
</g>
</g>
<path d="m286.95 274.02 1.9517-9.7389q0.47159-2.3532-1.8816-2.8248l-7.5916-1.5214q-2.3532-0.47159-2.8248 1.8816l-1.9517 9.7389q-0.47159 2.3532 1.8816 2.8248l7.5916 1.5214q2.3532 0.47159 2.8248-1.8816z" clip-path="url(#a)" fill="#fff" stroke="#fff"/>
<g clip-path="url(#a)">
<g transform="translate(282.97 273.22) rotate(-78.668) scale(.08 -.08)">
<use xlink:href="#w"/>
<use x="55.744141" xlink:href="#p"/>
</g>
</g>
<path d="m485.91 124.45 9.0301 4.1366q2.182 0.99952 3.1815-1.1824l3.2245-7.0391q0.99952-2.182-1.1824-3.1815l-9.0301-4.1366q-2.182-0.99952-3.1815 1.1824l-3.2245 7.0391q-0.99952 2.182 1.1824 3.1815z" clip-path="url(#a)" fill="#fff" stroke="#fff"/>
<g clip-path="url(#a)">
<g transform="translate(487.61 120.76) rotate(24.612) scale(.08 -.08)">
<use xlink:href="#w"/>
<use x="55.744141" xlink:href="#p"/>
</g>
</g>
<path d="m361 827.44v35.285q0 2.4 2.4 2.4h7.7425q2.4 0 2.4-2.4v-35.285q0-2.4-2.4-2.4h-7.7425q-2.4 0-2.4 2.4z" clip-path="url(#a)" fill="#fff" stroke="#fff"/>
<g clip-path="url(#a)">
<g transform="translate(365.07 827.44) rotate(90) scale(.08 -.08)">
<use xlink:href="#l"/>
<use x="60.818359" xlink:href="#d"/>
<use x="122.341797" xlink:href="#f"/>
<use x="163.439453" xlink:href="#k"/>
<use x="260.851562" xlink:href="#i"/>
<use x="288.634766" xlink:href="#g"/>
<use x="352.013672" xlink:href="#h"/>
<use x="413.292969" xlink:href="#j"/>
</g>
</g>
<path d="m1734.7 827.44v35.285q0 2.4 2.4 2.4h7.7425q2.4 0 2.4-2.4v-35.285q0-2.4-2.4-2.4h-7.7425q-2.4 0-2.4 2.4z" clip-path="url(#a)" fill="#fff" stroke="#fff"/>
<g clip-path="url(#a)">
<g transform="translate(1738.7 827.44) rotate(90) scale(.08 -.08)">
<use xlink:href="#l"/>
<use x="60.818359" xlink:href="#d"/>
<use x="122.341797" xlink:href="#f"/>
<use x="163.439453" xlink:href="#k"/>
<use x="260.851562" xlink:href="#i"/>
<use x="288.634766" xlink:href="#g"/>
<use x="352.013672" xlink:href="#h"/>
<use x="413.292969" xlink:href="#j"/>
</g>
</g>
<defs>
<path id="b" d="m0 8.6603c2.2967 0 4.4997-0.9125 6.1237-2.5365 1.624-1.624 2.5365-3.827 2.5365-6.1237s-0.9125-4.4997-2.5365-6.1237c-1.624-1.624-3.827-2.5365-6.1237-2.5365s-4.4997 0.9125-6.1237 2.5365c-1.624 1.624-2.5365 3.827-2.5365 6.1237s0.9125 4.4997 2.5365 6.1237c1.624 1.624 3.827 2.5365 6.1237 2.5365z"/>
</defs>
<g clip-path="url(#a)">
<use x="83.071017" y="915.449535" fill="#ffffff" stroke="#ffffff" xlink:href="#b"/>
</g>
<g clip-path="url(#a)">
<use x="130.438388" y="915.449535" fill="#ffffff" stroke="#ffffff" xlink:href="#b"/>
</g>
<g clip-path="url(#a)">
<use x="177.805758" y="915.449535" fill="#ffffff" stroke="#ffffff" xlink:href="#b"/>
</g>
<g clip-path="url(#a)">
<use x="225.173129" y="915.449535" fill="#ffffff" stroke="#ffffff" xlink:href="#b"/>
</g>
<g clip-path="url(#a)">
<use x="272.540499" y="915.449535" fill="#ffffff" stroke="#ffffff" xlink:href="#b"/>
</g>
<g clip-path="url(#a)">
<use x="319.907869" y="915.449535" fill="#ffffff" stroke="#ffffff" xlink:href="#b"/>
</g>
<g clip-path="url(#a)">
<use x="367.27524" y="915.449535" fill="#ffffff" stroke="#ffffff" xlink:href="#b"/>
</g>
<g clip-path="url(#a)">
<use x="414.64261" y="915.449535" fill="#ffffff" stroke="#ffffff" xlink:href="#b"/>
</g>
<g clip-path="url(#a)">
<use x="462.009981" y="915.449535" fill="#ffffff" stroke="#ffffff" xlink:href="#b"/>
</g>
<g clip-path="url(#a)">
<use x="509.377351" y="915.449535" fill="#ffffff" stroke="#ffffff" xlink:href="#b"/>
</g>
<g clip-path="url(#a)">
<use x="556.744722" y="915.449535" fill="#ffffff" stroke="#ffffff" xlink:href="#b"/>
</g>
<g clip-path="url(#a)">
<use x="604.112092" y="915.449535" fill="#ffffff" stroke="#ffffff" xlink:href="#b"/>
</g>
<g clip-path="url(#a)">
<use x="651.479463" y="915.449535" fill="#ffffff" stroke="#ffffff" xlink:href="#b"/>
</g>
<g clip-path="url(#a)">
<use x="698.846833" y="915.449535" fill="#ffffff" stroke="#ffffff" xlink:href="#b"/>
</g>
<g clip-path="url(#a)">
<use x="746.214203" y="915.449535" fill="#ffffff" stroke="#ffffff" xlink:href="#b"/>
</g>
<g clip-path="url(#a)">
<use x="793.581574" y="915.449535" fill="#ffffff" stroke="#ffffff" xlink:href="#b"/>
</g>
<g clip-path="url(#a)">
<use x="840.948944" y="915.449535" fill="#ffffff" stroke="#ffffff" xlink:href="#b"/>
</g>
<g clip-path="url(#a)">
<use x="888.316315" y="915.449535" fill="#ffffff" stroke="#ffffff" xlink:href="#b"/>
</g>
<g clip-path="url(#a)">
<use x="935.683685" y="915.449535" fill="#ffffff" stroke="#ffffff" xlink:href="#b"/>
</g>
<g clip-path="url(#a)">
<use x="983.051056" y="915.449535" fill="#ffffff" stroke="#ffffff" xlink:href="#b"/>
</g>
<g clip-path="url(#a)">
<use x="1030.418426" y="915.449535" fill="#ffffff" stroke="#ffffff" xlink:href="#b"/>
</g>
<g clip-path="url(#a)">
<use x="1077.785797" y="915.449535" fill="#ffffff" stroke="#ffffff" xlink:href="#b"/>
</g>
<g clip-path="url(#a)">
<use x="1125.153167" y="915.449535" fill="#ffffff" stroke="#ffffff" xlink:href="#b"/>
</g>
<g clip-path="url(#a)">
<use x="1172.520537" y="915.449535" fill="#ffffff" stroke="#ffffff" xlink:href="#b"/>
</g>
<g clip-path="url(#a)">
<use x="1219.887908" y="915.449535" fill="#ffffff" stroke="#ffffff" xlink:href="#b"/>
</g>
<g clip-path="url(#a)">
<use x="1267.255278" y="915.449535" fill="#ffffff" stroke="#ffffff" xlink:href="#b"/>
</g>
<g clip-path="url(#a)">
<use x="1314.622649" y="915.449535" fill="#ffffff" stroke="#ffffff" xlink:href="#b"/>
</g>
<g clip-path="url(#a)">
<use x="1361.990019" y="915.449535" fill="#ffffff" stroke="#ffffff" xlink:href="#b"/>
</g>
<g clip-path="url(#a)">
<use x="1409.35739" y="915.449535" fill="#ffffff" stroke="#ffffff" xlink:href="#b"/>
</g>
<g clip-path="url(#a)">
<use x="1456.72476" y="915.449535" fill="#ffffff" stroke="#ffffff" xlink:href="#b"/>
</g>
<g clip-path="url(#a)">
<use x="1504.092131" y="915.449535" fill="#ffffff" stroke="#ffffff" xlink:href="#b"/>
</g>
<g clip-path="url(#a)">
<use x="1551.459501" y="915.449535" fill="#ffffff" stroke="#ffffff" xlink:href="#b"/>
</g>
<g clip-path="url(#a)">
<use x="1598.826871" y="915.449535" fill="#ffffff" stroke="#ffffff" xlink:href="#b"/>
</g>
<g clip-path="url(#a)">
<use x="1646.194242" y="915.449535" fill="#ffffff" stroke="#ffffff" xlink:href="#b"/>
</g>
<g clip-path="url(#a)">
<use x="1693.561612" y="915.449535" fill="#ffffff" stroke="#ffffff" xlink:href="#b"/>
</g>
<g clip-path="url(#a)">
<use x="1740.928983" y="915.449535" fill="#ffffff" stroke="#ffffff" xlink:href="#b"/>
</g>
<g clip-path="url(#a)">
<use x="336.724931" y="44.550465" fill="#ffffff" stroke="#ffffff" xlink:href="#b"/>
</g>
<g clip-path="url(#a)">
<use x="83.071017" y="774.714422" fill="#ffffff" stroke="#ffffff" xlink:href="#b"/>
</g>
<g clip-path="url(#a)">
<use x="237.014971" y="491.286416" fill="#ffffff" stroke="#ffffff" xlink:href="#b"/>
</g>
<g clip-path="url(#a)">
<use x="659.538494" y="197.091414" fill="#ffffff" stroke="#ffffff" xlink:href="#b"/>
</g>
<g clip-path="url(#a)">
<use x="414.64261" y="774.714422" fill="#ffffff" stroke="#ffffff" xlink:href="#b"/>
</g>
<g clip-path="url(#a)">
<use x="462.009981" y="774.714422" fill="#ffffff" stroke="#ffffff" xlink:href="#b"/>
</g>
<g clip-path="url(#a)">
<use x="586.349328" y="491.286416" fill="#ffffff" stroke="#ffffff" xlink:href="#b"/>
</g>
<g clip-path="url(#a)">
<use x="1175.152058" y="345.845863" fill="#ffffff" stroke="#ffffff" xlink:href="#b"/>
</g>
<g clip-path="url(#a)">
<use x="900.158157" y="491.286416" fill="#ffffff" stroke="#ffffff" xlink:href="#b"/>
</g>
<g clip-path="url(#a)">
<use x="1219.887908" y="774.714422" fill="#ffffff" stroke="#ffffff" xlink:href="#b"/>
</g>
<g clip-path="url(#a)">
<use x="1405.410109" y="491.286416" fill="#ffffff" stroke="#ffffff" xlink:href="#b"/>
</g>
<g clip-path="url(#a)">
<use x="1267.255278" y="774.714422" fill="#ffffff" stroke="#ffffff" xlink:href="#b"/>
</g>
<g clip-path="url(#a)">
<use x="1314.622649" y="774.714422" fill="#ffffff" stroke="#ffffff" xlink:href="#b"/>
</g>
<g clip-path="url(#a)">
<use x="1361.990019" y="774.714422" fill="#ffffff" stroke="#ffffff" xlink:href="#b"/>
</g>
<g clip-path="url(#a)">
<use x="1409.35739" y="774.714422" fill="#ffffff" stroke="#ffffff" xlink:href="#b"/>
</g>
<g clip-path="url(#a)">
<use x="1456.72476" y="774.714422" fill="#ffffff" stroke="#ffffff" xlink:href="#b"/>
</g>
<g clip-path="url(#a)">
<use x="1622.510557" y="633.979309" fill="#ffffff" stroke="#ffffff" xlink:href="#b"/>
</g>
<g clip-path="url(#a)">
<use x="1504.092131" y="774.714422" fill="#ffffff" stroke="#ffffff" xlink:href="#b"/>
</g>
<g clip-path="url(#a)">
<use x="1551.459501" y="774.714422" fill="#ffffff" stroke="#ffffff" xlink:href="#b"/>
</g>
<g clip-path="url(#a)">
<use x="1598.826871" y="774.714422" fill="#ffffff" stroke="#ffffff" xlink:href="#b"/>
</g>
<g clip-path="url(#a)">
<use x="1646.194242" y="774.714422" fill="#ffffff" stroke="#ffffff" xlink:href="#b"/>
</g>
<g clip-path="url(#a)">
<use x="1693.561612" y="774.714422" fill="#ffffff" stroke="#ffffff" xlink:href="#b"/>
</g>
<g clip-path="url(#a)">
<use x="746.214203" y="774.714422" fill="#ffffff" stroke="#ffffff" xlink:href="#b"/>
</g>
<g clip-path="url(#a)">
<use x="793.581574" y="774.714422" fill="#ffffff" stroke="#ffffff" xlink:href="#b"/>
</g>
<g clip-path="url(#a)">
<use x="888.316315" y="633.979309" fill="#ffffff" stroke="#ffffff" xlink:href="#b"/>
</g>
<g clip-path="url(#a)">
<use x="888.316315" y="774.714422" fill="#ffffff" stroke="#ffffff" xlink:href="#b"/>
</g>
<g clip-path="url(#a)">
<use x="983.051056" y="774.714422" fill="#ffffff" stroke="#ffffff" xlink:href="#b"/>
</g>
<g clip-path="url(#a)">
<use x="1101.469482" y="633.979309" fill="#ffffff" stroke="#ffffff" xlink:href="#b"/>
</g>
<g clip-path="url(#a)">
<use x="1030.418426" y="774.714422" fill="#ffffff" stroke="#ffffff" xlink:href="#b"/>
</g>
<g clip-path="url(#a)">
<use x="1077.785797" y="774.714422" fill="#ffffff" stroke="#ffffff" xlink:href="#b"/>
</g>
<g clip-path="url(#a)">
<use x="1125.153167" y="774.714422" fill="#ffffff" stroke="#ffffff" xlink:href="#b"/>
</g>
<g clip-path="url(#a)">
<use x="1172.520537" y="774.714422" fill="#ffffff" stroke="#ffffff" xlink:href="#b"/>
</g>
<g clip-path="url(#a)">
<use x="840.948944" y="774.714422" fill="#ffffff" stroke="#ffffff" xlink:href="#b"/>
</g>
<g clip-path="url(#a)">
<use x="935.683685" y="774.714422" fill="#ffffff" stroke="#ffffff" xlink:href="#b"/>
</g>
<g clip-path="url(#a)">
<use x="509.377351" y="774.714422" fill="#ffffff" stroke="#ffffff" xlink:href="#b"/>
</g>
<g clip-path="url(#a)">
<use x="556.744722" y="774.714422" fill="#ffffff" stroke="#ffffff" xlink:href="#b"/>
</g>
<g clip-path="url(#a)">
<use x="604.112092" y="774.714422" fill="#ffffff" stroke="#ffffff" xlink:href="#b"/>
</g>
<g clip-path="url(#a)">
<use x="675.163148" y="633.979309" fill="#ffffff" stroke="#ffffff" xlink:href="#b"/>
</g>
<g clip-path="url(#a)">
<use x="651.479463" y="774.714422" fill="#ffffff" stroke="#ffffff" xlink:href="#b"/>
</g>
<g clip-path="url(#a)">
<use x="698.846833" y="774.714422" fill="#ffffff" stroke="#ffffff" xlink:href="#b"/>
</g>
<g clip-path="url(#a)">
<use x="177.805758" y="633.979309" fill="#ffffff" stroke="#ffffff" xlink:href="#b"/>
</g>
<g clip-path="url(#a)">
<use x="296.224184" y="633.979309" fill="#ffffff" stroke="#ffffff" xlink:href="#b"/>
</g>
<g clip-path="url(#a)">
<use x="272.540499" y="774.714422" fill="#ffffff" stroke="#ffffff" xlink:href="#b"/>
</g>
<g clip-path="url(#a)">
<use x="319.907869" y="774.714422" fill="#ffffff" stroke="#ffffff" xlink:href="#b"/>
</g>
<g clip-path="url(#a)">
<use x="130.438388" y="774.714422" fill="#ffffff" stroke="#ffffff" xlink:href="#b"/>
</g>
<g clip-path="url(#a)">
<use x="177.805758" y="774.714422" fill="#ffffff" stroke="#ffffff" xlink:href="#b"/>
</g>
<g clip-path="url(#a)">
<use x="225.173129" y="774.714422" fill="#ffffff" stroke="#ffffff" xlink:href="#b"/>
</g>
<g clip-path="url(#a)">
<use x="1175.152058" y="345.845863" fill="#808080" stroke="#808080" xlink:href="#b"/>
</g>
<g clip-path="url(#a)">
<use x="326.541494" y="44.550465" fill="#808080" stroke="#808080" xlink:href="#b"/>
</g>
<g clip-path="url(#a)">
<use x="367.27524" y="774.714422" fill="#ffffff" stroke="#ffffff" xlink:href="#b"/>
</g>
<g clip-path="url(#a)">
<use x="1740.928983" y="774.714422" fill="#ffffff" stroke="#ffffff" xlink:href="#b"/>
</g>
<g clip-path="url(#a)">
<defs>
<path id="u" d="m30.609 48.391q-7.2188 0-11.422-5.6406t-4.2031-15.453 4.1719-15.453q4.1875-5.6406 11.453-5.6406 7.1875 0 11.375 5.6562 4.2031 5.6719 4.2031 15.438 0 9.7188-4.2031 15.406-4.1875 5.6875-11.375 5.6875zm0 7.6094q11.719 0 18.406-7.625 6.7031-7.6094 6.7031-21.078 0-13.422-6.7031-21.078-6.6875-7.6406-18.406-7.6406-11.766 0-18.438 7.6406-6.6562 7.6562-6.6562 21.078 0 13.469 6.6562 21.078 6.6719 7.625 18.438 7.625z"/>
<path id="aa" d="m4.2031 54.688h8.9844l11.234-42.672 11.172 42.672h10.594l11.234-42.672 11.188 42.672h8.9844l-14.312-54.688h-10.594l-11.766 44.828-11.812-44.828h-10.609z"/>
<path id="aj" d="m45.406 27.984q0 9.7656-4.0312 15.125-4.0156 5.375-11.297 5.375-7.2188 0-11.25-5.375-4.0312-5.3594-4.0312-15.125 0-9.7188 4.0312-15.094t11.25-5.375q7.2812 0 11.297 5.375 4.0312 5.375 4.0312 15.094zm8.9844-21.203q0-13.953-6.2031-20.766-6.1875-6.8125-18.984-6.8125-4.7344 0-8.9375 0.70312t-8.1562 2.1719v8.7344q3.9531-2.1406 7.8125-3.1562 3.8594-1.0312 7.8594-1.0312 8.8438 0 13.234 4.6094t4.3906 13.938v4.4531q-2.7812-4.8438-7.125-7.2344t-10.406-2.3906q-10.047 0-16.203 7.6562-6.1562 7.6719-6.1562 20.328 0 12.688 6.1562 20.344 6.1562 7.6719 16.203 7.6719 6.0625 0 10.406-2.3906t7.125-7.2188v8.2969h8.9844z"/>
</defs>
<g transform="translate(59.48 918.21) scale(.1 -.1)">
<use xlink:href="#ab"/>
<use x="57.472656" xlink:href="#u"/>
<use x="118.654297" xlink:href="#j"/>
<use x="146.4375" xlink:href="#j"/>
<use x="174.220703" xlink:href="#u"/>
<use x="235.402344" xlink:href="#aa"/>
<use x="317.189453" xlink:href="#i"/>
<use x="344.972656" xlink:href="#g"/>
<use x="408.351562" xlink:href="#aj"/>
</g>
</g>
<g clip-path="url(#a)">
<defs>
<path id="q" d="m18.312 70.219v-15.531h18.5v-6.9844h-18.5v-29.688q0-6.6875 1.8281-8.5938t7.4531-1.9062h9.2188v-7.5156h-9.2188q-10.406 0-14.359 3.875-3.9531 3.8906-3.9531 14.141v29.688h-6.5938v6.9844h6.5938v15.531z"/>
<path id="s" d="m54.891 33.016v-33.016h-8.9844v32.719q0 7.7656-3.0312 11.609-3.0312 3.8594-9.0781 3.8594-7.2812 0-11.484-4.6406-4.2031-4.625-4.2031-12.641v-30.906h-9.0312v75.984h9.0312v-29.797q3.2344 4.9375 7.5938 7.375 4.375 2.4375 10.094 2.4375 9.4219 0 14.25-5.8281 4.8438-5.8281 4.8438-17.156z"/>
</defs>
<g transform="translate(122.23 918.21) scale(.1 -.1)">
<use xlink:href="#q"/>
<use x="39.208984" xlink:href="#s"/>
<use x="102.587891" xlink:href="#d"/>
</g>
</g>
<g clip-path="url(#a)">
<defs>
<path id="z" d="m48.688 27.297q0 9.9062-4.0781 15.547t-11.203 5.6406q-7.1406 0-11.219-5.6406t-4.0781-15.547 4.0781-15.547 11.219-5.6406q7.125 0 11.203 5.6406t4.0781 15.547zm-30.578 19.094q2.8438 4.875 7.1562 7.2344 4.3281 2.375 10.328 2.375 9.9688 0 16.188-7.9062 6.2344-7.9062 6.2344-20.797t-6.2344-20.812q-6.2188-7.9062-16.188-7.9062-6 0-10.328 2.375-4.3125 2.375-7.1562 7.25v-8.2031h-9.0312v75.984h9.0312z"/>
</defs>
<g transform="translate(166.06 918.21) scale(.1 -.1)">
<use xlink:href="#z"/>
<use x="63.476562" xlink:href="#i"/>
<use x="91.259766" xlink:href="#f"/>
<use x="132.373047" xlink:href="#q"/>
<use x="171.582031" xlink:href="#s"/>
</g>
</g>
<g clip-path="url(#a)">
<defs>
<path id="ar" d="m37.109 75.984v-7.4844h-8.5938q-4.8281 0-6.7188-1.9531-1.875-1.9531-1.875-7.0312v-4.8281h14.797v-6.9844h-14.797v-47.703h-9.0312v47.703h-8.5938v6.9844h8.5938v3.8125q0 9.125 4.25 13.297 4.25 4.1875 13.469 4.1875z"/>
</defs>
<g transform="translate(220.35 918.21) scale(.1 -.1)">
<use xlink:href="#u"/>
<use x="61.181641" xlink:href="#ar"/>
</g>
</g>
<g clip-path="url(#a)">
<g transform="translate(260.89 918.21) scale(.1 -.1)">
<use xlink:href="#q"/>
<use x="39.208984" xlink:href="#s"/>
<use x="102.587891" xlink:href="#d"/>
<use x="164.111328" xlink:href="#i"/>
<use x="191.894531" xlink:href="#f"/>
</g>
</g>
<g clip-path="url(#a)">
<defs>
<path id="an" d="m48.781 52.594v-8.4062q-3.8125 2.1094-7.6406 3.1562t-7.7344 1.0469q-8.75 0-13.594-5.5469-4.8281-5.5312-4.8281-15.547t4.8281-15.562q4.8438-5.5312 13.594-5.5312 3.9062 0 7.7344 1.0469t7.6406 3.1562v-8.3125q-3.7656-1.75-7.7969-2.625-4.0156-0.89062-8.5625-0.89062-12.359 0-19.641 7.7656-7.2656 7.7656-7.2656 20.953 0 13.375 7.3438 21.031 7.3594 7.6719 20.156 7.6719 4.1406 0 8.0938-0.85938 3.9531-0.84375 7.6719-2.5469z"/>
<path id="v" d="m45.406 46.391v29.594h8.9844v-75.984h-8.9844v8.2031q-2.8281-4.875-7.1562-7.25-4.3125-2.375-10.375-2.375-9.9062 0-16.141 7.9062-6.2188 7.9219-6.2188 20.812t6.2188 20.797q6.2344 7.9062 16.141 7.9062 6.0625 0 10.375-2.375 4.3281-2.3594 7.1562-7.2344zm-30.609-19.094q0-9.9062 4.0781-15.547t11.203-5.6406 11.219 5.6406q4.1094 5.6406 4.1094 15.547t-4.1094 15.547q-4.0938 5.6406-11.219 5.6406t-11.203-5.6406-4.0781-15.547z"/>
</defs>
<g transform="translate(299.74 918.21) scale(.1 -.1)">
<use xlink:href="#an"/>
<use x="54.980469" xlink:href="#s"/>
<use x="118.359375" xlink:href="#i"/>
<use x="146.142578" xlink:href="#j"/>
<use x="173.925781" xlink:href="#v"/>
<use x="237.402344" xlink:href="#f"/>
<use x="278.484375" xlink:href="#d"/>
<use x="340.007812" xlink:href="#g"/>
</g>
</g>
<g clip-path="url(#a)">
<defs>
<path id="au" d="m11.719 12.406h10.297v-8.4062l-8-15.625h-6.2969l4 15.625z"/>
</defs>
<g transform="translate(365.69 918.21) scale(.1 -.1)">
<use xlink:href="#au"/>
</g>
</g>
<g clip-path="url(#a)">
<g transform="translate(395.52 918.21) scale(.1 -.1)">
<use xlink:href="#t"/>
<use x="69.824219" xlink:href="#h"/>
<use x="131.103516" xlink:href="#g"/>
<use x="194.482422" xlink:href="#g"/>
<use x="257.861328" xlink:href="#u"/>
<use x="319.042969" xlink:href="#g"/>
</g>
</g>
<g clip-path="url(#a)">
<defs>
<path id="aq" d="m2.9844 54.688h9.5156l17.094-45.891 17.094 45.891h9.5156l-20.516-54.688h-12.203z"/>
</defs>
<g transform="translate(440.14 918.21) scale(.1 -.1)">
<use xlink:href="#f"/>
<use x="41.082031" xlink:href="#d"/>
<use x="102.605469" xlink:href="#aq"/>
<use x="161.785156" xlink:href="#d"/>
<use x="223.308594" xlink:href="#h"/>
<use x="284.587891" xlink:href="#j"/>
<use x="312.371094" xlink:href="#d"/>
<use x="373.894531" xlink:href="#v"/>
</g>
</g>
<g clip-path="url(#a)">
<defs>
<path id="am" d="m8.5 21.578v33.109h8.9844v-32.766q0-7.7656 3.0156-11.656 3.0312-3.875 9.0938-3.875 7.2656 0 11.484 4.6406 4.2344 4.6406 4.2344 12.656v31h8.9844v-54.688h-8.9844v8.4062q-3.2656-4.9844-7.5938-7.4062-4.3125-2.4219-10.031-2.4219-9.4219 0-14.312 5.8594-4.875 5.8594-4.875 17.141z"/>
</defs>
<g transform="translate(493.25 918.21) scale(.1 -.1)">
<use xlink:href="#v"/>
<use x="63.476562" xlink:href="#am"/>
<use x="126.855469" xlink:href="#f"/>
<use x="167.96875" xlink:href="#i"/>
<use x="195.751953" xlink:href="#g"/>
<use x="259.130859" xlink:href="#aj"/>
</g>
</g>
<g clip-path="url(#a)">
<g transform="translate(550.51 918.21) scale(.1 -.1)">
<use xlink:href="#h"/>
<use x="61.279297" xlink:href="#g"/>
</g>
</g>
<g clip-path="url(#a)">
<g transform="translate(580.95 918.21) scale(.1 -.1)">
<use xlink:href="#i"/>
<use x="27.783203" xlink:href="#g"/>
<use x="91.162109" xlink:href="#q"/>
<use x="130.371094" xlink:href="#d"/>
<use x="191.894531" xlink:href="#f"/>
<use x="233.007812" xlink:href="#aq"/>
<use x="292.1875" xlink:href="#i"/>
<use x="319.970703" xlink:href="#d"/>
<use x="381.494141" xlink:href="#aa"/>
</g>
</g>
<g clip-path="url(#a)">
<g transform="translate(640.87 918.21) scale(.1 -.1)">
<use xlink:href="#aa"/>
<use x="81.787109" xlink:href="#i"/>
<use x="109.570312" xlink:href="#q"/>
<use x="148.779297" xlink:href="#s"/>
</g>
</g>
<g clip-path="url(#a)">
<defs>
<path id="at" d="m19.672 34.812v-26.703h15.828q7.9531 0 11.781 3.2969 3.8438 3.2969 3.8438 10.078 0 6.8438-3.8438 10.078-3.8281 3.25-11.781 3.25zm0 29.984v-21.969h14.609q7.2188 0 10.75 2.7031 3.5469 2.7188 3.5469 8.2812 0 5.5156-3.5469 8.25-3.5312 2.7344-10.75 2.7344zm-9.8594 8.1094h25.203q11.281 0 17.375-4.6875 6.1094-4.6875 6.1094-13.328 0-6.7031-3.125-10.656t-9.1875-4.9219q7.2812-1.5625 11.312-6.5312 4.0312-4.9531 4.0312-12.375 0-9.7656-6.6406-15.094-6.6406-5.3125-18.906-5.3125h-26.172z"/>
</defs>
<g transform="translate(676.72 918.21) scale(.1 -.1)">
<use xlink:href="#at"/>
<use x="68.603516" xlink:href="#i"/>
<use x="96.386719" xlink:href="#j"/>
<use x="124.169922" xlink:href="#j"/>
<use x="151.953125" xlink:href="#z"/>
<use x="215.429688" xlink:href="#u"/>
<use x="276.611328" xlink:href="#h"/>
<use x="337.890625" xlink:href="#f"/>
<use x="378.988281" xlink:href="#v"/>
</g>
</g>
<g clip-path="url(#a)">
<g transform="translate(736.06 918.21) scale(.1 -.1)">
<use xlink:href="#q"/>
<use x="39.208984" xlink:href="#s"/>
<use x="102.587891" xlink:href="#h"/>
<use x="163.867188" xlink:href="#q"/>
</g>
</g>
<g clip-path="url(#a)">
<defs>
<path id="al" d="m32.172-5.0781q-3.7969-9.7656-7.4219-12.734-3.6094-2.9844-9.6562-2.9844h-7.1875v7.5156h5.2812q3.7031 0 5.75 1.7656 2.0625 1.75 4.5469 8.2969l1.6094 4.0938-22.109 53.812h9.5156l17.094-42.766 17.094 42.766h9.5156z"/>
</defs>
<g transform="translate(778.94 918.21) scale(.1 -.1)">
<use xlink:href="#t"/>
<use x="69.824219" xlink:href="#h"/>
<use x="131.103516" xlink:href="#f"/>
<use x="172.185547" xlink:href="#d"/>
<use x="233.708984" xlink:href="#al"/>
</g>
</g>
<g clip-path="url(#a)">
<g transform="translate(831.54 918.21) scale(.1 -.1)">
<use xlink:href="#s"/>
<use x="63.378906" xlink:href="#h"/>
<use x="124.658203" xlink:href="#v"/>
</g>
</g>
<g clip-path="url(#a)">
<g transform="translate(869.54 918.21) scale(.1 -.1)">
<use xlink:href="#h"/>
<use x="61.279297" xlink:href="#j"/>
<use x="89.0625" xlink:href="#f"/>
<use x="130.144531" xlink:href="#d"/>
<use x="191.667969" xlink:href="#h"/>
<use x="252.947266" xlink:href="#v"/>
<use x="316.423828" xlink:href="#al"/>
</g>
</g>
<g clip-path="url(#a)">
<g transform="translate(919.92 918.21) scale(.1 -.1)">
<use xlink:href="#z"/>
<use x="63.476562" xlink:href="#d"/>
<use x="125" xlink:href="#aj"/>
<use x="188.476562" xlink:href="#am"/>
<use x="251.855469" xlink:href="#g"/>
</g>
</g>
<g clip-path="url(#a)">
<defs>
<path id="ax" d="m9.0781 75.984h9.0312v-44.875l26.812 23.578h11.469l-29-25.578 30.234-29.109h-11.719l-27.797 26.703v-26.703h-9.0312z"/>
</defs>
<g transform="translate(963.22 918.21) scale(.1 -.1)">
<use xlink:href="#aa"/>
<use x="81.787109" xlink:href="#u"/>
<use x="142.96875" xlink:href="#f"/>
<use x="184.082031" xlink:href="#ax"/>
<use x="241.992188" xlink:href="#i"/>
<use x="269.775391" xlink:href="#g"/>
<use x="333.154297" xlink:href="#aj"/>
</g>
</g>
<g clip-path="url(#a)">
<g transform="translate(1024.2 918.21) scale(.1 -.1)">
<use xlink:href="#u"/>
<use x="61.181641" xlink:href="#g"/>
</g>
</g>
<g clip-path="url(#a)">
<g transform="translate(1074.7 918.21) scale(.1 -.1)">
<use xlink:href="#h"/>
</g>
</g>
<g clip-path="url(#a)">
<g transform="translate(1114.8 918.21) scale(.1 -.1)">
<use xlink:href="#g"/>
<use x="63.378906" xlink:href="#d"/>
<use x="124.902344" xlink:href="#aa"/>
</g>
</g>
<g clip-path="url(#a)">
<g transform="translate(1156.4 918.21) scale(.1 -.1)">
<use xlink:href="#f"/>
<use x="41.082031" xlink:href="#d"/>
<use x="102.605469" xlink:href="#an"/>
<use x="157.585938" xlink:href="#u"/>
<use x="218.767578" xlink:href="#f"/>
<use x="259.865234" xlink:href="#v"/>
</g>
</g>
<g clip-path="url(#a)">
<g transform="translate(1210.5 918.21) scale(.1 -.1)">
<use xlink:href="#h"/>
<use x="61.279297" xlink:href="#g"/>
<use x="124.658203" xlink:href="#v"/>
</g>
</g>
<g clip-path="url(#a)">
<g transform="translate(1257.1 918.21) scale(.1 -.1)">
<use xlink:href="#q"/>
<use x="39.208984" xlink:href="#s"/>
<use x="102.587891" xlink:href="#h"/>
<use x="163.867188" xlink:href="#q"/>
</g>
</g>
<g clip-path="url(#a)">
<defs>
<path id="ag" d="m44.281 53.078v-8.5q-3.7969 1.9531-7.9062 2.9219-4.0938 0.98438-8.5 0.98438-6.6875 0-10.031-2.0469t-3.3438-6.1562q0-3.125 2.3906-4.9062t9.625-3.3906l3.0781-0.6875q9.5625-2.0469 13.594-5.7812t4.0312-10.422q0-7.625-6.0312-12.078-6.0312-4.4375-16.578-4.4375-4.3906 0-9.1562 0.85938t-10.031 2.5625v9.2812q4.9844-2.5938 9.8125-3.8906 4.8281-1.2812 9.5781-1.2812 6.3438 0 9.75 2.1719 3.4219 2.1719 3.4219 6.125 0 3.6562-2.4688 5.6094-2.4531 1.9531-10.812 3.7656l-3.125 0.73438q-8.3438 1.75-12.062 5.3906-3.7031 3.6406-3.7031 9.9844 0 7.7188 5.4688 11.906 5.4688 4.2031 15.531 4.2031 4.9688 0 9.3594-0.73438 4.4062-0.71875 8.1094-2.1875z"/>
</defs>
<g transform="translate(1305.8 918.21) scale(.1 -.1)">
<use xlink:href="#ag"/>
<use x="52.099609" xlink:href="#s"/>
<use x="115.478516" xlink:href="#d"/>
</g>
</g>
<g clip-path="url(#a)">
<defs>
<path id="av" d="m17.922 72.906v-27.109h-8.2969v27.109z"/>
</defs>
<g transform="translate(1358 918.21) scale(.1 -.1)">
<use xlink:href="#av"/>
<use x="27.490234" xlink:href="#ag"/>
</g>
</g>
<g clip-path="url(#a)">
<g transform="translate(1396.9 918.21) scale(.1 -.1)">
<use xlink:href="#z"/>
<use x="63.476562" xlink:href="#d"/>
<use x="125" xlink:href="#d"/>
<use x="186.523438" xlink:href="#g"/>
</g>
</g>
<g clip-path="url(#a)">
<defs>
<path id="aw" d="m18.109 8.2031v-29h-9.0312v75.484h9.0312v-8.2969q2.8438 4.875 7.1562 7.2344 4.3281 2.375 10.328 2.375 9.9688 0 16.188-7.9062 6.2344-7.9062 6.2344-20.797t-6.2344-20.812q-6.2188-7.9062-16.188-7.9062-6 0-10.328 2.375-4.3125 2.375-7.1562 7.25zm30.578 19.094q0 9.9062-4.0781 15.547t-11.203 5.6406q-7.1406 0-11.219-5.6406t-4.0781-15.547 4.0781-15.547 11.219-5.6406q7.125 0 11.203 5.6406t4.0781 15.547z"/>
</defs>
<g transform="translate(1436.7 918.21) scale(.1 -.1)">
<use xlink:href="#i"/>
<use x="27.783203" xlink:href="#g"/>
<use x="91.162109" xlink:href="#ag"/>
<use x="143.261719" xlink:href="#aw"/>
<use x="206.738281" xlink:href="#i"/>
<use x="234.521484" xlink:href="#f"/>
<use x="275.603516" xlink:href="#d"/>
<use x="337.126953" xlink:href="#v"/>
</g>
</g>
<g clip-path="url(#a)">
<g transform="translate(1498 918.21) scale(.1 -.1)">
<use xlink:href="#z"/>
<use x="63.476562" xlink:href="#al"/>
</g>
</g>
<g clip-path="url(#a)">
<g transform="translate(1543.2 918.21) scale(.1 -.1)">
<use xlink:href="#s"/>
<use x="63.378906" xlink:href="#d"/>
<use x="124.902344" xlink:href="#f"/>
</g>
</g>
<g clip-path="url(#a)">
<g transform="translate(1589.1 918.21) scale(.1 -.1)">
<use xlink:href="#ar"/>
<use x="35.205078" xlink:href="#i"/>
<use x="62.988281" xlink:href="#f"/>
<use x="104.101562" xlink:href="#ag"/>
<use x="156.201172" xlink:href="#q"/>
</g>
</g>
<g clip-path="url(#a)">
<g transform="translate(1637.1 918.21) scale(.1 -.1)">
<use xlink:href="#q"/>
<use x="39.208984" xlink:href="#aa"/>
<use x="120.996094" xlink:href="#u"/>
</g>
</g>
<g clip-path="url(#a)">
<g transform="translate(1675.3 918.21) scale(.1 -.1)">
<use xlink:href="#h"/>
<use x="61.279297" xlink:href="#j"/>
<use x="89.0625" xlink:href="#z"/>
<use x="152.539062" xlink:href="#am"/>
<use x="215.917969" xlink:href="#k"/>
<use x="313.330078" xlink:href="#ag"/>
</g>
</g>
<g clip-path="url(#a)">
<defs>
<path id="e" d="m10.688 12.406h10.312v-12.406h-10.312z"/>
</defs>
<g transform="translate(1739.3 918.21) scale(.1 -.1)">
<use xlink:href="#e"/>
</g>
</g>
<g clip-path="url(#a)">
<defs>
<path id="c" d="m12.406 8.2969h16.109v55.625l-17.531-3.5156v8.9844l17.438 3.5156h9.8594v-64.609h16.109v-8.2969h-41.984z"/>
</defs>
<g transform="translate(328.77 47.31) scale(.1 -.1)">
<use xlink:href="#c"/>
<use x="63.623047" xlink:href="#e"/>
<use x="95.410156" xlink:href="#c"/>
</g>
</g>
<g clip-path="url(#a)">
<defs>
<path id="n" d="m19.188 8.2969h34.422v-8.2969h-46.281v8.2969q5.6094 5.8125 15.297 15.594 9.7031 9.7969 12.188 12.641 4.7344 5.3125 6.6094 9 1.8906 3.6875 1.8906 7.25 0 5.8125-4.0781 9.4688-4.0781 3.6719-10.625 3.6719-4.6406 0-9.7969-1.6094-5.1406-1.6094-11-4.8906v9.9688q5.9531 2.3906 11.125 3.6094 5.1875 1.2188 9.4844 1.2188 11.328 0 18.062-5.6719 6.7344-5.6562 6.7344-15.125 0-4.5-1.6875-8.5312-1.6719-4.0156-6.125-9.4844-1.2188-1.4219-7.7656-8.1875-6.5312-6.7656-18.453-18.922z"/>
</defs>
<g transform="translate(75.119 777.47) scale(.1 -.1)">
<use xlink:href="#c"/>
<use x="63.623047" xlink:href="#e"/>
<use x="95.410156" xlink:href="#n"/>
</g>
</g>
<g clip-path="url(#a)">
<defs>
<path id="m" d="m40.578 39.312q7.0781-1.5156 11.047-6.3125 3.9844-4.7812 3.9844-11.812 0-10.781-7.4219-16.703-7.4219-5.9062-21.094-5.9062-4.5781 0-9.4375 0.90625t-10.031 2.7188v9.5156q4.0938-2.3906 8.9688-3.6094 4.8906-1.2188 10.219-1.2188 9.2656 0 14.125 3.6562t4.8594 10.641q0 6.4531-4.5156 10.078-4.5156 3.6406-12.562 3.6406h-8.5v8.1094h8.8906q7.2656 0 11.125 2.9062t3.8594 8.375q0 5.6094-3.9844 8.6094-3.9688 3.0156-11.391 3.0156-4.0625 0-8.7031-0.89062-4.6406-0.875-10.203-2.7188v8.7812q5.625 1.5625 10.531 2.3438t9.25 0.78125q11.234 0 17.766-5.1094 6.5469-5.0938 6.5469-13.781 0-6.0625-3.4688-10.234t-9.8594-5.7812z"/>
</defs>
<g transform="translate(229.06 494.05) scale(.1 -.1)">
<use xlink:href="#c"/>
<use x="63.623047" xlink:href="#e"/>
<use x="95.410156" xlink:href="#m"/>
</g>
</g>
<g clip-path="url(#a)">
<defs>
<path id="o" d="m37.797 64.312-24.906-38.922h24.906zm-2.5938 8.5938h12.406v-47.516h10.406v-8.2031h-10.406v-17.188h-9.8125v17.188h-32.906v9.5156z"/>
</defs>
<g transform="translate(651.59 199.85) scale(.1 -.1)">
<use xlink:href="#c"/>
<use x="63.623047" xlink:href="#e"/>
<use x="95.410156" xlink:href="#o"/>
</g>
</g>
<g clip-path="url(#a)">
<defs>
<path id="ae" d="m8.2031 72.906h46.875v-4.2031l-26.469-68.703h-10.297l24.906 64.594h-35.016z"/>
</defs>
<g transform="translate(406.69 777.47) scale(.1 -.1)">
<use xlink:href="#c"/>
<use x="63.623047" xlink:href="#e"/>
<use x="95.410156" xlink:href="#ae"/>
</g>
</g>
<g clip-path="url(#a)">
<defs>
<path id="ad" d="m31.781 34.625q-7.0312 0-11.062-3.7656-4.0156-3.7656-4.0156-10.344 0-6.5938 4.0156-10.359 4.0312-3.7656 11.062-3.7656t11.078 3.7812q4.0625 3.7969 4.0625 10.344 0 6.5781-4.0312 10.344-4.0156 3.7656-11.109 3.7656zm-9.8594 4.1875q-6.3438 1.5625-9.8906 5.9062-3.5312 4.3594-3.5312 10.609 0 8.7344 6.2188 13.812 6.2344 5.0781 17.062 5.0781 10.891 0 17.094-5.0781t6.2031-13.812q0-6.25-3.5469-10.609-3.5312-4.3438-9.8281-5.9062 7.125-1.6562 11.094-6.5 3.9844-4.8281 3.9844-11.797 0-10.609-6.4688-16.281-6.4688-5.6562-18.531-5.6562-12.047 0-18.531 5.6562-6.4688 5.6719-6.4688 16.281 0 6.9688 4 11.797 4.0156 4.8438 11.141 6.5zm-3.6094 15.578q0-5.6562 3.5312-8.8281 3.5469-3.1719 9.9375-3.1719 6.3594 0 9.9375 3.1719 3.5938 3.1719 3.5938 8.8281 0 5.6719-3.5938 8.8438-3.5781 3.1719-9.9375 3.1719-6.3906 0-9.9375-3.1719-3.5312-3.1719-3.5312-8.8438z"/>
</defs>
<g transform="translate(454.06 777.47) scale(.1 -.1)">
<use xlink:href="#c"/>
<use x="63.623047" xlink:href="#e"/>
<use x="95.410156" xlink:href="#ad"/>
</g>
</g>
<g clip-path="url(#a)">
<defs>
<path id="ac" d="m10.984 1.5156v8.9844q3.7188-1.7656 7.5156-2.6875 3.8125-0.92188 7.4844-0.92188 9.7656 0 14.906 6.5625 5.1562 6.5625 5.8906 19.953-2.8281-4.2031-7.1875-6.4531-4.3438-2.25-9.6094-2.25-10.938 0-17.312 6.6094-6.375 6.625-6.375 18.109 0 11.219 6.6406 18 6.6406 6.7969 17.672 6.7969 12.656 0 19.312-9.7031 6.6719-9.6875 6.6719-28.141 0-17.234-8.1875-27.516-8.1719-10.281-21.984-10.281-3.7188 0-7.5312 0.73438-3.7969 0.73438-7.9062 2.2031zm19.625 30.906q6.6406 0 10.516 4.5312 3.8906 4.5469 3.8906 12.469 0 7.8594-3.8906 12.422-3.875 4.5625-10.516 4.5625t-10.516-4.5625-3.875-12.422q0-7.9219 3.875-12.469 3.875-4.5312 10.516-4.5312z"/>
</defs>
<g transform="translate(578.4 494.05) scale(.1 -.1)">
<use xlink:href="#c"/>
<use x="63.623047" xlink:href="#e"/>
<use x="95.410156" xlink:href="#ac"/>
</g>
</g>
<g clip-path="url(#a)">
<defs>
<path id="af" d="m31.781 66.406q-7.6094 0-11.453-7.5-3.8281-7.4844-3.8281-22.531 0-14.984 3.8281-22.484 3.8438-7.5 11.453-7.5 7.6719 0 11.5 7.5 3.8438 7.5 3.8438 22.484 0 15.047-3.8438 22.531-3.8281 7.5-11.5 7.5zm0 7.8125q12.266 0 18.734-9.7031 6.4688-9.6875 6.4688-28.141 0-18.406-6.4688-28.109-6.4688-9.6875-18.734-9.6875-12.25 0-18.719 9.6875-6.4688 9.7031-6.4688 28.109 0 18.453 6.4688 28.141 6.4688 9.7031 18.719 9.7031z"/>
</defs>
<g transform="translate(1164 348.61) scale(.1 -.1)">
<use xlink:href="#c"/>
<use x="63.623047" xlink:href="#e"/>
<use x="95.410156" xlink:href="#c"/>
<use x="159.033203" xlink:href="#af"/>
</g>
</g>
<g clip-path="url(#a)">
<g transform="translate(889.03 494.05) scale(.1 -.1)">
<use xlink:href="#c"/>
<use x="63.623047" xlink:href="#e"/>
<use x="95.410156" xlink:href="#c"/>
<use x="159.033203" xlink:href="#c"/>
</g>
</g>
<g clip-path="url(#a)">
<g transform="translate(1208.8 777.47) scale(.1 -.1)">
<use xlink:href="#c"/>
<use x="63.623047" xlink:href="#e"/>
<use x="95.410156" xlink:href="#c"/>
<use x="159.033203" xlink:href="#n"/>
</g>
</g>
<g clip-path="url(#a)">
<g transform="translate(1394.3 494.05) scale(.1 -.1)">
<use xlink:href="#c"/>
<use x="63.623047" xlink:href="#e"/>
<use x="95.410156" xlink:href="#c"/>
<use x="159.033203" xlink:href="#m"/>
</g>
</g>
<g clip-path="url(#a)">
<g transform="translate(1256.1 777.47) scale(.1 -.1)">
<use xlink:href="#c"/>
<use x="63.623047" xlink:href="#e"/>
<use x="95.410156" xlink:href="#c"/>
<use x="159.033203" xlink:href="#o"/>
</g>
</g>
<g clip-path="url(#a)">
<defs>
<path id="x" d="m10.797 72.906h38.719v-8.3125h-29.688v-17.859q2.1406 0.73438 4.2812 1.0938 2.1562 0.35938 4.3125 0.35938 12.203 0 19.328-6.6875 7.1406-6.6875 7.1406-18.109 0-11.766-7.3281-18.297-7.3281-6.5156-20.656-6.5156-4.5938 0-9.3594 0.78125-4.75 0.78125-9.8281 2.3438v9.9219q4.3906-2.3906 9.0781-3.5625t9.9062-1.1719q8.4531 0 13.375 4.4375 4.9375 4.4375 4.9375 12.062 0 7.6094-4.9375 12.047-4.9219 4.4531-13.375 4.4531-3.9531 0-7.8906-0.875-3.9219-0.875-8.0156-2.7344z"/>
</defs>
<g transform="translate(1303.5 777.47) scale(.1 -.1)">
<use xlink:href="#c"/>
<use x="63.623047" xlink:href="#e"/>
<use x="95.410156" xlink:href="#c"/>
<use x="159.033203" xlink:href="#x"/>
</g>
</g>
<g clip-path="url(#a)">
<defs>
<path id="ai" d="m33.016 40.375q-6.6406 0-10.531-4.5469-3.875-4.5312-3.875-12.438 0-7.8594 3.875-12.438 3.8906-4.5625 10.531-4.5625t10.516 4.5625q3.875 4.5781 3.875 12.438 0 7.9062-3.875 12.438-3.875 4.5469-10.516 4.5469zm19.578 30.922v-8.9844q-3.7188 1.75-7.5 2.6719-3.7812 0.9375-7.5 0.9375-9.7656 0-14.922-6.5938-5.1406-6.5938-5.875-19.922 2.875 4.25 7.2188 6.5156 4.3594 2.2656 9.5781 2.2656 10.984 0 17.359-6.6719 6.375-6.6562 6.375-18.125 0-11.234-6.6406-18.031-6.6406-6.7812-17.672-6.7812-12.656 0-19.344 9.6875-6.6875 9.7031-6.6875 28.109 0 17.281 8.2031 27.562t22.016 10.281q3.7188 0 7.5-0.73438t7.8906-2.1875z"/>
</defs>
<g transform="translate(1350.9 777.47) scale(.1 -.1)">
<use xlink:href="#c"/>
<use x="63.623047" xlink:href="#e"/>
<use x="95.410156" xlink:href="#c"/>
<use x="159.033203" xlink:href="#ai"/>
</g>
</g>
<g clip-path="url(#a)">
<g transform="translate(1398.2 777.47) scale(.1 -.1)">
<use xlink:href="#c"/>
<use x="63.623047" xlink:href="#e"/>
<use x="95.410156" xlink:href="#c"/>
<use x="159.033203" xlink:href="#ae"/>
</g>
</g>
<g clip-path="url(#a)">
<g transform="translate(1445.6 777.47) scale(.1 -.1)">
<use xlink:href="#c"/>
<use x="63.623047" xlink:href="#e"/>
<use x="95.410156" xlink:href="#c"/>
<use x="159.033203" xlink:href="#ad"/>
</g>
</g>
<g clip-path="url(#a)">
<g transform="translate(1611.4 636.74) scale(.1 -.1)">
<use xlink:href="#c"/>
<use x="63.623047" xlink:href="#e"/>
<use x="95.410156" xlink:href="#c"/>
<use x="159.033203" xlink:href="#ac"/>
</g>
</g>
<g clip-path="url(#a)">
<g transform="translate(1493 777.47) scale(.1 -.1)">
<use xlink:href="#c"/>
<use x="63.623047" xlink:href="#e"/>
<use x="95.410156" xlink:href="#n"/>
<use x="159.033203" xlink:href="#af"/>
</g>
</g>
<g clip-path="url(#a)">
<g transform="translate(1540.3 777.47) scale(.1 -.1)">
<use xlink:href="#c"/>
<use x="63.623047" xlink:href="#e"/>
<use x="95.410156" xlink:href="#n"/>
<use x="159.033203" xlink:href="#c"/>
</g>
</g>
<g clip-path="url(#a)">
<g transform="translate(1587.7 777.47) scale(.1 -.1)">
<use xlink:href="#c"/>
<use x="63.623047" xlink:href="#e"/>
<use x="95.410156" xlink:href="#n"/>
<use x="159.033203" xlink:href="#n"/>
</g>
</g>
<g clip-path="url(#a)">
<g transform="translate(1635.1 777.47) scale(.1 -.1)">
<use xlink:href="#c"/>
<use x="63.623047" xlink:href="#e"/>
<use x="95.410156" xlink:href="#n"/>
<use x="159.033203" xlink:href="#m"/>
</g>
</g>
<g clip-path="url(#a)">
<g transform="translate(1682.4 777.47) scale(.1 -.1)">
<use xlink:href="#c"/>
<use x="63.623047" xlink:href="#e"/>
<use x="95.410156" xlink:href="#n"/>
<use x="159.033203" xlink:href="#o"/>
</g>
</g>
<g clip-path="url(#a)">
<g transform="translate(735.08 777.47) scale(.1 -.1)">
<use xlink:href="#c"/>
<use x="63.623047" xlink:href="#e"/>
<use x="95.410156" xlink:href="#n"/>
<use x="159.033203" xlink:href="#x"/>
</g>
</g>
<g clip-path="url(#a)">
<g transform="translate(782.45 777.47) scale(.1 -.1)">
<use xlink:href="#c"/>
<use x="63.623047" xlink:href="#e"/>
<use x="95.410156" xlink:href="#n"/>
<use x="159.033203" xlink:href="#ai"/>
</g>
</g>
<g clip-path="url(#a)">
<g transform="translate(877.18 636.74) scale(.1 -.1)">
<use xlink:href="#c"/>
<use x="63.623047" xlink:href="#e"/>
<use x="95.410156" xlink:href="#n"/>
<use x="159.033203" xlink:href="#ae"/>
</g>
</g>
<g clip-path="url(#a)">
<g transform="translate(877.18 777.47) scale(.1 -.1)">
<use xlink:href="#c"/>
<use x="63.623047" xlink:href="#e"/>
<use x="95.410156" xlink:href="#n"/>
<use x="159.033203" xlink:href="#ad"/>
</g>
</g>
<g clip-path="url(#a)">
<g transform="translate(971.92 777.47) scale(.1 -.1)">
<use xlink:href="#c"/>
<use x="63.623047" xlink:href="#e"/>
<use x="95.410156" xlink:href="#n"/>
<use x="159.033203" xlink:href="#ac"/>
</g>
</g>
<g clip-path="url(#a)">
<g transform="translate(1090.3 636.74) scale(.1 -.1)">
<use xlink:href="#c"/>
<use x="63.623047" xlink:href="#e"/>
<use x="95.410156" xlink:href="#m"/>
<use x="159.033203" xlink:href="#af"/>
</g>
</g>
<g clip-path="url(#a)">
<g transform="translate(1019.3 777.47) scale(.1 -.1)">
<use xlink:href="#c"/>
<use x="63.623047" xlink:href="#e"/>
<use x="95.410156" xlink:href="#m"/>
<use x="159.033203" xlink:href="#c"/>
</g>
</g>
<g clip-path="url(#a)">
<g transform="translate(1066.7 777.47) scale(.1 -.1)">
<use xlink:href="#c"/>
<use x="63.623047" xlink:href="#e"/>
<use x="95.410156" xlink:href="#m"/>
<use x="159.033203" xlink:href="#n"/>
</g>
</g>
<g clip-path="url(#a)">
<g transform="translate(1114 777.47) scale(.1 -.1)">
<use xlink:href="#c"/>
<use x="63.623047" xlink:href="#e"/>
<use x="95.410156" xlink:href="#m"/>
<use x="159.033203" xlink:href="#m"/>
</g>
</g>
<g clip-path="url(#a)">
<g transform="translate(1161.4 777.47) scale(.1 -.1)">
<use xlink:href="#c"/>
<use x="63.623047" xlink:href="#e"/>
<use x="95.410156" xlink:href="#m"/>
<use x="159.033203" xlink:href="#o"/>
</g>
</g>
<g clip-path="url(#a)">
<g transform="translate(829.82 777.47) scale(.1 -.1)">
<use xlink:href="#c"/>
<use x="63.623047" xlink:href="#e"/>
<use x="95.410156" xlink:href="#m"/>
<use x="159.033203" xlink:href="#x"/>
</g>
</g>
<g clip-path="url(#a)">
<g transform="translate(924.55 777.47) scale(.1 -.1)">
<use xlink:href="#c"/>
<use x="63.623047" xlink:href="#e"/>
<use x="95.410156" xlink:href="#m"/>
<use x="159.033203" xlink:href="#ai"/>
</g>
</g>
<g clip-path="url(#a)">
<g transform="translate(498.24 777.47) scale(.1 -.1)">
<use xlink:href="#c"/>
<use x="63.623047" xlink:href="#e"/>
<use x="95.410156" xlink:href="#m"/>
<use x="159.033203" xlink:href="#ae"/>
</g>
</g>
<g clip-path="url(#a)">
<g transform="translate(545.61 777.47) scale(.1 -.1)">
<use xlink:href="#c"/>
<use x="63.623047" xlink:href="#e"/>
<use x="95.410156" xlink:href="#m"/>
<use x="159.033203" xlink:href="#ad"/>
</g>
</g>
<g clip-path="url(#a)">
<g transform="translate(592.98 777.47) scale(.1 -.1)">
<use xlink:href="#c"/>
<use x="63.623047" xlink:href="#e"/>
<use x="95.410156" xlink:href="#m"/>
<use x="159.033203" xlink:href="#ac"/>
</g>
</g>
<g clip-path="url(#a)">
<g transform="translate(664.03 636.74) scale(.1 -.1)">
<use xlink:href="#c"/>
<use x="63.623047" xlink:href="#e"/>
<use x="95.410156" xlink:href="#o"/>
<use x="159.033203" xlink:href="#af"/>
</g>
</g>
<g clip-path="url(#a)">
<g transform="translate(640.35 777.47) scale(.1 -.1)">
<use xlink:href="#c"/>
<use x="63.623047" xlink:href="#e"/>
<use x="95.410156" xlink:href="#o"/>
<use x="159.033203" xlink:href="#c"/>
</g>
</g>
<g clip-path="url(#a)">
<g transform="translate(687.71 777.47) scale(.1 -.1)">
<use xlink:href="#c"/>
<use x="63.623047" xlink:href="#e"/>
<use x="95.410156" xlink:href="#o"/>
<use x="159.033203" xlink:href="#n"/>
</g>
</g>
<g clip-path="url(#a)">
<g transform="translate(166.67 636.74) scale(.1 -.1)">
<use xlink:href="#c"/>
<use x="63.623047" xlink:href="#e"/>
<use x="95.410156" xlink:href="#o"/>
<use x="159.033203" xlink:href="#m"/>
</g>
</g>
<g clip-path="url(#a)">
<g transform="translate(285.09 636.74) scale(.1 -.1)">
<use xlink:href="#c"/>
<use x="63.623047" xlink:href="#e"/>
<use x="95.410156" xlink:href="#o"/>
<use x="159.033203" xlink:href="#o"/>
</g>
</g>
<g clip-path="url(#a)">
<g transform="translate(261.41 777.47) scale(.1 -.1)">
<use xlink:href="#c"/>
<use x="63.623047" xlink:href="#e"/>
<use x="95.410156" xlink:href="#o"/>
<use x="159.033203" xlink:href="#x"/>
</g>
</g>
<g clip-path="url(#a)">
<g transform="translate(308.78 777.47) scale(.1 -.1)">
<use xlink:href="#c"/>
<use x="63.623047" xlink:href="#e"/>
<use x="95.410156" xlink:href="#o"/>
<use x="159.033203" xlink:href="#ai"/>
</g>
</g>
<g clip-path="url(#a)">
<g transform="translate(119.31 777.47) scale(.1 -.1)">
<use xlink:href="#c"/>
<use x="63.623047" xlink:href="#e"/>
<use x="95.410156" xlink:href="#o"/>
<use x="159.033203" xlink:href="#ae"/>
</g>
</g>
<g clip-path="url(#a)">
<g transform="translate(166.67 777.47) scale(.1 -.1)">
<use xlink:href="#c"/>
<use x="63.623047" xlink:href="#e"/>
<use x="95.410156" xlink:href="#o"/>
<use x="159.033203" xlink:href="#ad"/>
</g>
</g>
<g clip-path="url(#a)">
<g transform="translate(214.04 777.47) scale(.1 -.1)">
<use xlink:href="#c"/>
<use x="63.623047" xlink:href="#e"/>
<use x="95.410156" xlink:href="#o"/>
<use x="159.033203" xlink:href="#ac"/>
</g>
</g>
<g clip-path="url(#a)">
<g transform="translate(1164 348.61) scale(.1 -.1)">
<use xlink:href="#c"/>
<use x="63.623047" xlink:href="#e"/>
<use x="95.410156" xlink:href="#x"/>
<use x="159.033203" xlink:href="#af"/>
</g>
</g>
<g clip-path="url(#a)">
<g transform="translate(315.41 47.31) scale(.1 -.1)">
<use xlink:href="#c"/>
<use x="63.623047" xlink:href="#e"/>
<use x="95.410156" xlink:href="#x"/>
<use x="159.033203" xlink:href="#c"/>
</g>
</g>
<g clip-path="url(#a)">
<g transform="translate(356.14 777.47) scale(.1 -.1)">
<use xlink:href="#c"/>
<use x="63.623047" xlink:href="#e"/>
<use x="95.410156" xlink:href="#x"/>
<use x="159.033203" xlink:href="#n"/>
</g>
</g>
<g clip-path="url(#a)">
<g transform="translate(1729.8 777.47) scale(.1 -.1)">
<use xlink:href="#c"/>
<use x="63.623047" xlink:href="#e"/>
<use x="95.410156" xlink:href="#x"/>
<use x="159.033203" xlink:href="#m"/>
</g>
</g>
<defs>
<clipPath id="a">
<rect width="1824" height="960"/>
</clipPath>
</defs>
</svg>
