<?xml version="1.0" encoding="UTF-8"?>
<!DOCTYPE svg  PUBLIC '-//W3C//DTD SVG 1.1//EN'  'http://www.w3.org/Graphics/SVG/1.1/DTD/svg11.dtd'>
<svg width="861.33pt" height="453.33pt" version="1.1" viewBox="0 0 861.33 453.33" xmlns="http://www.w3.org/2000/svg" xmlns:xlink="http://www.w3.org/1999/xlink">
<defs>
<style type="text/css">*{stroke-linecap:butt;stroke-linejoin:round;}</style>
</defs>
<path d="m0 453.33h861.33v-453.33h-861.33z" fill="#fff"/>
<g fill="none" stroke="#000">
<path d="m269.31 21.711v84.883" clip-path="url(#a)"/>
<path d="m269.31 106.59-229.81 244.72" clip-path="url(#a)"/>
<path d="m269.31 106.59-180.91 244.72" clip-path="url(#a)"/>
<path d="m269.31 106.59-132.02 244.72" clip-path="url(#a)"/>
<path d="m269.31 106.59 112.46 82.992" clip-path="url(#a)"/>
<path d="m269.31 106.59 430.28 82.992" clip-path="url(#a)"/>
<path d="m39.505 351.32v80.307" clip-path="url(#a)"/>
<path d="m88.401 351.32v80.307" clip-path="url(#a)"/>
<path d="m137.3 351.32v80.307" clip-path="url(#a)"/>
<path d="m381.77 189.59-146.69 81.424" clip-path="url(#a)"/>
<path d="m381.77 189.59 48.895 81.424" clip-path="url(#a)"/>
<path d="m381.77 189.59 146.69 161.73" clip-path="url(#a)"/>
<path d="m381.77 189.59-48.895 161.73" clip-path="url(#a)"/>
<path d="m699.59 189.59-122.24 161.73" clip-path="url(#a)"/>
<path d="m699.59 189.59v81.424" clip-path="url(#a)"/>
<path d="m699.59 189.59 122.24 161.73" clip-path="url(#a)"/>
<path d="m577.35 351.32v80.307" clip-path="url(#a)"/>
<path d="m699.59 271.01-73.343 160.61" clip-path="url(#a)"/>
<path d="m699.59 271.01-24.448 160.61" clip-path="url(#a)"/>
<path d="m699.59 271.01 73.343 160.61" clip-path="url(#a)"/>
<path d="m699.59 271.01 24.448 80.307" clip-path="url(#a)"/>
<path d="m235.09 271.01-48.895 160.61" clip-path="url(#a)"/>
<path d="m235.09 271.01 48.895 160.61" clip-path="url(#a)"/>
<path d="m235.09 271.01v80.307" clip-path="url(#a)"/>
<path d="m430.67 271.01v160.61" clip-path="url(#a)"/>
<path d="m430.67 271.01-48.895 80.307" clip-path="url(#a)"/>
<path d="m430.67 271.01 48.895 80.307" clip-path="url(#a)"/>
<path d="m528.46 351.32v80.307" clip-path="url(#a)"/>
<path d="m235.09 351.32v80.307" clip-path="url(#a)"/>
<path d="m381.77 351.32v80.307" clip-path="url(#a)"/>
<path d="m479.56 351.32v80.307" clip-path="url(#a)"/>
<path d="m332.88 351.32v80.307" clip-path="url(#a)"/>
<path d="m724.04 351.32v80.307" clip-path="url(#a)"/>
<path d="m821.83 351.32v80.307" clip-path="url(#a)"/>
</g>
<path d="m263.04 61.144v6.0162q0 2.4 2.4 2.4h7.7425q2.4 0 2.4-2.4v-6.0162q0-2.4-2.4-2.4h-7.7425q-2.4 0-2.4 2.4z" clip-path="url(#a)" fill="#fff" stroke="#fff"/>
<g clip-path="url(#a)">
<defs>
<path id="am" d="m9.8125 72.906h9.8594v-29.891h35.844v29.891h9.8594v-72.906h-9.8594v34.719h-35.844v-34.719h-9.8594z"/>
</defs>
<g transform="translate(267.11 61.144) rotate(90) scale(.08 -.08)">
<use xlink:href="#am"/>
</g>
</g>
<path d="m157.11 235.24 3.7462-3.9893q1.6429-1.7495-0.10663-3.3924l-5.6441-5.3001q-1.7495-1.6429-3.3924 0.10663l-3.7462 3.9893q-1.6429 1.7495 0.10663 3.3924l5.6441 5.3001q1.7495 1.6429 3.3924-0.10663z" clip-path="url(#a)" fill="#fff" stroke="#fff"/>
<g clip-path="url(#a)">
<defs>
<path id="z" d="m34.188 63.188-13.391-36.281h26.812zm-5.5781 9.7188h11.188l27.781-72.906h-10.25l-6.6406 18.703h-32.859l-6.6406-18.703h-10.406z"/>
</defs>
<g transform="translate(154.15 232.46) rotate(-46.8) scale(.08 -.08)">
<use xlink:href="#z"/>
</g>
</g>
<path d="m182.07 235.16 3.6618-4.9534q1.4267-1.9299-0.50322-3.3566l-6.226-4.6026q-1.9299-1.4267-3.3566 0.50322l-3.6618 4.9534q-1.4267 1.9299 0.50322 3.3566l6.226 4.6026q1.9299 1.4267 3.3566-0.50322z" clip-path="url(#a)" fill="#fff" stroke="#fff"/>
<g clip-path="url(#a)">
<defs>
<path id="y" d="m19.672 64.797v-56.688h11.922q15.094 0 22.094 6.8281 7 6.8438 7 21.594 0 14.641-7 21.453t-22.094 6.8125zm-9.8594 8.1094h20.266q21.188 0 31.094-8.8125 9.9219-8.8125 9.9219-27.562 0-18.859-9.9688-27.703-9.9531-8.8281-31.047-8.8281h-20.266z"/>
</defs>
<g transform="translate(178.8 232.74) rotate(-53.526) scale(.08 -.08)">
<use xlink:href="#y"/>
</g>
</g>
<path d="m207.68 234.05 2.2902-4.2454q1.1395-2.1123-0.97279-3.2517l-6.8142-3.676q-2.1123-1.1395-3.2517 0.97279l-2.2902 4.2454q-1.1395 2.1123 0.97279 3.2517l6.8142 3.676q2.1123 1.1395 3.2517-0.97279z" clip-path="url(#a)" fill="#fff" stroke="#fff"/>
<g clip-path="url(#a)">
<defs>
<path id="ak" d="m19.672 64.797v-27.391h12.406q6.8906 0 10.641 3.5625 3.7656 3.5625 3.7656 10.156 0 6.5469-3.7656 10.109-3.75 3.5625-10.641 3.5625zm-9.8594 8.1094h22.266q12.266 0 18.531-5.5469 6.2812-5.5469 6.2812-16.234 0-10.797-6.2812-16.312-6.2656-5.5156-18.531-5.5156h-12.406v-29.297h-9.8594z"/>
</defs>
<g transform="translate(204.1 232.13) rotate(-61.655) scale(.08 -.08)">
<use xlink:href="#ak"/>
</g>
</g>
<path d="m319.62 151.51 4.4033 3.2495q1.9311 1.4251 3.3562-0.50599l4.5974-6.2298q1.4251-1.9311-0.50599-3.3562l-4.4033-3.2495q-1.9311-1.4251-3.3562 0.50599l-4.5974 6.2298q-1.4251 1.9311 0.50599 3.3562z" clip-path="url(#a)" fill="#fff" stroke="#fff"/>
<g clip-path="url(#a)">
<g transform="translate(322.03 148.24) rotate(36.426) scale(.08 -.08)">
<use xlink:href="#z"/>
</g>
</g>
<path d="m480.24 153.66 6.0485 1.1666q2.3566 0.45453 2.8111-1.902l1.4663-7.6024q0.45453-2.3566-1.902-2.8111l-6.0485-1.1666q-2.3566-0.45453-2.8111 1.902l-1.4663 7.6024q-0.45453 2.3566 1.902 2.8111z" clip-path="url(#a)" fill="#fff" stroke="#fff"/>
<g clip-path="url(#a)">
<g transform="translate(481.01 149.67) rotate(10.917) scale(.08 -.08)">
<use xlink:href="#y"/>
</g>
</g>
<path d="m33.234 373.83v35.285q0 2.4 2.4 2.4h7.7425q2.4 0 2.4-2.4v-35.285q0-2.4-2.4-2.4h-7.7425q-2.4 0-2.4 2.4z" clip-path="url(#a)" fill="#fff" stroke="#fff"/>
<g clip-path="url(#a)">
<defs>
<path id="l" d="m-0.29688 72.906h61.672v-8.3125h-25.875v-64.594h-9.9062v64.594h-25.891z"/>
<path id="k" d="m56.203 29.594v-4.3906h-41.312q0.59375-9.2812 5.5938-14.141t13.938-4.8594q5.1719 0 10.031 1.2656t9.6562 3.8125v-8.5q-4.8438-2.0469-9.9219-3.125t-10.297-1.0781q-13.094 0-20.734 7.6094-7.6406 7.625-7.6406 20.625 0 13.422 7.25 21.297 7.25 7.8906 19.562 7.8906 11.031 0 17.453-7.1094 6.4219-7.0938 6.4219-19.297zm-8.9844 2.6406q-0.09375 7.3594-4.125 11.75-4.0312 4.4062-10.672 4.4062-7.5156 0-12.031-4.25t-5.2031-11.969z"/>
<path id="h" d="m41.109 46.297q-1.5156 0.875-3.2969 1.2812-1.7812 0.42188-3.9219 0.42188-7.625 0-11.703-4.9531t-4.0781-14.234v-28.812h-9.0312v54.688h9.0312v-8.5q2.8438 4.9844 7.375 7.3906 4.5469 2.4219 11.047 2.4219 0.92188 0 2.0469-0.125 1.125-0.10938 2.4844-0.35938z"/>
<path id="g" d="m52 44.188q3.375 6.0625 8.0625 8.9375t11.031 2.875q8.5469 0 13.188-5.9844 4.6406-5.9688 4.6406-17v-33.016h-9.0312v32.719q0 7.8594-2.7969 11.656-2.7812 3.8125-8.4844 3.8125-6.9844 0-11.047-4.6406-4.0469-4.625-4.0469-12.641v-30.906h-9.0312v32.719q0 7.9062-2.7812 11.688t-8.5938 3.7812q-6.8906 0-10.953-4.6562-4.0469-4.6562-4.0469-12.625v-30.906h-9.0312v54.688h9.0312v-8.5q3.0781 5.0312 7.375 7.4219t10.203 2.3906q5.9688 0 10.141-3.0312 4.1719-3.0156 6.1719-8.7812z"/>
<path id="e" d="m9.4219 54.688h8.9844v-54.688h-8.9844zm0 21.297h8.9844v-11.391h-8.9844z"/>
<path id="i" d="m54.891 33.016v-33.016h-8.9844v32.719q0 7.7656-3.0312 11.609-3.0312 3.8594-9.0781 3.8594-7.2812 0-11.484-4.6406-4.2031-4.625-4.2031-12.641v-30.906h-9.0312v54.688h9.0312v-8.5q3.2344 4.9375 7.5938 7.375 4.375 2.4375 10.094 2.4375 9.4219 0 14.25-5.8281 4.8438-5.8281 4.8438-17.156z"/>
<path id="d" d="m34.281 27.484q-10.891 0-15.094-2.4844t-4.2031-8.5q0-4.7812 3.1562-7.5938 3.1562-2.7969 8.5625-2.7969 7.4844 0 12 5.2969t4.5156 14.078v2zm17.922 3.7188v-31.203h-8.9844v8.2969q-3.0781-4.9688-7.6719-7.3438t-11.234-2.375q-8.3906 0-13.359 4.7188-4.9531 4.7188-4.9531 12.625 0 9.2188 6.1719 13.906 6.1875 4.6875 18.438 4.6875h12.609v0.89062q0 6.2031-4.0781 9.5938t-11.453 3.3906q-4.6875 0-9.1406-1.125-4.4375-1.125-8.5312-3.375v8.3125q4.9219 1.9062 9.5625 2.8438 4.6406 0.95312 9.0312 0.95312 11.875 0 17.734-6.1562 5.8594-6.1406 5.8594-18.641z"/>
<path id="j" d="m9.4219 75.984h8.9844v-75.984h-8.9844z"/>
</defs>
<g transform="translate(37.298 373.83) rotate(90) scale(.08 -.08)">
<use xlink:href="#l"/>
<use x="60.818359" xlink:href="#k"/>
<use x="122.341797" xlink:href="#h"/>
<use x="163.439453" xlink:href="#g"/>
<use x="260.851562" xlink:href="#e"/>
<use x="288.634766" xlink:href="#i"/>
<use x="352.013672" xlink:href="#d"/>
<use x="413.292969" xlink:href="#j"/>
</g>
</g>
<path d="m82.129 373.83v35.285q0 2.4 2.4 2.4h7.7425q2.4 0 2.4-2.4v-35.285q0-2.4-2.4-2.4h-7.7425q-2.4 0-2.4 2.4z" clip-path="url(#a)" fill="#fff" stroke="#fff"/>
<g clip-path="url(#a)">
<g transform="translate(86.193 373.83) rotate(90) scale(.08 -.08)">
<use xlink:href="#l"/>
<use x="60.818359" xlink:href="#k"/>
<use x="122.341797" xlink:href="#h"/>
<use x="163.439453" xlink:href="#g"/>
<use x="260.851562" xlink:href="#e"/>
<use x="288.634766" xlink:href="#i"/>
<use x="352.013672" xlink:href="#d"/>
<use x="413.292969" xlink:href="#j"/>
</g>
</g>
<path d="m131.02 373.83v35.285q0 2.4 2.4 2.4h7.7425q2.4 0 2.4-2.4v-35.285q0-2.4-2.4-2.4h-7.7425q-2.4 0-2.4 2.4z" clip-path="url(#a)" fill="#fff" stroke="#fff"/>
<g clip-path="url(#a)">
<g transform="translate(135.09 373.83) rotate(90) scale(.08 -.08)">
<use xlink:href="#l"/>
<use x="60.818359" xlink:href="#k"/>
<use x="122.341797" xlink:href="#h"/>
<use x="163.439453" xlink:href="#g"/>
<use x="260.851562" xlink:href="#e"/>
<use x="288.634766" xlink:href="#i"/>
<use x="352.013672" xlink:href="#d"/>
<use x="413.292969" xlink:href="#j"/>
</g>
</g>
<path d="m309.26 237.01 4.4197-2.4534q2.0984-1.1648 0.93359-3.2632l-3.7577-6.7695q-1.1648-2.0984-3.2632-0.93359l-4.4197 2.4534q-2.0984 1.1648-0.93359 3.2632l3.7577 6.7695q1.1648 2.0984 3.2632 0.93359z" clip-path="url(#a)" fill="#fff" stroke="#fff"/>
<g clip-path="url(#a)">
<defs>
<path id="x" d="m9.8125 72.906h46.094v-8.3125h-36.234v-21.578h34.719v-8.2969h-34.719v-26.422h37.109v-8.2969h-46.969z"/>
</defs>
<g transform="translate(307.29 233.45) rotate(-29.034) scale(.08 -.08)">
<use xlink:href="#x"/>
</g>
</g>
<path d="m399.54 231.36 2.6024 4.3337q1.2355 2.0575 3.2931 0.82198l6.6377-3.9859q2.0575-1.2355 0.82198-3.2931l-2.6024-4.3337q-1.2355-2.0575-3.2931-0.82198l-6.6377 3.9859q-2.0575 1.2355-0.82198 3.2931z" clip-path="url(#a)" fill="#fff" stroke="#fff"/>
<g clip-path="url(#a)">
<g transform="translate(403.03 229.27) rotate(59.015) scale(.08 -.08)">
<use xlink:href="#x"/>
</g>
</g>
<path d="m448.59 272.59 3.7529 4.1378q1.6124 1.7777 3.3901 0.16538l5.735-5.2015q1.7777-1.6124 0.16538-3.3901l-3.7529-4.1378q-1.6124-1.7777-3.3901-0.16538l-5.735 5.2015q-1.7777 1.6124-0.16538 3.3901z" clip-path="url(#a)" fill="#fff" stroke="#fff"/>
<g clip-path="url(#a)">
<defs>
<path id="n" d="m64.406 67.281v-10.391q-4.9844 4.6406-10.625 6.9219-5.6406 2.2969-11.984 2.2969-12.5 0-19.141-7.6406t-6.6406-22.094q0-14.406 6.6406-22.047t19.141-7.6406q6.3438 0 11.984 2.2969t10.625 6.9375v-10.312q-5.1719-3.5156-10.969-5.2812-5.7812-1.75-12.219-1.75-16.562 0-26.094 10.125-9.5156 10.141-9.5156 27.672 0 17.578 9.5156 27.703 9.5312 10.141 26.094 10.141 6.5312 0 12.312-1.7344 5.7969-1.7344 10.875-5.2031z"/>
</defs>
<g transform="translate(451.6 269.86) rotate(47.793) scale(.08 -.08)">
<use xlink:href="#n"/>
</g>
</g>
<path d="m362.48 275.07 1.6944-5.6045q0.69453-2.2973-1.6028-2.9918l-7.4112-2.2406q-2.2973-0.69453-2.9918 1.6028l-1.6944 5.6045q-0.69453 2.2973 1.6028 2.9918l7.4112 2.2406q2.2973 0.69453 2.9918-1.6028z" clip-path="url(#a)" fill="#fff" stroke="#fff"/>
<g clip-path="url(#a)">
<defs>
<path id="m" d="m8.6875 72.906h9.9219v-44.297q0-11.719 4.2344-16.875 4.25-5.1406 13.781-5.1406 9.4688 0 13.719 5.1406 4.25 5.1562 4.25 16.875v44.297h9.9062v-45.516q0-14.25-7.0625-21.531-7.0469-7.2812-20.812-7.2812-13.828 0-20.891 7.2812-7.0469 7.2812-7.0469 21.531z"/>
</defs>
<g transform="translate(358.59 273.89) rotate(-73.179) scale(.08 -.08)">
<use xlink:href="#m"/>
</g>
</g>
<path d="m641.8 276.45 3.3517-4.4346q1.4471-1.9146-0.46754-3.3618l-6.1767-4.6684q-1.9146-1.4471-3.3618 0.46754l-3.3517 4.4346q-1.4471 1.9146 0.46754 3.3618l6.1767 4.6684q1.9146 1.4471 3.3618-0.46754z" clip-path="url(#a)" fill="#fff" stroke="#fff"/>
<g clip-path="url(#a)">
<defs>
<path id="v" d="m44.391 34.188q3.1719-1.0781 6.1719-4.5938t6.0312-9.6719l10.016-19.922h-10.609l-9.3125 18.703q-3.625 7.3281-7.0156 9.7188t-9.25 2.3906h-10.75v-30.812h-9.8594v72.906h22.266q12.5 0 18.656-5.2344 6.1562-5.2188 6.1562-15.766 0-6.8906-3.2031-11.438-3.2031-4.5312-9.2969-6.2812zm-24.719 30.609v-25.875h12.406q7.125 0 10.766 3.2969t3.6406 9.6875-3.6406 9.6406-10.766 3.25z"/>
</defs>
<g transform="translate(638.56 274) rotate(-52.918) scale(.08 -.08)">
<use xlink:href="#v"/>
</g>
</g>
<path d="m693.32 227.5v5.5862q0 2.4 2.4 2.4h7.7425q2.4 0 2.4-2.4v-5.5862q0-2.4-2.4-2.4h-7.7425q-2.4 0-2.4 2.4z" clip-path="url(#a)" fill="#fff" stroke="#fff"/>
<g clip-path="url(#a)">
<g transform="translate(697.38 227.5) rotate(90) scale(.08 -.08)">
<use xlink:href="#n"/>
</g>
</g>
<path d="m753.94 271.9 3.5303 4.6709q1.4471 1.9146 3.3618 0.46754l6.1767-4.6684q1.9146-1.4471 0.46754-3.3618l-3.5303-4.6709q-1.4471-1.9146-3.3618-0.46754l-6.1767 4.6684q-1.9146 1.4471-0.46754 3.3618z" clip-path="url(#a)" fill="#fff" stroke="#fff"/>
<g clip-path="url(#a)">
<g transform="translate(757.18 269.45) rotate(52.918) scale(.08 -.08)">
<use xlink:href="#m"/>
</g>
</g>
<path d="m571.08 373.83v35.285q0 2.4 2.4 2.4h7.7425q2.4 0 2.4-2.4v-35.285q0-2.4-2.4-2.4h-7.7425q-2.4 0-2.4 2.4z" clip-path="url(#a)" fill="#fff" stroke="#fff"/>
<g clip-path="url(#a)">
<g transform="translate(575.14 373.83) rotate(90) scale(.08 -.08)">
<use xlink:href="#l"/>
<use x="60.818359" xlink:href="#k"/>
<use x="122.341797" xlink:href="#h"/>
<use x="163.439453" xlink:href="#g"/>
<use x="260.851562" xlink:href="#e"/>
<use x="288.634766" xlink:href="#i"/>
<use x="352.013672" xlink:href="#d"/>
<use x="413.292969" xlink:href="#j"/>
</g>
</g>
<path d="m661.29 369.97 14.657-32.097q0.99692-2.1832-1.1862-3.1801l-7.0429-3.2161q-2.1832-0.99692-3.1801 1.1862l-14.657 32.097q-0.99692 2.1832 1.1862 3.1801l7.0429 3.2161q2.1832 0.99692 3.1801-1.1862z" clip-path="url(#a)" fill="#fff" stroke="#fff"/>
<g clip-path="url(#a)">
<g transform="translate(657.6 368.28) rotate(-65.457) scale(.08 -.08)">
<use xlink:href="#l"/>
<use x="60.818359" xlink:href="#k"/>
<use x="122.341797" xlink:href="#h"/>
<use x="163.439453" xlink:href="#g"/>
<use x="260.851562" xlink:href="#e"/>
<use x="288.634766" xlink:href="#i"/>
<use x="352.013672" xlink:href="#d"/>
<use x="413.292969" xlink:href="#j"/>
</g>
</g>
<path d="m690.91 369.7 5.3097-34.883q0.36115-2.3727-2.0115-2.7338l-7.6543-1.1651q-2.3727-0.36115-2.7338 2.0115l-5.3097 34.883q-0.36115 2.3727 2.0115 2.7338l7.6543 1.1651q2.3727 0.36115 2.7338-2.0115z" clip-path="url(#a)" fill="#fff" stroke="#fff"/>
<g clip-path="url(#a)">
<g transform="translate(686.89 369.09) rotate(-81.345) scale(.08 -.08)">
<use xlink:href="#l"/>
<use x="60.818359" xlink:href="#k"/>
<use x="122.341797" xlink:href="#h"/>
<use x="163.439453" xlink:href="#g"/>
<use x="260.851562" xlink:href="#e"/>
<use x="288.634766" xlink:href="#i"/>
<use x="352.013672" xlink:href="#d"/>
<use x="413.292969" xlink:href="#j"/>
</g>
</g>
<path d="m723.23 337.87 14.657 32.097q0.99692 2.1832 3.1801 1.1862l7.0429-3.2161q2.1832-0.99692 1.1862-3.1801l-14.657-32.097q-0.99692-2.1832-3.1801-1.1862l-7.0429 3.2161q-2.1832 0.99692-1.1862 3.1801z" clip-path="url(#a)" fill="#fff" stroke="#fff"/>
<g clip-path="url(#a)">
<g transform="translate(726.92 336.18) rotate(65.457) scale(.08 -.08)">
<use xlink:href="#l"/>
<use x="60.818359" xlink:href="#k"/>
<use x="122.341797" xlink:href="#h"/>
<use x="163.439453" xlink:href="#g"/>
<use x="260.851562" xlink:href="#e"/>
<use x="288.634766" xlink:href="#i"/>
<use x="352.013672" xlink:href="#d"/>
<use x="413.292969" xlink:href="#j"/>
</g>
</g>
<path d="m704.96 310.19 1.7052 5.6012q0.69896 2.296 2.9949 1.597l7.4069-2.2549q2.296-0.69896 1.597-2.9949l-1.7052-5.6012q-0.69896-2.296-2.9949-1.597l-7.4069 2.2549q-2.296 0.69896-1.597 2.9949z" clip-path="url(#a)" fill="#fff" stroke="#fff"/>
<g clip-path="url(#a)">
<g transform="translate(708.85 309) rotate(73.068) scale(.08 -.08)">
<use xlink:href="#m"/>
</g>
</g>
<path d="m211.5 370.02 10.276-33.755q0.69896-2.296-1.597-2.9949l-7.4069-2.2549q-2.296-0.69895-2.9949 1.597l-10.276 33.755q-0.69896 2.296 1.597 2.9949l7.4069 2.2549q2.296 0.69896 2.9949-1.597z" clip-path="url(#a)" fill="#fff" stroke="#fff"/>
<g clip-path="url(#a)">
<g transform="translate(207.61 368.84) rotate(-73.068) scale(.08 -.08)">
<use xlink:href="#l"/>
<use x="60.818359" xlink:href="#k"/>
<use x="122.341797" xlink:href="#h"/>
<use x="163.439453" xlink:href="#g"/>
<use x="260.851562" xlink:href="#e"/>
<use x="288.634766" xlink:href="#i"/>
<use x="352.013672" xlink:href="#d"/>
<use x="413.292969" xlink:href="#j"/>
</g>
</g>
<path d="m248.4 336.26 10.276 33.755q0.69896 2.296 2.9949 1.597l7.4069-2.2549q2.296-0.69896 1.597-2.9949l-10.276-33.755q-0.69896-2.296-2.9949-1.597l-7.4069 2.2549q-2.296 0.69896-1.597 2.9949z" clip-path="url(#a)" fill="#fff" stroke="#fff"/>
<g clip-path="url(#a)">
<g transform="translate(252.28 335.08) rotate(73.068) scale(.08 -.08)">
<use xlink:href="#l"/>
<use x="60.818359" xlink:href="#k"/>
<use x="122.341797" xlink:href="#h"/>
<use x="163.439453" xlink:href="#g"/>
<use x="260.851562" xlink:href="#e"/>
<use x="288.634766" xlink:href="#i"/>
<use x="352.013672" xlink:href="#d"/>
<use x="413.292969" xlink:href="#j"/>
</g>
</g>
<path d="m228.81 308.24v5.855q0 2.4 2.4 2.4h7.7425q2.4 0 2.4-2.4v-5.855q0-2.4-2.4-2.4h-7.7425q-2.4 0-2.4 2.4z" clip-path="url(#a)" fill="#fff" stroke="#fff"/>
<g clip-path="url(#a)">
<g transform="translate(232.88 308.24) rotate(90) scale(.08 -.08)">
<use xlink:href="#m"/>
</g>
</g>
<path d="m424.4 333.67v35.285q0 2.4 2.4 2.4h7.7425q2.4 0 2.4-2.4v-35.285q0-2.4-2.4-2.4h-7.7425q-2.4 0-2.4 2.4z" clip-path="url(#a)" fill="#fff" stroke="#fff"/>
<g clip-path="url(#a)">
<g transform="translate(428.46 333.67) rotate(90) scale(.08 -.08)">
<use xlink:href="#l"/>
<use x="60.818359" xlink:href="#k"/>
<use x="122.341797" xlink:href="#h"/>
<use x="163.439453" xlink:href="#g"/>
<use x="260.851562" xlink:href="#e"/>
<use x="288.634766" xlink:href="#i"/>
<use x="352.013672" xlink:href="#d"/>
<use x="413.292969" xlink:href="#j"/>
</g>
</g>
<path d="m410.12 316.81 2.9051-4.7714q1.2481-2.0499-0.80182-3.298l-6.6132-4.0265q-2.0499-1.2481-3.298 0.80182l-2.9051 4.7714q-1.2481 2.0499 0.80182 3.298l6.6132 4.0265q2.0499 1.2481 3.298-0.80182z" clip-path="url(#a)" fill="#fff" stroke="#fff"/>
<g clip-path="url(#a)">
<g transform="translate(406.65 314.7) rotate(-58.665) scale(.08 -.08)">
<use xlink:href="#n"/>
</g>
</g>
<path d="m448.31 312.04 2.9051 4.7714q1.2481 2.0499 3.298 0.80182l6.6132-4.0265q2.0499-1.2481 0.80182-3.298l-2.9051-4.7714q-1.2481-2.0499-3.298-0.80182l-6.6132 4.0265q-2.0499 1.2481-0.80182 3.298z" clip-path="url(#a)" fill="#fff" stroke="#fff"/>
<g clip-path="url(#a)">
<g transform="translate(451.78 309.92) rotate(58.665) scale(.08 -.08)">
<use xlink:href="#n"/>
</g>
</g>
<path d="m522.19 373.83v35.285q0 2.4 2.4 2.4h7.7425q2.4 0 2.4-2.4v-35.285q0-2.4-2.4-2.4h-7.7425q-2.4 0-2.4 2.4z" clip-path="url(#a)" fill="#fff" stroke="#fff"/>
<g clip-path="url(#a)">
<g transform="translate(526.25 373.83) rotate(90) scale(.08 -.08)">
<use xlink:href="#l"/>
<use x="60.818359" xlink:href="#k"/>
<use x="122.341797" xlink:href="#h"/>
<use x="163.439453" xlink:href="#g"/>
<use x="260.851562" xlink:href="#e"/>
<use x="288.634766" xlink:href="#i"/>
<use x="352.013672" xlink:href="#d"/>
<use x="413.292969" xlink:href="#j"/>
</g>
</g>
<path d="m228.81 373.83v35.285q0 2.4 2.4 2.4h7.7425q2.4 0 2.4-2.4v-35.285q0-2.4-2.4-2.4h-7.7425q-2.4 0-2.4 2.4z" clip-path="url(#a)" fill="#fff" stroke="#fff"/>
<g clip-path="url(#a)">
<g transform="translate(232.88 373.83) rotate(90) scale(.08 -.08)">
<use xlink:href="#l"/>
<use x="60.818359" xlink:href="#k"/>
<use x="122.341797" xlink:href="#h"/>
<use x="163.439453" xlink:href="#g"/>
<use x="260.851562" xlink:href="#e"/>
<use x="288.634766" xlink:href="#i"/>
<use x="352.013672" xlink:href="#d"/>
<use x="413.292969" xlink:href="#j"/>
</g>
</g>
<path d="m375.5 373.83v35.285q0 2.4 2.4 2.4h7.7425q2.4 0 2.4-2.4v-35.285q0-2.4-2.4-2.4h-7.7425q-2.4 0-2.4 2.4z" clip-path="url(#a)" fill="#fff" stroke="#fff"/>
<g clip-path="url(#a)">
<g transform="translate(379.56 373.83) rotate(90) scale(.08 -.08)">
<use xlink:href="#l"/>
<use x="60.818359" xlink:href="#k"/>
<use x="122.341797" xlink:href="#h"/>
<use x="163.439453" xlink:href="#g"/>
<use x="260.851562" xlink:href="#e"/>
<use x="288.634766" xlink:href="#i"/>
<use x="352.013672" xlink:href="#d"/>
<use x="413.292969" xlink:href="#j"/>
</g>
</g>
<path d="m473.29 373.83v35.285q0 2.4 2.4 2.4h7.7425q2.4 0 2.4-2.4v-35.285q0-2.4-2.4-2.4h-7.7425q-2.4 0-2.4 2.4z" clip-path="url(#a)" fill="#fff" stroke="#fff"/>
<g clip-path="url(#a)">
<g transform="translate(477.35 373.83) rotate(90) scale(.08 -.08)">
<use xlink:href="#l"/>
<use x="60.818359" xlink:href="#k"/>
<use x="122.341797" xlink:href="#h"/>
<use x="163.439453" xlink:href="#g"/>
<use x="260.851562" xlink:href="#e"/>
<use x="288.634766" xlink:href="#i"/>
<use x="352.013672" xlink:href="#d"/>
<use x="413.292969" xlink:href="#j"/>
</g>
</g>
<path d="m326.61 373.83v35.285q0 2.4 2.4 2.4h7.7425q2.4 0 2.4-2.4v-35.285q0-2.4-2.4-2.4h-7.7425q-2.4 0-2.4 2.4z" clip-path="url(#a)" fill="#fff" stroke="#fff"/>
<g clip-path="url(#a)">
<g transform="translate(330.67 373.83) rotate(90) scale(.08 -.08)">
<use xlink:href="#l"/>
<use x="60.818359" xlink:href="#k"/>
<use x="122.341797" xlink:href="#h"/>
<use x="163.439453" xlink:href="#g"/>
<use x="260.851562" xlink:href="#e"/>
<use x="288.634766" xlink:href="#i"/>
<use x="352.013672" xlink:href="#d"/>
<use x="413.292969" xlink:href="#j"/>
</g>
</g>
<path d="m717.77 373.83v35.285q0 2.4 2.4 2.4h7.7425q2.4 0 2.4-2.4v-35.285q0-2.4-2.4-2.4h-7.7425q-2.4 0-2.4 2.4z" clip-path="url(#a)" fill="#fff" stroke="#fff"/>
<g clip-path="url(#a)">
<g transform="translate(721.83 373.83) rotate(90) scale(.08 -.08)">
<use xlink:href="#l"/>
<use x="60.818359" xlink:href="#k"/>
<use x="122.341797" xlink:href="#h"/>
<use x="163.439453" xlink:href="#g"/>
<use x="260.851562" xlink:href="#e"/>
<use x="288.634766" xlink:href="#i"/>
<use x="352.013672" xlink:href="#d"/>
<use x="413.292969" xlink:href="#j"/>
</g>
</g>
<path d="m815.56 373.83v35.285q0 2.4 2.4 2.4h7.7425q2.4 0 2.4-2.4v-35.285q0-2.4-2.4-2.4h-7.7425q-2.4 0-2.4 2.4z" clip-path="url(#a)" fill="#fff" stroke="#fff"/>
<g clip-path="url(#a)">
<g transform="translate(819.62 373.83) rotate(90) scale(.08 -.08)">
<use xlink:href="#l"/>
<use x="60.818359" xlink:href="#k"/>
<use x="122.341797" xlink:href="#h"/>
<use x="163.439453" xlink:href="#g"/>
<use x="260.851562" xlink:href="#e"/>
<use x="288.634766" xlink:href="#i"/>
<use x="352.013672" xlink:href="#d"/>
<use x="413.292969" xlink:href="#j"/>
</g>
</g>
<defs>
<path id="b" d="m0 8.6603c2.2967 0 4.4997-0.9125 6.1237-2.5365 1.624-1.624 2.5365-3.827 2.5365-6.1237s-0.9125-4.4997-2.5365-6.1237c-1.624-1.624-3.827-2.5365-6.1237-2.5365s-4.4997 0.9125-6.1237 2.5365c-1.624 1.624-2.5365 3.827-2.5365 6.1237s0.9125 4.4997 2.5365 6.1237c1.624 1.624 3.827 2.5365 6.1237 2.5365z"/>
</defs>
<g clip-path="url(#a)">
<use x="39.505478" y="431.622692" fill="#ffffff" stroke="#ffffff" xlink:href="#b"/>
</g>
<g clip-path="url(#a)">
<use x="88.400627" y="431.622692" fill="#ffffff" stroke="#ffffff" xlink:href="#b"/>
</g>
<g clip-path="url(#a)">
<use x="137.295775" y="431.622692" fill="#ffffff" stroke="#ffffff" xlink:href="#b"/>
</g>
<g clip-path="url(#a)">
<use x="186.190924" y="431.622692" fill="#ffffff" stroke="#ffffff" xlink:href="#b"/>
</g>
<g clip-path="url(#a)">
<use x="235.086072" y="431.622692" fill="#ffffff" stroke="#ffffff" xlink:href="#b"/>
</g>
<g clip-path="url(#a)">
<use x="283.981221" y="431.622692" fill="#ffffff" stroke="#ffffff" xlink:href="#b"/>
</g>
<g clip-path="url(#a)">
<use x="332.876369" y="431.622692" fill="#ffffff" stroke="#ffffff" xlink:href="#b"/>
</g>
<g clip-path="url(#a)">
<use x="381.771518" y="431.622692" fill="#ffffff" stroke="#ffffff" xlink:href="#b"/>
</g>
<g clip-path="url(#a)">
<use x="430.666667" y="431.622692" fill="#ffffff" stroke="#ffffff" xlink:href="#b"/>
</g>
<g clip-path="url(#a)">
<use x="479.561815" y="431.622692" fill="#ffffff" stroke="#ffffff" xlink:href="#b"/>
</g>
<g clip-path="url(#a)">
<use x="528.456964" y="431.622692" fill="#ffffff" stroke="#ffffff" xlink:href="#b"/>
</g>
<g clip-path="url(#a)">
<use x="577.352112" y="431.622692" fill="#ffffff" stroke="#ffffff" xlink:href="#b"/>
</g>
<g clip-path="url(#a)">
<use x="626.247261" y="431.622692" fill="#ffffff" stroke="#ffffff" xlink:href="#b"/>
</g>
<g clip-path="url(#a)">
<use x="675.14241" y="431.622692" fill="#ffffff" stroke="#ffffff" xlink:href="#b"/>
</g>
<g clip-path="url(#a)">
<use x="724.037558" y="431.622692" fill="#ffffff" stroke="#ffffff" xlink:href="#b"/>
</g>
<g clip-path="url(#a)">
<use x="772.932707" y="431.622692" fill="#ffffff" stroke="#ffffff" xlink:href="#b"/>
</g>
<g clip-path="url(#a)">
<use x="821.827855" y="431.622692" fill="#ffffff" stroke="#ffffff" xlink:href="#b"/>
</g>
<g clip-path="url(#a)">
<use x="269.312676" y="21.710642" fill="#ffffff" stroke="#ffffff" xlink:href="#b"/>
</g>
<g clip-path="url(#a)">
<use x="269.312676" y="106.593431" fill="#ffffff" stroke="#ffffff" xlink:href="#b"/>
</g>
<g clip-path="url(#a)">
<use x="39.505478" y="351.315924" fill="#ffffff" stroke="#ffffff" xlink:href="#b"/>
</g>
<g clip-path="url(#a)">
<use x="88.400627" y="351.315924" fill="#ffffff" stroke="#ffffff" xlink:href="#b"/>
</g>
<g clip-path="url(#a)">
<use x="137.295775" y="351.315924" fill="#ffffff" stroke="#ffffff" xlink:href="#b"/>
</g>
<g clip-path="url(#a)">
<use x="381.771518" y="189.585233" fill="#ffffff" stroke="#ffffff" xlink:href="#b"/>
</g>
<g clip-path="url(#a)">
<use x="699.589984" y="189.585233" fill="#ffffff" stroke="#ffffff" xlink:href="#b"/>
</g>
<g clip-path="url(#a)">
<use x="577.352112" y="351.315924" fill="#ffffff" stroke="#ffffff" xlink:href="#b"/>
</g>
<g clip-path="url(#a)">
<use x="699.589984" y="271.009156" fill="#ffffff" stroke="#ffffff" xlink:href="#b"/>
</g>
<g clip-path="url(#a)">
<use x="235.086072" y="271.009156" fill="#ffffff" stroke="#ffffff" xlink:href="#b"/>
</g>
<g clip-path="url(#a)">
<use x="430.666667" y="271.009156" fill="#ffffff" stroke="#ffffff" xlink:href="#b"/>
</g>
<g clip-path="url(#a)">
<use x="528.456964" y="351.315924" fill="#ffffff" stroke="#ffffff" xlink:href="#b"/>
</g>
<g clip-path="url(#a)">
<use x="235.086072" y="351.315924" fill="#ffffff" stroke="#ffffff" xlink:href="#b"/>
</g>
<g clip-path="url(#a)">
<use x="381.771518" y="351.315924" fill="#ffffff" stroke="#ffffff" xlink:href="#b"/>
</g>
<g clip-path="url(#a)">
<use x="479.561815" y="351.315924" fill="#ffffff" stroke="#ffffff" xlink:href="#b"/>
</g>
<g clip-path="url(#a)">
<use x="332.876369" y="351.315924" fill="#ffffff" stroke="#ffffff" xlink:href="#b"/>
</g>
<g clip-path="url(#a)">
<use x="724.037558" y="351.315924" fill="#ffffff" stroke="#ffffff" xlink:href="#b"/>
</g>
<g clip-path="url(#a)">
<use x="821.827855" y="351.315924" fill="#ffffff" stroke="#ffffff" xlink:href="#b"/>
</g>
<g clip-path="url(#a)">
<defs>
<path id="al" d="m9.8125 72.906h9.8594v-72.906h-9.8594z"/>
<path id="p" d="m18.312 70.219v-15.531h18.5v-6.9844h-18.5v-29.688q0-6.6875 1.8281-8.5938t7.4531-1.9062h9.2188v-7.5156h-9.2188q-10.406 0-14.359 3.875-3.9531 3.8906-3.9531 14.141v29.688h-6.5938v6.9844h6.5938v15.531z"/>
</defs>
<g transform="translate(36.07 434.38) scale(.1 -.1)">
<use xlink:href="#al"/>
<use x="29.492188" xlink:href="#p"/>
</g>
</g>
<g clip-path="url(#a)">
<defs>
<path id="u" d="m30.609 48.391q-7.2188 0-11.422-5.6406t-4.2031-15.453 4.1719-15.453q4.1875-5.6406 11.453-5.6406 7.1875 0 11.375 5.6562 4.2031 5.6719 4.2031 15.438 0 9.7188-4.2031 15.406-4.1875 5.6875-11.375 5.6875zm0 7.6094q11.719 0 18.406-7.625 6.7031-7.6094 6.7031-21.078 0-13.422-6.7031-21.078-6.6875-7.6406-18.406-7.6406-11.766 0-18.438 7.6406-6.6562 7.6562-6.6562 21.078 0 13.469 6.6562 21.078 6.6719 7.625 18.438 7.625z"/>
<path id="ah" d="m37.109 75.984v-7.4844h-8.5938q-4.8281 0-6.7188-1.9531-1.875-1.9531-1.875-7.0312v-4.8281h14.797v-6.9844h-14.797v-47.703h-9.0312v47.703h-8.5938v6.9844h8.5938v3.8125q0 9.125 4.25 13.297 4.25 4.1875 13.469 4.1875z"/>
<path id="q" d="m48.781 52.594v-8.4062q-3.8125 2.1094-7.6406 3.1562t-7.7344 1.0469q-8.75 0-13.594-5.5469-4.8281-5.5312-4.8281-15.547t4.8281-15.562q4.8438-5.5312 13.594-5.5312 3.9062 0 7.7344 1.0469t7.6406 3.1562v-8.3125q-3.7656-1.75-7.7969-2.625-4.0156-0.89062-8.5625-0.89062-12.359 0-19.641 7.7656-7.2656 7.7656-7.2656 20.953 0 13.375 7.3438 21.031 7.3594 7.6719 20.156 7.6719 4.1406 0 8.0938-0.85938 3.9531-0.84375 7.6719-2.5469z"/>
<path id="t" d="m32.172-5.0781q-3.7969-9.7656-7.4219-12.734-3.6094-2.9844-9.6562-2.9844h-7.1875v7.5156h5.2812q3.7031 0 5.75 1.7656 2.0625 1.75 4.5469 8.2969l1.6094 4.0938-22.109 53.812h9.5156l17.094-42.766 17.094 42.766h9.5156z"/>
</defs>
<g transform="translate(67.492 434.38) scale(.1 -.1)">
<use xlink:href="#u"/>
<use x="61.181641" xlink:href="#ah"/>
<use x="96.386719" xlink:href="#ah"/>
<use x="131.591797" xlink:href="#e"/>
<use x="159.375" xlink:href="#q"/>
<use x="214.355469" xlink:href="#e"/>
<use x="242.138672" xlink:href="#d"/>
<use x="303.417969" xlink:href="#j"/>
<use x="331.201172" xlink:href="#j"/>
<use x="358.984375" xlink:href="#t"/>
</g>
</g>
<g clip-path="url(#a)">
<defs>
<path id="aq" d="m18.109 8.2031v-29h-9.0312v75.484h9.0312v-8.2969q2.8438 4.875 7.1562 7.2344 4.3281 2.375 10.328 2.375 9.9688 0 16.188-7.9062 6.2344-7.9062 6.2344-20.797t-6.2344-20.812q-6.2188-7.9062-16.188-7.9062-6 0-10.328 2.375-4.3125 2.375-7.1562 7.25zm30.578 19.094q0 9.9062-4.0781 15.547t-11.203 5.6406q-7.1406 0-11.219-5.6406t-4.0781-15.547 4.0781-15.547 11.219-5.6406q7.125 0 11.203 5.6406t4.0781 15.547z"/>
<path id="ai" d="m45.406 46.391v29.594h8.9844v-75.984h-8.9844v8.2031q-2.8281-4.875-7.1562-7.25-4.3125-2.375-10.375-2.375-9.9062 0-16.141 7.9062-6.2188 7.9219-6.2188 20.812t6.2188 20.797q6.2344 7.9062 16.141 7.9062 6.0625 0 10.375-2.375 4.3281-2.3594 7.1562-7.2344zm-30.609-19.094q0-9.9062 4.0781-15.547t11.203-5.6406 11.219 5.6406q4.1094 5.6406 4.1094 15.547t-4.1094 15.547q-4.0938 5.6406-11.219 5.6406t-11.203-5.6406-4.0781-15.547z"/>
</defs>
<g transform="translate(113.84 434.38) scale(.1 -.1)">
<use xlink:href="#e"/>
<use x="27.783203" xlink:href="#g"/>
<use x="125.195312" xlink:href="#aq"/>
<use x="188.671875" xlink:href="#d"/>
<use x="249.951172" xlink:href="#q"/>
<use x="304.931641" xlink:href="#p"/>
<use x="344.140625" xlink:href="#k"/>
<use x="405.664062" xlink:href="#ai"/>
</g>
</g>
<g clip-path="url(#a)">
<g transform="translate(182.53 434.38) scale(.1 -.1)">
<use xlink:href="#m"/>
</g>
</g>
<g clip-path="url(#a)">
<defs>
<path id="f" d="m10.688 12.406h10.312v-12.406h-10.312z"/>
</defs>
<g transform="translate(233.5 434.38) scale(.1 -.1)">
<use xlink:href="#f"/>
</g>
</g>
<g clip-path="url(#a)">
<defs>
<path id="aj" d="m53.516 70.516v-9.625q-5.6094 2.6875-10.594 4-4.9844 1.3281-9.625 1.3281-8.0469 0-12.422-3.125t-4.375-8.8906q0-4.8438 2.9062-7.3125 2.9062-2.4531 11.016-3.9688l5.9531-1.2188q11.031-2.1094 16.281-7.4062t5.25-14.172q0-10.609-7.1094-16.078-7.0938-5.4688-20.812-5.4688-5.1719 0-11.016 1.1719-5.8281 1.1719-12.078 3.4688v10.156q6-3.3594 11.766-5.0781 5.7656-1.7031 11.328-1.7031 8.4375 0 13.031 3.3125 4.5938 3.3281 4.5938 9.4844 0 5.3594-3.2969 8.3906t-10.812 4.5469l-6.0156 1.1719q-11.031 2.1875-15.969 6.875-4.9219 4.6875-4.9219 13.047 0 9.6719 6.8125 15.234t18.766 5.5625q5.1406 0 10.453-0.9375 5.3281-0.92188 10.891-2.7656z"/>
</defs>
<g transform="translate(280.81 434.38) scale(.1 -.1)">
<use xlink:href="#aj"/>
</g>
</g>
<g clip-path="url(#a)">
<g transform="translate(331.29 434.38) scale(.1 -.1)">
<use xlink:href="#f"/>
</g>
</g>
<g clip-path="url(#a)">
<defs>
<path id="w" d="m9.8125 72.906h14.703l18.594-49.609 18.703 49.609h14.703v-72.906h-9.625v64.016l-18.797-50h-9.9062l-18.797 50v-64.016h-9.5781z"/>
<path id="ap" d="m44.281 53.078v-8.5q-3.7969 1.9531-7.9062 2.9219-4.0938 0.98438-8.5 0.98438-6.6875 0-10.031-2.0469t-3.3438-6.1562q0-3.125 2.3906-4.9062t9.625-3.3906l3.0781-0.6875q9.5625-2.0469 13.594-5.7812t4.0312-10.422q0-7.625-6.0312-12.078-6.0312-4.4375-16.578-4.4375-4.3906 0-9.1562 0.85938t-10.031 2.5625v9.2812q4.9844-2.5938 9.8125-3.8906 4.8281-1.2812 9.5781-1.2812 6.3438 0 9.75 2.1719 3.4219 2.1719 3.4219 6.125 0 3.6562-2.4688 5.6094-2.4531 1.9531-10.812 3.7656l-3.125 0.73438q-8.3438 1.75-12.062 5.3906-3.7031 3.6406-3.7031 9.9844 0 7.7188 5.4688 11.906 5.4688 4.2031 15.531 4.2031 4.9688 0 9.3594-0.73438 4.4062-0.71875 8.1094-2.1875z"/>
</defs>
<g transform="translate(352.21 434.38) scale(.1 -.1)">
<use xlink:href="#w"/>
<use x="86.279297" xlink:href="#d"/>
<use x="147.558594" xlink:href="#e"/>
<use x="175.341797" xlink:href="#i"/>
<use x="238.720703" xlink:href="#ap"/>
<use x="290.820312" xlink:href="#p"/>
<use x="330.029297" xlink:href="#h"/>
<use x="371.111328" xlink:href="#k"/>
<use x="432.634766" xlink:href="#d"/>
<use x="493.914062" xlink:href="#g"/>
</g>
</g>
<g clip-path="url(#a)">
<defs>
<path id="ao" d="m24.312 39.203q-4.4375-3.9531-6.5156-7.8906-2.0781-3.9219-2.0781-8.2188 0-7.125 5.1719-11.859 5.1875-4.7344 13-4.7344 4.6406 0 8.6875 1.5312 4.0469 1.5469 7.625 4.6719zm6.8906 5.4688 24.797-25.391q2.8906 4.3594 4.5 9.3125t1.9062 10.516h9.0781q-0.57812-6.4375-3.125-12.75-2.5312-6.2969-7.0781-12.438l13.625-13.922h-12.312l-6.9844 7.1719q-5.0781-4.3438-10.641-6.4688t-11.953-2.125q-11.781 0-19.25 6.7188t-7.4688 17.219q0 6.25 3.2656 11.734 3.2812 5.5 9.8281 10.328-2.3438 3.0781-3.5781 6.125-1.2188 3.0625-1.2188 5.9844 0 7.9062 5.4219 12.719t14.406 4.8125q4.0625 0 8.0781-0.875 4.0312-0.875 8.1875-2.6406v-8.8906q-4.25 2.2969-8.1094 3.4844-3.8594 1.2031-7.1719 1.2031-5.125 0-8.3281-2.7188-3.2031-2.7031-3.2031-7 0-2.4844 1.4375-5 1.4531-2.5156 5.8906-7.1094z"/>
</defs>
<g transform="translate(426.77 434.38) scale(.1 -.1)">
<use xlink:href="#ao"/>
</g>
</g>
<g clip-path="url(#a)">
<defs>
<path id="ag" d="m54.891 33.016v-33.016h-8.9844v32.719q0 7.7656-3.0312 11.609-3.0312 3.8594-9.0781 3.8594-7.2812 0-11.484-4.6406-4.2031-4.625-4.2031-12.641v-30.906h-9.0312v75.984h9.0312v-29.797q3.2344 4.9375 7.5938 7.375 4.375 2.4375 10.094 2.4375 9.4219 0 14.25-5.8281 4.8438-5.8281 4.8438-17.156z"/>
</defs>
<g transform="translate(455.82 434.38) scale(.1 -.1)">
<use xlink:href="#v"/>
<use x="69.482422" xlink:href="#ag"/>
<use x="132.861328" xlink:href="#t"/>
<use x="192.041016" xlink:href="#p"/>
<use x="231.25" xlink:href="#ag"/>
<use x="294.628906" xlink:href="#g"/>
<use x="392.041016" xlink:href="#e"/>
<use x="419.824219" xlink:href="#q"/>
</g>
</g>
<g clip-path="url(#a)">
<g transform="translate(515.71 434.38) scale(.1 -.1)">
<use xlink:href="#h"/>
<use x="41.113281" xlink:href="#d"/>
<use x="102.392578" xlink:href="#ai"/>
<use x="165.869141" xlink:href="#e"/>
<use x="193.652344" xlink:href="#u"/>
</g>
</g>
<g clip-path="url(#a)">
<g transform="translate(571.12 434.38) scale(.1 -.1)">
<use xlink:href="#u"/>
<use x="61.181641" xlink:href="#i"/>
</g>
</g>
<g clip-path="url(#a)">
<g transform="translate(615.91 434.38) scale(.1 -.1)">
<use xlink:href="#w"/>
<use x="86.279297" xlink:href="#d"/>
<use x="147.558594" xlink:href="#t"/>
</g>
</g>
<g clip-path="url(#a)">
<defs>
<path id="r" d="m8.2031 72.906h46.875v-4.2031l-26.469-68.703h-10.297l24.906 64.594h-35.016z"/>
</defs>
<g transform="translate(671.96 434.38) scale(.1 -.1)">
<use xlink:href="#r"/>
</g>
</g>
<g clip-path="url(#a)">
<defs>
<path id="an" d="m11.719 12.406h10.297v-8.4062l-8-15.625h-6.2969l4 15.625z"/>
</defs>
<g transform="translate(722.45 434.38) scale(.1 -.1)">
<use xlink:href="#an"/>
</g>
</g>
<g clip-path="url(#a)">
<defs>
<path id="o" d="m19.188 8.2969h34.422v-8.2969h-46.281v8.2969q5.6094 5.8125 15.297 15.594 9.7031 9.7969 12.188 12.641 4.7344 5.3125 6.6094 9 1.8906 3.6875 1.8906 7.25 0 5.8125-4.0781 9.4688-4.0781 3.6719-10.625 3.6719-4.6406 0-9.7969-1.6094-5.1406-1.6094-11-4.8906v9.9688q5.9531 2.3906 11.125 3.6094 5.1875 1.2188 9.4844 1.2188 11.328 0 18.062-5.6719 6.7344-5.6562 6.7344-15.125 0-4.5-1.6875-8.5312-1.6719-4.0156-6.125-9.4844-1.2188-1.4219-7.7656-8.1875-6.5312-6.7656-18.453-18.922z"/>
<path id="s" d="m31.781 66.406q-7.6094 0-11.453-7.5-3.8281-7.4844-3.8281-22.531 0-14.984 3.8281-22.484 3.8438-7.5 11.453-7.5 7.6719 0 11.5 7.5 3.8438 7.5 3.8438 22.484 0 15.047-3.8438 22.531-3.8281 7.5-11.5 7.5zm0 7.8125q12.266 0 18.734-9.7031 6.4688-9.6875 6.4688-28.141 0-18.406-6.4688-28.109-6.4688-9.6875-18.734-9.6875-12.25 0-18.719 9.6875-6.4688 9.7031-6.4688 28.109 0 18.453 6.4688 28.141 6.4688 9.7031 18.719 9.7031z"/>
<path id="c" d="m12.406 8.2969h16.109v55.625l-17.531-3.5156v8.9844l17.438 3.5156h9.8594v-64.609h16.109v-8.2969h-41.984z"/>
<path id="af" d="m40.578 39.312q7.0781-1.5156 11.047-6.3125 3.9844-4.7812 3.9844-11.812 0-10.781-7.4219-16.703-7.4219-5.9062-21.094-5.9062-4.5781 0-9.4375 0.90625t-10.031 2.7188v9.5156q4.0938-2.3906 8.9688-3.6094 4.8906-1.2188 10.219-1.2188 9.2656 0 14.125 3.6562t4.8594 10.641q0 6.4531-4.5156 10.078-4.5156 3.6406-12.562 3.6406h-8.5v8.1094h8.8906q7.2656 0 11.125 2.9062t3.8594 8.375q0 5.6094-3.9844 8.6094-3.9688 3.0156-11.391 3.0156-4.0625 0-8.7031-0.89062-4.6406-0.875-10.203-2.7188v8.7812q5.625 1.5625 10.531 2.3438t9.25 0.78125q11.234 0 17.766-5.1094 6.5469-5.0938 6.5469-13.781 0-6.0625-3.4688-10.234t-9.8594-5.7812z"/>
</defs>
<g transform="translate(760.21 434.38) scale(.1 -.1)">
<use xlink:href="#o"/>
<use x="63.623047" xlink:href="#s"/>
<use x="127.246094" xlink:href="#c"/>
<use x="190.869141" xlink:href="#af"/>
</g>
</g>
<g clip-path="url(#a)">
<g transform="translate(820.24 434.38) scale(.1 -.1)">
<use xlink:href="#f"/>
</g>
</g>
<g clip-path="url(#a)">
<g transform="translate(261.36 24.47) scale(.1 -.1)">
<use xlink:href="#c"/>
<use x="63.623047" xlink:href="#f"/>
<use x="95.410156" xlink:href="#c"/>
</g>
</g>
<g clip-path="url(#a)">
<g transform="translate(261.36 109.35) scale(.1 -.1)">
<use xlink:href="#c"/>
<use x="63.623047" xlink:href="#f"/>
<use x="95.410156" xlink:href="#o"/>
</g>
</g>
<g clip-path="url(#a)">
<defs>
<path id="ae" d="m37.797 64.312-24.906-38.922h24.906zm-2.5938 8.5938h12.406v-47.516h10.406v-8.2031h-10.406v-17.188h-9.8125v17.188h-32.906v9.5156z"/>
</defs>
<g transform="translate(31.554 354.08) scale(.1 -.1)">
<use xlink:href="#c"/>
<use x="63.623047" xlink:href="#f"/>
<use x="95.410156" xlink:href="#ae"/>
</g>
</g>
<g clip-path="url(#a)">
<defs>
<path id="ad" d="m10.797 72.906h38.719v-8.3125h-29.688v-17.859q2.1406 0.73438 4.2812 1.0938 2.1562 0.35938 4.3125 0.35938 12.203 0 19.328-6.6875 7.1406-6.6875 7.1406-18.109 0-11.766-7.3281-18.297-7.3281-6.5156-20.656-6.5156-4.5938 0-9.3594 0.78125-4.75 0.78125-9.8281 2.3438v9.9219q4.3906-2.3906 9.0781-3.5625t9.9062-1.1719q8.4531 0 13.375 4.4375 4.9375 4.4375 4.9375 12.062 0 7.6094-4.9375 12.047-4.9219 4.4531-13.375 4.4531-3.9531 0-7.8906-0.875-3.9219-0.875-8.0156-2.7344z"/>
</defs>
<g transform="translate(80.449 354.08) scale(.1 -.1)">
<use xlink:href="#c"/>
<use x="63.623047" xlink:href="#f"/>
<use x="95.410156" xlink:href="#ad"/>
</g>
</g>
<g clip-path="url(#a)">
<defs>
<path id="ac" d="m33.016 40.375q-6.6406 0-10.531-4.5469-3.875-4.5312-3.875-12.438 0-7.8594 3.875-12.438 3.8906-4.5625 10.531-4.5625t10.516 4.5625q3.875 4.5781 3.875 12.438 0 7.9062-3.875 12.438-3.875 4.5469-10.516 4.5469zm19.578 30.922v-8.9844q-3.7188 1.75-7.5 2.6719-3.7812 0.9375-7.5 0.9375-9.7656 0-14.922-6.5938-5.1406-6.5938-5.875-19.922 2.875 4.25 7.2188 6.5156 4.3594 2.2656 9.5781 2.2656 10.984 0 17.359-6.6719 6.375-6.6562 6.375-18.125 0-11.234-6.6406-18.031-6.6406-6.7812-17.672-6.7812-12.656 0-19.344 9.6875-6.6875 9.7031-6.6875 28.109 0 17.281 8.2031 27.562t22.016 10.281q3.7188 0 7.5-0.73438t7.8906-2.1875z"/>
</defs>
<g transform="translate(129.34 354.08) scale(.1 -.1)">
<use xlink:href="#c"/>
<use x="63.623047" xlink:href="#f"/>
<use x="95.410156" xlink:href="#ac"/>
</g>
</g>
<g clip-path="url(#a)">
<g transform="translate(373.82 192.34) scale(.1 -.1)">
<use xlink:href="#c"/>
<use x="63.623047" xlink:href="#f"/>
<use x="95.410156" xlink:href="#r"/>
</g>
</g>
<g clip-path="url(#a)">
<defs>
<path id="ab" d="m31.781 34.625q-7.0312 0-11.062-3.7656-4.0156-3.7656-4.0156-10.344 0-6.5938 4.0156-10.359 4.0312-3.7656 11.062-3.7656t11.078 3.7812q4.0625 3.7969 4.0625 10.344 0 6.5781-4.0312 10.344-4.0156 3.7656-11.109 3.7656zm-9.8594 4.1875q-6.3438 1.5625-9.8906 5.9062-3.5312 4.3594-3.5312 10.609 0 8.7344 6.2188 13.812 6.2344 5.0781 17.062 5.0781 10.891 0 17.094-5.0781t6.2031-13.812q0-6.25-3.5469-10.609-3.5312-4.3438-9.8281-5.9062 7.125-1.6562 11.094-6.5 3.9844-4.8281 3.9844-11.797 0-10.609-6.4688-16.281-6.4688-5.6562-18.531-5.6562-12.047 0-18.531 5.6562-6.4688 5.6719-6.4688 16.281 0 6.9688 4 11.797 4.0156 4.8438 11.141 6.5zm-3.6094 15.578q0-5.6562 3.5312-8.8281 3.5469-3.1719 9.9375-3.1719 6.3594 0 9.9375 3.1719 3.5938 3.1719 3.5938 8.8281 0 5.6719-3.5938 8.8438-3.5781 3.1719-9.9375 3.1719-6.3906 0-9.9375-3.1719-3.5312-3.1719-3.5312-8.8438z"/>
</defs>
<g transform="translate(691.64 192.34) scale(.1 -.1)">
<use xlink:href="#c"/>
<use x="63.623047" xlink:href="#f"/>
<use x="95.410156" xlink:href="#ab"/>
</g>
</g>
<g clip-path="url(#a)">
<defs>
<path id="aa" d="m10.984 1.5156v8.9844q3.7188-1.7656 7.5156-2.6875 3.8125-0.92188 7.4844-0.92188 9.7656 0 14.906 6.5625 5.1562 6.5625 5.8906 19.953-2.8281-4.2031-7.1875-6.4531-4.3438-2.25-9.6094-2.25-10.938 0-17.312 6.6094-6.375 6.625-6.375 18.109 0 11.219 6.6406 18 6.6406 6.7969 17.672 6.7969 12.656 0 19.312-9.7031 6.6719-9.6875 6.6719-28.141 0-17.234-8.1875-27.516-8.1719-10.281-21.984-10.281-3.7188 0-7.5312 0.73438-3.7969 0.73438-7.9062 2.2031zm19.625 30.906q6.6406 0 10.516 4.5312 3.8906 4.5469 3.8906 12.469 0 7.8594-3.8906 12.422-3.875 4.5625-10.516 4.5625t-10.516-4.5625-3.875-12.422q0-7.9219 3.875-12.469 3.875-4.5312 10.516-4.5312z"/>
</defs>
<g transform="translate(569.4 354.08) scale(.1 -.1)">
<use xlink:href="#c"/>
<use x="63.623047" xlink:href="#f"/>
<use x="95.410156" xlink:href="#aa"/>
</g>
</g>
<g clip-path="url(#a)">
<g transform="translate(688.46 273.77) scale(.1 -.1)">
<use xlink:href="#c"/>
<use x="63.623047" xlink:href="#f"/>
<use x="95.410156" xlink:href="#c"/>
<use x="159.033203" xlink:href="#s"/>
</g>
</g>
<g clip-path="url(#a)">
<g transform="translate(223.95 273.77) scale(.1 -.1)">
<use xlink:href="#c"/>
<use x="63.623047" xlink:href="#f"/>
<use x="95.410156" xlink:href="#c"/>
<use x="159.033203" xlink:href="#o"/>
</g>
</g>
<g clip-path="url(#a)">
<g transform="translate(419.53 273.77) scale(.1 -.1)">
<use xlink:href="#c"/>
<use x="63.623047" xlink:href="#f"/>
<use x="95.410156" xlink:href="#c"/>
<use x="159.033203" xlink:href="#af"/>
</g>
</g>
<g clip-path="url(#a)">
<g transform="translate(517.32 354.08) scale(.1 -.1)">
<use xlink:href="#c"/>
<use x="63.623047" xlink:href="#f"/>
<use x="95.410156" xlink:href="#c"/>
<use x="159.033203" xlink:href="#ae"/>
</g>
</g>
<g clip-path="url(#a)">
<g transform="translate(223.95 354.08) scale(.1 -.1)">
<use xlink:href="#c"/>
<use x="63.623047" xlink:href="#f"/>
<use x="95.410156" xlink:href="#c"/>
<use x="159.033203" xlink:href="#ad"/>
</g>
</g>
<g clip-path="url(#a)">
<g transform="translate(370.64 354.08) scale(.1 -.1)">
<use xlink:href="#c"/>
<use x="63.623047" xlink:href="#f"/>
<use x="95.410156" xlink:href="#c"/>
<use x="159.033203" xlink:href="#ac"/>
</g>
</g>
<g clip-path="url(#a)">
<g transform="translate(468.43 354.08) scale(.1 -.1)">
<use xlink:href="#c"/>
<use x="63.623047" xlink:href="#f"/>
<use x="95.410156" xlink:href="#c"/>
<use x="159.033203" xlink:href="#r"/>
</g>
</g>
<g clip-path="url(#a)">
<g transform="translate(321.74 354.08) scale(.1 -.1)">
<use xlink:href="#c"/>
<use x="63.623047" xlink:href="#f"/>
<use x="95.410156" xlink:href="#c"/>
<use x="159.033203" xlink:href="#ab"/>
</g>
</g>
<g clip-path="url(#a)">
<g transform="translate(712.9 354.08) scale(.1 -.1)">
<use xlink:href="#c"/>
<use x="63.623047" xlink:href="#f"/>
<use x="95.410156" xlink:href="#c"/>
<use x="159.033203" xlink:href="#aa"/>
</g>
</g>
<g clip-path="url(#a)">
<g transform="translate(810.7 354.08) scale(.1 -.1)">
<use xlink:href="#c"/>
<use x="63.623047" xlink:href="#f"/>
<use x="95.410156" xlink:href="#o"/>
<use x="159.033203" xlink:href="#s"/>
</g>
</g>
<defs>
<clipPath id="a">
<rect width="861.33" height="453.33"/>
</clipPath>
</defs>
</svg>
