<?xml version="1.0" encoding="UTF-8"?>
<!DOCTYPE svg  PUBLIC '-//W3C//DTD SVG 1.1//EN'  'http://www.w3.org/Graphics/SVG/1.1/DTD/svg11.dtd'>
<svg width="1266.7pt" height="666.67pt" version="1.1" viewBox="0 0 1266.7 666.67" xmlns="http://www.w3.org/2000/svg" xmlns:xlink="http://www.w3.org/1999/xlink">
<defs>
<style type="text/css">*{stroke-linecap:butt;stroke-linejoin:round;}</style>
</defs>
<path d="m0 666.67h1266.7v-666.67h-1266.7z" fill="#fff"/>
<g fill="none" stroke="#000">
<path d="m666.54 31.41-89.612 125.04" clip-path="url(#a)"/>
<path d="m666.54 31.41 7.7164 125.04" clip-path="url(#a)"/>
<path d="m666.54 31.41 81.896 485.55" clip-path="url(#a)"/>
<path d="m576.93 156.45-133.52 122.26" clip-path="url(#a)"/>
<path d="m576.93 156.45 33.381 242.2" clip-path="url(#a)"/>
<path d="m576.93 156.45-12.662 360.5" clip-path="url(#a)"/>
<path d="m576.93 156.45 33.381 360.5" clip-path="url(#a)"/>
<path d="m576.93 156.45 79.423 360.5" clip-path="url(#a)"/>
<path d="m674.26 156.45 120.22 360.5" clip-path="url(#a)"/>
<path d="m674.26 156.45 312.07 122.26" clip-path="url(#a)"/>
<path d="m674.26 156.45-432.29 360.5" clip-path="url(#a)" stroke-dasharray="3.7,1.6"/>
<path d="m794.48 516.96v118.3" clip-path="url(#a)"/>
<path d="m986.33 278.71-99.759 119.95" clip-path="url(#a)"/>
<path d="m986.33 278.71-7.6737 238.25" clip-path="url(#a)"/>
<path d="m986.33 278.71 107.43 119.95" clip-path="url(#a)"/>
<path d="m886.57 398.65-46.042 118.3" clip-path="url(#a)"/>
<path d="m886.57 398.65v118.3" clip-path="url(#a)"/>
<path d="m886.57 398.65 46.042 118.3" clip-path="url(#a)"/>
<path d="m978.65 516.96v118.3" clip-path="url(#a)"/>
<path d="m1093.8 398.65-69.064 118.3" clip-path="url(#a)"/>
<path d="m1093.8 398.65-23.021 118.3" clip-path="url(#a)"/>
<path d="m1093.8 398.65 23.021 118.3" clip-path="url(#a)"/>
<path d="m1093.8 398.65 69.064 118.3" clip-path="url(#a)"/>
<path d="m1024.7 516.96v118.3" clip-path="url(#a)"/>
<path d="m1070.7 516.96v118.3" clip-path="url(#a)"/>
<path d="m1116.8 516.96v118.3" clip-path="url(#a)"/>
<path d="m840.52 516.96v118.3" clip-path="url(#a)"/>
<path d="m886.57 516.96v118.3" clip-path="url(#a)"/>
<path d="m932.61 516.96v118.3" clip-path="url(#a)"/>
<path d="m443.41 278.71 765.46 356.55" clip-path="url(#a)"/>
<path d="m443.41 278.71-362.58 119.95" clip-path="url(#a)"/>
<path d="m443.41 278.71-270.5 119.95" clip-path="url(#a)"/>
<path d="m443.41 278.71-132.37 119.95" clip-path="url(#a)"/>
<path d="m610.31 398.65-92.085 118.3" clip-path="url(#a)"/>
<path d="m610.31 398.65 92.085 118.3" clip-path="url(#a)"/>
<path d="m564.27 516.96v118.3" clip-path="url(#a)"/>
<path d="m610.31 516.96v118.3" clip-path="url(#a)"/>
<path d="m656.35 516.96v118.3" clip-path="url(#a)"/>
<path d="m518.23 516.96v118.3" clip-path="url(#a)"/>
<path d="m702.4 516.96v118.3" clip-path="url(#a)"/>
<path d="m80.824 398.65-23.021 118.3" clip-path="url(#a)"/>
<path d="m80.824 398.65 23.021 118.3" clip-path="url(#a)"/>
<path d="m172.91 398.65-23.021 118.3" clip-path="url(#a)"/>
<path d="m172.91 398.65 23.021 118.3" clip-path="url(#a)"/>
<path d="m311.04 398.65-69.064 118.3" clip-path="url(#a)"/>
<path d="m311.04 398.65 69.064 118.3" clip-path="url(#a)"/>
<path d="m241.97 516.96v118.3" clip-path="url(#a)"/>
<path d="m380.1 516.96-92.085 118.3" clip-path="url(#a)"/>
<path d="m380.1 516.96-46.042 118.3" clip-path="url(#a)"/>
<path d="m380.1 516.96v118.3" clip-path="url(#a)"/>
<path d="m380.1 516.96 46.042 118.3" clip-path="url(#a)"/>
<path d="m380.1 516.96 92.085 118.3" clip-path="url(#a)"/>
<path d="m149.89 516.96v118.3" clip-path="url(#a)"/>
<path d="m195.93 516.96v118.3" clip-path="url(#a)"/>
<path d="m57.802 516.96v118.3" clip-path="url(#a)"/>
<path d="m103.84 516.96v118.3" clip-path="url(#a)"/>
<path d="m748.44 516.96v118.3" clip-path="url(#a)"/>
<path d="m1162.8 516.96v118.3" clip-path="url(#a)"/>
</g>
<path d="m625.08 100.03 3.5045-4.8901q1.398-1.9508-0.55274-3.3488l-6.2933-4.5101q-1.9508-1.398-3.3488 0.55274l-3.5045 4.8901q-1.398 1.9508 0.55274 3.3488l6.2933 4.5101q1.9508 1.398 3.3488-0.55274z" clip-path="url(#a)" fill="#fff" stroke="#fff"/>
<g clip-path="url(#a)">
<defs>
<path id="ab" d="m9.8125 72.906h9.8594v-29.891h35.844v29.891h9.8594v-72.906h-9.8594v34.719h-35.844v-34.719h-9.8594z"/>
</defs>
<g transform="translate(621.78 97.662) rotate(-54.372) scale(.08 -.08)">
<use xlink:href="#ab"/>
</g>
</g>
<path d="m663.96 91.314 0.37056 6.0048q0.14782 2.3954 2.5433 2.2476l7.7278-0.47688q2.3954-0.14782 2.2476-2.5433l-0.37056-6.0048q-0.14782-2.3954-2.5433-2.2476l-7.7278 0.47688q-2.3954 0.14782-2.2476 2.5433z" clip-path="url(#a)" fill="#fff" stroke="#fff"/>
<g clip-path="url(#a)">
<g transform="translate(668.01 91.064) rotate(86.469) scale(.08 -.08)">
<use xlink:href="#ab"/>
</g>
</g>
<path d="m700.82 272.34 0.97379 5.7735q0.39916 2.3666 2.7657 1.9674l7.6347-1.2877q2.3666-0.39916 1.9674-2.7657l-0.97379-5.7735q-0.39916-2.3666-2.7657-1.9674l-7.6347 1.2877q-2.3666 0.39916-1.9674 2.7657z" clip-path="url(#a)" fill="#fff" stroke="#fff"/>
<g clip-path="url(#a)">
<defs>
<path id="ak" d="m8.6875 72.906h9.9219v-44.297q0-11.719 4.2344-16.875 4.25-5.1406 13.781-5.1406 9.4688 0 13.719 5.1406 4.25 5.1562 4.25 16.875v44.297h9.9062v-45.516q0-14.25-7.0625-21.531-7.0469-7.2812-20.812-7.2812-13.828 0-20.891 7.2812-7.0469 7.2812-7.0469 21.531z"/>
</defs>
<g transform="translate(704.83 271.66) rotate(80.426) scale(.08 -.08)">
<use xlink:href="#ak"/>
</g>
</g>
<path d="m512.39 224.05 4.0362-3.6956q1.7701-1.6207 0.14936-3.3908l-5.2285-5.7104q-1.6207-1.7701-3.3908-0.14936l-4.0362 3.6956q-1.7701 1.6207-0.14936 3.3908l5.2285 5.7104q1.6207 1.7701 3.3908 0.14936z" clip-path="url(#a)" fill="#fff" stroke="#fff"/>
<g clip-path="url(#a)">
<defs>
<path id="o" d="m34.188 63.188-13.391-36.281h26.812zm-5.5781 9.7188h11.188l27.781-72.906h-10.25l-6.6406 18.703h-32.859l-6.6406-18.703h-10.406z"/>
</defs>
<g transform="translate(509.64 221.06) rotate(-42.478) scale(.08 -.08)">
<use xlink:href="#o"/>
</g>
</g>
<path d="m587.08 276.02 0.65859 4.7786q0.32767 2.3775 2.7052 2.0499l7.67-1.0571q2.3775-0.32767 2.0499-2.7052l-0.65859-4.7786q-0.32767-2.3775-2.7052-2.0499l-7.67 1.0571q-2.3775 0.32767-2.0499 2.7052z" clip-path="url(#a)" fill="#fff" stroke="#fff"/>
<g clip-path="url(#a)">
<defs>
<path id="t" d="m19.672 64.797v-27.391h12.406q6.8906 0 10.641 3.5625 3.7656 3.5625 3.7656 10.156 0 6.5469-3.7656 10.109-3.75 3.5625-10.641 3.5625zm-9.8594 8.1094h22.266q12.266 0 18.531-5.5469 6.2812-5.5469 6.2812-16.234 0-10.797-6.2812-16.312-6.2656-5.5156-18.531-5.5156h-12.406v-29.297h-9.8594z"/>
</defs>
<g transform="translate(591.11 275.47) rotate(82.153) scale(.08 -.08)">
<use xlink:href="#t"/>
</g>
</g>
<path d="m576.76 340 0.21622-6.1562q0.084241-2.3985-2.3143-2.4828l-7.7377-0.27176q-2.3985-0.084241-2.4828 2.3143l-0.21622 6.1562q-0.084242 2.3985 2.3143 2.4828l7.7377 0.27177q2.3985 0.084241 2.4828-2.3143z" clip-path="url(#a)" fill="#fff" stroke="#fff"/>
<g clip-path="url(#a)">
<defs>
<path id="w" d="m19.672 64.797v-56.688h11.922q15.094 0 22.094 6.8281 7 6.8438 7 21.594 0 14.641-7 21.453t-22.094 6.8125zm-9.8594 8.1094h20.266q21.188 0 31.094-8.8125 9.9219-8.8125 9.9219-27.562 0-18.859-9.9688-27.703-9.9531-8.8281-31.047-8.8281h-20.266z"/>
</defs>
<g transform="translate(572.7 339.86) rotate(-87.988) scale(.08 -.08)">
<use xlink:href="#w"/>
</g>
</g>
<path d="m587.09 334.22 0.56795 6.1338q0.22128 2.3898 2.6111 2.1685l7.7095-0.71386q2.3898-0.22128 2.1685-2.6111l-0.56795-6.1338q-0.22128-2.3898-2.6111-2.1685l-7.7095 0.71386q-2.3898 0.22128-2.1685 2.6111z" clip-path="url(#a)" fill="#fff" stroke="#fff"/>
<g clip-path="url(#a)">
<g transform="translate(591.14 333.84) rotate(84.71) scale(.08 -.08)">
<use xlink:href="#w"/>
</g>
</g>
<path d="m609.93 335.38 1.1774 5.3443q0.51636 2.3438 2.8602 1.8274l7.5612-1.6658q2.3438-0.51636 1.8274-2.8602l-1.1774-5.3443q-0.51636-2.3438-2.8602-1.8274l-7.5612 1.6658q-2.3438 0.51636-1.8274 2.8602z" clip-path="url(#a)" fill="#fff" stroke="#fff"/>
<g clip-path="url(#a)">
<g transform="translate(613.9 334.51) rotate(77.576) scale(.08 -.08)">
<use xlink:href="#o"/>
</g>
</g>
<path d="m727.66 336.4 1.526 4.576q0.75925 2.2767 3.036 1.5175l7.3449-2.4494q2.2767-0.75925 1.5175-3.036l-1.526-4.576q-0.75925-2.2767-3.036-1.5175l-7.3449 2.4494q-2.2767 0.75925-1.5175 3.036z" clip-path="url(#a)" fill="#fff" stroke="#fff"/>
<g clip-path="url(#a)">
<g transform="translate(731.51 335.11) rotate(71.557) scale(.08 -.08)">
<use xlink:href="#t"/>
</g>
</g>
<path d="m825.46 222.42 5.0954 1.9962q2.2346 0.87545 3.1101-1.3592l2.8242-7.209q0.87545-2.2346-1.3592-3.1101l-5.0954-1.9962q-2.2346-0.87545-3.1101 1.3592l-2.8242 7.209q-0.87545 2.2346 1.3592 3.1101z" clip-path="url(#a)" fill="#fff" stroke="#fff"/>
<g clip-path="url(#a)">
<g transform="translate(826.94 218.64) rotate(21.394) scale(.08 -.08)">
<use xlink:href="#o"/>
</g>
</g>
<path d="m460.03 343.27 4.2028-3.5049q1.8432-1.5371 0.30607-3.3803l-4.9588-5.9462q-1.5371-1.8432-3.3803-0.30607l-4.2028 3.5049q-1.8432 1.5371-0.30607 3.3803l4.9588 5.9462q1.5371 1.8432 3.3803 0.30607z" clip-path="url(#a)" fill="#fff" stroke="#fff"/>
<g clip-path="url(#a)">
<g transform="translate(457.43 340.15) rotate(-39.826) scale(.08 -.08)">
<use xlink:href="#o"/>
</g>
</g>
<path d="m788.21 558.46v35.285q0 2.4 2.4 2.4h7.7425q2.4 0 2.4-2.4v-35.285q0-2.4-2.4-2.4h-7.7425q-2.4 0-2.4 2.4z" clip-path="url(#a)" fill="#fff" stroke="#fff"/>
<g clip-path="url(#a)">
<defs>
<path id="l" d="m-0.29688 72.906h61.672v-8.3125h-25.875v-64.594h-9.9062v64.594h-25.891z"/>
<path id="e" d="m56.203 29.594v-4.3906h-41.312q0.59375-9.2812 5.5938-14.141t13.938-4.8594q5.1719 0 10.031 1.2656t9.6562 3.8125v-8.5q-4.8438-2.0469-9.9219-3.125t-10.297-1.0781q-13.094 0-20.734 7.6094-7.6406 7.625-7.6406 20.625 0 13.422 7.25 21.297 7.25 7.8906 19.562 7.8906 11.031 0 17.453-7.1094 6.4219-7.0938 6.4219-19.297zm-8.9844 2.6406q-0.09375 7.3594-4.125 11.75-4.0312 4.4062-10.672 4.4062-7.5156 0-12.031-4.25t-5.2031-11.969z"/>
<path id="f" d="m41.109 46.297q-1.5156 0.875-3.2969 1.2812-1.7812 0.42188-3.9219 0.42188-7.625 0-11.703-4.9531t-4.0781-14.234v-28.812h-9.0312v54.688h9.0312v-8.5q2.8438 4.9844 7.375 7.3906 4.5469 2.4219 11.047 2.4219 0.92188 0 2.0469-0.125 1.125-0.10938 2.4844-0.35938z"/>
<path id="k" d="m52 44.188q3.375 6.0625 8.0625 8.9375t11.031 2.875q8.5469 0 13.188-5.9844 4.6406-5.9688 4.6406-17v-33.016h-9.0312v32.719q0 7.8594-2.7969 11.656-2.7812 3.8125-8.4844 3.8125-6.9844 0-11.047-4.6406-4.0469-4.625-4.0469-12.641v-30.906h-9.0312v32.719q0 7.9062-2.7812 11.688t-8.5938 3.7812q-6.8906 0-10.953-4.6562-4.0469-4.6562-4.0469-12.625v-30.906h-9.0312v54.688h9.0312v-8.5q3.0781 5.0312 7.375 7.4219t10.203 2.3906q5.9688 0 10.141-3.0312 4.1719-3.0156 6.1719-8.7812z"/>
<path id="d" d="m9.4219 54.688h8.9844v-54.688h-8.9844zm0 21.297h8.9844v-11.391h-8.9844z"/>
<path id="i" d="m54.891 33.016v-33.016h-8.9844v32.719q0 7.7656-3.0312 11.609-3.0312 3.8594-9.0781 3.8594-7.2812 0-11.484-4.6406-4.2031-4.625-4.2031-12.641v-30.906h-9.0312v54.688h9.0312v-8.5q3.2344 4.9375 7.5938 7.375 4.375 2.4375 10.094 2.4375 9.4219 0 14.25-5.8281 4.8438-5.8281 4.8438-17.156z"/>
<path id="g" d="m34.281 27.484q-10.891 0-15.094-2.4844t-4.2031-8.5q0-4.7812 3.1562-7.5938 3.1562-2.7969 8.5625-2.7969 7.4844 0 12 5.2969t4.5156 14.078v2zm17.922 3.7188v-31.203h-8.9844v8.2969q-3.0781-4.9688-7.6719-7.3438t-11.234-2.375q-8.3906 0-13.359 4.7188-4.9531 4.7188-4.9531 12.625 0 9.2188 6.1719 13.906 6.1875 4.6875 18.438 4.6875h12.609v0.89062q0 6.2031-4.0781 9.5938t-11.453 3.3906q-4.6875 0-9.1406-1.125-4.4375-1.125-8.5312-3.375v8.3125q4.9219 1.9062 9.5625 2.8438 4.6406 0.95312 9.0312 0.95312 11.875 0 17.734-6.1562 5.8594-6.1406 5.8594-18.641z"/>
<path id="j" d="m9.4219 75.984h8.9844v-75.984h-8.9844z"/>
</defs>
<g transform="translate(792.27 558.46) rotate(90) scale(.08 -.08)">
<use xlink:href="#l"/>
<use x="60.818359" xlink:href="#e"/>
<use x="122.341797" xlink:href="#f"/>
<use x="163.439453" xlink:href="#k"/>
<use x="260.851562" xlink:href="#d"/>
<use x="288.634766" xlink:href="#i"/>
<use x="352.013672" xlink:href="#g"/>
<use x="413.292969" xlink:href="#j"/>
</g>
</g>
<path d="m939.52 344.8 3.4993-4.2075q1.5347-1.8452-0.31057-3.3799l-5.9528-4.9509q-1.8452-1.5347-3.3799 0.31057l-3.4993 4.2075q-1.5347 1.8452 0.31057 3.3799l5.9528 4.9509q1.8452 1.5347 3.3799-0.31057z" clip-path="url(#a)" fill="#fff" stroke="#fff"/>
<g clip-path="url(#a)">
<g transform="translate(936.39 342.2) rotate(-50.25) scale(.08 -.08)">
<use xlink:href="#o"/>
</g>
</g>
<path d="m988.68 400.44 0.15529-4.8212q0.077262-2.3988-2.3215-2.476l-7.7385-0.24925q-2.3988-0.077261-2.476 2.3215l-0.15529 4.8212q-0.077262 2.3988 2.3215 2.476l7.7385 0.24925q2.3988 0.077261 2.476-2.3215z" clip-path="url(#a)" fill="#fff" stroke="#fff"/>
<g clip-path="url(#a)">
<g transform="translate(984.62 400.31) rotate(-88.155) scale(.08 -.08)">
<use xlink:href="#t"/>
</g>
</g>
<path d="m1033.5 340.83 3.6511 4.0764q1.6012 1.7878 3.389 0.18652l5.7674-5.1656q1.7878-1.6012 0.18652-3.389l-3.6511-4.0764q-1.6012-1.7878-3.389-0.18652l-5.7674 5.1656q-1.7878 1.6012-0.18652 3.389z" clip-path="url(#a)" fill="#fff" stroke="#fff"/>
<g clip-path="url(#a)">
<g transform="translate(1036.6 338.12) rotate(48.15) scale(.08 -.08)">
<use xlink:href="#o"/>
</g>
</g>
<path d="m868.47 462.44 1.8334-4.7108q0.87047-2.2366-1.3661-3.107l-7.2153-2.8082q-2.2366-0.87047-3.107 1.3661l-1.8334 4.7108q-0.87047 2.2366 1.3661 3.107l7.2153 2.8082q2.2366 0.87047 3.107-1.3661z" clip-path="url(#a)" fill="#fff" stroke="#fff"/>
<g clip-path="url(#a)">
<defs>
<path id="u" d="m9.8125 72.906h46.094v-8.3125h-36.234v-21.578h34.719v-8.2969h-34.719v-26.422h37.109v-8.2969h-46.969z"/>
</defs>
<g transform="translate(864.69 460.96) rotate(-68.734) scale(.08 -.08)">
<use xlink:href="#u"/>
</g>
</g>
<path d="m880.3 455.28v5.055q0 2.4 2.4 2.4h7.7425q2.4 0 2.4-2.4v-5.055q0-2.4-2.4-2.4h-7.7425q-2.4 0-2.4 2.4z" clip-path="url(#a)" fill="#fff" stroke="#fff"/>
<g clip-path="url(#a)">
<g transform="translate(884.36 455.28) rotate(90) scale(.08 -.08)">
<use xlink:href="#u"/>
</g>
</g>
<path d="m902.73 457.48 2.0261 5.2059q0.87047 2.2366 3.107 1.3661l7.2153-2.8082q2.2366-0.87047 1.3661-3.107l-2.0261-5.2059q-0.87047-2.2366-3.107-1.3661l-7.2153 2.8082q-2.2366 0.87047-1.3661 3.107z" clip-path="url(#a)" fill="#fff" stroke="#fff"/>
<g clip-path="url(#a)">
<defs>
<path id="r" d="m64.406 67.281v-10.391q-4.9844 4.6406-10.625 6.9219-5.6406 2.2969-11.984 2.2969-12.5 0-19.141-7.6406t-6.6406-22.094q0-14.406 6.6406-22.047t19.141-7.6406q6.3438 0 11.984 2.2969t10.625 6.9375v-10.312q-5.1719-3.5156-10.969-5.2812-5.7812-1.75-12.219-1.75-16.562 0-26.094 10.125-9.5156 10.141-9.5156 27.672 0 17.578 9.5156 27.703 9.5312 10.141 26.094 10.141 6.5312 0 12.312-1.7344 5.7969-1.7344 10.875-5.2031z"/>
</defs>
<g transform="translate(906.52 456) rotate(68.734) scale(.08 -.08)">
<use xlink:href="#r"/>
</g>
</g>
<path d="m972.38 558.46v35.285q0 2.4 2.4 2.4h7.7425q2.4 0 2.4-2.4v-35.285q0-2.4-2.4-2.4h-7.7425q-2.4 0-2.4 2.4z" clip-path="url(#a)" fill="#fff" stroke="#fff"/>
<g clip-path="url(#a)">
<g transform="translate(976.44 558.46) rotate(90) scale(.08 -.08)">
<use xlink:href="#l"/>
<use x="60.818359" xlink:href="#e"/>
<use x="122.341797" xlink:href="#f"/>
<use x="163.439453" xlink:href="#k"/>
<use x="260.851562" xlink:href="#d"/>
<use x="288.634766" xlink:href="#i"/>
<use x="352.013672" xlink:href="#g"/>
<use x="413.292969" xlink:href="#j"/>
</g>
</g>
<path d="m1063.2 463.37 2.8026-4.8006q1.21-2.0727-0.86265-3.2827l-6.6865-3.9035q-2.0727-1.21-3.2827 0.86265l-2.8026 4.8006q-1.21 2.0727 0.86265 3.2827l6.6865 3.9035q2.0727 1.21 3.2827-0.86265z" clip-path="url(#a)" fill="#fff" stroke="#fff"/>
<g clip-path="url(#a)">
<defs>
<path id="al" d="m44.391 34.188q3.1719-1.0781 6.1719-4.5938t6.0312-9.6719l10.016-19.922h-10.609l-9.3125 18.703q-3.625 7.3281-7.0156 9.7188t-9.25 2.3906h-10.75v-30.812h-9.8594v72.906h22.266q12.5 0 18.656-5.2344 6.1562-5.2188 6.1562-15.766 0-6.8906-3.2031-11.438-3.2031-4.5312-9.2969-6.2812zm-24.719 30.609v-25.875h12.406q7.125 0 10.766 3.2969t3.6406 9.6875-3.6406 9.6406-10.766 3.25z"/>
</defs>
<g transform="translate(1059.7 461.32) rotate(-59.724) scale(.08 -.08)">
<use xlink:href="#al"/>
</g>
</g>
<path d="m1087.9 461.48 0.96558-4.9619q0.45844-2.3558-1.8974-2.8142l-7.5999-1.4789q-2.3558-0.45844-2.8142 1.8974l-0.96558 4.9619q-0.45844 2.3558 1.8974 2.8142l7.5999 1.4789q2.3558 0.45844 2.8142-1.8974z" clip-path="url(#a)" fill="#fff" stroke="#fff"/>
<g clip-path="url(#a)">
<g transform="translate(1083.9 460.71) rotate(-78.988) scale(.08 -.08)">
<use xlink:href="#u"/>
</g>
</g>
<path d="m1098.6 456.26 1.0671 5.4834q0.45844 2.3558 2.8142 1.8974l7.5999-1.4789q2.3558-0.45844 1.8974-2.8142l-1.0671-5.4834q-0.45844-2.3558-2.8142-1.8974l-7.5999 1.4789q-2.3558 0.45844-1.8974 2.8142z" clip-path="url(#a)" fill="#fff" stroke="#fff"/>
<g clip-path="url(#a)">
<g transform="translate(1102.6 455.49) rotate(78.988) scale(.08 -.08)">
<use xlink:href="#r"/>
</g>
</g>
<path d="m1121.4 458.44 2.9519 5.0564q1.21 2.0727 3.2827 0.86265l6.6865-3.9035q2.0727-1.21 0.86265-3.2827l-2.9519-5.0564q-1.21-2.0727-3.2827-0.86265l-6.6865 3.9035q-2.0727 1.21-0.86265 3.2827z" clip-path="url(#a)" fill="#fff" stroke="#fff"/>
<g clip-path="url(#a)">
<g transform="translate(1124.9 456.39) rotate(59.724) scale(.08 -.08)">
<use xlink:href="#ak"/>
</g>
</g>
<path d="m1018.4 558.46v35.285q0 2.4 2.4 2.4h7.7425q2.4 0 2.4-2.4v-35.285q0-2.4-2.4-2.4h-7.7425q-2.4 0-2.4 2.4z" clip-path="url(#a)" fill="#fff" stroke="#fff"/>
<g clip-path="url(#a)">
<g transform="translate(1022.5 558.46) rotate(90) scale(.08 -.08)">
<use xlink:href="#l"/>
<use x="60.818359" xlink:href="#e"/>
<use x="122.341797" xlink:href="#f"/>
<use x="163.439453" xlink:href="#k"/>
<use x="260.851562" xlink:href="#d"/>
<use x="288.634766" xlink:href="#i"/>
<use x="352.013672" xlink:href="#g"/>
<use x="413.292969" xlink:href="#j"/>
</g>
</g>
<path d="m1064.5 558.46v35.285q0 2.4 2.4 2.4h7.7425q2.4 0 2.4-2.4v-35.285q0-2.4-2.4-2.4h-7.7425q-2.4 0-2.4 2.4z" clip-path="url(#a)" fill="#fff" stroke="#fff"/>
<g clip-path="url(#a)">
<g transform="translate(1068.5 558.46) rotate(90) scale(.08 -.08)">
<use xlink:href="#l"/>
<use x="60.818359" xlink:href="#e"/>
<use x="122.341797" xlink:href="#f"/>
<use x="163.439453" xlink:href="#k"/>
<use x="260.851562" xlink:href="#d"/>
<use x="288.634766" xlink:href="#i"/>
<use x="352.013672" xlink:href="#g"/>
<use x="413.292969" xlink:href="#j"/>
</g>
</g>
<path d="m1110.5 558.46v35.285q0 2.4 2.4 2.4h7.7425q2.4 0 2.4-2.4v-35.285q0-2.4-2.4-2.4h-7.7425q-2.4 0-2.4 2.4z" clip-path="url(#a)" fill="#fff" stroke="#fff"/>
<g clip-path="url(#a)">
<g transform="translate(1114.6 558.46) rotate(90) scale(.08 -.08)">
<use xlink:href="#l"/>
<use x="60.818359" xlink:href="#e"/>
<use x="122.341797" xlink:href="#f"/>
<use x="163.439453" xlink:href="#k"/>
<use x="260.851562" xlink:href="#d"/>
<use x="288.634766" xlink:href="#i"/>
<use x="352.013672" xlink:href="#g"/>
<use x="413.292969" xlink:href="#j"/>
</g>
</g>
<path d="m834.25 558.46v35.285q0 2.4 2.4 2.4h7.7425q2.4 0 2.4-2.4v-35.285q0-2.4-2.4-2.4h-7.7425q-2.4 0-2.4 2.4z" clip-path="url(#a)" fill="#fff" stroke="#fff"/>
<g clip-path="url(#a)">
<g transform="translate(838.32 558.46) rotate(90) scale(.08 -.08)">
<use xlink:href="#l"/>
<use x="60.818359" xlink:href="#e"/>
<use x="122.341797" xlink:href="#f"/>
<use x="163.439453" xlink:href="#k"/>
<use x="260.851562" xlink:href="#d"/>
<use x="288.634766" xlink:href="#i"/>
<use x="352.013672" xlink:href="#g"/>
<use x="413.292969" xlink:href="#j"/>
</g>
</g>
<path d="m880.3 558.46v35.285q0 2.4 2.4 2.4h7.7425q2.4 0 2.4-2.4v-35.285q0-2.4-2.4-2.4h-7.7425q-2.4 0-2.4 2.4z" clip-path="url(#a)" fill="#fff" stroke="#fff"/>
<g clip-path="url(#a)">
<g transform="translate(884.36 558.46) rotate(90) scale(.08 -.08)">
<use xlink:href="#l"/>
<use x="60.818359" xlink:href="#e"/>
<use x="122.341797" xlink:href="#f"/>
<use x="163.439453" xlink:href="#k"/>
<use x="260.851562" xlink:href="#d"/>
<use x="288.634766" xlink:href="#i"/>
<use x="352.013672" xlink:href="#g"/>
<use x="413.292969" xlink:href="#j"/>
</g>
</g>
<path d="m926.34 558.46v35.285q0 2.4 2.4 2.4h7.7425q2.4 0 2.4-2.4v-35.285q0-2.4-2.4-2.4h-7.7425q-2.4 0-2.4 2.4z" clip-path="url(#a)" fill="#fff" stroke="#fff"/>
<g clip-path="url(#a)">
<g transform="translate(930.4 558.46) rotate(90) scale(.08 -.08)">
<use xlink:href="#l"/>
<use x="60.818359" xlink:href="#e"/>
<use x="122.341797" xlink:href="#f"/>
<use x="163.439453" xlink:href="#k"/>
<use x="260.851562" xlink:href="#d"/>
<use x="288.634766" xlink:href="#i"/>
<use x="352.013672" xlink:href="#g"/>
<use x="413.292969" xlink:href="#j"/>
</g>
</g>
<path d="m821.3 461.65 4.3727 2.0368q2.1756 1.0134 3.1889-1.1622l3.2692-7.0185q1.0134-2.1756-1.1622-3.1889l-4.3727-2.0368q-2.1756-1.0134-3.1889 1.1622l-3.2692 7.0185q-1.0134 2.1756 1.1622 3.1889z" clip-path="url(#a)" fill="#fff" stroke="#fff"/>
<g clip-path="url(#a)">
<g transform="translate(823.02 457.97) rotate(24.976) scale(.08 -.08)">
<use xlink:href="#t"/>
</g>
</g>
<path d="m261.49 345.49 5.1956-1.7188q2.2786-0.75377 1.5248-3.0323l-2.4317-7.3507q-0.75377-2.2786-3.0323-1.5248l-5.1956 1.7188q-2.2786 0.75377-1.5248 3.0323l2.4317 7.3507q0.75377 2.2786 3.0323 1.5248z" clip-path="url(#a)" fill="#fff" stroke="#fff"/>
<g clip-path="url(#a)">
<g transform="translate(260.21 341.64) rotate(-18.305) scale(.08 -.08)">
<use xlink:href="#o"/>
</g>
</g>
<path d="m307.88 345.66 5.6312-2.497q2.194-0.97287 1.2211-3.1668l-3.1385-7.0779q-0.97287-2.194-3.1668-1.2211l-5.6312 2.497q-2.194 0.97287-1.2211 3.1668l3.1385 7.0779q0.97287 2.194 3.1668 1.2211z" clip-path="url(#a)" fill="#fff" stroke="#fff"/>
<g clip-path="url(#a)">
<g transform="translate(306.24 341.95) rotate(-23.914) scale(.08 -.08)">
<use xlink:href="#w"/>
</g>
</g>
<path d="m379.41 345.17 4.0553-3.6746q1.7785-1.6115 0.16694-3.39l-5.1989-5.7374q-1.6115-1.7785-3.39-0.16694l-4.0553 3.6746q-1.7785 1.6115-0.16694 3.39l5.1989 5.7374q1.6115 1.7785 3.39 0.16694z" clip-path="url(#a)" fill="#fff" stroke="#fff"/>
<g clip-path="url(#a)">
<g transform="translate(376.68 342.15) rotate(-42.181) scale(.08 -.08)">
<use xlink:href="#o"/>
</g>
</g>
<path d="m567.81 463.47 2.8263-3.6309q1.4742-1.8939-0.41969-3.3681l-6.1097-4.7558q-1.8939-1.4742-3.3681 0.41969l-2.8263 3.6309q-1.4742 1.8939 0.41969 3.3681l6.1097 4.7558q1.8939 1.4742 3.3681-0.41969z" clip-path="url(#a)" fill="#fff" stroke="#fff"/>
<g clip-path="url(#a)">
<defs>
<path id="au" d="m9.8125 72.906h41.891v-8.3125h-32.031v-21.484h28.906v-8.2969h-28.906v-34.812h-9.8594z"/>
</defs>
<g transform="translate(564.6 460.98) rotate(-52.103) scale(.08 -.08)">
<use xlink:href="#au"/>
</g>
</g>
<path d="m649.69 459.45 3.4313 4.4082q1.4742 1.8939 3.3681 0.41969l6.1097-4.7558q1.8939-1.4742 0.41969-3.3681l-3.4313-4.4082q-1.4742-1.8939-3.3681-0.41969l-6.1097 4.7558q-1.8939 1.4742-0.41969 3.3681z" clip-path="url(#a)" fill="#fff" stroke="#fff"/>
<g clip-path="url(#a)">
<g transform="translate(652.9 456.96) rotate(52.103) scale(.08 -.08)">
<use xlink:href="#r"/>
</g>
</g>
<path d="m558 558.46v35.285q0 2.4 2.4 2.4h7.7425q2.4 0 2.4-2.4v-35.285q0-2.4-2.4-2.4h-7.7425q-2.4 0-2.4 2.4z" clip-path="url(#a)" fill="#fff" stroke="#fff"/>
<g clip-path="url(#a)">
<g transform="translate(562.06 558.46) rotate(90) scale(.08 -.08)">
<use xlink:href="#l"/>
<use x="60.818359" xlink:href="#e"/>
<use x="122.341797" xlink:href="#f"/>
<use x="163.439453" xlink:href="#k"/>
<use x="260.851562" xlink:href="#d"/>
<use x="288.634766" xlink:href="#i"/>
<use x="352.013672" xlink:href="#g"/>
<use x="413.292969" xlink:href="#j"/>
</g>
</g>
<path d="m604.04 558.46v35.285q0 2.4 2.4 2.4h7.7425q2.4 0 2.4-2.4v-35.285q0-2.4-2.4-2.4h-7.7425q-2.4 0-2.4 2.4z" clip-path="url(#a)" fill="#fff" stroke="#fff"/>
<g clip-path="url(#a)">
<g transform="translate(608.1 558.46) rotate(90) scale(.08 -.08)">
<use xlink:href="#l"/>
<use x="60.818359" xlink:href="#e"/>
<use x="122.341797" xlink:href="#f"/>
<use x="163.439453" xlink:href="#k"/>
<use x="260.851562" xlink:href="#d"/>
<use x="288.634766" xlink:href="#i"/>
<use x="352.013672" xlink:href="#g"/>
<use x="413.292969" xlink:href="#j"/>
</g>
</g>
<path d="m650.08 558.46v35.285q0 2.4 2.4 2.4h7.7425q2.4 0 2.4-2.4v-35.285q0-2.4-2.4-2.4h-7.7425q-2.4 0-2.4 2.4z" clip-path="url(#a)" fill="#fff" stroke="#fff"/>
<g clip-path="url(#a)">
<g transform="translate(654.15 558.46) rotate(90) scale(.08 -.08)">
<use xlink:href="#l"/>
<use x="60.818359" xlink:href="#e"/>
<use x="122.341797" xlink:href="#f"/>
<use x="163.439453" xlink:href="#k"/>
<use x="260.851562" xlink:href="#d"/>
<use x="288.634766" xlink:href="#i"/>
<use x="352.013672" xlink:href="#g"/>
<use x="413.292969" xlink:href="#j"/>
</g>
</g>
<path d="m511.96 558.46v35.285q0 2.4 2.4 2.4h7.7425q2.4 0 2.4-2.4v-35.285q0-2.4-2.4-2.4h-7.7425q-2.4 0-2.4 2.4z" clip-path="url(#a)" fill="#fff" stroke="#fff"/>
<g clip-path="url(#a)">
<g transform="translate(516.02 558.46) rotate(90) scale(.08 -.08)">
<use xlink:href="#l"/>
<use x="60.818359" xlink:href="#e"/>
<use x="122.341797" xlink:href="#f"/>
<use x="163.439453" xlink:href="#k"/>
<use x="260.851562" xlink:href="#d"/>
<use x="288.634766" xlink:href="#i"/>
<use x="352.013672" xlink:href="#g"/>
<use x="413.292969" xlink:href="#j"/>
</g>
</g>
<path d="m696.13 558.46v35.285q0 2.4 2.4 2.4h7.7425q2.4 0 2.4-2.4v-35.285q0-2.4-2.4-2.4h-7.7425q-2.4 0-2.4 2.4z" clip-path="url(#a)" fill="#fff" stroke="#fff"/>
<g clip-path="url(#a)">
<g transform="translate(700.19 558.46) rotate(90) scale(.08 -.08)">
<use xlink:href="#l"/>
<use x="60.818359" xlink:href="#e"/>
<use x="122.341797" xlink:href="#f"/>
<use x="163.439453" xlink:href="#k"/>
<use x="260.851562" xlink:href="#d"/>
<use x="288.634766" xlink:href="#i"/>
<use x="352.013672" xlink:href="#g"/>
<use x="413.292969" xlink:href="#j"/>
</g>
</g>
<path d="m74.935 461.75 1.0671-5.4834q0.45844-2.3558-1.8974-2.8142l-7.5999-1.4789q-2.3558-0.45844-2.8142 1.8974l-1.0671 5.4834q-0.45844 2.3558 1.8974 2.8142l7.5999 1.4789q2.3558 0.45844 2.8142-1.8974z" clip-path="url(#a)" fill="#fff" stroke="#fff"/>
<g clip-path="url(#a)">
<g transform="translate(70.946 460.97) rotate(-78.988) scale(.08 -.08)">
<use xlink:href="#r"/>
</g>
</g>
<path d="m85.648 456.28 1.0618 5.4564q0.45844 2.3558 2.8142 1.8974l7.5999-1.4789q2.3558-0.45844 1.8974-2.8142l-1.0618-5.4564q-0.45844-2.3558-2.8142-1.8974l-7.5999 1.4789q-2.3558 0.45844-1.8974 2.8142z" clip-path="url(#a)" fill="#fff" stroke="#fff"/>
<g clip-path="url(#a)">
<g transform="translate(89.637 455.5) rotate(78.988) scale(.08 -.08)">
<use xlink:href="#al"/>
</g>
</g>
<path d="m167.07 461.48 0.96558-4.9619q0.45844-2.3558-1.8974-2.8142l-7.5999-1.4789q-2.3558-0.45844-2.8142 1.8974l-0.96558 4.9619q-0.45844 2.3558 1.8974 2.8142l7.5999 1.4789q2.3558 0.45844 2.8142-1.8974z" clip-path="url(#a)" fill="#fff" stroke="#fff"/>
<g clip-path="url(#a)">
<g transform="translate(163.08 460.71) rotate(-78.988) scale(.08 -.08)">
<use xlink:href="#u"/>
</g>
</g>
<path d="m177.73 456.26 1.0671 5.4834q0.45844 2.3558 2.8142 1.8974l7.5999-1.4789q2.3558-0.45844 1.8974-2.8142l-1.0671-5.4834q-0.45844-2.3558-2.8142-1.8974l-7.5999 1.4789q-2.3558 0.45844-1.8974 2.8142z" clip-path="url(#a)" fill="#fff" stroke="#fff"/>
<g clip-path="url(#a)">
<g transform="translate(181.72 455.49) rotate(78.988) scale(.08 -.08)">
<use xlink:href="#r"/>
</g>
</g>
<path d="m280.51 463.38 2.8164-4.8243q1.21-2.0727-0.86265-3.2827l-6.6865-3.9035q-2.0727-1.21-3.2827 0.86265l-2.8164 4.8243q-1.21 2.0727 0.86265 3.2827l6.6865 3.9035q2.0727 1.21 3.2827-0.86265z" clip-path="url(#a)" fill="#fff" stroke="#fff"/>
<g clip-path="url(#a)">
<g transform="translate(277 461.33) rotate(-59.724) scale(.08 -.08)">
<use xlink:href="#r"/>
</g>
</g>
<path d="m338.88 458.78 2.5486 4.3655q1.21 2.0727 3.2827 0.86265l6.6865-3.9035q2.0727-1.21 0.86265-3.2827l-2.5486-4.3655q-1.21-2.0727-3.2827-0.86265l-6.6865 3.9035q-2.0727 1.21-0.86265 3.2827z" clip-path="url(#a)" fill="#fff" stroke="#fff"/>
<g clip-path="url(#a)">
<g transform="translate(342.39 456.74) rotate(59.724) scale(.08 -.08)">
<use xlink:href="#u"/>
</g>
</g>
<path d="m235.7 558.46v35.285q0 2.4 2.4 2.4h7.7425q2.4 0 2.4-2.4v-35.285q0-2.4-2.4-2.4h-7.7425q-2.4 0-2.4 2.4z" clip-path="url(#a)" fill="#fff" stroke="#fff"/>
<g clip-path="url(#a)">
<g transform="translate(239.76 558.46) rotate(90) scale(.08 -.08)">
<use xlink:href="#l"/>
<use x="60.818359" xlink:href="#e"/>
<use x="122.341797" xlink:href="#f"/>
<use x="163.439453" xlink:href="#k"/>
<use x="260.851562" xlink:href="#d"/>
<use x="288.634766" xlink:href="#i"/>
<use x="352.013672" xlink:href="#g"/>
<use x="413.292969" xlink:href="#j"/>
</g>
</g>
<path d="m328.17 593.88 21.674-27.844q1.4742-1.8939-0.41969-3.3681l-6.1097-4.7558q-1.8939-1.4742-3.3681 0.41969l-21.674 27.844q-1.4742 1.8939 0.41969 3.3681l6.1097 4.7558q1.8939 1.4742 3.3681-0.41969z" clip-path="url(#a)" fill="#fff" stroke="#fff"/>
<g clip-path="url(#a)">
<g transform="translate(324.96 591.38) rotate(-52.103) scale(.08 -.08)">
<use xlink:href="#l"/>
<use x="60.818359" xlink:href="#e"/>
<use x="122.341797" xlink:href="#f"/>
<use x="163.439453" xlink:href="#k"/>
<use x="260.851562" xlink:href="#d"/>
<use x="288.634766" xlink:href="#i"/>
<use x="352.013672" xlink:href="#g"/>
<use x="413.292969" xlink:href="#j"/>
</g>
</g>
<path d="m356.52 594.82 12.798-32.882q0.87047-2.2366-1.3661-3.107l-7.2153-2.8082q-2.2366-0.87047-3.107 1.3661l-12.798 32.882q-0.87047 2.2366 1.3661 3.107l7.2153 2.8082q2.2366 0.87047 3.107-1.3661z" clip-path="url(#a)" fill="#fff" stroke="#fff"/>
<g clip-path="url(#a)">
<g transform="translate(352.74 593.35) rotate(-68.734) scale(.08 -.08)">
<use xlink:href="#l"/>
<use x="60.818359" xlink:href="#e"/>
<use x="122.341797" xlink:href="#f"/>
<use x="163.439453" xlink:href="#k"/>
<use x="260.851562" xlink:href="#d"/>
<use x="288.634766" xlink:href="#i"/>
<use x="352.013672" xlink:href="#g"/>
<use x="413.292969" xlink:href="#j"/>
</g>
</g>
<path d="m373.83 558.46v35.285q0 2.4 2.4 2.4h7.7425q2.4 0 2.4-2.4v-35.285q0-2.4-2.4-2.4h-7.7425q-2.4 0-2.4 2.4z" clip-path="url(#a)" fill="#fff" stroke="#fff"/>
<g clip-path="url(#a)">
<g transform="translate(377.89 558.46) rotate(90) scale(.08 -.08)">
<use xlink:href="#l"/>
<use x="60.818359" xlink:href="#e"/>
<use x="122.341797" xlink:href="#f"/>
<use x="163.439453" xlink:href="#k"/>
<use x="260.851562" xlink:href="#d"/>
<use x="288.634766" xlink:href="#i"/>
<use x="352.013672" xlink:href="#g"/>
<use x="413.292969" xlink:href="#j"/>
</g>
</g>
<path d="m390.88 561.94 12.798 32.882q0.87047 2.2366 3.107 1.3661l7.2153-2.8082q2.2366-0.87047 1.3661-3.107l-12.798-32.882q-0.87047-2.2366-3.107-1.3661l-7.2153 2.8082q-2.2366 0.87047-1.3661 3.107z" clip-path="url(#a)" fill="#fff" stroke="#fff"/>
<g clip-path="url(#a)">
<g transform="translate(394.66 560.47) rotate(68.734) scale(.08 -.08)">
<use xlink:href="#l"/>
<use x="60.818359" xlink:href="#e"/>
<use x="122.341797" xlink:href="#f"/>
<use x="163.439453" xlink:href="#k"/>
<use x="260.851562" xlink:href="#d"/>
<use x="288.634766" xlink:href="#i"/>
<use x="352.013672" xlink:href="#g"/>
<use x="413.292969" xlink:href="#j"/>
</g>
</g>
<path d="m410.36 566.04 21.674 27.844q1.4742 1.8939 3.3681 0.41969l6.1097-4.7558q1.8939-1.4742 0.41969-3.3681l-21.674-27.844q-1.4742-1.8939-3.3681-0.41969l-6.1097 4.7558q-1.8939 1.4742-0.41969 3.3681z" clip-path="url(#a)" fill="#fff" stroke="#fff"/>
<g clip-path="url(#a)">
<g transform="translate(413.56 563.54) rotate(52.103) scale(.08 -.08)">
<use xlink:href="#l"/>
<use x="60.818359" xlink:href="#e"/>
<use x="122.341797" xlink:href="#f"/>
<use x="163.439453" xlink:href="#k"/>
<use x="260.851562" xlink:href="#d"/>
<use x="288.634766" xlink:href="#i"/>
<use x="352.013672" xlink:href="#g"/>
<use x="413.292969" xlink:href="#j"/>
</g>
</g>
<path d="m143.62 558.46v35.285q0 2.4 2.4 2.4h7.7425q2.4 0 2.4-2.4v-35.285q0-2.4-2.4-2.4h-7.7425q-2.4 0-2.4 2.4z" clip-path="url(#a)" fill="#fff" stroke="#fff"/>
<g clip-path="url(#a)">
<g transform="translate(147.68 558.46) rotate(90) scale(.08 -.08)">
<use xlink:href="#l"/>
<use x="60.818359" xlink:href="#e"/>
<use x="122.341797" xlink:href="#f"/>
<use x="163.439453" xlink:href="#k"/>
<use x="260.851562" xlink:href="#d"/>
<use x="288.634766" xlink:href="#i"/>
<use x="352.013672" xlink:href="#g"/>
<use x="413.292969" xlink:href="#j"/>
</g>
</g>
<path d="m189.66 558.46v35.285q0 2.4 2.4 2.4h7.7425q2.4 0 2.4-2.4v-35.285q0-2.4-2.4-2.4h-7.7425q-2.4 0-2.4 2.4z" clip-path="url(#a)" fill="#fff" stroke="#fff"/>
<g clip-path="url(#a)">
<g transform="translate(193.72 558.46) rotate(90) scale(.08 -.08)">
<use xlink:href="#l"/>
<use x="60.818359" xlink:href="#e"/>
<use x="122.341797" xlink:href="#f"/>
<use x="163.439453" xlink:href="#k"/>
<use x="260.851562" xlink:href="#d"/>
<use x="288.634766" xlink:href="#i"/>
<use x="352.013672" xlink:href="#g"/>
<use x="413.292969" xlink:href="#j"/>
</g>
</g>
<path d="m51.531 558.46v35.285q0 2.4 2.4 2.4h7.7425q2.4 0 2.4-2.4v-35.285q0-2.4-2.4-2.4h-7.7425q-2.4 0-2.4 2.4z" clip-path="url(#a)" fill="#fff" stroke="#fff"/>
<g clip-path="url(#a)">
<g transform="translate(55.595 558.46) rotate(90) scale(.08 -.08)">
<use xlink:href="#l"/>
<use x="60.818359" xlink:href="#e"/>
<use x="122.341797" xlink:href="#f"/>
<use x="163.439453" xlink:href="#k"/>
<use x="260.851562" xlink:href="#d"/>
<use x="288.634766" xlink:href="#i"/>
<use x="352.013672" xlink:href="#g"/>
<use x="413.292969" xlink:href="#j"/>
</g>
</g>
<path d="m97.574 558.46v35.285q0 2.4 2.4 2.4h7.7425q2.4 0 2.4-2.4v-35.285q0-2.4-2.4-2.4h-7.7425q-2.4 0-2.4 2.4z" clip-path="url(#a)" fill="#fff" stroke="#fff"/>
<g clip-path="url(#a)">
<g transform="translate(101.64 558.46) rotate(90) scale(.08 -.08)">
<use xlink:href="#l"/>
<use x="60.818359" xlink:href="#e"/>
<use x="122.341797" xlink:href="#f"/>
<use x="163.439453" xlink:href="#k"/>
<use x="260.851562" xlink:href="#d"/>
<use x="288.634766" xlink:href="#i"/>
<use x="352.013672" xlink:href="#g"/>
<use x="413.292969" xlink:href="#j"/>
</g>
</g>
<path d="m742.17 558.46v35.285q0 2.4 2.4 2.4h7.7425q2.4 0 2.4-2.4v-35.285q0-2.4-2.4-2.4h-7.7425q-2.4 0-2.4 2.4z" clip-path="url(#a)" fill="#fff" stroke="#fff"/>
<g clip-path="url(#a)">
<g transform="translate(746.23 558.46) rotate(90) scale(.08 -.08)">
<use xlink:href="#l"/>
<use x="60.818359" xlink:href="#e"/>
<use x="122.341797" xlink:href="#f"/>
<use x="163.439453" xlink:href="#k"/>
<use x="260.851562" xlink:href="#d"/>
<use x="288.634766" xlink:href="#i"/>
<use x="352.013672" xlink:href="#g"/>
<use x="413.292969" xlink:href="#j"/>
</g>
</g>
<path d="m1156.6 558.46v35.285q0 2.4 2.4 2.4h7.7425q2.4 0 2.4-2.4v-35.285q0-2.4-2.4-2.4h-7.7425q-2.4 0-2.4 2.4z" clip-path="url(#a)" fill="#fff" stroke="#fff"/>
<g clip-path="url(#a)">
<g transform="translate(1160.6 558.46) rotate(90) scale(.08 -.08)">
<use xlink:href="#l"/>
<use x="60.818359" xlink:href="#e"/>
<use x="122.341797" xlink:href="#f"/>
<use x="163.439453" xlink:href="#k"/>
<use x="260.851562" xlink:href="#d"/>
<use x="288.634766" xlink:href="#i"/>
<use x="352.013672" xlink:href="#g"/>
<use x="413.292969" xlink:href="#j"/>
</g>
</g>
<defs>
<path id="b" d="m0 8.6603c2.2967 0 4.4997-0.9125 6.1237-2.5365 1.624-1.624 2.5365-3.827 2.5365-6.1237s-0.9125-4.4997-2.5365-6.1237c-1.624-1.624-3.827-2.5365-6.1237-2.5365s-4.4997 0.9125-6.1237 2.5365c-1.624 1.624-2.5365 3.827-2.5365 6.1237s0.9125 4.4997 2.5365 6.1237c1.624 1.624 3.827 2.5365 6.1237 2.5365z"/>
</defs>
<g clip-path="url(#a)">
<use x="57.80241" y="635.257157" fill="#ffffff" stroke="#ffffff" xlink:href="#b"/>
</g>
<g clip-path="url(#a)">
<use x="103.844883" y="635.257157" fill="#ffffff" stroke="#ffffff" xlink:href="#b"/>
</g>
<g clip-path="url(#a)">
<use x="149.887357" y="635.257157" fill="#ffffff" stroke="#ffffff" xlink:href="#b"/>
</g>
<g clip-path="url(#a)">
<use x="195.929831" y="635.257157" fill="#ffffff" stroke="#ffffff" xlink:href="#b"/>
</g>
<g clip-path="url(#a)">
<use x="241.972305" y="635.257157" fill="#ffffff" stroke="#ffffff" xlink:href="#b"/>
</g>
<g clip-path="url(#a)">
<use x="288.014779" y="635.257157" fill="#ffffff" stroke="#ffffff" xlink:href="#b"/>
</g>
<g clip-path="url(#a)">
<use x="334.057253" y="635.257157" fill="#ffffff" stroke="#ffffff" xlink:href="#b"/>
</g>
<g clip-path="url(#a)">
<use x="380.099727" y="635.257157" fill="#ffffff" stroke="#ffffff" xlink:href="#b"/>
</g>
<g clip-path="url(#a)">
<use x="426.142201" y="635.257157" fill="#ffffff" stroke="#ffffff" xlink:href="#b"/>
</g>
<g clip-path="url(#a)">
<use x="472.184675" y="635.257157" fill="#ffffff" stroke="#ffffff" xlink:href="#b"/>
</g>
<g clip-path="url(#a)">
<use x="518.227149" y="635.257157" fill="#ffffff" stroke="#ffffff" xlink:href="#b"/>
</g>
<g clip-path="url(#a)">
<use x="564.269622" y="635.257157" fill="#ffffff" stroke="#ffffff" xlink:href="#b"/>
</g>
<g clip-path="url(#a)">
<use x="610.312096" y="635.257157" fill="#ffffff" stroke="#ffffff" xlink:href="#b"/>
</g>
<g clip-path="url(#a)">
<use x="656.35457" y="635.257157" fill="#ffffff" stroke="#ffffff" xlink:href="#b"/>
</g>
<g clip-path="url(#a)">
<use x="702.397044" y="635.257157" fill="#ffffff" stroke="#ffffff" xlink:href="#b"/>
</g>
<g clip-path="url(#a)">
<use x="748.439518" y="635.257157" fill="#ffffff" stroke="#ffffff" xlink:href="#b"/>
</g>
<g clip-path="url(#a)">
<use x="794.481992" y="635.257157" fill="#ffffff" stroke="#ffffff" xlink:href="#b"/>
</g>
<g clip-path="url(#a)">
<use x="840.524466" y="635.257157" fill="#ffffff" stroke="#ffffff" xlink:href="#b"/>
</g>
<g clip-path="url(#a)">
<use x="886.56694" y="635.257157" fill="#ffffff" stroke="#ffffff" xlink:href="#b"/>
</g>
<g clip-path="url(#a)">
<use x="932.609414" y="635.257157" fill="#ffffff" stroke="#ffffff" xlink:href="#b"/>
</g>
<g clip-path="url(#a)">
<use x="978.651888" y="635.257157" fill="#ffffff" stroke="#ffffff" xlink:href="#b"/>
</g>
<g clip-path="url(#a)">
<use x="1024.694362" y="635.257157" fill="#ffffff" stroke="#ffffff" xlink:href="#b"/>
</g>
<g clip-path="url(#a)">
<use x="1070.736835" y="635.257157" fill="#ffffff" stroke="#ffffff" xlink:href="#b"/>
</g>
<g clip-path="url(#a)">
<use x="1116.779309" y="635.257157" fill="#ffffff" stroke="#ffffff" xlink:href="#b"/>
</g>
<g clip-path="url(#a)">
<use x="1162.821783" y="635.257157" fill="#ffffff" stroke="#ffffff" xlink:href="#b"/>
</g>
<g clip-path="url(#a)">
<use x="666.543599" y="31.409509" fill="#ffffff" stroke="#ffffff" xlink:href="#b"/>
</g>
<g clip-path="url(#a)">
<use x="576.931303" y="156.451632" fill="#ffffff" stroke="#ffffff" xlink:href="#b"/>
</g>
<g clip-path="url(#a)">
<use x="674.259977" y="156.451632" fill="#ffffff" stroke="#ffffff" xlink:href="#b"/>
</g>
<g clip-path="url(#a)">
<use x="794.481992" y="516.956042" fill="#ffffff" stroke="#ffffff" xlink:href="#b"/>
</g>
<g clip-path="url(#a)">
<use x="986.325633" y="278.708112" fill="#ffffff" stroke="#ffffff" xlink:href="#b"/>
</g>
<g clip-path="url(#a)">
<use x="886.56694" y="398.654926" fill="#ffffff" stroke="#ffffff" xlink:href="#b"/>
</g>
<g clip-path="url(#a)">
<use x="978.651888" y="516.956042" fill="#ffffff" stroke="#ffffff" xlink:href="#b"/>
</g>
<g clip-path="url(#a)">
<use x="1093.758072" y="398.654926" fill="#ffffff" stroke="#ffffff" xlink:href="#b"/>
</g>
<g clip-path="url(#a)">
<use x="1024.694362" y="516.956042" fill="#ffffff" stroke="#ffffff" xlink:href="#b"/>
</g>
<g clip-path="url(#a)">
<use x="1070.736835" y="516.956042" fill="#ffffff" stroke="#ffffff" xlink:href="#b"/>
</g>
<g clip-path="url(#a)">
<use x="1116.779309" y="516.956042" fill="#ffffff" stroke="#ffffff" xlink:href="#b"/>
</g>
<g clip-path="url(#a)">
<use x="840.524466" y="516.956042" fill="#ffffff" stroke="#ffffff" xlink:href="#b"/>
</g>
<g clip-path="url(#a)">
<use x="886.56694" y="516.956042" fill="#ffffff" stroke="#ffffff" xlink:href="#b"/>
</g>
<g clip-path="url(#a)">
<use x="932.609414" y="516.956042" fill="#ffffff" stroke="#ffffff" xlink:href="#b"/>
</g>
<g clip-path="url(#a)">
<use x="443.408128" y="278.708112" fill="#ffffff" stroke="#ffffff" xlink:href="#b"/>
</g>
<g clip-path="url(#a)">
<use x="610.312096" y="398.654926" fill="#ffffff" stroke="#ffffff" xlink:href="#b"/>
</g>
<g clip-path="url(#a)">
<use x="564.269622" y="516.956042" fill="#ffffff" stroke="#ffffff" xlink:href="#b"/>
</g>
<g clip-path="url(#a)">
<use x="610.312096" y="516.956042" fill="#ffffff" stroke="#ffffff" xlink:href="#b"/>
</g>
<g clip-path="url(#a)">
<use x="656.35457" y="516.956042" fill="#ffffff" stroke="#ffffff" xlink:href="#b"/>
</g>
<g clip-path="url(#a)">
<use x="518.227149" y="516.956042" fill="#ffffff" stroke="#ffffff" xlink:href="#b"/>
</g>
<g clip-path="url(#a)">
<use x="702.397044" y="516.956042" fill="#ffffff" stroke="#ffffff" xlink:href="#b"/>
</g>
<g clip-path="url(#a)">
<use x="1208.864257" y="635.257157" fill="#ffffff" stroke="#ffffff" xlink:href="#b"/>
</g>
<g clip-path="url(#a)">
<use x="80.823646" y="398.654926" fill="#ffffff" stroke="#ffffff" xlink:href="#b"/>
</g>
<g clip-path="url(#a)">
<use x="172.908594" y="398.654926" fill="#ffffff" stroke="#ffffff" xlink:href="#b"/>
</g>
<g clip-path="url(#a)">
<use x="311.036016" y="398.654926" fill="#ffffff" stroke="#ffffff" xlink:href="#b"/>
</g>
<g clip-path="url(#a)">
<use x="241.972305" y="516.956042" fill="#ffffff" stroke="#ffffff" xlink:href="#b"/>
</g>
<g clip-path="url(#a)">
<use x="380.099727" y="516.956042" fill="#ffffff" stroke="#ffffff" xlink:href="#b"/>
</g>
<g clip-path="url(#a)">
<use x="149.887357" y="516.956042" fill="#ffffff" stroke="#ffffff" xlink:href="#b"/>
</g>
<g clip-path="url(#a)">
<use x="195.929831" y="516.956042" fill="#ffffff" stroke="#ffffff" xlink:href="#b"/>
</g>
<g clip-path="url(#a)">
<use x="57.80241" y="516.956042" fill="#ffffff" stroke="#ffffff" xlink:href="#b"/>
</g>
<g clip-path="url(#a)">
<use x="103.844883" y="516.956042" fill="#ffffff" stroke="#ffffff" xlink:href="#b"/>
</g>
<g clip-path="url(#a)">
<use x="748.439518" y="516.956042" fill="#ffffff" stroke="#ffffff" xlink:href="#b"/>
</g>
<g clip-path="url(#a)">
<use x="1162.821783" y="516.956042" fill="#ffffff" stroke="#ffffff" xlink:href="#b"/>
</g>
<g clip-path="url(#a)">
<defs>
<path id="ag" d="m32.172-5.0781q-3.7969-9.7656-7.4219-12.734-3.6094-2.9844-9.6562-2.9844h-7.1875v7.5156h5.2812q3.7031 0 5.75 1.7656 2.0625 1.75 4.5469 8.2969l1.6094 4.0938-22.109 53.812h9.5156l17.094-42.766 17.094 42.766h9.5156z"/>
</defs>
<g transform="translate(43.371 638.02) scale(.1 -.1)">
<use xlink:href="#w"/>
<use x="77.001953" xlink:href="#ag"/>
<use x="136.181641" xlink:href="#j"/>
<use x="163.964844" xlink:href="#g"/>
<use x="225.244141" xlink:href="#i"/>
</g>
</g>
<g clip-path="url(#a)">
<defs>
<path id="aw" d="m17.922 72.906v-27.109h-8.2969v27.109z"/>
<path id="q" d="m44.281 53.078v-8.5q-3.7969 1.9531-7.9062 2.9219-4.0938 0.98438-8.5 0.98438-6.6875 0-10.031-2.0469t-3.3438-6.1562q0-3.125 2.3906-4.9062t9.625-3.3906l3.0781-0.6875q9.5625-2.0469 13.594-5.7812t4.0312-10.422q0-7.625-6.0312-12.078-6.0312-4.4375-16.578-4.4375-4.3906 0-9.1562 0.85938t-10.031 2.5625v9.2812q4.9844-2.5938 9.8125-3.8906 4.8281-1.2812 9.5781-1.2812 6.3438 0 9.75 2.1719 3.4219 2.1719 3.4219 6.125 0 3.6562-2.4688 5.6094-2.4531 1.9531-10.812 3.7656l-3.125 0.73438q-8.3438 1.75-12.062 5.3906-3.7031 3.6406-3.7031 9.9844 0 7.7188 5.4688 11.906 5.4688 4.2031 15.531 4.2031 4.9688 0 9.3594-0.73438 4.4062-0.71875 8.1094-2.1875z"/>
</defs>
<g transform="translate(99.866 638.02) scale(.1 -.1)">
<use xlink:href="#aw"/>
<use x="27.490234" xlink:href="#q"/>
</g>
</g>
<g clip-path="url(#a)">
<defs>
<path id="ao" d="m18.109 8.2031v-29h-9.0312v75.484h9.0312v-8.2969q2.8438 4.875 7.1562 7.2344 4.3281 2.375 10.328 2.375 9.9688 0 16.188-7.9062 6.2344-7.9062 6.2344-20.797t-6.2344-20.812q-6.2188-7.9062-16.188-7.9062-6 0-10.328 2.375-4.3125 2.375-7.1562 7.25zm30.578 19.094q0 9.9062-4.0781 15.547t-11.203 5.6406q-7.1406 0-11.219-5.6406t-4.0781-15.547 4.0781-15.547 11.219-5.6406q7.125 0 11.203 5.6406t4.0781 15.547z"/>
</defs>
<g transform="translate(138.46 638.02) scale(.1 -.1)">
<use xlink:href="#o"/>
<use x="68.408203" xlink:href="#ao"/>
<use x="131.884766" xlink:href="#f"/>
<use x="172.998047" xlink:href="#d"/>
<use x="200.78125" xlink:href="#j"/>
</g>
</g>
<g clip-path="url(#a)">
<defs>
<path id="c" d="m12.406 8.2969h16.109v55.625l-17.531-3.5156v8.9844l17.438 3.5156h9.8594v-64.609h16.109v-8.2969h-41.984z"/>
<path id="x" d="m10.984 1.5156v8.9844q3.7188-1.7656 7.5156-2.6875 3.8125-0.92188 7.4844-0.92188 9.7656 0 14.906 6.5625 5.1562 6.5625 5.8906 19.953-2.8281-4.2031-7.1875-6.4531-4.3438-2.25-9.6094-2.25-10.938 0-17.312 6.6094-6.375 6.625-6.375 18.109 0 11.219 6.6406 18 6.6406 6.7969 17.672 6.7969 12.656 0 19.312-9.7031 6.6719-9.6875 6.6719-28.141 0-17.234-8.1875-27.516-8.1719-10.281-21.984-10.281-3.7188 0-7.5312 0.73438-3.7969 0.73438-7.9062 2.2031zm19.625 30.906q6.6406 0 10.516 4.5312 3.8906 4.5469 3.8906 12.469 0 7.8594-3.8906 12.422-3.875 4.5625-10.516 4.5625t-10.516-4.5625-3.875-12.422q0-7.9219 3.875-12.469 3.875-4.5312 10.516-4.5312z"/>
<path id="y" d="m33.016 40.375q-6.6406 0-10.531-4.5469-3.875-4.5312-3.875-12.438 0-7.8594 3.875-12.438 3.8906-4.5625 10.531-4.5625t10.516 4.5625q3.875 4.5781 3.875 12.438 0 7.9062-3.875 12.438-3.875 4.5469-10.516 4.5469zm19.578 30.922v-8.9844q-3.7188 1.75-7.5 2.6719-3.7812 0.9375-7.5 0.9375-9.7656 0-14.922-6.5938-5.1406-6.5938-5.875-19.922 2.875 4.25 7.2188 6.5156 4.3594 2.2656 9.5781 2.2656 10.984 0 17.359-6.6719 6.375-6.6562 6.375-18.125 0-11.234-6.6406-18.031-6.6406-6.7812-17.672-6.7812-12.656 0-19.344 9.6875-6.6875 9.7031-6.6875 28.109 0 17.281 8.2031 27.562t22.016 10.281q3.7188 0 7.5-0.73438t7.8906-2.1875z"/>
<path id="z" d="m10.797 72.906h38.719v-8.3125h-29.688v-17.859q2.1406 0.73438 4.2812 1.0938 2.1562 0.35938 4.3125 0.35938 12.203 0 19.328-6.6875 7.1406-6.6875 7.1406-18.109 0-11.766-7.3281-18.297-7.3281-6.5156-20.656-6.5156-4.5938 0-9.3594 0.78125-4.75 0.78125-9.8281 2.3438v9.9219q4.3906-2.3906 9.0781-3.5625t9.9062-1.1719q8.4531 0 13.375 4.4375 4.9375 4.4375 4.9375 12.062 0 7.6094-4.9375 12.047-4.9219 4.4531-13.375 4.4531-3.9531 0-7.8906-0.875-3.9219-0.875-8.0156-2.7344z"/>
</defs>
<g transform="translate(183.2 638.02) scale(.1 -.1)">
<use xlink:href="#c"/>
<use x="63.623047" xlink:href="#x"/>
<use x="127.246094" xlink:href="#y"/>
<use x="190.869141" xlink:href="#z"/>
</g>
</g>
<g clip-path="url(#a)">
<defs>
<path id="ar" d="m48.688 27.297q0 9.9062-4.0781 15.547t-11.203 5.6406q-7.1406 0-11.219-5.6406t-4.0781-15.547 4.0781-15.547 11.219-5.6406q7.125 0 11.203 5.6406t4.0781 15.547zm-30.578 19.094q2.8438 4.875 7.1562 7.2344 4.3281 2.375 10.328 2.375 9.9688 0 16.188-7.9062 6.2344-7.9062 6.2344-20.797t-6.2344-20.812q-6.2188-7.9062-16.188-7.9062-6 0-10.328 2.375-4.3125 2.375-7.1562 7.25v-8.2031h-9.0312v75.984h9.0312z"/>
<path id="ah" d="m8.5 21.578v33.109h8.9844v-32.766q0-7.7656 3.0156-11.656 3.0312-3.875 9.0938-3.875 7.2656 0 11.484 4.6406 4.2344 4.6406 4.2344 12.656v31h8.9844v-54.688h-8.9844v8.4062q-3.2656-4.9844-7.5938-7.4062-4.3125-2.4219-10.031-2.4219-9.4219 0-14.312 5.8594-4.875 5.8594-4.875 17.141z"/>
</defs>
<g transform="translate(226.31 638.02) scale(.1 -.1)">
<use xlink:href="#g"/>
<use x="61.279297" xlink:href="#j"/>
<use x="89.0625" xlink:href="#ar"/>
<use x="152.539062" xlink:href="#ah"/>
<use x="215.917969" xlink:href="#k"/>
</g>
</g>
<g clip-path="url(#a)">
<defs>
<path id="am" d="m19.672 34.812v-26.703h15.828q7.9531 0 11.781 3.2969 3.8438 3.2969 3.8438 10.078 0 6.8438-3.8438 10.078-3.8281 3.25-11.781 3.25zm0 29.984v-21.969h14.609q7.2188 0 10.75 2.7031 3.5469 2.7188 3.5469 8.2812 0 5.5156-3.5469 8.25-3.5312 2.7344-10.75 2.7344zm-9.8594 8.1094h25.203q11.281 0 17.375-4.6875 6.1094-4.6875 6.1094-13.328 0-6.7031-3.125-10.656t-9.1875-4.9219q7.2812-1.5625 11.312-6.5312 4.0312-4.9531 4.0312-12.375 0-9.7656-6.6406-15.094-6.6406-5.3125-18.906-5.3125h-26.172z"/>
<path id="aa" d="m45.406 27.984q0 9.7656-4.0312 15.125-4.0156 5.375-11.297 5.375-7.2188 0-11.25-5.375-4.0312-5.3594-4.0312-15.125 0-9.7188 4.0312-15.094t11.25-5.375q7.2812 0 11.297 5.375 4.0312 5.375 4.0312 15.094zm8.9844-21.203q0-13.953-6.2031-20.766-6.1875-6.8125-18.984-6.8125-4.7344 0-8.9375 0.70312t-8.1562 2.1719v8.7344q3.9531-2.1406 7.8125-3.1562 3.8594-1.0312 7.8594-1.0312 8.8438 0 13.234 4.6094t4.3906 13.938v4.4531q-2.7812-4.8438-7.125-7.2344t-10.406-2.3906q-10.047 0-16.203 7.6562-6.1562 7.6719-6.1562 20.328 0 12.688 6.1562 20.344 6.1562 7.6719 16.203 7.6719 6.0625 0 10.406-2.3906t7.125-7.2188v8.2969h8.9844z"/>
</defs>
<g transform="translate(267.06 638.02) scale(.1 -.1)">
<use xlink:href="#am"/>
<use x="68.603516" xlink:href="#f"/>
<use x="109.716797" xlink:href="#d"/>
<use x="137.5" xlink:href="#i"/>
<use x="200.878906" xlink:href="#aa"/>
<use x="264.355469" xlink:href="#d"/>
<use x="292.138672" xlink:href="#i"/>
<use x="355.517578" xlink:href="#aa"/>
</g>
</g>
<g clip-path="url(#a)">
<defs>
<path id="v" d="m9.8125 72.906h9.8594v-72.906h-9.8594z"/>
<path id="n" d="m18.312 70.219v-15.531h18.5v-6.9844h-18.5v-29.688q0-6.6875 1.8281-8.5938t7.4531-1.9062h9.2188v-7.5156h-9.2188q-10.406 0-14.359 3.875-3.9531 3.8906-3.9531 14.141v29.688h-6.5938v6.9844h6.5938v15.531z"/>
</defs>
<g transform="translate(330.62 638.02) scale(.1 -.1)">
<use xlink:href="#v"/>
<use x="29.492188" xlink:href="#n"/>
</g>
</g>
<g clip-path="url(#a)">
<g transform="translate(373.9 638.02) scale(.1 -.1)">
<use xlink:href="#o"/>
<use x="68.408203" xlink:href="#j"/>
<use x="96.191406" xlink:href="#j"/>
</g>
</g>
<g clip-path="url(#a)">
<defs>
<path id="s" d="m48.781 52.594v-8.4062q-3.8125 2.1094-7.6406 3.1562t-7.7344 1.0469q-8.75 0-13.594-5.5469-4.8281-5.5312-4.8281-15.547t4.8281-15.562q4.8438-5.5312 13.594-5.5312 3.9062 0 7.7344 1.0469t7.6406 3.1562v-8.3125q-3.7656-1.75-7.7969-2.625-4.0156-0.89062-8.5625-0.89062-12.359 0-19.641 7.7656-7.2656 7.7656-7.2656 20.953 0 13.375 7.3438 21.031 7.3594 7.6719 20.156 7.6719 4.1406 0 8.0938-0.85938 3.9531-0.84375 7.6719-2.5469z"/>
<path id="ax" d="m9.0781 75.984h9.0312v-44.875l26.812 23.578h11.469l-29-25.578 30.234-29.109h-11.719l-27.797 26.703v-26.703h-9.0312z"/>
</defs>
<g transform="translate(414 638.02) scale(.1 -.1)">
<use xlink:href="#am"/>
<use x="68.603516" xlink:href="#g"/>
<use x="129.882812" xlink:href="#s"/>
<use x="184.863281" xlink:href="#ax"/>
</g>
</g>
<g clip-path="url(#a)">
<defs>
<path id="ai" d="m30.609 48.391q-7.2188 0-11.422-5.6406t-4.2031-15.453 4.1719-15.453q4.1875-5.6406 11.453-5.6406 7.1875 0 11.375 5.6562 4.2031 5.6719 4.2031 15.438 0 9.7188-4.2031 15.406-4.1875 5.6875-11.375 5.6875zm0 7.6094q11.719 0 18.406-7.625 6.7031-7.6094 6.7031-21.078 0-13.422-6.7031-21.078-6.6875-7.6406-18.406-7.6406-11.766 0-18.438 7.6406-6.6562 7.6562-6.6562 21.078 0 13.469 6.6562 21.078 6.6719 7.625 18.438 7.625z"/>
</defs>
<g transform="translate(457.42 638.02) scale(.1 -.1)">
<use xlink:href="#ab"/>
<use x="75.195312" xlink:href="#ai"/>
<use x="136.376953" xlink:href="#k"/>
<use x="233.789062" xlink:href="#e"/>
</g>
</g>
<g clip-path="url(#a)">
<defs>
<path id="an" d="m4.2031 54.688h8.9844l11.234-42.672 11.172 42.672h10.594l11.234-42.672 11.188 42.672h8.9844l-14.312-54.688h-10.594l-11.766 44.828-11.812-44.828h-10.609z"/>
</defs>
<g transform="translate(508.47 638.02) scale(.1 -.1)">
<use xlink:href="#an"/>
<use x="81.787109" xlink:href="#g"/>
<use x="143.066406" xlink:href="#q"/>
</g>
</g>
<g clip-path="url(#a)">
<g transform="translate(556.27 638.02) scale(.1 -.1)">
<use xlink:href="#ag"/>
<use x="59.179688" xlink:href="#e"/>
<use x="120.703125" xlink:href="#n"/>
</g>
</g>
<g clip-path="url(#a)">
<defs>
<path id="aj" d="m54.891 33.016v-33.016h-8.9844v32.719q0 7.7656-3.0312 11.609-3.0312 3.8594-9.0781 3.8594-7.2812 0-11.484-4.6406-4.2031-4.625-4.2031-12.641v-30.906h-9.0312v75.984h9.0312v-29.797q3.2344 4.9375 7.5938 7.375 4.375 2.4375 10.094 2.4375 9.4219 0 14.25-5.8281 4.8438-5.8281 4.8438-17.156z"/>
</defs>
<g transform="translate(590.76 638.02) scale(.1 -.1)">
<use xlink:href="#g"/>
<use x="61.279297" xlink:href="#i"/>
<use x="124.658203" xlink:href="#ai"/>
<use x="185.839844" xlink:href="#n"/>
<use x="225.048828" xlink:href="#aj"/>
<use x="288.427734" xlink:href="#e"/>
<use x="349.951172" xlink:href="#f"/>
</g>
</g>
<g clip-path="url(#a)">
<g transform="translate(637.35 638.02) scale(.1 -.1)">
<use xlink:href="#q"/>
<use x="52.099609" xlink:href="#n"/>
<use x="91.308594" xlink:href="#ag"/>
<use x="150.488281" xlink:href="#j"/>
<use x="178.271484" xlink:href="#d"/>
<use x="206.054688" xlink:href="#q"/>
<use x="258.154297" xlink:href="#n"/>
<use x="297.363281" xlink:href="#d"/>
<use x="325.146484" xlink:href="#s"/>
</g>
</g>
<g clip-path="url(#a)">
<g transform="translate(691.69 638.02) scale(.1 -.1)">
<use xlink:href="#j"/>
<use x="27.783203" xlink:href="#e"/>
<use x="89.306641" xlink:href="#g"/>
<use x="150.585938" xlink:href="#ao"/>
</g>
</g>
<g clip-path="url(#a)">
<defs>
<path id="av" d="m11.719 12.406h10.297v-8.4062l-8-15.625h-6.2969l4 15.625z"/>
</defs>
<g transform="translate(746.85 638.02) scale(.1 -.1)">
<use xlink:href="#av"/>
</g>
</g>
<g clip-path="url(#a)">
<defs>
<path id="ap" d="m37.109 75.984v-7.4844h-8.5938q-4.8281 0-6.7188-1.9531-1.875-1.9531-1.875-7.0312v-4.8281h14.797v-6.9844h-14.797v-47.703h-9.0312v47.703h-8.5938v6.9844h8.5938v3.8125q0 9.125 4.25 13.297 4.25 4.1875 13.469 4.1875z"/>
</defs>
<g transform="translate(771.66 638.02) scale(.1 -.1)">
<use xlink:href="#ap"/>
<use x="35.205078" xlink:href="#e"/>
<use x="96.728516" xlink:href="#g"/>
<use x="158.007812" xlink:href="#n"/>
<use x="197.216797" xlink:href="#ah"/>
<use x="260.595703" xlink:href="#f"/>
<use x="301.708984" xlink:href="#d"/>
<use x="329.492188" xlink:href="#i"/>
<use x="392.871094" xlink:href="#aa"/>
</g>
</g>
<g clip-path="url(#a)">
<g transform="translate(833.36 638.02) scale(.1 -.1)">
<use xlink:href="#aj"/>
<use x="63.378906" xlink:href="#d"/>
<use x="91.162109" xlink:href="#q"/>
</g>
</g>
<g clip-path="url(#a)">
<g transform="translate(876.8 638.02) scale(.1 -.1)">
<use xlink:href="#ap"/>
<use x="35.205078" xlink:href="#d"/>
<use x="62.988281" xlink:href="#f"/>
<use x="104.101562" xlink:href="#q"/>
<use x="156.201172" xlink:href="#n"/>
</g>
</g>
<g clip-path="url(#a)">
<defs>
<path id="aq" d="m45.406 46.391v29.594h8.9844v-75.984h-8.9844v8.2031q-2.8281-4.875-7.1562-7.25-4.3125-2.375-10.375-2.375-9.9062 0-16.141 7.9062-6.2188 7.9219-6.2188 20.812t6.2188 20.797q6.2344 7.9062 16.141 7.9062 6.0625 0 10.375-2.375 4.3281-2.3594 7.1562-7.2344zm-30.609-19.094q0-9.9062 4.0781-15.547t11.203-5.6406 11.219 5.6406q4.1094 5.6406 4.1094 15.547t-4.1094 15.547q-4.0938 5.6406-11.219 5.6406t-11.203-5.6406-4.0781-15.547z"/>
</defs>
<g transform="translate(906.1 638.02) scale(.1 -.1)">
<use xlink:href="#f"/>
<use x="41.082031" xlink:href="#e"/>
<use x="102.605469" xlink:href="#s"/>
<use x="157.585938" xlink:href="#ai"/>
<use x="218.767578" xlink:href="#f"/>
<use x="259.865234" xlink:href="#aq"/>
<use x="323.341797" xlink:href="#d"/>
<use x="351.125" xlink:href="#i"/>
<use x="414.503906" xlink:href="#aa"/>
<use x="477.980469" xlink:href="#q"/>
</g>
</g>
<g clip-path="url(#a)">
<g transform="translate(964.47 638.02) scale(.1 -.1)">
<use xlink:href="#k"/>
<use x="97.412109" xlink:href="#g"/>
<use x="158.691406" xlink:href="#aq"/>
<use x="222.167969" xlink:href="#e"/>
</g>
</g>
<g clip-path="url(#a)">
<g transform="translate(1014.1 638.02) scale(.1 -.1)">
<use xlink:href="#an"/>
<use x="81.787109" xlink:href="#d"/>
<use x="109.570312" xlink:href="#n"/>
<use x="148.779297" xlink:href="#aj"/>
</g>
</g>
<g clip-path="url(#a)">
<g transform="translate(1052.3 638.02) scale(.1 -.1)">
<use xlink:href="#e"/>
<use x="61.523438" xlink:href="#j"/>
<use x="89.306641" xlink:href="#e"/>
<use x="150.830078" xlink:href="#s"/>
<use x="205.810547" xlink:href="#n"/>
<use x="245.019531" xlink:href="#f"/>
<use x="286.132812" xlink:href="#d"/>
<use x="313.916016" xlink:href="#s"/>
</g>
</g>
<g clip-path="url(#a)">
<g transform="translate(1086.8 638.02) scale(.1 -.1)">
<use xlink:href="#d"/>
<use x="27.783203" xlink:href="#i"/>
<use x="91.162109" xlink:href="#q"/>
<use x="143.261719" xlink:href="#n"/>
<use x="182.470703" xlink:href="#f"/>
<use x="223.583984" xlink:href="#ah"/>
<use x="286.962891" xlink:href="#k"/>
<use x="384.375" xlink:href="#e"/>
<use x="445.898438" xlink:href="#i"/>
<use x="509.277344" xlink:href="#n"/>
<use x="548.486328" xlink:href="#q"/>
</g>
</g>
<g clip-path="url(#a)">
<defs>
<path id="h" d="m10.688 12.406h10.312v-12.406h-10.312z"/>
</defs>
<g transform="translate(1161.2 638.02) scale(.1 -.1)">
<use xlink:href="#h"/>
</g>
</g>
<g clip-path="url(#a)">
<g transform="translate(658.59 34.169) scale(.1 -.1)">
<use xlink:href="#c"/>
<use x="63.623047" xlink:href="#h"/>
<use x="95.410156" xlink:href="#c"/>
</g>
</g>
<g clip-path="url(#a)">
<defs>
<path id="m" d="m19.188 8.2969h34.422v-8.2969h-46.281v8.2969q5.6094 5.8125 15.297 15.594 9.7031 9.7969 12.188 12.641 4.7344 5.3125 6.6094 9 1.8906 3.6875 1.8906 7.25 0 5.8125-4.0781 9.4688-4.0781 3.6719-10.625 3.6719-4.6406 0-9.7969-1.6094-5.1406-1.6094-11-4.8906v9.9688q5.9531 2.3906 11.125 3.6094 5.1875 1.2188 9.4844 1.2188 11.328 0 18.062-5.6719 6.7344-5.6562 6.7344-15.125 0-4.5-1.6875-8.5312-1.6719-4.0156-6.125-9.4844-1.2188-1.4219-7.7656-8.1875-6.5312-6.7656-18.453-18.922z"/>
</defs>
<g transform="translate(568.98 159.21) scale(.1 -.1)">
<use xlink:href="#c"/>
<use x="63.623047" xlink:href="#h"/>
<use x="95.410156" xlink:href="#m"/>
</g>
</g>
<g clip-path="url(#a)">
<defs>
<path id="ae" d="m37.797 64.312-24.906-38.922h24.906zm-2.5938 8.5938h12.406v-47.516h10.406v-8.2031h-10.406v-17.188h-9.8125v17.188h-32.906v9.5156z"/>
</defs>
<g transform="translate(666.31 159.21) scale(.1 -.1)">
<use xlink:href="#c"/>
<use x="63.623047" xlink:href="#h"/>
<use x="95.410156" xlink:href="#ae"/>
</g>
</g>
<g clip-path="url(#a)">
<g transform="translate(786.53 519.72) scale(.1 -.1)">
<use xlink:href="#c"/>
<use x="63.623047" xlink:href="#h"/>
<use x="95.410156" xlink:href="#y"/>
</g>
</g>
<g clip-path="url(#a)">
<defs>
<path id="ad" d="m8.2031 72.906h46.875v-4.2031l-26.469-68.703h-10.297l24.906 64.594h-35.016z"/>
</defs>
<g transform="translate(978.37 281.47) scale(.1 -.1)">
<use xlink:href="#c"/>
<use x="63.623047" xlink:href="#h"/>
<use x="95.410156" xlink:href="#ad"/>
</g>
</g>
<g clip-path="url(#a)">
<defs>
<path id="ac" d="m31.781 34.625q-7.0312 0-11.062-3.7656-4.0156-3.7656-4.0156-10.344 0-6.5938 4.0156-10.359 4.0312-3.7656 11.062-3.7656t11.078 3.7812q4.0625 3.7969 4.0625 10.344 0 6.5781-4.0312 10.344-4.0156 3.7656-11.109 3.7656zm-9.8594 4.1875q-6.3438 1.5625-9.8906 5.9062-3.5312 4.3594-3.5312 10.609 0 8.7344 6.2188 13.812 6.2344 5.0781 17.062 5.0781 10.891 0 17.094-5.0781t6.2031-13.812q0-6.25-3.5469-10.609-3.5312-4.3438-9.8281-5.9062 7.125-1.6562 11.094-6.5 3.9844-4.8281 3.9844-11.797 0-10.609-6.4688-16.281-6.4688-5.6562-18.531-5.6562-12.047 0-18.531 5.6562-6.4688 5.6719-6.4688 16.281 0 6.9688 4 11.797 4.0156 4.8438 11.141 6.5zm-3.6094 15.578q0-5.6562 3.5312-8.8281 3.5469-3.1719 9.9375-3.1719 6.3594 0 9.9375 3.1719 3.5938 3.1719 3.5938 8.8281 0 5.6719-3.5938 8.8438-3.5781 3.1719-9.9375 3.1719-6.3906 0-9.9375-3.1719-3.5312-3.1719-3.5312-8.8438z"/>
</defs>
<g transform="translate(878.62 401.41) scale(.1 -.1)">
<use xlink:href="#c"/>
<use x="63.623047" xlink:href="#h"/>
<use x="95.410156" xlink:href="#ac"/>
</g>
</g>
<g clip-path="url(#a)">
<g transform="translate(970.7 519.72) scale(.1 -.1)">
<use xlink:href="#c"/>
<use x="63.623047" xlink:href="#h"/>
<use x="95.410156" xlink:href="#x"/>
</g>
</g>
<g clip-path="url(#a)">
<defs>
<path id="af" d="m31.781 66.406q-7.6094 0-11.453-7.5-3.8281-7.4844-3.8281-22.531 0-14.984 3.8281-22.484 3.8438-7.5 11.453-7.5 7.6719 0 11.5 7.5 3.8438 7.5 3.8438 22.484 0 15.047-3.8438 22.531-3.8281 7.5-11.5 7.5zm0 7.8125q12.266 0 18.734-9.7031 6.4688-9.6875 6.4688-28.141 0-18.406-6.4688-28.109-6.4688-9.6875-18.734-9.6875-12.25 0-18.719 9.6875-6.4688 9.7031-6.4688 28.109 0 18.453 6.4688 28.141 6.4688 9.7031 18.719 9.7031z"/>
</defs>
<g transform="translate(1082.6 401.41) scale(.1 -.1)">
<use xlink:href="#c"/>
<use x="63.623047" xlink:href="#h"/>
<use x="95.410156" xlink:href="#c"/>
<use x="159.033203" xlink:href="#af"/>
</g>
</g>
<g clip-path="url(#a)">
<g transform="translate(1013.6 519.72) scale(.1 -.1)">
<use xlink:href="#c"/>
<use x="63.623047" xlink:href="#h"/>
<use x="95.410156" xlink:href="#c"/>
<use x="159.033203" xlink:href="#c"/>
</g>
</g>
<g clip-path="url(#a)">
<g transform="translate(1059.6 519.72) scale(.1 -.1)">
<use xlink:href="#c"/>
<use x="63.623047" xlink:href="#h"/>
<use x="95.410156" xlink:href="#c"/>
<use x="159.033203" xlink:href="#m"/>
</g>
</g>
<g clip-path="url(#a)">
<defs>
<path id="p" d="m40.578 39.312q7.0781-1.5156 11.047-6.3125 3.9844-4.7812 3.9844-11.812 0-10.781-7.4219-16.703-7.4219-5.9062-21.094-5.9062-4.5781 0-9.4375 0.90625t-10.031 2.7188v9.5156q4.0938-2.3906 8.9688-3.6094 4.8906-1.2188 10.219-1.2188 9.2656 0 14.125 3.6562t4.8594 10.641q0 6.4531-4.5156 10.078-4.5156 3.6406-12.562 3.6406h-8.5v8.1094h8.8906q7.2656 0 11.125 2.9062t3.8594 8.375q0 5.6094-3.9844 8.6094-3.9688 3.0156-11.391 3.0156-4.0625 0-8.7031-0.89062-4.6406-0.875-10.203-2.7188v8.7812q5.625 1.5625 10.531 2.3438t9.25 0.78125q11.234 0 17.766-5.1094 6.5469-5.0938 6.5469-13.781 0-6.0625-3.4688-10.234t-9.8594-5.7812z"/>
</defs>
<g transform="translate(1105.6 519.72) scale(.1 -.1)">
<use xlink:href="#c"/>
<use x="63.623047" xlink:href="#h"/>
<use x="95.410156" xlink:href="#c"/>
<use x="159.033203" xlink:href="#p"/>
</g>
</g>
<g clip-path="url(#a)">
<g transform="translate(829.39 519.72) scale(.1 -.1)">
<use xlink:href="#c"/>
<use x="63.623047" xlink:href="#h"/>
<use x="95.410156" xlink:href="#c"/>
<use x="159.033203" xlink:href="#ae"/>
</g>
</g>
<g clip-path="url(#a)">
<g transform="translate(875.43 519.72) scale(.1 -.1)">
<use xlink:href="#c"/>
<use x="63.623047" xlink:href="#h"/>
<use x="95.410156" xlink:href="#c"/>
<use x="159.033203" xlink:href="#z"/>
</g>
</g>
<g clip-path="url(#a)">
<g transform="translate(921.48 519.72) scale(.1 -.1)">
<use xlink:href="#c"/>
<use x="63.623047" xlink:href="#h"/>
<use x="95.410156" xlink:href="#c"/>
<use x="159.033203" xlink:href="#y"/>
</g>
</g>
<g clip-path="url(#a)">
<g transform="translate(432.28 281.47) scale(.1 -.1)">
<use xlink:href="#c"/>
<use x="63.623047" xlink:href="#h"/>
<use x="95.410156" xlink:href="#c"/>
<use x="159.033203" xlink:href="#ad"/>
</g>
</g>
<g clip-path="url(#a)">
<g transform="translate(599.18 401.41) scale(.1 -.1)">
<use xlink:href="#c"/>
<use x="63.623047" xlink:href="#h"/>
<use x="95.410156" xlink:href="#c"/>
<use x="159.033203" xlink:href="#ac"/>
</g>
</g>
<g clip-path="url(#a)">
<g transform="translate(553.14 519.72) scale(.1 -.1)">
<use xlink:href="#c"/>
<use x="63.623047" xlink:href="#h"/>
<use x="95.410156" xlink:href="#c"/>
<use x="159.033203" xlink:href="#x"/>
</g>
</g>
<g clip-path="url(#a)">
<g transform="translate(599.18 519.72) scale(.1 -.1)">
<use xlink:href="#c"/>
<use x="63.623047" xlink:href="#h"/>
<use x="95.410156" xlink:href="#m"/>
<use x="159.033203" xlink:href="#af"/>
</g>
</g>
<g clip-path="url(#a)">
<g transform="translate(645.22 519.72) scale(.1 -.1)">
<use xlink:href="#c"/>
<use x="63.623047" xlink:href="#h"/>
<use x="95.410156" xlink:href="#m"/>
<use x="159.033203" xlink:href="#c"/>
</g>
</g>
<g clip-path="url(#a)">
<g transform="translate(507.09 519.72) scale(.1 -.1)">
<use xlink:href="#c"/>
<use x="63.623047" xlink:href="#h"/>
<use x="95.410156" xlink:href="#m"/>
<use x="159.033203" xlink:href="#m"/>
</g>
</g>
<g clip-path="url(#a)">
<g transform="translate(691.26 519.72) scale(.1 -.1)">
<use xlink:href="#c"/>
<use x="63.623047" xlink:href="#h"/>
<use x="95.410156" xlink:href="#m"/>
<use x="159.033203" xlink:href="#p"/>
</g>
</g>
<g clip-path="url(#a)">
<defs>
<path id="as" d="m9.8125 72.906h14.703l18.594-49.609 18.703 49.609h14.703v-72.906h-9.625v64.016l-18.797-50h-9.9062l-18.797 50v-64.016h-9.5781z"/>
<path id="at" d="m9.8125 72.906h9.8594v-64.609h35.5v-8.2969h-45.359z"/>
</defs>
<g transform="translate(1187.8 638.02) scale(.1 -.1)">
<use xlink:href="#v"/>
<use x="29.492188" xlink:href="#as"/>
<use x="115.771484" xlink:href="#t"/>
<use x="176.074219" xlink:href="#at"/>
<use x="231.787109" xlink:href="#v"/>
<use x="261.279297" xlink:href="#r"/>
<use x="331.103516" xlink:href="#v"/>
<use x="360.595703" xlink:href="#l"/>
</g>
</g>
<g clip-path="url(#a)">
<g transform="translate(69.691 401.41) scale(.1 -.1)">
<use xlink:href="#c"/>
<use x="63.623047" xlink:href="#h"/>
<use x="95.410156" xlink:href="#m"/>
<use x="159.033203" xlink:href="#z"/>
</g>
</g>
<g clip-path="url(#a)">
<g transform="translate(161.78 401.41) scale(.1 -.1)">
<use xlink:href="#c"/>
<use x="63.623047" xlink:href="#h"/>
<use x="95.410156" xlink:href="#m"/>
<use x="159.033203" xlink:href="#y"/>
</g>
</g>
<g clip-path="url(#a)">
<g transform="translate(299.9 401.41) scale(.1 -.1)">
<use xlink:href="#c"/>
<use x="63.623047" xlink:href="#h"/>
<use x="95.410156" xlink:href="#m"/>
<use x="159.033203" xlink:href="#ad"/>
</g>
</g>
<g clip-path="url(#a)">
<g transform="translate(230.84 519.72) scale(.1 -.1)">
<use xlink:href="#c"/>
<use x="63.623047" xlink:href="#h"/>
<use x="95.410156" xlink:href="#m"/>
<use x="159.033203" xlink:href="#ac"/>
</g>
</g>
<g clip-path="url(#a)">
<g transform="translate(368.97 519.72) scale(.1 -.1)">
<use xlink:href="#c"/>
<use x="63.623047" xlink:href="#h"/>
<use x="95.410156" xlink:href="#m"/>
<use x="159.033203" xlink:href="#x"/>
</g>
</g>
<g clip-path="url(#a)">
<g transform="translate(138.75 519.72) scale(.1 -.1)">
<use xlink:href="#c"/>
<use x="63.623047" xlink:href="#h"/>
<use x="95.410156" xlink:href="#p"/>
<use x="159.033203" xlink:href="#af"/>
</g>
</g>
<g clip-path="url(#a)">
<g transform="translate(184.8 519.72) scale(.1 -.1)">
<use xlink:href="#c"/>
<use x="63.623047" xlink:href="#h"/>
<use x="95.410156" xlink:href="#p"/>
<use x="159.033203" xlink:href="#c"/>
</g>
</g>
<g clip-path="url(#a)">
<g transform="translate(46.67 519.72) scale(.1 -.1)">
<use xlink:href="#c"/>
<use x="63.623047" xlink:href="#h"/>
<use x="95.410156" xlink:href="#p"/>
<use x="159.033203" xlink:href="#m"/>
</g>
</g>
<g clip-path="url(#a)">
<g transform="translate(92.712 519.72) scale(.1 -.1)">
<use xlink:href="#c"/>
<use x="63.623047" xlink:href="#h"/>
<use x="95.410156" xlink:href="#p"/>
<use x="159.033203" xlink:href="#p"/>
</g>
</g>
<g clip-path="url(#a)">
<g transform="translate(737.31 519.72) scale(.1 -.1)">
<use xlink:href="#c"/>
<use x="63.623047" xlink:href="#h"/>
<use x="95.410156" xlink:href="#p"/>
<use x="159.033203" xlink:href="#ae"/>
</g>
</g>
<g clip-path="url(#a)">
<g transform="translate(1151.7 519.72) scale(.1 -.1)">
<use xlink:href="#c"/>
<use x="63.623047" xlink:href="#h"/>
<use x="95.410156" xlink:href="#p"/>
<use x="159.033203" xlink:href="#z"/>
</g>
</g>
<defs>
<clipPath id="a">
<rect width="1266.7" height="666.67"/>
</clipPath>
</defs>
</svg>
