<?xml version="1.0" encoding="UTF-8"?>
<!DOCTYPE svg  PUBLIC '-//W3C//DTD SVG 1.1//EN'  'http://www.w3.org/Graphics/SVG/1.1/DTD/svg11.dtd'>
<svg width="1570.7pt" height="826.67pt" version="1.1" viewBox="0 0 1570.7 826.67" xmlns="http://www.w3.org/2000/svg" xmlns:xlink="http://www.w3.org/1999/xlink">
<defs>
<style type="text/css">*{stroke-linecap:butt;stroke-linejoin:round;}</style>
</defs>
<path d="m0 826.67h1570.7v-826.67h-1570.7z" fill="#fff"/>
<g fill="none" stroke="#000">
<path d="m685.07 38.49v131.31" clip-path="url(#a)"/>
<path d="m685.07 169.8-589.69 376.08" clip-path="url(#a)"/>
<path d="m685.07 169.8-446.94 376.08" clip-path="url(#a)"/>
<path d="m685.07 169.8-351.78 376.08" clip-path="url(#a)"/>
<path d="m685.07 169.8 95.167 128.05" clip-path="url(#a)"/>
<path d="m685.07 169.8 706.95 253.25" clip-path="url(#a)"/>
<path d="m685.07 169.8-518.32 497.23" clip-path="url(#a)"/>
<path d="m685.07 169.8 528.52 497.23" clip-path="url(#a)"/>
<path d="m685.07 169.8 576.1 497.23" clip-path="url(#a)"/>
<path d="m95.375 545.88-23.792 121.15" clip-path="url(#a)"/>
<path d="m95.375 545.88 23.792 121.15" clip-path="url(#a)"/>
<path d="m238.12 545.88-23.792 121.15" clip-path="url(#a)"/>
<path d="m238.12 545.88 23.792 121.15" clip-path="url(#a)"/>
<path d="m333.29 545.88-23.792 121.15" clip-path="url(#a)"/>
<path d="m333.29 545.88 23.792 121.15" clip-path="url(#a)"/>
<path d="m780.24 297.85 361.97 369.18" clip-path="url(#a)"/>
<path d="m780.24 297.85-375.57 369.18" clip-path="url(#a)"/>
<path d="m780.24 297.85-280.4 248.03" clip-path="url(#a)"/>
<path d="m780.24 297.85-185.24 369.18" clip-path="url(#a)"/>
<path d="m780.24 297.85-54.381 125.2" clip-path="url(#a)"/>
<path d="m780.24 297.85 243.02 369.18" clip-path="url(#a)"/>
<path d="m780.24 297.85 290.6 369.18" clip-path="url(#a)"/>
<path d="m1392 423.05-59.479 122.83" clip-path="url(#a)"/>
<path d="m1392 423.05 59.479 122.83" clip-path="url(#a)"/>
<path d="m1332.5 545.88-23.792 121.15" clip-path="url(#a)"/>
<path d="m1332.5 545.88 23.792 121.15" clip-path="url(#a)"/>
<path d="m1451.5 545.88-47.583 121.15" clip-path="url(#a)"/>
<path d="m1451.5 545.88v121.15" clip-path="url(#a)"/>
<path d="m1451.5 545.88 47.583 121.15" clip-path="url(#a)"/>
<path d="m1403.9 667.03v121.15" clip-path="url(#a)"/>
<path d="m1451.5 667.03v121.15" clip-path="url(#a)"/>
<path d="m1308.8 667.03v121.15" clip-path="url(#a)"/>
<path d="m1356.3 667.03v121.15" clip-path="url(#a)"/>
<path d="m1142.2 667.03-23.792 121.15" clip-path="url(#a)"/>
<path d="m1142.2 667.03 23.792 121.15" clip-path="url(#a)"/>
<path d="m404.67 667.03v121.15" clip-path="url(#a)"/>
<path d="m499.83 545.88-47.583 121.15" clip-path="url(#a)"/>
<path d="m499.83 545.88 47.583 121.15" clip-path="url(#a)"/>
<path d="m499.83 545.88v121.15" clip-path="url(#a)"/>
<path d="m595 667.03v121.15" clip-path="url(#a)"/>
<path d="m725.85 423.05-130.85 243.98" clip-path="url(#a)" stroke-dasharray="3.7,1.6"/>
<path d="m725.85 423.05-83.271 243.98" clip-path="url(#a)"/>
<path d="m725.85 423.05-35.688 243.98" clip-path="url(#a)"/>
<path d="m725.85 423.05 59.479 122.83" clip-path="url(#a)"/>
<path d="m725.85 423.05 190.33 122.83" clip-path="url(#a)"/>
<path d="m642.58 667.03v121.15" clip-path="url(#a)"/>
<path d="m690.17 667.03v121.15" clip-path="url(#a)"/>
<path d="m785.33 545.88-47.583 121.15" clip-path="url(#a)"/>
<path d="m785.33 545.88 47.583 121.15" clip-path="url(#a)"/>
<path d="m785.33 545.88v121.15" clip-path="url(#a)"/>
<path d="m916.19 545.88-35.688 121.15" clip-path="url(#a)"/>
<path d="m916.19 545.88 35.688 121.15" clip-path="url(#a)"/>
<path d="m880.5 667.03v121.15" clip-path="url(#a)"/>
<path d="m951.88 667.03-23.792 121.15" clip-path="url(#a)"/>
<path d="m951.88 667.03 23.792 121.15" clip-path="url(#a)"/>
<path d="m737.75 667.03v121.15" clip-path="url(#a)"/>
<path d="m832.92 667.03v121.15" clip-path="url(#a)"/>
<path d="m452.25 667.03v121.15" clip-path="url(#a)"/>
<path d="m166.75 667.03v121.15" clip-path="url(#a)"/>
<path d="m547.42 667.03v121.15" clip-path="url(#a)"/>
<path d="m309.5 667.03v121.15" clip-path="url(#a)"/>
<path d="m357.08 667.03v121.15" clip-path="url(#a)"/>
<path d="m214.33 667.03v121.15" clip-path="url(#a)"/>
<path d="m261.92 667.03v121.15" clip-path="url(#a)"/>
<path d="m71.583 667.03v121.15" clip-path="url(#a)"/>
<path d="m119.17 667.03v121.15" clip-path="url(#a)"/>
<path d="m499.83 667.03v121.15" clip-path="url(#a)"/>
<path d="m785.33 667.03v121.15" clip-path="url(#a)"/>
<path d="m1023.3 667.03v121.15" clip-path="url(#a)"/>
<path d="m1070.8 667.03v121.15" clip-path="url(#a)"/>
<path d="m1213.6 667.03v121.15" clip-path="url(#a)"/>
<path d="m1261.2 667.03v121.15" clip-path="url(#a)"/>
<path d="m1499.1 667.03v121.15" clip-path="url(#a)"/>
</g>
<path d="m678.8 101.14v6.0162q0 2.4 2.4 2.4h7.7425q2.4 0 2.4-2.4v-6.0162q0-2.4-2.4-2.4h-7.7425q-2.4 0-2.4 2.4z" clip-path="url(#a)" fill="#fff" stroke="#fff"/>
<g clip-path="url(#a)">
<defs>
<path id="aq" d="m9.8125 72.906h9.8594v-29.891h35.844v29.891h9.8594v-72.906h-9.8594v34.719h-35.844v-34.719h-9.8594z"/>
</defs>
<g transform="translate(682.86 101.14) rotate(90) scale(.08 -.08)">
<use xlink:href="#aq"/>
</g>
</g>
<path d="m391 364.78 5.1937-3.3123q2.0235-1.2905 0.733-3.314l-4.1632-6.5279q-1.2905-2.0235-3.314-0.733l-5.1937 3.3123q-2.0235 1.2905-0.733 3.314l4.1632 6.5279q1.2905 2.0235 3.314 0.733z" clip-path="url(#a)" fill="#fff" stroke="#fff"/>
<g clip-path="url(#a)">
<defs>
<path id="aj" d="m19.672 64.797v-56.688h11.922q15.094 0 22.094 6.8281 7 6.8438 7 21.594 0 14.641-7 21.453t-22.094 6.8125zm-9.8594 8.1094h20.266q21.188 0 31.094-8.8125 9.9219-8.8125 9.9219-27.562 0-18.859-9.9688-27.703-9.9531-8.8281-31.047-8.8281h-20.266z"/>
</defs>
<g transform="translate(388.81 361.36) rotate(-32.528) scale(.08 -.08)">
<use xlink:href="#aj"/>
</g>
</g>
<path d="m463.54 364.4 4.1873-3.5234q1.8364-1.5452 0.29115-3.3816l-4.985-5.9242q-1.5452-1.8364-3.3816-0.29115l-4.1873 3.5234q-1.8364 1.5452-0.29115 3.3816l4.985 5.9242q1.5452 1.8364 3.3816 0.29115z" clip-path="url(#a)" fill="#fff" stroke="#fff"/>
<g clip-path="url(#a)">
<defs>
<path id="t" d="m34.188 63.188-13.391-36.281h26.812zm-5.5781 9.7188h11.188l27.781-72.906h-10.25l-6.6406 18.703h-32.859l-6.6406-18.703h-10.406z"/>
</defs>
<g transform="translate(460.92 361.29) rotate(-40.079) scale(.08 -.08)">
<use xlink:href="#t"/>
</g>
</g>
<path d="m512.11 363.89 3.2952-3.5228q1.6395-1.7527-0.11328-3.3922l-5.6544-5.289q-1.7527-1.6395-3.3922 0.11328l-3.2952 3.5228q-1.6395 1.7527 0.11327 3.3922l5.6544 5.289q1.7527 1.6395 3.3922-0.11327z" clip-path="url(#a)" fill="#fff" stroke="#fff"/>
<g clip-path="url(#a)">
<defs>
<path id="ag" d="m19.672 64.797v-27.391h12.406q6.8906 0 10.641 3.5625 3.7656 3.5625 3.7656 10.156 0 6.5469-3.7656 10.109-3.75 3.5625-10.641 3.5625zm-9.8594 8.1094h22.266q12.266 0 18.531-5.5469 6.2812-5.5469 6.2812-16.234 0-10.797-6.2812-16.312-6.2656-5.5156-18.531-5.5156h-12.406v-29.297h-9.8594z"/>
</defs>
<g transform="translate(509.14 361.11) rotate(-46.913) scale(.08 -.08)">
<use xlink:href="#ag"/>
</g>
</g>
<path d="m725.99 235.37 3.2643 4.3923q1.4316 1.9263 3.3579 0.49468l6.2142-4.6184q1.9263-1.4316 0.49468-3.3579l-3.2643-4.3923q-1.4316-1.9263-3.3579-0.49468l-6.2142 4.6184q-1.9263 1.4316-0.49468 3.3579z" clip-path="url(#a)" fill="#fff" stroke="#fff"/>
<g clip-path="url(#a)">
<g transform="translate(729.25 232.95) rotate(53.38) scale(.08 -.08)">
<use xlink:href="#t"/>
</g>
</g>
<path d="m1033.9 301.41 5.1519 1.8456q2.2594 0.80938 3.0688-1.45l2.6111-7.2889q0.80938-2.2594-1.45-3.0688l-5.1519-1.8456q-2.2594-0.80938-3.0688 1.45l-2.6111 7.2889q-0.80938 2.2594 1.45 3.0688z" clip-path="url(#a)" fill="#fff" stroke="#fff"/>
<g clip-path="url(#a)">
<g transform="translate(1035.2 297.58) rotate(19.709) scale(.08 -.08)">
<use xlink:href="#t"/>
</g>
</g>
<path d="m428.14 424.97 4.2252-4.0533q1.7319-1.6615 0.070468-3.3934l-5.3599-5.5873q-1.6615-1.7319-3.3934-0.070468l-4.2252 4.0533q-1.7319 1.6615-0.070468 3.3934l5.3599 5.5873q1.6615 1.7319 3.3934 0.070468z" clip-path="url(#a)" fill="#fff" stroke="#fff"/>
<g clip-path="url(#a)">
<defs>
<path id="r" d="m8.6875 72.906h9.9219v-44.297q0-11.719 4.2344-16.875 4.25-5.1406 13.781-5.1406 9.4688 0 13.719 5.1406 4.25 5.1562 4.25 16.875v44.297h9.9062v-45.516q0-14.25-7.0625-21.531-7.0469-7.2812-20.812-7.2812-13.828 0-20.891 7.2812-7.0469 7.2812-7.0469 21.531z"/>
</defs>
<g transform="translate(425.32 422.03) rotate(-43.81) scale(.08 -.08)">
<use xlink:href="#r"/>
</g>
</g>
<path d="m942.9 420.98 4.2644 4.012q1.748 1.6445 3.3925-0.10347l5.3053-5.6391q1.6445-1.748-0.10347-3.3925l-4.2644-4.012q-1.748-1.6445-3.3925 0.10347l-5.3053 5.6391q-1.6445 1.748 0.10347 3.3925z" clip-path="url(#a)" fill="#fff" stroke="#fff"/>
<g clip-path="url(#a)">
<g transform="translate(945.68 418.02) rotate(43.253) scale(.08 -.08)">
<use xlink:href="#r"/>
</g>
</g>
<path d="m966.8 421.25 4.4324 3.8256q1.8169 1.5681 3.385-0.24873l5.0588-5.8613q1.5681-1.8169-0.24873-3.385l-4.4324-3.8256q-1.8169-1.5681-3.385 0.24873l-5.0588 5.8613q-1.5681 1.8169 0.24873 3.385z" clip-path="url(#a)" fill="#fff" stroke="#fff"/>
<g clip-path="url(#a)">
<g transform="translate(969.46 418.17) rotate(40.797) scale(.08 -.08)">
<use xlink:href="#r"/>
</g>
</g>
<path d="m89.097 610.39 1.0712-5.4546q0.46249-2.355-1.8925-2.8175l-7.5974-1.492q-2.355-0.46249-2.8175 1.8925l-1.0712 5.4546q-0.46249 2.355 1.8925 2.8175l7.5974 1.492q2.355 0.46249 2.8175-1.8925z" clip-path="url(#a)" fill="#fff" stroke="#fff"/>
<g clip-path="url(#a)">
<defs>
<path id="aa" d="m44.391 34.188q3.1719-1.0781 6.1719-4.5938t6.0312-9.6719l10.016-19.922h-10.609l-9.3125 18.703q-3.625 7.3281-7.0156 9.7188t-9.25 2.3906h-10.75v-30.812h-9.8594v72.906h22.266q12.5 0 18.656-5.2344 6.1562-5.2188 6.1562-15.766 0-6.8906-3.2031-11.438-3.2031-4.5312-9.2969-6.2812zm-24.719 30.609v-25.875h12.406q7.125 0 10.766 3.2969t3.6406 9.6875-3.6406 9.6406-10.766 3.25z"/>
</defs>
<g transform="translate(85.109 609.61) rotate(-78.889) scale(.08 -.08)">
<use xlink:href="#aa"/>
</g>
</g>
<path d="m100.58 604.92 1.0765 5.4815q0.46249 2.355 2.8175 1.8925l7.5974-1.492q2.355-0.46249 1.8925-2.8175l-1.0765-5.4815q-0.46249-2.355-2.8175-1.8925l-7.5974 1.492q-2.355 0.46249-1.8925 2.8175z" clip-path="url(#a)" fill="#fff" stroke="#fff"/>
<g clip-path="url(#a)">
<defs>
<path id="q" d="m64.406 67.281v-10.391q-4.9844 4.6406-10.625 6.9219-5.6406 2.2969-11.984 2.2969-12.5 0-19.141-7.6406t-6.6406-22.094q0-14.406 6.6406-22.047t19.141-7.6406q6.3438 0 11.984 2.2969t10.625 6.9375v-10.312q-5.1719-3.5156-10.969-5.2812-5.7812-1.75-12.219-1.75-16.562 0-26.094 10.125-9.5156 10.141-9.5156 27.672 0 17.578 9.5156 27.703 9.5312 10.141 26.094 10.141 6.5312 0 12.312-1.7344 5.7969-1.7344 10.875-5.2031z"/>
</defs>
<g transform="translate(104.57 604.14) rotate(78.889) scale(.08 -.08)">
<use xlink:href="#q"/>
</g>
</g>
<path d="m231.9 610.14 0.97412-4.9603q0.46249-2.355-1.8925-2.8175l-7.5974-1.492q-2.355-0.46249-2.8175 1.8925l-0.97412 4.9603q-0.46249 2.355 1.8925 2.8175l7.5974 1.492q2.355 0.46249 2.8175-1.8925z" clip-path="url(#a)" fill="#fff" stroke="#fff"/>
<g clip-path="url(#a)">
<defs>
<path id="p" d="m9.8125 72.906h46.094v-8.3125h-36.234v-21.578h34.719v-8.2969h-34.719v-26.422h37.109v-8.2969h-46.969z"/>
</defs>
<g transform="translate(227.91 609.36) rotate(-78.889) scale(.08 -.08)">
<use xlink:href="#p"/>
</g>
</g>
<path d="m243.33 604.92 1.0765 5.4815q0.46249 2.355 2.8175 1.8925l7.5974-1.492q2.355-0.46249 1.8925-2.8175l-1.0765-5.4815q-0.46249-2.355-2.8175-1.8925l-7.5974 1.492q-2.355 0.46249-1.8925 2.8175z" clip-path="url(#a)" fill="#fff" stroke="#fff"/>
<g clip-path="url(#a)">
<g transform="translate(247.32 604.14) rotate(78.889) scale(.08 -.08)">
<use xlink:href="#q"/>
</g>
</g>
<path d="m327.06 610.14 0.97412-4.9603q0.46249-2.355-1.8925-2.8175l-7.5974-1.492q-2.355-0.46249-2.8175 1.8925l-0.97412 4.9603q-0.46249 2.355 1.8925 2.8175l7.5974 1.492q2.355 0.46249 2.8175-1.8925z" clip-path="url(#a)" fill="#fff" stroke="#fff"/>
<g clip-path="url(#a)">
<g transform="translate(323.07 609.36) rotate(-78.889) scale(.08 -.08)">
<use xlink:href="#p"/>
</g>
</g>
<path d="m338.5 604.92 1.0765 5.4815q0.46249 2.355 2.8175 1.8925l7.5974-1.492q2.355-0.46249 1.8925-2.8175l-1.0765-5.4815q-0.46249-2.355-2.8175-1.8925l-7.5974 1.492q-2.355 0.46249-1.8925 2.8175z" clip-path="url(#a)" fill="#fff" stroke="#fff"/>
<g clip-path="url(#a)">
<g transform="translate(342.48 604.14) rotate(78.889) scale(.08 -.08)">
<use xlink:href="#q"/>
</g>
</g>
<path d="m954.97 485.03 3.539 3.6095q1.6802 1.7137 3.3939 0.033446l5.5285-5.4206q1.7137-1.6802 0.033447-3.3939l-3.539-3.6095q-1.6803-1.7137-3.3939-0.033446l-5.5285 5.4206q-1.7137 1.6803-0.033446 3.3939z" clip-path="url(#a)" fill="#fff" stroke="#fff"/>
<g clip-path="url(#a)">
<g transform="translate(957.88 482.18) rotate(45.565) scale(.08 -.08)">
<use xlink:href="#p"/>
</g>
</g>
<path d="m595.04 488.68 3.605-3.5436q1.7116-1.6824 0.02912-3.394l-5.4276-5.5215q-1.6824-1.7116-3.394-0.029121l-3.605 3.5436q-1.7116 1.6824-0.02912 3.394l5.4276 5.5215q1.6824 1.7116 3.394 0.029121z" clip-path="url(#a)" fill="#fff" stroke="#fff"/>
<g clip-path="url(#a)">
<g transform="translate(592.2 485.79) rotate(-44.508) scale(.08 -.08)">
<use xlink:href="#p"/>
</g>
</g>
<path d="m642.3 428.24 3.7863-3.3492q1.7976-1.5901 0.20753-3.3878l-5.1298-5.7993q-1.5901-1.7976-3.3878-0.20753l-3.7863 3.3492q-1.7976 1.5901-0.20753 3.3878l5.1298 5.7993q1.5901 1.7976 3.3878 0.20753z" clip-path="url(#a)" fill="#fff" stroke="#fff"/>
<g clip-path="url(#a)">
<g transform="translate(639.6 425.19) rotate(-41.495) scale(.08 -.08)">
<use xlink:href="#p"/>
</g>
</g>
<path d="m691.97 487.75 2.5052-4.993q1.0763-2.1451-1.0688-3.2214l-6.9203-3.4722q-2.1451-1.0763-3.2214 1.0688l-2.5052 4.993q-1.0763 2.1451 1.0688 3.2214l6.9203 3.4722q2.1451 1.0763 3.2214-1.0688z" clip-path="url(#a)" fill="#fff" stroke="#fff"/>
<g clip-path="url(#a)">
<g transform="translate(688.34 485.93) rotate(-63.355) scale(.08 -.08)">
<use xlink:href="#q"/>
</g>
</g>
<path d="m757.79 365.27 2.0139-4.6365q0.95616-2.2013-1.2452-3.1575l-7.1015-3.0846q-2.2013-0.95616-3.1575 1.2452l-2.0139 4.6365q-0.95616 2.2013 1.2452 3.1575l7.1015 3.0846q2.2013 0.95616 3.1575-1.2451z" clip-path="url(#a)" fill="#fff" stroke="#fff"/>
<g clip-path="url(#a)">
<g transform="translate(754.06 363.65) rotate(-66.522) scale(.08 -.08)">
<use xlink:href="#p"/>
</g>
</g>
<path d="m894.89 483.44 3.2192 4.8906q1.3196 2.0047 3.3243 0.68508l6.4671-4.257q2.0047-1.3196 0.68508-3.3243l-3.2192-4.8906q-1.3196-2.0047-3.3243-0.68508l-6.4671 4.257q-2.0047 1.3196-0.68508 3.3243z" clip-path="url(#a)" fill="#fff" stroke="#fff"/>
<g clip-path="url(#a)">
<g transform="translate(898.29 481.21) rotate(56.645) scale(.08 -.08)">
<use xlink:href="#r"/>
</g>
</g>
<path d="m918.8 484.02 3.6214 4.6007q1.4844 1.8858 3.3703 0.40141l6.0838-4.7889q1.8858-1.4844 0.40141-3.3703l-3.6214-4.6007q-1.4844-1.8858-3.3703-0.40141l-6.0838 4.7889q-1.8858 1.4844-0.40141 3.3703z" clip-path="url(#a)" fill="#fff" stroke="#fff"/>
<g clip-path="url(#a)">
<g transform="translate(921.99 481.51) rotate(51.792) scale(.08 -.08)">
<use xlink:href="#r"/>
</g>
</g>
<path d="m1366.9 489.37 2.1023-4.3415q1.046-2.1601-1.1141-3.2061l-6.9685-3.3744q-2.1601-1.046-3.2061 1.1141l-2.1023 4.3415q-1.046 2.1601 1.1141 3.2061l6.9685 3.3744q2.1601 1.046 3.2061-1.1141z" clip-path="url(#a)" fill="#fff" stroke="#fff"/>
<g clip-path="url(#a)">
<g transform="translate(1363.2 487.6) rotate(-64.162) scale(.08 -.08)">
<use xlink:href="#ag"/>
</g>
</g>
<path d="m1414.9 484.74 2.385 4.9254q1.046 2.1601 3.2061 1.1141l6.9685-3.3743q2.1601-1.046 1.1141-3.2061l-2.385-4.9254q-1.046-2.1601-3.2061-1.1141l-6.9685 3.3743q-2.1601 1.046-1.1141 3.2061z" clip-path="url(#a)" fill="#fff" stroke="#fff"/>
<g clip-path="url(#a)">
<g transform="translate(1418.6 482.96) rotate(64.162) scale(.08 -.08)">
<use xlink:href="#t"/>
</g>
</g>
<path d="m1326.3 610.14 0.97412-4.9603q0.46249-2.355-1.8925-2.8175l-7.5974-1.492q-2.355-0.46249-2.8175 1.8925l-0.97412 4.9603q-0.46249 2.355 1.8925 2.8175l7.5974 1.492q2.355 0.46249 2.8175-1.8925z" clip-path="url(#a)" fill="#fff" stroke="#fff"/>
<g clip-path="url(#a)">
<g transform="translate(1322.3 609.36) rotate(-78.889) scale(.08 -.08)">
<use xlink:href="#p"/>
</g>
</g>
<path d="m1337.7 604.92 1.0765 5.4815q0.46249 2.355 2.8175 1.8925l7.5974-1.492q2.355-0.46249 1.8925-2.8175l-1.0765-5.4815q-0.46249-2.355-2.8175-1.8925l-7.5974 1.492q-2.355 0.46249-1.8925 2.8175z" clip-path="url(#a)" fill="#fff" stroke="#fff"/>
<g clip-path="url(#a)">
<g transform="translate(1341.7 604.14) rotate(78.889) scale(.08 -.08)">
<use xlink:href="#q"/>
</g>
</g>
<path d="m1432.5 611.34 2.0322-5.174q0.8774-2.2339-1.3565-3.1113l-7.2066-2.8305q-2.2339-0.8774-3.1113 1.3565l-2.0322 5.174q-0.8774 2.2339 1.3565 3.1113l7.2066 2.8305q2.2339 0.8774 3.1113-1.3565z" clip-path="url(#a)" fill="#fff" stroke="#fff"/>
<g clip-path="url(#a)">
<g transform="translate(1428.7 609.85) rotate(-68.557) scale(.08 -.08)">
<use xlink:href="#aa"/>
</g>
</g>
<path d="m1445.2 603.66v5.5862q0 2.4 2.4 2.4h7.7425q2.4 0 2.4-2.4v-5.5862q0-2.4-2.4-2.4h-7.7425q-2.4 0-2.4 2.4z" clip-path="url(#a)" fill="#fff" stroke="#fff"/>
<g clip-path="url(#a)">
<g transform="translate(1449.3 603.66) rotate(90) scale(.08 -.08)">
<use xlink:href="#q"/>
</g>
</g>
<path d="m1468.4 606.02 2.1405 5.4497q0.8774 2.2339 3.1113 1.3565l7.2066-2.8305q2.2339-0.8774 1.3565-3.1113l-2.1405-5.4497q-0.8774-2.2339-3.1113-1.3565l-7.2066 2.8305q-2.2339 0.8774-1.3565 3.1113z" clip-path="url(#a)" fill="#fff" stroke="#fff"/>
<g clip-path="url(#a)">
<g transform="translate(1472.2 604.54) rotate(68.557) scale(.08 -.08)">
<use xlink:href="#r"/>
</g>
</g>
<path d="m1397.6 709.96v35.285q0 2.4 2.4 2.4h7.7425q2.4 0 2.4-2.4v-35.285q0-2.4-2.4-2.4h-7.7425q-2.4 0-2.4 2.4z" clip-path="url(#a)" fill="#fff" stroke="#fff"/>
<g clip-path="url(#a)">
<defs>
<path id="l" d="m-0.29688 72.906h61.672v-8.3125h-25.875v-64.594h-9.9062v64.594h-25.891z"/>
<path id="e" d="m56.203 29.594v-4.3906h-41.312q0.59375-9.2812 5.5938-14.141t13.938-4.8594q5.1719 0 10.031 1.2656t9.6562 3.8125v-8.5q-4.8438-2.0469-9.9219-3.125t-10.297-1.0781q-13.094 0-20.734 7.6094-7.6406 7.625-7.6406 20.625 0 13.422 7.25 21.297 7.25 7.8906 19.562 7.8906 11.031 0 17.453-7.1094 6.4219-7.0938 6.4219-19.297zm-8.9844 2.6406q-0.09375 7.3594-4.125 11.75-4.0312 4.4062-10.672 4.4062-7.5156 0-12.031-4.25t-5.2031-11.969z"/>
<path id="h" d="m41.109 46.297q-1.5156 0.875-3.2969 1.2812-1.7812 0.42188-3.9219 0.42188-7.625 0-11.703-4.9531t-4.0781-14.234v-28.812h-9.0312v54.688h9.0312v-8.5q2.8438 4.9844 7.375 7.3906 4.5469 2.4219 11.047 2.4219 0.92188 0 2.0469-0.125 1.125-0.10938 2.4844-0.35938z"/>
<path id="k" d="m52 44.188q3.375 6.0625 8.0625 8.9375t11.031 2.875q8.5469 0 13.188-5.9844 4.6406-5.9688 4.6406-17v-33.016h-9.0312v32.719q0 7.8594-2.7969 11.656-2.7812 3.8125-8.4844 3.8125-6.9844 0-11.047-4.6406-4.0469-4.625-4.0469-12.641v-30.906h-9.0312v32.719q0 7.9062-2.7812 11.688t-8.5938 3.7812q-6.8906 0-10.953-4.6562-4.0469-4.6562-4.0469-12.625v-30.906h-9.0312v54.688h9.0312v-8.5q3.0781 5.0312 7.375 7.4219t10.203 2.3906q5.9688 0 10.141-3.0312 4.1719-3.0156 6.1719-8.7812z"/>
<path id="f" d="m9.4219 54.688h8.9844v-54.688h-8.9844zm0 21.297h8.9844v-11.391h-8.9844z"/>
<path id="i" d="m54.891 33.016v-33.016h-8.9844v32.719q0 7.7656-3.0312 11.609-3.0312 3.8594-9.0781 3.8594-7.2812 0-11.484-4.6406-4.2031-4.625-4.2031-12.641v-30.906h-9.0312v54.688h9.0312v-8.5q3.2344 4.9375 7.5938 7.375 4.375 2.4375 10.094 2.4375 9.4219 0 14.25-5.8281 4.8438-5.8281 4.8438-17.156z"/>
<path id="g" d="m34.281 27.484q-10.891 0-15.094-2.4844t-4.2031-8.5q0-4.7812 3.1562-7.5938 3.1562-2.7969 8.5625-2.7969 7.4844 0 12 5.2969t4.5156 14.078v2zm17.922 3.7188v-31.203h-8.9844v8.2969q-3.0781-4.9688-7.6719-7.3438t-11.234-2.375q-8.3906 0-13.359 4.7188-4.9531 4.7188-4.9531 12.625 0 9.2188 6.1719 13.906 6.1875 4.6875 18.438 4.6875h12.609v0.89062q0 6.2031-4.0781 9.5938t-11.453 3.3906q-4.6875 0-9.1406-1.125-4.4375-1.125-8.5312-3.375v8.3125q4.9219 1.9062 9.5625 2.8438 4.6406 0.95312 9.0312 0.95312 11.875 0 17.734-6.1562 5.8594-6.1406 5.8594-18.641z"/>
<path id="j" d="m9.4219 75.984h8.9844v-75.984h-8.9844z"/>
</defs>
<g transform="translate(1401.7 709.96) rotate(90) scale(.08 -.08)">
<use xlink:href="#l"/>
<use x="60.818359" xlink:href="#e"/>
<use x="122.341797" xlink:href="#h"/>
<use x="163.439453" xlink:href="#k"/>
<use x="260.851562" xlink:href="#f"/>
<use x="288.634766" xlink:href="#i"/>
<use x="352.013672" xlink:href="#g"/>
<use x="413.292969" xlink:href="#j"/>
</g>
</g>
<path d="m1445.2 709.96v35.285q0 2.4 2.4 2.4h7.7425q2.4 0 2.4-2.4v-35.285q0-2.4-2.4-2.4h-7.7425q-2.4 0-2.4 2.4z" clip-path="url(#a)" fill="#fff" stroke="#fff"/>
<g clip-path="url(#a)">
<g transform="translate(1449.3 709.96) rotate(90) scale(.08 -.08)">
<use xlink:href="#l"/>
<use x="60.818359" xlink:href="#e"/>
<use x="122.341797" xlink:href="#h"/>
<use x="163.439453" xlink:href="#k"/>
<use x="260.851562" xlink:href="#f"/>
<use x="288.634766" xlink:href="#i"/>
<use x="352.013672" xlink:href="#g"/>
<use x="413.292969" xlink:href="#j"/>
</g>
</g>
<path d="m1302.5 709.96v35.285q0 2.4 2.4 2.4h7.7425q2.4 0 2.4-2.4v-35.285q0-2.4-2.4-2.4h-7.7425q-2.4 0-2.4 2.4z" clip-path="url(#a)" fill="#fff" stroke="#fff"/>
<g clip-path="url(#a)">
<g transform="translate(1306.5 709.96) rotate(90) scale(.08 -.08)">
<use xlink:href="#l"/>
<use x="60.818359" xlink:href="#e"/>
<use x="122.341797" xlink:href="#h"/>
<use x="163.439453" xlink:href="#k"/>
<use x="260.851562" xlink:href="#f"/>
<use x="288.634766" xlink:href="#i"/>
<use x="352.013672" xlink:href="#g"/>
<use x="413.292969" xlink:href="#j"/>
</g>
</g>
<path d="m1350.1 709.96v35.285q0 2.4 2.4 2.4h7.7425q2.4 0 2.4-2.4v-35.285q0-2.4-2.4-2.4h-7.7425q-2.4 0-2.4 2.4z" clip-path="url(#a)" fill="#fff" stroke="#fff"/>
<g clip-path="url(#a)">
<g transform="translate(1354.1 709.96) rotate(90) scale(.08 -.08)">
<use xlink:href="#l"/>
<use x="60.818359" xlink:href="#e"/>
<use x="122.341797" xlink:href="#h"/>
<use x="163.439453" xlink:href="#k"/>
<use x="260.851562" xlink:href="#f"/>
<use x="288.634766" xlink:href="#i"/>
<use x="352.013672" xlink:href="#g"/>
<use x="413.292969" xlink:href="#j"/>
</g>
</g>
<path d="m1133.1 746.12 6.7996-34.624q0.46249-2.355-1.8925-2.8175l-7.5974-1.492q-2.355-0.46249-2.8175 1.8925l-6.7996 34.624q-0.46249 2.355 1.8925 2.8175l7.5974 1.492q2.355 0.46249 2.8175-1.8925z" clip-path="url(#a)" fill="#fff" stroke="#fff"/>
<g clip-path="url(#a)">
<g transform="translate(1129.1 745.34) rotate(-78.889) scale(.08 -.08)">
<use xlink:href="#l"/>
<use x="60.818359" xlink:href="#e"/>
<use x="122.341797" xlink:href="#h"/>
<use x="163.439453" xlink:href="#k"/>
<use x="260.851562" xlink:href="#f"/>
<use x="288.634766" xlink:href="#i"/>
<use x="352.013672" xlink:href="#g"/>
<use x="413.292969" xlink:href="#j"/>
</g>
</g>
<path d="m1144.6 711.5 6.7996 34.624q0.46249 2.355 2.8175 1.8925l7.5974-1.492q2.355-0.46249 1.8925-2.8175l-6.7996-34.624q-0.46249-2.355-2.8175-1.8925l-7.5974 1.492q-2.355 0.46249-1.8925 2.8175z" clip-path="url(#a)" fill="#fff" stroke="#fff"/>
<g clip-path="url(#a)">
<g transform="translate(1148.5 710.72) rotate(78.889) scale(.08 -.08)">
<use xlink:href="#l"/>
<use x="60.818359" xlink:href="#e"/>
<use x="122.341797" xlink:href="#h"/>
<use x="163.439453" xlink:href="#k"/>
<use x="260.851562" xlink:href="#f"/>
<use x="288.634766" xlink:href="#i"/>
<use x="352.013672" xlink:href="#g"/>
<use x="413.292969" xlink:href="#j"/>
</g>
</g>
<path d="m398.4 709.96v35.285q0 2.4 2.4 2.4h7.7425q2.4 0 2.4-2.4v-35.285q0-2.4-2.4-2.4h-7.7425q-2.4 0-2.4 2.4z" clip-path="url(#a)" fill="#fff" stroke="#fff"/>
<g clip-path="url(#a)">
<g transform="translate(402.46 709.96) rotate(90) scale(.08 -.08)">
<use xlink:href="#l"/>
<use x="60.818359" xlink:href="#e"/>
<use x="122.341797" xlink:href="#h"/>
<use x="163.439453" xlink:href="#k"/>
<use x="260.851562" xlink:href="#f"/>
<use x="288.634766" xlink:href="#i"/>
<use x="352.013672" xlink:href="#g"/>
<use x="413.292969" xlink:href="#j"/>
</g>
</g>
<path d="m480.95 611.1 1.848-4.7051q0.8774-2.2339-1.3565-3.1113l-7.2066-2.8305q-2.2339-0.8774-3.1113 1.3565l-1.848 4.7051q-0.8774 2.2339 1.3565 3.1113l7.2066 2.8305q2.2339 0.8774 3.1113-1.3565z" clip-path="url(#a)" fill="#fff" stroke="#fff"/>
<g clip-path="url(#a)">
<g transform="translate(477.17 609.62) rotate(-68.557) scale(.08 -.08)">
<use xlink:href="#p"/>
</g>
</g>
<path d="m516.77 606.15 2.0422 5.1996q0.8774 2.2339 3.1113 1.3565l7.2066-2.8305q2.2339-0.8774 1.3565-3.1113l-2.0422-5.1996q-0.8774-2.2339-3.1113-1.3565l-7.2066 2.8305q-2.2339 0.8774-1.3565 3.1113z" clip-path="url(#a)" fill="#fff" stroke="#fff"/>
<g clip-path="url(#a)">
<g transform="translate(520.55 604.66) rotate(68.557) scale(.08 -.08)">
<use xlink:href="#q"/>
</g>
</g>
<path d="m493.56 603.53v5.855q0 2.4 2.4 2.4h7.7425q2.4 0 2.4-2.4v-5.855q0-2.4-2.4-2.4h-7.7425q-2.4 0-2.4 2.4z" clip-path="url(#a)" fill="#fff" stroke="#fff"/>
<g clip-path="url(#a)">
<g transform="translate(497.63 603.53) rotate(90) scale(.08 -.08)">
<use xlink:href="#r"/>
</g>
</g>
<path d="m588.73 709.96v35.285q0 2.4 2.4 2.4h7.7425q2.4 0 2.4-2.4v-35.285q0-2.4-2.4-2.4h-7.7425q-2.4 0-2.4 2.4z" clip-path="url(#a)" fill="#fff" stroke="#fff"/>
<g clip-path="url(#a)">
<g transform="translate(592.79 709.96) rotate(90) scale(.08 -.08)">
<use xlink:href="#l"/>
<use x="60.818359" xlink:href="#e"/>
<use x="122.341797" xlink:href="#h"/>
<use x="163.439453" xlink:href="#k"/>
<use x="260.851562" xlink:href="#f"/>
<use x="288.634766" xlink:href="#i"/>
<use x="352.013672" xlink:href="#g"/>
<use x="413.292969" xlink:href="#j"/>
</g>
</g>
<path d="m664.66 550.41 2.5865-4.8227q1.1343-2.115-0.98066-3.2494l-6.8231-3.6594q-2.115-1.1343-3.2494 0.98066l-2.5865 4.8227q-1.1343 2.115 0.98066 3.2494l6.8231 3.6594q2.115 1.1343 3.2494-0.98066z" clip-path="url(#a)" fill="#fff" stroke="#fff"/>
<g clip-path="url(#a)">
<g transform="translate(661.08 548.49) rotate(-61.794) scale(.08 -.08)">
<use xlink:href="#t"/>
</g>
</g>
<path d="m689.26 549.7 1.7955-5.2608q0.77522-2.2714-1.4961-3.0466l-7.3275-2.5009q-2.2714-0.77522-3.0466 1.4961l-1.7955 5.2608q-0.77522 2.2714 1.4961 3.0466l7.3275 2.5009q2.2714 0.77522 3.0466-1.4961z" clip-path="url(#a)" fill="#fff" stroke="#fff"/>
<g clip-path="url(#a)">
<g transform="translate(685.41 548.38) rotate(-71.155) scale(.08 -.08)">
<use xlink:href="#aa"/>
</g>
</g>
<path d="m713.82 548.65 0.79204-5.4149q0.34736-2.3747-2.0274-2.7221l-7.661-1.1206q-2.3747-0.34736-2.7221 2.0274l-0.79204 5.4149q-0.34736 2.3747 2.0274 2.7221l7.661 1.1206q2.3747 0.34736 2.7221-2.0274z" clip-path="url(#a)" fill="#fff" stroke="#fff"/>
<g clip-path="url(#a)">
<g transform="translate(709.8 548.07) rotate(-81.678) scale(.08 -.08)">
<use xlink:href="#t"/>
</g>
</g>
<path d="m748.9 485.03 2.1023 4.3415q1.046 2.1601 3.2061 1.1141l6.9685-3.3744q2.1601-1.046 1.1141-3.2061l-2.1023-4.3415q-1.046-2.1601-3.2061-1.1141l-6.9685 3.3744q-2.1601 1.046-1.1141 3.2061z" clip-path="url(#a)" fill="#fff" stroke="#fff"/>
<g clip-path="url(#a)">
<g transform="translate(752.56 483.26) rotate(64.162) scale(.08 -.08)">
<use xlink:href="#ag"/>
</g>
</g>
<path d="m815.32 488.25 4.5981 2.9674q2.0165 1.3014 3.3179-0.71515l4.1983-6.5054q1.3014-2.0165-0.71515-3.3179l-4.5981-2.9674q-2.0165-1.3014-3.3179 0.71515l-4.1983 6.5054q-1.3014 2.0165 0.71515 3.3179z" clip-path="url(#a)" fill="#fff" stroke="#fff"/>
<g clip-path="url(#a)">
<g transform="translate(817.52 484.84) rotate(32.836) scale(.08 -.08)">
<use xlink:href="#t"/>
</g>
</g>
<path d="m636.31 709.96v35.285q0 2.4 2.4 2.4h7.7425q2.4 0 2.4-2.4v-35.285q0-2.4-2.4-2.4h-7.7425q-2.4 0-2.4 2.4z" clip-path="url(#a)" fill="#fff" stroke="#fff"/>
<g clip-path="url(#a)">
<g transform="translate(640.38 709.96) rotate(90) scale(.08 -.08)">
<use xlink:href="#l"/>
<use x="60.818359" xlink:href="#e"/>
<use x="122.341797" xlink:href="#h"/>
<use x="163.439453" xlink:href="#k"/>
<use x="260.851562" xlink:href="#f"/>
<use x="288.634766" xlink:href="#i"/>
<use x="352.013672" xlink:href="#g"/>
<use x="413.292969" xlink:href="#j"/>
</g>
</g>
<path d="m683.9 709.96v35.285q0 2.4 2.4 2.4h7.7425q2.4 0 2.4-2.4v-35.285q0-2.4-2.4-2.4h-7.7425q-2.4 0-2.4 2.4z" clip-path="url(#a)" fill="#fff" stroke="#fff"/>
<g clip-path="url(#a)">
<g transform="translate(687.96 709.96) rotate(90) scale(.08 -.08)">
<use xlink:href="#l"/>
<use x="60.818359" xlink:href="#e"/>
<use x="122.341797" xlink:href="#h"/>
<use x="163.439453" xlink:href="#k"/>
<use x="260.851562" xlink:href="#f"/>
<use x="288.634766" xlink:href="#i"/>
<use x="352.013672" xlink:href="#g"/>
<use x="413.292969" xlink:href="#j"/>
</g>
</g>
<path d="m766.45 611.1 1.848-4.7051q0.8774-2.2339-1.3565-3.1113l-7.2066-2.8305q-2.2339-0.8774-3.1113 1.3565l-1.848 4.7051q-0.8774 2.2339 1.3565 3.1113l7.2066 2.8305q2.2339 0.8774 3.1113-1.3565z" clip-path="url(#a)" fill="#fff" stroke="#fff"/>
<g clip-path="url(#a)">
<g transform="translate(762.67 609.62) rotate(-68.557) scale(.08 -.08)">
<use xlink:href="#p"/>
</g>
</g>
<path d="m802.27 606.15 2.0422 5.1996q0.8774 2.2339 3.1113 1.3565l7.2066-2.8305q2.2339-0.8774 1.3565-3.1113l-2.0422-5.1996q-0.8774-2.2339-3.1113-1.3565l-7.2066 2.8305q-2.2339 0.8774-1.3565 3.1113z" clip-path="url(#a)" fill="#fff" stroke="#fff"/>
<g clip-path="url(#a)">
<g transform="translate(806.05 604.66) rotate(68.557) scale(.08 -.08)">
<use xlink:href="#q"/>
</g>
</g>
<path d="m779.06 603.53v5.855q0 2.4 2.4 2.4h7.7425q2.4 0 2.4-2.4v-5.855q0-2.4-2.4-2.4h-7.7425q-2.4 0-2.4 2.4z" clip-path="url(#a)" fill="#fff" stroke="#fff"/>
<g clip-path="url(#a)">
<g transform="translate(783.13 603.53) rotate(90) scale(.08 -.08)">
<use xlink:href="#r"/>
</g>
</g>
<path d="m903.57 610.89 1.5708-5.3322q0.67818-2.3022-1.624-2.9804l-7.427-2.1878q-2.3022-0.67818-2.9804 1.624l-1.5708 5.3322q-0.67818 2.3022 1.624 2.9804l7.427 2.1878q2.3022 0.67818 2.9804-1.624z" clip-path="url(#a)" fill="#fff" stroke="#fff"/>
<g clip-path="url(#a)">
<g transform="translate(899.68 609.75) rotate(-73.586) scale(.08 -.08)">
<use xlink:href="#aa"/>
</g>
</g>
<path d="m927.23 605.55 1.5785 5.3586q0.67818 2.3022 2.9804 1.624l7.427-2.1878q2.3022-0.67818 1.624-2.9804l-1.5785-5.3586q-0.67818-2.3022-2.9804-1.624l-7.427 2.1878q-2.3022 0.67818-1.624 2.9804z" clip-path="url(#a)" fill="#fff" stroke="#fff"/>
<g clip-path="url(#a)">
<g transform="translate(931.12 604.4) rotate(73.586) scale(.08 -.08)">
<use xlink:href="#q"/>
</g>
</g>
<path d="m874.23 709.96v35.285q0 2.4 2.4 2.4h7.7425q2.4 0 2.4-2.4v-35.285q0-2.4-2.4-2.4h-7.7425q-2.4 0-2.4 2.4z" clip-path="url(#a)" fill="#fff" stroke="#fff"/>
<g clip-path="url(#a)">
<g transform="translate(878.29 709.96) rotate(90) scale(.08 -.08)">
<use xlink:href="#l"/>
<use x="60.818359" xlink:href="#e"/>
<use x="122.341797" xlink:href="#h"/>
<use x="163.439453" xlink:href="#k"/>
<use x="260.851562" xlink:href="#f"/>
<use x="288.634766" xlink:href="#i"/>
<use x="352.013672" xlink:href="#g"/>
<use x="413.292969" xlink:href="#j"/>
</g>
</g>
<path d="m942.73 746.12 6.7996-34.624q0.46249-2.355-1.8925-2.8175l-7.5974-1.492q-2.355-0.46249-2.8175 1.8925l-6.7996 34.624q-0.46249 2.355 1.8925 2.8175l7.5974 1.492q2.355 0.46249 2.8175-1.8925z" clip-path="url(#a)" fill="#fff" stroke="#fff"/>
<g clip-path="url(#a)">
<g transform="translate(938.75 745.34) rotate(-78.889) scale(.08 -.08)">
<use xlink:href="#l"/>
<use x="60.818359" xlink:href="#e"/>
<use x="122.341797" xlink:href="#h"/>
<use x="163.439453" xlink:href="#k"/>
<use x="260.851562" xlink:href="#f"/>
<use x="288.634766" xlink:href="#i"/>
<use x="352.013672" xlink:href="#g"/>
<use x="413.292969" xlink:href="#j"/>
</g>
</g>
<path d="m954.22 711.5 6.7996 34.624q0.46249 2.355 2.8175 1.8925l7.5974-1.492q2.355-0.46249 1.8925-2.8175l-6.7996-34.624q-0.46249-2.355-2.8175-1.8925l-7.5974 1.492q-2.355 0.46249-1.8925 2.8175z" clip-path="url(#a)" fill="#fff" stroke="#fff"/>
<g clip-path="url(#a)">
<g transform="translate(958.21 710.72) rotate(78.889) scale(.08 -.08)">
<use xlink:href="#l"/>
<use x="60.818359" xlink:href="#e"/>
<use x="122.341797" xlink:href="#h"/>
<use x="163.439453" xlink:href="#k"/>
<use x="260.851562" xlink:href="#f"/>
<use x="288.634766" xlink:href="#i"/>
<use x="352.013672" xlink:href="#g"/>
<use x="413.292969" xlink:href="#j"/>
</g>
</g>
<path d="m731.48 709.96v35.285q0 2.4 2.4 2.4h7.7425q2.4 0 2.4-2.4v-35.285q0-2.4-2.4-2.4h-7.7425q-2.4 0-2.4 2.4z" clip-path="url(#a)" fill="#fff" stroke="#fff"/>
<g clip-path="url(#a)">
<g transform="translate(735.54 709.96) rotate(90) scale(.08 -.08)">
<use xlink:href="#l"/>
<use x="60.818359" xlink:href="#e"/>
<use x="122.341797" xlink:href="#h"/>
<use x="163.439453" xlink:href="#k"/>
<use x="260.851562" xlink:href="#f"/>
<use x="288.634766" xlink:href="#i"/>
<use x="352.013672" xlink:href="#g"/>
<use x="413.292969" xlink:href="#j"/>
</g>
</g>
<path d="m826.65 709.96v35.285q0 2.4 2.4 2.4h7.7425q2.4 0 2.4-2.4v-35.285q0-2.4-2.4-2.4h-7.7425q-2.4 0-2.4 2.4z" clip-path="url(#a)" fill="#fff" stroke="#fff"/>
<g clip-path="url(#a)">
<g transform="translate(830.71 709.96) rotate(90) scale(.08 -.08)">
<use xlink:href="#l"/>
<use x="60.818359" xlink:href="#e"/>
<use x="122.341797" xlink:href="#h"/>
<use x="163.439453" xlink:href="#k"/>
<use x="260.851562" xlink:href="#f"/>
<use x="288.634766" xlink:href="#i"/>
<use x="352.013672" xlink:href="#g"/>
<use x="413.292969" xlink:href="#j"/>
</g>
</g>
<path d="m445.98 709.96v35.285q0 2.4 2.4 2.4h7.7425q2.4 0 2.4-2.4v-35.285q0-2.4-2.4-2.4h-7.7425q-2.4 0-2.4 2.4z" clip-path="url(#a)" fill="#fff" stroke="#fff"/>
<g clip-path="url(#a)">
<g transform="translate(450.04 709.96) rotate(90) scale(.08 -.08)">
<use xlink:href="#l"/>
<use x="60.818359" xlink:href="#e"/>
<use x="122.341797" xlink:href="#h"/>
<use x="163.439453" xlink:href="#k"/>
<use x="260.851562" xlink:href="#f"/>
<use x="288.634766" xlink:href="#i"/>
<use x="352.013672" xlink:href="#g"/>
<use x="413.292969" xlink:href="#j"/>
</g>
</g>
<path d="m160.48 709.96v35.285q0 2.4 2.4 2.4h7.7425q2.4 0 2.4-2.4v-35.285q0-2.4-2.4-2.4h-7.7425q-2.4 0-2.4 2.4z" clip-path="url(#a)" fill="#fff" stroke="#fff"/>
<g clip-path="url(#a)">
<g transform="translate(164.54 709.96) rotate(90) scale(.08 -.08)">
<use xlink:href="#l"/>
<use x="60.818359" xlink:href="#e"/>
<use x="122.341797" xlink:href="#h"/>
<use x="163.439453" xlink:href="#k"/>
<use x="260.851562" xlink:href="#f"/>
<use x="288.634766" xlink:href="#i"/>
<use x="352.013672" xlink:href="#g"/>
<use x="413.292969" xlink:href="#j"/>
</g>
</g>
<path d="m541.15 709.96v35.285q0 2.4 2.4 2.4h7.7425q2.4 0 2.4-2.4v-35.285q0-2.4-2.4-2.4h-7.7425q-2.4 0-2.4 2.4z" clip-path="url(#a)" fill="#fff" stroke="#fff"/>
<g clip-path="url(#a)">
<g transform="translate(545.21 709.96) rotate(90) scale(.08 -.08)">
<use xlink:href="#l"/>
<use x="60.818359" xlink:href="#e"/>
<use x="122.341797" xlink:href="#h"/>
<use x="163.439453" xlink:href="#k"/>
<use x="260.851562" xlink:href="#f"/>
<use x="288.634766" xlink:href="#i"/>
<use x="352.013672" xlink:href="#g"/>
<use x="413.292969" xlink:href="#j"/>
</g>
</g>
<path d="m303.23 709.96v35.285q0 2.4 2.4 2.4h7.7425q2.4 0 2.4-2.4v-35.285q0-2.4-2.4-2.4h-7.7425q-2.4 0-2.4 2.4z" clip-path="url(#a)" fill="#fff" stroke="#fff"/>
<g clip-path="url(#a)">
<g transform="translate(307.29 709.96) rotate(90) scale(.08 -.08)">
<use xlink:href="#l"/>
<use x="60.818359" xlink:href="#e"/>
<use x="122.341797" xlink:href="#h"/>
<use x="163.439453" xlink:href="#k"/>
<use x="260.851562" xlink:href="#f"/>
<use x="288.634766" xlink:href="#i"/>
<use x="352.013672" xlink:href="#g"/>
<use x="413.292969" xlink:href="#j"/>
</g>
</g>
<path d="m350.81 709.96v35.285q0 2.4 2.4 2.4h7.7425q2.4 0 2.4-2.4v-35.285q0-2.4-2.4-2.4h-7.7425q-2.4 0-2.4 2.4z" clip-path="url(#a)" fill="#fff" stroke="#fff"/>
<g clip-path="url(#a)">
<g transform="translate(354.88 709.96) rotate(90) scale(.08 -.08)">
<use xlink:href="#l"/>
<use x="60.818359" xlink:href="#e"/>
<use x="122.341797" xlink:href="#h"/>
<use x="163.439453" xlink:href="#k"/>
<use x="260.851562" xlink:href="#f"/>
<use x="288.634766" xlink:href="#i"/>
<use x="352.013672" xlink:href="#g"/>
<use x="413.292969" xlink:href="#j"/>
</g>
</g>
<path d="m208.06 709.96v35.285q0 2.4 2.4 2.4h7.7425q2.4 0 2.4-2.4v-35.285q0-2.4-2.4-2.4h-7.7425q-2.4 0-2.4 2.4z" clip-path="url(#a)" fill="#fff" stroke="#fff"/>
<g clip-path="url(#a)">
<g transform="translate(212.13 709.96) rotate(90) scale(.08 -.08)">
<use xlink:href="#l"/>
<use x="60.818359" xlink:href="#e"/>
<use x="122.341797" xlink:href="#h"/>
<use x="163.439453" xlink:href="#k"/>
<use x="260.851562" xlink:href="#f"/>
<use x="288.634766" xlink:href="#i"/>
<use x="352.013672" xlink:href="#g"/>
<use x="413.292969" xlink:href="#j"/>
</g>
</g>
<path d="m255.65 709.96v35.285q0 2.4 2.4 2.4h7.7425q2.4 0 2.4-2.4v-35.285q0-2.4-2.4-2.4h-7.7425q-2.4 0-2.4 2.4z" clip-path="url(#a)" fill="#fff" stroke="#fff"/>
<g clip-path="url(#a)">
<g transform="translate(259.71 709.96) rotate(90) scale(.08 -.08)">
<use xlink:href="#l"/>
<use x="60.818359" xlink:href="#e"/>
<use x="122.341797" xlink:href="#h"/>
<use x="163.439453" xlink:href="#k"/>
<use x="260.851562" xlink:href="#f"/>
<use x="288.634766" xlink:href="#i"/>
<use x="352.013672" xlink:href="#g"/>
<use x="413.292969" xlink:href="#j"/>
</g>
</g>
<path d="m65.312 709.96v35.285q0 2.4 2.4 2.4h7.7425q2.4 0 2.4-2.4v-35.285q0-2.4-2.4-2.4h-7.7425q-2.4 0-2.4 2.4z" clip-path="url(#a)" fill="#fff" stroke="#fff"/>
<g clip-path="url(#a)">
<g transform="translate(69.375 709.96) rotate(90) scale(.08 -.08)">
<use xlink:href="#l"/>
<use x="60.818359" xlink:href="#e"/>
<use x="122.341797" xlink:href="#h"/>
<use x="163.439453" xlink:href="#k"/>
<use x="260.851562" xlink:href="#f"/>
<use x="288.634766" xlink:href="#i"/>
<use x="352.013672" xlink:href="#g"/>
<use x="413.292969" xlink:href="#j"/>
</g>
</g>
<path d="m112.89 709.96v35.285q0 2.4 2.4 2.4h7.7425q2.4 0 2.4-2.4v-35.285q0-2.4-2.4-2.4h-7.7425q-2.4 0-2.4 2.4z" clip-path="url(#a)" fill="#fff" stroke="#fff"/>
<g clip-path="url(#a)">
<g transform="translate(116.96 709.96) rotate(90) scale(.08 -.08)">
<use xlink:href="#l"/>
<use x="60.818359" xlink:href="#e"/>
<use x="122.341797" xlink:href="#h"/>
<use x="163.439453" xlink:href="#k"/>
<use x="260.851562" xlink:href="#f"/>
<use x="288.634766" xlink:href="#i"/>
<use x="352.013672" xlink:href="#g"/>
<use x="413.292969" xlink:href="#j"/>
</g>
</g>
<path d="m493.56 709.96v35.285q0 2.4 2.4 2.4h7.7425q2.4 0 2.4-2.4v-35.285q0-2.4-2.4-2.4h-7.7425q-2.4 0-2.4 2.4z" clip-path="url(#a)" fill="#fff" stroke="#fff"/>
<g clip-path="url(#a)">
<g transform="translate(497.63 709.96) rotate(90) scale(.08 -.08)">
<use xlink:href="#l"/>
<use x="60.818359" xlink:href="#e"/>
<use x="122.341797" xlink:href="#h"/>
<use x="163.439453" xlink:href="#k"/>
<use x="260.851562" xlink:href="#f"/>
<use x="288.634766" xlink:href="#i"/>
<use x="352.013672" xlink:href="#g"/>
<use x="413.292969" xlink:href="#j"/>
</g>
</g>
<path d="m779.06 709.96v35.285q0 2.4 2.4 2.4h7.7425q2.4 0 2.4-2.4v-35.285q0-2.4-2.4-2.4h-7.7425q-2.4 0-2.4 2.4z" clip-path="url(#a)" fill="#fff" stroke="#fff"/>
<g clip-path="url(#a)">
<g transform="translate(783.13 709.96) rotate(90) scale(.08 -.08)">
<use xlink:href="#l"/>
<use x="60.818359" xlink:href="#e"/>
<use x="122.341797" xlink:href="#h"/>
<use x="163.439453" xlink:href="#k"/>
<use x="260.851562" xlink:href="#f"/>
<use x="288.634766" xlink:href="#i"/>
<use x="352.013672" xlink:href="#g"/>
<use x="413.292969" xlink:href="#j"/>
</g>
</g>
<path d="m1017 709.96v35.285q0 2.4 2.4 2.4h7.7425q2.4 0 2.4-2.4v-35.285q0-2.4-2.4-2.4h-7.7425q-2.4 0-2.4 2.4z" clip-path="url(#a)" fill="#fff" stroke="#fff"/>
<g clip-path="url(#a)">
<g transform="translate(1021 709.96) rotate(90) scale(.08 -.08)">
<use xlink:href="#l"/>
<use x="60.818359" xlink:href="#e"/>
<use x="122.341797" xlink:href="#h"/>
<use x="163.439453" xlink:href="#k"/>
<use x="260.851562" xlink:href="#f"/>
<use x="288.634766" xlink:href="#i"/>
<use x="352.013672" xlink:href="#g"/>
<use x="413.292969" xlink:href="#j"/>
</g>
</g>
<path d="m1064.6 709.96v35.285q0 2.4 2.4 2.4h7.7425q2.4 0 2.4-2.4v-35.285q0-2.4-2.4-2.4h-7.7425q-2.4 0-2.4 2.4z" clip-path="url(#a)" fill="#fff" stroke="#fff"/>
<g clip-path="url(#a)">
<g transform="translate(1068.6 709.96) rotate(90) scale(.08 -.08)">
<use xlink:href="#l"/>
<use x="60.818359" xlink:href="#e"/>
<use x="122.341797" xlink:href="#h"/>
<use x="163.439453" xlink:href="#k"/>
<use x="260.851562" xlink:href="#f"/>
<use x="288.634766" xlink:href="#i"/>
<use x="352.013672" xlink:href="#g"/>
<use x="413.292969" xlink:href="#j"/>
</g>
</g>
<path d="m1207.3 709.96v35.285q0 2.4 2.4 2.4h7.7425q2.4 0 2.4-2.4v-35.285q0-2.4-2.4-2.4h-7.7425q-2.4 0-2.4 2.4z" clip-path="url(#a)" fill="#fff" stroke="#fff"/>
<g clip-path="url(#a)">
<g transform="translate(1211.4 709.96) rotate(90) scale(.08 -.08)">
<use xlink:href="#l"/>
<use x="60.818359" xlink:href="#e"/>
<use x="122.341797" xlink:href="#h"/>
<use x="163.439453" xlink:href="#k"/>
<use x="260.851562" xlink:href="#f"/>
<use x="288.634766" xlink:href="#i"/>
<use x="352.013672" xlink:href="#g"/>
<use x="413.292969" xlink:href="#j"/>
</g>
</g>
<path d="m1254.9 709.96v35.285q0 2.4 2.4 2.4h7.7425q2.4 0 2.4-2.4v-35.285q0-2.4-2.4-2.4h-7.7425q-2.4 0-2.4 2.4z" clip-path="url(#a)" fill="#fff" stroke="#fff"/>
<g clip-path="url(#a)">
<g transform="translate(1259 709.96) rotate(90) scale(.08 -.08)">
<use xlink:href="#l"/>
<use x="60.818359" xlink:href="#e"/>
<use x="122.341797" xlink:href="#h"/>
<use x="163.439453" xlink:href="#k"/>
<use x="260.851562" xlink:href="#f"/>
<use x="288.634766" xlink:href="#i"/>
<use x="352.013672" xlink:href="#g"/>
<use x="413.292969" xlink:href="#j"/>
</g>
</g>
<path d="m1492.8 709.96v35.285q0 2.4 2.4 2.4h7.7425q2.4 0 2.4-2.4v-35.285q0-2.4-2.4-2.4h-7.7425q-2.4 0-2.4 2.4z" clip-path="url(#a)" fill="#fff" stroke="#fff"/>
<g clip-path="url(#a)">
<g transform="translate(1496.9 709.96) rotate(90) scale(.08 -.08)">
<use xlink:href="#l"/>
<use x="60.818359" xlink:href="#e"/>
<use x="122.341797" xlink:href="#h"/>
<use x="163.439453" xlink:href="#k"/>
<use x="260.851562" xlink:href="#f"/>
<use x="288.634766" xlink:href="#i"/>
<use x="352.013672" xlink:href="#g"/>
<use x="413.292969" xlink:href="#j"/>
</g>
</g>
<defs>
<path id="b" d="m0 8.6603c2.2967 0 4.4997-0.9125 6.1237-2.5365 1.624-1.624 2.5365-3.827 2.5365-6.1237s-0.9125-4.4997-2.5365-6.1237c-1.624-1.624-3.827-2.5365-6.1237-2.5365s-4.4997 0.9125-6.1237 2.5365c-1.624 1.624-2.5365 3.827-2.5365 6.1237s0.9125 4.4997 2.5365 6.1237c1.624 1.624 3.827 2.5365 6.1237 2.5365z"/>
</defs>
<g clip-path="url(#a)">
<use x="71.58284" y="788.177116" fill="#ffffff" stroke="#ffffff" xlink:href="#b"/>
</g>
<g clip-path="url(#a)">
<use x="119.166207" y="788.177116" fill="#ffffff" stroke="#ffffff" xlink:href="#b"/>
</g>
<g clip-path="url(#a)">
<use x="166.749573" y="788.177116" fill="#ffffff" stroke="#ffffff" xlink:href="#b"/>
</g>
<g clip-path="url(#a)">
<use x="214.332939" y="788.177116" fill="#ffffff" stroke="#ffffff" xlink:href="#b"/>
</g>
<g clip-path="url(#a)">
<use x="261.916305" y="788.177116" fill="#ffffff" stroke="#ffffff" xlink:href="#b"/>
</g>
<g clip-path="url(#a)">
<use x="309.499671" y="788.177116" fill="#ffffff" stroke="#ffffff" xlink:href="#b"/>
</g>
<g clip-path="url(#a)">
<use x="357.083038" y="788.177116" fill="#ffffff" stroke="#ffffff" xlink:href="#b"/>
</g>
<g clip-path="url(#a)">
<use x="404.666404" y="788.177116" fill="#ffffff" stroke="#ffffff" xlink:href="#b"/>
</g>
<g clip-path="url(#a)">
<use x="452.24977" y="788.177116" fill="#ffffff" stroke="#ffffff" xlink:href="#b"/>
</g>
<g clip-path="url(#a)">
<use x="499.833136" y="788.177116" fill="#ffffff" stroke="#ffffff" xlink:href="#b"/>
</g>
<g clip-path="url(#a)">
<use x="547.416502" y="788.177116" fill="#ffffff" stroke="#ffffff" xlink:href="#b"/>
</g>
<g clip-path="url(#a)">
<use x="594.999869" y="788.177116" fill="#ffffff" stroke="#ffffff" xlink:href="#b"/>
</g>
<g clip-path="url(#a)">
<use x="642.583235" y="788.177116" fill="#ffffff" stroke="#ffffff" xlink:href="#b"/>
</g>
<g clip-path="url(#a)">
<use x="690.166601" y="788.177116" fill="#ffffff" stroke="#ffffff" xlink:href="#b"/>
</g>
<g clip-path="url(#a)">
<use x="737.749967" y="788.177116" fill="#ffffff" stroke="#ffffff" xlink:href="#b"/>
</g>
<g clip-path="url(#a)">
<use x="785.333333" y="788.177116" fill="#ffffff" stroke="#ffffff" xlink:href="#b"/>
</g>
<g clip-path="url(#a)">
<use x="832.9167" y="788.177116" fill="#ffffff" stroke="#ffffff" xlink:href="#b"/>
</g>
<g clip-path="url(#a)">
<use x="880.500066" y="788.177116" fill="#ffffff" stroke="#ffffff" xlink:href="#b"/>
</g>
<g clip-path="url(#a)">
<use x="928.083432" y="788.177116" fill="#ffffff" stroke="#ffffff" xlink:href="#b"/>
</g>
<g clip-path="url(#a)">
<use x="975.666798" y="788.177116" fill="#ffffff" stroke="#ffffff" xlink:href="#b"/>
</g>
<g clip-path="url(#a)">
<use x="1023.250164" y="788.177116" fill="#ffffff" stroke="#ffffff" xlink:href="#b"/>
</g>
<g clip-path="url(#a)">
<use x="1070.833531" y="788.177116" fill="#ffffff" stroke="#ffffff" xlink:href="#b"/>
</g>
<g clip-path="url(#a)">
<use x="1118.416897" y="788.177116" fill="#ffffff" stroke="#ffffff" xlink:href="#b"/>
</g>
<g clip-path="url(#a)">
<use x="1166.000263" y="788.177116" fill="#ffffff" stroke="#ffffff" xlink:href="#b"/>
</g>
<g clip-path="url(#a)">
<use x="1213.583629" y="788.177116" fill="#ffffff" stroke="#ffffff" xlink:href="#b"/>
</g>
<g clip-path="url(#a)">
<use x="1261.166995" y="788.177116" fill="#ffffff" stroke="#ffffff" xlink:href="#b"/>
</g>
<g clip-path="url(#a)">
<use x="1308.750361" y="788.177116" fill="#ffffff" stroke="#ffffff" xlink:href="#b"/>
</g>
<g clip-path="url(#a)">
<use x="1356.333728" y="788.177116" fill="#ffffff" stroke="#ffffff" xlink:href="#b"/>
</g>
<g clip-path="url(#a)">
<use x="1403.917094" y="788.177116" fill="#ffffff" stroke="#ffffff" xlink:href="#b"/>
</g>
<g clip-path="url(#a)">
<use x="1451.50046" y="788.177116" fill="#ffffff" stroke="#ffffff" xlink:href="#b"/>
</g>
<g clip-path="url(#a)">
<use x="1499.083826" y="788.177116" fill="#ffffff" stroke="#ffffff" xlink:href="#b"/>
</g>
<g clip-path="url(#a)">
<use x="685.068383" y="38.48955" fill="#ffffff" stroke="#ffffff" xlink:href="#b"/>
</g>
<g clip-path="url(#a)">
<use x="685.068383" y="169.79989" fill="#ffffff" stroke="#ffffff" xlink:href="#b"/>
</g>
<g clip-path="url(#a)">
<use x="95.374523" y="545.881842" fill="#ffffff" stroke="#ffffff" xlink:href="#b"/>
</g>
<g clip-path="url(#a)">
<use x="238.124622" y="545.881842" fill="#ffffff" stroke="#ffffff" xlink:href="#b"/>
</g>
<g clip-path="url(#a)">
<use x="333.291354" y="545.881842" fill="#ffffff" stroke="#ffffff" xlink:href="#b"/>
</g>
<g clip-path="url(#a)">
<use x="780.235116" y="297.850734" fill="#ffffff" stroke="#ffffff" xlink:href="#b"/>
</g>
<g clip-path="url(#a)">
<use x="1392.021252" y="423.048909" fill="#ffffff" stroke="#ffffff" xlink:href="#b"/>
</g>
<g clip-path="url(#a)">
<use x="1332.542045" y="545.881842" fill="#ffffff" stroke="#ffffff" xlink:href="#b"/>
</g>
<g clip-path="url(#a)">
<use x="1451.50046" y="545.881842" fill="#ffffff" stroke="#ffffff" xlink:href="#b"/>
</g>
<g clip-path="url(#a)">
<use x="1403.917094" y="667.029479" fill="#ffffff" stroke="#ffffff" xlink:href="#b"/>
</g>
<g clip-path="url(#a)">
<use x="1451.50046" y="667.029479" fill="#ffffff" stroke="#ffffff" xlink:href="#b"/>
</g>
<g clip-path="url(#a)">
<use x="1308.750361" y="667.029479" fill="#ffffff" stroke="#ffffff" xlink:href="#b"/>
</g>
<g clip-path="url(#a)">
<use x="1356.333728" y="667.029479" fill="#ffffff" stroke="#ffffff" xlink:href="#b"/>
</g>
<g clip-path="url(#a)">
<use x="1142.20858" y="667.029479" fill="#ffffff" stroke="#ffffff" xlink:href="#b"/>
</g>
<g clip-path="url(#a)">
<use x="404.666404" y="667.029479" fill="#ffffff" stroke="#ffffff" xlink:href="#b"/>
</g>
<g clip-path="url(#a)">
<use x="499.833136" y="545.881842" fill="#ffffff" stroke="#ffffff" xlink:href="#b"/>
</g>
<g clip-path="url(#a)">
<use x="594.999869" y="667.029479" fill="#ffffff" stroke="#ffffff" xlink:href="#b"/>
</g>
<g clip-path="url(#a)">
<use x="725.854126" y="423.048909" fill="#ffffff" stroke="#ffffff" xlink:href="#b"/>
</g>
<g clip-path="url(#a)">
<use x="642.583235" y="667.029479" fill="#ffffff" stroke="#ffffff" xlink:href="#b"/>
</g>
<g clip-path="url(#a)">
<use x="690.166601" y="667.029479" fill="#ffffff" stroke="#ffffff" xlink:href="#b"/>
</g>
<g clip-path="url(#a)">
<use x="785.333333" y="545.881842" fill="#ffffff" stroke="#ffffff" xlink:href="#b"/>
</g>
<g clip-path="url(#a)">
<use x="916.18759" y="545.881842" fill="#ffffff" stroke="#ffffff" xlink:href="#b"/>
</g>
<g clip-path="url(#a)">
<use x="880.500066" y="667.029479" fill="#ffffff" stroke="#ffffff" xlink:href="#b"/>
</g>
<g clip-path="url(#a)">
<use x="951.875115" y="667.029479" fill="#ffffff" stroke="#ffffff" xlink:href="#b"/>
</g>
<g clip-path="url(#a)">
<use x="737.749967" y="667.029479" fill="#ffffff" stroke="#ffffff" xlink:href="#b"/>
</g>
<g clip-path="url(#a)">
<use x="832.9167" y="667.029479" fill="#ffffff" stroke="#ffffff" xlink:href="#b"/>
</g>
<g clip-path="url(#a)">
<use x="452.24977" y="667.029479" fill="#ffffff" stroke="#ffffff" xlink:href="#b"/>
</g>
<g clip-path="url(#a)">
<use x="166.749573" y="667.029479" fill="#ffffff" stroke="#ffffff" xlink:href="#b"/>
</g>
<g clip-path="url(#a)">
<use x="547.416502" y="667.029479" fill="#ffffff" stroke="#ffffff" xlink:href="#b"/>
</g>
<g clip-path="url(#a)">
<use x="309.499671" y="667.029479" fill="#ffffff" stroke="#ffffff" xlink:href="#b"/>
</g>
<g clip-path="url(#a)">
<use x="357.083038" y="667.029479" fill="#ffffff" stroke="#ffffff" xlink:href="#b"/>
</g>
<g clip-path="url(#a)">
<use x="214.332939" y="667.029479" fill="#ffffff" stroke="#ffffff" xlink:href="#b"/>
</g>
<g clip-path="url(#a)">
<use x="261.916305" y="667.029479" fill="#ffffff" stroke="#ffffff" xlink:href="#b"/>
</g>
<g clip-path="url(#a)">
<use x="71.58284" y="667.029479" fill="#ffffff" stroke="#ffffff" xlink:href="#b"/>
</g>
<g clip-path="url(#a)">
<use x="119.166207" y="667.029479" fill="#ffffff" stroke="#ffffff" xlink:href="#b"/>
</g>
<g clip-path="url(#a)">
<use x="499.833136" y="667.029479" fill="#ffffff" stroke="#ffffff" xlink:href="#b"/>
</g>
<g clip-path="url(#a)">
<use x="785.333333" y="667.029479" fill="#ffffff" stroke="#ffffff" xlink:href="#b"/>
</g>
<g clip-path="url(#a)">
<use x="1023.250164" y="667.029479" fill="#ffffff" stroke="#ffffff" xlink:href="#b"/>
</g>
<g clip-path="url(#a)">
<use x="1070.833531" y="667.029479" fill="#ffffff" stroke="#ffffff" xlink:href="#b"/>
</g>
<g clip-path="url(#a)">
<use x="1213.583629" y="667.029479" fill="#ffffff" stroke="#ffffff" xlink:href="#b"/>
</g>
<g clip-path="url(#a)">
<use x="1261.166995" y="667.029479" fill="#ffffff" stroke="#ffffff" xlink:href="#b"/>
</g>
<g clip-path="url(#a)">
<use x="1499.083826" y="667.029479" fill="#ffffff" stroke="#ffffff" xlink:href="#b"/>
</g>
<g clip-path="url(#a)">
<defs>
<path id="af" d="m53.516 70.516v-9.625q-5.6094 2.6875-10.594 4-4.9844 1.3281-9.625 1.3281-8.0469 0-12.422-3.125t-4.375-8.8906q0-4.8438 2.9062-7.3125 2.9062-2.4531 11.016-3.9688l5.9531-1.2188q11.031-2.1094 16.281-7.4062t5.25-14.172q0-10.609-7.1094-16.078-7.0938-5.4688-20.812-5.4688-5.1719 0-11.016 1.1719-5.8281 1.1719-12.078 3.4688v10.156q6-3.3594 11.766-5.0781 5.7656-1.7031 11.328-1.7031 8.4375 0 13.031 3.3125 4.5938 3.3281 4.5938 9.4844 0 5.3594-3.2969 8.3906t-10.812 4.5469l-6.0156 1.1719q-11.031 2.1875-15.969 6.875-4.9219 4.6875-4.9219 13.047 0 9.6719 6.8125 15.234t18.766 5.5625q5.1406 0 10.453-0.9375 5.3281-0.92188 10.891-2.7656z"/>
<path id="u" d="m48.781 52.594v-8.4062q-3.8125 2.1094-7.6406 3.1562t-7.7344 1.0469q-8.75 0-13.594-5.5469-4.8281-5.5312-4.8281-15.547t4.8281-15.562q4.8438-5.5312 13.594-5.5312 3.9062 0 7.7344 1.0469t7.6406 3.1562v-8.3125q-3.7656-1.75-7.7969-2.625-4.0156-0.89062-8.5625-0.89062-12.359 0-19.641 7.7656-7.2656 7.7656-7.2656 20.953 0 13.375 7.3438 21.031 7.3594 7.6719 20.156 7.6719 4.1406 0 8.0938-0.85938 3.9531-0.84375 7.6719-2.5469z"/>
</defs>
<g transform="translate(58.025 790.94) scale(.1 -.1)">
<use xlink:href="#af"/>
<use x="63.476562" xlink:href="#f"/>
<use x="91.259766" xlink:href="#i"/>
<use x="154.638672" xlink:href="#u"/>
<use x="209.619141" xlink:href="#e"/>
</g>
</g>
<g clip-path="url(#a)">
<defs>
<path id="s" d="m18.312 70.219v-15.531h18.5v-6.9844h-18.5v-29.688q0-6.6875 1.8281-8.5938t7.4531-1.9062h9.2188v-7.5156h-9.2188q-10.406 0-14.359 3.875-3.9531 3.8906-3.9531 14.141v29.688h-6.5938v6.9844h6.5938v15.531z"/>
<path id="w" d="m54.891 33.016v-33.016h-8.9844v32.719q0 7.7656-3.0312 11.609-3.0312 3.8594-9.0781 3.8594-7.2812 0-11.484-4.6406-4.2031-4.625-4.2031-12.641v-30.906h-9.0312v75.984h9.0312v-29.797q3.2344 4.9375 7.5938 7.375 4.375 2.4375 10.094 2.4375 9.4219 0 14.25-5.8281 4.8438-5.8281 4.8438-17.156z"/>
</defs>
<g transform="translate(107.79 790.94) scale(.1 -.1)">
<use xlink:href="#s"/>
<use x="39.208984" xlink:href="#w"/>
<use x="102.587891" xlink:href="#e"/>
<use x="164.111328" xlink:href="#i"/>
</g>
</g>
<g clip-path="url(#a)">
<defs>
<path id="ai" d="m11.719 12.406h10.297v-8.4062l-8-15.625h-6.2969l4 15.625z"/>
</defs>
<g transform="translate(165.16 790.94) scale(.1 -.1)">
<use xlink:href="#ai"/>
</g>
</g>
<g clip-path="url(#a)">
<defs>
<path id="ae" d="m44.281 53.078v-8.5q-3.7969 1.9531-7.9062 2.9219-4.0938 0.98438-8.5 0.98438-6.6875 0-10.031-2.0469t-3.3438-6.1562q0-3.125 2.3906-4.9062t9.625-3.3906l3.0781-0.6875q9.5625-2.0469 13.594-5.7812t4.0312-10.422q0-7.625-6.0312-12.078-6.0312-4.4375-16.578-4.4375-4.3906 0-9.1562 0.85938t-10.031 2.5625v9.2812q4.9844-2.5938 9.8125-3.8906 4.8281-1.2812 9.5781-1.2812 6.3438 0 9.75 2.1719 3.4219 2.1719 3.4219 6.125 0 3.6562-2.4688 5.6094-2.4531 1.9531-10.812 3.7656l-3.125 0.73438q-8.3438 1.75-12.062 5.3906-3.7031 3.6406-3.7031 9.9844 0 7.7188 5.4688 11.906 5.4688 4.2031 15.531 4.2031 4.9688 0 9.3594-0.73438 4.4062-0.71875 8.1094-2.1875z"/>
<path id="v" d="m30.609 48.391q-7.2188 0-11.422-5.6406t-4.2031-15.453 4.1719-15.453q4.1875-5.6406 11.453-5.6406 7.1875 0 11.375 5.6562 4.2031 5.6719 4.2031 15.438 0 9.7188-4.2031 15.406-4.1875 5.6875-11.375 5.6875zm0 7.6094q11.719 0 18.406-7.625 6.7031-7.6094 6.7031-21.078 0-13.422-6.7031-21.078-6.6875-7.6406-18.406-7.6406-11.766 0-18.438 7.6406-6.6562 7.6562-6.6562 21.078 0 13.469 6.6562 21.078 6.6719 7.625 18.438 7.625z"/>
</defs>
<g transform="translate(200.72 790.94) scale(.1 -.1)">
<use xlink:href="#ae"/>
<use x="52.099609" xlink:href="#v"/>
<use x="113.28125" xlink:href="#k"/>
<use x="210.693359" xlink:href="#e"/>
</g>
</g>
<g clip-path="url(#a)">
<g transform="translate(247.02 790.94) scale(.1 -.1)">
<use xlink:href="#u"/>
<use x="54.980469" xlink:href="#h"/>
<use x="96.09375" xlink:href="#f"/>
<use x="123.876953" xlink:href="#s"/>
<use x="163.085938" xlink:href="#f"/>
<use x="190.869141" xlink:href="#u"/>
<use x="245.849609" xlink:href="#ae"/>
</g>
</g>
<g clip-path="url(#a)">
<defs>
<path id="am" d="m2.9844 54.688h9.5156l17.094-45.891 17.094 45.891h9.5156l-20.516-54.688h-12.203z"/>
</defs>
<g transform="translate(297.23 790.94) scale(.1 -.1)">
<use xlink:href="#w"/>
<use x="63.378906" xlink:href="#g"/>
<use x="124.658203" xlink:href="#am"/>
<use x="183.837891" xlink:href="#e"/>
</g>
</g>
<g clip-path="url(#a)">
<defs>
<path id="ap" d="m45.406 46.391v29.594h8.9844v-75.984h-8.9844v8.2031q-2.8281-4.875-7.1562-7.25-4.3125-2.375-10.375-2.375-9.9062 0-16.141 7.9062-6.2188 7.9219-6.2188 20.812t6.2188 20.797q6.2344 7.9062 16.141 7.9062 6.0625 0 10.375-2.375 4.3281-2.3594 7.1562-7.2344zm-30.609-19.094q0-9.9062 4.0781-15.547t11.203-5.6406 11.219 5.6406q4.1094 5.6406 4.1094 15.547t-4.1094 15.547q-4.0938 5.6406-11.219 5.6406t-11.203-5.6406-4.0781-15.547z"/>
</defs>
<g transform="translate(342.24 790.94) scale(.1 -.1)">
<use xlink:href="#u"/>
<use x="54.980469" xlink:href="#g"/>
<use x="116.259766" xlink:href="#j"/>
<use x="144.042969" xlink:href="#j"/>
<use x="171.826172" xlink:href="#e"/>
<use x="233.349609" xlink:href="#ap"/>
</g>
</g>
<g clip-path="url(#a)">
<g transform="translate(396.46 790.94) scale(.1 -.1)">
<use xlink:href="#s"/>
<use x="39.208984" xlink:href="#w"/>
<use x="102.587891" xlink:href="#e"/>
</g>
</g>
<g clip-path="url(#a)">
<defs>
<path id="c" d="m12.406 8.2969h16.109v55.625l-17.531-3.5156v8.9844l17.438 3.5156h9.8594v-64.609h16.109v-8.2969h-41.984z"/>
</defs>
<g transform="translate(445.89 790.94) scale(.1 -.1)">
<use xlink:href="#c"/>
<use x="63.623047" xlink:href="#c"/>
</g>
</g>
<g clip-path="url(#a)">
<defs>
<path id="ak" d="m4.8906 31.391h26.312v-8h-26.312z"/>
</defs>
<g transform="translate(498.03 790.94) scale(.1 -.1)">
<use xlink:href="#ak"/>
</g>
</g>
<g clip-path="url(#a)">
<defs>
<path id="an" d="m8.5 21.578v33.109h8.9844v-32.766q0-7.7656 3.0156-11.656 3.0312-3.875 9.0938-3.875 7.2656 0 11.484 4.6406 4.2344 4.6406 4.2344 12.656v31h8.9844v-54.688h-8.9844v8.4062q-3.2656-4.9844-7.5938-7.4062-4.3125-2.4219-10.031-2.4219-9.4219 0-14.312 5.8594-4.875 5.8594-4.875 17.141z"/>
</defs>
<g transform="translate(529.78 790.94) scale(.1 -.1)">
<use xlink:href="#k"/>
<use x="97.412109" xlink:href="#f"/>
<use x="125.195312" xlink:href="#i"/>
<use x="188.574219" xlink:href="#an"/>
<use x="251.953125" xlink:href="#s"/>
<use x="291.162109" xlink:href="#e"/>
</g>
</g>
<g clip-path="url(#a)">
<defs>
<path id="ao" d="m18.109 8.2031v-29h-9.0312v75.484h9.0312v-8.2969q2.8438 4.875 7.1562 7.2344 4.3281 2.375 10.328 2.375 9.9688 0 16.188-7.9062 6.2344-7.9062 6.2344-20.797t-6.2344-20.812q-6.2188-7.9062-16.188-7.9062-6 0-10.328 2.375-4.3125 2.375-7.1562 7.25zm30.578 19.094q0 9.9062-4.0781 15.547t-11.203 5.6406q-7.1406 0-11.219-5.6406t-4.0781-15.547 4.0781-15.547 11.219-5.6406q7.125 0 11.203 5.6406t4.0781 15.547z"/>
</defs>
<g transform="translate(584.61 790.94) scale(.1 -.1)">
<use xlink:href="#e"/>
<use x="61.523438" xlink:href="#ao"/>
<use x="125" xlink:href="#f"/>
<use x="152.783203" xlink:href="#u"/>
</g>
</g>
<g clip-path="url(#a)">
<g transform="translate(632.43 790.94) scale(.1 -.1)">
<use xlink:href="#s"/>
<use x="39.208984" xlink:href="#w"/>
<use x="102.587891" xlink:href="#g"/>
<use x="163.867188" xlink:href="#s"/>
</g>
</g>
<g clip-path="url(#a)">
<defs>
<path id="at" d="m32.172-5.0781q-3.7969-9.7656-7.4219-12.734-3.6094-2.9844-9.6562-2.9844h-7.1875v7.5156h5.2812q3.7031 0 5.75 1.7656 2.0625 1.75 4.5469 8.2969l1.6094 4.0938-22.109 53.812h9.5156l17.094-42.766 17.094 42.766h9.5156z"/>
</defs>
<g transform="translate(675.74 790.94) scale(.1 -.1)">
<use xlink:href="#aj"/>
<use x="77.001953" xlink:href="#at"/>
<use x="136.181641" xlink:href="#j"/>
<use x="163.964844" xlink:href="#g"/>
<use x="225.244141" xlink:href="#i"/>
</g>
</g>
<g clip-path="url(#a)">
<g transform="translate(731.94 790.94) scale(.1 -.1)">
<use xlink:href="#u"/>
<use x="54.980469" xlink:href="#v"/>
</g>
</g>
<g clip-path="url(#a)">
<g transform="translate(783.53 790.94) scale(.1 -.1)">
<use xlink:href="#ak"/>
</g>
</g>
<g clip-path="url(#a)">
<defs>
<path id="ad" d="m4.2031 54.688h8.9844l11.234-42.672 11.172 42.672h10.594l11.234-42.672 11.188 42.672h8.9844l-14.312-54.688h-10.594l-11.766 44.828-11.812-44.828h-10.609z"/>
</defs>
<g transform="translate(818.68 790.94) scale(.1 -.1)">
<use xlink:href="#ad"/>
<use x="81.787109" xlink:href="#h"/>
<use x="122.869141" xlink:href="#v"/>
<use x="184.050781" xlink:href="#s"/>
<use x="223.259766" xlink:href="#e"/>
</g>
</g>
<g clip-path="url(#a)">
<g transform="translate(869.89 790.94) scale(.1 -.1)">
<use xlink:href="#ad"/>
<use x="81.787109" xlink:href="#f"/>
<use x="109.570312" xlink:href="#s"/>
<use x="148.779297" xlink:href="#w"/>
</g>
</g>
<g clip-path="url(#a)">
<g transform="translate(916.97 790.94) scale(.1 -.1)">
<use xlink:href="#af"/>
<use x="63.476562" xlink:href="#g"/>
<use x="124.755859" xlink:href="#k"/>
</g>
</g>
<g clip-path="url(#a)">
<g transform="translate(954.78 790.94) scale(.1 -.1)">
<use xlink:href="#af"/>
<use x="63.476562" xlink:href="#w"/>
<use x="126.855469" xlink:href="#e"/>
<use x="188.378906" xlink:href="#ao"/>
<use x="251.855469" xlink:href="#g"/>
<use x="313.134766" xlink:href="#h"/>
<use x="354.232422" xlink:href="#ap"/>
</g>
</g>
<g clip-path="url(#a)">
<g transform="translate(1021.7 790.94) scale(.1 -.1)">
<use xlink:href="#ai"/>
</g>
</g>
<g clip-path="url(#a)">
<defs>
<path id="al" d="m17.922 72.906v-27.109h-8.2969v27.109z"/>
</defs>
<g transform="translate(1069.5 790.94) scale(.1 -.1)">
<use xlink:href="#al"/>
</g>
</g>
<g clip-path="url(#a)">
<defs>
<path id="as" d="m19.672 34.812v-26.703h15.828q7.9531 0 11.781 3.2969 3.8438 3.2969 3.8438 10.078 0 6.8438-3.8438 10.078-3.8281 3.25-11.781 3.25zm0 29.984v-21.969h14.609q7.2188 0 10.75 2.7031 3.5469 2.7188 3.5469 8.2812 0 5.5156-3.5469 8.25-3.5312 2.7344-10.75 2.7344zm-9.8594 8.1094h25.203q11.281 0 17.375-4.6875 6.1094-4.6875 6.1094-13.328 0-6.7031-3.125-10.656t-9.1875-4.9219q7.2812-1.5625 11.312-6.5312 4.0312-4.9531 4.0312-12.375 0-9.7656-6.6406-15.094-6.6406-5.3125-18.906-5.3125h-26.172z"/>
</defs>
<g transform="translate(1089.8 790.94) scale(.1 -.1)">
<use xlink:href="#as"/>
<use x="68.603516" xlink:href="#h"/>
<use x="109.685547" xlink:href="#v"/>
<use x="170.867188" xlink:href="#ad"/>
<use x="252.654297" xlink:href="#i"/>
<use x="316.033203" xlink:href="#ae"/>
<use x="368.132812" xlink:href="#am"/>
<use x="427.3125" xlink:href="#f"/>
<use x="455.095703" xlink:href="#j"/>
<use x="482.878906" xlink:href="#j"/>
<use x="510.662109" xlink:href="#e"/>
</g>
</g>
<g clip-path="url(#a)">
<defs>
<path id="ar" d="m59.516 10.406v19.578h-16.109v8.1094h25.875v-31.312q-5.7031-4.0469-12.594-6.125-6.875-2.0781-14.688-2.0781-17.094 0-26.75 9.9844-9.6406 10-9.6406 27.812 0 17.875 9.6406 27.859 9.6562 9.9844 26.75 9.9844 7.125 0 13.547-1.7656 6.4219-1.75 11.844-5.1719v-10.5q-5.4688 4.6406-11.625 6.9844t-12.938 2.3438q-13.391 0-20.109-7.4688-6.7031-7.4688-6.7031-22.266 0-14.75 6.7031-22.219 6.7188-7.4688 20.109-7.4688 5.2188 0 9.3125 0.90625 4.1094 0.90625 7.375 2.8125z"/>
</defs>
<g transform="translate(1157.3 790.94) scale(.1 -.1)">
<use xlink:href="#ar"/>
<use x="77.490234" xlink:href="#f"/>
<use x="105.273438" xlink:href="#h"/>
<use x="146.386719" xlink:href="#j"/>
</g>
</g>
<g clip-path="url(#a)">
<g transform="translate(1212.2 790.94) scale(.1 -.1)">
<use xlink:href="#al"/>
</g>
</g>
<g clip-path="url(#a)">
<g transform="translate(1259.6 790.94) scale(.1 -.1)">
<use xlink:href="#ai"/>
</g>
</g>
<g clip-path="url(#a)">
<g transform="translate(1305.7 790.94) scale(.1 -.1)">
<use xlink:href="#g"/>
</g>
</g>
<g clip-path="url(#a)">
<defs>
<path id="au" d="m9.0781 75.984h9.0312v-44.875l26.812 23.578h11.469l-29-25.578 30.234-29.109h-11.719l-27.797 26.703v-26.703h-9.0312z"/>
</defs>
<g transform="translate(1344.2 790.94) scale(.1 -.1)">
<use xlink:href="#ad"/>
<use x="81.787109" xlink:href="#v"/>
<use x="142.96875" xlink:href="#h"/>
<use x="184.082031" xlink:href="#au"/>
</g>
</g>
<g clip-path="url(#a)">
<defs>
<path id="aw" d="m37.109 75.984v-7.4844h-8.5938q-4.8281 0-6.7188-1.9531-1.875-1.9531-1.875-7.0312v-4.8281h14.797v-6.9844h-14.797v-47.703h-9.0312v47.703h-8.5938v6.9844h8.5938v3.8125q0 9.125 4.25 13.297 4.25 4.1875 13.469 4.1875z"/>
</defs>
<g transform="translate(1399.1 790.94) scale(.1 -.1)">
<use xlink:href="#v"/>
<use x="61.181641" xlink:href="#aw"/>
</g>
</g>
<g clip-path="url(#a)">
<defs>
<path id="av" d="m45.406 27.984q0 9.7656-4.0312 15.125-4.0156 5.375-11.297 5.375-7.2188 0-11.25-5.375-4.0312-5.3594-4.0312-15.125 0-9.7188 4.0312-15.094t11.25-5.375q7.2812 0 11.297 5.375 4.0312 5.375 4.0312 15.094zm8.9844-21.203q0-13.953-6.2031-20.766-6.1875-6.8125-18.984-6.8125-4.7344 0-8.9375 0.70312t-8.1562 2.1719v8.7344q3.9531-2.1406 7.8125-3.1562 3.8594-1.0312 7.8594-1.0312 8.8438 0 13.234 4.6094t4.3906 13.938v4.4531q-2.7812-4.8438-7.125-7.2344t-10.406-2.3906q-10.047 0-16.203 7.6562-6.1562 7.6719-6.1562 20.328 0 12.688 6.1562 20.344 6.1562 7.6719 16.203 7.6719 6.0625 0 10.406-2.3906t7.125-7.2188v8.2969h8.9844z"/>
</defs>
<g transform="translate(1434.9 790.94) scale(.1 -.1)">
<use xlink:href="#av"/>
<use x="63.476562" xlink:href="#e"/>
<use x="125" xlink:href="#i"/>
<use x="188.378906" xlink:href="#f"/>
<use x="216.162109" xlink:href="#an"/>
<use x="279.541016" xlink:href="#ae"/>
</g>
</g>
<g clip-path="url(#a)">
<defs>
<path id="d" d="m10.688 12.406h10.312v-12.406h-10.312z"/>
</defs>
<g transform="translate(1497.5 790.94) scale(.1 -.1)">
<use xlink:href="#d"/>
</g>
</g>
<g clip-path="url(#a)">
<g transform="translate(677.12 41.249) scale(.1 -.1)">
<use xlink:href="#c"/>
<use x="63.623047" xlink:href="#d"/>
<use x="95.410156" xlink:href="#c"/>
</g>
</g>
<g clip-path="url(#a)">
<defs>
<path id="n" d="m19.188 8.2969h34.422v-8.2969h-46.281v8.2969q5.6094 5.8125 15.297 15.594 9.7031 9.7969 12.188 12.641 4.7344 5.3125 6.6094 9 1.8906 3.6875 1.8906 7.25 0 5.8125-4.0781 9.4688-4.0781 3.6719-10.625 3.6719-4.6406 0-9.7969-1.6094-5.1406-1.6094-11-4.8906v9.9688q5.9531 2.3906 11.125 3.6094 5.1875 1.2188 9.4844 1.2188 11.328 0 18.062-5.6719 6.7344-5.6562 6.7344-15.125 0-4.5-1.6875-8.5312-1.6719-4.0156-6.125-9.4844-1.2188-1.4219-7.7656-8.1875-6.5312-6.7656-18.453-18.922z"/>
</defs>
<g transform="translate(677.12 172.56) scale(.1 -.1)">
<use xlink:href="#c"/>
<use x="63.623047" xlink:href="#d"/>
<use x="95.410156" xlink:href="#n"/>
</g>
</g>
<g clip-path="url(#a)">
<defs>
<path id="m" d="m37.797 64.312-24.906-38.922h24.906zm-2.5938 8.5938h12.406v-47.516h10.406v-8.2031h-10.406v-17.188h-9.8125v17.188h-32.906v9.5156z"/>
</defs>
<g transform="translate(87.423 548.64) scale(.1 -.1)">
<use xlink:href="#c"/>
<use x="63.623047" xlink:href="#d"/>
<use x="95.410156" xlink:href="#m"/>
</g>
</g>
<g clip-path="url(#a)">
<defs>
<path id="x" d="m33.016 40.375q-6.6406 0-10.531-4.5469-3.875-4.5312-3.875-12.438 0-7.8594 3.875-12.438 3.8906-4.5625 10.531-4.5625t10.516 4.5625q3.875 4.5781 3.875 12.438 0 7.9062-3.875 12.438-3.875 4.5469-10.516 4.5469zm19.578 30.922v-8.9844q-3.7188 1.75-7.5 2.6719-3.7812 0.9375-7.5 0.9375-9.7656 0-14.922-6.5938-5.1406-6.5938-5.875-19.922 2.875 4.25 7.2188 6.5156 4.3594 2.2656 9.5781 2.2656 10.984 0 17.359-6.6719 6.375-6.6562 6.375-18.125 0-11.234-6.6406-18.031-6.6406-6.7812-17.672-6.7812-12.656 0-19.344 9.6875-6.6875 9.7031-6.6875 28.109 0 17.281 8.2031 27.562t22.016 10.281q3.7188 0 7.5-0.73438t7.8906-2.1875z"/>
</defs>
<g transform="translate(230.17 548.64) scale(.1 -.1)">
<use xlink:href="#c"/>
<use x="63.623047" xlink:href="#d"/>
<use x="95.410156" xlink:href="#x"/>
</g>
</g>
<g clip-path="url(#a)">
<defs>
<path id="ac" d="m8.2031 72.906h46.875v-4.2031l-26.469-68.703h-10.297l24.906 64.594h-35.016z"/>
</defs>
<g transform="translate(325.34 548.64) scale(.1 -.1)">
<use xlink:href="#c"/>
<use x="63.623047" xlink:href="#d"/>
<use x="95.410156" xlink:href="#ac"/>
</g>
</g>
<g clip-path="url(#a)">
<defs>
<path id="ab" d="m31.781 34.625q-7.0312 0-11.062-3.7656-4.0156-3.7656-4.0156-10.344 0-6.5938 4.0156-10.359 4.0312-3.7656 11.062-3.7656t11.078 3.7812q4.0625 3.7969 4.0625 10.344 0 6.5781-4.0312 10.344-4.0156 3.7656-11.109 3.7656zm-9.8594 4.1875q-6.3438 1.5625-9.8906 5.9062-3.5312 4.3594-3.5312 10.609 0 8.7344 6.2188 13.812 6.2344 5.0781 17.062 5.0781 10.891 0 17.094-5.0781t6.2031-13.812q0-6.25-3.5469-10.609-3.5312-4.3438-9.8281-5.9062 7.125-1.6562 11.094-6.5 3.9844-4.8281 3.9844-11.797 0-10.609-6.4688-16.281-6.4688-5.6562-18.531-5.6562-12.047 0-18.531 5.6562-6.4688 5.6719-6.4688 16.281 0 6.9688 4 11.797 4.0156 4.8438 11.141 6.5zm-3.6094 15.578q0-5.6562 3.5312-8.8281 3.5469-3.1719 9.9375-3.1719 6.3594 0 9.9375 3.1719 3.5938 3.1719 3.5938 8.8281 0 5.6719-3.5938 8.8438-3.5781 3.1719-9.9375 3.1719-6.3906 0-9.9375-3.1719-3.5312-3.1719-3.5312-8.8438z"/>
</defs>
<g transform="translate(772.28 300.61) scale(.1 -.1)">
<use xlink:href="#c"/>
<use x="63.623047" xlink:href="#d"/>
<use x="95.410156" xlink:href="#ab"/>
</g>
</g>
<g clip-path="url(#a)">
<defs>
<path id="z" d="m31.781 66.406q-7.6094 0-11.453-7.5-3.8281-7.4844-3.8281-22.531 0-14.984 3.8281-22.484 3.8438-7.5 11.453-7.5 7.6719 0 11.5 7.5 3.8438 7.5 3.8438 22.484 0 15.047-3.8438 22.531-3.8281 7.5-11.5 7.5zm0 7.8125q12.266 0 18.734-9.7031 6.4688-9.6875 6.4688-28.141 0-18.406-6.4688-28.109-6.4688-9.6875-18.734-9.6875-12.25 0-18.719 9.6875-6.4688 9.7031-6.4688 28.109 0 18.453 6.4688 28.141 6.4688 9.7031 18.719 9.7031z"/>
</defs>
<g transform="translate(1380.9 425.81) scale(.1 -.1)">
<use xlink:href="#c"/>
<use x="63.623047" xlink:href="#d"/>
<use x="95.410156" xlink:href="#c"/>
<use x="159.033203" xlink:href="#z"/>
</g>
</g>
<g clip-path="url(#a)">
<g transform="translate(1321.4 548.64) scale(.1 -.1)">
<use xlink:href="#c"/>
<use x="63.623047" xlink:href="#d"/>
<use x="95.410156" xlink:href="#c"/>
<use x="159.033203" xlink:href="#c"/>
</g>
</g>
<g clip-path="url(#a)">
<g transform="translate(1440.4 548.64) scale(.1 -.1)">
<use xlink:href="#c"/>
<use x="63.623047" xlink:href="#d"/>
<use x="95.410156" xlink:href="#c"/>
<use x="159.033203" xlink:href="#n"/>
</g>
</g>
<g clip-path="url(#a)">
<defs>
<path id="o" d="m40.578 39.312q7.0781-1.5156 11.047-6.3125 3.9844-4.7812 3.9844-11.812 0-10.781-7.4219-16.703-7.4219-5.9062-21.094-5.9062-4.5781 0-9.4375 0.90625t-10.031 2.7188v9.5156q4.0938-2.3906 8.9688-3.6094 4.8906-1.2188 10.219-1.2188 9.2656 0 14.125 3.6562t4.8594 10.641q0 6.4531-4.5156 10.078-4.5156 3.6406-12.562 3.6406h-8.5v8.1094h8.8906q7.2656 0 11.125 2.9062t3.8594 8.375q0 5.6094-3.9844 8.6094-3.9688 3.0156-11.391 3.0156-4.0625 0-8.7031-0.89062-4.6406-0.875-10.203-2.7188v8.7812q5.625 1.5625 10.531 2.3438t9.25 0.78125q11.234 0 17.766-5.1094 6.5469-5.0938 6.5469-13.781 0-6.0625-3.4688-10.234t-9.8594-5.7812z"/>
</defs>
<g transform="translate(1392.8 669.79) scale(.1 -.1)">
<use xlink:href="#c"/>
<use x="63.623047" xlink:href="#d"/>
<use x="95.410156" xlink:href="#c"/>
<use x="159.033203" xlink:href="#o"/>
</g>
</g>
<g clip-path="url(#a)">
<g transform="translate(1440.4 669.79) scale(.1 -.1)">
<use xlink:href="#c"/>
<use x="63.623047" xlink:href="#d"/>
<use x="95.410156" xlink:href="#c"/>
<use x="159.033203" xlink:href="#m"/>
</g>
</g>
<g clip-path="url(#a)">
<defs>
<path id="y" d="m10.797 72.906h38.719v-8.3125h-29.688v-17.859q2.1406 0.73438 4.2812 1.0938 2.1562 0.35938 4.3125 0.35938 12.203 0 19.328-6.6875 7.1406-6.6875 7.1406-18.109 0-11.766-7.3281-18.297-7.3281-6.5156-20.656-6.5156-4.5938 0-9.3594 0.78125-4.75 0.78125-9.8281 2.3438v9.9219q4.3906-2.3906 9.0781-3.5625t9.9062-1.1719q8.4531 0 13.375 4.4375 4.9375 4.4375 4.9375 12.062 0 7.6094-4.9375 12.047-4.9219 4.4531-13.375 4.4531-3.9531 0-7.8906-0.875-3.9219-0.875-8.0156-2.7344z"/>
</defs>
<g transform="translate(1297.6 669.79) scale(.1 -.1)">
<use xlink:href="#c"/>
<use x="63.623047" xlink:href="#d"/>
<use x="95.410156" xlink:href="#c"/>
<use x="159.033203" xlink:href="#y"/>
</g>
</g>
<g clip-path="url(#a)">
<g transform="translate(1345.2 669.79) scale(.1 -.1)">
<use xlink:href="#c"/>
<use x="63.623047" xlink:href="#d"/>
<use x="95.410156" xlink:href="#c"/>
<use x="159.033203" xlink:href="#x"/>
</g>
</g>
<g clip-path="url(#a)">
<g transform="translate(1131.1 669.79) scale(.1 -.1)">
<use xlink:href="#c"/>
<use x="63.623047" xlink:href="#d"/>
<use x="95.410156" xlink:href="#n"/>
<use x="159.033203" xlink:href="#z"/>
</g>
</g>
<g clip-path="url(#a)">
<g transform="translate(393.53 669.79) scale(.1 -.1)">
<use xlink:href="#c"/>
<use x="63.623047" xlink:href="#d"/>
<use x="95.410156" xlink:href="#n"/>
<use x="159.033203" xlink:href="#n"/>
</g>
</g>
<g clip-path="url(#a)">
<g transform="translate(488.7 548.64) scale(.1 -.1)">
<use xlink:href="#c"/>
<use x="63.623047" xlink:href="#d"/>
<use x="95.410156" xlink:href="#n"/>
<use x="159.033203" xlink:href="#o"/>
</g>
</g>
<g clip-path="url(#a)">
<g transform="translate(583.87 669.79) scale(.1 -.1)">
<use xlink:href="#c"/>
<use x="63.623047" xlink:href="#d"/>
<use x="95.410156" xlink:href="#n"/>
<use x="159.033203" xlink:href="#m"/>
</g>
</g>
<g clip-path="url(#a)">
<g transform="translate(714.72 425.81) scale(.1 -.1)">
<use xlink:href="#c"/>
<use x="63.623047" xlink:href="#d"/>
<use x="95.410156" xlink:href="#n"/>
<use x="159.033203" xlink:href="#y"/>
</g>
</g>
<g clip-path="url(#a)">
<g transform="translate(631.45 669.79) scale(.1 -.1)">
<use xlink:href="#c"/>
<use x="63.623047" xlink:href="#d"/>
<use x="95.410156" xlink:href="#n"/>
<use x="159.033203" xlink:href="#x"/>
</g>
</g>
<g clip-path="url(#a)">
<g transform="translate(679.03 669.79) scale(.1 -.1)">
<use xlink:href="#c"/>
<use x="63.623047" xlink:href="#d"/>
<use x="95.410156" xlink:href="#n"/>
<use x="159.033203" xlink:href="#ac"/>
</g>
</g>
<g clip-path="url(#a)">
<g transform="translate(774.2 548.64) scale(.1 -.1)">
<use xlink:href="#c"/>
<use x="63.623047" xlink:href="#d"/>
<use x="95.410156" xlink:href="#n"/>
<use x="159.033203" xlink:href="#ab"/>
</g>
</g>
<g clip-path="url(#a)">
<defs>
<path id="ah" d="m10.984 1.5156v8.9844q3.7188-1.7656 7.5156-2.6875 3.8125-0.92188 7.4844-0.92188 9.7656 0 14.906 6.5625 5.1562 6.5625 5.8906 19.953-2.8281-4.2031-7.1875-6.4531-4.3438-2.25-9.6094-2.25-10.938 0-17.312 6.6094-6.375 6.625-6.375 18.109 0 11.219 6.6406 18 6.6406 6.7969 17.672 6.7969 12.656 0 19.312-9.7031 6.6719-9.6875 6.6719-28.141 0-17.234-8.1875-27.516-8.1719-10.281-21.984-10.281-3.7188 0-7.5312 0.73438-3.7969 0.73438-7.9062 2.2031zm19.625 30.906q6.6406 0 10.516 4.5312 3.8906 4.5469 3.8906 12.469 0 7.8594-3.8906 12.422-3.875 4.5625-10.516 4.5625t-10.516-4.5625-3.875-12.422q0-7.9219 3.875-12.469 3.875-4.5312 10.516-4.5312z"/>
</defs>
<g transform="translate(905.05 548.64) scale(.1 -.1)">
<use xlink:href="#c"/>
<use x="63.623047" xlink:href="#d"/>
<use x="95.410156" xlink:href="#n"/>
<use x="159.033203" xlink:href="#ah"/>
</g>
</g>
<g clip-path="url(#a)">
<g transform="translate(869.37 669.79) scale(.1 -.1)">
<use xlink:href="#c"/>
<use x="63.623047" xlink:href="#d"/>
<use x="95.410156" xlink:href="#o"/>
<use x="159.033203" xlink:href="#z"/>
</g>
</g>
<g clip-path="url(#a)">
<g transform="translate(940.74 669.79) scale(.1 -.1)">
<use xlink:href="#c"/>
<use x="63.623047" xlink:href="#d"/>
<use x="95.410156" xlink:href="#o"/>
<use x="159.033203" xlink:href="#c"/>
</g>
</g>
<g clip-path="url(#a)">
<g transform="translate(726.62 669.79) scale(.1 -.1)">
<use xlink:href="#c"/>
<use x="63.623047" xlink:href="#d"/>
<use x="95.410156" xlink:href="#o"/>
<use x="159.033203" xlink:href="#n"/>
</g>
</g>
<g clip-path="url(#a)">
<g transform="translate(821.78 669.79) scale(.1 -.1)">
<use xlink:href="#c"/>
<use x="63.623047" xlink:href="#d"/>
<use x="95.410156" xlink:href="#o"/>
<use x="159.033203" xlink:href="#m"/>
</g>
</g>
<g clip-path="url(#a)">
<g transform="translate(441.12 669.79) scale(.1 -.1)">
<use xlink:href="#c"/>
<use x="63.623047" xlink:href="#d"/>
<use x="95.410156" xlink:href="#o"/>
<use x="159.033203" xlink:href="#y"/>
</g>
</g>
<g clip-path="url(#a)">
<g transform="translate(155.62 669.79) scale(.1 -.1)">
<use xlink:href="#c"/>
<use x="63.623047" xlink:href="#d"/>
<use x="95.410156" xlink:href="#o"/>
<use x="159.033203" xlink:href="#x"/>
</g>
</g>
<g clip-path="url(#a)">
<g transform="translate(536.28 669.79) scale(.1 -.1)">
<use xlink:href="#c"/>
<use x="63.623047" xlink:href="#d"/>
<use x="95.410156" xlink:href="#o"/>
<use x="159.033203" xlink:href="#ac"/>
</g>
</g>
<g clip-path="url(#a)">
<g transform="translate(298.37 669.79) scale(.1 -.1)">
<use xlink:href="#c"/>
<use x="63.623047" xlink:href="#d"/>
<use x="95.410156" xlink:href="#o"/>
<use x="159.033203" xlink:href="#ab"/>
</g>
</g>
<g clip-path="url(#a)">
<g transform="translate(345.95 669.79) scale(.1 -.1)">
<use xlink:href="#c"/>
<use x="63.623047" xlink:href="#d"/>
<use x="95.410156" xlink:href="#o"/>
<use x="159.033203" xlink:href="#ah"/>
</g>
</g>
<g clip-path="url(#a)">
<g transform="translate(203.2 669.79) scale(.1 -.1)">
<use xlink:href="#c"/>
<use x="63.623047" xlink:href="#d"/>
<use x="95.410156" xlink:href="#m"/>
<use x="159.033203" xlink:href="#z"/>
</g>
</g>
<g clip-path="url(#a)">
<g transform="translate(250.78 669.79) scale(.1 -.1)">
<use xlink:href="#c"/>
<use x="63.623047" xlink:href="#d"/>
<use x="95.410156" xlink:href="#m"/>
<use x="159.033203" xlink:href="#c"/>
</g>
</g>
<g clip-path="url(#a)">
<g transform="translate(60.45 669.79) scale(.1 -.1)">
<use xlink:href="#c"/>
<use x="63.623047" xlink:href="#d"/>
<use x="95.410156" xlink:href="#m"/>
<use x="159.033203" xlink:href="#n"/>
</g>
</g>
<g clip-path="url(#a)">
<g transform="translate(108.03 669.79) scale(.1 -.1)">
<use xlink:href="#c"/>
<use x="63.623047" xlink:href="#d"/>
<use x="95.410156" xlink:href="#m"/>
<use x="159.033203" xlink:href="#o"/>
</g>
</g>
<g clip-path="url(#a)">
<g transform="translate(488.7 669.79) scale(.1 -.1)">
<use xlink:href="#c"/>
<use x="63.623047" xlink:href="#d"/>
<use x="95.410156" xlink:href="#m"/>
<use x="159.033203" xlink:href="#m"/>
</g>
</g>
<g clip-path="url(#a)">
<g transform="translate(774.2 669.79) scale(.1 -.1)">
<use xlink:href="#c"/>
<use x="63.623047" xlink:href="#d"/>
<use x="95.410156" xlink:href="#m"/>
<use x="159.033203" xlink:href="#y"/>
</g>
</g>
<g clip-path="url(#a)">
<g transform="translate(1012.1 669.79) scale(.1 -.1)">
<use xlink:href="#c"/>
<use x="63.623047" xlink:href="#d"/>
<use x="95.410156" xlink:href="#m"/>
<use x="159.033203" xlink:href="#x"/>
</g>
</g>
<g clip-path="url(#a)">
<g transform="translate(1059.7 669.79) scale(.1 -.1)">
<use xlink:href="#c"/>
<use x="63.623047" xlink:href="#d"/>
<use x="95.410156" xlink:href="#m"/>
<use x="159.033203" xlink:href="#ac"/>
</g>
</g>
<g clip-path="url(#a)">
<g transform="translate(1202.5 669.79) scale(.1 -.1)">
<use xlink:href="#c"/>
<use x="63.623047" xlink:href="#d"/>
<use x="95.410156" xlink:href="#m"/>
<use x="159.033203" xlink:href="#ab"/>
</g>
</g>
<g clip-path="url(#a)">
<g transform="translate(1250 669.79) scale(.1 -.1)">
<use xlink:href="#c"/>
<use x="63.623047" xlink:href="#d"/>
<use x="95.410156" xlink:href="#m"/>
<use x="159.033203" xlink:href="#ah"/>
</g>
</g>
<g clip-path="url(#a)">
<g transform="translate(1488 669.79) scale(.1 -.1)">
<use xlink:href="#c"/>
<use x="63.623047" xlink:href="#d"/>
<use x="95.410156" xlink:href="#y"/>
<use x="159.033203" xlink:href="#z"/>
</g>
</g>
<defs>
<clipPath id="a">
<rect width="1570.7" height="826.67"/>
</clipPath>
</defs>
</svg>
