<?xml version="1.0" encoding="UTF-8"?>
<!DOCTYPE svg  PUBLIC '-//W3C//DTD SVG 1.1//EN'  'http://www.w3.org/Graphics/SVG/1.1/DTD/svg11.dtd'>
<svg width="1165.3pt" height="613.33pt" version="1.1" viewBox="0 0 1165.3 613.33" xmlns="http://www.w3.org/2000/svg" xmlns:xlink="http://www.w3.org/1999/xlink">
<defs>
<style type="text/css">*{stroke-linecap:butt;stroke-linejoin:round;}</style>
</defs>
<path d="m0 613.33h1165.3v-613.33h-1165.3z" fill="#fff"/>
<g fill="none" stroke="#000">
<path d="m400.7 28.653v84.814" clip-path="url(#a)"/>
<path d="m400.7 113.47 711.43 471.21" clip-path="url(#a)"/>
<path d="m400.7 113.47-325.43 318.92" clip-path="url(#a)"/>
<path d="m400.7 113.47-259.25 395.07" clip-path="url(#a)"/>
<path d="m400.7 113.47-215.13 395.07" clip-path="url(#a)"/>
<path d="m400.7 113.47 88.391 82.535" clip-path="url(#a)"/>
<path d="m75.267 432.39-22.061 76.147" clip-path="url(#a)"/>
<path d="m75.267 432.39 22.061 76.147" clip-path="url(#a)"/>
<path d="m141.45 508.53v76.147" clip-path="url(#a)"/>
<path d="m185.57 508.53v76.147" clip-path="url(#a)"/>
<path d="m489.09 196-259.4 312.53" clip-path="url(#a)"/>
<path d="m489.09 196-149.09 312.53" clip-path="url(#a)"/>
<path d="m489.09 196 145.05 236.38" clip-path="url(#a)"/>
<path d="m489.09 196 159.21 80.486" clip-path="url(#a)"/>
<path d="m489.09 196-38.79 312.53" clip-path="url(#a)"/>
<path d="m489.09 196 49.453 312.53" clip-path="url(#a)"/>
<path d="m489.09 196 93.575 312.53" clip-path="url(#a)"/>
<path d="m229.69 508.53v76.147" clip-path="url(#a)"/>
<path d="m340 508.53-66.183 76.147" clip-path="url(#a)"/>
<path d="m340 508.53-22.061 76.147" clip-path="url(#a)"/>
<path d="m340 508.53 22.061 76.147" clip-path="url(#a)"/>
<path d="m340 508.53 66.183 76.147" clip-path="url(#a)"/>
<path d="m634.14 432.39-294.14 76.147" clip-path="url(#a)" stroke-dasharray="3.7,1.6"/>
<path d="m634.14 432.39 433.86 152.29" clip-path="url(#a)"/>
<path d="m634.14 432.39-139.72 76.147" clip-path="url(#a)"/>
<path d="m648.3 276.49-308.3 232.05" clip-path="url(#a)" stroke-dasharray="3.7,1.6"/>
<path d="m648.3 276.49-21.509 232.05" clip-path="url(#a)"/>
<path d="m648.3 276.49 66.734 155.9" clip-path="url(#a)"/>
<path d="m648.3 276.49 263.08 78.693" clip-path="url(#a)"/>
<path d="m626.79 508.53v76.147" clip-path="url(#a)"/>
<path d="m715.03 432.39-44.122 152.29" clip-path="url(#a)"/>
<path d="m715.03 432.39 44.122 152.29" clip-path="url(#a)"/>
<path d="m715.03 432.39v76.147" clip-path="url(#a)"/>
<path d="m911.37 355.18-108.1 153.35" clip-path="url(#a)"/>
<path d="m911.37 355.18-63.977 153.35" clip-path="url(#a)"/>
<path d="m911.37 355.18 13.237 77.206" clip-path="url(#a)"/>
<path d="m911.37 355.18 46.328 153.35" clip-path="url(#a)"/>
<path d="m911.37 355.18 112.51 153.35" clip-path="url(#a)"/>
<path d="m803.28 508.53v76.147" clip-path="url(#a)"/>
<path d="m847.4 508.53v76.147" clip-path="url(#a)"/>
<path d="m924.61 432.39 33.091 76.147" clip-path="url(#a)" stroke-dasharray="3.7,1.6"/>
<path d="m924.61 432.39-33.091 76.147" clip-path="url(#a)"/>
<path d="m957.7 508.53-22.061 76.147" clip-path="url(#a)"/>
<path d="m957.7 508.53 22.061 76.147" clip-path="url(#a)"/>
<path d="m891.52 508.53v76.147" clip-path="url(#a)"/>
<path d="m450.3 508.53v76.147" clip-path="url(#a)"/>
<path d="m494.42 508.53v76.147" clip-path="url(#a)"/>
<path d="m53.206 508.53v76.147" clip-path="url(#a)"/>
<path d="m97.328 508.53v76.147" clip-path="url(#a)"/>
<path d="m538.54 508.53v76.147" clip-path="url(#a)"/>
<path d="m582.67 508.53v76.147" clip-path="url(#a)"/>
<path d="m715.03 508.53v76.147" clip-path="url(#a)"/>
<path d="m1023.9 508.53v76.147" clip-path="url(#a)"/>
</g>
<path d="m394.43 68.052v6.0162q0 2.4 2.4 2.4h7.7425q2.4 0 2.4-2.4v-6.0162q0-2.4-2.4-2.4h-7.7425q-2.4 0-2.4 2.4z" clip-path="url(#a)" fill="#fff" stroke="#fff"/>
<g clip-path="url(#a)">
<defs>
<path id="ap" d="m9.8125 72.906h9.8594v-29.891h35.844v29.891h9.8594v-72.906h-9.8594v34.719h-35.844v-34.719h-9.8594z"/>
</defs>
<g transform="translate(398.49 68.052) rotate(90) scale(.08 -.08)">
<use xlink:href="#ap"/>
</g>
</g>
<path d="m750.94 352.97 4.0216 2.6637q2.0009 1.3253 3.3262-0.6756l4.2755-6.455q1.3253-2.0009-0.6756-3.3262l-4.0216-2.6637q-2.0009-1.3253-3.3262 0.6756l-4.2755 6.455q-1.3253 2.0009 0.6756 3.3262z" clip-path="url(#a)" fill="#fff" stroke="#fff"/>
<g clip-path="url(#a)">
<defs>
<path id="u" d="m19.672 64.797v-27.391h12.406q6.8906 0 10.641 3.5625 3.7656 3.5625 3.7656 10.156 0 6.5469-3.7656 10.109-3.75 3.5625-10.641 3.5625zm-9.8594 8.1094h22.266q12.266 0 18.531-5.5469 6.2812-5.5469 6.2812-16.234 0-10.797-6.2812-16.312-6.2656-5.5156-18.531-5.5156h-12.406v-29.297h-9.8594z"/>
</defs>
<g transform="translate(753.18 349.58) rotate(33.519) scale(.08 -.08)">
<use xlink:href="#u"/>
</g>
</g>
<path d="m240.42 279.32 3.9086-3.8303q1.7141-1.6798 0.034316-3.3939l-5.4191-5.5298q-1.6798-1.7141-3.3939-0.034317l-3.9086 3.8303q-1.7141 1.6798-0.034317 3.3939l5.4191 5.5298q1.6798 1.7141 3.3939 0.034316z" clip-path="url(#a)" fill="#fff" stroke="#fff"/>
<g clip-path="url(#a)">
<defs>
<path id="q" d="m34.188 63.188-13.391-36.281h26.812zm-5.5781 9.7188h11.188l27.781-72.906h-10.25l-6.6406 18.703h-32.859l-6.6406-18.703h-10.406z"/>
</defs>
<g transform="translate(237.57 276.42) rotate(-44.421) scale(.08 -.08)">
<use xlink:href="#q"/>
</g>
</g>
<path d="m274.98 316.48 2.6808-4.0852q1.3167-2.0065-0.6898-3.3233l-6.4732-4.2479q-2.0065-1.3167-3.3233 0.6898l-2.6808 4.0852q-1.3167 2.0065 0.6898 3.3233l6.4732 4.2479q2.0065 1.3167 3.3233-0.6898z" clip-path="url(#a)" fill="#fff" stroke="#fff"/>
<g clip-path="url(#a)">
<defs>
<path id="f" d="m-0.29688 72.906h61.672v-8.3125h-25.875v-64.594h-9.9062v64.594h-25.891z"/>
</defs>
<g transform="translate(271.58 314.25) rotate(-56.726) scale(.08 -.08)">
<use xlink:href="#f"/>
</g>
</g>
<path d="m297.54 316.02 2.2005-4.041q1.1478-2.1078-0.96-3.2555l-6.7997-3.7027q-2.1078-1.1478-3.2555 0.96l-2.2005 4.041q-1.1478 2.1078 0.96 3.2555l6.7997 3.7027q2.1078 1.1478 3.2555-0.96z" clip-path="url(#a)" fill="#fff" stroke="#fff"/>
<g clip-path="url(#a)">
<defs>
<path id="ab" d="m9.8125 72.906h41.891v-8.3125h-32.031v-21.484h28.906v-8.2969h-28.906v-34.812h-9.8594z"/>
</defs>
<g transform="translate(293.97 314.08) rotate(-61.43) scale(.08 -.08)">
<use xlink:href="#ab"/>
</g>
</g>
<path d="m438.62 157.45 3.9999 3.7349q1.7542 1.638 3.3921-0.11622l5.2841-5.659q1.638-1.7542-0.11622-3.3921l-3.9999-3.7349q-1.7542-1.638-3.3921 0.11622l-5.2841 5.659q-1.638 1.7542 0.11622 3.3921z" clip-path="url(#a)" fill="#fff" stroke="#fff"/>
<g clip-path="url(#a)">
<g transform="translate(441.39 154.48) rotate(43.038) scale(.08 -.08)">
<use xlink:href="#q"/>
</g>
</g>
<path d="m69.483 474.89 1.5545-5.3656q0.66785-2.3052-1.6374-2.9731l-7.4367-2.1545q-2.3052-0.66785-2.9731 1.6374l-1.5545 5.3656q-0.66785 2.3052 1.6374 2.9731l7.4367 2.1545q2.3052 0.66785 2.9731-1.6374z" clip-path="url(#a)" fill="#fff" stroke="#fff"/>
<g clip-path="url(#a)">
<defs>
<path id="r" d="m64.406 67.281v-10.391q-4.9844 4.6406-10.625 6.9219-5.6406 2.2969-11.984 2.2969-12.5 0-19.141-7.6406t-6.6406-22.094q0-14.406 6.6406-22.047t19.141-7.6406q6.3438 0 11.984 2.2969t10.625 6.9375v-10.312q-5.1719-3.5156-10.969-5.2812-5.7812-1.75-12.219-1.75-16.562 0-26.094 10.125-9.5156 10.141-9.5156 27.672 0 17.578 9.5156 27.703 9.5312 10.141 26.094 10.141 6.5312 0 12.312-1.7344 5.7969-1.7344 10.875-5.2031z"/>
</defs>
<g transform="translate(65.579 473.76) rotate(-73.843) scale(.08 -.08)">
<use xlink:href="#r"/>
</g>
</g>
<path d="m79.5 469.54 1.5468 5.3392q0.66785 2.3052 2.9731 1.6374l7.4367-2.1545q2.3052-0.66785 1.6374-2.9731l-1.5468-5.3392q-0.66785-2.3052-2.9731-1.6374l-7.4367 2.1545q-2.3052 0.66785-1.6374 2.9731z" clip-path="url(#a)" fill="#fff" stroke="#fff"/>
<g clip-path="url(#a)">
<defs>
<path id="t" d="m44.391 34.188q3.1719-1.0781 6.1719-4.5938t6.0312-9.6719l10.016-19.922h-10.609l-9.3125 18.703q-3.625 7.3281-7.0156 9.7188t-9.25 2.3906h-10.75v-30.812h-9.8594v72.906h22.266q12.5 0 18.656-5.2344 6.1562-5.2188 6.1562-15.766 0-6.8906-3.2031-11.438-3.2031-4.5312-9.2969-6.2812zm-24.719 30.609v-25.875h12.406q7.125 0 10.766 3.2969t3.6406 9.6875-3.6406 9.6406-10.766 3.25z"/>
</defs>
<g transform="translate(83.403 468.4) rotate(73.843) scale(.08 -.08)">
<use xlink:href="#t"/>
</g>
</g>
<path d="m135.18 528.96v35.285q0 2.4 2.4 2.4h7.7425q2.4 0 2.4-2.4v-35.285q0-2.4-2.4-2.4h-7.7425q-2.4 0-2.4 2.4z" clip-path="url(#a)" fill="#fff" stroke="#fff"/>
<g clip-path="url(#a)">
<defs>
<path id="d" d="m56.203 29.594v-4.3906h-41.312q0.59375-9.2812 5.5938-14.141t13.938-4.8594q5.1719 0 10.031 1.2656t9.6562 3.8125v-8.5q-4.8438-2.0469-9.9219-3.125t-10.297-1.0781q-13.094 0-20.734 7.6094-7.6406 7.625-7.6406 20.625 0 13.422 7.25 21.297 7.25 7.8906 19.562 7.8906 11.031 0 17.453-7.1094 6.4219-7.0938 6.4219-19.297zm-8.9844 2.6406q-0.09375 7.3594-4.125 11.75-4.0312 4.4062-10.672 4.4062-7.5156 0-12.031-4.25t-5.2031-11.969z"/>
<path id="h" d="m41.109 46.297q-1.5156 0.875-3.2969 1.2812-1.7812 0.42188-3.9219 0.42188-7.625 0-11.703-4.9531t-4.0781-14.234v-28.812h-9.0312v54.688h9.0312v-8.5q2.8438 4.9844 7.375 7.3906 4.5469 2.4219 11.047 2.4219 0.92188 0 2.0469-0.125 1.125-0.10938 2.4844-0.35938z"/>
<path id="k" d="m52 44.188q3.375 6.0625 8.0625 8.9375t11.031 2.875q8.5469 0 13.188-5.9844 4.6406-5.9688 4.6406-17v-33.016h-9.0312v32.719q0 7.8594-2.7969 11.656-2.7812 3.8125-8.4844 3.8125-6.9844 0-11.047-4.6406-4.0469-4.625-4.0469-12.641v-30.906h-9.0312v32.719q0 7.9062-2.7812 11.688t-8.5938 3.7812q-6.8906 0-10.953-4.6562-4.0469-4.6562-4.0469-12.625v-30.906h-9.0312v54.688h9.0312v-8.5q3.0781 5.0312 7.375 7.4219t10.203 2.3906q5.9688 0 10.141-3.0312 4.1719-3.0156 6.1719-8.7812z"/>
<path id="j" d="m9.4219 54.688h8.9844v-54.688h-8.9844zm0 21.297h8.9844v-11.391h-8.9844z"/>
<path id="i" d="m54.891 33.016v-33.016h-8.9844v32.719q0 7.7656-3.0312 11.609-3.0312 3.8594-9.0781 3.8594-7.2812 0-11.484-4.6406-4.2031-4.625-4.2031-12.641v-30.906h-9.0312v54.688h9.0312v-8.5q3.2344 4.9375 7.5938 7.375 4.375 2.4375 10.094 2.4375 9.4219 0 14.25-5.8281 4.8438-5.8281 4.8438-17.156z"/>
<path id="e" d="m34.281 27.484q-10.891 0-15.094-2.4844t-4.2031-8.5q0-4.7812 3.1562-7.5938 3.1562-2.7969 8.5625-2.7969 7.4844 0 12 5.2969t4.5156 14.078v2zm17.922 3.7188v-31.203h-8.9844v8.2969q-3.0781-4.9688-7.6719-7.3438t-11.234-2.375q-8.3906 0-13.359 4.7188-4.9531 4.7188-4.9531 12.625 0 9.2188 6.1719 13.906 6.1875 4.6875 18.438 4.6875h12.609v0.89062q0 6.2031-4.0781 9.5938t-11.453 3.3906q-4.6875 0-9.1406-1.125-4.4375-1.125-8.5312-3.375v8.3125q4.9219 1.9062 9.5625 2.8438 4.6406 0.95312 9.0312 0.95312 11.875 0 17.734-6.1562 5.8594-6.1406 5.8594-18.641z"/>
<path id="l" d="m9.4219 75.984h8.9844v-75.984h-8.9844z"/>
</defs>
<g transform="translate(139.24 528.96) rotate(90) scale(.08 -.08)">
<use xlink:href="#f"/>
<use x="60.818359" xlink:href="#d"/>
<use x="122.341797" xlink:href="#h"/>
<use x="163.439453" xlink:href="#k"/>
<use x="260.851562" xlink:href="#j"/>
<use x="288.634766" xlink:href="#i"/>
<use x="352.013672" xlink:href="#e"/>
<use x="413.292969" xlink:href="#l"/>
</g>
</g>
<path d="m179.3 528.96v35.285q0 2.4 2.4 2.4h7.7425q2.4 0 2.4-2.4v-35.285q0-2.4-2.4-2.4h-7.7425q-2.4 0-2.4 2.4z" clip-path="url(#a)" fill="#fff" stroke="#fff"/>
<g clip-path="url(#a)">
<g transform="translate(183.36 528.96) rotate(90) scale(.08 -.08)">
<use xlink:href="#f"/>
<use x="60.818359" xlink:href="#d"/>
<use x="122.341797" xlink:href="#h"/>
<use x="163.439453" xlink:href="#k"/>
<use x="260.851562" xlink:href="#j"/>
<use x="288.634766" xlink:href="#i"/>
<use x="352.013672" xlink:href="#e"/>
<use x="413.292969" xlink:href="#l"/>
</g>
</g>
<path d="m362.44 358.41 3.5502-4.2774q1.5328-1.8468-0.31396-3.3796l-5.9577-4.9449q-1.8468-1.5328-3.3796 0.31396l-3.5502 4.2774q-1.5328 1.8468 0.31396 3.3796l5.9577 4.9449q1.8468 1.5328 3.3796-0.31396z" clip-path="url(#a)" fill="#fff" stroke="#fff"/>
<g clip-path="url(#a)">
<g transform="translate(359.32 355.82) rotate(-50.308) scale(.08 -.08)">
<use xlink:href="#t"/>
</g>
</g>
<path d="m419 357.49 2.4053-5.0419q1.0334-2.1661-1.1328-3.1995l-6.9881-3.3337q-2.1661-1.0334-3.1995 1.1328l-2.4053 5.0419q-1.0334 2.1661 1.1328 3.1995l6.9881 3.3337q2.1661 1.0334 3.1995-1.1328z" clip-path="url(#a)" fill="#fff" stroke="#fff"/>
<g clip-path="url(#a)">
<g transform="translate(415.33 355.74) rotate(-64.496) scale(.08 -.08)">
<use xlink:href="#r"/>
</g>
</g>
<path d="m554.95 315.32 2.6438 4.3085q1.2552 2.0456 3.3008 0.79038l6.5992-4.0494q2.0456-1.2552 0.79038-3.3008l-2.6438-4.3085q-1.2552-2.0456-3.3008-0.79038l-6.5992 4.0494q-2.0456 1.2552-0.79038 3.3008z" clip-path="url(#a)" fill="#fff" stroke="#fff"/>
<g clip-path="url(#a)">
<defs>
<path id="ac" d="m9.8125 72.906h46.094v-8.3125h-36.234v-21.578h34.719v-8.2969h-34.719v-26.422h37.109v-8.2969h-46.969z"/>
</defs>
<g transform="translate(558.41 313.19) rotate(58.466) scale(.08 -.08)">
<use xlink:href="#ac"/>
</g>
</g>
<path d="m563.61 240.7 4.5113 2.2807q2.1419 1.0828 3.2247-1.059l3.4932-6.9097q1.0828-2.1419-1.059-3.2247l-4.5113-2.2807q-2.1419-1.0828-3.2247 1.059l-3.4932 6.9097q-1.0828 2.1419 1.059 3.2247z" clip-path="url(#a)" fill="#fff" stroke="#fff"/>
<g clip-path="url(#a)">
<g transform="translate(565.44 237.07) rotate(26.819) scale(.08 -.08)">
<use xlink:href="#ac"/>
</g>
</g>
<path d="m475.56 355.95 0.72117-5.8104q0.29561-2.3817-2.0861-2.6773l-7.6835-0.95366q-2.3817-0.29561-2.6773 2.0861l-0.72117 5.8104q-0.29561 2.3817 2.0861 2.6773l7.6835 0.95366q2.3817 0.29561 2.6773-2.0861z" clip-path="url(#a)" fill="#fff" stroke="#fff"/>
<g clip-path="url(#a)">
<defs>
<path id="o" d="m8.6875 72.906h9.9219v-44.297q0-11.719 4.2344-16.875 4.25-5.1406 13.781-5.1406 9.4688 0 13.719 5.1406 4.25 5.1562 4.25 16.875v44.297h9.9062v-45.516q0-14.25-7.0625-21.531-7.0469-7.2812-20.812-7.2812-13.828 0-20.891 7.2812-7.0469 7.2812-7.0469 21.531z"/>
</defs>
<g transform="translate(471.53 355.44) rotate(-82.925) scale(.08 -.08)">
<use xlink:href="#o"/>
</g>
</g>
<path d="m507.17 350.36 0.91507 5.783q0.3751 2.3705 2.7456 1.9954l7.6474-1.2101q2.3705-0.3751 1.9954-2.7456l-0.91507-5.783q-0.3751-2.3705-2.7456-1.9954l-7.6474 1.2101q-2.3705 0.3751-1.9954 2.7456z" clip-path="url(#a)" fill="#fff" stroke="#fff"/>
<g clip-path="url(#a)">
<g transform="translate(511.18 349.72) rotate(81.008) scale(.08 -.08)">
<use xlink:href="#o"/>
</g>
</g>
<path d="m529.03 351.26 1.6794 5.609q0.68839 2.2992 2.9875 1.6108l7.4172-2.2208q2.2992-0.68839 1.6108-2.9875l-1.6794-5.609q-0.68839-2.2992-2.9875-1.6108l-7.4172 2.2208q-2.2992 0.68839-1.6108 2.9875z" clip-path="url(#a)" fill="#fff" stroke="#fff"/>
<g clip-path="url(#a)">
<g transform="translate(532.92 350.1) rotate(73.332) scale(.08 -.08)">
<use xlink:href="#o"/>
</g>
</g>
<path d="m223.42 528.96v35.285q0 2.4 2.4 2.4h7.7425q2.4 0 2.4-2.4v-35.285q0-2.4-2.4-2.4h-7.7425q-2.4 0-2.4 2.4z" clip-path="url(#a)" fill="#fff" stroke="#fff"/>
<g clip-path="url(#a)">
<g transform="translate(227.49 528.96) rotate(90) scale(.08 -.08)">
<use xlink:href="#f"/>
<use x="60.818359" xlink:href="#d"/>
<use x="122.341797" xlink:href="#h"/>
<use x="163.439453" xlink:href="#k"/>
<use x="260.851562" xlink:href="#j"/>
<use x="288.634766" xlink:href="#i"/>
<use x="352.013672" xlink:href="#e"/>
<use x="413.292969" xlink:href="#l"/>
</g>
</g>
<path d="m300.07 564.04 23.147-26.632q1.5744-1.8114-0.23704-3.3858l-5.8438-5.0791q-1.8114-1.5744-3.3858 0.23704l-23.147 26.632q-1.5744 1.8114 0.23704 3.3858l5.8438 5.0791q1.8114 1.5744 3.3858-0.23704z" clip-path="url(#a)" fill="#fff" stroke="#fff"/>
<g clip-path="url(#a)">
<g transform="translate(297 561.37) rotate(-49.005) scale(.08 -.08)">
<use xlink:href="#f"/>
<use x="60.818359" xlink:href="#d"/>
<use x="122.341797" xlink:href="#h"/>
<use x="163.439453" xlink:href="#k"/>
<use x="260.851562" xlink:href="#j"/>
<use x="288.634766" xlink:href="#i"/>
<use x="352.013672" xlink:href="#e"/>
<use x="413.292969" xlink:href="#l"/>
</g>
</g>
<path d="m330.08 565.3 9.8188-33.891q0.66785-2.3052-1.6374-2.9731l-7.4367-2.1545q-2.3052-0.66785-2.9731 1.6374l-9.8188 33.891q-0.66785 2.3052 1.6374 2.9731l7.4367 2.1545q2.3052 0.66785 2.9731-1.6374z" clip-path="url(#a)" fill="#fff" stroke="#fff"/>
<g clip-path="url(#a)">
<g transform="translate(326.18 564.17) rotate(-73.843) scale(.08 -.08)">
<use xlink:href="#f"/>
<use x="60.818359" xlink:href="#d"/>
<use x="122.341797" xlink:href="#h"/>
<use x="163.439453" xlink:href="#k"/>
<use x="260.851562" xlink:href="#j"/>
<use x="288.634766" xlink:href="#i"/>
<use x="352.013672" xlink:href="#e"/>
<use x="413.292969" xlink:href="#l"/>
</g>
</g>
<path d="m340.09 531.41 9.8188 33.891q0.66785 2.3052 2.9731 1.6374l7.4367-2.1545q2.3052-0.66785 1.6374-2.9731l-9.8188-33.891q-0.66785-2.3052-2.9731-1.6374l-7.4367 2.1545q-2.3052 0.66785-1.6374 2.9731z" clip-path="url(#a)" fill="#fff" stroke="#fff"/>
<g clip-path="url(#a)">
<g transform="translate(344 530.28) rotate(73.843) scale(.08 -.08)">
<use xlink:href="#f"/>
<use x="60.818359" xlink:href="#d"/>
<use x="122.341797" xlink:href="#h"/>
<use x="163.439453" xlink:href="#k"/>
<use x="260.851562" xlink:href="#j"/>
<use x="288.634766" xlink:href="#i"/>
<use x="352.013672" xlink:href="#e"/>
<use x="413.292969" xlink:href="#l"/>
</g>
</g>
<path d="m356.78 537.4 23.147 26.632q1.5744 1.8114 3.3858 0.23704l5.8438-5.0791q1.8114-1.5744 0.23704-3.3858l-23.147-26.632q-1.5744-1.8114-3.3858-0.23704l-5.8438 5.0791q-1.8114 1.5744-0.23704 3.3858z" clip-path="url(#a)" fill="#fff" stroke="#fff"/>
<g clip-path="url(#a)">
<g transform="translate(359.85 534.74) rotate(49.005) scale(.08 -.08)">
<use xlink:href="#f"/>
<use x="60.818359" xlink:href="#d"/>
<use x="122.341797" xlink:href="#h"/>
<use x="163.439453" xlink:href="#k"/>
<use x="260.851562" xlink:href="#j"/>
<use x="288.634766" xlink:href="#i"/>
<use x="352.013672" xlink:href="#e"/>
<use x="413.292969" xlink:href="#l"/>
</g>
</g>
<path d="m485.99 477.22 5.2979-1.3715q2.3234-0.60147 1.7219-2.9249l-1.9404-7.4954q-0.60147-2.3234-2.9249-1.7219l-5.2979 1.3715q-2.3234 0.60147-1.7219 2.9249l1.9404 7.4954q0.60147 2.3234 2.9249 1.7219z" clip-path="url(#a)" fill="#fff" stroke="#fff"/>
<g clip-path="url(#a)">
<g transform="translate(484.97 473.28) rotate(-14.514) scale(.08 -.08)">
<use xlink:href="#q"/>
</g>
</g>
<path d="m846.72 513.65 4.5515 1.5977q2.2645 0.79489 3.0594-1.4696l2.5644-7.3055q0.79489-2.2645-1.4696-3.0594l-4.5515-1.5977q-2.2645-0.79489-3.0594 1.4696l-2.5644 7.3055q-0.79489 2.2645 1.4696 3.0594z" clip-path="url(#a)" fill="#fff" stroke="#fff"/>
<g clip-path="url(#a)">
<g transform="translate(848.07 509.82) rotate(19.342) scale(.08 -.08)">
<use xlink:href="#u"/>
</g>
</g>
<path d="m565.14 477.14 4.2904-2.3383q2.1074-1.1485 0.95884-3.2559l-3.7051-6.7984q-1.1485-2.1074-3.2559-0.95884l-4.2904 2.3383q-2.1074 1.1485-0.95884 3.2559l3.7051 6.7984q1.1485 2.1074 3.2559 0.95884z" clip-path="url(#a)" fill="#fff" stroke="#fff"/>
<g clip-path="url(#a)">
<g transform="translate(563.19 473.57) rotate(-28.59) scale(.08 -.08)">
<use xlink:href="#f"/>
</g>
</g>
<path d="m495.73 399.17 4.3724-3.2909q1.9175-1.4433 0.47428-3.3608l-4.656-6.1861q-1.4433-1.9175-3.3608-0.47428l-4.3724 3.2909q-1.9175 1.4433-0.47428 3.3608l4.656 6.1861q1.4433 1.9175 3.3608 0.47428z" clip-path="url(#a)" fill="#fff" stroke="#fff"/>
<g clip-path="url(#a)">
<g transform="translate(493.29 395.92) rotate(-36.967) scale(.08 -.08)">
<use xlink:href="#q"/>
</g>
</g>
<path d="m643.58 395.38 0.42469-4.5816q0.22152-2.3898-2.1682-2.6113l-7.7094-0.71462q-2.3898-0.22152-2.6113 2.1682l-0.42469 4.5816q-0.22152 2.3898 2.1682 2.6113l7.7094 0.71462q2.3898 0.22152 2.6113-2.1682z" clip-path="url(#a)" fill="#fff" stroke="#fff"/>
<g clip-path="url(#a)">
<g transform="translate(639.53 395.01) rotate(-84.704) scale(.08 -.08)">
<use xlink:href="#ab"/>
</g>
</g>
<path d="m674.9 354.57 1.9986 4.669q0.94445 2.2064 3.1508 1.2619l7.1178-3.0468q2.2064-0.94445 1.2619-3.1508l-1.9986-4.669q-0.94445-2.2064-3.1508-1.2619l-7.1178 3.0468q-2.2064 0.94445-1.2619 3.1508z" clip-path="url(#a)" fill="#fff" stroke="#fff"/>
<g clip-path="url(#a)">
<defs>
<path id="z" d="m53.516 70.516v-9.625q-5.6094 2.6875-10.594 4-4.9844 1.3281-9.625 1.3281-8.0469 0-12.422-3.125t-4.375-8.8906q0-4.8438 2.9062-7.3125 2.9062-2.4531 11.016-3.9688l5.9531-1.2188q11.031-2.1094 16.281-7.4062t5.25-14.172q0-10.609-7.1094-16.078-7.0938-5.4688-20.812-5.4688-5.1719 0-11.016 1.1719-5.8281 1.1719-12.078 3.4688v10.156q6-3.3594 11.766-5.0781 5.7656-1.7031 11.328-1.7031 8.4375 0 13.031 3.3125 4.5938 3.3281 4.5938 9.4844 0 5.3594-3.2969 8.3906t-10.812 4.5469l-6.0156 1.1719q-11.031 2.1875-15.969 6.875-4.9219 4.6875-4.9219 13.047 0 9.6719 6.8125 15.234t18.766 5.5625q5.1406 0 10.453-0.9375 5.3281-0.92188 10.891-2.7656z"/>
</defs>
<g transform="translate(678.64 352.97) rotate(66.826) scale(.08 -.08)">
<use xlink:href="#z"/>
</g>
</g>
<path d="m775.42 321.06 5.243 1.5683q2.2993 0.68779 2.9871-1.6115l2.2188-7.4178q0.68779-2.2993-1.6115-2.9871l-5.243-1.5683q-2.2993-0.68779-2.9871 1.6115l-2.2188 7.4178q-0.68779 2.2993 1.6115 2.9871z" clip-path="url(#a)" fill="#fff" stroke="#fff"/>
<g clip-path="url(#a)">
<g transform="translate(776.58 317.16) rotate(16.653) scale(.08 -.08)">
<use xlink:href="#q"/>
</g>
</g>
<path d="m620.52 528.96v35.285q0 2.4 2.4 2.4h7.7425q2.4 0 2.4-2.4v-35.285q0-2.4-2.4-2.4h-7.7425q-2.4 0-2.4 2.4z" clip-path="url(#a)" fill="#fff" stroke="#fff"/>
<g clip-path="url(#a)">
<g transform="translate(624.58 528.96) rotate(90) scale(.08 -.08)">
<use xlink:href="#f"/>
<use x="60.818359" xlink:href="#d"/>
<use x="122.341797" xlink:href="#h"/>
<use x="163.439453" xlink:href="#k"/>
<use x="260.851562" xlink:href="#j"/>
<use x="288.634766" xlink:href="#i"/>
<use x="352.013672" xlink:href="#e"/>
<use x="413.292969" xlink:href="#l"/>
</g>
</g>
<path d="m694.09 527.22 9.8188-33.891q0.66785-2.3052-1.6374-2.9731l-7.4367-2.1545q-2.3052-0.66785-2.9731 1.6374l-9.8188 33.891q-0.66785 2.3052 1.6374 2.9731l7.4367 2.1545q2.3052 0.66785 2.9731-1.6374z" clip-path="url(#a)" fill="#fff" stroke="#fff"/>
<g clip-path="url(#a)">
<g transform="translate(690.18 526.09) rotate(-73.843) scale(.08 -.08)">
<use xlink:href="#f"/>
<use x="60.818359" xlink:href="#d"/>
<use x="122.341797" xlink:href="#h"/>
<use x="163.439453" xlink:href="#k"/>
<use x="260.851562" xlink:href="#j"/>
<use x="288.634766" xlink:href="#i"/>
<use x="352.013672" xlink:href="#e"/>
<use x="413.292969" xlink:href="#l"/>
</g>
</g>
<path d="m726.16 493.33 9.8188 33.891q0.66785 2.3052 2.9731 1.6374l7.4367-2.1545q2.3052-0.66785 1.6374-2.9731l-9.8188-33.891q-0.66785-2.3052-2.9731-1.6374l-7.4367 2.1545q-2.3052 0.66785-1.6374 2.9731z" clip-path="url(#a)" fill="#fff" stroke="#fff"/>
<g clip-path="url(#a)">
<g transform="translate(730.06 492.2) rotate(73.843) scale(.08 -.08)">
<use xlink:href="#f"/>
<use x="60.818359" xlink:href="#d"/>
<use x="122.341797" xlink:href="#h"/>
<use x="163.439453" xlink:href="#k"/>
<use x="260.851562" xlink:href="#j"/>
<use x="288.634766" xlink:href="#i"/>
<use x="352.013672" xlink:href="#e"/>
<use x="413.292969" xlink:href="#l"/>
</g>
</g>
<path d="m708.76 467.53v5.855q0 2.4 2.4 2.4h7.7425q2.4 0 2.4-2.4v-5.855q0-2.4-2.4-2.4h-7.7425q-2.4 0-2.4 2.4z" clip-path="url(#a)" fill="#fff" stroke="#fff"/>
<g clip-path="url(#a)">
<g transform="translate(712.82 467.53) rotate(90) scale(.08 -.08)">
<use xlink:href="#o"/>
</g>
</g>
<path d="m860.85 437.74 3.2027-4.5434q1.3828-1.9616-0.57888-3.3444l-6.3283-4.4608q-1.9616-1.3828-3.3444 0.57888l-3.2027 4.5434q-1.3828 1.9616 0.57888 3.3444l6.3283 4.4608q1.9616 1.3828 3.3444-0.57888z" clip-path="url(#a)" fill="#fff" stroke="#fff"/>
<g clip-path="url(#a)">
<g transform="translate(857.53 435.4) rotate(-54.82) scale(.08 -.08)">
<use xlink:href="#t"/>
</g>
</g>
<path d="m884.29 436.39 1.7716-4.2465q0.92405-2.215-1.2909-3.139l-7.1456-2.981q-2.215-0.92405-3.139 1.2909l-1.7716 4.2465q-0.92406 2.215 1.2909 3.139l7.1456 2.981q2.215 0.92406 3.139-1.2909z" clip-path="url(#a)" fill="#fff" stroke="#fff"/>
<g clip-path="url(#a)">
<g transform="translate(880.54 434.83) rotate(-67.355) scale(.08 -.08)">
<use xlink:href="#ab"/>
</g>
</g>
<path d="m911.38 392.35 0.85419 4.9823q0.40555 2.3655 2.771 1.9599l7.6312-1.3083q2.3655-0.40555 1.9599-2.771l-0.85418-4.9823q-0.40555-2.3655-2.771-1.9599l-7.6312 1.3083q-2.3655 0.40555-1.9599 2.771z" clip-path="url(#a)" fill="#fff" stroke="#fff"/>
<g clip-path="url(#a)">
<g transform="translate(915.39 391.67) rotate(80.272) scale(.08 -.08)">
<use xlink:href="#ac"/>
</g>
</g>
<path d="m927.73 431 1.6155 5.3476q0.69406 2.2975 2.9915 1.6034l7.4117-2.2391q2.2975-0.69406 1.6034-2.9915l-1.6155-5.3476q-0.69406-2.2975-2.9915-1.6034l-7.4117 2.2391q-2.2975 0.69406-1.6034 2.9915z" clip-path="url(#a)" fill="#fff" stroke="#fff"/>
<g clip-path="url(#a)">
<g transform="translate(931.62 429.82) rotate(73.19) scale(.08 -.08)">
<use xlink:href="#r"/>
</g>
</g>
<path d="m960.84 433.21 3.4635 4.7207q1.4197 1.9351 3.3548 0.51537l6.2426-4.58q1.9351-1.4197 0.51537-3.3548l-3.4635-4.7207q-1.4197-1.9351-3.3548-0.51537l-6.2426 4.58q-1.9351 1.4197-0.51537 3.3548z" clip-path="url(#a)" fill="#fff" stroke="#fff"/>
<g clip-path="url(#a)">
<g transform="translate(964.12 430.8) rotate(53.734) scale(.08 -.08)">
<use xlink:href="#o"/>
</g>
</g>
<path d="m797 528.96v35.285q0 2.4 2.4 2.4h7.7425q2.4 0 2.4-2.4v-35.285q0-2.4-2.4-2.4h-7.7425q-2.4 0-2.4 2.4z" clip-path="url(#a)" fill="#fff" stroke="#fff"/>
<g clip-path="url(#a)">
<g transform="translate(801.07 528.96) rotate(90) scale(.08 -.08)">
<use xlink:href="#f"/>
<use x="60.818359" xlink:href="#d"/>
<use x="122.341797" xlink:href="#h"/>
<use x="163.439453" xlink:href="#k"/>
<use x="260.851562" xlink:href="#j"/>
<use x="288.634766" xlink:href="#i"/>
<use x="352.013672" xlink:href="#e"/>
<use x="413.292969" xlink:href="#l"/>
</g>
</g>
<path d="m841.13 528.96v35.285q0 2.4 2.4 2.4h7.7425q2.4 0 2.4-2.4v-35.285q0-2.4-2.4-2.4h-7.7425q-2.4 0-2.4 2.4z" clip-path="url(#a)" fill="#fff" stroke="#fff"/>
<g clip-path="url(#a)">
<g transform="translate(845.19 528.96) rotate(90) scale(.08 -.08)">
<use xlink:href="#f"/>
<use x="60.818359" xlink:href="#d"/>
<use x="122.341797" xlink:href="#h"/>
<use x="163.439453" xlink:href="#k"/>
<use x="260.851562" xlink:href="#j"/>
<use x="288.634766" xlink:href="#i"/>
<use x="352.013672" xlink:href="#e"/>
<use x="413.292969" xlink:href="#l"/>
</g>
</g>
<path d="m934.31 470.45 2.1811 5.0191q0.95655 2.2011 3.1577 1.2446l7.101-3.0859q2.2011-0.95655 1.2446-3.1577l-2.1811-5.0191q-0.95655-2.2011-3.1577-1.2446l-7.101 3.0859q-2.2011 0.95655-1.2446 3.1577z" clip-path="url(#a)" fill="#fff" stroke="#fff"/>
<g clip-path="url(#a)">
<g transform="translate(938.04 468.83) rotate(66.512) scale(.08 -.08)">
<use xlink:href="#q"/>
</g>
</g>
<path d="m912.8 475.29 2.0242-4.6579q0.95655-2.2011-1.2446-3.1577l-7.101-3.0859q-2.2011-0.95655-3.1577 1.2446l-2.0242 4.6579q-0.95655 2.2011 1.2446 3.1577l7.101 3.0859q2.2011 0.95655 3.1577-1.2446z" clip-path="url(#a)" fill="#fff" stroke="#fff"/>
<g clip-path="url(#a)">
<g transform="translate(909.08 473.67) rotate(-66.512) scale(.08 -.08)">
<use xlink:href="#z"/>
</g>
</g>
<path d="m947.79 565.3 9.8188-33.891q0.66785-2.3052-1.6374-2.9731l-7.4367-2.1545q-2.3052-0.66785-2.9731 1.6374l-9.8188 33.891q-0.66785 2.3052 1.6374 2.9731l7.4367 2.1545q2.3052 0.66785 2.9731-1.6374z" clip-path="url(#a)" fill="#fff" stroke="#fff"/>
<g clip-path="url(#a)">
<g transform="translate(943.88 564.17) rotate(-73.843) scale(.08 -.08)">
<use xlink:href="#f"/>
<use x="60.818359" xlink:href="#d"/>
<use x="122.341797" xlink:href="#h"/>
<use x="163.439453" xlink:href="#k"/>
<use x="260.851562" xlink:href="#j"/>
<use x="288.634766" xlink:href="#i"/>
<use x="352.013672" xlink:href="#e"/>
<use x="413.292969" xlink:href="#l"/>
</g>
</g>
<path d="m957.8 531.41 9.8188 33.891q0.66785 2.3052 2.9731 1.6374l7.4367-2.1545q2.3052-0.66785 1.6374-2.9731l-9.8188-33.891q-0.66785-2.3052-2.9731-1.6374l-7.4367 2.1545q-2.3052 0.66785-1.6374 2.9731z" clip-path="url(#a)" fill="#fff" stroke="#fff"/>
<g clip-path="url(#a)">
<g transform="translate(961.7 530.28) rotate(73.843) scale(.08 -.08)">
<use xlink:href="#f"/>
<use x="60.818359" xlink:href="#d"/>
<use x="122.341797" xlink:href="#h"/>
<use x="163.439453" xlink:href="#k"/>
<use x="260.851562" xlink:href="#j"/>
<use x="288.634766" xlink:href="#i"/>
<use x="352.013672" xlink:href="#e"/>
<use x="413.292969" xlink:href="#l"/>
</g>
</g>
<path d="m885.25 528.96v35.285q0 2.4 2.4 2.4h7.7425q2.4 0 2.4-2.4v-35.285q0-2.4-2.4-2.4h-7.7425q-2.4 0-2.4 2.4z" clip-path="url(#a)" fill="#fff" stroke="#fff"/>
<g clip-path="url(#a)">
<g transform="translate(889.31 528.96) rotate(90) scale(.08 -.08)">
<use xlink:href="#f"/>
<use x="60.818359" xlink:href="#d"/>
<use x="122.341797" xlink:href="#h"/>
<use x="163.439453" xlink:href="#k"/>
<use x="260.851562" xlink:href="#j"/>
<use x="288.634766" xlink:href="#i"/>
<use x="352.013672" xlink:href="#e"/>
<use x="413.292969" xlink:href="#l"/>
</g>
</g>
<path d="m444.03 528.96v35.285q0 2.4 2.4 2.4h7.7425q2.4 0 2.4-2.4v-35.285q0-2.4-2.4-2.4h-7.7425q-2.4 0-2.4 2.4z" clip-path="url(#a)" fill="#fff" stroke="#fff"/>
<g clip-path="url(#a)">
<g transform="translate(448.09 528.96) rotate(90) scale(.08 -.08)">
<use xlink:href="#f"/>
<use x="60.818359" xlink:href="#d"/>
<use x="122.341797" xlink:href="#h"/>
<use x="163.439453" xlink:href="#k"/>
<use x="260.851562" xlink:href="#j"/>
<use x="288.634766" xlink:href="#i"/>
<use x="352.013672" xlink:href="#e"/>
<use x="413.292969" xlink:href="#l"/>
</g>
</g>
<path d="m488.15 528.96v35.285q0 2.4 2.4 2.4h7.7425q2.4 0 2.4-2.4v-35.285q0-2.4-2.4-2.4h-7.7425q-2.4 0-2.4 2.4z" clip-path="url(#a)" fill="#fff" stroke="#fff"/>
<g clip-path="url(#a)">
<g transform="translate(492.22 528.96) rotate(90) scale(.08 -.08)">
<use xlink:href="#f"/>
<use x="60.818359" xlink:href="#d"/>
<use x="122.341797" xlink:href="#h"/>
<use x="163.439453" xlink:href="#k"/>
<use x="260.851562" xlink:href="#j"/>
<use x="288.634766" xlink:href="#i"/>
<use x="352.013672" xlink:href="#e"/>
<use x="413.292969" xlink:href="#l"/>
</g>
</g>
<path d="m46.935 528.96v35.285q0 2.4 2.4 2.4h7.7425q2.4 0 2.4-2.4v-35.285q0-2.4-2.4-2.4h-7.7425q-2.4 0-2.4 2.4z" clip-path="url(#a)" fill="#fff" stroke="#fff"/>
<g clip-path="url(#a)">
<g transform="translate(50.998 528.96) rotate(90) scale(.08 -.08)">
<use xlink:href="#f"/>
<use x="60.818359" xlink:href="#d"/>
<use x="122.341797" xlink:href="#h"/>
<use x="163.439453" xlink:href="#k"/>
<use x="260.851562" xlink:href="#j"/>
<use x="288.634766" xlink:href="#i"/>
<use x="352.013672" xlink:href="#e"/>
<use x="413.292969" xlink:href="#l"/>
</g>
</g>
<path d="m91.056 528.96v35.285q0 2.4 2.4 2.4h7.7425q2.4 0 2.4-2.4v-35.285q0-2.4-2.4-2.4h-7.7425q-2.4 0-2.4 2.4z" clip-path="url(#a)" fill="#fff" stroke="#fff"/>
<g clip-path="url(#a)">
<g transform="translate(95.12 528.96) rotate(90) scale(.08 -.08)">
<use xlink:href="#f"/>
<use x="60.818359" xlink:href="#d"/>
<use x="122.341797" xlink:href="#h"/>
<use x="163.439453" xlink:href="#k"/>
<use x="260.851562" xlink:href="#j"/>
<use x="288.634766" xlink:href="#i"/>
<use x="352.013672" xlink:href="#e"/>
<use x="413.292969" xlink:href="#l"/>
</g>
</g>
<path d="m532.27 528.96v35.285q0 2.4 2.4 2.4h7.7425q2.4 0 2.4-2.4v-35.285q0-2.4-2.4-2.4h-7.7425q-2.4 0-2.4 2.4z" clip-path="url(#a)" fill="#fff" stroke="#fff"/>
<g clip-path="url(#a)">
<g transform="translate(536.34 528.96) rotate(90) scale(.08 -.08)">
<use xlink:href="#f"/>
<use x="60.818359" xlink:href="#d"/>
<use x="122.341797" xlink:href="#h"/>
<use x="163.439453" xlink:href="#k"/>
<use x="260.851562" xlink:href="#j"/>
<use x="288.634766" xlink:href="#i"/>
<use x="352.013672" xlink:href="#e"/>
<use x="413.292969" xlink:href="#l"/>
</g>
</g>
<path d="m576.4 528.96v35.285q0 2.4 2.4 2.4h7.7425q2.4 0 2.4-2.4v-35.285q0-2.4-2.4-2.4h-7.7425q-2.4 0-2.4 2.4z" clip-path="url(#a)" fill="#fff" stroke="#fff"/>
<g clip-path="url(#a)">
<g transform="translate(580.46 528.96) rotate(90) scale(.08 -.08)">
<use xlink:href="#f"/>
<use x="60.818359" xlink:href="#d"/>
<use x="122.341797" xlink:href="#h"/>
<use x="163.439453" xlink:href="#k"/>
<use x="260.851562" xlink:href="#j"/>
<use x="288.634766" xlink:href="#i"/>
<use x="352.013672" xlink:href="#e"/>
<use x="413.292969" xlink:href="#l"/>
</g>
</g>
<path d="m708.76 528.96v35.285q0 2.4 2.4 2.4h7.7425q2.4 0 2.4-2.4v-35.285q0-2.4-2.4-2.4h-7.7425q-2.4 0-2.4 2.4z" clip-path="url(#a)" fill="#fff" stroke="#fff"/>
<g clip-path="url(#a)">
<g transform="translate(712.82 528.96) rotate(90) scale(.08 -.08)">
<use xlink:href="#f"/>
<use x="60.818359" xlink:href="#d"/>
<use x="122.341797" xlink:href="#h"/>
<use x="163.439453" xlink:href="#k"/>
<use x="260.851562" xlink:href="#j"/>
<use x="288.634766" xlink:href="#i"/>
<use x="352.013672" xlink:href="#e"/>
<use x="413.292969" xlink:href="#l"/>
</g>
</g>
<path d="m1017.6 528.96v35.285q0 2.4 2.4 2.4h7.7425q2.4 0 2.4-2.4v-35.285q0-2.4-2.4-2.4h-7.7425q-2.4 0-2.4 2.4z" clip-path="url(#a)" fill="#fff" stroke="#fff"/>
<g clip-path="url(#a)">
<g transform="translate(1021.7 528.96) rotate(90) scale(.08 -.08)">
<use xlink:href="#f"/>
<use x="60.818359" xlink:href="#d"/>
<use x="122.341797" xlink:href="#h"/>
<use x="163.439453" xlink:href="#k"/>
<use x="260.851562" xlink:href="#j"/>
<use x="288.634766" xlink:href="#i"/>
<use x="352.013672" xlink:href="#e"/>
<use x="413.292969" xlink:href="#l"/>
</g>
</g>
<defs>
<path id="b" d="m0 8.6603c2.2967 0 4.4997-0.9125 6.1237-2.5365 1.624-1.624 2.5365-3.827 2.5365-6.1237s-0.9125-4.4997-2.5365-6.1237c-1.624-1.624-3.827-2.5365-6.1237-2.5365s-4.4997 0.9125-6.1237 2.5365c-1.624 1.624-2.5365 3.827-2.5365 6.1237s0.9125 4.4997 2.5365 6.1237c1.624 1.624 3.827 2.5365 6.1237 2.5365z"/>
</defs>
<g clip-path="url(#a)">
<use x="53.20578" y="584.680407" fill="#ffffff" stroke="#ffffff" xlink:href="#b"/>
</g>
<g clip-path="url(#a)">
<use x="97.327521" y="584.680407" fill="#ffffff" stroke="#ffffff" xlink:href="#b"/>
</g>
<g clip-path="url(#a)">
<use x="141.449261" y="584.680407" fill="#ffffff" stroke="#ffffff" xlink:href="#b"/>
</g>
<g clip-path="url(#a)">
<use x="185.571002" y="584.680407" fill="#ffffff" stroke="#ffffff" xlink:href="#b"/>
</g>
<g clip-path="url(#a)">
<use x="229.692743" y="584.680407" fill="#ffffff" stroke="#ffffff" xlink:href="#b"/>
</g>
<g clip-path="url(#a)">
<use x="273.814483" y="584.680407" fill="#ffffff" stroke="#ffffff" xlink:href="#b"/>
</g>
<g clip-path="url(#a)">
<use x="317.936224" y="584.680407" fill="#ffffff" stroke="#ffffff" xlink:href="#b"/>
</g>
<g clip-path="url(#a)">
<use x="362.057964" y="584.680407" fill="#ffffff" stroke="#ffffff" xlink:href="#b"/>
</g>
<g clip-path="url(#a)">
<use x="406.179705" y="584.680407" fill="#ffffff" stroke="#ffffff" xlink:href="#b"/>
</g>
<g clip-path="url(#a)">
<use x="450.301445" y="584.680407" fill="#ffffff" stroke="#ffffff" xlink:href="#b"/>
</g>
<g clip-path="url(#a)">
<use x="494.423186" y="584.680407" fill="#ffffff" stroke="#ffffff" xlink:href="#b"/>
</g>
<g clip-path="url(#a)">
<use x="538.544926" y="584.680407" fill="#ffffff" stroke="#ffffff" xlink:href="#b"/>
</g>
<g clip-path="url(#a)">
<use x="582.666667" y="584.680407" fill="#ffffff" stroke="#ffffff" xlink:href="#b"/>
</g>
<g clip-path="url(#a)">
<use x="626.788407" y="584.680407" fill="#ffffff" stroke="#ffffff" xlink:href="#b"/>
</g>
<g clip-path="url(#a)">
<use x="670.910148" y="584.680407" fill="#ffffff" stroke="#ffffff" xlink:href="#b"/>
</g>
<g clip-path="url(#a)">
<use x="715.031888" y="584.680407" fill="#ffffff" stroke="#ffffff" xlink:href="#b"/>
</g>
<g clip-path="url(#a)">
<use x="759.153629" y="584.680407" fill="#ffffff" stroke="#ffffff" xlink:href="#b"/>
</g>
<g clip-path="url(#a)">
<use x="803.275369" y="584.680407" fill="#ffffff" stroke="#ffffff" xlink:href="#b"/>
</g>
<g clip-path="url(#a)">
<use x="847.39711" y="584.680407" fill="#ffffff" stroke="#ffffff" xlink:href="#b"/>
</g>
<g clip-path="url(#a)">
<use x="891.51885" y="584.680407" fill="#ffffff" stroke="#ffffff" xlink:href="#b"/>
</g>
<g clip-path="url(#a)">
<use x="935.640591" y="584.680407" fill="#ffffff" stroke="#ffffff" xlink:href="#b"/>
</g>
<g clip-path="url(#a)">
<use x="979.762331" y="584.680407" fill="#ffffff" stroke="#ffffff" xlink:href="#b"/>
</g>
<g clip-path="url(#a)">
<use x="1023.884072" y="584.680407" fill="#ffffff" stroke="#ffffff" xlink:href="#b"/>
</g>
<g clip-path="url(#a)">
<use x="400.701255" y="28.652926" fill="#ffffff" stroke="#ffffff" xlink:href="#b"/>
</g>
<g clip-path="url(#a)">
<use x="400.701255" y="113.467117" fill="#ffffff" stroke="#ffffff" xlink:href="#b"/>
</g>
<g clip-path="url(#a)">
<use x="1112.127553" y="584.680407" fill="#ffffff" stroke="#ffffff" xlink:href="#b"/>
</g>
<g clip-path="url(#a)">
<use x="75.266651" y="432.386627" fill="#ffffff" stroke="#ffffff" xlink:href="#b"/>
</g>
<g clip-path="url(#a)">
<use x="141.449261" y="508.533517" fill="#ffffff" stroke="#ffffff" xlink:href="#b"/>
</g>
<g clip-path="url(#a)">
<use x="185.571002" y="508.533517" fill="#ffffff" stroke="#ffffff" xlink:href="#b"/>
</g>
<g clip-path="url(#a)">
<use x="489.091809" y="196.001735" fill="#ffffff" stroke="#ffffff" xlink:href="#b"/>
</g>
<g clip-path="url(#a)">
<use x="229.692743" y="508.533517" fill="#ffffff" stroke="#ffffff" xlink:href="#b"/>
</g>
<g clip-path="url(#a)">
<use x="339.997094" y="508.533517" fill="#ffffff" stroke="#ffffff" xlink:href="#b"/>
</g>
<g clip-path="url(#a)">
<use x="634.142031" y="432.386627" fill="#ffffff" stroke="#ffffff" xlink:href="#b"/>
</g>
<g clip-path="url(#a)">
<use x="648.297756" y="276.48761" fill="#ffffff" stroke="#ffffff" xlink:href="#b"/>
</g>
<g clip-path="url(#a)">
<use x="626.788407" y="508.533517" fill="#ffffff" stroke="#ffffff" xlink:href="#b"/>
</g>
<g clip-path="url(#a)">
<use x="715.031888" y="432.386627" fill="#ffffff" stroke="#ffffff" xlink:href="#b"/>
</g>
<g clip-path="url(#a)">
<use x="911.373634" y="355.18045" fill="#ffffff" stroke="#ffffff" xlink:href="#b"/>
</g>
<g clip-path="url(#a)">
<use x="803.275369" y="508.533517" fill="#ffffff" stroke="#ffffff" xlink:href="#b"/>
</g>
<g clip-path="url(#a)">
<use x="847.39711" y="508.533517" fill="#ffffff" stroke="#ffffff" xlink:href="#b"/>
</g>
<g clip-path="url(#a)">
<use x="924.610156" y="432.386627" fill="#ffffff" stroke="#ffffff" xlink:href="#b"/>
</g>
<g clip-path="url(#a)">
<use x="957.701461" y="508.533517" fill="#ffffff" stroke="#ffffff" xlink:href="#b"/>
</g>
<g clip-path="url(#a)">
<use x="891.51885" y="508.533517" fill="#ffffff" stroke="#ffffff" xlink:href="#b"/>
</g>
<g clip-path="url(#a)">
<use x="450.301445" y="508.533517" fill="#ffffff" stroke="#ffffff" xlink:href="#b"/>
</g>
<g clip-path="url(#a)">
<use x="1068.005812" y="584.680407" fill="#ffffff" stroke="#ffffff" xlink:href="#b"/>
</g>
<g clip-path="url(#a)">
<use x="494.423186" y="508.533517" fill="#ffffff" stroke="#ffffff" xlink:href="#b"/>
</g>
<g clip-path="url(#a)">
<use x="53.20578" y="508.533517" fill="#ffffff" stroke="#ffffff" xlink:href="#b"/>
</g>
<g clip-path="url(#a)">
<use x="97.327521" y="508.533517" fill="#ffffff" stroke="#ffffff" xlink:href="#b"/>
</g>
<g clip-path="url(#a)">
<use x="538.544926" y="508.533517" fill="#ffffff" stroke="#ffffff" xlink:href="#b"/>
</g>
<g clip-path="url(#a)">
<use x="582.666667" y="508.533517" fill="#ffffff" stroke="#ffffff" xlink:href="#b"/>
</g>
<g clip-path="url(#a)">
<use x="715.031888" y="508.533517" fill="#ffffff" stroke="#ffffff" xlink:href="#b"/>
</g>
<g clip-path="url(#a)">
<use x="1023.884072" y="508.533517" fill="#ffffff" stroke="#ffffff" xlink:href="#b"/>
</g>
<g clip-path="url(#a)">
<defs>
<path id="aq" d="m19.672 64.797v-56.688h11.922q15.094 0 22.094 6.8281 7 6.8438 7 21.594 0 14.641-7 21.453t-22.094 6.8125zm-9.8594 8.1094h20.266q21.188 0 31.094-8.8125 9.9219-8.8125 9.9219-27.562 0-18.859-9.9688-27.703-9.9531-8.8281-31.047-8.8281h-20.266z"/>
<path id="ag" d="m32.172-5.0781q-3.7969-9.7656-7.4219-12.734-3.6094-2.9844-9.6562-2.9844h-7.1875v7.5156h5.2812q3.7031 0 5.75 1.7656 2.0625 1.75 4.5469 8.2969l1.6094 4.0938-22.109 53.812h9.5156l17.094-42.766 17.094 42.766h9.5156z"/>
</defs>
<g transform="translate(38.775 587.44) scale(.1 -.1)">
<use xlink:href="#aq"/>
<use x="77.001953" xlink:href="#ag"/>
<use x="136.181641" xlink:href="#l"/>
<use x="163.964844" xlink:href="#e"/>
<use x="225.244141" xlink:href="#i"/>
</g>
</g>
<g clip-path="url(#a)">
<defs>
<path id="ax" d="m17.922 72.906v-27.109h-8.2969v27.109z"/>
<path id="x" d="m44.281 53.078v-8.5q-3.7969 1.9531-7.9062 2.9219-4.0938 0.98438-8.5 0.98438-6.6875 0-10.031-2.0469t-3.3438-6.1562q0-3.125 2.3906-4.9062t9.625-3.3906l3.0781-0.6875q9.5625-2.0469 13.594-5.7812t4.0312-10.422q0-7.625-6.0312-12.078-6.0312-4.4375-16.578-4.4375-4.3906 0-9.1562 0.85938t-10.031 2.5625v9.2812q4.9844-2.5938 9.8125-3.8906 4.8281-1.2812 9.5781-1.2812 6.3438 0 9.75 2.1719 3.4219 2.1719 3.4219 6.125 0 3.6562-2.4688 5.6094-2.4531 1.9531-10.812 3.7656l-3.125 0.73438q-8.3438 1.75-12.062 5.3906-3.7031 3.6406-3.7031 9.9844 0 7.7188 5.4688 11.906 5.4688 4.2031 15.531 4.2031 4.9688 0 9.3594-0.73438 4.4062-0.71875 8.1094-2.1875z"/>
</defs>
<g transform="translate(93.349 587.44) scale(.1 -.1)">
<use xlink:href="#ax"/>
<use x="27.490234" xlink:href="#x"/>
</g>
</g>
<g clip-path="url(#a)">
<defs>
<path id="c" d="m12.406 8.2969h16.109v55.625l-17.531-3.5156v8.9844l17.438 3.5156h9.8594v-64.609h16.109v-8.2969h-41.984z"/>
<path id="n" d="m10.984 1.5156v8.9844q3.7188-1.7656 7.5156-2.6875 3.8125-0.92188 7.4844-0.92188 9.7656 0 14.906 6.5625 5.1562 6.5625 5.8906 19.953-2.8281-4.2031-7.1875-6.4531-4.3438-2.25-9.6094-2.25-10.938 0-17.312 6.6094-6.375 6.625-6.375 18.109 0 11.219 6.6406 18 6.6406 6.7969 17.672 6.7969 12.656 0 19.312-9.7031 6.6719-9.6875 6.6719-28.141 0-17.234-8.1875-27.516-8.1719-10.281-21.984-10.281-3.7188 0-7.5312 0.73438-3.7969 0.73438-7.9062 2.2031zm19.625 30.906q6.6406 0 10.516 4.5312 3.8906 4.5469 3.8906 12.469 0 7.8594-3.8906 12.422-3.875 4.5625-10.516 4.5625t-10.516-4.5625-3.875-12.422q0-7.9219 3.875-12.469 3.875-4.5312 10.516-4.5312z"/>
<path id="s" d="m31.781 66.406q-7.6094 0-11.453-7.5-3.8281-7.4844-3.8281-22.531 0-14.984 3.8281-22.484 3.8438-7.5 11.453-7.5 7.6719 0 11.5 7.5 3.8438 7.5 3.8438 22.484 0 15.047-3.8438 22.531-3.8281 7.5-11.5 7.5zm0 7.8125q12.266 0 18.734-9.7031 6.4688-9.6875 6.4688-28.141 0-18.406-6.4688-28.109-6.4688-9.6875-18.734-9.6875-12.25 0-18.719 9.6875-6.4688 9.7031-6.4688 28.109 0 18.453 6.4688 28.141 6.4688 9.7031 18.719 9.7031z"/>
</defs>
<g transform="translate(126.12 587.44) scale(.1 -.1)">
<use xlink:href="#c"/>
<use x="63.623047" xlink:href="#n"/>
<use x="127.246094" xlink:href="#n"/>
<use x="190.869141" xlink:href="#s"/>
<use x="254.492188" xlink:href="#x"/>
</g>
</g>
<g clip-path="url(#a)">
<defs>
<path id="aj" d="m48.688 27.297q0 9.9062-4.0781 15.547t-11.203 5.6406q-7.1406 0-11.219-5.6406t-4.0781-15.547 4.0781-15.547 11.219-5.6406q7.125 0 11.203 5.6406t4.0781 15.547zm-30.578 19.094q2.8438 4.875 7.1562 7.2344 4.3281 2.375 10.328 2.375 9.9688 0 16.188-7.9062 6.2344-7.9062 6.2344-20.797t-6.2344-20.812q-6.2188-7.9062-16.188-7.9062-6 0-10.328 2.375-4.3125 2.375-7.1562 7.25v-8.2031h-9.0312v75.984h9.0312z"/>
<path id="ba" d="m45.406 27.984q0 9.7656-4.0312 15.125-4.0156 5.375-11.297 5.375-7.2188 0-11.25-5.375-4.0312-5.3594-4.0312-15.125 0-9.7188 4.0312-15.094t11.25-5.375q7.2812 0 11.297 5.375 4.0312 5.375 4.0312 15.094zm8.9844-21.203q0-13.953-6.2031-20.766-6.1875-6.8125-18.984-6.8125-4.7344 0-8.9375 0.70312t-8.1562 2.1719v8.7344q3.9531-2.1406 7.8125-3.1562 3.8594-1.0312 7.8594-1.0312 8.8438 0 13.234 4.6094t4.3906 13.938v4.4531q-2.7812-4.8438-7.125-7.2344t-10.406-2.3906q-10.047 0-16.203 7.6562-6.1562 7.6719-6.1562 20.328 0 12.688 6.1562 20.344 6.1562 7.6719 16.203 7.6719 6.0625 0 10.406-2.3906t7.125-7.2188v8.2969h8.9844z"/>
</defs>
<g transform="translate(169.91 587.44) scale(.1 -.1)">
<use xlink:href="#aj"/>
<use x="63.476562" xlink:href="#d"/>
<use x="125" xlink:href="#ba"/>
<use x="188.476562" xlink:href="#e"/>
<use x="249.755859" xlink:href="#i"/>
</g>
</g>
<g clip-path="url(#a)">
<defs>
<path id="ay" d="m4.2031 54.688h8.9844l11.234-42.672 11.172 42.672h10.594l11.234-42.672 11.188 42.672h8.9844l-14.312-54.688h-10.594l-11.766 44.828-11.812-44.828h-10.609z"/>
<path id="w" d="m18.312 70.219v-15.531h18.5v-6.9844h-18.5v-29.688q0-6.6875 1.8281-8.5938t7.4531-1.9062h9.2188v-7.5156h-9.2188q-10.406 0-14.359 3.875-3.9531 3.8906-3.9531 14.141v29.688h-6.5938v6.9844h6.5938v15.531z"/>
<path id="y" d="m54.891 33.016v-33.016h-8.9844v32.719q0 7.7656-3.0312 11.609-3.0312 3.8594-9.0781 3.8594-7.2812 0-11.484-4.6406-4.2031-4.625-4.2031-12.641v-30.906h-9.0312v75.984h9.0312v-29.797q3.2344 4.9375 7.5938 7.375 4.375 2.4375 10.094 2.4375 9.4219 0 14.25-5.8281 4.8438-5.8281 4.8438-17.156z"/>
</defs>
<g transform="translate(219.09 587.44) scale(.1 -.1)">
<use xlink:href="#ay"/>
<use x="81.787109" xlink:href="#j"/>
<use x="109.570312" xlink:href="#w"/>
<use x="148.779297" xlink:href="#y"/>
</g>
</g>
<g clip-path="url(#a)">
<defs>
<path id="an" d="m45.406 46.391v29.594h8.9844v-75.984h-8.9844v8.2031q-2.8281-4.875-7.1562-7.25-4.3125-2.375-10.375-2.375-9.9062 0-16.141 7.9062-6.2188 7.9219-6.2188 20.812t6.2188 20.797q6.2344 7.9062 16.141 7.9062 6.0625 0 10.375-2.375 4.3281-2.3594 7.1562-7.2344zm-30.609-19.094q0-9.9062 4.0781-15.547t11.203-5.6406 11.219 5.6406q4.1094 5.6406 4.1094 15.547t-4.1094 15.547q-4.0938 5.6406-11.219 5.6406t-11.203-5.6406-4.0781-15.547z"/>
</defs>
<g transform="translate(258.68 587.44) scale(.1 -.1)">
<use xlink:href="#o"/>
<use x="73.193359" xlink:href="#i"/>
<use x="136.572266" xlink:href="#an"/>
<use x="200.048828" xlink:href="#d"/>
<use x="261.572266" xlink:href="#h"/>
</g>
</g>
<g clip-path="url(#a)">
<g transform="translate(309.73 587.44) scale(.1 -.1)">
<use xlink:href="#w"/>
<use x="39.208984" xlink:href="#y"/>
<use x="102.587891" xlink:href="#d"/>
</g>
</g>
<g clip-path="url(#a)">
<g transform="translate(352.34 587.44) scale(.1 -.1)">
<use xlink:href="#t"/>
<use x="69.419922" xlink:href="#d"/>
<use x="130.943359" xlink:href="#an"/>
</g>
</g>
<g clip-path="url(#a)">
<defs>
<path id="az" d="m9.0781 75.984h9.0312v-44.875l26.812 23.578h11.469l-29-25.578 30.234-29.109h-11.719l-27.797 26.703v-26.703h-9.0312z"/>
</defs>
<g transform="translate(397.15 587.44) scale(.1 -.1)">
<use xlink:href="#z"/>
<use x="63.476562" xlink:href="#az"/>
<use x="121.339844" xlink:href="#ag"/>
</g>
</g>
<g clip-path="url(#a)">
<defs>
<path id="aw" d="m31 75.875q-6.5312-11.219-9.7188-22.219-3.1719-10.984-3.1719-22.266 0-11.266 3.2031-22.328t9.6875-22.25h-7.8125q-7.3125 11.484-10.953 22.562t-3.6406 22.016q0 10.891 3.6094 21.922 3.625 11.047 10.984 22.562z"/>
</defs>
<g transform="translate(448.35 587.44) scale(.1 -.1)">
<use xlink:href="#aw"/>
</g>
</g>
<g clip-path="url(#a)">
<g transform="translate(481.7 587.44) scale(.1 -.1)">
<use xlink:href="#c"/>
<use x="63.623047" xlink:href="#n"/>
<use x="127.246094" xlink:href="#n"/>
<use x="190.869141" xlink:href="#s"/>
</g>
</g>
<g clip-path="url(#a)">
<defs>
<path id="av" d="m8.0156 75.875h7.8125q7.3125-11.516 10.953-22.562 3.6406-11.031 3.6406-21.922 0-10.938-3.6406-22.016t-10.953-22.562h-7.8125q6.4844 11.188 9.6875 22.25t3.2031 22.328q0 11.281-3.2031 22.266-3.2031 11-9.6875 22.219z"/>
</defs>
<g transform="translate(536.59 587.44) scale(.1 -.1)">
<use xlink:href="#av"/>
</g>
</g>
<g clip-path="url(#a)">
<defs>
<path id="au" d="m11.719 12.406h10.297v-8.4062l-8-15.625h-6.2969l4 15.625z"/>
</defs>
<g transform="translate(581.08 587.44) scale(.1 -.1)">
<use xlink:href="#au"/>
</g>
</g>
<g clip-path="url(#a)">
<g transform="translate(620.56 587.44) scale(.1 -.1)">
<use xlink:href="#e"/>
<use x="61.279297" xlink:href="#i"/>
</g>
</g>
<g clip-path="url(#a)">
<defs>
<path id="ah" d="m30.609 48.391q-7.2188 0-11.422-5.6406t-4.2031-15.453 4.1719-15.453q4.1875-5.6406 11.453-5.6406 7.1875 0 11.375 5.6562 4.2031 5.6719 4.2031 15.438 0 9.7188-4.2031 15.406-4.1875 5.6875-11.375 5.6875zm0 7.6094q11.719 0 18.406-7.625 6.7031-7.6094 6.7031-21.078 0-13.422-6.7031-21.078-6.6875-7.6406-18.406-7.6406-11.766 0-18.438 7.6406-6.6562 7.6562-6.6562 21.078 0 13.469 6.6562 21.078 6.6719 7.625 18.438 7.625z"/>
<path id="al" d="m8.5 21.578v33.109h8.9844v-32.766q0-7.7656 3.0156-11.656 3.0312-3.875 9.0938-3.875 7.2656 0 11.484 4.6406 4.2344 4.6406 4.2344 12.656v31h8.9844v-54.688h-8.9844v8.4062q-3.2656-4.9844-7.5938-7.4062-4.3125-2.4219-10.031-2.4219-9.4219 0-14.312 5.8594-4.875 5.8594-4.875 17.141z"/>
</defs>
<g transform="translate(656.48 587.44) scale(.1 -.1)">
<use xlink:href="#e"/>
<use x="61.279297" xlink:href="#aj"/>
<use x="124.755859" xlink:href="#ah"/>
<use x="185.9375" xlink:href="#al"/>
<use x="249.316406" xlink:href="#w"/>
</g>
</g>
<g clip-path="url(#a)">
<defs>
<path id="at" d="m4.8906 31.391h26.312v-8h-26.312z"/>
</defs>
<g transform="translate(713.23 587.44) scale(.1 -.1)">
<use xlink:href="#at"/>
</g>
</g>
<g clip-path="url(#a)">
<defs>
<path id="am" d="m37.109 75.984v-7.4844h-8.5938q-4.8281 0-6.7188-1.9531-1.875-1.9531-1.875-7.0312v-4.8281h14.797v-6.9844h-14.797v-47.703h-9.0312v47.703h-8.5938v6.9844h8.5938v3.8125q0 9.125 4.25 13.297 4.25 4.1875 13.469 4.1875z"/>
<path id="ai" d="m48.781 52.594v-8.4062q-3.8125 2.1094-7.6406 3.1562t-7.7344 1.0469q-8.75 0-13.594-5.5469-4.8281-5.5312-4.8281-15.547t4.8281-15.562q4.8438-5.5312 13.594-5.5312 3.9062 0 7.7344 1.0469t7.6406 3.1562v-8.3125q-3.7656-1.75-7.7969-2.625-4.0156-0.89062-8.5625-0.89062-12.359 0-19.641 7.7656-7.2656 7.7656-7.2656 20.953 0 13.375 7.3438 21.031 7.3594 7.6719 20.156 7.6719 4.1406 0 8.0938-0.85938 3.9531-0.84375 7.6719-2.5469z"/>
</defs>
<g transform="translate(748.5 587.44) scale(.1 -.1)">
<use xlink:href="#am"/>
<use x="35.205078" xlink:href="#e"/>
<use x="96.484375" xlink:href="#ai"/>
<use x="151.464844" xlink:href="#d"/>
</g>
</g>
<g clip-path="url(#a)">
<g transform="translate(791.53 587.44) scale(.1 -.1)">
<use xlink:href="#am"/>
<use x="35.205078" xlink:href="#h"/>
<use x="76.287109" xlink:href="#ah"/>
<use x="137.46875" xlink:href="#k"/>
</g>
</g>
<g clip-path="url(#a)">
<g transform="translate(839.19 587.44) scale(.1 -.1)">
<use xlink:href="#w"/>
<use x="39.208984" xlink:href="#y"/>
<use x="102.587891" xlink:href="#d"/>
</g>
</g>
<g clip-path="url(#a)">
<g transform="translate(873.56 587.44) scale(.1 -.1)">
<use xlink:href="#x"/>
<use x="52.099609" xlink:href="#d"/>
<use x="113.623047" xlink:href="#h"/>
<use x="154.736328" xlink:href="#j"/>
<use x="182.519531" xlink:href="#ah"/>
<use x="243.701172" xlink:href="#al"/>
<use x="307.080078" xlink:href="#x"/>
</g>
</g>
<g clip-path="url(#a)">
<defs>
<path id="ao" d="m39.406 66.219q-10.75 0-17.078-8.0156-6.3125-8-6.3125-21.828 0-13.766 6.3125-21.781 6.3281-8 17.078-8 10.734 0 17.016 8 6.2812 8.0156 6.2812 21.781 0 13.828-6.2812 21.828-6.2812 8.0156-17.016 8.0156zm0 8q15.328 0 24.5-10.281 9.1875-10.281 9.1875-27.562 0-17.234-9.1875-27.516-9.1719-10.281-24.5-10.281-15.375 0-24.594 10.25-9.2031 10.266-9.2031 27.547t9.2031 27.562q9.2188 10.281 24.594 10.281z"/>
</defs>
<g transform="translate(928.54 587.44) scale(.1 -.1)">
<use xlink:href="#ao"/>
<use x="78.710938" xlink:href="#y"/>
</g>
</g>
<g clip-path="url(#a)">
<defs>
<path id="aa" d="m9.8125 72.906h14.703l18.594-49.609 18.703 49.609h14.703v-72.906h-9.625v64.016l-18.797-50h-9.9062l-18.797 50v-64.016h-9.5781z"/>
</defs>
<g transform="translate(964.61 587.44) scale(.1 -.1)">
<use xlink:href="#aa"/>
<use x="86.279297" xlink:href="#d"/>
<use x="147.802734" xlink:href="#h"/>
<use x="188.884766" xlink:href="#ai"/>
<use x="243.865234" xlink:href="#ag"/>
</g>
</g>
<g clip-path="url(#a)">
<defs>
<path id="g" d="m10.688 12.406h10.312v-12.406h-10.312z"/>
</defs>
<g transform="translate(1022.3 587.44) scale(.1 -.1)">
<use xlink:href="#g"/>
</g>
</g>
<g clip-path="url(#a)">
<g transform="translate(392.75 31.412) scale(.1 -.1)">
<use xlink:href="#c"/>
<use x="63.623047" xlink:href="#g"/>
<use x="95.410156" xlink:href="#c"/>
</g>
</g>
<g clip-path="url(#a)">
<defs>
<path id="m" d="m19.188 8.2969h34.422v-8.2969h-46.281v8.2969q5.6094 5.8125 15.297 15.594 9.7031 9.7969 12.188 12.641 4.7344 5.3125 6.6094 9 1.8906 3.6875 1.8906 7.25 0 5.8125-4.0781 9.4688-4.0781 3.6719-10.625 3.6719-4.6406 0-9.7969-1.6094-5.1406-1.6094-11-4.8906v9.9688q5.9531 2.3906 11.125 3.6094 5.1875 1.2188 9.4844 1.2188 11.328 0 18.062-5.6719 6.7344-5.6562 6.7344-15.125 0-4.5-1.6875-8.5312-1.6719-4.0156-6.125-9.4844-1.2188-1.4219-7.7656-8.1875-6.5312-6.7656-18.453-18.922z"/>
</defs>
<g transform="translate(392.75 116.23) scale(.1 -.1)">
<use xlink:href="#c"/>
<use x="63.623047" xlink:href="#g"/>
<use x="95.410156" xlink:href="#m"/>
</g>
</g>
<g clip-path="url(#a)">
<defs>
<path id="p" d="m9.8125 72.906h9.8594v-72.906h-9.8594z"/>
<path id="ak" d="m9.8125 72.906h9.8594v-64.609h35.5v-8.2969h-45.359z"/>
</defs>
<g transform="translate(1091 587.44) scale(.1 -.1)">
<use xlink:href="#p"/>
<use x="29.492188" xlink:href="#aa"/>
<use x="115.771484" xlink:href="#u"/>
<use x="176.074219" xlink:href="#ak"/>
<use x="231.787109" xlink:href="#p"/>
<use x="261.279297" xlink:href="#r"/>
<use x="331.103516" xlink:href="#p"/>
<use x="360.595703" xlink:href="#f"/>
</g>
</g>
<g clip-path="url(#a)">
<defs>
<path id="ar" d="m10.797 72.906h38.719v-8.3125h-29.688v-17.859q2.1406 0.73438 4.2812 1.0938 2.1562 0.35938 4.3125 0.35938 12.203 0 19.328-6.6875 7.1406-6.6875 7.1406-18.109 0-11.766-7.3281-18.297-7.3281-6.5156-20.656-6.5156-4.5938 0-9.3594 0.78125-4.75 0.78125-9.8281 2.3438v9.9219q4.3906-2.3906 9.0781-3.5625t9.9062-1.1719q8.4531 0 13.375 4.4375 4.9375 4.4375 4.9375 12.062 0 7.6094-4.9375 12.047-4.9219 4.4531-13.375 4.4531-3.9531 0-7.8906-0.875-3.9219-0.875-8.0156-2.7344z"/>
</defs>
<g transform="translate(67.315 435.15) scale(.1 -.1)">
<use xlink:href="#c"/>
<use x="63.623047" xlink:href="#g"/>
<use x="95.410156" xlink:href="#ar"/>
</g>
</g>
<g clip-path="url(#a)">
<defs>
<path id="af" d="m33.016 40.375q-6.6406 0-10.531-4.5469-3.875-4.5312-3.875-12.438 0-7.8594 3.875-12.438 3.8906-4.5625 10.531-4.5625t10.516 4.5625q3.875 4.5781 3.875 12.438 0 7.9062-3.875 12.438-3.875 4.5469-10.516 4.5469zm19.578 30.922v-8.9844q-3.7188 1.75-7.5 2.6719-3.7812 0.9375-7.5 0.9375-9.7656 0-14.922-6.5938-5.1406-6.5938-5.875-19.922 2.875 4.25 7.2188 6.5156 4.3594 2.2656 9.5781 2.2656 10.984 0 17.359-6.6719 6.375-6.6562 6.375-18.125 0-11.234-6.6406-18.031-6.6406-6.7812-17.672-6.7812-12.656 0-19.344 9.6875-6.6875 9.7031-6.6875 28.109 0 17.281 8.2031 27.562t22.016 10.281q3.7188 0 7.5-0.73438t7.8906-2.1875z"/>
</defs>
<g transform="translate(133.5 511.29) scale(.1 -.1)">
<use xlink:href="#c"/>
<use x="63.623047" xlink:href="#g"/>
<use x="95.410156" xlink:href="#af"/>
</g>
</g>
<g clip-path="url(#a)">
<defs>
<path id="ae" d="m8.2031 72.906h46.875v-4.2031l-26.469-68.703h-10.297l24.906 64.594h-35.016z"/>
</defs>
<g transform="translate(177.62 511.29) scale(.1 -.1)">
<use xlink:href="#c"/>
<use x="63.623047" xlink:href="#g"/>
<use x="95.410156" xlink:href="#ae"/>
</g>
</g>
<g clip-path="url(#a)">
<defs>
<path id="ad" d="m31.781 34.625q-7.0312 0-11.062-3.7656-4.0156-3.7656-4.0156-10.344 0-6.5938 4.0156-10.359 4.0312-3.7656 11.062-3.7656t11.078 3.7812q4.0625 3.7969 4.0625 10.344 0 6.5781-4.0312 10.344-4.0156 3.7656-11.109 3.7656zm-9.8594 4.1875q-6.3438 1.5625-9.8906 5.9062-3.5312 4.3594-3.5312 10.609 0 8.7344 6.2188 13.812 6.2344 5.0781 17.062 5.0781 10.891 0 17.094-5.0781t6.2031-13.812q0-6.25-3.5469-10.609-3.5312-4.3438-9.8281-5.9062 7.125-1.6562 11.094-6.5 3.9844-4.8281 3.9844-11.797 0-10.609-6.4688-16.281-6.4688-5.6562-18.531-5.6562-12.047 0-18.531 5.6562-6.4688 5.6719-6.4688 16.281 0 6.9688 4 11.797 4.0156 4.8438 11.141 6.5zm-3.6094 15.578q0-5.6562 3.5312-8.8281 3.5469-3.1719 9.9375-3.1719 6.3594 0 9.9375 3.1719 3.5938 3.1719 3.5938 8.8281 0 5.6719-3.5938 8.8438-3.5781 3.1719-9.9375 3.1719-6.3906 0-9.9375-3.1719-3.5312-3.1719-3.5312-8.8438z"/>
</defs>
<g transform="translate(481.14 198.76) scale(.1 -.1)">
<use xlink:href="#c"/>
<use x="63.623047" xlink:href="#g"/>
<use x="95.410156" xlink:href="#ad"/>
</g>
</g>
<g clip-path="url(#a)">
<g transform="translate(221.74 511.29) scale(.1 -.1)">
<use xlink:href="#c"/>
<use x="63.623047" xlink:href="#g"/>
<use x="95.410156" xlink:href="#n"/>
</g>
</g>
<g clip-path="url(#a)">
<g transform="translate(328.86 511.29) scale(.1 -.1)">
<use xlink:href="#c"/>
<use x="63.623047" xlink:href="#g"/>
<use x="95.410156" xlink:href="#c"/>
<use x="159.033203" xlink:href="#s"/>
</g>
</g>
<g clip-path="url(#a)">
<g transform="translate(623.01 435.15) scale(.1 -.1)">
<use xlink:href="#c"/>
<use x="63.623047" xlink:href="#g"/>
<use x="95.410156" xlink:href="#c"/>
<use x="159.033203" xlink:href="#c"/>
</g>
</g>
<g clip-path="url(#a)">
<g transform="translate(637.16 279.25) scale(.1 -.1)">
<use xlink:href="#c"/>
<use x="63.623047" xlink:href="#g"/>
<use x="95.410156" xlink:href="#c"/>
<use x="159.033203" xlink:href="#m"/>
</g>
</g>
<g clip-path="url(#a)">
<g transform="translate(615.66 511.29) scale(.1 -.1)">
<use xlink:href="#c"/>
<use x="63.623047" xlink:href="#g"/>
<use x="95.410156" xlink:href="#c"/>
<use x="159.033203" xlink:href="#af"/>
</g>
</g>
<g clip-path="url(#a)">
<g transform="translate(703.9 435.15) scale(.1 -.1)">
<use xlink:href="#c"/>
<use x="63.623047" xlink:href="#g"/>
<use x="95.410156" xlink:href="#c"/>
<use x="159.033203" xlink:href="#ae"/>
</g>
</g>
<g clip-path="url(#a)">
<g transform="translate(900.24 357.94) scale(.1 -.1)">
<use xlink:href="#c"/>
<use x="63.623047" xlink:href="#g"/>
<use x="95.410156" xlink:href="#c"/>
<use x="159.033203" xlink:href="#ad"/>
</g>
</g>
<g clip-path="url(#a)">
<g transform="translate(792.14 511.29) scale(.1 -.1)">
<use xlink:href="#c"/>
<use x="63.623047" xlink:href="#g"/>
<use x="95.410156" xlink:href="#c"/>
<use x="159.033203" xlink:href="#n"/>
</g>
</g>
<g clip-path="url(#a)">
<g transform="translate(836.26 511.29) scale(.1 -.1)">
<use xlink:href="#c"/>
<use x="63.623047" xlink:href="#g"/>
<use x="95.410156" xlink:href="#m"/>
<use x="159.033203" xlink:href="#s"/>
</g>
</g>
<g clip-path="url(#a)">
<g transform="translate(913.48 435.15) scale(.1 -.1)">
<use xlink:href="#c"/>
<use x="63.623047" xlink:href="#g"/>
<use x="95.410156" xlink:href="#m"/>
<use x="159.033203" xlink:href="#c"/>
</g>
</g>
<g clip-path="url(#a)">
<g transform="translate(946.57 511.29) scale(.1 -.1)">
<use xlink:href="#c"/>
<use x="63.623047" xlink:href="#g"/>
<use x="95.410156" xlink:href="#m"/>
<use x="159.033203" xlink:href="#m"/>
</g>
</g>
<g clip-path="url(#a)">
<defs>
<path id="v" d="m40.578 39.312q7.0781-1.5156 11.047-6.3125 3.9844-4.7812 3.9844-11.812 0-10.781-7.4219-16.703-7.4219-5.9062-21.094-5.9062-4.5781 0-9.4375 0.90625t-10.031 2.7188v9.5156q4.0938-2.3906 8.9688-3.6094 4.8906-1.2188 10.219-1.2188 9.2656 0 14.125 3.6562t4.8594 10.641q0 6.4531-4.5156 10.078-4.5156 3.6406-12.562 3.6406h-8.5v8.1094h8.8906q7.2656 0 11.125 2.9062t3.8594 8.375q0 5.6094-3.9844 8.6094-3.9688 3.0156-11.391 3.0156-4.0625 0-8.7031-0.89062-4.6406-0.875-10.203-2.7188v8.7812q5.625 1.5625 10.531 2.3438t9.25 0.78125q11.234 0 17.766-5.1094 6.5469-5.0938 6.5469-13.781 0-6.0625-3.4688-10.234t-9.8594-5.7812z"/>
</defs>
<g transform="translate(880.39 511.29) scale(.1 -.1)">
<use xlink:href="#c"/>
<use x="63.623047" xlink:href="#g"/>
<use x="95.410156" xlink:href="#m"/>
<use x="159.033203" xlink:href="#v"/>
</g>
</g>
<g clip-path="url(#a)">
<defs>
<path id="as" d="m37.797 64.312-24.906-38.922h24.906zm-2.5938 8.5938h12.406v-47.516h10.406v-8.2031h-10.406v-17.188h-9.8125v17.188h-32.906v9.5156z"/>
</defs>
<g transform="translate(439.17 511.29) scale(.1 -.1)">
<use xlink:href="#c"/>
<use x="63.623047" xlink:href="#g"/>
<use x="95.410156" xlink:href="#m"/>
<use x="159.033203" xlink:href="#as"/>
</g>
</g>
<g clip-path="url(#a)">
<g transform="translate(1046.9 587.44) scale(.1 -.1)">
<use xlink:href="#p"/>
<use x="29.492188" xlink:href="#aa"/>
<use x="115.771484" xlink:href="#u"/>
<use x="176.074219" xlink:href="#ak"/>
<use x="231.787109" xlink:href="#p"/>
<use x="261.279297" xlink:href="#r"/>
<use x="331.103516" xlink:href="#p"/>
<use x="360.595703" xlink:href="#f"/>
</g>
</g>
<g clip-path="url(#a)">
<g transform="translate(483.29 511.29) scale(.1 -.1)">
<use xlink:href="#c"/>
<use x="63.623047" xlink:href="#g"/>
<use x="95.410156" xlink:href="#m"/>
<use x="159.033203" xlink:href="#af"/>
</g>
</g>
<g clip-path="url(#a)">
<g transform="translate(42.073 511.29) scale(.1 -.1)">
<use xlink:href="#c"/>
<use x="63.623047" xlink:href="#g"/>
<use x="95.410156" xlink:href="#m"/>
<use x="159.033203" xlink:href="#ae"/>
</g>
</g>
<g clip-path="url(#a)">
<g transform="translate(86.195 511.29) scale(.1 -.1)">
<use xlink:href="#c"/>
<use x="63.623047" xlink:href="#g"/>
<use x="95.410156" xlink:href="#m"/>
<use x="159.033203" xlink:href="#ad"/>
</g>
</g>
<g clip-path="url(#a)">
<g transform="translate(527.41 511.29) scale(.1 -.1)">
<use xlink:href="#c"/>
<use x="63.623047" xlink:href="#g"/>
<use x="95.410156" xlink:href="#m"/>
<use x="159.033203" xlink:href="#n"/>
</g>
</g>
<g clip-path="url(#a)">
<g transform="translate(571.53 511.29) scale(.1 -.1)">
<use xlink:href="#c"/>
<use x="63.623047" xlink:href="#g"/>
<use x="95.410156" xlink:href="#v"/>
<use x="159.033203" xlink:href="#s"/>
</g>
</g>
<g clip-path="url(#a)">
<g transform="translate(703.9 511.29) scale(.1 -.1)">
<use xlink:href="#c"/>
<use x="63.623047" xlink:href="#g"/>
<use x="95.410156" xlink:href="#v"/>
<use x="159.033203" xlink:href="#c"/>
</g>
</g>
<g clip-path="url(#a)">
<g transform="translate(1012.8 511.29) scale(.1 -.1)">
<use xlink:href="#c"/>
<use x="63.623047" xlink:href="#g"/>
<use x="95.410156" xlink:href="#v"/>
<use x="159.033203" xlink:href="#m"/>
</g>
</g>
<defs>
<clipPath id="a">
<rect width="1165.3" height="613.33"/>
</clipPath>
</defs>
</svg>
