<?xml version="1.0" encoding="UTF-8"?>
<!DOCTYPE svg  PUBLIC '-//W3C//DTD SVG 1.1//EN'  'http://www.w3.org/Graphics/SVG/1.1/DTD/svg11.dtd'>
<svg width="2026.7pt" height="1066.7pt" version="1.1" viewBox="0 0 2026.7 1066.7" xmlns="http://www.w3.org/2000/svg" xmlns:xlink="http://www.w3.org/1999/xlink">
<defs>
<style type="text/css">*{stroke-linecap:butt;stroke-linejoin:round;white-space:pre;}</style>
</defs>
<path d="m0 1066.7h2026.7v-1066.7h-2026.7z" fill="#fff"/>
<g fill="none" stroke="#000">
<path d="m675.79 49.155-528.42 622.91" clip-path="url(#a)"/>
<path d="m675.79 49.155-394.59 853.74" clip-path="url(#a)"/>
<path d="m675.79 49.155-354.79 131.42" clip-path="url(#a)"/>
<path d="m675.79 49.155 727.7 383.32" clip-path="url(#a)"/>
<path d="m675.79 49.155 550.1 853.74" clip-path="url(#a)"/>
<path d="m147.37 672.07-55.107 230.83" clip-path="url(#a)"/>
<path d="m147.37 672.07-7.8724 230.83" clip-path="url(#a)"/>
<path d="m147.37 672.07 62.979 116.21" clip-path="url(#a)"/>
<path d="m281.2 902.9v114.62" clip-path="url(#a)"/>
<path d="m321 180.58 7.435 722.32" clip-path="url(#a)"/>
<path d="m321 180.58 221.3 127.66" clip-path="url(#a)"/>
<path d="m321 180.58-228.74 722.32" clip-path="url(#a)" stroke-dasharray="3.7,1.6"/>
<path d="m1403.5 432.47-130.37 470.42" clip-path="url(#a)"/>
<path d="m1403.5 432.47-83.132 470.42" clip-path="url(#a)"/>
<path d="m1403.5 432.47-35.898 470.42" clip-path="url(#a)"/>
<path d="m1403.5 432.47 11.336 470.42" clip-path="url(#a)"/>
<path d="m1403.5 432.47 238.06 121.15" clip-path="url(#a)"/>
<path d="m1273.1 902.9v114.62" clip-path="url(#a)"/>
<path d="m1320.4 902.9v114.62" clip-path="url(#a)"/>
<path d="m1367.6 902.9v114.62" clip-path="url(#a)"/>
<path d="m1414.8 902.9v114.62" clip-path="url(#a)"/>
<path d="m1641.5 553.62-179.49 349.28" clip-path="url(#a)"/>
<path d="m1641.5 553.62-14.17 118.45" clip-path="url(#a)"/>
<path d="m1641.5 553.62 103.92 349.28" clip-path="url(#a)"/>
<path d="m1641.5 553.62 222 234.66" clip-path="url(#a)"/>
<path d="m1641.5 553.62-132.26 349.28" clip-path="url(#a)"/>
<path d="m1462.1 902.9v114.62" clip-path="url(#a)"/>
<path d="m1627.4 672.07-47.234 116.21" clip-path="url(#a)"/>
<path d="m1627.4 672.07 47.234 116.21" clip-path="url(#a)"/>
<path d="m1745.5 902.9v114.62" clip-path="url(#a)"/>
<path d="m1863.5 788.28-70.851 114.62" clip-path="url(#a)"/>
<path d="m1863.5 788.28-23.617 114.62" clip-path="url(#a)"/>
<path d="m1863.5 788.28 23.617 114.62" clip-path="url(#a)"/>
<path d="m1863.5 788.28 70.851 114.62" clip-path="url(#a)"/>
<path d="m1792.7 902.9v114.62" clip-path="url(#a)"/>
<path d="m1839.9 902.9v114.62" clip-path="url(#a)"/>
<path d="m1580.1 788.28-23.617 114.62" clip-path="url(#a)"/>
<path d="m1580.1 788.28 23.617 114.62" clip-path="url(#a)"/>
<path d="m1674.6 788.28-23.617 114.62" clip-path="url(#a)"/>
<path d="m1674.6 788.28 23.617 114.62" clip-path="url(#a)"/>
<path d="m1651 902.9v114.62" clip-path="url(#a)"/>
<path d="m1698.2 902.9v114.62" clip-path="url(#a)"/>
<path d="m1556.5 902.9v114.62" clip-path="url(#a)"/>
<path d="m1603.8 902.9v114.62" clip-path="url(#a)"/>
<path d="m328.44 902.9v114.62" clip-path="url(#a)"/>
<path d="m542.3 308.24-166.63 594.66" clip-path="url(#a)"/>
<path d="m542.3 308.24-95.78 594.66" clip-path="url(#a)"/>
<path d="m542.3 308.24 287.34 124.23" clip-path="url(#a)"/>
<path d="m542.3 308.24-24.929 594.66" clip-path="url(#a)"/>
<path d="m375.67 902.9v114.62" clip-path="url(#a)"/>
<path d="m446.52 902.9-23.617 114.62" clip-path="url(#a)"/>
<path d="m446.52 902.9 23.617 114.62" clip-path="url(#a)"/>
<path d="m829.64 432.47-265.04 470.42" clip-path="url(#a)"/>
<path d="m829.64 432.47-146.95 239.6" clip-path="url(#a)"/>
<path d="m829.64 432.47 65.603 470.42" clip-path="url(#a)"/>
<path d="m829.64 432.47 18.369 239.6" clip-path="url(#a)"/>
<path d="m829.64 432.47 207.31 470.42" clip-path="url(#a)"/>
<path d="m829.64 432.47 120.71 121.15" clip-path="url(#a)"/>
<path d="m564.61 902.9v114.62" clip-path="url(#a)"/>
<path d="m682.69 672.07-70.851 230.83" clip-path="url(#a)"/>
<path d="m682.69 672.07-23.617 230.83" clip-path="url(#a)"/>
<path d="m682.69 672.07 94.468 116.21" clip-path="url(#a)"/>
<path d="m895.25 902.9v114.62" clip-path="url(#a)"/>
<path d="m848.01 672.07 94.468 230.83" clip-path="url(#a)"/>
<path d="m848.01 672.07 141.7 116.21" clip-path="url(#a)"/>
<path d="m848.01 672.07-236.17 230.83" clip-path="url(#a)" stroke-dasharray="3.7,1.6"/>
<path d="m1037 902.9v114.62" clip-path="url(#a)"/>
<path d="m950.35 553.62 133.83 349.28" clip-path="url(#a)"/>
<path d="m950.35 553.62 204.68 118.45" clip-path="url(#a)"/>
<path d="m950.35 553.62-338.51 349.28" clip-path="url(#a)" stroke-dasharray="3.7,1.6"/>
<path d="m1084.2 902.9v114.62" clip-path="url(#a)"/>
<path d="m1155 672.07-23.617 116.21" clip-path="url(#a)"/>
<path d="m1155 672.07 23.617 230.83" clip-path="url(#a)"/>
<path d="m1131.4 788.28v114.62" clip-path="url(#a)"/>
<path d="m1178.7 902.9v114.62" clip-path="url(#a)"/>
<path d="m1131.4 902.9v114.62" clip-path="url(#a)"/>
<path d="m942.48 902.9v114.62" clip-path="url(#a)"/>
<path d="m989.72 788.28v114.62" clip-path="url(#a)"/>
<path d="m989.72 902.9v114.62" clip-path="url(#a)"/>
<path d="m611.84 902.9v114.62" clip-path="url(#a)"/>
<path d="m659.08 902.9v114.62" clip-path="url(#a)"/>
<path d="m777.16 788.28-70.851 114.62" clip-path="url(#a)"/>
<path d="m777.16 788.28v114.62" clip-path="url(#a)"/>
<path d="m777.16 788.28 70.851 114.62" clip-path="url(#a)"/>
<path d="m706.31 902.9v114.62" clip-path="url(#a)"/>
<path d="m777.16 902.9-23.617 114.62" clip-path="url(#a)"/>
<path d="m777.16 902.9 23.617 114.62" clip-path="url(#a)"/>
<path d="m848.01 902.9v114.62" clip-path="url(#a)"/>
<path d="m92.267 902.9v114.62" clip-path="url(#a)"/>
<path d="m139.5 902.9v114.62" clip-path="url(#a)"/>
<path d="m210.35 788.28-23.617 114.62" clip-path="url(#a)"/>
<path d="m210.35 788.28 23.617 114.62" clip-path="url(#a)"/>
<path d="m186.73 902.9v114.62" clip-path="url(#a)"/>
<path d="m233.97 902.9v114.62" clip-path="url(#a)"/>
<path d="m517.37 902.9v114.62" clip-path="url(#a)"/>
<path d="m1225.9 902.9v114.62" clip-path="url(#a)"/>
<path d="m1509.3 902.9v114.62" clip-path="url(#a)"/>
<path d="m1887.2 902.9v114.62" clip-path="url(#a)"/>
<path d="m1934.4 902.9v114.62" clip-path="url(#a)"/>
</g>
<path d="m414.42 366.96 3.8919-4.5879q1.5526-1.8302-0.27764-3.3827l-5.9043-5.0086q-1.8302-1.5526-3.3827 0.27764l-3.8919 4.5879q-1.5526 1.8302 0.27764 3.3827l5.9043 5.0086q1.8302 1.5526 3.3827-0.27764z" clip-path="url(#a)" fill="#fff" stroke="#fff"/>
<g clip-path="url(#a)">
<defs>
<path id="w" d="m9.8125 72.906h9.8594v-29.891h35.844v29.891h9.8594v-72.906h-9.8594v34.719h-35.844v-34.719h-9.8594z"/>
</defs>
<g transform="translate(411.32 364.33) rotate(-49.692) scale(.08 -.08)">
<use xlink:href="#w"/>
</g>
</g>
<path d="m483.25 480.68 1.8701-4.0462q1.0069-2.1786-1.1717-3.1855l-7.0281-3.2483q-2.1786-1.0069-3.1855 1.1717l-1.8701 4.0462q-1.0069 2.1786 1.1717 3.1855l7.0281 3.2483q2.1786 1.0069 3.1855-1.1717z" clip-path="url(#a)" fill="#fff" stroke="#fff"/>
<g clip-path="url(#a)">
<defs>
<path id="af" d="m9.8125 72.906h9.8594v-64.609h35.5v-8.2969h-45.359z"/>
</defs>
<g transform="translate(479.57 478.97) rotate(-65.194) scale(.08 -.08)">
<use xlink:href="#af"/>
</g>
</g>
<path d="m497.75 121.79 5.6416-2.0898q2.2506-0.83366 1.4169-3.0842l-2.6894-7.2604q-0.83366-2.2506-3.0842-1.4169l-5.6416 2.0898q-2.2506 0.83366-1.4169 3.0842l2.6894 7.2604q0.83366 2.2506 3.0842 1.4169z" clip-path="url(#a)" fill="#fff" stroke="#fff"/>
<g clip-path="url(#a)">
<g transform="translate(496.34 117.98) rotate(-20.326) scale(.08 -.08)">
<use xlink:href="#w"/>
</g>
</g>
<path d="m1034.1 244.96 5.3229 2.8039q2.1234 1.1185 3.2419-1.0049l3.6084-6.8502q1.1185-2.1234-1.0049-3.2419l-5.3229-2.8039q-2.1234-1.1185-3.2419 1.0049l-3.6084 6.8502q-1.1185 2.1234 1.0049 3.2419z" clip-path="url(#a)" fill="#fff" stroke="#fff"/>
<g clip-path="url(#a)">
<g transform="translate(1035.9 241.36) rotate(27.778) scale(.08 -.08)">
<use xlink:href="#w"/>
</g>
</g>
<path d="m943.98 476.96 3.1713 4.9218q1.2999 2.0175 3.3174 0.71754l6.5084-4.1936q2.0175-1.2999 0.71754-3.3174l-3.1713-4.9218q-1.2999-2.0175-3.3174-0.71754l-6.5084 4.1936q-2.0175 1.2999-0.71754 3.3174z" clip-path="url(#a)" fill="#fff" stroke="#fff"/>
<g clip-path="url(#a)">
<defs>
<path id="y" d="m8.6875 72.906h9.9219v-44.297q0-11.719 4.2344-16.875 4.25-5.1406 13.781-5.1406 9.4688 0 13.719 5.1406 4.25 5.1562 4.25 16.875v44.297h9.9062v-45.516q0-14.25-7.0625-21.531-7.0469-7.2812-20.812-7.2812-13.828 0-20.891 7.2812-7.0469 7.2812-7.0469 21.531z"/>
</defs>
<g transform="translate(947.4 474.76) rotate(57.205) scale(.08 -.08)">
<use xlink:href="#y"/>
</g>
</g>
<path d="m125.28 791.6 1.2708-5.3229q0.5573-2.3344-1.7771-2.8917l-7.5309-1.7979q-2.3344-0.5573-2.8917 1.7771l-1.2708 5.3229q-0.5573 2.3344 1.7771 2.8917l7.5309 1.7979q2.3344 0.5573 2.8917-1.7771z" clip-path="url(#a)" fill="#fff" stroke="#fff"/>
<g clip-path="url(#a)">
<defs>
<path id="m" d="m34.188 63.188-13.391-36.281h26.812zm-5.5781 9.7188h11.188l27.781-72.906h-10.25l-6.6406 18.703h-32.859l-6.6406-18.703h-10.406z"/>
</defs>
<g transform="translate(121.33 790.66) rotate(-76.573) scale(.08 -.08)">
<use xlink:href="#m"/>
</g>
</g>
<path d="m149.62 790.11 0.16442-4.8209q0.081804-2.3986-2.3168-2.4804l-7.738-0.2639q-2.3986-0.081804-2.4804 2.3168l-0.16442 4.8209q-0.081805 2.3986 2.3168 2.4804l7.738 0.2639q2.3986 0.081804 2.4804-2.3168z" clip-path="url(#a)" fill="#fff" stroke="#fff"/>
<g clip-path="url(#a)">
<defs>
<path id="u" d="m19.672 64.797v-27.391h12.406q6.8906 0 10.641 3.5625 3.7656 3.5625 3.7656 10.156 0 6.5469-3.7656 10.109-3.75 3.5625-10.641 3.5625zm-9.8594 8.1094h22.266q12.266 0 18.531-5.5469 6.2812-5.5469 6.2812-16.234 0-10.797-6.2812-16.312-6.2656-5.5156-18.531-5.5156h-12.406v-29.297h-9.8594z"/>
</defs>
<g transform="translate(145.56 789.97) rotate(-88.047) scale(.08 -.08)">
<use xlink:href="#u"/>
</g>
</g>
<path d="m172.05 730.76 2.6075 4.8114q1.1435 2.1101 3.2536 0.96654l6.8072-3.689q2.1101-1.1435 0.96654-3.2536l-2.6075-4.8114q-1.1435-2.1101-3.2536-0.96654l-6.8072 3.689q-2.1101 1.1435-0.96654 3.2536z" clip-path="url(#a)" fill="#fff" stroke="#fff"/>
<g clip-path="url(#a)">
<g transform="translate(175.62 728.82) rotate(61.545) scale(.08 -.08)">
<use xlink:href="#m"/>
</g>
</g>
<path d="m274.93 942.56v35.285q0 2.4 2.4 2.4h7.7425q2.4 0 2.4-2.4v-35.285q0-2.4-2.4-2.4h-7.7425q-2.4 0-2.4 2.4z" clip-path="url(#a)" fill="#fff" stroke="#fff"/>
<g clip-path="url(#a)">
<defs>
<path id="l" d="m-0.29688 72.906h61.672v-8.3125h-25.875v-64.594h-9.9062v64.594h-25.891z"/>
<path id="d" d="m56.203 29.594v-4.3906h-41.312q0.59375-9.2812 5.5938-14.141t13.938-4.8594q5.1719 0 10.031 1.2656t9.6562 3.8125v-8.5q-4.8438-2.0469-9.9219-3.125t-10.297-1.0781q-13.094 0-20.734 7.6094-7.6406 7.625-7.6406 20.625 0 13.422 7.25 21.297 7.25 7.8906 19.562 7.8906 11.031 0 17.453-7.1094 6.4219-7.0938 6.4219-19.297zm-8.9844 2.6406q-0.09375 7.3594-4.125 11.75-4.0312 4.4062-10.672 4.4062-7.5156 0-12.031-4.25t-5.2031-11.969z"/>
<path id="f" d="m41.109 46.297q-1.5156 0.875-3.2969 1.2812-1.7812 0.42188-3.9219 0.42188-7.625 0-11.703-4.9531t-4.0781-14.234v-28.812h-9.0312v54.688h9.0312v-8.5q2.8438 4.9844 7.375 7.3906 4.5469 2.4219 11.047 2.4219 0.92188 0 2.0469-0.125 1.125-0.10938 2.4844-0.35938z"/>
<path id="k" d="m52 44.188q3.375 6.0625 8.0625 8.9375t11.031 2.875q8.5469 0 13.188-5.9844 4.6406-5.9688 4.6406-17v-33.016h-9.0312v32.719q0 7.8594-2.7969 11.656-2.7812 3.8125-8.4844 3.8125-6.9844 0-11.047-4.6406-4.0469-4.625-4.0469-12.641v-30.906h-9.0312v32.719q0 7.9062-2.7812 11.688t-8.5938 3.7812q-6.8906 0-10.953-4.6562-4.0469-4.6562-4.0469-12.625v-30.906h-9.0312v54.688h9.0312v-8.5q3.0781 5.0312 7.375 7.4219t10.203 2.3906q5.9688 0 10.141-3.0312 4.1719-3.0156 6.1719-8.7812z"/>
<path id="i" d="m9.4219 54.688h8.9844v-54.688h-8.9844zm0 21.297h8.9844v-11.391h-8.9844z"/>
<path id="j" d="m54.891 33.016v-33.016h-8.9844v32.719q0 7.7656-3.0312 11.609-3.0312 3.8594-9.0781 3.8594-7.2812 0-11.484-4.6406-4.2031-4.625-4.2031-12.641v-30.906h-9.0312v54.688h9.0312v-8.5q3.2344 4.9375 7.5938 7.375 4.375 2.4375 10.094 2.4375 9.4219 0 14.25-5.8281 4.8438-5.8281 4.8438-17.156z"/>
<path id="g" d="m34.281 27.484q-10.891 0-15.094-2.4844t-4.2031-8.5q0-4.7812 3.1562-7.5938 3.1562-2.7969 8.5625-2.7969 7.4844 0 12 5.2969t4.5156 14.078v2zm17.922 3.7188v-31.203h-8.9844v8.2969q-3.0781-4.9688-7.6719-7.3438t-11.234-2.375q-8.3906 0-13.359 4.7188-4.9531 4.7188-4.9531 12.625 0 9.2188 6.1719 13.906 6.1875 4.6875 18.438 4.6875h12.609v0.89062q0 6.2031-4.0781 9.5938t-11.453 3.3906q-4.6875 0-9.1406-1.125-4.4375-1.125-8.5312-3.375v8.3125q4.9219 1.9062 9.5625 2.8438 4.6406 0.95312 9.0312 0.95312 11.875 0 17.734-6.1562 5.8594-6.1406 5.8594-18.641z"/>
<path id="h" d="m9.4219 75.984h8.9844v-75.984h-8.9844z"/>
</defs>
<g transform="translate(279 942.56) rotate(90) scale(.08 -.08)">
<use xlink:href="#l"/>
<use x="60.818359" xlink:href="#d"/>
<use x="122.341797" xlink:href="#f"/>
<use x="163.439453" xlink:href="#k"/>
<use x="260.851562" xlink:href="#i"/>
<use x="288.634766" xlink:href="#j"/>
<use x="352.013672" xlink:href="#g"/>
<use x="413.292969" xlink:href="#h"/>
</g>
</g>
<path d="m318.42 539.39 0.04965 4.8235q0.024702 2.3999 2.4246 2.3752l7.7421-0.079692q2.3999-0.024702 2.3752-2.4246l-0.049649-4.8235q-0.024703-2.3999-2.4246-2.3752l-7.7421 0.079691q-2.3999 0.024703-2.3752 2.4246z" clip-path="url(#a)" fill="#fff" stroke="#fff"/>
<g clip-path="url(#a)">
<g transform="translate(322.49 539.35) rotate(89.41) scale(.08 -.08)">
<use xlink:href="#u"/>
</g>
</g>
<path d="m426.15 248.47 4.7403 2.7346q2.0789 1.1993 3.2781-0.87964l3.8688-6.7066q1.1993-2.0789-0.87963-3.2781l-4.7403-2.7346q-2.0789-1.1993-3.2781 0.87963l-3.8689 6.7066q-1.1993 2.0789 0.87964 3.2781z" clip-path="url(#a)" fill="#fff" stroke="#fff"/>
<g clip-path="url(#a)">
<g transform="translate(428.18 244.95) rotate(29.979) scale(.08 -.08)">
<use xlink:href="#m"/>
</g>
</g>
<path d="m211.79 546.24 1.6521-5.2172q0.72455-2.288-1.5635-3.0126l-7.3812-2.3374q-2.288-0.72455-3.0126 1.5635l-1.6521 5.2172q-0.72454 2.288 1.5635 3.0126l7.3812 2.3374q2.288 0.72455 3.0126-1.5635z" clip-path="url(#a)" fill="#fff" stroke="#fff"/>
<g clip-path="url(#a)">
<g transform="translate(207.91 545.01) rotate(-72.429) scale(.08 -.08)">
<use xlink:href="#m"/>
</g>
</g>
<path d="m1343.6 672 1.4615-5.2737q0.64094-2.3128-1.6719-2.9538l-7.4613-2.0677q-2.3128-0.64094-2.9538 1.6719l-1.4615 5.2737q-0.64094 2.3128 1.6719 2.9538l7.4613 2.0677q2.3128 0.64094 2.9538-1.6719z" clip-path="url(#a)" fill="#fff" stroke="#fff"/>
<g clip-path="url(#a)">
<g transform="translate(1339.7 670.91) rotate(-74.511) scale(.08 -.08)">
<use xlink:href="#m"/>
</g>
</g>
<path d="m1367.7 671.18 0.85031-4.8117q0.41765-2.3634-1.9457-2.781l-7.6244-1.3474q-2.3634-0.41765-2.781 1.9457l-0.85031 4.8117q-0.41765 2.3634 1.9457 2.781l7.6244 1.3474q2.3634 0.41765 2.781-1.9457z" clip-path="url(#a)" fill="#fff" stroke="#fff"/>
<g clip-path="url(#a)">
<g transform="translate(1363.7 670.47) rotate(-79.978) scale(.08 -.08)">
<use xlink:href="#l"/>
</g>
</g>
<path d="m1391.6 670.57 0.36703-4.8098q0.18261-2.393-2.2104-2.5757l-7.7201-0.58912q-2.393-0.18261-2.5757 2.2104l-0.36703 4.8098q-0.18261 2.393 2.2104 2.5757l7.7201 0.58912q2.393 0.18261 2.5757-2.2104z" clip-path="url(#a)" fill="#fff" stroke="#fff"/>
<g clip-path="url(#a)">
<g transform="translate(1387.6 670.26) rotate(-85.636) scale(.08 -.08)">
<use xlink:href="#u"/>
</g>
</g>
<path d="m1402.8 665.1 0.13184 5.4709q0.057818 2.3993 2.4571 2.3415l7.7403-0.18652q2.3993-0.057818 2.3415-2.4571l-0.13184-5.4709q-0.057818-2.3993-2.4571-2.3415l-7.7403 0.18652q-2.3993 0.057818-2.3415 2.4571z" clip-path="url(#a)" fill="#fff" stroke="#fff"/>
<g clip-path="url(#a)">
<g transform="translate(1406.9 665) rotate(88.62) scale(.08 -.08)">
<use xlink:href="#m"/>
</g>
</g>
<path d="m1517.2 497.39 4.8773 2.482q2.139 1.0885 3.2275-1.0505l3.5116-6.9004q1.0885-2.139-1.0505-3.2275l-4.8773-2.482q-2.139-1.0885-3.2275 1.0505l-3.5116 6.9004q-1.0885 2.139 1.0505 3.2275z" clip-path="url(#a)" fill="#fff" stroke="#fff"/>
<g clip-path="url(#a)">
<g transform="translate(1519.1 493.77) rotate(26.971) scale(.08 -.08)">
<use xlink:href="#m"/>
</g>
</g>
<path d="m1266.9 942.56v35.285q0 2.4 2.4 2.4h7.7425q2.4 0 2.4-2.4v-35.285q0-2.4-2.4-2.4h-7.7425q-2.4 0-2.4 2.4z" clip-path="url(#a)" fill="#fff" stroke="#fff"/>
<g clip-path="url(#a)">
<g transform="translate(1270.9 942.56) rotate(90) scale(.08 -.08)">
<use xlink:href="#l"/>
<use x="60.818359" xlink:href="#d"/>
<use x="122.341797" xlink:href="#f"/>
<use x="163.439453" xlink:href="#k"/>
<use x="260.851562" xlink:href="#i"/>
<use x="288.634766" xlink:href="#j"/>
<use x="352.013672" xlink:href="#g"/>
<use x="413.292969" xlink:href="#h"/>
</g>
</g>
<path d="m1314.1 942.56v35.285q0 2.4 2.4 2.4h7.7425q2.4 0 2.4-2.4v-35.285q0-2.4-2.4-2.4h-7.7425q-2.4 0-2.4 2.4z" clip-path="url(#a)" fill="#fff" stroke="#fff"/>
<g clip-path="url(#a)">
<g transform="translate(1318.1 942.56) rotate(90) scale(.08 -.08)">
<use xlink:href="#l"/>
<use x="60.818359" xlink:href="#d"/>
<use x="122.341797" xlink:href="#f"/>
<use x="163.439453" xlink:href="#k"/>
<use x="260.851562" xlink:href="#i"/>
<use x="288.634766" xlink:href="#j"/>
<use x="352.013672" xlink:href="#g"/>
<use x="413.292969" xlink:href="#h"/>
</g>
</g>
<path d="m1361.3 942.56v35.285q0 2.4 2.4 2.4h7.7425q2.4 0 2.4-2.4v-35.285q0-2.4-2.4-2.4h-7.7425q-2.4 0-2.4 2.4z" clip-path="url(#a)" fill="#fff" stroke="#fff"/>
<g clip-path="url(#a)">
<g transform="translate(1365.4 942.56) rotate(90) scale(.08 -.08)">
<use xlink:href="#l"/>
<use x="60.818359" xlink:href="#d"/>
<use x="122.341797" xlink:href="#f"/>
<use x="163.439453" xlink:href="#k"/>
<use x="260.851562" xlink:href="#i"/>
<use x="288.634766" xlink:href="#j"/>
<use x="352.013672" xlink:href="#g"/>
<use x="413.292969" xlink:href="#h"/>
</g>
</g>
<path d="m1408.6 942.56v35.285q0 2.4 2.4 2.4h7.7425q2.4 0 2.4-2.4v-35.285q0-2.4-2.4-2.4h-7.7425q-2.4 0-2.4 2.4z" clip-path="url(#a)" fill="#fff" stroke="#fff"/>
<g clip-path="url(#a)">
<g transform="translate(1412.6 942.56) rotate(90) scale(.08 -.08)">
<use xlink:href="#l"/>
<use x="60.818359" xlink:href="#d"/>
<use x="122.341797" xlink:href="#f"/>
<use x="163.439453" xlink:href="#k"/>
<use x="260.851562" xlink:href="#i"/>
<use x="288.634766" xlink:href="#j"/>
<use x="352.013672" xlink:href="#g"/>
<use x="413.292969" xlink:href="#h"/>
</g>
</g>
<path d="m1556.1 733.6 2.5407-4.9441q1.097-2.1346-1.0377-3.2316l-6.8864-3.5389q-2.1346-1.097-3.2316 1.0377l-2.5407 4.9441q-1.097 2.1346 1.0377 3.2316l6.8864 3.5389q2.1346 1.097 3.2316-1.0377z" clip-path="url(#a)" fill="#fff" stroke="#fff"/>
<g clip-path="url(#a)">
<defs>
<path id="z" d="m44.391 34.188q3.1719-1.0781 6.1719-4.5938t6.0312-9.6719l10.016-19.922h-10.609l-9.3125 18.703q-3.625 7.3281-7.0156 9.7188t-9.25 2.3906h-10.75v-30.812h-9.8594v72.906h22.266q12.5 0 18.656-5.2344 6.1562-5.2188 6.1562-15.766 0-6.8906-3.2031-11.438-3.2031-4.5312-9.2969-6.2812zm-24.719 30.609v-25.875h12.406q7.125 0 10.766 3.2969t3.6406 9.6875-3.6406 9.6406-10.766 3.25z"/>
</defs>
<g transform="translate(1552.5 731.74) rotate(-62.802) scale(.08 -.08)">
<use xlink:href="#z"/>
</g>
</g>
<path d="m1640.3 616.58 0.71464-5.9737q0.28508-2.383-2.0979-2.6681l-7.6877-0.91969q-2.383-0.28508-2.6681 2.0979l-0.71464 5.9737q-0.28508 2.383 2.0979 2.6681l7.6877 0.91969q2.383 0.28508 2.6681-2.0979z" clip-path="url(#a)" fill="#fff" stroke="#fff"/>
<g clip-path="url(#a)">
<g transform="translate(1636.3 616.09) rotate(-83.178) scale(.08 -.08)">
<use xlink:href="#w"/>
</g>
</g>
<path d="m1686.9 727.91 1.2711 4.2724q0.68439 2.3003 2.9847 1.616l7.421-2.2079q2.3004-0.68439 1.616-2.9847l-1.2711-4.2724q-0.68439-2.3004-2.9847-1.616l-7.421 2.2079q-2.3004 0.68439-1.616 2.9847z" clip-path="url(#a)" fill="#fff" stroke="#fff"/>
<g clip-path="url(#a)">
<g transform="translate(1690.8 726.75) rotate(73.431) scale(.08 -.08)">
<use xlink:href="#af"/>
</g>
</g>
<path d="m1745.9 673.07 4.1346 4.3704q1.6494 1.7434 3.3928 0.094051l5.6244-5.321q1.7434-1.6494 0.094051-3.3928l-4.1346-4.3704q-1.6494-1.7434-3.3928-0.094052l-5.6244 5.321q-1.7434 1.6494-0.094051 3.3928z" clip-path="url(#a)" fill="#fff" stroke="#fff"/>
<g clip-path="url(#a)">
<g transform="translate(1748.9 670.28) rotate(46.588) scale(.08 -.08)">
<use xlink:href="#w"/>
</g>
</g>
<path d="m1580.2 733.22 2.0734-5.4756q0.84989-2.2445-1.3946-3.0944l-7.2408-2.7418q-2.2445-0.84989-3.0944 1.3946l-2.0734 5.4756q-0.84989 2.2445 1.3946 3.0944l7.2408 2.7418q2.2445 0.84989 3.0944-1.3946z" clip-path="url(#a)" fill="#fff" stroke="#fff"/>
<g clip-path="url(#a)">
<g transform="translate(1576.4 731.78) rotate(-69.26) scale(.08 -.08)">
<use xlink:href="#y"/>
</g>
</g>
<path d="m1455.8 942.56v35.285q0 2.4 2.4 2.4h7.7425q2.4 0 2.4-2.4v-35.285q0-2.4-2.4-2.4h-7.7425q-2.4 0-2.4 2.4z" clip-path="url(#a)" fill="#fff" stroke="#fff"/>
<g clip-path="url(#a)">
<g transform="translate(1459.9 942.56) rotate(90) scale(.08 -.08)">
<use xlink:href="#l"/>
<use x="60.818359" xlink:href="#d"/>
<use x="122.341797" xlink:href="#f"/>
<use x="163.439453" xlink:href="#k"/>
<use x="260.851562" xlink:href="#i"/>
<use x="288.634766" xlink:href="#j"/>
<use x="352.013672" xlink:href="#g"/>
<use x="413.292969" xlink:href="#h"/>
</g>
</g>
<path d="m1608.6 734.89 1.9123-4.705q0.90369-2.2234-1.3197-3.1271l-7.1727-2.9153q-2.2234-0.90369-3.1271 1.3197l-1.9123 4.705q-0.90369 2.2234 1.3197 3.1271l7.1727 2.9153q2.2234 0.90369 3.1271-1.3197z" clip-path="url(#a)" fill="#fff" stroke="#fff"/>
<g clip-path="url(#a)">
<defs>
<path id="ap" d="m53.516 70.516v-9.625q-5.6094 2.6875-10.594 4-4.9844 1.3281-9.625 1.3281-8.0469 0-12.422-3.125t-4.375-8.8906q0-4.8438 2.9062-7.3125 2.9062-2.4531 11.016-3.9688l5.9531-1.2188q11.031-2.1094 16.281-7.4062t5.25-14.172q0-10.609-7.1094-16.078-7.0938-5.4688-20.812-5.4688-5.1719 0-11.016 1.1719-5.8281 1.1719-12.078 3.4688v10.156q6-3.3594 11.766-5.0781 5.7656-1.7031 11.328-1.7031 8.4375 0 13.031 3.3125 4.5938 3.3281 4.5938 9.4844 0 5.3594-3.2969 8.3906t-10.812 4.5469l-6.0156 1.1719q-11.031 2.1875-15.969 6.875-4.9219 4.6875-4.9219 13.047 0 9.6719 6.8125 15.234t18.766 5.5625q5.1406 0 10.453-0.9375 5.3281-0.92188 10.891-2.7656z"/>
</defs>
<g transform="translate(1604.8 733.36) rotate(-67.881) scale(.08 -.08)">
<use xlink:href="#ap"/>
</g>
</g>
<path d="m1644.2 730 2.0606 5.0697q0.90369 2.2234 3.1271 1.3197l7.1727-2.9153q2.2234-0.90369 1.3197-3.1271l-2.0606-5.0697q-0.90369-2.2234-3.1271-1.3197l-7.1727 2.9153q-2.2234 0.90369-1.3197 3.1271z" clip-path="url(#a)" fill="#fff" stroke="#fff"/>
<g clip-path="url(#a)">
<g transform="translate(1647.9 728.47) rotate(67.881) scale(.08 -.08)">
<use xlink:href="#m"/>
</g>
</g>
<path d="m1739.2 942.56v35.285q0 2.4 2.4 2.4h7.7425q2.4 0 2.4-2.4v-35.285q0-2.4-2.4-2.4h-7.7425q-2.4 0-2.4 2.4z" clip-path="url(#a)" fill="#fff" stroke="#fff"/>
<g clip-path="url(#a)">
<g transform="translate(1743.3 942.56) rotate(90) scale(.08 -.08)">
<use xlink:href="#l"/>
<use x="60.818359" xlink:href="#d"/>
<use x="122.341797" xlink:href="#f"/>
<use x="163.439453" xlink:href="#k"/>
<use x="260.851562" xlink:href="#i"/>
<use x="288.634766" xlink:href="#j"/>
<use x="352.013672" xlink:href="#g"/>
<use x="413.292969" xlink:href="#h"/>
</g>
</g>
<path d="m1832.2 850.94 2.5364-4.1031q1.2619-2.0414-0.77951-3.3034l-6.5858-4.0711q-2.0414-1.2619-3.3034 0.77951l-2.5364 4.1031q-1.2619 2.0414 0.77951 3.3034l6.5858 4.0711q2.0414 1.2619 3.3034-0.77951z" clip-path="url(#a)" fill="#fff" stroke="#fff"/>
<g clip-path="url(#a)">
<g transform="translate(1828.7 848.8) rotate(-58.277) scale(.08 -.08)">
<use xlink:href="#u"/>
</g>
</g>
<path d="m1857.3 849.53 1.1044-5.3599q0.48435-2.3506-1.8663-2.835l-7.5832-1.5625q-2.3506-0.48435-2.835 1.8663l-1.1044 5.3599q-0.48435 2.3506 1.8663 2.835l7.5832 1.5625q2.3506 0.48435 2.835-1.8663z" clip-path="url(#a)" fill="#fff" stroke="#fff"/>
<g clip-path="url(#a)">
<g transform="translate(1853.4 848.71) rotate(-78.357) scale(.08 -.08)">
<use xlink:href="#m"/>
</g>
</g>
<path d="m1868.6 843.99 1.1816 5.7345q0.48435 2.3506 2.835 1.8663l7.5832-1.5625q2.3506-0.48435 1.8663-2.835l-1.1816-5.7345q-0.48435-2.3506-2.835-1.8663l-7.5832 1.5625q-2.3506 0.48435-1.8663 2.835z" clip-path="url(#a)" fill="#fff" stroke="#fff"/>
<g clip-path="url(#a)">
<g transform="translate(1872.6 843.17) rotate(78.357) scale(.08 -.08)">
<use xlink:href="#y"/>
</g>
</g>
<path d="m1892.1 846.39 3.0786 4.9803q1.2619 2.0414 3.3034 0.77951l6.5858-4.0711q2.0414-1.2619 0.77951-3.3034l-3.0786-4.9803q-1.2619-2.0414-3.3034-0.77951l-6.5858 4.0711q-2.0414 1.2619-0.77951 3.3034z" clip-path="url(#a)" fill="#fff" stroke="#fff"/>
<g clip-path="url(#a)">
<g transform="translate(1895.6 844.26) rotate(58.277) scale(.08 -.08)">
<use xlink:href="#y"/>
</g>
</g>
<path d="m1786.4 942.56v35.285q0 2.4 2.4 2.4h7.7425q2.4 0 2.4-2.4v-35.285q0-2.4-2.4-2.4h-7.7425q-2.4 0-2.4 2.4z" clip-path="url(#a)" fill="#fff" stroke="#fff"/>
<g clip-path="url(#a)">
<g transform="translate(1790.5 942.56) rotate(90) scale(.08 -.08)">
<use xlink:href="#l"/>
<use x="60.818359" xlink:href="#d"/>
<use x="122.341797" xlink:href="#f"/>
<use x="163.439453" xlink:href="#k"/>
<use x="260.851562" xlink:href="#i"/>
<use x="288.634766" xlink:href="#j"/>
<use x="352.013672" xlink:href="#g"/>
<use x="413.292969" xlink:href="#h"/>
</g>
</g>
<path d="m1833.7 942.56v35.285q0 2.4 2.4 2.4h7.7425q2.4 0 2.4-2.4v-35.285q0-2.4-2.4-2.4h-7.7425q-2.4 0-2.4 2.4z" clip-path="url(#a)" fill="#fff" stroke="#fff"/>
<g clip-path="url(#a)">
<g transform="translate(1837.7 942.56) rotate(90) scale(.08 -.08)">
<use xlink:href="#l"/>
<use x="60.818359" xlink:href="#d"/>
<use x="122.341797" xlink:href="#f"/>
<use x="163.439453" xlink:href="#k"/>
<use x="260.851562" xlink:href="#i"/>
<use x="288.634766" xlink:href="#j"/>
<use x="352.013672" xlink:href="#g"/>
<use x="413.292969" xlink:href="#h"/>
</g>
</g>
<path d="m1574 849.33 1.0202-4.951q0.48435-2.3506-1.8663-2.835l-7.5832-1.5625q-2.3506-0.48435-2.835 1.8663l-1.0202 4.951q-0.48435 2.3506 1.8663 2.835l7.5832 1.5625q2.3506 0.48435 2.835-1.8663z" clip-path="url(#a)" fill="#fff" stroke="#fff"/>
<g clip-path="url(#a)">
<defs>
<path id="ak" d="m9.8125 72.906h46.094v-8.3125h-36.234v-21.578h34.719v-8.2969h-34.719v-26.422h37.109v-8.2969h-46.969z"/>
</defs>
<g transform="translate(1570 848.51) rotate(-78.357) scale(.08 -.08)">
<use xlink:href="#ak"/>
</g>
</g>
<path d="m1585.2 844.12 1.1274 5.4713q0.48435 2.3506 2.835 1.8663l7.5832-1.5625q2.3506-0.48435 1.8663-2.835l-1.1274-5.4713q-0.48435-2.3506-2.835-1.8663l-7.5832 1.5625q-2.3506 0.48435-1.8663 2.835z" clip-path="url(#a)" fill="#fff" stroke="#fff"/>
<g clip-path="url(#a)">
<defs>
<path id="ac" d="m64.406 67.281v-10.391q-4.9844 4.6406-10.625 6.9219-5.6406 2.2969-11.984 2.2969-12.5 0-19.141-7.6406t-6.6406-22.094q0-14.406 6.6406-22.047t19.141-7.6406q6.3438 0 11.984 2.2969t10.625 6.9375v-10.312q-5.1719-3.5156-10.969-5.2812-5.7812-1.75-12.219-1.75-16.562 0-26.094 10.125-9.5156 10.141-9.5156 27.672 0 17.578 9.5156 27.703 9.5312 10.141 26.094 10.141 6.5312 0 12.312-1.7344 5.7969-1.7344 10.875-5.2031z"/>
</defs>
<g transform="translate(1589.2 843.3) rotate(78.357) scale(.08 -.08)">
<use xlink:href="#ac"/>
</g>
</g>
<path d="m1668.4 849.57 1.1218-5.4444q0.48435-2.3506-1.8663-2.835l-7.5832-1.5625q-2.3506-0.48435-2.835 1.8663l-1.1218 5.4444q-0.48435 2.3506 1.8663 2.835l7.5832 1.5625q2.3506 0.48435 2.835-1.8663z" clip-path="url(#a)" fill="#fff" stroke="#fff"/>
<g clip-path="url(#a)">
<g transform="translate(1664.4 848.75) rotate(-78.357) scale(.08 -.08)">
<use xlink:href="#z"/>
</g>
</g>
<path d="m1679.7 844.12 1.1274 5.4713q0.48435 2.3506 2.835 1.8663l7.5832-1.5625q2.3506-0.48435 1.8663-2.835l-1.1274-5.4713q-0.48435-2.3506-2.835-1.8663l-7.5832 1.5625q-2.3506 0.48435-1.8663 2.835z" clip-path="url(#a)" fill="#fff" stroke="#fff"/>
<g clip-path="url(#a)">
<g transform="translate(1683.7 843.3) rotate(78.357) scale(.08 -.08)">
<use xlink:href="#ac"/>
</g>
</g>
<path d="m1644.7 942.56v35.285q0 2.4 2.4 2.4h7.7425q2.4 0 2.4-2.4v-35.285q0-2.4-2.4-2.4h-7.7425q-2.4 0-2.4 2.4z" clip-path="url(#a)" fill="#fff" stroke="#fff"/>
<g clip-path="url(#a)">
<g transform="translate(1648.8 942.56) rotate(90) scale(.08 -.08)">
<use xlink:href="#l"/>
<use x="60.818359" xlink:href="#d"/>
<use x="122.341797" xlink:href="#f"/>
<use x="163.439453" xlink:href="#k"/>
<use x="260.851562" xlink:href="#i"/>
<use x="288.634766" xlink:href="#j"/>
<use x="352.013672" xlink:href="#g"/>
<use x="413.292969" xlink:href="#h"/>
</g>
</g>
<path d="m1692 942.56v35.285q0 2.4 2.4 2.4h7.7425q2.4 0 2.4-2.4v-35.285q0-2.4-2.4-2.4h-7.7425q-2.4 0-2.4 2.4z" clip-path="url(#a)" fill="#fff" stroke="#fff"/>
<g clip-path="url(#a)">
<g transform="translate(1696 942.56) rotate(90) scale(.08 -.08)">
<use xlink:href="#l"/>
<use x="60.818359" xlink:href="#d"/>
<use x="122.341797" xlink:href="#f"/>
<use x="163.439453" xlink:href="#k"/>
<use x="260.851562" xlink:href="#i"/>
<use x="288.634766" xlink:href="#j"/>
<use x="352.013672" xlink:href="#g"/>
<use x="413.292969" xlink:href="#h"/>
</g>
</g>
<path d="m1550.3 942.56v35.285q0 2.4 2.4 2.4h7.7425q2.4 0 2.4-2.4v-35.285q0-2.4-2.4-2.4h-7.7425q-2.4 0-2.4 2.4z" clip-path="url(#a)" fill="#fff" stroke="#fff"/>
<g clip-path="url(#a)">
<g transform="translate(1554.3 942.56) rotate(90) scale(.08 -.08)">
<use xlink:href="#l"/>
<use x="60.818359" xlink:href="#d"/>
<use x="122.341797" xlink:href="#f"/>
<use x="163.439453" xlink:href="#k"/>
<use x="260.851562" xlink:href="#i"/>
<use x="288.634766" xlink:href="#j"/>
<use x="352.013672" xlink:href="#g"/>
<use x="413.292969" xlink:href="#h"/>
</g>
</g>
<path d="m1597.5 942.56v35.285q0 2.4 2.4 2.4h7.7425q2.4 0 2.4-2.4v-35.285q0-2.4-2.4-2.4h-7.7425q-2.4 0-2.4 2.4z" clip-path="url(#a)" fill="#fff" stroke="#fff"/>
<g clip-path="url(#a)">
<g transform="translate(1601.6 942.56) rotate(90) scale(.08 -.08)">
<use xlink:href="#l"/>
<use x="60.818359" xlink:href="#d"/>
<use x="122.341797" xlink:href="#f"/>
<use x="163.439453" xlink:href="#k"/>
<use x="260.851562" xlink:href="#i"/>
<use x="288.634766" xlink:href="#j"/>
<use x="352.013672" xlink:href="#g"/>
<use x="413.292969" xlink:href="#h"/>
</g>
</g>
<path d="m322.17 942.56v35.285q0 2.4 2.4 2.4h7.7425q2.4 0 2.4-2.4v-35.285q0-2.4-2.4-2.4h-7.7425q-2.4 0-2.4 2.4z" clip-path="url(#a)" fill="#fff" stroke="#fff"/>
<g clip-path="url(#a)">
<g transform="translate(326.23 942.56) rotate(90) scale(.08 -.08)">
<use xlink:href="#l"/>
<use x="60.818359" xlink:href="#d"/>
<use x="122.341797" xlink:href="#f"/>
<use x="163.439453" xlink:href="#k"/>
<use x="260.851562" xlink:href="#i"/>
<use x="288.634766" xlink:href="#j"/>
<use x="352.013672" xlink:href="#g"/>
<use x="413.292969" xlink:href="#h"/>
</g>
</g>
<path d="m464.28 609.94 1.4999-5.3526q0.64757-2.311-1.6634-2.9586l-7.4553-2.0891q-2.311-0.64757-2.9586 1.6634l-1.4999 5.3526q-0.64757 2.311 1.6634 2.9586l7.4553 2.0891q2.311 0.64757 2.9586-1.6634z" clip-path="url(#a)" fill="#fff" stroke="#fff"/>
<g clip-path="url(#a)">
<g transform="translate(460.36 608.84) rotate(-74.346) scale(.08 -.08)">
<use xlink:href="#z"/>
</g>
</g>
<path d="m500.16 609.32 0.88832-5.5152q0.38165-2.3695-1.9878-2.7511l-7.644-1.2312q-2.3695-0.38165-2.7511 1.9878l-0.88832 5.5152q-0.38165 2.3695 1.9878 2.7511l7.644 1.2312q2.3695 0.38165 2.7511-1.9878z" clip-path="url(#a)" fill="#fff" stroke="#fff"/>
<g clip-path="url(#a)">
<g transform="translate(496.15 608.68) rotate(-80.85) scale(.08 -.08)">
<use xlink:href="#ac"/>
</g>
</g>
<path d="m681.17 375.11 4.6399 2.0061q2.2029 0.95243 3.1554-1.2505l3.0726-7.1067q0.95243-2.2029-1.2505-3.1554l-4.6399-2.0061q-2.2029-0.95243-3.1554 1.2505l-3.0726 7.1067q-0.95243 2.2029 1.2505 3.1554z" clip-path="url(#a)" fill="#fff" stroke="#fff"/>
<g clip-path="url(#a)">
<g transform="translate(682.78 371.38) rotate(23.381) scale(.08 -.08)">
<use xlink:href="#ak"/>
</g>
</g>
<path d="m535.98 608.76 0.24524-5.8499q0.10052-2.3979-2.2974-2.4984l-7.7357-0.3243q-2.3979-0.10052-2.4984 2.2974l-0.24524 5.8499q-0.10052 2.3979 2.2974 2.4984l7.7357 0.3243q2.3979 0.10052 2.4984-2.2974z" clip-path="url(#a)" fill="#fff" stroke="#fff"/>
<g clip-path="url(#a)">
<g transform="translate(531.92 608.59) rotate(-87.599) scale(.08 -.08)">
<use xlink:href="#y"/>
</g>
</g>
<path d="m369.4 942.56v35.285q0 2.4 2.4 2.4h7.7425q2.4 0 2.4-2.4v-35.285q0-2.4-2.4-2.4h-7.7425q-2.4 0-2.4 2.4z" clip-path="url(#a)" fill="#fff" stroke="#fff"/>
<g clip-path="url(#a)">
<g transform="translate(373.46 942.56) rotate(90) scale(.08 -.08)">
<use xlink:href="#l"/>
<use x="60.818359" xlink:href="#d"/>
<use x="122.341797" xlink:href="#f"/>
<use x="163.439453" xlink:href="#k"/>
<use x="260.851562" xlink:href="#i"/>
<use x="288.634766" xlink:href="#j"/>
<use x="352.013672" xlink:href="#g"/>
<use x="413.292969" xlink:href="#h"/>
</g>
</g>
<path d="m437.3 978.75 7.121-34.559q0.48435-2.3506-1.8663-2.835l-7.5832-1.5625q-2.3506-0.48435-2.835 1.8663l-7.121 34.559q-0.48435 2.3506 1.8663 2.835l7.5832 1.5625q2.3506 0.48435 2.835-1.8663z" clip-path="url(#a)" fill="#fff" stroke="#fff"/>
<g clip-path="url(#a)">
<g transform="translate(433.32 977.93) rotate(-78.357) scale(.08 -.08)">
<use xlink:href="#l"/>
<use x="60.818359" xlink:href="#d"/>
<use x="122.341797" xlink:href="#f"/>
<use x="163.439453" xlink:href="#k"/>
<use x="260.851562" xlink:href="#i"/>
<use x="288.634766" xlink:href="#j"/>
<use x="352.013672" xlink:href="#g"/>
<use x="413.292969" xlink:href="#h"/>
</g>
</g>
<path d="m448.63 944.19 7.121 34.559q0.48435 2.3506 2.835 1.8663l7.5832-1.5625q2.3506-0.48435 1.8663-2.835l-7.121-34.559q-0.48435-2.3506-2.835-1.8663l-7.5832 1.5625q-2.3506 0.48435-1.8663 2.835z" clip-path="url(#a)" fill="#fff" stroke="#fff"/>
<g clip-path="url(#a)">
<g transform="translate(452.61 943.37) rotate(78.357) scale(.08 -.08)">
<use xlink:href="#l"/>
<use x="60.818359" xlink:href="#d"/>
<use x="122.341797" xlink:href="#f"/>
<use x="163.439453" xlink:href="#k"/>
<use x="260.851562" xlink:href="#i"/>
<use x="288.634766" xlink:href="#j"/>
<use x="352.013672" xlink:href="#g"/>
<use x="413.292969" xlink:href="#h"/>
</g>
</g>
<path d="m701.23 673.18 2.7285-4.843q1.1781-2.091-0.91292-3.269l-6.7456-3.8005q-2.091-1.1781-3.269 0.91292l-2.7285 4.843q-1.1781 2.091 0.91292 3.269l6.7456 3.8005q2.091 1.1781 3.269-0.91292z" clip-path="url(#a)" fill="#fff" stroke="#fff"/>
<g clip-path="url(#a)">
<g transform="translate(697.69 671.19) rotate(-60.603) scale(.08 -.08)">
<use xlink:href="#z"/>
</g>
</g>
<path d="m759.94 558.11 3.1454-5.1285q1.2548-2.0459-0.79108-3.3006l-6.6-4.048q-2.0459-1.2548-3.3006 0.79108l-3.1454 5.1285q-1.2548 2.0459 0.79108 3.3006l6.6 4.048q2.0459 1.2548 3.3006-0.79108z" clip-path="url(#a)" fill="#fff" stroke="#fff"/>
<g clip-path="url(#a)">
<g transform="translate(756.48 555.99) rotate(-58.478) scale(.08 -.08)">
<use xlink:href="#w"/>
</g>
</g>
<path d="m855.93 666.34 0.61566 4.4148q0.33148 2.377 2.7085 2.0455l7.6683-1.0694q2.377-0.33148 2.0455-2.7085l-0.61566-4.4148q-0.33148-2.377-2.7085-2.0455l-7.6683 1.0694q-2.377 0.33148-2.0455 2.7085z" clip-path="url(#a)" fill="#fff" stroke="#fff"/>
<g clip-path="url(#a)">
<g transform="translate(859.95 665.78) rotate(82.061) scale(.08 -.08)">
<use xlink:href="#af"/>
</g>
</g>
<path d="m832.35 549.75 0.45989 5.9986q0.18346 2.393 2.5764 2.2095l7.7198-0.59185q2.393-0.18346 2.2095-2.5764l-0.45989-5.9986q-0.18346-2.393-2.5764-2.2095l-7.7198 0.59185q-2.393 0.18346-2.2095 2.5764z" clip-path="url(#a)" fill="#fff" stroke="#fff"/>
<g clip-path="url(#a)">
<g transform="translate(836.4 549.44) rotate(85.616) scale(.08 -.08)">
<use xlink:href="#w"/>
</g>
</g>
<path d="m926.66 668.17 1.7975 4.079q0.96782 2.1962 3.164 1.2284l7.0851-3.1222q2.1962-0.96782 1.2284-3.164l-1.7975-4.079q-0.96782-2.1962-3.164-1.2284l-7.0851 3.1222q-2.1962 0.96782-1.2284 3.164z" clip-path="url(#a)" fill="#fff" stroke="#fff"/>
<g clip-path="url(#a)">
<g transform="translate(930.38 666.53) rotate(66.218) scale(.08 -.08)">
<use xlink:href="#af"/>
</g>
</g>
<path d="m883.43 495.34 4.2464 4.2618q1.694 1.7001 3.3941 0.006147l5.4847-5.4649q1.7001-1.694 0.006146-3.3941l-4.2464-4.2618q-1.694-1.7001-3.3941-0.006147l-5.4847 5.4649q-1.7001 1.694-0.006146 3.3941z" clip-path="url(#a)" fill="#fff" stroke="#fff"/>
<g clip-path="url(#a)">
<g transform="translate(886.31 492.47) rotate(45.104) scale(.08 -.08)">
<use xlink:href="#w"/>
</g>
</g>
<path d="m558.34 942.56v35.285q0 2.4 2.4 2.4h7.7425q2.4 0 2.4-2.4v-35.285q0-2.4-2.4-2.4h-7.7425q-2.4 0-2.4 2.4z" clip-path="url(#a)" fill="#fff" stroke="#fff"/>
<g clip-path="url(#a)">
<g transform="translate(562.4 942.56) rotate(90) scale(.08 -.08)">
<use xlink:href="#l"/>
<use x="60.818359" xlink:href="#d"/>
<use x="122.341797" xlink:href="#f"/>
<use x="163.439453" xlink:href="#k"/>
<use x="260.851562" xlink:href="#i"/>
<use x="288.634766" xlink:href="#j"/>
<use x="352.013672" xlink:href="#g"/>
<use x="413.292969" xlink:href="#h"/>
</g>
</g>
<path d="m652.46 791.94 1.6058-5.2316q0.70424-2.2944-1.5901-2.9986l-7.4017-2.2719q-2.2944-0.70424-2.9986 1.5901l-1.6058 5.2316q-0.70424 2.2944 1.5901 2.9986l7.4017 2.2719q2.2944 0.70424 2.9986-1.5901z" clip-path="url(#a)" fill="#fff" stroke="#fff"/>
<g clip-path="url(#a)">
<g transform="translate(648.58 790.75) rotate(-72.936) scale(.08 -.08)">
<use xlink:href="#m"/>
</g>
</g>
<path d="m676.88 790.52 0.49098-4.7987q0.24428-2.3875-2.1433-2.6318l-7.7023-0.78806q-2.3875-0.24428-2.6318 2.1433l-0.49098 4.7987q-0.24428 2.3875 2.1433 2.6318l7.7023 0.78806q2.3875 0.24428 2.6318-2.1433z" clip-path="url(#a)" fill="#fff" stroke="#fff"/>
<g clip-path="url(#a)">
<g transform="translate(672.84 790.11) rotate(-84.158) scale(.08 -.08)">
<use xlink:href="#u"/>
</g>
</g>
<path d="m723.34 732.01 3.452 4.2464q1.5139 1.8623 3.3762 0.34843l6.0079-4.8838q1.8623-1.5139 0.34843-3.3762l-3.452-4.2464q-1.5139-1.8623-3.3762-0.34843l-6.0079 4.8838q-1.8623 1.5139-0.34843 3.3762z" clip-path="url(#a)" fill="#fff" stroke="#fff"/>
<g clip-path="url(#a)">
<g transform="translate(726.49 729.44) rotate(50.892) scale(.08 -.08)">
<use xlink:href="#m"/>
</g>
</g>
<path d="m888.98 942.56v35.285q0 2.4 2.4 2.4h7.7425q2.4 0 2.4-2.4v-35.285q0-2.4-2.4-2.4h-7.7425q-2.4 0-2.4 2.4z" clip-path="url(#a)" fill="#fff" stroke="#fff"/>
<g clip-path="url(#a)">
<g transform="translate(893.04 942.56) rotate(90) scale(.08 -.08)">
<use xlink:href="#l"/>
<use x="60.818359" xlink:href="#d"/>
<use x="122.341797" xlink:href="#f"/>
<use x="163.439453" xlink:href="#k"/>
<use x="260.851562" xlink:href="#i"/>
<use x="288.634766" xlink:href="#j"/>
<use x="352.013672" xlink:href="#g"/>
<use x="413.292969" xlink:href="#h"/>
</g>
</g>
<path d="m888.53 787.62 1.8271 4.4643q0.90904 2.2212 3.1302 1.3121l7.1656-2.9326q2.2212-0.90904 1.3121-3.1302l-1.8271-4.4643q-0.90904-2.2212-3.1302-1.3121l-7.1656 2.9326q-2.2212 0.90904-1.3121 3.1302z" clip-path="url(#a)" fill="#fff" stroke="#fff"/>
<g clip-path="url(#a)">
<g transform="translate(892.29 786.09) rotate(67.743) scale(.08 -.08)">
<use xlink:href="#u"/>
</g>
</g>
<path d="m912.77 733.29 4.2315 3.4703q1.8557 1.5219 3.3777-0.33384l4.9097-5.9867q1.5219-1.8557-0.33384-3.3777l-4.2315-3.4703q-1.8557-1.5219-3.3777 0.33384l-4.9097 5.9867q-1.5219 1.8557 0.33384 3.3777z" clip-path="url(#a)" fill="#fff" stroke="#fff"/>
<g clip-path="url(#a)">
<g transform="translate(915.35 730.14) rotate(39.355) scale(.08 -.08)">
<use xlink:href="#m"/>
</g>
</g>
<path d="m732.35 793.88 3.9137-3.8251q1.7164-1.6775 0.038834-3.3939l-5.4118-5.5371q-1.6775-1.7164-3.3939-0.038833l-3.9137 3.8251q-1.7164 1.6775-0.038834 3.3939l5.4118 5.5371q1.6775 1.7164 3.3939 0.038833z" clip-path="url(#a)" fill="#fff" stroke="#fff"/>
<g clip-path="url(#a)">
<g transform="translate(729.51 790.97) rotate(-44.344) scale(.08 -.08)">
<use xlink:href="#m"/>
</g>
</g>
<path d="m1030.7 942.56v35.285q0 2.4 2.4 2.4h7.7425q2.4 0 2.4-2.4v-35.285q0-2.4-2.4-2.4h-7.7425q-2.4 0-2.4 2.4z" clip-path="url(#a)" fill="#fff" stroke="#fff"/>
<g clip-path="url(#a)">
<g transform="translate(1034.7 942.56) rotate(90) scale(.08 -.08)">
<use xlink:href="#l"/>
<use x="60.818359" xlink:href="#d"/>
<use x="122.341797" xlink:href="#f"/>
<use x="163.439453" xlink:href="#k"/>
<use x="260.851562" xlink:href="#i"/>
<use x="288.634766" xlink:href="#j"/>
<use x="352.013672" xlink:href="#g"/>
<use x="413.292969" xlink:href="#h"/>
</g>
</g>
<path d="m1010.6 728.25 1.7259 4.5044q0.85872 2.2411 3.0998 1.3824l7.2299-2.7703q2.2411-0.85872 1.3824-3.0998l-1.7259-4.5044q-0.85872-2.2411-3.0998-1.3824l-7.2299 2.7703q-2.2411 0.85872-1.3824 3.0998z" clip-path="url(#a)" fill="#fff" stroke="#fff"/>
<g clip-path="url(#a)">
<g transform="translate(1014.3 726.79) rotate(69.035) scale(.08 -.08)">
<use xlink:href="#u"/>
</g>
</g>
<path d="m1047.2 616.9 4.7366 2.741q2.0772 1.2021 3.2793-0.87515l3.878-6.7013q1.2021-2.0772-0.87515-3.2793l-4.7366-2.741q-2.0772-1.2021-3.2793 0.87515l-3.878 6.7013q-1.2021 2.0772 0.87515 3.2793z" clip-path="url(#a)" fill="#fff" stroke="#fff"/>
<g clip-path="url(#a)">
<g transform="translate(1049.2 613.38) rotate(30.058) scale(.08 -.08)">
<use xlink:href="#m"/>
</g>
</g>
<path d="m783.7 734.59 3.8086-3.9297q1.6703-1.7234-0.053115-3.3937l-5.5598-5.3884q-1.7234-1.6703-3.3937 0.053115l-3.8086 3.9297q-1.6703 1.7234 0.053114 3.3937l5.5598 5.3884q1.7234 1.6703 3.3937-0.053115z" clip-path="url(#a)" fill="#fff" stroke="#fff"/>
<g clip-path="url(#a)">
<g transform="translate(780.78 731.76) rotate(-45.897) scale(.08 -.08)">
<use xlink:href="#m"/>
</g>
</g>
<path d="m1077.9 942.56v35.285q0 2.4 2.4 2.4h7.7425q2.4 0 2.4-2.4v-35.285q0-2.4-2.4-2.4h-7.7425q-2.4 0-2.4 2.4z" clip-path="url(#a)" fill="#fff" stroke="#fff"/>
<g clip-path="url(#a)">
<g transform="translate(1082 942.56) rotate(90) scale(.08 -.08)">
<use xlink:href="#l"/>
<use x="60.818359" xlink:href="#d"/>
<use x="122.341797" xlink:href="#f"/>
<use x="163.439453" xlink:href="#k"/>
<use x="260.851562" xlink:href="#i"/>
<use x="288.634766" xlink:href="#j"/>
<use x="352.013672" xlink:href="#g"/>
<use x="413.292969" xlink:href="#h"/>
</g>
</g>
<path d="m1148.8 734.1 1.0899-5.3629q0.47797-2.3519-1.874-2.8299l-7.5874-1.542q-2.3519-0.47797-2.8299 1.874l-1.0899 5.3629q-0.47797 2.3519 1.874 2.8299l7.5874 1.542q2.3519 0.47797 2.8299-1.874z" clip-path="url(#a)" fill="#fff" stroke="#fff"/>
<g clip-path="url(#a)">
<g transform="translate(1144.8 733.29) rotate(-78.512) scale(.08 -.08)">
<use xlink:href="#m"/>
</g>
</g>
<path d="m1160.4 785.72 0.49098 4.7987q0.24428 2.3875 2.6318 2.1433l7.7023-0.78806q2.3875-0.24428 2.1433-2.6318l-0.49098-4.7987q-0.24428-2.3875-2.6318-2.1433l-7.7023 0.78806q-2.3875 0.24428-2.1433 2.6318z" clip-path="url(#a)" fill="#fff" stroke="#fff"/>
<g clip-path="url(#a)">
<g transform="translate(1164.4 785.31) rotate(84.158) scale(.08 -.08)">
<use xlink:href="#u"/>
</g>
</g>
<path d="m1125.1 843.18v4.8238q0 2.4 2.4 2.4h7.7425q2.4 0 2.4-2.4v-4.8238q0-2.4-2.4-2.4h-7.7425q-2.4 0-2.4 2.4z" clip-path="url(#a)" fill="#fff" stroke="#fff"/>
<g clip-path="url(#a)">
<g transform="translate(1129.2 843.18) rotate(90) scale(.08 -.08)">
<use xlink:href="#u"/>
</g>
</g>
<path d="m1172.4 942.56v35.285q0 2.4 2.4 2.4h7.7425q2.4 0 2.4-2.4v-35.285q0-2.4-2.4-2.4h-7.7425q-2.4 0-2.4 2.4z" clip-path="url(#a)" fill="#fff" stroke="#fff"/>
<g clip-path="url(#a)">
<g transform="translate(1176.4 942.56) rotate(90) scale(.08 -.08)">
<use xlink:href="#l"/>
<use x="60.818359" xlink:href="#d"/>
<use x="122.341797" xlink:href="#f"/>
<use x="163.439453" xlink:href="#k"/>
<use x="260.851562" xlink:href="#i"/>
<use x="288.634766" xlink:href="#j"/>
<use x="352.013672" xlink:href="#g"/>
<use x="413.292969" xlink:href="#h"/>
</g>
</g>
<path d="m1125.1 942.56v35.285q0 2.4 2.4 2.4h7.7425q2.4 0 2.4-2.4v-35.285q0-2.4-2.4-2.4h-7.7425q-2.4 0-2.4 2.4z" clip-path="url(#a)" fill="#fff" stroke="#fff"/>
<g clip-path="url(#a)">
<g transform="translate(1129.2 942.56) rotate(90) scale(.08 -.08)">
<use xlink:href="#l"/>
<use x="60.818359" xlink:href="#d"/>
<use x="122.341797" xlink:href="#f"/>
<use x="163.439453" xlink:href="#k"/>
<use x="260.851562" xlink:href="#i"/>
<use x="288.634766" xlink:href="#j"/>
<use x="352.013672" xlink:href="#g"/>
<use x="413.292969" xlink:href="#h"/>
</g>
</g>
<path d="m936.21 942.56v35.285q0 2.4 2.4 2.4h7.7425q2.4 0 2.4-2.4v-35.285q0-2.4-2.4-2.4h-7.7425q-2.4 0-2.4 2.4z" clip-path="url(#a)" fill="#fff" stroke="#fff"/>
<g clip-path="url(#a)">
<g transform="translate(940.27 942.56) rotate(90) scale(.08 -.08)">
<use xlink:href="#l"/>
<use x="60.818359" xlink:href="#d"/>
<use x="122.341797" xlink:href="#f"/>
<use x="163.439453" xlink:href="#k"/>
<use x="260.851562" xlink:href="#i"/>
<use x="288.634766" xlink:href="#j"/>
<use x="352.013672" xlink:href="#g"/>
<use x="413.292969" xlink:href="#h"/>
</g>
</g>
<path d="m983.44 843.18v4.8238q0 2.4 2.4 2.4h7.7425q2.4 0 2.4-2.4v-4.8238q0-2.4-2.4-2.4h-7.7425q-2.4 0-2.4 2.4z" clip-path="url(#a)" fill="#fff" stroke="#fff"/>
<g clip-path="url(#a)">
<g transform="translate(987.51 843.18) rotate(90) scale(.08 -.08)">
<use xlink:href="#u"/>
</g>
</g>
<path d="m983.44 942.56v35.285q0 2.4 2.4 2.4h7.7425q2.4 0 2.4-2.4v-35.285q0-2.4-2.4-2.4h-7.7425q-2.4 0-2.4 2.4z" clip-path="url(#a)" fill="#fff" stroke="#fff"/>
<g clip-path="url(#a)">
<g transform="translate(987.51 942.56) rotate(90) scale(.08 -.08)">
<use xlink:href="#l"/>
<use x="60.818359" xlink:href="#d"/>
<use x="122.341797" xlink:href="#f"/>
<use x="163.439453" xlink:href="#k"/>
<use x="260.851562" xlink:href="#i"/>
<use x="288.634766" xlink:href="#j"/>
<use x="352.013672" xlink:href="#g"/>
<use x="413.292969" xlink:href="#h"/>
</g>
</g>
<path d="m605.57 942.56v35.285q0 2.4 2.4 2.4h7.7425q2.4 0 2.4-2.4v-35.285q0-2.4-2.4-2.4h-7.7425q-2.4 0-2.4 2.4z" clip-path="url(#a)" fill="#fff" stroke="#fff"/>
<g clip-path="url(#a)">
<g transform="translate(609.64 942.56) rotate(90) scale(.08 -.08)">
<use xlink:href="#l"/>
<use x="60.818359" xlink:href="#d"/>
<use x="122.341797" xlink:href="#f"/>
<use x="163.439453" xlink:href="#k"/>
<use x="260.851562" xlink:href="#i"/>
<use x="288.634766" xlink:href="#j"/>
<use x="352.013672" xlink:href="#g"/>
<use x="413.292969" xlink:href="#h"/>
</g>
</g>
<path d="m652.81 942.56v35.285q0 2.4 2.4 2.4h7.7425q2.4 0 2.4-2.4v-35.285q0-2.4-2.4-2.4h-7.7425q-2.4 0-2.4 2.4z" clip-path="url(#a)" fill="#fff" stroke="#fff"/>
<g clip-path="url(#a)">
<g transform="translate(656.87 942.56) rotate(90) scale(.08 -.08)">
<use xlink:href="#l"/>
<use x="60.818359" xlink:href="#d"/>
<use x="122.341797" xlink:href="#f"/>
<use x="163.439453" xlink:href="#k"/>
<use x="260.851562" xlink:href="#i"/>
<use x="288.634766" xlink:href="#j"/>
<use x="352.013672" xlink:href="#g"/>
<use x="413.292969" xlink:href="#h"/>
</g>
</g>
<path d="m745.61 851.25 2.9228-4.7283q1.2619-2.0414-0.77951-3.3034l-6.5858-4.0711q-2.0414-1.2619-3.3034 0.77951l-2.9228 4.7283q-1.2619 2.0414 0.77951 3.3034l6.5858 4.0711q2.0414 1.2619 3.3034-0.77951z" clip-path="url(#a)" fill="#fff" stroke="#fff"/>
<g clip-path="url(#a)">
<g transform="translate(742.15 849.11) rotate(-58.277) scale(.08 -.08)">
<use xlink:href="#z"/>
</g>
</g>
<path d="m770.89 843.06v5.055q0 2.4 2.4 2.4h7.7425q2.4 0 2.4-2.4v-5.055q0-2.4-2.4-2.4h-7.7425q-2.4 0-2.4 2.4z" clip-path="url(#a)" fill="#fff" stroke="#fff"/>
<g clip-path="url(#a)">
<g transform="translate(774.95 843.06) rotate(90) scale(.08 -.08)">
<use xlink:href="#ak"/>
</g>
</g>
<path d="m805.79 846.51 2.9373 4.7517q1.2619 2.0414 3.3034 0.77951l6.5858-4.0711q2.0414-1.2619 0.77951-3.3034l-2.9373-4.7517q-1.2619-2.0414-3.3034-0.77951l-6.5858 4.0711q-2.0414 1.2619-0.77951 3.3034z" clip-path="url(#a)" fill="#fff" stroke="#fff"/>
<g clip-path="url(#a)">
<g transform="translate(809.24 844.37) rotate(58.277) scale(.08 -.08)">
<use xlink:href="#ac"/>
</g>
</g>
<path d="m700.04 942.56v35.285q0 2.4 2.4 2.4h7.7425q2.4 0 2.4-2.4v-35.285q0-2.4-2.4-2.4h-7.7425q-2.4 0-2.4 2.4z" clip-path="url(#a)" fill="#fff" stroke="#fff"/>
<g clip-path="url(#a)">
<g transform="translate(704.1 942.56) rotate(90) scale(.08 -.08)">
<use xlink:href="#l"/>
<use x="60.818359" xlink:href="#d"/>
<use x="122.341797" xlink:href="#f"/>
<use x="163.439453" xlink:href="#k"/>
<use x="260.851562" xlink:href="#i"/>
<use x="288.634766" xlink:href="#j"/>
<use x="352.013672" xlink:href="#g"/>
<use x="413.292969" xlink:href="#h"/>
</g>
</g>
<path d="m767.94 978.75 7.121-34.559q0.48435-2.3506-1.8663-2.835l-7.5832-1.5625q-2.3506-0.48435-2.835 1.8663l-7.121 34.559q-0.48435 2.3506 1.8663 2.835l7.5832 1.5625q2.3506 0.48435 2.835-1.8663z" clip-path="url(#a)" fill="#fff" stroke="#fff"/>
<g clip-path="url(#a)">
<g transform="translate(763.96 977.93) rotate(-78.357) scale(.08 -.08)">
<use xlink:href="#l"/>
<use x="60.818359" xlink:href="#d"/>
<use x="122.341797" xlink:href="#f"/>
<use x="163.439453" xlink:href="#k"/>
<use x="260.851562" xlink:href="#i"/>
<use x="288.634766" xlink:href="#j"/>
<use x="352.013672" xlink:href="#g"/>
<use x="413.292969" xlink:href="#h"/>
</g>
</g>
<path d="m779.27 944.19 7.121 34.559q0.48435 2.3506 2.835 1.8663l7.5832-1.5625q2.3506-0.48435 1.8663-2.835l-7.121-34.559q-0.48435-2.3506-2.835-1.8663l-7.5832 1.5625q-2.3506 0.48435-1.8663 2.835z" clip-path="url(#a)" fill="#fff" stroke="#fff"/>
<g clip-path="url(#a)">
<g transform="translate(783.25 943.37) rotate(78.357) scale(.08 -.08)">
<use xlink:href="#l"/>
<use x="60.818359" xlink:href="#d"/>
<use x="122.341797" xlink:href="#f"/>
<use x="163.439453" xlink:href="#k"/>
<use x="260.851562" xlink:href="#i"/>
<use x="288.634766" xlink:href="#j"/>
<use x="352.013672" xlink:href="#g"/>
<use x="413.292969" xlink:href="#h"/>
</g>
</g>
<path d="m841.74 942.56v35.285q0 2.4 2.4 2.4h7.7425q2.4 0 2.4-2.4v-35.285q0-2.4-2.4-2.4h-7.7425q-2.4 0-2.4 2.4z" clip-path="url(#a)" fill="#fff" stroke="#fff"/>
<g clip-path="url(#a)">
<g transform="translate(845.81 942.56) rotate(90) scale(.08 -.08)">
<use xlink:href="#l"/>
<use x="60.818359" xlink:href="#d"/>
<use x="122.341797" xlink:href="#f"/>
<use x="163.439453" xlink:href="#k"/>
<use x="260.851562" xlink:href="#i"/>
<use x="288.634766" xlink:href="#j"/>
<use x="352.013672" xlink:href="#g"/>
<use x="413.292969" xlink:href="#h"/>
</g>
</g>
<path d="m85.995 942.56v35.285q0 2.4 2.4 2.4h7.7425q2.4 0 2.4-2.4v-35.285q0-2.4-2.4-2.4h-7.7425q-2.4 0-2.4 2.4z" clip-path="url(#a)" fill="#fff" stroke="#fff"/>
<g clip-path="url(#a)">
<g transform="translate(90.059 942.56) rotate(90) scale(.08 -.08)">
<use xlink:href="#l"/>
<use x="60.818359" xlink:href="#d"/>
<use x="122.341797" xlink:href="#f"/>
<use x="163.439453" xlink:href="#k"/>
<use x="260.851562" xlink:href="#i"/>
<use x="288.634766" xlink:href="#j"/>
<use x="352.013672" xlink:href="#g"/>
<use x="413.292969" xlink:href="#h"/>
</g>
</g>
<path d="m133.23 942.56v35.285q0 2.4 2.4 2.4h7.7425q2.4 0 2.4-2.4v-35.285q0-2.4-2.4-2.4h-7.7425q-2.4 0-2.4 2.4z" clip-path="url(#a)" fill="#fff" stroke="#fff"/>
<g clip-path="url(#a)">
<g transform="translate(137.29 942.56) rotate(90) scale(.08 -.08)">
<use xlink:href="#l"/>
<use x="60.818359" xlink:href="#d"/>
<use x="122.341797" xlink:href="#f"/>
<use x="163.439453" xlink:href="#k"/>
<use x="260.851562" xlink:href="#i"/>
<use x="288.634766" xlink:href="#j"/>
<use x="352.013672" xlink:href="#g"/>
<use x="413.292969" xlink:href="#h"/>
</g>
</g>
<path d="m204.12 849.57 1.1218-5.4444q0.48435-2.3506-1.8663-2.835l-7.5832-1.5625q-2.3506-0.48435-2.835 1.8663l-1.1218 5.4444q-0.48435 2.3506 1.8663 2.835l7.5832 1.5625q2.3506 0.48435 2.835-1.8663z" clip-path="url(#a)" fill="#fff" stroke="#fff"/>
<g clip-path="url(#a)">
<g transform="translate(200.14 848.75) rotate(-78.357) scale(.08 -.08)">
<use xlink:href="#z"/>
</g>
</g>
<path d="m215.45 844.12 1.1274 5.4713q0.48435 2.3506 2.835 1.8663l7.5832-1.5625q2.3506-0.48435 1.8663-2.835l-1.1274-5.4713q-0.48435-2.3506-2.835-1.8663l-7.5832 1.5625q-2.3506 0.48435-1.8663 2.835z" clip-path="url(#a)" fill="#fff" stroke="#fff"/>
<g clip-path="url(#a)">
<g transform="translate(219.43 843.3) rotate(78.357) scale(.08 -.08)">
<use xlink:href="#ac"/>
</g>
</g>
<path d="m180.46 942.56v35.285q0 2.4 2.4 2.4h7.7425q2.4 0 2.4-2.4v-35.285q0-2.4-2.4-2.4h-7.7425q-2.4 0-2.4 2.4z" clip-path="url(#a)" fill="#fff" stroke="#fff"/>
<g clip-path="url(#a)">
<g transform="translate(184.53 942.56) rotate(90) scale(.08 -.08)">
<use xlink:href="#l"/>
<use x="60.818359" xlink:href="#d"/>
<use x="122.341797" xlink:href="#f"/>
<use x="163.439453" xlink:href="#k"/>
<use x="260.851562" xlink:href="#i"/>
<use x="288.634766" xlink:href="#j"/>
<use x="352.013672" xlink:href="#g"/>
<use x="413.292969" xlink:href="#h"/>
</g>
</g>
<path d="m227.7 942.56v35.285q0 2.4 2.4 2.4h7.7425q2.4 0 2.4-2.4v-35.285q0-2.4-2.4-2.4h-7.7425q-2.4 0-2.4 2.4z" clip-path="url(#a)" fill="#fff" stroke="#fff"/>
<g clip-path="url(#a)">
<g transform="translate(231.76 942.56) rotate(90) scale(.08 -.08)">
<use xlink:href="#l"/>
<use x="60.818359" xlink:href="#d"/>
<use x="122.341797" xlink:href="#f"/>
<use x="163.439453" xlink:href="#k"/>
<use x="260.851562" xlink:href="#i"/>
<use x="288.634766" xlink:href="#j"/>
<use x="352.013672" xlink:href="#g"/>
<use x="413.292969" xlink:href="#h"/>
</g>
</g>
<path d="m511.1 942.56v35.285q0 2.4 2.4 2.4h7.7425q2.4 0 2.4-2.4v-35.285q0-2.4-2.4-2.4h-7.7425q-2.4 0-2.4 2.4z" clip-path="url(#a)" fill="#fff" stroke="#fff"/>
<g clip-path="url(#a)">
<g transform="translate(515.17 942.56) rotate(90) scale(.08 -.08)">
<use xlink:href="#l"/>
<use x="60.818359" xlink:href="#d"/>
<use x="122.341797" xlink:href="#f"/>
<use x="163.439453" xlink:href="#k"/>
<use x="260.851562" xlink:href="#i"/>
<use x="288.634766" xlink:href="#j"/>
<use x="352.013672" xlink:href="#g"/>
<use x="413.292969" xlink:href="#h"/>
</g>
</g>
<path d="m1219.6 942.56v35.285q0 2.4 2.4 2.4h7.7425q2.4 0 2.4-2.4v-35.285q0-2.4-2.4-2.4h-7.7425q-2.4 0-2.4 2.4z" clip-path="url(#a)" fill="#fff" stroke="#fff"/>
<g clip-path="url(#a)">
<g transform="translate(1223.7 942.56) rotate(90) scale(.08 -.08)">
<use xlink:href="#l"/>
<use x="60.818359" xlink:href="#d"/>
<use x="122.341797" xlink:href="#f"/>
<use x="163.439453" xlink:href="#k"/>
<use x="260.851562" xlink:href="#i"/>
<use x="288.634766" xlink:href="#j"/>
<use x="352.013672" xlink:href="#g"/>
<use x="413.292969" xlink:href="#h"/>
</g>
</g>
<path d="m1503 942.56v35.285q0 2.4 2.4 2.4h7.7425q2.4 0 2.4-2.4v-35.285q0-2.4-2.4-2.4h-7.7425q-2.4 0-2.4 2.4z" clip-path="url(#a)" fill="#fff" stroke="#fff"/>
<g clip-path="url(#a)">
<g transform="translate(1507.1 942.56) rotate(90) scale(.08 -.08)">
<use xlink:href="#l"/>
<use x="60.818359" xlink:href="#d"/>
<use x="122.341797" xlink:href="#f"/>
<use x="163.439453" xlink:href="#k"/>
<use x="260.851562" xlink:href="#i"/>
<use x="288.634766" xlink:href="#j"/>
<use x="352.013672" xlink:href="#g"/>
<use x="413.292969" xlink:href="#h"/>
</g>
</g>
<path d="m1880.9 942.56v35.285q0 2.4 2.4 2.4h7.7425q2.4 0 2.4-2.4v-35.285q0-2.4-2.4-2.4h-7.7425q-2.4 0-2.4 2.4z" clip-path="url(#a)" fill="#fff" stroke="#fff"/>
<g clip-path="url(#a)">
<g transform="translate(1885 942.56) rotate(90) scale(.08 -.08)">
<use xlink:href="#l"/>
<use x="60.818359" xlink:href="#d"/>
<use x="122.341797" xlink:href="#f"/>
<use x="163.439453" xlink:href="#k"/>
<use x="260.851562" xlink:href="#i"/>
<use x="288.634766" xlink:href="#j"/>
<use x="352.013672" xlink:href="#g"/>
<use x="413.292969" xlink:href="#h"/>
</g>
</g>
<path d="m1928.1 942.56v35.285q0 2.4 2.4 2.4h7.7425q2.4 0 2.4-2.4v-35.285q0-2.4-2.4-2.4h-7.7425q-2.4 0-2.4 2.4z" clip-path="url(#a)" fill="#fff" stroke="#fff"/>
<g clip-path="url(#a)">
<g transform="translate(1932.2 942.56) rotate(90) scale(.08 -.08)">
<use xlink:href="#l"/>
<use x="60.818359" xlink:href="#d"/>
<use x="122.341797" xlink:href="#f"/>
<use x="163.439453" xlink:href="#k"/>
<use x="260.851562" xlink:href="#i"/>
<use x="288.634766" xlink:href="#j"/>
<use x="352.013672" xlink:href="#g"/>
<use x="413.292969" xlink:href="#h"/>
</g>
</g>
<defs>
<path id="b" d="m0 8.6603c2.2967 0 4.4997-0.9125 6.1237-2.5365 1.624-1.624 2.5365-3.827 2.5365-6.1237s-0.9125-4.4997-2.5365-6.1237c-1.624-1.624-3.827-2.5365-6.1237-2.5365s-4.4997 0.9125-6.1237 2.5365c-1.624 1.624-2.5365 3.827-2.5365 6.1237s0.9125 4.4997 2.5365 6.1237c1.624 1.624 3.827 2.5365 6.1237 2.5365z"/>
</defs>
<g clip-path="url(#a)">
<use x="92.266536" y="1017.511808" fill="#ffffff" stroke="#ffffff" xlink:href="#b"/>
</g>
<g clip-path="url(#a)">
<use x="139.500731" y="1017.511808" fill="#ffffff" stroke="#ffffff" xlink:href="#b"/>
</g>
<g clip-path="url(#a)">
<use x="186.734926" y="1017.511808" fill="#ffffff" stroke="#ffffff" xlink:href="#b"/>
</g>
<g clip-path="url(#a)">
<use x="233.96912" y="1017.511808" fill="#ffffff" stroke="#ffffff" xlink:href="#b"/>
</g>
<g clip-path="url(#a)">
<use x="281.203315" y="1017.511808" fill="#ffffff" stroke="#ffffff" xlink:href="#b"/>
</g>
<g clip-path="url(#a)">
<use x="328.43751" y="1017.511808" fill="#ffffff" stroke="#ffffff" xlink:href="#b"/>
</g>
<g clip-path="url(#a)">
<use x="375.671704" y="1017.511808" fill="#ffffff" stroke="#ffffff" xlink:href="#b"/>
</g>
<g clip-path="url(#a)">
<use x="422.905899" y="1017.511808" fill="#ffffff" stroke="#ffffff" xlink:href="#b"/>
</g>
<g clip-path="url(#a)">
<use x="470.140094" y="1017.511808" fill="#ffffff" stroke="#ffffff" xlink:href="#b"/>
</g>
<g clip-path="url(#a)">
<use x="517.374289" y="1017.511808" fill="#ffffff" stroke="#ffffff" xlink:href="#b"/>
</g>
<g clip-path="url(#a)">
<use x="564.608483" y="1017.511808" fill="#ffffff" stroke="#ffffff" xlink:href="#b"/>
</g>
<g clip-path="url(#a)">
<use x="611.842678" y="1017.511808" fill="#ffffff" stroke="#ffffff" xlink:href="#b"/>
</g>
<g clip-path="url(#a)">
<use x="659.076873" y="1017.511808" fill="#ffffff" stroke="#ffffff" xlink:href="#b"/>
</g>
<g clip-path="url(#a)">
<use x="706.311068" y="1017.511808" fill="#ffffff" stroke="#ffffff" xlink:href="#b"/>
</g>
<g clip-path="url(#a)">
<use x="753.545262" y="1017.511808" fill="#ffffff" stroke="#ffffff" xlink:href="#b"/>
</g>
<g clip-path="url(#a)">
<use x="800.779457" y="1017.511808" fill="#ffffff" stroke="#ffffff" xlink:href="#b"/>
</g>
<g clip-path="url(#a)">
<use x="848.013652" y="1017.511808" fill="#ffffff" stroke="#ffffff" xlink:href="#b"/>
</g>
<g clip-path="url(#a)">
<use x="895.247847" y="1017.511808" fill="#ffffff" stroke="#ffffff" xlink:href="#b"/>
</g>
<g clip-path="url(#a)">
<use x="942.482041" y="1017.511808" fill="#ffffff" stroke="#ffffff" xlink:href="#b"/>
</g>
<g clip-path="url(#a)">
<use x="989.716236" y="1017.511808" fill="#ffffff" stroke="#ffffff" xlink:href="#b"/>
</g>
<g clip-path="url(#a)">
<use x="1036.950431" y="1017.511808" fill="#ffffff" stroke="#ffffff" xlink:href="#b"/>
</g>
<g clip-path="url(#a)">
<use x="1084.184625" y="1017.511808" fill="#ffffff" stroke="#ffffff" xlink:href="#b"/>
</g>
<g clip-path="url(#a)">
<use x="1131.41882" y="1017.511808" fill="#ffffff" stroke="#ffffff" xlink:href="#b"/>
</g>
<g clip-path="url(#a)">
<use x="1178.653015" y="1017.511808" fill="#ffffff" stroke="#ffffff" xlink:href="#b"/>
</g>
<g clip-path="url(#a)">
<use x="1225.88721" y="1017.511808" fill="#ffffff" stroke="#ffffff" xlink:href="#b"/>
</g>
<g clip-path="url(#a)">
<use x="1273.121404" y="1017.511808" fill="#ffffff" stroke="#ffffff" xlink:href="#b"/>
</g>
<g clip-path="url(#a)">
<use x="1320.355599" y="1017.511808" fill="#ffffff" stroke="#ffffff" xlink:href="#b"/>
</g>
<g clip-path="url(#a)">
<use x="1367.589794" y="1017.511808" fill="#ffffff" stroke="#ffffff" xlink:href="#b"/>
</g>
<g clip-path="url(#a)">
<use x="1414.823989" y="1017.511808" fill="#ffffff" stroke="#ffffff" xlink:href="#b"/>
</g>
<g clip-path="url(#a)">
<use x="1462.058183" y="1017.511808" fill="#ffffff" stroke="#ffffff" xlink:href="#b"/>
</g>
<g clip-path="url(#a)">
<use x="1509.292378" y="1017.511808" fill="#ffffff" stroke="#ffffff" xlink:href="#b"/>
</g>
<g clip-path="url(#a)">
<use x="1556.526573" y="1017.511808" fill="#ffffff" stroke="#ffffff" xlink:href="#b"/>
</g>
<g clip-path="url(#a)">
<use x="1603.760767" y="1017.511808" fill="#ffffff" stroke="#ffffff" xlink:href="#b"/>
</g>
<g clip-path="url(#a)">
<use x="1650.994962" y="1017.511808" fill="#ffffff" stroke="#ffffff" xlink:href="#b"/>
</g>
<g clip-path="url(#a)">
<use x="1698.229157" y="1017.511808" fill="#ffffff" stroke="#ffffff" xlink:href="#b"/>
</g>
<g clip-path="url(#a)">
<use x="1745.463352" y="1017.511808" fill="#ffffff" stroke="#ffffff" xlink:href="#b"/>
</g>
<g clip-path="url(#a)">
<use x="1792.697546" y="1017.511808" fill="#ffffff" stroke="#ffffff" xlink:href="#b"/>
</g>
<g clip-path="url(#a)">
<use x="1839.931741" y="1017.511808" fill="#ffffff" stroke="#ffffff" xlink:href="#b"/>
</g>
<g clip-path="url(#a)">
<use x="1887.165936" y="1017.511808" fill="#ffffff" stroke="#ffffff" xlink:href="#b"/>
</g>
<g clip-path="url(#a)">
<use x="1934.400131" y="1017.511808" fill="#ffffff" stroke="#ffffff" xlink:href="#b"/>
</g>
<g clip-path="url(#a)">
<use x="675.79078" y="49.154859" fill="#ffffff" stroke="#ffffff" xlink:href="#b"/>
</g>
<g clip-path="url(#a)">
<use x="147.373097" y="672.067733" fill="#ffffff" stroke="#ffffff" xlink:href="#b"/>
</g>
<g clip-path="url(#a)">
<use x="281.203315" y="902.895264" fill="#ffffff" stroke="#ffffff" xlink:href="#b"/>
</g>
<g clip-path="url(#a)">
<use x="321.002498" y="180.577454" fill="#ffffff" stroke="#ffffff" xlink:href="#b"/>
</g>
<g clip-path="url(#a)">
<use x="1403.487782" y="432.47142" fill="#ffffff" stroke="#ffffff" xlink:href="#b"/>
</g>
<g clip-path="url(#a)">
<use x="1273.121404" y="902.895264" fill="#ffffff" stroke="#ffffff" xlink:href="#b"/>
</g>
<g clip-path="url(#a)">
<use x="1320.355599" y="902.895264" fill="#ffffff" stroke="#ffffff" xlink:href="#b"/>
</g>
<g clip-path="url(#a)">
<use x="1367.589794" y="902.895264" fill="#ffffff" stroke="#ffffff" xlink:href="#b"/>
</g>
<g clip-path="url(#a)">
<use x="1414.823989" y="902.895264" fill="#ffffff" stroke="#ffffff" xlink:href="#b"/>
</g>
<g clip-path="url(#a)">
<use x="1641.548123" y="553.619017" fill="#ffffff" stroke="#ffffff" xlink:href="#b"/>
</g>
<g clip-path="url(#a)">
<use x="1462.058183" y="902.895264" fill="#ffffff" stroke="#ffffff" xlink:href="#b"/>
</g>
<g clip-path="url(#a)">
<use x="1627.377865" y="672.067733" fill="#ffffff" stroke="#ffffff" xlink:href="#b"/>
</g>
<g clip-path="url(#a)">
<use x="1745.463352" y="902.895264" fill="#ffffff" stroke="#ffffff" xlink:href="#b"/>
</g>
<g clip-path="url(#a)">
<use x="1863.548838" y="788.27872" fill="#ffffff" stroke="#ffffff" xlink:href="#b"/>
</g>
<g clip-path="url(#a)">
<use x="1792.697546" y="902.895264" fill="#ffffff" stroke="#ffffff" xlink:href="#b"/>
</g>
<g clip-path="url(#a)">
<use x="1839.931741" y="902.895264" fill="#ffffff" stroke="#ffffff" xlink:href="#b"/>
</g>
<g clip-path="url(#a)">
<use x="1580.14367" y="788.27872" fill="#ffffff" stroke="#ffffff" xlink:href="#b"/>
</g>
<g clip-path="url(#a)">
<use x="1674.61206" y="788.27872" fill="#ffffff" stroke="#ffffff" xlink:href="#b"/>
</g>
<g clip-path="url(#a)">
<use x="1650.994962" y="902.895264" fill="#ffffff" stroke="#ffffff" xlink:href="#b"/>
</g>
<g clip-path="url(#a)">
<use x="1698.229157" y="902.895264" fill="#ffffff" stroke="#ffffff" xlink:href="#b"/>
</g>
<g clip-path="url(#a)">
<use x="1556.526573" y="902.895264" fill="#ffffff" stroke="#ffffff" xlink:href="#b"/>
</g>
<g clip-path="url(#a)">
<use x="1603.760767" y="902.895264" fill="#ffffff" stroke="#ffffff" xlink:href="#b"/>
</g>
<g clip-path="url(#a)">
<use x="328.43751" y="902.895264" fill="#ffffff" stroke="#ffffff" xlink:href="#b"/>
</g>
<g clip-path="url(#a)">
<use x="542.303447" y="308.240046" fill="#ffffff" stroke="#ffffff" xlink:href="#b"/>
</g>
<g clip-path="url(#a)">
<use x="375.671704" y="902.895264" fill="#ffffff" stroke="#ffffff" xlink:href="#b"/>
</g>
<g clip-path="url(#a)">
<use x="446.522997" y="902.895264" fill="#ffffff" stroke="#ffffff" xlink:href="#b"/>
</g>
<g clip-path="url(#a)">
<use x="829.644798" y="432.47142" fill="#ffffff" stroke="#ffffff" xlink:href="#b"/>
</g>
<g clip-path="url(#a)">
<use x="564.608483" y="902.895264" fill="#ffffff" stroke="#ffffff" xlink:href="#b"/>
</g>
<g clip-path="url(#a)">
<use x="682.69397" y="672.067733" fill="#ffffff" stroke="#ffffff" xlink:href="#b"/>
</g>
<g clip-path="url(#a)">
<use x="895.247847" y="902.895264" fill="#ffffff" stroke="#ffffff" xlink:href="#b"/>
</g>
<g clip-path="url(#a)">
<use x="848.013652" y="672.067733" fill="#ffffff" stroke="#ffffff" xlink:href="#b"/>
</g>
<g clip-path="url(#a)">
<use x="1036.950431" y="902.895264" fill="#ffffff" stroke="#ffffff" xlink:href="#b"/>
</g>
<g clip-path="url(#a)">
<use x="950.354407" y="553.619017" fill="#ffffff" stroke="#ffffff" xlink:href="#b"/>
</g>
<g clip-path="url(#a)">
<use x="1084.184625" y="902.895264" fill="#ffffff" stroke="#ffffff" xlink:href="#b"/>
</g>
<g clip-path="url(#a)">
<use x="1155.035918" y="672.067733" fill="#ffffff" stroke="#ffffff" xlink:href="#b"/>
</g>
<g clip-path="url(#a)">
<use x="1131.41882" y="788.27872" fill="#ffffff" stroke="#ffffff" xlink:href="#b"/>
</g>
<g clip-path="url(#a)">
<use x="1178.653015" y="902.895264" fill="#ffffff" stroke="#ffffff" xlink:href="#b"/>
</g>
<g clip-path="url(#a)">
<use x="1131.41882" y="902.895264" fill="#ffffff" stroke="#ffffff" xlink:href="#b"/>
</g>
<g clip-path="url(#a)">
<use x="942.482041" y="902.895264" fill="#ffffff" stroke="#ffffff" xlink:href="#b"/>
</g>
<g clip-path="url(#a)">
<use x="989.716236" y="788.27872" fill="#ffffff" stroke="#ffffff" xlink:href="#b"/>
</g>
<g clip-path="url(#a)">
<use x="989.716236" y="902.895264" fill="#ffffff" stroke="#ffffff" xlink:href="#b"/>
</g>
<g clip-path="url(#a)">
<use x="611.842678" y="902.895264" fill="#ffffff" stroke="#ffffff" xlink:href="#b"/>
</g>
<g clip-path="url(#a)">
<use x="659.076873" y="902.895264" fill="#ffffff" stroke="#ffffff" xlink:href="#b"/>
</g>
<g clip-path="url(#a)">
<use x="777.16236" y="788.27872" fill="#ffffff" stroke="#ffffff" xlink:href="#b"/>
</g>
<g clip-path="url(#a)">
<use x="706.311068" y="902.895264" fill="#ffffff" stroke="#ffffff" xlink:href="#b"/>
</g>
<g clip-path="url(#a)">
<use x="777.16236" y="902.895264" fill="#ffffff" stroke="#ffffff" xlink:href="#b"/>
</g>
<g clip-path="url(#a)">
<use x="848.013652" y="902.895264" fill="#ffffff" stroke="#ffffff" xlink:href="#b"/>
</g>
<g clip-path="url(#a)">
<use x="92.266536" y="902.895264" fill="#ffffff" stroke="#ffffff" xlink:href="#b"/>
</g>
<g clip-path="url(#a)">
<use x="139.500731" y="902.895264" fill="#ffffff" stroke="#ffffff" xlink:href="#b"/>
</g>
<g clip-path="url(#a)">
<use x="210.352023" y="788.27872" fill="#ffffff" stroke="#ffffff" xlink:href="#b"/>
</g>
<g clip-path="url(#a)">
<use x="186.734926" y="902.895264" fill="#ffffff" stroke="#ffffff" xlink:href="#b"/>
</g>
<g clip-path="url(#a)">
<use x="233.96912" y="902.895264" fill="#ffffff" stroke="#ffffff" xlink:href="#b"/>
</g>
<g clip-path="url(#a)">
<use x="517.374289" y="902.895264" fill="#ffffff" stroke="#ffffff" xlink:href="#b"/>
</g>
<g clip-path="url(#a)">
<use x="1225.88721" y="902.895264" fill="#ffffff" stroke="#ffffff" xlink:href="#b"/>
</g>
<g clip-path="url(#a)">
<use x="1509.292378" y="902.895264" fill="#ffffff" stroke="#ffffff" xlink:href="#b"/>
</g>
<g clip-path="url(#a)">
<use x="1887.165936" y="902.895264" fill="#ffffff" stroke="#ffffff" xlink:href="#b"/>
</g>
<g clip-path="url(#a)">
<use x="1934.400131" y="902.895264" fill="#ffffff" stroke="#ffffff" xlink:href="#b"/>
</g>
<g clip-path="url(#a)">
<defs>
<path id="ai" d="m54.891 33.016v-33.016h-8.9844v32.719q0 7.7656-3.0312 11.609-3.0312 3.8594-9.0781 3.8594-7.2812 0-11.484-4.6406-4.2031-4.625-4.2031-12.641v-30.906h-9.0312v75.984h9.0312v-29.797q3.2344 4.9375 7.5938 7.375 4.375 2.4375 10.094 2.4375 9.4219 0 14.25-5.8281 4.8438-5.8281 4.8438-17.156z"/>
</defs>
<g transform="translate(82.847 1020.3) scale(.1 -.1)">
<use xlink:href="#ap"/>
<use x="63.476562" xlink:href="#ai"/>
<use x="126.855469" xlink:href="#d"/>
</g>
</g>
<g clip-path="url(#a)">
<defs>
<path id="s" d="m44.281 53.078v-8.5q-3.7969 1.9531-7.9062 2.9219-4.0938 0.98438-8.5 0.98438-6.6875 0-10.031-2.0469t-3.3438-6.1562q0-3.125 2.3906-4.9062t9.625-3.3906l3.0781-0.6875q9.5625-2.0469 13.594-5.7812t4.0312-10.422q0-7.625-6.0312-12.078-6.0312-4.4375-16.578-4.4375-4.3906 0-9.1562 0.85938t-10.031 2.5625v9.2812q4.9844-2.5938 9.8125-3.8906 4.8281-1.2812 9.5781-1.2812 6.3438 0 9.75 2.1719 3.4219 2.1719 3.4219 6.125 0 3.6562-2.4688 5.6094-2.4531 1.9531-10.812 3.7656l-3.125 0.73438q-8.3438 1.75-12.062 5.3906-3.7031 3.6406-3.7031 9.9844 0 7.7188 5.4688 11.906 5.4688 4.2031 15.531 4.2031 4.9688 0 9.3594-0.73438 4.4062-0.71875 8.1094-2.1875z"/>
<path id="ay" d="m18.109 8.2031v-29h-9.0312v75.484h9.0312v-8.2969q2.8438 4.875 7.1562 7.2344 4.3281 2.375 10.328 2.375 9.9688 0 16.188-7.9062 6.2344-7.9062 6.2344-20.797t-6.2344-20.812q-6.2188-7.9062-16.188-7.9062-6 0-10.328 2.375-4.3125 2.375-7.1562 7.25zm30.578 19.094q0 9.9062-4.0781 15.547t-11.203 5.6406q-7.1406 0-11.219-5.6406t-4.0781-15.547 4.0781-15.547 11.219-5.6406q7.125 0 11.203 5.6406t4.0781 15.547z"/>
<path id="r" d="m18.312 70.219v-15.531h18.5v-6.9844h-18.5v-29.688q0-6.6875 1.8281-8.5938t7.4531-1.9062h9.2188v-7.5156h-9.2188q-10.406 0-14.359 3.875-3.9531 3.8906-3.9531 14.141v29.688h-6.5938v6.9844h6.5938v15.531z"/>
<path id="v" d="m45.406 46.391v29.594h8.9844v-75.984h-8.9844v8.2031q-2.8281-4.875-7.1562-7.25-4.3125-2.375-10.375-2.375-9.9062 0-16.141 7.9062-6.2188 7.9219-6.2188 20.812t6.2188 20.797q6.2344 7.9062 16.141 7.9062 6.0625 0 10.375-2.375 4.3281-2.3594 7.1562-7.2344zm-30.609-19.094q0-9.9062 4.0781-15.547t11.203-5.6406 11.219 5.6406q4.1094 5.6406 4.1094 15.547t-4.1094 15.547q-4.0938 5.6406-11.219 5.6406t-11.203-5.6406-4.0781-15.547z"/>
</defs>
<g transform="translate(114.25 1020.3) scale(.1 -.1)">
<use xlink:href="#s"/>
<use x="52.099609" xlink:href="#d"/>
<use x="113.623047" xlink:href="#ay"/>
<use x="177.099609" xlink:href="#g"/>
<use x="238.378906" xlink:href="#f"/>
<use x="279.492188" xlink:href="#g"/>
<use x="340.771484" xlink:href="#r"/>
<use x="379.980469" xlink:href="#d"/>
<use x="441.503906" xlink:href="#v"/>
</g>
</g>
<g clip-path="url(#a)">
<defs>
<path id="aj" d="m37.109 75.984v-7.4844h-8.5938q-4.8281 0-6.7188-1.9531-1.875-1.9531-1.875-7.0312v-4.8281h14.797v-6.9844h-14.797v-47.703h-9.0312v47.703h-8.5938v6.9844h8.5938v3.8125q0 9.125 4.25 13.297 4.25 4.1875 13.469 4.1875z"/>
<path id="t" d="m30.609 48.391q-7.2188 0-11.422-5.6406t-4.2031-15.453 4.1719-15.453q4.1875-5.6406 11.453-5.6406 7.1875 0 11.375 5.6562 4.2031 5.6719 4.2031 15.438 0 9.7188-4.2031 15.406-4.1875 5.6875-11.375 5.6875zm0 7.6094q11.719 0 18.406-7.625 6.7031-7.6094 6.7031-21.078 0-13.422-6.7031-21.078-6.6875-7.6406-18.406-7.6406-11.766 0-18.438 7.6406-6.6562 7.6562-6.6562 21.078 0 13.469 6.6562 21.078 6.6719 7.625 18.438 7.625z"/>
</defs>
<g transform="translate(174.99 1020.3) scale(.1 -.1)">
<use xlink:href="#aj"/>
<use x="35.205078" xlink:href="#f"/>
<use x="76.287109" xlink:href="#t"/>
<use x="137.46875" xlink:href="#k"/>
</g>
</g>
<g clip-path="url(#a)">
<defs>
<path id="av" d="m9.8125 72.906h14.703l18.594-49.609 18.703 49.609h14.703v-72.906h-9.625v64.016l-18.797-50h-9.9062l-18.797 50v-64.016h-9.5781z"/>
</defs>
<g transform="translate(220.36 1020.3) scale(.1 -.1)">
<use xlink:href="#av"/>
<use x="86.279297" xlink:href="#i"/>
<use x="114.0625" xlink:href="#h"/>
<use x="141.845703" xlink:href="#h"/>
<use x="169.628906" xlink:href="#d"/>
<use x="231.152344" xlink:href="#f"/>
</g>
</g>
<g clip-path="url(#a)">
<g transform="translate(271.8 1020.3) scale(.1 -.1)">
<use xlink:href="#g"/>
<use x="61.279297" xlink:href="#j"/>
<use x="124.658203" xlink:href="#v"/>
</g>
</g>
<g clip-path="url(#a)">
<defs>
<path id="as" d="m2.9844 54.688h9.5156l17.094-45.891 17.094 45.891h9.5156l-20.516-54.688h-12.203z"/>
</defs>
<g transform="translate(311.3 1020.3) scale(.1 -.1)">
<use xlink:href="#k"/>
<use x="97.412109" xlink:href="#t"/>
<use x="158.59375" xlink:href="#as"/>
<use x="217.773438" xlink:href="#d"/>
<use x="279.296875" xlink:href="#v"/>
</g>
</g>
<g clip-path="url(#a)">
<g transform="translate(370.65 1020.3) scale(.1 -.1)">
<use xlink:href="#r"/>
<use x="39.208984" xlink:href="#t"/>
</g>
</g>
<g clip-path="url(#a)">
<defs>
<path id="aq" d="m9.8125 72.906h13.281l32.328-60.984v60.984h9.5625v-72.906h-13.281l-32.312 60.984v-60.984h-9.5781z"/>
<path id="ah" d="m4.2031 54.688h8.9844l11.234-42.672 11.172 42.672h10.594l11.234-42.672 11.188 42.672h8.9844l-14.312-54.688h-10.594l-11.766 44.828-11.812-44.828h-10.609z"/>
</defs>
<g transform="translate(412 1020.3) scale(.1 -.1)">
<use xlink:href="#aq"/>
<use x="74.804688" xlink:href="#d"/>
<use x="136.328125" xlink:href="#ah"/>
</g>
</g>
<g clip-path="url(#a)">
<defs>
<path id="ao" d="m-0.20312 72.906h10.609l20.203-29.984 20.078 29.984h10.594l-25.781-38.188v-34.719h-9.9062v34.719z"/>
<path id="am" d="m9.0781 75.984h9.0312v-44.875l26.812 23.578h11.469l-29-25.578 30.234-29.109h-11.719l-27.797 26.703v-26.703h-9.0312z"/>
</defs>
<g transform="translate(459.09 1020.3) scale(.1 -.1)">
<use xlink:href="#ao"/>
<use x="60.880859" xlink:href="#t"/>
<use x="122.0625" xlink:href="#f"/>
<use x="163.175781" xlink:href="#am"/>
</g>
</g>
<g clip-path="url(#a)">
<defs>
<path id="ax" d="m11.719 12.406h10.297v-8.4062l-8-15.625h-6.2969l4 15.625z"/>
</defs>
<g transform="translate(515.79 1020.3) scale(.1 -.1)">
<use xlink:href="#ax"/>
</g>
</g>
<g clip-path="url(#a)">
<g transform="translate(549.14 1020.3) scale(.1 -.1)">
<use xlink:href="#ah"/>
<use x="81.787109" xlink:href="#ai"/>
<use x="145.166016" xlink:href="#d"/>
<use x="206.689453" xlink:href="#f"/>
<use x="247.771484" xlink:href="#d"/>
</g>
</g>
<g clip-path="url(#a)">
<g transform="translate(602.99 1020.3) scale(.1 -.1)">
<use xlink:href="#s"/>
<use x="52.099609" xlink:href="#ai"/>
<use x="115.478516" xlink:href="#d"/>
</g>
</g>
<g clip-path="url(#a)">
<g transform="translate(638.69 1020.3) scale(.1 -.1)">
<use xlink:href="#d"/>
<use x="61.523438" xlink:href="#j"/>
<use x="124.902344" xlink:href="#f"/>
<use x="165.984375" xlink:href="#t"/>
<use x="227.166016" xlink:href="#h"/>
<use x="254.949219" xlink:href="#h"/>
<use x="282.732422" xlink:href="#d"/>
<use x="344.255859" xlink:href="#v"/>
</g>
</g>
<g clip-path="url(#a)">
<g transform="translate(701.29 1020.3) scale(.1 -.1)">
<use xlink:href="#g"/>
<use x="61.279297" xlink:href="#r"/>
</g>
</g>
<g clip-path="url(#a)">
<g transform="translate(742.64 1020.3) scale(.1 -.1)">
<use xlink:href="#aq"/>
<use x="74.804688" xlink:href="#d"/>
<use x="136.328125" xlink:href="#ah"/>
</g>
</g>
<g clip-path="url(#a)">
<g transform="translate(789.73 1020.3) scale(.1 -.1)">
<use xlink:href="#ao"/>
<use x="60.880859" xlink:href="#t"/>
<use x="122.0625" xlink:href="#f"/>
<use x="163.175781" xlink:href="#am"/>
</g>
</g>
<g clip-path="url(#a)">
<defs>
<path id="al" d="m32.172-5.0781q-3.7969-9.7656-7.4219-12.734-3.6094-2.9844-9.6562-2.9844h-7.1875v7.5156h5.2812q3.7031 0 5.75 1.7656 2.0625 1.75 4.5469 8.2969l1.6094 4.0938-22.109 53.812h9.5156l17.094-42.766 17.094 42.766h9.5156z"/>
</defs>
<g transform="translate(822.79 1020.3) scale(.1 -.1)">
<use xlink:href="#y"/>
<use x="73.193359" xlink:href="#j"/>
<use x="136.572266" xlink:href="#i"/>
<use x="164.355469" xlink:href="#as"/>
<use x="223.535156" xlink:href="#d"/>
<use x="285.058594" xlink:href="#f"/>
<use x="326.171875" xlink:href="#s"/>
<use x="378.271484" xlink:href="#i"/>
<use x="406.054688" xlink:href="#r"/>
<use x="445.263672" xlink:href="#al"/>
</g>
</g>
<g clip-path="url(#a)">
<g transform="translate(890.23 1020.3) scale(.1 -.1)">
<use xlink:href="#r"/>
<use x="39.208984" xlink:href="#t"/>
</g>
</g>
<g clip-path="url(#a)">
<defs>
<path id="at" d="m8.5 21.578v33.109h8.9844v-32.766q0-7.7656 3.0156-11.656 3.0312-3.875 9.0938-3.875 7.2656 0 11.484 4.6406 4.2344 4.6406 4.2344 12.656v31h8.9844v-54.688h-8.9844v8.4062q-3.2656-4.9844-7.5938-7.4062-4.3125-2.4219-10.031-2.4219-9.4219 0-14.312 5.8594-4.875 5.8594-4.875 17.141z"/>
</defs>
<g transform="translate(928.61 1020.3) scale(.1 -.1)">
<use xlink:href="#s"/>
<use x="52.099609" xlink:href="#r"/>
<use x="91.308594" xlink:href="#at"/>
<use x="154.6875" xlink:href="#v"/>
<use x="218.164062" xlink:href="#al"/>
</g>
</g>
<g clip-path="url(#a)">
<defs>
<path id="an" d="m45.406 27.984q0 9.7656-4.0312 15.125-4.0156 5.375-11.297 5.375-7.2188 0-11.25-5.375-4.0312-5.3594-4.0312-15.125 0-9.7188 4.0312-15.094t11.25-5.375q7.2812 0 11.297 5.375 4.0312 5.375 4.0312 15.094zm8.9844-21.203q0-13.953-6.2031-20.766-6.1875-6.8125-18.984-6.8125-4.7344 0-8.9375 0.70312t-8.1562 2.1719v8.7344q3.9531-2.1406 7.8125-3.1562 3.8594-1.0312 7.8594-1.0312 8.8438 0 13.234 4.6094t4.3906 13.938v4.4531q-2.7812-4.8438-7.125-7.2344t-10.406-2.3906q-10.047 0-16.203 7.6562-6.1562 7.6719-6.1562 20.328 0 12.688 6.1562 20.344 6.1562 7.6719 16.203 7.6719 6.0625 0 10.406-2.3906t7.125-7.2188v8.2969h8.9844z"/>
</defs>
<g transform="translate(961.75 1020.3) scale(.1 -.1)">
<use xlink:href="#aj"/>
<use x="35.205078" xlink:href="#i"/>
<use x="62.988281" xlink:href="#h"/>
<use x="90.771484" xlink:href="#k"/>
<use x="188.183594" xlink:href="#k"/>
<use x="285.595703" xlink:href="#g"/>
<use x="346.875" xlink:href="#am"/>
<use x="404.785156" xlink:href="#i"/>
<use x="432.568359" xlink:href="#j"/>
<use x="495.947266" xlink:href="#an"/>
</g>
</g>
<g clip-path="url(#a)">
<g transform="translate(1027.5 1020.3) scale(.1 -.1)">
<use xlink:href="#g"/>
<use x="61.279297" xlink:href="#j"/>
<use x="124.658203" xlink:href="#v"/>
</g>
</g>
<g clip-path="url(#a)">
<g transform="translate(1067.8 1020.3) scale(.1 -.1)">
<use xlink:href="#g"/>
<use x="61.279297" xlink:href="#r"/>
<use x="100.488281" xlink:href="#r"/>
<use x="139.697266" xlink:href="#d"/>
<use x="201.220703" xlink:href="#j"/>
<use x="264.599609" xlink:href="#v"/>
</g>
</g>
<g clip-path="url(#a)">
<g transform="translate(1114.2 1020.3) scale(.1 -.1)">
<use xlink:href="#ah"/>
<use x="81.787109" xlink:href="#f"/>
<use x="122.900391" xlink:href="#i"/>
<use x="150.683594" xlink:href="#r"/>
<use x="189.892578" xlink:href="#i"/>
<use x="217.675781" xlink:href="#j"/>
<use x="281.054688" xlink:href="#an"/>
</g>
</g>
<g clip-path="url(#a)">
<defs>
<path id="ae" d="m48.781 52.594v-8.4062q-3.8125 2.1094-7.6406 3.1562t-7.7344 1.0469q-8.75 0-13.594-5.5469-4.8281-5.5312-4.8281-15.547t4.8281-15.562q4.8438-5.5312 13.594-5.5312 3.9062 0 7.7344 1.0469t7.6406 3.1562v-8.3125q-3.7656-1.75-7.7969-2.625-4.0156-0.89062-8.5625-0.89062-12.359 0-19.641 7.7656-7.2656 7.7656-7.2656 20.953 0 13.375 7.3438 21.031 7.3594 7.6719 20.156 7.6719 4.1406 0 8.0938-0.85938 3.9531-0.84375 7.6719-2.5469z"/>
</defs>
<g transform="translate(1160.6 1020.3) scale(.1 -.1)">
<use xlink:href="#ae"/>
<use x="54.980469" xlink:href="#h"/>
<use x="82.763672" xlink:href="#g"/>
<use x="144.042969" xlink:href="#s"/>
<use x="196.142578" xlink:href="#s"/>
<use x="248.242188" xlink:href="#d"/>
<use x="309.765625" xlink:href="#s"/>
</g>
</g>
<g clip-path="url(#a)">
<defs>
<path id="aw" d="m11.719 51.703h10.297v-12.391h-10.297zm0-39.297h10.297v-8.4062l-8-15.625h-6.2969l4 15.625z"/>
</defs>
<g transform="translate(1224.2 1020.3) scale(.1 -.1)">
<use xlink:href="#aw"/>
</g>
</g>
<g clip-path="url(#a)">
<g transform="translate(1264.3 1020.3) scale(.1 -.1)">
<use xlink:href="#s"/>
<use x="52.099609" xlink:href="#ai"/>
<use x="115.478516" xlink:href="#d"/>
</g>
</g>
<g clip-path="url(#a)">
<g transform="translate(1308.8 1020.3) scale(.1 -.1)">
<use xlink:href="#h"/>
<use x="27.783203" xlink:href="#g"/>
<use x="89.0625" xlink:href="#r"/>
<use x="128.271484" xlink:href="#d"/>
<use x="189.794922" xlink:href="#f"/>
</g>
</g>
<g clip-path="url(#a)">
<defs>
<path id="au" d="m48.688 27.297q0 9.9062-4.0781 15.547t-11.203 5.6406q-7.1406 0-11.219-5.6406t-4.0781-15.547 4.0781-15.547 11.219-5.6406q7.125 0 11.203 5.6406t4.0781 15.547zm-30.578 19.094q2.8438 4.875 7.1562 7.2344 4.3281 2.375 10.328 2.375 9.9688 0 16.188-7.9062 6.2344-7.9062 6.2344-20.797t-6.2344-20.812q-6.2188-7.9062-16.188-7.9062-6 0-10.328 2.375-4.3125 2.375-7.1562 7.25v-8.2031h-9.0312v75.984h9.0312z"/>
</defs>
<g transform="translate(1343.1 1020.3) scale(.1 -.1)">
<use xlink:href="#v"/>
<use x="63.476562" xlink:href="#d"/>
<use x="125" xlink:href="#s"/>
<use x="177.099609" xlink:href="#ae"/>
<use x="232.080078" xlink:href="#f"/>
<use x="273.193359" xlink:href="#i"/>
<use x="300.976562" xlink:href="#au"/>
<use x="364.453125" xlink:href="#d"/>
<use x="425.976562" xlink:href="#v"/>
</g>
</g>
<g clip-path="url(#a)">
<g transform="translate(1411.5 1020.3) scale(.1 -.1)">
<use xlink:href="#i"/>
<use x="27.783203" xlink:href="#r"/>
</g>
</g>
<g clip-path="url(#a)">
<g transform="translate(1456.4 1020.3) scale(.1 -.1)">
<use xlink:href="#g"/>
<use x="61.279297" xlink:href="#s"/>
</g>
</g>
<g clip-path="url(#a)">
<defs>
<path id="ar" d="m17.922 72.906v-27.109h-8.2969v27.109zm18.453 0v-27.109h-8.2969v27.109z"/>
</defs>
<g transform="translate(1507 1020.3) scale(.1 -.1)">
<use xlink:href="#ar"/>
</g>
</g>
<g clip-path="url(#a)">
<defs>
<path id="az" d="m9.4219 54.688h8.9844v-55.672q0-10.438-3.9844-15.125-3.9688-4.6875-12.812-4.6875h-3.4219v7.6094h2.4062q5.125 0 6.9688 2.375 1.8594 2.3594 1.8594 9.8281zm0 21.297h8.9844v-11.391h-8.9844z"/>
</defs>
<g transform="translate(1547.4 1020.3) scale(.1 -.1)">
<use xlink:href="#az"/>
<use x="27.783203" xlink:href="#at"/>
<use x="91.162109" xlink:href="#s"/>
<use x="143.261719" xlink:href="#r"/>
</g>
</g>
<g clip-path="url(#a)">
<g transform="translate(1591.3 1020.3) scale(.1 -.1)">
<use xlink:href="#an"/>
<use x="63.476562" xlink:href="#t"/>
<use x="124.658203" xlink:href="#t"/>
<use x="185.839844" xlink:href="#v"/>
</g>
</g>
<g clip-path="url(#a)">
<g transform="translate(1644.1 1020.3) scale(.1 -.1)">
<use xlink:href="#aj"/>
<use x="35.205078" xlink:href="#t"/>
<use x="96.386719" xlink:href="#f"/>
</g>
</g>
<g clip-path="url(#a)">
<g transform="translate(1690.3 1020.3) scale(.1 -.1)">
<use xlink:href="#k"/>
<use x="97.412109" xlink:href="#d"/>
</g>
</g>
<g clip-path="url(#a)">
<g transform="translate(1740.4 1020.3) scale(.1 -.1)">
<use xlink:href="#r"/>
<use x="39.208984" xlink:href="#t"/>
</g>
</g>
<g clip-path="url(#a)">
<g transform="translate(1776.3 1020.3) scale(.1 -.1)">
<use xlink:href="#ae"/>
<use x="54.980469" xlink:href="#t"/>
<use x="116.162109" xlink:href="#h"/>
<use x="143.945312" xlink:href="#h"/>
<use x="171.728516" xlink:href="#d"/>
<use x="233.251953" xlink:href="#ae"/>
<use x="288.232422" xlink:href="#r"/>
</g>
</g>
<g clip-path="url(#a)">
<g transform="translate(1823.3 1020.3) scale(.1 -.1)">
<use xlink:href="#k"/>
<use x="97.412109" xlink:href="#al"/>
<use x="156.591797" xlink:href="#s"/>
<use x="208.691406" xlink:href="#d"/>
<use x="270.214844" xlink:href="#h"/>
<use x="297.998047" xlink:href="#aj"/>
</g>
</g>
<g clip-path="url(#a)">
<defs>
<path id="e" d="m10.688 12.406h10.312v-12.406h-10.312z"/>
</defs>
<g transform="translate(1885.6 1020.3) scale(.1 -.1)">
<use xlink:href="#e"/>
</g>
</g>
<g clip-path="url(#a)">
<g transform="translate(1932.1 1020.3) scale(.1 -.1)">
<use xlink:href="#ar"/>
</g>
</g>
<g clip-path="url(#a)">
<defs>
<path id="c" d="m12.406 8.2969h16.109v55.625l-17.531-3.5156v8.9844l17.438 3.5156h9.8594v-64.609h16.109v-8.2969h-41.984z"/>
</defs>
<g transform="translate(667.84 51.914) scale(.1 -.1)">
<use xlink:href="#c"/>
<use x="63.623047" xlink:href="#e"/>
<use x="95.410156" xlink:href="#c"/>
</g>
</g>
<g clip-path="url(#a)">
<defs>
<path id="p" d="m19.188 8.2969h34.422v-8.2969h-46.281v8.2969q5.6094 5.8125 15.297 15.594 9.7031 9.7969 12.188 12.641 4.7344 5.3125 6.6094 9 1.8906 3.6875 1.8906 7.25 0 5.8125-4.0781 9.4688-4.0781 3.6719-10.625 3.6719-4.6406 0-9.7969-1.6094-5.1406-1.6094-11-4.8906v9.9688q5.9531 2.3906 11.125 3.6094 5.1875 1.2188 9.4844 1.2188 11.328 0 18.062-5.6719 6.7344-5.6562 6.7344-15.125 0-4.5-1.6875-8.5312-1.6719-4.0156-6.125-9.4844-1.2188-1.4219-7.7656-8.1875-6.5312-6.7656-18.453-18.922z"/>
</defs>
<g transform="translate(139.42 674.83) scale(.1 -.1)">
<use xlink:href="#c"/>
<use x="63.623047" xlink:href="#e"/>
<use x="95.410156" xlink:href="#p"/>
</g>
</g>
<g clip-path="url(#a)">
<defs>
<path id="q" d="m40.578 39.312q7.0781-1.5156 11.047-6.3125 3.9844-4.7812 3.9844-11.812 0-10.781-7.4219-16.703-7.4219-5.9062-21.094-5.9062-4.5781 0-9.4375 0.90625t-10.031 2.7188v9.5156q4.0938-2.3906 8.9688-3.6094 4.8906-1.2188 10.219-1.2188 9.2656 0 14.125 3.6562t4.8594 10.641q0 6.4531-4.5156 10.078-4.5156 3.6406-12.562 3.6406h-8.5v8.1094h8.8906q7.2656 0 11.125 2.9062t3.8594 8.375q0 5.6094-3.9844 8.6094-3.9688 3.0156-11.391 3.0156-4.0625 0-8.7031-0.89062-4.6406-0.875-10.203-2.7188v8.7812q5.625 1.5625 10.531 2.3438t9.25 0.78125q11.234 0 17.766-5.1094 6.5469-5.0938 6.5469-13.781 0-6.0625-3.4688-10.234t-9.8594-5.7812z"/>
</defs>
<g transform="translate(273.25 905.65) scale(.1 -.1)">
<use xlink:href="#c"/>
<use x="63.623047" xlink:href="#e"/>
<use x="95.410156" xlink:href="#q"/>
</g>
</g>
<g clip-path="url(#a)">
<defs>
<path id="o" d="m37.797 64.312-24.906-38.922h24.906zm-2.5938 8.5938h12.406v-47.516h10.406v-8.2031h-10.406v-17.188h-9.8125v17.188h-32.906v9.5156z"/>
</defs>
<g transform="translate(313.05 183.34) scale(.1 -.1)">
<use xlink:href="#c"/>
<use x="63.623047" xlink:href="#e"/>
<use x="95.410156" xlink:href="#o"/>
</g>
</g>
<g clip-path="url(#a)">
<defs>
<path id="n" d="m10.797 72.906h38.719v-8.3125h-29.688v-17.859q2.1406 0.73438 4.2812 1.0938 2.1562 0.35938 4.3125 0.35938 12.203 0 19.328-6.6875 7.1406-6.6875 7.1406-18.109 0-11.766-7.3281-18.297-7.3281-6.5156-20.656-6.5156-4.5938 0-9.3594 0.78125-4.75 0.78125-9.8281 2.3438v9.9219q4.3906-2.3906 9.0781-3.5625t9.9062-1.1719q8.4531 0 13.375 4.4375 4.9375 4.4375 4.9375 12.062 0 7.6094-4.9375 12.047-4.9219 4.4531-13.375 4.4531-3.9531 0-7.8906-0.875-3.9219-0.875-8.0156-2.7344z"/>
</defs>
<g transform="translate(1395.5 435.23) scale(.1 -.1)">
<use xlink:href="#c"/>
<use x="63.623047" xlink:href="#e"/>
<use x="95.410156" xlink:href="#n"/>
</g>
</g>
<g clip-path="url(#a)">
<defs>
<path id="aa" d="m10.984 1.5156v8.9844q3.7188-1.7656 7.5156-2.6875 3.8125-0.92188 7.4844-0.92188 9.7656 0 14.906 6.5625 5.1562 6.5625 5.8906 19.953-2.8281-4.2031-7.1875-6.4531-4.3438-2.25-9.6094-2.25-10.938 0-17.312 6.6094-6.375 6.625-6.375 18.109 0 11.219 6.6406 18 6.6406 6.7969 17.672 6.7969 12.656 0 19.312-9.7031 6.6719-9.6875 6.6719-28.141 0-17.234-8.1875-27.516-8.1719-10.281-21.984-10.281-3.7188 0-7.5312 0.73438-3.7969 0.73438-7.9062 2.2031zm19.625 30.906q6.6406 0 10.516 4.5312 3.8906 4.5469 3.8906 12.469 0 7.8594-3.8906 12.422-3.875 4.5625-10.516 4.5625t-10.516-4.5625-3.875-12.422q0-7.9219 3.875-12.469 3.875-4.5312 10.516-4.5312z"/>
</defs>
<g transform="translate(1265.2 905.65) scale(.1 -.1)">
<use xlink:href="#c"/>
<use x="63.623047" xlink:href="#e"/>
<use x="95.410156" xlink:href="#aa"/>
</g>
</g>
<g clip-path="url(#a)">
<defs>
<path id="ab" d="m31.781 66.406q-7.6094 0-11.453-7.5-3.8281-7.4844-3.8281-22.531 0-14.984 3.8281-22.484 3.8438-7.5 11.453-7.5 7.6719 0 11.5 7.5 3.8438 7.5 3.8438 22.484 0 15.047-3.8438 22.531-3.8281 7.5-11.5 7.5zm0 7.8125q12.266 0 18.734-9.7031 6.4688-9.6875 6.4688-28.141 0-18.406-6.4688-28.109-6.4688-9.6875-18.734-9.6875-12.25 0-18.719 9.6875-6.4688 9.7031-6.4688 28.109 0 18.453 6.4688 28.141 6.4688 9.7031 18.719 9.7031z"/>
</defs>
<g transform="translate(1309.2 905.65) scale(.1 -.1)">
<use xlink:href="#c"/>
<use x="63.623047" xlink:href="#e"/>
<use x="95.410156" xlink:href="#c"/>
<use x="159.033203" xlink:href="#ab"/>
</g>
</g>
<g clip-path="url(#a)">
<g transform="translate(1356.5 905.65) scale(.1 -.1)">
<use xlink:href="#c"/>
<use x="63.623047" xlink:href="#e"/>
<use x="95.410156" xlink:href="#c"/>
<use x="159.033203" xlink:href="#c"/>
</g>
</g>
<g clip-path="url(#a)">
<g transform="translate(1403.7 905.65) scale(.1 -.1)">
<use xlink:href="#c"/>
<use x="63.623047" xlink:href="#e"/>
<use x="95.410156" xlink:href="#c"/>
<use x="159.033203" xlink:href="#p"/>
</g>
</g>
<g clip-path="url(#a)">
<g transform="translate(1630.4 556.38) scale(.1 -.1)">
<use xlink:href="#c"/>
<use x="63.623047" xlink:href="#e"/>
<use x="95.410156" xlink:href="#c"/>
<use x="159.033203" xlink:href="#q"/>
</g>
</g>
<g clip-path="url(#a)">
<g transform="translate(1450.9 905.65) scale(.1 -.1)">
<use xlink:href="#c"/>
<use x="63.623047" xlink:href="#e"/>
<use x="95.410156" xlink:href="#c"/>
<use x="159.033203" xlink:href="#o"/>
</g>
</g>
<g clip-path="url(#a)">
<g transform="translate(1616.2 674.83) scale(.1 -.1)">
<use xlink:href="#c"/>
<use x="63.623047" xlink:href="#e"/>
<use x="95.410156" xlink:href="#c"/>
<use x="159.033203" xlink:href="#n"/>
</g>
</g>
<g clip-path="url(#a)">
<defs>
<path id="x" d="m33.016 40.375q-6.6406 0-10.531-4.5469-3.875-4.5312-3.875-12.438 0-7.8594 3.875-12.438 3.8906-4.5625 10.531-4.5625t10.516 4.5625q3.875 4.5781 3.875 12.438 0 7.9062-3.875 12.438-3.875 4.5469-10.516 4.5469zm19.578 30.922v-8.9844q-3.7188 1.75-7.5 2.6719-3.7812 0.9375-7.5 0.9375-9.7656 0-14.922-6.5938-5.1406-6.5938-5.875-19.922 2.875 4.25 7.2188 6.5156 4.3594 2.2656 9.5781 2.2656 10.984 0 17.359-6.6719 6.375-6.6562 6.375-18.125 0-11.234-6.6406-18.031-6.6406-6.7812-17.672-6.7812-12.656 0-19.344 9.6875-6.6875 9.7031-6.6875 28.109 0 17.281 8.2031 27.562t22.016 10.281q3.7188 0 7.5-0.73438t7.8906-2.1875z"/>
</defs>
<g transform="translate(1734.3 905.65) scale(.1 -.1)">
<use xlink:href="#c"/>
<use x="63.623047" xlink:href="#e"/>
<use x="95.410156" xlink:href="#c"/>
<use x="159.033203" xlink:href="#x"/>
</g>
</g>
<g clip-path="url(#a)">
<defs>
<path id="ad" d="m8.2031 72.906h46.875v-4.2031l-26.469-68.703h-10.297l24.906 64.594h-35.016z"/>
</defs>
<g transform="translate(1852.4 791.04) scale(.1 -.1)">
<use xlink:href="#c"/>
<use x="63.623047" xlink:href="#e"/>
<use x="95.410156" xlink:href="#c"/>
<use x="159.033203" xlink:href="#ad"/>
</g>
</g>
<g clip-path="url(#a)">
<g transform="translate(1781.6 905.65) scale(.1 -.1)">
<use xlink:href="#c"/>
<use x="63.623047" xlink:href="#e"/>
<use x="95.410156" xlink:href="#c"/>
<use x="159.033203" xlink:href="#aa"/>
</g>
</g>
<g clip-path="url(#a)">
<g transform="translate(1828.8 905.65) scale(.1 -.1)">
<use xlink:href="#c"/>
<use x="63.623047" xlink:href="#e"/>
<use x="95.410156" xlink:href="#p"/>
<use x="159.033203" xlink:href="#ab"/>
</g>
</g>
<g clip-path="url(#a)">
<g transform="translate(1569 791.04) scale(.1 -.1)">
<use xlink:href="#c"/>
<use x="63.623047" xlink:href="#e"/>
<use x="95.410156" xlink:href="#p"/>
<use x="159.033203" xlink:href="#c"/>
</g>
</g>
<g clip-path="url(#a)">
<g transform="translate(1663.5 791.04) scale(.1 -.1)">
<use xlink:href="#c"/>
<use x="63.623047" xlink:href="#e"/>
<use x="95.410156" xlink:href="#p"/>
<use x="159.033203" xlink:href="#p"/>
</g>
</g>
<g clip-path="url(#a)">
<g transform="translate(1639.9 905.65) scale(.1 -.1)">
<use xlink:href="#c"/>
<use x="63.623047" xlink:href="#e"/>
<use x="95.410156" xlink:href="#p"/>
<use x="159.033203" xlink:href="#q"/>
</g>
</g>
<g clip-path="url(#a)">
<g transform="translate(1687.1 905.65) scale(.1 -.1)">
<use xlink:href="#c"/>
<use x="63.623047" xlink:href="#e"/>
<use x="95.410156" xlink:href="#p"/>
<use x="159.033203" xlink:href="#o"/>
</g>
</g>
<g clip-path="url(#a)">
<g transform="translate(1545.4 905.65) scale(.1 -.1)">
<use xlink:href="#c"/>
<use x="63.623047" xlink:href="#e"/>
<use x="95.410156" xlink:href="#p"/>
<use x="159.033203" xlink:href="#n"/>
</g>
</g>
<g clip-path="url(#a)">
<g transform="translate(1592.6 905.65) scale(.1 -.1)">
<use xlink:href="#c"/>
<use x="63.623047" xlink:href="#e"/>
<use x="95.410156" xlink:href="#p"/>
<use x="159.033203" xlink:href="#x"/>
</g>
</g>
<g clip-path="url(#a)">
<g transform="translate(317.3 905.65) scale(.1 -.1)">
<use xlink:href="#c"/>
<use x="63.623047" xlink:href="#e"/>
<use x="95.410156" xlink:href="#p"/>
<use x="159.033203" xlink:href="#ad"/>
</g>
</g>
<g clip-path="url(#a)">
<defs>
<path id="ag" d="m31.781 34.625q-7.0312 0-11.062-3.7656-4.0156-3.7656-4.0156-10.344 0-6.5938 4.0156-10.359 4.0312-3.7656 11.062-3.7656t11.078 3.7812q4.0625 3.7969 4.0625 10.344 0 6.5781-4.0312 10.344-4.0156 3.7656-11.109 3.7656zm-9.8594 4.1875q-6.3438 1.5625-9.8906 5.9062-3.5312 4.3594-3.5312 10.609 0 8.7344 6.2188 13.812 6.2344 5.0781 17.062 5.0781 10.891 0 17.094-5.0781t6.2031-13.812q0-6.25-3.5469-10.609-3.5312-4.3438-9.8281-5.9062 7.125-1.6562 11.094-6.5 3.9844-4.8281 3.9844-11.797 0-10.609-6.4688-16.281-6.4688-5.6562-18.531-5.6562-12.047 0-18.531 5.6562-6.4688 5.6719-6.4688 16.281 0 6.9688 4 11.797 4.0156 4.8438 11.141 6.5zm-3.6094 15.578q0-5.6562 3.5312-8.8281 3.5469-3.1719 9.9375-3.1719 6.3594 0 9.9375 3.1719 3.5938 3.1719 3.5938 8.8281 0 5.6719-3.5938 8.8438-3.5781 3.1719-9.9375 3.1719-6.3906 0-9.9375-3.1719-3.5312-3.1719-3.5312-8.8438z"/>
</defs>
<g transform="translate(531.17 311) scale(.1 -.1)">
<use xlink:href="#c"/>
<use x="63.623047" xlink:href="#e"/>
<use x="95.410156" xlink:href="#p"/>
<use x="159.033203" xlink:href="#ag"/>
</g>
</g>
<g clip-path="url(#a)">
<g transform="translate(364.54 905.65) scale(.1 -.1)">
<use xlink:href="#c"/>
<use x="63.623047" xlink:href="#e"/>
<use x="95.410156" xlink:href="#p"/>
<use x="159.033203" xlink:href="#aa"/>
</g>
</g>
<g clip-path="url(#a)">
<g transform="translate(435.39 905.65) scale(.1 -.1)">
<use xlink:href="#c"/>
<use x="63.623047" xlink:href="#e"/>
<use x="95.410156" xlink:href="#q"/>
<use x="159.033203" xlink:href="#ab"/>
</g>
</g>
<g clip-path="url(#a)">
<g transform="translate(818.51 435.23) scale(.1 -.1)">
<use xlink:href="#c"/>
<use x="63.623047" xlink:href="#e"/>
<use x="95.410156" xlink:href="#q"/>
<use x="159.033203" xlink:href="#c"/>
</g>
</g>
<g clip-path="url(#a)">
<g transform="translate(553.48 905.65) scale(.1 -.1)">
<use xlink:href="#c"/>
<use x="63.623047" xlink:href="#e"/>
<use x="95.410156" xlink:href="#q"/>
<use x="159.033203" xlink:href="#q"/>
</g>
</g>
<g clip-path="url(#a)">
<g transform="translate(671.56 674.83) scale(.1 -.1)">
<use xlink:href="#c"/>
<use x="63.623047" xlink:href="#e"/>
<use x="95.410156" xlink:href="#q"/>
<use x="159.033203" xlink:href="#o"/>
</g>
</g>
<g clip-path="url(#a)">
<g transform="translate(884.12 905.65) scale(.1 -.1)">
<use xlink:href="#c"/>
<use x="63.623047" xlink:href="#e"/>
<use x="95.410156" xlink:href="#q"/>
<use x="159.033203" xlink:href="#n"/>
</g>
</g>
<g clip-path="url(#a)">
<g transform="translate(836.88 674.83) scale(.1 -.1)">
<use xlink:href="#c"/>
<use x="63.623047" xlink:href="#e"/>
<use x="95.410156" xlink:href="#q"/>
<use x="159.033203" xlink:href="#x"/>
</g>
</g>
<g clip-path="url(#a)">
<g transform="translate(1025.8 905.65) scale(.1 -.1)">
<use xlink:href="#c"/>
<use x="63.623047" xlink:href="#e"/>
<use x="95.410156" xlink:href="#q"/>
<use x="159.033203" xlink:href="#ad"/>
</g>
</g>
<g clip-path="url(#a)">
<g transform="translate(939.22 556.38) scale(.1 -.1)">
<use xlink:href="#c"/>
<use x="63.623047" xlink:href="#e"/>
<use x="95.410156" xlink:href="#q"/>
<use x="159.033203" xlink:href="#ag"/>
</g>
</g>
<g clip-path="url(#a)">
<g transform="translate(1073.1 905.65) scale(.1 -.1)">
<use xlink:href="#c"/>
<use x="63.623047" xlink:href="#e"/>
<use x="95.410156" xlink:href="#q"/>
<use x="159.033203" xlink:href="#aa"/>
</g>
</g>
<g clip-path="url(#a)">
<g transform="translate(1143.9 674.83) scale(.1 -.1)">
<use xlink:href="#c"/>
<use x="63.623047" xlink:href="#e"/>
<use x="95.410156" xlink:href="#o"/>
<use x="159.033203" xlink:href="#ab"/>
</g>
</g>
<g clip-path="url(#a)">
<g transform="translate(1120.3 791.04) scale(.1 -.1)">
<use xlink:href="#c"/>
<use x="63.623047" xlink:href="#e"/>
<use x="95.410156" xlink:href="#o"/>
<use x="159.033203" xlink:href="#c"/>
</g>
</g>
<g clip-path="url(#a)">
<g transform="translate(1167.5 905.65) scale(.1 -.1)">
<use xlink:href="#c"/>
<use x="63.623047" xlink:href="#e"/>
<use x="95.410156" xlink:href="#o"/>
<use x="159.033203" xlink:href="#p"/>
</g>
</g>
<g clip-path="url(#a)">
<g transform="translate(1120.3 905.65) scale(.1 -.1)">
<use xlink:href="#c"/>
<use x="63.623047" xlink:href="#e"/>
<use x="95.410156" xlink:href="#o"/>
<use x="159.033203" xlink:href="#q"/>
</g>
</g>
<g clip-path="url(#a)">
<g transform="translate(931.35 905.65) scale(.1 -.1)">
<use xlink:href="#c"/>
<use x="63.623047" xlink:href="#e"/>
<use x="95.410156" xlink:href="#o"/>
<use x="159.033203" xlink:href="#o"/>
</g>
</g>
<g clip-path="url(#a)">
<g transform="translate(978.58 791.04) scale(.1 -.1)">
<use xlink:href="#c"/>
<use x="63.623047" xlink:href="#e"/>
<use x="95.410156" xlink:href="#o"/>
<use x="159.033203" xlink:href="#n"/>
</g>
</g>
<g clip-path="url(#a)">
<g transform="translate(978.58 905.65) scale(.1 -.1)">
<use xlink:href="#c"/>
<use x="63.623047" xlink:href="#e"/>
<use x="95.410156" xlink:href="#o"/>
<use x="159.033203" xlink:href="#x"/>
</g>
</g>
<g clip-path="url(#a)">
<g transform="translate(600.71 905.65) scale(.1 -.1)">
<use xlink:href="#c"/>
<use x="63.623047" xlink:href="#e"/>
<use x="95.410156" xlink:href="#o"/>
<use x="159.033203" xlink:href="#ad"/>
</g>
</g>
<g clip-path="url(#a)">
<g transform="translate(647.94 905.65) scale(.1 -.1)">
<use xlink:href="#c"/>
<use x="63.623047" xlink:href="#e"/>
<use x="95.410156" xlink:href="#o"/>
<use x="159.033203" xlink:href="#ag"/>
</g>
</g>
<g clip-path="url(#a)">
<g transform="translate(766.03 791.04) scale(.1 -.1)">
<use xlink:href="#c"/>
<use x="63.623047" xlink:href="#e"/>
<use x="95.410156" xlink:href="#o"/>
<use x="159.033203" xlink:href="#aa"/>
</g>
</g>
<g clip-path="url(#a)">
<g transform="translate(695.18 905.65) scale(.1 -.1)">
<use xlink:href="#c"/>
<use x="63.623047" xlink:href="#e"/>
<use x="95.410156" xlink:href="#n"/>
<use x="159.033203" xlink:href="#ab"/>
</g>
</g>
<g clip-path="url(#a)">
<g transform="translate(766.03 905.65) scale(.1 -.1)">
<use xlink:href="#c"/>
<use x="63.623047" xlink:href="#e"/>
<use x="95.410156" xlink:href="#n"/>
<use x="159.033203" xlink:href="#c"/>
</g>
</g>
<g clip-path="url(#a)">
<g transform="translate(836.88 905.65) scale(.1 -.1)">
<use xlink:href="#c"/>
<use x="63.623047" xlink:href="#e"/>
<use x="95.410156" xlink:href="#n"/>
<use x="159.033203" xlink:href="#p"/>
</g>
</g>
<g clip-path="url(#a)">
<g transform="translate(81.134 905.65) scale(.1 -.1)">
<use xlink:href="#c"/>
<use x="63.623047" xlink:href="#e"/>
<use x="95.410156" xlink:href="#n"/>
<use x="159.033203" xlink:href="#q"/>
</g>
</g>
<g clip-path="url(#a)">
<g transform="translate(128.37 905.65) scale(.1 -.1)">
<use xlink:href="#c"/>
<use x="63.623047" xlink:href="#e"/>
<use x="95.410156" xlink:href="#n"/>
<use x="159.033203" xlink:href="#o"/>
</g>
</g>
<g clip-path="url(#a)">
<g transform="translate(199.22 791.04) scale(.1 -.1)">
<use xlink:href="#c"/>
<use x="63.623047" xlink:href="#e"/>
<use x="95.410156" xlink:href="#n"/>
<use x="159.033203" xlink:href="#n"/>
</g>
</g>
<g clip-path="url(#a)">
<g transform="translate(175.6 905.65) scale(.1 -.1)">
<use xlink:href="#c"/>
<use x="63.623047" xlink:href="#e"/>
<use x="95.410156" xlink:href="#n"/>
<use x="159.033203" xlink:href="#x"/>
</g>
</g>
<g clip-path="url(#a)">
<g transform="translate(222.84 905.65) scale(.1 -.1)">
<use xlink:href="#c"/>
<use x="63.623047" xlink:href="#e"/>
<use x="95.410156" xlink:href="#n"/>
<use x="159.033203" xlink:href="#ad"/>
</g>
</g>
<g clip-path="url(#a)">
<g transform="translate(506.24 905.65) scale(.1 -.1)">
<use xlink:href="#c"/>
<use x="63.623047" xlink:href="#e"/>
<use x="95.410156" xlink:href="#n"/>
<use x="159.033203" xlink:href="#ag"/>
</g>
</g>
<g clip-path="url(#a)">
<g transform="translate(1214.8 905.65) scale(.1 -.1)">
<use xlink:href="#c"/>
<use x="63.623047" xlink:href="#e"/>
<use x="95.410156" xlink:href="#n"/>
<use x="159.033203" xlink:href="#aa"/>
</g>
</g>
<g clip-path="url(#a)">
<g transform="translate(1498.2 905.65) scale(.1 -.1)">
<use xlink:href="#c"/>
<use x="63.623047" xlink:href="#e"/>
<use x="95.410156" xlink:href="#x"/>
<use x="159.033203" xlink:href="#ab"/>
</g>
</g>
<g clip-path="url(#a)">
<g transform="translate(1876 905.65) scale(.1 -.1)">
<use xlink:href="#c"/>
<use x="63.623047" xlink:href="#e"/>
<use x="95.410156" xlink:href="#x"/>
<use x="159.033203" xlink:href="#c"/>
</g>
</g>
<g clip-path="url(#a)">
<g transform="translate(1923.3 905.65) scale(.1 -.1)">
<use xlink:href="#c"/>
<use x="63.623047" xlink:href="#e"/>
<use x="95.410156" xlink:href="#x"/>
<use x="159.033203" xlink:href="#p"/>
</g>
</g>
<defs>
<clipPath id="a">
<rect width="2026.7" height="1066.7"/>
</clipPath>
</defs>
</svg>
