<?xml version="1.0" encoding="UTF-8"?>
<!DOCTYPE svg  PUBLIC '-//W3C//DTD SVG 1.1//EN'  'http://www.w3.org/Graphics/SVG/1.1/DTD/svg11.dtd'>
<svg width="1773.3pt" height="933.33pt" version="1.1" viewBox="0 0 1773.3 933.33" xmlns="http://www.w3.org/2000/svg" xmlns:xlink="http://www.w3.org/1999/xlink">
<defs>
<style type="text/css">*{stroke-linecap:butt;stroke-linejoin:round;}</style>
</defs>
<path d="m0 933.33h1773.3v-933.33h-1773.3z" fill="#fff"/>
<g fill="none" stroke="#000">
<path d="m549.61 43.094-299.22 335.34" clip-path="url(#a)"/>
<path d="m549.61 43.094 100.03 746.88" clip-path="url(#a)"/>
<path d="m549.61 43.094 146.57 114.97" clip-path="url(#a)"/>
<path d="m549.61 43.094 52.621 746.88" clip-path="url(#a)"/>
<path d="m250.4 378.43-169.62 411.54" clip-path="url(#a)"/>
<path d="m250.4 378.43-122.22 411.54" clip-path="url(#a)"/>
<path d="m250.4 378.43 34.813 105.98" clip-path="url(#a)"/>
<path d="m250.4 378.43 257.03 311.27" clip-path="url(#a)"/>
<path d="m649.64 789.97v100.27" clip-path="url(#a)"/>
<path d="m696.18 158.07 48.27 531.63" clip-path="url(#a)"/>
<path d="m696.18 158.07 235.3 111.68" clip-path="url(#a)"/>
<path d="m696.18 158.07-283.57 631.9" clip-path="url(#a)" stroke-dasharray="3.7,1.6"/>
<path d="m744.45 689.7-47.406 100.27" clip-path="url(#a)"/>
<path d="m744.45 689.7v100.27" clip-path="url(#a)"/>
<path d="m744.45 689.7 47.406 100.27" clip-path="url(#a)"/>
<path d="m931.48 269.75-92.219 520.22" clip-path="url(#a)"/>
<path d="m931.48 269.75 92.219 108.68" clip-path="url(#a)"/>
<path d="m839.26 789.97v100.27" clip-path="url(#a)"/>
<path d="m1023.7 378.43-137.03 411.54" clip-path="url(#a)"/>
<path d="m1023.7 378.43-89.626 411.54" clip-path="url(#a)"/>
<path d="m1023.7 378.43 17.036 209.61" clip-path="url(#a)"/>
<path d="m1023.7 378.43 209.62 105.98" clip-path="url(#a)"/>
<path d="m886.67 789.97v100.27" clip-path="url(#a)"/>
<path d="m934.07 789.97v100.27" clip-path="url(#a)"/>
<path d="m1040.7 588.04-35.554 101.66" clip-path="url(#a)"/>
<path d="m1040.7 588.04 35.554 201.93" clip-path="url(#a)"/>
<path d="m1233.3 484.41-109.63 305.56" clip-path="url(#a)"/>
<path d="m1233.3 484.41-62.22 305.56" clip-path="url(#a)"/>
<path d="m1233.3 484.41-14.814 305.56" clip-path="url(#a)"/>
<path d="m1233.3 484.41 186.66 103.62" clip-path="url(#a)"/>
<path d="m1123.7 789.97v100.27" clip-path="url(#a)"/>
<path d="m1171.1 789.97v100.27" clip-path="url(#a)"/>
<path d="m1218.5 789.97v100.27" clip-path="url(#a)"/>
<path d="m1420 588.04-154.07 201.93" clip-path="url(#a)"/>
<path d="m1420 588.04-59.257 101.66" clip-path="url(#a)"/>
<path d="m1420 588.04 35.554 201.93" clip-path="url(#a)"/>
<path d="m1420 588.04 177.77 101.66" clip-path="url(#a)"/>
<path d="m1265.9 789.97v100.27" clip-path="url(#a)"/>
<path d="m1360.7 689.7-47.406 100.27" clip-path="url(#a)"/>
<path d="m1360.7 689.7 47.406 100.27" clip-path="url(#a)"/>
<path d="m1360.7 689.7v100.27" clip-path="url(#a)"/>
<path d="m1455.5 789.97v100.27" clip-path="url(#a)"/>
<path d="m1597.7 689.7-94.811 100.27" clip-path="url(#a)"/>
<path d="m1597.7 689.7-47.406 100.27" clip-path="url(#a)"/>
<path d="m1597.7 689.7v100.27" clip-path="url(#a)"/>
<path d="m1597.7 689.7 47.406 100.27" clip-path="url(#a)"/>
<path d="m1597.7 689.7 94.811 100.27" clip-path="url(#a)"/>
<path d="m1502.9 789.97v100.27" clip-path="url(#a)"/>
<path d="m1550.3 789.97v100.27" clip-path="url(#a)"/>
<path d="m1597.7 789.97v100.27" clip-path="url(#a)"/>
<path d="m1645.2 789.97v100.27" clip-path="url(#a)"/>
<path d="m1313.3 789.97v100.27" clip-path="url(#a)"/>
<path d="m1408.1 789.97v100.27" clip-path="url(#a)"/>
<path d="m1005.2 689.7-23.703 100.27" clip-path="url(#a)"/>
<path d="m1005.2 689.7 23.703 100.27" clip-path="url(#a)"/>
<path d="m1076.3 789.97v100.27" clip-path="url(#a)"/>
<path d="m981.48 789.97v100.27" clip-path="url(#a)"/>
<path d="m1028.9 789.97v100.27" clip-path="url(#a)"/>
<path d="m697.04 789.97v100.27" clip-path="url(#a)"/>
<path d="m744.45 789.97v100.27" clip-path="url(#a)"/>
<path d="m791.86 789.97v100.27" clip-path="url(#a)"/>
<path d="m80.773 789.97v100.27" clip-path="url(#a)"/>
<path d="m128.18 789.97v100.27" clip-path="url(#a)"/>
<path d="m285.21 484.41-109.63 305.56" clip-path="url(#a)"/>
<path d="m285.21 484.41-62.22 305.56" clip-path="url(#a)"/>
<path d="m285.21 484.41 44.443 103.62" clip-path="url(#a)"/>
<path d="m285.21 484.41 127.4 305.56" clip-path="url(#a)"/>
<path d="m507.42 689.7-47.406 100.27" clip-path="url(#a)"/>
<path d="m507.42 689.7v100.27" clip-path="url(#a)"/>
<path d="m507.42 689.7 47.406 100.27" clip-path="url(#a)"/>
<path d="m460.02 789.97v100.27" clip-path="url(#a)"/>
<path d="m507.42 789.97v100.27" clip-path="url(#a)"/>
<path d="m554.83 789.97v100.27" clip-path="url(#a)"/>
<path d="m175.58 789.97v100.27" clip-path="url(#a)"/>
<path d="m222.99 789.97v100.27" clip-path="url(#a)"/>
<path d="m329.65 588.04-35.554 101.66" clip-path="url(#a)"/>
<path d="m329.65 588.04 35.554 201.93" clip-path="url(#a)"/>
<path d="m412.61 789.97v100.27" clip-path="url(#a)"/>
<path d="m294.1 689.7-23.703 100.27" clip-path="url(#a)"/>
<path d="m294.1 689.7 23.703 100.27" clip-path="url(#a)"/>
<path d="m365.21 789.97v100.27" clip-path="url(#a)"/>
<path d="m270.39 789.97v100.27" clip-path="url(#a)"/>
<path d="m317.8 789.97v100.27" clip-path="url(#a)"/>
<path d="m532.07 43.094-281.68 335.34" clip-path="url(#a)"/>
<path d="m532.07 43.094 117.57 746.88" clip-path="url(#a)"/>
<path d="m532.07 43.094 164.11 114.97" clip-path="url(#a)"/>
<path d="m602.23 789.97v100.27" clip-path="url(#a)"/>
<path d="m1360.7 789.97v100.27" clip-path="url(#a)"/>
<path d="m1692.6 789.97v100.27" clip-path="url(#a)"/>
</g>
<path d="m402.68 217.18 4.0055-4.489q1.5979-1.7908-0.19288-3.3886l-5.7771-5.1548q-1.7908-1.5979-3.3886 0.19288l-4.0055 4.489q-1.5979 1.7908 0.19288 3.3886l5.7771 5.1548q1.7908 1.5979 3.3886-0.19288z" clip-path="url(#a)" fill="#fff" stroke="#fff"/>
<g clip-path="url(#a)">
<defs>
<path id="ap" d="m9.8125 72.906h9.8594v-29.891h35.844v29.891h9.8594v-72.906h-9.8594v34.719h-35.844v-34.719h-9.8594z"/>
</defs>
<g transform="translate(399.65 214.48) rotate(-48.258) scale(.08 -.08)">
<use xlink:href="#ap"/>
</g>
</g>
<path d="m593.11 415.16 0.5917 4.4181q0.31858 2.3788 2.6973 2.0602l7.674-1.0278q2.3788-0.31858 2.0602-2.6973l-0.5917-4.4181q-0.31858-2.3788-2.6973-2.0602l-7.674 1.0278q-2.3788 0.31858-2.0602 2.6973z" clip-path="url(#a)" fill="#fff" stroke="#fff"/>
<g clip-path="url(#a)">
<defs>
<path id="ae" d="m9.8125 72.906h9.8594v-64.609h35.5v-8.2969h-45.359z"/>
</defs>
<g transform="translate(597.14 414.62) rotate(82.372) scale(.08 -.08)">
<use xlink:href="#ae"/>
</g>
</g>
<path d="m616.66 103.66 4.7336 3.7132q1.8883 1.4813 3.3696-0.40708l4.7786-6.0919q1.4813-1.8883-0.40708-3.3696l-4.7336-3.7132q-1.8883-1.4813-3.3696 0.40708l-4.7786 6.0919q-1.4813 1.8883 0.40708 3.3696z" clip-path="url(#a)" fill="#fff" stroke="#fff"/>
<g clip-path="url(#a)">
<g transform="translate(619.17 100.46) rotate(38.112) scale(.08 -.08)">
<use xlink:href="#ap"/>
</g>
</g>
<path d="m569.46 414.05 0.4115 5.8405q0.16867 2.3941 2.5627 2.2254l7.7234-0.54415q2.3941-0.16867 2.2254-2.5627l-0.4115-5.8405q-0.16868-2.3941-2.5627-2.2254l-7.7234 0.54415q-2.3941 0.16867-2.2254 2.5627z" clip-path="url(#a)" fill="#fff" stroke="#fff"/>
<g clip-path="url(#a)">
<defs>
<path id="aj" d="m8.6875 72.906h9.9219v-44.297q0-11.719 4.2344-16.875 4.25-5.1406 13.781-5.1406 9.4688 0 13.719 5.1406 4.25 5.1562 4.25 16.875v44.297h9.9062v-45.516q0-14.25-7.0625-21.531-7.0469-7.2812-20.812-7.2812-13.828 0-20.891 7.2812-7.0469 7.2812-7.0469 21.531z"/>
</defs>
<g transform="translate(573.52 413.77) rotate(85.97) scale(.08 -.08)">
<use xlink:href="#aj"/>
</g>
</g>
<path d="m170.34 589.12 2.0854-5.0596q0.91456-2.2189-1.3044-3.1335l-7.1583-2.9504q-2.2189-0.91456-3.1335 1.3044l-2.0854 5.0596q-0.91456 2.2189 1.3044 3.1335l7.1583 2.9504q2.2189 0.91456 3.1335-1.3044z" clip-path="url(#a)" fill="#fff" stroke="#fff"/>
<g clip-path="url(#a)">
<defs>
<path id="s" d="m34.188 63.188-13.391-36.281h26.812zm-5.5781 9.7188h11.188l27.781-72.906h-10.25l-6.6406 18.703h-32.859l-6.6406-18.703h-10.406z"/>
</defs>
<g transform="translate(166.58 587.57) rotate(-67.6) scale(.08 -.08)">
<use xlink:href="#s"/>
</g>
</g>
<path d="m194.61 588.3 1.3733-4.6241q0.68325-2.3007-1.6174-2.9839l-7.4221-2.2042q-2.3007-0.68325-2.9839 1.6174l-1.3733 4.6241q-0.68325 2.3007 1.6174 2.9839l7.4221 2.2042q2.3007 0.68325 2.9839-1.6174z" clip-path="url(#a)" fill="#fff" stroke="#fff"/>
<g clip-path="url(#a)">
<defs>
<path id="ad" d="m19.672 64.797v-27.391h12.406q6.8906 0 10.641 3.5625 3.7656 3.5625 3.7656 10.156 0 6.5469-3.7656 10.109-3.75 3.5625-10.641 3.5625zm-9.8594 8.1094h22.266q12.266 0 18.531-5.5469 6.2812-5.5469 6.2812-16.234 0-10.797-6.2812-16.312-6.2656-5.5156-18.531-5.5156h-12.406v-29.297h-9.8594z"/>
</defs>
<g transform="translate(190.72 587.14) rotate(-73.46) scale(.08 -.08)">
<use xlink:href="#ad"/>
</g>
</g>
<path d="m260.99 430.78 1.7078 5.1992q0.74898 2.2801 3.0291 1.5312l7.3558-2.4162q2.2801-0.74898 1.5312-3.0291l-1.7078-5.1992q-0.74898-2.2801-3.0291-1.5312l-7.3558 2.4162q-2.2801 0.74898-1.5312 3.0291z" clip-path="url(#a)" fill="#fff" stroke="#fff"/>
<g clip-path="url(#a)">
<g transform="translate(264.85 429.51) rotate(71.816) scale(.08 -.08)">
<use xlink:href="#s"/>
</g>
</g>
<path d="m372.33 535.95 3.4845 4.2198q1.5281 1.8506 3.3788 0.3225l5.9702-4.9298q1.8506-1.5281 0.3225-3.3788l-3.4845-4.2198q-1.5281-1.8506-3.3788-0.3225l-5.9702 4.9298q-1.8506 1.5281-0.3225 3.3788z" clip-path="url(#a)" fill="#fff" stroke="#fff"/>
<g clip-path="url(#a)">
<g transform="translate(375.46 533.36) rotate(50.452) scale(.08 -.08)">
<use xlink:href="#s"/>
</g>
</g>
<path d="m643.37 822.46v35.285q0 2.4 2.4 2.4h7.7425q2.4 0 2.4-2.4v-35.285q0-2.4-2.4-2.4h-7.7425q-2.4 0-2.4 2.4z" clip-path="url(#a)" fill="#fff" stroke="#fff"/>
<g clip-path="url(#a)">
<defs>
<path id="l" d="m-0.29688 72.906h61.672v-8.3125h-25.875v-64.594h-9.9062v64.594h-25.891z"/>
<path id="d" d="m56.203 29.594v-4.3906h-41.312q0.59375-9.2812 5.5938-14.141t13.938-4.8594q5.1719 0 10.031 1.2656t9.6562 3.8125v-8.5q-4.8438-2.0469-9.9219-3.125t-10.297-1.0781q-13.094 0-20.734 7.6094-7.6406 7.625-7.6406 20.625 0 13.422 7.25 21.297 7.25 7.8906 19.562 7.8906 11.031 0 17.453-7.1094 6.4219-7.0938 6.4219-19.297zm-8.9844 2.6406q-0.09375 7.3594-4.125 11.75-4.0312 4.4062-10.672 4.4062-7.5156 0-12.031-4.25t-5.2031-11.969z"/>
<path id="f" d="m41.109 46.297q-1.5156 0.875-3.2969 1.2812-1.7812 0.42188-3.9219 0.42188-7.625 0-11.703-4.9531t-4.0781-14.234v-28.812h-9.0312v54.688h9.0312v-8.5q2.8438 4.9844 7.375 7.3906 4.5469 2.4219 11.047 2.4219 0.92188 0 2.0469-0.125 1.125-0.10938 2.4844-0.35938z"/>
<path id="k" d="m52 44.188q3.375 6.0625 8.0625 8.9375t11.031 2.875q8.5469 0 13.188-5.9844 4.6406-5.9688 4.6406-17v-33.016h-9.0312v32.719q0 7.8594-2.7969 11.656-2.7812 3.8125-8.4844 3.8125-6.9844 0-11.047-4.6406-4.0469-4.625-4.0469-12.641v-30.906h-9.0312v32.719q0 7.9062-2.7812 11.688t-8.5938 3.7812q-6.8906 0-10.953-4.6562-4.0469-4.6562-4.0469-12.625v-30.906h-9.0312v54.688h9.0312v-8.5q3.0781 5.0312 7.375 7.4219t10.203 2.3906q5.9688 0 10.141-3.0312 4.1719-3.0156 6.1719-8.7812z"/>
<path id="i" d="m9.4219 54.688h8.9844v-54.688h-8.9844zm0 21.297h8.9844v-11.391h-8.9844z"/>
<path id="h" d="m54.891 33.016v-33.016h-8.9844v32.719q0 7.7656-3.0312 11.609-3.0312 3.8594-9.0781 3.8594-7.2812 0-11.484-4.6406-4.2031-4.625-4.2031-12.641v-30.906h-9.0312v54.688h9.0312v-8.5q3.2344 4.9375 7.5938 7.375 4.375 2.4375 10.094 2.4375 9.4219 0 14.25-5.8281 4.8438-5.8281 4.8438-17.156z"/>
<path id="g" d="m34.281 27.484q-10.891 0-15.094-2.4844t-4.2031-8.5q0-4.7812 3.1562-7.5938 3.1562-2.7969 8.5625-2.7969 7.4844 0 12 5.2969t4.5156 14.078v2zm17.922 3.7188v-31.203h-8.9844v8.2969q-3.0781-4.9688-7.6719-7.3438t-11.234-2.375q-8.3906 0-13.359 4.7188-4.9531 4.7188-4.9531 12.625 0 9.2188 6.1719 13.906 6.1875 4.6875 18.438 4.6875h12.609v0.89062q0 6.2031-4.0781 9.5938t-11.453 3.3906q-4.6875 0-9.1406-1.125-4.4375-1.125-8.5312-3.375v8.3125q4.9219 1.9062 9.5625 2.8438 4.6406 0.95312 9.0312 0.95312 11.875 0 17.734-6.1562 5.8594-6.1406 5.8594-18.641z"/>
<path id="j" d="m9.4219 75.984h8.9844v-75.984h-8.9844z"/>
</defs>
<g transform="translate(647.43 822.46) rotate(90) scale(.08 -.08)">
<use xlink:href="#l"/>
<use x="60.818359" xlink:href="#d"/>
<use x="122.341797" xlink:href="#f"/>
<use x="163.439453" xlink:href="#k"/>
<use x="260.851562" xlink:href="#i"/>
<use x="288.634766" xlink:href="#h"/>
<use x="352.013672" xlink:href="#g"/>
<use x="413.292969" xlink:href="#j"/>
</g>
</g>
<path d="m713.85 422.05 0.43618 4.804q0.21702 2.3902 2.6072 2.1732l7.7108-0.7001q2.3902-0.21702 2.1732-2.6072l-0.43618-4.804q-0.21702-2.3902-2.6072-2.1732l-7.7108 0.7001q-2.3902 0.21702-2.1732 2.6072z" clip-path="url(#a)" fill="#fff" stroke="#fff"/>
<g clip-path="url(#a)">
<g transform="translate(717.9 421.68) rotate(84.812) scale(.08 -.08)">
<use xlink:href="#ad"/>
</g>
</g>
<path d="m808.67 218.4 4.9439 2.3466q2.1682 1.0291 3.1973-1.1391l3.3199-6.9946q1.0291-2.1682-1.1391-3.1973l-4.9439-2.3466q-2.1682-1.0291-3.1973 1.1391l-3.3199 6.9946q-1.0291 2.1682 1.1391 3.1973z" clip-path="url(#a)" fill="#fff" stroke="#fff"/>
<g clip-path="url(#a)">
<g transform="translate(810.41 214.73) rotate(25.391) scale(.08 -.08)">
<use xlink:href="#s"/>
</g>
</g>
<path d="m559 479.08 2.2405-4.9928q0.9826-2.1896-1.207-3.1722l-7.0638-3.1699q-2.1896-0.9826-3.1722 1.207l-2.2405 4.9928q-0.9826 2.1896 1.207 3.1722l7.0638 3.1699q2.1896 0.98261 3.1722-1.207z" clip-path="url(#a)" fill="#fff" stroke="#fff"/>
<g clip-path="url(#a)">
<g transform="translate(555.29 477.42) rotate(-65.832) scale(.08 -.08)">
<use xlink:href="#s"/>
</g>
</g>
<path d="m725.43 744.6 1.9667-4.1598q1.0258-2.1697-1.1439-3.1955l-6.9996-3.3093q-2.1697-1.0258-3.1955 1.1439l-1.9667 4.1598q-1.0258 2.1697 1.1439 3.1955l6.9996 3.3093q2.1697 1.0258 3.1955-1.1439z" clip-path="url(#a)" fill="#fff" stroke="#fff"/>
<g clip-path="url(#a)">
<defs>
<path id="ak" d="m9.8125 72.906h41.891v-8.3125h-32.031v-21.484h28.906v-8.2969h-28.906v-34.812h-9.8594z"/>
</defs>
<g transform="translate(721.76 742.86) rotate(-64.696) scale(.08 -.08)">
<use xlink:href="#ak"/>
</g>
</g>
<path d="m738.18 737.04v5.5862q0 2.4 2.4 2.4h7.7425q2.4 0 2.4-2.4v-5.5862q0-2.4-2.4-2.4h-7.7425q-2.4 0-2.4 2.4z" clip-path="url(#a)" fill="#fff" stroke="#fff"/>
<g clip-path="url(#a)">
<defs>
<path id="r" d="m64.406 67.281v-10.391q-4.9844 4.6406-10.625 6.9219-5.6406 2.2969-11.984 2.2969-12.5 0-19.141-7.6406t-6.6406-22.094q0-14.406 6.6406-22.047t19.141-7.6406q6.3438 0 11.984 2.2969t10.625 6.9375v-10.312q-5.1719-3.5156-10.969-5.2812-5.7812-1.75-12.219-1.75-16.562 0-26.094 10.125-9.5156 10.141-9.5156 27.672 0 17.578 9.5156 27.703 9.5312 10.141 26.094 10.141 6.5312 0 12.312-1.7344 5.7969-1.7344 10.875-5.2031z"/>
</defs>
<g transform="translate(742.24 737.04) rotate(90) scale(.08 -.08)">
<use xlink:href="#r"/>
</g>
</g>
<path d="m761.3 740 2.3759 5.0254q1.0258 2.1697 3.1955 1.1439l6.9996-3.3093q2.1697-1.0258 1.1439-3.1955l-2.3759-5.0254q-1.0258-2.1697-3.1955-1.1439l-6.9996 3.3093q-2.1697 1.0258-1.1439 3.1955z" clip-path="url(#a)" fill="#fff" stroke="#fff"/>
<g clip-path="url(#a)">
<defs>
<path id="ac" d="m44.391 34.188q3.1719-1.0781 6.1719-4.5938t6.0312-9.6719l10.016-19.922h-10.609l-9.3125 18.703q-3.625 7.3281-7.0156 9.7188t-9.25 2.3906h-10.75v-30.812h-9.8594v72.906h22.266q12.5 0 18.656-5.2344 6.1562-5.2188 6.1562-15.766 0-6.8906-3.2031-11.438-3.2031-4.5312-9.2969-6.2812zm-24.719 30.609v-25.875h12.406q7.125 0 10.766 3.2969t3.6406 9.6875-3.6406 9.6406-10.766 3.25z"/>
</defs>
<g transform="translate(764.97 738.27) rotate(64.696) scale(.08 -.08)">
<use xlink:href="#ac"/>
</g>
</g>
<path d="m891.06 533.7 0.97506-5.5005q0.41891-2.3632-1.9442-2.7821l-7.6236-1.3514q-2.3632-0.41891-2.7821 1.9442l-0.97506 5.5005q-0.41891 2.3632 1.9442 2.7821l7.6236 1.3514q2.3632 0.41891 2.7821-1.9442z" clip-path="url(#a)" fill="#fff" stroke="#fff"/>
<g clip-path="url(#a)">
<g transform="translate(887.06 532.99) rotate(-79.948) scale(.08 -.08)">
<use xlink:href="#r"/>
</g>
</g>
<path d="m971.17 326.22 3.2706 3.8544q1.5528 1.83 3.3828 0.2772l5.9036-5.0094q1.83-1.5528 0.2772-3.3828l-3.2706-3.8544q-1.5528-1.83-3.3828-0.2772l-5.9036 5.0094q-1.83 1.5528-0.2772 3.3828z" clip-path="url(#a)" fill="#fff" stroke="#fff"/>
<g clip-path="url(#a)">
<defs>
<path id="o" d="m9.8125 72.906h46.094v-8.3125h-36.234v-21.578h34.719v-8.2969h-34.719v-26.422h37.109v-8.2969h-46.969z"/>
</defs>
<g transform="translate(974.27 323.59) rotate(49.685) scale(.08 -.08)">
<use xlink:href="#o"/>
</g>
</g>
<path d="m832.99 822.46v35.285q0 2.4 2.4 2.4h7.7425q2.4 0 2.4-2.4v-35.285q0-2.4-2.4-2.4h-7.7425q-2.4 0-2.4 2.4z" clip-path="url(#a)" fill="#fff" stroke="#fff"/>
<g clip-path="url(#a)">
<g transform="translate(837.05 822.46) rotate(90) scale(.08 -.08)">
<use xlink:href="#l"/>
<use x="60.818359" xlink:href="#d"/>
<use x="122.341797" xlink:href="#f"/>
<use x="163.439453" xlink:href="#k"/>
<use x="260.851562" xlink:href="#i"/>
<use x="288.634766" xlink:href="#h"/>
<use x="352.013672" xlink:href="#g"/>
<use x="413.292969" xlink:href="#j"/>
</g>
</g>
<path d="m960.41 588.36 1.4536-4.3656q0.75821-2.2771-1.5189-3.0353l-7.346-2.446q-2.2771-0.75821-3.0353 1.5189l-1.4536 4.3656q-0.75821 2.2771 1.5189 3.0353l7.346 2.446q2.2771 0.75821 3.0353-1.5189z" clip-path="url(#a)" fill="#fff" stroke="#fff"/>
<g clip-path="url(#a)">
<g transform="translate(956.55 587.08) rotate(-71.584) scale(.08 -.08)">
<use xlink:href="#ak"/>
</g>
</g>
<path d="m984.43 588.21 1.1645-5.3472q0.51071-2.345-1.8343-2.8557l-7.5652-1.6476q-2.345-0.51071-2.8557 1.8343l-1.1645 5.3472q-0.51071 2.345 1.8343 2.8557l7.5652 1.6476q2.345 0.51071 2.8557-1.8343z" clip-path="url(#a)" fill="#fff" stroke="#fff"/>
<g clip-path="url(#a)">
<g transform="translate(980.46 587.34) rotate(-77.714) scale(.08 -.08)">
<use xlink:href="#s"/>
</g>
</g>
<path d="m1025.8 481.34 0.39078 4.8079q0.19443 2.3921 2.5865 2.1977l7.7171-0.62723q2.3921-0.19443 2.1977-2.5865l-0.39078-4.8079q-0.19443-2.3921-2.5865-2.1977l-7.7171 0.62723q-2.3921 0.19443-2.1977 2.5865z" clip-path="url(#a)" fill="#fff" stroke="#fff"/>
<g clip-path="url(#a)">
<g transform="translate(1029.8 481.01) rotate(85.353) scale(.08 -.08)">
<use xlink:href="#ad"/>
</g>
</g>
<path d="m1123.2 435.78 4.8838 2.4692q2.1418 1.0829 3.2247-1.0589l3.4934-6.9096q1.0829-2.1418-1.0589-3.2247l-4.8838-2.4692q-2.1418-1.0829-3.2247 1.0589l-3.4934 6.9096q-1.0829 2.1418 1.0589 3.2247z" clip-path="url(#a)" fill="#fff" stroke="#fff"/>
<g clip-path="url(#a)">
<g transform="translate(1125.1 432.16) rotate(26.821) scale(.08 -.08)">
<use xlink:href="#s"/>
</g>
</g>
<path d="m880.4 822.46v35.285q0 2.4 2.4 2.4h7.7425q2.4 0 2.4-2.4v-35.285q0-2.4-2.4-2.4h-7.7425q-2.4 0-2.4 2.4z" clip-path="url(#a)" fill="#fff" stroke="#fff"/>
<g clip-path="url(#a)">
<g transform="translate(884.46 822.46) rotate(90) scale(.08 -.08)">
<use xlink:href="#l"/>
<use x="60.818359" xlink:href="#d"/>
<use x="122.341797" xlink:href="#f"/>
<use x="163.439453" xlink:href="#k"/>
<use x="260.851562" xlink:href="#i"/>
<use x="288.634766" xlink:href="#h"/>
<use x="352.013672" xlink:href="#g"/>
<use x="413.292969" xlink:href="#j"/>
</g>
</g>
<path d="m927.8 822.46v35.285q0 2.4 2.4 2.4h7.7425q2.4 0 2.4-2.4v-35.285q0-2.4-2.4-2.4h-7.7425q-2.4 0-2.4 2.4z" clip-path="url(#a)" fill="#fff" stroke="#fff"/>
<g clip-path="url(#a)">
<g transform="translate(931.86 822.46) rotate(90) scale(.08 -.08)">
<use xlink:href="#l"/>
<use x="60.818359" xlink:href="#d"/>
<use x="122.341797" xlink:href="#f"/>
<use x="163.439453" xlink:href="#k"/>
<use x="260.851562" xlink:href="#i"/>
<use x="288.634766" xlink:href="#h"/>
<use x="352.013672" xlink:href="#g"/>
<use x="413.292969" xlink:href="#j"/>
</g>
</g>
<path d="m1028 643.32 1.6687-4.7716q0.79228-2.2655-1.4732-3.0577l-7.3085-2.5559q-2.2655-0.79228-3.0577 1.4732l-1.6687 4.7716q-0.79228 2.2655 1.4732 3.0577l7.3085 2.5559q2.2655 0.79228 3.0577-1.4732z" clip-path="url(#a)" fill="#fff" stroke="#fff"/>
<g clip-path="url(#a)">
<g transform="translate(1024.2 641.98) rotate(-70.724) scale(.08 -.08)">
<use xlink:href="#o"/>
</g>
</g>
<path d="m1051.9 687.34 0.96866 5.5016q0.41616 2.3636 2.7798 1.9475l7.6252-1.3426q2.3636-0.41616 1.9475-2.7798l-0.96866-5.5016q-0.41616-2.3636-2.7798-1.9475l-7.6252 1.3426q-2.3636 0.41616-1.9475 2.7798z" clip-path="url(#a)" fill="#fff" stroke="#fff"/>
<g clip-path="url(#a)">
<g transform="translate(1055.9 686.63) rotate(80.014) scale(.08 -.08)">
<use xlink:href="#r"/>
</g>
</g>
<path d="m1183.4 642.21 2.0802-5.7981q0.81047-2.259-1.4485-3.0695l-7.2877-2.6146q-2.259-0.81047-3.0695 1.4485l-2.0802 5.7981q-0.81047 2.259 1.4485 3.0695l7.2877 2.6146q2.259 0.81047 3.0695-1.4485z" clip-path="url(#a)" fill="#fff" stroke="#fff"/>
<g clip-path="url(#a)">
<defs>
<path id="au" d="m19.672 64.797v-56.688h11.922q15.094 0 22.094 6.8281 7 6.8438 7 21.594 0 14.641-7 21.453t-22.094 6.8125zm-9.8594 8.1094h20.266q21.188 0 31.094-8.8125 9.9219-8.8125 9.9219-27.562 0-18.859-9.9688-27.703-9.9531-8.8281-31.047-8.8281h-20.266z"/>
</defs>
<g transform="translate(1179.5 640.84) rotate(-70.263) scale(.08 -.08)">
<use xlink:href="#au"/>
</g>
</g>
<path d="m1207.9 640.7 0.9181-4.5087q0.47888-2.3517-1.8729-2.8306l-7.5868-1.5449q-2.3517-0.47888-2.8306 1.8729l-0.9181 4.5087q-0.47888 2.3517 1.8729 2.8306l7.5868 1.5449q2.3517 0.47888 2.8306-1.8729z" clip-path="url(#a)" fill="#fff" stroke="#fff"/>
<g clip-path="url(#a)">
<g transform="translate(1203.9 639.89) rotate(-78.49) scale(.08 -.08)">
<use xlink:href="#ak"/>
</g>
</g>
<path d="m1232.1 639.9 0.23359-4.8181q0.11622-2.3972-2.281-2.5134l-7.7334-0.37494q-2.3972-0.11622-2.5134 2.281l-0.23359 4.8181q-0.11622 2.3972 2.281 2.5134l7.7334 0.37494q2.3972 0.11622 2.5134-2.281z" clip-path="url(#a)" fill="#fff" stroke="#fff"/>
<g clip-path="url(#a)">
<g transform="translate(1228 639.71) rotate(-87.224) scale(.08 -.08)">
<use xlink:href="#ad"/>
</g>
</g>
<path d="m1321.2 540.38 4.7847 2.6562q2.0983 1.1649 3.2632-0.93347l3.7579-6.7694q1.1649-2.0983-0.93347-3.2632l-4.7847-2.6562q-2.0983-1.1649-3.2632 0.93347l-3.7579 6.7694q-1.1649 2.0983 0.93347 3.2632z" clip-path="url(#a)" fill="#fff" stroke="#fff"/>
<g clip-path="url(#a)">
<g transform="translate(1323.2 536.83) rotate(29.036) scale(.08 -.08)">
<use xlink:href="#s"/>
</g>
</g>
<path d="m1117.4 822.46v35.285q0 2.4 2.4 2.4h7.7425q2.4 0 2.4-2.4v-35.285q0-2.4-2.4-2.4h-7.7425q-2.4 0-2.4 2.4z" clip-path="url(#a)" fill="#fff" stroke="#fff"/>
<g clip-path="url(#a)">
<g transform="translate(1121.5 822.46) rotate(90) scale(.08 -.08)">
<use xlink:href="#l"/>
<use x="60.818359" xlink:href="#d"/>
<use x="122.341797" xlink:href="#f"/>
<use x="163.439453" xlink:href="#k"/>
<use x="260.851562" xlink:href="#i"/>
<use x="288.634766" xlink:href="#h"/>
<use x="352.013672" xlink:href="#g"/>
<use x="413.292969" xlink:href="#j"/>
</g>
</g>
<path d="m1164.8 822.46v35.285q0 2.4 2.4 2.4h7.7425q2.4 0 2.4-2.4v-35.285q0-2.4-2.4-2.4h-7.7425q-2.4 0-2.4 2.4z" clip-path="url(#a)" fill="#fff" stroke="#fff"/>
<g clip-path="url(#a)">
<g transform="translate(1168.9 822.46) rotate(90) scale(.08 -.08)">
<use xlink:href="#l"/>
<use x="60.818359" xlink:href="#d"/>
<use x="122.341797" xlink:href="#f"/>
<use x="163.439453" xlink:href="#k"/>
<use x="260.851562" xlink:href="#i"/>
<use x="288.634766" xlink:href="#h"/>
<use x="352.013672" xlink:href="#g"/>
<use x="413.292969" xlink:href="#j"/>
</g>
</g>
<path d="m1212.2 822.46v35.285q0 2.4 2.4 2.4h7.7425q2.4 0 2.4-2.4v-35.285q0-2.4-2.4-2.4h-7.7425q-2.4 0-2.4 2.4z" clip-path="url(#a)" fill="#fff" stroke="#fff"/>
<g clip-path="url(#a)">
<g transform="translate(1216.3 822.46) rotate(90) scale(.08 -.08)">
<use xlink:href="#l"/>
<use x="60.818359" xlink:href="#d"/>
<use x="122.341797" xlink:href="#f"/>
<use x="163.439453" xlink:href="#k"/>
<use x="260.851562" xlink:href="#i"/>
<use x="288.634766" xlink:href="#h"/>
<use x="352.013672" xlink:href="#g"/>
<use x="413.292969" xlink:href="#j"/>
</g>
</g>
<path d="m1346.4 694.82 3.0662-4.0189q1.4558-1.9081-0.45229-3.3638l-6.1555-4.6964q-1.9081-1.4558-3.3638 0.45228l-3.0662 4.0189q-1.4558 1.9081 0.45229 3.3638l6.1555 4.6964q1.9081 1.4558 3.3638-0.45228z" clip-path="url(#a)" fill="#fff" stroke="#fff"/>
<g clip-path="url(#a)">
<g transform="translate(1343.2 692.35) rotate(-52.658) scale(.08 -.08)">
<use xlink:href="#o"/>
</g>
</g>
<path d="m1394.5 644.21 2.5455-4.3673q1.2086-2.0735-0.86492-3.2821l-6.6892-3.8989q-2.0735-1.2086-3.2821 0.86492l-2.5455 4.3673q-1.2086 2.0735 0.86492 3.2821l6.6892 3.8989q2.0735 1.2086 3.2821-0.86492z" clip-path="url(#a)" fill="#fff" stroke="#fff"/>
<g clip-path="url(#a)">
<g transform="translate(1391 642.16) rotate(-59.764) scale(.08 -.08)">
<use xlink:href="#o"/>
</g>
</g>
<path d="m1431.1 687.34 0.96866 5.5016q0.41616 2.3636 2.7798 1.9475l7.6252-1.3426q2.3636-0.41616 1.9475-2.7798l-0.96866-5.5016q-0.41616-2.3636-2.7798-1.9475l-7.6252 1.3426q-2.3636 0.41616-1.9475 2.7798z" clip-path="url(#a)" fill="#fff" stroke="#fff"/>
<g clip-path="url(#a)">
<g transform="translate(1435.1 686.63) rotate(80.014) scale(.08 -.08)">
<use xlink:href="#r"/>
</g>
</g>
<path d="m1503.6 643.06 4.3881 2.5095q2.0834 1.1915 3.2748-0.89192l3.8437-6.721q1.1915-2.0834-0.89192-3.2748l-4.3881-2.5095q-2.0834-1.1915-3.2748 0.89192l-3.8437 6.721q-1.1915 2.0834 0.89192 3.2748z" clip-path="url(#a)" fill="#fff" stroke="#fff"/>
<g clip-path="url(#a)">
<g transform="translate(1505.6 639.53) rotate(29.765) scale(.08 -.08)">
<use xlink:href="#o"/>
</g>
</g>
<path d="m1259.6 822.46v35.285q0 2.4 2.4 2.4h7.7425q2.4 0 2.4-2.4v-35.285q0-2.4-2.4-2.4h-7.7425q-2.4 0-2.4 2.4z" clip-path="url(#a)" fill="#fff" stroke="#fff"/>
<g clip-path="url(#a)">
<g transform="translate(1263.7 822.46) rotate(90) scale(.08 -.08)">
<use xlink:href="#l"/>
<use x="60.818359" xlink:href="#d"/>
<use x="122.341797" xlink:href="#f"/>
<use x="163.439453" xlink:href="#k"/>
<use x="260.851562" xlink:href="#i"/>
<use x="288.634766" xlink:href="#h"/>
<use x="352.013672" xlink:href="#g"/>
<use x="413.292969" xlink:href="#j"/>
</g>
</g>
<path d="m1341.6 744.8 2.1606-4.57q1.0258-2.1697-1.1439-3.1955l-6.9996-3.3093q-2.1697-1.0258-3.1955 1.1439l-2.1606 4.57q-1.0258 2.1697 1.1439 3.1955l6.9996 3.3093q2.1697 1.0258 3.1955-1.1439z" clip-path="url(#a)" fill="#fff" stroke="#fff"/>
<g clip-path="url(#a)">
<g transform="translate(1337.9 743.06) rotate(-64.696) scale(.08 -.08)">
<use xlink:href="#o"/>
</g>
</g>
<path d="m1377.6 739.99 2.3877 5.0503q1.0258 2.1697 3.1955 1.1439l6.9996-3.3093q2.1697-1.0258 1.1439-3.1955l-2.3877-5.0503q-1.0258-2.1697-3.1955-1.1439l-6.9996 3.3093q-2.1697 1.0258-1.1439 3.1955z" clip-path="url(#a)" fill="#fff" stroke="#fff"/>
<g clip-path="url(#a)">
<g transform="translate(1381.2 738.25) rotate(64.696) scale(.08 -.08)">
<use xlink:href="#r"/>
</g>
</g>
<path d="m1354.5 736.91v5.855q0 2.4 2.4 2.4h7.7425q2.4 0 2.4-2.4v-5.855q0-2.4-2.4-2.4h-7.7425q-2.4 0-2.4 2.4z" clip-path="url(#a)" fill="#fff" stroke="#fff"/>
<g clip-path="url(#a)">
<g transform="translate(1358.5 736.91) rotate(90) scale(.08 -.08)">
<use xlink:href="#aj"/>
</g>
</g>
<path d="m1449.3 822.46v35.285q0 2.4 2.4 2.4h7.7425q2.4 0 2.4-2.4v-35.285q0-2.4-2.4-2.4h-7.7425q-2.4 0-2.4 2.4z" clip-path="url(#a)" fill="#fff" stroke="#fff"/>
<g clip-path="url(#a)">
<g transform="translate(1453.3 822.46) rotate(90) scale(.08 -.08)">
<use xlink:href="#l"/>
<use x="60.818359" xlink:href="#d"/>
<use x="122.341797" xlink:href="#f"/>
<use x="163.439453" xlink:href="#k"/>
<use x="260.851562" xlink:href="#i"/>
<use x="288.634766" xlink:href="#h"/>
<use x="352.013672" xlink:href="#g"/>
<use x="413.292969" xlink:href="#j"/>
</g>
</g>
<path d="m1553 746.16 3.8192-4.039q1.6489-1.7439-0.094935-3.3928l-5.6258-5.3195q-1.7439-1.6489-3.3928 0.094935l-3.8192 4.039q-1.6489 1.7439 0.094935 3.3928l5.6258 5.3195q1.7439 1.6489 3.3928-0.094935z" clip-path="url(#a)" fill="#fff" stroke="#fff"/>
<g clip-path="url(#a)">
<g transform="translate(1550 743.37) rotate(-46.603) scale(.08 -.08)">
<use xlink:href="#ac"/>
</g>
</g>
<path d="m1578.6 744.8 2.1606-4.57q1.0258-2.1697-1.1439-3.1955l-6.9996-3.3093q-2.1697-1.0258-3.1955 1.1439l-2.1606 4.57q-1.0258 2.1697 1.1439 3.1955l6.9996 3.3093q2.1697 1.0258 3.1955-1.1439z" clip-path="url(#a)" fill="#fff" stroke="#fff"/>
<g clip-path="url(#a)">
<g transform="translate(1575 743.06) rotate(-64.696) scale(.08 -.08)">
<use xlink:href="#o"/>
</g>
</g>
<path d="m1591.5 737.31v5.055q0 2.4 2.4 2.4h7.7425q2.4 0 2.4-2.4v-5.055q0-2.4-2.4-2.4h-7.7425q-2.4 0-2.4 2.4z" clip-path="url(#a)" fill="#fff" stroke="#fff"/>
<g clip-path="url(#a)">
<g transform="translate(1595.5 737.31) rotate(90) scale(.08 -.08)">
<use xlink:href="#o"/>
</g>
</g>
<path d="m1614.6 739.99 2.3877 5.0503q1.0258 2.1697 3.1955 1.1439l6.9996-3.3093q2.1697-1.0258 1.1439-3.1955l-2.3877-5.0503q-1.0258-2.1697-3.1955-1.1439l-6.9996 3.3093q-2.1697 1.0258-1.1439 3.1955z" clip-path="url(#a)" fill="#fff" stroke="#fff"/>
<g clip-path="url(#a)">
<g transform="translate(1618.3 738.25) rotate(64.696) scale(.08 -.08)">
<use xlink:href="#r"/>
</g>
</g>
<path d="m1638.6 742.02 4.0227 4.2543q1.6489 1.7439 3.3928 0.094935l5.6258-5.3195q1.7439-1.6489 0.094935-3.3928l-4.0227-4.2543q-1.6489-1.7439-3.3928-0.094935l-5.6258 5.3195q-1.7439 1.6489-0.094935 3.3928z" clip-path="url(#a)" fill="#fff" stroke="#fff"/>
<g clip-path="url(#a)">
<g transform="translate(1641.5 739.22) rotate(46.603) scale(.08 -.08)">
<use xlink:href="#aj"/>
</g>
</g>
<path d="m1496.7 822.46v35.285q0 2.4 2.4 2.4h7.7425q2.4 0 2.4-2.4v-35.285q0-2.4-2.4-2.4h-7.7425q-2.4 0-2.4 2.4z" clip-path="url(#a)" fill="#fff" stroke="#fff"/>
<g clip-path="url(#a)">
<g transform="translate(1500.7 822.46) rotate(90) scale(.08 -.08)">
<use xlink:href="#l"/>
<use x="60.818359" xlink:href="#d"/>
<use x="122.341797" xlink:href="#f"/>
<use x="163.439453" xlink:href="#k"/>
<use x="260.851562" xlink:href="#i"/>
<use x="288.634766" xlink:href="#h"/>
<use x="352.013672" xlink:href="#g"/>
<use x="413.292969" xlink:href="#j"/>
</g>
</g>
<path d="m1544.1 822.46v35.285q0 2.4 2.4 2.4h7.7425q2.4 0 2.4-2.4v-35.285q0-2.4-2.4-2.4h-7.7425q-2.4 0-2.4 2.4z" clip-path="url(#a)" fill="#fff" stroke="#fff"/>
<g clip-path="url(#a)">
<g transform="translate(1548.1 822.46) rotate(90) scale(.08 -.08)">
<use xlink:href="#l"/>
<use x="60.818359" xlink:href="#d"/>
<use x="122.341797" xlink:href="#f"/>
<use x="163.439453" xlink:href="#k"/>
<use x="260.851562" xlink:href="#i"/>
<use x="288.634766" xlink:href="#h"/>
<use x="352.013672" xlink:href="#g"/>
<use x="413.292969" xlink:href="#j"/>
</g>
</g>
<path d="m1591.5 822.46v35.285q0 2.4 2.4 2.4h7.7425q2.4 0 2.4-2.4v-35.285q0-2.4-2.4-2.4h-7.7425q-2.4 0-2.4 2.4z" clip-path="url(#a)" fill="#fff" stroke="#fff"/>
<g clip-path="url(#a)">
<g transform="translate(1595.5 822.46) rotate(90) scale(.08 -.08)">
<use xlink:href="#l"/>
<use x="60.818359" xlink:href="#d"/>
<use x="122.341797" xlink:href="#f"/>
<use x="163.439453" xlink:href="#k"/>
<use x="260.851562" xlink:href="#i"/>
<use x="288.634766" xlink:href="#h"/>
<use x="352.013672" xlink:href="#g"/>
<use x="413.292969" xlink:href="#j"/>
</g>
</g>
<path d="m1638.9 822.46v35.285q0 2.4 2.4 2.4h7.7425q2.4 0 2.4-2.4v-35.285q0-2.4-2.4-2.4h-7.7425q-2.4 0-2.4 2.4z" clip-path="url(#a)" fill="#fff" stroke="#fff"/>
<g clip-path="url(#a)">
<g transform="translate(1642.9 822.46) rotate(90) scale(.08 -.08)">
<use xlink:href="#l"/>
<use x="60.818359" xlink:href="#d"/>
<use x="122.341797" xlink:href="#f"/>
<use x="163.439453" xlink:href="#k"/>
<use x="260.851562" xlink:href="#i"/>
<use x="288.634766" xlink:href="#h"/>
<use x="352.013672" xlink:href="#g"/>
<use x="413.292969" xlink:href="#j"/>
</g>
</g>
<path d="m1307 822.46v35.285q0 2.4 2.4 2.4h7.7425q2.4 0 2.4-2.4v-35.285q0-2.4-2.4-2.4h-7.7425q-2.4 0-2.4 2.4z" clip-path="url(#a)" fill="#fff" stroke="#fff"/>
<g clip-path="url(#a)">
<g transform="translate(1311.1 822.46) rotate(90) scale(.08 -.08)">
<use xlink:href="#l"/>
<use x="60.818359" xlink:href="#d"/>
<use x="122.341797" xlink:href="#f"/>
<use x="163.439453" xlink:href="#k"/>
<use x="260.851562" xlink:href="#i"/>
<use x="288.634766" xlink:href="#h"/>
<use x="352.013672" xlink:href="#g"/>
<use x="413.292969" xlink:href="#j"/>
</g>
</g>
<path d="m1401.9 822.46v35.285q0 2.4 2.4 2.4h7.7425q2.4 0 2.4-2.4v-35.285q0-2.4-2.4-2.4h-7.7425q-2.4 0-2.4 2.4z" clip-path="url(#a)" fill="#fff" stroke="#fff"/>
<g clip-path="url(#a)">
<g transform="translate(1405.9 822.46) rotate(90) scale(.08 -.08)">
<use xlink:href="#l"/>
<use x="60.818359" xlink:href="#d"/>
<use x="122.341797" xlink:href="#f"/>
<use x="163.439453" xlink:href="#k"/>
<use x="260.851562" xlink:href="#i"/>
<use x="288.634766" xlink:href="#h"/>
<use x="352.013672" xlink:href="#g"/>
<use x="413.292969" xlink:href="#j"/>
</g>
</g>
<path d="m998.85 743.74 1.1629-4.9194q0.55212-2.3356-1.7835-2.8877l-7.5348-1.7812q-2.3356-0.55212-2.8877 1.7835l-1.1629 4.9194q-0.55212 2.3356 1.7835 2.8877l7.5348 1.7812q2.3356 0.55212 2.8877-1.7835z" clip-path="url(#a)" fill="#fff" stroke="#fff"/>
<g clip-path="url(#a)">
<g transform="translate(994.9 742.8) rotate(-76.7) scale(.08 -.08)">
<use xlink:href="#o"/>
</g>
</g>
<path d="m1010.3 738.56 1.2851 5.4364q0.55212 2.3356 2.8877 1.7835l7.5348-1.7812q2.3356-0.55212 1.7835-2.8877l-1.2851-5.4364q-0.55212-2.3356-2.8877-1.7835l-7.5348 1.7812q-2.3356 0.55212-1.7835 2.8877z" clip-path="url(#a)" fill="#fff" stroke="#fff"/>
<g clip-path="url(#a)">
<g transform="translate(1014.2 737.62) rotate(76.7) scale(.08 -.08)">
<use xlink:href="#r"/>
</g>
</g>
<path d="m1070 822.46v35.285q0 2.4 2.4 2.4h7.7425q2.4 0 2.4-2.4v-35.285q0-2.4-2.4-2.4h-7.7425q-2.4 0-2.4 2.4z" clip-path="url(#a)" fill="#fff" stroke="#fff"/>
<g clip-path="url(#a)">
<g transform="translate(1074.1 822.46) rotate(90) scale(.08 -.08)">
<use xlink:href="#l"/>
<use x="60.818359" xlink:href="#d"/>
<use x="122.341797" xlink:href="#f"/>
<use x="163.439453" xlink:href="#k"/>
<use x="260.851562" xlink:href="#i"/>
<use x="288.634766" xlink:href="#h"/>
<use x="352.013672" xlink:href="#g"/>
<use x="413.292969" xlink:href="#j"/>
</g>
</g>
<path d="m975.21 822.46v35.285q0 2.4 2.4 2.4h7.7425q2.4 0 2.4-2.4v-35.285q0-2.4-2.4-2.4h-7.7425q-2.4 0-2.4 2.4z" clip-path="url(#a)" fill="#fff" stroke="#fff"/>
<g clip-path="url(#a)">
<g transform="translate(979.27 822.46) rotate(90) scale(.08 -.08)">
<use xlink:href="#l"/>
<use x="60.818359" xlink:href="#d"/>
<use x="122.341797" xlink:href="#f"/>
<use x="163.439453" xlink:href="#k"/>
<use x="260.851562" xlink:href="#i"/>
<use x="288.634766" xlink:href="#h"/>
<use x="352.013672" xlink:href="#g"/>
<use x="413.292969" xlink:href="#j"/>
</g>
</g>
<path d="m1022.6 822.46v35.285q0 2.4 2.4 2.4h7.7425q2.4 0 2.4-2.4v-35.285q0-2.4-2.4-2.4h-7.7425q-2.4 0-2.4 2.4z" clip-path="url(#a)" fill="#fff" stroke="#fff"/>
<g clip-path="url(#a)">
<g transform="translate(1026.7 822.46) rotate(90) scale(.08 -.08)">
<use xlink:href="#l"/>
<use x="60.818359" xlink:href="#d"/>
<use x="122.341797" xlink:href="#f"/>
<use x="163.439453" xlink:href="#k"/>
<use x="260.851562" xlink:href="#i"/>
<use x="288.634766" xlink:href="#h"/>
<use x="352.013672" xlink:href="#g"/>
<use x="413.292969" xlink:href="#j"/>
</g>
</g>
<path d="m690.77 822.46v35.285q0 2.4 2.4 2.4h7.7425q2.4 0 2.4-2.4v-35.285q0-2.4-2.4-2.4h-7.7425q-2.4 0-2.4 2.4z" clip-path="url(#a)" fill="#fff" stroke="#fff"/>
<g clip-path="url(#a)">
<g transform="translate(694.84 822.46) rotate(90) scale(.08 -.08)">
<use xlink:href="#l"/>
<use x="60.818359" xlink:href="#d"/>
<use x="122.341797" xlink:href="#f"/>
<use x="163.439453" xlink:href="#k"/>
<use x="260.851562" xlink:href="#i"/>
<use x="288.634766" xlink:href="#h"/>
<use x="352.013672" xlink:href="#g"/>
<use x="413.292969" xlink:href="#j"/>
</g>
</g>
<path d="m738.18 822.46v35.285q0 2.4 2.4 2.4h7.7425q2.4 0 2.4-2.4v-35.285q0-2.4-2.4-2.4h-7.7425q-2.4 0-2.4 2.4z" clip-path="url(#a)" fill="#fff" stroke="#fff"/>
<g clip-path="url(#a)">
<g transform="translate(742.24 822.46) rotate(90) scale(.08 -.08)">
<use xlink:href="#l"/>
<use x="60.818359" xlink:href="#d"/>
<use x="122.341797" xlink:href="#f"/>
<use x="163.439453" xlink:href="#k"/>
<use x="260.851562" xlink:href="#i"/>
<use x="288.634766" xlink:href="#h"/>
<use x="352.013672" xlink:href="#g"/>
<use x="413.292969" xlink:href="#j"/>
</g>
</g>
<path d="m785.58 822.46v35.285q0 2.4 2.4 2.4h7.7425q2.4 0 2.4-2.4v-35.285q0-2.4-2.4-2.4h-7.7425q-2.4 0-2.4 2.4z" clip-path="url(#a)" fill="#fff" stroke="#fff"/>
<g clip-path="url(#a)">
<g transform="translate(789.65 822.46) rotate(90) scale(.08 -.08)">
<use xlink:href="#l"/>
<use x="60.818359" xlink:href="#d"/>
<use x="122.341797" xlink:href="#f"/>
<use x="163.439453" xlink:href="#k"/>
<use x="260.851562" xlink:href="#i"/>
<use x="288.634766" xlink:href="#h"/>
<use x="352.013672" xlink:href="#g"/>
<use x="413.292969" xlink:href="#j"/>
</g>
</g>
<path d="m74.501 822.46v35.285q0 2.4 2.4 2.4h7.7425q2.4 0 2.4-2.4v-35.285q0-2.4-2.4-2.4h-7.7425q-2.4 0-2.4 2.4z" clip-path="url(#a)" fill="#fff" stroke="#fff"/>
<g clip-path="url(#a)">
<g transform="translate(78.565 822.46) rotate(90) scale(.08 -.08)">
<use xlink:href="#l"/>
<use x="60.818359" xlink:href="#d"/>
<use x="122.341797" xlink:href="#f"/>
<use x="163.439453" xlink:href="#k"/>
<use x="260.851562" xlink:href="#i"/>
<use x="288.634766" xlink:href="#h"/>
<use x="352.013672" xlink:href="#g"/>
<use x="413.292969" xlink:href="#j"/>
</g>
</g>
<path d="m121.91 822.46v35.285q0 2.4 2.4 2.4h7.7425q2.4 0 2.4-2.4v-35.285q0-2.4-2.4-2.4h-7.7425q-2.4 0-2.4 2.4z" clip-path="url(#a)" fill="#fff" stroke="#fff"/>
<g clip-path="url(#a)">
<g transform="translate(125.97 822.46) rotate(90) scale(.08 -.08)">
<use xlink:href="#l"/>
<use x="60.818359" xlink:href="#d"/>
<use x="122.341797" xlink:href="#f"/>
<use x="163.439453" xlink:href="#k"/>
<use x="260.851562" xlink:href="#i"/>
<use x="288.634766" xlink:href="#h"/>
<use x="352.013672" xlink:href="#g"/>
<use x="413.292969" xlink:href="#j"/>
</g>
</g>
<path d="m235.45 641.69 1.7071-4.758q0.81047-2.259-1.4485-3.0695l-7.2877-2.6146q-2.259-0.81047-3.0695 1.4485l-1.7071 4.758q-0.81047 2.259 1.4485 3.0695l7.2877 2.6146q2.259 0.81047 3.0695-1.4485z" clip-path="url(#a)" fill="#fff" stroke="#fff"/>
<g clip-path="url(#a)">
<g transform="translate(231.62 640.32) rotate(-70.263) scale(.08 -.08)">
<use xlink:href="#o"/>
</g>
</g>
<path d="m259.74 640.92 1.0086-4.9534q0.47888-2.3517-1.8729-2.8306l-7.5868-1.5449q-2.3517-0.47888-2.8306 1.8729l-1.0086 4.9533q-0.47888 2.3517 1.8729 2.8306l7.5868 1.5449q2.3517 0.47888 2.8306-1.8729z" clip-path="url(#a)" fill="#fff" stroke="#fff"/>
<g clip-path="url(#a)">
<g transform="translate(255.76 640.11) rotate(-78.49) scale(.08 -.08)">
<use xlink:href="#o"/>
</g>
</g>
<path d="m300.67 536.37 1.9925 4.6457q0.946 2.2057 3.1517 1.2597l7.1157-3.0518q2.2057-0.946 1.2597-3.1517l-1.9925-4.6457q-0.946-2.2057-3.1517-1.2597l-7.1157 3.0518q-2.2057 0.946-1.2597 3.1517z" clip-path="url(#a)" fill="#fff" stroke="#fff"/>
<g clip-path="url(#a)">
<g transform="translate(304.41 534.77) rotate(66.786) scale(.08 -.08)">
<use xlink:href="#o"/>
</g>
</g>
<path d="m342.05 637.03 2.1498 5.156q0.92362 2.2152 3.1388 1.2915l7.1462-2.9796q2.2152-0.92362 1.2915-3.1388l-2.1498-5.156q-0.92362-2.2152-3.1388-1.2915l-7.1462 2.9796q-2.2152 0.92362-1.2915 3.1388z" clip-path="url(#a)" fill="#fff" stroke="#fff"/>
<g clip-path="url(#a)">
<g transform="translate(345.8 635.46) rotate(67.366) scale(.08 -.08)">
<use xlink:href="#r"/>
</g>
</g>
<path d="m488.2 745.03 2.3759-5.0254q1.0258-2.1697-1.1439-3.1955l-6.9996-3.3093q-2.1697-1.0258-3.1955 1.1439l-2.3759 5.0254q-1.0258 2.1697 1.1439 3.1955l6.9996 3.3093q2.1697 1.0258 3.1955-1.1439z" clip-path="url(#a)" fill="#fff" stroke="#fff"/>
<g clip-path="url(#a)">
<g transform="translate(484.53 743.29) rotate(-64.696) scale(.08 -.08)">
<use xlink:href="#ac"/>
</g>
</g>
<path d="m501.15 737.31v5.055q0 2.4 2.4 2.4h7.7425q2.4 0 2.4-2.4v-5.055q0-2.4-2.4-2.4h-7.7425q-2.4 0-2.4 2.4z" clip-path="url(#a)" fill="#fff" stroke="#fff"/>
<g clip-path="url(#a)">
<g transform="translate(505.21 737.31) rotate(90) scale(.08 -.08)">
<use xlink:href="#o"/>
</g>
</g>
<path d="m524.26 739.99 2.3877 5.0503q1.0258 2.1697 3.1955 1.1439l6.9996-3.3093q2.1697-1.0258 1.1439-3.1955l-2.3877-5.0503q-1.0258-2.1697-3.1955-1.1439l-6.9996 3.3093q-2.1697 1.0258-1.1439 3.1955z" clip-path="url(#a)" fill="#fff" stroke="#fff"/>
<g clip-path="url(#a)">
<g transform="translate(527.94 738.25) rotate(64.696) scale(.08 -.08)">
<use xlink:href="#r"/>
</g>
</g>
<path d="m453.75 822.46v35.285q0 2.4 2.4 2.4h7.7425q2.4 0 2.4-2.4v-35.285q0-2.4-2.4-2.4h-7.7425q-2.4 0-2.4 2.4z" clip-path="url(#a)" fill="#fff" stroke="#fff"/>
<g clip-path="url(#a)">
<g transform="translate(457.81 822.46) rotate(90) scale(.08 -.08)">
<use xlink:href="#l"/>
<use x="60.818359" xlink:href="#d"/>
<use x="122.341797" xlink:href="#f"/>
<use x="163.439453" xlink:href="#k"/>
<use x="260.851562" xlink:href="#i"/>
<use x="288.634766" xlink:href="#h"/>
<use x="352.013672" xlink:href="#g"/>
<use x="413.292969" xlink:href="#j"/>
</g>
</g>
<path d="m501.15 822.46v35.285q0 2.4 2.4 2.4h7.7425q2.4 0 2.4-2.4v-35.285q0-2.4-2.4-2.4h-7.7425q-2.4 0-2.4 2.4z" clip-path="url(#a)" fill="#fff" stroke="#fff"/>
<g clip-path="url(#a)">
<g transform="translate(505.21 822.46) rotate(90) scale(.08 -.08)">
<use xlink:href="#l"/>
<use x="60.818359" xlink:href="#d"/>
<use x="122.341797" xlink:href="#f"/>
<use x="163.439453" xlink:href="#k"/>
<use x="260.851562" xlink:href="#i"/>
<use x="288.634766" xlink:href="#h"/>
<use x="352.013672" xlink:href="#g"/>
<use x="413.292969" xlink:href="#j"/>
</g>
</g>
<path d="m548.56 822.46v35.285q0 2.4 2.4 2.4h7.7425q2.4 0 2.4-2.4v-35.285q0-2.4-2.4-2.4h-7.7425q-2.4 0-2.4 2.4z" clip-path="url(#a)" fill="#fff" stroke="#fff"/>
<g clip-path="url(#a)">
<g transform="translate(552.62 822.46) rotate(90) scale(.08 -.08)">
<use xlink:href="#l"/>
<use x="60.818359" xlink:href="#d"/>
<use x="122.341797" xlink:href="#f"/>
<use x="163.439453" xlink:href="#k"/>
<use x="260.851562" xlink:href="#i"/>
<use x="288.634766" xlink:href="#h"/>
<use x="352.013672" xlink:href="#g"/>
<use x="413.292969" xlink:href="#j"/>
</g>
</g>
<path d="m169.31 822.46v35.285q0 2.4 2.4 2.4h7.7425q2.4 0 2.4-2.4v-35.285q0-2.4-2.4-2.4h-7.7425q-2.4 0-2.4 2.4z" clip-path="url(#a)" fill="#fff" stroke="#fff"/>
<g clip-path="url(#a)">
<g transform="translate(173.38 822.46) rotate(90) scale(.08 -.08)">
<use xlink:href="#l"/>
<use x="60.818359" xlink:href="#d"/>
<use x="122.341797" xlink:href="#f"/>
<use x="163.439453" xlink:href="#k"/>
<use x="260.851562" xlink:href="#i"/>
<use x="288.634766" xlink:href="#h"/>
<use x="352.013672" xlink:href="#g"/>
<use x="413.292969" xlink:href="#j"/>
</g>
</g>
<path d="m216.72 822.46v35.285q0 2.4 2.4 2.4h7.7425q2.4 0 2.4-2.4v-35.285q0-2.4-2.4-2.4h-7.7425q-2.4 0-2.4 2.4z" clip-path="url(#a)" fill="#fff" stroke="#fff"/>
<g clip-path="url(#a)">
<g transform="translate(220.78 822.46) rotate(90) scale(.08 -.08)">
<use xlink:href="#l"/>
<use x="60.818359" xlink:href="#d"/>
<use x="122.341797" xlink:href="#f"/>
<use x="163.439453" xlink:href="#k"/>
<use x="260.851562" xlink:href="#i"/>
<use x="288.634766" xlink:href="#h"/>
<use x="352.013672" xlink:href="#g"/>
<use x="413.292969" xlink:href="#j"/>
</g>
</g>
<path d="m316.96 643.32 1.6687-4.7716q0.79228-2.2655-1.4732-3.0577l-7.3085-2.5559q-2.2655-0.79228-3.0577 1.4732l-1.6687 4.7716q-0.79228 2.2655 1.4732 3.0577l7.3085 2.5559q2.2655 0.79228 3.0577-1.4732z" clip-path="url(#a)" fill="#fff" stroke="#fff"/>
<g clip-path="url(#a)">
<g transform="translate(313.12 641.98) rotate(-70.724) scale(.08 -.08)">
<use xlink:href="#o"/>
</g>
</g>
<path d="m340.77 687.34 0.96866 5.5016q0.41616 2.3636 2.7798 1.9475l7.6252-1.3426q2.3636-0.41616 1.9475-2.7798l-0.96866-5.5016q-0.41616-2.3636-2.7798-1.9475l-7.6252 1.3426q-2.3636 0.41616-1.9475 2.7798z" clip-path="url(#a)" fill="#fff" stroke="#fff"/>
<g clip-path="url(#a)">
<g transform="translate(344.77 686.63) rotate(80.014) scale(.08 -.08)">
<use xlink:href="#r"/>
</g>
</g>
<path d="m406.34 822.46v35.285q0 2.4 2.4 2.4h7.7425q2.4 0 2.4-2.4v-35.285q0-2.4-2.4-2.4h-7.7425q-2.4 0-2.4 2.4z" clip-path="url(#a)" fill="#fff" stroke="#fff"/>
<g clip-path="url(#a)">
<g transform="translate(410.4 822.46) rotate(90) scale(.08 -.08)">
<use xlink:href="#l"/>
<use x="60.818359" xlink:href="#d"/>
<use x="122.341797" xlink:href="#f"/>
<use x="163.439453" xlink:href="#k"/>
<use x="260.851562" xlink:href="#i"/>
<use x="288.634766" xlink:href="#h"/>
<use x="352.013672" xlink:href="#g"/>
<use x="413.292969" xlink:href="#j"/>
</g>
</g>
<path d="m287.77 743.74 1.1629-4.9194q0.55212-2.3356-1.7835-2.8877l-7.5348-1.7812q-2.3356-0.55212-2.8877 1.7835l-1.1629 4.9194q-0.55212 2.3356 1.7835 2.8877l7.5348 1.7812q2.3356 0.55212 2.8877-1.7835z" clip-path="url(#a)" fill="#fff" stroke="#fff"/>
<g clip-path="url(#a)">
<g transform="translate(283.81 742.8) rotate(-76.7) scale(.08 -.08)">
<use xlink:href="#o"/>
</g>
</g>
<path d="m299.2 738.56 1.2851 5.4364q0.55212 2.3356 2.8877 1.7835l7.5348-1.7812q2.3356-0.55212 1.7835-2.8877l-1.2851-5.4364q-0.55212-2.3356-2.8877-1.7835l-7.5348 1.7812q-2.3356 0.55212-1.7835 2.8877z" clip-path="url(#a)" fill="#fff" stroke="#fff"/>
<g clip-path="url(#a)">
<g transform="translate(303.16 737.62) rotate(76.7) scale(.08 -.08)">
<use xlink:href="#r"/>
</g>
</g>
<path d="m358.93 822.46v35.285q0 2.4 2.4 2.4h7.7425q2.4 0 2.4-2.4v-35.285q0-2.4-2.4-2.4h-7.7425q-2.4 0-2.4 2.4z" clip-path="url(#a)" fill="#fff" stroke="#fff"/>
<g clip-path="url(#a)">
<g transform="translate(363 822.46) rotate(90) scale(.08 -.08)">
<use xlink:href="#l"/>
<use x="60.818359" xlink:href="#d"/>
<use x="122.341797" xlink:href="#f"/>
<use x="163.439453" xlink:href="#k"/>
<use x="260.851562" xlink:href="#i"/>
<use x="288.634766" xlink:href="#h"/>
<use x="352.013672" xlink:href="#g"/>
<use x="413.292969" xlink:href="#j"/>
</g>
</g>
<path d="m264.12 822.46v35.285q0 2.4 2.4 2.4h7.7425q2.4 0 2.4-2.4v-35.285q0-2.4-2.4-2.4h-7.7425q-2.4 0-2.4 2.4z" clip-path="url(#a)" fill="#fff" stroke="#fff"/>
<g clip-path="url(#a)">
<g transform="translate(268.19 822.46) rotate(90) scale(.08 -.08)">
<use xlink:href="#l"/>
<use x="60.818359" xlink:href="#d"/>
<use x="122.341797" xlink:href="#f"/>
<use x="163.439453" xlink:href="#k"/>
<use x="260.851562" xlink:href="#i"/>
<use x="288.634766" xlink:href="#h"/>
<use x="352.013672" xlink:href="#g"/>
<use x="413.292969" xlink:href="#j"/>
</g>
</g>
<path d="m311.53 822.46v35.285q0 2.4 2.4 2.4h7.7425q2.4 0 2.4-2.4v-35.285q0-2.4-2.4-2.4h-7.7425q-2.4 0-2.4 2.4z" clip-path="url(#a)" fill="#fff" stroke="#fff"/>
<g clip-path="url(#a)">
<g transform="translate(315.59 822.46) rotate(90) scale(.08 -.08)">
<use xlink:href="#l"/>
<use x="60.818359" xlink:href="#d"/>
<use x="122.341797" xlink:href="#f"/>
<use x="163.439453" xlink:href="#k"/>
<use x="260.851562" xlink:href="#i"/>
<use x="288.634766" xlink:href="#h"/>
<use x="352.013672" xlink:href="#g"/>
<use x="413.292969" xlink:href="#j"/>
</g>
</g>
<path d="m392.84 218.6 6.3884-7.6054q1.5436-1.8377-0.29407-3.3814l-5.9285-4.9799q-1.8377-1.5436-3.3814 0.29407l-6.3884 7.6054q-1.5436 1.8377 0.29407 3.3813l5.9285 4.9799q1.8377 1.5436 3.3814-0.29407z" clip-path="url(#a)" fill="#fff" stroke="#fff"/>
<g clip-path="url(#a)">
<g transform="translate(389.73 215.98) rotate(-49.97) scale(.08 -.08)">
<use xlink:href="#ae"/>
<use x="55.744141" xlink:href="#s"/>
</g>
</g>
<path d="m583.88 412.56 1.5575 9.8944q0.37319 2.3708 2.744 1.9976l7.6483-1.2039q2.3708-0.37319 1.9976-2.744l-1.5575-9.8944q-0.37319-2.3708-2.744-1.9976l-7.6483 1.2039q-2.3708 0.37319-1.9976 2.744z" clip-path="url(#a)" fill="#fff" stroke="#fff"/>
<g clip-path="url(#a)">
<g transform="translate(587.9 411.93) rotate(81.054) scale(.08 -.08)">
<use xlink:href="#ae"/>
<use x="55.712891" xlink:href="#ac"/>
</g>
</g>
<path d="m606.46 102.87 8.1348 5.6991q1.9656 1.3771 3.3427-0.58854l4.4425-6.3412q1.3771-1.9656-0.58854-3.3427l-8.1348-5.6991q-1.9656-1.3771-3.3427 0.58854l-4.4425 6.3412q-1.3771 1.9656 0.58854 3.3427z" clip-path="url(#a)" fill="#fff" stroke="#fff"/>
<g clip-path="url(#a)">
<g transform="translate(608.79 99.539) rotate(35.015) scale(.08 -.08)">
<use xlink:href="#ae"/>
<use x="55.744141" xlink:href="#s"/>
</g>
</g>
<path d="m595.96 822.46v35.285q0 2.4 2.4 2.4h7.7425q2.4 0 2.4-2.4v-35.285q0-2.4-2.4-2.4h-7.7425q-2.4 0-2.4 2.4z" clip-path="url(#a)" fill="#fff" stroke="#fff"/>
<g clip-path="url(#a)">
<g transform="translate(600.03 822.46) rotate(90) scale(.08 -.08)">
<use xlink:href="#l"/>
<use x="60.818359" xlink:href="#d"/>
<use x="122.341797" xlink:href="#f"/>
<use x="163.439453" xlink:href="#k"/>
<use x="260.851562" xlink:href="#i"/>
<use x="288.634766" xlink:href="#h"/>
<use x="352.013672" xlink:href="#g"/>
<use x="413.292969" xlink:href="#j"/>
</g>
</g>
<path d="m1354.5 822.46v35.285q0 2.4 2.4 2.4h7.7425q2.4 0 2.4-2.4v-35.285q0-2.4-2.4-2.4h-7.7425q-2.4 0-2.4 2.4z" clip-path="url(#a)" fill="#fff" stroke="#fff"/>
<g clip-path="url(#a)">
<g transform="translate(1358.5 822.46) rotate(90) scale(.08 -.08)">
<use xlink:href="#l"/>
<use x="60.818359" xlink:href="#d"/>
<use x="122.341797" xlink:href="#f"/>
<use x="163.439453" xlink:href="#k"/>
<use x="260.851562" xlink:href="#i"/>
<use x="288.634766" xlink:href="#h"/>
<use x="352.013672" xlink:href="#g"/>
<use x="413.292969" xlink:href="#j"/>
</g>
</g>
<path d="m1686.3 822.46v35.285q0 2.4 2.4 2.4h7.7425q2.4 0 2.4-2.4v-35.285q0-2.4-2.4-2.4h-7.7425q-2.4 0-2.4 2.4z" clip-path="url(#a)" fill="#fff" stroke="#fff"/>
<g clip-path="url(#a)">
<g transform="translate(1690.4 822.46) rotate(90) scale(.08 -.08)">
<use xlink:href="#l"/>
<use x="60.818359" xlink:href="#d"/>
<use x="122.341797" xlink:href="#f"/>
<use x="163.439453" xlink:href="#k"/>
<use x="260.851562" xlink:href="#i"/>
<use x="288.634766" xlink:href="#h"/>
<use x="352.013672" xlink:href="#g"/>
<use x="413.292969" xlink:href="#j"/>
</g>
</g>
<defs>
<path id="b" d="m0 8.6603c2.2967 0 4.4997-0.9125 6.1237-2.5365 1.624-1.624 2.5365-3.827 2.5365-6.1237s-0.9125-4.4997-2.5365-6.1237c-1.624-1.624-3.827-2.5365-6.1237-2.5365s-4.4997 0.9125-6.1237 2.5365c-1.624 1.624-2.5365 3.827-2.5365 6.1237s0.9125 4.4997 2.5365 6.1237c1.624 1.624 3.827 2.5365 6.1237 2.5365z"/>
</defs>
<g clip-path="url(#a)">
<use x="80.772748" y="890.239212" fill="#ffffff" stroke="#ffffff" xlink:href="#b"/>
</g>
<g clip-path="url(#a)">
<use x="128.178272" y="890.239212" fill="#ffffff" stroke="#ffffff" xlink:href="#b"/>
</g>
<g clip-path="url(#a)">
<use x="175.583797" y="890.239212" fill="#ffffff" stroke="#ffffff" xlink:href="#b"/>
</g>
<g clip-path="url(#a)">
<use x="222.989322" y="890.239212" fill="#ffffff" stroke="#ffffff" xlink:href="#b"/>
</g>
<g clip-path="url(#a)">
<use x="270.394846" y="890.239212" fill="#ffffff" stroke="#ffffff" xlink:href="#b"/>
</g>
<g clip-path="url(#a)">
<use x="317.800371" y="890.239212" fill="#ffffff" stroke="#ffffff" xlink:href="#b"/>
</g>
<g clip-path="url(#a)">
<use x="365.205896" y="890.239212" fill="#ffffff" stroke="#ffffff" xlink:href="#b"/>
</g>
<g clip-path="url(#a)">
<use x="412.61142" y="890.239212" fill="#ffffff" stroke="#ffffff" xlink:href="#b"/>
</g>
<g clip-path="url(#a)">
<use x="460.016945" y="890.239212" fill="#ffffff" stroke="#ffffff" xlink:href="#b"/>
</g>
<g clip-path="url(#a)">
<use x="507.422469" y="890.239212" fill="#ffffff" stroke="#ffffff" xlink:href="#b"/>
</g>
<g clip-path="url(#a)">
<use x="554.827994" y="890.239212" fill="#ffffff" stroke="#ffffff" xlink:href="#b"/>
</g>
<g clip-path="url(#a)">
<use x="602.233519" y="890.239212" fill="#ffffff" stroke="#ffffff" xlink:href="#b"/>
</g>
<g clip-path="url(#a)">
<use x="649.639043" y="890.239212" fill="#ffffff" stroke="#ffffff" xlink:href="#b"/>
</g>
<g clip-path="url(#a)">
<use x="697.044568" y="890.239212" fill="#ffffff" stroke="#ffffff" xlink:href="#b"/>
</g>
<g clip-path="url(#a)">
<use x="744.450093" y="890.239212" fill="#ffffff" stroke="#ffffff" xlink:href="#b"/>
</g>
<g clip-path="url(#a)">
<use x="791.855617" y="890.239212" fill="#ffffff" stroke="#ffffff" xlink:href="#b"/>
</g>
<g clip-path="url(#a)">
<use x="839.261142" y="890.239212" fill="#ffffff" stroke="#ffffff" xlink:href="#b"/>
</g>
<g clip-path="url(#a)">
<use x="886.666667" y="890.239212" fill="#ffffff" stroke="#ffffff" xlink:href="#b"/>
</g>
<g clip-path="url(#a)">
<use x="934.072191" y="890.239212" fill="#ffffff" stroke="#ffffff" xlink:href="#b"/>
</g>
<g clip-path="url(#a)">
<use x="981.477716" y="890.239212" fill="#ffffff" stroke="#ffffff" xlink:href="#b"/>
</g>
<g clip-path="url(#a)">
<use x="1028.883241" y="890.239212" fill="#ffffff" stroke="#ffffff" xlink:href="#b"/>
</g>
<g clip-path="url(#a)">
<use x="1076.288765" y="890.239212" fill="#ffffff" stroke="#ffffff" xlink:href="#b"/>
</g>
<g clip-path="url(#a)">
<use x="1123.69429" y="890.239212" fill="#ffffff" stroke="#ffffff" xlink:href="#b"/>
</g>
<g clip-path="url(#a)">
<use x="1171.099815" y="890.239212" fill="#ffffff" stroke="#ffffff" xlink:href="#b"/>
</g>
<g clip-path="url(#a)">
<use x="1218.505339" y="890.239212" fill="#ffffff" stroke="#ffffff" xlink:href="#b"/>
</g>
<g clip-path="url(#a)">
<use x="1265.910864" y="890.239212" fill="#ffffff" stroke="#ffffff" xlink:href="#b"/>
</g>
<g clip-path="url(#a)">
<use x="1313.316389" y="890.239212" fill="#ffffff" stroke="#ffffff" xlink:href="#b"/>
</g>
<g clip-path="url(#a)">
<use x="1360.721913" y="890.239212" fill="#ffffff" stroke="#ffffff" xlink:href="#b"/>
</g>
<g clip-path="url(#a)">
<use x="1408.127438" y="890.239212" fill="#ffffff" stroke="#ffffff" xlink:href="#b"/>
</g>
<g clip-path="url(#a)">
<use x="1455.532962" y="890.239212" fill="#ffffff" stroke="#ffffff" xlink:href="#b"/>
</g>
<g clip-path="url(#a)">
<use x="1502.938487" y="890.239212" fill="#ffffff" stroke="#ffffff" xlink:href="#b"/>
</g>
<g clip-path="url(#a)">
<use x="1550.344012" y="890.239212" fill="#ffffff" stroke="#ffffff" xlink:href="#b"/>
</g>
<g clip-path="url(#a)">
<use x="1597.749536" y="890.239212" fill="#ffffff" stroke="#ffffff" xlink:href="#b"/>
</g>
<g clip-path="url(#a)">
<use x="1645.155061" y="890.239212" fill="#ffffff" stroke="#ffffff" xlink:href="#b"/>
</g>
<g clip-path="url(#a)">
<use x="1692.560586" y="890.239212" fill="#ffffff" stroke="#ffffff" xlink:href="#b"/>
</g>
<g clip-path="url(#a)">
<use x="549.612152" y="43.094121" fill="#ffffff" stroke="#ffffff" xlink:href="#b"/>
</g>
<g clip-path="url(#a)">
<use x="250.39564" y="378.429911" fill="#ffffff" stroke="#ffffff" xlink:href="#b"/>
</g>
<g clip-path="url(#a)">
<use x="649.639043" y="789.969531" fill="#ffffff" stroke="#ffffff" xlink:href="#b"/>
</g>
<g clip-path="url(#a)">
<use x="696.180405" y="158.066194" fill="#ffffff" stroke="#ffffff" xlink:href="#b"/>
</g>
<g clip-path="url(#a)">
<use x="744.450093" y="689.69985" fill="#ffffff" stroke="#ffffff" xlink:href="#b"/>
</g>
<g clip-path="url(#a)">
<use x="931.479702" y="269.748915" fill="#ffffff" stroke="#ffffff" xlink:href="#b"/>
</g>
<g clip-path="url(#a)">
<use x="839.261142" y="789.969531" fill="#ffffff" stroke="#ffffff" xlink:href="#b"/>
</g>
<g clip-path="url(#a)">
<use x="1023.698261" y="378.429911" fill="#ffffff" stroke="#ffffff" xlink:href="#b"/>
</g>
<g clip-path="url(#a)">
<use x="886.666667" y="789.969531" fill="#ffffff" stroke="#ffffff" xlink:href="#b"/>
</g>
<g clip-path="url(#a)">
<use x="934.072191" y="789.969531" fill="#ffffff" stroke="#ffffff" xlink:href="#b"/>
</g>
<g clip-path="url(#a)">
<use x="1040.734622" y="588.035307" fill="#ffffff" stroke="#ffffff" xlink:href="#b"/>
</g>
<g clip-path="url(#a)">
<use x="1233.319566" y="484.413136" fill="#ffffff" stroke="#ffffff" xlink:href="#b"/>
</g>
<g clip-path="url(#a)">
<use x="1123.69429" y="789.969531" fill="#ffffff" stroke="#ffffff" xlink:href="#b"/>
</g>
<g clip-path="url(#a)">
<use x="1171.099815" y="789.969531" fill="#ffffff" stroke="#ffffff" xlink:href="#b"/>
</g>
<g clip-path="url(#a)">
<use x="1218.505339" y="789.969531" fill="#ffffff" stroke="#ffffff" xlink:href="#b"/>
</g>
<g clip-path="url(#a)">
<use x="1419.978819" y="588.035307" fill="#ffffff" stroke="#ffffff" xlink:href="#b"/>
</g>
<g clip-path="url(#a)">
<use x="1265.910864" y="789.969531" fill="#ffffff" stroke="#ffffff" xlink:href="#b"/>
</g>
<g clip-path="url(#a)">
<use x="1360.721913" y="689.69985" fill="#ffffff" stroke="#ffffff" xlink:href="#b"/>
</g>
<g clip-path="url(#a)">
<use x="1455.532962" y="789.969531" fill="#ffffff" stroke="#ffffff" xlink:href="#b"/>
</g>
<g clip-path="url(#a)">
<use x="1597.749536" y="689.69985" fill="#ffffff" stroke="#ffffff" xlink:href="#b"/>
</g>
<g clip-path="url(#a)">
<use x="1502.938487" y="789.969531" fill="#ffffff" stroke="#ffffff" xlink:href="#b"/>
</g>
<g clip-path="url(#a)">
<use x="1550.344012" y="789.969531" fill="#ffffff" stroke="#ffffff" xlink:href="#b"/>
</g>
<g clip-path="url(#a)">
<use x="1597.749536" y="789.969531" fill="#ffffff" stroke="#ffffff" xlink:href="#b"/>
</g>
<g clip-path="url(#a)">
<use x="1645.155061" y="789.969531" fill="#ffffff" stroke="#ffffff" xlink:href="#b"/>
</g>
<g clip-path="url(#a)">
<use x="1313.316389" y="789.969531" fill="#ffffff" stroke="#ffffff" xlink:href="#b"/>
</g>
<g clip-path="url(#a)">
<use x="1408.127438" y="789.969531" fill="#ffffff" stroke="#ffffff" xlink:href="#b"/>
</g>
<g clip-path="url(#a)">
<use x="1005.180478" y="689.69985" fill="#ffffff" stroke="#ffffff" xlink:href="#b"/>
</g>
<g clip-path="url(#a)">
<use x="1076.288765" y="789.969531" fill="#ffffff" stroke="#ffffff" xlink:href="#b"/>
</g>
<g clip-path="url(#a)">
<use x="981.477716" y="789.969531" fill="#ffffff" stroke="#ffffff" xlink:href="#b"/>
</g>
<g clip-path="url(#a)">
<use x="1028.883241" y="789.969531" fill="#ffffff" stroke="#ffffff" xlink:href="#b"/>
</g>
<g clip-path="url(#a)">
<use x="697.044568" y="789.969531" fill="#ffffff" stroke="#ffffff" xlink:href="#b"/>
</g>
<g clip-path="url(#a)">
<use x="744.450093" y="789.969531" fill="#ffffff" stroke="#ffffff" xlink:href="#b"/>
</g>
<g clip-path="url(#a)">
<use x="791.855617" y="789.969531" fill="#ffffff" stroke="#ffffff" xlink:href="#b"/>
</g>
<g clip-path="url(#a)">
<use x="80.772748" y="789.969531" fill="#ffffff" stroke="#ffffff" xlink:href="#b"/>
</g>
<g clip-path="url(#a)">
<use x="128.178272" y="789.969531" fill="#ffffff" stroke="#ffffff" xlink:href="#b"/>
</g>
<g clip-path="url(#a)">
<use x="285.209073" y="484.413136" fill="#ffffff" stroke="#ffffff" xlink:href="#b"/>
</g>
<g clip-path="url(#a)">
<use x="507.422469" y="689.69985" fill="#ffffff" stroke="#ffffff" xlink:href="#b"/>
</g>
<g clip-path="url(#a)">
<use x="460.016945" y="789.969531" fill="#ffffff" stroke="#ffffff" xlink:href="#b"/>
</g>
<g clip-path="url(#a)">
<use x="507.422469" y="789.969531" fill="#ffffff" stroke="#ffffff" xlink:href="#b"/>
</g>
<g clip-path="url(#a)">
<use x="554.827994" y="789.969531" fill="#ffffff" stroke="#ffffff" xlink:href="#b"/>
</g>
<g clip-path="url(#a)">
<use x="175.583797" y="789.969531" fill="#ffffff" stroke="#ffffff" xlink:href="#b"/>
</g>
<g clip-path="url(#a)">
<use x="222.989322" y="789.969531" fill="#ffffff" stroke="#ffffff" xlink:href="#b"/>
</g>
<g clip-path="url(#a)">
<use x="329.651752" y="588.035307" fill="#ffffff" stroke="#ffffff" xlink:href="#b"/>
</g>
<g clip-path="url(#a)">
<use x="412.61142" y="789.969531" fill="#ffffff" stroke="#ffffff" xlink:href="#b"/>
</g>
<g clip-path="url(#a)">
<use x="294.097609" y="689.69985" fill="#ffffff" stroke="#ffffff" xlink:href="#b"/>
</g>
<g clip-path="url(#a)">
<use x="365.205896" y="789.969531" fill="#ffffff" stroke="#ffffff" xlink:href="#b"/>
</g>
<g clip-path="url(#a)">
<use x="270.394846" y="789.969531" fill="#ffffff" stroke="#ffffff" xlink:href="#b"/>
</g>
<g clip-path="url(#a)">
<use x="317.800371" y="789.969531" fill="#ffffff" stroke="#ffffff" xlink:href="#b"/>
</g>
<g clip-path="url(#a)">
<use x="532.071696" y="43.094121" fill="#808080" stroke="#808080" xlink:href="#b"/>
</g>
<g clip-path="url(#a)">
<use x="602.233519" y="789.969531" fill="#ffffff" stroke="#ffffff" xlink:href="#b"/>
</g>
<g clip-path="url(#a)">
<use x="1360.721913" y="789.969531" fill="#ffffff" stroke="#ffffff" xlink:href="#b"/>
</g>
<g clip-path="url(#a)">
<use x="1692.560586" y="789.969531" fill="#ffffff" stroke="#ffffff" xlink:href="#b"/>
</g>
<g clip-path="url(#a)">
<defs>
<path id="at" d="m9.8125 72.906h9.8594v-67.828q0-13.188-5-19.141t-16.094-5.9531h-3.75v8.2969h3.0781q6.5312 0 9.2188 3.6719 2.6875 3.6562 2.6875 13.125z"/>
<path id="q" d="m30.609 48.391q-7.2188 0-11.422-5.6406t-4.2031-15.453 4.1719-15.453q4.1875-5.6406 11.453-5.6406 7.1875 0 11.375 5.6562 4.2031 5.6719 4.2031 15.438 0 9.7188-4.2031 15.406-4.1875 5.6875-11.375 5.6875zm0 7.6094q11.719 0 18.406-7.625 6.7031-7.6094 6.7031-21.078 0-13.422-6.7031-21.078-6.6875-7.6406-18.406-7.6406-11.766 0-18.438 7.6406-6.6562 7.6562-6.6562 21.078 0 13.469 6.6562 21.078 6.6719 7.625 18.438 7.625z"/>
</defs>
<g transform="translate(70.384 893) scale(.1 -.1)">
<use xlink:href="#at"/>
<use x="29.492188" xlink:href="#q"/>
<use x="90.673828" xlink:href="#j"/>
<use x="118.457031" xlink:href="#i"/>
<use x="146.240234" xlink:href="#d"/>
</g>
</g>
<g clip-path="url(#a)">
<defs>
<path id="w" d="m48.781 52.594v-8.4062q-3.8125 2.1094-7.6406 3.1562t-7.7344 1.0469q-8.75 0-13.594-5.5469-4.8281-5.5312-4.8281-15.547t4.8281-15.562q4.8438-5.5312 13.594-5.5312 3.9062 0 7.7344 1.0469t7.6406 3.1562v-8.3125q-3.7656-1.75-7.7969-2.625-4.0156-0.89062-8.5625-0.89062-12.359 0-19.641 7.7656-7.2656 7.7656-7.2656 20.953 0 13.375 7.3438 21.031 7.3594 7.6719 20.156 7.6719 4.1406 0 8.0938-0.85938 3.9531-0.84375 7.6719-2.5469z"/>
<path id="ah" d="m2.9844 54.688h9.5156l17.094-45.891 17.094 45.891h9.5156l-20.516-54.688h-12.203z"/>
<path id="ab" d="m45.406 46.391v29.594h8.9844v-75.984h-8.9844v8.2031q-2.8281-4.875-7.1562-7.25-4.3125-2.375-10.375-2.375-9.9062 0-16.141 7.9062-6.2188 7.9219-6.2188 20.812t6.2188 20.797q6.2344 7.9062 16.141 7.9062 6.0625 0 10.375-2.375 4.3281-2.3594 7.1562-7.2344zm-30.609-19.094q0-9.9062 4.0781-15.547t11.203-5.6406 11.219 5.6406q4.1094 5.6406 4.1094 15.547t-4.1094 15.547q-4.0938 5.6406-11.219 5.6406t-11.203-5.6406-4.0781-15.547z"/>
</defs>
<g transform="translate(106.62 893) scale(.1 -.1)">
<use xlink:href="#f"/>
<use x="41.082031" xlink:href="#d"/>
<use x="102.605469" xlink:href="#w"/>
<use x="157.585938" xlink:href="#d"/>
<use x="219.109375" xlink:href="#i"/>
<use x="246.892578" xlink:href="#ah"/>
<use x="306.072266" xlink:href="#d"/>
<use x="367.595703" xlink:href="#ab"/>
</g>
</g>
<g clip-path="url(#a)">
<g transform="translate(172.52 893) scale(.1 -.1)">
<use xlink:href="#g"/>
</g>
</g>
<g clip-path="url(#a)">
<defs>
<path id="u" d="m18.312 70.219v-15.531h18.5v-6.9844h-18.5v-29.688q0-6.6875 1.8281-8.5938t7.4531-1.9062h9.2188v-7.5156h-9.2188q-10.406 0-14.359 3.875-3.9531 3.8906-3.9531 14.141v29.688h-6.5938v6.9844h6.5938v15.531z"/>
<path id="x" d="m44.281 53.078v-8.5q-3.7969 1.9531-7.9062 2.9219-4.0938 0.98438-8.5 0.98438-6.6875 0-10.031-2.0469t-3.3438-6.1562q0-3.125 2.3906-4.9062t9.625-3.3906l3.0781-0.6875q9.5625-2.0469 13.594-5.7812t4.0312-10.422q0-7.625-6.0312-12.078-6.0312-4.4375-16.578-4.4375-4.3906 0-9.1562 0.85938t-10.031 2.5625v9.2812q4.9844-2.5938 9.8125-3.8906 4.8281-1.2812 9.5781-1.2812 6.3438 0 9.75 2.1719 3.4219 2.1719 3.4219 6.125 0 3.6562-2.4688 5.6094-2.4531 1.9531-10.812 3.7656l-3.125 0.73438q-8.3438 1.75-12.062 5.3906-3.7031 3.6406-3.7031 9.9844 0 7.7188 5.4688 11.906 5.4688 4.2031 15.531 4.2031 4.9688 0 9.3594-0.73438 4.4062-0.71875 8.1094-2.1875z"/>
</defs>
<g transform="translate(190.4 893) scale(.1 -.1)">
<use xlink:href="#w"/>
<use x="54.980469" xlink:href="#q"/>
<use x="116.162109" xlink:href="#h"/>
<use x="179.541016" xlink:href="#u"/>
<use x="218.75" xlink:href="#f"/>
<use x="259.832031" xlink:href="#q"/>
<use x="321.013672" xlink:href="#ah"/>
<use x="380.193359" xlink:href="#d"/>
<use x="441.716797" xlink:href="#f"/>
<use x="482.830078" xlink:href="#x"/>
<use x="534.929688" xlink:href="#i"/>
<use x="562.712891" xlink:href="#g"/>
<use x="623.992188" xlink:href="#j"/>
</g>
</g>
<g clip-path="url(#a)">
<defs>
<path id="aq" d="m59.516 10.406v19.578h-16.109v8.1094h25.875v-31.312q-5.7031-4.0469-12.594-6.125-6.875-2.0781-14.688-2.0781-17.094 0-26.75 9.9844-9.6406 10-9.6406 27.812 0 17.875 9.6406 27.859 9.6562 9.9844 26.75 9.9844 7.125 0 13.547-1.7656 6.4219-1.75 11.844-5.1719v-10.5q-5.4688 4.6406-11.625 6.9844t-12.938 2.3438q-13.391 0-20.109-7.4688-6.7031-7.4688-6.7031-22.266 0-14.75 6.7031-22.219 6.7188-7.4688 20.109-7.4688 5.2188 0 9.3125 0.90625 4.1094 0.90625 7.375 2.8125z"/>
</defs>
<g transform="translate(252.65 893) scale(.1 -.1)">
<use xlink:href="#aq"/>
<use x="77.490234" xlink:href="#q"/>
<use x="138.671875" xlink:href="#j"/>
<use x="166.455078" xlink:href="#ab"/>
<use x="229.931641" xlink:href="#d"/>
<use x="291.455078" xlink:href="#h"/>
</g>
</g>
<g clip-path="url(#a)">
<defs>
<path id="ao" d="m48.688 27.297q0 9.9062-4.0781 15.547t-11.203 5.6406q-7.1406 0-11.219-5.6406t-4.0781-15.547 4.0781-15.547 11.219-5.6406q7.125 0 11.203 5.6406t4.0781 15.547zm-30.578 19.094q2.8438 4.875 7.1562 7.2344 4.3281 2.375 10.328 2.375 9.9688 0 16.188-7.9062 6.2344-7.9062 6.2344-20.797t-6.2344-20.812q-6.2188-7.9062-16.188-7.9062-6 0-10.328 2.375-4.3125 2.375-7.1562 7.25v-8.2031h-9.0312v75.984h9.0312z"/>
</defs>
<g transform="translate(303.23 893) scale(.1 -.1)">
<use xlink:href="#aq"/>
<use x="77.490234" xlink:href="#j"/>
<use x="105.273438" xlink:href="#q"/>
<use x="166.455078" xlink:href="#ao"/>
<use x="229.931641" xlink:href="#d"/>
</g>
</g>
<g clip-path="url(#a)">
<defs>
<path id="al" d="m4.2031 54.688h8.9844l11.234-42.672 11.172 42.672h10.594l11.234-42.672 11.188 42.672h8.9844l-14.312-54.688h-10.594l-11.766 44.828-11.812-44.828h-10.609z"/>
</defs>
<g transform="translate(349.41 893) scale(.1 -.1)">
<use xlink:href="#s"/>
<use x="68.345703" xlink:href="#al"/>
<use x="150.132812" xlink:href="#g"/>
<use x="211.412109" xlink:href="#f"/>
<use x="252.509766" xlink:href="#ab"/>
</g>
</g>
<g clip-path="url(#a)">
<g transform="translate(384.31 893) scale(.1 -.1)">
<use xlink:href="#h"/>
<use x="63.378906" xlink:href="#q"/>
<use x="124.560547" xlink:href="#k"/>
<use x="221.972656" xlink:href="#i"/>
<use x="249.755859" xlink:href="#h"/>
<use x="313.134766" xlink:href="#g"/>
<use x="374.414062" xlink:href="#u"/>
<use x="413.623047" xlink:href="#i"/>
<use x="441.40625" xlink:href="#q"/>
<use x="502.587891" xlink:href="#h"/>
</g>
</g>
<g clip-path="url(#a)">
<defs>
<path id="an" d="m37.109 75.984v-7.4844h-8.5938q-4.8281 0-6.7188-1.9531-1.875-1.9531-1.875-7.0312v-4.8281h14.797v-6.9844h-14.797v-47.703h-9.0312v47.703h-8.5938v6.9844h8.5938v3.8125q0 9.125 4.25 13.297 4.25 4.1875 13.469 4.1875z"/>
</defs>
<g transform="translate(453.14 893) scale(.1 -.1)">
<use xlink:href="#an"/>
<use x="35.205078" xlink:href="#q"/>
<use x="96.386719" xlink:href="#f"/>
</g>
</g>
<g clip-path="url(#a)">
<defs>
<path id="v" d="m54.891 33.016v-33.016h-8.9844v32.719q0 7.7656-3.0312 11.609-3.0312 3.8594-9.0781 3.8594-7.2812 0-11.484-4.6406-4.2031-4.625-4.2031-12.641v-30.906h-9.0312v75.984h9.0312v-29.797q3.2344 4.9375 7.5938 7.375 4.375 2.4375 10.094 2.4375 9.4219 0 14.25-5.8281 4.8438-5.8281 4.8438-17.156z"/>
</defs>
<g transform="translate(499.12 893) scale(.1 -.1)">
<use xlink:href="#v"/>
<use x="63.378906" xlink:href="#d"/>
<use x="124.902344" xlink:href="#f"/>
</g>
</g>
<g clip-path="url(#a)">
<defs>
<path id="ai" d="m18.109 8.2031v-29h-9.0312v75.484h9.0312v-8.2969q2.8438 4.875 7.1562 7.2344 4.3281 2.375 10.328 2.375 9.9688 0 16.188-7.9062 6.2344-7.9062 6.2344-20.797t-6.2344-20.812q-6.2188-7.9062-16.188-7.9062-6 0-10.328 2.375-4.3125 2.375-7.1562 7.25zm30.578 19.094q0 9.9062-4.0781 15.547t-11.203 5.6406q-7.1406 0-11.219-5.6406t-4.0781-15.547 4.0781-15.547 11.219-5.6406q7.125 0 11.203 5.6406t4.0781 15.547z"/>
</defs>
<g transform="translate(522.72 893) scale(.1 -.1)">
<use xlink:href="#ai"/>
<use x="63.476562" xlink:href="#d"/>
<use x="125" xlink:href="#f"/>
<use x="166.113281" xlink:href="#an"/>
<use x="201.318359" xlink:href="#q"/>
<use x="262.5" xlink:href="#f"/>
<use x="303.597656" xlink:href="#k"/>
<use x="401.009766" xlink:href="#g"/>
<use x="462.289062" xlink:href="#h"/>
<use x="525.667969" xlink:href="#w"/>
<use x="580.648438" xlink:href="#d"/>
</g>
</g>
<g clip-path="url(#a)">
<defs>
<path id="aw" d="m11.719 12.406h10.297v-8.4062l-8-15.625h-6.2969l4 15.625z"/>
</defs>
<g transform="translate(600.64 893) scale(.1 -.1)">
<use xlink:href="#aw"/>
</g>
</g>
<g clip-path="url(#a)">
<g transform="translate(635.07 893) scale(.1 -.1)">
<use xlink:href="#al"/>
<use x="81.787109" xlink:href="#v"/>
<use x="145.166016" xlink:href="#i"/>
<use x="172.949219" xlink:href="#w"/>
<use x="227.929688" xlink:href="#v"/>
</g>
</g>
<g clip-path="url(#a)">
<defs>
<path id="am" d="m45.406 27.984q0 9.7656-4.0312 15.125-4.0156 5.375-11.297 5.375-7.2188 0-11.25-5.375-4.0312-5.3594-4.0312-15.125 0-9.7188 4.0312-15.094t11.25-5.375q7.2812 0 11.297 5.375 4.0312 5.375 4.0312 15.094zm8.9844-21.203q0-13.953-6.2031-20.766-6.1875-6.8125-18.984-6.8125-4.7344 0-8.9375 0.70312t-8.1562 2.1719v8.7344q3.9531-2.1406 7.8125-3.1562 3.8594-1.0312 7.8594-1.0312 8.8438 0 13.234 4.6094t4.3906 13.938v4.4531q-2.7812-4.8438-7.125-7.2344t-10.406-2.3906q-10.047 0-16.203 7.6562-6.1562 7.6719-6.1562 20.328 0 12.688 6.1562 20.344 6.1562 7.6719 16.203 7.6719 6.0625 0 10.406-2.3906t7.125-7.2188v8.2969h8.9844z"/>
</defs>
<g transform="translate(684.77 893) scale(.1 -.1)">
<use xlink:href="#am"/>
<use x="63.476562" xlink:href="#g"/>
<use x="124.755859" xlink:href="#ah"/>
<use x="183.935547" xlink:href="#d"/>
</g>
</g>
<g clip-path="url(#a)">
<g transform="translate(735.32 893) scale(.1 -.1)">
<use xlink:href="#f"/>
<use x="41.113281" xlink:href="#i"/>
<use x="68.896484" xlink:href="#x"/>
<use x="120.996094" xlink:href="#d"/>
</g>
</g>
<g clip-path="url(#a)">
<g transform="translate(786.84 893) scale(.1 -.1)">
<use xlink:href="#u"/>
<use x="39.208984" xlink:href="#q"/>
</g>
</g>
<g clip-path="url(#a)">
<defs>
<path id="as" d="m8.5 21.578v33.109h8.9844v-32.766q0-7.7656 3.0156-11.656 3.0312-3.875 9.0938-3.875 7.2656 0 11.484 4.6406 4.2344 4.6406 4.2344 12.656v31h8.9844v-54.688h-8.9844v8.4062q-3.2656-4.9844-7.5938-7.4062-4.3125-2.4219-10.031-2.4219-9.4219 0-14.312 5.8594-4.875 5.8594-4.875 17.141z"/>
</defs>
<g transform="translate(810.46 893) scale(.1 -.1)">
<use xlink:href="#x"/>
<use x="52.099609" xlink:href="#ai"/>
<use x="115.576172" xlink:href="#d"/>
<use x="177.099609" xlink:href="#w"/>
<use x="232.080078" xlink:href="#as"/>
<use x="295.458984" xlink:href="#j"/>
<use x="323.242188" xlink:href="#g"/>
<use x="384.521484" xlink:href="#u"/>
<use x="423.730469" xlink:href="#i"/>
<use x="451.513672" xlink:href="#q"/>
<use x="512.695312" xlink:href="#h"/>
</g>
</g>
<g clip-path="url(#a)">
<g transform="translate(876.51 893) scale(.1 -.1)">
<use xlink:href="#u"/>
<use x="39.208984" xlink:href="#v"/>
<use x="102.587891" xlink:href="#g"/>
<use x="163.867188" xlink:href="#u"/>
</g>
</g>
<g clip-path="url(#a)">
<g transform="translate(930.72 893) scale(.1 -.1)">
<use xlink:href="#i"/>
<use x="27.783203" xlink:href="#u"/>
</g>
</g>
<g clip-path="url(#a)">
<g transform="translate(972.07 893) scale(.1 -.1)">
<use xlink:href="#v"/>
<use x="63.378906" xlink:href="#g"/>
<use x="124.658203" xlink:href="#ab"/>
</g>
</g>
<g clip-path="url(#a)">
<g transform="translate(1016.4 893) scale(.1 -.1)">
<use xlink:href="#ao"/>
<use x="63.476562" xlink:href="#d"/>
<use x="125" xlink:href="#d"/>
<use x="186.523438" xlink:href="#h"/>
</g>
</g>
<g clip-path="url(#a)">
<g transform="translate(1062.5 893) scale(.1 -.1)">
<use xlink:href="#am"/>
<use x="63.476562" xlink:href="#i"/>
<use x="91.259766" xlink:href="#ah"/>
<use x="150.439453" xlink:href="#d"/>
<use x="211.962891" xlink:href="#h"/>
</g>
</g>
<g clip-path="url(#a)">
<defs>
<path id="ar" d="m32.172-5.0781q-3.7969-9.7656-7.4219-12.734-3.6094-2.9844-9.6562-2.9844h-7.1875v7.5156h5.2812q3.7031 0 5.75 1.7656 2.0625 1.75 4.5469 8.2969l1.6094 4.0938-22.109 53.812h9.5156l17.094-42.766 17.094 42.766h9.5156z"/>
</defs>
<g transform="translate(1106.3 893) scale(.1 -.1)">
<use xlink:href="#k"/>
<use x="97.412109" xlink:href="#d"/>
<use x="158.935547" xlink:href="#f"/>
<use x="200.017578" xlink:href="#d"/>
<use x="261.541016" xlink:href="#j"/>
<use x="289.324219" xlink:href="#ar"/>
</g>
</g>
<g clip-path="url(#a)">
<g transform="translate(1166.1 893) scale(.1 -.1)">
<use xlink:href="#u"/>
<use x="39.208984" xlink:href="#q"/>
</g>
</g>
<g clip-path="url(#a)">
<g transform="translate(1201.4 893) scale(.1 -.1)">
<use xlink:href="#d"/>
<use x="61.523438" xlink:href="#h"/>
<use x="124.902344" xlink:href="#x"/>
<use x="177.001953" xlink:href="#as"/>
<use x="240.380859" xlink:href="#f"/>
<use x="281.462891" xlink:href="#d"/>
</g>
</g>
<g clip-path="url(#a)">
<g transform="translate(1257.6 893) scale(.1 -.1)">
<use xlink:href="#v"/>
<use x="63.378906" xlink:href="#d"/>
<use x="124.902344" xlink:href="#f"/>
</g>
</g>
<g clip-path="url(#a)">
<g transform="translate(1302.4 893) scale(.1 -.1)">
<use xlink:href="#v"/>
<use x="63.378906" xlink:href="#i"/>
<use x="91.162109" xlink:href="#am"/>
<use x="154.638672" xlink:href="#v"/>
</g>
</g>
<g clip-path="url(#a)">
<defs>
<path id="av" d="m4.8906 31.391h26.312v-8h-26.312z"/>
</defs>
<g transform="translate(1358.9 893) scale(.1 -.1)">
<use xlink:href="#av"/>
</g>
</g>
<g clip-path="url(#a)">
<g transform="translate(1392.2 893) scale(.1 -.1)">
<use xlink:href="#ai"/>
<use x="63.476562" xlink:href="#f"/>
<use x="104.558594" xlink:href="#q"/>
<use x="165.740234" xlink:href="#an"/>
<use x="200.945312" xlink:href="#i"/>
<use x="228.728516" xlink:href="#j"/>
<use x="256.511719" xlink:href="#d"/>
</g>
</g>
<g clip-path="url(#a)">
<g transform="translate(1432.6 893) scale(.1 -.1)">
<use xlink:href="#ai"/>
<use x="63.476562" xlink:href="#f"/>
<use x="104.558594" xlink:href="#d"/>
<use x="166.082031" xlink:href="#x"/>
<use x="218.181641" xlink:href="#d"/>
<use x="279.705078" xlink:href="#h"/>
<use x="343.083984" xlink:href="#w"/>
<use x="398.064453" xlink:href="#d"/>
</g>
</g>
<g clip-path="url(#a)">
<g transform="translate(1497.9 893) scale(.1 -.1)">
<use xlink:href="#g"/>
<use x="61.279297" xlink:href="#u"/>
</g>
</g>
<g clip-path="url(#a)">
<g transform="translate(1542.1 893) scale(.1 -.1)">
<use xlink:href="#u"/>
<use x="39.208984" xlink:href="#v"/>
<use x="102.587891" xlink:href="#d"/>
</g>
</g>
<g clip-path="url(#a)">
<g transform="translate(1579.7 893) scale(.1 -.1)">
<use xlink:href="#g"/>
<use x="61.279297" xlink:href="#al"/>
<use x="143.066406" xlink:href="#g"/>
<use x="204.345703" xlink:href="#f"/>
<use x="245.443359" xlink:href="#ab"/>
<use x="308.919922" xlink:href="#x"/>
</g>
</g>
<g clip-path="url(#a)">
<g transform="translate(1620.1 893) scale(.1 -.1)">
<use xlink:href="#w"/>
<use x="54.980469" xlink:href="#d"/>
<use x="116.503906" xlink:href="#f"/>
<use x="157.585938" xlink:href="#d"/>
<use x="219.109375" xlink:href="#k"/>
<use x="316.521484" xlink:href="#q"/>
<use x="377.703125" xlink:href="#h"/>
<use x="441.082031" xlink:href="#ar"/>
</g>
</g>
<g clip-path="url(#a)">
<defs>
<path id="e" d="m10.688 12.406h10.312v-12.406h-10.312z"/>
</defs>
<g transform="translate(1691 893) scale(.1 -.1)">
<use xlink:href="#e"/>
</g>
</g>
<g clip-path="url(#a)">
<defs>
<path id="c" d="m12.406 8.2969h16.109v55.625l-17.531-3.5156v8.9844l17.438 3.5156h9.8594v-64.609h16.109v-8.2969h-41.984z"/>
</defs>
<g transform="translate(541.66 45.853) scale(.1 -.1)">
<use xlink:href="#c"/>
<use x="63.623047" xlink:href="#e"/>
<use x="95.410156" xlink:href="#c"/>
</g>
</g>
<g clip-path="url(#a)">
<defs>
<path id="p" d="m19.188 8.2969h34.422v-8.2969h-46.281v8.2969q5.6094 5.8125 15.297 15.594 9.7031 9.7969 12.188 12.641 4.7344 5.3125 6.6094 9 1.8906 3.6875 1.8906 7.25 0 5.8125-4.0781 9.4688-4.0781 3.6719-10.625 3.6719-4.6406 0-9.7969-1.6094-5.1406-1.6094-11-4.8906v9.9688q5.9531 2.3906 11.125 3.6094 5.1875 1.2188 9.4844 1.2188 11.328 0 18.062-5.6719 6.7344-5.6562 6.7344-15.125 0-4.5-1.6875-8.5312-1.6719-4.0156-6.125-9.4844-1.2188-1.4219-7.7656-8.1875-6.5312-6.7656-18.453-18.922z"/>
</defs>
<g transform="translate(242.44 381.19) scale(.1 -.1)">
<use xlink:href="#c"/>
<use x="63.623047" xlink:href="#e"/>
<use x="95.410156" xlink:href="#p"/>
</g>
</g>
<g clip-path="url(#a)">
<defs>
<path id="n" d="m40.578 39.312q7.0781-1.5156 11.047-6.3125 3.9844-4.7812 3.9844-11.812 0-10.781-7.4219-16.703-7.4219-5.9062-21.094-5.9062-4.5781 0-9.4375 0.90625t-10.031 2.7188v9.5156q4.0938-2.3906 8.9688-3.6094 4.8906-1.2188 10.219-1.2188 9.2656 0 14.125 3.6562t4.8594 10.641q0 6.4531-4.5156 10.078-4.5156 3.6406-12.562 3.6406h-8.5v8.1094h8.8906q7.2656 0 11.125 2.9062t3.8594 8.375q0 5.6094-3.9844 8.6094-3.9688 3.0156-11.391 3.0156-4.0625 0-8.7031-0.89062-4.6406-0.875-10.203-2.7188v8.7812q5.625 1.5625 10.531 2.3438t9.25 0.78125q11.234 0 17.766-5.1094 6.5469-5.0938 6.5469-13.781 0-6.0625-3.4688-10.234t-9.8594-5.7812z"/>
</defs>
<g transform="translate(641.69 792.73) scale(.1 -.1)">
<use xlink:href="#c"/>
<use x="63.623047" xlink:href="#e"/>
<use x="95.410156" xlink:href="#n"/>
</g>
</g>
<g clip-path="url(#a)">
<defs>
<path id="m" d="m37.797 64.312-24.906-38.922h24.906zm-2.5938 8.5938h12.406v-47.516h10.406v-8.2031h-10.406v-17.188h-9.8125v17.188h-32.906v9.5156z"/>
</defs>
<g transform="translate(688.23 160.83) scale(.1 -.1)">
<use xlink:href="#c"/>
<use x="63.623047" xlink:href="#e"/>
<use x="95.410156" xlink:href="#m"/>
</g>
</g>
<g clip-path="url(#a)">
<defs>
<path id="ag" d="m33.016 40.375q-6.6406 0-10.531-4.5469-3.875-4.5312-3.875-12.438 0-7.8594 3.875-12.438 3.8906-4.5625 10.531-4.5625t10.516 4.5625q3.875 4.5781 3.875 12.438 0 7.9062-3.875 12.438-3.875 4.5469-10.516 4.5469zm19.578 30.922v-8.9844q-3.7188 1.75-7.5 2.6719-3.7812 0.9375-7.5 0.9375-9.7656 0-14.922-6.5938-5.1406-6.5938-5.875-19.922 2.875 4.25 7.2188 6.5156 4.3594 2.2656 9.5781 2.2656 10.984 0 17.359-6.6719 6.375-6.6562 6.375-18.125 0-11.234-6.6406-18.031-6.6406-6.7812-17.672-6.7812-12.656 0-19.344 9.6875-6.6875 9.7031-6.6875 28.109 0 17.281 8.2031 27.562t22.016 10.281q3.7188 0 7.5-0.73438t7.8906-2.1875z"/>
</defs>
<g transform="translate(736.5 692.46) scale(.1 -.1)">
<use xlink:href="#c"/>
<use x="63.623047" xlink:href="#e"/>
<use x="95.410156" xlink:href="#ag"/>
</g>
</g>
<g clip-path="url(#a)">
<defs>
<path id="z" d="m8.2031 72.906h46.875v-4.2031l-26.469-68.703h-10.297l24.906 64.594h-35.016z"/>
</defs>
<g transform="translate(923.53 272.51) scale(.1 -.1)">
<use xlink:href="#c"/>
<use x="63.623047" xlink:href="#e"/>
<use x="95.410156" xlink:href="#z"/>
</g>
</g>
<g clip-path="url(#a)">
<defs>
<path id="y" d="m31.781 34.625q-7.0312 0-11.062-3.7656-4.0156-3.7656-4.0156-10.344 0-6.5938 4.0156-10.359 4.0312-3.7656 11.062-3.7656t11.078 3.7812q4.0625 3.7969 4.0625 10.344 0 6.5781-4.0312 10.344-4.0156 3.7656-11.109 3.7656zm-9.8594 4.1875q-6.3438 1.5625-9.8906 5.9062-3.5312 4.3594-3.5312 10.609 0 8.7344 6.2188 13.812 6.2344 5.0781 17.062 5.0781 10.891 0 17.094-5.0781t6.2031-13.812q0-6.25-3.5469-10.609-3.5312-4.3438-9.8281-5.9062 7.125-1.6562 11.094-6.5 3.9844-4.8281 3.9844-11.797 0-10.609-6.4688-16.281-6.4688-5.6562-18.531-5.6562-12.047 0-18.531 5.6562-6.4688 5.6719-6.4688 16.281 0 6.9688 4 11.797 4.0156 4.8438 11.141 6.5zm-3.6094 15.578q0-5.6562 3.5312-8.8281 3.5469-3.1719 9.9375-3.1719 6.3594 0 9.9375 3.1719 3.5938 3.1719 3.5938 8.8281 0 5.6719-3.5938 8.8438-3.5781 3.1719-9.9375 3.1719-6.3906 0-9.9375-3.1719-3.5312-3.1719-3.5312-8.8438z"/>
</defs>
<g transform="translate(831.31 792.73) scale(.1 -.1)">
<use xlink:href="#c"/>
<use x="63.623047" xlink:href="#e"/>
<use x="95.410156" xlink:href="#y"/>
</g>
</g>
<g clip-path="url(#a)">
<defs>
<path id="af" d="m10.984 1.5156v8.9844q3.7188-1.7656 7.5156-2.6875 3.8125-0.92188 7.4844-0.92188 9.7656 0 14.906 6.5625 5.1562 6.5625 5.8906 19.953-2.8281-4.2031-7.1875-6.4531-4.3438-2.25-9.6094-2.25-10.938 0-17.312 6.6094-6.375 6.625-6.375 18.109 0 11.219 6.6406 18 6.6406 6.7969 17.672 6.7969 12.656 0 19.312-9.7031 6.6719-9.6875 6.6719-28.141 0-17.234-8.1875-27.516-8.1719-10.281-21.984-10.281-3.7188 0-7.5312 0.73438-3.7969 0.73438-7.9062 2.2031zm19.625 30.906q6.6406 0 10.516 4.5312 3.8906 4.5469 3.8906 12.469 0 7.8594-3.8906 12.422-3.875 4.5625-10.516 4.5625t-10.516-4.5625-3.875-12.422q0-7.9219 3.875-12.469 3.875-4.5312 10.516-4.5312z"/>
</defs>
<g transform="translate(1015.7 381.19) scale(.1 -.1)">
<use xlink:href="#c"/>
<use x="63.623047" xlink:href="#e"/>
<use x="95.410156" xlink:href="#af"/>
</g>
</g>
<g clip-path="url(#a)">
<defs>
<path id="aa" d="m31.781 66.406q-7.6094 0-11.453-7.5-3.8281-7.4844-3.8281-22.531 0-14.984 3.8281-22.484 3.8438-7.5 11.453-7.5 7.6719 0 11.5 7.5 3.8438 7.5 3.8438 22.484 0 15.047-3.8438 22.531-3.8281 7.5-11.5 7.5zm0 7.8125q12.266 0 18.734-9.7031 6.4688-9.6875 6.4688-28.141 0-18.406-6.4688-28.109-6.4688-9.6875-18.734-9.6875-12.25 0-18.719 9.6875-6.4688 9.7031-6.4688 28.109 0 18.453 6.4688 28.141 6.4688 9.7031 18.719 9.7031z"/>
</defs>
<g transform="translate(875.53 792.73) scale(.1 -.1)">
<use xlink:href="#c"/>
<use x="63.623047" xlink:href="#e"/>
<use x="95.410156" xlink:href="#c"/>
<use x="159.033203" xlink:href="#aa"/>
</g>
</g>
<g clip-path="url(#a)">
<g transform="translate(922.94 792.73) scale(.1 -.1)">
<use xlink:href="#c"/>
<use x="63.623047" xlink:href="#e"/>
<use x="95.410156" xlink:href="#c"/>
<use x="159.033203" xlink:href="#c"/>
</g>
</g>
<g clip-path="url(#a)">
<g transform="translate(1029.6 590.79) scale(.1 -.1)">
<use xlink:href="#c"/>
<use x="63.623047" xlink:href="#e"/>
<use x="95.410156" xlink:href="#c"/>
<use x="159.033203" xlink:href="#p"/>
</g>
</g>
<g clip-path="url(#a)">
<g transform="translate(1222.2 487.17) scale(.1 -.1)">
<use xlink:href="#c"/>
<use x="63.623047" xlink:href="#e"/>
<use x="95.410156" xlink:href="#c"/>
<use x="159.033203" xlink:href="#n"/>
</g>
</g>
<g clip-path="url(#a)">
<g transform="translate(1112.6 792.73) scale(.1 -.1)">
<use xlink:href="#c"/>
<use x="63.623047" xlink:href="#e"/>
<use x="95.410156" xlink:href="#c"/>
<use x="159.033203" xlink:href="#m"/>
</g>
</g>
<g clip-path="url(#a)">
<defs>
<path id="t" d="m10.797 72.906h38.719v-8.3125h-29.688v-17.859q2.1406 0.73438 4.2812 1.0938 2.1562 0.35938 4.3125 0.35938 12.203 0 19.328-6.6875 7.1406-6.6875 7.1406-18.109 0-11.766-7.3281-18.297-7.3281-6.5156-20.656-6.5156-4.5938 0-9.3594 0.78125-4.75 0.78125-9.8281 2.3438v9.9219q4.3906-2.3906 9.0781-3.5625t9.9062-1.1719q8.4531 0 13.375 4.4375 4.9375 4.4375 4.9375 12.062 0 7.6094-4.9375 12.047-4.9219 4.4531-13.375 4.4531-3.9531 0-7.8906-0.875-3.9219-0.875-8.0156-2.7344z"/>
</defs>
<g transform="translate(1160 792.73) scale(.1 -.1)">
<use xlink:href="#c"/>
<use x="63.623047" xlink:href="#e"/>
<use x="95.410156" xlink:href="#c"/>
<use x="159.033203" xlink:href="#t"/>
</g>
</g>
<g clip-path="url(#a)">
<g transform="translate(1207.4 792.73) scale(.1 -.1)">
<use xlink:href="#c"/>
<use x="63.623047" xlink:href="#e"/>
<use x="95.410156" xlink:href="#c"/>
<use x="159.033203" xlink:href="#ag"/>
</g>
</g>
<g clip-path="url(#a)">
<g transform="translate(1408.8 590.79) scale(.1 -.1)">
<use xlink:href="#c"/>
<use x="63.623047" xlink:href="#e"/>
<use x="95.410156" xlink:href="#c"/>
<use x="159.033203" xlink:href="#z"/>
</g>
</g>
<g clip-path="url(#a)">
<g transform="translate(1254.8 792.73) scale(.1 -.1)">
<use xlink:href="#c"/>
<use x="63.623047" xlink:href="#e"/>
<use x="95.410156" xlink:href="#c"/>
<use x="159.033203" xlink:href="#y"/>
</g>
</g>
<g clip-path="url(#a)">
<g transform="translate(1349.6 692.46) scale(.1 -.1)">
<use xlink:href="#c"/>
<use x="63.623047" xlink:href="#e"/>
<use x="95.410156" xlink:href="#c"/>
<use x="159.033203" xlink:href="#af"/>
</g>
</g>
<g clip-path="url(#a)">
<g transform="translate(1444.4 792.73) scale(.1 -.1)">
<use xlink:href="#c"/>
<use x="63.623047" xlink:href="#e"/>
<use x="95.410156" xlink:href="#p"/>
<use x="159.033203" xlink:href="#aa"/>
</g>
</g>
<g clip-path="url(#a)">
<g transform="translate(1586.6 692.46) scale(.1 -.1)">
<use xlink:href="#c"/>
<use x="63.623047" xlink:href="#e"/>
<use x="95.410156" xlink:href="#p"/>
<use x="159.033203" xlink:href="#c"/>
</g>
</g>
<g clip-path="url(#a)">
<g transform="translate(1491.8 792.73) scale(.1 -.1)">
<use xlink:href="#c"/>
<use x="63.623047" xlink:href="#e"/>
<use x="95.410156" xlink:href="#p"/>
<use x="159.033203" xlink:href="#p"/>
</g>
</g>
<g clip-path="url(#a)">
<g transform="translate(1539.2 792.73) scale(.1 -.1)">
<use xlink:href="#c"/>
<use x="63.623047" xlink:href="#e"/>
<use x="95.410156" xlink:href="#p"/>
<use x="159.033203" xlink:href="#n"/>
</g>
</g>
<g clip-path="url(#a)">
<g transform="translate(1586.6 792.73) scale(.1 -.1)">
<use xlink:href="#c"/>
<use x="63.623047" xlink:href="#e"/>
<use x="95.410156" xlink:href="#p"/>
<use x="159.033203" xlink:href="#m"/>
</g>
</g>
<g clip-path="url(#a)">
<g transform="translate(1634 792.73) scale(.1 -.1)">
<use xlink:href="#c"/>
<use x="63.623047" xlink:href="#e"/>
<use x="95.410156" xlink:href="#p"/>
<use x="159.033203" xlink:href="#t"/>
</g>
</g>
<g clip-path="url(#a)">
<g transform="translate(1302.2 792.73) scale(.1 -.1)">
<use xlink:href="#c"/>
<use x="63.623047" xlink:href="#e"/>
<use x="95.410156" xlink:href="#p"/>
<use x="159.033203" xlink:href="#z"/>
</g>
</g>
<g clip-path="url(#a)">
<g transform="translate(1397 792.73) scale(.1 -.1)">
<use xlink:href="#c"/>
<use x="63.623047" xlink:href="#e"/>
<use x="95.410156" xlink:href="#p"/>
<use x="159.033203" xlink:href="#y"/>
</g>
</g>
<g clip-path="url(#a)">
<g transform="translate(994.05 692.46) scale(.1 -.1)">
<use xlink:href="#c"/>
<use x="63.623047" xlink:href="#e"/>
<use x="95.410156" xlink:href="#n"/>
<use x="159.033203" xlink:href="#aa"/>
</g>
</g>
<g clip-path="url(#a)">
<g transform="translate(1065.2 792.73) scale(.1 -.1)">
<use xlink:href="#c"/>
<use x="63.623047" xlink:href="#e"/>
<use x="95.410156" xlink:href="#n"/>
<use x="159.033203" xlink:href="#c"/>
</g>
</g>
<g clip-path="url(#a)">
<g transform="translate(970.34 792.73) scale(.1 -.1)">
<use xlink:href="#c"/>
<use x="63.623047" xlink:href="#e"/>
<use x="95.410156" xlink:href="#n"/>
<use x="159.033203" xlink:href="#p"/>
</g>
</g>
<g clip-path="url(#a)">
<g transform="translate(1017.8 792.73) scale(.1 -.1)">
<use xlink:href="#c"/>
<use x="63.623047" xlink:href="#e"/>
<use x="95.410156" xlink:href="#n"/>
<use x="159.033203" xlink:href="#n"/>
</g>
</g>
<g clip-path="url(#a)">
<g transform="translate(685.91 792.73) scale(.1 -.1)">
<use xlink:href="#c"/>
<use x="63.623047" xlink:href="#e"/>
<use x="95.410156" xlink:href="#n"/>
<use x="159.033203" xlink:href="#m"/>
</g>
</g>
<g clip-path="url(#a)">
<g transform="translate(733.32 792.73) scale(.1 -.1)">
<use xlink:href="#c"/>
<use x="63.623047" xlink:href="#e"/>
<use x="95.410156" xlink:href="#n"/>
<use x="159.033203" xlink:href="#t"/>
</g>
</g>
<g clip-path="url(#a)">
<g transform="translate(780.72 792.73) scale(.1 -.1)">
<use xlink:href="#c"/>
<use x="63.623047" xlink:href="#e"/>
<use x="95.410156" xlink:href="#n"/>
<use x="159.033203" xlink:href="#ag"/>
</g>
</g>
<g clip-path="url(#a)">
<g transform="translate(69.64 792.73) scale(.1 -.1)">
<use xlink:href="#c"/>
<use x="63.623047" xlink:href="#e"/>
<use x="95.410156" xlink:href="#n"/>
<use x="159.033203" xlink:href="#z"/>
</g>
</g>
<g clip-path="url(#a)">
<g transform="translate(117.05 792.73) scale(.1 -.1)">
<use xlink:href="#c"/>
<use x="63.623047" xlink:href="#e"/>
<use x="95.410156" xlink:href="#n"/>
<use x="159.033203" xlink:href="#y"/>
</g>
</g>
<g clip-path="url(#a)">
<g transform="translate(274.08 487.17) scale(.1 -.1)">
<use xlink:href="#c"/>
<use x="63.623047" xlink:href="#e"/>
<use x="95.410156" xlink:href="#n"/>
<use x="159.033203" xlink:href="#af"/>
</g>
</g>
<g clip-path="url(#a)">
<g transform="translate(496.29 692.46) scale(.1 -.1)">
<use xlink:href="#c"/>
<use x="63.623047" xlink:href="#e"/>
<use x="95.410156" xlink:href="#m"/>
<use x="159.033203" xlink:href="#aa"/>
</g>
</g>
<g clip-path="url(#a)">
<g transform="translate(448.88 792.73) scale(.1 -.1)">
<use xlink:href="#c"/>
<use x="63.623047" xlink:href="#e"/>
<use x="95.410156" xlink:href="#m"/>
<use x="159.033203" xlink:href="#c"/>
</g>
</g>
<g clip-path="url(#a)">
<g transform="translate(496.29 792.73) scale(.1 -.1)">
<use xlink:href="#c"/>
<use x="63.623047" xlink:href="#e"/>
<use x="95.410156" xlink:href="#m"/>
<use x="159.033203" xlink:href="#p"/>
</g>
</g>
<g clip-path="url(#a)">
<g transform="translate(543.7 792.73) scale(.1 -.1)">
<use xlink:href="#c"/>
<use x="63.623047" xlink:href="#e"/>
<use x="95.410156" xlink:href="#m"/>
<use x="159.033203" xlink:href="#n"/>
</g>
</g>
<g clip-path="url(#a)">
<g transform="translate(164.45 792.73) scale(.1 -.1)">
<use xlink:href="#c"/>
<use x="63.623047" xlink:href="#e"/>
<use x="95.410156" xlink:href="#m"/>
<use x="159.033203" xlink:href="#m"/>
</g>
</g>
<g clip-path="url(#a)">
<g transform="translate(211.86 792.73) scale(.1 -.1)">
<use xlink:href="#c"/>
<use x="63.623047" xlink:href="#e"/>
<use x="95.410156" xlink:href="#m"/>
<use x="159.033203" xlink:href="#t"/>
</g>
</g>
<g clip-path="url(#a)">
<g transform="translate(318.52 590.79) scale(.1 -.1)">
<use xlink:href="#c"/>
<use x="63.623047" xlink:href="#e"/>
<use x="95.410156" xlink:href="#m"/>
<use x="159.033203" xlink:href="#ag"/>
</g>
</g>
<g clip-path="url(#a)">
<g transform="translate(401.48 792.73) scale(.1 -.1)">
<use xlink:href="#c"/>
<use x="63.623047" xlink:href="#e"/>
<use x="95.410156" xlink:href="#m"/>
<use x="159.033203" xlink:href="#z"/>
</g>
</g>
<g clip-path="url(#a)">
<g transform="translate(282.96 692.46) scale(.1 -.1)">
<use xlink:href="#c"/>
<use x="63.623047" xlink:href="#e"/>
<use x="95.410156" xlink:href="#m"/>
<use x="159.033203" xlink:href="#y"/>
</g>
</g>
<g clip-path="url(#a)">
<g transform="translate(354.07 792.73) scale(.1 -.1)">
<use xlink:href="#c"/>
<use x="63.623047" xlink:href="#e"/>
<use x="95.410156" xlink:href="#m"/>
<use x="159.033203" xlink:href="#af"/>
</g>
</g>
<g clip-path="url(#a)">
<g transform="translate(259.26 792.73) scale(.1 -.1)">
<use xlink:href="#c"/>
<use x="63.623047" xlink:href="#e"/>
<use x="95.410156" xlink:href="#t"/>
<use x="159.033203" xlink:href="#aa"/>
</g>
</g>
<g clip-path="url(#a)">
<g transform="translate(306.67 792.73) scale(.1 -.1)">
<use xlink:href="#c"/>
<use x="63.623047" xlink:href="#e"/>
<use x="95.410156" xlink:href="#t"/>
<use x="159.033203" xlink:href="#c"/>
</g>
</g>
<g clip-path="url(#a)">
<g transform="translate(520.94 45.853) scale(.1 -.1)">
<use xlink:href="#c"/>
<use x="63.623047" xlink:href="#e"/>
<use x="95.410156" xlink:href="#t"/>
<use x="159.033203" xlink:href="#p"/>
</g>
</g>
<g clip-path="url(#a)">
<g transform="translate(591.1 792.73) scale(.1 -.1)">
<use xlink:href="#c"/>
<use x="63.623047" xlink:href="#e"/>
<use x="95.410156" xlink:href="#t"/>
<use x="159.033203" xlink:href="#n"/>
</g>
</g>
<g clip-path="url(#a)">
<g transform="translate(1349.6 792.73) scale(.1 -.1)">
<use xlink:href="#c"/>
<use x="63.623047" xlink:href="#e"/>
<use x="95.410156" xlink:href="#t"/>
<use x="159.033203" xlink:href="#m"/>
</g>
</g>
<g clip-path="url(#a)">
<g transform="translate(1681.4 792.73) scale(.1 -.1)">
<use xlink:href="#c"/>
<use x="63.623047" xlink:href="#e"/>
<use x="95.410156" xlink:href="#t"/>
<use x="159.033203" xlink:href="#t"/>
</g>
</g>
<defs>
<clipPath id="a">
<rect width="1773.3" height="933.33"/>
</clipPath>
</defs>
</svg>
