<?xml version="1.0" encoding="UTF-8"?>
<!DOCTYPE svg  PUBLIC '-//W3C//DTD SVG 1.1//EN'  'http://www.w3.org/Graphics/SVG/1.1/DTD/svg11.dtd'>
<svg width="1469.3pt" height="773.33pt" version="1.1" viewBox="0 0 1469.3 773.33" xmlns="http://www.w3.org/2000/svg" xmlns:xlink="http://www.w3.org/1999/xlink">
<defs>
<style type="text/css">*{stroke-linecap:butt;stroke-linejoin:round;white-space:pre;}</style>
</defs>
<path d="m0 773.33h1469.3v-773.33h-1469.3z" fill="#fff"/>
<g fill="none" stroke="#000">
<path d="m676.47 36.259-609.48 563.52" clip-path="url(#a)"/>
<path d="m676.47 36.259-456.47 287.01" clip-path="url(#a)"/>
<path d="m676.47 36.259 201.27 287.01" clip-path="url(#a)"/>
<path d="m676.47 36.259 392.03 563.52" clip-path="url(#a)"/>
<path d="m676.47 36.259 403.96 145.12" clip-path="url(#a)"/>
<path d="m676.47 36.259 10.503 563.52" clip-path="url(#a)"/>
<path d="m676.47 36.259 58.195 563.52" clip-path="url(#a)"/>
<path d="m66.99 599.78v137.3" clip-path="url(#a)"/>
<path d="m220 323.27-105.32 276.51" clip-path="url(#a)"/>
<path d="m220 323.27-57.627 276.51" clip-path="url(#a)"/>
<path d="m220 323.27 162.94 139.21" clip-path="url(#a)"/>
<path d="m877.74 323.27-95.382 276.51" clip-path="url(#a)"/>
<path d="m877.74 323.27 23.846 139.21" clip-path="url(#a)"/>
<path d="m877.74 323.27-47.691 276.51" clip-path="url(#a)"/>
<path d="m877.74 323.27 119.23 139.21" clip-path="url(#a)"/>
<path d="m1068.5 599.78v137.3" clip-path="url(#a)"/>
<path d="m1080.4 181.38 35.768 418.4" clip-path="url(#a)"/>
<path d="m1080.4 181.38 83.46 418.4" clip-path="url(#a)"/>
<path d="m1080.4 181.38 178.84 141.89" clip-path="url(#a)"/>
<path d="m1080.4 181.38-298.07 418.4" clip-path="url(#a)" stroke-dasharray="3.7,1.6"/>
<path d="m1116.2 599.78v137.3" clip-path="url(#a)"/>
<path d="m1163.9 599.78v137.3" clip-path="url(#a)"/>
<path d="m1259.3 323.27-47.691 276.51" clip-path="url(#a)"/>
<path d="m1259.3 323.27 47.691 139.21" clip-path="url(#a)"/>
<path d="m1211.6 599.78v137.3" clip-path="url(#a)"/>
<path d="m1307 462.48-95.382 137.3" clip-path="url(#a)" stroke-dasharray="3.7,1.6"/>
<path d="m1307 462.48-47.691 137.3" clip-path="url(#a)"/>
<path d="m1307 462.48v137.3" clip-path="url(#a)"/>
<path d="m1307 462.48 47.691 137.3" clip-path="url(#a)"/>
<path d="m1307 462.48 95.382 137.3" clip-path="url(#a)"/>
<path d="m1259.3 599.78v137.3" clip-path="url(#a)"/>
<path d="m1307 599.78v137.3" clip-path="url(#a)"/>
<path d="m1354.7 599.78v137.3" clip-path="url(#a)"/>
<path d="m782.36 599.78v137.3" clip-path="url(#a)"/>
<path d="m901.59 462.48-23.846 137.3" clip-path="url(#a)"/>
<path d="m901.59 462.48 23.846 137.3" clip-path="url(#a)"/>
<path d="m830.05 599.78v137.3" clip-path="url(#a)"/>
<path d="m996.97 462.48-23.846 137.3" clip-path="url(#a)"/>
<path d="m996.97 462.48 23.846 137.3" clip-path="url(#a)"/>
<path d="m973.12 599.78v137.3" clip-path="url(#a)"/>
<path d="m1020.8 599.78v137.3" clip-path="url(#a)"/>
<path d="m877.74 599.78v137.3" clip-path="url(#a)"/>
<path d="m925.43 599.78v137.3" clip-path="url(#a)"/>
<path d="m114.68 599.78v137.3" clip-path="url(#a)"/>
<path d="m162.37 599.78v137.3" clip-path="url(#a)"/>
<path d="m382.94 462.48-172.88 137.3" clip-path="url(#a)"/>
<path d="m382.94 462.48-125.19 137.3" clip-path="url(#a)"/>
<path d="m382.94 462.48-77.498 137.3" clip-path="url(#a)"/>
<path d="m382.94 462.48-29.807 137.3" clip-path="url(#a)"/>
<path d="m382.94 462.48 17.884 137.3" clip-path="url(#a)"/>
<path d="m382.94 462.48 65.575 137.3" clip-path="url(#a)"/>
<path d="m382.94 462.48 208.65 137.3" clip-path="url(#a)"/>
<path d="m382.94 462.48 113.27 137.3" clip-path="url(#a)"/>
<path d="m210.06 599.78v137.3" clip-path="url(#a)"/>
<path d="m257.75 599.78v137.3" clip-path="url(#a)"/>
<path d="m305.45 599.78v137.3" clip-path="url(#a)"/>
<path d="m353.14 599.78v137.3" clip-path="url(#a)"/>
<path d="m400.83 599.78v137.3" clip-path="url(#a)"/>
<path d="m448.52 599.78v137.3" clip-path="url(#a)"/>
<path d="m591.59 599.78-47.691 137.3" clip-path="url(#a)"/>
<path d="m591.59 599.78v137.3" clip-path="url(#a)"/>
<path d="m591.59 599.78 47.691 137.3" clip-path="url(#a)"/>
<path d="m496.21 599.78v137.3" clip-path="url(#a)"/>
<path d="m1008.9 36.259-131.15 287.01" clip-path="url(#a)"/>
<path d="m1008.9 36.259 59.614 563.52" clip-path="url(#a)"/>
<path d="m1008.9 36.259 71.537 145.12" clip-path="url(#a)"/>
<path d="m388.24 181.38-321.25 418.4" clip-path="url(#a)"/>
<path d="m388.24 181.38-168.24 141.89" clip-path="url(#a)"/>
<path d="m388.24 181.38 489.5 141.89" clip-path="url(#a)"/>
<path d="m686.98 599.78v137.3" clip-path="url(#a)"/>
<path d="m734.67 599.78v137.3" clip-path="url(#a)"/>
<path d="m1402.3 599.78v137.3" clip-path="url(#a)"/>
</g>
<path d="m374.35 324.14 3.2729-3.0261q1.7622-1.6293 0.1329-3.3915l-5.2562-5.6849q-1.6293-1.7622-3.3915-0.1329l-3.2729 3.0261q-1.7622 1.6293-0.1329 3.3915l5.2562 5.6849q1.6293 1.7622 3.3915 0.1329z" clip-path="url(#a)" fill="#fff" stroke="#fff"/>
<g clip-path="url(#a)">
<defs>
<path id="q" d="m9.8125 72.906h9.8594v-64.609h35.5v-8.2969h-45.359z"/>
</defs>
<g transform="translate(371.59 321.15) rotate(-42.756) scale(.08 -.08)">
<use xlink:href="#q"/>
</g>
</g>
<path d="m449.03 186.67 5.0931-3.2024q2.0318-1.2775 0.75427-3.3092l-4.1212-6.5545q-1.2775-2.0318-3.3092-0.75427l-5.0931 3.2024q-2.0318 1.2775-0.75427 3.3092l4.1212 6.5545q1.2775 2.0318 3.3092 0.75427z" clip-path="url(#a)" fill="#fff" stroke="#fff"/>
<g clip-path="url(#a)">
<defs>
<path id="af" d="m9.8125 72.906h9.8594v-29.891h35.844v29.891h9.8594v-72.906h-9.8594v34.719h-35.844v-34.719h-9.8594z"/>
</defs>
<g transform="translate(446.86 183.23) rotate(-32.16) scale(.08 -.08)">
<use xlink:href="#af"/>
</g>
</g>
<path d="m770.24 180.9 3.4542 4.9258q1.378 1.965 3.343 0.58703l6.3392-4.4454q1.965-1.378 0.58703-3.343l-3.4542-4.9258q-1.378-1.965-3.343-0.58703l-6.3392 4.4454q-1.965 1.378-0.58703 3.343z" clip-path="url(#a)" fill="#fff" stroke="#fff"/>
<g clip-path="url(#a)">
<g transform="translate(773.57 178.57) rotate(54.96) scale(.08 -.08)">
<use xlink:href="#af"/>
</g>
</g>
<path d="m866.07 319.77 2.5456 3.6591q1.3706 1.9701 3.3407 0.59954l6.3558-4.4216q1.9701-1.3706 0.59954-3.3407l-2.5456-3.6591q-1.3706-1.9701-3.3407-0.59954l-6.3558 4.4216q-1.9701 1.3706-0.59954 3.3407z" clip-path="url(#a)" fill="#fff" stroke="#fff"/>
<g clip-path="url(#a)">
<g transform="translate(869.4 317.45) rotate(55.174) scale(.08 -.08)">
<use xlink:href="#q"/>
</g>
</g>
<path d="m873.5 113.7 5.662 2.0341q2.2587 0.81143 3.0701-1.4472l2.6177-7.2866q0.81143-2.2587-1.4472-3.0701l-5.662-2.0341q-2.2587-0.81143-3.0701 1.4472l-2.6177 7.2866q-0.81143 2.2587 1.4472 3.0701z" clip-path="url(#a)" fill="#fff" stroke="#fff"/>
<g clip-path="url(#a)">
<g transform="translate(874.87 109.88) rotate(19.761) scale(.08 -.08)">
<use xlink:href="#af"/>
</g>
</g>
<path d="m675.4 315.21 0.10911 5.854q0.044726 2.3996 2.4443 2.3549l7.7412-0.14429q2.3996-0.044725 2.3549-2.4443l-0.10911-5.854q-0.044725-2.3996-2.4443-2.3549l-7.7412 0.14429q-2.3996 0.044726-2.3549 2.4443z" clip-path="url(#a)" fill="#fff" stroke="#fff"/>
<g clip-path="url(#a)">
<defs>
<path id="z" d="m8.6875 72.906h9.9219v-44.297q0-11.719 4.2344-16.875 4.25-5.1406 13.781-5.1406 9.4688 0 13.719 5.1406 4.25 5.1562 4.25 16.875v44.297h9.9062v-45.516q0-14.25-7.0625-21.531-7.0469-7.2812-20.812-7.2812-13.828 0-20.891 7.2812-7.0469 7.2812-7.0469 21.531z"/>
</defs>
<g transform="translate(679.46 315.13) rotate(88.932) scale(.08 -.08)">
<use xlink:href="#z"/>
</g>
</g>
<path d="m699.03 315.75 0.60145 5.824q0.24654 2.3873 2.6338 2.1408l7.7015-0.79534q2.3873-0.24654 2.1408-2.6338l-0.60145-5.824q-0.24654-2.3873-2.6338-2.1408l-7.7015 0.79534q-2.3873 0.24654-2.1408 2.6338z" clip-path="url(#a)" fill="#fff" stroke="#fff"/>
<g clip-path="url(#a)">
<g transform="translate(703.07 315.33) rotate(84.104) scale(.08 -.08)">
<use xlink:href="#z"/>
</g>
</g>
<path d="m60.719 650.78v35.285q0 2.4 2.4 2.4h7.7425q2.4 0 2.4-2.4v-35.285q0-2.4-2.4-2.4h-7.7425q-2.4 0-2.4 2.4z" clip-path="url(#a)" fill="#fff" stroke="#fff"/>
<g clip-path="url(#a)">
<defs>
<path id="l" d="m-0.29688 72.906h61.672v-8.3125h-25.875v-64.594h-9.9062v64.594h-25.891z"/>
<path id="g" d="m56.203 29.594v-4.3906h-41.312q0.59375-9.2812 5.5938-14.141t13.938-4.8594q5.1719 0 10.031 1.2656t9.6562 3.8125v-8.5q-4.8438-2.0469-9.9219-3.125t-10.297-1.0781q-13.094 0-20.734 7.6094-7.6406 7.625-7.6406 20.625 0 13.422 7.25 21.297 7.25 7.8906 19.562 7.8906 11.031 0 17.453-7.1094 6.4219-7.0938 6.4219-19.297zm-8.9844 2.6406q-0.09375 7.3594-4.125 11.75-4.0312 4.4062-10.672 4.4062-7.5156 0-12.031-4.25t-5.2031-11.969z"/>
<path id="f" d="m41.109 46.297q-1.5156 0.875-3.2969 1.2812-1.7812 0.42188-3.9219 0.42188-7.625 0-11.703-4.9531t-4.0781-14.234v-28.812h-9.0312v54.688h9.0312v-8.5q2.8438 4.9844 7.375 7.3906 4.5469 2.4219 11.047 2.4219 0.92188 0 2.0469-0.125 1.125-0.10938 2.4844-0.35938z"/>
<path id="j" d="m52 44.188q3.375 6.0625 8.0625 8.9375t11.031 2.875q8.5469 0 13.188-5.9844 4.6406-5.9688 4.6406-17v-33.016h-9.0312v32.719q0 7.8594-2.7969 11.656-2.7812 3.8125-8.4844 3.8125-6.9844 0-11.047-4.6406-4.0469-4.625-4.0469-12.641v-30.906h-9.0312v32.719q0 7.9062-2.7812 11.688t-8.5938 3.7812q-6.8906 0-10.953-4.6562-4.0469-4.6562-4.0469-12.625v-30.906h-9.0312v54.688h9.0312v-8.5q3.0781 5.0312 7.375 7.4219t10.203 2.3906q5.9688 0 10.141-3.0312 4.1719-3.0156 6.1719-8.7812z"/>
<path id="d" d="m9.4219 54.688h8.9844v-54.688h-8.9844zm0 21.297h8.9844v-11.391h-8.9844z"/>
<path id="h" d="m54.891 33.016v-33.016h-8.9844v32.719q0 7.7656-3.0312 11.609-3.0312 3.8594-9.0781 3.8594-7.2812 0-11.484-4.6406-4.2031-4.625-4.2031-12.641v-30.906h-9.0312v54.688h9.0312v-8.5q3.2344 4.9375 7.5938 7.375 4.375 2.4375 10.094 2.4375 9.4219 0 14.25-5.8281 4.8438-5.8281 4.8438-17.156z"/>
<path id="i" d="m34.281 27.484q-10.891 0-15.094-2.4844t-4.2031-8.5q0-4.7812 3.1562-7.5938 3.1562-2.7969 8.5625-2.7969 7.4844 0 12 5.2969t4.5156 14.078v2zm17.922 3.7188v-31.203h-8.9844v8.2969q-3.0781-4.9688-7.6719-7.3438t-11.234-2.375q-8.3906 0-13.359 4.7188-4.9531 4.7188-4.9531 12.625 0 9.2188 6.1719 13.906 6.1875 4.6875 18.438 4.6875h12.609v0.89062q0 6.2031-4.0781 9.5938t-11.453 3.3906q-4.6875 0-9.1406-1.125-4.4375-1.125-8.5312-3.375v8.3125q4.9219 1.9062 9.5625 2.8438 4.6406 0.95312 9.0312 0.95312 11.875 0 17.734-6.1562 5.8594-6.1406 5.8594-18.641z"/>
<path id="k" d="m9.4219 75.984h8.9844v-75.984h-8.9844z"/>
</defs>
<g transform="translate(64.783 650.78) rotate(90) scale(.08 -.08)">
<use xlink:href="#l"/>
<use x="60.818359" xlink:href="#g"/>
<use x="122.341797" xlink:href="#f"/>
<use x="163.439453" xlink:href="#j"/>
<use x="260.851562" xlink:href="#d"/>
<use x="288.634766" xlink:href="#h"/>
<use x="352.013672" xlink:href="#i"/>
<use x="413.292969" xlink:href="#k"/>
</g>
</g>
<path d="m172.34 466.01 1.717-4.5078q0.85426-2.2428-1.3886-3.0971l-7.2354-2.7559q-2.2428-0.85426-3.0971 1.3886l-1.717 4.5078q-0.85426 2.2428 1.3886 3.0971l7.2354 2.7559q2.2428 0.85426 3.0971-1.3886z" clip-path="url(#a)" fill="#fff" stroke="#fff"/>
<g clip-path="url(#a)">
<defs>
<path id="ae" d="m19.672 64.797v-27.391h12.406q6.8906 0 10.641 3.5625 3.7656 3.5625 3.7656 10.156 0 6.5469-3.7656 10.109-3.75 3.5625-10.641 3.5625zm-9.8594 8.1094h22.266q12.266 0 18.531-5.5469 6.2812-5.5469 6.2812-16.234 0-10.797-6.2812-16.312-6.2656-5.5156-18.531-5.5156h-12.406v-29.297h-9.8594z"/>
</defs>
<g transform="translate(168.54 464.56) rotate(-69.149) scale(.08 -.08)">
<use xlink:href="#ae"/>
</g>
</g>
<path d="m196.77 465.48 1.1165-5.3574q0.48966-2.3495-1.8599-2.8392l-7.5796-1.5797q-2.3495-0.48966-2.8392 1.8599l-1.1165 5.3574q-0.48966 2.3495 1.8599 2.8392l7.5796 1.5797q2.3495 0.48966 2.8392-1.8599z" clip-path="url(#a)" fill="#fff" stroke="#fff"/>
<g clip-path="url(#a)">
<defs>
<path id="p" d="m34.188 63.188-13.391-36.281h26.812zm-5.5781 9.7188h11.188l27.781-72.906h-10.25l-6.6406 18.703h-32.859l-6.6406-18.703h-10.406z"/>
</defs>
<g transform="translate(192.79 464.65) rotate(-78.227) scale(.08 -.08)">
<use xlink:href="#p"/>
</g>
</g>
<path d="m295.32 395.86 4.1608 3.5547q1.8248 1.5589 3.3837-0.26581l5.0292-5.8867q1.5589-1.8248-0.26581-3.3837l-4.1608-3.5547q-1.8248-1.5589-3.3837 0.26581l-5.0292 5.8867q-1.5589 1.8248 0.26581 3.3837z" clip-path="url(#a)" fill="#fff" stroke="#fff"/>
<g clip-path="url(#a)">
<g transform="translate(297.96 392.77) rotate(40.508) scale(.08 -.08)">
<use xlink:href="#p"/>
</g>
</g>
<path d="m835.09 466.15 1.7846-5.1734q0.78264-2.2688-1.4862-3.0514l-7.3193-2.5248q-2.2688-0.78264-3.0514 1.4862l-1.7846 5.1734q-0.78264 2.2688 1.4862 3.0514l7.3193 2.5248q2.2688 0.78264 3.0514-1.4862z" clip-path="url(#a)" fill="#fff" stroke="#fff"/>
<g clip-path="url(#a)">
<g transform="translate(831.24 464.83) rotate(-70.968) scale(.08 -.08)">
<use xlink:href="#p"/>
</g>
</g>
<path d="m883.05 391.43 0.85747 5.0058q0.4052 2.3655 2.7708 1.9603l7.6314-1.3072q2.3655-0.4052 1.9603-2.7708l-0.85747-5.0058q-0.4052-2.3655-2.7708-1.9603l-7.6314 1.3072q-2.3655 0.4052-1.9603 2.7708z" clip-path="url(#a)" fill="#fff" stroke="#fff"/>
<g clip-path="url(#a)">
<defs>
<path id="am" d="m53.516 70.516v-9.625q-5.6094 2.6875-10.594 4-4.9844 1.3281-9.625 1.3281-8.0469 0-12.422-3.125t-4.375-8.8906q0-4.8438 2.9062-7.3125 2.9062-2.4531 11.016-3.9688l5.9531-1.2188q11.031-2.1094 16.281-7.4062t5.25-14.172q0-10.609-7.1094-16.078-7.0938-5.4688-20.812-5.4688-5.1719 0-11.016 1.1719-5.8281 1.1719-12.078 3.4688v10.156q6-3.3594 11.766-5.0781 5.7656-1.7031 11.328-1.7031 8.4375 0 13.031 3.3125 4.5938 3.3281 4.5938 9.4844 0 5.3594-3.2969 8.3906t-10.812 4.5469l-6.0156 1.1719q-11.031 2.1875-15.969 6.875-4.9219 4.6875-4.9219 13.047 0 9.6719 6.8125 15.234t18.766 5.5625q5.1406 0 10.453-0.9375 5.3281-0.92188 10.891-2.7656z"/>
</defs>
<g transform="translate(887.06 390.74) rotate(80.28) scale(.08 -.08)">
<use xlink:href="#am"/>
</g>
</g>
<path d="m859.68 464.86 0.78206-4.5343q0.40792-2.3651-1.9572-2.773l-7.6298-1.316q-2.3651-0.40792-2.773 1.9572l-0.78206 4.5343q-0.40792 2.3651 1.9572 2.773l7.6298 1.316q2.3651 0.40792 2.773-1.9572z" clip-path="url(#a)" fill="#fff" stroke="#fff"/>
<g clip-path="url(#a)">
<defs>
<path id="ag" d="m9.8125 72.906h41.891v-8.3125h-32.031v-21.484h28.906v-8.2969h-28.906v-34.812h-9.8594z"/>
</defs>
<g transform="translate(855.68 464.17) rotate(-80.214) scale(.08 -.08)">
<use xlink:href="#ag"/>
</g>
</g>
<path d="m930.81 394.87 3.5598 4.1564q1.5612 1.8228 3.384 0.26163l5.8805-5.0365q1.8228-1.5612 0.26163-3.384l-3.5598-4.1564q-1.5612-1.8228-3.384-0.26163l-5.8805 5.0365q-1.8228 1.5612-0.26163 3.384z" clip-path="url(#a)" fill="#fff" stroke="#fff"/>
<g clip-path="url(#a)">
<g transform="translate(933.9 392.23) rotate(49.421) scale(.08 -.08)">
<use xlink:href="#p"/>
</g>
</g>
<path d="m1062.2 650.78v35.285q0 2.4 2.4 2.4h7.7425q2.4 0 2.4-2.4v-35.285q0-2.4-2.4-2.4h-7.7425q-2.4 0-2.4 2.4z" clip-path="url(#a)" fill="#fff" stroke="#fff"/>
<g clip-path="url(#a)">
<g transform="translate(1066.3 650.78) rotate(90) scale(.08 -.08)">
<use xlink:href="#l"/>
<use x="60.818359" xlink:href="#g"/>
<use x="122.341797" xlink:href="#f"/>
<use x="163.439453" xlink:href="#j"/>
<use x="260.851562" xlink:href="#d"/>
<use x="288.634766" xlink:href="#h"/>
<use x="352.013672" xlink:href="#i"/>
<use x="413.292969" xlink:href="#k"/>
</g>
</g>
<path d="m1091.8 388.04 0.5247 6.1376q0.20443 2.3913 2.5957 2.1868l7.7144-0.6595q2.3913-0.20443 2.1868-2.5957l-0.5247-6.1376q-0.20443-2.3913-2.5957-2.1868l-7.7144 0.6595q-2.3913 0.20443-2.1868 2.5957z" clip-path="url(#a)" fill="#fff" stroke="#fff"/>
<g clip-path="url(#a)">
<defs>
<path id="ar" d="m19.672 64.797v-56.688h11.922q15.094 0 22.094 6.8281 7 6.8438 7 21.594 0 14.641-7 21.453t-22.094 6.8125zm-9.8594 8.1094h20.266q21.188 0 31.094-8.8125 9.9219-8.8125 9.9219-27.562 0-18.859-9.9688-27.703-9.9531-8.8281-31.047-8.8281h-20.266z"/>
</defs>
<g transform="translate(1095.9 387.7) rotate(85.114) scale(.08 -.08)">
<use xlink:href="#ar"/>
</g>
</g>
<path d="m1115.5 389.44 0.94363 4.7306q0.46949 2.3536 2.8231 1.8841l7.5929-1.5146q2.3536-0.46949 1.8841-2.8231l-0.94363-4.7306q-0.46949-2.3536-2.8231-1.8841l-7.5929 1.5146q-2.3536 0.46949-1.8841 2.8231z" clip-path="url(#a)" fill="#fff" stroke="#fff"/>
<g clip-path="url(#a)">
<g transform="translate(1119.5 388.64) rotate(78.719) scale(.08 -.08)">
<use xlink:href="#ae"/>
</g>
</g>
<path d="m1163.8 255.54 4.2871 3.4013q1.8801 1.4917 3.3718-0.38848l4.8122-6.0654q1.4917-1.8801-0.38848-3.3718l-4.2871-3.4013q-1.8801-1.4917-3.3718 0.38848l-4.8122 6.0654q-1.4917 1.8801 0.38848 3.3718z" clip-path="url(#a)" fill="#fff" stroke="#fff"/>
<g clip-path="url(#a)">
<g transform="translate(1166.3 252.35) rotate(38.428) scale(.08 -.08)">
<use xlink:href="#p"/>
</g>
</g>
<path d="m934.91 396.45 3.1753-4.4571q1.3925-1.9547-0.56215-3.3472l-6.3059-4.4924q-1.9547-1.3925-3.3472 0.56215l-3.1753 4.4571q-1.3925 1.9547 0.56215 3.3472l6.3059 4.4924q1.9547 1.3925 3.3472-0.56215z" clip-path="url(#a)" fill="#fff" stroke="#fff"/>
<g clip-path="url(#a)">
<g transform="translate(931.6 394.09) rotate(-54.534) scale(.08 -.08)">
<use xlink:href="#p"/>
</g>
</g>
<path d="m1109.9 650.78v35.285q0 2.4 2.4 2.4h7.7425q2.4 0 2.4-2.4v-35.285q0-2.4-2.4-2.4h-7.7425q-2.4 0-2.4 2.4z" clip-path="url(#a)" fill="#fff" stroke="#fff"/>
<g clip-path="url(#a)">
<g transform="translate(1114 650.78) rotate(90) scale(.08 -.08)">
<use xlink:href="#l"/>
<use x="60.818359" xlink:href="#g"/>
<use x="122.341797" xlink:href="#f"/>
<use x="163.439453" xlink:href="#j"/>
<use x="260.851562" xlink:href="#d"/>
<use x="288.634766" xlink:href="#h"/>
<use x="352.013672" xlink:href="#i"/>
<use x="413.292969" xlink:href="#k"/>
</g>
</g>
<path d="m1157.6 650.78v35.285q0 2.4 2.4 2.4h7.7425q2.4 0 2.4-2.4v-35.285q0-2.4-2.4-2.4h-7.7425q-2.4 0-2.4 2.4z" clip-path="url(#a)" fill="#fff" stroke="#fff"/>
<g clip-path="url(#a)">
<g transform="translate(1161.7 650.78) rotate(90) scale(.08 -.08)">
<use xlink:href="#l"/>
<use x="60.818359" xlink:href="#g"/>
<use x="122.341797" xlink:href="#f"/>
<use x="163.439453" xlink:href="#j"/>
<use x="260.851562" xlink:href="#d"/>
<use x="288.634766" xlink:href="#h"/>
<use x="352.013672" xlink:href="#i"/>
<use x="413.292969" xlink:href="#k"/>
</g>
</g>
<path d="m1241.1 465.34 0.94948-5.505q0.40792-2.3651-1.9572-2.773l-7.6298-1.316q-2.3651-0.40792-2.773 1.9572l-0.94948 5.505q-0.40792 2.3651 1.9572 2.773l7.6298 1.316q2.3651 0.40792 2.773-1.9572z" clip-path="url(#a)" fill="#fff" stroke="#fff"/>
<g clip-path="url(#a)">
<defs>
<path id="aa" d="m64.406 67.281v-10.391q-4.9844 4.6406-10.625 6.9219-5.6406 2.2969-11.984 2.2969-12.5 0-19.141-7.6406t-6.6406-22.094q0-14.406 6.6406-22.047t19.141-7.6406q6.3438 0 11.984 2.2969t10.625 6.9375v-10.312q-5.1719-3.5156-10.969-5.2812-5.7812-1.75-12.219-1.75-16.562 0-26.094 10.125-9.5156 10.141-9.5156 27.672 0 17.578 9.5156 27.703 9.5312 10.141 26.094 10.141 6.5312 0 12.312-1.7344 5.7969-1.7344 10.875-5.2031z"/>
</defs>
<g transform="translate(1237.1 464.65) rotate(-80.214) scale(.08 -.08)">
<use xlink:href="#aa"/>
</g>
</g>
<path d="m1276.4 392.52 1.6383 4.7822q0.77783 2.2705 3.0483 1.4926l7.3246-2.5093q2.2705-0.77783 1.4926-3.0483l-1.6383-4.7822q-0.77783-2.2705-3.0483-1.4926l-7.3246 2.5093q-2.2705 0.77783-1.4926 3.0483z" clip-path="url(#a)" fill="#fff" stroke="#fff"/>
<g clip-path="url(#a)">
<defs>
<path id="s" d="m9.8125 72.906h46.094v-8.3125h-36.234v-21.578h34.719v-8.2969h-34.719v-26.422h37.109v-8.2969h-46.969z"/>
</defs>
<g transform="translate(1280.2 391.2) rotate(71.089) scale(.08 -.08)">
<use xlink:href="#s"/>
</g>
</g>
<path d="m1205.3 650.78v35.285q0 2.4 2.4 2.4h7.7425q2.4 0 2.4-2.4v-35.285q0-2.4-2.4-2.4h-7.7425q-2.4 0-2.4 2.4z" clip-path="url(#a)" fill="#fff" stroke="#fff"/>
<g clip-path="url(#a)">
<g transform="translate(1209.4 650.78) rotate(90) scale(.08 -.08)">
<use xlink:href="#l"/>
<use x="60.818359" xlink:href="#g"/>
<use x="122.341797" xlink:href="#f"/>
<use x="163.439453" xlink:href="#j"/>
<use x="260.851562" xlink:href="#d"/>
<use x="288.634766" xlink:href="#h"/>
<use x="352.013672" xlink:href="#i"/>
<use x="413.292969" xlink:href="#k"/>
</g>
</g>
<path d="m1262.9 536.95 3.1223-4.4944q1.3693-1.971-0.60174-3.3403l-6.3587-4.4174q-1.971-1.3693-3.3403 0.60174l-3.1223 4.4944q-1.3693 1.971 0.60174 3.3403l6.3587 4.4174q1.971 1.3693 3.3403-0.60174z" clip-path="url(#a)" fill="#fff" stroke="#fff"/>
<g clip-path="url(#a)">
<g transform="translate(1259.5 534.63) rotate(-55.212) scale(.08 -.08)">
<use xlink:href="#p"/>
</g>
</g>
<path d="m1288.3 535.36 1.5098-4.3465q0.7875-2.2671-1.4796-3.0546l-7.3138-2.5405q-2.2671-0.7875-3.0546 1.4796l-1.5098 4.3465q-0.7875 2.2671 1.4796 3.0546l7.3138 2.5405q2.2671 0.7875 3.0546-1.4796z" clip-path="url(#a)" fill="#fff" stroke="#fff"/>
<g clip-path="url(#a)">
<g transform="translate(1284.4 534.02) rotate(-70.845) scale(.08 -.08)">
<use xlink:href="#ag"/>
</g>
</g>
<path d="m1300.7 528.72v4.8238q0 2.4 2.4 2.4h7.7425q2.4 0 2.4-2.4v-4.8238q0-2.4-2.4-2.4h-7.7425q-2.4 0-2.4 2.4z" clip-path="url(#a)" fill="#fff" stroke="#fff"/>
<g clip-path="url(#a)">
<g transform="translate(1304.8 528.72) rotate(90) scale(.08 -.08)">
<use xlink:href="#ae"/>
</g>
</g>
<path d="m1324 530.6 1.7957 5.1695q0.7875 2.2671 3.0546 1.4796l7.3138-2.5405q2.2671-0.7875 1.4796-3.0546l-1.7957-5.1695q-0.7875-2.2671-3.0546-1.4796l-7.3138 2.5405q-2.2671 0.7875-1.4796 3.0546z" clip-path="url(#a)" fill="#fff" stroke="#fff"/>
<g clip-path="url(#a)">
<g transform="translate(1327.8 529.27) rotate(70.845) scale(.08 -.08)">
<use xlink:href="#p"/>
</g>
</g>
<path d="m1347.8 532.3 3.3405 4.8085q1.3693 1.971 3.3403 0.60174l6.3587-4.4174q1.971-1.3693 0.60174-3.3403l-3.3405-4.8085q-1.3693-1.971-3.3403-0.60174l-6.3587 4.4174q-1.971 1.3693-0.60174 3.3403z" clip-path="url(#a)" fill="#fff" stroke="#fff"/>
<g clip-path="url(#a)">
<g transform="translate(1351.2 529.98) rotate(55.212) scale(.08 -.08)">
<use xlink:href="#z"/>
</g>
</g>
<path d="m1253 650.78v35.285q0 2.4 2.4 2.4h7.7425q2.4 0 2.4-2.4v-35.285q0-2.4-2.4-2.4h-7.7425q-2.4 0-2.4 2.4z" clip-path="url(#a)" fill="#fff" stroke="#fff"/>
<g clip-path="url(#a)">
<g transform="translate(1257.1 650.78) rotate(90) scale(.08 -.08)">
<use xlink:href="#l"/>
<use x="60.818359" xlink:href="#g"/>
<use x="122.341797" xlink:href="#f"/>
<use x="163.439453" xlink:href="#j"/>
<use x="260.851562" xlink:href="#d"/>
<use x="288.634766" xlink:href="#h"/>
<use x="352.013672" xlink:href="#i"/>
<use x="413.292969" xlink:href="#k"/>
</g>
</g>
<path d="m1300.7 650.78v35.285q0 2.4 2.4 2.4h7.7425q2.4 0 2.4-2.4v-35.285q0-2.4-2.4-2.4h-7.7425q-2.4 0-2.4 2.4z" clip-path="url(#a)" fill="#fff" stroke="#fff"/>
<g clip-path="url(#a)">
<g transform="translate(1304.8 650.78) rotate(90) scale(.08 -.08)">
<use xlink:href="#l"/>
<use x="60.818359" xlink:href="#g"/>
<use x="122.341797" xlink:href="#f"/>
<use x="163.439453" xlink:href="#j"/>
<use x="260.851562" xlink:href="#d"/>
<use x="288.634766" xlink:href="#h"/>
<use x="352.013672" xlink:href="#i"/>
<use x="413.292969" xlink:href="#k"/>
</g>
</g>
<path d="m1348.4 650.78v35.285q0 2.4 2.4 2.4h7.7425q2.4 0 2.4-2.4v-35.285q0-2.4-2.4-2.4h-7.7425q-2.4 0-2.4 2.4z" clip-path="url(#a)" fill="#fff" stroke="#fff"/>
<g clip-path="url(#a)">
<g transform="translate(1352.4 650.78) rotate(90) scale(.08 -.08)">
<use xlink:href="#l"/>
<use x="60.818359" xlink:href="#g"/>
<use x="122.341797" xlink:href="#f"/>
<use x="163.439453" xlink:href="#j"/>
<use x="260.851562" xlink:href="#d"/>
<use x="288.634766" xlink:href="#h"/>
<use x="352.013672" xlink:href="#i"/>
<use x="413.292969" xlink:href="#k"/>
</g>
</g>
<path d="m776.09 650.78v35.285q0 2.4 2.4 2.4h7.7425q2.4 0 2.4-2.4v-35.285q0-2.4-2.4-2.4h-7.7425q-2.4 0-2.4 2.4z" clip-path="url(#a)" fill="#fff" stroke="#fff"/>
<g clip-path="url(#a)">
<g transform="translate(780.15 650.78) rotate(90) scale(.08 -.08)">
<use xlink:href="#l"/>
<use x="60.818359" xlink:href="#g"/>
<use x="122.341797" xlink:href="#f"/>
<use x="163.439453" xlink:href="#j"/>
<use x="260.851562" xlink:href="#d"/>
<use x="288.634766" xlink:href="#h"/>
<use x="352.013672" xlink:href="#i"/>
<use x="413.292969" xlink:href="#k"/>
</g>
</g>
<path d="m895.36 534.95 0.95589-5.5039q0.41068-2.3646-1.9539-2.7753l-7.6283-1.3249q-2.3646-0.41068-2.7753 1.9539l-0.95589 5.5039q-0.41068 2.3646 1.9539 2.7753l7.6283 1.3249q2.3646 0.41068 2.7753-1.9539z" clip-path="url(#a)" fill="#fff" stroke="#fff"/>
<g clip-path="url(#a)">
<g transform="translate(891.36 534.26) rotate(-80.147) scale(.08 -.08)">
<use xlink:href="#aa"/>
</g>
</g>
<path d="m906.85 529.46 0.95119 5.4768q0.41068 2.3646 2.7753 1.9539l7.6283-1.3249q2.3646-0.41068 1.9539-2.7753l-0.95119-5.4768q-0.41068-2.3646-2.7753-1.9539l-7.6283 1.3249q-2.3646 0.41068-1.9539 2.7753z" clip-path="url(#a)" fill="#fff" stroke="#fff"/>
<g clip-path="url(#a)">
<defs>
<path id="w" d="m44.391 34.188q3.1719-1.0781 6.1719-4.5938t6.0312-9.6719l10.016-19.922h-10.609l-9.3125 18.703q-3.625 7.3281-7.0156 9.7188t-9.25 2.3906h-10.75v-30.812h-9.8594v72.906h22.266q12.5 0 18.656-5.2344 6.1562-5.2188 6.1562-15.766 0-6.8906-3.2031-11.438-3.2031-4.5312-9.2969-6.2812zm-24.719 30.609v-25.875h12.406q7.125 0 10.766 3.2969t3.6406 9.6875-3.6406 9.6406-10.766 3.25z"/>
</defs>
<g transform="translate(910.86 528.77) rotate(80.147) scale(.08 -.08)">
<use xlink:href="#w"/>
</g>
</g>
<path d="m823.78 650.78v35.285q0 2.4 2.4 2.4h7.7425q2.4 0 2.4-2.4v-35.285q0-2.4-2.4-2.4h-7.7425q-2.4 0-2.4 2.4z" clip-path="url(#a)" fill="#fff" stroke="#fff"/>
<g clip-path="url(#a)">
<g transform="translate(827.84 650.78) rotate(90) scale(.08 -.08)">
<use xlink:href="#l"/>
<use x="60.818359" xlink:href="#g"/>
<use x="122.341797" xlink:href="#f"/>
<use x="163.439453" xlink:href="#j"/>
<use x="260.851562" xlink:href="#d"/>
<use x="288.634766" xlink:href="#h"/>
<use x="352.013672" xlink:href="#i"/>
<use x="413.292969" xlink:href="#k"/>
</g>
</g>
<path d="m990.79 534.69 0.86499-4.9804q0.41068-2.3646-1.9539-2.7753l-7.6283-1.3249q-2.3646-0.41068-2.7753 1.9539l-0.86499 4.9804q-0.41068 2.3646 1.9539 2.7753l7.6283 1.3249q2.3646 0.41068 2.7753-1.9539z" clip-path="url(#a)" fill="#fff" stroke="#fff"/>
<g clip-path="url(#a)">
<g transform="translate(986.79 534) rotate(-80.147) scale(.08 -.08)">
<use xlink:href="#s"/>
</g>
</g>
<path d="m1002.2 529.45 0.95589 5.5039q0.41068 2.3646 2.7753 1.9539l7.6283-1.3249q2.3646-0.41068 1.9539-2.7753l-0.95589-5.5039q-0.41068-2.3646-2.7753-1.9539l-7.6283 1.3249q-2.3646 0.41068-1.9539 2.7753z" clip-path="url(#a)" fill="#fff" stroke="#fff"/>
<g clip-path="url(#a)">
<g transform="translate(1006.2 528.75) rotate(80.147) scale(.08 -.08)">
<use xlink:href="#aa"/>
</g>
</g>
<path d="m966.85 650.78v35.285q0 2.4 2.4 2.4h7.7425q2.4 0 2.4-2.4v-35.285q0-2.4-2.4-2.4h-7.7425q-2.4 0-2.4 2.4z" clip-path="url(#a)" fill="#fff" stroke="#fff"/>
<g clip-path="url(#a)">
<g transform="translate(970.92 650.78) rotate(90) scale(.08 -.08)">
<use xlink:href="#l"/>
<use x="60.818359" xlink:href="#g"/>
<use x="122.341797" xlink:href="#f"/>
<use x="163.439453" xlink:href="#j"/>
<use x="260.851562" xlink:href="#d"/>
<use x="288.634766" xlink:href="#h"/>
<use x="352.013672" xlink:href="#i"/>
<use x="413.292969" xlink:href="#k"/>
</g>
</g>
<path d="m1014.5 650.78v35.285q0 2.4 2.4 2.4h7.7425q2.4 0 2.4-2.4v-35.285q0-2.4-2.4-2.4h-7.7425q-2.4 0-2.4 2.4z" clip-path="url(#a)" fill="#fff" stroke="#fff"/>
<g clip-path="url(#a)">
<g transform="translate(1018.6 650.78) rotate(90) scale(.08 -.08)">
<use xlink:href="#l"/>
<use x="60.818359" xlink:href="#g"/>
<use x="122.341797" xlink:href="#f"/>
<use x="163.439453" xlink:href="#j"/>
<use x="260.851562" xlink:href="#d"/>
<use x="288.634766" xlink:href="#h"/>
<use x="352.013672" xlink:href="#i"/>
<use x="413.292969" xlink:href="#k"/>
</g>
</g>
<path d="m871.47 650.78v35.285q0 2.4 2.4 2.4h7.7425q2.4 0 2.4-2.4v-35.285q0-2.4-2.4-2.4h-7.7425q-2.4 0-2.4 2.4z" clip-path="url(#a)" fill="#fff" stroke="#fff"/>
<g clip-path="url(#a)">
<g transform="translate(875.53 650.78) rotate(90) scale(.08 -.08)">
<use xlink:href="#l"/>
<use x="60.818359" xlink:href="#g"/>
<use x="122.341797" xlink:href="#f"/>
<use x="163.439453" xlink:href="#j"/>
<use x="260.851562" xlink:href="#d"/>
<use x="288.634766" xlink:href="#h"/>
<use x="352.013672" xlink:href="#i"/>
<use x="413.292969" xlink:href="#k"/>
</g>
</g>
<path d="m919.16 650.78v35.285q0 2.4 2.4 2.4h7.7425q2.4 0 2.4-2.4v-35.285q0-2.4-2.4-2.4h-7.7425q-2.4 0-2.4 2.4z" clip-path="url(#a)" fill="#fff" stroke="#fff"/>
<g clip-path="url(#a)">
<g transform="translate(923.22 650.78) rotate(90) scale(.08 -.08)">
<use xlink:href="#l"/>
<use x="60.818359" xlink:href="#g"/>
<use x="122.341797" xlink:href="#f"/>
<use x="163.439453" xlink:href="#j"/>
<use x="260.851562" xlink:href="#d"/>
<use x="288.634766" xlink:href="#h"/>
<use x="352.013672" xlink:href="#i"/>
<use x="413.292969" xlink:href="#k"/>
</g>
</g>
<path d="m108.41 650.78v35.285q0 2.4 2.4 2.4h7.7425q2.4 0 2.4-2.4v-35.285q0-2.4-2.4-2.4h-7.7425q-2.4 0-2.4 2.4z" clip-path="url(#a)" fill="#fff" stroke="#fff"/>
<g clip-path="url(#a)">
<g transform="translate(112.47 650.78) rotate(90) scale(.08 -.08)">
<use xlink:href="#l"/>
<use x="60.818359" xlink:href="#g"/>
<use x="122.341797" xlink:href="#f"/>
<use x="163.439453" xlink:href="#j"/>
<use x="260.851562" xlink:href="#d"/>
<use x="288.634766" xlink:href="#h"/>
<use x="352.013672" xlink:href="#i"/>
<use x="413.292969" xlink:href="#k"/>
</g>
</g>
<path d="m156.1 650.78v35.285q0 2.4 2.4 2.4h7.7425q2.4 0 2.4-2.4v-35.285q0-2.4-2.4-2.4h-7.7425q-2.4 0-2.4 2.4z" clip-path="url(#a)" fill="#fff" stroke="#fff"/>
<g clip-path="url(#a)">
<g transform="translate(160.17 650.78) rotate(90) scale(.08 -.08)">
<use xlink:href="#l"/>
<use x="60.818359" xlink:href="#g"/>
<use x="122.341797" xlink:href="#f"/>
<use x="163.439453" xlink:href="#j"/>
<use x="260.851562" xlink:href="#d"/>
<use x="288.634766" xlink:href="#h"/>
<use x="352.013672" xlink:href="#i"/>
<use x="413.292969" xlink:href="#k"/>
</g>
</g>
<path d="m298.23 537.77 4.353-3.4571q1.8794-1.4926 0.38682-3.372l-4.8152-6.063q-1.4926-1.8794-3.372-0.38682l-4.353 3.4571q-1.8794 1.4926-0.38682 3.372l4.8152 6.063q1.4926 1.8794 3.372 0.38682z" clip-path="url(#a)" fill="#fff" stroke="#fff"/>
<g clip-path="url(#a)">
<g transform="translate(295.7 534.58) rotate(-38.456) scale(.08 -.08)">
<use xlink:href="#w"/>
</g>
</g>
<path d="m323.28 537.22 3.4059-3.7353q1.617-1.7735-0.15641-3.3905l-5.7213-5.2167q-1.7735-1.617-3.3905 0.15641l-3.4059 3.7353q-1.617 1.7735 0.15641 3.3905l5.7213 5.2167q1.7735 1.617 3.3905-0.15641z" clip-path="url(#a)" fill="#fff" stroke="#fff"/>
<g clip-path="url(#a)">
<g transform="translate(320.28 534.48) rotate(-47.641) scale(.08 -.08)">
<use xlink:href="#s"/>
</g>
</g>
<path d="m348.41 536.41 2.4848-4.4021q1.1797-2.09-0.91032-3.2698l-6.7425-3.8058q-2.09-1.1797-3.2698 0.91032l-2.4848 4.4021q-1.1797 2.09 0.91032 3.2698l6.7425 3.8058q2.09 1.1797 3.2698-0.91032z" clip-path="url(#a)" fill="#fff" stroke="#fff"/>
<g clip-path="url(#a)">
<g transform="translate(344.88 534.41) rotate(-60.557) scale(.08 -.08)">
<use xlink:href="#s"/>
</g>
</g>
<path d="m373.63 534.93 1.0724-4.9399q0.50917-2.3454-1.8362-2.8545l-7.5663-1.6426q-2.3454-0.50917-2.8545 1.8362l-1.0724 4.9399q-0.50917 2.3454 1.8362 2.8545l7.5663 1.6426q2.3454 0.50917 2.8545-1.8362z" clip-path="url(#a)" fill="#fff" stroke="#fff"/>
<g clip-path="url(#a)">
<g transform="translate(369.66 534.07) rotate(-77.751) scale(.08 -.08)">
<use xlink:href="#s"/>
</g>
</g>
<path d="m385.31 529.17 0.72156 5.5395q0.31 2.3799 2.6899 2.0699l7.6776-1.0001q2.3799-0.31 2.0699-2.6899l-0.72156-5.5395q-0.31-2.3799-2.6899-2.0699l-7.6776 1.0001q-2.3799 0.31-2.0699 2.6899z" clip-path="url(#a)" fill="#fff" stroke="#fff"/>
<g clip-path="url(#a)">
<g transform="translate(389.34 528.64) rotate(82.579) scale(.08 -.08)">
<use xlink:href="#aa"/>
</g>
</g>
<path d="m408.88 531.32 2.3957 5.016q1.0343 2.1657 3.2 1.1313l6.9865-3.3369q2.1657-1.0343 1.1313-3.2l-2.3957-5.016q-1.0343-2.1657-3.2-1.1313l-6.9865 3.3369q-2.1657 1.0343-1.1313 3.2z" clip-path="url(#a)" fill="#fff" stroke="#fff"/>
<g clip-path="url(#a)">
<g transform="translate(412.54 529.57) rotate(64.47) scale(.08 -.08)">
<use xlink:href="#w"/>
</g>
</g>
<path d="m481.71 534.98 4.2228 2.7787q2.0049 1.3193 3.3241-0.68559l4.256-6.4678q1.3193-2.0049-0.68559-3.3241l-4.2228-2.7787q-2.0049-1.3193-3.3241 0.68559l-4.256 6.4678q-1.3193 2.0049 0.68559 3.3241z" clip-path="url(#a)" fill="#fff" stroke="#fff"/>
<g clip-path="url(#a)">
<g transform="translate(483.94 531.58) rotate(33.346) scale(.08 -.08)">
<use xlink:href="#s"/>
</g>
</g>
<path d="m432.88 532.86 3.7259 4.5165q1.5273 1.8513 3.3786 0.32404l5.9725-4.9271q1.8513-1.5273 0.32405-3.3786l-3.7259-4.5165q-1.5273-1.8513-3.3786-0.32404l-5.9725 4.9271q-1.8513 1.5273-0.32404 3.3786z" clip-path="url(#a)" fill="#fff" stroke="#fff"/>
<g clip-path="url(#a)">
<g transform="translate(436.01 530.27) rotate(50.479) scale(.08 -.08)">
<use xlink:href="#z"/>
</g>
</g>
<path d="m203.79 650.78v35.285q0 2.4 2.4 2.4h7.7425q2.4 0 2.4-2.4v-35.285q0-2.4-2.4-2.4h-7.7425q-2.4 0-2.4 2.4z" clip-path="url(#a)" fill="#fff" stroke="#fff"/>
<g clip-path="url(#a)">
<g transform="translate(207.86 650.78) rotate(90) scale(.08 -.08)">
<use xlink:href="#l"/>
<use x="60.818359" xlink:href="#g"/>
<use x="122.341797" xlink:href="#f"/>
<use x="163.439453" xlink:href="#j"/>
<use x="260.851562" xlink:href="#d"/>
<use x="288.634766" xlink:href="#h"/>
<use x="352.013672" xlink:href="#i"/>
<use x="413.292969" xlink:href="#k"/>
</g>
</g>
<path d="m251.48 650.78v35.285q0 2.4 2.4 2.4h7.7425q2.4 0 2.4-2.4v-35.285q0-2.4-2.4-2.4h-7.7425q-2.4 0-2.4 2.4z" clip-path="url(#a)" fill="#fff" stroke="#fff"/>
<g clip-path="url(#a)">
<g transform="translate(255.55 650.78) rotate(90) scale(.08 -.08)">
<use xlink:href="#l"/>
<use x="60.818359" xlink:href="#g"/>
<use x="122.341797" xlink:href="#f"/>
<use x="163.439453" xlink:href="#j"/>
<use x="260.851562" xlink:href="#d"/>
<use x="288.634766" xlink:href="#h"/>
<use x="352.013672" xlink:href="#i"/>
<use x="413.292969" xlink:href="#k"/>
</g>
</g>
<path d="m299.17 650.78v35.285q0 2.4 2.4 2.4h7.7425q2.4 0 2.4-2.4v-35.285q0-2.4-2.4-2.4h-7.7425q-2.4 0-2.4 2.4z" clip-path="url(#a)" fill="#fff" stroke="#fff"/>
<g clip-path="url(#a)">
<g transform="translate(303.24 650.78) rotate(90) scale(.08 -.08)">
<use xlink:href="#l"/>
<use x="60.818359" xlink:href="#g"/>
<use x="122.341797" xlink:href="#f"/>
<use x="163.439453" xlink:href="#j"/>
<use x="260.851562" xlink:href="#d"/>
<use x="288.634766" xlink:href="#h"/>
<use x="352.013672" xlink:href="#i"/>
<use x="413.292969" xlink:href="#k"/>
</g>
</g>
<path d="m346.87 650.78v35.285q0 2.4 2.4 2.4h7.7425q2.4 0 2.4-2.4v-35.285q0-2.4-2.4-2.4h-7.7425q-2.4 0-2.4 2.4z" clip-path="url(#a)" fill="#fff" stroke="#fff"/>
<g clip-path="url(#a)">
<g transform="translate(350.93 650.78) rotate(90) scale(.08 -.08)">
<use xlink:href="#l"/>
<use x="60.818359" xlink:href="#g"/>
<use x="122.341797" xlink:href="#f"/>
<use x="163.439453" xlink:href="#j"/>
<use x="260.851562" xlink:href="#d"/>
<use x="288.634766" xlink:href="#h"/>
<use x="352.013672" xlink:href="#i"/>
<use x="413.292969" xlink:href="#k"/>
</g>
</g>
<path d="m394.56 650.78v35.285q0 2.4 2.4 2.4h7.7425q2.4 0 2.4-2.4v-35.285q0-2.4-2.4-2.4h-7.7425q-2.4 0-2.4 2.4z" clip-path="url(#a)" fill="#fff" stroke="#fff"/>
<g clip-path="url(#a)">
<g transform="translate(398.62 650.78) rotate(90) scale(.08 -.08)">
<use xlink:href="#l"/>
<use x="60.818359" xlink:href="#g"/>
<use x="122.341797" xlink:href="#f"/>
<use x="163.439453" xlink:href="#j"/>
<use x="260.851562" xlink:href="#d"/>
<use x="288.634766" xlink:href="#h"/>
<use x="352.013672" xlink:href="#i"/>
<use x="413.292969" xlink:href="#k"/>
</g>
</g>
<path d="m442.25 650.78v35.285q0 2.4 2.4 2.4h7.7425q2.4 0 2.4-2.4v-35.285q0-2.4-2.4-2.4h-7.7425q-2.4 0-2.4 2.4z" clip-path="url(#a)" fill="#fff" stroke="#fff"/>
<g clip-path="url(#a)">
<g transform="translate(446.31 650.78) rotate(90) scale(.08 -.08)">
<use xlink:href="#l"/>
<use x="60.818359" xlink:href="#g"/>
<use x="122.341797" xlink:href="#f"/>
<use x="163.439453" xlink:href="#j"/>
<use x="260.851562" xlink:href="#d"/>
<use x="288.634766" xlink:href="#h"/>
<use x="352.013672" xlink:href="#i"/>
<use x="413.292969" xlink:href="#k"/>
</g>
</g>
<path d="m567.88 687.15 11.578-33.331q0.7875-2.2671-1.4796-3.0546l-7.3138-2.5405q-2.2671-0.78749-3.0546 1.4796l-11.578 33.331q-0.7875 2.2671 1.4796 3.0546l7.3138 2.5405q2.2671 0.7875 3.0546-1.4796z" clip-path="url(#a)" fill="#fff" stroke="#fff"/>
<g clip-path="url(#a)">
<g transform="translate(564.04 685.82) rotate(-70.845) scale(.08 -.08)">
<use xlink:href="#l"/>
<use x="60.818359" xlink:href="#g"/>
<use x="122.341797" xlink:href="#f"/>
<use x="163.439453" xlink:href="#j"/>
<use x="260.851562" xlink:href="#d"/>
<use x="288.634766" xlink:href="#h"/>
<use x="352.013672" xlink:href="#i"/>
<use x="413.292969" xlink:href="#k"/>
</g>
</g>
<path d="m585.32 650.78v35.285q0 2.4 2.4 2.4h7.7425q2.4 0 2.4-2.4v-35.285q0-2.4-2.4-2.4h-7.7425q-2.4 0-2.4 2.4z" clip-path="url(#a)" fill="#fff" stroke="#fff"/>
<g clip-path="url(#a)">
<g transform="translate(589.39 650.78) rotate(90) scale(.08 -.08)">
<use xlink:href="#l"/>
<use x="60.818359" xlink:href="#g"/>
<use x="122.341797" xlink:href="#f"/>
<use x="163.439453" xlink:href="#j"/>
<use x="260.851562" xlink:href="#d"/>
<use x="288.634766" xlink:href="#h"/>
<use x="352.013672" xlink:href="#i"/>
<use x="413.292969" xlink:href="#k"/>
</g>
</g>
<path d="m603.73 653.82 11.578 33.331q0.7875 2.2671 3.0546 1.4796l7.3138-2.5405q2.2671-0.7875 1.4796-3.0546l-11.578-33.331q-0.78749-2.2671-3.0546-1.4796l-7.3138 2.5405q-2.2671 0.7875-1.4796 3.0546z" clip-path="url(#a)" fill="#fff" stroke="#fff"/>
<g clip-path="url(#a)">
<g transform="translate(607.56 652.48) rotate(70.845) scale(.08 -.08)">
<use xlink:href="#l"/>
<use x="60.818359" xlink:href="#g"/>
<use x="122.341797" xlink:href="#f"/>
<use x="163.439453" xlink:href="#j"/>
<use x="260.851562" xlink:href="#d"/>
<use x="288.634766" xlink:href="#h"/>
<use x="352.013672" xlink:href="#i"/>
<use x="413.292969" xlink:href="#k"/>
</g>
</g>
<path d="m489.94 650.78v35.285q0 2.4 2.4 2.4h7.7425q2.4 0 2.4-2.4v-35.285q0-2.4-2.4-2.4h-7.7425q-2.4 0-2.4 2.4z" clip-path="url(#a)" fill="#fff" stroke="#fff"/>
<g clip-path="url(#a)">
<g transform="translate(494 650.78) rotate(90) scale(.08 -.08)">
<use xlink:href="#l"/>
<use x="60.818359" xlink:href="#g"/>
<use x="122.341797" xlink:href="#f"/>
<use x="163.439453" xlink:href="#j"/>
<use x="260.851562" xlink:href="#d"/>
<use x="288.634766" xlink:href="#h"/>
<use x="352.013672" xlink:href="#i"/>
<use x="413.292969" xlink:href="#k"/>
</g>
</g>
<path d="m946.96 186.89 4.1281-9.034q0.99748-2.1829-1.1854-3.1804l-7.0421-3.2179q-2.1829-0.99748-3.1804 1.1854l-4.1281 9.034q-0.99748 2.1829 1.1854 3.1804l7.0421 3.2179q2.1829 0.99748 3.1804-1.1854z" clip-path="url(#a)" fill="#fff" stroke="#fff"/>
<g clip-path="url(#a)">
<g transform="translate(943.26 185.2) rotate(-65.442) scale(.08 -.08)">
<use xlink:href="#q"/>
<use x="55.744141" xlink:href="#p"/>
</g>
</g>
<path d="m1031.9 313.7 1.0537 9.9607q0.25248 2.3867 2.6392 2.1342l7.6995-0.81453q2.3867-0.25248 2.1342-2.6392l-1.0537-9.9607q-0.25248-2.3867-2.6392-2.1342l-7.6995 0.81453q-2.3867 0.25248-2.1342 2.6392z" clip-path="url(#a)" fill="#fff" stroke="#fff"/>
<g clip-path="url(#a)">
<g transform="translate(1036 313.27) rotate(83.961) scale(.08 -.08)">
<use xlink:href="#q"/>
<use x="55.712891" xlink:href="#w"/>
</g>
</g>
<path d="m1036.8 107.14 4.3916 8.9089q1.0611 2.1527 3.2138 1.0915l6.9446-3.4233q2.1527-1.0611 1.0915-3.2138l-4.3916-8.9089q-1.0611-2.1527-3.2138-1.0915l-6.9446 3.4233q-2.1527 1.0611-1.0915 3.2138z" clip-path="url(#a)" fill="#fff" stroke="#fff"/>
<g clip-path="url(#a)">
<g transform="translate(1040.5 105.34) rotate(63.759) scale(.08 -.08)">
<use xlink:href="#q"/>
<use x="55.744141" xlink:href="#p"/>
</g>
</g>
<path d="m229.54 398.37 6.1-7.9445q1.4616-1.9036-0.44198-3.3652l-6.1411-4.7152q-1.9036-1.4616-3.3652 0.44198l-6.1 7.9445q-1.4616 1.9036 0.44198 3.3652l6.1411 4.7152q1.9036 1.4616 3.3652-0.44198z" clip-path="url(#a)" fill="#fff" stroke="#fff"/>
<g clip-path="url(#a)">
<g transform="translate(226.32 395.9) rotate(-52.482) scale(.08 -.08)">
<use xlink:href="#q"/>
<use x="55.712891" xlink:href="#w"/>
</g>
</g>
<path d="m304.37 260.32 7.5928-6.4034q1.8347-1.5473 0.28739-3.3819l-4.9915-5.9187q-1.5473-1.8347-3.3819-0.28739l-7.5928 6.4034q-1.8347 1.5473-0.28739 3.3819l4.9915 5.9187q1.5473 1.8347 3.3819 0.28739z" clip-path="url(#a)" fill="#fff" stroke="#fff"/>
<g clip-path="url(#a)">
<g transform="translate(301.75 257.21) rotate(-40.143) scale(.08 -.08)">
<use xlink:href="#q"/>
<use x="55.744141" xlink:href="#p"/>
</g>
</g>
<path d="m626.48 256.97 9.5398 2.7653q2.3051 0.66818 2.9733-1.6369l2.1556-7.4364q0.66818-2.3051-1.6369-2.9733l-9.5398-2.7653q-2.3051-0.66818-2.9733 1.6369l-2.1556 7.4364q-0.66818 2.3051 1.6369 2.9733z" clip-path="url(#a)" fill="#fff" stroke="#fff"/>
<g clip-path="url(#a)">
<g transform="translate(627.61 253.06) rotate(16.165) scale(.08 -.08)">
<use xlink:href="#q"/>
<use x="55.744141" xlink:href="#p"/>
</g>
</g>
<path d="m680.7 650.78v35.285q0 2.4 2.4 2.4h7.7425q2.4 0 2.4-2.4v-35.285q0-2.4-2.4-2.4h-7.7425q-2.4 0-2.4 2.4z" clip-path="url(#a)" fill="#fff" stroke="#fff"/>
<g clip-path="url(#a)">
<g transform="translate(684.77 650.78) rotate(90) scale(.08 -.08)">
<use xlink:href="#l"/>
<use x="60.818359" xlink:href="#g"/>
<use x="122.341797" xlink:href="#f"/>
<use x="163.439453" xlink:href="#j"/>
<use x="260.851562" xlink:href="#d"/>
<use x="288.634766" xlink:href="#h"/>
<use x="352.013672" xlink:href="#i"/>
<use x="413.292969" xlink:href="#k"/>
</g>
</g>
<path d="m728.4 650.78v35.285q0 2.4 2.4 2.4h7.7425q2.4 0 2.4-2.4v-35.285q0-2.4-2.4-2.4h-7.7425q-2.4 0-2.4 2.4z" clip-path="url(#a)" fill="#fff" stroke="#fff"/>
<g clip-path="url(#a)">
<g transform="translate(732.46 650.78) rotate(90) scale(.08 -.08)">
<use xlink:href="#l"/>
<use x="60.818359" xlink:href="#g"/>
<use x="122.341797" xlink:href="#f"/>
<use x="163.439453" xlink:href="#j"/>
<use x="260.851562" xlink:href="#d"/>
<use x="288.634766" xlink:href="#h"/>
<use x="352.013672" xlink:href="#i"/>
<use x="413.292969" xlink:href="#k"/>
</g>
</g>
<path d="m1396.1 650.78v35.285q0 2.4 2.4 2.4h7.7425q2.4 0 2.4-2.4v-35.285q0-2.4-2.4-2.4h-7.7425q-2.4 0-2.4 2.4z" clip-path="url(#a)" fill="#fff" stroke="#fff"/>
<g clip-path="url(#a)">
<g transform="translate(1400.1 650.78) rotate(90) scale(.08 -.08)">
<use xlink:href="#l"/>
<use x="60.818359" xlink:href="#g"/>
<use x="122.341797" xlink:href="#f"/>
<use x="163.439453" xlink:href="#j"/>
<use x="260.851562" xlink:href="#d"/>
<use x="288.634766" xlink:href="#h"/>
<use x="352.013672" xlink:href="#i"/>
<use x="413.292969" xlink:href="#k"/>
</g>
</g>
<defs>
<path id="b" d="m0 8.6603c2.2967 0 4.4997-0.9125 6.1237-2.5365 1.624-1.624 2.5365-3.827 2.5365-6.1237s-0.9125-4.4997-2.5365-6.1237c-1.624-1.624-3.827-2.5365-6.1237-2.5365s-4.4997 0.9125-6.1237 2.5365c-1.624 1.624-2.5365 3.827-2.5365 6.1237s0.9125 4.4997 2.5365 6.1237c1.624 1.624 3.827 2.5365 6.1237 2.5365z"/>
</defs>
<g clip-path="url(#a)">
<use x="66.990265" y="737.074782" fill="#ffffff" stroke="#ffffff" xlink:href="#b"/>
</g>
<g clip-path="url(#a)">
<use x="114.681436" y="737.074782" fill="#ffffff" stroke="#ffffff" xlink:href="#b"/>
</g>
<g clip-path="url(#a)">
<use x="162.372608" y="737.074782" fill="#ffffff" stroke="#ffffff" xlink:href="#b"/>
</g>
<g clip-path="url(#a)">
<use x="210.06378" y="737.074782" fill="#ffffff" stroke="#ffffff" xlink:href="#b"/>
</g>
<g clip-path="url(#a)">
<use x="257.754951" y="737.074782" fill="#ffffff" stroke="#ffffff" xlink:href="#b"/>
</g>
<g clip-path="url(#a)">
<use x="305.446123" y="737.074782" fill="#ffffff" stroke="#ffffff" xlink:href="#b"/>
</g>
<g clip-path="url(#a)">
<use x="353.137294" y="737.074782" fill="#ffffff" stroke="#ffffff" xlink:href="#b"/>
</g>
<g clip-path="url(#a)">
<use x="400.828466" y="737.074782" fill="#ffffff" stroke="#ffffff" xlink:href="#b"/>
</g>
<g clip-path="url(#a)">
<use x="448.519637" y="737.074782" fill="#ffffff" stroke="#ffffff" xlink:href="#b"/>
</g>
<g clip-path="url(#a)">
<use x="496.210809" y="737.074782" fill="#ffffff" stroke="#ffffff" xlink:href="#b"/>
</g>
<g clip-path="url(#a)">
<use x="543.90198" y="737.074782" fill="#ffffff" stroke="#ffffff" xlink:href="#b"/>
</g>
<g clip-path="url(#a)">
<use x="591.593152" y="737.074782" fill="#ffffff" stroke="#ffffff" xlink:href="#b"/>
</g>
<g clip-path="url(#a)">
<use x="639.284324" y="737.074782" fill="#ffffff" stroke="#ffffff" xlink:href="#b"/>
</g>
<g clip-path="url(#a)">
<use x="686.975495" y="737.074782" fill="#ffffff" stroke="#ffffff" xlink:href="#b"/>
</g>
<g clip-path="url(#a)">
<use x="734.666667" y="737.074782" fill="#ffffff" stroke="#ffffff" xlink:href="#b"/>
</g>
<g clip-path="url(#a)">
<use x="782.357838" y="737.074782" fill="#ffffff" stroke="#ffffff" xlink:href="#b"/>
</g>
<g clip-path="url(#a)">
<use x="830.04901" y="737.074782" fill="#ffffff" stroke="#ffffff" xlink:href="#b"/>
</g>
<g clip-path="url(#a)">
<use x="877.740181" y="737.074782" fill="#ffffff" stroke="#ffffff" xlink:href="#b"/>
</g>
<g clip-path="url(#a)">
<use x="925.431353" y="737.074782" fill="#ffffff" stroke="#ffffff" xlink:href="#b"/>
</g>
<g clip-path="url(#a)">
<use x="973.122524" y="737.074782" fill="#ffffff" stroke="#ffffff" xlink:href="#b"/>
</g>
<g clip-path="url(#a)">
<use x="1020.813696" y="737.074782" fill="#ffffff" stroke="#ffffff" xlink:href="#b"/>
</g>
<g clip-path="url(#a)">
<use x="1068.504868" y="737.074782" fill="#ffffff" stroke="#ffffff" xlink:href="#b"/>
</g>
<g clip-path="url(#a)">
<use x="1116.196039" y="737.074782" fill="#ffffff" stroke="#ffffff" xlink:href="#b"/>
</g>
<g clip-path="url(#a)">
<use x="1163.887211" y="737.074782" fill="#ffffff" stroke="#ffffff" xlink:href="#b"/>
</g>
<g clip-path="url(#a)">
<use x="1211.578382" y="737.074782" fill="#ffffff" stroke="#ffffff" xlink:href="#b"/>
</g>
<g clip-path="url(#a)">
<use x="1259.269554" y="737.074782" fill="#ffffff" stroke="#ffffff" xlink:href="#b"/>
</g>
<g clip-path="url(#a)">
<use x="1306.960725" y="737.074782" fill="#ffffff" stroke="#ffffff" xlink:href="#b"/>
</g>
<g clip-path="url(#a)">
<use x="1354.651897" y="737.074782" fill="#ffffff" stroke="#ffffff" xlink:href="#b"/>
</g>
<g clip-path="url(#a)">
<use x="1402.343068" y="737.074782" fill="#ffffff" stroke="#ffffff" xlink:href="#b"/>
</g>
<g clip-path="url(#a)">
<use x="676.472082" y="36.258552" fill="#ffffff" stroke="#ffffff" xlink:href="#b"/>
</g>
<g clip-path="url(#a)">
<use x="66.990265" y="599.776339" fill="#ffffff" stroke="#ffffff" xlink:href="#b"/>
</g>
<g clip-path="url(#a)">
<use x="219.99944" y="323.269481" fill="#ffffff" stroke="#ffffff" xlink:href="#b"/>
</g>
<g clip-path="url(#a)">
<use x="877.740181" y="323.269481" fill="#ffffff" stroke="#ffffff" xlink:href="#b"/>
</g>
<g clip-path="url(#a)">
<use x="1068.504868" y="599.776339" fill="#ffffff" stroke="#ffffff" xlink:href="#b"/>
</g>
<g clip-path="url(#a)">
<use x="1080.42766" y="181.380503" fill="#ffffff" stroke="#ffffff" xlink:href="#b"/>
</g>
<g clip-path="url(#a)">
<use x="1116.196039" y="599.776339" fill="#ffffff" stroke="#ffffff" xlink:href="#b"/>
</g>
<g clip-path="url(#a)">
<use x="1163.887211" y="599.776339" fill="#ffffff" stroke="#ffffff" xlink:href="#b"/>
</g>
<g clip-path="url(#a)">
<use x="1259.269554" y="323.269481" fill="#ffffff" stroke="#ffffff" xlink:href="#b"/>
</g>
<g clip-path="url(#a)">
<use x="1211.578382" y="599.776339" fill="#ffffff" stroke="#ffffff" xlink:href="#b"/>
</g>
<g clip-path="url(#a)">
<use x="1306.960725" y="462.477896" fill="#ffffff" stroke="#ffffff" xlink:href="#b"/>
</g>
<g clip-path="url(#a)">
<use x="1259.269554" y="599.776339" fill="#ffffff" stroke="#ffffff" xlink:href="#b"/>
</g>
<g clip-path="url(#a)">
<use x="1306.960725" y="599.776339" fill="#ffffff" stroke="#ffffff" xlink:href="#b"/>
</g>
<g clip-path="url(#a)">
<use x="1354.651897" y="599.776339" fill="#ffffff" stroke="#ffffff" xlink:href="#b"/>
</g>
<g clip-path="url(#a)">
<use x="782.357838" y="599.776339" fill="#ffffff" stroke="#ffffff" xlink:href="#b"/>
</g>
<g clip-path="url(#a)">
<use x="901.585767" y="462.477896" fill="#ffffff" stroke="#ffffff" xlink:href="#b"/>
</g>
<g clip-path="url(#a)">
<use x="830.04901" y="599.776339" fill="#ffffff" stroke="#ffffff" xlink:href="#b"/>
</g>
<g clip-path="url(#a)">
<use x="996.96811" y="462.477896" fill="#ffffff" stroke="#ffffff" xlink:href="#b"/>
</g>
<g clip-path="url(#a)">
<use x="973.122524" y="599.776339" fill="#ffffff" stroke="#ffffff" xlink:href="#b"/>
</g>
<g clip-path="url(#a)">
<use x="1020.813696" y="599.776339" fill="#ffffff" stroke="#ffffff" xlink:href="#b"/>
</g>
<g clip-path="url(#a)">
<use x="877.740181" y="599.776339" fill="#ffffff" stroke="#ffffff" xlink:href="#b"/>
</g>
<g clip-path="url(#a)">
<use x="925.431353" y="599.776339" fill="#ffffff" stroke="#ffffff" xlink:href="#b"/>
</g>
<g clip-path="url(#a)">
<use x="114.681436" y="599.776339" fill="#ffffff" stroke="#ffffff" xlink:href="#b"/>
</g>
<g clip-path="url(#a)">
<use x="162.372608" y="599.776339" fill="#ffffff" stroke="#ffffff" xlink:href="#b"/>
</g>
<g clip-path="url(#a)">
<use x="382.944276" y="462.477896" fill="#ffffff" stroke="#ffffff" xlink:href="#b"/>
</g>
<g clip-path="url(#a)">
<use x="210.06378" y="599.776339" fill="#ffffff" stroke="#ffffff" xlink:href="#b"/>
</g>
<g clip-path="url(#a)">
<use x="257.754951" y="599.776339" fill="#ffffff" stroke="#ffffff" xlink:href="#b"/>
</g>
<g clip-path="url(#a)">
<use x="305.446123" y="599.776339" fill="#ffffff" stroke="#ffffff" xlink:href="#b"/>
</g>
<g clip-path="url(#a)">
<use x="353.137294" y="599.776339" fill="#ffffff" stroke="#ffffff" xlink:href="#b"/>
</g>
<g clip-path="url(#a)">
<use x="400.828466" y="599.776339" fill="#ffffff" stroke="#ffffff" xlink:href="#b"/>
</g>
<g clip-path="url(#a)">
<use x="448.519637" y="599.776339" fill="#ffffff" stroke="#ffffff" xlink:href="#b"/>
</g>
<g clip-path="url(#a)">
<use x="591.593152" y="599.776339" fill="#ffffff" stroke="#ffffff" xlink:href="#b"/>
</g>
<g clip-path="url(#a)">
<use x="496.210809" y="599.776339" fill="#ffffff" stroke="#ffffff" xlink:href="#b"/>
</g>
<g clip-path="url(#a)">
<use x="1008.890903" y="36.258552" fill="#808080" stroke="#808080" xlink:href="#b"/>
</g>
<g clip-path="url(#a)">
<use x="388.243296" y="181.380503" fill="#808080" stroke="#808080" xlink:href="#b"/>
</g>
<g clip-path="url(#a)">
<use x="686.975495" y="599.776339" fill="#ffffff" stroke="#ffffff" xlink:href="#b"/>
</g>
<g clip-path="url(#a)">
<use x="734.666667" y="599.776339" fill="#ffffff" stroke="#ffffff" xlink:href="#b"/>
</g>
<g clip-path="url(#a)">
<use x="1402.343068" y="599.776339" fill="#ffffff" stroke="#ffffff" xlink:href="#b"/>
</g>
<g clip-path="url(#a)">
<defs>
<path id="r" d="m44.281 53.078v-8.5q-3.7969 1.9531-7.9062 2.9219-4.0938 0.98438-8.5 0.98438-6.6875 0-10.031-2.0469t-3.3438-6.1562q0-3.125 2.3906-4.9062t9.625-3.3906l3.0781-0.6875q9.5625-2.0469 13.594-5.7812t4.0312-10.422q0-7.625-6.0312-12.078-6.0312-4.4375-16.578-4.4375-4.3906 0-9.1562 0.85938t-10.031 2.5625v9.2812q4.9844-2.5938 9.8125-3.8906 4.8281-1.2812 9.5781-1.2812 6.3438 0 9.75 2.1719 3.4219 2.1719 3.4219 6.125 0 3.6562-2.4688 5.6094-2.4531 1.9531-10.812 3.7656l-3.125 0.73438q-8.3438 1.75-12.062 5.3906-3.7031 3.6406-3.7031 9.9844 0 7.7188 5.4688 11.906 5.4688 4.2031 15.531 4.2031 4.9688 0 9.3594-0.73438 4.4062-0.71875 8.1094-2.1875z"/>
<path id="m" d="m18.312 70.219v-15.531h18.5v-6.9844h-18.5v-29.688q0-6.6875 1.8281-8.5938t7.4531-1.9062h9.2188v-7.5156h-9.2188q-10.406 0-14.359 3.875-3.9531 3.8906-3.9531 14.141v29.688h-6.5938v6.9844h6.5938v15.531z"/>
</defs>
<g transform="translate(56.111 739.83) scale(.1 -.1)">
<use xlink:href="#ag"/>
<use x="57.410156" xlink:href="#d"/>
<use x="85.193359" xlink:href="#f"/>
<use x="126.306641" xlink:href="#r"/>
<use x="178.40625" xlink:href="#m"/>
</g>
</g>
<g clip-path="url(#a)">
<defs>
<path id="al" d="m48.781 52.594v-8.4062q-3.8125 2.1094-7.6406 3.1562t-7.7344 1.0469q-8.75 0-13.594-5.5469-4.8281-5.5312-4.8281-15.547t4.8281-15.562q4.8438-5.5312 13.594-5.5312 3.9062 0 7.7344 1.0469t7.6406 3.1562v-8.3125q-3.7656-1.75-7.7969-2.625-4.0156-0.89062-8.5625-0.89062-12.359 0-19.641 7.7656-7.2656 7.7656-7.2656 20.953 0 13.375 7.3438 21.031 7.3594 7.6719 20.156 7.6719 4.1406 0 8.0938-0.85938 3.9531-0.84375 7.6719-2.5469z"/>
<path id="az" d="m45.406 27.984q0 9.7656-4.0312 15.125-4.0156 5.375-11.297 5.375-7.2188 0-11.25-5.375-4.0312-5.3594-4.0312-15.125 0-9.7188 4.0312-15.094t11.25-5.375q7.2812 0 11.297 5.375 4.0312 5.375 4.0312 15.094zm8.9844-21.203q0-13.953-6.2031-20.766-6.1875-6.8125-18.984-6.8125-4.7344 0-8.9375 0.70312t-8.1562 2.1719v8.7344q3.9531-2.1406 7.8125-3.1562 3.8594-1.0312 7.8594-1.0312 8.8438 0 13.234 4.6094t4.3906 13.938v4.4531q-2.7812-4.8438-7.125-7.2344t-10.406-2.3906q-10.047 0-16.203 7.6562-6.1562 7.6719-6.1562 20.328 0 12.688 6.1562 20.344 6.1562 7.6719 16.203 7.6719 6.0625 0 10.406-2.3906t7.125-7.2188v8.2969h8.9844z"/>
</defs>
<g transform="translate(90.136 739.83) scale(.1 -.1)">
<use xlink:href="#i"/>
<use x="61.279297" xlink:href="#m"/>
<use x="100.488281" xlink:href="#m"/>
<use x="139.697266" xlink:href="#f"/>
<use x="180.810547" xlink:href="#i"/>
<use x="242.089844" xlink:href="#al"/>
<use x="297.070312" xlink:href="#m"/>
<use x="336.279297" xlink:href="#d"/>
<use x="364.0625" xlink:href="#h"/>
<use x="427.441406" xlink:href="#az"/>
</g>
</g>
<g clip-path="url(#a)">
<defs>
<path id="u" d="m30.609 48.391q-7.2188 0-11.422-5.6406t-4.2031-15.453 4.1719-15.453q4.1875-5.6406 11.453-5.6406 7.1875 0 11.375 5.6562 4.2031 5.6719 4.2031 15.438 0 9.7188-4.2031 15.406-4.1875 5.6875-11.375 5.6875zm0 7.6094q11.719 0 18.406-7.625 6.7031-7.6094 6.7031-21.078 0-13.422-6.7031-21.078-6.6875-7.6406-18.406-7.6406-11.766 0-18.438 7.6406-6.6562 7.6562-6.6562 21.078 0 13.469 6.6562 21.078 6.6719 7.625 18.438 7.625z"/>
</defs>
<g transform="translate(139.57 739.83) scale(.1 -.1)">
<use xlink:href="#i"/>
<use x="61.279297" xlink:href="#m"/>
<use x="100.488281" xlink:href="#m"/>
<use x="139.697266" xlink:href="#g"/>
<use x="201.220703" xlink:href="#h"/>
<use x="264.599609" xlink:href="#m"/>
<use x="303.808594" xlink:href="#d"/>
<use x="331.591797" xlink:href="#u"/>
<use x="392.773438" xlink:href="#h"/>
</g>
</g>
<g clip-path="url(#a)">
<g transform="translate(205.51 739.83) scale(.1 -.1)">
<use xlink:href="#d"/>
<use x="27.783203" xlink:href="#h"/>
</g>
</g>
<g clip-path="url(#a)">
<defs>
<path id="ad" d="m54.891 33.016v-33.016h-8.9844v32.719q0 7.7656-3.0312 11.609-3.0312 3.8594-9.0781 3.8594-7.2812 0-11.484-4.6406-4.2031-4.625-4.2031-12.641v-30.906h-9.0312v75.984h9.0312v-29.797q3.2344 4.9375 7.5938 7.375 4.375 2.4375 10.094 2.4375 9.4219 0 14.25-5.8281 4.8438-5.8281 4.8438-17.156z"/>
</defs>
<g transform="translate(249.55 739.83) scale(.1 -.1)">
<use xlink:href="#m"/>
<use x="39.208984" xlink:href="#ad"/>
<use x="102.587891" xlink:href="#g"/>
</g>
</g>
<g clip-path="url(#a)">
<defs>
<path id="c" d="m12.406 8.2969h16.109v55.625l-17.531-3.5156v8.9844l17.438 3.5156h9.8594v-64.609h16.109v-8.2969h-41.984z"/>
<path id="x" d="m10.984 1.5156v8.9844q3.7188-1.7656 7.5156-2.6875 3.8125-0.92188 7.4844-0.92188 9.7656 0 14.906 6.5625 5.1562 6.5625 5.8906 19.953-2.8281-4.2031-7.1875-6.4531-4.3438-2.25-9.6094-2.25-10.938 0-17.312 6.6094-6.375 6.625-6.375 18.109 0 11.219 6.6406 18 6.6406 6.7969 17.672 6.7969 12.656 0 19.312-9.7031 6.6719-9.6875 6.6719-28.141 0-17.234-8.1875-27.516-8.1719-10.281-21.984-10.281-3.7188 0-7.5312 0.73438-3.7969 0.73438-7.9062 2.2031zm19.625 30.906q6.6406 0 10.516 4.5312 3.8906 4.5469 3.8906 12.469 0 7.8594-3.8906 12.422-3.875 4.5625-10.516 4.5625t-10.516-4.5625-3.875-12.422q0-7.9219 3.875-12.469 3.875-4.5312 10.516-4.5312z"/>
<path id="y" d="m10.797 72.906h38.719v-8.3125h-29.688v-17.859q2.1406 0.73438 4.2812 1.0938 2.1562 0.35938 4.3125 0.35938 12.203 0 19.328-6.6875 7.1406-6.6875 7.1406-18.109 0-11.766-7.3281-18.297-7.3281-6.5156-20.656-6.5156-4.5938 0-9.3594 0.78125-4.75 0.78125-9.8281 2.3438v9.9219q4.3906-2.3906 9.0781-3.5625t9.9062-1.1719q8.4531 0 13.375 4.4375 4.9375 4.4375 4.9375 12.062 0 7.6094-4.9375 12.047-4.9219 4.4531-13.375 4.4531-3.9531 0-7.8906-0.875-3.9219-0.875-8.0156-2.7344z"/>
</defs>
<g transform="translate(292.72 739.83) scale(.1 -.1)">
<use xlink:href="#c"/>
<use x="63.623047" xlink:href="#x"/>
<use x="127.246094" xlink:href="#x"/>
<use x="190.869141" xlink:href="#y"/>
</g>
</g>
<g clip-path="url(#a)">
<defs>
<path id="aj" d="m8.5 21.578v33.109h8.9844v-32.766q0-7.7656 3.0156-11.656 3.0312-3.875 9.0938-3.875 7.2656 0 11.484 4.6406 4.2344 4.6406 4.2344 12.656v31h8.9844v-54.688h-8.9844v8.4062q-3.2656-4.9844-7.5938-7.4062-4.3125-2.4219-10.031-2.4219-9.4219 0-14.312 5.8594-4.875 5.8594-4.875 17.141z"/>
</defs>
<g transform="translate(338.36 739.83) scale(.1 -.1)">
<use xlink:href="#j"/>
<use x="97.412109" xlink:href="#aj"/>
<use x="160.791016" xlink:href="#r"/>
<use x="212.890625" xlink:href="#d"/>
<use x="240.673828" xlink:href="#al"/>
</g>
</g>
<g clip-path="url(#a)">
<defs>
<path id="av" d="m2.9844 54.688h9.5156l17.094-45.891 17.094 45.891h9.5156l-20.516-54.688h-12.203z"/>
<path id="ak" d="m45.406 46.391v29.594h8.9844v-75.984h-8.9844v8.2031q-2.8281-4.875-7.1562-7.25-4.3125-2.375-10.375-2.375-9.9062 0-16.141 7.9062-6.2188 7.9219-6.2188 20.812t6.2188 20.797q6.2344 7.9062 16.141 7.9062 6.0625 0 10.375-2.375 4.3281-2.3594 7.1562-7.2344zm-30.609-19.094q0-9.9062 4.0781-15.547t11.203-5.6406 11.219 5.6406q4.1094 5.6406 4.1094 15.547t-4.1094 15.547q-4.0938 5.6406-11.219 5.6406t-11.203-5.6406-4.0781-15.547z"/>
</defs>
<g transform="translate(387.17 739.83) scale(.1 -.1)">
<use xlink:href="#av"/>
<use x="59.179688" xlink:href="#d"/>
<use x="86.962891" xlink:href="#ak"/>
<use x="150.439453" xlink:href="#g"/>
<use x="211.962891" xlink:href="#u"/>
</g>
</g>
<g clip-path="url(#a)">
<defs>
<path id="v" d="m37.109 75.984v-7.4844h-8.5938q-4.8281 0-6.7188-1.9531-1.875-1.9531-1.875-7.0312v-4.8281h14.797v-6.9844h-14.797v-47.703h-9.0312v47.703h-8.5938v6.9844h8.5938v3.8125q0 9.125 4.25 13.297 4.25 4.1875 13.469 4.1875z"/>
</defs>
<g transform="translate(441.64 739.83) scale(.1 -.1)">
<use xlink:href="#v"/>
<use x="35.205078" xlink:href="#u"/>
<use x="96.386719" xlink:href="#f"/>
</g>
</g>
<g clip-path="url(#a)">
<defs>
<path id="an" d="m17.922 72.906v-27.109h-8.2969v27.109zm18.453 0v-27.109h-8.2969v27.109z"/>
</defs>
<g transform="translate(493.91 739.83) scale(.1 -.1)">
<use xlink:href="#an"/>
</g>
</g>
<g clip-path="url(#a)">
<defs>
<path id="ap" d="m9.8125 72.906h9.8594v-67.828q0-13.188-5-19.141t-16.094-5.9531h-3.75v8.2969h3.0781q6.5312 0 9.2188 3.6719 2.6875 3.6562 2.6875 13.125z"/>
</defs>
<g transform="translate(534.69 739.83) scale(.1 -.1)">
<use xlink:href="#ap"/>
<use x="29.492188" xlink:href="#aj"/>
<use x="92.871094" xlink:href="#r"/>
<use x="144.970703" xlink:href="#m"/>
</g>
</g>
<g clip-path="url(#a)">
<g transform="translate(588.53 739.83) scale(.1 -.1)">
<use xlink:href="#i"/>
</g>
</g>
<g clip-path="url(#a)">
<defs>
<path id="aq" d="m59.516 10.406v19.578h-16.109v8.1094h25.875v-31.312q-5.7031-4.0469-12.594-6.125-6.875-2.0781-14.688-2.0781-17.094 0-26.75 9.9844-9.6406 10-9.6406 27.812 0 17.875 9.6406 27.859 9.6562 9.9844 26.75 9.9844 7.125 0 13.547-1.7656 6.4219-1.75 11.844-5.1719v-10.5q-5.4688 4.6406-11.625 6.9844t-12.938 2.3438q-13.391 0-20.109-7.4688-6.7031-7.4688-6.7031-22.266 0-14.75 6.7031-22.219 6.7188-7.4688 20.109-7.4688 5.2188 0 9.3125 0.90625 4.1094 0.90625 7.375 2.8125z"/>
</defs>
<g transform="translate(630.58 739.83) scale(.1 -.1)">
<use xlink:href="#aq"/>
<use x="77.490234" xlink:href="#d"/>
<use x="105.273438" xlink:href="#f"/>
<use x="146.386719" xlink:href="#k"/>
</g>
</g>
<g clip-path="url(#a)">
<g transform="translate(684.68 739.83) scale(.1 -.1)">
<use xlink:href="#an"/>
</g>
</g>
<g clip-path="url(#a)">
<defs>
<path id="as" d="m11.719 12.406h10.297v-8.4062l-8-15.625h-6.2969l4 15.625z"/>
</defs>
<g transform="translate(733.08 739.83) scale(.1 -.1)">
<use xlink:href="#as"/>
</g>
</g>
<g clip-path="url(#a)">
<g transform="translate(764.76 739.83) scale(.1 -.1)">
<use xlink:href="#am"/>
<use x="63.476562" xlink:href="#m"/>
<use x="102.685547" xlink:href="#g"/>
<use x="164.208984" xlink:href="#v"/>
<use x="199.414062" xlink:href="#i"/>
<use x="260.693359" xlink:href="#h"/>
<use x="324.072266" xlink:href="#d"/>
</g>
</g>
<g clip-path="url(#a)">
<g transform="translate(826.06 739.83) scale(.1 -.1)">
<use xlink:href="#d"/>
<use x="27.783203" xlink:href="#r"/>
</g>
</g>
<g clip-path="url(#a)">
<defs>
<path id="ay" d="m9.0781 75.984h9.0312v-44.875l26.812 23.578h11.469l-29-25.578 30.234-29.109h-11.719l-27.797 26.703v-26.703h-9.0312z"/>
<path id="ao" d="m4.2031 54.688h8.9844l11.234-42.672 11.172 42.672h10.594l11.234-42.672 11.188 42.672h8.9844l-14.312-54.688h-10.594l-11.766 44.828-11.812-44.828h-10.609z"/>
</defs>
<g transform="translate(861.36 739.83) scale(.1 -.1)">
<use xlink:href="#ay"/>
<use x="57.910156" xlink:href="#h"/>
<use x="121.289062" xlink:href="#u"/>
<use x="182.470703" xlink:href="#ao"/>
<use x="264.257812" xlink:href="#h"/>
</g>
</g>
<g clip-path="url(#a)">
<g transform="translate(918.56 739.83) scale(.1 -.1)">
<use xlink:href="#v"/>
<use x="35.205078" xlink:href="#u"/>
<use x="96.386719" xlink:href="#f"/>
</g>
</g>
<g clip-path="url(#a)">
<g transform="translate(964.82 739.83) scale(.1 -.1)">
<use xlink:href="#ad"/>
<use x="63.378906" xlink:href="#g"/>
<use x="124.902344" xlink:href="#f"/>
</g>
</g>
<g clip-path="url(#a)">
<g transform="translate(1004.4 739.83) scale(.1 -.1)">
<use xlink:href="#j"/>
<use x="97.412109" xlink:href="#d"/>
<use x="125.195312" xlink:href="#ak"/>
<use x="188.671875" xlink:href="#f"/>
<use x="229.785156" xlink:href="#d"/>
<use x="257.568359" xlink:href="#v"/>
<use x="292.773438" xlink:href="#v"/>
</g>
</g>
<g clip-path="url(#a)">
<g transform="translate(1059.1 739.83) scale(.1 -.1)">
<use xlink:href="#i"/>
<use x="61.279297" xlink:href="#h"/>
<use x="124.658203" xlink:href="#ak"/>
</g>
</g>
<g clip-path="url(#a)">
<defs>
<path id="aw" d="m14.797 27.297q0-9.9062 4.0781-15.547t11.203-5.6406 11.219 5.6406q4.1094 5.6406 4.1094 15.547t-4.1094 15.547q-4.0938 5.6406-11.219 5.6406t-11.203-5.6406-4.0781-15.547zm30.609-19.094q-2.8281-4.875-7.1562-7.25-4.3125-2.375-10.375-2.375-9.9062 0-16.141 7.9062-6.2188 7.9219-6.2188 20.812t6.2188 20.797q6.2344 7.9062 16.141 7.9062 6.0625 0 10.375-2.375 4.3281-2.3594 7.1562-7.2344v8.2969h8.9844v-75.484h-8.9844z"/>
<path id="at" d="m32.172-5.0781q-3.7969-9.7656-7.4219-12.734-3.6094-2.9844-9.6562-2.9844h-7.1875v7.5156h5.2812q3.7031 0 5.75 1.7656 2.0625 1.75 4.5469 8.2969l1.6094 4.0938-22.109 53.812h9.5156l17.094-42.766 17.094 42.766h9.5156z"/>
</defs>
<g transform="translate(1090.4 739.83) scale(.1 -.1)">
<use xlink:href="#v"/>
<use x="35.205078" xlink:href="#f"/>
<use x="76.287109" xlink:href="#g"/>
<use x="137.810547" xlink:href="#aw"/>
<use x="201.287109" xlink:href="#aj"/>
<use x="264.666016" xlink:href="#g"/>
<use x="326.189453" xlink:href="#h"/>
<use x="389.568359" xlink:href="#m"/>
<use x="428.777344" xlink:href="#k"/>
<use x="456.560547" xlink:href="#at"/>
</g>
</g>
<g clip-path="url(#a)">
<g transform="translate(1149 739.83) scale(.1 -.1)">
<use xlink:href="#ao"/>
<use x="81.787109" xlink:href="#g"/>
<use x="143.310547" xlink:href="#i"/>
<use x="204.589844" xlink:href="#f"/>
<use x="245.703125" xlink:href="#r"/>
</g>
</g>
<g clip-path="url(#a)">
<g transform="translate(1197.8 739.83) scale(.1 -.1)">
<use xlink:href="#r"/>
<use x="52.099609" xlink:href="#ad"/>
<use x="115.478516" xlink:href="#d"/>
<use x="143.261719" xlink:href="#f"/>
<use x="184.375" xlink:href="#m"/>
<use x="223.583984" xlink:href="#r"/>
</g>
</g>
<g clip-path="url(#a)">
<g transform="translate(1249.1 739.83) scale(.1 -.1)">
<use xlink:href="#m"/>
<use x="39.208984" xlink:href="#ad"/>
<use x="102.587891" xlink:href="#i"/>
<use x="163.867188" xlink:href="#m"/>
</g>
</g>
<g clip-path="url(#a)">
<defs>
<path id="au" d="m54.891 54.688-19.781-26.609 20.797-28.078h-10.594l-15.922 21.484-15.906-21.484h-10.609l21.25 28.609-19.438 26.078h10.594l14.5-19.484 14.5 19.484z"/>
<path id="ax" d="m18.109 8.2031v-29h-9.0312v75.484h9.0312v-8.2969q2.8438 4.875 7.1562 7.2344 4.3281 2.375 10.328 2.375 9.9688 0 16.188-7.9062 6.2344-7.9062 6.2344-20.797t-6.2344-20.812q-6.2188-7.9062-16.188-7.9062-6 0-10.328 2.375-4.3125 2.375-7.1562 7.25zm30.578 19.094q0 9.9062-4.0781 15.547t-11.203 5.6406q-7.1406 0-11.219-5.6406t-4.0781-15.547 4.0781-15.547 11.219-5.6406q7.125 0 11.203 5.6406t4.0781 15.547z"/>
</defs>
<g transform="translate(1289 739.83) scale(.1 -.1)">
<use xlink:href="#g"/>
<use x="61.507812" xlink:href="#au"/>
<use x="120.6875" xlink:href="#ax"/>
<use x="184.164062" xlink:href="#u"/>
<use x="245.345703" xlink:href="#r"/>
<use x="297.445312" xlink:href="#g"/>
</g>
</g>
<g clip-path="url(#a)">
<g transform="translate(1351.3 739.83) scale(.1 -.1)">
<use xlink:href="#d"/>
<use x="27.783203" xlink:href="#m"/>
</g>
</g>
<g clip-path="url(#a)">
<defs>
<path id="e" d="m10.688 12.406h10.312v-12.406h-10.312z"/>
</defs>
<g transform="translate(1400.8 739.83) scale(.1 -.1)">
<use xlink:href="#e"/>
</g>
</g>
<g clip-path="url(#a)">
<g transform="translate(668.52 39.018) scale(.1 -.1)">
<use xlink:href="#c"/>
<use x="63.623047" xlink:href="#e"/>
<use x="95.410156" xlink:href="#c"/>
</g>
</g>
<g clip-path="url(#a)">
<defs>
<path id="o" d="m19.188 8.2969h34.422v-8.2969h-46.281v8.2969q5.6094 5.8125 15.297 15.594 9.7031 9.7969 12.188 12.641 4.7344 5.3125 6.6094 9 1.8906 3.6875 1.8906 7.25 0 5.8125-4.0781 9.4688-4.0781 3.6719-10.625 3.6719-4.6406 0-9.7969-1.6094-5.1406-1.6094-11-4.8906v9.9688q5.9531 2.3906 11.125 3.6094 5.1875 1.2188 9.4844 1.2188 11.328 0 18.062-5.6719 6.7344-5.6562 6.7344-15.125 0-4.5-1.6875-8.5312-1.6719-4.0156-6.125-9.4844-1.2188-1.4219-7.7656-8.1875-6.5312-6.7656-18.453-18.922z"/>
</defs>
<g transform="translate(59.039 602.54) scale(.1 -.1)">
<use xlink:href="#c"/>
<use x="63.623047" xlink:href="#e"/>
<use x="95.410156" xlink:href="#o"/>
</g>
</g>
<g clip-path="url(#a)">
<defs>
<path id="n" d="m40.578 39.312q7.0781-1.5156 11.047-6.3125 3.9844-4.7812 3.9844-11.812 0-10.781-7.4219-16.703-7.4219-5.9062-21.094-5.9062-4.5781 0-9.4375 0.90625t-10.031 2.7188v9.5156q4.0938-2.3906 8.9688-3.6094 4.8906-1.2188 10.219-1.2188 9.2656 0 14.125 3.6562t4.8594 10.641q0 6.4531-4.5156 10.078-4.5156 3.6406-12.562 3.6406h-8.5v8.1094h8.8906q7.2656 0 11.125 2.9062t3.8594 8.375q0 5.6094-3.9844 8.6094-3.9688 3.0156-11.391 3.0156-4.0625 0-8.7031-0.89062-4.6406-0.875-10.203-2.7188v8.7812q5.625 1.5625 10.531 2.3438t9.25 0.78125q11.234 0 17.766-5.1094 6.5469-5.0938 6.5469-13.781 0-6.0625-3.4688-10.234t-9.8594-5.7812z"/>
</defs>
<g transform="translate(212.05 326.03) scale(.1 -.1)">
<use xlink:href="#c"/>
<use x="63.623047" xlink:href="#e"/>
<use x="95.410156" xlink:href="#n"/>
</g>
</g>
<g clip-path="url(#a)">
<defs>
<path id="t" d="m37.797 64.312-24.906-38.922h24.906zm-2.5938 8.5938h12.406v-47.516h10.406v-8.2031h-10.406v-17.188h-9.8125v17.188h-32.906v9.5156z"/>
</defs>
<g transform="translate(869.79 326.03) scale(.1 -.1)">
<use xlink:href="#c"/>
<use x="63.623047" xlink:href="#e"/>
<use x="95.410156" xlink:href="#t"/>
</g>
</g>
<g clip-path="url(#a)">
<g transform="translate(1060.6 602.54) scale(.1 -.1)">
<use xlink:href="#c"/>
<use x="63.623047" xlink:href="#e"/>
<use x="95.410156" xlink:href="#y"/>
</g>
</g>
<g clip-path="url(#a)">
<defs>
<path id="ab" d="m33.016 40.375q-6.6406 0-10.531-4.5469-3.875-4.5312-3.875-12.438 0-7.8594 3.875-12.438 3.8906-4.5625 10.531-4.5625t10.516 4.5625q3.875 4.5781 3.875 12.438 0 7.9062-3.875 12.438-3.875 4.5469-10.516 4.5469zm19.578 30.922v-8.9844q-3.7188 1.75-7.5 2.6719-3.7812 0.9375-7.5 0.9375-9.7656 0-14.922-6.5938-5.1406-6.5938-5.875-19.922 2.875 4.25 7.2188 6.5156 4.3594 2.2656 9.5781 2.2656 10.984 0 17.359-6.6719 6.375-6.6562 6.375-18.125 0-11.234-6.6406-18.031-6.6406-6.7812-17.672-6.7812-12.656 0-19.344 9.6875-6.6875 9.7031-6.6875 28.109 0 17.281 8.2031 27.562t22.016 10.281q3.7188 0 7.5-0.73438t7.8906-2.1875z"/>
</defs>
<g transform="translate(1072.5 184.14) scale(.1 -.1)">
<use xlink:href="#c"/>
<use x="63.623047" xlink:href="#e"/>
<use x="95.410156" xlink:href="#ab"/>
</g>
</g>
<g clip-path="url(#a)">
<defs>
<path id="ac" d="m31.781 66.406q-7.6094 0-11.453-7.5-3.8281-7.4844-3.8281-22.531 0-14.984 3.8281-22.484 3.8438-7.5 11.453-7.5 7.6719 0 11.5 7.5 3.8438 7.5 3.8438 22.484 0 15.047-3.8438 22.531-3.8281 7.5-11.5 7.5zm0 7.8125q12.266 0 18.734-9.7031 6.4688-9.6875 6.4688-28.141 0-18.406-6.4688-28.109-6.4688-9.6875-18.734-9.6875-12.25 0-18.719 9.6875-6.4688 9.7031-6.4688 28.109 0 18.453 6.4688 28.141 6.4688 9.7031 18.719 9.7031z"/>
</defs>
<g transform="translate(1105.1 602.54) scale(.1 -.1)">
<use xlink:href="#c"/>
<use x="63.623047" xlink:href="#e"/>
<use x="95.410156" xlink:href="#c"/>
<use x="159.033203" xlink:href="#ac"/>
</g>
</g>
<g clip-path="url(#a)">
<g transform="translate(1152.8 602.54) scale(.1 -.1)">
<use xlink:href="#c"/>
<use x="63.623047" xlink:href="#e"/>
<use x="95.410156" xlink:href="#c"/>
<use x="159.033203" xlink:href="#c"/>
</g>
</g>
<g clip-path="url(#a)">
<g transform="translate(1248.1 326.03) scale(.1 -.1)">
<use xlink:href="#c"/>
<use x="63.623047" xlink:href="#e"/>
<use x="95.410156" xlink:href="#c"/>
<use x="159.033203" xlink:href="#o"/>
</g>
</g>
<g clip-path="url(#a)">
<g transform="translate(1200.4 602.54) scale(.1 -.1)">
<use xlink:href="#c"/>
<use x="63.623047" xlink:href="#e"/>
<use x="95.410156" xlink:href="#c"/>
<use x="159.033203" xlink:href="#n"/>
</g>
</g>
<g clip-path="url(#a)">
<g transform="translate(1295.8 465.24) scale(.1 -.1)">
<use xlink:href="#c"/>
<use x="63.623047" xlink:href="#e"/>
<use x="95.410156" xlink:href="#c"/>
<use x="159.033203" xlink:href="#t"/>
</g>
</g>
<g clip-path="url(#a)">
<g transform="translate(1248.1 602.54) scale(.1 -.1)">
<use xlink:href="#c"/>
<use x="63.623047" xlink:href="#e"/>
<use x="95.410156" xlink:href="#c"/>
<use x="159.033203" xlink:href="#y"/>
</g>
</g>
<g clip-path="url(#a)">
<g transform="translate(1295.8 602.54) scale(.1 -.1)">
<use xlink:href="#c"/>
<use x="63.623047" xlink:href="#e"/>
<use x="95.410156" xlink:href="#c"/>
<use x="159.033203" xlink:href="#ab"/>
</g>
</g>
<g clip-path="url(#a)">
<defs>
<path id="ai" d="m8.2031 72.906h46.875v-4.2031l-26.469-68.703h-10.297l24.906 64.594h-35.016z"/>
</defs>
<g transform="translate(1343.5 602.54) scale(.1 -.1)">
<use xlink:href="#c"/>
<use x="63.623047" xlink:href="#e"/>
<use x="95.410156" xlink:href="#c"/>
<use x="159.033203" xlink:href="#ai"/>
</g>
</g>
<g clip-path="url(#a)">
<defs>
<path id="ah" d="m31.781 34.625q-7.0312 0-11.062-3.7656-4.0156-3.7656-4.0156-10.344 0-6.5938 4.0156-10.359 4.0312-3.7656 11.062-3.7656t11.078 3.7812q4.0625 3.7969 4.0625 10.344 0 6.5781-4.0312 10.344-4.0156 3.7656-11.109 3.7656zm-9.8594 4.1875q-6.3438 1.5625-9.8906 5.9062-3.5312 4.3594-3.5312 10.609 0 8.7344 6.2188 13.812 6.2344 5.0781 17.062 5.0781 10.891 0 17.094-5.0781t6.2031-13.812q0-6.25-3.5469-10.609-3.5312-4.3438-9.8281-5.9062 7.125-1.6562 11.094-6.5 3.9844-4.8281 3.9844-11.797 0-10.609-6.4688-16.281-6.4688-5.6562-18.531-5.6562-12.047 0-18.531 5.6562-6.4688 5.6719-6.4688 16.281 0 6.9688 4 11.797 4.0156 4.8438 11.141 6.5zm-3.6094 15.578q0-5.6562 3.5312-8.8281 3.5469-3.1719 9.9375-3.1719 6.3594 0 9.9375 3.1719 3.5938 3.1719 3.5938 8.8281 0 5.6719-3.5938 8.8438-3.5781 3.1719-9.9375 3.1719-6.3906 0-9.9375-3.1719-3.5312-3.1719-3.5312-8.8438z"/>
</defs>
<g transform="translate(771.23 602.54) scale(.1 -.1)">
<use xlink:href="#c"/>
<use x="63.623047" xlink:href="#e"/>
<use x="95.410156" xlink:href="#c"/>
<use x="159.033203" xlink:href="#ah"/>
</g>
</g>
<g clip-path="url(#a)">
<g transform="translate(890.45 465.24) scale(.1 -.1)">
<use xlink:href="#c"/>
<use x="63.623047" xlink:href="#e"/>
<use x="95.410156" xlink:href="#c"/>
<use x="159.033203" xlink:href="#x"/>
</g>
</g>
<g clip-path="url(#a)">
<g transform="translate(818.92 602.54) scale(.1 -.1)">
<use xlink:href="#c"/>
<use x="63.623047" xlink:href="#e"/>
<use x="95.410156" xlink:href="#o"/>
<use x="159.033203" xlink:href="#ac"/>
</g>
</g>
<g clip-path="url(#a)">
<g transform="translate(985.84 465.24) scale(.1 -.1)">
<use xlink:href="#c"/>
<use x="63.623047" xlink:href="#e"/>
<use x="95.410156" xlink:href="#o"/>
<use x="159.033203" xlink:href="#c"/>
</g>
</g>
<g clip-path="url(#a)">
<g transform="translate(961.99 602.54) scale(.1 -.1)">
<use xlink:href="#c"/>
<use x="63.623047" xlink:href="#e"/>
<use x="95.410156" xlink:href="#o"/>
<use x="159.033203" xlink:href="#o"/>
</g>
</g>
<g clip-path="url(#a)">
<g transform="translate(1009.7 602.54) scale(.1 -.1)">
<use xlink:href="#c"/>
<use x="63.623047" xlink:href="#e"/>
<use x="95.410156" xlink:href="#o"/>
<use x="159.033203" xlink:href="#n"/>
</g>
</g>
<g clip-path="url(#a)">
<g transform="translate(866.61 602.54) scale(.1 -.1)">
<use xlink:href="#c"/>
<use x="63.623047" xlink:href="#e"/>
<use x="95.410156" xlink:href="#o"/>
<use x="159.033203" xlink:href="#t"/>
</g>
</g>
<g clip-path="url(#a)">
<g transform="translate(914.3 602.54) scale(.1 -.1)">
<use xlink:href="#c"/>
<use x="63.623047" xlink:href="#e"/>
<use x="95.410156" xlink:href="#o"/>
<use x="159.033203" xlink:href="#y"/>
</g>
</g>
<g clip-path="url(#a)">
<g transform="translate(103.55 602.54) scale(.1 -.1)">
<use xlink:href="#c"/>
<use x="63.623047" xlink:href="#e"/>
<use x="95.410156" xlink:href="#o"/>
<use x="159.033203" xlink:href="#ab"/>
</g>
</g>
<g clip-path="url(#a)">
<g transform="translate(151.24 602.54) scale(.1 -.1)">
<use xlink:href="#c"/>
<use x="63.623047" xlink:href="#e"/>
<use x="95.410156" xlink:href="#o"/>
<use x="159.033203" xlink:href="#ai"/>
</g>
</g>
<g clip-path="url(#a)">
<g transform="translate(371.81 465.24) scale(.1 -.1)">
<use xlink:href="#c"/>
<use x="63.623047" xlink:href="#e"/>
<use x="95.410156" xlink:href="#o"/>
<use x="159.033203" xlink:href="#ah"/>
</g>
</g>
<g clip-path="url(#a)">
<g transform="translate(198.93 602.54) scale(.1 -.1)">
<use xlink:href="#c"/>
<use x="63.623047" xlink:href="#e"/>
<use x="95.410156" xlink:href="#o"/>
<use x="159.033203" xlink:href="#x"/>
</g>
</g>
<g clip-path="url(#a)">
<g transform="translate(246.62 602.54) scale(.1 -.1)">
<use xlink:href="#c"/>
<use x="63.623047" xlink:href="#e"/>
<use x="95.410156" xlink:href="#n"/>
<use x="159.033203" xlink:href="#ac"/>
</g>
</g>
<g clip-path="url(#a)">
<g transform="translate(294.31 602.54) scale(.1 -.1)">
<use xlink:href="#c"/>
<use x="63.623047" xlink:href="#e"/>
<use x="95.410156" xlink:href="#n"/>
<use x="159.033203" xlink:href="#c"/>
</g>
</g>
<g clip-path="url(#a)">
<g transform="translate(342 602.54) scale(.1 -.1)">
<use xlink:href="#c"/>
<use x="63.623047" xlink:href="#e"/>
<use x="95.410156" xlink:href="#n"/>
<use x="159.033203" xlink:href="#o"/>
</g>
</g>
<g clip-path="url(#a)">
<g transform="translate(389.7 602.54) scale(.1 -.1)">
<use xlink:href="#c"/>
<use x="63.623047" xlink:href="#e"/>
<use x="95.410156" xlink:href="#n"/>
<use x="159.033203" xlink:href="#n"/>
</g>
</g>
<g clip-path="url(#a)">
<g transform="translate(437.39 602.54) scale(.1 -.1)">
<use xlink:href="#c"/>
<use x="63.623047" xlink:href="#e"/>
<use x="95.410156" xlink:href="#n"/>
<use x="159.033203" xlink:href="#t"/>
</g>
</g>
<g clip-path="url(#a)">
<g transform="translate(580.46 602.54) scale(.1 -.1)">
<use xlink:href="#c"/>
<use x="63.623047" xlink:href="#e"/>
<use x="95.410156" xlink:href="#n"/>
<use x="159.033203" xlink:href="#y"/>
</g>
</g>
<g clip-path="url(#a)">
<g transform="translate(485.08 602.54) scale(.1 -.1)">
<use xlink:href="#c"/>
<use x="63.623047" xlink:href="#e"/>
<use x="95.410156" xlink:href="#n"/>
<use x="159.033203" xlink:href="#ab"/>
</g>
</g>
<g clip-path="url(#a)">
<g transform="translate(997.76 39.018) scale(.1 -.1)">
<use xlink:href="#c"/>
<use x="63.623047" xlink:href="#e"/>
<use x="95.410156" xlink:href="#n"/>
<use x="159.033203" xlink:href="#ai"/>
</g>
</g>
<g clip-path="url(#a)">
<g transform="translate(377.11 184.14) scale(.1 -.1)">
<use xlink:href="#c"/>
<use x="63.623047" xlink:href="#e"/>
<use x="95.410156" xlink:href="#n"/>
<use x="159.033203" xlink:href="#ah"/>
</g>
</g>
<g clip-path="url(#a)">
<g transform="translate(675.84 602.54) scale(.1 -.1)">
<use xlink:href="#c"/>
<use x="63.623047" xlink:href="#e"/>
<use x="95.410156" xlink:href="#n"/>
<use x="159.033203" xlink:href="#x"/>
</g>
</g>
<g clip-path="url(#a)">
<g transform="translate(723.53 602.54) scale(.1 -.1)">
<use xlink:href="#c"/>
<use x="63.623047" xlink:href="#e"/>
<use x="95.410156" xlink:href="#t"/>
<use x="159.033203" xlink:href="#ac"/>
</g>
</g>
<g clip-path="url(#a)">
<g transform="translate(1391.2 602.54) scale(.1 -.1)">
<use xlink:href="#c"/>
<use x="63.623047" xlink:href="#e"/>
<use x="95.410156" xlink:href="#t"/>
<use x="159.033203" xlink:href="#c"/>
</g>
</g>
<defs>
<clipPath id="a">
<rect width="1469.3" height="773.33"/>
</clipPath>
</defs>
</svg>
