<?xml version="1.0" encoding="UTF-8"?>
<!DOCTYPE svg  PUBLIC '-//W3C//DTD SVG 1.1//EN'  'http://www.w3.org/Graphics/SVG/1.1/DTD/svg11.dtd'>
<svg width="1368pt" height="720pt" version="1.1" viewBox="0 0 1368 720" xmlns="http://www.w3.org/2000/svg" xmlns:xlink="http://www.w3.org/1999/xlink">
<defs>
<style type="text/css">*{stroke-linecap:butt;stroke-linejoin:round;}</style>
</defs>
<path d="m0 720h1368v-720h-1368z" fill="#fff"/>
<g fill="none" stroke="#000">
<path d="m302.52 33.641-240.12 547.24" clip-path="url(#a)"/>
<path d="m302.52 33.641-1.0436 547.24" clip-path="url(#a)"/>
<path d="m302.52 33.641 331.96 114.33" clip-path="url(#a)"/>
<path d="m302.52 33.641-120.58 441.76" clip-path="url(#a)"/>
<path d="m302.52 33.641-64.797 441.76" clip-path="url(#a)"/>
<path d="m302.52 33.641 94.587 547.24" clip-path="url(#a)"/>
<path d="m62.4 580.88v105.48" clip-path="url(#a)"/>
<path d="m301.48 580.88v105.48" clip-path="url(#a)"/>
<path d="m634.48 147.97-189.55 432.91" clip-path="url(#a)"/>
<path d="m634.48 147.97-141.74 432.91" clip-path="url(#a)"/>
<path d="m634.48 147.97-58.062 327.44" clip-path="url(#a)"/>
<path d="m634.48 147.97 389.35 111.49" clip-path="url(#a)"/>
<path d="m181.94 475.4-71.723 105.48" clip-path="url(#a)"/>
<path d="m181.94 475.4-23.908 105.48" clip-path="url(#a)"/>
<path d="m181.94 475.4 23.908 105.48" clip-path="url(#a)"/>
<path d="m181.94 475.4 71.723 105.48" clip-path="url(#a)"/>
<path d="m237.72 475.4 111.57 105.48" clip-path="url(#a)"/>
<path d="m237.72 475.4-79.692 105.48" clip-path="url(#a)" stroke-dasharray="3.7,1.6"/>
<path d="m237.72 475.4-31.877 105.48" clip-path="url(#a)" stroke-dasharray="3.7,1.6"/>
<path d="m349.29 580.88v105.48" clip-path="url(#a)"/>
<path d="m110.22 580.88v105.48" clip-path="url(#a)"/>
<path d="m158.03 580.88v105.48" clip-path="url(#a)"/>
<path d="m205.85 580.88v105.48" clip-path="url(#a)"/>
<path d="m253.66 580.88v105.48" clip-path="url(#a)"/>
<path d="m444.92 580.88v105.48" clip-path="url(#a)"/>
<path d="m492.74 580.88v105.48" clip-path="url(#a)"/>
<path d="m576.42 475.4-35.862 105.48" clip-path="url(#a)"/>
<path d="m576.42 475.4 35.862 105.48" clip-path="url(#a)"/>
<path d="m1023.8 259.45-339.83 321.43" clip-path="url(#a)"/>
<path d="m1023.8 259.45-196.38 215.95" clip-path="url(#a)"/>
<path d="m1023.8 259.45-100.75 321.43" clip-path="url(#a)"/>
<path d="m1023.8 259.45-5.1231 215.95" clip-path="url(#a)"/>
<path d="m1023.8 259.45 126.37 109" clip-path="url(#a)"/>
<path d="m1023.8 259.45 233.95 321.43" clip-path="url(#a)"/>
<path d="m1023.8 259.45 281.77 321.43" clip-path="url(#a)"/>
<path d="m684 580.88v105.48" clip-path="url(#a)"/>
<path d="m827.45 475.4-47.815 105.48" clip-path="url(#a)"/>
<path d="m827.45 475.4 47.815 105.48" clip-path="url(#a)"/>
<path d="m923.08 580.88v105.48" clip-path="url(#a)"/>
<path d="m1018.7 475.4-47.815 105.48" clip-path="url(#a)"/>
<path d="m1018.7 475.4 47.815 105.48" clip-path="url(#a)"/>
<path d="m1018.7 475.4v105.48" clip-path="url(#a)"/>
<path d="m1150.2 368.46-35.862 212.42" clip-path="url(#a)"/>
<path d="m1150.2 368.46 35.862 106.94" clip-path="url(#a)"/>
<path d="m1257.8 580.88v105.48" clip-path="url(#a)"/>
<path d="m1114.3 580.88v105.48" clip-path="url(#a)"/>
<path d="m1186.1 475.4-23.908 105.48" clip-path="url(#a)"/>
<path d="m1186.1 475.4 23.908 105.48" clip-path="url(#a)"/>
<path d="m1162.2 580.88v105.48" clip-path="url(#a)"/>
<path d="m1210 580.88v105.48" clip-path="url(#a)"/>
<path d="m970.89 580.88v105.48" clip-path="url(#a)"/>
<path d="m1066.5 580.88v105.48" clip-path="url(#a)"/>
<path d="m779.63 580.88-47.815 105.48" clip-path="url(#a)"/>
<path d="m779.63 580.88v105.48" clip-path="url(#a)"/>
<path d="m779.63 580.88 47.815 105.48" clip-path="url(#a)"/>
<path d="m875.26 580.88v105.48" clip-path="url(#a)"/>
<path d="m540.55 580.88v105.48" clip-path="url(#a)"/>
<path d="m612.28 580.88-23.908 105.48" clip-path="url(#a)"/>
<path d="m612.28 580.88 23.908 105.48" clip-path="url(#a)"/>
<path d="m397.11 580.88v105.48" clip-path="url(#a)"/>
<path d="m1018.7 580.88v105.48" clip-path="url(#a)"/>
<path d="m1305.6 580.88v105.48" clip-path="url(#a)"/>
</g>
<path d="m187.31 311.82 1.791-4.0818q0.96433-2.1977-1.2334-3.1621l-7.09-3.111q-2.1977-0.96433-3.1621 1.2334l-1.791 4.0818q-0.96433 2.1977 1.2334 3.1621l7.09 3.111q2.1977 0.96433 3.1621-1.2334z" clip-path="url(#a)" fill="#fff" stroke="#fff"/>
<g clip-path="url(#a)">
<defs>
<path id="al" d="m9.8125 72.906h9.8594v-64.609h35.5v-8.2969h-45.359z"/>
</defs>
<g transform="translate(183.59 310.19) rotate(-66.309) scale(.08 -.08)">
<use xlink:href="#al"/>
</g>
</g>
<path d="m308.27 309.5 0.008501-4.4575q0.004576-2.4-2.3954-2.4046l-7.7425-0.014765q-2.4-0.004577-2.4046 2.3954l-0.0085 4.4575q-0.004577 2.4 2.3954 2.4046l7.7425 0.014765q2.4 0.004577 2.4046-2.3954z" clip-path="url(#a)" fill="#fff" stroke="#fff"/>
<g clip-path="url(#a)">
<g transform="translate(304.2 309.49) rotate(-89.891) scale(.08 -.08)">
<use xlink:href="#al"/>
</g>
</g>
<path d="m463.61 95.754 5.6883 1.9591q2.2692 0.78151 3.0507-1.4877l2.5212-7.3205q0.78151-2.2692-1.4877-3.0507l-5.6883-1.9591q-2.2692-0.78151-3.0507 1.4877l-2.5212 7.3205q-0.78151 2.2692 1.4877 3.0507z" clip-path="url(#a)" fill="#fff" stroke="#fff"/>
<g clip-path="url(#a)">
<defs>
<path id="ab" d="m9.8125 72.906h9.8594v-29.891h35.844v29.891h9.8594v-72.906h-9.8594v34.719h-35.844v-34.719h-9.8594z"/>
</defs>
<g transform="translate(464.94 91.911) rotate(19.004) scale(.08 -.08)">
<use xlink:href="#ab"/>
</g>
</g>
<path d="m247.49 259.08 1.5842-5.8039q0.63198-2.3153-1.6833-2.9473l-7.4692-2.0388q-2.3153-0.63198-2.9473 1.6833l-1.5842 5.8039q-0.63198 2.3153 1.6833 2.9473l7.4692 2.0388q2.3153 0.63198 2.9473-1.6833z" clip-path="url(#a)" fill="#fff" stroke="#fff"/>
<g clip-path="url(#a)">
<g transform="translate(243.57 258.01) rotate(-74.733) scale(.08 -.08)">
<use xlink:href="#ab"/>
</g>
</g>
<path d="m275.89 258.41 0.87312-5.9526q0.3483-2.3746-2.0263-2.7229l-7.6605-1.1236q-2.3746-0.3483-2.7229 2.0263l-0.87312 5.9526q-0.3483 2.3746 2.0263 2.7229l7.6605 1.1236q2.3746 0.3483 2.7229-2.0263z" clip-path="url(#a)" fill="#fff" stroke="#fff"/>
<g clip-path="url(#a)">
<g transform="translate(271.87 257.82) rotate(-81.655) scale(.08 -.08)">
<use xlink:href="#ab"/>
</g>
</g>
<path d="m343.14 305.44 0.99722 5.7695q0.40876 2.3649 2.7737 1.9562l7.6294-1.3187q2.3649-0.40876 1.9562-2.7737l-0.99721-5.7695q-0.40876-2.3649-2.7737-1.9562l-7.6294 1.3187q-2.3649 0.40876-1.9562 2.7737z" clip-path="url(#a)" fill="#fff" stroke="#fff"/>
<g clip-path="url(#a)">
<defs>
<path id="y" d="m8.6875 72.906h9.9219v-44.297q0-11.719 4.2344-16.875 4.25-5.1406 13.781-5.1406 9.4688 0 13.719 5.1406 4.25 5.1562 4.25 16.875v44.297h9.9062v-45.516q0-14.25-7.0625-21.531-7.0469-7.2812-20.812-7.2812-13.828 0-20.891 7.2812-7.0469 7.2812-7.0469 21.531z"/>
</defs>
<g transform="translate(347.14 304.75) rotate(80.194) scale(.08 -.08)">
<use xlink:href="#y"/>
</g>
</g>
<path d="m56.129 615.98v35.285q0 2.4 2.4 2.4h7.7425q2.4 0 2.4-2.4v-35.285q0-2.4-2.4-2.4h-7.7425q-2.4 0-2.4 2.4z" clip-path="url(#a)" fill="#fff" stroke="#fff"/>
<g clip-path="url(#a)">
<defs>
<path id="k" d="m-0.29688 72.906h61.672v-8.3125h-25.875v-64.594h-9.9062v64.594h-25.891z"/>
<path id="f" d="m56.203 29.594v-4.3906h-41.312q0.59375-9.2812 5.5938-14.141t13.938-4.8594q5.1719 0 10.031 1.2656t9.6562 3.8125v-8.5q-4.8438-2.0469-9.9219-3.125t-10.297-1.0781q-13.094 0-20.734 7.6094-7.6406 7.625-7.6406 20.625 0 13.422 7.25 21.297 7.25 7.8906 19.562 7.8906 11.031 0 17.453-7.1094 6.4219-7.0938 6.4219-19.297zm-8.9844 2.6406q-0.09375 7.3594-4.125 11.75-4.0312 4.4062-10.672 4.4062-7.5156 0-12.031-4.25t-5.2031-11.969z"/>
<path id="j" d="m41.109 46.297q-1.5156 0.875-3.2969 1.2812-1.7812 0.42188-3.9219 0.42188-7.625 0-11.703-4.9531t-4.0781-14.234v-28.812h-9.0312v54.688h9.0312v-8.5q2.8438 4.9844 7.375 7.3906 4.5469 2.4219 11.047 2.4219 0.92188 0 2.0469-0.125 1.125-0.10938 2.4844-0.35938z"/>
<path id="l" d="m52 44.188q3.375 6.0625 8.0625 8.9375t11.031 2.875q8.5469 0 13.188-5.9844 4.6406-5.9688 4.6406-17v-33.016h-9.0312v32.719q0 7.8594-2.7969 11.656-2.7812 3.8125-8.4844 3.8125-6.9844 0-11.047-4.6406-4.0469-4.625-4.0469-12.641v-30.906h-9.0312v32.719q0 7.9062-2.7812 11.688t-8.5938 3.7812q-6.8906 0-10.953-4.6562-4.0469-4.6562-4.0469-12.625v-30.906h-9.0312v54.688h9.0312v-8.5q3.0781 5.0312 7.375 7.4219t10.203 2.3906q5.9688 0 10.141-3.0312 4.1719-3.0156 6.1719-8.7812z"/>
<path id="g" d="m9.4219 54.688h8.9844v-54.688h-8.9844zm0 21.297h8.9844v-11.391h-8.9844z"/>
<path id="d" d="m54.891 33.016v-33.016h-8.9844v32.719q0 7.7656-3.0312 11.609-3.0312 3.8594-9.0781 3.8594-7.2812 0-11.484-4.6406-4.2031-4.625-4.2031-12.641v-30.906h-9.0312v54.688h9.0312v-8.5q3.2344 4.9375 7.5938 7.375 4.375 2.4375 10.094 2.4375 9.4219 0 14.25-5.8281 4.8438-5.8281 4.8438-17.156z"/>
<path id="e" d="m34.281 27.484q-10.891 0-15.094-2.4844t-4.2031-8.5q0-4.7812 3.1562-7.5938 3.1562-2.7969 8.5625-2.7969 7.4844 0 12 5.2969t4.5156 14.078v2zm17.922 3.7188v-31.203h-8.9844v8.2969q-3.0781-4.9688-7.6719-7.3438t-11.234-2.375q-8.3906 0-13.359 4.7188-4.9531 4.7188-4.9531 12.625 0 9.2188 6.1719 13.906 6.1875 4.6875 18.438 4.6875h12.609v0.89062q0 6.2031-4.0781 9.5938t-11.453 3.3906q-4.6875 0-9.1406-1.125-4.4375-1.125-8.5312-3.375v8.3125q4.9219 1.9062 9.5625 2.8438 4.6406 0.95312 9.0312 0.95312 11.875 0 17.734-6.1562 5.8594-6.1406 5.8594-18.641z"/>
<path id="i" d="m9.4219 75.984h8.9844v-75.984h-8.9844z"/>
</defs>
<g transform="translate(60.192 615.98) rotate(90) scale(.08 -.08)">
<use xlink:href="#k"/>
<use x="60.818359" xlink:href="#f"/>
<use x="122.341797" xlink:href="#j"/>
<use x="163.439453" xlink:href="#l"/>
<use x="260.851562" xlink:href="#g"/>
<use x="288.634766" xlink:href="#d"/>
<use x="352.013672" xlink:href="#e"/>
<use x="413.292969" xlink:href="#i"/>
</g>
</g>
<path d="m295.21 615.98v35.285q0 2.4 2.4 2.4h7.7425q2.4 0 2.4-2.4v-35.285q0-2.4-2.4-2.4h-7.7425q-2.4 0-2.4 2.4z" clip-path="url(#a)" fill="#fff" stroke="#fff"/>
<g clip-path="url(#a)">
<g transform="translate(299.27 615.98) rotate(90) scale(.08 -.08)">
<use xlink:href="#k"/>
<use x="60.818359" xlink:href="#f"/>
<use x="122.341797" xlink:href="#j"/>
<use x="163.439453" xlink:href="#l"/>
<use x="260.851562" xlink:href="#g"/>
<use x="288.634766" xlink:href="#d"/>
<use x="352.013672" xlink:href="#e"/>
<use x="413.292969" xlink:href="#i"/>
</g>
</g>
<path d="m544.35 369.45 2.195-5.013q0.96262-2.1985-1.2359-3.1611l-7.0924-3.1055q-2.1985-0.96262-3.1611 1.2359l-2.195 5.013q-0.96262 2.1985 1.2359 3.1611l7.0924 3.1055q2.1985 0.96262 3.1611-1.2359z" clip-path="url(#a)" fill="#fff" stroke="#fff"/>
<g clip-path="url(#a)">
<defs>
<path id="v" d="m34.188 63.188-13.391-36.281h26.812zm-5.5781 9.7188h11.188l27.781-72.906h-10.25l-6.6406 18.703h-32.859l-6.6406-18.703h-10.406z"/>
</defs>
<g transform="translate(540.62 367.82) rotate(-66.354) scale(.08 -.08)">
<use xlink:href="#v"/>
</g>
</g>
<path d="m568.82 368.67 1.5009-4.5843q0.74677-2.2809-1.5341-3.0276l-7.3582-2.4091q-2.2809-0.74677-3.0276 1.5341l-1.5009 4.5843q-0.74677 2.2809 1.5341 3.0276l7.3582 2.4091q2.2809 0.74677 3.0276-1.5341z" clip-path="url(#a)" fill="#fff" stroke="#fff"/>
<g clip-path="url(#a)">
<defs>
<path id="aa" d="m19.672 64.797v-27.391h12.406q6.8906 0 10.641 3.5625 3.7656 3.5625 3.7656 10.156 0 6.5469-3.7656 10.109-3.75 3.5625-10.641 3.5625zm-9.8594 8.1094h22.266q12.266 0 18.531-5.5469 6.2812-5.5469 6.2812-16.234 0-10.797-6.2812-16.312-6.2656-5.5156-18.531-5.5156h-12.406v-29.297h-9.8594z"/>
</defs>
<g transform="translate(564.96 367.4) rotate(-71.871) scale(.08 -.08)">
<use xlink:href="#aa"/>
</g>
</g>
<path d="m611.14 315.47 0.95548-5.3884q0.41903-2.3631-1.9441-2.7822l-7.6236-1.3518q-2.3631-0.41903-2.7822 1.9441l-0.95548 5.3884q-0.41903 2.3631 1.9441 2.7822l7.6236 1.3518q2.3631 0.41903 2.7822-1.9441z" clip-path="url(#a)" fill="#fff" stroke="#fff"/>
<g clip-path="url(#a)">
<g transform="translate(607.14 314.76) rotate(-79.945) scale(.08 -.08)">
<use xlink:href="#v"/>
</g>
</g>
<path d="m824.8 208.99 5.2611 1.5065q2.3073 0.66067 2.9679-1.6466l2.1313-7.4434q0.66067-2.3073-1.6466-2.9679l-5.2611-1.5065q-2.3073-0.66067-2.9679 1.6466l-2.1313 7.4434q-0.66067 2.3073 1.6466 2.9679z" clip-path="url(#a)" fill="#fff" stroke="#fff"/>
<g clip-path="url(#a)">
<g transform="translate(825.92 205.08) rotate(15.979) scale(.08 -.08)">
<use xlink:href="#v"/>
</g>
</g>
<path d="m149.97 533.57 2.5873-3.8049q1.3495-1.9846-0.63512-3.3342l-6.4025-4.3536q-1.9846-1.3495-3.3342 0.63512l-2.5873 3.8049q-1.3495 1.9846 0.63512 3.3342l6.4025 4.3536q1.9846 1.3495 3.3342-0.63512z" clip-path="url(#a)" fill="#fff" stroke="#fff"/>
<g clip-path="url(#a)">
<defs>
<path id="ac" d="m9.8125 72.906h41.891v-8.3125h-32.031v-21.484h28.906v-8.2969h-28.906v-34.812h-9.8594z"/>
</defs>
<g transform="translate(146.61 531.29) rotate(-55.785) scale(.08 -.08)">
<use xlink:href="#ac"/>
</g>
</g>
<path d="m175.56 531.91 1.0801-4.7654q0.53053-2.3406-1.8101-2.8712l-7.551-1.7115q-2.3406-0.53053-2.8712 1.8101l-1.0801 4.7654q-0.53053 2.3406 1.8101 2.8712l7.551 1.7115q2.3406 0.53053 2.8712-1.8101z" clip-path="url(#a)" fill="#fff" stroke="#fff"/>
<g clip-path="url(#a)">
<g transform="translate(171.6 531.01) rotate(-77.229) scale(.08 -.08)">
<use xlink:href="#k"/>
</g>
</g>
<path d="m187.17 526.86 1.2097 5.3371q0.53053 2.3406 2.8712 1.8101l7.551-1.7115q2.3406-0.53053 1.8101-2.8712l-1.2097-5.3371q-0.53053-2.3406-2.8712-1.8101l-7.551 1.7115q-2.3406 0.53053-1.8101 2.8712z" clip-path="url(#a)" fill="#fff" stroke="#fff"/>
<g clip-path="url(#a)">
<g transform="translate(191.13 525.96) rotate(77.229) scale(.08 -.08)">
<use xlink:href="#v"/>
</g>
</g>
<path d="m211.26 529.67 2.7124 3.9889q1.3495 1.9846 3.3342 0.63512l6.4025-4.3536q1.9846-1.3495 0.63512-3.3342l-2.7124-3.9889q-1.3495-1.9846-3.3342-0.63512l-6.4025 4.3536q-1.9846 1.3495-0.63512 3.3342z" clip-path="url(#a)" fill="#fff" stroke="#fff"/>
<g clip-path="url(#a)">
<g transform="translate(214.62 527.39) rotate(55.785) scale(.08 -.08)">
<use xlink:href="#aa"/>
</g>
</g>
<path d="m287.45 531.04 3.5053 3.3139q1.744 1.6488 3.3928-0.095221l5.319-5.6262q1.6488-1.744-0.095221-3.3928l-3.5053-3.3139q-1.744-1.6488-3.3928 0.095221l-5.319 5.6262q-1.6488 1.744 0.095221 3.3928z" clip-path="url(#a)" fill="#fff" stroke="#fff"/>
<g clip-path="url(#a)">
<g transform="translate(290.24 528.09) rotate(43.392) scale(.08 -.08)">
<use xlink:href="#aa"/>
</g>
</g>
<path d="m201.41 533.87 2.9455-3.8986q1.4468-1.9149-0.46812-3.3617l-6.1775-4.6674q-1.9149-1.4468-3.3617 0.46812l-2.9455 3.8986q-1.4468 1.9149 0.46812 3.3617l6.1775 4.6674q1.9149 1.4468 3.3617-0.46812z" clip-path="url(#a)" fill="#fff" stroke="#fff"/>
<g clip-path="url(#a)">
<g transform="translate(198.17 531.42) rotate(-52.928) scale(.08 -.08)">
<use xlink:href="#k"/>
</g>
</g>
<path d="m227 532.58 1.5832-5.2385q0.6943-2.2974-1.6031-2.9917l-7.4114-2.2398q-2.2974-0.6943-2.9917 1.6031l-1.5832 5.2385q-0.6943 2.2974 1.6031 2.9917l7.4114 2.2398q2.2974 0.6943 2.9917-1.6031z" clip-path="url(#a)" fill="#fff" stroke="#fff"/>
<g clip-path="url(#a)">
<g transform="translate(223.11 531.4) rotate(-73.184) scale(.08 -.08)">
<use xlink:href="#v"/>
</g>
</g>
<path d="m343.02 615.98v35.285q0 2.4 2.4 2.4h7.7425q2.4 0 2.4-2.4v-35.285q0-2.4-2.4-2.4h-7.7425q-2.4 0-2.4 2.4z" clip-path="url(#a)" fill="#fff" stroke="#fff"/>
<g clip-path="url(#a)">
<g transform="translate(347.08 615.98) rotate(90) scale(.08 -.08)">
<use xlink:href="#k"/>
<use x="60.818359" xlink:href="#f"/>
<use x="122.341797" xlink:href="#j"/>
<use x="163.439453" xlink:href="#l"/>
<use x="260.851562" xlink:href="#g"/>
<use x="288.634766" xlink:href="#d"/>
<use x="352.013672" xlink:href="#e"/>
<use x="413.292969" xlink:href="#i"/>
</g>
</g>
<path d="m103.94 615.98v35.285q0 2.4 2.4 2.4h7.7425q2.4 0 2.4-2.4v-35.285q0-2.4-2.4-2.4h-7.7425q-2.4 0-2.4 2.4z" clip-path="url(#a)" fill="#fff" stroke="#fff"/>
<g clip-path="url(#a)">
<g transform="translate(108.01 615.98) rotate(90) scale(.08 -.08)">
<use xlink:href="#k"/>
<use x="60.818359" xlink:href="#f"/>
<use x="122.341797" xlink:href="#j"/>
<use x="163.439453" xlink:href="#l"/>
<use x="260.851562" xlink:href="#g"/>
<use x="288.634766" xlink:href="#d"/>
<use x="352.013672" xlink:href="#e"/>
<use x="413.292969" xlink:href="#i"/>
</g>
</g>
<path d="m151.76 615.98v35.285q0 2.4 2.4 2.4h7.7425q2.4 0 2.4-2.4v-35.285q0-2.4-2.4-2.4h-7.7425q-2.4 0-2.4 2.4z" clip-path="url(#a)" fill="#fff" stroke="#fff"/>
<g clip-path="url(#a)">
<g transform="translate(155.82 615.98) rotate(90) scale(.08 -.08)">
<use xlink:href="#k"/>
<use x="60.818359" xlink:href="#f"/>
<use x="122.341797" xlink:href="#j"/>
<use x="163.439453" xlink:href="#l"/>
<use x="260.851562" xlink:href="#g"/>
<use x="288.634766" xlink:href="#d"/>
<use x="352.013672" xlink:href="#e"/>
<use x="413.292969" xlink:href="#i"/>
</g>
</g>
<path d="m199.57 615.98v35.285q0 2.4 2.4 2.4h7.7425q2.4 0 2.4-2.4v-35.285q0-2.4-2.4-2.4h-7.7425q-2.4 0-2.4 2.4z" clip-path="url(#a)" fill="#fff" stroke="#fff"/>
<g clip-path="url(#a)">
<g transform="translate(203.64 615.98) rotate(90) scale(.08 -.08)">
<use xlink:href="#k"/>
<use x="60.818359" xlink:href="#f"/>
<use x="122.341797" xlink:href="#j"/>
<use x="163.439453" xlink:href="#l"/>
<use x="260.851562" xlink:href="#g"/>
<use x="288.634766" xlink:href="#d"/>
<use x="352.013672" xlink:href="#e"/>
<use x="413.292969" xlink:href="#i"/>
</g>
</g>
<path d="m247.39 615.98v35.285q0 2.4 2.4 2.4h7.7425q2.4 0 2.4-2.4v-35.285q0-2.4-2.4-2.4h-7.7425q-2.4 0-2.4 2.4z" clip-path="url(#a)" fill="#fff" stroke="#fff"/>
<g clip-path="url(#a)">
<g transform="translate(251.45 615.98) rotate(90) scale(.08 -.08)">
<use xlink:href="#k"/>
<use x="60.818359" xlink:href="#f"/>
<use x="122.341797" xlink:href="#j"/>
<use x="163.439453" xlink:href="#l"/>
<use x="260.851562" xlink:href="#g"/>
<use x="288.634766" xlink:href="#d"/>
<use x="352.013672" xlink:href="#e"/>
<use x="413.292969" xlink:href="#i"/>
</g>
</g>
<path d="m438.65 615.98v35.285q0 2.4 2.4 2.4h7.7425q2.4 0 2.4-2.4v-35.285q0-2.4-2.4-2.4h-7.7425q-2.4 0-2.4 2.4z" clip-path="url(#a)" fill="#fff" stroke="#fff"/>
<g clip-path="url(#a)">
<g transform="translate(442.72 615.98) rotate(90) scale(.08 -.08)">
<use xlink:href="#k"/>
<use x="60.818359" xlink:href="#f"/>
<use x="122.341797" xlink:href="#j"/>
<use x="163.439453" xlink:href="#l"/>
<use x="260.851562" xlink:href="#g"/>
<use x="288.634766" xlink:href="#d"/>
<use x="352.013672" xlink:href="#e"/>
<use x="413.292969" xlink:href="#i"/>
</g>
</g>
<path d="m486.47 615.98v35.285q0 2.4 2.4 2.4h7.7425q2.4 0 2.4-2.4v-35.285q0-2.4-2.4-2.4h-7.7425q-2.4 0-2.4 2.4z" clip-path="url(#a)" fill="#fff" stroke="#fff"/>
<g clip-path="url(#a)">
<g transform="translate(490.53 615.98) rotate(90) scale(.08 -.08)">
<use xlink:href="#k"/>
<use x="60.818359" xlink:href="#f"/>
<use x="122.341797" xlink:href="#j"/>
<use x="163.439453" xlink:href="#l"/>
<use x="260.851562" xlink:href="#g"/>
<use x="288.634766" xlink:href="#d"/>
<use x="352.013672" xlink:href="#e"/>
<use x="413.292969" xlink:href="#i"/>
</g>
</g>
<path d="m563.52 532.81 1.7982-5.2889q0.77255-2.2723-1.4997-3.0448l-7.3304-2.4923q-2.2723-0.77255-3.0448 1.4997l-1.7982 5.2889q-0.77255 2.2723 1.4997 3.0448l7.3304 2.4923q2.2723 0.77255 3.0448-1.4997z" clip-path="url(#a)" fill="#fff" stroke="#fff"/>
<g clip-path="url(#a)">
<defs>
<path id="o" d="m64.406 67.281v-10.391q-4.9844 4.6406-10.625 6.9219-5.6406 2.2969-11.984 2.2969-12.5 0-19.141-7.6406t-6.6406-22.094q0-14.406 6.6406-22.047t19.141-7.6406q6.3438 0 11.984 2.2969t10.625 6.9375v-10.312q-5.1719-3.5156-10.969-5.2812-5.7812-1.75-12.219-1.75-16.562 0-26.094 10.125-9.5156 10.141-9.5156 27.672 0 17.578 9.5156 27.703 9.5312 10.141 26.094 10.141 6.5312 0 12.312-1.7344 5.7969-1.7344 10.875-5.2031z"/>
</defs>
<g transform="translate(559.68 531.5) rotate(-71.222) scale(.08 -.08)">
<use xlink:href="#o"/>
</g>
</g>
<path d="m587.4 527.18 2.0271 5.9623q0.77255 2.2723 3.0448 1.4997l7.3304-2.4923q2.2723-0.77255 1.4997-3.0448l-2.0271-5.9623q-0.77255-2.2723-3.0448-1.4997l-7.3304 2.4923q-2.2723 0.77255-1.4997 3.0448z" clip-path="url(#a)" fill="#fff" stroke="#fff"/>
<g clip-path="url(#a)">
<defs>
<path id="ap" d="m39.406 66.219q-10.75 0-17.078-8.0156-6.3125-8-6.3125-21.828 0-13.766 6.3125-21.781 6.3281-8 17.078-8 10.734 0 17.016 8 6.2812 8.0156 6.2812 21.781 0 13.828-6.2812 21.828-6.2812 8.0156-17.016 8.0156zm13.812-64.906 13-14.203h-11.922l-10.797 11.672q-1.6094-0.09375-2.4688-0.14062-0.84375-0.0625-1.625-0.0625-15.375 0-24.594 10.281-9.2031 10.281-9.2031 27.516 0 17.281 9.2031 27.562 9.2188 10.281 24.594 10.281 15.328 0 24.5-10.281 9.1875-10.281 9.1875-27.562 0-12.688-5.1094-21.734-5.0938-9.0312-14.766-13.328z"/>
</defs>
<g transform="translate(591.24 525.87) rotate(71.222) scale(.08 -.08)">
<use xlink:href="#ap"/>
</g>
</g>
<path d="m856.21 426.63 4.0385-3.8198q1.7436-1.6492 0.094428-3.3928l-5.3203-5.625q-1.6492-1.7436-3.3928-0.094427l-4.0385 3.8198q-1.7436 1.6492-0.094427 3.3928l5.3203 5.625q1.6492 1.7436 3.3928 0.094428z" clip-path="url(#a)" fill="#fff" stroke="#fff"/>
<g clip-path="url(#a)">
<defs>
<path id="z" d="m44.391 34.188q3.1719-1.0781 6.1719-4.5938t6.0312-9.6719l10.016-19.922h-10.609l-9.3125 18.703q-3.625 7.3281-7.0156 9.7188t-9.25 2.3906h-10.75v-30.812h-9.8594v72.906h22.266q12.5 0 18.656-5.2344 6.1562-5.2188 6.1562-15.766 0-6.8906-3.2031-11.438-3.2031-4.5312-9.2969-6.2812zm-24.719 30.609v-25.875h12.406q7.125 0 10.766 3.2969t3.6406 9.6875-3.6406 9.6406-10.766 3.25z"/>
</defs>
<g transform="translate(853.41 423.68) rotate(-43.406) scale(.08 -.08)">
<use xlink:href="#z"/>
</g>
</g>
<path d="m928.58 373.52 3.401-3.7398q1.6147-1.7756-0.16086-3.3903l-5.7281-5.2091q-1.7756-1.6147-3.3903 0.16086l-3.401 3.7398q-1.6147 1.7756 0.16086 3.3903l5.7281 5.2091q1.7756 1.6147 3.3903-0.16086z" clip-path="url(#a)" fill="#fff" stroke="#fff"/>
<g clip-path="url(#a)">
<defs>
<path id="q" d="m9.8125 72.906h46.094v-8.3125h-36.234v-21.578h34.719v-8.2969h-34.719v-26.422h37.109v-8.2969h-46.969z"/>
</defs>
<g transform="translate(925.57 370.78) rotate(-47.717) scale(.08 -.08)">
<use xlink:href="#q"/>
</g>
</g>
<path d="m978.68 424.46 1.512-4.8236q0.71786-2.2901-1.5723-3.008l-7.388-2.3158q-2.2901-0.71786-3.008 1.5723l-1.512 4.8236q-0.71786 2.2901 1.5723 3.008l7.388 2.3158q2.2901 0.71786 3.008-1.5723z" clip-path="url(#a)" fill="#fff" stroke="#fff"/>
<g clip-path="url(#a)">
<g transform="translate(974.8 423.24) rotate(-72.596) scale(.08 -.08)">
<use xlink:href="#q"/>
</g>
</g>
<path d="m1027.5 370.1 0.11989-5.0536q0.056921-2.3993-2.3424-2.4562l-7.7403-0.18363q-2.3993-0.056921-2.4562 2.3424l-0.11989 5.0536q-0.05692 2.3993 2.3424 2.4562l7.7403 0.18363q2.3993 0.05692 2.4562-2.3424z" clip-path="url(#a)" fill="#fff" stroke="#fff"/>
<g clip-path="url(#a)">
<g transform="translate(1023.4 370.01) rotate(-88.641) scale(.08 -.08)">
<use xlink:href="#q"/>
</g>
</g>
<path d="m1081 317.05 3.8277 3.3017q1.8173 1.5676 3.3849-0.24973l5.0571-5.8627q1.5676-1.8173-0.24973-3.3849l-3.8277-3.3017q-1.8173-1.5676-3.3849 0.24973l-5.0571 5.8627q-1.5676 1.8173 0.24973 3.3849z" clip-path="url(#a)" fill="#fff" stroke="#fff"/>
<g clip-path="url(#a)">
<g transform="translate(1083.7 313.98) rotate(40.781) scale(.08 -.08)">
<use xlink:href="#q"/>
</g>
</g>
<path d="m1134.1 421.6 3.2874 4.5165q1.4124 1.9404 3.3528 0.52807l6.2599-4.5563q1.9404-1.4124 0.52807-3.3528l-3.2874-4.5165q-1.4124-1.9404-3.3528-0.52807l-6.2599 4.5563q-1.9404 1.4124-0.52807 3.3528z" clip-path="url(#a)" fill="#fff" stroke="#fff"/>
<g clip-path="url(#a)">
<g transform="translate(1137.4 419.21) rotate(53.951) scale(.08 -.08)">
<use xlink:href="#o"/>
</g>
</g>
<path d="m1158.1 422.1 3.8596 4.4028q1.5821 1.8047 3.3868 0.22267l5.8221-5.1038q1.8047-1.5821 0.22267-3.3868l-3.8596-4.4028q-1.5821-1.8047-3.3868-0.22267l-5.8221 5.1038q-1.8047 1.5821-0.22267 3.3868z" clip-path="url(#a)" fill="#fff" stroke="#fff"/>
<g clip-path="url(#a)">
<g transform="translate(1161.1 419.42) rotate(48.762) scale(.08 -.08)">
<use xlink:href="#y"/>
</g>
</g>
<path d="m677.73 615.98v35.285q0 2.4 2.4 2.4h7.7425q2.4 0 2.4-2.4v-35.285q0-2.4-2.4-2.4h-7.7425q-2.4 0-2.4 2.4z" clip-path="url(#a)" fill="#fff" stroke="#fff"/>
<g clip-path="url(#a)">
<g transform="translate(681.79 615.98) rotate(90) scale(.08 -.08)">
<use xlink:href="#k"/>
<use x="60.818359" xlink:href="#f"/>
<use x="122.341797" xlink:href="#j"/>
<use x="163.439453" xlink:href="#l"/>
<use x="260.851562" xlink:href="#g"/>
<use x="288.634766" xlink:href="#d"/>
<use x="352.013672" xlink:href="#e"/>
<use x="413.292969" xlink:href="#i"/>
</g>
</g>
<path d="m808.1 533.28 2.3064-5.0879q0.99091-2.1859-1.195-3.1768l-7.0518-3.1967q-2.1859-0.99091-3.1768 1.195l-2.3064 5.0879q-0.99091 2.1859 1.195 3.1768l7.0518 3.1967q2.1859 0.99091 3.1768-1.195z" clip-path="url(#a)" fill="#fff" stroke="#fff"/>
<g clip-path="url(#a)">
<g transform="translate(804.4 531.6) rotate(-65.614) scale(.08 -.08)">
<use xlink:href="#o"/>
</g>
</g>
<path d="m844.49 528.2 2.2951 5.0628q0.99091 2.1859 3.1768 1.195l7.0518-3.1967q2.1859-0.99091 1.195-3.1768l-2.2951-5.0628q-0.99091-2.1859-3.1768-1.195l-7.0518 3.1967q-2.1859 0.99091-1.195 3.1768z" clip-path="url(#a)" fill="#fff" stroke="#fff"/>
<g clip-path="url(#a)">
<g transform="translate(848.2 526.52) rotate(65.614) scale(.08 -.08)">
<use xlink:href="#z"/>
</g>
</g>
<path d="m916.81 615.98v35.285q0 2.4 2.4 2.4h7.7425q2.4 0 2.4-2.4v-35.285q0-2.4-2.4-2.4h-7.7425q-2.4 0-2.4 2.4z" clip-path="url(#a)" fill="#fff" stroke="#fff"/>
<g clip-path="url(#a)">
<g transform="translate(920.87 615.98) rotate(90) scale(.08 -.08)">
<use xlink:href="#k"/>
<use x="60.818359" xlink:href="#f"/>
<use x="122.341797" xlink:href="#j"/>
<use x="163.439453" xlink:href="#l"/>
<use x="260.851562" xlink:href="#g"/>
<use x="288.634766" xlink:href="#d"/>
<use x="352.013672" xlink:href="#e"/>
<use x="413.292969" xlink:href="#i"/>
</g>
</g>
<path d="m999.36 533.28 2.3064-5.0879q0.99091-2.1859-1.195-3.1768l-7.0518-3.1967q-2.1859-0.99091-3.1768 1.195l-2.3064 5.0879q-0.99091 2.1859 1.195 3.1768l7.0518 3.1967q2.1859 0.99091 3.1768-1.195z" clip-path="url(#a)" fill="#fff" stroke="#fff"/>
<g clip-path="url(#a)">
<g transform="translate(995.66 531.6) rotate(-65.614) scale(.08 -.08)">
<use xlink:href="#o"/>
</g>
</g>
<path d="m1035.8 528.19 2.3064 5.0879q0.99091 2.1859 3.1768 1.195l7.0518-3.1967q2.1859-0.99091 1.195-3.1768l-2.3064-5.0879q-0.99091-2.1859-3.1768-1.195l-7.0518 3.1967q-2.1859 0.99091-1.195 3.1768z" clip-path="url(#a)" fill="#fff" stroke="#fff"/>
<g clip-path="url(#a)">
<g transform="translate(1039.5 526.51) rotate(65.614) scale(.08 -.08)">
<use xlink:href="#o"/>
</g>
</g>
<path d="m1012.4 525.22v5.855q0 2.4 2.4 2.4h7.7425q2.4 0 2.4-2.4v-5.855q0-2.4-2.4-2.4h-7.7425q-2.4 0-2.4 2.4z" clip-path="url(#a)" fill="#fff" stroke="#fff"/>
<g clip-path="url(#a)">
<g transform="translate(1016.5 525.22) rotate(90) scale(.08 -.08)">
<use xlink:href="#y"/>
</g>
</g>
<path d="m1138 478.47 0.92992-5.5083q0.39952-2.3665-1.967-2.766l-7.6345-1.2889q-2.3665-0.39952-2.766 1.967l-0.92992 5.5083q-0.39952 2.3665 1.967 2.766l7.6345 1.2889q2.3665 0.39952 2.766-1.967z" clip-path="url(#a)" fill="#fff" stroke="#fff"/>
<g clip-path="url(#a)">
<g transform="translate(1134 477.79) rotate(-80.418) scale(.08 -.08)">
<use xlink:href="#o"/>
</g>
</g>
<path d="m1161.4 421.53 1.6071 4.7927q0.76303 2.2755 3.0385 1.5124l7.3408-2.4616q2.2755-0.76303 1.5124-3.0385l-1.6071-4.7927q-0.76303-2.2755-3.0385-1.5124l-7.3408 2.4616q-2.2755 0.76303-1.5124 3.0385z" clip-path="url(#a)" fill="#fff" stroke="#fff"/>
<g clip-path="url(#a)">
<g transform="translate(1165.2 420.24) rotate(71.462) scale(.08 -.08)">
<use xlink:href="#q"/>
</g>
</g>
<path d="m1251.5 615.98v35.285q0 2.4 2.4 2.4h7.7425q2.4 0 2.4-2.4v-35.285q0-2.4-2.4-2.4h-7.7425q-2.4 0-2.4 2.4z" clip-path="url(#a)" fill="#fff" stroke="#fff"/>
<g clip-path="url(#a)">
<g transform="translate(1255.6 615.98) rotate(90) scale(.08 -.08)">
<use xlink:href="#k"/>
<use x="60.818359" xlink:href="#f"/>
<use x="122.341797" xlink:href="#j"/>
<use x="163.439453" xlink:href="#l"/>
<use x="260.851562" xlink:href="#g"/>
<use x="288.634766" xlink:href="#d"/>
<use x="352.013672" xlink:href="#e"/>
<use x="413.292969" xlink:href="#i"/>
</g>
</g>
<path d="m1108.1 615.98v35.285q0 2.4 2.4 2.4h7.7425q2.4 0 2.4-2.4v-35.285q0-2.4-2.4-2.4h-7.7425q-2.4 0-2.4 2.4z" clip-path="url(#a)" fill="#fff" stroke="#fff"/>
<g clip-path="url(#a)">
<g transform="translate(1112.1 615.98) rotate(90) scale(.08 -.08)">
<use xlink:href="#k"/>
<use x="60.818359" xlink:href="#f"/>
<use x="122.341797" xlink:href="#j"/>
<use x="163.439453" xlink:href="#l"/>
<use x="260.851562" xlink:href="#g"/>
<use x="288.634766" xlink:href="#d"/>
<use x="352.013672" xlink:href="#e"/>
<use x="413.292969" xlink:href="#i"/>
</g>
</g>
<path d="m1179.6 532.24 1.2288-5.4212q0.53053-2.3406-1.8101-2.8712l-7.551-1.7115q-2.3406-0.53053-2.8712 1.8101l-1.2288 5.4212q-0.53053 2.3406 1.8101 2.8712l7.551 1.7115q2.3406 0.53053 2.8712-1.8101z" clip-path="url(#a)" fill="#fff" stroke="#fff"/>
<g clip-path="url(#a)">
<g transform="translate(1175.6 531.34) rotate(-77.229) scale(.08 -.08)">
<use xlink:href="#z"/>
</g>
</g>
<path d="m1191.3 526.8 1.2349 5.4481q0.53053 2.3406 2.8712 1.8101l7.551-1.7115q2.3406-0.53053 1.8101-2.8712l-1.2349-5.4481q-0.53053-2.3406-2.8712-1.8101l-7.551 1.7115q-2.3406 0.53053-1.8101 2.8712z" clip-path="url(#a)" fill="#fff" stroke="#fff"/>
<g clip-path="url(#a)">
<g transform="translate(1195.2 525.91) rotate(77.229) scale(.08 -.08)">
<use xlink:href="#o"/>
</g>
</g>
<path d="m1155.9 615.98v35.285q0 2.4 2.4 2.4h7.7425q2.4 0 2.4-2.4v-35.285q0-2.4-2.4-2.4h-7.7425q-2.4 0-2.4 2.4z" clip-path="url(#a)" fill="#fff" stroke="#fff"/>
<g clip-path="url(#a)">
<g transform="translate(1159.9 615.98) rotate(90) scale(.08 -.08)">
<use xlink:href="#k"/>
<use x="60.818359" xlink:href="#f"/>
<use x="122.341797" xlink:href="#j"/>
<use x="163.439453" xlink:href="#l"/>
<use x="260.851562" xlink:href="#g"/>
<use x="288.634766" xlink:href="#d"/>
<use x="352.013672" xlink:href="#e"/>
<use x="413.292969" xlink:href="#i"/>
</g>
</g>
<path d="m1203.7 615.98v35.285q0 2.4 2.4 2.4h7.7425q2.4 0 2.4-2.4v-35.285q0-2.4-2.4-2.4h-7.7425q-2.4 0-2.4 2.4z" clip-path="url(#a)" fill="#fff" stroke="#fff"/>
<g clip-path="url(#a)">
<g transform="translate(1207.8 615.98) rotate(90) scale(.08 -.08)">
<use xlink:href="#k"/>
<use x="60.818359" xlink:href="#f"/>
<use x="122.341797" xlink:href="#j"/>
<use x="163.439453" xlink:href="#l"/>
<use x="260.851562" xlink:href="#g"/>
<use x="288.634766" xlink:href="#d"/>
<use x="352.013672" xlink:href="#e"/>
<use x="413.292969" xlink:href="#i"/>
</g>
</g>
<path d="m964.62 615.98v35.285q0 2.4 2.4 2.4h7.7425q2.4 0 2.4-2.4v-35.285q0-2.4-2.4-2.4h-7.7425q-2.4 0-2.4 2.4z" clip-path="url(#a)" fill="#fff" stroke="#fff"/>
<g clip-path="url(#a)">
<g transform="translate(968.68 615.98) rotate(90) scale(.08 -.08)">
<use xlink:href="#k"/>
<use x="60.818359" xlink:href="#f"/>
<use x="122.341797" xlink:href="#j"/>
<use x="163.439453" xlink:href="#l"/>
<use x="260.851562" xlink:href="#g"/>
<use x="288.634766" xlink:href="#d"/>
<use x="352.013672" xlink:href="#e"/>
<use x="413.292969" xlink:href="#i"/>
</g>
</g>
<path d="m1060.3 615.98v35.285q0 2.4 2.4 2.4h7.7425q2.4 0 2.4-2.4v-35.285q0-2.4-2.4-2.4h-7.7425q-2.4 0-2.4 2.4z" clip-path="url(#a)" fill="#fff" stroke="#fff"/>
<g clip-path="url(#a)">
<g transform="translate(1064.3 615.98) rotate(90) scale(.08 -.08)">
<use xlink:href="#k"/>
<use x="60.818359" xlink:href="#f"/>
<use x="122.341797" xlink:href="#j"/>
<use x="163.439453" xlink:href="#l"/>
<use x="260.851562" xlink:href="#g"/>
<use x="288.634766" xlink:href="#d"/>
<use x="352.013672" xlink:href="#e"/>
<use x="413.292969" xlink:href="#i"/>
</g>
</g>
<path d="m754.15 652.28 14.568-32.137q0.99091-2.1859-1.195-3.1768l-7.0518-3.1967q-2.1859-0.99091-3.1768 1.195l-14.568 32.137q-0.99091 2.1859 1.195 3.1768l7.0518 3.1967q2.1859 0.99091 3.1768-1.195z" clip-path="url(#a)" fill="#fff" stroke="#fff"/>
<g clip-path="url(#a)">
<g transform="translate(750.45 650.6) rotate(-65.614) scale(.08 -.08)">
<use xlink:href="#k"/>
<use x="60.818359" xlink:href="#f"/>
<use x="122.341797" xlink:href="#j"/>
<use x="163.439453" xlink:href="#l"/>
<use x="260.851562" xlink:href="#g"/>
<use x="288.634766" xlink:href="#d"/>
<use x="352.013672" xlink:href="#e"/>
<use x="413.292969" xlink:href="#i"/>
</g>
</g>
<path d="m773.36 615.98v35.285q0 2.4 2.4 2.4h7.7425q2.4 0 2.4-2.4v-35.285q0-2.4-2.4-2.4h-7.7425q-2.4 0-2.4 2.4z" clip-path="url(#a)" fill="#fff" stroke="#fff"/>
<g clip-path="url(#a)">
<g transform="translate(777.42 615.98) rotate(90) scale(.08 -.08)">
<use xlink:href="#k"/>
<use x="60.818359" xlink:href="#f"/>
<use x="122.341797" xlink:href="#j"/>
<use x="163.439453" xlink:href="#l"/>
<use x="260.851562" xlink:href="#g"/>
<use x="288.634766" xlink:href="#d"/>
<use x="352.013672" xlink:href="#e"/>
<use x="413.292969" xlink:href="#i"/>
</g>
</g>
<path d="m790.54 620.14 14.568 32.137q0.99091 2.1859 3.1768 1.195l7.0518-3.1967q2.1859-0.99091 1.195-3.1768l-14.568-32.137q-0.99091-2.1859-3.1768-1.195l-7.0518 3.1967q-2.1859 0.99091-1.195 3.1768z" clip-path="url(#a)" fill="#fff" stroke="#fff"/>
<g clip-path="url(#a)">
<g transform="translate(794.24 618.46) rotate(65.614) scale(.08 -.08)">
<use xlink:href="#k"/>
<use x="60.818359" xlink:href="#f"/>
<use x="122.341797" xlink:href="#j"/>
<use x="163.439453" xlink:href="#l"/>
<use x="260.851562" xlink:href="#g"/>
<use x="288.634766" xlink:href="#d"/>
<use x="352.013672" xlink:href="#e"/>
<use x="413.292969" xlink:href="#i"/>
</g>
</g>
<path d="m868.99 615.98v35.285q0 2.4 2.4 2.4h7.7425q2.4 0 2.4-2.4v-35.285q0-2.4-2.4-2.4h-7.7425q-2.4 0-2.4 2.4z" clip-path="url(#a)" fill="#fff" stroke="#fff"/>
<g clip-path="url(#a)">
<g transform="translate(873.05 615.98) rotate(90) scale(.08 -.08)">
<use xlink:href="#k"/>
<use x="60.818359" xlink:href="#f"/>
<use x="122.341797" xlink:href="#j"/>
<use x="163.439453" xlink:href="#l"/>
<use x="260.851562" xlink:href="#g"/>
<use x="288.634766" xlink:href="#d"/>
<use x="352.013672" xlink:href="#e"/>
<use x="413.292969" xlink:href="#i"/>
</g>
</g>
<path d="m534.28 615.98v35.285q0 2.4 2.4 2.4h7.7425q2.4 0 2.4-2.4v-35.285q0-2.4-2.4-2.4h-7.7425q-2.4 0-2.4 2.4z" clip-path="url(#a)" fill="#fff" stroke="#fff"/>
<g clip-path="url(#a)">
<g transform="translate(538.35 615.98) rotate(90) scale(.08 -.08)">
<use xlink:href="#k"/>
<use x="60.818359" xlink:href="#f"/>
<use x="122.341797" xlink:href="#j"/>
<use x="163.439453" xlink:href="#l"/>
<use x="260.851562" xlink:href="#g"/>
<use x="288.634766" xlink:href="#d"/>
<use x="352.013672" xlink:href="#e"/>
<use x="413.292969" xlink:href="#i"/>
</g>
</g>
<path d="m602.54 652.21 7.7999-34.412q0.53053-2.3406-1.8101-2.8712l-7.551-1.7115q-2.3406-0.53053-2.8712 1.8101l-7.7999 34.412q-0.53053 2.3406 1.8101 2.8712l7.551 1.7115q2.3406 0.53053 2.8712-1.8101z" clip-path="url(#a)" fill="#fff" stroke="#fff"/>
<g clip-path="url(#a)">
<g transform="translate(598.58 651.31) rotate(-77.229) scale(.08 -.08)">
<use xlink:href="#k"/>
<use x="60.818359" xlink:href="#f"/>
<use x="122.341797" xlink:href="#j"/>
<use x="163.439453" xlink:href="#l"/>
<use x="260.851562" xlink:href="#g"/>
<use x="288.634766" xlink:href="#d"/>
<use x="352.013672" xlink:href="#e"/>
<use x="413.292969" xlink:href="#i"/>
</g>
</g>
<path d="m614.21 617.8 7.7999 34.412q0.53053 2.3406 2.8712 1.8101l7.551-1.7115q2.3406-0.53053 1.8101-2.8712l-7.7999-34.412q-0.53053-2.3406-2.8712-1.8101l-7.551 1.7115q-2.3406 0.53053-1.8101 2.8712z" clip-path="url(#a)" fill="#fff" stroke="#fff"/>
<g clip-path="url(#a)">
<g transform="translate(618.18 616.9) rotate(77.229) scale(.08 -.08)">
<use xlink:href="#k"/>
<use x="60.818359" xlink:href="#f"/>
<use x="122.341797" xlink:href="#j"/>
<use x="163.439453" xlink:href="#l"/>
<use x="260.851562" xlink:href="#g"/>
<use x="288.634766" xlink:href="#d"/>
<use x="352.013672" xlink:href="#e"/>
<use x="413.292969" xlink:href="#i"/>
</g>
</g>
<path d="m390.84 615.98v35.285q0 2.4 2.4 2.4h7.7425q2.4 0 2.4-2.4v-35.285q0-2.4-2.4-2.4h-7.7425q-2.4 0-2.4 2.4z" clip-path="url(#a)" fill="#fff" stroke="#fff"/>
<g clip-path="url(#a)">
<g transform="translate(394.9 615.98) rotate(90) scale(.08 -.08)">
<use xlink:href="#k"/>
<use x="60.818359" xlink:href="#f"/>
<use x="122.341797" xlink:href="#j"/>
<use x="163.439453" xlink:href="#l"/>
<use x="260.851562" xlink:href="#g"/>
<use x="288.634766" xlink:href="#d"/>
<use x="352.013672" xlink:href="#e"/>
<use x="413.292969" xlink:href="#i"/>
</g>
</g>
<path d="m1012.4 615.98v35.285q0 2.4 2.4 2.4h7.7425q2.4 0 2.4-2.4v-35.285q0-2.4-2.4-2.4h-7.7425q-2.4 0-2.4 2.4z" clip-path="url(#a)" fill="#fff" stroke="#fff"/>
<g clip-path="url(#a)">
<g transform="translate(1016.5 615.98) rotate(90) scale(.08 -.08)">
<use xlink:href="#k"/>
<use x="60.818359" xlink:href="#f"/>
<use x="122.341797" xlink:href="#j"/>
<use x="163.439453" xlink:href="#l"/>
<use x="260.851562" xlink:href="#g"/>
<use x="288.634766" xlink:href="#d"/>
<use x="352.013672" xlink:href="#e"/>
<use x="413.292969" xlink:href="#i"/>
</g>
</g>
<path d="m1299.3 615.98v35.285q0 2.4 2.4 2.4h7.7425q2.4 0 2.4-2.4v-35.285q0-2.4-2.4-2.4h-7.7425q-2.4 0-2.4 2.4z" clip-path="url(#a)" fill="#fff" stroke="#fff"/>
<g clip-path="url(#a)">
<g transform="translate(1303.4 615.98) rotate(90) scale(.08 -.08)">
<use xlink:href="#k"/>
<use x="60.818359" xlink:href="#f"/>
<use x="122.341797" xlink:href="#j"/>
<use x="163.439453" xlink:href="#l"/>
<use x="260.851562" xlink:href="#g"/>
<use x="288.634766" xlink:href="#d"/>
<use x="352.013672" xlink:href="#e"/>
<use x="413.292969" xlink:href="#i"/>
</g>
</g>
<defs>
<path id="b" d="m0 8.6603c2.2967 0 4.4997-0.9125 6.1237-2.5365 1.624-1.624 2.5365-3.827 2.5365-6.1237s-0.9125-4.4997-2.5365-6.1237c-1.624-1.624-3.827-2.5365-6.1237-2.5365s-4.4997 0.9125-6.1237 2.5365c-1.624 1.624-2.5365 3.827-2.5365 6.1237s0.9125 4.4997 2.5365 6.1237c1.624 1.624 3.827 2.5365 6.1237 2.5365z"/>
</defs>
<g clip-path="url(#a)">
<use x="62.399762" y="686.359264" fill="#ffffff" stroke="#ffffff" xlink:href="#b"/>
</g>
<g clip-path="url(#a)">
<use x="110.215165" y="686.359264" fill="#ffffff" stroke="#ffffff" xlink:href="#b"/>
</g>
<g clip-path="url(#a)">
<use x="158.030568" y="686.359264" fill="#ffffff" stroke="#ffffff" xlink:href="#b"/>
</g>
<g clip-path="url(#a)">
<use x="205.845971" y="686.359264" fill="#ffffff" stroke="#ffffff" xlink:href="#b"/>
</g>
<g clip-path="url(#a)">
<use x="253.661374" y="686.359264" fill="#ffffff" stroke="#ffffff" xlink:href="#b"/>
</g>
<g clip-path="url(#a)">
<use x="301.476777" y="686.359264" fill="#ffffff" stroke="#ffffff" xlink:href="#b"/>
</g>
<g clip-path="url(#a)">
<use x="349.29218" y="686.359264" fill="#ffffff" stroke="#ffffff" xlink:href="#b"/>
</g>
<g clip-path="url(#a)">
<use x="397.107583" y="686.359264" fill="#ffffff" stroke="#ffffff" xlink:href="#b"/>
</g>
<g clip-path="url(#a)">
<use x="444.922985" y="686.359264" fill="#ffffff" stroke="#ffffff" xlink:href="#b"/>
</g>
<g clip-path="url(#a)">
<use x="492.738388" y="686.359264" fill="#ffffff" stroke="#ffffff" xlink:href="#b"/>
</g>
<g clip-path="url(#a)">
<use x="540.553791" y="686.359264" fill="#ffffff" stroke="#ffffff" xlink:href="#b"/>
</g>
<g clip-path="url(#a)">
<use x="588.369194" y="686.359264" fill="#ffffff" stroke="#ffffff" xlink:href="#b"/>
</g>
<g clip-path="url(#a)">
<use x="636.184597" y="686.359264" fill="#ffffff" stroke="#ffffff" xlink:href="#b"/>
</g>
<g clip-path="url(#a)">
<use x="684" y="686.359264" fill="#ffffff" stroke="#ffffff" xlink:href="#b"/>
</g>
<g clip-path="url(#a)">
<use x="731.815403" y="686.359264" fill="#ffffff" stroke="#ffffff" xlink:href="#b"/>
</g>
<g clip-path="url(#a)">
<use x="779.630806" y="686.359264" fill="#ffffff" stroke="#ffffff" xlink:href="#b"/>
</g>
<g clip-path="url(#a)">
<use x="827.446209" y="686.359264" fill="#ffffff" stroke="#ffffff" xlink:href="#b"/>
</g>
<g clip-path="url(#a)">
<use x="875.261612" y="686.359264" fill="#ffffff" stroke="#ffffff" xlink:href="#b"/>
</g>
<g clip-path="url(#a)">
<use x="923.077015" y="686.359264" fill="#ffffff" stroke="#ffffff" xlink:href="#b"/>
</g>
<g clip-path="url(#a)">
<use x="970.892417" y="686.359264" fill="#ffffff" stroke="#ffffff" xlink:href="#b"/>
</g>
<g clip-path="url(#a)">
<use x="1018.70782" y="686.359264" fill="#ffffff" stroke="#ffffff" xlink:href="#b"/>
</g>
<g clip-path="url(#a)">
<use x="1066.523223" y="686.359264" fill="#ffffff" stroke="#ffffff" xlink:href="#b"/>
</g>
<g clip-path="url(#a)">
<use x="1114.338626" y="686.359264" fill="#ffffff" stroke="#ffffff" xlink:href="#b"/>
</g>
<g clip-path="url(#a)">
<use x="1162.154029" y="686.359264" fill="#ffffff" stroke="#ffffff" xlink:href="#b"/>
</g>
<g clip-path="url(#a)">
<use x="1209.969432" y="686.359264" fill="#ffffff" stroke="#ffffff" xlink:href="#b"/>
</g>
<g clip-path="url(#a)">
<use x="1257.784835" y="686.359264" fill="#ffffff" stroke="#ffffff" xlink:href="#b"/>
</g>
<g clip-path="url(#a)">
<use x="1305.600238" y="686.359264" fill="#ffffff" stroke="#ffffff" xlink:href="#b"/>
</g>
<g clip-path="url(#a)">
<use x="302.520367" y="33.640736" fill="#ffffff" stroke="#ffffff" xlink:href="#b"/>
</g>
<g clip-path="url(#a)">
<use x="62.399762" y="580.881581" fill="#ffffff" stroke="#ffffff" xlink:href="#b"/>
</g>
<g clip-path="url(#a)">
<use x="301.476777" y="580.881581" fill="#ffffff" stroke="#ffffff" xlink:href="#b"/>
</g>
<g clip-path="url(#a)">
<use x="634.476904" y="147.966618" fill="#ffffff" stroke="#ffffff" xlink:href="#b"/>
</g>
<g clip-path="url(#a)">
<use x="181.938269" y="475.403898" fill="#ffffff" stroke="#ffffff" xlink:href="#b"/>
</g>
<g clip-path="url(#a)">
<use x="237.722906" y="475.403898" fill="#ffffff" stroke="#ffffff" xlink:href="#b"/>
</g>
<g clip-path="url(#a)">
<use x="349.29218" y="580.881581" fill="#ffffff" stroke="#ffffff" xlink:href="#b"/>
</g>
<g clip-path="url(#a)">
<use x="110.215165" y="580.881581" fill="#ffffff" stroke="#ffffff" xlink:href="#b"/>
</g>
<g clip-path="url(#a)">
<use x="158.030568" y="580.881581" fill="#ffffff" stroke="#ffffff" xlink:href="#b"/>
</g>
<g clip-path="url(#a)">
<use x="205.845971" y="580.881581" fill="#ffffff" stroke="#ffffff" xlink:href="#b"/>
</g>
<g clip-path="url(#a)">
<use x="253.661374" y="580.881581" fill="#ffffff" stroke="#ffffff" xlink:href="#b"/>
</g>
<g clip-path="url(#a)">
<use x="444.922985" y="580.881581" fill="#ffffff" stroke="#ffffff" xlink:href="#b"/>
</g>
<g clip-path="url(#a)">
<use x="492.738388" y="580.881581" fill="#ffffff" stroke="#ffffff" xlink:href="#b"/>
</g>
<g clip-path="url(#a)">
<use x="576.415343" y="475.403898" fill="#ffffff" stroke="#ffffff" xlink:href="#b"/>
</g>
<g clip-path="url(#a)">
<use x="1023.830899" y="259.454605" fill="#ffffff" stroke="#ffffff" xlink:href="#b"/>
</g>
<g clip-path="url(#a)">
<use x="684" y="580.881581" fill="#ffffff" stroke="#ffffff" xlink:href="#b"/>
</g>
<g clip-path="url(#a)">
<use x="827.446209" y="475.403898" fill="#ffffff" stroke="#ffffff" xlink:href="#b"/>
</g>
<g clip-path="url(#a)">
<use x="923.077015" y="580.881581" fill="#ffffff" stroke="#ffffff" xlink:href="#b"/>
</g>
<g clip-path="url(#a)">
<use x="1018.70782" y="475.403898" fill="#ffffff" stroke="#ffffff" xlink:href="#b"/>
</g>
<g clip-path="url(#a)">
<use x="1150.200178" y="368.458905" fill="#ffffff" stroke="#ffffff" xlink:href="#b"/>
</g>
<g clip-path="url(#a)">
<use x="1257.784835" y="580.881581" fill="#ffffff" stroke="#ffffff" xlink:href="#b"/>
</g>
<g clip-path="url(#a)">
<use x="1114.338626" y="580.881581" fill="#ffffff" stroke="#ffffff" xlink:href="#b"/>
</g>
<g clip-path="url(#a)">
<use x="1186.061731" y="475.403898" fill="#ffffff" stroke="#ffffff" xlink:href="#b"/>
</g>
<g clip-path="url(#a)">
<use x="1162.154029" y="580.881581" fill="#ffffff" stroke="#ffffff" xlink:href="#b"/>
</g>
<g clip-path="url(#a)">
<use x="1209.969432" y="580.881581" fill="#ffffff" stroke="#ffffff" xlink:href="#b"/>
</g>
<g clip-path="url(#a)">
<use x="970.892417" y="580.881581" fill="#ffffff" stroke="#ffffff" xlink:href="#b"/>
</g>
<g clip-path="url(#a)">
<use x="1066.523223" y="580.881581" fill="#ffffff" stroke="#ffffff" xlink:href="#b"/>
</g>
<g clip-path="url(#a)">
<use x="779.630806" y="580.881581" fill="#ffffff" stroke="#ffffff" xlink:href="#b"/>
</g>
<g clip-path="url(#a)">
<use x="875.261612" y="580.881581" fill="#ffffff" stroke="#ffffff" xlink:href="#b"/>
</g>
<g clip-path="url(#a)">
<use x="540.553791" y="580.881581" fill="#ffffff" stroke="#ffffff" xlink:href="#b"/>
</g>
<g clip-path="url(#a)">
<use x="612.276896" y="580.881581" fill="#ffffff" stroke="#ffffff" xlink:href="#b"/>
</g>
<g clip-path="url(#a)">
<use x="397.107583" y="580.881581" fill="#ffffff" stroke="#ffffff" xlink:href="#b"/>
</g>
<g clip-path="url(#a)">
<use x="1018.70782" y="580.881581" fill="#ffffff" stroke="#ffffff" xlink:href="#b"/>
</g>
<g clip-path="url(#a)">
<use x="1305.600238" y="580.881581" fill="#ffffff" stroke="#ffffff" xlink:href="#b"/>
</g>
<g clip-path="url(#a)">
<defs>
<path id="t" d="m30.609 48.391q-7.2188 0-11.422-5.6406t-4.2031-15.453 4.1719-15.453q4.1875-5.6406 11.453-5.6406 7.1875 0 11.375 5.6562 4.2031 5.6719 4.2031 15.438 0 9.7188-4.2031 15.406-4.1875 5.6875-11.375 5.6875zm0 7.6094q11.719 0 18.406-7.625 6.7031-7.6094 6.7031-21.078 0-13.422-6.7031-21.078-6.6875-7.6406-18.406-7.6406-11.766 0-18.438 7.6406-6.6562 7.6562-6.6562 21.078 0 13.469 6.6562 21.078 6.6719 7.625 18.438 7.625z"/>
<path id="ax" d="m4.2031 54.688h8.9844l11.234-42.672 11.172 42.672h10.594l11.234-42.672 11.188 42.672h8.9844l-14.312-54.688h-10.594l-11.766 44.828-11.812-44.828h-10.609z"/>
<path id="an" d="m45.406 27.984q0 9.7656-4.0312 15.125-4.0156 5.375-11.297 5.375-7.2188 0-11.25-5.375-4.0312-5.3594-4.0312-15.125 0-9.7188 4.0312-15.094t11.25-5.375q7.2812 0 11.297 5.375 4.0312 5.375 4.0312 15.094zm8.9844-21.203q0-13.953-6.2031-20.766-6.1875-6.8125-18.984-6.8125-4.7344 0-8.9375 0.70312t-8.1562 2.1719v8.7344q3.9531-2.1406 7.8125-3.1562 3.8594-1.0312 7.8594-1.0312 8.8438 0 13.234 4.6094t4.3906 13.938v4.4531q-2.7812-4.8438-7.125-7.2344t-10.406-2.3906q-10.047 0-16.203 7.6562-6.1562 7.6719-6.1562 20.328 0 12.688 6.1562 20.344 6.1562 7.6719 16.203 7.6719 6.0625 0 10.406-2.3906t7.125-7.2188v8.2969h8.9844z"/>
</defs>
<g transform="translate(38.808 689.12) scale(.1 -.1)">
<use xlink:href="#ac"/>
<use x="57.472656" xlink:href="#t"/>
<use x="118.654297" xlink:href="#i"/>
<use x="146.4375" xlink:href="#i"/>
<use x="174.220703" xlink:href="#t"/>
<use x="235.402344" xlink:href="#ax"/>
<use x="317.189453" xlink:href="#g"/>
<use x="344.972656" xlink:href="#d"/>
<use x="408.351562" xlink:href="#an"/>
</g>
</g>
<g clip-path="url(#a)">
<defs>
<path id="p" d="m18.312 70.219v-15.531h18.5v-6.9844h-18.5v-29.688q0-6.6875 1.8281-8.5938t7.4531-1.9062h9.2188v-7.5156h-9.2188q-10.406 0-14.359 3.875-3.9531 3.8906-3.9531 14.141v29.688h-6.5938v6.9844h6.5938v15.531z"/>
<path id="r" d="m54.891 33.016v-33.016h-8.9844v32.719q0 7.7656-3.0312 11.609-3.0312 3.8594-9.0781 3.8594-7.2812 0-11.484-4.6406-4.2031-4.625-4.2031-12.641v-30.906h-9.0312v75.984h9.0312v-29.797q3.2344 4.9375 7.5938 7.375 4.375 2.4375 10.094 2.4375 9.4219 0 14.25-5.8281 4.8438-5.8281 4.8438-17.156z"/>
</defs>
<g transform="translate(102.01 689.12) scale(.1 -.1)">
<use xlink:href="#p"/>
<use x="39.208984" xlink:href="#r"/>
<use x="102.587891" xlink:href="#f"/>
</g>
</g>
<g clip-path="url(#a)">
<defs>
<path id="m" d="m19.188 8.2969h34.422v-8.2969h-46.281v8.2969q5.6094 5.8125 15.297 15.594 9.7031 9.7969 12.188 12.641 4.7344 5.3125 6.6094 9 1.8906 3.6875 1.8906 7.25 0 5.8125-4.0781 9.4688-4.0781 3.6719-10.625 3.6719-4.6406 0-9.7969-1.6094-5.1406-1.6094-11-4.8906v9.9688q5.9531 2.3906 11.125 3.6094 5.1875 1.2188 9.4844 1.2188 11.328 0 18.062-5.6719 6.7344-5.6562 6.7344-15.125 0-4.5-1.6875-8.5312-1.6719-4.0156-6.125-9.4844-1.2188-1.4219-7.7656-8.1875-6.5312-6.7656-18.453-18.922z"/>
<path id="ah" d="m31.781 66.406q-7.6094 0-11.453-7.5-3.8281-7.4844-3.8281-22.531 0-14.984 3.8281-22.484 3.8438-7.5 11.453-7.5 7.6719 0 11.5 7.5 3.8438 7.5 3.8438 22.484 0 15.047-3.8438 22.531-3.8281 7.5-11.5 7.5zm0 7.8125q12.266 0 18.734-9.7031 6.4688-9.6875 6.4688-28.141 0-18.406-6.4688-28.109-6.4688-9.6875-18.734-9.6875-12.25 0-18.719 9.6875-6.4688 9.7031-6.4688 28.109 0 18.453 6.4688 28.141 6.4688 9.7031 18.719 9.7031z"/>
<path id="c" d="m12.406 8.2969h16.109v55.625l-17.531-3.5156v8.9844l17.438 3.5156h9.8594v-64.609h16.109v-8.2969h-41.984z"/>
</defs>
<g transform="translate(145.31 689.12) scale(.1 -.1)">
<use xlink:href="#m"/>
<use x="63.623047" xlink:href="#ah"/>
<use x="127.246094" xlink:href="#c"/>
<use x="190.869141" xlink:href="#c"/>
</g>
</g>
<g clip-path="url(#a)">
<defs>
<path id="av" d="m16.031 74.516h29.188v-7.2344h-29.188zm14.578-26.125q-7.2188 0-11.422-5.6406t-4.2031-15.453 4.1719-15.453q4.1875-5.6406 11.453-5.6406 7.1875 0 11.375 5.6562 4.2031 5.6719 4.2031 15.438 0 9.7188-4.2031 15.406-4.1875 5.6875-11.375 5.6875zm0 7.6094q11.719 0 18.406-7.625 6.7031-7.6094 6.7031-21.078 0-13.422-6.7031-21.078-6.6875-7.6406-18.406-7.6406-11.766 0-18.438 7.6406-6.6562 7.6562-6.6562 21.078 0 13.469 6.6562 21.078 6.6719 7.625 18.438 7.625z"/>
<path id="aj" d="m9.0781 75.984h9.0312v-44.875l26.812 23.578h11.469l-29-25.578 30.234-29.109h-11.719l-27.797 26.703v-26.703h-9.0312z"/>
<path id="s" d="m8.5 21.578v33.109h8.9844v-32.766q0-7.7656 3.0156-11.656 3.0312-3.875 9.0938-3.875 7.2656 0 11.484 4.6406 4.2344 4.6406 4.2344 12.656v31h8.9844v-54.688h-8.9844v8.4062q-3.2656-4.9844-7.5938-7.4062-4.3125-2.4219-10.031-2.4219-9.4219 0-14.312 5.8594-4.875 5.8594-4.875 17.141z"/>
</defs>
<g transform="translate(187.44 689.12) scale(.1 -.1)">
<use xlink:href="#k"/>
<use x="61.083984" xlink:href="#av"/>
<use x="122.265625" xlink:href="#r"/>
<use x="185.644531" xlink:href="#t"/>
<use x="246.826172" xlink:href="#aj"/>
<use x="304.689453" xlink:href="#s"/>
</g>
</g>
<g clip-path="url(#a)">
<defs>
<path id="am" d="m14.797 27.297q0-9.9062 4.0781-15.547t11.203-5.6406 11.219 5.6406q4.1094 5.6406 4.1094 15.547t-4.1094 15.547q-4.0938 5.6406-11.219 5.6406t-11.203-5.6406-4.0781-15.547zm30.609-19.094q-2.8281-4.875-7.1562-7.25-4.3125-2.375-10.375-2.375-9.9062 0-16.141 7.9062-6.2188 7.9219-6.2188 20.812t6.2188 20.797q6.2344 7.9062 16.141 7.9062 6.0625 0 10.375-2.375 4.3281-2.3594 7.1562-7.2344v8.2969h8.9844v-75.484h-8.9844z"/>
</defs>
<g transform="translate(224.96 689.12) scale(.1 -.1)">
<use xlink:href="#f"/>
<use x="61.523438" xlink:href="#e"/>
<use x="122.802734" xlink:href="#j"/>
<use x="163.916016" xlink:href="#p"/>
<use x="203.125" xlink:href="#r"/>
<use x="266.503906" xlink:href="#am"/>
<use x="329.980469" xlink:href="#s"/>
<use x="393.359375" xlink:href="#e"/>
<use x="454.638672" xlink:href="#aj"/>
<use x="512.501953" xlink:href="#f"/>
</g>
</g>
<g clip-path="url(#a)">
<defs>
<path id="u" d="m45.406 46.391v29.594h8.9844v-75.984h-8.9844v8.2031q-2.8281-4.875-7.1562-7.25-4.3125-2.375-10.375-2.375-9.9062 0-16.141 7.9062-6.2188 7.9219-6.2188 20.812t6.2188 20.797q6.2344 7.9062 16.141 7.9062 6.0625 0 10.375-2.375 4.3281-2.3594 7.1562-7.2344zm-30.609-19.094q0-9.9062 4.0781-15.547t11.203-5.6406 11.219 5.6406q4.1094 5.6406 4.1094 15.547t-4.1094 15.547q-4.0938 5.6406-11.219 5.6406t-11.203-5.6406-4.0781-15.547z"/>
</defs>
<g transform="translate(292.07 689.12) scale(.1 -.1)">
<use xlink:href="#e"/>
<use x="61.279297" xlink:href="#d"/>
<use x="124.658203" xlink:href="#u"/>
</g>
</g>
<g clip-path="url(#a)">
<defs>
<path id="ai" d="m44.281 53.078v-8.5q-3.7969 1.9531-7.9062 2.9219-4.0938 0.98438-8.5 0.98438-6.6875 0-10.031-2.0469t-3.3438-6.1562q0-3.125 2.3906-4.9062t9.625-3.3906l3.0781-0.6875q9.5625-2.0469 13.594-5.7812t4.0312-10.422q0-7.625-6.0312-12.078-6.0312-4.4375-16.578-4.4375-4.3906 0-9.1562 0.85938t-10.031 2.5625v9.2812q4.9844-2.5938 9.8125-3.8906 4.8281-1.2812 9.5781-1.2812 6.3438 0 9.75 2.1719 3.4219 2.1719 3.4219 6.125 0 3.6562-2.4688 5.6094-2.4531 1.9531-10.812 3.7656l-3.125 0.73438q-8.3438 1.75-12.062 5.3906-3.7031 3.6406-3.7031 9.9844 0 7.7188 5.4688 11.906 5.4688 4.2031 15.531 4.2031 4.9688 0 9.3594-0.73438 4.4062-0.71875 8.1094-2.1875z"/>
</defs>
<g transform="translate(329.07 689.12) scale(.1 -.1)">
<use xlink:href="#p"/>
<use x="39.208984" xlink:href="#ai"/>
<use x="91.308594" xlink:href="#s"/>
<use x="154.6875" xlink:href="#d"/>
<use x="218.066406" xlink:href="#e"/>
<use x="279.345703" xlink:href="#l"/>
<use x="376.757812" xlink:href="#g"/>
</g>
</g>
<g clip-path="url(#a)">
<defs>
<path id="as" d="m11.719 12.406h10.297v-8.4062l-8-15.625h-6.2969l4 15.625z"/>
</defs>
<g transform="translate(395.52 689.12) scale(.1 -.1)">
<use xlink:href="#as"/>
</g>
</g>
<g clip-path="url(#a)">
<defs>
<path id="ak" d="m53.516 70.516v-9.625q-5.6094 2.6875-10.594 4-4.9844 1.3281-9.625 1.3281-8.0469 0-12.422-3.125t-4.375-8.8906q0-4.8438 2.9062-7.3125 2.9062-2.4531 11.016-3.9688l5.9531-1.2188q11.031-2.1094 16.281-7.4062t5.25-14.172q0-10.609-7.1094-16.078-7.0938-5.4688-20.812-5.4688-5.1719 0-11.016 1.1719-5.8281 1.1719-12.078 3.4688v10.156q6-3.3594 11.766-5.0781 5.7656-1.7031 11.328-1.7031 8.4375 0 13.031 3.3125 4.5938 3.3281 4.5938 9.4844 0 5.3594-3.2969 8.3906t-10.812 4.5469l-6.0156 1.1719q-11.031 2.1875-15.969 6.875-4.9219 4.6875-4.9219 13.047 0 9.6719 6.8125 15.234t18.766 5.5625q5.1406 0 10.453-0.9375 5.3281-0.92188 10.891-2.7656z"/>
<path id="ba" d="m37.109 75.984v-7.4844h-8.5938q-4.8281 0-6.7188-1.9531-1.875-1.9531-1.875-7.0312v-4.8281h14.797v-6.9844h-14.797v-47.703h-9.0312v47.703h-8.5938v6.9844h8.5938v3.8125q0 9.125 4.25 13.297 4.25 4.1875 13.469 4.1875z"/>
</defs>
<g transform="translate(427.33 689.12) scale(.1 -.1)">
<use xlink:href="#ak"/>
<use x="63.476562" xlink:href="#p"/>
<use x="102.685547" xlink:href="#f"/>
<use x="164.208984" xlink:href="#ba"/>
<use x="199.414062" xlink:href="#e"/>
<use x="260.693359" xlink:href="#d"/>
<use x="324.072266" xlink:href="#g"/>
</g>
</g>
<g clip-path="url(#a)">
<g transform="translate(472.06 689.12) scale(.1 -.1)">
<use xlink:href="#u"/>
<use x="63.476562" xlink:href="#t"/>
<use x="124.658203" xlink:href="#d"/>
<use x="188.037109" xlink:href="#e"/>
<use x="249.316406" xlink:href="#p"/>
<use x="288.525391" xlink:href="#f"/>
<use x="350.048828" xlink:href="#u"/>
</g>
</g>
<g clip-path="url(#a)">
<defs>
<path id="au" d="m33.797-14.703h-4.8906l-0.046875 14.703q-5.125 0.09375-10.25 1.1875-5.125 1.1094-10.312 3.3125v8.7812q4.9844-3.125 10.078-4.7188 5.1094-1.5781 10.531-1.625v22.266q-10.797 1.75-15.703 5.9531t-4.9062 11.531q0 7.9531 5.3281 12.531 5.3281 4.5938 15.281 5.2812v11.484h4.8906v-11.328q4.5312-0.20312 8.7812-0.96875 4.25-0.75 8.2969-2.0625v-8.5469q-4.0469 2.0469-8.3281 3.1719-4.2656 1.125-8.75 1.3125v-20.844q11.078-1.7031 16.297-6.1094 5.2344-4.3906 5.2344-12 0-8.25-5.5469-13.016t-15.984-5.5zm-4.8906 52.297v20.031q-5.6562-0.64062-8.6406-3.2344-2.9844-2.5781-2.9844-6.875 0-4.2031 2.75-6.5469 2.7656-2.3438 8.875-3.375zm4.8906-9.375v-21.141q6.1875 0.82812 9.3438 3.5156t3.1562 7.0781q0 4.2969-3.0156 6.8281-3 2.5469-9.4844 3.7188z"/>
</defs>
<g transform="translate(537.37 689.12) scale(.1 -.1)">
<use xlink:href="#au"/>
</g>
</g>
<g clip-path="url(#a)">
<g transform="translate(585.19 689.12) scale(.1 -.1)">
<use xlink:href="#c"/>
</g>
</g>
<g clip-path="url(#a)">
<g transform="translate(619.53 689.12) scale(.1 -.1)">
<use xlink:href="#l"/>
<use x="97.412109" xlink:href="#g"/>
<use x="125.195312" xlink:href="#i"/>
<use x="152.978516" xlink:href="#i"/>
<use x="180.761719" xlink:href="#g"/>
<use x="208.544922" xlink:href="#t"/>
<use x="269.726562" xlink:href="#d"/>
</g>
</g>
<g clip-path="url(#a)">
<g transform="translate(678.98 689.12) scale(.1 -.1)">
<use xlink:href="#p"/>
<use x="39.208984" xlink:href="#t"/>
</g>
</g>
<g clip-path="url(#a)">
<defs>
<path id="ay" d="m2.9844 54.688h9.5156l17.094-45.891 17.094 45.891h9.5156l-20.516-54.688h-12.203z"/>
</defs>
<g transform="translate(719.54 689.12) scale(.1 -.1)">
<use xlink:href="#ak"/>
<use x="63.476562" xlink:href="#e"/>
<use x="124.755859" xlink:href="#ay"/>
<use x="183.935547" xlink:href="#f"/>
</g>
</g>
<g clip-path="url(#a)">
<g transform="translate(771.43 689.12) scale(.1 -.1)">
<use xlink:href="#p"/>
<use x="39.208984" xlink:href="#r"/>
<use x="102.587891" xlink:href="#f"/>
</g>
</g>
<g clip-path="url(#a)">
<g transform="translate(806.53 689.12) scale(.1 -.1)">
<use xlink:href="#o"/>
<use x="69.824219" xlink:href="#r"/>
<use x="133.203125" xlink:href="#g"/>
<use x="160.986328" xlink:href="#i"/>
<use x="188.769531" xlink:href="#u"/>
<use x="252.246094" xlink:href="#j"/>
<use x="293.328125" xlink:href="#f"/>
<use x="354.851562" xlink:href="#d"/>
</g>
</g>
<g clip-path="url(#a)">
<defs>
<path id="at" d="m17.922 72.906v-27.109h-8.2969v27.109z"/>
</defs>
<g transform="translate(871.28 689.12) scale(.1 -.1)">
<use xlink:href="#at"/>
<use x="27.490234" xlink:href="#ai"/>
</g>
</g>
<g clip-path="url(#a)">
<defs>
<path id="aq" d="m9.8125 72.906h9.8594v-67.828q0-13.188-5-19.141t-16.094-5.9531h-3.75v8.2969h3.0781q6.5312 0 9.2188 3.6719 2.6875 3.6562 2.6875 13.125z"/>
<path id="az" d="m18.109 8.2031v-29h-9.0312v75.484h9.0312v-8.2969q2.8438 4.875 7.1562 7.2344 4.3281 2.375 10.328 2.375 9.9688 0 16.188-7.9062 6.2344-7.9062 6.2344-20.797t-6.2344-20.812q-6.2188-7.9062-16.188-7.9062-6 0-10.328 2.375-4.3125 2.375-7.1562 7.25zm30.578 19.094q0 9.9062-4.0781 15.547t-11.203 5.6406q-7.1406 0-11.219-5.6406t-4.0781-15.547 4.0781-15.547 11.219-5.6406q7.125 0 11.203 5.6406t4.0781 15.547z"/>
</defs>
<g transform="translate(909.13 689.12) scale(.1 -.1)">
<use xlink:href="#aq"/>
<use x="29.492188" xlink:href="#e"/>
<use x="90.771484" xlink:href="#az"/>
<use x="154.248047" xlink:href="#e"/>
<use x="215.527344" xlink:href="#d"/>
</g>
</g>
<g clip-path="url(#a)">
<g transform="translate(942.11 689.12) scale(.1 -.1)">
<use xlink:href="#q"/>
<use x="63.183594" xlink:href="#e"/>
<use x="124.462891" xlink:href="#j"/>
<use x="165.576172" xlink:href="#p"/>
<use x="204.785156" xlink:href="#r"/>
<use x="268.164062" xlink:href="#am"/>
<use x="331.640625" xlink:href="#s"/>
<use x="395.019531" xlink:href="#e"/>
<use x="456.298828" xlink:href="#aj"/>
<use x="514.162109" xlink:href="#f"/>
</g>
</g>
<g clip-path="url(#a)">
<defs>
<path id="ar" d="m4.8906 31.391h26.312v-8h-26.312z"/>
</defs>
<g transform="translate(1016.9 689.12) scale(.1 -.1)">
<use xlink:href="#ar"/>
</g>
</g>
<g clip-path="url(#a)">
<g transform="translate(1045.2 689.12) scale(.1 -.1)">
<use xlink:href="#k"/>
<use x="60.833984" xlink:href="#ai"/>
<use x="112.933594" xlink:href="#s"/>
<use x="176.3125" xlink:href="#d"/>
<use x="239.691406" xlink:href="#e"/>
<use x="300.970703" xlink:href="#l"/>
<use x="398.382812" xlink:href="#g"/>
</g>
</g>
<g clip-path="url(#a)">
<g transform="translate(1093.4 689.12) scale(.1 -.1)">
<use xlink:href="#o"/>
<use x="69.824219" xlink:href="#r"/>
<use x="133.203125" xlink:href="#g"/>
<use x="160.986328" xlink:href="#i"/>
<use x="188.769531" xlink:href="#u"/>
<use x="252.246094" xlink:href="#j"/>
<use x="293.328125" xlink:href="#f"/>
<use x="354.851562" xlink:href="#d"/>
</g>
</g>
<g clip-path="url(#a)">
<g transform="translate(1157.6 689.12) scale(.1 -.1)">
<use xlink:href="#g"/>
<use x="27.783203" xlink:href="#d"/>
</g>
</g>
<g clip-path="url(#a)">
<defs>
<path id="ao" d="m48.781 52.594v-8.4062q-3.8125 2.1094-7.6406 3.1562t-7.7344 1.0469q-8.75 0-13.594-5.5469-4.8281-5.5312-4.8281-15.547t4.8281-15.562q4.8438-5.5312 13.594-5.5312 3.9062 0 7.7344 1.0469t7.6406 3.1562v-8.3125q-3.7656-1.75-7.7969-2.625-4.0156-0.89062-8.5625-0.89062-12.359 0-19.641 7.7656-7.2656 7.7656-7.2656 20.953 0 13.375 7.3438 21.031 7.3594 7.6719 20.156 7.6719 4.1406 0 8.0938-0.85938 3.9531-0.84375 7.6719-2.5469z"/>
<path id="aw" d="m32.172-5.0781q-3.7969-9.7656-7.4219-12.734-3.6094-2.9844-9.6562-2.9844h-7.1875v7.5156h5.2812q3.7031 0 5.75 1.7656 2.0625 1.75 4.5469 8.2969l1.6094 4.0938-22.109 53.812h9.5156l17.094-42.766 17.094 42.766h9.5156z"/>
</defs>
<g transform="translate(1181.7 689.12) scale(.1 -.1)">
<use xlink:href="#q"/>
<use x="63.183594" xlink:href="#l"/>
<use x="160.595703" xlink:href="#f"/>
<use x="222.119141" xlink:href="#j"/>
<use x="263.216797" xlink:href="#an"/>
<use x="326.693359" xlink:href="#f"/>
<use x="388.216797" xlink:href="#d"/>
<use x="451.595703" xlink:href="#ao"/>
<use x="506.576172" xlink:href="#aw"/>
</g>
</g>
<g clip-path="url(#a)">
<g transform="translate(1245.4 689.12) scale(.1 -.1)">
<use xlink:href="#ac"/>
<use x="57.441406" xlink:href="#s"/>
<use x="120.820312" xlink:href="#d"/>
<use x="184.199219" xlink:href="#u"/>
</g>
</g>
<g clip-path="url(#a)">
<defs>
<path id="h" d="m10.688 12.406h10.312v-12.406h-10.312z"/>
</defs>
<g transform="translate(1304 689.12) scale(.1 -.1)">
<use xlink:href="#h"/>
</g>
</g>
<g clip-path="url(#a)">
<g transform="translate(294.57 36.4) scale(.1 -.1)">
<use xlink:href="#c"/>
<use x="63.623047" xlink:href="#h"/>
<use x="95.410156" xlink:href="#c"/>
</g>
</g>
<g clip-path="url(#a)">
<g transform="translate(54.448 583.64) scale(.1 -.1)">
<use xlink:href="#c"/>
<use x="63.623047" xlink:href="#h"/>
<use x="95.410156" xlink:href="#m"/>
</g>
</g>
<g clip-path="url(#a)">
<defs>
<path id="n" d="m40.578 39.312q7.0781-1.5156 11.047-6.3125 3.9844-4.7812 3.9844-11.812 0-10.781-7.4219-16.703-7.4219-5.9062-21.094-5.9062-4.5781 0-9.4375 0.90625t-10.031 2.7188v9.5156q4.0938-2.3906 8.9688-3.6094 4.8906-1.2188 10.219-1.2188 9.2656 0 14.125 3.6562t4.8594 10.641q0 6.4531-4.5156 10.078-4.5156 3.6406-12.562 3.6406h-8.5v8.1094h8.8906q7.2656 0 11.125 2.9062t3.8594 8.375q0 5.6094-3.9844 8.6094-3.9688 3.0156-11.391 3.0156-4.0625 0-8.7031-0.89062-4.6406-0.875-10.203-2.7188v8.7812q5.625 1.5625 10.531 2.3438t9.25 0.78125q11.234 0 17.766-5.1094 6.5469-5.0938 6.5469-13.781 0-6.0625-3.4688-10.234t-9.8594-5.7812z"/>
</defs>
<g transform="translate(293.53 583.64) scale(.1 -.1)">
<use xlink:href="#c"/>
<use x="63.623047" xlink:href="#h"/>
<use x="95.410156" xlink:href="#n"/>
</g>
</g>
<g clip-path="url(#a)">
<defs>
<path id="x" d="m37.797 64.312-24.906-38.922h24.906zm-2.5938 8.5938h12.406v-47.516h10.406v-8.2031h-10.406v-17.188h-9.8125v17.188h-32.906v9.5156z"/>
</defs>
<g transform="translate(626.53 150.73) scale(.1 -.1)">
<use xlink:href="#c"/>
<use x="63.623047" xlink:href="#h"/>
<use x="95.410156" xlink:href="#x"/>
</g>
</g>
<g clip-path="url(#a)">
<defs>
<path id="w" d="m8.2031 72.906h46.875v-4.2031l-26.469-68.703h-10.297l24.906 64.594h-35.016z"/>
</defs>
<g transform="translate(173.99 478.16) scale(.1 -.1)">
<use xlink:href="#c"/>
<use x="63.623047" xlink:href="#h"/>
<use x="95.410156" xlink:href="#w"/>
</g>
</g>
<g clip-path="url(#a)">
<defs>
<path id="ae" d="m31.781 34.625q-7.0312 0-11.062-3.7656-4.0156-3.7656-4.0156-10.344 0-6.5938 4.0156-10.359 4.0312-3.7656 11.062-3.7656t11.078 3.7812q4.0625 3.7969 4.0625 10.344 0 6.5781-4.0312 10.344-4.0156 3.7656-11.109 3.7656zm-9.8594 4.1875q-6.3438 1.5625-9.8906 5.9062-3.5312 4.3594-3.5312 10.609 0 8.7344 6.2188 13.812 6.2344 5.0781 17.062 5.0781 10.891 0 17.094-5.0781t6.2031-13.812q0-6.25-3.5469-10.609-3.5312-4.3438-9.8281-5.9062 7.125-1.6562 11.094-6.5 3.9844-4.8281 3.9844-11.797 0-10.609-6.4688-16.281-6.4688-5.6562-18.531-5.6562-12.047 0-18.531 5.6562-6.4688 5.6719-6.4688 16.281 0 6.9688 4 11.797 4.0156 4.8438 11.141 6.5zm-3.6094 15.578q0-5.6562 3.5312-8.8281 3.5469-3.1719 9.9375-3.1719 6.3594 0 9.9375 3.1719 3.5938 3.1719 3.5938 8.8281 0 5.6719-3.5938 8.8438-3.5781 3.1719-9.9375 3.1719-6.3906 0-9.9375-3.1719-3.5312-3.1719-3.5312-8.8438z"/>
</defs>
<g transform="translate(229.77 478.16) scale(.1 -.1)">
<use xlink:href="#c"/>
<use x="63.623047" xlink:href="#h"/>
<use x="95.410156" xlink:href="#ae"/>
</g>
</g>
<g clip-path="url(#a)">
<defs>
<path id="ad" d="m10.984 1.5156v8.9844q3.7188-1.7656 7.5156-2.6875 3.8125-0.92188 7.4844-0.92188 9.7656 0 14.906 6.5625 5.1562 6.5625 5.8906 19.953-2.8281-4.2031-7.1875-6.4531-4.3438-2.25-9.6094-2.25-10.938 0-17.312 6.6094-6.375 6.625-6.375 18.109 0 11.219 6.6406 18 6.6406 6.7969 17.672 6.7969 12.656 0 19.312-9.7031 6.6719-9.6875 6.6719-28.141 0-17.234-8.1875-27.516-8.1719-10.281-21.984-10.281-3.7188 0-7.5312 0.73438-3.7969 0.73438-7.9062 2.2031zm19.625 30.906q6.6406 0 10.516 4.5312 3.8906 4.5469 3.8906 12.469 0 7.8594-3.8906 12.422-3.875 4.5625-10.516 4.5625t-10.516-4.5625-3.875-12.422q0-7.9219 3.875-12.469 3.875-4.5312 10.516-4.5312z"/>
</defs>
<g transform="translate(341.34 583.64) scale(.1 -.1)">
<use xlink:href="#c"/>
<use x="63.623047" xlink:href="#h"/>
<use x="95.410156" xlink:href="#ad"/>
</g>
</g>
<g clip-path="url(#a)">
<g transform="translate(99.082 583.64) scale(.1 -.1)">
<use xlink:href="#c"/>
<use x="63.623047" xlink:href="#h"/>
<use x="95.410156" xlink:href="#c"/>
<use x="159.033203" xlink:href="#ah"/>
</g>
</g>
<g clip-path="url(#a)">
<g transform="translate(146.9 583.64) scale(.1 -.1)">
<use xlink:href="#c"/>
<use x="63.623047" xlink:href="#h"/>
<use x="95.410156" xlink:href="#c"/>
<use x="159.033203" xlink:href="#c"/>
</g>
</g>
<g clip-path="url(#a)">
<g transform="translate(194.71 583.64) scale(.1 -.1)">
<use xlink:href="#c"/>
<use x="63.623047" xlink:href="#h"/>
<use x="95.410156" xlink:href="#c"/>
<use x="159.033203" xlink:href="#m"/>
</g>
</g>
<g clip-path="url(#a)">
<g transform="translate(242.53 583.64) scale(.1 -.1)">
<use xlink:href="#c"/>
<use x="63.623047" xlink:href="#h"/>
<use x="95.410156" xlink:href="#c"/>
<use x="159.033203" xlink:href="#n"/>
</g>
</g>
<g clip-path="url(#a)">
<g transform="translate(433.79 583.64) scale(.1 -.1)">
<use xlink:href="#c"/>
<use x="63.623047" xlink:href="#h"/>
<use x="95.410156" xlink:href="#c"/>
<use x="159.033203" xlink:href="#x"/>
</g>
</g>
<g clip-path="url(#a)">
<defs>
<path id="ag" d="m10.797 72.906h38.719v-8.3125h-29.688v-17.859q2.1406 0.73438 4.2812 1.0938 2.1562 0.35938 4.3125 0.35938 12.203 0 19.328-6.6875 7.1406-6.6875 7.1406-18.109 0-11.766-7.3281-18.297-7.3281-6.5156-20.656-6.5156-4.5938 0-9.3594 0.78125-4.75 0.78125-9.8281 2.3438v9.9219q4.3906-2.3906 9.0781-3.5625t9.9062-1.1719q8.4531 0 13.375 4.4375 4.9375 4.4375 4.9375 12.062 0 7.6094-4.9375 12.047-4.9219 4.4531-13.375 4.4531-3.9531 0-7.8906-0.875-3.9219-0.875-8.0156-2.7344z"/>
</defs>
<g transform="translate(481.61 583.64) scale(.1 -.1)">
<use xlink:href="#c"/>
<use x="63.623047" xlink:href="#h"/>
<use x="95.410156" xlink:href="#c"/>
<use x="159.033203" xlink:href="#ag"/>
</g>
</g>
<g clip-path="url(#a)">
<defs>
<path id="af" d="m33.016 40.375q-6.6406 0-10.531-4.5469-3.875-4.5312-3.875-12.438 0-7.8594 3.875-12.438 3.8906-4.5625 10.531-4.5625t10.516 4.5625q3.875 4.5781 3.875 12.438 0 7.9062-3.875 12.438-3.875 4.5469-10.516 4.5469zm19.578 30.922v-8.9844q-3.7188 1.75-7.5 2.6719-3.7812 0.9375-7.5 0.9375-9.7656 0-14.922-6.5938-5.1406-6.5938-5.875-19.922 2.875 4.25 7.2188 6.5156 4.3594 2.2656 9.5781 2.2656 10.984 0 17.359-6.6719 6.375-6.6562 6.375-18.125 0-11.234-6.6406-18.031-6.6406-6.7812-17.672-6.7812-12.656 0-19.344 9.6875-6.6875 9.7031-6.6875 28.109 0 17.281 8.2031 27.562t22.016 10.281q3.7188 0 7.5-0.73438t7.8906-2.1875z"/>
</defs>
<g transform="translate(565.28 478.16) scale(.1 -.1)">
<use xlink:href="#c"/>
<use x="63.623047" xlink:href="#h"/>
<use x="95.410156" xlink:href="#c"/>
<use x="159.033203" xlink:href="#af"/>
</g>
</g>
<g clip-path="url(#a)">
<g transform="translate(1012.7 262.21) scale(.1 -.1)">
<use xlink:href="#c"/>
<use x="63.623047" xlink:href="#h"/>
<use x="95.410156" xlink:href="#c"/>
<use x="159.033203" xlink:href="#w"/>
</g>
</g>
<g clip-path="url(#a)">
<g transform="translate(672.87 583.64) scale(.1 -.1)">
<use xlink:href="#c"/>
<use x="63.623047" xlink:href="#h"/>
<use x="95.410156" xlink:href="#c"/>
<use x="159.033203" xlink:href="#ae"/>
</g>
</g>
<g clip-path="url(#a)">
<g transform="translate(816.31 478.16) scale(.1 -.1)">
<use xlink:href="#c"/>
<use x="63.623047" xlink:href="#h"/>
<use x="95.410156" xlink:href="#c"/>
<use x="159.033203" xlink:href="#ad"/>
</g>
</g>
<g clip-path="url(#a)">
<g transform="translate(911.94 583.64) scale(.1 -.1)">
<use xlink:href="#c"/>
<use x="63.623047" xlink:href="#h"/>
<use x="95.410156" xlink:href="#m"/>
<use x="159.033203" xlink:href="#ah"/>
</g>
</g>
<g clip-path="url(#a)">
<g transform="translate(1007.6 478.16) scale(.1 -.1)">
<use xlink:href="#c"/>
<use x="63.623047" xlink:href="#h"/>
<use x="95.410156" xlink:href="#m"/>
<use x="159.033203" xlink:href="#c"/>
</g>
</g>
<g clip-path="url(#a)">
<g transform="translate(1139.1 371.22) scale(.1 -.1)">
<use xlink:href="#c"/>
<use x="63.623047" xlink:href="#h"/>
<use x="95.410156" xlink:href="#m"/>
<use x="159.033203" xlink:href="#m"/>
</g>
</g>
<g clip-path="url(#a)">
<g transform="translate(1246.7 583.64) scale(.1 -.1)">
<use xlink:href="#c"/>
<use x="63.623047" xlink:href="#h"/>
<use x="95.410156" xlink:href="#m"/>
<use x="159.033203" xlink:href="#n"/>
</g>
</g>
<g clip-path="url(#a)">
<g transform="translate(1103.2 583.64) scale(.1 -.1)">
<use xlink:href="#c"/>
<use x="63.623047" xlink:href="#h"/>
<use x="95.410156" xlink:href="#m"/>
<use x="159.033203" xlink:href="#x"/>
</g>
</g>
<g clip-path="url(#a)">
<g transform="translate(1174.9 478.16) scale(.1 -.1)">
<use xlink:href="#c"/>
<use x="63.623047" xlink:href="#h"/>
<use x="95.410156" xlink:href="#m"/>
<use x="159.033203" xlink:href="#ag"/>
</g>
</g>
<g clip-path="url(#a)">
<g transform="translate(1151 583.64) scale(.1 -.1)">
<use xlink:href="#c"/>
<use x="63.623047" xlink:href="#h"/>
<use x="95.410156" xlink:href="#m"/>
<use x="159.033203" xlink:href="#af"/>
</g>
</g>
<g clip-path="url(#a)">
<g transform="translate(1198.8 583.64) scale(.1 -.1)">
<use xlink:href="#c"/>
<use x="63.623047" xlink:href="#h"/>
<use x="95.410156" xlink:href="#m"/>
<use x="159.033203" xlink:href="#w"/>
</g>
</g>
<g clip-path="url(#a)">
<g transform="translate(959.76 583.64) scale(.1 -.1)">
<use xlink:href="#c"/>
<use x="63.623047" xlink:href="#h"/>
<use x="95.410156" xlink:href="#m"/>
<use x="159.033203" xlink:href="#ae"/>
</g>
</g>
<g clip-path="url(#a)">
<g transform="translate(1055.4 583.64) scale(.1 -.1)">
<use xlink:href="#c"/>
<use x="63.623047" xlink:href="#h"/>
<use x="95.410156" xlink:href="#m"/>
<use x="159.033203" xlink:href="#ad"/>
</g>
</g>
<g clip-path="url(#a)">
<g transform="translate(768.5 583.64) scale(.1 -.1)">
<use xlink:href="#c"/>
<use x="63.623047" xlink:href="#h"/>
<use x="95.410156" xlink:href="#n"/>
<use x="159.033203" xlink:href="#c"/>
</g>
</g>
<g clip-path="url(#a)">
<g transform="translate(864.13 583.64) scale(.1 -.1)">
<use xlink:href="#c"/>
<use x="63.623047" xlink:href="#h"/>
<use x="95.410156" xlink:href="#n"/>
<use x="159.033203" xlink:href="#m"/>
</g>
</g>
<g clip-path="url(#a)">
<g transform="translate(529.42 583.64) scale(.1 -.1)">
<use xlink:href="#c"/>
<use x="63.623047" xlink:href="#h"/>
<use x="95.410156" xlink:href="#n"/>
<use x="159.033203" xlink:href="#n"/>
</g>
</g>
<g clip-path="url(#a)">
<g transform="translate(601.14 583.64) scale(.1 -.1)">
<use xlink:href="#c"/>
<use x="63.623047" xlink:href="#h"/>
<use x="95.410156" xlink:href="#n"/>
<use x="159.033203" xlink:href="#x"/>
</g>
</g>
<g clip-path="url(#a)">
<g transform="translate(385.97 583.64) scale(.1 -.1)">
<use xlink:href="#c"/>
<use x="63.623047" xlink:href="#h"/>
<use x="95.410156" xlink:href="#n"/>
<use x="159.033203" xlink:href="#ag"/>
</g>
</g>
<g clip-path="url(#a)">
<g transform="translate(1007.6 583.64) scale(.1 -.1)">
<use xlink:href="#c"/>
<use x="63.623047" xlink:href="#h"/>
<use x="95.410156" xlink:href="#n"/>
<use x="159.033203" xlink:href="#af"/>
</g>
</g>
<g clip-path="url(#a)">
<g transform="translate(1294.5 583.64) scale(.1 -.1)">
<use xlink:href="#c"/>
<use x="63.623047" xlink:href="#h"/>
<use x="95.410156" xlink:href="#n"/>
<use x="159.033203" xlink:href="#w"/>
</g>
</g>
<defs>
<clipPath id="a">
<rect width="1368" height="720"/>
</clipPath>
</defs>
</svg>
