<?xml version="1.0" encoding="UTF-8"?>
<!DOCTYPE svg  PUBLIC '-//W3C//DTD SVG 1.1//EN'  'http://www.w3.org/Graphics/SVG/1.1/DTD/svg11.dtd'>
<svg width="2026.7pt" height="1066.7pt" version="1.1" viewBox="0 0 2026.7 1066.7" xmlns="http://www.w3.org/2000/svg" xmlns:xlink="http://www.w3.org/1999/xlink">
<defs>
<style type="text/css">*{stroke-linecap:butt;stroke-linejoin:round;}</style>
</defs>
<path d="m0 1066.7h2026.7v-1066.7h-2026.7z" fill="#fff"/>
<g fill="none" stroke="#000">
<path d="m492.45 49.26-400.19 835.56" clip-path="url(#a)"/>
<path d="m492.45 49.26-190.52 568.54" clip-path="url(#a)"/>
<path d="m492.45 49.26 590.71 147.68" clip-path="url(#a)"/>
<path d="m92.259 884.82v132.59" clip-path="url(#a)"/>
<path d="m301.93 617.8 82.372 267.02" clip-path="url(#a)" stroke-dasharray="3.7,1.6"/>
<path d="m301.93 617.8-97.349 134.43" clip-path="url(#a)"/>
<path d="m301.93 617.8 14.977 267.02" clip-path="url(#a)"/>
<path d="m1083.2 196.94-698.86 687.88" clip-path="url(#a)"/>
<path d="m1083.2 196.94-631.46 687.88" clip-path="url(#a)"/>
<path d="m1083.2 196.94-564.07 555.3" clip-path="url(#a)"/>
<path d="m1083.2 196.94-140.19 143.71" clip-path="url(#a)"/>
<path d="m1083.2 196.94 446.87 555.3" clip-path="url(#a)"/>
<path d="m1083.2 196.94 693.98 555.3" clip-path="url(#a)"/>
<path d="m1083.2 196.94 312.08 687.88" clip-path="url(#a)"/>
<path d="m1083.2 196.94 581.66 687.88" clip-path="url(#a)"/>
<path d="m384.31 884.82-22.465 132.59" clip-path="url(#a)"/>
<path d="m384.31 884.82 22.465 132.59" clip-path="url(#a)"/>
<path d="m451.7 884.82v132.59" clip-path="url(#a)"/>
<path d="m519.1 752.24-22.465 132.59" clip-path="url(#a)"/>
<path d="m519.1 752.24 22.465 132.59" clip-path="url(#a)"/>
<path d="m942.97 340.65-356.48 544.18" clip-path="url(#a)"/>
<path d="m942.97 340.65-221.69 544.18" clip-path="url(#a)"/>
<path d="m942.97 340.65 324.97 277.16" clip-path="url(#a)"/>
<path d="m942.97 340.65 247.27 140.14" clip-path="url(#a)"/>
<path d="m942.97 340.65-86.897 544.18" clip-path="url(#a)"/>
<path d="m942.97 340.65 92.825 544.18" clip-path="url(#a)"/>
<path d="m1530 752.24-89.861 132.59" clip-path="url(#a)"/>
<path d="m1530 752.24-44.93 132.59" clip-path="url(#a)"/>
<path d="m1530 752.24v132.59" clip-path="url(#a)"/>
<path d="m1530 752.24 89.861 132.59" clip-path="url(#a)"/>
<path d="m1530 752.24 44.93 132.59" clip-path="url(#a)"/>
<path d="m1777.2 752.24-67.396 132.59" clip-path="url(#a)"/>
<path d="m1777.2 752.24-22.465 132.59" clip-path="url(#a)"/>
<path d="m1777.2 752.24 22.465 132.59" clip-path="url(#a)"/>
<path d="m1777.2 752.24 67.396 132.59" clip-path="url(#a)"/>
<path d="m1709.8 884.82v132.59" clip-path="url(#a)"/>
<path d="m1754.7 884.82v132.59" clip-path="url(#a)"/>
<path d="m1799.6 884.82v132.59" clip-path="url(#a)"/>
<path d="m1440.2 884.82v132.59" clip-path="url(#a)"/>
<path d="m1485.1 884.82v132.59" clip-path="url(#a)"/>
<path d="m1530 884.82v132.59" clip-path="url(#a)"/>
<path d="m1619.9 884.82v132.59" clip-path="url(#a)"/>
<path d="m586.49 884.82v132.59" clip-path="url(#a)"/>
<path d="m721.29 884.82-89.861 132.59" clip-path="url(#a)"/>
<path d="m721.29 884.82-44.93 132.59" clip-path="url(#a)"/>
<path d="m721.29 884.82v132.59" clip-path="url(#a)"/>
<path d="m721.29 884.82 44.93 132.59" clip-path="url(#a)"/>
<path d="m721.29 884.82 89.861 132.59" clip-path="url(#a)"/>
<path d="m1267.9 617.8 666.47 399.6" clip-path="url(#a)"/>
<path d="m1267.9 617.8-366.93 267.02" clip-path="url(#a)"/>
<path d="m1267.9 617.8-299.54 134.43" clip-path="url(#a)"/>
<path d="m1190.2 480.79-109.52 404.03" clip-path="url(#a)"/>
<path d="m1190.2 480.79-64.587 404.03" clip-path="url(#a)"/>
<path d="m1190.2 480.79 193.76 137.02" clip-path="url(#a)"/>
<path d="m1190.2 480.79-19.657 404.03" clip-path="url(#a)"/>
<path d="m1080.7 884.82v132.59" clip-path="url(#a)"/>
<path d="m1125.7 884.82v132.59" clip-path="url(#a)"/>
<path d="m1384 617.8 33.698 134.43" clip-path="url(#a)"/>
<path d="m1384 617.8-33.698 267.02" clip-path="url(#a)"/>
<path d="m1417.7 752.24 471.77 265.17" clip-path="url(#a)"/>
<path d="m1417.7 752.24-202.19 132.59" clip-path="url(#a)"/>
<path d="m1417.7 752.24-112.33 132.59" clip-path="url(#a)"/>
<path d="m1417.7 752.24-157.26 132.59" clip-path="url(#a)"/>
<path d="m1350.3 884.82v132.59" clip-path="url(#a)"/>
<path d="m1215.5 884.82v132.59" clip-path="url(#a)"/>
<path d="m1305.4 884.82v132.59" clip-path="url(#a)"/>
<path d="m901.01 884.82v132.59" clip-path="url(#a)"/>
<path d="m968.4 752.24-22.465 132.59" clip-path="url(#a)"/>
<path d="m968.4 752.24 22.465 132.59" clip-path="url(#a)"/>
<path d="m945.94 884.82v132.59" clip-path="url(#a)"/>
<path d="m990.87 884.82v132.59" clip-path="url(#a)"/>
<path d="m496.63 884.82v132.59" clip-path="url(#a)"/>
<path d="m541.56 884.82v132.59" clip-path="url(#a)"/>
<path d="m204.59 752.24-67.396 132.59" clip-path="url(#a)"/>
<path d="m204.59 752.24-22.465 132.59" clip-path="url(#a)"/>
<path d="m204.59 752.24 22.465 132.59" clip-path="url(#a)"/>
<path d="m204.59 752.24 67.396 132.59" clip-path="url(#a)"/>
<path d="m316.91 884.82v132.59" clip-path="url(#a)"/>
<path d="m137.19 884.82v132.59" clip-path="url(#a)"/>
<path d="m182.12 884.82v132.59" clip-path="url(#a)"/>
<path d="m227.05 884.82v132.59" clip-path="url(#a)"/>
<path d="m271.98 884.82v132.59" clip-path="url(#a)"/>
<path d="m856.08 884.82v132.59" clip-path="url(#a)"/>
<path d="m1035.8 884.82v132.59" clip-path="url(#a)"/>
<path d="m1170.6 884.82v132.59" clip-path="url(#a)"/>
<path d="m1260.5 884.82v132.59" clip-path="url(#a)"/>
<path d="m1395.2 884.82v132.59" clip-path="url(#a)"/>
<path d="m1575 884.82v132.59" clip-path="url(#a)"/>
<path d="m1664.8 884.82v132.59" clip-path="url(#a)"/>
<path d="m1844.5 884.82v132.59" clip-path="url(#a)"/>
</g>
<path d="m297.05 471.76 1.9255-4.0202q1.0367-2.1645-1.1278-3.2013l-6.9829-3.3445q-2.1645-1.0367-3.2013 1.1278l-1.9255 4.0202q-1.0367 2.1645 1.1278 3.2013l6.9829 3.3445q2.1645 1.0367 3.2013-1.1278z" clip-path="url(#a)" fill="#fff" stroke="#fff"/>
<g clip-path="url(#a)">
<defs>
<path id="z" d="m9.8125 72.906h9.8594v-64.609h35.5v-8.2969h-45.359z"/>
</defs>
<g transform="translate(293.38 470) rotate(-64.408) scale(.08 -.08)">
<use xlink:href="#z"/>
</g>
</g>
<path d="m402.18 338.38 1.9116-5.7045q0.76256-2.2756-1.5131-3.0382l-7.3413-2.4601q-2.2756-0.76256-3.0382 1.5131l-1.9116 5.7045q-0.76256 2.2756 1.5131 3.0382l7.3413 2.4601q2.2756 0.76256 3.0382-1.5131z" clip-path="url(#a)" fill="#fff" stroke="#fff"/>
<g clip-path="url(#a)">
<defs>
<path id="ah" d="m9.8125 72.906h9.8594v-29.891h35.844v29.891h9.8594v-72.906h-9.8594v34.719h-35.844v-34.719h-9.8594z"/>
</defs>
<g transform="translate(398.33 337.09) rotate(-71.474) scale(.08 -.08)">
<use xlink:href="#ah"/>
</g>
</g>
<path d="m783.37 128.45 5.8366 1.4591q2.3283 0.58208 2.9104-1.7463l1.8778-7.5113q0.58208-2.3283-1.7463-2.9104l-5.8366-1.4591q-2.3283-0.58208-2.9104 1.7463l-1.8778 7.5113q-0.58208 2.3283 1.7463 2.9104z" clip-path="url(#a)" fill="#fff" stroke="#fff"/>
<g clip-path="url(#a)">
<g transform="translate(784.36 124.51) rotate(14.036) scale(.08 -.08)">
<use xlink:href="#ah"/>
</g>
</g>
<path d="m85.988 933.47v35.285q0 2.4 2.4 2.4h7.7425q2.4 0 2.4-2.4v-35.285q0-2.4-2.4-2.4h-7.7425q-2.4 0-2.4 2.4z" clip-path="url(#a)" fill="#fff" stroke="#fff"/>
<g clip-path="url(#a)">
<defs>
<path id="l" d="m-0.29688 72.906h61.672v-8.3125h-25.875v-64.594h-9.9062v64.594h-25.891z"/>
<path id="d" d="m56.203 29.594v-4.3906h-41.312q0.59375-9.2812 5.5938-14.141t13.938-4.8594q5.1719 0 10.031 1.2656t9.6562 3.8125v-8.5q-4.8438-2.0469-9.9219-3.125t-10.297-1.0781q-13.094 0-20.734 7.6094-7.6406 7.625-7.6406 20.625 0 13.422 7.25 21.297 7.25 7.8906 19.562 7.8906 11.031 0 17.453-7.1094 6.4219-7.0938 6.4219-19.297zm-8.9844 2.6406q-0.09375 7.3594-4.125 11.75-4.0312 4.4062-10.672 4.4062-7.5156 0-12.031-4.25t-5.2031-11.969z"/>
<path id="h" d="m41.109 46.297q-1.5156 0.875-3.2969 1.2812-1.7812 0.42188-3.9219 0.42188-7.625 0-11.703-4.9531t-4.0781-14.234v-28.812h-9.0312v54.688h9.0312v-8.5q2.8438 4.9844 7.375 7.3906 4.5469 2.4219 11.047 2.4219 0.92188 0 2.0469-0.125 1.125-0.10938 2.4844-0.35938z"/>
<path id="j" d="m52 44.188q3.375 6.0625 8.0625 8.9375t11.031 2.875q8.5469 0 13.188-5.9844 4.6406-5.9688 4.6406-17v-33.016h-9.0312v32.719q0 7.8594-2.7969 11.656-2.7812 3.8125-8.4844 3.8125-6.9844 0-11.047-4.6406-4.0469-4.625-4.0469-12.641v-30.906h-9.0312v32.719q0 7.9062-2.7812 11.688t-8.5938 3.7812q-6.8906 0-10.953-4.6562-4.0469-4.6562-4.0469-12.625v-30.906h-9.0312v54.688h9.0312v-8.5q3.0781 5.0312 7.375 7.4219t10.203 2.3906q5.9688 0 10.141-3.0312 4.1719-3.0156 6.1719-8.7812z"/>
<path id="i" d="m9.4219 54.688h8.9844v-54.688h-8.9844zm0 21.297h8.9844v-11.391h-8.9844z"/>
<path id="e" d="m54.891 33.016v-33.016h-8.9844v32.719q0 7.7656-3.0312 11.609-3.0312 3.8594-9.0781 3.8594-7.2812 0-11.484-4.6406-4.2031-4.625-4.2031-12.641v-30.906h-9.0312v54.688h9.0312v-8.5q3.2344 4.9375 7.5938 7.375 4.375 2.4375 10.094 2.4375 9.4219 0 14.25-5.8281 4.8438-5.8281 4.8438-17.156z"/>
<path id="f" d="m34.281 27.484q-10.891 0-15.094-2.4844t-4.2031-8.5q0-4.7812 3.1562-7.5938 3.1562-2.7969 8.5625-2.7969 7.4844 0 12 5.2969t4.5156 14.078v2zm17.922 3.7188v-31.203h-8.9844v8.2969q-3.0781-4.9688-7.6719-7.3438t-11.234-2.375q-8.3906 0-13.359 4.7188-4.9531 4.7188-4.9531 12.625 0 9.2188 6.1719 13.906 6.1875 4.6875 18.438 4.6875h12.609v0.89062q0 6.2031-4.0781 9.5938t-11.453 3.3906q-4.6875 0-9.1406-1.125-4.4375-1.125-8.5312-3.375v8.3125q4.9219 1.9062 9.5625 2.8438 4.6406 0.95312 9.0312 0.95312 11.875 0 17.734-6.1562 5.8594-6.1406 5.8594-18.641z"/>
<path id="k" d="m9.4219 75.984h8.9844v-75.984h-8.9844z"/>
</defs>
<g transform="translate(90.052 933.47) rotate(90) scale(.08 -.08)">
<use xlink:href="#l"/>
<use x="60.818359" xlink:href="#d"/>
<use x="122.341797" xlink:href="#h"/>
<use x="163.439453" xlink:href="#j"/>
<use x="260.851562" xlink:href="#i"/>
<use x="288.634766" xlink:href="#e"/>
<use x="352.013672" xlink:href="#f"/>
<use x="413.292969" xlink:href="#k"/>
</g>
</g>
<path d="m336.32 750.55 1.6132 5.2293q0.70748 2.2934 3.0008 1.5859l7.3985-2.2824q2.2934-0.70748 1.5859-3.0008l-1.6132-5.2293q-0.70748-2.2934-3.0008-1.5859l-7.3985 2.2824q-2.2934 0.70748-1.5859 3.0008z" clip-path="url(#a)" fill="#fff" stroke="#fff"/>
<g clip-path="url(#a)">
<defs>
<path id="w" d="m34.188 63.188-13.391-36.281h26.812zm-5.5781 9.7188h11.188l27.781-72.906h-10.25l-6.6406 18.703h-32.859l-6.6406-18.703h-10.406z"/>
</defs>
<g transform="translate(340.21 749.35) rotate(72.855) scale(.08 -.08)">
<use xlink:href="#w"/>
</g>
</g>
<path d="m256.85 690.75 2.9788-4.1134q1.4077-1.9438-0.53618-3.3515l-6.2709-4.5412q-1.9438-1.4077-3.3515 0.53618l-2.9788 4.1134q-1.4077 1.9438 0.53618 3.3515l6.2709 4.5412q1.9438 1.4077 3.3515-0.53618z" clip-path="url(#a)" fill="#fff" stroke="#fff"/>
<g clip-path="url(#a)">
<defs>
<path id="ag" d="m53.516 70.516v-9.625q-5.6094 2.6875-10.594 4-4.9844 1.3281-9.625 1.3281-8.0469 0-12.422-3.125t-4.375-8.8906q0-4.8438 2.9062-7.3125 2.9062-2.4531 11.016-3.9688l5.9531-1.2188q11.031-2.1094 16.281-7.4062t5.25-14.172q0-10.609-7.1094-16.078-7.0938-5.4688-20.812-5.4688-5.1719 0-11.016 1.1719-5.8281 1.1719-12.078 3.4688v10.156q6-3.3594 11.766-5.0781 5.7656-1.7031 11.328-1.7031 8.4375 0 13.031 3.3125 4.5938 3.3281 4.5938 9.4844 0 5.3594-3.2969 8.3906t-10.812 4.5469l-6.0156 1.1719q-11.031 2.1875-15.969 6.875-4.9219 4.6875-4.9219 13.047 0 9.6719 6.8125 15.234t18.766 5.5625q5.1406 0 10.453-0.9375 5.3281-0.92188 10.891-2.7656z"/>
</defs>
<g transform="translate(253.56 688.37) rotate(-54.089) scale(.08 -.08)">
<use xlink:href="#ag"/>
</g>
</g>
<path d="m303 748.74 0.32789 5.8458q0.1344 2.3962 2.5306 2.2618l7.7304-0.43359q2.3962-0.1344 2.2618-2.5306l-0.32789-5.8458q-0.1344-2.3962-2.5306-2.2618l-7.7303 0.43359q-2.3962 0.1344-2.2618 2.5306z" clip-path="url(#a)" fill="#fff" stroke="#fff"/>
<g clip-path="url(#a)">
<defs>
<path id="u" d="m8.6875 72.906h9.9219v-44.297q0-11.719 4.2344-16.875 4.25-5.1406 13.781-5.1406 9.4688 0 13.719 5.1406 4.25 5.1562 4.25 16.875v44.297h9.9062v-45.516q0-14.25-7.0625-21.531-7.0469-7.2812-20.812-7.2812-13.828 0-20.891 7.2812-7.0469 7.2812-7.0469 21.531z"/>
</defs>
<g transform="translate(307.06 748.51) rotate(86.79) scale(.08 -.08)">
<use xlink:href="#u"/>
</g>
</g>
<path d="m736.19 547.27 3.9001-3.8389q1.7104-1.6836 0.026863-3.394l-5.4313-5.5179q-1.6836-1.7104-3.394-0.026863l-3.9001 3.8389q-1.7104 1.6836-0.026863 3.394l5.4313 5.5179q1.6836 1.7104 3.394 0.026862z" clip-path="url(#a)" fill="#fff" stroke="#fff"/>
<g clip-path="url(#a)">
<g transform="translate(733.34 544.37) rotate(-44.547) scale(.08 -.08)">
<use xlink:href="#w"/>
</g>
</g>
<path d="m770.5 546.81 3.1116-3.3896q1.623-1.768-0.14501-3.391l-5.7037-5.2359q-1.768-1.623-3.391 0.14501l-3.1116 3.3896q-1.623 1.768 0.14501 3.391l5.7037 5.2359q1.768 1.623 3.391-0.14501z" clip-path="url(#a)" fill="#fff" stroke="#fff"/>
<g clip-path="url(#a)">
<defs>
<path id="ax" d="m9.8125 72.906h41.891v-8.3125h-32.031v-21.484h28.906v-8.2969h-28.906v-34.812h-9.8594z"/>
</defs>
<g transform="translate(767.51 544.07) rotate(-47.449) scale(.08 -.08)">
<use xlink:href="#ax"/>
</g>
</g>
<path d="m803.81 480.75 3.4375-3.3841q1.7103-1.6837 0.026592-3.394l-5.4317-5.5175q-1.6837-1.7103-3.394-0.026592l-3.4375 3.3841q-1.7103 1.6837-0.026592 3.394l5.4317 5.5175q1.6837 1.7103 3.394 0.026592z" clip-path="url(#a)" fill="#fff" stroke="#fff"/>
<g clip-path="url(#a)">
<defs>
<path id="aj" d="m19.672 64.797v-27.391h12.406q6.8906 0 10.641 3.5625 3.7656 3.5625 3.7656 10.156 0 6.5469-3.7656 10.109-3.75 3.5625-10.641 3.5625zm-9.8594 8.1094h22.266q12.266 0 18.531-5.5469 6.2812-5.5469 6.2812-16.234 0-10.797-6.2812-16.312-6.2656-5.5156-18.531-5.5156h-12.406v-29.297h-9.8594z"/>
</defs>
<g transform="translate(800.96 477.85) rotate(-44.551) scale(.08 -.08)">
<use xlink:href="#aj"/>
</g>
</g>
<path d="m1015.6 275.13 3.8214-3.9173q1.6759-1.7179-0.04202-3.3939l-5.5421-5.4066q-1.7179-1.6759-3.3939 0.04202l-3.8214 3.9173q-1.6759 1.7179 0.04202 3.3939l5.5421 5.4066q1.7179 1.6759 3.3939-0.04202z" clip-path="url(#a)" fill="#fff" stroke="#fff"/>
<g clip-path="url(#a)">
<g transform="translate(1012.7 272.29) rotate(-45.709) scale(.08 -.08)">
<use xlink:href="#w"/>
</g>
</g>
<path d="m1300 476.39 3.4309 4.2634q1.5047 1.8698 3.3744 0.3651l6.0319-4.8541q1.8698-1.5047 0.3651-3.3744l-3.4309-4.2634q-1.5047-1.8698-3.3744-0.3651l-6.0319 4.8541q-1.8698 1.5047-0.3651 3.3744z" clip-path="url(#a)" fill="#fff" stroke="#fff"/>
<g clip-path="url(#a)">
<g transform="translate(1303.2 473.84) rotate(51.175) scale(.08 -.08)">
<use xlink:href="#w"/>
</g>
</g>
<path d="m1424.1 477.77 4.273 3.4191q1.8739 1.4995 3.3734-0.37449l4.8373-6.0454q1.4994-1.8739-0.37449-3.3734l-4.273-3.4191q-1.8739-1.4994-3.3734 0.37449l-4.8373 6.0454q-1.4994 1.8739 0.37449 3.3734z" clip-path="url(#a)" fill="#fff" stroke="#fff"/>
<g clip-path="url(#a)">
<g transform="translate(1426.6 474.6) rotate(38.665) scale(.08 -.08)">
<use xlink:href="#w"/>
</g>
</g>
<path d="m1232.3 540.8 2.419 5.3319q0.99155 2.1856 3.1771 1.194l7.0508-3.1988q2.1856-0.99155 1.194-3.1771l-2.419-5.3319q-0.99155-2.1856-3.1771-1.194l-7.0508 3.1988q-2.1856 0.99155-1.194 3.1771z" clip-path="url(#a)" fill="#fff" stroke="#fff"/>
<g clip-path="url(#a)">
<g transform="translate(1236 539.13) rotate(65.597) scale(.08 -.08)">
<use xlink:href="#u"/>
</g>
</g>
<path d="m1367.3 542.69 3.7805 4.4709q1.5496 1.8326 3.3823 0.283l5.9122-4.9992q1.8326-1.5496 0.283-3.3823l-3.7805-4.4709q-1.5496-1.8326-3.3823-0.28301l-5.9122 4.9992q-1.8326 1.5496-0.283 3.3823z" clip-path="url(#a)" fill="#fff" stroke="#fff"/>
<g clip-path="url(#a)">
<g transform="translate(1370.4 540.07) rotate(49.783) scale(.08 -.08)">
<use xlink:href="#u"/>
</g>
</g>
<path d="m376.31 969.56 5.8946-34.789q0.40094-2.3663-1.9653-2.7672l-7.6337-1.2934q-2.3663-0.40094-2.7672 1.9653l-5.8946 34.789q-0.40094 2.3663 1.9653 2.7672l7.6337 1.2934q2.3663 0.40094 2.7672-1.9653z" clip-path="url(#a)" fill="#fff" stroke="#fff"/>
<g clip-path="url(#a)">
<g transform="translate(372.3 968.88) rotate(-80.383) scale(.08 -.08)">
<use xlink:href="#l"/>
<use x="60.818359" xlink:href="#d"/>
<use x="122.341797" xlink:href="#h"/>
<use x="163.439453" xlink:href="#j"/>
<use x="260.851562" xlink:href="#i"/>
<use x="288.634766" xlink:href="#e"/>
<use x="352.013672" xlink:href="#f"/>
<use x="413.292969" xlink:href="#k"/>
</g>
</g>
<path d="m386.41 934.77 5.8946 34.789q0.40094 2.3663 2.7672 1.9653l7.6337-1.2934q2.3663-0.40094 1.9653-2.7672l-5.8946-34.789q-0.40094-2.3663-2.7672-1.9653l-7.6337 1.2934q-2.3663 0.40094-1.9653 2.7672z" clip-path="url(#a)" fill="#fff" stroke="#fff"/>
<g clip-path="url(#a)">
<g transform="translate(390.42 934.09) rotate(80.383) scale(.08 -.08)">
<use xlink:href="#l"/>
<use x="60.818359" xlink:href="#d"/>
<use x="122.341797" xlink:href="#h"/>
<use x="163.439453" xlink:href="#j"/>
<use x="260.851562" xlink:href="#i"/>
<use x="288.634766" xlink:href="#e"/>
<use x="352.013672" xlink:href="#f"/>
<use x="413.292969" xlink:href="#k"/>
</g>
</g>
<path d="m445.43 933.47v35.285q0 2.4 2.4 2.4h7.7425q2.4 0 2.4-2.4v-35.285q0-2.4-2.4-2.4h-7.7425q-2.4 0-2.4 2.4z" clip-path="url(#a)" fill="#fff" stroke="#fff"/>
<g clip-path="url(#a)">
<g transform="translate(449.5 933.47) rotate(90) scale(.08 -.08)">
<use xlink:href="#l"/>
<use x="60.818359" xlink:href="#d"/>
<use x="122.341797" xlink:href="#h"/>
<use x="163.439453" xlink:href="#j"/>
<use x="260.851562" xlink:href="#i"/>
<use x="288.634766" xlink:href="#e"/>
<use x="352.013672" xlink:href="#f"/>
<use x="413.292969" xlink:href="#k"/>
</g>
</g>
<path d="m513.58 822.33 0.93323-5.5077q0.40094-2.3663-1.9653-2.7672l-7.6337-1.2934q-2.3663-0.40094-2.7672 1.9653l-0.93323 5.5077q-0.40094 2.3663 1.9653 2.7672l7.6337 1.2934q2.3663 0.40094 2.7672-1.9653z" clip-path="url(#a)" fill="#fff" stroke="#fff"/>
<g clip-path="url(#a)">
<defs>
<path id="p" d="m64.406 67.281v-10.391q-4.9844 4.6406-10.625 6.9219-5.6406 2.2969-11.984 2.2969-12.5 0-19.141-7.6406t-6.6406-22.094q0-14.406 6.6406-22.047t19.141-7.6406q6.3438 0 11.984 2.2969t10.625 6.9375v-10.312q-5.1719-3.5156-10.969-5.2812-5.7812-1.75-12.219-1.75-16.562 0-26.094 10.125-9.5156 10.141-9.5156 27.672 0 17.578 9.5156 27.703 9.5312 10.141 26.094 10.141 6.5312 0 12.312-1.7344 5.7969-1.7344 10.875-5.2031z"/>
</defs>
<g transform="translate(509.58 821.65) rotate(-80.383) scale(.08 -.08)">
<use xlink:href="#p"/>
</g>
</g>
<path d="m523.68 816.84 0.92863 5.4806q0.40094 2.3663 2.7672 1.9653l7.6337-1.2934q2.3663-0.40094 1.9653-2.7672l-0.92863-5.4806q-0.40094-2.3663-2.7672-1.9653l-7.6337 1.2934q-2.3663 0.40094-1.9653 2.7672z" clip-path="url(#a)" fill="#fff" stroke="#fff"/>
<g clip-path="url(#a)">
<defs>
<path id="x" d="m44.391 34.188q3.1719-1.0781 6.1719-4.5938t6.0312-9.6719l10.016-19.922h-10.609l-9.3125 18.703q-3.625 7.3281-7.0156 9.7188t-9.25 2.3906h-10.75v-30.812h-9.8594v72.906h22.266q12.5 0 18.656-5.2344 6.1562-5.2188 6.1562-15.766 0-6.8906-3.2031-11.438-3.2031-4.5312-9.2969-6.2812zm-24.719 30.609v-25.875h12.406q7.125 0 10.766 3.2969t3.6406 9.6875-3.6406 9.6406-10.766 3.25z"/>
</defs>
<g transform="translate(527.69 816.16) rotate(80.383) scale(.08 -.08)">
<use xlink:href="#x"/>
</g>
</g>
<path d="m768.59 618.28 2.77-4.2285q1.3151-2.0076-0.69246-3.3227l-6.4766-4.2427q-2.0076-1.3151-3.3227 0.69246l-2.77 4.2285q-1.3151 2.0076 0.69246 3.3227l6.4766 4.2427q2.0076 1.3151 3.3227-0.69246z" clip-path="url(#a)" fill="#fff" stroke="#fff"/>
<g clip-path="url(#a)">
<defs>
<path id="s" d="m9.8125 72.906h46.094v-8.3125h-36.234v-21.578h34.719v-8.2969h-34.719v-26.422h37.109v-8.2969h-46.969z"/>
</defs>
<g transform="translate(765.2 616.06) rotate(-56.772) scale(.08 -.08)">
<use xlink:href="#s"/>
</g>
</g>
<path d="m836.88 617.69 2.1076-5.1734q0.90547-2.2226-1.3172-3.1281l-7.1703-2.9211q-2.2226-0.90547-3.1281 1.3172l-2.1076 5.1734q-0.90547 2.2226 1.3172 3.1281l7.1703 2.9211q2.2226 0.90547 3.1281-1.3172z" clip-path="url(#a)" fill="#fff" stroke="#fff"/>
<g clip-path="url(#a)">
<g transform="translate(833.12 616.15) rotate(-67.835) scale(.08 -.08)">
<use xlink:href="#p"/>
</g>
</g>
<path d="m1099.5 482.36 3.8461 3.2803q1.826 1.5574 3.3835-0.26863l5.0243-5.8909q1.5574-1.826-0.26863-3.3835l-3.8461-3.2803q-1.826-1.5574-3.3835 0.26863l-5.0243 5.8909q-1.5574 1.826 0.26863 3.3835z" clip-path="url(#a)" fill="#fff" stroke="#fff"/>
<g clip-path="url(#a)">
<g transform="translate(1102.1 479.26) rotate(40.461) scale(.08 -.08)">
<use xlink:href="#s"/>
</g>
</g>
<path d="m1061.3 414.93 4.3978 2.4924q2.088 1.1834 3.2713-0.90463l3.8175-6.7359q1.1834-2.088-0.90463-3.2713l-4.3978-2.4924q-2.088-1.1834-3.2713 0.90463l-3.8175 6.7359q-1.1834 2.088 0.90463 3.2713z" clip-path="url(#a)" fill="#fff" stroke="#fff"/>
<g clip-path="url(#a)">
<g transform="translate(1063.3 411.39) rotate(29.542) scale(.08 -.08)">
<use xlink:href="#s"/>
</g>
</g>
<path d="m905.26 616.61 0.92326-5.7817q0.37845-2.37-1.9915-2.7484l-7.6456-1.2209q-2.37-0.37845-2.7484 1.9915l-0.92326 5.7817q-0.37845 2.37 1.9915 2.7484l7.6456 1.2209q2.37 0.37845 2.7484-1.9915z" clip-path="url(#a)" fill="#fff" stroke="#fff"/>
<g clip-path="url(#a)">
<g transform="translate(901.24 615.97) rotate(-80.927) scale(.08 -.08)">
<use xlink:href="#u"/>
</g>
</g>
<path d="m982.71 610.9 0.98452 5.7716q0.40356 2.3658 2.7694 1.9623l7.6323-1.3019q2.3658-0.40356 1.9623-2.7694l-0.98452-5.7716q-0.40356-2.3658-2.7694-1.9623l-7.6323 1.3019q-2.3658 0.40356-1.9623 2.7694z" clip-path="url(#a)" fill="#fff" stroke="#fff"/>
<g clip-path="url(#a)">
<g transform="translate(986.72 610.22) rotate(80.32) scale(.08 -.08)">
<use xlink:href="#u"/>
</g>
</g>
<path d="m1488.7 824.35 3.1187-4.6015q1.3465-1.9867-0.6402-3.3332l-6.4092-4.3438q-1.9867-1.3465-3.3332 0.6402l-3.1187 4.6015q-1.3465 1.9867 0.6402 3.3332l6.4092 4.3438q1.9867 1.3465 3.3332-0.6402z" clip-path="url(#a)" fill="#fff" stroke="#fff"/>
<g clip-path="url(#a)">
<g transform="translate(1485.4 822.07) rotate(-55.872) scale(.08 -.08)">
<use xlink:href="#x"/>
</g>
</g>
<path d="m1512.7 822.93 1.6224-4.7876q0.77028-2.273-1.5028-3.0433l-7.3329-2.485q-2.273-0.77028-3.0433 1.5028l-1.6224 4.7876q-0.77028 2.273 1.5028 3.0433l7.3329 2.485q2.273 0.77028 3.0433-1.5028z" clip-path="url(#a)" fill="#fff" stroke="#fff"/>
<g clip-path="url(#a)">
<g transform="translate(1508.8 821.63) rotate(-71.28) scale(.08 -.08)">
<use xlink:href="#s"/>
</g>
</g>
<path d="m1523.8 815.73v5.5862q0 2.4 2.4 2.4h7.7425q2.4 0 2.4-2.4v-5.5862q0-2.4-2.4-2.4h-7.7425q-2.4 0-2.4 2.4z" clip-path="url(#a)" fill="#fff" stroke="#fff"/>
<g clip-path="url(#a)">
<g transform="translate(1527.8 815.73) rotate(90) scale(.08 -.08)">
<use xlink:href="#p"/>
</g>
</g>
<path d="m1568.4 819.95 2.8361 4.1845q1.3465 1.9867 3.3332 0.6402l6.4092-4.3438q1.9867-1.3465 0.6402-3.3332l-2.8361-4.1845q-1.3465-1.9867-3.3332-0.6402l-6.4092 4.3438q-1.9867 1.3465-0.6402 3.3332z" clip-path="url(#a)" fill="#fff" stroke="#fff"/>
<g clip-path="url(#a)">
<g transform="translate(1571.7 817.67) rotate(55.872) scale(.08 -.08)">
<use xlink:href="#s"/>
</g>
</g>
<path d="m1545.6 817.77 1.8792 5.5452q0.77028 2.273 3.0433 1.5028l7.3329-2.485q2.273-0.77028 1.5028-3.0433l-1.8792-5.5452q-0.77028-2.273-3.0433-1.5028l-7.3329 2.485q-2.273 0.77028-1.5028 3.0433z" clip-path="url(#a)" fill="#fff" stroke="#fff"/>
<g clip-path="url(#a)">
<g transform="translate(1549.5 816.46) rotate(71.28) scale(.08 -.08)">
<use xlink:href="#u"/>
</g>
</g>
<path d="m1747.8 823.85 2.5189-4.9553q1.0875-2.1395-1.0519-3.227l-6.902-3.5084q-2.1395-1.0875-3.227 1.0519l-2.5189 4.9553q-1.0875 2.1395 1.0519 3.227l6.902 3.5084q2.1395 1.0875 3.227-1.0519z" clip-path="url(#a)" fill="#fff" stroke="#fff"/>
<g clip-path="url(#a)">
<g transform="translate(1744.2 822.01) rotate(-63.055) scale(.08 -.08)">
<use xlink:href="#x"/>
</g>
</g>
<path d="m1771.7 822.07 0.84448-4.984q0.40094-2.3663-1.9653-2.7672l-7.6337-1.2934q-2.3663-0.40094-2.7672 1.9653l-0.84448 4.984q-0.40094 2.3663 1.9653 2.7672l7.6337 1.2934q2.3663 0.40094 2.7672-1.9653z" clip-path="url(#a)" fill="#fff" stroke="#fff"/>
<g clip-path="url(#a)">
<g transform="translate(1767.7 821.39) rotate(-80.383) scale(.08 -.08)">
<use xlink:href="#s"/>
</g>
</g>
<path d="m1781.7 816.82 0.93323 5.5077q0.40094 2.3663 2.7672 1.9653l7.6337-1.2934q2.3663-0.40094 1.9653-2.7672l-0.93323-5.5077q-0.40094-2.3663-2.7672-1.9653l-7.6337 1.2934q-2.3663 0.40094-1.9653 2.7672z" clip-path="url(#a)" fill="#fff" stroke="#fff"/>
<g clip-path="url(#a)">
<g transform="translate(1785.7 816.14) rotate(80.383) scale(.08 -.08)">
<use xlink:href="#p"/>
</g>
</g>
<path d="m1803.9 818.76 2.6531 5.2194q1.0875 2.1395 3.227 1.0519l6.902-3.5084q2.1395-1.0875 1.0519-3.227l-2.6531-5.2194q-1.0875-2.1395-3.227-1.0519l-6.902 3.5084q-2.1395 1.0875-1.0519 3.227z" clip-path="url(#a)" fill="#fff" stroke="#fff"/>
<g clip-path="url(#a)">
<g transform="translate(1807.6 816.92) rotate(63.055) scale(.08 -.08)">
<use xlink:href="#u"/>
</g>
</g>
<path d="m1703.5 933.47v35.285q0 2.4 2.4 2.4h7.7425q2.4 0 2.4-2.4v-35.285q0-2.4-2.4-2.4h-7.7425q-2.4 0-2.4 2.4z" clip-path="url(#a)" fill="#fff" stroke="#fff"/>
<g clip-path="url(#a)">
<g transform="translate(1707.5 933.47) rotate(90) scale(.08 -.08)">
<use xlink:href="#l"/>
<use x="60.818359" xlink:href="#d"/>
<use x="122.341797" xlink:href="#h"/>
<use x="163.439453" xlink:href="#j"/>
<use x="260.851562" xlink:href="#i"/>
<use x="288.634766" xlink:href="#e"/>
<use x="352.013672" xlink:href="#f"/>
<use x="413.292969" xlink:href="#k"/>
</g>
</g>
<path d="m1748.4 933.47v35.285q0 2.4 2.4 2.4h7.7425q2.4 0 2.4-2.4v-35.285q0-2.4-2.4-2.4h-7.7425q-2.4 0-2.4 2.4z" clip-path="url(#a)" fill="#fff" stroke="#fff"/>
<g clip-path="url(#a)">
<g transform="translate(1752.5 933.47) rotate(90) scale(.08 -.08)">
<use xlink:href="#l"/>
<use x="60.818359" xlink:href="#d"/>
<use x="122.341797" xlink:href="#h"/>
<use x="163.439453" xlink:href="#j"/>
<use x="260.851562" xlink:href="#i"/>
<use x="288.634766" xlink:href="#e"/>
<use x="352.013672" xlink:href="#f"/>
<use x="413.292969" xlink:href="#k"/>
</g>
</g>
<path d="m1793.3 933.47v35.285q0 2.4 2.4 2.4h7.7425q2.4 0 2.4-2.4v-35.285q0-2.4-2.4-2.4h-7.7425q-2.4 0-2.4 2.4z" clip-path="url(#a)" fill="#fff" stroke="#fff"/>
<g clip-path="url(#a)">
<g transform="translate(1797.4 933.47) rotate(90) scale(.08 -.08)">
<use xlink:href="#l"/>
<use x="60.818359" xlink:href="#d"/>
<use x="122.341797" xlink:href="#h"/>
<use x="163.439453" xlink:href="#j"/>
<use x="260.851562" xlink:href="#i"/>
<use x="288.634766" xlink:href="#e"/>
<use x="352.013672" xlink:href="#f"/>
<use x="413.292969" xlink:href="#k"/>
</g>
</g>
<path d="m1433.9 933.47v35.285q0 2.4 2.4 2.4h7.7425q2.4 0 2.4-2.4v-35.285q0-2.4-2.4-2.4h-7.7425q-2.4 0-2.4 2.4z" clip-path="url(#a)" fill="#fff" stroke="#fff"/>
<g clip-path="url(#a)">
<g transform="translate(1438 933.47) rotate(90) scale(.08 -.08)">
<use xlink:href="#l"/>
<use x="60.818359" xlink:href="#d"/>
<use x="122.341797" xlink:href="#h"/>
<use x="163.439453" xlink:href="#j"/>
<use x="260.851562" xlink:href="#i"/>
<use x="288.634766" xlink:href="#e"/>
<use x="352.013672" xlink:href="#f"/>
<use x="413.292969" xlink:href="#k"/>
</g>
</g>
<path d="m1478.8 933.47v35.285q0 2.4 2.4 2.4h7.7425q2.4 0 2.4-2.4v-35.285q0-2.4-2.4-2.4h-7.7425q-2.4 0-2.4 2.4z" clip-path="url(#a)" fill="#fff" stroke="#fff"/>
<g clip-path="url(#a)">
<g transform="translate(1482.9 933.47) rotate(90) scale(.08 -.08)">
<use xlink:href="#l"/>
<use x="60.818359" xlink:href="#d"/>
<use x="122.341797" xlink:href="#h"/>
<use x="163.439453" xlink:href="#j"/>
<use x="260.851562" xlink:href="#i"/>
<use x="288.634766" xlink:href="#e"/>
<use x="352.013672" xlink:href="#f"/>
<use x="413.292969" xlink:href="#k"/>
</g>
</g>
<path d="m1523.8 933.47v35.285q0 2.4 2.4 2.4h7.7425q2.4 0 2.4-2.4v-35.285q0-2.4-2.4-2.4h-7.7425q-2.4 0-2.4 2.4z" clip-path="url(#a)" fill="#fff" stroke="#fff"/>
<g clip-path="url(#a)">
<g transform="translate(1527.8 933.47) rotate(90) scale(.08 -.08)">
<use xlink:href="#l"/>
<use x="60.818359" xlink:href="#d"/>
<use x="122.341797" xlink:href="#h"/>
<use x="163.439453" xlink:href="#j"/>
<use x="260.851562" xlink:href="#i"/>
<use x="288.634766" xlink:href="#e"/>
<use x="352.013672" xlink:href="#f"/>
<use x="413.292969" xlink:href="#k"/>
</g>
</g>
<path d="m1613.6 933.47v35.285q0 2.4 2.4 2.4h7.7425q2.4 0 2.4-2.4v-35.285q0-2.4-2.4-2.4h-7.7425q-2.4 0-2.4 2.4z" clip-path="url(#a)" fill="#fff" stroke="#fff"/>
<g clip-path="url(#a)">
<g transform="translate(1617.7 933.47) rotate(90) scale(.08 -.08)">
<use xlink:href="#l"/>
<use x="60.818359" xlink:href="#d"/>
<use x="122.341797" xlink:href="#h"/>
<use x="163.439453" xlink:href="#j"/>
<use x="260.851562" xlink:href="#i"/>
<use x="288.634766" xlink:href="#e"/>
<use x="352.013672" xlink:href="#f"/>
<use x="413.292969" xlink:href="#k"/>
</g>
</g>
<path d="m580.22 933.47v35.285q0 2.4 2.4 2.4h7.7425q2.4 0 2.4-2.4v-35.285q0-2.4-2.4-2.4h-7.7425q-2.4 0-2.4 2.4z" clip-path="url(#a)" fill="#fff" stroke="#fff"/>
<g clip-path="url(#a)">
<g transform="translate(584.29 933.47) rotate(90) scale(.08 -.08)">
<use xlink:href="#l"/>
<use x="60.818359" xlink:href="#d"/>
<use x="122.341797" xlink:href="#h"/>
<use x="163.439453" xlink:href="#j"/>
<use x="260.851562" xlink:href="#i"/>
<use x="288.634766" xlink:href="#e"/>
<use x="352.013672" xlink:href="#f"/>
<use x="413.292969" xlink:href="#k"/>
</g>
</g>
<path d="m671.65 969.24 19.796-29.209q1.3465-1.9867-0.6402-3.3332l-6.4092-4.3438q-1.9867-1.3465-3.3332 0.6402l-19.796 29.209q-1.3465 1.9867 0.6402 3.3332l6.4092 4.3438q1.9867 1.3465 3.3332-0.6402z" clip-path="url(#a)" fill="#fff" stroke="#fff"/>
<g clip-path="url(#a)">
<g transform="translate(668.28 966.96) rotate(-55.872) scale(.08 -.08)">
<use xlink:href="#l"/>
<use x="60.818359" xlink:href="#d"/>
<use x="122.341797" xlink:href="#h"/>
<use x="163.439453" xlink:href="#j"/>
<use x="260.851562" xlink:href="#i"/>
<use x="288.634766" xlink:href="#e"/>
<use x="352.013672" xlink:href="#f"/>
<use x="413.292969" xlink:href="#k"/>
</g>
</g>
<path d="m699.1 969.84 11.325-33.418q0.77028-2.273-1.5028-3.0433l-7.3329-2.485q-2.273-0.77028-3.0433 1.5028l-11.325 33.418q-0.77028 2.273 1.5028 3.0433l7.3329 2.485q2.273 0.77028 3.0433-1.5028z" clip-path="url(#a)" fill="#fff" stroke="#fff"/>
<g clip-path="url(#a)">
<g transform="translate(695.25 968.53) rotate(-71.28) scale(.08 -.08)">
<use xlink:href="#l"/>
<use x="60.818359" xlink:href="#d"/>
<use x="122.341797" xlink:href="#h"/>
<use x="163.439453" xlink:href="#j"/>
<use x="260.851562" xlink:href="#i"/>
<use x="288.634766" xlink:href="#e"/>
<use x="352.013672" xlink:href="#f"/>
<use x="413.292969" xlink:href="#k"/>
</g>
</g>
<path d="m715.01 933.47v35.285q0 2.4 2.4 2.4h7.7425q2.4 0 2.4-2.4v-35.285q0-2.4-2.4-2.4h-7.7425q-2.4 0-2.4 2.4z" clip-path="url(#a)" fill="#fff" stroke="#fff"/>
<g clip-path="url(#a)">
<g transform="translate(719.08 933.47) rotate(90) scale(.08 -.08)">
<use xlink:href="#l"/>
<use x="60.818359" xlink:href="#d"/>
<use x="122.341797" xlink:href="#h"/>
<use x="163.439453" xlink:href="#j"/>
<use x="260.851562" xlink:href="#i"/>
<use x="288.634766" xlink:href="#e"/>
<use x="352.013672" xlink:href="#f"/>
<use x="413.292969" xlink:href="#k"/>
</g>
</g>
<path d="m732.15 936.42 11.325 33.418q0.77028 2.273 3.0433 1.5028l7.3329-2.485q2.273-0.77028 1.5028-3.0433l-11.325-33.418q-0.77028-2.273-3.0433-1.5028l-7.3329 2.485q-2.273 0.77028-1.5028 3.0433z" clip-path="url(#a)" fill="#fff" stroke="#fff"/>
<g clip-path="url(#a)">
<g transform="translate(736 935.11) rotate(71.28) scale(.08 -.08)">
<use xlink:href="#l"/>
<use x="60.818359" xlink:href="#d"/>
<use x="122.341797" xlink:href="#h"/>
<use x="163.439453" xlink:href="#j"/>
<use x="260.851562" xlink:href="#i"/>
<use x="288.634766" xlink:href="#e"/>
<use x="352.013672" xlink:href="#f"/>
<use x="413.292969" xlink:href="#k"/>
</g>
</g>
<path d="m751.13 940.03 19.796 29.209q1.3465 1.9867 3.3332 0.6402l6.4092-4.3438q1.9867-1.3465 0.6402-3.3332l-19.796-29.209q-1.3465-1.9867-3.3332-0.6402l-6.4092 4.3438q-1.9867 1.3465-0.6402 3.3332z" clip-path="url(#a)" fill="#fff" stroke="#fff"/>
<g clip-path="url(#a)">
<g transform="translate(754.49 937.75) rotate(55.872) scale(.08 -.08)">
<use xlink:href="#l"/>
<use x="60.818359" xlink:href="#d"/>
<use x="122.341797" xlink:href="#h"/>
<use x="163.439453" xlink:href="#j"/>
<use x="260.851562" xlink:href="#i"/>
<use x="288.634766" xlink:href="#e"/>
<use x="352.013672" xlink:href="#f"/>
<use x="413.292969" xlink:href="#k"/>
</g>
</g>
<path d="m1595.8 821.68 4.3558 2.6117q2.0584 1.2342 3.2925-0.82421l3.9814-6.6404q1.2342-2.0584-0.82421-3.2925l-4.3558-2.6117q-2.0584-1.2342-3.2925 0.82421l-3.9814 6.6404q-1.2342 2.0584 0.82421 3.2925z" clip-path="url(#a)" fill="#fff" stroke="#fff"/>
<g clip-path="url(#a)">
<g transform="translate(1597.9 818.19) rotate(30.946) scale(.08 -.08)">
<use xlink:href="#ag"/>
</g>
</g>
<path d="m1085.7 758.2 4.9808-3.6245q1.9406-1.4122 0.52842-3.3527l-4.5557-6.2604q-1.4122-1.9406-3.3527-0.52842l-4.9808 3.6245q-1.9406 1.4122-0.52842 3.3527l4.5557 6.2604q1.4122 1.9406 3.3527 0.52842z" clip-path="url(#a)" fill="#fff" stroke="#fff"/>
<g clip-path="url(#a)">
<defs>
<path id="ar" d="m19.672 64.797v-56.688h11.922q15.094 0 22.094 6.8281 7 6.8438 7 21.594 0 14.641-7 21.453t-22.094 6.8125zm-9.8594 8.1094h20.266q21.188 0 31.094-8.8125 9.9219-8.8125 9.9219-27.562 0-18.859-9.9688-27.703-9.9531-8.8281-31.047-8.8281h-20.266z"/>
</defs>
<g transform="translate(1083.3 754.91) rotate(-36.043) scale(.08 -.08)">
<use xlink:href="#ar"/>
</g>
</g>
<path d="m1118.2 691.86 4.9927-2.2407q2.1896-0.98268 1.2069-3.1723l-3.1702-7.0637q-0.98268-2.1896-3.1723-1.2069l-4.9927 2.2407q-2.1896 0.98268-1.2069 3.1723l3.1702 7.0637q0.98268 2.1896 3.1723 1.2069z" clip-path="url(#a)" fill="#fff" stroke="#fff"/>
<g clip-path="url(#a)">
<g transform="translate(1116.6 688.15) rotate(-24.17) scale(.08 -.08)">
<use xlink:href="#w"/>
</g>
</g>
<path d="m1140.8 687.13 1.4543-5.3651q0.62789-2.3164-1.6885-2.9443l-7.4728-2.0256q-2.3164-0.62789-2.9443 1.6885l-1.4543 5.3651q-0.62789 2.3164 1.6885 2.9443l7.4728 2.0256q2.3164 0.62789 2.9443-1.6885z" clip-path="url(#a)" fill="#fff" stroke="#fff"/>
<g clip-path="url(#a)">
<g transform="translate(1136.9 686.06) rotate(-74.834) scale(.08 -.08)">
<use xlink:href="#x"/>
</g>
</g>
<path d="m1163.7 686.55 0.8818-5.5162q0.37884-2.3699-1.9911-2.7488l-7.6454-1.2222q-2.3699-0.37884-2.7488 1.9911l-0.8818 5.5162q-0.37884 2.3699 1.9911 2.7488l7.6454 1.2222q2.3699 0.37884 2.7488-1.9911z" clip-path="url(#a)" fill="#fff" stroke="#fff"/>
<g clip-path="url(#a)">
<g transform="translate(1159.7 685.91) rotate(-80.918) scale(.08 -.08)">
<use xlink:href="#p"/>
</g>
</g>
<path d="m1281.4 552.96 4.1273 2.9186q1.9596 1.3857 3.3452-0.57386l4.4703-6.3216q1.3857-1.9596-0.57386-3.3452l-4.1273-2.9186q-1.9596-1.3857-3.3452 0.57386l-4.4703 6.3216q-1.3857 1.9596 0.57386 3.3452z" clip-path="url(#a)" fill="#fff" stroke="#fff"/>
<g clip-path="url(#a)">
<g transform="translate(1283.8 549.64) rotate(35.266) scale(.08 -.08)">
<use xlink:href="#s"/>
</g>
</g>
<path d="m1186.5 686.03 0.28452-5.8481q0.11663-2.3972-2.2805-2.5138l-7.7334-0.37624q-2.3972-0.11663-2.5138 2.2805l-0.28452 5.8481q-0.11663 2.3972 2.2805 2.5138l7.7334 0.37624q2.3972 0.11663 2.5138-2.2805z" clip-path="url(#a)" fill="#fff" stroke="#fff"/>
<g clip-path="url(#a)">
<g transform="translate(1182.5 685.83) rotate(-87.215) scale(.08 -.08)">
<use xlink:href="#u"/>
</g>
</g>
<path d="m1074.5 933.47v35.285q0 2.4 2.4 2.4h7.7425q2.4 0 2.4-2.4v-35.285q0-2.4-2.4-2.4h-7.7425q-2.4 0-2.4 2.4z" clip-path="url(#a)" fill="#fff" stroke="#fff"/>
<g clip-path="url(#a)">
<g transform="translate(1078.5 933.47) rotate(90) scale(.08 -.08)">
<use xlink:href="#l"/>
<use x="60.818359" xlink:href="#d"/>
<use x="122.341797" xlink:href="#h"/>
<use x="163.439453" xlink:href="#j"/>
<use x="260.851562" xlink:href="#i"/>
<use x="288.634766" xlink:href="#e"/>
<use x="352.013672" xlink:href="#f"/>
<use x="413.292969" xlink:href="#k"/>
</g>
</g>
<path d="m1119.4 933.47v35.285q0 2.4 2.4 2.4h7.7425q2.4 0 2.4-2.4v-35.285q0-2.4-2.4-2.4h-7.7425q-2.4 0-2.4 2.4z" clip-path="url(#a)" fill="#fff" stroke="#fff"/>
<g clip-path="url(#a)">
<g transform="translate(1123.5 933.47) rotate(90) scale(.08 -.08)">
<use xlink:href="#l"/>
<use x="60.818359" xlink:href="#d"/>
<use x="122.341797" xlink:href="#h"/>
<use x="163.439453" xlink:href="#j"/>
<use x="260.851562" xlink:href="#i"/>
<use x="288.634766" xlink:href="#e"/>
<use x="352.013672" xlink:href="#f"/>
<use x="413.292969" xlink:href="#k"/>
</g>
</g>
<path d="m1394.2 684.09 1.2291 4.9033q0.58356 2.328 2.9115 1.7444l7.5101-1.8826q2.328-0.58356 1.7444-2.9115l-1.2291-4.9033q-0.58356-2.328-2.9115-1.7444l-7.5101 1.8826q-2.328 0.58356-1.7444 2.9115z" clip-path="url(#a)" fill="#fff" stroke="#fff"/>
<g clip-path="url(#a)">
<g transform="translate(1398.1 683.11) rotate(75.928) scale(.08 -.08)">
<use xlink:href="#s"/>
</g>
</g>
<path d="m1373 754.87 0.69944-5.5423q0.3005-2.3811-2.0806-2.6816l-7.6816-0.96943q-2.3811-0.3005-2.6816 2.0806l-0.69944 5.5423q-0.3005 2.3811 2.0806 2.6816l7.6816 0.96942q2.3811 0.3005 2.6816-2.0806z" clip-path="url(#a)" fill="#fff" stroke="#fff"/>
<g clip-path="url(#a)">
<g transform="translate(1369 754.36) rotate(-82.807) scale(.08 -.08)">
<use xlink:href="#p"/>
</g>
</g>
<path d="m1647.9 888.82 5.2173 2.9325q2.0922 1.176 3.2681-0.9162l3.7937-6.7494q1.176-2.0922-0.9162-3.2681l-5.2173-2.9325q-2.0922-1.176-3.2681 0.9162l-3.7937 6.7494q-1.176 2.0922 0.9162 3.2681z" clip-path="url(#a)" fill="#fff" stroke="#fff"/>
<g clip-path="url(#a)">
<defs>
<path id="aw" d="m9.8125 72.906h13.281l32.328-60.984v60.984h9.5625v-72.906h-13.281l-32.312 60.984v-60.984h-9.5781z"/>
</defs>
<g transform="translate(1649.9 885.28) rotate(29.339) scale(.08 -.08)">
<use xlink:href="#aw"/>
</g>
</g>
<path d="m1317.7 825.3 4.6714-3.0633q2.007-1.3161 0.69088-3.3231l-4.2457-6.4746q-1.3161-2.007-3.3231-0.69088l-4.6714 3.0633q-2.007 1.3161-0.69088 3.3231l4.2457 6.4746q1.3161 2.007 3.3231 0.69088z" clip-path="url(#a)" fill="#fff" stroke="#fff"/>
<g clip-path="url(#a)">
<g transform="translate(1315.5 821.91) rotate(-33.255) scale(.08 -.08)">
<use xlink:href="#p"/>
</g>
</g>
<path d="m1364.5 824.71 3.611-4.2623q1.5514-1.8312-0.27981-3.3826l-5.9075-5.0048q-1.8312-1.5514-3.3826 0.27981l-3.611 4.2623q-1.5514 1.8312 0.27981 3.3826l5.9075 5.0048q1.8312 1.5514 3.3826-0.27981z" clip-path="url(#a)" fill="#fff" stroke="#fff"/>
<g clip-path="url(#a)">
<g transform="translate(1361.4 822.09) rotate(-49.729) scale(.08 -.08)">
<use xlink:href="#p"/>
</g>
</g>
<path d="m1340.9 825.21 4.4763-3.7741q1.8349-1.547 0.28786-3.3819l-4.9907-5.9194q-1.547-1.8349-3.3819-0.28786l-4.4763 3.7741q-1.8349 1.547-0.28786 3.3819l4.9907 5.9194q1.547 1.8349 3.3819 0.28786z" clip-path="url(#a)" fill="#fff" stroke="#fff"/>
<g clip-path="url(#a)">
<g transform="translate(1338.3 822.1) rotate(-40.135) scale(.08 -.08)">
<use xlink:href="#u"/>
</g>
</g>
<path d="m1344 933.47v35.285q0 2.4 2.4 2.4h7.7425q2.4 0 2.4-2.4v-35.285q0-2.4-2.4-2.4h-7.7425q-2.4 0-2.4 2.4z" clip-path="url(#a)" fill="#fff" stroke="#fff"/>
<g clip-path="url(#a)">
<g transform="translate(1348.1 933.47) rotate(90) scale(.08 -.08)">
<use xlink:href="#l"/>
<use x="60.818359" xlink:href="#d"/>
<use x="122.341797" xlink:href="#h"/>
<use x="163.439453" xlink:href="#j"/>
<use x="260.851562" xlink:href="#i"/>
<use x="288.634766" xlink:href="#e"/>
<use x="352.013672" xlink:href="#f"/>
<use x="413.292969" xlink:href="#k"/>
</g>
</g>
<path d="m1209.2 933.47v35.285q0 2.4 2.4 2.4h7.7425q2.4 0 2.4-2.4v-35.285q0-2.4-2.4-2.4h-7.7425q-2.4 0-2.4 2.4z" clip-path="url(#a)" fill="#fff" stroke="#fff"/>
<g clip-path="url(#a)">
<g transform="translate(1213.3 933.47) rotate(90) scale(.08 -.08)">
<use xlink:href="#l"/>
<use x="60.818359" xlink:href="#d"/>
<use x="122.341797" xlink:href="#h"/>
<use x="163.439453" xlink:href="#j"/>
<use x="260.851562" xlink:href="#i"/>
<use x="288.634766" xlink:href="#e"/>
<use x="352.013672" xlink:href="#f"/>
<use x="413.292969" xlink:href="#k"/>
</g>
</g>
<path d="m1299.1 933.47v35.285q0 2.4 2.4 2.4h7.7425q2.4 0 2.4-2.4v-35.285q0-2.4-2.4-2.4h-7.7425q-2.4 0-2.4 2.4z" clip-path="url(#a)" fill="#fff" stroke="#fff"/>
<g clip-path="url(#a)">
<g transform="translate(1303.2 933.47) rotate(90) scale(.08 -.08)">
<use xlink:href="#l"/>
<use x="60.818359" xlink:href="#d"/>
<use x="122.341797" xlink:href="#h"/>
<use x="163.439453" xlink:href="#j"/>
<use x="260.851562" xlink:href="#i"/>
<use x="288.634766" xlink:href="#e"/>
<use x="352.013672" xlink:href="#f"/>
<use x="413.292969" xlink:href="#k"/>
</g>
</g>
<path d="m894.74 933.47v35.285q0 2.4 2.4 2.4h7.7425q2.4 0 2.4-2.4v-35.285q0-2.4-2.4-2.4h-7.7425q-2.4 0-2.4 2.4z" clip-path="url(#a)" fill="#fff" stroke="#fff"/>
<g clip-path="url(#a)">
<g transform="translate(898.8 933.47) rotate(90) scale(.08 -.08)">
<use xlink:href="#l"/>
<use x="60.818359" xlink:href="#d"/>
<use x="122.341797" xlink:href="#h"/>
<use x="163.439453" xlink:href="#j"/>
<use x="260.851562" xlink:href="#i"/>
<use x="288.634766" xlink:href="#e"/>
<use x="352.013672" xlink:href="#f"/>
<use x="413.292969" xlink:href="#k"/>
</g>
</g>
<path d="m962.93 822.07 0.84448-4.984q0.40094-2.3663-1.9653-2.7672l-7.6337-1.2934q-2.3663-0.40094-2.7672 1.9653l-0.84448 4.984q-0.40094 2.3663 1.9653 2.7672l7.6337 1.2934q2.3663 0.40094 2.7672-1.9653z" clip-path="url(#a)" fill="#fff" stroke="#fff"/>
<g clip-path="url(#a)">
<g transform="translate(958.92 821.39) rotate(-80.383) scale(.08 -.08)">
<use xlink:href="#s"/>
</g>
</g>
<path d="m972.99 816.82 0.93323 5.5077q0.40094 2.3663 2.7672 1.9653l7.6337-1.2934q2.3663-0.40094 1.9653-2.7672l-0.93323-5.5077q-0.40094-2.3663-2.7672-1.9653l-7.6337 1.2934q-2.3663 0.40094-1.9653 2.7672z" clip-path="url(#a)" fill="#fff" stroke="#fff"/>
<g clip-path="url(#a)">
<g transform="translate(976.99 816.14) rotate(80.383) scale(.08 -.08)">
<use xlink:href="#p"/>
</g>
</g>
<path d="m939.67 933.47v35.285q0 2.4 2.4 2.4h7.7425q2.4 0 2.4-2.4v-35.285q0-2.4-2.4-2.4h-7.7425q-2.4 0-2.4 2.4z" clip-path="url(#a)" fill="#fff" stroke="#fff"/>
<g clip-path="url(#a)">
<g transform="translate(943.73 933.47) rotate(90) scale(.08 -.08)">
<use xlink:href="#l"/>
<use x="60.818359" xlink:href="#d"/>
<use x="122.341797" xlink:href="#h"/>
<use x="163.439453" xlink:href="#j"/>
<use x="260.851562" xlink:href="#i"/>
<use x="288.634766" xlink:href="#e"/>
<use x="352.013672" xlink:href="#f"/>
<use x="413.292969" xlink:href="#k"/>
</g>
</g>
<path d="m984.6 933.47v35.285q0 2.4 2.4 2.4h7.7425q2.4 0 2.4-2.4v-35.285q0-2.4-2.4-2.4h-7.7425q-2.4 0-2.4 2.4z" clip-path="url(#a)" fill="#fff" stroke="#fff"/>
<g clip-path="url(#a)">
<g transform="translate(988.66 933.47) rotate(90) scale(.08 -.08)">
<use xlink:href="#l"/>
<use x="60.818359" xlink:href="#d"/>
<use x="122.341797" xlink:href="#h"/>
<use x="163.439453" xlink:href="#j"/>
<use x="260.851562" xlink:href="#i"/>
<use x="288.634766" xlink:href="#e"/>
<use x="352.013672" xlink:href="#f"/>
<use x="413.292969" xlink:href="#k"/>
</g>
</g>
<path d="m490.36 933.47v35.285q0 2.4 2.4 2.4h7.7425q2.4 0 2.4-2.4v-35.285q0-2.4-2.4-2.4h-7.7425q-2.4 0-2.4 2.4z" clip-path="url(#a)" fill="#fff" stroke="#fff"/>
<g clip-path="url(#a)">
<g transform="translate(494.43 933.47) rotate(90) scale(.08 -.08)">
<use xlink:href="#l"/>
<use x="60.818359" xlink:href="#d"/>
<use x="122.341797" xlink:href="#h"/>
<use x="163.439453" xlink:href="#j"/>
<use x="260.851562" xlink:href="#i"/>
<use x="288.634766" xlink:href="#e"/>
<use x="352.013672" xlink:href="#f"/>
<use x="413.292969" xlink:href="#k"/>
</g>
</g>
<path d="m535.29 933.47v35.285q0 2.4 2.4 2.4h7.7425q2.4 0 2.4-2.4v-35.285q0-2.4-2.4-2.4h-7.7425q-2.4 0-2.4 2.4z" clip-path="url(#a)" fill="#fff" stroke="#fff"/>
<g clip-path="url(#a)">
<g transform="translate(539.36 933.47) rotate(90) scale(.08 -.08)">
<use xlink:href="#l"/>
<use x="60.818359" xlink:href="#d"/>
<use x="122.341797" xlink:href="#h"/>
<use x="163.439453" xlink:href="#j"/>
<use x="260.851562" xlink:href="#i"/>
<use x="288.634766" xlink:href="#e"/>
<use x="352.013672" xlink:href="#f"/>
<use x="413.292969" xlink:href="#k"/>
</g>
</g>
<path d="m175.33 823.62 2.2906-4.5062q1.0875-2.1395-1.0519-3.227l-6.902-3.5084q-2.1395-1.0875-3.227 1.0519l-2.2906 4.5062q-1.0875 2.1395 1.0519 3.227l6.902 3.5084q2.1395 1.0875 3.227-1.0519z" clip-path="url(#a)" fill="#fff" stroke="#fff"/>
<g clip-path="url(#a)">
<g transform="translate(171.71 821.78) rotate(-63.055) scale(.08 -.08)">
<use xlink:href="#s"/>
</g>
</g>
<path d="m199.07 822.33 0.93323-5.5077q0.40094-2.3663-1.9653-2.7672l-7.6337-1.2934q-2.3663-0.40094-2.7672 1.9653l-0.93323 5.5077q-0.40094 2.3663 1.9653 2.7672l7.6337 1.2934q2.3663 0.40094 2.7672-1.9653z" clip-path="url(#a)" fill="#fff" stroke="#fff"/>
<g clip-path="url(#a)">
<g transform="translate(195.06 821.65) rotate(-80.383) scale(.08 -.08)">
<use xlink:href="#p"/>
</g>
</g>
<path d="m209.17 816.84 0.92863 5.4806q0.40094 2.3663 2.7672 1.9653l7.6337-1.2934q2.3663-0.40094 1.9653-2.7672l-0.92863-5.4806q-0.40094-2.3663-2.7672-1.9653l-7.6337 1.2934q-2.3663 0.40094-1.9653 2.7672z" clip-path="url(#a)" fill="#fff" stroke="#fff"/>
<g clip-path="url(#a)">
<g transform="translate(213.18 816.16) rotate(80.383) scale(.08 -.08)">
<use xlink:href="#x"/>
</g>
</g>
<path d="m231.55 819.12 2.2906 4.5062q1.0875 2.1395 3.227 1.0519l6.902-3.5084q2.1395-1.0875 1.0519-3.227l-2.2906-4.5062q-1.0875-2.1395-3.227-1.0519l-6.902 3.5084q-2.1395 1.0875-1.0519 3.227z" clip-path="url(#a)" fill="#fff" stroke="#fff"/>
<g clip-path="url(#a)">
<g transform="translate(235.17 817.28) rotate(63.055) scale(.08 -.08)">
<use xlink:href="#s"/>
</g>
</g>
<path d="m310.64 933.47v35.285q0 2.4 2.4 2.4h7.7425q2.4 0 2.4-2.4v-35.285q0-2.4-2.4-2.4h-7.7425q-2.4 0-2.4 2.4z" clip-path="url(#a)" fill="#fff" stroke="#fff"/>
<g clip-path="url(#a)">
<g transform="translate(314.7 933.47) rotate(90) scale(.08 -.08)">
<use xlink:href="#l"/>
<use x="60.818359" xlink:href="#d"/>
<use x="122.341797" xlink:href="#h"/>
<use x="163.439453" xlink:href="#j"/>
<use x="260.851562" xlink:href="#i"/>
<use x="288.634766" xlink:href="#e"/>
<use x="352.013672" xlink:href="#f"/>
<use x="413.292969" xlink:href="#k"/>
</g>
</g>
<path d="m130.92 933.47v35.285q0 2.4 2.4 2.4h7.7425q2.4 0 2.4-2.4v-35.285q0-2.4-2.4-2.4h-7.7425q-2.4 0-2.4 2.4z" clip-path="url(#a)" fill="#fff" stroke="#fff"/>
<g clip-path="url(#a)">
<g transform="translate(134.98 933.47) rotate(90) scale(.08 -.08)">
<use xlink:href="#l"/>
<use x="60.818359" xlink:href="#d"/>
<use x="122.341797" xlink:href="#h"/>
<use x="163.439453" xlink:href="#j"/>
<use x="260.851562" xlink:href="#i"/>
<use x="288.634766" xlink:href="#e"/>
<use x="352.013672" xlink:href="#f"/>
<use x="413.292969" xlink:href="#k"/>
</g>
</g>
<path d="m175.85 933.47v35.285q0 2.4 2.4 2.4h7.7425q2.4 0 2.4-2.4v-35.285q0-2.4-2.4-2.4h-7.7425q-2.4 0-2.4 2.4z" clip-path="url(#a)" fill="#fff" stroke="#fff"/>
<g clip-path="url(#a)">
<g transform="translate(179.91 933.47) rotate(90) scale(.08 -.08)">
<use xlink:href="#l"/>
<use x="60.818359" xlink:href="#d"/>
<use x="122.341797" xlink:href="#h"/>
<use x="163.439453" xlink:href="#j"/>
<use x="260.851562" xlink:href="#i"/>
<use x="288.634766" xlink:href="#e"/>
<use x="352.013672" xlink:href="#f"/>
<use x="413.292969" xlink:href="#k"/>
</g>
</g>
<path d="m220.78 933.47v35.285q0 2.4 2.4 2.4h7.7425q2.4 0 2.4-2.4v-35.285q0-2.4-2.4-2.4h-7.7425q-2.4 0-2.4 2.4z" clip-path="url(#a)" fill="#fff" stroke="#fff"/>
<g clip-path="url(#a)">
<g transform="translate(224.84 933.47) rotate(90) scale(.08 -.08)">
<use xlink:href="#l"/>
<use x="60.818359" xlink:href="#d"/>
<use x="122.341797" xlink:href="#h"/>
<use x="163.439453" xlink:href="#j"/>
<use x="260.851562" xlink:href="#i"/>
<use x="288.634766" xlink:href="#e"/>
<use x="352.013672" xlink:href="#f"/>
<use x="413.292969" xlink:href="#k"/>
</g>
</g>
<path d="m265.71 933.47v35.285q0 2.4 2.4 2.4h7.7425q2.4 0 2.4-2.4v-35.285q0-2.4-2.4-2.4h-7.7425q-2.4 0-2.4 2.4z" clip-path="url(#a)" fill="#fff" stroke="#fff"/>
<g clip-path="url(#a)">
<g transform="translate(269.77 933.47) rotate(90) scale(.08 -.08)">
<use xlink:href="#l"/>
<use x="60.818359" xlink:href="#d"/>
<use x="122.341797" xlink:href="#h"/>
<use x="163.439453" xlink:href="#j"/>
<use x="260.851562" xlink:href="#i"/>
<use x="288.634766" xlink:href="#e"/>
<use x="352.013672" xlink:href="#f"/>
<use x="413.292969" xlink:href="#k"/>
</g>
</g>
<path d="m849.81 933.47v35.285q0 2.4 2.4 2.4h7.7425q2.4 0 2.4-2.4v-35.285q0-2.4-2.4-2.4h-7.7425q-2.4 0-2.4 2.4z" clip-path="url(#a)" fill="#fff" stroke="#fff"/>
<g clip-path="url(#a)">
<g transform="translate(853.87 933.47) rotate(90) scale(.08 -.08)">
<use xlink:href="#l"/>
<use x="60.818359" xlink:href="#d"/>
<use x="122.341797" xlink:href="#h"/>
<use x="163.439453" xlink:href="#j"/>
<use x="260.851562" xlink:href="#i"/>
<use x="288.634766" xlink:href="#e"/>
<use x="352.013672" xlink:href="#f"/>
<use x="413.292969" xlink:href="#k"/>
</g>
</g>
<path d="m1029.5 933.47v35.285q0 2.4 2.4 2.4h7.7425q2.4 0 2.4-2.4v-35.285q0-2.4-2.4-2.4h-7.7425q-2.4 0-2.4 2.4z" clip-path="url(#a)" fill="#fff" stroke="#fff"/>
<g clip-path="url(#a)">
<g transform="translate(1033.6 933.47) rotate(90) scale(.08 -.08)">
<use xlink:href="#l"/>
<use x="60.818359" xlink:href="#d"/>
<use x="122.341797" xlink:href="#h"/>
<use x="163.439453" xlink:href="#j"/>
<use x="260.851562" xlink:href="#i"/>
<use x="288.634766" xlink:href="#e"/>
<use x="352.013672" xlink:href="#f"/>
<use x="413.292969" xlink:href="#k"/>
</g>
</g>
<path d="m1164.3 933.47v35.285q0 2.4 2.4 2.4h7.7425q2.4 0 2.4-2.4v-35.285q0-2.4-2.4-2.4h-7.7425q-2.4 0-2.4 2.4z" clip-path="url(#a)" fill="#fff" stroke="#fff"/>
<g clip-path="url(#a)">
<g transform="translate(1168.4 933.47) rotate(90) scale(.08 -.08)">
<use xlink:href="#l"/>
<use x="60.818359" xlink:href="#d"/>
<use x="122.341797" xlink:href="#h"/>
<use x="163.439453" xlink:href="#j"/>
<use x="260.851562" xlink:href="#i"/>
<use x="288.634766" xlink:href="#e"/>
<use x="352.013672" xlink:href="#f"/>
<use x="413.292969" xlink:href="#k"/>
</g>
</g>
<path d="m1254.2 933.47v35.285q0 2.4 2.4 2.4h7.7425q2.4 0 2.4-2.4v-35.285q0-2.4-2.4-2.4h-7.7425q-2.4 0-2.4 2.4z" clip-path="url(#a)" fill="#fff" stroke="#fff"/>
<g clip-path="url(#a)">
<g transform="translate(1258.2 933.47) rotate(90) scale(.08 -.08)">
<use xlink:href="#l"/>
<use x="60.818359" xlink:href="#d"/>
<use x="122.341797" xlink:href="#h"/>
<use x="163.439453" xlink:href="#j"/>
<use x="260.851562" xlink:href="#i"/>
<use x="288.634766" xlink:href="#e"/>
<use x="352.013672" xlink:href="#f"/>
<use x="413.292969" xlink:href="#k"/>
</g>
</g>
<path d="m1389 933.47v35.285q0 2.4 2.4 2.4h7.7425q2.4 0 2.4-2.4v-35.285q0-2.4-2.4-2.4h-7.7425q-2.4 0-2.4 2.4z" clip-path="url(#a)" fill="#fff" stroke="#fff"/>
<g clip-path="url(#a)">
<g transform="translate(1393 933.47) rotate(90) scale(.08 -.08)">
<use xlink:href="#l"/>
<use x="60.818359" xlink:href="#d"/>
<use x="122.341797" xlink:href="#h"/>
<use x="163.439453" xlink:href="#j"/>
<use x="260.851562" xlink:href="#i"/>
<use x="288.634766" xlink:href="#e"/>
<use x="352.013672" xlink:href="#f"/>
<use x="413.292969" xlink:href="#k"/>
</g>
</g>
<path d="m1568.7 933.47v35.285q0 2.4 2.4 2.4h7.7425q2.4 0 2.4-2.4v-35.285q0-2.4-2.4-2.4h-7.7425q-2.4 0-2.4 2.4z" clip-path="url(#a)" fill="#fff" stroke="#fff"/>
<g clip-path="url(#a)">
<g transform="translate(1572.8 933.47) rotate(90) scale(.08 -.08)">
<use xlink:href="#l"/>
<use x="60.818359" xlink:href="#d"/>
<use x="122.341797" xlink:href="#h"/>
<use x="163.439453" xlink:href="#j"/>
<use x="260.851562" xlink:href="#i"/>
<use x="288.634766" xlink:href="#e"/>
<use x="352.013672" xlink:href="#f"/>
<use x="413.292969" xlink:href="#k"/>
</g>
</g>
<path d="m1658.6 933.47v35.285q0 2.4 2.4 2.4h7.7425q2.4 0 2.4-2.4v-35.285q0-2.4-2.4-2.4h-7.7425q-2.4 0-2.4 2.4z" clip-path="url(#a)" fill="#fff" stroke="#fff"/>
<g clip-path="url(#a)">
<g transform="translate(1662.6 933.47) rotate(90) scale(.08 -.08)">
<use xlink:href="#l"/>
<use x="60.818359" xlink:href="#d"/>
<use x="122.341797" xlink:href="#h"/>
<use x="163.439453" xlink:href="#j"/>
<use x="260.851562" xlink:href="#i"/>
<use x="288.634766" xlink:href="#e"/>
<use x="352.013672" xlink:href="#f"/>
<use x="413.292969" xlink:href="#k"/>
</g>
</g>
<path d="m1838.3 933.47v35.285q0 2.4 2.4 2.4h7.7425q2.4 0 2.4-2.4v-35.285q0-2.4-2.4-2.4h-7.7425q-2.4 0-2.4 2.4z" clip-path="url(#a)" fill="#fff" stroke="#fff"/>
<g clip-path="url(#a)">
<g transform="translate(1842.3 933.47) rotate(90) scale(.08 -.08)">
<use xlink:href="#l"/>
<use x="60.818359" xlink:href="#d"/>
<use x="122.341797" xlink:href="#h"/>
<use x="163.439453" xlink:href="#j"/>
<use x="260.851562" xlink:href="#i"/>
<use x="288.634766" xlink:href="#e"/>
<use x="352.013672" xlink:href="#f"/>
<use x="413.292969" xlink:href="#k"/>
</g>
</g>
<defs>
<path id="b" d="m0 8.6603c2.2967 0 4.4997-0.9125 6.1237-2.5365 1.624-1.624 2.5365-3.827 2.5365-6.1237s-0.9125-4.4997-2.5365-6.1237c-1.624-1.624-3.827-2.5365-6.1237-2.5365s-4.4997 0.9125-6.1237 2.5365c-1.624 1.624-2.5365 3.827-2.5365 6.1237s0.9125 4.4997 2.5365 6.1237c1.624 1.624 3.827 2.5365 6.1237 2.5365z"/>
</defs>
<g clip-path="url(#a)">
<use x="92.259448" y="1017.406765" fill="#ffffff" stroke="#ffffff" xlink:href="#b"/>
</g>
<g clip-path="url(#a)">
<use x="137.189882" y="1017.406765" fill="#ffffff" stroke="#ffffff" xlink:href="#b"/>
</g>
<g clip-path="url(#a)">
<use x="182.120315" y="1017.406765" fill="#ffffff" stroke="#ffffff" xlink:href="#b"/>
</g>
<g clip-path="url(#a)">
<use x="227.050748" y="1017.406765" fill="#ffffff" stroke="#ffffff" xlink:href="#b"/>
</g>
<g clip-path="url(#a)">
<use x="271.981182" y="1017.406765" fill="#ffffff" stroke="#ffffff" xlink:href="#b"/>
</g>
<g clip-path="url(#a)">
<use x="316.911615" y="1017.406765" fill="#ffffff" stroke="#ffffff" xlink:href="#b"/>
</g>
<g clip-path="url(#a)">
<use x="361.842049" y="1017.406765" fill="#ffffff" stroke="#ffffff" xlink:href="#b"/>
</g>
<g clip-path="url(#a)">
<use x="406.772482" y="1017.406765" fill="#ffffff" stroke="#ffffff" xlink:href="#b"/>
</g>
<g clip-path="url(#a)">
<use x="451.702916" y="1017.406765" fill="#ffffff" stroke="#ffffff" xlink:href="#b"/>
</g>
<g clip-path="url(#a)">
<use x="496.633349" y="1017.406765" fill="#ffffff" stroke="#ffffff" xlink:href="#b"/>
</g>
<g clip-path="url(#a)">
<use x="541.563782" y="1017.406765" fill="#ffffff" stroke="#ffffff" xlink:href="#b"/>
</g>
<g clip-path="url(#a)">
<use x="586.494216" y="1017.406765" fill="#ffffff" stroke="#ffffff" xlink:href="#b"/>
</g>
<g clip-path="url(#a)">
<use x="631.424649" y="1017.406765" fill="#ffffff" stroke="#ffffff" xlink:href="#b"/>
</g>
<g clip-path="url(#a)">
<use x="676.355083" y="1017.406765" fill="#ffffff" stroke="#ffffff" xlink:href="#b"/>
</g>
<g clip-path="url(#a)">
<use x="721.285516" y="1017.406765" fill="#ffffff" stroke="#ffffff" xlink:href="#b"/>
</g>
<g clip-path="url(#a)">
<use x="766.21595" y="1017.406765" fill="#ffffff" stroke="#ffffff" xlink:href="#b"/>
</g>
<g clip-path="url(#a)">
<use x="811.146383" y="1017.406765" fill="#ffffff" stroke="#ffffff" xlink:href="#b"/>
</g>
<g clip-path="url(#a)">
<use x="856.076816" y="1017.406765" fill="#ffffff" stroke="#ffffff" xlink:href="#b"/>
</g>
<g clip-path="url(#a)">
<use x="901.00725" y="1017.406765" fill="#ffffff" stroke="#ffffff" xlink:href="#b"/>
</g>
<g clip-path="url(#a)">
<use x="945.937683" y="1017.406765" fill="#ffffff" stroke="#ffffff" xlink:href="#b"/>
</g>
<g clip-path="url(#a)">
<use x="990.868117" y="1017.406765" fill="#ffffff" stroke="#ffffff" xlink:href="#b"/>
</g>
<g clip-path="url(#a)">
<use x="1035.79855" y="1017.406765" fill="#ffffff" stroke="#ffffff" xlink:href="#b"/>
</g>
<g clip-path="url(#a)">
<use x="1080.728983" y="1017.406765" fill="#ffffff" stroke="#ffffff" xlink:href="#b"/>
</g>
<g clip-path="url(#a)">
<use x="1125.659417" y="1017.406765" fill="#ffffff" stroke="#ffffff" xlink:href="#b"/>
</g>
<g clip-path="url(#a)">
<use x="1170.58985" y="1017.406765" fill="#ffffff" stroke="#ffffff" xlink:href="#b"/>
</g>
<g clip-path="url(#a)">
<use x="1215.520284" y="1017.406765" fill="#ffffff" stroke="#ffffff" xlink:href="#b"/>
</g>
<g clip-path="url(#a)">
<use x="1260.450717" y="1017.406765" fill="#ffffff" stroke="#ffffff" xlink:href="#b"/>
</g>
<g clip-path="url(#a)">
<use x="1305.381151" y="1017.406765" fill="#ffffff" stroke="#ffffff" xlink:href="#b"/>
</g>
<g clip-path="url(#a)">
<use x="1350.311584" y="1017.406765" fill="#ffffff" stroke="#ffffff" xlink:href="#b"/>
</g>
<g clip-path="url(#a)">
<use x="1395.242017" y="1017.406765" fill="#ffffff" stroke="#ffffff" xlink:href="#b"/>
</g>
<g clip-path="url(#a)">
<use x="1440.172451" y="1017.406765" fill="#ffffff" stroke="#ffffff" xlink:href="#b"/>
</g>
<g clip-path="url(#a)">
<use x="1485.102884" y="1017.406765" fill="#ffffff" stroke="#ffffff" xlink:href="#b"/>
</g>
<g clip-path="url(#a)">
<use x="1530.033318" y="1017.406765" fill="#ffffff" stroke="#ffffff" xlink:href="#b"/>
</g>
<g clip-path="url(#a)">
<use x="1574.963751" y="1017.406765" fill="#ffffff" stroke="#ffffff" xlink:href="#b"/>
</g>
<g clip-path="url(#a)">
<use x="1619.894185" y="1017.406765" fill="#ffffff" stroke="#ffffff" xlink:href="#b"/>
</g>
<g clip-path="url(#a)">
<use x="1664.824618" y="1017.406765" fill="#ffffff" stroke="#ffffff" xlink:href="#b"/>
</g>
<g clip-path="url(#a)">
<use x="1709.755051" y="1017.406765" fill="#ffffff" stroke="#ffffff" xlink:href="#b"/>
</g>
<g clip-path="url(#a)">
<use x="1754.685485" y="1017.406765" fill="#ffffff" stroke="#ffffff" xlink:href="#b"/>
</g>
<g clip-path="url(#a)">
<use x="1799.615918" y="1017.406765" fill="#ffffff" stroke="#ffffff" xlink:href="#b"/>
</g>
<g clip-path="url(#a)">
<use x="1844.546352" y="1017.406765" fill="#ffffff" stroke="#ffffff" xlink:href="#b"/>
</g>
<g clip-path="url(#a)">
<use x="492.453623" y="49.259902" fill="#ffffff" stroke="#ffffff" xlink:href="#b"/>
</g>
<g clip-path="url(#a)">
<use x="92.259448" y="884.820921" fill="#ffffff" stroke="#ffffff" xlink:href="#b"/>
</g>
<g clip-path="url(#a)">
<use x="301.934804" y="617.804818" fill="#ffffff" stroke="#ffffff" xlink:href="#b"/>
</g>
<g clip-path="url(#a)">
<use x="1083.166615" y="196.937121" fill="#ffffff" stroke="#ffffff" xlink:href="#b"/>
</g>
<g clip-path="url(#a)">
<use x="384.307265" y="884.820921" fill="#ffffff" stroke="#ffffff" xlink:href="#b"/>
</g>
<g clip-path="url(#a)">
<use x="451.702916" y="884.820921" fill="#ffffff" stroke="#ffffff" xlink:href="#b"/>
</g>
<g clip-path="url(#a)">
<use x="519.098566" y="752.235077" fill="#ffffff" stroke="#ffffff" xlink:href="#b"/>
</g>
<g clip-path="url(#a)">
<use x="942.973523" y="340.645184" fill="#ffffff" stroke="#ffffff" xlink:href="#b"/>
</g>
<g clip-path="url(#a)">
<use x="1530.033318" y="752.235077" fill="#ffffff" stroke="#ffffff" xlink:href="#b"/>
</g>
<g clip-path="url(#a)">
<use x="1777.150701" y="752.235077" fill="#ffffff" stroke="#ffffff" xlink:href="#b"/>
</g>
<g clip-path="url(#a)">
<use x="1709.755051" y="884.820921" fill="#ffffff" stroke="#ffffff" xlink:href="#b"/>
</g>
<g clip-path="url(#a)">
<use x="1754.685485" y="884.820921" fill="#ffffff" stroke="#ffffff" xlink:href="#b"/>
</g>
<g clip-path="url(#a)">
<use x="1799.615918" y="884.820921" fill="#ffffff" stroke="#ffffff" xlink:href="#b"/>
</g>
<g clip-path="url(#a)">
<use x="1440.172451" y="884.820921" fill="#ffffff" stroke="#ffffff" xlink:href="#b"/>
</g>
<g clip-path="url(#a)">
<use x="1485.102884" y="884.820921" fill="#ffffff" stroke="#ffffff" xlink:href="#b"/>
</g>
<g clip-path="url(#a)">
<use x="1530.033318" y="884.820921" fill="#ffffff" stroke="#ffffff" xlink:href="#b"/>
</g>
<g clip-path="url(#a)">
<use x="1619.894185" y="884.820921" fill="#ffffff" stroke="#ffffff" xlink:href="#b"/>
</g>
<g clip-path="url(#a)">
<use x="586.494216" y="884.820921" fill="#ffffff" stroke="#ffffff" xlink:href="#b"/>
</g>
<g clip-path="url(#a)">
<use x="721.285516" y="884.820921" fill="#ffffff" stroke="#ffffff" xlink:href="#b"/>
</g>
<g clip-path="url(#a)">
<use x="1267.939123" y="617.804818" fill="#ffffff" stroke="#ffffff" xlink:href="#b"/>
</g>
<g clip-path="url(#a)">
<use x="1190.246915" y="480.786004" fill="#ffffff" stroke="#ffffff" xlink:href="#b"/>
</g>
<g clip-path="url(#a)">
<use x="1080.728983" y="884.820921" fill="#ffffff" stroke="#ffffff" xlink:href="#b"/>
</g>
<g clip-path="url(#a)">
<use x="1125.659417" y="884.820921" fill="#ffffff" stroke="#ffffff" xlink:href="#b"/>
</g>
<g clip-path="url(#a)">
<use x="1384.009409" y="617.804818" fill="#ffffff" stroke="#ffffff" xlink:href="#b"/>
</g>
<g clip-path="url(#a)">
<use x="1417.707234" y="752.235077" fill="#ffffff" stroke="#ffffff" xlink:href="#b"/>
</g>
<g clip-path="url(#a)">
<use x="1350.311584" y="884.820921" fill="#ffffff" stroke="#ffffff" xlink:href="#b"/>
</g>
<g clip-path="url(#a)">
<use x="1889.476785" y="1017.406765" fill="#ffffff" stroke="#ffffff" xlink:href="#b"/>
</g>
<g clip-path="url(#a)">
<use x="1215.520284" y="884.820921" fill="#ffffff" stroke="#ffffff" xlink:href="#b"/>
</g>
<g clip-path="url(#a)">
<use x="1305.381151" y="884.820921" fill="#ffffff" stroke="#ffffff" xlink:href="#b"/>
</g>
<g clip-path="url(#a)">
<use x="1934.407218" y="1017.406765" fill="#ffffff" stroke="#ffffff" xlink:href="#b"/>
</g>
<g clip-path="url(#a)">
<use x="901.00725" y="884.820921" fill="#ffffff" stroke="#ffffff" xlink:href="#b"/>
</g>
<g clip-path="url(#a)">
<use x="968.4029" y="752.235077" fill="#ffffff" stroke="#ffffff" xlink:href="#b"/>
</g>
<g clip-path="url(#a)">
<use x="945.937683" y="884.820921" fill="#ffffff" stroke="#ffffff" xlink:href="#b"/>
</g>
<g clip-path="url(#a)">
<use x="990.868117" y="884.820921" fill="#ffffff" stroke="#ffffff" xlink:href="#b"/>
</g>
<g clip-path="url(#a)">
<use x="496.633349" y="884.820921" fill="#ffffff" stroke="#ffffff" xlink:href="#b"/>
</g>
<g clip-path="url(#a)">
<use x="541.563782" y="884.820921" fill="#ffffff" stroke="#ffffff" xlink:href="#b"/>
</g>
<g clip-path="url(#a)">
<use x="204.585532" y="752.235077" fill="#ffffff" stroke="#ffffff" xlink:href="#b"/>
</g>
<g clip-path="url(#a)">
<use x="316.911615" y="884.820921" fill="#ffffff" stroke="#ffffff" xlink:href="#b"/>
</g>
<g clip-path="url(#a)">
<use x="137.189882" y="884.820921" fill="#ffffff" stroke="#ffffff" xlink:href="#b"/>
</g>
<g clip-path="url(#a)">
<use x="182.120315" y="884.820921" fill="#ffffff" stroke="#ffffff" xlink:href="#b"/>
</g>
<g clip-path="url(#a)">
<use x="227.050748" y="884.820921" fill="#ffffff" stroke="#ffffff" xlink:href="#b"/>
</g>
<g clip-path="url(#a)">
<use x="271.981182" y="884.820921" fill="#ffffff" stroke="#ffffff" xlink:href="#b"/>
</g>
<g clip-path="url(#a)">
<use x="856.076816" y="884.820921" fill="#ffffff" stroke="#ffffff" xlink:href="#b"/>
</g>
<g clip-path="url(#a)">
<use x="1035.79855" y="884.820921" fill="#ffffff" stroke="#ffffff" xlink:href="#b"/>
</g>
<g clip-path="url(#a)">
<use x="1170.58985" y="884.820921" fill="#ffffff" stroke="#ffffff" xlink:href="#b"/>
</g>
<g clip-path="url(#a)">
<use x="1260.450717" y="884.820921" fill="#ffffff" stroke="#ffffff" xlink:href="#b"/>
</g>
<g clip-path="url(#a)">
<use x="1395.242017" y="884.820921" fill="#ffffff" stroke="#ffffff" xlink:href="#b"/>
</g>
<g clip-path="url(#a)">
<use x="1574.963751" y="884.820921" fill="#ffffff" stroke="#ffffff" xlink:href="#b"/>
</g>
<g clip-path="url(#a)">
<use x="1664.824618" y="884.820921" fill="#ffffff" stroke="#ffffff" xlink:href="#b"/>
</g>
<g clip-path="url(#a)">
<use x="1844.546352" y="884.820921" fill="#ffffff" stroke="#ffffff" xlink:href="#b"/>
</g>
<g clip-path="url(#a)">
<defs>
<path id="o" d="m18.312 70.219v-15.531h18.5v-6.9844h-18.5v-29.688q0-6.6875 1.8281-8.5938t7.4531-1.9062h9.2188v-7.5156h-9.2188q-10.406 0-14.359 3.875-3.9531 3.8906-3.9531 14.141v29.688h-6.5938v6.9844h6.5938v15.531z"/>
</defs>
<g transform="translate(86.88 1020.2) scale(.1 -.1)">
<use xlink:href="#w"/>
<use x="68.392578" xlink:href="#o"/>
</g>
</g>
<g clip-path="url(#a)">
<defs>
<path id="v" d="m54.891 33.016v-33.016h-8.9844v32.719q0 7.7656-3.0312 11.609-3.0312 3.8594-9.0781 3.8594-7.2812 0-11.484-4.6406-4.2031-4.625-4.2031-12.641v-30.906h-9.0312v75.984h9.0312v-29.797q3.2344 4.9375 7.5938 7.375 4.375 2.4375 10.094 2.4375 9.4219 0 14.25-5.8281 4.8438-5.8281 4.8438-17.156z"/>
</defs>
<g transform="translate(128.98 1020.2) scale(.1 -.1)">
<use xlink:href="#o"/>
<use x="39.208984" xlink:href="#v"/>
<use x="102.587891" xlink:href="#d"/>
</g>
</g>
<g clip-path="url(#a)">
<defs>
<path id="am" d="m45.406 27.984q0 9.7656-4.0312 15.125-4.0156 5.375-11.297 5.375-7.2188 0-11.25-5.375-4.0312-5.3594-4.0312-15.125 0-9.7188 4.0312-15.094t11.25-5.375q7.2812 0 11.297 5.375 4.0312 5.375 4.0312 15.094zm8.9844-21.203q0-13.953-6.2031-20.766-6.1875-6.8125-18.984-6.8125-4.7344 0-8.9375 0.70312t-8.1562 2.1719v8.7344q3.9531-2.1406 7.8125-3.1562 3.8594-1.0312 7.8594-1.0312 8.8438 0 13.234 4.6094t4.3906 13.938v4.4531q-2.7812-4.8438-7.125-7.2344t-10.406-2.3906q-10.047 0-16.203 7.6562-6.1562 7.6719-6.1562 20.328 0 12.688 6.1562 20.344 6.1562 7.6719 16.203 7.6719 6.0625 0 10.406-2.3906t7.125-7.2188v8.2969h8.9844z"/>
</defs>
<g transform="translate(172.81 1020.2) scale(.1 -.1)">
<use xlink:href="#f"/>
<use x="61.279297" xlink:href="#am"/>
<use x="124.755859" xlink:href="#d"/>
</g>
</g>
<g clip-path="url(#a)">
<defs>
<path id="m" d="m30.609 48.391q-7.2188 0-11.422-5.6406t-4.2031-15.453 4.1719-15.453q4.1875-5.6406 11.453-5.6406 7.1875 0 11.375 5.6562 4.2031 5.6719 4.2031 15.438 0 9.7188-4.2031 15.406-4.1875 5.6875-11.375 5.6875zm0 7.6094q11.719 0 18.406-7.625 6.7031-7.6094 6.7031-21.078 0-13.422-6.7031-21.078-6.6875-7.6406-18.406-7.6406-11.766 0-18.438 7.6406-6.6562 7.6562-6.6562 21.078 0 13.469 6.6562 21.078 6.6719 7.625 18.438 7.625z"/>
<path id="an" d="m37.109 75.984v-7.4844h-8.5938q-4.8281 0-6.7188-1.9531-1.875-1.9531-1.875-7.0312v-4.8281h14.797v-6.9844h-14.797v-47.703h-9.0312v47.703h-8.5938v6.9844h8.5938v3.8125q0 9.125 4.25 13.297 4.25 4.1875 13.469 4.1875z"/>
</defs>
<g transform="translate(222.23 1020.2) scale(.1 -.1)">
<use xlink:href="#m"/>
<use x="61.181641" xlink:href="#an"/>
</g>
</g>
<g clip-path="url(#a)">
<defs>
<path id="af" d="m44.281 53.078v-8.5q-3.7969 1.9531-7.9062 2.9219-4.0938 0.98438-8.5 0.98438-6.6875 0-10.031-2.0469t-3.3438-6.1562q0-3.125 2.3906-4.9062t9.625-3.3906l3.0781-0.6875q9.5625-2.0469 13.594-5.7812t4.0312-10.422q0-7.625-6.0312-12.078-6.0312-4.4375-16.578-4.4375-4.3906 0-9.1562 0.85938t-10.031 2.5625v9.2812q4.9844-2.5938 9.8125-3.8906 4.8281-1.2812 9.5781-1.2812 6.3438 0 9.75 2.1719 3.4219 2.1719 3.4219 6.125 0 3.6562-2.4688 5.6094-2.4531 1.9531-10.812 3.7656l-3.125 0.73438q-8.3438 1.75-12.062 5.3906-3.7031 3.6406-3.7031 9.9844 0 7.7188 5.4688 11.906 5.4688 4.2031 15.531 4.2031 4.9688 0 9.3594-0.73438 4.4062-0.71875 8.1094-2.1875z"/>
<path id="bb" d="m54.891 54.688-19.781-26.609 20.797-28.078h-10.594l-15.922 21.484-15.906-21.484h-10.609l21.25 28.609-19.438 26.078h10.594l14.5-19.484 14.5 19.484z"/>
</defs>
<g transform="translate(265.03 1020.2) scale(.1 -.1)">
<use xlink:href="#af"/>
<use x="52.099609" xlink:href="#i"/>
<use x="79.882812" xlink:href="#bb"/>
</g>
</g>
<g clip-path="url(#a)">
<defs>
<path id="ae" d="m11.719 12.406h10.297v-8.4062l-8-15.625h-6.2969l4 15.625z"/>
</defs>
<g transform="translate(315.32 1020.2) scale(.1 -.1)">
<use xlink:href="#ae"/>
</g>
</g>
<g clip-path="url(#a)">
<defs>
<path id="av" d="m28.609 0-27.828 72.906h10.297l23.109-61.375 23.141 61.375h10.25l-27.781-72.906z"/>
<path id="al" d="m2.9844 54.688h9.5156l17.094-45.891 17.094 45.891h9.5156l-20.516-54.688h-12.203z"/>
</defs>
<g transform="translate(346.45 1020.2) scale(.1 -.1)">
<use xlink:href="#av"/>
<use x="68.376953" xlink:href="#i"/>
<use x="96.160156" xlink:href="#al"/>
<use x="155.339844" xlink:href="#i"/>
<use x="183.123047" xlink:href="#f"/>
<use x="244.402344" xlink:href="#e"/>
</g>
</g>
<g clip-path="url(#a)">
<defs>
<path id="as" d="m32.172-5.0781q-3.7969-9.7656-7.4219-12.734-3.6094-2.9844-9.6562-2.9844h-7.1875v7.5156h5.2812q3.7031 0 5.75 1.7656 2.0625 1.75 4.5469 8.2969l1.6094 4.0938-22.109 53.812h9.5156l17.094-42.766 17.094 42.766h9.5156z"/>
</defs>
<g transform="translate(388.51 1020.2) scale(.1 -.1)">
<use xlink:href="#ah"/>
<use x="75.195312" xlink:href="#f"/>
<use x="136.474609" xlink:href="#h"/>
<use x="177.587891" xlink:href="#o"/>
<use x="216.796875" xlink:href="#k"/>
<use x="244.580078" xlink:href="#d"/>
<use x="306.103516" xlink:href="#as"/>
</g>
</g>
<g clip-path="url(#a)">
<defs>
<path id="ak" d="m4.2031 54.688h8.9844l11.234-42.672 11.172 42.672h10.594l11.234-42.672 11.188 42.672h8.9844l-14.312-54.688h-10.594l-11.766 44.828-11.812-44.828h-10.609z"/>
</defs>
<g transform="translate(441.95 1020.2) scale(.1 -.1)">
<use xlink:href="#ak"/>
<use x="81.787109" xlink:href="#f"/>
<use x="143.066406" xlink:href="#af"/>
</g>
</g>
<g clip-path="url(#a)">
<g transform="translate(485.82 1020.2) scale(.1 -.1)">
<use xlink:href="#af"/>
<use x="52.099609" xlink:href="#d"/>
<use x="113.623047" xlink:href="#e"/>
<use x="177.001953" xlink:href="#o"/>
</g>
</g>
<g clip-path="url(#a)">
<g transform="translate(536.54 1020.2) scale(.1 -.1)">
<use xlink:href="#o"/>
<use x="39.208984" xlink:href="#m"/>
</g>
</g>
<g clip-path="url(#a)">
<g transform="translate(578.29 1020.2) scale(.1 -.1)">
<use xlink:href="#o"/>
<use x="39.208984" xlink:href="#v"/>
<use x="102.587891" xlink:href="#d"/>
</g>
</g>
<g clip-path="url(#a)">
<g transform="translate(610.54 1020.2) scale(.1 -.1)">
<use xlink:href="#p"/>
<use x="69.824219" xlink:href="#m"/>
<use x="131.005859" xlink:href="#e"/>
<use x="194.384766" xlink:href="#al"/>
<use x="253.564453" xlink:href="#d"/>
<use x="315.087891" xlink:href="#e"/>
<use x="378.466797" xlink:href="#o"/>
</g>
</g>
<g clip-path="url(#a)">
<g transform="translate(671.54 1020.2) scale(.1 -.1)">
<use xlink:href="#m"/>
<use x="61.181641" xlink:href="#an"/>
</g>
</g>
<g clip-path="url(#a)">
<g transform="translate(713.08 1020.2) scale(.1 -.1)">
<use xlink:href="#o"/>
<use x="39.208984" xlink:href="#v"/>
<use x="102.587891" xlink:href="#d"/>
</g>
</g>
<g clip-path="url(#a)">
<defs>
<path id="ap" d="m48.781 52.594v-8.4062q-3.8125 2.1094-7.6406 3.1562t-7.7344 1.0469q-8.75 0-13.594-5.5469-4.8281-5.5312-4.8281-15.547t4.8281-15.562q4.8438-5.5312 13.594-5.5312 3.9062 0 7.7344 1.0469t7.6406 3.1562v-8.3125q-3.7656-1.75-7.7969-2.625-4.0156-0.89062-8.5625-0.89062-12.359 0-19.641 7.7656-7.2656 7.7656-7.2656 20.953 0 13.375 7.3438 21.031 7.3594 7.6719 20.156 7.6719 4.1406 0 8.0938-0.85938 3.9531-0.84375 7.6719-2.5469z"/>
<path id="ao" d="m45.406 46.391v29.594h8.9844v-75.984h-8.9844v8.2031q-2.8281-4.875-7.1562-7.25-4.3125-2.375-10.375-2.375-9.9062 0-16.141 7.9062-6.2188 7.9219-6.2188 20.812t6.2188 20.797q6.2344 7.9062 16.141 7.9062 6.0625 0 10.375-2.375 4.3281-2.3594 7.1562-7.2344zm-30.609-19.094q0-9.9062 4.0781-15.547t11.203-5.6406 11.219 5.6406q4.1094 5.6406 4.1094 15.547t-4.1094 15.547q-4.0938 5.6406-11.219 5.6406t-11.203-5.6406-4.0781-15.547z"/>
</defs>
<g transform="translate(748.92 1020.2) scale(.1 -.1)">
<use xlink:href="#ag"/>
<use x="63.476562" xlink:href="#f"/>
<use x="124.755859" xlink:href="#ap"/>
<use x="179.736328" xlink:href="#h"/>
<use x="220.818359" xlink:href="#d"/>
<use x="282.341797" xlink:href="#ao"/>
</g>
</g>
<g clip-path="url(#a)">
<g transform="translate(797.23 1020.2) scale(.1 -.1)">
<use xlink:href="#ah"/>
<use x="75.195312" xlink:href="#d"/>
<use x="136.71875" xlink:href="#f"/>
<use x="197.998047" xlink:href="#h"/>
<use x="239.111328" xlink:href="#o"/>
</g>
</g>
<g clip-path="url(#a)">
<defs>
<path id="ba" d="m31 75.875q-6.5312-11.219-9.7188-22.219-3.1719-10.984-3.1719-22.266 0-11.266 3.2031-22.328t9.6875-22.25h-7.8125q-7.3125 11.484-10.953 22.562t-3.6406 22.016q0 10.891 3.6094 21.922 3.625 11.047 10.984 22.562z"/>
</defs>
<g transform="translate(854.13 1020.2) scale(.1 -.1)">
<use xlink:href="#ba"/>
</g>
</g>
<g clip-path="url(#a)">
<g transform="translate(890.69 1020.2) scale(.1 -.1)">
<use xlink:href="#e"/>
<use x="63.378906" xlink:href="#m"/>
<use x="124.560547" xlink:href="#ak"/>
</g>
</g>
<g clip-path="url(#a)">
<defs>
<path id="au" d="m3.3281 72.906h9.9531l15.328-61.625 15.281 61.625h11.094l15.328-61.625 15.281 61.625h10.016l-18.312-72.906h-12.406l-15.375 63.281-15.531-63.281h-12.406z"/>
</defs>
<g transform="translate(914.54 1020.2) scale(.1 -.1)">
<use xlink:href="#au"/>
<use x="98.798828" xlink:href="#m"/>
<use x="159.980469" xlink:href="#k"/>
<use x="187.763672" xlink:href="#ao"/>
<use x="251.240234" xlink:href="#i"/>
<use x="279.023438" xlink:href="#e"/>
<use x="342.402344" xlink:href="#am"/>
<use x="405.878906" xlink:href="#v"/>
<use x="469.257812" xlink:href="#f"/>
<use x="530.537109" xlink:href="#j"/>
</g>
</g>
<g clip-path="url(#a)">
<g transform="translate(974.27 1020.2) scale(.1 -.1)">
<use xlink:href="#ag"/>
<use x="63.476562" xlink:href="#ap"/>
<use x="118.457031" xlink:href="#v"/>
<use x="181.835938" xlink:href="#m"/>
<use x="243.017578" xlink:href="#m"/>
<use x="304.199219" xlink:href="#k"/>
</g>
</g>
<g clip-path="url(#a)">
<defs>
<path id="az" d="m8.0156 75.875h7.8125q7.3125-11.516 10.953-22.562 3.6406-11.031 3.6406-21.922 0-10.938-3.6406-22.016t-10.953-22.562h-7.8125q6.4844 11.188 9.6875 22.25t3.2031 22.328q0 11.281-3.2031 22.266-3.2031 11-9.6875 22.219z"/>
</defs>
<g transform="translate(1033.8 1020.2) scale(.1 -.1)">
<use xlink:href="#az"/>
</g>
</g>
<g clip-path="url(#a)">
<g transform="translate(1076.2 1020.2) scale(.1 -.1)">
<use xlink:href="#i"/>
<use x="27.783203" xlink:href="#e"/>
</g>
</g>
<g clip-path="url(#a)">
<defs>
<path id="bd" d="m18.109 8.2031v-29h-9.0312v75.484h9.0312v-8.2969q2.8438 4.875 7.1562 7.2344 4.3281 2.375 10.328 2.375 9.9688 0 16.188-7.9062 6.2344-7.9062 6.2344-20.797t-6.2344-20.812q-6.2188-7.9062-16.188-7.9062-6 0-10.328 2.375-4.3125 2.375-7.1562 7.25zm30.578 19.094q0 9.9062-4.0781 15.547t-11.203 5.6406q-7.1406 0-11.219-5.6406t-4.0781-15.547 4.0781-15.547 11.219-5.6406q7.125 0 11.203 5.6406t4.0781 15.547z"/>
</defs>
<g transform="translate(1093.6 1020.2) scale(.1 -.1)">
<use xlink:href="#x"/>
<use x="69.419922" xlink:href="#m"/>
<use x="130.601562" xlink:href="#d"/>
<use x="192.125" xlink:href="#v"/>
<use x="255.503906" xlink:href="#f"/>
<use x="316.783203" xlink:href="#j"/>
<use x="414.195312" xlink:href="#bd"/>
<use x="477.671875" xlink:href="#o"/>
<use x="516.880859" xlink:href="#m"/>
<use x="578.0625" xlink:href="#e"/>
</g>
</g>
<g clip-path="url(#a)">
<g transform="translate(1169 1020.2) scale(.1 -.1)">
<use xlink:href="#ae"/>
</g>
</g>
<g clip-path="url(#a)">
<defs>
<path id="bc" d="m8.5 21.578v33.109h8.9844v-32.766q0-7.7656 3.0156-11.656 3.0312-3.875 9.0938-3.875 7.2656 0 11.484 4.6406 4.2344 4.6406 4.2344 12.656v31h8.9844v-54.688h-8.9844v8.4062q-3.2656-4.9844-7.5938-7.4062-4.3125-2.4219-10.031-2.4219-9.4219 0-14.312 5.8594-4.875 5.8594-4.875 17.141z"/>
</defs>
<g transform="translate(1201.6 1020.2) scale(.1 -.1)">
<use xlink:href="#af"/>
<use x="52.099609" xlink:href="#m"/>
<use x="113.28125" xlink:href="#bc"/>
<use x="176.660156" xlink:href="#o"/>
<use x="215.869141" xlink:href="#v"/>
</g>
</g>
<g clip-path="url(#a)">
<defs>
<path id="ay" d="m4.8906 31.391h26.312v-8h-26.312z"/>
</defs>
<g transform="translate(1258.6 1020.2) scale(.1 -.1)">
<use xlink:href="#ay"/>
</g>
</g>
<g clip-path="url(#a)">
<g transform="translate(1293.7 1020.2) scale(.1 -.1)">
<use xlink:href="#ak"/>
<use x="81.787109" xlink:href="#d"/>
<use x="143.310547" xlink:href="#af"/>
<use x="195.410156" xlink:href="#o"/>
</g>
</g>
<g clip-path="url(#a)">
<g transform="translate(1331.9 1020.2) scale(.1 -.1)">
<use xlink:href="#z"/>
<use x="55.697266" xlink:href="#m"/>
<use x="116.878906" xlink:href="#e"/>
<use x="180.257812" xlink:href="#ao"/>
<use x="243.734375" xlink:href="#m"/>
<use x="304.916016" xlink:href="#e"/>
</g>
</g>
<g clip-path="url(#a)">
<g transform="translate(1393.7 1020.2) scale(.1 -.1)">
<use xlink:href="#ae"/>
</g>
</g>
<g clip-path="url(#a)">
<g transform="translate(1428.4 1020.2) scale(.1 -.1)">
<use xlink:href="#an"/>
<use x="35.205078" xlink:href="#h"/>
<use x="76.287109" xlink:href="#m"/>
<use x="137.46875" xlink:href="#j"/>
</g>
</g>
<g clip-path="url(#a)">
<g transform="translate(1469.1 1020.2) scale(.1 -.1)">
<use xlink:href="#z"/>
<use x="55.697266" xlink:href="#m"/>
<use x="116.878906" xlink:href="#h"/>
<use x="157.960938" xlink:href="#d"/>
<use x="219.484375" xlink:href="#o"/>
<use x="258.693359" xlink:href="#m"/>
</g>
</g>
<g clip-path="url(#a)">
<g transform="translate(1509.1 1020.2) scale(.1 -.1)">
<use xlink:href="#p"/>
<use x="69.824219" xlink:href="#m"/>
<use x="131.005859" xlink:href="#e"/>
<use x="194.384766" xlink:href="#al"/>
<use x="253.564453" xlink:href="#d"/>
<use x="315.087891" xlink:href="#e"/>
<use x="378.466797" xlink:href="#o"/>
</g>
</g>
<g clip-path="url(#a)">
<g transform="translate(1573.4 1020.2) scale(.1 -.1)">
<use xlink:href="#ae"/>
</g>
</g>
<g clip-path="url(#a)">
<defs>
<path id="be" d="m9.4219 54.688h8.9844v-55.672q0-10.438-3.9844-15.125-3.9688-4.6875-12.812-4.6875h-3.4219v7.6094h2.4062q5.125 0 6.9688 2.375 1.8594 2.3594 1.8594 9.8281zm0 21.297h8.9844v-11.391h-8.9844z"/>
</defs>
<g transform="translate(1594.3 1020.2) scale(.1 -.1)">
<use xlink:href="#ar"/>
<use x="77.001953" xlink:href="#f"/>
<use x="138.28125" xlink:href="#h"/>
<use x="179.394531" xlink:href="#be"/>
<use x="207.177734" xlink:href="#d"/>
<use x="268.701172" xlink:href="#d"/>
<use x="330.224609" xlink:href="#k"/>
<use x="358.007812" xlink:href="#i"/>
<use x="385.791016" xlink:href="#e"/>
<use x="449.169922" xlink:href="#am"/>
</g>
</g>
<g clip-path="url(#a)">
<g transform="translate(1663.2 1020.2) scale(.1 -.1)">
<use xlink:href="#ae"/>
</g>
</g>
<g clip-path="url(#a)">
<defs>
<path id="at" d="m48.688 27.297q0 9.9062-4.0781 15.547t-11.203 5.6406q-7.1406 0-11.219-5.6406t-4.0781-15.547 4.0781-15.547 11.219-5.6406q7.125 0 11.203 5.6406t4.0781 15.547zm-30.578 19.094q2.8438 4.875 7.1562 7.2344 4.3281 2.375 10.328 2.375 9.9688 0 16.188-7.9062 6.2344-7.9062 6.2344-20.797t-6.2344-20.812q-6.2188-7.9062-16.188-7.9062-6 0-10.328 2.375-4.3125 2.375-7.1562 7.25v-8.2031h-9.0312v75.984h9.0312z"/>
</defs>
<g transform="translate(1703.6 1020.2) scale(.1 -.1)">
<use xlink:href="#at"/>
<use x="63.476562" xlink:href="#as"/>
</g>
</g>
<g clip-path="url(#a)">
<g transform="translate(1746.4 1020.2) scale(.1 -.1)">
<use xlink:href="#v"/>
<use x="63.378906" xlink:href="#d"/>
<use x="124.902344" xlink:href="#h"/>
</g>
</g>
<g clip-path="url(#a)">
<g transform="translate(1781.4 1020.2) scale(.1 -.1)">
<use xlink:href="#j"/>
<use x="97.412109" xlink:href="#m"/>
<use x="158.59375" xlink:href="#o"/>
<use x="197.802734" xlink:href="#v"/>
<use x="261.181641" xlink:href="#d"/>
<use x="322.705078" xlink:href="#h"/>
</g>
</g>
<g clip-path="url(#a)">
<defs>
<path id="g" d="m10.688 12.406h10.312v-12.406h-10.312z"/>
</defs>
<g transform="translate(1843 1020.2) scale(.1 -.1)">
<use xlink:href="#g"/>
</g>
</g>
<g clip-path="url(#a)">
<defs>
<path id="c" d="m12.406 8.2969h16.109v55.625l-17.531-3.5156v8.9844l17.438 3.5156h9.8594v-64.609h16.109v-8.2969h-41.984z"/>
</defs>
<g transform="translate(484.5 52.019) scale(.1 -.1)">
<use xlink:href="#c"/>
<use x="63.623047" xlink:href="#g"/>
<use x="95.410156" xlink:href="#c"/>
</g>
</g>
<g clip-path="url(#a)">
<defs>
<path id="r" d="m19.188 8.2969h34.422v-8.2969h-46.281v8.2969q5.6094 5.8125 15.297 15.594 9.7031 9.7969 12.188 12.641 4.7344 5.3125 6.6094 9 1.8906 3.6875 1.8906 7.25 0 5.8125-4.0781 9.4688-4.0781 3.6719-10.625 3.6719-4.6406 0-9.7969-1.6094-5.1406-1.6094-11-4.8906v9.9688q5.9531 2.3906 11.125 3.6094 5.1875 1.2188 9.4844 1.2188 11.328 0 18.062-5.6719 6.7344-5.6562 6.7344-15.125 0-4.5-1.6875-8.5312-1.6719-4.0156-6.125-9.4844-1.2188-1.4219-7.7656-8.1875-6.5312-6.7656-18.453-18.922z"/>
</defs>
<g transform="translate(84.308 887.58) scale(.1 -.1)">
<use xlink:href="#c"/>
<use x="63.623047" xlink:href="#g"/>
<use x="95.410156" xlink:href="#r"/>
</g>
</g>
<g clip-path="url(#a)">
<defs>
<path id="t" d="m40.578 39.312q7.0781-1.5156 11.047-6.3125 3.9844-4.7812 3.9844-11.812 0-10.781-7.4219-16.703-7.4219-5.9062-21.094-5.9062-4.5781 0-9.4375 0.90625t-10.031 2.7188v9.5156q4.0938-2.3906 8.9688-3.6094 4.8906-1.2188 10.219-1.2188 9.2656 0 14.125 3.6562t4.8594 10.641q0 6.4531-4.5156 10.078-4.5156 3.6406-12.562 3.6406h-8.5v8.1094h8.8906q7.2656 0 11.125 2.9062t3.8594 8.375q0 5.6094-3.9844 8.6094-3.9688 3.0156-11.391 3.0156-4.0625 0-8.7031-0.89062-4.6406-0.875-10.203-2.7188v8.7812q5.625 1.5625 10.531 2.3438t9.25 0.78125q11.234 0 17.766-5.1094 6.5469-5.0938 6.5469-13.781 0-6.0625-3.4688-10.234t-9.8594-5.7812z"/>
</defs>
<g transform="translate(293.98 620.56) scale(.1 -.1)">
<use xlink:href="#c"/>
<use x="63.623047" xlink:href="#g"/>
<use x="95.410156" xlink:href="#t"/>
</g>
</g>
<g clip-path="url(#a)">
<defs>
<path id="n" d="m37.797 64.312-24.906-38.922h24.906zm-2.5938 8.5938h12.406v-47.516h10.406v-8.2031h-10.406v-17.188h-9.8125v17.188h-32.906v9.5156z"/>
</defs>
<g transform="translate(1075.2 199.7) scale(.1 -.1)">
<use xlink:href="#c"/>
<use x="63.623047" xlink:href="#g"/>
<use x="95.410156" xlink:href="#n"/>
</g>
</g>
<g clip-path="url(#a)">
<defs>
<path id="ac" d="m33.016 40.375q-6.6406 0-10.531-4.5469-3.875-4.5312-3.875-12.438 0-7.8594 3.875-12.438 3.8906-4.5625 10.531-4.5625t10.516 4.5625q3.875 4.5781 3.875 12.438 0 7.9062-3.875 12.438-3.875 4.5469-10.516 4.5469zm19.578 30.922v-8.9844q-3.7188 1.75-7.5 2.6719-3.7812 0.9375-7.5 0.9375-9.7656 0-14.922-6.5938-5.1406-6.5938-5.875-19.922 2.875 4.25 7.2188 6.5156 4.3594 2.2656 9.5781 2.2656 10.984 0 17.359-6.6719 6.375-6.6562 6.375-18.125 0-11.234-6.6406-18.031-6.6406-6.7812-17.672-6.7812-12.656 0-19.344 9.6875-6.6875 9.7031-6.6875 28.109 0 17.281 8.2031 27.562t22.016 10.281q3.7188 0 7.5-0.73438t7.8906-2.1875z"/>
</defs>
<g transform="translate(376.36 887.58) scale(.1 -.1)">
<use xlink:href="#c"/>
<use x="63.623047" xlink:href="#g"/>
<use x="95.410156" xlink:href="#ac"/>
</g>
</g>
<g clip-path="url(#a)">
<defs>
<path id="ai" d="m8.2031 72.906h46.875v-4.2031l-26.469-68.703h-10.297l24.906 64.594h-35.016z"/>
</defs>
<g transform="translate(443.75 887.58) scale(.1 -.1)">
<use xlink:href="#c"/>
<use x="63.623047" xlink:href="#g"/>
<use x="95.410156" xlink:href="#ai"/>
</g>
</g>
<g clip-path="url(#a)">
<defs>
<path id="ab" d="m31.781 34.625q-7.0312 0-11.062-3.7656-4.0156-3.7656-4.0156-10.344 0-6.5938 4.0156-10.359 4.0312-3.7656 11.062-3.7656t11.078 3.7812q4.0625 3.7969 4.0625 10.344 0 6.5781-4.0312 10.344-4.0156 3.7656-11.109 3.7656zm-9.8594 4.1875q-6.3438 1.5625-9.8906 5.9062-3.5312 4.3594-3.5312 10.609 0 8.7344 6.2188 13.812 6.2344 5.0781 17.062 5.0781 10.891 0 17.094-5.0781t6.2031-13.812q0-6.25-3.5469-10.609-3.5312-4.3438-9.8281-5.9062 7.125-1.6562 11.094-6.5 3.9844-4.8281 3.9844-11.797 0-10.609-6.4688-16.281-6.4688-5.6562-18.531-5.6562-12.047 0-18.531 5.6562-6.4688 5.6719-6.4688 16.281 0 6.9688 4 11.797 4.0156 4.8438 11.141 6.5zm-3.6094 15.578q0-5.6562 3.5312-8.8281 3.5469-3.1719 9.9375-3.1719 6.3594 0 9.9375 3.1719 3.5938 3.1719 3.5938 8.8281 0 5.6719-3.5938 8.8438-3.5781 3.1719-9.9375 3.1719-6.3906 0-9.9375-3.1719-3.5312-3.1719-3.5312-8.8438z"/>
</defs>
<g transform="translate(511.15 754.99) scale(.1 -.1)">
<use xlink:href="#c"/>
<use x="63.623047" xlink:href="#g"/>
<use x="95.410156" xlink:href="#ab"/>
</g>
</g>
<g clip-path="url(#a)">
<defs>
<path id="aa" d="m10.984 1.5156v8.9844q3.7188-1.7656 7.5156-2.6875 3.8125-0.92188 7.4844-0.92188 9.7656 0 14.906 6.5625 5.1562 6.5625 5.8906 19.953-2.8281-4.2031-7.1875-6.4531-4.3438-2.25-9.6094-2.25-10.938 0-17.312 6.6094-6.375 6.625-6.375 18.109 0 11.219 6.6406 18 6.6406 6.7969 17.672 6.7969 12.656 0 19.312-9.7031 6.6719-9.6875 6.6719-28.141 0-17.234-8.1875-27.516-8.1719-10.281-21.984-10.281-3.7188 0-7.5312 0.73438-3.7969 0.73438-7.9062 2.2031zm19.625 30.906q6.6406 0 10.516 4.5312 3.8906 4.5469 3.8906 12.469 0 7.8594-3.8906 12.422-3.875 4.5625-10.516 4.5625t-10.516-4.5625-3.875-12.422q0-7.9219 3.875-12.469 3.875-4.5312 10.516-4.5312z"/>
</defs>
<g transform="translate(935.02 343.4) scale(.1 -.1)">
<use xlink:href="#c"/>
<use x="63.623047" xlink:href="#g"/>
<use x="95.410156" xlink:href="#aa"/>
</g>
</g>
<g clip-path="url(#a)">
<defs>
<path id="ad" d="m31.781 66.406q-7.6094 0-11.453-7.5-3.8281-7.4844-3.8281-22.531 0-14.984 3.8281-22.484 3.8438-7.5 11.453-7.5 7.6719 0 11.5 7.5 3.8438 7.5 3.8438 22.484 0 15.047-3.8438 22.531-3.8281 7.5-11.5 7.5zm0 7.8125q12.266 0 18.734-9.7031 6.4688-9.6875 6.4688-28.141 0-18.406-6.4688-28.109-6.4688-9.6875-18.734-9.6875-12.25 0-18.719 9.6875-6.4688 9.7031-6.4688 28.109 0 18.453 6.4688 28.141 6.4688 9.7031 18.719 9.7031z"/>
</defs>
<g transform="translate(1518.9 754.99) scale(.1 -.1)">
<use xlink:href="#c"/>
<use x="63.623047" xlink:href="#g"/>
<use x="95.410156" xlink:href="#c"/>
<use x="159.033203" xlink:href="#ad"/>
</g>
</g>
<g clip-path="url(#a)">
<g transform="translate(1766 754.99) scale(.1 -.1)">
<use xlink:href="#c"/>
<use x="63.623047" xlink:href="#g"/>
<use x="95.410156" xlink:href="#c"/>
<use x="159.033203" xlink:href="#c"/>
</g>
</g>
<g clip-path="url(#a)">
<g transform="translate(1698.6 887.58) scale(.1 -.1)">
<use xlink:href="#c"/>
<use x="63.623047" xlink:href="#g"/>
<use x="95.410156" xlink:href="#c"/>
<use x="159.033203" xlink:href="#n"/>
</g>
</g>
<g clip-path="url(#a)">
<defs>
<path id="q" d="m10.797 72.906h38.719v-8.3125h-29.688v-17.859q2.1406 0.73438 4.2812 1.0938 2.1562 0.35938 4.3125 0.35938 12.203 0 19.328-6.6875 7.1406-6.6875 7.1406-18.109 0-11.766-7.3281-18.297-7.3281-6.5156-20.656-6.5156-4.5938 0-9.3594 0.78125-4.75 0.78125-9.8281 2.3438v9.9219q4.3906-2.3906 9.0781-3.5625t9.9062-1.1719q8.4531 0 13.375 4.4375 4.9375 4.4375 4.9375 12.062 0 7.6094-4.9375 12.047-4.9219 4.4531-13.375 4.4531-3.9531 0-7.8906-0.875-3.9219-0.875-8.0156-2.7344z"/>
</defs>
<g transform="translate(1743.6 887.58) scale(.1 -.1)">
<use xlink:href="#c"/>
<use x="63.623047" xlink:href="#g"/>
<use x="95.410156" xlink:href="#c"/>
<use x="159.033203" xlink:href="#q"/>
</g>
</g>
<g clip-path="url(#a)">
<g transform="translate(1788.5 887.58) scale(.1 -.1)">
<use xlink:href="#c"/>
<use x="63.623047" xlink:href="#g"/>
<use x="95.410156" xlink:href="#c"/>
<use x="159.033203" xlink:href="#ac"/>
</g>
</g>
<g clip-path="url(#a)">
<g transform="translate(1429 887.58) scale(.1 -.1)">
<use xlink:href="#c"/>
<use x="63.623047" xlink:href="#g"/>
<use x="95.410156" xlink:href="#c"/>
<use x="159.033203" xlink:href="#ai"/>
</g>
</g>
<g clip-path="url(#a)">
<g transform="translate(1474 887.58) scale(.1 -.1)">
<use xlink:href="#c"/>
<use x="63.623047" xlink:href="#g"/>
<use x="95.410156" xlink:href="#c"/>
<use x="159.033203" xlink:href="#ab"/>
</g>
</g>
<g clip-path="url(#a)">
<g transform="translate(1518.9 887.58) scale(.1 -.1)">
<use xlink:href="#c"/>
<use x="63.623047" xlink:href="#g"/>
<use x="95.410156" xlink:href="#c"/>
<use x="159.033203" xlink:href="#aa"/>
</g>
</g>
<g clip-path="url(#a)">
<g transform="translate(1608.8 887.58) scale(.1 -.1)">
<use xlink:href="#c"/>
<use x="63.623047" xlink:href="#g"/>
<use x="95.410156" xlink:href="#r"/>
<use x="159.033203" xlink:href="#ad"/>
</g>
</g>
<g clip-path="url(#a)">
<g transform="translate(575.36 887.58) scale(.1 -.1)">
<use xlink:href="#c"/>
<use x="63.623047" xlink:href="#g"/>
<use x="95.410156" xlink:href="#r"/>
<use x="159.033203" xlink:href="#r"/>
</g>
</g>
<g clip-path="url(#a)">
<g transform="translate(710.15 887.58) scale(.1 -.1)">
<use xlink:href="#c"/>
<use x="63.623047" xlink:href="#g"/>
<use x="95.410156" xlink:href="#r"/>
<use x="159.033203" xlink:href="#t"/>
</g>
</g>
<g clip-path="url(#a)">
<g transform="translate(1256.8 620.56) scale(.1 -.1)">
<use xlink:href="#c"/>
<use x="63.623047" xlink:href="#g"/>
<use x="95.410156" xlink:href="#r"/>
<use x="159.033203" xlink:href="#n"/>
</g>
</g>
<g clip-path="url(#a)">
<g transform="translate(1179.1 483.55) scale(.1 -.1)">
<use xlink:href="#c"/>
<use x="63.623047" xlink:href="#g"/>
<use x="95.410156" xlink:href="#r"/>
<use x="159.033203" xlink:href="#q"/>
</g>
</g>
<g clip-path="url(#a)">
<g transform="translate(1069.6 887.58) scale(.1 -.1)">
<use xlink:href="#c"/>
<use x="63.623047" xlink:href="#g"/>
<use x="95.410156" xlink:href="#r"/>
<use x="159.033203" xlink:href="#ab"/>
</g>
</g>
<g clip-path="url(#a)">
<g transform="translate(1114.5 887.58) scale(.1 -.1)">
<use xlink:href="#c"/>
<use x="63.623047" xlink:href="#g"/>
<use x="95.410156" xlink:href="#r"/>
<use x="159.033203" xlink:href="#aa"/>
</g>
</g>
<g clip-path="url(#a)">
<g transform="translate(1372.9 620.56) scale(.1 -.1)">
<use xlink:href="#c"/>
<use x="63.623047" xlink:href="#g"/>
<use x="95.410156" xlink:href="#t"/>
<use x="159.033203" xlink:href="#ad"/>
</g>
</g>
<g clip-path="url(#a)">
<g transform="translate(1406.6 754.99) scale(.1 -.1)">
<use xlink:href="#c"/>
<use x="63.623047" xlink:href="#g"/>
<use x="95.410156" xlink:href="#t"/>
<use x="159.033203" xlink:href="#r"/>
</g>
</g>
<g clip-path="url(#a)">
<g transform="translate(1339.2 887.58) scale(.1 -.1)">
<use xlink:href="#c"/>
<use x="63.623047" xlink:href="#g"/>
<use x="95.410156" xlink:href="#t"/>
<use x="159.033203" xlink:href="#t"/>
</g>
</g>
<g clip-path="url(#a)">
<defs>
<path id="y" d="m9.8125 72.906h9.8594v-72.906h-9.8594z"/>
<path id="aq" d="m9.8125 72.906h14.703l18.594-49.609 18.703 49.609h14.703v-72.906h-9.625v64.016l-18.797-50h-9.9062l-18.797 50v-64.016h-9.5781z"/>
</defs>
<g transform="translate(1868.4 1020.2) scale(.1 -.1)">
<use xlink:href="#y"/>
<use x="29.492188" xlink:href="#aq"/>
<use x="115.771484" xlink:href="#aj"/>
<use x="176.074219" xlink:href="#z"/>
<use x="231.787109" xlink:href="#y"/>
<use x="261.279297" xlink:href="#p"/>
<use x="331.103516" xlink:href="#y"/>
<use x="360.595703" xlink:href="#l"/>
</g>
</g>
<g clip-path="url(#a)">
<g transform="translate(1204.4 887.58) scale(.1 -.1)">
<use xlink:href="#c"/>
<use x="63.623047" xlink:href="#g"/>
<use x="95.410156" xlink:href="#t"/>
<use x="159.033203" xlink:href="#q"/>
</g>
</g>
<g clip-path="url(#a)">
<g transform="translate(1294.2 887.58) scale(.1 -.1)">
<use xlink:href="#c"/>
<use x="63.623047" xlink:href="#g"/>
<use x="95.410156" xlink:href="#t"/>
<use x="159.033203" xlink:href="#ac"/>
</g>
</g>
<g clip-path="url(#a)">
<g transform="translate(1913.3 1020.2) scale(.1 -.1)">
<use xlink:href="#y"/>
<use x="29.492188" xlink:href="#aq"/>
<use x="115.771484" xlink:href="#aj"/>
<use x="176.074219" xlink:href="#z"/>
<use x="231.787109" xlink:href="#y"/>
<use x="261.279297" xlink:href="#p"/>
<use x="331.103516" xlink:href="#y"/>
<use x="360.595703" xlink:href="#l"/>
</g>
</g>
<g clip-path="url(#a)">
<g transform="translate(889.87 887.58) scale(.1 -.1)">
<use xlink:href="#c"/>
<use x="63.623047" xlink:href="#g"/>
<use x="95.410156" xlink:href="#t"/>
<use x="159.033203" xlink:href="#aa"/>
</g>
</g>
<g clip-path="url(#a)">
<g transform="translate(957.27 754.99) scale(.1 -.1)">
<use xlink:href="#c"/>
<use x="63.623047" xlink:href="#g"/>
<use x="95.410156" xlink:href="#n"/>
<use x="159.033203" xlink:href="#ad"/>
</g>
</g>
<g clip-path="url(#a)">
<g transform="translate(934.8 887.58) scale(.1 -.1)">
<use xlink:href="#c"/>
<use x="63.623047" xlink:href="#g"/>
<use x="95.410156" xlink:href="#n"/>
<use x="159.033203" xlink:href="#c"/>
</g>
</g>
<g clip-path="url(#a)">
<g transform="translate(979.74 887.58) scale(.1 -.1)">
<use xlink:href="#c"/>
<use x="63.623047" xlink:href="#g"/>
<use x="95.410156" xlink:href="#n"/>
<use x="159.033203" xlink:href="#r"/>
</g>
</g>
<g clip-path="url(#a)">
<g transform="translate(485.5 887.58) scale(.1 -.1)">
<use xlink:href="#c"/>
<use x="63.623047" xlink:href="#g"/>
<use x="95.410156" xlink:href="#n"/>
<use x="159.033203" xlink:href="#t"/>
</g>
</g>
<g clip-path="url(#a)">
<g transform="translate(530.43 887.58) scale(.1 -.1)">
<use xlink:href="#c"/>
<use x="63.623047" xlink:href="#g"/>
<use x="95.410156" xlink:href="#n"/>
<use x="159.033203" xlink:href="#n"/>
</g>
</g>
<g clip-path="url(#a)">
<g transform="translate(193.45 754.99) scale(.1 -.1)">
<use xlink:href="#c"/>
<use x="63.623047" xlink:href="#g"/>
<use x="95.410156" xlink:href="#n"/>
<use x="159.033203" xlink:href="#q"/>
</g>
</g>
<g clip-path="url(#a)">
<g transform="translate(305.78 887.58) scale(.1 -.1)">
<use xlink:href="#c"/>
<use x="63.623047" xlink:href="#g"/>
<use x="95.410156" xlink:href="#n"/>
<use x="159.033203" xlink:href="#ac"/>
</g>
</g>
<g clip-path="url(#a)">
<g transform="translate(126.06 887.58) scale(.1 -.1)">
<use xlink:href="#c"/>
<use x="63.623047" xlink:href="#g"/>
<use x="95.410156" xlink:href="#n"/>
<use x="159.033203" xlink:href="#ai"/>
</g>
</g>
<g clip-path="url(#a)">
<g transform="translate(170.99 887.58) scale(.1 -.1)">
<use xlink:href="#c"/>
<use x="63.623047" xlink:href="#g"/>
<use x="95.410156" xlink:href="#n"/>
<use x="159.033203" xlink:href="#ab"/>
</g>
</g>
<g clip-path="url(#a)">
<g transform="translate(215.92 887.58) scale(.1 -.1)">
<use xlink:href="#c"/>
<use x="63.623047" xlink:href="#g"/>
<use x="95.410156" xlink:href="#n"/>
<use x="159.033203" xlink:href="#aa"/>
</g>
</g>
<g clip-path="url(#a)">
<g transform="translate(260.85 887.58) scale(.1 -.1)">
<use xlink:href="#c"/>
<use x="63.623047" xlink:href="#g"/>
<use x="95.410156" xlink:href="#q"/>
<use x="159.033203" xlink:href="#ad"/>
</g>
</g>
<g clip-path="url(#a)">
<g transform="translate(844.94 887.58) scale(.1 -.1)">
<use xlink:href="#c"/>
<use x="63.623047" xlink:href="#g"/>
<use x="95.410156" xlink:href="#q"/>
<use x="159.033203" xlink:href="#c"/>
</g>
</g>
<g clip-path="url(#a)">
<g transform="translate(1024.7 887.58) scale(.1 -.1)">
<use xlink:href="#c"/>
<use x="63.623047" xlink:href="#g"/>
<use x="95.410156" xlink:href="#q"/>
<use x="159.033203" xlink:href="#r"/>
</g>
</g>
<g clip-path="url(#a)">
<g transform="translate(1159.5 887.58) scale(.1 -.1)">
<use xlink:href="#c"/>
<use x="63.623047" xlink:href="#g"/>
<use x="95.410156" xlink:href="#q"/>
<use x="159.033203" xlink:href="#t"/>
</g>
</g>
<g clip-path="url(#a)">
<g transform="translate(1249.3 887.58) scale(.1 -.1)">
<use xlink:href="#c"/>
<use x="63.623047" xlink:href="#g"/>
<use x="95.410156" xlink:href="#q"/>
<use x="159.033203" xlink:href="#n"/>
</g>
</g>
<g clip-path="url(#a)">
<g transform="translate(1384.1 887.58) scale(.1 -.1)">
<use xlink:href="#c"/>
<use x="63.623047" xlink:href="#g"/>
<use x="95.410156" xlink:href="#q"/>
<use x="159.033203" xlink:href="#q"/>
</g>
</g>
<g clip-path="url(#a)">
<g transform="translate(1563.8 887.58) scale(.1 -.1)">
<use xlink:href="#c"/>
<use x="63.623047" xlink:href="#g"/>
<use x="95.410156" xlink:href="#q"/>
<use x="159.033203" xlink:href="#ac"/>
</g>
</g>
<g clip-path="url(#a)">
<g transform="translate(1653.7 887.58) scale(.1 -.1)">
<use xlink:href="#c"/>
<use x="63.623047" xlink:href="#g"/>
<use x="95.410156" xlink:href="#q"/>
<use x="159.033203" xlink:href="#ai"/>
</g>
</g>
<g clip-path="url(#a)">
<g transform="translate(1833.4 887.58) scale(.1 -.1)">
<use xlink:href="#c"/>
<use x="63.623047" xlink:href="#g"/>
<use x="95.410156" xlink:href="#q"/>
<use x="159.033203" xlink:href="#ab"/>
</g>
</g>
<defs>
<clipPath id="a">
<rect width="2026.7" height="1066.7"/>
</clipPath>
</defs>
</svg>
