<?xml version="1.0" encoding="UTF-8"?>
<!DOCTYPE svg  PUBLIC '-//W3C//DTD SVG 1.1//EN'  'http://www.w3.org/Graphics/SVG/1.1/DTD/svg11.dtd'>
<svg width="1925.3pt" height="1013.3pt" version="1.1" viewBox="0 0 1925.3 1013.3" xmlns="http://www.w3.org/2000/svg" xmlns:xlink="http://www.w3.org/1999/xlink">
<defs>
<style type="text/css">*{stroke-linecap:butt;stroke-linejoin:round;white-space:pre;}</style>
</defs>
<path d="m0 1013.3h1925.3v-1013.3h-1925.3z" fill="#fff"/>
<g fill="none" stroke="#000">
<path d="m1000.4 46.975-745.62 318.07" clip-path="url(#a)"/>
<path d="m1000.4 46.975-155.98 770.81" clip-path="url(#a)"/>
<path d="m1000.4 46.975 101.97 161.03" clip-path="url(#a)"/>
<path d="m1000.4 46.975 600.78 770.81" clip-path="url(#a)"/>
<path d="m1000.4 46.975 402.13 471.61" clip-path="url(#a)"/>
<path d="m1000.4 46.975-203.28 770.81" clip-path="url(#a)"/>
<path d="m254.79 365.04-143.47 304.17" clip-path="url(#a)"/>
<path d="m254.79 365.04-25.225 452.74" clip-path="url(#a)"/>
<path d="m254.79 365.04 22.072 452.74" clip-path="url(#a)"/>
<path d="m254.79 365.04 219.14 153.54" clip-path="url(#a)"/>
<path d="m254.79 365.04-72.522 452.74" clip-path="url(#a)"/>
<path d="m844.42 817.79v148.57" clip-path="url(#a)"/>
<path d="m1102.4 208.01-163.35 461.21" clip-path="url(#a)"/>
<path d="m1102.4 208.01-45.108 461.21" clip-path="url(#a)"/>
<path d="m1102.4 208.01 208.46 157.04" clip-path="url(#a)"/>
<path d="m1601.2 817.79v148.57" clip-path="url(#a)"/>
<path d="m1402.5 518.58 245.95 299.21" clip-path="url(#a)"/>
<path d="m1402.5 518.58 293.24 299.21" clip-path="url(#a)"/>
<path d="m1402.5 518.58 387.84 150.64" clip-path="url(#a)"/>
<path d="m1402.5 518.58-510.81 299.21" clip-path="url(#a)" stroke-dasharray="3.7,1.6"/>
<path d="m1402.5 518.58-416.22 299.21" clip-path="url(#a)" stroke-dasharray="3.7,1.6"/>
<path d="m1648.5 817.79v148.57" clip-path="url(#a)"/>
<path d="m1695.8 817.79v148.57" clip-path="url(#a)"/>
<path d="m1790.4 669.22-47.297 148.57" clip-path="url(#a)"/>
<path d="m1790.4 669.22v148.57" clip-path="url(#a)"/>
<path d="m1790.4 669.22 47.297 148.57" clip-path="url(#a)"/>
<path d="m1743.1 817.79v148.57" clip-path="url(#a)"/>
<path d="m1790.4 817.79v148.57" clip-path="url(#a)"/>
<path d="m939.02 669.22-47.297 148.57" clip-path="url(#a)"/>
<path d="m939.02 669.22v148.57" clip-path="url(#a)"/>
<path d="m939.02 669.22 47.297 148.57" clip-path="url(#a)"/>
<path d="m1057.3 669.22-23.649 148.57" clip-path="url(#a)"/>
<path d="m1057.3 669.22 23.649 148.57" clip-path="url(#a)"/>
<path d="m1310.8 365.04-111.67 304.17" clip-path="url(#a)"/>
<path d="m1310.8 365.04 6.5691 452.74" clip-path="url(#a)"/>
<path d="m1310.8 365.04 105.1 153.54" clip-path="url(#a)"/>
<path d="m1199.2 669.22-70.946 148.57" clip-path="url(#a)"/>
<path d="m1199.2 669.22-23.649 148.57" clip-path="url(#a)"/>
<path d="m1199.2 669.22 70.946 148.57" clip-path="url(#a)"/>
<path d="m1199.2 669.22 23.649 148.57" clip-path="url(#a)"/>
<path d="m1317.4 817.79v148.57" clip-path="url(#a)"/>
<path d="m1415.9 518.58-51.239 299.21" clip-path="url(#a)"/>
<path d="m1415.9 518.58 51.239 150.64" clip-path="url(#a)"/>
<path d="m1364.7 817.79v148.57" clip-path="url(#a)"/>
<path d="m1467.2 669.22-55.18 148.57" clip-path="url(#a)"/>
<path d="m1467.2 669.22-7.8829 148.57" clip-path="url(#a)"/>
<path d="m1467.2 669.22 63.063 148.57" clip-path="url(#a)"/>
<path d="m1412 817.79v148.57" clip-path="url(#a)"/>
<path d="m1459.3 817.79v148.57" clip-path="url(#a)"/>
<path d="m1530.2 817.79-23.649 148.57" clip-path="url(#a)"/>
<path d="m1530.2 817.79 23.649 148.57" clip-path="url(#a)"/>
<path d="m1128.2 817.79v148.57" clip-path="url(#a)"/>
<path d="m1175.5 817.79v148.57" clip-path="url(#a)"/>
<path d="m1270.1 817.79v148.57" clip-path="url(#a)"/>
<path d="m1033.6 817.79v148.57" clip-path="url(#a)"/>
<path d="m1080.9 817.79v148.57" clip-path="url(#a)"/>
<path d="m891.72 817.79v148.57" clip-path="url(#a)"/>
<path d="m939.02 817.79v148.57" clip-path="url(#a)"/>
<path d="m986.32 817.79v148.57" clip-path="url(#a)"/>
<path d="m111.32 669.22-23.649 148.57" clip-path="url(#a)"/>
<path d="m111.32 669.22 23.649 148.57" clip-path="url(#a)"/>
<path d="m229.56 817.79v148.57" clip-path="url(#a)"/>
<path d="m276.86 817.79v148.57" clip-path="url(#a)"/>
<path d="m473.93 518.58-149.77 299.21" clip-path="url(#a)"/>
<path d="m473.93 518.58-102.48 299.21" clip-path="url(#a)"/>
<path d="m473.93 518.58-55.18 299.21" clip-path="url(#a)"/>
<path d="m473.93 518.58 15.766 150.64" clip-path="url(#a)"/>
<path d="m473.93 518.58 86.712 299.21" clip-path="url(#a)"/>
<path d="m473.93 518.58 204.95 150.64" clip-path="url(#a)"/>
<path d="m324.15 817.79v148.57" clip-path="url(#a)"/>
<path d="m371.45 817.79v148.57" clip-path="url(#a)"/>
<path d="m418.75 817.79v148.57" clip-path="url(#a)"/>
<path d="m489.69 669.22-23.649 148.57" clip-path="url(#a)"/>
<path d="m489.69 669.22 23.649 148.57" clip-path="url(#a)"/>
<path d="m560.64 817.79v148.57" clip-path="url(#a)"/>
<path d="m678.88 669.22-70.946 148.57" clip-path="url(#a)"/>
<path d="m678.88 669.22v148.57" clip-path="url(#a)"/>
<path d="m678.88 669.22 70.946 148.57" clip-path="url(#a)"/>
<path d="m607.94 817.79v148.57" clip-path="url(#a)"/>
<path d="m678.88 817.79-23.649 148.57" clip-path="url(#a)"/>
<path d="m678.88 817.79 23.649 148.57" clip-path="url(#a)"/>
<path d="m749.83 817.79v148.57" clip-path="url(#a)"/>
<path d="m466.05 817.79v148.57" clip-path="url(#a)"/>
<path d="m513.34 817.79v148.57" clip-path="url(#a)"/>
<path d="m87.668 817.79v148.57" clip-path="url(#a)"/>
<path d="m134.97 817.79v148.57" clip-path="url(#a)"/>
<path d="m1368.7 46.975-266.32 161.03" clip-path="url(#a)"/>
<path d="m1368.7 46.975 232.49 770.81" clip-path="url(#a)"/>
<path d="m1368.7 46.975 33.838 471.61" clip-path="url(#a)"/>
<path d="m733.86 46.975-479.07 318.07" clip-path="url(#a)"/>
<path d="m733.86 46.975 110.56 770.81" clip-path="url(#a)"/>
<path d="m733.86 46.975 368.51 161.03" clip-path="url(#a)"/>
<path d="m182.26 817.79v148.57" clip-path="url(#a)"/>
<path d="m797.13 817.79v148.57" clip-path="url(#a)"/>
<path d="m1222.8 817.79v148.57" clip-path="url(#a)"/>
<path d="m1837.7 817.79v148.57" clip-path="url(#a)"/>
</g>
<path d="m627.29 212.96 5.5338-2.3606q2.2075-0.9417 1.2658-3.1492l-3.038-7.1216q-0.9417-2.2075-3.1492-1.2658l-5.5338 2.3606q-2.2075 0.9417-1.2658 3.1492l3.038 7.1216q0.9417 2.2075 3.1492 1.2658z" clip-path="url(#a)" fill="#fff" stroke="#fff"/>
<g clip-path="url(#a)">
<defs>
<path id="ai" d="m9.8125 72.906h9.8594v-29.891h35.844v29.891h9.8594v-72.906h-9.8594v34.719h-35.844v-34.719h-9.8594z"/>
</defs>
<g transform="translate(625.69 209.22) rotate(-23.102) scale(.08 -.08)">
<use xlink:href="#ai"/>
</g>
</g>
<path d="m928.12 435.81 0.88408-4.3689q0.47601-2.3523-1.8763-2.8283l-7.5887-1.5356q-2.3523-0.47601-2.8283 1.8763l-0.88408 4.3689q-0.47601 2.3523 1.8763 2.8283l7.5887 1.5356q2.3523 0.47601 2.8283-1.8763z" clip-path="url(#a)" fill="#fff" stroke="#fff"/>
<g clip-path="url(#a)">
<defs>
<path id="u" d="m9.8125 72.906h9.8594v-64.609h35.5v-8.2969h-45.359z"/>
</defs>
<g transform="translate(924.13 435) rotate(-78.56) scale(.08 -.08)">
<use xlink:href="#u"/>
</g>
</g>
<path d="m1044.5 128.3 3.2185 5.0829q1.2839 2.0277 3.3116 0.74375l6.5414-4.142q2.0277-1.2839 0.74375-3.3116l-3.2185-5.0829q-1.2839-2.0277-3.3116-0.74375l-6.5414 4.142q-2.0277 1.2839-0.74375 3.3116z" clip-path="url(#a)" fill="#fff" stroke="#fff"/>
<g clip-path="url(#a)">
<g transform="translate(1047.9 126.13) rotate(57.658) scale(.08 -.08)">
<use xlink:href="#ai"/>
</g>
</g>
<path d="m1294.5 434.48 2.7402 3.5158q1.4754 1.893 3.3683 0.41757l6.1067-4.7596q1.893-1.4754 0.41757-3.3683l-2.7402-3.5158q-1.4754-1.893-3.3683-0.41757l-6.1067 4.7596q-1.893 1.4754-0.41757 3.3683z" clip-path="url(#a)" fill="#fff" stroke="#fff"/>
<g clip-path="url(#a)">
<g transform="translate(1297.7 431.98) rotate(52.067) scale(.08 -.08)">
<use xlink:href="#u"/>
</g>
</g>
<path d="m1194.7 284.56 3.9035 4.578q1.5572 1.8262 3.3834 0.26904l5.8915-5.0236q1.8262-1.5572 0.26905-3.3834l-3.9035-4.578q-1.5572-1.8262-3.3834-0.26905l-5.8915 5.0236q-1.8262 1.5572-0.26904 3.3834z" clip-path="url(#a)" fill="#fff" stroke="#fff"/>
<g clip-path="url(#a)">
<g transform="translate(1197.8 281.92) rotate(49.547) scale(.08 -.08)">
<use xlink:href="#ai"/>
</g>
</g>
<path d="m904.08 436.81 1.493-5.6614q0.612-2.3207-1.7087-2.9327l-7.4865-1.9743q-2.3207-0.612-2.9327 1.7087l-1.493 5.6614q-0.612 2.3207 1.7087 2.9327l7.4865 1.9743q2.3207 0.612 2.9327-1.7087z" clip-path="url(#a)" fill="#fff" stroke="#fff"/>
<g clip-path="url(#a)">
<defs>
<path id="af" d="m8.6875 72.906h9.9219v-44.297q0-11.719 4.2344-16.875 4.25-5.1406 13.781-5.1406 9.4688 0 13.719 5.1406 4.25 5.1562 4.25 16.875v44.297h9.9062v-45.516q0-14.25-7.0625-21.531-7.0469-7.2812-20.812-7.2812-13.828 0-20.891 7.2812-7.0469 7.2812-7.0469 21.531z"/>
</defs>
<g transform="translate(900.15 435.78) rotate(-75.227) scale(.08 -.08)">
<use xlink:href="#af"/>
</g>
</g>
<path d="m187.41 522.59 2.6278-5.5714q1.0238-2.1707-1.1468-3.1945l-7.0027-3.3029q-2.1707-1.0238-3.1945 1.1468l-2.6278 5.5714q-1.0238 2.1707 1.1468 3.1945l7.0027 3.3029q2.1707 1.0238 3.1945-1.1468z" clip-path="url(#a)" fill="#fff" stroke="#fff"/>
<g clip-path="url(#a)">
<defs>
<path id="ao" d="m19.672 64.797v-56.688h11.922q15.094 0 22.094 6.8281 7 6.8438 7 21.594 0 14.641-7 21.453t-22.094 6.8125zm-9.8594 8.1094h20.266q21.188 0 31.094-8.8125 9.9219-8.8125 9.9219-27.562 0-18.859-9.9688-27.703-9.9531-8.8281-31.047-8.8281h-20.266z"/>
</defs>
<g transform="translate(183.73 520.86) rotate(-64.748) scale(.08 -.08)">
<use xlink:href="#ao"/>
</g>
</g>
<path d="m248.28 594.5 0.30443-5.464q0.13351-2.3963-2.2628-2.5298l-7.7305-0.43072q-2.3963-0.13351-2.5298 2.2628l-0.30444 5.464q-0.13351 2.3963 2.2628 2.5298l7.7305 0.43071q2.3963 0.13351 2.5298-2.2628z" clip-path="url(#a)" fill="#fff" stroke="#fff"/>
<g clip-path="url(#a)">
<defs>
<path id="p" d="m34.188 63.188-13.391-36.281h26.812zm-5.5781 9.7188h11.188l27.781-72.906h-10.25l-6.6406 18.703h-32.859l-6.6406-18.703h-10.406z"/>
</defs>
<g transform="translate(244.22 594.27) rotate(-86.811) scale(.08 -.08)">
<use xlink:href="#p"/>
</g>
</g>
<path d="m259.43 589.19 0.2473 5.0727q0.11686 2.3972 2.514 2.2803l7.7333-0.37701q2.3972-0.11686 2.2803-2.514l-0.2473-5.0727q-0.11686-2.3972-2.514-2.2803l-7.7333 0.37701q-2.3972 0.11686-2.2803 2.514z" clip-path="url(#a)" fill="#fff" stroke="#fff"/>
<g clip-path="url(#a)">
<defs>
<path id="at" d="m53.516 70.516v-9.625q-5.6094 2.6875-10.594 4-4.9844 1.3281-9.625 1.3281-8.0469 0-12.422-3.125t-4.375-8.8906q0-4.8438 2.9062-7.3125 2.9062-2.4531 11.016-3.9688l5.9531-1.2188q11.031-2.1094 16.281-7.4062t5.25-14.172q0-10.609-7.1094-16.078-7.0938-5.4688-20.812-5.4688-5.1719 0-11.016 1.1719-5.8281 1.1719-12.078 3.4688v10.156q6-3.3594 11.766-5.0781 5.7656-1.7031 11.328-1.7031 8.4375 0 13.031 3.3125 4.5938 3.3281 4.5938 9.4844 0 5.3594-3.2969 8.3906t-10.812 4.5469l-6.0156 1.1719q-11.031 2.1875-15.969 6.875-4.9219 4.6875-4.9219 13.047 0 9.6719 6.8125 15.234t18.766 5.5625q5.1406 0 10.453-0.9375 5.3281-0.92188 10.891-2.7656z"/>
</defs>
<g transform="translate(263.49 588.99) rotate(87.209) scale(.08 -.08)">
<use xlink:href="#at"/>
</g>
</g>
<path d="m358.52 445.38 4.4819 3.1402q1.9656 1.3771 3.3427-0.58845l4.4427-6.341q1.3771-1.9656-0.58845-3.3427l-4.4819-3.1402q-1.9656-1.3771-3.3427 0.58845l-4.4427 6.341q-1.3771 1.9656 0.58845 3.3427z" clip-path="url(#a)" fill="#fff" stroke="#fff"/>
<g clip-path="url(#a)">
<g transform="translate(360.85 442.05) rotate(35.016) scale(.08 -.08)">
<use xlink:href="#p"/>
</g>
</g>
<path d="m224.25 595.3 0.92607-5.7813q0.3796-2.3698-1.9902-2.7494l-7.645-1.2246q-2.3698-0.3796-2.7494 1.9902l-0.92607 5.7813q-0.3796 2.3698 1.9902 2.7494l7.645 1.2246q2.3698 0.3796 2.7494-1.9902z" clip-path="url(#a)" fill="#fff" stroke="#fff"/>
<g clip-path="url(#a)">
<g transform="translate(220.24 594.66) rotate(-80.899) scale(.08 -.08)">
<use xlink:href="#af"/>
</g>
</g>
<path d="m838.15 874.43v35.285q0 2.4 2.4 2.4h7.7425q2.4 0 2.4-2.4v-35.285q0-2.4-2.4-2.4h-7.7425q-2.4 0-2.4 2.4z" clip-path="url(#a)" fill="#fff" stroke="#fff"/>
<g clip-path="url(#a)">
<defs>
<path id="l" d="m-0.29688 72.906h61.672v-8.3125h-25.875v-64.594h-9.9062v64.594h-25.891z"/>
<path id="f" d="m56.203 29.594v-4.3906h-41.312q0.59375-9.2812 5.5938-14.141t13.938-4.8594q5.1719 0 10.031 1.2656t9.6562 3.8125v-8.5q-4.8438-2.0469-9.9219-3.125t-10.297-1.0781q-13.094 0-20.734 7.6094-7.6406 7.625-7.6406 20.625 0 13.422 7.25 21.297 7.25 7.8906 19.562 7.8906 11.031 0 17.453-7.1094 6.4219-7.0938 6.4219-19.297zm-8.9844 2.6406q-0.09375 7.3594-4.125 11.75-4.0312 4.4062-10.672 4.4062-7.5156 0-12.031-4.25t-5.2031-11.969z"/>
<path id="g" d="m41.109 46.297q-1.5156 0.875-3.2969 1.2812-1.7812 0.42188-3.9219 0.42188-7.625 0-11.703-4.9531t-4.0781-14.234v-28.812h-9.0312v54.688h9.0312v-8.5q2.8438 4.9844 7.375 7.3906 4.5469 2.4219 11.047 2.4219 0.92188 0 2.0469-0.125 1.125-0.10938 2.4844-0.35938z"/>
<path id="k" d="m52 44.188q3.375 6.0625 8.0625 8.9375t11.031 2.875q8.5469 0 13.188-5.9844 4.6406-5.9688 4.6406-17v-33.016h-9.0312v32.719q0 7.8594-2.7969 11.656-2.7812 3.8125-8.4844 3.8125-6.9844 0-11.047-4.6406-4.0469-4.625-4.0469-12.641v-30.906h-9.0312v32.719q0 7.9062-2.7812 11.688t-8.5938 3.7812q-6.8906 0-10.953-4.6562-4.0469-4.6562-4.0469-12.625v-30.906h-9.0312v54.688h9.0312v-8.5q3.0781 5.0312 7.375 7.4219t10.203 2.3906q5.9688 0 10.141-3.0312 4.1719-3.0156 6.1719-8.7812z"/>
<path id="h" d="m9.4219 54.688h8.9844v-54.688h-8.9844zm0 21.297h8.9844v-11.391h-8.9844z"/>
<path id="i" d="m54.891 33.016v-33.016h-8.9844v32.719q0 7.7656-3.0312 11.609-3.0312 3.8594-9.0781 3.8594-7.2812 0-11.484-4.6406-4.2031-4.625-4.2031-12.641v-30.906h-9.0312v54.688h9.0312v-8.5q3.2344 4.9375 7.5938 7.375 4.375 2.4375 10.094 2.4375 9.4219 0 14.25-5.8281 4.8438-5.8281 4.8438-17.156z"/>
<path id="e" d="m34.281 27.484q-10.891 0-15.094-2.4844t-4.2031-8.5q0-4.7812 3.1562-7.5938 3.1562-2.7969 8.5625-2.7969 7.4844 0 12 5.2969t4.5156 14.078v2zm17.922 3.7188v-31.203h-8.9844v8.2969q-3.0781-4.9688-7.6719-7.3438t-11.234-2.375q-8.3906 0-13.359 4.7188-4.9531 4.7188-4.9531 12.625 0 9.2188 6.1719 13.906 6.1875 4.6875 18.438 4.6875h12.609v0.89062q0 6.2031-4.0781 9.5938t-11.453 3.3906q-4.6875 0-9.1406-1.125-4.4375-1.125-8.5312-3.375v8.3125q4.9219 1.9062 9.5625 2.8438 4.6406 0.95312 9.0312 0.95312 11.875 0 17.734-6.1562 5.8594-6.1406 5.8594-18.641z"/>
<path id="j" d="m9.4219 75.984h8.9844v-75.984h-8.9844z"/>
</defs>
<g transform="translate(842.22 874.43) rotate(90) scale(.08 -.08)">
<use xlink:href="#l"/>
<use x="60.818359" xlink:href="#f"/>
<use x="122.341797" xlink:href="#g"/>
<use x="163.439453" xlink:href="#k"/>
<use x="260.851562" xlink:href="#h"/>
<use x="288.634766" xlink:href="#i"/>
<use x="352.013672" xlink:href="#e"/>
<use x="413.292969" xlink:href="#j"/>
</g>
</g>
<path d="m1025.7 443.29 1.827-5.1585q0.80126-2.2623-1.461-3.0636l-7.2983-2.5849q-2.2623-0.80126-3.0636 1.461l-1.827 5.1585q-0.80126 2.2623 1.461 3.0636l7.2983 2.5849q2.2623 0.80126 3.0636-1.461z" clip-path="url(#a)" fill="#fff" stroke="#fff"/>
<g clip-path="url(#a)">
<g transform="translate(1021.9 441.93) rotate(-70.497) scale(.08 -.08)">
<use xlink:href="#p"/>
</g>
</g>
<path d="m1085.8 441.62 0.46953-4.8008q0.23361-2.3886-2.155-2.6222l-7.7057-0.75364q-2.3886-0.23361-2.6222 2.155l-0.46954 4.8008q-0.23361 2.3886 2.155 2.6222l7.7057 0.75364q2.3886 0.23361 2.6222-2.155z" clip-path="url(#a)" fill="#fff" stroke="#fff"/>
<g clip-path="url(#a)">
<defs>
<path id="ag" d="m19.672 64.797v-27.391h12.406q6.8906 0 10.641 3.5625 3.7656 3.5625 3.7656 10.156 0 6.5469-3.7656 10.109-3.75 3.5625-10.641 3.5625zm-9.8594 8.1094h22.266q12.266 0 18.531-5.5469 6.2812-5.5469 6.2812-16.234 0-10.797-6.2812-16.312-6.2656-5.5156-18.531-5.5156h-12.406v-29.297h-9.8594z"/>
</defs>
<g transform="translate(1081.8 441.23) rotate(-84.414) scale(.08 -.08)">
<use xlink:href="#ag"/>
</g>
</g>
<path d="m1200.6 289.89 4.371 3.2928q1.9169 1.4441 3.361-0.47287l4.6586-6.1841q1.4441-1.9169-0.47287-3.361l-4.371-3.2928q-1.9169-1.4441-3.361 0.47287l-4.6586 6.1841q-1.4441 1.9169 0.47287 3.361z" clip-path="url(#a)" fill="#fff" stroke="#fff"/>
<g clip-path="url(#a)">
<g transform="translate(1203.1 286.64) rotate(36.991) scale(.08 -.08)">
<use xlink:href="#p"/>
</g>
</g>
<path d="m1594.9 874.43v35.285q0 2.4 2.4 2.4h7.7425q2.4 0 2.4-2.4v-35.285q0-2.4-2.4-2.4h-7.7425q-2.4 0-2.4 2.4z" clip-path="url(#a)" fill="#fff" stroke="#fff"/>
<g clip-path="url(#a)">
<g transform="translate(1599 874.43) rotate(90) scale(.08 -.08)">
<use xlink:href="#l"/>
<use x="60.818359" xlink:href="#f"/>
<use x="122.341797" xlink:href="#g"/>
<use x="163.439453" xlink:href="#k"/>
<use x="260.851562" xlink:href="#h"/>
<use x="288.634766" xlink:href="#i"/>
<use x="352.013672" xlink:href="#e"/>
<use x="413.292969" xlink:href="#j"/>
</g>
</g>
<path d="m1519.1 670.3 3.0631 3.7264q1.524 1.854 3.378 0.33003l5.9812-4.9165q1.854-1.524 0.33003-3.378l-3.0631-3.7264q-1.524-1.854-3.378-0.33003l-5.9812 4.9165q-1.854 1.524-0.33003 3.378z" clip-path="url(#a)" fill="#fff" stroke="#fff"/>
<g clip-path="url(#a)">
<g transform="translate(1522.3 667.72) rotate(50.58) scale(.08 -.08)">
<use xlink:href="#ag"/>
</g>
</g>
<path d="m1542.8 670.62 3.8305 3.9084q1.6799 1.7141 3.3939 0.034168l5.5296-5.4194q1.7141-1.6799 0.034167-3.3939l-3.8305-3.9084q-1.6799-1.7141-3.3939-0.034168l-5.5296 5.4194q-1.7141 1.6799-0.034167 3.3939z" clip-path="url(#a)" fill="#fff" stroke="#fff"/>
<g clip-path="url(#a)">
<g transform="translate(1545.7 667.78) rotate(45.577) scale(.08 -.08)">
<use xlink:href="#p"/>
</g>
</g>
<path d="m1591.6 598.75 5.1012 1.9813q2.2372 0.86893 3.1061-1.3683l2.8032-7.2172q0.86893-2.2372-1.3683-3.1061l-5.1012-1.9813q-2.2372-0.86893-3.1061 1.3683l-2.8032 7.2172q-0.86892 2.2372 1.3683 3.1061z" clip-path="url(#a)" fill="#fff" stroke="#fff"/>
<g clip-path="url(#a)">
<g transform="translate(1593.1 594.97) rotate(21.226) scale(.08 -.08)">
<use xlink:href="#p"/>
</g>
</g>
<path d="m1147.9 674.98 4.7221-2.7659q2.0709-1.213 0.85786-3.2839l-3.9133-6.6808q-1.213-2.0709-3.2839-0.85786l-4.7221 2.7659q-2.0709 1.213-0.85786 3.2839l3.9133 6.6808q1.213 2.0709 3.2839 0.85786z" clip-path="url(#a)" fill="#fff" stroke="#fff"/>
<g clip-path="url(#a)">
<g transform="translate(1145.9 671.47) rotate(-30.36) scale(.08 -.08)">
<use xlink:href="#p"/>
</g>
</g>
<path d="m1195.9 674.87 4.4435-3.1943q1.9487-1.4009 0.54783-3.3496l-4.5193-6.2867q-1.4009-1.9487-3.3496-0.54783l-4.4435 3.1943q-1.9487 1.4009-0.54783 3.3496l4.5193 6.2867q1.4009 1.9487 3.3496 0.54783z" clip-path="url(#a)" fill="#fff" stroke="#fff"/>
<g clip-path="url(#a)">
<g transform="translate(1193.5 671.57) rotate(-35.711) scale(.08 -.08)">
<use xlink:href="#p"/>
</g>
</g>
<path d="m1642.2 874.43v35.285q0 2.4 2.4 2.4h7.7425q2.4 0 2.4-2.4v-35.285q0-2.4-2.4-2.4h-7.7425q-2.4 0-2.4 2.4z" clip-path="url(#a)" fill="#fff" stroke="#fff"/>
<g clip-path="url(#a)">
<g transform="translate(1646.3 874.43) rotate(90) scale(.08 -.08)">
<use xlink:href="#l"/>
<use x="60.818359" xlink:href="#f"/>
<use x="122.341797" xlink:href="#g"/>
<use x="163.439453" xlink:href="#k"/>
<use x="260.851562" xlink:href="#h"/>
<use x="288.634766" xlink:href="#i"/>
<use x="352.013672" xlink:href="#e"/>
<use x="413.292969" xlink:href="#j"/>
</g>
</g>
<path d="m1689.5 874.43v35.285q0 2.4 2.4 2.4h7.7425q2.4 0 2.4-2.4v-35.285q0-2.4-2.4-2.4h-7.7425q-2.4 0-2.4 2.4z" clip-path="url(#a)" fill="#fff" stroke="#fff"/>
<g clip-path="url(#a)">
<g transform="translate(1693.6 874.43) rotate(90) scale(.08 -.08)">
<use xlink:href="#l"/>
<use x="60.818359" xlink:href="#f"/>
<use x="122.341797" xlink:href="#g"/>
<use x="163.439453" xlink:href="#k"/>
<use x="260.851562" xlink:href="#h"/>
<use x="288.634766" xlink:href="#i"/>
<use x="352.013672" xlink:href="#e"/>
<use x="413.292969" xlink:href="#j"/>
</g>
</g>
<path d="m1771.9 748.05 1.6862-5.2968q0.72804-2.2869-1.5589-3.0149l-7.3777-2.3487q-2.2869-0.72804-3.0149 1.5589l-1.6862 5.2968q-0.72804 2.2869 1.5589 3.0149l7.3777 2.3487q2.2869 0.72804 3.0149-1.5589z" clip-path="url(#a)" fill="#fff" stroke="#fff"/>
<g clip-path="url(#a)">
<defs>
<path id="t" d="m44.391 34.188q3.1719-1.0781 6.1719-4.5938t6.0312-9.6719l10.016-19.922h-10.609l-9.3125 18.703q-3.625 7.3281-7.0156 9.7188t-9.25 2.3906h-10.75v-30.812h-9.8594v72.906h22.266q12.5 0 18.656-5.2344 6.1562-5.2188 6.1562-15.766 0-6.8906-3.2031-11.438-3.2031-4.5312-9.2969-6.2812zm-24.719 30.609v-25.875h12.406q7.125 0 10.766 3.2969t3.6406 9.6875-3.6406 9.6406-10.766 3.25z"/>
</defs>
<g transform="translate(1768 746.82) rotate(-72.341) scale(.08 -.08)">
<use xlink:href="#t"/>
</g>
</g>
<path d="m1784.1 740.71v5.5862q0 2.4 2.4 2.4h7.7425q2.4 0 2.4-2.4v-5.5862q0-2.4-2.4-2.4h-7.7425q-2.4 0-2.4 2.4z" clip-path="url(#a)" fill="#fff" stroke="#fff"/>
<g clip-path="url(#a)">
<defs>
<path id="r" d="m64.406 67.281v-10.391q-4.9844 4.6406-10.625 6.9219-5.6406 2.2969-11.984 2.2969-12.5 0-19.141-7.6406t-6.6406-22.094q0-14.406 6.6406-22.047t19.141-7.6406q6.3438 0 11.984 2.2969t10.625 6.9375v-10.312q-5.1719-3.5156-10.969-5.2812-5.7812-1.75-12.219-1.75-16.562 0-26.094 10.125-9.5156 10.141-9.5156 27.672 0 17.578 9.5156 27.703 9.5312 10.141 26.094 10.141 6.5312 0 12.312-1.7344 5.7969-1.7344 10.875-5.2031z"/>
</defs>
<g transform="translate(1788.2 740.71) rotate(90) scale(.08 -.08)">
<use xlink:href="#r"/>
</g>
</g>
<path d="m1807.2 742.62 1.7761 5.5791q0.72804 2.2869 3.0149 1.5589l7.3777-2.3487q2.2869-0.72804 1.5589-3.0149l-1.7761-5.5791q-0.72804-2.2869-3.0149-1.5589l-7.3777 2.3487q-2.2869 0.72804-1.5589 3.0149z" clip-path="url(#a)" fill="#fff" stroke="#fff"/>
<g clip-path="url(#a)">
<g transform="translate(1811 741.38) rotate(72.341) scale(.08 -.08)">
<use xlink:href="#af"/>
</g>
</g>
<path d="m1736.8 874.43v35.285q0 2.4 2.4 2.4h7.7425q2.4 0 2.4-2.4v-35.285q0-2.4-2.4-2.4h-7.7425q-2.4 0-2.4 2.4z" clip-path="url(#a)" fill="#fff" stroke="#fff"/>
<g clip-path="url(#a)">
<g transform="translate(1740.9 874.43) rotate(90) scale(.08 -.08)">
<use xlink:href="#l"/>
<use x="60.818359" xlink:href="#f"/>
<use x="122.341797" xlink:href="#g"/>
<use x="163.439453" xlink:href="#k"/>
<use x="260.851562" xlink:href="#h"/>
<use x="288.634766" xlink:href="#i"/>
<use x="352.013672" xlink:href="#e"/>
<use x="413.292969" xlink:href="#j"/>
</g>
</g>
<path d="m1784.1 874.43v35.285q0 2.4 2.4 2.4h7.7425q2.4 0 2.4-2.4v-35.285q0-2.4-2.4-2.4h-7.7425q-2.4 0-2.4 2.4z" clip-path="url(#a)" fill="#fff" stroke="#fff"/>
<g clip-path="url(#a)">
<g transform="translate(1788.2 874.43) rotate(90) scale(.08 -.08)">
<use xlink:href="#l"/>
<use x="60.818359" xlink:href="#f"/>
<use x="122.341797" xlink:href="#g"/>
<use x="163.439453" xlink:href="#k"/>
<use x="260.851562" xlink:href="#h"/>
<use x="288.634766" xlink:href="#i"/>
<use x="352.013672" xlink:href="#e"/>
<use x="413.292969" xlink:href="#j"/>
</g>
</g>
<path d="m920.5 748.07 1.6946-5.323q0.72804-2.2869-1.5589-3.0149l-7.3777-2.3487q-2.2869-0.72804-3.0149 1.5589l-1.6946 5.323q-0.72804 2.2869 1.5589 3.0149l7.3777 2.3487q2.2869 0.72804 3.0149-1.5589z" clip-path="url(#a)" fill="#fff" stroke="#fff"/>
<g clip-path="url(#a)">
<g transform="translate(916.63 746.83) rotate(-72.341) scale(.08 -.08)">
<use xlink:href="#r"/>
</g>
</g>
<path d="m932.75 740.51v5.985q0 2.4 2.4 2.4h7.7425q2.4 0 2.4-2.4v-5.985q0-2.4-2.4-2.4h-7.7425q-2.4 0-2.4 2.4z" clip-path="url(#a)" fill="#fff" stroke="#fff"/>
<g clip-path="url(#a)">
<defs>
<path id="ah" d="m9.8125 72.906h13.281l32.328-60.984v60.984h9.5625v-72.906h-13.281l-32.312 60.984v-60.984h-9.5781z"/>
</defs>
<g transform="translate(936.81 740.51) rotate(90) scale(.08 -.08)">
<use xlink:href="#ah"/>
</g>
</g>
<path d="m955.84 742.74 1.6946 5.323q0.72804 2.2869 3.0149 1.5589l7.3777-2.3487q2.2869-0.72804 1.5589-3.0149l-1.6946-5.323q-0.72804-2.2869-3.0149-1.5589l-7.3777 2.3487q-2.2869 0.72804-1.5589 3.0149z" clip-path="url(#a)" fill="#fff" stroke="#fff"/>
<g clip-path="url(#a)">
<g transform="translate(959.72 741.51) rotate(72.341) scale(.08 -.08)">
<use xlink:href="#r"/>
</g>
</g>
<path d="m1051.2 747.25 0.87814-5.5168q0.37727-2.3702-1.9929-2.7474l-7.6462-1.2171q-2.3702-0.37727-2.7474 1.9929l-0.87814 5.5168q-0.37727 2.3702 1.9929 2.7474l7.6462 1.2171q2.3702 0.37727 2.7474-1.9929z" clip-path="url(#a)" fill="#fff" stroke="#fff"/>
<g clip-path="url(#a)">
<g transform="translate(1047.2 746.61) rotate(-80.956) scale(.08 -.08)">
<use xlink:href="#r"/>
</g>
</g>
<path d="m1062.5 741.74 0.87381 5.4896q0.37727 2.3702 2.7474 1.9929l7.6462-1.2171q2.3702-0.37727 1.9929-2.7474l-0.87381-5.4896q-0.37727-2.3702-2.7474-1.9929l-7.6462 1.2171q-2.3702 0.37727-1.9929 2.7474z" clip-path="url(#a)" fill="#fff" stroke="#fff"/>
<g clip-path="url(#a)">
<g transform="translate(1066.5 741.11) rotate(80.956) scale(.08 -.08)">
<use xlink:href="#t"/>
</g>
</g>
<path d="m1259.8 522.18 2.123-5.7826q0.82715-2.253-1.4258-3.0801l-7.2681-2.6684q-2.253-0.82715-3.0801 1.4258l-2.123 5.7826q-0.82715 2.253 1.4258 3.0801l7.2681 2.6684q2.253 0.82715 3.0801-1.4258z" clip-path="url(#a)" fill="#fff" stroke="#fff"/>
<g clip-path="url(#a)">
<g transform="translate(1256 520.78) rotate(-69.84) scale(.08 -.08)">
<use xlink:href="#ao"/>
</g>
</g>
<path d="m1307.8 589.1 0.069983 4.8232q0.034819 2.3997 2.4346 2.3649l7.7417-0.11233q2.3997-0.034819 2.3649-2.4346l-0.069983-4.8232q-0.034819-2.3997-2.4346-2.3649l-7.7417 0.11233q-2.3997 0.034819-2.3649 2.4346z" clip-path="url(#a)" fill="#fff" stroke="#fff"/>
<g clip-path="url(#a)">
<g transform="translate(1311.9 589.04) rotate(89.169) scale(.08 -.08)">
<use xlink:href="#ag"/>
</g>
</g>
<path d="m1356.7 443.1 3.0913 4.5158q1.3557 1.9804 3.3361 0.62471l6.3889-4.3736q1.9804-1.3557 0.62471-3.3361l-3.0913-4.5158q-1.3557-1.9804-3.3361-0.62471l-6.3889 4.3736q-1.9804 1.3557-0.62471 3.3361z" clip-path="url(#a)" fill="#fff" stroke="#fff"/>
<g clip-path="url(#a)">
<g transform="translate(1360 440.8) rotate(55.606) scale(.08 -.08)">
<use xlink:href="#p"/>
</g>
</g>
<path d="m1168.2 748.49 2.1783-4.5616q1.0342-2.1657-1.1315-3.1999l-6.9868-3.3364q-2.1657-1.0342-3.1999 1.1315l-2.1783 4.5616q-1.0342 2.1657 1.1315 3.1999l6.9868 3.3364q2.1657 1.0342 3.1999-1.1315z" clip-path="url(#a)" fill="#fff" stroke="#fff"/>
<g clip-path="url(#a)">
<defs>
<path id="x" d="m9.8125 72.906h46.094v-8.3125h-36.234v-21.578h34.719v-8.2969h-34.719v-26.422h37.109v-8.2969h-46.969z"/>
</defs>
<g transform="translate(1164.6 746.74) rotate(-64.474) scale(.08 -.08)">
<use xlink:href="#x"/>
</g>
</g>
<path d="m1193.1 746.99 0.79462-4.9922q0.37727-2.3702-1.9929-2.7474l-7.6462-1.2171q-2.3702-0.37727-2.7474 1.9929l-0.79462 4.9922q-0.37727 2.3702 1.9929 2.7474l7.6462 1.2171q2.3702 0.37727 2.7474-1.9929z" clip-path="url(#a)" fill="#fff" stroke="#fff"/>
<g clip-path="url(#a)">
<g transform="translate(1189.1 746.35) rotate(-80.956) scale(.08 -.08)">
<use xlink:href="#x"/>
</g>
</g>
<path d="m1227.8 743.69 2.4072 5.041q1.0342 2.1657 3.1999 1.1315l6.9868-3.3364q2.1657-1.0342 1.1315-3.1999l-2.4072-5.041q-1.0342-2.1657-3.1999-1.1315l-6.9868 3.3364q-2.1657 1.0342-1.1315 3.1999z" clip-path="url(#a)" fill="#fff" stroke="#fff"/>
<g clip-path="url(#a)">
<g transform="translate(1231.4 741.93) rotate(64.474) scale(.08 -.08)">
<use xlink:href="#r"/>
</g>
</g>
<path d="m1204.3 741.6 0.92038 5.7822q0.37727 2.3702 2.7474 1.9929l7.6462-1.2171q2.3702-0.37727 1.9929-2.7474l-0.92038-5.7822q-0.37727-2.3702-2.7474-1.9929l-7.6462 1.2171q-2.3702 0.37727-1.9929 2.7474z" clip-path="url(#a)" fill="#fff" stroke="#fff"/>
<g clip-path="url(#a)">
<g transform="translate(1208.3 740.96) rotate(80.956) scale(.08 -.08)">
<use xlink:href="#af"/>
</g>
</g>
<path d="m1311.1 874.43v35.285q0 2.4 2.4 2.4h7.7425q2.4 0 2.4-2.4v-35.285q0-2.4-2.4-2.4h-7.7425q-2.4 0-2.4 2.4z" clip-path="url(#a)" fill="#fff" stroke="#fff"/>
<g clip-path="url(#a)">
<g transform="translate(1315.2 874.43) rotate(90) scale(.08 -.08)">
<use xlink:href="#l"/>
<use x="60.818359" xlink:href="#f"/>
<use x="122.341797" xlink:href="#g"/>
<use x="163.439453" xlink:href="#k"/>
<use x="260.851562" xlink:href="#h"/>
<use x="288.634766" xlink:href="#i"/>
<use x="352.013672" xlink:href="#e"/>
<use x="413.292969" xlink:href="#j"/>
</g>
</g>
<path d="m1396 671.98 0.93827-5.479q0.4051-2.3656-1.9605-2.7707l-7.6314-1.3069q-2.3656-0.4051-2.7707 1.9605l-0.93827 5.479q-0.4051 2.3656 1.9605 2.7707l7.6314 1.3069q2.3656 0.4051 2.7707-1.9605z" clip-path="url(#a)" fill="#fff" stroke="#fff"/>
<g clip-path="url(#a)">
<g transform="translate(1392 671.3) rotate(-80.282) scale(.08 -.08)">
<use xlink:href="#t"/>
</g>
</g>
<path d="m1434.7 593.28 1.7989 5.2887q0.77286 2.2722 3.045 1.4993l7.3301-2.4933q2.2722-0.77287 1.4993-3.045l-1.7989-5.2887q-0.77286-2.2722-3.045-1.4993l-7.3301 2.4933q-2.2722 0.77286-1.4993 3.045z" clip-path="url(#a)" fill="#fff" stroke="#fff"/>
<g clip-path="url(#a)">
<g transform="translate(1438.6 591.97) rotate(71.214) scale(.08 -.08)">
<use xlink:href="#r"/>
</g>
</g>
<path d="m1358.4 874.43v35.285q0 2.4 2.4 2.4h7.7425q2.4 0 2.4-2.4v-35.285q0-2.4-2.4-2.4h-7.7425q-2.4 0-2.4 2.4z" clip-path="url(#a)" fill="#fff" stroke="#fff"/>
<g clip-path="url(#a)">
<g transform="translate(1362.5 874.43) rotate(90) scale(.08 -.08)">
<use xlink:href="#l"/>
<use x="60.818359" xlink:href="#f"/>
<use x="122.341797" xlink:href="#g"/>
<use x="163.439453" xlink:href="#k"/>
<use x="260.851562" xlink:href="#h"/>
<use x="288.634766" xlink:href="#i"/>
<use x="352.013672" xlink:href="#e"/>
<use x="413.292969" xlink:href="#j"/>
</g>
</g>
<path d="m1444.5 748.31 1.945-5.2367q0.83561-2.2498-1.4142-3.0854l-7.2581-2.6957q-2.2498-0.83561-3.0854 1.4142l-1.945 5.2367q-0.83561 2.2498 1.4142 3.0854l7.2581 2.6957q2.2498 0.83561 3.0854-1.4142z" clip-path="url(#a)" fill="#fff" stroke="#fff"/>
<g clip-path="url(#a)">
<g transform="translate(1440.7 746.89) rotate(-69.625) scale(.08 -.08)">
<use xlink:href="#r"/>
</g>
</g>
<path d="m1469.3 746.82 0.31711-5.9766q0.12716-2.3966-2.2695-2.5238l-7.7316-0.41023q-2.3966-0.12716-2.5238 2.2695l-0.31711 5.9766q-0.12716 2.3966 2.2695 2.5238l7.7316 0.41023q2.3966 0.12716 2.5238-2.2695z" clip-path="url(#a)" fill="#fff" stroke="#fff"/>
<g clip-path="url(#a)">
<g transform="translate(1465.3 746.61) rotate(-86.963) scale(.08 -.08)">
<use xlink:href="#ah"/>
</g>
</g>
<path d="m1491.8 743.38 2.1827 5.1422q0.93774 2.2092 3.147 1.2715l7.127-3.0252q2.2092-0.93774 1.2715-3.147l-2.1827-5.1422q-0.93774-2.2092-3.147-1.2715l-7.127 3.0252q-2.2092 0.93774-1.2715 3.147z" clip-path="url(#a)" fill="#fff" stroke="#fff"/>
<g clip-path="url(#a)">
<g transform="translate(1495.6 741.79) rotate(67) scale(.08 -.08)">
<use xlink:href="#r"/>
</g>
</g>
<path d="m1405.7 874.43v35.285q0 2.4 2.4 2.4h7.7425q2.4 0 2.4-2.4v-35.285q0-2.4-2.4-2.4h-7.7425q-2.4 0-2.4 2.4z" clip-path="url(#a)" fill="#fff" stroke="#fff"/>
<g clip-path="url(#a)">
<g transform="translate(1409.8 874.43) rotate(90) scale(.08 -.08)">
<use xlink:href="#l"/>
<use x="60.818359" xlink:href="#f"/>
<use x="122.341797" xlink:href="#g"/>
<use x="163.439453" xlink:href="#k"/>
<use x="260.851562" xlink:href="#h"/>
<use x="288.634766" xlink:href="#i"/>
<use x="352.013672" xlink:href="#e"/>
<use x="413.292969" xlink:href="#j"/>
</g>
</g>
<path d="m1453 874.43v35.285q0 2.4 2.4 2.4h7.7425q2.4 0 2.4-2.4v-35.285q0-2.4-2.4-2.4h-7.7425q-2.4 0-2.4 2.4z" clip-path="url(#a)" fill="#fff" stroke="#fff"/>
<g clip-path="url(#a)">
<g transform="translate(1457.1 874.43) rotate(90) scale(.08 -.08)">
<use xlink:href="#l"/>
<use x="60.818359" xlink:href="#f"/>
<use x="122.341797" xlink:href="#g"/>
<use x="163.439453" xlink:href="#k"/>
<use x="260.851562" xlink:href="#h"/>
<use x="288.634766" xlink:href="#i"/>
<use x="352.013672" xlink:href="#e"/>
<use x="413.292969" xlink:href="#j"/>
</g>
</g>
<path d="m1521.8 910.48 5.5467-34.846q0.37727-2.3702-1.9929-2.7474l-7.6462-1.2171q-2.3702-0.37727-2.7474 1.9929l-5.5467 34.846q-0.37727 2.3702 1.9929 2.7474l7.6462 1.2171q2.3702 0.37727 2.7474-1.9929z" clip-path="url(#a)" fill="#fff" stroke="#fff"/>
<g clip-path="url(#a)">
<g transform="translate(1517.8 909.84) rotate(-80.956) scale(.08 -.08)">
<use xlink:href="#l"/>
<use x="60.818359" xlink:href="#f"/>
<use x="122.341797" xlink:href="#g"/>
<use x="163.439453" xlink:href="#k"/>
<use x="260.851562" xlink:href="#h"/>
<use x="288.634766" xlink:href="#i"/>
<use x="352.013672" xlink:href="#e"/>
<use x="413.292969" xlink:href="#j"/>
</g>
</g>
<path d="m1533.1 875.64 5.5467 34.846q0.37727 2.3702 2.7474 1.9929l7.6462-1.2171q2.3702-0.37727 1.9929-2.7474l-5.5467-34.846q-0.37727-2.3702-2.7474-1.9929l-7.6462 1.2171q-2.3702 0.37727-1.9929 2.7474z" clip-path="url(#a)" fill="#fff" stroke="#fff"/>
<g clip-path="url(#a)">
<g transform="translate(1537.1 875) rotate(80.956) scale(.08 -.08)">
<use xlink:href="#l"/>
<use x="60.818359" xlink:href="#f"/>
<use x="122.341797" xlink:href="#g"/>
<use x="163.439453" xlink:href="#k"/>
<use x="260.851562" xlink:href="#h"/>
<use x="288.634766" xlink:href="#i"/>
<use x="352.013672" xlink:href="#e"/>
<use x="413.292969" xlink:href="#j"/>
</g>
</g>
<path d="m1121.9 874.43v35.285q0 2.4 2.4 2.4h7.7425q2.4 0 2.4-2.4v-35.285q0-2.4-2.4-2.4h-7.7425q-2.4 0-2.4 2.4z" clip-path="url(#a)" fill="#fff" stroke="#fff"/>
<g clip-path="url(#a)">
<g transform="translate(1126 874.43) rotate(90) scale(.08 -.08)">
<use xlink:href="#l"/>
<use x="60.818359" xlink:href="#f"/>
<use x="122.341797" xlink:href="#g"/>
<use x="163.439453" xlink:href="#k"/>
<use x="260.851562" xlink:href="#h"/>
<use x="288.634766" xlink:href="#i"/>
<use x="352.013672" xlink:href="#e"/>
<use x="413.292969" xlink:href="#j"/>
</g>
</g>
<path d="m1169.2 874.43v35.285q0 2.4 2.4 2.4h7.7425q2.4 0 2.4-2.4v-35.285q0-2.4-2.4-2.4h-7.7425q-2.4 0-2.4 2.4z" clip-path="url(#a)" fill="#fff" stroke="#fff"/>
<g clip-path="url(#a)">
<g transform="translate(1173.3 874.43) rotate(90) scale(.08 -.08)">
<use xlink:href="#l"/>
<use x="60.818359" xlink:href="#f"/>
<use x="122.341797" xlink:href="#g"/>
<use x="163.439453" xlink:href="#k"/>
<use x="260.851562" xlink:href="#h"/>
<use x="288.634766" xlink:href="#i"/>
<use x="352.013672" xlink:href="#e"/>
<use x="413.292969" xlink:href="#j"/>
</g>
</g>
<path d="m1263.8 874.43v35.285q0 2.4 2.4 2.4h7.7425q2.4 0 2.4-2.4v-35.285q0-2.4-2.4-2.4h-7.7425q-2.4 0-2.4 2.4z" clip-path="url(#a)" fill="#fff" stroke="#fff"/>
<g clip-path="url(#a)">
<g transform="translate(1267.9 874.43) rotate(90) scale(.08 -.08)">
<use xlink:href="#l"/>
<use x="60.818359" xlink:href="#f"/>
<use x="122.341797" xlink:href="#g"/>
<use x="163.439453" xlink:href="#k"/>
<use x="260.851562" xlink:href="#h"/>
<use x="288.634766" xlink:href="#i"/>
<use x="352.013672" xlink:href="#e"/>
<use x="413.292969" xlink:href="#j"/>
</g>
</g>
<path d="m1027.3 874.43v35.285q0 2.4 2.4 2.4h7.7425q2.4 0 2.4-2.4v-35.285q0-2.4-2.4-2.4h-7.7425q-2.4 0-2.4 2.4z" clip-path="url(#a)" fill="#fff" stroke="#fff"/>
<g clip-path="url(#a)">
<g transform="translate(1031.4 874.43) rotate(90) scale(.08 -.08)">
<use xlink:href="#l"/>
<use x="60.818359" xlink:href="#f"/>
<use x="122.341797" xlink:href="#g"/>
<use x="163.439453" xlink:href="#k"/>
<use x="260.851562" xlink:href="#h"/>
<use x="288.634766" xlink:href="#i"/>
<use x="352.013672" xlink:href="#e"/>
<use x="413.292969" xlink:href="#j"/>
</g>
</g>
<path d="m1074.6 874.43v35.285q0 2.4 2.4 2.4h7.7425q2.4 0 2.4-2.4v-35.285q0-2.4-2.4-2.4h-7.7425q-2.4 0-2.4 2.4z" clip-path="url(#a)" fill="#fff" stroke="#fff"/>
<g clip-path="url(#a)">
<g transform="translate(1078.7 874.43) rotate(90) scale(.08 -.08)">
<use xlink:href="#l"/>
<use x="60.818359" xlink:href="#f"/>
<use x="122.341797" xlink:href="#g"/>
<use x="163.439453" xlink:href="#k"/>
<use x="260.851562" xlink:href="#h"/>
<use x="288.634766" xlink:href="#i"/>
<use x="352.013672" xlink:href="#e"/>
<use x="413.292969" xlink:href="#j"/>
</g>
</g>
<path d="m885.45 874.43v35.285q0 2.4 2.4 2.4h7.7425q2.4 0 2.4-2.4v-35.285q0-2.4-2.4-2.4h-7.7425q-2.4 0-2.4 2.4z" clip-path="url(#a)" fill="#fff" stroke="#fff"/>
<g clip-path="url(#a)">
<g transform="translate(889.51 874.43) rotate(90) scale(.08 -.08)">
<use xlink:href="#l"/>
<use x="60.818359" xlink:href="#f"/>
<use x="122.341797" xlink:href="#g"/>
<use x="163.439453" xlink:href="#k"/>
<use x="260.851562" xlink:href="#h"/>
<use x="288.634766" xlink:href="#i"/>
<use x="352.013672" xlink:href="#e"/>
<use x="413.292969" xlink:href="#j"/>
</g>
</g>
<path d="m932.75 874.43v35.285q0 2.4 2.4 2.4h7.7425q2.4 0 2.4-2.4v-35.285q0-2.4-2.4-2.4h-7.7425q-2.4 0-2.4 2.4z" clip-path="url(#a)" fill="#fff" stroke="#fff"/>
<g clip-path="url(#a)">
<g transform="translate(936.81 874.43) rotate(90) scale(.08 -.08)">
<use xlink:href="#l"/>
<use x="60.818359" xlink:href="#f"/>
<use x="122.341797" xlink:href="#g"/>
<use x="163.439453" xlink:href="#k"/>
<use x="260.851562" xlink:href="#h"/>
<use x="288.634766" xlink:href="#i"/>
<use x="352.013672" xlink:href="#e"/>
<use x="413.292969" xlink:href="#j"/>
</g>
</g>
<path d="m980.04 874.43v35.285q0 2.4 2.4 2.4h7.7425q2.4 0 2.4-2.4v-35.285q0-2.4-2.4-2.4h-7.7425q-2.4 0-2.4 2.4z" clip-path="url(#a)" fill="#fff" stroke="#fff"/>
<g clip-path="url(#a)">
<g transform="translate(984.11 874.43) rotate(90) scale(.08 -.08)">
<use xlink:href="#l"/>
<use x="60.818359" xlink:href="#f"/>
<use x="122.341797" xlink:href="#g"/>
<use x="163.439453" xlink:href="#k"/>
<use x="260.851562" xlink:href="#h"/>
<use x="288.634766" xlink:href="#i"/>
<use x="352.013672" xlink:href="#e"/>
<use x="413.292969" xlink:href="#j"/>
</g>
</g>
<path d="m105.25 747.23 0.87381-5.4896q0.37727-2.3702-1.9929-2.7474l-7.6462-1.2171q-2.3702-0.37727-2.7474 1.9929l-0.87381 5.4896q-0.37727 2.3702 1.9929 2.7474l7.6462 1.2171q2.3702 0.37727 2.7474-1.9929z" clip-path="url(#a)" fill="#fff" stroke="#fff"/>
<g clip-path="url(#a)">
<g transform="translate(101.24 746.6) rotate(-80.956) scale(.08 -.08)">
<use xlink:href="#t"/>
</g>
</g>
<path d="m116.51 741.73 0.87814 5.5168q0.37727 2.3702 2.7474 1.9929l7.6462-1.2171q2.3702-0.37727 1.9929-2.7474l-0.87814-5.5168q-0.37727-2.3702-2.7474-1.9929l-7.6462 1.2171q-2.3702 0.37727-1.9929 2.7474z" clip-path="url(#a)" fill="#fff" stroke="#fff"/>
<g clip-path="url(#a)">
<g transform="translate(120.52 741.09) rotate(80.956) scale(.08 -.08)">
<use xlink:href="#r"/>
</g>
</g>
<path d="m223.29 874.43v35.285q0 2.4 2.4 2.4h7.7425q2.4 0 2.4-2.4v-35.285q0-2.4-2.4-2.4h-7.7425q-2.4 0-2.4 2.4z" clip-path="url(#a)" fill="#fff" stroke="#fff"/>
<g clip-path="url(#a)">
<g transform="translate(227.35 874.43) rotate(90) scale(.08 -.08)">
<use xlink:href="#l"/>
<use x="60.818359" xlink:href="#f"/>
<use x="122.341797" xlink:href="#g"/>
<use x="163.439453" xlink:href="#k"/>
<use x="260.851562" xlink:href="#h"/>
<use x="288.634766" xlink:href="#i"/>
<use x="352.013672" xlink:href="#e"/>
<use x="413.292969" xlink:href="#j"/>
</g>
</g>
<path d="m270.59 874.43v35.285q0 2.4 2.4 2.4h7.7425q2.4 0 2.4-2.4v-35.285q0-2.4-2.4-2.4h-7.7425q-2.4 0-2.4 2.4z" clip-path="url(#a)" fill="#fff" stroke="#fff"/>
<g clip-path="url(#a)">
<g transform="translate(274.65 874.43) rotate(90) scale(.08 -.08)">
<use xlink:href="#l"/>
<use x="60.818359" xlink:href="#f"/>
<use x="122.341797" xlink:href="#g"/>
<use x="163.439453" xlink:href="#k"/>
<use x="260.851562" xlink:href="#h"/>
<use x="288.634766" xlink:href="#i"/>
<use x="352.013672" xlink:href="#e"/>
<use x="413.292969" xlink:href="#j"/>
</g>
</g>
<path d="m403.41 673.48 2.4882-4.9708q1.0743-2.1461-1.0718-3.2204l-6.9235-3.4657q-2.1461-1.0743-3.2204 1.0718l-2.4882 4.9708q-1.0743 2.1461 1.0718 3.2204l6.9235 3.4657q2.1461 1.0743 3.2204-1.0718z" clip-path="url(#a)" fill="#fff" stroke="#fff"/>
<g clip-path="url(#a)">
<g transform="translate(399.77 671.66) rotate(-63.409) scale(.08 -.08)">
<use xlink:href="#t"/>
</g>
</g>
<path d="m427.8 672.61 1.6379-4.7823q0.77764-2.2705-1.4929-3.0482l-7.3248-2.5087q-2.2705-0.77764-3.0482 1.4929l-1.6379 4.7823q-0.77764 2.2705 1.4929 3.0482l7.3248 2.5087q2.2705 0.77764 3.0482-1.4929z" clip-path="url(#a)" fill="#fff" stroke="#fff"/>
<g clip-path="url(#a)">
<g transform="translate(423.96 671.29) rotate(-71.094) scale(.08 -.08)">
<use xlink:href="#x"/>
</g>
</g>
<path d="m452 672.07 1.0131-5.4936q0.43527-2.3602-1.9249-2.7955l-7.6141-1.4042q-2.3602-0.43527-2.7955 1.9249l-1.0131 5.4936q-0.43527 2.3602 1.9249 2.7955l7.6141 1.4042q2.3602 0.43527 2.7955-1.9249z" clip-path="url(#a)" fill="#fff" stroke="#fff"/>
<g clip-path="url(#a)">
<g transform="translate(448 671.33) rotate(-79.551) scale(.08 -.08)">
<use xlink:href="#r"/>
</g>
</g>
<path d="m475.31 592.04 0.52618 5.0275q0.24982 2.387 2.6368 2.1371l7.7004-0.80593q2.387-0.24982 2.1371-2.6368l-0.52618-5.0275q-0.24982-2.387-2.6368-2.1371l-7.7004 0.80593q-2.387 0.24982-2.1371 2.6368z" clip-path="url(#a)" fill="#fff" stroke="#fff"/>
<g clip-path="url(#a)">
<g transform="translate(479.35 591.62) rotate(84.025) scale(.08 -.08)">
<use xlink:href="#x"/>
</g>
</g>
<path d="m510.49 667.26 1.5473 5.3391q0.66804 2.3052 2.9732 1.6371l7.4365-2.1551q2.3052-0.66804 1.6371-2.9732l-1.5473-5.3391q-0.66804-2.3052-2.9732-1.6371l-7.4365 2.1551q-2.3052 0.66804-1.6371 2.9732z" clip-path="url(#a)" fill="#fff" stroke="#fff"/>
<g clip-path="url(#a)">
<g transform="translate(514.39 666.13) rotate(73.838) scale(.08 -.08)">
<use xlink:href="#t"/>
</g>
</g>
<path d="m570.66 597.46 4.0732 2.9937q1.9339 1.4213 3.3552-0.51252l4.5853-6.2387q1.4213-1.9339-0.51252-3.3552l-4.0732-2.9937q-1.9339-1.4213-3.3552 0.51252l-4.5853 6.2387q-1.4213 1.9339 0.51252 3.3552z" clip-path="url(#a)" fill="#fff" stroke="#fff"/>
<g clip-path="url(#a)">
<g transform="translate(573.06 594.18) rotate(36.315) scale(.08 -.08)">
<use xlink:href="#x"/>
</g>
</g>
<path d="m317.88 874.43v35.285q0 2.4 2.4 2.4h7.7425q2.4 0 2.4-2.4v-35.285q0-2.4-2.4-2.4h-7.7425q-2.4 0-2.4 2.4z" clip-path="url(#a)" fill="#fff" stroke="#fff"/>
<g clip-path="url(#a)">
<g transform="translate(321.95 874.43) rotate(90) scale(.08 -.08)">
<use xlink:href="#l"/>
<use x="60.818359" xlink:href="#f"/>
<use x="122.341797" xlink:href="#g"/>
<use x="163.439453" xlink:href="#k"/>
<use x="260.851562" xlink:href="#h"/>
<use x="288.634766" xlink:href="#i"/>
<use x="352.013672" xlink:href="#e"/>
<use x="413.292969" xlink:href="#j"/>
</g>
</g>
<path d="m365.18 874.43v35.285q0 2.4 2.4 2.4h7.7425q2.4 0 2.4-2.4v-35.285q0-2.4-2.4-2.4h-7.7425q-2.4 0-2.4 2.4z" clip-path="url(#a)" fill="#fff" stroke="#fff"/>
<g clip-path="url(#a)">
<g transform="translate(369.24 874.43) rotate(90) scale(.08 -.08)">
<use xlink:href="#l"/>
<use x="60.818359" xlink:href="#f"/>
<use x="122.341797" xlink:href="#g"/>
<use x="163.439453" xlink:href="#k"/>
<use x="260.851562" xlink:href="#h"/>
<use x="288.634766" xlink:href="#i"/>
<use x="352.013672" xlink:href="#e"/>
<use x="413.292969" xlink:href="#j"/>
</g>
</g>
<path d="m412.48 874.43v35.285q0 2.4 2.4 2.4h7.7425q2.4 0 2.4-2.4v-35.285q0-2.4-2.4-2.4h-7.7425q-2.4 0-2.4 2.4z" clip-path="url(#a)" fill="#fff" stroke="#fff"/>
<g clip-path="url(#a)">
<g transform="translate(416.54 874.43) rotate(90) scale(.08 -.08)">
<use xlink:href="#l"/>
<use x="60.818359" xlink:href="#f"/>
<use x="122.341797" xlink:href="#g"/>
<use x="163.439453" xlink:href="#k"/>
<use x="260.851562" xlink:href="#h"/>
<use x="288.634766" xlink:href="#i"/>
<use x="352.013672" xlink:href="#e"/>
<use x="413.292969" xlink:href="#j"/>
</g>
</g>
<path d="m483.63 747.23 0.87381-5.4896q0.37727-2.3702-1.9929-2.7474l-7.6462-1.2171q-2.3702-0.37727-2.7474 1.9929l-0.87381 5.4896q-0.37727 2.3702 1.9929 2.7474l7.6462 1.2171q2.3702 0.37727 2.7474-1.9929z" clip-path="url(#a)" fill="#fff" stroke="#fff"/>
<g clip-path="url(#a)">
<g transform="translate(479.61 746.6) rotate(-80.956) scale(.08 -.08)">
<use xlink:href="#t"/>
</g>
</g>
<path d="m494.89 741.73 0.87814 5.5168q0.37727 2.3702 2.7474 1.9929l7.6462-1.2171q2.3702-0.37727 1.9929-2.7474l-0.87814-5.5168q-0.37727-2.3702-2.7474-1.9929l-7.6462 1.2171q-2.3702 0.37727-1.9929 2.7474z" clip-path="url(#a)" fill="#fff" stroke="#fff"/>
<g clip-path="url(#a)">
<g transform="translate(498.9 741.09) rotate(80.956) scale(.08 -.08)">
<use xlink:href="#r"/>
</g>
</g>
<path d="m554.37 874.43v35.285q0 2.4 2.4 2.4h7.7425q2.4 0 2.4-2.4v-35.285q0-2.4-2.4-2.4h-7.7425q-2.4 0-2.4 2.4z" clip-path="url(#a)" fill="#fff" stroke="#fff"/>
<g clip-path="url(#a)">
<g transform="translate(558.43 874.43) rotate(90) scale(.08 -.08)">
<use xlink:href="#l"/>
<use x="60.818359" xlink:href="#f"/>
<use x="122.341797" xlink:href="#g"/>
<use x="163.439453" xlink:href="#k"/>
<use x="260.851562" xlink:href="#h"/>
<use x="288.634766" xlink:href="#i"/>
<use x="352.013672" xlink:href="#e"/>
<use x="413.292969" xlink:href="#j"/>
</g>
</g>
<path d="m647.98 748.49 2.1783-4.5616q1.0342-2.1657-1.1315-3.1999l-6.9868-3.3364q-2.1657-1.0342-3.1999 1.1315l-2.1783 4.5616q-1.0342 2.1657 1.1315 3.1999l6.9868 3.3364q2.1657 1.0342 3.1999-1.1315z" clip-path="url(#a)" fill="#fff" stroke="#fff"/>
<g clip-path="url(#a)">
<g transform="translate(644.31 746.74) rotate(-64.474) scale(.08 -.08)">
<use xlink:href="#x"/>
</g>
</g>
<path d="m672.61 740.98v5.055q0 2.4 2.4 2.4h7.7425q2.4 0 2.4-2.4v-5.055q0-2.4-2.4-2.4h-7.7425q-2.4 0-2.4 2.4z" clip-path="url(#a)" fill="#fff" stroke="#fff"/>
<g clip-path="url(#a)">
<g transform="translate(676.68 740.98) rotate(90) scale(.08 -.08)">
<use xlink:href="#x"/>
</g>
</g>
<path d="m707.49 743.69 2.4072 5.041q1.0342 2.1657 3.1999 1.1315l6.9868-3.3364q2.1657-1.0342 1.1315-3.1999l-2.4072-5.041q-1.0342-2.1657-3.1999-1.1315l-6.9868 3.3364q-2.1657 1.0342-1.1315 3.1999z" clip-path="url(#a)" fill="#fff" stroke="#fff"/>
<g clip-path="url(#a)">
<g transform="translate(711.16 741.93) rotate(64.474) scale(.08 -.08)">
<use xlink:href="#r"/>
</g>
</g>
<path d="m601.67 874.43v35.285q0 2.4 2.4 2.4h7.7425q2.4 0 2.4-2.4v-35.285q0-2.4-2.4-2.4h-7.7425q-2.4 0-2.4 2.4z" clip-path="url(#a)" fill="#fff" stroke="#fff"/>
<g clip-path="url(#a)">
<g transform="translate(605.73 874.43) rotate(90) scale(.08 -.08)">
<use xlink:href="#l"/>
<use x="60.818359" xlink:href="#f"/>
<use x="122.341797" xlink:href="#g"/>
<use x="163.439453" xlink:href="#k"/>
<use x="260.851562" xlink:href="#h"/>
<use x="288.634766" xlink:href="#i"/>
<use x="352.013672" xlink:href="#e"/>
<use x="413.292969" xlink:href="#j"/>
</g>
</g>
<path d="m670.48 910.48 5.5467-34.846q0.37727-2.3702-1.9929-2.7474l-7.6462-1.2171q-2.3702-0.37727-2.7474 1.9929l-5.5467 34.846q-0.37727 2.3702 1.9929 2.7474l7.6462 1.2171q2.3702 0.37727 2.7474-1.9929z" clip-path="url(#a)" fill="#fff" stroke="#fff"/>
<g clip-path="url(#a)">
<g transform="translate(666.47 909.84) rotate(-80.956) scale(.08 -.08)">
<use xlink:href="#l"/>
<use x="60.818359" xlink:href="#f"/>
<use x="122.341797" xlink:href="#g"/>
<use x="163.439453" xlink:href="#k"/>
<use x="260.851562" xlink:href="#h"/>
<use x="288.634766" xlink:href="#i"/>
<use x="352.013672" xlink:href="#e"/>
<use x="413.292969" xlink:href="#j"/>
</g>
</g>
<path d="m681.74 875.64 5.5467 34.846q0.37727 2.3702 2.7474 1.9929l7.6462-1.2171q2.3702-0.37727 1.9929-2.7474l-5.5467-34.846q-0.37727-2.3702-2.7474-1.9929l-7.6462 1.2171q-2.3702 0.37727-1.9929 2.7474z" clip-path="url(#a)" fill="#fff" stroke="#fff"/>
<g clip-path="url(#a)">
<g transform="translate(685.75 875) rotate(80.956) scale(.08 -.08)">
<use xlink:href="#l"/>
<use x="60.818359" xlink:href="#f"/>
<use x="122.341797" xlink:href="#g"/>
<use x="163.439453" xlink:href="#k"/>
<use x="260.851562" xlink:href="#h"/>
<use x="288.634766" xlink:href="#i"/>
<use x="352.013672" xlink:href="#e"/>
<use x="413.292969" xlink:href="#j"/>
</g>
</g>
<path d="m743.56 874.43v35.285q0 2.4 2.4 2.4h7.7425q2.4 0 2.4-2.4v-35.285q0-2.4-2.4-2.4h-7.7425q-2.4 0-2.4 2.4z" clip-path="url(#a)" fill="#fff" stroke="#fff"/>
<g clip-path="url(#a)">
<g transform="translate(747.62 874.43) rotate(90) scale(.08 -.08)">
<use xlink:href="#l"/>
<use x="60.818359" xlink:href="#f"/>
<use x="122.341797" xlink:href="#g"/>
<use x="163.439453" xlink:href="#k"/>
<use x="260.851562" xlink:href="#h"/>
<use x="288.634766" xlink:href="#i"/>
<use x="352.013672" xlink:href="#e"/>
<use x="413.292969" xlink:href="#j"/>
</g>
</g>
<path d="m459.77 874.43v35.285q0 2.4 2.4 2.4h7.7425q2.4 0 2.4-2.4v-35.285q0-2.4-2.4-2.4h-7.7425q-2.4 0-2.4 2.4z" clip-path="url(#a)" fill="#fff" stroke="#fff"/>
<g clip-path="url(#a)">
<g transform="translate(463.84 874.43) rotate(90) scale(.08 -.08)">
<use xlink:href="#l"/>
<use x="60.818359" xlink:href="#f"/>
<use x="122.341797" xlink:href="#g"/>
<use x="163.439453" xlink:href="#k"/>
<use x="260.851562" xlink:href="#h"/>
<use x="288.634766" xlink:href="#i"/>
<use x="352.013672" xlink:href="#e"/>
<use x="413.292969" xlink:href="#j"/>
</g>
</g>
<path d="m507.07 874.43v35.285q0 2.4 2.4 2.4h7.7425q2.4 0 2.4-2.4v-35.285q0-2.4-2.4-2.4h-7.7425q-2.4 0-2.4 2.4z" clip-path="url(#a)" fill="#fff" stroke="#fff"/>
<g clip-path="url(#a)">
<g transform="translate(511.14 874.43) rotate(90) scale(.08 -.08)">
<use xlink:href="#l"/>
<use x="60.818359" xlink:href="#f"/>
<use x="122.341797" xlink:href="#g"/>
<use x="163.439453" xlink:href="#k"/>
<use x="260.851562" xlink:href="#h"/>
<use x="288.634766" xlink:href="#i"/>
<use x="352.013672" xlink:href="#e"/>
<use x="413.292969" xlink:href="#j"/>
</g>
</g>
<path d="m81.397 874.43v35.285q0 2.4 2.4 2.4h7.7425q2.4 0 2.4-2.4v-35.285q0-2.4-2.4-2.4h-7.7425q-2.4 0-2.4 2.4z" clip-path="url(#a)" fill="#fff" stroke="#fff"/>
<g clip-path="url(#a)">
<g transform="translate(85.461 874.43) rotate(90) scale(.08 -.08)">
<use xlink:href="#l"/>
<use x="60.818359" xlink:href="#f"/>
<use x="122.341797" xlink:href="#g"/>
<use x="163.439453" xlink:href="#k"/>
<use x="260.851562" xlink:href="#h"/>
<use x="288.634766" xlink:href="#i"/>
<use x="352.013672" xlink:href="#e"/>
<use x="413.292969" xlink:href="#j"/>
</g>
</g>
<path d="m128.69 874.43v35.285q0 2.4 2.4 2.4h7.7425q2.4 0 2.4-2.4v-35.285q0-2.4-2.4-2.4h-7.7425q-2.4 0-2.4 2.4z" clip-path="url(#a)" fill="#fff" stroke="#fff"/>
<g clip-path="url(#a)">
<g transform="translate(132.76 874.43) rotate(90) scale(.08 -.08)">
<use xlink:href="#l"/>
<use x="60.818359" xlink:href="#f"/>
<use x="122.341797" xlink:href="#g"/>
<use x="163.439453" xlink:href="#k"/>
<use x="260.851562" xlink:href="#h"/>
<use x="288.634766" xlink:href="#i"/>
<use x="352.013672" xlink:href="#e"/>
<use x="413.292969" xlink:href="#j"/>
</g>
</g>
<path d="m1234.5 135.43 8.4996-5.1393q2.0538-1.2418 0.81195-3.2956l-4.0061-6.6255q-1.2418-2.0538-3.2956-0.81195l-8.4996 5.1393q-2.0538 1.2418-0.81195 3.2956l4.0061 6.6255q1.2418 2.0538 3.2956 0.81195z" clip-path="url(#a)" fill="#fff" stroke="#fff"/>
<g clip-path="url(#a)">
<g transform="translate(1232.4 131.95) rotate(-31.159) scale(.08 -.08)">
<use xlink:href="#u"/>
<use x="55.744141" xlink:href="#p"/>
</g>
</g>
<path d="m1477.5 429.4 2.8923 9.5896q0.69303 2.2978 2.9908 1.6047l7.4127-2.2357q2.2978-0.69303 1.6047-2.9908l-2.8923-9.5896q-0.69303-2.2978-2.9908-1.6047l-7.4127 2.2357q-2.2978 0.69303-1.6047 2.9908z" clip-path="url(#a)" fill="#fff" stroke="#fff"/>
<g clip-path="url(#a)">
<g transform="translate(1481.4 428.22) rotate(73.216) scale(.08 -.08)">
<use xlink:href="#u"/>
<use x="55.712891" xlink:href="#t"/>
</g>
</g>
<path d="m1379 278.27 0.71083 9.907q0.17176 2.3938 2.5656 2.2221l7.7226-0.5541q2.3938-0.17176 2.2221-2.5656l-0.71083-9.907q-0.17176-2.3938-2.5656-2.2221l-7.7226 0.5541q-2.3938 0.17176-2.2221 2.5656z" clip-path="url(#a)" fill="#fff" stroke="#fff"/>
<g clip-path="url(#a)">
<g transform="translate(1383.1 277.98) rotate(85.896) scale(.08 -.08)">
<use xlink:href="#u"/>
<use x="55.744141" xlink:href="#p"/>
</g>
</g>
<path d="m493.65 213.98 8.2748-5.4938q1.9994-1.3275 0.67196-3.3269l-4.2825-6.4503q-1.3275-1.9994-3.3269-0.67196l-8.2748 5.4938q-1.9994 1.3275-0.67196 3.3269l4.2825 6.4503q1.3275 1.9994 3.3269 0.67196z" clip-path="url(#a)" fill="#fff" stroke="#fff"/>
<g clip-path="url(#a)">
<g transform="translate(491.41 210.6) rotate(-33.581) scale(.08 -.08)">
<use xlink:href="#u"/>
<use x="55.744141" xlink:href="#p"/>
</g>
</g>
<path d="m782.22 428.31 1.4222 9.9148q0.34076 2.3757 2.7164 2.0349l7.6641-1.0993q2.3757-0.34076 2.0349-2.7164l-1.4222-9.9148q-0.34076-2.3757-2.7164-2.0349l-7.6641 1.0993q-2.3757 0.34077-2.0349 2.7165z" clip-path="url(#a)" fill="#fff" stroke="#fff"/>
<g clip-path="url(#a)">
<g transform="translate(786.25 427.74) rotate(81.837) scale(.08 -.08)">
<use xlink:href="#u"/>
<use x="55.712891" xlink:href="#t"/>
</g>
</g>
<path d="m911.05 131.25 9.1015 3.9772q2.1992 0.96102 3.1602-1.2382l3.1003-7.0947q0.96102-2.1992-1.2382-3.1602l-9.1015-3.9772q-2.1992-0.96102-3.1602 1.2382l-3.1003 7.0947q-0.96102 2.1992 1.2382 3.1602z" clip-path="url(#a)" fill="#fff" stroke="#fff"/>
<g clip-path="url(#a)">
<g transform="translate(912.68 127.53) rotate(23.605) scale(.08 -.08)">
<use xlink:href="#u"/>
<use x="55.744141" xlink:href="#p"/>
</g>
</g>
<path d="m175.99 874.43v35.285q0 2.4 2.4 2.4h7.7425q2.4 0 2.4-2.4v-35.285q0-2.4-2.4-2.4h-7.7425q-2.4 0-2.4 2.4z" clip-path="url(#a)" fill="#fff" stroke="#fff"/>
<g clip-path="url(#a)">
<g transform="translate(180.06 874.43) rotate(90) scale(.08 -.08)">
<use xlink:href="#l"/>
<use x="60.818359" xlink:href="#f"/>
<use x="122.341797" xlink:href="#g"/>
<use x="163.439453" xlink:href="#k"/>
<use x="260.851562" xlink:href="#h"/>
<use x="288.634766" xlink:href="#i"/>
<use x="352.013672" xlink:href="#e"/>
<use x="413.292969" xlink:href="#j"/>
</g>
</g>
<path d="m790.86 874.43v35.285q0 2.4 2.4 2.4h7.7425q2.4 0 2.4-2.4v-35.285q0-2.4-2.4-2.4h-7.7425q-2.4 0-2.4 2.4z" clip-path="url(#a)" fill="#fff" stroke="#fff"/>
<g clip-path="url(#a)">
<g transform="translate(794.92 874.43) rotate(90) scale(.08 -.08)">
<use xlink:href="#l"/>
<use x="60.818359" xlink:href="#f"/>
<use x="122.341797" xlink:href="#g"/>
<use x="163.439453" xlink:href="#k"/>
<use x="260.851562" xlink:href="#h"/>
<use x="288.634766" xlink:href="#i"/>
<use x="352.013672" xlink:href="#e"/>
<use x="413.292969" xlink:href="#j"/>
</g>
</g>
<path d="m1216.5 874.43v35.285q0 2.4 2.4 2.4h7.7425q2.4 0 2.4-2.4v-35.285q0-2.4-2.4-2.4h-7.7425q-2.4 0-2.4 2.4z" clip-path="url(#a)" fill="#fff" stroke="#fff"/>
<g clip-path="url(#a)">
<g transform="translate(1220.6 874.43) rotate(90) scale(.08 -.08)">
<use xlink:href="#l"/>
<use x="60.818359" xlink:href="#f"/>
<use x="122.341797" xlink:href="#g"/>
<use x="163.439453" xlink:href="#k"/>
<use x="260.851562" xlink:href="#h"/>
<use x="288.634766" xlink:href="#i"/>
<use x="352.013672" xlink:href="#e"/>
<use x="413.292969" xlink:href="#j"/>
</g>
</g>
<path d="m1831.4 874.43v35.285q0 2.4 2.4 2.4h7.7425q2.4 0 2.4-2.4v-35.285q0-2.4-2.4-2.4h-7.7425q-2.4 0-2.4 2.4z" clip-path="url(#a)" fill="#fff" stroke="#fff"/>
<g clip-path="url(#a)">
<g transform="translate(1835.5 874.43) rotate(90) scale(.08 -.08)">
<use xlink:href="#l"/>
<use x="60.818359" xlink:href="#f"/>
<use x="122.341797" xlink:href="#g"/>
<use x="163.439453" xlink:href="#k"/>
<use x="260.851562" xlink:href="#h"/>
<use x="288.634766" xlink:href="#i"/>
<use x="352.013672" xlink:href="#e"/>
<use x="413.292969" xlink:href="#j"/>
</g>
</g>
<defs>
<path id="b" d="m0 8.6603c2.2967 0 4.4997-0.9125 6.1237-2.5365 1.624-1.624 2.5365-3.827 2.5365-6.1237s-0.9125-4.4997-2.5365-6.1237c-1.624-1.624-3.827-2.5365-6.1237-2.5365s-4.4997 0.9125-6.1237 2.5365c-1.624 1.624-2.5365 3.827-2.5365 6.1237s0.9125 4.4997 2.5365 6.1237c1.624 1.624 3.827 2.5365 6.1237 2.5365z"/>
</defs>
<g clip-path="url(#a)">
<use x="87.668328" y="966.358525" fill="#ffffff" stroke="#ffffff" xlink:href="#b"/>
</g>
<g clip-path="url(#a)">
<use x="134.965536" y="966.358525" fill="#ffffff" stroke="#ffffff" xlink:href="#b"/>
</g>
<g clip-path="url(#a)">
<use x="182.262743" y="966.358525" fill="#ffffff" stroke="#ffffff" xlink:href="#b"/>
</g>
<g clip-path="url(#a)">
<use x="229.559951" y="966.358525" fill="#ffffff" stroke="#ffffff" xlink:href="#b"/>
</g>
<g clip-path="url(#a)">
<use x="276.857158" y="966.358525" fill="#ffffff" stroke="#ffffff" xlink:href="#b"/>
</g>
<g clip-path="url(#a)">
<use x="324.154366" y="966.358525" fill="#ffffff" stroke="#ffffff" xlink:href="#b"/>
</g>
<g clip-path="url(#a)">
<use x="371.451573" y="966.358525" fill="#ffffff" stroke="#ffffff" xlink:href="#b"/>
</g>
<g clip-path="url(#a)">
<use x="418.748781" y="966.358525" fill="#ffffff" stroke="#ffffff" xlink:href="#b"/>
</g>
<g clip-path="url(#a)">
<use x="466.045988" y="966.358525" fill="#ffffff" stroke="#ffffff" xlink:href="#b"/>
</g>
<g clip-path="url(#a)">
<use x="513.343196" y="966.358525" fill="#ffffff" stroke="#ffffff" xlink:href="#b"/>
</g>
<g clip-path="url(#a)">
<use x="560.640403" y="966.358525" fill="#ffffff" stroke="#ffffff" xlink:href="#b"/>
</g>
<g clip-path="url(#a)">
<use x="607.937611" y="966.358525" fill="#ffffff" stroke="#ffffff" xlink:href="#b"/>
</g>
<g clip-path="url(#a)">
<use x="655.234818" y="966.358525" fill="#ffffff" stroke="#ffffff" xlink:href="#b"/>
</g>
<g clip-path="url(#a)">
<use x="702.532026" y="966.358525" fill="#ffffff" stroke="#ffffff" xlink:href="#b"/>
</g>
<g clip-path="url(#a)">
<use x="749.829233" y="966.358525" fill="#ffffff" stroke="#ffffff" xlink:href="#b"/>
</g>
<g clip-path="url(#a)">
<use x="797.12644" y="966.358525" fill="#ffffff" stroke="#ffffff" xlink:href="#b"/>
</g>
<g clip-path="url(#a)">
<use x="844.423648" y="966.358525" fill="#ffffff" stroke="#ffffff" xlink:href="#b"/>
</g>
<g clip-path="url(#a)">
<use x="891.720855" y="966.358525" fill="#ffffff" stroke="#ffffff" xlink:href="#b"/>
</g>
<g clip-path="url(#a)">
<use x="939.018063" y="966.358525" fill="#ffffff" stroke="#ffffff" xlink:href="#b"/>
</g>
<g clip-path="url(#a)">
<use x="986.31527" y="966.358525" fill="#ffffff" stroke="#ffffff" xlink:href="#b"/>
</g>
<g clip-path="url(#a)">
<use x="1033.612478" y="966.358525" fill="#ffffff" stroke="#ffffff" xlink:href="#b"/>
</g>
<g clip-path="url(#a)">
<use x="1080.909685" y="966.358525" fill="#ffffff" stroke="#ffffff" xlink:href="#b"/>
</g>
<g clip-path="url(#a)">
<use x="1128.206893" y="966.358525" fill="#ffffff" stroke="#ffffff" xlink:href="#b"/>
</g>
<g clip-path="url(#a)">
<use x="1175.5041" y="966.358525" fill="#ffffff" stroke="#ffffff" xlink:href="#b"/>
</g>
<g clip-path="url(#a)">
<use x="1222.801308" y="966.358525" fill="#ffffff" stroke="#ffffff" xlink:href="#b"/>
</g>
<g clip-path="url(#a)">
<use x="1270.098515" y="966.358525" fill="#ffffff" stroke="#ffffff" xlink:href="#b"/>
</g>
<g clip-path="url(#a)">
<use x="1317.395723" y="966.358525" fill="#ffffff" stroke="#ffffff" xlink:href="#b"/>
</g>
<g clip-path="url(#a)">
<use x="1364.69293" y="966.358525" fill="#ffffff" stroke="#ffffff" xlink:href="#b"/>
</g>
<g clip-path="url(#a)">
<use x="1411.990138" y="966.358525" fill="#ffffff" stroke="#ffffff" xlink:href="#b"/>
</g>
<g clip-path="url(#a)">
<use x="1459.287345" y="966.358525" fill="#ffffff" stroke="#ffffff" xlink:href="#b"/>
</g>
<g clip-path="url(#a)">
<use x="1506.584553" y="966.358525" fill="#ffffff" stroke="#ffffff" xlink:href="#b"/>
</g>
<g clip-path="url(#a)">
<use x="1553.88176" y="966.358525" fill="#ffffff" stroke="#ffffff" xlink:href="#b"/>
</g>
<g clip-path="url(#a)">
<use x="1601.178968" y="966.358525" fill="#ffffff" stroke="#ffffff" xlink:href="#b"/>
</g>
<g clip-path="url(#a)">
<use x="1648.476175" y="966.358525" fill="#ffffff" stroke="#ffffff" xlink:href="#b"/>
</g>
<g clip-path="url(#a)">
<use x="1695.773383" y="966.358525" fill="#ffffff" stroke="#ffffff" xlink:href="#b"/>
</g>
<g clip-path="url(#a)">
<use x="1743.07059" y="966.358525" fill="#ffffff" stroke="#ffffff" xlink:href="#b"/>
</g>
<g clip-path="url(#a)">
<use x="1790.367798" y="966.358525" fill="#ffffff" stroke="#ffffff" xlink:href="#b"/>
</g>
<g clip-path="url(#a)">
<use x="1837.665005" y="966.358525" fill="#ffffff" stroke="#ffffff" xlink:href="#b"/>
</g>
<g clip-path="url(#a)">
<use x="1000.402247" y="46.974808" fill="#ffffff" stroke="#ffffff" xlink:href="#b"/>
</g>
<g clip-path="url(#a)">
<use x="254.785128" y="365.043907" fill="#ffffff" stroke="#ffffff" xlink:href="#b"/>
</g>
<g clip-path="url(#a)">
<use x="844.423648" y="817.788414" fill="#ffffff" stroke="#ffffff" xlink:href="#b"/>
</g>
<g clip-path="url(#a)">
<use x="1102.368604" y="208.008009" fill="#ffffff" stroke="#ffffff" xlink:href="#b"/>
</g>
<g clip-path="url(#a)">
<use x="1601.178968" y="817.788414" fill="#ffffff" stroke="#ffffff" xlink:href="#b"/>
</g>
<g clip-path="url(#a)">
<use x="1402.530696" y="518.581419" fill="#ffffff" stroke="#ffffff" xlink:href="#b"/>
</g>
<g clip-path="url(#a)">
<use x="1648.476175" y="817.788414" fill="#ffffff" stroke="#ffffff" xlink:href="#b"/>
</g>
<g clip-path="url(#a)">
<use x="1695.773383" y="817.788414" fill="#ffffff" stroke="#ffffff" xlink:href="#b"/>
</g>
<g clip-path="url(#a)">
<use x="1790.367798" y="669.218303" fill="#ffffff" stroke="#ffffff" xlink:href="#b"/>
</g>
<g clip-path="url(#a)">
<use x="1743.07059" y="817.788414" fill="#ffffff" stroke="#ffffff" xlink:href="#b"/>
</g>
<g clip-path="url(#a)">
<use x="1790.367798" y="817.788414" fill="#ffffff" stroke="#ffffff" xlink:href="#b"/>
</g>
<g clip-path="url(#a)">
<use x="939.018063" y="669.218303" fill="#ffffff" stroke="#ffffff" xlink:href="#b"/>
</g>
<g clip-path="url(#a)">
<use x="1057.261082" y="669.218303" fill="#ffffff" stroke="#ffffff" xlink:href="#b"/>
</g>
<g clip-path="url(#a)">
<use x="1310.826666" y="365.043907" fill="#ffffff" stroke="#ffffff" xlink:href="#b"/>
</g>
<g clip-path="url(#a)">
<use x="1199.152704" y="669.218303" fill="#ffffff" stroke="#ffffff" xlink:href="#b"/>
</g>
<g clip-path="url(#a)">
<use x="1317.395723" y="817.788414" fill="#ffffff" stroke="#ffffff" xlink:href="#b"/>
</g>
<g clip-path="url(#a)">
<use x="1415.931572" y="518.581419" fill="#ffffff" stroke="#ffffff" xlink:href="#b"/>
</g>
<g clip-path="url(#a)">
<use x="1364.69293" y="817.788414" fill="#ffffff" stroke="#ffffff" xlink:href="#b"/>
</g>
<g clip-path="url(#a)">
<use x="1467.170213" y="669.218303" fill="#ffffff" stroke="#ffffff" xlink:href="#b"/>
</g>
<g clip-path="url(#a)">
<use x="1411.990138" y="817.788414" fill="#ffffff" stroke="#ffffff" xlink:href="#b"/>
</g>
<g clip-path="url(#a)">
<use x="1459.287345" y="817.788414" fill="#ffffff" stroke="#ffffff" xlink:href="#b"/>
</g>
<g clip-path="url(#a)">
<use x="1530.233156" y="817.788414" fill="#ffffff" stroke="#ffffff" xlink:href="#b"/>
</g>
<g clip-path="url(#a)">
<use x="1128.206893" y="817.788414" fill="#ffffff" stroke="#ffffff" xlink:href="#b"/>
</g>
<g clip-path="url(#a)">
<use x="1175.5041" y="817.788414" fill="#ffffff" stroke="#ffffff" xlink:href="#b"/>
</g>
<g clip-path="url(#a)">
<use x="1270.098515" y="817.788414" fill="#ffffff" stroke="#ffffff" xlink:href="#b"/>
</g>
<g clip-path="url(#a)">
<use x="1033.612478" y="817.788414" fill="#ffffff" stroke="#ffffff" xlink:href="#b"/>
</g>
<g clip-path="url(#a)">
<use x="1080.909685" y="817.788414" fill="#ffffff" stroke="#ffffff" xlink:href="#b"/>
</g>
<g clip-path="url(#a)">
<use x="891.720855" y="817.788414" fill="#ffffff" stroke="#ffffff" xlink:href="#b"/>
</g>
<g clip-path="url(#a)">
<use x="939.018063" y="817.788414" fill="#ffffff" stroke="#ffffff" xlink:href="#b"/>
</g>
<g clip-path="url(#a)">
<use x="986.31527" y="817.788414" fill="#ffffff" stroke="#ffffff" xlink:href="#b"/>
</g>
<g clip-path="url(#a)">
<use x="111.316932" y="669.218303" fill="#ffffff" stroke="#ffffff" xlink:href="#b"/>
</g>
<g clip-path="url(#a)">
<use x="229.559951" y="817.788414" fill="#ffffff" stroke="#ffffff" xlink:href="#b"/>
</g>
<g clip-path="url(#a)">
<use x="276.857158" y="817.788414" fill="#ffffff" stroke="#ffffff" xlink:href="#b"/>
</g>
<g clip-path="url(#a)">
<use x="473.928856" y="518.581419" fill="#ffffff" stroke="#ffffff" xlink:href="#b"/>
</g>
<g clip-path="url(#a)">
<use x="324.154366" y="817.788414" fill="#ffffff" stroke="#ffffff" xlink:href="#b"/>
</g>
<g clip-path="url(#a)">
<use x="371.451573" y="817.788414" fill="#ffffff" stroke="#ffffff" xlink:href="#b"/>
</g>
<g clip-path="url(#a)">
<use x="418.748781" y="817.788414" fill="#ffffff" stroke="#ffffff" xlink:href="#b"/>
</g>
<g clip-path="url(#a)">
<use x="489.694592" y="669.218303" fill="#ffffff" stroke="#ffffff" xlink:href="#b"/>
</g>
<g clip-path="url(#a)">
<use x="560.640403" y="817.788414" fill="#ffffff" stroke="#ffffff" xlink:href="#b"/>
</g>
<g clip-path="url(#a)">
<use x="678.883422" y="669.218303" fill="#ffffff" stroke="#ffffff" xlink:href="#b"/>
</g>
<g clip-path="url(#a)">
<use x="607.937611" y="817.788414" fill="#ffffff" stroke="#ffffff" xlink:href="#b"/>
</g>
<g clip-path="url(#a)">
<use x="678.883422" y="817.788414" fill="#ffffff" stroke="#ffffff" xlink:href="#b"/>
</g>
<g clip-path="url(#a)">
<use x="749.829233" y="817.788414" fill="#ffffff" stroke="#ffffff" xlink:href="#b"/>
</g>
<g clip-path="url(#a)">
<use x="466.045988" y="817.788414" fill="#ffffff" stroke="#ffffff" xlink:href="#b"/>
</g>
<g clip-path="url(#a)">
<use x="513.343196" y="817.788414" fill="#ffffff" stroke="#ffffff" xlink:href="#b"/>
</g>
<g clip-path="url(#a)">
<use x="87.668328" y="817.788414" fill="#ffffff" stroke="#ffffff" xlink:href="#b"/>
</g>
<g clip-path="url(#a)">
<use x="134.965536" y="817.788414" fill="#ffffff" stroke="#ffffff" xlink:href="#b"/>
</g>
<g clip-path="url(#a)">
<use x="1368.692756" y="46.974808" fill="#808080" stroke="#808080" xlink:href="#b"/>
</g>
<g clip-path="url(#a)">
<use x="733.859127" y="46.974808" fill="#808080" stroke="#808080" xlink:href="#b"/>
</g>
<g clip-path="url(#a)">
<use x="182.262743" y="817.788414" fill="#ffffff" stroke="#ffffff" xlink:href="#b"/>
</g>
<g clip-path="url(#a)">
<use x="797.12644" y="817.788414" fill="#ffffff" stroke="#ffffff" xlink:href="#b"/>
</g>
<g clip-path="url(#a)">
<use x="1222.801308" y="817.788414" fill="#ffffff" stroke="#ffffff" xlink:href="#b"/>
</g>
<g clip-path="url(#a)">
<use x="1837.665005" y="817.788414" fill="#ffffff" stroke="#ffffff" xlink:href="#b"/>
</g>
<g clip-path="url(#a)">
<defs>
<path id="au" d="m19.672 34.812v-26.703h15.828q7.9531 0 11.781 3.2969 3.8438 3.2969 3.8438 10.078 0 6.8438-3.8438 10.078-3.8281 3.25-11.781 3.25zm0 29.984v-21.969h14.609q7.2188 0 10.75 2.7031 3.5469 2.7188 3.5469 8.2812 0 5.5156-3.5469 8.25-3.5312 2.7344-10.75 2.7344zm-9.8594 8.1094h25.203q11.281 0 17.375-4.6875 6.1094-4.6875 6.1094-13.328 0-6.7031-3.125-10.656t-9.1875-4.9219q7.2812-1.5625 11.312-6.5312 4.0312-4.9531 4.0312-12.375 0-9.7656-6.6406-15.094-6.6406-5.3125-18.906-5.3125h-26.172z"/>
<path id="aw" d="m32.172-5.0781q-3.7969-9.7656-7.4219-12.734-3.6094-2.9844-9.6562-2.9844h-7.1875v7.5156h5.2812q3.7031 0 5.75 1.7656 2.0625 1.75 4.5469 8.2969l1.6094 4.0938-22.109 53.812h9.5156l17.094-42.766 17.094 42.766h9.5156z"/>
</defs>
<g transform="translate(81.278 969.12) scale(.1 -.1)">
<use xlink:href="#au"/>
<use x="68.603516" xlink:href="#aw"/>
</g>
</g>
<g clip-path="url(#a)">
<defs>
<path id="c" d="m12.406 8.2969h16.109v55.625l-17.531-3.5156v8.9844l17.438 3.5156h9.8594v-64.609h16.109v-8.2969h-41.984z"/>
<path id="y" d="m10.984 1.5156v8.9844q3.7188-1.7656 7.5156-2.6875 3.8125-0.92188 7.4844-0.92188 9.7656 0 14.906 6.5625 5.1562 6.5625 5.8906 19.953-2.8281-4.2031-7.1875-6.4531-4.3438-2.25-9.6094-2.25-10.938 0-17.312 6.6094-6.375 6.625-6.375 18.109 0 11.219 6.6406 18 6.6406 6.7969 17.672 6.7969 12.656 0 19.312-9.7031 6.6719-9.6875 6.6719-28.141 0-17.234-8.1875-27.516-8.1719-10.281-21.984-10.281-3.7188 0-7.5312 0.73438-3.7969 0.73438-7.9062 2.2031zm19.625 30.906q6.6406 0 10.516 4.5312 3.8906 4.5469 3.8906 12.469 0 7.8594-3.8906 12.422-3.875 4.5625-10.516 4.5625t-10.516-4.5625-3.875-12.422q0-7.9219 3.875-12.469 3.875-4.5312 10.516-4.5312z"/>
<path id="m" d="m37.797 64.312-24.906-38.922h24.906zm-2.5938 8.5938h12.406v-47.516h10.406v-8.2031h-10.406v-17.188h-9.8125v17.188h-32.906v9.5156z"/>
<path id="aj" d="m31.781 34.625q-7.0312 0-11.062-3.7656-4.0156-3.7656-4.0156-10.344 0-6.5938 4.0156-10.359 4.0312-3.7656 11.062-3.7656t11.078 3.7812q4.0625 3.7969 4.0625 10.344 0 6.5781-4.0312 10.344-4.0156 3.7656-11.109 3.7656zm-9.8594 4.1875q-6.3438 1.5625-9.8906 5.9062-3.5312 4.3594-3.5312 10.609 0 8.7344 6.2188 13.812 6.2344 5.0781 17.062 5.0781 10.891 0 17.094-5.0781t6.2031-13.812q0-6.25-3.5469-10.609-3.5312-4.3438-9.8281-5.9062 7.125-1.6562 11.094-6.5 3.9844-4.8281 3.9844-11.797 0-10.609-6.4688-16.281-6.4688-5.6562-18.531-5.6562-12.047 0-18.531 5.6562-6.4688 5.6719-6.4688 16.281 0 6.9688 4 11.797 4.0156 4.8438 11.141 6.5zm-3.6094 15.578q0-5.6562 3.5312-8.8281 3.5469-3.1719 9.9375-3.1719 6.3594 0 9.9375 3.1719 3.5938 3.1719 3.5938 8.8281 0 5.6719-3.5938 8.8438-3.5781 3.1719-9.9375 3.1719-6.3906 0-9.9375-3.1719-3.5312-3.1719-3.5312-8.8438z"/>
</defs>
<g transform="translate(122.24 969.12) scale(.1 -.1)">
<use xlink:href="#c"/>
<use x="63.623047" xlink:href="#y"/>
<use x="127.246094" xlink:href="#m"/>
<use x="190.869141" xlink:href="#aj"/>
</g>
</g>
<g clip-path="url(#a)">
<defs>
<path id="ap" d="m11.719 12.406h10.297v-8.4062l-8-15.625h-6.2969l4 15.625z"/>
</defs>
<g transform="translate(180.67 969.12) scale(.1 -.1)">
<use xlink:href="#ap"/>
</g>
</g>
<g clip-path="url(#a)">
<defs>
<path id="an" d="m39.406 66.219q-10.75 0-17.078-8.0156-6.3125-8-6.3125-21.828 0-13.766 6.3125-21.781 6.3281-8 17.078-8 10.734 0 17.016 8 6.2812 8.0156 6.2812 21.781 0 13.828-6.2812 21.828-6.2812 8.0156-17.016 8.0156zm0 8q15.328 0 24.5-10.281 9.1875-10.281 9.1875-27.562 0-17.234-9.1875-27.516-9.1719-10.281-24.5-10.281-15.375 0-24.594 10.25-9.2031 10.266-9.2031 27.547t9.2031 27.562q9.2188 10.281 24.594 10.281z"/>
<path id="ay" d="m2.9844 54.688h9.5156l17.094-45.891 17.094 45.891h9.5156l-20.516-54.688h-12.203z"/>
</defs>
<g transform="translate(213.37 969.12) scale(.1 -.1)">
<use xlink:href="#an"/>
<use x="78.710938" xlink:href="#j"/>
<use x="106.494141" xlink:href="#h"/>
<use x="134.277344" xlink:href="#ay"/>
<use x="193.457031" xlink:href="#h"/>
<use x="221.240234" xlink:href="#f"/>
<use x="282.763672" xlink:href="#g"/>
</g>
</g>
<g clip-path="url(#a)">
<defs>
<path id="aq" d="m4.2031 54.688h8.9844l11.234-42.672 11.172 42.672h10.594l11.234-42.672 11.188 42.672h8.9844l-14.312-54.688h-10.594l-11.766 44.828-11.812-44.828h-10.609z"/>
<path id="aa" d="m44.281 53.078v-8.5q-3.7969 1.9531-7.9062 2.9219-4.0938 0.98438-8.5 0.98438-6.6875 0-10.031-2.0469t-3.3438-6.1562q0-3.125 2.3906-4.9062t9.625-3.3906l3.0781-0.6875q9.5625-2.0469 13.594-5.7812t4.0312-10.422q0-7.625-6.0312-12.078-6.0312-4.4375-16.578-4.4375-4.3906 0-9.1562 0.85938t-10.031 2.5625v9.2812q4.9844-2.5938 9.8125-3.8906 4.8281-1.2812 9.5781-1.2812 6.3438 0 9.75 2.1719 3.4219 2.1719 3.4219 6.125 0 3.6562-2.4688 5.6094-2.4531 1.9531-10.812 3.7656l-3.125 0.73438q-8.3438 1.75-12.062 5.3906-3.7031 3.6406-3.7031 9.9844 0 7.7188 5.4688 11.906 5.4688 4.2031 15.531 4.2031 4.9688 0 9.3594-0.73438 4.4062-0.71875 8.1094-2.1875z"/>
</defs>
<g transform="translate(267.1 969.12) scale(.1 -.1)">
<use xlink:href="#aq"/>
<use x="81.787109" xlink:href="#e"/>
<use x="143.066406" xlink:href="#aa"/>
</g>
</g>
<g clip-path="url(#a)">
<defs>
<path id="s" d="m30.609 48.391q-7.2188 0-11.422-5.6406t-4.2031-15.453 4.1719-15.453q4.1875-5.6406 11.453-5.6406 7.1875 0 11.375 5.6562 4.2031 5.6719 4.2031 15.438 0 9.7188-4.2031 15.406-4.1875 5.6875-11.375 5.6875zm0 7.6094q11.719 0 18.406-7.625 6.7031-7.6094 6.7031-21.078 0-13.422-6.7031-21.078-6.6875-7.6406-18.406-7.6406-11.766 0-18.438 7.6406-6.6562 7.6562-6.6562 21.078 0 13.469 6.6562 21.078 6.6719 7.625 18.438 7.625z"/>
</defs>
<g transform="translate(317.93 969.12) scale(.1 -.1)">
<use xlink:href="#s"/>
<use x="61.181641" xlink:href="#i"/>
</g>
</g>
<g clip-path="url(#a)">
<defs>
<path id="v" d="m18.312 70.219v-15.531h18.5v-6.9844h-18.5v-29.688q0-6.6875 1.8281-8.5938t7.4531-1.9062h9.2188v-7.5156h-9.2188q-10.406 0-14.359 3.875-3.9531 3.8906-3.9531 14.141v29.688h-6.5938v6.9844h6.5938v15.531z"/>
<path id="ab" d="m54.891 33.016v-33.016h-8.9844v32.719q0 7.7656-3.0312 11.609-3.0312 3.8594-9.0781 3.8594-7.2812 0-11.484-4.6406-4.2031-4.625-4.2031-12.641v-30.906h-9.0312v75.984h9.0312v-29.797q3.2344 4.9375 7.5938 7.375 4.375 2.4375 10.094 2.4375 9.4219 0 14.25-5.8281 4.8438-5.8281 4.8438-17.156z"/>
</defs>
<g transform="translate(363.25 969.12) scale(.1 -.1)">
<use xlink:href="#v"/>
<use x="39.208984" xlink:href="#ab"/>
<use x="102.587891" xlink:href="#f"/>
</g>
</g>
<g clip-path="url(#a)">
<defs>
<path id="am" d="m48.688 27.297q0 9.9062-4.0781 15.547t-11.203 5.6406q-7.1406 0-11.219-5.6406t-4.0781-15.547 4.0781-15.547 11.219-5.6406q7.125 0 11.203 5.6406t4.0781 15.547zm-30.578 19.094q2.8438 4.875 7.1562 7.2344 4.3281 2.375 10.328 2.375 9.9688 0 16.188-7.9062 6.2344-7.9062 6.2344-20.797t-6.2344-20.812q-6.2188-7.9062-16.188-7.9062-6 0-10.328 2.375-4.3125 2.375-7.1562 7.25v-8.2031h-9.0312v75.984h9.0312z"/>
<path id="w" d="m45.406 46.391v29.594h8.9844v-75.984h-8.9844v8.2031q-2.8281-4.875-7.1562-7.25-4.3125-2.375-10.375-2.375-9.9062 0-16.141 7.9062-6.2188 7.9219-6.2188 20.812t6.2188 20.797q6.2344 7.9062 16.141 7.9062 6.0625 0 10.375-2.375 4.3281-2.3594 7.1562-7.2344zm-30.609-19.094q0-9.9062 4.0781-15.547t11.203-5.6406 11.219 5.6406q4.1094 5.6406 4.1094 15.547t-4.1094 15.547q-4.0938 5.6406-11.219 5.6406t-11.203-5.6406-4.0781-15.547z"/>
</defs>
<g transform="translate(404.22 969.12) scale(.1 -.1)">
<use xlink:href="#am"/>
<use x="63.476562" xlink:href="#s"/>
<use x="124.658203" xlink:href="#e"/>
<use x="185.9375" xlink:href="#g"/>
<use x="227.035156" xlink:href="#w"/>
</g>
</g>
<g clip-path="url(#a)">
<defs>
<path id="ae" d="m37.109 75.984v-7.4844h-8.5938q-4.8281 0-6.7188-1.9531-1.875-1.9531-1.875-7.0312v-4.8281h14.797v-6.9844h-14.797v-47.703h-9.0312v47.703h-8.5938v6.9844h8.5938v3.8125q0 9.125 4.25 13.297 4.25 4.1875 13.469 4.1875z"/>
</defs>
<g transform="translate(461.23 969.12) scale(.1 -.1)">
<use xlink:href="#s"/>
<use x="61.181641" xlink:href="#ae"/>
</g>
</g>
<g clip-path="url(#a)">
<defs>
<path id="al" d="m48.781 52.594v-8.4062q-3.8125 2.1094-7.6406 3.1562t-7.7344 1.0469q-8.75 0-13.594-5.5469-4.8281-5.5312-4.8281-15.547t4.8281-15.562q4.8438-5.5312 13.594-5.5312 3.9062 0 7.7344 1.0469t7.6406 3.1562v-8.3125q-3.7656-1.75-7.7969-2.625-4.0156-0.89062-8.5625-0.89062-12.359 0-19.641 7.7656-7.2656 7.7656-7.2656 20.953 0 13.375 7.3438 21.031 7.3594 7.6719 20.156 7.6719 4.1406 0 8.0938-0.85938 3.9531-0.84375 7.6719-2.5469z"/>
</defs>
<g transform="translate(491.22 969.12) scale(.1 -.1)">
<use xlink:href="#w"/>
<use x="63.476562" xlink:href="#h"/>
<use x="91.259766" xlink:href="#g"/>
<use x="132.341797" xlink:href="#f"/>
<use x="193.865234" xlink:href="#al"/>
<use x="248.845703" xlink:href="#v"/>
<use x="288.054688" xlink:href="#s"/>
<use x="349.236328" xlink:href="#g"/>
<use x="390.349609" xlink:href="#aa"/>
</g>
</g>
<g clip-path="url(#a)">
<g transform="translate(553.77 969.12) scale(.1 -.1)">
<use xlink:href="#ae"/>
<use x="35.205078" xlink:href="#s"/>
<use x="96.386719" xlink:href="#g"/>
</g>
</g>
<g clip-path="url(#a)">
<g transform="translate(599.73 969.12) scale(.1 -.1)">
<use xlink:href="#v"/>
<use x="39.208984" xlink:href="#ab"/>
<use x="102.587891" xlink:href="#f"/>
</g>
</g>
<g clip-path="url(#a)">
<g transform="translate(646.74 969.12) scale(.1 -.1)">
<use xlink:href="#an"/>
<use x="78.710938" xlink:href="#j"/>
<use x="106.494141" xlink:href="#w"/>
</g>
</g>
<g clip-path="url(#a)">
<defs>
<path id="as" d="m28.609 0-27.828 72.906h10.297l23.109-61.375 23.141 61.375h10.25l-27.781-72.906z"/>
</defs>
<g transform="translate(694.97 969.12) scale(.1 -.1)">
<use xlink:href="#as"/>
<use x="68.376953" xlink:href="#h"/>
<use x="96.160156" xlink:href="#al"/>
</g>
</g>
<g clip-path="url(#a)">
<g transform="translate(730.38 969.12) scale(.1 -.1)">
<use xlink:href="#l"/>
<use x="61.083984" xlink:href="#ab"/>
<use x="124.462891" xlink:href="#f"/>
<use x="185.986328" xlink:href="#e"/>
<use x="247.265625" xlink:href="#v"/>
<use x="286.474609" xlink:href="#g"/>
<use x="327.556641" xlink:href="#f"/>
</g>
</g>
<g clip-path="url(#a)">
<g transform="translate(795.54 969.12) scale(.1 -.1)">
<use xlink:href="#ap"/>
</g>
</g>
<g clip-path="url(#a)">
<g transform="translate(835.02 969.12) scale(.1 -.1)">
<use xlink:href="#e"/>
<use x="61.279297" xlink:href="#i"/>
<use x="124.658203" xlink:href="#w"/>
</g>
</g>
<g clip-path="url(#a)">
<g transform="translate(885.48 969.12) scale(.1 -.1)">
<use xlink:href="#ab"/>
<use x="63.378906" xlink:href="#f"/>
</g>
</g>
<g clip-path="url(#a)">
<g transform="translate(929.61 969.12) scale(.1 -.1)">
<use xlink:href="#e"/>
<use x="61.279297" xlink:href="#i"/>
<use x="124.658203" xlink:href="#w"/>
</g>
</g>
<g clip-path="url(#a)">
<defs>
<path id="ba" d="m45.406 27.984q0 9.7656-4.0312 15.125-4.0156 5.375-11.297 5.375-7.2188 0-11.25-5.375-4.0312-5.3594-4.0312-15.125 0-9.7188 4.0312-15.094t11.25-5.375q7.2812 0 11.297 5.375 4.0312 5.375 4.0312 15.094zm8.9844-21.203q0-13.953-6.2031-20.766-6.1875-6.8125-18.984-6.8125-4.7344 0-8.9375 0.70312t-8.1562 2.1719v8.7344q3.9531-2.1406 7.8125-3.1562 3.8594-1.0312 7.8594-1.0312 8.8438 0 13.234 4.6094t4.3906 13.938v4.4531q-2.7812-4.8438-7.125-7.2344t-10.406-2.3906q-10.047 0-16.203 7.6562-6.1562 7.6719-6.1562 20.328 0 12.688 6.1562 20.344 6.1562 7.6719 16.203 7.6719 6.0625 0 10.406-2.3906t7.125-7.2188v8.2969h8.9844z"/>
</defs>
<g transform="translate(972.72 969.12) scale(.1 -.1)">
<use xlink:href="#u"/>
<use x="55.697266" xlink:href="#f"/>
<use x="117.220703" xlink:href="#h"/>
<use x="145.003906" xlink:href="#ba"/>
<use x="208.480469" xlink:href="#ab"/>
</g>
</g>
<g clip-path="url(#a)">
<defs>
<path id="az" d="m9.0781 75.984h9.0312v-44.875l26.812 23.578h11.469l-29-25.578 30.234-29.109h-11.719l-27.797 26.703v-26.703h-9.0312z"/>
</defs>
<g transform="translate(1008.2 969.12) scale(.1 -.1)">
<use xlink:href="#f"/>
<use x="61.523438" xlink:href="#k"/>
<use x="158.935547" xlink:href="#am"/>
<use x="222.412109" xlink:href="#e"/>
<use x="283.691406" xlink:href="#g"/>
<use x="324.804688" xlink:href="#az"/>
<use x="382.667969" xlink:href="#f"/>
<use x="444.191406" xlink:href="#w"/>
</g>
</g>
<g clip-path="url(#a)">
<g transform="translate(1074.7 969.12) scale(.1 -.1)">
<use xlink:href="#s"/>
<use x="61.181641" xlink:href="#i"/>
</g>
</g>
<g clip-path="url(#a)">
<g transform="translate(1125.1 969.12) scale(.1 -.1)">
<use xlink:href="#e"/>
</g>
</g>
<g clip-path="url(#a)">
<defs>
<path id="ax" d="m54.891 54.688-19.781-26.609 20.797-28.078h-10.594l-15.922 21.484-15.906-21.484h-10.609l21.25 28.609-19.438 26.078h10.594l14.5-19.484 14.5 19.484z"/>
</defs>
<g transform="translate(1168.6 969.12) scale(.1 -.1)">
<use xlink:href="#aa"/>
<use x="52.099609" xlink:href="#h"/>
<use x="79.882812" xlink:href="#ax"/>
</g>
</g>
<g clip-path="url(#a)">
<defs>
<path id="av" d="m4.8906 31.391h26.312v-8h-26.312z"/>
</defs>
<g transform="translate(1221 969.12) scale(.1 -.1)">
<use xlink:href="#av"/>
</g>
</g>
<g clip-path="url(#a)">
<g transform="translate(1253.9 969.12) scale(.1 -.1)">
<use xlink:href="#k"/>
<use x="97.412109" xlink:href="#s"/>
<use x="158.59375" xlink:href="#i"/>
<use x="221.972656" xlink:href="#v"/>
<use x="261.181641" xlink:href="#ab"/>
</g>
</g>
<g clip-path="url(#a)">
<defs>
<path id="ak" d="m8.5 21.578v33.109h8.9844v-32.766q0-7.7656 3.0156-11.656 3.0312-3.875 9.0938-3.875 7.2656 0 11.484 4.6406 4.2344 4.6406 4.2344 12.656v31h8.9844v-54.688h-8.9844v8.4062q-3.2656-4.9844-7.5938-7.4062-4.3125-2.4219-10.031-2.4219-9.4219 0-14.312 5.8594-4.875 5.8594-4.875 17.141z"/>
</defs>
<g transform="translate(1307.2 969.12) scale(.1 -.1)">
<use xlink:href="#v"/>
<use x="39.208984" xlink:href="#s"/>
<use x="100.390625" xlink:href="#ak"/>
<use x="163.769531" xlink:href="#g"/>
</g>
</g>
<g clip-path="url(#a)">
<g transform="translate(1359.9 969.12) scale(.1 -.1)">
<use xlink:href="#s"/>
<use x="61.181641" xlink:href="#ae"/>
</g>
</g>
<g clip-path="url(#a)">
<g transform="translate(1389.9 969.12) scale(.1 -.1)">
<use xlink:href="#p"/>
<use x="68.408203" xlink:href="#ak"/>
<use x="131.787109" xlink:href="#aa"/>
<use x="183.886719" xlink:href="#v"/>
<use x="223.095703" xlink:href="#g"/>
<use x="264.208984" xlink:href="#e"/>
<use x="325.488281" xlink:href="#j"/>
<use x="353.271484" xlink:href="#h"/>
<use x="381.054688" xlink:href="#e"/>
</g>
</g>
<g clip-path="url(#a)">
<g transform="translate(1449.9 969.12) scale(.1 -.1)">
<use xlink:href="#e"/>
<use x="61.279297" xlink:href="#i"/>
<use x="124.658203" xlink:href="#w"/>
</g>
</g>
<g clip-path="url(#a)">
<g transform="translate(1495.7 969.12) scale(.1 -.1)">
<use xlink:href="#ah"/>
<use x="74.804688" xlink:href="#f"/>
<use x="136.328125" xlink:href="#aq"/>
</g>
</g>
<g clip-path="url(#a)">
<defs>
<path id="ar" d="m5.6094 72.906h57.281v-7.5312l-46.094-57.078h47.219v-8.2969h-59.516v7.5156l46.094 57.078h-44.984z"/>
</defs>
<g transform="translate(1533.5 969.12) scale(.1 -.1)">
<use xlink:href="#ar"/>
<use x="68.505859" xlink:href="#f"/>
<use x="130.029297" xlink:href="#e"/>
<use x="191.308594" xlink:href="#j"/>
<use x="219.091797" xlink:href="#e"/>
<use x="280.371094" xlink:href="#i"/>
<use x="343.75" xlink:href="#w"/>
</g>
</g>
<g clip-path="url(#a)">
<g transform="translate(1596.2 969.12) scale(.1 -.1)">
<use xlink:href="#v"/>
<use x="39.208984" xlink:href="#s"/>
</g>
</g>
<g clip-path="url(#a)">
<g transform="translate(1636.3 969.12) scale(.1 -.1)">
<use xlink:href="#g"/>
<use x="41.113281" xlink:href="#e"/>
<use x="102.392578" xlink:href="#h"/>
<use x="130.175781" xlink:href="#aa"/>
<use x="182.275391" xlink:href="#f"/>
</g>
</g>
<g clip-path="url(#a)">
<g transform="translate(1681.9 969.12) scale(.1 -.1)">
<use xlink:href="#ae"/>
<use x="35.205078" xlink:href="#ak"/>
<use x="98.583984" xlink:href="#i"/>
<use x="161.962891" xlink:href="#w"/>
<use x="225.439453" xlink:href="#aa"/>
</g>
</g>
<g clip-path="url(#a)">
<g transform="translate(1736.2 969.12) scale(.1 -.1)">
<use xlink:href="#ae"/>
<use x="35.205078" xlink:href="#s"/>
<use x="96.386719" xlink:href="#g"/>
</g>
</g>
<g clip-path="url(#a)">
<g transform="translate(1787 969.12) scale(.1 -.1)">
<use xlink:href="#h"/>
<use x="27.783203" xlink:href="#v"/>
</g>
</g>
<g clip-path="url(#a)">
<defs>
<path id="d" d="m10.688 12.406h10.312v-12.406h-10.312z"/>
</defs>
<g transform="translate(1836.1 969.12) scale(.1 -.1)">
<use xlink:href="#d"/>
</g>
</g>
<g clip-path="url(#a)">
<g transform="translate(992.45 49.734) scale(.1 -.1)">
<use xlink:href="#c"/>
<use x="63.623047" xlink:href="#d"/>
<use x="95.410156" xlink:href="#c"/>
</g>
</g>
<g clip-path="url(#a)">
<defs>
<path id="o" d="m19.188 8.2969h34.422v-8.2969h-46.281v8.2969q5.6094 5.8125 15.297 15.594 9.7031 9.7969 12.188 12.641 4.7344 5.3125 6.6094 9 1.8906 3.6875 1.8906 7.25 0 5.8125-4.0781 9.4688-4.0781 3.6719-10.625 3.6719-4.6406 0-9.7969-1.6094-5.1406-1.6094-11-4.8906v9.9688q5.9531 2.3906 11.125 3.6094 5.1875 1.2188 9.4844 1.2188 11.328 0 18.062-5.6719 6.7344-5.6562 6.7344-15.125 0-4.5-1.6875-8.5312-1.6719-4.0156-6.125-9.4844-1.2188-1.4219-7.7656-8.1875-6.5312-6.7656-18.453-18.922z"/>
</defs>
<g transform="translate(246.83 367.8) scale(.1 -.1)">
<use xlink:href="#c"/>
<use x="63.623047" xlink:href="#d"/>
<use x="95.410156" xlink:href="#o"/>
</g>
</g>
<g clip-path="url(#a)">
<defs>
<path id="n" d="m40.578 39.312q7.0781-1.5156 11.047-6.3125 3.9844-4.7812 3.9844-11.812 0-10.781-7.4219-16.703-7.4219-5.9062-21.094-5.9062-4.5781 0-9.4375 0.90625t-10.031 2.7188v9.5156q4.0938-2.3906 8.9688-3.6094 4.8906-1.2188 10.219-1.2188 9.2656 0 14.125 3.6562t4.8594 10.641q0 6.4531-4.5156 10.078-4.5156 3.6406-12.562 3.6406h-8.5v8.1094h8.8906q7.2656 0 11.125 2.9062t3.8594 8.375q0 5.6094-3.9844 8.6094-3.9688 3.0156-11.391 3.0156-4.0625 0-8.7031-0.89062-4.6406-0.875-10.203-2.7188v8.7812q5.625 1.5625 10.531 2.3438t9.25 0.78125q11.234 0 17.766-5.1094 6.5469-5.0938 6.5469-13.781 0-6.0625-3.4688-10.234t-9.8594-5.7812z"/>
</defs>
<g transform="translate(836.47 820.55) scale(.1 -.1)">
<use xlink:href="#c"/>
<use x="63.623047" xlink:href="#d"/>
<use x="95.410156" xlink:href="#n"/>
</g>
</g>
<g clip-path="url(#a)">
<g transform="translate(1094.4 210.77) scale(.1 -.1)">
<use xlink:href="#c"/>
<use x="63.623047" xlink:href="#d"/>
<use x="95.410156" xlink:href="#m"/>
</g>
</g>
<g clip-path="url(#a)">
<defs>
<path id="q" d="m10.797 72.906h38.719v-8.3125h-29.688v-17.859q2.1406 0.73438 4.2812 1.0938 2.1562 0.35938 4.3125 0.35938 12.203 0 19.328-6.6875 7.1406-6.6875 7.1406-18.109 0-11.766-7.3281-18.297-7.3281-6.5156-20.656-6.5156-4.5938 0-9.3594 0.78125-4.75 0.78125-9.8281 2.3438v9.9219q4.3906-2.3906 9.0781-3.5625t9.9062-1.1719q8.4531 0 13.375 4.4375 4.9375 4.4375 4.9375 12.062 0 7.6094-4.9375 12.047-4.9219 4.4531-13.375 4.4531-3.9531 0-7.8906-0.875-3.9219-0.875-8.0156-2.7344z"/>
</defs>
<g transform="translate(1593.2 820.55) scale(.1 -.1)">
<use xlink:href="#c"/>
<use x="63.623047" xlink:href="#d"/>
<use x="95.410156" xlink:href="#q"/>
</g>
</g>
<g clip-path="url(#a)">
<defs>
<path id="z" d="m33.016 40.375q-6.6406 0-10.531-4.5469-3.875-4.5312-3.875-12.438 0-7.8594 3.875-12.438 3.8906-4.5625 10.531-4.5625t10.516 4.5625q3.875 4.5781 3.875 12.438 0 7.9062-3.875 12.438-3.875 4.5469-10.516 4.5469zm19.578 30.922v-8.9844q-3.7188 1.75-7.5 2.6719-3.7812 0.9375-7.5 0.9375-9.7656 0-14.922-6.5938-5.1406-6.5938-5.875-19.922 2.875 4.25 7.2188 6.5156 4.3594 2.2656 9.5781 2.2656 10.984 0 17.359-6.6719 6.375-6.6562 6.375-18.125 0-11.234-6.6406-18.031-6.6406-6.7812-17.672-6.7812-12.656 0-19.344 9.6875-6.6875 9.7031-6.6875 28.109 0 17.281 8.2031 27.562t22.016 10.281q3.7188 0 7.5-0.73438t7.8906-2.1875z"/>
</defs>
<g transform="translate(1394.6 521.34) scale(.1 -.1)">
<use xlink:href="#c"/>
<use x="63.623047" xlink:href="#d"/>
<use x="95.410156" xlink:href="#z"/>
</g>
</g>
<g clip-path="url(#a)">
<g transform="translate(1640.5 820.55) scale(.1 -.1)">
<use xlink:href="#c"/>
<use x="63.623047" xlink:href="#d"/>
<use x="95.410156" xlink:href="#y"/>
</g>
</g>
<g clip-path="url(#a)">
<defs>
<path id="ad" d="m31.781 66.406q-7.6094 0-11.453-7.5-3.8281-7.4844-3.8281-22.531 0-14.984 3.8281-22.484 3.8438-7.5 11.453-7.5 7.6719 0 11.5 7.5 3.8438 7.5 3.8438 22.484 0 15.047-3.8438 22.531-3.8281 7.5-11.5 7.5zm0 7.8125q12.266 0 18.734-9.7031 6.4688-9.6875 6.4688-28.141 0-18.406-6.4688-28.109-6.4688-9.6875-18.734-9.6875-12.25 0-18.719 9.6875-6.4688 9.7031-6.4688 28.109 0 18.453 6.4688 28.141 6.4688 9.7031 18.719 9.7031z"/>
</defs>
<g transform="translate(1684.6 820.55) scale(.1 -.1)">
<use xlink:href="#c"/>
<use x="63.623047" xlink:href="#d"/>
<use x="95.410156" xlink:href="#c"/>
<use x="159.033203" xlink:href="#ad"/>
</g>
</g>
<g clip-path="url(#a)">
<g transform="translate(1779.2 671.98) scale(.1 -.1)">
<use xlink:href="#c"/>
<use x="63.623047" xlink:href="#d"/>
<use x="95.410156" xlink:href="#c"/>
<use x="159.033203" xlink:href="#c"/>
</g>
</g>
<g clip-path="url(#a)">
<g transform="translate(1731.9 820.55) scale(.1 -.1)">
<use xlink:href="#c"/>
<use x="63.623047" xlink:href="#d"/>
<use x="95.410156" xlink:href="#c"/>
<use x="159.033203" xlink:href="#o"/>
</g>
</g>
<g clip-path="url(#a)">
<g transform="translate(1779.2 820.55) scale(.1 -.1)">
<use xlink:href="#c"/>
<use x="63.623047" xlink:href="#d"/>
<use x="95.410156" xlink:href="#c"/>
<use x="159.033203" xlink:href="#n"/>
</g>
</g>
<g clip-path="url(#a)">
<g transform="translate(927.89 671.98) scale(.1 -.1)">
<use xlink:href="#c"/>
<use x="63.623047" xlink:href="#d"/>
<use x="95.410156" xlink:href="#c"/>
<use x="159.033203" xlink:href="#m"/>
</g>
</g>
<g clip-path="url(#a)">
<g transform="translate(1046.1 671.98) scale(.1 -.1)">
<use xlink:href="#c"/>
<use x="63.623047" xlink:href="#d"/>
<use x="95.410156" xlink:href="#c"/>
<use x="159.033203" xlink:href="#q"/>
</g>
</g>
<g clip-path="url(#a)">
<g transform="translate(1299.7 367.8) scale(.1 -.1)">
<use xlink:href="#c"/>
<use x="63.623047" xlink:href="#d"/>
<use x="95.410156" xlink:href="#c"/>
<use x="159.033203" xlink:href="#z"/>
</g>
</g>
<g clip-path="url(#a)">
<defs>
<path id="ac" d="m8.2031 72.906h46.875v-4.2031l-26.469-68.703h-10.297l24.906 64.594h-35.016z"/>
</defs>
<g transform="translate(1188 671.98) scale(.1 -.1)">
<use xlink:href="#c"/>
<use x="63.623047" xlink:href="#d"/>
<use x="95.410156" xlink:href="#c"/>
<use x="159.033203" xlink:href="#ac"/>
</g>
</g>
<g clip-path="url(#a)">
<g transform="translate(1306.3 820.55) scale(.1 -.1)">
<use xlink:href="#c"/>
<use x="63.623047" xlink:href="#d"/>
<use x="95.410156" xlink:href="#c"/>
<use x="159.033203" xlink:href="#aj"/>
</g>
</g>
<g clip-path="url(#a)">
<g transform="translate(1404.8 521.34) scale(.1 -.1)">
<use xlink:href="#c"/>
<use x="63.623047" xlink:href="#d"/>
<use x="95.410156" xlink:href="#c"/>
<use x="159.033203" xlink:href="#y"/>
</g>
</g>
<g clip-path="url(#a)">
<g transform="translate(1353.6 820.55) scale(.1 -.1)">
<use xlink:href="#c"/>
<use x="63.623047" xlink:href="#d"/>
<use x="95.410156" xlink:href="#o"/>
<use x="159.033203" xlink:href="#ad"/>
</g>
</g>
<g clip-path="url(#a)">
<g transform="translate(1456 671.98) scale(.1 -.1)">
<use xlink:href="#c"/>
<use x="63.623047" xlink:href="#d"/>
<use x="95.410156" xlink:href="#o"/>
<use x="159.033203" xlink:href="#c"/>
</g>
</g>
<g clip-path="url(#a)">
<g transform="translate(1400.9 820.55) scale(.1 -.1)">
<use xlink:href="#c"/>
<use x="63.623047" xlink:href="#d"/>
<use x="95.410156" xlink:href="#o"/>
<use x="159.033203" xlink:href="#o"/>
</g>
</g>
<g clip-path="url(#a)">
<g transform="translate(1448.2 820.55) scale(.1 -.1)">
<use xlink:href="#c"/>
<use x="63.623047" xlink:href="#d"/>
<use x="95.410156" xlink:href="#o"/>
<use x="159.033203" xlink:href="#n"/>
</g>
</g>
<g clip-path="url(#a)">
<g transform="translate(1519.1 820.55) scale(.1 -.1)">
<use xlink:href="#c"/>
<use x="63.623047" xlink:href="#d"/>
<use x="95.410156" xlink:href="#o"/>
<use x="159.033203" xlink:href="#m"/>
</g>
</g>
<g clip-path="url(#a)">
<g transform="translate(1117.1 820.55) scale(.1 -.1)">
<use xlink:href="#c"/>
<use x="63.623047" xlink:href="#d"/>
<use x="95.410156" xlink:href="#o"/>
<use x="159.033203" xlink:href="#q"/>
</g>
</g>
<g clip-path="url(#a)">
<g transform="translate(1164.4 820.55) scale(.1 -.1)">
<use xlink:href="#c"/>
<use x="63.623047" xlink:href="#d"/>
<use x="95.410156" xlink:href="#o"/>
<use x="159.033203" xlink:href="#z"/>
</g>
</g>
<g clip-path="url(#a)">
<g transform="translate(1259 820.55) scale(.1 -.1)">
<use xlink:href="#c"/>
<use x="63.623047" xlink:href="#d"/>
<use x="95.410156" xlink:href="#o"/>
<use x="159.033203" xlink:href="#ac"/>
</g>
</g>
<g clip-path="url(#a)">
<g transform="translate(1022.5 820.55) scale(.1 -.1)">
<use xlink:href="#c"/>
<use x="63.623047" xlink:href="#d"/>
<use x="95.410156" xlink:href="#o"/>
<use x="159.033203" xlink:href="#y"/>
</g>
</g>
<g clip-path="url(#a)">
<g transform="translate(1069.8 820.55) scale(.1 -.1)">
<use xlink:href="#c"/>
<use x="63.623047" xlink:href="#d"/>
<use x="95.410156" xlink:href="#n"/>
<use x="159.033203" xlink:href="#ad"/>
</g>
</g>
<g clip-path="url(#a)">
<g transform="translate(880.59 820.55) scale(.1 -.1)">
<use xlink:href="#c"/>
<use x="63.623047" xlink:href="#d"/>
<use x="95.410156" xlink:href="#n"/>
<use x="159.033203" xlink:href="#c"/>
</g>
</g>
<g clip-path="url(#a)">
<g transform="translate(927.89 820.55) scale(.1 -.1)">
<use xlink:href="#c"/>
<use x="63.623047" xlink:href="#d"/>
<use x="95.410156" xlink:href="#n"/>
<use x="159.033203" xlink:href="#o"/>
</g>
</g>
<g clip-path="url(#a)">
<g transform="translate(975.18 820.55) scale(.1 -.1)">
<use xlink:href="#c"/>
<use x="63.623047" xlink:href="#d"/>
<use x="95.410156" xlink:href="#n"/>
<use x="159.033203" xlink:href="#n"/>
</g>
</g>
<g clip-path="url(#a)">
<g transform="translate(100.18 671.98) scale(.1 -.1)">
<use xlink:href="#c"/>
<use x="63.623047" xlink:href="#d"/>
<use x="95.410156" xlink:href="#n"/>
<use x="159.033203" xlink:href="#m"/>
</g>
</g>
<g clip-path="url(#a)">
<g transform="translate(218.43 820.55) scale(.1 -.1)">
<use xlink:href="#c"/>
<use x="63.623047" xlink:href="#d"/>
<use x="95.410156" xlink:href="#n"/>
<use x="159.033203" xlink:href="#q"/>
</g>
</g>
<g clip-path="url(#a)">
<g transform="translate(265.72 820.55) scale(.1 -.1)">
<use xlink:href="#c"/>
<use x="63.623047" xlink:href="#d"/>
<use x="95.410156" xlink:href="#n"/>
<use x="159.033203" xlink:href="#z"/>
</g>
</g>
<g clip-path="url(#a)">
<g transform="translate(462.8 521.34) scale(.1 -.1)">
<use xlink:href="#c"/>
<use x="63.623047" xlink:href="#d"/>
<use x="95.410156" xlink:href="#n"/>
<use x="159.033203" xlink:href="#ac"/>
</g>
</g>
<g clip-path="url(#a)">
<g transform="translate(313.02 820.55) scale(.1 -.1)">
<use xlink:href="#c"/>
<use x="63.623047" xlink:href="#d"/>
<use x="95.410156" xlink:href="#n"/>
<use x="159.033203" xlink:href="#y"/>
</g>
</g>
<g clip-path="url(#a)">
<g transform="translate(360.32 820.55) scale(.1 -.1)">
<use xlink:href="#c"/>
<use x="63.623047" xlink:href="#d"/>
<use x="95.410156" xlink:href="#m"/>
<use x="159.033203" xlink:href="#ad"/>
</g>
</g>
<g clip-path="url(#a)">
<g transform="translate(407.62 820.55) scale(.1 -.1)">
<use xlink:href="#c"/>
<use x="63.623047" xlink:href="#d"/>
<use x="95.410156" xlink:href="#m"/>
<use x="159.033203" xlink:href="#c"/>
</g>
</g>
<g clip-path="url(#a)">
<g transform="translate(478.56 671.98) scale(.1 -.1)">
<use xlink:href="#c"/>
<use x="63.623047" xlink:href="#d"/>
<use x="95.410156" xlink:href="#m"/>
<use x="159.033203" xlink:href="#o"/>
</g>
</g>
<g clip-path="url(#a)">
<g transform="translate(549.51 820.55) scale(.1 -.1)">
<use xlink:href="#c"/>
<use x="63.623047" xlink:href="#d"/>
<use x="95.410156" xlink:href="#m"/>
<use x="159.033203" xlink:href="#n"/>
</g>
</g>
<g clip-path="url(#a)">
<g transform="translate(667.75 671.98) scale(.1 -.1)">
<use xlink:href="#c"/>
<use x="63.623047" xlink:href="#d"/>
<use x="95.410156" xlink:href="#m"/>
<use x="159.033203" xlink:href="#m"/>
</g>
</g>
<g clip-path="url(#a)">
<g transform="translate(596.8 820.55) scale(.1 -.1)">
<use xlink:href="#c"/>
<use x="63.623047" xlink:href="#d"/>
<use x="95.410156" xlink:href="#m"/>
<use x="159.033203" xlink:href="#q"/>
</g>
</g>
<g clip-path="url(#a)">
<g transform="translate(667.75 820.55) scale(.1 -.1)">
<use xlink:href="#c"/>
<use x="63.623047" xlink:href="#d"/>
<use x="95.410156" xlink:href="#m"/>
<use x="159.033203" xlink:href="#z"/>
</g>
</g>
<g clip-path="url(#a)">
<g transform="translate(738.7 820.55) scale(.1 -.1)">
<use xlink:href="#c"/>
<use x="63.623047" xlink:href="#d"/>
<use x="95.410156" xlink:href="#m"/>
<use x="159.033203" xlink:href="#ac"/>
</g>
</g>
<g clip-path="url(#a)">
<g transform="translate(454.91 820.55) scale(.1 -.1)">
<use xlink:href="#c"/>
<use x="63.623047" xlink:href="#d"/>
<use x="95.410156" xlink:href="#m"/>
<use x="159.033203" xlink:href="#aj"/>
</g>
</g>
<g clip-path="url(#a)">
<g transform="translate(502.21 820.55) scale(.1 -.1)">
<use xlink:href="#c"/>
<use x="63.623047" xlink:href="#d"/>
<use x="95.410156" xlink:href="#m"/>
<use x="159.033203" xlink:href="#y"/>
</g>
</g>
<g clip-path="url(#a)">
<g transform="translate(76.536 820.55) scale(.1 -.1)">
<use xlink:href="#c"/>
<use x="63.623047" xlink:href="#d"/>
<use x="95.410156" xlink:href="#q"/>
<use x="159.033203" xlink:href="#ad"/>
</g>
</g>
<g clip-path="url(#a)">
<g transform="translate(123.83 820.55) scale(.1 -.1)">
<use xlink:href="#c"/>
<use x="63.623047" xlink:href="#d"/>
<use x="95.410156" xlink:href="#q"/>
<use x="159.033203" xlink:href="#c"/>
</g>
</g>
<g clip-path="url(#a)">
<g transform="translate(1357.6 49.734) scale(.1 -.1)">
<use xlink:href="#c"/>
<use x="63.623047" xlink:href="#d"/>
<use x="95.410156" xlink:href="#q"/>
<use x="159.033203" xlink:href="#o"/>
</g>
</g>
<g clip-path="url(#a)">
<g transform="translate(722.73 49.734) scale(.1 -.1)">
<use xlink:href="#c"/>
<use x="63.623047" xlink:href="#d"/>
<use x="95.410156" xlink:href="#q"/>
<use x="159.033203" xlink:href="#n"/>
</g>
</g>
<g clip-path="url(#a)">
<g transform="translate(171.13 820.55) scale(.1 -.1)">
<use xlink:href="#c"/>
<use x="63.623047" xlink:href="#d"/>
<use x="95.410156" xlink:href="#q"/>
<use x="159.033203" xlink:href="#m"/>
</g>
</g>
<g clip-path="url(#a)">
<g transform="translate(785.99 820.55) scale(.1 -.1)">
<use xlink:href="#c"/>
<use x="63.623047" xlink:href="#d"/>
<use x="95.410156" xlink:href="#q"/>
<use x="159.033203" xlink:href="#q"/>
</g>
</g>
<g clip-path="url(#a)">
<g transform="translate(1211.7 820.55) scale(.1 -.1)">
<use xlink:href="#c"/>
<use x="63.623047" xlink:href="#d"/>
<use x="95.410156" xlink:href="#q"/>
<use x="159.033203" xlink:href="#z"/>
</g>
</g>
<g clip-path="url(#a)">
<g transform="translate(1826.5 820.55) scale(.1 -.1)">
<use xlink:href="#c"/>
<use x="63.623047" xlink:href="#d"/>
<use x="95.410156" xlink:href="#q"/>
<use x="159.033203" xlink:href="#ac"/>
</g>
</g>
<defs>
<clipPath id="a">
<rect width="1925.3" height="1013.3"/>
</clipPath>
</defs>
</svg>
